<svg width="1003" height="334" viewBox="0 0 1003 334" fill="none" xmlns="http://www.w3.org/2000/svg">
<mask id="path-1-outside-1_394_378" maskUnits="userSpaceOnUse" x="0" y="0" width="1003" height="334" fill="black">
<rect fill="white" width="1003" height="334"/>
<path d="M1002 113H841V221H915V333H89V221H163V113H1V1H1002V113Z"/>
</mask>
<path d="M1002 113H841V221H915V333H89V221H163V113H1V1H1002V113Z" fill="white"/>
<path d="M1002 113V114H1003V113H1002ZM841 113V112H840V113H841ZM841 221H840V222H841V221ZM915 221H916V220H915V221ZM915 333V334H916V333H915ZM89 333H88V334H89V333ZM89 221V220H88V221H89ZM163 221V222H164V221H163ZM163 113H164V112H163V113ZM1 113H0V114H1V113ZM1 1V0H0V1H1ZM1002 1H1003V0H1002V1ZM1002 113V112H841V113V114H1002V113ZM841 113H840V221H841H842V113H841ZM841 221V222H915V221V220H841V221ZM915 221H914V333H915H916V221H915ZM915 333V332H89V333V334H915V333ZM89 333H90V221H89H88V333H89ZM89 221V222H163V221V220H89V221ZM163 221H164V113H163H162V221H163ZM163 113V112H1V113V114H163V113ZM1 113H2V1H1H0V113H1ZM1 1V2H1002V1V0H1V1ZM1002 1H1001V113H1002H1003V1H1002Z" fill="black" mask="url(#path-1-outside-1_394_378)"/>
<rect width="824" height="110" transform="translate(90 222)" fill="white"/>
<path d="M157.817 248.6H160.817V269.3H169.217V271.7H160.817V301.4H157.817V248.6ZM154.217 285.38C150.557 286.04 139.397 287.66 129.497 287.66H121.217V253.76H124.217V285.26H130.937C138.437 285.26 150.497 283.82 154.217 282.98V285.38ZM202.272 277.7V291.14H227.412V293.54H174.612V291.14H199.272V277.7H182.352V254.36H220.032V256.76H185.352V275.3H220.692V277.7H202.272ZM276.164 265.46C269.444 265.46 265.724 268.28 265.724 271.7C265.724 275.12 269.444 277.76 276.164 277.76C282.944 277.76 286.604 275.12 286.604 271.7C286.604 268.28 282.944 265.46 276.164 265.46ZM276.164 263.18C284.684 263.18 289.784 266.96 289.784 271.76C289.784 276.56 284.624 280.22 276.104 280.22C267.584 280.22 262.544 276.56 262.544 271.76C262.544 266.96 267.644 263.18 276.164 263.18ZM259.724 257.24H292.604V259.64H259.724V257.24ZM266.264 285.92H302.804V301.4H299.804V288.32H266.264V285.92ZM302.684 266.66V282.38H299.684V248.6H302.684V264.26H311.024V266.66H302.684ZM267.164 249.5H284.504V251.9H267.164V249.5ZM353.679 283.88C355.779 274.4 356.919 265.64 357.399 257.84H322.119V255.44H360.639C359.859 266.6 358.899 272.9 356.619 283.88H353.679ZM367.779 293.3H314.979V290.9H329.439V271.58H332.379V290.9H342.999V271.58H345.999V290.9H367.779V293.3ZM396.155 272.9C396.155 263.9 392.855 256.52 387.455 256.52C381.995 256.52 378.755 263.78 378.755 272.9C378.755 282.14 381.995 289.22 387.455 289.22C392.855 289.22 396.155 282.02 396.155 272.9ZM421.175 301.4H418.175V248.6H421.175V301.4ZM399.215 270.2H407.855V249.8H410.855V299H407.855V272.72H399.335V272.9C399.335 284.54 394.415 291.98 387.455 291.98C380.615 291.98 375.575 284.54 375.575 272.9C375.575 261.2 380.615 253.82 387.455 253.82C393.875 253.82 398.555 260.06 399.215 270.2ZM500.106 274.4V301.4H497.106V248.6H500.106V271.94H509.226V274.4H500.106ZM457.506 289.88C471.786 283.46 480.246 270.14 481.446 257.6H460.746V255.2H484.806C483.306 272.48 473.346 285.08 459.966 291.74L457.506 289.88ZM548.018 268.7H579.818V259.4H548.018V268.7ZM565.418 279.68H590.318V282.08H537.518V279.68H562.418V271.1H545.018V250.1H548.018V257H579.818V250.1H582.818V271.1H565.418V279.68ZM545.018 285.92H548.018V297.8H584.918V300.2H545.018V285.92ZM631.09 283.82H668.35V301.4H665.35V286.22H631.09V283.82ZM665.29 261.86V248.6H668.29V280.04H665.29V264.26H652.69V261.86H665.29ZM640.27 254.72V256.22C640.27 270.02 653.89 274.16 655.57 274.64L653.71 276.86C652.39 276.38 641.95 272.6 638.77 263.42C635.95 272.42 625.09 277.58 623.47 278.3L621.37 276.26C624.07 275.06 637.27 269.6 637.27 256.22V254.72H624.67V252.32H653.05V254.72H640.27ZM722.286 248.6H725.286V301.4H722.286V248.6ZM684.786 272.12C684.786 281.3 688.326 288.68 694.926 288.68C701.526 288.68 704.946 281.24 704.946 272.12C704.946 263.12 701.526 255.68 694.926 255.68C688.326 255.68 684.786 263.06 684.786 272.12ZM681.666 272.18C681.666 260.54 686.886 252.92 694.866 252.92C702.906 252.92 708.066 260.54 708.066 272.18C708.066 283.76 702.906 291.44 694.866 291.44C686.886 291.44 681.666 283.76 681.666 272.18ZM787.357 262.52C787.357 257.3 783.757 253.1 776.797 253.1C769.957 253.1 766.237 257.42 766.237 262.52C766.237 267.68 770.017 271.94 776.797 271.94C783.697 271.94 787.357 267.68 787.357 262.52ZM773.377 289.46V298.4H786.517V289.46H773.377ZM789.517 300.8H770.377V280.16H773.377V287.06H786.517V280.16H789.517V300.8ZM790.537 260.72H804.457V248.6H807.457V277.16H804.457V263.12H790.657C790.297 269.6 784.777 274.64 776.797 274.64C768.637 274.64 762.937 269.3 762.937 262.52C762.937 255.74 768.577 250.28 776.797 250.28C784.237 250.28 789.577 254.84 790.537 260.72ZM801.997 289.94C800.677 294.26 796.897 298.88 792.277 301.4L790.297 299.3C796.057 296.36 800.497 290 800.497 283.1V280.1H803.497V283.1C803.497 290.66 807.577 296.36 813.877 299.3L811.657 301.34C807.217 299 803.077 294.26 801.997 289.94ZM844.713 272.12C844.713 263.12 841.293 255.68 834.693 255.68C828.093 255.68 824.553 263.06 824.553 272.12C824.553 281.3 828.093 288.68 834.693 288.68C841.293 288.68 844.713 281.24 844.713 272.12ZM847.773 270.5H862.353V248.6H865.353V301.4H862.353V272.9H847.833C847.593 284.06 842.493 291.44 834.633 291.44C826.653 291.44 821.433 283.76 821.433 272.18C821.433 260.54 826.653 252.92 834.633 252.92C842.253 252.92 847.293 259.82 847.773 270.5ZM882.928 293.6V298.94H877.528V293.6H882.928Z" fill="black"/>
<rect width="676" height="110" transform="translate(164 112)" fill="white"/>
<path d="M201.721 174H204.721V187.8H239.641V190.2H201.721V174ZM223.681 153.6V139.5H226.681V176.7H223.681V156H211.681V153.6H223.681ZM235.321 138.6H238.321V177.3H235.321V138.6ZM219.781 166.86C216.181 167.4 206.941 168.3 200.641 168.3H194.521V142.8H214.381V145.2H197.521V165.9H200.821C206.641 165.9 216.181 165.12 219.781 164.46V166.86ZM294.116 138.6H297.116V191.4H294.116V138.6ZM266.696 147.3H253.196V144.9H283.616V147.3H269.696V153.12C269.696 168.78 281.756 176.7 284.396 178.08L282.536 180.48C280.796 179.46 270.476 172.38 268.196 161.16C266.096 172.2 255.296 180.3 252.596 181.92L250.316 179.88C256.496 177 266.696 166.8 266.696 153.12V147.3ZM383.488 165.36H358.948V180.84H355.948V165.36H330.688V162.96H370.528C371.068 160.56 373.048 150 373.648 143.82H337.288V141.42H377.188C376.228 148.86 374.248 160.14 373.588 162.96H383.488V165.36ZM378.088 190.2H338.188V174.36H341.188V187.8H378.088V190.2ZM395.484 183.96V187.32C395.484 189.06 395.484 189 394.764 190.38C394.044 191.76 392.544 192.78 391.404 193.32L390.204 192C391.824 191.16 393.024 190.56 393.384 188.64H390.024V183.96H395.484ZM466.115 178.02L464.015 180.18C462.035 178.98 451.055 171.9 447.995 160.38C445.835 171.9 434.615 180 432.095 181.32L429.695 179.28C435.095 176.4 446.495 168.48 446.495 151.56V141.9H449.495V151.56C449.495 168.72 463.175 176.34 466.115 178.02ZM483.395 162.6H474.995V191.4H471.995V138.6H474.995V160.2H483.395V162.6ZM537.451 190.8H500.791V178.86H533.251V171.96H500.551V169.56H536.251V181.26H503.791V188.4H537.451V190.8ZM533.191 138.6H536.191V166.56H533.191V138.6ZM508.171 143.16C508.171 154.92 521.791 161.7 524.191 162.6L522.271 164.82C520.471 164.16 510.751 159.12 506.671 149.82C503.371 159.42 492.931 165.18 491.131 166.08L488.791 164.16C492.931 162.48 505.171 154.56 505.171 143.16V140.16H508.171V143.16ZM553.286 174.78H556.286V187.8H593.186V190.2H553.286V174.78ZM598.586 167.4V169.8H545.786V167.4H598.586ZM572.006 138.42C584.066 138.42 591.506 143.58 591.506 149.76C591.506 155.94 584.186 160.5 572.006 160.5C560.366 160.5 552.506 155.94 552.506 149.76C552.506 143.7 560.246 138.42 572.006 138.42ZM572.006 140.94C563.126 140.94 555.626 144.72 555.626 149.76C555.626 154.92 563.486 157.92 572.006 157.92C581.006 157.92 588.386 154.8 588.386 149.76C588.386 144.6 581.126 140.94 572.006 140.94ZM635.158 144.6V160.8L653.698 160.86V144.6H635.158ZM632.158 142.2H656.698V163.26L632.158 163.2V142.2ZM672.658 153.66V166.56H669.658V138.6H672.658V151.14H681.058V153.66H672.658ZM674.458 190.8H638.458V179.04H669.658V172.38H638.458V169.98H672.658V181.44H641.458V188.4H674.458V190.8ZM730.553 138.6H733.553V191.4H730.553V138.6ZM693.053 162.12C693.053 171.3 696.593 178.68 703.193 178.68C709.793 178.68 713.213 171.24 713.213 162.12C713.213 153.12 709.793 145.68 703.193 145.68C696.593 145.68 693.053 153.06 693.053 162.12ZM689.933 162.18C689.933 150.54 695.153 142.92 703.133 142.92C711.173 142.92 716.333 150.54 716.333 162.18C716.333 173.76 711.173 181.44 703.133 181.44C695.153 181.44 689.933 173.76 689.933 162.18ZM788.388 155.34V169.74H797.748V172.14H788.388V191.4H785.388V138.6H788.388V152.94H797.748V155.34H788.388ZM749.328 162.12C749.328 171.3 752.868 178.68 759.468 178.68C766.068 178.68 769.488 171.24 769.488 162.12C769.488 153.12 766.068 145.68 759.468 145.68C752.868 145.68 749.328 153.06 749.328 162.12ZM746.208 162.18C746.208 150.54 751.428 142.92 759.408 142.92C767.448 142.92 772.608 150.54 772.608 162.18C772.608 173.76 767.448 181.44 759.408 181.44C751.428 181.44 746.208 173.76 746.208 162.18ZM809.024 183.6V188.94H803.624V183.6H809.024Z" fill="black"/>
<rect width="999" height="110" transform="translate(2 2)" fill="white"/>
<path d="M54.3038 45.58C54.3038 40.36 50.7638 35.92 45.0038 35.92C39.3038 35.92 35.7038 40.36 35.7038 45.58C35.7038 50.8 39.3038 55.3 45.0038 55.3C50.7638 55.3 54.3038 50.8 54.3038 45.58ZM46.5638 57.7V68.62C49.3838 68.62 58.0238 67.9 60.8438 67.36V69.7C58.8638 70 51.2438 71.08 44.2238 71.08H30.7238V68.68H43.5638V57.76C37.2638 57.04 32.6438 51.82 32.6438 45.58C32.6438 38.86 37.9238 33.34 45.0038 33.34C52.0838 33.34 57.3638 39.34 57.3638 45.58C57.3638 51.82 52.8038 56.92 46.5638 57.7ZM77.5238 81.4H74.5238V53.8H66.1238V79H63.1238V29.8H66.1238V51.4H74.5238V28.6H77.5238V81.4ZM156.396 52V28.6H159.396V81.4H156.396V54.4H143.196V52H156.396ZM128.736 45.28H115.056V42.88H145.416V45.28H131.736V47.14C131.736 61.18 145.296 69.1 147.276 69.94L145.536 72.22C142.116 70.42 133.056 63.64 130.236 54.52C127.716 64.12 116.976 71.62 114.396 72.94L112.176 70.84C113.916 70 128.736 61.84 128.736 47.14V45.28ZM121.536 32.5H139.056V34.9H121.536V32.5ZM221.791 54.94V57.34H168.991V54.94H221.791ZM176.491 80.8V63.76H214.291V80.8H176.491ZM179.491 78.4H211.291V66.16H179.491V78.4ZM215.071 38.62C215.071 44.38 207.931 48.82 195.391 48.82C182.911 48.82 175.711 44.38 175.711 38.62C175.711 32.86 182.911 28.42 195.391 28.42C207.931 28.42 215.071 32.86 215.071 38.62ZM212.131 38.62C212.131 33.94 204.931 30.82 195.391 30.82C185.731 30.82 178.591 33.94 178.591 38.62C178.591 43.18 185.731 46.42 195.391 46.42C204.931 46.42 212.131 43.18 212.131 38.62ZM258.363 34.9V54.88H276.903V34.9H258.363ZM255.363 32.5H279.903V57.28H255.363V32.5ZM261.663 64H264.663V77.8H298.263V80.2H261.663V64ZM295.863 47.44V67H292.863V28.6H295.863V44.92H304.263V47.44H295.863ZM347.578 52.36C343.798 53.02 334.438 54.46 321.418 54.46H313.378V31.24H316.378V52.06H322.438C332.218 52.06 343.858 50.74 347.578 49.96V52.36ZM351.058 28.6H354.058V41.86H362.398V44.26H354.058V58.66H351.058V28.6ZM336.598 81.4C331.858 78.82 327.898 72.82 326.458 68.92C325.558 72.88 320.878 78.7 316.138 81.28L314.098 79.42C320.998 75.64 324.958 69.16 324.958 62.14V61.42H327.958V62.14C327.958 69.16 332.218 75.1 336.538 78.34C340.858 75.1 345.178 69.16 345.178 62.14V61.42H348.178V62.14C348.178 69.16 352.138 75.64 359.038 79.42L356.998 81.28C352.258 78.7 347.578 72.88 346.678 68.92C345.238 72.82 341.338 78.58 336.598 81.4ZM414.474 80.8H375.054V69.28H409.854V63.16H375.054V60.76H412.854V71.68H378.054V78.4H414.474V80.8ZM420.354 53.08V55.48H367.554V53.08H420.354ZM413.634 37.78C413.634 43 406.494 47.2 393.954 47.2C381.474 47.2 374.274 43 374.274 37.78C374.274 32.56 381.474 28.42 393.954 28.42C406.494 28.42 413.634 32.92 413.634 37.78ZM410.514 37.78C410.514 33.64 403.374 30.82 393.954 30.82C384.414 30.82 377.394 33.64 377.394 37.78C377.394 41.8 384.414 44.74 393.954 44.74C403.374 44.74 410.514 41.8 410.514 37.78ZM483.625 29.92H486.625V50.44H494.425V28.6H497.425V81.4H494.425V52.84H486.625V79H483.625V29.92ZM467.425 35.56H478.885V37.96H470.425V66.7H471.865C473.125 66.7 477.925 66.16 480.625 65.74V68.14C478.525 68.56 473.125 69.1 469.285 69.1H467.425V35.56ZM465.625 68.38C463.825 68.68 458.485 69.1 456.205 69.1H454.285V35.56H464.425V37.96H457.285V66.7H458.965C460.165 66.7 464.425 66.22 465.625 66.04V68.38ZM556.977 56.5H531.897V54.1H584.697V56.5H559.977V66.28H577.557V81.4H574.557V68.68H538.797V66.28H556.977V56.5ZM556.797 33.4H539.097V31.06H577.497V33.4H559.797C559.737 40.84 574.497 47.14 580.737 48.28L578.817 50.38C569.397 48.28 561.057 42.76 558.297 37.72C554.697 45.1 540.837 49.78 537.897 50.26L535.977 48.04C542.577 47.02 556.797 40.9 556.797 33.4ZM634.493 28.6H637.493V81.4H634.493V28.6ZM596.993 52.12C596.993 61.3 600.533 68.68 607.133 68.68C613.733 68.68 617.153 61.24 617.153 52.12C617.153 43.12 613.733 35.68 607.133 35.68C600.533 35.68 596.993 43.06 596.993 52.12ZM593.873 52.18C593.873 40.54 599.093 32.92 607.073 32.92C615.113 32.92 620.273 40.54 620.273 52.18C620.273 63.76 615.113 71.44 607.073 71.44C599.093 71.44 593.873 63.76 593.873 52.18ZM693.888 28.6H696.888V81.4H693.888V28.6ZM666.468 37.3H652.968V34.9H683.388V37.3H669.468V43.12C669.468 58.78 681.528 66.7 684.168 68.08L682.308 70.48C680.568 69.46 670.248 62.38 667.968 51.16C665.868 62.2 655.068 70.3 652.368 71.92L650.088 69.88C656.268 67 666.468 56.8 666.468 43.12V37.3ZM775.76 43.18V55.42H772.76V28.6H775.76V40.66H784.16V43.18H775.76ZM760.76 42.4C760.76 49.18 755.12 54.4 746.9 54.4C738.74 54.4 733.04 49.18 733.04 42.4C733.04 35.62 738.68 30.28 746.9 30.28C755.12 30.28 760.76 35.68 760.76 42.4ZM757.46 42.4C757.46 37.18 753.86 33.1 746.9 33.1C740.06 33.1 736.34 37.3 736.34 42.4C736.34 47.56 740.12 51.7 746.9 51.7C753.8 51.7 757.46 47.56 757.46 42.4ZM767.78 72.28C763.7 72.28 759.86 73.72 759.86 76.24C759.86 78.64 763.7 79.96 767.78 79.96C771.74 79.96 775.64 78.52 775.64 76.3C775.64 73.78 771.74 72.28 767.78 72.28ZM767.78 70.12C774.26 70.12 778.7 72.52 778.7 76.24C778.7 79.78 774.2 82.36 767.78 82.36C761.3 82.36 756.86 79.84 756.86 76.24C756.86 72.64 761.3 70.12 767.78 70.12ZM755.36 80.08C754.52 80.32 748.34 80.74 745.94 80.74H739.82V59.26H742.82V78.34H745.94C748.34 78.34 754.34 77.86 755.36 77.62V80.08ZM754.76 64.54H781.04V66.94H754.76V64.54ZM760.28 58.42H775.28V60.82H760.28V58.42ZM833.955 44.02V59.5H830.955V28.6H833.955V41.62H842.295V44.02H833.955ZM817.695 81.4C812.955 78.82 808.995 72.82 807.555 68.92C806.655 72.88 802.335 78.76 797.595 81.34L795.555 79.48C802.455 75.7 806.055 69.16 806.055 62.14H809.055C809.055 69.16 813.315 75.1 817.635 78.34C821.955 75.1 826.275 69.16 826.275 62.14H829.275C829.275 69.16 832.935 75.64 839.835 79.42L837.795 81.28C833.055 78.7 828.675 72.88 827.775 68.92C826.335 72.82 822.435 78.58 817.695 81.4ZM805.215 33.28C798.135 33.28 794.235 37.72 794.235 43.24C794.235 48.76 798.135 53.2 805.215 53.2C812.355 53.2 816.195 48.76 816.195 43.24C816.195 37.72 812.355 33.28 805.215 33.28ZM805.215 30.46C813.555 30.46 819.495 36.16 819.495 43.24C819.495 50.32 813.555 56.02 805.215 56.02C796.875 56.02 790.935 50.32 790.935 43.24C790.935 36.16 796.875 30.46 805.215 30.46ZM893.77 80.8H854.35V69.28H889.15V63.16H854.35V60.76H892.15V71.68H857.35V78.4H893.77V80.8ZM899.65 53.08V55.48H846.85V53.08H899.65ZM892.93 37.78C892.93 43 885.79 47.2 873.25 47.2C860.77 47.2 853.57 43 853.57 37.78C853.57 32.56 860.77 28.42 873.25 28.42C885.79 28.42 892.93 32.92 892.93 37.78ZM889.81 37.78C889.81 33.64 882.67 30.82 873.25 30.82C863.71 30.82 856.69 33.64 856.69 37.78C856.69 41.8 863.71 44.74 873.25 44.74C882.67 44.74 889.81 41.8 889.81 37.78ZM952.146 54.4V81.4H949.146V28.6H952.146V51.88H960.246V54.4H952.146ZM927.126 35.8H940.806C940.266 51.82 932.826 64.6 923.886 73.24L921.246 71.8C927.426 66.4 937.866 52 937.446 38.2H927.126V35.8ZM924.786 35.8C924.366 48.34 918.906 60.82 909.426 69.82L906.846 68.5C918.246 58.06 921.426 44.92 921.486 38.2H909.546V35.8H924.786ZM969.721 73.6V78.94H964.321V73.6H969.721Z" fill="black"/>
</svg>
