<svg width="93" height="110" viewBox="0 0 93 110" fill="none" xmlns="http://www.w3.org/2000/svg">
<rect x="0.428711" y="0.428711" width="91.4694" height="108.62" fill="#90C85F"/>
<rect x="0.428711" y="0.428711" width="91.4694" height="108.62" stroke="black" stroke-width="0.857525"/>
<path d="M69.7925 71.3862C68.6919 71.3862 67.765 70.5173 67.765 69.3587V54.007H63.1884V68.1421C63.1884 69.3007 62.3195 70.1697 61.2188 70.1697C60.1181 70.1697 59.1912 69.3007 59.1912 68.1421V36.1065C59.1912 35.0058 60.1181 34.0789 61.2188 34.0789C62.3195 34.0789 63.1884 35.0058 63.1884 36.1065V50.1257H67.765V35.2954C67.765 34.1948 68.6919 33.2679 69.7925 33.2679C70.8932 33.2679 71.8201 34.1948 71.8201 35.2954V69.3587C71.8201 70.5173 70.8932 71.3862 69.7925 71.3862ZM19.277 69.1269C16.9598 70.6911 14.7584 67.389 17.1336 65.8828C27.5032 59.1629 34.5128 46.7657 34.5128 37.381V36.1065C34.5128 33.3258 38.6838 33.3258 38.6838 36.1065V37.381C38.6838 46.7657 45.6355 59.1629 56.063 65.8828C58.4381 67.389 56.1788 70.6911 53.9195 69.1269C46.0989 63.9711 39.379 55.5132 36.5983 46.6498C33.8176 55.5132 27.0977 63.9711 19.277 69.1269Z" fill="white"/>
</svg>
