<svg width="93" height="110" viewBox="0 0 93 110" fill="none" xmlns="http://www.w3.org/2000/svg">
<rect x="0.428711" y="0.428711" width="91.4694" height="108.62" fill="#90C85F"/>
<rect x="0.428711" y="0.428711" width="91.4694" height="108.62" stroke="black" stroke-width="0.857525"/>
<path d="M22.0577 70.4014C20.957 70.4014 20.146 69.5904 20.146 68.4897C20.146 67.389 20.957 66.578 22.0577 66.578H44.1293V63.4497C44.1293 62.2911 45.0562 61.4222 46.1568 61.4222C47.2575 61.4222 48.1844 62.2911 48.1844 63.4497V66.578H70.256C71.3567 66.578 72.1677 67.389 72.1677 68.4897C72.1677 69.5904 71.3567 70.4014 70.256 70.4014H22.0577ZM30.2839 58.8153C24.8384 58.8153 22.4053 57.4829 22.4053 52.5008V50.9367C22.4053 46.1864 24.9542 44.7381 29.9363 44.7381H62.3774C64.8105 44.7381 65.8533 44.2168 65.8533 42.0154V41.494C65.8533 39.2927 64.8105 38.6554 62.3774 38.6554H24.3749C21.7101 38.6554 21.826 34.8899 24.3749 34.8899H62.2036C67.4174 34.8899 69.9084 36.3382 69.9084 41.0885V42.363C69.9084 47.2292 67.4174 48.5036 62.2036 48.5036H29.9363C27.5611 48.5036 26.4604 48.7354 26.4604 51.1105V52.4429C26.4604 54.8181 27.5611 55.0498 29.9363 55.0498H68.9815C71.6463 55.0498 71.5305 58.8153 68.9815 58.8153H30.2839Z" fill="white"/>
</svg>
