<svg width="93" height="110" viewBox="0 0 93 110" fill="none" xmlns="http://www.w3.org/2000/svg">
<rect x="0.428711" y="0.428711" width="91.4694" height="108.62" fill="#90C85F"/>
<rect x="0.428711" y="0.428711" width="91.4694" height="108.62" stroke="black" stroke-width="0.857525"/>
<path d="M29.8204 70.8069C25.0701 70.8069 23.1005 69.5904 23.1005 65.9407V62.2332C23.1005 60.8429 24.1432 60.1477 25.186 60.1477C26.2287 60.1477 27.2715 60.8429 27.2715 62.2332V64.9559C27.2715 66.7518 27.677 66.9835 30.8052 66.9835H69.3291C70.3718 66.9835 71.2408 67.7945 71.2408 68.8952C71.2408 69.9959 70.3718 70.8069 69.3291 70.8069H29.8204ZM21.7681 56.556C20.6674 56.556 19.8563 55.745 19.8563 54.6443C19.8563 53.6015 20.6674 52.7905 21.7681 52.7905H70.6036C71.6463 52.7905 72.4573 53.6015 72.4573 54.6443C72.4573 55.745 71.6463 56.556 70.6036 56.556H48.7637V62.1753C48.7637 63.3339 47.8368 64.2028 46.7362 64.2028C45.6355 64.2028 44.7086 63.3339 44.7086 62.1753V56.556H21.7681ZM45.9251 49.5464C29.9942 49.5464 20.8991 46.9395 20.8991 41.6099C20.8991 36.2803 29.9942 33.7313 45.9251 33.7313C61.856 33.7313 70.9512 36.2803 70.9512 41.6099C70.9512 46.9395 61.856 49.5464 45.9251 49.5464ZM45.9251 45.9547C59.1333 45.9547 66.896 43.7533 66.896 41.6099C66.896 39.5244 59.0754 37.323 45.9251 37.323C32.7169 37.323 24.9542 39.5244 24.9542 41.6099C24.9542 43.7533 32.7169 45.9547 45.9251 45.9547Z" fill="white"/>
</svg>
