<svg width="93" height="110" viewBox="0 0 93 110" fill="none" xmlns="http://www.w3.org/2000/svg">
<rect x="0.428711" y="0.428711" width="91.4694" height="108.62" fill="#90C85F"/>
<rect x="0.428711" y="0.428711" width="91.4694" height="108.62" stroke="black" stroke-width="0.857525"/>
<path d="M68.2284 60.9008C67.1277 60.9008 66.2008 60.0318 66.2008 58.8732V47.345H62.6671C61.5664 47.345 60.6974 46.4761 60.6974 45.3754C60.6974 44.2747 61.5664 43.4057 62.6671 43.4057H66.2008V35.2954C66.2008 34.1948 67.1277 33.2679 68.2284 33.2679C69.3291 33.2679 70.256 34.1948 70.256 35.2954V58.8732C70.256 60.0318 69.3291 60.9008 68.2284 60.9008ZM30.2259 70.8069C25.0701 70.8069 22.9846 69.4745 22.9846 65.709V60.7849C22.9846 59.3946 24.0273 58.6994 25.0701 58.6994C26.1129 58.6994 27.1556 59.3946 27.1556 60.7849V64.6663C27.1556 66.578 27.677 66.8676 30.979 66.8676H69.445C70.4877 66.8676 71.4146 67.7366 71.4146 68.8373C71.4146 69.938 70.4877 70.8069 69.445 70.8069H30.2259ZM38.0466 56.2663C28.2563 56.2663 19.6246 51.9795 19.6246 44.7381C19.6246 37.5547 28.2563 33.2679 38.0466 33.2679C47.8948 33.2679 56.4685 37.5547 56.4685 44.7381C56.4685 51.9795 47.8948 56.2663 38.0466 56.2663ZM38.0466 52.4429C46.7941 52.4429 52.4134 49.0829 52.4134 44.7381C52.4134 40.4513 46.7941 37.0913 38.0466 37.0913C29.299 37.0913 23.6798 40.4513 23.6798 44.7381C23.6798 49.0829 29.299 52.4429 38.0466 52.4429Z" fill="white"/>
</svg>
