<svg width="93" height="110" viewBox="0 0 93 110" fill="none" xmlns="http://www.w3.org/2000/svg">
<rect x="0.428711" y="0.428711" width="91.4694" height="108.62" fill="#90C85F"/>
<rect x="0.428711" y="0.428711" width="91.4694" height="108.62" stroke="black" stroke-width="0.857525"/>
<path d="M68.2863 71.3872C67.1857 71.3872 66.2588 70.5182 66.2588 69.3596V53.2549H62.1457C61.045 53.2549 60.1761 52.386 60.1761 51.2853C60.1761 50.1846 61.045 49.3156 62.1457 49.3156H66.2588V35.2964C66.2588 34.1957 67.1857 33.2689 68.2863 33.2689C69.387 33.2689 70.3139 34.1957 70.3139 35.2964V69.3596C70.3139 70.5182 69.387 71.3872 68.2863 71.3872ZM38.4521 71.2713C28.3142 71.2713 19.7984 63.5086 19.7984 52.328C19.7984 41.1474 28.3142 33.3847 38.4521 33.3847C48.5899 33.3847 57.1057 41.1474 57.1057 52.328C57.1057 63.5086 48.5899 71.2713 38.4521 71.2713ZM38.4521 67.4479C46.6203 67.4479 53.0506 61.1335 53.0506 52.328C53.0506 43.5226 46.6203 37.2081 38.4521 37.2081C30.2839 37.2081 23.8536 43.5226 23.8536 52.328C23.8536 61.1335 30.2839 67.4479 38.4521 67.4479Z" fill="white"/>
</svg>
