<svg width="93" height="110" viewBox="0 0 93 110" fill="none" xmlns="http://www.w3.org/2000/svg">
<rect x="0.428711" y="0.428711" width="91.4694" height="108.62" fill="#90C85F"/>
<rect x="0.428711" y="0.428711" width="91.4694" height="108.62" stroke="black" stroke-width="0.857525"/>
<path d="M69.7925 71.3862C68.6919 71.3862 67.765 70.5173 67.765 69.3587V54.007H63.1884V68.1421C63.1884 69.3007 62.3195 70.1697 61.2188 70.1697C60.1181 70.1697 59.1912 69.3007 59.1912 68.1421V36.1065C59.1912 35.0058 60.1181 34.0789 61.2188 34.0789C62.3195 34.0789 63.1884 35.0058 63.1884 36.1065V50.1257H67.765V35.2954C67.765 34.1948 68.6919 33.2679 69.7925 33.2679C70.8932 33.2679 71.8201 34.1948 71.8201 35.2954V69.3587C71.8201 70.5173 70.8932 71.3862 69.7925 71.3862ZM18.1184 69.3007C17.0177 69.3007 16.2067 68.4318 16.2067 67.389C16.2067 66.3463 17.0177 65.4773 18.1184 65.4773H25.3598C37.0617 65.4773 46.1568 64.4345 52.4713 62.6966C53.6878 62.349 54.9044 63.2759 54.9044 64.5504C54.9044 65.4194 54.3251 66.1725 53.514 66.4042C46.7941 68.2 37.2355 69.3007 25.3598 69.3007H18.1184ZM21.6522 43.7533C21.1887 41.0885 25.0122 40.3933 25.4756 43.0582L28.7197 61.8277C29.1832 64.4345 25.4177 65.1297 24.9542 62.5228L21.6522 43.7533ZM43.6658 43.0582C44.2451 40.5092 48.0686 41.2044 47.4892 43.8112L43.6658 61.5959C43.0865 64.2028 39.2631 63.5077 39.8424 60.7849L43.6658 43.0582ZM18.8136 38.8292C17.7129 38.8292 16.9019 37.9603 16.9019 36.9175C16.9019 35.8748 17.7129 35.0058 18.8136 35.0058H50.6175C51.6603 35.0058 52.5292 35.8748 52.5292 36.9175C52.5292 37.9603 51.6603 38.8292 50.6175 38.8292H18.8136Z" fill="white"/>
</svg>
