<svg width="93" height="110" viewBox="0 0 93 110" fill="none" xmlns="http://www.w3.org/2000/svg">
<rect x="0.428711" y="0.428711" width="91.4694" height="108.62" fill="#90C85F"/>
<rect x="0.428711" y="0.428711" width="91.4694" height="108.62" stroke="black" stroke-width="0.857525"/>
<path d="M29.9942 70.8079C25.0701 70.8079 22.9846 69.5334 22.9846 65.8259V61.3652C22.9846 59.9749 24.0273 59.2797 25.0701 59.2797C26.1129 59.2797 27.1556 59.9749 27.1556 61.3652V64.841C27.1556 66.6369 27.619 66.9265 30.8632 66.9265H69.445C70.4877 66.9265 71.4146 67.7376 71.4146 68.8383C71.4146 69.9389 70.4877 70.8079 69.445 70.8079H29.9942ZM68.2284 61.3652C67.1277 61.3652 66.2008 60.4962 66.2008 59.3376V45.3764H62.0298C60.9871 45.3764 60.1181 44.5074 60.1181 43.4646C60.1181 42.4219 60.9871 41.5529 62.0298 41.5529H66.2008V35.2964C66.2008 34.1957 67.1277 33.2689 68.2284 33.2689C69.3291 33.2689 70.256 34.1957 70.256 35.2964V59.3376C70.256 60.4962 69.3291 61.3652 68.2284 61.3652ZM28.0246 56.3252C23.506 56.3252 21.5363 55.0508 21.5363 50.706V40.2205C21.5363 35.5281 23.0425 34.4275 28.1404 34.4275H51.5444C54.0933 34.4275 54.0933 38.193 51.5444 38.193H28.5459C25.8811 38.193 25.4756 38.5405 25.4756 40.626V49.1418C25.4756 52.2701 25.8232 52.5597 28.9515 52.5597H29.8783C38.2783 52.5597 50.5596 51.9804 56.9319 50.5322C59.6547 49.9529 60.4078 53.6604 57.8009 54.1818C50.7913 55.688 39.7265 56.3252 29.5308 56.3252H28.0246ZM48.8217 43.2329C49.8644 43.2329 50.6175 43.986 50.6175 45.0288C50.6175 46.0715 49.8644 46.8246 48.8217 46.8246H30.168C29.1252 46.8246 28.4301 46.0715 28.4301 45.0288C28.4301 43.986 29.1252 43.2329 30.168 43.2329H48.8217Z" fill="white"/>
</svg>
