<svg width="181" height="121" viewBox="0 0 181 121" fill="none" xmlns="http://www.w3.org/2000/svg">
<rect x="0.5" y="0.5" width="90" height="120" fill="#FF961E"/>
<rect x="0.5" y="0.5" width="90" height="120" stroke="black"/>
<path d="M51.62 82.08C51.5 82.74 51.32 83.76 51.08 85.08C50.84 86.4 50.72 87.24 50.66 87.54C50.48 88.44 49.94 88.98 49.1 89.1C48.2 89.28 46.16 89.4 42.92 89.46C42.08 89.52 41.6 89.04 41.48 88.02V86.64V85.5C41.48 85.26 41.48 84.96 41.48 84.66C41.48 84.36 41.48 84.12 41.48 83.94C41.42 83.82 41.42 83.64 41.42 83.52C41.42 83.4 41.36 83.28 41.24 83.16C41.12 83.1 41.06 83.04 41 82.98C40.94 82.92 40.82 82.86 40.58 82.8C40.34 82.74 40.16 82.68 40.04 82.68C39.92 82.68 39.68 82.62 39.32 82.5C38.6 82.38 35.66 82.26 30.5 82.08C25.34 81.96 22.22 81.84 21.14 81.84C20.42 81.84 19.88 81.42 19.52 80.58C18.74 78.9 18.68 76.8 19.34 74.34C19.4 73.92 19.94 73.62 20.96 73.38C21.08 73.32 22.28 73.32 24.56 73.32C26.84 73.32 28.04 73.32 28.16 73.32C29.42 73.32 33.14 73.2 39.26 73.08C45.38 72.96 48.92 72.84 50 72.78C51.2 72.72 54.56 72.66 60.02 72.6C65.48 72.6 68.54 72.54 69.2 72.54C70.04 72.54 70.76 73.08 71.3 74.28C72.14 76.08 72.32 77.82 71.84 79.56C71.66 80.16 71.18 80.64 70.4 80.88C69.5 81.24 66.38 81.54 61.04 81.66C55.64 81.84 52.88 81.9 52.64 81.9L51.62 82.08ZM24.5 39.54C26 39.54 28.46 39.54 31.88 39.54C35.3 39.54 38.3 39.54 40.82 39.54C43.34 39.54 45.8 39.6 48.14 39.6C49.52 39.66 51.02 39.78 52.58 39.9C54.14 40.08 55.94 40.26 57.86 40.5C59.78 40.74 61.28 40.86 62.36 40.92C64.64 41.16 66.38 42.06 67.46 43.62C67.94 44.4 68.12 45.9 67.94 48.18C67.82 49.26 67.58 51.12 67.22 53.64C66.86 56.22 66.62 58.2 66.56 59.52C66.44 61.5 65.66 63.12 64.34 64.32C62.96 65.58 61.22 66.24 59.06 66.24C54.62 66.36 48.86 66.6 41.72 66.96C40.82 67.02 39.32 67.14 37.16 67.32C35 67.5 33.32 67.56 32.18 67.56C30.5 67.62 29.12 67.56 28.1 67.32C27.02 67.08 26.24 66.66 25.7 66.06C25.1 65.46 24.74 64.86 24.56 64.14C24.32 63.48 24.14 62.58 24.02 61.38C23.48 56.7 23.12 51.24 22.88 45C22.82 43.5 23.3 41.82 24.26 39.9L24.5 39.54ZM57.8 50.28C56.24 50.16 55.4 50.1 55.4 50.1C53.48 49.62 51.38 49.26 49.16 49.02C46.94 48.84 44.84 48.78 42.92 48.78C41 48.78 38.9 48.78 36.68 48.78C35.78 48.84 35.12 49.02 34.64 49.38C34.16 49.74 34.04 50.28 34.16 51.12C34.22 51.36 34.22 51.9 34.22 52.74C34.16 53.64 34.16 54.18 34.16 54.36C34.16 55.2 34.64 56.16 35.6 57.12C36.56 58.14 37.46 58.68 38.3 58.68C44.84 58.98 49.28 59.1 51.68 58.98C51.86 58.98 52.16 58.98 52.64 58.98C53.12 59.04 53.48 59.04 53.78 58.98C54.08 58.98 54.44 58.92 54.8 58.8C55.16 58.74 55.46 58.56 55.7 58.32C55.94 58.08 56.12 57.72 56.24 57.24C56.3 57 56.84 54.66 57.8 50.28Z" fill="white"/>
<rect x="90.5" y="0.5" width="90" height="120" fill="#FF961E"/>
<rect x="90.5" y="0.5" width="90" height="120" stroke="black"/>
<path d="M151.1 89.22C149.18 89.22 147.86 88.92 147.14 88.2C146.42 87.48 146.06 86.16 145.94 84.18C145.64 78.6 145.52 74.76 145.52 72.66C145.52 69.72 145.7 60.42 146.12 44.82C146.12 44.4 146.18 43.92 146.3 43.44C146.36 42.96 146.42 42.54 146.54 42.18C146.6 41.82 146.72 41.4 146.9 40.8C147.02 40.2 147.14 39.78 147.26 39.42C147.38 38.94 147.62 38.58 148.04 38.46C148.16 38.46 148.58 38.34 149.24 38.16C149.9 37.98 150.38 37.86 150.62 37.8C150.86 37.74 151.22 37.68 151.82 37.56C152.36 37.44 152.78 37.44 153.14 37.44C153.5 37.44 153.92 37.5 154.4 37.62C154.88 37.74 155.3 37.86 155.78 38.04C156.92 38.64 157.58 39.72 157.7 41.28C157.7 42 157.76 44.4 157.82 48.54C157.82 52.68 157.94 55.26 158.06 56.28C158.18 57 158.6 57.78 159.32 58.56C159.68 58.98 160.04 59.4 160.46 59.82C160.88 60.3 161.36 60.78 161.9 61.26C162.38 61.8 162.8 62.22 163.16 62.46C163.64 62.94 163.94 63.48 164.18 64.02C164.42 64.62 164.48 65.28 164.42 66C164.36 66.72 164.3 67.26 164.24 67.62C164.12 67.98 164 68.64 163.76 69.48C163.4 70.92 162.14 71.7 159.98 71.7C158.84 71.7 158.12 71.88 157.88 72.18C157.58 72.54 157.46 73.32 157.52 74.64C157.52 75.54 157.52 77.16 157.58 79.44C157.64 81.72 157.7 83.28 157.7 84.06C157.7 85.68 157.28 86.76 156.32 87.3C153.92 88.62 152.18 89.28 151.1 89.22ZM117.08 47.16C119.78 46.44 122.72 46.32 125.96 46.86C126.56 46.98 127.1 47.58 127.58 48.6C128.06 49.62 128.24 50.58 128.12 51.42C128.06 51.78 127.88 54.18 127.64 58.5C127.64 58.86 127.7 59.1 127.88 59.22C128 59.34 128.3 59.4 128.66 59.4C132.98 60 136.34 60.9 138.74 62.1C139.64 62.58 140.18 62.94 140.3 63.18C140.42 63.42 140.42 64.08 140.24 65.04C140 65.88 139.88 67.08 139.82 68.52C139.7 70.02 139.52 71.28 139.28 72.24C139.04 73.02 138.74 73.5 138.44 73.68C138.14 73.92 137.84 73.98 137.54 73.86C137.24 73.74 136.76 73.62 136.1 73.38C135.44 73.2 134.78 73.08 134.18 73.08C134.06 73.08 133.88 73.08 133.76 72.96L133.52 72.78C129.92 71.34 127.58 69.96 126.5 68.7C126.32 68.52 126.14 68.34 125.9 68.16C125.66 67.98 125.36 67.74 125 67.5C124.64 67.26 124.4 67.08 124.22 66.96C122.54 69.6 121.7 70.98 121.58 71.16C119.54 74.1 118.1 76.14 117.2 77.28C117.02 77.46 116.78 77.7 116.54 78.06C116.3 78.42 116.06 78.78 115.82 79.08C115.58 79.38 115.34 79.74 115.04 80.16C114.68 80.58 114.38 80.88 114.14 81.12C113.9 81.36 113.6 81.6 113.3 81.84C112.94 82.08 112.7 82.2 112.46 82.2C112.22 82.2 111.92 82.14 111.68 82.02C109.04 80.34 107.42 77.58 106.82 73.74C106.7 73.14 106.94 72.42 107.54 71.58C108.8 69.78 110.9 66.96 113.78 63.06C114.26 62.4 114.8 61.8 115.4 61.2C116.24 60.36 116.72 59.16 116.84 57.54C116.9 56.88 117.02 55.74 117.2 54.06C117.32 52.38 117.44 51.12 117.56 50.16C117.56 49.92 117.5 49.68 117.5 49.44C117.44 49.2 117.38 48.96 117.26 48.66C117.14 48.36 117.08 48.12 117.08 47.94V47.16Z" fill="white"/>
</svg>
