<svg width="271" height="121" viewBox="0 0 271 121" fill="none" xmlns="http://www.w3.org/2000/svg">
<rect x="0.5" y="0.5" width="90" height="120" fill="#FF961E"/>
<rect x="0.5" y="0.5" width="90" height="120" stroke="black"/>
<path d="M61.1 89.22C59.18 89.22 57.86 88.92 57.14 88.2C56.42 87.48 56.06 86.16 55.94 84.18C55.64 78.6 55.52 74.76 55.52 72.66C55.52 69.72 55.7 60.42 56.12 44.82C56.12 44.4 56.18 43.92 56.3 43.44C56.36 42.96 56.42 42.54 56.54 42.18C56.6 41.82 56.72 41.4 56.9 40.8C57.02 40.2 57.14 39.78 57.26 39.42C57.38 38.94 57.62 38.58 58.04 38.46C58.16 38.46 58.58 38.34 59.24 38.16C59.9 37.98 60.38 37.86 60.62 37.8C60.86 37.74 61.22 37.68 61.82 37.56C62.36 37.44 62.78 37.44 63.14 37.44C63.5 37.44 63.92 37.5 64.4 37.62C64.88 37.74 65.3 37.86 65.78 38.04C66.92 38.64 67.58 39.72 67.7 41.28C67.7 42 67.76 44.4 67.82 48.54C67.82 52.68 67.94 55.26 68.06 56.28C68.18 57 68.6 57.78 69.32 58.56C69.68 58.98 70.04 59.4 70.46 59.82C70.88 60.3 71.36 60.78 71.9 61.26C72.38 61.8 72.8 62.22 73.16 62.46C73.64 62.94 73.94 63.48 74.18 64.02C74.42 64.62 74.48 65.28 74.42 66C74.36 66.72 74.3 67.26 74.24 67.62C74.12 67.98 74 68.64 73.76 69.48C73.4 70.92 72.14 71.7 69.98 71.7C68.84 71.7 68.12 71.88 67.88 72.18C67.58 72.54 67.46 73.32 67.52 74.64C67.52 75.54 67.52 77.16 67.58 79.44C67.64 81.72 67.7 83.28 67.7 84.06C67.7 85.68 67.28 86.76 66.32 87.3C63.92 88.62 62.18 89.28 61.1 89.22ZM19.04 46.86C19.46 46.14 20.12 45.66 20.96 45.48C25.88 44.58 29.66 43.92 32.3 43.56C36.26 43.02 39.92 42.96 43.34 43.44C43.4 43.44 43.58 43.5 43.94 43.5C44.24 43.56 44.48 43.62 44.6 43.62C44.72 43.62 44.96 43.68 45.2 43.74C45.44 43.8 45.62 43.86 45.8 43.98C45.98 44.1 46.16 44.28 46.34 44.4C46.64 44.7 46.94 45.3 47.3 46.2C48.8 50.52 49.46 55.32 49.22 60.72C49.1 62.7 48.8 65.58 48.32 69.42C48.2 70.26 48.08 72.06 47.9 74.94C47.72 77.82 47.42 79.98 47.06 81.48C46.64 83.16 46.1 84.24 45.5 84.84C45.02 85.32 43.58 85.68 41.3 85.8C39.02 85.98 36.92 85.98 35.12 85.86C34.16 85.86 33.68 85.56 33.56 84.96C33.44 84.72 33.44 84.48 33.56 84.12C33.62 83.76 33.74 83.4 33.86 82.98C33.98 82.62 34.04 82.32 34.04 82.14C34.22 81.06 34.4 79.98 34.52 78.84C34.76 76.86 34.88 74.7 35 72.36C35.06 69.48 35 65.22 34.82 59.52C34.76 58.68 34.64 58.08 34.46 57.72C33.92 56.76 32.66 56.52 30.74 56.94C28.52 57.48 24.56 57.66 18.86 57.42C18.56 57.42 18.38 57.36 18.26 57.24C18.08 57.12 18.02 56.76 18.08 56.28C18.44 50.52 18.74 47.34 19.04 46.86Z" fill="white"/>
<rect x="90.5" y="0.5" width="90" height="120" fill="#FF961E"/>
<rect x="90.5" y="0.5" width="90" height="120" stroke="black"/>
<path d="M125.6 42.9C127.16 42.84 130.46 42.72 135.62 42.54C140.72 42.36 144.02 42.18 145.58 42.06V37.2C146.18 37.08 146.78 36.96 147.5 36.84C148.22 36.78 148.82 36.72 149.3 36.72C149.78 36.72 150.44 36.78 151.28 36.78C152.06 36.84 152.66 36.84 153.08 36.84C153.2 36.84 153.44 37.02 153.68 37.26C153.92 37.5 154.04 37.74 154.1 37.98C154.88 41.94 155.36 44.64 155.48 46.2C155.48 46.74 155.48 47.28 155.48 47.82C155.42 48.36 155.3 49.02 155.18 49.86C155.06 50.7 154.94 51.18 154.94 51.42C154.88 51.78 154.58 53.82 153.98 57.66C151.94 57.9 150.92 57.96 150.8 57.96C146 58.2 142.88 58.32 141.5 58.32V58.56C141.5 58.68 141.56 59.28 141.62 60.24C141.62 61.2 141.68 61.74 141.74 61.8C142.76 61.8 145.16 61.92 148.88 62.04C152.6 62.16 154.94 62.22 155.96 62.22L161.06 61.74C161.18 61.86 161.3 61.92 161.54 62.04C161.78 62.16 162.02 62.46 162.38 62.88C162.68 63.3 162.8 63.72 162.74 64.2C162.68 64.44 162.44 66.06 161.96 68.94C161.36 69 161.06 69 161.06 69C160.82 69 153.8 68.94 140 68.76C139.22 68.76 137.18 68.82 133.82 68.94C130.46 69.06 128.48 69.06 128 69.06C127.04 69.12 124.58 69.12 120.68 69C116.72 68.94 114.32 68.88 113.42 68.82C113.18 68.82 112.58 68.88 111.68 68.94C110.72 69.06 110.18 69.06 109.94 69.06C109.58 69.06 109.28 69.06 109.04 69C108.8 68.94 108.62 68.82 108.5 68.58C108.38 68.4 108.32 68.22 108.32 68.1C108.32 67.98 108.26 67.68 108.26 67.2C108.26 66.78 108.26 66.42 108.26 66.18C108.14 65.46 108.14 64.44 108.26 63.06C108.26 62.34 108.62 61.98 109.34 61.98C110.3 61.98 113.24 61.98 118.16 62.04C123.02 62.16 126.02 62.16 127.22 62.1H128.18H129.8C130.28 62.1 130.64 62.1 130.82 62.04C130.58 60.18 130.7 58.98 131.18 58.44C126.26 58.26 122.54 58.02 119.9 57.66C118.7 57.54 117.74 57 117.02 56.1C116.3 55.2 116 54.06 116 52.74V47.22C115.94 46.5 115.82 45.36 115.7 43.8C115.58 42.3 115.52 41.16 115.52 40.44C115.46 39.78 115.64 39.36 116 39.12C117.74 38.16 119.48 37.8 121.16 38.04C122.78 38.28 123.62 38.4 123.68 38.4C124.94 38.46 125.6 39.24 125.6 40.74V42.9ZM126.2 47.4C125.96 49.08 125.9 49.98 125.9 50.04C125.9 51.54 126.08 52.44 126.44 52.8C126.74 53.16 127.52 53.34 128.84 53.34C129.26 53.34 130.76 53.28 133.34 53.28C135.92 53.28 138.32 53.22 140.54 53.22C142.7 53.22 144.26 53.16 145.1 53.1C145.58 53.1 145.94 53.04 146.18 52.98C146.42 52.98 146.54 52.86 146.66 52.68C146.78 52.56 146.84 52.38 146.84 52.2C146.84 52.08 146.84 51.78 146.84 51.42C146.84 51.06 146.9 50.64 146.96 50.28C147.02 50.04 147.08 49.8 147.08 49.56C147.08 49.2 147.02 48.78 146.9 48.42C146.78 48.18 146.78 47.94 146.78 47.64C146.78 47.34 146.72 47.1 146.66 46.98C146.54 46.86 146.36 46.8 146.12 46.8C145.88 46.86 144.14 46.92 140.84 46.98C137.54 47.04 134.48 47.1 131.72 47.16C128.96 47.28 127.1 47.34 126.2 47.4ZM132.74 80.94H138.92H145.52C150.38 80.94 153.68 81 155.42 81C155.54 81 155.72 81.06 155.84 81.06C155.96 81.12 156.02 81.18 156.14 81.18C156.2 81.24 156.26 81.3 156.38 81.42L156.56 81.72C156.56 81.78 156.62 81.9 156.68 82.02C156.68 82.2 156.74 82.32 156.74 82.38C156.74 82.44 156.8 82.56 156.86 82.74C156.86 82.92 156.92 83.04 156.92 83.04C156.98 83.46 157.04 83.88 157.04 84.3C157.04 85.68 156.62 87.06 155.9 88.5C155.66 88.92 155.18 89.22 154.34 89.34C153.5 89.46 150.68 89.64 145.88 89.88C141.08 90.12 138.26 90.3 137.36 90.42C137.12 90.48 136.88 90.48 136.7 90.48C135.68 90.48 133.52 90.54 130.22 90.6C126.92 90.66 124.52 90.72 123.02 90.78C122.66 90.78 122 90.84 121.16 90.9C120.32 90.96 119.66 90.96 119.24 90.96C117.86 90.96 116.72 90.72 115.82 90.18C115.58 90.06 115.34 89.76 115.1 89.4C114.86 89.04 114.74 88.74 114.74 88.38C114.62 86.58 114.44 83.7 114.26 79.74C114.02 75.78 113.9 73.44 113.9 72.72H113.96C114.14 72.72 114.5 72.66 115.04 72.54C115.58 72.42 116 72.24 116.24 72.06C116.54 71.82 117.02 71.7 117.62 71.7C118.4 71.7 119.66 72 121.34 72.54C121.82 72.72 122.06 73.02 122.06 73.44C122.06 73.62 122 73.86 122 74.16C122 74.52 122 74.76 122 74.94V76.2V77.4V79.2V80.94H132.74Z" fill="white"/>
<rect x="180.5" y="0.5" width="90" height="120" fill="#FF961E"/>
<rect x="180.5" y="0.5" width="90" height="120" stroke="black"/>
<path d="M251.9 58.44C251.84 60.96 251.24 62.7 250.1 63.66C249.62 64.02 249.02 64.32 248.3 64.44C247.58 64.56 246.92 64.62 246.38 64.56H245.6L244.28 64.2C243.44 64.02 243.08 63.48 243.08 62.64C243.08 55.92 243.08 51.3 242.96 48.9C242.78 46.26 242.72 43.02 242.72 39.18C242.72 38.4 242.96 37.74 243.56 37.2C244.1 36.72 244.82 36.42 245.66 36.42L249.92 36.84L250.52 37.32C250.76 37.5 251.06 37.86 251.54 38.4C251.96 38.94 252.2 39.48 252.2 39.96V45.9C252.14 45.9 252.08 46.62 252.08 48C252.08 49.44 252.02 51.3 252.02 53.58C251.96 55.86 251.9 57.48 251.9 58.44ZM238.7 46.44C239.84 46.68 240.62 46.98 241.04 47.34C241.46 47.7 241.7 48.42 241.82 49.38C241.82 49.86 241.88 50.58 241.88 51.54V53.16C241.88 54.18 241.22 54.9 239.84 55.38C238.88 55.74 237.74 55.98 236.42 56.16C234.86 56.4 233.96 55.86 233.72 54.54C233.12 52.02 233.48 49.5 234.92 46.98C235.04 46.86 235.22 46.74 235.46 46.62C235.7 46.56 236.12 46.5 236.66 46.44C237.14 46.38 237.5 46.32 237.62 46.26C237.62 46.26 237.98 46.32 238.7 46.44ZM215.6 45.12C213.44 44.64 210.74 44.7 207.5 45.3C204.26 45.9 201.98 46.2 200.78 46.14C201.2 42.54 201.5 39.96 201.74 38.4C204.92 37.98 206.6 37.74 206.84 37.74C212.24 37.44 215.72 37.32 217.4 37.38C218.24 37.44 219.08 37.56 219.92 37.68C220.76 37.86 221.84 38.1 223.16 38.4C224.42 38.76 225.26 38.94 225.74 39C227.18 39.36 227.72 40.38 227.24 42C226.76 43.62 226.4 44.76 226.16 45.48C225.92 46.2 225.44 47.1 224.84 48.3C224.24 49.5 223.52 50.46 222.68 51.24C222.44 51.48 222.14 51.78 221.78 52.14C221.36 52.5 221.06 52.8 220.94 52.92C220.82 53.04 220.64 53.22 220.52 53.46C220.4 53.7 220.34 53.94 220.4 54.06C220.46 54.24 220.58 54.42 220.82 54.66C221 54.9 221.3 55.14 221.72 55.38C221.96 55.56 222.32 55.92 222.92 56.4C223.46 56.88 223.82 57.24 223.94 57.42C224.48 58.2 225.2 58.98 226.04 59.82C226.88 60.66 227.54 61.44 228.08 62.22C229.04 63.66 228.86 64.74 227.42 65.46C226.94 65.76 226.28 66.18 225.44 66.78C224.6 67.38 224 67.74 223.7 67.92C223.4 68.16 223.16 68.28 222.92 68.34C222.68 68.4 222.38 68.4 222.08 68.28C221.78 68.16 221.6 68.1 221.48 68.04C221.36 68.04 221.12 67.86 220.7 67.56C220.28 67.32 220.04 67.14 219.98 67.08C219.68 66.96 219.5 66.84 219.44 66.72C219.32 66.6 219.26 66.54 219.26 66.48C219.26 66.42 219.14 66.24 218.96 66C218.72 65.76 218.42 65.4 218 64.98C217.82 64.86 217.52 64.5 217.04 63.84C216.56 63.24 216.08 62.7 215.72 62.34C214.52 61.14 213.2 60.6 211.76 60.6C210.32 60.6 208.58 61.32 206.42 62.76C205.22 63.54 203.96 64.56 202.64 65.82C201.44 66.9 200.72 66.66 200.36 65.16C199.58 62.04 199.16 60.12 199.04 59.34C198.8 58.02 198.98 56.82 199.58 55.8C200.18 54.84 201.2 54.12 202.58 53.64C204.62 53.04 206.54 52.2 208.28 51C209.96 49.8 211.94 48.24 214.22 46.26C214.22 46.26 214.7 45.9 215.6 45.12ZM206.12 72.66C206.24 72.66 207.14 72.42 208.82 71.94C210.5 71.46 211.76 71.22 212.6 71.22C212.96 71.22 213.32 71.28 213.74 71.34C214.22 71.46 214.76 71.52 215.42 71.52C215.72 71.52 216.2 71.52 216.8 71.46C217.4 71.46 217.82 71.4 218.12 71.4C218.42 71.4 218.84 71.46 219.44 71.46C220.04 71.52 220.46 71.52 220.76 71.52C221.78 71.52 222.86 71.46 224 71.34C225.08 71.22 226.34 70.98 227.66 70.74C228.98 70.5 230.06 70.38 230.78 70.26C231.62 70.14 232.52 70.08 233.54 70.08C234.44 70.08 236 70.2 238.16 70.32C240.32 70.44 241.7 70.5 242.3 70.5C242.48 70.5 242.6 70.62 242.72 70.74C243.44 72.18 243.86 73.98 244.04 76.14C244.1 77.16 244.16 77.94 244.16 78.48C244.16 79.44 244.1 80.34 244.04 81.18C243.98 82.08 243.92 83.1 243.8 84.3C243.68 85.5 243.62 86.4 243.62 86.94C243.5 87.6 243.08 88.74 242.24 90.36C242 90.84 241.64 91.26 241.22 91.5C240.74 91.74 240.38 91.92 240.08 91.92L238.76 92.1C238.04 92.16 237.5 92.22 237.2 92.28C236.78 92.4 236.18 92.46 235.34 92.58C234.5 92.7 233.96 92.76 233.6 92.82C233.36 92.88 233.12 92.88 233 92.88C232.16 92.88 231.74 92.4 231.74 91.38C231.62 87.18 231.56 84.24 231.56 82.5C231.5 81.18 230.9 80.52 229.82 80.52C229.7 80.52 229.58 80.58 229.46 80.58C228.86 80.64 227.96 80.76 226.88 81C225.8 81.24 225.08 81.36 224.78 81.36C224.48 81.42 223.88 81.54 222.92 81.66C221.96 81.84 221.18 81.96 220.52 82.02C219.86 82.14 219.2 82.14 218.6 82.14C217.04 82.14 213.86 81.96 209.12 81.54C208.88 81.54 208.58 81.42 208.28 81.24C207.98 81.06 207.86 80.88 207.86 80.7C207.74 80.28 207.5 79.74 207.14 79.02C206.78 78.3 206.66 77.58 206.66 76.86C206.66 76.74 206.54 76.32 206.3 75.72C206.06 75.12 206 74.64 206.24 74.28C206.24 74.16 206.3 74.04 206.3 73.92C206.3 73.74 206.24 73.5 206.18 73.26C206.12 73.02 206.12 72.84 206.12 72.66Z" fill="white"/>
</svg>
