<svg width="91" height="121" viewBox="0 0 91 121" fill="none" xmlns="http://www.w3.org/2000/svg">
<rect x="0.5" y="0.5" width="90" height="120" fill="#FF961E"/>
<rect x="0.5" y="0.5" width="90" height="120" stroke="black"/>
<path d="M37.28 68.46C32.78 68.58 28.7 67.62 24.98 65.46C22.7 64.2 21.14 62.1 20.42 59.1C19.46 55.5 19.34 52.62 20.06 50.34C20.42 49.14 21.02 48 21.8 46.92C23.3 44.88 24.62 43.32 25.76 42.24C27.44 40.68 29.66 40.08 32.3 40.38C35.72 40.86 39.38 42.24 43.22 44.52C45.38 45.84 46.7 47.76 47.18 50.4C47.84 54.6 47.9 58.02 47.3 60.6C46.7 63.18 45.56 65.16 43.82 66.6C42.08 68.04 39.92 68.7 37.28 68.46ZM30.74 55.62C31.46 58.02 31.94 59.4 32.12 59.64C32.24 59.88 32.42 60.18 32.72 60.42C33.02 60.66 33.26 60.78 33.5 60.72C34.82 60.6 35.96 60.3 36.86 59.7C37.7 59.1 38.3 58.32 38.54 57.3C38.78 56.28 38.54 55.08 37.82 53.64C36.74 51.48 35.06 50.76 32.78 51.42C31.46 51.84 30.8 53.22 30.74 55.62ZM71.9 64.44C71.84 66.96 71.24 68.7 70.1 69.66C69.62 70.02 69.02 70.32 68.3 70.44C67.58 70.56 66.92 70.62 66.38 70.56H65.6L64.28 70.2C63.44 70.02 63.08 69.48 63.08 68.64V58.68C62 58.92 60.8 59.04 59.54 59.16C57.2 59.4 55.82 58.86 55.4 57.54C54.5 55.02 55.1 52.5 57.26 49.98C57.38 49.86 57.62 49.74 58.04 49.62C58.4 49.56 59 49.5 59.84 49.44C60.62 49.38 61.1 49.32 61.28 49.26C61.34 49.26 61.88 49.32 62.84 49.44C62.72 46.26 62.72 42.84 62.72 39.18C62.72 38.4 62.96 37.74 63.56 37.2C64.1 36.72 64.82 36.42 65.66 36.42L69.92 36.84L70.52 37.32C70.76 37.5 71.06 37.86 71.54 38.4C71.96 38.94 72.2 39.48 72.2 39.96V48.9C72.14 48.9 72.08 49.86 72.08 51.78C72.08 53.7 72.02 56.04 72.02 58.74C71.96 61.5 71.9 63.36 71.9 64.44ZM42.44 80.58C50.6 80.1 55.22 79.86 56.24 79.74C57.26 79.68 58.46 79.56 59.9 79.44C61.34 79.32 62.54 79.2 63.5 79.08C64.46 78.96 65.3 78.9 65.9 78.9C66.68 78.9 67.28 79.92 67.64 81.84C67.7 82.26 67.76 83.1 67.76 84.3C67.76 85.68 67.4 87.06 66.68 88.5C66.44 88.92 65.9 89.22 65.06 89.34C64.22 89.46 61.4 89.64 56.6 89.88C51.8 90.12 48.98 90.3 48.08 90.42C47.84 90.48 47.66 90.48 47.42 90.48C46.4 90.48 44.24 90.54 40.94 90.6C37.64 90.66 35.24 90.72 33.74 90.78C33.38 90.78 32.72 90.84 31.88 90.9C31.04 90.96 30.38 90.96 29.96 90.96C28.58 90.96 27.44 90.72 26.6 90.18C26.3 90.06 26.06 89.76 25.82 89.4C25.58 89.04 25.52 88.74 25.52 88.38C25.34 86.64 25.22 84.18 25.1 80.94C24.98 77.7 24.86 75.48 24.8 74.22L24.74 73.38C24.74 72.78 24.74 72.24 24.74 71.64L24.68 70.8C24.8 70.8 25.1 70.74 25.64 70.62C26.18 70.5 26.54 70.38 26.72 70.32C27.14 70.26 28.1 70.2 29.6 70.2C31.34 70.2 32.42 70.32 32.9 70.44C33.38 70.62 33.62 70.92 33.62 71.34C33.62 71.52 33.68 71.94 33.8 72.54C33.92 73.14 34.04 73.56 34.04 73.74C34.04 74.4 34.16 75.6 34.52 77.4C34.52 77.64 34.58 78.18 34.7 78.96C34.76 79.74 34.88 80.4 35.06 81L42.44 80.58Z" fill="white"/>
</svg>
