<svg width="181" height="121" viewBox="0 0 181 121" fill="none" xmlns="http://www.w3.org/2000/svg">
<rect x="0.5" y="0.5" width="90" height="120" fill="#FF961E"/>
<rect x="0.5" y="0.5" width="90" height="120" stroke="black"/>
<path d="M71.12 39.96C71.12 40.02 71.12 40.08 71.24 40.08C71.36 40.2 71.6 40.26 71.96 40.38C72.32 40.5 72.62 40.56 72.86 40.68C73.1 40.8 73.22 40.92 73.28 41.04C73.58 42.18 73.7 43.5 73.64 44.94C73.58 45.42 73.28 48.6 72.8 54.48C72.38 58.92 72.02 63.36 71.66 67.8C71.24 72.12 71 74.7 71 75.54C70.88 76.26 70.82 77.22 70.76 78.48C70.7 79.74 70.64 80.88 70.58 81.9C70.46 82.92 70.4 83.88 70.28 84.78C70.16 85.62 69.56 86.82 68.6 88.44C68.36 88.86 67.82 89.04 66.98 89.04C66.8 89.1 65.06 89.1 61.7 89.1C61.1 89.1 60.62 88.98 60.26 88.62C59.9 88.26 59.66 87.84 59.66 87.24L59.24 80.94C59.24 80.82 59.18 80.4 59.12 79.68C59 78.96 59 78.42 59.06 78.06C59.18 76.32 59.42 74.58 59.78 72.84C59.96 71.7 59.9 70.92 59.54 70.56C59.18 70.2 58.46 70.14 57.38 70.38C55.7 70.74 54.32 70.32 53.24 69.24C52.1 68.16 51.68 66.84 51.98 65.16C52.22 63.6 52.88 62.34 53.96 61.38C54.98 60.48 56.3 59.94 57.98 59.82C58.76 59.82 59.48 59.52 60.08 58.98C60.68 58.44 61.04 57.78 61.1 57.06C61.16 55.86 61.28 54 61.52 51.36C61.7 48.78 61.82 46.8 61.94 45.42C62 44.82 62.18 43.74 62.54 42.3C62.84 40.98 63.68 40.38 65.06 40.38C66.62 40.44 68.12 40.44 69.5 40.44C69.5 40.44 70.04 40.32 71.12 39.96ZM38.36 74.22C35.72 80.58 34.16 84.18 33.8 85.02C33.32 86.04 32.72 87.06 31.94 88.14C31.46 88.86 30.92 89.16 30.44 89.16C29.24 89.16 28.34 89.1 27.8 89.04C27.26 89.04 26.54 88.86 25.64 88.5C24.74 88.2 24.02 87.72 23.42 87C22.58 86.16 22.46 85.14 23.12 84.06C23.3 83.76 23.96 82.68 25.04 80.88C26.12 79.08 26.96 77.64 27.5 76.56C29.18 73.32 30.98 69.48 32.96 64.92C33.32 64.02 33.44 63.42 33.2 63.12C32.96 62.82 32.36 62.7 31.4 62.7C29 62.88 25.58 62.4 21.08 61.26C20 61.02 19.46 60.3 19.46 59.04V57.78V56.52C19.46 56.52 19.28 55.98 19.04 55.02C19.22 55.02 19.58 54.9 20.06 54.72C20.54 54.6 20.96 54.48 21.38 54.36C21.74 54.3 22.16 54.24 22.58 54.18C23 54.18 25.34 54.12 29.66 54.12H39.08C39.98 54.18 40.7 54.24 41.18 54.24C41.66 54.3 42.26 54.48 42.98 54.78C43.7 55.08 44.24 55.5 44.72 56.1C44.72 56.58 44.72 57.12 44.66 57.6C44.6 58.08 44.48 58.62 44.3 59.16C44.12 59.76 44 60.18 43.88 60.54C43.76 60.9 43.52 61.38 43.28 62.04C42.98 62.7 42.8 63.12 42.74 63.36C42.38 64.32 42.26 64.92 42.38 65.16C42.5 65.4 42.98 65.7 43.94 66C46.46 66.84 48.02 67.44 48.74 67.74C49.04 67.92 49.34 68.16 49.64 68.52C49.88 68.88 50.06 69.18 50.06 69.42C49.94 72.3 49.76 74.76 49.4 76.74C49.16 77.88 48.62 78.78 47.72 79.5C46.82 80.22 45.86 80.46 44.78 80.28C43.94 80.16 42.98 79.32 41.9 77.82C41.78 77.7 41.66 77.52 41.42 77.16C41.18 76.8 41 76.62 40.94 76.5C40.88 76.44 40.76 76.32 40.64 76.08C40.46 75.9 40.34 75.78 40.28 75.72C40.16 75.66 40.04 75.54 39.92 75.42C39.8 75.3 39.62 75.18 39.5 75.06C39.38 74.94 39.2 74.82 39.02 74.7C38.84 74.58 38.6 74.46 38.36 74.22ZM22.46 46.14C22.16 45.06 22.76 44.22 24.2 43.74C27.56 42.6 31.04 41.94 34.64 41.7C35.3 41.7 35.9 41.88 36.44 42.3C36.98 42.78 37.28 43.32 37.4 43.98C37.46 44.46 37.58 45.24 37.76 46.26C37.94 47.28 38.06 48.06 38.18 48.54C38.24 49.02 38.12 49.38 37.88 49.62C36.44 50.94 34.94 51.48 33.5 51.18C32.9 51.12 32.24 51.06 31.58 51.06C30.86 51.06 30.08 51.06 29.18 51.06C28.22 51.06 27.56 51.06 27.2 51C25.88 51 24.74 50.58 23.84 49.62C22.94 48.66 22.46 47.52 22.46 46.14Z" fill="white"/>
<rect x="90.5" y="0.5" width="90" height="120" fill="#FF961E"/>
<rect x="90.5" y="0.5" width="90" height="120" stroke="black"/>
<path d="M137 67.5C132.08 67.74 129.44 67.86 128.96 67.86C119.24 67.86 113.78 67.74 112.46 67.38C111.26 67.08 110.6 66.48 110.42 65.64C110.24 64.8 110.36 63.54 110.84 61.86C111.02 61.62 111.14 61.32 111.2 60.84C111.26 60.42 111.44 60.12 111.74 59.88C111.86 59.76 112.16 59.64 112.58 59.64H122.66C128.84 59.64 132.2 59.64 132.74 59.58C133.04 59.58 133.82 59.7 135.14 59.82C136.46 59.94 137.18 60 137.36 60C137.72 60.06 141.02 60.12 147.14 60.24C153.26 60.36 156.8 60.42 157.76 60.48C157.94 60.54 158.18 60.72 158.42 60.96C158.66 61.2 158.84 61.44 158.9 61.62C159.14 63.18 159.14 64.38 158.9 65.22C158.54 66.54 157.4 67.26 155.48 67.38C154.88 67.44 151.76 67.5 146.18 67.5C140.54 67.56 137.48 67.62 137 67.62V67.5ZM134.96 36.54C138.8 36.78 140.72 36.9 140.78 36.9C146.3 37.44 150.56 39.6 153.62 43.32C153.98 43.86 154.28 44.64 154.46 45.66C154.7 47.58 154.28 49.74 153.32 52.2C152.24 54.96 150.2 56.64 147.08 57.24C144.8 57.72 142.4 57.9 139.82 57.9C139.1 57.9 137.78 57.96 135.8 58.02C133.82 58.14 132.32 58.14 131.24 58.08C127.28 57.9 123.86 57.18 121.1 55.98C117.74 54.6 116.24 52.26 116.6 48.96C116.9 46.26 118.34 43.68 120.86 41.16C122.84 39.18 126.02 37.74 130.46 36.9C130.88 36.84 131.36 36.78 131.9 36.72C132.38 36.72 132.98 36.66 133.58 36.66C134.18 36.66 134.66 36.6 134.96 36.54ZM135.08 51.48C137.48 51.36 138.74 51.24 138.92 51.24C139.64 51.18 140.42 50.88 141.14 50.4C141.86 49.92 142.28 49.44 142.4 48.96C142.52 47.88 142.4 46.92 141.92 46.2C141.44 45.48 140.48 45 139.16 44.7C136.22 44.1 133.58 44.04 131.3 44.58C130.1 44.88 129.44 45.12 129.26 45.3C128.6 46.02 127.94 47.04 127.22 48.36C126.62 49.44 127.04 50.1 128.42 50.46C131.3 51.3 133.52 51.66 135.08 51.48ZM133.04 84C137.48 84 140.06 83.94 140.9 83.82C141.62 83.7 142.16 83.64 142.52 83.58C142.82 83.52 143.06 83.4 143.24 83.22C143.36 83.1 143.42 82.92 143.42 82.8C143.42 82.68 143.36 82.44 143.36 82.02C143.36 81.66 143.36 81.24 143.42 80.88V80.64C143.42 80.22 143.3 79.92 143.06 79.74C142.82 79.56 142.34 79.44 141.68 79.44H127.22V83.22C129.32 83.76 131.24 84 133.04 84ZM125.6 71.58H126.62H127.64C134.06 71.58 138.86 71.46 142.04 71.1C142.94 71.04 143.84 70.98 144.68 70.98C148.52 70.98 151.88 71.94 154.82 73.74C155.54 74.22 156.08 74.94 156.56 75.9C157.04 76.86 157.28 77.82 157.28 78.78C157.28 79.26 157.22 79.62 157.16 79.98C156.92 80.7 156.68 81.42 156.38 82.26C156.02 83.1 155.78 83.82 155.66 84.42C155.24 85.92 154.82 87.12 154.4 87.96C154.16 88.44 153.62 88.74 152.78 88.98C148.52 90.18 143.96 90.78 139.04 90.78C134.12 90.78 131.06 90.66 129.74 90.42C123.02 89.34 119.06 88.62 117.98 88.38C117.56 88.32 117.14 88.08 116.78 87.66C116.36 87.24 116.06 86.82 115.88 86.34C115.76 86.04 115.7 85.62 115.7 85.08C115.7 84.9 115.7 84.6 115.76 84.18C115.76 83.82 115.82 83.52 115.82 83.4C115.88 82.02 116 80.4 116.24 78.48C116.6 75.72 117.44 73.92 118.82 72.96C120.2 72.06 122.48 71.58 125.6 71.58Z" fill="white"/>
</svg>
