<svg width="361" height="121" viewBox="0 0 361 121" fill="none" xmlns="http://www.w3.org/2000/svg">
<rect x="0.5" y="0.5" width="90" height="120" fill="#FF961E"/>
<rect x="0.5" y="0.5" width="90" height="120" stroke="black"/>
<path d="M22.58 40.08C23.18 40.08 24.44 40.08 26.3 40.2C28.1 40.32 29.42 40.32 30.2 40.26C30.56 40.26 31.16 40.26 31.94 40.26C32.66 40.32 33.26 40.32 33.62 40.26C38.24 40.02 42.26 40.2 45.68 40.92C48.32 41.52 49.46 43.26 49.22 46.14C49.1 47.16 48.98 49.32 48.86 52.56C48.74 54.36 48.68 55.8 48.62 56.88C48.5 57.96 48.32 59.22 48.02 60.78C47.72 62.34 47.3 63.66 46.82 64.86C46.4 65.88 45.86 66.6 45.14 67.02C43.34 68.16 41.72 68.94 40.34 69.36C39.8 69.48 39.44 69.48 39.2 69.48C38.96 69.48 38.54 69.48 37.94 69.42C37.34 69.36 36.98 69.3 36.74 69.3C31.34 69.12 28.28 69 27.62 68.94C26.42 68.88 25.22 68.28 24.14 67.08C23 65.88 22.34 64.68 22.22 63.48C21.98 61.92 21.92 60.18 21.92 58.26C21.92 56.34 21.98 54.9 22.1 53.82C22.16 52.8 22.28 51.06 22.52 48.6C22.58 47.76 22.64 46.92 22.64 45.96C22.64 45.06 22.58 43.98 22.58 42.78C22.58 41.58 22.58 40.68 22.58 40.08ZM30.8 48.54V56.4C30.8 57.36 30.98 58.02 31.28 58.26C31.58 58.56 32.24 58.74 33.26 58.74C33.5 58.74 33.98 58.8 34.58 58.8C35.18 58.8 35.6 58.8 35.96 58.8C36.68 58.8 37.4 58.62 38 58.14C38.6 57.66 38.9 57.12 38.96 56.4C39.08 52.98 38.72 50.16 37.82 47.94L30.8 48.54ZM67.1 58.5V66.24C67.1 66.9 66.98 68.1 66.86 69.78C66.74 70.74 66.14 71.28 65.18 71.28C63.02 71.34 61.22 71.34 59.66 71.22C58.76 71.22 57.98 70.86 57.38 70.26C56.78 69.66 56.42 68.94 56.42 68.1C56.36 64.62 56.36 60.3 56.42 55.14C56.42 54.84 56.42 52.5 56.54 48.12C56.6 43.8 56.66 41.1 56.72 40.14C56.72 38.94 57.14 38.16 57.98 37.68C58.16 37.56 58.52 37.38 59.06 37.08C59.6 36.84 60.02 36.6 60.32 36.48C60.56 36.36 60.92 36.24 61.4 36.06C61.88 35.88 62.3 35.76 62.72 35.7C63.14 35.64 63.56 35.64 64.04 35.64C64.76 35.7 65.3 35.76 65.66 35.88C66.5 36.24 66.92 36.84 66.92 37.74C66.92 38.52 66.92 40.5 67.04 43.74C67.16 46.98 67.22 48.9 67.34 49.5C67.4 49.98 67.76 50.28 68.48 50.34C71.36 50.58 72.98 50.7 73.34 50.76C74.18 51 74.72 51.66 74.84 52.86C75.02 54.66 74.72 56.28 73.88 57.66C73.64 58.08 72.92 58.38 71.84 58.5H67.1ZM42.44 80.58C50.6 80.1 55.22 79.86 56.24 79.74C57.26 79.68 58.46 79.56 59.9 79.44C61.34 79.32 62.54 79.2 63.5 79.08C64.46 78.96 65.3 78.9 65.9 78.9C66.68 78.9 67.28 79.92 67.64 81.84C67.7 82.26 67.76 83.1 67.76 84.3C67.76 85.68 67.4 87.06 66.68 88.5C66.44 88.92 65.9 89.22 65.06 89.34C64.22 89.46 61.4 89.64 56.6 89.88C51.8 90.12 48.98 90.3 48.08 90.42C47.84 90.48 47.66 90.48 47.42 90.48C46.4 90.48 44.24 90.54 40.94 90.6C37.64 90.66 35.24 90.72 33.74 90.78C33.38 90.78 32.72 90.84 31.88 90.9C31.04 90.96 30.38 90.96 29.96 90.96C28.58 90.96 27.44 90.72 26.6 90.18C26.3 90.06 26.06 89.76 25.82 89.4C25.58 89.04 25.52 88.74 25.52 88.38C25.34 86.64 25.22 84.18 25.1 80.94C24.98 77.7 24.86 75.48 24.8 74.22L24.74 73.38C24.74 72.78 24.74 72.24 24.74 71.64L24.68 70.8C24.8 70.8 25.1 70.74 25.64 70.62C26.18 70.5 26.54 70.38 26.72 70.32C27.14 70.26 28.1 70.2 29.6 70.2C31.34 70.2 32.42 70.32 32.9 70.44C33.38 70.62 33.62 70.92 33.62 71.34C33.62 71.52 33.68 71.94 33.8 72.54C33.92 73.14 34.04 73.56 34.04 73.74C34.04 74.4 34.16 75.6 34.52 77.4C34.52 77.64 34.58 78.18 34.7 78.96C34.76 79.74 34.88 80.4 35.06 81L42.44 80.58Z" fill="white"/>
<rect x="90.5" y="0.5" width="90" height="120" fill="#FF961E"/>
<rect x="90.5" y="0.5" width="90" height="120" stroke="black"/>
<path d="M157.1 53.1V59.04C157.1 59.7 156.98 60.9 156.86 62.58C156.74 63.54 156.14 64.08 155.18 64.08C153.02 64.14 151.22 64.14 149.66 64.02C148.76 64.02 147.98 63.66 147.38 63.06C146.78 62.46 146.42 61.74 146.42 60.9C146.36 57.96 146.36 54.24 146.42 49.74C146.42 49.08 146.48 47.52 146.54 45.12C146.6 42.72 146.66 41.04 146.72 40.14C146.72 38.94 147.14 38.16 147.98 37.68C148.16 37.56 148.52 37.38 149.06 37.08C149.6 36.84 150.02 36.6 150.32 36.48C150.56 36.36 150.92 36.24 151.4 36.06C151.88 35.88 152.3 35.76 152.72 35.7C153.14 35.64 153.56 35.64 154.04 35.64C154.76 35.7 155.3 35.76 155.66 35.88C156.5 36.24 156.92 36.84 156.92 37.74C156.92 39.42 157.04 41.58 157.34 44.1C157.4 44.58 157.76 44.88 158.48 44.94C161.36 45.18 162.98 45.3 163.34 45.36C164.18 45.6 164.72 46.26 164.84 47.46C165.02 49.26 164.72 50.88 163.88 52.26C163.64 52.68 162.92 52.98 161.84 53.1H157.1ZM125.42 65.4C124.64 65.4 123.62 65.46 122.36 65.46C121.1 65.46 120.02 65.46 119.18 65.46C118.34 65.46 117.5 65.46 116.78 65.34C115.52 65.22 114.56 64.92 113.84 64.32C113.12 63.78 112.7 62.94 112.52 61.74C111.92 58.56 111.5 55.74 111.38 53.22C111.26 50.7 111.26 47.82 111.44 44.58C111.44 43.26 111.74 42.18 112.34 41.22C112.94 40.32 113.96 39.66 115.46 39.24C117.98 38.58 120.26 38.16 122.24 37.92C122.48 37.92 122.9 38.16 123.38 38.7C123.86 39.24 124.1 39.72 124.1 40.08C124.16 40.68 124.34 41.76 124.64 43.26C124.88 44.76 125 46.02 125 47.04C124.94 48.12 124.7 49.08 124.22 50.04C123.8 50.88 123.68 52.14 123.86 53.82C123.86 54.06 124.04 54.36 124.4 54.6C124.76 54.84 125.12 55.02 125.42 55.02H126.38C126.56 55.02 126.86 55.02 127.34 54.9C127.82 54.84 128.12 54.78 128.36 54.72C134 54.12 137.54 53.7 138.86 53.58C140 53.46 140.78 54.06 141.14 55.38C141.74 57.18 142.04 58.38 142.04 58.98C141.98 59.58 141.38 60.6 140.3 61.98C140 62.34 138.86 62.88 136.94 63.48C131.78 65.16 127.94 65.82 125.42 65.4ZM147.92 68.46C148.04 68.34 148.28 68.22 148.52 68.16C148.76 68.16 149 68.16 149.24 68.28C149.48 68.4 149.72 68.46 149.96 68.58C150.14 68.7 150.38 68.82 150.62 68.94C150.86 69.12 151.04 69.24 151.1 69.24C151.34 69.42 152.48 70.08 154.4 71.28C154.88 71.58 155.12 72 155.12 72.54C155.12 72.78 155.06 72.96 155 73.14C154.76 73.62 154.34 74.28 153.62 75.06C152.9 75.9 152.42 76.5 152.24 76.98C153.92 78.06 155.36 79.08 156.68 80.04C157.16 80.46 157.7 81 158.42 81.66C159.14 82.38 159.62 82.92 159.86 83.34C159.92 83.46 159.98 83.52 160.1 83.64C160.22 83.76 160.28 83.88 160.34 83.94C160.4 84 160.46 84.06 160.46 84.12C160.46 84.3 160.34 84.54 160.22 84.78C160.04 85.08 159.98 85.26 159.98 85.26C159.8 85.62 159.62 85.92 159.44 86.16C158.72 87 158 87.72 157.22 88.32C157.1 88.44 156.92 88.62 156.68 88.98C156.38 89.34 156.14 89.52 155.9 89.52C155.3 89.52 154.52 89.16 153.44 88.38C151.94 87.3 150.5 86.16 149.06 85.02C146.78 88.08 145.22 90.18 144.38 91.32C143.66 92.22 142.82 92.64 141.98 92.64C141.38 92.64 140.78 92.46 140.06 91.98C139.1 91.38 137.84 90.66 136.28 89.7C136.22 89.82 136.22 89.88 136.22 89.88C135.56 91.32 134.6 92.04 133.4 92.04C132.86 92.04 132.32 91.92 131.84 91.56C131.36 91.26 130.64 90.72 129.68 90C128.72 89.28 128.06 88.8 127.58 88.44C126.14 87.54 124.58 86.58 122.9 85.62C122.66 85.5 122.24 85.38 121.7 85.2C121.16 85.86 120.74 86.34 120.5 86.7C120.26 87 119.78 87.66 119.06 88.68C118.34 89.76 117.74 90.54 117.32 91.08C117.08 91.44 116.6 91.86 115.94 92.34C115.34 92.82 114.8 93 114.2 93C113.6 93 113.06 92.82 112.58 92.34C112.4 92.28 111.92 92.1 111.08 91.74C110.24 91.38 109.76 91.14 109.64 91.02C109.04 90.78 108.62 90.48 108.38 90.18C107.96 89.7 107.78 89.16 107.78 88.56C107.78 88.2 107.84 87.84 108.08 87.42C108.2 87.06 108.38 86.7 108.74 86.22C110.42 83.76 111.8 81.84 112.76 80.4C114.5 77.88 115.82 75.96 116.72 74.7C117.62 73.44 118.52 72.24 119.48 71.16C119.54 71.1 119.66 70.98 119.78 70.8C119.9 70.68 120.02 70.56 120.08 70.5C120.08 70.44 120.14 70.32 120.26 70.2C120.38 70.08 120.44 70.02 120.5 70.02C120.5 70.02 120.56 69.96 120.68 69.84C120.8 69.78 120.86 69.72 120.92 69.72C120.92 69.72 120.98 69.72 121.1 69.66C121.22 69.66 121.28 69.6 121.4 69.6H121.7C121.82 69.6 122 69.66 122.24 69.72C122.42 69.84 122.6 69.9 122.78 70.02C122.9 70.14 123.08 70.26 123.32 70.38C123.56 70.5 123.68 70.62 123.8 70.62C125.06 71.4 125.9 71.94 126.26 72.3C126.86 73.02 127.22 73.74 127.22 74.52C127.22 75.06 127.1 75.54 126.86 76.02C126.68 76.38 126.5 76.8 126.32 77.34C126.92 77.64 128.12 78.24 129.98 79.14C130.64 79.5 131.72 80.1 133.16 80.82C134.6 81.6 135.74 82.14 136.52 82.5C137.24 81.54 138.32 80.1 139.88 78.12C142.64 74.58 145.28 71.34 147.92 68.46Z" fill="white"/>
<rect x="180.5" y="0.5" width="90" height="120" fill="#FF961E"/>
<rect x="180.5" y="0.5" width="90" height="120" stroke="black"/>
<path d="M227 67.5C222.08 67.74 219.44 67.86 218.96 67.86C209.24 67.86 203.78 67.74 202.46 67.38C201.26 67.08 200.6 66.48 200.42 65.64C200.24 64.8 200.36 63.54 200.84 61.86C201.02 61.62 201.14 61.32 201.2 60.84C201.26 60.42 201.44 60.12 201.74 59.88C201.86 59.76 202.16 59.64 202.58 59.64H212.66C218.84 59.64 222.2 59.64 222.74 59.58C223.04 59.58 223.82 59.7 225.14 59.82C226.46 59.94 227.18 60 227.36 60C227.72 60.06 231.02 60.12 237.14 60.24C243.26 60.36 246.8 60.42 247.76 60.48C247.94 60.54 248.18 60.72 248.42 60.96C248.66 61.2 248.84 61.44 248.9 61.62C249.14 63.18 249.14 64.38 248.9 65.22C248.54 66.54 247.4 67.26 245.48 67.38C244.88 67.44 241.76 67.5 236.18 67.5C230.54 67.56 227.48 67.62 227 67.62V67.5ZM224.96 36.54C228.8 36.78 230.72 36.9 230.78 36.9C236.3 37.44 240.56 39.6 243.62 43.32C243.98 43.86 244.28 44.64 244.46 45.66C244.7 47.58 244.28 49.74 243.32 52.2C242.24 54.96 240.2 56.64 237.08 57.24C234.8 57.72 232.4 57.9 229.82 57.9C229.1 57.9 227.78 57.96 225.8 58.02C223.82 58.14 222.32 58.14 221.24 58.08C217.28 57.9 213.86 57.18 211.1 55.98C207.74 54.6 206.24 52.26 206.6 48.96C206.9 46.26 208.34 43.68 210.86 41.16C212.84 39.18 216.02 37.74 220.46 36.9C220.88 36.84 221.36 36.78 221.9 36.72C222.38 36.72 222.98 36.66 223.58 36.66C224.18 36.66 224.66 36.6 224.96 36.54ZM225.08 51.48C227.48 51.36 228.74 51.24 228.92 51.24C229.64 51.18 230.42 50.88 231.14 50.4C231.86 49.92 232.28 49.44 232.4 48.96C232.52 47.88 232.4 46.92 231.92 46.2C231.44 45.48 230.48 45 229.16 44.7C226.22 44.1 223.58 44.04 221.3 44.58C220.1 44.88 219.44 45.12 219.26 45.3C218.6 46.02 217.94 47.04 217.22 48.36C216.62 49.44 217.04 50.1 218.42 50.46C221.3 51.3 223.52 51.66 225.08 51.48ZM209.6 77.76C209.48 77.76 209.18 77.82 208.7 77.82C208.22 77.88 207.86 77.88 207.68 77.88C207.44 77.88 207.2 77.88 206.84 77.82C206.48 77.76 206.18 77.64 206.06 77.52C205.88 77.4 205.7 77.16 205.52 76.92C205.34 76.68 205.22 76.32 205.22 75.9C205.16 75.66 205.1 75.3 204.98 74.7C204.86 74.1 204.8 73.62 204.8 73.2C204.8 72.66 204.86 72.12 205.04 71.52C205.04 71.28 205.22 71.04 205.58 70.8C205.94 70.56 206.3 70.38 206.72 70.38C222.92 70.38 234.2 70.5 240.68 70.86C242 70.98 243.02 71.1 243.8 71.34C244.7 71.64 245.24 72.06 245.42 72.54C245.6 73.26 245.72 74.04 245.72 74.82C245.72 75.72 245.54 76.8 245.3 78.06C244.82 80.16 243.62 81.66 241.64 82.5C240.56 82.98 238.58 83.34 235.76 83.58C234.74 83.7 233.3 83.76 231.38 83.76C229.46 83.82 228.14 83.88 227.36 83.88C227.24 83.88 225.08 83.94 220.94 84C216.74 84.06 214.46 84.12 214.04 84.24L214.1 85.68C214.82 85.68 217.52 85.68 222.2 85.62C226.88 85.56 229.64 85.5 230.36 85.5C231.98 85.5 233.42 85.5 234.68 85.44C235.52 85.44 236.84 85.38 238.58 85.26C240.26 85.14 241.52 85.08 242.36 85.08H242.48C243.56 85.08 244.16 85.44 244.16 86.16V86.46C243.8 88.14 243.5 89.46 243.26 90.3C242.96 91.14 242.48 91.74 241.82 92.1C241.16 92.46 240.08 92.58 238.52 92.58H237.8C236.24 92.58 234.02 92.46 231.2 92.28C228.38 92.1 226.4 91.98 225.26 91.92C223.46 91.86 221.9 91.86 220.52 91.92C219.14 91.98 217.58 91.98 215.9 91.92C214.22 91.86 212.72 91.68 211.4 91.44C209.6 91.08 208.34 90.48 207.62 89.64C206.9 88.8 206.48 87.72 206.24 86.28C206.18 86.04 206.18 85.38 206.18 84.36C206.18 84.3 206.18 83.88 206.24 83.1C206.24 81.96 206.6 81.18 207.2 80.7C207.8 80.28 208.82 80.04 210.38 79.98C216.14 79.86 223.76 79.62 233.3 79.26C234.5 79.26 235.1 78.84 235.1 78.12L235.04 77.82C235.04 77.64 235.04 77.46 235.04 77.28V76.92C235.04 76.86 234.74 76.8 234.14 76.8C233.54 76.8 232.46 76.8 230.9 76.86C229.34 76.92 227.72 76.98 225.98 77.04C224.24 77.16 221.78 77.28 218.66 77.4C215.54 77.52 212.48 77.64 209.6 77.76Z" fill="white"/>
<rect x="270.5" y="0.5" width="90" height="120" fill="#FF961E"/>
<rect x="270.5" y="0.5" width="90" height="120" stroke="black"/>
<path d="M332.18 68.64C331.76 68.76 331.46 68.82 331.22 68.88C330.98 69 330.68 69.06 330.32 69.06C329.72 69.18 329.24 69.36 328.94 69.6C328.64 69.9 328.52 70.38 328.52 71.1C328.52 71.94 328.52 74.1 328.52 77.64C328.52 81.18 328.52 83.34 328.58 84.18C328.58 85.86 327.98 86.88 326.72 87.3C326.42 87.42 326 87.54 325.52 87.78C324.98 88.02 324.56 88.2 324.32 88.26C323 88.74 321.98 88.26 321.32 86.82C320.24 84.54 319.52 81.54 319.22 77.76C319.1 76.62 319.04 74.82 319.04 72.42C319.04 70.02 318.98 68.16 318.92 66.96C318.14 59.04 318.2 51.84 319.1 45.24C319.1 45.12 319.1 44.88 319.16 44.58C319.16 44.28 319.22 44.04 319.22 43.92C319.22 43.8 319.28 43.68 319.34 43.44C319.34 43.2 319.4 43.08 319.52 42.96C319.58 42.84 319.7 42.72 319.82 42.6C319.94 42.48 320.06 42.3 320.24 42.18C320.42 42.06 320.66 42 320.9 41.88C322.22 41.34 323.9 40.92 326.06 40.62C327.26 40.44 327.98 41.1 328.22 42.6C328.28 43.2 328.4 44.88 328.52 47.52C328.52 47.88 328.58 49.38 328.58 51.9C328.58 54.48 328.64 56.1 328.7 56.7C328.76 57.54 329.06 58.2 329.54 58.56C330.02 58.92 330.68 59.04 331.52 58.92C331.76 58.92 331.94 58.86 332 58.74C332.06 58.68 332.24 58.68 332.54 58.68C333.08 58.74 333.5 58.62 333.74 58.38C333.98 58.14 334.04 57.66 334.04 57.06C334.04 49.32 333.98 45.06 333.98 44.34C333.92 43.26 334.34 42.66 335.24 42.54C337.76 42.3 339.62 42.18 340.82 42.18C341.06 42.18 341.3 42.24 341.54 42.36C341.72 42.48 341.84 42.72 341.96 42.96C342.08 43.2 342.14 43.44 342.14 43.56C342.14 43.68 342.2 43.98 342.2 44.34C342.2 44.76 342.26 45 342.26 45C342.26 45.06 342.38 48 342.62 53.82C342.62 54.18 342.62 55.38 342.74 57.36C342.86 59.4 342.92 60.9 342.92 61.98C342.92 63.9 342.92 70.2 342.86 80.76C342.86 82.08 342.62 83.16 342.14 83.88C341.66 84.6 340.88 85.2 339.8 85.56C339.2 85.74 338.36 85.98 337.22 86.22C335.66 86.58 334.82 85.92 334.58 84.18V83.58C334.82 81.72 334.7 79.14 334.22 75.78C333.74 72.42 333.02 70.08 332.18 68.64ZM288.62 43.68C288.98 43.44 289.58 43.32 290.48 43.32L301.88 43.92C302.3 43.92 302.48 44.16 302.42 44.58C302.42 45.48 302.42 46.38 302.42 47.34C302.42 48.3 302.48 49.02 302.54 49.44C302.6 49.86 302.54 50.28 302.42 50.76C302.3 51.24 302.18 51.54 302.06 51.66C301.94 51.78 301.58 51.9 301.04 52.02C300.5 52.14 299.96 52.2 299.42 52.14C298.82 52.14 297.92 52.08 296.72 52.02C295.58 52.08 294.74 52.8 294.2 54.12C293.66 55.5 293.36 57.18 293.36 59.16C293.36 61.14 293.36 63.24 293.48 65.52C293.54 67.8 293.66 69.84 293.78 71.64C293.9 73.5 293.84 74.94 293.6 75.96C293.42 77.64 293.66 78.6 294.32 78.96C294.68 79.08 295.64 79.08 297.08 78.9C298.52 78.72 299.84 78.66 300.98 78.78C302.06 78.9 302.66 79.38 302.78 80.22C302.78 80.34 302.84 80.76 302.96 81.42C303.08 82.08 303.2 82.62 303.32 83.04C303.38 83.52 303.44 84 303.44 84.54C303.44 85.08 303.32 85.44 303.2 85.68C302.24 86.28 301.16 86.64 299.9 86.64C298.64 86.64 297.44 86.52 296.36 86.22C295.28 85.98 294.08 85.8 292.76 85.68C291.44 85.56 290.3 85.68 289.34 85.98C288.8 86.46 288.38 85.8 288.14 84C287.78 81.6 287.66 74.94 287.84 63.96C287.84 60.96 287.84 59.22 287.78 58.68C287.84 57.9 287.84 56.34 287.72 53.94C287.6 51.6 287.6 49.44 287.72 47.52C287.78 45.6 288.08 44.34 288.62 43.68ZM313.04 43.74C313.64 43.92 314.18 44.1 314.6 44.34C315.02 44.58 315.32 44.76 315.56 44.94C315.8 45.18 315.92 45.48 316.04 45.9C316.1 46.32 316.16 46.62 316.16 46.86C316.16 47.1 316.1 47.58 316.1 48.24C316.1 48.96 316.04 49.44 316.04 49.74C316.16 50.64 315.86 51.12 315.14 51.18C314.42 51.42 313.76 51.48 313.1 51.48H312.68C312.5 51.48 312.2 51.42 311.84 51.3C311.48 51.18 311.18 51.12 310.94 51.06C310.7 51.06 310.52 51.06 310.28 51.12C309.8 51.6 309.62 52.2 309.62 52.92C309.62 53.64 309.68 54.42 309.92 55.32C310.1 56.28 310.22 56.94 310.22 57.36C310.22 58.02 310.16 59.34 310.04 61.38C309.86 63.42 309.68 65.46 309.5 67.44C309.32 69.42 309.26 71.28 309.32 73.02C309.38 74.76 309.62 75.78 310.1 76.08C310.82 76.14 311.54 76.14 312.32 76.14H314.36C314.96 76.14 315.44 76.44 315.74 77.04C316.04 77.64 316.1 78.48 315.92 79.68C315.92 80.58 315.98 81.3 316.04 81.9C316.04 82.5 316.04 82.98 315.98 83.46C315.92 83.94 315.86 84.36 315.86 84.6C315.8 84.84 315.68 85.08 315.5 85.26C315.26 85.44 315.08 85.56 314.9 85.62C314.72 85.68 314.42 85.68 314.06 85.68C313.64 85.68 313.28 85.68 312.98 85.62C312.62 85.62 312.14 85.56 311.54 85.5C310.94 85.44 310.34 85.38 309.86 85.32C309.38 85.44 308.78 85.56 308.06 85.68C307.34 85.86 306.8 85.98 306.44 85.98C306.08 86.04 305.72 85.98 305.3 85.86C304.82 85.74 304.52 85.44 304.28 84.9C304.04 84.42 303.8 83.7 303.62 82.74C303.38 81.66 303.14 79.68 303.02 76.8C302.84 73.92 302.6 71.88 302.24 70.56C302.18 70.08 302.18 69.36 302.18 68.28C302.24 67.56 302.36 64.26 302.48 58.32C302.6 52.44 302.96 47.94 303.56 44.94C303.8 44.46 304.46 44.22 305.42 44.22C307.04 44.22 309.56 44.1 313.04 43.74Z" fill="white"/>
</svg>
