<svg width="271" height="121" viewBox="0 0 271 121" fill="none" xmlns="http://www.w3.org/2000/svg">
<rect x="0.5" y="0.5" width="90" height="120" fill="#FF961E"/>
<rect x="0.5" y="0.5" width="90" height="120" stroke="black"/>
<path d="M49.04 45.06H38.6C37.94 45.06 36.86 45 35.36 45C33.86 45 32.48 44.94 31.28 44.94C30.02 44.94 29.3 44.94 29.06 44.88C27.98 44.82 27.38 44.28 27.38 43.32C27.32 42.84 27.32 41.94 27.38 40.68C27.44 39.42 27.5 38.58 27.5 38.16C27.74 38.16 28.22 38.04 28.88 37.92C29.48 37.8 30.08 37.74 30.56 37.68C31.04 37.62 31.52 37.56 32 37.56C34.52 37.56 37.94 37.62 42.32 37.74C43.1 37.8 44.24 37.86 45.74 37.98C47.24 38.1 48.32 38.1 49.04 38.1C49.64 38.16 50.78 38.22 52.58 38.22C54.32 38.28 55.7 38.34 56.66 38.34C57.68 38.46 59.24 38.7 61.34 39.18C62 39.3 62.42 39.6 62.6 39.96C62.72 40.38 62.78 40.86 62.72 41.46C62.42 43.38 62.12 44.7 61.88 45.42C61.52 46.26 60.92 47.04 60.02 47.76C59.72 48 59.36 48.24 59 48.48C58.58 48.72 58.1 48.96 57.62 49.2C57.08 49.5 56.72 49.68 56.48 49.8C60.68 52.5 63.08 54.06 63.74 54.42C64.1 54.66 64.34 54.9 64.4 55.08C64.4 55.26 64.34 55.5 64.1 55.8C63.86 56.16 63.5 56.64 63.08 57.3C62.66 58.02 62.36 58.5 62.18 58.8C61.7 59.4 60.92 59.82 59.84 60.06C58.76 60.3 57.74 60.3 56.78 60.06C56.18 59.94 55.52 59.76 54.86 59.46C54.2 59.22 53.66 58.98 53.24 58.74C52.82 58.5 52.28 58.2 51.56 57.78C50.84 57.36 50.3 57.06 50 56.82C49.04 56.34 48.02 55.86 46.94 55.5C45.98 55.2 44.78 55.38 43.34 56.04C41.3 57 38.84 58.26 36.08 59.76C35.72 59.94 35.42 60.06 35.12 60.12C34.82 60.24 34.46 60.24 34.1 60.24C33.74 60.24 33.44 60.18 33.26 60.18C33.08 60.18 32.78 60.12 32.3 60C31.82 59.94 31.52 59.88 31.4 59.82C30.56 59.7 29.84 59.46 29.24 58.98C28.64 58.5 28.22 58.02 27.98 57.42C27.74 56.88 27.56 56.34 27.44 55.8C27.32 55.32 27.32 54.84 27.32 54.48V53.94C30.2 53.04 32.18 52.38 33.26 52.02C33.98 51.78 35.18 51.42 36.74 50.94C38.3 50.46 39.5 50.1 40.28 49.8C41.12 49.56 42.26 49.14 43.76 48.54C45.26 47.94 46.16 47.64 46.4 47.52C47.36 47.16 48.2 46.38 49.04 45.06ZM27.5 72.6C27.8 72.3 29.48 72.12 32.6 72.12C32.96 72.12 33.32 72.18 33.74 72.24C34.22 72.36 34.76 72.42 35.42 72.42C35.72 72.42 36.2 72.42 36.8 72.36C37.4 72.36 37.82 72.3 38.12 72.3C38.42 72.3 38.84 72.36 39.44 72.36C40.04 72.42 40.46 72.42 40.76 72.42H41.96C41.9 72.18 41.84 71.88 41.84 71.46C41.84 71.1 41.78 70.8 41.78 70.56C41.78 70.32 41.66 70.14 41.54 69.9C41.36 69.72 41.12 69.6 40.88 69.54C40.28 69.48 37.82 69.42 33.5 69.3C29.18 69.18 26.66 69.18 25.94 69.18C24.98 69.42 24.2 69.48 23.54 69.36C22.88 69.3 22.4 68.88 22.1 68.1C21.5 66.78 21.32 65.28 21.56 63.66C21.62 63.3 21.98 62.88 22.58 62.46C23.18 62.1 24.56 61.74 26.78 61.5C28.94 61.26 30.5 61.26 31.46 61.38C31.82 61.38 32.84 61.32 34.46 61.32H38.96H41.96C49.28 61.2 53.54 61.2 54.68 61.2C55.76 61.2 58.22 61.32 62 61.5C65.72 61.68 67.7 61.8 67.94 61.8C68.12 61.8 68.48 61.86 69.02 61.98C69.86 62.22 70.4 62.52 70.7 62.88C71 63.24 71.12 63.84 71 64.68C70.94 65.04 70.88 65.28 70.88 65.52C70.82 65.76 70.76 66 70.76 66.18C70.7 66.42 70.64 66.6 70.52 66.72C70.4 66.84 70.28 66.96 70.28 67.08C70.22 67.2 70.1 67.32 69.92 67.44C69.68 67.56 69.56 67.62 69.44 67.68C69.32 67.74 69.14 67.8 68.84 67.86C68.54 67.98 68.3 68.04 68.18 68.04C68.06 68.1 67.76 68.16 67.34 68.28C66.86 68.4 66.56 68.46 66.32 68.52C65.84 68.64 63.32 68.76 58.64 68.88C53.96 69.06 51.38 69.24 50.9 69.36C50.66 69.48 50.6 70.08 50.6 71.16H50.78C51.62 71.04 52.52 70.98 53.54 70.98C54.44 70.98 56 71.1 58.16 71.22C60.32 71.34 61.7 71.4 62.3 71.4C62.48 71.4 62.6 71.52 62.72 71.64C63.2 72.6 63.5 73.32 63.68 73.86C63.8 74.46 63.92 75.18 64.04 76.14C64.1 77.16 64.16 77.94 64.16 78.48C64.16 79.44 64.1 80.34 64.04 81.18C63.98 82.08 63.92 83.1 63.8 84.3C63.68 85.5 63.62 86.4 63.62 86.94C63.5 87.6 63.08 88.74 62.24 90.36C62 90.84 61.64 91.26 61.22 91.5C60.74 91.74 60.38 91.92 60.08 91.92L58.76 92.1C58.04 92.16 57.5 92.22 57.2 92.28C56.78 92.4 56.18 92.46 55.34 92.58C54.5 92.7 53.96 92.76 53.6 92.82C53.36 92.88 53.12 92.88 53 92.88C52.16 92.88 51.74 92.4 51.74 91.38C51.62 87.18 51.56 84.24 51.56 82.5C51.5 81.18 50.9 80.52 49.82 80.52C49.7 80.52 49.58 80.58 49.46 80.58C48.86 80.64 47.96 80.76 46.88 81C45.8 81.24 45.08 81.36 44.78 81.36C44.48 81.42 43.88 81.54 42.92 81.66C41.96 81.84 41.18 81.96 40.52 82.02C39.86 82.14 39.2 82.14 38.6 82.14C37.04 82.14 33.86 81.96 29.12 81.54C28.88 81.54 28.58 81.42 28.28 81.24C27.98 81.06 27.86 80.88 27.86 80.7C27.68 79.98 27.5 79.08 27.38 78C27.26 76.92 27.14 75.84 27.14 74.64C27.08 73.5 27.2 72.84 27.5 72.6Z" fill="white"/>
<rect x="90.5" y="0.5" width="90" height="120" fill="#FF961E"/>
<rect x="90.5" y="0.5" width="90" height="120" stroke="black"/>
<path d="M147.14 37.62C149.42 37.5 150.68 37.44 150.8 37.44C152.12 37.5 153.38 37.62 154.7 37.8C156.02 37.98 157.16 38.1 158.18 38.16C159.32 38.28 159.92 38.94 159.98 40.08C159.98 41.52 160.1 43.74 160.28 46.68C160.46 49.68 160.58 51.9 160.64 53.4C160.7 54.54 160.7 56.58 160.7 59.46C160.7 62.4 160.7 64.44 160.7 65.52C160.7 67.14 160.7 70.44 160.7 75.48C160.7 80.52 160.7 83.88 160.7 85.5V85.62C160.7 86.46 160.58 87.3 160.34 88.02C159.8 89.52 158.84 90.24 157.46 90.18C156.8 90.18 156.02 90.24 155.18 90.24C154.34 90.24 153.62 90.24 153.02 90.12C152.54 90.12 152 89.94 151.52 89.64C150.98 89.4 150.62 89.04 150.5 88.68C149.3 85.8 148.7 83.58 148.64 82.02C148.46 78.54 148.34 72.6 148.28 64.32C148.22 56.04 148.16 50.4 148.04 47.34C148.04 46.38 147.98 45.42 147.86 44.34C147.74 43.26 147.62 42.06 147.5 40.68L147.14 37.62ZM124.7 87.96C119.48 87.9 115.16 86.1 111.68 82.5C110.48 81.3 109.64 79.26 109.28 76.38C108.68 72.42 108.38 68.88 108.44 65.82C108.44 60.54 109.58 55.44 111.86 50.52C112.04 50.1 112.22 49.8 112.4 49.62C115.52 46.5 117.5 44.58 118.34 43.86C118.52 43.68 118.76 43.56 119.06 43.44C119.3 43.38 119.66 43.32 120.14 43.26C120.56 43.2 120.86 43.14 121.04 43.14C123.74 42.54 126.32 42.72 128.72 43.68C131.12 44.64 133.64 46.2 136.16 48.24C137.18 49.2 138.02 50.04 138.62 50.82C139.22 51.6 139.64 52.5 139.88 53.52C140.36 56.1 140.54 58.26 140.36 59.94C140 64.02 139.34 68.46 138.5 73.32C137.48 79.02 134.84 83.22 130.52 85.86C127.88 87.54 125.9 88.2 124.7 87.96ZM131.24 62.94C131.18 62.82 131.12 62.46 131.06 61.98C130.94 61.5 130.88 61.14 130.82 60.9C130.76 60.72 130.7 60.42 130.58 60.06C130.46 59.7 130.34 59.4 130.16 59.1C129.98 58.86 129.8 58.56 129.56 58.32C128.12 56.82 126.56 56.22 124.88 56.52C123.14 56.88 121.94 58.02 121.22 60C120.32 62.28 120.08 64.32 120.44 66.12C120.56 66.84 120.68 67.98 120.86 69.48C121.04 71.04 121.22 72.18 121.4 72.96C121.58 73.86 122.12 74.64 123.08 75.3C123.98 75.96 124.88 76.26 125.84 76.26C126.5 76.26 127.16 76.02 127.88 75.48C128.54 75 128.96 74.34 129.14 73.5C129.26 72.84 129.98 69.3 131.24 62.94Z" fill="white"/>
<rect x="180.5" y="0.5" width="90" height="120" fill="#FF961E"/>
<rect x="180.5" y="0.5" width="90" height="120" stroke="black"/>
<path d="M237.14 37.62C239.42 37.5 240.68 37.44 240.8 37.44C242.12 37.5 243.38 37.62 244.7 37.8C246.02 37.98 247.16 38.1 248.18 38.16C249.32 38.28 249.92 38.94 249.98 40.08C249.98 41.52 250.1 43.74 250.28 46.68C250.46 49.68 250.58 51.9 250.64 53.4C250.7 54.54 250.7 56.58 250.7 59.46C250.7 62.4 250.7 64.44 250.7 65.52C250.7 67.14 250.7 70.44 250.7 75.48C250.7 80.52 250.7 83.88 250.7 85.5V85.62C250.7 86.46 250.58 87.3 250.34 88.02C249.8 89.52 248.84 90.24 247.46 90.18C246.8 90.18 246.02 90.24 245.18 90.24C244.34 90.24 243.62 90.24 243.02 90.12C242.54 90.12 242 89.94 241.52 89.64C240.98 89.4 240.62 89.04 240.5 88.68C239.3 85.8 238.7 83.58 238.64 82.02C238.46 78.54 238.34 72.6 238.28 64.32C238.22 56.04 238.16 50.4 238.04 47.34C238.04 46.38 237.98 45.42 237.86 44.34C237.74 43.26 237.62 42.06 237.5 40.68L237.14 37.62ZM204.56 43.74C210.32 44.16 213.5 44.4 214.1 44.4C216.74 44.64 218.78 44.82 220.22 44.94C221 45.06 221.72 45.54 222.32 46.38C222.92 47.22 223.22 48.12 223.1 49.02C222.98 50.04 222.56 51.96 221.72 54.84C221.48 55.44 221.18 56.28 220.82 57.48C220.4 58.68 220.1 59.64 219.98 60.24C219.68 61.2 219.62 61.92 219.86 62.52C219.98 63 220.46 63.36 221.3 63.54C222.38 63.84 224.78 64.38 228.38 65.16C229.52 65.4 229.88 66.12 229.52 67.32C229.4 67.68 229.1 68.7 228.68 70.26C228.2 71.82 227.84 73.02 227.54 73.8C226.64 75.96 225.32 76.92 223.52 76.8C223.28 76.8 223.16 76.86 223.1 76.86C222.62 77.1 222.14 77.22 221.72 77.22C221.24 77.22 220.88 77.22 220.64 77.16C220.34 77.1 219.98 76.92 219.56 76.56C219.08 76.2 218.84 75.96 218.72 75.84C218.6 75.72 218.3 75.36 217.82 74.82C216.62 73.62 215.96 72.9 215.78 72.66C215.3 72.3 214.82 72.12 214.34 72.12C213.8 72.12 213.32 72.36 212.9 72.78C212 73.68 211.22 74.64 210.56 75.66C210.32 75.96 209.36 77.58 207.62 80.52C206.96 81.6 206 82.26 204.68 82.62C203.36 82.98 202.04 82.98 200.72 82.56C199.4 82.2 198.5 81.48 197.96 80.46C197.12 79.02 196.82 77.04 197.06 74.52C197.12 73.8 197.6 73.08 198.44 72.48C199.4 71.76 200.78 70.8 202.64 69.54C204.44 68.28 205.82 67.32 206.66 66.66C207.98 65.7 209.06 64.74 209.9 63.78C210.74 62.82 211.28 61.62 211.64 60.24C211.88 59.16 211.7 58.32 211.16 57.66C210.56 57.06 209.72 56.76 208.58 56.82C204.98 57.12 202.1 56.34 200.06 54.54C199.34 53.94 198.92 53.16 198.92 52.26C198.8 51.42 198.86 49.56 199.1 46.74C199.1 46.56 199.16 46.32 199.4 46.08C199.58 45.84 199.7 45.6 199.76 45.42C199.82 45.24 199.76 44.94 199.58 44.58L200 44.28C200.18 44.16 200.36 44.1 200.48 44.04C200.6 43.98 200.78 43.92 200.9 43.92C201.14 43.92 202.4 43.86 204.56 43.86V43.74Z" fill="white"/>
</svg>
