<svg width="361" height="181" viewBox="0 0 361 181" fill="none" xmlns="http://www.w3.org/2000/svg">
<rect x="0.5" y="0.5" width="90" height="120" fill="#FF961E"/>
<rect x="0.5" y="0.5" width="90" height="120" stroke="black"/>
<path d="M67.1 53.1V59.04C67.1 59.7 66.98 60.9 66.86 62.58C66.74 63.54 66.14 64.08 65.18 64.08C63.02 64.14 61.22 64.14 59.66 64.02C58.76 64.02 57.98 63.66 57.38 63.06C56.78 62.46 56.42 61.74 56.42 60.9C56.36 57.96 56.36 54.24 56.42 49.74C56.42 49.08 56.48 47.52 56.54 45.12C56.6 42.72 56.66 41.04 56.72 40.14C56.72 38.94 57.14 38.16 57.98 37.68C58.16 37.56 58.52 37.38 59.06 37.08C59.6 36.84 60.02 36.6 60.32 36.48C60.56 36.36 60.92 36.24 61.4 36.06C61.88 35.88 62.3 35.76 62.72 35.7C63.14 35.64 63.56 35.64 64.04 35.64C64.76 35.7 65.3 35.76 65.66 35.88C66.5 36.24 66.92 36.84 66.92 37.74C66.92 39.42 67.04 41.58 67.34 44.1C67.4 44.58 67.76 44.88 68.48 44.94C71.36 45.18 72.98 45.3 73.34 45.36C74.18 45.6 74.72 46.26 74.84 47.46C75.02 49.26 74.72 50.88 73.88 52.26C73.64 52.68 72.92 52.98 71.84 53.1H67.1ZM37.28 67.38C32.78 67.5 28.7 66.54 24.98 64.38C22.7 63.12 21.14 61.02 20.42 58.02C19.46 54.42 19.34 51.54 20.06 49.26C20.42 48.06 21.02 46.92 21.8 45.84C23.3 43.8 24.62 42.24 25.76 41.16C27.44 39.6 29.66 39 32.3 39.3C35.72 39.78 39.38 41.16 43.22 43.44C45.38 44.76 46.7 46.68 47.18 49.32C47.84 53.52 47.9 56.94 47.3 59.52C46.7 62.1 45.56 64.08 43.82 65.52C42.08 66.96 39.92 67.62 37.28 67.38ZM30.74 54.54C31.46 56.94 31.94 58.32 32.12 58.56C32.24 58.8 32.42 59.1 32.72 59.34C33.02 59.58 33.26 59.7 33.5 59.64C34.82 59.52 35.96 59.22 36.86 58.62C37.7 58.02 38.3 57.24 38.54 56.22C38.78 55.2 38.54 54 37.82 52.56C36.74 50.4 35.06 49.68 32.78 50.34C31.46 50.76 30.8 52.14 30.74 54.54ZM51.5 69.96C51.74 69.9 52.22 69.78 52.82 69.54C53.42 69.36 53.96 69.24 54.32 69.12C54.68 69 55.1 68.88 55.7 68.76C56.24 68.64 56.78 68.58 57.26 68.52C57.74 68.46 58.28 68.4 58.76 68.4C59.66 68.4 60.56 68.52 61.46 68.76C62.9 69.18 63.68 70.14 63.68 71.64C63.68 72.12 63.56 72.66 63.44 73.2C63.14 74.1 62.36 74.52 61.16 74.52C60.8 74.52 60.38 74.52 59.9 74.4C58.46 74.28 56.36 74.16 53.66 74.1C51.98 74.1 51.14 73.62 51.14 72.66C51.14 72.3 51.26 71.88 51.62 71.4C51.62 71.34 51.68 71.22 51.68 71.1C51.68 70.98 51.62 70.74 51.62 70.5C51.56 70.26 51.5 70.08 51.5 69.96ZM60.68 88.14C62.18 88.14 62.96 87.66 62.96 86.7C62.96 86.46 62.9 86.22 62.78 85.86C62.72 85.62 62.66 85.44 62.6 85.26C62.48 85.08 62.36 84.9 62.18 84.78C62 84.66 61.88 84.54 61.76 84.42C61.64 84.36 61.46 84.3 61.16 84.18C60.86 84.12 60.68 84.06 60.56 84C60.44 84 60.2 83.94 59.84 83.82C59.48 83.7 59.24 83.64 59.18 83.64C59 83.76 58.7 83.94 58.22 84.18C57.74 84.42 57.38 84.66 57.08 84.84C56.78 85.08 56.54 85.26 56.42 85.5V85.62C56.42 85.86 56.6 86.22 56.96 86.64C57.32 87.12 57.74 87.42 58.16 87.66C58.76 88.02 59.6 88.14 60.68 88.14ZM46.46 78.12C46.46 77.76 46.52 76.92 46.64 75.66C47.12 75.66 47.9 75.66 48.98 75.6C50.06 75.6 50.9 75.54 51.5 75.54C53 75.54 55.7 75.72 59.6 76.02C61.94 76.26 63.68 76.38 64.88 76.44C66.02 76.56 66.86 76.8 67.46 77.16C68 77.52 68.36 78.18 68.54 79.02V79.14C68.54 79.5 68.36 79.86 68.06 80.16C67.94 80.28 67.34 80.7 66.26 81.48C67.7 83.64 68.42 85.5 68.42 86.94C68.42 87.54 68.3 88.08 68.18 88.68C67.94 89.28 67.1 89.82 65.66 90.24C64.16 90.72 62.84 91.02 61.7 91.14C58.94 91.5 57.38 91.62 56.9 91.62C55.94 91.62 55.1 91.56 54.26 91.32C52.7 90.9 51.56 90.12 50.72 88.92C49.88 87.78 49.46 86.46 49.46 84.9C49.46 83.94 49.76 82.92 50.42 81.96C50.42 81.96 50.54 81.66 50.72 81.06C48.86 80.7 47.66 80.4 47.18 80.1C46.7 79.8 46.46 79.14 46.46 78.12ZM22.34 71.52C23.66 71.22 25.28 71.04 27.2 71.04C27.92 71.04 28.7 71.16 29.48 71.34C30.8 71.7 31.46 72.48 31.46 73.56V74.76V75.9V77.34V78.72V79.38V79.98C31.46 80.46 31.52 80.76 31.7 80.94C31.82 81.12 32.18 81.18 32.66 81.18C32.78 81.18 32.9 81.18 33.14 81.12C35.66 81 38.36 80.88 41.12 80.88C42.68 80.88 44.18 80.94 45.56 81.06C46.52 81.18 47.18 81.36 47.54 81.66C47.9 82.02 48.08 82.5 48.08 83.16C48.08 83.34 47.96 84.12 47.84 85.56C47.72 86.82 47.6 87.72 47.48 88.32C47.24 89.64 46.28 90.3 44.6 90.3C43.76 90.3 42.44 90.36 40.76 90.36C39.08 90.36 37.76 90.36 36.92 90.36C34.88 90.36 33.14 90.36 31.64 90.24C28.4 90.18 26.12 89.4 24.8 87.9C24.26 87.42 23.84 86.52 23.48 85.32C22.7 82.92 22.34 80.04 22.34 76.8V76.02V75.18C22.34 75.12 22.34 74.76 22.34 74.16C22.34 73.56 22.4 73.02 22.4 72.54C22.4 72.06 22.34 71.76 22.34 71.52Z" fill="white"/>
<rect x="90.5" y="30.5" width="90" height="120" fill="#FF961E"/>
<rect x="90.5" y="30.5" width="90" height="120" stroke="black"/>
<path d="M157.1 83.1V89.04C157.1 89.7 156.98 90.9 156.86 92.58C156.74 93.54 156.14 94.08 155.18 94.08C153.02 94.14 151.22 94.14 149.66 94.02C148.76 94.02 147.98 93.66 147.38 93.06C146.78 92.46 146.42 91.74 146.42 90.9C146.36 87.96 146.36 84.24 146.42 79.74C146.42 79.08 146.48 77.52 146.54 75.12C146.6 72.72 146.66 71.04 146.72 70.14C146.72 68.94 147.14 68.16 147.98 67.68C148.16 67.56 148.52 67.38 149.06 67.08C149.6 66.84 150.02 66.6 150.32 66.48C150.56 66.36 150.92 66.24 151.4 66.06C151.88 65.88 152.3 65.76 152.72 65.7C153.14 65.64 153.56 65.64 154.04 65.64C154.76 65.7 155.3 65.76 155.66 65.88C156.5 66.24 156.92 66.84 156.92 67.74C156.92 69.42 157.04 71.58 157.34 74.1C157.4 74.58 157.76 74.88 158.48 74.94C161.36 75.18 162.98 75.3 163.34 75.36C164.18 75.6 164.72 76.26 164.84 77.46C165.02 79.26 164.72 80.88 163.88 82.26C163.64 82.68 162.92 82.98 161.84 83.1H157.1ZM127.28 97.38C122.78 97.5 118.7 96.54 114.98 94.38C112.7 93.12 111.14 91.02 110.42 88.02C109.46 84.42 109.34 81.54 110.06 79.26C110.42 78.06 111.02 76.92 111.8 75.84C113.3 73.8 114.62 72.24 115.76 71.16C117.44 69.6 119.66 69 122.3 69.3C125.72 69.78 129.38 71.16 133.22 73.44C135.38 74.76 136.7 76.68 137.18 79.32C137.84 83.52 137.9 86.94 137.3 89.52C136.7 92.1 135.56 94.08 133.82 95.52C132.08 96.96 129.92 97.62 127.28 97.38ZM120.74 84.54C121.46 86.94 121.94 88.32 122.12 88.56C122.24 88.8 122.42 89.1 122.72 89.34C123.02 89.58 123.26 89.7 123.5 89.64C124.82 89.52 125.96 89.22 126.86 88.62C127.7 88.02 128.3 87.24 128.54 86.22C128.78 85.2 128.54 84 127.82 82.56C126.74 80.4 125.06 79.68 122.78 80.34C121.46 80.76 120.8 82.14 120.74 84.54ZM147.92 98.46C148.04 98.34 148.28 98.22 148.52 98.16C148.76 98.16 149 98.16 149.24 98.28C149.48 98.4 149.72 98.46 149.96 98.58C150.14 98.7 150.38 98.82 150.62 98.94C150.86 99.12 151.04 99.24 151.1 99.24C151.34 99.42 152.48 100.08 154.4 101.28C154.88 101.58 155.12 102 155.12 102.54C155.12 102.78 155.06 102.96 155 103.14C154.76 103.62 154.34 104.28 153.62 105.06C152.9 105.9 152.42 106.5 152.24 106.98C153.92 108.06 155.36 109.08 156.68 110.04C157.16 110.46 157.7 111 158.42 111.66C159.14 112.38 159.62 112.92 159.86 113.34C159.92 113.46 159.98 113.52 160.1 113.64C160.22 113.76 160.28 113.88 160.34 113.94C160.4 114 160.46 114.06 160.46 114.12C160.46 114.3 160.34 114.54 160.22 114.78C160.04 115.08 159.98 115.26 159.98 115.26C159.8 115.62 159.62 115.92 159.44 116.16C158.72 117 158 117.72 157.22 118.32C157.1 118.44 156.92 118.62 156.68 118.98C156.38 119.34 156.14 119.52 155.9 119.52C155.3 119.52 154.52 119.16 153.44 118.38C151.94 117.3 150.5 116.16 149.06 115.02C146.78 118.08 145.22 120.18 144.38 121.32C143.66 122.22 142.82 122.64 141.98 122.64C141.38 122.64 140.78 122.46 140.06 121.98C139.1 121.38 137.84 120.66 136.28 119.7C136.22 119.82 136.22 119.88 136.22 119.88C135.56 121.32 134.6 122.04 133.4 122.04C132.86 122.04 132.32 121.92 131.84 121.56C131.36 121.26 130.64 120.72 129.68 120C128.72 119.28 128.06 118.8 127.58 118.44C126.14 117.54 124.58 116.58 122.9 115.62C122.66 115.5 122.24 115.38 121.7 115.2C121.16 115.86 120.74 116.34 120.5 116.7C120.26 117 119.78 117.66 119.06 118.68C118.34 119.76 117.74 120.54 117.32 121.08C117.08 121.44 116.6 121.86 115.94 122.34C115.34 122.82 114.8 123 114.2 123C113.6 123 113.06 122.82 112.58 122.34C112.4 122.28 111.92 122.1 111.08 121.74C110.24 121.38 109.76 121.14 109.64 121.02C109.04 120.78 108.62 120.48 108.38 120.18C107.96 119.7 107.78 119.16 107.78 118.56C107.78 118.2 107.84 117.84 108.08 117.42C108.2 117.06 108.38 116.7 108.74 116.22C110.42 113.76 111.8 111.84 112.76 110.4C114.5 107.88 115.82 105.96 116.72 104.7C117.62 103.44 118.52 102.24 119.48 101.16C119.54 101.1 119.66 100.98 119.78 100.8C119.9 100.68 120.02 100.56 120.08 100.5C120.08 100.44 120.14 100.32 120.26 100.2C120.38 100.08 120.44 100.02 120.5 100.02C120.5 100.02 120.56 99.96 120.68 99.84C120.8 99.78 120.86 99.72 120.92 99.72C120.92 99.72 120.98 99.72 121.1 99.66C121.22 99.66 121.28 99.6 121.4 99.6H121.7C121.82 99.6 122 99.66 122.24 99.72C122.42 99.84 122.6 99.9 122.78 100.02C122.9 100.14 123.08 100.26 123.32 100.38C123.56 100.5 123.68 100.62 123.8 100.62C125.06 101.4 125.9 101.94 126.26 102.3C126.86 103.02 127.22 103.74 127.22 104.52C127.22 105.06 127.1 105.54 126.86 106.02C126.68 106.38 126.5 106.8 126.32 107.34C126.92 107.64 128.12 108.24 129.98 109.14C130.64 109.5 131.72 110.1 133.16 110.82C134.6 111.6 135.74 112.14 136.52 112.5C137.24 111.54 138.32 110.1 139.88 108.12C142.64 104.58 145.28 101.34 147.92 98.46Z" fill="white"/>
<rect x="180.5" y="30.5" width="90" height="120" fill="#FF961E"/>
<rect x="180.5" y="30.5" width="90" height="120" stroke="black"/>
<path d="M227 97.5C222.08 97.74 219.44 97.86 218.96 97.86C209.24 97.86 203.78 97.74 202.46 97.38C201.26 97.08 200.6 96.48 200.42 95.64C200.24 94.8 200.36 93.54 200.84 91.86C201.02 91.62 201.14 91.32 201.2 90.84C201.26 90.42 201.44 90.12 201.74 89.88C201.86 89.76 202.16 89.64 202.58 89.64H212.66C218.84 89.64 222.2 89.64 222.74 89.58C223.04 89.58 223.82 89.7 225.14 89.82C226.46 89.94 227.18 90 227.36 90C227.72 90.06 231.02 90.12 237.14 90.24C243.26 90.36 246.8 90.42 247.76 90.48C247.94 90.54 248.18 90.72 248.42 90.96C248.66 91.2 248.84 91.44 248.9 91.62C249.14 93.18 249.14 94.38 248.9 95.22C248.54 96.54 247.4 97.26 245.48 97.38C244.88 97.44 241.76 97.5 236.18 97.5C230.54 97.56 227.48 97.62 227 97.62V97.5ZM224.96 66.54C228.8 66.78 230.72 66.9 230.78 66.9C236.3 67.44 240.56 69.6 243.62 73.32C243.98 73.86 244.28 74.64 244.46 75.66C244.7 77.58 244.28 79.74 243.32 82.2C242.24 84.96 240.2 86.64 237.08 87.24C234.8 87.72 232.4 87.9 229.82 87.9C229.1 87.9 227.78 87.96 225.8 88.02C223.82 88.14 222.32 88.14 221.24 88.08C217.28 87.9 213.86 87.18 211.1 85.98C207.74 84.6 206.24 82.26 206.6 78.96C206.9 76.26 208.34 73.68 210.86 71.16C212.84 69.18 216.02 67.74 220.46 66.9C220.88 66.84 221.36 66.78 221.9 66.72C222.38 66.72 222.98 66.66 223.58 66.66C224.18 66.66 224.66 66.6 224.96 66.54ZM225.08 81.48C227.48 81.36 228.74 81.24 228.92 81.24C229.64 81.18 230.42 80.88 231.14 80.4C231.86 79.92 232.28 79.44 232.4 78.96C232.52 77.88 232.4 76.92 231.92 76.2C231.44 75.48 230.48 75 229.16 74.7C226.22 74.1 223.58 74.04 221.3 74.58C220.1 74.88 219.44 75.12 219.26 75.3C218.6 76.02 217.94 77.04 217.22 78.36C216.62 79.44 217.04 80.1 218.42 80.46C221.3 81.3 223.52 81.66 225.08 81.48ZM209.6 107.76C209.48 107.76 209.18 107.82 208.7 107.82C208.22 107.88 207.86 107.88 207.68 107.88C207.44 107.88 207.2 107.88 206.84 107.82C206.48 107.76 206.18 107.64 206.06 107.52C205.88 107.4 205.7 107.16 205.52 106.92C205.34 106.68 205.22 106.32 205.22 105.9C205.16 105.66 205.1 105.3 204.98 104.7C204.86 104.1 204.8 103.62 204.8 103.2C204.8 102.66 204.86 102.12 205.04 101.52C205.04 101.28 205.22 101.04 205.58 100.8C205.94 100.56 206.3 100.38 206.72 100.38C222.92 100.38 234.2 100.5 240.68 100.86C242 100.98 243.02 101.1 243.8 101.34C244.7 101.64 245.24 102.06 245.42 102.54C245.6 103.26 245.72 104.04 245.72 104.82C245.72 105.72 245.54 106.8 245.3 108.06C244.82 110.16 243.62 111.66 241.64 112.5C240.56 112.98 238.58 113.34 235.76 113.58C234.74 113.7 233.3 113.76 231.38 113.76C229.46 113.82 228.14 113.88 227.36 113.88C227.24 113.88 225.08 113.94 220.94 114C216.74 114.06 214.46 114.12 214.04 114.24L214.1 115.68C214.82 115.68 217.52 115.68 222.2 115.62C226.88 115.56 229.64 115.5 230.36 115.5C231.98 115.5 233.42 115.5 234.68 115.44C235.52 115.44 236.84 115.38 238.58 115.26C240.26 115.14 241.52 115.08 242.36 115.08H242.48C243.56 115.08 244.16 115.44 244.16 116.16V116.46C243.8 118.14 243.5 119.46 243.26 120.3C242.96 121.14 242.48 121.74 241.82 122.1C241.16 122.46 240.08 122.58 238.52 122.58H237.8C236.24 122.58 234.02 122.46 231.2 122.28C228.38 122.1 226.4 121.98 225.26 121.92C223.46 121.86 221.9 121.86 220.52 121.92C219.14 121.98 217.58 121.98 215.9 121.92C214.22 121.86 212.72 121.68 211.4 121.44C209.6 121.08 208.34 120.48 207.62 119.64C206.9 118.8 206.48 117.72 206.24 116.28C206.18 116.04 206.18 115.38 206.18 114.36C206.18 114.3 206.18 113.88 206.24 113.1C206.24 111.96 206.6 111.18 207.2 110.7C207.8 110.28 208.82 110.04 210.38 109.98C216.14 109.86 223.76 109.62 233.3 109.26C234.5 109.26 235.1 108.84 235.1 108.12L235.04 107.82C235.04 107.64 235.04 107.46 235.04 107.28V106.92C235.04 106.86 234.74 106.8 234.14 106.8C233.54 106.8 232.46 106.8 230.9 106.86C229.34 106.92 227.72 106.98 225.98 107.04C224.24 107.16 221.78 107.28 218.66 107.4C215.54 107.52 212.48 107.64 209.6 107.76Z" fill="white"/>
<rect x="270.5" y="60.5" width="90" height="120" fill="#FF961E"/>
<rect x="270.5" y="60.5" width="90" height="120" stroke="black"/>
<path d="M331.1 149.22C329.18 149.22 327.86 148.92 327.14 148.2C326.42 147.48 326.06 146.16 325.94 144.18C325.64 138.6 325.52 134.76 325.52 132.66C325.52 129.72 325.7 120.42 326.12 104.82C326.12 104.4 326.18 103.92 326.3 103.44C326.36 102.96 326.42 102.54 326.54 102.18C326.6 101.82 326.72 101.4 326.9 100.8C327.02 100.2 327.14 99.78 327.26 99.42C327.38 98.94 327.62 98.58 328.04 98.46C328.16 98.46 328.58 98.34 329.24 98.16C329.9 97.98 330.38 97.86 330.62 97.8C330.86 97.74 331.22 97.68 331.82 97.56C332.36 97.44 332.78 97.44 333.14 97.44C333.5 97.44 333.92 97.5 334.4 97.62C334.88 97.74 335.3 97.86 335.78 98.04C336.92 98.64 337.58 99.72 337.7 101.28C337.7 102 337.76 104.4 337.82 108.54C337.82 112.68 337.94 115.26 338.06 116.28C338.18 117 338.6 117.78 339.32 118.56C339.68 118.98 340.04 119.4 340.46 119.82C340.88 120.3 341.36 120.78 341.9 121.26C342.38 121.8 342.8 122.22 343.16 122.46C343.64 122.94 343.94 123.48 344.18 124.02C344.42 124.62 344.48 125.28 344.42 126C344.36 126.72 344.3 127.26 344.24 127.62C344.12 127.98 344 128.64 343.76 129.48C343.4 130.92 342.14 131.7 339.98 131.7C338.84 131.7 338.12 131.88 337.88 132.18C337.58 132.54 337.46 133.32 337.52 134.64C337.52 135.54 337.52 137.16 337.58 139.44C337.64 141.72 337.7 143.28 337.7 144.06C337.7 145.68 337.28 146.76 336.32 147.3C333.92 148.62 332.18 149.28 331.1 149.22ZM288.98 104.4C289.58 104.28 290.18 104.16 290.9 104.16C291.56 104.16 292.1 104.16 292.58 104.16C293.06 104.22 293.66 104.28 294.5 104.4C295.34 104.52 295.94 104.64 296.42 104.64C297.5 104.76 299 104.82 300.92 104.7C302.12 104.7 302.9 104.88 303.38 105.3C303.74 105.66 303.98 106.26 304.1 107.22C304.34 109.5 304.34 112.86 304.04 117.36C303.62 123.96 303.14 128.82 302.6 132.06C302.12 134.46 301.88 136.08 301.88 136.8C301.88 137.28 301.7 138.24 301.4 139.68C301.04 141.18 300.86 142.02 300.86 142.2C300.68 143.46 300.26 144.36 299.54 144.9C298.82 145.5 297.98 145.8 296.96 145.8C295.88 145.8 294.74 145.74 293.42 145.62C293.3 145.62 293.24 145.62 293.18 145.56C292.82 145.44 292.76 145.08 292.94 144.48C293.48 142.56 294.38 137.58 295.64 129.54C296.84 121.5 297.44 115.92 297.32 112.8C297.26 112.44 297.2 112.14 297.14 111.96C296.96 111.66 296.54 111.36 295.88 111.12C295.46 111 294.38 110.94 292.58 111C290.78 111.12 289.64 111.06 289.28 110.94C288.92 110.82 288.68 110.7 288.56 110.58C288.2 110.34 288.08 109.8 288.08 108.96V105.78C288.08 105.6 288.14 105.36 288.26 105.12C288.38 104.88 288.56 104.7 288.74 104.58L288.98 104.4ZM305.6 105.06C307.64 104.76 309.68 104.58 311.78 104.58C312.92 104.58 314.12 104.64 315.38 104.76C316.76 104.88 317.72 105.24 318.26 105.84C318.56 106.2 318.86 106.74 319.1 107.58C319.34 108.6 319.52 109.62 319.58 110.58C319.58 111.54 319.58 112.86 319.46 114.54C319.34 116.22 319.28 117.18 319.28 117.54C319.22 119.22 319.16 122.1 319.1 126.06C319.04 130.02 318.98 133.5 318.86 136.44C318.74 139.38 318.5 142.02 318.14 144.36C318.08 144.72 317.66 144.9 316.82 144.96C315.98 145.02 315.5 145.14 315.32 145.32C314.9 145.74 314.42 145.98 313.82 145.98C313.22 145.98 312.5 145.92 311.66 145.8C310.82 145.68 310.22 145.56 309.86 145.56C309.8 145.08 309.92 144.06 310.16 142.62C310.52 140.7 310.7 138.42 310.7 135.84L310.64 127.14C310.58 124.74 310.52 122.88 310.52 121.62C310.46 121.14 310.52 120.3 310.7 119.1C310.88 117.9 311 116.94 311 116.22C311 115.5 310.88 114.78 310.64 113.94C310.4 113.58 310.28 113.4 310.16 113.28C310.04 113.16 309.8 113.1 309.44 113.04C309.08 112.98 308.78 112.92 308.66 112.8C307.34 112.44 306.32 112.2 305.66 112.2C305.48 112.2 305.3 112.08 305.12 111.72C304.94 111.42 304.88 111.18 304.94 110.94C305 110.28 304.94 109.32 304.82 108C304.7 106.74 304.64 105.78 304.7 105.18L305.6 105.06Z" fill="white"/>
</svg>
