<svg width="271" height="151" viewBox="0 0 271 151" fill="none" xmlns="http://www.w3.org/2000/svg">
<rect x="0.5" y="0.5" width="90" height="120" fill="#FF961E"/>
<rect x="0.5" y="0.5" width="90" height="120" stroke="black"/>
<path d="M34.52 68.88H26C23.84 68.88 22.4 68.7 21.68 68.22C20.96 67.74 20.36 66.54 20 64.62C19.88 64.2 19.7 63.36 19.46 62.16C19.16 60.96 18.92 59.94 18.8 59.1C18.68 58.26 18.62 57.48 18.68 56.64C18.92 51.72 19.94 47.4 21.8 43.8C22.16 43.08 22.52 42.54 22.94 42.06C23.36 41.58 23.84 41.28 24.44 41.04C24.98 40.8 25.46 40.68 25.88 40.56C26.3 40.5 26.96 40.44 27.8 40.32C28.04 40.32 28.88 40.2 30.2 40.08C31.52 39.96 32.3 39.9 32.6 39.9C32.9 39.9 33.74 39.84 35.06 39.72C36.38 39.6 37.22 39.6 37.52 39.6C37.76 39.66 38.6 39.66 39.92 39.66C40.64 39.72 41.36 39.9 42.08 40.14C42.8 40.38 43.76 40.8 44.84 41.28C45.92 41.76 46.64 42.06 47 42.18C47.18 42.3 47.3 42.72 47.36 43.44C47.36 43.92 47.42 44.34 47.54 44.82C47.6 45.3 47.66 45.66 47.66 45.78C47.66 45.96 47.6 46.38 47.54 47.1C47.42 47.58 47.18 48.06 46.7 48.54C46.22 49.02 45.74 49.38 45.26 49.56C42.62 50.7 39.68 51 36.32 50.4L34.52 49.98C33.44 49.74 32.66 49.62 32.12 49.62C31.52 49.68 30.92 49.86 30.32 50.1C29.72 50.4 29.3 50.76 29.12 51.12C28.94 51.42 28.82 52.08 28.76 53.16C28.7 54.24 28.7 55.5 28.76 56.94L28.82 59.16C28.82 59.28 28.88 59.34 29.06 59.46C29.18 59.58 29.36 59.64 29.54 59.64C32.9 59.76 34.94 59.76 35.66 59.7C36.38 59.64 37.1 59.52 37.94 59.4C38.72 59.28 39.62 59.16 40.64 58.98C41.66 58.8 42.44 58.68 42.98 58.56C43.16 58.56 43.46 58.5 43.88 58.5C44.24 58.56 44.66 58.56 45.08 58.56C45.5 58.56 45.92 58.56 46.28 58.56C46.64 58.62 46.88 58.68 46.94 58.8C47.06 59.1 47.12 59.46 47.12 59.94C47.12 60.42 47.06 60.84 47 61.14C46.88 61.44 46.76 61.8 46.64 62.28C46.52 62.76 46.4 63.18 46.4 63.42C46.28 63.84 46.28 64.08 46.28 64.2C46.28 64.32 46.22 64.44 46.16 64.56C46.1 64.68 46.04 64.8 46.04 64.8C46.04 64.8 45.98 64.92 45.86 65.1C45.74 65.34 45.68 65.58 45.56 65.82C45.32 66.3 45.02 66.72 44.72 67.02C44.36 67.38 44 67.62 43.52 67.8C43.04 67.98 42.68 68.1 42.38 68.16C42.02 68.22 41.54 68.28 40.88 68.34C40.16 68.46 39.68 68.52 39.38 68.52C39.14 68.58 37.52 68.76 34.52 69V68.88ZM50.54 51.3V45.24C50.54 44.76 50.48 43.98 50.48 43.02C50.42 42.06 50.42 41.34 50.42 40.86C50.36 40.08 50.48 39.48 50.78 39.12C51.02 38.76 51.5 38.58 52.22 38.52C54.14 38.46 55.76 38.82 57.08 39.6C57.86 40.08 58.22 40.86 58.16 41.82C58.04 43.2 57.86 45.6 57.74 48.96C57.68 50.16 57.62 52.8 57.5 56.88C57.38 60.96 57.26 64.02 57.14 66C57.14 66.42 56.9 68.22 56.48 71.4C56.36 72.36 55.88 72.84 55.1 72.78C54.86 72.78 54.56 72.78 54.2 72.84C53.84 72.96 53.6 72.96 53.48 72.96C52.04 73.08 51.02 72.78 50.42 72.06C49.82 71.4 49.46 70.2 49.46 68.52C49.4 66.24 49.46 63.3 49.64 59.58C49.64 59.22 49.58 58.98 49.46 58.8C49.34 58.68 49.1 58.62 48.8 58.62H48.68H48.62C47.54 58.62 46.76 58.26 46.34 57.66C45.92 57.06 45.8 56.16 45.98 54.84C46.04 53.94 46.22 53.22 46.46 52.74C46.7 52.26 47.12 51.9 47.66 51.78C47.84 51.72 48.8 51.54 50.54 51.3ZM70.7 45C69.8 52.2 69.32 55.86 69.32 55.98C69.08 57.42 68.48 61.92 67.46 69.48C67.34 70.68 66.5 71.58 65.06 72.3C63.56 73.02 62.06 73.2 60.62 72.78C60.02 72.66 59.66 72.24 59.48 71.64C58.88 69.66 58.7 67.62 59.06 65.52C59.18 65.1 59.18 64.02 59.18 62.34C59.12 60.66 59.12 59.64 59.18 59.16C59.24 58.2 59.42 56.46 59.66 54.06C59.9 51.66 60.08 49.8 60.2 48.48C60.2 47.88 60.2 46.92 60.08 45.6C59.96 44.28 59.9 43.32 59.96 42.66C59.96 42.42 60.02 42.06 60.14 41.7C60.26 41.34 60.32 41.1 60.44 40.86L60.98 39.84L61.4 39C61.46 38.88 61.88 38.76 62.72 38.7C65.12 38.58 66.68 38.52 67.52 38.52C67.82 38.58 68.18 38.7 68.54 38.94C68.9 39.18 69.08 39.36 69.2 39.54C69.38 40.14 69.86 41.94 70.7 45ZM42.44 80.58C50.6 80.1 55.22 79.86 56.24 79.74C57.26 79.68 58.46 79.56 59.9 79.44C61.34 79.32 62.54 79.2 63.5 79.08C64.46 78.96 65.3 78.9 65.9 78.9C66.68 78.9 67.28 79.92 67.64 81.84C67.7 82.26 67.76 83.1 67.76 84.3C67.76 85.68 67.4 87.06 66.68 88.5C66.44 88.92 65.9 89.22 65.06 89.34C64.22 89.46 61.4 89.64 56.6 89.88C51.8 90.12 48.98 90.3 48.08 90.42C47.84 90.48 47.66 90.48 47.42 90.48C46.4 90.48 44.24 90.54 40.94 90.6C37.64 90.66 35.24 90.72 33.74 90.78C33.38 90.78 32.72 90.84 31.88 90.9C31.04 90.96 30.38 90.96 29.96 90.96C28.58 90.96 27.44 90.72 26.6 90.18C26.3 90.06 26.06 89.76 25.82 89.4C25.58 89.04 25.52 88.74 25.52 88.38C25.34 86.64 25.22 84.18 25.1 80.94C24.98 77.7 24.86 75.48 24.8 74.22L24.74 73.38C24.74 72.78 24.74 72.24 24.74 71.64L24.68 70.8C24.8 70.8 25.1 70.74 25.64 70.62C26.18 70.5 26.54 70.38 26.72 70.32C27.14 70.26 28.1 70.2 29.6 70.2C31.34 70.2 32.42 70.32 32.9 70.44C33.38 70.62 33.62 70.92 33.62 71.34C33.62 71.52 33.68 71.94 33.8 72.54C33.92 73.14 34.04 73.56 34.04 73.74C34.04 74.4 34.16 75.6 34.52 77.4C34.52 77.64 34.58 78.18 34.7 78.96C34.76 79.74 34.88 80.4 35.06 81L42.44 80.58Z" fill="white"/>
<rect x="90.5" y="0.5" width="90" height="120" fill="#FF961E"/>
<rect x="90.5" y="0.5" width="90" height="120" stroke="black"/>
<path d="M147.14 37.62C149.42 37.5 150.68 37.44 150.8 37.44C152.12 37.5 153.38 37.62 154.7 37.8C156.02 37.98 157.16 38.1 158.18 38.16C159.32 38.28 159.92 38.94 159.98 40.08C159.98 41.52 160.1 43.74 160.28 46.68C160.46 49.68 160.58 51.9 160.64 53.4C160.7 54.54 160.7 56.58 160.7 59.46C160.7 62.4 160.7 64.44 160.7 65.52C160.7 67.14 160.7 70.44 160.7 75.48C160.7 80.52 160.7 83.88 160.7 85.5V85.62C160.7 86.46 160.58 87.3 160.34 88.02C159.8 89.52 158.84 90.24 157.46 90.18C156.8 90.18 156.02 90.24 155.18 90.24C154.34 90.24 153.62 90.24 153.02 90.12C152.54 90.12 152 89.94 151.52 89.64C150.98 89.4 150.62 89.04 150.5 88.68C149.3 85.8 148.7 83.58 148.64 82.02C148.46 78.54 148.34 72.6 148.28 64.32C148.22 56.04 148.16 50.4 148.04 47.34C148.04 46.38 147.98 45.42 147.86 44.34C147.74 43.26 147.62 42.06 147.5 40.68L147.14 37.62ZM114.56 43.74C120.32 44.16 123.5 44.4 124.1 44.4C126.74 44.64 128.78 44.82 130.22 44.94C131 45.06 131.72 45.54 132.32 46.38C132.92 47.22 133.22 48.12 133.1 49.02C132.98 50.04 132.56 51.96 131.72 54.84C131.48 55.44 131.18 56.28 130.82 57.48C130.4 58.68 130.1 59.64 129.98 60.24C129.68 61.2 129.62 61.92 129.86 62.52C129.98 63 130.46 63.36 131.3 63.54C132.38 63.84 134.78 64.38 138.38 65.16C139.52 65.4 139.88 66.12 139.52 67.32C139.4 67.68 139.1 68.7 138.68 70.26C138.2 71.82 137.84 73.02 137.54 73.8C136.64 75.96 135.32 76.92 133.52 76.8C133.28 76.8 133.16 76.86 133.1 76.86C132.62 77.1 132.14 77.22 131.72 77.22C131.24 77.22 130.88 77.22 130.64 77.16C130.34 77.1 129.98 76.92 129.56 76.56C129.08 76.2 128.84 75.96 128.72 75.84C128.6 75.72 128.3 75.36 127.82 74.82C126.62 73.62 125.96 72.9 125.78 72.66C125.3 72.3 124.82 72.12 124.34 72.12C123.8 72.12 123.32 72.36 122.9 72.78C122 73.68 121.22 74.64 120.56 75.66C120.32 75.96 119.36 77.58 117.62 80.52C116.96 81.6 116 82.26 114.68 82.62C113.36 82.98 112.04 82.98 110.72 82.56C109.4 82.2 108.5 81.48 107.96 80.46C107.12 79.02 106.82 77.04 107.06 74.52C107.12 73.8 107.6 73.08 108.44 72.48C109.4 71.76 110.78 70.8 112.64 69.54C114.44 68.28 115.82 67.32 116.66 66.66C117.98 65.7 119.06 64.74 119.9 63.78C120.74 62.82 121.28 61.62 121.64 60.24C121.88 59.16 121.7 58.32 121.16 57.66C120.56 57.06 119.72 56.76 118.58 56.82C114.98 57.12 112.1 56.34 110.06 54.54C109.34 53.94 108.92 53.16 108.92 52.26C108.8 51.42 108.86 49.56 109.1 46.74C109.1 46.56 109.16 46.32 109.4 46.08C109.58 45.84 109.7 45.6 109.76 45.42C109.82 45.24 109.76 44.94 109.58 44.58L110 44.28C110.18 44.16 110.36 44.1 110.48 44.04C110.6 43.98 110.78 43.92 110.9 43.92C111.14 43.92 112.4 43.86 114.56 43.86V43.74Z" fill="white"/>
<rect x="180.5" y="30.5" width="90" height="120" fill="#FF961E"/>
<rect x="180.5" y="30.5" width="90" height="120" stroke="black"/>
<path d="M248.72 75.6C250.76 75.6 251.96 75.66 252.26 75.66C252.44 75.66 252.68 75.78 252.92 76.02C253.16 76.26 253.28 76.44 253.34 76.56C253.4 79.8 253.4 82.2 253.28 83.7C253.16 84.3 252.98 84.72 252.62 85.08C252.26 85.44 251.9 85.74 251.6 85.86C251.24 85.98 250.76 86.16 250.16 86.28C249.86 86.4 249.38 86.52 248.72 86.64C248 86.82 247.46 87 246.98 87.12C246.5 87.24 246.02 87.42 245.6 87.6C245.36 87.72 245.12 88.08 244.94 88.56C244.76 89.04 244.7 89.52 244.7 89.88C244.7 91.5 244.88 94.2 245.24 97.92C245.3 98.94 245.78 99.48 246.68 99.54C247.28 99.66 248.24 99.78 249.5 99.96C250.76 100.2 251.72 100.32 252.38 100.32C253.7 100.5 254.3 101.16 254.18 102.36C254.18 102.54 254.12 103.02 254.06 103.86C254 104.7 253.94 105.3 253.94 105.66C253.88 106.02 253.76 106.44 253.64 107.04C253.52 107.64 253.34 108.12 253.22 108.54C253.04 108.9 252.8 109.14 252.44 109.38C252.08 109.62 251.6 109.92 250.94 110.16C250.28 110.46 249.86 110.64 249.74 110.7C249.5 110.82 249.2 110.94 248.78 110.94C248.36 111 248.12 111.06 248 111.06C246.56 111.54 245.96 112.56 246.08 114.12C246.2 116.22 246.02 117.6 245.66 118.26C245.3 118.98 244.28 119.64 242.6 120.24C242.06 120.48 241.52 120.66 240.92 120.78C240.32 120.9 239.6 121.08 238.64 121.2C237.68 121.32 237.14 121.44 236.9 121.44C235.94 121.62 235.46 121.14 235.34 120C235.28 119.64 235.1 118.02 234.74 115.14C234.38 112.26 234.14 110.1 234.02 108.54C233.6 102.72 233.3 96.84 233.18 90.96C233.12 89.52 233.18 85.26 233.36 78.3C233.36 76.62 233.48 74.46 233.66 71.82C233.66 71.28 233.84 70.8 234.08 70.32C234.32 69.9 234.68 69.42 235.16 68.94C235.58 68.46 235.88 68.04 236.06 67.8C236.06 67.8 236.3 67.74 236.72 67.74C240.02 67.68 241.76 67.62 242 67.62C242.78 67.5 243.32 67.56 243.62 67.8C243.86 68.04 244.04 68.58 244.04 69.42C244.1 71.16 244.1 72.72 244.1 74.16C244.04 74.7 244.1 75.06 244.34 75.3C244.52 75.54 244.88 75.6 245.36 75.54H248.72V75.6ZM214.7 117.96C209.48 117.9 205.16 116.1 201.68 112.5C200.48 111.3 199.64 109.26 199.28 106.38C198.68 102.42 198.38 98.88 198.44 95.82C198.44 90.54 199.58 85.44 201.86 80.52C202.04 80.1 202.22 79.8 202.4 79.62C205.52 76.5 207.5 74.58 208.34 73.86C208.52 73.68 208.76 73.56 209.06 73.44C209.3 73.38 209.66 73.32 210.14 73.26C210.56 73.2 210.86 73.14 211.04 73.14C213.74 72.54 216.32 72.72 218.72 73.68C221.12 74.64 223.64 76.2 226.16 78.24C227.18 79.2 228.02 80.04 228.62 80.82C229.22 81.6 229.64 82.5 229.88 83.52C230.36 86.1 230.54 88.26 230.36 89.94C230 94.02 229.34 98.46 228.5 103.32C227.48 109.02 224.84 113.22 220.52 115.86C217.88 117.54 215.9 118.2 214.7 117.96ZM221.24 92.94C221.18 92.82 221.12 92.46 221.06 91.98C220.94 91.5 220.88 91.14 220.82 90.9C220.76 90.72 220.7 90.42 220.58 90.06C220.46 89.7 220.34 89.4 220.16 89.1C219.98 88.86 219.8 88.56 219.56 88.32C218.12 86.82 216.56 86.22 214.88 86.52C213.14 86.88 211.94 88.02 211.22 90C210.32 92.28 210.08 94.32 210.44 96.12C210.56 96.84 210.68 97.98 210.86 99.48C211.04 101.04 211.22 102.18 211.4 102.96C211.58 103.86 212.12 104.64 213.08 105.3C213.98 105.96 214.88 106.26 215.84 106.26C216.5 106.26 217.16 106.02 217.88 105.48C218.54 105 218.96 104.34 219.14 103.5C219.26 102.84 219.98 99.3 221.24 92.94Z" fill="white"/>
</svg>
