<svg width="451" height="151" viewBox="0 0 451 151" fill="none" xmlns="http://www.w3.org/2000/svg">
<rect x="0.5" y="0.5" width="90" height="120" fill="#FF961E"/>
<rect x="0.5" y="0.5" width="90" height="120" stroke="black"/>
<path d="M69.8 37.14C69.98 40.62 70.1 42.36 70.16 42.48C70.52 45.48 70.4 49.8 69.92 55.44C69.8 56.4 69.68 57.78 69.44 59.52C69.2 61.26 69.08 62.4 69.08 63C68.96 63.96 68.42 64.44 67.46 64.44C66.98 64.44 65.66 64.38 63.38 64.38C61.1 64.38 59.6 64.38 58.94 64.38C58.22 64.38 57.8 63.84 57.62 62.76C57.5 62.52 57.44 62.22 57.44 61.86C57.38 61.56 57.32 61.26 57.32 61.02C57.32 60.78 57.26 60.48 57.26 60.12C57.26 59.76 57.26 59.46 57.26 59.22C57.26 59.04 57.26 58.74 57.26 58.32C57.26 57.9 57.32 57.6 57.32 57.48C57.32 57.36 57.32 57 57.38 56.52C57.38 56.04 57.44 55.8 57.44 55.68C57.44 55.62 57.5 55.32 57.56 54.78C57.56 54.24 57.62 53.94 57.62 53.88C57.74 52.68 57.8 50.04 57.92 45.96V42.78V39.54C57.92 38.94 58.28 38.46 59 38.1C60.56 37.44 63.98 37.08 69.32 36.96C69.32 36.96 69.5 37.02 69.8 37.14ZM29.6 77.34C29.48 77.34 29.18 77.4 28.7 77.4C28.22 77.46 27.86 77.46 27.68 77.46C27.44 77.46 27.2 77.46 26.84 77.4C26.48 77.34 26.18 77.22 26.06 77.1C25.88 76.98 25.7 76.74 25.52 76.44C25.34 76.14 25.22 75.78 25.22 75.3C25.16 75.06 25.1 74.58 24.98 73.92C24.86 73.32 24.8 72.78 24.8 72.3C24.8 71.7 24.86 71.04 25.04 70.44C25.04 70.2 25.22 69.9 25.58 69.6C25.94 69.36 26.3 69.18 26.72 69.18C32 69.18 37.4 69.18 42.92 69.24C42.68 69.12 42.44 68.88 42.14 68.58C41.78 68.34 41.6 68.16 41.54 68.1C40.28 67.26 39.02 66.12 37.76 64.68C37.4 64.32 36.8 63.72 35.96 62.94C35.12 62.22 34.46 61.56 33.98 60.96C33.74 60.72 33.56 60.48 33.44 60.36C33.32 60.24 33.14 60.24 33.02 60.24C32.84 60.24 32.72 60.3 32.72 60.3C32.66 60.3 32.54 60.48 32.36 60.72C32.12 60.96 32 61.14 31.88 61.26C31.22 61.98 30.2 63 28.88 64.32C27.5 65.7 26.48 66.72 25.88 67.38C25.28 67.98 24.8 68.28 24.32 68.28C23.84 68.28 23.3 67.92 22.82 67.32C22.04 66.48 21.2 65.82 20.24 65.28C19.64 64.98 19.16 64.68 18.92 64.38C18.62 64.14 18.44 63.72 18.38 63.24C18.32 62.76 18.5 62.28 18.98 61.68C19.22 61.32 19.58 60.72 20.06 59.82C20.54 58.92 20.96 58.26 21.32 57.78C22.28 56.46 23.42 55.26 24.62 54.18C26.54 52.44 27.56 50.04 27.74 47.04C27.8 45.84 27.74 44.34 27.62 42.54C27.44 40.74 27.26 39.9 27.02 39.9C27.02 39.42 27.08 39.18 27.14 39.18C27.74 38.88 28.16 38.64 28.46 38.52C28.7 38.4 29.12 38.22 29.72 37.98C30.26 37.74 30.74 37.62 31.1 37.56C31.46 37.5 31.94 37.44 32.48 37.44C33.02 37.44 33.56 37.5 34.04 37.62C34.52 37.74 35.18 37.92 36.14 38.1C37.1 38.34 37.76 38.46 38.24 38.58C39.5 38.94 40.04 39.78 39.92 41.1C39.8 42.54 39.56 44.16 39.26 46.08C38.96 48 38.78 49.56 38.66 50.82C38.66 50.94 38.48 51.78 38.24 53.4C39.02 54.06 40.46 55.02 42.62 56.22C44.72 57.42 45.86 58.08 46.04 58.2C47 58.8 47.72 59.34 48.26 59.76C48.74 60.18 49.22 60.66 49.58 61.26C49.94 61.86 50.12 62.52 50 63.18C49.88 63.9 49.46 64.68 48.86 65.52C47.48 67.44 46.34 68.7 45.38 69.24C52.7 69.36 57.8 69.54 60.68 69.72C62 69.84 63.02 69.96 63.8 70.2C64.7 70.56 65.24 70.98 65.42 71.52C65.6 72.36 65.72 73.2 65.72 74.04C65.72 75.06 65.54 76.26 65.3 77.64C64.82 79.98 63.62 81.66 61.64 82.62C60.56 83.16 58.58 83.58 55.76 83.82C54.74 83.94 53.3 84 51.38 84C49.46 84.06 48.14 84.12 47.36 84.18C47.24 84.18 45.08 84.24 40.94 84.3C36.74 84.36 34.46 84.42 34.04 84.54L34.1 86.16C34.82 86.16 37.52 86.16 42.2 86.04C46.88 85.98 49.64 85.92 50.36 85.92C51.98 85.92 53.42 85.92 54.68 85.86C55.52 85.86 56.84 85.8 58.58 85.68C60.26 85.56 61.52 85.5 62.36 85.44H62.48C63.56 85.44 64.16 85.86 64.16 86.7V87C63.8 88.86 63.5 90.3 63.26 91.26C62.96 92.22 62.48 92.88 61.82 93.24C61.16 93.6 60.08 93.78 58.52 93.78H57.8C56.24 93.78 54.02 93.66 51.2 93.48C48.38 93.3 46.4 93.18 45.26 93.06C43.46 93 41.9 93 40.52 93.06C39.14 93.18 37.58 93.18 35.9 93.06C34.22 93 32.72 92.82 31.4 92.52C29.6 92.16 28.34 91.56 27.62 90.6C26.9 89.64 26.48 88.38 26.24 86.76C26.18 86.52 26.18 85.86 26.18 84.66C26.18 84.6 26.18 84.12 26.24 83.28C26.24 82.02 26.6 81.12 27.2 80.64C27.8 80.16 28.82 79.92 30.38 79.86C36.14 79.74 43.76 79.44 53.3 79.02C54.5 79.02 55.1 78.6 55.1 77.76V77.46C55.04 77.22 55.04 76.98 55.04 76.74V76.44C55.04 76.32 54.74 76.26 54.14 76.26C53.54 76.26 52.46 76.26 50.9 76.32C49.34 76.38 47.72 76.44 45.98 76.56C44.24 76.68 41.78 76.8 38.66 76.92C35.54 77.1 32.48 77.22 29.6 77.34Z" fill="white"/>
<rect x="90.5" y="0.5" width="90" height="120" fill="#FF961E"/>
<rect x="90.5" y="0.5" width="90" height="120" stroke="black"/>
<path d="M137 67.5C132.08 67.74 129.44 67.86 128.96 67.86C119.24 67.86 113.78 67.74 112.46 67.38C111.26 67.08 110.6 66.48 110.42 65.64C110.24 64.8 110.36 63.54 110.84 61.86C111.02 61.62 111.14 61.32 111.2 60.84C111.26 60.42 111.44 60.12 111.74 59.88C111.86 59.76 112.16 59.64 112.58 59.64H122.66C128.84 59.64 132.2 59.64 132.74 59.58C133.04 59.58 133.82 59.7 135.14 59.82C136.46 59.94 137.18 60 137.36 60C137.72 60.06 141.02 60.12 147.14 60.24C153.26 60.36 156.8 60.42 157.76 60.48C157.94 60.54 158.18 60.72 158.42 60.96C158.66 61.2 158.84 61.44 158.9 61.62C159.14 63.18 159.14 64.38 158.9 65.22C158.54 66.54 157.4 67.26 155.48 67.38C154.88 67.44 151.76 67.5 146.18 67.5C140.54 67.56 137.48 67.62 137 67.62V67.5ZM134.96 36.54C138.8 36.78 140.72 36.9 140.78 36.9C146.3 37.44 150.56 39.6 153.62 43.32C153.98 43.86 154.28 44.64 154.46 45.66C154.7 47.58 154.28 49.74 153.32 52.2C152.24 54.96 150.2 56.64 147.08 57.24C144.8 57.72 142.4 57.9 139.82 57.9C139.1 57.9 137.78 57.96 135.8 58.02C133.82 58.14 132.32 58.14 131.24 58.08C127.28 57.9 123.86 57.18 121.1 55.98C117.74 54.6 116.24 52.26 116.6 48.96C116.9 46.26 118.34 43.68 120.86 41.16C122.84 39.18 126.02 37.74 130.46 36.9C130.88 36.84 131.36 36.78 131.9 36.72C132.38 36.72 132.98 36.66 133.58 36.66C134.18 36.66 134.66 36.6 134.96 36.54ZM135.08 51.48C137.48 51.36 138.74 51.24 138.92 51.24C139.64 51.18 140.42 50.88 141.14 50.4C141.86 49.92 142.28 49.44 142.4 48.96C142.52 47.88 142.4 46.92 141.92 46.2C141.44 45.48 140.48 45 139.16 44.7C136.22 44.1 133.58 44.04 131.3 44.58C130.1 44.88 129.44 45.12 129.26 45.3C128.6 46.02 127.94 47.04 127.22 48.36C126.62 49.44 127.04 50.1 128.42 50.46C131.3 51.3 133.52 51.66 135.08 51.48ZM132.74 80.94H138.92H145.52C150.38 80.94 153.68 81 155.42 81C155.54 81 155.72 81.06 155.84 81.06C155.96 81.12 156.02 81.18 156.14 81.18C156.2 81.24 156.26 81.3 156.38 81.42L156.56 81.72C156.56 81.78 156.62 81.9 156.68 82.02C156.68 82.2 156.74 82.32 156.74 82.38C156.74 82.44 156.8 82.56 156.86 82.74C156.86 82.92 156.92 83.04 156.92 83.04C156.98 83.46 157.04 83.88 157.04 84.3C157.04 85.68 156.62 87.06 155.9 88.5C155.66 88.92 155.18 89.22 154.34 89.34C153.5 89.46 150.68 89.64 145.88 89.88C141.08 90.12 138.26 90.3 137.36 90.42C137.12 90.48 136.88 90.48 136.7 90.48C135.68 90.48 133.52 90.54 130.22 90.6C126.92 90.66 124.52 90.72 123.02 90.78C122.66 90.78 122 90.84 121.16 90.9C120.32 90.96 119.66 90.96 119.24 90.96C117.86 90.96 116.72 90.72 115.82 90.18C115.58 90.06 115.34 89.76 115.1 89.4C114.86 89.04 114.74 88.74 114.74 88.38C114.62 86.58 114.44 83.7 114.26 79.74C114.02 75.78 113.9 73.44 113.9 72.72H113.96C114.14 72.72 114.5 72.66 115.04 72.54C115.58 72.42 116 72.24 116.24 72.06C116.54 71.82 117.02 71.7 117.62 71.7C118.4 71.7 119.66 72 121.34 72.54C121.82 72.72 122.06 73.02 122.06 73.44C122.06 73.62 122 73.86 122 74.16C122 74.52 122 74.76 122 74.94V76.2V77.4V79.2V80.94H132.74Z" fill="white"/>
<rect x="180.5" y="0.5" width="90" height="120" fill="#FF961E"/>
<rect x="180.5" y="0.5" width="90" height="120" stroke="black"/>
<path d="M247.1 53.1V59.04C247.1 59.7 246.98 60.9 246.86 62.58C246.74 63.54 246.14 64.08 245.18 64.08C243.02 64.14 241.22 64.14 239.66 64.02C238.76 64.02 237.98 63.66 237.38 63.06C236.78 62.46 236.42 61.74 236.42 60.9C236.36 57.96 236.36 54.24 236.42 49.74C236.42 49.08 236.48 47.52 236.54 45.12C236.6 42.72 236.66 41.04 236.72 40.14C236.72 38.94 237.14 38.16 237.98 37.68C238.16 37.56 238.52 37.38 239.06 37.08C239.6 36.84 240.02 36.6 240.32 36.48C240.56 36.36 240.92 36.24 241.4 36.06C241.88 35.88 242.3 35.76 242.72 35.7C243.14 35.64 243.56 35.64 244.04 35.64C244.76 35.7 245.3 35.76 245.66 35.88C246.5 36.24 246.92 36.84 246.92 37.74C246.92 39.42 247.04 41.58 247.34 44.1C247.4 44.58 247.76 44.88 248.48 44.94C251.36 45.18 252.98 45.3 253.34 45.36C254.18 45.6 254.72 46.26 254.84 47.46C255.02 49.26 254.72 50.88 253.88 52.26C253.64 52.68 252.92 52.98 251.84 53.1H247.1ZM202.58 38.28C203.18 38.28 204.44 38.28 206.3 38.4C208.1 38.52 209.42 38.52 210.2 38.46C210.56 38.46 211.16 38.46 211.94 38.46C212.66 38.52 213.26 38.52 213.62 38.46C218.24 38.22 222.26 38.4 225.68 39.12C228.32 39.72 229.46 41.46 229.22 44.34C229.1 45.36 228.98 47.52 228.86 50.76C228.74 52.56 228.68 54 228.62 55.08C228.5 56.16 228.32 57.42 228.02 58.98C227.72 60.54 227.3 61.86 226.82 63.06C226.4 64.08 225.86 64.8 225.14 65.22C223.34 66.36 221.72 67.14 220.34 67.56C219.8 67.68 219.44 67.68 219.2 67.68C218.96 67.68 218.54 67.68 217.94 67.62C217.34 67.56 216.98 67.5 216.74 67.5C211.34 67.32 208.28 67.2 207.62 67.14C206.42 67.08 205.22 66.48 204.14 65.28C203 64.08 202.34 62.88 202.22 61.68C201.98 60.12 201.92 58.38 201.92 56.46C201.92 54.54 201.98 53.1 202.1 52.02C202.16 51 202.28 49.26 202.52 46.8C202.58 45.96 202.64 45.12 202.64 44.16C202.64 43.26 202.58 42.18 202.58 40.98C202.58 39.78 202.58 38.88 202.58 38.28ZM210.8 46.74V54.6C210.8 55.56 210.98 56.22 211.28 56.46C211.58 56.76 212.24 56.94 213.26 56.94C213.5 56.94 213.98 57 214.58 57C215.18 57 215.6 57 215.96 57C216.68 57 217.4 56.82 218 56.34C218.6 55.86 218.9 55.32 218.96 54.6C219.08 51.18 218.72 48.36 217.82 46.14L210.8 46.74ZM209.6 77.34C209.48 77.34 209.18 77.4 208.7 77.4C208.22 77.46 207.86 77.46 207.68 77.46C207.44 77.46 207.2 77.46 206.84 77.4C206.48 77.34 206.18 77.22 206.06 77.1C205.88 76.98 205.7 76.74 205.52 76.44C205.34 76.14 205.22 75.78 205.22 75.3C205.16 75.06 205.1 74.58 204.98 73.92C204.86 73.32 204.8 72.78 204.8 72.3C204.8 71.7 204.86 71.04 205.04 70.44C205.04 70.2 205.22 69.9 205.58 69.6C205.94 69.36 206.3 69.18 206.72 69.18C222.92 69.12 234.2 69.3 240.68 69.72C242 69.84 243.02 69.96 243.8 70.2C244.7 70.56 245.24 70.98 245.42 71.52C245.6 72.36 245.72 73.2 245.72 74.04C245.72 75.06 245.54 76.26 245.3 77.64C244.82 79.98 243.62 81.66 241.64 82.62C240.56 83.16 238.58 83.58 235.76 83.82C234.74 83.94 233.3 84 231.38 84C229.46 84.06 228.14 84.12 227.36 84.18C227.24 84.18 225.08 84.24 220.94 84.3C216.74 84.36 214.46 84.42 214.04 84.54L214.1 86.16C214.82 86.16 217.52 86.16 222.2 86.04C226.88 85.98 229.64 85.92 230.36 85.92C231.98 85.92 233.42 85.92 234.68 85.86C235.52 85.86 236.84 85.8 238.58 85.68C240.26 85.56 241.52 85.5 242.36 85.44H242.48C243.56 85.44 244.16 85.86 244.16 86.7V87C243.8 88.86 243.5 90.3 243.26 91.26C242.96 92.22 242.48 92.88 241.82 93.24C241.16 93.6 240.08 93.78 238.52 93.78H237.8C236.24 93.78 234.02 93.66 231.2 93.48C228.38 93.3 226.4 93.18 225.26 93.06C223.46 93 221.9 93 220.52 93.06C219.14 93.18 217.58 93.18 215.9 93.06C214.22 93 212.72 92.82 211.4 92.52C209.6 92.16 208.34 91.56 207.62 90.6C206.9 89.64 206.48 88.38 206.24 86.76C206.18 86.52 206.18 85.86 206.18 84.66C206.18 84.6 206.18 84.12 206.24 83.28C206.24 82.02 206.6 81.12 207.2 80.64C207.8 80.16 208.82 79.92 210.38 79.86C216.14 79.74 223.76 79.44 233.3 79.02C234.5 79.02 235.1 78.6 235.1 77.76V77.46C235.04 77.22 235.04 76.98 235.04 76.74V76.44C235.04 76.32 234.74 76.26 234.14 76.26C233.54 76.26 232.46 76.26 230.9 76.32C229.34 76.38 227.72 76.44 225.98 76.56C224.24 76.68 221.78 76.8 218.66 76.92C215.54 77.1 212.48 77.22 209.6 77.34Z" fill="white"/>
<rect x="270.5" y="0.5" width="90" height="120" fill="#FF961E"/>
<rect x="270.5" y="0.5" width="90" height="120" stroke="black"/>
<path d="M327.14 37.62C329.42 37.5 330.68 37.44 330.8 37.44C332.12 37.5 333.38 37.62 334.7 37.8C336.02 37.98 337.16 38.1 338.18 38.16C339.32 38.28 339.92 38.94 339.98 40.08C339.98 41.52 340.1 43.74 340.28 46.68C340.46 49.68 340.58 51.9 340.64 53.4C340.7 54.54 340.7 56.58 340.7 59.46C340.7 62.4 340.7 64.44 340.7 65.52C340.7 67.14 340.7 70.44 340.7 75.48C340.7 80.52 340.7 83.88 340.7 85.5V85.62C340.7 86.46 340.58 87.3 340.34 88.02C339.8 89.52 338.84 90.24 337.46 90.18C336.8 90.18 336.02 90.24 335.18 90.24C334.34 90.24 333.62 90.24 333.02 90.12C332.54 90.12 332 89.94 331.52 89.64C330.98 89.4 330.62 89.04 330.5 88.68C329.3 85.8 328.7 83.58 328.64 82.02C328.46 78.54 328.34 72.6 328.28 64.32C328.22 56.04 328.16 50.4 328.04 47.34C328.04 46.38 327.98 45.42 327.86 44.34C327.74 43.26 327.62 42.06 327.5 40.68L327.14 37.62ZM304.7 87.96C299.48 87.9 295.16 86.1 291.68 82.5C290.48 81.3 289.64 79.26 289.28 76.38C288.68 72.42 288.38 68.88 288.44 65.82C288.44 60.54 289.58 55.44 291.86 50.52C292.04 50.1 292.22 49.8 292.4 49.62C295.52 46.5 297.5 44.58 298.34 43.86C298.52 43.68 298.76 43.56 299.06 43.44C299.3 43.38 299.66 43.32 300.14 43.26C300.56 43.2 300.86 43.14 301.04 43.14C303.74 42.54 306.32 42.72 308.72 43.68C311.12 44.64 313.64 46.2 316.16 48.24C317.18 49.2 318.02 50.04 318.62 50.82C319.22 51.6 319.64 52.5 319.88 53.52C320.36 56.1 320.54 58.26 320.36 59.94C320 64.02 319.34 68.46 318.5 73.32C317.48 79.02 314.84 83.22 310.52 85.86C307.88 87.54 305.9 88.2 304.7 87.96ZM311.24 62.94C311.18 62.82 311.12 62.46 311.06 61.98C310.94 61.5 310.88 61.14 310.82 60.9C310.76 60.72 310.7 60.42 310.58 60.06C310.46 59.7 310.34 59.4 310.16 59.1C309.98 58.86 309.8 58.56 309.56 58.32C308.12 56.82 306.56 56.22 304.88 56.52C303.14 56.88 301.94 58.02 301.22 60C300.32 62.28 300.08 64.32 300.44 66.12C300.56 66.84 300.68 67.98 300.86 69.48C301.04 71.04 301.22 72.18 301.4 72.96C301.58 73.86 302.12 74.64 303.08 75.3C303.98 75.96 304.88 76.26 305.84 76.26C306.5 76.26 307.16 76.02 307.88 75.48C308.54 75 308.96 74.34 309.14 73.5C309.26 72.84 309.98 69.3 311.24 62.94Z" fill="white"/>
<rect x="360.5" y="30.5" width="90" height="120" fill="#FF961E"/>
<rect x="360.5" y="30.5" width="90" height="120" stroke="black"/>
<path d="M394.7 117.96C389.48 117.9 385.16 116.1 381.68 112.5C380.48 111.3 379.64 109.26 379.28 106.38C378.68 102.42 378.38 98.88 378.44 95.82C378.44 90.54 379.58 85.44 381.86 80.52C382.04 80.1 382.22 79.8 382.4 79.62C385.52 76.5 387.5 74.58 388.34 73.86C388.52 73.68 388.76 73.56 389.06 73.44C389.3 73.38 389.66 73.32 390.14 73.26C390.56 73.2 390.86 73.14 391.04 73.14C393.74 72.54 396.32 72.72 398.72 73.68C401.12 74.64 403.64 76.2 406.16 78.24C407.18 79.2 408.02 80.04 408.62 80.82C409.22 81.6 409.64 82.5 409.88 83.52C410.12 84.72 410.24 85.8 410.36 86.7C410.48 86.1 410.72 85.38 411.08 84.6C412.04 82.44 413.72 81.48 416.18 81.6C416.54 81.66 417.02 81.66 417.5 81.6C417.98 81.6 418.52 81.54 419.18 81.42C419.78 81.36 420.32 81.3 420.68 81.3V75.72V74.7V73.62C420.68 71.58 420.86 70.26 421.34 69.72C421.82 69.18 423.08 68.76 425.18 68.46C425.42 68.46 426.14 68.22 427.34 67.8C428.9 67.2 430.16 67.26 431 67.86C431.84 68.52 432.26 69.66 432.26 71.34C432.2 73.8 432.02 80.46 431.72 91.26C431.42 100.98 431.18 108 431.06 112.26C430.94 113.46 430.76 114.6 430.52 115.74C429.92 117.78 428.84 118.8 427.28 118.74C426.92 118.74 426.32 118.68 425.54 118.68C424.7 118.68 424.04 118.68 423.44 118.68C422.84 118.68 422.24 118.62 421.7 118.5C421.16 118.44 420.74 118.2 420.44 117.78C420.08 117.42 419.96 116.88 420.02 116.16C420.08 115.32 420.14 113.7 420.2 111.42C420.26 109.14 420.32 107.88 420.32 107.52C420.32 107.28 420.38 106.86 420.38 106.14C420.32 105.18 419.78 104.82 418.76 105C417.32 105.24 415.52 105.54 413.36 105.84C412.76 105.96 412.34 105.84 411.98 105.54C411.62 105.24 411.44 104.82 411.56 104.34C411.8 102 412.22 99.84 412.82 97.86C412.82 97.8 412.88 97.74 413 97.62C413.12 97.56 413.24 97.5 413.48 97.44C413.66 97.38 413.84 97.32 413.96 97.26C414.08 97.26 414.32 97.2 414.56 97.14C414.8 97.08 414.98 97.02 415.1 97.02C415.46 96.96 416.06 96.84 416.9 96.72C417.74 96.6 418.34 96.42 418.82 96.3C419.06 96.3 419.36 96.24 419.84 96.12C420.26 96.06 420.56 96 420.74 95.94C420.92 95.88 421.16 95.76 421.4 95.64C421.64 95.52 421.76 95.34 421.82 95.1C421.88 94.86 421.94 94.56 421.94 94.2C421.88 93.96 421.88 92.64 421.88 90.12C417.8 90.42 415.58 90.54 415.22 90.54L414.14 90.72C413.66 90.84 413.24 90.9 413 90.9C412.7 90.96 412.4 90.9 412.04 90.78C411.68 90.66 411.38 90.42 411.14 90.06C410.78 89.64 410.54 89.22 410.42 88.74C410.42 89.16 410.36 89.58 410.36 89.94C410 94.02 409.34 98.46 408.5 103.32C407.48 109.02 404.84 113.22 400.52 115.86C397.88 117.54 395.9 118.2 394.7 117.96ZM401.24 92.94C401.18 92.82 401.12 92.46 401.06 91.98C400.94 91.5 400.88 91.14 400.82 90.9C400.76 90.72 400.7 90.42 400.58 90.06C400.46 89.7 400.34 89.4 400.16 89.1C399.98 88.86 399.8 88.56 399.56 88.32C398.12 86.82 396.56 86.22 394.88 86.52C393.14 86.88 391.94 88.02 391.22 90C390.32 92.28 390.08 94.32 390.44 96.12C390.56 96.84 390.68 97.98 390.86 99.48C391.04 101.04 391.22 102.18 391.4 102.96C391.58 103.86 392.12 104.64 393.08 105.3C393.98 105.96 394.88 106.26 395.84 106.26C396.5 106.26 397.16 106.02 397.88 105.48C398.54 105 398.96 104.34 399.14 103.5C399.26 102.84 399.98 99.3 401.24 92.94Z" fill="white"/>
</svg>
