<svg width="181" height="121" viewBox="0 0 181 121" fill="none" xmlns="http://www.w3.org/2000/svg">
<rect x="0.5" y="0.5" width="90" height="120" fill="#FF961E"/>
<rect x="0.5" y="0.5" width="90" height="120" stroke="black"/>
<path d="M61.1 89.22C59.18 89.22 57.86 88.92 57.14 88.2C56.42 87.48 56.06 86.16 55.94 84.18C55.64 78.6 55.52 74.76 55.52 72.66C55.52 69.72 55.7 60.42 56.12 44.82C56.12 44.4 56.18 43.92 56.3 43.44C56.36 42.96 56.42 42.54 56.54 42.18C56.6 41.82 56.72 41.4 56.9 40.8C57.02 40.2 57.14 39.78 57.26 39.42C57.38 38.94 57.62 38.58 58.04 38.46C58.16 38.46 58.58 38.34 59.24 38.16C59.9 37.98 60.38 37.86 60.62 37.8C60.86 37.74 61.22 37.68 61.82 37.56C62.36 37.44 62.78 37.44 63.14 37.44C63.5 37.44 63.92 37.5 64.4 37.62C64.88 37.74 65.3 37.86 65.78 38.04C66.92 38.64 67.58 39.72 67.7 41.28C67.7 42 67.76 44.4 67.82 48.54C67.82 52.68 67.94 55.26 68.06 56.28C68.18 57 68.6 57.78 69.32 58.56C69.68 58.98 70.04 59.4 70.46 59.82C70.88 60.3 71.36 60.78 71.9 61.26C72.38 61.8 72.8 62.22 73.16 62.46C73.64 62.94 73.94 63.48 74.18 64.02C74.42 64.62 74.48 65.28 74.42 66C74.36 66.72 74.3 67.26 74.24 67.62C74.12 67.98 74 68.64 73.76 69.48C73.4 70.92 72.14 71.7 69.98 71.7C68.84 71.7 68.12 71.88 67.88 72.18C67.58 72.54 67.46 73.32 67.52 74.64C67.52 75.54 67.52 77.16 67.58 79.44C67.64 81.72 67.7 83.28 67.7 84.06C67.7 85.68 67.28 86.76 66.32 87.3C63.92 88.62 62.18 89.28 61.1 89.22ZM29.36 71.1C32.36 71.4 34.58 71.52 36.02 71.52C36.56 71.58 37.16 71.64 37.88 71.64C38.6 71.7 39.08 71.76 39.44 71.76C39.8 71.76 40.22 71.76 40.82 71.7C41.42 71.64 42.08 71.52 42.8 71.34C44.24 71.04 45.8 71.46 47.48 72.66C47.66 72.84 47.84 73.08 47.96 73.44C48.08 73.8 48.14 74.16 48.08 74.4C47.96 75.3 47.78 76.02 47.66 76.56C47.54 77.16 47.42 77.52 47.36 77.76C47.24 78 47 78.48 46.64 79.26C46.28 80.04 45.98 80.64 45.74 81.12C44.84 83.04 43.4 84.12 41.42 84.24C39.98 84.36 38.12 84.6 35.9 84.96C33.62 85.32 32 85.5 30.92 85.56C29.84 85.68 28.04 85.68 25.4 85.56C23.78 85.44 22.22 85.2 20.66 84.78C19.34 84.48 18.62 83.52 18.56 81.96C18.5 81.06 18.44 79.8 18.38 78.24C18.26 76.68 18.2 75.18 18.14 73.86C18.08 72.54 18.08 71.28 18.08 70.08C17.96 64.2 17.96 58.38 18.08 52.5C18.08 51.24 18.32 49.8 18.92 48.18C19.28 47.16 19.76 46.44 20.36 46.08C20.96 45.72 21.92 45.48 23.24 45.36C23.84 45.3 24.8 45.3 26.24 45.36C26.36 45.36 26.54 45.48 26.78 45.6C27.02 45.72 27.2 45.84 27.26 45.84C27.74 46.08 28.04 46.14 28.22 46.14C28.88 46.14 29.36 46.26 29.66 46.5C29.9 46.74 30.14 47.28 30.32 48C30.56 48.9 30.68 49.86 30.68 50.94C30.68 52.02 30.62 52.92 30.56 53.7C30.44 54.48 30.32 55.44 30.14 56.64C29.96 57.84 29.84 58.74 29.84 59.4C29.72 60.36 29.6 62.4 29.54 65.52C29.42 68.64 29.36 70.5 29.36 71.1Z" fill="white"/>
<rect x="90.5" y="0.5" width="90" height="120" fill="#FF961E"/>
<rect x="90.5" y="0.5" width="90" height="120" stroke="black"/>
<path d="M162.02 81.84C161.96 82.32 161.96 82.98 162.08 83.7C162.2 84.48 162.2 85.2 162.2 85.86C162.2 86.52 162.02 87.12 161.78 87.66C161.3 88.56 160.82 89.1 160.22 89.22C159.5 89.4 158.66 89.58 157.58 89.7C156.5 89.88 155.54 90 154.76 90.06C153.98 90.12 153.62 90.12 153.62 90.06H121.94C120.86 90.12 119.24 90.18 117.08 90.24C114.92 90.3 113.3 90.3 112.22 90.3C111.02 90.36 109.88 90.12 108.8 89.58L108.02 84.96L108.8 82.68C109.04 81.96 109.52 81.6 110.24 81.54L115.04 81.06C119.84 81.06 125 80.94 130.46 80.82C129.98 80.34 129.74 79.8 129.74 79.32C129.62 78.6 129.56 77.58 129.56 76.26C129.5 74.94 129.44 73.98 129.44 73.5C129.44 73.02 129.5 72.66 129.68 72.42C129.8 72.18 130.16 72.06 130.7 72.06C131.3 72.12 132.44 72.12 134 72.12C135.56 72.12 136.64 72.06 137.3 72.06C138.56 72.12 139.4 72.42 139.88 73.02C140.36 73.62 140.72 74.76 141.02 76.44C141.2 77.7 140.9 79.08 140.12 80.64C146.6 80.52 150.86 80.4 152.78 80.28C155.12 80.22 156.98 80.22 158.3 80.34C158.66 80.34 159.74 80.7 161.54 81.3C161.6 81.36 161.72 81.42 161.84 81.54C161.96 81.66 162.02 81.78 162.02 81.84ZM124.28 57.72C131.18 57.36 135.08 57.18 135.98 57.12C136.7 57.06 137.84 57 139.4 56.88C140.96 56.76 142.1 56.7 142.94 56.64C147.14 56.4 149.72 56.34 150.62 56.34C152 56.4 153.5 56.7 155.06 57.24C156.38 57.72 157.22 58.2 157.46 58.56C157.7 58.98 157.76 59.82 157.52 61.14C157.34 62.1 157.16 63 156.92 63.96C156.68 64.92 156.38 65.94 156.02 67.14C155.66 68.34 155.42 69.18 155.3 69.66C153.98 69.66 152.12 69.72 149.6 69.72C147.08 69.72 144.92 69.72 143.12 69.72C141.32 69.72 139.58 69.66 137.9 69.6C136.1 69.54 134.18 69.42 132.2 69.3C130.16 69.18 127.94 69 125.42 68.76C122.9 68.52 121.04 68.4 119.78 68.28C119.3 68.28 118.7 68.22 117.98 68.22C117.2 68.22 116.78 68.22 116.66 68.16C115.1 68.16 114.14 67.86 113.78 67.26C113.36 66.66 113.18 65.64 113.24 64.08C113.3 63.18 113.48 61.8 113.78 60L114.32 56.94C114.38 56.28 114.5 55.32 114.68 54C114.8 52.68 114.92 51.72 115.04 51.12C115.58 46.68 115.94 44.04 116.18 43.2C116.78 40.2 119.12 38.94 123.08 39.3C125.06 39.66 127.28 39.78 129.68 39.72C132.08 39.72 134.24 39.36 136.28 38.76C136.64 38.64 137.06 38.52 137.54 38.46C138.02 38.46 138.5 38.46 139.1 38.46C139.64 38.52 140.06 38.58 140.42 38.58C140.78 38.64 141.32 38.7 142.04 38.82C142.76 38.94 143.18 39 143.42 39C144.86 39.24 146.9 39.6 149.54 40.08C152.18 40.56 154.1 40.92 155.3 41.1C156.2 41.28 156.86 41.58 157.22 41.94C157.58 42.3 157.76 42.96 157.64 43.8C157.52 44.28 157.4 45.18 157.28 46.44C157.1 47.76 156.98 48.72 156.86 49.38C156.44 51.36 155.06 52.32 152.72 52.26C151.4 52.26 149.54 52.26 147.14 52.14C144.68 52.02 142.94 51.96 141.86 51.96C138.2 51.9 135.02 51.9 132.26 52.02C131.66 52.02 130.7 52.14 129.5 52.32C128.3 52.56 127.4 52.62 126.8 52.62C126.02 52.62 125.48 52.8 125.12 53.04C124.76 53.28 124.58 53.76 124.58 54.42C124.58 54.54 124.46 55.68 124.28 57.72Z" fill="white"/>
</svg>
