<svg width="181" height="121" viewBox="0 0 181 121" fill="none" xmlns="http://www.w3.org/2000/svg">
<rect x="0.5" y="0.5" width="90" height="120" fill="#FF961E"/>
<rect x="0.5" y="0.5" width="90" height="120" stroke="black"/>
<path d="M67.1 53.1V59.04C67.1 59.7 66.98 60.9 66.86 62.58C66.74 63.54 66.14 64.08 65.18 64.08C63.02 64.14 61.22 64.14 59.66 64.02C58.76 64.02 57.98 63.66 57.38 63.06C56.78 62.46 56.42 61.74 56.42 60.9C56.36 57.96 56.36 54.24 56.42 49.74C56.42 49.08 56.48 47.52 56.54 45.12C56.6 42.72 56.66 41.04 56.72 40.14C56.72 38.94 57.14 38.16 57.98 37.68C58.16 37.56 58.52 37.38 59.06 37.08C59.6 36.84 60.02 36.6 60.32 36.48C60.56 36.36 60.92 36.24 61.4 36.06C61.88 35.88 62.3 35.76 62.72 35.7C63.14 35.64 63.56 35.64 64.04 35.64C64.76 35.7 65.3 35.76 65.66 35.88C66.5 36.24 66.92 36.84 66.92 37.74C66.92 39.42 67.04 41.58 67.34 44.1C67.4 44.58 67.76 44.88 68.48 44.94C71.36 45.18 72.98 45.3 73.34 45.36C74.18 45.6 74.72 46.26 74.84 47.46C75.02 49.26 74.72 50.88 73.88 52.26C73.64 52.68 72.92 52.98 71.84 53.1H67.1ZM27.68 52.14C23.6 51.42 21.38 51 20.96 50.88C19.7 50.64 19.1 49.98 19.16 48.84V44.82C21.02 44.1 23.06 43.68 25.34 43.44C27.62 43.26 29.54 43.2 31.16 43.26C32.72 43.38 34.88 43.56 37.52 43.86C38.24 43.98 39.02 43.98 39.86 43.98C40.7 43.98 41.66 43.98 42.8 43.98C43.94 43.98 44.84 43.92 45.44 43.92V47.52C45.44 48.12 45.26 48.54 44.9 48.78C44.48 49.02 44 49.2 43.4 49.32C42.8 49.44 42.44 49.68 42.26 49.92L43.04 50.76C46.4 53.04 47.36 56.16 45.98 60.12C45.38 61.8 44 63.9 41.84 66.36C41.48 66.72 41 67.08 40.28 67.32C39.56 67.56 38.9 67.74 38.24 67.74C34.94 67.86 32.06 67.8 29.66 67.44C26.18 66.96 23.84 65.64 22.7 63.42C21.5 61.2 21.92 58.8 23.84 56.22C24.14 55.8 24.5 55.38 24.92 54.9C25.34 54.42 25.82 53.94 26.42 53.34C26.96 52.8 27.38 52.38 27.68 52.14ZM38.96 59.52C38.9 58.56 38.6 57.9 38.06 57.48C37.46 57.12 36.5 56.88 35.12 56.82C34.16 56.82 33.38 57.24 32.84 58.08C32.24 58.92 31.88 60 31.7 61.2C31.58 61.92 31.82 62.4 32.3 62.7C32.78 63 33.62 63.18 34.76 63.18C35.96 63.18 36.92 62.88 37.76 62.16C38.54 61.44 38.96 60.6 38.96 59.52ZM27.5 42.54C27.74 40.38 27.92 39 28.04 38.4C28.04 38.34 28.1 38.22 28.22 38.04C28.82 37.44 30.14 36.9 32.18 36.48C34.16 36.06 35.66 36 36.62 36.36C37.94 36.84 38.72 37.74 38.96 38.94C39.2 40.2 38.84 41.22 37.76 42C37.04 42.48 36.14 42.72 35.06 42.72C34.64 42.78 32.72 42.72 29.3 42.6C29.06 42.6 28.46 42.6 27.5 42.54ZM26.12 72.66C26.24 72.66 27.14 72.42 28.82 71.94C30.5 71.46 31.76 71.22 32.6 71.22C32.96 71.22 33.32 71.28 33.74 71.34C34.22 71.46 34.76 71.52 35.42 71.52C35.72 71.52 36.2 71.52 36.8 71.46C37.4 71.46 37.82 71.4 38.12 71.4C38.42 71.4 38.84 71.46 39.44 71.46C40.04 71.52 40.46 71.52 40.76 71.52C41.78 71.52 42.86 71.46 44 71.34C45.08 71.22 46.34 70.98 47.66 70.74C48.98 70.5 50.06 70.38 50.78 70.26C51.62 70.14 52.52 70.08 53.54 70.08C54.44 70.08 56 70.2 58.16 70.32C60.32 70.44 61.7 70.5 62.3 70.5C62.48 70.5 62.6 70.62 62.72 70.74C63.44 72.18 63.86 73.98 64.04 76.14C64.1 77.16 64.16 77.94 64.16 78.48C64.16 79.44 64.1 80.34 64.04 81.18C63.98 82.08 63.92 83.1 63.8 84.3C63.68 85.5 63.62 86.4 63.62 86.94C63.5 87.6 63.08 88.74 62.24 90.36C62 90.84 61.64 91.26 61.22 91.5C60.74 91.74 60.38 91.92 60.08 91.92L58.76 92.1C58.04 92.16 57.5 92.22 57.2 92.28C56.78 92.4 56.18 92.46 55.34 92.58C54.5 92.7 53.96 92.76 53.6 92.82C53.36 92.88 53.12 92.88 53 92.88C52.16 92.88 51.74 92.4 51.74 91.38C51.62 87.18 51.56 84.24 51.56 82.5C51.5 81.18 50.9 80.52 49.82 80.52C49.7 80.52 49.58 80.58 49.46 80.58C48.86 80.64 47.96 80.76 46.88 81C45.8 81.24 45.08 81.36 44.78 81.36C44.48 81.42 43.88 81.54 42.92 81.66C41.96 81.84 41.18 81.96 40.52 82.02C39.86 82.14 39.2 82.14 38.6 82.14C37.04 82.14 33.86 81.96 29.12 81.54C28.88 81.54 28.58 81.42 28.28 81.24C27.98 81.06 27.86 80.88 27.86 80.7C27.74 80.28 27.5 79.74 27.14 79.02C26.78 78.3 26.66 77.58 26.66 76.86C26.66 76.74 26.54 76.32 26.3 75.72C26.06 75.12 26 74.64 26.24 74.28C26.24 74.16 26.3 74.04 26.3 73.92C26.3 73.74 26.24 73.5 26.18 73.26C26.12 73.02 26.12 72.84 26.12 72.66Z" fill="white"/>
<rect x="90.5" y="0.5" width="90" height="120" fill="#FF961E"/>
<rect x="90.5" y="0.5" width="90" height="120" stroke="black"/>
<path d="M122.06 81.96C122.06 81.48 122.18 80.88 122.42 80.04C122.66 79.2 122.78 78.54 122.84 78.06C122.9 76.08 122.96 74.76 123.08 74.1C123.08 73.62 123.32 73.2 123.68 72.9C124.04 72.66 124.46 72.54 125 72.54C126.14 72.6 127.46 72.72 128.96 72.84C129.44 72.96 129.74 73.26 129.74 73.8C129.68 75.72 129.68 77.1 129.74 77.94C129.74 78.54 129.92 79.62 130.16 81.06C130.16 81.3 130.28 81.48 130.52 81.54C130.7 81.66 131.06 81.78 131.6 82.02C132.14 82.26 132.62 82.38 132.98 82.5C133.34 82.62 133.76 82.68 134.12 82.68C134.96 82.8 136.34 82.68 138.26 82.32C138.38 82.32 138.5 82.14 138.62 81.9C138.74 81.66 138.86 81.36 138.92 81.12C138.92 80.64 138.98 79.74 139.1 78.54C139.22 77.34 139.34 76.44 139.46 75.78C139.58 74.94 139.88 74.16 140.42 73.44C140.54 73.32 141.26 73.08 142.7 72.78C144.38 72.42 145.4 73.14 145.76 74.88C146 75.96 146.06 77.34 145.94 79.02C145.88 79.62 147.44 80.22 150.68 80.7C153.86 81.24 156.14 81.54 157.52 81.54H160.1C160.58 81.6 160.88 81.78 161 82.14C161.72 84 162.08 85.26 162.2 85.86C162.32 86.82 162.08 87.54 161.6 88.14C161.12 88.74 160.34 89.1 159.26 89.22C158.9 89.28 157.64 89.28 155.6 89.28C153.5 89.28 151.34 89.28 149.12 89.28C146.84 89.28 145.64 89.22 145.4 89.22C144.56 89.28 142.4 89.34 138.98 89.34C135.56 89.34 132.92 89.4 131.12 89.4C130.58 89.46 129.74 89.52 128.66 89.64C127.58 89.76 126.74 89.82 126.26 89.82C124.58 89.82 119.24 89.58 110.24 89.04H110C109.88 89.04 109.76 88.98 109.7 88.98C108.92 89.1 108.44 89.04 108.2 88.86C107.96 88.68 107.84 88.2 107.84 87.48C107.78 86.4 107.78 85.02 107.84 83.34C107.84 82.86 108.14 82.5 108.62 82.14C109.1 81.84 109.7 81.66 110.42 81.66C110.78 81.66 112.7 81.72 116.3 81.84C119.84 81.96 121.76 81.96 122.06 81.96ZM159.08 56.46C158 63.36 157.46 67.14 157.34 67.86C157.04 69.36 156.38 70.5 155.42 71.22C154.46 71.94 153.2 72.3 151.7 72.24C149.9 72.24 148.34 72.06 146.96 71.82C146.66 71.82 146.36 71.64 146.06 71.4C145.76 71.16 145.58 70.92 145.52 70.62C144.56 67.86 144.44 65.22 145.04 62.64C145.16 61.92 145.16 60.96 145.04 59.64C144.92 58.8 144.68 58.14 144.26 57.72C143.84 57.36 143.18 57.18 142.22 57.24C137.18 57.66 132.2 57.9 127.22 58.02C123.02 58.14 118.82 57.36 114.5 55.74C114.26 55.68 114.02 55.5 113.78 55.14C113.54 54.84 113.42 54.54 113.36 54.18C113.24 53.46 113 50.88 112.58 46.5C112.52 46.32 112.52 46.14 112.52 45.96C112.52 45.84 112.52 45.66 112.52 45.48C112.52 45.3 112.46 45.18 112.4 45.06C111.92 44.46 111.74 43.92 111.86 43.56C111.98 43.2 112.16 42.9 112.52 42.78C112.88 42.66 113.3 42.54 113.84 42.48C116.72 42.36 120.2 42.3 124.16 42.36C130.46 42.48 135.38 42.6 138.98 42.78C139.94 42.84 141.26 43.02 143 43.32C144.74 43.62 146 43.8 146.78 43.86C150.26 44.22 153.86 45.18 157.46 46.86C158.06 47.22 158.42 47.58 158.48 47.94C158.54 48.78 158.72 51.66 159.08 56.46Z" fill="white"/>
</svg>
