<svg width="93" height="110" viewBox="0 0 93 110" fill="none" xmlns="http://www.w3.org/2000/svg">
<rect x="0.428711" y="0.428711" width="91.4694" height="108.62" fill="#F6C500"/>
<rect x="0.428711" y="0.428711" width="91.4694" height="108.62" stroke="black" stroke-width="0.857525"/>
<path d="M56.0848 47.0814C56.6823 45.7074 57.3394 44.3333 58.116 42.9593C58.8329 41.645 59.6096 40.3904 60.3862 39.1956C60.3862 38.7774 60.4459 38.2995 60.4459 37.7618C60.3862 37.2839 60.3862 36.7462 60.4459 36.1488C60.3862 34.954 60.3862 34.0579 60.4459 33.4007C60.4459 32.8033 60.4459 32.2059 60.4459 31.6085C60.3862 31.1903 60.3862 30.7124 60.3862 30.2345C60.3265 29.7565 60.0875 29.3383 59.6693 28.9202C59.1914 28.5617 58.7732 28.3228 58.4147 28.1435C57.9368 28.024 57.5784 27.8448 57.2797 27.6059C57.0407 27.4864 56.9212 27.3669 56.9212 27.1279C56.8615 26.9487 56.8615 26.7695 56.981 26.5305C57.0407 26.411 57.2199 26.2318 57.4589 26.1123C57.6381 26.0526 57.9368 26.0526 58.355 26.1721C58.5342 26.2916 58.8927 26.3513 59.4303 26.4708C59.9083 26.65 60.5057 26.8292 61.1628 26.9487C61.7602 27.1877 62.3576 27.3669 62.9551 27.4864C63.5525 27.6656 64.0304 27.7851 64.3888 27.8448C64.8668 28.024 65.2849 28.2033 65.6434 28.3228C65.8824 28.5617 65.9421 28.9202 65.7629 29.5176C65.5239 30.1747 65.3447 30.8319 65.2252 31.5488C64.9862 32.3254 64.9265 33.102 64.9265 33.9384C64.9265 34.4761 64.9265 35.193 64.9265 36.1488C64.8668 37.1047 64.807 37.941 64.7473 38.6579C64.7473 39.0164 64.7473 39.4346 64.7473 39.9722C64.6875 40.5696 64.6875 41.2268 64.6875 41.8242C64.6278 42.4814 64.6278 43.0788 64.6278 43.6164C64.5681 44.2138 64.5681 44.6918 64.5681 44.9905C64.5681 45.6476 64.5681 46.1853 64.6278 46.6632C64.6278 47.2009 64.6278 47.6788 64.6278 48.1567C64.6278 48.6944 64.6278 49.2321 64.6875 49.7698C64.6875 50.3672 64.6875 51.0841 64.6875 51.8607V60.0452C64.5681 62.1959 64.5083 63.9284 64.5083 65.3621C64.4486 66.8557 64.4486 67.8713 64.4486 68.4089C64.4486 69.3648 64.3291 70.3804 64.2096 71.5155C64.0304 72.6505 63.8512 73.7856 63.6122 74.8609C63.3732 75.9363 63.0745 76.8921 62.8356 77.7883C62.5369 78.6246 62.2979 79.2818 62.0589 79.6402C61.82 79.9987 61.5213 80.4169 61.2823 80.835C60.9836 81.1935 60.7446 81.4325 60.5057 81.6117C60.2667 81.7312 60.0875 81.6714 59.968 81.4325C59.8485 81.1337 59.8485 80.5363 60.0277 79.6402C60.0875 79.0428 60.1472 78.2064 60.2667 77.1908C60.2667 76.1155 60.3265 74.9207 60.3862 73.6064C60.3862 72.2323 60.4459 70.8583 60.4459 69.3648C60.4459 67.931 60.4459 66.4375 60.4459 65.0037V57.775C60.4459 56.7594 60.3862 55.6841 60.3862 54.6088C60.3265 53.5334 60.3265 52.2789 60.3265 50.7256C60.207 49.7698 60.207 48.7542 60.207 47.7386C60.1472 46.7827 60.1472 45.8866 60.1472 45.0502C59.7888 45.8866 59.4901 46.6632 59.2511 47.3801C58.8927 48.2165 58.594 48.9931 58.2953 49.7698C57.9368 50.6061 57.5784 51.5022 57.2199 52.4581C56.742 53.4737 56.3835 54.4893 56.0251 55.5646C55.6069 56.64 55.2485 57.7153 55.0095 58.7906C54.6511 59.866 54.4718 60.8816 54.4121 61.7179C54.2926 62.3153 54.2926 62.7933 54.3524 63.2115C54.3524 63.6894 54.3524 64.1076 54.3524 64.4063C54.2329 64.7647 54.1134 65.0634 53.9342 65.1829C53.6952 65.3621 53.277 65.4219 52.7394 65.3024C52.1419 65.2427 51.664 65.1829 51.3056 65.0634C50.8874 65.0037 50.5887 64.8245 50.3497 64.5258C50.1108 64.2868 49.9315 63.9284 49.8718 63.3907C49.7523 62.9128 49.6926 62.1361 49.7523 61.1205C49.7523 60.4036 49.812 59.5075 49.812 58.4322C49.7523 57.4166 49.7523 56.3413 49.7523 55.2062C49.6926 54.1308 49.6926 53.0555 49.6926 51.9802C49.6926 50.9646 49.6926 50.0087 49.7523 49.1723C49.6926 48.1567 49.6926 47.2606 49.6926 46.484C49.6926 45.7671 49.6926 45.4087 49.812 45.3489C49.9315 45.2294 50.051 45.11 50.2302 45.11C50.3497 45.11 50.4095 44.9905 50.5289 44.6918C50.5289 44.5723 50.5289 44.3931 50.5289 44.2736C50.4095 44.1541 50.3497 44.0346 50.29 43.8554C50.1705 43.7359 50.051 43.5567 49.9913 43.3177C49.8718 43.1385 49.8718 42.8995 49.9315 42.5411C49.9913 42.1229 50.051 41.645 50.051 41.0476C49.9913 40.5696 49.9913 40.032 49.9913 39.4346C49.9913 38.2397 49.9913 37.3436 50.051 36.6865C50.051 36.0891 49.9913 35.4917 49.9913 34.8943C49.9315 34.4761 49.9315 33.9981 49.9315 33.5202C49.8718 33.0423 49.6328 32.6241 49.2146 32.2059C48.7367 31.8475 48.3185 31.6085 47.9601 31.4293C47.5419 31.3098 47.1834 31.1306 46.8847 30.8916C46.7055 30.7721 46.586 30.6526 46.586 30.4137C46.4666 30.2345 46.5263 30.0552 46.6458 29.8163C46.7055 29.6968 46.8847 29.5176 47.1237 29.3981C47.3029 29.3383 47.6016 29.3383 47.9601 29.4578C48.1393 29.5773 48.4977 29.6371 49.0354 29.7565C49.5133 29.9358 50.051 30.115 50.6484 30.2345C51.2458 30.4734 51.8432 30.6526 52.4406 30.7721C53.0381 30.9514 53.516 31.0708 53.8744 31.1306C54.3524 31.3098 54.7108 31.489 55.0692 31.6085C55.3082 31.8475 55.368 32.2059 55.2485 32.8033C55.0095 33.4605 54.8303 34.1176 54.7108 34.8345C54.4718 35.6111 54.4121 36.3878 54.4121 37.2242C54.3524 37.7618 54.3524 38.4787 54.3524 39.4346C54.3524 40.4502 54.2926 41.2865 54.2329 42.0034C54.2329 42.3619 54.1731 42.7203 54.1731 43.1982C54.1134 43.7359 54.0537 44.2736 54.0537 44.8113C53.9939 45.4087 53.9939 46.0061 53.9939 46.5437C53.9342 47.1412 53.9342 47.5593 53.9342 47.9178C53.8147 49.3516 53.9939 50.0087 54.3524 49.8892C54.7108 49.8295 55.2485 48.8736 56.0848 47.0814ZM33.443 47.3801L35.1158 42.5411C35.295 41.8839 35.2353 41.1671 34.9963 40.4502C34.6976 39.793 34.3989 39.1956 34.1002 38.7177C33.9807 38.5982 33.8612 38.3592 33.7417 38.0605C33.5625 37.8216 33.443 37.5229 33.3833 37.2839C33.2041 36.9254 33.2638 36.6267 33.6223 36.3878C33.921 36.1488 34.2794 36.2683 34.6976 36.6267C34.8768 36.9852 35.1158 37.2839 35.4145 37.5826C35.6534 37.941 36.1314 38.2995 36.7885 38.7177C37.147 39.0761 37.6846 39.3748 38.4613 39.6138C39.1782 39.9722 39.7756 40.2709 40.1938 40.5099C40.6119 40.7489 40.9106 41.0476 41.1496 41.3463C41.2691 41.7047 41.0899 42.3619 40.4925 43.1982C40.134 43.6164 39.8353 44.1541 39.5366 44.7515C39.1782 45.4087 38.8197 46.0061 38.5807 46.6035C38.282 47.2606 38.0431 47.7983 37.8639 48.2762C37.6249 48.7542 37.5054 49.0529 37.5054 49.1723C37.2664 49.6503 37.0872 50.0685 36.908 50.4269C36.669 50.9048 36.4898 51.323 36.3106 51.7412C36.9677 52.2191 37.6846 52.6373 38.4613 53.1152C39.1782 53.6529 39.8353 54.1308 40.5522 54.6088C41.1496 55.0867 41.747 55.5646 42.2847 55.9231C42.7626 56.401 43.1808 56.6997 43.4795 56.9387C44.1964 57.6556 44.8535 58.253 45.5107 58.7906C46.1081 59.388 46.5263 59.7465 46.7653 59.9257C46.9445 60.1049 47.064 60.4036 47.1834 60.8218C47.2432 61.2998 47.1834 61.8972 47.064 62.6141C46.9445 62.9725 46.9445 63.2712 46.9445 63.4504C46.9445 63.6894 46.9445 63.8089 46.9445 63.9284C46.9445 64.1076 46.9445 64.2271 47.0042 64.3465C47.0042 64.5258 47.0042 64.7647 47.0042 65.0037C47.0042 65.6011 46.7653 65.8998 46.3471 65.8998C45.8691 65.9595 45.451 65.7803 44.973 65.3024C44.6146 65.0634 44.1367 64.4063 43.4795 63.4504C42.7626 62.5543 41.986 61.5387 41.1496 60.3439C40.1938 59.2686 39.2379 58.0737 38.2223 56.8789C37.147 55.7438 36.1314 54.788 35.1158 53.9516C35.056 53.9516 34.9963 53.9516 34.9963 53.8919C34.1599 55.0867 33.3833 56.2218 32.5469 57.1776C31.6508 58.253 30.8144 59.1491 30.0378 59.9257C28.7235 61.24 27.2897 62.0764 25.7962 62.4946C24.2429 62.9725 22.8689 63.092 21.6741 62.9128C20.8377 62.7933 20.4195 62.6141 20.4195 62.3153C20.4195 62.0764 20.6585 61.9569 21.0767 61.8374C21.6143 61.7777 22.152 61.7179 22.6299 61.5985C23.1078 61.5387 23.5858 61.4192 24.0637 61.1803C24.5416 61.001 25.0196 60.7023 25.4975 60.2842C25.9754 59.9257 26.4533 59.4478 27.0507 58.7309C27.7676 57.8348 28.604 56.6997 29.4404 55.3854C30.2768 54.0711 30.9936 52.7568 31.7105 51.3828C31.1131 50.9646 30.5157 50.6061 30.0378 50.2477C29.5001 49.949 29.0819 49.71 28.843 49.5308C28.1261 49.2321 27.8274 48.9334 27.8871 48.6347C27.8871 48.3957 28.3053 48.3957 29.1417 48.5749C29.6196 48.7542 30.217 48.9334 30.8144 49.1723C31.4118 49.4113 31.9495 49.6503 32.4274 49.8295C32.6067 49.4113 32.7859 48.9931 32.9651 48.5749C33.0846 48.2165 33.2638 47.7983 33.443 47.3801Z" fill="white"/>
</svg>
