<svg width="93" height="110" viewBox="0 0 93 110" fill="none" xmlns="http://www.w3.org/2000/svg">
<rect x="0.428711" y="0.428711" width="91.4694" height="108.62" fill="#F6C500"/>
<rect x="0.428711" y="0.428711" width="91.4694" height="108.62" stroke="black" stroke-width="0.857525"/>
<path d="M40.2383 69.3648C41.0747 69.1258 41.9111 68.7076 42.6877 68.2297C43.4046 67.8115 44.0617 67.3336 44.7189 66.7362C45.3163 66.2583 45.9137 65.6608 46.4514 65.0634C46.9293 64.5258 47.467 63.9881 47.9449 63.5102C48.7215 62.6738 49.3787 61.8972 49.9164 61.1803C50.3943 60.5231 50.693 59.9855 50.932 59.5075C51.1709 59.0296 51.2904 58.5517 51.4099 58.1335C51.4099 57.775 51.1112 57.6556 50.454 57.775V57.7153C50.2748 57.8348 50.1553 57.8348 50.0358 57.8348C49.1995 58.0737 48.5423 58.3127 48.0046 58.5517C47.4072 58.8504 46.9293 59.0893 46.4514 59.3283C45.9137 59.5673 45.376 59.8062 44.8981 59.9257C44.3604 60.1049 43.763 60.2244 43.1656 60.2244C41.7916 60.3439 40.6565 60.3439 39.7604 60.2244C38.8045 60.1647 38.0279 59.9257 37.4305 59.5075C36.8331 59.1491 36.4149 58.5517 36.2357 57.775C35.9967 57.0581 35.8772 56.1023 35.9967 54.8477C36.1162 53.6529 36.3552 52.4581 36.7733 51.2633C37.1318 50.0685 37.311 49.1126 37.4305 48.3957C37.1915 48.2762 37.0123 48.1567 36.8331 48.0373C36.5941 47.9178 36.4149 47.7983 36.3552 47.6788C36.2357 47.5593 36.1759 47.4399 36.2954 47.2606C36.3552 47.1412 36.5941 47.0217 37.0721 46.7827C36.9526 46.6035 36.7733 46.4243 36.5941 46.245C36.3552 46.1256 36.1759 45.9463 35.9967 45.7074C35.2798 45.2294 34.9214 44.8113 34.9214 44.4528C34.8616 44.1541 35.2201 44.0346 36.0565 44.0944C36.8331 44.2138 37.6695 44.3931 38.5058 44.6918C39.3422 45.0502 40.0591 45.3489 40.6565 45.7074V45.7671C41.3734 45.6476 42.2098 45.4684 43.0461 45.2892C43.8228 45.1697 44.5994 44.9905 45.3163 44.871C46.0332 44.7515 46.6903 44.632 47.2878 44.5125C47.8254 44.4528 48.2436 44.3931 48.5423 44.2736C48.9008 44.1541 49.1995 44.0944 49.4982 43.9749C49.7371 43.9749 49.9164 43.8554 50.1553 43.7359C50.3345 43.6164 50.5138 43.497 50.693 43.258C50.8125 43.0788 50.932 42.7801 51.1112 42.3619C51.4099 41.5852 51.7086 40.7489 52.0073 39.8528C52.2463 39.0164 52.4255 38.2995 52.6047 37.7021C52.6047 37.5826 52.6047 37.4631 52.6644 37.2242C52.6644 37.0449 52.6047 36.8657 52.6047 36.6267C52.4852 36.5073 52.3657 36.3878 52.1865 36.2683C51.9475 36.2086 51.6488 36.2683 51.2904 36.3878C50.8125 36.567 50.0358 36.7462 48.9605 36.9852C47.7657 37.2242 46.5709 37.4631 45.3163 37.7021C44.002 38.0008 42.8669 38.2397 41.8513 38.419C40.776 38.6579 40.1188 38.8969 39.8799 39.0164C39.3422 39.2553 38.7448 39.4943 38.0279 39.7333C37.311 40.032 36.7136 40.032 36.2954 39.6735C35.8175 39.4346 35.4591 39.0761 35.1603 38.7177C34.8019 38.3592 34.5032 38.0008 34.2045 37.5229C33.846 37.1644 33.846 36.8657 34.085 36.6267C34.2642 36.5073 34.6227 36.3878 35.1006 36.328C35.5785 36.328 36.1759 36.328 36.8331 36.2683C37.4305 36.2683 38.1474 36.1488 38.9838 35.9099C39.2825 35.9099 40.1188 35.7306 41.4929 35.4917C42.8072 35.2527 44.241 35.0137 45.7942 34.6553C47.3475 34.4163 48.7813 34.1176 50.1553 33.7592C51.4696 33.5202 52.2463 33.2813 52.6047 33.1618C53.2021 32.9228 53.8593 32.8033 54.5762 32.7436C55.1736 32.7436 55.771 32.8033 56.3086 33.0423C56.8463 33.2813 57.384 33.5202 57.9216 33.8189C58.3996 34.1774 58.758 34.5358 58.997 34.8345C59.2359 35.4319 59.3554 36.0891 59.3554 36.7462C59.3554 37.1644 59.1762 37.5826 58.8178 38.0008C58.3996 38.4787 58.0411 38.7774 57.7424 38.9566C57.6229 39.0761 57.4437 39.2553 57.2645 39.4943C57.0255 39.8528 56.7866 40.1515 56.6073 40.5099C56.3684 40.9281 56.1294 41.2865 55.9502 41.645C55.7112 42.0632 55.4723 42.3619 55.3528 42.6008C55.1138 42.9593 55.0541 43.1385 55.2333 43.1982C55.3528 43.3177 55.532 43.3177 55.8905 43.3177C56.1294 43.3177 56.4281 43.258 56.7866 43.258C57.0853 43.3177 57.2645 43.5567 57.384 43.9749C57.4437 44.4528 57.384 44.7515 57.2048 44.9905C56.9658 45.2892 56.6671 45.5879 56.3684 45.8866C55.9502 46.1853 55.4723 46.3048 54.9346 46.3048C54.3372 46.3645 53.68 46.4243 53.0229 46.5437C52.4255 46.6632 51.7086 46.723 50.8722 46.8424C49.9761 46.9619 49.08 47.1412 48.1839 47.2606C47.228 47.4399 46.3319 47.6191 45.4955 47.7386C44.6592 47.9178 44.002 48.097 43.6436 48.2165C43.1656 48.3957 42.7474 48.6347 42.2695 48.8736L41.9111 49.8892C41.6124 50.5464 41.3734 51.2633 41.1344 51.9802C40.8955 52.7568 40.6565 53.4737 40.4773 54.1308C40.1188 55.2659 40.2981 55.9231 40.9552 56.1023C41.5526 56.3413 42.4487 56.4607 43.763 56.3413C44.4799 56.3413 45.2566 56.2218 46.0332 55.9828C46.7501 55.8036 47.4072 55.6244 48.0046 55.3854C48.5423 55.2659 49.0202 55.0867 49.3787 54.9672C49.6774 54.8477 49.7969 54.8477 49.7969 54.8477C49.9761 54.7282 50.3345 54.549 50.8722 54.3101C51.3501 54.0711 51.9475 53.8321 52.6644 53.5932C53.3216 53.4139 54.0385 53.2347 54.7554 52.9958C55.4125 52.8763 56.0099 52.7568 56.6073 52.7568C56.9658 52.7568 57.384 52.8763 57.8619 52.9958C58.2203 53.2347 58.5788 53.4139 58.9372 53.6529C59.2359 53.8919 59.5347 54.1308 59.7736 54.3698C60.0126 54.6088 60.1321 54.788 60.1918 54.8477C60.2515 54.9672 60.3113 55.1464 60.3113 55.3257C60.3113 55.5646 60.2515 55.8036 60.1321 56.0425C60.0126 56.2815 59.7736 56.5205 59.5347 56.6997C59.2359 56.9387 58.8775 57.0581 58.3996 57.0581H58.3398C57.9814 57.2374 57.7424 57.4166 57.5035 57.5958C57.2048 57.8348 56.906 58.1335 56.6073 58.4322C56.1892 58.9101 55.7112 59.388 55.2333 59.866C54.6956 60.4036 54.2177 60.8816 53.7995 61.2998C53.3216 61.7777 52.9034 62.1959 52.545 62.4946C52.1865 62.853 51.9475 63.092 51.8281 63.2115C51.5891 63.5102 51.2307 63.8686 50.8125 64.2271C50.3345 64.705 49.9164 65.1232 49.5579 65.4816C49.08 65.9595 48.7215 66.318 48.3631 66.6764C47.9449 67.0946 47.7059 67.3933 47.5865 67.5128C47.3475 67.8115 47.1683 68.0505 47.1085 68.2894C46.9891 68.5284 47.1683 68.7076 47.7059 68.7674L56.5476 68.2894C57.6229 68.2894 58.6983 68.1102 59.7736 67.7518C60.7295 67.5128 61.5061 67.2738 62.1035 67.0349C62.5814 66.9154 63.1191 66.9154 63.7165 66.9154C64.2542 66.9751 64.8516 67.0349 65.449 67.1544C65.9867 67.2738 66.5243 67.4531 67.062 67.5726C67.5399 67.7518 67.8984 67.8713 68.1971 67.9907C68.675 68.2894 69.0932 68.5284 69.4516 68.7076C69.8101 68.9466 70.1685 69.305 70.6465 69.7232C71.0647 70.1414 71.2439 70.5596 71.1244 70.9778C71.0049 71.4557 70.6465 71.6349 70.0491 71.6947C69.6906 71.6947 69.2127 71.6947 68.5555 71.6947C67.8386 71.6349 67.1815 71.6349 66.4646 71.6349C65.688 71.5752 64.9711 71.5752 64.3737 71.6349C63.6568 71.6349 63.2386 71.6349 62.9996 71.6947C62.7009 71.6947 62.3425 71.6947 61.984 71.6947C61.5061 71.5752 61.0879 71.5155 60.7295 71.396C60.2515 71.3362 59.8931 71.2167 59.5347 71.0973C59.1762 71.0375 58.8775 70.9778 58.6385 70.918C58.3996 70.918 57.8022 70.8583 56.906 70.7986C55.9502 70.7986 54.8151 70.7986 53.6203 70.7986C52.3657 70.7986 51.1112 70.7986 49.9164 70.7986C48.6021 70.8583 47.5865 70.918 46.7501 70.9778C44.7786 71.157 42.8669 71.396 40.9552 71.6349C39.0435 71.8739 37.1915 72.2323 35.3993 72.7103C34.1447 72.9492 33.3084 73.1285 32.8304 73.3077C32.2928 73.4272 31.8746 73.6661 31.5759 74.0246C31.2772 74.3233 30.9785 74.5025 30.7395 74.622C30.3811 74.622 29.9031 74.5622 29.246 74.383C28.8875 74.2635 28.4096 74.2038 27.6927 74.0843C26.9758 73.9648 26.1992 73.8454 25.4226 73.7259C24.5862 73.5466 23.8693 73.4272 23.2719 73.3077C22.555 73.1285 22.1368 73.009 21.9576 72.9492C21.7186 72.8895 21.5394 72.77 21.4199 72.5908C21.2407 72.3518 21.181 72.1129 21.181 71.9336C21.181 71.6947 21.2407 71.5155 21.4797 71.3362C21.5992 71.2167 21.8979 71.157 22.3758 71.157C22.7342 71.2167 23.2719 71.2167 23.8693 71.0973C24.407 71.0375 24.9446 70.918 25.5421 70.7986C25.781 70.7388 26.1395 70.6193 26.6771 70.4999C27.1551 70.3804 27.6927 70.2609 28.2901 70.1414C28.8278 70.0219 29.4252 69.9622 30.0226 69.8427C30.62 69.783 31.098 69.7232 31.5759 69.7232C32.0538 69.783 32.5915 69.8427 33.1889 69.9024C33.7863 70.0219 34.324 70.0817 34.9214 70.0817C35.2201 70.0817 35.8772 70.0219 36.8928 69.8427C37.8487 69.7232 38.9838 69.6037 40.2383 69.3648Z" fill="white"/>
</svg>
