<svg width="93" height="110" viewBox="0 0 93 110" fill="none" xmlns="http://www.w3.org/2000/svg">
<rect x="0.428711" y="0.428711" width="91.4694" height="108.62" fill="#F6C500"/>
<rect x="0.428711" y="0.428711" width="91.4694" height="108.62" stroke="black" stroke-width="0.857525"/>
<path d="M49.0202 27.9643C49.7371 28.0838 50.5735 28.263 51.4099 28.502C52.2463 28.8604 53.0229 29.2786 53.7398 29.8163C54.3969 30.4137 54.9943 31.1306 55.4723 31.9669C55.9502 32.8631 56.1892 33.8787 56.3086 35.0735C56.3086 35.6111 56.3684 35.9696 56.3684 36.2086C56.3086 36.5073 56.2489 36.6865 56.2489 36.7462C56.1294 36.8657 56.0697 36.9852 56.0099 36.9852C55.8905 37.0449 55.8307 37.1047 55.8307 37.2242C55.7112 37.3436 55.7112 37.4631 55.8307 37.4631C55.8307 37.5826 55.8905 37.6423 56.0099 37.7618C56.0697 37.941 56.1294 38.1203 56.1892 38.3592C56.1892 38.5982 56.1294 38.9566 56.0099 39.3748C55.4125 41.7645 54.0982 43.7957 52.067 45.4087C51.4696 45.8866 50.8125 46.1853 50.1553 46.4243C49.4384 46.6632 48.7215 46.8424 48.1241 46.9022C47.4072 47.0217 46.8098 47.0217 46.2722 47.0217C45.6748 47.0217 45.2566 47.0217 44.8981 47.0217C44.0617 46.9619 43.1656 46.7827 42.2695 46.4243C41.3137 46.1256 40.537 45.7671 39.9396 45.4087C38.9838 44.8113 38.2071 44.0346 37.6695 43.0788C37.0721 42.1827 36.7136 41.1671 36.5344 40.0917C36.2954 39.0761 36.1759 38.0605 36.2954 36.9852C36.3552 35.9696 36.5344 35.0735 36.8928 34.2371C37.1915 33.4605 37.6695 32.6241 38.2669 31.728C38.8643 30.8916 39.6409 30.115 40.7163 29.3981C40.537 28.8007 40.3578 28.1435 40.1188 27.5461C39.8799 27.0085 39.6409 26.5903 39.402 26.2916C38.924 25.8136 38.8045 25.3357 39.1032 24.9773C39.3422 24.6786 39.7604 24.6786 40.2981 24.9773C40.776 25.3357 41.1942 25.5747 41.6124 25.7539C41.9708 25.9929 42.5682 26.3513 43.4046 26.7097C44.1215 27.0682 44.6592 27.8448 45.0176 28.9202C45.4358 28.6812 46.0332 28.4422 46.7501 28.2033C47.467 28.024 48.1839 27.9643 49.0202 27.9643ZM51.0514 57.5958C51.1112 58.7309 51.1709 59.9257 51.2307 61.1803C51.2307 62.4946 51.0514 63.8089 50.693 65.1829C50.454 66.0193 50.1553 66.7362 49.7969 67.3336C49.4384 67.9907 49.08 68.4687 48.841 68.7674C48.4826 69.1856 48.1839 69.3648 47.9449 69.2453C47.5865 69.2453 47.3475 68.8271 47.228 67.9907C47.0488 67.1544 46.8696 66.318 46.6903 65.4816C46.4514 64.705 46.2722 64.1076 46.0332 63.6297C45.7345 63.2712 45.6748 62.9128 45.854 62.6141C45.9735 62.3751 46.1527 62.0764 46.3319 61.6582C46.5111 61.24 46.6306 60.9413 46.6903 60.7023C46.6903 60.5829 46.6306 60.2842 46.5111 59.9257C46.3319 59.627 46.2124 59.3283 46.2124 58.9699C46.0929 58.6712 46.2124 58.4322 46.5111 58.3127C46.7501 58.1932 46.9293 58.014 47.1085 57.8348C47.228 57.7153 47.2878 57.4166 47.4072 56.8789C47.4072 56.64 47.4072 56.2815 47.4072 55.9231C47.4072 55.6244 47.3475 55.3257 47.3475 54.9672C45.9735 55.2659 44.4202 55.5646 42.6877 55.8633C40.8955 56.2218 39.2227 56.5802 37.6097 56.8192C35.937 57.1776 34.5032 57.4166 33.3084 57.6556C32.0538 57.8945 31.2772 58.0737 30.9187 58.1335C30.4408 58.253 29.9031 58.3127 29.3655 58.3127C28.7681 58.4322 28.2304 58.4322 27.6927 58.4322C27.0953 58.4322 26.4979 58.3724 26.02 58.253C25.4823 58.1932 25.0044 58.0737 24.6459 57.8348C23.8096 57.4166 23.2122 56.9984 22.7342 56.64C22.2563 56.3413 21.7784 56.0425 21.3602 55.7438C21.1212 55.6244 20.942 55.4451 20.8823 55.2062C20.7628 55.027 20.703 54.8477 20.8225 54.6088C20.8225 54.4893 21.0017 54.3101 21.2407 54.1906C21.4797 54.0711 21.7784 54.0711 22.2563 54.1906C22.9732 54.4295 23.8096 54.4893 24.7654 54.4295C25.6018 54.4295 26.5576 54.3698 27.633 54.2503C27.9914 54.2503 28.8278 54.1906 30.1421 54.0711C31.3369 53.9516 32.7707 53.8321 34.4435 53.6529C36.0565 53.5334 37.7889 53.3542 39.6409 53.175C41.4331 53.0555 43.1656 52.8763 44.7786 52.6971C46.3319 52.5776 47.7059 52.3984 48.841 52.2789C49.9164 52.2191 50.6332 52.1594 50.932 52.0996C51.4099 52.0996 52.2463 51.9802 53.5008 51.8607C54.6956 51.7412 56.0099 51.6217 57.384 51.4425C58.6983 51.323 59.8931 51.2035 60.9684 51.0841C62.0438 51.0243 62.6412 50.9646 62.8801 50.9646C63.0594 50.9646 63.2983 50.8451 63.5373 50.6061C63.7763 50.3672 64.0152 50.1282 64.3737 49.8892C64.6126 49.71 64.9711 49.5308 65.3295 49.4113C65.6282 49.3516 65.9867 49.4113 66.4646 49.6503C66.823 49.8892 67.2412 50.1879 67.7192 50.5464C68.1373 50.9048 68.5555 51.2633 69.0335 51.562C69.3919 51.9204 69.8101 52.2191 70.1685 52.4581C70.4672 52.7568 70.7062 52.936 70.9452 53.0555C71.1244 53.175 71.2439 53.4139 71.3634 53.6529C71.4231 53.9516 71.4231 54.2503 71.4231 54.4893C71.3036 54.788 71.1841 55.027 71.0647 55.2062C70.8257 55.4451 70.5867 55.5049 70.3478 55.4451C69.8698 55.4451 69.2724 55.3854 68.5555 55.3854C67.7789 55.4451 67.0023 55.5049 66.1659 55.6244C65.2698 55.7438 64.4334 55.9231 63.597 56.1023C62.7607 56.3413 62.0438 56.5802 61.4464 56.9387C60.5502 57.4166 59.8931 57.5361 59.4749 57.3569C58.997 57.2374 59.1762 56.9387 59.8931 56.3413C60.1918 56.1023 60.5502 55.8036 60.9684 55.3854C61.3269 55.027 61.6853 54.6685 61.984 54.3101C62.223 53.9516 62.3425 53.6529 62.462 53.4139C62.462 53.175 62.3425 53.0555 61.984 53.0555C61.6256 53.0555 60.9087 53.1152 59.9528 53.175C58.9372 53.2945 57.8619 53.3542 56.7268 53.4737C55.532 53.5932 54.3372 53.7127 53.2619 53.8321C52.1268 54.0114 51.2307 54.1308 50.6332 54.2503L49.7371 54.4893C50.454 55.5646 50.8722 56.64 51.0514 57.5958ZM41.5526 63.5102C41.8513 63.5102 42.15 63.6894 42.389 63.9284C42.5682 64.2271 42.5085 64.5855 42.2695 65.0037C42.15 65.2427 41.9708 65.5414 41.7916 65.8998C41.5526 66.318 41.3734 66.7362 41.1942 67.0946C40.9552 67.5726 40.7163 67.931 40.5968 68.2894C40.3578 68.7076 40.2383 69.0063 40.1786 69.1856C40.1188 69.4245 40.0591 69.8427 39.9994 70.3206C39.8799 70.918 39.7604 71.5155 39.7604 72.1129C39.7007 72.7103 39.7007 73.3077 39.7604 73.9051C39.7604 74.4428 39.9396 74.8609 40.1786 75.1597C40.6565 75.6973 41.2539 76.0558 41.9708 76.235C42.5682 76.3545 43.1656 76.474 43.763 76.5337C44.4202 76.5337 45.3163 76.474 46.4514 76.474C47.5267 76.3545 48.7215 76.2947 49.9164 76.1752C51.0514 75.996 52.1268 75.8168 53.2021 75.6973C54.158 75.5181 54.9346 75.3389 55.4125 75.1597C56.1892 74.8609 56.8463 74.7415 57.4437 74.8012C57.9814 74.8012 58.5191 74.9804 58.997 75.4584C59.2359 75.6973 59.4749 75.8765 59.7736 76.0558C60.0126 76.1752 60.2515 76.3545 60.4905 76.5337C60.61 76.6532 60.7295 76.7727 60.7892 76.8921C60.7892 77.0116 60.7295 77.1311 60.4905 77.2506C59.9528 77.4895 59.4749 77.7883 59.0567 78.0272C58.5788 78.2064 57.9814 78.3857 57.2048 78.6246C56.8463 78.7441 56.5476 78.8636 56.4281 79.0428C56.1892 79.1623 56.0697 79.2818 55.9502 79.461C55.771 79.5805 55.5917 79.7597 55.4125 79.9389C55.1736 80.0584 54.8749 80.1182 54.4567 80.2376C53.9787 80.2974 53.1424 80.3571 51.9475 80.4169C50.7527 80.4169 49.4384 80.4169 48.1241 80.4169C46.6903 80.3571 45.376 80.2974 44.1812 80.2376C42.8669 80.1182 41.9708 80.0584 41.3734 79.9389C39.9396 79.6402 38.6851 78.9831 37.7292 78.0272C36.6539 76.9519 36.1759 75.5181 36.2954 73.6661C36.3552 72.4713 36.4149 71.4557 36.5344 70.3804C36.5344 69.3648 36.5941 68.5881 36.5941 67.9907C36.5941 67.6323 36.4149 67.3336 36.1759 67.0349C35.8772 66.7959 35.6383 66.557 35.3993 66.1985C35.1603 65.9595 34.9214 65.6011 34.6824 65.1829C34.324 64.8245 34.324 64.4063 34.6824 63.8089C34.9811 63.2115 35.2201 62.853 35.4591 62.7335C35.6383 62.6738 35.8772 62.7335 36.1759 62.9128C36.2954 63.0322 36.3552 63.1517 36.4149 63.2712C36.4149 63.3907 36.4149 63.5102 36.4149 63.5699C36.4149 63.6894 36.4149 63.8089 36.4746 63.8686C36.4746 63.9881 36.5941 63.9881 36.8331 63.9881C37.1915 64.1076 37.55 64.0478 37.9084 63.8686C38.2071 63.7491 38.6253 63.6297 39.1032 63.5699C39.5214 63.5699 39.9396 63.5102 40.4175 63.4504C40.8357 63.4504 41.1942 63.5102 41.5526 63.5102ZM44.1812 32.5046C43.4643 33.1618 42.8669 33.4605 42.389 33.341V33.4007C42.0306 33.2813 41.6721 33.2813 41.4331 33.4007C41.1344 33.58 40.8955 33.8189 40.7163 34.0579C40.4773 34.4163 40.3578 34.715 40.2981 35.0735C40.1786 35.4917 40.0591 35.8501 40.0591 36.2086C39.9396 36.9254 39.9396 37.5826 39.9994 38.2397C39.9994 38.9566 40.1786 39.5541 40.4773 40.1515C40.7163 40.7489 41.0747 41.2865 41.6721 41.7047C42.15 42.1827 42.8669 42.5411 43.8228 42.7801C44.9579 43.1385 45.9735 43.1982 46.8696 43.019C47.7059 42.8995 48.6021 42.6008 49.4384 42.2424C50.5138 41.3463 51.1709 40.3307 51.5294 39.2553C51.8281 38.2397 52.0073 37.1047 52.1268 35.7904C52.1865 34.4761 51.8878 33.2813 51.1709 32.2059C50.454 31.2501 49.4384 30.5929 48.1839 30.2942C47.7059 30.2345 47.228 30.1747 46.6903 30.1747C46.0929 30.2345 45.615 30.2345 45.1968 30.2345C45.1968 30.7124 45.0773 31.0708 44.9579 31.4293C44.7786 31.8475 44.5397 32.2059 44.1812 32.5046Z" fill="white"/>
</svg>
