<svg width="93" height="110" viewBox="0 0 93 110" fill="none" xmlns="http://www.w3.org/2000/svg">
<rect x="0.428711" y="0.428711" width="91.4694" height="108.62" fill="#F6C500"/>
<rect x="0.428711" y="0.428711" width="91.4694" height="108.62" stroke="black" stroke-width="0.857525"/>
<path d="M39.2836 37.8216C40.0005 37.941 40.8369 38.1203 41.6733 38.3592C42.5096 38.7177 43.2863 39.1359 44.0032 39.6735C44.7201 40.2709 45.3175 41.0476 45.8551 41.8839C46.3331 42.7801 46.6318 43.7957 46.7513 44.9905C46.7513 45.5281 46.7513 45.8866 46.7513 46.1256C46.6915 46.4243 46.6318 46.6035 46.572 46.6632C46.4526 46.7827 46.3928 46.9022 46.3331 46.9022C46.2136 46.9619 46.1538 47.0217 46.1538 47.1412C46.0941 47.2606 46.0941 47.3801 46.2136 47.4399C46.2136 47.5593 46.2733 47.6788 46.3928 47.7983C46.4526 47.9775 46.5123 48.1567 46.572 48.3957C46.572 48.6944 46.572 49.0529 46.4526 49.471C46.0941 50.7256 45.6162 51.8607 44.8993 52.936C44.1824 54.0114 43.2863 54.9672 42.2707 55.7438C41.6733 56.2218 41.0759 56.5205 40.359 56.6997C39.6421 56.9387 38.9252 57.1179 38.2083 57.1776C37.4914 57.2971 36.8343 57.2971 36.2368 57.2374C35.6394 57.2374 35.1615 57.2374 34.8031 57.2374C33.9667 57.1776 33.1303 56.9387 32.2939 56.5802C31.3978 56.2815 30.6212 55.9231 30.0238 55.5646C29.0679 54.9672 28.2913 54.1906 27.6939 53.2347C27.0965 52.2789 26.6783 51.2633 26.4393 50.1282C26.2004 49.0529 26.0809 47.9775 26.2004 46.9022C26.2004 45.8268 26.3796 44.9307 26.738 44.0944C27.0367 43.3177 27.5147 42.4814 28.1718 41.5852C28.7692 40.7489 29.6056 40.032 30.6809 39.3151C30.5017 38.7177 30.3225 38.0605 30.0835 37.4631C29.8446 36.9254 29.6056 36.5073 29.3666 36.2086C28.8887 35.7306 28.7692 35.2527 29.1277 34.8943C29.3666 34.5956 29.7848 34.5956 30.2628 34.8943C30.7407 35.2527 31.2186 35.4917 31.5771 35.6709C31.9355 35.9099 32.5329 36.2683 33.3693 36.6267C34.0862 36.9852 34.6238 37.7618 34.9823 38.8372C35.4602 38.5982 36.0576 38.3592 36.894 38.1203C37.6109 37.8813 38.4473 37.8216 39.2836 37.8216ZM48.8422 46.3645C47.8863 46.245 47.4084 46.0061 47.2889 45.6476C47.1694 45.2892 47.3487 45.11 47.9461 44.9905C48.185 44.9905 48.424 44.9307 48.663 44.9307C48.7824 44.9307 49.0214 44.9307 49.2604 44.871C49.4993 44.871 49.798 44.871 50.1565 44.8113C50.4552 44.8113 50.9331 44.8113 51.5305 44.6918C51.7695 44.6918 52.1279 44.6918 52.6656 44.632C53.1435 44.632 53.6812 44.5723 54.3981 44.4528C54.9955 44.4528 55.7124 44.3333 56.489 44.2138C57.2059 44.1541 57.9228 44.0346 58.6397 43.9151C58.58 43.5567 58.58 43.1982 58.6397 42.8398C58.6397 42.5411 58.7592 42.3021 58.8787 42.1827C58.9981 42.0034 59.1176 41.8839 59.2969 41.8839C59.4163 41.9437 59.5358 41.8242 59.6553 41.5255C59.6553 41.406 59.6553 41.2268 59.5956 41.1073C59.4761 40.9878 59.3566 40.8684 59.2969 40.6891C59.1774 40.5696 59.0579 40.3307 58.9981 40.0917C58.8787 39.9125 58.8787 39.6735 58.9981 39.3151C59.0579 38.8969 59.1176 38.419 59.1176 37.8216C59.0579 37.3436 59.0579 36.806 59.0579 36.2683C58.9981 35.0735 58.9981 34.1774 59.0579 33.4605C59.0579 32.8631 59.0579 32.2657 59.0579 31.728C58.9981 31.3098 58.9384 30.8319 58.9384 30.2942C58.8787 29.8163 58.6397 29.3981 58.2215 28.9799C57.7436 28.6215 57.2657 28.3825 56.9072 28.2033C56.4293 28.0838 56.0708 27.9046 55.7124 27.6656C55.4734 27.5461 55.3539 27.4266 55.3539 27.1877C55.2942 27.0085 55.2942 26.8292 55.4137 26.5903C55.4734 26.4708 55.6527 26.2916 55.8916 26.1721C56.1306 26.1123 56.4293 26.1123 56.9072 26.1721C57.0864 26.2916 57.4449 26.411 58.0423 26.5305C58.5202 26.7097 59.1176 26.889 59.7748 27.0682C60.3722 27.3072 61.0293 27.4864 61.6865 27.6059C62.2839 27.7851 62.8216 27.9046 63.18 27.9643C63.7177 28.1435 64.1359 28.3228 64.4943 28.4422C64.793 28.6812 64.8528 29.0396 64.6735 29.6371C64.4346 30.2942 64.2554 30.9514 64.0761 31.6682C63.8372 32.4449 63.7177 33.2215 63.7177 33.9981C63.7177 34.5956 63.7177 35.3124 63.7177 36.2086C63.6579 37.1644 63.6579 38.0605 63.6579 38.7774C63.6579 39.1359 63.5982 39.5541 63.5982 40.0917C63.5385 40.6891 63.4787 41.3463 63.4787 41.9437C63.419 42.6008 63.419 43.1982 63.419 43.7359C63.3592 44.3333 63.3592 44.8113 63.3592 45.11C63.3592 46.3645 63.3592 47.4996 63.3592 48.5749C63.2995 49.6503 63.2995 50.7256 63.2995 51.8009C63.18 53.2945 63.18 54.549 63.18 55.5049C63.1203 56.5802 63.1203 57.2971 63.1203 57.6556C63.1203 58.3127 63.0008 59.0296 62.8813 59.8062C62.6423 60.6426 62.4631 61.4192 62.2242 62.1361C61.9255 62.9725 61.6267 63.6894 61.3878 64.2868C61.0293 64.944 60.7904 65.3621 60.5514 65.6011C60.3124 65.8998 60.0137 66.1388 59.7748 66.3777C59.4163 66.6764 59.1774 66.8557 58.9384 66.9154C58.6397 67.0349 58.4605 67.0349 58.341 66.7959C58.2215 66.6764 58.2215 66.2583 58.4007 65.6011C58.5202 65.0037 58.6397 64.0478 58.7592 62.6738C58.8189 61.3595 58.8787 59.9257 58.9384 58.3724C58.9384 56.8789 58.9384 55.3854 58.9384 53.8321C58.8787 52.3984 58.8787 51.1438 58.8787 50.1879C58.8787 49.6503 58.8787 49.1126 58.8787 48.5152C58.7592 48.0373 58.6994 47.4399 58.6994 46.723C57.8631 47.0814 57.2059 47.2606 56.6085 47.3801C56.2501 47.4996 55.8916 47.5593 55.4137 47.6788C54.876 47.7983 54.3981 47.9178 53.9202 47.9775C53.3825 48.097 52.9046 48.097 52.4864 48.097C52.0085 48.1567 51.7098 48.097 51.5305 47.9775C51.2916 47.858 51.1123 47.7386 50.9929 47.5593C50.8136 47.4399 50.6344 47.2606 50.5149 47.0814C50.3357 46.9619 50.1565 46.7827 49.9175 46.6035C49.6188 46.484 49.2604 46.4243 48.8422 46.3645ZM46.8707 63.6297C47.1694 63.6297 47.4681 63.8089 47.7071 64.0478C47.8863 64.3465 47.8266 64.705 47.5876 65.1232C47.4681 65.3621 47.2889 65.6011 47.1097 65.9595C46.8707 66.3777 46.6915 66.7959 46.5123 67.1544C46.2733 67.6323 46.0344 67.9907 45.9149 68.3492C45.6759 68.7674 45.5564 69.0661 45.4967 69.2453C45.437 69.4843 45.3772 69.9024 45.3175 70.3804C45.198 70.9778 45.0785 71.5155 45.0785 72.1129C45.0188 72.7103 45.0188 73.3077 45.0785 73.9051C45.0785 74.4428 45.2577 74.8609 45.4967 75.1597C45.9746 75.6973 46.572 76.0558 47.2292 76.235C47.8266 76.3545 48.424 76.474 49.0214 76.5337C49.6786 76.5337 50.5149 76.474 51.5903 76.474C52.5461 76.3545 53.5617 76.2947 54.6371 76.1752C55.5929 75.996 56.5488 75.8168 57.5046 75.6973C58.4007 75.5181 59.1176 75.3389 59.5956 75.1597C60.3722 74.8609 61.0891 74.7415 61.7462 74.8012C62.3436 74.8012 62.8813 74.9804 63.3592 75.4584C63.5982 75.6973 63.8372 75.8765 64.1359 76.1155C64.3748 76.235 64.6138 76.4142 64.8528 76.5934C64.9722 76.7129 65.0917 76.8324 65.1515 76.9519C65.1515 77.0714 65.032 77.1908 64.793 77.3103C64.2554 77.5493 63.7774 77.848 63.2995 78.087C62.8216 78.2662 62.1644 78.4454 61.3878 78.6844C61.0293 78.8038 60.7306 78.9233 60.6112 79.1026C60.3722 79.222 60.2527 79.3415 60.1332 79.5207C59.954 79.6402 59.7748 79.8194 59.5956 79.9987C59.3566 80.1182 59.0579 80.1779 58.6397 80.2974C58.1618 80.3571 57.3851 80.4169 56.3695 80.4766C55.2942 80.4766 54.0994 80.4169 52.9046 80.4169C51.65 80.3571 50.4552 80.2974 49.3799 80.2376C48.2448 80.1182 47.4084 80.0584 46.811 79.9389C46.0941 79.7597 45.3772 79.5207 44.7798 79.2818C44.1227 78.9233 43.585 78.5649 43.1071 78.087C42.6291 77.5493 42.2707 76.9519 42.0317 76.2947C41.733 75.5778 41.6135 74.7415 41.6733 73.7856C41.733 72.5908 41.7928 71.5155 41.8525 70.4401C41.8525 69.4245 41.9122 68.6479 41.9122 68.0505C41.9122 67.692 41.7928 67.3933 41.5538 67.0946C41.2551 66.8557 41.0161 66.6167 40.7772 66.2583C40.6577 66.1388 40.5382 66.0193 40.4187 65.7803C40.2395 65.6608 40.12 65.4816 40.0005 65.2427C39.881 65.0634 39.8213 64.8245 39.8213 64.5855C39.7616 64.3465 39.8213 64.1076 40.0005 63.8089C40.2992 63.2115 40.5382 62.853 40.7772 62.7335C40.9564 62.6738 41.1953 62.7335 41.4941 62.9128C41.6135 63.0322 41.6733 63.1517 41.733 63.2712C41.733 63.3907 41.733 63.5102 41.733 63.5699C41.733 63.6894 41.733 63.8089 41.7928 63.8686C41.7928 63.9881 41.9122 63.9881 42.1512 63.9881C42.5096 64.1076 42.8681 64.0478 43.2265 63.8686C43.5252 63.7491 43.9434 63.6297 44.4214 63.5699C44.8395 63.5699 45.2577 63.5102 45.7357 63.5102C46.1538 63.5699 46.5123 63.6297 46.8707 63.6297ZM34.1459 42.4216C33.3095 43.258 32.5927 43.497 31.9952 43.1982C31.6368 43.1982 31.3978 43.3177 31.2186 43.4372C30.9796 43.6762 30.7407 43.9151 30.6212 44.1541C30.442 44.5125 30.3225 44.8113 30.2628 45.11C30.1433 45.4684 30.0238 45.8268 30.0238 46.1256C29.9043 46.8424 29.9043 47.4996 30.0238 48.2165C30.0238 48.9334 30.203 49.6503 30.5017 50.2477C30.7407 50.9048 31.0991 51.4425 31.6965 51.9204C32.2342 52.4581 32.9511 52.8165 33.907 53.0555C35.042 53.4139 36.0576 53.4737 37.0135 53.2347C37.9096 53.1152 38.746 52.8165 39.5823 52.4581C40.6577 51.562 41.3746 50.5464 41.733 49.3516C42.0915 48.2165 42.2707 47.0217 42.3902 45.7074C42.4499 44.3931 42.1512 43.1982 41.4343 42.1229C40.7174 41.1671 39.7018 40.5099 38.4473 40.2112C37.9693 40.1515 37.4317 40.0917 36.8343 40.0917C36.1174 40.1515 35.5797 40.1515 35.1615 40.1515C35.1615 40.6294 35.042 40.9878 34.9225 41.3463C34.7433 41.7645 34.5044 42.1229 34.1459 42.4216Z" fill="white"/>
</svg>
