<svg width="93" height="110" viewBox="0 0 93 110" fill="none" xmlns="http://www.w3.org/2000/svg">
<rect x="0.428711" y="0.428711" width="91.4694" height="108.62" fill="#F6C500"/>
<rect x="0.428711" y="0.428711" width="91.4694" height="108.62" stroke="black" stroke-width="0.857525"/>
<path d="M39.4031 43.1982C40.1798 43.3177 41.0161 43.4372 41.9122 43.6762C42.7486 43.9749 43.5252 44.3931 44.3019 44.9307C45.0188 45.5281 45.6759 46.1853 46.2136 47.0217C46.6915 47.9178 46.9305 48.9931 47.05 50.1879C47.05 50.7853 47.05 51.1438 47.05 51.3828C46.9902 51.6217 46.9305 51.8009 46.9305 51.9204C46.811 52.0399 46.7513 52.1594 46.6915 52.1594C46.572 52.2191 46.4526 52.2789 46.4526 52.3984C46.3928 52.5178 46.3928 52.6373 46.4526 52.6373C46.4526 52.7568 46.5123 52.8165 46.6318 52.936C46.6318 53.0555 46.6915 53.2347 46.7513 53.4139C46.7513 53.6529 46.7513 54.0114 46.6318 54.3698C46.2733 55.5049 45.8551 56.6997 45.3175 57.8945C44.7201 59.2088 43.8239 60.2244 42.6889 61.001C42.0915 61.479 41.3746 61.8374 40.6577 62.0166C39.881 62.2556 39.1642 62.4348 38.4473 62.4946C37.6706 62.6141 37.0135 62.6141 36.4161 62.6141C35.7589 62.6141 35.281 62.6141 34.9225 62.6141C33.9667 62.4946 33.0706 62.2556 32.2342 61.8972C31.2784 61.5985 30.5017 61.2998 29.8446 60.9413C28.6497 60.3439 27.8134 59.5075 27.216 58.4322C26.6186 57.4166 26.2004 56.3413 26.0211 55.2062C25.7822 54.1308 25.7822 52.9958 25.9017 51.9204C26.0211 50.9048 26.2004 50.0685 26.5588 49.3516C26.8575 48.5749 27.3354 47.7386 28.0523 46.8424C28.6497 46.0061 29.5459 45.2892 30.6212 44.5723C30.3822 43.9749 30.203 43.3177 29.9641 42.7203C29.7251 42.1827 29.4861 41.7645 29.2472 41.4658C29.0082 41.2268 28.829 40.9878 28.829 40.7489C28.7692 40.5099 28.829 40.3307 28.9485 40.1515C29.0679 40.032 29.2472 39.9125 29.4861 39.8528C29.6653 39.8528 29.9043 39.9722 30.203 40.1515C30.442 40.3307 30.6809 40.4502 30.9199 40.5696C31.0991 40.7489 31.3381 40.8684 31.5771 40.9878C31.816 41.1073 32.055 41.2268 32.4134 41.3463C32.6524 41.5255 33.0108 41.7047 33.4888 41.8839C33.8472 42.1229 34.1459 42.4216 34.4446 42.7801C34.6836 43.1982 34.9225 43.6164 35.1018 44.0944C35.5797 43.9151 36.1771 43.6762 36.9537 43.4372C37.6706 43.258 38.4473 43.1982 39.4031 43.1982ZM48.5435 51.1438C47.5876 51.0243 47.1694 50.7256 47.1694 50.3672C47.1097 50.0685 47.3487 49.8892 47.9461 49.7698C48.185 49.7698 48.424 49.71 48.663 49.6503C48.7824 49.6503 49.0214 49.6503 49.2604 49.5905C49.4993 49.5905 49.798 49.5308 50.1565 49.471C50.4552 49.471 50.9331 49.471 51.5305 49.471C52.1877 49.471 53.2033 49.3516 54.5773 49.1126C55.8916 48.8736 57.2657 48.6347 58.58 48.2762C58.5202 46.6632 58.5202 45.2294 58.5202 43.9749C58.5202 42.7801 58.5202 42.1827 58.6397 42.0632C58.7592 41.9437 58.9384 41.8242 59.1176 41.8242C59.2371 41.8242 59.2969 41.7047 59.4163 41.406C59.4163 41.2865 59.4163 41.1073 59.3566 40.9878C59.2371 40.8684 59.1774 40.7489 59.1176 40.5696C58.9981 40.4502 58.8787 40.2709 58.8189 40.032C58.6994 39.8528 58.6994 39.6138 58.7592 39.2553C58.8189 38.8372 58.8787 38.3592 58.8787 37.7618C58.8189 37.2839 58.8189 36.7462 58.8189 36.1488C58.7592 34.954 58.7592 34.0579 58.8787 33.4007C58.8787 32.8033 58.8787 32.2657 58.8189 31.6682C58.7592 31.2501 58.7592 30.7721 58.7592 30.2345C58.6994 29.7565 58.4605 29.3383 57.9826 28.9202C57.5046 28.5617 57.0864 28.3228 56.6683 28.1435C56.1903 28.024 55.8319 27.8448 55.4734 27.6059C55.2345 27.4864 55.115 27.3669 55.115 27.1279C55.0552 26.9487 55.115 26.7695 55.2345 26.5305C55.2942 26.411 55.4734 26.2318 55.7124 26.1123C55.9514 26.0526 56.2501 26.0526 56.6683 26.1721C56.8475 26.2916 57.2059 26.3513 57.8033 26.4708C58.2813 26.65 58.8787 26.8292 59.5956 26.9487C60.193 27.1877 60.8501 27.3669 61.5073 27.4864C62.1047 27.6656 62.5826 27.7851 63.0008 27.8448C63.5385 28.024 63.9566 28.2033 64.3151 28.3228C64.6138 28.5617 64.6735 28.9202 64.4943 29.5176C64.2554 30.1747 64.0761 30.8319 63.8969 31.5488C63.6579 32.3254 63.5385 33.102 63.5385 33.9384C63.5385 34.4761 63.4787 35.193 63.4787 36.1488C63.419 37.1047 63.419 37.941 63.419 38.6579C63.419 39.0164 63.3592 39.4346 63.3592 39.9722C63.2995 40.5696 63.2995 41.2268 63.2995 41.8242C63.2398 42.4814 63.2398 43.0788 63.2398 43.6164C63.18 44.2138 63.18 44.6918 63.18 44.9905C63.18 45.6476 63.18 46.1853 63.2398 46.6632C63.2398 47.2009 63.2398 47.6788 63.2398 48.1567C63.2398 48.6944 63.2398 49.2321 63.2995 49.7698C63.2995 50.3672 63.2995 51.0841 63.2995 51.8607C63.2995 52.4581 63.2995 53.1152 63.3592 53.8321C63.3592 54.6088 63.3592 55.3257 63.3592 56.0425C63.3592 56.8192 63.3592 57.5361 63.3592 58.1932C63.2995 58.9101 63.2995 59.5673 63.2995 60.0452C63.18 62.1959 63.18 63.9284 63.18 65.3621C63.1203 66.8557 63.1203 67.8713 63.1203 68.4089C63.1203 69.3648 63.0008 70.3804 62.8813 71.5155C62.6423 72.6505 62.4631 73.7856 62.2242 74.8609C61.9255 75.9363 61.6267 76.8921 61.3878 77.7883C61.0293 78.6246 60.7904 79.2818 60.5514 79.6402C60.3124 79.9987 60.0137 80.4169 59.7748 80.835C59.4163 81.1935 59.1774 81.4325 58.9384 81.6117C58.6397 81.7312 58.4605 81.6714 58.341 81.4325C58.2215 81.1337 58.2215 80.5363 58.4007 79.6402C58.5202 78.7441 58.6397 77.3701 58.7592 75.5181C58.7592 73.6064 58.8189 71.5752 58.8787 69.3648C58.8787 67.2141 58.8787 65.0634 58.8787 62.9128C58.8189 60.8218 58.8189 59.0893 58.8189 57.775C58.8787 56.8192 58.8787 55.8633 58.8189 54.8477C58.6994 53.8919 58.6994 52.6971 58.6994 51.323C58.4605 51.4425 58.2215 51.562 57.9826 51.6217C57.6838 51.7412 57.4449 51.8607 57.2059 51.8607C56.8475 51.9802 56.4293 52.0399 55.8916 52.1594C55.2942 52.3386 54.7565 52.4581 54.2189 52.5776C53.6215 52.6971 53.1435 52.8165 52.6656 52.8165C52.1279 52.936 51.7695 52.8763 51.5305 52.7568C51.2916 52.6373 51.1123 52.5178 50.9929 52.3386C50.7539 52.2191 50.5747 52.0399 50.3955 51.8607C50.1565 51.7412 49.9175 51.562 49.6786 51.3828C49.3201 51.2633 48.9617 51.2035 48.5435 51.1438ZM34.2654 47.7386C33.7277 48.2165 33.3095 48.4555 32.9511 48.5152C32.5329 48.6347 32.1745 48.6347 31.9355 48.5152C31.3381 48.5749 30.8602 48.9334 30.5615 49.5905C30.203 50.3074 29.9641 50.9048 29.9043 51.5022C29.7848 52.2191 29.7848 52.8763 29.8446 53.5334C29.8446 54.2503 30.0238 54.8477 30.3225 55.4451C30.5615 56.0425 30.9199 56.5802 31.5173 57.0581C32.055 57.5361 32.8316 57.8945 33.7875 58.1335C34.9823 58.4919 36.0576 58.5517 37.133 58.4322C38.0888 58.3127 39.0447 58.0737 39.9408 57.7153C41.0759 56.8192 41.7928 55.8036 42.1512 54.6088C42.4499 53.5334 42.6291 52.2789 42.7486 50.9646C42.8084 49.5905 42.4499 48.3957 41.733 47.3204C40.9564 46.3048 39.9408 45.6476 38.6265 45.4087C38.1486 45.3489 37.6109 45.3489 37.0135 45.3489C36.3563 45.4087 35.8187 45.4087 35.3407 45.4087C35.3407 46.3645 34.9823 47.1412 34.2654 47.7386Z" fill="white"/>
</svg>
