<svg width="93" height="110" viewBox="0 0 93 110" fill="none" xmlns="http://www.w3.org/2000/svg">
<rect x="0.428711" y="0.428711" width="91.4694" height="108.62" fill="#F6C500"/>
<rect x="0.428711" y="0.428711" width="91.4694" height="108.62" stroke="black" stroke-width="0.857525"/>
<path d="M56.0848 47.0814C56.6823 45.7074 57.3394 44.3333 58.116 42.9593C58.8329 41.645 59.6096 40.3904 60.3862 39.1956C60.3862 38.7774 60.4459 38.2995 60.4459 37.7618C60.3862 37.2839 60.3862 36.7462 60.4459 36.1488C60.3862 34.954 60.3862 34.0579 60.4459 33.4007C60.4459 32.8033 60.4459 32.2059 60.4459 31.6085C60.3862 31.1903 60.3862 30.7124 60.3862 30.2345C60.3265 29.7565 60.0875 29.3383 59.6693 28.9202C59.1914 28.5617 58.7732 28.3228 58.4147 28.1435C57.9368 28.024 57.5784 27.8448 57.2797 27.6059C57.0407 27.4864 56.9212 27.3669 56.9212 27.1279C56.8615 26.9487 56.8615 26.7695 56.981 26.5305C57.0407 26.411 57.2199 26.2318 57.4589 26.1123C57.6381 26.0526 57.9368 26.0526 58.355 26.1721C58.5342 26.2916 58.8927 26.3513 59.4303 26.4708C59.9083 26.65 60.5057 26.8292 61.1628 26.9487C61.7602 27.1877 62.3576 27.3669 62.9551 27.4864C63.5525 27.6656 64.0304 27.7851 64.3888 27.8448C64.8668 28.024 65.2849 28.2033 65.6434 28.3228C65.8824 28.5617 65.9421 28.9202 65.7629 29.5176C65.5239 30.1747 65.3447 30.8319 65.2252 31.5488C64.9862 32.3254 64.9265 33.102 64.9265 33.9384C64.9265 34.4761 64.9265 35.193 64.9265 36.1488C64.8668 37.1047 64.807 37.941 64.7473 38.6579C64.7473 39.0164 64.7473 39.4346 64.7473 39.9722C64.6875 40.5696 64.6875 41.2268 64.6875 41.8242C64.6278 42.4814 64.6278 43.0788 64.6278 43.6164C64.5681 44.2138 64.5681 44.6918 64.5681 44.9905C64.5681 45.6476 64.5681 46.1853 64.6278 46.6632C64.6278 47.2009 64.6278 47.6788 64.6278 48.1567C64.6278 48.6944 64.6278 49.2321 64.6875 49.7698C64.6875 50.3672 64.6875 51.0841 64.6875 51.8607V60.0452C64.5681 62.1959 64.5083 63.9284 64.5083 65.3621C64.4486 66.8557 64.4486 67.8713 64.4486 68.4089C64.4486 69.3648 64.3291 70.3804 64.2096 71.5155C64.0304 72.6505 63.8512 73.7856 63.6122 74.8609C63.3732 75.9363 63.0745 76.8921 62.8356 77.7883C62.5369 78.6246 62.2979 79.2818 62.0589 79.6402C61.82 79.9987 61.5213 80.4169 61.2823 80.835C60.9836 81.1935 60.7446 81.4325 60.5057 81.6117C60.2667 81.7312 60.0875 81.6714 59.968 81.4325C59.8485 81.1337 59.8485 80.5363 60.0277 79.6402C60.0875 79.0428 60.1472 78.2064 60.2667 77.1908C60.2667 76.1155 60.3265 74.9207 60.3862 73.6064C60.3862 72.2323 60.4459 70.8583 60.4459 69.3648C60.4459 67.931 60.4459 66.4375 60.4459 65.0037V57.775C60.4459 56.7594 60.3862 55.6841 60.3862 54.6088C60.3265 53.5334 60.3265 52.2789 60.3265 50.7256C60.207 49.7698 60.207 48.7542 60.207 47.7386C60.1472 46.7827 60.1472 45.8866 60.1472 45.0502C59.7888 45.8866 59.4901 46.6632 59.2511 47.3801C58.8927 48.2165 58.594 48.9931 58.2953 49.7698C57.9368 50.6061 57.5784 51.5022 57.2199 52.4581C56.742 53.4737 56.3835 54.4893 56.0251 55.5646C55.6069 56.64 55.2485 57.7153 55.0095 58.7906C54.6511 59.866 54.4718 60.8816 54.4121 61.7179C54.2926 62.3153 54.2926 62.7933 54.3524 63.2115C54.3524 63.6894 54.3524 64.1076 54.3524 64.4063C54.2329 64.7647 54.1134 65.0634 53.9342 65.1829C53.6952 65.3621 53.277 65.4219 52.7394 65.3024C52.1419 65.2427 51.664 65.1829 51.3056 65.0634C50.8874 65.0037 50.5887 64.8245 50.3497 64.5258C50.1108 64.2868 49.9315 63.9284 49.8718 63.3907C49.7523 62.9128 49.6926 62.1361 49.7523 61.1205C49.7523 60.4036 49.812 59.5075 49.812 58.4322C49.7523 57.4166 49.7523 56.3413 49.7523 55.2062C49.6926 54.1308 49.6926 53.0555 49.6926 51.9802C49.6926 50.9646 49.6926 50.0087 49.7523 49.1723C49.6926 48.1567 49.6926 47.2606 49.6926 46.484C49.6926 45.7671 49.6926 45.4087 49.812 45.3489C49.9315 45.2294 50.051 45.11 50.2302 45.11C50.3497 45.11 50.4095 44.9905 50.5289 44.6918C50.5289 44.5723 50.5289 44.3931 50.5289 44.2736C50.4095 44.1541 50.3497 44.0346 50.29 43.8554C50.1705 43.7359 50.051 43.5567 49.9913 43.3177C49.8718 43.1385 49.8718 42.8995 49.9315 42.5411C49.9913 42.1229 50.051 41.645 50.051 41.0476C49.9913 40.5696 49.9913 40.032 49.9913 39.4346C49.9913 38.2397 49.9913 37.3436 50.051 36.6865C50.051 36.0891 49.9913 35.4917 49.9913 34.8943C49.9315 34.4761 49.9315 33.9981 49.9315 33.5202C49.8718 33.0423 49.6328 32.6241 49.2146 32.2059C48.7367 31.8475 48.3185 31.6085 47.9601 31.4293C47.5419 31.3098 47.1834 31.1306 46.8847 30.8916C46.7055 30.7721 46.586 30.6526 46.586 30.4137C46.4666 30.2345 46.5263 30.0552 46.6458 29.8163C46.7055 29.6968 46.8847 29.5176 47.1237 29.3981C47.3029 29.3383 47.6016 29.3383 47.9601 29.4578C48.1393 29.5773 48.4977 29.6371 49.0354 29.7565C49.5133 29.9358 50.051 30.115 50.6484 30.2345C51.2458 30.4734 51.8432 30.6526 52.4406 30.7721C53.0381 30.9514 53.516 31.0708 53.8744 31.1306C54.3524 31.3098 54.7108 31.489 55.0692 31.6085C55.3082 31.8475 55.368 32.2059 55.2485 32.8033C55.0095 33.4605 54.8303 34.1176 54.7108 34.8345C54.4718 35.6111 54.4121 36.3878 54.4121 37.2242C54.3524 37.7618 54.3524 38.4787 54.3524 39.4346C54.3524 40.4502 54.2926 41.2865 54.2329 42.0034C54.2329 42.3619 54.1731 42.7203 54.1731 43.1982C54.1134 43.7359 54.0537 44.2736 54.0537 44.8113C53.9939 45.4087 53.9939 46.0061 53.9939 46.5437C53.9342 47.1412 53.9342 47.5593 53.9342 47.9178C53.8147 49.3516 53.9939 50.0087 54.3524 49.8892C54.7108 49.8295 55.2485 48.8736 56.0848 47.0814ZM47.7809 59.4478C47.9601 59.4478 48.199 59.5075 48.438 59.627C48.6172 59.7465 48.5575 59.9855 48.2588 60.2842C48.0198 60.4634 47.9003 60.7023 47.8406 61.001C47.7211 61.3595 47.6614 61.6582 47.5419 61.8972C47.4224 62.2556 47.2432 62.4946 47.1237 62.6738C46.8847 62.9128 46.6458 63.0322 46.2873 62.9128C45.9289 62.9128 45.5704 62.7933 45.2717 62.5543C44.9133 62.4348 44.6146 62.2556 44.3159 62.0166C43.9574 61.8374 43.599 61.6582 43.2405 61.4192C42.8821 61.2998 42.4639 61.1803 42.1055 61.1205C41.8665 61.1205 41.6873 61.1205 41.5678 61.0608C41.4483 61.0608 41.3288 61.0608 41.2094 61.0608C41.0301 61.0608 40.8509 61.1205 40.6717 61.1205C40.4327 61.24 40.0743 61.2998 39.5963 61.4192C38.1626 61.7777 36.9677 62.1959 35.9521 62.6738C34.8768 63.1517 33.9807 63.5699 33.3235 63.8089C32.8456 64.0478 32.4872 64.1673 32.2482 64.2271C31.9495 64.3465 31.7105 64.466 31.5313 64.5258C31.2924 64.6452 31.1131 64.705 30.9936 64.8245C30.7547 64.944 30.5755 65.1232 30.3365 65.3024C29.3806 66.079 28.4845 66.1985 27.6482 65.6011C27.1702 65.3024 26.6326 64.944 25.9157 64.5855C25.1988 64.2271 24.5416 63.9881 24.0637 63.8089C23.4663 63.6894 23.1676 63.4504 23.1676 62.9725C23.0481 62.6141 23.3468 62.3751 24.0637 62.3153C24.4819 62.3153 24.9598 62.3153 25.4975 62.2556C25.9754 62.2556 26.5131 62.1959 26.991 62.0166C27.6482 61.7777 28.4845 61.5387 29.5599 61.2998C30.5755 61.1205 31.6508 60.9413 32.7261 60.7023L34.6378 60.2842C35.7132 58.6114 36.5496 57.1179 37.0872 55.6841C37.5652 54.3101 37.9236 53.3542 38.1028 52.7568C38.2223 52.2789 38.3418 51.6815 38.521 51.0841C38.6405 50.5464 38.76 50.0685 38.8795 49.5905C38.9392 49.2321 38.9392 48.9334 38.9392 48.6944C38.8197 48.5749 38.6405 48.6347 38.282 48.8736L36.1911 50.3672C35.8327 50.6061 35.4742 50.9646 35.1755 51.5022C34.8171 52.0996 34.4586 52.6971 34.1002 53.2347C34.1002 53.8919 33.9807 54.3698 33.7417 54.6088C33.5028 54.8477 33.3235 55.0867 33.0846 55.3257C32.7859 55.6244 32.4872 55.8633 32.2482 56.0425C31.9495 56.2815 31.6508 56.3413 31.4118 56.3413C31.1131 56.3413 30.8742 56.162 30.6352 55.7438C30.3962 55.3854 30.1573 54.9075 29.9183 54.3101C29.6196 53.7724 29.3806 53.175 29.1417 52.5776C28.9027 51.9802 28.6638 51.4425 28.5443 50.8451C28.365 50.3074 28.2456 49.8295 28.2456 49.3516C28.1858 48.6347 28.1858 48.1567 28.2456 47.9775C28.2456 47.858 28.2456 47.6788 28.2456 47.4399C28.2456 47.1412 28.3053 46.9022 28.5443 46.7827C28.7235 46.723 28.9027 46.8424 29.1417 47.2009C29.2612 47.5593 29.3806 47.858 29.5001 48.0373C29.5599 48.2762 29.7391 48.4555 30.0378 48.6944C30.1573 48.9334 30.456 49.1126 30.8144 49.2321C31.1729 49.4113 31.5313 49.5905 31.9495 49.71C32.3079 49.8892 32.6664 50.0685 33.0248 50.1879C33.3235 50.4269 33.5625 50.6061 33.682 50.7853L33.9807 51.9802C34.4586 51.2035 34.9963 50.3074 35.534 49.2321C36.0119 48.2762 36.6093 47.5593 37.2067 47.0814C37.7444 46.7827 38.3418 46.484 38.9392 46.245C39.4769 46.0658 40.0743 46.0658 40.7912 46.1853C41.4483 46.3645 41.986 46.5437 42.4042 46.6632C42.7626 46.9022 43.1211 47.1412 43.4795 47.4399C43.838 47.6788 44.0769 48.0373 44.0769 48.5152C44.0172 48.9931 43.838 49.71 43.4795 50.6659C42.8821 52.1594 42.1055 53.7127 41.1496 55.2659C40.134 56.8789 39.0587 58.3724 37.9236 59.7465C37.9236 59.7465 38.0431 59.7465 38.1626 59.6867C38.2223 59.6867 38.4015 59.6867 38.6405 59.627C38.8197 59.627 39.1184 59.5673 39.5366 59.4478C39.8951 59.388 40.4327 59.2686 41.1496 59.1491C41.6275 59.0893 41.986 58.9699 42.2847 58.8504C42.5237 58.7906 42.7029 58.6712 42.8821 58.5517C43.0016 58.4919 43.0613 58.3724 43.1211 58.253C43.1211 58.1335 43.1808 58.014 43.3003 57.8945C43.4795 57.7153 43.7185 57.5361 44.0769 57.4166C44.3159 57.2971 44.7341 57.2374 45.2717 57.2374C45.8094 57.2374 46.2873 57.4166 46.6458 57.775C46.9445 58.1335 47.064 58.4919 47.064 58.7309C47.064 58.9699 47.1237 59.1491 47.3029 59.2686C47.4224 59.388 47.5419 59.4478 47.7809 59.4478ZM45.2717 39.793C45.6302 39.9125 45.8094 40.0917 45.9289 40.3307C45.9289 40.5696 45.9289 40.8684 45.8691 41.1671C45.6899 41.5255 45.3912 41.7047 44.9133 41.8242C44.4354 42.0034 43.9574 42.1229 43.4795 42.1827C43.0016 42.3021 42.0457 42.4814 40.7314 42.7203C39.2976 43.019 37.7444 43.258 36.0119 43.497C35.7729 43.6164 35.4742 43.6762 35.1755 43.6762C34.8171 43.7359 34.4586 43.7957 34.2197 43.7957C33.8612 43.8554 33.5625 43.9151 33.3235 43.9749C33.0248 44.0944 32.8456 44.2736 32.7261 44.3931C32.4872 44.6918 32.1885 44.9307 31.83 45.1697C31.4118 45.4684 30.9339 45.5879 30.3365 45.5879C29.7391 45.5879 29.0222 45.4684 28.1858 45.2294C27.3495 45.0502 26.6326 44.7515 26.1546 44.3931C25.617 44.0944 25.1988 43.8554 24.9001 43.6762C24.5416 43.5567 24.1832 43.497 23.765 43.3775C23.3468 43.3177 23.1078 43.1385 23.1078 42.8398C22.9884 42.6008 23.3468 42.4216 24.0637 42.3021L29.1417 41.406C29.5001 41.406 29.9781 41.406 30.456 41.5255C30.8742 41.645 31.4118 41.645 32.1287 41.406C32.7261 41.2865 33.3235 41.1671 33.8015 41.0476C34.2197 41.0476 34.6378 40.9878 35.056 40.8684C35.4145 40.8684 35.8327 40.8086 36.3106 40.6891C36.669 40.6891 37.2067 40.5696 37.8041 40.3904C38.0431 40.3307 38.2223 40.2112 38.4613 40.0917C38.5807 39.9722 38.8197 39.793 39.1184 39.5541C39.4769 39.1956 39.9548 38.8372 40.4327 38.5982C40.9106 38.3592 41.3886 38.2995 41.986 38.419C42.5834 38.6579 43.1808 38.8969 43.838 39.1359C44.4354 39.4943 44.9133 39.6735 45.2717 39.793Z" fill="white"/>
</svg>
