<svg width="93" height="110" viewBox="0 0 93 110" fill="none" xmlns="http://www.w3.org/2000/svg">
<rect x="0.428711" y="0.428711" width="91.4694" height="108.62" fill="#F6C500"/>
<rect x="0.428711" y="0.428711" width="91.4694" height="108.62" stroke="black" stroke-width="0.857525"/>
<path d="M45.1382 57.8348L45.7357 55.5646C44.8993 55.9231 44.1824 56.2218 43.4655 56.4607C42.7486 56.8192 42.1512 57.0581 41.6733 57.2374C41.0759 57.4763 40.4187 57.7153 39.7018 57.9543C38.9849 58.253 38.268 58.5517 37.5511 58.7906C36.7745 59.1491 36.0576 59.388 35.4602 59.627C34.8031 59.866 34.2654 60.1049 33.907 60.2244C33.1901 60.5231 32.5329 60.7023 31.816 60.7023C31.0394 60.7621 30.442 60.8218 30.0238 60.8218C29.0679 60.9413 28.4705 60.5231 28.1718 59.5673C27.8134 58.7309 27.6342 57.6556 27.6342 56.3413C27.6342 55.8633 27.6342 55.3854 27.6939 54.9672C27.6939 54.6088 27.6939 54.2503 27.8134 53.8919C27.8731 53.5334 28.0523 53.175 28.2913 52.8165C28.4705 52.4581 28.7692 52.0399 29.1277 51.562C29.4861 51.0841 29.9641 50.5464 30.6212 49.949C31.2186 49.4113 31.816 48.8736 32.4732 48.2762C33.0706 47.7983 33.6082 47.3204 34.1459 46.8424C34.6238 46.4243 34.9225 46.1256 35.1018 45.8866C35.4005 45.5281 35.52 45.2294 35.4005 44.9905C35.281 44.8113 34.9823 44.8113 34.5044 44.9905C34.0264 45.2892 33.4888 45.5879 33.0108 45.8268C32.4134 46.1256 31.7563 46.245 30.9199 46.1853C29.5459 46.1853 28.6497 45.5879 28.2316 44.3931C27.9329 43.8554 27.8731 43.3177 28.0523 42.7801C28.1718 42.3021 28.2913 42.1229 28.5303 42.3021C28.7692 42.5411 29.3069 42.7203 30.1433 42.7801C30.8602 42.8995 31.6368 42.9593 32.4134 42.8995C32.5927 42.8995 33.0108 42.8398 33.668 42.6606C34.2654 42.5411 34.9225 42.4216 35.6394 42.1827C36.2966 42.0632 36.9537 41.8839 37.6109 41.7047C38.2083 41.5852 38.6862 41.4658 38.9849 41.406C39.5823 41.3463 40.0005 41.2268 40.359 40.9878C40.6577 40.8086 41.0161 40.5099 41.3746 40.0917C41.733 39.7333 42.1512 39.3748 42.7486 39.0164C43.2265 38.7774 43.7642 38.6579 44.3616 38.7177C44.8993 38.8372 45.4967 39.0164 46.0941 39.1359C46.6915 39.3748 47.1097 39.4943 47.4681 39.6138C48.2448 39.9722 48.4837 40.5099 48.2448 41.2268C48.1253 41.5852 47.8266 41.8242 47.3487 41.9437C46.811 42.1229 46.3331 42.2424 45.8551 42.3021C44.5408 42.5411 43.2863 42.8995 42.0317 43.4372C40.7174 44.0346 39.4031 44.9905 38.0888 46.1853C37.4914 46.723 36.8343 47.3204 36.1174 48.0373C35.3407 48.7542 34.6836 49.471 34.2057 50.0685C33.9667 50.4269 33.668 50.6659 33.429 50.9048C33.1303 51.1438 32.8914 51.4425 32.7121 51.6815C32.4732 51.9802 32.2342 52.2789 32.1147 52.5776C31.9355 52.936 31.816 53.4139 31.816 53.9516C31.6965 54.6088 31.7563 55.1464 31.9952 55.5646C32.1745 56.0425 32.7121 56.162 33.6082 56.0425C34.0862 55.9231 34.6238 55.7438 35.1018 55.6244C35.52 55.5646 35.9381 55.4451 36.4161 55.2659C36.5953 55.2062 36.7745 55.1464 37.0135 55.0867C37.133 55.0867 37.3122 55.2062 37.5511 55.5049C37.6706 55.8036 37.8499 55.9828 38.0291 55.9828C38.1486 56.0425 38.3278 55.9828 38.4473 55.8633C38.5667 55.8036 38.6265 55.6841 38.746 55.5049C38.746 55.3854 38.746 55.2062 38.746 55.0867C38.746 54.9672 38.6862 54.9075 38.6862 54.788C38.5667 54.7282 38.5667 54.6088 38.6265 54.4893C38.6265 54.4295 38.746 54.3698 38.9849 54.2503C39.1044 54.1906 39.4629 54.1308 39.9408 54.0114C40.8966 53.8321 41.733 53.6529 42.5096 53.5334C43.2265 53.4139 43.7045 53.3542 43.8837 53.2945C43.9434 53.2945 43.9434 53.3542 43.9434 53.4737C43.8837 53.6529 43.8239 53.8321 43.8239 53.9516C43.7642 54.1308 43.7642 54.2503 43.8837 54.3101C43.8837 54.4295 44.0629 54.3698 44.3616 54.1308C44.6006 54.0114 44.8395 53.8321 44.959 53.7127C45.0188 53.5932 45.0785 53.4737 45.1382 53.3542C45.1382 53.2945 45.1382 53.2347 45.198 53.1152C45.198 53.0555 45.3175 52.9958 45.5564 52.8763L46.6318 52.6373C46.7513 52.3386 46.8707 52.0399 46.9902 51.7412C47.05 51.5022 47.1097 51.3828 47.2292 51.2633C47.4681 50.9646 48.0058 50.6061 48.7824 50.2477C49.4993 49.949 50.2162 49.8892 50.8136 50.1282C51.4708 50.3672 52.0085 50.7853 52.4266 51.3828C52.7851 51.9802 52.9643 52.5776 53.0838 53.175C53.1435 53.7724 53.0838 54.1308 52.9643 54.3101C52.7851 54.549 52.4266 54.788 51.9487 55.0867C51.4708 55.4451 51.0526 55.7438 50.6942 56.0425C50.2162 56.401 49.9175 56.6997 49.6786 56.8789C49.4396 57.1179 49.2604 57.2971 49.0214 57.2971C48.7824 57.3569 48.424 57.4166 48.0058 57.4166C47.5279 57.4763 47.2292 57.5361 46.9902 57.5958C46.7513 57.7153 46.5123 57.8348 46.2733 58.0737C46.0941 58.4322 45.8551 58.5517 45.5564 58.4919C45.198 58.4919 45.0188 58.253 45.1382 57.8348ZM47.6474 46.3645C46.6915 46.245 46.2136 46.0061 46.0941 45.6476C45.9746 45.2892 46.1538 45.11 46.7513 44.9905C46.9902 44.9905 47.2292 44.9307 47.4681 44.9307C47.5876 44.9307 47.8266 44.9307 48.0656 44.871C48.3045 44.871 48.6032 44.871 48.9617 44.8113C49.2604 44.8113 49.7383 44.8113 50.3357 44.6918C50.5747 44.6918 51.0526 44.632 51.65 44.5723C52.2474 44.5723 52.9046 44.5125 53.7409 44.3931C54.4578 44.3333 55.2942 44.2138 56.1903 44.0944C57.0267 44.0346 57.8033 43.9151 58.6397 43.6762C58.6397 43.3775 58.6397 43.0788 58.6994 42.7801C58.6994 42.5411 58.7592 42.3021 58.8787 42.1827C58.9981 42.0034 59.1176 41.8839 59.2969 41.8839C59.4163 41.9437 59.5358 41.8242 59.6553 41.5255C59.6553 41.406 59.6553 41.2268 59.5956 41.1073C59.4761 40.9878 59.3566 40.8684 59.2969 40.6891C59.1774 40.5696 59.0579 40.3307 58.9981 40.0917C58.8787 39.9125 58.8787 39.6735 58.9981 39.3151C59.0579 38.8969 59.1176 38.419 59.1176 37.8216C59.0579 37.3436 59.0579 36.806 59.0579 36.2683C58.9981 35.0735 58.9981 34.1774 59.0579 33.4605C59.0579 32.8631 59.0579 32.2657 59.0579 31.728C58.9981 31.3098 58.9384 30.8319 58.9384 30.2942C58.8787 29.8163 58.6397 29.3981 58.2215 28.9799C57.7436 28.6215 57.2657 28.3825 56.9072 28.2033C56.4293 28.0838 56.0708 27.9046 55.7124 27.6656C55.4734 27.5461 55.3539 27.4266 55.3539 27.1877C55.2942 27.0085 55.2942 26.8292 55.4137 26.5903C55.4734 26.4708 55.6527 26.2916 55.8916 26.1721C56.1306 26.1123 56.4293 26.1123 56.9072 26.1721C57.0864 26.2916 57.4449 26.411 58.0423 26.5305C58.5202 26.7097 59.1176 26.889 59.7748 27.0682C60.3722 27.3072 61.0293 27.4864 61.6865 27.6059C62.2839 27.7851 62.8216 27.9046 63.18 27.9643C63.7177 28.1435 64.1359 28.3228 64.4943 28.4422C64.793 28.6812 64.8528 29.0396 64.6735 29.6371C64.4346 30.2942 64.2554 30.9514 64.0761 31.6682C63.8372 32.4449 63.7177 33.2215 63.7177 33.9981C63.7177 34.5956 63.7177 35.3124 63.7177 36.2086C63.6579 37.1644 63.6579 38.0605 63.6579 38.7774C63.6579 39.1359 63.5982 39.5541 63.5982 40.0917C63.5385 40.6891 63.4787 41.3463 63.4787 41.9437C63.419 42.6008 63.419 43.1982 63.419 43.7359C63.3592 44.3333 63.3592 44.8113 63.3592 45.11C63.3592 46.3645 63.3592 47.4996 63.3592 48.5749C63.2995 49.6503 63.2995 50.7256 63.2995 51.8009C63.18 53.2945 63.18 54.549 63.18 55.5049C63.1203 56.5802 63.1203 57.2971 63.1203 57.6556C63.1203 58.3127 63.0008 59.0296 62.8813 59.8062C62.6423 60.6426 62.4631 61.4192 62.2242 62.1361C61.9255 62.9725 61.6267 63.6894 61.3878 64.2868C61.0293 64.944 60.7904 65.3621 60.5514 65.6011C60.3124 65.8998 60.0137 66.1388 59.7748 66.3777C59.4163 66.6764 59.1774 66.8557 58.9384 66.9154C58.6397 67.0349 58.4605 67.0349 58.341 66.7959C58.2215 66.6764 58.2215 66.2583 58.4007 65.6011C58.5202 65.0037 58.6397 64.0478 58.7592 62.6738C58.8189 61.3595 58.8787 59.9257 58.9384 58.3724C58.9384 56.8789 58.9384 55.3854 58.9384 53.8321C58.8787 52.3984 58.8787 51.1438 58.8787 50.1879C58.8787 49.5905 58.8787 48.9931 58.8787 48.336C58.7592 47.7386 58.6994 47.0217 58.6994 46.1853C58.102 46.484 57.5644 46.723 57.0267 46.9022C56.4293 47.1412 55.8916 47.3204 55.4137 47.3801C55.0552 47.4996 54.6968 47.5593 54.2189 47.6788C53.6812 47.7983 53.2033 47.9178 52.7254 47.9775C52.1877 48.097 51.7098 48.097 51.2916 48.097C50.8136 48.1567 50.5149 48.097 50.3357 47.9775C50.0967 47.858 49.9175 47.7386 49.798 47.5593C49.6188 47.4399 49.4396 47.2606 49.3201 47.0814C49.1409 46.9619 48.9617 46.7827 48.7227 46.6035C48.424 46.484 48.0656 46.4243 47.6474 46.3645ZM46.8707 63.6297C47.1694 63.6297 47.4681 63.8089 47.7071 64.0478C47.8863 64.3465 47.8266 64.705 47.5876 65.1232C47.4681 65.3621 47.2889 65.6011 47.1097 65.9595C46.8707 66.3777 46.6915 66.7959 46.5123 67.1544C46.2733 67.6323 46.0344 67.9907 45.9149 68.3492C45.6759 68.7674 45.5564 69.0661 45.4967 69.2453C45.437 69.4843 45.3772 69.9024 45.3175 70.3804C45.198 70.9778 45.0785 71.5155 45.0785 72.1129C45.0188 72.7103 45.0188 73.3077 45.0785 73.9051C45.0785 74.4428 45.2577 74.8609 45.4967 75.1597C45.9746 75.6973 46.572 76.0558 47.2292 76.235C47.8266 76.3545 48.424 76.474 49.0214 76.5337C49.6786 76.5337 50.5149 76.474 51.5903 76.474C52.5461 76.3545 53.5617 76.2947 54.6371 76.1752C55.5929 75.996 56.5488 75.8168 57.5046 75.6973C58.4007 75.5181 59.1176 75.3389 59.5956 75.1597C60.3722 74.8609 61.0891 74.7415 61.7462 74.8012C62.3436 74.8012 62.8813 74.9804 63.3592 75.4584C63.5982 75.6973 63.8372 75.8765 64.1359 76.1155C64.3748 76.235 64.6138 76.4142 64.8528 76.5934C64.9722 76.7129 65.0917 76.8324 65.1515 76.9519C65.1515 77.0714 65.032 77.1908 64.793 77.3103C64.2554 77.5493 63.7774 77.848 63.2995 78.087C62.8216 78.2662 62.1644 78.4454 61.3878 78.6844C61.0293 78.8038 60.7306 78.9233 60.6112 79.1026C60.3722 79.222 60.2527 79.3415 60.1332 79.5207C59.954 79.6402 59.7748 79.8194 59.5956 79.9987C59.3566 80.1182 59.0579 80.1779 58.6397 80.2974C58.1618 80.3571 57.3851 80.4169 56.3695 80.4766C55.2942 80.4766 54.0994 80.4169 52.9046 80.4169C51.65 80.3571 50.4552 80.2974 49.3799 80.2376C48.2448 80.1182 47.4084 80.0584 46.811 79.9389C46.0941 79.7597 45.3772 79.5207 44.7798 79.2818C44.1227 78.9233 43.585 78.5649 43.1071 78.087C42.6291 77.5493 42.2707 76.9519 42.0317 76.2947C41.733 75.5778 41.6135 74.7415 41.6733 73.7856C41.733 72.5908 41.7928 71.5155 41.8525 70.4401C41.8525 69.4245 41.9122 68.6479 41.9122 68.0505C41.9122 67.692 41.7928 67.3933 41.5538 67.0946C41.2551 66.8557 41.0161 66.6167 40.7772 66.2583C40.6577 66.1388 40.5382 66.0193 40.4187 65.7803C40.2395 65.6608 40.12 65.4816 40.0005 65.2427C39.881 65.0634 39.8213 64.8245 39.8213 64.5855C39.7616 64.3465 39.8213 64.1076 40.0005 63.8089C40.2992 63.2115 40.5382 62.853 40.7772 62.7335C40.9564 62.6738 41.1953 62.7335 41.4941 62.9128C41.6135 63.0322 41.6733 63.1517 41.733 63.2712C41.733 63.3907 41.733 63.5102 41.733 63.5699C41.733 63.6894 41.733 63.8089 41.7928 63.8686C41.7928 63.9881 41.9122 63.9881 42.1512 63.9881C42.5096 64.1076 42.8681 64.0478 43.2265 63.8686C43.5252 63.7491 43.9434 63.6297 44.4214 63.5699C44.8395 63.5699 45.2577 63.5102 45.7357 63.5102C46.1538 63.5699 46.5123 63.6297 46.8707 63.6297ZM33.6082 32.9825C33.7875 32.9825 34.0264 32.9825 34.3849 32.9228C34.6836 32.9228 35.042 32.9228 35.4005 32.8631C35.6992 32.8631 35.9979 32.8033 36.2966 32.7436C36.5356 32.7436 36.7745 32.6838 36.894 32.5644C37.3122 32.3254 37.8499 32.0864 38.4473 31.8475C38.9849 31.6682 39.5823 31.5488 40.1798 31.5488C40.5382 31.5488 41.0161 31.6682 41.4941 31.7877C41.972 31.9669 42.3304 32.1462 42.5694 32.2657C42.8084 32.5046 42.8084 32.6838 42.6889 32.8631C42.4499 33.102 42.4499 33.341 42.6889 33.58C42.7486 33.6397 42.8681 33.6994 43.0473 33.7592C43.1668 33.8787 43.346 33.9384 43.4655 34.0579C43.585 34.1774 43.6447 34.2968 43.7045 34.4163C43.7045 34.5956 43.585 34.715 43.4655 34.8345C43.2265 35.0137 42.9278 35.193 42.4499 35.3722C41.9122 35.6111 41.3148 35.8501 40.7174 35.9696C40.0603 36.2086 39.4031 36.328 38.8057 36.3878C38.1486 36.5073 37.6109 36.4475 37.1927 36.328C36.7148 36.2086 36.3563 36.0891 36.1174 35.8501C35.7589 35.6709 35.4602 35.4917 35.2213 35.2527C34.8628 35.0735 34.5641 34.8943 34.3251 34.715C33.9667 34.5956 33.668 34.4761 33.3095 34.4163C33.0108 34.4163 32.7719 34.2968 32.6524 34.1176C32.4732 33.9981 32.4134 33.8787 32.4732 33.6397C32.4732 33.5202 32.5329 33.341 32.7719 33.1618C32.8914 33.0423 33.1901 32.9825 33.6082 32.9825Z" fill="white"/>
</svg>
