<svg width="1326" height="442" viewBox="0 0 1326 442" fill="none" xmlns="http://www.w3.org/2000/svg">
<mask id="path-1-outside-1_392_1407" maskUnits="userSpaceOnUse" x="0" y="0" width="1326" height="442" fill="black">
<rect fill="white" width="1326" height="442"/>
<path d="M999 110H1325V222H1220V331H1146V441H178V331H105V222H1V110H326V1H999V110Z"/>
</mask>
<path d="M999 110H1325V222H1220V331H1146V441H178V331H105V222H1V110H326V1H999V110Z" fill="white"/>
<path d="M999 110H998V111H999V110ZM1325 110H1326V109H1325V110ZM1325 222V223H1326V222H1325ZM1220 222V221H1219V222H1220ZM1220 331V332H1221V331H1220ZM1146 331V330H1145V331H1146ZM1146 441V442H1147V441H1146ZM178 441H177V442H178V441ZM178 331H179V330H178V331ZM105 331H104V332H105V331ZM105 222H106V221H105V222ZM1 222H0V223H1V222ZM1 110V109H0V110H1ZM326 110V111H327V110H326ZM326 1V0H325V1H326ZM999 1H1000V0H999V1ZM999 110V111H1325V110V109H999V110ZM1325 110H1324V222H1325H1326V110H1325ZM1325 222V221H1220V222V223H1325V222ZM1220 222H1219V331H1220H1221V222H1220ZM1220 331V330H1146V331V332H1220V331ZM1146 331H1145V441H1146H1147V331H1146ZM1146 441V440H178V441V442H1146V441ZM178 441H179V331H178H177V441H178ZM178 331V330H105V331V332H178V331ZM105 331H106V222H105H104V331H105ZM105 222V221H1V222V223H105V222ZM1 222H2V110H1H0V222H1ZM1 110V111H326V110V109H1V110ZM326 110H327V1H326H325V110H326ZM326 1V2H999V1V0H326V1ZM999 1H998V110H999H1000V1H999Z" fill="black" mask="url(#path-1-outside-1_392_1407)"/>
<rect width="1322" height="110" transform="translate(2 111)" fill="white"/>
<path d="M33.1186 142.58C33.1186 141.2 33.2986 139.52 34.0186 138.44C34.7386 137.3 35.8786 136.52 36.9586 135.92L38.2186 137.3C37.5586 137.54 36.4186 138.32 35.8786 139.1C35.2786 140 35.2786 141.02 35.2786 141.86H38.3986V146.96H33.1186V142.58ZM40.7986 142.58C40.7986 141.2 40.9786 139.52 41.6986 138.44C42.4186 137.3 43.5586 136.52 44.6386 135.92L45.8986 137.3C45.2386 137.54 44.0986 138.32 43.5586 139.1C42.9586 140 42.9586 141.02 42.9586 141.86H46.0786V146.96H40.7986V142.58ZM108.668 180.92H55.868V178.52H93.128C93.908 174.2 96.848 156.92 97.148 148.4H62.768V146H100.388C99.848 159.2 96.548 176.3 96.068 178.52H108.668V180.92ZM146.763 138.8H149.763V160.28H158.763V137.6H161.763V190.4H158.763V162.68H149.763V188H146.763V138.8ZM144.363 177.38C139.443 178.22 132.003 178.94 123.663 178.94H118.263V160.16H134.763V146.24H118.143V143.84H137.763V162.56H121.263V176.54H124.863C132.243 176.54 138.963 175.88 144.363 175.1V177.38ZM178.859 182.96V186.32C178.859 188.06 178.859 188 178.139 189.38C177.419 190.76 175.919 191.78 174.779 192.32L173.579 191C175.199 190.16 176.399 189.56 176.759 187.64H173.399V182.96H178.859ZM258.97 152.06V165.56H255.97V137.6H258.97V149.54H267.37V152.06H258.97ZM260.65 189.8H224.17V178.1H256.15V171.44H224.17V169.04H259.15V180.5H227.17V187.4H260.65V189.8ZM233.05 143.6V144.74C233.05 155.06 243.31 160.1 247.69 161.66L245.71 164C240.97 161.72 233.89 157.4 231.55 151.22C229.75 158.18 220.15 164 216.13 165.38L214.21 163.22C222.67 159.92 230.05 153.62 230.05 144.74V143.6H217.33V141.2H245.53V143.6H233.05ZM339.702 163.4V190.4H336.702V137.6H339.702V160.94H348.822V163.4H339.702ZM297.102 178.88C311.382 172.46 319.842 159.14 321.042 146.6H300.342V144.2H324.402C322.902 161.48 312.942 174.08 299.562 180.74L297.102 178.88ZM359.618 182.6V187.94H354.218V182.6H359.618ZM426.049 138.8H429.049V157.88H438.649V137.6H441.649V190.4H438.649V160.4H429.049V188H426.049V138.8ZM423.049 175.7C420.949 176 414.049 176.9 407.389 176.9H399.049V143H402.049V174.5H407.569C413.629 174.5 420.589 173.72 423.049 173.36V175.7ZM519.621 137.6H522.621V190.4H519.621V137.6ZM483.921 159.14V176.3H503.121V159.14H483.921ZM480.921 143H483.921V156.74H503.121V143H506.121V178.7H480.921V143ZM583.036 189.8H545.416V177.92H578.236V171.32H545.416V168.92H581.236V180.32H548.416V187.4H583.036V189.8ZM578.416 137.6H581.416V165.56H578.416V137.6ZM541.816 143.6V159.8L560.356 159.86V143.6H541.816ZM538.816 141.2H563.356V162.26L538.816 162.2V141.2ZM639.132 189.8H599.712V178.28H634.512V172.16H599.712V169.76H637.512V180.68H602.712V187.4H639.132V189.8ZM645.012 162.08V164.48H592.212V162.08H645.012ZM638.292 146.78C638.292 152 631.152 156.2 618.612 156.2C606.132 156.2 598.932 152 598.932 146.78C598.932 141.56 606.132 137.42 618.612 137.42C631.152 137.42 638.292 141.92 638.292 146.78ZM635.172 146.78C635.172 142.64 628.032 139.82 618.612 139.82C609.072 139.82 602.052 142.64 602.052 146.78C602.052 150.8 609.072 153.74 618.612 153.74C628.032 153.74 635.172 150.8 635.172 146.78ZM681.584 143.6V159.8L700.124 159.86V143.6H681.584ZM678.584 141.2H703.124V162.26L678.584 162.2V141.2ZM719.084 152.66V165.56H716.084V137.6H719.084V150.14H727.484V152.66H719.084ZM720.884 189.8H684.884V178.04H716.084V171.38H684.884V168.98H719.084V180.44H687.884V187.4H720.884V189.8ZM747.819 161.48C742.599 161.48 739.179 165.26 739.179 170.18C739.179 175.1 742.599 178.7 747.819 178.7C753.099 178.7 756.459 175.1 756.459 170.18C756.459 165.26 753.099 161.48 747.819 161.48ZM747.819 159.02C754.479 159.02 759.519 163.82 759.519 170.18C759.519 176.54 754.479 181.34 747.819 181.34C741.159 181.34 736.119 176.54 736.119 170.18C736.119 163.82 741.159 159.02 747.819 159.02ZM734.319 151.46H761.319V153.86H734.319V151.46ZM740.619 142.76H755.019V145.16H740.619V142.76ZM778.179 160.76V137.6H781.179V190.4H778.179V163.16H769.179V188H766.179V138.8H769.179V160.76H778.179ZM842.651 169.88H860.051V180.74H825.251V187.4H861.551V189.8H822.251V178.34H857.051V172.28H822.251V169.88H839.651V162.92H814.751V160.52H867.551V162.92H842.651V169.88ZM839.591 141.98H821.771V139.64H860.171V141.98H842.471C842.651 148.7 857.171 154.52 863.411 155.66L861.491 157.76C852.071 155.66 843.791 151.1 841.031 146.06C836.411 153.5 823.631 157.34 820.691 157.82L818.771 155.6C825.371 154.58 839.711 148.1 839.591 141.98ZM906.846 159.5V138.98H909.846V188H906.846V162.26H897.846V159.5H906.846ZM918.246 137.6H921.246V190.4H918.246V137.6ZM895.566 147.2H878.706V144.8H898.926C898.266 162.74 888.306 174.56 877.926 180.86L875.286 179C886.326 172.52 894.846 161.96 895.566 147.2ZM937.621 182.6V187.94H932.221V182.6H937.621ZM977.353 161.12C977.353 170.3 980.893 177.68 987.493 177.68C994.093 177.68 997.513 170.24 997.513 161.12C997.513 152.12 994.093 144.68 987.493 144.68C980.893 144.68 977.353 152.06 977.353 161.12ZM974.233 161.18C974.233 149.54 979.453 141.92 987.433 141.92C995.473 141.92 1000.63 149.54 1000.63 161.18C1000.63 172.76 995.473 180.44 987.433 180.44C979.453 180.44 974.233 172.76 974.233 161.18ZM1016.41 162.98V190.4H1013.41V137.6H1016.41V160.58H1025.65V162.98H1016.41ZM1057.75 143.96C1058.71 150.74 1066.87 157.4 1078.75 160.28L1076.83 162.32C1069.45 160.22 1060.27 155.84 1056.25 147.92C1052.83 155.18 1043.23 160.46 1035.67 162.32L1033.75 160.28C1047.67 157.22 1054.75 148.22 1054.75 143.96V143.06H1036.93V140.66H1075.57V143.06H1057.75V143.96ZM1082.65 170.3H1057.75V190.4H1054.75V170.3H1029.85V167.9H1082.65V170.3ZM1122.22 172.4H1125.22V186.8H1158.82V189.2H1122.22V172.4ZM1154.02 137.6H1157.02V152.06H1165.36V154.46H1157.02V176H1154.02V137.6ZM1150.54 163.58C1146.94 164.12 1133.44 165.26 1125.52 165.26H1116.16V141.86H1142.56V144.26H1119.16V162.86H1125.7C1134.46 162.86 1146.94 161.84 1150.54 161.18V163.58ZM1177.72 174.86H1180.72V186.8H1217.32V189.2H1177.72V174.86ZM1198.72 167.84V181.22H1195.72V167.84H1170.22V165.44H1223.02V167.84H1198.72ZM1196.62 145.16C1193.5 153.08 1182.28 158.6 1175.74 160.1L1173.82 158.06C1183.78 155.9 1194.94 148.58 1194.94 140.9V138.56H1198.3V140.9C1198.3 148.58 1211.5 156.8 1219.42 158.06L1217.5 160.1C1210.42 158.48 1200.64 153.08 1196.62 145.16ZM1243.65 161.48C1238.43 161.48 1235.01 165.26 1235.01 170.18C1235.01 175.1 1238.43 178.7 1243.65 178.7C1248.93 178.7 1252.29 175.1 1252.29 170.18C1252.29 165.26 1248.93 161.48 1243.65 161.48ZM1243.65 159.02C1250.31 159.02 1255.35 163.82 1255.35 170.18C1255.35 176.54 1250.31 181.34 1243.65 181.34C1236.99 181.34 1231.95 176.54 1231.95 170.18C1231.95 163.82 1236.99 159.02 1243.65 159.02ZM1230.15 151.46H1257.15V153.86H1230.15V151.46ZM1236.45 142.76H1250.85V145.16H1236.45V142.76ZM1274.01 160.76V137.6H1277.01V190.4H1274.01V163.16H1265.01V188H1262.01V138.8H1265.01V160.76H1274.01ZM1293.09 182.6V187.94H1287.69V182.6H1293.09Z" fill="black"/>
<rect width="968" height="110" transform="translate(178 331)" fill="white"/>
<path d="M249.177 383.4V410.4H246.177V357.6H249.177V380.94H258.297V383.4H249.177ZM206.577 398.88C220.857 392.46 229.317 379.14 230.517 366.6H209.817V364.2H233.877C232.377 381.48 222.417 394.08 209.037 400.74L206.577 398.88ZM291.472 393.72C282.232 393.72 275.452 396.54 275.452 401.46C275.452 406.26 282.232 409.08 291.472 409.08C300.592 409.08 307.372 406.26 307.372 401.46C307.372 396.54 300.592 393.72 291.472 393.72ZM291.412 391.14C303.772 391.14 310.552 395.46 310.552 401.4C310.552 407.34 303.772 411.6 291.412 411.6C279.112 411.6 272.272 407.34 272.272 401.4C272.272 395.46 279.112 391.14 291.412 391.14ZM308.692 373.62V390.06H305.692V357.6H308.692V371.1H317.032V373.62H308.692ZM282.712 363.9V365.4C282.712 370.86 285.052 375.06 287.932 378C291.352 381.48 296.332 383.34 298.012 383.82L296.152 386.04C294.832 385.56 289.852 383.82 286.612 380.46C283.792 377.52 282.292 375.42 281.212 372.6C280.372 375.48 278.272 378.12 275.392 381C272.272 384.12 267.532 386.76 265.912 387.48L263.812 385.44C266.512 384.24 271.432 381.6 274.912 377.7C277.252 375.06 279.712 370.86 279.712 365.4V363.9H267.112V361.5H295.492V363.9H282.712ZM371.184 394.14C361.344 394.14 354.204 397.08 354.204 401.7C354.204 406.2 361.344 409.2 371.184 409.2C380.904 409.2 388.164 406.2 388.164 401.7C388.164 397.08 380.904 394.14 371.184 394.14ZM369.684 384.78H344.784V382.38H397.584V384.78H372.684V391.8C384.504 392.16 391.284 396.24 391.284 401.7C391.284 407.4 383.964 411.6 371.184 411.6C358.464 411.6 351.084 407.4 351.084 401.7C351.084 396.24 357.924 392.16 369.684 391.8V384.78ZM369.444 362.46H351.804V360.12H390.204V362.46H372.504C372.564 369.3 387.204 375 393.444 376.14L391.524 378.24C382.104 376.08 374.304 371.52 371.064 366.54C366.564 373.74 353.664 377.82 350.724 378.3L348.804 376.08C356.064 375.06 369.564 368.58 369.444 362.46ZM449.239 373.74C449.239 381.12 441.439 386.7 429.379 386.7C417.259 386.7 409.519 381.12 409.519 373.74C409.519 366.48 417.259 360.78 429.379 360.78C441.439 360.78 449.239 366.54 449.239 373.74ZM455.779 403.2H402.979V400.8H417.919V387.78H420.919V400.8H437.779V387.78H440.779V400.8H455.779V403.2ZM445.999 373.74C445.999 367.5 438.379 363.42 429.379 363.42C420.379 363.42 412.759 367.5 412.759 373.74C412.759 380.16 420.379 384.06 429.379 384.06C438.559 384.06 445.999 380.16 445.999 373.74ZM472.275 394.2H475.275V406.8H508.875V409.2H472.275V394.2ZM507.075 376.8V397.2H504.075V357.6H507.075V374.4H515.415V376.8H507.075ZM480.555 374.58C473.835 374.58 470.115 378 470.115 381.42C470.115 384.84 473.835 388.08 480.555 388.08C487.335 388.08 490.995 384.84 490.995 381.42C490.995 378 487.335 374.58 480.555 374.58ZM480.555 372.3C489.075 372.3 494.175 376.68 494.175 381.48C494.175 386.28 489.015 390.54 480.495 390.54C471.975 390.54 466.935 386.28 466.935 381.48C466.935 376.68 472.035 372.3 480.555 372.3ZM464.115 366.42H496.995V368.82H464.115V366.42ZM471.555 358.44H488.955V360.84H471.555V358.44ZM554.746 393H557.746V406.8H592.846V409.2H554.746V393ZM587.746 374.7V357.6H590.746V396H587.746V377.16H575.146V374.7H587.746ZM548.746 364.2V361.8H573.886C572.986 375.66 562.426 385.26 547.186 390.66L545.206 388.5C558.886 384.48 570.166 374.7 570.346 364.2H548.746ZM636.018 358.2V373.38H671.418V375.78H633.018V358.2H636.018ZM633.018 393.96H636.018V406.8H672.678V409.2H633.018V393.96ZM654.018 386.76V399.3H651.018V386.76H625.518V384.36H678.318V386.76H654.018ZM706.694 381.9C706.694 372.9 703.394 365.52 697.994 365.52C692.534 365.52 689.294 372.78 689.294 381.9C689.294 391.14 692.534 398.22 697.994 398.22C703.394 398.22 706.694 391.02 706.694 381.9ZM731.714 410.4H728.714V357.6H731.714V410.4ZM709.754 379.2H718.394V358.8H721.394V408H718.394V381.72H709.874V381.9C709.874 393.54 704.954 400.98 697.994 400.98C691.154 400.98 686.114 393.54 686.114 381.9C686.114 370.2 691.154 362.82 697.994 362.82C704.414 362.82 709.094 369.06 709.754 379.2ZM776.506 385.74H808.066V373.74H776.506V385.74ZM793.606 388.14V400.32H818.686V402.72H765.886V400.32H790.606V388.14H773.506V361.2H776.506V371.34H808.066V361.2H811.066V388.14H793.606ZM868.481 357.6H871.481V410.4H868.481V357.6ZM830.981 381.12C830.981 390.3 834.521 397.68 841.121 397.68C847.721 397.68 851.141 390.24 851.141 381.12C851.141 372.12 847.721 364.68 841.121 364.68C834.521 364.68 830.981 372.06 830.981 381.12ZM827.861 381.18C827.861 369.54 833.081 361.92 841.061 361.92C849.101 361.92 854.261 369.54 854.261 381.18C854.261 392.76 849.101 400.44 841.061 400.44C833.081 400.44 827.861 392.76 827.861 381.18ZM927.876 357.6H930.876V410.4H927.876V357.6ZM900.456 366.3H886.956V363.9H917.376V366.3H903.456V372.12C903.456 387.78 915.516 395.7 918.156 397.08L916.296 399.48C914.556 398.46 904.236 391.38 901.956 380.16C899.856 391.2 889.056 399.3 886.356 400.92L884.076 398.88C890.256 396 900.456 385.8 900.456 372.12V366.3ZM1009.75 372.18V384.42H1006.75V357.6H1009.75V369.66H1018.15V372.18H1009.75ZM994.748 371.4C994.748 378.18 989.108 383.4 980.888 383.4C972.728 383.4 967.028 378.18 967.028 371.4C967.028 364.62 972.668 359.28 980.888 359.28C989.108 359.28 994.748 364.68 994.748 371.4ZM991.448 371.4C991.448 366.18 987.848 362.1 980.888 362.1C974.048 362.1 970.328 366.3 970.328 371.4C970.328 376.56 974.108 380.7 980.888 380.7C987.788 380.7 991.448 376.56 991.448 371.4ZM1001.77 401.28C997.688 401.28 993.848 402.72 993.848 405.24C993.848 407.64 997.688 408.96 1001.77 408.96C1005.73 408.96 1009.63 407.52 1009.63 405.3C1009.63 402.78 1005.73 401.28 1001.77 401.28ZM1001.77 399.12C1008.25 399.12 1012.69 401.52 1012.69 405.24C1012.69 408.78 1008.19 411.36 1001.77 411.36C995.288 411.36 990.848 408.84 990.848 405.24C990.848 401.64 995.288 399.12 1001.77 399.12ZM989.348 409.08C988.508 409.32 982.328 409.74 979.928 409.74H973.808V388.26H976.808V407.34H979.928C982.328 407.34 988.328 406.86 989.348 406.62V409.08ZM988.748 393.54H1015.03V395.94H988.748V393.54ZM994.268 387.42H1009.27V389.82H994.268V387.42ZM1028.34 381.12C1028.34 390.3 1031.88 397.68 1038.48 397.68C1045.08 397.68 1048.5 390.24 1048.5 381.12C1048.5 372.12 1045.08 364.68 1038.48 364.68C1031.88 364.68 1028.34 372.06 1028.34 381.12ZM1025.22 381.18C1025.22 369.54 1030.44 361.92 1038.42 361.92C1046.46 361.92 1051.62 369.54 1051.62 381.18C1051.62 392.76 1046.46 400.44 1038.42 400.44C1030.44 400.44 1025.22 392.76 1025.22 381.18ZM1067.4 382.98V410.4H1064.4V357.6H1067.4V380.58H1076.64V382.98H1067.4ZM1087.32 402.6V407.94H1081.92V402.6H1087.32ZM1115.13 360.72C1115.13 362.1 1114.95 363.78 1114.23 364.86C1113.51 366 1112.37 366.78 1111.29 367.38L1110.03 366C1110.69 365.76 1111.83 364.98 1112.37 364.2C1112.97 363.3 1112.97 362.28 1112.97 361.44H1109.85V356.34H1115.13V360.72ZM1107.45 360.72C1107.45 362.1 1107.27 363.78 1106.55 364.86C1105.83 366 1104.69 366.78 1103.61 367.38L1102.35 366C1103.01 365.76 1104.15 364.98 1104.69 364.2C1105.29 363.3 1105.29 362.28 1105.29 361.44H1102.17V356.34H1107.45V360.72Z" fill="black"/>
<rect width="1115" height="110" transform="translate(105 221)" fill="white"/>
<path d="M184.229 290.92H131.429V288.52H168.689C169.469 284.2 172.409 266.92 172.709 258.4H138.329V256H175.949C175.409 269.2 172.109 286.3 171.629 288.52H184.229V290.92ZM201.024 283H204.024V296.8H239.124V299.2H201.024V283ZM234.024 264.7V247.6H237.024V286H234.024V267.16H221.424V264.7H234.024ZM195.024 254.2V251.8H220.164C219.264 265.66 208.704 275.26 193.464 280.66L191.484 278.5C205.164 274.48 216.444 264.7 216.624 254.2H195.024ZM279.596 257.2V285.94H298.196V257.2H279.596ZM276.596 254.8H301.196V288.34H276.596V254.8ZM316.796 271.6V300.4H313.796V247.6H316.796V269.2H326.396V271.6H316.796ZM382.791 273.94V276.34H329.991V273.94H382.791ZM337.491 299.8V282.76H375.291V299.8H337.491ZM340.491 297.4H372.291V285.16H340.491V297.4ZM376.071 257.62C376.071 263.38 368.931 267.82 356.391 267.82C343.911 267.82 336.711 263.38 336.711 257.62C336.711 251.86 343.911 247.42 356.391 247.42C368.931 247.42 376.071 251.86 376.071 257.62ZM373.131 257.62C373.131 252.94 365.931 249.82 356.391 249.82C346.731 249.82 339.591 252.94 339.591 257.62C339.591 262.18 346.731 265.42 356.391 265.42C365.931 265.42 373.131 262.18 373.131 257.62ZM440.986 289.12V291.52H388.186V289.12H440.986ZM414.586 251.86C426.046 251.86 433.966 257.74 433.966 265.18C433.966 272.62 426.046 278.5 414.586 278.5C403.366 278.5 395.206 272.62 395.206 265.18C395.206 257.8 403.246 251.86 414.586 251.86ZM414.586 254.68C405.946 254.68 398.506 258.7 398.506 265.18C398.506 271.42 405.886 275.68 414.586 275.68C423.106 275.68 430.666 271.48 430.666 265.18C430.666 258.82 423.106 254.68 414.586 254.68ZM470.922 279.76H454.002V264.94H487.602V255.04H453.762V252.64H490.602V267.34H457.002V277.36H493.242V279.76H473.922V290.68H499.182V293.08H446.382V290.68H470.922V279.76ZM539.174 275.74H570.734V263.74H539.174V275.74ZM556.274 278.14V290.32H581.354V292.72H528.554V290.32H553.274V278.14H536.174V251.2H539.174V261.34H570.734V251.2H573.734V278.14H556.274ZM592.449 271.12C592.449 280.3 595.989 287.68 602.589 287.68C609.189 287.68 612.609 280.24 612.609 271.12C612.609 262.12 609.189 254.68 602.589 254.68C595.989 254.68 592.449 262.06 592.449 271.12ZM589.329 271.18C589.329 259.54 594.549 251.92 602.529 251.92C610.569 251.92 615.729 259.54 615.729 271.18C615.729 282.76 610.569 290.44 602.529 290.44C594.549 290.44 589.329 282.76 589.329 271.18ZM631.509 272.98V300.4H628.509V247.6H631.509V270.58H640.749V272.98H631.509ZM688.984 264.34V278.74H698.344V281.14H688.984V300.4H685.984V247.6H688.984V261.94H698.344V264.34H688.984ZM649.924 271.12C649.924 280.3 653.464 287.68 660.064 287.68C666.664 287.68 670.084 280.24 670.084 271.12C670.084 262.12 666.664 254.68 660.064 254.68C653.464 254.68 649.924 262.06 649.924 271.12ZM646.804 271.18C646.804 259.54 652.024 251.92 660.004 251.92C668.044 251.92 673.204 259.54 673.204 271.18C673.204 282.76 668.044 290.44 660.004 290.44C652.024 290.44 646.804 282.76 646.804 271.18ZM773.316 262.06V275.56H770.316V247.6H773.316V259.54H781.716V262.06H773.316ZM774.996 299.8H738.516V288.1H770.496V281.44H738.516V279.04H773.496V290.5H741.516V297.4H774.996V299.8ZM747.396 253.6V254.74C747.396 265.06 757.656 270.1 762.036 271.66L760.056 274C755.316 271.72 748.236 267.4 745.896 261.22C744.096 268.18 734.496 274 730.476 275.38L728.556 273.22C737.016 269.92 744.396 263.62 744.396 254.74V253.6H731.676V251.2H759.876V253.6H747.396ZM819.908 275.74H851.468V263.74H819.908V275.74ZM837.008 278.14V290.32H862.088V292.72H809.288V290.32H834.008V278.14H816.908V251.2H819.908V261.34H851.468V251.2H854.468V278.14H837.008ZM912.483 247.6H915.483V286H912.483V247.6ZM879.483 283H882.483V296.8H916.983V299.2H879.483V283ZM884.523 252.34C877.503 252.34 873.543 256.96 873.543 262.84C873.543 268.72 877.503 273.34 884.523 273.34C891.603 273.34 895.503 268.72 895.503 262.84C895.503 256.96 891.603 252.34 884.523 252.34ZM884.523 249.52C892.863 249.52 898.803 255.46 898.803 262.84C898.803 270.22 892.863 276.16 884.523 276.16C876.183 276.16 870.243 270.22 870.243 262.84C870.243 255.46 876.183 249.52 884.523 249.52ZM966.179 247.6H969.179V269.44H978.179V271.84H969.179V300.4H966.179V247.6ZM962.579 286C958.979 286.54 947.459 287.68 939.539 287.68H930.179V254.38H955.979V256.78H933.179V285.28H939.719C948.479 285.28 958.979 284.26 962.579 283.6V286ZM991.374 283.24H994.374V296.8H1031.87V299.2H991.374V283.24ZM1036.67 275.8V278.2H983.874V275.8H1036.67ZM994.374 248.2V263.8H1030.07V266.2H991.374V248.2H994.374ZM1110.45 272.8H1097.85V270.28H1110.45V247.6H1113.45V300.4H1110.45V272.8ZM1068.87 288.88C1083.15 282.46 1091.61 269.14 1092.81 256.6H1072.11V254.2H1096.17C1094.67 271.48 1084.71 284.08 1071.33 290.74L1068.87 288.88ZM1168.28 264.34V278.74H1177.64V281.14H1168.28V300.4H1165.28V247.6H1168.28V261.94H1177.64V264.34H1168.28ZM1129.22 271.12C1129.22 280.3 1132.76 287.68 1139.36 287.68C1145.96 287.68 1149.38 280.24 1149.38 271.12C1149.38 262.12 1145.96 254.68 1139.36 254.68C1132.76 254.68 1129.22 262.06 1129.22 271.12ZM1126.1 271.18C1126.1 259.54 1131.32 251.92 1139.3 251.92C1147.34 251.92 1152.5 259.54 1152.5 271.18C1152.5 282.76 1147.34 290.44 1139.3 290.44C1131.32 290.44 1126.1 282.76 1126.1 271.18ZM1188.92 292.6V297.94H1183.52V292.6H1188.92Z" fill="black"/>
<rect width="673" height="110" transform="translate(326 1)" fill="white"/>
<path d="M357.169 32.58C357.169 31.2 357.349 29.52 358.069 28.44C358.789 27.3 359.929 26.52 361.009 25.92L362.269 27.3C361.609 27.54 360.469 28.32 359.929 29.1C359.329 30 359.329 31.02 359.329 31.86H362.449V36.96H357.169V32.58ZM364.849 32.58C364.849 31.2 365.029 29.52 365.749 28.44C366.469 27.3 367.609 26.52 368.689 25.92L369.949 27.3C369.289 27.54 368.149 28.32 367.609 29.1C367.009 30 367.009 31.02 367.009 31.86H370.129V36.96H364.849V32.58ZM426.119 42.06V55.56H423.119V27.6H426.119V39.54H434.519V42.06H426.119ZM427.799 79.8H391.319V68.1H423.299V61.44H391.319V59.04H426.299V70.5H394.319V77.4H427.799V79.8ZM400.199 33.6V34.74C400.199 45.06 410.459 50.1 414.839 51.66L412.859 54C408.119 51.72 401.039 47.4 398.699 41.22C396.899 48.18 387.299 54 383.279 55.38L381.359 53.22C389.819 49.92 397.199 43.62 397.199 34.74V33.6H384.479V31.2H412.679V33.6H400.199ZM506.371 27.6H509.371V58.5H506.371V27.6ZM491.911 80.4C487.171 77.82 483.211 71.82 481.771 67.92C480.871 71.88 476.551 77.76 471.811 80.34L469.771 78.48C476.671 74.7 480.271 68.16 480.271 61.14H483.271C483.271 68.16 487.531 74.1 491.851 77.34C496.171 74.1 500.491 68.16 500.491 61.14H503.491C503.491 68.16 507.151 74.64 514.051 78.42L512.011 80.28C507.271 77.7 502.891 71.88 501.991 67.92C500.551 71.82 496.651 77.58 491.911 80.4ZM478.951 32.28C471.871 32.28 467.971 36.72 467.971 42.24C467.971 47.76 471.871 52.2 478.951 52.2C486.091 52.2 489.931 47.76 489.931 42.24C489.931 36.72 486.091 32.28 478.951 32.28ZM478.951 29.46C487.291 29.46 493.231 35.16 493.231 42.24C493.231 49.32 487.291 55.02 478.951 55.02C470.611 55.02 464.671 49.32 464.671 42.24C464.671 35.16 470.611 29.46 478.951 29.46ZM546.746 51.12C546.746 42.12 543.326 34.68 536.726 34.68C530.126 34.68 526.586 42.06 526.586 51.12C526.586 60.3 530.126 67.68 536.726 67.68C543.326 67.68 546.746 60.24 546.746 51.12ZM549.806 49.5H564.386V27.6H567.386V80.4H564.386V51.9H549.866C549.626 63.06 544.526 70.44 536.666 70.44C528.686 70.44 523.466 62.76 523.466 51.18C523.466 39.54 528.686 31.92 536.666 31.92C544.286 31.92 549.326 38.82 549.806 49.5ZM584.961 72.6V77.94H579.561V72.6H584.961ZM612.776 30.72C612.776 32.1 612.596 33.78 611.876 34.86C611.156 36 610.016 36.78 608.936 37.38L607.676 36C608.336 35.76 609.476 34.98 610.016 34.2C610.616 33.3 610.616 32.28 610.616 31.44H607.496V26.34H612.776V30.72ZM605.096 30.72C605.096 32.1 604.916 33.78 604.196 34.86C603.476 36 602.336 36.78 601.256 37.38L599.996 36C600.656 35.76 601.796 34.98 602.336 34.2C602.936 33.3 602.936 32.28 602.936 31.44H599.816V26.34H605.096V30.72ZM699.402 70.92H646.602V68.52H683.862C684.642 64.2 687.582 46.92 687.882 38.4H653.502V36H691.122C690.582 49.2 687.282 66.3 686.802 68.52H699.402V70.92ZM712.298 63.24H715.298V76.8H752.798V79.2H712.298V63.24ZM757.598 55.8V58.2H704.798V55.8H757.598ZM715.298 28.2V43.8H750.998V46.2H712.298V28.2H715.298ZM794.17 33.6V49.8L812.71 49.86V33.6H794.17ZM791.17 31.2H815.71V52.26L791.17 52.2V31.2ZM831.67 42.66V55.56H828.67V27.6H831.67V40.14H840.07V42.66H831.67ZM833.47 79.8H797.47V68.04H828.67V61.38H797.47V58.98H831.67V70.44H800.47V77.4H833.47V79.8ZM891.365 42.06V27.6H894.365V58.8H891.365V44.46H882.365V58.8H879.365V28.5H882.365V42.06H891.365ZM875.765 79.74C871.505 77.52 867.305 73.26 865.625 69.12C863.705 73.14 860.165 77.04 855.485 79.74L853.325 78.06C858.545 75.3 864.065 69.66 864.065 63.84V62.52H867.065V63.84C867.065 69.66 872.765 75.18 875.765 76.62C878.525 75 884.225 69.66 884.225 63.84V62.52H887.225V63.84C887.225 69.66 892.745 75.24 897.965 78L895.805 79.68C891.605 77.16 887.405 73.2 885.605 69C884.165 73.02 879.485 77.46 875.765 79.74ZM861.305 44.16C855.965 44.16 852.965 47.04 852.965 50.4C852.965 53.76 855.965 56.52 861.305 56.52C866.765 56.52 869.705 53.76 869.705 50.4C869.705 47.04 866.765 44.16 861.305 44.16ZM861.305 41.76C868.505 41.76 872.885 45.66 872.885 50.4C872.885 55.14 868.505 58.86 861.305 58.86C854.165 58.86 849.725 55.14 849.725 50.4C849.725 45.66 854.165 41.76 861.305 41.76ZM848.165 36.18H874.685V38.58H848.165V36.18ZM854.585 29.28H867.905V31.68H854.585V29.28ZM943.86 27.6H946.86V49.44H955.86V51.84H946.86V80.4H943.86V27.6ZM940.26 66C936.66 66.54 925.14 67.68 917.22 67.68H907.86V34.38H933.66V36.78H910.86V65.28H917.4C926.16 65.28 936.66 64.26 940.26 63.6V66ZM968.035 72.6V77.94H962.635V72.6H968.035Z" fill="black"/>
</svg>
