<svg width="1282" height="312" viewBox="0 0 1282 312" fill="none" xmlns="http://www.w3.org/2000/svg">
<rect x="0.75" y="120.75" width="160" height="190" fill="white"/>
<rect x="0.75" y="120.75" width="160" height="190" stroke="black" stroke-width="1.5"/>
<path d="M113.829 198.65V165.05H119.079V257.45H113.829V202.85H89.6791V198.65H113.829ZM100.179 233.93L96.5041 237.71C93.0391 235.61 73.8241 223.22 68.4691 203.06C64.6891 223.22 45.0541 237.395 40.6441 239.705L36.4441 236.135C45.8941 231.095 65.8441 217.235 65.8441 187.625V170.72H71.0941V187.625C71.0941 217.655 95.0341 230.99 100.179 233.93Z" fill="black"/>
<rect x="160.75" y="120.75" width="160" height="190" fill="white"/>
<rect x="160.75" y="120.75" width="160" height="190" stroke="black" stroke-width="1.5"/>
<path d="M286.954 210.515H243.799V222.17H273.829V240.86H212.929V252.2H276.559V256.4H207.679V236.66H268.579V226.37H207.679V222.17H238.549V210.515H194.554V206.315H286.954V210.515ZM275.194 181.115C275.194 190.25 262.699 197.6 240.754 197.6C218.914 197.6 206.314 190.25 206.314 181.115C206.314 171.98 218.914 164.735 240.754 164.735C262.699 164.735 275.194 172.61 275.194 181.115ZM269.734 181.115C269.734 173.87 257.239 168.935 240.754 168.935C224.059 168.935 211.774 173.87 211.774 181.115C211.774 188.15 224.059 193.295 240.754 193.295C257.239 193.295 269.734 188.15 269.734 181.115Z" fill="black"/>
<rect x="320.75" y="120.75" width="160" height="190" fill="white"/>
<rect x="320.75" y="120.75" width="160" height="190" stroke="black" stroke-width="1.5"/>
<path d="M375.134 227H380.384V251.15H438.134V255.35H375.134V227ZM433.829 198.02V232.25H428.579V165.05H433.829V193.82H448.319V198.02H433.829ZM388.889 178.805C388.889 198.65 409.889 212.195 417.134 215.765L413.774 219.65C410.624 218.495 392.564 205.895 386.264 190.46C379.754 209.36 362.324 219.545 359.174 221.12L355.079 217.76C363.164 214.82 383.639 198.86 383.639 178.805V168.2H388.889V178.805Z" fill="black"/>
<rect x="480.75" y="120.75" width="160" height="190" fill="white"/>
<rect x="480.75" y="120.75" width="160" height="190" stroke="black" stroke-width="1.5"/>
<path d="M594.354 165.05H599.604V257.45H594.354V165.05ZM546.369 180.275H522.744V176.075H575.979V180.275H551.619V190.46C551.619 217.865 572.724 231.725 577.344 234.14L574.089 238.34C571.044 236.555 552.984 224.165 548.994 204.53C545.319 223.85 526.419 238.025 521.694 240.86L517.704 237.29C528.519 232.25 546.369 214.4 546.369 190.46V180.275Z" fill="black"/>
<rect x="640.75" y="0.75" width="160" height="190" fill="white"/>
<rect x="640.75" y="0.75" width="160" height="190" stroke="black" stroke-width="1.5"/>
<path d="M752.884 90.2V137.45H747.634V45.05H752.884V85.895H768.844V90.2H752.884ZM678.334 117.29C703.324 106.055 718.129 82.745 720.229 60.8H684.004V56.6H726.109C723.484 86.84 706.054 108.89 682.639 120.545L678.334 117.29Z" fill="black"/>
<rect x="800.75" y="60.75" width="160" height="190" fill="white"/>
<rect x="800.75" y="60.75" width="160" height="190" stroke="black" stroke-width="1.5"/>
<path d="M882.329 129.2C882.329 120.065 876.029 112.925 863.849 112.925C851.879 112.925 845.369 120.275 845.369 129.2C845.369 138.23 851.984 145.475 863.849 145.475C875.924 145.475 882.329 138.23 882.329 129.2ZM887.894 126.05H912.254V105.05H917.504V153.98H912.254V130.25H888.104C887.474 141.59 877.814 150.2 863.849 150.2C849.569 150.2 839.594 141.065 839.594 129.2C839.594 117.335 849.464 107.99 863.849 107.99C876.869 107.99 886.214 115.76 887.894 126.05ZM920.444 196.4H854.504V175.82H912.359V164.375H853.979V160.175H917.609V180.02H859.754V192.2H920.444V196.4Z" fill="black"/>
<rect x="960.75" y="120.75" width="160" height="190" fill="white"/>
<rect x="960.75" y="120.75" width="160" height="190" stroke="black" stroke-width="1.5"/>
<path d="M1007.15 176.075V211.04H1039.6V176.075H1007.15ZM1001.9 171.875H1044.85V215.24H1001.9V171.875ZM1012.93 227H1018.18V251.15H1076.98V255.35H1012.93V227ZM1072.78 198.02V232.25H1067.53V165.05H1072.78V193.61H1087.48V198.02H1072.78Z" fill="black"/>
<rect x="1120.75" y="60.75" width="160" height="190" fill="white"/>
<rect x="1120.75" y="60.75" width="160" height="190" stroke="black" stroke-width="1.5"/>
<path d="M1213.35 142.115V107.36H1218.6V193.25H1213.35V146.315H1193.4V142.115H1213.35ZM1233.3 105.05H1238.55V197.45H1233.3V105.05ZM1205.9 173.405C1199.6 174.35 1185.74 175.4 1174.71 175.4H1164V117.65H1196.66V121.85H1169.25V171.2H1175.03C1183.85 171.2 1199.6 170.36 1205.9 169.205V173.405Z" fill="black"/>
</svg>
