<svg width="162" height="192" viewBox="0 0 162 192" fill="none" xmlns="http://www.w3.org/2000/svg">
<rect x="0.75" y="0.75" width="160" height="190" fill="#90C85F"/>
<rect x="0.75" y="0.75" width="160" height="190" stroke="black" stroke-width="1.5"/>
<path d="M38.0391 121.65C35.9391 122.45 34.2391 121.45 33.6391 119.95C33.0391 118.35 33.4391 116.45 35.4391 115.55C51.5391 108.65 66.1391 89.75 66.1391 68.85V68.75H39.5391C37.6391 68.75 36.2391 67.25 36.2391 65.45C36.2391 63.65 37.6391 62.15 39.5391 62.15H99.7391C101.639 62.15 103.039 63.65 103.039 65.45C103.039 67.25 101.639 68.75 99.7391 68.75H73.1391V68.85C73.1391 89.35 86.8391 107.65 103.839 115.55C105.939 116.45 106.339 118.45 105.639 119.95C105.039 121.45 103.339 122.45 101.239 121.65C88.2391 116.25 74.5391 101.75 69.6391 86.55C64.7391 101.95 50.8391 116.55 38.0391 121.65ZM118.939 125.15C117.039 125.15 115.439 123.65 115.439 121.65V62.85C115.439 60.95 117.039 59.35 118.939 59.35C120.839 59.35 122.439 60.95 122.439 62.85V121.65C122.439 123.65 120.839 125.15 118.939 125.15Z" fill="white"/>
</svg>
