<svg width="162" height="192" viewBox="0 0 162 192" fill="none" xmlns="http://www.w3.org/2000/svg">
<rect x="0.75" y="0.75" width="160" height="190" fill="#90C85F"/>
<rect x="0.75" y="0.75" width="160" height="190" stroke="black" stroke-width="1.5"/>
<path d="M36.9391 121.35C32.8391 124.05 29.1391 118.35 33.3391 115.55C51.3391 103.65 64.5391 82.65 64.5391 66.45V64.25C64.5391 59.45 71.7391 59.45 71.7391 64.25V66.45C71.7391 82.65 84.9391 103.75 102.939 115.55C107.139 118.35 103.439 124.05 99.3391 121.35C85.1391 111.75 73.5391 97.45 68.1391 82.05C62.7391 97.45 51.1391 111.75 36.9391 121.35ZM117.939 125.15C116.039 125.15 114.439 123.65 114.439 121.65V62.85C114.439 60.95 116.039 59.35 117.939 59.35C119.839 59.35 121.439 60.95 121.439 62.85V87.05H127.339C129.239 87.05 130.739 88.55 130.739 90.45C130.739 92.35 129.239 93.85 127.339 93.85H121.439V121.65C121.439 123.65 119.839 125.15 117.939 125.15Z" fill="white"/>
</svg>
