<svg width="162" height="192" viewBox="0 0 162 192" fill="none" xmlns="http://www.w3.org/2000/svg">
<rect x="0.75" y="0.75" width="160" height="190" fill="#90C85F"/>
<rect x="0.75" y="0.75" width="160" height="190" stroke="black" stroke-width="1.5"/>
<path d="M38.6391 110.15C36.7391 110.15 35.3391 108.75 35.3391 106.85C35.3391 104.95 36.7391 103.55 38.6391 103.55H122.839C124.739 103.55 126.139 104.95 126.139 106.85C126.139 108.75 124.739 110.15 122.839 110.15H84.2391V123.75C84.2391 125.75 82.6391 127.25 80.7391 127.25C78.8391 127.25 77.2391 125.75 77.2391 123.75V110.15H38.6391ZM51.6391 95.35C43.4391 95.35 39.7391 92.95 39.7391 84.65V72.35C39.7391 64.05 43.4391 61.65 51.6391 61.65H117.439C122.039 61.65 122.039 68.05 117.439 68.05H53.1391C47.3391 68.05 46.7391 68.55 46.7391 74.95V82.55C46.7391 88.55 47.3391 88.95 53.0391 88.95H120.039C124.639 88.95 124.639 95.35 120.039 95.35H51.6391ZM112.839 75.05C114.639 75.05 115.939 76.35 115.939 78.15C115.939 79.95 114.639 81.25 112.839 81.25H55.4391C53.6391 81.25 52.3391 79.95 52.3391 78.15C52.3391 76.35 53.6391 75.05 55.4391 75.05H112.839Z" fill="white"/>
</svg>
