<svg width="162" height="192" viewBox="0 0 162 192" fill="none" xmlns="http://www.w3.org/2000/svg">
<rect x="0.75" y="0.75" width="160" height="190" fill="#90C85F"/>
<rect x="0.75" y="0.75" width="160" height="190" stroke="black" stroke-width="1.5"/>
<path d="M118.939 125.15C117.039 125.15 115.439 123.65 115.439 121.65V62.85C115.439 60.95 117.039 59.35 118.939 59.35C120.839 59.35 122.439 60.95 122.439 62.85V121.65C122.439 123.65 120.839 125.15 118.939 125.15ZM50.8391 121.75C42.2391 121.75 38.3391 119.15 38.3391 110.35V99.75C38.3391 89.95 42.6391 87.15 52.2391 87.15H80.6391C87.2391 87.15 87.9391 86.65 87.9391 79.55V76.25C87.9391 69.15 87.2391 68.65 80.6391 68.65H41.5391C37.2391 68.65 37.2391 62.15 41.5391 62.15H80.7391C90.5391 62.15 94.9391 64.95 94.9391 74.75V81.05C94.9391 90.85 90.6391 93.65 81.0391 93.65H52.6391C46.0391 93.65 45.3391 94.15 45.3391 101.25V109.15C45.3391 114.85 45.9391 115.25 52.0391 115.25C71.7391 115.25 89.9391 113.05 100.339 110.45C104.839 109.35 106.239 115.65 101.939 116.75C90.9391 119.55 71.9391 121.75 50.8391 121.75Z" fill="white"/>
</svg>
