<svg width="162" height="192" viewBox="0 0 162 192" fill="none" xmlns="http://www.w3.org/2000/svg">
<rect x="0.75" y="0.75" width="160" height="190" fill="#90C85F"/>
<rect x="0.75" y="0.75" width="160" height="190" stroke="black" stroke-width="1.5"/>
<path d="M117.939 107.05C116.039 107.05 114.439 105.55 114.439 103.55V62.85C114.439 60.95 116.039 59.35 117.939 59.35C119.839 59.35 121.439 60.95 121.439 62.85V79.45H127.339C129.239 79.45 130.739 80.95 130.739 82.85C130.739 84.75 129.239 86.25 127.339 86.25H121.439V103.55C121.439 105.55 119.839 107.05 117.939 107.05ZM53.3391 124.15C44.3391 124.15 40.8391 121.65 40.8391 115.15V106.85C40.8391 104.45 42.6391 103.25 44.4391 103.25C46.2391 103.25 48.0391 104.45 48.0391 106.85V113.45C48.0391 116.75 49.0391 117.35 54.5391 117.35H120.039C121.839 117.35 123.439 118.85 123.439 120.75C123.439 122.65 121.839 124.15 120.039 124.15H53.3391ZM66.8391 99.05C49.9391 99.05 35.0391 91.65 35.0391 79.15C35.0391 66.75 49.9391 59.35 66.8391 59.35C83.8391 59.35 98.6391 66.75 98.6391 79.15C98.6391 91.65 83.8391 99.05 66.8391 99.05ZM66.8391 92.45C81.9391 92.45 91.6391 86.65 91.6391 79.15C91.6391 71.75 81.9391 65.95 66.8391 65.95C51.7391 65.95 42.0391 71.75 42.0391 79.15C42.0391 86.65 51.7391 92.45 66.8391 92.45Z" fill="white"/>
</svg>
