<svg width="162" height="192" viewBox="0 0 162 192" fill="none" xmlns="http://www.w3.org/2000/svg">
<rect x="0.75" y="0.75" width="160" height="190" fill="#90C85F"/>
<rect x="0.75" y="0.75" width="160" height="190" stroke="black" stroke-width="1.5"/>
<path d="M118.939 125.15C117.039 125.15 115.439 123.65 115.439 121.65V89.85H110.339C108.439 89.85 106.939 88.35 106.939 86.45C106.939 84.55 108.439 83.05 110.339 83.05H115.439V62.85C115.439 60.95 117.039 59.35 118.939 59.35C120.839 59.35 122.439 60.95 122.439 62.85V121.65C122.439 123.65 120.839 125.15 118.939 125.15ZM65.8391 120.95C59.6391 113.45 54.1391 101.95 51.7391 91.75C49.2391 102.05 43.5391 113.55 37.4391 120.95C35.7391 122.95 33.6391 122.65 32.3391 121.45C31.2391 120.25 30.8391 118.35 32.3391 116.55C41.2391 105.85 48.2391 87.55 48.2391 69.85V64.75C48.2391 59.95 55.2391 59.95 55.2391 64.75C55.2391 66.45 55.1391 68.25 55.1391 69.95C55.1391 85.05 60.3391 102.25 68.7391 114.05C76.6391 102.85 82.4391 86.25 82.4391 69.95C82.4391 68.25 82.3391 66.45 82.3391 64.75C82.3391 59.95 89.3391 59.95 89.3391 64.75V69.85C89.3391 85.15 94.7391 104.15 105.039 116.55C106.539 118.35 106.239 120.25 105.039 121.45C103.839 122.65 101.639 122.95 100.039 120.95C93.9391 113.55 88.2391 102.15 85.8391 91.95C83.2391 102.05 77.7391 113.45 71.6391 120.95C70.7391 122.05 69.7391 122.45 68.7391 122.45C67.7391 122.45 66.7391 122.05 65.8391 120.95Z" fill="white"/>
</svg>
