<svg width="162" height="192" viewBox="0 0 162 192" fill="none" xmlns="http://www.w3.org/2000/svg">
<rect x="0.75" y="0.75" width="160" height="190" fill="#90C85F"/>
<rect x="0.75" y="0.75" width="160" height="190" stroke="black" stroke-width="1.5"/>
<path d="M38.6391 110.15C36.7391 110.15 35.3391 108.75 35.3391 106.85C35.3391 104.95 36.7391 103.55 38.6391 103.55H122.839C124.739 103.55 126.139 104.95 126.139 106.85C126.139 108.75 124.739 110.15 122.839 110.15H108.239V123.75C108.239 125.75 106.639 127.25 104.739 127.25C102.839 127.25 101.239 125.75 101.239 123.75V110.15H60.2391V123.75C60.2391 125.75 58.6391 127.25 56.7391 127.25C54.8391 127.25 53.2391 125.75 53.2391 123.75V110.15H38.6391ZM80.7391 96.15C55.2391 96.15 37.7391 89.05 37.7391 77.35C37.7391 65.65 55.2391 58.55 80.7391 58.55C106.239 58.55 123.739 65.65 123.739 77.35C123.739 89.05 106.239 96.15 80.7391 96.15ZM80.7391 89.55C101.839 89.55 116.739 84.05 116.739 77.35C116.739 70.65 101.839 65.15 80.7391 65.15C59.6391 65.15 44.7391 70.65 44.7391 77.35C44.7391 84.05 59.6391 89.55 80.7391 89.55Z" fill="white"/>
</svg>
