<svg width="92" height="22" viewBox="0 0 92 22" fill="none" xmlns="http://www.w3.org/2000/svg">
<path d="M0.989947 11.7898C0.449946 11.7898 0.0599464 11.3998 0.0599464 10.8598C0.0599464 10.3498 0.449946 9.95984 0.989947 9.95984H26.3999C26.9099 9.95984 27.2999 10.3498 27.2999 10.8598C27.2999 11.3998 26.9099 11.7898 26.3999 11.7898H14.7299V13.4398C21.7499 13.5298 26.4299 14.4598 26.4299 17.2798C26.4299 20.2198 21.3299 21.1198 13.7699 21.1198C6.20995 21.1198 0.929946 20.2198 0.929946 17.2798C0.929946 14.4898 5.66995 13.5298 12.6299 13.4398V11.7898H0.989947ZM13.7699 19.2298C20.1299 19.2298 24.2999 18.4798 24.2999 17.2798C24.2999 16.0798 20.1299 15.3298 13.7699 15.3298C7.40995 15.3298 3.05995 16.0798 3.05995 17.2798C3.05995 18.4798 7.40995 19.2298 13.7699 19.2298ZM1.34995 8.69984C0.119946 8.72984 -5.37038e-05 6.92984 1.28995 6.83984C6.44995 6.65984 12.5399 5.42984 12.6599 3.80984C9.11995 3.80984 5.54995 3.80984 2.00995 3.83984C1.49995 3.83984 1.10995 3.44984 1.10995 2.90984C1.10995 2.39984 1.49995 2.00984 2.00995 2.00984H12.6299V1.49984C12.6299 -0.000157237 14.7299 -0.000157237 14.7299 1.49984V2.00984H25.3199C25.8299 2.00984 26.2199 2.39984 26.2199 2.90984C26.2199 3.44984 25.8299 3.83984 25.3199 3.83984C21.7799 3.80984 18.2399 3.80984 14.6999 3.80984C14.8199 5.42984 20.9699 6.62984 26.0999 6.83984C27.3899 6.89984 27.2999 8.75984 26.0699 8.69984C21.8699 8.51984 15.8399 7.52984 13.6799 5.75984C11.3999 7.61984 5.72995 8.57984 1.34995 8.69984ZM57.3365 11.3098C56.7665 11.3098 56.2865 10.8598 56.2865 10.2598V7.34984H54.3965C53.8565 7.34984 53.4365 6.92984 53.4365 6.38984C53.4365 5.84984 53.8565 5.42984 54.3965 5.42984H56.2865V2.06984C56.2865 1.49984 56.7665 1.01984 57.3365 1.01984C57.9065 1.01984 58.3865 1.49984 58.3865 2.06984V10.2598C58.3865 10.8598 57.9065 11.3098 57.3365 11.3098ZM46.1465 21.1198C38.5565 21.1198 33.4265 19.7698 33.4265 16.7698C33.4265 13.7698 38.5565 12.4198 46.1465 12.4198C53.7365 12.4198 58.7465 13.7398 58.7465 16.7698C58.7465 19.7698 53.7365 21.1198 46.1465 21.1198ZM46.1465 19.1698C52.2665 19.1698 56.6465 18.1198 56.6465 16.7698C56.6465 15.4198 52.2665 14.3398 46.1465 14.3398C40.0265 14.3398 35.5265 15.4198 35.5265 16.7698C35.5265 18.1198 40.0265 19.1698 46.1465 19.1698ZM33.3965 4.25984C32.8565 4.25984 32.4365 3.86984 32.4365 3.32984C32.4365 2.78984 32.8565 2.42984 33.3965 2.42984H41.0465V1.88984C41.0465 1.10984 41.5565 0.749842 42.0965 0.749842C42.6365 0.749842 43.1765 1.10984 43.1465 1.88984V2.42984H50.4965C51.0365 2.42984 51.4565 2.78984 51.4565 3.32984C51.4565 3.86984 51.0365 4.25984 50.4965 4.25984C47.9765 4.22984 45.5465 4.22984 43.1165 4.22984V4.28984C43.1165 6.38984 47.1965 8.42984 51.3065 8.99984C51.9365 9.08984 52.2065 9.59984 52.1465 10.0798C52.0565 10.5598 51.6965 10.9798 51.0365 10.8898C47.5865 10.4098 43.9265 9.08984 42.0965 6.65984C40.2965 9.02984 36.2765 10.5298 32.6465 11.0698C32.0165 11.1598 31.6265 10.7098 31.5665 10.2298C31.5065 9.74984 31.7465 9.23984 32.3765 9.14984C36.6965 8.63984 41.0765 6.35984 41.0765 4.28984V4.22984C38.5565 4.22984 36.0365 4.22984 33.3965 4.25984ZM70.0031 13.9198C67.1531 13.9798 65.8931 13.1098 65.8931 10.3798V5.39984C65.8931 2.66984 67.1531 1.85984 70.0031 1.85984H88.7531C90.0731 1.85984 90.1331 3.83984 88.7531 3.83984H70.1831C68.2031 3.83984 67.9931 3.98984 67.9931 6.14984V9.80984C67.9931 11.7898 68.2031 11.9098 70.1831 11.9398H89.6531C91.0331 11.9398 90.9731 13.9198 89.6531 13.9198H70.0031ZM65.6531 20.2498C65.0831 20.2498 64.6631 19.8298 64.6631 19.2598C64.6631 18.6898 65.0831 18.2698 65.6531 18.2698H77.0831V16.3498C77.0831 15.7498 77.5631 15.2998 78.1331 15.2998C78.7031 15.2998 79.1831 15.7498 79.1831 16.3498V18.2698H90.6131C91.1831 18.2698 91.6031 18.6898 91.6031 19.2598C91.6031 19.8298 91.1831 20.2498 90.6131 20.2498H65.6531Z" fill="#90C85F"/>
</svg>
