<svg width="1920" height="1080" viewBox="0 0 1920 1080" fill="none" xmlns="http://www.w3.org/2000/svg">
<g clip-path="url(#clip0_302_348)">
<rect width="1920" height="1080" fill="#FF0561"/>
<path d="M66.48 98.68L64.76 96.88C74.2 92.28 79.48 84.28 80.48 75.24H66.96V73.08H83.4C82.84 85.12 75.92 93.92 66.48 98.68ZM93.52 106.28H90.88V70.72H93.52V84.6H99.52V86.88H93.52V106.28ZM107.237 96.04H105.237L104.717 71.68H107.757L107.237 96.04ZM108.517 102.68C108.517 103.92 107.557 104.88 106.277 104.88C104.917 104.88 103.957 103.92 103.957 102.68C103.957 101.52 104.917 100.48 106.277 100.48C107.557 100.48 108.517 101.52 108.517 102.68ZM66.48 158.68L64.76 156.88C74.2 152.28 79.48 144.28 80.48 135.24H66.96V133.08H83.4C82.84 145.12 75.92 153.92 66.48 158.68ZM93.52 166.28H90.88V130.72H93.52V144.6H99.52V146.88H93.52V166.28ZM109.877 156.2H107.557V154.48C107.557 150.84 108.437 148.68 111.997 145.76C114.277 143.88 115.837 141.44 115.837 139.16C115.837 135.4 112.717 133.8 109.397 133.8C107.437 133.8 104.477 134.6 102.397 135.84L101.437 134.04C103.597 132.76 106.877 131.76 109.597 131.76C114.117 131.76 118.397 133.88 118.397 139.08C118.397 142 116.877 144.48 114.157 146.76C110.677 149.76 109.877 151.2 109.877 154.64V156.2ZM110.997 162.68C110.997 163.92 109.997 164.88 108.757 164.88C107.397 164.88 106.437 163.92 106.437 162.68C106.437 161.52 107.397 160.48 108.757 160.48C109.997 160.48 110.997 161.52 110.997 162.68ZM66.48 218.68L64.76 216.88C74.2 212.28 79.48 204.28 80.48 195.24H66.96V193.08H83.4C82.84 205.12 75.92 213.92 66.48 218.68ZM93.52 226.28H90.88V190.72H93.52V204.6H99.52V206.88H93.52V226.28ZM103.277 218.68L101.557 216.88C110.997 212.28 116.277 204.28 117.277 195.24H103.757V193.08H120.197C119.637 205.12 112.717 213.92 103.277 218.68ZM130.317 226.28H127.677V190.72H130.317V204.6H136.317V206.88H130.317V226.28ZM144.034 216.04H142.034L141.514 191.68H144.554L144.034 216.04ZM145.314 222.68C145.314 223.92 144.354 224.88 143.074 224.88C141.714 224.88 140.754 223.92 140.754 222.68C140.754 221.52 141.714 220.48 143.074 220.48C144.354 220.48 145.314 221.52 145.314 222.68ZM66.48 278.68L64.76 276.88C74.2 272.28 79.48 264.28 80.48 255.24H66.96V253.08H83.4C82.84 265.12 75.92 273.92 66.48 278.68ZM93.52 286.28H90.88V250.72H93.52V264.6H99.52V266.88H93.52V286.28ZM103.277 278.68L101.557 276.88C110.997 272.28 116.277 264.28 117.277 255.24H103.757V253.08H120.197C119.637 265.12 112.717 273.92 103.277 278.68ZM130.317 286.28H127.677V250.72H130.317V264.6H136.317V266.88H130.317V286.28ZM146.674 276.2H144.354V274.48C144.354 270.84 145.234 268.68 148.794 265.76C151.074 263.88 152.634 261.44 152.634 259.16C152.634 255.4 149.514 253.8 146.194 253.8C144.234 253.8 141.274 254.6 139.194 255.84L138.234 254.04C140.394 252.76 143.674 251.76 146.394 251.76C150.914 251.76 155.194 253.88 155.194 259.08C155.194 262 153.674 264.48 150.954 266.76C147.474 269.76 146.674 271.2 146.674 274.64V276.2ZM147.794 282.68C147.794 283.92 146.794 284.88 145.554 284.88C144.194 284.88 143.234 283.92 143.234 282.68C143.234 281.52 144.194 280.48 145.554 280.48C146.794 280.48 147.794 281.52 147.794 282.68ZM66.48 338.68L64.76 336.88C74.2 332.28 79.48 324.28 80.48 315.24H66.96V313.08H83.4C82.84 325.12 75.92 333.92 66.48 338.68ZM93.52 346.28H90.88V310.72H93.52V324.6H99.52V326.88H93.52V346.28ZM103.277 338.68L101.557 336.88C110.997 332.28 116.277 324.28 117.277 315.24H103.757V313.08H120.197C119.637 325.12 112.717 333.92 103.277 338.68ZM130.317 346.28H127.677V310.72H130.317V324.6H136.317V326.88H130.317V346.28ZM140.074 338.68L138.354 336.88C147.794 332.28 153.074 324.28 154.074 315.24H140.554V313.08H156.994C156.434 325.12 149.514 333.92 140.074 338.68ZM167.114 346.28H164.474V310.72H167.114V324.6H173.114V326.88H167.114V346.28ZM183.471 336.2H181.151V334.48C181.151 330.84 182.031 328.68 185.591 325.76C187.871 323.88 189.431 321.44 189.431 319.16C189.431 315.4 186.311 313.8 182.991 313.8C181.031 313.8 178.071 314.6 175.991 315.84L175.031 314.04C177.191 312.76 180.471 311.76 183.191 311.76C187.711 311.76 191.991 313.88 191.991 319.08C191.991 322 190.471 324.48 187.751 326.76C184.271 329.76 183.471 331.2 183.471 334.64V336.2ZM184.591 342.68C184.591 343.92 183.591 344.88 182.351 344.88C180.991 344.88 180.031 343.92 180.031 342.68C180.031 341.52 180.991 340.48 182.351 340.48C183.591 340.48 184.591 341.52 184.591 342.68ZM66.48 398.68L64.76 396.88C74.2 392.28 79.48 384.28 80.48 375.24H66.96V373.08H83.4C82.84 385.12 75.92 393.92 66.48 398.68ZM93.52 406.28H90.88V370.72H93.52V384.6H99.52V386.88H93.52V406.28ZM114.527 398.68L112.807 396.88C122.247 392.28 127.527 384.28 128.527 375.24H115.007V373.08H131.447C130.887 385.12 123.967 393.92 114.527 398.68ZM141.567 406.28H138.927V370.72H141.567V384.6H147.567V386.88H141.567V406.28ZM151.324 398.68L149.604 396.88C159.044 392.28 164.324 384.28 165.324 375.24H151.804V373.08H168.244C167.684 385.12 160.764 393.92 151.324 398.68ZM178.364 406.28H175.724V370.72H178.364V384.6H184.364V386.88H178.364V406.28ZM192.361 402.32C192.361 403.6 191.361 404.56 190.081 404.56C188.721 404.56 187.721 403.6 187.721 402.32C187.721 401.12 188.721 400.08 190.081 400.08C191.361 400.08 192.361 401.12 192.361 402.32ZM203.337 402.32C203.337 403.6 202.337 404.56 201.057 404.56C199.697 404.56 198.697 403.6 198.697 402.32C198.697 401.12 199.697 400.08 201.057 400.08C202.337 400.08 203.337 401.12 203.337 402.32ZM214.314 402.32C214.314 403.6 213.314 404.56 212.034 404.56C210.674 404.56 209.674 403.6 209.674 402.32C209.674 401.12 210.674 400.08 212.034 400.08C213.314 400.08 214.314 401.12 214.314 402.32ZM66.48 458.68L64.76 456.88C74.2 452.28 79.48 444.28 80.48 435.24H66.96V433.08H83.4C82.84 445.12 75.92 453.92 66.48 458.68ZM93.52 466.28H90.88V430.72H93.52V444.6H99.52V446.88H93.52V466.28ZM103.277 458.68L101.557 456.88C110.997 452.28 116.277 444.28 117.277 435.24H103.757V433.08H120.197C119.637 445.12 112.717 453.92 103.277 458.68ZM130.317 466.28H127.677V430.72H130.317V444.6H136.317V446.88H130.317V466.28ZM151.324 458.68L149.604 456.88C159.044 452.28 164.324 444.28 165.324 435.24H151.804V433.08H168.244C167.684 445.12 160.764 453.92 151.324 458.68ZM178.364 466.28H175.724V430.72H178.364V444.6H184.364V446.88H178.364V466.28ZM188.121 458.68L186.401 456.88C195.841 452.28 201.121 444.28 202.121 435.24H188.601V433.08H205.041C204.481 445.12 197.561 453.92 188.121 458.68ZM215.161 466.28H212.521V430.72H215.161V444.6H221.161V446.88H215.161V466.28ZM231.518 456.2H229.198V454.48C229.198 450.84 230.078 448.68 233.638 445.76C235.918 443.88 237.478 441.44 237.478 439.16C237.478 435.4 234.358 433.8 231.038 433.8C229.078 433.8 226.118 434.6 224.038 435.84L223.078 434.04C225.238 432.76 228.518 431.76 231.238 431.76C235.758 431.76 240.038 433.88 240.038 439.08C240.038 442 238.518 444.48 235.798 446.76C232.318 449.76 231.518 451.2 231.518 454.64V456.2ZM232.638 462.68C232.638 463.92 231.638 464.88 230.398 464.88C229.038 464.88 228.078 463.92 228.078 462.68C228.078 461.52 229.038 460.48 230.398 460.48C231.638 460.48 232.638 461.52 232.638 462.68ZM66.48 518.68L64.76 516.88C74.2 512.28 79.48 504.28 80.48 495.24H66.96V493.08H83.4C82.84 505.12 75.92 513.92 66.48 518.68ZM93.52 526.28H90.88V490.72H93.52V504.6H99.52V506.88H93.52V526.28ZM103.277 518.68L101.557 516.88C110.997 512.28 116.277 504.28 117.277 495.24H103.757V493.08H120.197C119.637 505.12 112.717 513.92 103.277 518.68ZM130.317 526.28H127.677V490.72H130.317V504.6H136.317V506.88H130.317V526.28ZM151.324 518.68L149.604 516.88C159.044 512.28 164.324 504.28 165.324 495.24H151.804V493.08H168.244C167.684 505.12 160.764 513.92 151.324 518.68ZM178.364 526.28H175.724V490.72H178.364V504.6H184.364V506.88H178.364V526.28ZM188.121 518.68L186.401 516.88C195.841 512.28 201.121 504.28 202.121 495.24H188.601V493.08H205.041C204.481 505.12 197.561 513.92 188.121 518.68ZM215.161 526.28H212.521V490.72H215.161V504.6H221.161V506.88H215.161V526.28ZM229.158 522.32C229.158 523.6 228.158 524.56 226.878 524.56C225.518 524.56 224.518 523.6 224.518 522.32C224.518 521.12 225.518 520.08 226.878 520.08C228.158 520.08 229.158 521.12 229.158 522.32ZM240.134 522.32C240.134 523.6 239.134 524.56 237.854 524.56C236.494 524.56 235.494 523.6 235.494 522.32C235.494 521.12 236.494 520.08 237.854 520.08C239.134 520.08 240.134 521.12 240.134 522.32ZM251.111 522.32C251.111 523.6 250.111 524.56 248.831 524.56C247.471 524.56 246.471 523.6 246.471 522.32C246.471 521.12 247.471 520.08 248.831 520.08C250.111 520.08 251.111 521.12 251.111 522.32ZM66.48 578.68L64.76 576.88C74.2 572.28 79.48 564.28 80.48 555.24H66.96V553.08H83.4C82.84 565.12 75.92 573.92 66.48 578.68ZM93.52 586.28H90.88V550.72H93.52V564.6H99.52V566.88H93.52V586.28ZM103.277 578.68L101.557 576.88C110.997 572.28 116.277 564.28 117.277 555.24H103.757V553.08H120.197C119.637 565.12 112.717 573.92 103.277 578.68ZM130.317 586.28H127.677V550.72H130.317V564.6H136.317V566.88H130.317V586.28ZM151.324 578.68L149.604 576.88C159.044 572.28 164.324 564.28 165.324 555.24H151.804V553.08H168.244C167.684 565.12 160.764 573.92 151.324 578.68ZM178.364 586.28H175.724V550.72H178.364V564.6H184.364V566.88H178.364V586.28ZM188.121 578.68L186.401 576.88C195.841 572.28 201.121 564.28 202.121 555.24H188.601V553.08H205.041C204.481 565.12 197.561 573.92 188.121 578.68ZM215.161 586.28H212.521V550.72H215.161V564.6H221.161V566.88H215.161V586.28ZM224.918 578.68L223.198 576.88C232.638 572.28 237.918 564.28 238.918 555.24H225.398V553.08H241.838C241.278 565.12 234.358 573.92 224.918 578.68ZM251.958 586.28H249.318V550.72H251.958V564.6H257.958V566.88H251.958V586.28ZM268.314 576.2H265.994V574.48C265.994 570.84 266.874 568.68 270.434 565.76C272.714 563.88 274.274 561.44 274.274 559.16C274.274 555.4 271.154 553.8 267.834 553.8C265.874 553.8 262.914 554.6 260.834 555.84L259.874 554.04C262.034 552.76 265.314 551.76 268.034 551.76C272.554 551.76 276.834 553.88 276.834 559.08C276.834 562 275.314 564.48 272.594 566.76C269.114 569.76 268.314 571.2 268.314 574.64V576.2ZM269.434 582.68C269.434 583.92 268.434 584.88 267.194 584.88C265.834 584.88 264.874 583.92 264.874 582.68C264.874 581.52 265.834 580.48 267.194 580.48C268.434 580.48 269.434 581.52 269.434 582.68ZM66.48 638.68L64.76 636.88C74.2 632.28 79.48 624.28 80.48 615.24H66.96V613.08H83.4C82.84 625.12 75.92 633.92 66.48 638.68ZM93.52 646.28H90.88V610.72H93.52V624.6H99.52V626.88H93.52V646.28ZM103.277 638.68L101.557 636.88C110.997 632.28 116.277 624.28 117.277 615.24H103.757V613.08H120.197C119.637 625.12 112.717 633.92 103.277 638.68ZM130.317 646.28H127.677V610.72H130.317V624.6H136.317V626.88H130.317V646.28ZM151.324 638.68L149.604 636.88C159.044 632.28 164.324 624.28 165.324 615.24H151.804V613.08H168.244C167.684 625.12 160.764 633.92 151.324 638.68ZM178.364 646.28H175.724V610.72H178.364V624.6H184.364V626.88H178.364V646.28ZM188.121 638.68L186.401 636.88C195.841 632.28 201.121 624.28 202.121 615.24H188.601V613.08H205.041C204.481 625.12 197.561 633.92 188.121 638.68ZM215.161 646.28H212.521V610.72H215.161V624.6H221.161V626.88H215.161V646.28ZM236.168 638.68L234.448 636.88C243.888 632.28 249.168 624.28 250.168 615.24H236.648V613.08H253.088C252.528 625.12 245.608 633.92 236.168 638.68ZM263.208 646.28H260.568V610.72H263.208V624.6H269.208V626.88H263.208V646.28ZM272.964 638.68L271.244 636.88C280.684 632.28 285.964 624.28 286.964 615.24H273.444V613.08H289.884C289.324 625.12 282.404 633.92 272.964 638.68ZM300.004 646.28H297.364V610.72H300.004V624.6H306.004V626.88H300.004V646.28ZM316.361 636.2H314.041V634.48C314.041 630.84 314.921 628.68 318.481 625.76C320.761 623.88 322.321 621.44 322.321 619.16C322.321 615.4 319.201 613.8 315.881 613.8C313.921 613.8 310.961 614.6 308.881 615.84L307.921 614.04C310.081 612.76 313.361 611.76 316.081 611.76C320.601 611.76 324.881 613.88 324.881 619.08C324.881 622 323.361 624.48 320.641 626.76C317.161 629.76 316.361 631.2 316.361 634.64V636.2ZM317.481 642.68C317.481 643.92 316.481 644.88 315.241 644.88C313.881 644.88 312.921 643.92 312.921 642.68C312.921 641.52 313.881 640.48 315.241 640.48C316.481 640.48 317.481 641.52 317.481 642.68ZM66.48 698.68L64.76 696.88C74.2 692.28 79.48 684.28 80.48 675.24H66.96V673.08H83.4C82.84 685.12 75.92 693.92 66.48 698.68ZM93.52 706.28H90.88V670.72H93.52V684.6H99.52V686.88H93.52V706.28ZM103.277 698.68L101.557 696.88C110.997 692.28 116.277 684.28 117.277 675.24H103.757V673.08H120.197C119.637 685.12 112.717 693.92 103.277 698.68ZM130.317 706.28H127.677V670.72H130.317V684.6H136.317V686.88H130.317V706.28ZM140.074 698.68L138.354 696.88C147.794 692.28 153.074 684.28 154.074 675.24H140.554V673.08H156.994C156.434 685.12 149.514 693.92 140.074 698.68ZM167.114 706.28H164.474V670.72H167.114V684.6H173.114V686.88H167.114V706.28ZM188.121 698.68L186.401 696.88C195.841 692.28 201.121 684.28 202.121 675.24H188.601V673.08H205.041C204.481 685.12 197.561 693.92 188.121 698.68ZM215.161 706.28H212.521V670.72H215.161V684.6H221.161V686.88H215.161V706.28ZM236.168 698.68L234.448 696.88C243.888 692.28 249.168 684.28 250.168 675.24H236.648V673.08H253.088C252.528 685.12 245.608 693.92 236.168 698.68ZM263.208 706.28H260.568V670.72H263.208V684.6H269.208V686.88H263.208V706.28ZM272.964 698.68L271.244 696.88C280.684 692.28 285.964 684.28 286.964 675.24H273.444V673.08H289.884C289.324 685.12 282.404 693.92 272.964 698.68ZM300.004 706.28H297.364V670.72H300.004V684.6H306.004V686.88H300.004V706.28ZM314.001 702.32C314.001 703.6 313.001 704.56 311.721 704.56C310.361 704.56 309.361 703.6 309.361 702.32C309.361 701.12 310.361 700.08 311.721 700.08C313.001 700.08 314.001 701.12 314.001 702.32ZM324.978 702.32C324.978 703.6 323.978 704.56 322.698 704.56C321.338 704.56 320.338 703.6 320.338 702.32C320.338 701.12 321.338 700.08 322.698 700.08C323.978 700.08 324.978 701.12 324.978 702.32ZM335.954 702.32C335.954 703.6 334.954 704.56 333.674 704.56C332.314 704.56 331.314 703.6 331.314 702.32C331.314 701.12 332.314 700.08 333.674 700.08C334.954 700.08 335.954 701.12 335.954 702.32Z" fill="white"/>
<path d="M507.6 112.66H482.28V90.34H507.6V112.66ZM527.16 137.98L525.06 140.92C516.72 139.3 508.5 134.44 505.98 129.04C503.52 134.44 495.24 139.3 486.9 140.92L484.92 137.98C493.38 136.36 503.46 130.84 503.76 123.82H487.62V120.58H524.34V123.82H508.14C508.56 130.84 518.52 136.36 527.16 137.98ZM503.58 109.42V93.52H486.3V109.42H503.58ZM523.62 117.7H519.66V87.58H523.62V99.16H531.78V102.52H523.62V117.7ZM571.435 121.42V124.66C564.715 126.04 554.215 126.64 546.175 126.64H537.895V90.04H541.855V123.34H546.175C554.215 123.34 564.235 122.74 571.435 121.42ZM577.975 140.92H574.015V87.58H577.975V105.88H586.975V109.3H577.975V140.92Z" fill="white"/>
<path d="M231.5 180.92H222.96V169.04H231.5V180.92ZM230.14 179.84V170.12H224.28V179.84H230.14ZM236.82 185.64H235.48V167.86H236.82V185.64ZM252.058 177.22L251.318 178.2C249.118 177.48 247.038 175.88 246.258 174.16C245.598 175.92 243.438 177.8 240.978 178.78L240.178 177.86C242.998 176.92 245.518 174.42 245.518 172.08V171.72H241.198V170.64H251.158V171.72H246.938V172.08C246.938 174.26 249.418 176.52 252.058 177.22ZM256.258 185.36H243.698V180H245.038V184.28H256.258V185.36ZM255.598 181.2H254.258V167.86H255.598V181.2ZM248.978 169H243.378V167.94H248.978V169ZM259.517 181.82L258.497 180.96C262.637 178.64 264.777 174.2 265.017 170.24H259.497V169.16H266.457C266.357 174.66 263.717 179.26 259.517 181.82ZM274.137 185.64H272.817V175.84H269.917V184.8H268.597V168.16H269.917V174.66H272.817V167.86H274.137V185.64ZM292.435 185.64H291.095V167.86H292.435V185.64ZM277.795 175.1C277.795 170.84 279.755 168.34 282.355 168.34C284.975 168.34 286.915 170.84 286.915 175.1C286.915 179.38 284.975 181.88 282.355 181.88C279.755 181.88 277.795 179.38 277.795 175.1ZM285.575 175.1C285.575 171.44 284.235 169.42 282.355 169.42C280.495 169.42 279.135 171.44 279.135 175.1C279.135 178.78 280.495 180.8 282.355 180.8C284.235 180.8 285.575 178.78 285.575 175.1ZM296.334 181.84L295.474 180.94C300.194 178.64 302.834 174.64 303.334 170.12H296.574V169.04H304.794C304.514 175.06 301.054 179.46 296.334 181.84ZM309.854 185.64H308.534V167.86H309.854V174.8H312.854V175.94H309.854V185.64Z" fill="white"/>
<path d="M309.2 121.22H300.76V113.78H309.2V121.22ZM315.72 129.66L315.02 130.64C312.24 130.1 309.5 128.48 308.66 126.68C307.84 128.48 305.08 130.1 302.3 130.64L301.64 129.66C304.46 129.12 307.82 127.28 307.92 124.94H302.54V123.86H314.78V124.94H309.38C309.52 127.28 312.84 129.12 315.72 129.66ZM307.86 120.14V114.84H302.1V120.14H307.86ZM314.54 122.9H313.22V112.86H314.54V116.72H317.26V117.84H314.54V122.9ZM332.658 130.64H331.338V112.86H332.658V119.2H335.658V120.34H332.658V130.64ZM330.478 124.16V125.24C328.238 125.7 324.738 125.92 322.058 125.92H319.298V114.04H327.878V115.12H320.618V124.82H322.058C324.738 124.82 328.078 124.6 330.478 124.16ZM356.682 130.64H355.362V112.86H356.682V119.3H359.682V120.44H356.682V130.64ZM342.602 120.1C342.602 115.84 344.542 113.34 347.142 113.34C349.742 113.34 351.702 115.84 351.702 120.1C351.702 124.38 349.742 126.88 347.142 126.88C344.542 126.88 342.602 124.38 342.602 120.1ZM350.362 120.1C350.362 116.44 349.002 114.42 347.142 114.42C345.282 114.42 343.942 116.44 343.942 120.1C343.942 123.78 345.282 125.8 347.142 125.8C349.002 125.8 350.362 123.78 350.362 120.1ZM375.64 130.64H374.3V112.86H375.64V130.64ZM373.36 124.14V125.22C371.12 125.68 367.62 125.88 364.92 125.88H361.96V113.7H363.3V124.78H364.92C367.62 124.78 370.96 124.58 373.36 124.14ZM379.959 126.84L379.099 125.94C383.819 123.64 386.459 119.64 386.959 115.12H380.199V114.04H388.419C388.139 120.06 384.679 124.46 379.959 126.84ZM393.479 130.64H392.159V112.86H393.479V119.8H396.479V120.94H393.479V130.64ZM401.657 125.6H400.497V124.74C400.497 122.92 400.937 121.84 402.717 120.38C403.857 119.44 404.637 118.22 404.637 117.08C404.637 115.2 403.077 114.4 401.417 114.4C400.437 114.4 398.957 114.8 397.917 115.42L397.437 114.52C398.517 113.88 400.157 113.38 401.517 113.38C403.777 113.38 405.917 114.44 405.917 117.04C405.917 118.5 405.157 119.74 403.797 120.88C402.057 122.38 401.657 123.1 401.657 124.82V125.6ZM402.217 128.84C402.217 129.46 401.717 129.94 401.097 129.94C400.417 129.94 399.937 129.46 399.937 128.84C399.937 128.26 400.417 127.74 401.097 127.74C401.717 127.74 402.217 128.26 402.217 128.84Z" fill="white"/>
<path d="M371.24 315.64H369.9V304.62H365.46V303.5H369.9V297.86H371.24V315.64ZM367.56 310.5L366.76 311.46C364.38 310.16 362.14 307.74 361.44 305.46C360.7 307.98 358.8 310.3 356.06 311.98L355.16 311.14C358.24 309.34 360.68 306.24 360.68 302V298.64H362.1V302C362.1 306.08 364.78 309.12 367.56 310.5ZM385.138 302.06C385.138 304.16 383.218 305.96 380.338 305.96C377.438 305.96 375.498 304.16 375.498 302.06C375.498 299.98 377.438 298.18 380.338 298.18C383.218 298.18 385.138 299.98 385.138 302.06ZM383.798 302.06C383.798 300.58 382.598 299.26 380.338 299.26C378.058 299.26 376.838 300.58 376.838 302.06C376.838 303.54 378.058 304.88 380.338 304.88C382.598 304.88 383.798 303.54 383.798 302.06ZM389.338 315.64H388.018V297.86H389.338V315.64ZM380.958 315.24H379.618V308.78H374.298V307.7H380.838C383.078 307.7 385.558 307.5 387.258 307.2V308.26C385.658 308.6 383.418 308.76 380.958 308.78V315.24ZM407.617 308.56H394.737V298.84H407.237V299.92H396.077V303.16H407.157V304.22H396.077V307.46H407.617V308.56ZM409.757 313.08H392.277V312H409.757V313.08ZM428.9 309.36V310.44C426.62 310.76 423.16 310.92 420.48 310.92H416.48V309.82H419.08L419 300.12H416.98V299.04H427.46V300.12H425.56L425.48 309.68C426.74 309.62 427.9 309.5 428.9 309.36ZM424.16 309.74L424.22 300.12H420.36L420.44 309.82H420.48C421.62 309.82 422.86 309.8 424.16 309.74ZM431.08 315.64H429.76V297.86H431.08V304.18H434.08V305.32H431.08V315.64ZM447.299 309.36V310.44C445.019 310.76 441.559 310.92 438.879 310.92H434.879V309.82H437.479L437.399 300.12H435.379V299.04H445.859V300.12H443.959L443.879 309.68C445.139 309.62 446.299 309.5 447.299 309.36ZM442.559 309.74L442.619 300.12H438.759L438.839 309.82H438.879C440.019 309.82 441.259 309.8 442.559 309.74ZM449.479 315.64H448.159V297.86H449.479V304.18H452.479V305.32H449.479V315.64Z" fill="white"/>
<path d="M258.56 88.64H257.22V78.54H254.58V87.8H253.28V71.16H254.58V77.36H257.22V70.86H258.56V88.64ZM243.14 78.16C243.14 73.96 244.84 71.48 247.22 71.48C249.6 71.48 251.28 73.96 251.28 78.16C251.28 82.38 249.6 84.86 247.22 84.86C244.84 84.86 243.14 82.38 243.14 78.16ZM249.98 78.16C249.98 74.78 248.88 72.56 247.22 72.56C245.56 72.56 244.44 74.78 244.44 78.16C244.44 81.56 245.56 83.78 247.22 83.78C248.88 83.78 249.98 81.56 249.98 78.16ZM262.138 84.84L261.278 83.94C265.998 81.64 268.638 77.64 269.138 73.12H262.378V72.04H270.598C270.318 78.06 266.858 82.46 262.138 84.84ZM275.658 88.64H274.338V70.86H275.658V77.8H278.658V78.94H275.658V88.64ZM295.462 78.62V79.64C295.062 79.74 294.182 79.84 293.082 79.92C291.982 80 290.642 80.06 289.462 80.06L285.462 80.08V79.02H289.562V76.74C289.302 76.7 289.022 76.64 288.742 76.56C288.282 76.4 287.882 76.18 287.542 75.9C286.142 74.78 286.142 72.86 287.542 71.74C288.222 71.2 289.182 70.86 290.282 70.86C291.402 70.86 292.362 71.2 293.062 71.74C293.702 72.28 294.102 73.02 294.102 73.82C294.102 74.64 293.702 75.38 293.062 75.92C292.702 76.18 292.302 76.4 291.802 76.56C291.522 76.66 291.222 76.72 290.882 76.76V78.98C291.542 78.98 292.442 78.94 293.342 78.86C294.202 78.78 295.002 78.7 295.462 78.62ZM301.562 88.42H288.782V84.32H299.702V82.38H288.782V81.32H301.122V85.36H290.182V87.38H301.562V88.42ZM301.202 80.3H299.862V76H297.422V80.3H296.122V71.18H297.422V74.88H299.862V70.88H301.202V80.3ZM292.862 73.8C292.862 72.74 291.962 71.76 290.302 71.76C288.622 71.76 287.722 72.74 287.722 73.8C287.722 74.92 288.682 75.84 290.282 75.84C291.862 75.84 292.862 74.92 292.862 73.8ZM304.52 84.96L303.52 84.1C306.2 82.64 308 80.42 309.06 77.92C307.92 78.06 306.6 78.1 305.36 78.1H304.22V77.02H305.28C306.66 77.02 308.26 76.98 309.46 76.82C309.84 75.66 310.04 74.44 310.12 73.24H304.74V72.16H311.56C311.5 77.82 308.84 82.4 304.52 84.96ZM315.58 87.8H314.24V78.68H311.26V77.56H314.24V71.16H315.58V87.8ZM319.16 88.64H317.84V70.86H319.16V88.64ZM343.404 88.64H342.064V78.54H339.424V87.8H338.124V71.16H339.424V77.36H342.064V70.86H343.404V88.64ZM327.984 78.16C327.984 73.96 329.684 71.48 332.064 71.48C334.444 71.48 336.124 73.96 336.124 78.16C336.124 82.38 334.444 84.86 332.064 84.86C329.684 84.86 327.984 82.38 327.984 78.16ZM334.824 78.16C334.824 74.78 333.724 72.56 332.064 72.56C330.404 72.56 329.284 74.78 329.284 78.16C329.284 81.56 330.404 83.78 332.064 83.78C333.724 83.78 334.824 81.56 334.824 78.16ZM355.742 79.76H347.322V71.54H348.602V74.5H354.442V71.54H355.742V79.76ZM362.962 88.32L362.662 88.56L362.422 88.76C361.682 88.3 360.882 87.74 360.282 87.1C359.642 86.46 359.102 85.8 358.742 85.1C358.422 85.66 357.982 86.3 357.462 86.88C356.862 87.58 356.122 88.18 355.442 88.64C354.702 88.16 354.022 87.54 353.422 86.88C352.902 86.32 352.462 85.7 352.142 85.06C351.742 85.78 351.222 86.5 350.542 87.14C349.902 87.78 349.162 88.36 348.462 88.76C348.242 88.54 347.802 88.2 347.402 87.9C348.342 87.42 349.362 86.68 350.182 85.78C350.922 84.88 351.502 83.78 351.502 82.68V81.96H352.802V82.78C352.802 83.6 353.122 84.36 353.542 85.08C354.022 85.88 354.682 86.58 355.442 87.14C356.102 86.66 356.682 86.02 357.162 85.3C357.702 84.5 358.062 83.56 358.062 82.62V81.96H359.342V82.72C359.342 83.76 359.862 84.78 360.582 85.64C361.402 86.68 362.522 87.48 363.542 87.9C363.362 88 363.142 88.16 362.962 88.32ZM354.442 78.72V75.54H348.602V78.72H354.442ZM361.482 81.12H360.142V70.88H361.482V81.12ZM381.601 86.18H364.121V85.1H372.281V79.92H366.501V71.58H367.841V78.84H379.781V79.92H373.641V85.1H381.601V86.18Z" fill="white"/>
<path d="M526.26 191.78L525.36 192.58C524.06 191.4 523.14 189.68 522.72 188.1C522.3 189.84 521.08 191.96 519.94 192.94C518.78 191.96 517.58 189.84 517.16 188.1C516.76 189.8 515.76 191.56 514.3 192.92L513.28 192.16C515.1 190.56 516.48 187.94 516.48 184.06V181.12H514.32V180.04H519.62V181.12H517.82V184.06C517.82 187.26 518.8 189.66 519.94 191.22C521.08 189.66 522.04 187.26 522.04 184.06V181.12H520.26V180.04H525.56V181.12H523.38V184.06C523.38 187.76 524.76 190.34 526.26 191.78ZM528.86 196.64H527.58V178.86H528.86V185.64H531.5V186.78H528.86V196.64ZM544.058 188.22L543.318 189.2C541.118 188.48 539.038 186.88 538.258 185.16C537.598 186.92 535.438 188.8 532.978 189.78L532.178 188.86C534.998 187.92 537.518 185.42 537.518 183.08V182.72H533.198V181.64H543.158V182.72H538.938V183.08C538.938 185.26 541.418 187.52 544.058 188.22ZM548.258 196.36H535.698V191H537.038V195.28H548.258V196.36ZM547.598 192.2H546.258V178.86H547.598V192.2ZM540.978 180H535.378V178.94H540.978V180ZM565.057 196.64H563.737V178.86H565.057V185.2H568.057V186.34H565.057V196.64ZM562.877 190.16V191.24C560.637 191.7 557.137 191.92 554.457 191.92H551.697V180.04H560.277V181.12H553.017V190.82H554.457C557.137 190.82 560.477 190.6 562.877 190.16Z" fill="white"/>
<path d="M468.6 403.44H456.94V396.92H468.6V403.44ZM467.28 402.36V397.98H458.28V402.36H467.28ZM465.5 394.1L464.72 395.08C462.48 394.26 460.48 392.62 459.64 390.88C458.92 392.82 456.86 394.66 454.4 395.66L453.56 394.76C456.44 393.72 458.9 391.16 458.9 388.16V387.84H454.56V386.78H464.54V387.84H460.32V388.16C460.32 391.06 462.86 393.26 465.5 394.1ZM468.64 395.96H467.32V385.86H468.64V389.96H471.26V391.06H468.64V395.96ZM489.338 396.5H471.898V395.42H479.918V393.02C476.278 392.86 474.058 391.38 474.058 389.4C474.058 387.3 476.538 385.76 480.598 385.76C484.658 385.76 487.158 387.3 487.158 389.4C487.158 391.38 484.938 392.86 481.298 393.02V395.42H489.338V396.5ZM485.818 389.4C485.818 387.74 483.578 386.82 480.598 386.82C477.638 386.82 475.378 387.74 475.378 389.4C475.378 391.06 477.638 391.98 480.598 391.98C483.578 391.98 485.818 391.06 485.818 389.4ZM487.658 403.36H474.358V398H475.698V402.26H487.658V403.36ZM505.057 403.64H503.737V385.86H505.057V392.2H508.057V393.34H505.057V403.64ZM502.877 397.16V398.24C500.637 398.7 497.137 398.92 494.457 398.92H491.697V387.04H500.277V388.12H493.017V397.82H494.457C497.137 397.82 500.477 397.6 502.877 397.16Z" fill="white"/>
<path d="M371.14 529.64H369.82V519.34H367.06V528.8H365.76V512.16H367.06V518.16H369.82V511.86H371.14V529.64ZM364.84 523.54V524.62C363.18 524.88 360.74 525.04 359 525.04H357.02V513.2H363.64V514.28H358.3V523.94H359C360.74 523.94 363.16 523.8 364.84 523.54ZM388.658 529.64H387.338V511.86H388.658V518.2H391.658V519.34H388.658V529.64ZM386.478 523.16V524.24C384.238 524.7 380.738 524.92 378.058 524.92H375.298V513.04H383.878V514.12H376.618V523.82H378.058C380.738 523.82 384.078 523.6 386.478 523.16Z" fill="white"/>
<path d="M610.2 129.22H601.76V121.78H610.2V129.22ZM616.72 137.66L616.02 138.64C613.24 138.1 610.5 136.48 609.66 134.68C608.84 136.48 606.08 138.1 603.3 138.64L602.64 137.66C605.46 137.12 608.82 135.28 608.92 132.94H603.54V131.86H615.78V132.94H610.38C610.52 135.28 613.84 137.12 616.72 137.66ZM608.86 128.14V122.84H603.1V128.14H608.86ZM615.54 130.9H614.22V120.86H615.54V124.72H618.26V125.84H615.54V130.9ZM629.078 133.56L628.258 134.46C626.318 133.12 624.858 131.14 624.238 129.14C623.658 131.36 621.978 133.52 619.698 135.06L618.738 134.24C621.498 132.56 623.518 129.36 623.518 125.62V123.24H620.098V122.16H628.178V123.24H624.918V125.62C624.918 129.44 626.898 132.2 629.078 133.56ZM631.518 137.8H630.218V127.78H626.958V126.66H630.218V121.16H631.518V137.8ZM635.138 138.64H633.818V120.86H635.138V138.64Z" fill="white"/>
<path d="M1581.26 953.64H1579.94V935.86H1581.26V942.3H1584.26V943.44H1581.26V953.64ZM1567.18 943.1C1567.18 938.84 1569.12 936.34 1571.72 936.34C1574.32 936.34 1576.28 938.84 1576.28 943.1C1576.28 947.38 1574.32 949.88 1571.72 949.88C1569.12 949.88 1567.18 947.38 1567.18 943.1ZM1574.94 943.1C1574.94 939.44 1573.58 937.42 1571.72 937.42C1569.86 937.42 1568.52 939.44 1568.52 943.1C1568.52 946.78 1569.86 948.8 1571.72 948.8C1573.58 948.8 1574.94 946.78 1574.94 943.1ZM1586.14 949.84L1585.28 948.94C1590 946.64 1592.64 942.64 1593.14 938.12H1586.38V937.04H1594.6C1594.32 943.06 1590.86 947.46 1586.14 949.84ZM1599.66 953.64H1598.34V935.86H1599.66V942.8H1602.66V943.94H1599.66V953.64ZM1623.9 953.44H1611.36V947.6H1623.9V953.44ZM1622.56 952.36V948.66H1612.7V952.36H1622.56ZM1625.26 941.62L1624.54 942.58C1621.52 942.2 1618.78 940.74 1617.64 938.96C1616.54 940.74 1613.78 942.2 1610.8 942.58L1610.06 941.62C1613.22 941.22 1616.54 939.62 1616.92 937.52H1611.16V936.44H1624.12V937.52H1618.38C1618.76 939.62 1622.08 941.22 1625.26 941.62ZM1626.36 945.54H1608.92V944.46H1616.98V941.74H1618.34V944.46H1626.36V945.54ZM1648.91 953.64H1647.59V935.86H1648.91V953.64ZM1639.13 949.12H1634.15V936.84H1635.39V941.56H1637.89V936.84H1639.13V949.12ZM1645.33 949.12H1640.35V936.84H1641.57V941.56H1644.09V936.84H1645.33V949.12ZM1637.89 948.06V942.62H1635.39V948.06H1637.89ZM1644.09 948.06V942.62H1641.57V948.06H1644.09ZM1666.66 953.64H1665.32V935.86H1666.66V953.64ZM1664.38 947.56V948.66C1662.14 949.1 1658.64 949.32 1655.94 949.32H1652.78V942.5H1659.96V938.02H1652.78V936.94H1661.32V943.56H1654.1V948.22H1655.94C1658.64 948.22 1661.98 948.02 1664.38 947.56ZM1678.52 937.46H1672.98V936.38H1678.52V937.46ZM1684.84 953.64H1683.52V935.86H1684.84V943.2H1687.72V944.34H1684.84V953.64ZM1680.36 946.16C1680.36 948.5 1678.52 950.38 1675.82 950.38C1673.12 950.38 1671.28 948.5 1671.28 946.16C1671.28 943.82 1673.12 941.92 1675.82 941.92C1678.52 941.92 1680.36 943.8 1680.36 946.16ZM1679.04 946.16C1679.04 944.28 1677.78 942.98 1675.84 942.98C1673.88 942.98 1672.62 944.26 1672.62 946.16C1672.62 948.04 1673.88 949.32 1675.84 949.32C1677.78 949.32 1679.04 948.04 1679.04 946.16ZM1681.26 940.42H1670.28V939.34H1681.26V940.42ZM1699.94 952.8H1698.64V942.8H1694.56V941.68H1698.64V936.16H1699.94V952.8ZM1703.78 953.64H1702.46V935.86H1703.78V953.64ZM1697.46 947.52V948.6C1695.8 948.86 1693.38 949.02 1691.62 949.02H1689.66V936.74H1690.94V947.92H1691.62C1693.38 947.92 1695.78 947.78 1697.46 947.52Z" fill="white"/>
<path d="M299.44 365.32H261.82V347.8H299.44V365.32ZM304.96 330.22L302.44 332.92C297.1 330.76 292.84 327.28 291.04 323.26C289.3 327.28 284.98 331.12 280.6 332.92C276.28 331.12 271.96 327.28 270.22 323.26C268.36 327.28 264.22 330.76 258.88 332.92L256.24 330.22C262.18 327.94 267.7 323.56 268.12 317.56H259.6V314.32H279.52V317.56H272.26C272.68 322.9 277 327.04 280.6 328.96C284.2 327.04 288.52 322.9 289 317.56H281.86V314.32H301.78V317.56H293.02C293.56 323.56 299.02 327.94 304.96 330.22ZM295.42 362.08V350.98H265.84V362.08H295.42ZM306.82 341.62H254.5V338.38H278.56V333.1H282.7V338.38H306.82V341.62ZM319.355 350.56H316.355L315.575 314.02H320.135L319.355 350.56ZM321.275 360.52C321.275 362.38 319.835 363.82 317.915 363.82C315.875 363.82 314.435 362.38 314.435 360.52C314.435 358.78 315.875 357.22 317.915 357.22C319.835 357.22 321.275 358.78 321.275 360.52Z" fill="white"/>
<path d="M1785.78 1021.92H1781.82V968.58H1785.78V987.6H1794.78V991.02H1785.78V1021.92ZM1770.66 1007.76H1745.04V972.12H1770.66V1007.76ZM1766.64 1004.52V975.36H1749.12V1004.52H1766.64ZM1806.36 1006.56H1803.36L1802.58 970.02H1807.14L1806.36 1006.56ZM1808.28 1016.52C1808.28 1018.38 1806.84 1019.82 1804.92 1019.82C1802.88 1019.82 1801.44 1018.38 1801.44 1016.52C1801.44 1014.78 1802.88 1013.22 1804.92 1013.22C1806.84 1013.22 1808.28 1014.78 1808.28 1016.52Z" fill="white"/>
</g>
<defs>
<clipPath id="clip0_302_348">
<rect width="1920" height="1080" fill="white"/>
</clipPath>
</defs>
</svg>
