<svg width="176" height="106" viewBox="0 0 176 106" fill="none" xmlns="http://www.w3.org/2000/svg">
<rect x="0.5" y="0.5" width="175" height="105" fill="#FF0561"/>
<rect x="0.5" y="0.5" width="175" height="105" stroke="black"/>
<path d="M23.04 28.8L23.24 29.8C22.22 30.12 20.98 30.24 19.8 30.24C15.98 30.24 14.16 27.68 14.14 24.34C14.1 21.24 15.98 18.6 19.2 18.62C22.5 18.62 23.98 20.76 23.98 23.94V24.66H15.42C15.5 27.16 16.92 29.26 19.84 29.24C20.86 29.24 22.02 29.12 23.04 28.8ZM15.38 23.68H22.72C22.72 23.64 22.76 23.46 22.72 23.42C22.7 21.04 21.38 19.62 19.2 19.62C16.72 19.62 15.54 21.6 15.38 23.68ZM28.5397 29.66C28.5397 30.3 28.0397 30.78 27.3997 30.78C26.7197 30.78 26.2197 30.3 26.2197 29.66C26.2197 29.06 26.7197 28.54 27.3997 28.54C28.0397 28.54 28.5397 29.06 28.5397 29.66ZM40.028 29.42V27.92H39.908C39.128 29.14 37.688 29.86 36.128 29.86C33.068 29.88 31.328 27.5 31.328 24.24C31.328 21 33.108 18.62 36.208 18.64C37.788 18.64 39.088 19.3 39.888 20.48H39.988V18.9H41.268V29.6C41.268 32.68 39.148 34.24 36.108 34.24C35.048 34.24 33.668 34.08 32.648 33.74L32.928 32.72C33.928 33.1 35.048 33.24 36.108 33.24C38.728 33.24 40.028 31.82 40.028 29.42ZM39.968 25.22V23.12C39.968 21.16 38.228 19.64 36.348 19.64C33.968 19.64 32.588 21.6 32.588 24.24C32.588 26.88 33.848 28.86 36.268 28.86C38.208 28.86 39.968 27.32 39.968 25.22ZM46.9186 29.66C46.9186 30.3 46.4186 30.78 45.7786 30.78C45.0986 30.78 44.5986 30.3 44.5986 29.66C44.5986 29.06 45.0986 28.54 45.7786 28.54C46.4186 28.54 46.9186 29.06 46.9186 29.66ZM29.24 61.64H27.9V43.86H29.24V61.64ZM14.6 51.1C14.6 46.84 16.56 44.34 19.16 44.34C21.78 44.34 23.72 46.84 23.72 51.1C23.72 55.38 21.78 57.88 19.16 57.88C16.56 57.88 14.6 55.38 14.6 51.1ZM22.38 51.1C22.38 47.44 21.04 45.42 19.16 45.42C17.3 45.42 15.94 47.44 15.94 51.1C15.94 54.78 17.3 56.8 19.16 56.8C21.04 56.8 22.38 54.78 22.38 51.1ZM47.2184 61.64H45.8784V51.68H41.7784V50.56H45.8784V43.86H47.2184V61.64ZM33.3584 57.84L32.4784 56.94C37.1984 54.64 39.8384 50.64 40.3384 46.12H33.5784V45.04H41.7984C41.5384 51.06 38.0584 55.46 33.3584 57.84ZM71.2419 61.64H69.9019V43.86H71.2419V61.64ZM68.9619 55.14V56.22C66.7219 56.68 63.2219 56.88 60.5219 56.88H57.5619V44.7H58.9019V55.78H60.5219C63.2219 55.78 66.5619 55.58 68.9619 55.14ZM90.4803 61.64H89.1403V51.68H86.1203V50.56H89.1403V43.86H90.4803V61.64ZM81.3003 58.62L80.1003 57.98C83.0603 54.64 84.3203 50.48 84.5003 46.12H81.1403V45.04H85.9203C85.8003 50.76 84.3203 55.04 81.3003 58.62ZM75.7603 57.54L74.5803 56.92C77.5803 53.84 78.8803 49.84 79.1003 46.12H75.5203V45.04H80.5203C80.3803 50.16 78.7803 54.26 75.7603 57.54ZM113.104 61.64H111.784V43.86H113.104V50.3H116.104V51.44H113.104V61.64ZM99.0238 51.1C99.0238 46.84 100.964 44.34 103.564 44.34C106.164 44.34 108.124 46.84 108.124 51.1C108.124 55.38 106.164 57.88 103.564 57.88C100.964 57.88 99.0238 55.38 99.0238 51.1ZM106.784 51.1C106.784 47.44 105.424 45.42 103.564 45.42C101.704 45.42 100.364 47.44 100.364 51.1C100.364 54.78 101.704 56.8 103.564 56.8C105.424 56.8 106.784 54.78 106.784 51.1ZM132.482 61.64H131.142V43.86H132.482V61.64ZM117.842 51.1C117.842 46.84 119.802 44.34 122.402 44.34C125.022 44.34 126.962 46.84 126.962 51.1C126.962 55.38 125.022 57.88 122.402 57.88C119.802 57.88 117.842 55.38 117.842 51.1ZM125.622 51.1C125.622 47.44 124.282 45.42 122.402 45.42C120.542 45.42 119.182 47.44 119.182 51.1C119.182 54.78 120.542 56.8 122.402 56.8C124.282 56.8 125.622 54.78 125.622 51.1ZM136.381 57.84L135.521 56.94C140.241 54.64 142.881 50.64 143.381 46.12H136.621V45.04H144.841C144.561 51.06 141.101 55.46 136.381 57.84ZM149.901 61.64H148.581V43.86H149.901V50.8H152.901V51.94H149.901V61.64ZM158.079 56.6H156.919V55.74C156.919 53.92 157.359 52.84 159.139 51.38C160.279 50.44 161.059 49.22 161.059 48.08C161.059 46.2 159.499 45.4 157.839 45.4C156.859 45.4 155.379 45.8 154.339 46.42L153.859 45.52C154.939 44.88 156.579 44.38 157.939 44.38C160.199 44.38 162.339 45.44 162.339 48.04C162.339 49.5 161.579 50.74 160.219 51.88C158.479 53.38 158.079 54.1 158.079 55.82V56.6ZM158.639 59.84C158.639 60.46 158.139 60.94 157.519 60.94C156.839 60.94 156.359 60.46 156.359 59.84C156.359 59.26 156.839 58.74 157.519 58.74C158.139 58.74 158.639 59.26 158.639 59.84ZM28.78 78.06C28.78 80.36 26.3 82.16 22.16 82.16C18.04 82.16 15.56 80.36 15.56 78.06C15.56 75.78 18.04 73.98 22.16 73.98C26.3 73.98 28.78 75.78 28.78 78.06ZM27.44 78.06C27.44 76.2 25.18 75.06 22.16 75.06C19.18 75.06 16.9 76.2 16.9 78.06C16.9 79.94 19.18 81.08 22.16 81.08C25.18 81.08 27.44 79.94 27.44 78.06ZM30.94 85.1H22.9V91.64H21.52V85.1H13.48V84.02H30.94V85.1ZM48.0384 91.36H35.4784V86H36.8184V90.28H48.0384V91.36ZM45.0984 82.5V83.52C43.0584 83.98 39.7584 84.22 36.9584 84.22H33.2784V78.84H40.4584V75.66H33.2784V74.62H41.7984V79.86H34.5984V83.16H36.9584C39.6784 83.16 42.9184 82.92 45.0984 82.5ZM47.3784 87.2H46.0584V73.86H47.3784V87.2ZM68.0819 83.22L67.3419 84.2C65.1419 83.48 63.0619 81.88 62.2819 80.16C61.6219 81.92 59.4619 83.8 57.0019 84.78L56.2019 83.86C59.0219 82.92 61.5419 80.42 61.5419 78.08V77.72H57.2219V76.64H67.1819V77.72H62.9619V78.08C62.9619 80.26 65.4419 82.52 68.0819 83.22ZM72.2819 91.36H59.7219V86H61.0619V90.28H72.2819V91.36ZM71.6219 87.2H70.2819V73.86H71.6219V87.2ZM65.0019 75H59.4019V73.94H65.0019V75ZM91.7803 83.64H83.4603V91.64H82.1203V83.64H74.3003V82.56H87.1603C87.6003 80.42 87.9403 77.98 88.0803 75.84H76.3403V74.76H89.4603C89.3603 77.16 88.9203 80.4 88.5203 82.56H91.7803V83.64ZM113.104 91.64H111.784V73.86H113.104V80.3H116.104V81.44H113.104V91.64ZM99.0238 81.1C99.0238 76.84 100.964 74.34 103.564 74.34C106.164 74.34 108.124 76.84 108.124 81.1C108.124 85.38 106.164 87.88 103.564 87.88C100.964 87.88 99.0238 85.38 99.0238 81.1ZM106.784 81.1C106.784 77.44 105.424 75.42 103.564 75.42C101.704 75.42 100.364 77.44 100.364 81.1C100.364 84.78 101.704 86.8 103.564 86.8C105.424 86.8 106.784 84.78 106.784 81.1ZM132.482 91.64H131.142V73.86H132.482V91.64ZM117.842 81.1C117.842 76.84 119.802 74.34 122.402 74.34C125.022 74.34 126.962 76.84 126.962 81.1C126.962 85.38 125.022 87.88 122.402 87.88C119.802 87.88 117.842 85.38 117.842 81.1ZM125.622 81.1C125.622 77.44 124.282 75.42 122.402 75.42C120.542 75.42 119.182 77.44 119.182 81.1C119.182 84.78 120.542 86.8 122.402 86.8C124.282 86.8 125.622 84.78 125.622 81.1ZM136.381 87.84L135.521 86.94C140.241 84.64 142.881 80.64 143.381 76.12H136.621V75.04H144.841C144.561 81.06 141.101 85.46 136.381 87.84ZM149.901 91.64H148.581V73.86H149.901V80.8H152.901V81.94H149.901V91.64ZM156.899 89.66C156.899 90.3 156.399 90.78 155.759 90.78C155.079 90.78 154.579 90.3 154.579 89.66C154.579 89.06 155.079 88.54 155.759 88.54C156.399 88.54 156.899 89.06 156.899 89.66Z" fill="white"/>
</svg>
