<svg width="408" height="76" viewBox="0 0 408 76" fill="none" xmlns="http://www.w3.org/2000/svg">
<rect x="0.5" y="0.5" width="407" height="75" fill="#FF0561"/>
<rect x="0.5" y="0.5" width="407" height="75" stroke="black"/>
<path d="M23.04 28.8L23.24 29.8C22.22 30.12 20.98 30.24 19.8 30.24C15.98 30.24 14.16 27.68 14.14 24.34C14.1 21.24 15.98 18.6 19.2 18.62C22.5 18.62 23.98 20.76 23.98 23.94V24.66H15.42C15.5 27.16 16.92 29.26 19.84 29.24C20.86 29.24 22.02 29.12 23.04 28.8ZM15.38 23.68H22.72C22.72 23.64 22.76 23.46 22.72 23.42C22.7 21.04 21.38 19.62 19.2 19.62C16.72 19.62 15.54 21.6 15.38 23.68ZM28.5397 29.66C28.5397 30.3 28.0397 30.78 27.3997 30.78C26.7197 30.78 26.2197 30.3 26.2197 29.66C26.2197 29.06 26.7197 28.54 27.3997 28.54C28.0397 28.54 28.5397 29.06 28.5397 29.66ZM40.028 29.42V27.92H39.908C39.128 29.14 37.688 29.86 36.128 29.86C33.068 29.88 31.328 27.5 31.328 24.24C31.328 21 33.108 18.62 36.208 18.64C37.788 18.64 39.088 19.3 39.888 20.48H39.988V18.9H41.268V29.6C41.268 32.68 39.148 34.24 36.108 34.24C35.048 34.24 33.668 34.08 32.648 33.74L32.928 32.72C33.928 33.1 35.048 33.24 36.108 33.24C38.728 33.24 40.028 31.82 40.028 29.42ZM39.968 25.22V23.12C39.968 21.16 38.228 19.64 36.348 19.64C33.968 19.64 32.588 21.6 32.588 24.24C32.588 26.88 33.848 28.86 36.268 28.86C38.208 28.86 39.968 27.32 39.968 25.22ZM46.9186 29.66C46.9186 30.3 46.4186 30.78 45.7786 30.78C45.0986 30.78 44.5986 30.3 44.5986 29.66C44.5986 29.06 45.0986 28.54 45.7786 28.54C46.4186 28.54 46.9186 29.06 46.9186 29.66ZM26.08 55.14V56.22C23.84 56.68 20.34 56.88 17.66 56.88H14.9V44.68H16.22V55.78H17.66C20.34 55.78 23.68 55.58 26.08 55.14ZM28.26 61.64H26.94V43.86H28.26V49.96H31.26V51.1H28.26V61.64ZM49.3384 54.04H31.8984V52.96H49.3384V54.04ZM47.3184 50.26H34.3384V43.92H35.6784V49.18H47.3184V50.26ZM47.6584 61.36H34.3584V55.8H35.6984V60.26H47.6584V61.36ZM71.6619 61.64H70.3219V43.86H71.6619V61.64ZM57.0219 51.1C57.0219 46.84 58.9819 44.34 61.5819 44.34C64.2019 44.34 66.1419 46.84 66.1419 51.1C66.1419 55.38 64.2019 57.88 61.5819 57.88C58.9819 57.88 57.0219 55.38 57.0219 51.1ZM64.8019 51.1C64.8019 47.44 63.4619 45.42 61.5819 45.42C59.7219 45.42 58.3619 47.44 58.3619 51.1C58.3619 54.78 59.7219 56.8 61.5819 56.8C63.4619 56.8 64.8019 54.78 64.8019 51.1ZM84.1453 43.18L84.5053 43.46C84.0053 43.82 83.3453 44.54 83.1253 45.22C82.9653 45.78 83.0253 46 83.4853 46C83.6453 46 83.8453 46.04 83.9853 46.08C84.2853 46.2 84.5853 46.52 84.5853 47.06C84.5853 47.76 84.0653 48.16 83.4653 48.16C82.7253 48.16 82.1053 47.52 82.1053 46.62C82.1053 45.88 82.3453 45.06 82.7653 44.48C83.1653 43.9 83.6653 43.42 84.1453 43.18ZM95.9572 52.86H87.0372V51.88H95.9572V52.86ZM110.455 55.14V56.22C108.215 56.68 104.715 56.88 102.035 56.88H99.275V44.68H100.595V55.78H102.035C104.715 55.78 108.055 55.58 110.455 55.14ZM112.635 61.64H111.315V43.86H112.635V49.96H115.635V51.1H112.635V61.64ZM117.253 48.58L116.893 48.3C117.393 47.94 118.053 47.22 118.273 46.54C118.433 45.98 118.373 45.76 117.913 45.76C117.753 45.76 117.553 45.72 117.413 45.68C117.113 45.56 116.793 45.24 116.793 44.7C116.793 44 117.333 43.6 117.933 43.6C118.673 43.6 119.293 44.24 119.293 45.14C119.293 45.88 119.053 46.7 118.633 47.28C118.233 47.86 117.733 48.34 117.253 48.58ZM123.685 57.84L122.825 56.94C127.545 54.64 130.185 50.64 130.685 46.12H123.925V45.04H132.145C131.865 51.06 128.405 55.46 123.685 57.84ZM137.205 61.64H135.885V43.86H137.205V50.8H140.205V51.94H137.205V61.64ZM161.989 61.44H149.909V57.16H160.249V55.06H149.909V54.02H161.569V58.16H151.249V60.38H161.989V61.44ZM158.429 51.32L157.729 52.32C155.569 51.78 153.489 50.34 152.609 48.58C151.829 50.42 149.669 52.04 147.309 52.92L146.529 52C149.249 51.08 151.869 48.86 151.869 46.14V45.82H147.529V44.78H157.509V45.82H153.289V46.14C153.289 48.86 155.809 50.7 158.429 51.32ZM161.609 53.08H160.289V43.86H161.609V47.4H164.229V48.5H161.609V53.08ZM180.832 48.84C180.832 51.4 178.832 53.44 175.972 53.44C173.072 53.44 171.112 51.4 171.112 48.84C171.112 46.24 173.072 44.18 175.972 44.18C178.832 44.18 180.832 46.24 180.832 48.84ZM175.972 52.36C178.152 52.36 179.472 50.8 179.472 48.82C179.472 46.82 178.152 45.26 175.972 45.26C173.752 45.26 172.452 46.82 172.452 48.82C172.452 50.8 173.752 52.36 175.972 52.36ZM186.272 61.36H173.892V55.44H175.232V60.28H186.272V61.36ZM185.532 57.06H184.212V43.86H185.532V48.34H188.252V49.46H185.532V57.06ZM204.591 53.34H203.251V48.96H199.351C199.071 51.08 197.211 52.72 194.571 52.72C191.691 52.72 189.751 50.8 189.751 48.44C189.751 46.08 191.691 44.18 194.571 44.18C197.171 44.18 199.031 45.78 199.351 47.84H203.251V43.86H204.591V53.34ZM206.531 60.78L205.631 61.64C204.251 60.86 203.031 59.4 202.551 58C202.051 59.52 200.931 60.82 199.491 61.66L198.611 60.82V61.44H192.051V54.2H193.371V56.6H197.291V54.2H198.611V60.78C200.351 59.84 201.871 58 201.871 55.58V54.2H203.251V55.58C203.251 57.92 204.831 59.86 206.531 60.78ZM198.031 48.44C198.031 46.68 196.751 45.26 194.571 45.26C192.371 45.26 191.111 46.68 191.111 48.44C191.111 50.22 192.371 51.64 194.571 51.64C196.751 51.64 198.031 50.22 198.031 48.44ZM197.291 60.4V57.62H193.371V60.4H197.291ZM223.029 61.64H221.689V51.4H217.489C217.389 55.5 215.469 57.88 212.929 57.88C210.329 57.88 208.389 55.38 208.389 51.1C208.389 46.84 210.329 44.34 212.929 44.34C215.349 44.34 217.249 46.54 217.469 50.3H221.689V43.86H223.029V61.64ZM212.929 56.8C214.789 56.8 216.149 54.78 216.149 51.1C216.149 47.44 214.789 45.42 212.929 45.42C211.069 45.42 209.729 47.44 209.729 51.1C209.729 54.78 211.069 56.8 212.929 56.8ZM238.008 56.58L237.188 57.54C234.908 56.24 232.628 53.96 231.868 51.76C231.168 54.22 229.068 56.52 226.488 58.06L225.588 57.18C228.508 55.54 231.108 52.48 231.108 48.34V46.12H226.628V45.04H236.888V46.12H232.528V48.34C232.528 52.4 235.448 55.26 238.008 56.58ZM241.428 61.64H240.088V43.86H241.428V61.64ZM259.506 53.52H246.526V44.98H259.306V46.06H247.866V52.44H259.506V53.52ZM261.546 59.04H244.066V57.96H261.546V59.04ZM277.244 61.64H275.924V43.86H277.244V50.6H280.244V51.74H277.244V61.64ZM275.064 55.56V56.66C272.824 57.1 269.324 57.32 266.644 57.32H263.664V50.5H270.864V46.02H263.664V44.94H272.204V51.56H265.024V56.22H266.644C269.324 56.22 272.664 56.02 275.064 55.56ZM284.243 59.66C284.243 60.3 283.743 60.78 283.103 60.78C282.423 60.78 281.923 60.3 281.923 59.66C281.923 59.06 282.423 58.54 283.103 58.54C283.743 58.54 284.243 59.06 284.243 59.66ZM307.316 61.64H305.976V43.86H307.316V61.64ZM305.036 55.14V56.22C302.796 56.68 299.296 56.88 296.596 56.88H293.636V44.7H294.976V55.78H296.596C299.296 55.78 302.636 55.58 305.036 55.14ZM327.835 54.04H310.395V52.96H327.835V54.04ZM325.815 50.26H312.835V43.92H314.175V49.18H325.815V50.26ZM326.155 61.36H312.855V55.8H314.195V60.26H326.155V61.36ZM344.758 48.84C344.758 51.4 342.758 53.44 339.898 53.44C336.998 53.44 335.038 51.4 335.038 48.84C335.038 46.24 336.998 44.18 339.898 44.18C342.758 44.18 344.758 46.24 344.758 48.84ZM339.898 52.36C342.078 52.36 343.398 50.8 343.398 48.82C343.398 46.82 342.078 45.26 339.898 45.26C337.678 45.26 336.378 46.82 336.378 48.82C336.378 50.8 337.678 52.36 339.898 52.36ZM350.198 61.36H337.818V55.44H339.158V60.28H350.198V61.36ZM349.458 57.06H348.138V43.86H349.458V48.34H352.178V49.46H349.458V57.06ZM368.196 61.44H355.236V56.92H366.436V54.6H355.236V53.54H367.776V57.92H356.576V60.38H368.196V61.44ZM370.256 51.38H352.816V50.32H366.016C366.376 48.96 366.676 46.84 366.736 45.48H354.936V44.44H368.096C367.996 46.8 367.656 49 367.336 50.32H370.256V51.38ZM383.795 55.14V56.22C381.555 56.68 378.055 56.88 375.375 56.88H372.615V44.68H373.935V55.78H375.375C378.055 55.78 381.395 55.58 383.795 55.14ZM385.975 61.64H384.655V43.86H385.975V49.96H388.975V51.1H385.975V61.64ZM392.973 59.66C392.973 60.3 392.473 60.78 391.833 60.78C391.153 60.78 390.653 60.3 390.653 59.66C390.653 59.06 391.153 58.54 391.833 58.54C392.473 58.54 392.973 59.06 392.973 59.66Z" fill="white"/>
</svg>
