<svg width="476" height="76" viewBox="0 0 476 76" fill="none" xmlns="http://www.w3.org/2000/svg">
<rect x="0.5" y="0.5" width="475" height="75" fill="#FF0561"/>
<rect x="0.5" y="0.5" width="475" height="75" stroke="black"/>
<path d="M23.04 28.8L23.24 29.8C22.22 30.12 20.98 30.24 19.8 30.24C15.98 30.24 14.16 27.68 14.14 24.34C14.1 21.24 15.98 18.6 19.2 18.62C22.5 18.62 23.98 20.76 23.98 23.94V24.66H15.42C15.5 27.16 16.92 29.26 19.84 29.24C20.86 29.24 22.02 29.12 23.04 28.8ZM15.38 23.68H22.72C22.72 23.64 22.76 23.46 22.72 23.42C22.7 21.04 21.38 19.62 19.2 19.62C16.72 19.62 15.54 21.6 15.38 23.68ZM28.5397 29.66C28.5397 30.3 28.0397 30.78 27.3997 30.78C26.7197 30.78 26.2197 30.3 26.2197 29.66C26.2197 29.06 26.7197 28.54 27.3997 28.54C28.0397 28.54 28.5397 29.06 28.5397 29.66ZM40.028 29.42V27.92H39.908C39.128 29.14 37.688 29.86 36.128 29.86C33.068 29.88 31.328 27.5 31.328 24.24C31.328 21 33.108 18.62 36.208 18.64C37.788 18.64 39.088 19.3 39.888 20.48H39.988V18.9H41.268V29.6C41.268 32.68 39.148 34.24 36.108 34.24C35.048 34.24 33.668 34.08 32.648 33.74L32.928 32.72C33.928 33.1 35.048 33.24 36.108 33.24C38.728 33.24 40.028 31.82 40.028 29.42ZM39.968 25.22V23.12C39.968 21.16 38.228 19.64 36.348 19.64C33.968 19.64 32.588 21.6 32.588 24.24C32.588 26.88 33.848 28.86 36.268 28.86C38.208 28.86 39.968 27.32 39.968 25.22ZM46.9186 29.66C46.9186 30.3 46.4186 30.78 45.7786 30.78C45.0986 30.78 44.5986 30.3 44.5986 29.66C44.5986 29.06 45.0986 28.54 45.7786 28.54C46.4186 28.54 46.9186 29.06 46.9186 29.66ZM29.94 51.08L29.18 52.06C26.16 51.46 23.32 49.84 22.2 47.72C21.1 49.84 18.26 51.46 15.22 52.06L14.44 51.08C17.9 50.56 21.4 48.34 21.48 45.64H15.68V44.56H28.7V45.64H22.92C23 48.34 26.54 50.56 29.94 51.08ZM30.94 55.1H22.9V61.64H21.52V55.1H13.48V54.02H30.94V55.1ZM49.3584 59.3H31.8784V58.22H40.0384V54.44H34.3384V49.1H45.3184V45.92H34.3384V44.84H46.6384V50.16H35.6784V53.34H47.2184V54.44H41.3984V58.22H49.3584V59.3ZM70.8819 52.2H58.3619V44.24H59.7019V46.86H69.5419V44.24H70.8819V52.2ZM69.5419 51.12V47.92H59.7019V51.12H69.5419ZM73.3819 55.52H65.3219V61.64H63.9419V55.52H55.9019V54.44H73.3819V55.52ZM86.0603 52.52L85.2603 53.52C83.1003 52.64 81.0603 50.92 80.2203 49.08C79.5003 51.02 77.4403 52.98 75.0003 54.12L74.1403 53.2C77.0403 51.98 79.4803 49.38 79.4803 46.36V44.32H80.8803V46.36C80.8803 49.18 83.4003 51.52 86.0603 52.52ZM89.4603 57.04H88.1403V43.86H89.4603V48.58H92.0803V49.7H89.4603V57.04ZM90.2003 61.36H77.8203V55.44H79.1603V60.28H90.2003V61.36ZM105.159 60.8H103.859V51.66H101.439C101.319 55.58 99.6588 57.86 97.3988 57.86C95.0588 57.86 93.3588 55.38 93.3588 51.16C93.3588 46.96 95.0588 44.48 97.3988 44.48C99.6388 44.48 101.299 46.72 101.439 50.54H103.859V44.16H105.159V60.8ZM97.3988 56.78C99.0788 56.78 100.159 54.56 100.159 51.16C100.159 47.78 99.0788 45.56 97.3988 45.56C95.7588 45.56 94.6588 47.78 94.6588 51.16C94.6588 54.56 95.7588 56.78 97.3988 56.78ZM108.779 61.64H107.439V43.86H108.779V61.64ZM126.857 61.64H125.517V50.62H121.077V49.5H125.517V43.86H126.857V61.64ZM123.177 56.5L122.377 57.46C119.997 56.16 117.757 53.74 117.057 51.46C116.317 53.98 114.417 56.3 111.677 57.98L110.777 57.14C113.857 55.34 116.297 52.24 116.297 48V44.64H117.717V48C117.717 52.08 120.397 55.12 123.177 56.5ZM146.956 54.04H129.516V52.96H146.956V54.04ZM144.936 50.26H131.956V43.92H133.296V49.18H144.936V50.26ZM145.276 61.36H131.976V55.8H133.316V60.26H145.276V61.36ZM168.799 57.2H167.459V43.86H168.799V49.34H171.519V50.46H168.799V57.2ZM169.539 61.36H157.159V56.2H158.479V60.28H169.539V61.36ZM165.139 47.64H154.199V46.6H165.139V47.64ZM162.499 44.98H156.799V43.94H162.499V44.98ZM159.699 54.86C156.939 54.86 155.159 53.48 155.159 51.78C155.159 50.08 156.939 48.7 159.699 48.7C162.439 48.7 164.239 50.08 164.239 51.78C164.239 53.48 162.439 54.86 159.699 54.86ZM159.699 49.72C157.679 49.72 156.499 50.6 156.499 51.78C156.499 52.98 157.679 53.86 159.699 53.86C161.719 53.86 162.899 52.96 162.899 51.78C162.899 50.6 161.719 49.72 159.699 49.72ZM186.698 61.64H185.378V43.86H186.698V50.2H189.698V51.34H186.698V61.64ZM184.518 55.16V56.24C182.278 56.7 178.778 56.92 176.098 56.92H173.338V45.04H181.918V46.12H174.658V55.82H176.098C178.778 55.82 182.118 55.6 184.518 55.16ZM207.796 59.18H190.316V58.1H196.876V51.24H198.276V58.1H207.796V59.18ZM204.216 55.44H202.836C203.576 52.52 204.036 49.02 204.116 46.26H192.456V45.18H205.536C205.436 48.72 204.896 52.46 204.216 55.44ZM223.139 45.46H217.599V44.38H223.139V45.46ZM229.459 61.64H228.139V43.86H229.459V51.2H232.339V52.34H229.459V61.64ZM224.979 54.16C224.979 56.5 223.139 58.38 220.439 58.38C217.739 58.38 215.899 56.5 215.899 54.16C215.899 51.82 217.739 49.92 220.439 49.92C223.139 49.92 224.979 51.8 224.979 54.16ZM223.659 54.16C223.659 52.28 222.399 50.98 220.459 50.98C218.499 50.98 217.239 52.26 217.239 54.16C217.239 56.04 218.499 57.32 220.459 57.32C222.399 57.32 223.659 56.04 223.659 54.16ZM225.879 48.42H214.899V47.34H225.879V48.42ZM250.218 59.18H232.738V58.1H239.298V51.24H240.698V58.1H250.218V59.18ZM246.638 55.44H245.258C245.998 52.52 246.458 49.02 246.538 46.26H234.878V45.18H247.958C247.858 48.72 247.318 52.46 246.638 55.44ZM252.536 63.32L252.216 63.02C252.916 62.58 253.516 61.72 253.616 60.96C253.636 60.86 253.616 60.78 253.576 60.74C253.536 60.64 253.416 60.58 253.216 60.58C252.656 60.58 252.136 60.2 252.136 59.52C252.136 58.88 252.656 58.46 253.296 58.46C254.036 58.46 254.556 59.12 254.556 59.94C254.556 61.36 253.696 62.7 252.536 63.32ZM277.91 61.64H276.59V51.34H273.83V60.8H272.53V44.16H273.83V50.16H276.59V43.86H277.91V61.64ZM271.61 55.54V56.62C269.95 56.88 267.51 57.04 265.77 57.04H263.79V45.2H270.41V46.28H265.07V55.94H265.77C267.51 55.94 269.93 55.8 271.61 55.54ZM298.128 53.64H289.808V61.64H288.468V53.64H280.648V52.56H293.508C293.948 50.42 294.288 47.98 294.428 45.84H282.688V44.76H295.808C295.708 47.16 295.268 50.4 294.868 52.56H298.128V53.64ZM311.506 60.8H310.206V51.66H307.786C307.666 55.58 306.006 57.86 303.746 57.86C301.406 57.86 299.706 55.38 299.706 51.16C299.706 46.96 301.406 44.48 303.746 44.48C305.986 44.48 307.646 46.72 307.786 50.54H310.206V44.16H311.506V60.8ZM303.746 56.78C305.426 56.78 306.506 54.56 306.506 51.16C306.506 47.78 305.426 45.56 303.746 45.56C302.106 45.56 301.006 47.78 301.006 51.16C301.006 54.56 302.106 56.78 303.746 56.78ZM315.126 61.64H313.786V43.86H315.126V61.64ZM333.205 61.64H331.865V50.62H327.425V49.5H331.865V43.86H333.205V61.64ZM329.525 56.5L328.725 57.46C326.345 56.16 324.105 53.74 323.405 51.46C322.665 53.98 320.765 56.3 318.025 57.98L317.125 57.14C320.205 55.34 322.645 52.24 322.645 48V44.64H324.065V48C324.065 52.08 326.745 55.12 329.525 56.5ZM353.303 54.04H335.863V52.96H353.303V54.04ZM351.283 50.26H338.303V43.92H339.643V49.18H351.283V50.26ZM351.623 61.36H338.323V55.8H339.663V60.26H351.623V61.36ZM360.907 54.92L360.147 53.94C363.027 53.12 365.287 51.56 366.727 49.7C365.607 49.82 364.367 49.84 363.207 49.84H361.027V48.78H363.127C364.527 48.78 366.187 48.74 367.487 48.58C368.007 47.7 368.307 46.78 368.467 45.86H361.447V44.78H370.007C369.607 49.82 365.587 53.44 360.907 54.92ZM374.927 57.04H373.607V43.86H374.927V48.94H377.647V50.06H374.927V57.04ZM375.667 61.36H363.287V55.44H364.627V60.28H375.667V61.36ZM393.045 61.64H391.725V43.86H393.045V50.2H396.045V51.34H393.045V61.64ZM390.865 55.16V56.24C388.625 56.7 385.125 56.92 382.445 56.92H379.685V45.04H388.265V46.12H381.005V55.82H382.445C385.125 55.82 388.465 55.6 390.865 55.16ZM414.144 59.18H396.664V58.1H403.224V51.24H404.624V58.1H414.144V59.18ZM410.564 55.44H409.184C409.924 52.52 410.384 49.02 410.464 46.26H398.804V45.18H411.884C411.784 48.72 411.244 52.46 410.564 55.44ZM421.727 54.92L420.967 53.94C423.847 53.12 426.107 51.56 427.547 49.7C426.427 49.82 425.187 49.84 424.027 49.84H421.847V48.78H423.947C425.347 48.78 427.007 48.74 428.307 48.58C428.827 47.7 429.127 46.78 429.287 45.86H422.267V44.78H430.827C430.427 49.82 426.407 53.44 421.727 54.92ZM435.747 57.04H434.427V43.86H435.747V48.94H438.467V50.06H435.747V57.04ZM436.487 61.36H424.107V55.44H425.447V60.28H436.487V61.36ZM453.865 61.64H452.545V43.86H453.865V50.2H456.865V51.34H453.865V61.64ZM451.685 55.16V56.24C449.445 56.7 445.945 56.92 443.265 56.92H440.505V45.04H449.085V46.12H441.825V55.82H443.265C445.945 55.82 449.285 55.6 451.685 55.16ZM460.864 59.66C460.864 60.3 460.364 60.78 459.724 60.78C459.044 60.78 458.544 60.3 458.544 59.66C458.544 59.06 459.044 58.54 459.724 58.54C460.364 58.54 460.864 59.06 460.864 59.66Z" fill="white"/>
</svg>
