<svg width="280" height="76" viewBox="0 0 280 76" fill="none" xmlns="http://www.w3.org/2000/svg">
<rect x="0.5" y="0.5" width="279" height="75" fill="#FF0561"/>
<rect x="0.5" y="0.5" width="279" height="75" stroke="black"/>
<path d="M23.04 28.8L23.24 29.8C22.22 30.12 20.98 30.24 19.8 30.24C15.98 30.24 14.16 27.68 14.14 24.34C14.1 21.24 15.98 18.6 19.2 18.62C22.5 18.62 23.98 20.76 23.98 23.94V24.66H15.42C15.5 27.16 16.92 29.26 19.84 29.24C20.86 29.24 22.02 29.12 23.04 28.8ZM15.38 23.68H22.72C22.72 23.64 22.76 23.46 22.72 23.42C22.7 21.04 21.38 19.62 19.2 19.62C16.72 19.62 15.54 21.6 15.38 23.68ZM28.5397 29.66C28.5397 30.3 28.0397 30.78 27.3997 30.78C26.7197 30.78 26.2197 30.3 26.2197 29.66C26.2197 29.06 26.7197 28.54 27.3997 28.54C28.0397 28.54 28.5397 29.06 28.5397 29.66ZM40.028 29.42V27.92H39.908C39.128 29.14 37.688 29.86 36.128 29.86C33.068 29.88 31.328 27.5 31.328 24.24C31.328 21 33.108 18.62 36.208 18.64C37.788 18.64 39.088 19.3 39.888 20.48H39.988V18.9H41.268V29.6C41.268 32.68 39.148 34.24 36.108 34.24C35.048 34.24 33.668 34.08 32.648 33.74L32.928 32.72C33.928 33.1 35.048 33.24 36.108 33.24C38.728 33.24 40.028 31.82 40.028 29.42ZM39.968 25.22V23.12C39.968 21.16 38.228 19.64 36.348 19.64C33.968 19.64 32.588 21.6 32.588 24.24C32.588 26.88 33.848 28.86 36.268 28.86C38.208 28.86 39.968 27.32 39.968 25.22ZM46.9186 29.66C46.9186 30.3 46.4186 30.78 45.7786 30.78C45.0986 30.78 44.5986 30.3 44.5986 29.66C44.5986 29.06 45.0986 28.54 45.7786 28.54C46.4186 28.54 46.9186 29.06 46.9186 29.66ZM29.24 61.64H27.9V43.86H29.24V61.64ZM14.6 51.1C14.6 46.84 16.56 44.34 19.16 44.34C21.78 44.34 23.72 46.84 23.72 51.1C23.72 55.38 21.78 57.88 19.16 57.88C16.56 57.88 14.6 55.38 14.6 51.1ZM22.38 51.1C22.38 47.44 21.04 45.42 19.16 45.42C17.3 45.42 15.94 47.44 15.94 51.1C15.94 54.78 17.3 56.8 19.16 56.8C21.04 56.8 22.38 54.78 22.38 51.1ZM47.2184 61.64H45.8784V51.68H41.7784V50.56H45.8784V43.86H47.2184V61.64ZM33.3584 57.84L32.4784 56.94C37.1984 54.64 39.8384 50.64 40.3384 46.12H33.5784V45.04H41.7984C41.5384 51.06 38.0584 55.46 33.3584 57.84ZM72.1619 61.64H70.8419V51.58H68.1419V60.8H66.8219V44.16H68.1419V50.42H70.8419V43.86H72.1619V61.64ZM66.1019 56.56L65.2819 57.46C63.3419 56.12 61.8819 54.14 61.2619 52.14C60.6819 54.36 59.0019 56.52 56.7219 58.06L55.7619 57.24C58.5219 55.56 60.5419 52.36 60.5419 48.62V46.24H57.1219V45.16H65.2019V46.24H61.9419V48.62C61.9419 52.44 63.9219 55.2 66.1019 56.56ZM84.2003 52.76H75.7003V44.78H84.2003V52.76ZM82.8603 51.68V45.84H77.0203V51.68H82.8603ZM89.8003 54.2H88.4803V43.86H89.8003V54.2ZM91.7203 60.82L90.8803 61.74C89.3403 60.94 87.7603 59.4 87.2003 57.94C86.7003 59.34 85.2403 60.9 83.8403 61.66C82.4403 60.9 81.0003 59.34 80.4603 57.94C79.9403 59.4 78.3603 60.94 76.8203 61.74L75.9403 60.82C77.8203 59.94 79.8003 57.92 79.8003 55.76V54.98H81.1203V55.76C81.1203 57.6 82.6203 59.48 83.8403 60.26C85.0803 59.48 86.5603 57.6 86.5603 55.76V54.98H87.8803V55.76C87.8803 57.92 89.8803 59.94 91.7203 60.82ZM93.9388 57.82L92.9188 56.96C97.0588 54.64 99.1988 50.2 99.4388 46.24H93.9188V45.16H100.879C100.779 50.66 98.1388 55.26 93.9388 57.82ZM104.899 60.8H103.599V51.7H100.559V50.58H103.599V44.16H104.899V60.8ZM108.559 61.64H107.239V43.86H108.559V61.64ZM134.202 59.18H116.722V58.1H124.762V54H119.182V44.74H120.522V48H130.362V44.74H131.702V54H126.142V58.1H134.202V59.18ZM130.362 52.92V49.06H120.522V52.92H130.362ZM152.601 59.18H135.121V58.1H141.681V51.24H143.081V58.1H152.601V59.18ZM149.021 55.44H147.641C148.381 52.52 148.841 49.02 148.921 46.26H137.261V45.18H150.341C150.241 48.72 149.701 52.46 149.021 55.44ZM171.159 60.82L170.319 61.72C168.759 60.92 167.159 59.4 166.639 57.94C166.119 59.34 164.679 60.9 163.279 61.66C161.859 60.9 160.399 59.34 159.899 57.94C159.359 59.4 157.779 60.92 156.219 61.72L155.379 60.82C157.259 59.96 159.219 57.92 159.219 55.76V54.98H160.559V55.76C160.559 57.6 162.039 59.48 163.279 60.26C164.499 59.48 165.979 57.6 165.979 55.76V54.98H167.319V55.76C167.319 57.92 169.299 59.96 171.159 60.82ZM164.019 48.62C164.019 51.08 162.059 53.04 159.219 53.04C156.339 53.04 154.399 51.08 154.399 48.62C154.399 46.16 156.339 44.18 159.219 44.18C162.059 44.18 164.019 46.16 164.019 48.62ZM162.679 48.62C162.679 46.74 161.399 45.26 159.219 45.26C157.019 45.26 155.759 46.74 155.759 48.62C155.759 50.48 157.019 51.96 159.219 51.96C161.399 51.96 162.679 50.48 162.679 48.62ZM169.239 54.2H167.899V43.86H169.239V54.2ZM184.518 55.14V56.22C182.278 56.68 178.778 56.88 176.098 56.88H173.338V44.68H174.658V55.78H176.098C178.778 55.78 182.118 55.58 184.518 55.14ZM186.698 61.64H185.378V43.86H186.698V49.96H189.698V51.1H186.698V61.64ZM194.876 56.6H193.716V55.74C193.716 53.92 194.156 52.84 195.936 51.38C197.076 50.44 197.856 49.22 197.856 48.08C197.856 46.2 196.296 45.4 194.636 45.4C193.656 45.4 192.176 45.8 191.136 46.42L190.656 45.52C191.736 44.88 193.376 44.38 194.736 44.38C196.996 44.38 199.136 45.44 199.136 48.04C199.136 49.5 198.376 50.74 197.016 51.88C195.276 53.38 194.876 54.1 194.876 55.82V56.6ZM195.436 59.84C195.436 60.46 194.936 60.94 194.316 60.94C193.636 60.94 193.156 60.46 193.156 59.84C193.156 59.26 193.636 58.74 194.316 58.74C194.936 58.74 195.436 59.26 195.436 59.84ZM223.284 59.18H205.804V58.1H212.364V51.24H213.764V58.1H223.284V59.18ZM219.704 55.44H218.324C219.064 52.52 219.524 49.02 219.604 46.26H207.944V45.18H221.024C220.924 48.72 220.384 52.46 219.704 55.44ZM239.223 61.44H227.543V54H228.863V56.56H237.883V54H239.223V61.44ZM237.883 60.4V57.58H228.863V60.4H237.883ZM233.923 51.9H225.483V44.78H233.923V51.9ZM232.583 50.84V45.82H226.823V50.84H232.583ZM239.263 53.12H237.943V43.86H239.263V47.54H241.983V48.66H239.263V53.12ZM257.941 61.64H256.601V43.86H257.941V61.64ZM255.661 55.16V56.24C253.421 56.7 249.921 56.92 247.221 56.92H244.261V45.04H253.101V46.12H245.601V55.82H247.221C249.921 55.82 253.261 55.6 255.661 55.16ZM264.38 59.66C264.38 60.3 263.88 60.78 263.24 60.78C262.56 60.78 262.06 60.3 262.06 59.66C262.06 59.06 262.56 58.54 263.24 58.54C263.88 58.54 264.38 59.06 264.38 59.66Z" fill="white"/>
</svg>
