<svg width="116" height="76" viewBox="0 0 116 76" fill="none" xmlns="http://www.w3.org/2000/svg">
<rect x="0.5" y="0.5" width="115" height="75" fill="#FF0561"/>
<rect x="0.5" y="0.5" width="115" height="75" stroke="black"/>
<path d="M23.04 28.8L23.24 29.8C22.22 30.12 20.98 30.24 19.8 30.24C15.98 30.24 14.16 27.68 14.14 24.34C14.1 21.24 15.98 18.6 19.2 18.62C22.5 18.62 23.98 20.76 23.98 23.94V24.66H15.42C15.5 27.16 16.92 29.26 19.84 29.24C20.86 29.24 22.02 29.12 23.04 28.8ZM15.38 23.68H22.72C22.72 23.64 22.76 23.46 22.72 23.42C22.7 21.04 21.38 19.62 19.2 19.62C16.72 19.62 15.54 21.6 15.38 23.68ZM28.5397 29.66C28.5397 30.3 28.0397 30.78 27.3997 30.78C26.7197 30.78 26.2197 30.3 26.2197 29.66C26.2197 29.06 26.7197 28.54 27.3997 28.54C28.0397 28.54 28.5397 29.06 28.5397 29.66ZM40.028 29.42V27.92H39.908C39.128 29.14 37.688 29.86 36.128 29.86C33.068 29.88 31.328 27.5 31.328 24.24C31.328 21 33.108 18.62 36.208 18.64C37.788 18.64 39.088 19.3 39.888 20.48H39.988V18.9H41.268V29.6C41.268 32.68 39.148 34.24 36.108 34.24C35.048 34.24 33.668 34.08 32.648 33.74L32.928 32.72C33.928 33.1 35.048 33.24 36.108 33.24C38.728 33.24 40.028 31.82 40.028 29.42ZM39.968 25.22V23.12C39.968 21.16 38.228 19.64 36.348 19.64C33.968 19.64 32.588 21.6 32.588 24.24C32.588 26.88 33.848 28.86 36.268 28.86C38.208 28.86 39.968 27.32 39.968 25.22ZM46.9186 29.66C46.9186 30.3 46.4186 30.78 45.7786 30.78C45.0986 30.78 44.5986 30.3 44.5986 29.66C44.5986 29.06 45.0986 28.54 45.7786 28.54C46.4186 28.54 46.9186 29.06 46.9186 29.66ZM29.24 61.64H27.9V43.86H29.24V61.64ZM14.6 51.1C14.6 46.84 16.56 44.34 19.16 44.34C21.78 44.34 23.72 46.84 23.72 51.1C23.72 55.38 21.78 57.88 19.16 57.88C16.56 57.88 14.6 55.38 14.6 51.1ZM22.38 51.1C22.38 47.44 21.04 45.42 19.16 45.42C17.3 45.42 15.94 47.44 15.94 51.1C15.94 54.78 17.3 56.8 19.16 56.8C21.04 56.8 22.38 54.78 22.38 51.1ZM33.1184 57.82L32.0984 56.96C36.2384 54.64 38.3784 50.2 38.6184 46.24H33.0984V45.16H40.0584C39.9584 50.66 37.3184 55.26 33.1184 57.82ZM44.0784 60.8H42.7784V51.7H39.7384V50.58H42.7784V44.16H44.0784V60.8ZM47.7384 61.64H46.4184V43.86H47.7384V61.64ZM67.0419 50.9H57.8619V44.74H67.0419V50.9ZM71.3619 61.64H70.0419V57.68H65.4219V56.6H70.0419V43.86H71.3619V61.64ZM65.7019 49.82V45.82H59.2019V49.82H65.7019ZM62.8619 61.24H61.5419V54.4H56.3219V53.32H62.8619C65.1019 53.32 67.5819 53.1 69.2819 52.8V53.86C67.6619 54.2 65.3819 54.38 62.8619 54.4V61.24ZM91.7803 59.18H74.3003V58.1H80.8603V51.24H82.2603V58.1H91.7803V59.18ZM88.2003 55.44H86.8203C87.5603 52.52 88.0203 49.02 88.1003 46.26H76.4403V45.18H89.5203C89.4203 48.72 88.8803 52.46 88.2003 55.44ZM97.2588 56.6H96.0988V55.74C96.0988 53.92 96.5388 52.84 98.3188 51.38C99.4588 50.44 100.239 49.22 100.239 48.08C100.239 46.2 98.6788 45.4 97.0188 45.4C96.0388 45.4 94.5588 45.8 93.5188 46.42L93.0388 45.52C94.1188 44.88 95.7588 44.38 97.1188 44.38C99.3788 44.38 101.519 45.44 101.519 48.04C101.519 49.5 100.759 50.74 99.3988 51.88C97.6588 53.38 97.2588 54.1 97.2588 55.82V56.6ZM97.8188 59.84C97.8188 60.46 97.3188 60.94 96.6988 60.94C96.0188 60.94 95.5388 60.46 95.5388 59.84C95.5388 59.26 96.0188 58.74 96.6988 58.74C97.3188 58.74 97.8188 59.26 97.8188 59.84Z" fill="white"/>
</svg>
