<svg width="294" height="76" viewBox="0 0 294 76" fill="none" xmlns="http://www.w3.org/2000/svg">
<rect x="0.5" y="0.5" width="293" height="75" fill="#FF0561"/>
<rect x="0.5" y="0.5" width="293" height="75" stroke="black"/>
<path d="M23.04 28.8L23.24 29.8C22.22 30.12 20.98 30.24 19.8 30.24C15.98 30.24 14.16 27.68 14.14 24.34C14.1 21.24 15.98 18.6 19.2 18.62C22.5 18.62 23.98 20.76 23.98 23.94V24.66H15.42C15.5 27.16 16.92 29.26 19.84 29.24C20.86 29.24 22.02 29.12 23.04 28.8ZM15.38 23.68H22.72C22.72 23.64 22.76 23.46 22.72 23.42C22.7 21.04 21.38 19.62 19.2 19.62C16.72 19.62 15.54 21.6 15.38 23.68ZM28.5397 29.66C28.5397 30.3 28.0397 30.78 27.3997 30.78C26.7197 30.78 26.2197 30.3 26.2197 29.66C26.2197 29.06 26.7197 28.54 27.3997 28.54C28.0397 28.54 28.5397 29.06 28.5397 29.66ZM40.028 29.42V27.92H39.908C39.128 29.14 37.688 29.86 36.128 29.86C33.068 29.88 31.328 27.5 31.328 24.24C31.328 21 33.108 18.62 36.208 18.64C37.788 18.64 39.088 19.3 39.888 20.48H39.988V18.9H41.268V29.6C41.268 32.68 39.148 34.24 36.108 34.24C35.048 34.24 33.668 34.08 32.648 33.74L32.928 32.72C33.928 33.1 35.048 33.24 36.108 33.24C38.728 33.24 40.028 31.82 40.028 29.42ZM39.968 25.22V23.12C39.968 21.16 38.228 19.64 36.348 19.64C33.968 19.64 32.588 21.6 32.588 24.24C32.588 26.88 33.848 28.86 36.268 28.86C38.208 28.86 39.968 27.32 39.968 25.22ZM46.9186 29.66C46.9186 30.3 46.4186 30.78 45.7786 30.78C45.0986 30.78 44.5986 30.3 44.5986 29.66C44.5986 29.06 45.0986 28.54 45.7786 28.54C46.4186 28.54 46.9186 29.06 46.9186 29.66ZM29.54 58.58C29.54 60.52 27.08 61.94 23.06 61.94C19.04 61.94 16.58 60.52 16.58 58.58C16.58 56.64 19.04 55.22 23.06 55.22C27.08 55.22 29.54 56.64 29.54 58.58ZM28.18 58.58C28.18 57.12 26 56.26 23.06 56.26C20.1 56.26 17.94 57.12 17.94 58.58C17.94 60.06 20.1 60.9 23.06 60.9C26 60.9 28.18 60.06 28.18 58.58ZM25.66 53.02L24.92 53.98C22.78 53.36 20.68 51.82 19.86 50.12C19.2 51.9 17.04 53.7 14.58 54.64L13.78 53.7C16.66 52.8 19.12 50.26 19.12 48.08V47.72H14.8V46.64H24.76V47.72H20.54V48.08C20.54 50.24 23.06 52.36 25.66 53.02ZM29.2 55.1H27.86V50.3H24.32V49.22H27.86V43.86H29.2V55.1ZM22.58 45H16.98V43.94H22.58V45ZM48.4784 53.22L47.7584 54.2C44.8784 53.28 41.8184 51.2 40.5984 48.54C39.3984 51.2 36.3584 53.28 33.4584 54.2L32.7184 53.22C36.0984 52.24 39.8984 49.4 39.8984 46.08V44.6H41.3184V46.08C41.3184 49.4 45.1184 52.24 48.4784 53.22ZM49.3584 59.18H31.8784V58.1H39.9184V53.3H41.2984V58.1H49.3584V59.18ZM70.9019 61.44H58.3619V55.6H70.9019V61.44ZM69.5619 60.36V56.66H59.7019V60.36H69.5619ZM72.2619 49.62L71.5419 50.58C68.5219 50.2 65.7819 48.74 64.6419 46.96C63.5419 48.74 60.7819 50.2 57.8019 50.58L57.0619 49.62C60.2219 49.22 63.5419 47.62 63.9219 45.52H58.1619V44.44H71.1219V45.52H65.3819C65.7619 47.62 69.0819 49.22 72.2619 49.62ZM73.3619 53.54H55.9219V52.46H63.9819V49.74H65.3419V52.46H73.3619V53.54ZM90.2853 48.84C90.2853 51.4 88.2853 53.44 85.4253 53.44C82.5253 53.44 80.5653 51.4 80.5653 48.84C80.5653 46.24 82.5253 44.18 85.4253 44.18C88.2853 44.18 90.2853 46.24 90.2853 48.84ZM85.4253 52.36C87.6053 52.36 88.9253 50.8 88.9253 48.82C88.9253 46.82 87.6053 45.26 85.4253 45.26C83.2053 45.26 81.9053 46.82 81.9053 48.82C81.9053 50.8 83.2053 52.36 85.4253 52.36ZM95.7253 61.36H83.3453V55.44H84.6853V60.28H95.7253V61.36ZM94.9853 57.06H93.6653V43.86H94.9853V48.34H97.7053V49.46H94.9853V57.06ZM114.404 54.66H113.064V50.06H110.464V54.66H109.164V44.16H110.464V48.92H113.064V43.86H114.404V54.66ZM115.964 60.82L115.124 61.74C113.564 60.94 111.964 59.46 111.444 57.98C110.904 59.4 109.484 60.94 108.084 61.66C106.664 60.94 105.244 59.4 104.704 57.98C104.204 59.46 102.604 60.94 101.024 61.74L100.184 60.82C102.084 59.96 104.024 57.98 104.024 55.96V55.48H105.364V55.96C105.364 57.64 106.844 59.54 108.084 60.3C109.304 59.54 110.784 57.64 110.784 55.96V55.48H112.124V55.96C112.124 57.98 114.084 59.96 115.964 60.82ZM107.844 47.56H98.7638V46.52H107.844V47.56ZM105.684 45.26H100.924V44.22H105.684V45.26ZM103.324 54.3C101.004 54.3 99.4438 53 99.4438 51.38C99.4438 49.76 101.004 48.46 103.324 48.46C105.684 48.46 107.244 49.76 107.244 51.38C107.244 53 105.684 54.3 103.324 54.3ZM103.324 49.46C101.704 49.46 100.744 50.3 100.744 51.38C100.744 52.44 101.704 53.28 103.324 53.28C104.984 53.28 105.924 52.44 105.924 51.38C105.924 50.3 104.984 49.46 103.324 49.46ZM131.502 61.64H130.182V43.86H131.502V50.2H134.502V51.34H131.502V61.64ZM129.322 55.16V56.24C127.082 56.7 123.582 56.92 120.902 56.92H118.142V45.04H126.722V46.12H119.462V55.82H120.902C123.582 55.82 126.922 55.6 129.322 55.16ZM152.601 59.18H135.121V58.1H141.681V51.24H143.081V58.1H152.601V59.18ZM149.021 55.44H147.641C148.381 52.52 148.841 49.02 148.921 46.26H137.261V45.18H150.341C150.241 48.72 149.701 52.46 149.021 55.44ZM176.624 59.18H159.144V58.1H165.704V51.24H167.104V58.1H176.624V59.18ZM173.044 55.44H171.664C172.404 52.52 172.864 49.02 172.944 46.26H161.284V45.18H174.364C174.264 48.72 173.724 52.46 173.044 55.44ZM192.323 61.64H191.003V43.86H192.323V50.2H195.323V51.34H192.323V61.64ZM187.283 56.92H178.743V45.04H187.283V56.92ZM185.943 55.84V46.12H180.103V55.84H185.943ZM212.706 50.9H203.526V44.74H212.706V50.9ZM217.026 61.64H215.706V57.68H211.086V56.6H215.706V43.86H217.026V61.64ZM211.366 49.82V45.82H204.866V49.82H211.366ZM208.526 61.24H207.206V54.4H201.986V53.32H208.526C210.766 53.32 213.246 53.1 214.946 52.8V53.86C213.326 54.2 211.046 54.38 208.526 54.4V61.24ZM234.744 61.64H233.424V43.86H234.744V50.6H237.744V51.74H234.744V61.64ZM232.564 55.56V56.66C230.324 57.1 226.824 57.32 224.144 57.32H221.164V50.5H228.364V46.02H221.164V44.94H229.704V51.56H222.524V56.22H224.144C226.824 56.22 230.164 56.02 232.564 55.56ZM239.623 58L238.763 57.1C241.883 55.66 244.023 53.48 245.283 50.92C244.083 51.06 242.683 51.08 241.403 51.08H239.223V50.02H241.323C242.803 50.02 244.463 49.96 245.803 49.8C246.263 48.64 246.563 47.4 246.703 46.12H239.863V45.04H248.163C247.923 51.06 244.543 55.62 239.623 58ZM253.143 61.64H251.823V43.86H253.143V50.8H256.143V51.94H253.143V61.64ZM272.421 61.64H271.101V51.34H268.341V60.8H267.041V44.16H268.341V50.16H271.101V43.86H272.421V61.64ZM266.121 55.54V56.62C264.461 56.88 262.021 57.04 260.281 57.04H258.301V45.2H264.921V46.28H259.581V55.94H260.281C262.021 55.94 264.441 55.8 266.121 55.54ZM278.54 59.66C278.54 60.3 278.04 60.78 277.4 60.78C276.72 60.78 276.22 60.3 276.22 59.66C276.22 59.06 276.72 58.54 277.4 58.54C278.04 58.54 278.54 59.06 278.54 59.66Z" fill="white"/>
</svg>
