<svg width="702" height="178" viewBox="0 0 702 178" fill="none" xmlns="http://www.w3.org/2000/svg">
<rect x="0.5" y="0.5" width="701" height="177" fill="white"/>
<rect x="0.5" y="0.5" width="701" height="177" stroke="black"/>
<path d="M26.5 28.625C21.425 28.625 18.325 26.8 18.325 24.275C18.325 21.775 21.425 19.95 26.5 19.95C31.575 19.95 34.7 21.775 34.7 24.275C34.7 26.8 31.575 28.625 26.5 28.625ZM26.5 21.275C22.8 21.275 19.975 22.35 19.975 24.3C19.975 26.225 22.8 27.3 26.5 27.3C30.225 27.3 33.025 26.225 33.025 24.3C33.025 22.35 30.225 21.275 26.5 21.275ZM37.425 31.975H15.625V30.625H37.425V31.975ZM34.35 42.05H18.675V34.525H34.35V42.05ZM32.675 40.7V35.875H20.35V40.7H32.675ZM50.573 42.675C45.548 42.675 42.473 40.8 42.473 38.25C42.473 35.725 45.548 33.85 50.573 33.85C55.598 33.85 58.673 35.725 58.673 38.25C58.673 40.8 55.598 42.675 50.573 42.675ZM50.573 35.2C46.873 35.2 44.173 36.325 44.173 38.25C44.173 40.2 46.873 41.325 50.573 41.325C54.248 41.325 56.973 40.2 56.973 38.25C56.973 36.325 54.248 35.2 50.573 35.2ZM53.573 30.375L52.598 31.625C49.798 30.6 47.273 28.525 46.248 26.3C45.348 28.75 42.823 31.025 39.698 32.35L38.673 31.225C42.323 29.825 45.323 26.7 45.323 22.9V20.65H47.098V22.9C47.098 26.525 50.173 29.25 53.573 30.375ZM58.248 33.675H56.573V25.7H50.998V24.3H56.573V20.075H58.248V33.675ZM76.8961 30.85L75.8961 32.05C73.0961 31.025 70.5961 28.975 69.5711 26.8C68.6711 29.225 66.0711 31.525 63.0211 32.8L61.9711 31.65C65.5461 30.35 68.6461 27.175 68.6461 23.4V22.55H63.1961V21.225H75.6961V22.55H70.4211V23.4C70.4211 27.025 73.5711 29.775 76.8961 30.85ZM81.1961 42.425H79.5211V36.025H65.8461V34.65H81.1961V42.425ZM81.2461 33.45H79.5711V26.625H74.5461V25.225H79.5711V20.075H81.2461V33.45ZM95.4941 32.8C90.6441 32.8 87.3191 30.15 87.3191 26.675C87.3191 23.175 90.6441 20.525 95.4941 20.525C100.369 20.525 103.719 23.175 103.719 26.675C103.719 30.15 100.369 32.8 95.4941 32.8ZM95.4941 21.875C91.8191 21.875 88.9691 23.775 88.9691 26.675C88.9691 29.55 91.8191 31.45 95.4941 31.45C99.1941 31.45 102.044 29.55 102.044 26.675C102.044 23.775 99.1941 21.875 95.4941 21.875ZM106.444 39.05H84.5941V37.7H106.444V39.05ZM129.442 39.375H107.592V38.025H117.792V33.3H110.667V26.625H124.392V22.65H110.667V21.3H126.042V27.95H112.342V31.925H126.767V33.3H119.492V38.025H129.442V39.375ZM152.415 32.8H130.615V31.45H152.415V32.8ZM149.89 28.075H133.665V20.15H135.34V26.725H149.89V28.075ZM150.315 41.95H133.69V35H135.365V40.575H150.315V41.95ZM182.47 39.225H160.62V37.875H168.82V29.3H170.57V37.875H182.47V39.225ZM177.995 34.55H176.27C177.195 30.9 177.77 26.525 177.87 23.075H163.295V21.725H179.645C179.52 26.15 178.845 30.825 177.995 34.55ZM199.043 35.975L198.018 37.175C195.168 35.55 192.318 32.7 191.368 29.95C190.493 33.025 187.868 35.9 184.643 37.825L183.518 36.725C187.168 34.675 190.418 30.85 190.418 25.675V22.9H184.818V21.55H197.643V22.9H192.193V25.675C192.193 30.75 195.843 34.325 199.043 35.975ZM203.318 42.3H201.643V28.525H196.643V27.125H201.643V20.075H203.318V42.3ZM208.191 37.55L207.116 36.425C213.016 33.55 216.316 28.55 216.941 22.9H208.491V21.55H218.766C218.416 29.075 214.091 34.575 208.191 37.55ZM225.091 42.3H223.441V20.075H225.091V28.75H228.841V30.175H225.091V42.3ZM255.37 29.175H239.72V20.275H241.395V23.25H253.695V20.275H255.37V29.175ZM253.695 27.825V24.55H241.395V27.825H253.695ZM258.47 33.225H248.67V38.125H246.97V33.225H236.67V31.875H258.47V33.225ZM256.37 41.95H239.745V35.3H241.42V40.575H256.37V41.95ZM279.018 33.725H277.368V29.225H272.018V31.475H261.393V21.225H272.018V23.4H277.368V20.075H279.018V33.725ZM279.443 38.275C279.443 40.8 276.393 42.675 271.368 42.675C266.318 42.675 263.268 40.8 263.268 38.275C263.268 35.75 266.318 33.875 271.368 33.875C276.393 33.875 279.443 35.75 279.443 38.275ZM277.768 38.275C277.768 36.35 275.068 35.225 271.368 35.225C267.668 35.225 264.943 36.35 264.943 38.275C264.943 40.2 267.668 41.325 271.368 41.325C275.068 41.325 277.768 40.2 277.768 38.275ZM270.343 30.125V22.55H263.043V30.125H270.343ZM277.368 27.875V24.75H272.018V27.875H277.368ZM301.741 36.75H300.066V20.075H301.741V26.925H305.141V28.325H301.741V36.75ZM302.666 41.95H287.191V35.5H288.841V40.6H302.666V41.95ZM297.166 24.8H283.491V23.5H297.166V24.8ZM293.866 21.475H286.741V20.175H293.866V21.475ZM290.366 33.825C286.916 33.825 284.691 32.1 284.691 29.975C284.691 27.85 286.916 26.125 290.366 26.125C293.791 26.125 296.041 27.85 296.041 29.975C296.041 32.1 293.791 33.825 290.366 33.825ZM290.366 27.4C287.841 27.4 286.366 28.5 286.366 29.975C286.366 31.475 287.841 32.575 290.366 32.575C292.891 32.575 294.366 31.45 294.366 29.975C294.366 28.5 292.891 27.4 290.366 27.4ZM324.645 42.675C319.62 42.675 316.545 40.8 316.545 38.25C316.545 35.725 319.62 33.85 324.645 33.85C329.67 33.85 332.745 35.725 332.745 38.25C332.745 40.8 329.67 42.675 324.645 42.675ZM324.645 35.2C320.945 35.2 318.245 36.325 318.245 38.25C318.245 40.2 320.945 41.325 324.645 41.325C328.32 41.325 331.045 40.2 331.045 38.25C331.045 36.325 328.32 35.2 324.645 35.2ZM327.645 30.375L326.67 31.625C323.87 30.6 321.345 28.525 320.32 26.3C319.42 28.75 316.895 31.025 313.77 32.35L312.745 31.225C316.395 29.825 319.395 26.7 319.395 22.9V20.65H321.17V22.9C321.17 26.525 324.245 29.25 327.645 30.375ZM332.32 33.675H330.645V25.7H325.07V24.3H330.645V20.075H332.32V33.675ZM356.393 31.85L355.468 33.075C351.493 31.925 347.943 29.625 346.568 26.625C345.243 29.65 341.618 31.975 337.668 33.075L336.743 31.875C341.093 30.8 345.693 27.775 345.693 23.75V22.825H338.418V21.475H354.743V22.825H347.468V23.75C347.468 27.825 352.093 30.775 356.393 31.85ZM357.518 39.225H335.668V37.875H345.718V31.875H347.443V37.875H357.518V39.225ZM384.523 33.775H382.873V20.075H384.523V25.275H387.923V26.675H384.523V33.775ZM377.248 42.675C372.348 42.675 369.398 40.875 369.398 38.425C369.398 36 372.348 34.2 377.248 34.2C382.098 34.2 385.048 36 385.048 38.425C385.048 40.875 382.098 42.675 377.248 42.675ZM377.248 35.55C373.673 35.55 371.073 36.625 371.073 38.425C371.073 40.25 373.673 41.325 377.248 41.325C380.798 41.325 383.398 40.25 383.398 38.425C383.398 36.625 380.798 35.55 377.248 35.55ZM377.848 31.525H367.298V20.85H368.973V24.8H376.173V20.85H377.848V31.525ZM376.173 30.175V26.125H368.973V30.175H376.173ZM408.346 36.575H406.671V26.9H401.846C401.571 29.825 399.171 32.05 395.821 32.05C392.196 32.05 389.746 29.5 389.746 26.3C389.746 23.05 392.196 20.475 395.821 20.475C399.096 20.475 401.471 22.65 401.821 25.5H406.671V20.075H408.346V36.575ZM395.821 30.7C398.571 30.7 400.196 28.75 400.196 26.275C400.196 23.775 398.571 21.825 395.821 21.825C393.046 21.825 391.446 23.775 391.446 26.275C391.446 28.75 393.046 30.7 395.821 30.7ZM409.171 41.95H393.471V34.55H395.146V40.6H409.171V41.95ZM431.394 42.3H429.719V20.075H431.394V42.3ZM413.094 29.125C413.094 23.8 415.544 20.675 418.794 20.675C422.069 20.675 424.494 23.8 424.494 29.125C424.494 34.475 422.069 37.6 418.794 37.6C415.544 37.6 413.094 34.475 413.094 29.125ZM422.819 29.125C422.819 24.55 421.144 22.025 418.794 22.025C416.469 22.025 414.769 24.55 414.769 29.125C414.769 33.725 416.469 36.25 418.794 36.25C421.144 36.25 422.819 33.725 422.819 29.125ZM453.867 42.3H452.192V32.325H447.192V36.4H436.517V21.55H447.192V24.875H452.192V20.075H453.867V42.3ZM445.492 35.05V22.9H438.167V35.05H445.492ZM452.192 30.975V26.225H447.192V30.975H452.192ZM459.44 44.4L459.04 44.025C459.915 43.475 460.665 42.4 460.79 41.45C460.815 41.325 460.79 41.225 460.74 41.175C460.69 41.05 460.54 40.975 460.29 40.975C459.59 40.975 458.94 40.5 458.94 39.65C458.94 38.85 459.59 38.325 460.39 38.325C461.315 38.325 461.965 39.15 461.965 40.175C461.965 41.95 460.89 43.625 459.44 44.4ZM490.606 42.3H488.981V20.075H490.606V28.475H493.806V29.9H490.606V42.3ZM478.881 36.65H472.656V21.3H474.206V27.2H477.331V21.3H478.881V36.65ZM477.331 35.325V28.525H474.206V35.325H477.331ZM486.656 36.65H480.406V21.3H481.981V27.2H485.106V21.3H486.656V36.65ZM485.106 35.325V28.525H481.981V35.325H485.106ZM513.629 30.075H497.654V24.675H511.429V21.925H497.654V20.625H513.079V25.925H499.329V28.725H513.629V30.075ZM516.404 34.125H494.604V32.825H516.404V34.125ZM514.304 41.95H497.679V35.9H499.354V40.575H514.304V41.95ZM544.384 42.05H529.009V34.075H544.384V42.05ZM542.709 40.7V35.425H530.684V40.7H542.709ZM536.834 29.925V31.225C534.809 31.575 531.784 31.775 529.209 31.775H526.084V21.025H534.984V22.325H527.759V25.7H534.134V27H527.759V30.425H529.209C531.784 30.425 534.709 30.275 536.834 29.925ZM540.034 32.9H538.384V26.525H535.159V25.175H538.384V20.45H540.034V32.9ZM544.434 32.9H542.784V20.075H544.434V32.9ZM569.457 39.225H547.607V37.875H557.657V32.25H549.607V30.9H553.207L553.032 22.825H550.132V21.475H566.907V22.825H564.232L564.057 30.9H567.432V32.25H559.382V37.875H569.457V39.225ZM562.382 30.9L562.582 22.825H554.707L554.857 30.9H562.382ZM586.73 35.4V36.7C584.405 37.2 581.58 37.35 578.28 37.35H570.805V36H577.58V31.6C574.355 31.3 572.105 28.925 572.105 26.15C572.105 23.175 574.705 20.7 578.28 20.7C581.855 20.7 584.43 23.175 584.43 26.15C584.43 28.85 582.305 31.175 579.23 31.575V36C582.005 35.975 584.63 35.8 586.73 35.4ZM582.78 26.15C582.78 23.9 581.08 22.05 578.28 22.05C575.455 22.05 573.805 23.9 573.805 26.15C573.805 28.4 575.455 30.275 578.28 30.275C581.08 30.275 582.78 28.4 582.78 26.15ZM589.355 42.3H587.68V20.075H589.355V29.1H592.905V30.525H589.355V42.3ZM621.109 41.95H605.409V34.55H607.084V40.6H621.109V41.95ZM620.284 36.55H618.609V26.25H613.034V24.85H618.609V20.075H620.284V36.55ZM615.609 31.125L614.609 32.4C611.909 31.275 609.334 29.125 608.284 26.825C607.384 29.275 604.834 31.7 601.759 33.125L600.709 32C604.334 30.45 607.359 27.225 607.359 23.425V20.65H609.134V23.425C609.134 26.975 612.284 29.9 615.609 31.125ZM643.007 33.725H641.357V29.225H636.007V31.475H625.382V21.225H636.007V23.4H641.357V20.075H643.007V33.725ZM643.432 38.275C643.432 40.8 640.382 42.675 635.357 42.675C630.307 42.675 627.257 40.8 627.257 38.275C627.257 35.75 630.307 33.875 635.357 33.875C640.382 33.875 643.432 35.75 643.432 38.275ZM641.757 38.275C641.757 36.35 639.057 35.225 635.357 35.225C631.657 35.225 628.932 36.35 628.932 38.275C628.932 40.2 631.657 41.325 635.357 41.325C639.057 41.325 641.757 40.2 641.757 38.275ZM634.332 30.125V22.55H627.032V30.125H634.332ZM641.357 27.875V24.75H636.007V27.875H641.357ZM665.73 36.75H664.055V20.075H665.73V26.925H669.13V28.325H665.73V36.75ZM666.655 41.95H651.18V35.5H652.83V40.6H666.655V41.95ZM661.155 24.8H647.48V23.5H661.155V24.8ZM657.855 21.475H650.73V20.175H657.855V21.475ZM654.355 33.825C650.905 33.825 648.68 32.1 648.68 29.975C648.68 27.85 650.905 26.125 654.355 26.125C657.78 26.125 660.03 27.85 660.03 29.975C660.03 32.1 657.78 33.825 654.355 33.825ZM654.355 27.4C651.83 27.4 650.355 28.5 650.355 29.975C650.355 31.475 651.83 32.575 654.355 32.575C656.88 32.575 658.355 31.45 658.355 29.975C658.355 28.5 656.88 27.4 654.355 27.4ZM35.1 76.25C35.1 78.8 32.125 80.675 27.275 80.675C22.375 80.675 19.425 78.8 19.425 76.25C19.425 73.725 22.375 71.85 27.275 71.85C32.125 71.85 35.1 73.725 35.1 76.25ZM33.425 76.25C33.425 74.325 30.825 73.2 27.275 73.2C23.7 73.2 21.125 74.325 21.125 76.25C21.125 78.2 23.7 79.325 27.275 79.325C30.825 79.325 33.425 78.2 33.425 76.25ZM30.625 68.6L29.65 69.8C26.85 68.775 24.35 66.725 23.3 64.55C22.4 66.975 19.825 69.275 16.75 70.55L15.7 69.4C19.3 68.1 22.375 64.925 22.375 61.15V60.55H16.95V59.225H29.425V60.55H24.15V61.15C24.15 64.775 27.325 67.525 30.625 68.6ZM34.55 71.4H32.9V58.075H34.55V63.2H37.825V64.575H34.55V71.4ZM57.423 74.55H55.773V58.075H57.423V63.6H60.823V65H57.423V74.55ZM58.348 79.95H42.873V72.55H44.548V78.6H58.348V79.95ZM54.673 67.3V68.625C52.123 69.2 47.998 69.475 44.523 69.475H40.348V59.225H51.123V60.55H41.998V68.1H44.523C47.898 68.1 51.923 67.825 54.673 67.3ZM81.2961 80.3H79.6211V58.075H81.2961V80.3ZM62.9961 67.125C62.9961 61.8 65.4461 58.675 68.6961 58.675C71.9711 58.675 74.3961 61.8 74.3961 67.125C74.3961 72.475 71.9711 75.6 68.6961 75.6C65.4461 75.6 62.9961 72.475 62.9961 67.125ZM72.7211 67.125C72.7211 62.55 71.0461 60.025 68.6961 60.025C66.3711 60.025 64.6711 62.55 64.6711 67.125C64.6711 71.725 66.3711 74.25 68.6961 74.25C71.0461 74.25 72.7211 71.725 72.7211 67.125ZM110.925 80.05H95.8254V74.575H108.725V71.825H95.8254V70.525H110.4V75.825H97.4754V78.725H110.925V80.05ZM103.775 67.875H93.2254V59.225H103.775V67.875ZM102.1 66.575V60.525H94.9004V66.575H102.1ZM110.45 69.35H108.8V58.075H110.45V62.425H113.85V63.825H110.45V69.35ZM133.948 80.3H132.298V58.075H133.948V80.3ZM131.398 73.15V74.45C129.073 74.95 126.248 75.1 122.923 75.1H115.148V73.75H123.023C126.098 73.75 129.073 73.55 131.398 73.15ZM122.798 69.875C119.248 69.875 116.648 67.375 116.648 64.4C116.648 61.425 119.248 58.95 122.798 58.95C126.398 58.95 128.998 61.425 128.998 64.4C128.998 67.375 126.398 69.875 122.798 69.875ZM122.798 60.3C119.998 60.3 118.323 62.15 118.323 64.4C118.323 66.65 119.998 68.525 122.798 68.525C125.598 68.525 127.323 66.65 127.323 64.4C127.323 62.15 125.598 60.3 122.798 60.3ZM163.828 80.3H162.153V58.075H163.828V80.3ZM160.978 72.7V74.075C158.178 74.625 153.803 74.9 150.428 74.9H146.478V66.375H155.453V60.775H146.478V59.425H157.153V67.7H148.128V73.525H150.428C153.803 73.525 157.978 73.275 160.978 72.7ZM189.476 69.875H167.676V68.525H189.476V69.875ZM186.401 80.05H170.726V72.675H186.401V80.05ZM184.726 78.7V74.025H172.401V78.7H184.726ZM186.901 66.025H170.726V58.8H186.476V60.15H172.401V64.675H186.901V66.025ZM209.749 61.925C209.749 64.225 206.624 65.925 201.549 65.925C196.474 65.925 193.374 64.225 193.374 61.925C193.374 59.625 196.474 57.925 201.549 57.925C206.624 57.925 209.749 59.625 209.749 61.925ZM208.074 61.95C208.074 60.2 205.274 59.225 201.549 59.225C197.849 59.225 195.024 60.2 195.024 61.95C195.024 63.675 197.849 64.65 201.549 64.65C205.274 64.65 208.074 63.675 208.074 61.95ZM209.924 80.05H193.699V74.925H207.699V72.575H193.699V71.25H209.374V76.2H195.374V78.725H209.924V80.05ZM212.474 68.925H190.674V67.6H212.474V68.925ZM232.653 80.675C227.628 80.675 224.553 79 224.553 76.725C224.553 74.45 227.628 72.775 232.653 72.775C237.678 72.775 240.753 74.45 240.753 76.725C240.753 79 237.678 80.675 232.653 80.675ZM232.653 74.05C228.953 74.05 226.253 75.025 226.253 76.725C226.253 78.425 228.953 79.4 232.653 79.4C236.328 79.4 239.053 78.425 239.053 76.725C239.053 75.025 236.328 74.05 232.653 74.05ZM234.978 62.525H221.528V61.225H234.978V62.525ZM231.903 59.475H224.778V58.175H231.903V59.475ZM228.403 70.975C224.953 70.975 222.728 69.35 222.728 67.35C222.728 65.35 224.953 63.725 228.403 63.725C231.828 63.725 234.078 65.35 234.078 67.35C234.078 69.35 231.828 70.975 228.403 70.975ZM228.403 65C225.878 65 224.403 66 224.403 67.35C224.403 68.725 225.878 69.725 228.403 69.725C230.928 69.725 232.403 68.7 232.403 67.35C232.403 66 230.928 65 228.403 65ZM240.328 72.625H238.653V69.35H234.703V68.05H238.653V65.2H234.703V63.9H238.653V58.075H240.328V72.625ZM255.651 80.675C250.626 80.675 247.551 78.8 247.551 76.25C247.551 73.725 250.626 71.85 255.651 71.85C260.676 71.85 263.751 73.725 263.751 76.25C263.751 78.8 260.676 80.675 255.651 80.675ZM255.651 73.2C251.951 73.2 249.251 74.325 249.251 76.25C249.251 78.2 251.951 79.325 255.651 79.325C259.326 79.325 262.051 78.2 262.051 76.25C262.051 74.325 259.326 73.2 255.651 73.2ZM258.651 68.375L257.676 69.625C254.876 68.6 252.351 66.525 251.326 64.3C250.426 66.75 247.901 69.025 244.776 70.35L243.751 69.225C247.401 67.825 250.401 64.7 250.401 60.9V58.65H252.176V60.9C252.176 64.525 255.251 67.25 258.651 68.375ZM263.326 71.675H261.651V63.7H256.076V62.3H261.651V58.075H263.326V71.675ZM285.774 74.75H284.099V58.075H285.774V64.925H289.174V66.325H285.774V74.75ZM286.699 79.95H271.224V73.5H272.874V78.6H286.699V79.95ZM281.199 62.8H267.524V61.5H281.199V62.8ZM277.899 59.475H270.774V58.175H277.899V59.475ZM274.399 71.825C270.949 71.825 268.724 70.1 268.724 67.975C268.724 65.85 270.949 64.125 274.399 64.125C277.824 64.125 280.074 65.85 280.074 67.975C280.074 70.1 277.824 71.825 274.399 71.825ZM274.399 65.4C271.874 65.4 270.399 66.5 270.399 67.975C270.399 69.475 271.874 70.575 274.399 70.575C276.924 70.575 278.399 69.45 278.399 67.975C278.399 66.5 276.924 65.4 274.399 65.4ZM308.147 80.3H306.497V58.075H308.147V66H311.897V67.425H308.147V80.3ZM305.422 72.2V73.55C302.622 74.125 298.247 74.4 294.897 74.4H291.447V59.55H302.172V60.9H293.097V73.025H294.897C298.247 73.025 302.422 72.75 305.422 72.2ZM316.895 77.825C316.895 78.625 316.27 79.225 315.47 79.225C314.62 79.225 313.995 78.625 313.995 77.825C313.995 77.075 314.62 76.425 315.47 76.425C316.27 76.425 316.895 77.075 316.895 77.825ZM341.712 73.975L340.687 75.175C337.837 73.55 335.012 70.7 334.062 67.95C333.162 71.025 330.537 73.9 327.312 75.825L326.187 74.725C329.862 72.675 333.112 68.85 333.112 63.675V60.9H327.512V59.55H340.312V60.9H334.887V63.675C334.887 68.75 338.512 72.325 341.712 73.975ZM345.312 80.3H343.637V58.075H345.312V66.675H349.062V68.1H345.312V80.3ZM360.46 66.625C355.385 66.625 352.285 64.8 352.285 62.275C352.285 59.775 355.385 57.95 360.46 57.95C365.535 57.95 368.66 59.775 368.66 62.275C368.66 64.8 365.535 66.625 360.46 66.625ZM360.46 59.275C356.76 59.275 353.935 60.35 353.935 62.3C353.935 64.225 356.76 65.3 360.46 65.3C364.185 65.3 366.985 64.225 366.985 62.3C366.985 60.35 364.185 59.275 360.46 59.275ZM371.385 69.975H349.585V68.625H371.385V69.975ZM368.31 80.05H352.635V72.525H368.31V80.05ZM366.635 78.7V73.875H354.31V78.7H366.635ZM392.258 80.3H390.583V58.075H392.258V80.3ZM373.958 67.125C373.958 61.8 376.408 58.675 379.658 58.675C382.933 58.675 385.358 61.8 385.358 67.125C385.358 72.475 382.933 75.6 379.658 75.6C376.408 75.6 373.958 72.475 373.958 67.125ZM383.683 67.125C383.683 62.55 382.008 60.025 379.658 60.025C377.333 60.025 375.633 62.55 375.633 67.125C375.633 71.725 377.333 74.25 379.658 74.25C382.008 74.25 383.683 71.725 383.683 67.125ZM424.437 77.225H402.587V75.875H412.762V70.85H414.462V75.875H424.437V77.225ZM413.112 68.3V69.625C411.637 69.9 409.412 70 407.762 70H405.137V59.475H412.962V60.825H406.812V68.65H407.787C409.362 68.65 411.587 68.55 413.112 68.3ZM422.162 70H413.912V59.475H421.887V60.825H415.612V68.65H422.162V70ZM446.41 79.05L445.635 80.3C442.135 79.6 438.66 77.65 437.535 75.2C436.435 77.65 432.96 79.6 429.46 80.3L428.635 79.05C432.21 78.425 436.61 76 436.61 72.875V72.25H438.46V72.875C438.46 76 442.885 78.425 446.41 79.05ZM441.46 68.3V69.575C438.86 70.15 434.785 70.45 431.285 70.45H427.335V64.025H435.76V60.325H427.335V59.025H437.41V65.3H428.985V69.125H431.285C434.66 69.125 438.71 68.825 441.46 68.3ZM444.96 73.175H443.31V66.4H438.81V65.075H443.31V62.25H438.81V60.95H443.31V58.075H444.96V73.175ZM459.583 60.075H452.658V58.725H459.583V60.075ZM467.483 80.3H465.833V58.075H467.483V67.25H471.083V68.675H467.483V80.3ZM461.883 70.95C461.883 73.875 459.583 76.225 456.208 76.225C452.833 76.225 450.533 73.875 450.533 70.95C450.533 68.025 452.833 65.65 456.208 65.65C459.583 65.65 461.883 68 461.883 70.95ZM460.233 70.95C460.233 68.6 458.658 66.975 456.233 66.975C453.783 66.975 452.208 68.575 452.208 70.95C452.208 73.3 453.783 74.9 456.233 74.9C458.658 74.9 460.233 73.3 460.233 70.95ZM463.008 63.775H449.283V62.425H463.008V63.775ZM473.131 75.525L471.856 74.45C477.031 71.55 479.706 66 480.006 61.05H473.106V59.7H481.806C481.681 66.575 478.381 72.325 473.131 75.525ZM486.831 79.25H485.206V67.875H481.406V66.475H485.206V58.45H486.831V79.25ZM491.406 80.3H489.756V58.075H491.406V80.3ZM520.736 63.325C520.736 66.2 517.636 68.45 512.461 68.45C507.311 68.45 504.211 66.2 504.211 63.325C504.211 60.475 507.311 58.225 512.461 58.225C517.636 58.225 520.736 60.475 520.736 63.325ZM519.061 63.325C519.061 61 516.236 59.575 512.461 59.575C508.736 59.575 505.886 61 505.886 63.325C505.886 65.675 508.736 67.1 512.461 67.1C516.236 67.1 519.061 65.675 519.061 63.325ZM517.286 80.3H515.636V72.125H509.436V80.1H507.736V72.125H501.611V70.775H523.436V72.125H517.286V80.3ZM540.034 73.975L539.009 75.175C536.159 73.55 533.309 70.7 532.359 67.95C531.484 71.025 528.859 73.9 525.634 75.825L524.509 74.725C528.159 72.675 531.409 68.85 531.409 63.675V60.9H525.809V59.55H538.634V60.9H533.184V63.675C533.184 68.75 536.834 72.325 540.034 73.975ZM544.309 80.3H542.634V58.075H544.309V80.3ZM564.382 73.4V74.7C562.057 75.2 559.232 75.35 555.907 75.35H548.132V74H555.357V68.85H549.782V59.45H561.832V60.8H551.457V67.5H562.357V68.85H557.032V74C559.732 73.975 562.307 73.775 564.382 73.4ZM566.932 80.3H565.282V58.075H566.932V80.3ZM592.455 77.225H570.605V75.875H578.805V67.3H580.555V75.875H592.455V77.225ZM587.98 72.55H586.255C587.18 68.9 587.755 64.525 587.855 61.075H573.28V59.725H589.63C589.505 64.15 588.83 68.825 587.98 72.55ZM622.484 77.225H600.634V75.875H610.684V70H603.709V59.475H619.359V70H612.409V75.875H622.484V77.225ZM617.684 68.65V60.825H605.384V68.65H617.684ZM634.532 66.625C629.457 66.625 626.357 64.8 626.357 62.275C626.357 59.775 629.457 57.95 634.532 57.95C639.607 57.95 642.732 59.775 642.732 62.275C642.732 64.8 639.607 66.625 634.532 66.625ZM634.532 59.275C630.832 59.275 628.007 60.35 628.007 62.3C628.007 64.225 630.832 65.3 634.532 65.3C638.257 65.3 641.057 64.225 641.057 62.3C641.057 60.35 638.257 59.275 634.532 59.275ZM645.457 69.975H623.657V68.625H645.457V69.975ZM642.382 80.05H626.707V72.525H642.382V80.05ZM640.707 78.7V73.875H628.382V78.7H640.707ZM34.975 112.55H33.325V105.625H27.975V108.475H17.35V96.85H19V101.275H26.3V96.85H27.975V99.775H33.325V96.075H34.975V112.55ZM26.3 107.125V102.575H19V107.125H26.3ZM35.8 117.95H20.1V110.775H21.775V116.6H35.8V117.95ZM33.325 104.275V101.125H27.975V104.275H33.325ZM54.723 112.125V113.425C52.398 113.925 49.573 114.075 46.273 114.075H38.798V112.725H45.723V110C42.923 109.725 41.173 108.125 41.173 106.3C41.173 104.275 43.273 102.575 46.548 102.575C49.798 102.575 51.873 104.275 51.873 106.3C51.873 108.125 50.173 109.725 47.398 110V112.725C50.073 112.7 52.673 112.5 54.723 112.125ZM57.348 118.3H55.673V96.075H57.348V105.35H60.898V106.775H57.348V118.3ZM50.223 106.3C50.223 104.9 48.773 103.875 46.548 103.875C44.298 103.875 42.848 104.9 42.848 106.3C42.848 107.7 44.298 108.7 46.548 108.7C48.773 108.7 50.223 107.7 50.223 106.3ZM53.148 101.275H39.898V99.925H53.148V101.275ZM49.948 97.9H43.073V96.55H49.948V97.9ZM63.1711 113.55L62.0961 112.425C67.9961 109.55 71.2961 104.55 71.9211 98.9H63.4711V97.55H73.7461C73.3961 105.075 69.0711 110.575 63.1711 113.55ZM80.0711 118.3H78.4211V96.075H80.0711V104.75H83.8211V106.175H80.0711V118.3ZM106.775 111.975L105.75 113.175C102.9 111.55 100.075 108.7 99.1254 105.95C98.2254 109.025 95.6004 111.9 92.3754 113.825L91.2504 112.725C94.9254 110.675 98.1754 106.85 98.1754 101.675V98.9H92.5754V97.55H105.375V98.9H99.9504V101.675C99.9504 106.75 103.575 110.325 106.775 111.975ZM110.375 118.3H108.7V96.075H110.375V104.675H114.125V106.1H110.375V118.3ZM135.198 105.1L134.248 106.325C130.473 105.575 126.923 103.55 125.523 100.9C124.148 103.55 120.598 105.575 116.798 106.325L115.823 105.1C120.148 104.45 124.523 101.675 124.623 98.3H117.373V96.95H133.648V98.3H126.423C126.523 101.675 130.948 104.45 135.198 105.1ZM136.448 110.125H126.398V118.3H124.673V110.125H114.623V108.775H136.448V110.125ZM160.403 110.175V111.525C157.603 112.1 153.228 112.35 149.878 112.35H146.428V97.1H148.078V110.975H149.878C153.228 110.975 157.403 110.725 160.403 110.175ZM163.128 118.3H161.478V96.075H163.128V103.7H166.878V105.125H163.128V118.3ZM186.126 118.3H184.476V96.075H186.126V104.5H189.876V105.925H186.126V118.3ZM183.401 110.7V112.075C180.601 112.625 176.226 112.9 172.876 112.9H169.301V97.425H180.676V98.775H170.976V104.375H180.151V105.7H170.976V111.525H172.876C176.226 111.525 180.401 111.275 183.401 110.7ZM206.399 110.175V111.525C203.599 112.1 199.224 112.35 195.874 112.35H192.424V97.1H194.074V110.975H195.874C199.224 110.975 203.399 110.725 206.399 110.175ZM209.124 118.3H207.474V96.075H209.124V103.7H212.874V105.125H209.124V118.3ZM239.503 112.55H237.853V96.075H239.503V101.6H242.903V103H239.503V112.55ZM240.428 117.95H224.953V110.55H226.628V116.6H240.428V117.95ZM236.753 105.3V106.625C234.203 107.2 230.078 107.475 226.603 107.475H222.428V97.225H233.203V98.55H224.078V106.1H226.603C229.978 106.1 234.003 105.825 236.753 105.3ZM265.526 115.375H243.676V114.025H253.726V110.65C249.826 110.475 247.376 108.95 247.376 106.9C247.376 104.725 250.201 103.15 254.576 103.15C259.001 103.15 261.801 104.725 261.801 106.9C261.801 108.95 259.326 110.475 255.451 110.65V114.025H265.526V115.375ZM260.126 106.9C260.126 105.325 257.651 104.475 254.576 104.475C251.551 104.475 249.051 105.325 249.051 106.9C249.051 108.475 251.551 109.35 254.576 109.35C257.651 109.35 260.126 108.475 260.126 106.9ZM263.501 101.7H245.676V100.35H263.501V101.7ZM259.201 98.175H249.976V96.825H259.201V98.175ZM277.674 98.075H270.749V96.725H277.674V98.075ZM285.574 118.3H283.924V96.075H285.574V105.25H289.174V106.675H285.574V118.3ZM279.974 108.95C279.974 111.875 277.674 114.225 274.299 114.225C270.924 114.225 268.624 111.875 268.624 108.95C268.624 106.025 270.924 103.65 274.299 103.65C277.674 103.65 279.974 106 279.974 108.95ZM278.324 108.95C278.324 106.6 276.749 104.975 274.324 104.975C271.874 104.975 270.299 106.575 270.299 108.95C270.299 111.3 271.874 112.9 274.324 112.9C276.749 112.9 278.324 111.3 278.324 108.95ZM281.099 101.775H267.374V100.425H281.099V101.775ZM311.522 115.225H289.672V113.875H297.872V105.3H299.622V113.875H311.522V115.225ZM307.047 110.55H305.322C306.247 106.9 306.822 102.525 306.922 99.075H292.347V97.725H308.697C308.572 102.15 307.897 106.825 307.047 110.55ZM331.252 118.675C326.352 118.675 323.402 116.75 323.402 114.125C323.402 111.525 326.352 109.6 331.252 109.6C336.102 109.6 339.052 111.525 339.052 114.125C339.052 116.75 336.102 118.675 331.252 118.675ZM331.252 110.95C327.677 110.95 325.077 112.125 325.077 114.125C325.077 116.15 327.677 117.325 331.252 117.325C334.802 117.325 337.402 116.15 337.402 114.125C337.402 112.125 334.802 110.95 331.252 110.95ZM338.527 109.225H336.877V96.075H338.527V101.7H341.927V103.075H338.527V109.225ZM321.027 108.95L320.077 107.75C325.577 106.275 329.677 102.675 330.402 98.575H321.402V97.225H332.327C331.802 103.45 326.627 107.3 321.027 108.95ZM361.8 112.75H360.125V96.075H361.8V102.925H365.2V104.325H361.8V112.75ZM362.725 117.95H347.25V111.5H348.9V116.6H362.725V117.95ZM357.225 100.8H343.55V99.5H357.225V100.8ZM353.925 97.475H346.8V96.175H353.925V97.475ZM350.425 109.825C346.975 109.825 344.75 108.1 344.75 105.975C344.75 103.85 346.975 102.125 350.425 102.125C353.85 102.125 356.1 103.85 356.1 105.975C356.1 108.1 353.85 109.825 350.425 109.825ZM350.425 103.4C347.9 103.4 346.425 104.5 346.425 105.975C346.425 107.475 347.9 108.575 350.425 108.575C352.95 108.575 354.425 107.45 354.425 105.975C354.425 104.5 352.95 103.4 350.425 103.4ZM385.904 102.3C385.904 105.5 383.429 108.05 379.854 108.05C376.229 108.05 373.779 105.5 373.779 102.3C373.779 99.05 376.229 96.475 379.854 96.475C383.429 96.475 385.904 99.05 385.904 102.3ZM379.854 106.7C382.604 106.7 384.229 104.75 384.229 102.275C384.229 99.775 382.604 97.825 379.854 97.825C377.079 97.825 375.479 99.775 375.479 102.275C375.479 104.75 377.079 106.7 379.854 106.7ZM392.379 112.575H390.704V96.075H392.379V112.575ZM393.204 117.95H377.504V110.55H379.179V116.6H393.204V117.95ZM410.427 106.35L409.452 107.6C406.652 106.575 404.152 104.5 403.127 102.275C402.227 104.725 399.677 107 396.577 108.325L395.527 107.2C399.177 105.8 402.202 102.675 402.202 98.875V96.65H403.952V98.875C403.952 102.5 407.027 105.225 410.427 106.35ZM407.402 118.675C402.502 118.675 399.552 116.8 399.552 114.25C399.552 111.725 402.502 109.85 407.402 109.85C412.252 109.85 415.227 111.725 415.227 114.25C415.227 116.8 412.252 118.675 407.402 118.675ZM407.402 111.2C403.827 111.2 401.252 112.325 401.252 114.25C401.252 116.2 403.827 117.325 407.402 117.325C410.952 117.325 413.552 116.2 413.552 114.25C413.552 112.325 410.952 111.2 407.402 111.2ZM414.677 109.4H413.027V96.075H414.677V101.2H417.952V102.575H414.677V109.4ZM437.825 99.925C437.825 102.225 434.7 103.925 429.625 103.925C424.55 103.925 421.45 102.225 421.45 99.925C421.45 97.625 424.55 95.925 429.625 95.925C434.7 95.925 437.825 97.625 437.825 99.925ZM436.15 99.95C436.15 98.2 433.35 97.225 429.625 97.225C425.925 97.225 423.1 98.2 423.1 99.95C423.1 101.675 425.925 102.65 429.625 102.65C433.35 102.65 436.15 101.675 436.15 99.95ZM438 118.05H421.775V112.925H435.775V110.575H421.775V109.25H437.45V114.2H423.45V116.725H438V118.05ZM440.55 106.925H418.75V105.6H440.55V106.925ZM464.054 107.5L463.104 108.725C460.354 107.7 457.754 105.5 456.729 103.275C455.829 105.8 453.229 108.125 450.154 109.475L449.129 108.3C452.704 106.875 455.804 103.75 455.804 99.875V98.55H450.354V97.225H462.854V98.55H457.579V99.875C457.579 103.55 460.779 106.325 464.054 107.5ZM468.404 112.55H466.729V102.75H461.704V101.375H466.729V96.075H468.404V112.55ZM469.229 117.95H453.529V110.55H455.204V116.6H469.229V117.95ZM491.052 118.05H475.952V112.575H488.852V109.825H475.952V108.525H490.527V113.825H477.602V116.725H491.052V118.05ZM490.577 107.35H488.927V96.075H490.577V100.375H493.977V101.775H490.577V107.35ZM487.827 103.725V105.025C485.277 105.6 481.152 105.875 477.677 105.875H473.502V97.225H484.277V98.525H475.152V104.55H477.677C481.052 104.55 485.077 104.275 487.827 103.725ZM505.75 98.075H498.825V96.725H505.75V98.075ZM513.65 118.3H512V96.075H513.65V105.25H517.25V106.675H513.65V118.3ZM508.05 108.95C508.05 111.875 505.75 114.225 502.375 114.225C499 114.225 496.7 111.875 496.7 108.95C496.7 106.025 499 103.65 502.375 103.65C505.75 103.65 508.05 106 508.05 108.95ZM506.4 108.95C506.4 106.6 504.825 104.975 502.4 104.975C499.95 104.975 498.375 106.575 498.375 108.95C498.375 111.3 499.95 112.9 502.4 112.9C504.825 112.9 506.4 111.3 506.4 108.95ZM509.175 101.775H495.45V100.425H509.175V101.775ZM536.923 118.3H535.248V108.325H530.248V112.4H519.573V97.55H530.248V100.875H535.248V96.075H536.923V118.3ZM528.548 111.05V98.9H521.223V111.05H528.548ZM535.248 106.975V102.225H530.248V106.975H535.248ZM542.496 120.4L542.096 120.025C542.971 119.475 543.721 118.4 543.846 117.45C543.871 117.325 543.846 117.225 543.796 117.175C543.746 117.05 543.596 116.975 543.346 116.975C542.646 116.975 541.996 116.5 541.996 115.65C541.996 114.85 542.646 114.325 543.446 114.325C544.371 114.325 545.021 115.15 545.021 116.175C545.021 117.95 543.946 119.625 542.496 120.4ZM573.813 118.3H572.138V105.85H567.013V104.45H572.138V96.075H573.813V118.3ZM556.488 113.55L555.388 112.425C561.288 109.55 564.588 104.55 565.213 98.9H556.763V97.55H567.038C566.713 105.075 562.363 110.575 556.488 113.55ZM597.786 118.05H582.411V112.9H595.586V110.475H582.411V109.175H597.261V114.15H584.086V116.725H597.786V118.05ZM592.861 105.975L592.036 107.225C589.411 106.675 586.736 105.075 585.611 103.125C584.586 105.2 581.886 107.025 578.986 108.05L578.011 106.9C581.286 105.925 584.561 103.5 584.686 100.65H579.286V99.35H591.736V100.65H586.461C586.561 103.4 589.761 105.375 592.861 105.975ZM597.286 108H595.611V96.075H597.286V108ZM589.011 97.375H582.011V96.075H589.011V97.375ZM620.334 118.3H618.659V105.5H613.409C613.284 110.625 610.884 113.6 607.709 113.6C604.459 113.6 602.034 110.475 602.034 105.125C602.034 99.8 604.459 96.675 607.709 96.675C610.734 96.675 613.109 99.425 613.384 104.125H618.659V96.075H620.334V118.3ZM607.709 112.25C610.034 112.25 611.734 109.725 611.734 105.125C611.734 100.55 610.034 98.025 607.709 98.025C605.384 98.025 603.709 100.55 603.709 105.125C603.709 109.725 605.384 112.25 607.709 112.25ZM37.45 153.225H15.6V151.875H25.65V146.75H18.675V135.175H20.35V139.25H32.65V135.175H34.325V146.75H27.375V151.875H37.45V153.225ZM32.65 145.4V140.575H20.35V145.4H32.65ZM58.298 156.3H56.623V134.075H58.298V156.3ZM39.998 143.125C39.998 137.8 42.448 134.675 45.698 134.675C48.973 134.675 51.398 137.8 51.398 143.125C51.398 148.475 48.973 151.6 45.698 151.6C42.448 151.6 39.998 148.475 39.998 143.125ZM49.723 143.125C49.723 138.55 48.048 136.025 45.698 136.025C43.373 136.025 41.673 138.55 41.673 143.125C41.673 147.725 43.373 150.25 45.698 150.25C48.048 150.25 49.723 147.725 49.723 143.125ZM80.7711 156.3H79.0961V134.075H80.7711V156.3ZM63.4461 151.55L62.3461 150.425C68.2461 147.55 71.5711 142.55 72.2211 136.9H63.7211V135.55H74.0211C73.6961 143.075 69.3211 148.575 63.4461 151.55ZM106.444 153.225H84.5941V151.875H94.7941V146H87.6691V135.475H103.644V136.825H89.3441V144.65H103.894V146H96.4941V151.875H106.444V153.225ZM125.623 136.075H118.698V134.725H125.623V136.075ZM133.523 156.3H131.873V134.075H133.523V143.25H137.123V144.675H133.523V156.3ZM127.923 146.95C127.923 149.875 125.623 152.225 122.248 152.225C118.873 152.225 116.573 149.875 116.573 146.95C116.573 144.025 118.873 141.65 122.248 141.65C125.623 141.65 127.923 144 127.923 146.95ZM126.273 146.95C126.273 144.6 124.698 142.975 122.273 142.975C119.823 142.975 118.248 144.575 118.248 146.95C118.248 149.3 119.823 150.9 122.273 150.9C124.698 150.9 126.273 149.3 126.273 146.95ZM129.048 139.775H115.323V138.425H129.048V139.775ZM153.046 149.975L152.021 151.175C149.171 149.55 146.321 146.7 145.371 143.95C144.496 147.025 141.871 149.9 138.646 151.825L137.521 150.725C141.171 148.675 144.421 144.85 144.421 139.675V136.9H138.821V135.55H151.646V136.9H146.196V139.675C146.196 144.75 149.846 148.325 153.046 149.975ZM157.321 156.3H155.646V134.075H157.321V156.3ZM172.77 145.475H162.22V135.225H172.77V145.475ZM171.095 144.125V136.55H163.895V144.125H171.095ZM179.445 150.55H177.795V134.075H179.445V139.675H182.845V141.075H179.445V150.55ZM180.37 155.95H164.895V148.55H166.57V154.6H180.37V155.95ZM209.924 156.05H193.699V150.9H207.699V148.5H193.699V147.175H209.374V152.15H195.374V154.725H209.924V156.05ZM212.474 144.975H190.674V143.65H200.699V140.45H202.424V143.65H212.474V144.975ZM211.124 140.625L210.224 141.8C206.574 141.15 202.924 139.45 201.549 137.05C200.199 139.45 196.524 141.15 192.924 141.8L192.024 140.625C196.049 140.025 200.674 137.775 200.674 134.8V134.025H202.449V134.8C202.449 137.775 207.074 140.025 211.124 140.625ZM228.947 144.6L227.947 145.8C225.147 144.775 222.647 142.725 221.622 140.55C220.722 142.975 218.122 145.275 215.072 146.55L214.022 145.4C217.597 144.1 220.697 140.925 220.697 137.15V136.55H215.247V135.225H227.747V136.55H222.472V137.15C222.472 140.775 225.622 143.525 228.947 144.6ZM233.247 156.425H231.572V150.025H217.897V148.65H233.247V156.425ZM233.297 147.45H231.622V134.075H233.297V147.45ZM255.695 156.05H241.095V148.775H255.695V156.05ZM254.02 154.75V150.075H242.77V154.75H254.02ZM255.745 147.575H254.07V134.075H255.745V140.075H259.145V141.45H255.745V147.575ZM251.17 138.525H237.495V137.225H251.17V138.525ZM247.87 135.475H240.745V134.175H247.87V135.475ZM244.37 146.975C240.92 146.975 238.695 145.35 238.695 143.35C238.695 141.35 240.92 139.725 244.37 139.725C247.795 139.725 250.045 141.35 250.045 143.35C250.045 145.35 247.795 146.975 244.37 146.975ZM244.37 141C241.845 141 240.37 142 240.37 143.35C240.37 144.725 241.845 145.725 244.37 145.725C246.895 145.725 248.37 144.7 248.37 143.35C248.37 142 246.895 141 244.37 141ZM279.343 156.3H277.668V134.075H279.343V156.3ZM261.043 143.125C261.043 137.8 263.493 134.675 266.743 134.675C270.018 134.675 272.443 137.8 272.443 143.125C272.443 148.475 270.018 151.6 266.743 151.6C263.493 151.6 261.043 148.475 261.043 143.125ZM270.768 143.125C270.768 138.55 269.093 136.025 266.743 136.025C264.418 136.025 262.718 138.55 262.718 143.125C262.718 147.725 264.418 150.25 266.743 150.25C269.093 150.25 270.768 147.725 270.768 143.125ZM308.447 156.05H293.872V147.65H308.447V156.05ZM306.772 154.7V148.975H295.522V154.7H306.772ZM308.497 146.45H306.847V134.075H308.497V138.65H311.897V140.05H308.497V146.45ZM305.747 142.4V143.725C303.197 144.3 299.072 144.575 295.597 144.575H291.422V135.225H302.197V136.55H293.072V143.225H295.597C298.972 143.225 302.997 142.925 305.747 142.4ZM332.87 155.95H317.17V148.625H318.845V154.6H332.87V155.95ZM314.12 147.8L313.17 146.575C318.845 144.875 322.82 140.85 323.52 136.575H314.545V135.225H325.445C324.92 141.525 319.97 145.8 314.12 147.8ZM332.045 150.55H330.395V134.075H332.045V150.55ZM362 156.05H346.9V150.575H359.8V147.825H346.9V146.525H361.475V151.825H348.55V154.725H362V156.05ZM354.85 143.875H344.3V135.225H354.85V143.875ZM353.175 142.575V136.525H345.975V142.575H353.175ZM361.525 145.35H359.875V134.075H361.525V138.425H364.925V139.825H361.525V145.35ZM384.873 145.05H368.773V134.775H384.398V136.125H370.448V139.2H384.298V140.525H370.448V143.675H384.873V145.05ZM387.548 149H377.473V156.3H375.748V149H365.698V147.65H387.548V149ZM410.546 153.375H388.696V152.025H398.896V147.3H391.771V140.625H405.496V136.65H391.771V135.3H407.146V141.95H393.446V145.925H407.871V147.3H400.596V152.025H410.546V153.375ZM438.525 152.35C438.525 154.825 435.475 156.675 430.425 156.675C425.4 156.675 422.35 154.825 422.35 152.35C422.35 149.875 425.4 148.025 430.425 148.025C435.475 148.025 438.525 149.875 438.525 152.35ZM434.625 144V145.3C431.975 145.725 427.725 145.875 424.3 145.875H419.2V144.55H422.525L422.375 136.5H419.875V135.2H432.825V136.5H430.4L430.225 144.4C431.85 144.325 433.375 144.175 434.625 144ZM436.85 152.35C436.85 150.475 434.15 149.375 430.425 149.375C426.75 149.375 424.025 150.475 424.025 152.35C424.025 154.25 426.75 155.325 430.425 155.325C434.15 155.325 436.85 154.25 436.85 152.35ZM428.625 144.475L428.775 136.5H424.025L424.15 144.55H424.3C425.65 144.55 427.125 144.525 428.625 144.475ZM438.1 147.8H436.45V142.55H432.65V141.225H436.45V138.975H432.65V137.65H436.45V134.075H438.1V147.8ZM443.298 151.55L442.223 150.425C448.123 147.55 451.423 142.55 452.048 136.9H443.598V135.55H453.873C453.523 143.075 449.198 148.575 443.298 151.55ZM460.198 156.3H458.548V134.075H460.198V142.75H463.948V144.175H460.198V156.3ZM481.671 145.575V146.875C479.346 147.275 476.346 147.45 472.996 147.45H465.246V146.1H472.671V142.85H467.221V135.1H479.071V136.425H468.896V141.5H479.596V142.85H474.321V146.1C476.971 146.075 479.621 145.875 481.671 145.575ZM484.746 155.95H469.096V149.55H470.771V154.575H484.746V155.95ZM484.246 151.2H482.571V134.075H484.246V151.2ZM506.194 156.3H504.544V134.075H506.194V142H509.944V143.425H506.194V156.3ZM503.469 148.2V149.55C500.669 150.125 496.294 150.4 492.944 150.4H489.494V135.55H500.219V136.9H491.144V149.025H492.944C496.294 149.025 500.469 148.75 503.469 148.2ZM514.942 153.825C514.942 154.625 514.317 155.225 513.517 155.225C512.667 155.225 512.042 154.625 512.042 153.825C512.042 153.075 512.667 152.425 513.517 152.425C514.317 152.425 514.942 153.075 514.942 153.825Z" fill="black"/>
</svg>
