<svg width="975" height="142" viewBox="0 0 975 142" fill="none" xmlns="http://www.w3.org/2000/svg">
<rect x="0.5" y="0.5" width="974" height="141" fill="white"/>
<rect x="0.5" y="0.5" width="974" height="141" stroke="black"/>
<path d="M30.175 34.075C30.4 33.3 30.65 32.325 30.95 31.275L26 31.675L27.1 28.7L31.75 28.325C31.925 27.725 32.1 27.125 32.25 26.525L27.925 26.875C25.75 29.7 23.525 32.025 21.6 33.875L15.825 34.15C19.475 30.875 22.875 26.975 24.85 24.4C23.375 24.525 19.7 24.825 17.15 25.05L18.125 21.875C21.125 21.65 28.725 21.125 31.875 20.95C31.3 21.95 30.725 22.9 30.125 23.8L33.075 23.575C33.4 22.4 33.7 21.375 33.95 20.575L38.95 20.175C37.75 23.65 35.55 30.325 34.475 33.85L30.175 34.075ZM16.275 39.2C17.825 36 22.325 33.875 27.45 33.975C32.125 34.075 34.725 36.65 33.675 39.35C32.175 43.35 27.7 45.1 22.25 44.95C16.975 44.825 14.825 42.2 16.275 39.2ZM20.6 39.45C19.925 40.7 21.1 41.625 23.4 41.6C25.95 41.675 28.175 40.825 28.9 39.25C29.475 37.95 28.475 37.225 25.9 37.225C23.4 37.25 21.25 38.225 20.6 39.45ZM53.173 34.2C54.123 30.775 55.998 23.725 56.948 20.575L61.948 20.175L60.048 25.85L62.848 25.525L61.798 28.5L59.098 28.825C58.473 30.775 57.898 32.6 57.473 33.975L53.173 34.2ZM37.248 34.8C41.123 31.175 45.048 24.6 47.148 20.9L51.523 20.65C50.723 22.325 49.573 24.525 48.298 26.725L50.748 26.2C50.998 28.575 51.873 30.95 53.073 32.975L48.148 33.425C47.523 32.225 47.098 30.65 46.898 29.075C45.523 31.275 44.098 33.25 42.898 34.425L37.248 34.8ZM39.273 39.325C40.798 36.2 45.323 34.125 50.448 34.225C55.123 34.325 57.698 36.825 56.673 39.475C55.198 43.4 50.698 45.1 45.248 44.95C39.973 44.825 37.848 42.275 39.273 39.325ZM43.598 39.575C42.948 40.775 44.098 41.625 46.398 41.6C48.948 41.675 51.198 40.875 51.898 39.375C52.448 38.15 51.473 37.475 48.898 37.475C46.398 37.5 44.223 38.4 43.598 39.575ZM62.9838 35.55C64.0588 32.4 65.2838 28.575 66.2338 25.8C65.4588 25.875 64.8088 25.95 64.3338 26.025L65.4838 22.25C69.0838 22.05 81.3088 21.2 84.5338 21.025L83.3838 24.275C81.7588 24.375 76.1588 24.85 71.3088 25.3C70.6088 27.425 69.7838 30.2 69.4838 31.325C72.5588 31.075 80.3588 30.375 83.3838 30.075L82.0838 33.425C80.3588 33.6 78.0588 33.85 75.5588 34.125L74.1588 39.425C78.0588 39.125 81.5588 38.825 82.6088 38.75L81.8338 41.9C79.7588 42.075 63.0588 43.725 60.2338 44.025L61.0838 40.525C61.9338 40.45 65.1838 40.175 68.9088 39.875C69.3838 38.325 69.9838 36.275 70.4588 34.7C67.7088 35 65.0588 35.3 62.9838 35.55ZM90.2637 41.8C94.2387 36.55 98.2637 27.025 100.414 21.65L104.664 21.4C103.839 23.875 102.639 27.15 101.289 30.375L103.889 29.825C104.139 33.2 104.939 36.625 106.064 39.625C107.364 33.275 109.014 26.375 110.714 20.525L115.339 20.1C114.339 23.5 113.464 27.1 112.714 30.65C113.839 30.525 114.964 30.375 116.114 30.225L115.339 33.425C114.264 33.575 113.139 33.75 112.039 33.9C111.339 37.5 110.739 41.025 110.214 44.225L105.164 44.4C105.389 43.175 105.614 41.925 105.864 40.65L101.539 40.925C100.764 38.875 100.239 36.1 100.014 33.375C98.5637 36.675 97.0387 39.675 95.7887 41.425L90.2637 41.8ZM115.349 35.525C117.449 35.325 134.324 33.95 136.874 33.75L136.099 36.9C135.199 36.975 131.624 37.325 127.599 37.725L125.399 44.2L120.074 44.7C120.599 43.325 121.524 40.725 122.424 38.225C118.799 38.575 115.599 38.9 114.499 39.025L115.349 35.525ZM116.749 34.275C117.424 32.7 118.174 30.775 118.774 29.275C118.149 29.35 117.549 29.4 116.999 29.45L118.274 26.05C122.849 25.675 132.524 24.85 137.774 24.325L136.599 27.675C133.499 27.975 128.424 28.4 123.774 28.825C123.499 29.45 123.249 30.075 123.124 30.375C126.199 30.125 134.124 29.425 137.149 29.125L135.849 32.475C131.149 32.925 122.024 33.8 116.749 34.275ZM118.099 25.075L119.249 21.55C122.924 21.35 135.599 20.5 138.924 20.325L137.774 23.45C135.074 23.625 121.774 24.775 118.099 25.075ZM151.184 44.4C151.709 41.5 152.334 38.375 153.034 35.2C149.284 38.1 142.884 41.625 137.284 42.325C137.959 39.85 139.384 35.2 140.259 32.275C139.609 32.375 139.059 32.425 138.659 32.475L139.709 29.2C141.509 29.05 145.759 28.55 147.309 28.35C147.684 27.15 148.234 25.5 148.609 24.2C147.084 24.325 143.134 24.65 140.434 24.925L141.409 21.975L154.159 20.975C153.484 23.475 151.759 28.675 151.134 30.775C150.234 30.875 147.734 31.25 145.184 31.6C144.609 33.425 143.859 35.9 143.559 36.925C146.534 36.2 149.884 34.675 153.659 32.4C154.609 28.275 155.684 24.2 156.734 20.525L161.359 20.1C159.034 28.025 157.409 36.975 156.234 44.225L151.184 44.4Z" fill="#FF0561"/>
<path d="M185.457 33.8H163.657V32.45H185.457V33.8ZM182.932 29.075H166.707V21.15H168.382V27.725H182.932V29.075ZM183.357 42.95H166.732V36H168.407V41.575H183.357V42.95ZM212.412 43.3H210.737V21.075H212.412V30.1H215.962V31.525H212.412V43.3ZM209.787 36.4V37.7C207.462 38.2 204.637 38.35 201.337 38.35H193.862V37H199.112V29.15H200.787V37H201.437C204.512 37 207.462 36.825 209.787 36.4ZM206.262 33.725H204.612C205.137 31.2 205.687 26.875 205.637 23.8H195.162V22.45H207.387C207.362 25.9 206.912 30.675 206.262 33.725ZM235.835 43.3H234.16V30.85H229.035V29.45H234.16V21.075H235.835V43.3ZM218.51 38.55L217.41 37.425C223.31 34.55 226.61 29.55 227.235 23.9H218.785V22.55H229.06C228.735 30.075 224.385 35.575 218.51 38.55ZM266.764 39.25C266.764 41.8 263.689 43.675 258.664 43.675C253.639 43.675 250.564 41.8 250.564 39.25C250.564 36.725 253.639 34.85 258.664 34.85C263.689 34.85 266.764 36.725 266.764 39.25ZM265.064 39.25C265.064 37.325 262.339 36.2 258.664 36.2C254.964 36.2 252.264 37.325 252.264 39.25C252.264 41.2 254.964 42.325 258.664 42.325C262.339 42.325 265.064 41.2 265.064 39.25ZM261.989 31.85L260.989 33.05C258.189 32.025 255.689 29.975 254.664 27.8C253.764 30.225 251.164 32.525 248.114 33.8L247.064 32.65C250.639 31.35 253.739 28.175 253.739 24.4V23.55H248.289V22.225H260.789V23.55H255.514V24.4C255.514 28.025 258.664 30.775 261.989 31.85ZM266.339 34.675H264.664V27.625H259.639V26.25H264.664V21.075H266.339V34.675ZM285.037 37.275L284.037 38.475C280.987 37 278.387 34.5 277.437 31.775C276.487 34.675 273.837 37.375 270.762 39.05L269.662 37.975C273.137 36.225 276.487 32.775 276.487 27.875V27.125H270.887V25.775H283.712V27.125H278.262V27.875C278.262 32.65 281.662 35.75 285.037 37.275ZM289.387 43.3H287.712V21.075H289.387V43.3ZM280.912 23.075H273.687V21.725H280.912V23.075ZM297.785 32.05C297.785 32.975 297.085 33.625 296.01 33.625C295.06 33.625 294.36 32.95 294.36 32.05C294.36 31.075 295.06 30.45 296.11 30.45C297.085 30.45 297.785 31.125 297.785 32.05ZM312.418 43.675C307.368 43.675 304.318 41.75 304.318 39.125C304.318 36.525 307.368 34.6 312.418 34.6C317.443 34.6 320.493 36.525 320.493 39.125C320.493 41.75 317.443 43.675 312.418 43.675ZM312.418 35.95C308.718 35.95 305.993 37.125 305.993 39.15C305.993 41.15 308.718 42.325 312.418 42.325C316.118 42.325 318.818 41.15 318.818 39.15C318.818 37.125 316.118 35.95 312.418 35.95ZM302.168 33.95L301.218 32.75C306.743 31.275 310.843 27.675 311.543 23.575H302.568V22.225H313.468C312.943 28.45 307.768 32.3 302.168 33.95ZM320.068 34.425H318.418V30.675H313.418V29.325H318.418V26.05H313.943V24.7H318.418V21.075H320.068V34.425ZM336.441 36.95L335.416 38.075C332.991 36.4 331.166 33.925 330.391 31.425C329.666 34.2 327.566 36.9 324.716 38.825L323.516 37.8C326.966 35.7 329.491 31.7 329.491 27.025V24.05H325.216V22.7H335.316V24.05H331.241V27.025C331.241 31.8 333.716 35.25 336.441 36.95ZM339.491 42.25H337.866V29.725H333.791V28.325H337.866V21.45H339.491V42.25ZM344.016 43.3H342.366V21.075H344.016V43.3ZM375.545 32.725H365.495V35.325C370.245 35.5 372.945 37.2 372.945 39.475C372.945 41.925 369.945 43.675 364.62 43.675C359.32 43.675 356.295 41.925 356.295 39.475C356.295 37.2 358.97 35.5 363.77 35.325V32.725H353.745V31.375H375.545V32.725ZM371.27 39.475C371.27 37.75 368.77 36.6 364.62 36.6C360.47 36.6 357.97 37.75 357.97 39.475C357.97 41.225 360.47 42.375 364.62 42.375C368.77 42.375 371.27 41.225 371.27 39.475ZM374.17 28.55L373.27 29.75C369.52 29.2 366.07 27.325 364.645 24.925C363.245 27.375 359.77 29.175 356.07 29.75L355.17 28.55C359.145 27.975 363.245 25.825 363.72 23.15H356.52V21.8H372.745V23.15H365.595C366.07 25.85 370.32 28.025 374.17 28.55ZM391.693 31.15L390.718 32.4C387.918 31.4 385.393 29.325 384.368 27.1C383.468 29.55 380.943 31.825 377.818 33.15L376.793 32C380.443 30.6 383.443 27.5 383.443 23.7V21.65H385.218V23.7C385.218 27.325 388.293 30.025 391.693 31.15ZM396.343 43.05H381.493V34.825H396.343V43.05ZM394.668 41.7V36.175H383.168V41.7H394.668ZM396.368 33.625H394.693V21.075H396.368V33.625ZM415.141 36.975L414.116 38.175C411.266 36.55 408.416 33.7 407.466 30.95C406.591 34.025 403.966 36.9 400.741 38.825L399.616 37.725C403.266 35.675 406.516 31.85 406.516 26.675V23.9H400.916V22.55H413.741V23.9H408.291V26.675C408.291 31.75 411.941 35.325 415.141 36.975ZM419.416 43.3H417.741V21.075H419.416V43.3ZM442.364 34H440.689V30.35H434.689C433.639 31.7 431.939 32.55 429.839 32.55C426.239 32.55 423.814 30.1 423.814 27.025C423.814 23.95 426.239 21.475 429.839 21.475C431.964 21.475 433.664 22.375 434.739 23.725H440.689V21.075H442.364V34ZM434.164 27.025C434.164 24.675 432.564 22.825 429.839 22.825C427.089 22.825 425.514 24.675 425.514 27.025C425.514 29.35 427.089 31.2 429.839 31.2C432.564 31.2 434.164 29.35 434.164 27.025ZM444.764 42.275L443.714 43.4C441.764 42.4 439.764 40.5 439.114 38.675C438.464 40.425 436.664 42.375 434.914 43.325C433.139 42.375 431.314 40.425 430.689 38.675C430.014 40.5 428.039 42.4 426.089 43.4L425.039 42.275C427.389 41.2 429.839 38.65 429.839 35.95V34.975H431.514V35.95C431.514 38.25 433.364 40.6 434.914 41.575C436.439 40.6 438.289 38.25 438.289 35.95V34.975H439.964V35.95C439.964 38.65 442.439 41.2 444.764 42.275ZM440.689 29V25.075H435.489C435.739 25.7 435.839 26.35 435.839 27.025C435.839 27.725 435.739 28.4 435.489 29H440.689ZM465.912 42.95H450.212V35.75H451.887V41.6H465.912V42.95ZM461.587 30.775V32.1C458.987 32.675 454.912 32.975 451.412 32.975H447.587V22.225H458.237V23.55H449.237V31.6H451.412C454.787 31.6 458.837 31.325 461.587 30.775ZM465.087 37.55H463.437V27.85H456.387V26.5H463.437V21.075H465.087V37.55ZM491.167 36.975L490.142 38.175C487.292 36.55 484.442 33.7 483.492 30.95C482.617 34.025 479.992 36.9 476.767 38.825L475.642 37.725C479.292 35.675 482.542 31.85 482.542 26.675V23.9H476.942V22.55H489.767V23.9H484.317V26.675C484.317 31.75 487.967 35.325 491.167 36.975ZM495.442 43.3H493.767V21.075H495.442V43.3ZM518.39 34.2H516.715V30.4H510.69C509.615 31.725 507.94 32.55 505.865 32.55C502.265 32.55 499.84 30.1 499.84 27.025C499.84 23.95 502.265 21.475 505.865 21.475C507.99 21.475 509.69 22.375 510.765 23.725H516.715V21.075H518.39V34.2ZM510.19 27.025C510.19 24.675 508.59 22.825 505.865 22.825C503.115 22.825 501.54 24.675 501.54 27.025C501.54 29.35 503.115 31.2 505.865 31.2C508.59 31.2 510.19 29.35 510.19 27.025ZM518.34 43.425H516.665V36.775H502.99V35.4H518.34V43.425ZM516.715 29.05V25.075H511.515C511.765 25.7 511.865 26.35 511.865 27.025C511.865 27.75 511.765 28.425 511.49 29.05H516.715ZM537.038 31.85L536.038 33.05C533.238 32.025 530.738 29.975 529.713 27.8C528.813 30.225 526.213 32.525 523.163 33.8L522.113 32.65C525.688 31.35 528.788 28.175 528.788 24.4V23.55H523.338V22.225H535.838V23.55H530.563V24.4C530.563 28.025 533.713 30.775 537.038 31.85ZM541.338 43.425H539.663V37.025H525.988V35.65H541.338V43.425ZM541.388 34.45H539.713V27.625H534.688V26.225H539.713V21.075H541.388V34.45ZM565.842 26.325C565.842 28.95 563.442 31.2 559.842 31.2C556.217 31.2 553.792 28.95 553.792 26.325C553.792 23.725 556.217 21.475 559.842 21.475C563.442 21.475 565.842 23.725 565.842 26.325ZM564.167 26.325C564.167 24.475 562.667 22.825 559.842 22.825C556.992 22.825 555.467 24.475 555.467 26.325C555.467 28.175 556.992 29.85 559.842 29.85C562.667 29.85 564.167 28.175 564.167 26.325ZM571.092 43.3H569.442V21.075H571.092V43.3ZM560.617 42.8H558.942V34.725H552.292V33.375H560.467C563.267 33.375 566.367 33.125 568.492 32.75V34.075C566.492 34.5 563.692 34.7 560.617 34.725V42.8ZM589.465 31.35L588.49 32.6C585.69 31.575 583.19 29.5 582.165 27.275C581.265 29.725 578.715 32 575.615 33.325L574.565 32.2C578.215 30.8 581.24 27.675 581.24 23.875V21.65H582.99V23.875C582.99 27.5 586.065 30.225 589.465 31.35ZM586.44 43.675C581.54 43.675 578.59 41.8 578.59 39.25C578.59 36.725 581.54 34.85 586.44 34.85C591.29 34.85 594.265 36.725 594.265 39.25C594.265 41.8 591.29 43.675 586.44 43.675ZM586.44 36.2C582.865 36.2 580.29 37.325 580.29 39.25C580.29 41.2 582.865 42.325 586.44 42.325C589.99 42.325 592.59 41.2 592.59 39.25C592.59 37.325 589.99 36.2 586.44 36.2ZM593.715 34.4H592.065V21.075H593.715V26.2H596.99V27.575H593.715V34.4ZM616.513 43.3H614.838V21.075H616.513V30.1H620.063V31.525H616.513V43.3ZM613.888 36.4V37.7C611.563 38.2 608.738 38.35 605.438 38.35H597.963V37H603.213V29.15H604.888V37H605.538C608.613 37 611.563 36.825 613.888 36.4ZM610.363 33.725H608.713C609.238 31.2 609.788 26.875 609.738 23.8H599.263V22.45H611.488C611.463 25.9 611.013 30.675 610.363 33.725ZM647.367 43.3H645.717V30.425H642.267V42.25H640.642V21.45H642.267V28.95H645.717V21.075H647.367V43.3ZM639.492 35.675V37.025C637.417 37.35 634.367 37.55 632.192 37.55H629.717V22.75H637.992V24.1H631.317V36.175H632.192C634.367 36.175 637.392 36 639.492 35.675ZM672.615 32.725H662.565V35.325C667.315 35.5 670.015 37.2 670.015 39.475C670.015 41.925 667.015 43.675 661.69 43.675C656.39 43.675 653.365 41.925 653.365 39.475C653.365 37.2 656.04 35.5 660.84 35.325V32.725H650.815V31.375H672.615V32.725ZM668.34 39.475C668.34 37.75 665.84 36.6 661.69 36.6C657.54 36.6 655.04 37.75 655.04 39.475C655.04 41.225 657.54 42.375 661.69 42.375C665.84 42.375 668.34 41.225 668.34 39.475ZM671.24 28.55L670.34 29.75C666.59 29.2 663.14 27.325 661.715 24.925C660.315 27.375 656.84 29.175 653.14 29.75L652.24 28.55C656.215 27.975 660.315 25.825 660.79 23.15H653.59V21.8H669.815V23.15H662.665C663.14 25.85 667.39 28.025 671.24 28.55ZM693.363 43.3H691.713V30.475H688.263V42.25H686.638V21.45H688.263V29.025H691.713V21.075H693.363V43.3ZM683.963 37.4H675.438V22.7H683.963V37.4ZM682.288 36.05V24.05H677.063V36.05H682.288ZM709.462 37.25L708.462 38.4C706.287 36.975 704.237 34.475 703.487 32.15C702.712 34.65 700.537 37.325 697.787 39.15L696.662 38.1C700.012 36.125 702.587 32.475 702.587 28.025V27.3H698.112V25.95H708.712V27.3H704.337V28.025C704.337 32.425 706.962 35.8 709.462 37.25ZM712.562 42.25H710.937V31.55H707.337V30.175H710.937V21.45H712.562V42.25ZM717.087 43.3H715.437V21.075H717.087V43.3ZM706.537 23.225H700.287V21.875H706.537V23.225ZM748.666 40.225H726.816V38.875H737.016V32.4H729.791V21.975H731.466V31.05H746.391V32.4H738.716V38.875H748.666V40.225ZM769.089 43.05H752.864V38.15H766.864V35.95H752.864V34.675H759.864V32.475H749.839V31.2H771.639V32.475H761.589V34.675H768.539V39.4H754.539V41.75H769.089V43.05ZM770.239 28.8L769.389 30.025C765.914 29.65 762.389 28.4 760.739 26.475C759.114 28.4 755.539 29.65 752.139 30.025L751.264 28.8C754.639 28.5 758.764 27.075 759.689 25.225H752.614V23.975H768.839V25.225H761.789C762.689 27.075 766.814 28.5 770.239 28.8ZM765.189 22.275H756.414V21H765.189V22.275ZM792.137 43.3H790.487V21.075H792.137V43.3ZM789.587 36.15V37.45C787.262 37.95 784.437 38.1 781.112 38.1H773.337V36.75H781.212C784.287 36.75 787.262 36.55 789.587 36.15ZM780.987 32.875C777.437 32.875 774.837 30.375 774.837 27.4C774.837 24.425 777.437 21.95 780.987 21.95C784.587 21.95 787.187 24.425 787.187 27.4C787.187 30.375 784.587 32.875 780.987 32.875ZM780.987 23.3C778.187 23.3 776.512 25.15 776.512 27.4C776.512 29.65 778.187 31.525 780.987 31.525C783.787 31.525 785.512 29.65 785.512 27.4C785.512 25.15 783.787 23.3 780.987 23.3ZM822.491 34.675H820.816V30.35H814.816C813.766 31.7 812.066 32.55 809.966 32.55C806.366 32.55 803.941 30.1 803.941 27.025C803.941 23.95 806.366 21.475 809.966 21.475C812.091 21.475 813.791 22.375 814.866 23.725H820.816V21.075H822.491V34.675ZM822.916 39.275C822.916 41.8 819.841 43.675 814.791 43.675C809.791 43.675 806.716 41.8 806.716 39.275C806.716 36.725 809.791 34.85 814.791 34.85C819.841 34.85 822.916 36.725 822.916 39.275ZM821.216 39.275C821.216 37.325 818.491 36.2 814.791 36.2C811.116 36.2 808.416 37.325 808.416 39.275C808.416 41.2 811.116 42.325 814.791 42.325C818.491 42.325 821.216 41.2 821.216 39.275ZM814.291 27.025C814.291 24.675 812.691 22.825 809.966 22.825C807.216 22.825 805.641 24.675 805.641 27.025C805.641 29.35 807.216 31.2 809.966 31.2C812.691 31.2 814.291 29.35 814.291 27.025ZM820.816 29V25.075H815.616C815.866 25.7 815.966 26.35 815.966 27.025C815.966 27.725 815.866 28.4 815.616 29H820.816ZM840.364 25.525H826.689V24.225H840.364V25.525ZM837.064 22.475H829.939V21.175H837.064V22.475ZM833.564 33.975C830.114 33.975 827.889 32.35 827.889 30.35C827.889 28.35 830.114 26.725 833.564 26.725C836.989 26.725 839.239 28.35 839.239 30.35C839.239 32.35 836.989 33.975 833.564 33.975ZM833.564 28C831.039 28 829.564 29 829.564 30.35C829.564 31.725 831.039 32.725 833.564 32.725C836.089 32.725 837.564 31.7 837.564 30.35C837.564 29 836.089 28 833.564 28ZM837.639 43.675C832.764 43.675 829.789 42 829.789 39.725C829.789 37.475 832.764 35.8 837.639 35.8C842.514 35.8 845.464 37.475 845.464 39.725C845.464 42 842.514 43.675 837.639 43.675ZM837.639 37.05C834.039 37.05 831.489 38.05 831.489 39.725C831.489 41.425 834.039 42.4 837.639 42.4C841.214 42.4 843.789 41.425 843.789 39.725C843.789 38.05 841.214 37.05 837.639 37.05ZM844.939 35.6H843.264V21.075H844.939V25.075H848.214V26.425H844.939V29.7H848.214V31.05H844.939V35.6ZM859.737 33.8C854.887 33.8 851.562 31.15 851.562 27.675C851.562 24.175 854.887 21.525 859.737 21.525C864.612 21.525 867.962 24.175 867.962 27.675C867.962 31.15 864.612 33.8 859.737 33.8ZM859.737 22.875C856.062 22.875 853.212 24.775 853.212 27.675C853.212 30.55 856.062 32.45 859.737 32.45C863.437 32.45 866.287 30.55 866.287 27.675C866.287 24.775 863.437 22.875 859.737 22.875ZM870.687 40.05H848.837V38.7H870.687V40.05ZM893.685 40.375H871.835V39.025H882.035V34.3H874.91V27.625H888.635V23.65H874.91V22.3H890.285V28.95H876.585V32.925H891.01V34.3H883.735V39.025H893.685V40.375ZM896.583 45.4L896.183 45.025C897.058 44.475 897.808 43.4 897.933 42.45C897.958 42.325 897.933 42.225 897.883 42.175C897.833 42.05 897.683 41.975 897.433 41.975C896.733 41.975 896.083 41.5 896.083 40.65C896.083 39.85 896.733 39.325 897.533 39.325C898.458 39.325 899.108 40.15 899.108 41.175C899.108 42.95 898.033 44.625 896.583 45.4ZM30.9 70.5L29.95 71.725C27.2 70.7 24.6 68.5 23.575 66.275C22.675 68.8 20.075 71.125 17 72.475L15.975 71.3C19.55 69.875 22.65 66.75 22.65 62.875V61.55H17.2V60.225H29.7V61.55H24.425V62.875C24.425 66.55 27.625 69.325 30.9 70.5ZM35.25 75.55H33.575V65.75H28.55V64.375H33.575V59.075H35.25V75.55ZM36.075 80.95H20.375V73.55H22.05V79.6H36.075V80.95ZM57.273 81.425H55.598V75.05H41.323V73.7H48.373V69.3H38.623V67.95H55.123C55.573 65.8 55.948 62.975 56.023 61.15H41.273V59.8H57.723C57.623 62.825 57.198 65.825 56.748 67.95H60.423V69.3H50.048V73.7H57.273V81.425ZM76.8961 69.85L75.8961 71.05C73.0961 70.025 70.5961 67.975 69.5711 65.8C68.6711 68.225 66.0711 70.525 63.0211 71.8L61.9711 70.65C65.5461 69.35 68.6461 66.175 68.6461 62.4V61.55H63.1961V60.225H75.6961V61.55H70.4211V62.4C70.4211 66.025 73.5711 68.775 76.8961 69.85ZM81.1961 81.425H79.5211V75.025H65.8461V73.65H81.1961V81.425ZM81.2461 72.45H79.5711V65.625H74.5461V64.225H79.5711V59.075H81.2461V72.45ZM95.4941 71.8C90.6441 71.8 87.3191 69.15 87.3191 65.675C87.3191 62.175 90.6441 59.525 95.4941 59.525C100.369 59.525 103.719 62.175 103.719 65.675C103.719 69.15 100.369 71.8 95.4941 71.8ZM95.4941 60.875C91.8191 60.875 88.9691 62.775 88.9691 65.675C88.9691 68.55 91.8191 70.45 95.4941 70.45C99.1941 70.45 102.044 68.55 102.044 65.675C102.044 62.775 99.1941 60.875 95.4941 60.875ZM106.444 78.05H84.5941V76.7H106.444V78.05ZM129.442 78.375H107.592V77.025H117.792V72.3H110.667V65.625H124.392V61.65H110.667V60.3H126.042V66.95H112.342V70.925H126.767V72.3H119.492V77.025H129.442V78.375ZM139.196 76.55L138.121 75.425C144.021 72.55 147.321 67.55 147.946 61.9H139.496V60.55H149.771C149.421 68.075 145.096 73.575 139.196 76.55ZM156.096 81.3H154.446V59.075H156.096V67.75H159.846V69.175H156.096V81.3ZM180.12 77.25C180.12 79.8 177.145 81.675 172.295 81.675C167.395 81.675 164.445 79.8 164.445 77.25C164.445 74.725 167.395 72.85 172.295 72.85C177.145 72.85 180.12 74.725 180.12 77.25ZM178.445 77.25C178.445 75.325 175.845 74.2 172.295 74.2C168.72 74.2 166.145 75.325 166.145 77.25C166.145 79.2 168.72 80.325 172.295 80.325C175.845 80.325 178.445 79.2 178.445 77.25ZM175.645 69.6L174.67 70.8C171.87 69.775 169.37 67.725 168.32 65.55C167.42 67.975 164.845 70.275 161.77 71.55L160.72 70.4C164.32 69.1 167.395 65.925 167.395 62.15V61.55H161.97V60.225H174.445V61.55H169.17V62.15C169.17 65.775 172.345 68.525 175.645 69.6ZM179.57 72.4H177.92V59.075H179.57V64.2H182.845V65.575H179.57V72.4ZM210.274 81.05H192.874V79.75H196.299L196.174 74.55H193.399V73.25H209.774V74.55H206.974L206.849 79.75H210.274V81.05ZM205.174 79.75L205.299 74.55H197.824L197.949 79.75H205.174ZM212.474 70.625H190.674V69.275H200.874V66H193.724V59.15H195.399V64.675H209.949V66H202.574V69.275H212.474V70.625ZM233.372 80.95H216.747V74.3H218.422V79.575H233.372V80.95ZM235.472 72.35H213.672V71H235.472V72.35ZM224.547 68.325C219.472 68.325 216.372 66.375 216.372 63.65C216.372 60.925 219.472 58.95 224.547 58.95C229.622 58.95 232.747 60.925 232.747 63.65C232.747 66.375 229.622 68.325 224.547 68.325ZM224.547 60.275C220.847 60.275 218.022 61.475 218.022 63.65C218.022 65.825 220.847 67.025 224.547 67.025C228.272 67.025 231.072 65.825 231.072 63.65C231.072 61.475 228.272 60.275 224.547 60.275ZM256.851 65.3C256.851 68.5 254.376 71.05 250.801 71.05C247.176 71.05 244.726 68.5 244.726 65.3C244.726 62.05 247.176 59.475 250.801 59.475C254.376 59.475 256.851 62.05 256.851 65.3ZM250.801 69.7C253.551 69.7 255.176 67.75 255.176 65.275C255.176 62.775 253.551 60.825 250.801 60.825C248.026 60.825 246.426 62.775 246.426 65.275C246.426 67.75 248.026 69.7 250.801 69.7ZM263.326 75.575H261.651V59.075H263.326V75.575ZM264.151 80.95H248.451V73.55H250.126V79.6H264.151V80.95ZM282.099 74.975L281.074 76.175C278.224 74.55 275.374 71.7 274.424 68.95C273.549 72.025 270.924 74.9 267.699 76.825L266.574 75.725C270.224 73.675 273.474 69.85 273.474 64.675V61.9H267.874V60.55H280.699V61.9H275.249V64.675C275.249 69.75 278.899 73.325 282.099 74.975ZM286.374 81.3H284.699V59.075H286.374V81.3ZM311.522 78.225H289.672V76.875H299.872V71H292.747V60.475H308.722V61.825H294.422V69.65H308.972V71H301.572V76.875H311.522V78.225ZM331.72 67.675H315.745V62.975H329.52V60.9H315.745V59.625H331.17V64.2H317.42V66.375H331.72V67.675ZM334.495 70.875H312.695V69.6H334.495V70.875ZM331.945 81.05H315.72V76.275H329.72V74.2H315.72V72.925H331.395V77.525H317.395V79.75H331.945V81.05ZM358.125 74.975L357.1 76.175C354.25 74.55 351.4 71.7 350.45 68.95C349.575 72.025 346.95 74.9 343.725 76.825L342.6 75.725C346.25 73.675 349.5 69.85 349.5 64.675V61.9H343.9V60.55H356.725V61.9H351.275V64.675C351.275 69.75 354.925 73.325 358.125 74.975ZM362.4 81.3H360.725V59.075H362.4V81.3ZM385.898 80.95H370.198V73.55H371.873V79.6H385.898V80.95ZM382.198 68.525V69.85C379.648 70.425 375.523 70.725 372.023 70.725H367.573V59.7H369.223V69.35H372.023C375.423 69.35 379.473 69.075 382.198 68.525ZM385.073 75.55H383.423V59.075H385.073V75.55ZM414.552 72.775H412.902V59.075H414.552V64.275H417.952V65.675H414.552V72.775ZM407.277 81.675C402.377 81.675 399.427 79.875 399.427 77.425C399.427 75 402.377 73.2 407.277 73.2C412.127 73.2 415.077 75 415.077 77.425C415.077 79.875 412.127 81.675 407.277 81.675ZM407.277 74.55C403.702 74.55 401.102 75.625 401.102 77.425C401.102 79.25 403.702 80.325 407.277 80.325C410.827 80.325 413.427 79.25 413.427 77.425C413.427 75.625 410.827 74.55 407.277 74.55ZM407.877 70.525H397.327V59.85H399.002V63.8H406.202V59.85H407.877V70.525ZM406.202 69.175V65.125H399.002V69.175H406.202ZM438.375 75.575H436.7V65.9H431.875C431.6 68.825 429.2 71.05 425.85 71.05C422.225 71.05 419.775 68.5 419.775 65.3C419.775 62.05 422.225 59.475 425.85 59.475C429.125 59.475 431.5 61.65 431.85 64.5H436.7V59.075H438.375V75.575ZM425.85 69.7C428.6 69.7 430.225 67.75 430.225 65.275C430.225 62.775 428.6 60.825 425.85 60.825C423.075 60.825 421.475 62.775 421.475 65.275C421.475 67.75 423.075 69.7 425.85 69.7ZM439.2 80.95H423.5V73.55H425.175V79.6H439.2V80.95ZM470.579 70.725H460.529V73.325C465.279 73.5 467.979 75.2 467.979 77.475C467.979 79.925 464.979 81.675 459.654 81.675C454.354 81.675 451.329 79.925 451.329 77.475C451.329 75.2 454.004 73.5 458.804 73.325V70.725H448.779V69.375H470.579V70.725ZM466.304 77.475C466.304 75.75 463.804 74.6 459.654 74.6C455.504 74.6 453.004 75.75 453.004 77.475C453.004 79.225 455.504 80.375 459.654 80.375C463.804 80.375 466.304 79.225 466.304 77.475ZM469.204 66.55L468.304 67.75C464.554 67.2 461.104 65.325 459.679 62.925C458.279 65.375 454.804 67.175 451.104 67.75L450.204 66.55C454.179 65.975 458.279 63.825 458.754 61.15H451.554V59.8H467.779V61.15H460.629C461.104 63.85 465.354 66.025 469.204 66.55ZM489.784 61.075H482.859V59.725H489.784V61.075ZM497.684 81.3H496.034V59.075H497.684V68.25H501.284V69.675H497.684V81.3ZM492.084 71.95C492.084 74.875 489.784 77.225 486.409 77.225C483.034 77.225 480.734 74.875 480.734 71.95C480.734 69.025 483.034 66.65 486.409 66.65C489.784 66.65 492.084 69 492.084 71.95ZM490.434 71.95C490.434 69.6 488.859 67.975 486.434 67.975C483.984 67.975 482.409 69.575 482.409 71.95C482.409 74.3 483.984 75.9 486.434 75.9C488.859 75.9 490.434 74.3 490.434 71.95ZM493.209 64.775H479.484V63.425H493.209V64.775ZM517.532 73.175V74.525C514.732 75.1 510.357 75.35 507.007 75.35H503.557V60.1H505.207V73.975H507.007C510.357 73.975 514.532 73.725 517.532 73.175ZM520.257 81.3H518.607V59.075H520.257V66.7H524.007V68.125H520.257V81.3ZM543.255 81.3H541.605V59.075H543.255V67H547.005V68.425H543.255V81.3ZM540.53 73.2V74.55C537.73 75.125 533.355 75.4 530.005 75.4H526.555V60.55H537.28V61.9H528.205V74.025H530.005C533.355 74.025 537.53 73.75 540.53 73.2ZM552.003 78.825C552.003 79.625 551.378 80.225 550.578 80.225C549.728 80.225 549.103 79.625 549.103 78.825C549.103 78.075 549.728 77.425 550.578 77.425C551.378 77.425 552.003 78.075 552.003 78.825ZM574.219 74.75L573.144 75.9C570.694 74.175 568.769 71.575 567.994 69.05C567.269 71.85 565.219 74.675 562.319 76.7L561.144 75.675C564.694 73.475 567.119 69.225 567.119 64.4V60.2H568.844V64.4C568.844 69.35 571.394 72.975 574.219 74.75ZM577.469 80.25H575.844V67.625H571.444V66.25H575.844V59.45H577.469V80.25ZM581.994 81.3H580.344V59.075H581.994V81.3ZM604.242 81.3H602.592V68.425H599.142V80.25H597.517V59.45H599.142V66.95H602.592V59.075H604.242V81.3ZM596.367 73.675V75.025C594.292 75.35 591.242 75.55 589.067 75.55H586.592V60.75H594.867V62.1H588.192V74.175H589.067C591.242 74.175 594.267 74 596.367 73.675ZM615.997 72.8L615.047 71.575C620.722 69.875 624.672 65.85 625.397 61.575H616.397V60.225H627.322C626.797 66.525 621.847 70.8 615.997 72.8ZM634.447 80.95H618.972V73.55H620.647V79.6H634.447V80.95ZM633.522 75.55H631.872V59.075H633.522V65.425H636.922V66.825H633.522V75.55ZM659.576 74.875L658.551 76.075C655.576 74.45 652.801 71.425 651.901 68.575C650.976 71.725 648.601 74.625 645.201 76.725L644.051 75.675C647.951 73.425 650.951 69.55 650.951 64.25V60.05H652.751V64.25C652.751 69.35 656.076 73.15 659.576 74.875ZM663.476 81.3H661.801V59.075H663.476V67.675H667.226V69.1H663.476V81.3ZM689.549 71.675H667.749V70.325H673.424V66.9C671.499 66.1 670.449 64.85 670.449 63.35C670.449 60.8 673.549 58.95 678.624 58.95C683.699 58.95 686.824 60.8 686.824 63.35C686.824 64.85 685.749 66.1 683.849 66.9V70.325H689.549V71.675ZM686.949 77.475C686.949 79.925 683.949 81.675 678.624 81.675C673.324 81.675 670.299 79.925 670.299 77.475C670.299 75.05 673.324 73.3 678.624 73.3C683.949 73.3 686.949 75.05 686.949 77.475ZM685.149 63.375C685.149 61.35 682.349 60.275 678.624 60.275C674.924 60.275 672.099 61.35 672.099 63.375C672.099 65.375 674.924 66.45 678.624 66.45C682.349 66.45 685.149 65.375 685.149 63.375ZM685.274 77.475C685.274 75.75 682.774 74.6 678.624 74.6C674.474 74.6 671.974 75.75 671.974 77.475C671.974 79.225 674.474 80.375 678.624 80.375C682.774 80.375 685.274 79.225 685.274 77.475ZM682.199 70.325V67.425C681.149 67.65 679.949 67.775 678.624 67.775C677.299 67.775 676.099 67.65 675.099 67.425V70.325H682.199ZM717.828 77.25C717.828 79.8 714.753 81.675 709.728 81.675C704.703 81.675 701.628 79.8 701.628 77.25C701.628 74.725 704.703 72.85 709.728 72.85C714.753 72.85 717.828 74.725 717.828 77.25ZM716.128 77.25C716.128 75.325 713.403 74.2 709.728 74.2C706.028 74.2 703.328 75.325 703.328 77.25C703.328 79.2 706.028 80.325 709.728 80.325C713.403 80.325 716.128 79.2 716.128 77.25ZM713.053 69.85L712.053 71.05C709.253 70.025 706.753 67.975 705.728 65.8C704.828 68.225 702.228 70.525 699.178 71.8L698.128 70.65C701.703 69.35 704.803 66.175 704.803 62.4V61.55H699.353V60.225H711.853V61.55H706.578V62.4C706.578 66.025 709.728 68.775 713.053 69.85ZM717.403 72.675H715.728V65.625H710.703V64.25H715.728V59.075H717.403V72.675ZM742.601 78.225H720.751V76.875H730.951V71H723.826V60.475H739.801V61.825H725.501V69.65H740.051V71H732.651V76.875H742.601V78.225ZM763.074 81.3H761.424V59.075H763.074V81.3ZM760.524 74.15V75.45C758.199 75.95 755.374 76.1 752.049 76.1H744.274V74.75H752.149C755.224 74.75 758.199 74.55 760.524 74.15ZM751.924 70.875C748.374 70.875 745.774 68.375 745.774 65.4C745.774 62.425 748.374 59.95 751.924 59.95C755.524 59.95 758.124 62.425 758.124 65.4C758.124 68.375 755.524 70.875 751.924 70.875ZM751.924 61.3C749.124 61.3 747.449 63.15 747.449 65.4C747.449 67.65 749.124 69.525 751.924 69.525C754.724 69.525 756.449 67.65 756.449 65.4C756.449 63.15 754.724 61.3 751.924 61.3ZM788.854 75.275L787.854 76.475C784.804 75 782.229 72.5 781.279 69.775C780.329 72.675 777.654 75.375 774.604 77.05L773.479 75.975C777.004 74.225 780.329 70.775 780.329 65.875V65.125H774.729V63.775H787.529V65.125H782.104V65.875C782.104 70.65 785.504 73.75 788.854 75.275ZM792.529 81.3H790.854V59.075H792.529V68.025H796.279V69.45H792.529V81.3ZM784.729 61.075H777.529V59.725H784.729V61.075ZM816.477 81.3H814.802V59.075H816.477V81.3ZM798.177 68.125C798.177 62.8 800.627 59.675 803.877 59.675C807.152 59.675 809.577 62.8 809.577 68.125C809.577 73.475 807.152 76.6 803.877 76.6C800.627 76.6 798.177 73.475 798.177 68.125ZM807.902 68.125C807.902 63.55 806.227 61.025 803.877 61.025C801.552 61.025 799.852 63.55 799.852 68.125C799.852 72.725 801.552 75.25 803.877 75.25C806.227 75.25 807.902 72.725 807.902 68.125ZM841.6 71.8H819.8V70.45H841.6V71.8ZM839.075 67.075H822.85V59.15H824.525V65.725H839.075V67.075ZM839.5 80.95H822.875V74H824.55V79.575H839.5V80.95ZM36.05 105.25L35.15 106.45C31.425 105.75 27.95 103.85 26.525 101.375C25.125 103.85 21.675 105.75 17.975 106.45L17.05 105.25C21.25 104.55 25.6 102 25.675 99.15H18.425V97.8H34.625V99.15H27.425C27.5 102.025 31.825 104.525 36.05 105.25ZM37.425 110.325H15.625V108.975H25.7V105.35H27.4V108.975H37.425V110.325ZM35.325 118.95H18.7V112.225H20.375V117.575H35.325V118.95ZM58.923 119.3H57.273V106.725H53.898V118.25H52.248V97.45H53.898V105.275H57.273V97.075H58.923V119.3ZM51.348 112.95L50.323 114.075C47.898 112.4 46.073 109.925 45.298 107.425C44.573 110.2 42.473 112.9 39.623 114.825L38.423 113.8C41.873 111.7 44.398 107.7 44.398 103.025V100.05H40.123V98.7H50.223V100.05H46.148V103.025C46.148 107.8 48.623 111.25 51.348 112.95ZM72.5961 99.075H65.6711V97.725H72.5961V99.075ZM80.4961 119.3H78.8461V97.075H80.4961V106.25H84.0961V107.675H80.4961V119.3ZM74.8961 109.95C74.8961 112.875 72.5961 115.225 69.2211 115.225C65.8461 115.225 63.5461 112.875 63.5461 109.95C63.5461 107.025 65.8461 104.65 69.2211 104.65C72.5961 104.65 74.8961 107 74.8961 109.95ZM73.2461 109.95C73.2461 107.6 71.6711 105.975 69.2461 105.975C66.7961 105.975 65.2211 107.575 65.2211 109.95C65.2211 112.3 66.7961 113.9 69.2461 113.9C71.6711 113.9 73.2461 112.3 73.2461 109.95ZM76.0211 102.775H62.2961V101.425H76.0211V102.775ZM100.019 112.975L98.9941 114.175C96.1441 112.55 93.2941 109.7 92.3441 106.95C91.4691 110.025 88.8441 112.9 85.6191 114.825L84.4941 113.725C88.1441 111.675 91.3941 107.85 91.3941 102.675V99.9H85.7941V98.55H98.6191V99.9H93.1691V102.675C93.1691 107.75 96.8191 111.325 100.019 112.975ZM104.294 119.3H102.619V97.075H104.294V119.3ZM119.742 108.475H109.192V98.225H119.742V108.475ZM118.067 107.125V99.55H110.867V107.125H118.067ZM126.417 113.55H124.767V97.075H126.417V102.675H129.817V104.075H126.417V113.55ZM127.342 118.95H111.867V111.55H113.542V117.6H127.342V118.95ZM132.34 121.4L131.94 121.025C132.815 120.475 133.565 119.4 133.69 118.45C133.715 118.325 133.69 118.225 133.64 118.175C133.59 118.05 133.44 117.975 133.19 117.975C132.49 117.975 131.84 117.5 131.84 116.65C131.84 115.85 132.49 115.325 133.29 115.325C134.215 115.325 134.865 116.15 134.865 117.175C134.865 118.95 133.79 120.625 132.34 121.4ZM163.657 119.3H161.982V97.075H163.657V119.3ZM156.982 113.65H146.307V98.3H147.957V104.2H155.282V98.3H156.982V113.65ZM155.282 112.3V105.525H147.957V112.3H155.282ZM189.33 116.225H167.48V114.875H172.855V106.45H174.53V114.875H178.905V106.45H180.605V114.875H189.33V116.225ZM184.855 111.55H183.13C184.055 107.9 184.63 103.525 184.73 100.075H170.155V98.725H186.505C186.38 103.15 185.705 107.825 184.855 111.55ZM205.778 107.85L204.778 109.05C201.978 108.025 199.478 105.975 198.453 103.8C197.553 106.225 194.953 108.525 191.903 109.8L190.853 108.65C194.428 107.35 197.528 104.175 197.528 100.4V99.55H192.078V98.225H204.578V99.55H199.303V100.4C199.303 104.025 202.453 106.775 205.778 107.85ZM210.078 119.425H208.403V113.025H194.728V111.65H210.078V119.425ZM210.128 110.45H208.453V103.625H203.428V102.225H208.453V97.075H210.128V110.45ZM240.132 119.05H222.732V117.75H226.157L226.032 112.55H223.257V111.25H239.632V112.55H236.832L236.707 117.75H240.132V119.05ZM235.032 117.75L235.157 112.55H227.682L227.807 117.75H235.032ZM242.332 108.625H220.532V107.275H230.732V104H223.582V97.15H225.257V102.675H239.807V104H232.432V107.275H242.332V108.625ZM263.23 118.95H246.605V112.3H248.28V117.575H263.23V118.95ZM265.33 110.35H243.53V109H265.33V110.35ZM254.405 106.325C249.33 106.325 246.23 104.375 246.23 101.65C246.23 98.925 249.33 96.95 254.405 96.95C259.48 96.95 262.605 98.925 262.605 101.65C262.605 104.375 259.48 106.325 254.405 106.325ZM254.405 98.275C250.705 98.275 247.88 99.475 247.88 101.65C247.88 103.825 250.705 105.025 254.405 105.025C258.13 105.025 260.93 103.825 260.93 101.65C260.93 99.475 258.13 98.275 254.405 98.275ZM295.385 116.225H273.535V114.875H283.585V109.75H276.61V98.175H278.285V102.25H290.585V98.175H292.26V109.75H285.31V114.875H295.385V116.225ZM290.585 108.4V103.575H278.285V108.4H290.585ZM316.983 105.25L316.083 106.45C312.358 105.75 308.883 103.85 307.458 101.375C306.058 103.85 302.608 105.75 298.908 106.45L297.983 105.25C302.183 104.55 306.533 102 306.608 99.15H299.358V97.8H315.558V99.15H308.358C308.433 102.025 312.758 104.525 316.983 105.25ZM318.358 110.325H296.558V108.975H306.633V105.35H308.333V108.975H318.358V110.325ZM316.258 118.95H299.633V112.225H301.308V117.575H316.258V118.95ZM338.856 119.425H337.206V113.525H323.506V112.15H338.856V119.425ZM335.406 107.525V108.8C332.806 109.375 328.731 109.675 325.231 109.675H321.281V103.125H329.706V99.325H321.281V98.025H331.356V104.4H322.931V108.35H325.231C328.606 108.35 332.656 108.05 335.406 107.525ZM338.906 110.95H337.256V105.475H332.756V104.15H337.256V101.225H332.756V99.9H337.256V97.075H338.906V110.95ZM361.629 100.925C361.629 103.225 358.504 104.925 353.429 104.925C348.354 104.925 345.254 103.225 345.254 100.925C345.254 98.625 348.354 96.925 353.429 96.925C358.504 96.925 361.629 98.625 361.629 100.925ZM359.954 100.95C359.954 99.2 357.154 98.225 353.429 98.225C349.729 98.225 346.904 99.2 346.904 100.95C346.904 102.675 349.729 103.65 353.429 103.65C357.154 103.65 359.954 102.675 359.954 100.95ZM361.804 119.05H345.579V113.925H359.579V111.575H345.579V110.25H361.254V115.2H347.254V117.725H361.804V119.05ZM364.354 107.925H342.554V106.6H364.354V107.925ZM394.408 116.225H372.558V114.875H382.608V109.75H375.633V98.175H377.308V102.25H389.608V98.175H391.283V109.75H384.333V114.875H394.408V116.225ZM389.608 108.4V103.575H377.308V108.4H389.608ZM415.256 119.3H413.581V97.075H415.256V119.3ZM396.956 106.125C396.956 100.8 399.406 97.675 402.656 97.675C405.931 97.675 408.356 100.8 408.356 106.125C408.356 111.475 405.931 114.6 402.656 114.6C399.406 114.6 396.956 111.475 396.956 106.125ZM406.681 106.125C406.681 101.55 405.006 99.025 402.656 99.025C400.331 99.025 398.631 101.55 398.631 106.125C398.631 110.725 400.331 113.25 402.656 113.25C405.006 113.25 406.681 110.725 406.681 106.125ZM437.729 119.3H436.054V109.325H431.054V113.4H420.379V98.55H431.054V101.875H436.054V97.075H437.729V119.3ZM429.354 112.05V99.9H422.029V112.05H429.354ZM436.054 107.975V103.225H431.054V107.975H436.054ZM464.008 112.975L462.983 114.175C460.133 112.55 457.283 109.7 456.333 106.95C455.458 110.025 452.833 112.9 449.608 114.825L448.483 113.725C452.133 111.675 455.383 107.85 455.383 102.675V99.9H449.783V98.55H462.608V99.9H457.158V102.675C457.158 107.75 460.808 111.325 464.008 112.975ZM468.283 119.3H466.608V97.075H468.283V119.3ZM491.231 110.2H489.556V106.4H483.531C482.456 107.725 480.781 108.55 478.706 108.55C475.106 108.55 472.681 106.1 472.681 103.025C472.681 99.95 475.106 97.475 478.706 97.475C480.831 97.475 482.531 98.375 483.606 99.725H489.556V97.075H491.231V110.2ZM483.031 103.025C483.031 100.675 481.431 98.825 478.706 98.825C475.956 98.825 474.381 100.675 474.381 103.025C474.381 105.35 475.956 107.2 478.706 107.2C481.431 107.2 483.031 105.35 483.031 103.025ZM491.181 119.425H489.506V112.775H475.831V111.4H491.181V119.425ZM489.556 105.05V101.075H484.356C484.606 101.7 484.706 102.35 484.706 103.025C484.706 103.75 484.606 104.425 484.331 105.05H489.556ZM521.686 115.25C521.686 117.8 518.611 119.675 513.586 119.675C508.561 119.675 505.486 117.8 505.486 115.25C505.486 112.725 508.561 110.85 513.586 110.85C518.611 110.85 521.686 112.725 521.686 115.25ZM519.986 115.25C519.986 113.325 517.261 112.2 513.586 112.2C509.886 112.2 507.186 113.325 507.186 115.25C507.186 117.2 509.886 118.325 513.586 118.325C517.261 118.325 519.986 117.2 519.986 115.25ZM516.911 107.85L515.911 109.05C513.111 108.025 510.611 105.975 509.586 103.8C508.686 106.225 506.086 108.525 503.036 109.8L501.986 108.65C505.561 107.35 508.661 104.175 508.661 100.4V99.55H503.211V98.225H515.711V99.55H510.436V100.4C510.436 104.025 513.586 106.775 516.911 107.85ZM521.261 110.675H519.586V103.625H514.561V102.25H519.586V97.075H521.261V110.675ZM537.284 113.25L536.284 114.4C534.109 112.975 532.059 110.475 531.309 108.15C530.534 110.65 528.359 113.325 525.609 115.15L524.484 114.1C527.834 112.125 530.409 108.475 530.409 104.025V103.3H525.934V101.95H536.534V103.3H532.159V104.025C532.159 108.425 534.784 111.8 537.284 113.25ZM540.384 118.25H538.759V107.55H535.159V106.175H538.759V97.45H540.384V118.25ZM544.909 119.3H543.259V97.075H544.909V119.3ZM534.359 99.225H528.109V97.875H534.359V99.225ZM559.582 119.675C554.557 119.675 551.482 117.8 551.482 115.25C551.482 112.725 554.557 110.85 559.582 110.85C564.607 110.85 567.682 112.725 567.682 115.25C567.682 117.8 564.607 119.675 559.582 119.675ZM559.582 112.2C555.882 112.2 553.182 113.325 553.182 115.25C553.182 117.2 555.882 118.325 559.582 118.325C563.257 118.325 565.982 117.2 565.982 115.25C565.982 113.325 563.257 112.2 559.582 112.2ZM562.582 107.375L561.607 108.625C558.807 107.6 556.282 105.525 555.257 103.3C554.357 105.75 551.832 108.025 548.707 109.35L547.682 108.225C551.332 106.825 554.332 103.7 554.332 99.9V97.65H556.107V99.9C556.107 103.525 559.182 106.25 562.582 107.375ZM567.257 110.675H565.582V102.7H560.007V101.3H565.582V97.075H567.257V110.675ZM589.705 100.925C589.705 103.225 586.58 104.925 581.505 104.925C576.43 104.925 573.33 103.225 573.33 100.925C573.33 98.625 576.43 96.925 581.505 96.925C586.58 96.925 589.705 98.625 589.705 100.925ZM588.03 100.95C588.03 99.2 585.23 98.225 581.505 98.225C577.805 98.225 574.98 99.2 574.98 100.95C574.98 102.675 577.805 103.65 581.505 103.65C585.23 103.65 588.03 102.675 588.03 100.95ZM589.88 119.05H573.655V113.925H587.655V111.575H573.655V110.25H589.33V115.2H575.33V117.725H589.88V119.05ZM592.43 107.925H570.63V106.6H592.43V107.925ZM620.209 119.3H618.559V106.425H615.109V118.25H613.484V97.45H615.109V104.95H618.559V97.075H620.209V119.3ZM612.334 111.675V113.025C610.259 113.35 607.209 113.55 605.034 113.55H602.559V98.75H610.834V100.1H604.159V112.175H605.034C607.209 112.175 610.234 112 612.334 111.675ZM643.457 108.5H625.632V107.15H629.232L629.057 99.825H626.157V98.475H642.932V99.825H640.257L640.082 107.15H643.457V108.5ZM638.407 107.15L638.607 99.825H630.732L630.882 107.15H638.407ZM645.482 116.225H623.632V114.875H629.082V109.625H630.782V114.875H638.307V109.625H639.982V114.875H645.482V116.225ZM657.63 99.075H650.705V97.725H657.63V99.075ZM665.53 119.3H663.88V97.075H665.53V106.25H669.13V107.675H665.53V119.3ZM659.93 109.95C659.93 112.875 657.63 115.225 654.255 115.225C650.88 115.225 648.58 112.875 648.58 109.95C648.58 107.025 650.88 104.65 654.255 104.65C657.63 104.65 659.93 107 659.93 109.95ZM658.28 109.95C658.28 107.6 656.705 105.975 654.28 105.975C651.83 105.975 650.255 107.575 650.255 109.95C650.255 112.3 651.83 113.9 654.28 113.9C656.705 113.9 658.28 112.3 658.28 109.95ZM661.055 102.775H647.33V101.425H661.055V102.775ZM691.453 109.8H669.653V108.45H691.453V109.8ZM688.928 105.075H672.703V97.15H674.378V103.725H688.928V105.075ZM689.353 118.95H672.728V112H674.403V117.575H689.353V118.95ZM719.308 113.575H717.633V103.9H712.808C712.533 106.825 710.133 109.05 706.783 109.05C703.158 109.05 700.708 106.5 700.708 103.3C700.708 100.05 703.158 97.475 706.783 97.475C710.058 97.475 712.433 99.65 712.783 102.5H717.633V97.075H719.308V113.575ZM706.783 107.7C709.533 107.7 711.158 105.75 711.158 103.275C711.158 100.775 709.533 98.825 706.783 98.825C704.008 98.825 702.408 100.775 702.408 103.275C702.408 105.75 704.008 107.7 706.783 107.7ZM720.133 118.95H704.433V111.55H706.108V117.6H720.133V118.95ZM742.356 119.3H740.681V106.5H735.431C735.306 111.625 732.906 114.6 729.731 114.6C726.481 114.6 724.056 111.475 724.056 106.125C724.056 100.8 726.481 97.675 729.731 97.675C732.756 97.675 735.131 100.425 735.406 105.125H740.681V97.075H742.356V119.3ZM729.731 113.25C732.056 113.25 733.756 110.725 733.756 106.125C733.756 101.55 732.056 99.025 729.731 99.025C727.406 99.025 725.731 101.55 725.731 106.125C725.731 110.725 727.406 113.25 729.731 113.25ZM774.51 108.725H764.46V111.325C769.21 111.5 771.91 113.2 771.91 115.475C771.91 117.925 768.91 119.675 763.585 119.675C758.285 119.675 755.26 117.925 755.26 115.475C755.26 113.2 757.935 111.5 762.735 111.325V108.725H752.71V107.375H774.51V108.725ZM770.235 115.475C770.235 113.75 767.735 112.6 763.585 112.6C759.435 112.6 756.935 113.75 756.935 115.475C756.935 117.225 759.435 118.375 763.585 118.375C767.735 118.375 770.235 117.225 770.235 115.475ZM773.135 104.55L772.235 105.75C768.485 105.2 765.035 103.325 763.61 100.925C762.21 103.375 758.735 105.175 755.035 105.75L754.135 104.55C758.11 103.975 762.21 101.825 762.685 99.15H755.485V97.8H771.71V99.15H764.56C765.035 101.85 769.285 104.025 773.135 104.55ZM793.714 99.075H786.789V97.725H793.714V99.075ZM801.614 119.3H799.964V97.075H801.614V106.25H805.214V107.675H801.614V119.3ZM796.014 109.95C796.014 112.875 793.714 115.225 790.339 115.225C786.964 115.225 784.664 112.875 784.664 109.95C784.664 107.025 786.964 104.65 790.339 104.65C793.714 104.65 796.014 107 796.014 109.95ZM794.364 109.95C794.364 107.6 792.789 105.975 790.364 105.975C787.914 105.975 786.339 107.575 786.339 109.95C786.339 112.3 787.914 113.9 790.364 113.9C792.789 113.9 794.364 112.3 794.364 109.95ZM797.139 102.775H783.414V101.425H797.139V102.775ZM821.462 111.175V112.525C818.662 113.1 814.287 113.35 810.937 113.35H807.487V98.1H809.137V111.975H810.937C814.287 111.975 818.462 111.725 821.462 111.175ZM824.187 119.3H822.537V97.075H824.187V104.7H827.937V106.125H824.187V119.3ZM850.56 116.375H828.71V115.025H838.91V110.3H831.785V103.625H845.51V99.65H831.785V98.3H847.16V104.95H833.46V108.925H847.885V110.3H840.61V115.025H850.56V116.375ZM877.515 119.05H862.94V110.475H877.515V119.05ZM875.84 117.7V111.825H864.59V117.7H875.84ZM877.565 109.275H875.915V97.075H877.565V101.175H880.965V102.55H877.565V109.275ZM874.815 105.1V106.45C872.24 107.025 868.14 107.325 864.665 107.325H860.49V97.725H862.14V105.95H864.665C868.04 105.95 872.065 105.65 874.815 105.1ZM900.213 119.3H898.563V97.075H900.213V105.125H903.963V106.55H900.213V119.3ZM882.613 106.125C882.613 100.8 885.038 97.675 888.288 97.675C891.538 97.675 893.988 100.8 893.988 106.125C893.988 111.475 891.538 114.6 888.288 114.6C885.038 114.6 882.613 111.475 882.613 106.125ZM892.313 106.125C892.313 101.55 890.613 99.025 888.288 99.025C885.963 99.025 884.288 101.55 884.288 106.125C884.288 110.725 885.963 113.25 888.288 113.25C890.613 113.25 892.313 110.725 892.313 106.125ZM926.786 118.275L925.736 119.4C923.786 118.4 921.786 116.5 921.136 114.675C920.486 116.425 918.686 118.375 916.936 119.325C915.161 118.375 913.336 116.425 912.711 114.675C912.036 116.5 910.061 118.4 908.111 119.4L907.061 118.275C909.411 117.2 911.861 114.65 911.861 111.95V110.975H913.536V111.95C913.536 114.25 915.386 116.6 916.936 117.575C918.461 116.6 920.311 114.25 920.311 111.95V110.975H921.986V111.95C921.986 114.65 924.461 117.2 926.786 118.275ZM917.861 103.025C917.861 106.1 915.411 108.55 911.861 108.55C908.261 108.55 905.836 106.1 905.836 103.025C905.836 99.95 908.261 97.475 911.861 97.475C915.411 97.475 917.861 99.95 917.861 103.025ZM916.186 103.025C916.186 100.675 914.586 98.825 911.861 98.825C909.111 98.825 907.536 100.675 907.536 103.025C907.536 105.35 909.111 107.2 911.861 107.2C914.586 107.2 916.186 105.35 916.186 103.025ZM924.386 110H922.711V97.075H924.386V110ZM946.209 119.3H944.559V97.075H946.209V105H949.959V106.425H946.209V119.3ZM943.484 111.2V112.55C940.684 113.125 936.309 113.4 932.959 113.4H929.509V98.55H940.234V99.9H931.159V112.025H932.959C936.309 112.025 940.484 111.75 943.484 111.2ZM954.957 116.825C954.957 117.625 954.332 118.225 953.532 118.225C952.682 118.225 952.057 117.625 952.057 116.825C952.057 116.075 952.682 115.425 953.532 115.425C954.332 115.425 954.957 116.075 954.957 116.825Z" fill="black"/>
</svg>
