<svg width="454" height="193" viewBox="0 0 454 193" fill="none" xmlns="http://www.w3.org/2000/svg">
<rect x="0.5" y="0.5" width="453" height="192" fill="#FF0561"/>
<rect x="0.5" y="0.5" width="453" height="192" stroke="black"/>
<path d="M44.8902 38.28H41.5002V22.2H44.8902V27.63H48.6402V30.51H44.8902V38.28ZM45.5202 43.92C45.5202 47.04 41.8302 49.41 35.5302 49.41C29.2302 49.41 25.5702 47.04 25.5702 43.92C25.5702 40.8 29.2302 38.43 35.5302 38.43C41.8302 38.43 45.5202 40.8 45.5202 43.92ZM42.0102 43.92C42.0102 42.18 39.4002 41.07 35.5302 41.07C31.6902 41.07 29.0802 42.18 29.0802 43.92C29.0802 45.66 31.6902 46.77 35.5302 46.77C39.4002 46.77 42.0102 45.66 42.0102 43.92ZM40.2702 32.1V34.86C36.8802 35.46 33.2202 35.73 29.8002 35.73H23.5902V23.31H37.0002V26.07H26.9802V32.91H29.8002C33.2202 32.91 36.7302 32.7 40.2702 32.1ZM73.4778 42H70.0878V22.2H73.4778V42ZM74.1678 48.54H54.9378V39.69H58.3878V45.75H74.1678V48.54ZM67.3578 34.77L65.4978 37.23C62.8278 36.12 60.1278 34.14 58.5978 31.71C57.3078 34.26 54.4878 36.66 51.4278 37.92L49.2378 35.58C53.5878 33.9 56.7378 30.36 56.7378 26.43V22.77H60.3078V26.37C60.3078 30.54 63.6378 33.48 67.3578 34.77ZM101.285 49.02H97.8955V22.23H101.285V49.02ZM85.7755 43.65C81.7255 43.65 78.4555 40.44 78.4555 33.24C78.4555 26.04 81.7255 22.83 85.7755 22.83C89.8555 22.83 93.0655 26.04 93.0655 33.24C93.0655 40.44 89.8555 43.65 85.7755 43.65ZM85.7755 40.83C88.0555 40.83 89.7055 38.64 89.7055 33.24C89.7055 27.84 88.0555 25.65 85.7755 25.65C83.4955 25.65 81.8455 27.84 81.8455 33.24C81.8455 38.64 83.4955 40.83 85.7755 40.83ZM137.681 43.92C137.681 47.04 134.051 49.41 127.361 49.41C120.671 49.41 117.071 47.04 117.071 43.92C117.071 40.8 120.671 38.43 127.361 38.43C134.051 38.43 137.681 40.8 137.681 43.92ZM137.651 38.43H134.291V30.99H131.591V37.53H128.261V22.68H131.591V27.99H134.291V22.23H137.651V38.43ZM127.571 34.5L125.681 36.72C123.431 35.58 121.631 33.78 120.461 31.68C119.441 33.96 117.431 36.06 114.971 37.68L112.661 35.58C116.111 33.6 118.661 30.18 118.661 25.74V22.86H122.171V25.74C122.171 30.24 124.451 32.94 127.571 34.5ZM134.141 43.92C134.141 42.18 131.621 41.07 127.361 41.07C123.131 41.07 120.581 42.18 120.581 43.92C120.581 45.66 123.131 46.77 127.361 46.77C131.621 46.77 134.141 45.66 134.141 43.92ZM163.718 38.1H160.328V22.2H163.718V28.53H167.468V31.41H163.718V38.1ZM163.658 49.11H160.268V42.06H144.758V39.24H163.658V49.11ZM143.018 37.92L141.068 35.46C147.308 33.96 151.418 30.12 152.258 26.07H142.658V23.31H156.158C155.828 31.86 148.988 36.18 143.018 37.92ZM181.656 25.5H172.926V22.68H181.656V25.5ZM185.616 30.12H168.996V27.3H185.616V30.12ZM191.406 49.02H188.016V22.23H191.406V32.97H195.366V35.91H191.406V49.02ZM184.686 37.89C184.686 41.4 181.716 44.37 177.306 44.37C172.866 44.37 169.896 41.4 169.896 37.89C169.896 34.38 172.866 31.41 177.306 31.41C181.716 31.41 184.686 34.38 184.686 37.89ZM181.296 37.89C181.296 35.85 179.766 34.17 177.306 34.17C174.816 34.17 173.286 35.85 173.286 37.89C173.286 39.93 174.816 41.61 177.306 41.61C179.766 41.61 181.296 39.93 181.296 37.89ZM219.604 48.54H199.234V40.2H202.684V45.75H219.604V48.54ZM219.154 32.13H199.174V22.26H202.564V29.34H219.154V32.13ZM222.124 38.07H195.904V35.31H222.124V38.07ZM255.519 48.78H235.209V36.45H255.069V39.09H238.599V41.31H254.889V43.83H238.599V46.08H255.519V48.78ZM258.159 34.11H231.939V31.41H239.709C240.099 29.37 240.429 26.85 240.489 25.56H234.039V22.86H244.059C243.999 25.59 243.579 29.04 243.099 31.41H251.019C251.439 29.37 251.739 26.85 251.799 25.56H245.049V22.86H255.399C255.339 25.59 254.889 29.04 254.409 31.41H258.159V34.11ZM270.906 44.49L267.996 42.9C272.016 38.46 273.876 32.58 273.996 26.7H269.736V23.88H277.506C277.536 33.12 274.956 39.6 270.906 44.49ZM262.146 43.05L259.266 41.49C263.376 37.59 265.266 31.77 265.416 26.7H260.976V23.88H268.956C268.986 31.98 266.586 38.4 262.146 43.05ZM282.966 49.02H279.636V22.23H282.966V32.22H286.596V35.16H282.966V49.02ZM305.404 40.86L303.394 43.38C300.334 41.82 297.664 39.12 296.224 36.15C295.144 39.18 292.264 42.18 289.024 43.98L286.654 41.64C291.184 39.42 294.364 34.98 294.364 28.95V26.7H288.244V23.88H303.994V26.7H297.934V29.13C297.934 35.16 301.474 39 305.404 40.86ZM311.344 49.02H307.954V22.23H311.344V49.02ZM346.329 36.09H342.939V22.2H346.329V27.09H349.899V29.91H346.329V36.09ZM346.899 48.78H327.969V41.64H342.879V39.87H327.969V37.23H346.269V44.16H331.359V46.08H346.899V48.78ZM340.719 32.67L338.949 35.13C336.249 34.32 333.369 32.4 331.989 30.21C330.729 32.58 327.789 34.8 324.759 35.82L322.629 33.42C327.009 32.04 330.099 28.92 330.099 24.93V22.65H333.699V24.87C333.699 29.1 337.089 31.62 340.719 32.67ZM373.567 49.02H370.147V22.23H373.567V31.32H377.527V34.26H373.567V49.02ZM358.927 43.65C354.817 43.65 351.547 40.44 351.547 33.24C351.547 26.04 354.817 22.83 358.927 22.83C363.067 22.83 366.367 26.04 366.367 33.24C366.367 40.44 363.067 43.65 358.927 43.65ZM358.927 40.83C361.297 40.83 362.977 38.64 362.977 33.24C362.977 27.84 361.297 25.65 358.927 25.65C356.587 25.65 354.907 27.84 354.907 33.24C354.907 38.64 356.587 40.83 358.927 40.83ZM401.375 36.87H397.985V22.2H401.375V26.88H405.095V29.76H401.375V36.87ZM401.315 48.66H383.015V38.01H401.315V48.66ZM397.925 45.9V40.77H386.405V45.9H397.925ZM396.755 31.2V33.96C393.365 34.56 389.705 34.83 386.285 34.83H380.225V22.86H383.615V32.01H386.285C389.705 32.01 393.215 31.8 396.755 31.2ZM432.182 35.7H405.962V33.06H432.182V35.7ZM429.542 48.78H409.232V41.91H425.522V40.23H409.232V37.59H428.912V44.37H412.622V46.08H429.542V48.78ZM429.362 26.73C429.362 29.58 425.462 31.65 419.042 31.65C412.682 31.65 408.782 29.58 408.782 26.73C408.782 23.88 412.682 21.81 419.042 21.81C425.462 21.81 429.362 23.88 429.362 26.73ZM425.762 26.73C425.762 25.29 423.002 24.39 419.042 24.39C415.112 24.39 412.352 25.29 412.352 26.73C412.352 28.17 415.112 29.07 419.042 29.07C423.002 29.07 425.762 28.17 425.762 26.73ZM70.3766 85.77C70.3766 88.98 66.6266 91.41 60.2366 91.41C53.8166 91.41 50.0966 88.98 50.0966 85.77C50.0966 82.56 53.8166 80.13 60.2366 80.13C66.6266 80.13 70.3766 82.56 70.3766 85.77ZM66.8666 85.77C66.8666 83.94 64.1966 82.77 60.2366 82.77C56.2766 82.77 53.6066 83.94 53.6066 85.77C53.6066 87.6 56.2766 88.77 60.2366 88.77C64.1966 88.77 66.8666 87.6 66.8666 85.77ZM48.6866 79.92L46.7666 77.46C52.9166 75.96 56.9066 72.12 57.7466 68.07H48.3566V65.31H61.6466C61.3166 73.86 54.5966 78.18 48.6866 79.92ZM69.8666 79.98H66.4766V76.59H61.2566V73.77H66.4766V70.89H62.0966V68.07H66.4766V64.2H69.8666V79.98ZM96.9542 80.28H93.5642V64.2H96.9542V69.93H100.554V72.81H96.9542V80.28ZM97.5842 85.92C97.5842 89.04 93.9242 91.41 87.5942 91.41C81.2942 91.41 77.6642 89.04 77.6642 85.92C77.6642 82.8 81.2942 80.43 87.5942 80.43C93.9242 80.43 97.5842 82.8 97.5842 85.92ZM94.0742 85.92C94.0742 84.18 91.4642 83.07 87.5942 83.07C83.7542 83.07 81.1442 84.18 81.1442 85.92C81.1442 87.66 83.7542 88.77 87.5942 88.77C91.4642 88.77 94.0742 87.66 94.0742 85.92ZM91.3442 75.81L89.5442 78.27C86.8142 77.4 84.0542 75.42 82.6142 73.11C81.2942 75.54 78.5342 77.82 75.4442 79.14L73.2542 76.8C77.6642 75.06 80.7242 71.82 80.7242 67.83V64.77H84.3242V67.77C84.3242 71.94 87.6542 74.58 91.3442 75.81ZM127.612 88.02H101.392V85.2H112.912V78.99H104.782V65.46H124.402V68.28H108.172V76.14H124.852V78.99H116.392V85.2H127.612V88.02ZM155.007 82.68L152.877 85.2C149.847 83.58 147.087 80.82 145.827 77.97C144.807 80.94 141.957 83.94 138.687 85.8L136.257 83.52C140.817 81.24 143.967 76.8 143.967 70.77V65.28H147.537V70.95C147.537 76.92 151.137 80.76 155.007 82.68ZM160.527 91.02H157.137V64.23H160.527V73.92H164.487V76.86H160.527V91.02ZM188.335 78H168.415V64.89H187.855V67.65H171.805V70.05H187.705V72.75H171.805V75.21H188.335V78ZM191.245 83.1H179.845V91.02H176.395V83.1H165.025V80.34H191.245V83.1ZM216.202 91.02H212.812V64.23H216.202V91.02ZM211.252 81.33V84.12C207.862 84.72 204.232 84.99 200.782 84.99H194.572V73.74H204.532V68.55H194.572V65.73H207.922V76.5H197.962V82.14H200.782C204.232 82.14 207.742 81.93 211.252 81.33ZM243.92 90.54H223.55V82.2H227V87.75H243.92V90.54ZM243.47 74.13H223.49V64.26H226.88V71.34H243.47V74.13ZM246.44 80.07H220.22V77.31H246.44V80.07ZM279.085 75.87H259.645V64.98H279.085V75.87ZM282.475 81.96H271.075V91.02H267.625V81.96H256.255V79.14H282.475V81.96ZM275.695 73.05V67.8H263.035V73.05H275.695ZM307.853 81.9H304.463V72.84H299.663C299.123 76.23 296.243 78.72 292.313 78.72C287.903 78.72 284.813 75.57 284.813 71.58C284.813 67.59 287.903 64.44 292.313 64.44C296.123 64.44 298.943 66.81 299.603 70.02H304.463V64.2H307.853V81.9ZM309.263 88.56L307.583 90.96C303.533 90.12 299.873 87.9 298.313 85.02C296.693 87.9 293.063 90.12 289.013 90.96L287.333 88.56C291.923 87.54 296.513 84.84 296.513 80.94V80.25H300.083V80.94C300.083 84.84 304.673 87.54 309.263 88.56ZM292.313 75.96C294.953 75.96 296.423 74.01 296.423 71.58C296.423 69.15 294.953 67.2 292.313 67.2C289.673 67.2 288.203 69.15 288.203 71.58C288.203 74.01 289.673 75.96 292.313 75.96ZM336.14 90.54H316.91V81.39H320.36V87.75H336.14V90.54ZM335.45 83.7H332.06V64.2H335.45V83.7ZM327.71 71.73C327.71 75.81 324.5 79.02 320 79.02C315.47 79.02 312.29 75.81 312.29 71.73C312.29 67.65 315.47 64.44 320 64.44C324.5 64.44 327.71 67.65 327.71 71.73ZM320 76.26C322.79 76.26 324.32 74.25 324.32 71.73C324.32 69.21 322.79 67.2 320 67.2C317.21 67.2 315.65 69.21 315.65 71.73C315.65 74.25 317.21 76.26 320 76.26ZM341.778 85.77L339.378 83.43C346.488 80.04 349.878 73.92 350.418 68.7H340.938V65.88H354.078C354.228 75.12 348.828 81.96 341.778 85.77ZM361.848 91.02H358.428V64.23H361.848V74.22H365.808V77.16H361.848V91.02ZM390.016 71.97C390.016 76.08 385.666 79.44 379.666 79.44C373.666 79.44 369.376 76.08 369.376 71.97C369.376 67.86 373.666 64.5 379.666 64.5C385.666 64.5 390.016 67.86 390.016 71.97ZM392.866 88.02H366.646V85.2H372.406V80.01H375.796V85.2H383.686V80.01H387.076V85.2H392.866V88.02ZM386.416 71.97C386.416 69.3 383.596 67.32 379.666 67.32C375.766 67.32 372.946 69.3 372.946 71.97C372.946 74.61 375.766 76.62 379.666 76.62C383.596 76.62 386.416 74.61 386.416 71.97ZM401.683 83.64H398.713V81.6C398.713 79.23 399.583 77.49 402.343 75.18C403.603 74.1 404.593 72.63 404.593 70.98C404.593 68.52 402.703 67.56 400.573 67.56C399.253 67.56 397.063 68.19 395.413 69.15L394.273 66.66C395.953 65.7 398.833 64.83 400.933 64.83C404.503 64.83 407.833 66.48 407.833 70.83C407.833 73.44 406.633 75.42 404.113 77.46C402.463 78.84 401.683 80.07 401.683 81.87V83.64ZM400.273 90.24C398.983 90.24 397.963 89.22 397.963 87.93C397.963 86.73 398.953 85.74 400.183 85.74C401.443 85.74 402.553 86.7 402.553 87.93C402.553 89.13 401.503 90.24 400.273 90.24Z" fill="white"/>
</svg>
