<svg width="265" height="76" viewBox="0 0 265 76" fill="none" xmlns="http://www.w3.org/2000/svg">
<rect x="0.5" y="0.5" width="264" height="75" fill="#FF0561"/>
<rect x="0.5" y="0.5" width="264" height="75" stroke="black"/>
<path d="M31.12 30.82L30.28 31.72C28.72 30.92 27.12 29.4 26.6 27.94C26.08 29.34 24.64 30.9 23.24 31.66C21.82 30.9 20.36 29.34 19.86 27.94C19.32 29.4 17.74 30.92 16.18 31.72L15.34 30.82C17.22 29.96 19.18 27.92 19.18 25.76V24.98H20.52V25.76C20.52 27.6 22 29.48 23.24 30.26C24.46 29.48 25.94 27.6 25.94 25.76V24.98H27.28V25.76C27.28 27.92 29.26 29.96 31.12 30.82ZM23.98 18.62C23.98 21.08 22.02 23.04 19.18 23.04C16.3 23.04 14.36 21.08 14.36 18.62C14.36 16.16 16.3 14.18 19.18 14.18C22.02 14.18 23.98 16.16 23.98 18.62ZM22.64 18.62C22.64 16.74 21.36 15.26 19.18 15.26C16.98 15.26 15.72 16.74 15.72 18.62C15.72 20.48 16.98 21.96 19.18 21.96C21.36 21.96 22.64 20.48 22.64 18.62ZM29.2 24.2H27.86V13.86H29.2V24.2ZM43.8584 21.44L43.1584 22.44C40.9984 21.88 38.9184 20.46 38.0384 18.7C37.2584 20.52 35.0984 22.16 32.7384 23.04L31.9584 22.12C34.6784 21.2 37.2984 18.98 37.2984 16.24V15.82H32.9584V14.78H42.9384V15.82H38.7184V16.24C38.7184 18.96 41.2384 20.82 43.8584 21.44ZM47.6784 29.72C47.6784 30.98 46.2584 31.9 44.1184 31.9C41.9584 31.9 40.5184 30.98 40.5184 29.72C40.5184 28.46 41.9584 27.54 44.1184 27.54C46.2584 27.54 47.6784 28.46 47.6784 29.72ZM47.0384 22.76H45.7184V13.86H47.0384V17.56H49.6584V18.68H47.0384V22.76ZM40.0784 30.14V31.2C38.9984 31.4 37.4784 31.44 36.3784 31.44H34.5784V23.94H35.9184V30.36H36.4184C37.4384 30.36 38.9184 30.32 40.0784 30.14ZM46.3584 29.72C46.3584 29.02 45.5184 28.52 44.1184 28.52C42.6784 28.52 41.8584 29.02 41.8584 29.72C41.8584 30.42 42.6784 30.92 44.1184 30.92C45.5184 30.92 46.3584 30.42 46.3584 29.72ZM48.4184 26.86H39.8384V25.84H48.4184V26.86ZM46.4984 24.74H41.7584V23.72H46.4984V24.74ZM65.0569 31.64H63.7369V13.86H65.0569V20.3H68.0569V21.44H65.0569V31.64ZM50.9769 21.1C50.9769 16.84 52.9169 14.34 55.5169 14.34C58.1169 14.34 60.0769 16.84 60.0769 21.1C60.0769 25.38 58.1169 27.88 55.5169 27.88C52.9169 27.88 50.9769 25.38 50.9769 21.1ZM58.7369 21.1C58.7369 17.44 57.3769 15.42 55.5169 15.42C53.6569 15.42 52.3169 17.44 52.3169 21.1C52.3169 24.78 53.6569 26.8 55.5169 26.8C57.3769 26.8 58.7369 24.78 58.7369 21.1ZM23.04 58.8L23.24 59.8C22.22 60.12 20.98 60.24 19.8 60.24C15.98 60.24 14.16 57.68 14.14 54.34C14.1 51.24 15.98 48.6 19.2 48.62C22.5 48.62 23.98 50.76 23.98 53.94V54.66H15.42C15.5 57.16 16.92 59.26 19.84 59.24C20.86 59.24 22.02 59.12 23.04 58.8ZM15.38 53.68H22.72C22.72 53.64 22.76 53.46 22.72 53.42C22.7 51.04 21.38 49.62 19.2 49.62C16.72 49.62 15.54 51.6 15.38 53.68ZM28.5397 59.66C28.5397 60.3 28.0397 60.78 27.3997 60.78C26.7197 60.78 26.2197 60.3 26.2197 59.66C26.2197 59.06 26.7197 58.54 27.3997 58.54C28.0397 58.54 28.5397 59.06 28.5397 59.66ZM40.028 59.42V57.92H39.908C39.128 59.14 37.688 59.86 36.128 59.86C33.068 59.88 31.328 57.5 31.328 54.24C31.328 51 33.108 48.62 36.208 48.64C37.788 48.64 39.088 49.3 39.888 50.48H39.988V48.9H41.268V59.6C41.268 62.68 39.148 64.24 36.108 64.24C35.048 64.24 33.668 64.08 32.648 63.74L32.928 62.72C33.928 63.1 35.048 63.24 36.108 63.24C38.728 63.24 40.028 61.82 40.028 59.42ZM39.968 55.22V53.12C39.968 51.16 38.228 49.64 36.348 49.64C33.968 49.64 32.588 51.6 32.588 54.24C32.588 56.88 33.848 58.86 36.268 58.86C38.208 58.86 39.968 57.32 39.968 55.22ZM46.9186 59.66C46.9186 60.3 46.4186 60.78 45.7786 60.78C45.0986 60.78 44.5986 60.3 44.5986 59.66C44.5986 59.06 45.0986 58.54 45.7786 58.54C46.4186 58.54 46.9186 59.06 46.9186 59.66ZM72.2919 60.82L71.4519 61.72C69.8919 60.92 68.2919 59.4 67.7719 57.94C67.2519 59.34 65.8119 60.9 64.4119 61.66C62.9919 60.9 61.5319 59.34 61.0319 57.94C60.4919 59.4 58.9119 60.92 57.3519 61.72L56.5119 60.82C58.3919 59.96 60.3519 57.92 60.3519 55.76V54.98H61.6919V55.76C61.6919 57.6 63.1719 59.48 64.4119 60.26C65.6319 59.48 67.1119 57.6 67.1119 55.76V54.98H68.4519V55.76C68.4519 57.92 70.4319 59.96 72.2919 60.82ZM65.1519 48.62C65.1519 51.08 63.1919 53.04 60.3519 53.04C57.4719 53.04 55.5319 51.08 55.5319 48.62C55.5319 46.16 57.4719 44.18 60.3519 44.18C63.1919 44.18 65.1519 46.16 65.1519 48.62ZM63.8119 48.62C63.8119 46.74 62.5319 45.26 60.3519 45.26C58.1519 45.26 56.8919 46.74 56.8919 48.62C56.8919 50.48 58.1519 51.96 60.3519 51.96C62.5319 51.96 63.8119 50.48 63.8119 48.62ZM70.3719 54.2H69.0319V43.86H70.3719V54.2ZM87.8303 61.64H86.5103V43.86H87.8303V50.2H90.8303V51.34H87.8303V61.64ZM85.6503 55.16V56.24C83.4103 56.7 79.9103 56.92 77.2303 56.92H74.4703V45.04H83.0503V46.12H75.7903V55.82H77.2303C79.9103 55.82 83.2503 55.6 85.6503 55.16ZM107.209 61.64H105.869V43.86H107.209V61.64ZM92.5688 51.1C92.5688 46.84 94.5288 44.34 97.1288 44.34C99.7488 44.34 101.689 46.84 101.689 51.1C101.689 55.38 99.7488 57.88 97.1288 57.88C94.5288 57.88 92.5688 55.38 92.5688 51.1ZM100.349 51.1C100.349 47.44 99.0088 45.42 97.1288 45.42C95.2688 45.42 93.9087 47.44 93.9087 51.1C93.9087 54.78 95.2688 56.8 97.1288 56.8C99.0088 56.8 100.349 54.78 100.349 51.1ZM111.107 57.84L110.247 56.94C114.967 54.64 117.607 50.64 118.107 46.12H111.347V45.04H119.567C119.287 51.06 115.827 55.46 111.107 57.84ZM124.627 61.64H123.307V43.86H124.627V50.8H127.627V51.94H124.627V61.64ZM129.646 63.32L129.326 63.02C130.026 62.58 130.626 61.72 130.726 60.96C130.746 60.86 130.726 60.78 130.686 60.74C130.646 60.64 130.526 60.58 130.326 60.58C129.766 60.58 129.246 60.2 129.246 59.52C129.246 58.88 129.766 58.46 130.406 58.46C131.146 58.46 131.666 59.12 131.666 59.94C131.666 61.36 130.806 62.7 129.646 63.32ZM154.699 61.64H153.359V43.86H154.699V61.64ZM152.419 55.14V56.22C150.179 56.68 146.679 56.88 143.979 56.88H141.019V44.7H142.359V55.78H143.979C146.679 55.78 150.019 55.58 152.419 55.14ZM180.862 58.98H163.382V57.9H175.462C176.462 54.4 177.042 49.66 177.202 46.26H165.522V45.18H178.602C178.422 49.64 177.822 54.36 176.842 57.9H180.862V58.98ZM197.121 61.64H195.781V51.68H191.681V50.56H195.781V43.86H197.121V61.64ZM183.261 57.84L182.381 56.94C187.101 54.64 189.741 50.64 190.241 46.12H183.481V45.04H191.701C191.441 51.06 187.961 55.46 183.261 57.84ZM220.584 61.64H219.264V43.86H220.584V50.3H223.584V51.44H220.584V61.64ZM206.504 51.1C206.504 46.84 208.444 44.34 211.044 44.34C213.644 44.34 215.604 46.84 215.604 51.1C215.604 55.38 213.644 57.88 211.044 57.88C208.444 57.88 206.504 55.38 206.504 51.1ZM214.264 51.1C214.264 47.44 212.904 45.42 211.044 45.42C209.184 45.42 207.844 47.44 207.844 51.1C207.844 54.78 209.184 56.8 211.044 56.8C212.904 56.8 214.264 54.78 214.264 51.1ZM236.803 55.14V56.22C234.563 56.68 231.063 56.88 228.383 56.88H225.623V44.68H226.943V55.78H228.383C231.063 55.78 234.403 55.58 236.803 55.14ZM238.983 61.64H237.663V43.86H238.983V49.96H241.983V51.1H238.983V61.64ZM247.161 56.6H246.001V55.74C246.001 53.92 246.441 52.84 248.221 51.38C249.361 50.44 250.141 49.22 250.141 48.08C250.141 46.2 248.581 45.4 246.921 45.4C245.941 45.4 244.461 45.8 243.421 46.42L242.941 45.52C244.021 44.88 245.661 44.38 247.021 44.38C249.281 44.38 251.421 45.44 251.421 48.04C251.421 49.5 250.661 50.74 249.301 51.88C247.561 53.38 247.161 54.1 247.161 55.82V56.6ZM247.721 59.84C247.721 60.46 247.221 60.94 246.601 60.94C245.921 60.94 245.441 60.46 245.441 59.84C245.441 59.26 245.921 58.74 246.601 58.74C247.221 58.74 247.721 59.26 247.721 59.84Z" fill="white"/>
</svg>
