<svg width="167" height="76" viewBox="0 0 167 76" fill="none" xmlns="http://www.w3.org/2000/svg">
<rect x="0.5" y="0.5" width="166" height="75" fill="#FF0561"/>
<rect x="0.5" y="0.5" width="166" height="75" stroke="black"/>
<path d="M30.96 28.98H13.48V27.9H25.56C26.56 24.4 27.14 19.66 27.3 16.26H15.62V15.18H28.7C28.52 19.64 27.92 24.36 26.94 27.9H30.96V28.98ZM47.5384 31.64H46.2184V21.48H43.6584V30.8H42.3784V14.16H43.6584V20.32H46.2184V13.86H47.5384V31.64ZM41.4384 25.82V26.9C39.7984 27.16 37.3384 27.32 35.6184 27.32H33.1984V20.54H38.6584V16.14H33.1984V15.06H39.9584V21.6H34.4984V26.22H35.6184C37.3384 26.22 39.7784 26.08 41.4384 25.82ZM54.8369 26.6H53.6769V25.74C53.6769 23.92 54.1169 22.84 55.8969 21.38C57.0369 20.44 57.8169 19.22 57.8169 18.08C57.8169 16.2 56.2569 15.4 54.5969 15.4C53.6169 15.4 52.1369 15.8 51.0969 16.42L50.6169 15.52C51.6969 14.88 53.3369 14.38 54.6969 14.38C56.9569 14.38 59.0969 15.44 59.0969 18.04C59.0969 19.5 58.3369 20.74 56.9769 21.88C55.2369 23.38 54.8369 24.1 54.8369 25.82V26.6ZM55.3969 29.84C55.3969 30.46 54.8969 30.94 54.2769 30.94C53.5969 30.94 53.1169 30.46 53.1169 29.84C53.1169 29.26 53.5969 28.74 54.2769 28.74C54.8969 28.74 55.3969 29.26 55.3969 29.84ZM66.9852 31.94H65.8052L72.8852 13.16H74.0652L66.9852 31.94ZM98.2842 28.98H80.8042V27.9H92.8842C93.8842 24.4 94.4642 19.66 94.6242 16.26H82.9442V15.18H96.0242C95.8442 19.64 95.2442 24.36 94.2642 27.9H98.2842V28.98ZM111.723 24.4H105.023V23.38H111.723V24.4ZM115.343 26.58H101.583V25.56H115.343V26.58ZM108.463 31.92C104.763 31.92 102.743 30.98 102.743 29.68C102.743 28.38 104.763 27.44 108.463 27.44C112.163 27.44 114.163 28.38 114.163 29.68C114.163 30.98 112.163 31.92 108.463 31.92ZM108.463 28.42C105.743 28.42 104.083 28.92 104.083 29.68C104.083 30.44 105.743 30.94 108.463 30.94C111.183 30.94 112.823 30.44 112.823 29.68C112.823 28.92 111.183 28.42 108.463 28.42ZM111.903 20.22V21.22C109.823 21.68 106.563 21.9 103.763 21.9H100.603V17.72H107.343V15.62H100.603V14.62H108.663V18.72H101.923V20.88H103.763C106.463 20.88 109.703 20.64 111.903 20.22ZM114.703 23.4H113.383V18.32H109.703V17.26H113.383V13.86H114.703V23.4ZM135.081 23.64H126.761V31.64H125.421V23.64H117.601V22.56H130.461C130.901 20.42 131.241 17.98 131.381 15.84H119.641V14.76H132.761C132.661 17.16 132.221 20.4 131.821 22.56H135.081V23.64ZM148.6 25.14V26.22C146.36 26.68 142.86 26.88 140.18 26.88H137.42V14.68H138.74V25.78H140.18C142.86 25.78 146.2 25.58 148.6 25.14ZM150.78 31.64H149.46V13.86H150.78V19.96H153.78V21.1H150.78V31.64ZM23.04 58.8L23.24 59.8C22.22 60.12 20.98 60.24 19.8 60.24C15.98 60.24 14.16 57.68 14.14 54.34C14.1 51.24 15.98 48.6 19.2 48.62C22.5 48.62 23.98 50.76 23.98 53.94V54.66H15.42C15.5 57.16 16.92 59.26 19.84 59.24C20.86 59.24 22.02 59.12 23.04 58.8ZM15.38 53.68H22.72C22.72 53.64 22.76 53.46 22.72 53.42C22.7 51.04 21.38 49.62 19.2 49.62C16.72 49.62 15.54 51.6 15.38 53.68ZM28.5397 59.66C28.5397 60.3 28.0397 60.78 27.3997 60.78C26.7197 60.78 26.2197 60.3 26.2197 59.66C26.2197 59.06 26.7197 58.54 27.3997 58.54C28.0397 58.54 28.5397 59.06 28.5397 59.66ZM40.028 59.42V57.92H39.908C39.128 59.14 37.688 59.86 36.128 59.86C33.068 59.88 31.328 57.5 31.328 54.24C31.328 51 33.108 48.62 36.208 48.64C37.788 48.64 39.088 49.3 39.888 50.48H39.988V48.9H41.268V59.6C41.268 62.68 39.148 64.24 36.108 64.24C35.048 64.24 33.668 64.08 32.648 63.74L32.928 62.72C33.928 63.1 35.048 63.24 36.108 63.24C38.728 63.24 40.028 61.82 40.028 59.42ZM39.968 55.22V53.12C39.968 51.16 38.228 49.64 36.348 49.64C33.968 49.64 32.588 51.6 32.588 54.24C32.588 56.88 33.848 58.86 36.268 58.86C38.208 58.86 39.968 57.32 39.968 55.22ZM46.9186 59.66C46.9186 60.3 46.4186 60.78 45.7786 60.78C45.0986 60.78 44.5986 60.3 44.5986 59.66C44.5986 59.06 45.0986 58.54 45.7786 58.54C46.4186 58.54 46.9186 59.06 46.9186 59.66ZM69.4319 61.64H68.1119V43.86H69.4319V50.3H72.4319V51.44H69.4319V61.64ZM55.3519 51.1C55.3519 46.84 57.2919 44.34 59.8919 44.34C62.4919 44.34 64.4519 46.84 64.4519 51.1C64.4519 55.38 62.4919 57.88 59.8919 57.88C57.2919 57.88 55.3519 55.38 55.3519 51.1ZM63.1119 51.1C63.1119 47.44 61.7519 45.42 59.8919 45.42C58.0319 45.42 56.6919 47.44 56.6919 51.1C56.6919 54.78 58.0319 56.8 59.8919 56.8C61.7519 56.8 63.1119 54.78 63.1119 51.1ZM88.3953 52.22H79.9553V44.78H88.3953V52.22ZM94.9153 60.66L94.2153 61.64C91.4353 61.1 88.6953 59.48 87.8553 57.68C87.0353 59.48 84.2753 61.1 81.4953 61.64L80.8353 60.66C83.6553 60.12 87.0153 58.28 87.1153 55.94H81.7353V54.86H93.9753V55.94H88.5753C88.7153 58.28 92.0353 60.12 94.9153 60.66ZM87.0553 51.14V45.84H81.2953V51.14H87.0553ZM93.7353 53.9H92.4153V43.86H93.7353V47.72H96.4553V48.84H93.7353V53.9ZM109.674 55.14V56.22C107.434 56.68 103.934 56.88 101.254 56.88H98.4938V44.68H99.8138V55.78H101.254C103.934 55.78 107.274 55.58 109.674 55.14ZM111.854 61.64H110.534V43.86H111.854V49.96H114.854V51.1H111.854V61.64ZM118.852 59.66C118.852 60.3 118.352 60.78 117.712 60.78C117.032 60.78 116.532 60.3 116.532 59.66C116.532 59.06 117.032 58.54 117.712 58.54C118.352 58.54 118.852 59.06 118.852 59.66Z" fill="white"/>
</svg>
