<svg width="152" height="182" viewBox="0 0 152 182" fill="none" xmlns="http://www.w3.org/2000/svg">
<rect x="0.75" y="0.75" width="150" height="180" fill="white"/>
<rect x="0.75" y="0.75" width="150" height="180" stroke="#FF0561" stroke-width="1.5"/>
<path d="M29.8691 131.68C46.8791 108.16 63.8891 79.285 71.9741 60.49C64.8341 61.12 46.8791 62.905 34.3841 64.06L38.4791 50.725C51.0791 49.57 82.9991 46.735 96.2291 45.79C91.3991 59.125 86.1491 71.305 80.7941 82.33C86.5691 81.7 92.3441 81.07 98.1191 80.545C101.374 67.42 104.734 54.715 108.094 42.955L127.519 41.17C117.754 74.455 110.929 112.045 105.994 142.495L84.7841 143.23C87.5141 127.9 90.9791 110.995 94.8641 94.09C88.2491 94.93 81.3191 95.77 73.4441 96.61C66.4091 109.84 59.3741 121.075 53.0741 130.525L29.8691 131.68Z" fill="#FF0561"/>
</svg>
