<svg width="152" height="182" viewBox="0 0 152 182" fill="none" xmlns="http://www.w3.org/2000/svg">
<rect x="0.75" y="0.75" width="150" height="180" fill="white"/>
<rect x="0.75" y="0.75" width="150" height="180" stroke="#FF0561" stroke-width="1.5"/>
<path d="M29.8424 131.68C46.8524 108.16 63.8624 79.285 71.9474 60.49C64.8074 61.12 46.8524 62.905 34.3574 64.06L38.4524 50.725C51.0524 49.57 82.9724 46.735 96.2024 45.79C82.7624 82.75 66.1724 110.785 53.0474 130.525L29.8424 131.68ZM82.6574 143.23C88.2224 111.835 97.0424 73.825 105.967 42.955L125.392 41.17C121.192 55.45 117.517 70.57 114.367 85.48C119.092 84.955 123.817 84.325 128.647 83.695L125.392 97.135C120.877 97.765 116.152 98.5 111.532 99.13C108.592 114.25 106.072 129.055 103.867 142.495L82.6574 143.23Z" fill="#FF0561"/>
</svg>
