<svg width="152" height="182" viewBox="0 0 152 182" fill="none" xmlns="http://www.w3.org/2000/svg">
<rect x="0.75" y="0.75" width="150" height="180" fill="white"/>
<rect x="0.75" y="0.75" width="150" height="180" stroke="#FF0561" stroke-width="1.5"/>
<path d="M50.3174 131.68C62.9174 108.16 75.4124 79.285 81.3974 60.49C78.8774 60.805 74.2574 61.54 69.3224 62.17C60.1874 91.15 49.8974 113.83 41.4974 130.525L20.9174 131.68C33.5174 108.16 46.0124 79.285 51.9974 60.49C47.7974 61.12 37.4024 62.905 30.1574 64.06L34.2524 50.725C42.9674 49.57 64.9124 46.735 74.1524 45.79L73.2074 49.15C83.8124 47.89 96.8324 46.42 103.552 45.79C93.3674 82.75 80.8724 110.785 70.8974 130.525L50.3174 131.68ZM85.8074 143.23C91.3724 111.835 100.192 73.825 109.117 42.955L127.492 41.17C123.292 55.45 119.617 70.57 116.467 85.48C121.192 84.955 125.917 84.325 130.747 83.695L127.492 97.135C122.977 97.765 118.252 98.5 113.632 99.13C110.692 114.25 108.172 129.055 105.967 142.495L85.8074 143.23Z" fill="#FF0561"/>
</svg>
