<svg width="152" height="182" viewBox="0 0 152 182" fill="none" xmlns="http://www.w3.org/2000/svg">
<rect x="0.75" y="0.75" width="150" height="180" fill="white"/>
<rect x="0.75" y="0.75" width="150" height="180" stroke="#FF0561" stroke-width="1.5"/>
<path d="M67.4304 143.23C69.4254 133.045 71.6304 122.125 74.2554 110.995C71.0004 111.52 67.6404 111.94 64.1754 112.465C58.5054 120.55 51.4704 124.75 43.5954 124.75C28.4754 124.75 23.3304 107.32 29.9454 82.96C35.5104 62.59 45.0654 49.15 59.7654 49.15C67.2204 49.15 72.8904 54.085 75.2004 62.905L86.7504 61.645C88.6404 55.24 90.4254 48.94 92.3154 42.955L110.165 41.17C99.4554 74.455 92.0004 112.045 86.5404 142.495L67.4304 143.23ZM45.1704 85.69C41.2854 100.18 42.8604 108.37 46.4304 108.37C50.1054 108.37 55.1454 101.125 58.6104 87.265C61.7604 74.77 60.3954 67 56.6154 67C52.9404 67 48.1104 74.455 45.1704 85.69ZM71.1054 98.605C73.2054 98.395 75.2004 98.08 77.3004 97.87C79.1904 90.1 81.1854 82.435 83.1804 74.77L76.2504 75.715C76.0404 79.6 75.3054 84.01 74.1504 88.735C73.2054 92.305 72.2604 95.56 71.1054 98.605ZM91.0554 143.23C96.5154 111.835 105.125 73.825 113.84 42.955L131.69 41.17C121.925 74.455 115.1 112.045 110.165 142.495L91.0554 143.23Z" fill="#FF0561"/>
</svg>
