<svg width="152" height="182" viewBox="0 0 152 182" fill="none" xmlns="http://www.w3.org/2000/svg">
<rect x="0.75" y="0.75" width="150" height="180" fill="white"/>
<rect x="0.75" y="0.75" width="150" height="180" stroke="#FF0561" stroke-width="1.5"/>
<path d="M85.8341 143.23C88.5641 127.69 92.1341 110.47 96.1241 93.355C93.1841 93.67 90.2441 94.09 86.9891 94.51C80.4791 114.46 67.9841 124.75 51.1841 124.75C32.3891 124.75 25.0391 105.325 32.7041 81.07C38.1641 63.535 49.5041 49.15 68.2991 49.15C82.9991 49.15 92.0291 61.75 90.0341 80.755C93.1841 80.44 96.2291 80.125 99.3791 79.705C102.529 67 105.784 54.505 109.144 42.955L128.569 41.17C118.804 74.455 111.979 112.045 107.044 142.495L85.8341 143.23ZM49.8191 84.535C45.1991 101.335 48.4541 110.89 53.9141 110.89C59.5841 110.89 66.3041 103.645 70.3991 87.475C74.0741 72.985 70.5041 62.8 65.4641 62.8C59.6891 62.8 53.3891 71.41 49.8191 84.535Z" fill="#FF0561"/>
</svg>
