<svg width="152" height="182" viewBox="0 0 152 182" fill="none" xmlns="http://www.w3.org/2000/svg">
<rect x="0.75" y="0.75" width="150" height="180" fill="white"/>
<rect x="0.75" y="0.75" width="150" height="180" stroke="#FF0561" stroke-width="1.5"/>
<path d="M67.4591 128.635C65.6741 121.39 64.5191 111.205 63.9941 101.44C57.0641 112.78 50.3441 122.545 44.3591 130.735L21.1541 132.31C39.4241 109.525 57.6941 81.7 67.2491 63.43C60.3191 64.06 43.6241 65.425 35.0141 66.055L38.8991 51.565C50.1341 50.83 78.4841 48.94 92.3441 48.31C84.9941 64.48 77.4341 78.865 69.9791 91.675L80.5841 89.365C81.3191 102.385 84.0491 115.615 87.8291 126.85C93.2891 99.235 100.639 68.575 108.094 42.955L127.519 41.17C117.754 74.455 110.929 112.045 105.994 142.495L84.7841 143.23C85.7291 138.085 86.6741 132.835 87.7241 127.375L67.4591 128.635Z" fill="#FF0561"/>
</svg>
