<svg width="152" height="182" viewBox="0 0 152 182" fill="none" xmlns="http://www.w3.org/2000/svg">
<rect x="0.75" y="0.75" width="150" height="180" fill="white"/>
<rect x="0.75" y="0.75" width="150" height="180" stroke="#FF0561" stroke-width="1.5"/>
<path d="M26.6945 126.955C28.6895 126.745 33.7295 126.325 40.5545 125.8C42.6545 118.555 45.6995 108.475 47.7995 101.44C40.4495 95.98 38.0345 86.845 41.0795 76.03C45.4895 60.07 61.4495 46.105 84.7595 44.95C110.169 43.69 123.504 55.345 119.409 72.565C117.204 81.805 112.269 89.47 105.129 95.245C102.924 103.015 100.089 113.83 98.1995 120.97C107.229 120.34 114.264 119.71 117.099 119.5L113.844 132.73C105.129 133.465 34.9895 140.395 23.1245 141.655L26.6945 126.955ZM58.7195 75.61C55.6745 86.95 62.0795 93.775 73.8395 93.04C84.4445 92.41 97.0445 85.9 100.299 73.3C102.819 63.325 95.2595 57.655 82.7645 58.6C72.3695 59.335 61.3445 65.74 58.7195 75.61ZM61.5545 124.015L77.1995 122.755C78.7745 117.715 80.6645 111.31 82.3445 105.43C78.7745 106.165 74.8895 106.69 70.8995 106.9C69.2195 107.005 67.5395 107.005 66.0695 106.9C64.3895 112.885 62.7095 119.29 61.5545 124.015Z" fill="#FF0561"/>
</svg>
