<svg width="152" height="182" viewBox="0 0 152 182" fill="none" xmlns="http://www.w3.org/2000/svg">
<rect x="0.75" y="0.75" width="150" height="180" fill="white"/>
<rect x="0.75" y="0.75" width="150" height="180" stroke="#FF0561" stroke-width="1.5"/>
<path d="M76.9895 66.475C88.2245 66.055 101.139 64.27 102.399 59.545C103.239 56.395 97.0445 55.03 83.8145 55.66C72.8945 56.08 61.7645 57.655 60.6095 61.33C59.5595 64.9 64.4945 67 76.9895 66.475ZM27.8495 98.395L32.9945 85.48C36.4595 85.27 49.8995 84.64 65.4395 83.905C65.8595 82.54 66.3845 81.175 66.8045 79.915C47.1695 79.18 39.5045 71.725 43.4945 60.28C46.8545 50.725 63.5495 43.06 86.8595 42.325C112.269 41.59 124.239 48.31 121.509 59.125C119.094 68.89 106.179 75.715 88.2245 78.55C87.6995 80.02 87.2795 81.49 86.8595 82.855L123.399 81.07L119.094 93.145C110.379 93.565 39.8195 97.66 27.8495 98.395ZM30.9995 130.945L34.5695 118.765C47.7995 117.925 80.6645 115.93 91.0595 115.09L92.0045 110.89C81.5045 111.52 51.5795 113.41 36.1445 114.46L39.6095 102.07C54.9395 101.125 97.1495 98.71 114.474 97.765C112.374 104.8 108.804 119.5 107.229 125.275L57.4595 128.95C57.4595 132.835 60.9245 134.41 71.4245 134.305C84.0245 134.2 104.394 131.26 124.344 122.125L119.094 133.255C103.764 141.55 86.0195 145.12 71.6345 145.54C43.0745 146.38 35.9345 141.025 36.9845 130.42C34.6745 130.63 32.6795 130.84 30.9995 130.945Z" fill="#FF0561"/>
</svg>
