<svg width="152" height="182" viewBox="0 0 152 182" fill="none" xmlns="http://www.w3.org/2000/svg">
<rect x="0.75" y="0.75" width="150" height="180" fill="white"/>
<rect x="0.75" y="0.75" width="150" height="180" stroke="#FF0561" stroke-width="1.5"/>
<path d="M32.9945 94.93C41.8145 94.405 112.689 91.045 123.399 90.52L119.094 103.645C110.379 104.065 39.8195 108.16 27.8495 108.895L32.9945 94.93ZM35.6195 114.67L55.6745 111.625C58.4045 131.89 71.8445 134.305 84.0245 134.305C94.2095 134.305 108.069 133.15 116.784 130L106.914 142.285C100.719 144.7 91.3745 145.54 80.7695 145.54C60.6095 145.54 39.5045 140.185 35.6195 114.67ZM39.7145 88C44.3345 74.665 50.4245 58.285 54.9395 46L73.6295 45.265C69.8495 55.87 65.7545 67.735 64.0745 72.985C72.5795 72.46 106.284 70.675 122.244 69.415L116.784 82.96C102.189 84.01 61.2395 86.74 39.7145 88Z" fill="#FF0561"/>
</svg>
