<svg width="152" height="182" viewBox="0 0 152 182" fill="none" xmlns="http://www.w3.org/2000/svg">
<rect x="0.75" y="0.75" width="150" height="180" fill="white"/>
<rect x="0.75" y="0.75" width="150" height="180" stroke="#FF0561" stroke-width="1.5"/>
<path d="M82.6574 143.23C84.7574 131.575 87.2774 118.975 90.1124 106.06C75.5174 117.4 49.1624 131.785 26.3774 134.515C29.2124 124.12 35.1974 104.59 38.8724 92.305C36.1424 92.725 33.8324 92.935 32.1524 93.145L36.5624 79.39C44.1224 78.76 61.9724 76.66 68.4824 75.82C70.0574 70.78 72.3674 63.85 73.9424 58.39C67.5374 58.915 50.9474 60.28 39.6074 61.435L43.7024 49.045L97.2524 44.845C94.4174 55.345 87.1724 77.185 84.5474 86.005C80.7674 86.425 70.2674 88 59.5574 89.47C57.1424 97.135 53.9924 107.53 52.7324 111.835C64.4924 109 77.8274 102.91 92.8424 93.67C96.9374 76.135 101.452 58.6 105.967 42.955L125.392 41.17C121.192 55.45 117.517 70.57 114.367 85.48C119.092 84.955 123.817 84.325 128.647 83.695L125.392 97.135C120.877 97.765 116.152 98.5 111.532 99.13C108.592 114.25 106.072 129.055 103.867 142.495L82.6574 143.23Z" fill="#FF0561"/>
</svg>
