<svg width="152" height="182" viewBox="0 0 152 182" fill="none" xmlns="http://www.w3.org/2000/svg">
<rect x="0.75" y="0.75" width="150" height="180" fill="white"/>
<rect x="0.75" y="0.75" width="150" height="180" stroke="#FF0561" stroke-width="1.5"/>
<path d="M30.8945 99.655C39.7145 98.815 110.589 93.04 121.299 92.2L118.044 105.43C114.369 105.745 99.9845 107.11 83.4995 108.79C78.9845 121.81 74.0495 136.51 72.0545 142.39L49.6895 144.49C52.3145 137.56 57.5645 123.07 61.9745 110.89C46.2245 112.465 32.0495 113.83 27.3245 114.355L30.8945 99.655ZM36.7745 95.14C40.8695 84.955 45.4895 72.25 49.1645 62.695L41.3945 63.43L46.2245 48.1C65.3345 46.735 108.174 44.11 132.114 42.64C128.439 51.565 123.609 63.325 119.199 73.615C121.614 73.405 123.819 73.195 125.604 73.09L120.144 87.685C99.5645 89.575 60.1895 93.25 36.7745 95.14ZM64.0745 77.815C71.7395 77.29 85.9145 76.24 99.2495 75.19C102.189 68.155 104.709 61.645 106.179 57.97C95.4695 58.81 82.4495 59.86 70.6895 60.91C68.2745 67.105 65.2295 74.56 64.0745 77.815Z" fill="#FF0561"/>
</svg>
