<svg width="152" height="182" viewBox="0 0 152 182" fill="none" xmlns="http://www.w3.org/2000/svg">
<rect x="0.75" y="0.75" width="150" height="180" fill="white"/>
<rect x="0.75" y="0.75" width="150" height="180" stroke="#FF0561" stroke-width="1.5"/>
<path d="M84.7841 143.23C87.1991 129.79 90.1391 115.195 93.4991 100.495C77.5391 113.62 50.2391 128.32 26.4041 131.365C30.6041 114.985 39.2141 84.85 45.5141 63.01C41.5241 63.325 38.2691 63.64 35.9591 63.745L40.2641 49.99C53.4941 49.045 87.5141 46.42 96.9641 45.895L92.4491 58.81C88.3541 59.125 77.3291 60.175 65.7791 61.225C61.2641 77.185 55.1741 99.55 52.7591 108.685C65.5691 105.535 79.8491 99.025 96.0191 89.26C99.7991 73.195 103.894 57.34 108.094 42.955L127.519 41.17C117.754 74.455 110.929 112.045 105.994 142.495L84.7841 143.23Z" fill="#FF0561"/>
</svg>
