<svg width="152" height="182" viewBox="0 0 152 182" fill="none" xmlns="http://www.w3.org/2000/svg">
<rect x="0.75" y="0.75" width="150" height="180" fill="white"/>
<rect x="0.75" y="0.75" width="150" height="180" stroke="#FF0561" stroke-width="1.5"/>
<path d="M91.0554 143.23C96.5154 111.835 105.125 73.825 113.84 42.955L131.69 41.17C121.925 74.455 115.1 112.045 110.165 142.495L91.0554 143.23ZM18.3954 135.985C24.6954 107.005 37.0854 62.275 42.7554 43.69L59.4504 42.43C56.6154 52.3 52.8354 66.16 48.9504 80.65L57.5604 79.075C61.0254 67.735 64.3854 56.92 66.3804 49.885L84.3354 47.995C81.5004 56.815 77.1954 69.1 72.9954 80.965C76.0404 80.44 78.9804 80.02 81.9204 79.495C85.2804 66.79 88.7454 54.4 92.3154 42.955L110.165 41.17C99.4554 74.455 92.0004 112.045 86.5404 142.495L67.4304 143.23C70.3704 127.585 74.2554 110.26 78.4554 93.04L68.1654 94.93C66.5904 99.445 65.1204 103.645 63.8604 107.32C65.5404 106.69 67.0104 106.165 68.4804 105.535L70.0554 116.56C62.4954 119.92 51.0504 124.12 41.1804 126.22L40.0254 115.93C38.5554 121.81 37.4004 127.165 36.4554 131.575C29.4204 133.255 23.2254 134.83 18.3954 135.985ZM40.5504 113.515C42.8604 113.095 45.2754 112.57 47.5854 112.045C49.3704 105.955 51.6804 98.5 53.9904 90.835L45.9054 92.41C44.0154 99.76 42.1254 106.9 40.5504 113.515Z" fill="#FF0561"/>
</svg>
