<svg width="152" height="182" viewBox="0 0 152 182" fill="none" xmlns="http://www.w3.org/2000/svg">
<rect x="0.75" y="0.75" width="150" height="180" fill="white"/>
<rect x="0.75" y="0.75" width="150" height="180" stroke="#FF0561" stroke-width="1.5"/>
<path d="M29.8445 105.955C38.6645 105.115 109.539 99.34 120.249 98.5L116.994 111.73C113.214 112.045 98.1995 113.515 81.2945 115.195L72.0545 142.39L49.6895 144.49C51.8945 138.715 55.7795 127.795 59.5595 117.295C44.3345 118.765 30.8945 120.13 26.2745 120.655L29.8445 105.955ZM37.8245 101.23C40.3445 94.93 43.2845 87.265 45.6995 80.965C43.0745 81.175 40.7645 81.28 38.9795 81.385L44.4395 67.105C57.9845 66.055 90.8495 63.745 102.399 62.695C102.924 61.33 103.554 59.335 104.184 57.865C93.4745 58.495 66.2795 60.805 47.2745 62.065L52.4195 47.05C69.3245 45.895 112.269 43.27 130.119 42.325C127.389 50.725 121.299 68.05 118.674 75.085C111.324 75.61 87.2795 77.605 66.8045 79.285C66.0695 81.385 65.4395 83.275 65.1245 84.325C77.7245 83.38 110.064 80.755 122.454 79.6L116.994 94.72C97.4645 96.4 60.0845 99.55 37.8245 101.23Z" fill="#FF0561"/>
</svg>
