<svg width="152" height="182" viewBox="0 0 152 182" fill="none" xmlns="http://www.w3.org/2000/svg">
<rect x="0.75" y="0.75" width="150" height="180" fill="white"/>
<rect x="0.75" y="0.75" width="150" height="180" stroke="#FF0561" stroke-width="1.5"/>
<path d="M34.5695 120.34C47.7995 119.5 80.6645 117.505 91.0595 116.665L92.0045 113.725C81.5045 114.355 51.5795 116.245 36.1445 117.295L39.6095 104.905C54.9395 103.96 97.1495 101.545 114.474 100.6C112.374 107.32 108.804 121.39 107.229 126.85L57.5645 130.525C58.0895 133.36 61.7645 134.41 71.4245 134.305C84.0245 134.2 104.394 131.47 124.344 123.175L119.094 134.305C103.764 141.865 86.0195 145.12 71.6345 145.54C43.7045 146.38 36.2495 141.55 36.9845 131.995C34.6745 132.205 32.5745 132.415 30.9995 132.52L34.5695 120.34ZM27.8495 101.02L33.5195 88.63C42.3395 88.105 113.214 84.745 123.924 84.22L119.094 95.77C110.379 96.19 39.8195 100.285 27.8495 101.02ZM38.3495 84.745C42.4445 74.98 51.0545 54.505 54.7295 45.895L73.6295 44.635C72.5795 47.05 71.0045 50.515 69.3245 54.19L106.494 52.3C107.859 48.94 109.014 45.895 109.959 43.585L128.964 42.745C125.919 49.675 120.984 60.91 117.414 68.89C118.989 68.785 120.354 68.785 121.404 68.68L116.364 80.755C103.659 81.28 54.0995 83.8 38.3495 84.745ZM61.5545 71.62C65.6495 71.515 83.6045 70.57 99.3545 69.835C100.089 68.155 100.824 66.265 101.559 64.375C90.0095 65.11 75.7295 65.845 63.7595 66.58L61.5545 71.62Z" fill="#FF0561"/>
</svg>
