<svg width="152" height="182" viewBox="0 0 152 182" fill="none" xmlns="http://www.w3.org/2000/svg">
<rect x="0.75" y="0.75" width="150" height="180" fill="white"/>
<rect x="0.75" y="0.75" width="150" height="180" stroke="#FF0561" stroke-width="1.5"/>
<path d="M84.7841 143.23C86.9891 131.05 89.6141 117.925 92.5541 104.59C76.8041 116.77 49.9241 131.575 26.4041 134.515C29.2391 124.12 35.2241 104.59 38.8991 92.305C36.1691 92.725 33.8591 92.935 32.1791 93.145L36.5891 79.39C44.1491 78.76 61.9991 76.66 68.5091 75.82C70.0841 70.78 72.3941 63.85 73.9691 58.39C67.5641 58.915 50.9741 60.28 39.6341 61.435L43.7291 49.045L97.2791 44.845C94.4441 55.345 87.1991 77.185 84.5741 86.005C80.7941 86.425 70.2941 88 59.5841 89.47C57.1691 97.135 54.0191 107.53 52.7591 111.835C65.2541 108.79 79.3241 102.385 95.1791 92.83C99.1691 75.505 103.684 58.39 108.094 42.955L127.519 41.17C117.754 74.455 110.929 112.045 105.994 142.495L84.7841 143.23Z" fill="#FF0561"/>
</svg>
