<svg width="152" height="182" viewBox="0 0 152 182" fill="none" xmlns="http://www.w3.org/2000/svg">
<rect x="0.75" y="0.75" width="150" height="180" fill="white"/>
<rect x="0.75" y="0.75" width="150" height="180" stroke="#FF0561" stroke-width="1.5"/>
<path d="M29.0045 118.03C48.6395 96.4 68.5895 66.58 78.1445 47.785L99.7745 46.42C95.5745 55.87 90.3245 65.74 84.6545 75.295L99.4595 73.3C101.664 86.32 107.859 99.655 115.629 110.785L91.7945 112.78C86.1245 104.59 82.0295 92.935 80.4545 82.015C72.3695 94.825 63.7595 106.69 56.3045 115.51L29.0045 118.03ZM23.1245 141.655L26.6945 126.955C35.5145 126.115 106.389 120.34 117.099 119.5L113.844 132.73C105.129 133.465 34.9895 140.395 23.1245 141.655Z" fill="#FF0561"/>
</svg>
