<svg width="478" height="154" viewBox="0 0 478 154" fill="none" xmlns="http://www.w3.org/2000/svg">
<path d="M4.48021 28.1397C10.3602 27.7897 57.6102 25.5497 64.7502 25.1997L61.8802 33.2497C56.0702 33.5297 9.03022 36.2597 1.05021 36.7497L4.48021 28.1397ZM0.000214733 70.4197C1.54021 66.0097 4.90022 55.5797 7.56022 47.7397C6.16021 47.8097 4.83021 47.9497 3.43021 48.0197L6.09021 39.3397L58.5902 36.4697L56.1402 44.9397C49.7002 45.2197 35.2802 46.0597 20.0202 46.9697L19.1802 49.4897C28.7702 48.9297 47.0402 47.8097 54.6002 47.3197L52.2202 55.3697C44.8702 55.8597 26.9502 56.9097 16.6602 57.6097L15.8202 60.4097C21.2802 60.0597 42.9102 58.8697 53.2002 58.0297L50.3302 67.0597C40.8102 67.7597 14.0702 69.5797 0.000214733 70.4197ZM9.73022 13.8597L12.9502 4.82972C19.2502 4.54973 33.5302 3.56972 41.5102 3.14972C38.7802 9.23972 34.9302 17.6397 31.7802 24.2897L19.6002 24.8497C21.8402 20.1597 24.1502 15.3997 25.2002 12.9497C21.9102 13.0897 14.0702 13.6497 9.73022 13.8597ZM39.7602 12.0397L42.9802 3.14972C48.7902 2.72972 61.6002 2.09972 68.8102 1.67973C66.5702 7.76972 63.4902 16.0997 60.9702 22.7497L48.0202 23.3797C49.9802 18.5497 51.9402 13.8597 52.8502 11.4097C49.7002 11.5497 42.0702 11.9697 39.7602 12.0397ZM80.4576 60.3397C88.8576 44.6597 97.1876 25.4097 101.178 12.8797C99.4976 13.0897 96.4176 13.5797 93.1276 13.9997C87.0376 33.3197 80.1776 48.4397 74.5776 59.5697L60.8576 60.3397C69.2576 44.6597 77.5876 25.4097 81.5776 12.8797C78.7776 13.2997 71.8476 14.4897 67.0176 15.2597L69.7476 6.36972C75.5576 5.59973 90.1876 3.70972 96.3476 3.07972L95.7176 5.31972C102.788 4.47972 111.468 3.49972 115.948 3.07972C109.158 27.7197 100.828 46.4097 94.1776 59.5697L80.4576 60.3397ZM104.118 68.0397C107.828 47.1097 113.708 21.7697 119.658 1.18972L131.908 -0.000277877C129.108 9.51972 126.658 19.5997 124.558 29.5397C127.708 29.1897 130.858 28.7697 134.078 28.3497L131.908 37.3097C128.898 37.7297 125.748 38.2197 122.668 38.6397C120.708 48.7197 119.028 58.5897 117.558 67.5497L104.118 68.0397ZM156.998 58.3097C155.808 53.4797 155.038 46.6897 154.688 40.1797C150.068 47.7397 145.588 54.2497 141.598 59.7097L126.128 60.7597C138.308 45.5697 150.488 27.0197 156.858 14.8397C152.238 15.2597 141.108 16.1697 135.368 16.5897L137.958 6.92972C145.448 6.43972 164.348 5.17972 173.588 4.75972C168.688 15.5397 163.648 25.1297 158.678 33.6697L165.748 32.1297C166.238 40.8097 168.058 49.6297 170.578 57.1197C174.218 38.7097 179.118 18.2697 184.088 1.18972L197.038 -0.000277877C190.528 22.1897 185.978 47.2497 182.688 67.5497L168.548 68.0397C169.178 64.6097 169.808 61.1097 170.508 57.4697L156.998 58.3097ZM260.648 33.1797C263.029 23.3097 266.178 11.0597 268.768 1.32973L282.769 0.209724L278.988 12.2497L285.918 11.5497L283.679 20.5097L276.188 21.3497C275.068 25.1997 273.948 28.8397 273.039 32.1997L260.648 33.1797ZM213.608 35.6997C224.458 26.9497 235.448 11.1997 241.328 2.23972L253.578 1.53972C251.338 5.66972 248.048 11.1297 244.338 16.4497L251.408 14.9797C252.108 21.1397 254.558 27.2997 257.918 32.5497L244.128 33.8097C242.308 30.5897 241.118 26.2497 240.558 21.9097C236.708 27.1597 232.718 31.8497 229.428 34.6497L213.608 35.6997ZM218.438 58.4497L220.818 49.9797C229.218 49.4897 249.448 47.9497 256.728 47.2497L257.849 42.9797C251.128 43.4697 233.768 44.6597 221.868 45.7097L224.178 37.4497C234.818 36.6797 261.768 34.6497 272.968 33.8797C271.568 38.9897 268.908 49.4897 267.859 53.6897L236.078 56.6997C236.008 60.6897 238.178 62.1597 244.688 62.0897C252.948 62.0197 266.249 60.0597 279.268 53.9697L275.768 61.3897C265.758 66.9197 254.208 69.2997 244.828 69.5797C226.838 70.1397 221.938 66.0797 222.428 58.0297C220.888 58.2397 219.488 58.3097 218.438 58.4497ZM319.759 68.0397C323.469 47.1097 329.349 21.7697 335.299 1.18972L348.249 -0.000277877C345.449 9.51972 342.999 19.5997 340.899 29.5397C344.049 29.1897 347.199 28.7697 350.419 28.3497L348.249 37.3097C345.239 37.7297 342.089 38.2197 339.009 38.6397C337.049 48.7197 335.369 58.5897 333.899 67.5497L319.759 68.0397ZM285.739 26.5997C289.379 14.9097 297.079 5.31972 309.819 5.31972C321.579 5.31972 327.879 16.6597 323.399 32.9697C319.339 47.9497 310.449 55.7197 298.409 55.7197C285.599 55.7197 280.629 42.7697 285.739 26.5997ZM297.149 28.9097C294.069 40.1097 296.379 46.4797 300.229 46.4797C304.149 46.4797 308.839 41.6497 311.569 30.8697C314.019 21.0697 311.849 14.4197 307.929 14.4197C303.939 14.4197 299.529 20.1597 297.149 28.9097ZM390.979 35.2797C391.679 32.8297 392.519 29.6097 393.499 26.0397C385.379 30.8697 373.619 34.2297 351.569 36.6797C354.089 28.7697 359.339 13.1597 362.629 4.12972L376.559 3.00973C373.899 10.3597 369.769 21.8397 368.369 26.4597C376.209 25.7597 385.589 23.9397 395.319 19.5997C397.209 12.6697 399.169 5.59973 400.429 1.32973L414.429 0.209724C413.239 3.91973 411.419 9.23972 409.599 14.6997L417.509 13.7897L414.569 22.1197L406.799 23.0297C405.399 27.3697 404.139 31.4997 403.299 34.5797L390.979 35.2797ZM346.249 70.3497C348.489 63.5597 351.429 55.1597 353.669 48.9997C351.919 49.0697 350.449 49.2097 349.399 49.2797L352.619 39.6197C363.819 38.9197 388.949 37.3097 402.879 36.4697C401.199 41.9997 398.469 50.0497 396.509 55.9997C397.699 55.8597 398.819 55.7897 399.869 55.6497L397.559 63.8397C387.829 65.2397 360.669 68.6697 346.249 70.3497ZM361.859 59.7797L383.839 57.3997C385.029 53.4097 386.359 48.9997 386.989 46.6197C382.859 46.8997 374.319 47.4597 366.199 48.0897C364.519 52.4997 362.699 57.5397 361.859 59.7797ZM442.879 25.8297C426.779 26.3197 420.269 21.1397 423.209 12.7397C425.449 6.36972 436.579 1.25972 452.119 0.769725C469.059 0.279723 477.039 4.75972 475.219 11.9697C473.189 20.1597 460.029 25.3397 442.879 25.8297ZM412.779 38.1497L416.209 29.5397C422.089 29.1897 469.339 26.9497 476.479 26.5997L473.609 34.6497C467.799 34.9297 420.759 37.6597 412.779 38.1497ZM414.879 59.8497L417.259 51.7297C426.079 51.1697 447.989 49.8397 454.919 49.2797L455.549 46.4797C448.549 46.8997 428.599 48.1597 418.309 48.8597L420.619 40.5997C430.839 39.9697 458.979 38.3597 470.529 37.7297C469.129 42.4197 466.749 52.2197 465.699 56.0697L432.519 58.5197C432.519 61.1097 434.829 62.1597 441.829 62.0897C450.229 62.0197 463.809 60.0597 477.109 53.9697L473.609 61.3897C463.389 66.9197 451.559 69.2997 441.969 69.5797C422.929 70.1397 418.169 66.5697 418.869 59.4997C417.329 59.6397 415.999 59.7797 414.879 59.8497ZM434.619 13.4397C433.919 15.8197 437.209 17.2197 445.539 16.8697C453.029 16.5897 461.639 15.3997 462.479 12.2497C463.039 10.1497 458.909 9.23972 450.089 9.65972C442.809 9.93972 435.389 10.9897 434.619 13.4397ZM43.9602 123.13C44.5902 120.96 45.2902 118.23 46.1302 115.29L32.2702 116.41L35.3502 108.08L48.3702 107.03C48.8602 105.35 49.3502 103.67 49.7702 101.99L37.6602 102.97C31.5702 110.88 25.3402 117.39 19.9502 122.57L3.78021 123.34C14.0002 114.17 23.5202 103.25 29.0502 96.0397C24.9202 96.3897 14.6302 97.2297 7.49022 97.8597L10.2202 88.9697C18.6202 88.3397 39.9002 86.8697 48.7202 86.3797C47.1102 89.1797 45.5002 91.8397 43.8202 94.3597L52.0802 93.7297C52.9902 90.4397 53.8302 87.5697 54.5302 85.3297L68.5302 84.2097C65.1702 93.9397 59.0102 112.63 56.0002 122.5L43.9602 123.13ZM5.04022 137.48C9.38022 128.52 21.9802 122.57 36.3302 122.85C49.4202 123.13 56.7002 130.34 53.7602 137.9C49.5602 149.1 37.0302 154 21.7702 153.58C7.00022 153.23 0.980215 145.88 5.04022 137.48ZM17.1502 138.18C15.2602 141.68 18.5502 144.27 24.9902 144.2C32.1302 144.41 38.3602 142.03 40.3902 137.62C42.0002 133.98 39.2002 131.95 31.9902 131.95C24.9902 132.02 18.9702 134.75 17.1502 138.18ZM108.355 123.48C111.015 113.89 116.265 94.1497 118.925 85.3297L132.925 84.2097L127.605 100.1L135.445 99.1897L132.505 107.52L124.945 108.43C123.195 113.89 121.585 119 120.395 122.85L108.355 123.48ZM63.7647 125.16C74.6147 115.01 85.6047 96.5997 91.4847 86.2397L103.735 85.5397C101.495 90.2297 98.2747 96.3897 94.7047 102.55L101.565 101.08C102.265 107.73 104.715 114.38 108.075 120.05L94.2847 121.31C92.5347 117.95 91.3447 113.54 90.7847 109.13C86.9347 115.29 82.9447 120.82 79.5847 124.11L63.7647 125.16ZM69.4347 137.83C73.7047 129.08 86.3747 123.27 100.725 123.55C113.815 123.83 121.025 130.83 118.155 138.25C114.025 149.24 101.425 154 86.1647 153.58C71.3947 153.23 65.4447 146.09 69.4347 137.83ZM81.5447 138.53C79.7247 141.89 82.9447 144.27 89.3847 144.2C96.5247 144.41 102.825 142.17 104.785 137.97C106.325 134.54 103.595 132.65 96.3847 132.65C89.3847 132.72 83.2947 135.24 81.5447 138.53ZM135.825 127.26C138.835 118.44 142.265 107.73 144.925 99.9597C142.755 100.17 140.935 100.38 139.605 100.59L142.825 90.0197C152.905 89.4597 187.135 87.0797 196.165 86.5897L192.945 95.6897C188.395 95.9697 172.715 97.2997 159.135 98.5597C157.175 104.51 154.865 112.28 154.025 115.43C162.635 114.73 184.475 112.77 192.945 111.93L189.305 121.31C184.475 121.8 178.035 122.5 171.035 123.27L167.115 138.11C178.035 137.27 187.835 136.43 190.775 136.22L188.605 145.04C182.795 145.53 136.035 150.15 128.125 150.99L130.505 141.19C132.885 140.98 141.985 140.21 152.415 139.37C153.745 135.03 155.425 129.29 156.755 124.88C149.055 125.72 141.635 126.56 135.825 127.26ZM212.208 144.76C223.338 130.06 234.608 103.39 240.628 88.3397L252.528 87.6397C250.218 94.5697 246.858 103.74 243.078 112.77L250.358 111.23C251.058 120.68 253.298 130.27 256.448 138.67C260.088 120.89 264.708 101.57 269.468 85.1897L282.419 83.9997C279.618 93.5197 277.168 103.6 275.068 113.54C278.219 113.19 281.368 112.77 284.588 112.35L282.419 121.31C279.408 121.73 276.259 122.22 273.178 122.64C271.218 132.72 269.538 142.59 268.068 151.55L253.928 152.04C254.558 148.61 255.188 145.11 255.888 141.54L243.778 142.31C241.608 136.57 240.138 128.8 239.508 121.17C235.448 130.41 231.178 138.81 227.678 143.71L212.208 144.76ZM282.449 127.19C288.329 126.63 335.579 122.78 342.719 122.22L340.549 131.04C338.029 131.25 328.019 132.23 316.749 133.35L310.589 151.48L295.679 152.88C297.149 149.03 299.739 141.75 302.259 134.75C292.109 135.73 283.149 136.64 280.069 136.99L282.449 127.19ZM286.369 123.69C288.259 119.28 290.359 113.89 292.039 109.69C290.289 109.9 288.609 110.04 287.069 110.18L290.639 100.66C303.449 99.6097 330.539 97.2997 345.239 95.8297L341.949 105.21C333.269 106.05 319.059 107.24 306.039 108.43C305.269 110.18 304.569 111.93 304.219 112.77C312.829 112.07 335.019 110.11 343.489 109.27L339.849 118.65C326.689 119.91 301.139 122.36 286.369 123.69ZM290.149 97.9297L293.369 88.0597C303.659 87.4997 339.149 85.1197 348.459 84.6297L345.239 93.3797C337.679 93.8697 300.439 97.0897 290.149 97.9297ZM382.786 152.04C384.256 143.92 386.006 135.17 387.966 126.28C377.466 134.4 359.546 144.27 343.866 146.23C345.756 139.3 349.746 126.28 352.196 118.09C350.376 118.37 348.836 118.51 347.716 118.65L350.656 109.48C355.696 109.06 367.596 107.66 371.936 107.1C372.986 103.74 374.526 99.1197 375.576 95.4797C371.306 95.8297 360.246 96.7397 352.686 97.5097L355.416 89.2497L391.116 86.4497C389.226 93.4497 384.396 108.01 382.646 113.89C380.126 114.17 373.126 115.22 365.986 116.2C364.376 121.31 362.276 128.24 361.436 131.11C369.766 129.08 379.146 124.81 389.716 118.44C392.376 106.89 395.386 95.4797 398.326 85.1897L411.276 83.9997C404.766 106.19 400.216 131.25 396.926 151.55L382.786 152.04Z" fill="#FF0561"/>
</svg>
