<svg width="299" height="76" viewBox="0 0 299 76" fill="none" xmlns="http://www.w3.org/2000/svg">
<rect x="0.5" y="0.5" width="298" height="75" fill="#FF0561"/>
<rect x="0.5" y="0.5" width="298" height="75" stroke="black"/>
<path d="M14.74 27.84L13.88 26.94C18.6 24.64 21.24 20.64 21.74 16.12H14.98V15.04H23.2C22.92 21.06 19.46 25.46 14.74 27.84ZM28.26 31.64H26.94V13.86H28.26V20.8H31.26V21.94H28.26V31.64ZM47.4784 28.4C47.4784 30.44 45.0984 31.94 41.2184 31.94C37.2984 31.94 34.9384 30.44 34.9384 28.4C34.9384 26.38 37.2984 24.88 41.2184 24.88C45.0984 24.88 47.4784 26.38 47.4784 28.4ZM46.1384 28.4C46.1384 26.86 44.0584 25.96 41.2184 25.96C38.3584 25.96 36.2984 26.86 36.2984 28.4C36.2984 29.96 38.3584 30.86 41.2184 30.86C44.0584 30.86 46.1384 29.96 46.1384 28.4ZM43.8984 22.28L43.1184 23.24C40.8784 22.42 38.8784 20.78 38.0384 19.04C37.3184 20.98 35.2584 22.82 32.7984 23.84L31.9584 22.92C34.8384 21.88 37.2984 19.34 37.2984 16.32V15.84H32.9584V14.78H42.9384V15.84H38.7184V16.32C38.7184 19.22 41.2584 21.42 43.8984 22.28ZM47.0384 24.52H45.7184V13.86H47.0384V17.96H49.6584V19.06H47.0384V24.52ZM62.3969 26.58L61.5769 27.54C59.2969 26.24 57.0369 23.96 56.2769 21.76C55.5569 24.22 53.4569 26.52 50.8769 28.06L49.9769 27.18C52.9169 25.54 55.5169 22.48 55.5169 18.34V16.12H51.0369V15.04H61.2769V16.12H56.9369V18.34C56.9369 22.4 59.8369 25.26 62.3969 26.58ZM65.2769 31.64H63.9369V13.86H65.2769V20.74H68.2769V21.88H65.2769V31.64ZM84.0153 31.64H82.6753V13.86H84.0153V31.64ZM81.7353 25.56V26.66C79.4953 27.1 75.9953 27.32 73.2953 27.32H70.1353V20.5H77.3153V16.02H70.1353V14.94H78.6753V21.56H71.4553V26.22H73.2953C75.9953 26.22 79.3353 26.02 81.7353 25.56ZM93.9188 31.94H92.7388L99.8188 13.16H100.999L93.9188 31.94ZM125.218 28.98H107.738V27.9H119.818C120.818 24.4 121.398 19.66 121.558 16.26H109.878V15.18H122.958C122.778 19.64 122.178 24.36 121.198 27.9H125.218V28.98ZM146.541 31.64H145.221V13.86H146.541V20.3H149.541V21.44H146.541V31.64ZM132.461 21.1C132.461 16.84 134.401 14.34 137.001 14.34C139.601 14.34 141.561 16.84 141.561 21.1C141.561 25.38 139.601 27.88 137.001 27.88C134.401 27.88 132.461 25.38 132.461 21.1ZM140.221 21.1C140.221 17.44 138.861 15.42 137.001 15.42C135.141 15.42 133.801 17.44 133.801 21.1C133.801 24.78 135.141 26.8 137.001 26.8C138.861 26.8 140.221 24.78 140.221 21.1ZM165.92 31.64H164.58V13.86H165.92V31.64ZM151.28 21.1C151.28 16.84 153.24 14.34 155.84 14.34C158.46 14.34 160.4 16.84 160.4 21.1C160.4 25.38 158.46 27.88 155.84 27.88C153.24 27.88 151.28 25.38 151.28 21.1ZM159.06 21.1C159.06 17.44 157.72 15.42 155.84 15.42C153.98 15.42 152.62 17.44 152.62 21.1C152.62 24.78 153.98 26.8 155.84 26.8C157.72 26.8 159.06 24.78 159.06 21.1ZM23.04 58.8L23.24 59.8C22.22 60.12 20.98 60.24 19.8 60.24C15.98 60.24 14.16 57.68 14.14 54.34C14.1 51.24 15.98 48.6 19.2 48.62C22.5 48.62 23.98 50.76 23.98 53.94V54.66H15.42C15.5 57.16 16.92 59.26 19.84 59.24C20.86 59.24 22.02 59.12 23.04 58.8ZM15.38 53.68H22.72C22.72 53.64 22.76 53.46 22.72 53.42C22.7 51.04 21.38 49.62 19.2 49.62C16.72 49.62 15.54 51.6 15.38 53.68ZM28.5397 59.66C28.5397 60.3 28.0397 60.78 27.3997 60.78C26.7197 60.78 26.2197 60.3 26.2197 59.66C26.2197 59.06 26.7197 58.54 27.3997 58.54C28.0397 58.54 28.5397 59.06 28.5397 59.66ZM40.028 59.42V57.92H39.908C39.128 59.14 37.688 59.86 36.128 59.86C33.068 59.88 31.328 57.5 31.328 54.24C31.328 51 33.108 48.62 36.208 48.64C37.788 48.64 39.088 49.3 39.888 50.48H39.988V48.9H41.268V59.6C41.268 62.68 39.148 64.24 36.108 64.24C35.048 64.24 33.668 64.08 32.648 63.74L32.928 62.72C33.928 63.1 35.048 63.24 36.108 63.24C38.728 63.24 40.028 61.82 40.028 59.42ZM39.968 55.22V53.12C39.968 51.16 38.228 49.64 36.348 49.64C33.968 49.64 32.588 51.6 32.588 54.24C32.588 56.88 33.848 58.86 36.268 58.86C38.208 58.86 39.968 57.32 39.968 55.22ZM46.9186 59.66C46.9186 60.3 46.4186 60.78 45.7786 60.78C45.0986 60.78 44.5986 60.3 44.5986 59.66C44.5986 59.06 45.0986 58.54 45.7786 58.54C46.4186 58.54 46.9186 59.06 46.9186 59.66ZM55.9119 57.84L55.0519 56.94C59.7719 54.64 62.4119 50.64 62.9119 46.12H56.1519V45.04H64.3719C64.0919 51.06 60.6319 55.46 55.9119 57.84ZM69.4319 61.64H68.1119V43.86H69.4319V50.8H72.4319V51.94H69.4319V61.64ZM85.5103 60.8H84.2103V51.66H81.7903C81.6703 55.58 80.0103 57.86 77.7503 57.86C75.4103 57.86 73.7103 55.38 73.7103 51.16C73.7103 46.96 75.4103 44.48 77.7503 44.48C79.9903 44.48 81.6503 46.72 81.7903 50.54H84.2103V44.16H85.5103V60.8ZM77.7503 56.78C79.4303 56.78 80.5103 54.56 80.5103 51.16C80.5103 47.78 79.4303 45.56 77.7503 45.56C76.1103 45.56 75.0103 47.78 75.0103 51.16C75.0103 54.56 76.1103 56.78 77.7503 56.78ZM89.1303 61.64H87.7903V43.86H89.1303V61.64ZM114.414 60.82L113.554 61.74C112.014 60.94 110.434 59.4 109.894 57.94C109.394 59.34 107.934 60.9 106.514 61.66C105.114 60.9 103.654 59.34 103.154 57.94C102.634 59.4 101.034 60.94 99.4738 61.74L98.6338 60.82C100.494 59.94 102.474 57.92 102.474 55.76V54.8H103.814V55.76C103.814 57.6 105.294 59.48 106.514 60.26C107.734 59.48 109.234 57.6 109.234 55.76V54.8H110.574V55.76C110.574 57.92 112.534 59.94 114.414 60.82ZM98.1138 54.02L97.3738 53.06C101.774 51.94 105.074 49.08 105.654 45.86H98.4338V44.78H107.174C106.754 49.7 102.614 52.68 98.1138 54.02ZM112.134 53.9H110.814V43.86H112.134V48.14H114.854V49.26H112.134V53.9ZM130.252 61.64H128.932V43.86H130.252V50.2H133.252V51.34H130.252V61.64ZM128.072 55.16V56.24C125.832 56.7 122.332 56.92 119.652 56.92H116.892V45.04H125.472V46.12H118.212V55.82H119.652C122.332 55.82 125.672 55.6 128.072 55.16ZM146.771 56.12V57.16C144.911 57.56 142.651 57.68 140.011 57.68H134.031V56.6H139.871V52.08H135.411V44.58H136.751V51H145.431V52.08H141.191V56.6C143.251 56.56 145.191 56.42 146.771 56.12ZM148.871 61.64H147.531V43.86H148.871V51.08H151.711V52.22H148.871V61.64ZM167.049 61.64H165.729V43.86H167.049V50.6H170.049V51.74H167.049V61.64ZM164.869 55.56V56.66C162.629 57.1 159.129 57.32 156.449 57.32H153.469V50.5H160.669V46.02H153.469V44.94H162.009V51.56H154.829V56.22H156.449C159.129 56.22 162.469 56.02 164.869 55.56ZM174.048 59.66C174.048 60.3 173.548 60.78 172.908 60.78C172.228 60.78 171.728 60.3 171.728 59.66C171.728 59.06 172.228 58.54 172.908 58.54C173.548 58.54 174.048 59.06 174.048 59.66ZM183.001 61.94H181.821L188.901 43.16H190.081L183.001 61.94ZM198.08 57.84L197.22 56.94C201.94 54.64 204.58 50.64 205.08 46.12H198.32V45.04H206.54C206.26 51.06 202.8 55.46 198.08 57.84ZM211.6 61.64H210.28V43.86H211.6V50.8H214.6V51.94H211.6V61.64ZM216.478 57.84L215.618 56.94C220.338 54.64 222.978 50.64 223.478 46.12H216.718V45.04H224.938C224.658 51.06 221.198 55.46 216.478 57.84ZM229.998 61.64H228.678V43.86H229.998V50.8H232.998V51.94H229.998V61.64ZM240.502 57.84L239.642 56.94C244.362 54.64 247.002 50.64 247.502 46.12H240.742V45.04H248.962C248.682 51.06 245.222 55.46 240.502 57.84ZM254.022 61.64H252.702V43.86H254.022V50.8H257.022V51.94H254.022V61.64ZM258.9 57.84L258.04 56.94C262.76 54.64 265.4 50.64 265.9 46.12H259.14V45.04H267.36C267.08 51.06 263.62 55.46 258.9 57.84ZM272.42 61.64H271.1V43.86H272.42V50.8H275.42V51.94H272.42V61.64ZM280.599 56.6H279.439V55.74C279.439 53.92 279.879 52.84 281.659 51.38C282.799 50.44 283.579 49.22 283.579 48.08C283.579 46.2 282.019 45.4 280.359 45.4C279.379 45.4 277.899 45.8 276.859 46.42L276.379 45.52C277.459 44.88 279.099 44.38 280.459 44.38C282.719 44.38 284.859 45.44 284.859 48.04C284.859 49.5 284.099 50.74 282.739 51.88C280.999 53.38 280.599 54.1 280.599 55.82V56.6ZM281.159 59.84C281.159 60.46 280.659 60.94 280.039 60.94C279.359 60.94 278.879 60.46 278.879 59.84C278.879 59.26 279.359 58.74 280.039 58.74C280.659 58.74 281.159 59.26 281.159 59.84Z" fill="white"/>
</svg>
