<svg width="388" height="46" viewBox="0 0 388 46" fill="none" xmlns="http://www.w3.org/2000/svg">
<rect x="0.5" y="0.5" width="387" height="45" fill="#FF0561"/>
<rect x="0.5" y="0.5" width="387" height="45" stroke="black"/>
<path d="M23.04 28.8L23.24 29.8C22.22 30.12 20.98 30.24 19.8 30.24C15.98 30.24 14.16 27.68 14.14 24.34C14.1 21.24 15.98 18.6 19.2 18.62C22.5 18.62 23.98 20.76 23.98 23.94V24.66H15.42C15.5 27.16 16.92 29.26 19.84 29.24C20.86 29.24 22.02 29.12 23.04 28.8ZM15.38 23.68H22.72C22.72 23.64 22.76 23.46 22.72 23.42C22.7 21.04 21.38 19.62 19.2 19.62C16.72 19.62 15.54 21.6 15.38 23.68ZM28.5397 29.66C28.5397 30.3 28.0397 30.78 27.3997 30.78C26.7197 30.78 26.2197 30.3 26.2197 29.66C26.2197 29.06 26.7197 28.54 27.3997 28.54C28.0397 28.54 28.5397 29.06 28.5397 29.66ZM40.028 29.42V27.92H39.908C39.128 29.14 37.688 29.86 36.128 29.86C33.068 29.88 31.328 27.5 31.328 24.24C31.328 21 33.108 18.62 36.208 18.64C37.788 18.64 39.088 19.3 39.888 20.48H39.988V18.9H41.268V29.6C41.268 32.68 39.148 34.24 36.108 34.24C35.048 34.24 33.668 34.08 32.648 33.74L32.928 32.72C33.928 33.1 35.048 33.24 36.108 33.24C38.728 33.24 40.028 31.82 40.028 29.42ZM39.968 25.22V23.12C39.968 21.16 38.228 19.64 36.348 19.64C33.968 19.64 32.588 21.6 32.588 24.24C32.588 26.88 33.848 28.86 36.268 28.86C38.208 28.86 39.968 27.32 39.968 25.22ZM46.9186 29.66C46.9186 30.3 46.4186 30.78 45.7786 30.78C45.0986 30.78 44.5986 30.3 44.5986 29.66C44.5986 29.06 45.0986 28.54 45.7786 28.54C46.4186 28.54 46.9186 29.06 46.9186 29.66ZM70.0719 31.44H57.0919V27.32H68.2919V25.4H57.0919V24.34H69.6319V28.32H58.4319V30.38H70.0719V31.44ZM71.0119 19.16L70.3119 20.12C67.4719 19.8 64.5719 18.52 63.3919 16.76C62.2519 18.52 59.3119 19.8 56.5119 20.12L55.8319 19.16C58.7719 18.82 62.1119 17.44 62.6319 15.48H56.9119V14.44H69.8719V15.48H64.1719C64.7119 17.44 68.0719 18.82 71.0119 19.16ZM72.1119 22.58H54.6719V21.52H62.7319V19.14H64.0919V21.52H72.1119V22.58ZM89.2103 31.36H76.6503V26H77.9903V30.28H89.2103V31.36ZM86.2703 22.5V23.52C84.2303 23.98 80.9303 24.22 78.1303 24.22H74.4503V18.84H81.6303V15.66H74.4503V14.62H82.9703V19.86H75.7703V23.16H78.1303C80.8503 23.16 84.0903 22.92 86.2703 22.5ZM88.5503 27.2H87.2303V13.86H88.5503V27.2ZM106.229 31.64H104.909V13.86H106.229V20.2H109.229V21.34H106.229V31.64ZM104.049 25.16V26.24C101.809 26.7 98.3088 26.92 95.6288 26.92H92.8688V15.04H101.449V16.12H94.1888V25.82H95.6288C98.3088 25.82 101.649 25.6 104.049 25.16ZM127.327 29.18H109.847V28.1H116.407V21.24H117.807V28.1H127.327V29.18ZM123.747 25.44H122.367C123.107 22.52 123.567 19.02 123.647 16.26H111.987V15.18H125.067C124.967 18.72 124.427 22.46 123.747 25.44ZM132.806 26.6H131.646V25.74C131.646 23.92 132.086 22.84 133.866 21.38C135.006 20.44 135.786 19.22 135.786 18.08C135.786 16.2 134.226 15.4 132.566 15.4C131.586 15.4 130.106 15.8 129.066 16.42L128.586 15.52C129.666 14.88 131.306 14.38 132.666 14.38C134.926 14.38 137.066 15.44 137.066 18.04C137.066 19.5 136.306 20.74 134.946 21.88C133.206 23.38 132.806 24.1 132.806 25.82V26.6ZM133.366 29.84C133.366 30.46 132.866 30.94 132.246 30.94C131.566 30.94 131.086 30.46 131.086 29.84C131.086 29.26 131.566 28.74 132.246 28.74C132.866 28.74 133.366 29.26 133.366 29.84ZM153.754 26.92H145.214V15.04H153.754V26.92ZM152.394 25.84V16.12H146.534V25.84H152.394ZM159.074 31.64H157.734V13.86H159.074V31.64ZM174.312 23.22L173.572 24.2C171.372 23.48 169.292 21.88 168.512 20.16C167.852 21.92 165.692 23.8 163.232 24.78L162.432 23.86C165.252 22.92 167.772 20.42 167.772 18.08V17.72H163.452V16.64H173.412V17.72H169.192V18.08C169.192 20.26 171.672 22.52 174.312 23.22ZM178.512 31.36H165.952V26H167.292V30.28H178.512V31.36ZM177.852 27.2H176.512V13.86H177.852V27.2ZM171.232 15H165.632V13.94H171.232V15ZM195.871 31.64H194.531V21.68H190.431V20.56H194.531V13.86H195.871V31.64ZM182.011 27.84L181.131 26.94C185.851 24.64 188.491 20.64 188.991 16.12H182.231V15.04H190.451C190.191 21.06 186.711 25.46 182.011 27.84ZM219.334 31.64H218.014V13.86H219.334V20.3H222.334V21.44H219.334V31.64ZM205.254 21.1C205.254 16.84 207.194 14.34 209.794 14.34C212.394 14.34 214.354 16.84 214.354 21.1C214.354 25.38 212.394 27.88 209.794 27.88C207.194 27.88 205.254 25.38 205.254 21.1ZM213.014 21.1C213.014 17.44 211.654 15.42 209.794 15.42C207.934 15.42 206.594 17.44 206.594 21.1C206.594 24.78 207.934 26.8 209.794 26.8C211.654 26.8 213.014 24.78 213.014 21.1ZM238.713 31.64H237.373V13.86H238.713V31.64ZM224.073 21.1C224.073 16.84 226.033 14.34 228.633 14.34C231.253 14.34 233.193 16.84 233.193 21.1C233.193 25.38 231.253 27.88 228.633 27.88C226.033 27.88 224.073 25.38 224.073 21.1ZM231.853 21.1C231.853 17.44 230.513 15.42 228.633 15.42C226.773 15.42 225.413 17.44 225.413 21.1C225.413 24.78 226.773 26.8 228.633 26.8C230.513 26.8 231.853 24.78 231.853 21.1ZM242.611 27.84L241.751 26.94C246.471 24.64 249.111 20.64 249.611 16.12H242.851V15.04H251.071C250.791 21.06 247.331 25.46 242.611 27.84ZM256.131 31.64H254.811V13.86H256.131V20.8H259.131V21.94H256.131V31.64ZM262.99 26.52H261.99L261.73 14.34H263.25L262.99 26.52ZM263.63 29.84C263.63 30.46 263.15 30.94 262.51 30.94C261.83 30.94 261.35 30.46 261.35 29.84C261.35 29.26 261.83 28.74 262.51 28.74C263.15 28.74 263.63 29.26 263.63 29.84ZM286.94 31.44H275.28V24.92H286.94V31.44ZM285.62 30.36V25.98H276.62V30.36H285.62ZM283.84 22.1L283.06 23.08C280.82 22.26 278.82 20.62 277.98 18.88C277.26 20.82 275.2 22.66 272.74 23.66L271.9 22.76C274.78 21.72 277.24 19.16 277.24 16.16V15.84H272.9V14.78H282.88V15.84H278.66V16.16C278.66 19.06 281.2 21.26 283.84 22.1ZM286.98 23.96H285.66V13.86H286.98V17.96H289.6V19.06H286.98V23.96ZM307.698 29.18H290.218V28.1H298.258V23.92C294.758 23.7 292.398 21.7 292.398 19.08C292.398 16.32 295.058 14.22 298.938 14.22C302.838 14.22 305.518 16.32 305.518 19.08C305.518 21.7 303.138 23.7 299.638 23.92V28.1H307.698V29.18ZM304.178 19.08C304.178 16.82 301.898 15.3 298.938 15.3C295.998 15.3 293.718 16.82 293.718 19.08C293.718 21.36 295.998 22.86 298.938 22.86C301.898 22.86 304.178 21.36 304.178 19.08ZM326.077 24.04H308.637V22.96H326.077V24.04ZM324.057 20.26H311.077V13.92H312.417V19.18H324.057V20.26ZM324.397 31.36H311.097V25.8H312.437V30.26H324.397V31.36ZM347.98 31.64H346.64V21.68H342.54V20.56H346.64V13.86H347.98V31.64ZM334.12 27.84L333.24 26.94C337.96 24.64 340.6 20.64 341.1 16.12H334.34V15.04H342.56C342.3 21.06 338.82 25.46 334.12 27.84ZM363.379 26.58L362.559 27.54C360.279 26.24 357.999 23.96 357.239 21.76C356.539 24.22 354.439 26.52 351.859 28.06L350.959 27.18C353.879 25.54 356.479 22.48 356.479 18.34V16.12H351.999V15.04H362.259V16.12H357.899V18.34C357.899 22.4 360.819 25.26 363.379 26.58ZM366.799 31.64H365.459V13.86H366.799V31.64ZM372.817 29.66C372.817 30.3 372.317 30.78 371.677 30.78C370.997 30.78 370.497 30.3 370.497 29.66C370.497 29.06 370.997 28.54 371.677 28.54C372.317 28.54 372.817 29.06 372.817 29.66Z" fill="white"/>
</svg>
