<svg width="292" height="76" viewBox="0 0 292 76" fill="none" xmlns="http://www.w3.org/2000/svg">
<rect x="0.5" y="0.5" width="291" height="75" fill="#FF0561"/>
<rect x="0.5" y="0.5" width="291" height="75" stroke="black"/>
<path d="M29.18 31.44H17.3V25.66H29.18V31.44ZM27.84 30.4V26.7H18.64V30.4H27.84ZM25.1 17.42H14.16V16.38H25.1V17.42ZM22.46 14.98H16.76V13.94H22.46V14.98ZM19.66 24.18C16.9 24.18 15.12 22.88 15.12 21.28C15.12 19.68 16.9 18.38 19.66 18.38C22.4 18.38 24.2 19.68 24.2 21.28C24.2 22.88 22.4 24.18 19.66 24.18ZM19.66 19.4C17.64 19.4 16.46 20.2 16.46 21.28C16.46 22.38 17.64 23.18 19.66 23.18C21.68 23.18 22.86 22.36 22.86 21.28C22.86 20.2 21.68 19.4 19.66 19.4ZM29.2 24.7H27.86V13.86H29.2V24.7ZM47.2784 19.7H34.3384V14.44H46.9384V15.48H35.6784V18.64H47.2784V19.7ZM47.2984 31.44H34.3184V27.36H45.5184V25.48H34.3184V24.44H46.8584V28.38H35.6584V30.38H47.2984V31.44ZM49.3384 22.52H31.8984V21.46H49.3384V22.52ZM65.0569 31.64H63.7369V13.86H65.0569V20.2H68.0569V21.34H65.0569V31.64ZM62.8769 25.16V26.24C60.6369 26.7 57.1369 26.92 54.4569 26.92H51.6969V15.04H60.2769V16.12H53.0169V25.82H54.4569C57.1369 25.82 60.4769 25.6 62.8769 25.16ZM23.04 58.8L23.24 59.8C22.22 60.12 20.98 60.24 19.8 60.24C15.98 60.24 14.16 57.68 14.14 54.34C14.1 51.24 15.98 48.6 19.2 48.62C22.5 48.62 23.98 50.76 23.98 53.94V54.66H15.42C15.5 57.16 16.92 59.26 19.84 59.24C20.86 59.24 22.02 59.12 23.04 58.8ZM15.38 53.68H22.72C22.72 53.64 22.76 53.46 22.72 53.42C22.7 51.04 21.38 49.62 19.2 49.62C16.72 49.62 15.54 51.6 15.38 53.68ZM28.5397 59.66C28.5397 60.3 28.0397 60.78 27.3997 60.78C26.7197 60.78 26.2197 60.3 26.2197 59.66C26.2197 59.06 26.7197 58.54 27.3997 58.54C28.0397 58.54 28.5397 59.06 28.5397 59.66ZM40.028 59.42V57.92H39.908C39.128 59.14 37.688 59.86 36.128 59.86C33.068 59.88 31.328 57.5 31.328 54.24C31.328 51 33.108 48.62 36.208 48.64C37.788 48.64 39.088 49.3 39.888 50.48H39.988V48.9H41.268V59.6C41.268 62.68 39.148 64.24 36.108 64.24C35.048 64.24 33.668 64.08 32.648 63.74L32.928 62.72C33.928 63.1 35.048 63.24 36.108 63.24C38.728 63.24 40.028 61.82 40.028 59.42ZM39.968 55.22V53.12C39.968 51.16 38.228 49.64 36.348 49.64C33.968 49.64 32.588 51.6 32.588 54.24C32.588 56.88 33.848 58.86 36.268 58.86C38.208 58.86 39.968 57.32 39.968 55.22ZM46.9186 59.66C46.9186 60.3 46.4186 60.78 45.7786 60.78C45.0986 60.78 44.5986 60.3 44.5986 59.66C44.5986 59.06 45.0986 58.54 45.7786 58.54C46.4186 58.54 46.9186 59.06 46.9186 59.66ZM55.6919 54.84L54.9319 53.86C59.4719 52.5 62.6319 49.28 63.2119 45.86H56.0119V44.78H64.7519C64.3319 49.82 60.3719 53.24 55.6919 54.84ZM70.4519 61.36H58.0719V55.44H59.4119V60.28H70.4519V61.36ZM69.7119 57.04H68.3919V43.86H69.7119V48.94H72.4319V50.06H69.7119V57.04ZM82.7703 52.98H74.3303V44.78H82.7703V52.98ZM81.4303 51.9V45.84H75.6703V51.9H81.4303ZM88.1103 57.04H86.7903V43.86H88.1103V48.34H90.8303V49.46H88.1103V57.04ZM88.8503 61.36H76.4703V55.44H77.8103V60.28H88.8503V61.36ZM103.909 60.8H102.609V51.66H100.189C100.069 55.58 98.4088 57.86 96.1488 57.86C93.8088 57.86 92.1088 55.38 92.1088 51.16C92.1088 46.96 93.8088 44.48 96.1488 44.48C98.3888 44.48 100.049 46.72 100.189 50.54H102.609V44.16H103.909V60.8ZM96.1488 56.78C97.8288 56.78 98.9088 54.56 98.9088 51.16C98.9088 47.78 97.8288 45.56 96.1488 45.56C94.5088 45.56 93.4088 47.78 93.4088 51.16C93.4088 54.56 94.5088 56.78 96.1488 56.78ZM107.529 61.64H106.189V43.86H107.529V61.64ZM124.172 51.04C120.112 51.04 117.652 49.5 117.652 47.4C117.652 45.3 120.112 43.76 124.172 43.76C128.232 43.76 130.752 45.3 130.752 47.4C130.752 49.5 128.232 51.04 124.172 51.04ZM124.172 44.82C121.212 44.82 118.972 45.74 118.972 47.4C118.972 49.06 121.212 49.98 124.172 49.98C127.152 49.98 129.412 49.06 129.412 47.4C129.412 45.74 127.152 44.82 124.172 44.82ZM132.932 54.12H125.092V58.18H123.732V54.12H115.492V53.04H132.932V54.12ZM131.252 61.36H117.952V56.04H119.292V60.26H131.252V61.36ZM142.591 61.94C138.351 61.94 135.931 60.54 135.931 58.58C135.931 56.64 138.351 55.24 142.591 55.24C146.851 55.24 149.251 56.64 149.251 58.58C149.251 60.54 146.851 61.94 142.591 61.94ZM142.591 56.28C139.271 56.28 137.271 57.2 137.271 58.58C137.271 59.98 139.271 60.9 142.591 60.9C145.911 60.9 147.911 59.98 147.911 58.58C147.911 57.2 145.911 56.28 142.591 56.28ZM151.331 53.78H133.891V52.7H142.031V50.3H136.331V44.44H148.931V45.52H137.671V49.22H149.271V50.3H143.391V52.7H151.331V53.78ZM168.349 54.66H167.009V50.06H164.409V54.66H163.109V44.16H164.409V48.92H167.009V43.86H168.349V54.66ZM169.909 60.82L169.069 61.74C167.509 60.94 165.909 59.46 165.389 57.98C164.849 59.4 163.429 60.94 162.029 61.66C160.609 60.94 159.189 59.4 158.649 57.98C158.149 59.46 156.549 60.94 154.969 61.74L154.129 60.82C156.029 59.96 157.969 57.98 157.969 55.96V55.48H159.309V55.96C159.309 57.64 160.789 59.54 162.029 60.3C163.249 59.54 164.729 57.64 164.729 55.96V55.48H166.069V55.96C166.069 57.98 168.029 59.96 169.909 60.82ZM161.789 47.56H152.709V46.52H161.789V47.56ZM159.629 45.26H154.869V44.22H159.629V45.26ZM157.269 54.3C154.949 54.3 153.389 53 153.389 51.38C153.389 49.76 154.949 48.46 157.269 48.46C159.629 48.46 161.189 49.76 161.189 51.38C161.189 53 159.629 54.3 157.269 54.3ZM157.269 49.46C155.649 49.46 154.689 50.3 154.689 51.38C154.689 52.44 155.649 53.28 157.269 53.28C158.929 53.28 159.869 52.44 159.869 51.38C159.869 50.3 158.929 49.46 157.269 49.46ZM186.108 53.52H173.127V44.98H185.908V46.06H174.468V52.44H186.108V53.52ZM188.148 59.04H170.668V57.96H188.148V59.04ZM198.786 52.98H190.346V44.78H198.786V52.98ZM197.446 51.9V45.84H191.686V51.9H197.446ZM204.126 57.04H202.806V43.86H204.126V48.34H206.846V49.46H204.126V57.04ZM204.866 61.36H192.486V55.44H193.826V60.28H204.866V61.36ZM228.809 54.74H227.469V51.28H222.669C221.829 52.36 220.469 53.04 218.789 53.04C215.909 53.04 213.969 51.08 213.969 48.62C213.969 46.16 215.909 44.18 218.789 44.18C220.489 44.18 221.849 44.9 222.709 45.98H227.469V43.86H228.809V54.74ZM229.149 58.42C229.149 60.44 226.689 61.94 222.649 61.94C218.649 61.94 216.189 60.44 216.189 58.42C216.189 56.38 218.649 54.88 222.649 54.88C226.689 54.88 229.149 56.38 229.149 58.42ZM227.789 58.42C227.789 56.86 225.609 55.96 222.649 55.96C219.709 55.96 217.549 56.86 217.549 58.42C217.549 59.96 219.709 60.86 222.649 60.86C225.609 60.86 227.789 59.96 227.789 58.42ZM222.249 48.62C222.249 46.74 220.969 45.26 218.789 45.26C216.589 45.26 215.329 46.74 215.329 48.62C215.329 50.48 216.589 51.96 218.789 51.96C220.969 51.96 222.249 50.48 222.249 48.62ZM227.469 50.2V47.06H223.309C223.509 47.56 223.589 48.08 223.589 48.62C223.589 49.18 223.509 49.72 223.309 50.2H227.469ZM252.773 61.64H251.453V51.34H248.693V60.8H247.393V44.16H248.693V50.16H251.453V43.86H252.773V61.64ZM246.473 55.54V56.62C244.813 56.88 242.373 57.04 240.633 57.04H238.653V45.2H245.273V46.28H239.933V55.94H240.633C242.373 55.94 244.793 55.8 246.473 55.54ZM270.291 61.64H268.971V43.86H270.291V50.2H273.291V51.34H270.291V61.64ZM268.111 55.16V56.24C265.871 56.7 262.371 56.92 259.691 56.92H256.931V45.04H265.511V46.12H258.251V55.82H259.691C262.371 55.82 265.711 55.6 268.111 55.16ZM277.29 59.66C277.29 60.3 276.79 60.78 276.15 60.78C275.47 60.78 274.97 60.3 274.97 59.66C274.97 59.06 275.47 58.54 276.15 58.54C276.79 58.54 277.29 59.06 277.29 59.66Z" fill="white"/>
</svg>
