<svg width="93" height="110" viewBox="0 0 93 110" fill="none" xmlns="http://www.w3.org/2000/svg">
<rect x="0.428711" y="0.428711" width="91.4694" height="108.62" fill="#FF0561"/>
<rect x="0.428711" y="0.428711" width="91.4694" height="108.62" stroke="black" stroke-width="0.857525"/>
<path d="M40.2307 82.1342C40.7195 79.473 41.3169 76.7032 41.86 73.9334L33.4419 74.5852C33.279 70.7291 33.3876 65.5697 33.6049 60.4646C30.998 66.7102 28.3368 72.3041 26.1101 75.6714L15.1938 76.486C23.1773 65.0809 31.2695 44.3888 35.6143 32.7122L43.7608 32.1691C42.0229 37.8173 39.4703 45.3664 36.6462 52.6982L41.2626 51.5577C41.4255 58.8353 41.7513 66.2757 42.1858 72.63C45.1729 58.618 49.0832 43.194 53.1021 30.2682L62.3348 29.345C60.1081 36.2966 58.153 43.6285 56.415 50.906C57.8271 50.6345 59.2935 50.4172 60.7055 50.1457C62.3891 43.2483 64.127 36.4596 65.865 30.2682L75.0977 29.345C70.0468 46.5612 66.5167 66.0042 63.9641 81.7541L54.0797 82.1342C55.4375 74.3136 57.1754 65.7326 59.1305 57.1517C57.6642 57.4232 56.2521 57.6948 54.7857 57.912C52.9935 66.2757 51.4185 74.4222 50.1151 81.7541L40.2307 82.1342Z" fill="white"/>
</svg>
