<svg width="93" height="110" viewBox="0 0 93 110" fill="none" xmlns="http://www.w3.org/2000/svg">
<rect x="0.428711" y="0.428711" width="91.4694" height="108.62" fill="#FF0561"/>
<rect x="0.428711" y="0.428711" width="91.4694" height="108.62" stroke="black" stroke-width="0.857525"/>
<path d="M23.8312 66.7102C25.2432 62.474 26.8725 57.3689 28.176 53.35C26.7096 53.4586 25.4062 53.5672 24.4286 53.6215L26.7096 46.2354C33.7156 45.6379 50.8232 44.2802 56.8516 43.6828C57.3947 42.3793 58.1551 40.3156 58.6982 38.9578C52.9413 39.338 38.3319 40.6414 28.176 41.4018L30.2941 33.6354C39.4181 32.9837 62.4999 31.463 72.1127 30.9199C70.7007 35.8078 67.2791 46.0724 65.9214 50.1457C62.1197 50.4715 49.8456 51.5577 39.2552 52.4267C38.7121 54.4362 38.169 56.5542 37.9518 57.5318C44.6319 56.9887 61.5766 55.468 68.1481 54.8163L65.324 62.637L50.5517 64.049C49.9 66.493 49.1939 69.2085 48.6508 71.3809C57.3404 70.6748 65.2154 70.0231 67.5507 69.8602L65.8671 76.7032C61.3594 77.0834 25.0803 80.6679 18.9433 81.3196L20.7898 73.7162C22.5821 73.5533 29.3708 72.9559 37.2457 72.3041C37.9518 70.1317 38.7121 67.4162 39.4181 65.1352C33.7156 65.7326 28.2303 66.2757 23.8312 66.7102Z" fill="white"/>
</svg>
