<svg width="93" height="110" viewBox="0 0 93 110" fill="none" xmlns="http://www.w3.org/2000/svg">
<rect x="0.428711" y="0.428711" width="91.4694" height="108.62" fill="#FF0561"/>
<rect x="0.428711" y="0.428711" width="91.4694" height="108.62" stroke="black" stroke-width="0.857525"/>
<path d="M24.0484 56.6086C28.6105 56.337 65.2697 54.5991 70.8093 54.3275L68.5826 61.1163L53.2672 61.9852C52.0724 65.4068 50.4974 70.1317 49.9543 71.8153L38.6578 72.4671C39.4724 70.4576 41.1017 65.7869 42.2966 62.5827L21.3872 63.8318L24.0484 56.6086ZM24.8631 67.3619L35.2363 65.7869C36.6483 76.2688 43.6 77.5179 49.9 77.5179C55.168 77.5179 62.3369 76.9205 66.8447 75.2912L61.7395 81.6454C58.5352 82.8946 53.7017 83.3291 48.2164 83.3291C37.7888 83.3291 26.8725 80.5592 24.8631 67.3619ZM29.4794 41.4018C31.5975 35.482 39.8526 30.3225 51.9094 29.9424C65.0524 29.5622 71.5696 33.907 69.8317 40.8044C67.9309 48.3534 58.0465 53.35 44.7405 53.7301C32.2492 54.1103 26.7096 49.1681 29.4794 41.4018ZM38.2776 42.2164C37.4087 45.2578 40.3414 47.05 46.8043 46.7785C52.6155 46.5612 58.9697 44.8776 59.9473 41.0216C60.7076 37.9802 57.1775 36.5139 50.3344 36.8397C44.6862 37.057 39.3638 38.7406 38.2776 42.2164Z" fill="white"/>
</svg>
