<svg width="93" height="110" viewBox="0 0 93 110" fill="none" xmlns="http://www.w3.org/2000/svg">
<rect x="0.428711" y="0.428711" width="91.4694" height="108.62" fill="#FF0561"/>
<rect x="0.428711" y="0.428711" width="91.4694" height="108.62" stroke="black" stroke-width="0.857525"/>
<path d="M51.8678 68.1223C53.0084 63.7775 54.7463 57.3689 56.5385 50.8517L51.7592 51.3948C48.2834 57.1517 42.0921 60.6275 34.6516 61.1163C25.7448 61.7137 20.9112 55.8482 23.1922 46.8328C25.4189 38.2518 33.0223 31.5174 42.1464 31.3544C50.2929 31.2458 55.9954 36.4053 54.2032 44.8776L58.3307 44.4431C59.8514 38.9035 61.3178 33.7984 62.3497 30.3769L73.2117 29.5079C70.2246 39.2837 63.9247 58.0206 61.4264 67.905L51.8678 68.1223ZM25.962 65.7326L36.3352 64.1576C37.7473 76.5946 44.6989 78.061 50.9989 78.061C56.267 78.061 63.4359 77.4636 67.9436 75.8343L62.8385 81.6454C59.6342 82.8946 54.8006 83.3291 49.3153 83.3291C38.8878 83.3291 27.9715 80.2877 25.962 65.7326ZM32.2076 46.3983C30.8499 51.4491 33.2938 53.8931 36.2266 53.7301C40.1912 53.4586 42.961 50.3086 44.0472 45.8009C45.242 40.8044 43.2869 38.469 39.974 38.5777C35.9007 38.6863 33.2938 42.5966 32.2076 46.3983Z" fill="white"/>
</svg>
