<svg width="93" height="110" viewBox="0 0 93 110" fill="none" xmlns="http://www.w3.org/2000/svg">
<rect x="0.428711" y="0.428711" width="91.4694" height="108.62" fill="#FF0561"/>
<rect x="0.428711" y="0.428711" width="91.4694" height="108.62" stroke="black" stroke-width="0.857525"/>
<path d="M51.3791 82.1342C52.7911 74.0964 54.6377 65.1895 56.7014 56.337C55.1808 56.4999 53.6601 56.7172 51.9765 56.9344C48.6092 67.2533 42.1464 72.5757 33.4568 72.5757C23.7353 72.5757 19.9336 62.5283 23.8982 49.9827C26.7223 40.913 32.5878 33.4725 42.3093 33.4725C49.9127 33.4725 54.5833 39.9897 53.5515 49.8198C55.1808 49.6569 56.7557 49.494 58.385 49.2767C60.0143 42.7052 61.698 36.2423 63.4359 30.2682L73.4832 29.345C68.4324 46.5612 64.9022 66.0042 62.3497 81.7541L51.3791 82.1342ZM32.7507 51.775C30.3611 60.4646 32.0447 65.4068 34.8688 65.4068C37.8016 65.4068 41.2774 61.6594 43.3955 53.2956C45.2963 45.8009 43.4498 40.5328 40.8429 40.5328C37.8559 40.5328 34.5973 44.9862 32.7507 51.775Z" fill="white"/>
</svg>
