<svg width="93" height="110" viewBox="0 0 93 110" fill="none" xmlns="http://www.w3.org/2000/svg">
<rect x="0.428711" y="0.428711" width="91.4694" height="108.62" fill="#FF0561"/>
<rect x="0.428711" y="0.428711" width="91.4694" height="108.62" stroke="black" stroke-width="0.857525"/>
<path d="M42.4031 82.1342C43.272 77.6808 44.2496 72.9559 45.2815 68.1766C37.6781 71.055 28.3368 73.8791 17.2576 76.2688L19.3213 67.6335C20.6248 67.4162 21.8739 67.2533 23.123 67.0361C24.2635 60.1387 26.5446 46.344 27.3592 42.2164L35.7773 41.5104C34.9083 45.8552 32.7359 58.618 31.5954 65.5697L34.0393 65.0809C35.6143 57.1517 37.5695 46.8328 38.6557 41.1845L47.3996 41.5104C45.4987 49.3853 43.435 57.6404 42.0229 63.2887C43.5979 62.9085 45.1186 62.5283 46.6936 62.0939C49.2461 51.1776 52.2332 40.044 55.2745 30.2682L63.9641 29.345C61.7374 36.2966 59.7823 43.6285 58.0443 50.906L61.1943 50.3629C62.8779 43.3569 64.6158 36.5139 66.4081 30.2682L75.0977 29.345C70.0468 46.5612 66.5167 66.0042 63.9641 81.7541L54.6228 82.1342C55.9806 74.3679 57.6642 65.8956 59.6193 57.3689C58.5331 57.5318 57.5012 57.7491 56.415 57.912C54.6228 66.2757 53.0478 74.4222 51.7444 81.7541L42.4031 82.1342ZM22.3084 41.3475L24.0463 34.2329C30.8894 33.7441 45.4444 32.9837 52.722 32.4406L50.984 38.9578C43.7065 39.5552 29.0971 40.6957 22.3084 41.3475Z" fill="white"/>
</svg>
