<svg width="93" height="110" viewBox="0 0 93 110" fill="none" xmlns="http://www.w3.org/2000/svg">
<rect x="0.428711" y="0.428711" width="91.4694" height="108.62" fill="#FF0561"/>
<rect x="0.428711" y="0.428711" width="91.4694" height="108.62" stroke="black" stroke-width="0.857525"/>
<path d="M51.8678 68.1223C53.1713 63.1801 55.2351 55.5767 57.2988 48.1362L49.3696 49.0595L51.542 42.5966L59.0911 41.7276C60.3402 37.2742 61.4807 33.2553 62.3497 30.3769L73.2117 29.5079C70.2246 39.2837 63.9247 58.0206 61.4264 67.905L51.8678 68.1223ZM21.9974 66.2214C23.7896 60.5189 26.4508 52.2638 28.0801 47.6474L22.5405 48.2991L24.7672 41.7276C30.0896 41.1845 48.6092 39.5009 51.4334 39.1751L49.3696 45.3121C45.5679 45.7466 41.7662 46.181 37.9645 46.5612C36.9869 49.6569 35.4119 54.5991 34.7059 56.9344C39.6481 56.0655 47.1429 54.2189 54.8549 50.7974L54.4204 55.0879C47.4144 59.3241 36.0093 63.0714 21.9974 66.2214ZM25.4189 67.5792L35.7921 64.918C37.2042 76.5946 44.1558 78.061 49.9127 78.061C55.1808 78.061 62.3497 77.4636 66.8574 75.8343L61.7523 81.6454C58.548 82.8946 53.7144 83.3291 48.2291 83.3291C38.3447 83.3291 27.4284 80.5049 25.4189 67.5792ZM26.3965 39.0664L28.6232 32.4949C35.0318 32.0605 51.4877 31.0286 56.0497 30.757L53.9859 36.894C49.967 37.2199 31.8818 38.7406 26.3965 39.0664Z" fill="white"/>
</svg>
