<svg width="577" height="45" viewBox="0 0 577 45" fill="none" xmlns="http://www.w3.org/2000/svg">
<rect x="0.5" y="0.5" width="576" height="44" fill="white"/>
<rect x="0.5" y="0.5" width="576" height="44" stroke="black"/>
<path d="M27.675 15.325C27.675 17.95 25.275 20.2 21.675 20.2C18.05 20.2 15.625 17.95 15.625 15.325C15.625 12.725 18.05 10.475 21.675 10.475C25.275 10.475 27.675 12.725 27.675 15.325ZM26 15.325C26 13.475 24.5 11.825 21.675 11.825C18.825 11.825 17.3 13.475 17.3 15.325C17.3 17.175 18.825 18.85 21.675 18.85C24.5 18.85 26 17.175 26 15.325ZM32.925 32.3H31.275V10.075H32.925V32.3ZM22.45 31.8H20.775V23.725H14.125V22.375H22.3C25.1 22.375 28.2 22.125 30.325 21.75V23.075C28.325 23.5 25.525 23.7 22.45 23.725V31.8ZM67.4543 22.9H57.6543V27.975H55.9543V22.9H45.6543V21.55H67.4543V22.9ZM65.3543 31.95H48.7293V25.3H50.4043V30.575H65.3543V31.95ZM64.3543 18.675H48.7043V10.8H64.3543V18.675ZM62.6793 17.325V12.15H50.3793V17.325H62.6793ZM89.1273 28.25C89.1273 30.8 86.1523 32.675 81.3023 32.675C76.4023 32.675 73.4523 30.8 73.4523 28.25C73.4523 25.725 76.4023 23.85 81.3023 23.85C86.1523 23.85 89.1273 25.725 89.1273 28.25ZM87.4523 28.25C87.4523 26.325 84.8523 25.2 81.3023 25.2C77.7273 25.2 75.1523 26.325 75.1523 28.25C75.1523 30.2 77.7273 31.325 81.3023 31.325C84.8523 31.325 87.4523 30.2 87.4523 28.25ZM84.6523 20.6L83.6773 21.8C80.8773 20.775 78.3773 18.725 77.3273 16.55C76.4273 18.975 73.8523 21.275 70.7773 22.55L69.7273 21.4C73.3273 20.1 76.4023 16.925 76.4023 13.15V12.55H70.9773V11.225H83.4523V12.55H78.1773V13.15C78.1773 16.775 81.3523 19.525 84.6523 20.6ZM88.5773 23.4H86.9273V10.075H88.5773V15.2H91.8523V16.575H88.5773V23.4ZM112.725 13.925C112.725 16.225 109.6 17.925 104.525 17.925C99.4504 17.925 96.3504 16.225 96.3504 13.925C96.3504 11.625 99.4504 9.925 104.525 9.925C109.6 9.925 112.725 11.625 112.725 13.925ZM111.05 13.95C111.05 12.2 108.25 11.225 104.525 11.225C100.825 11.225 98.0004 12.2 98.0004 13.95C98.0004 15.675 100.825 16.65 104.525 16.65C108.25 16.65 111.05 15.675 111.05 13.95ZM112.9 32.05H96.6754V26.925H110.675V24.575H96.6754V23.25H112.35V28.2H98.3504V30.725H112.9V32.05ZM115.45 20.925H93.6504V19.6H115.45V20.925ZM147.48 20.225H125.68V18.9H142.18C142.38 18.05 142.555 16.9 142.705 15.725C139.53 15.95 135.83 16.025 132.105 16.025H128.205V14.75H132.13C135.905 14.75 139.68 14.675 142.88 14.475C142.98 13.575 143.055 12.75 143.08 12.1H128.58V10.8H144.78C144.68 13.8 144.23 17.1 143.805 18.9H147.48V20.225ZM144.905 32.05H128.705V26.65H142.705V24H128.705V22.675H144.38V27.9H130.38V30.725H144.905V32.05ZM168.978 32.425H167.328V26.275H153.628V24.9H168.978V32.425ZM169.028 23.7H167.378V10.075H169.028V23.7ZM166.178 20.275V21.55C163.628 22.125 159.503 22.425 156.003 22.425H151.403V16.025H160.378V12.325H151.403V11.025H162.053V17.3H153.053V21.1H156.003C159.403 21.1 163.453 20.8 166.178 20.275ZM185.751 15.8H174.176V14.45H185.751V15.8ZM183.076 12.225H176.801V10.875H183.076V12.225ZM193.876 32.3H192.201V20.55H188.851V31.25H187.226V10.45H188.851V19.075H192.201V10.075H193.876V32.3ZM174.951 22.6C174.951 19.775 177.151 17.65 179.926 17.65C182.726 17.65 184.951 19.775 184.951 22.6C184.951 25.425 182.726 27.55 179.926 27.55C177.151 27.55 174.951 25.425 174.951 22.6ZM183.326 22.6C183.326 20.5 182.001 18.95 179.926 18.95C177.901 18.95 176.576 20.5 176.576 22.6C176.576 24.675 177.901 26.25 179.926 26.25C182.001 26.25 183.326 24.675 183.326 22.6ZM218.205 26.4H207.53V11.55H218.205V26.4ZM216.505 25.05V12.9H209.18V25.05H216.505ZM224.855 32.3H223.18V10.075H224.855V32.3ZM249.253 32.3H247.603V19.6H244.403V31.25H242.803V10.45H244.403V18.15H247.603V10.075H249.253V32.3ZM241.628 25.025V26.375C239.578 26.7 236.503 26.9 234.353 26.9H231.328V18.425H238.153V12.925H231.328V11.575H239.778V19.75H232.953V25.525H234.353C236.503 25.525 239.553 25.35 241.628 25.025ZM273.001 32.3H271.351V10.075H273.001V32.3ZM270.451 25.15V26.45C268.126 26.95 265.301 27.1 261.976 27.1H254.201V25.75H262.076C265.151 25.75 268.126 25.55 270.451 25.15ZM261.851 21.875C258.301 21.875 255.701 19.375 255.701 16.4C255.701 13.425 258.301 10.95 261.851 10.95C265.451 10.95 268.051 13.425 268.051 16.4C268.051 19.375 265.451 21.875 261.851 21.875ZM261.851 12.3C259.051 12.3 257.376 14.15 257.376 16.4C257.376 18.65 259.051 20.525 261.851 20.525C264.651 20.525 266.376 18.65 266.376 16.4C266.376 14.15 264.651 12.3 261.851 12.3ZM300.555 25.875L299.53 27.075C296.555 25.45 293.78 22.425 292.88 19.575C291.955 22.725 289.58 25.625 286.18 27.725L285.03 26.675C288.93 24.425 291.93 20.55 291.93 15.25V11.05H293.73V15.25C293.73 20.35 297.055 24.15 300.555 25.875ZM304.455 32.3H302.78V10.075H304.455V18.675H308.205V20.1H304.455V32.3ZM328.879 21.05H312.779V10.775H328.404V12.125H314.454V15.2H328.304V16.525H314.454V19.675H328.879V21.05ZM331.554 25H321.479V32.3H319.754V25H309.704V23.65H331.554V25ZM352.877 32.3H351.202V10.075H352.877V32.3ZM350.027 24.7V26.075C347.227 26.625 342.852 26.9 339.477 26.9H335.527V18.375H344.502V12.775H335.527V11.425H346.202V19.7H337.177V25.525H339.477C342.852 25.525 347.027 25.275 350.027 24.7ZM379.55 29.375H357.7V28.025H367.9V23.3H360.775V16.625H374.5V12.65H360.775V11.3H376.15V17.95H362.45V21.925H376.875V23.3H369.6V28.025H379.55V29.375ZM410.054 32.3H408.404V19.725H405.029V31.25H403.379V10.45H405.029V18.275H408.404V10.075H410.054V32.3ZM402.479 25.95L401.454 27.075C399.029 25.4 397.204 22.925 396.429 20.425C395.704 23.2 393.604 25.9 390.754 27.825L389.554 26.8C393.004 24.7 395.529 20.7 395.529 16.025V13.05H391.254V11.7H401.354V13.05H397.279V16.025C397.279 20.8 399.754 24.25 402.479 25.95ZM435.577 22.3H425.177V32.3H423.502V22.3H413.727V20.95H429.802C430.352 18.275 430.777 15.225 430.952 12.55H416.277V11.2H432.677C432.552 14.2 432.002 18.25 431.502 20.95H435.577V22.3ZM449.7 32.675C444.675 32.675 441.6 30.8 441.6 28.25C441.6 25.725 444.675 23.85 449.7 23.85C454.725 23.85 457.8 25.725 457.8 28.25C457.8 30.8 454.725 32.675 449.7 32.675ZM449.7 25.2C446 25.2 443.3 26.325 443.3 28.25C443.3 30.2 446 31.325 449.7 31.325C453.375 31.325 456.1 30.2 456.1 28.25C456.1 26.325 453.375 25.2 449.7 25.2ZM452.7 20.375L451.725 21.625C448.925 20.6 446.4 18.525 445.375 16.3C444.475 18.75 441.95 21.025 438.825 22.35L437.8 21.225C441.45 19.825 444.45 16.7 444.45 12.9V10.65H446.225V12.9C446.225 16.525 449.3 19.25 452.7 20.375ZM457.375 23.675H455.7V15.7H450.125V14.3H455.7V10.075H457.375V23.675ZM473.823 15.8H462.248V14.45H473.823V15.8ZM471.148 12.225H464.873V10.875H471.148V12.225ZM481.948 32.3H480.273V20.55H476.923V31.25H475.298V10.45H476.923V19.075H480.273V10.075H481.948V32.3ZM463.023 22.6C463.023 19.775 465.223 17.65 467.998 17.65C470.798 17.65 473.023 19.775 473.023 22.6C473.023 25.425 470.798 27.55 467.998 27.55C465.223 27.55 463.023 25.425 463.023 22.6ZM471.398 22.6C471.398 20.5 470.073 18.95 467.998 18.95C465.973 18.95 464.648 20.5 464.648 22.6C464.648 24.675 465.973 26.25 467.998 26.25C470.073 26.25 471.398 24.675 471.398 22.6ZM507.571 29.225H485.721V27.875H495.771V22.75H488.796V11.175H490.471V15.25H502.771V11.175H504.446V22.75H497.496V27.875H507.571V29.225ZM502.771 21.4V16.575H490.471V21.4H502.771ZM522.269 25.75L521.194 26.9C518.744 25.175 516.819 22.575 516.044 20.05C515.319 22.85 513.269 25.675 510.369 27.7L509.194 26.675C512.744 24.475 515.169 20.225 515.169 15.4V11.2H516.894V15.4C516.894 20.35 519.444 23.975 522.269 25.75ZM525.519 31.25H523.894V18.625H519.494V17.25H523.894V10.45H525.519V31.25ZM530.044 32.3H528.394V10.075H530.044V32.3ZM544.617 22.55C539.767 22.55 536.442 19.95 536.442 16.55C536.442 13.125 539.767 10.525 544.617 10.525C549.492 10.525 552.842 13.125 552.842 16.55C552.842 19.95 549.492 22.55 544.617 22.55ZM544.617 11.875C540.942 11.875 538.092 13.75 538.092 16.55C538.092 19.35 540.942 21.2 544.617 21.2C548.317 21.2 551.167 19.35 551.167 16.55C551.167 13.75 548.317 11.875 544.617 11.875ZM555.567 29.225H533.717V27.875H539.042V23.05H540.742V27.875H548.492V23.05H550.192V27.875H555.567V29.225ZM561.94 29.825C561.94 30.625 561.315 31.225 560.515 31.225C559.665 31.225 559.04 30.625 559.04 29.825C559.04 29.075 559.665 28.425 560.515 28.425C561.315 28.425 561.94 29.075 561.94 29.825Z" fill="black"/>
</svg>
