<svg width="93" height="40" viewBox="0 0 93 40" fill="none" xmlns="http://www.w3.org/2000/svg">
<rect x="0.5" y="0.5" width="92" height="39" fill="white"/>
<rect x="0.5" y="0.5" width="92" height="39" stroke="black"/>
<path d="M23.9066 25.76H14.5466V11.86H15.3866V25.04H23.9066V25.76ZM27.0707 25.76H26.2107V11.86H27.0507L27.0707 25.76ZM37.8905 18.84C39.5505 19.44 40.6305 20.8 40.4505 22.42C40.2305 24.34 38.4305 26.2 35.1905 26.2C31.5505 26.2 29.6305 24 29.7905 21.36H30.6105C30.5505 24.1 32.6705 25.36 35.2305 25.36C37.2305 25.36 39.3505 24.36 39.5905 22.54C39.7705 21.16 38.8105 20.1 37.4705 19.56C36.2105 19.06 34.4305 18.82 33.1505 18.44C31.3705 17.94 30.1305 16.8 30.2705 15.04C30.3905 13.3 31.8305 11.36 35.1105 11.36C38.8905 11.36 40.1505 14.3 40.0105 15.7H39.1505C39.1905 13.82 37.3705 12.16 35.1105 12.16C32.9305 12.16 31.2705 13.26 31.1505 15.04C31.0505 16.76 32.4105 17.4 33.5305 17.78C34.5105 18.1 36.3105 18.26 37.8905 18.84ZM52.7126 12.58H47.7726V25.88H46.8726L46.8526 12.58H41.8926V11.86H52.7126V12.58ZM64.8934 25.76L54.9334 25.74V11.86H64.6934V12.58H55.8134V18.18H64.3734V18.92H55.8134V25.04L64.8934 25.02V25.76ZM78.3916 25.74L77.3516 25.76L68.5716 13V25.76L67.6716 25.74V11.84H68.7116L77.5116 24.6V11.86H78.3916V25.74Z" fill="black"/>
</svg>
