<svg width="952" height="125" viewBox="0 0 952 125" fill="none" xmlns="http://www.w3.org/2000/svg">
<rect x="0.5" y="0.5" width="951" height="124" fill="white"/>
<rect x="0.5" y="0.5" width="951" height="124" stroke="black"/>
<path d="M77.5674 29.2H81.0674V90.8H77.5674V29.2ZM35.9174 40.4V73.93H57.6174V40.4H35.9174ZM32.4174 37.6H61.1174V76.73H32.4174V37.6ZM129.012 30.6H132.512V55.66H143.012V29.2H146.512V90.8H143.012V58.46H132.512V88H129.012V30.6ZM126.212 75.61C120.472 76.59 111.792 77.43 102.062 77.43H95.7619V55.52H115.012V39.28H95.6219V36.48H118.512V58.32H99.2619V74.63H103.462C112.072 74.63 119.912 73.86 126.212 72.95V75.61ZM179.896 36.48C171.426 36.48 166.736 41.94 166.736 48.38C166.736 54.82 171.426 60.28 179.896 60.28C188.366 60.28 193.056 54.82 193.056 48.38C193.056 41.94 188.366 36.48 179.896 36.48ZM179.896 33.47C189.766 33.47 196.766 40.19 196.766 48.38C196.766 56.57 189.766 63.29 179.896 63.29C170.026 63.29 163.026 56.57 163.026 48.38C163.026 40.19 170.026 33.47 179.896 33.47ZM208.456 29.2H211.956V90.8H208.456V29.2ZM206.076 74.91C201.456 75.61 188.786 76.45 181.506 76.66C172.966 76.87 162.956 76.8 158.756 76.8V73.93C162.046 73.93 174.226 74.07 181.436 73.86C188.856 73.65 201.246 72.95 206.076 72.04V74.91ZM286.964 75.19L284.514 77.71C282.204 76.31 269.394 68.05 265.824 54.61C263.304 68.05 250.214 77.5 247.274 79.04L244.474 76.66C250.774 73.3 264.074 64.06 264.074 44.32V33.05H267.574V44.32C267.574 64.34 283.534 73.23 286.964 75.19ZM307.124 57.2H297.324V90.8H293.824V29.2H297.324V54.4H307.124V57.2ZM320.768 46.63V56.22H361.718V59.02H317.268V32H361.158V34.8H320.768V43.83H361.018V46.63H320.768ZM370.118 67.28V70.08H341.208V90.8H337.708V70.08H308.518V67.28H370.118ZM424.013 29.2H427.513V90.8H424.013V29.2ZM418.553 75.82C414.843 76.45 405.743 77.78 391.043 77.78H378.443V55.1H405.043V38.79H378.443V35.99H408.543V57.9H381.943V74.98H390.483C405.183 74.98 415.123 73.65 418.553 73.02V75.82ZM491.907 90.1H446.057V77.57H486.657V70.92H446.057V68.12H490.157V80.37H449.557V87.3H491.907V90.1ZM498.907 59.09V61.89H437.307V59.09H498.907ZM490.927 53.14H446.057V40.96H485.957V34.31H446.057V31.51H489.457V43.76H449.557V50.34H490.927V53.14ZM567.474 56.01V30.6H570.974V88H567.474V58.95H556.274V56.01H567.474ZM580.074 29.2H583.574V90.8H580.074V29.2ZM543.394 48.1H529.814V45.3H560.054V48.1H546.894V51.6C546.894 64.62 557.184 73.02 561.804 75.4L559.564 78.06C558.374 77.36 547.944 70.29 545.144 60C542.694 70.5 530.864 78.69 528.694 79.74L525.964 77.29C527.994 76.38 543.394 67.49 543.394 51.6V48.1ZM536.044 34.1H553.824V37.04H536.044V34.1ZM608.419 73.79V87.3H643.419V73.79H608.419ZM646.919 90.1H604.919V70.99H646.919V90.1ZM631.029 47.05H643.419V29.2H646.919V66.79H643.419V49.85H631.029V47.05ZM613.179 48.17C605.339 48.17 600.999 51.18 600.999 55.17C600.999 59.16 605.339 61.96 613.179 61.96C621.089 61.96 625.359 59.16 625.359 55.17C625.359 51.18 621.089 48.17 613.179 48.17ZM613.179 45.51C623.119 45.51 629.069 49.64 629.069 55.24C629.069 60.84 623.049 64.83 613.109 64.83C603.169 64.83 597.289 60.84 597.289 55.24C597.289 49.64 603.239 45.51 613.179 45.51ZM593.999 38.37H632.359V41.17H593.999V38.37ZM602.679 30.25H622.909V33.05H602.679V30.25ZM672.743 57.06C666.653 57.06 662.663 61.47 662.663 67.21C662.663 72.95 666.653 77.15 672.743 77.15C678.903 77.15 682.823 72.95 682.823 67.21C682.823 61.47 678.903 57.06 672.743 57.06ZM672.743 54.19C680.513 54.19 686.393 59.79 686.393 67.21C686.393 74.63 680.513 80.23 672.743 80.23C664.973 80.23 659.093 74.63 659.093 67.21C659.093 59.79 664.973 54.19 672.743 54.19ZM656.993 45.37H688.493V48.17H656.993V45.37ZM664.343 35.22H681.143V38.02H664.343V35.22ZM708.163 56.22V29.2H711.663V90.8H708.163V59.02H697.663V88H694.163V30.6H697.663V56.22H708.163ZM731.748 62.03H768.568V48.03H731.748V62.03ZM751.698 64.83V79.04H780.958V81.84H719.358V79.04H748.198V64.83H728.248V33.4H731.748V45.23H768.568V33.4H772.068V64.83H751.698ZM818.613 75.68L816.093 77.64C810.423 73.72 803.423 65.18 801.673 56.5C800.273 64.69 793.343 74 786.483 79.32L783.613 77.5C789.843 73.23 799.923 62.1 799.923 46.91V34.1H803.423V46.91C803.423 61.82 812.803 71.48 818.613 75.68ZM837.303 29.2H840.803V90.8H837.303V29.2ZM824.633 30.6H828.133V88H824.633V54.54H812.103V51.74H824.633V30.6ZM902.117 48.03C902.117 56.64 893.017 63.15 878.947 63.15C864.807 63.15 855.777 56.64 855.777 48.03C855.777 39.56 864.807 32.91 878.947 32.91C893.017 32.91 902.117 39.63 902.117 48.03ZM909.747 82.4H848.147V79.6H865.577V64.41H869.077V79.6H888.747V64.41H892.247V79.6H909.747V82.4ZM898.337 48.03C898.337 40.75 889.447 35.99 878.947 35.99C868.447 35.99 859.557 40.75 859.557 48.03C859.557 55.52 868.447 60.07 878.947 60.07C889.657 60.07 898.337 55.52 898.337 48.03ZM917.932 75.26L916.812 57.83V30.67H921.082V57.83L919.962 75.26H917.932ZM922.062 84.36V90.45H915.902V84.36H922.062Z" fill="black"/>
</svg>
