<svg width="541" height="540" viewBox="0 0 541 540" fill="none" xmlns="http://www.w3.org/2000/svg">
<rect x="1.5" y="0.5" width="539" height="539" fill="white" stroke="black"/>
<path d="M35.8295 28.68C38.4295 29.84 41.0695 32.4 40.9895 36C40.9095 40.76 37.3095 44.32 31.5095 44.32C25.8695 44.32 21.8695 40.36 21.9895 35.56H23.7495C23.7095 38.88 26.2695 42.56 31.6695 42.56C35.9095 42.56 39.1495 39.76 39.1895 35.96C39.1895 32.48 35.8295 30.12 33.7495 29.8C32.3895 29.64 30.7895 29.6 29.7495 29.6V27.96C30.7895 27.96 32.3495 28.08 33.7495 27.68C36.1495 27 37.9895 25.28 38.1495 22.36C38.2695 18.88 35.4295 16.56 31.4695 16.56C27.0695 16.56 24.9095 19.56 24.9095 22.36H23.1095C22.9495 19 25.9495 14.8 31.6295 14.8C36.3895 14.8 40.1095 18.2 40.0295 22.24C39.9895 25.92 37.6695 27.92 35.8295 28.68Z" fill="black"/>
<rect x="1.5" y="0.5" width="59" height="59" stroke="black"/>
<path d="M116.125 231.79L136.005 198.96L138.385 200.5L119.555 231.65L138.385 263.01L136.005 264.55L116.125 231.79ZM183.911 228.01V202.6H187.411V260H183.911V230.95H172.711V228.01H183.911ZM196.511 201.2H200.011V262.8H196.511V201.2ZM159.831 220.1H146.251V217.3H176.491V220.1H163.331V223.6C163.331 236.62 173.621 245.02 178.241 247.4L176.001 250.06C174.811 249.36 164.381 242.29 161.581 232C159.131 242.5 147.301 250.69 145.131 251.74L142.401 249.29C144.431 248.38 159.831 239.49 159.831 223.6V220.1ZM152.481 206.1H170.261V209.04H152.481V206.1ZM259.505 201.2H263.005V246H259.505V201.2ZM221.005 242.5H224.505V258.6H264.755V261.4H221.005V242.5ZM226.885 206.73C218.695 206.73 214.075 212.12 214.075 218.98C214.075 225.84 218.695 231.23 226.885 231.23C235.145 231.23 239.695 225.84 239.695 218.98C239.695 212.12 235.145 206.73 226.885 206.73ZM226.885 203.44C236.615 203.44 243.545 210.37 243.545 218.98C243.545 227.59 236.615 234.52 226.885 234.52C217.155 234.52 210.225 227.59 210.225 218.98C210.225 210.37 217.155 203.44 226.885 203.44ZM302.2 215.9C297.86 230.04 280.08 237.81 277.84 238.37L275.6 235.99C285.4 233.19 300.24 222.41 300.24 209.18V204.42H304.16V209.18C304.16 222.48 318.72 232.77 328.8 235.99L326.56 238.37C324.32 237.81 307.31 230.53 302.2 215.9ZM333 253.7H271.4V250.9H300.45V234.66H303.95V250.9H333V253.7ZM343.845 208.55V231.3H360.995V208.55H343.845ZM340.345 205.75H364.495V234.1H340.345V205.75ZM349.095 242.5H352.595V258.6H393.405V261.4H349.095V242.5ZM388.295 220.1V201.2H391.795V246.28H388.295V222.9H377.795V245.58H374.295V202.25H377.795V220.1H388.295ZM423.989 232L404.109 264.76L401.659 263.22L420.559 231.86L401.659 200.71L404.109 199.17L423.989 232ZM145.273 324.5V326.5H124.523V340H122.023V326.5H101.273V324.5H145.273ZM140.523 305H106.023V303H140.523V305ZM123.123 307.95C132.073 307.95 137.323 310.75 137.323 314.2C137.323 317.7 132.073 320.55 123.123 320.55C114.173 320.55 108.923 317.7 108.923 314.2C108.923 310.75 114.173 307.95 123.123 307.95ZM123.123 309.95C116.423 309.95 111.623 311.7 111.623 314.25C111.623 316.65 116.423 318.5 123.123 318.5C129.723 318.5 134.523 316.65 134.523 314.25C134.523 311.7 129.723 309.95 123.123 309.95ZM114.273 296.5H132.273V298.5H114.273V296.5ZM185.27 296H187.77V340H185.27V296ZM162.42 303.25H151.17V301.25H176.52V303.25H164.92V308.1C164.92 321.15 174.97 327.75 177.17 328.9L175.62 330.9C174.17 330.05 165.57 324.15 163.67 314.8C161.92 324 152.92 330.75 150.67 332.1L148.77 330.4C153.92 328 162.42 319.5 162.42 308.1V303.25ZM202.216 317.95H228.366V302.8H202.216V317.95ZM216.366 319.95V331.45H237.266V333.45H193.266V331.45H213.866V319.95H199.716V300.8H230.866V319.95H216.366ZM248.262 312.35V320.4H277.262V322.4H262.512V331.9H283.262V333.9H239.262V331.9H260.012V322.4H245.762V300.4H276.762V302.4H248.262V310.35H276.762V312.35H248.262ZM336.538 296H339.038V313.7H346.738V315.7H339.038V340H336.538V296ZM333.488 329.15C330.538 329.6 326.738 329.85 321.938 330.05C316.338 330.3 310.088 330.25 306.238 330.25V301H328.038V303H308.738V313.95H327.038V315.95H308.738V328.25C311.138 328.25 317.338 328.3 322.088 328.15C326.588 328.05 330.588 327.65 333.488 327.15V329.15ZM379.484 301.25H361.984V299.25H379.484V301.25ZM392.734 333.2H348.734V331.2H392.734V333.2ZM369.484 309.1H354.234V307.1H387.234V309.1H371.984V310.1C371.984 315.85 382.784 322.2 389.734 323.35L388.134 325.05C382.634 324.25 373.334 318.9 370.684 313.2C369.034 317.5 363.184 322.45 353.334 325.05L351.734 323.35C361.084 321.45 369.484 315.15 369.484 310.1V309.1ZM432.48 296H434.98V340H432.48V296ZM416.03 312.35C417.43 309.15 418.08 305.75 418.38 303.5H401.38V301.5H421.18C419.33 321.1 405.53 329.3 400.48 331.95L398.43 330.4C404.53 327.4 411.88 322.15 415.08 314.45C413.73 314.6 412.48 314.65 411.28 314.7C407.63 314.9 403.08 314.85 399.93 314.85V312.85C402.78 312.85 408.23 312.9 411.38 312.7C413.08 312.6 414.33 312.55 416.03 312.35Z" fill="black"/>
</svg>
