<svg width="540" height="540" viewBox="0 0 540 540" fill="none" xmlns="http://www.w3.org/2000/svg">
<rect x="0.5" y="0.5" width="539" height="539" fill="white" stroke="black"/>
<path d="M40.2695 43.24H22.2695C22.4695 40.08 22.3495 36.6 27.9895 32.68L32.7095 29.4C35.1095 27.76 37.2295 26.16 37.3895 23.08C37.6295 19.68 34.7095 16.68 30.2695 16.68C26.1495 16.68 23.4295 19.64 23.4695 23.2H21.8295C21.5895 19.4 24.9495 14.92 30.3895 14.92C35.7495 14.92 39.5095 18.76 39.1895 23.08C38.9095 27.48 36.2695 29.08 33.1095 31.28L28.5095 34.44C25.4295 36.52 24.5095 39.24 24.2695 41.88H40.2695V43.24Z" fill="black"/>
<rect x="0.5" y="0.5" width="59" height="59" stroke="black"/>
<path d="M71.6916 231.79L91.5716 198.96L93.9516 200.5L75.1216 231.65L93.9516 263.01L91.5716 264.55L71.6916 231.79ZM151.027 201.2H154.527V262.8H151.027V201.2ZM129.537 229.34H139.267V202.6H142.697V260H139.267V232.14H129.537V229.34ZM115.607 229.06C109.517 229.06 105.527 233.47 105.527 239.21C105.527 244.95 109.517 249.15 115.607 249.15C121.767 249.15 125.687 244.95 125.687 239.21C125.687 233.47 121.767 229.06 115.607 229.06ZM115.607 226.19C123.377 226.19 129.257 231.79 129.257 239.21C129.257 246.63 123.377 252.23 115.607 252.23C107.837 252.23 101.957 246.63 101.957 239.21C101.957 231.79 107.837 226.19 115.607 226.19ZM99.8573 217.37H131.357V220.17H99.8573V217.37ZM107.207 207.22H124.007V210.02H107.207V207.22ZM193.442 228.64C193.442 218.14 189.452 209.46 181.752 209.46C174.052 209.46 169.922 218.07 169.922 228.64C169.922 239.35 174.052 247.96 181.752 247.96C189.452 247.96 193.442 239.28 193.442 228.64ZM197.012 226.75H214.022V201.2H217.522V262.8H214.022V229.55H197.082C196.802 242.57 190.852 251.18 181.682 251.18C172.372 251.18 166.282 242.22 166.282 228.71C166.282 215.13 172.372 206.24 181.682 206.24C190.572 206.24 196.452 214.29 197.012 226.75ZM280.516 201.2H284.016V233.82H280.516V201.2ZM285.556 262.1H242.016V248.45H280.306V240.68H242.016V237.88H283.806V251.25H245.516V259.3H285.556V262.1ZM251.956 208.2V209.53C251.956 221.57 263.926 227.45 269.036 229.27L266.726 232C261.196 229.34 252.936 224.3 250.206 217.09C248.106 225.21 236.906 232 232.216 233.61L229.976 231.09C239.846 227.24 248.456 219.89 248.456 209.53V208.2H233.616V205.4H266.516V208.2H251.956ZM368.334 211.7V201.2H371.834V233.82H368.334V225.98H353.284V223.18H368.334V214.5H354.334V211.7H368.334ZM372.954 262.1H329.834V248.17H368.124V240.12H329.834V237.32H371.624V250.97H333.334V259.3H372.954V262.1ZM322.834 208.97V206.17H352.164C351.184 220.31 338.234 230.04 321.714 235.08L319.404 232.56C335.014 229.06 347.054 218.84 348.034 208.97H322.834ZM436.858 262.1H395.628V241.1H436.858V262.1ZM399.128 243.9V259.3H433.358V243.9H399.128ZM433.218 201.2H436.718V236.9H433.218V201.2ZM404.168 208.55C404.168 221.57 417.818 229.55 423.698 231.93L421.458 234.52C417.398 232.63 407.108 227.24 402.418 216.39C397.938 228.92 386.178 235.08 384.078 236.13L381.348 233.89C386.178 231.93 400.668 221.92 400.668 208.55V203.44H404.168V208.55ZM468.423 232L448.543 264.76L446.093 263.22L464.993 231.86L446.093 200.71L448.543 199.17L468.423 232ZM207.506 308.45V317.6H223.506V308.45H207.506ZM205.006 298.25H207.506V306.45H223.506V298.25H226.006V319.6H205.006V298.25ZM209.256 325.55H239.256V340H236.756V327.55H209.256V325.55ZM239.256 309.25V322.4H236.756V296H239.256V307.25H246.206V309.25H239.256ZM258.002 325.5H260.502V337H289.002V339H258.002V325.5ZM286.502 311.35V328H284.002V296H286.502V309.35H293.552V311.35H286.502ZM257.152 296.5H271.052V298.5H257.152V296.5ZM262.852 305.25H251.702V303.25H276.502V305.25H265.352V305.7C265.352 313.4 274.852 318.5 277.802 319.65L276.552 321.65C275.152 321.25 266.002 316.3 264.152 310.4C261.702 317.5 252.502 322.25 251.102 322.85L249.402 321.1C251.552 320.15 262.852 314.7 262.852 305.7V305.25ZM337.998 320H317.248V327.65H331.748V340H329.248V329.65H299.598V327.65H314.748V320H293.998V318H337.998V320ZM332.348 304.4C332.348 309.2 326.448 312.95 315.998 312.95C305.598 312.95 299.598 309.2 299.598 304.4C299.598 299.6 305.598 295.85 315.998 295.85C326.448 295.85 332.348 299.6 332.348 304.4ZM329.898 304.4C329.898 300.5 323.948 297.85 315.998 297.85C307.948 297.85 301.998 300.5 301.998 304.4C301.998 308.2 307.948 310.95 315.998 310.95C323.948 310.95 329.898 308.2 329.898 304.4Z" fill="black"/>
</svg>
