<svg width="540" height="540" viewBox="0 0 540 540" fill="none" xmlns="http://www.w3.org/2000/svg">
<rect x="0.5" y="0.5" width="539" height="539" fill="white" stroke="black"/>
<path d="M116.125 231.79L136.005 198.96L138.385 200.5L119.555 231.65L138.385 263.01L136.005 264.55L116.125 231.79ZM173.481 228.64C173.481 218.14 169.491 209.46 161.791 209.46C154.091 209.46 149.961 218.07 149.961 228.64C149.961 239.35 154.091 247.96 161.791 247.96C169.491 247.96 173.481 239.28 173.481 228.64ZM177.051 226.75H194.061V201.2H197.561V262.8H194.061V229.55H177.121C176.841 242.57 170.891 251.18 161.721 251.18C152.411 251.18 146.321 242.22 146.321 228.71C146.321 215.13 152.411 206.24 161.721 206.24C170.611 206.24 176.491 214.29 177.051 226.75ZM220.095 243.9H223.595V258.6H263.565V261.4H220.095V243.9ZM258.525 201.2H262.025V246.7H258.525V201.2ZM253.625 236.13C249.775 236.97 239.905 238.09 224.435 238.09H212.465V220.1H239.625V207.57H212.465V204.77H243.125V222.9H215.965V235.29H223.385C240.325 235.29 249.005 234.17 253.625 233.4V236.13ZM322.22 253.42C322.22 248.31 314.24 245.44 303.6 245.44C292.82 245.44 284.98 248.31 284.98 253.42C284.98 258.39 292.82 261.26 303.6 261.26C314.24 261.26 322.22 258.39 322.22 253.42ZM325.93 253.35C325.93 259.65 318.02 264.2 303.6 264.2C289.25 264.2 281.27 259.65 281.27 253.35C281.27 247.05 289.25 242.43 303.6 242.43C318.02 242.43 325.93 247.05 325.93 253.35ZM334.26 221.71H324.39V241.87H321.03V201.2H324.39V218.91H334.26V221.71ZM318.3 235.01C313.4 235.64 303.81 236.55 296.88 236.62L272.1 236.76V233.96H292.19V225.98C283.3 225.42 277.56 220.03 277.56 213.94C277.56 207.43 284.21 201.83 294.08 201.83C303.95 201.83 310.6 207.78 310.6 213.94C310.6 220.1 304.72 225.49 295.69 225.98V233.89C301.64 233.89 312.49 233.12 318.3 232.14V235.01ZM307.03 213.94C307.03 209.11 302.55 204.77 294.08 204.77C285.61 204.77 281.13 209.11 281.13 213.94C281.13 218.77 285.61 223.25 294.08 223.25C302.55 223.25 307.03 218.77 307.03 213.94ZM388.855 229.9V262.8H385.355V201.2H388.855V227.1H399.495V229.9H388.855ZM355.395 211.35H339.645V208.55H375.135V211.35H358.895V218.14C358.895 236.41 372.965 245.65 376.045 247.26L373.875 250.06C371.845 248.87 359.805 240.61 357.145 227.52C354.695 240.4 342.095 249.85 338.945 251.74L336.285 249.36C343.495 246 355.395 234.1 355.395 218.14V211.35ZM423.989 232L404.109 264.76L401.659 263.22L420.559 231.86L401.659 200.71L404.109 199.17L423.989 232ZM181.61 325.9C173.56 325.9 167.81 328.45 167.81 332.55C167.81 336.55 173.56 339.1 181.61 339.1C189.56 339.1 195.41 336.55 195.41 332.55C195.41 328.45 189.56 325.9 181.61 325.9ZM181.61 323.95C192.21 323.95 198.06 327.55 198.06 332.5C198.06 337.45 192.21 341 181.61 341C171.06 341 165.16 337.45 165.16 332.5C165.16 327.55 171.06 323.95 181.61 323.95ZM194.76 307.8V296H197.26V322.9H194.76V309.8H187.26V321.9H184.76V296.75H187.26V307.8H194.76ZM169.76 308.3C167.36 316.1 160.16 321 158.56 321.85L156.81 320.3C160.86 318.35 168.51 311.15 168.51 302.3V297.5H171.01V302.3C171.01 311.4 178.01 316.6 182.26 318.6L180.71 320.5C178.26 319.25 171.71 314.55 169.76 308.3ZM210.506 326H241.906V340H239.406V328H210.506V326ZM229.256 296.75H231.756V307.85H239.506V296H242.006V323.05H239.506V309.85H231.756V323.05H229.256V296.75ZM226.506 319.05C224.756 319.35 221.956 319.7 217.206 319.95C211.606 320.2 207.106 320.15 205.506 320.15V299H222.506V301H208.006V308.3H222.006V310.3H208.006V318.15C209.006 318.15 212.756 318.2 217.356 318C221.056 317.85 224.506 317.45 226.506 317.1V319.05ZM285.452 296H287.952V340H285.452V296ZM264.352 301H254.152V299H277.202V301H266.852V302.2C266.852 308.35 276.752 313.45 278.202 313.85L276.802 315.7C275.902 315.45 267.902 311.35 265.602 306.55C262.252 312.4 257.452 314.95 253.502 316.2L251.902 314.45C259.802 312.2 264.352 305.85 264.352 302.2V301ZM263.252 323.05C257.702 323.1 252.352 323.05 249.952 323.05V321.05C252.352 321.05 264.502 321.1 269.652 320.9C275.102 320.7 281.252 320.1 283.452 319.65V321.6C280.002 322.2 272.702 323 265.752 323V339H263.252V323.05ZM323.248 314V297H325.748V338H323.248V316H316.248V314H323.248ZM331.998 296H334.498V340H331.998V296ZM296.298 304.1V302.1H317.998V304.1H296.298ZM319.748 329.1C317.298 329.4 315.348 329.55 311.948 329.7C307.148 329.9 295.948 329.85 295.348 329.85V327.85H300.998L300.298 305.6H302.798L303.498 327.85C306.198 327.85 308.748 327.85 310.748 327.75L311.448 305.6H313.948L313.248 327.65C316.198 327.5 317.748 327.3 319.748 327.1V329.1ZM376.494 296H378.994V340H376.494V296ZM372.594 329.3C369.944 329.75 363.444 330.7 352.944 330.7H343.944V314.5H362.944V302.85H343.944V300.85H365.444V316.5H346.444V328.7H352.544C363.044 328.7 370.144 327.75 372.594 327.3V329.3Z" fill="black"/>
<path d="M32.4695 43.52H30.7095V21.92H25.3095V20.48C26.6295 20.48 27.7095 20.16 29.1895 19.16C30.3095 18.32 31.1095 17 31.1095 15.56H32.4695V43.52Z" fill="black"/>
<rect x="0.5" y="0.5" width="59" height="59" stroke="black"/>
</svg>
