<svg width="158" height="40" viewBox="0 0 158 40" fill="none" xmlns="http://www.w3.org/2000/svg">
<rect x="0.5" y="0.5" width="157" height="39" fill="white"/>
<rect x="0.5" y="0.5" width="157" height="39" stroke="black"/>
<path d="M26.0179 25.76H24.9979L21.0379 19.84H15.4579V25.76L14.5779 25.74V11.84H20.7179C23.5179 11.84 25.2579 13.6 25.2579 15.8C25.2579 17.88 23.5379 19.36 21.9579 19.72L26.0179 25.76ZM20.5979 19.12C22.4179 19.12 24.2979 18.1 24.2979 15.8C24.2979 13.44 22.4179 12.54 20.5979 12.54H15.4579V19.12H20.5979ZM38.0379 25.76L28.0779 25.74V11.86H37.8379V12.58H28.9579V18.18H37.5179V18.92H28.9579V25.04L38.0379 25.02V25.76ZM52.3162 25.76H51.4962L51.4762 23.32C50.4562 25.12 48.4962 26.14 46.4362 26.14C42.6562 26.14 40.2562 23.02 40.2562 18.8C40.2562 14.58 42.6962 11.48 46.4362 11.48C50.0562 11.48 51.8762 14.34 52.2762 15.82L51.3362 15.8C50.8162 14.28 49.1562 12.32 46.4362 12.32C43.3562 12.32 41.2162 15.06 41.2162 18.86C41.2162 22.58 43.3762 25.3 46.3962 25.3C49.6962 25.3 51.5362 22.74 51.5362 20.7V19.56H46.7162V18.84H52.3162V25.76ZM65.5066 25.76L55.5466 25.74V11.86H65.3066V12.58H56.4266V18.18H64.9866V18.92H56.4266V25.04L65.5066 25.02V25.76ZM79.0049 25.74L77.9649 25.76L69.1849 13V25.76L68.2849 25.74V11.84H69.3249L78.1249 24.6V11.86H79.0049V25.74ZM92.5066 25.76L82.5466 25.74V11.86H92.3066V12.58H83.4266V18.18H91.9866V18.92H83.4266V25.04L92.5066 25.02V25.76ZM106.725 25.76H105.705L101.745 19.84H96.1649V25.76L95.2849 25.74V11.84H101.425C104.225 11.84 105.965 13.6 105.965 15.8C105.965 17.88 104.245 19.36 102.665 19.72L106.725 25.76ZM101.305 19.12C103.125 19.12 105.005 18.1 105.005 15.8C105.005 13.44 103.125 12.54 101.305 12.54H96.1649V19.12H101.305ZM120.325 25.8H119.445L117.685 21.72H110.005L108.225 25.78H107.325L113.365 11.84H114.285L120.325 25.8ZM117.345 21L113.845 12.84L110.325 21H117.345ZM131.943 12.58H127.003V25.88H126.103L126.083 12.58H121.123V11.86H131.943V12.58ZM144.124 25.76L134.164 25.74V11.86H143.924V12.58H135.044V18.18H143.604V18.92H135.044V25.04L144.124 25.02V25.76Z" fill="black"/>
</svg>
