<svg width="1920" height="1080" viewBox="0 0 1920 1080" fill="none" xmlns="http://www.w3.org/2000/svg">
<g clip-path="url(#clip0_355_11)">
<rect width="1920" height="1080" fill="#00B7AB"/>
<path d="M1526.48 344.28H1523.8V308.72H1526.48V344.28ZM1519.12 334L1517.52 335.92C1512.76 333.32 1508.28 328.48 1506.88 323.92C1505.4 328.96 1501.6 333.6 1496.12 336.96L1494.32 335.28C1500.48 331.68 1505.36 325.48 1505.36 317V310.28H1508.2V317C1508.2 325.16 1513.56 331.24 1519.12 334ZM1563.2 327.08H1560.6V318.24H1555.64V325.32H1545.92V309.96H1548.36V315.44H1553.12V309.96H1555.64V316.04H1560.6V308.72H1563.2V327.08ZM1564 343.88H1538.96V335.28H1560.48V331.08H1538.96V329H1563.16V337.32H1541.64V341.76H1564V343.88ZM1543.72 325.32H1533.84V309.96H1536.32V315.44H1541.24V309.96H1543.72V325.32ZM1541.24 323.32V317.4H1536.32V323.32H1541.24ZM1553.12 323.32V317.4H1548.36V323.32H1553.12ZM1612.12 343.72H1587V332H1589.68V341.56H1612.12V343.72ZM1582.12 330.68L1580.6 328.72C1589.68 326 1596.04 319.56 1597.16 312.72H1582.8V310.56H1600.24C1599.4 320.64 1591.48 327.48 1582.12 330.68ZM1610.8 335.08H1608.16V321.8H1600.12V319.56H1608.16V308.72H1610.8V335.08Z" fill="white"/>
<path d="M210.82 378.16H158.5V374.92H183.4V362.92H187.54V374.92H210.82V378.16ZM207.94 399.1L205.78 402.04C196.42 400.3 187.9 395.5 184.6 389.38C181.36 395.5 172.84 400.3 163.48 402.04L161.2 399.1C171.76 397.3 182.38 391.06 182.38 383.44V381.76H186.82V383.44C186.82 391.06 197.56 397.3 207.94 399.1ZM202.48 370.6H198.58C199.84 365.68 200.62 358.48 200.8 353.56H183.34V350.32H204.82C204.76 357.16 203.86 365.44 202.48 370.6ZM176.56 370.48H172.36C175.06 365.08 176.68 358.36 176.92 353.56H163.36V350.32H181.18C180.82 358 178.96 365.32 176.56 370.48ZM259.955 401.32H223.715V388.42H254.675V382.12H223.715V379H258.695V391.48H227.675V398.14H259.955V401.32ZM258.815 376.12H254.855V348.58H258.815V359.14H266.975V362.44H258.815V376.12ZM242.795 373H217.475V350.44H221.495V358.3H238.775V350.44H242.795V373ZM238.775 369.88V361.42H221.495V369.88H238.775Z" fill="white"/>
<path d="M1725.94 515.7H1721.98V505.32H1709.14V510.06H1683.64V488.34H1709.14V492.84H1721.98V485.58H1725.94V515.7ZM1728.7 535.92L1726.66 538.92C1718.56 537.9 1710.52 534 1707.28 529.44C1704.1 534 1696 537.9 1687.78 538.92L1685.92 535.92C1694.02 534.84 1703.56 530.82 1704.94 525.6H1687.96V522.42H1726.6V525.6H1709.62C1710.94 530.82 1720.42 534.84 1728.7 535.92ZM1705.12 506.88V491.46H1687.6V506.88H1705.12ZM1721.98 502.2V495.96H1709.14V502.2H1721.98ZM1716.88 518.28H1697.32V515.16H1716.88V518.28ZM1777.67 515.52C1766.03 515.52 1758.05 509.28 1758.05 501.12C1758.05 492.9 1766.03 486.66 1777.67 486.66C1789.37 486.66 1797.41 492.9 1797.41 501.12C1797.41 509.28 1789.37 515.52 1777.67 515.52ZM1777.67 489.9C1768.85 489.9 1762.01 494.4 1762.01 501.12C1762.01 507.84 1768.85 512.28 1777.67 512.28C1786.55 512.28 1793.39 507.84 1793.39 501.12C1793.39 494.4 1786.55 489.9 1777.67 489.9ZM1803.95 531.54H1751.51V528.3H1764.29V516.72H1768.37V528.3H1786.97V516.72H1791.05V528.3H1803.95V531.54ZM1853.87 513.24H1849.85V485.58H1853.87V513.24ZM1855.07 538.32H1818.17V525.48H1849.79V519.18H1818.17V516.06H1853.81V528.48H1822.19V535.14H1855.07V538.32ZM1823.57 511.56C1815.05 511.56 1809.35 505.92 1809.35 498.9C1809.35 491.94 1815.05 486.3 1823.57 486.3C1831.97 486.3 1837.67 491.94 1837.67 498.9C1837.67 505.92 1831.97 511.56 1823.57 511.56ZM1823.57 489.48C1817.09 489.48 1813.43 493.62 1813.43 498.9C1813.43 504.18 1817.09 508.38 1823.57 508.38C1829.99 508.38 1833.65 504.18 1833.65 498.9C1833.65 493.62 1829.99 489.48 1823.57 489.48Z" fill="white"/>
<path d="M1532.08 872.08H1529.44V845.72H1532.08V855.08H1537.52V857.28H1532.08V872.08ZM1533.56 880.72H1508.8V869.28H1511.48V878.56H1533.56V880.72ZM1521.4 864.84H1504.52V846.96H1507.2V853.68H1518.72V846.96H1521.4V864.84ZM1518.72 862.68V855.8H1507.2V862.68H1518.72ZM1568.76 880.88H1543.68V869.76H1568.76V880.88ZM1566.08 878.8V871.84H1546.36V878.8H1566.08ZM1573.68 866H1538.8V863.92H1573.68V866ZM1569.24 860.48H1543.68V846.6H1568.8V848.68H1546.36V852.48H1568.64V854.52H1546.36V858.32H1569.24V860.48Z" fill="white"/>
<path d="M624.24 702.64H622.9V693.88H619.8V692.76H622.9V684.86H624.24V702.64ZM617.28 686.46H611.74V685.38H617.28V686.46ZM619.12 695.16C619.12 697.5 617.28 699.38 614.58 699.38C611.88 699.38 610.04 697.5 610.04 695.16C610.04 692.82 611.88 690.92 614.58 690.92C617.28 690.92 619.12 692.8 619.12 695.16ZM617.8 695.16C617.8 693.28 616.54 691.98 614.6 691.98C612.64 691.98 611.38 693.26 611.38 695.16C611.38 697.04 612.64 698.32 614.6 698.32C616.54 698.32 617.8 697.04 617.8 695.16ZM620.02 689.42H609.04V688.34H620.02V689.42ZM642.378 694.04H641.058V689.62H636.778V693.02H628.278V685.48H629.598V688.12H635.438V685.48H636.778V688.52H641.058V684.86H642.378V694.04ZM642.778 702.44H630.478V698.14H641.038V696.04H630.478V695H642.358V699.16H631.818V701.38H642.778V702.44ZM635.438 691.96V689.16H629.598V691.96H635.438ZM657.877 696.14V697.22C655.637 697.68 652.137 697.88 649.457 697.88H646.697V685.68H648.017V696.78H649.457C652.137 696.78 655.477 696.58 657.877 696.14ZM660.057 702.64H658.737V684.86H660.057V690.96H663.057V692.1H660.057V702.64ZM664.915 698.82L663.895 697.96C668.035 695.64 670.175 691.2 670.415 687.24H664.895V686.16H671.855C671.755 691.66 669.115 696.26 664.915 698.82ZM675.875 701.8H674.575V692.7H671.535V691.58H674.575V685.16H675.875V701.8ZM679.535 702.64H678.215V684.86H679.535V702.64Z" fill="white"/>
<path d="M1161.24 190.64H1159.9V181.88H1156.8V180.76H1159.9V172.86H1161.24V190.64ZM1154.28 174.46H1148.74V173.38H1154.28V174.46ZM1156.12 183.16C1156.12 185.5 1154.28 187.38 1151.58 187.38C1148.88 187.38 1147.04 185.5 1147.04 183.16C1147.04 180.82 1148.88 178.92 1151.58 178.92C1154.28 178.92 1156.12 180.8 1156.12 183.16ZM1154.8 183.16C1154.8 181.28 1153.54 179.98 1151.6 179.98C1149.64 179.98 1148.38 181.26 1148.38 183.16C1148.38 185.04 1149.64 186.32 1151.6 186.32C1153.54 186.32 1154.8 185.04 1154.8 183.16ZM1157.02 177.42H1146.04V176.34H1157.02V177.42ZM1179.38 182.04H1178.06V177.62H1173.78V181.02H1165.28V173.48H1166.6V176.12H1172.44V173.48H1173.78V176.52H1178.06V172.86H1179.38V182.04ZM1179.78 190.44H1167.48V186.14H1178.04V184.04H1167.48V183H1179.36V187.16H1168.82V189.38H1179.78V190.44ZM1172.44 179.96V177.16H1166.6V179.96H1172.44ZM1194.88 184.14V185.22C1192.64 185.68 1189.14 185.88 1186.46 185.88H1183.7V173.68H1185.02V184.78H1186.46C1189.14 184.78 1192.48 184.58 1194.88 184.14ZM1197.06 190.64H1195.74V172.86H1197.06V178.96H1200.06V180.1H1197.06V190.64ZM1201.92 186.82L1200.9 185.96C1205.04 183.64 1207.18 179.2 1207.42 175.24H1201.9V174.16H1208.86C1208.76 179.66 1206.12 184.26 1201.92 186.82ZM1212.88 189.8H1211.58V180.7H1208.54V179.58H1211.58V173.16H1212.88V189.8ZM1216.54 190.64H1215.22V172.86H1216.54V190.64Z" fill="white"/>
<path d="M968.02 233.84C968.02 236.4 966.04 238.44 963.18 238.44C960.28 238.44 958.32 236.4 958.32 233.84C958.32 231.24 960.28 229.18 963.18 229.18C966.04 229.18 968.02 231.24 968.02 233.84ZM963.18 237.36C965.38 237.36 966.68 235.8 966.68 233.82C966.68 231.82 965.38 230.26 963.18 230.26C960.96 230.26 959.68 231.82 959.68 233.82C959.68 235.8 960.96 237.36 963.18 237.36ZM973.2 242.06H971.86V228.86H973.2V242.06ZM973.86 246.36H961.3V240.44H962.64V245.28H973.86V246.36ZM976.918 239.84L976.158 238.86C980.698 237.5 983.858 234.28 984.438 230.86H977.238V229.78H985.978C985.558 234.82 981.598 238.24 976.918 239.84ZM991.678 246.36H979.298V240.44H980.638V245.28H991.678V246.36ZM990.938 242.04H989.618V228.86H990.938V233.94H993.658V235.06H990.938V242.04ZM1006.56 241.82L1005.76 242.78C1003.32 241.6 1001.24 239.6 1000.48 237.42C999.717 239.74 997.597 241.9 995.137 243.24L994.257 242.38C997.037 240.98 999.717 238.22 999.717 234.3V233.7H995.237V232.62H1005.5V233.7H1001.14V234.3C1001.14 238.12 1003.86 240.6 1006.56 241.82ZM1010.04 246.64H1008.7V228.86H1010.04V246.64ZM1003.26 230.46H997.477V229.38H1003.26V230.46Z" fill="white"/>
<path d="M1666.5 419.44H1654.84V412.86H1666.5V419.44ZM1665.16 418.36V413.94H1656.16V418.36H1665.16ZM1666.54 411.9H1665.22V401.86H1666.54V405.82H1669.26V406.94H1666.54V411.9ZM1656.98 410.84C1654.1 410.84 1652.16 408.92 1652.16 406.52C1652.16 404.12 1654.1 402.18 1656.98 402.18C1659.82 402.18 1661.78 404.12 1661.78 406.52C1661.78 408.92 1659.82 410.84 1656.98 410.84ZM1656.98 403.26C1654.78 403.26 1653.5 404.7 1653.5 406.52C1653.5 408.32 1654.78 409.76 1656.98 409.76C1659.14 409.76 1660.44 408.32 1660.44 406.52C1660.44 404.7 1659.14 403.26 1656.98 403.26ZM1685.64 419.64H1684.3V401.86H1685.64V419.64ZM1681.96 414.5L1681.16 415.46C1678.78 414.16 1676.54 411.74 1675.84 409.46C1675.1 411.98 1673.2 414.3 1670.46 415.98L1669.56 415.14C1672.64 413.34 1675.08 410.24 1675.08 406V402.64H1676.5V406C1676.5 410.08 1679.18 413.12 1681.96 414.5ZM1703.66 416.88C1703.66 418.66 1701.26 419.94 1697 419.94C1692.76 419.94 1690.34 418.66 1690.34 416.88C1690.34 415.12 1692.76 413.82 1697 413.82C1701.26 413.82 1703.66 415.12 1703.66 416.88ZM1705.74 412.54H1688.3V411.48H1696.32V409.44H1690.74V405.34H1701.76V403.34H1690.74V402.3H1703.08V406.36H1692.08V408.36H1703.52V409.44H1697.7V411.48H1705.74V412.54ZM1702.32 416.88C1702.32 415.64 1700.32 414.84 1697 414.84C1693.68 414.84 1691.68 415.64 1691.68 416.88C1691.68 418.12 1693.68 418.94 1697 418.94C1700.32 418.94 1702.32 418.12 1702.32 416.88ZM1728.8 414.86H1720.24V413.84H1728.8V414.86ZM1720.46 418.14V419.2C1719.4 419.4 1717.88 419.44 1716.78 419.44H1714.98V411.94H1716.28V418.36H1716.82C1717.84 418.36 1719.32 418.32 1720.46 418.14ZM1726.88 412.74H1722.16V411.72H1726.88V412.74ZM1727.36 410.76H1726.04V401.86H1727.36V405.56H1730.08V406.68H1727.36V410.76ZM1724.5 419.9C1722.36 419.9 1720.92 418.98 1720.92 417.72C1720.92 416.46 1722.36 415.54 1724.5 415.54C1726.66 415.54 1728.06 416.46 1728.06 417.72C1728.06 418.98 1726.66 419.9 1724.5 419.9ZM1724.5 416.52C1723.08 416.52 1722.22 417.02 1722.22 417.72C1722.22 418.42 1723.08 418.92 1724.5 418.92C1725.92 418.92 1726.76 418.42 1726.76 417.72C1726.76 417.02 1725.92 416.52 1724.5 416.52ZM1717.7 410.52C1714.88 410.52 1712.98 408.64 1712.98 406.3C1712.98 403.98 1714.88 402.1 1717.7 402.1C1720.52 402.1 1722.42 403.98 1722.42 406.3C1722.42 408.64 1720.52 410.52 1717.7 410.52ZM1717.7 403.16C1715.56 403.16 1714.32 404.54 1714.32 406.3C1714.32 408.06 1715.56 409.46 1717.7 409.46C1719.84 409.46 1721.06 408.06 1721.06 406.3C1721.06 404.54 1719.84 403.16 1717.7 403.16ZM1745.48 419.64H1744.16V401.86H1745.48V408.2H1748.48V409.34H1745.48V419.64ZM1743.3 413.16V414.24C1741.06 414.7 1737.56 414.92 1734.88 414.92H1732.12V403.04H1740.7V404.12H1733.44V413.82H1734.88C1737.56 413.82 1740.9 413.6 1743.3 413.16Z" fill="white"/>
<path d="M361.5 569.44H349.84V562.86H361.5V569.44ZM360.16 568.36V563.94H351.16V568.36H360.16ZM361.54 561.9H360.22V551.86H361.54V555.82H364.26V556.94H361.54V561.9ZM351.98 560.84C349.1 560.84 347.16 558.92 347.16 556.52C347.16 554.12 349.1 552.18 351.98 552.18C354.82 552.18 356.78 554.12 356.78 556.52C356.78 558.92 354.82 560.84 351.98 560.84ZM351.98 553.26C349.78 553.26 348.5 554.7 348.5 556.52C348.5 558.32 349.78 559.76 351.98 559.76C354.14 559.76 355.44 558.32 355.44 556.52C355.44 554.7 354.14 553.26 351.98 553.26ZM380.638 569.64H379.298V551.86H380.638V569.64ZM376.958 564.5L376.158 565.46C373.778 564.16 371.538 561.74 370.838 559.46C370.098 561.98 368.198 564.3 365.458 565.98L364.558 565.14C367.638 563.34 370.078 560.24 370.078 556V552.64H371.498V556C371.498 560.08 374.178 563.12 376.958 564.5ZM398.657 566.88C398.657 568.66 396.257 569.94 391.997 569.94C387.757 569.94 385.337 568.66 385.337 566.88C385.337 565.12 387.757 563.82 391.997 563.82C396.257 563.82 398.657 565.12 398.657 566.88ZM400.737 562.54H383.297V561.48H391.317V559.44H385.737V555.34H396.757V553.34H385.737V552.3H398.077V556.36H387.077V558.36H398.517V559.44H392.697V561.48H400.737V562.54ZM397.317 566.88C397.317 565.64 395.317 564.84 391.997 564.84C388.677 564.84 386.677 565.64 386.677 566.88C386.677 568.12 388.677 568.94 391.997 568.94C395.317 568.94 397.317 568.12 397.317 566.88ZM423.8 564.86H415.24V563.84H423.8V564.86ZM415.46 568.14V569.2C414.4 569.4 412.88 569.44 411.78 569.44H409.98V561.94H411.28V568.36H411.82C412.84 568.36 414.32 568.32 415.46 568.14ZM421.88 562.74H417.16V561.72H421.88V562.74ZM422.36 560.76H421.04V551.86H422.36V555.56H425.08V556.68H422.36V560.76ZM419.5 569.9C417.36 569.9 415.92 568.98 415.92 567.72C415.92 566.46 417.36 565.54 419.5 565.54C421.66 565.54 423.06 566.46 423.06 567.72C423.06 568.98 421.66 569.9 419.5 569.9ZM419.5 566.52C418.08 566.52 417.22 567.02 417.22 567.72C417.22 568.42 418.08 568.92 419.5 568.92C420.92 568.92 421.76 568.42 421.76 567.72C421.76 567.02 420.92 566.52 419.5 566.52ZM412.7 560.52C409.88 560.52 407.98 558.64 407.98 556.3C407.98 553.98 409.88 552.1 412.7 552.1C415.52 552.1 417.42 553.98 417.42 556.3C417.42 558.64 415.52 560.52 412.7 560.52ZM412.7 553.16C410.56 553.16 409.32 554.54 409.32 556.3C409.32 558.06 410.56 559.46 412.7 559.46C414.84 559.46 416.06 558.06 416.06 556.3C416.06 554.54 414.84 553.16 412.7 553.16ZM440.479 569.64H439.159V551.86H440.479V558.2H443.479V559.34H440.479V569.64ZM438.299 563.16V564.24C436.059 564.7 432.559 564.92 429.879 564.92H427.119V553.04H435.699V554.12H428.439V563.82H429.879C432.559 563.82 435.899 563.6 438.299 563.16Z" fill="white"/>
<path d="M442.96 801.18H425.48V800.1H433.52V795.92C430.02 795.7 427.66 793.7 427.66 791.08C427.66 788.32 430.32 786.22 434.2 786.22C438.1 786.22 440.78 788.32 440.78 791.08C440.78 793.7 438.4 795.7 434.9 795.92V800.1H442.96V801.18ZM439.44 791.08C439.44 788.82 437.16 787.3 434.2 787.3C431.26 787.3 428.98 788.82 428.98 791.08C428.98 793.36 431.26 794.86 434.2 794.86C437.16 794.86 439.44 793.36 439.44 791.08ZM456.018 802.8H454.718V793.3H452.018V798.96H445.198V787.18H452.018V792.18H454.718V786.16H456.018V802.8ZM450.678 797.88V788.26H446.498V797.88H450.678ZM459.538 803.64H458.218V785.86H459.538V803.64Z" fill="white"/>
<path d="M1064.96 216.18H1047.48V215.1H1055.52V210.92C1052.02 210.7 1049.66 208.7 1049.66 206.08C1049.66 203.32 1052.32 201.22 1056.2 201.22C1060.1 201.22 1062.78 203.32 1062.78 206.08C1062.78 208.7 1060.4 210.7 1056.9 210.92V215.1H1064.96V216.18ZM1061.44 206.08C1061.44 203.82 1059.16 202.3 1056.2 202.3C1053.26 202.3 1050.98 203.82 1050.98 206.08C1050.98 208.36 1053.26 209.86 1056.2 209.86C1059.16 209.86 1061.44 208.36 1061.44 206.08ZM1078.02 217.8H1076.72V208.3H1074.02V213.96H1067.2V202.18H1074.02V207.18H1076.72V201.16H1078.02V217.8ZM1072.68 212.88V203.26H1068.5V212.88H1072.68ZM1081.54 218.64H1080.22V200.86H1081.54V218.64Z" fill="white"/>
<path d="M259.48 632.28H256.8V611.8H248.4C248.2 620 244.36 624.76 239.28 624.76C234.08 624.76 230.2 619.76 230.2 611.2C230.2 602.68 234.08 597.68 239.28 597.68C244.12 597.68 247.92 602.08 248.36 609.6H256.8V596.72H259.48V632.28ZM239.28 622.6C243 622.6 245.72 618.56 245.72 611.2C245.72 603.88 243 599.84 239.28 599.84C235.56 599.84 232.88 603.88 232.88 611.2C232.88 618.56 235.56 622.6 239.28 622.6ZM290.757 622.56L288.917 624.16C286.357 621.8 284.477 618.36 283.637 615.2C282.837 618.68 280.397 622.92 278.077 624.88C275.797 622.92 273.357 618.68 272.517 615.2C271.717 618.6 269.717 622.12 266.837 624.84L264.797 623.32C268.437 620.12 271.157 614.88 271.157 607.12V601.24H266.877V599.08H277.477V601.24H273.877V607.12C273.877 613.52 275.837 618.32 278.077 621.44C280.397 618.32 282.277 613.52 282.277 607.12V601.24H278.757V599.08H289.357V601.24H284.997V607.12C284.997 614.52 287.757 619.68 290.757 622.56ZM297.117 632.28H294.517V596.72H297.117V632.28ZM336.514 627.08H301.554V624.92H336.514V627.08ZM335.754 615.68L333.914 617.52C330.594 615.52 327.514 612.2 326.434 609.04C325.074 612.36 322.154 615.64 318.994 617.52C315.874 615.64 312.914 612.36 311.554 609.04C310.554 612.2 307.434 615.52 304.114 617.52L302.314 615.68C306.474 613.44 310.274 608.84 310.274 603.24V598.4H312.954V603.24C312.954 608.16 316.194 612.72 318.994 614.52C321.794 612.72 325.074 608.16 325.074 603.24V598.4H327.754V603.24C327.754 608.84 331.514 613.44 335.754 615.68ZM352.671 626.24L350.311 624.96C356.191 618.28 358.711 609.96 359.111 601.24H352.031V599.08H361.871C361.671 610.52 358.711 618.96 352.671 626.24ZM341.271 624.08L338.911 622.84C344.911 616.68 347.511 608.68 347.951 601.24H340.791V599.08H350.791C350.511 609.32 347.311 617.52 341.271 624.08ZM369.191 632.28H366.631V596.72H369.191V610.6H374.351V612.88H369.191V632.28ZM406.588 618.48H403.908V596.72H406.588V618.48ZM407.268 625.84C407.268 629.88 402.348 632.88 394.268 632.88C386.268 632.88 381.348 629.88 381.348 625.84C381.348 621.76 386.268 618.76 394.268 618.76C402.348 618.76 407.268 621.76 407.268 625.84ZM404.548 625.84C404.548 622.72 400.188 620.92 394.268 620.92C388.388 620.92 384.068 622.72 384.068 625.84C384.068 628.92 388.388 630.72 394.268 630.72C400.188 630.72 404.548 628.92 404.548 625.84ZM396.148 606.24C396.148 611.16 392.228 615.08 386.548 615.08C380.788 615.08 376.908 611.16 376.908 606.24C376.908 601.32 380.788 597.36 386.548 597.36C392.228 597.36 396.148 601.32 396.148 606.24ZM393.468 606.24C393.468 602.48 390.908 599.52 386.548 599.52C382.148 599.52 379.628 602.48 379.628 606.24C379.628 609.96 382.148 612.92 386.548 612.92C390.908 612.92 393.468 609.96 393.468 606.24Z" fill="white"/>
<path d="M820.2 725.74H818.86V714.86H820.2V725.74ZM820.54 729.42C820.54 731.44 818.08 732.94 814.04 732.94C810.04 732.94 807.58 731.44 807.58 729.42C807.58 727.38 810.04 725.88 814.04 725.88C818.08 725.88 820.54 727.38 820.54 729.42ZM819.18 729.42C819.18 727.86 817 726.96 814.04 726.96C811.1 726.96 808.94 727.86 808.94 729.42C808.94 730.96 811.1 731.86 814.04 731.86C817 731.86 819.18 730.96 819.18 729.42ZM814.98 719.62C814.98 722.08 813.02 724.04 810.18 724.04C807.3 724.04 805.36 722.08 805.36 719.62C805.36 717.16 807.3 715.18 810.18 715.18C813.02 715.18 814.98 717.16 814.98 719.62ZM813.64 719.62C813.64 717.74 812.36 716.26 810.18 716.26C807.98 716.26 806.72 717.74 806.72 719.62C806.72 721.48 807.98 722.96 810.18 722.96C812.36 722.96 813.64 721.48 813.64 719.62Z" fill="white"/>
<path d="M494.58 479.54C494.58 486.14 487.38 490.82 474.6 490.82C461.88 490.82 454.62 486.14 454.62 479.54C454.62 473 461.88 468.32 474.6 468.32C487.38 468.32 494.58 473 494.58 479.54ZM490.56 479.54C490.56 474.68 484.56 471.44 474.6 471.44C464.64 471.44 458.64 474.68 458.64 479.54C458.64 484.46 464.64 487.7 474.6 487.7C484.56 487.7 490.56 484.46 490.56 479.54ZM500.82 461.66H448.5V458.42H487.92C489.12 453.08 490.08 446.12 490.26 441.56H454.86V438.32H494.34C494.1 445.76 492.96 453.32 491.82 458.42H500.82V461.66ZM542.695 487.4H538.855V460.04H530.215C528.355 467.36 525.295 474.14 521.035 480.14L517.315 478.34C524.995 468.56 528.235 455.18 528.595 443.72H521.155V440.48H532.735C532.615 446.12 532.015 451.52 530.935 456.68H538.855V437.48H542.695V487.4ZM552.475 489.92H548.575V436.58H552.475V489.92ZM515.395 443.72H506.695V440.48H519.535C519.235 454.4 515.155 467.48 507.175 477.38C505.975 476.84 504.835 476.18 503.635 475.64C511.435 466.52 514.915 453.86 515.395 443.72Z" fill="white"/>
<path d="M305.52 452.64L304.64 453.48C303.56 452.2 302.78 450.54 302.46 449.1C302.1 450.76 301.16 452.64 300.04 453.84C298.94 452.64 297.98 450.76 297.62 449.1C297.26 450.66 296.34 452.46 295.18 453.8L294.1 453.14C295.58 451.56 297 448.84 297 444.94V440.76H298.28V444.94C298.28 447.72 299.02 450.3 300.04 451.92C301.06 450.3 301.78 447.72 301.78 444.94V440.76H303.1V444.94C303.1 448.44 304.26 451.16 305.52 452.64ZM307.78 456.8H306.52V446.9H304.14V445.78H306.52V440.16H307.78V456.8ZM310.94 457.64H309.64V439.86H310.94V457.64ZM328.098 457.64H326.798V439.86H328.098V446.58H330.658V447.72H328.098V457.64ZM318.718 453.12H313.738V440.84H314.978V445.56H317.478V440.84H318.718V453.12ZM317.478 452.06V446.62H314.978V452.06H317.478ZM324.938 453.12H319.938V440.84H321.198V445.56H323.698V440.84H324.938V453.12ZM323.698 452.06V446.62H321.198V452.06H323.698ZM343.617 452.58L342.797 453.54C340.517 452.24 338.237 449.96 337.477 447.76C336.777 450.22 334.677 452.52 332.097 454.06L331.197 453.18C334.117 451.54 336.717 448.48 336.717 444.34V442.12H332.237V441.04H342.497V442.12H338.137V444.34C338.137 448.4 341.057 451.26 343.617 452.58ZM347.037 457.64H345.697V439.86H347.037V457.64ZM350.915 453.82L349.895 452.96C354.035 450.64 356.175 446.2 356.415 442.24H350.895V441.16H357.855C357.755 446.66 355.115 451.26 350.915 453.82ZM361.875 456.8H360.575V447.7H357.535V446.58H360.575V440.16H361.875V456.8ZM365.535 457.64H364.215V439.86H365.535V457.64Z" fill="white"/>
<path d="M332.2 103.08H330.86V98.64H326.78C326.62 100.82 324.76 102.52 322.1 102.52C319.26 102.52 317.36 100.64 317.36 98.3C317.36 95.98 319.26 94.1 322.1 94.1C324.6 94.1 326.36 95.58 326.74 97.54H330.86V93.86H332.2V103.08ZM332.6 111.44H320.3V107.16H330.84V105.06H320.3V104.02H332.18V108.16H321.64V110.38H332.6V111.44ZM325.46 98.3C325.46 96.54 324.24 95.16 322.1 95.16C319.94 95.16 318.72 96.54 318.72 98.3C318.72 100.06 319.94 101.46 322.1 101.46C324.24 101.46 325.46 100.06 325.46 98.3ZM347.058 103.02L346.318 103.98C344.178 103.36 342.078 101.82 341.258 100.12C340.598 101.9 338.438 103.7 335.978 104.64L335.178 103.7C338.058 102.8 340.518 100.26 340.518 98.08V97.72H336.198V96.64H346.158V97.72H341.938V98.08C341.938 100.24 344.458 102.36 347.058 103.02ZM350.558 111.74H349.218V106.82H338.278V105.72H350.558V111.74ZM350.598 104.76H349.258V100.3H345.718V99.22H349.258V93.86H350.598V104.76ZM343.978 95H338.378V93.94H343.978V95ZM374.622 103.34H373.282V98.96H369.382C369.102 101.08 367.242 102.72 364.602 102.72C361.722 102.72 359.782 100.8 359.782 98.44C359.782 96.08 361.722 94.18 364.602 94.18C367.202 94.18 369.062 95.78 369.382 97.84H373.282V93.86H374.622V103.34ZM376.562 110.78L375.662 111.64C374.282 110.86 373.062 109.4 372.582 108C372.082 109.52 370.962 110.82 369.522 111.66L368.642 110.82V111.44H362.082V104.2H363.402V106.6H367.322V104.2H368.642V110.78C370.382 109.84 371.902 108 371.902 105.58V104.2H373.282V105.58C373.282 107.92 374.862 109.86 376.562 110.78ZM368.062 98.44C368.062 96.68 366.782 95.26 364.602 95.26C362.402 95.26 361.142 96.68 361.142 98.44C361.142 100.22 362.402 101.64 364.602 101.64C366.782 101.64 368.062 100.22 368.062 98.44ZM367.322 110.4V107.62H363.402V110.4H367.322ZM392.08 111.64H390.76V93.86H392.08V100.2H395.08V101.34H392.08V111.64ZM389.9 105.16V106.24C387.66 106.7 384.16 106.92 381.48 106.92H378.72V95.04H387.3V96.12H380.04V105.82H381.48C384.16 105.82 387.5 105.6 389.9 105.16Z" fill="white"/>
<path d="M141.9 445.44H128.92V441.32H140.12V439.4H128.92V438.34H141.46V442.32H130.26V444.38H141.9V445.44ZM143.94 436.58H126.5V435.52H134.52V432.96H135.9V435.52H143.94V436.58ZM142.86 433.1L142.14 434.04C139.22 433.52 136.3 432.16 135.2 430.24C134.12 432.16 131.18 433.52 128.3 434.04L127.58 433.1C130.8 432.62 134.5 430.82 134.5 428.44V427.82H135.92V428.44C135.92 430.82 139.62 432.62 142.86 433.1ZM156.858 437.22L156.118 438.2C153.898 437.48 151.818 435.88 151.038 434.16C150.398 435.92 148.238 437.8 145.758 438.78L144.958 437.86C147.798 436.92 150.298 434.42 150.298 432.08V431.72H145.998V430.64H155.938V431.72H151.718V432.08C151.718 434.26 154.218 436.52 156.858 437.22ZM160.038 441.2H158.718V427.86H160.038V433.14H162.658V434.26H160.038V441.2ZM160.778 445.36H148.398V440H149.738V444.28H160.778V445.36ZM153.778 429H148.178V427.94H153.778V429ZM172.077 429.46H166.537V428.38H172.077V429.46ZM178.397 445.64H177.077V427.86H178.397V435.2H181.277V436.34H178.397V445.64ZM173.917 438.16C173.917 440.5 172.077 442.38 169.377 442.38C166.677 442.38 164.837 440.5 164.837 438.16C164.837 435.82 166.677 433.92 169.377 433.92C172.077 433.92 173.917 435.8 173.917 438.16ZM172.597 438.16C172.597 436.28 171.337 434.98 169.397 434.98C167.437 434.98 166.177 436.26 166.177 438.16C166.177 440.04 167.437 441.32 169.397 441.32C171.337 441.32 172.597 440.04 172.597 438.16ZM174.817 432.42H163.837V431.34H174.817V432.42ZM196.455 445.64H195.135V427.86H196.455V434.2H199.455V435.34H196.455V445.64ZM194.275 439.16V440.24C192.035 440.7 188.535 440.92 185.855 440.92H183.095V429.04H191.675V430.12H184.415V439.82H185.855C188.535 439.82 191.875 439.6 194.275 439.16Z" fill="white"/>
<path d="M1275.9 612.44H1262.92V608.32H1274.12V606.4H1262.92V605.34H1275.46V609.32H1264.26V611.38H1275.9V612.44ZM1277.94 603.58H1260.5V602.52H1268.52V599.96H1269.9V602.52H1277.94V603.58ZM1276.86 600.1L1276.14 601.04C1273.22 600.52 1270.3 599.16 1269.2 597.24C1268.12 599.16 1265.18 600.52 1262.3 601.04L1261.58 600.1C1264.8 599.62 1268.5 597.82 1268.5 595.44V594.82H1269.92V595.44C1269.92 597.82 1273.62 599.62 1276.86 600.1ZM1290.86 604.22L1290.12 605.2C1287.9 604.48 1285.82 602.88 1285.04 601.16C1284.4 602.92 1282.24 604.8 1279.76 605.78L1278.96 604.86C1281.8 603.92 1284.3 601.42 1284.3 599.08V598.72H1280V597.64H1289.94V598.72H1285.72V599.08C1285.72 601.26 1288.22 603.52 1290.86 604.22ZM1294.04 608.2H1292.72V594.86H1294.04V600.14H1296.66V601.26H1294.04V608.2ZM1294.78 612.36H1282.4V607H1283.74V611.28H1294.78V612.36ZM1287.78 596H1282.18V594.94H1287.78V596ZM1306.08 596.46H1300.54V595.38H1306.08V596.46ZM1312.4 612.64H1311.08V594.86H1312.4V602.2H1315.28V603.34H1312.4V612.64ZM1307.92 605.16C1307.92 607.5 1306.08 609.38 1303.38 609.38C1300.68 609.38 1298.84 607.5 1298.84 605.16C1298.84 602.82 1300.68 600.92 1303.38 600.92C1306.08 600.92 1307.92 602.8 1307.92 605.16ZM1306.6 605.16C1306.6 603.28 1305.34 601.98 1303.4 601.98C1301.44 601.98 1300.18 603.26 1300.18 605.16C1300.18 607.04 1301.44 608.32 1303.4 608.32C1305.34 608.32 1306.6 607.04 1306.6 605.16ZM1308.82 599.42H1297.84V598.34H1308.82V599.42ZM1330.46 612.64H1329.14V594.86H1330.46V601.2H1333.46V602.34H1330.46V612.64ZM1328.28 606.16V607.24C1326.04 607.7 1322.54 607.92 1319.86 607.92H1317.1V596.04H1325.68V597.12H1318.42V606.82H1319.86C1322.54 606.82 1325.88 606.6 1328.28 606.16Z" fill="white"/>
<path d="M1647.74 784.08C1647.74 786.16 1645.8 787.96 1642.92 787.96C1640.02 787.96 1638.1 786.16 1638.1 784.08C1638.1 781.98 1640.02 780.18 1642.92 780.18C1645.8 780.18 1647.74 781.98 1647.74 784.08ZM1646.4 784.08C1646.4 782.6 1645.18 781.26 1642.92 781.26C1640.64 781.26 1639.44 782.6 1639.44 784.08C1639.44 785.56 1640.64 786.88 1642.92 786.88C1645.18 786.88 1646.4 785.56 1646.4 784.08ZM1651.94 797.64H1650.62V793.8H1646V792.72H1650.62V779.86H1651.94V797.64ZM1643.44 797.22H1642.12V790.62H1636.9V789.54H1643.44C1645.68 789.54 1648.16 789.34 1649.86 789.02V790.08C1648.24 790.44 1645.96 790.62 1643.44 790.62V797.22ZM1670.22 797.64H1668.88V779.86H1670.22V797.64ZM1667.94 791.16V792.24C1665.7 792.7 1662.2 792.92 1659.5 792.92H1656.54V781.04H1665.38V782.12H1657.88V791.82H1659.5C1662.2 791.82 1665.54 791.6 1667.94 791.16Z" fill="white"/>
<path d="M379 391.4V392.42C377.3 392.74 374.9 392.88 372.22 392.88H372.18V396.44H370.84V392.88H365.9V391.84H372.6C373.28 391.84 373.98 391.84 374.64 391.8C375 390.32 375.28 388.1 375.38 386.66H367.12V385.6H376.78C376.68 387.8 376.36 390.12 375.98 391.74C377.1 391.66 378.14 391.54 379 391.4ZM381.5 402.36H368.98V397.34H370.32V401.26H381.5V402.36ZM381.1 398.5H379.76V384.86H381.1V398.5ZM401.518 401.82L400.678 402.72C399.118 401.92 397.518 400.4 396.998 398.94C396.478 400.34 395.038 401.9 393.638 402.66C392.218 401.9 390.758 400.34 390.258 398.94C389.718 400.4 388.138 401.92 386.578 402.72L385.738 401.82C387.618 400.96 389.578 398.92 389.578 396.76V395.98H390.918V396.76C390.918 398.6 392.398 400.48 393.638 401.26C394.858 400.48 396.338 398.6 396.338 396.76V395.98H397.678V396.76C397.678 398.92 399.658 400.96 401.518 401.82ZM394.378 389.62C394.378 392.08 392.418 394.04 389.578 394.04C386.698 394.04 384.758 392.08 384.758 389.62C384.758 387.16 386.698 385.18 389.578 385.18C392.418 385.18 394.378 387.16 394.378 389.62ZM393.038 389.62C393.038 387.74 391.758 386.26 389.578 386.26C387.378 386.26 386.118 387.74 386.118 389.62C386.118 391.48 387.378 392.96 389.578 392.96C391.758 392.96 393.038 391.48 393.038 389.62ZM399.598 395.2H398.258V384.86H399.598V395.2ZM417.057 402.64H415.737V384.86H417.057V391.2H420.057V392.34H417.057V402.64ZM414.877 396.16V397.24C412.637 397.7 409.137 397.92 406.457 397.92H403.697V386.04H412.277V387.12H405.017V396.82H406.457C409.137 396.82 412.477 396.6 414.877 396.16Z" fill="white"/>
<path d="M476.48 587.28H473.8V551.72H476.48V587.28ZM469.12 577L467.52 578.92C462.76 576.32 458.28 571.48 456.88 566.92C455.4 571.96 451.6 576.6 446.12 579.96L444.32 578.28C450.48 574.68 455.36 568.48 455.36 560V553.28H458.2V560C458.2 568.16 463.56 574.24 469.12 577ZM511.877 573.64H509.237V551.72H511.877V560.04H517.317V562.28H511.877V573.64ZM500.237 587.88C492.397 587.88 487.677 585 487.677 581.08C487.677 577.2 492.397 574.32 500.237 574.32C507.997 574.32 512.717 577.2 512.717 581.08C512.717 585 507.997 587.88 500.237 587.88ZM500.237 576.48C494.517 576.48 490.357 578.2 490.357 581.08C490.357 584 494.517 585.72 500.237 585.72C505.917 585.72 510.077 584 510.077 581.08C510.077 578.2 505.917 576.48 500.237 576.48ZM501.197 570.04H484.317V552.96H486.997V559.28H498.517V552.96H501.197V570.04ZM498.517 567.88V561.4H486.997V567.88H498.517Z" fill="white"/>
<path d="M718 771.8V773.84C714.6 774.48 709.8 774.76 704.44 774.76H704.36V781.88H701.68V774.76H691.8V772.68H705.2C706.56 772.68 707.96 772.68 709.28 772.6C710 769.64 710.56 765.2 710.76 762.32H694.24V760.2H713.56C713.36 764.6 712.72 769.24 711.96 772.48C714.2 772.32 716.28 772.08 718 771.8ZM723 793.72H697.96V783.68H700.64V791.52H723V793.72ZM722.2 786H719.52V758.72H722.2V786ZM763.037 792.64L761.357 794.44C758.237 792.84 755.037 789.8 753.997 786.88C752.957 789.68 750.077 792.8 747.277 794.32C744.437 792.8 741.517 789.68 740.517 786.88C739.437 789.8 736.277 792.84 733.157 794.44L731.477 792.64C735.237 790.92 739.157 786.84 739.157 782.52V780.96H741.837V782.52C741.837 786.2 744.797 789.96 747.277 791.52C749.717 789.96 752.677 786.2 752.677 782.52V780.96H755.357V782.52C755.357 786.84 759.317 790.92 763.037 792.64ZM748.757 768.24C748.757 773.16 744.837 777.08 739.157 777.08C733.397 777.08 729.517 773.16 729.517 768.24C729.517 763.32 733.397 759.36 739.157 759.36C744.837 759.36 748.757 763.32 748.757 768.24ZM746.077 768.24C746.077 764.48 743.517 761.52 739.157 761.52C734.757 761.52 732.237 764.48 732.237 768.24C732.237 771.96 734.757 774.92 739.157 774.92C743.517 774.92 746.077 771.96 746.077 768.24ZM759.197 779.4H756.517V758.72H759.197V779.4ZM794.114 794.28H791.474V758.72H794.114V771.4H800.114V773.68H794.114V794.28ZM789.754 781.32V783.48C785.274 784.4 778.274 784.84 772.914 784.84H767.394V761.08H784.554V763.24H770.034V782.64H772.914C778.274 782.64 784.954 782.2 789.754 781.32Z" fill="white"/>
</g>
<defs>
<clipPath id="clip0_355_11">
<rect width="1920" height="1080" fill="white"/>
</clipPath>
</defs>
</svg>
