<svg width="147" height="46" viewBox="0 0 147 46" fill="none" xmlns="http://www.w3.org/2000/svg">
<rect x="0.5" y="0.5" width="146" height="45" fill="#00B7AB"/>
<rect x="0.5" y="0.5" width="146" height="45" stroke="black"/>
<path d="M23.04 28.8L23.24 29.8C22.22 30.12 20.98 30.24 19.8 30.24C15.98 30.24 14.16 27.68 14.14 24.34C14.1 21.24 15.98 18.6 19.2 18.62C22.5 18.62 23.98 20.76 23.98 23.94V24.66H15.42C15.5 27.16 16.92 29.26 19.84 29.24C20.86 29.24 22.02 29.12 23.04 28.8ZM15.38 23.68H22.72C22.72 23.64 22.76 23.46 22.72 23.42C22.7 21.04 21.38 19.62 19.2 19.62C16.72 19.62 15.54 21.6 15.38 23.68ZM28.5397 29.66C28.5397 30.3 28.0397 30.78 27.3997 30.78C26.7197 30.78 26.2197 30.3 26.2197 29.66C26.2197 29.06 26.7197 28.54 27.3997 28.54C28.0397 28.54 28.5397 29.06 28.5397 29.66ZM40.028 29.42V27.92H39.908C39.128 29.14 37.688 29.86 36.128 29.86C33.068 29.88 31.328 27.5 31.328 24.24C31.328 21 33.108 18.62 36.208 18.64C37.788 18.64 39.088 19.3 39.888 20.48H39.988V18.9H41.268V29.6C41.268 32.68 39.148 34.24 36.108 34.24C35.048 34.24 33.668 34.08 32.648 33.74L32.928 32.72C33.928 33.1 35.048 33.24 36.108 33.24C38.728 33.24 40.028 31.82 40.028 29.42ZM39.968 25.22V23.12C39.968 21.16 38.228 19.64 36.348 19.64C33.968 19.64 32.588 21.6 32.588 24.24C32.588 26.88 33.848 28.86 36.268 28.86C38.208 28.86 39.968 27.32 39.968 25.22ZM46.9186 29.66C46.9186 30.3 46.4186 30.78 45.7786 30.78C45.0986 30.78 44.5986 30.3 44.5986 29.66C44.5986 29.06 45.0986 28.54 45.7786 28.54C46.4186 28.54 46.9186 29.06 46.9186 29.66ZM70.1919 31.44H58.1119V27.16H68.4519V25.06H58.1119V24.02H69.7719V28.16H59.4519V30.38H70.1919V31.44ZM66.6319 21.32L65.9319 22.32C63.7719 21.78 61.6919 20.34 60.8119 18.58C60.0319 20.42 57.8719 22.04 55.5119 22.92L54.7319 22C57.4519 21.08 60.0719 18.86 60.0719 16.14V15.82H55.7319V14.78H65.7119V15.82H61.4919V16.14C61.4919 18.86 64.0119 20.7 66.6319 21.32ZM69.8119 23.08H68.4919V13.86H69.8119V17.4H72.4319V18.5H69.8119V23.08ZM74.3103 27.84L73.4503 26.94C78.1703 24.64 80.8103 20.64 81.3103 16.12H74.5503V15.04H82.7703C82.4903 21.06 79.0303 25.46 74.3103 27.84ZM87.8303 31.64H86.5103V13.86H87.8303V20.8H90.8303V21.94H87.8303V31.64ZM106.229 31.64H104.909V13.86H106.229V20.6H109.229V21.74H106.229V31.64ZM104.049 25.56V26.66C101.809 27.1 98.3088 27.32 95.6288 27.32H92.6488V20.5H99.8488V16.02H92.6488V14.94H101.189V21.56H94.0088V26.22H95.6288C98.3088 26.22 101.649 26.02 104.049 25.56ZM125.567 24.74H124.227V13.86H125.567V24.74ZM125.907 28.42C125.907 30.44 123.447 31.94 119.407 31.94C115.407 31.94 112.947 30.44 112.947 28.42C112.947 26.38 115.407 24.88 119.407 24.88C123.447 24.88 125.907 26.38 125.907 28.42ZM124.547 28.42C124.547 26.86 122.367 25.96 119.407 25.96C116.467 25.96 114.307 26.86 114.307 28.42C114.307 29.96 116.467 30.86 119.407 30.86C122.367 30.86 124.547 29.96 124.547 28.42ZM120.347 18.62C120.347 21.08 118.387 23.04 115.547 23.04C112.667 23.04 110.727 21.08 110.727 18.62C110.727 16.16 112.667 14.18 115.547 14.18C118.387 14.18 120.347 16.16 120.347 18.62ZM119.007 18.62C119.007 16.74 117.727 15.26 115.547 15.26C113.347 15.26 112.087 16.74 112.087 18.62C112.087 20.48 113.347 21.96 115.547 21.96C117.727 21.96 119.007 20.48 119.007 18.62ZM131.626 29.66C131.626 30.3 131.126 30.78 130.486 30.78C129.806 30.78 129.306 30.3 129.306 29.66C129.306 29.06 129.806 28.54 130.486 28.54C131.126 28.54 131.626 29.06 131.626 29.66Z" fill="white"/>
</svg>
