<svg width="133" height="46" viewBox="0 0 133 46" fill="none" xmlns="http://www.w3.org/2000/svg">
<rect x="0.5" y="0.5" width="132" height="45" fill="#00B7AB"/>
<rect x="0.5" y="0.5" width="132" height="45" stroke="black"/>
<path d="M23.04 28.8L23.24 29.8C22.22 30.12 20.98 30.24 19.8 30.24C15.98 30.24 14.16 27.68 14.14 24.34C14.1 21.24 15.98 18.6 19.2 18.62C22.5 18.62 23.98 20.76 23.98 23.94V24.66H15.42C15.5 27.16 16.92 29.26 19.84 29.24C20.86 29.24 22.02 29.12 23.04 28.8ZM15.38 23.68H22.72C22.72 23.64 22.76 23.46 22.72 23.42C22.7 21.04 21.38 19.62 19.2 19.62C16.72 19.62 15.54 21.6 15.38 23.68ZM28.5397 29.66C28.5397 30.3 28.0397 30.78 27.3997 30.78C26.7197 30.78 26.2197 30.3 26.2197 29.66C26.2197 29.06 26.7197 28.54 27.3997 28.54C28.0397 28.54 28.5397 29.06 28.5397 29.66ZM40.028 29.42V27.92H39.908C39.128 29.14 37.688 29.86 36.128 29.86C33.068 29.88 31.328 27.5 31.328 24.24C31.328 21 33.108 18.62 36.208 18.64C37.788 18.64 39.088 19.3 39.888 20.48H39.988V18.9H41.268V29.6C41.268 32.68 39.148 34.24 36.108 34.24C35.048 34.24 33.668 34.08 32.648 33.74L32.928 32.72C33.928 33.1 35.048 33.24 36.108 33.24C38.728 33.24 40.028 31.82 40.028 29.42ZM39.968 25.22V23.12C39.968 21.16 38.228 19.64 36.348 19.64C33.968 19.64 32.588 21.6 32.588 24.24C32.588 26.88 33.848 28.86 36.268 28.86C38.208 28.86 39.968 27.32 39.968 25.22ZM46.9186 29.66C46.9186 30.3 46.4186 30.78 45.7786 30.78C45.0986 30.78 44.5986 30.3 44.5986 29.66C44.5986 29.06 45.0986 28.54 45.7786 28.54C46.4186 28.54 46.9186 29.06 46.9186 29.66ZM65.7919 20.9H56.6119V14.74H65.7919V20.9ZM70.1119 31.64H68.7919V27.68H64.1719V26.6H68.7919V13.86H70.1119V31.64ZM64.4519 19.82V15.82H57.9519V19.82H64.4519ZM61.6119 31.24H60.2919V24.4H55.0719V23.32H61.6119C63.8519 23.32 66.3319 23.1 68.0319 22.8V23.86C66.4119 24.2 64.1319 24.38 61.6119 24.4V31.24ZM88.8103 31.64H87.4703V22.88H84.3703V21.76H87.4703V13.86H88.8103V31.64ZM81.8503 15.46H76.3103V14.38H81.8503V15.46ZM83.6903 24.16C83.6903 26.5 81.8503 28.38 79.1503 28.38C76.4503 28.38 74.6103 26.5 74.6103 24.16C74.6103 21.82 76.4503 19.92 79.1503 19.92C81.8503 19.92 83.6903 21.8 83.6903 24.16ZM82.3703 24.16C82.3703 22.28 81.1103 20.98 79.1703 20.98C77.2103 20.98 75.9503 22.26 75.9503 24.16C75.9503 26.04 77.2103 27.32 79.1703 27.32C81.1103 27.32 82.3703 26.04 82.3703 24.16ZM84.5903 18.42H73.6103V17.34H84.5903V18.42ZM106.229 31.64H104.909V13.86H106.229V17.22H109.129V18.36H106.229V22.66H109.129V23.8H106.229V31.64ZM104.049 25.14V26.22C101.809 26.68 98.3088 26.88 95.6288 26.88H92.8688V14.68H94.1888V25.78H95.6288C98.3088 25.78 101.649 25.58 104.049 25.14ZM114.407 26.6H113.247V25.74C113.247 23.92 113.687 22.84 115.467 21.38C116.607 20.44 117.387 19.22 117.387 18.08C117.387 16.2 115.827 15.4 114.167 15.4C113.187 15.4 111.707 15.8 110.667 16.42L110.187 15.52C111.267 14.88 112.907 14.38 114.267 14.38C116.527 14.38 118.667 15.44 118.667 18.04C118.667 19.5 117.907 20.74 116.547 21.88C114.807 23.38 114.407 24.1 114.407 25.82V26.6ZM114.967 29.84C114.967 30.46 114.467 30.94 113.847 30.94C113.167 30.94 112.687 30.46 112.687 29.84C112.687 29.26 113.167 28.74 113.847 28.74C114.467 28.74 114.967 29.26 114.967 29.84Z" fill="white"/>
</svg>
