<svg width="205" height="46" viewBox="0 0 205 46" fill="none" xmlns="http://www.w3.org/2000/svg">
<rect x="0.5" y="0.5" width="204" height="45" fill="#00B7AB"/>
<rect x="0.5" y="0.5" width="204" height="45" stroke="black"/>
<path d="M23.04 28.8L23.24 29.8C22.22 30.12 20.98 30.24 19.8 30.24C15.98 30.24 14.16 27.68 14.14 24.34C14.1 21.24 15.98 18.6 19.2 18.62C22.5 18.62 23.98 20.76 23.98 23.94V24.66H15.42C15.5 27.16 16.92 29.26 19.84 29.24C20.86 29.24 22.02 29.12 23.04 28.8ZM15.38 23.68H22.72C22.72 23.64 22.76 23.46 22.72 23.42C22.7 21.04 21.38 19.62 19.2 19.62C16.72 19.62 15.54 21.6 15.38 23.68ZM28.5397 29.66C28.5397 30.3 28.0397 30.78 27.3997 30.78C26.7197 30.78 26.2197 30.3 26.2197 29.66C26.2197 29.06 26.7197 28.54 27.3997 28.54C28.0397 28.54 28.5397 29.06 28.5397 29.66ZM40.028 29.42V27.92H39.908C39.128 29.14 37.688 29.86 36.128 29.86C33.068 29.88 31.328 27.5 31.328 24.24C31.328 21 33.108 18.62 36.208 18.64C37.788 18.64 39.088 19.3 39.888 20.48H39.988V18.9H41.268V29.6C41.268 32.68 39.148 34.24 36.108 34.24C35.048 34.24 33.668 34.08 32.648 33.74L32.928 32.72C33.928 33.1 35.048 33.24 36.108 33.24C38.728 33.24 40.028 31.82 40.028 29.42ZM39.968 25.22V23.12C39.968 21.16 38.228 19.64 36.348 19.64C33.968 19.64 32.588 21.6 32.588 24.24C32.588 26.88 33.848 28.86 36.268 28.86C38.208 28.86 39.968 27.32 39.968 25.22ZM46.9186 29.66C46.9186 30.3 46.4186 30.78 45.7786 30.78C45.0986 30.78 44.5986 30.3 44.5986 29.66C44.5986 29.06 45.0986 28.54 45.7786 28.54C46.4186 28.54 46.9186 29.06 46.9186 29.66ZM69.9919 31.64H68.6519V13.86H69.9919V31.64ZM67.7119 25.14V26.22C65.4719 26.68 61.9719 26.88 59.2719 26.88H56.3119V14.7H57.6519V25.78H59.2719C61.9719 25.78 65.3119 25.58 67.7119 25.14ZM94.4353 31.64H93.0953V13.86H94.4353V31.64ZM90.7553 26.5L89.9553 27.46C87.5753 26.16 85.3353 23.74 84.6353 21.46C83.8953 23.98 81.9953 26.3 79.2553 27.98L78.3553 27.14C81.4353 25.34 83.8753 22.24 83.8753 18V14.64H85.2953V18C85.2953 22.08 87.9753 25.12 90.7553 26.5ZM112.134 24.82H110.814V13.86H112.134V18.02H114.854V19.14H112.134V24.82ZM106.314 31.94C102.394 31.94 100.034 30.5 100.034 28.54C100.034 26.6 102.394 25.16 106.314 25.16C110.194 25.16 112.554 26.6 112.554 28.54C112.554 30.5 110.194 31.94 106.314 31.94ZM106.314 26.24C103.454 26.24 101.374 27.1 101.374 28.54C101.374 30 103.454 30.86 106.314 30.86C109.154 30.86 111.234 30 111.234 28.54C111.234 27.1 109.154 26.24 106.314 26.24ZM106.794 23.02H98.3538V14.48H99.6938V17.64H105.454V14.48H106.794V23.02ZM105.454 21.94V18.7H99.6938V21.94H105.454ZM132.237 20.9H123.057V14.74H132.237V20.9ZM136.557 31.64H135.237V27.68H130.617V26.6H135.237V13.86H136.557V31.64ZM130.897 19.82V15.82H124.397V19.82H130.897ZM128.057 31.24H126.737V24.4H121.517V23.32H128.057C130.297 23.32 132.777 23.1 134.477 22.8V23.86C132.857 24.2 130.577 24.38 128.057 24.4V31.24ZM160.401 27.2H159.061V13.86H160.401V19.34H163.121V20.46H160.401V27.2ZM161.141 31.36H148.761V26.2H150.081V30.28H161.141V31.36ZM156.741 17.64H145.801V16.6H156.741V17.64ZM154.101 14.98H148.401V13.94H154.101V14.98ZM151.301 24.86C148.541 24.86 146.761 23.48 146.761 21.78C146.761 20.08 148.541 18.7 151.301 18.7C154.041 18.7 155.841 20.08 155.841 21.78C155.841 23.48 154.041 24.86 151.301 24.86ZM151.301 19.72C149.281 19.72 148.101 20.6 148.101 21.78C148.101 22.98 149.281 23.86 151.301 23.86C153.321 23.86 154.501 22.96 154.501 21.78C154.501 20.6 153.321 19.72 151.301 19.72ZM178.859 31.64H177.519V13.86H178.859V31.64ZM176.579 25.16V26.24C174.339 26.7 170.839 26.92 168.139 26.92H165.179V15.04H174.019V16.12H166.519V25.82H168.139C170.839 25.82 174.179 25.6 176.579 25.16ZM186.478 26.6H185.318V25.74C185.318 23.92 185.758 22.84 187.538 21.38C188.678 20.44 189.458 19.22 189.458 18.08C189.458 16.2 187.898 15.4 186.238 15.4C185.258 15.4 183.778 15.8 182.738 16.42L182.258 15.52C183.338 14.88 184.978 14.38 186.338 14.38C188.598 14.38 190.738 15.44 190.738 18.04C190.738 19.5 189.978 20.74 188.618 21.88C186.878 23.38 186.478 24.1 186.478 25.82V26.6ZM187.038 29.84C187.038 30.46 186.538 30.94 185.918 30.94C185.238 30.94 184.758 30.46 184.758 29.84C184.758 29.26 185.238 28.74 185.918 28.74C186.538 28.74 187.038 29.26 187.038 29.84Z" fill="white"/>
</svg>
