<svg width="195" height="46" viewBox="0 0 195 46" fill="none" xmlns="http://www.w3.org/2000/svg">
<rect x="0.5" y="0.5" width="194" height="45" fill="#00B7AB"/>
<rect x="0.5" y="0.5" width="194" height="45" stroke="black"/>
<path d="M23.04 28.8L23.24 29.8C22.22 30.12 20.98 30.24 19.8 30.24C15.98 30.24 14.16 27.68 14.14 24.34C14.1 21.24 15.98 18.6 19.2 18.62C22.5 18.62 23.98 20.76 23.98 23.94V24.66H15.42C15.5 27.16 16.92 29.26 19.84 29.24C20.86 29.24 22.02 29.12 23.04 28.8ZM15.38 23.68H22.72C22.72 23.64 22.76 23.46 22.72 23.42C22.7 21.04 21.38 19.62 19.2 19.62C16.72 19.62 15.54 21.6 15.38 23.68ZM28.5397 29.66C28.5397 30.3 28.0397 30.78 27.3997 30.78C26.7197 30.78 26.2197 30.3 26.2197 29.66C26.2197 29.06 26.7197 28.54 27.3997 28.54C28.0397 28.54 28.5397 29.06 28.5397 29.66ZM40.028 29.42V27.92H39.908C39.128 29.14 37.688 29.86 36.128 29.86C33.068 29.88 31.328 27.5 31.328 24.24C31.328 21 33.108 18.62 36.208 18.64C37.788 18.64 39.088 19.3 39.888 20.48H39.988V18.9H41.268V29.6C41.268 32.68 39.148 34.24 36.108 34.24C35.048 34.24 33.668 34.08 32.648 33.74L32.928 32.72C33.928 33.1 35.048 33.24 36.108 33.24C38.728 33.24 40.028 31.82 40.028 29.42ZM39.968 25.22V23.12C39.968 21.16 38.228 19.64 36.348 19.64C33.968 19.64 32.588 21.6 32.588 24.24C32.588 26.88 33.848 28.86 36.268 28.86C38.208 28.86 39.968 27.32 39.968 25.22ZM46.9186 29.66C46.9186 30.3 46.4186 30.78 45.7786 30.78C45.0986 30.78 44.5986 30.3 44.5986 29.66C44.5986 29.06 45.0986 28.54 45.7786 28.54C46.4186 28.54 46.9186 29.06 46.9186 29.66ZM69.6719 31.44H57.9919V24.2H59.3119V26.58H68.3319V24.2H69.6719V31.44ZM68.3319 30.4V27.6H59.3119V30.4H68.3319ZM69.7119 23.32H68.3919V13.86H69.7119V17.64H72.4319V18.76H69.7119V23.32ZM64.3719 22.58H55.9319V14.48H57.2719V17.42H63.0319V14.48H64.3719V22.58ZM63.0319 21.54V18.44H57.2719V21.54H63.0319ZM93.4553 31.64H92.1353V13.86H93.4553V20.2H96.4553V21.34H93.4553V31.64ZM91.2753 25.16V26.24C89.0353 26.7 85.5353 26.92 82.8553 26.92H80.0953V15.04H88.6753V16.12H81.4153V25.82H82.8553C85.5353 25.82 88.8753 25.6 91.2753 25.16ZM117.679 20.4H105.159V14.44H117.679V20.4ZM117.639 31.74H116.299V27H104.879V25.92H110.739V23.44H102.719V22.36H120.159V23.44H112.119V25.92H117.639V31.74ZM116.339 19.32V15.52H106.499V19.32H116.339ZM136.857 31.64H135.517V21.4H131.317C131.217 25.5 129.297 27.88 126.757 27.88C124.157 27.88 122.217 25.38 122.217 21.1C122.217 16.84 124.157 14.34 126.757 14.34C129.177 14.34 131.077 16.54 131.297 20.3H135.517V13.86H136.857V31.64ZM126.757 26.8C128.617 26.8 129.977 24.78 129.977 21.1C129.977 17.44 128.617 15.42 126.757 15.42C124.897 15.42 123.557 17.44 123.557 21.1C123.557 24.78 124.897 26.8 126.757 26.8ZM154.476 22.2H141.956V14.24H143.296V16.86H153.136V14.24H154.476V22.2ZM153.136 21.12V17.92H143.296V21.12H153.136ZM156.976 25.52H148.916V31.64H147.536V25.52H139.496V24.44H156.976V25.52ZM173.234 31.64H171.894V21.02H168.454V19.9H171.894V13.86H173.234V31.64ZM170.394 25.56V26.66C168.174 27.1 164.674 27.32 161.994 27.32H159.354V20.5H165.914V16.02H159.354V14.94H167.254V21.56H160.674V26.22H161.994C164.674 26.22 168.034 26.02 170.394 25.56ZM179.673 29.66C179.673 30.3 179.173 30.78 178.533 30.78C177.853 30.78 177.353 30.3 177.353 29.66C177.353 29.06 177.853 28.54 178.533 28.54C179.173 28.54 179.673 29.06 179.673 29.66Z" fill="white"/>
</svg>
