<svg width="747" height="178" viewBox="0 0 747 178" fill="none" xmlns="http://www.w3.org/2000/svg">
<rect x="0.5" y="0.5" width="746" height="177" fill="white"/>
<rect x="0.5" y="0.5" width="746" height="177" stroke="black"/>
<path d="M35.15 31.6H18.575V20.975H20.25V30.25H35.15V31.6ZM37.45 39.05H15.6V37.7H37.45V39.05ZM58.798 41.95H43.098V35.25H44.773V40.6H58.798V41.95ZM55.123 30.875V32.15C52.573 32.725 48.448 33.025 44.948 33.025H40.348V26.3H49.323V22.325H40.348V21.025H50.998V27.575H41.998V31.7H44.948C48.348 31.7 52.398 31.4 55.123 30.875ZM57.973 36.75H56.323V20.075H57.973V36.75ZM88.4023 42.05H73.0273V34.075H88.4023V42.05ZM86.7273 40.7V35.425H74.7023V40.7H86.7273ZM80.8523 29.925V31.225C78.8273 31.575 75.8023 31.775 73.2273 31.775H70.1023V21.025H79.0023V22.325H71.7773V25.7H78.1523V27H71.7773V30.425H73.2273C75.8023 30.425 78.7273 30.275 80.8523 29.925ZM84.0523 32.9H82.4023V26.525H79.1773V25.175H82.4023V20.45H84.0523V32.9ZM88.4523 32.9H86.8023V20.075H88.4523V32.9ZM113.475 39.225H91.6254V37.875H101.675V32.25H93.6254V30.9H97.2254L97.0504 22.825H94.1504V21.475H110.925V22.825H108.25L108.075 30.9H111.45V32.25H103.4V37.875H113.475V39.225ZM106.4 30.9L106.6 22.825H98.7254L98.8754 30.9H106.4ZM130.748 35.4V36.7C128.423 37.2 125.598 37.35 122.298 37.35H114.823V36H121.598V31.6C118.373 31.3 116.123 28.925 116.123 26.15C116.123 23.175 118.723 20.7 122.298 20.7C125.873 20.7 128.448 23.175 128.448 26.15C128.448 28.85 126.323 31.175 123.248 31.575V36C126.023 35.975 128.648 35.8 130.748 35.4ZM126.798 26.15C126.798 23.9 125.098 22.05 122.298 22.05C119.473 22.05 117.823 23.9 117.823 26.15C117.823 28.4 119.473 30.275 122.298 30.275C125.098 30.275 126.798 28.4 126.798 26.15ZM133.373 42.3H131.698V20.075H133.373V29.1H136.923V30.525H133.373V42.3ZM160.878 31.575V32.875C158.578 33.275 155.528 33.45 152.228 33.45H144.853V32.1H151.678V29.5C148.578 29.2 146.603 27.125 146.603 24.825C146.603 22.35 148.928 20.125 152.428 20.125C155.928 20.125 158.253 22.35 158.253 24.825C158.253 27.075 156.328 29.125 153.328 29.475V32.1C156.078 32.075 158.778 31.9 160.878 31.575ZM156.578 24.825C156.578 23.1 155.178 21.425 152.428 21.425C149.703 21.425 148.278 23.1 148.278 24.825C148.278 26.55 149.703 28.2 152.428 28.2C155.178 28.2 156.578 26.55 156.578 24.825ZM163.453 37.175H161.803V20.075H163.453V27.05H166.953V28.45H163.453V37.175ZM164.028 41.95H148.603V35.525H150.328V40.575H164.028V41.95ZM179.801 31.475H169.251V21.225H179.801V31.475ZM178.126 30.125V22.55H170.926V30.125H178.126ZM186.476 36.55H184.826V20.075H186.476V25.675H189.876V27.075H186.476V36.55ZM187.401 41.95H171.926V34.55H173.601V40.6H187.401V41.95ZM209.749 36.75H208.074V20.075H209.749V26.925H213.149V28.325H209.749V36.75ZM210.674 41.95H195.199V35.5H196.849V40.6H210.674V41.95ZM205.174 24.8H191.499V23.5H205.174V24.8ZM201.874 21.475H194.749V20.175H201.874V21.475ZM198.374 33.825C194.924 33.825 192.699 32.1 192.699 29.975C192.699 27.85 194.924 26.125 198.374 26.125C201.799 26.125 204.049 27.85 204.049 29.975C204.049 32.1 201.799 33.825 198.374 33.825ZM198.374 27.4C195.849 27.4 194.374 28.5 194.374 29.975C194.374 31.475 195.849 32.575 198.374 32.575C200.899 32.575 202.374 31.45 202.374 29.975C202.374 28.5 200.899 27.4 198.374 27.4ZM240.328 33.2H238.653V26.625H233.803C233.478 29.425 231.128 31.55 227.803 31.55C224.203 31.55 221.778 29.1 221.778 26.025C221.778 22.95 224.203 20.475 227.803 20.475C231.053 20.475 233.378 22.55 233.778 25.25H238.653V20.075H240.328V33.2ZM232.128 26.025C232.128 23.675 230.528 21.825 227.803 21.825C225.053 21.825 223.478 23.675 223.478 26.025C223.478 28.35 225.053 30.2 227.803 30.2C230.528 30.2 232.128 28.35 232.128 26.025ZM240.278 42.425H238.603V35.775H224.928V34.4H240.278V42.425ZM256.551 26.025C256.551 29.1 254.101 31.55 250.551 31.55C246.951 31.55 244.526 29.1 244.526 26.025C244.526 22.95 246.951 20.475 250.551 20.475C254.101 20.475 256.551 22.95 256.551 26.025ZM254.876 26.025C254.876 23.675 253.251 21.825 250.551 21.825C247.801 21.825 246.201 23.675 246.201 26.025C246.201 28.35 247.801 30.2 250.551 30.2C253.251 30.2 254.876 28.35 254.876 26.025ZM263.026 38.275C263.026 40.8 260.076 42.675 255.176 42.675C250.326 42.675 247.376 40.8 247.376 38.275C247.376 35.725 250.326 33.85 255.176 33.85C260.076 33.85 263.026 35.725 263.026 38.275ZM261.376 38.275C261.376 36.325 258.776 35.2 255.176 35.2C251.651 35.2 249.051 36.325 249.051 38.275C249.051 40.2 251.651 41.325 255.176 41.325C258.776 41.325 261.376 40.2 261.376 38.275ZM262.501 33.4H260.851V20.075H262.501V22.95H265.776V24.3H262.501V27.8H265.776V29.15H262.501V33.4ZM293.405 42.3H291.73V20.075H293.405V42.3ZM275.105 29.125C275.105 23.8 277.555 20.675 280.805 20.675C284.08 20.675 286.505 23.8 286.505 29.125C286.505 34.475 284.08 37.6 280.805 37.6C277.555 37.6 275.105 34.475 275.105 29.125ZM284.83 29.125C284.83 24.55 283.155 22.025 280.805 22.025C278.48 22.025 276.78 24.55 276.78 29.125C276.78 33.725 278.48 36.25 280.805 36.25C283.155 36.25 284.83 33.725 284.83 29.125ZM307.604 42.675C302.304 42.675 299.279 40.925 299.279 38.475C299.279 36.05 302.304 34.3 307.604 34.3C312.929 34.3 315.929 36.05 315.929 38.475C315.929 40.925 312.929 42.675 307.604 42.675ZM307.604 35.6C303.454 35.6 300.954 36.75 300.954 38.475C300.954 40.225 303.454 41.375 307.604 41.375C311.754 41.375 314.254 40.225 314.254 38.475C314.254 36.75 311.754 35.6 307.604 35.6ZM318.529 32.475H296.729V31.125H306.904V28.125H299.779V20.8H315.529V22.15H301.454V26.775H315.954V28.125H308.604V31.125H318.529V32.475ZM339.402 42.3H337.727V20.075H339.402V42.3ZM321.102 29.125C321.102 23.8 323.552 20.675 326.802 20.675C330.077 20.675 332.502 23.8 332.502 29.125C332.502 34.475 330.077 37.6 326.802 37.6C323.552 37.6 321.102 34.475 321.102 29.125ZM330.827 29.125C330.827 24.55 329.152 22.025 326.802 22.025C324.477 22.025 322.777 24.55 322.777 29.125C322.777 33.725 324.477 36.25 326.802 36.25C329.152 36.25 330.827 33.725 330.827 29.125ZM368.406 42.425H366.731V36.95H352.456V35.65H368.406V42.425ZM371.556 33.2H349.756V31.9H371.556V33.2ZM368.781 29.7H352.806V20.625H368.506V21.925H354.481V24.475H368.406V25.75H354.481V28.375H368.781V29.7ZM392.804 38.25C392.804 40.8 389.729 42.675 384.704 42.675C379.679 42.675 376.604 40.8 376.604 38.25C376.604 35.725 379.679 33.85 384.704 33.85C389.729 33.85 392.804 35.725 392.804 38.25ZM391.104 38.25C391.104 36.325 388.379 35.2 384.704 35.2C381.004 35.2 378.304 36.325 378.304 38.25C378.304 40.2 381.004 41.325 384.704 41.325C388.379 41.325 391.104 40.2 391.104 38.25ZM388.029 30.6L387.029 31.8C384.229 30.775 381.729 28.725 380.704 26.55C379.804 28.975 377.204 31.275 374.154 32.55L373.104 31.4C376.679 30.1 379.779 26.925 379.779 23.15V22.55H374.329V21.225H386.829V22.55H381.554V23.15C381.554 26.775 384.704 29.525 388.029 30.6ZM392.379 33.675H390.704V20.075H392.379V33.675ZM415.427 42.3H413.752V20.075H415.427V42.3ZM397.127 29.125C397.127 23.8 399.577 20.675 402.827 20.675C406.102 20.675 408.527 23.8 408.527 29.125C408.527 34.475 406.102 37.6 402.827 37.6C399.577 37.6 397.127 34.475 397.127 29.125ZM406.852 29.125C406.852 24.55 405.177 22.025 402.827 22.025C400.502 22.025 398.802 24.55 398.802 29.125C398.802 33.725 400.502 36.25 402.827 36.25C405.177 36.25 406.852 33.725 406.852 29.125ZM437.9 42.3H436.225V32.325H431.225V36.4H420.55V21.55H431.225V24.875H436.225V20.075H437.9V42.3ZM429.525 35.05V22.9H422.2V35.05H429.525ZM436.225 30.975V26.225H431.225V30.975H436.225ZM443.473 44.4L443.073 44.025C443.948 43.475 444.698 42.4 444.823 41.45C444.848 41.325 444.823 41.225 444.773 41.175C444.723 41.05 444.573 40.975 444.323 40.975C443.623 40.975 442.973 40.5 442.973 39.65C442.973 38.85 443.623 38.325 444.423 38.325C445.348 38.325 445.998 39.15 445.998 40.175C445.998 41.95 444.923 43.625 443.473 44.4ZM477.44 32.9H467.64V37.975H465.94V32.9H455.64V31.55H477.44V32.9ZM475.34 41.95H458.715V35.3H460.39V40.575H475.34V41.95ZM474.34 28.675H458.69V20.8H474.34V28.675ZM472.665 27.325V22.15H460.365V27.325H472.665ZM498.113 38.25C498.113 40.8 495.138 42.675 490.288 42.675C485.388 42.675 482.438 40.8 482.438 38.25C482.438 35.725 485.388 33.85 490.288 33.85C495.138 33.85 498.113 35.725 498.113 38.25ZM496.438 38.25C496.438 36.325 493.838 35.2 490.288 35.2C486.713 35.2 484.138 36.325 484.138 38.25C484.138 40.2 486.713 41.325 490.288 41.325C493.838 41.325 496.438 40.2 496.438 38.25ZM493.638 30.6L492.663 31.8C489.863 30.775 487.363 28.725 486.313 26.55C485.413 28.975 482.838 31.275 479.763 32.55L478.713 31.4C482.313 30.1 485.388 26.925 485.388 23.15V22.55H479.963V21.225H492.438V22.55H487.163V23.15C487.163 26.775 490.338 29.525 493.638 30.6ZM497.563 33.4H495.913V20.075H497.563V25.2H500.838V26.575H497.563V33.4ZM520.936 42.3H519.286V20.075H520.936V42.3ZM518.386 35.15V36.45C516.061 36.95 513.236 37.1 509.911 37.1H502.136V35.75H510.011C513.086 35.75 516.061 35.55 518.386 35.15ZM509.786 31.875C506.236 31.875 503.636 29.375 503.636 26.4C503.636 23.425 506.236 20.95 509.786 20.95C513.386 20.95 515.986 23.425 515.986 26.4C515.986 29.375 513.386 31.875 509.786 31.875ZM509.786 22.3C506.986 22.3 505.311 24.15 505.311 26.4C505.311 28.65 506.986 30.525 509.786 30.525C512.586 30.525 514.311 28.65 514.311 26.4C514.311 24.15 512.586 22.3 509.786 22.3ZM550.965 42.05H534.69V32.175H550.54V33.5H536.365V36.4H550.365V37.65H536.365V40.725H550.965V42.05ZM553.465 29.475H531.665V28.15H538.865C539.315 26.45 539.69 23.8 539.765 22.1H533.69V20.8H541.465C541.34 23.75 540.915 26.5 540.515 28.15H548.19C548.615 26.45 548.99 23.8 549.065 22.1H542.34V20.8H550.79C550.665 23.75 550.24 26.5 549.815 28.15H553.465V29.475ZM573.738 23.925C573.738 26.225 570.613 27.925 565.538 27.925C560.463 27.925 557.363 26.225 557.363 23.925C557.363 21.625 560.463 19.925 565.538 19.925C570.613 19.925 573.738 21.625 573.738 23.925ZM572.063 23.95C572.063 22.2 569.263 21.225 565.538 21.225C561.838 21.225 559.013 22.2 559.013 23.95C559.013 25.675 561.838 26.65 565.538 26.65C569.263 26.65 572.063 25.675 572.063 23.95ZM573.913 42.05H557.688V36.925H571.688V34.575H557.688V33.25H573.363V38.2H559.363V40.725H573.913V42.05ZM576.463 30.925H554.663V29.6H576.463V30.925ZM603.392 30.5H587.742V20.55H589.417V23.825H601.717V20.55H603.392V30.5ZM601.717 29.15V25.15H589.417V29.15H601.717ZM606.517 34.65H596.442V42.3H594.717V34.65H584.667V33.3H606.517V34.65ZM626.965 32.15H610.74V21.475H626.715V22.825H612.415V30.8H626.965V32.15ZM629.515 39.05H607.665V37.7H629.515V39.05ZM650.013 42.05H635.138V33.125H636.813V36.125H648.363V33.125H650.013V42.05ZM648.363 40.75V37.425H636.813V40.75H648.363ZM646.538 29.1V30.35C643.938 30.925 639.863 31.225 636.363 31.225H632.413V25.45H640.838V22.275H632.413V21.025H642.488V26.7H634.063V29.925H636.363C639.738 29.925 643.788 29.65 646.538 29.1ZM650.038 32.05H648.388V26.1H643.788V24.75H648.388V20.075H650.038V32.05ZM655.212 37.525L653.937 36.45C659.112 33.55 661.787 28 662.087 23.05H655.187V21.7H663.887C663.762 28.575 660.462 34.325 655.212 37.525ZM668.912 41.25H667.287V29.875H663.487V28.475H667.287V20.45H668.912V41.25ZM673.487 42.3H671.837V20.075H673.487V42.3ZM705.516 30.25H683.716V28.95H705.516V30.25ZM702.991 26.5H686.766V20.125H688.441V25.2H702.991V26.5ZM702.966 42.05H686.741V36.7H700.741V34.1H686.741V32.775H702.416V37.95H688.416V40.725H702.966V42.05ZM722.314 34.7V36.075C719.539 36.625 715.164 36.9 711.814 36.9H708.514V28.375H716.714V22.775H708.514V21.425H718.389V29.7H710.164V35.525H711.814C715.164 35.525 719.364 35.275 722.314 34.7ZM725.864 42.3H724.189V31.7H720.014V30.3H724.189V25.925H720.014V24.525H724.189V20.075H725.864V42.3ZM34.9 80.05H19.8V74.575H32.7V71.825H19.8V70.525H34.375V75.825H21.45V78.725H34.9V80.05ZM27.75 67.875H17.2V59.225H27.75V67.875ZM26.075 66.575V60.525H18.875V66.575H26.075ZM34.425 69.35H32.775V58.075H34.425V62.425H37.825V63.825H34.425V69.35ZM49.598 60.075H42.673V58.725H49.598V60.075ZM57.498 80.3H55.848V58.075H57.498V67.25H61.098V68.675H57.498V80.3ZM51.898 70.95C51.898 73.875 49.598 76.225 46.223 76.225C42.848 76.225 40.548 73.875 40.548 70.95C40.548 68.025 42.848 65.65 46.223 65.65C49.598 65.65 51.898 68 51.898 70.95ZM50.248 70.95C50.248 68.6 48.673 66.975 46.248 66.975C43.798 66.975 42.223 68.575 42.223 70.95C42.223 73.3 43.798 74.9 46.248 74.9C48.673 74.9 50.248 73.3 50.248 70.95ZM53.023 63.775H39.298V62.425H53.023V63.775ZM83.4211 70.8H61.6211V69.45H83.4211V70.8ZM80.8961 66.075H64.6711V58.15H66.3461V64.725H80.8961V66.075ZM81.3211 79.95H64.6961V73H66.3711V78.575H81.3211V79.95ZM103.35 80.675C98.3004 80.675 95.2504 78.75 95.2504 76.125C95.2504 73.525 98.3004 71.6 103.35 71.6C108.375 71.6 111.425 73.525 111.425 76.125C111.425 78.75 108.375 80.675 103.35 80.675ZM103.35 72.95C99.6504 72.95 96.9254 74.125 96.9254 76.15C96.9254 78.15 99.6504 79.325 103.35 79.325C107.05 79.325 109.75 78.15 109.75 76.15C109.75 74.125 107.05 72.95 103.35 72.95ZM93.1004 70.95L92.1504 69.75C97.6754 68.275 101.775 64.675 102.475 60.575H93.5004V59.225H104.4C103.875 65.45 98.7004 69.3 93.1004 70.95ZM111 71.425H109.35V67.675H104.35V66.325H109.35V63.05H104.875V61.7H109.35V58.075H111V71.425ZM129.148 62.525H115.473V61.225H129.148V62.525ZM125.848 59.475H118.723V58.175H125.848V59.475ZM122.348 70.975C118.898 70.975 116.673 69.35 116.673 67.35C116.673 65.35 118.898 63.725 122.348 63.725C125.773 63.725 128.023 65.35 128.023 67.35C128.023 69.35 125.773 70.975 122.348 70.975ZM122.348 65C119.823 65 118.348 66 118.348 67.35C118.348 68.725 119.823 69.725 122.348 69.725C124.873 69.725 126.348 68.7 126.348 67.35C126.348 66 124.873 65 122.348 65ZM126.423 80.675C121.548 80.675 118.573 79 118.573 76.725C118.573 74.475 121.548 72.8 126.423 72.8C131.298 72.8 134.248 74.475 134.248 76.725C134.248 79 131.298 80.675 126.423 80.675ZM126.423 74.05C122.823 74.05 120.273 75.05 120.273 76.725C120.273 78.425 122.823 79.4 126.423 79.4C129.998 79.4 132.573 78.425 132.573 76.725C132.573 75.05 129.998 74.05 126.423 74.05ZM133.723 72.6H132.048V58.075H133.723V62.075H136.998V63.425H133.723V66.7H136.998V68.05H133.723V72.6ZM157.321 80.3H155.646V58.075H157.321V80.3ZM139.021 67.125C139.021 61.8 141.471 58.675 144.721 58.675C147.996 58.675 150.421 61.8 150.421 67.125C150.421 72.475 147.996 75.6 144.721 75.6C141.471 75.6 139.021 72.475 139.021 67.125ZM148.746 67.125C148.746 62.55 147.071 60.025 144.721 60.025C142.396 60.025 140.696 62.55 140.696 67.125C140.696 71.725 142.396 74.25 144.721 74.25C147.071 74.25 148.746 71.725 148.746 67.125ZM189.701 79.275L188.651 80.4C186.701 79.4 184.701 77.5 184.051 75.675C183.401 77.425 181.601 79.375 179.851 80.325C178.076 79.375 176.251 77.425 175.626 75.675C174.951 77.5 172.976 79.4 171.026 80.4L169.976 79.275C172.326 78.2 174.776 75.65 174.776 72.95V71.975H176.451V72.95C176.451 75.25 178.301 77.6 179.851 78.575C181.376 77.6 183.226 75.25 183.226 72.95V71.975H184.901V72.95C184.901 75.65 187.376 78.2 189.701 79.275ZM180.776 64.025C180.776 67.1 178.326 69.55 174.776 69.55C171.176 69.55 168.751 67.1 168.751 64.025C168.751 60.95 171.176 58.475 174.776 58.475C178.326 58.475 180.776 60.95 180.776 64.025ZM179.101 64.025C179.101 61.675 177.501 59.825 174.776 59.825C172.026 59.825 170.451 61.675 170.451 64.025C170.451 66.35 172.026 68.2 174.776 68.2C177.501 68.2 179.101 66.35 179.101 64.025ZM187.301 71H185.626V58.075H187.301V71ZM209.124 80.3H207.474V58.075H209.124V66H212.874V67.425H209.124V80.3ZM206.399 72.2V73.55C203.599 74.125 199.224 74.4 195.874 74.4H192.424V59.55H203.149V60.9H194.074V73.025H195.874C199.224 73.025 203.399 72.75 206.399 72.2ZM217.872 77.825C217.872 78.625 217.247 79.225 216.447 79.225C215.597 79.225 214.972 78.625 214.972 77.825C214.972 77.075 215.597 76.425 216.447 76.425C217.247 76.425 217.872 77.075 217.872 77.825ZM242.688 73.975L241.663 75.175C238.813 73.55 235.988 70.7 235.038 67.95C234.138 71.025 231.513 73.9 228.288 75.825L227.163 74.725C230.838 72.675 234.088 68.85 234.088 63.675V60.9H228.488V59.55H241.288V60.9H235.863V63.675C235.863 68.75 239.488 72.325 242.688 73.975ZM246.288 80.3H244.613V58.075H246.288V66.675H250.038V68.1H246.288V80.3ZM261.437 66.625C256.362 66.625 253.262 64.8 253.262 62.275C253.262 59.775 256.362 57.95 261.437 57.95C266.512 57.95 269.637 59.775 269.637 62.275C269.637 64.8 266.512 66.625 261.437 66.625ZM261.437 59.275C257.737 59.275 254.912 60.35 254.912 62.3C254.912 64.225 257.737 65.3 261.437 65.3C265.162 65.3 267.962 64.225 267.962 62.3C267.962 60.35 265.162 59.275 261.437 59.275ZM272.362 69.975H250.562V68.625H272.362V69.975ZM269.287 80.05H253.612V72.525H269.287V80.05ZM267.612 78.7V73.875H255.287V78.7H267.612ZM293.235 80.3H291.56V58.075H293.235V80.3ZM274.935 67.125C274.935 61.8 277.385 58.675 280.635 58.675C283.91 58.675 286.335 61.8 286.335 67.125C286.335 72.475 283.91 75.6 280.635 75.6C277.385 75.6 274.935 72.475 274.935 67.125ZM284.66 67.125C284.66 62.55 282.985 60.025 280.635 60.025C278.31 60.025 276.61 62.55 276.61 67.125C276.61 71.725 278.31 74.25 280.635 74.25C282.985 74.25 284.66 71.725 284.66 67.125ZM322.289 68.5H306.639V58.55H308.314V61.825H320.614V58.55H322.289V68.5ZM320.614 67.15V63.15H308.314V67.15H320.614ZM325.414 72.65H315.339V80.3H313.614V72.65H303.564V71.3H325.414V72.65ZM345.862 70.15H329.637V59.475H345.612V60.825H331.312V68.8H345.862V70.15ZM348.412 77.05H326.562V75.7H348.412V77.05ZM368.91 80.05H354.035V71.125H355.71V74.125H367.26V71.125H368.91V80.05ZM367.26 78.75V75.425H355.71V78.75H367.26ZM365.435 67.1V68.35C362.835 68.925 358.76 69.225 355.26 69.225H351.31V63.45H359.735V60.275H351.31V59.025H361.385V64.7H352.96V67.925H355.26C358.635 67.925 362.685 67.65 365.435 67.1ZM368.935 70.05H367.285V64.1H362.685V62.75H367.285V58.075H368.935V70.05ZM374.108 75.525L372.833 74.45C378.008 71.55 380.683 66 380.983 61.05H374.083V59.7H382.783C382.658 66.575 379.358 72.325 374.108 75.525ZM387.808 79.25H386.183V67.875H382.383V66.475H386.183V58.45H387.808V79.25ZM392.383 80.3H390.733V58.075H392.383V80.3ZM421.362 80.425H419.687V73.775H406.287V72.4H421.362V80.425ZM421.412 71.2H419.762V58.075H421.412V61.2H424.687V62.55H421.412V66.1H424.687V67.45H421.412V71.2ZM415.462 64.025C415.462 67.1 413.012 69.55 409.462 69.55C405.862 69.55 403.437 67.1 403.437 64.025C403.437 60.95 405.862 58.475 409.462 58.475C413.012 58.475 415.462 60.95 415.462 64.025ZM413.787 64.025C413.787 61.675 412.162 59.825 409.462 59.825C406.712 59.825 405.112 61.675 405.112 64.025C405.112 66.35 406.712 68.2 409.462 68.2C412.162 68.2 413.787 66.35 413.787 64.025ZM441.71 74.125V75.425C439.385 75.925 436.56 76.075 433.26 76.075H425.785V74.725H432.71V72C429.91 71.725 428.16 70.125 428.16 68.3C428.16 66.275 430.26 64.575 433.535 64.575C436.785 64.575 438.86 66.275 438.86 68.3C438.86 70.125 437.16 71.725 434.385 72V74.725C437.06 74.7 439.66 74.5 441.71 74.125ZM444.335 80.3H442.66V58.075H444.335V67.35H447.885V68.775H444.335V80.3ZM437.21 68.3C437.21 66.9 435.76 65.875 433.535 65.875C431.285 65.875 429.835 66.9 429.835 68.3C429.835 69.7 431.285 70.7 433.535 70.7C435.76 70.7 437.21 69.7 437.21 68.3ZM440.135 63.275H426.885V61.925H440.135V63.275ZM436.935 59.9H430.06V58.55H436.935V59.9ZM465.358 73.4V74.7C463.033 75.2 460.208 75.35 456.883 75.35H449.108V74H456.333V68.85H450.758V59.45H462.808V60.8H452.433V67.5H463.333V68.85H458.008V74C460.708 73.975 463.283 73.775 465.358 73.4ZM467.908 80.3H466.258V58.075H467.908V80.3ZM493.431 77.225H471.581V75.875H479.781V67.3H481.531V75.875H493.431V77.225ZM488.956 72.55H487.231C488.156 68.9 488.731 64.525 488.831 61.075H474.256V59.725H490.606C490.481 64.15 489.806 68.825 488.956 72.55ZM523.461 77.225H501.611V75.875H511.661V70H504.686V59.475H520.336V70H513.386V75.875H523.461V77.225ZM518.661 68.65V60.825H506.361V68.65H518.661ZM535.509 66.625C530.434 66.625 527.334 64.8 527.334 62.275C527.334 59.775 530.434 57.95 535.509 57.95C540.584 57.95 543.709 59.775 543.709 62.275C543.709 64.8 540.584 66.625 535.509 66.625ZM535.509 59.275C531.809 59.275 528.984 60.35 528.984 62.3C528.984 64.225 531.809 65.3 535.509 65.3C539.234 65.3 542.034 64.225 542.034 62.3C542.034 60.35 539.234 59.275 535.509 59.275ZM546.434 69.975H524.634V68.625H546.434V69.975ZM543.359 80.05H527.684V72.525H543.359V80.05ZM541.684 78.7V73.875H529.359V78.7H541.684ZM567.307 80.3H565.632V58.075H567.307V80.3ZM549.007 67.125C549.007 61.8 551.457 58.675 554.707 58.675C557.982 58.675 560.407 61.8 560.407 67.125C560.407 72.475 557.982 75.6 554.707 75.6C551.457 75.6 549.007 72.475 549.007 67.125ZM558.732 67.125C558.732 62.55 557.057 60.025 554.707 60.025C552.382 60.025 550.682 62.55 550.682 67.125C550.682 71.725 552.382 74.25 554.707 74.25C557.057 74.25 558.732 71.725 558.732 67.125ZM599.461 70.25H589.411V72.625C594.161 72.8 596.861 74.4 596.861 76.625C596.861 78.975 593.861 80.675 588.536 80.675C583.236 80.675 580.211 78.975 580.211 76.625C580.211 74.4 582.886 72.8 587.686 72.625V70.25H577.661V68.9H599.461V70.25ZM597.386 66.425H579.711V65.075H583.211L583.061 60.15H580.236V58.8H596.861V60.15H594.211L594.086 65.075H597.386V66.425ZM595.186 76.625C595.186 75 592.686 73.9 588.536 73.9C584.386 73.9 581.886 75 581.886 76.625C581.886 78.275 584.386 79.375 588.536 79.375C592.686 79.375 595.186 78.275 595.186 76.625ZM592.411 65.075L592.561 60.15H584.736L584.861 65.075H592.411ZM612.609 80.675C607.584 80.675 604.509 78.8 604.509 76.25C604.509 73.725 607.584 71.85 612.609 71.85C617.634 71.85 620.709 73.725 620.709 76.25C620.709 78.8 617.634 80.675 612.609 80.675ZM612.609 73.2C608.909 73.2 606.209 74.325 606.209 76.25C606.209 78.2 608.909 79.325 612.609 79.325C616.284 79.325 619.009 78.2 619.009 76.25C619.009 74.325 616.284 73.2 612.609 73.2ZM615.609 68.375L614.634 69.625C611.834 68.6 609.309 66.525 608.284 64.3C607.384 66.75 604.859 69.025 601.734 70.35L600.709 69.225C604.359 67.825 607.359 64.7 607.359 60.9V58.65H609.134V60.9C609.134 64.525 612.209 67.25 615.609 68.375ZM620.284 71.675H618.609V63.7H613.034V62.3H618.609V58.075H620.284V71.675ZM634.632 60.075H627.707V58.725H634.632V60.075ZM642.532 80.3H640.882V58.075H642.532V67.25H646.132V68.675H642.532V80.3ZM636.932 70.95C636.932 73.875 634.632 76.225 631.257 76.225C627.882 76.225 625.582 73.875 625.582 70.95C625.582 68.025 627.882 65.65 631.257 65.65C634.632 65.65 636.932 68 636.932 70.95ZM635.282 70.95C635.282 68.6 633.707 66.975 631.282 66.975C628.832 66.975 627.257 68.575 627.257 70.95C627.257 73.3 628.832 74.9 631.282 74.9C633.707 74.9 635.282 73.3 635.282 70.95ZM638.057 63.775H624.332V62.425H638.057V63.775ZM648.18 75.525L646.905 74.45C652.08 71.55 654.755 66 655.055 61.05H648.155V59.7H656.855C656.73 66.575 653.43 72.325 648.18 75.525ZM661.88 79.25H660.255V67.875H656.455V66.475H660.255V58.45H661.88V79.25ZM666.455 80.3H664.805V58.075H666.455V80.3ZM695.96 80.05H680.86V74.675H693.76V72.05H680.86V70.75H695.435V75.95H682.51V78.725H695.96V80.05ZM695.485 69.55H693.835V58.075H695.485V62.475H698.885V63.85H695.485V69.55ZM688.81 68.25H678.26V58.85H679.935V62.125H687.135V58.85H688.81V68.25ZM687.135 66.95V63.425H679.935V66.95H687.135ZM715.783 74.125V75.425C713.458 75.925 710.633 76.075 707.333 76.075H699.858V74.725H706.783V72C703.983 71.725 702.233 70.125 702.233 68.3C702.233 66.275 704.333 64.575 707.608 64.575C710.858 64.575 712.933 66.275 712.933 68.3C712.933 70.125 711.233 71.725 708.458 72V74.725C711.133 74.7 713.733 74.5 715.783 74.125ZM718.408 80.3H716.733V58.075H718.408V67.35H721.958V68.775H718.408V80.3ZM711.283 68.3C711.283 66.9 709.833 65.875 707.608 65.875C705.358 65.875 703.908 66.9 703.908 68.3C703.908 69.7 705.358 70.7 707.608 70.7C709.833 70.7 711.283 69.7 711.283 68.3ZM714.208 63.275H700.958V61.925H714.208V63.275ZM711.008 59.9H704.133V58.55H711.008V59.9ZM32.375 111.4V112.7C30.05 113.2 27.225 113.35 23.9 113.35H16.125V112H23.35V106.85H17.775V97.45H29.825V98.8H19.45V105.5H30.35V106.85H25.025V112C27.725 111.975 30.3 111.775 32.375 111.4ZM34.925 118.3H33.275V96.075H34.925V118.3ZM57.973 112.55H56.323V105.35H50.973V107.775H40.348V97.225H50.973V99.5H56.323V96.075H57.973V112.55ZM49.298 106.425V98.55H41.998V106.425H49.298ZM58.798 117.95H43.098V110.55H44.773V116.6H58.798V117.95ZM56.323 104V100.85H50.973V104H56.323ZM81.2961 118.3H79.6211V104.525H74.0711V103.125H79.6211V96.075H81.2961V118.3ZM76.6961 111.875L75.6961 113.075C72.7211 111.45 69.9211 108.425 69.0461 105.575C68.1211 108.725 65.7461 111.625 62.3211 113.725L61.1961 112.675C65.0461 110.425 68.0961 106.55 68.0961 101.25V97.05H69.8711V101.25C69.8711 106.35 73.2211 110.15 76.6961 111.875ZM99.7754 110.725V112.075C98.6004 112.275 96.5754 112.4 95.5254 112.4H93.1254V97.55H99.6504V98.9H94.7754V111.025H95.5754C96.6004 111.025 98.5754 110.925 99.7754 110.725ZM107.975 110.575V111.925C106.5 112.225 104.525 112.4 103.2 112.4H100.65V97.55H106.95V98.9H102.275V111.025H103.125C104.425 111.025 106.4 110.9 107.975 110.575ZM110.75 118.3H109.075V96.075H110.75V104H114V105.425H110.75V118.3ZM136.448 108.575H114.648V107.225H136.448V108.575ZM135.248 117.1L134.398 118.35C130.698 117.825 126.848 116.025 125.523 113.55C124.223 116.025 120.348 117.825 116.673 118.35L115.773 117.1C119.923 116.575 124.598 114.4 124.598 111.3V110.425H126.448V111.3C126.448 114.4 131.148 116.575 135.248 117.1ZM125.173 102.8V104.1C123.698 104.375 121.498 104.475 119.823 104.475H117.298V96.825H124.998V98.15H118.948V103.15H119.848C121.423 103.15 123.673 103.025 125.173 102.8ZM134.148 104.475H125.973V96.825H133.673V98.15H127.673V103.15H134.148V104.475ZM148.621 98.075H141.696V96.725H148.621V98.075ZM156.521 118.3H154.871V96.075H156.521V105.25H160.121V106.675H156.521V118.3ZM150.921 108.95C150.921 111.875 148.621 114.225 145.246 114.225C141.871 114.225 139.571 111.875 139.571 108.95C139.571 106.025 141.871 103.65 145.246 103.65C148.621 103.65 150.921 106 150.921 108.95ZM149.271 108.95C149.271 106.6 147.696 104.975 145.271 104.975C142.821 104.975 141.246 106.575 141.246 108.95C141.246 111.3 142.821 112.9 145.271 112.9C147.696 112.9 149.271 111.3 149.271 108.95ZM152.046 101.775H138.321V100.425H152.046V101.775ZM182.47 115.225H160.62V113.875H168.82V105.3H170.57V113.875H182.47V115.225ZM177.995 110.55H176.27C177.195 106.9 177.77 102.525 177.87 99.075H163.295V97.725H179.645C179.52 102.15 178.845 106.825 177.995 110.55ZM209.824 118.3H208.149V104.275H201.299V102.925H208.149V96.075H209.824V118.3ZM206.274 110.175V111.525C203.499 112.1 199.124 112.35 195.774 112.35H192.724V97.125H194.399V110.975H195.774C199.124 110.975 203.324 110.725 206.274 110.175ZM235.497 114.975H213.647V113.625H228.747C229.997 109.25 230.722 103.325 230.922 99.075H216.322V97.725H232.672C232.447 103.3 231.697 109.2 230.472 113.625H235.497V114.975ZM255.82 118.3H254.145V105.025H249.845V103.625H254.145V96.075H255.82V118.3ZM252.27 110.7V112.075C249.495 112.625 245.12 112.9 241.77 112.9H238.47V104.375H246.67V98.775H238.47V97.425H248.345V105.7H240.12V111.525H241.77C245.12 111.525 249.32 111.275 252.27 110.7ZM270.518 105.05C265.443 105.05 262.368 103.125 262.368 100.5C262.368 97.875 265.443 95.95 270.518 95.95C275.593 95.95 278.743 97.875 278.743 100.5C278.743 103.125 275.593 105.05 270.518 105.05ZM270.518 97.275C266.818 97.275 264.018 98.425 264.018 100.5C264.018 102.575 266.818 103.725 270.518 103.725C274.243 103.725 277.068 102.575 277.068 100.5C277.068 98.425 274.243 97.275 270.518 97.275ZM281.468 108.9H271.668V113.975H269.968V108.9H259.668V107.55H281.468V108.9ZM279.368 117.95H262.743V111.3H264.418V116.575H279.368V117.95ZM302.847 102.3C302.847 105.5 300.372 108.05 296.797 108.05C293.172 108.05 290.722 105.5 290.722 102.3C290.722 99.05 293.172 96.475 296.797 96.475C300.372 96.475 302.847 99.05 302.847 102.3ZM296.797 106.7C299.547 106.7 301.172 104.75 301.172 102.275C301.172 99.775 299.547 97.825 296.797 97.825C294.022 97.825 292.422 99.775 292.422 102.275C292.422 104.75 294.022 106.7 296.797 106.7ZM309.322 112.575H307.647V96.075H309.322V112.575ZM310.147 117.95H294.447V110.55H296.122V116.6H310.147V117.95ZM327.37 106.35L326.395 107.6C323.595 106.575 321.095 104.5 320.07 102.275C319.17 104.725 316.62 107 313.52 108.325L312.47 107.2C316.12 105.8 319.145 102.675 319.145 98.875V96.65H320.895V98.875C320.895 102.5 323.97 105.225 327.37 106.35ZM324.345 118.675C319.445 118.675 316.495 116.8 316.495 114.25C316.495 111.725 319.445 109.85 324.345 109.85C329.195 109.85 332.17 111.725 332.17 114.25C332.17 116.8 329.195 118.675 324.345 118.675ZM324.345 111.2C320.77 111.2 318.195 112.325 318.195 114.25C318.195 116.2 320.77 117.325 324.345 117.325C327.895 117.325 330.495 116.2 330.495 114.25C330.495 112.325 327.895 111.2 324.345 111.2ZM331.62 109.4H329.97V96.075H331.62V101.2H334.895V102.575H331.62V109.4ZM354.768 99.925C354.768 102.225 351.643 103.925 346.568 103.925C341.493 103.925 338.393 102.225 338.393 99.925C338.393 97.625 341.493 95.925 346.568 95.925C351.643 95.925 354.768 97.625 354.768 99.925ZM353.093 99.95C353.093 98.2 350.293 97.225 346.568 97.225C342.868 97.225 340.043 98.2 340.043 99.95C340.043 101.675 342.868 102.65 346.568 102.65C350.293 102.65 353.093 101.675 353.093 99.95ZM354.943 118.05H338.718V112.925H352.718V110.575H338.718V109.25H354.393V114.2H340.393V116.725H354.943V118.05ZM357.493 106.925H335.693V105.6H357.493V106.925ZM386.273 105.1L385.323 106.325C381.548 105.575 377.998 103.55 376.598 100.9C375.223 103.55 371.673 105.575 367.873 106.325L366.898 105.1C371.223 104.45 375.598 101.675 375.698 98.3H368.448V96.95H384.723V98.3H377.498C377.598 101.675 382.023 104.45 386.273 105.1ZM387.523 110.125H377.473V118.3H375.748V110.125H365.698V108.775H387.523V110.125ZM407.871 118.3H406.196V108.325H401.196V112.4H390.521V97.55H401.196V100.875H406.196V96.075H407.871V118.3ZM399.496 111.05V98.9H392.171V111.05H399.496ZM406.196 106.975V102.225H401.196V106.975H406.196ZM413.444 120.4L413.044 120.025C413.919 119.475 414.669 118.4 414.794 117.45C414.819 117.325 414.794 117.225 414.744 117.175C414.694 117.05 414.544 116.975 414.294 116.975C413.594 116.975 412.944 116.5 412.944 115.65C412.944 114.85 413.594 114.325 414.394 114.325C415.319 114.325 415.969 115.15 415.969 116.175C415.969 117.95 414.894 119.625 413.444 120.4ZM432.235 110.95V112.275C431.21 112.45 430.135 112.525 429.36 112.525H427.16V97.75H432.135V99.1H428.81V111.175H429.36C430.035 111.175 431.16 111.125 432.235 110.95ZM438.635 110.825V112.15C437.535 112.4 436.135 112.525 435.16 112.525H432.935V97.75H437.91V99.1H434.535V111.175H435.135C436.085 111.175 437.485 111.075 438.635 110.825ZM445.685 118.3H444.01V105.425H441.085V117.25H439.41V96.45H441.085V103.95H444.01V96.075H445.685V118.3ZM470.433 115.375H448.583V114.025H458.783V109.3H451.658V102.625H465.383V98.65H451.658V97.3H467.033V103.95H453.333V107.925H467.758V109.3H460.483V114.025H470.433V115.375ZM493.406 108.8H471.606V107.45H493.406V108.8ZM490.881 104.075H474.656V96.15H476.331V102.725H490.881V104.075ZM491.306 117.95H474.681V111H476.356V116.575H491.306V117.95ZM512.511 118.675C507.211 118.675 504.186 116.825 504.186 114.3C504.186 111.775 507.211 109.925 512.511 109.925C517.836 109.925 520.836 111.775 520.836 114.3C520.836 116.825 517.836 118.675 512.511 118.675ZM512.511 111.225C508.361 111.225 505.861 112.45 505.861 114.3C505.861 116.15 508.361 117.375 512.511 117.375C516.661 117.375 519.161 116.15 519.161 114.3C519.161 112.45 516.661 111.225 512.511 111.225ZM523.436 107.575H501.636V106.225H523.436V107.575ZM520.911 103.375H504.686V96.15H506.361V102.025H520.911V103.375ZM544.684 114.475C544.684 116.9 541.609 118.675 536.584 118.675C531.559 118.675 528.484 116.9 528.484 114.475C528.484 112.05 531.559 110.275 536.584 110.275C541.609 110.275 544.684 112.05 544.684 114.475ZM542.984 114.475C542.984 112.65 540.259 111.575 536.584 111.575C532.884 111.575 530.184 112.65 530.184 114.475C530.184 116.325 532.884 117.375 536.584 117.375C540.259 117.375 542.984 116.325 542.984 114.475ZM539.834 107.525L538.909 108.725C536.234 107.95 533.609 106.025 532.584 103.9C531.759 106.125 529.059 108.375 525.984 109.55L524.984 108.375C528.584 107.25 531.659 104.075 531.659 101.35V100.9H526.259V99.55H538.709V100.9H533.434V101.35C533.434 104.05 536.584 106.7 539.834 107.525ZM544.259 110.125H542.584V104.125H538.159V102.775H542.584V96.075H544.259V110.125ZM535.984 97.5H528.984V96.175H535.984V97.5ZM569.457 115.05H547.607V113.7H569.457V115.05ZM568.407 108.05L567.457 109.25C563.507 107.95 559.932 105.4 558.507 102.175C557.107 105.4 553.532 107.95 549.582 109.25L548.607 108.05C552.907 106.825 557.632 103.25 557.632 99.1V97H559.407V99.1C559.407 103.25 564.107 106.825 568.407 108.05ZM589.78 118.3H588.105V105.025H583.805V103.625H588.105V96.075H589.78V118.3ZM586.23 110.7V112.075C583.455 112.625 579.08 112.9 575.73 112.9H572.43V104.375H580.63V98.775H572.43V97.425H582.305V105.7H574.08V111.525H575.73C579.08 111.525 583.28 111.275 586.23 110.7ZM612.328 118.05H596.653V110.75H603.653V107.775H593.628V106.425H615.428V107.775H605.353V110.75H612.328V118.05ZM612.703 100.2C612.703 102.65 609.553 104.45 604.478 104.45C599.403 104.45 596.328 102.65 596.328 100.2C596.328 97.75 599.403 95.95 604.478 95.95C609.553 95.95 612.703 97.75 612.703 100.2ZM611.028 100.2C611.028 98.325 608.203 97.275 604.478 97.275C600.778 97.275 597.978 98.325 597.978 100.2C597.978 102.1 600.778 103.15 604.478 103.15C608.203 103.15 611.028 102.1 611.028 100.2ZM610.653 116.7V112.1H598.328V116.7H610.653ZM636.301 118.3H634.626V96.075H636.301V118.3ZM618.001 105.125C618.001 99.8 620.451 96.675 623.701 96.675C626.976 96.675 629.401 99.8 629.401 105.125C629.401 110.475 626.976 113.6 623.701 113.6C620.451 113.6 618.001 110.475 618.001 105.125ZM627.726 105.125C627.726 100.55 626.051 98.025 623.701 98.025C621.376 98.025 619.676 100.55 619.676 105.125C619.676 109.725 621.376 112.25 623.701 112.25C626.051 112.25 627.726 109.725 627.726 105.125ZM655.349 110.175V111.525C652.549 112.1 648.174 112.35 644.824 112.35H641.374V97.1H643.024V110.975H644.824C648.174 110.975 652.349 110.725 655.349 110.175ZM658.074 118.3H656.424V96.075H658.074V103.7H661.824V105.125H658.074V118.3ZM689.328 118.3H687.653V109.425H681.753C680.803 112.125 678.928 113.6 676.703 113.6C673.453 113.6 671.028 110.475 671.028 105.125C671.028 99.8 673.453 96.675 676.703 96.675C678.903 96.675 680.728 98.1 681.678 100.675H687.653V96.075H689.328V118.3ZM676.703 112.25C679.028 112.25 680.728 109.725 680.728 105.125C680.728 100.55 679.028 98.025 676.703 98.025C674.378 98.025 672.703 100.55 672.703 105.125C672.703 109.725 674.378 112.25 676.703 112.25ZM687.653 108.075V102.025H682.053C682.278 102.95 682.403 104 682.403 105.125C682.403 106.2 682.303 107.2 682.128 108.075H687.653ZM711.751 101.325C711.751 104.2 708.651 106.45 703.476 106.45C698.326 106.45 695.226 104.2 695.226 101.325C695.226 98.475 698.326 96.225 703.476 96.225C708.651 96.225 711.751 98.475 711.751 101.325ZM710.076 101.325C710.076 99 707.251 97.575 703.476 97.575C699.751 97.575 696.901 99 696.901 101.325C696.901 103.675 699.751 105.1 703.476 105.1C707.251 105.1 710.076 103.675 710.076 101.325ZM708.301 118.3H706.651V110.125H700.451V118.1H698.751V110.125H692.626V108.775H714.451V110.125H708.301V118.3ZM37.65 155.275L36.6 156.4C34.65 155.4 32.65 153.5 32 151.675C31.35 153.425 29.55 155.375 27.8 156.325C26.025 155.375 24.2 153.425 23.575 151.675C22.9 153.5 20.925 155.4 18.975 156.4L17.925 155.275C20.275 154.2 22.725 151.65 22.725 148.95V147.975H24.4V148.95C24.4 151.25 26.25 153.6 27.8 154.575C29.325 153.6 31.175 151.25 31.175 148.95V147.975H32.85V148.95C32.85 151.65 35.325 154.2 37.65 155.275ZM28.725 140.025C28.725 143.1 26.275 145.55 22.725 145.55C19.125 145.55 16.7 143.1 16.7 140.025C16.7 136.95 19.125 134.475 22.725 134.475C26.275 134.475 28.725 136.95 28.725 140.025ZM27.05 140.025C27.05 137.675 25.45 135.825 22.725 135.825C19.975 135.825 18.4 137.675 18.4 140.025C18.4 142.35 19.975 144.2 22.725 144.2C25.45 144.2 27.05 142.35 27.05 140.025ZM35.25 147H33.575V134.075H35.25V147ZM60.423 146.8H38.623V145.45H60.423V146.8ZM57.898 142.075H41.673V134.15H43.348V140.725H57.898V142.075ZM58.323 155.95H41.698V149H43.373V154.575H58.323V155.95ZM90.4523 145.975H68.6523V144.625H78.8523V141.25H71.7023V134.15H73.3773V139.925H87.9273V141.25H80.5523V144.625H90.4523V145.975ZM79.5273 156.675C74.2273 156.675 71.2023 154.875 71.2023 152.4C71.2023 149.95 74.2273 148.15 79.5273 148.15C84.8523 148.15 87.8523 149.95 87.8523 152.4C87.8523 154.875 84.8523 156.675 79.5273 156.675ZM79.5273 149.45C75.3773 149.45 72.8773 150.625 72.8773 152.4C72.8773 154.2 75.3773 155.375 79.5273 155.375C83.6773 155.375 86.1773 154.2 86.1773 152.4C86.1773 150.625 83.6773 149.45 79.5273 149.45ZM110.4 156.05H95.8254V147.65H110.4V156.05ZM108.725 154.7V148.975H97.4754V154.7H108.725ZM110.45 146.45H108.8V134.075H110.45V138.65H113.85V140.05H110.45V146.45ZM107.7 142.4V143.725C105.15 144.3 101.025 144.575 97.5504 144.575H93.3754V135.225H104.15V136.55H95.0254V143.225H97.5504C100.925 143.225 104.95 142.925 107.7 142.4ZM133.948 156.3H132.298V134.075H133.948V156.3ZM131.398 149.15V150.45C129.073 150.95 126.248 151.1 122.923 151.1H115.148V149.75H123.023C126.098 149.75 129.073 149.55 131.398 149.15ZM122.798 145.875C119.248 145.875 116.648 143.375 116.648 140.4C116.648 137.425 119.248 134.95 122.798 134.95C126.398 134.95 128.998 137.425 128.998 140.4C128.998 143.375 126.398 145.875 122.798 145.875ZM122.798 136.3C119.998 136.3 118.323 138.15 118.323 140.4C118.323 142.65 119.998 144.525 122.798 144.525C125.598 144.525 127.323 142.65 127.323 140.4C127.323 138.15 125.598 136.3 122.798 136.3ZM163.378 143.175H147.728V134.275H149.403V137.25H161.703V134.275H163.378V143.175ZM161.703 141.825V138.55H149.403V141.825H161.703ZM166.478 147.225H156.678V152.125H154.978V147.225H144.678V145.875H166.478V147.225ZM164.378 155.95H147.753V149.3H149.428V154.575H164.378V155.95ZM181.726 139.325C181.726 141.95 179.326 144.2 175.726 144.2C172.101 144.2 169.676 141.95 169.676 139.325C169.676 136.725 172.101 134.475 175.726 134.475C179.326 134.475 181.726 136.725 181.726 139.325ZM180.051 139.325C180.051 137.475 178.551 135.825 175.726 135.825C172.876 135.825 171.351 137.475 171.351 139.325C171.351 141.175 172.876 142.85 175.726 142.85C178.551 142.85 180.051 141.175 180.051 139.325ZM186.976 156.3H185.326V134.075H186.976V156.3ZM176.501 155.8H174.826V147.725H168.176V146.375H176.351C179.151 146.375 182.251 146.125 184.376 145.75V147.075C182.376 147.5 179.576 147.7 176.501 147.725V155.8ZM209.824 156.3H208.149V134.075H209.824V156.3ZM192.499 151.55L191.399 150.425C197.299 147.55 200.624 142.55 201.274 136.9H192.774V135.55H203.074C202.749 143.075 198.374 148.575 192.499 151.55ZM232.697 142.675H216.722V137.975H230.497V135.9H216.722V134.625H232.147V139.2H218.397V141.375H232.697V142.675ZM235.472 145.875H213.672V144.6H235.472V145.875ZM232.922 156.05H216.697V151.275H230.697V149.2H216.697V147.925H232.372V152.525H218.372V154.75H232.922V156.05ZM255.826 145.475H245.276V135.225H255.826V145.475ZM254.151 144.125V136.55H246.951V144.125H254.151ZM262.501 150.55H260.851V134.075H262.501V139.675H265.901V141.075H262.501V150.55ZM263.426 155.95H247.951V148.55H249.626V154.6H263.426V155.95ZM285.924 141.375H269.749V134.8H285.499V136.1H271.424V140.05H285.924V141.375ZM285.949 156.05H269.724V150.95H283.724V148.6H269.724V147.3H285.399V152.225H271.399V154.725H285.949V156.05ZM288.499 144.9H266.699V143.575H288.499V144.9ZM309.372 156.3H307.697V143.5H302.447C302.322 148.625 299.922 151.6 296.747 151.6C293.497 151.6 291.072 148.475 291.072 143.125C291.072 137.8 293.497 134.675 296.747 134.675C299.772 134.675 302.147 137.425 302.422 142.125H307.697V134.075H309.372V156.3ZM296.747 150.25C299.072 150.25 300.772 147.725 300.772 143.125C300.772 138.55 299.072 136.025 296.747 136.025C294.422 136.025 292.747 138.55 292.747 143.125C292.747 147.725 294.422 150.25 296.747 150.25ZM332.245 156.3H330.595V143.375H326.87V155.25H325.27V134.45H326.87V141.925H330.595V134.075H332.245V156.3ZM324.245 148.65V150C322.17 150.325 319.145 150.525 316.945 150.525H314.595V135.25H316.195V149.15H316.945C319.145 149.15 322.145 148.975 324.245 148.65ZM357.493 146.8H335.693V145.45H357.493V146.8ZM354.968 142.075H338.743V134.15H340.418V140.725H354.968V142.075ZM355.393 155.95H338.768V149H340.443V154.575H355.393V155.95ZM384.998 156.05H369.898V150.575H382.798V147.825H369.898V146.525H384.473V151.825H371.548V154.725H384.998V156.05ZM377.848 143.875H367.298V135.225H377.848V143.875ZM376.173 142.575V136.525H368.973V142.575H376.173ZM384.523 145.35H382.873V134.075H384.523V138.425H387.923V139.825H384.523V145.35ZM407.871 145.05H391.771V134.775H407.396V136.125H393.446V139.2H407.296V140.525H393.446V143.675H407.871V145.05ZM410.546 149H400.471V156.3H398.746V149H388.696V147.65H410.546V149ZM433.544 153.375H411.694V152.025H421.894V147.3H414.769V140.625H428.494V136.65H414.769V135.3H430.144V141.95H416.444V145.925H430.869V147.3H423.594V152.025H433.544V153.375ZM461.523 152.35C461.523 154.825 458.473 156.675 453.423 156.675C448.398 156.675 445.348 154.825 445.348 152.35C445.348 149.875 448.398 148.025 453.423 148.025C458.473 148.025 461.523 149.875 461.523 152.35ZM457.623 144V145.3C454.973 145.725 450.723 145.875 447.298 145.875H442.198V144.55H445.523L445.373 136.5H442.873V135.2H455.823V136.5H453.398L453.223 144.4C454.848 144.325 456.373 144.175 457.623 144ZM459.848 152.35C459.848 150.475 457.148 149.375 453.423 149.375C449.748 149.375 447.023 150.475 447.023 152.35C447.023 154.25 449.748 155.325 453.423 155.325C457.148 155.325 459.848 154.25 459.848 152.35ZM451.623 144.475L451.773 136.5H447.023L447.148 144.55H447.298C448.648 144.55 450.123 144.525 451.623 144.475ZM461.098 147.8H459.448V142.55H455.648V141.225H459.448V138.975H455.648V137.65H459.448V134.075H461.098V147.8ZM466.296 151.55L465.221 150.425C471.121 147.55 474.421 142.55 475.046 136.9H466.596V135.55H476.871C476.521 143.075 472.196 148.575 466.296 151.55ZM483.196 156.3H481.546V134.075H483.196V142.75H486.946V144.175H483.196V156.3ZM504.669 145.575V146.875C502.344 147.275 499.344 147.45 495.994 147.45H488.244V146.1H495.669V142.85H490.219V135.1H502.069V136.425H491.894V141.5H502.594V142.85H497.319V146.1C499.969 146.075 502.619 145.875 504.669 145.575ZM507.744 155.95H492.094V149.55H493.769V154.575H507.744V155.95ZM507.244 151.2H505.569V134.075H507.244V151.2ZM529.192 156.3H527.542V134.075H529.192V142H532.942V143.425H529.192V156.3ZM526.467 148.2V149.55C523.667 150.125 519.292 150.4 515.942 150.4H512.492V135.55H523.217V136.9H514.142V149.025H515.942C519.292 149.025 523.467 148.75 526.467 148.2ZM537.94 153.825C537.94 154.625 537.315 155.225 536.515 155.225C535.665 155.225 535.04 154.625 535.04 153.825C535.04 153.075 535.665 152.425 536.515 152.425C537.315 152.425 537.94 153.075 537.94 153.825Z" fill="black"/>
</svg>
