<svg width="1007" height="143" viewBox="0 0 1007 143" fill="none" xmlns="http://www.w3.org/2000/svg">
<rect x="0.5" y="0.5" width="1006" height="142" fill="white"/>
<rect x="0.5" y="0.5" width="1006" height="142" stroke="black"/>
<path d="M39.775 31.775V33.625C37.275 33.475 35.75 31.825 35.75 28.625V25.45H30.875V23.6H35.75V17.975H37.8V28.225C37.8 30.2 38.425 31.475 39.775 31.775ZM17.175 33.625H14.975V31.775H16.925C20.575 31.775 22.675 29.975 22.675 26.825V25.45H17.8V23.6H29.525V25.45H24.8V26.825C24.8 29.85 26.775 31.65 30.15 31.725V33.525C27.275 33.525 24.95 32.325 23.75 30.25C22.575 32.4 20.175 33.625 17.175 33.625ZM28.7 36.375V42.45H37.6V44.3H27.775C27.05 44.3 26.65 43.9 26.65 43.175V36.375H28.7ZM56.0059 28.375V17.975H58.0559V23.6H61.5559V25.45H58.0559V28.3C58.0559 30.45 58.6559 31.775 60.6559 31.775H61.2809V33.625H60.6309C57.6309 33.625 56.0059 31.875 56.0059 28.375ZM46.0309 31.775H52.9809V33.625H39.7309V31.775H43.0809C42.8309 31.45 42.6809 31.025 42.6809 30.2V26.625H49.6309V23.625H42.6809V21.775H50.5559C51.2809 21.775 51.6809 22.175 51.6809 22.9V28.45H44.7309V30.275C44.7309 31.35 45.1309 31.775 46.0309 31.775ZM72.2146 27.5V31.775H81.0396V33.625H61.2396V31.775H70.1646V27.5H66.7146C65.9896 27.5 65.5896 27.1 65.5896 26.375V18.6H76.8146V20.45H67.6396V25.65H76.8146V27.5H72.2146ZM104.768 28.375V17.975H106.818V23.6H110.318V25.45H106.818V28.3C106.818 30.45 107.418 31.775 109.418 31.775H110.043V33.625H109.393C106.393 33.625 104.768 31.875 104.768 28.375ZM89.2426 33.625V31.775C92.8176 31.675 94.9676 29.525 94.9676 26.125V22.5H97.0426V26.125C97.0426 29.5 99.1676 31.625 102.618 31.725V33.525C99.6426 33.5 97.1426 32.1 96.0176 29.8C94.9176 32.15 92.3676 33.6 89.2426 33.625ZM116.62 24.975V27.3H125.395V29.15H115.695C114.97 29.15 114.57 28.75 114.57 28.025V19.05H125.345V20.9H116.62V23.15H125.095V24.975H116.62ZM129.795 31.775V33.625H120.92V40.375H118.87V33.625H109.995V31.775H129.795ZM150.546 31.775V33.625C148.296 33.475 146.521 31.775 146.521 27.725V17.975H148.571V27.275C148.571 30.075 149.346 31.325 150.546 31.775ZM136.046 31.775H143.171V33.625H129.746V31.775H133.096C132.846 31.45 132.696 31.025 132.696 30.2V26.625H139.796V23.625H132.696V21.775H140.746C141.471 21.775 141.871 22.175 141.871 22.9V28.45H134.746V30.275C134.746 31.35 135.146 31.775 136.046 31.775Z" fill="#00B7AB"/>
<path d="M175.447 34.8H153.647V33.45H175.447V34.8ZM172.922 30.075H156.697V22.15H158.372V28.725H172.922V30.075ZM173.347 43.95H156.722V37H158.397V42.575H173.347V43.95ZM205.477 34.25H195.427V36.625C200.177 36.8 202.877 38.4 202.877 40.625C202.877 42.975 199.877 44.675 194.552 44.675C189.252 44.675 186.227 42.975 186.227 40.625C186.227 38.4 188.902 36.8 193.702 36.625V34.25H183.677V32.9H205.477V34.25ZM203.402 30.425H185.727V29.075H189.227L189.077 24.15H186.252V22.8H202.877V24.15H200.227L200.102 29.075H203.402V30.425ZM201.202 40.625C201.202 39 198.702 37.9 194.552 37.9C190.402 37.9 187.902 39 187.902 40.625C187.902 42.275 190.402 43.375 194.552 43.375C198.702 43.375 201.202 42.275 201.202 40.625ZM198.427 29.075L198.577 24.15H190.752L190.877 29.075H198.427ZM225.375 32.5H209.725V22.55H211.4V25.825H223.7V22.55H225.375V32.5ZM223.7 31.15V27.15H211.4V31.15H223.7ZM228.5 36.65H218.425V44.3H216.7V36.65H206.65V35.3H228.5V36.65ZM248.748 38.75H247.073V22.075H248.748V28.925H252.148V30.325H248.748V38.75ZM249.673 43.95H234.198V37.5H235.848V42.6H249.673V43.95ZM244.173 26.8H230.498V25.5H244.173V26.8ZM240.873 23.475H233.748V22.175H240.873V23.475ZM237.373 35.825C233.923 35.825 231.698 34.1 231.698 31.975C231.698 29.85 233.923 28.125 237.373 28.125C240.798 28.125 243.048 29.85 243.048 31.975C243.048 34.1 240.798 35.825 237.373 35.825ZM237.373 29.4C234.848 29.4 233.373 30.5 233.373 31.975C233.373 33.475 234.848 34.575 237.373 34.575C239.898 34.575 241.373 33.45 241.373 31.975C241.373 30.5 239.898 29.4 237.373 29.4ZM281.502 34.9H271.702V39.975H270.002V34.9H259.702V33.55H281.502V34.9ZM279.402 43.95H262.777V37.3H264.452V42.575H279.402V43.95ZM278.402 30.675H262.752V22.8H278.402V30.675ZM276.727 29.325V24.15H264.427V29.325H276.727ZM298.8 38.125V39.425C296.475 39.925 293.65 40.075 290.35 40.075H282.875V38.725H289.8V36C287 35.725 285.25 34.125 285.25 32.3C285.25 30.275 287.35 28.575 290.625 28.575C293.875 28.575 295.95 30.275 295.95 32.3C295.95 34.125 294.25 35.725 291.475 36V38.725C294.15 38.7 296.75 38.5 298.8 38.125ZM301.425 44.3H299.75V22.075H301.425V31.35H304.975V32.775H301.425V44.3ZM294.3 32.3C294.3 30.9 292.85 29.875 290.625 29.875C288.375 29.875 286.925 30.9 286.925 32.3C286.925 33.7 288.375 34.7 290.625 34.7C292.85 34.7 294.3 33.7 294.3 32.3ZM297.225 27.275H283.975V25.925H297.225V27.275ZM294.025 23.9H287.15V22.55H294.025V23.9ZM320.973 32.85L319.973 34.05C317.173 33.025 314.673 30.975 313.648 28.8C312.748 31.225 310.148 33.525 307.098 34.8L306.048 33.65C309.623 32.35 312.723 29.175 312.723 25.4V24.55H307.273V23.225H319.773V24.55H314.498V25.4C314.498 29.025 317.648 31.775 320.973 32.85ZM325.273 44.425H323.598V38.025H309.923V36.65H325.273V44.425ZM325.323 35.45H323.648V28.625H318.623V27.225H323.648V22.075H325.323V35.45ZM351.003 33.5L350.053 34.725C347.303 33.7 344.703 31.5 343.678 29.275C342.778 31.8 340.178 34.125 337.103 35.475L336.078 34.3C339.653 32.875 342.753 29.75 342.753 25.875V24.55H337.303V23.225H349.803V24.55H344.528V25.875C344.528 29.55 347.728 32.325 351.003 33.5ZM355.353 38.55H353.678V28.75H348.653V27.375H353.678V22.075H355.353V38.55ZM356.178 43.95H340.478V36.55H342.153V42.6H356.178V43.95ZM380.526 35.425H358.726V34.1H368.776V31.55H361.776V22.625H377.476V23.925H363.451V26.425H377.376V27.7H363.451V30.2H377.751V31.55H370.501V34.1H380.526V35.425ZM377.926 40.85C377.926 43.075 374.926 44.675 369.601 44.675C364.301 44.675 361.276 43.075 361.276 40.85C361.276 38.65 364.301 37.025 369.601 37.025C374.926 37.025 377.926 38.65 377.926 40.85ZM376.251 40.85C376.251 39.3 373.751 38.3 369.601 38.3C365.451 38.3 362.951 39.3 362.951 40.85C362.951 42.4 365.451 43.425 369.601 43.425C373.751 43.425 376.251 42.4 376.251 40.85ZM400.449 44.3H398.774V22.075H400.449V31.1H403.999V32.525H400.449V44.3ZM397.824 37.4V38.7C395.499 39.2 392.674 39.35 389.374 39.35H381.899V38H387.149V30.15H388.824V38H389.474C392.549 38 395.499 37.825 397.824 37.4ZM394.299 34.725H392.649C393.174 32.2 393.724 27.875 393.674 24.8H383.199V23.45H395.424C395.399 26.9 394.949 31.675 394.299 34.725ZM427.303 43.25H425.678V35.425H422.128C421.303 38.1 419.678 39.575 417.603 39.575C414.678 39.575 412.553 36.475 412.553 31.2C412.553 25.95 414.678 22.85 417.603 22.85C419.603 22.85 421.178 24.225 422.053 26.7H425.678V22.45H427.303V43.25ZM417.603 38.225C419.703 38.225 421.053 35.45 421.053 31.2C421.053 26.975 419.703 24.2 417.603 24.2C415.553 24.2 414.178 26.975 414.178 31.2C414.178 35.45 415.553 38.225 417.603 38.225ZM431.828 44.3H430.153V22.075H431.828V44.3ZM425.678 34.075V28.05H422.403C422.578 29 422.678 30.05 422.678 31.2C422.678 32.25 422.603 33.225 422.453 34.075H425.678ZM449.251 26.525H435.576V25.225H449.251V26.525ZM445.951 23.475H438.826V22.175H445.951V23.475ZM442.451 34.975C439.001 34.975 436.776 33.35 436.776 31.35C436.776 29.35 439.001 27.725 442.451 27.725C445.876 27.725 448.126 29.35 448.126 31.35C448.126 33.35 445.876 34.975 442.451 34.975ZM442.451 29C439.926 29 438.451 30 438.451 31.35C438.451 32.725 439.926 33.725 442.451 33.725C444.976 33.725 446.451 32.7 446.451 31.35C446.451 30 444.976 29 442.451 29ZM446.526 44.675C441.651 44.675 438.676 43 438.676 40.725C438.676 38.475 441.651 36.8 446.526 36.8C451.401 36.8 454.351 38.475 454.351 40.725C454.351 43 451.401 44.675 446.526 44.675ZM446.526 38.05C442.926 38.05 440.376 39.05 440.376 40.725C440.376 42.425 442.926 43.4 446.526 43.4C450.101 43.4 452.676 42.425 452.676 40.725C452.676 39.05 450.101 38.05 446.526 38.05ZM453.826 36.6H452.151V22.075H453.826V26.075H457.101V27.425H453.826V30.7H457.101V32.05H453.826V36.6ZM477.424 44.3H475.749V22.075H477.424V44.3ZM459.124 31.125C459.124 25.8 461.574 22.675 464.824 22.675C468.099 22.675 470.524 25.8 470.524 31.125C470.524 36.475 468.099 39.6 464.824 39.6C461.574 39.6 459.124 36.475 459.124 31.125ZM468.849 31.125C468.849 26.55 467.174 24.025 464.824 24.025C462.499 24.025 460.799 26.55 460.799 31.125C460.799 35.725 462.499 38.25 464.824 38.25C467.174 38.25 468.849 35.725 468.849 31.125ZM499.197 44.3H497.547V22.075H499.197V30.5H502.947V31.925H499.197V44.3ZM496.472 36.7V38.075C493.672 38.625 489.297 38.9 485.947 38.9H482.222V30.375H491.222V24.775H482.222V23.425H492.897V31.7H483.922V37.525H485.947C489.297 37.525 493.472 37.275 496.472 36.7ZM525.545 34.8H503.745V33.45H525.545V34.8ZM523.02 30.075H506.795V22.15H508.47V28.725H523.02V30.075ZM523.445 43.95H506.82V37H508.495V42.575H523.445V43.95ZM549.174 37.975L548.149 39.175C545.299 37.55 542.449 34.7 541.499 31.95C540.624 35.025 537.999 37.9 534.774 39.825L533.649 38.725C537.299 36.675 540.549 32.85 540.549 27.675V24.9H534.949V23.55H547.774V24.9H542.324V27.675C542.324 32.75 545.974 36.325 549.174 37.975ZM553.449 44.3H551.774V22.075H553.449V44.3ZM576.397 35.2H574.722V31.4H568.697C567.622 32.725 565.947 33.55 563.872 33.55C560.272 33.55 557.847 31.1 557.847 28.025C557.847 24.95 560.272 22.475 563.872 22.475C565.997 22.475 567.697 23.375 568.772 24.725H574.722V22.075H576.397V35.2ZM568.197 28.025C568.197 25.675 566.597 23.825 563.872 23.825C561.122 23.825 559.547 25.675 559.547 28.025C559.547 30.35 561.122 32.2 563.872 32.2C566.597 32.2 568.197 30.35 568.197 28.025ZM576.347 44.425H574.672V37.775H560.997V36.4H576.347V44.425ZM574.722 30.05V26.075H569.522C569.772 26.7 569.872 27.35 569.872 28.025C569.872 28.75 569.772 29.425 569.497 30.05H574.722ZM595.046 32.85L594.046 34.05C591.246 33.025 588.746 30.975 587.721 28.8C586.821 31.225 584.221 33.525 581.171 34.8L580.121 33.65C583.696 32.35 586.796 29.175 586.796 25.4V24.55H581.346V23.225H593.846V24.55H588.571V25.4C588.571 29.025 591.721 31.775 595.046 32.85ZM599.346 44.425H597.671V38.025H583.996V36.65H599.346V44.425ZM599.396 35.45H597.721V28.625H592.696V27.225H597.721V22.075H599.396V35.45ZM629.85 40.25C629.85 42.8 626.775 44.675 621.75 44.675C616.725 44.675 613.65 42.8 613.65 40.25C613.65 37.725 616.725 35.85 621.75 35.85C626.775 35.85 629.85 37.725 629.85 40.25ZM628.15 40.25C628.15 38.325 625.425 37.2 621.75 37.2C618.05 37.2 615.35 38.325 615.35 40.25C615.35 42.2 618.05 43.325 621.75 43.325C625.425 43.325 628.15 42.2 628.15 40.25ZM625.075 32.85L624.075 34.05C621.275 33.025 618.775 30.975 617.75 28.8C616.85 31.225 614.25 33.525 611.2 34.8L610.15 33.65C613.725 32.35 616.825 29.175 616.825 25.4V24.55H611.375V23.225H623.875V24.55H618.6V25.4C618.6 29.025 621.75 31.775 625.075 32.85ZM629.425 35.675H627.75V28.625H622.725V27.25H627.75V22.075H629.425V35.675ZM645.448 38.25L644.448 39.4C642.273 37.975 640.223 35.475 639.473 33.15C638.698 35.65 636.523 38.325 633.773 40.15L632.648 39.1C635.998 37.125 638.573 33.475 638.573 29.025V28.3H634.098V26.95H644.698V28.3H640.323V29.025C640.323 33.425 642.948 36.8 645.448 38.25ZM648.548 43.25H646.923V32.55H643.323V31.175H646.923V22.45H648.548V43.25ZM653.073 44.3H651.423V22.075H653.073V44.3ZM642.523 24.225H636.273V22.875H642.523V24.225ZM667.746 44.675C662.721 44.675 659.646 42.8 659.646 40.25C659.646 37.725 662.721 35.85 667.746 35.85C672.771 35.85 675.846 37.725 675.846 40.25C675.846 42.8 672.771 44.675 667.746 44.675ZM667.746 37.2C664.046 37.2 661.346 38.325 661.346 40.25C661.346 42.2 664.046 43.325 667.746 43.325C671.421 43.325 674.146 42.2 674.146 40.25C674.146 38.325 671.421 37.2 667.746 37.2ZM670.746 32.375L669.771 33.625C666.971 32.6 664.446 30.525 663.421 28.3C662.521 30.75 659.996 33.025 656.871 34.35L655.846 33.225C659.496 31.825 662.496 28.7 662.496 24.9V22.65H664.271V24.9C664.271 28.525 667.346 31.25 670.746 32.375ZM675.421 35.675H673.746V27.7H668.171V26.3H673.746V22.075H675.421V35.675ZM697.869 25.925C697.869 28.225 694.744 29.925 689.669 29.925C684.594 29.925 681.494 28.225 681.494 25.925C681.494 23.625 684.594 21.925 689.669 21.925C694.744 21.925 697.869 23.625 697.869 25.925ZM696.194 25.95C696.194 24.2 693.394 23.225 689.669 23.225C685.969 23.225 683.144 24.2 683.144 25.95C683.144 27.675 685.969 28.65 689.669 28.65C693.394 28.65 696.194 27.675 696.194 25.95ZM698.044 44.05H681.819V38.925H695.819V36.575H681.819V35.25H697.494V40.2H683.494V42.725H698.044V44.05ZM700.594 32.925H678.794V31.6H700.594V32.925ZM720.973 38.65H710.298V23.3H711.998V29.2H719.298V23.3H720.973V38.65ZM719.298 37.3V30.525H711.998V37.3H719.298ZM727.273 44.3H725.623V22.075H727.273V30.475H731.023V31.9H727.273V44.3ZM743.346 44.675C738.446 44.675 735.496 42.925 735.496 40.525C735.496 38.125 738.446 36.35 743.346 36.35C748.196 36.35 751.146 38.125 751.146 40.525C751.146 42.925 748.196 44.675 743.346 44.675ZM750.621 35.925H748.971V22.075H750.621V27.5H754.021V28.9H750.621V35.925ZM743.346 37.65C739.771 37.65 737.171 38.725 737.171 40.525C737.171 42.325 739.771 43.375 743.346 43.375C746.896 43.375 749.496 42.325 749.496 40.525C749.496 38.725 746.896 37.65 743.346 37.65ZM747.871 32.125V33.4C745.321 33.975 741.196 34.275 737.721 34.275H733.546V23.025H744.271V24.325H735.196V27.925H743.996V29.2H735.196V32.95H737.721C741.096 32.95 745.121 32.65 747.871 32.125ZM765.694 34.8C760.844 34.8 757.519 32.15 757.519 28.675C757.519 25.175 760.844 22.525 765.694 22.525C770.569 22.525 773.919 25.175 773.919 28.675C773.919 32.15 770.569 34.8 765.694 34.8ZM765.694 23.875C762.019 23.875 759.169 25.775 759.169 28.675C759.169 31.55 762.019 33.45 765.694 33.45C769.394 33.45 772.244 31.55 772.244 28.675C772.244 25.775 769.394 23.875 765.694 23.875ZM776.644 41.05H754.794V39.7H776.644V41.05ZM799.642 41.375H777.792V40.025H787.992V35.3H780.867V28.625H794.592V24.65H780.867V23.3H796.242V29.95H782.542V33.925H796.967V35.3H789.692V40.025H799.642V41.375ZM802.54 46.4L802.14 46.025C803.015 45.475 803.765 44.4 803.89 43.45C803.915 43.325 803.89 43.225 803.84 43.175C803.79 43.05 803.64 42.975 803.39 42.975C802.69 42.975 802.04 42.5 802.04 41.65C802.04 40.85 802.69 40.325 803.49 40.325C804.415 40.325 805.065 41.15 805.065 42.175C805.065 43.95 803.99 45.625 802.54 46.4ZM834.232 33.6H817.657V22.975H819.332V32.25H834.232V33.6ZM836.532 41.05H814.682V39.7H836.532V41.05ZM859.505 33.325H837.705V31.975H854.105C854.655 29.6 855.005 26.35 855.08 24.15H840.355V22.8H856.805C856.68 26.225 856.255 29.625 855.73 31.975H859.505V33.325ZM858.305 43.125L857.405 44.35C853.505 43.625 849.955 41.625 848.58 39.075C847.23 41.625 843.68 43.625 839.78 44.35L838.83 43.125C843.23 42.375 847.655 39.775 847.655 36.6V35.45H849.505V36.6C849.505 39.775 853.98 42.375 858.305 43.125ZM879.778 38.75H878.103V22.075H879.778V28.925H883.178V30.325H879.778V38.75ZM880.703 43.95H865.228V37.5H866.878V42.6H880.703V43.95ZM875.203 26.8H861.528V25.5H875.203V26.8ZM871.903 23.475H864.778V22.175H871.903V23.475ZM868.403 35.825C864.953 35.825 862.728 34.1 862.728 31.975C862.728 29.85 864.953 28.125 868.403 28.125C871.828 28.125 874.078 29.85 874.078 31.975C874.078 34.1 871.828 35.825 868.403 35.825ZM868.403 29.4C865.878 29.4 864.403 30.5 864.403 31.975C864.403 33.475 865.878 34.575 868.403 34.575C870.928 34.575 872.403 33.45 872.403 31.975C872.403 30.5 870.928 29.4 868.403 29.4ZM910.007 44.05H894.907V38.575H907.807V35.825H894.907V34.525H909.482V39.825H896.557V42.725H910.007V44.05ZM902.857 31.875H892.307V23.225H902.857V31.875ZM901.182 30.575V24.525H893.982V30.575H901.182ZM909.532 33.35H907.882V22.075H909.532V26.425H912.932V27.825H909.532V33.35ZM929.23 24.175H920.005V22.825H929.23V24.175ZM933.53 27.825H915.705V26.475H933.53V27.825ZM924.605 37.175C920.23 37.175 917.405 35.55 917.405 33.275C917.405 31.025 920.23 29.4 924.605 29.4C929.03 29.4 931.83 31.025 931.83 33.275C931.83 35.55 929.03 37.175 924.605 37.175ZM924.605 30.725C921.58 30.725 919.08 31.625 919.08 33.275C919.08 34.925 921.58 35.85 924.605 35.85C927.68 35.85 930.155 34.925 930.155 33.275C930.155 31.625 927.68 30.725 924.605 30.725ZM935.555 41.225H913.705V39.875H935.555V41.225ZM955.454 44.05H939.779V37.1H955.454V44.05ZM953.779 42.75V38.4H941.454V42.75H953.779ZM955.754 31.3H939.779V26.3H953.554V23.925H939.779V22.625H955.204V27.575H941.454V29.95H955.754V31.3ZM958.529 34.75H936.729V33.45H958.529V34.75ZM978.452 44.3H976.777V22.075H978.452V31.1H982.002V32.525H978.452V44.3ZM975.827 37.4V38.7C973.502 39.2 970.677 39.35 967.377 39.35H959.902V38H965.152V30.15H966.827V38H967.477C970.552 38 973.502 37.825 975.827 37.4ZM972.302 34.725H970.652C971.177 32.2 971.727 27.875 971.677 24.8H961.202V23.45H973.427C973.402 26.9 972.952 31.675 972.302 34.725ZM35.3 82.3H33.625V73.425H27.725C26.775 76.125 24.9 77.6 22.675 77.6C19.425 77.6 17 74.475 17 69.125C17 63.8 19.425 60.675 22.675 60.675C24.875 60.675 26.7 62.1 27.65 64.675H33.625V60.075H35.3V82.3ZM22.675 76.25C25 76.25 26.7 73.725 26.7 69.125C26.7 64.55 25 62.025 22.675 62.025C20.35 62.025 18.675 64.55 18.675 69.125C18.675 73.725 20.35 76.25 22.675 76.25ZM33.625 72.075V66.025H28.025C28.25 66.95 28.375 68 28.375 69.125C28.375 70.2 28.275 71.2 28.1 72.075H33.625ZM49.473 69.05C44.398 69.05 41.323 67.125 41.323 64.5C41.323 61.875 44.398 59.95 49.473 59.95C54.548 59.95 57.698 61.875 57.698 64.5C57.698 67.125 54.548 69.05 49.473 69.05ZM49.473 61.275C45.773 61.275 42.973 62.425 42.973 64.5C42.973 66.575 45.773 67.725 49.473 67.725C53.198 67.725 56.023 66.575 56.023 64.5C56.023 62.425 53.198 61.275 49.473 61.275ZM60.423 72.9H50.623V77.975H48.923V72.9H38.623V71.55H60.423V72.9ZM58.323 81.95H41.698V75.3H43.373V80.575H58.323V81.95ZM90.6773 81.275L89.6273 82.4C87.6773 81.4 85.6773 79.5 85.0273 77.675C84.3773 79.425 82.5773 81.375 80.8273 82.325C79.0523 81.375 77.2273 79.425 76.6023 77.675C75.9273 79.5 73.9523 81.4 72.0023 82.4L70.9523 81.275C73.3023 80.2 75.7523 77.65 75.7523 74.95V73.975H77.4273V74.95C77.4273 77.25 79.2773 79.6 80.8273 80.575C82.3523 79.6 84.2023 77.25 84.2023 74.95V73.975H85.8773V74.95C85.8773 77.65 88.3523 80.2 90.6773 81.275ZM81.7523 66.025C81.7523 69.1 79.3023 71.55 75.7523 71.55C72.1523 71.55 69.7273 69.1 69.7273 66.025C69.7273 62.95 72.1523 60.475 75.7523 60.475C79.3023 60.475 81.7523 62.95 81.7523 66.025ZM80.0773 66.025C80.0773 63.675 78.4773 61.825 75.7523 61.825C73.0023 61.825 71.4273 63.675 71.4273 66.025C71.4273 68.35 73.0023 70.2 75.7523 70.2C78.4773 70.2 80.0773 68.35 80.0773 66.025ZM88.2773 73H86.6023V60.075H88.2773V73ZM113.45 72.8H91.6504V71.45H113.45V72.8ZM110.925 68.075H94.7004V60.15H96.3754V66.725H110.925V68.075ZM111.35 81.95H94.7254V75H96.4004V80.575H111.35V81.95ZM141.48 71.5H123.655V70.15H127.255L127.08 62.825H124.18V61.475H140.955V62.825H138.28L138.105 70.15H141.48V71.5ZM136.43 70.15L136.63 62.825H128.755L128.905 70.15H136.43ZM143.505 79.225H121.655V77.875H127.105V72.625H128.805V77.875H136.33V72.625H138.005V77.875H143.505V79.225ZM158.953 64.8H145.503V63.5H158.953V64.8ZM155.878 61.475H148.753V60.175H155.878V61.475ZM152.378 73.825C148.928 73.825 146.703 72.1 146.703 69.975C146.703 67.85 148.928 66.125 152.378 66.125C155.803 66.125 158.053 67.85 158.053 69.975C158.053 72.1 155.803 73.825 152.378 73.825ZM152.378 67.4C149.853 67.4 148.378 68.5 148.378 69.975C148.378 71.475 149.853 72.575 152.378 72.575C154.903 72.575 156.378 71.45 156.378 69.975C156.378 68.5 154.903 67.4 152.378 67.4ZM165.128 81.95H149.428V75.5H151.103V80.6H165.128V81.95ZM164.303 76.75H162.628V72.35H158.678V71.05H162.628V67.825H158.678V66.525H162.628V60.075H164.303V76.75ZM187.351 82.3H185.676V60.075H187.351V82.3ZM169.051 69.125C169.051 63.8 171.501 60.675 174.751 60.675C178.026 60.675 180.451 63.8 180.451 69.125C180.451 74.475 178.026 77.6 174.751 77.6C171.501 77.6 169.051 74.475 169.051 69.125ZM178.776 69.125C178.776 64.55 177.101 62.025 174.751 62.025C172.426 62.025 170.726 64.55 170.726 69.125C170.726 73.725 172.426 76.25 174.751 76.25C177.101 76.25 178.776 73.725 178.776 69.125ZM216.98 82.05H200.755V74.75H216.555V76.1H202.43V80.7H216.98V82.05ZM219.505 72.225H197.705V70.875H207.88V67.875H200.755V60.8H216.505V62.15H202.43V66.525H216.93V67.875H209.555V70.875H219.505V72.225ZM242.528 79.225H220.678V77.875H230.728V72.75H223.753V61.175H225.428V65.25H237.728V61.175H239.403V72.75H232.453V77.875H242.528V79.225ZM237.728 71.4V66.575H225.428V71.4H237.728ZM263.376 82.3H261.701V60.075H263.376V82.3ZM245.076 69.125C245.076 63.8 247.526 60.675 250.776 60.675C254.051 60.675 256.476 63.8 256.476 69.125C256.476 74.475 254.051 77.6 250.776 77.6C247.526 77.6 245.076 74.475 245.076 69.125ZM254.801 69.125C254.801 64.55 253.126 62.025 250.776 62.025C248.451 62.025 246.751 64.55 246.751 69.125C246.751 73.725 248.451 76.25 250.776 76.25C253.126 76.25 254.801 73.725 254.801 69.125ZM288.499 72.8H266.699V71.45H288.499V72.8ZM285.974 68.075H269.749V60.15H271.424V66.725H285.974V68.075ZM286.399 81.95H269.774V75H271.449V80.575H286.399V81.95ZM315.529 73.775H313.879V60.075H315.529V65.275H318.929V66.675H315.529V73.775ZM308.254 82.675C303.354 82.675 300.404 80.875 300.404 78.425C300.404 76 303.354 74.2 308.254 74.2C313.104 74.2 316.054 76 316.054 78.425C316.054 80.875 313.104 82.675 308.254 82.675ZM308.254 75.55C304.679 75.55 302.079 76.625 302.079 78.425C302.079 80.25 304.679 81.325 308.254 81.325C311.804 81.325 314.404 80.25 314.404 78.425C314.404 76.625 311.804 75.55 308.254 75.55ZM308.854 71.525H298.304V60.85H299.979V64.8H307.179V60.85H308.854V71.525ZM307.179 70.175V66.125H299.979V70.175H307.179ZM339.352 76.575H337.677V66.9H332.852C332.577 69.825 330.177 72.05 326.827 72.05C323.202 72.05 320.752 69.5 320.752 66.3C320.752 63.05 323.202 60.475 326.827 60.475C330.102 60.475 332.477 62.65 332.827 65.5H337.677V60.075H339.352V76.575ZM326.827 70.7C329.577 70.7 331.202 68.75 331.202 66.275C331.202 63.775 329.577 61.825 326.827 61.825C324.052 61.825 322.452 63.775 322.452 66.275C322.452 68.75 324.052 70.7 326.827 70.7ZM340.177 81.95H324.477V74.55H326.152V80.6H340.177V81.95ZM362.4 82.3H360.725V60.075H362.4V82.3ZM344.1 69.125C344.1 63.8 346.55 60.675 349.8 60.675C353.075 60.675 355.5 63.8 355.5 69.125C355.5 74.475 353.075 77.6 349.8 77.6C346.55 77.6 344.1 74.475 344.1 69.125ZM353.825 69.125C353.825 64.55 352.15 62.025 349.8 62.025C347.475 62.025 345.775 64.55 345.775 69.125C345.775 73.725 347.475 76.25 349.8 76.25C352.15 76.25 353.825 73.725 353.825 69.125ZM384.173 82.3H382.523V60.075H384.173V68H387.923V69.425H384.173V82.3ZM381.448 74.2V75.55C378.648 76.125 374.273 76.4 370.923 76.4H367.473V61.55H378.198V62.9H369.123V75.025H370.923C374.273 75.025 378.448 74.75 381.448 74.2ZM392.921 79.825C392.921 80.625 392.296 81.225 391.496 81.225C390.646 81.225 390.021 80.625 390.021 79.825C390.021 79.075 390.646 78.425 391.496 78.425C392.296 78.425 392.921 79.075 392.921 79.825ZM415.137 75.75L414.062 76.9C411.612 75.175 409.687 72.575 408.912 70.05C408.187 72.85 406.137 75.675 403.237 77.7L402.062 76.675C405.612 74.475 408.037 70.225 408.037 65.4V61.2H409.762V65.4C409.762 70.35 412.312 73.975 415.137 75.75ZM418.387 81.25H416.762V68.625H412.362V67.25H416.762V60.45H418.387V81.25ZM422.912 82.3H421.262V60.075H422.912V82.3ZM445.16 82.3H443.51V69.425H440.06V81.25H438.435V60.45H440.06V67.95H443.51V60.075H445.16V82.3ZM437.285 74.675V76.025C435.21 76.35 432.16 76.55 429.985 76.55H427.51V61.75H435.785V63.1H429.11V75.175H429.985C432.16 75.175 435.185 75 437.285 74.675ZM456.915 73.8L455.965 72.575C461.64 70.875 465.59 66.85 466.315 62.575H457.315V61.225H468.24C467.715 67.525 462.765 71.8 456.915 73.8ZM475.365 81.95H459.89V74.55H461.565V80.6H475.365V81.95ZM474.44 76.55H472.79V60.075H474.44V66.425H477.84V67.825H474.44V76.55ZM500.719 76.275L499.719 77.475C496.669 76 494.094 73.5 493.144 70.775C492.194 73.675 489.519 76.375 486.469 78.05L485.344 76.975C488.869 75.225 492.194 71.775 492.194 66.875V66.125H486.594V64.775H499.394V66.125H493.969V66.875C493.969 71.65 497.369 74.75 500.719 76.275ZM504.394 82.3H502.719V60.075H504.394V69.025H508.144V70.45H504.394V82.3ZM496.594 62.075H489.394V60.725H496.594V62.075ZM528.342 82.3H526.667V60.075H528.342V82.3ZM510.042 69.125C510.042 63.8 512.492 60.675 515.742 60.675C519.017 60.675 521.442 63.8 521.442 69.125C521.442 74.475 519.017 77.6 515.742 77.6C512.492 77.6 510.042 74.475 510.042 69.125ZM519.767 69.125C519.767 64.55 518.092 62.025 515.742 62.025C513.417 62.025 511.717 64.55 511.717 69.125C511.717 73.725 513.417 76.25 515.742 76.25C518.092 76.25 519.767 73.725 519.767 69.125ZM553.465 72.8H531.665V71.45H553.465V72.8ZM550.94 68.075H534.715V60.15H536.39V66.725H550.94V68.075ZM551.365 81.95H534.74V75H536.415V80.575H551.365V81.95ZM582.119 68.25L581.219 69.45C577.494 68.75 574.019 66.85 572.594 64.375C571.194 66.85 567.744 68.75 564.044 69.45L563.119 68.25C567.319 67.55 571.669 65 571.744 62.15H564.494V60.8H580.694V62.15H573.494C573.569 65.025 577.894 67.525 582.119 68.25ZM583.494 73.325H561.694V71.975H571.769V68.35H573.469V71.975H583.494V73.325ZM581.394 81.95H564.769V75.225H566.444V80.575H581.394V81.95ZM604.992 82.3H603.342V69.725H599.967V81.25H598.317V60.45H599.967V68.275H603.342V60.075H604.992V82.3ZM597.417 75.95L596.392 77.075C593.967 75.4 592.142 72.925 591.367 70.425C590.642 73.2 588.542 75.9 585.692 77.825L584.492 76.8C587.942 74.7 590.467 70.7 590.467 66.025V63.05H586.192V61.7H596.292V63.05H592.217V66.025C592.217 70.8 594.692 74.25 597.417 75.95ZM618.665 62.075H611.74V60.725H618.665V62.075ZM626.565 82.3H624.915V60.075H626.565V69.25H630.165V70.675H626.565V82.3ZM620.965 72.95C620.965 75.875 618.665 78.225 615.29 78.225C611.915 78.225 609.615 75.875 609.615 72.95C609.615 70.025 611.915 67.65 615.29 67.65C618.665 67.65 620.965 70 620.965 72.95ZM619.315 72.95C619.315 70.6 617.74 68.975 615.315 68.975C612.865 68.975 611.29 70.575 611.29 72.95C611.29 75.3 612.865 76.9 615.315 76.9C617.74 76.9 619.315 75.3 619.315 72.95ZM622.09 65.775H608.365V64.425H622.09V65.775ZM646.088 75.975L645.063 77.175C642.213 75.55 639.363 72.7 638.413 69.95C637.538 73.025 634.913 75.9 631.688 77.825L630.563 76.725C634.213 74.675 637.463 70.85 637.463 65.675V62.9H631.863V61.55H644.688V62.9H639.238V65.675C639.238 70.75 642.888 74.325 646.088 75.975ZM650.363 82.3H648.688V60.075H650.363V82.3ZM665.812 71.475H655.262V61.225H665.812V71.475ZM664.137 70.125V62.55H656.937V70.125H664.137ZM672.487 76.55H670.837V60.075H672.487V65.675H675.887V67.075H672.487V76.55ZM673.412 81.95H657.937V74.55H659.612V80.6H673.412V81.95ZM699.116 75.975L698.091 77.175C695.241 75.55 692.391 72.7 691.441 69.95C690.566 73.025 687.941 75.9 684.716 77.825L683.591 76.725C687.241 74.675 690.491 70.85 690.491 65.675V62.9H684.891V61.55H697.716V62.9H692.266V65.675C692.266 70.75 695.916 74.325 699.116 75.975ZM703.391 82.3H701.716V60.075H703.391V82.3ZM726.339 73.2H724.664V69.4H718.639C717.564 70.725 715.889 71.55 713.814 71.55C710.214 71.55 707.789 69.1 707.789 66.025C707.789 62.95 710.214 60.475 713.814 60.475C715.939 60.475 717.639 61.375 718.714 62.725H724.664V60.075H726.339V73.2ZM718.139 66.025C718.139 63.675 716.539 61.825 713.814 61.825C711.064 61.825 709.489 63.675 709.489 66.025C709.489 68.35 711.064 70.2 713.814 70.2C716.539 70.2 718.139 68.35 718.139 66.025ZM726.289 82.425H724.614V75.775H710.939V74.4H726.289V82.425ZM724.664 68.05V64.075H719.464C719.714 64.7 719.814 65.35 719.814 66.025C719.814 66.75 719.714 67.425 719.439 68.05H724.664ZM756.293 82.3H754.643V69.375H750.918V81.25H749.318V60.45H750.918V67.925H754.643V60.075H756.293V82.3ZM748.293 74.65V76C746.218 76.325 743.193 76.525 740.993 76.525H738.643V61.25H740.243V75.15H740.993C743.193 75.15 746.193 74.975 748.293 74.65ZM781.597 75.875L780.572 77.075C777.597 75.45 774.822 72.425 773.922 69.575C772.997 72.725 770.622 75.625 767.222 77.725L766.072 76.675C769.972 74.425 772.972 70.55 772.972 65.25V61.05H774.772V65.25C774.772 70.35 778.097 74.15 781.597 75.875ZM785.497 82.3H783.822V60.075H785.497V68.675H789.247V70.1H785.497V82.3ZM811.571 72.675H789.771V71.325H795.446V67.9C793.521 67.1 792.471 65.85 792.471 64.35C792.471 61.8 795.571 59.95 800.646 59.95C805.721 59.95 808.846 61.8 808.846 64.35C808.846 65.85 807.771 67.1 805.871 67.9V71.325H811.571V72.675ZM808.971 78.475C808.971 80.925 805.971 82.675 800.646 82.675C795.346 82.675 792.321 80.925 792.321 78.475C792.321 76.05 795.346 74.3 800.646 74.3C805.971 74.3 808.971 76.05 808.971 78.475ZM807.171 64.375C807.171 62.35 804.371 61.275 800.646 61.275C796.946 61.275 794.121 62.35 794.121 64.375C794.121 66.375 796.946 67.45 800.646 67.45C804.371 67.45 807.171 66.375 807.171 64.375ZM807.296 78.475C807.296 76.75 804.796 75.6 800.646 75.6C796.496 75.6 793.996 76.75 793.996 78.475C793.996 80.225 796.496 81.375 800.646 81.375C804.796 81.375 807.296 80.225 807.296 78.475ZM804.221 71.325V68.425C803.171 68.65 801.971 68.775 800.646 68.775C799.321 68.775 798.121 68.65 797.121 68.425V71.325H804.221ZM834.594 79.225H812.744V77.875H822.944V72H815.819V61.475H831.794V62.825H817.494V70.65H832.044V72H824.644V77.875H834.594V79.225ZM837.317 77.55L836.242 76.425C842.142 73.55 845.442 68.55 846.067 62.9H837.617V61.55H847.892C847.542 69.075 843.217 74.575 837.317 77.55ZM854.217 82.3H852.567V60.075H854.217V68.75H857.967V70.175H854.217V82.3ZM885.396 82.05H867.996V80.75H871.421L871.296 75.55H868.521V74.25H884.896V75.55H882.096L881.971 80.75H885.396V82.05ZM880.296 80.75L880.421 75.55H872.946L873.071 80.75H880.296ZM887.596 71.625H865.796V70.275H875.996V67H868.846V60.15H870.521V65.675H885.071V67H877.696V70.275H887.596V71.625ZM907.244 82.3H905.594V60.075H907.244V68.125H910.994V69.55H907.244V82.3ZM889.644 69.125C889.644 63.8 892.069 60.675 895.319 60.675C898.569 60.675 901.019 63.8 901.019 69.125C901.019 74.475 898.569 77.6 895.319 77.6C892.069 77.6 889.644 74.475 889.644 69.125ZM899.344 69.125C899.344 64.55 897.644 62.025 895.319 62.025C892.994 62.025 891.319 64.55 891.319 69.125C891.319 73.725 892.994 76.25 895.319 76.25C897.644 76.25 899.344 73.725 899.344 69.125ZM938.873 78.25C938.873 80.8 935.798 82.675 930.773 82.675C925.748 82.675 922.673 80.8 922.673 78.25C922.673 75.725 925.748 73.85 930.773 73.85C935.798 73.85 938.873 75.725 938.873 78.25ZM937.173 78.25C937.173 76.325 934.448 75.2 930.773 75.2C927.073 75.2 924.373 76.325 924.373 78.25C924.373 80.2 927.073 81.325 930.773 81.325C934.448 81.325 937.173 80.2 937.173 78.25ZM934.098 70.85L933.098 72.05C930.298 71.025 927.798 68.975 926.773 66.8C925.873 69.225 923.273 71.525 920.223 72.8L919.173 71.65C922.748 70.35 925.848 67.175 925.848 63.4V62.55H920.398V61.225H932.898V62.55H927.623V63.4C927.623 67.025 930.773 69.775 934.098 70.85ZM938.448 73.675H936.773V66.625H931.748V65.25H936.773V60.075H938.448V73.675ZM961.496 82.3H959.821V68.525H954.271V67.125H959.821V60.075H961.496V82.3ZM956.896 75.875L955.896 77.075C952.921 75.45 950.121 72.425 949.246 69.575C948.321 72.725 945.946 75.625 942.521 77.725L941.396 76.675C945.246 74.425 948.296 70.55 948.296 65.25V61.05H950.071V65.25C950.071 70.35 953.421 74.15 956.896 75.875ZM980.094 70.85L979.094 72.05C976.294 71.025 973.794 68.975 972.769 66.8C971.869 69.225 969.269 71.525 966.219 72.8L965.169 71.65C968.744 70.35 971.844 67.175 971.844 63.4V62.55H966.394V61.225H978.894V62.55H973.619V63.4C973.619 67.025 976.769 69.775 980.094 70.85ZM984.394 82.425H982.719V76.025H969.044V74.65H984.394V82.425ZM984.444 73.45H982.769V66.625H977.744V65.225H982.769V60.075H984.444V73.45ZM34.725 103.325C34.725 106.2 31.625 108.45 26.45 108.45C21.3 108.45 18.2 106.2 18.2 103.325C18.2 100.475 21.3 98.225 26.45 98.225C31.625 98.225 34.725 100.475 34.725 103.325ZM33.05 103.325C33.05 101 30.225 99.575 26.45 99.575C22.725 99.575 19.875 101 19.875 103.325C19.875 105.675 22.725 107.1 26.45 107.1C30.225 107.1 33.05 105.675 33.05 103.325ZM31.275 120.3H29.625V112.125H23.425V120.1H21.725V112.125H15.6V110.775H37.425V112.125H31.275V120.3ZM58.173 120.3H56.523V107.425H53.073V119.25H51.448V98.45H53.073V105.95H56.523V98.075H58.173V120.3ZM50.298 112.675V114.025C48.223 114.35 45.173 114.55 42.998 114.55H40.523V99.75H48.798V101.1H42.123V113.175H42.998C45.173 113.175 48.198 113 50.298 112.675ZM77.7211 113.4V114.7C75.3961 115.2 72.5711 115.35 69.2711 115.35H61.7961V114H68.5711V109.6C65.3461 109.3 63.0961 106.925 63.0961 104.15C63.0961 101.175 65.6961 98.7 69.2711 98.7C72.8461 98.7 75.4211 101.175 75.4211 104.15C75.4211 106.85 73.2961 109.175 70.2211 109.575V114C72.9961 113.975 75.6211 113.8 77.7211 113.4ZM73.7711 104.15C73.7711 101.9 72.0711 100.05 69.2711 100.05C66.4461 100.05 64.7961 101.9 64.7961 104.15C64.7961 106.4 66.4461 108.275 69.2711 108.275C72.0711 108.275 73.7711 106.4 73.7711 104.15ZM80.3461 120.3H78.6711V98.075H80.3461V107.1H83.8961V108.525H80.3461V120.3ZM107.05 113.975L106.025 115.175C103.175 113.55 100.325 110.7 99.3754 107.95C98.5004 111.025 95.8754 113.9 92.6504 115.825L91.5254 114.725C95.1754 112.675 98.4254 108.85 98.4254 103.675V100.9H92.8254V99.55H105.65V100.9H100.2V103.675C100.2 108.75 103.85 112.325 107.05 113.975ZM111.325 120.3H109.65V98.075H111.325V120.3ZM134.273 111.2H132.598V107.4H126.573C125.498 108.725 123.823 109.55 121.748 109.55C118.148 109.55 115.723 107.1 115.723 104.025C115.723 100.95 118.148 98.475 121.748 98.475C123.873 98.475 125.573 99.375 126.648 100.725H132.598V98.075H134.273V111.2ZM126.073 104.025C126.073 101.675 124.473 99.825 121.748 99.825C118.998 99.825 117.423 101.675 117.423 104.025C117.423 106.35 118.998 108.2 121.748 108.2C124.473 108.2 126.073 106.35 126.073 104.025ZM134.223 120.425H132.548V113.775H118.873V112.4H134.223V120.425ZM132.598 106.05V102.075H127.398C127.648 102.7 127.748 103.35 127.748 104.025C127.748 104.75 127.648 105.425 127.373 106.05H132.598ZM163.878 116.225C163.878 118.825 160.878 120.675 155.553 120.675C150.253 120.675 147.228 118.825 147.228 116.225C147.228 113.65 150.253 111.8 155.553 111.8C160.878 111.8 163.878 113.65 163.878 116.225ZM162.203 116.225C162.203 114.35 159.703 113.1 155.553 113.1C151.403 113.1 148.903 114.35 148.903 116.225C148.903 118.125 151.403 119.375 155.553 119.375C159.703 119.375 162.203 118.125 162.203 116.225ZM166.478 109.55H144.678V108.2H153.478V103.2H155.203V108.2H166.478V109.55ZM162.728 106.6H161.078C161.653 104.45 161.978 102.15 162.028 100.15H147.328V98.8H163.753C163.703 101.95 163.328 104.475 162.728 106.6ZM178.551 120.675C173.251 120.675 170.226 118.925 170.226 116.475C170.226 114.05 173.251 112.3 178.551 112.3C183.876 112.3 186.876 114.05 186.876 116.475C186.876 118.925 183.876 120.675 178.551 120.675ZM178.551 113.6C174.401 113.6 171.901 114.75 171.901 116.475C171.901 118.225 174.401 119.375 178.551 119.375C182.701 119.375 185.201 118.225 185.201 116.475C185.201 114.75 182.701 113.6 178.551 113.6ZM189.476 110.475H167.676V109.125H177.851V106.125H170.726V98.8H186.476V100.15H172.401V104.775H186.901V106.125H179.551V109.125H189.476V110.475ZM203.324 114.25L202.324 115.4C200.149 113.975 198.099 111.475 197.349 109.15C196.574 111.65 194.399 114.325 191.649 116.15L190.524 115.1C193.874 113.125 196.449 109.475 196.449 105.025V104.3H191.974V102.95H202.574V104.3H198.199V105.025C198.199 109.425 200.824 112.8 203.324 114.25ZM206.424 119.25H204.799V108.55H201.199V107.175H204.799V98.45H206.424V119.25ZM210.949 120.3H209.299V98.075H210.949V120.3ZM200.399 100.225H194.149V98.875H200.399V100.225ZM225.622 120.675C220.597 120.675 217.522 118.8 217.522 116.25C217.522 113.725 220.597 111.85 225.622 111.85C230.647 111.85 233.722 113.725 233.722 116.25C233.722 118.8 230.647 120.675 225.622 120.675ZM225.622 113.2C221.922 113.2 219.222 114.325 219.222 116.25C219.222 118.2 221.922 119.325 225.622 119.325C229.297 119.325 232.022 118.2 232.022 116.25C232.022 114.325 229.297 113.2 225.622 113.2ZM228.622 108.375L227.647 109.625C224.847 108.6 222.322 106.525 221.297 104.3C220.397 106.75 217.872 109.025 214.747 110.35L213.722 109.225C217.372 107.825 220.372 104.7 220.372 100.9V98.65H222.147V100.9C222.147 104.525 225.222 107.25 228.622 108.375ZM233.297 111.675H231.622V103.7H226.047V102.3H231.622V98.075H233.297V111.675ZM255.745 101.925C255.745 104.225 252.62 105.925 247.545 105.925C242.47 105.925 239.37 104.225 239.37 101.925C239.37 99.625 242.47 97.925 247.545 97.925C252.62 97.925 255.745 99.625 255.745 101.925ZM254.07 101.95C254.07 100.2 251.27 99.225 247.545 99.225C243.845 99.225 241.02 100.2 241.02 101.95C241.02 103.675 243.845 104.65 247.545 104.65C251.27 104.65 254.07 103.675 254.07 101.95ZM255.92 120.05H239.695V114.925H253.695V112.575H239.695V111.25H255.37V116.2H241.37V118.725H255.92V120.05ZM258.47 108.925H236.67V107.6H258.47V108.925ZM278.224 120.675C273.324 120.675 270.374 118.75 270.374 116.125C270.374 113.525 273.324 111.6 278.224 111.6C283.074 111.6 286.024 113.525 286.024 116.125C286.024 118.75 283.074 120.675 278.224 120.675ZM278.224 112.95C274.649 112.95 272.049 114.125 272.049 116.125C272.049 118.15 274.649 119.325 278.224 119.325C281.774 119.325 284.374 118.15 284.374 116.125C284.374 114.125 281.774 112.95 278.224 112.95ZM285.499 111.225H283.849V98.075H285.499V103.7H288.899V105.075H285.499V111.225ZM267.999 110.95L267.049 109.75C272.549 108.275 276.649 104.675 277.374 100.575H268.374V99.225H279.299C278.774 105.45 273.599 109.3 267.999 110.95ZM300.672 100.075H293.747V98.725H300.672V100.075ZM308.572 120.3H306.922V98.075H308.572V107.25H312.172V108.675H308.572V120.3ZM302.972 110.95C302.972 113.875 300.672 116.225 297.297 116.225C293.922 116.225 291.622 113.875 291.622 110.95C291.622 108.025 293.922 105.65 297.297 105.65C300.672 105.65 302.972 108 302.972 110.95ZM301.322 110.95C301.322 108.6 299.747 106.975 297.322 106.975C294.872 106.975 293.297 108.575 293.297 110.95C293.297 113.3 294.872 114.9 297.322 114.9C299.747 114.9 301.322 113.3 301.322 110.95ZM304.097 103.775H290.372V102.425H304.097V103.775ZM314.22 115.525L312.945 114.45C318.12 111.55 320.795 106 321.095 101.05H314.195V99.7H322.895C322.77 106.575 319.47 112.325 314.22 115.525ZM327.92 119.25H326.295V107.875H322.495V106.475H326.295V98.45H327.92V119.25ZM332.495 120.3H330.845V98.075H332.495V120.3ZM358 109.5L357.05 110.725C354.3 109.7 351.7 107.5 350.675 105.275C349.775 107.8 347.175 110.125 344.1 111.475L343.075 110.3C346.65 108.875 349.75 105.75 349.75 101.875V100.55H344.3V99.225H356.8V100.55H351.525V101.875C351.525 105.55 354.725 108.325 358 109.5ZM362.35 114.55H360.675V104.75H355.65V103.375H360.675V98.075H362.35V114.55ZM363.175 119.95H347.475V112.55H349.15V118.6H363.175V119.95ZM384.998 120.05H369.898V114.575H382.798V111.825H369.898V110.525H384.473V115.825H371.548V118.725H384.998V120.05ZM384.523 109.35H382.873V98.075H384.523V102.375H387.923V103.775H384.523V109.35ZM381.773 105.725V107.025C379.223 107.6 375.098 107.875 371.623 107.875H367.448V99.225H378.223V100.525H369.098V106.55H371.623C374.998 106.55 379.023 106.275 381.773 105.725ZM407.796 114.75H406.121V98.075H407.796V104.925H411.196V106.325H407.796V114.75ZM408.721 119.95H393.246V113.5H394.896V118.6H408.721V119.95ZM403.221 102.8H389.546V101.5H403.221V102.8ZM399.921 99.475H392.796V98.175H399.921V99.475ZM396.421 111.825C392.971 111.825 390.746 110.1 390.746 107.975C390.746 105.85 392.971 104.125 396.421 104.125C399.846 104.125 402.096 105.85 402.096 107.975C402.096 110.1 399.846 111.825 396.421 111.825ZM396.421 105.4C393.896 105.4 392.421 106.5 392.421 107.975C392.421 109.475 393.896 110.575 396.421 110.575C398.946 110.575 400.421 109.45 400.421 107.975C400.421 106.5 398.946 105.4 396.421 105.4ZM430.169 120.3H428.519V98.075H430.169V106H433.919V107.425H430.169V120.3ZM427.444 112.2V113.55C424.644 114.125 420.269 114.4 416.919 114.4H413.469V99.55H424.194V100.9H415.119V113.025H416.919C420.269 113.025 424.444 112.75 427.444 112.2ZM438.917 117.825C438.917 118.625 438.292 119.225 437.492 119.225C436.642 119.225 436.017 118.625 436.017 117.825C436.017 117.075 436.642 116.425 437.492 116.425C438.292 116.425 438.917 117.075 438.917 117.825Z" fill="black"/>
</svg>
