<svg width="223" height="76" viewBox="0 0 223 76" fill="none" xmlns="http://www.w3.org/2000/svg">
<rect x="0.5" y="0.5" width="222" height="75" fill="#00B7AB"/>
<rect x="0.5" y="0.5" width="222" height="75" stroke="black"/>
<path d="M31.12 30.82L30.28 31.72C28.72 30.92 27.12 29.4 26.6 27.94C26.08 29.34 24.64 30.9 23.24 31.66C21.82 30.9 20.36 29.34 19.86 27.94C19.32 29.4 17.74 30.92 16.18 31.72L15.34 30.82C17.22 29.96 19.18 27.92 19.18 25.76V24.98H20.52V25.76C20.52 27.6 22 29.48 23.24 30.26C24.46 29.48 25.94 27.6 25.94 25.76V24.98H27.28V25.76C27.28 27.92 29.26 29.96 31.12 30.82ZM23.98 18.62C23.98 21.08 22.02 23.04 19.18 23.04C16.3 23.04 14.36 21.08 14.36 18.62C14.36 16.16 16.3 14.18 19.18 14.18C22.02 14.18 23.98 16.16 23.98 18.62ZM22.64 18.62C22.64 16.74 21.36 15.26 19.18 15.26C16.98 15.26 15.72 16.74 15.72 18.62C15.72 20.48 16.98 21.96 19.18 21.96C21.36 21.96 22.64 20.48 22.64 18.62ZM29.2 24.2H27.86V13.86H29.2V24.2ZM43.8584 21.44L43.1584 22.44C40.9984 21.88 38.9184 20.46 38.0384 18.7C37.2584 20.52 35.0984 22.16 32.7384 23.04L31.9584 22.12C34.6784 21.2 37.2984 18.98 37.2984 16.24V15.82H32.9584V14.78H42.9384V15.82H38.7184V16.24C38.7184 18.96 41.2384 20.82 43.8584 21.44ZM47.6784 29.72C47.6784 30.98 46.2584 31.9 44.1184 31.9C41.9584 31.9 40.5184 30.98 40.5184 29.72C40.5184 28.46 41.9584 27.54 44.1184 27.54C46.2584 27.54 47.6784 28.46 47.6784 29.72ZM47.0384 22.76H45.7184V13.86H47.0384V17.56H49.6584V18.68H47.0384V22.76ZM40.0784 30.14V31.2C38.9984 31.4 37.4784 31.44 36.3784 31.44H34.5784V23.94H35.9184V30.36H36.4184C37.4384 30.36 38.9184 30.32 40.0784 30.14ZM46.3584 29.72C46.3584 29.02 45.5184 28.52 44.1184 28.52C42.6784 28.52 41.8584 29.02 41.8584 29.72C41.8584 30.42 42.6784 30.92 44.1184 30.92C45.5184 30.92 46.3584 30.42 46.3584 29.72ZM48.4184 26.86H39.8384V25.84H48.4184V26.86ZM46.4984 24.74H41.7584V23.72H46.4984V24.74ZM65.0569 31.64H63.7369V13.86H65.0569V20.3H68.0569V21.44H65.0569V31.64ZM50.9769 21.1C50.9769 16.84 52.9169 14.34 55.5169 14.34C58.1169 14.34 60.0769 16.84 60.0769 21.1C60.0769 25.38 58.1169 27.88 55.5169 27.88C52.9169 27.88 50.9769 25.38 50.9769 21.1ZM58.7369 21.1C58.7369 17.44 57.3769 15.42 55.5169 15.42C53.6569 15.42 52.3169 17.44 52.3169 21.1C52.3169 24.78 53.6569 26.8 55.5169 26.8C57.3769 26.8 58.7369 24.78 58.7369 21.1ZM23.04 58.8L23.24 59.8C22.22 60.12 20.98 60.24 19.8 60.24C15.98 60.24 14.16 57.68 14.14 54.34C14.1 51.24 15.98 48.6 19.2 48.62C22.5 48.62 23.98 50.76 23.98 53.94V54.66H15.42C15.5 57.16 16.92 59.26 19.84 59.24C20.86 59.24 22.02 59.12 23.04 58.8ZM15.38 53.68H22.72C22.72 53.64 22.76 53.46 22.72 53.42C22.7 51.04 21.38 49.62 19.2 49.62C16.72 49.62 15.54 51.6 15.38 53.68ZM28.5397 59.66C28.5397 60.3 28.0397 60.78 27.3997 60.78C26.7197 60.78 26.2197 60.3 26.2197 59.66C26.2197 59.06 26.7197 58.54 27.3997 58.54C28.0397 58.54 28.5397 59.06 28.5397 59.66ZM40.028 59.42V57.92H39.908C39.128 59.14 37.688 59.86 36.128 59.86C33.068 59.88 31.328 57.5 31.328 54.24C31.328 51 33.108 48.62 36.208 48.64C37.788 48.64 39.088 49.3 39.888 50.48H39.988V48.9H41.268V59.6C41.268 62.68 39.148 64.24 36.108 64.24C35.048 64.24 33.668 64.08 32.648 63.74L32.928 62.72C33.928 63.1 35.048 63.24 36.108 63.24C38.728 63.24 40.028 61.82 40.028 59.42ZM39.968 55.22V53.12C39.968 51.16 38.228 49.64 36.348 49.64C33.968 49.64 32.588 51.6 32.588 54.24C32.588 56.88 33.848 58.86 36.268 58.86C38.208 58.86 39.968 57.32 39.968 55.22ZM46.9186 59.66C46.9186 60.3 46.4186 60.78 45.7786 60.78C45.0986 60.78 44.5986 60.3 44.5986 59.66C44.5986 59.06 45.0986 58.54 45.7786 58.54C46.4186 58.54 46.9186 59.06 46.9186 59.66ZM65.1919 48.84C65.1919 51.4 63.2119 53.44 60.3519 53.44C57.4519 53.44 55.4919 51.4 55.4919 48.84C55.4919 46.24 57.4519 44.18 60.3519 44.18C63.2119 44.18 65.1919 46.24 65.1919 48.84ZM60.3519 52.36C62.5519 52.36 63.8519 50.8 63.8519 48.82C63.8519 46.82 62.5519 45.26 60.3519 45.26C58.1319 45.26 56.8519 46.82 56.8519 48.82C56.8519 50.8 58.1319 52.36 60.3519 52.36ZM70.3719 57.06H69.0319V43.86H70.3719V57.06ZM71.0319 61.36H58.4719V55.44H59.8119V60.28H71.0319V61.36ZM87.8303 61.64H86.5103V43.86H87.8303V47.22H90.7303V48.36H87.8303V52.66H90.7303V53.8H87.8303V61.64ZM85.6503 55.14V56.22C83.4103 56.68 79.9103 56.88 77.2303 56.88H74.4703V44.68H75.7903V55.78H77.2303C79.9103 55.78 83.2503 55.58 85.6503 55.14ZM92.8488 63.32L92.5288 63.02C93.2288 62.58 93.8288 61.72 93.9288 60.96C93.9488 60.86 93.9288 60.78 93.8888 60.74C93.8488 60.64 93.7288 60.58 93.5288 60.58C92.9688 60.58 92.4488 60.2 92.4488 59.52C92.4488 58.88 92.9688 58.46 93.6087 58.46C94.3488 58.46 94.8688 59.12 94.8688 59.94C94.8688 61.36 94.0088 62.7 92.8488 63.32ZM117.862 48.06C117.862 50.36 115.382 52.16 111.242 52.16C107.122 52.16 104.642 50.36 104.642 48.06C104.642 45.78 107.122 43.98 111.242 43.98C115.382 43.98 117.862 45.78 117.862 48.06ZM116.522 48.06C116.522 46.2 114.262 45.06 111.242 45.06C108.262 45.06 105.982 46.2 105.982 48.06C105.982 49.94 108.262 51.08 111.242 51.08C114.262 51.08 116.522 49.94 116.522 48.06ZM120.022 55.1H111.982V61.64H110.602V55.1H102.562V54.02H120.022V55.1ZM136.3 61.64H134.96V43.86H136.3V61.64ZM134.02 55.56V56.66C131.78 57.1 128.28 57.32 125.58 57.32H122.42V50.5H129.6V46.02H122.42V44.94H130.96V51.56H123.74V56.22H125.58C128.28 56.22 131.62 56.02 134.02 55.56ZM156.124 50.9H146.944V44.74H156.124V50.9ZM160.444 61.64H159.124V57.68H154.504V56.6H159.124V43.86H160.444V61.64ZM154.784 49.82V45.82H148.284V49.82H154.784ZM151.944 61.24H150.624V54.4H145.404V53.32H151.944C154.184 53.32 156.664 53.1 158.364 52.8V53.86C156.744 54.2 154.464 54.38 151.944 54.4V61.24ZM178.882 54.36H177.562V49.1H173.282V52.78H164.782V44.78H173.282V48H177.562V43.86H178.882V54.36ZM171.942 51.7V45.84H166.102V51.7H171.942ZM178.842 61.74H177.522V56.42H166.562V55.32H178.842V61.74ZM196.561 61.64H195.241V43.86H196.561V47.22H199.461V48.36H196.561V52.66H199.461V53.8H196.561V61.64ZM194.381 55.14V56.22C192.141 56.68 188.641 56.88 185.961 56.88H183.201V44.68H184.521V55.78H185.961C188.641 55.78 191.981 55.58 194.381 55.14ZM204.739 56.6H203.579V55.74C203.579 53.92 204.019 52.84 205.799 51.38C206.939 50.44 207.719 49.22 207.719 48.08C207.719 46.2 206.159 45.4 204.499 45.4C203.519 45.4 202.039 45.8 200.999 46.42L200.519 45.52C201.599 44.88 203.239 44.38 204.599 44.38C206.859 44.38 208.999 45.44 208.999 48.04C208.999 49.5 208.239 50.74 206.879 51.88C205.139 53.38 204.739 54.1 204.739 55.82V56.6ZM205.299 59.84C205.299 60.46 204.799 60.94 204.179 60.94C203.499 60.94 203.019 60.46 203.019 59.84C203.019 59.26 203.499 58.74 204.179 58.74C204.799 58.74 205.299 59.26 205.299 59.84Z" fill="white"/>
</svg>
