<svg width="200" height="46" viewBox="0 0 200 46" fill="none" xmlns="http://www.w3.org/2000/svg">
<rect x="0.5" y="0.5" width="199" height="45" fill="#00B7AB"/>
<rect x="0.5" y="0.5" width="199" height="45" stroke="black"/>
<path d="M23.04 28.8L23.24 29.8C22.22 30.12 20.98 30.24 19.8 30.24C15.98 30.24 14.16 27.68 14.14 24.34C14.1 21.24 15.98 18.6 19.2 18.62C22.5 18.62 23.98 20.76 23.98 23.94V24.66H15.42C15.5 27.16 16.92 29.26 19.84 29.24C20.86 29.24 22.02 29.12 23.04 28.8ZM15.38 23.68H22.72C22.72 23.64 22.76 23.46 22.72 23.42C22.7 21.04 21.38 19.62 19.2 19.62C16.72 19.62 15.54 21.6 15.38 23.68ZM28.5397 29.66C28.5397 30.3 28.0397 30.78 27.3997 30.78C26.7197 30.78 26.2197 30.3 26.2197 29.66C26.2197 29.06 26.7197 28.54 27.3997 28.54C28.0397 28.54 28.5397 29.06 28.5397 29.66ZM40.028 29.42V27.92H39.908C39.128 29.14 37.688 29.86 36.128 29.86C33.068 29.88 31.328 27.5 31.328 24.24C31.328 21 33.108 18.62 36.208 18.64C37.788 18.64 39.088 19.3 39.888 20.48H39.988V18.9H41.268V29.6C41.268 32.68 39.148 34.24 36.108 34.24C35.048 34.24 33.668 34.08 32.648 33.74L32.928 32.72C33.928 33.1 35.048 33.24 36.108 33.24C38.728 33.24 40.028 31.82 40.028 29.42ZM39.968 25.22V23.12C39.968 21.16 38.228 19.64 36.348 19.64C33.968 19.64 32.588 21.6 32.588 24.24C32.588 26.88 33.848 28.86 36.268 28.86C38.208 28.86 39.968 27.32 39.968 25.22ZM46.9186 29.66C46.9186 30.3 46.4186 30.78 45.7786 30.78C45.0986 30.78 44.5986 30.3 44.5986 29.66C44.5986 29.06 45.0986 28.54 45.7786 28.54C46.4186 28.54 46.9186 29.06 46.9186 29.66ZM72.1319 29.18H54.6519V28.1H62.6919V23.92C59.1919 23.7 56.8319 21.7 56.8319 19.08C56.8319 16.32 59.4919 14.22 63.3719 14.22C67.2719 14.22 69.9519 16.32 69.9519 19.08C69.9519 21.7 67.5719 23.7 64.0719 23.92V28.1H72.1319V29.18ZM68.6119 19.08C68.6119 16.82 66.3319 15.3 63.3719 15.3C60.4319 15.3 58.1519 16.82 58.1519 19.08C58.1519 21.36 60.4319 22.86 63.3719 22.86C66.3319 22.86 68.6119 21.36 68.6119 19.08ZM85.1903 30.8H83.8903V21.3H81.1903V26.96H74.3703V15.18H81.1903V20.18H83.8903V14.16H85.1903V30.8ZM79.8503 25.88V16.26H75.6703V25.88H79.8503ZM88.7103 31.64H87.3903V13.86H88.7103V31.64ZM94.8288 29.66C94.8288 30.3 94.3288 30.78 93.6888 30.78C93.0088 30.78 92.5088 30.3 92.5088 29.66C92.5088 29.06 93.0088 28.54 93.6888 28.54C94.3288 28.54 94.8288 29.06 94.8288 29.66ZM100.317 29.66C100.317 30.3 99.817 30.78 99.177 30.78C98.497 30.78 97.997 30.3 97.997 29.66C97.997 29.06 98.497 28.54 99.177 28.54C99.817 28.54 100.317 29.06 100.317 29.66ZM105.805 29.66C105.805 30.3 105.305 30.78 104.665 30.78C103.985 30.78 103.485 30.3 103.485 29.66C103.485 29.06 103.985 28.54 104.665 28.54C105.305 28.54 105.805 29.06 105.805 29.66ZM129.299 31.64H127.959V21.4H123.759C123.659 25.5 121.739 27.88 119.199 27.88C116.599 27.88 114.659 25.38 114.659 21.1C114.659 16.84 116.599 14.34 119.199 14.34C121.619 14.34 123.519 16.54 123.739 20.3H127.959V13.86H129.299V31.64ZM119.199 26.8C121.059 26.8 122.419 24.78 122.419 21.1C122.419 17.44 121.059 15.42 119.199 15.42C117.339 15.42 115.999 17.44 115.999 21.1C115.999 24.78 117.339 26.8 119.199 26.8ZM144.937 26.78L144.017 27.58C142.737 26.4 141.797 24.68 141.377 23.1C140.977 24.84 139.757 26.96 138.597 27.94C137.457 26.96 136.237 24.84 135.817 23.1C135.417 24.8 134.417 26.56 132.977 27.92L131.957 27.16C133.777 25.56 135.137 22.94 135.137 19.06V16.12H132.997V15.04H138.297V16.12H136.497V19.06C136.497 22.26 137.477 24.66 138.597 26.22C139.757 24.66 140.697 22.26 140.697 19.06V16.12H138.937V15.04H144.237V16.12H142.057V19.06C142.057 22.76 143.437 25.34 144.937 26.78ZM148.117 31.64H146.817V13.86H148.117V31.64ZM167.815 29.04H150.335V27.96H167.815V29.04ZM167.435 23.34L166.515 24.26C164.855 23.26 163.315 21.6 162.775 20.02C162.095 21.68 160.635 23.32 159.055 24.26C157.495 23.32 156.015 21.68 155.335 20.02C154.835 21.6 153.275 23.26 151.615 24.26L150.715 23.34C152.795 22.22 154.695 19.92 154.695 17.12V14.7H156.035V17.12C156.035 19.58 157.655 21.86 159.055 22.76C160.455 21.86 162.095 19.58 162.095 17.12V14.7H163.435V17.12C163.435 19.92 165.315 22.22 167.435 23.34ZM175.894 28.62L174.714 27.98C177.654 24.64 178.914 20.48 179.114 16.12H175.574V15.04H180.494C180.394 20.76 178.914 24.98 175.894 28.62ZM170.194 27.54L169.014 26.92C172.014 23.84 173.314 19.84 173.534 16.12H169.954V15.04H174.954C174.814 20.16 173.214 24.26 170.194 27.54ZM184.154 31.64H182.874V13.86H184.154V20.8H186.734V21.94H184.154V31.64Z" fill="white"/>
</svg>
