<svg width="248" height="46" viewBox="0 0 248 46" fill="none" xmlns="http://www.w3.org/2000/svg">
<rect x="0.5" y="0.5" width="247" height="45" fill="#00B7AB"/>
<rect x="0.5" y="0.5" width="247" height="45" stroke="black"/>
<path d="M23.04 28.8L23.24 29.8C22.22 30.12 20.98 30.24 19.8 30.24C15.98 30.24 14.16 27.68 14.14 24.34C14.1 21.24 15.98 18.6 19.2 18.62C22.5 18.62 23.98 20.76 23.98 23.94V24.66H15.42C15.5 27.16 16.92 29.26 19.84 29.24C20.86 29.24 22.02 29.12 23.04 28.8ZM15.38 23.68H22.72C22.72 23.64 22.76 23.46 22.72 23.42C22.7 21.04 21.38 19.62 19.2 19.62C16.72 19.62 15.54 21.6 15.38 23.68ZM28.5397 29.66C28.5397 30.3 28.0397 30.78 27.3997 30.78C26.7197 30.78 26.2197 30.3 26.2197 29.66C26.2197 29.06 26.7197 28.54 27.3997 28.54C28.0397 28.54 28.5397 29.06 28.5397 29.66ZM40.028 29.42V27.92H39.908C39.128 29.14 37.688 29.86 36.128 29.86C33.068 29.88 31.328 27.5 31.328 24.24C31.328 21 33.108 18.62 36.208 18.64C37.788 18.64 39.088 19.3 39.888 20.48H39.988V18.9H41.268V29.6C41.268 32.68 39.148 34.24 36.108 34.24C35.048 34.24 33.668 34.08 32.648 33.74L32.928 32.72C33.928 33.1 35.048 33.24 36.108 33.24C38.728 33.24 40.028 31.82 40.028 29.42ZM39.968 25.22V23.12C39.968 21.16 38.228 19.64 36.348 19.64C33.968 19.64 32.588 21.6 32.588 24.24C32.588 26.88 33.848 28.86 36.268 28.86C38.208 28.86 39.968 27.32 39.968 25.22ZM46.9186 29.66C46.9186 30.3 46.4186 30.78 45.7786 30.78C45.0986 30.78 44.5986 30.3 44.5986 29.66C44.5986 29.06 45.0986 28.54 45.7786 28.54C46.4186 28.54 46.9186 29.06 46.9186 29.66ZM69.4319 31.64H68.1119V13.86H69.4319V20.3H72.4319V21.44H69.4319V31.64ZM55.3519 21.1C55.3519 16.84 57.2919 14.34 59.8919 14.34C62.4919 14.34 64.4519 16.84 64.4519 21.1C64.4519 25.38 62.4919 27.88 59.8919 27.88C57.2919 27.88 55.3519 25.38 55.3519 21.1ZM63.1119 21.1C63.1119 17.44 61.7519 15.42 59.8919 15.42C58.0319 15.42 56.6919 17.44 56.6919 21.1C56.6919 24.78 58.0319 26.8 59.8919 26.8C61.7519 26.8 63.1119 24.78 63.1119 21.1ZM73.7503 21.1C73.7503 16.84 75.6903 14.34 78.2903 14.34C80.8903 14.34 82.8503 16.84 82.8503 21.1C82.8503 25.38 80.8903 27.88 78.2903 27.88C75.6903 27.88 73.7503 25.38 73.7503 21.1ZM81.5103 21.1C81.5103 17.44 80.1503 15.42 78.2903 15.42C76.4303 15.42 75.0903 17.44 75.0903 21.1C75.0903 24.78 76.4303 26.8 78.2903 26.8C80.1503 26.8 81.5103 24.78 81.5103 21.1ZM87.8303 31.64H86.5103V13.86H87.8303V17.52H90.7303V18.66H87.8303V23.42H90.7303V24.56H87.8303V31.64ZM92.8488 33.32L92.5288 33.02C93.2288 32.58 93.8288 31.72 93.9288 30.96C93.9488 30.86 93.9288 30.78 93.8888 30.74C93.8488 30.64 93.7288 30.58 93.5288 30.58C92.9688 30.58 92.4488 30.2 92.4488 29.52C92.4488 28.88 92.9688 28.46 93.6087 28.46C94.3488 28.46 94.8688 29.12 94.8688 29.94C94.8688 31.36 94.0088 32.7 92.8488 33.32ZM117.902 31.64H116.562V20.42H111.082V19.34H116.562V13.86H117.902V31.64ZM115.062 25.14V26.22C112.842 26.68 109.342 26.88 106.662 26.88H104.222V14.7H105.562V25.78H106.662C109.342 25.78 112.702 25.58 115.062 25.14ZM142.345 31.64H141.005V13.86H142.345V31.64ZM127.705 21.1C127.705 16.84 129.665 14.34 132.265 14.34C134.885 14.34 136.825 16.84 136.825 21.1C136.825 25.38 134.885 27.88 132.265 27.88C129.665 27.88 127.705 25.38 127.705 21.1ZM135.485 21.1C135.485 17.44 134.145 15.42 132.265 15.42C130.405 15.42 129.045 17.44 129.045 21.1C129.045 24.78 130.405 26.8 132.265 26.8C134.145 26.8 135.485 24.78 135.485 21.1ZM160.324 31.64H158.984V21.68H154.884V20.56H158.984V13.86H160.324V31.64ZM146.464 27.84L145.584 26.94C150.304 24.64 152.944 20.64 153.444 16.12H146.684V15.04H154.904C154.644 21.06 151.164 25.46 146.464 27.84ZM183.787 31.64H182.467V13.86H183.787V20.2H186.787V21.34H183.787V31.64ZM181.607 25.16V26.24C179.367 26.7 175.867 26.92 173.187 26.92H170.427V15.04H179.007V16.12H171.747V25.82H173.187C175.867 25.82 179.207 25.6 181.607 25.16ZM209.111 24.66H207.771V20.06H205.171V24.66H203.871V14.16H205.171V18.92H207.771V13.86H209.111V24.66ZM210.671 30.82L209.831 31.74C208.271 30.94 206.671 29.46 206.151 27.98C205.611 29.4 204.191 30.94 202.791 31.66C201.371 30.94 199.951 29.4 199.411 27.98C198.911 29.46 197.311 30.94 195.731 31.74L194.891 30.82C196.791 29.96 198.731 27.98 198.731 25.96V25.48H200.071V25.96C200.071 27.64 201.551 29.54 202.791 30.3C204.011 29.54 205.491 27.64 205.491 25.96V25.48H206.831V25.96C206.831 27.98 208.791 29.96 210.671 30.82ZM202.551 17.56H193.471V16.52H202.551V17.56ZM200.391 15.26H195.631V14.22H200.391V15.26ZM198.031 24.3C195.711 24.3 194.151 23 194.151 21.38C194.151 19.76 195.711 18.46 198.031 18.46C200.391 18.46 201.951 19.76 201.951 21.38C201.951 23 200.391 24.3 198.031 24.3ZM198.031 19.46C196.411 19.46 195.451 20.3 195.451 21.38C195.451 22.44 196.411 23.28 198.031 23.28C199.691 23.28 200.631 22.44 200.631 21.38C200.631 20.3 199.691 19.46 198.031 19.46ZM226.209 31.64H224.889V13.86H226.209V17.22H229.109V18.36H226.209V22.66H229.109V23.8H226.209V31.64ZM224.029 25.14V26.22C221.789 26.68 218.289 26.88 215.609 26.88H212.849V14.68H214.169V25.78H215.609C218.289 25.78 221.629 25.58 224.029 25.14ZM233.208 29.66C233.208 30.3 232.708 30.78 232.068 30.78C231.388 30.78 230.888 30.3 230.888 29.66C230.888 29.06 231.388 28.54 232.068 28.54C232.708 28.54 233.208 29.06 233.208 29.66Z" fill="white"/>
</svg>
