<svg width="152" height="182" viewBox="0 0 152 182" fill="none" xmlns="http://www.w3.org/2000/svg">
<rect x="0.75" y="0.75" width="150" height="180" fill="white"/>
<rect x="0.75" y="0.75" width="150" height="180" stroke="#00B7AB" stroke-width="1.5"/>
<path d="M75.748 81.24C62.833 81.24 53.8029 72.735 53.8029 60.765C53.8029 48.795 62.833 40.29 75.748 40.29H95.173V48.06H75.748C67.873 48.06 62.4129 53.31 62.4129 60.765C62.4129 68.22 67.873 73.47 75.748 73.47C83.623 73.47 89.083 68.22 89.083 60.765C89.083 58.035 88.348 55.305 86.7729 53.1H95.593C96.9579 54.99 97.693 58.035 97.693 60.765C97.693 72.735 88.6629 81.24 75.748 81.24ZM117.328 91.005V98.775H80.053V127.125H71.4429V98.775H34.1679V91.005H117.328Z" fill="#00B7AB"/>
</svg>
