<svg width="602" height="272" viewBox="0 0 602 272" fill="none" xmlns="http://www.w3.org/2000/svg">
<rect x="0.75" y="30.75" width="150" height="180" fill="white"/>
<rect x="0.75" y="30.75" width="150" height="180" stroke="#00B7AB" stroke-width="1.5"/>
<path d="M117.865 121.005V128.775C108.415 128.145 100.96 121.005 100.96 103.995V63.045H109.57V102.105C109.57 113.865 112.825 119.115 117.865 121.005ZM33.6553 128.775V121.005C48.6703 120.585 57.7003 111.555 57.7003 97.275V82.05H66.4153V97.275C66.4153 111.45 75.3403 120.375 89.8303 120.795V128.355C77.3353 128.25 66.8353 122.37 62.1103 112.71C57.4903 122.58 46.7803 128.67 33.6553 128.775Z" fill="#00B7AB"/>
<rect x="150.75" y="30.75" width="150" height="180" fill="white"/>
<rect x="150.75" y="30.75" width="150" height="180" stroke="#00B7AB" stroke-width="1.5"/>
<path d="M225.748 111.24C212.833 111.24 203.803 102.735 203.803 90.765C203.803 78.795 212.833 70.29 225.748 70.29H245.173V78.06H225.748C217.873 78.06 212.413 83.31 212.413 90.765C212.413 98.22 217.873 103.47 225.748 103.47C233.623 103.47 239.083 98.22 239.083 90.765C239.083 88.035 238.348 85.305 236.773 83.1H245.593C246.958 84.99 247.693 88.035 247.693 90.765C247.693 102.735 238.663 111.24 225.748 111.24ZM267.328 121.005V128.775H230.053V157.125H221.443V128.775H184.168V121.005H267.328Z" fill="#00B7AB"/>
<rect x="300.75" y="90.75" width="150" height="180" fill="white"/>
<rect x="300.75" y="90.75" width="150" height="180" stroke="#00B7AB" stroke-width="1.5"/>
<path d="M417.865 181.005V188.775C408.415 188.145 400.96 181.005 400.96 163.995V123.045H409.57V162.105C409.57 173.865 412.825 179.115 417.865 181.005ZM333.655 188.775V181.005C348.67 180.585 357.7 171.555 357.7 157.275V142.05H366.415V157.275C366.415 171.45 375.34 180.375 389.83 180.795V188.355C377.335 188.25 366.835 182.37 362.11 172.71C357.49 182.58 346.78 188.67 333.655 188.775Z" fill="#00B7AB"/>
<rect x="450.75" y="0.75" width="150" height="180" fill="white"/>
<rect x="450.75" y="0.75" width="150" height="180" stroke="#00B7AB" stroke-width="1.5"/>
<path d="M552.109 76.725V33.045H560.719V56.67H575.419V64.44H560.719V76.41C560.719 85.44 563.239 91.005 571.639 91.005H574.264V98.775H571.534C558.934 98.775 552.109 91.425 552.109 76.725ZM486.589 98.775H477.349V91.005H485.539C501.394 91.005 510.529 83.445 510.529 70.215V64.44H489.214V56.67H540.139V64.44H519.454V70.215C519.454 82.92 528.064 90.48 542.764 90.795V98.355C530.479 98.355 520.399 93.315 515.044 84.6C509.899 93.63 499.504 98.775 486.589 98.775ZM559.459 113.265V145.29H550.849V116.31H515.779V108.54H554.734C557.779 108.54 559.459 110.22 559.459 113.265Z" fill="#00B7AB"/>
</svg>
