<svg width="152" height="182" viewBox="0 0 152 182" fill="none" xmlns="http://www.w3.org/2000/svg">
<rect x="0.75" y="0.75" width="150" height="180" fill="white"/>
<rect x="0.75" y="0.75" width="150" height="180" stroke="#00B7AB" stroke-width="1.5"/>
<path d="M126.794 91.005V98.775C116.294 98.145 109.889 91.215 109.889 77.775V64.86H86.4744V57.09H109.889V33.045H118.499V76.095C118.499 84.39 121.124 89.745 126.794 91.005ZM56.2344 98.775H24.7344V91.005H56.2344C63.5844 91.005 68.9394 85.545 68.9394 77.985C68.9394 70.425 63.5844 64.965 56.2344 64.965C48.8844 64.965 43.5294 70.425 43.5294 77.985C43.5294 80.925 44.1594 83.235 45.5244 85.335H36.8094C35.5494 83.34 34.9194 80.82 34.9194 77.985C34.9194 65.91 43.9494 57.195 56.2344 57.195C68.5194 57.195 77.5494 65.91 77.5494 77.985C77.5494 90.06 68.5194 98.775 56.2344 98.775ZM77.0244 140.25V109.485H85.4244V148.02H59.0694C56.0244 148.02 54.3444 146.34 54.3444 143.295V109.485H62.7444V121.035H72.8244V128.805H62.7444V140.25H77.0244ZM89.4144 148.02V140.25C96.8694 139.83 101.804 134.475 101.804 126.18V109.485H110.309V126.18C110.309 134.37 114.824 139.62 122.384 140.04V147.6C114.509 147.285 108.524 143.505 106.109 138.15C103.589 143.82 97.2894 147.705 89.4144 148.02Z" fill="#00B7AB"/>
</svg>
