<svg width="152" height="182" viewBox="0 0 152 182" fill="none" xmlns="http://www.w3.org/2000/svg">
<rect x="0.75" y="0.75" width="150" height="180" fill="white"/>
<rect x="0.75" y="0.75" width="150" height="180" stroke="#00B7AB" stroke-width="1.5"/>
<path d="M102.109 76.725V33.045H110.719V56.67H125.419V64.44H110.719V76.41C110.719 85.44 113.239 91.005 121.639 91.005H124.264V98.775H121.534C108.934 98.775 102.109 91.425 102.109 76.725ZM36.5891 98.775H27.3491V91.005H35.5391C51.3941 91.005 60.5291 83.445 60.5291 70.215V64.44H39.2141V56.67H90.1391V64.44H69.4541V70.215C69.4541 82.92 78.0641 90.48 92.7641 90.795V98.355C80.4791 98.355 70.3991 93.315 65.0441 84.6C59.8991 93.63 49.5041 98.775 36.5891 98.775Z" fill="#00B7AB"/>
</svg>
