<svg width="752" height="302" viewBox="0 0 752 302" fill="none" xmlns="http://www.w3.org/2000/svg">
<rect x="0.75" y="120.75" width="150" height="180" fill="white"/>
<rect x="0.75" y="120.75" width="150" height="180" stroke="#00B7AB" stroke-width="1.5"/>
<path d="M60.418 166.485V191.685H99.583V199.455H56.533C53.488 199.455 51.808 197.775 51.808 194.73V166.485H60.418ZM34.1679 218.775V211.005H117.328V218.775H34.1679Z" fill="#00B7AB"/>
<rect x="150.75" y="60.75" width="150" height="180" fill="white"/>
<rect x="150.75" y="60.75" width="150" height="180" stroke="#00B7AB" stroke-width="1.5"/>
<path d="M252.109 136.725V93.045H260.719V116.67H275.419V124.44H260.719V136.41C260.719 145.44 263.239 151.005 271.639 151.005H274.264V158.775H271.534C258.934 158.775 252.109 151.425 252.109 136.725ZM186.589 158.775H177.349V151.005H185.539C201.394 151.005 210.529 143.445 210.529 130.215V124.44H189.214V116.67H240.139V124.44H219.454V130.215C219.454 142.92 228.064 150.48 242.764 150.795V158.355C230.479 158.355 220.399 153.315 215.044 144.6C209.899 153.63 199.504 158.775 186.589 158.775Z" fill="#00B7AB"/>
<rect x="300.75" y="60.75" width="150" height="180" fill="white"/>
<rect x="300.75" y="60.75" width="150" height="180" stroke="#00B7AB" stroke-width="1.5"/>
<path d="M399.058 112.365V143.97H390.448V115.41H351.703V107.64H394.333C397.378 107.64 399.058 109.32 399.058 112.365ZM417.328 151.005V158.775H380.053V188.175H371.443V158.775H334.168V151.005H417.328Z" fill="#00B7AB"/>
<rect x="450.75" y="0.75" width="150" height="180" fill="white"/>
<rect x="450.75" y="0.75" width="150" height="180" stroke="#00B7AB" stroke-width="1.5"/>
<path d="M576.794 91.005V98.775C566.294 98.145 559.889 91.215 559.889 77.775V64.86H536.474V57.09H559.889V33.045H568.499V76.095C568.499 84.39 571.124 89.745 576.794 91.005ZM506.234 98.775H474.734V91.005H506.234C513.584 91.005 518.939 85.545 518.939 77.985C518.939 70.425 513.584 64.965 506.234 64.965C498.884 64.965 493.529 70.425 493.529 77.985C493.529 80.925 494.159 83.235 495.524 85.335H486.809C485.549 83.34 484.919 80.82 484.919 77.985C484.919 65.91 493.949 57.195 506.234 57.195C518.519 57.195 527.549 65.91 527.549 77.985C527.549 90.06 518.519 98.775 506.234 98.775ZM527.024 140.25V109.485H535.424V148.02H509.069C506.024 148.02 504.344 146.34 504.344 143.295V109.485H512.744V121.035H522.824V128.805H512.744V140.25H527.024ZM539.414 148.02V140.25C546.869 139.83 551.804 134.475 551.804 126.18V109.485H560.309V126.18C560.309 134.37 564.824 139.62 572.384 140.04V147.6C564.509 147.285 558.524 143.505 556.109 138.15C553.589 143.82 547.289 147.705 539.414 148.02Z" fill="#00B7AB"/>
<rect x="600.75" y="60.75" width="150" height="180" fill="white"/>
<rect x="600.75" y="60.75" width="150" height="180" stroke="#00B7AB" stroke-width="1.5"/>
<path d="M698.832 136.725V93.045H707.442V116.67H722.142V124.44H707.442V136.41C707.442 145.44 709.962 151.005 718.362 151.005H720.987V158.775H718.257C705.657 158.775 698.832 151.425 698.832 136.725ZM657.672 151.005H686.127V158.775H630.477V151.005H644.967C643.602 149.535 642.867 147.54 642.867 143.55V116.67H680.877V124.44H651.477V143.97C651.477 148.905 653.577 151.005 657.672 151.005Z" fill="#00B7AB"/>
</svg>
