<svg width="152" height="182" viewBox="0 0 152 182" fill="none" xmlns="http://www.w3.org/2000/svg">
<rect x="0.75" y="0.75" width="150" height="180" fill="white"/>
<rect x="0.75" y="0.75" width="150" height="180" stroke="#00B7AB" stroke-width="1.5"/>
<path d="M126.794 91.005V98.775C119.234 98.25 113.984 94.155 111.884 86.175H94.2444V78.405H110.939V67.275H94.2444V59.505H110.939V33.045H119.549V76.095C119.549 84.39 121.859 89.745 126.794 91.005ZM62.4294 98.775H24.7344V91.005H62.4294C69.1494 91.005 73.8744 86.07 73.8744 79.245C73.8744 72.42 69.1494 67.485 62.4294 67.485C55.8144 67.485 51.0894 72.42 51.0894 79.245C51.0894 81.45 51.6144 83.445 52.4544 85.125H44.0544C43.1094 83.655 42.4794 81.555 42.4794 79.245C42.4794 74.625 44.0544 70.53 46.7844 67.485H35.1294V59.715H58.3344V43.65H66.9444V59.715H89.8344V67.485H78.1794C80.9094 70.53 82.4844 74.625 82.4844 79.245C82.4844 90.585 74.0844 98.775 62.4294 98.775Z" fill="#00B7AB"/>
</svg>
