<svg width="602" height="242" viewBox="0 0 602 242" fill="none" xmlns="http://www.w3.org/2000/svg">
<rect x="0.75" y="60.75" width="150" height="180" fill="white"/>
<rect x="0.75" y="60.75" width="150" height="180" stroke="#00B7AB" stroke-width="1.5"/>
<path d="M125.72 151.005V158.775C115.22 158.145 108.815 151.215 108.815 137.775V124.86H83.1947V117.09H108.815V93.045H117.425V136.095C117.425 144.39 120.05 149.745 125.72 151.005ZM39.8297 158.775H25.7597V151.005H38.7797C57.9947 151.005 67.7597 143.655 67.7597 129.165V124.65H37.6247V116.88H76.4747V129.165C76.4747 148.17 63.4547 158.775 39.8297 158.775Z" fill="#00B7AB"/>
<rect x="150.75" y="60.75" width="150" height="180" fill="white"/>
<rect x="150.75" y="60.75" width="150" height="180" stroke="#00B7AB" stroke-width="1.5"/>
<path d="M267.865 151.005V158.775C258.415 158.145 250.96 151.005 250.96 133.995V93.045H259.57V132.105C259.57 143.865 262.825 149.115 267.865 151.005ZM183.655 158.775V151.005C198.67 150.585 207.7 141.555 207.7 127.275V112.05H216.415V127.275C216.415 141.45 225.34 150.375 239.83 150.795V158.355C227.335 158.25 216.835 152.37 212.11 142.71C207.49 152.58 196.78 158.67 183.655 158.775Z" fill="#00B7AB"/>
<rect x="300.75" y="60.75" width="150" height="180" fill="white"/>
<rect x="300.75" y="60.75" width="150" height="180" stroke="#00B7AB" stroke-width="1.5"/>
<path d="M419.426 151.005V158.775C409.976 158.145 402.521 151.005 402.521 133.995V93.045H411.131V132.105C411.131 143.865 414.386 149.115 419.426 151.005ZM346.136 158.775H332.066V151.005H345.086C364.721 151.005 374.801 143.655 374.801 129.165V124.65H343.931V116.88H383.516V129.165C383.516 148.17 370.181 158.775 346.136 158.775Z" fill="#00B7AB"/>
<rect x="450.75" y="0.75" width="150" height="180" fill="white"/>
<rect x="450.75" y="0.75" width="150" height="180" stroke="#00B7AB" stroke-width="1.5"/>
<path d="M576.794 91.005V98.775C569.234 98.25 563.984 94.155 561.884 86.175H544.244V78.405H560.939V67.275H544.244V59.505H560.939V33.045H569.549V76.095C569.549 84.39 571.859 89.745 576.794 91.005ZM512.429 98.775H474.734V91.005H512.429C519.149 91.005 523.874 86.07 523.874 79.245C523.874 72.42 519.149 67.485 512.429 67.485C505.814 67.485 501.089 72.42 501.089 79.245C501.089 81.45 501.614 83.445 502.454 85.125H494.054C493.109 83.655 492.479 81.555 492.479 79.245C492.479 74.625 494.054 70.53 496.784 67.485H485.129V59.715H508.334V43.65H516.944V59.715H539.834V67.485H528.179C530.909 70.53 532.484 74.625 532.484 79.245C532.484 90.585 524.084 98.775 512.429 98.775Z" fill="#00B7AB"/>
</svg>
