<svg width="439" height="165" viewBox="0 0 439 165" fill="none" xmlns="http://www.w3.org/2000/svg">
<path d="M25.2698 15.7497V34.0197H19.5298V17.7797H6.29982V12.5997H22.1198C24.1498 12.5997 25.2698 13.7197 25.2698 15.7497ZM46.1298 15.7497V34.0197H40.3898V17.7797H27.9298V12.5997H42.9798C45.0098 12.5997 46.1298 13.7197 46.1298 15.7497ZM-0.000175785 43.8197V38.6397H55.4398V43.8197H-0.000175785ZM16.5198 67.3397V73.2197H45.4298V78.3997H13.9298C11.8998 78.3997 10.7798 77.2797 10.7798 75.2497V51.3797H45.0098V56.5597H16.5198V62.2297H44.1698V67.3397H16.5198ZM102.973 29.1197V-0.000277877H108.713V15.7497H118.513V20.9297H108.713V28.9097C108.713 34.9297 110.393 38.6397 115.993 38.6397H117.743V43.8197H115.923C107.523 43.8197 102.973 38.9197 102.973 29.1197ZM64.5426 43.8197H55.3026V38.6397H63.9826C69.5826 38.6397 72.4526 35.1397 72.4526 28.3497V21.7697H63.2126V16.5897H78.2626V28.9097C78.2626 38.4997 73.3626 43.8197 64.5426 43.8197ZM79.8726 43.8197H79.1726V38.6397H79.3126C85.6826 38.6397 89.0426 35.1397 89.0426 28.3497V21.7697H80.9926V16.5897H94.8526V28.9097C94.8526 38.4997 89.4626 43.8197 79.8726 43.8197ZM180.088 38.6397V43.8197C173.788 43.3997 168.818 38.6397 168.818 27.2997V-0.000277877H174.558V26.0397C174.558 33.8797 176.728 37.3797 180.088 38.6397ZM123.738 43.8197H117.578V38.6397H123.038C133.608 38.6397 139.698 33.5997 139.698 24.7797V20.9297H125.488V15.7497H159.438V20.9297H145.648V24.7797C145.648 33.2497 151.388 38.2897 161.188 38.4997V43.5397C152.998 43.5397 146.278 40.1797 142.708 34.3697C139.278 40.3897 132.348 43.8197 123.738 43.8197ZM246.429 29.1197V-0.000277877H252.169V15.7497H261.969V20.9297H252.169V28.9097C252.169 34.9297 253.849 38.6397 259.449 38.6397H261.199V43.8197H259.379C250.979 43.8197 246.429 38.9197 246.429 29.1197ZM202.959 43.8197V38.6397C212.969 38.3597 218.989 32.3397 218.989 22.8197V12.6697H224.799V22.8197C224.799 32.2697 230.749 38.2197 240.409 38.4997V43.5397C232.079 43.4697 225.079 39.5497 221.929 33.1097C218.849 39.6897 211.709 43.7497 202.959 43.8197ZM229.279 67.4797V74.8297H252.659V80.0097H226.689C224.659 80.0097 223.539 78.8897 223.539 76.8597V62.3697H245.589V55.2997H223.539V50.1197H248.179C250.209 50.1197 251.329 51.2397 251.329 53.2697V67.4797H229.279ZM308.734 29.1197V-0.000277877H314.474V15.7497H324.274V20.9297H314.474V28.9097C314.474 34.9297 316.154 38.6397 321.754 38.6397H323.504V43.8197H321.684C313.284 43.8197 308.734 38.9197 308.734 29.1197ZM282.064 43.8197H261.064V38.6397H282.064C286.964 38.6397 290.534 34.9997 290.534 29.9597C290.534 24.9197 286.964 21.2797 282.064 21.2797C277.164 21.2797 273.594 24.9197 273.594 29.9597C273.594 31.9197 274.014 33.4597 274.924 34.8597H269.114C268.274 33.5297 267.854 31.8497 267.854 29.9597C267.854 21.9097 273.874 16.0997 282.064 16.0997C290.254 16.0997 296.274 21.9097 296.274 29.9597C296.274 38.0097 290.254 43.8197 282.064 43.8197ZM368.21 29.1197V-0.000277877H373.95V15.7497H383.75V20.9297H373.95V28.9097C373.95 34.9297 375.63 38.6397 381.23 38.6397H382.98V43.8197H381.16C372.76 43.8197 368.21 38.9197 368.21 29.1197ZM343.15 38.6397H362.4V43.8197H323.34V38.6397H334.68C333.77 37.6597 333.28 36.3297 333.28 33.6697V16.0297H339.02V33.9497C339.02 37.2397 340.42 38.6397 343.15 38.6397ZM367.93 70.6297V59.0797H373.67V75.8097H348.75C346.72 75.8097 345.6 74.6897 345.6 72.6597V50.1197H373.67V55.2997H351.34V70.6297H367.93ZM410.532 32.1297C401.922 32.1297 395.902 26.4597 395.902 18.4797C395.902 10.4997 401.922 4.82972 410.532 4.82972H423.482V10.0097H410.532C405.282 10.0097 401.642 13.5097 401.642 18.4797C401.642 23.4497 405.282 26.9497 410.532 26.9497C415.782 26.9497 419.422 23.4497 419.422 18.4797C419.422 16.6597 418.932 14.8397 417.882 13.3697H423.762C424.672 14.6297 425.162 16.6597 425.162 18.4797C425.162 26.4597 419.142 32.1297 410.532 32.1297ZM382.812 43.8197V38.6397H438.252V43.8197H382.812ZM399.262 68.9497V76.5797H427.752V81.7597H396.672C394.642 81.7597 393.522 80.6397 393.522 78.6097V63.8397H420.962V56.5597H393.522V51.3797H423.552C425.582 51.3797 426.702 52.4997 426.702 54.5297V68.9497H399.262ZM69.4398 129.64V134.82C62.4398 134.4 58.1698 129.78 58.1698 120.82V111.93H44.5198V106.75H58.1698V90.9997H63.9098V119.7C63.9098 125.23 65.6598 128.8 69.4398 129.64ZM6.15982 134.82H-0.000175785V129.64H5.45982C15.6798 129.64 21.5598 124.6 21.5598 115.78V111.93H7.90982V106.75H40.7398V111.93H27.5098V115.78C27.5098 124.25 33.0398 129.29 42.4898 129.5V134.54C34.4398 134.54 27.9298 131.18 24.5698 125.37C21.2798 131.39 14.5598 134.82 6.15982 134.82ZM38.4298 142.52V159.53H63.3498V164.71H35.8398C33.8098 164.71 32.6898 163.59 32.6898 161.56V142.52H38.4298ZM114.886 120.12V90.9997H120.626V106.75H130.426V111.93H120.626V119.91C120.626 125.93 122.306 129.64 127.906 129.64H129.656V134.82H127.836C119.436 134.82 114.886 129.92 114.886 120.12ZM86.9562 129.64H106.416V134.82H69.3162V129.64H78.6962C77.9962 128.73 77.5762 127.54 77.5762 125.23V115.22H97.0362V106.82H77.5762V101.64H99.6262C101.656 101.64 102.776 102.76 102.776 104.79V120.33H83.3162V125.44C83.3162 128.45 84.4362 129.64 86.9562 129.64ZM160.271 117.67V129.64H184.981V134.82H129.541V129.64H154.531V117.67H144.871C142.841 117.67 141.721 116.55 141.721 114.52V92.7497H173.151V97.9297H147.461V112.49H173.151V117.67H160.271ZM251.419 120.12V90.9997H257.159V106.75H266.959V111.93H257.159V119.91C257.159 125.93 258.839 129.64 264.439 129.64H266.189V134.82H264.369C255.969 134.82 251.419 129.92 251.419 120.12ZM207.949 134.82V129.64C217.959 129.36 223.979 123.34 223.979 113.82V103.67H229.789V113.82C229.789 123.27 235.739 129.22 245.399 129.5V134.54C237.069 134.47 230.069 130.55 226.919 124.11C223.839 130.69 216.699 134.75 207.949 134.82ZM284.605 110.6V117.11H309.175V122.29H282.015C279.985 122.29 278.865 121.17 278.865 119.14V94.0097H309.035V99.1897H284.605V105.49H308.335V110.6H284.605ZM321.495 129.64V134.82H296.645V153.72H290.905V134.82H266.055V129.64H321.495ZM379.597 129.64V134.82C373.297 134.4 368.327 129.64 368.327 118.3V90.9997H374.067V117.04C374.067 124.88 376.237 128.38 379.597 129.64ZM338.997 129.64H358.947V134.82H321.357V129.64H330.737C330.037 128.73 329.617 127.54 329.617 125.23V115.22H349.497V106.82H329.617V101.64H352.157C354.187 101.64 355.307 102.76 355.307 104.79V120.33H335.357V125.44C335.357 128.45 336.477 129.64 338.997 129.64Z" fill="#00B7AB"/>
</svg>
