<svg width="383" height="76" viewBox="0 0 383 76" fill="none" xmlns="http://www.w3.org/2000/svg">
<rect x="0.5" y="0.5" width="382" height="75" fill="#00B7AB"/>
<rect x="0.5" y="0.5" width="382" height="75" stroke="black"/>
<path d="M28.54 27.04H27.22V13.86H28.54V18.28H31.26V19.4H28.54V27.04ZM29.28 31.36H16.9V25.44H18.24V30.28H29.28V31.36ZM26.34 21.24V22.3C24.3 22.76 21 22.98 18.22 22.98H14.88V14.78H23.5V15.84H16.2V21.88H18.22C20.92 21.88 24.14 21.66 26.34 21.24ZM46.9384 27.04H45.6184V13.86H46.9384V18.28H49.6584V19.4H46.9384V27.04ZM47.6784 31.36H35.2984V25.44H36.6384V30.28H47.6784V31.36ZM44.7384 21.24V22.3C42.6984 22.76 39.3984 22.98 36.6184 22.98H33.2784V14.78H41.8984V15.84H34.5984V21.88H36.6184C39.3184 21.88 42.5384 21.66 44.7384 21.24ZM59.0769 15.46H53.5369V14.38H59.0769V15.46ZM65.3969 31.64H64.0769V13.86H65.3969V21.2H68.2769V22.34H65.3969V31.64ZM60.9169 24.16C60.9169 26.5 59.0769 28.38 56.3769 28.38C53.6769 28.38 51.8369 26.5 51.8369 24.16C51.8369 21.82 53.6769 19.92 56.3769 19.92C59.0769 19.92 60.9169 21.8 60.9169 24.16ZM59.5969 24.16C59.5969 22.28 58.3369 20.98 56.3969 20.98C54.4369 20.98 53.1769 22.26 53.1769 24.16C53.1769 26.04 54.4369 27.32 56.3969 27.32C58.3369 27.32 59.5969 26.04 59.5969 24.16ZM61.8169 18.42H50.8369V17.34H61.8169V18.42ZM83.4553 31.64H82.1353V13.86H83.4553V20.2H86.4553V21.34H83.4553V31.64ZM81.2753 25.16V26.24C79.0353 26.7 75.5353 26.92 72.8553 26.92H70.0953V15.04H78.6753V16.12H71.4153V25.82H72.8553C75.5353 25.82 78.8753 25.6 81.2753 25.16ZM23.04 58.8L23.24 59.8C22.22 60.12 20.98 60.24 19.8 60.24C15.98 60.24 14.16 57.68 14.14 54.34C14.1 51.24 15.98 48.6 19.2 48.62C22.5 48.62 23.98 50.76 23.98 53.94V54.66H15.42C15.5 57.16 16.92 59.26 19.84 59.24C20.86 59.24 22.02 59.12 23.04 58.8ZM15.38 53.68H22.72C22.72 53.64 22.76 53.46 22.72 53.42C22.7 51.04 21.38 49.62 19.2 49.62C16.72 49.62 15.54 51.6 15.38 53.68ZM28.5397 59.66C28.5397 60.3 28.0397 60.78 27.3997 60.78C26.7197 60.78 26.2197 60.3 26.2197 59.66C26.2197 59.06 26.7197 58.54 27.3997 58.54C28.0397 58.54 28.5397 59.06 28.5397 59.66ZM40.028 59.42V57.92H39.908C39.128 59.14 37.688 59.86 36.128 59.86C33.068 59.88 31.328 57.5 31.328 54.24C31.328 51 33.108 48.62 36.208 48.64C37.788 48.64 39.088 49.3 39.888 50.48H39.988V48.9H41.268V59.6C41.268 62.68 39.148 64.24 36.108 64.24C35.048 64.24 33.668 64.08 32.648 63.74L32.928 62.72C33.928 63.1 35.048 63.24 36.108 63.24C38.728 63.24 40.028 61.82 40.028 59.42ZM39.968 55.22V53.12C39.968 51.16 38.228 49.64 36.348 49.64C33.968 49.64 32.588 51.6 32.588 54.24C32.588 56.88 33.848 58.86 36.268 58.86C38.208 58.86 39.968 57.32 39.968 55.22ZM46.9186 59.66C46.9186 60.3 46.4186 60.78 45.7786 60.78C45.0986 60.78 44.5986 60.3 44.5986 59.66C44.5986 59.06 45.0986 58.54 45.7786 58.54C46.4186 58.54 46.9186 59.06 46.9186 59.66ZM70.3719 53.08H69.0319V48.64H64.9519C64.7919 50.82 62.9319 52.52 60.2719 52.52C57.4319 52.52 55.5319 50.64 55.5319 48.3C55.5319 45.98 57.4319 44.1 60.2719 44.1C62.7719 44.1 64.5319 45.58 64.9119 47.54H69.0319V43.86H70.3719V53.08ZM70.7719 61.44H58.4719V57.16H69.0119V55.06H58.4719V54.02H70.3519V58.16H59.8119V60.38H70.7719V61.44ZM63.6319 48.3C63.6319 46.54 62.4119 45.16 60.2719 45.16C58.1119 45.16 56.8919 46.54 56.8919 48.3C56.8919 50.06 58.1119 51.46 60.2719 51.46C62.4119 51.46 63.6319 50.06 63.6319 48.3ZM81.7703 50.7C77.7103 50.7 75.2303 49.24 75.2303 47.22C75.2303 45.22 77.7103 43.76 81.7703 43.76C85.8303 43.76 88.3303 45.22 88.3303 47.22C88.3303 49.24 85.8303 50.7 81.7703 50.7ZM81.7703 44.82C78.8103 44.82 76.5503 45.68 76.5503 47.24C76.5503 48.78 78.8103 49.64 81.7703 49.64C84.7503 49.64 86.9903 48.78 86.9903 47.24C86.9903 45.68 84.7503 44.82 81.7703 44.82ZM90.5103 53.38H73.0703V52.3H90.5103V53.38ZM88.0503 61.44H75.5103V55.42H88.0503V61.44ZM86.7103 60.36V56.5H76.8503V60.36H86.7103ZM107.209 61.64H105.869V43.86H107.209V61.64ZM92.5688 51.1C92.5688 46.84 94.5288 44.34 97.1288 44.34C99.7488 44.34 101.689 46.84 101.689 51.1C101.689 55.38 99.7488 57.88 97.1288 57.88C94.5288 57.88 92.5688 55.38 92.5688 51.1ZM100.349 51.1C100.349 47.44 99.0088 45.42 97.1288 45.42C95.2688 45.42 93.9087 47.44 93.9087 51.1C93.9087 54.78 95.2688 56.8 97.1288 56.8C99.0088 56.8 100.349 54.78 100.349 51.1ZM130.812 61.64H129.472V50.42H123.992V49.34H129.472V43.86H130.812V61.64ZM127.972 55.14V56.22C125.752 56.68 122.252 56.88 119.572 56.88H117.132V44.7H118.472V55.78H119.572C122.252 55.78 125.612 55.58 127.972 55.14ZM148.851 51.34H136.331V44.56H148.851V51.34ZM147.511 50.26V45.64H137.671V50.26H147.511ZM151.331 55.1H143.291V61.64H141.911V55.1H133.871V54.02H151.331V55.1ZM173.374 54.42H172.094V43.86H173.374V48.36H175.874V49.46H173.374V54.42ZM159.234 53.12L158.294 52.34C161.054 50.8 162.674 48.44 162.894 45.82H159.354V44.78H164.314C164.234 48.62 162.194 51.36 159.234 53.12ZM164.834 53.92L163.834 53.16C166.694 51.3 168.134 48.72 168.394 45.82H164.934V44.78H169.814C169.694 48.98 167.734 51.9 164.834 53.92ZM167.434 61.94C163.474 61.94 161.054 60.44 161.054 58.4C161.054 56.36 163.474 54.86 167.434 54.86C171.394 54.86 173.794 56.36 173.794 58.4C173.794 60.44 171.394 61.94 167.434 61.94ZM167.434 55.94C164.514 55.94 162.414 56.84 162.414 58.4C162.414 59.96 164.514 60.86 167.434 60.86C170.354 60.86 172.454 59.96 172.454 58.4C172.454 56.84 170.354 55.94 167.434 55.94ZM191.773 54.42H190.493V43.86H191.773V48.36H194.273V49.46H191.773V54.42ZM177.633 53.12L176.693 52.34C179.453 50.8 181.073 48.44 181.293 45.82H177.753V44.78H182.713C182.633 48.62 180.593 51.36 177.633 53.12ZM183.233 53.92L182.233 53.16C185.093 51.3 186.533 48.72 186.793 45.82H183.333V44.78H188.213C188.093 48.98 186.133 51.9 183.233 53.92ZM185.833 61.94C181.873 61.94 179.453 60.44 179.453 58.4C179.453 56.36 181.873 54.86 185.833 54.86C189.793 54.86 192.193 56.36 192.193 58.4C192.193 60.44 189.793 61.94 185.833 61.94ZM185.833 55.94C182.913 55.94 180.812 56.84 180.812 58.4C180.812 59.96 182.913 60.86 185.833 60.86C188.753 60.86 190.853 59.96 190.853 58.4C190.853 56.84 188.753 55.94 185.833 55.94ZM203.491 45.46H197.951V44.38H203.491V45.46ZM206.231 48.42H195.251V47.34H206.231V48.42ZM205.331 54.16C205.331 56.5 203.491 58.38 200.791 58.38C198.091 58.38 196.251 56.5 196.251 54.16C196.251 51.82 198.091 49.92 200.791 49.92C203.491 49.92 205.331 51.8 205.331 54.16ZM204.011 54.16C204.011 52.28 202.751 50.98 200.811 50.98C198.851 50.98 197.591 52.26 197.591 54.16C197.591 56.04 198.851 57.32 200.811 57.32C202.751 57.32 204.011 56.04 204.011 54.16ZM210.451 61.64H209.111V56.34H206.051V55.22H209.111V51.3H206.051V50.2H209.111V43.86H210.451V61.64ZM216.469 59.66C216.469 60.3 215.969 60.78 215.329 60.78C214.649 60.78 214.149 60.3 214.149 59.66C214.149 59.06 214.649 58.54 215.329 58.54C215.969 58.54 216.469 59.06 216.469 59.66ZM239.963 61.64H238.623V43.86H239.963V61.64ZM225.323 51.1C225.323 46.84 227.283 44.34 229.883 44.34C232.503 44.34 234.443 46.84 234.443 51.1C234.443 55.38 232.503 57.88 229.883 57.88C227.283 57.88 225.323 55.38 225.323 51.1ZM233.103 51.1C233.103 47.44 231.763 45.42 229.883 45.42C228.023 45.42 226.663 47.44 226.663 51.1C226.663 54.78 228.023 56.8 229.883 56.8C231.763 56.8 233.103 54.78 233.103 51.1ZM258.261 61.44H245.961V57.14H256.501V55.04H245.961V54H257.841V58.16H247.281V60.38H258.261V61.44ZM257.881 53.04H256.581V43.86H257.881V47.38H260.381V48.48H257.881V53.04ZM248.581 52.16H243.641V44.48H244.881V47.22H247.361V44.48H248.581V52.16ZM247.361 51.16V48.2H244.881V51.16H247.361ZM254.561 52.16H249.681V44.48H250.921V47.22H253.321V44.48H254.561V52.16ZM253.321 51.16V48.2H250.921V51.16H253.321ZM281.405 61.64H280.085V43.86H281.405V50.2H284.405V51.34H281.405V61.64ZM279.225 55.16V56.24C276.985 56.7 273.485 56.92 270.805 56.92H268.045V45.04H276.625V46.12H269.365V55.82H270.805C273.485 55.82 276.825 55.6 279.225 55.16ZM296.448 58.38L295.228 57.78C297.768 54.52 298.848 50.06 298.968 46.24H296.488V45.16H300.348C300.268 50.2 299.068 54.68 296.448 58.38ZM291.828 57.46L290.648 56.86C293.248 53.84 294.408 49.62 294.568 46.24H291.668V45.16H295.948C295.848 49.8 294.488 54.16 291.828 57.46ZM306.928 61.64H305.648V51.84H303.128V60.8H301.848V44.16H303.128V50.66H305.648V43.86H306.928V61.64ZM321.386 56.58L320.566 57.54C318.286 56.24 316.006 53.96 315.246 51.76C314.546 54.22 312.446 56.52 309.866 58.06L308.966 57.18C311.886 55.54 314.486 52.48 314.486 48.34V46.12H310.006V45.04H320.266V46.12H315.906V48.34C315.906 52.4 318.826 55.26 321.386 56.58ZM324.806 61.64H323.466V53.04H319.646V51.96H323.466V48.96H319.666V47.88H323.466V43.86H324.806V61.64ZM342.425 52.2H329.905V44.24H331.245V46.86H341.085V44.24H342.425V52.2ZM341.085 51.12V47.92H331.245V51.12H341.085ZM344.925 55.52H336.865V61.64H335.485V55.52H327.445V54.44H344.925V55.52ZM361.183 61.64H359.843V51.02H356.403V49.9H359.843V43.86H361.183V61.64ZM358.343 55.56V56.66C356.123 57.1 352.623 57.32 349.943 57.32H347.303V50.5H353.863V46.02H347.303V44.94H355.203V51.56H348.623V56.22H349.943C352.623 56.22 355.983 56.02 358.343 55.56ZM367.622 59.66C367.622 60.3 367.122 60.78 366.482 60.78C365.802 60.78 365.302 60.3 365.302 59.66C365.302 59.06 365.802 58.54 366.482 58.54C367.122 58.54 367.622 59.06 367.622 59.66Z" fill="white"/>
</svg>
