<svg width="232" height="76" viewBox="0 0 232 76" fill="none" xmlns="http://www.w3.org/2000/svg">
<rect x="0.5" y="0.5" width="231" height="75" fill="#00B7AB"/>
<rect x="0.5" y="0.5" width="231" height="75" stroke="black"/>
<path d="M29.14 31.64H27.82V21.38H25.06V30.8H23.76V14.16H25.06V20.22H27.82V13.86H29.14V31.64ZM21.62 26.92H14.8V15.16H21.62V26.92ZM20.28 25.84V16.24H16.1V25.84H20.28ZM47.3384 31.74H46.0184V27.02H35.0584V25.92H47.3384V31.74ZM44.5784 22.22V23.24C42.4984 23.7 39.2384 23.94 36.4384 23.94H33.2784V18.7H40.0184V15.66H33.2784V14.62H41.3384V19.72H34.5984V22.88H36.4384C39.1384 22.88 42.3784 22.64 44.5784 22.22ZM47.3784 24.96H46.0584V20.58H42.4584V19.52H46.0584V17.18H42.4584V16.12H46.0584V13.86H47.3784V24.96ZM62.5169 22.48L61.7169 23.44C59.4769 22.62 57.4769 20.98 56.6569 19.24C55.9369 21.18 53.8569 23.02 51.4169 24.04L50.5769 23.12C53.4369 22.08 55.9169 19.54 55.9169 16.52V15.84H51.5569V14.78H61.5569V15.84H57.3369V16.52C57.3369 19.42 59.8569 21.62 62.5169 22.48ZM65.9569 31.74H64.6169V26.62H53.6769V25.52H65.9569V31.74ZM65.9969 24.56H64.6569V19.1H60.6369V17.98H64.6569V13.86H65.9969V24.56ZM84.4353 31.64H83.0953V13.86H84.4353V31.64ZM69.7953 21.1C69.7953 16.84 71.7553 14.34 74.3553 14.34C76.9753 14.34 78.9153 16.84 78.9153 21.1C78.9153 25.38 76.9753 27.88 74.3553 27.88C71.7553 27.88 69.7953 25.38 69.7953 21.1ZM77.5753 21.1C77.5753 17.44 76.2353 15.42 74.3553 15.42C72.4953 15.42 71.1353 17.44 71.1353 21.1C71.1353 24.78 72.4953 26.8 74.3553 26.8C76.2353 26.8 77.5753 24.78 77.5753 21.1ZM101.854 31.64H100.534V13.86H101.854V20.2H104.854V21.34H101.854V31.64ZM99.6738 25.16V26.24C97.4338 26.7 93.9338 26.92 91.2538 26.92H88.4938V15.04H97.0738V16.12H89.8138V25.82H91.2538C93.9338 25.82 97.2738 25.6 99.6738 25.16ZM23.04 58.8L23.24 59.8C22.22 60.12 20.98 60.24 19.8 60.24C15.98 60.24 14.16 57.68 14.14 54.34C14.1 51.24 15.98 48.6 19.2 48.62C22.5 48.62 23.98 50.76 23.98 53.94V54.66H15.42C15.5 57.16 16.92 59.26 19.84 59.24C20.86 59.24 22.02 59.12 23.04 58.8ZM15.38 53.68H22.72C22.72 53.64 22.76 53.46 22.72 53.42C22.7 51.04 21.38 49.62 19.2 49.62C16.72 49.62 15.54 51.6 15.38 53.68ZM28.5397 59.66C28.5397 60.3 28.0397 60.78 27.3997 60.78C26.7197 60.78 26.2197 60.3 26.2197 59.66C26.2197 59.06 26.7197 58.54 27.3997 58.54C28.0397 58.54 28.5397 59.06 28.5397 59.66ZM40.028 59.42V57.92H39.908C39.128 59.14 37.688 59.86 36.128 59.86C33.068 59.88 31.328 57.5 31.328 54.24C31.328 51 33.108 48.62 36.208 48.64C37.788 48.64 39.088 49.3 39.888 50.48H39.988V48.9H41.268V59.6C41.268 62.68 39.148 64.24 36.108 64.24C35.048 64.24 33.668 64.08 32.648 63.74L32.928 62.72C33.928 63.1 35.048 63.24 36.108 63.24C38.728 63.24 40.028 61.82 40.028 59.42ZM39.968 55.22V53.12C39.968 51.16 38.228 49.64 36.348 49.64C33.968 49.64 32.588 51.6 32.588 54.24C32.588 56.88 33.848 58.86 36.268 58.86C38.208 58.86 39.968 57.32 39.968 55.22ZM46.9186 59.66C46.9186 60.3 46.4186 60.78 45.7786 60.78C45.0986 60.78 44.5986 60.3 44.5986 59.66C44.5986 59.06 45.0986 58.54 45.7786 58.54C46.4186 58.54 46.9186 59.06 46.9186 59.66ZM69.4319 61.64H68.1119V43.86H69.4319V50.3H72.4319V51.44H69.4319V61.64ZM55.3519 51.1C55.3519 46.84 57.2919 44.34 59.8919 44.34C62.4919 44.34 64.4519 46.84 64.4519 51.1C64.4519 55.38 62.4919 57.88 59.8919 57.88C57.2919 57.88 55.3519 55.38 55.3519 51.1ZM63.1119 51.1C63.1119 47.44 61.7519 45.42 59.8919 45.42C58.0319 45.42 56.6919 47.44 56.6919 51.1C56.6919 54.78 58.0319 56.8 59.8919 56.8C61.7519 56.8 63.1119 54.78 63.1119 51.1ZM88.3503 48.06C88.3503 50.36 85.8703 52.16 81.7303 52.16C77.6103 52.16 75.1303 50.36 75.1303 48.06C75.1303 45.78 77.6103 43.98 81.7303 43.98C85.8703 43.98 88.3503 45.78 88.3503 48.06ZM87.0103 48.06C87.0103 46.2 84.7503 45.06 81.7303 45.06C78.7503 45.06 76.4703 46.2 76.4703 48.06C76.4703 49.94 78.7503 51.08 81.7303 51.08C84.7503 51.08 87.0103 49.94 87.0103 48.06ZM85.5903 61.64H84.2703V55.1H79.3103V61.48H77.9503V55.1H73.0503V54.02H90.5103V55.1H85.5903V61.64ZM112.734 61.44H100.434V57.06H110.974V54.86H100.434V53.82H112.314V58.06H101.754V60.38H112.734V61.44ZM112.354 52.88H111.014V43.86H112.354V47.3H114.854V48.42H112.354V52.88ZM103.494 50.42V51.48C102.414 51.64 101.034 51.7 100.094 51.7H98.2538V44.78H103.394V45.82H99.5538V50.64H100.094C100.914 50.64 102.374 50.6 103.494 50.42ZM110.214 50.34V51.38C109.034 51.6 107.574 51.7 106.354 51.7H104.194V44.78H109.134V45.82H105.494V50.64H106.354C107.514 50.64 108.954 50.58 110.214 50.34ZM131.232 61.64H129.892V43.86H131.232V61.64ZM116.592 51.1C116.592 46.84 118.552 44.34 121.152 44.34C123.772 44.34 125.712 46.84 125.712 51.1C125.712 55.38 123.772 57.88 121.152 57.88C118.552 57.88 116.592 55.38 116.592 51.1ZM124.372 51.1C124.372 47.44 123.032 45.42 121.152 45.42C119.292 45.42 117.932 47.44 117.932 51.1C117.932 54.78 119.292 56.8 121.152 56.8C123.032 56.8 124.372 54.78 124.372 51.1ZM153.016 50.4V51.42C151.316 51.74 148.916 51.88 146.236 51.88H146.196V55.44H144.856V51.88H139.916V50.84H146.616C147.296 50.84 147.996 50.84 148.656 50.8C149.016 49.32 149.296 47.1 149.396 45.66H141.136V44.6H150.796C150.696 46.8 150.376 49.12 149.996 50.74C151.116 50.66 152.156 50.54 153.016 50.4ZM155.516 61.36H142.996V56.34H144.336V60.26H155.516V61.36ZM155.116 57.5H153.776V43.86H155.116V57.5ZM175.534 60.82L174.694 61.72C173.134 60.92 171.534 59.4 171.014 57.94C170.494 59.34 169.054 60.9 167.654 61.66C166.234 60.9 164.774 59.34 164.274 57.94C163.734 59.4 162.154 60.92 160.594 61.72L159.754 60.82C161.634 59.96 163.594 57.92 163.594 55.76V54.98H164.934V55.76C164.934 57.6 166.414 59.48 167.654 60.26C168.874 59.48 170.354 57.6 170.354 55.76V54.98H171.694V55.76C171.694 57.92 173.674 59.96 175.534 60.82ZM168.394 48.62C168.394 51.08 166.434 53.04 163.594 53.04C160.714 53.04 158.774 51.08 158.774 48.62C158.774 46.16 160.714 44.18 163.594 44.18C166.434 44.18 168.394 46.16 168.394 48.62ZM167.054 48.62C167.054 46.74 165.774 45.26 163.594 45.26C161.394 45.26 160.134 46.74 160.134 48.62C160.134 50.48 161.394 51.96 163.594 51.96C165.774 51.96 167.054 50.48 167.054 48.62ZM173.614 54.2H172.274V43.86H173.614V54.2ZM188.113 60.8H186.813V50.8H182.733V49.68H186.813V44.16H188.113V60.8ZM191.953 61.64H190.633V43.86H191.953V61.64ZM185.633 55.52V56.6C183.973 56.86 181.553 57.02 179.793 57.02H177.833V44.74H179.113V55.92H179.793C181.553 55.92 183.953 55.78 185.633 55.52ZM203.411 53.84C199.531 53.84 196.871 51.76 196.871 49.04C196.871 46.3 199.531 44.22 203.411 44.22C207.311 44.22 209.991 46.3 209.991 49.04C209.991 51.76 207.311 53.84 203.411 53.84ZM203.411 45.3C200.471 45.3 198.191 46.8 198.191 49.04C198.191 51.28 200.471 52.76 203.411 52.76C206.371 52.76 208.651 51.28 208.651 49.04C208.651 46.8 206.371 45.3 203.411 45.3ZM212.171 59.18H194.691V58.1H198.951V54.24H200.311V58.1H206.511V54.24H207.871V58.1H212.171V59.18ZM216.469 59.66C216.469 60.3 215.969 60.78 215.329 60.78C214.649 60.78 214.149 60.3 214.149 59.66C214.149 59.06 214.649 58.54 215.329 58.54C215.969 58.54 216.469 59.06 216.469 59.66Z" fill="white"/>
</svg>
