<svg width="384" height="76" viewBox="0 0 384 76" fill="none" xmlns="http://www.w3.org/2000/svg">
<rect x="0.5" y="0.5" width="383" height="75" fill="#00B7AB"/>
<rect x="0.5" y="0.5" width="383" height="75" stroke="black"/>
<path d="M29.66 31.64H28.32V13.86H29.66V31.64ZM20.64 28.62L19.46 27.98C22.4 24.64 23.66 20.48 23.86 16.12H20.48V15.04H25.24C25.14 20.76 23.66 25.04 20.64 28.62ZM15.08 27.54L13.9 26.92C16.92 23.84 18.24 19.84 18.44 16.12H14.7V15.04H19.86C19.74 20.16 18.08 24.26 15.08 27.54ZM47.5984 23.72H46.2584V18.92H42.3784C42.1584 21.14 40.2584 22.84 37.5784 22.84C34.6984 22.84 32.7584 20.92 32.7584 18.52C32.7584 16.12 34.6984 14.18 37.5784 14.18C40.1384 14.18 41.9784 15.74 42.3384 17.8H46.2584V13.86H47.5984V23.72ZM41.0384 18.52C41.0384 16.7 39.7584 15.26 37.5784 15.26C35.3784 15.26 34.1184 16.7 34.1184 18.52C34.1184 20.32 35.3784 21.76 37.5784 21.76C39.7584 21.76 41.0384 20.32 41.0384 18.52ZM48.6584 30.76L47.8384 31.66C46.4584 31 45.0984 29.62 44.5184 28.16C43.9984 29.58 42.6384 30.94 41.2784 31.66L40.4184 30.78C42.1984 29.88 43.8584 28.12 43.8584 26.06V25.76H40.5584V24.68H48.3584V25.76H45.2184V26.1C45.2384 28.22 46.8984 29.92 48.6584 30.76ZM40.1984 30.14V31.2C39.1384 31.4 37.6184 31.44 36.4984 31.44H34.7784V24.44H36.0784V30.36H36.5384C37.5784 30.36 39.0584 30.32 40.1984 30.14ZM65.0569 31.64H63.7369V13.86H65.0569V20.2H68.0569V21.34H65.0569V31.64ZM62.8769 25.16V26.24C60.6369 26.7 57.1369 26.92 54.4569 26.92H51.6969V15.04H60.2769V16.12H53.0169V25.82H54.4569C57.1369 25.82 60.4769 25.6 62.8769 25.16ZM23.04 58.8L23.24 59.8C22.22 60.12 20.98 60.24 19.8 60.24C15.98 60.24 14.16 57.68 14.14 54.34C14.1 51.24 15.98 48.6 19.2 48.62C22.5 48.62 23.98 50.76 23.98 53.94V54.66H15.42C15.5 57.16 16.92 59.26 19.84 59.24C20.86 59.24 22.02 59.12 23.04 58.8ZM15.38 53.68H22.72C22.72 53.64 22.76 53.46 22.72 53.42C22.7 51.04 21.38 49.62 19.2 49.62C16.72 49.62 15.54 51.6 15.38 53.68ZM28.5397 59.66C28.5397 60.3 28.0397 60.78 27.3997 60.78C26.7197 60.78 26.2197 60.3 26.2197 59.66C26.2197 59.06 26.7197 58.54 27.3997 58.54C28.0397 58.54 28.5397 59.06 28.5397 59.66ZM40.028 59.42V57.92H39.908C39.128 59.14 37.688 59.86 36.128 59.86C33.068 59.88 31.328 57.5 31.328 54.24C31.328 51 33.108 48.62 36.208 48.64C37.788 48.64 39.088 49.3 39.888 50.48H39.988V48.9H41.268V59.6C41.268 62.68 39.148 64.24 36.108 64.24C35.048 64.24 33.668 64.08 32.648 63.74L32.928 62.72C33.928 63.1 35.048 63.24 36.108 63.24C38.728 63.24 40.028 61.82 40.028 59.42ZM39.968 55.22V53.12C39.968 51.16 38.228 49.64 36.348 49.64C33.968 49.64 32.588 51.6 32.588 54.24C32.588 56.88 33.848 58.86 36.268 58.86C38.208 58.86 39.968 57.32 39.968 55.22ZM46.9186 59.66C46.9186 60.3 46.4186 60.78 45.7786 60.78C45.0986 60.78 44.5986 60.3 44.5986 59.66C44.5986 59.06 45.0986 58.54 45.7786 58.54C46.4186 58.54 46.9186 59.06 46.9186 59.66ZM70.0719 61.44H57.0919V57.32H68.2919V55.4H57.0919V54.34H69.6319V58.32H58.4319V60.38H70.0719V61.44ZM71.0119 49.16L70.3119 50.12C67.4719 49.8 64.5719 48.52 63.3919 46.76C62.2519 48.52 59.3119 49.8 56.5119 50.12L55.8319 49.16C58.7719 48.82 62.1119 47.44 62.6319 45.48H56.9119V44.44H69.8719V45.48H64.1719C64.7119 47.44 68.0719 48.82 71.0119 49.16ZM72.1119 52.58H54.6719V51.52H62.7319V49.14H64.0919V51.52H72.1119V52.58ZM85.5503 55.56V56.66C83.3303 57.1 79.8303 57.32 77.1503 57.32H74.5103V50.5H81.0703V46.02H74.5103V44.94H82.4103V51.56H75.8303V56.22H77.1503C79.8303 56.22 83.1903 56.02 85.5503 55.56ZM88.3903 61.64H87.0503V53.16H83.7103V52.04H87.0503V48.54H83.7103V47.42H87.0503V43.86H88.3903V61.64ZM108.929 59.18H91.4488V58.1H99.4888V54H93.9087V44.74H95.2488V48H105.089V44.74H106.429V54H100.869V58.1H108.929V59.18ZM105.089 52.92V49.06H95.2488V52.92H105.089ZM125.607 61.64H124.267V43.86H125.607V61.64ZM110.967 51.1C110.967 46.84 112.927 44.34 115.527 44.34C118.147 44.34 120.087 46.84 120.087 51.1C120.087 55.38 118.147 57.88 115.527 57.88C112.927 57.88 110.967 55.38 110.967 51.1ZM118.747 51.1C118.747 47.44 117.407 45.42 115.527 45.42C113.667 45.42 112.307 47.44 112.307 51.1C112.307 54.78 113.667 56.8 115.527 56.8C117.407 56.8 118.747 54.78 118.747 51.1ZM145.706 54.04H128.266V52.96H145.706V54.04ZM143.686 50.26H130.706V43.92H132.046V49.18H143.686V50.26ZM144.026 61.36H130.726V55.8H132.066V60.26H144.026V61.36ZM156.084 55.54V56.62C154.444 56.88 152.004 57.04 150.244 57.04H148.184V45.2H154.804V46.28H149.464V55.94H150.244C152.004 55.94 154.424 55.8 156.084 55.54ZM158.584 60.8H157.264V51.22H153.104V50.12H157.264V44.16H158.584V60.8ZM162.304 61.64H160.984V43.86H162.304V61.64ZM186.388 53.08H185.048V48.64H180.968C180.808 50.82 178.948 52.52 176.288 52.52C173.448 52.52 171.548 50.64 171.548 48.3C171.548 45.98 173.448 44.1 176.288 44.1C178.788 44.1 180.548 45.58 180.928 47.54H185.048V43.86H186.388V53.08ZM186.788 61.44H174.488V57.16H185.028V55.06H174.488V54.02H186.368V58.16H175.828V60.38H186.788V61.44ZM179.648 48.3C179.648 46.54 178.428 45.16 176.288 45.16C174.128 45.16 172.908 46.54 172.908 48.3C172.908 50.06 174.128 51.46 176.288 51.46C178.428 51.46 179.648 50.06 179.648 48.3ZM204.466 61.44H191.506V57.02H202.706V54.8H191.506V53.74H197.106V51.06H189.086V50.02H202.346C202.666 48.66 202.946 46.78 203.006 45.48H191.206V44.44H204.366C204.266 46.68 203.946 48.7 203.646 50.02H206.526V51.06H198.486V53.74H204.046V58.02H192.846V60.38H204.466V61.44ZM219.924 60.8H218.624V51.66H216.204C216.084 55.58 214.424 57.86 212.164 57.86C209.824 57.86 208.124 55.38 208.124 51.16C208.124 46.96 209.824 44.48 212.164 44.48C214.404 44.48 216.064 46.72 216.204 50.54H218.624V44.16H219.924V60.8ZM212.164 56.78C213.844 56.78 214.924 54.56 214.924 51.16C214.924 47.78 213.844 45.56 212.164 45.56C210.524 45.56 209.424 47.78 209.424 51.16C209.424 54.56 210.524 56.78 212.164 56.78ZM223.544 61.64H222.204V43.86H223.544V61.64ZM246.888 61.44H233.928V57.42H245.128V55.6H233.928V54.54H239.528V52.5H231.508V51.44H248.948V52.5H240.908V54.54H246.468V58.42H235.268V60.38H246.888V61.44ZM246.468 49.7H233.948V44.44H246.468V49.7ZM245.128 48.64V45.48H235.288V48.64H245.128ZM264.886 61.44H252.346V55.6H264.886V61.44ZM263.546 60.36V56.66H253.686V60.36H263.546ZM266.246 49.62L265.526 50.58C262.506 50.2 259.766 48.74 258.626 46.96C257.526 48.74 254.766 50.2 251.786 50.58L251.046 49.62C254.206 49.22 257.526 47.62 257.906 45.52H252.146V44.44H265.106V45.52H259.366C259.746 47.62 263.066 49.22 266.246 49.62ZM267.346 53.54H249.906V52.46H257.966V49.74H259.326V52.46H267.346V53.54ZM286.91 56.78L285.99 57.58C284.71 56.4 283.77 54.68 283.35 53.1C282.95 54.84 281.73 56.96 280.57 57.94C279.43 56.96 278.21 54.84 277.79 53.1C277.39 54.8 276.39 56.56 274.95 57.92L273.93 57.16C275.75 55.56 277.11 52.94 277.11 49.06V46.12H274.97V45.04H280.27V46.12H278.47V49.06C278.47 52.26 279.45 54.66 280.57 56.22C281.73 54.66 282.67 52.26 282.67 49.06V46.12H280.91V45.04H286.21V46.12H284.03V49.06C284.03 52.76 285.41 55.34 286.91 56.78ZM290.09 61.64H288.79V43.86H290.09V61.64ZM309.788 58.98H292.308V57.9H297.188C298.208 54.4 298.788 49.66 298.868 46.16H293.988V45.08H300.308C300.168 49.64 299.548 54.36 298.588 57.9H304.668C305.668 54.4 306.228 49.66 306.348 46.16H301.008V45.08H307.748C307.608 49.64 306.988 54.36 306.028 57.9H309.788V58.98ZM326.047 61.64H324.707V43.86H326.047V61.64ZM323.767 55.56V56.66C321.527 57.1 318.027 57.32 315.327 57.32H312.167V50.5H319.347V46.02H312.167V44.94H320.707V51.56H313.487V56.22H315.327C318.027 56.22 321.367 56.02 323.767 55.56ZM346.585 59.18H329.105V58.1H335.665V51.24H337.065V58.1H346.585V59.18ZM343.005 55.44H341.625C342.365 52.52 342.825 49.02 342.905 46.26H331.245V45.18H344.325C344.225 48.72 343.685 52.46 343.005 55.44ZM360.403 56.12V57.16C358.543 57.56 356.283 57.68 353.643 57.68H347.663V56.6H353.083V53.08C350.503 52.84 348.703 50.94 348.703 48.72C348.703 46.34 350.783 44.36 353.643 44.36C356.503 44.36 358.563 46.34 358.563 48.72C358.563 50.88 356.863 52.74 354.403 53.06V56.6C356.623 56.58 358.723 56.44 360.403 56.12ZM357.243 48.72C357.243 46.92 355.883 45.44 353.643 45.44C351.383 45.44 350.063 46.92 350.063 48.72C350.063 50.52 351.383 52.02 353.643 52.02C355.883 52.02 357.243 50.52 357.243 48.72ZM362.503 61.64H361.163V43.86H362.503V51.08H365.343V52.22H362.503V61.64ZM369.282 59.66C369.282 60.3 368.782 60.78 368.142 60.78C367.462 60.78 366.962 60.3 366.962 59.66C366.962 59.06 367.462 58.54 368.142 58.54C368.782 58.54 369.282 59.06 369.282 59.66Z" fill="white"/>
</svg>
