<svg width="237" height="76" viewBox="0 0 237 76" fill="none" xmlns="http://www.w3.org/2000/svg">
<rect x="0.5" y="0.5" width="236" height="75" fill="#00B7AB"/>
<rect x="0.5" y="0.5" width="236" height="75" stroke="black"/>
<path d="M20.64 28.62L19.46 27.98C22.4 24.64 23.66 20.48 23.86 16.12H20.32V15.04H25.24C25.14 20.76 23.66 24.98 20.64 28.62ZM14.94 27.54L13.76 26.92C16.76 23.84 18.06 19.84 18.28 16.12H14.7V15.04H19.7C19.56 20.16 17.96 24.26 14.94 27.54ZM28.9 31.64H27.62V13.86H28.9V20.8H31.48V21.94H28.9V31.64ZM44.1584 26.82L43.3584 27.78C40.9184 26.6 38.8384 24.6 38.0784 22.42C37.3184 24.74 35.1984 26.9 32.7384 28.24L31.8584 27.38C34.6384 25.98 37.3184 23.22 37.3184 19.3V18.7H32.8384V17.62H43.0984V18.7H38.7384V19.3C38.7384 23.12 41.4584 25.6 44.1584 26.82ZM47.6384 31.64H46.2984V13.86H47.6384V31.64ZM40.8584 15.46H35.0784V14.38H40.8584V15.46ZM65.7169 31.44H53.6369V27.14H63.9569V25.04H53.6369V24H65.2969V28.16H54.9569V30.38H65.7169V31.44ZM65.3369 23.04H64.0169V13.86H65.3369V17.38H68.0569V18.48H65.3369V23.04ZM59.9969 22H51.5569V14.48H52.8969V17.1H58.6569V14.48H59.9969V22ZM58.6569 20.96V18.14H52.8969V20.96H58.6569ZM23.04 58.8L23.24 59.8C22.22 60.12 20.98 60.24 19.8 60.24C15.98 60.24 14.16 57.68 14.14 54.34C14.1 51.24 15.98 48.6 19.2 48.62C22.5 48.62 23.98 50.76 23.98 53.94V54.66H15.42C15.5 57.16 16.92 59.26 19.84 59.24C20.86 59.24 22.02 59.12 23.04 58.8ZM15.38 53.68H22.72C22.72 53.64 22.76 53.46 22.72 53.42C22.7 51.04 21.38 49.62 19.2 49.62C16.72 49.62 15.54 51.6 15.38 53.68ZM28.5397 59.66C28.5397 60.3 28.0397 60.78 27.3997 60.78C26.7197 60.78 26.2197 60.3 26.2197 59.66C26.2197 59.06 26.7197 58.54 27.3997 58.54C28.0397 58.54 28.5397 59.06 28.5397 59.66ZM40.028 59.42V57.92H39.908C39.128 59.14 37.688 59.86 36.128 59.86C33.068 59.88 31.328 57.5 31.328 54.24C31.328 51 33.108 48.62 36.208 48.64C37.788 48.64 39.088 49.3 39.888 50.48H39.988V48.9H41.268V59.6C41.268 62.68 39.148 64.24 36.108 64.24C35.048 64.24 33.668 64.08 32.648 63.74L32.928 62.72C33.928 63.1 35.048 63.24 36.108 63.24C38.728 63.24 40.028 61.82 40.028 59.42ZM39.968 55.22V53.12C39.968 51.16 38.228 49.64 36.348 49.64C33.968 49.64 32.588 51.6 32.588 54.24C32.588 56.88 33.848 58.86 36.268 58.86C38.208 58.86 39.968 57.32 39.968 55.22ZM46.9186 59.66C46.9186 60.3 46.4186 60.78 45.7786 60.78C45.0986 60.78 44.5986 60.3 44.5986 59.66C44.5986 59.06 45.0986 58.54 45.7786 58.54C46.4186 58.54 46.9186 59.06 46.9186 59.66ZM72.1119 53.72H54.6719V52.64H62.9719V48.64H64.3519V52.64H72.1119V53.72ZM71.1519 60.7L70.4319 61.68C67.3119 61.1 64.4719 59.5 63.3719 57.46C62.2919 59.5 59.4519 61.1 56.3319 61.68L55.5719 60.7C59.0919 60.1 62.6319 58.02 62.6319 55.48V54.92H64.1119V55.48C64.1119 58.02 67.6919 60.1 71.1519 60.7ZM69.3319 51.2H68.0319C68.4519 49.56 68.7119 47.16 68.7719 45.52H62.9519V44.44H70.1119C70.0919 46.72 69.7919 49.48 69.3319 51.2ZM60.6919 51.16H59.2919C60.1919 49.36 60.7319 47.12 60.8119 45.52H56.2919V44.44H62.2319C62.1119 47 61.4919 49.44 60.6919 51.16ZM88.4903 61.44H76.4103V57.14H86.7303V55.04H76.4103V54H88.0703V58.16H77.7303V60.38H88.4903V61.44ZM88.1103 53.04H86.7903V43.86H88.1103V47.38H90.8303V48.48H88.1103V53.04ZM82.7703 52H74.3303V44.48H75.6703V47.1H81.4303V44.48H82.7703V52ZM81.4303 50.96V48.14H75.6703V50.96H81.4303ZM112.474 49.7H99.5337V44.44H112.134V45.48H100.874V48.64H112.474V49.7ZM112.494 61.44H99.5138V57.36H110.714V55.48H99.5138V54.44H112.054V58.38H100.854V60.38H112.494V61.44ZM114.534 52.52H97.0938V51.46H114.534V52.52ZM127.812 56.58L126.992 57.54C124.712 56.24 122.432 53.96 121.672 51.76C120.972 54.22 118.872 56.52 116.292 58.06L115.392 57.18C118.312 55.54 120.912 52.48 120.912 48.34V46.12H116.432V45.04H126.692V46.12H122.332V48.34C122.332 52.4 125.252 55.26 127.812 56.58ZM131.232 61.64H129.892V43.86H131.232V61.64ZM148.651 61.64H147.331V43.86H148.651V50.2H151.651V51.34H148.651V61.64ZM143.611 56.92H135.071V45.04H143.611V56.92ZM142.271 55.84V46.12H136.431V55.84H142.271ZM155.649 59.66C155.649 60.3 155.149 60.78 154.509 60.78C153.829 60.78 153.329 60.3 153.329 59.66C153.329 59.06 153.829 58.54 154.509 58.54C155.149 58.54 155.649 59.06 155.649 59.66ZM173.742 48.84C173.742 51.4 171.742 53.44 168.882 53.44C165.982 53.44 164.022 51.4 164.022 48.84C164.022 46.24 165.982 44.18 168.882 44.18C171.742 44.18 173.742 46.24 173.742 48.84ZM168.882 52.36C171.062 52.36 172.382 50.8 172.382 48.82C172.382 46.82 171.062 45.26 168.882 45.26C166.662 45.26 165.362 46.82 165.362 48.82C165.362 50.8 166.662 52.36 168.882 52.36ZM179.182 61.36H166.802V55.44H168.142V60.28H179.182V61.36ZM178.442 57.06H177.122V43.86H178.442V48.34H181.162V49.46H178.442V57.06ZM199.261 59.18H181.781V58.1H189.821V54H184.241V44.74H185.581V48H195.421V44.74H196.761V54H191.201V58.1H199.261V59.18ZM195.421 52.92V49.06H185.581V52.92H195.421ZM215.939 61.64H214.599V54.54H209.879C209.119 56.7 207.619 57.88 205.839 57.88C203.239 57.88 201.299 55.38 201.299 51.1C201.299 46.84 203.239 44.34 205.839 44.34C207.599 44.34 209.059 45.48 209.819 47.54H214.599V43.86H215.939V61.64ZM205.839 56.8C207.699 56.8 209.059 54.78 209.059 51.1C209.059 47.44 207.699 45.42 205.839 45.42C203.979 45.42 202.639 47.44 202.639 51.1C202.639 54.78 203.979 56.8 205.839 56.8ZM214.599 53.46V48.62H210.119C210.299 49.36 210.399 50.2 210.399 51.1C210.399 51.96 210.319 52.76 210.179 53.46H214.599ZM221.958 59.66C221.958 60.3 221.458 60.78 220.818 60.78C220.138 60.78 219.638 60.3 219.638 59.66C219.638 59.06 220.138 58.54 220.818 58.54C221.458 58.54 221.958 59.06 221.958 59.66Z" fill="white"/>
</svg>
