<svg width="91" height="121" viewBox="0 0 91 121" fill="none" xmlns="http://www.w3.org/2000/svg">
<rect x="0.5" y="0.5" width="90" height="120" fill="#FF0561"/>
<rect x="0.5" y="0.5" width="90" height="120" stroke="black"/>
<path d="M50.6471 90.06C51.6671 84.36 52.8671 78.3 54.1871 72.06C45.8471 77.04 31.6871 83.4 14.6471 86.22L16.9871 77.4C21.1871 76.56 25.2071 75.66 28.9271 74.76C29.7071 71.88 30.6071 68.46 31.3271 65.46C24.0671 63.96 20.9471 57.72 23.1071 49.92C25.4471 41.58 32.1071 34.56 42.2471 34.02C53.1671 33.48 59.3471 39.6 57.2471 48.6C55.3271 56.52 49.9871 62.28 42.5471 64.62C42.0071 66.78 41.3471 69.24 40.8071 71.46C46.2071 69.72 51.1871 67.74 55.6871 65.28C58.2071 54.12 61.0871 42.78 63.9671 32.76L75.0671 31.74C72.7271 39.78 70.6271 48.24 68.8271 56.64C71.1071 56.28 73.3871 55.86 75.7271 55.44L73.8671 63.12L67.2671 64.38C65.5271 73.2 64.0271 81.84 62.7671 89.64L50.6471 90.06ZM33.1871 49.68C31.8671 54.78 33.5471 57.66 37.2071 57.6C40.8671 57.54 44.9471 54.48 46.3271 49.02C47.4671 44.52 44.7671 41.88 41.1071 42.12C37.7471 42.36 34.3871 45.12 33.1871 49.68Z" fill="white"/>
</svg>
