<svg width="361" height="151" viewBox="0 0 361 151" fill="none" xmlns="http://www.w3.org/2000/svg">
<rect x="0.5" y="30.5" width="90" height="120" fill="#FF0561"/>
<rect x="0.5" y="30.5" width="90" height="120" stroke="black"/>
<path d="M19.2671 113.46C28.9871 100.02 38.7071 83.52 43.3271 72.78C39.2471 73.14 28.9871 74.16 21.8471 74.82L24.1871 67.2C31.3871 66.54 49.6271 64.92 57.1871 64.38C49.5071 85.5 40.0271 101.52 32.5271 112.8L19.2671 113.46ZM49.4471 120.06C52.6271 102.12 57.6671 80.4 62.7671 62.76L73.8671 61.74C71.4671 69.9 69.3671 78.54 67.5671 87.06C70.2671 86.76 72.9671 86.4 75.7271 86.04L73.8671 93.72C71.2871 94.08 68.5871 94.5 65.9471 94.86C64.2671 103.5 62.8271 111.96 61.5671 119.64L49.4471 120.06Z" fill="white"/>
<rect x="90.5" y="0.5" width="90" height="120" fill="#FF0561"/>
<rect x="90.5" y="0.5" width="90" height="120" stroke="black"/>
<path d="M138.368 91.38C126.848 91.38 114.788 88.5 112.568 74.94L124.028 73.2C125.588 83.7 133.268 84.96 140.228 84.96C146.048 84.96 153.968 84.3 158.948 82.5L153.308 89.52C149.768 90.9 144.428 91.38 138.368 91.38ZM108.128 72.84L111.068 64.86C112.988 64.74 120.248 64.38 128.708 63.96L130.208 59.94C123.308 60.3 117.008 60.66 113.528 60.84C116.108 54.12 121.268 40.26 123.488 34.44L134.288 33.72L131.528 40.68C137.528 40.38 145.748 39.96 152.588 39.66L155.048 33.12L165.908 32.64C163.808 37.74 160.148 46.56 158.168 51.18C159.308 51.18 160.268 51.12 161.048 51.06L158.108 58.56C155.288 58.68 149.228 58.98 142.388 59.34L141.008 63.36C150.908 62.88 160.088 62.46 162.728 62.34L160.268 69.84C155.288 70.08 114.968 72.42 108.128 72.84ZM126.788 52.74C129.068 52.68 139.088 52.2 147.968 51.72C148.508 50.4 149.108 48.84 149.768 47.1C143.168 47.52 135.248 47.94 128.468 48.36L126.788 52.74Z" fill="white"/>
<rect x="180.5" y="0.5" width="90" height="120" fill="#FF0561"/>
<rect x="180.5" y="0.5" width="90" height="120" stroke="black"/>
<path d="M234.982 63.66C235.882 60.24 237.202 55.2 238.642 50.04L229.942 50.82L231.982 43.68L240.562 42.96C241.642 39 242.662 35.4 243.382 32.88L255.382 31.92C252.862 39.84 247.642 55.08 245.542 63.18L234.982 63.66ZM195.802 65.34C203.002 58.62 212.662 49.44 218.962 41.34C213.202 41.88 206.482 42.36 202.222 42.78L204.802 35.1C213.082 34.56 228.082 33.54 236.362 33.06C233.482 37.56 228.502 43.62 223.462 49.38L229.102 48.18C229.522 53.22 230.902 58.32 232.882 62.64L221.062 63.72C220.342 61.02 219.802 57.3 219.622 53.7C215.542 58.14 211.702 62.04 209.062 64.44L195.802 65.34ZM200.962 74.58L203.602 67.02C212.362 66.48 234.442 65.16 245.302 64.68C242.242 75.96 239.842 84.6 238.162 90.6L227.002 90.96C228.862 85.02 230.962 77.52 232.342 72.78C225.682 73.08 211.162 74.04 200.962 74.58Z" fill="white"/>
<rect x="270.5" y="30.5" width="90" height="120" fill="#FF0561"/>
<rect x="270.5" y="30.5" width="90" height="120" stroke="black"/>
<path d="M320.662 120.06C323.842 102.12 328.882 80.4 333.982 62.76L345.082 61.74C339.502 80.76 335.602 102.24 332.782 119.64L320.662 120.06ZM290.902 84.54C294.022 74.52 300.502 66.3 311.242 66.3C321.022 66.3 326.422 76.08 322.582 90C319.102 102.84 311.662 109.5 301.462 109.5C290.722 109.5 286.522 98.4 290.902 84.54ZM300.682 86.52C298.042 96.12 299.902 101.58 303.022 101.58C306.262 101.58 310.102 97.44 312.442 88.2C314.542 79.92 312.502 74.1 309.622 74.1C306.322 74.1 302.722 79.02 300.682 86.52Z" fill="white"/>
</svg>
