<svg width="181" height="151" viewBox="0 0 181 151" fill="none" xmlns="http://www.w3.org/2000/svg">
<rect x="0.5" y="30.5" width="90" height="120" fill="#FF0561"/>
<rect x="0.5" y="30.5" width="90" height="120" stroke="black"/>
<path d="M43.9283 83.88C30.1283 84.3 24.5483 79.86 27.0683 72.66C28.9883 67.2 38.5283 62.82 51.8483 62.4C66.3683 61.98 73.2083 65.82 71.6483 72C69.9083 79.02 58.6283 83.46 43.9283 83.88ZM15.3683 122.64C18.0083 115.2 23.0483 101.82 25.4483 96.24L36.5483 95.52C35.7683 97.32 34.8083 99.66 33.7883 102.12C39.6083 101.7 47.5283 101.16 54.2483 100.62C54.8483 98.4 55.3883 96.36 55.8083 94.92L66.6683 94.44C65.4683 98.64 63.2483 105.48 61.6883 110.34L64.7483 109.98L65.0483 116.58C55.5083 117.72 41.3483 119.46 29.0483 120.9L28.3883 115.44C27.4883 117.72 26.7083 119.76 26.1683 121.32L15.3683 122.64ZM18.1283 94.44L21.0683 87.06C26.1083 86.76 66.6083 84.84 72.7283 84.54L70.2683 91.44C65.2883 91.68 24.9683 94.02 18.1283 94.44ZM29.1083 113.64C36.3683 112.92 44.1083 112.14 51.3083 111.36C51.6683 110.1 52.0283 108.66 52.4483 107.22L30.9683 108.96C30.3083 110.52 29.7083 112.14 29.1083 113.64ZM36.8483 73.26C36.2483 75.3 39.0683 76.5 46.2083 76.2C52.6283 75.96 60.0083 74.94 60.7283 72.24C61.2083 70.44 57.6683 69.66 50.1083 70.02C43.8683 70.26 37.5083 71.16 36.8483 73.26Z" fill="white"/>
<rect x="90.5" y="0.5" width="90" height="120" fill="#FF0561"/>
<rect x="90.5" y="0.5" width="90" height="120" stroke="black"/>
<path d="M107.287 83.28C109.687 73.92 114.607 56.7 118.207 44.22C115.927 44.4 114.067 44.58 112.747 44.64L115.207 36.78C122.767 36.24 142.207 34.74 147.607 34.44L145.027 41.82C142.687 42 136.387 42.6 129.787 43.2C127.207 52.32 123.727 65.1 122.347 70.32C129.187 68.7 136.927 65.04 145.747 59.7C147.967 50.34 150.367 41.1 152.767 32.76L163.867 31.74C161.467 39.9 159.367 48.54 157.567 57.06C160.267 56.76 162.967 56.4 165.727 56.04L163.867 63.72C161.287 64.08 158.587 64.5 155.947 64.86C154.267 73.5 152.827 81.96 151.567 89.64L139.447 90.06C140.767 82.74 142.387 74.76 144.187 66.66C135.967 73.2 120.607 81.66 107.287 83.28Z" fill="white"/>
</svg>
