<svg width="181" height="151" viewBox="0 0 181 151" fill="none" xmlns="http://www.w3.org/2000/svg">
<rect x="0.5" y="0.5" width="90" height="120" fill="#FF0561"/>
<rect x="0.5" y="0.5" width="90" height="120" stroke="black"/>
<path d="M18.1883 73.86C28.8083 65.7 39.4883 55.14 46.9883 46.56C39.3083 47.16 30.0083 48 25.7483 48.36L27.9683 39.78C30.0683 39.66 34.6283 39.3 40.0883 38.88C40.8083 36.54 41.6483 33.84 42.0683 32.34L54.0683 31.56L51.7883 38.04C56.6483 37.74 61.5683 37.38 65.8283 37.14C62.9483 42.18 58.8083 47.52 54.3083 52.62L59.6483 51.9C60.9083 58.08 64.4483 64.44 68.8883 69.72L55.2683 70.86C52.4483 67.44 50.2883 62.76 49.1483 58.2C43.9883 63.6 38.7083 68.58 34.3883 72.42L18.1883 73.86ZM15.4283 89.16L17.4683 80.76C22.5083 80.28 63.0083 76.98 69.1283 76.5L67.2683 84.06C62.2883 84.48 22.2083 88.44 15.4283 89.16Z" fill="white"/>
<rect x="90.5" y="30.5" width="90" height="120" fill="#FF0561"/>
<rect x="90.5" y="30.5" width="90" height="120" stroke="black"/>
<path d="M133.928 85.68C120.128 86.1 114.308 81.24 117.068 73.56C119.168 67.68 128.528 62.82 141.848 62.4C156.368 61.98 163.328 66.18 161.648 72.9C159.788 80.4 148.628 85.26 133.928 85.68ZM106.928 122.04C108.428 117.66 110.348 112.38 111.968 108.06L109.268 108.24L112.028 100.26C122.048 99.66 144.488 98.28 156.908 97.56C155.828 100.98 154.148 105.78 152.768 109.68C153.668 109.62 154.508 109.5 155.288 109.44L153.308 116.46C144.488 117.66 119.948 120.6 106.928 122.04ZM108.128 97.44L111.068 89.46C116.108 89.16 156.608 87.24 162.728 86.94L160.268 94.44C155.288 94.68 114.968 97.02 108.128 97.44ZM120.308 112.98C123.488 112.62 132.968 111.66 141.848 110.82C142.448 108.9 142.988 107.1 143.288 105.96C139.208 106.2 130.268 106.8 122.348 107.34L120.308 112.98ZM126.788 74.46C126.068 76.8 129.068 78.3 136.208 78C142.628 77.76 149.888 76.44 150.728 73.14C151.328 70.74 147.668 69.66 140.108 70.02C133.868 70.26 127.688 71.52 126.788 74.46Z" fill="white"/>
</svg>
