<svg width="361" height="151" viewBox="0 0 361 151" fill="none" xmlns="http://www.w3.org/2000/svg">
<rect x="0.5" y="0.5" width="90" height="120" fill="#FF0561"/>
<rect x="0.5" y="0.5" width="90" height="120" stroke="black"/>
<path d="M51.1871 74.58C54.0071 64.08 59.8271 42.54 62.7671 32.88L74.7671 31.92C73.3271 36.6 71.2271 43.2 69.0071 50.04L75.8471 49.26L73.3271 56.4L66.7871 57.18C64.7471 63.66 62.8871 69.84 61.7471 74.34L51.1871 74.58ZM18.8471 69.12C21.7271 57.54 25.4471 42.72 28.1471 33.78L39.1871 33.06C38.8871 34.02 38.5271 34.98 38.2271 36C43.4471 35.46 50.4671 34.92 58.2071 34.44L50.5271 56.7C51.3671 56.52 52.2671 56.34 53.0471 56.16L53.5871 62.52C47.7671 64.02 38.9471 65.82 31.4471 66.6L31.0871 61.02C30.4871 63.36 29.9471 65.52 29.5271 67.38L18.8471 69.12ZM23.1671 71.94L34.6271 70.2C36.1871 83.94 43.8671 85.56 50.2271 85.56C56.0471 85.56 63.9671 84.9 68.9471 83.1L63.3071 89.52C59.7671 90.9 54.4271 91.38 48.3671 91.38C37.4471 91.38 25.3871 88.02 23.1671 71.94ZM31.5071 59.34C34.3871 59.1 37.4471 58.8 40.3871 58.38C42.3071 52.56 44.6471 44.46 45.3071 41.88C43.0871 42.06 39.5471 42.36 36.1871 42.6C34.5071 48.18 32.8871 54.12 31.5071 59.34Z" fill="white"/>
<rect x="90.5" y="0.5" width="90" height="120" fill="#FF0561"/>
<rect x="90.5" y="0.5" width="90" height="120" stroke="black"/>
<path d="M144.487 62.58L146.647 54.78C139.687 58.86 129.547 61.74 110.887 63.78C113.107 56.88 117.787 43.2 120.667 35.28L132.607 34.32C130.207 40.8 126.547 50.94 125.287 55.02C131.947 54.42 139.927 52.92 148.147 49.2C149.887 43.02 151.627 36.66 152.767 32.88L164.767 31.92C163.747 35.16 162.187 39.66 160.627 44.34L167.407 43.56L164.887 50.7L158.227 51.48C156.967 55.44 155.827 59.16 155.047 61.98L144.487 62.58ZM103.087 90.48C110.827 82.8 118.147 73.32 122.467 65.64L132.727 65.04C131.467 67.68 129.967 70.44 128.287 73.14C129.967 75.12 132.007 77.04 134.287 78.78C137.947 73.98 141.247 69.06 143.767 64.38L154.027 63.78C152.587 66.84 150.787 70.02 148.807 73.14C152.047 77.7 156.367 82.56 161.287 86.58L149.767 87.42C147.847 85.56 145.747 83.22 143.827 80.52C141.547 83.7 139.327 86.58 137.347 88.92L125.047 89.76C126.367 88.32 127.747 86.76 129.007 85.26C127.147 83.82 125.287 82.02 123.607 80.1C121.027 83.7 118.327 87.06 115.987 89.64L103.087 90.48Z" fill="white"/>
<rect x="180.5" y="0.5" width="90" height="120" fill="#FF0561"/>
<rect x="180.5" y="0.5" width="90" height="120" stroke="black"/>
<path d="M223.928 53.88C210.128 54.3 204.548 49.86 207.068 42.66C208.988 37.2 218.528 32.82 231.848 32.4C246.368 31.98 253.208 35.82 251.648 42C249.908 49.02 238.628 53.46 223.928 53.88ZM198.128 64.44L201.068 57.06C206.108 56.76 246.608 54.84 252.728 54.54L250.268 61.44C245.288 61.68 204.968 64.02 198.128 64.44ZM199.928 83.04L201.968 76.08C209.528 75.6 228.308 74.46 234.248 73.98L234.788 71.58C228.788 71.94 211.688 73.02 202.868 73.62L204.848 66.54C213.608 66 237.728 64.62 247.628 64.08C246.428 68.1 244.388 76.5 243.488 79.8L215.048 81.9C215.048 84.12 217.028 85.02 223.028 84.96C230.228 84.9 241.868 83.22 253.268 78L250.268 84.36C241.508 89.1 231.368 91.14 223.148 91.38C206.828 91.86 202.748 88.8 203.348 82.74C202.028 82.86 200.888 82.98 199.928 83.04ZM216.848 43.26C216.248 45.3 219.068 46.5 226.208 46.2C232.628 45.96 240.008 44.94 240.728 42.24C241.208 40.44 237.668 39.66 230.108 40.02C223.868 40.26 217.508 41.16 216.848 43.26Z" fill="white"/>
<rect x="270.5" y="30.5" width="90" height="120" fill="#FF0561"/>
<rect x="270.5" y="30.5" width="90" height="120" stroke="black"/>
<path d="M313.746 120.06C314.766 114.6 316.026 108.78 317.346 102.84C312.426 107.04 304.506 111.78 297.486 113.28L299.226 106.74C294.246 109.86 288.486 112.56 283.986 113.28C286.506 103.38 291.426 85.8 294.786 74.64C292.866 74.82 291.186 74.94 290.046 75.06L292.506 67.2C300.126 66.54 319.746 65.1 325.206 64.74L322.926 72.12C321.906 72.24 320.106 72.36 317.826 72.6C315.246 81.96 311.586 95.7 310.146 101.22C312.786 100.08 315.786 98.16 319.146 95.28C321.786 84.06 324.846 72.78 327.966 62.76L337.266 61.74C334.866 69.24 332.706 77.1 330.846 84.96C331.806 84.84 332.766 84.66 333.726 84.48C335.526 76.92 337.446 69.54 339.366 62.76L348.666 61.74C343.086 80.76 339.186 102.24 336.366 119.64L326.346 120.06C327.846 111.36 329.766 101.82 331.926 92.22L329.046 92.76C327.006 102.18 325.266 111.36 323.766 119.64L313.746 120.06ZM296.646 101.22C298.146 100.68 299.706 99.96 301.386 98.94C303.786 90.36 306.546 80.7 308.646 73.38C307.086 73.5 305.526 73.68 303.966 73.8C301.806 81.54 298.086 95.58 296.646 101.22Z" fill="white"/>
</svg>
