<svg width="271" height="151" viewBox="0 0 271 151" fill="none" xmlns="http://www.w3.org/2000/svg">
<rect x="0.5" y="30.5" width="90" height="120" fill="#FF0561"/>
<rect x="0.5" y="30.5" width="90" height="120" stroke="black"/>
<path d="M54.9823 93.66C57.0223 85.92 61.2823 70.02 63.3823 62.88L75.3823 61.92C72.8623 69.84 67.6423 85.08 65.5423 93.18L54.9823 93.66ZM15.8023 95.34C23.0023 88.62 32.6623 79.44 38.9623 71.34C33.2023 71.88 26.4823 72.36 22.2223 72.78L24.8023 65.1C33.0823 64.56 48.0823 63.54 56.3623 63.06C53.4223 67.56 48.4423 73.74 43.3423 79.56L49.7023 78.18C50.1223 83.22 51.5023 88.32 53.4823 92.64L41.6623 93.72C40.8823 90.84 40.3423 86.88 40.1623 83.04C35.9023 87.72 31.8223 91.92 29.0623 94.44L15.8023 95.34ZM20.9623 104.58L23.6023 97.02C32.3623 96.48 54.4423 95.16 65.3023 94.68C62.2423 105.96 59.8423 114.6 58.1623 120.6L47.0023 120.96C48.8623 115.02 50.9623 107.52 52.3423 102.78C45.6823 103.08 31.1623 104.04 20.9623 104.58Z" fill="white"/>
<rect x="90.5" y="0.5" width="90" height="120" fill="#FF0561"/>
<rect x="90.5" y="0.5" width="90" height="120" stroke="black"/>
<path d="M140.662 90.06C143.842 72.12 148.882 50.4 153.982 32.76L165.082 31.74C159.502 50.76 155.602 72.24 152.782 89.64L140.662 90.06ZM110.902 54.54C114.022 44.52 120.502 36.3 131.242 36.3C141.022 36.3 146.422 46.08 142.582 60C139.102 72.84 131.662 79.5 121.462 79.5C110.722 79.5 106.522 68.4 110.902 54.54ZM120.682 56.52C118.042 66.12 119.902 71.58 123.022 71.58C126.262 71.58 130.102 67.44 132.442 58.2C134.542 49.92 132.502 44.1 129.622 44.1C126.322 44.1 122.722 49.02 120.682 56.52Z" fill="white"/>
<rect x="180.5" y="0.5" width="90" height="120" fill="#FF0561"/>
<rect x="180.5" y="0.5" width="90" height="120" stroke="black"/>
<path d="M220.762 81.72C219.742 77.58 219.082 71.76 218.782 66.18C214.822 72.66 210.982 78.24 207.562 82.92L194.302 83.82C204.742 70.8 215.182 54.9 220.642 44.46C216.682 44.82 207.142 45.6 202.222 45.96L204.442 37.68C210.862 37.26 227.062 36.18 234.982 35.82C230.782 45.06 226.462 53.28 222.202 60.6L228.262 59.28C228.682 66.72 230.242 74.28 232.402 80.7C235.522 64.92 239.722 47.4 243.982 32.76L255.082 31.74C249.502 50.76 245.602 72.24 242.782 89.64L230.662 90.06C231.202 87.12 231.742 84.12 232.342 81L220.762 81.72Z" fill="white"/>
</svg>
