<svg width="361" height="151" viewBox="0 0 361 151" fill="none" xmlns="http://www.w3.org/2000/svg">
<rect x="0.5" y="30.5" width="90" height="120" fill="#FF0561"/>
<rect x="0.5" y="30.5" width="90" height="120" stroke="black"/>
<path d="M36.0071 82.68C40.2671 82.32 43.4471 79.98 44.3471 76.32C45.3071 72.3 43.3271 70.62 38.9471 70.74C34.5671 70.86 31.5671 73.92 30.6671 76.98C29.5871 80.94 32.2271 82.92 36.0071 82.68ZM14.5271 123.24C17.3471 114.3 21.2471 102.9 23.5271 96.24L33.7871 95.52C31.8071 100.44 28.7471 109.2 27.6071 112.08C31.0871 111.24 36.0071 109.44 39.1871 107.82L39.0071 113.46C34.3271 116.7 25.7471 120.42 14.5271 123.24ZM20.7071 77.46C22.8071 69.18 31.4471 62.94 41.3471 62.76C51.0671 62.64 57.3071 67.44 55.5071 75.66C53.5271 84.66 44.9471 90.12 34.2671 90.84C23.8271 91.5 18.5471 85.98 20.7071 77.46ZM40.0271 111.42C41.4071 106.98 46.3271 103.08 53.4671 102.66C61.6271 102.36 65.9471 105.78 64.5671 111.6C63.3071 117.42 56.9471 121.26 49.4471 121.5C41.1071 121.8 38.1071 117.12 40.0271 111.42ZM40.6871 102.66L42.3071 96.12L51.8471 95.28C52.3871 93.6 52.9271 91.92 53.2871 90.9L62.2271 90.18L60.7271 94.44C64.9271 94.08 68.7071 93.78 70.6871 93.6L68.9471 100.26C64.9271 100.68 47.2271 102.12 40.6871 102.66ZM47.7671 111.9C47.1071 114.12 48.3071 115.26 50.8871 115.2C53.4071 115.14 55.8071 113.58 56.3471 111.42C56.8271 109.44 55.0871 108.6 52.5071 108.9C50.2871 109.02 48.3671 110.16 47.7671 111.9ZM55.9871 89.58C57.9671 81.3 60.6071 71.04 62.7671 62.88L74.7671 61.92L71.5271 72.24L77.4671 71.64L75.5471 79.32L69.1271 80.04C68.2271 83.1 67.3271 86.04 66.6071 88.74L55.9871 89.58Z" fill="white"/>
<rect x="90.5" y="0.5" width="90" height="120" fill="#FF0561"/>
<rect x="90.5" y="0.5" width="90" height="120" stroke="black"/>
<path d="M144.367 63.18C146.407 55.56 150.667 39.9 152.767 32.88L164.767 31.92C163.747 35.16 162.187 39.66 160.627 44.34L167.407 43.56L164.887 50.7L158.287 51.48C156.907 55.68 155.707 59.58 154.927 62.58L144.367 63.18ZM103.087 90.48C110.827 82.98 118.147 73.74 122.467 66.24L132.727 65.64C131.527 68.16 130.027 70.74 128.407 73.26C130.087 75.3 132.187 77.16 134.407 78.9C138.007 74.22 141.307 69.48 143.767 64.98L154.027 64.38C152.587 67.26 150.847 70.32 148.927 73.26C152.167 77.82 156.427 82.62 161.287 86.58L149.767 87.42C147.847 85.56 145.807 83.22 143.887 80.64C141.607 83.76 139.327 86.58 137.347 88.92L125.047 89.76C126.427 88.32 127.747 86.82 129.067 85.26C127.207 83.88 125.347 82.08 123.727 80.16C121.087 83.76 118.327 87.06 115.987 89.64L103.087 90.48ZM110.707 48.66C112.867 40.08 121.747 33.54 131.947 33.36C141.307 33.24 147.367 38.28 145.507 46.86C143.527 56.22 134.647 61.92 123.667 62.64C113.647 63.3 108.487 57.6 110.707 48.66ZM120.667 48.18C119.467 52.62 121.987 54.72 125.407 54.48C129.967 54.12 133.447 51.48 134.347 47.52C135.367 43.08 133.507 41.22 129.547 41.34C124.867 41.46 121.627 44.76 120.667 48.18Z" fill="white"/>
<rect x="180.5" y="0.5" width="90" height="120" fill="#FF0561"/>
<rect x="180.5" y="0.5" width="90" height="120" stroke="black"/>
<path d="M223.928 53.88C210.128 54.3 204.548 49.86 207.068 42.66C208.988 37.2 218.528 32.82 231.848 32.4C246.368 31.98 253.208 35.82 251.648 42C249.908 49.02 238.628 53.46 223.928 53.88ZM198.128 64.44L201.068 57.06C206.108 56.76 246.608 54.84 252.728 54.54L250.268 61.44C245.288 61.68 204.968 64.02 198.128 64.44ZM199.928 83.04L201.968 76.08C209.528 75.6 228.308 74.46 234.248 73.98L234.788 71.58C228.788 71.94 211.688 73.02 202.868 73.62L204.848 66.54C213.608 66 237.728 64.62 247.628 64.08C246.428 68.1 244.388 76.5 243.488 79.8L215.048 81.9C215.048 84.12 217.028 85.02 223.028 84.96C230.228 84.9 241.868 83.22 253.268 78L250.268 84.36C241.508 89.1 231.368 91.14 223.148 91.38C206.828 91.86 202.748 88.8 203.348 82.74C202.028 82.86 200.888 82.98 199.928 83.04ZM216.848 43.26C216.248 45.3 219.068 46.5 226.208 46.2C232.628 45.96 240.008 44.94 240.728 42.24C241.208 40.44 237.668 39.66 230.108 40.02C223.868 40.26 217.508 41.16 216.848 43.26Z" fill="white"/>
<rect x="270.5" y="30.5" width="90" height="120" fill="#FF0561"/>
<rect x="270.5" y="30.5" width="90" height="120" stroke="black"/>
<path d="M300.967 113.46C308.167 100.02 315.307 83.52 318.727 72.78C317.287 72.96 314.647 73.38 311.827 73.74C306.607 90.3 300.727 103.26 295.927 112.8L284.167 113.46C291.367 100.02 298.507 83.52 301.927 72.78C299.527 73.14 293.587 74.16 289.447 74.82L291.787 67.2C296.767 66.54 309.307 64.92 314.587 64.38L314.047 66.3C320.107 65.58 327.547 64.74 331.387 64.38C325.567 85.5 318.427 101.52 312.727 112.8L300.967 113.46ZM321.247 120.06C324.427 102.12 329.467 80.4 334.567 62.76L345.067 61.74C342.667 69.9 340.567 78.54 338.767 87.06C341.467 86.76 344.167 86.4 346.927 86.04L345.067 93.72C342.487 94.08 339.787 94.5 337.147 94.86C335.467 103.5 334.027 111.96 332.767 119.64L321.247 120.06Z" fill="white"/>
</svg>
