<svg width="271" height="151" viewBox="0 0 271 151" fill="none" xmlns="http://www.w3.org/2000/svg">
<rect x="0.5" y="30.5" width="90" height="120" fill="#FF0561"/>
<rect x="0.5" y="30.5" width="90" height="120" stroke="black"/>
<path d="M43.9259 106.5L49.8059 81.54L39.4259 82.92L41.1659 76.98L51.2459 75.66C52.4459 70.56 53.5859 66 54.4259 62.7L65.2259 61.74C62.2859 72.96 56.2259 96.18 53.8859 106.02L43.9259 106.5ZM18.4859 102.18C20.1059 95.22 23.5859 81.96 25.9259 73.62L20.8859 74.28L22.6859 66.84C29.1659 66.18 42.9059 64.68 49.8059 63.96L47.8859 70.86L36.6659 72.24C34.8659 78.84 32.2859 88.32 31.3859 92.22C35.8859 90.9 41.6459 88.98 47.1659 85.38L46.5659 90.54C41.5259 94.32 32.8259 99.06 18.4859 102.18ZM24.3659 103.2L35.8259 100.5C37.5059 114 45.5459 115.56 52.9259 115.56C59.7059 115.56 69.4259 114.42 74.6459 113.1L69.0059 119.52C65.7659 120.48 58.5659 121.38 51.0659 121.38C39.1259 121.38 26.6459 118.2 24.3659 103.2ZM56.7659 106.38C59.1659 95.34 64.1459 72.84 66.6659 62.7L77.4659 61.74C74.7059 72.96 69.1859 96.06 66.7259 105.9L56.7659 106.38Z" fill="white"/>
<rect x="90.5" y="0.5" width="90" height="120" fill="#FF0561"/>
<rect x="90.5" y="0.5" width="90" height="120" stroke="black"/>
<path d="M130.762 81.72C129.742 77.58 129.082 71.76 128.782 66.18C124.822 72.66 120.982 78.24 117.562 82.92L104.302 83.82C114.742 70.8 125.182 54.9 130.642 44.46C126.682 44.82 117.142 45.6 112.222 45.96L114.442 37.68C120.862 37.26 137.062 36.18 144.982 35.82C140.782 45.06 136.462 53.28 132.202 60.6L138.262 59.28C138.682 66.72 140.242 74.28 142.402 80.7C145.522 64.92 149.722 47.4 153.982 32.76L165.082 31.74C159.502 50.76 155.602 72.24 152.782 89.64L140.662 90.06C141.202 87.12 141.742 84.12 142.342 81L130.762 81.72Z" fill="white"/>
<rect x="180.5" y="0.5" width="90" height="120" fill="#FF0561"/>
<rect x="180.5" y="0.5" width="90" height="120" stroke="black"/>
<path d="M228.368 91.38C216.848 91.38 204.788 88.32 202.568 73.74L214.028 72C215.588 83.58 223.268 84.96 230.228 84.96C236.048 84.96 243.968 84.3 248.948 82.5L243.308 89.52C239.768 90.9 234.428 91.38 228.368 91.38ZM199.508 65.64L202.448 57.66C205.568 57.48 222.368 56.64 236.168 55.98C237.668 51.18 239.768 44.4 240.548 41.64C235.688 41.88 216.428 42.96 207.308 43.5L210.128 35.76C218.348 35.28 241.328 34.02 253.448 33.48C251.048 40.38 247.448 50.1 244.928 55.56C249.308 55.38 252.668 55.2 254.108 55.14L251.648 62.64C249.788 62.7 243.008 63.12 234.848 63.6C233.348 67.86 230.708 75.6 229.868 78.06L217.388 78.78C218.588 75.72 221.348 67.86 222.728 64.26L199.508 65.64Z" fill="white"/>
</svg>
