<svg width="541" height="181" viewBox="0 0 541 181" fill="none" xmlns="http://www.w3.org/2000/svg">
<rect x="0.5" y="0.5" width="90" height="120" fill="#FF0561"/>
<rect x="0.5" y="0.5" width="90" height="120" stroke="black"/>
<path d="M56.4223 60.18C58.4623 51.72 61.1623 41.22 63.3823 32.88L75.3823 31.92C72.5623 40.86 69.3223 51.12 67.0423 59.34L56.4223 60.18ZM14.9023 62.34C24.2023 54.84 33.6223 41.34 38.6623 33.66L49.1623 33.06C47.1823 36.66 44.3023 41.34 41.1823 46.02L47.9023 44.58C48.5023 49.86 50.6023 55.14 53.4823 59.64L41.6623 60.72C40.0423 57.78 38.9023 53.76 38.4823 49.8C35.0623 54.6 31.4623 58.92 28.4623 61.44L14.9023 62.34ZM20.2423 81.84L22.2823 74.58C29.4823 74.16 46.8223 72.84 53.0623 72.24L54.0223 68.58C48.2623 69 33.3823 70.02 23.1823 70.92L25.1623 63.84C34.2823 63.18 57.3823 61.44 66.9823 60.78C65.7823 65.16 63.5023 74.16 62.6023 77.76L35.3623 80.34C35.3023 83.76 37.1623 85.02 42.7423 84.96C49.8223 84.9 61.2223 83.22 72.3823 78L69.3823 84.36C60.8023 89.1 50.9023 91.14 42.8623 91.38C27.4423 91.86 23.2423 88.38 23.6623 81.48C22.3423 81.66 21.1423 81.72 20.2423 81.84Z" fill="white"/>
<rect x="90.5" y="30.5" width="90" height="120" fill="#FF0561"/>
<rect x="90.5" y="30.5" width="90" height="120" stroke="black"/>
<path d="M111.068 93.06C116.108 92.76 156.608 90.84 162.728 90.54L160.268 98.04C155.288 98.28 114.968 100.62 108.128 101.04L111.068 93.06ZM112.568 103.74L124.028 102C125.588 113.58 133.268 114.96 140.228 114.96C146.048 114.96 153.968 114.3 158.948 112.5L153.308 119.52C149.768 120.9 144.428 121.38 138.368 121.38C126.848 121.38 114.788 118.32 112.568 103.74ZM117.068 75.06C119.408 68.52 128.528 62.82 141.848 62.4C156.368 61.98 163.568 66.78 161.648 74.4C159.548 82.74 148.628 88.26 133.928 88.68C120.128 89.1 114.008 83.64 117.068 75.06ZM126.788 75.96C125.828 79.32 129.068 81.3 136.208 81C142.628 80.76 149.648 78.9 150.728 74.64C151.568 71.28 147.668 69.66 140.108 70.02C133.868 70.26 127.988 72.12 126.788 75.96Z" fill="white"/>
<rect x="180.5" y="60.5" width="90" height="120" fill="#FF0561"/>
<rect x="180.5" y="60.5" width="90" height="120" stroke="black"/>
<path d="M235.807 120.18C237.847 111.72 240.547 101.22 242.767 92.88L254.767 91.92L251.527 102.24L257.467 101.64L255.547 109.32L249.127 110.04C248.167 113.34 247.207 116.46 246.427 119.34L235.807 120.18ZM198.847 123.12C201.727 113.28 205.447 100.68 208.147 93.18L219.187 92.46C218.827 93.42 218.407 94.38 218.047 95.4C223.267 94.92 230.347 94.32 238.207 93.84C236.047 98.94 232.807 106.26 230.827 110.64C231.607 110.46 232.327 110.34 233.047 110.16L233.587 116.52C227.767 118.02 218.947 119.82 211.447 120.6L211.147 115.86C210.487 117.9 209.947 119.76 209.527 121.38L198.847 123.12ZM199.627 141.84L201.667 134.58C208.867 134.16 226.207 132.84 232.447 132.24L233.407 128.58C227.647 129 212.767 130.02 202.567 130.92L204.547 123.84C213.667 123.18 236.767 121.44 246.367 120.78C245.167 125.16 242.887 134.16 241.987 137.76L214.747 140.34C214.687 143.76 216.547 145.02 222.127 144.96C229.207 144.9 240.607 143.22 251.767 138L248.767 144.36C240.187 149.1 230.287 151.14 222.247 151.38C206.827 151.86 202.627 148.38 203.047 141.48C201.727 141.66 200.527 141.72 199.627 141.84ZM211.927 113.34C214.807 113.1 217.807 112.74 220.747 112.32C222.547 108.24 224.707 102.96 225.307 101.28C222.967 101.46 219.127 101.76 215.647 102.06C214.327 105.84 213.067 109.74 211.927 113.34Z" fill="white"/>
<rect x="270.5" y="60.5" width="90" height="120" fill="#FF0561"/>
<rect x="270.5" y="60.5" width="90" height="120" stroke="black"/>
<path d="M320.662 150.06C323.842 132.12 328.882 110.4 333.982 92.76L345.082 91.74C339.502 110.76 335.602 132.24 332.782 149.64L320.662 150.06ZM290.902 114.54C294.022 104.52 300.502 96.3 311.242 96.3C321.022 96.3 326.422 106.08 322.582 120C319.102 132.84 311.662 139.5 301.462 139.5C290.722 139.5 286.522 128.4 290.902 114.54ZM300.682 116.52C298.042 126.12 299.902 131.58 303.022 131.58C306.262 131.58 310.102 127.44 312.442 118.2C314.542 109.92 312.502 104.1 309.622 104.1C306.322 104.1 302.722 109.02 300.682 116.52Z" fill="white"/>
<rect x="360.5" y="30.5" width="90" height="120" fill="#FF0561"/>
<rect x="360.5" y="30.5" width="90" height="120" stroke="black"/>
<path d="M398.346 120.06C400.266 110.1 402.726 98.94 405.546 87.96C402.246 88.5 398.766 89.1 394.866 89.82L397.206 81.78C400.686 81.24 404.106 80.7 407.586 80.1C409.206 74.1 410.886 68.22 412.566 62.76L423.366 61.74C417.246 80.76 412.986 102.24 409.866 119.64L398.346 120.06ZM374.886 113.28C377.286 103.92 382.266 86.58 385.866 74.1L380.346 74.64L382.806 66.78C388.806 66.24 404.046 64.74 408.366 64.44L406.026 71.82L396.606 72.9C393.966 82.44 390.246 96.18 388.746 101.76C392.166 100.68 396.066 98.88 400.566 95.82V101.04C395.886 105.36 384.546 112.14 374.886 113.28ZM413.646 120.06C416.766 102.12 421.686 80.4 426.666 62.76L437.466 61.74C431.886 80.76 427.986 102.24 425.166 119.64L413.646 120.06Z" fill="white"/>
<rect x="450.5" y="30.5" width="90" height="120" fill="#FF0561"/>
<rect x="450.5" y="30.5" width="90" height="120" stroke="black"/>
<path d="M500.662 120.06C503.842 102.12 508.882 80.4 513.982 62.76L525.082 61.74C519.502 80.76 515.602 102.24 512.782 119.64L500.662 120.06ZM470.902 84.54C474.022 74.52 480.502 66.3 491.242 66.3C501.022 66.3 506.422 76.08 502.582 90C499.102 102.84 491.662 109.5 481.462 109.5C470.722 109.5 466.522 98.4 470.902 84.54ZM480.682 86.52C478.042 96.12 479.902 101.58 483.022 101.58C486.262 101.58 490.102 97.44 492.442 88.2C494.542 79.92 492.502 74.1 489.622 74.1C486.322 74.1 482.722 79.02 480.682 86.52Z" fill="white"/>
</svg>
