<svg width="181" height="151" viewBox="0 0 181 151" fill="none" xmlns="http://www.w3.org/2000/svg">
<rect x="0.5" y="0.5" width="90" height="120" fill="#FF0561"/>
<rect x="0.5" y="0.5" width="90" height="120" stroke="black"/>
<path d="M37.1459 90.06C38.1659 84.72 39.3659 79.02 40.6859 73.26C34.0259 77.58 24.1859 82.26 15.4859 83.28C18.4259 71.7 25.1459 48.72 28.9259 35.58L39.0659 35.4C36.3059 45.24 31.2059 64.44 29.3459 71.7C33.1859 70.68 37.4459 68.94 42.2459 66.48C45.0059 54.9 48.1859 43.14 51.3659 32.76L62.1659 31.74C59.6459 39.48 57.4859 47.64 55.5659 55.74L60.9659 54.84C62.7659 47.16 64.7459 39.66 66.6659 32.76L77.4659 31.74C71.8859 50.76 67.9859 72.24 65.1659 89.64L53.6459 90.06C55.1459 81.48 57.0659 72 59.1659 62.58C57.3659 62.88 55.5659 63.24 53.7659 63.54C51.7859 72.66 50.1059 81.6 48.6659 89.64L37.1459 90.06Z" fill="white"/>
<rect x="90.5" y="30.5" width="90" height="120" fill="#FF0561"/>
<rect x="90.5" y="30.5" width="90" height="120" stroke="black"/>
<path d="M112.028 98.82C114.608 91.26 117.548 82.08 119.828 75.42C117.968 75.6 116.408 75.78 115.268 75.96L118.028 66.9C126.668 66.42 156.008 64.38 163.748 63.96L160.988 71.76C157.088 72 143.648 73.14 132.008 74.22C130.328 79.32 128.348 85.98 127.628 88.68C135.008 88.08 153.728 86.4 160.988 85.68L157.868 93.72C153.728 94.14 148.208 94.74 142.208 95.4L138.848 108.12C148.208 107.4 156.608 106.68 159.128 106.5L157.268 114.06C152.288 114.48 112.208 118.44 105.428 119.16L107.468 110.76C109.508 110.58 117.308 109.92 126.248 109.2C127.388 105.48 128.828 100.56 129.968 96.78C123.368 97.5 117.008 98.22 112.028 98.82Z" fill="white"/>
</svg>
