<svg width="271" height="151" viewBox="0 0 271 151" fill="none" xmlns="http://www.w3.org/2000/svg">
<rect x="0.5" y="0.5" width="90" height="120" fill="#FF0561"/>
<rect x="0.5" y="0.5" width="90" height="120" stroke="black"/>
<path d="M53.3471 67.26C55.6271 58.62 60.4271 40.86 62.7671 32.88L74.7671 31.92C73.4471 36.12 71.4671 42.12 69.4871 48.24L76.3271 47.46L73.8071 54.6L67.2071 55.38C65.8871 59.7 64.6871 63.72 63.9071 66.78L53.3471 67.26ZM19.3271 78.18L21.9671 70.62C30.7271 70.08 52.8071 68.76 63.6671 68.28C61.0271 78 58.9871 85.44 57.5471 90.6L46.3871 90.96C47.8871 86.22 49.6271 80.16 50.7071 76.38C44.0471 76.68 29.5271 77.64 19.3271 78.18ZM19.9871 46.26L22.6871 38.46C26.4071 38.22 30.9071 37.92 35.7071 37.56C36.6071 35.46 37.5671 33.3 38.1671 31.74L49.5671 30.96C48.8471 32.52 47.8871 34.68 46.8671 36.84C51.1271 36.54 55.3871 36.3 59.3471 36L56.8871 43.02C48.6671 43.8 30.4271 45.36 19.9871 46.26ZM20.2871 58.74C21.9071 51.42 29.4071 46.26 39.3671 45.72C47.7671 45.24 52.9871 48.36 51.7871 55.02C50.2271 63.42 41.6471 67.74 32.8271 68.4C23.5871 69.12 18.7871 65.58 20.2871 58.74ZM29.8871 57.9C29.4071 60.3 31.3871 61.5 34.3271 61.14C37.9871 60.78 40.5671 58.98 41.1671 55.98C41.5871 53.7 40.0871 52.62 36.7871 52.86C33.1271 53.1 30.3671 55.56 29.8871 57.9Z" fill="white"/>
<rect x="90.5" y="30.5" width="90" height="120" fill="#FF0561"/>
<rect x="90.5" y="30.5" width="90" height="120" stroke="black"/>
<path d="M107.468 110.76L112.688 110.28C115.208 103.32 119.408 91.2 121.508 85.56L131.708 84.78C129.188 91.56 125.288 103.26 123.188 109.44L125.348 109.26C127.868 102.24 132.008 90.24 134.108 84.66L144.308 83.88C141.848 90.66 137.948 102.18 135.848 108.36L159.128 106.5L157.268 114.06C152.288 114.48 112.208 118.44 105.428 119.16L107.468 110.76ZM116.468 75.66L119.228 67.5C129.608 66.72 152.888 65.22 165.908 64.38C161.708 75.54 155.948 90.84 151.208 103.14L139.808 104.1C144.308 91.74 148.568 79.44 150.788 73.14C139.208 73.92 122.468 75.18 116.468 75.66Z" fill="white"/>
<rect x="180.5" y="30.5" width="90" height="120" fill="#FF0561"/>
<rect x="180.5" y="30.5" width="90" height="120" stroke="black"/>
<path d="M220.746 120.06C222.426 111.24 224.586 101.46 226.986 91.74L223.686 92.1C220.146 103.38 214.266 109.5 207.126 109.5C198.486 109.5 195.546 99.54 199.326 85.62C202.506 73.98 207.966 66.3 216.366 66.3C222.966 66.3 227.106 73.02 225.486 84.3L228.966 83.94C230.886 76.62 232.926 69.36 234.966 62.76L245.166 61.74C239.046 80.76 234.786 102.24 231.666 119.64L220.746 120.06ZM208.026 87.18C205.806 95.46 206.706 100.14 208.746 100.14C210.846 100.14 213.726 96 215.706 88.08C217.506 80.94 216.726 76.5 214.566 76.5C212.466 76.5 209.706 80.76 208.026 87.18ZM234.246 120.06C237.366 102.12 242.286 80.4 247.266 62.76L257.466 61.74C251.886 80.76 247.986 102.24 245.166 119.64L234.246 120.06Z" fill="white"/>
</svg>
