<svg width="271" height="180" viewBox="0 0 271 180" fill="none" xmlns="http://www.w3.org/2000/svg">
<rect x="0.5" y="0.5" width="90" height="120" fill="#FF0561"/>
<rect x="0.5" y="0.5" width="90" height="120" stroke="black"/>
<path d="M19.2671 83.46C28.9871 70.02 38.7071 53.52 43.3271 42.78C39.2471 43.14 28.9871 44.16 21.8471 44.82L24.1871 37.2C31.3871 36.54 49.6271 34.92 57.1871 34.38C49.5071 55.5 40.0271 71.52 32.5271 82.8L19.2671 83.46ZM49.4471 90.06C52.6271 72.12 57.6671 50.4 62.7671 32.76L73.8671 31.74C71.4671 39.9 69.3671 48.54 67.5671 57.06C70.2671 56.76 72.9671 56.4 75.7271 56.04L73.8671 63.72C71.2871 64.08 68.5871 64.5 65.9471 64.86C64.2671 73.5 62.8271 81.96 61.5671 89.64L49.4471 90.06Z" fill="white"/>
<rect x="90.5" y="30.5" width="90" height="120" fill="#FF0561"/>
<rect x="90.5" y="30.5" width="90" height="120" stroke="black"/>
<path d="M127.746 120.06C128.766 114.78 129.906 109.26 131.226 103.5C125.046 108.12 114.606 113.46 105.486 115.08C107.106 109.08 110.586 97.86 112.686 90.9L108.786 91.44L111.306 83.58C114.186 83.28 121.026 82.26 123.546 81.84C124.446 78.96 125.766 75 126.666 71.88C124.146 72.12 117.546 72.78 113.046 73.32L115.386 66.24C120.486 65.76 133.446 64.62 138.786 64.14C137.166 70.14 133.026 82.62 131.526 87.66C130.206 87.84 126.966 88.44 123.306 89.04C121.986 93.42 120.126 99.66 119.346 102.42C123.366 101.22 127.806 99.24 132.846 96.42C135.606 84.84 138.786 73.08 141.966 62.76L152.766 61.74C150.306 69.48 148.086 77.58 146.166 85.68L150.966 84.84C152.766 77.16 154.746 69.66 156.666 62.76L167.466 61.74C161.886 80.76 157.986 102.24 155.166 119.64L143.646 120.06C145.146 111.48 147.066 102 149.166 92.58C147.606 92.88 145.986 93.18 144.426 93.42C142.386 102.6 140.706 111.54 139.266 119.64L127.746 120.06Z" fill="white"/>
<rect x="180.5" y="59.5" width="90" height="120" fill="#FF0561"/>
<rect x="180.5" y="59.5" width="90" height="120" stroke="black"/>
<path d="M230.662 149.06C233.842 131.12 238.882 109.4 243.982 91.76L255.082 90.74C249.502 109.76 245.602 131.24 242.782 148.64L230.662 149.06ZM200.902 113.54C204.022 103.52 210.502 95.3 221.242 95.3C231.022 95.3 236.422 105.08 232.582 119C229.102 131.84 221.662 138.5 211.462 138.5C200.722 138.5 196.522 127.4 200.902 113.54ZM210.682 115.52C208.042 125.12 209.902 130.58 213.022 130.58C216.262 130.58 220.102 126.44 222.442 117.2C224.542 108.92 222.502 103.1 219.622 103.1C216.322 103.1 212.722 108.02 210.682 115.52Z" fill="white"/>
</svg>
