<svg width="271" height="151" viewBox="0 0 271 151" fill="none" xmlns="http://www.w3.org/2000/svg">
<rect x="90.5" y="0.5" width="90" height="120" fill="#FF0561"/>
<rect x="90.5" y="0.5" width="90" height="120" stroke="black"/>
<path d="M109.282 83.46C119.002 70.02 128.722 53.52 133.342 42.78C129.262 43.14 119.002 44.16 111.862 44.82L114.202 37.2C121.402 36.54 139.642 34.92 147.202 34.38C144.442 42 141.442 48.96 138.382 55.26C141.682 54.9 144.982 54.54 148.282 54.24C150.142 46.74 152.062 39.48 153.982 32.76L165.082 31.74C159.502 50.76 155.602 72.24 152.782 89.64L140.662 90.06C142.222 81.3 144.202 71.64 146.422 61.98C142.642 62.46 138.682 62.94 134.182 63.42C130.162 70.98 126.142 77.4 122.542 82.8L109.282 83.46Z" fill="white"/>
<rect x="180.5" y="0.5" width="90" height="120" fill="#FF0561"/>
<rect x="180.5" y="0.5" width="90" height="120" stroke="black"/>
<path d="M201.068 62.46C206.108 62.16 246.608 60.24 252.728 59.94L250.268 67.44C245.288 67.68 204.968 70.02 198.128 70.44L201.068 62.46ZM202.568 73.74L214.028 72C215.588 83.58 223.268 84.96 230.228 84.96C236.048 84.96 243.968 84.3 248.948 82.5L243.308 89.52C239.768 90.9 234.428 91.38 228.368 91.38C216.848 91.38 204.788 88.32 202.568 73.74ZM204.908 58.5C207.548 50.88 211.028 41.52 213.608 34.5L224.288 34.08C222.128 40.14 219.788 46.92 218.828 49.92C223.688 49.62 242.948 48.6 252.068 47.88L248.948 55.62C240.608 56.22 217.208 57.78 204.908 58.5Z" fill="white"/>
<rect x="0.5" y="30.5" width="90" height="120" fill="#FF0561"/>
<rect x="0.5" y="30.5" width="90" height="120" stroke="black"/>
<path d="M17.4683 110.76L28.8083 109.8C31.3883 102.78 35.6483 90.84 37.8083 85.26L49.8083 84.48C47.3483 91.14 43.5683 102.48 41.4083 108.78C53.4083 107.76 65.9483 106.74 69.1283 106.5L67.2683 114.06C62.2883 114.48 22.2083 118.44 15.4283 119.16L17.4683 110.76ZM26.4683 75.66L29.2283 67.5C39.4883 66.72 62.4683 65.22 75.3083 64.38C71.1083 75.54 65.3483 90.84 60.6083 103.14L49.2083 104.1C53.7083 91.74 57.9683 79.44 60.1883 73.14C48.7883 73.92 32.3483 75.18 26.4683 75.66Z" fill="white"/>
</svg>
