<svg width="361" height="181" viewBox="0 0 361 181" fill="none" xmlns="http://www.w3.org/2000/svg">
<rect x="180.5" y="30.5" width="90" height="120" fill="#FF0561"/>
<rect x="180.5" y="30.5" width="90" height="120" stroke="black"/>
<path d="M197.468 110.76C202.508 110.28 243.008 106.98 249.128 106.5L247.268 114.06C242.288 114.48 202.208 118.44 195.428 119.16L197.468 110.76ZM205.088 81.96C207.668 72.72 216.728 64.56 230.048 63.9C244.568 63.18 252.248 69.96 249.848 79.98C246.968 91.8 236.828 99.12 222.128 99.9C208.328 100.62 202.088 92.76 205.088 81.96ZM215.168 81.72C213.368 88.38 217.088 92.4 223.808 91.98C229.868 91.62 237.008 87.78 238.928 80.4C240.428 74.52 236.048 71.16 228.908 71.7C222.968 72.12 216.728 75.9 215.168 81.72Z" fill="white"/>
<rect x="270.5" y="30.5" width="90" height="120" fill="#FF0561"/>
<rect x="270.5" y="30.5" width="90" height="120" stroke="black"/>
<path d="M290.828 103.02C292.388 98.34 294.188 92.7 295.628 88.26C294.008 88.38 292.568 88.5 291.488 88.56L294.008 80.4C301.748 79.74 320.648 78.24 327.308 77.58C327.908 76.14 328.748 73.86 329.348 72.36C322.988 72.78 306.848 74.22 295.628 75.06L297.968 66.48C308.048 65.76 333.548 64.08 344.168 63.48C342.608 68.88 338.828 80.22 337.328 84.72C333.128 85.08 319.568 86.28 307.868 87.24C307.268 89.46 306.668 91.8 306.428 92.88C313.808 92.28 332.528 90.6 339.788 89.88L336.668 98.52L320.348 100.08C319.628 102.78 318.848 105.78 318.248 108.18C327.848 107.4 336.548 106.68 339.128 106.5L337.268 114.06C332.288 114.48 292.208 118.44 285.428 119.16L287.468 110.76C289.448 110.58 296.948 109.92 305.648 109.2C306.428 106.8 307.268 103.8 308.048 101.28C301.748 101.94 295.688 102.54 290.828 103.02Z" fill="white"/>
<rect x="90.5" y="0.5" width="90" height="120" fill="#FF0561"/>
<rect x="90.5" y="0.5" width="90" height="120" stroke="black"/>
<path d="M145.456 63.864C146.338 60.462 147.724 55.548 149.11 50.445L143.251 51.138C139.66 58.32 131.659 62.667 122.146 63.297C111.814 63.99 106.522 58.005 108.853 48.618C111.121 39.609 120.256 32.742 130.84 32.553C139.282 32.427 145.204 36.522 145.141 43.704L151.126 43.011C152.323 38.727 153.457 34.758 154.276 32.049L166.876 31.041C164.23 39.231 158.749 54.855 156.544 63.234L145.456 63.864ZM105.514 94.167C107.404 88.497 109.798 81.567 111.751 76.212C110.176 76.275 108.916 76.401 107.971 76.464L110.869 67.77C120.949 67.14 143.566 65.691 156.103 64.935C154.717 69.534 152.512 76.086 150.811 81.252C151.882 81.126 152.89 81.063 153.772 80.937L151.693 88.308C142.936 89.568 118.492 92.655 105.514 94.167ZM119.311 48.114C118.051 52.776 120.571 54.981 123.973 54.729C128.572 54.351 132.1 51.579 133.045 47.421C134.116 42.759 132.163 40.806 128.32 40.932C123.595 41.058 120.319 44.523 119.311 48.114ZM119.563 84.654L139.345 82.512C140.29 79.299 141.298 75.96 141.802 74.07C138.085 74.322 130.273 74.826 122.965 75.393L119.563 84.654Z" fill="white"/>
<rect x="0.5" y="60.5" width="90" height="120" fill="#FF0561"/>
<rect x="0.5" y="60.5" width="90" height="120" stroke="black"/>
<path d="M50.2745 152.088C53.6135 133.251 58.9055 110.445 64.2605 91.923L75.9155 90.852C73.3955 99.42 71.1905 108.492 69.3005 117.438C72.1355 117.123 74.9705 116.745 77.8685 116.367L75.9155 124.431C73.2065 124.809 70.3715 125.25 67.5995 125.628C65.8355 134.7 64.3235 143.583 63.0005 151.647L50.2745 152.088ZM13.1045 147.111C17.3885 129.345 24.1295 106.665 28.5395 92.994L40.1315 92.238C39.5645 93.939 38.9975 95.703 38.4305 97.53C44.2895 96.9 52.2275 96.207 61.0475 95.577L45.9275 130.416C47.5655 129.975 49.1405 129.597 50.5895 129.156L51.5345 135.771C45.6755 137.661 36.7925 140.055 29.1695 141.252L28.5395 135.771C27.7835 139.11 27.1535 142.323 26.5235 145.284L13.1045 147.111ZM28.9805 133.629C30.9335 133.377 32.9495 133.062 34.9655 132.684C39.4385 122.1 44.9825 107.988 46.8725 103.389L36.3515 104.397C33.6425 113.847 31.1225 124.242 28.9805 133.629Z" fill="white"/>
</svg>
