<svg width="181" height="121" viewBox="0 0 181 121" fill="none" xmlns="http://www.w3.org/2000/svg">
<rect x="0.5" y="0.5" width="90" height="120" fill="#FF0561"/>
<rect x="0.5" y="0.5" width="90" height="120" stroke="black"/>
<path d="M50.6623 90.06C53.8423 72.12 58.8823 50.4 63.9823 32.76L75.0823 31.74C69.5023 50.76 65.6023 72.24 62.7823 89.64L50.6623 90.06ZM14.2423 85.92C18.0223 69.36 25.4023 43.8 28.7623 33.18L40.4023 32.46C38.7223 38.04 36.3823 45.9 34.0423 54.06C36.9223 53.7 40.0423 53.28 43.1623 52.86C44.9623 46.56 46.6423 40.62 47.6623 36.72L58.8223 35.64C56.1223 44.64 51.2023 59.88 48.2623 69.24L50.9623 68.52L51.8623 74.82C45.8023 76.74 36.6223 79.14 28.7623 80.34L28.2223 75.66C27.5023 78.54 26.8423 81.18 26.3623 83.4C21.6223 84.36 17.4823 85.26 14.2423 85.92ZM28.8823 73.08C31.8223 72.66 34.9423 72.12 37.9423 71.52L41.3023 59.46C38.3023 59.94 35.2423 60.36 32.1823 60.84C30.9823 65.04 29.8423 69.24 28.8823 73.08Z" fill="white"/>
<rect x="90.5" y="0.5" width="90" height="120" fill="#FF0561"/>
<rect x="90.5" y="0.5" width="90" height="120" stroke="black"/>
<path d="M140.047 90.06C143.227 72.12 148.267 50.4 153.367 32.76L164.467 31.74C162.847 37.26 161.407 42.96 160.027 48.72C162.367 48.48 164.707 48.18 167.047 47.94L165.487 55.62C163.087 55.92 160.687 56.22 158.287 56.46C157.627 59.52 157.027 62.52 156.427 65.52C158.827 65.28 161.227 64.98 163.627 64.74L162.367 72.42C159.907 72.72 157.447 73.02 154.987 73.26C153.907 78.96 153.007 84.48 152.167 89.64L140.047 90.06ZM110.887 54.54C114.007 44.52 120.607 36.3 131.527 36.3C141.607 36.3 147.007 46.02 143.167 60C139.687 72.84 132.067 79.5 121.747 79.5C110.767 79.5 106.507 68.4 110.887 54.54ZM120.667 56.52C118.027 66.12 120.007 71.58 123.307 71.58C126.667 71.58 130.687 67.44 133.027 58.2C135.127 49.8 133.267 44.1 129.907 44.1C126.487 44.1 122.707 49.02 120.667 56.52Z" fill="white"/>
</svg>
