<svg width="541" height="211" viewBox="0 0 541 211" fill="none" xmlns="http://www.w3.org/2000/svg">
<rect x="0.5" y="60.5" width="90" height="120" fill="#FF0561"/>
<rect x="0.5" y="60.5" width="90" height="120" stroke="black"/>
<path d="M55.8071 120.18C57.8471 111.72 60.5471 101.22 62.7671 92.88L74.7671 91.92L71.5271 102.24L77.4671 101.64L75.5471 109.32L69.1271 110.04C68.1671 113.34 67.2071 116.46 66.4271 119.34L55.8071 120.18ZM16.0871 122.34C23.2871 116.46 32.9471 108.42 39.2471 101.34C33.6071 101.88 27.0071 102.36 22.8071 102.78L25.3871 95.1C33.6671 94.56 48.6671 93.54 56.9471 93.06C54.0671 97.08 49.2071 102.48 44.1671 107.7L50.2871 106.38C50.7071 111.06 52.0871 115.68 54.0671 119.64L42.2471 120.72C41.4671 118.14 40.9271 114.6 40.7471 111.12C36.4871 115.38 32.4071 119.16 29.6471 121.44L16.0871 122.34ZM19.6271 141.84L21.6671 134.58C28.8671 134.16 46.2071 132.84 52.4471 132.24L53.4071 128.58C47.6471 129 32.7671 130.02 22.5671 130.92L24.5471 123.84C33.6671 123.18 56.7671 121.44 66.3671 120.78C65.1671 125.16 62.8871 134.16 61.9871 137.76L34.7471 140.34C34.6871 143.76 36.5471 145.02 42.1271 144.96C49.2071 144.9 60.6071 143.22 71.7671 138L68.7671 144.36C60.1871 149.1 50.2871 151.14 42.2471 151.38C26.8271 151.86 22.6271 148.38 23.0471 141.48C21.7271 141.66 20.5271 141.72 19.6271 141.84Z" fill="white"/>
<rect x="180.5" y="30.5" width="90" height="120" fill="#FF0561"/>
<rect x="180.5" y="30.5" width="90" height="120" stroke="black"/>
<path d="M197.287 113.28C199.687 103.92 204.607 86.7 208.207 74.22C205.927 74.4 204.067 74.58 202.747 74.64L205.207 66.78C212.767 66.24 232.207 64.74 237.607 64.44L235.027 71.82C232.687 72 226.387 72.6 219.787 73.2C217.207 82.32 213.727 95.1 212.347 100.32C219.187 98.7 226.927 95.04 235.747 89.7C237.967 80.34 240.367 71.1 242.767 62.76L253.867 61.74C251.467 69.9 249.367 78.54 247.567 87.06C250.267 86.76 252.967 86.4 255.727 86.04L253.867 93.72C251.287 94.08 248.587 94.5 245.947 94.86C244.267 103.5 242.827 111.96 241.567 119.64L229.447 120.06C230.767 112.74 232.387 104.76 234.187 96.66C225.967 103.2 210.607 111.66 197.287 113.28Z" fill="white"/>
<rect x="90.5" y="0.5" width="90" height="120" fill="#FF0561"/>
<rect x="90.5" y="0.5" width="90" height="120" stroke="black"/>
<path d="M107.722 72.54C109.942 63.06 114.802 41.16 116.242 34.38L127.162 32.52C126.142 36.72 124.882 42.42 123.682 47.88C126.802 47.22 130.582 46.5 132.982 46.02C134.002 42 135.022 38.1 135.742 35.1L146.962 33.72C144.562 42.6 140.422 57 138.082 65.46C132.382 66.84 116.062 70.68 107.722 72.54ZM113.182 73.8L124.642 71.1C126.142 84 133.342 85.56 139.942 85.56C145.522 85.56 154.342 84.6 159.622 83.1L153.982 89.52C150.742 90.66 145.102 91.38 138.682 91.38C127.282 91.38 115.342 88.2 113.182 73.8ZM120.442 63.36C122.182 63.06 127.162 61.98 128.962 61.56C129.622 59.1 130.462 55.86 131.362 52.32C129.022 52.8 125.482 53.46 122.422 54C121.582 57.84 120.862 61.2 120.442 63.36ZM141.202 76.38C144.202 65.46 150.322 42.96 153.382 32.88L165.382 31.92C161.962 43.14 154.642 64.74 151.762 76.14L141.202 76.38Z" fill="white"/>
<rect x="270.5" y="60.5" width="90" height="120" fill="#FF0561"/>
<rect x="270.5" y="60.5" width="90" height="120" stroke="black"/>
<path d="M291.068 122.46C296.108 122.16 336.608 120.24 342.728 119.94L340.268 127.44C335.288 127.68 294.968 130.02 288.128 130.44L291.068 122.46ZM292.568 133.74L304.028 132C305.588 143.58 313.268 144.96 320.228 144.96C326.048 144.96 333.968 144.3 338.948 142.5L333.308 149.52C329.768 150.9 324.428 151.38 318.368 151.38C306.848 151.38 294.788 148.32 292.568 133.74ZM294.908 118.5C297.548 110.88 301.028 101.52 303.608 94.5L314.288 94.08C312.128 100.14 309.788 106.92 308.828 109.92C313.688 109.62 332.948 108.6 342.068 107.88L338.948 115.62C330.608 116.22 307.208 117.78 294.908 118.5Z" fill="white"/>
<rect x="360.5" y="90.5" width="90" height="120" fill="#FF0561"/>
<rect x="360.5" y="90.5" width="90" height="120" stroke="black"/>
<path d="M379.282 173.46C389.002 160.02 398.722 143.52 403.342 132.78C399.262 133.14 389.002 134.16 381.862 134.82L384.202 127.2C391.402 126.54 409.642 124.92 417.202 124.38C409.522 145.5 400.042 161.52 392.542 172.8L379.282 173.46ZM410.062 180.06C413.242 162.12 418.282 140.4 423.382 122.76L434.482 121.74C428.902 140.76 425.002 162.24 422.182 179.64L410.062 180.06Z" fill="white"/>
<rect x="450.5" y="90.5" width="90" height="120" fill="#FF0561"/>
<rect x="450.5" y="90.5" width="90" height="120" stroke="black"/>
<path d="M467.287 173.28C469.687 163.92 474.607 146.7 478.207 134.22C475.927 134.4 474.067 134.58 472.747 134.64L475.207 126.78C482.767 126.24 502.207 124.74 507.607 124.44L505.027 131.82C502.687 132 496.387 132.6 489.787 133.2C487.207 142.32 483.727 155.1 482.347 160.32C489.187 158.7 496.927 155.04 505.747 149.7C507.967 140.34 510.367 131.1 512.767 122.76L523.867 121.74C521.467 129.9 519.367 138.54 517.567 147.06C520.267 146.76 522.967 146.4 525.727 146.04L523.867 153.72C521.287 154.08 518.587 154.5 515.947 154.86C514.267 163.5 512.827 171.96 511.567 179.64L499.447 180.06C500.767 172.74 502.387 164.76 504.187 156.66C495.967 163.2 480.607 171.66 467.287 173.28Z" fill="white"/>
</svg>
