<svg width="271" height="181" viewBox="0 0 271 181" fill="none" xmlns="http://www.w3.org/2000/svg">
<rect x="90.5" y="0.5" width="90" height="120" fill="#FF0561"/>
<rect x="90.5" y="0.5" width="90" height="120" stroke="black"/>
<path d="M124.918 52.209C129.391 51.831 132.793 49.5 133.675 45.846C134.62 41.814 132.604 40.176 128.005 40.302C123.406 40.428 120.193 43.452 119.311 46.539C118.24 50.508 120.949 52.461 124.918 52.209ZM108.853 47.043C110.995 38.538 120.13 32.112 130.525 31.923C140.731 31.797 147.22 36.711 145.393 45.153C143.377 54.414 134.305 60.021 123.091 60.777C112.129 61.47 106.648 55.8 108.853 47.043ZM108.979 83.457L111.121 75.834C118.681 75.393 136.888 74.007 143.44 73.377L144.448 69.534C138.4 69.975 122.776 71.046 112.066 71.991L114.145 64.557C123.721 63.864 147.976 62.037 158.056 61.344C156.796 65.943 154.402 75.393 153.457 79.173L124.855 81.882C124.792 85.473 126.745 86.796 132.604 86.733C140.038 86.67 152.008 84.906 163.726 79.425L160.576 86.103C151.567 91.08 141.172 93.222 132.73 93.474C116.539 93.978 112.129 90.324 112.57 83.079C111.184 83.268 109.924 83.331 108.979 83.457ZM146.968 60.714C149.11 51.831 151.945 40.806 154.276 32.049L166.876 31.041C163.915 40.428 160.513 51.201 158.119 59.832L146.968 60.714Z" fill="white"/>
<rect x="0.5" y="60.5" width="90" height="120" fill="#FF0561"/>
<rect x="0.5" y="60.5" width="90" height="120" stroke="black"/>
<path d="M39.8782 152.088C41.7682 142.26 44.1622 131.424 46.8712 120.588L40.3822 121.344L41.8312 113.154C44.2252 112.965 46.6192 112.713 48.9502 112.461C50.8402 105.342 52.7932 98.349 54.8092 91.923L65.5192 90.852C59.0932 110.823 54.6202 133.377 51.3442 151.647L39.8782 152.088ZM9.57523 145.536C19.0252 132.117 28.4752 115.674 33.4522 104.838C30.1132 105.09 22.0492 105.72 17.8912 106.098L20.2222 97.404C25.7662 97.026 39.7522 96.144 46.6192 95.766C43.1542 104.649 39.5632 112.65 36.0352 119.832L39.8152 119.139C40.0042 127.266 40.4452 135.582 40.9492 142.512L30.7432 143.331C30.5542 139.551 30.4912 135.015 30.6802 130.101C27.7192 135.582 24.8212 140.433 22.2382 144.591L9.57523 145.536ZM54.6832 152.088C57.9592 133.251 63.1252 110.445 68.3542 91.923L79.0642 90.852C73.2052 110.823 69.1102 133.377 66.1492 151.647L54.6832 152.088Z" fill="white"/>
<rect x="180.5" y="30.5" width="90" height="120" fill="#FF0561"/>
<rect x="180.5" y="30.5" width="90" height="120" stroke="black"/>
<path d="M199.595 104.196C201.233 99.282 203.123 93.36 204.635 88.698C202.934 88.824 201.422 88.95 200.288 89.013L202.934 80.445C211.061 79.752 230.906 78.177 237.899 77.484C238.529 75.972 239.411 73.578 240.041 72.003C233.363 72.444 216.416 73.956 204.635 74.838L207.092 65.829C217.676 65.073 244.451 63.309 255.602 62.679C253.964 68.349 249.995 80.256 248.42 84.981C244.01 85.359 229.772 86.619 217.487 87.627C216.857 89.958 216.227 92.415 215.975 93.549C223.724 92.919 243.38 91.155 251.003 90.399L247.727 99.471L230.591 101.109C229.835 103.944 229.016 107.094 228.386 109.614C238.466 108.795 247.601 108.039 250.31 107.85L248.357 115.788C243.128 116.229 201.044 120.387 193.925 121.143L196.067 112.323C198.146 112.134 206.021 111.441 215.156 110.685C215.975 108.165 216.857 105.015 217.676 102.369C211.061 103.062 204.698 103.692 199.595 104.196Z" fill="white"/>
</svg>
