<svg width="451" height="182" viewBox="0 0 451 182" fill="none" xmlns="http://www.w3.org/2000/svg">
<rect x="360.5" y="60.5" width="90" height="120" fill="#FF0561"/>
<rect x="360.5" y="60.5" width="90" height="120" stroke="black"/>
<path d="M381.068 122.46C386.108 122.16 426.608 120.24 432.728 119.94L430.268 127.44C425.288 127.68 384.968 130.02 378.128 130.44L381.068 122.46ZM382.568 133.74L394.028 132C395.588 143.58 403.268 144.96 410.228 144.96C416.048 144.96 423.968 144.3 428.948 142.5L423.308 149.52C419.768 150.9 414.428 151.38 408.368 151.38C396.848 151.38 384.788 148.32 382.568 133.74ZM384.908 118.5C387.548 110.88 391.028 101.52 393.608 94.5L404.288 94.08C402.128 100.14 399.788 106.92 398.828 109.92C403.688 109.62 422.948 108.6 432.068 107.88L428.948 115.62C420.608 116.22 397.208 117.78 384.908 118.5Z" fill="white"/>
<rect x="270.5" y="30.5" width="90" height="120" fill="#FF0561"/>
<rect x="270.5" y="30.5" width="90" height="120" stroke="black"/>
<path d="M289.282 113.46C299.002 100.02 308.722 83.52 313.342 72.78C309.262 73.14 299.002 74.16 291.862 74.82L294.202 67.2C301.402 66.54 319.642 64.92 327.202 64.38C324.442 72 321.442 78.96 318.382 85.26C321.682 84.9 324.982 84.54 328.282 84.24C330.142 76.74 332.062 69.48 333.982 62.76L345.082 61.74C339.502 80.76 335.602 102.24 332.782 119.64L320.662 120.06C322.222 111.3 324.202 101.64 326.422 91.98C322.642 92.46 318.682 92.94 314.182 93.42C310.162 100.98 306.142 107.4 302.542 112.8L289.282 113.46Z" fill="white"/>
<rect x="180.5" y="0.5" width="90" height="120" fill="#FF0561"/>
<rect x="180.5" y="0.5" width="90" height="120" stroke="black"/>
<path d="M230.211 80.874C233.487 68.589 240.228 43.389 243.63 32.049L256.23 31.041C254.34 37.341 251.379 46.539 248.544 55.737L255.6 54.918L252.954 62.415L246.213 63.234C244.26 69.786 242.433 75.96 241.299 80.622L230.211 80.874ZM198.27 47.358L201.105 39.168L214.65 38.286C215.721 35.703 217.107 32.616 217.8 30.852L229.77 30.033C228.888 31.986 227.628 34.821 226.368 37.467C230.841 37.152 235.377 36.9 239.598 36.585L237.015 43.956C228.384 44.775 209.232 46.413 198.27 47.358ZM198.396 61.911C200.286 53.532 207.972 47.358 218.43 46.791C227.25 46.287 232.92 50.13 231.471 58.005C229.644 67.581 220.824 72.81 211.563 73.503C201.861 74.259 196.632 69.975 198.396 61.911ZM202.995 76.842L215.028 75.015C216.603 86.04 224.163 87.363 230.463 87.363C236.574 87.363 244.89 86.67 250.119 84.78L244.197 91.521C240.48 92.97 234.873 93.474 228.51 93.474C217.485 93.474 205.263 90.576 202.995 76.842ZM208.476 61.029C207.72 64.557 210.051 66.132 213.138 65.817C216.981 65.376 219.627 62.856 220.32 59.013C220.95 55.737 219.186 54.162 215.721 54.351C211.878 54.666 209.106 57.942 208.476 61.029Z" fill="white"/>
<rect x="90.5" y="30.5" width="90" height="120" fill="#FF0561"/>
<rect x="90.5" y="30.5" width="90" height="120" stroke="black"/>
<path d="M106.067 112.323C107.264 112.197 110.288 111.945 114.383 111.63C115.643 107.283 117.47 101.235 118.73 97.014C114.32 93.738 112.871 88.257 114.698 81.768C117.344 72.192 126.92 63.813 140.906 63.12C156.152 62.364 164.153 69.357 161.696 79.689C160.373 85.233 157.412 89.832 153.128 93.297C151.805 97.959 150.104 104.448 148.97 108.732C154.388 108.354 158.609 107.976 160.31 107.85L158.357 115.788C153.128 116.229 111.044 120.387 103.925 121.143L106.067 112.323ZM125.282 81.516C123.455 88.32 127.298 92.415 134.354 91.974C140.717 91.596 148.277 87.69 150.23 80.13C151.742 74.145 147.206 70.743 139.709 71.31C133.472 71.751 126.857 75.594 125.282 81.516ZM126.983 110.559L136.37 109.803C137.315 106.779 138.449 102.936 139.457 99.408C137.315 99.849 134.984 100.164 132.59 100.29C131.582 100.353 130.574 100.353 129.692 100.29C128.684 103.881 127.676 107.724 126.983 110.559Z" fill="white"/>
<rect x="0.5" y="61.5" width="90" height="120" fill="#FF0561"/>
<rect x="0.5" y="61.5" width="90" height="120" stroke="black"/>
<path d="M19.8467 119.698C25.1387 119.383 67.6637 117.367 74.0897 117.052L71.5067 124.927C69.4277 125.053 61.2377 125.494 51.7877 126.061C51.2207 127.762 50.5907 129.526 50.0867 131.164C61.7417 132.109 66.4037 137.149 65.3957 143.197C63.9467 151.009 54.1817 154.411 39.3767 154.789C22.7447 155.167 17.1377 149.245 19.8467 141.622C21.6107 136.645 27.9107 133.054 37.2347 131.668L38.9987 126.754C28.9817 127.384 19.7837 127.888 16.7597 128.077L19.8467 119.698ZM20.8547 118.249C29.6117 113.335 40.2587 106.909 47.8187 101.491C43.2197 101.869 30.8087 102.814 26.7767 103.003L29.8637 95.632C35.4077 95.254 61.1747 93.742 70.8137 93.175C67.8527 96.262 63.5057 99.727 58.9697 103.066C62.8127 107.035 68.1677 111.508 73.5227 115.225L58.9067 116.107C56.5757 114.091 53.8667 111.193 51.5987 108.358C46.3697 112.075 41.7077 115.162 39.5027 116.926L20.8547 118.249ZM30.1157 142.756C29.4227 145.465 32.9507 146.977 40.6997 146.473C47.0627 146.347 53.3627 144.961 53.9297 142.378C54.4967 139.921 51.5987 138.535 42.5267 139.039C36.4787 139.417 30.6197 140.74 30.1157 142.756Z" fill="white"/>
</svg>
