<svg width="181" height="151" viewBox="0 0 181 151" fill="none" xmlns="http://www.w3.org/2000/svg">
<rect x="0.5" y="0.5" width="90" height="120" fill="#FF0561"/>
<rect x="0.5" y="0.5" width="90" height="120" stroke="black"/>
<path d="M21.0683 61.86C26.1083 61.56 66.6083 59.64 72.7283 59.34L70.2683 66.84L53.3483 67.8C52.0283 71.58 50.2883 76.8 49.6883 78.66L37.2083 79.38C38.1083 77.16 39.9083 72 41.2283 68.46L18.1283 69.84L21.0683 61.86ZM21.9683 73.74L33.4283 72C34.9883 83.58 42.6683 84.96 49.6283 84.96C55.4483 84.96 63.3683 84.3 68.3483 82.5L62.7083 89.52C59.1683 90.9 53.8283 91.38 47.7683 91.38C36.2483 91.38 24.1883 88.32 21.9683 73.74ZM24.9083 58.5C27.5483 50.88 31.0283 41.52 33.6083 34.5L44.2883 34.08C42.1283 40.14 39.7883 46.92 38.8283 49.92C43.6883 49.62 62.9483 48.6 72.0683 47.88L68.9483 55.62C60.6083 56.22 37.2083 57.78 24.9083 58.5Z" fill="white"/>
<rect x="90.5" y="30.5" width="90" height="120" fill="#FF0561"/>
<rect x="90.5" y="30.5" width="90" height="120" stroke="black"/>
<path d="M130.746 120.06C132.426 111.24 134.586 101.46 136.986 91.74L133.686 92.1C130.146 103.38 124.266 109.5 117.126 109.5C108.486 109.5 105.546 99.54 109.326 85.62C112.506 73.98 117.966 66.3 126.366 66.3C132.966 66.3 137.106 73.02 135.486 84.3L138.966 83.94C140.886 76.62 142.926 69.36 144.966 62.76L155.166 61.74C149.046 80.76 144.786 102.24 141.666 119.64L130.746 120.06ZM118.026 87.18C115.806 95.46 116.706 100.14 118.746 100.14C120.846 100.14 123.726 96 125.706 88.08C127.506 80.94 126.726 76.5 124.566 76.5C122.466 76.5 119.706 80.76 118.026 87.18ZM144.246 120.06C147.366 102.12 152.286 80.4 157.266 62.76L167.466 61.74C161.886 80.76 157.986 102.24 155.166 119.64L144.246 120.06Z" fill="white"/>
</svg>
