<svg width="541" height="181" viewBox="0 0 541 181" fill="none" xmlns="http://www.w3.org/2000/svg">
<rect x="0.5" y="60.5" width="90" height="120" fill="#FF0561"/>
<rect x="0.5" y="60.5" width="90" height="120" stroke="black"/>
<path d="M20.4683 130.92C24.7283 118.38 30.6683 100.32 32.9483 93.54L45.8483 92.7L41.5283 105.06C47.1683 104.52 53.9483 103.86 60.7283 103.2L63.4883 95.16L75.9083 94.38C73.7483 99.96 69.6683 110.46 66.8483 117.84C68.2883 117.72 69.5483 117.6 70.5683 117.48L67.4483 125.82C63.1283 126.24 57.3083 126.9 51.0683 127.56L48.2483 138.18C57.8483 137.4 66.5483 136.68 69.1283 136.5L67.2683 144.06C62.2883 144.48 22.2083 148.44 15.4283 149.16L17.4683 140.76C19.4483 140.58 26.9483 139.92 35.6483 139.2C36.6083 136.02 37.8083 132 38.7083 128.88C32.0483 129.6 25.5683 130.32 20.4683 130.92ZM36.0683 120.84C40.3283 120.48 48.0683 119.7 55.4483 118.98L58.0283 111.42C51.3683 112.02 44.2883 112.68 38.6483 113.22C37.5683 116.34 36.6683 119.04 36.0683 120.84Z" fill="white"/>
<rect x="90.5" y="0.5" width="90" height="120" fill="#FF0561"/>
<rect x="90.5" y="0.5" width="90" height="120" stroke="black"/>
<path d="M140.662 90.06C143.842 72.12 148.882 50.4 153.982 32.76L165.082 31.74C159.502 50.76 155.602 72.24 152.782 89.64L140.662 90.06ZM110.902 54.54C114.022 44.52 120.502 36.3 131.242 36.3C141.022 36.3 146.422 46.08 142.582 60C139.102 72.84 131.662 79.5 121.462 79.5C110.722 79.5 106.522 68.4 110.902 54.54ZM120.682 56.52C118.042 66.12 119.902 71.58 123.022 71.58C126.262 71.58 130.102 67.44 132.442 58.2C134.542 49.92 132.502 44.1 129.622 44.1C126.322 44.1 122.722 49.02 120.682 56.52Z" fill="white"/>
<rect x="180.5" y="30.5" width="90" height="120" fill="#FF0561"/>
<rect x="180.5" y="30.5" width="90" height="120" stroke="black"/>
<path d="M200.855 99.786C203.564 91.848 206.651 82.209 209.045 75.216C207.092 75.405 205.454 75.594 204.257 75.783L207.155 66.27C216.227 65.766 247.034 63.624 255.161 63.183L252.263 71.373C248.168 71.625 234.056 72.822 221.834 73.956C220.07 79.311 217.991 86.304 217.235 89.139C224.984 88.509 244.64 86.745 252.263 85.989L248.987 94.431C244.64 94.872 238.844 95.502 232.544 96.195L229.016 109.551C238.844 108.795 247.664 108.039 250.31 107.85L248.357 115.788C243.128 116.229 201.044 120.387 193.925 121.143L196.067 112.323C198.209 112.134 206.399 111.441 215.786 110.685C216.983 106.779 218.495 101.613 219.692 97.644C212.762 98.4 206.084 99.156 200.855 99.786Z" fill="white"/>
<rect x="270.5" y="60.5" width="90" height="120" fill="#FF0561"/>
<rect x="270.5" y="60.5" width="90" height="120" stroke="black"/>
<path d="M320.274 152.088C323.613 133.251 328.905 110.445 334.26 91.923L345.915 90.852C343.395 99.42 341.19 108.492 339.3 117.438C342.135 117.123 344.97 116.745 347.868 116.367L345.915 124.431C343.206 124.809 340.371 125.25 337.599 125.628C335.835 134.7 334.323 143.583 333 151.647L320.274 152.088ZM289.656 114.792C292.932 104.271 299.862 95.64 311.328 95.64C321.912 95.64 327.582 105.846 323.55 120.525C319.896 134.007 311.895 141 301.059 141C289.53 141 285.057 129.345 289.656 114.792ZM299.925 116.871C297.153 126.951 299.232 132.684 302.697 132.684C306.225 132.684 310.446 128.337 312.903 118.635C315.108 109.815 313.155 103.83 309.627 103.83C306.036 103.83 302.067 108.996 299.925 116.871Z" fill="white"/>
<rect x="360.5" y="60.5" width="90" height="120" fill="#FF0561"/>
<rect x="360.5" y="60.5" width="90" height="120" stroke="black"/>
<path d="M411.471 135.834C414.432 124.809 420.543 102.192 423.63 92.049L436.23 91.041C434.718 95.955 432.513 102.885 430.182 110.067L437.364 109.248L434.718 116.745L427.851 117.564C425.709 124.368 423.756 130.857 422.559 135.582L411.471 135.834ZM379.467 111.138C382.05 101.184 391.059 93.372 401.769 93.183C411.597 93.057 418.275 99.168 416.007 109.248C413.739 120.147 404.667 126.951 393.075 127.707C382.554 128.4 376.821 121.596 379.467 111.138ZM382.05 133.062L394.083 131.235C395.721 145.662 403.785 147.363 410.463 147.363C416.574 147.363 424.89 146.67 430.119 144.78L424.197 151.521C420.48 152.97 414.873 153.474 408.51 153.474C397.044 153.474 384.381 149.946 382.05 133.062ZM389.925 110.634C388.35 116.493 391.311 119.328 394.902 119.139C399.69 118.824 403.029 115.17 404.289 109.941C405.675 104.082 403.407 101.436 399.249 101.562C394.335 101.688 391.185 106.224 389.925 110.634Z" fill="white"/>
<rect x="450.5" y="30.5" width="90" height="120" fill="#FF0561"/>
<rect x="450.5" y="30.5" width="90" height="120" stroke="black"/>
<path d="M465.876 114.969C468.396 105.141 473.562 87.06 477.342 73.956C474.948 74.145 472.995 74.334 471.609 74.397L474.192 66.144C482.13 65.577 502.542 64.002 508.212 63.687L505.503 71.436C503.046 71.625 496.431 72.255 489.501 72.885C486.792 82.461 483.138 95.88 481.689 101.361C488.871 99.66 496.998 95.817 506.259 90.21C508.59 80.382 511.11 70.68 513.63 61.923L525.285 60.852C522.765 69.42 520.56 78.492 518.67 87.438C521.505 87.123 524.34 86.745 527.238 86.367L525.285 94.431C522.576 94.809 519.741 95.25 516.969 95.628C515.205 104.7 513.693 113.583 512.37 121.647L499.644 122.088C501.03 114.402 502.731 106.023 504.621 97.518C495.99 104.385 479.862 113.268 465.876 114.969Z" fill="white"/>
</svg>
