<svg width="271" height="150" viewBox="0 0 271 150" fill="none" xmlns="http://www.w3.org/2000/svg">
<rect x="180.5" y="29.5" width="90" height="120" fill="#FF0561"/>
<rect x="180.5" y="29.5" width="90" height="120" stroke="black"/>
<path d="M199.267 112.46C208.987 99.02 218.707 82.52 223.327 71.78C219.247 72.14 208.987 73.16 201.847 73.82L204.187 66.2C211.387 65.54 229.627 63.92 237.187 63.38C229.507 84.5 220.027 100.52 212.527 111.8L199.267 112.46ZM229.447 119.06C232.627 101.12 237.667 79.4 242.767 61.76L253.867 60.74C251.467 68.9 249.367 77.54 247.567 86.06C250.267 85.76 252.967 85.4 255.727 85.04L253.867 92.72C251.287 93.08 248.587 93.5 245.947 93.86C244.267 102.5 242.827 110.96 241.567 118.64L229.447 119.06Z" fill="white"/>
<rect x="0.5" y="29.5" width="90" height="120" fill="#FF0561"/>
<rect x="0.5" y="29.5" width="90" height="120" stroke="black"/>
<path d="M21.0683 86.66C26.1083 86.36 66.6083 84.44 72.7283 84.14L70.2683 91.64C65.2883 91.88 24.9683 94.22 18.1283 94.64L21.0683 86.66ZM16.9283 121.04C18.6083 116.24 20.7083 110.42 22.3883 105.86L19.5683 106.04L22.3283 98.06C32.3483 97.46 54.7883 96.08 67.2083 95.36C66.0083 99.14 64.0883 104.6 62.6483 108.68C63.6083 108.62 64.4483 108.5 65.2883 108.44L63.3083 115.46C54.4883 116.66 29.9483 119.6 16.9283 121.04ZM27.3083 72.5L30.1283 64.76C38.3483 64.28 61.3283 63.02 73.4483 62.48C71.6483 68.78 68.8283 77.96 67.5083 82.28L56.8283 82.7C57.9683 78.98 59.8883 72.86 60.5483 70.64C55.6883 70.88 36.4283 71.96 27.3083 72.5ZM30.3083 111.98C33.4883 111.62 42.9083 110.66 51.7883 109.82C52.5083 107.54 53.1683 105.14 53.5883 103.76C49.5083 104 40.6883 104.6 32.7683 105.14C31.7483 107.84 30.7883 110.66 30.3083 111.98Z" fill="white"/>
<rect x="90.5" y="0.5" width="90" height="120" fill="#FF0561"/>
<rect x="90.5" y="0.5" width="90" height="120" stroke="black"/>
<path d="M140.047 90.06C143.227 72.12 148.267 50.4 153.367 32.76L164.467 31.74C162.067 39.9 159.967 48.54 158.167 57.06C160.867 56.76 163.567 56.4 166.327 56.04L164.467 63.72C161.887 64.08 159.187 64.5 156.547 64.86C154.867 73.5 153.427 81.96 152.167 89.64L140.047 90.06ZM104.647 85.32C108.727 68.4 115.147 46.8 119.347 33.78L130.387 33.06C129.847 34.68 129.307 36.36 128.767 38.1C134.347 37.5 141.907 36.84 150.307 36.24L135.907 69.42C137.467 69 138.967 68.64 140.347 68.22L141.247 74.52C135.667 76.32 127.207 78.6 119.947 79.74L119.347 74.52C118.627 77.7 118.027 80.76 117.427 83.58L104.647 85.32ZM119.767 72.48C121.627 72.24 123.547 71.94 125.467 71.58C129.727 61.5 135.007 48.06 136.807 43.68L126.787 44.64C124.207 53.64 121.807 63.54 119.767 72.48Z" fill="white"/>
</svg>
