<svg width="361" height="211" viewBox="0 0 361 211" fill="none" xmlns="http://www.w3.org/2000/svg">
<rect x="0.5" y="0.5" width="90" height="120" fill="#FF0561"/>
<rect x="0.5" y="0.5" width="90" height="120" stroke="black"/>
<path d="M16.0667 82.323C21.3587 81.819 63.8837 78.354 70.3097 77.85L68.3567 85.788C63.1277 86.229 21.0437 90.387 13.9247 91.143L16.0667 82.323ZM25.5167 45.468L28.4147 36.9C39.1877 36.081 63.3167 34.506 76.7987 33.624C72.3887 45.342 66.3407 61.407 61.3637 74.322L49.3937 75.33C54.1187 62.352 58.5917 49.437 60.9227 42.822C48.9527 43.641 31.6907 44.964 25.5167 45.468Z" fill="white"/>
<rect x="90.5" y="29.5" width="90" height="120" fill="#FF0561"/>
<rect x="90.5" y="29.5" width="90" height="120" stroke="black"/>
<path d="M109.215 114.788C114.633 107.228 119.988 98.723 124.65 90.722C119.673 91.919 113.436 93.305 108.396 94.25L111.168 85.115C116.712 84.233 123.012 83.288 129.375 82.154C131.391 78.248 133.155 74.594 134.478 71.444C130.572 71.759 120.681 72.704 113.814 73.334L116.271 65.333C123.264 64.703 141.03 63.128 148.401 62.624C140.337 85.052 130.383 102.125 122.508 114.095L109.215 114.788ZM139.644 121.088C142.983 102.251 148.275 79.445 153.63 60.923L165.285 59.852C162.765 68.42 160.56 77.492 158.67 86.438C161.505 86.123 164.34 85.745 167.238 85.367L165.285 93.431C162.576 93.809 159.741 94.25 156.969 94.628C155.205 103.7 153.693 112.583 152.37 120.647L139.644 121.088Z" fill="white"/>
<rect x="180.5" y="60.5" width="90" height="120" fill="#FF0561"/>
<rect x="180.5" y="60.5" width="90" height="120" stroke="black"/>
<path d="M200.855 130.416C203.627 122.226 206.903 112.272 209.234 105.153C207.218 105.405 205.517 105.594 204.257 105.783L207.155 96.27C216.227 95.766 247.034 93.624 255.161 93.183L252.263 101.373C248.231 101.625 234.245 102.822 222.023 103.893C220.259 109.374 218.054 116.808 217.235 119.769C224.984 119.139 244.64 117.375 252.263 116.619L248.987 125.061C237.143 126.321 214.337 128.841 200.855 130.416ZM193.925 151.143L196.067 142.323C201.359 141.819 243.884 138.354 250.31 137.85L248.357 145.788C243.128 146.229 201.044 150.387 193.925 151.143Z" fill="white"/>
<rect x="270.5" y="90.5" width="90" height="120" fill="#FF0561"/>
<rect x="270.5" y="90.5" width="90" height="120" stroke="black"/>
<path d="M319.644 182.088C320.904 175.095 322.416 167.535 324.117 159.786C315.36 166.59 299.547 175.221 285.876 176.859C287.577 170.622 291.168 158.904 293.373 151.533C291.735 151.785 290.349 151.911 289.341 152.037L291.987 143.784C296.523 143.406 307.233 142.146 311.139 141.642C312.084 138.618 313.47 134.46 314.415 131.184C310.572 131.499 300.618 132.318 293.814 133.011L296.271 125.577L328.401 123.057C326.7 129.357 322.353 142.461 320.778 147.753C318.51 148.005 312.21 148.95 305.784 149.832C304.335 154.431 302.445 160.668 301.689 163.251C308.745 161.55 316.746 157.896 325.755 152.352C328.212 141.831 330.921 131.31 333.63 121.923L345.285 120.852C342.765 129.42 340.56 138.492 338.67 147.438C341.505 147.123 344.34 146.745 347.238 146.367L345.285 154.431C342.576 154.809 339.741 155.25 336.969 155.628C335.205 164.7 333.693 173.583 332.37 181.647L319.644 182.088Z" fill="white"/>
</svg>
