<svg width="271" height="181" viewBox="0 0 271 181" fill="none" xmlns="http://www.w3.org/2000/svg">
<rect x="0.5" y="60.5" width="90" height="120" fill="#FF0561"/>
<rect x="0.5" y="60.5" width="90" height="120" stroke="black"/>
<path d="M35.5325 112.209C40.0055 111.831 43.4075 109.5 44.2895 105.846C45.2345 101.814 43.2185 100.176 38.6195 100.302C34.0205 100.428 30.8075 103.452 29.9255 106.539C28.8545 110.508 31.5635 112.461 35.5325 112.209ZM18.3335 143.457L20.4755 135.834C28.0355 135.393 46.2425 134.007 52.7945 133.377L53.8025 129.534C47.7545 129.975 32.1305 131.046 21.4205 131.991L23.4995 124.557C33.0755 123.864 57.3305 122.037 67.4105 121.344C66.1505 125.943 63.7565 135.393 62.8115 139.173L34.2095 141.882C34.1465 145.473 36.0995 146.796 41.9585 146.733C49.3925 146.67 61.3625 144.906 73.0805 139.425L69.9305 146.103C60.9215 151.08 50.5265 153.222 42.0845 153.474C25.8935 153.978 21.4835 150.324 21.9245 143.079C20.5385 143.268 19.2785 143.331 18.3335 143.457ZM19.4675 107.043C21.6095 98.538 30.7445 92.112 41.1395 91.923C51.3455 91.797 57.8345 96.711 56.0075 105.153C53.9915 114.414 44.9195 120.021 33.7055 120.777C22.7435 121.47 17.2625 115.8 19.4675 107.043ZM56.3225 120.714C58.4645 111.831 61.2995 100.806 63.6305 92.049L76.2305 91.041L72.8285 101.877L79.0655 101.247L77.0495 109.311L70.3085 110.067C69.3005 113.532 68.2925 116.808 67.4735 119.832L56.3225 120.714Z" fill="white"/>
<rect x="90.5" y="0.5" width="90" height="120" fill="#FF0561"/>
<rect x="90.5" y="0.5" width="90" height="120" stroke="black"/>
<path d="M109.847 59.328C115.139 59.013 157.664 56.997 164.09 56.682L161.507 64.557C156.278 64.809 113.942 67.266 106.76 67.707L109.847 59.328ZM102.413 92.466C115.895 83.772 125.471 75.267 131.267 69.156L142.985 68.652C141.473 70.605 139.772 72.558 137.945 74.448C142.292 79.047 149.726 84.465 157.223 88.875L142.607 89.757C139.142 87.3 134.984 83.772 131.897 80.433C127.046 84.843 122.006 88.686 117.974 91.395L102.413 92.466ZM116.399 43.2L119.36 35.073C127.991 34.569 152.12 33.246 164.846 32.679C162.83 39.672 159.743 49.941 158.294 54.729L147.08 55.17C148.403 50.886 150.545 43.83 151.301 41.247C146.198 41.499 125.975 42.633 116.399 43.2Z" fill="white"/>
<rect x="180.5" y="30.5" width="90" height="120" fill="#FF0561"/>
<rect x="180.5" y="30.5" width="90" height="120" stroke="black"/>
<path d="M195.876 114.969C198.396 105.141 203.562 87.06 207.342 73.956C204.948 74.145 202.995 74.334 201.609 74.397L204.192 66.144C212.13 65.577 232.542 64.002 238.212 63.687L235.503 71.436C233.046 71.625 226.431 72.255 219.501 72.885C216.792 82.461 213.138 95.88 211.689 101.361C218.871 99.66 226.998 95.817 236.259 90.21C238.59 80.382 241.11 70.68 243.63 61.923L255.285 60.852C252.765 69.42 250.56 78.492 248.67 87.438C251.505 87.123 254.34 86.745 257.238 86.367L255.285 94.431C252.576 94.809 249.741 95.25 246.969 95.628C245.205 104.7 243.693 113.583 242.37 121.647L229.644 122.088C231.03 114.402 232.731 106.023 234.621 97.518C225.99 104.385 209.862 113.268 195.876 114.969Z" fill="white"/>
</svg>
