<svg width="361" height="181" viewBox="0 0 361 181" fill="none" xmlns="http://www.w3.org/2000/svg">
<rect x="180.5" y="0.5" width="90" height="120" fill="#FF0561"/>
<rect x="180.5" y="0.5" width="90" height="120" stroke="black"/>
<path d="M199.267 83.46C208.987 70.02 218.707 53.52 223.327 42.78C219.247 43.14 208.987 44.16 201.847 44.82L204.187 37.2C211.387 36.54 229.627 34.92 237.187 34.38C229.507 55.5 220.027 71.52 212.527 82.8L199.267 83.46ZM229.447 90.06C232.627 72.12 237.667 50.4 242.767 32.76L253.867 31.74C251.467 39.9 249.367 48.54 247.567 57.06C250.267 56.76 252.967 56.4 255.727 56.04L253.867 63.72C251.287 64.08 248.587 64.5 245.947 64.86C244.267 73.5 242.827 81.96 241.567 89.64L229.447 90.06Z" fill="white"/>
<rect x="270.5" y="0.5" width="90" height="120" fill="#FF0561"/>
<rect x="270.5" y="0.5" width="90" height="120" stroke="black"/>
<path d="M319.447 90.06C320.647 83.4 322.087 76.2 323.707 68.82C315.367 75.3 300.307 83.52 287.287 85.08C288.907 79.14 292.327 67.98 294.427 60.96C292.867 61.2 291.547 61.32 290.587 61.44L293.107 53.58C297.427 53.22 307.627 52.02 311.347 51.54C312.247 48.66 313.567 44.7 314.467 41.58C310.807 41.88 301.327 42.66 294.847 43.32L297.187 36.24L327.787 33.84C326.167 39.84 322.027 52.32 320.527 57.36C318.367 57.6 312.367 58.5 306.247 59.34C304.867 63.72 303.067 69.66 302.347 72.12C309.067 70.5 316.687 67.02 325.267 61.74C327.607 51.72 330.187 41.7 332.767 32.76L343.867 31.74C341.467 39.9 339.367 48.54 337.567 57.06C340.267 56.76 342.967 56.4 345.727 56.04L343.867 63.72C341.287 64.08 338.587 64.5 335.947 64.86C334.267 73.5 332.827 81.96 331.567 89.64L319.447 90.06Z" fill="white"/>
<rect x="0.5" y="60.5" width="90" height="120" fill="#FF0561"/>
<rect x="0.5" y="60.5" width="90" height="120" stroke="black"/>
<path d="M17.4683 140.76L28.8083 139.8C31.3883 132.78 35.6483 120.84 37.8083 115.26L49.8083 114.48C47.3483 121.14 43.5683 132.48 41.4083 138.78C53.4083 137.76 65.9483 136.74 69.1283 136.5L67.2683 144.06C62.2883 144.48 22.2083 148.44 15.4283 149.16L17.4683 140.76ZM26.4683 105.66L29.2283 97.5C39.4883 96.72 62.4683 95.22 75.3083 94.38C71.1083 105.54 65.3483 120.84 60.6083 133.14L49.2083 134.1C53.7083 121.74 57.9683 109.44 60.1883 103.14C48.7883 103.92 32.3483 105.18 26.4683 105.66Z" fill="white"/>
<rect x="90.5" y="30.5" width="90" height="120" fill="#FF0561"/>
<rect x="90.5" y="30.5" width="90" height="120" stroke="black"/>
<path d="M140.047 120.06C143.227 102.12 148.267 80.4 153.367 62.76L164.467 61.74C162.067 69.9 159.967 78.54 158.167 87.06C160.867 86.76 163.567 86.4 166.327 86.04L164.467 93.72C161.887 94.08 159.187 94.5 156.547 94.86C154.867 103.5 153.427 111.96 152.167 119.64L140.047 120.06ZM104.647 115.32C108.727 98.4 115.147 76.8 119.347 63.78L130.387 63.06C129.847 64.68 129.307 66.36 128.767 68.1C134.347 67.5 141.907 66.84 150.307 66.24L135.907 99.42C137.467 99 138.967 98.64 140.347 98.22L141.247 104.52C135.667 106.32 127.207 108.6 119.947 109.74L119.347 104.52C118.627 107.7 118.027 110.76 117.427 113.58L104.647 115.32ZM119.767 102.48C121.627 102.24 123.547 101.94 125.467 101.58C129.727 91.5 135.007 78.06 136.807 73.68L126.787 74.64C124.207 83.64 121.807 93.54 119.767 102.48Z" fill="white"/>
</svg>
