<svg width="361" height="151" viewBox="0 0 361 151" fill="none" xmlns="http://www.w3.org/2000/svg">
<rect x="0.5" y="0.5" width="90" height="120" fill="#FF0561"/>
<rect x="0.5" y="0.5" width="90" height="120" stroke="black"/>
<path d="M37.1459 90.06C38.1659 84.72 39.3659 79.02 40.6859 73.26C34.0259 77.58 24.1859 82.26 15.4859 83.28C18.4259 71.7 25.1459 48.72 28.9259 35.58L39.0659 35.4C36.3059 45.24 31.2059 64.44 29.3459 71.7C33.1859 70.68 37.4459 68.94 42.2459 66.48C45.0059 54.9 48.1859 43.14 51.3659 32.76L62.1659 31.74C59.6459 39.48 57.4859 47.64 55.5659 55.74L60.9659 54.84C62.7659 47.16 64.7459 39.66 66.6659 32.76L77.4659 31.74C71.8859 50.76 67.9859 72.24 65.1659 89.64L53.6459 90.06C55.1459 81.48 57.0659 72 59.1659 62.58C57.3659 62.88 55.5659 63.24 53.7659 63.54C51.7859 72.66 50.1059 81.6 48.6659 89.64L37.1459 90.06Z" fill="white"/>
<rect x="180.5" y="0.5" width="90" height="120" fill="#FF0561"/>
<rect x="180.5" y="0.5" width="90" height="120" stroke="black"/>
<path d="M236.422 60.18C238.462 51.72 241.162 41.22 243.382 32.88L255.382 31.92C252.562 40.86 249.322 51.12 247.042 59.34L236.422 60.18ZM198.262 63.12C201.142 53.28 204.862 40.68 207.562 33.18L218.602 32.46C218.242 33.42 217.822 34.38 217.462 35.4C222.802 34.92 230.122 34.32 238.222 33.84C236.062 38.94 232.822 46.26 230.902 50.64C231.622 50.46 232.342 50.34 233.062 50.16L233.602 56.52C227.602 58.02 218.542 59.82 210.862 60.6L210.562 55.86C209.902 57.9 209.362 59.76 208.942 61.38L198.262 63.12ZM200.242 81.84L202.282 74.58C209.482 74.16 226.822 72.84 233.062 72.24L234.022 68.58C228.262 69 213.382 70.02 203.182 70.92L205.162 63.84C214.282 63.18 237.382 61.44 246.982 60.78C245.782 65.16 243.502 74.16 242.602 77.76L215.362 80.34C215.302 83.76 217.162 85.02 222.742 84.96C229.822 84.9 241.222 83.22 252.382 78L249.382 84.36C240.802 89.1 230.902 91.14 222.862 91.38C207.442 91.86 203.242 88.38 203.662 81.48C202.342 81.66 201.142 81.72 200.242 81.84ZM211.342 53.34C214.402 53.04 217.642 52.68 220.822 52.26C222.622 48.18 224.722 42.96 225.322 41.28C222.862 41.46 218.782 41.82 215.062 42.06C213.742 45.84 212.482 49.74 211.342 53.34Z" fill="white"/>
<rect x="270.5" y="0.5" width="90" height="120" fill="#FF0561"/>
<rect x="270.5" y="0.5" width="90" height="120" stroke="black"/>
<path d="M313.928 53.88C300.128 54.3 294.548 49.86 297.068 42.66C298.988 37.2 308.528 32.82 321.848 32.4C336.368 31.98 343.208 35.82 341.648 42C339.908 49.02 328.628 53.46 313.928 53.88ZM288.128 64.44L291.068 57.06C296.108 56.76 336.608 54.84 342.728 54.54L340.268 61.44C335.288 61.68 294.968 64.02 288.128 64.44ZM289.928 83.04L291.968 76.08C299.528 75.6 318.308 74.46 324.248 73.98L324.788 71.58C318.788 71.94 301.688 73.02 292.868 73.62L294.848 66.54C303.608 66 327.728 64.62 337.628 64.08C336.428 68.1 334.388 76.5 333.488 79.8L305.048 81.9C305.048 84.12 307.028 85.02 313.028 84.96C320.228 84.9 331.868 83.22 343.268 78L340.268 84.36C331.508 89.1 321.368 91.14 313.148 91.38C296.828 91.86 292.748 88.8 293.348 82.74C292.028 82.86 290.888 82.98 289.928 83.04ZM306.848 43.26C306.248 45.3 309.068 46.5 316.208 46.2C322.628 45.96 330.008 44.94 330.728 42.24C331.208 40.44 327.668 39.66 320.108 40.02C313.868 40.26 307.508 41.16 306.848 43.26Z" fill="white"/>
<rect x="90.5" y="30.5" width="90" height="120" fill="#FF0561"/>
<rect x="90.5" y="30.5" width="90" height="120" stroke="black"/>
<path d="M140.92 122.088C144.259 103.251 149.551 80.445 154.906 61.923L166.561 60.852C160.702 80.823 156.607 103.377 153.646 121.647L140.92 122.088ZM102.679 117.741C106.648 100.353 114.397 73.515 117.925 62.364L130.147 61.608C128.383 67.467 125.926 75.72 123.469 84.288C126.493 83.91 129.769 83.469 133.045 83.028C134.935 76.413 136.699 70.176 137.77 66.081L149.488 64.947C146.653 74.397 141.487 90.399 138.4 100.227L141.235 99.471L142.18 106.086C135.817 108.102 126.178 110.622 117.925 111.882L117.358 106.968C116.602 109.992 115.909 112.764 115.405 115.095C110.428 116.103 106.081 117.048 102.679 117.741ZM118.051 104.259C121.138 103.818 124.414 103.251 127.564 102.621L131.092 89.958C127.942 90.462 124.729 90.903 121.516 91.407C120.256 95.817 119.059 100.227 118.051 104.259Z" fill="white"/>
</svg>
