<svg width="361" height="151" viewBox="0 0 361 151" fill="none" xmlns="http://www.w3.org/2000/svg">
<rect x="0.5" y="30.5" width="90" height="120" fill="#FF0561"/>
<rect x="0.5" y="30.5" width="90" height="120" stroke="black"/>
<path d="M55.8071 90.18C57.8471 81.72 60.5471 71.22 62.7671 62.88L74.7671 61.92L71.5271 72.24L77.4671 71.64L75.5471 79.32L69.1271 80.04C68.1671 83.34 67.2071 86.46 66.4271 89.34L55.8071 90.18ZM18.8471 93.12C21.7271 83.28 25.4471 70.68 28.1471 63.18L39.1871 62.46C38.8271 63.42 38.4071 64.38 38.0471 65.4C43.2671 64.92 50.3471 64.32 58.2071 63.84C56.0471 68.94 52.8071 76.26 50.8271 80.64C51.6071 80.46 52.3271 80.34 53.0471 80.16L53.5871 86.52C47.7671 88.02 38.9471 89.82 31.4471 90.6L31.1471 85.86C30.4871 87.9 29.9471 89.76 29.5271 91.38L18.8471 93.12ZM19.6271 111.84L21.6671 104.58C28.8671 104.16 46.2071 102.84 52.4471 102.24L53.4071 98.58C47.6471 99 32.7671 100.02 22.5671 100.92L24.5471 93.84C33.6671 93.18 56.7671 91.44 66.3671 90.78C65.1671 95.16 62.8871 104.16 61.9871 107.76L34.7471 110.34C34.6871 113.76 36.5471 115.02 42.1271 114.96C49.2071 114.9 60.6071 113.22 71.7671 108L68.7671 114.36C60.1871 119.1 50.2871 121.14 42.2471 121.38C26.8271 121.86 22.6271 118.38 23.0471 111.48C21.7271 111.66 20.5271 111.72 19.6271 111.84ZM31.9271 83.34C34.8071 83.1 37.8071 82.74 40.7471 82.32C42.5471 78.24 44.7071 72.96 45.3071 71.28C42.9671 71.46 39.1271 71.76 35.6471 72.06C34.3271 75.84 33.0671 79.74 31.9271 83.34Z" fill="white"/>
<rect x="90.5" y="0.5" width="90" height="120" fill="#FF0561"/>
<rect x="90.5" y="0.5" width="90" height="120" stroke="black"/>
<path d="M130.746 90.06C134.166 72.12 139.506 50.4 144.966 32.76L155.166 31.74C152.406 40.32 150.006 49.38 147.966 58.38L150.846 57.84C152.886 49.14 155.046 40.56 157.266 32.76L167.466 31.74C161.886 50.76 157.986 72.24 155.166 89.64L144.246 90.06C145.566 82.38 147.246 74.04 149.106 65.58L146.226 66.12C144.486 74.34 142.986 82.38 141.666 89.64L130.746 90.06ZM107.346 66.84C109.206 59.16 114.426 51.9 122.526 51.3C131.106 50.76 135.906 56.46 134.226 65.88C132.366 75.66 125.406 82.14 116.766 82.5C108.366 82.86 105.186 75.72 107.346 66.84ZM108.726 51.18L110.766 43.02C112.626 42.84 115.926 42.48 119.706 42.06C120.486 39.6 121.866 35.1 122.466 32.94L133.266 32.16C132.486 34.5 131.226 37.98 130.146 40.98C134.646 40.5 138.726 40.08 140.826 39.9L138.726 48.18C134.346 48.66 115.626 50.46 108.726 51.18ZM115.686 66.66C114.546 71.34 116.046 74.04 118.386 73.98C121.566 73.86 124.326 70.44 125.346 65.64C126.306 61.2 124.086 59.52 121.566 59.7C118.926 59.88 116.706 62.58 115.686 66.66Z" fill="white"/>
<rect x="180.5" y="0.5" width="90" height="120" fill="#FF0561"/>
<rect x="180.5" y="0.5" width="90" height="120" stroke="black"/>
<path d="M199.868 66.36C204.908 65.88 245.408 62.58 251.528 62.1L249.668 69.66C247.568 69.84 239.048 70.68 229.508 71.58C227.048 78.72 224.468 86.4 223.388 89.58L210.608 90.78L217.208 72.84C208.328 73.68 200.528 74.46 197.828 74.76L199.868 66.36ZM200.588 63.6C210.788 57.54 221.048 49.74 228.188 43.32C220.928 43.8 212.048 44.46 208.148 44.64L210.368 36.12C215.588 35.82 235.448 34.74 248.828 34.14C246.188 37.86 242.588 41.76 238.508 45.54L242.648 45.12C243.908 50.34 247.448 55.56 251.888 59.94L238.268 60.78C235.628 58.14 233.528 54.54 232.388 51C227.348 55.26 222.188 59.16 217.988 62.22L200.588 63.6Z" fill="white"/>
<rect x="270.5" y="30.5" width="90" height="120" fill="#FF0561"/>
<rect x="270.5" y="30.5" width="90" height="120" stroke="black"/>
<path d="M297.666 113.46C303.786 100.02 309.246 83.64 312.726 72.9C311.886 73.08 310.626 73.26 309.126 73.5C304.326 90.18 299.586 103.2 295.326 112.8L284.466 113.46C290.826 100.14 296.526 83.76 300.126 73.08C298.206 73.38 293.406 74.1 290.046 74.64L292.386 67.02C296.586 66.48 307.146 65.16 311.586 64.68C311.466 65.16 311.346 65.7 311.166 66.18C315.906 65.46 321.306 64.74 324.186 64.38C322.206 72 320.226 78.96 318.306 85.26C319.686 85.14 321.006 84.96 322.326 84.78C324.306 77.1 326.466 69.66 328.566 62.76L337.866 61.74C331.746 80.76 327.486 102.24 324.366 119.64L314.346 120.06C315.966 111.48 318.066 102 320.406 92.52C318.846 92.76 317.346 92.94 315.846 93.18C313.266 100.86 310.866 107.34 308.526 112.8L297.666 113.46ZM326.346 120.06C329.466 102.12 334.386 80.4 339.366 62.76L348.666 61.74C343.086 80.76 339.186 102.24 336.366 119.64L326.346 120.06Z" fill="white"/>
</svg>
