<svg width="271" height="181" viewBox="0 0 271 181" fill="none" xmlns="http://www.w3.org/2000/svg">
<rect x="0.5" y="0.5" width="90" height="120" fill="#FF0561"/>
<rect x="0.5" y="0.5" width="90" height="120" stroke="black"/>
<path d="M33.9735 55.359C38.5725 54.981 42.0375 52.083 43.0455 47.736C44.1795 42.885 42.1635 40.806 38.3205 40.932C33.5955 41.058 30.3825 44.712 29.3115 48.429C27.9885 53.28 30.5715 55.611 33.9735 55.359ZM18.8535 48.933C21.1845 39.735 30.2565 32.742 40.8405 32.553C49.5345 32.427 55.5825 36.9 55.1415 44.586L60.9375 43.893C62.1975 39.294 63.3945 34.947 64.2765 32.049L76.8765 31.041C74.2305 39.357 68.7495 55.359 66.5445 63.864L55.4565 64.368L58.9215 51.327L52.9365 52.083C49.2825 59.076 41.4705 63.297 32.1465 63.927C21.8145 64.62 16.4595 58.509 18.8535 48.933ZM19.7355 75.834L22.5075 67.896C31.7055 67.329 54.8895 65.943 66.2925 65.439C63.0795 77.283 60.5595 86.355 58.7955 92.655L47.0775 93.033C49.0305 86.796 51.2355 78.921 52.6845 73.944C45.6915 74.259 30.4455 75.267 19.7355 75.834Z" fill="white"/>
<rect x="90.5" y="30.5" width="90" height="120" fill="#FF0561"/>
<rect x="90.5" y="30.5" width="90" height="120" stroke="black"/>
<path d="M109.343 93.738C121.124 84.351 133.094 71.436 138.827 63.372L151.805 62.742C149.348 66.711 146.198 70.869 142.733 74.838L151.616 73.956C152.939 79.5 156.656 85.17 161.318 89.895L147.017 90.777C143.615 87.312 141.158 82.398 140.213 77.736C135.173 83.343 129.944 88.446 125.723 92.289L109.343 93.738ZM106.445 104.763L108.587 95.943C113.879 95.439 156.404 91.974 162.83 91.47L160.877 99.408C158.672 99.597 150.041 100.416 140.15 101.424C137.441 109.236 134.48 118.056 133.283 121.584L119.864 122.844C121.439 118.686 124.589 109.992 127.235 102.684C117.785 103.629 109.28 104.448 106.445 104.763Z" fill="white"/>
<rect x="180.5" y="60.5" width="90" height="120" fill="#FF0561"/>
<rect x="180.5" y="60.5" width="90" height="120" stroke="black"/>
<path d="M199.595 134.196C201.233 129.282 203.123 123.36 204.635 118.698C202.934 118.824 201.422 118.95 200.288 119.013L202.934 110.445C211.061 109.752 230.906 108.177 237.899 107.484C238.529 105.972 239.411 103.578 240.041 102.003C233.363 102.444 216.416 103.956 204.635 104.838L207.092 95.829C217.676 95.073 244.451 93.309 255.602 92.679C253.964 98.349 249.995 110.256 248.42 114.981C244.01 115.359 229.772 116.619 217.487 117.627C216.857 119.958 216.227 122.415 215.975 123.549C223.724 122.919 243.38 121.155 251.003 120.399L247.727 129.471L230.591 131.109C229.835 133.944 229.016 137.094 228.386 139.614C238.466 138.795 247.601 138.039 250.31 137.85L248.357 145.788C243.128 146.229 201.044 150.387 193.925 151.143L196.067 142.323C198.146 142.134 206.021 141.441 215.156 140.685C215.975 138.165 216.857 135.015 217.676 132.369C211.061 133.062 204.698 133.692 199.595 134.196Z" fill="white"/>
</svg>
