<svg width="361" height="121" viewBox="0 0 361 121" fill="none" xmlns="http://www.w3.org/2000/svg">
<rect x="0.5" y="0.5" width="90" height="120" fill="#FF0561"/>
<rect x="0.5" y="0.5" width="90" height="120" stroke="black"/>
<path d="M56.1223 61.38C56.5423 59.52 57.0223 57.54 57.5623 55.56L49.5823 56.52C49.2823 57.48 48.9823 58.32 48.6823 59.16C42.9823 60.18 26.6623 63.06 18.3223 64.44C20.5423 56.88 25.4023 39.72 26.8423 34.38L37.7623 32.52C36.6823 35.76 35.4223 40.2 34.1623 44.4C37.2223 43.92 41.1223 43.26 43.6423 42.9C44.6623 40.08 45.6223 37.26 46.3423 35.1L57.5623 33.72L55.7623 39L61.9423 38.28L63.3823 32.88L75.3823 31.92C72.4423 41.28 69.0823 51.96 66.7423 60.54L56.1223 61.38ZM20.0623 82.44L22.1023 75.18C29.3023 74.76 46.6423 73.44 52.8823 72.84L53.7223 69.78C47.9623 70.2 33.1423 71.22 23.0023 72.12L24.9823 65.04C34.1023 64.38 57.0823 62.64 66.6823 61.98C65.5423 66.18 63.3223 74.88 62.4223 78.36L35.3623 80.94C35.5423 83.88 37.5223 85.02 42.7423 84.96C49.8223 84.9 61.2223 83.22 72.3823 78L69.3823 84.36C60.8023 89.1 50.9023 91.14 42.8623 91.38C27.8623 91.8 23.4823 88.56 23.6023 82.08C22.2223 82.2 21.0223 82.32 20.0623 82.44ZM31.0423 55.56C32.7823 55.32 37.7623 54.54 39.5623 54.18C40.0423 52.86 40.6423 51.18 41.3623 49.32C38.7823 49.68 35.2423 50.16 32.4223 50.58C31.8823 52.62 31.4023 54.36 31.0423 55.56ZM52.1623 49.32L59.3023 48.48C59.6023 47.4 59.8423 46.38 60.0823 45.36L53.2423 46.2L52.1623 49.32Z" fill="white"/>
<rect x="90.5" y="0.5" width="90" height="120" fill="#FF0561"/>
<rect x="90.5" y="0.5" width="90" height="120" stroke="black"/>
<path d="M109.282 83.46C119.002 70.02 128.722 53.52 133.342 42.78C129.262 43.14 119.002 44.16 111.862 44.82L114.202 37.2C121.402 36.54 139.642 34.92 147.202 34.38C144.442 42 141.442 48.96 138.382 55.26C141.682 54.9 144.982 54.54 148.282 54.24C150.142 46.74 152.062 39.48 153.982 32.76L165.082 31.74C159.502 50.76 155.602 72.24 152.782 89.64L140.662 90.06C142.222 81.3 144.202 71.64 146.422 61.98C142.642 62.46 138.682 62.94 134.182 63.42C130.162 70.98 126.142 77.4 122.542 82.8L109.282 83.46Z" fill="white"/>
<rect x="180.5" y="0.5" width="90" height="120" fill="#FF0561"/>
<rect x="180.5" y="0.5" width="90" height="120" stroke="black"/>
<path d="M235.162 61.38L238.462 49.74L232.462 50.46C228.922 56.58 221.482 60.24 212.782 60.84C202.942 61.5 198.022 56.04 200.122 47.46C202.222 39.18 210.982 32.94 221.062 32.76C229.282 32.64 234.922 36.54 234.622 43.32L240.502 42.66C241.582 38.82 242.662 35.28 243.382 32.88L255.382 31.92C252.922 39.24 247.762 53.28 245.722 60.78L235.162 61.38ZM192.082 93C194.782 84.96 199.882 70.5 202.282 64.5L212.482 63.78C211.582 66 210.442 68.82 209.302 71.88C211.342 71.7 213.502 71.52 215.662 71.28C216.802 68.22 217.882 65.34 218.542 63.48L228.502 63C226.462 68.16 219.742 85.44 218.242 89.1L204.562 91.56L203.902 86.28C203.122 88.44 202.462 90.36 201.982 91.8L192.082 93ZM204.502 84.6L211.222 83.4C211.762 82.08 212.422 80.16 213.202 78.06C211.042 78.24 208.882 78.48 206.722 78.72C205.942 80.7 205.222 82.74 204.502 84.6ZM210.082 46.98C209.002 51 211.282 52.92 214.522 52.68C218.902 52.32 222.322 49.98 223.162 46.32C224.062 42.3 222.322 40.62 218.662 40.74C214.162 40.86 210.982 43.86 210.082 46.98ZM218.302 90.06C225.322 81.54 231.142 71.1 234.802 62.82L244.162 62.4C242.902 65.58 241.402 68.82 239.722 72C241.882 76.8 244.822 81.84 248.182 86.04L238.702 87.3C237.562 85.32 236.362 82.74 235.282 79.92C233.302 83.16 231.382 86.16 229.702 88.56L218.302 90.06Z" fill="white"/>
<rect x="270.5" y="0.5" width="90" height="120" fill="#FF0561"/>
<rect x="270.5" y="0.5" width="90" height="120" stroke="black"/>
<path d="M287.287 83.28C289.687 73.92 294.607 56.7 298.207 44.22C295.927 44.4 294.067 44.58 292.747 44.64L295.207 36.78C302.767 36.24 322.207 34.74 327.607 34.44L325.027 41.82C322.687 42 316.387 42.6 309.787 43.2C307.207 52.32 303.727 65.1 302.347 70.32C309.187 68.7 316.927 65.04 325.747 59.7C327.967 50.34 330.367 41.1 332.767 32.76L343.867 31.74C341.467 39.9 339.367 48.54 337.567 57.06C340.267 56.76 342.967 56.4 345.727 56.04L343.867 63.72C341.287 64.08 338.587 64.5 335.947 64.86C334.267 73.5 332.827 81.96 331.567 89.64L319.447 90.06C320.767 82.74 322.387 74.76 324.187 66.66C315.967 73.2 300.607 81.66 287.287 83.28Z" fill="white"/>
</svg>
