<svg width="708" height="51" viewBox="0 0 708 51" fill="none" xmlns="http://www.w3.org/2000/svg">
<rect x="0.5" y="0.5" width="707" height="50" fill="white"/>
<rect x="0.5" y="0.5" width="707" height="50" stroke="#FF0561"/>
<path d="M37.36 37.96H35.35V21.43H28.69V19.75H35.35V11.29H37.36V37.96ZM31.84 30.25L30.64 31.69C27.07 29.74 23.71 26.11 22.66 22.69C21.55 26.47 18.7 29.95 14.59 32.47L13.24 31.21C17.86 28.51 21.52 23.86 21.52 17.5V12.46H23.65V17.5C23.65 23.62 27.67 28.18 31.84 30.25ZM65.4377 15.91C65.4377 18.67 61.6577 20.71 55.5677 20.71C49.4777 20.71 45.7877 18.67 45.7877 15.91C45.7877 13.15 49.4777 11.11 55.5677 11.11C61.6577 11.11 65.4377 13.15 65.4377 15.91ZM65.6177 37.66H46.1777V31.63H62.9777V28.9H46.1777V27.31H54.5777V24.25H42.5477V22.66H68.7077V24.25H56.6477V27.31H64.9877V33.13H48.1877V36.07H65.6177V37.66ZM63.4277 15.94C63.4277 13.84 60.0377 12.67 55.5677 12.67C51.1277 12.67 47.7677 13.84 47.7677 15.94C47.7677 18.01 51.1277 19.18 55.5677 19.18C60.0377 19.18 63.4277 18.01 63.4277 15.94ZM105.043 33.37C105.043 36.28 101.353 38.41 95.3228 38.41C89.2928 38.41 85.6028 36.28 85.6028 33.37C85.6028 30.46 89.2928 28.33 95.3228 28.33C101.353 28.33 105.043 30.46 105.043 33.37ZM103.003 33.37C103.003 31.18 99.7328 29.89 95.3228 29.89C90.8828 29.89 87.6428 31.18 87.6428 33.37C87.6428 35.59 90.8828 36.85 95.3228 36.85C99.7328 36.85 103.003 35.59 103.003 33.37ZM99.2228 25.03L98.1128 26.47C94.9028 25.54 91.7528 23.23 90.5228 20.68C89.5328 23.35 86.2928 26.05 82.6028 27.46L81.4028 26.05C85.7228 24.7 89.4128 20.89 89.4128 17.62V17.08H82.9328V15.46H97.8728V17.08H91.5428V17.62C91.5428 20.86 95.3228 24.04 99.2228 25.03ZM104.533 28.15H102.523V20.95H97.2128V19.33H102.523V11.29H104.533V28.15ZM94.6028 13H86.2028V11.41H94.6028V13ZM133.99 37.54H115.15V29.2H117.16V35.92H133.99V37.54ZM128.8 23.32V24.91C125.68 25.6 120.79 25.93 116.59 25.93H112V12.07H113.98V24.28H116.59C120.64 24.28 125.5 23.95 128.8 23.32ZM133 31.06H131.02V20.62H122.68V19H131.02V15.91H122.68V14.29H131.02V11.29H133V31.06ZM174.376 26.47H162.616V32.77H160.576V26.47H148.216V24.85H174.376V26.47ZM171.856 37.54H151.906V29.56H153.916V35.89H171.856V37.54ZM172.756 20.77L171.646 22.18C167.116 21.16 162.796 18.64 161.266 15.58C159.796 18.64 155.446 21.16 150.946 22.18L149.836 20.77C154.696 19.81 160.216 16.54 160.216 12.61V11.35H162.346V12.61C162.346 16.54 167.866 19.81 172.756 20.77ZM199.933 17.59C199.933 21.04 196.213 23.74 190.003 23.74C183.823 23.74 180.103 21.04 180.103 17.59C180.103 14.17 183.823 11.47 190.003 11.47C196.213 11.47 199.933 14.17 199.933 17.59ZM197.923 17.59C197.923 14.8 194.533 13.09 190.003 13.09C185.533 13.09 182.113 14.8 182.113 17.59C182.113 20.41 185.533 22.12 190.003 22.12C194.533 22.12 197.923 20.41 197.923 17.59ZM195.793 37.96H193.813V28.15H186.373V37.72H184.333V28.15H176.983V26.53H203.173V28.15H195.793V37.96ZM229.361 25.51H227.351V11.29H229.361V25.51ZM229.331 37.66H211.481V26.8H213.491V30.49H227.321V26.8H229.331V37.66ZM227.321 36.1V32.02H213.491V36.1H227.321ZM214.331 24.58C210.011 24.58 207.101 21.7 207.101 18.16C207.101 14.62 210.011 11.77 214.331 11.77C218.591 11.77 221.531 14.62 221.531 18.16C221.531 21.7 218.591 24.58 214.331 24.58ZM214.331 13.39C211.031 13.39 209.141 15.52 209.141 18.16C209.141 20.83 211.031 22.96 214.331 22.96C217.601 22.96 219.521 20.83 219.521 18.16C219.521 15.52 217.601 13.39 214.331 13.39ZM245.416 34.45L245.956 32.98C247.786 33.85 250.066 34.36 252.406 34.36C255.796 34.36 258.286 32.77 258.286 29.35C258.286 25.81 254.746 24.52 251.056 24.52H248.776V22.96H251.056C254.776 22.96 257.626 21.55 257.626 18.37C257.626 15.58 255.496 14.17 252.436 14.17C250.516 14.17 248.506 14.56 246.646 15.55L246.016 14.08C247.996 13.09 250.336 12.64 252.526 12.64C256.546 12.64 259.546 14.65 259.546 18.25C259.546 21.01 257.896 22.81 255.196 23.59V23.65C258.286 24.34 260.206 26.41 260.206 29.35C260.206 33.49 256.906 35.89 252.376 35.89C249.886 35.89 247.156 35.41 245.416 34.45ZM288.025 37.54H269.185V29.2H271.195V35.92H288.025V37.54ZM282.835 23.32V24.91C279.715 25.6 274.825 25.93 270.625 25.93H266.035V12.07H268.015V24.28H270.625C274.675 24.28 279.535 23.95 282.835 23.32ZM287.035 31.06H285.055V20.62H276.715V19H285.055V15.91H276.715V14.29H285.055V11.29H287.035V31.06ZM325.8 31.09H323.79V22.63H316.86C315.6 24.46 313.44 25.66 310.77 25.66C306.42 25.66 303.48 22.6 303.48 18.76C303.48 14.86 306.42 11.77 310.77 11.77C313.35 11.77 315.42 12.91 316.74 14.62H323.79V11.29H325.8V31.09ZM310.77 24.04C314.07 24.04 316.02 21.7 316.02 18.73C316.02 15.73 314.07 13.39 310.77 13.39C307.44 13.39 305.52 15.73 305.52 18.73C305.52 21.7 307.44 24.04 310.77 24.04ZM326.79 37.54H307.95V28.66H309.96V35.92H326.79V37.54ZM323.79 21.01V16.24H317.58C317.91 17.02 318.03 17.89 318.03 18.76C318.03 19.57 317.94 20.32 317.67 21.01H323.79ZM353.428 38.11H351.418V30.97H334.288V29.35H353.428V38.11ZM357.208 26.26H331.048V24.64H343.138V20.29H345.178V24.64H357.208V26.26ZM355.588 20.17L354.478 21.58C350.068 20.68 345.778 18.28 344.098 15.28C342.448 18.28 338.158 20.68 333.778 21.58L332.668 20.17C337.438 19.33 343.048 16.24 343.048 12.31V11.35H345.178V12.31C345.178 16.24 350.788 19.33 355.588 20.17ZM392.523 33.19C392.523 36.22 388.923 38.41 382.533 38.41C376.173 38.41 372.543 36.22 372.543 33.19C372.543 30.19 376.173 27.97 382.533 27.97C388.923 27.97 392.523 30.19 392.523 33.19ZM390.513 33.19C390.513 31 387.513 29.53 382.533 29.53C377.553 29.53 374.553 31 374.553 33.19C374.553 35.38 377.553 36.85 382.533 36.85C387.513 36.85 390.513 35.38 390.513 33.19ZM393.993 20.26L392.913 21.7C388.443 21.04 384.273 18.79 382.563 15.91C380.883 18.85 376.743 21.01 372.303 21.7L371.193 20.26C375.963 19.57 380.913 16.99 381.483 13.78H372.843V12.16H392.283V13.78H383.703C384.273 17.02 389.403 19.63 393.993 20.26ZM395.643 25.63H369.483V24.01H395.643V25.63ZM400.141 32.26L398.851 30.91C405.931 27.46 409.891 21.46 410.641 14.68H400.501V13.06H412.831C412.411 22.09 407.221 28.69 400.141 32.26ZM420.421 37.96H418.441V11.29H420.421V21.7H424.921V23.41H420.421V37.96ZM451.319 24.13C451.319 25.12 450.629 25.81 449.549 25.81C448.559 25.81 447.809 25.12 447.809 24.13C447.809 23.11 448.559 22.45 449.669 22.45C450.629 22.45 451.319 23.17 451.319 24.13ZM441.869 24.13C441.869 25.12 441.149 25.81 440.069 25.81C439.079 25.81 438.359 25.12 438.359 24.13C438.359 23.11 439.079 22.45 440.189 22.45C441.149 22.45 441.869 23.17 441.869 24.13ZM432.479 24.13C432.479 25.12 431.729 25.81 430.589 25.81C429.629 25.81 428.909 25.12 428.909 24.13C428.909 23.11 429.629 22.45 430.739 22.45C431.699 22.45 432.479 23.17 432.479 24.13ZM471.656 18.76C471.656 22.6 468.686 25.66 464.396 25.66C460.046 25.66 457.106 22.6 457.106 18.76C457.106 14.86 460.046 11.77 464.396 11.77C468.686 11.77 471.656 14.86 471.656 18.76ZM464.396 24.04C467.696 24.04 469.646 21.7 469.646 18.73C469.646 15.73 467.696 13.39 464.396 13.39C461.066 13.39 459.146 15.73 459.146 18.73C459.146 21.7 461.066 24.04 464.396 24.04ZM479.426 31.09H477.416V11.29H479.426V31.09ZM480.416 37.54H461.576V28.66H463.586V35.92H480.416V37.54ZM510.864 25.96H498.384V37.96H496.374V25.96H484.644V24.34H503.934C504.594 21.13 505.104 17.47 505.314 14.26H487.704V12.64H507.384C507.234 16.24 506.574 21.1 505.974 24.34H510.864V25.96ZM539.631 26.56H513.471V24.94H539.631V26.56ZM536.601 20.89H517.131V11.38H519.141V19.27H536.601V20.89ZM537.111 37.54H517.161V29.2H519.171V35.89H537.111V37.54ZM553.077 34.45L553.617 32.98C555.447 33.85 557.727 34.36 560.067 34.36C563.457 34.36 565.947 32.77 565.947 29.35C565.947 25.81 562.407 24.52 558.717 24.52H556.437V22.96H558.717C562.437 22.96 565.287 21.55 565.287 18.37C565.287 15.58 563.157 14.17 560.097 14.17C558.177 14.17 556.167 14.56 554.307 15.55L553.677 14.08C555.657 13.09 557.997 12.64 560.187 12.64C564.207 12.64 567.207 14.65 567.207 18.25C567.207 21.01 565.557 22.81 562.857 23.59V23.65C565.947 24.34 567.867 26.41 567.867 29.35C567.867 33.49 564.567 35.89 560.037 35.89C557.547 35.89 554.817 35.41 553.077 34.45ZM595.686 37.54H576.846V29.2H578.856V35.92H595.686V37.54ZM590.496 23.32V24.91C587.376 25.6 582.486 25.93 578.286 25.93H573.696V12.07H575.676V24.28H578.286C582.336 24.28 587.196 23.95 590.496 23.32ZM594.696 31.06H592.716V20.62H584.376V19H592.716V15.91H584.376V14.29H592.716V11.29H594.696V31.06ZM616.563 30.55L615.243 31.81C613.623 29.89 612.513 27.4 612.033 25.24C611.493 27.73 610.113 30.55 608.433 32.35C606.783 30.55 605.433 27.73 604.893 25.24C604.353 27.58 603.033 30.28 601.293 32.29L599.673 31.3C601.893 28.93 603.933 24.85 603.933 19V14.86H601.263V13.24H608.043V14.86H605.883V19C605.883 23.17 606.933 27.04 608.433 29.47C610.023 27.04 611.013 23.17 611.013 19V14.86H608.943V13.24H615.573V14.86H613.023V19C613.023 24.25 614.673 28.33 616.563 30.55ZM624.933 37.96H622.983V22.87H619.473V36.7H617.583V11.74H619.473V21.13H622.983V11.29H624.933V37.96ZM661.209 37.66H643.719V27.79H661.209V37.66ZM659.199 36.04V29.41H645.699V36.04H659.199ZM640.239 26.53L639.129 25.09C645.729 23.41 650.679 19.12 651.549 14.29H640.719V12.67H653.829C653.199 20.05 646.989 24.52 640.239 26.53ZM661.269 26.35H659.289V11.29H661.269V17.71H665.349V19.39H661.269V26.35ZM692.376 25.33L691.296 26.8C686.976 25.42 682.386 22.3 680.556 18.31C678.756 22.3 674.196 25.42 669.846 26.8L668.736 25.33C673.806 23.86 679.506 19.6 679.506 14.62V12.4H681.636V14.62C681.636 19.6 687.336 23.86 692.376 25.33ZM693.696 34.27H667.476V32.65H679.536V25.45H681.606V32.65H693.696V34.27Z" fill="#FF0561"/>
</svg>
