<svg width="819" height="51" viewBox="0 0 819 51" fill="none" xmlns="http://www.w3.org/2000/svg">
<rect x="0.5" y="0.5" width="818" height="50" fill="white"/>
<rect x="0.5" y="0.5" width="818" height="50" stroke="#FF0561"/>
<path d="M37.36 37.96H35.35V21.43H28.69V19.75H35.35V11.29H37.36V37.96ZM31.84 30.25L30.64 31.69C27.07 29.74 23.71 26.11 22.66 22.69C21.55 26.47 18.7 29.95 14.59 32.47L13.24 31.21C17.86 28.51 21.52 23.86 21.52 17.5V12.46H23.65V17.5C23.65 23.62 27.67 28.18 31.84 30.25ZM65.4377 15.91C65.4377 18.67 61.6577 20.71 55.5677 20.71C49.4777 20.71 45.7877 18.67 45.7877 15.91C45.7877 13.15 49.4777 11.11 55.5677 11.11C61.6577 11.11 65.4377 13.15 65.4377 15.91ZM65.6177 37.66H46.1777V31.63H62.9777V28.9H46.1777V27.31H54.5777V24.25H42.5477V22.66H68.7077V24.25H56.6477V27.31H64.9877V33.13H48.1877V36.07H65.6177V37.66ZM63.4277 15.94C63.4277 13.84 60.0377 12.67 55.5677 12.67C51.1277 12.67 47.7677 13.84 47.7677 15.94C47.7677 18.01 51.1277 19.18 55.5677 19.18C60.0377 19.18 63.4277 18.01 63.4277 15.94ZM105.043 33.37C105.043 36.28 101.353 38.41 95.3228 38.41C89.2928 38.41 85.6028 36.28 85.6028 33.37C85.6028 30.46 89.2928 28.33 95.3228 28.33C101.353 28.33 105.043 30.46 105.043 33.37ZM103.003 33.37C103.003 31.18 99.7328 29.89 95.3228 29.89C90.8828 29.89 87.6428 31.18 87.6428 33.37C87.6428 35.59 90.8828 36.85 95.3228 36.85C99.7328 36.85 103.003 35.59 103.003 33.37ZM99.2228 25.03L98.1128 26.47C94.9028 25.54 91.7528 23.23 90.5228 20.68C89.5328 23.35 86.2928 26.05 82.6028 27.46L81.4028 26.05C85.7228 24.7 89.4128 20.89 89.4128 17.62V17.08H82.9328V15.46H97.8728V17.08H91.5428V17.62C91.5428 20.86 95.3228 24.04 99.2228 25.03ZM104.533 28.15H102.523V20.95H97.2128V19.33H102.523V11.29H104.533V28.15ZM94.6028 13H86.2028V11.41H94.6028V13ZM133.99 37.54H115.15V29.2H117.16V35.92H133.99V37.54ZM128.8 23.32V24.91C125.68 25.6 120.79 25.93 116.59 25.93H112V12.07H113.98V24.28H116.59C120.64 24.28 125.5 23.95 128.8 23.32ZM133 31.06H131.02V20.62H122.68V19H131.02V15.91H122.68V14.29H131.02V11.29H133V31.06ZM149.386 34.45L149.926 32.98C151.756 33.85 154.036 34.36 156.376 34.36C159.766 34.36 162.256 32.77 162.256 29.35C162.256 25.81 158.716 24.52 155.026 24.52H152.746V22.96H155.026C158.746 22.96 161.596 21.55 161.596 18.37C161.596 15.58 159.466 14.17 156.406 14.17C154.486 14.17 152.476 14.56 150.616 15.55L149.986 14.08C151.966 13.09 154.306 12.64 156.496 12.64C160.516 12.64 163.516 14.65 163.516 18.25C163.516 21.01 161.866 22.81 159.166 23.59V23.65C162.256 24.34 164.176 26.41 164.176 29.35C164.176 33.49 160.876 35.89 156.346 35.89C153.856 35.89 151.126 35.41 149.386 34.45ZM191.995 37.54H173.155V29.2H175.165V35.92H191.995V37.54ZM186.805 23.32V24.91C183.685 25.6 178.795 25.93 174.595 25.93H170.005V12.07H171.985V24.28H174.595C178.645 24.28 183.505 23.95 186.805 23.32ZM191.005 31.06H189.025V20.62H180.685V19H189.025V15.91H180.685V14.29H189.025V11.29H191.005V31.06ZM229.77 31.09H227.76V22.63H220.83C219.57 24.46 217.41 25.66 214.74 25.66C210.39 25.66 207.45 22.6 207.45 18.76C207.45 14.86 210.39 11.77 214.74 11.77C217.32 11.77 219.39 12.91 220.71 14.62H227.76V11.29H229.77V31.09ZM214.74 24.04C218.04 24.04 219.99 21.7 219.99 18.73C219.99 15.73 218.04 13.39 214.74 13.39C211.41 13.39 209.49 15.73 209.49 18.73C209.49 21.7 211.41 24.04 214.74 24.04ZM230.76 37.54H211.92V28.66H213.93V35.92H230.76V37.54ZM227.76 21.01V16.24H221.55C221.88 17.02 222 17.89 222 18.76C222 19.57 221.91 20.32 221.64 21.01H227.76ZM257.398 38.11H255.388V30.97H238.258V29.35H257.398V38.11ZM261.178 26.26H235.018V24.64H247.108V20.29H249.148V24.64H261.178V26.26ZM259.558 20.17L258.448 21.58C254.038 20.68 249.748 18.28 248.068 15.28C246.418 18.28 242.128 20.68 237.748 21.58L236.638 20.17C241.408 19.33 247.018 16.24 247.018 12.31V11.35H249.148V12.31C249.148 16.24 254.758 19.33 259.558 20.17ZM277.083 17.47H275.793L275.403 10.33H277.473L277.083 17.47ZM300.571 25L299.431 26.47C296.131 25.24 293.011 22.6 291.781 19.93C290.701 22.96 287.581 25.75 283.891 27.37L282.661 25.96C286.951 24.25 290.671 20.5 290.671 15.85V14.26H284.131V12.67H299.131V14.26H292.801V15.85C292.801 20.26 296.641 23.59 300.571 25ZM305.791 31.06H303.781V19.3H297.751V17.65H303.781V11.29H305.791V31.06ZM306.781 37.54H287.941V28.66H289.951V35.92H306.781V37.54ZM334.588 25.51H332.578V11.29H334.588V25.51ZM334.558 37.66H316.708V26.8H318.718V30.49H332.548V26.8H334.558V37.66ZM332.548 36.1V32.02H318.718V36.1H332.548ZM319.558 24.58C315.238 24.58 312.328 21.7 312.328 18.16C312.328 14.62 315.238 11.77 319.558 11.77C323.818 11.77 326.758 14.62 326.758 18.16C326.758 21.7 323.818 24.58 319.558 24.58ZM319.558 13.39C316.258 13.39 314.368 15.52 314.368 18.16C314.368 20.83 316.258 22.96 319.558 22.96C322.828 22.96 324.748 20.83 324.748 18.16C324.748 15.52 322.828 13.39 319.558 13.39ZM348.866 38.47L347.696 37.84L355.856 24.52L347.696 10.99L348.836 10.36L358.046 24.52L348.866 38.47ZM386.964 25L385.824 26.47C382.524 25.24 379.404 22.6 378.174 19.93C377.094 22.96 373.974 25.75 370.284 27.37L369.054 25.96C373.344 24.25 377.064 20.5 377.064 15.85V14.26H370.524V12.67H385.524V14.26H379.194V15.85C379.194 20.26 383.034 23.59 386.964 25ZM392.184 31.06H390.174V19.3H384.144V17.65H390.174V11.29H392.184V31.06ZM393.174 37.54H374.334V28.66H376.344V35.92H393.174V37.54ZM420.531 37.66H401.061V31.78H417.861V29.14H401.061V27.61H409.461V24.97H397.431V23.44H423.591V24.97H411.531V27.61H419.871V33.28H403.071V36.1H420.531V37.66ZM421.911 20.56L420.891 22.03C416.721 21.58 412.491 20.08 410.511 17.77C408.561 20.08 404.271 21.58 400.191 22.03L399.141 20.56C403.191 20.2 408.141 18.49 409.251 16.27H400.761V14.77H420.231V16.27H411.771C412.851 18.49 417.801 20.2 421.911 20.56ZM415.851 12.73H405.321V11.2H415.851V12.73ZM429.859 17.47H428.569L428.179 10.33H430.249L429.859 17.47ZM459.257 24.13C459.257 25.12 458.567 25.81 457.487 25.81C456.497 25.81 455.747 25.12 455.747 24.13C455.747 23.11 456.497 22.45 457.607 22.45C458.567 22.45 459.257 23.17 459.257 24.13ZM449.807 24.13C449.807 25.12 449.087 25.81 448.007 25.81C447.017 25.81 446.297 25.12 446.297 24.13C446.297 23.11 447.017 22.45 448.127 22.45C449.087 22.45 449.807 23.17 449.807 24.13ZM440.417 24.13C440.417 25.12 439.667 25.81 438.527 25.81C437.567 25.81 436.847 25.12 436.847 24.13C436.847 23.11 437.567 22.45 438.677 22.45C439.637 22.45 440.417 23.17 440.417 24.13ZM487.874 33.37C487.874 36.28 484.184 38.41 478.154 38.41C472.124 38.41 468.434 36.28 468.434 33.37C468.434 30.46 472.124 28.33 478.154 28.33C484.184 28.33 487.874 30.46 487.874 33.37ZM485.834 33.37C485.834 31.18 482.564 29.89 478.154 29.89C473.714 29.89 470.474 31.18 470.474 33.37C470.474 35.59 473.714 36.85 478.154 36.85C482.564 36.85 485.834 35.59 485.834 33.37ZM482.054 25.03L480.944 26.47C477.734 25.54 474.584 23.23 473.354 20.68C472.364 23.35 469.124 26.05 465.434 27.46L464.234 26.05C468.554 24.7 472.244 20.89 472.244 17.62V17.08H465.764V15.46H480.704V17.08H474.374V17.62C474.374 20.86 478.154 24.04 482.054 25.03ZM487.364 28.15H485.354V20.95H480.044V19.33H485.354V11.29H487.364V28.15ZM477.434 13H469.034V11.41H477.434V13ZM516.822 37.54H497.982V29.2H499.992V35.92H516.822V37.54ZM511.632 23.32V24.91C508.512 25.6 503.622 25.93 499.422 25.93H494.832V12.07H496.812V24.28H499.422C503.472 24.28 508.332 23.95 511.632 23.32ZM515.832 31.06H513.852V20.62H505.512V19H513.852V15.91H505.512V14.29H513.852V11.29H515.832V31.06ZM523.27 32.26L521.98 30.91C529.06 27.46 533.02 21.46 533.77 14.68H523.63V13.06H535.96C535.54 22.09 530.35 28.69 523.27 32.26ZM543.55 37.96H541.57V11.29H543.55V21.7H548.05V23.41H543.55V37.96ZM576.397 25.96H563.917V37.96H561.907V25.96H550.177V24.34H569.467C570.127 21.13 570.637 17.47 570.847 14.26H553.237V12.64H572.917C572.767 16.24 572.107 21.1 571.507 24.34H576.397V25.96ZM603.133 13.36L602.653 14.83C601.363 14.38 599.953 14.17 598.573 14.17C593.413 14.17 591.763 19.3 591.403 23.98L591.583 24.01C592.813 22.24 595.033 20.98 597.643 20.98C602.173 20.98 604.993 24.16 604.993 28.33C604.993 32.65 602.023 35.89 597.463 35.89C591.463 35.89 589.543 31.06 589.543 26.05C589.543 18.79 591.973 12.64 598.573 12.64C600.223 12.64 601.873 12.88 603.133 13.36ZM597.403 34.36C600.913 34.36 603.073 31.84 603.073 28.33C603.073 25.15 601.093 22.57 597.553 22.57C594.043 22.57 591.583 25.18 591.583 28.18C591.583 30.91 593.143 34.36 597.403 34.36ZM621.712 35.5H619.762V30.37H608.272V28.72L619.282 12.97H621.712V28.81H625.222V30.37H621.712V35.5ZM619.762 28.81V15.16L610.282 28.81H619.762ZM632.941 35.56H631.081L645.691 12.91H647.551L632.941 35.56ZM645.271 35.65C642.571 35.65 640.981 33.49 640.981 30.1C640.981 26.74 642.571 24.55 645.271 24.55C647.971 24.55 649.591 26.74 649.591 30.1C649.591 33.49 647.971 35.65 645.271 35.65ZM633.181 24.07C630.451 24.07 628.861 21.91 628.861 18.52C628.861 15.13 630.451 12.97 633.181 12.97C635.881 12.97 637.471 15.13 637.471 18.52C637.471 21.91 635.881 24.07 633.181 24.07ZM645.271 34.24C647.071 34.24 647.791 32.44 647.791 30.1C647.791 27.7 647.041 26.02 645.271 26.02C643.501 26.02 642.781 27.76 642.781 30.1C642.781 32.44 643.501 34.24 645.271 34.24ZM633.181 22.63C634.951 22.63 635.671 20.86 635.671 18.52C635.671 16.18 634.951 14.41 633.181 14.41C631.351 14.41 630.691 16.21 630.691 18.52C630.691 20.83 631.351 22.63 633.181 22.63ZM679.867 26.56H653.707V24.94H679.867V26.56ZM676.837 20.89H657.367V11.38H659.377V19.27H676.837V20.89ZM677.347 37.54H657.397V29.2H659.407V35.89H677.347V37.54ZM702.943 35.5H701.023V14.74L696.013 17.95L695.173 16.69L700.933 12.94H702.943V35.5ZM727.492 18.76C727.492 22.6 724.522 25.66 720.232 25.66C715.882 25.66 712.942 22.6 712.942 18.76C712.942 14.86 715.882 11.77 720.232 11.77C724.522 11.77 727.492 14.86 727.492 18.76ZM720.232 24.04C723.532 24.04 725.482 21.7 725.482 18.73C725.482 15.73 723.532 13.39 720.232 13.39C716.902 13.39 714.982 15.73 714.982 18.73C714.982 21.7 716.902 24.04 720.232 24.04ZM735.262 31.09H733.252V11.29H735.262V31.09ZM736.252 37.54H717.412V28.66H719.422V35.92H736.252V37.54ZM752.007 32.26L750.717 30.91C757.797 27.46 761.757 21.46 762.507 14.68H752.367V13.06H764.697C764.277 22.09 759.087 28.69 752.007 32.26ZM772.287 37.96H770.307V11.29H772.287V21.7H776.787V23.41H772.287V37.96ZM805.135 25.96H792.655V37.96H790.645V25.96H778.915V24.34H798.205C798.865 21.13 799.375 17.47 799.585 14.26H781.975V12.64H801.655C801.505 16.24 800.845 21.1 800.245 24.34H805.135V25.96Z" fill="#FF0561"/>
</svg>
