<svg width="829" height="51" viewBox="0 0 829 51" fill="none" xmlns="http://www.w3.org/2000/svg">
<rect x="0.5" y="0.5" width="828" height="50" fill="white"/>
<rect x="0.5" y="0.5" width="828" height="50" stroke="#FF0561"/>
<path d="M17.38 17.47H16.09L15.7 10.33H17.77L17.38 17.47ZM46.1479 37.96H44.1379V21.43H37.4779V19.75H44.1379V11.29H46.1479V37.96ZM40.6279 30.25L39.4279 31.69C35.8579 29.74 32.4979 26.11 31.4479 22.69C30.3379 26.47 27.4879 29.95 23.3779 32.47L22.0279 31.21C26.6479 28.51 30.3079 23.86 30.3079 17.5V12.46H32.4379V17.5C32.4379 23.62 36.4579 28.18 40.6279 30.25ZM74.2255 15.91C74.2255 18.67 70.4456 20.71 64.3555 20.71C58.2655 20.71 54.5755 18.67 54.5755 15.91C54.5755 13.15 58.2655 11.11 64.3555 11.11C70.4456 11.11 74.2255 13.15 74.2255 15.91ZM74.4055 37.66H54.9655V31.63H71.7655V28.9H54.9655V27.31H63.3655V24.25H51.3355V22.66H77.4955V24.25H65.4355V27.31H73.7756V33.13H56.9755V36.07H74.4055V37.66ZM72.2155 15.94C72.2155 13.84 68.8255 12.67 64.3555 12.67C59.9155 12.67 56.5555 13.84 56.5555 15.94C56.5555 18.01 59.9155 19.18 64.3555 19.18C68.8255 19.18 72.2155 18.01 72.2155 15.94ZM103.413 37.66H85.2932V31.24H100.803V28.09H85.2932V26.53H102.783V32.74H87.3032V36.07H103.413V37.66ZM102.843 25.12H100.863V11.29H102.843V16.6H106.773V18.25H102.843V25.12ZM97.7432 22.3L96.6632 23.8C93.2732 22.93 90.1832 20.62 88.9832 18.01C87.8132 20.83 84.5732 23.32 81.0032 24.7L79.8332 23.32C83.9732 21.88 87.8732 18.52 87.8732 14.08V11.83H89.9732V14.08C89.9732 18.37 93.6632 21.28 97.7432 22.3ZM132.541 37.96H130.531V11.29H132.541V37.96ZM110.581 22.15C110.581 15.76 113.521 12.01 117.421 12.01C121.351 12.01 124.261 15.76 124.261 22.15C124.261 28.57 121.351 32.32 117.421 32.32C113.521 32.32 110.581 28.57 110.581 22.15ZM122.251 22.15C122.251 16.66 120.241 13.63 117.421 13.63C114.631 13.63 112.591 16.66 112.591 22.15C112.591 27.67 114.631 30.7 117.421 30.7C120.241 30.7 122.251 27.67 122.251 22.15ZM141.359 17.47H140.069L139.679 10.33H141.749L141.359 17.47ZM148.376 32.26L147.086 30.91C154.166 27.46 158.126 21.46 158.876 14.68H148.736V13.06H161.066C160.646 22.09 155.456 28.69 148.376 32.26ZM168.656 37.96H166.676V11.29H168.656V21.7H173.156V23.41H168.656V37.96ZM208.712 37.96H206.732V11.29H208.712V37.96ZM186.782 32.23L185.252 30.94C191.462 27.46 194.672 20.8 195.032 14.86H186.752V13.24H197.192C197.042 21.49 193.082 28.39 186.782 32.23ZM203.222 36.7H201.272V26.47H196.622V24.82H201.272V19.3H197.552V17.62H201.272V11.74H203.222V36.7ZM236.219 37.66H217.409V26.2H219.419V30.01H234.209V26.2H236.219V37.66ZM239.909 23.32H213.749V21.7H233.519C234.089 19.09 234.539 15.97 234.629 13.78H216.929V12.16H236.669C236.549 15.73 236.039 19.18 235.469 21.7H239.909V23.32ZM234.179 36.1V31.54H219.419V36.1H234.179ZM266.157 37.96H264.147V11.29H266.157V37.96ZM244.197 22.15C244.197 15.76 247.137 12.01 251.037 12.01C254.967 12.01 257.877 15.76 257.877 22.15C257.877 28.57 254.967 32.32 251.037 32.32C247.137 32.32 244.197 28.57 244.197 22.15ZM255.867 22.15C255.867 16.66 253.857 13.63 251.037 13.63C248.247 13.63 246.207 16.66 246.207 22.15C246.207 27.67 248.247 30.7 251.037 30.7C253.857 30.7 255.867 27.67 255.867 22.15ZM301.292 25.09V26.65C298.502 27.13 294.902 27.34 290.882 27.34H281.582V25.72H290.492V21.82H283.952V12.52H298.172V14.11H285.962V20.2H298.802V21.82H292.472V25.72C295.652 25.69 298.832 25.45 301.292 25.09ZM304.982 37.54H286.202V29.86H288.212V35.89H304.982V37.54ZM304.382 31.84H302.372V11.29H304.382V31.84ZM331.92 37.96H329.94V11.29H331.92V20.8H336.42V22.51H331.92V37.96ZM328.65 28.24V29.86C325.29 30.55 320.04 30.88 316.02 30.88H311.88V13.06H324.75V14.68H313.86V29.23H316.02C320.04 29.23 325.05 28.9 328.65 28.24ZM362.817 24.13C362.817 25.12 362.127 25.81 361.047 25.81C360.057 25.81 359.307 25.12 359.307 24.13C359.307 23.11 360.057 22.45 361.167 22.45C362.127 22.45 362.817 23.17 362.817 24.13ZM353.367 24.13C353.367 25.12 352.647 25.81 351.567 25.81C350.577 25.81 349.857 25.12 349.857 24.13C349.857 23.11 350.577 22.45 351.687 22.45C352.647 22.45 353.367 23.17 353.367 24.13ZM343.977 24.13C343.977 25.12 343.227 25.81 342.087 25.81C341.127 25.81 340.407 25.12 340.407 24.13C340.407 23.11 341.127 22.45 342.237 22.45C343.197 22.45 343.977 23.17 343.977 24.13ZM371.005 17.47H369.715L369.325 10.33H371.395L371.005 17.47ZM399.203 33.07C399.203 36.19 395.603 38.41 389.213 38.41C382.853 38.41 379.223 36.19 379.223 33.07C379.223 29.98 382.853 27.76 389.213 27.76C395.603 27.76 399.203 29.98 399.203 33.07ZM397.193 33.07C397.193 30.82 394.193 29.32 389.213 29.32C384.233 29.32 381.233 30.82 381.233 33.07C381.233 35.35 384.233 36.85 389.213 36.85C394.193 36.85 397.193 35.35 397.193 33.07ZM402.323 25.06H376.163V23.44H386.723V17.44H388.793V23.44H402.323V25.06ZM397.823 21.52H395.843C396.533 18.94 396.923 16.18 396.983 13.78H379.343V12.16H399.053C398.993 15.94 398.543 18.97 397.823 21.52ZM406.491 27.76L405.351 26.29C412.161 24.25 416.901 19.42 417.771 14.29H406.971V12.67H420.081C419.451 20.23 413.511 25.36 406.491 27.76ZM428.631 37.54H410.061V28.66H412.071V35.92H428.631V37.54ZM427.521 31.06H425.541V11.29H427.521V18.91H431.601V20.59H427.521V31.06ZM456.918 37.96H454.938V11.29H456.918V37.96ZM453.858 29.38V30.94C451.068 31.54 447.678 31.72 443.688 31.72H434.358V30.1H443.808C447.498 30.1 451.068 29.86 453.858 29.38ZM443.538 25.45C439.278 25.45 436.158 22.45 436.158 18.88C436.158 15.31 439.278 12.34 443.538 12.34C447.858 12.34 450.978 15.31 450.978 18.88C450.978 22.45 447.858 25.45 443.538 25.45ZM443.538 13.96C440.178 13.96 438.168 16.18 438.168 18.88C438.168 21.58 440.178 23.83 443.538 23.83C446.898 23.83 448.968 21.58 448.968 18.88C448.968 16.18 446.898 13.96 443.538 13.96ZM495.293 37.66H475.823V31.78H492.623V29.2H475.823V27.61H484.223V24.7H472.193V23.11H498.353V24.7H486.293V27.61H494.633V33.28H477.833V36.07H495.293V37.66ZM494.633 20.62H475.853V11.53H477.863V14.41H492.623V11.53H494.633V20.62ZM492.623 19.06V15.94H477.863V19.06H492.623ZM524.721 33.22C524.721 36.19 521.061 38.41 515.001 38.41C508.971 38.41 505.311 36.19 505.311 33.22C505.311 30.25 508.971 28.03 515.001 28.03C521.061 28.03 524.721 30.25 524.721 33.22ZM520.041 23.2V24.76C516.861 25.27 511.761 25.45 507.651 25.45H501.531V23.86H505.521L505.341 14.2H502.341V12.64H517.881V14.2H514.971L514.761 23.68C516.711 23.59 518.541 23.41 520.041 23.2ZM522.711 33.22C522.711 30.97 519.471 29.65 515.001 29.65C510.591 29.65 507.321 30.97 507.321 33.22C507.321 35.5 510.591 36.79 515.001 36.79C519.471 36.79 522.711 35.5 522.711 33.22ZM512.841 23.77L513.021 14.2H507.321L507.471 23.86H507.651C509.271 23.86 511.041 23.83 512.841 23.77ZM524.211 27.76H522.231V21.46H517.671V19.87H522.231V17.17H517.671V15.58H522.231V11.29H524.211V27.76ZM542.839 38.41C536.479 38.41 532.849 36.28 532.849 33.28C532.849 30.31 536.479 28.18 542.839 28.18C549.229 28.18 552.829 30.31 552.829 33.28C552.829 36.28 549.229 38.41 542.839 38.41ZM542.839 29.74C537.859 29.74 534.859 31.15 534.859 33.28C534.859 35.44 537.859 36.85 542.839 36.85C547.819 36.85 550.819 35.44 550.819 33.28C550.819 31.15 547.819 29.74 542.839 29.74ZM555.949 25.6H529.789V23.98H555.949V25.6ZM552.859 20.95H533.449V12.16H552.349V13.78H535.459V19.33H552.859V20.95ZM562.216 17.47H560.926L560.536 10.33H562.606L562.216 17.47ZM599.452 37.66H580.642V28.3H589.042V23.23H577.012V21.61H585.652C586.222 19.03 586.642 15.97 586.732 13.78H579.442V12.16H588.772C588.652 15.67 588.172 19.09 587.602 21.61H596.842C597.412 19.03 597.802 15.97 597.892 13.78H589.822V12.16H599.932C599.812 15.67 599.332 19.09 598.792 21.61H603.172V23.23H591.082V28.3H599.452V37.66ZM597.442 36.04V29.92H582.652V36.04H597.442ZM631.969 25.45H605.809V23.92H631.969V25.45ZM628.909 37.66H609.439V31.93H626.239V29.44H609.439V27.91H628.249V33.43H611.449V36.1H628.909V37.66ZM628.639 21.61H609.469V11.95H628.309V13.48H611.479V15.97H628.189V17.44H611.479V20.05H628.639V21.61ZM658.067 37.96H656.087V22.51H651.947V36.7H649.997V11.74H651.947V20.74H656.087V11.29H658.067V37.96ZM648.617 28.81V30.43C646.127 30.82 642.467 31.06 639.857 31.06H636.887V13.3H646.817V14.92H638.807V29.41H639.857C642.467 29.41 646.097 29.2 648.617 28.81ZM689.565 26.56H663.405V24.94H689.565V26.56ZM686.535 20.89H667.065V11.38H669.075V19.27H686.535V20.89ZM687.045 37.54H667.095V29.2H669.105V35.89H687.045V37.54ZM725.3 37.96H723.32V22.51H719.18V36.7H717.23V11.74H719.18V20.74H723.32V11.29H725.3V37.96ZM715.85 28.81V30.43C713.36 30.82 709.7 31.06 707.09 31.06H704.12V13.3H714.05V14.92H706.04V29.41H707.09C709.7 29.41 713.33 29.2 715.85 28.81ZM753.528 31.3H751.518V11.29H753.528V19.51H757.608V21.19H753.528V31.3ZM754.638 37.54H736.068V29.8H738.048V35.92H754.638V37.54ZM748.038 16.96H731.628V15.4H748.038V16.96ZM744.078 12.97H735.528V11.41H744.078V12.97ZM739.878 27.79C735.738 27.79 733.068 25.72 733.068 23.17C733.068 20.62 735.738 18.55 739.878 18.55C743.988 18.55 746.688 20.62 746.688 23.17C746.688 25.72 743.988 27.79 739.878 27.79ZM739.878 20.08C736.848 20.08 735.078 21.4 735.078 23.17C735.078 24.97 736.848 26.29 739.878 26.29C742.908 26.29 744.678 24.94 744.678 23.17C744.678 21.4 742.908 20.08 739.878 20.08ZM774.255 25.03H761.505V12.67H774.255V25.03ZM772.245 23.41V14.26H763.485V23.41H772.245ZM782.655 31.06H780.675V11.29H782.655V31.06ZM783.645 37.54H764.805V28.66H766.815V35.92H783.645V37.54ZM810.613 38.11H808.603V30.46H791.473V28.84H799.933V23.56H788.233V21.94H808.033C808.573 19.36 809.023 15.97 809.113 13.78H791.413V12.16H811.153C811.033 15.79 810.523 19.39 809.983 21.94H814.393V23.56H801.943V28.84H810.613V38.11Z" fill="#FF0561"/>
</svg>
