<svg width="784" height="51" viewBox="0 0 784 51" fill="none" xmlns="http://www.w3.org/2000/svg">
<rect x="0.5" y="0.5" width="783" height="50" fill="white"/>
<rect x="0.5" y="0.5" width="783" height="50" stroke="#FF0561"/>
<path d="M29.65 35.5H15.22V33.85C18.1 31.27 20.35 29.2 22.06 27.46C26.35 23.17 27.4 21.1 27.4 18.7C27.4 15.85 25.06 14.17 22.18 14.17C20.11 14.17 17.86 15.01 16.27 16.36L15.4 15.07C17.2 13.42 19.78 12.64 22.21 12.64C26.26 12.64 29.32 14.65 29.32 18.64C29.32 21.79 28.09 23.86 23.77 28.12C22.18 29.74 20.17 31.6 17.59 33.97H29.65V35.5ZM41.7491 35.89C36.0491 35.89 33.5891 31.21 33.5891 24.31C33.5891 17.38 36.0491 12.64 41.7491 12.64C47.3291 12.64 49.9091 17.38 49.9091 24.31C49.9091 31.21 47.3291 35.89 41.7491 35.89ZM41.7491 34.36C46.1291 34.36 47.9891 30.37 47.9891 24.31C47.9891 18.28 46.1291 14.17 41.7491 14.17C37.2491 14.17 35.5091 18.28 35.5091 24.31C35.5091 30.34 37.2491 34.36 41.7491 34.36ZM77.0983 37.54H58.2583V29.2H60.2683V35.92H77.0983V37.54ZM71.9083 23.32V24.91C68.7883 25.6 63.8983 25.93 59.6983 25.93H55.1083V12.07H57.0883V24.28H59.6983C63.7483 24.28 68.6083 23.95 71.9083 23.32ZM76.1083 31.06H74.1283V20.62H65.7883V19H74.1283V15.91H65.7883V14.29H74.1283V11.29H76.1083V31.06ZM83.2159 27.76L82.0759 26.29C88.8859 24.25 93.6259 19.42 94.4959 14.29H83.6959V12.67H96.8059C96.1759 20.23 90.2359 25.36 83.2159 27.76ZM105.356 37.54H86.7859V28.66H88.7959V35.92H105.356V37.54ZM104.246 31.06H102.266V11.29H104.246V18.91H108.326V20.59H104.246V31.06ZM144.181 33.37C144.181 36.28 140.491 38.41 134.461 38.41C128.431 38.41 124.741 36.28 124.741 33.37C124.741 30.46 128.431 28.33 134.461 28.33C140.491 28.33 144.181 30.46 144.181 33.37ZM142.141 33.37C142.141 31.18 138.871 29.89 134.461 29.89C130.021 29.89 126.781 31.18 126.781 33.37C126.781 35.59 130.021 36.85 134.461 36.85C138.871 36.85 142.141 35.59 142.141 33.37ZM138.361 25.03L137.251 26.47C134.041 25.54 130.891 23.23 129.661 20.68C128.671 23.35 125.431 26.05 121.741 27.46L120.541 26.05C124.861 24.7 128.551 20.89 128.551 17.62V17.08H122.071V15.46H137.011V17.08H130.681V17.62C130.681 20.86 134.461 24.04 138.361 25.03ZM143.671 28.15H141.661V20.95H136.351V19.33H141.661V11.29H143.671V28.15ZM133.741 13H125.341V11.41H133.741V13ZM173.129 37.54H154.289V29.2H156.299V35.92H173.129V37.54ZM167.939 23.32V24.91C164.819 25.6 159.929 25.93 155.729 25.93H151.139V12.07H153.119V24.28H155.729C159.779 24.28 164.639 23.95 167.939 23.32ZM172.139 31.06H170.159V20.62H161.819V19H170.159V15.91H161.819V14.29H170.159V11.29H172.139V31.06ZM200.756 33.67C200.756 36.43 197.156 38.41 190.766 38.41C184.406 38.41 180.776 36.43 180.776 33.67C180.776 30.94 184.406 28.96 190.766 28.96C197.156 28.96 200.756 30.94 200.756 33.67ZM198.746 33.67C198.746 31.75 195.746 30.46 190.766 30.46C185.786 30.46 182.786 31.75 182.786 33.67C182.786 35.62 185.786 36.91 190.766 36.91C195.746 36.91 198.746 35.62 198.746 33.67ZM202.226 22.09L201.146 23.53C196.856 22.99 192.686 21.25 190.796 18.64C188.966 21.25 184.796 22.99 180.536 23.53L179.456 22.09C183.956 21.58 189.026 19.45 189.686 16.78H181.076V15.22H200.516V16.78H191.936C192.596 19.45 197.696 21.58 202.226 22.09ZM203.876 26.8H177.716V25.24H203.876V26.8ZM196.166 12.79H185.636V11.23H196.166V12.79ZM230.154 37.54H210.204V29.56H212.214V35.89H230.154V37.54ZM232.674 27.22H206.514V25.6H232.674V27.22ZM219.564 22.39C213.474 22.39 209.754 20.05 209.754 16.78C209.754 13.51 213.474 11.14 219.564 11.14C225.654 11.14 229.404 13.51 229.404 16.78C229.404 20.05 225.654 22.39 219.564 22.39ZM219.564 12.73C215.124 12.73 211.734 14.17 211.734 16.78C211.734 19.39 215.124 20.83 219.564 20.83C224.034 20.83 227.394 19.39 227.394 16.78C227.394 14.17 224.034 12.73 219.564 12.73ZM271.109 27.85H259.049V37.96H256.979V27.85H244.919V26.23H271.109V27.85ZM269.669 21.82L268.559 23.29C263.999 22.24 259.709 19.72 257.999 16.51C256.319 19.72 252.029 22.24 247.469 23.29L246.329 21.82C251.429 20.8 256.949 17.5 256.949 13.27V11.98H259.079V13.27C259.079 17.5 264.599 20.8 269.669 21.82ZM299.937 34.27H273.717V32.65H285.957V25.6H277.407V12.97H296.577V14.59H279.417V23.98H296.877V25.6H287.997V32.65H299.937V34.27ZM322.795 20.8V22.33C320.245 22.81 316.645 23.02 312.625 23.02H312.385V28.75H310.405V23.02H303.145V21.46H313.195C314.215 21.46 315.265 21.46 316.255 21.4C316.795 19.21 317.215 16.15 317.365 13.99H304.975V12.4H319.465C319.315 15.7 318.835 18.91 318.265 21.31C319.945 21.19 321.505 21.01 322.795 20.8ZM325.945 31.84H323.935V27.58H317.035V26.02H323.935V11.29H325.945V31.84ZM326.545 37.54H307.765V30.1H309.775V35.89H326.545V37.54ZM350.002 36.7H348.052V22.99H344.422C344.242 28.87 341.752 32.29 338.362 32.29C334.852 32.29 332.302 28.57 332.302 22.24C332.302 15.94 334.852 12.22 338.362 12.22C341.722 12.22 344.212 15.58 344.422 21.31H348.052V11.74H350.002V36.7ZM338.362 30.67C340.882 30.67 342.502 27.34 342.502 22.24C342.502 17.17 340.882 13.84 338.362 13.84C335.902 13.84 334.252 17.17 334.252 22.24C334.252 27.34 335.902 30.67 338.362 30.67ZM355.432 37.96H353.422V11.29H355.432V37.96ZM392.877 37.66H373.407V31.63H390.207V28.9H373.407V27.31H392.217V33.13H375.417V36.07H392.877V37.66ZM395.937 24.67H369.777V23.08H381.807V20.05H373.437V12.16H392.217V20.05H383.877V23.08H395.937V24.67ZM390.207 18.46V13.72H375.447V18.46H390.207ZM421.555 37.96H419.545V11.29H421.555V37.96ZM418.135 28.84V30.49C414.775 31.15 409.525 31.48 405.475 31.48H400.735V21.25H411.505V14.53H400.735V12.91H413.545V22.84H402.715V29.83H405.475C409.525 29.83 414.535 29.53 418.135 28.84ZM453.563 34.27H427.343V32.65H437.183V22.36H439.283V32.65H453.563V34.27ZM448.193 28.66H446.123C447.233 24.28 447.923 19.03 448.043 14.89H430.553V13.27H450.173C450.023 18.58 449.213 24.19 448.193 28.66ZM458.24 40.48L457.76 40.03C458.81 39.37 459.71 38.08 459.86 36.94C459.89 36.79 459.86 36.67 459.8 36.61C459.74 36.46 459.56 36.37 459.26 36.37C458.42 36.37 457.64 35.8 457.64 34.78C457.64 33.82 458.42 33.19 459.38 33.19C460.49 33.19 461.27 34.18 461.27 35.41C461.27 37.54 459.98 39.55 458.24 40.48ZM501.4 25.27H489.34V28.39C495.04 28.6 498.28 30.64 498.28 33.37C498.28 36.31 494.68 38.41 488.29 38.41C481.93 38.41 478.3 36.31 478.3 33.37C478.3 30.64 481.51 28.6 487.27 28.39V25.27H475.24V23.65H501.4V25.27ZM496.27 33.37C496.27 31.3 493.27 29.92 488.29 29.92C483.31 29.92 480.31 31.3 480.31 33.37C480.31 35.47 483.31 36.85 488.29 36.85C493.27 36.85 496.27 35.47 496.27 33.37ZM499.75 20.26L498.67 21.7C494.17 21.04 490.03 18.79 488.32 15.91C486.64 18.85 482.47 21.01 478.03 21.7L476.95 20.26C481.72 19.57 486.64 16.99 487.21 13.78H478.57V12.16H498.04V13.78H489.46C490.03 17.02 495.13 19.63 499.75 20.26ZM527.408 33.1C527.408 36.16 523.838 38.41 518.018 38.41C512.138 38.41 508.598 36.16 508.598 33.1C508.598 30.07 512.138 27.82 518.018 27.82C523.838 27.82 527.408 30.07 527.408 33.1ZM525.398 33.1C525.398 30.79 522.278 29.44 518.018 29.44C513.728 29.44 510.638 30.79 510.638 33.1C510.638 35.44 513.728 36.79 518.018 36.79C522.278 36.79 525.398 35.44 525.398 33.1ZM522.038 23.92L520.868 25.36C517.508 24.13 514.508 21.67 513.248 19.06C512.168 21.97 509.078 24.73 505.388 26.26L504.128 24.88C508.448 23.32 512.138 19.51 512.138 14.98V14.26H505.628V12.67H520.598V14.26H514.268V14.98C514.268 19.33 518.078 22.63 522.038 23.92ZM526.748 27.28H524.768V11.29H526.748V17.44H530.678V19.09H526.748V27.28ZM557.046 37.54H538.206V29.2H540.216V35.92H557.046V37.54ZM551.856 23.32V24.91C548.736 25.6 543.846 25.93 539.646 25.93H535.056V12.07H537.036V24.28H539.646C543.696 24.28 548.556 23.95 551.856 23.32ZM556.056 31.06H554.076V20.62H545.736V19H554.076V15.91H545.736V14.29H554.076V11.29H556.056V31.06ZM584.673 33.67C584.673 36.43 581.073 38.41 574.683 38.41C568.323 38.41 564.693 36.43 564.693 33.67C564.693 30.94 568.323 28.96 574.683 28.96C581.073 28.96 584.673 30.94 584.673 33.67ZM582.663 33.67C582.663 31.75 579.663 30.46 574.683 30.46C569.703 30.46 566.703 31.75 566.703 33.67C566.703 35.62 569.703 36.91 574.683 36.91C579.663 36.91 582.663 35.62 582.663 33.67ZM586.143 22.09L585.063 23.53C580.773 22.99 576.603 21.25 574.713 18.64C572.883 21.25 568.713 22.99 564.453 23.53L563.373 22.09C567.873 21.58 572.943 19.45 573.603 16.78H564.993V15.22H584.433V16.78H575.853C576.513 19.45 581.613 21.58 586.143 22.09ZM587.793 26.8H561.633V25.24H587.793V26.8ZM580.083 12.79H569.553V11.23H580.083V12.79ZM614.071 37.54H594.121V29.56H596.131V35.89H614.071V37.54ZM616.591 27.22H590.431V25.6H616.591V27.22ZM603.481 22.39C597.391 22.39 593.671 20.05 593.671 16.78C593.671 13.51 597.391 11.14 603.481 11.14C609.571 11.14 613.321 13.51 613.321 16.78C613.321 20.05 609.571 22.39 603.481 22.39ZM603.481 12.73C599.041 12.73 595.651 14.17 595.651 16.78C595.651 19.39 599.041 20.83 603.481 20.83C607.951 20.83 611.311 19.39 611.311 16.78C611.311 14.17 607.951 12.73 603.481 12.73ZM651.666 37.96H649.716V11.29H651.666V21.37H655.506V23.08H651.666V37.96ZM637.596 31.18H630.126V12.76H631.986V19.84H635.736V12.76H637.596V31.18ZM635.736 29.59V21.43H631.986V29.59H635.736ZM646.926 31.18H639.426V12.76H641.316V19.84H645.066V12.76H646.926V31.18ZM645.066 29.59V21.43H641.316V29.59H645.066ZM676.144 30.37L674.914 31.81C671.494 29.86 668.074 26.44 666.934 23.14C665.884 26.83 662.734 30.28 658.864 32.59L657.514 31.27C661.894 28.81 665.794 24.22 665.794 18.01V14.68H659.074V13.06H674.464V14.68H667.924V18.01C667.924 24.1 672.304 28.39 676.144 30.37ZM681.274 37.96H679.264V25.06H673.534V23.44H679.264V18.94H673.564V17.32H679.264V11.29H681.274V37.96ZM705.331 28.21V29.83C701.971 30.52 696.721 30.82 692.701 30.82H688.561V12.52H690.541V29.17H692.701C696.721 29.17 701.731 28.87 705.331 28.21ZM708.601 37.96H706.621V11.29H708.601V20.44H713.101V22.15H708.601V37.96ZM741.239 36.73L739.949 38.11C737.639 36.91 735.269 34.6 734.459 32.41C733.709 34.51 731.519 36.85 729.389 37.99C727.289 36.85 725.099 34.51 724.349 32.41C723.569 34.6 721.169 36.91 718.829 38.11L717.569 36.73C720.359 35.41 723.329 32.38 723.329 29.14V27.7H725.339V29.14C725.339 31.9 727.559 34.72 729.389 35.89C731.219 34.72 733.469 31.9 733.469 29.14V27.7H735.479V29.14C735.479 32.38 738.419 35.41 741.239 36.73ZM716.789 26.53L715.679 25.09C722.279 23.41 727.229 19.12 728.099 14.29H717.269V12.67H730.379C729.749 20.05 723.539 24.52 716.789 26.53ZM737.819 26.35H735.839V11.29H737.819V17.71H741.899V19.39H737.819V26.35ZM766.197 37.96H764.217V11.29H766.197V20.8H770.697V22.51H766.197V37.96ZM762.927 28.24V29.86C759.567 30.55 754.317 30.88 750.297 30.88H746.157V13.06H759.027V14.68H748.137V29.23H750.297C754.317 29.23 759.327 28.9 762.927 28.24Z" fill="#FF0561"/>
</svg>
