<svg width="430" height="51" viewBox="0 0 430 51" fill="none" xmlns="http://www.w3.org/2000/svg">
<rect x="0.5" y="0.5" width="429" height="50" fill="white"/>
<rect x="0.5" y="0.5" width="429" height="50" stroke="#FF0561"/>
<path d="M29.65 35.5H15.22V33.85C18.1 31.27 20.35 29.2 22.06 27.46C26.35 23.17 27.4 21.1 27.4 18.7C27.4 15.85 25.06 14.17 22.18 14.17C20.11 14.17 17.86 15.01 16.27 16.36L15.4 15.07C17.2 13.42 19.78 12.64 22.21 12.64C26.26 12.64 29.32 14.65 29.32 18.64C29.32 21.79 28.09 23.86 23.77 28.12C22.18 29.74 20.17 31.6 17.59 33.97H29.65V35.5ZM41.7491 35.89C36.0491 35.89 33.5891 31.21 33.5891 24.31C33.5891 17.38 36.0491 12.64 41.7491 12.64C47.3291 12.64 49.9091 17.38 49.9091 24.31C49.9091 31.21 47.3291 35.89 41.7491 35.89ZM41.7491 34.36C46.1291 34.36 47.9891 30.37 47.9891 24.31C47.9891 18.28 46.1291 14.17 41.7491 14.17C37.2491 14.17 35.5091 18.28 35.5091 24.31C35.5091 30.34 37.2491 34.36 41.7491 34.36ZM68.7883 35.5H54.3583V33.85C57.2383 31.27 59.4883 29.2 61.1983 27.46C65.4883 23.17 66.5383 21.1 66.5383 18.7C66.5383 15.85 64.1983 14.17 61.3183 14.17C59.2483 14.17 56.9983 15.01 55.4083 16.36L54.5383 15.07C56.3383 13.42 58.9183 12.64 61.3483 12.64C65.3983 12.64 68.4583 14.65 68.4583 18.64C68.4583 21.79 67.2283 23.86 62.9083 28.12C61.3183 29.74 59.3083 31.6 56.7283 33.97H68.7883V35.5ZM73.5074 34.78L74.0774 33.25C75.8474 34.03 77.6474 34.36 79.5974 34.36C83.2574 34.36 85.9874 32.62 85.9874 28.69C85.9874 24.79 82.6874 23.32 79.2974 23.32C77.7374 23.32 76.3274 23.5 74.5274 23.86L74.9774 13H86.5874V14.53H76.8674L76.5374 22.06C77.7374 21.85 78.9074 21.79 79.6274 21.79C84.0974 21.79 87.9374 23.98 87.9374 28.6C87.9374 33.46 84.3074 35.89 79.6274 35.89C77.4674 35.89 75.4574 35.62 73.5074 34.78ZM124.044 38.11H122.034V31.72H104.904V30.16H113.694V26.62H101.664V25.06H127.824V26.62H115.764V30.16H124.044V38.11ZM126.144 21.91L125.064 23.35C120.774 22.84 116.634 21.13 114.744 18.52C112.914 21.13 108.684 22.84 104.454 23.35L103.374 21.91C107.814 21.46 112.824 19.39 113.574 16.78H104.994V15.22H124.464V16.78H115.914C116.724 19.39 121.704 21.46 126.144 21.91ZM120.084 12.79H109.554V11.23H120.084V12.79ZM155.332 25.33L154.252 26.8C149.932 25.42 145.342 22.3 143.512 18.31C141.712 22.3 137.152 25.42 132.802 26.8L131.692 25.33C136.762 23.86 142.462 19.6 142.462 14.62V12.4H144.592V14.62C144.592 19.6 150.292 23.86 155.332 25.33ZM156.652 34.27H130.432V32.65H142.492V25.45H144.562V32.65H156.652V34.27ZM177.049 30.25L175.819 31.69C172.249 29.74 168.919 26.11 167.839 22.69C166.729 26.47 163.879 29.95 159.799 32.47L158.419 31.21C163.099 28.51 166.699 23.86 166.699 17.5V12.46H168.859V17.5C168.859 23.62 172.849 28.18 177.049 30.25ZM181.729 37.96H179.719V11.29H181.729V21.61H186.229V23.32H181.729V37.96ZM208.157 30.55V32.11C205.367 32.71 201.977 32.89 197.987 32.89H188.657V31.27H197.207V28C193.847 27.67 191.747 25.75 191.747 23.56C191.747 21.13 194.267 19.09 198.167 19.09C202.097 19.09 204.587 21.13 204.587 23.56C204.587 25.75 202.547 27.67 199.217 28V31.27C202.517 31.24 205.637 31.03 208.157 30.55ZM211.217 37.96H209.237V11.29H211.217V37.96ZM202.607 23.56C202.607 21.88 200.837 20.65 198.167 20.65C195.497 20.65 193.757 21.88 193.757 23.56C193.757 25.24 195.497 26.44 198.167 26.44C200.837 26.44 202.607 25.24 202.607 23.56ZM206.117 17.53H190.217V15.91H206.117V17.53ZM202.277 13.48H194.057V11.86H202.277V13.48ZM218.925 40.48L218.445 40.03C219.495 39.37 220.395 38.08 220.545 36.94C220.575 36.79 220.545 36.67 220.485 36.61C220.425 36.46 220.245 36.37 219.945 36.37C219.105 36.37 218.325 35.8 218.325 34.78C218.325 33.82 219.105 33.19 220.065 33.19C221.175 33.19 221.955 34.18 221.955 35.41C221.955 37.54 220.665 39.55 218.925 40.48ZM259.535 37.96H257.525V22.6H251.225C251.075 28.75 248.195 32.32 244.385 32.32C240.485 32.32 237.575 28.57 237.575 22.15C237.575 15.76 240.485 12.01 244.385 12.01C248.015 12.01 250.865 15.31 251.195 20.95H257.525V11.29H259.535V37.96ZM244.385 30.7C247.175 30.7 249.215 27.67 249.215 22.15C249.215 16.66 247.175 13.63 244.385 13.63C241.595 13.63 239.585 16.66 239.585 22.15C239.585 27.67 241.595 30.7 244.385 30.7ZM287.702 37.96H285.692V11.29H287.702V37.96ZM284.282 28.24V29.86C280.922 30.55 275.672 30.88 271.622 30.88H267.182V13.06H280.442V14.68H269.192V29.23H271.622C275.672 29.23 280.682 28.9 284.282 28.24ZM304.23 33.43L302.46 32.47C306.87 27.46 308.76 21.22 309.06 14.68H303.75V13.06H311.13C310.98 21.64 308.76 27.97 304.23 33.43ZM295.68 31.81L293.91 30.88C298.41 26.26 300.36 20.26 300.69 14.68H295.32V13.06H302.82C302.61 20.74 300.21 26.89 295.68 31.81ZM316.62 37.96H314.7V11.29H316.62V21.7H320.49V23.41H316.62V37.96ZM340.798 30.37L339.568 31.81C336.148 29.86 332.728 26.44 331.588 23.14C330.538 26.83 327.388 30.28 323.518 32.59L322.168 31.27C326.548 28.81 330.448 24.22 330.448 18.01V14.68H323.728V13.06H339.118V14.68H332.578V18.01C332.578 24.1 336.958 28.39 340.798 30.37ZM345.928 37.96H343.918V11.29H345.928V37.96ZM380.193 24.28V25.84C377.433 26.35 373.773 26.53 369.813 26.53H360.963V24.94H369.153V21.88C365.433 21.55 363.063 19.21 363.063 16.63C363.063 13.84 365.853 11.35 370.053 11.35C374.253 11.35 377.043 13.84 377.043 16.63C377.043 19.18 374.733 21.46 371.133 21.85V24.94C374.433 24.91 377.673 24.7 380.193 24.28ZM386.193 36.73L384.963 38.11C382.593 37 380.433 34.96 379.503 32.89C378.723 34.78 376.623 36.82 374.583 37.96C372.513 36.82 370.443 34.78 369.633 32.89C368.673 34.96 366.543 37 364.173 38.11L362.943 36.73C365.733 35.53 368.613 32.74 368.613 29.8V28.9H370.593V29.89C370.593 32.29 372.783 34.78 374.583 35.86C376.353 34.78 378.543 32.29 378.543 29.89V28.9H380.523V29.8C380.523 32.74 383.403 35.53 386.193 36.73ZM375.033 16.63C375.033 14.74 373.353 12.91 370.053 12.91C366.783 12.91 365.073 14.74 365.073 16.63C365.073 18.52 366.783 20.35 370.053 20.35C373.353 20.35 375.033 18.52 375.033 16.63ZM383.283 27.91H381.303V11.29H383.283V18.25H387.483V19.9H383.283V27.91ZM408.42 28.21V29.83C405.06 30.52 399.81 30.82 395.79 30.82H391.65V12.52H393.63V29.17H395.79C399.81 29.17 404.82 28.87 408.42 28.21ZM411.69 37.96H409.71V11.29H411.69V20.44H416.19V22.15H411.69V37.96Z" fill="#FF0561"/>
</svg>
