<svg width="1577" height="354" viewBox="0 0 1577 354" fill="none" xmlns="http://www.w3.org/2000/svg">
<path d="M388.76 40.88H386C386.76 37.88 387.36 34.48 387.8 31.08C382.48 31.4 376.6 31.56 371 31.56H364.76V29.4H371.04C376.72 29.4 382.68 29.24 388.04 28.96C388.28 26.52 388.48 24.2 388.56 22.12H365.24V19.96H391.4C391.2 27.04 390.12 34.92 388.76 40.88ZM395.92 48.36H360.96V46.2H374.36V36.28H377.12V46.2H395.92V48.36ZM429.277 53.28H426.597V17.72H429.277V53.28ZM399.997 32.2C399.997 23.68 403.917 18.68 409.117 18.68C414.357 18.68 418.237 23.68 418.237 32.2C418.237 40.76 414.357 45.76 409.117 45.76C403.917 45.76 399.997 40.76 399.997 32.2ZM415.557 32.2C415.557 24.88 412.877 20.84 409.117 20.84C405.397 20.84 402.677 24.88 402.677 32.2C402.677 39.56 405.397 43.6 409.117 43.6C412.877 43.6 415.557 39.56 415.557 32.2ZM458.194 51.6H455.594V31.6H447.434V29.36H455.594V18.32H458.194V51.6ZM465.874 53.28H463.234V17.72H465.874V53.28ZM453.234 41.04V43.2C449.914 43.72 445.074 44.04 441.554 44.04H437.634V19.48H440.194V41.84H441.554C445.074 41.84 449.874 41.56 453.234 41.04ZM497.151 43.4V45.48C493.431 46.28 488.911 46.52 483.631 46.52H471.671V44.36H482.751V40C478.271 39.56 475.471 37 475.471 34.08C475.471 30.84 478.831 28.12 484.071 28.12C489.271 28.12 492.591 30.84 492.591 34.08C492.591 37 489.871 39.56 485.431 40V44.36C489.711 44.32 493.871 44 497.151 43.4ZM501.351 53.28H498.671V17.72H501.351V32.56H507.031V34.84H501.351V53.28ZM489.951 34.08C489.951 31.84 487.631 30.2 484.071 30.2C480.471 30.2 478.151 31.84 478.151 34.08C478.151 36.32 480.471 37.92 484.071 37.92C487.631 37.92 489.951 36.32 489.951 34.08ZM494.631 26.04H473.431V23.88H494.631V26.04ZM489.511 20.64H478.511V18.48H489.511V20.64ZM543.068 38.08H508.188V35.92H543.068V38.08ZM539.028 30.52H513.067V17.84H515.748V28.36H539.028V30.52ZM539.708 52.72H513.108V41.6H515.788V50.52H539.708V52.72ZM587.714 53.28H585.034V31.24H576.154V29H585.034V17.72H587.714V53.28ZM580.354 43L578.754 44.92C573.994 42.32 569.514 37.48 568.114 32.92C566.634 37.96 562.834 42.6 557.354 45.96L555.554 44.28C561.714 40.68 566.594 34.48 566.594 26V19.28H569.434V26C569.434 34.16 574.794 40.24 580.354 43ZM627.951 48.6H592.991V46.44H609.311V38.88H597.911V28.2H619.871V21.84H597.911V19.68H622.511V30.32H600.591V36.68H623.671V38.88H612.031V46.44H627.951V48.6ZM670.598 53.28H667.958V17.72H670.598V30.4H676.598V32.68H670.598V53.28ZM666.238 40.32V42.48C661.758 43.4 654.758 43.84 649.398 43.84H643.878V20.08H661.038V22.24H646.518V41.64H649.398C654.758 41.64 661.438 41.2 666.238 40.32ZM708.315 33.72H682.755V25.08H704.795V20.68H682.755V18.6H707.435V27.08H685.435V31.56H708.315V33.72ZM712.755 40.2H677.875V38.12H712.755V40.2ZM709.395 52.72H682.795V43.04H685.475V50.52H709.395V52.72ZM756.002 39.64H753.362V17.72H756.002V26.04H761.442V28.28H756.002V39.64ZM744.362 53.88C736.522 53.88 731.802 51 731.802 47.08C731.802 43.2 736.522 40.32 744.362 40.32C752.122 40.32 756.842 43.2 756.842 47.08C756.842 51 752.122 53.88 744.362 53.88ZM744.362 42.48C738.642 42.48 734.482 44.2 734.482 47.08C734.482 50 738.642 51.72 744.362 51.72C750.042 51.72 754.202 50 754.202 47.08C754.202 44.2 750.042 42.48 744.362 42.48ZM745.322 36.04H728.442V18.96H731.122V25.28H742.642V18.96H745.322V36.04ZM742.642 33.88V27.4H731.122V33.88H742.642ZM794.119 44.12H791.439V28.64H783.719C783.279 33.32 779.439 36.88 774.079 36.88C768.279 36.88 764.359 32.8 764.359 27.68C764.359 22.48 768.279 18.36 774.079 18.36C779.319 18.36 783.119 21.84 783.679 26.4H791.439V17.72H794.119V44.12ZM774.079 34.72C778.479 34.72 781.079 31.6 781.079 27.64C781.079 23.64 778.479 20.52 774.079 20.52C769.639 20.52 767.079 23.64 767.079 27.64C767.079 31.6 769.639 34.72 774.079 34.72ZM795.439 52.72H770.319V40.88H772.999V50.56H795.439V52.72ZM830.996 53.28H828.316V17.72H830.996V53.28ZM801.716 32.2C801.716 23.68 805.636 18.68 810.836 18.68C816.076 18.68 819.956 23.68 819.956 32.2C819.956 40.76 816.076 45.76 810.836 45.76C805.636 45.76 801.716 40.76 801.716 32.2ZM817.276 32.2C817.276 24.88 814.596 20.84 810.836 20.84C807.116 20.84 804.396 24.88 804.396 32.2C804.396 39.56 807.116 43.6 810.836 43.6C814.596 43.6 817.276 39.56 817.276 32.2ZM878.963 39.12H876.283V27.04H867.363V24.84H876.283V17.72H878.963V39.12ZM871.483 34.6L869.923 36.6C865.443 35 861.403 31.68 859.763 28.12C858.322 32.04 854.283 35.68 849.283 37.8L847.643 35.96C853.483 33.72 858.283 28.76 858.283 22.68V18.64H861.123V22.68C861.123 28.48 866.043 32.8 871.483 34.6ZM878.883 53.48H876.283V43.24H866.883V41.04H878.883V53.48ZM865.483 53.48H862.883V43.24H853.483V41.04H865.483V53.48ZM915.839 53.28H913.159V39.08H903.719C902.199 43.4 899.199 45.76 895.639 45.76C890.439 45.76 886.559 40.76 886.559 32.2C886.559 23.68 890.439 18.68 895.639 18.68C899.159 18.68 902.079 20.96 903.599 25.08H913.159V17.72H915.839V53.28ZM895.639 43.6C899.359 43.6 902.079 39.56 902.079 32.2C902.079 24.88 899.359 20.84 895.639 20.84C891.919 20.84 889.239 24.88 889.239 32.2C889.239 39.56 891.919 43.6 895.639 43.6ZM913.159 36.92V27.24H904.199C904.559 28.72 904.759 30.4 904.759 32.2C904.759 33.92 904.599 35.52 904.319 36.92H913.159ZM964.886 53.28H962.246V33.16H956.846V51.6H954.206V18.32H956.846V30.84H962.246V17.72H964.886V53.28ZM952.446 42.8L950.726 44.64C946.806 41.88 943.726 37.72 942.486 33.68C941.326 38.16 938.046 42.68 933.406 45.92L931.526 44.28C937.206 40.76 941.086 33.96 941.086 26.24V19.52H943.846V26.24C943.846 34.16 947.926 39.96 952.446 42.8ZM1004.12 48.6H969.163V46.44H985.483V38.88H974.083V28.2H996.043V21.84H974.083V19.68H998.683V30.32H976.763V36.68H999.843V38.88H988.203V46.44H1004.12V48.6ZM1023.36 32.08C1015.24 32.08 1010.32 29 1010.32 24.8C1010.32 20.6 1015.24 17.52 1023.36 17.52C1031.48 17.52 1036.52 20.6 1036.52 24.8C1036.52 29 1031.48 32.08 1023.36 32.08ZM1023.36 19.64C1017.44 19.64 1012.96 21.48 1012.96 24.8C1012.96 28.12 1017.44 29.96 1023.36 29.96C1029.32 29.96 1033.84 28.12 1033.84 24.8C1033.84 21.48 1029.32 19.64 1023.36 19.64ZM1040.88 38.24H1025.2V46.36H1022.48V38.24H1006V36.08H1040.88V38.24ZM1037.52 52.72H1010.92V42.08H1013.6V50.52H1037.52V52.72ZM1085.45 44.12H1082.77V28.64H1075.05C1074.61 33.32 1070.77 36.88 1065.41 36.88C1059.61 36.88 1055.69 32.8 1055.69 27.68C1055.69 22.48 1059.61 18.36 1065.41 18.36C1070.65 18.36 1074.45 21.84 1075.01 26.4H1082.77V17.72H1085.45V44.12ZM1065.41 34.72C1069.81 34.72 1072.41 31.6 1072.41 27.64C1072.41 23.64 1069.81 20.52 1065.41 20.52C1060.97 20.52 1058.41 23.64 1058.41 27.64C1058.41 31.6 1060.97 34.72 1065.41 34.72ZM1086.77 52.72H1061.65V40.88H1064.33V50.56H1086.77V52.72ZM1122.32 53.28H1119.64V32.8H1111.24C1111.04 41 1107.2 45.76 1102.12 45.76C1096.92 45.76 1093.04 40.76 1093.04 32.2C1093.04 23.68 1096.92 18.68 1102.12 18.68C1106.96 18.68 1110.76 23.08 1111.2 30.6H1119.64V17.72H1122.32V53.28ZM1102.12 43.6C1105.84 43.6 1108.56 39.56 1108.56 32.2C1108.56 24.88 1105.84 20.84 1102.12 20.84C1098.4 20.84 1095.72 24.88 1095.72 32.2C1095.72 39.56 1098.4 43.6 1102.12 43.6ZM1152.08 34.96L1150.48 36.88C1146 35.24 1142 31.96 1140.36 28.48C1138.92 32.36 1134.76 36.04 1129.88 38.08L1128.2 36.24C1133.92 34.16 1138.88 29.08 1138.88 23.04V21.68H1130.16V19.56H1150.16V21.68H1141.72V23.04C1141.72 28.84 1146.76 33.24 1152.08 34.96ZM1158.96 53.48H1156.28V43.24H1134.4V41.04H1158.96V53.48ZM1159.04 39.12H1156.36V28.2H1148.32V25.96H1156.36V17.72H1159.04V39.12ZM1206.65 44.08H1204.01V33H1195.45V37.56H1178.45V18.96H1181.09V26.04H1192.77V18.96H1195.45V23.64H1204.01V17.72H1206.65V44.08ZM1192.77 35.4V28.12H1181.09V35.4H1192.77ZM1207.97 52.72H1182.85V41.24H1185.53V50.56H1207.97V52.72ZM1204.01 30.84V25.8H1195.45V30.84H1204.01ZM1243.2 47.16C1243.2 51.08 1238.4 53.88 1229.88 53.88C1221.4 53.88 1216.56 51.08 1216.56 47.16C1216.56 43.28 1221.4 40.48 1229.88 40.48C1238.4 40.48 1243.2 43.28 1243.2 47.16ZM1240.52 47.16C1240.52 44.4 1236.52 42.56 1229.88 42.56C1223.24 42.56 1219.24 44.4 1219.24 47.16C1219.24 49.96 1223.24 51.8 1229.88 51.8C1236.52 51.8 1240.52 49.96 1240.52 47.16ZM1245.16 29.68L1243.72 31.6C1237.76 30.72 1232.2 27.72 1229.92 23.88C1227.68 27.8 1222.16 30.68 1216.24 31.6L1214.76 29.68C1221.12 28.76 1227.72 25.32 1228.48 21.04H1216.96V18.88H1242.88V21.04H1231.44C1232.2 25.36 1239.04 28.84 1245.16 29.68ZM1247.36 37.56H1212.48V35.4H1228.6V30.04H1231.32V35.4H1247.36V37.56ZM1280.76 53.28H1278.08V17.72H1280.76V53.28ZM1251.48 32.2C1251.48 23.68 1255.4 18.68 1260.6 18.68C1265.84 18.68 1269.72 23.68 1269.72 32.2C1269.72 40.76 1265.84 45.76 1260.6 45.76C1255.4 45.76 1251.48 40.76 1251.48 32.2ZM1267.04 32.2C1267.04 24.88 1264.36 20.84 1260.6 20.84C1256.88 20.84 1254.16 24.88 1254.16 32.2C1254.16 39.56 1256.88 43.6 1260.6 43.6C1264.36 43.6 1267.04 39.56 1267.04 32.2ZM1322.49 40.28V42.44C1318.01 43.36 1311.01 43.76 1305.65 43.76H1300.13V19.36H1302.77V41.56H1305.65C1311.01 41.56 1317.69 41.16 1322.49 40.28ZM1326.85 53.28H1324.21V17.72H1326.85V29.92H1332.85V32.2H1326.85V53.28ZM1363.65 53.28H1361.01V17.72H1363.65V31.2H1369.65V33.48H1363.65V53.28ZM1359.29 41.12V43.32C1354.81 44.2 1347.81 44.64 1342.45 44.64H1336.73V19.88H1354.93V22.04H1339.41V31H1354.09V33.12H1339.41V42.44H1342.45C1347.81 42.44 1354.49 42.04 1359.29 41.12ZM1396.08 40.28V42.44C1391.6 43.36 1384.6 43.76 1379.24 43.76H1373.72V19.36H1376.36V41.56H1379.24C1384.6 41.56 1391.28 41.16 1396.08 40.28ZM1400.44 53.28H1397.8V17.72H1400.44V29.92H1406.44V32.2H1400.44V53.28ZM1442.6 38.08H1407.72V35.92H1442.6V38.08ZM1438.56 30.52H1412.6V17.84H1415.28V28.36H1438.56V30.52ZM1439.24 52.72H1412.64V41.6H1415.32V50.52H1439.24V52.72ZM1478.61 25.28H1457.09V23.2H1478.61V25.28ZM1473.69 19.96H1462.29V17.88H1473.69V19.96ZM1468.09 39.72C1462.57 39.72 1459.01 36.96 1459.01 33.56C1459.01 30.16 1462.57 27.4 1468.09 27.4C1473.57 27.4 1477.17 30.16 1477.17 33.56C1477.17 36.96 1473.57 39.72 1468.09 39.72ZM1468.09 29.44C1464.05 29.44 1461.69 31.2 1461.69 33.56C1461.69 35.96 1464.05 37.72 1468.09 37.72C1472.13 37.72 1474.49 35.92 1474.49 33.56C1474.49 31.2 1472.13 29.44 1468.09 29.44ZM1488.49 52.72H1463.37V42.4H1466.05V50.56H1488.49V52.72ZM1487.17 44.4H1484.49V37.36H1478.17V35.28H1484.49V30.12H1478.17V28.04H1484.49V17.72H1487.17V44.4ZM1516.04 34.16L1514.48 36.16C1510 34.52 1506 31.2 1504.36 27.64C1502.92 31.56 1498.84 35.2 1493.88 37.32L1492.2 35.52C1498.04 33.28 1502.88 28.28 1502.88 22.2V18.64H1505.68V22.2C1505.68 28 1510.6 32.36 1516.04 34.16ZM1511.2 53.88C1503.36 53.88 1498.64 50.88 1498.64 46.8C1498.64 42.76 1503.36 39.76 1511.2 39.76C1518.96 39.76 1523.72 42.76 1523.72 46.8C1523.72 50.88 1518.96 53.88 1511.2 53.88ZM1511.2 41.92C1505.48 41.92 1501.36 43.72 1501.36 46.8C1501.36 49.92 1505.48 51.72 1511.2 51.72C1516.88 51.72 1521.04 49.92 1521.04 46.8C1521.04 43.72 1516.88 41.92 1511.2 41.92ZM1522.84 39.04H1520.2V17.72H1522.84V25.92H1528.08V28.12H1522.84V39.04ZM1559.88 23.88C1559.88 27.56 1554.88 30.28 1546.76 30.28C1538.64 30.28 1533.68 27.56 1533.68 23.88C1533.68 20.2 1538.64 17.48 1546.76 17.48C1554.88 17.48 1559.88 20.2 1559.88 23.88ZM1557.2 23.92C1557.2 21.12 1552.72 19.56 1546.76 19.56C1540.84 19.56 1536.32 21.12 1536.32 23.92C1536.32 26.68 1540.84 28.24 1546.76 28.24C1552.72 28.24 1557.2 26.68 1557.2 23.92ZM1560.16 52.88H1534.2V44.68H1556.6V40.92H1534.2V38.8H1559.28V46.72H1536.88V50.76H1560.16V52.88ZM1564.24 35.08H1529.36V32.96H1564.24V35.08ZM391.88 109.28H389.24V73.72H391.88V109.28ZM387.8 97.84V99.92C384.08 100.72 379.56 100.96 374.24 100.96H361.8V98.8H374.4C379.32 98.8 384.08 98.48 387.8 97.84ZM374.04 92.6C368.36 92.6 364.2 88.6 364.2 83.84C364.2 79.08 368.36 75.12 374.04 75.12C379.8 75.12 383.96 79.08 383.96 83.84C383.96 88.6 379.8 92.6 374.04 92.6ZM374.04 77.28C369.56 77.28 366.88 80.24 366.88 83.84C366.88 87.44 369.56 90.44 374.04 90.44C378.52 90.44 381.28 87.44 381.28 83.84C381.28 80.24 378.52 77.28 374.04 77.28ZM417.797 99.84H400.717V76.08H417.797V99.84ZM415.077 97.68V78.24H403.357V97.68H415.077ZM428.437 109.28H425.757V73.72H428.437V109.28ZM465.114 100.4H462.434V73.72H465.114V84.68H470.554V86.92H465.114V100.4ZM466.594 108.72H441.834V98.4H444.474V106.56H466.594V108.72ZM457.794 81.28H435.914V79.2H457.794V81.28ZM452.514 75.96H441.114V73.88H452.514V75.96ZM446.914 95.72C441.394 95.72 437.834 92.96 437.834 89.56C437.834 86.16 441.394 83.4 446.914 83.4C452.394 83.4 455.994 86.16 455.994 89.56C455.994 92.96 452.394 95.72 446.914 95.72ZM446.914 85.44C442.874 85.44 440.514 87.2 440.514 89.56C440.514 91.96 442.874 93.72 446.914 93.72C450.954 93.72 453.314 91.92 453.314 89.56C453.314 87.2 450.954 85.44 446.914 85.44ZM500.911 109.28H498.271V73.72H500.911V86.4H506.911V88.68H500.911V109.28ZM496.551 96.32V98.48C492.071 99.4 485.071 99.84 479.711 99.84H474.191V76.08H491.351V78.24H476.831V97.64H479.711C485.071 97.64 491.751 97.2 496.551 96.32ZM514.908 105.32C514.908 106.6 513.908 107.56 512.628 107.56C511.268 107.56 510.268 106.6 510.268 105.32C510.268 104.12 511.268 103.08 512.628 103.08C513.908 103.08 514.908 104.12 514.908 105.32ZM561.894 109.28H559.214V95.08H549.774C548.254 99.4 545.254 101.76 541.694 101.76C536.494 101.76 532.614 96.76 532.614 88.2C532.614 79.68 536.494 74.68 541.694 74.68C545.214 74.68 548.134 76.96 549.654 81.08H559.214V73.72H561.894V109.28ZM541.694 99.6C545.414 99.6 548.134 95.56 548.134 88.2C548.134 80.88 545.414 76.84 541.694 76.84C537.974 76.84 535.294 80.88 535.294 88.2C535.294 95.56 537.974 99.6 541.694 99.6ZM559.214 92.92V83.24H550.254C550.614 84.72 550.814 86.4 550.814 88.2C550.814 89.92 550.654 91.52 550.374 92.92H559.214ZM597.851 109.28H595.171V88.04H588.291V85.8H595.171V73.72H597.851V109.28ZM592.171 97.12V99.32C587.731 100.2 580.731 100.64 575.371 100.64H570.091V87H583.211V78.04H570.091V75.88H585.891V89.12H572.731V98.44H575.371C580.731 98.44 587.451 98.04 592.171 97.12ZM639.898 99.16L638.258 101.08C633.698 98.48 629.138 93.92 627.618 89.52C626.218 94.44 622.018 99.04 616.858 102.12L615.058 100.36C620.898 97.08 626.098 90.96 626.098 82.68V78.24H617.138V76.08H637.658V78.24H628.938V82.68C628.938 90.8 634.778 96.52 639.898 99.16ZM646.738 109.28H644.058V73.72H646.738V109.28ZM683.455 94.72H680.775V88.64H671.135C669.415 90.76 666.735 92.08 663.415 92.08C657.655 92.08 653.775 88.16 653.775 83.24C653.775 78.32 657.655 74.36 663.415 74.36C666.815 74.36 669.535 75.8 671.255 77.96H680.775V73.72H683.455V94.72ZM670.335 83.24C670.335 79.48 667.775 76.52 663.415 76.52C659.015 76.52 656.495 79.48 656.495 83.24C656.495 86.96 659.015 89.92 663.415 89.92C667.775 89.92 670.335 86.96 670.335 83.24ZM683.375 109.48H680.695V98.84H658.815V96.64H683.375V109.48ZM680.775 86.48V80.12H672.455C672.855 81.12 673.015 82.16 673.015 83.24C673.015 84.4 672.855 85.48 672.415 86.48H680.775ZM719.732 109.28H717.092V73.72H719.732V109.28ZM715.652 97.84V99.92C711.932 100.72 707.412 100.96 702.092 100.96H689.652V98.8H702.252C707.172 98.8 711.932 98.48 715.652 97.84ZM701.892 92.6C696.212 92.6 692.052 88.6 692.052 83.84C692.052 79.08 696.212 75.12 701.892 75.12C707.652 75.12 711.812 79.08 711.812 83.84C711.812 88.6 707.652 92.6 701.892 92.6ZM701.892 77.28C697.412 77.28 694.732 80.24 694.732 83.84C694.732 87.44 697.412 90.44 701.892 90.44C706.372 90.44 709.132 87.44 709.132 83.84C709.132 80.24 706.372 77.28 701.892 77.28ZM767.738 108.88H743.578V100.12H764.218V95.72H743.578V93.64H766.898V102.12H746.218V106.76H767.738V108.88ZM756.298 89.4H739.418V75.56H756.298V89.4ZM753.618 87.32V77.64H742.098V87.32H753.618ZM766.978 91.76H764.338V73.72H766.978V80.68H772.418V82.92H766.978V91.76ZM806.015 109.28H803.415V73.72H806.015V109.28ZM800.335 99.44L798.535 101C795.855 98.64 793.895 95.2 793.055 92.04C792.135 95.52 789.615 99.76 787.295 101.72C785.015 99.76 782.575 95.52 781.575 92.04C780.775 95.44 778.695 98.96 775.695 101.68L773.695 100.2C777.575 96.88 780.255 91.72 780.255 83.96V75.28H782.895V83.96C782.895 90.36 785.055 95.16 787.295 98.28C789.615 95.16 791.695 90.36 791.695 83.96V75.28H794.415V83.96C794.415 91.36 796.975 96.44 800.335 99.44ZM812.972 101.68L811.252 99.88C820.692 95.28 825.972 87.28 826.972 78.24H813.452V76.08H829.892C829.332 88.12 822.412 96.92 812.972 101.68ZM840.012 109.28H837.372V73.72H840.012V87.6H846.012V89.88H840.012V109.28ZM889.059 100.4H886.379V73.72H889.059V84.68H894.499V86.92H889.059V100.4ZM890.539 108.72H865.779V98.4H868.419V106.56H890.539V108.72ZM881.739 81.28H859.859V79.2H881.739V81.28ZM876.459 75.96H865.059V73.88H876.459V75.96ZM870.859 95.72C865.339 95.72 861.779 92.96 861.779 89.56C861.779 86.16 865.339 83.4 870.859 83.4C876.339 83.4 879.939 86.16 879.939 89.56C879.939 92.96 876.339 95.72 870.859 95.72ZM870.859 85.44C866.819 85.44 864.459 87.2 864.459 89.56C864.459 91.96 866.819 93.72 870.859 93.72C874.899 93.72 877.259 91.92 877.259 89.56C877.259 87.2 874.899 85.44 870.859 85.44ZM937.306 102.76C937.306 106.92 932.506 109.88 923.986 109.88C915.506 109.88 910.666 106.92 910.666 102.76C910.666 98.64 915.506 95.68 923.986 95.68C932.506 95.68 937.306 98.64 937.306 102.76ZM934.626 102.76C934.626 99.76 930.626 97.76 923.986 97.76C917.346 97.76 913.346 99.76 913.346 102.76C913.346 105.8 917.346 107.8 923.986 107.8C930.626 107.8 934.626 105.8 934.626 102.76ZM941.466 92.08H906.586V89.92H920.666V81.92H923.426V89.92H941.466V92.08ZM935.466 87.36H932.826C933.746 83.92 934.266 80.24 934.346 77.04H910.826V74.88H937.106C937.026 79.92 936.426 83.96 935.466 87.36ZM945.423 95.68L943.903 93.72C952.983 91 959.303 84.56 960.463 77.72H946.063V75.56H963.543C962.703 85.64 954.783 92.48 945.423 95.68ZM974.943 108.72H950.183V96.88H952.863V106.56H974.943V108.72ZM973.463 100.08H970.823V73.72H973.463V83.88H978.903V86.12H973.463V100.08ZM1005.06 107.6H1002.46V89.32H997.62C997.38 97.16 994.06 101.72 989.54 101.72C984.86 101.72 981.46 96.76 981.46 88.32C981.46 79.92 984.86 74.96 989.54 74.96C994.02 74.96 997.34 79.44 997.62 87.08H1002.46V74.32H1005.06V107.6ZM989.54 99.56C992.9 99.56 995.06 95.12 995.06 88.32C995.06 81.56 992.9 77.12 989.54 77.12C986.26 77.12 984.06 81.56 984.06 88.32C984.06 95.12 986.26 99.56 989.54 99.56ZM1012.3 109.28H1009.62V73.72H1012.3V109.28ZM1063.15 104.36H1028.19V102.2H1044.27V92.8H1033.11V75.96H1058.15V92.8H1047.03V102.2H1063.15V104.36ZM1055.47 90.64V78.12H1035.79V90.64H1055.47ZM1096.5 109.28H1093.82V73.72H1096.5V109.28ZM1067.22 88.2C1067.22 79.68 1071.14 74.68 1076.34 74.68C1081.58 74.68 1085.46 79.68 1085.46 88.2C1085.46 96.76 1081.58 101.76 1076.34 101.76C1071.14 101.76 1067.22 96.76 1067.22 88.2ZM1082.78 88.2C1082.78 80.88 1080.1 76.84 1076.34 76.84C1072.62 76.84 1069.9 80.88 1069.9 88.2C1069.9 95.56 1072.62 99.6 1076.34 99.6C1080.1 99.6 1082.78 95.56 1082.78 88.2ZM1136.7 94.08H1101.82V91.92H1136.7V94.08ZM1132.66 86.52H1106.7V73.84H1109.38V84.36H1132.66V86.52ZM1133.34 108.72H1106.74V97.6H1109.42V106.52H1133.34V108.72ZM1172.71 81.28H1151.19V79.2H1172.71V81.28ZM1167.79 75.96H1156.39V73.88H1167.79V75.96ZM1162.19 95.72C1156.67 95.72 1153.11 92.96 1153.11 89.56C1153.11 86.16 1156.67 83.4 1162.19 83.4C1167.67 83.4 1171.27 86.16 1171.27 89.56C1171.27 92.96 1167.67 95.72 1162.19 95.72ZM1162.19 85.44C1158.15 85.44 1155.79 87.2 1155.79 89.56C1155.79 91.96 1158.15 93.72 1162.19 93.72C1166.23 93.72 1168.59 91.92 1168.59 89.56C1168.59 87.2 1166.23 85.44 1162.19 85.44ZM1182.59 108.72H1157.47V98.4H1160.15V106.56H1182.59V108.72ZM1181.27 100.4H1178.59V93.36H1172.27V91.28H1178.59V86.12H1172.27V84.04H1178.59V73.72H1181.27V100.4ZM1219.14 109.28H1216.5V89.16H1211.1V107.6H1208.46V74.32H1211.1V86.84H1216.5V73.72H1219.14V109.28ZM1207.02 99.12L1205.38 100.92C1201.5 98.24 1198.58 94.28 1197.34 90.28C1196.18 94.72 1192.82 99.04 1188.26 102.12L1186.34 100.48C1191.86 97.12 1195.9 90.72 1195.9 83.24V78.48H1189.06V76.32H1205.22V78.48H1198.7V83.24C1198.7 90.88 1202.66 96.4 1207.02 99.12ZM1254.34 109.28H1251.7V73.72H1254.34V109.28ZM1250.26 97.84V99.92C1246.54 100.72 1242.02 100.96 1236.7 100.96H1224.26V98.8H1236.86C1241.78 98.8 1246.54 98.48 1250.26 97.84ZM1236.5 92.6C1230.82 92.6 1226.66 88.6 1226.66 83.84C1226.66 79.08 1230.82 75.12 1236.5 75.12C1242.26 75.12 1246.42 79.08 1246.42 83.84C1246.42 88.6 1242.26 92.6 1236.5 92.6ZM1236.5 77.28C1232.02 77.28 1229.34 80.24 1229.34 83.84C1229.34 87.44 1232.02 90.44 1236.5 90.44C1240.98 90.44 1243.74 87.44 1243.74 83.84C1243.74 80.24 1240.98 77.28 1236.5 77.28ZM1297.43 94.4V96.4C1293.75 97.08 1288.87 97.32 1283.59 97.32H1271.79V95.24H1282.99V91.96C1278.47 91.68 1275.47 89.72 1275.47 87C1275.47 84.08 1279.07 82.04 1284.23 82.04C1289.39 82.04 1292.99 84.08 1292.99 87C1292.99 89.68 1290.03 91.6 1285.63 91.96V95.24C1289.95 95.2 1294.11 94.88 1297.43 94.4ZM1301.55 101.36H1298.91V73.72H1301.55V85.68H1307.15V87.92H1301.55V101.36ZM1302.55 108.72H1277.83V99.64H1280.55V106.52H1302.55V108.72ZM1290.31 87C1290.31 85.2 1287.87 84.08 1284.23 84.08C1280.59 84.08 1278.15 85.2 1278.15 87C1278.15 88.84 1280.59 89.96 1284.23 89.96C1287.87 89.96 1290.31 88.84 1290.31 87ZM1294.83 80.28H1273.63V78.2H1294.83V80.28ZM1289.71 75.8H1278.75V73.72H1289.71V75.8ZM1327.02 109.88C1318.94 109.88 1314.06 106.8 1314.06 102.6C1314.06 98.44 1318.94 95.36 1327.02 95.36C1335.06 95.36 1339.94 98.44 1339.94 102.6C1339.94 106.8 1335.06 109.88 1327.02 109.88ZM1327.02 97.52C1321.1 97.52 1316.74 99.4 1316.74 102.64C1316.74 105.84 1321.1 107.72 1327.02 107.72C1332.94 107.72 1337.26 105.84 1337.26 102.64C1337.26 99.4 1332.94 97.52 1327.02 97.52ZM1310.62 94.32L1309.1 92.4C1317.94 90.04 1324.5 84.28 1325.62 77.72H1311.26V75.56H1328.7C1327.86 85.52 1319.58 91.68 1310.62 94.32ZM1339.26 95.08H1336.62V89.08H1328.62V86.92H1336.62V81.68H1329.46V79.52H1336.62V73.72H1339.26V95.08ZM1369.98 107.6H1367.38V89.32H1362.54C1362.3 97.16 1358.98 101.72 1354.46 101.72C1349.78 101.72 1346.38 96.76 1346.38 88.32C1346.38 79.92 1349.78 74.96 1354.46 74.96C1358.94 74.96 1362.26 79.44 1362.54 87.08H1367.38V74.32H1369.98V107.6ZM1354.46 99.56C1357.82 99.56 1359.98 95.12 1359.98 88.32C1359.98 81.56 1357.82 77.12 1354.46 77.12C1351.18 77.12 1348.98 81.56 1348.98 88.32C1348.98 95.12 1351.18 99.56 1354.46 99.56ZM1377.22 109.28H1374.54V73.72H1377.22V109.28ZM1413.38 109.28H1410.7V87.24H1401.82V85H1410.7V73.72H1413.38V109.28ZM1406.02 99L1404.42 100.92C1399.66 98.32 1395.18 93.48 1393.78 88.92C1392.3 93.96 1388.5 98.6 1383.02 101.96L1381.22 100.28C1387.38 96.68 1392.26 90.48 1392.26 82V75.28H1395.1V82C1395.1 90.16 1400.46 96.24 1406.02 99ZM1421.46 112.64L1420.82 112.04C1422.22 111.16 1423.42 109.44 1423.62 107.92C1423.66 107.72 1423.62 107.56 1423.54 107.48C1423.46 107.28 1423.22 107.16 1422.82 107.16C1421.7 107.16 1420.66 106.4 1420.66 105.04C1420.66 103.76 1421.7 102.92 1422.98 102.92C1424.46 102.92 1425.5 104.24 1425.5 105.88C1425.5 108.72 1423.78 111.4 1421.46 112.64ZM1465.56 99.16L1463.92 101.08C1459.36 98.48 1454.8 93.92 1453.28 89.52C1451.88 94.44 1447.68 99.04 1442.52 102.12L1440.72 100.36C1446.56 97.08 1451.76 90.96 1451.76 82.68V78.24H1442.8V76.08H1463.32V78.24H1454.6V82.68C1454.6 90.8 1460.44 96.52 1465.56 99.16ZM1472.4 109.28H1469.72V73.72H1472.4V109.28ZM1507.8 95.64H1505.16V73.72H1507.8V82.04H1513.24V84.28H1507.8V95.64ZM1496.16 109.88C1488.32 109.88 1483.6 107 1483.6 103.08C1483.6 99.2 1488.32 96.32 1496.16 96.32C1503.92 96.32 1508.64 99.2 1508.64 103.08C1508.64 107 1503.92 109.88 1496.16 109.88ZM1496.16 98.48C1490.44 98.48 1486.28 100.2 1486.28 103.08C1486.28 106 1490.44 107.72 1496.16 107.72C1501.84 107.72 1506 106 1506 103.08C1506 100.2 1501.84 98.48 1496.16 98.48ZM1497.12 92.04H1480.24V74.96H1482.92V81.28H1494.44V74.96H1497.12V92.04ZM1494.44 89.88V83.4H1482.92V89.88H1494.44ZM384.72 155L383.08 156.92C378.32 154.32 373.88 149.48 372.44 144.92C370.96 149.96 367.16 154.6 361.72 157.96L359.88 156.28C366.12 152.68 370.92 146.48 370.92 138V131.28H373.8V138C373.8 146.16 379.12 152.24 384.72 155ZM390.96 165.28H388.28V129.72H390.96V143.48H396.96V145.76H390.96V165.28ZM428.437 147.28H402.677V130.84H427.677V133H405.357V137.92H427.517V140.04H405.357V145.08H428.437V147.28ZM432.717 153.6H416.597V165.28H413.837V153.6H397.757V151.44H432.717V153.6ZM465.234 165.28H462.554V129.72H465.234V165.28ZM460.674 153.12V155.32C456.194 156.2 449.194 156.64 443.794 156.64H437.474V143H451.834V134.04H437.474V131.88H454.554V145.12H440.114V154.44H443.794C449.194 154.44 455.874 154.04 460.674 153.12ZM506.271 150.08H471.391V147.92H506.271V150.08ZM502.231 142.52H476.271V129.84H478.951V140.36H502.231V142.52ZM502.911 164.72H476.311V153.6H478.991V162.52H502.911V164.72ZM552.598 148.44L551.158 150.4C545.398 148.56 539.278 144.4 536.838 139.08C534.438 144.4 528.358 148.56 522.558 150.4L521.077 148.44C527.838 146.48 535.438 140.8 535.438 134.16V131.2H538.278V134.16C538.278 140.8 545.878 146.48 552.598 148.44ZM554.358 160.36H519.398V158.2H535.478V148.6H538.238V158.2H554.358V160.36ZM587.194 147.84H584.554V142.72H575.994V145.84H558.994V131.56H575.994V134.4H584.554V129.72H587.194V147.84ZM587.994 164.88H563.394V156.16H584.514V151.84H563.394V149.76H587.154V158.2H566.074V162.76H587.994V164.88ZM573.314 143.76V133.64H561.634V143.76H573.314ZM584.554 140.64V136.48H575.994V140.64H584.554ZM624.511 165.28H621.831V129.72H624.511V165.28ZM595.231 144.2C595.231 135.68 599.151 130.68 604.351 130.68C609.591 130.68 613.471 135.68 613.471 144.2C613.471 152.76 609.591 157.76 604.351 157.76C599.151 157.76 595.231 152.76 595.231 144.2ZM610.791 144.2C610.791 136.88 608.111 132.84 604.351 132.84C600.631 132.84 597.911 136.88 597.911 144.2C597.911 151.56 600.631 155.6 604.351 155.6C608.111 155.6 610.791 151.56 610.791 144.2ZM670.598 165.28H667.958V129.72H670.598V142.6H676.598V144.88H670.598V165.28ZM642.438 144.2C642.438 135.68 646.318 130.68 651.518 130.68C656.718 130.68 660.638 135.68 660.638 144.2C660.638 152.76 656.718 157.76 651.518 157.76C646.318 157.76 642.438 152.76 642.438 144.2ZM657.958 144.2C657.958 136.88 655.238 132.84 651.518 132.84C647.798 132.84 645.118 136.88 645.118 144.2C645.118 151.56 647.798 155.6 651.518 155.6C655.238 155.6 657.958 151.56 657.958 144.2ZM710.155 164.72H685.035V152.88H687.715V162.56H710.155V164.72ZM704.235 144.84V146.96C700.155 147.88 693.555 148.36 687.955 148.36H680.835V130.72H683.475V146.16H687.955C693.395 146.16 699.875 145.72 704.235 144.84ZM708.835 156.08H706.195V129.72H708.835V156.08ZM749.402 146.16L747.842 148.16C743.362 146.52 739.362 143.2 737.722 139.64C736.282 143.56 732.202 147.2 727.242 149.32L725.562 147.52C731.402 145.28 736.242 140.28 736.242 134.2V130.64H739.042V134.2C739.042 140 743.962 144.36 749.402 146.16ZM744.562 165.88C736.722 165.88 732.002 162.88 732.002 158.8C732.002 154.76 736.722 151.76 744.562 151.76C752.322 151.76 757.082 154.76 757.082 158.8C757.082 162.88 752.322 165.88 744.562 165.88ZM744.562 153.92C738.842 153.92 734.722 155.72 734.722 158.8C734.722 161.92 738.842 163.72 744.562 163.72C750.242 163.72 754.402 161.92 754.402 158.8C754.402 155.72 750.242 153.92 744.562 153.92ZM756.202 151.04H753.562V129.72H756.202V137.92H761.442V140.12H756.202V151.04ZM797.639 160.6H762.679V158.44H778.759V153.04C772.519 152.76 768.599 150.32 768.599 147.04C768.599 143.56 773.119 141.04 780.119 141.04C787.199 141.04 791.679 143.56 791.679 147.04C791.679 150.32 787.719 152.76 781.519 153.04V158.44H797.639V160.6ZM788.999 147.04C788.999 144.52 785.039 143.16 780.119 143.16C775.279 143.16 771.279 144.52 771.279 147.04C771.279 149.56 775.279 150.96 780.119 150.96C785.039 150.96 788.999 149.56 788.999 147.04ZM794.399 138.72H765.879V136.56H794.399V138.72ZM787.519 133.08H772.759V130.92H787.519V133.08ZM842.526 164.88H817.926V156.32H839.046V152.16H817.926V150.04H841.686V158.36H820.606V162.72H842.526V164.88ZM828.046 133.64H813.726V131.56H831.126C830.366 140.68 821.446 146.56 813.046 148.56L811.566 146.64C819.846 144.88 826.726 139.72 828.046 133.64ZM841.726 148.16H839.086V143.8H831.046V141.72H839.086V137.2H831.926V135.08H839.086V129.72H841.726V148.16ZM878.003 164.88H854.603V151.56H857.283V155.92H875.323V151.56H878.003V164.88ZM875.323 162.84V157.92H857.283V162.84H875.323ZM878.083 149.8H875.403V129.72H878.083V138.92H883.523V141.16H878.083V149.8ZM870.763 136.44H848.883V134.44H870.763V136.44ZM865.483 131.72H854.083V129.72H865.483V131.72ZM859.883 149.44C854.363 149.44 850.803 146.96 850.803 143.84C850.803 140.72 854.363 138.24 859.883 138.24C865.363 138.24 868.963 140.72 868.963 143.84C868.963 146.96 865.363 149.44 859.883 149.44ZM859.883 140.2C855.843 140.2 853.483 141.72 853.483 143.84C853.483 145.96 855.843 147.48 859.883 147.48C863.923 147.48 866.283 145.96 866.283 143.84C866.283 141.76 863.923 140.2 859.883 140.2ZM914.879 135.88C914.879 139.56 909.879 142.28 901.759 142.28C893.639 142.28 888.679 139.56 888.679 135.88C888.679 132.2 893.639 129.48 901.759 129.48C909.879 129.48 914.879 132.2 914.879 135.88ZM912.199 135.92C912.199 133.12 907.719 131.56 901.759 131.56C895.839 131.56 891.319 133.12 891.319 135.92C891.319 138.68 895.839 140.24 901.759 140.24C907.719 140.24 912.199 138.68 912.199 135.92ZM915.159 164.88H889.199V156.68H911.599V152.92H889.199V150.8H914.279V158.72H891.879V162.76H915.159V164.88ZM919.239 147.08H884.359V144.96H919.239V147.08ZM967.286 151.08H932.406V148.96H948.486V144.88H937.286V130.6H962.406V132.68H939.966V136.68H962.246V138.72H939.966V142.72H962.846V144.88H951.246V148.96H967.286V151.08ZM963.126 159.76C963.126 163.32 958.326 165.88 949.806 165.88C941.326 165.88 936.486 163.32 936.486 159.76C936.486 156.24 941.326 153.64 949.806 153.64C958.326 153.64 963.126 156.24 963.126 159.76ZM960.446 159.76C960.446 157.28 956.446 155.68 949.806 155.68C943.166 155.68 939.166 157.28 939.166 159.76C939.166 162.24 943.166 163.88 949.806 163.88C956.446 163.88 960.446 162.24 960.446 159.76ZM988.523 138.88H970.003V136.72H988.523V138.88ZM984.243 133.16H974.203V131H984.243V133.16ZM1001.52 165.28H998.843V146.48H993.483V163.6H990.883V130.32H993.483V144.12H998.843V129.72H1001.52V165.28ZM971.243 149.76C971.243 145.24 974.763 141.84 979.203 141.84C983.683 141.84 987.243 145.24 987.243 149.76C987.243 154.28 983.683 157.68 979.203 157.68C974.763 157.68 971.243 154.28 971.243 149.76ZM984.643 149.76C984.643 146.4 982.523 143.92 979.203 143.92C975.963 143.92 973.843 146.4 973.843 149.76C973.843 153.08 975.963 155.6 979.203 155.6C982.523 155.6 984.643 153.08 984.643 149.76ZM1049.73 165.28H1047.09V145.16H1041.69V163.6H1039.05V130.32H1041.69V142.84H1047.09V129.72H1049.73V165.28ZM1037.29 154.8L1035.57 156.64C1031.65 153.88 1028.57 149.72 1027.33 145.68C1026.17 150.16 1022.89 154.68 1018.25 157.92L1016.37 156.28C1022.05 152.76 1025.93 145.96 1025.93 138.24V131.52H1028.69V138.24C1028.69 146.16 1032.77 151.96 1037.29 154.8ZM1088.97 160.6H1054.01V158.44H1070.33V150.88H1058.93V140.2H1080.89V133.84H1058.93V131.68H1083.53V142.32H1061.61V148.68H1084.69V150.88H1073.05V158.44H1088.97V160.6ZM1108.2 144.08C1100.08 144.08 1095.16 141 1095.16 136.8C1095.16 132.6 1100.08 129.52 1108.2 129.52C1116.32 129.52 1121.36 132.6 1121.36 136.8C1121.36 141 1116.32 144.08 1108.2 144.08ZM1108.2 131.64C1102.28 131.64 1097.8 133.48 1097.8 136.8C1097.8 140.12 1102.28 141.96 1108.2 141.96C1114.16 141.96 1118.68 140.12 1118.68 136.8C1118.68 133.48 1114.16 131.64 1108.2 131.64ZM1125.72 150.24H1110.04V158.36H1107.32V150.24H1090.84V148.08H1125.72V150.24ZM1122.36 164.72H1095.76V154.08H1098.44V162.52H1122.36V164.72ZM1158.01 165.88C1149.97 165.88 1145.05 163.2 1145.05 159.56C1145.05 155.92 1149.97 153.24 1158.01 153.24C1166.05 153.24 1170.97 155.92 1170.97 159.56C1170.97 163.2 1166.05 165.88 1158.01 165.88ZM1158.01 155.28C1152.09 155.28 1147.77 156.84 1147.77 159.56C1147.77 162.28 1152.09 163.84 1158.01 163.84C1163.89 163.84 1168.25 162.28 1168.25 159.56C1168.25 156.84 1163.89 155.28 1158.01 155.28ZM1161.73 136.84H1140.21V134.76H1161.73V136.84ZM1156.81 131.96H1145.41V129.88H1156.81V131.96ZM1151.21 150.36C1145.69 150.36 1142.13 147.76 1142.13 144.56C1142.13 141.36 1145.69 138.76 1151.21 138.76C1156.69 138.76 1160.29 141.36 1160.29 144.56C1160.29 147.76 1156.69 150.36 1151.21 150.36ZM1151.21 140.8C1147.17 140.8 1144.81 142.4 1144.81 144.56C1144.81 146.76 1147.17 148.36 1151.21 148.36C1155.25 148.36 1157.61 146.72 1157.61 144.56C1157.61 142.4 1155.25 140.8 1151.21 140.8ZM1170.29 153H1167.61V147.76H1161.29V145.68H1167.61V141.12H1161.29V139.04H1167.61V129.72H1170.29V153ZM1206.97 165.28H1204.33V144.96H1199.21V163.6H1196.65V130.32H1199.21V142.64H1204.33V129.72H1206.97V165.28ZM1194.77 153.64V155.8C1191.49 156.32 1186.57 156.64 1183.13 156.64H1178.73V132.12H1192.57V134.28H1181.29V143.08H1192.09V145.2H1181.29V154.44H1183.13C1186.57 154.44 1191.45 154.16 1194.77 153.64ZM1247.4 160.6H1212.44V158.44H1228.76V150.88H1217.36V140.2H1239.32V133.84H1217.36V131.68H1241.96V142.32H1220.04V148.68H1243.12V150.88H1231.48V158.44H1247.4V160.6ZM1293.01 165.28H1290.37V145.16H1284.97V163.6H1282.33V130.32H1284.97V142.84H1290.37V129.72H1293.01V165.28ZM1280.89 155.12L1279.25 156.92C1275.37 154.24 1272.45 150.28 1271.21 146.28C1270.05 150.72 1266.69 155.04 1262.13 158.12L1260.21 156.48C1265.73 153.12 1269.77 146.72 1269.77 139.24V134.48H1262.93V132.32H1279.09V134.48H1272.57V139.24C1272.57 146.88 1276.53 152.4 1280.89 155.12ZM1332.25 149.28H1315.61V165.28H1312.93V149.28H1297.29V147.12H1323.01C1323.89 142.84 1324.57 137.96 1324.85 133.68H1301.37V131.52H1327.61C1327.41 136.32 1326.53 142.8 1325.73 147.12H1332.25V149.28ZM1353.25 165.88C1345.21 165.88 1340.29 162.88 1340.29 158.8C1340.29 154.76 1345.21 151.76 1353.25 151.76C1361.29 151.76 1366.21 154.76 1366.21 158.8C1366.21 162.88 1361.29 165.88 1353.25 165.88ZM1353.25 153.92C1347.33 153.92 1343.01 155.72 1343.01 158.8C1343.01 161.92 1347.33 163.72 1353.25 163.72C1359.13 163.72 1363.49 161.92 1363.49 158.8C1363.49 155.72 1359.13 153.92 1353.25 153.92ZM1358.05 146.2L1356.49 148.2C1352.01 146.56 1347.97 143.24 1346.33 139.68C1344.88 143.6 1340.85 147.24 1335.85 149.36L1334.21 147.56C1340.05 145.32 1344.85 140.32 1344.85 134.24V130.64H1347.69V134.24C1347.69 140.04 1352.61 144.4 1358.05 146.2ZM1365.53 151.48H1362.85V138.72H1353.93V136.48H1362.85V129.72H1365.53V151.48ZM1402.92 164.88H1377.88V156.72H1399.4V152.96H1377.88V150.88H1402.08V158.76H1380.56V162.76H1402.92V164.88ZM1398 144.68V146.68C1394.28 147.36 1389.48 147.6 1384.12 147.6H1371.72V145.52H1383.6V141.28H1374.88V131.2H1393.84V133.28H1377.56V139.16H1394.68V141.28H1386.24V145.52C1390.48 145.48 1394.72 145.16 1398 144.68ZM1402.12 149.08H1399.44V129.72H1402.12V149.08ZM1421.25 151.68L1419.73 149.72C1428.81 147 1435.17 140.56 1436.29 133.72H1421.93V131.56H1439.37C1438.53 141.64 1430.61 148.48 1421.25 151.68ZM1452.25 163.32L1450.93 165.28C1445.21 163.88 1439.93 160.36 1438.05 156.12C1436.17 160.36 1430.93 163.88 1425.21 165.28L1423.81 163.32C1429.77 162.04 1436.57 157.72 1436.57 151.8V150H1439.53V151.8C1439.53 157.72 1446.37 162.04 1452.25 163.32ZM1449.93 153.56H1447.29V142.04H1439.25V139.8H1447.29V129.72H1449.93V153.56ZM1487.25 165.28H1484.57V129.72H1487.25V165.28ZM1457.97 144.2C1457.97 135.68 1461.89 130.68 1467.09 130.68C1472.33 130.68 1476.21 135.68 1476.21 144.2C1476.21 152.76 1472.33 157.76 1467.09 157.76C1461.89 157.76 1457.97 152.76 1457.97 144.2ZM1473.53 144.2C1473.53 136.88 1470.85 132.84 1467.09 132.84C1463.37 132.84 1460.65 136.88 1460.65 144.2C1460.65 151.56 1463.37 155.6 1467.09 155.6C1470.85 155.6 1473.53 151.56 1473.53 144.2ZM1522.08 165.28H1519.44V129.72H1522.08V142.4H1528.08V144.68H1522.08V165.28ZM1517.72 152.32V154.48C1513.24 155.4 1506.24 155.84 1500.88 155.84H1495.36V132.08H1512.52V134.24H1498V153.64H1500.88C1506.24 153.64 1512.92 153.2 1517.72 152.32ZM1536.08 161.32C1536.08 162.6 1535.08 163.56 1533.8 163.56C1532.44 163.56 1531.44 162.6 1531.44 161.32C1531.44 160.12 1532.44 159.08 1533.8 159.08C1535.08 159.08 1536.08 160.12 1536.08 161.32Z" fill="white"/>
<path d="M103.98 48.5H97.2C98.16 44.42 98.82 39.56 99.36 34.88C91.8 35.3 83.64 35.48 75.78 35.48H66.36V29.96H75.84C83.82 29.96 92.22 29.78 99.9 29.42L100.56 21.56H67.08V15.92H107.58C107.22 28.16 105.96 39.8 103.98 48.5ZM113.88 61.04H61.44V55.4H79.62V41.48H86.52V55.4H113.88V61.04ZM165.055 67.04H158.275V13.46H165.055V67.04ZM134.035 56.3C125.935 56.3 119.395 49.88 119.395 35.48C119.395 21.08 125.935 14.66 134.035 14.66C142.195 14.66 148.615 21.08 148.615 35.48C148.615 49.88 142.195 56.3 134.035 56.3ZM134.035 50.66C138.595 50.66 141.895 46.28 141.895 35.48C141.895 24.68 138.595 20.3 134.035 20.3C129.475 20.3 126.175 24.68 126.175 35.48C126.175 46.28 129.475 50.66 134.035 50.66ZM208.131 64.52H201.471V35.54H191.211V29.54H201.471V14.36H208.131V64.52ZM219.891 67.04H213.171V13.46H219.891V67.04ZM198.291 46.64V52.28C193.791 53.12 188.331 53.48 184.311 53.48H175.731V15.92H182.391V47.72H184.311C188.151 47.72 193.431 47.48 198.291 46.64ZM264.226 51.26V56.66C257.866 57.62 248.086 57.98 240.106 57.98H227.386V52.46H240.106H242.206V47.36C235.846 46.52 231.826 43.1 231.826 38.6C231.826 33.44 237.226 29.66 245.386 29.66C253.486 29.66 258.886 33.44 258.886 38.6C258.886 42.92 255.166 46.28 249.166 47.24V52.34C254.806 52.16 260.506 51.8 264.226 51.26ZM273.166 67.04H266.386V13.46H273.166V34.64H280.666V40.52H273.166V67.04ZM261.286 27.68H229.426V22.28H261.286V27.68ZM253.966 19.52H236.806V14H253.966V19.52ZM252.166 38.6C252.166 36.44 249.646 34.94 245.386 34.94C241.066 34.94 238.606 36.44 238.606 38.6C238.606 40.76 241.066 42.26 245.386 42.26C249.646 42.26 252.166 40.76 252.166 38.6Z" fill="white"/>
<rect y="9" width="30" height="66" fill="#FF0561"/>
<path d="M378.99 294.86L376.98 297.38C373.92 295.82 371.25 293.12 369.81 290.15C368.73 293.18 365.85 296.18 362.61 297.98L360.24 295.64C364.77 293.42 367.95 288.98 367.95 282.95V280.7H361.83V277.88H377.58V280.7H371.52V283.13C371.52 289.16 375.06 293 378.99 294.86ZM384.93 303.02H381.54V276.23H384.93V303.02ZM412.318 292.1H408.928V288.23H402.328C400.978 289.58 399.058 290.42 396.778 290.42C392.368 290.42 389.278 287.33 389.278 283.43C389.278 279.53 392.368 276.44 396.778 276.44C399.208 276.44 401.248 277.4 402.598 278.93H408.928V276.2H412.318V292.1ZM412.258 303.11H408.838V296.06H393.028V293.24H412.258V303.11ZM396.778 287.66C399.418 287.66 400.888 285.77 400.888 283.43C400.888 281.09 399.418 279.2 396.778 279.2C394.138 279.2 392.668 281.09 392.668 283.43C392.668 285.77 394.138 287.66 396.778 287.66ZM408.928 285.47V281.69H404.068C404.158 282.26 404.248 282.83 404.248 283.43C404.248 284.15 404.128 284.84 403.978 285.47H408.928ZM439.585 290.03H436.195V287.06H431.005V289.19H417.625V277.01H421.015V280.52H427.615V277.01H431.005V279.41H436.195V276.2H439.585V290.03ZM440.155 302.78H420.925V295.67H436.135V293.87H420.925V291.23H439.525V298.19H424.315V300.08H440.155V302.78ZM427.615 286.55V283.1H421.015V286.55H427.615ZM436.195 284.36V282.11H431.005V284.36H436.195ZM469.733 300.2H443.513V297.38H455.033V292.7H446.903V283.55H462.623V279.95H446.903V277.19H466.013V286.25H450.293V289.91H466.823V292.7H458.513V297.38H469.733V300.2ZM503.698 290.63H481.588V287.81H485.638L485.458 280.25H482.248V277.46H503.068V280.25H499.828L499.678 287.81H503.698V290.63ZM505.768 300.02H479.548V297.2H485.788V291.83H489.178V297.2H496.108V291.83H499.498V297.2H505.768V300.02ZM496.288 287.81L496.438 280.25H488.848L489.028 287.81H496.288ZM531.896 285.29L530.366 287.63C526.196 287.12 522.326 285.38 520.226 282.62C518.186 285.38 514.286 287.12 510.116 287.63L508.556 285.29C512.996 284.66 517.646 282.62 518.366 279.62H510.116V276.86H530.366V279.62H522.146C522.866 282.62 527.456 284.66 531.896 285.29ZM533.366 292.04H522.326V297.44H518.816V292.04H507.146V289.28H533.366V292.04ZM530.846 302.54H510.476V294.35H513.926V299.75H530.846V302.54ZM558.953 303.02H555.563V288.2H550.703C550.463 294.74 547.313 297.65 543.443 297.65C539.393 297.65 536.123 294.44 536.123 287.24C536.123 280.04 539.393 276.83 543.443 276.83C547.133 276.83 550.163 279.5 550.643 285.38H555.563V276.23H558.953V303.02ZM543.443 294.83C545.723 294.83 547.373 292.64 547.373 287.24C547.373 281.84 545.723 279.65 543.443 279.65C541.163 279.65 539.513 281.84 539.513 287.24C539.513 292.64 541.163 294.83 543.443 294.83ZM581.421 301.76H578.091V288.47H575.421C575.151 294.26 572.841 297.65 569.211 297.65C565.401 297.65 563.001 293.81 563.001 287.36C563.001 280.91 565.401 277.07 569.211 277.07C572.631 277.07 574.941 280.16 575.361 285.47H578.091V276.68H581.421V301.76ZM587.001 303.02H583.641V276.23H587.001V303.02ZM569.211 294.83C571.191 294.83 572.181 291.68 572.181 287.36C572.181 283.04 571.191 279.89 569.211 279.89C567.291 279.89 566.241 283.04 566.241 287.36C566.241 291.68 567.291 294.83 569.211 294.83ZM616.159 300.02H589.939V297.2H601.459V290.99H593.329V277.46H612.949V280.28H596.719V288.14H613.399V290.99H604.939V297.2H616.159V300.02ZM649.854 302.66H630.594V292.88H633.984V295.13H646.464V292.88H649.854V302.66ZM644.394 282.53L642.954 284.9C640.314 284.6 637.494 283.22 636.054 281.39C634.824 283.22 631.884 284.78 628.824 285.44L626.994 283.13C631.104 282.23 634.224 280.28 634.224 277.37V276.23H637.794V277.37C637.794 280.52 641.094 281.96 644.394 282.53ZM645.594 285.71V288.23C643.344 288.59 640.224 288.77 637.224 288.86V292.16H633.714V288.89H633.534H626.484V286.31H633.534C637.344 286.31 642.744 286.13 645.594 285.71ZM649.944 291.86H646.554V276.2H649.944V291.86ZM646.464 300.02V297.65H633.984V300.02H646.464ZM672.322 301.76H669.022V288.89H665.392V285.95H669.022V276.68H672.322V301.76ZM656.062 297.71L653.572 295.55C659.272 291.92 661.972 286.22 662.392 280.88H655.012V278.06H665.902C665.902 287 661.972 293.48 656.062 297.71ZM677.902 303.02H674.542V276.23H677.902V303.02ZM707.187 294.68L705.057 297.2C702.027 295.58 699.267 292.82 698.007 289.97C696.987 292.94 694.137 295.94 690.867 297.8L688.437 295.52C692.997 293.24 696.147 288.8 696.147 282.77V277.28H699.717V282.95C699.717 288.92 703.317 292.76 707.187 294.68ZM712.707 303.02H709.317V276.23H712.707V285.92H716.667V288.86H712.707V303.02ZM740.004 303.02H736.584V276.23H740.004V285.47H743.964V288.41H740.004V303.02ZM735.204 293.33V296.12C731.814 296.72 728.154 296.99 724.734 296.99H718.854V285.74H728.484V280.55H718.854V277.73H731.874V288.5H722.244V294.14H724.734C728.154 294.14 731.694 293.93 735.204 293.33ZM763.072 294.86L761.062 297.38C758.002 295.82 755.332 293.12 753.892 290.15C752.812 293.18 749.932 296.18 746.692 297.98L744.322 295.64C748.852 293.42 752.032 288.98 752.032 282.95V280.7H745.912V277.88H761.662V280.7H755.602V283.13C755.602 289.16 759.142 293 763.072 294.86ZM769.012 303.02H765.622V276.23H769.012V303.02ZM790.67 294.86L788.66 297.38C785.6 295.82 782.93 293.12 781.49 290.15C780.41 293.18 777.53 296.18 774.29 297.98L771.92 295.64C776.45 293.42 779.63 288.98 779.63 282.95V280.7H773.51V277.88H789.26V280.7H783.2V283.13C783.2 289.16 786.74 293 790.67 294.86ZM796.61 303.02H793.22V276.23H796.61V303.02ZM831.445 289.58H828.055V276.2H831.445V281.24H835.165V284.06H831.445V289.58ZM820.375 299.6V302.24C819.205 302.54 817.495 302.66 815.935 302.66H812.095V291.14H815.395V299.9H815.935C817.345 299.9 819.055 299.84 820.375 299.6ZM830.395 292.94H823.225V290.72H830.395V292.94ZM833.275 296.15H820.345V293.93H833.275V296.15ZM832.255 300.17C832.255 302.15 830.095 303.53 826.735 303.53C823.405 303.53 821.215 302.15 821.215 300.17C821.215 298.19 823.405 296.81 826.735 296.81C830.095 296.81 832.255 298.19 832.255 300.17ZM829.075 300.17C829.075 299.45 828.205 298.91 826.735 298.91C825.265 298.91 824.395 299.45 824.395 300.17C824.395 300.89 825.265 301.43 826.735 301.43C828.205 301.43 829.075 300.89 829.075 300.17ZM824.155 282.89C824.155 286.55 821.065 289.46 816.625 289.46C812.245 289.46 809.155 286.55 809.155 282.89C809.155 279.23 812.245 276.32 816.625 276.32C821.065 276.32 824.155 279.23 824.155 282.89ZM820.765 282.89C820.765 280.76 819.265 279.02 816.625 279.02C814.015 279.02 812.515 280.76 812.515 282.89C812.515 285.02 814.015 286.76 816.625 286.76C819.265 286.76 820.765 285.02 820.765 282.89ZM859.733 302.54H839.363V294.2H842.812V299.75H859.733V302.54ZM859.283 286.13H839.303V276.26H842.693V283.34H859.283V286.13ZM862.253 292.07H836.033V289.31H862.253V292.07ZM889.648 294.68L887.518 297.2C884.488 295.58 881.728 292.82 880.468 289.97C879.448 292.94 876.598 295.94 873.328 297.8L870.898 295.52C875.458 293.24 878.608 288.8 878.608 282.77V277.28H882.178V282.95C882.178 288.92 885.778 292.76 889.648 294.68ZM895.168 303.02H891.778V276.23H895.168V285.92H899.128V288.86H895.168V303.02ZM922.975 290H903.055V276.89H922.495V279.65H906.445V282.05H922.345V284.75H906.445V287.21H922.975V290ZM925.885 295.1H914.485V303.02H911.035V295.1H899.665V292.34H925.885V295.1ZM950.843 303.02H947.453V276.23H950.843V303.02ZM945.893 293.33V296.12C942.503 296.72 938.873 296.99 935.423 296.99H929.213V285.74H939.173V280.55H929.213V277.73H942.563V288.5H932.603V294.14H935.423C938.873 294.14 942.383 293.93 945.893 293.33ZM974.121 293.9V296.66C970.971 297.14 966.081 297.32 962.091 297.32H955.371V294.5H962.091C965.901 294.5 971.271 294.32 974.121 293.9ZM978.621 303.02H975.231V276.23H978.621V303.02ZM972.111 283.91C972.111 287.9 968.661 290.87 964.341 290.87C959.961 290.87 956.541 287.9 956.541 283.91C956.541 279.92 959.961 276.95 964.341 276.95C968.661 276.95 972.111 279.92 972.111 283.91ZM968.721 283.91C968.721 281.6 966.891 279.77 964.341 279.77C961.731 279.77 959.931 281.6 959.931 283.91C959.931 286.22 961.731 288.05 964.341 288.05C966.891 288.05 968.721 286.22 968.721 283.91ZM1017.12 300.02H990.896V297.2H1000.14V287.24H1003.59V297.2H1017.12V300.02ZM1012.17 293.75H1008.78C1009.68 289.58 1010.25 284.24 1010.46 280.58H993.716V277.76H1013.97C1013.79 283.88 1013.16 289.4 1012.17 293.75ZM1041.86 282.56C1041.86 286.19 1037.6 288.98 1031.51 288.98C1025.42 288.98 1021.22 286.19 1021.22 282.56C1021.22 278.93 1025.42 276.14 1031.51 276.14C1037.57 276.14 1041.8 278.93 1041.86 282.56ZM1038.14 303.02H1034.75V294.08H1028.42V302.72H1025.03V294.08H1018.49V291.26H1044.71V294.08H1038.14V303.02ZM1038.26 282.53C1038.23 280.4 1035.5 278.9 1031.51 278.9C1027.52 278.9 1024.79 280.4 1024.79 282.53C1024.79 284.66 1027.52 286.16 1031.51 286.16C1035.53 286.16 1038.26 284.66 1038.26 282.53ZM1059.62 278.66H1050.89V276.02H1059.62V278.66ZM1063.52 282.89H1046.96V280.19H1063.52V282.89ZM1062.38 288.68C1062.38 291.38 1059.44 293.33 1055.24 293.33C1051.04 293.33 1048.07 291.38 1048.07 288.68C1048.07 285.98 1051.04 284.03 1055.24 284.03C1059.44 284.03 1062.38 285.98 1062.38 288.68ZM1070.27 302.54H1051.19V294.89H1054.64V299.69H1070.27V302.54ZM1069.4 296H1066.01V276.2H1069.4V284.03H1073.15V286.91H1069.4V296ZM1058.99 288.68C1058.99 287.27 1057.34 286.55 1055.24 286.55C1053.11 286.55 1051.46 287.27 1051.46 288.68C1051.46 290.09 1053.11 290.81 1055.24 290.81C1057.34 290.81 1058.99 290.09 1058.99 288.68ZM1105.5 283.97C1105.5 288.08 1101.15 291.44 1095.15 291.44C1089.15 291.44 1084.86 288.08 1084.86 283.97C1084.86 279.86 1089.15 276.5 1095.15 276.5C1101.15 276.5 1105.5 279.86 1105.5 283.97ZM1108.35 300.02H1082.13V297.2H1087.89V292.01H1091.28V297.2H1099.17V292.01H1102.56V297.2H1108.35V300.02ZM1101.9 283.97C1101.9 281.3 1099.08 279.32 1095.15 279.32C1091.25 279.32 1088.43 281.3 1088.43 283.97C1088.43 286.61 1091.25 288.62 1095.15 288.62C1099.08 288.62 1101.9 286.61 1101.9 283.97ZM1134.86 289.55L1132.94 291.98C1128.5 290.6 1124.63 288.08 1122.8 284.51C1121 288.08 1117.1 290.6 1112.69 291.98L1110.77 289.55C1116.17 288.14 1121.03 284.24 1121.03 279.74V277.04H1124.6V279.74C1124.6 284.24 1129.46 288.14 1134.86 289.55ZM1135.94 300.02H1109.72V297.2H1121.09V291.35H1124.54V297.2H1135.94V300.02ZM1163.54 289.7H1137.32V287.06H1163.54V289.7ZM1160.9 302.78H1140.59V295.91H1156.88V294.23H1140.59V291.59H1160.27V298.37H1143.98V300.08H1160.9V302.78ZM1160.57 285.2H1140.59V276.86H1160.27V279.5H1143.98V282.56H1160.57V285.2ZM1191.14 289.7H1164.92V287.06H1191.14V289.7ZM1188.5 302.78H1168.19V295.91H1184.48V294.23H1168.19V291.59H1187.87V298.37H1171.58V300.08H1188.5V302.78ZM1188.32 280.73C1188.32 283.58 1184.42 285.65 1178 285.65C1171.64 285.65 1167.74 283.58 1167.74 280.73C1167.74 277.88 1171.64 275.81 1178 275.81C1184.42 275.81 1188.32 277.88 1188.32 280.73ZM1184.72 280.73C1184.72 279.29 1181.96 278.39 1178 278.39C1174.07 278.39 1171.31 279.29 1171.31 280.73C1171.31 282.17 1174.07 283.07 1178 283.07C1181.96 283.07 1184.72 282.17 1184.72 280.73ZM1226.09 287.9L1224.26 290.36C1220.18 289.94 1216.25 288.62 1214.03 286.13C1211.84 288.62 1207.88 289.94 1203.83 290.36L1202 287.9C1206.83 287.42 1211.24 285.59 1212.11 283.25H1203.83V280.55H1224.26V283.25H1215.98C1216.79 285.59 1221.23 287.42 1226.09 287.9ZM1227.17 294.8H1215.77V303.02H1212.32V294.8H1200.95V292.04H1227.17V294.8ZM1219.61 278.84H1208.48V276.08H1219.61V278.84ZM1246.55 293.33V296.12C1243.16 296.72 1239.5 296.99 1236.08 296.99H1230.5V285.74H1239.5V280.55H1230.5V277.73H1242.89V288.5H1233.89V294.14H1236.08C1239.5 294.14 1243.04 293.93 1246.55 293.33ZM1252.13 303.02H1248.74V290.87H1244.33V288.11H1248.74V283.97H1244.33V281.21H1248.74V276.23H1252.13V303.02ZM1290.81 292.64H1279.77V297.74H1276.26V292.64H1264.59V289.88H1290.81V292.64ZM1288.29 302.54H1267.92V294.5H1271.37V299.75H1288.29V302.54ZM1284.15 284.84V281.99H1271.25V284.84H1284.15ZM1287.54 287.6H1267.86V276.26H1271.25V279.29H1284.15V276.26H1287.54V287.6ZM1315.49 290H1295.57V282.05H1311.29V279.65H1295.57V276.89H1314.68V284.75H1298.96V287.21H1315.49V290ZM1311.83 303.02H1308.44V295.1H1302.11V302.72H1298.72V295.1H1292.18V292.34H1318.4V295.1H1311.83V303.02ZM1333.13 279.5H1324.4V276.68H1333.13V279.5ZM1337.09 284.12H1320.47V281.3H1337.09V284.12ZM1342.88 303.02H1339.49V276.23H1342.88V286.97H1346.84V289.91H1342.88V303.02ZM1336.16 291.89C1336.16 295.4 1333.19 298.37 1328.78 298.37C1324.34 298.37 1321.37 295.4 1321.37 291.89C1321.37 288.38 1324.34 285.41 1328.78 285.41C1333.19 285.41 1336.16 288.38 1336.16 291.89ZM1332.77 291.89C1332.77 289.85 1331.24 288.17 1328.78 288.17C1326.29 288.17 1324.76 289.85 1324.76 291.89C1324.76 293.93 1326.29 295.61 1328.78 295.61C1331.24 295.61 1332.77 293.93 1332.77 291.89ZM1373.6 300.02H1347.38V297.2H1356.62V287.24H1360.07V297.2H1373.6V300.02ZM1368.65 293.75H1365.26C1366.16 289.58 1366.73 284.24 1366.94 280.58H1350.2V277.76H1370.45C1370.27 283.88 1369.64 289.4 1368.65 293.75ZM1377.05 305.93L1376.12 304.76C1377.14 304.43 1378.22 303.32 1378.22 302.3C1378.22 301.67 1377.56 301.55 1377.17 301.46C1376.69 301.37 1376.06 300.68 1376.06 299.6C1376.06 298.31 1377.08 297.38 1378.34 297.38C1380.08 297.38 1380.83 298.94 1380.83 300.53C1380.83 302.9 1379.15 305.06 1377.05 305.93ZM384.09 325.97C384.09 330.08 379.74 333.44 373.74 333.44C367.74 333.44 363.45 330.08 363.45 325.97C363.45 321.86 367.74 318.5 373.74 318.5C379.74 318.5 384.09 321.86 384.09 325.97ZM386.94 342.02H360.72V339.2H366.48V334.01H369.87V339.2H377.76V334.01H381.15V339.2H386.94V342.02ZM380.49 325.97C380.49 323.3 377.67 321.32 373.74 321.32C369.84 321.32 367.02 323.3 367.02 325.97C367.02 328.61 369.84 330.62 373.74 330.62C377.67 330.62 380.49 328.61 380.49 325.97ZM413.458 331.55L411.538 333.98C407.098 332.6 403.228 330.08 401.398 326.51C399.598 330.08 395.698 332.6 391.288 333.98L389.368 331.55C394.768 330.14 399.628 326.24 399.628 321.74V319.04H403.198V321.74C403.198 326.24 408.058 330.14 413.458 331.55ZM414.538 342.02H388.318V339.2H399.688V333.35H403.138V339.2H414.538V342.02ZM442.135 331.7H415.915V329.06H442.135V331.7ZM439.495 344.78H419.185V337.91H435.475V336.23H419.185V333.59H438.865V340.37H422.575V342.08H439.495V344.78ZM439.165 327.2H419.185V318.86H438.865V321.5H422.575V324.56H439.165V327.2ZM469.733 331.7H443.513V329.06H469.733V331.7ZM467.093 344.78H446.783V337.91H463.073V336.23H446.783V333.59H466.463V340.37H450.173V342.08H467.093V344.78ZM466.913 322.73C466.913 325.58 463.013 327.65 456.593 327.65C450.233 327.65 446.333 325.58 446.333 322.73C446.333 319.88 450.233 317.81 456.593 317.81C463.013 317.81 466.913 319.88 466.913 322.73ZM463.313 322.73C463.313 321.29 460.553 320.39 456.593 320.39C452.663 320.39 449.903 321.29 449.903 322.73C449.903 324.17 452.663 325.07 456.593 325.07C460.553 325.07 463.313 324.17 463.313 322.73ZM504.688 331.67L502.828 334.16C498.658 333.26 494.668 330.98 492.628 327.56C490.648 330.98 486.598 333.26 482.458 334.16L480.598 331.67C486.148 330.62 490.858 326.96 490.858 322.94V322.28H482.428V319.46H502.858V322.28H494.428V322.94C494.428 326.96 499.168 330.62 504.688 331.67ZM505.768 342.02H479.548V339.2H490.918V333.35H494.368V339.2H505.768V342.02ZM520.676 320.42H511.946V317.9H520.676V320.42ZM524.576 324.23H508.016V321.65H524.576V324.23ZM523.436 329.24C523.436 331.67 520.496 333.41 516.296 333.41C512.096 333.41 509.126 331.67 509.126 329.24C509.126 326.81 512.096 325.07 516.296 325.07C520.496 325.07 523.436 326.81 523.436 329.24ZM530.456 333.5H527.066V318.2H530.456V324.5H534.176V327.32H530.456V333.5ZM530.396 344.66H512.126V334.58H515.516V337.13H527.006V334.58H530.396V344.66ZM527.006 342.08V339.65H515.516V342.08H527.006ZM520.046 329.24C520.046 328.04 518.396 327.47 516.296 327.47C514.166 327.47 512.516 328.04 512.516 329.24C512.516 330.44 514.166 331.01 516.296 331.01C518.396 331.01 520.046 330.44 520.046 329.24ZM559.403 345.02H556.043V331.85H553.493V343.76H550.193V318.68H553.493V328.73H556.043V318.23H559.403V345.02ZM548.213 333.5C548.213 336.98 545.573 339.62 541.973 339.62C538.373 339.62 535.733 336.98 535.733 333.5C535.733 330.02 538.373 327.38 541.973 327.38C545.573 327.38 548.213 330.02 548.213 333.5ZM548.933 326.09H535.013V323.27H548.933V326.09ZM541.973 336.86C543.863 336.86 544.943 335.51 544.943 333.5C544.943 331.49 543.863 330.14 541.973 330.14C540.083 330.14 538.973 331.49 538.973 333.5C538.973 335.51 540.083 336.86 541.973 336.86ZM545.933 321.68H538.043V318.86H545.933V321.68ZM576.899 317L577.679 317.81C576.839 318.23 575.969 319.1 575.669 319.58C575.519 319.88 575.459 320.15 575.459 320.36C575.459 320.51 575.639 320.81 576.119 320.87C577.259 321.02 577.949 321.86 577.949 322.97C577.949 324.05 576.899 325.01 575.789 325.01C574.139 325.01 573.239 323.51 573.239 322.07C573.239 321.08 573.599 319.91 574.289 319.04C574.979 318.17 576.089 317.33 576.899 317ZM595.126 337.04L593.026 339.26C590.806 337.76 588.946 335.48 587.806 332.99C586.906 335.42 584.776 338.06 582.016 339.95L579.616 337.79C583.606 335.48 585.976 331.22 585.976 325.52V322.88H581.416V320.06H593.716V322.88H589.516V325.52C589.516 331.4 592.216 335.18 595.126 337.04ZM599.266 343.76H595.936V329.78H592.156V326.78H595.936V318.68H599.266V343.76ZM604.966 345.02H601.636V318.23H604.966V345.02ZM608.924 341.63L609.854 339.02C611.594 339.8 613.634 340.28 615.614 340.28C618.524 340.28 620.624 338.93 620.624 336.14C620.624 333.08 617.384 332.15 614.174 332.15H612.164V329.36H614.234C617.384 329.36 620.054 328.49 620.054 325.64C620.024 323.3 618.284 322.16 615.704 322.16C614.024 322.16 612.164 322.52 610.364 323.45L609.404 320.81C611.444 319.88 613.874 319.43 616.034 319.43C619.994 319.43 623.354 321.23 623.354 325.19C623.354 327.83 621.944 329.63 619.094 330.47V330.59C622.244 331.16 623.954 333.56 623.954 336.17C623.954 340.79 620.264 343.07 615.764 343.07C613.394 343.07 610.814 342.53 608.924 341.63ZM645.732 335.9V338.66C642.582 339.14 637.692 339.32 633.702 339.32H626.982V336.5H633.702C637.512 336.5 642.882 336.32 645.732 335.9ZM650.232 345.02H646.842V318.23H650.232V345.02ZM643.722 325.91C643.722 329.9 640.272 332.87 635.952 332.87C631.572 332.87 628.152 329.9 628.152 325.91C628.152 321.92 631.572 318.95 635.952 318.95C640.272 318.95 643.722 321.92 643.722 325.91ZM640.332 325.91C640.332 323.6 638.502 321.77 635.952 321.77C633.342 321.77 631.542 323.6 631.542 325.91C631.542 328.22 633.342 330.05 635.952 330.05C638.502 330.05 640.332 328.22 640.332 325.91ZM680.087 336.68L677.957 339.2C674.927 337.58 672.167 334.82 670.907 331.97C669.887 334.94 667.037 337.94 663.767 339.8L661.337 337.52C665.897 335.24 669.047 330.8 669.047 324.77V319.28H672.617V324.95C672.617 330.92 676.217 334.76 680.087 336.68ZM685.607 345.02H682.217V318.23H685.607V327.92H689.567V330.86H685.607V345.02ZM713.415 332H693.495V318.89H712.935V321.65H696.885V324.05H712.785V326.75H696.885V329.21H713.415V332ZM716.325 337.1H704.925V345.02H701.475V337.1H690.105V334.34H716.325V337.1ZM741.282 345.02H737.892V318.23H741.282V345.02ZM736.332 335.33V338.12C732.942 338.72 729.312 338.99 725.862 338.99H719.652V327.74H729.612V322.55H719.652V319.73H733.002V330.5H723.042V336.14H725.862C729.312 336.14 732.822 335.93 736.332 335.33ZM747.01 325.58L746.23 324.77C747.07 324.35 747.94 323.48 748.24 323C748.39 322.7 748.45 322.43 748.45 322.22C748.45 322.07 748.27 321.77 747.79 321.71C746.65 321.56 745.96 320.72 745.96 319.61C745.96 318.53 747.01 317.57 748.12 317.57C749.77 317.57 750.67 319.07 750.67 320.51C750.67 321.5 750.31 322.67 749.62 323.54C748.93 324.41 747.82 325.25 747.01 325.58ZM778.138 344.78H757.828V338.51H774.118V337.19H757.828V334.67H777.508V340.85H761.218V342.2H778.138V344.78ZM777.748 328.82H757.858V322.49H773.878V321.14H757.858V318.62H777.268V324.89H761.248V326.27H777.748V328.82ZM780.778 333.02H754.558V330.5H780.778V333.02ZM808.893 330.38L807.033 332.81C804.243 331.94 801.633 330.08 800.103 327.83C798.783 330.2 796.053 332.3 792.993 333.5L790.743 331.16C795.273 329.66 798.213 326.36 798.213 322.73V322.07H792.363V319.31H807.513V322.07H801.813V322.67C801.813 326.66 805.203 329.24 808.893 330.38ZM814.533 345.11H811.113V338.06H795.303V335.24H814.533V345.11ZM814.593 334.1H811.203V318.2H814.593V334.1ZM842.131 344.66H823.501V333.68H826.891V336.5H838.711V333.68H842.131V344.66ZM836.491 329.42L834.721 331.85C832.051 331.22 829.291 329.54 827.701 327.29C826.321 329.66 823.441 331.64 820.501 332.6L818.341 330.17C822.691 328.88 825.811 325.88 825.811 322.91V322.01H819.961V319.31H835.111V322.01H829.411V322.91C829.411 326.18 832.921 328.58 836.491 329.42ZM842.191 332.6H838.801V326.57H834.001V323.81H838.801V318.2H842.191V332.6ZM838.711 341.9V339.2H826.891V341.9H838.711ZM878.076 344.54H858.996V335.39H862.476V341.75H878.076V344.54ZM877.236 337.7H873.846V318.2H877.236V324.53H880.986V327.41H877.236V337.7ZM865.746 329.57V322.07H859.176V329.57H865.746ZM869.136 332.33H855.786V319.31H869.136V332.33ZM908.044 331.7H881.824V329.06H908.044V331.7ZM905.404 344.78H885.094V337.91H901.384V336.23H885.094V333.59H904.774V340.37H888.484V342.08H905.404V344.78ZM905.074 327.2H885.094V318.86H904.774V321.5H888.484V324.56H905.074V327.2ZM933.631 345.02H930.241V330.2H925.381C925.141 336.74 921.991 339.65 918.121 339.65C914.071 339.65 910.801 336.44 910.801 329.24C910.801 322.04 914.071 318.83 918.121 318.83C921.811 318.83 924.841 321.5 925.321 327.38H930.241V318.23H933.631V345.02ZM918.121 336.83C920.401 336.83 922.051 334.64 922.051 329.24C922.051 323.84 920.401 321.65 918.121 321.65C915.841 321.65 914.191 323.84 914.191 329.24C914.191 334.64 915.841 336.83 918.121 336.83ZM963.239 342.02H937.019V339.2H948.389V333.89H940.409V319.04H943.799V323.51H956.459V319.04H959.849V333.89H951.839V339.2H963.239V342.02ZM956.459 331.07V326.27H943.799V331.07H956.459ZM988.316 344.54H967.946V336.2H971.396V341.75H988.316V344.54ZM987.866 328.13H967.886V318.26H971.276V325.34H987.866V328.13ZM990.836 334.07H964.616V331.31H990.836V334.07ZM1025.22 344.78H1005.96V337.67H1021.17V335.87H1005.96V333.23H1024.59V340.19H1009.35V342.08H1025.22V344.78ZM1024.65 332.09H1021.26V318.2H1024.65V332.09ZM1018.53 328.67L1016.76 331.13C1014.06 330.32 1011.18 328.4 1009.77 326.21C1008.54 328.58 1005.6 330.8 1002.54 331.82L1000.41 329.42C1004.76 328.04 1007.91 324.92 1007.91 320.93V318.65H1011.48V320.87C1011.48 325.1 1014.87 327.62 1018.53 328.67ZM1041.78 320.66H1033.05V318.02H1041.78V320.66ZM1045.68 324.68H1029.12V321.98H1045.68V324.68ZM1044.54 329.87C1044.54 332.33 1041.6 334.13 1037.4 334.13C1033.2 334.13 1030.23 332.33 1030.23 329.87C1030.23 327.41 1033.2 325.61 1037.4 325.61C1041.6 325.61 1044.54 327.41 1044.54 329.87ZM1041.15 329.87C1041.15 328.73 1039.5 328.19 1037.4 328.19C1035.27 328.19 1033.62 328.73 1033.62 329.87C1033.62 331.01 1035.27 331.55 1037.4 331.55C1039.5 331.55 1041.15 331.01 1041.15 329.87ZM1052.19 344.66H1033.56V335.75H1052.19V344.66ZM1048.77 342.02V338.39H1036.95V342.02H1048.77ZM1052.25 334.61H1048.86V329.24H1045.11V326.42H1048.86V318.2H1052.25V334.61ZM1082.07 331.7H1055.85V329.06H1082.07V331.7ZM1079.43 344.78H1059.12V337.91H1075.41V336.23H1059.12V333.59H1078.8V340.37H1062.51V342.08H1079.43V344.78ZM1079.25 322.73C1079.25 325.58 1075.35 327.65 1068.93 327.65C1062.57 327.65 1058.67 325.58 1058.67 322.73C1058.67 319.88 1062.57 317.81 1068.93 317.81C1075.35 317.81 1079.25 319.88 1079.25 322.73ZM1075.65 322.73C1075.65 321.29 1072.89 320.39 1068.93 320.39C1065 320.39 1062.24 321.29 1062.24 322.73C1062.24 324.17 1065 325.07 1068.93 325.07C1072.89 325.07 1075.65 324.17 1075.65 322.73ZM1110.18 330.98L1108.32 333.41C1105.47 332.36 1102.83 330.44 1101.39 328.13C1100.07 330.56 1097.34 332.84 1094.28 334.1L1092.03 331.76C1096.56 330.14 1099.5 326.6 1099.5 323.03V322.07H1093.65V319.31H1108.8V322.07H1103.1V322.97C1103.1 327.02 1106.49 329.72 1110.18 330.98ZM1116.57 344.54H1097.34V335.69H1100.79V341.75H1116.57V344.54ZM1115.88 338H1112.49V318.2H1115.88V338ZM1144.05 340.49C1144.05 343.28 1140.42 345.41 1133.73 345.41C1127.04 345.41 1123.44 343.28 1123.44 340.49C1123.44 337.7 1127.04 335.57 1133.73 335.57C1140.42 335.57 1144.05 337.7 1144.05 340.49ZM1144.02 335.57H1140.66V328.49H1138.11V334.67H1134.78V318.68H1138.11V325.49H1140.66V318.23H1144.02V335.57ZM1132.86 330.2C1132.86 332.66 1130.28 334.55 1126.71 334.55C1123.14 334.55 1120.56 332.66 1120.56 330.2C1120.56 327.74 1123.14 325.85 1126.71 325.85C1130.28 325.85 1132.86 327.74 1132.86 330.2ZM1140.51 340.49C1140.51 339.05 1137.99 338.15 1133.73 338.15C1129.5 338.15 1126.95 339.05 1126.95 340.49C1126.95 341.93 1129.5 342.83 1133.73 342.83C1137.99 342.83 1140.51 341.93 1140.51 340.49ZM1133.49 324.95H1119.96V322.25H1133.49V324.95ZM1130.4 321.11H1123.02V318.47H1130.4V321.11ZM1129.59 330.2C1129.59 329.06 1128.48 328.37 1126.71 328.37C1124.97 328.37 1123.83 329.06 1123.83 330.2C1123.83 331.34 1124.97 332.03 1126.71 332.03C1128.48 332.03 1129.59 331.34 1129.59 330.2ZM1160.61 320.66H1151.88V318.02H1160.61V320.66ZM1164.51 324.89H1147.95V322.19H1164.51V324.89ZM1163.37 330.68C1163.37 333.38 1160.43 335.33 1156.23 335.33C1152.03 335.33 1149.06 333.38 1149.06 330.68C1149.06 327.98 1152.03 326.03 1156.23 326.03C1160.43 326.03 1163.37 327.98 1163.37 330.68ZM1171.26 344.54H1152.18V336.89H1155.63V341.69H1171.26V344.54ZM1170.39 338H1167V318.2H1170.39V326.03H1174.14V328.91H1170.39V338ZM1159.98 330.68C1159.98 329.27 1158.33 328.55 1156.23 328.55C1154.1 328.55 1152.45 329.27 1152.45 330.68C1152.45 332.09 1154.1 332.81 1156.23 332.81C1158.33 332.81 1159.98 332.09 1159.98 330.68ZM1197.48 345.02H1194.06V318.23H1197.48V327.02H1201.44V329.96H1197.48V345.02ZM1192.68 334.7V337.52C1189.29 338.12 1185.63 338.39 1182.21 338.39H1176.63V319.88H1189.98V322.7H1180.02V335.51H1182.21C1185.63 335.51 1189.17 335.3 1192.68 334.7ZM1205.81 344.09C1204.55 344.09 1203.53 343.07 1203.53 341.78C1203.53 340.58 1204.52 339.59 1205.75 339.59C1206.98 339.59 1208.09 340.55 1208.09 341.78C1208.09 342.98 1207.04 344.09 1205.81 344.09Z" fill="white"/>
</svg>
