<svg width="78" height="78" viewBox="0 0 78 78" fill="none" xmlns="http://www.w3.org/2000/svg">
<rect x="-0.2" y="0.2" width="51.6" height="51.6" transform="matrix(-1 0 0 1 77.6 26)" fill="#00B7AB" stroke="black" stroke-width="0.4"/>
<rect x="-0.2" y="0.2" width="51.6" height="51.6" transform="matrix(-1 0 0 1 64.6 13)" fill="#F6C500" stroke="black" stroke-width="0.4"/>
<rect x="-0.2" y="0.2" width="51.6" height="51.6" transform="matrix(-1 0 0 1 51.6 0)" fill="#FF0561" stroke="black" stroke-width="0.4"/>
<rect x="-0.2" y="0.2" width="38.6" height="38.6" transform="matrix(-1 0 0 1 64.6 26)" fill="#90C85F" stroke="black" stroke-width="0.4"/>
<rect x="-0.2" y="0.2" width="38.6" height="38.6" transform="matrix(-1 0 0 1 51.6 13)" fill="#FF6505" stroke="black" stroke-width="0.4"/>
<rect x="-0.2" y="0.2" width="25.6" height="25.6" transform="matrix(-1 0 0 1 51.6 26)" fill="#161616" stroke="#161616" stroke-width="0.4"/>
</svg>
