<svg width="271" height="151" viewBox="0 0 271 151" fill="none" xmlns="http://www.w3.org/2000/svg">
<rect x="0.5" y="0.5" width="90" height="120" fill="#FF961E"/>
<rect x="0.5" y="0.5" width="90" height="120" stroke="black"/>
<path d="M67.1 53.1V59.04C67.1 59.7 66.98 60.9 66.86 62.58C66.74 63.54 66.14 64.08 65.18 64.08C63.02 64.14 61.22 64.14 59.66 64.02C58.76 64.02 57.98 63.66 57.38 63.06C56.78 62.46 56.42 61.74 56.42 60.9C56.36 57.96 56.36 54.24 56.42 49.74C56.42 49.08 56.48 47.52 56.54 45.12C56.6 42.72 56.66 41.04 56.72 40.14C56.72 38.94 57.14 38.16 57.98 37.68C58.16 37.56 58.52 37.38 59.06 37.08C59.6 36.84 60.02 36.6 60.32 36.48C60.56 36.36 60.92 36.24 61.4 36.06C61.88 35.88 62.3 35.76 62.72 35.7C63.14 35.64 63.56 35.64 64.04 35.64C64.76 35.7 65.3 35.76 65.66 35.88C66.5 36.24 66.92 36.84 66.92 37.74C66.92 39.42 67.04 41.58 67.34 44.1C67.4 44.58 67.76 44.88 68.48 44.94C71.36 45.18 72.98 45.3 73.34 45.36C74.18 45.6 74.72 46.26 74.84 47.46C75.02 49.26 74.72 50.88 73.88 52.26C73.64 52.68 72.92 52.98 71.84 53.1H67.1ZM35.6 45.84C33.44 45.36 30.74 45.42 27.5 46.02C24.26 46.62 21.98 46.92 20.78 46.86C21.2 43.26 21.5 40.68 21.74 39.12C24.92 38.7 26.6 38.46 26.84 38.46C32.24 38.16 35.72 38.04 37.4 38.1C38.24 38.16 39.08 38.28 39.92 38.4C40.76 38.58 41.84 38.82 43.16 39.12C44.42 39.48 45.26 39.66 45.74 39.72C47.18 40.08 47.72 41.1 47.24 42.72C46.76 44.34 46.4 45.48 46.16 46.2C45.92 46.92 45.44 47.82 44.84 49.02C44.24 50.22 43.52 51.18 42.68 51.96C42.44 52.2 42.14 52.5 41.78 52.86C41.36 53.22 41.06 53.52 40.94 53.64C40.82 53.76 40.64 53.94 40.52 54.18C40.4 54.42 40.34 54.66 40.4 54.78C40.46 54.96 40.58 55.14 40.82 55.38C41 55.62 41.3 55.86 41.72 56.1C41.96 56.28 42.32 56.64 42.92 57.12C43.46 57.6 43.82 57.96 43.94 58.14C44.48 58.92 45.2 59.7 46.04 60.54C46.88 61.38 47.54 62.16 48.08 62.94C49.04 64.38 48.86 65.46 47.42 66.18C46.94 66.48 46.28 66.9 45.44 67.5C44.6 68.1 44 68.46 43.7 68.64C43.4 68.88 43.16 69 42.92 69.06C42.68 69.12 42.38 69.12 42.08 69C41.78 68.88 41.6 68.82 41.48 68.76C41.36 68.76 41.12 68.58 40.7 68.28C40.28 68.04 40.04 67.86 39.98 67.8C39.68 67.68 39.5 67.56 39.44 67.44C39.32 67.32 39.26 67.26 39.26 67.2C39.26 67.14 39.14 66.96 38.96 66.72C38.72 66.48 38.42 66.12 38 65.7C37.82 65.58 37.52 65.22 37.04 64.56C36.56 63.96 36.08 63.42 35.72 63.06C34.52 61.86 33.2 61.32 31.76 61.32C30.32 61.32 28.58 62.04 26.42 63.48C25.22 64.26 23.96 65.28 22.64 66.54C21.44 67.62 20.72 67.38 20.36 65.88C19.58 62.76 19.16 60.84 19.04 60.06C18.8 58.74 18.98 57.54 19.58 56.52C20.18 55.56 21.2 54.84 22.58 54.36C24.62 53.76 26.54 52.92 28.28 51.72C29.96 50.52 31.94 48.96 34.22 46.98C34.22 46.98 34.7 46.62 35.6 45.84ZM29.6 77.34C29.48 77.34 29.18 77.4 28.7 77.4C28.22 77.46 27.86 77.46 27.68 77.46C27.44 77.46 27.2 77.46 26.84 77.4C26.48 77.34 26.18 77.22 26.06 77.1C25.88 76.98 25.7 76.74 25.52 76.44C25.34 76.14 25.22 75.78 25.22 75.3C25.16 75.06 25.1 74.58 24.98 73.92C24.86 73.32 24.8 72.78 24.8 72.3C24.8 71.7 24.86 71.04 25.04 70.44C25.04 70.2 25.22 69.9 25.58 69.6C25.94 69.36 26.3 69.18 26.72 69.18C42.92 69.12 54.2 69.3 60.68 69.72C62 69.84 63.02 69.96 63.8 70.2C64.7 70.56 65.24 70.98 65.42 71.52C65.6 72.36 65.72 73.2 65.72 74.04C65.72 75.06 65.54 76.26 65.3 77.64C64.82 79.98 63.62 81.66 61.64 82.62C60.56 83.16 58.58 83.58 55.76 83.82C54.74 83.94 53.3 84 51.38 84C49.46 84.06 48.14 84.12 47.36 84.18C47.24 84.18 45.08 84.24 40.94 84.3C36.74 84.36 34.46 84.42 34.04 84.54L34.1 86.16C34.82 86.16 37.52 86.16 42.2 86.04C46.88 85.98 49.64 85.92 50.36 85.92C51.98 85.92 53.42 85.92 54.68 85.86C55.52 85.86 56.84 85.8 58.58 85.68C60.26 85.56 61.52 85.5 62.36 85.44H62.48C63.56 85.44 64.16 85.86 64.16 86.7V87C63.8 88.86 63.5 90.3 63.26 91.26C62.96 92.22 62.48 92.88 61.82 93.24C61.16 93.6 60.08 93.78 58.52 93.78H57.8C56.24 93.78 54.02 93.66 51.2 93.48C48.38 93.3 46.4 93.18 45.26 93.06C43.46 93 41.9 93 40.52 93.06C39.14 93.18 37.58 93.18 35.9 93.06C34.22 93 32.72 92.82 31.4 92.52C29.6 92.16 28.34 91.56 27.62 90.6C26.9 89.64 26.48 88.38 26.24 86.76C26.18 86.52 26.18 85.86 26.18 84.66C26.18 84.6 26.18 84.12 26.24 83.28C26.24 82.02 26.6 81.12 27.2 80.64C27.8 80.16 28.82 79.92 30.38 79.86C36.14 79.74 43.76 79.44 53.3 79.02C54.5 79.02 55.1 78.6 55.1 77.76V77.46C55.04 77.22 55.04 76.98 55.04 76.74V76.44C55.04 76.32 54.74 76.26 54.14 76.26C53.54 76.26 52.46 76.26 50.9 76.32C49.34 76.38 47.72 76.44 45.98 76.56C44.24 76.68 41.78 76.8 38.66 76.92C35.54 77.1 32.48 77.22 29.6 77.34Z" fill="white"/>
<rect x="90.5" y="0.5" width="90" height="120" fill="#FF961E"/>
<rect x="90.5" y="0.5" width="90" height="120" stroke="black"/>
<path d="M147.14 37.62C149.42 37.5 150.68 37.44 150.8 37.44C152.12 37.5 153.38 37.62 154.7 37.8C156.02 37.98 157.16 38.1 158.18 38.16C159.32 38.28 159.92 38.94 159.98 40.08C159.98 41.52 160.1 43.74 160.28 46.68C160.46 49.68 160.58 51.9 160.64 53.4C160.7 54.54 160.7 56.58 160.7 59.46C160.7 62.4 160.7 64.44 160.7 65.52C160.7 67.14 160.7 70.44 160.7 75.48C160.7 80.52 160.7 83.88 160.7 85.5V85.62C160.7 86.46 160.58 87.3 160.34 88.02C159.8 89.52 158.84 90.24 157.46 90.18C156.8 90.18 156.02 90.24 155.18 90.24C154.34 90.24 153.62 90.24 153.02 90.12C152.54 90.12 152 89.94 151.52 89.64C150.98 89.4 150.62 89.04 150.5 88.68C149.3 85.8 148.7 83.58 148.64 82.02C148.46 78.54 148.34 72.6 148.28 64.32C148.22 56.04 148.16 50.4 148.04 47.34C148.04 46.38 147.98 45.42 147.86 44.34C147.74 43.26 147.62 42.06 147.5 40.68L147.14 37.62ZM124.7 87.96C119.48 87.9 115.16 86.1 111.68 82.5C110.48 81.3 109.64 79.26 109.28 76.38C108.68 72.42 108.38 68.88 108.44 65.82C108.44 60.54 109.58 55.44 111.86 50.52C112.04 50.1 112.22 49.8 112.4 49.62C115.52 46.5 117.5 44.58 118.34 43.86C118.52 43.68 118.76 43.56 119.06 43.44C119.3 43.38 119.66 43.32 120.14 43.26C120.56 43.2 120.86 43.14 121.04 43.14C123.74 42.54 126.32 42.72 128.72 43.68C131.12 44.64 133.64 46.2 136.16 48.24C137.18 49.2 138.02 50.04 138.62 50.82C139.22 51.6 139.64 52.5 139.88 53.52C140.36 56.1 140.54 58.26 140.36 59.94C140 64.02 139.34 68.46 138.5 73.32C137.48 79.02 134.84 83.22 130.52 85.86C127.88 87.54 125.9 88.2 124.7 87.96ZM131.24 62.94C131.18 62.82 131.12 62.46 131.06 61.98C130.94 61.5 130.88 61.14 130.82 60.9C130.76 60.72 130.7 60.42 130.58 60.06C130.46 59.7 130.34 59.4 130.16 59.1C129.98 58.86 129.8 58.56 129.56 58.32C128.12 56.82 126.56 56.22 124.88 56.52C123.14 56.88 121.94 58.02 121.22 60C120.32 62.28 120.08 64.32 120.44 66.12C120.56 66.84 120.68 67.98 120.86 69.48C121.04 71.04 121.22 72.18 121.4 72.96C121.58 73.86 122.12 74.64 123.08 75.3C123.98 75.96 124.88 76.26 125.84 76.26C126.5 76.26 127.16 76.02 127.88 75.48C128.54 75 128.96 74.34 129.14 73.5C129.26 72.84 129.98 69.3 131.24 62.94Z" fill="white"/>
<rect x="180.5" y="30.5" width="90" height="120" fill="#FF961E"/>
<rect x="180.5" y="30.5" width="90" height="120" stroke="black"/>
<path d="M251.12 69.96C251.12 70.02 251.12 70.08 251.24 70.08C251.36 70.2 251.6 70.26 251.96 70.38C252.32 70.5 252.62 70.56 252.86 70.68C253.1 70.8 253.22 70.92 253.28 71.04C253.58 72.18 253.7 73.5 253.64 74.94C253.58 75.42 253.28 78.6 252.8 84.48C252.38 88.92 252.02 93.36 251.66 97.8C251.24 102.12 251 104.7 251 105.54C250.88 106.26 250.82 107.22 250.76 108.48C250.7 109.74 250.64 110.88 250.58 111.9C250.46 112.92 250.4 113.88 250.28 114.78C250.16 115.62 249.56 116.82 248.6 118.44C248.36 118.86 247.82 119.04 246.98 119.04C246.8 119.1 245.06 119.1 241.7 119.1C241.1 119.1 240.62 118.98 240.26 118.62C239.9 118.26 239.66 117.84 239.66 117.24L239.24 110.94C239.24 110.82 239.18 110.4 239.12 109.68C239 108.96 239 108.42 239.06 108.06C239.18 106.32 239.42 104.58 239.78 102.84C239.96 101.7 239.9 100.92 239.54 100.56C239.18 100.2 238.46 100.14 237.38 100.38C235.7 100.74 234.32 100.32 233.24 99.24C232.1 98.16 231.68 96.84 231.98 95.16C232.22 93.6 232.88 92.34 233.96 91.38C234.98 90.48 236.3 89.94 237.98 89.82C238.76 89.82 239.48 89.52 240.08 88.98C240.68 88.44 241.04 87.78 241.1 87.06C241.16 85.86 241.28 84 241.52 81.36C241.7 78.78 241.82 76.8 241.94 75.42C242 74.82 242.18 73.74 242.54 72.3C242.84 70.98 243.68 70.38 245.06 70.38C246.62 70.44 248.12 70.44 249.5 70.44C249.5 70.44 250.04 70.32 251.12 69.96ZM207.08 77.16C209.78 76.44 212.72 76.32 215.96 76.86C216.56 76.98 217.1 77.58 217.58 78.6C218.06 79.62 218.24 80.58 218.12 81.42C218.06 81.78 217.88 84.18 217.64 88.5C217.64 88.86 217.7 89.1 217.88 89.22C218 89.34 218.3 89.4 218.66 89.4C222.98 90 226.34 90.9 228.74 92.1C229.64 92.58 230.18 92.94 230.3 93.18C230.42 93.42 230.42 94.08 230.24 95.04C230 95.88 229.88 97.08 229.82 98.52C229.7 100.02 229.52 101.28 229.28 102.24C229.04 103.02 228.74 103.5 228.44 103.68C228.14 103.92 227.84 103.98 227.54 103.86C227.24 103.74 226.76 103.62 226.1 103.38C225.44 103.2 224.78 103.08 224.18 103.08C224.06 103.08 223.88 103.08 223.76 102.96L223.52 102.78C219.92 101.34 217.58 99.96 216.5 98.7C216.32 98.52 216.14 98.34 215.9 98.16C215.66 97.98 215.36 97.74 215 97.5C214.64 97.26 214.4 97.08 214.22 96.96C212.54 99.6 211.7 100.98 211.58 101.16C209.54 104.1 208.1 106.14 207.2 107.28C207.02 107.46 206.78 107.7 206.54 108.06C206.3 108.42 206.06 108.78 205.82 109.08C205.58 109.38 205.34 109.74 205.04 110.16C204.68 110.58 204.38 110.88 204.14 111.12C203.9 111.36 203.6 111.6 203.3 111.84C202.94 112.08 202.7 112.2 202.46 112.2C202.22 112.2 201.92 112.14 201.68 112.02C199.04 110.34 197.42 107.58 196.82 103.74C196.7 103.14 196.94 102.42 197.54 101.58C198.8 99.78 200.9 96.96 203.78 93.06C204.26 92.4 204.8 91.8 205.4 91.2C206.24 90.36 206.72 89.16 206.84 87.54C206.9 86.88 207.02 85.74 207.2 84.06C207.32 82.38 207.44 81.12 207.56 80.16C207.56 79.92 207.5 79.68 207.5 79.44C207.44 79.2 207.38 78.96 207.26 78.66C207.14 78.36 207.08 78.12 207.08 77.94V77.16Z" fill="white"/>
</svg>
