<svg width="181" height="121" viewBox="0 0 181 121" fill="none" xmlns="http://www.w3.org/2000/svg">
<rect x="90.5" y="0.5" width="90" height="120" fill="#FF961E"/>
<rect x="90.5" y="0.5" width="90" height="120" stroke="black"/>
<path d="M110.96 38.82C113.36 38.82 117.02 38.76 122 38.7C126.98 38.64 130.76 38.58 133.34 38.52C134.9 38.52 136.1 38.76 136.94 39.36C137.72 39.96 138.38 41.04 138.86 42.6C139.82 45.78 140.3 47.94 140.42 49.08C140.42 50.22 140.42 51 140.42 51.48C140.42 51.96 140.36 52.8 140.24 53.88C140.12 55.02 140 55.8 140 56.28C139.7 60.18 139.52 62.4 139.52 62.94C139.46 64.38 138.92 65.58 137.96 66.48C137 67.44 135.8 67.92 134.36 67.98C131.72 68.1 129.74 67.62 128.48 66.42C127.64 65.7 127.22 64.98 127.22 64.38C127.1 63.18 126.98 59.88 126.8 54.36C126.8 53.28 126.62 52.62 126.32 52.32C125.96 52.08 125.3 51.9 124.28 51.9C123.68 51.9 122.84 51.96 121.7 51.96C120.56 51.96 119.54 51.96 118.7 51.96C117.86 51.96 117.02 51.9 116.24 51.78C113.9 51.54 111.8 51 110 50.04C109.76 49.92 109.64 49.68 109.52 49.32C109.4 48.96 109.34 48.48 109.28 47.82C109.16 47.16 109.1 46.74 109.1 46.56C108.98 46.2 108.68 44.34 108.2 41.04C108.14 41.04 108.08 40.98 108.08 40.8C108.08 40.68 108.08 40.5 108.14 40.26C108.2 40.08 108.32 39.9 108.5 39.66C108.62 39.42 108.92 39.24 109.34 39.06C109.76 38.94 110.3 38.82 110.96 38.82ZM161.9 64.44C161.84 66.96 161.24 68.7 160.1 69.66C159.62 70.02 159.02 70.32 158.3 70.44C157.58 70.56 156.92 70.62 156.38 70.56H155.6L154.28 70.2C153.44 70.02 153.08 69.48 153.08 68.64V58.68C152 58.92 150.8 59.04 149.54 59.16C147.2 59.4 145.82 58.86 145.4 57.54C144.5 55.02 145.1 52.5 147.26 49.98C147.38 49.86 147.62 49.74 148.04 49.62C148.4 49.56 149 49.5 149.84 49.44C150.62 49.38 151.1 49.32 151.28 49.26C151.34 49.26 151.88 49.32 152.84 49.44C152.72 46.26 152.72 42.84 152.72 39.18C152.72 38.4 152.96 37.74 153.56 37.2C154.1 36.72 154.82 36.42 155.66 36.42L159.92 36.84L160.52 37.32C160.76 37.5 161.06 37.86 161.54 38.4C161.96 38.94 162.2 39.48 162.2 39.96V48.9C162.14 48.9 162.08 49.86 162.08 51.78C162.08 53.7 162.02 56.04 162.02 58.74C161.96 61.5 161.9 63.36 161.9 64.44ZM132.44 80.58C140.6 80.1 145.22 79.86 146.24 79.74C147.26 79.68 148.46 79.56 149.9 79.44C151.34 79.32 152.54 79.2 153.5 79.08C154.46 78.96 155.3 78.9 155.9 78.9C156.68 78.9 157.28 79.92 157.64 81.84C157.7 82.26 157.76 83.1 157.76 84.3C157.76 85.68 157.4 87.06 156.68 88.5C156.44 88.92 155.9 89.22 155.06 89.34C154.22 89.46 151.4 89.64 146.6 89.88C141.8 90.12 138.98 90.3 138.08 90.42C137.84 90.48 137.66 90.48 137.42 90.48C136.4 90.48 134.24 90.54 130.94 90.6C127.64 90.66 125.24 90.72 123.74 90.78C123.38 90.78 122.72 90.84 121.88 90.9C121.04 90.96 120.38 90.96 119.96 90.96C118.58 90.96 117.44 90.72 116.6 90.18C116.3 90.06 116.06 89.76 115.82 89.4C115.58 89.04 115.52 88.74 115.52 88.38C115.34 86.64 115.22 84.18 115.1 80.94C114.98 77.7 114.86 75.48 114.8 74.22L114.74 73.38C114.74 72.78 114.74 72.24 114.74 71.64L114.68 70.8C114.8 70.8 115.1 70.74 115.64 70.62C116.18 70.5 116.54 70.38 116.72 70.32C117.14 70.26 118.1 70.2 119.6 70.2C121.34 70.2 122.42 70.32 122.9 70.44C123.38 70.62 123.62 70.92 123.62 71.34C123.62 71.52 123.68 71.94 123.8 72.54C123.92 73.14 124.04 73.56 124.04 73.74C124.04 74.4 124.16 75.6 124.52 77.4C124.52 77.64 124.58 78.18 124.7 78.96C124.76 79.74 124.88 80.4 125.06 81L132.44 80.58Z" fill="white"/>
<rect x="0.5" y="0.5" width="90" height="120" fill="#FF961E"/>
<rect x="0.5" y="0.5" width="90" height="120" stroke="black"/>
<path d="M45.2 88.5C44.18 88.38 40.76 88.2 34.94 87.96C29.06 87.72 25.58 87.48 24.44 87.36C24.08 87.36 23.48 87.36 22.76 87.42C21.98 87.48 21.38 87.48 21.02 87.42C20.72 87.42 20.42 87.3 20.06 87.06C19.7 86.88 19.52 86.7 19.52 86.46C19.16 84.6 18.92 82.32 18.74 79.56C18.68 79.44 18.74 79.26 18.98 79.02C19.22 78.78 19.4 78.66 19.58 78.6C20.9 78.36 23.24 78 26.6 77.64C29.9 77.28 33.44 76.98 37.16 76.62C40.88 76.32 43.22 76.08 44.18 75.96C46.1 75.78 49.94 75.6 55.7 75.48C61.46 75.36 64.52 75.3 65 75.3C65.36 75.3 65.96 75.24 66.74 75.18C67.52 75.12 68.12 75.06 68.48 75.06C68.84 75.06 69.44 75.06 70.22 75.06C72.14 75.24 72.86 76.26 72.38 78.18C71.72 80.46 71 82.86 70.16 85.38C69.98 85.92 69.56 86.34 68.84 86.58C67.88 86.94 66.86 87.18 65.84 87.24C64.28 87.42 60.86 87.66 55.64 87.9C50.36 88.14 46.88 88.38 45.2 88.5ZM69.08 56.46C68 63.36 67.46 67.14 67.34 67.86C67.04 69.36 66.38 70.5 65.42 71.22C64.46 71.94 63.2 72.3 61.7 72.24C59.9 72.24 58.34 72.06 56.96 71.82C56.66 71.82 56.36 71.64 56.06 71.4C55.76 71.16 55.58 70.92 55.52 70.62C54.56 67.86 54.44 65.22 55.04 62.64C55.16 61.92 55.16 60.96 55.04 59.64C54.92 58.8 54.68 58.14 54.26 57.72C53.84 57.36 53.18 57.18 52.22 57.24C47.18 57.66 42.2 57.9 37.22 58.02C33.02 58.14 28.82 57.36 24.5 55.74C24.26 55.68 24.02 55.5 23.78 55.14C23.54 54.84 23.42 54.54 23.36 54.18C23.24 53.46 23 50.88 22.58 46.5C22.52 46.32 22.52 46.14 22.52 45.96C22.52 45.84 22.52 45.66 22.52 45.48C22.52 45.3 22.46 45.18 22.4 45.06C21.92 44.46 21.74 43.92 21.86 43.56C21.98 43.2 22.16 42.9 22.52 42.78C22.88 42.66 23.3 42.54 23.84 42.48C26.72 42.36 30.2 42.3 34.16 42.36C40.46 42.48 45.38 42.6 48.98 42.78C49.94 42.84 51.26 43.02 53 43.32C54.74 43.62 56 43.8 56.78 43.86C60.26 44.22 63.86 45.18 67.46 46.86C68.06 47.22 68.42 47.58 68.48 47.94C68.54 48.78 68.72 51.66 69.08 56.46Z" fill="white"/>
</svg>
