<svg width="361" height="121" viewBox="0 0 361 121" fill="none" xmlns="http://www.w3.org/2000/svg">
<rect x="180.5" y="0.5" width="90" height="120" fill="#FF961E"/>
<rect x="180.5" y="0.5" width="90" height="120" stroke="black"/>
<path d="M225.2 88.5C224.18 88.38 220.76 88.2 214.94 87.96C209.06 87.72 205.58 87.48 204.44 87.36C204.08 87.36 203.48 87.36 202.76 87.42C201.98 87.48 201.38 87.48 201.02 87.42C200.72 87.42 200.42 87.3 200.06 87.06C199.7 86.88 199.52 86.7 199.52 86.46C199.16 84.6 198.92 82.32 198.74 79.56C198.68 79.44 198.74 79.26 198.98 79.02C199.22 78.78 199.4 78.66 199.58 78.6C200.9 78.36 203.24 78 206.6 77.64C209.9 77.28 213.44 76.98 217.16 76.62C220.88 76.32 223.22 76.08 224.18 75.96C226.1 75.78 229.94 75.6 235.7 75.48C241.46 75.36 244.52 75.3 245 75.3C245.36 75.3 245.96 75.24 246.74 75.18C247.52 75.12 248.12 75.06 248.48 75.06C248.84 75.06 249.44 75.06 250.22 75.06C252.14 75.24 252.86 76.26 252.38 78.18C251.72 80.46 251 82.86 250.16 85.38C249.98 85.92 249.56 86.34 248.84 86.58C247.88 86.94 246.86 87.18 245.84 87.24C244.28 87.42 240.86 87.66 235.64 87.9C230.36 88.14 226.88 88.38 225.2 88.5ZM224.72 38.28C229.28 38.58 231.74 38.76 232.04 38.76C238.88 39.48 244.22 42.54 248 47.82C248.48 48.54 248.84 49.68 249.02 51.12C249.32 53.76 248.9 56.88 247.7 60.42C246.38 64.26 243.74 66.6 239.9 67.5C237.08 68.16 234.08 68.46 230.84 68.46C229.94 68.46 228.26 68.52 225.8 68.64C223.34 68.76 221.48 68.82 220.16 68.7C215.18 68.46 210.92 67.44 207.44 65.76C205.4 64.8 203.9 63.48 203 61.74C202.04 60.06 201.68 58.08 201.92 55.8C202.28 51.96 204.02 48.3 207.2 44.76C208.64 43.14 210.38 41.88 212.3 40.98C214.22 40.08 216.5 39.36 219.14 38.76C219.68 38.64 220.28 38.58 220.94 38.52C221.54 38.46 222.26 38.4 223.04 38.4C223.82 38.4 224.36 38.34 224.72 38.28ZM225.02 60.66C228.32 60.42 230.12 60.24 230.36 60.18C231.38 60.06 232.4 59.58 233.48 58.74C234.5 57.9 235.04 57.06 235.16 56.22C235.4 54.3 235.16 52.68 234.5 51.42C233.84 50.16 232.58 49.26 230.66 48.72C226.58 47.64 222.92 47.52 219.68 48.48C219.56 48.54 219.38 48.6 219.14 48.66C218.9 48.72 218.72 48.78 218.6 48.78C218.48 48.84 218.3 48.9 218.06 48.96C217.82 49.08 217.7 49.14 217.58 49.2C217.46 49.32 217.28 49.38 217.16 49.5C217.04 49.62 216.92 49.68 216.86 49.8C215.96 51.06 215 52.86 213.98 55.2C213.2 57 213.74 58.2 215.66 58.86C217.04 59.34 218.06 59.7 218.78 59.94C219.44 60.18 220.4 60.36 221.6 60.54C222.8 60.78 223.94 60.78 225.02 60.66Z" fill="white"/>
<rect x="270.5" y="0.5" width="90" height="120" fill="#FF961E"/>
<rect x="270.5" y="0.5" width="90" height="120" stroke="black"/>
<path d="M342.02 81.84C341.96 82.32 341.96 82.98 342.08 83.7C342.2 84.48 342.2 85.2 342.2 85.86C342.2 86.52 342.02 87.12 341.78 87.66C341.3 88.56 340.82 89.1 340.22 89.22C339.5 89.4 338.66 89.58 337.58 89.7C336.5 89.88 335.54 90 334.76 90.06C333.98 90.12 333.62 90.12 333.62 90.06H301.94C300.86 90.12 299.24 90.18 297.08 90.24C294.92 90.3 293.3 90.3 292.22 90.3C291.02 90.36 289.88 90.12 288.8 89.58L288.02 84.96L288.8 82.68C289.04 81.96 289.52 81.6 290.24 81.54L295.04 81.06C299.84 81.06 305 80.94 310.46 80.82C309.98 80.34 309.74 79.8 309.74 79.32C309.62 78.6 309.56 77.58 309.56 76.26C309.5 74.94 309.44 73.98 309.44 73.5C309.44 73.02 309.5 72.66 309.68 72.42C309.8 72.18 310.16 72.06 310.7 72.06C311.3 72.12 312.44 72.12 314 72.12C315.56 72.12 316.64 72.06 317.3 72.06C318.56 72.12 319.4 72.42 319.88 73.02C320.36 73.62 320.72 74.76 321.02 76.44C321.2 77.7 320.9 79.08 320.12 80.64C326.6 80.52 330.86 80.4 332.78 80.28C335.12 80.22 336.98 80.22 338.3 80.34C338.66 80.34 339.74 80.7 341.54 81.3C341.6 81.36 341.72 81.42 341.84 81.54C341.96 81.66 342.02 81.78 342.02 81.84ZM306.74 61.2C306.5 62.58 306.56 63.42 306.86 63.72C307.16 64.02 308 64.02 309.32 63.78C310.58 63.54 312.68 63.36 315.68 63.24C317.06 63.24 319.04 63.18 321.56 63.06C324.08 63 325.94 62.94 327.02 62.88C327.02 62.88 328.7 62.76 332.06 62.52C332.72 62.52 333.2 62.64 333.5 62.94C333.8 63.24 333.92 63.72 333.92 64.44C333.92 65.4 333.86 66.18 333.8 66.78C333.68 67.38 333.56 68.04 333.32 68.76C333.08 69.48 332.66 70.08 332.18 70.56C331.64 71.04 330.98 71.4 330.14 71.64C329.66 71.76 329.12 71.88 328.52 71.88C327.92 71.88 327.26 71.88 326.42 71.76C325.58 71.7 324.98 71.64 324.74 71.64C323 71.58 320.78 71.46 318.14 71.28C312.62 70.98 307.16 70.62 301.7 70.2C301.46 70.2 301.22 70.14 300.86 69.96C299.54 69.42 298.28 68.16 297.08 66.18C295.82 64.26 295.28 62.64 295.4 61.32C295.58 59.4 296 57.54 296.66 55.86C297.02 54.78 297.5 54.12 298.1 53.88C298.64 53.64 299.54 53.58 300.74 53.82C301.04 53.88 301.34 53.94 301.7 53.94C302.06 53.94 302.42 53.94 302.9 53.88C303.38 53.88 303.74 53.82 303.98 53.82C304.04 53.82 304.58 53.82 305.66 53.82C306.68 53.82 307.22 53.82 307.34 53.82C307.58 53.82 308.54 53.88 310.22 54C311.9 54.12 313.22 54.12 314.12 54.06C316.88 54 319.34 53.76 321.5 53.34C322.04 53.22 322.4 52.98 322.64 52.62C322.82 52.26 322.94 51.72 323 51.06C323 50.46 323.12 49.98 323.24 49.74C323.24 49.74 323.12 49.62 323 49.5C322.82 49.38 322.64 49.26 322.4 49.14C322.16 49.02 321.92 48.9 321.8 48.84C320.96 48.66 320.06 48.54 319.1 48.54C318.02 48.54 316.16 48.54 313.52 48.54C310.88 48.54 309.08 48.54 308.06 48.48C307.46 48.48 306.44 48.48 305 48.36C303.5 48.24 302.36 48.18 301.64 48.18C299.84 48.3 297.92 48.54 295.82 49.02C295.34 49.14 294.92 49.14 294.68 49.02C294.44 48.9 294.32 48.6 294.32 48.12C294.38 44.1 294.5 41.46 294.68 40.14C294.8 39 295.22 38.16 295.82 37.68C296.42 37.2 297.32 36.96 298.52 36.96C304.4 36.84 309.32 37.26 313.34 38.28C313.7 38.4 314.18 38.46 314.66 38.52C315.14 38.58 315.62 38.64 315.98 38.64C316.34 38.64 316.82 38.64 317.42 38.64C318.02 38.64 318.44 38.7 318.74 38.7C319.16 38.7 320.3 38.76 322.1 38.82C323.9 38.88 325.22 38.94 326.06 39C326.84 39.06 327.92 39.18 329.3 39.36C330.62 39.54 331.88 39.78 332.96 40.14C333.92 40.5 334.7 41.04 335.24 41.82C336.5 43.92 336.86 46.8 336.32 50.52C336.2 51.3 335.9 52.44 335.54 53.94C335.12 55.44 334.88 56.58 334.76 57.36C334.52 58.68 333.98 59.64 333.14 60.24C332.3 60.84 331.16 61.2 329.84 61.38C326.72 61.86 323.6 62.1 320.48 62.1H319.46C318.26 62.1 317 62.04 315.68 61.92C314.36 61.8 312.8 61.68 311.12 61.5C309.44 61.38 308.18 61.26 307.4 61.14C307.34 61.14 307.1 61.2 306.74 61.2Z" fill="white"/>
<rect x="90.5" y="0.5" width="90" height="120" fill="#FF961E"/>
<rect x="90.5" y="0.5" width="90" height="120" stroke="black"/>
<path d="M137.075 67.25C131.909 67.502 129.137 67.628 128.633 67.628C118.427 67.628 112.694 67.502 111.308 67.124C110.048 66.809 109.355 66.179 109.166 65.297C108.977 64.415 109.103 63.092 109.607 61.328C109.796 61.076 109.922 60.761 109.985 60.257C110.048 59.816 110.237 59.501 110.552 59.249C110.678 59.123 110.993 58.997 111.434 58.997H122.018C128.507 58.997 132.035 58.997 132.602 58.934C132.917 58.934 133.736 59.06 135.122 59.186C136.508 59.312 137.264 59.375 137.453 59.375C137.831 59.438 141.296 59.501 147.722 59.627C154.148 59.753 157.865 59.816 158.873 59.879C159.062 59.942 159.314 60.131 159.566 60.383C159.818 60.635 160.007 60.887 160.07 61.076C160.322 62.714 160.322 63.974 160.07 64.856C159.692 66.242 158.495 66.998 156.479 67.124C155.849 67.187 152.573 67.25 146.714 67.25C140.792 67.313 137.579 67.376 137.075 67.376V67.25ZM134.933 34.742C138.965 34.994 140.981 35.12 141.044 35.12C146.84 35.687 151.313 37.955 154.526 41.861C154.904 42.428 155.219 43.247 155.408 44.318C155.66 46.334 155.219 48.602 154.211 51.185C153.077 54.083 150.935 55.847 147.659 56.477C145.265 56.981 142.745 57.17 140.036 57.17C139.28 57.17 137.894 57.233 135.815 57.296C133.736 57.422 132.161 57.422 131.027 57.359C126.869 57.17 123.278 56.414 120.38 55.154C116.852 53.705 115.277 51.248 115.655 47.783C115.97 44.948 117.482 42.239 120.128 39.593C122.207 37.514 125.546 36.002 130.208 35.12C130.649 35.057 131.153 34.994 131.72 34.931C132.224 34.931 132.854 34.868 133.484 34.868C134.114 34.868 134.618 34.805 134.933 34.742ZM135.059 50.429C137.579 50.303 138.902 50.177 139.091 50.177C139.847 50.114 140.666 49.799 141.422 49.295C142.178 48.791 142.619 48.287 142.745 47.783C142.871 46.649 142.745 45.641 142.241 44.885C141.737 44.129 140.729 43.625 139.343 43.31C136.256 42.68 133.484 42.617 131.09 43.184C129.83 43.499 129.137 43.751 128.948 43.94C128.255 44.696 127.562 45.767 126.806 47.153C126.176 48.287 126.617 48.98 128.066 49.358C131.09 50.24 133.421 50.618 135.059 50.429ZM132.917 84.575C137.579 84.575 140.288 84.512 141.17 84.386C141.926 84.26 142.493 84.197 142.871 84.134C143.186 84.071 143.438 83.945 143.627 83.756C143.753 83.63 143.816 83.441 143.816 83.315C143.816 83.189 143.753 82.937 143.753 82.496C143.753 82.118 143.753 81.677 143.816 81.299V81.047C143.816 80.606 143.69 80.291 143.438 80.102C143.186 79.913 142.682 79.787 141.989 79.787H126.806V83.756C129.011 84.323 131.027 84.575 132.917 84.575ZM125.105 71.534H126.176H127.247C133.988 71.534 139.028 71.408 142.367 71.03C143.312 70.967 144.257 70.904 145.139 70.904C149.171 70.904 152.699 71.912 155.786 73.802C156.542 74.306 157.109 75.062 157.613 76.07C158.117 77.078 158.369 78.086 158.369 79.094C158.369 79.598 158.306 79.976 158.243 80.354C157.991 81.11 157.739 81.866 157.424 82.748C157.046 83.63 156.794 84.386 156.668 85.016C156.227 86.591 155.786 87.851 155.345 88.733C155.093 89.237 154.526 89.552 153.644 89.804C149.171 91.064 144.383 91.694 139.217 91.694C134.051 91.694 130.838 91.568 129.452 91.316C122.396 90.182 118.238 89.426 117.104 89.174C116.663 89.111 116.222 88.859 115.844 88.418C115.403 87.977 115.088 87.536 114.899 87.032C114.773 86.717 114.71 86.276 114.71 85.709C114.71 85.52 114.71 85.205 114.773 84.764C114.773 84.386 114.836 84.071 114.836 83.945C114.899 82.496 115.025 80.795 115.277 78.779C115.655 75.881 116.537 73.991 117.986 72.983C119.435 72.038 121.829 71.534 125.105 71.534Z" fill="white"/>
<rect x="0.5" y="0.5" width="90" height="120" fill="#FF961E"/>
<rect x="0.5" y="0.5" width="90" height="120" stroke="black"/>
<path d="M61.88 90.056C59.864 90.056 58.478 89.741 57.722 88.985C56.966 88.229 56.588 86.843 56.462 84.764C56.147 78.905 56.021 74.873 56.021 72.668C56.021 69.581 56.21 59.816 56.651 43.436C56.651 42.995 56.714 42.491 56.84 41.987C56.903 41.483 56.966 41.042 57.092 40.664C57.155 40.286 57.281 39.845 57.47 39.215C57.596 38.585 57.722 38.144 57.848 37.766C57.974 37.262 58.226 36.884 58.667 36.758C58.793 36.758 59.234 36.632 59.927 36.443C60.62 36.254 61.124 36.128 61.376 36.065C61.628 36.002 62.006 35.939 62.636 35.813C63.203 35.687 63.644 35.687 64.022 35.687C64.4 35.687 64.841 35.75 65.345 35.876C65.849 36.002 66.29 36.128 66.794 36.317C67.991 36.947 68.684 38.081 68.81 39.719C68.81 40.475 68.873 42.995 68.936 47.342C68.936 51.689 69.062 54.398 69.188 55.469C69.314 56.225 69.755 57.044 70.511 57.863C70.889 58.304 71.267 58.745 71.708 59.186C72.149 59.69 72.653 60.194 73.22 60.698C73.724 61.265 74.165 61.706 74.543 61.958C75.047 62.462 75.362 63.029 75.614 63.596C75.866 64.226 75.929 64.919 75.866 65.675C75.803 66.431 75.74 66.998 75.677 67.376C75.551 67.754 75.425 68.447 75.173 69.329C74.795 70.841 73.472 71.66 71.204 71.66C70.007 71.66 69.251 71.849 68.999 72.164C68.684 72.542 68.558 73.361 68.621 74.747C68.621 75.692 68.621 77.393 68.684 79.787C68.747 82.181 68.81 83.819 68.81 84.638C68.81 86.339 68.369 87.473 67.361 88.04C64.841 89.426 63.014 90.119 61.88 90.056ZM19.607 42.239C20.237 42.302 21.875 42.176 24.395 41.861C26.915 41.609 29.309 41.357 31.703 41.105C34.097 40.853 36.491 40.916 39.011 41.294C41.531 41.672 43.295 42.491 44.429 43.688C44.996 45.074 45.374 46.649 45.5 48.35C45.626 50.051 45.563 51.626 45.374 53.012C45.122 54.461 44.996 56.036 44.996 57.8C44.933 59.564 45.059 61.139 45.437 62.588C46.193 65.99 46.508 68.51 46.382 70.274C46.319 71.156 46.382 72.542 46.508 74.495C46.634 76.448 46.697 78.212 46.634 79.724C46.571 81.299 46.256 82.559 45.752 83.504C45.185 84.638 44.429 85.268 43.484 85.457C42.035 85.961 40.397 86.213 38.57 86.339C36.743 86.465 35.105 86.528 33.593 86.402C32.081 86.276 30.443 86.276 28.679 86.339C25.592 87.095 22.001 86.402 17.969 84.26C17.339 84.071 16.961 83.189 16.961 81.551C16.898 79.913 17.024 78.086 17.276 76.07C17.528 74.054 17.591 72.794 17.591 72.353C17.591 71.912 17.654 71.219 17.717 70.274C17.78 69.392 17.843 68.699 17.843 68.258C17.843 67.817 17.78 67.124 17.717 66.179C17.654 65.99 17.465 64.856 17.213 62.84C16.898 60.824 16.709 59.249 16.709 58.178C16.709 57.422 16.772 56.288 16.772 54.713C16.772 53.138 16.772 51.689 16.772 50.366C16.772 49.043 16.898 47.72 17.024 46.397C17.15 45.137 17.402 44.066 17.843 43.31C18.284 42.554 18.851 42.239 19.607 42.239ZM24.71 53.705C24.836 56.288 24.899 60.068 24.836 65.045C24.773 70.022 24.899 73.109 25.214 74.369C25.34 75.125 25.97 75.503 26.978 75.503C27.293 75.503 27.986 75.566 29.057 75.629C30.128 75.692 31.073 75.692 31.829 75.692C32.585 75.692 33.467 75.692 34.349 75.566C35.231 75.503 35.924 75.314 36.428 74.936C36.932 74.558 37.184 74.054 37.247 73.424C37.562 68.888 37.625 63.218 37.373 56.414C37.31 55.721 37.058 55.091 36.617 54.587C36.113 54.083 35.609 53.831 34.979 53.831H34.916H34.853C30.758 53.957 27.356 53.957 24.71 53.705Z" fill="white"/>
</svg>
