<svg width="181" height="151" viewBox="0 0 181 151" fill="none" xmlns="http://www.w3.org/2000/svg">
<rect x="0.5" y="0.5" width="90" height="120" fill="#FF961E"/>
<rect x="0.5" y="0.5" width="90" height="120" stroke="black"/>
<path d="M72.02 81.84C71.96 82.32 71.96 82.98 72.08 83.7C72.2 84.48 72.2 85.2 72.2 85.86C72.2 86.52 72.02 87.12 71.78 87.66C71.3 88.56 70.82 89.1 70.22 89.22C69.5 89.4 68.66 89.58 67.58 89.7C66.5 89.88 65.54 90 64.76 90.06C63.98 90.12 63.62 90.12 63.62 90.06H31.94C30.86 90.12 29.24 90.18 27.08 90.24C24.92 90.3 23.3 90.3 22.22 90.3C21.02 90.36 19.88 90.12 18.8 89.58L18.02 84.96L18.8 82.68C19.04 81.96 19.52 81.6 20.24 81.54L25.04 81.06C29.84 81.06 35 80.94 40.46 80.82C39.98 80.34 39.74 79.8 39.74 79.32C39.62 78.6 39.56 77.58 39.56 76.26C39.5 74.94 39.44 73.98 39.44 73.5C39.44 73.02 39.5 72.66 39.68 72.42C39.8 72.18 40.16 72.06 40.7 72.06C41.3 72.12 42.44 72.12 44 72.12C45.56 72.12 46.64 72.06 47.3 72.06C48.56 72.12 49.4 72.42 49.88 73.02C50.36 73.62 50.72 74.76 51.02 76.44C51.2 77.7 50.9 79.08 50.12 80.64C56.6 80.52 60.86 80.4 62.78 80.28C65.12 80.22 66.98 80.22 68.3 80.34C68.66 80.34 69.74 80.7 71.54 81.3C71.6 81.36 71.72 81.42 71.84 81.54C71.96 81.66 72.02 81.78 72.02 81.84ZM36.14 47.52L55.1 46.38V38.46C55.94 38.22 56.84 38.04 57.8 37.92C58.76 37.8 59.54 37.8 60.26 37.8C60.92 37.8 61.82 37.86 62.96 37.86C64.04 37.86 64.88 37.86 65.42 37.86C65.66 37.86 65.96 38.1 66.32 38.46C66.62 38.82 66.8 39.18 66.92 39.48C68 44.76 68.6 48.42 68.78 50.46C68.84 51.18 68.84 51.9 68.78 52.62C68.66 53.34 68.54 54.3 68.36 55.38C68.18 56.52 68.06 57.24 68.06 57.54C67.94 57.96 67.52 60.78 66.74 65.94C63.92 66.24 62.42 66.36 62.3 66.36C61.46 66.42 59.36 66.54 56.12 66.66C52.82 66.84 50.12 66.96 48.08 67.02C45.98 67.08 43.94 67.08 41.9 67.08C38.72 67.08 34.16 66.66 28.22 65.94C26.54 65.76 25.22 65.04 24.26 63.84C23.3 62.64 22.82 61.14 22.82 59.34L22.76 51.9C22.7 50.88 22.58 49.32 22.4 47.28C22.22 45.24 22.1 43.74 22.1 42.72C22.1 42.42 22.16 42.06 22.28 41.7C22.4 41.34 22.52 41.04 22.76 40.92C25.22 39.6 27.62 39.18 29.9 39.54C32.06 39.9 33.26 40.02 33.44 40.02C34.4 40.08 35.12 40.38 35.48 40.92C35.84 41.46 36.08 42.24 36.14 43.2V47.52ZM36.92 53.34L36.74 54.42C36.62 54.9 36.56 55.38 36.56 55.74C36.5 56.16 36.5 56.58 36.56 56.94C36.56 58.98 36.8 60.18 37.28 60.66C37.7 61.14 38.78 61.38 40.58 61.32C45.26 61.32 49.16 61.2 52.28 61.02C53.96 60.96 55.04 60.72 55.64 60.24C56.24 59.76 56.66 58.8 57.02 57.24C57.32 55.68 57.08 54.42 56.3 53.34C55.46 52.32 54.32 51.84 52.76 51.96C51.8 52.02 46.52 52.5 36.92 53.34Z" fill="white"/>
<rect x="90.5" y="30.5" width="90" height="120" fill="#FF961E"/>
<rect x="90.5" y="30.5" width="90" height="120" stroke="black"/>
<path d="M137 98.7C132.08 98.94 129.44 99 128.96 99C119.24 99.06 113.78 98.88 112.46 98.52C111.26 98.28 110.6 97.68 110.42 96.84C110.24 96 110.36 94.68 110.84 93C111.02 92.76 111.14 92.46 111.2 92.04C111.26 91.62 111.44 91.26 111.74 91.02C111.86 90.9 112.16 90.78 112.58 90.78H122.66H132.74C133.04 90.78 133.82 90.9 135.14 91.02C136.46 91.14 137.18 91.2 137.36 91.2C137.72 91.2 141.02 91.26 147.14 91.38C153.26 91.5 156.8 91.56 157.76 91.68C157.94 91.74 158.18 91.86 158.42 92.1C158.66 92.34 158.84 92.58 158.9 92.82C159.14 94.38 159.14 95.58 158.9 96.36C158.54 97.68 157.4 98.4 155.48 98.52C154.88 98.58 151.76 98.64 146.18 98.7C140.54 98.76 137.48 98.76 137 98.76V98.7ZM120.86 66.84C128.18 66.78 133.7 66.78 137.36 66.9C138.32 66.9 139.4 66.96 140.48 67.08C141.56 67.2 142.82 67.38 144.14 67.5C145.46 67.68 146.48 67.8 147.26 67.86C148.88 68.04 150.08 68.76 150.86 69.96C151.22 70.56 151.28 71.76 151.16 73.5C151.04 74.34 150.92 75.78 150.68 77.76C150.44 79.74 150.26 81.24 150.2 82.32C150.08 83.88 149.6 85.08 148.64 86.04C147.68 87 146.42 87.48 144.98 87.48C141.86 87.6 137.84 87.78 132.92 88.02C132.26 88.08 131.18 88.2 129.68 88.32C128.18 88.44 127.04 88.56 126.26 88.56C125.06 88.56 124.1 88.5 123.38 88.32C122.66 88.14 122.06 87.84 121.7 87.36C121.34 86.88 121.04 86.4 120.92 85.86C120.74 85.38 120.62 84.66 120.56 83.76C120.14 80.1 119.84 75.84 119.72 71.04C119.72 70.56 119.78 69.96 119.96 69.24C120.14 68.52 120.32 67.98 120.56 67.5L120.86 66.84ZM144.08 75.18C143 75.06 142.4 75 142.4 75C141.08 74.64 139.64 74.34 138.08 74.16C136.52 74.04 135.02 73.98 133.7 73.98C132.38 73.98 130.94 73.98 129.38 73.98C128.06 74.04 127.46 74.64 127.64 75.78C127.64 75.96 127.64 76.38 127.64 77.04C127.64 77.76 127.64 78.18 127.64 78.3C127.64 78.96 127.94 79.68 128.6 80.46C129.26 81.24 129.86 81.66 130.46 81.66C135.02 81.9 138.14 81.96 139.82 81.84C139.88 81.84 140.18 81.9 140.66 81.9C141.14 81.9 141.44 81.9 141.68 81.84C141.92 81.84 142.16 81.72 142.46 81.48C142.7 81.24 142.88 80.94 143 80.52C143.06 80.28 143.42 78.54 144.08 75.18ZM132.74 110.94H138.92H145.52C150.38 110.94 153.68 111 155.42 111C155.54 111 155.72 111.06 155.84 111.06C155.96 111.12 156.02 111.18 156.14 111.18C156.2 111.24 156.26 111.3 156.38 111.42L156.56 111.72C156.56 111.78 156.62 111.9 156.68 112.02C156.68 112.2 156.74 112.32 156.74 112.38C156.74 112.44 156.8 112.56 156.86 112.74C156.86 112.92 156.92 113.04 156.92 113.04C156.98 113.46 157.04 113.88 157.04 114.3C157.04 115.68 156.62 117.06 155.9 118.5C155.66 118.92 155.18 119.22 154.34 119.34C153.5 119.46 150.68 119.64 145.88 119.88C141.08 120.12 138.26 120.3 137.36 120.42C137.12 120.48 136.88 120.48 136.7 120.48C135.68 120.48 133.52 120.54 130.22 120.6C126.92 120.66 124.52 120.72 123.02 120.78C122.66 120.78 122 120.84 121.16 120.9C120.32 120.96 119.66 120.96 119.24 120.96C117.86 120.96 116.72 120.72 115.82 120.18C115.58 120.06 115.34 119.76 115.1 119.4C114.86 119.04 114.74 118.74 114.74 118.38C114.62 116.58 114.44 113.7 114.26 109.74C114.02 105.78 113.9 103.44 113.9 102.72H113.96C114.14 102.72 114.5 102.66 115.04 102.54C115.58 102.42 116 102.24 116.24 102.06C116.54 101.82 117.02 101.7 117.62 101.7C118.4 101.7 119.66 102 121.34 102.54C121.82 102.72 122.06 103.02 122.06 103.44C122.06 103.62 122 103.86 122 104.16C122 104.52 122 104.76 122 104.94V106.2V107.4V109.2V110.94H132.74Z" fill="white"/>
</svg>
