<svg width="451" height="151" viewBox="0 0 451 151" fill="none" xmlns="http://www.w3.org/2000/svg">
<rect x="0.5" y="0.5" width="90" height="120" fill="#FF961E"/>
<rect x="0.5" y="0.5" width="90" height="120" stroke="black"/>
<path d="M67.1 53.1V59.04C67.1 59.7 66.98 60.9 66.86 62.58C66.74 63.54 66.14 64.08 65.18 64.08C63.02 64.14 61.22 64.14 59.66 64.02C58.76 64.02 57.98 63.66 57.38 63.06C56.78 62.46 56.42 61.74 56.42 60.9C56.36 57.96 56.36 54.24 56.42 49.74C56.42 49.08 56.48 47.52 56.54 45.12C56.6 42.72 56.66 41.04 56.72 40.14C56.72 38.94 57.14 38.16 57.98 37.68C58.16 37.56 58.52 37.38 59.06 37.08C59.6 36.84 60.02 36.6 60.32 36.48C60.56 36.36 60.92 36.24 61.4 36.06C61.88 35.88 62.3 35.76 62.72 35.7C63.14 35.64 63.56 35.64 64.04 35.64C64.76 35.7 65.3 35.76 65.66 35.88C66.5 36.24 66.92 36.84 66.92 37.74C66.92 39.42 67.04 41.58 67.34 44.1C67.4 44.58 67.76 44.88 68.48 44.94C71.36 45.18 72.98 45.3 73.34 45.36C74.18 45.6 74.72 46.26 74.84 47.46C75.02 49.26 74.72 50.88 73.88 52.26C73.64 52.68 72.92 52.98 71.84 53.1H67.1ZM35.6 45.84C33.44 45.36 30.74 45.42 27.5 46.02C24.26 46.62 21.98 46.92 20.78 46.86C21.2 43.26 21.5 40.68 21.74 39.12C24.92 38.7 26.6 38.46 26.84 38.46C32.24 38.16 35.72 38.04 37.4 38.1C38.24 38.16 39.08 38.28 39.92 38.4C40.76 38.58 41.84 38.82 43.16 39.12C44.42 39.48 45.26 39.66 45.74 39.72C47.18 40.08 47.72 41.1 47.24 42.72C46.76 44.34 46.4 45.48 46.16 46.2C45.92 46.92 45.44 47.82 44.84 49.02C44.24 50.22 43.52 51.18 42.68 51.96C42.44 52.2 42.14 52.5 41.78 52.86C41.36 53.22 41.06 53.52 40.94 53.64C40.82 53.76 40.64 53.94 40.52 54.18C40.4 54.42 40.34 54.66 40.4 54.78C40.46 54.96 40.58 55.14 40.82 55.38C41 55.62 41.3 55.86 41.72 56.1C41.96 56.28 42.32 56.64 42.92 57.12C43.46 57.6 43.82 57.96 43.94 58.14C44.48 58.92 45.2 59.7 46.04 60.54C46.88 61.38 47.54 62.16 48.08 62.94C49.04 64.38 48.86 65.46 47.42 66.18C46.94 66.48 46.28 66.9 45.44 67.5C44.6 68.1 44 68.46 43.7 68.64C43.4 68.88 43.16 69 42.92 69.06C42.68 69.12 42.38 69.12 42.08 69C41.78 68.88 41.6 68.82 41.48 68.76C41.36 68.76 41.12 68.58 40.7 68.28C40.28 68.04 40.04 67.86 39.98 67.8C39.68 67.68 39.5 67.56 39.44 67.44C39.32 67.32 39.26 67.26 39.26 67.2C39.26 67.14 39.14 66.96 38.96 66.72C38.72 66.48 38.42 66.12 38 65.7C37.82 65.58 37.52 65.22 37.04 64.56C36.56 63.96 36.08 63.42 35.72 63.06C34.52 61.86 33.2 61.32 31.76 61.32C30.32 61.32 28.58 62.04 26.42 63.48C25.22 64.26 23.96 65.28 22.64 66.54C21.44 67.62 20.72 67.38 20.36 65.88C19.58 62.76 19.16 60.84 19.04 60.06C18.8 58.74 18.98 57.54 19.58 56.52C20.18 55.56 21.2 54.84 22.58 54.36C24.62 53.76 26.54 52.92 28.28 51.72C29.96 50.52 31.94 48.96 34.22 46.98C34.22 46.98 34.7 46.62 35.6 45.84ZM29.6 77.34C29.48 77.34 29.18 77.4 28.7 77.4C28.22 77.46 27.86 77.46 27.68 77.46C27.44 77.46 27.2 77.46 26.84 77.4C26.48 77.34 26.18 77.22 26.06 77.1C25.88 76.98 25.7 76.74 25.52 76.44C25.34 76.14 25.22 75.78 25.22 75.3C25.16 75.06 25.1 74.58 24.98 73.92C24.86 73.32 24.8 72.78 24.8 72.3C24.8 71.7 24.86 71.04 25.04 70.44C25.04 70.2 25.22 69.9 25.58 69.6C25.94 69.36 26.3 69.18 26.72 69.18C42.92 69.12 54.2 69.3 60.68 69.72C62 69.84 63.02 69.96 63.8 70.2C64.7 70.56 65.24 70.98 65.42 71.52C65.6 72.36 65.72 73.2 65.72 74.04C65.72 75.06 65.54 76.26 65.3 77.64C64.82 79.98 63.62 81.66 61.64 82.62C60.56 83.16 58.58 83.58 55.76 83.82C54.74 83.94 53.3 84 51.38 84C49.46 84.06 48.14 84.12 47.36 84.18C47.24 84.18 45.08 84.24 40.94 84.3C36.74 84.36 34.46 84.42 34.04 84.54L34.1 86.16C34.82 86.16 37.52 86.16 42.2 86.04C46.88 85.98 49.64 85.92 50.36 85.92C51.98 85.92 53.42 85.92 54.68 85.86C55.52 85.86 56.84 85.8 58.58 85.68C60.26 85.56 61.52 85.5 62.36 85.44H62.48C63.56 85.44 64.16 85.86 64.16 86.7V87C63.8 88.86 63.5 90.3 63.26 91.26C62.96 92.22 62.48 92.88 61.82 93.24C61.16 93.6 60.08 93.78 58.52 93.78H57.8C56.24 93.78 54.02 93.66 51.2 93.48C48.38 93.3 46.4 93.18 45.26 93.06C43.46 93 41.9 93 40.52 93.06C39.14 93.18 37.58 93.18 35.9 93.06C34.22 93 32.72 92.82 31.4 92.52C29.6 92.16 28.34 91.56 27.62 90.6C26.9 89.64 26.48 88.38 26.24 86.76C26.18 86.52 26.18 85.86 26.18 84.66C26.18 84.6 26.18 84.12 26.24 83.28C26.24 82.02 26.6 81.12 27.2 80.64C27.8 80.16 28.82 79.92 30.38 79.86C36.14 79.74 43.76 79.44 53.3 79.02C54.5 79.02 55.1 78.6 55.1 77.76V77.46C55.04 77.22 55.04 76.98 55.04 76.74V76.44C55.04 76.32 54.74 76.26 54.14 76.26C53.54 76.26 52.46 76.26 50.9 76.32C49.34 76.38 47.72 76.44 45.98 76.56C44.24 76.68 41.78 76.8 38.66 76.92C35.54 77.1 32.48 77.22 29.6 77.34Z" fill="white"/>
<rect x="90.5" y="0.5" width="90" height="120" fill="#FF961E"/>
<rect x="90.5" y="0.5" width="90" height="120" stroke="black"/>
<path d="M162.02 81.84C161.96 82.32 161.96 82.98 162.08 83.7C162.2 84.48 162.2 85.2 162.2 85.86C162.2 86.52 162.02 87.12 161.78 87.66C161.3 88.56 160.82 89.1 160.22 89.22C159.5 89.4 158.66 89.58 157.58 89.7C156.5 89.88 155.54 90 154.76 90.06C153.98 90.12 153.62 90.12 153.62 90.06H121.94C120.86 90.12 119.24 90.18 117.08 90.24C114.92 90.3 113.3 90.3 112.22 90.3C111.02 90.36 109.88 90.12 108.8 89.58L108.02 84.96L108.8 82.68C109.04 81.96 109.52 81.6 110.24 81.54L115.04 81.06C119.84 81.06 125 80.94 130.46 80.82C129.98 80.34 129.74 79.8 129.74 79.32C129.62 78.6 129.56 77.58 129.56 76.26C129.5 74.94 129.44 73.98 129.44 73.5C129.44 73.02 129.5 72.66 129.68 72.42C129.8 72.18 130.16 72.06 130.7 72.06C131.3 72.12 132.44 72.12 134 72.12C135.56 72.12 136.64 72.06 137.3 72.06C138.56 72.12 139.4 72.42 139.88 73.02C140.36 73.62 140.72 74.76 141.02 76.44C141.2 77.7 140.9 79.08 140.12 80.64C146.6 80.52 150.86 80.4 152.78 80.28C155.12 80.22 156.98 80.22 158.3 80.34C158.66 80.34 159.74 80.7 161.54 81.3C161.6 81.36 161.72 81.42 161.84 81.54C161.96 81.66 162.02 81.78 162.02 81.84ZM126.14 47.52L145.1 46.38V38.46C145.94 38.22 146.84 38.04 147.8 37.92C148.76 37.8 149.54 37.8 150.26 37.8C150.92 37.8 151.82 37.86 152.96 37.86C154.04 37.86 154.88 37.86 155.42 37.86C155.66 37.86 155.96 38.1 156.32 38.46C156.62 38.82 156.8 39.18 156.92 39.48C158 44.76 158.6 48.42 158.78 50.46C158.84 51.18 158.84 51.9 158.78 52.62C158.66 53.34 158.54 54.3 158.36 55.38C158.18 56.52 158.06 57.24 158.06 57.54C157.94 57.96 157.52 60.78 156.74 65.94C153.92 66.24 152.42 66.36 152.3 66.36C151.46 66.42 149.36 66.54 146.12 66.66C142.82 66.84 140.12 66.96 138.08 67.02C135.98 67.08 133.94 67.08 131.9 67.08C128.72 67.08 124.16 66.66 118.22 65.94C116.54 65.76 115.22 65.04 114.26 63.84C113.3 62.64 112.82 61.14 112.82 59.34L112.76 51.9C112.7 50.88 112.58 49.32 112.4 47.28C112.22 45.24 112.1 43.74 112.1 42.72C112.1 42.42 112.16 42.06 112.28 41.7C112.4 41.34 112.52 41.04 112.76 40.92C115.22 39.6 117.62 39.18 119.9 39.54C122.06 39.9 123.26 40.02 123.44 40.02C124.4 40.08 125.12 40.38 125.48 40.92C125.84 41.46 126.08 42.24 126.14 43.2V47.52ZM126.92 53.34L126.74 54.42C126.62 54.9 126.56 55.38 126.56 55.74C126.5 56.16 126.5 56.58 126.56 56.94C126.56 58.98 126.8 60.18 127.28 60.66C127.7 61.14 128.78 61.38 130.58 61.32C135.26 61.32 139.16 61.2 142.28 61.02C143.96 60.96 145.04 60.72 145.64 60.24C146.24 59.76 146.66 58.8 147.02 57.24C147.32 55.68 147.08 54.42 146.3 53.34C145.46 52.32 144.32 51.84 142.76 51.96C141.8 52.02 136.52 52.5 126.92 53.34Z" fill="white"/>
<rect x="180.5" y="0.5" width="90" height="120" fill="#FF961E"/>
<rect x="180.5" y="0.5" width="90" height="120" stroke="black"/>
<path d="M237.14 37.62C239.42 37.5 240.68 37.44 240.8 37.44C242.12 37.5 243.38 37.62 244.7 37.8C246.02 37.98 247.16 38.1 248.18 38.16C249.32 38.28 249.92 38.94 249.98 40.08C249.98 41.52 250.1 43.74 250.28 46.68C250.46 49.68 250.58 51.9 250.64 53.4C250.7 54.54 250.7 56.58 250.7 59.46C250.7 62.4 250.7 64.44 250.7 65.52C250.7 67.14 250.7 70.44 250.7 75.48C250.7 80.52 250.7 83.88 250.7 85.5V85.62C250.7 86.46 250.58 87.3 250.34 88.02C249.8 89.52 248.84 90.24 247.46 90.18C246.8 90.18 246.02 90.24 245.18 90.24C244.34 90.24 243.62 90.24 243.02 90.12C242.54 90.12 242 89.94 241.52 89.64C240.98 89.4 240.62 89.04 240.5 88.68C239.3 85.8 238.7 83.58 238.64 82.02C238.46 78.54 238.34 72.6 238.28 64.32C238.22 56.04 238.16 50.4 238.04 47.34C238.04 46.38 237.98 45.42 237.86 44.34C237.74 43.26 237.62 42.06 237.5 40.68L237.14 37.62ZM214.7 87.96C209.48 87.9 205.16 86.1 201.68 82.5C200.48 81.3 199.64 79.26 199.28 76.38C198.68 72.42 198.38 68.88 198.44 65.82C198.44 60.54 199.58 55.44 201.86 50.52C202.04 50.1 202.22 49.8 202.4 49.62C205.52 46.5 207.5 44.58 208.34 43.86C208.52 43.68 208.76 43.56 209.06 43.44C209.3 43.38 209.66 43.32 210.14 43.26C210.56 43.2 210.86 43.14 211.04 43.14C213.74 42.54 216.32 42.72 218.72 43.68C221.12 44.64 223.64 46.2 226.16 48.24C227.18 49.2 228.02 50.04 228.62 50.82C229.22 51.6 229.64 52.5 229.88 53.52C230.36 56.1 230.54 58.26 230.36 59.94C230 64.02 229.34 68.46 228.5 73.32C227.48 79.02 224.84 83.22 220.52 85.86C217.88 87.54 215.9 88.2 214.7 87.96ZM221.24 62.94C221.18 62.82 221.12 62.46 221.06 61.98C220.94 61.5 220.88 61.14 220.82 60.9C220.76 60.72 220.7 60.42 220.58 60.06C220.46 59.7 220.34 59.4 220.16 59.1C219.98 58.86 219.8 58.56 219.56 58.32C218.12 56.82 216.56 56.22 214.88 56.52C213.14 56.88 211.94 58.02 211.22 60C210.32 62.28 210.08 64.32 210.44 66.12C210.56 66.84 210.68 67.98 210.86 69.48C211.04 71.04 211.22 72.18 211.4 72.96C211.58 73.86 212.12 74.64 213.08 75.3C213.98 75.96 214.88 76.26 215.84 76.26C216.5 76.26 217.16 76.02 217.88 75.48C218.54 75 218.96 74.34 219.14 73.5C219.26 72.84 219.98 69.3 221.24 62.94Z" fill="white"/>
<rect x="270.5" y="0.5" width="90" height="120" fill="#FF961E"/>
<rect x="270.5" y="0.5" width="90" height="120" stroke="black"/>
<path d="M317 66C312.08 66.24 309.44 66.3 308.96 66.3C299.24 66.3 293.78 66.18 292.46 65.82C291.26 65.52 290.6 64.92 290.42 64.08C290.24 63.24 290.36 61.98 290.84 60.3C291.02 60.06 291.14 59.76 291.2 59.34C291.26 58.92 291.44 58.56 291.74 58.32C291.86 58.2 292.16 58.08 292.58 58.08H302.66H312.74C313.04 58.08 313.82 58.14 315.14 58.26C316.46 58.38 317.18 58.5 317.36 58.5C317.72 58.5 321.02 58.56 327.14 58.68C333.26 58.8 336.8 58.86 337.76 58.98C337.94 58.98 338.18 59.16 338.42 59.4C338.66 59.64 338.84 59.88 338.9 60.12C339.14 61.68 339.14 62.88 338.9 63.66C338.54 64.98 337.4 65.7 335.48 65.82C334.88 65.88 331.76 65.94 326.18 66C320.54 66.06 317.48 66.06 317 66.06V66ZM307.46 38.82C307.46 37.92 307.16 37.26 306.56 36.84C305.9 36.48 304.82 36.3 303.38 36.3C302.9 36.3 302.3 36.36 301.46 36.48C300.62 36.6 300.08 36.72 299.72 36.72C298.52 36.78 297.74 36.96 297.44 37.2C297.08 37.44 296.96 38.04 297.02 38.88C297.02 40.32 297.14 41.88 297.26 43.44C297.38 45.06 297.5 46.32 297.62 47.28C297.62 48.12 297.86 49.2 298.22 50.52C298.22 50.64 298.34 50.76 298.58 50.88C298.76 51 298.94 51.12 299.12 51.12C299.54 51.18 300.44 51.3 301.88 51.42C303.32 51.54 304.4 51.72 305.18 51.84C306.56 52.08 308.24 52.26 310.22 52.38C312.2 52.5 314.42 52.62 316.82 52.68C319.22 52.74 320.96 52.8 321.98 52.86C323.06 52.92 324.62 52.86 326.66 52.74C328.7 52.62 330.02 52.5 330.74 52.5C331.34 52.5 331.82 52.38 332.12 52.14C332.42 51.96 332.6 51.6 332.72 51.12C333.08 49.38 333.38 47.94 333.68 46.74C334.04 45.24 333.38 44.46 331.7 44.34C328.64 44.22 324.26 44.04 318.5 43.86H307.46C307.52 43.86 307.52 43.2 307.52 41.76C307.46 40.32 307.46 39.36 307.46 38.82ZM312.74 80.94H318.92H325.52C330.38 80.94 333.68 81 335.42 81C335.54 81 335.72 81.06 335.84 81.06C335.96 81.12 336.02 81.18 336.14 81.18C336.2 81.24 336.26 81.3 336.38 81.42L336.56 81.72C336.56 81.78 336.62 81.9 336.68 82.02C336.68 82.2 336.74 82.32 336.74 82.38C336.74 82.44 336.8 82.56 336.86 82.74C336.86 82.92 336.92 83.04 336.92 83.04C336.98 83.46 337.04 83.88 337.04 84.3C337.04 85.68 336.62 87.06 335.9 88.5C335.66 88.92 335.18 89.22 334.34 89.34C333.5 89.46 330.68 89.64 325.88 89.88C321.08 90.12 318.26 90.3 317.36 90.42C317.12 90.48 316.88 90.48 316.7 90.48C315.68 90.48 313.52 90.54 310.22 90.6C306.92 90.66 304.52 90.72 303.02 90.78C302.66 90.78 302 90.84 301.16 90.9C300.32 90.96 299.66 90.96 299.24 90.96C297.86 90.96 296.72 90.72 295.82 90.18C295.58 90.06 295.34 89.76 295.1 89.4C294.86 89.04 294.74 88.74 294.74 88.38C294.62 86.58 294.44 83.7 294.26 79.74C294.02 75.78 293.9 73.44 293.9 72.72H293.96C294.14 72.72 294.5 72.66 295.04 72.54C295.58 72.42 296 72.24 296.24 72.06C296.54 71.82 297.02 71.7 297.62 71.7C298.4 71.7 299.66 72 301.34 72.54C301.82 72.72 302.06 73.02 302.06 73.44C302.06 73.62 302 73.86 302 74.16C302 74.52 302 74.76 302 74.94V76.2V77.4V79.2V80.94H312.74Z" fill="white"/>
<rect x="360.5" y="30.5" width="90" height="120" fill="#FF961E"/>
<rect x="360.5" y="30.5" width="90" height="120" stroke="black"/>
<path d="M431.12 69.96C431.12 70.02 431.12 70.08 431.24 70.08C431.36 70.2 431.6 70.26 431.96 70.38C432.32 70.5 432.62 70.56 432.86 70.68C433.1 70.8 433.22 70.92 433.28 71.04C433.58 72.18 433.7 73.5 433.64 74.94C433.58 75.42 433.28 78.6 432.8 84.48C432.38 88.92 432.02 93.36 431.66 97.8C431.24 102.12 431 104.7 431 105.54C430.88 106.26 430.82 107.22 430.76 108.48C430.7 109.74 430.64 110.88 430.58 111.9C430.46 112.92 430.4 113.88 430.28 114.78C430.16 115.62 429.56 116.82 428.6 118.44C428.36 118.86 427.82 119.04 426.98 119.04C426.8 119.1 425.06 119.1 421.7 119.1C421.1 119.1 420.62 118.98 420.26 118.62C419.9 118.26 419.66 117.84 419.66 117.24L419.24 110.94C419.24 110.82 419.18 110.4 419.12 109.68C419 108.96 419 108.42 419.06 108.06C419.18 106.32 419.42 104.58 419.78 102.84C419.96 101.7 419.9 100.92 419.54 100.56C419.18 100.2 418.46 100.14 417.38 100.38C415.7 100.74 414.32 100.32 413.24 99.24C412.1 98.16 411.68 96.84 411.98 95.16C412.22 93.6 412.88 92.34 413.96 91.38C414.98 90.48 416.3 89.94 417.98 89.82C418.76 89.82 419.48 89.52 420.08 88.98C420.68 88.44 421.04 87.78 421.1 87.06C421.16 85.86 421.28 84 421.52 81.36C421.7 78.78 421.82 76.8 421.94 75.42C422 74.82 422.18 73.74 422.54 72.3C422.84 70.98 423.68 70.38 425.06 70.38C426.62 70.44 428.12 70.44 429.5 70.44C429.5 70.44 430.04 70.32 431.12 69.96ZM379.04 76.86C379.46 76.14 380.12 75.66 380.96 75.48C385.88 74.58 389.66 73.92 392.3 73.56C396.26 73.02 399.92 72.96 403.34 73.44C403.4 73.44 403.58 73.5 403.94 73.5C404.24 73.56 404.48 73.62 404.6 73.62C404.72 73.62 404.96 73.68 405.2 73.74C405.44 73.8 405.62 73.86 405.8 73.98C405.98 74.1 406.16 74.28 406.34 74.4C406.64 74.7 406.94 75.3 407.3 76.2C408.8 80.52 409.46 85.32 409.22 90.72C409.1 92.7 408.8 95.58 408.32 99.42C408.2 100.26 408.08 102.06 407.9 104.94C407.72 107.82 407.42 109.98 407.06 111.48C406.64 113.16 406.1 114.24 405.5 114.84C405.02 115.32 403.58 115.68 401.3 115.8C399.02 115.98 396.92 115.98 395.12 115.86C394.16 115.86 393.68 115.56 393.56 114.96C393.44 114.72 393.44 114.48 393.56 114.12C393.62 113.76 393.74 113.4 393.86 112.98C393.98 112.62 394.04 112.32 394.04 112.14C394.22 111.06 394.4 109.98 394.52 108.84C394.76 106.86 394.88 104.7 395 102.36C395.06 99.48 395 95.22 394.82 89.52C394.76 88.68 394.64 88.08 394.46 87.72C393.92 86.76 392.66 86.52 390.74 86.94C388.52 87.48 384.56 87.66 378.86 87.42C378.56 87.42 378.38 87.36 378.26 87.24C378.08 87.12 378.02 86.76 378.08 86.28C378.44 80.52 378.74 77.34 379.04 76.86Z" fill="white"/>
</svg>
