<svg width="181" height="150" viewBox="0 0 181 150" fill="none" xmlns="http://www.w3.org/2000/svg">
<rect x="90.5" y="0.5" width="90" height="120" fill="#FF961E"/>
<rect x="90.5" y="0.5" width="90" height="120" stroke="black"/>
<path d="M153.329 63.155C152.762 63.092 152.195 63.029 151.691 62.966C151.313 62.966 150.683 62.903 149.927 62.84C149.171 62.84 148.604 62.777 148.352 62.777C147.596 62.777 147.092 62.714 146.777 62.588C146.462 62.525 146.21 62.399 146.021 62.273C145.769 62.147 145.643 61.958 145.517 61.706C145.391 61.517 145.265 61.265 145.265 60.95C145.139 60.761 145.076 60.383 145.013 59.879C144.887 59.501 144.824 59.123 144.824 58.808C144.698 58.304 144.635 57.926 144.635 57.674C144.572 57.233 144.572 56.855 144.698 56.54C144.824 56.225 145.013 55.973 145.328 55.721C145.58 55.595 145.895 55.406 146.336 55.28C146.714 55.154 147.281 55.091 148.037 55.028C148.415 55.028 148.982 54.965 149.738 54.902C150.494 54.839 151.124 54.776 151.502 54.713C151.88 54.713 152.195 54.713 152.384 54.65C152.762 54.65 153.014 54.587 153.203 54.461C153.266 54.461 153.329 54.398 153.455 54.272C153.455 54.209 153.518 54.146 153.644 54.02C153.644 53.957 153.644 53.894 153.644 53.768C153.644 53.642 153.707 53.138 153.707 52.193V51.374V50.555V48.917C153.581 48.98 153.518 48.98 153.455 48.98H153.203C153.077 49.043 153.014 49.043 152.951 49.043C152.195 49.169 151.628 49.232 151.313 49.232C149.297 49.358 148.163 49.484 147.911 49.484C147.785 49.484 147.659 49.547 147.47 49.547C147.281 49.61 147.155 49.61 147.092 49.61C146.714 49.673 146.399 49.673 146.273 49.61C146.147 49.61 146.021 49.61 145.895 49.547C145.769 49.484 145.643 49.358 145.58 49.232C145.454 49.169 145.391 49.043 145.328 48.917C145.076 48.539 144.887 47.846 144.761 46.964C144.635 46.208 144.572 45.578 144.635 44.948C144.635 44.633 144.635 44.318 144.761 43.94C144.824 43.562 144.95 43.184 145.076 42.932C145.076 42.806 145.139 42.743 145.265 42.617C145.328 42.554 145.454 42.491 145.58 42.365C145.643 42.365 145.769 42.302 145.895 42.239C146.147 42.176 146.777 42.113 147.848 41.987C148.226 41.987 148.856 41.987 149.738 41.924C150.62 41.924 151.187 41.861 151.502 41.861C152.132 41.861 152.825 41.798 153.455 41.672C153.455 41.357 153.455 40.979 153.518 40.475C153.518 39.908 153.518 39.467 153.581 39.152C153.581 38.711 153.644 38.27 153.77 37.892C153.833 37.514 153.959 37.073 154.148 36.632C154.274 36.317 154.4 35.939 154.652 35.498C154.841 35.057 155.03 34.679 155.219 34.427C155.345 34.301 155.471 34.175 155.597 34.049C155.723 33.923 155.912 33.86 156.101 33.797C156.353 33.734 156.731 33.734 157.172 33.797C157.487 33.923 157.865 33.986 158.306 33.986C158.432 33.986 158.558 34.049 158.684 34.049C158.747 34.049 158.81 34.112 158.936 34.112C158.999 34.112 159.062 34.175 159.125 34.175C159.188 34.175 159.314 34.238 159.503 34.238C160.007 34.364 160.448 34.49 160.7 34.616C160.952 34.868 161.204 35.12 161.393 35.435C161.519 35.75 161.645 36.128 161.708 36.632C161.708 36.947 161.708 37.451 161.708 38.081C161.708 38.774 161.771 39.278 161.834 39.656C161.834 40.349 161.897 41.357 161.96 42.68C161.96 43.814 162.023 44.822 162.086 45.704C162.086 46.208 162.149 46.775 162.275 47.279C162.338 48.161 162.401 48.728 162.401 48.854C162.401 49.421 162.464 49.925 162.464 50.429C162.464 51.059 162.401 51.752 162.338 52.634C162.212 53.264 162.149 54.02 162.086 54.776C161.96 55.847 161.834 56.603 161.834 56.981C161.771 57.359 161.708 57.8 161.708 58.304C161.645 58.997 161.645 59.438 161.645 59.627C161.582 60.131 161.519 60.572 161.456 60.95C161.393 61.328 161.33 61.643 161.267 62.021C161.141 62.273 161.078 62.651 161.015 63.092C160.889 63.596 160.763 63.911 160.637 64.1C160.448 64.604 160.196 64.919 159.944 65.171C159.692 65.423 159.314 65.612 158.873 65.738C158.747 65.801 158.369 65.927 157.739 66.179C157.361 66.305 157.046 66.431 156.794 66.494C156.542 66.62 156.29 66.683 155.912 66.683C155.408 66.809 155.093 66.872 154.967 66.872C154.715 66.935 154.463 66.935 154.274 66.872C154.022 66.809 153.896 66.683 153.77 66.494C153.644 66.368 153.581 66.116 153.518 65.801C153.518 65.675 153.455 65.36 153.455 64.919C153.455 64.73 153.392 64.415 153.392 64.037L153.329 63.155ZM126.869 67.124C122.144 67.25 117.86 66.242 113.954 64.037C111.56 62.651 109.922 60.446 109.166 57.296C108.158 53.579 108.032 50.555 108.788 48.161C109.166 46.901 109.796 45.704 110.615 44.57C112.19 42.428 113.576 40.79 114.773 39.656C116.537 38.018 118.868 37.388 121.64 37.703C125.231 38.207 129.074 39.656 133.106 42.05C135.374 43.436 136.76 45.452 137.264 48.224C137.957 52.634 138.02 56.162 137.39 58.934C136.76 61.58 135.563 63.659 133.736 65.171C131.909 66.683 129.641 67.376 126.869 67.124ZM120.002 53.705C120.758 56.225 121.262 57.611 121.451 57.926C121.577 58.178 121.766 58.43 122.081 58.682C122.396 58.934 122.648 59.06 122.9 59.06C124.286 58.934 125.483 58.619 126.428 57.989C127.31 57.359 127.94 56.54 128.192 55.469C128.444 54.398 128.192 53.075 127.436 51.563C126.302 49.358 124.538 48.602 122.144 49.295C120.758 49.673 120.065 51.185 120.002 53.705ZM142.871 85.205C143.879 85.205 144.761 84.827 145.517 83.945C146.273 83.126 146.651 82.118 146.651 80.858C146.651 79.094 145.643 78.023 143.753 77.582C141.674 77.204 137.579 76.952 131.468 76.952H131.405C130.775 76.952 130.271 77.078 129.83 77.267C129.389 77.519 129.011 77.834 128.759 78.275C128.507 78.716 128.318 79.094 128.192 79.409C128.066 79.787 127.94 80.228 127.814 80.858C127.688 81.173 127.688 81.425 127.688 81.677C127.688 82.37 127.877 82.937 128.381 83.315C128.885 83.756 129.452 84.008 130.208 84.134C130.901 84.323 131.846 84.449 133.106 84.575C134.303 84.701 135.374 84.827 136.319 84.827C137.201 84.89 138.398 84.953 139.847 85.016C141.296 85.142 142.241 85.205 142.682 85.205H142.871ZM133.61 70.526C136.004 70.526 138.902 70.778 142.178 71.156C145.454 71.534 148.226 72.038 150.494 72.668C154.337 73.802 156.479 75.818 156.92 78.716C157.046 79.472 157.109 80.165 157.109 80.795C157.109 83.63 155.975 85.898 153.77 87.536C152.258 88.67 150.998 89.615 149.99 90.245C148.982 90.875 147.785 91.505 146.273 92.072C144.761 92.702 143.249 93.017 141.737 93.017C141.107 93.017 139.595 93.143 137.138 93.269C134.681 93.395 133.043 93.458 132.224 93.458C131.027 93.458 129.956 93.395 129.074 93.206C128.822 93.206 128.57 93.206 128.192 93.08C126.428 92.828 125.042 92.576 124.16 92.387C123.215 92.198 122.081 91.82 120.758 91.19C119.435 90.623 118.301 89.867 117.419 88.922C115.718 87.284 114.899 85.772 114.899 84.323C114.899 81.425 115.277 79.22 116.159 77.771C118.49 73.865 123.341 71.471 130.649 70.715C131.594 70.589 132.602 70.526 133.61 70.526Z" fill="white"/>
<rect x="0.5" y="29.5" width="90" height="120" fill="#FF961E"/>
<rect x="0.5" y="29.5" width="90" height="120" stroke="black"/>
<path d="M61.88 119.056C59.864 119.056 58.478 118.741 57.722 117.985C56.966 117.229 56.588 115.843 56.462 113.764C56.147 107.905 56.021 103.873 56.021 101.668C56.021 98.581 56.21 88.816 56.651 72.436C56.651 71.995 56.714 71.491 56.84 70.987C56.903 70.483 56.966 70.042 57.092 69.664C57.155 69.286 57.281 68.845 57.47 68.215C57.596 67.585 57.722 67.144 57.848 66.766C57.974 66.262 58.226 65.884 58.667 65.758C58.793 65.758 59.234 65.632 59.927 65.443C60.62 65.254 61.124 65.128 61.376 65.065C61.628 65.002 62.006 64.939 62.636 64.813C63.203 64.687 63.644 64.687 64.022 64.687C64.4 64.687 64.841 64.75 65.345 64.876C65.849 65.002 66.29 65.128 66.794 65.317C67.991 65.947 68.684 67.081 68.81 68.719C68.81 69.475 68.873 71.995 68.936 76.342C68.936 80.689 69.062 83.398 69.188 84.469C69.314 85.225 69.755 86.044 70.511 86.863C70.889 87.304 71.267 87.745 71.708 88.186C72.149 88.69 72.653 89.194 73.22 89.698C73.724 90.265 74.165 90.706 74.543 90.958C75.047 91.462 75.362 92.029 75.614 92.596C75.866 93.226 75.929 93.919 75.866 94.675C75.803 95.431 75.74 95.998 75.677 96.376C75.551 96.754 75.425 97.447 75.173 98.329C74.795 99.841 73.472 100.66 71.204 100.66C70.007 100.66 69.251 100.849 68.999 101.164C68.684 101.542 68.558 102.361 68.621 103.747C68.621 104.692 68.621 106.393 68.684 108.787C68.747 111.181 68.81 112.819 68.81 113.638C68.81 115.339 68.369 116.473 67.361 117.04C64.841 118.426 63.014 119.119 61.88 119.056ZM24.962 94.234C24.458 94.171 23.765 94.045 23.009 93.919C22.253 93.793 21.56 93.667 20.993 93.541C20.363 93.415 19.859 93.352 19.355 93.226C18.221 93.1 17.654 92.596 17.591 91.714C17.339 89.446 17.024 86.737 16.646 83.461C17.15 83.461 17.843 83.335 18.725 83.209C19.607 83.083 20.3 83.02 20.867 82.894C21.434 82.831 22.064 82.768 22.82 82.768C23.576 82.768 24.269 82.831 24.899 82.957C25.529 83.083 25.97 83.083 26.348 83.083C26.663 83.083 27.167 83.083 27.797 82.957C28.427 82.894 28.931 82.831 29.309 82.831C29.687 82.831 30.38 82.831 31.325 82.831C32.27 82.831 33.026 82.768 33.53 82.768C34.034 82.768 35.735 82.642 38.696 82.453C41.657 82.327 43.925 82.201 45.563 82.138C47.453 82.138 48.587 82.327 49.028 82.768C49.406 83.272 49.532 84.406 49.343 86.296C49.091 88.438 48.776 90.202 48.335 91.651C48.209 91.84 48.083 92.029 47.894 92.155C47.642 92.344 47.39 92.533 47.012 92.722C46.634 92.911 46.382 93.037 46.256 93.1C46.445 93.856 46.823 95.053 47.453 96.628C48.02 98.203 48.461 99.589 48.776 100.849C49.028 102.109 49.154 103.369 49.028 104.629C48.65 109.354 46.697 112.882 43.295 115.213C41.909 116.221 40.208 116.536 38.066 116.284C35.42 116.032 31.262 115.276 25.718 114.079C22.19 113.386 20.237 111.118 19.796 107.338C19.166 102.487 20.426 98.581 23.639 95.683C23.639 95.683 24.08 95.179 24.962 94.234ZM34.286 108.346C37.688 108.346 39.893 107.023 40.838 104.377C41.09 103.558 41.027 102.613 40.649 101.479C40.271 100.408 39.704 99.841 39.074 99.778C36.365 99.463 34.349 99.337 32.963 99.463C31.388 99.589 30.191 100.156 29.435 101.038C28.679 101.92 28.301 103.18 28.427 104.692C28.427 105.889 28.742 106.582 29.246 106.771C29.75 107.023 31.388 107.527 34.286 108.346ZM40.46 78.421C36.554 80.059 32.774 80.437 29.246 79.618C27.104 79.114 25.34 78.358 23.828 77.35C23.576 77.224 23.45 76.972 23.324 76.594C23.198 76.279 23.072 75.838 23.009 75.271C22.883 74.704 22.82 74.326 22.82 74.074C22.568 73.192 22.379 72.625 22.379 72.247C22.19 71.869 22.127 71.554 22.253 71.302C22.379 71.05 22.694 70.924 23.324 70.924C23.828 70.924 24.521 70.735 25.529 70.483C26.474 70.231 27.167 70.105 27.545 70.042C32.207 69.538 35.609 69.286 37.751 69.223C38.129 69.223 38.507 69.349 38.759 69.601C39.011 69.853 39.2 70.105 39.263 70.294C39.326 70.546 39.389 70.924 39.515 71.428C39.641 71.932 39.704 72.247 39.704 72.31C39.83 72.94 39.893 73.507 40.019 74.137C40.082 74.767 40.145 75.586 40.208 76.468C40.271 77.35 40.334 78.043 40.46 78.421Z" fill="white"/>
</svg>
