<svg width="361" height="121" viewBox="0 0 361 121" fill="none" xmlns="http://www.w3.org/2000/svg">
<rect x="270.5" y="0.5" width="90" height="120" fill="#FF961E"/>
<rect x="270.5" y="0.5" width="90" height="120" stroke="black"/>
<path d="M290.96 38.82C293.36 38.82 297.02 38.76 302 38.7C306.98 38.64 310.76 38.58 313.34 38.52C314.9 38.52 316.1 38.76 316.94 39.36C317.72 39.96 318.38 41.04 318.86 42.6C319.82 45.78 320.3 47.94 320.42 49.08C320.42 50.22 320.42 51 320.42 51.48C320.42 51.96 320.36 52.8 320.24 53.88C320.12 55.02 320 55.8 320 56.28C319.7 60.18 319.52 62.4 319.52 62.94C319.46 64.38 318.92 65.58 317.96 66.48C317 67.44 315.8 67.92 314.36 67.98C311.72 68.1 309.74 67.62 308.48 66.42C307.64 65.7 307.22 64.98 307.22 64.38C307.1 63.18 306.98 59.88 306.8 54.36C306.8 53.28 306.62 52.62 306.32 52.32C305.96 52.08 305.3 51.9 304.28 51.9C303.68 51.9 302.84 51.96 301.7 51.96C300.56 51.96 299.54 51.96 298.7 51.96C297.86 51.96 297.02 51.9 296.24 51.78C293.9 51.54 291.8 51 290 50.04C289.76 49.92 289.64 49.68 289.52 49.32C289.4 48.96 289.34 48.48 289.28 47.82C289.16 47.16 289.1 46.74 289.1 46.56C288.98 46.2 288.68 44.34 288.2 41.04C288.14 41.04 288.08 40.98 288.08 40.8C288.08 40.68 288.08 40.5 288.14 40.26C288.2 40.08 288.32 39.9 288.5 39.66C288.62 39.42 288.92 39.24 289.34 39.06C289.76 38.94 290.3 38.82 290.96 38.82ZM341.9 64.44C341.84 66.96 341.24 68.7 340.1 69.66C339.62 70.02 339.02 70.32 338.3 70.44C337.58 70.56 336.92 70.62 336.38 70.56H335.6L334.28 70.2C333.44 70.02 333.08 69.48 333.08 68.64V58.68C332 58.92 330.8 59.04 329.54 59.16C327.2 59.4 325.82 58.86 325.4 57.54C324.5 55.02 325.1 52.5 327.26 49.98C327.38 49.86 327.62 49.74 328.04 49.62C328.4 49.56 329 49.5 329.84 49.44C330.62 49.38 331.1 49.32 331.28 49.26C331.34 49.26 331.88 49.32 332.84 49.44C332.72 46.26 332.72 42.84 332.72 39.18C332.72 38.4 332.96 37.74 333.56 37.2C334.1 36.72 334.82 36.42 335.66 36.42L339.92 36.84L340.52 37.32C340.76 37.5 341.06 37.86 341.54 38.4C341.96 38.94 342.2 39.48 342.2 39.96V48.9C342.14 48.9 342.08 49.86 342.08 51.78C342.08 53.7 342.02 56.04 342.02 58.74C341.96 61.5 341.9 63.36 341.9 64.44ZM312.44 80.58C320.6 80.1 325.22 79.86 326.24 79.74C327.26 79.68 328.46 79.56 329.9 79.44C331.34 79.32 332.54 79.2 333.5 79.08C334.46 78.96 335.3 78.9 335.9 78.9C336.68 78.9 337.28 79.92 337.64 81.84C337.7 82.26 337.76 83.1 337.76 84.3C337.76 85.68 337.4 87.06 336.68 88.5C336.44 88.92 335.9 89.22 335.06 89.34C334.22 89.46 331.4 89.64 326.6 89.88C321.8 90.12 318.98 90.3 318.08 90.42C317.84 90.48 317.66 90.48 317.42 90.48C316.4 90.48 314.24 90.54 310.94 90.6C307.64 90.66 305.24 90.72 303.74 90.78C303.38 90.78 302.72 90.84 301.88 90.9C301.04 90.96 300.38 90.96 299.96 90.96C298.58 90.96 297.44 90.72 296.6 90.18C296.3 90.06 296.06 89.76 295.82 89.4C295.58 89.04 295.52 88.74 295.52 88.38C295.34 86.64 295.22 84.18 295.1 80.94C294.98 77.7 294.86 75.48 294.8 74.22L294.74 73.38C294.74 72.78 294.74 72.24 294.74 71.64L294.68 70.8C294.8 70.8 295.1 70.74 295.64 70.62C296.18 70.5 296.54 70.38 296.72 70.32C297.14 70.26 298.1 70.2 299.6 70.2C301.34 70.2 302.42 70.32 302.9 70.44C303.38 70.62 303.62 70.92 303.62 71.34C303.62 71.52 303.68 71.94 303.8 72.54C303.92 73.14 304.04 73.56 304.04 73.74C304.04 74.4 304.16 75.6 304.52 77.4C304.52 77.64 304.58 78.18 304.7 78.96C304.76 79.74 304.88 80.4 305.06 81L312.44 80.58Z" fill="white"/>
<rect x="180.5" y="0.5" width="90" height="120" fill="#FF961E"/>
<rect x="180.5" y="0.5" width="90" height="120" stroke="black"/>
<path d="M206.789 53.012C202.505 52.256 200.174 51.815 199.733 51.689C198.41 51.437 197.78 50.744 197.843 49.547V45.326C199.796 44.57 201.938 44.129 204.332 43.877C206.726 43.688 208.742 43.625 210.443 43.688C212.081 43.814 214.349 44.003 217.121 44.318C217.877 44.444 218.696 44.444 219.578 44.444C220.46 44.444 221.468 44.444 222.665 44.444C223.862 44.444 224.807 44.381 225.437 44.381V48.161C225.437 48.791 225.248 49.232 224.87 49.484C224.429 49.736 223.925 49.925 223.295 50.051C222.665 50.177 222.287 50.429 222.098 50.681L222.917 51.563C226.445 53.957 227.453 57.233 226.004 61.391C225.374 63.155 223.925 65.36 221.657 67.943C221.279 68.321 220.775 68.699 220.019 68.951C219.263 69.203 218.57 69.392 217.877 69.392C214.412 69.518 211.388 69.455 208.868 69.077C205.214 68.573 202.757 67.187 201.56 64.856C200.3 62.525 200.741 60.005 202.757 57.296C203.072 56.855 203.45 56.414 203.891 55.91C204.332 55.406 204.836 54.902 205.466 54.272C206.033 53.705 206.474 53.264 206.789 53.012ZM218.633 60.761C218.57 59.753 218.255 59.06 217.688 58.619C217.058 58.241 216.05 57.989 214.601 57.926C213.593 57.926 212.774 58.367 212.207 59.249C211.577 60.131 211.199 61.265 211.01 62.525C210.884 63.281 211.136 63.785 211.64 64.1C212.144 64.415 213.026 64.604 214.223 64.604C215.483 64.604 216.491 64.289 217.373 63.533C218.192 62.777 218.633 61.895 218.633 60.761ZM206.6 42.932C206.852 40.664 207.041 39.215 207.167 38.585C207.167 38.522 207.23 38.396 207.356 38.207C207.986 37.577 209.372 37.01 211.514 36.569C213.593 36.128 215.168 36.065 216.176 36.443C217.562 36.947 218.381 37.892 218.633 39.152C218.885 40.475 218.507 41.546 217.373 42.365C216.617 42.869 215.672 43.121 214.538 43.121C214.097 43.184 212.081 43.121 208.49 42.995C208.238 42.995 207.608 42.995 206.6 42.932ZM248.18 57.8V65.927C248.18 66.62 248.054 67.88 247.928 69.644C247.802 70.652 247.172 71.219 246.164 71.219C243.896 71.282 242.006 71.282 240.368 71.156C239.423 71.156 238.604 70.778 237.974 70.148C237.344 69.518 236.966 68.762 236.966 67.88C236.903 64.226 236.903 59.69 236.966 54.272C236.966 53.957 236.966 51.5 237.092 46.901C237.155 42.365 237.218 39.53 237.281 38.522C237.281 37.262 237.722 36.443 238.604 35.939C238.793 35.813 239.171 35.624 239.738 35.309C240.305 35.057 240.746 34.805 241.061 34.679C241.313 34.553 241.691 34.427 242.195 34.238C242.699 34.049 243.14 33.923 243.581 33.86C244.022 33.797 244.463 33.797 244.967 33.797C245.723 33.86 246.29 33.923 246.668 34.049C247.55 34.427 247.991 35.057 247.991 36.002C247.991 36.821 247.991 38.9 248.117 42.302C248.243 45.704 248.306 47.72 248.432 48.35C248.495 48.854 248.873 49.169 249.629 49.232C252.653 49.484 254.354 49.61 254.732 49.673C255.614 49.925 256.181 50.618 256.307 51.878C256.496 53.768 256.181 55.469 255.299 56.918C255.047 57.359 254.291 57.674 253.157 57.8H248.18ZM222.287 80.984C230.855 80.48 235.706 80.228 236.777 80.102C237.848 80.039 239.108 79.913 240.62 79.787C242.132 79.661 243.392 79.535 244.4 79.409C245.408 79.283 246.29 79.22 246.92 79.22C247.739 79.22 248.369 80.291 248.747 82.307C248.81 82.748 248.873 83.63 248.873 84.89C248.873 86.339 248.495 87.788 247.739 89.3C247.487 89.741 246.92 90.056 246.038 90.182C245.156 90.308 242.195 90.497 237.155 90.749C232.115 91.001 229.154 91.19 228.209 91.316C227.957 91.379 227.768 91.379 227.516 91.379C226.445 91.379 224.177 91.442 220.712 91.505C217.247 91.568 214.727 91.631 213.152 91.694C212.774 91.694 212.081 91.757 211.199 91.82C210.317 91.883 209.624 91.883 209.183 91.883C207.734 91.883 206.537 91.631 205.655 91.064C205.34 90.938 205.088 90.623 204.836 90.245C204.584 89.867 204.521 89.552 204.521 89.174C204.332 87.347 204.206 84.764 204.08 81.362C203.954 77.96 203.828 75.629 203.765 74.306L203.702 73.424C203.702 72.794 203.702 72.227 203.702 71.597L203.639 70.715C203.765 70.715 204.08 70.652 204.647 70.526C205.214 70.4 205.592 70.274 205.781 70.211C206.222 70.148 207.23 70.085 208.805 70.085C210.632 70.085 211.766 70.211 212.27 70.337C212.774 70.526 213.026 70.841 213.026 71.282C213.026 71.471 213.089 71.912 213.215 72.542C213.341 73.172 213.467 73.613 213.467 73.802C213.467 74.495 213.593 75.755 213.971 77.645C213.971 77.897 214.034 78.464 214.16 79.283C214.223 80.102 214.349 80.795 214.538 81.425L222.287 80.984Z" fill="white"/>
<rect x="90.5" y="0.5" width="90" height="120" fill="#FF961E"/>
<rect x="90.5" y="0.5" width="90" height="120" stroke="black"/>
<path d="M121.388 82.433C121.388 81.929 121.514 81.299 121.766 80.417C122.018 79.535 122.144 78.842 122.207 78.338C122.27 76.259 122.333 74.873 122.459 74.18C122.459 73.676 122.711 73.235 123.089 72.92C123.467 72.668 123.908 72.542 124.475 72.542C125.672 72.605 127.058 72.731 128.633 72.857C129.137 72.983 129.452 73.298 129.452 73.865C129.389 75.881 129.389 77.33 129.452 78.212C129.452 78.842 129.641 79.976 129.893 81.488C129.893 81.74 130.019 81.929 130.271 81.992C130.46 82.118 130.838 82.244 131.405 82.496C131.972 82.748 132.476 82.874 132.854 83C133.232 83.126 133.673 83.189 134.051 83.189C134.933 83.315 136.382 83.189 138.398 82.811C138.524 82.811 138.65 82.622 138.776 82.37C138.902 82.118 139.028 81.803 139.091 81.551C139.091 81.047 139.154 80.102 139.28 78.842C139.406 77.582 139.532 76.637 139.658 75.944C139.784 75.062 140.099 74.243 140.666 73.487C140.792 73.361 141.548 73.109 143.06 72.794C144.824 72.416 145.895 73.172 146.273 74.999C146.525 76.133 146.588 77.582 146.462 79.346C146.399 79.976 148.037 80.606 151.439 81.11C154.778 81.677 157.172 81.992 158.621 81.992H161.33C161.834 82.055 162.149 82.244 162.275 82.622C163.031 84.575 163.409 85.898 163.535 86.528C163.661 87.536 163.409 88.292 162.905 88.922C162.401 89.552 161.582 89.93 160.448 90.056C160.07 90.119 158.747 90.119 156.605 90.119C154.4 90.119 152.132 90.119 149.801 90.119C147.407 90.119 146.147 90.056 145.895 90.056C145.013 90.119 142.745 90.182 139.154 90.182C135.563 90.182 132.791 90.245 130.901 90.245C130.334 90.308 129.452 90.371 128.318 90.497C127.184 90.623 126.302 90.686 125.798 90.686C124.034 90.686 118.427 90.434 108.977 89.867H108.725C108.599 89.867 108.473 89.804 108.41 89.804C107.591 89.93 107.087 89.867 106.835 89.678C106.583 89.489 106.457 88.985 106.457 88.229C106.394 87.095 106.394 85.646 106.457 83.882C106.457 83.378 106.772 83 107.276 82.622C107.78 82.307 108.41 82.118 109.166 82.118C109.544 82.118 111.56 82.181 115.34 82.307C119.057 82.433 121.073 82.433 121.388 82.433ZM134.681 36.569C139.469 36.884 142.052 37.073 142.367 37.073C149.549 37.829 155.156 41.042 159.125 46.586C159.629 47.342 160.007 48.539 160.196 50.051C160.511 52.823 160.07 56.099 158.81 59.816C157.424 63.848 154.652 66.305 150.62 67.25C147.659 67.943 144.509 68.258 141.107 68.258C140.162 68.258 138.398 68.321 135.815 68.447C133.232 68.573 131.279 68.636 129.893 68.51C124.664 68.258 120.191 67.187 116.537 65.423C114.395 64.415 112.82 63.029 111.875 61.202C110.867 59.438 110.489 57.359 110.741 54.965C111.119 50.933 112.946 47.09 116.285 43.373C117.797 41.672 119.624 40.349 121.64 39.404C123.656 38.459 126.05 37.703 128.822 37.073C129.389 36.947 130.019 36.884 130.712 36.821C131.342 36.758 132.098 36.695 132.917 36.695C133.736 36.695 134.303 36.632 134.681 36.569ZM134.996 60.068C138.461 59.816 140.351 59.627 140.603 59.564C141.674 59.438 142.745 58.934 143.879 58.052C144.95 57.17 145.517 56.288 145.643 55.406C145.895 53.39 145.643 51.689 144.95 50.366C144.257 49.043 142.934 48.098 140.918 47.531C136.634 46.397 132.791 46.271 129.389 47.279C129.263 47.342 129.074 47.405 128.822 47.468C128.57 47.531 128.381 47.594 128.255 47.594C128.129 47.657 127.94 47.72 127.688 47.783C127.436 47.909 127.31 47.972 127.184 48.035C127.058 48.161 126.869 48.224 126.743 48.35C126.617 48.476 126.491 48.539 126.428 48.665C125.483 49.988 124.475 51.878 123.404 54.335C122.585 56.225 123.152 57.485 125.168 58.178C126.617 58.682 127.688 59.06 128.444 59.312C129.137 59.564 130.145 59.753 131.405 59.942C132.665 60.194 133.862 60.194 134.996 60.068Z" fill="white"/>
<rect x="0.5" y="0.5" width="90" height="120" fill="#FF961E"/>
<rect x="0.5" y="0.5" width="90" height="120" stroke="black"/>
<path d="M30.758 60.824C31.136 60.824 32.207 60.761 33.908 60.761H38.633H41.783C49.469 60.635 53.942 60.635 55.139 60.635C56.273 60.635 58.856 60.761 62.825 60.95C66.731 61.139 68.81 61.265 69.062 61.265C69.251 61.265 69.629 61.328 70.196 61.454C71.078 61.706 71.645 62.021 71.96 62.399C72.275 62.777 72.401 63.407 72.275 64.289C72.212 64.667 72.149 64.919 72.149 65.171C72.086 65.423 72.023 65.675 72.023 65.864C71.96 66.116 71.897 66.305 71.771 66.431C71.645 66.557 71.519 66.683 71.519 66.809C71.456 66.935 71.33 67.061 71.141 67.187C70.889 67.313 70.763 67.376 70.637 67.439C70.511 67.502 70.322 67.565 70.007 67.628C69.692 67.754 69.44 67.817 69.314 67.817C69.188 67.88 68.873 67.943 68.432 68.069C67.928 68.195 67.613 68.258 67.361 68.321C66.857 68.447 64.211 68.573 59.297 68.699C54.383 68.888 51.674 69.077 51.17 69.203C50.918 69.329 50.855 69.896 50.855 70.967C54.761 71.408 57.974 71.975 60.494 72.668C64.337 73.802 66.479 75.818 66.92 78.716C67.046 79.472 67.109 80.165 67.109 80.795C67.109 83.63 65.975 85.898 63.77 87.536C62.258 88.67 60.998 89.615 59.99 90.245C58.982 90.875 57.785 91.505 56.273 92.072C54.761 92.702 53.249 93.017 51.737 93.017C51.107 93.017 49.595 93.143 47.138 93.269C44.681 93.395 43.043 93.458 42.224 93.458C41.027 93.458 39.956 93.395 39.074 93.206C38.822 93.206 38.57 93.206 38.192 93.08C36.428 92.828 35.042 92.576 34.16 92.387C33.215 92.198 32.081 91.82 30.758 91.19C29.435 90.623 28.301 89.867 27.419 88.922C25.718 87.284 24.899 85.772 24.899 84.323C24.899 81.425 25.277 79.22 26.159 77.771C28.49 73.865 33.341 71.471 40.649 70.715L41.657 70.589C41.531 69.896 41.153 69.518 40.649 69.392C40.019 69.329 37.436 69.266 32.9 69.14C28.364 69.014 25.718 69.014 24.962 69.014C23.954 69.266 23.135 69.329 22.442 69.203C21.749 69.14 21.245 68.699 20.93 67.88C20.3 66.494 20.111 64.919 20.363 63.218C20.426 62.84 20.804 62.399 21.434 61.958C22.064 61.58 23.513 61.202 25.844 60.95C28.112 60.698 29.75 60.698 30.758 60.824ZM49.217 43.688H38.255C37.562 43.688 36.428 43.625 34.853 43.625C33.278 43.625 31.829 43.562 30.569 43.562C29.246 43.562 28.49 43.562 28.238 43.499C27.104 43.436 26.474 42.869 26.474 41.861C26.411 41.357 26.411 40.412 26.474 39.089C26.537 37.766 26.6 36.884 26.6 36.443C26.852 36.443 27.356 36.317 28.049 36.191C28.679 36.065 29.309 36.002 29.813 35.939C30.317 35.876 30.821 35.813 31.325 35.813C33.971 35.813 37.562 35.876 42.161 36.002C42.98 36.065 44.177 36.128 45.752 36.254C47.327 36.38 48.461 36.38 49.217 36.38C49.847 36.443 51.044 36.506 52.934 36.506C54.761 36.569 56.21 36.632 57.218 36.632C58.289 36.758 59.927 37.01 62.132 37.514C62.825 37.64 63.266 37.955 63.455 38.333C63.581 38.774 63.644 39.278 63.581 39.908C63.266 41.924 62.951 43.31 62.699 44.066C62.321 44.948 61.691 45.767 60.746 46.523C60.431 46.775 60.053 47.027 59.675 47.279C59.234 47.531 58.73 47.783 58.226 48.035C57.659 48.35 57.281 48.539 57.029 48.665C61.439 51.5 63.959 53.138 64.652 53.516C65.03 53.768 65.282 54.02 65.345 54.209C65.345 54.398 65.282 54.65 65.03 54.965C64.778 55.343 64.4 55.847 63.959 56.54C63.518 57.296 63.203 57.8 63.014 58.115C62.51 58.745 61.691 59.186 60.557 59.438C59.423 59.69 58.352 59.69 57.344 59.438C56.714 59.312 56.021 59.123 55.328 58.808C54.635 58.556 54.068 58.304 53.627 58.052C53.186 57.8 52.619 57.485 51.863 57.044C51.107 56.603 50.54 56.288 50.225 56.036C49.217 55.532 48.146 55.028 47.012 54.65C46.004 54.335 44.744 54.524 43.232 55.217C41.09 56.225 38.507 57.548 35.609 59.123C35.231 59.312 34.916 59.438 34.601 59.501C34.286 59.627 33.908 59.627 33.53 59.627C33.152 59.627 32.837 59.564 32.648 59.564C32.459 59.564 32.144 59.501 31.64 59.375C31.136 59.312 30.821 59.249 30.695 59.186C29.813 59.06 29.057 58.808 28.427 58.304C27.797 57.8 27.356 57.296 27.104 56.666C26.852 56.099 26.663 55.532 26.537 54.965C26.411 54.461 26.411 53.957 26.411 53.579V53.012C29.435 52.067 31.514 51.374 32.648 50.996C33.404 50.744 34.664 50.366 36.302 49.862C37.94 49.358 39.2 48.98 40.019 48.665C40.901 48.413 42.098 47.972 43.673 47.342C45.248 46.712 46.193 46.397 46.445 46.271C47.453 45.893 48.335 45.074 49.217 43.688ZM52.871 85.205C53.879 85.205 54.761 84.827 55.517 83.945C56.273 83.126 56.651 82.118 56.651 80.858C56.651 79.094 55.643 78.023 53.753 77.582C51.674 77.204 47.579 76.952 41.468 76.952H41.405C40.775 76.952 40.271 77.078 39.83 77.267C39.389 77.519 39.011 77.834 38.759 78.275C38.507 78.716 38.318 79.094 38.192 79.409C38.066 79.787 37.94 80.228 37.814 80.858C37.688 81.173 37.688 81.425 37.688 81.677C37.688 82.37 37.877 82.937 38.381 83.315C38.885 83.756 39.452 84.008 40.208 84.134C40.901 84.323 41.846 84.449 43.106 84.575C44.303 84.701 45.374 84.827 46.319 84.827C47.201 84.89 48.398 84.953 49.847 85.016C51.296 85.142 52.241 85.205 52.682 85.205H52.871Z" fill="white"/>
</svg>
