<svg width="181" height="121" viewBox="0 0 181 121" fill="none" xmlns="http://www.w3.org/2000/svg">
<rect x="0.5" y="0.5" width="90" height="120" fill="#FF961E"/>
<rect x="0.5" y="0.5" width="90" height="120" stroke="black"/>
<path d="M31.46 60.3H34.46H38.96C40.4 60.3 41.36 60.3 41.96 60.24C49.28 60.12 53.54 60.12 54.68 60.12C55.76 60.12 58.22 60.24 62 60.42C65.72 60.66 67.7 60.72 67.94 60.72C68.12 60.72 68.48 60.78 69.02 60.9C69.86 61.14 70.4 61.44 70.7 61.8C71 62.16 71.12 62.76 71 63.6C70.94 63.96 70.88 64.2 70.88 64.44C70.82 64.68 70.76 64.92 70.76 65.1C70.7 65.34 70.64 65.52 70.52 65.64C70.4 65.76 70.28 65.88 70.28 66C70.22 66.12 70.1 66.24 69.92 66.36C69.68 66.48 69.56 66.54 69.44 66.6C69.32 66.66 69.14 66.72 68.84 66.78C68.54 66.9 68.3 66.96 68.18 66.96C68.06 67.02 67.76 67.08 67.34 67.2C66.86 67.32 66.56 67.38 66.32 67.44C65.84 67.56 63.32 67.74 58.64 67.86C53.96 67.98 51.38 68.16 50.9 68.28C50.72 68.34 50.6 68.76 50.6 69.48C50.6 70.26 50.6 71.04 50.6 71.82C50.6 72.6 50.6 73.2 50.6 73.62C50.6 73.74 50.6 73.98 50.66 74.34C50.72 74.7 50.72 74.94 50.6 74.94C49.88 76.02 48.68 76.56 46.88 76.56C45.08 76.62 43.7 76.2 42.74 75.36C42.38 75.12 42.2 74.88 42.14 74.64C41.96 74.28 41.9 73.62 41.9 72.54C41.9 71.46 41.78 70.56 41.66 69.78C41.54 69 41.24 68.58 40.88 68.46C40.28 68.4 37.82 68.34 33.5 68.22C29.18 68.1 26.66 68.1 25.94 68.16C24.98 68.34 24.2 68.4 23.54 68.34C22.88 68.28 22.4 67.86 22.1 67.02C21.5 65.7 21.32 64.26 21.56 62.58C21.62 62.22 21.98 61.8 22.58 61.38C23.18 61.02 24.56 60.66 26.78 60.42C28.94 60.18 30.5 60.18 31.46 60.3ZM38.66 46.86H48.5C52.94 46.98 56.96 47.16 60.5 47.34C62.18 47.46 62.84 48.24 62.48 49.74C62.18 50.94 61.88 52.38 61.52 54.12C61.4 54.6 61.22 54.96 60.92 55.14C60.62 55.38 60.14 55.5 59.54 55.5C58.82 55.5 57.5 55.62 55.46 55.74C53.42 55.86 51.86 55.92 50.78 55.86C49.82 55.8 48.32 55.74 46.28 55.68C44.18 55.62 42.38 55.5 40.82 55.38C39.26 55.26 37.76 55.08 36.38 54.84C35.6 54.72 34.52 54.54 33.08 54.42C31.64 54.3 30.74 54.18 30.32 54.12C30.14 54.12 29.96 54 29.78 53.88C29.54 53.76 29.42 53.64 29.42 53.52C29.06 52.2 28.82 51.12 28.82 50.28C28.64 48 28.46 44.16 28.22 38.88C28.16 38.04 28.28 37.44 28.64 37.2C28.94 36.96 29.72 36.78 30.92 36.72C31.28 36.72 31.82 36.6 32.66 36.48C33.5 36.36 34.1 36.3 34.58 36.3C36.02 36.3 37.04 36.42 37.52 36.72C38 37.02 38.42 37.74 38.66 38.82C38.72 39.18 38.78 39.6 38.84 40.02C38.84 40.5 38.9 40.98 38.9 41.46C38.9 42 38.9 42.42 38.96 42.66C38.96 42.78 38.96 43.14 39.08 43.62C39.14 44.1 39.2 44.46 39.2 44.7C39.2 44.82 39.02 45.54 38.66 46.86ZM42.74 80.94H48.92H55.52C60.38 80.94 63.68 81 65.42 81C65.54 81 65.72 81.06 65.84 81.06C65.96 81.12 66.02 81.18 66.14 81.18C66.2 81.24 66.26 81.3 66.38 81.42L66.56 81.72C66.56 81.78 66.62 81.9 66.68 82.02C66.68 82.2 66.74 82.32 66.74 82.38C66.74 82.44 66.8 82.56 66.86 82.74C66.86 82.92 66.92 83.04 66.92 83.04C66.98 83.46 67.04 83.88 67.04 84.3C67.04 85.68 66.62 87.06 65.9 88.5C65.66 88.92 65.18 89.22 64.34 89.34C63.5 89.46 60.68 89.64 55.88 89.88C51.08 90.12 48.26 90.3 47.36 90.42C47.12 90.48 46.88 90.48 46.7 90.48C45.68 90.48 43.52 90.54 40.22 90.6C36.92 90.66 34.52 90.72 33.02 90.78C32.66 90.78 32 90.84 31.16 90.9C30.32 90.96 29.66 90.96 29.24 90.96C27.86 90.96 26.72 90.72 25.82 90.18C25.58 90.06 25.34 89.76 25.1 89.4C24.86 89.04 24.74 88.74 24.74 88.38C24.62 86.58 24.44 83.7 24.26 79.74C24.02 75.78 23.9 73.44 23.9 72.72H23.96C24.14 72.72 24.5 72.66 25.04 72.54C25.58 72.42 26 72.24 26.24 72.06C26.54 71.82 27.02 71.7 27.62 71.7C28.4 71.7 29.66 72 31.34 72.54C31.82 72.72 32.06 73.02 32.06 73.44C32.06 73.62 32 73.86 32 74.16C32 74.52 32 74.76 32 74.94V76.2V77.4V79.2V80.94H42.74Z" fill="white"/>
<rect x="90.5" y="0.5" width="90" height="120" fill="#FF961E"/>
<rect x="90.5" y="0.5" width="90" height="120" stroke="black"/>
<path d="M143.54 58.92V47.4C143.54 46.56 143.48 45.42 143.42 43.86C143.36 42.3 143.3 41.16 143.3 40.38C143.3 39.12 143.48 38.22 143.84 37.62C144.2 37.08 144.92 36.78 145.88 36.72C148.58 36.6 150.86 37.2 152.78 38.4C153.92 39.18 154.46 40.38 154.34 41.94C154.1 44.1 153.92 47.88 153.8 53.28C153.74 54.48 153.62 58.14 153.44 64.26C153.2 70.38 153.02 75.06 152.9 78.3C152.9 79.08 152.54 81.96 151.94 86.94C151.82 87.66 151.64 88.26 151.34 88.62C150.98 88.98 150.56 89.16 149.96 89.04C149.66 89.04 149.24 89.1 148.76 89.22C148.22 89.34 147.86 89.34 147.68 89.34C145.64 89.46 144.14 89.04 143.3 87.96C142.46 86.88 141.98 85.02 141.98 82.32C141.98 80.64 142.04 77.22 142.28 72C142.28 71.4 142.16 70.92 141.98 70.68C141.8 70.44 141.5 70.38 141.02 70.44H140.9H140.78C139.28 70.44 138.2 69.9 137.6 68.94C137 67.98 136.82 66.54 137.06 64.5C137.18 63.06 137.42 61.92 137.78 61.14C138.14 60.36 138.68 59.82 139.4 59.58C139.64 59.52 141.02 59.28 143.54 58.92ZM164.72 47.88C164 58.74 163.58 64.62 163.52 65.58C163.34 67.68 163.1 70.92 162.74 75.3C162.38 79.74 162.08 83.1 161.9 85.38C161.78 87.24 161.06 88.74 159.74 89.88C158.42 91.08 157.16 91.32 155.84 90.66C155.36 90.48 155.06 89.88 154.88 88.86C154.52 86.82 154.34 84.66 154.34 82.5C154.34 81.36 154.4 80.16 154.52 78.96C154.64 78.24 154.64 76.86 154.64 74.82C154.58 72.78 154.58 71.4 154.64 70.68C154.64 69.12 154.82 66.42 155.06 62.52C155.3 58.62 155.42 55.62 155.54 53.46C155.54 52.5 155.54 50.94 155.42 48.84C155.3 46.74 155.24 45.18 155.3 44.1C155.3 43.14 155.72 41.22 156.56 38.22C156.62 37.98 156.98 37.8 157.7 37.68C159.86 37.44 161.24 37.38 161.96 37.44C162.2 37.5 162.5 37.68 162.86 38.04C163.16 38.4 163.34 38.76 163.46 39.12C163.58 40.02 164 42.96 164.72 47.88ZM122.78 87.96C118.1 87.9 114.2 86.1 111.08 82.5C110 81.3 109.28 79.26 108.92 76.38C108.32 72.42 108.08 68.88 108.14 65.82C108.14 60.54 109.16 55.44 111.2 50.52C111.38 50.1 111.56 49.8 111.68 49.62C114.56 46.5 116.36 44.58 117.08 43.86C117.2 43.68 117.44 43.56 117.68 43.44C117.92 43.38 118.28 43.32 118.7 43.26C119.06 43.2 119.36 43.14 119.48 43.14C121.88 42.54 124.22 42.72 126.44 43.68C128.6 44.64 130.82 46.2 133.1 48.24C135.02 50.16 136.1 51.9 136.46 53.52C136.88 56.1 137 58.26 136.88 59.94C136.52 64.02 135.98 68.46 135.2 73.32C134.24 79.02 131.84 83.22 128 85.86C125.6 87.54 123.86 88.2 122.78 87.96ZM128.66 62.94C128.66 62.82 128.6 62.46 128.54 61.98C128.42 61.5 128.36 61.14 128.3 60.9C128.24 60.72 128.18 60.42 128.06 60.06C127.94 59.7 127.82 59.4 127.7 59.1C127.52 58.86 127.34 58.56 127.16 58.32C125.84 56.82 124.46 56.22 122.9 56.52C121.34 56.88 120.26 58.02 119.6 60C118.82 62.28 118.58 64.32 118.94 66.12C119.06 66.84 119.18 67.98 119.36 69.48C119.48 71.04 119.66 72.18 119.84 72.96C119.96 73.86 120.44 74.64 121.28 75.3C122.12 75.96 122.96 76.26 123.8 76.26C124.4 76.26 125.06 76.02 125.66 75.48C126.26 75 126.62 74.34 126.8 73.5C126.92 72.84 127.58 69.3 128.66 62.94Z" fill="white"/>
</svg>
