<svg width="361" height="151" viewBox="0 0 361 151" fill="none" xmlns="http://www.w3.org/2000/svg">
<rect x="0.5" y="0.5" width="90" height="120" fill="#FF961E"/>
<rect x="0.5" y="0.5" width="90" height="120" stroke="black"/>
<path d="M72.02 81.84C71.96 82.32 71.96 82.98 72.08 83.7C72.2 84.48 72.2 85.2 72.2 85.86C72.2 86.52 72.02 87.12 71.78 87.66C71.3 88.56 70.82 89.1 70.22 89.22C69.5 89.4 68.66 89.58 67.58 89.7C66.5 89.88 65.54 90 64.76 90.06C63.98 90.12 63.62 90.12 63.62 90.06H31.94C30.86 90.12 29.24 90.18 27.08 90.24C24.92 90.3 23.3 90.3 22.22 90.3C21.02 90.36 19.88 90.12 18.8 89.58L18.02 84.96L18.8 82.68C19.04 81.96 19.52 81.6 20.24 81.54L25.04 81.06C29.84 81.06 35 80.94 40.46 80.82C39.98 80.34 39.74 79.8 39.74 79.32C39.62 78.6 39.56 77.58 39.56 76.26C39.5 74.94 39.44 73.98 39.44 73.5C39.44 73.02 39.5 72.66 39.68 72.42C39.8 72.18 40.16 72.06 40.7 72.06C41.3 72.12 42.44 72.12 44 72.12C45.56 72.12 46.64 72.06 47.3 72.06C48.56 72.12 49.4 72.42 49.88 73.02C50.36 73.62 50.72 74.76 51.02 76.44C51.2 77.7 50.9 79.08 50.12 80.64C56.6 80.52 60.86 80.4 62.78 80.28C65.12 80.22 66.98 80.22 68.3 80.34C68.66 80.34 69.74 80.7 71.54 81.3C71.6 81.36 71.72 81.42 71.84 81.54C71.96 81.66 72.02 81.78 72.02 81.84ZM36.14 47.52L55.1 46.38V38.46C55.94 38.22 56.84 38.04 57.8 37.92C58.76 37.8 59.54 37.8 60.26 37.8C60.92 37.8 61.82 37.86 62.96 37.86C64.04 37.86 64.88 37.86 65.42 37.86C65.66 37.86 65.96 38.1 66.32 38.46C66.62 38.82 66.8 39.18 66.92 39.48C68 44.76 68.6 48.42 68.78 50.46C68.84 51.18 68.84 51.9 68.78 52.62C68.66 53.34 68.54 54.3 68.36 55.38C68.18 56.52 68.06 57.24 68.06 57.54C67.94 57.96 67.52 60.78 66.74 65.94C63.92 66.24 62.42 66.36 62.3 66.36C61.46 66.42 59.36 66.54 56.12 66.66C52.82 66.84 50.12 66.96 48.08 67.02C45.98 67.08 43.94 67.08 41.9 67.08C38.72 67.08 34.16 66.66 28.22 65.94C26.54 65.76 25.22 65.04 24.26 63.84C23.3 62.64 22.82 61.14 22.82 59.34L22.76 51.9C22.7 50.88 22.58 49.32 22.4 47.28C22.22 45.24 22.1 43.74 22.1 42.72C22.1 42.42 22.16 42.06 22.28 41.7C22.4 41.34 22.52 41.04 22.76 40.92C25.22 39.6 27.62 39.18 29.9 39.54C32.06 39.9 33.26 40.02 33.44 40.02C34.4 40.08 35.12 40.38 35.48 40.92C35.84 41.46 36.08 42.24 36.14 43.2V47.52ZM36.92 53.34L36.74 54.42C36.62 54.9 36.56 55.38 36.56 55.74C36.5 56.16 36.5 56.58 36.56 56.94C36.56 58.98 36.8 60.18 37.28 60.66C37.7 61.14 38.78 61.38 40.58 61.32C45.26 61.32 49.16 61.2 52.28 61.02C53.96 60.96 55.04 60.72 55.64 60.24C56.24 59.76 56.66 58.8 57.02 57.24C57.32 55.68 57.08 54.42 56.3 53.34C55.46 52.32 54.32 51.84 52.76 51.96C51.8 52.02 46.52 52.5 36.92 53.34Z" fill="white"/>
<rect x="90.5" y="0.5" width="90" height="120" fill="#FF961E"/>
<rect x="90.5" y="0.5" width="90" height="120" stroke="black"/>
<path d="M147.14 37.62C149.42 37.5 150.68 37.44 150.8 37.44C152.12 37.5 153.38 37.62 154.7 37.8C156.02 37.98 157.16 38.1 158.18 38.16C159.32 38.28 159.92 38.94 159.98 40.08C159.98 41.52 160.1 43.74 160.28 46.68C160.46 49.68 160.58 51.9 160.64 53.4C160.7 54.54 160.7 56.58 160.7 59.46C160.7 62.4 160.7 64.44 160.7 65.52C160.7 67.14 160.7 70.44 160.7 75.48C160.7 80.52 160.7 83.88 160.7 85.5V85.62C160.7 86.46 160.58 87.3 160.34 88.02C159.8 89.52 158.84 90.24 157.46 90.18C156.8 90.18 156.02 90.24 155.18 90.24C154.34 90.24 153.62 90.24 153.02 90.12C152.54 90.12 152 89.94 151.52 89.64C150.98 89.4 150.62 89.04 150.5 88.68C149.3 85.8 148.7 83.58 148.64 82.02C148.46 78.54 148.34 72.6 148.28 64.32C148.22 56.04 148.16 50.4 148.04 47.34C148.04 46.38 147.98 45.42 147.86 44.34C147.74 43.26 147.62 42.06 147.5 40.68L147.14 37.62ZM124.7 87.96C119.48 87.9 115.16 86.1 111.68 82.5C110.48 81.3 109.64 79.26 109.28 76.38C108.68 72.42 108.38 68.88 108.44 65.82C108.44 60.54 109.58 55.44 111.86 50.52C112.04 50.1 112.22 49.8 112.4 49.62C115.52 46.5 117.5 44.58 118.34 43.86C118.52 43.68 118.76 43.56 119.06 43.44C119.3 43.38 119.66 43.32 120.14 43.26C120.56 43.2 120.86 43.14 121.04 43.14C123.74 42.54 126.32 42.72 128.72 43.68C131.12 44.64 133.64 46.2 136.16 48.24C137.18 49.2 138.02 50.04 138.62 50.82C139.22 51.6 139.64 52.5 139.88 53.52C140.36 56.1 140.54 58.26 140.36 59.94C140 64.02 139.34 68.46 138.5 73.32C137.48 79.02 134.84 83.22 130.52 85.86C127.88 87.54 125.9 88.2 124.7 87.96ZM131.24 62.94C131.18 62.82 131.12 62.46 131.06 61.98C130.94 61.5 130.88 61.14 130.82 60.9C130.76 60.72 130.7 60.42 130.58 60.06C130.46 59.7 130.34 59.4 130.16 59.1C129.98 58.86 129.8 58.56 129.56 58.32C128.12 56.82 126.56 56.22 124.88 56.52C123.14 56.88 121.94 58.02 121.22 60C120.32 62.28 120.08 64.32 120.44 66.12C120.56 66.84 120.68 67.98 120.86 69.48C121.04 71.04 121.22 72.18 121.4 72.96C121.58 73.86 122.12 74.64 123.08 75.3C123.98 75.96 124.88 76.26 125.84 76.26C126.5 76.26 127.16 76.02 127.88 75.48C128.54 75 128.96 74.34 129.14 73.5C129.26 72.84 129.98 69.3 131.24 62.94Z" fill="white"/>
<rect x="180.5" y="0.5" width="90" height="120" fill="#FF961E"/>
<rect x="180.5" y="0.5" width="90" height="120" stroke="black"/>
<path d="M237.722 35.876C240.116 35.75 241.439 35.687 241.565 35.687C242.951 35.75 244.274 35.876 245.66 36.065C247.046 36.254 248.243 36.38 249.314 36.443C250.511 36.569 251.141 37.262 251.204 38.459C251.204 39.971 251.33 42.302 251.519 45.389C251.708 48.539 251.834 50.87 251.897 52.445C251.96 53.642 251.96 55.784 251.96 58.808C251.96 61.895 251.96 64.037 251.96 65.171C251.96 66.872 251.96 70.337 251.96 75.629C251.96 80.921 251.96 84.449 251.96 86.15V86.276C251.96 87.158 251.834 88.04 251.582 88.796C251.015 90.371 250.007 91.127 248.558 91.064C247.865 91.064 247.046 91.127 246.164 91.127C245.282 91.127 244.526 91.127 243.896 91.001C243.392 91.001 242.825 90.812 242.321 90.497C241.754 90.245 241.376 89.867 241.25 89.489C239.99 86.465 239.36 84.134 239.297 82.496C239.108 78.842 238.982 72.605 238.919 63.911C238.856 55.217 238.793 49.295 238.667 46.082C238.667 45.074 238.604 44.066 238.478 42.932C238.352 41.798 238.226 40.538 238.1 39.089L237.722 35.876ZM203.513 42.302C209.561 42.743 212.9 42.995 213.53 42.995C216.302 43.247 218.444 43.436 219.956 43.562C220.775 43.688 221.531 44.192 222.161 45.074C222.791 45.956 223.106 46.901 222.98 47.846C222.854 48.917 222.413 50.933 221.531 53.957C221.279 54.587 220.964 55.469 220.586 56.729C220.145 57.989 219.83 58.997 219.704 59.627C219.389 60.635 219.326 61.391 219.578 62.021C219.704 62.525 220.208 62.903 221.09 63.092C222.224 63.407 224.744 63.974 228.524 64.793C229.721 65.045 230.099 65.801 229.721 67.061C229.595 67.439 229.28 68.51 228.839 70.148C228.335 71.786 227.957 73.046 227.642 73.865C226.697 76.133 225.311 77.141 223.421 77.015C223.169 77.015 223.043 77.078 222.98 77.078C222.476 77.33 221.972 77.456 221.531 77.456C221.027 77.456 220.649 77.456 220.397 77.393C220.082 77.33 219.704 77.141 219.263 76.763C218.759 76.385 218.507 76.133 218.381 76.007C218.255 75.881 217.94 75.503 217.436 74.936C216.176 73.676 215.483 72.92 215.294 72.668C214.79 72.29 214.286 72.101 213.782 72.101C213.215 72.101 212.711 72.353 212.27 72.794C211.325 73.739 210.506 74.747 209.813 75.818C209.561 76.133 208.553 77.834 206.726 80.921C206.033 82.055 205.025 82.748 203.639 83.126C202.253 83.504 200.867 83.504 199.481 83.063C198.095 82.685 197.15 81.929 196.583 80.858C195.701 79.346 195.386 77.267 195.638 74.621C195.701 73.865 196.205 73.109 197.087 72.479C198.095 71.723 199.544 70.715 201.497 69.392C203.387 68.069 204.836 67.061 205.718 66.368C207.104 65.36 208.238 64.352 209.12 63.344C210.002 62.336 210.569 61.076 210.947 59.627C211.199 58.493 211.01 57.611 210.443 56.918C209.813 56.288 208.931 55.973 207.734 56.036C203.954 56.351 200.93 55.532 198.788 53.642C198.032 53.012 197.591 52.193 197.591 51.248C197.465 50.366 197.528 48.413 197.78 45.452C197.78 45.263 197.843 45.011 198.095 44.759C198.284 44.507 198.41 44.255 198.473 44.066C198.536 43.877 198.473 43.562 198.284 43.184L198.725 42.869C198.914 42.743 199.103 42.68 199.229 42.617C199.355 42.554 199.544 42.491 199.67 42.491C199.922 42.491 201.245 42.428 203.513 42.428V42.302Z" fill="white"/>
<rect x="270.5" y="30.5" width="90" height="120" fill="#FF961E"/>
<rect x="270.5" y="30.5" width="90" height="120" stroke="black"/>
<path d="M306.869 99.014C302.144 99.14 297.86 98.132 293.954 95.864C291.56 94.541 289.922 92.336 289.166 89.186C288.158 85.406 288.032 82.382 288.788 79.988C289.166 78.728 289.796 77.531 290.615 76.397C292.19 74.255 293.576 72.617 294.773 71.483C296.537 69.845 298.868 69.215 301.64 69.53C305.231 70.034 309.074 71.483 313.106 73.877C315.374 75.263 316.76 77.279 317.264 80.051C317.957 84.461 318.02 88.052 317.39 90.761C316.76 93.47 315.563 95.549 313.736 97.061C311.909 98.573 309.641 99.266 306.869 99.014ZM300.002 85.532C300.758 88.052 301.262 89.501 301.451 89.753C301.577 90.005 301.766 90.32 302.081 90.572C302.396 90.824 302.648 90.95 302.9 90.887C304.286 90.761 305.483 90.446 306.428 89.816C307.31 89.186 307.94 88.367 308.192 87.296C308.444 86.225 308.192 84.965 307.436 83.453C306.302 81.185 304.538 80.429 302.144 81.122C300.758 81.563 300.065 83.012 300.002 85.532ZM338.18 87.8V95.927C338.18 96.62 338.054 97.88 337.928 99.644C337.802 100.652 337.172 101.219 336.164 101.219C333.896 101.282 332.006 101.282 330.368 101.156C329.423 101.156 328.604 100.778 327.974 100.148C327.344 99.518 326.966 98.762 326.966 97.88C326.903 94.226 326.903 89.69 326.966 84.272C326.966 83.957 326.966 81.5 327.092 76.901C327.155 72.365 327.218 69.53 327.281 68.522C327.281 67.262 327.722 66.443 328.604 65.939C328.793 65.813 329.171 65.624 329.738 65.309C330.305 65.057 330.746 64.805 331.061 64.679C331.313 64.553 331.691 64.427 332.195 64.238C332.699 64.049 333.14 63.923 333.581 63.86C334.022 63.797 334.463 63.797 334.967 63.797C335.723 63.86 336.29 63.923 336.668 64.049C337.55 64.427 337.991 65.057 337.991 66.002C337.991 66.821 337.991 68.9 338.117 72.302C338.243 75.704 338.306 77.72 338.432 78.35C338.495 78.854 338.873 79.169 339.629 79.232C342.653 79.484 344.354 79.61 344.732 79.673C345.614 79.925 346.181 80.618 346.307 81.878C346.496 83.768 346.181 85.469 345.299 86.918C345.047 87.359 344.291 87.674 343.157 87.8H338.18ZM312.287 110.984C320.855 110.48 325.706 110.228 326.777 110.102C327.848 110.039 329.108 109.913 330.62 109.787C332.132 109.661 333.392 109.535 334.4 109.409C335.408 109.283 336.29 109.22 336.92 109.22C337.739 109.22 338.369 110.291 338.747 112.307C338.81 112.748 338.873 113.63 338.873 114.89C338.873 116.339 338.495 117.788 337.739 119.3C337.487 119.741 336.92 120.056 336.038 120.182C335.156 120.308 332.195 120.497 327.155 120.749C322.115 121.001 319.154 121.19 318.209 121.316C317.957 121.379 317.768 121.379 317.516 121.379C316.445 121.379 314.177 121.442 310.712 121.505C307.247 121.568 304.727 121.631 303.152 121.694C302.774 121.694 302.081 121.757 301.199 121.82C300.317 121.883 299.624 121.883 299.183 121.883C297.734 121.883 296.537 121.631 295.655 121.064C295.34 120.938 295.088 120.623 294.836 120.245C294.584 119.867 294.521 119.552 294.521 119.174C294.332 117.347 294.206 114.764 294.08 111.362C293.954 107.96 293.828 105.629 293.765 104.306L293.702 103.424C293.702 102.794 293.702 102.227 293.702 101.597L293.639 100.715C293.765 100.715 294.08 100.652 294.647 100.526C295.214 100.4 295.592 100.274 295.781 100.211C296.222 100.148 297.23 100.085 298.805 100.085C300.632 100.085 301.766 100.211 302.27 100.337C302.774 100.526 303.026 100.841 303.026 101.282C303.026 101.471 303.089 101.912 303.215 102.542C303.341 103.172 303.467 103.613 303.467 103.802C303.467 104.495 303.593 105.755 303.971 107.645C303.971 107.897 304.034 108.464 304.16 109.283C304.223 110.102 304.349 110.795 304.538 111.425L312.287 110.984Z" fill="white"/>
</svg>
