<svg width="91" height="121" viewBox="0 0 91 121" fill="none" xmlns="http://www.w3.org/2000/svg">
<rect x="0.5" y="0.5" width="90" height="120" fill="#FF961E"/>
<rect x="0.5" y="0.5" width="90" height="120" stroke="black"/>
<path d="M63.329 63.155C62.762 63.092 62.195 63.029 61.691 62.966C61.313 62.966 60.683 62.903 59.927 62.84C59.171 62.84 58.604 62.777 58.352 62.777C57.596 62.777 57.092 62.714 56.777 62.588C56.462 62.525 56.21 62.399 56.021 62.273C55.769 62.147 55.643 61.958 55.517 61.706C55.391 61.517 55.265 61.265 55.265 60.95C55.139 60.761 55.076 60.383 55.013 59.879C54.887 59.501 54.824 59.123 54.824 58.808C54.698 58.304 54.635 57.926 54.635 57.674C54.572 57.233 54.572 56.855 54.698 56.54C54.824 56.225 55.013 55.973 55.328 55.721C55.58 55.595 55.895 55.406 56.336 55.28C56.714 55.154 57.281 55.091 58.037 55.028C58.415 55.028 58.982 54.965 59.738 54.902C60.494 54.839 61.124 54.776 61.502 54.713C61.88 54.713 62.195 54.713 62.384 54.65C62.762 54.65 63.014 54.587 63.203 54.461C63.266 54.461 63.329 54.398 63.455 54.272C63.455 54.209 63.518 54.146 63.644 54.02C63.644 53.957 63.644 53.894 63.644 53.768C63.644 53.642 63.707 53.138 63.707 52.193V51.374V50.555V48.917C63.581 48.98 63.518 48.98 63.455 48.98H63.203C63.077 49.043 63.014 49.043 62.951 49.043C62.195 49.169 61.628 49.232 61.313 49.232C59.297 49.358 58.163 49.484 57.911 49.484C57.785 49.484 57.659 49.547 57.47 49.547C57.281 49.61 57.155 49.61 57.092 49.61C56.714 49.673 56.399 49.673 56.273 49.61C56.147 49.61 56.021 49.61 55.895 49.547C55.769 49.484 55.643 49.358 55.58 49.232C55.454 49.169 55.391 49.043 55.328 48.917C55.076 48.539 54.887 47.846 54.761 46.964C54.635 46.208 54.572 45.578 54.635 44.948C54.635 44.633 54.635 44.318 54.761 43.94C54.824 43.562 54.95 43.184 55.076 42.932C55.076 42.806 55.139 42.743 55.265 42.617C55.328 42.554 55.454 42.491 55.58 42.365C55.643 42.365 55.769 42.302 55.895 42.239C56.147 42.176 56.777 42.113 57.848 41.987C58.226 41.987 58.856 41.987 59.738 41.924C60.62 41.924 61.187 41.861 61.502 41.861C62.132 41.861 62.825 41.798 63.455 41.672C63.455 41.357 63.455 40.979 63.518 40.475C63.518 39.908 63.518 39.467 63.581 39.152C63.581 38.711 63.644 38.27 63.77 37.892C63.833 37.514 63.959 37.073 64.148 36.632C64.274 36.317 64.4 35.939 64.652 35.498C64.841 35.057 65.03 34.679 65.219 34.427C65.345 34.301 65.471 34.175 65.597 34.049C65.723 33.923 65.912 33.86 66.101 33.797C66.353 33.734 66.731 33.734 67.172 33.797C67.487 33.923 67.865 33.986 68.306 33.986C68.432 33.986 68.558 34.049 68.684 34.049C68.747 34.049 68.81 34.112 68.936 34.112C68.999 34.112 69.062 34.175 69.125 34.175C69.188 34.175 69.314 34.238 69.503 34.238C70.007 34.364 70.448 34.49 70.7 34.616C70.952 34.868 71.204 35.12 71.393 35.435C71.519 35.75 71.645 36.128 71.708 36.632C71.708 36.947 71.708 37.451 71.708 38.081C71.708 38.774 71.771 39.278 71.834 39.656C71.834 40.349 71.897 41.357 71.96 42.68C71.96 43.814 72.023 44.822 72.086 45.704C72.086 46.208 72.149 46.775 72.275 47.279C72.338 48.161 72.401 48.728 72.401 48.854C72.401 49.421 72.464 49.925 72.464 50.429C72.464 51.059 72.401 51.752 72.338 52.634C72.212 53.264 72.149 54.02 72.086 54.776C71.96 55.847 71.834 56.603 71.834 56.981C71.771 57.359 71.708 57.8 71.708 58.304C71.645 58.997 71.645 59.438 71.645 59.627C71.582 60.131 71.519 60.572 71.456 60.95C71.393 61.328 71.33 61.643 71.267 62.021C71.141 62.273 71.078 62.651 71.015 63.092C70.889 63.596 70.763 63.911 70.637 64.1C70.448 64.604 70.196 64.919 69.944 65.171C69.692 65.423 69.314 65.612 68.873 65.738C68.747 65.801 68.369 65.927 67.739 66.179C67.361 66.305 67.046 66.431 66.794 66.494C66.542 66.62 66.29 66.683 65.912 66.683C65.408 66.809 65.093 66.872 64.967 66.872C64.715 66.935 64.463 66.935 64.274 66.872C64.022 66.809 63.896 66.683 63.77 66.494C63.644 66.368 63.581 66.116 63.518 65.801C63.518 65.675 63.455 65.36 63.455 64.919C63.455 64.73 63.392 64.415 63.392 64.037L63.329 63.155ZM36.869 67.124C32.144 67.25 27.86 66.242 23.954 64.037C21.56 62.651 19.922 60.446 19.166 57.296C18.158 53.579 18.032 50.555 18.788 48.161C19.166 46.901 19.796 45.704 20.615 44.57C22.19 42.428 23.576 40.79 24.773 39.656C26.537 38.018 28.868 37.388 31.64 37.703C35.231 38.207 39.074 39.656 43.106 42.05C45.374 43.436 46.76 45.452 47.264 48.224C47.957 52.634 48.02 56.162 47.39 58.934C46.76 61.58 45.563 63.659 43.736 65.171C41.909 66.683 39.641 67.376 36.869 67.124ZM30.002 53.705C30.758 56.225 31.262 57.611 31.451 57.926C31.577 58.178 31.766 58.43 32.081 58.682C32.396 58.934 32.648 59.06 32.9 59.06C34.286 58.934 35.483 58.619 36.428 57.989C37.31 57.359 37.94 56.54 38.192 55.469C38.444 54.398 38.192 53.075 37.436 51.563C36.302 49.358 34.538 48.602 32.144 49.295C30.758 49.673 30.065 51.185 30.002 53.705ZM52.871 85.205C53.879 85.205 54.761 84.827 55.517 83.945C56.273 83.126 56.651 82.118 56.651 80.858C56.651 79.094 55.643 78.023 53.753 77.582C51.674 77.204 47.579 76.952 41.468 76.952H41.405C40.775 76.952 40.271 77.078 39.83 77.267C39.389 77.519 39.011 77.834 38.759 78.275C38.507 78.716 38.318 79.094 38.192 79.409C38.066 79.787 37.94 80.228 37.814 80.858C37.688 81.173 37.688 81.425 37.688 81.677C37.688 82.37 37.877 82.937 38.381 83.315C38.885 83.756 39.452 84.008 40.208 84.134C40.901 84.323 41.846 84.449 43.106 84.575C44.303 84.701 45.374 84.827 46.319 84.827C47.201 84.89 48.398 84.953 49.847 85.016C51.296 85.142 52.241 85.205 52.682 85.205H52.871ZM43.61 70.526C46.004 70.526 48.902 70.778 52.178 71.156C55.454 71.534 58.226 72.038 60.494 72.668C64.337 73.802 66.479 75.818 66.92 78.716C67.046 79.472 67.109 80.165 67.109 80.795C67.109 83.63 65.975 85.898 63.77 87.536C62.258 88.67 60.998 89.615 59.99 90.245C58.982 90.875 57.785 91.505 56.273 92.072C54.761 92.702 53.249 93.017 51.737 93.017C51.107 93.017 49.595 93.143 47.138 93.269C44.681 93.395 43.043 93.458 42.224 93.458C41.027 93.458 39.956 93.395 39.074 93.206C38.822 93.206 38.57 93.206 38.192 93.08C36.428 92.828 35.042 92.576 34.16 92.387C33.215 92.198 32.081 91.82 30.758 91.19C29.435 90.623 28.301 89.867 27.419 88.922C25.718 87.284 24.899 85.772 24.899 84.323C24.899 81.425 25.277 79.22 26.159 77.771C28.49 73.865 33.341 71.471 40.649 70.715C41.594 70.589 42.602 70.526 43.61 70.526Z" fill="white"/>
</svg>
