<svg width="271" height="121" viewBox="0 0 271 121" fill="none" xmlns="http://www.w3.org/2000/svg">
<rect x="0.5" y="0.5" width="90" height="120" fill="#FF961E"/>
<rect x="0.5" y="0.5" width="90" height="120" stroke="black"/>
<path d="M61.1 89.22C59.18 89.22 57.86 88.92 57.14 88.2C56.42 87.48 56.06 86.16 55.94 84.18C55.64 78.6 55.52 74.76 55.52 72.66C55.52 69.72 55.7 60.42 56.12 44.82C56.12 44.4 56.18 43.92 56.3 43.44C56.36 42.96 56.42 42.54 56.54 42.18C56.6 41.82 56.72 41.4 56.9 40.8C57.02 40.2 57.14 39.78 57.26 39.42C57.38 38.94 57.62 38.58 58.04 38.46C58.16 38.46 58.58 38.34 59.24 38.16C59.9 37.98 60.38 37.86 60.62 37.8C60.86 37.74 61.22 37.68 61.82 37.56C62.36 37.44 62.78 37.44 63.14 37.44C63.5 37.44 63.92 37.5 64.4 37.62C64.88 37.74 65.3 37.86 65.78 38.04C66.92 38.64 67.58 39.72 67.7 41.28C67.7 42 67.76 44.4 67.82 48.54C67.82 52.68 67.94 55.26 68.06 56.28C68.18 57 68.6 57.78 69.32 58.56C69.68 58.98 70.04 59.4 70.46 59.82C70.88 60.3 71.36 60.78 71.9 61.26C72.38 61.8 72.8 62.22 73.16 62.46C73.64 62.94 73.94 63.48 74.18 64.02C74.42 64.62 74.48 65.28 74.42 66C74.36 66.72 74.3 67.26 74.24 67.62C74.12 67.98 74 68.64 73.76 69.48C73.4 70.92 72.14 71.7 69.98 71.7C68.84 71.7 68.12 71.88 67.88 72.18C67.58 72.54 67.46 73.32 67.52 74.64C67.52 75.54 67.52 77.16 67.58 79.44C67.64 81.72 67.7 83.28 67.7 84.06C67.7 85.68 67.28 86.76 66.32 87.3C63.92 88.62 62.18 89.28 61.1 89.22ZM19.04 46.86C19.46 46.14 20.12 45.66 20.96 45.48C25.88 44.58 29.66 43.92 32.3 43.56C36.26 43.02 39.92 42.96 43.34 43.44C43.4 43.44 43.58 43.5 43.94 43.5C44.24 43.56 44.48 43.62 44.6 43.62C44.72 43.62 44.96 43.68 45.2 43.74C45.44 43.8 45.62 43.86 45.8 43.98C45.98 44.1 46.16 44.28 46.34 44.4C46.64 44.7 46.94 45.3 47.3 46.2C48.8 50.52 49.46 55.32 49.22 60.72C49.1 62.7 48.8 65.58 48.32 69.42C48.2 70.26 48.08 72.06 47.9 74.94C47.72 77.82 47.42 79.98 47.06 81.48C46.64 83.16 46.1 84.24 45.5 84.84C45.02 85.32 43.58 85.68 41.3 85.8C39.02 85.98 36.92 85.98 35.12 85.86C34.16 85.86 33.68 85.56 33.56 84.96C33.44 84.72 33.44 84.48 33.56 84.12C33.62 83.76 33.74 83.4 33.86 82.98C33.98 82.62 34.04 82.32 34.04 82.14C34.22 81.06 34.4 79.98 34.52 78.84C34.76 76.86 34.88 74.7 35 72.36C35.06 69.48 35 65.22 34.82 59.52C34.76 58.68 34.64 58.08 34.46 57.72C33.92 56.76 32.66 56.52 30.74 56.94C28.52 57.48 24.56 57.66 18.86 57.42C18.56 57.42 18.38 57.36 18.26 57.24C18.08 57.12 18.02 56.76 18.08 56.28C18.44 50.52 18.74 47.34 19.04 46.86Z" fill="white"/>
<rect x="90.5" y="0.5" width="90" height="120" fill="#FF961E"/>
<rect x="90.5" y="0.5" width="90" height="120" stroke="black"/>
<path d="M147.14 37.62C149.42 37.5 150.68 37.44 150.8 37.44C152.12 37.5 153.38 37.62 154.7 37.8C156.02 37.98 157.16 38.1 158.18 38.16C159.32 38.28 159.92 38.94 159.98 40.08C159.98 41.52 160.1 43.74 160.28 46.68C160.46 49.68 160.58 51.9 160.64 53.4C160.7 54.54 160.7 56.58 160.7 59.46C160.7 62.4 160.7 64.44 160.7 65.52C160.7 67.14 160.7 70.44 160.7 75.48C160.7 80.52 160.7 83.88 160.7 85.5V85.62C160.7 86.46 160.58 87.3 160.34 88.02C159.8 89.52 158.84 90.24 157.46 90.18C156.8 90.18 156.02 90.24 155.18 90.24C154.34 90.24 153.62 90.24 153.02 90.12C152.54 90.12 152 89.94 151.52 89.64C150.98 89.4 150.62 89.04 150.5 88.68C149.3 85.8 148.7 83.58 148.64 82.02C148.46 78.54 148.34 72.6 148.28 64.32C148.22 56.04 148.16 50.4 148.04 47.34C148.04 46.38 147.98 45.42 147.86 44.34C147.74 43.26 147.62 42.06 147.5 40.68L147.14 37.62ZM124.7 87.96C119.48 87.9 115.16 86.1 111.68 82.5C110.48 81.3 109.64 79.26 109.28 76.38C108.68 72.42 108.38 68.88 108.44 65.82C108.44 60.54 109.58 55.44 111.86 50.52C112.04 50.1 112.22 49.8 112.4 49.62C115.52 46.5 117.5 44.58 118.34 43.86C118.52 43.68 118.76 43.56 119.06 43.44C119.3 43.38 119.66 43.32 120.14 43.26C120.56 43.2 120.86 43.14 121.04 43.14C123.74 42.54 126.32 42.72 128.72 43.68C131.12 44.64 133.64 46.2 136.16 48.24C137.18 49.2 138.02 50.04 138.62 50.82C139.22 51.6 139.64 52.5 139.88 53.52C140.36 56.1 140.54 58.26 140.36 59.94C140 64.02 139.34 68.46 138.5 73.32C137.48 79.02 134.84 83.22 130.52 85.86C127.88 87.54 125.9 88.2 124.7 87.96ZM131.24 62.94C131.18 62.82 131.12 62.46 131.06 61.98C130.94 61.5 130.88 61.14 130.82 60.9C130.76 60.72 130.7 60.42 130.58 60.06C130.46 59.7 130.34 59.4 130.16 59.1C129.98 58.86 129.8 58.56 129.56 58.32C128.12 56.82 126.56 56.22 124.88 56.52C123.14 56.88 121.94 58.02 121.22 60C120.32 62.28 120.08 64.32 120.44 66.12C120.56 66.84 120.68 67.98 120.86 69.48C121.04 71.04 121.22 72.18 121.4 72.96C121.58 73.86 122.12 74.64 123.08 75.3C123.98 75.96 124.88 76.26 125.84 76.26C126.5 76.26 127.16 76.02 127.88 75.48C128.54 75 128.96 74.34 129.14 73.5C129.26 72.84 129.98 69.3 131.24 62.94Z" fill="white"/>
<rect x="180.5" y="0.5" width="90" height="120" fill="#FF961E"/>
<rect x="180.5" y="0.5" width="90" height="120" stroke="black"/>
<path d="M241.1 89.22C239.18 89.22 237.86 88.92 237.14 88.2C236.42 87.48 236.06 86.16 235.94 84.18C235.64 78.6 235.52 74.76 235.52 72.66C235.52 69.72 235.7 60.42 236.12 44.82C236.12 44.4 236.18 43.92 236.3 43.44C236.36 42.96 236.42 42.54 236.54 42.18C236.6 41.82 236.72 41.4 236.9 40.8C237.02 40.2 237.14 39.78 237.26 39.42C237.38 38.94 237.62 38.58 238.04 38.46C238.16 38.46 238.58 38.34 239.24 38.16C239.9 37.98 240.38 37.86 240.62 37.8C240.86 37.74 241.22 37.68 241.82 37.56C242.36 37.44 242.78 37.44 243.14 37.44C243.5 37.44 243.92 37.5 244.4 37.62C244.88 37.74 245.3 37.86 245.78 38.04C246.92 38.64 247.58 39.72 247.7 41.28C247.7 42 247.76 44.4 247.82 48.54C247.82 52.68 247.94 55.26 248.06 56.28C248.18 57 248.6 57.78 249.32 58.56C249.68 58.98 250.04 59.4 250.46 59.82C250.88 60.3 251.36 60.78 251.9 61.26C252.38 61.8 252.8 62.22 253.16 62.46C253.64 62.94 253.94 63.48 254.18 64.02C254.42 64.62 254.48 65.28 254.42 66C254.36 66.72 254.3 67.26 254.24 67.62C254.12 67.98 254 68.64 253.76 69.48C253.4 70.92 252.14 71.7 249.98 71.7C248.84 71.7 248.12 71.88 247.88 72.18C247.58 72.54 247.46 73.32 247.52 74.64C247.52 75.54 247.52 77.16 247.58 79.44C247.64 81.72 247.7 83.28 247.7 84.06C247.7 85.68 247.28 86.76 246.32 87.3C243.92 88.62 242.18 89.28 241.1 89.22ZM199.04 46.86C199.46 46.14 200.12 45.66 200.96 45.48C205.88 44.58 209.66 43.92 212.3 43.56C216.26 43.02 219.92 42.96 223.34 43.44C223.4 43.44 223.58 43.5 223.94 43.5C224.24 43.56 224.48 43.62 224.6 43.62C224.72 43.62 224.96 43.68 225.2 43.74C225.44 43.8 225.62 43.86 225.8 43.98C225.98 44.1 226.16 44.28 226.34 44.4C226.64 44.7 226.94 45.3 227.3 46.2C228.8 50.52 229.46 55.32 229.22 60.72C229.1 62.7 228.8 65.58 228.32 69.42C228.2 70.26 228.08 72.06 227.9 74.94C227.72 77.82 227.42 79.98 227.06 81.48C226.64 83.16 226.1 84.24 225.5 84.84C225.02 85.32 223.58 85.68 221.3 85.8C219.02 85.98 216.92 85.98 215.12 85.86C214.16 85.86 213.68 85.56 213.56 84.96C213.44 84.72 213.44 84.48 213.56 84.12C213.62 83.76 213.74 83.4 213.86 82.98C213.98 82.62 214.04 82.32 214.04 82.14C214.22 81.06 214.4 79.98 214.52 78.84C214.76 76.86 214.88 74.7 215 72.36C215.06 69.48 215 65.22 214.82 59.52C214.76 58.68 214.64 58.08 214.46 57.72C213.92 56.76 212.66 56.52 210.74 56.94C208.52 57.48 204.56 57.66 198.86 57.42C198.56 57.42 198.38 57.36 198.26 57.24C198.08 57.12 198.02 56.76 198.08 56.28C198.44 50.52 198.74 47.34 199.04 46.86Z" fill="white"/>
</svg>
