<svg width="271" height="151" viewBox="0 0 271 151" fill="none" xmlns="http://www.w3.org/2000/svg">
<rect x="0.5" y="0.5" width="90" height="120" fill="#FF961E"/>
<rect x="0.5" y="0.5" width="90" height="120" stroke="black"/>
<path d="M41.846 60.95C41.405 56.792 42.224 54.461 44.303 53.957C46.193 53.579 47.327 53.327 47.642 53.327C48.65 53.264 49.406 53.264 49.973 53.327C50.54 53.453 50.918 53.705 51.17 54.083C51.422 54.461 51.611 55.217 51.8 56.351C51.8 56.477 51.863 56.918 51.863 57.737C51.863 58.619 51.863 59.375 51.926 60.131C51.926 60.887 51.989 61.265 52.052 61.265C53.123 61.265 55.643 61.391 59.549 61.517C63.455 61.643 65.912 61.706 66.983 61.706L72.338 61.202C72.464 61.265 72.59 61.391 72.842 61.517C73.094 61.643 73.346 61.958 73.724 62.399C74.039 62.84 74.165 63.281 74.102 63.785C74.039 64.037 73.787 65.738 73.283 68.762C72.653 68.825 72.338 68.825 72.338 68.825C72.086 68.825 64.715 68.762 50.225 68.573C49.406 68.573 47.264 68.636 43.736 68.762C40.208 68.888 38.129 68.888 37.625 68.888C36.617 68.951 34.034 68.951 29.939 68.825C25.781 68.762 23.261 68.699 22.316 68.636C22.064 68.636 21.434 68.699 20.489 68.762C19.481 68.888 18.914 68.888 18.662 68.888C18.284 68.888 17.969 68.888 17.717 68.825C17.465 68.762 17.276 68.636 17.15 68.384C17.024 68.195 16.961 68.006 16.961 67.88C16.961 67.754 16.898 67.439 16.898 66.935C16.898 66.494 16.898 66.116 16.898 65.864C16.772 65.108 16.772 64.037 16.898 62.588C16.898 61.832 17.276 61.454 18.032 61.454C19.04 61.454 22.127 61.454 27.293 61.517C32.396 61.643 35.546 61.643 36.806 61.58C37.31 61.58 38.948 61.391 41.846 60.95ZM24.584 37.766C24.899 37.766 25.34 37.64 25.907 37.514C26.474 37.388 26.978 37.262 27.419 37.199C27.797 37.136 28.238 37.073 28.679 37.01C35.987 36.758 41.72 36.632 45.752 36.632C50.288 36.632 55.202 36.821 60.431 37.073H61.502C62.258 37.073 62.762 37.136 63.14 37.199C63.455 37.262 63.896 37.325 64.526 37.451C65.093 37.577 65.534 37.829 65.849 38.081C66.164 38.333 66.416 38.711 66.542 39.089C66.542 39.278 66.605 39.467 66.731 39.719C66.857 40.412 66.983 40.916 67.046 41.294L67.172 42.68C67.298 42.806 67.361 44.57 67.298 47.972C67.235 51.437 67.235 53.201 67.235 53.264C67.235 54.524 66.983 55.469 66.479 56.036C65.912 56.666 65.03 56.981 63.833 56.981C63.455 56.981 62.888 56.981 62.195 56.918C61.439 56.855 60.935 56.792 60.62 56.792C58.793 56.855 57.848 54.524 57.785 49.736C57.785 48.224 57.533 47.342 57.155 46.964C56.777 46.649 55.832 46.46 54.446 46.334C54.194 46.334 54.068 46.334 53.942 46.271C50.288 46.082 48.02 45.956 47.201 45.956C40.901 45.83 34.979 45.83 29.309 45.893H27.545C27.167 45.893 26.789 45.893 26.411 45.767C26.033 45.641 25.781 45.578 25.655 45.578C25.529 45.578 25.403 45.389 25.277 45.074C25.151 44.759 25.088 44.507 25.088 44.381C25.088 44.255 25.025 43.877 25.025 43.247C24.962 42.68 24.899 42.176 24.899 41.798C24.647 39.152 24.584 37.829 24.584 37.766ZM28.805 78.023C28.679 78.023 28.364 78.086 27.86 78.086C27.356 78.149 26.978 78.149 26.789 78.149C26.537 78.149 26.285 78.149 25.907 78.086C25.529 78.023 25.214 77.897 25.088 77.771C24.899 77.645 24.71 77.393 24.521 77.141C24.332 76.889 24.206 76.511 24.206 76.07C24.143 75.818 24.08 75.44 23.954 74.81C23.828 74.18 23.765 73.676 23.765 73.235C23.765 72.668 23.828 72.101 24.017 71.471C24.017 71.219 24.206 70.967 24.584 70.715C24.962 70.463 25.34 70.274 25.781 70.274C42.791 70.274 54.635 70.4 61.439 70.778C62.825 70.904 63.896 71.03 64.715 71.282C65.66 71.597 66.227 72.038 66.416 72.542C66.605 73.298 66.731 74.117 66.731 74.936C66.731 75.881 66.542 77.015 66.29 78.338C65.786 80.543 64.526 82.118 62.447 83C61.313 83.504 59.234 83.882 56.273 84.134C55.202 84.26 53.69 84.323 51.674 84.323C49.658 84.386 48.272 84.449 47.453 84.449C47.327 84.449 45.059 84.512 40.712 84.575C36.302 84.638 33.908 84.701 33.467 84.827L33.53 86.339C34.286 86.339 37.121 86.339 42.035 86.276C46.949 86.213 49.847 86.15 50.603 86.15C52.304 86.15 53.816 86.15 55.139 86.087C56.021 86.087 57.407 86.024 59.234 85.898C60.998 85.772 62.321 85.709 63.203 85.709H63.329C64.463 85.709 65.093 86.087 65.093 86.843V87.158C64.715 88.922 64.4 90.308 64.148 91.19C63.833 92.072 63.329 92.702 62.636 93.08C61.943 93.458 60.809 93.584 59.171 93.584H58.415C56.777 93.584 54.446 93.458 51.485 93.269C48.524 93.08 46.445 92.954 45.248 92.891C43.358 92.828 41.72 92.828 40.271 92.891C38.822 92.954 37.184 92.954 35.42 92.891C33.656 92.828 32.081 92.639 30.695 92.387C28.805 92.009 27.482 91.379 26.726 90.497C25.97 89.615 25.529 88.481 25.277 86.969C25.214 86.717 25.214 86.024 25.214 84.953C25.214 84.89 25.214 84.449 25.277 83.63C25.277 82.433 25.655 81.614 26.285 81.11C26.915 80.669 27.986 80.417 29.624 80.354C35.672 80.228 43.673 79.976 53.69 79.598C54.95 79.598 55.58 79.157 55.58 78.401L55.517 78.086C55.517 77.897 55.517 77.708 55.517 77.519V77.141C55.517 77.078 55.202 77.015 54.572 77.015C53.942 77.015 52.808 77.015 51.17 77.078C49.532 77.141 47.831 77.204 46.004 77.267C44.177 77.393 41.594 77.519 38.318 77.645C35.042 77.771 31.829 77.897 28.805 78.023Z" fill="white"/>
<rect x="90.5" y="0.5" width="90" height="120" fill="#FF961E"/>
<rect x="90.5" y="0.5" width="90" height="120" stroke="black"/>
<path d="M158.18 52.13V58.367C158.18 59.06 158.054 60.32 157.928 62.084C157.802 63.092 157.172 63.659 156.164 63.659C153.896 63.722 152.006 63.722 150.368 63.596C149.423 63.596 148.604 63.218 147.974 62.588C147.344 61.958 146.966 61.202 146.966 60.32C146.903 57.233 146.903 53.327 146.966 48.602C146.966 47.909 147.029 46.271 147.092 43.751C147.155 41.231 147.218 39.467 147.281 38.522C147.281 37.262 147.722 36.443 148.604 35.939C148.793 35.813 149.171 35.624 149.738 35.309C150.305 35.057 150.746 34.805 151.061 34.679C151.313 34.553 151.691 34.427 152.195 34.238C152.699 34.049 153.14 33.923 153.581 33.86C154.022 33.797 154.463 33.797 154.967 33.797C155.723 33.86 156.29 33.923 156.668 34.049C157.55 34.427 157.991 35.057 157.991 36.002C157.991 37.766 158.117 40.034 158.432 42.68C158.495 43.184 158.873 43.499 159.629 43.562C162.653 43.814 164.354 43.94 164.732 44.003C165.614 44.255 166.181 44.948 166.307 46.208C166.496 48.098 166.181 49.799 165.299 51.248C165.047 51.689 164.291 52.004 163.157 52.13H158.18ZM126.869 67.124C122.144 67.25 117.86 66.242 113.954 63.974C111.56 62.651 109.922 60.446 109.166 57.296C108.158 53.516 108.032 50.492 108.788 48.098C109.166 46.838 109.796 45.641 110.615 44.507C112.19 42.365 113.576 40.727 114.773 39.593C116.537 37.955 118.868 37.325 121.64 37.64C125.231 38.144 129.074 39.593 133.106 41.987C135.374 43.373 136.76 45.389 137.264 48.161C137.957 52.571 138.02 56.162 137.39 58.871C136.76 61.58 135.563 63.659 133.736 65.171C131.909 66.683 129.641 67.376 126.869 67.124ZM120.002 53.642C120.758 56.162 121.262 57.611 121.451 57.863C121.577 58.115 121.766 58.43 122.081 58.682C122.396 58.934 122.648 59.06 122.9 58.997C124.286 58.871 125.483 58.556 126.428 57.926C127.31 57.296 127.94 56.477 128.192 55.406C128.444 54.335 128.192 53.075 127.436 51.563C126.302 49.295 124.538 48.539 122.144 49.232C120.758 49.673 120.065 51.122 120.002 53.642ZM148.541 68.258C148.667 68.132 148.919 68.006 149.171 67.943C149.423 67.943 149.675 67.943 149.927 68.069C150.179 68.195 150.431 68.258 150.683 68.384C150.872 68.51 151.124 68.636 151.376 68.762C151.628 68.951 151.817 69.077 151.88 69.077C152.132 69.266 153.329 69.959 155.345 71.219C155.849 71.534 156.101 71.975 156.101 72.542C156.101 72.794 156.038 72.983 155.975 73.172C155.723 73.676 155.282 74.369 154.526 75.188C153.77 76.07 153.266 76.7 153.077 77.204C154.841 78.338 156.353 79.409 157.739 80.417C158.243 80.858 158.81 81.425 159.566 82.118C160.322 82.874 160.826 83.441 161.078 83.882C161.141 84.008 161.204 84.071 161.33 84.197C161.456 84.323 161.519 84.449 161.582 84.512C161.645 84.575 161.708 84.638 161.708 84.701C161.708 84.89 161.582 85.142 161.456 85.394C161.267 85.709 161.204 85.898 161.204 85.898C161.015 86.276 160.826 86.591 160.637 86.843C159.881 87.725 159.125 88.481 158.306 89.111C158.18 89.237 157.991 89.426 157.739 89.804C157.424 90.182 157.172 90.371 156.92 90.371C156.29 90.371 155.471 89.993 154.337 89.174C152.762 88.04 151.25 86.843 149.738 85.646C147.344 88.859 145.706 91.064 144.824 92.261C144.068 93.206 143.186 93.647 142.304 93.647C141.674 93.647 141.044 93.458 140.288 92.954C139.28 92.324 137.957 91.568 136.319 90.56C136.256 90.686 136.256 90.749 136.256 90.749C135.563 92.261 134.555 93.017 133.295 93.017C132.728 93.017 132.161 92.891 131.657 92.513C131.153 92.198 130.397 91.631 129.389 90.875C128.381 90.119 127.688 89.615 127.184 89.237C125.672 88.292 124.034 87.284 122.27 86.276C122.018 86.15 121.577 86.024 121.01 85.835C120.443 86.528 120.002 87.032 119.75 87.41C119.498 87.725 118.994 88.418 118.238 89.489C117.482 90.623 116.852 91.442 116.411 92.009C116.159 92.387 115.655 92.828 114.962 93.332C114.332 93.836 113.765 94.025 113.135 94.025C112.505 94.025 111.938 93.836 111.434 93.332C111.245 93.269 110.741 93.08 109.859 92.702C108.977 92.324 108.473 92.072 108.347 91.946C107.717 91.694 107.276 91.379 107.024 91.064C106.583 90.56 106.394 89.993 106.394 89.363C106.394 88.985 106.457 88.607 106.709 88.166C106.835 87.788 107.024 87.41 107.402 86.906C109.166 84.323 110.615 82.307 111.623 80.795C113.45 78.149 114.836 76.133 115.781 74.81C116.726 73.487 117.671 72.227 118.679 71.093C118.742 71.03 118.868 70.904 118.994 70.715C119.12 70.589 119.246 70.463 119.309 70.4C119.309 70.337 119.372 70.211 119.498 70.085C119.624 69.959 119.687 69.896 119.75 69.896C119.75 69.896 119.813 69.833 119.939 69.707C120.065 69.644 120.128 69.581 120.191 69.581C120.191 69.581 120.254 69.581 120.38 69.518C120.506 69.518 120.569 69.455 120.695 69.455H121.01C121.136 69.455 121.325 69.518 121.577 69.581C121.766 69.707 121.955 69.77 122.144 69.896C122.27 70.022 122.459 70.148 122.711 70.274C122.963 70.4 123.089 70.526 123.215 70.526C124.538 71.345 125.42 71.912 125.798 72.29C126.428 73.046 126.806 73.802 126.806 74.621C126.806 75.188 126.68 75.692 126.428 76.196C126.239 76.574 126.05 77.015 125.861 77.582C126.491 77.897 127.751 78.527 129.704 79.472C130.397 79.85 131.531 80.48 133.043 81.236C134.555 82.055 135.752 82.622 136.571 83C137.327 81.992 138.461 80.48 140.099 78.401C142.997 74.684 145.769 71.282 148.541 68.258Z" fill="white"/>
<rect x="180.5" y="30.5" width="90" height="120" fill="#FF961E"/>
<rect x="180.5" y="30.5" width="90" height="120" stroke="black"/>
<path d="M252.401 68.333C252.401 68.396 252.401 68.459 252.527 68.459C252.653 68.585 252.905 68.648 253.283 68.774C253.661 68.9 253.976 68.963 254.228 69.089C254.48 69.215 254.606 69.341 254.669 69.467C254.984 70.664 255.11 72.05 255.047 73.562C254.984 74.066 254.669 77.405 254.165 83.579C253.724 88.241 253.346 92.903 252.968 97.565C252.527 102.101 252.275 104.81 252.275 105.692C252.149 106.448 252.086 107.456 252.023 108.779C251.96 110.102 251.897 111.299 251.834 112.37C251.708 113.441 251.645 114.449 251.519 115.394C251.393 116.276 250.763 117.536 249.755 119.237C249.503 119.678 248.936 119.867 248.054 119.867C247.865 119.93 246.038 119.93 242.51 119.93C241.88 119.93 241.376 119.804 240.998 119.426C240.62 119.048 240.368 118.607 240.368 117.977L239.927 111.362C239.927 111.236 239.864 110.795 239.801 110.039C239.675 109.283 239.675 108.716 239.738 108.338C239.864 106.511 240.116 104.684 240.494 102.857C240.683 101.66 240.62 100.841 240.242 100.463C239.864 100.085 239.108 100.022 237.974 100.274C236.21 100.652 234.761 100.211 233.627 99.077C232.43 97.943 231.989 96.557 232.304 94.793C232.556 93.155 233.249 91.832 234.383 90.824C235.454 89.879 236.84 89.312 238.604 89.186C239.423 89.186 240.179 88.871 240.809 88.304C241.439 87.737 241.817 87.044 241.88 86.288C241.943 85.028 242.069 83.075 242.321 80.303C242.51 77.594 242.636 75.515 242.762 74.066C242.825 73.436 243.014 72.302 243.392 70.79C243.707 69.404 244.589 68.774 246.038 68.774C247.676 68.837 249.251 68.837 250.7 68.837C250.7 68.837 251.267 68.711 252.401 68.333ZM214.16 118.733C208.679 118.67 204.143 116.78 200.489 113C199.229 111.74 198.347 109.598 197.969 106.574C197.339 102.416 197.024 98.699 197.087 95.486C197.087 89.942 198.284 84.587 200.678 79.421C200.867 78.98 201.056 78.665 201.245 78.476C204.521 75.2 206.6 73.184 207.482 72.428C207.671 72.239 207.923 72.113 208.238 71.987C208.49 71.924 208.868 71.861 209.372 71.798C209.813 71.735 210.128 71.672 210.317 71.672C213.152 71.042 215.861 71.231 218.381 72.239C220.901 73.247 223.547 74.885 226.193 77.027C227.264 78.035 228.146 78.917 228.776 79.736C229.406 80.555 229.847 81.5 230.099 82.571C230.603 85.28 230.792 87.548 230.603 89.312C230.225 93.596 229.532 98.258 228.65 103.361C227.579 109.346 224.807 113.756 220.271 116.528C217.499 118.292 215.42 118.985 214.16 118.733ZM221.027 92.462C220.964 92.336 220.901 91.958 220.838 91.454C220.712 90.95 220.649 90.572 220.586 90.32C220.523 90.131 220.46 89.816 220.334 89.438C220.208 89.06 220.082 88.745 219.893 88.43C219.704 88.178 219.515 87.863 219.263 87.611C217.751 86.036 216.113 85.406 214.349 85.721C212.522 86.099 211.262 87.296 210.506 89.375C209.561 91.769 209.309 93.911 209.687 95.801C209.813 96.557 209.939 97.754 210.128 99.329C210.317 100.967 210.506 102.164 210.695 102.983C210.884 103.928 211.451 104.747 212.459 105.44C213.404 106.133 214.349 106.448 215.357 106.448C216.05 106.448 216.743 106.196 217.499 105.629C218.192 105.125 218.633 104.432 218.822 103.55C218.948 102.857 219.704 99.14 221.027 92.462Z" fill="white"/>
</svg>
