<svg width="181" height="151" viewBox="0 0 181 151" fill="none" xmlns="http://www.w3.org/2000/svg">
<rect x="0.5" y="0.5" width="90" height="120" fill="#FF961E"/>
<rect x="0.5" y="0.5" width="90" height="120" stroke="black"/>
<path d="M57.722 35.876C60.116 35.75 61.439 35.687 61.565 35.687C62.951 35.75 64.274 35.876 65.66 36.065C67.046 36.254 68.243 36.38 69.314 36.443C70.511 36.569 71.141 37.262 71.204 38.459C71.204 39.971 71.33 42.302 71.519 45.389C71.708 48.539 71.834 50.87 71.897 52.445C71.96 53.642 71.96 55.784 71.96 58.808C71.96 61.895 71.96 64.037 71.96 65.171C71.96 66.872 71.96 70.337 71.96 75.629C71.96 80.921 71.96 84.449 71.96 86.15V86.276C71.96 87.158 71.834 88.04 71.582 88.796C71.015 90.371 70.007 91.127 68.558 91.064C67.865 91.064 67.046 91.127 66.164 91.127C65.282 91.127 64.526 91.127 63.896 91.001C63.392 91.001 62.825 90.812 62.321 90.497C61.754 90.245 61.376 89.867 61.25 89.489C59.99 86.465 59.36 84.134 59.297 82.496C59.108 78.842 58.982 72.605 58.919 63.911C58.856 55.217 58.793 49.295 58.667 46.082C58.667 45.074 58.604 44.066 58.478 42.932C58.352 41.798 58.226 40.538 58.1 39.089L57.722 35.876ZM17.717 45.578C18.158 44.822 18.851 44.318 19.733 44.129C24.899 43.184 28.868 42.491 31.64 42.113C35.798 41.546 39.641 41.483 43.232 41.987C43.295 41.987 43.484 42.05 43.862 42.05C44.177 42.113 44.429 42.176 44.555 42.176C44.681 42.176 44.933 42.239 45.185 42.302C45.437 42.365 45.626 42.428 45.815 42.554C46.004 42.68 46.193 42.869 46.382 42.995C46.697 43.31 47.012 43.94 47.39 44.885C48.965 49.421 49.658 54.461 49.406 60.131C49.28 62.21 48.965 65.234 48.461 69.266C48.335 70.148 48.209 72.038 48.02 75.062C47.831 78.086 47.516 80.354 47.138 81.929C46.697 83.693 46.13 84.827 45.5 85.457C44.996 85.961 43.484 86.339 41.09 86.465C38.696 86.654 36.491 86.654 34.601 86.528C33.593 86.528 33.089 86.213 32.963 85.583C32.837 85.331 32.837 85.079 32.963 84.701C33.026 84.323 33.152 83.945 33.278 83.504C33.404 83.126 33.467 82.811 33.467 82.622C33.656 81.488 33.845 80.354 33.971 79.157C34.223 77.078 34.349 74.81 34.475 72.353C34.538 69.329 34.475 64.856 34.286 58.871C34.223 57.989 34.097 57.359 33.908 56.981C33.341 55.973 32.018 55.721 30.002 56.162C27.671 56.729 23.513 56.918 17.528 56.666C17.213 56.666 17.024 56.603 16.898 56.477C16.709 56.351 16.646 55.973 16.709 55.469C17.087 49.421 17.402 46.082 17.717 45.578Z" fill="white"/>
<rect x="90.5" y="30.5" width="90" height="120" fill="#FF961E"/>
<rect x="90.5" y="30.5" width="90" height="120" stroke="black"/>
<path d="M124.16 118.733C118.679 118.67 114.143 116.78 110.489 113C109.229 111.74 108.347 109.598 107.969 106.574C107.339 102.416 107.024 98.699 107.087 95.486C107.087 89.942 108.284 84.587 110.678 79.421C110.867 78.98 111.056 78.665 111.245 78.476C114.521 75.2 116.6 73.184 117.482 72.428C117.671 72.239 117.923 72.113 118.238 71.987C118.49 71.924 118.868 71.861 119.372 71.798C119.813 71.735 120.128 71.672 120.317 71.672C123.152 71.042 125.861 71.231 128.381 72.239C130.901 73.247 133.547 74.885 136.193 77.027C137.264 78.035 138.146 78.917 138.776 79.736C139.406 80.555 139.847 81.5 140.099 82.571C140.351 83.831 140.477 84.965 140.603 85.91C140.729 85.28 140.981 84.524 141.359 83.705C142.367 81.437 144.131 80.429 146.714 80.555C147.092 80.618 147.596 80.618 148.1 80.555C148.604 80.555 149.171 80.492 149.864 80.366C150.494 80.303 151.061 80.24 151.439 80.24V74.381V73.31V72.176C151.439 70.034 151.628 68.648 152.132 68.081C152.636 67.514 153.959 67.073 156.164 66.758C156.416 66.758 157.172 66.506 158.432 66.065C160.07 65.435 161.393 65.498 162.275 66.128C163.157 66.821 163.598 68.018 163.598 69.782C163.535 72.365 163.346 79.358 163.031 90.698C162.716 100.904 162.464 108.275 162.338 112.748C162.212 114.008 162.023 115.205 161.771 116.402C161.141 118.544 160.007 119.615 158.369 119.552C157.991 119.552 157.361 119.489 156.542 119.489C155.66 119.489 154.967 119.489 154.337 119.489C153.707 119.489 153.077 119.426 152.51 119.3C151.943 119.237 151.502 118.985 151.187 118.544C150.809 118.166 150.683 117.599 150.746 116.843C150.809 115.961 150.872 114.26 150.935 111.866C150.998 109.472 151.061 108.149 151.061 107.771C151.061 107.519 151.124 107.078 151.124 106.322C151.061 105.314 150.494 104.936 149.423 105.125C147.911 105.377 146.021 105.692 143.753 106.007C143.123 106.133 142.682 106.007 142.304 105.692C141.926 105.377 141.737 104.936 141.863 104.432C142.115 101.975 142.556 99.707 143.186 97.628C143.186 97.565 143.249 97.502 143.375 97.376C143.501 97.313 143.627 97.25 143.879 97.187C144.068 97.124 144.257 97.061 144.383 96.998C144.509 96.998 144.761 96.935 145.013 96.872C145.265 96.809 145.454 96.746 145.58 96.746C145.958 96.683 146.588 96.557 147.47 96.431C148.352 96.305 148.982 96.116 149.486 95.99C149.738 95.99 150.053 95.927 150.557 95.801C150.998 95.738 151.313 95.675 151.502 95.612C151.691 95.549 151.943 95.423 152.195 95.297C152.447 95.171 152.573 94.982 152.636 94.73C152.699 94.478 152.762 94.163 152.762 93.785C152.699 93.533 152.699 92.147 152.699 89.501C148.415 89.816 146.084 89.942 145.706 89.942L144.572 90.131C144.068 90.257 143.627 90.32 143.375 90.32C143.06 90.383 142.745 90.32 142.367 90.194C141.989 90.068 141.674 89.816 141.422 89.438C141.044 88.997 140.792 88.556 140.666 88.052C140.666 88.493 140.603 88.934 140.603 89.312C140.225 93.596 139.532 98.258 138.65 103.361C137.579 109.346 134.807 113.756 130.271 116.528C127.499 118.292 125.42 118.985 124.16 118.733ZM131.027 92.462C130.964 92.336 130.901 91.958 130.838 91.454C130.712 90.95 130.649 90.572 130.586 90.32C130.523 90.131 130.46 89.816 130.334 89.438C130.208 89.06 130.082 88.745 129.893 88.43C129.704 88.178 129.515 87.863 129.263 87.611C127.751 86.036 126.113 85.406 124.349 85.721C122.522 86.099 121.262 87.296 120.506 89.375C119.561 91.769 119.309 93.911 119.687 95.801C119.813 96.557 119.939 97.754 120.128 99.329C120.317 100.967 120.506 102.164 120.695 102.983C120.884 103.928 121.451 104.747 122.459 105.44C123.404 106.133 124.349 106.448 125.357 106.448C126.05 106.448 126.743 106.196 127.499 105.629C128.192 105.125 128.633 104.432 128.822 103.55C128.948 102.857 129.704 99.14 131.027 92.462Z" fill="white"/>
</svg>
