<svg width="271" height="151" viewBox="0 0 271 151" fill="none" xmlns="http://www.w3.org/2000/svg">
<rect x="180.5" y="30.5" width="90" height="120" fill="#FF961E"/>
<rect x="180.5" y="30.5" width="90" height="120" stroke="black"/>
<path d="M241.1 119.22C239.18 119.22 237.86 118.92 237.14 118.2C236.42 117.48 236.06 116.16 235.94 114.18C235.64 108.6 235.52 104.76 235.52 102.66C235.52 99.72 235.7 90.42 236.12 74.82C236.12 74.4 236.18 73.92 236.3 73.44C236.36 72.96 236.42 72.54 236.54 72.18C236.6 71.82 236.72 71.4 236.9 70.8C237.02 70.2 237.14 69.78 237.26 69.42C237.38 68.94 237.62 68.58 238.04 68.46C238.16 68.46 238.58 68.34 239.24 68.16C239.9 67.98 240.38 67.86 240.62 67.8C240.86 67.74 241.22 67.68 241.82 67.56C242.36 67.44 242.78 67.44 243.14 67.44C243.5 67.44 243.92 67.5 244.4 67.62C244.88 67.74 245.3 67.86 245.78 68.04C246.92 68.64 247.58 69.72 247.7 71.28C247.7 72 247.76 74.4 247.82 78.54C247.82 82.68 247.94 85.26 248.06 86.28C248.18 87 248.6 87.78 249.32 88.56C249.68 88.98 250.04 89.4 250.46 89.82C250.88 90.3 251.36 90.78 251.9 91.26C252.38 91.8 252.8 92.22 253.16 92.46C253.64 92.94 253.94 93.48 254.18 94.02C254.42 94.62 254.48 95.28 254.42 96C254.36 96.72 254.3 97.26 254.24 97.62C254.12 97.98 254 98.64 253.76 99.48C253.4 100.92 252.14 101.7 249.98 101.7C248.84 101.7 248.12 101.88 247.88 102.18C247.58 102.54 247.46 103.32 247.52 104.64C247.52 105.54 247.52 107.16 247.58 109.44C247.64 111.72 247.7 113.28 247.7 114.06C247.7 115.68 247.28 116.76 246.32 117.3C243.92 118.62 242.18 119.28 241.1 119.22ZM212.84 99.48C212.84 99.6 212.78 100.08 212.78 100.92C212.78 101.76 212.72 102.36 212.72 102.66C216.56 102.24 220.94 102.36 225.8 103.08C226.4 103.2 226.88 103.5 227.18 103.92C227.42 104.4 227.54 104.94 227.48 105.66C227.42 106.38 227.3 107.04 227.18 107.58C227.06 108.18 226.82 108.9 226.58 109.74C226.28 110.58 226.1 111.18 226.1 111.42C225.74 112.56 224.84 113.28 223.52 113.64C223.16 113.76 222.26 114 220.76 114.42C219.26 114.84 218.24 115.08 217.76 115.2C217.28 115.32 216.38 115.44 215.12 115.68C213.8 115.92 212.78 116.1 212.06 116.1C211.34 116.1 210.44 116.1 209.42 115.98C208.34 115.86 207.38 115.68 206.48 115.38C206 115.26 205.16 114.9 203.84 114.42C202.52 113.94 201.56 113.58 200.84 113.22C199.64 112.74 199.04 111.6 199.16 109.86C199.16 108.18 199.4 105.96 199.82 103.2C200.18 100.44 200.42 98.22 200.48 96.48C200.36 92.64 201.44 90.66 203.78 90.66C204.8 90.66 206.24 90.72 208.04 90.9C209.84 91.08 211.46 91.14 212.96 91.08C214.4 91.02 215.78 90.72 217.1 90.18C217.1 90.18 217.1 89.7 216.98 88.8C216.86 87.96 216.74 87.06 216.62 86.1C216.5 85.14 216.44 84.66 216.44 84.6C216.44 84.54 216.38 84.42 216.26 84.3C216.14 84.18 216.02 84.06 215.96 84.06C212.96 83.46 211.04 83.16 210.32 83.1C209.84 83.1 209.12 83.1 208.28 83.22C207.44 83.34 206.84 83.4 206.48 83.4C204.74 83.4 202.52 83.34 199.82 83.22C199.58 83.22 199.34 83.16 199.22 83.04C199.04 82.92 198.92 82.8 198.8 82.56C198.68 82.32 198.62 82.14 198.62 81.96C198.62 81.84 198.56 81.6 198.56 81.3C198.5 81 198.5 80.76 198.5 80.64C198.38 80.22 198.32 79.8 198.32 79.44C198.32 79.08 198.32 78.66 198.44 78.3C198.5 77.94 198.56 77.7 198.62 77.46C198.62 77.22 198.74 76.92 198.92 76.5C199.04 76.14 199.16 75.84 199.28 75.66C199.34 75.54 199.52 75.18 199.82 74.7C200.06 74.22 200.24 73.92 200.36 73.68C200.48 73.5 201.02 73.32 202.04 73.14C206.36 72.42 209 72.06 209.96 71.94C210.62 71.94 211.58 72 212.84 72.18C214.04 72.36 214.88 72.42 215.36 72.42C215.96 72.48 216.8 72.48 218 72.42C219.2 72.36 220.1 72.36 220.7 72.36C221.96 72.42 223.22 72.72 224.54 73.2C225.8 73.68 226.94 74.46 227.9 75.54C228.86 76.62 229.28 77.82 229.28 79.2C229.22 80.4 229.28 82.62 229.46 85.74C229.58 88.86 229.64 91.08 229.64 92.28C229.64 92.82 229.58 93.3 229.46 93.66C229.34 94.08 229.28 94.38 229.22 94.56C229.1 94.74 228.98 95.04 228.74 95.46C228.5 95.94 228.26 96.3 228.14 96.54C227.9 97.02 227.42 97.44 226.76 97.68C223.16 99.12 220.22 99.6 217.94 99.12C217.16 99.06 216.62 99.06 216.26 99.06C215.9 99.06 215.36 99.18 214.58 99.3C213.74 99.42 213.2 99.48 212.84 99.48Z" fill="white"/>
<rect x="0.5" y="0.5" width="90" height="120" fill="#FF961E"/>
<rect x="0.5" y="0.5" width="90" height="120" stroke="black"/>
<path d="M67.1 53.1V59.04C67.1 59.7 66.98 60.9 66.86 62.58C66.74 63.54 66.14 64.08 65.18 64.08C63.02 64.14 61.22 64.14 59.66 64.02C58.76 64.02 57.98 63.66 57.38 63.06C56.78 62.46 56.42 61.74 56.42 60.9C56.36 57.96 56.36 54.24 56.42 49.74C56.42 49.08 56.48 47.52 56.54 45.12C56.6 42.72 56.66 41.04 56.72 40.14C56.72 38.94 57.14 38.16 57.98 37.68C58.16 37.56 58.52 37.38 59.06 37.08C59.6 36.84 60.02 36.6 60.32 36.48C60.56 36.36 60.92 36.24 61.4 36.06C61.88 35.88 62.3 35.76 62.72 35.7C63.14 35.64 63.56 35.64 64.04 35.64C64.76 35.7 65.3 35.76 65.66 35.88C66.5 36.24 66.92 36.84 66.92 37.74C66.92 39.42 67.04 41.58 67.34 44.1C67.4 44.58 67.76 44.88 68.48 44.94C71.36 45.18 72.98 45.3 73.34 45.36C74.18 45.6 74.72 46.26 74.84 47.46C75.02 49.26 74.72 50.88 73.88 52.26C73.64 52.68 72.92 52.98 71.84 53.1H67.1ZM35.6 45.84C33.44 45.36 30.74 45.42 27.5 46.02C24.26 46.62 21.98 46.92 20.78 46.86C21.2 43.26 21.5 40.68 21.74 39.12C24.92 38.7 26.6 38.46 26.84 38.46C32.24 38.16 35.72 38.04 37.4 38.1C38.24 38.16 39.08 38.28 39.92 38.4C40.76 38.58 41.84 38.82 43.16 39.12C44.42 39.48 45.26 39.66 45.74 39.72C47.18 40.08 47.72 41.1 47.24 42.72C46.76 44.34 46.4 45.48 46.16 46.2C45.92 46.92 45.44 47.82 44.84 49.02C44.24 50.22 43.52 51.18 42.68 51.96C42.44 52.2 42.14 52.5 41.78 52.86C41.36 53.22 41.06 53.52 40.94 53.64C40.82 53.76 40.64 53.94 40.52 54.18C40.4 54.42 40.34 54.66 40.4 54.78C40.46 54.96 40.58 55.14 40.82 55.38C41 55.62 41.3 55.86 41.72 56.1C41.96 56.28 42.32 56.64 42.92 57.12C43.46 57.6 43.82 57.96 43.94 58.14C44.48 58.92 45.2 59.7 46.04 60.54C46.88 61.38 47.54 62.16 48.08 62.94C49.04 64.38 48.86 65.46 47.42 66.18C46.94 66.48 46.28 66.9 45.44 67.5C44.6 68.1 44 68.46 43.7 68.64C43.4 68.88 43.16 69 42.92 69.06C42.68 69.12 42.38 69.12 42.08 69C41.78 68.88 41.6 68.82 41.48 68.76C41.36 68.76 41.12 68.58 40.7 68.28C40.28 68.04 40.04 67.86 39.98 67.8C39.68 67.68 39.5 67.56 39.44 67.44C39.32 67.32 39.26 67.26 39.26 67.2C39.26 67.14 39.14 66.96 38.96 66.72C38.72 66.48 38.42 66.12 38 65.7C37.82 65.58 37.52 65.22 37.04 64.56C36.56 63.96 36.08 63.42 35.72 63.06C34.52 61.86 33.2 61.32 31.76 61.32C30.32 61.32 28.58 62.04 26.42 63.48C25.22 64.26 23.96 65.28 22.64 66.54C21.44 67.62 20.72 67.38 20.36 65.88C19.58 62.76 19.16 60.84 19.04 60.06C18.8 58.74 18.98 57.54 19.58 56.52C20.18 55.56 21.2 54.84 22.58 54.36C24.62 53.76 26.54 52.92 28.28 51.72C29.96 50.52 31.94 48.96 34.22 46.98C34.22 46.98 34.7 46.62 35.6 45.84ZM29.6 77.34C29.48 77.34 29.18 77.4 28.7 77.4C28.22 77.46 27.86 77.46 27.68 77.46C27.44 77.46 27.2 77.46 26.84 77.4C26.48 77.34 26.18 77.22 26.06 77.1C25.88 76.98 25.7 76.74 25.52 76.44C25.34 76.14 25.22 75.78 25.22 75.3C25.16 75.06 25.1 74.58 24.98 73.92C24.86 73.32 24.8 72.78 24.8 72.3C24.8 71.7 24.86 71.04 25.04 70.44C25.04 70.2 25.22 69.9 25.58 69.6C25.94 69.36 26.3 69.18 26.72 69.18C42.92 69.12 54.2 69.3 60.68 69.72C62 69.84 63.02 69.96 63.8 70.2C64.7 70.56 65.24 70.98 65.42 71.52C65.6 72.36 65.72 73.2 65.72 74.04C65.72 75.06 65.54 76.26 65.3 77.64C64.82 79.98 63.62 81.66 61.64 82.62C60.56 83.16 58.58 83.58 55.76 83.82C54.74 83.94 53.3 84 51.38 84C49.46 84.06 48.14 84.12 47.36 84.18C47.24 84.18 45.08 84.24 40.94 84.3C36.74 84.36 34.46 84.42 34.04 84.54L34.1 86.16C34.82 86.16 37.52 86.16 42.2 86.04C46.88 85.98 49.64 85.92 50.36 85.92C51.98 85.92 53.42 85.92 54.68 85.86C55.52 85.86 56.84 85.8 58.58 85.68C60.26 85.56 61.52 85.5 62.36 85.44H62.48C63.56 85.44 64.16 85.86 64.16 86.7V87C63.8 88.86 63.5 90.3 63.26 91.26C62.96 92.22 62.48 92.88 61.82 93.24C61.16 93.6 60.08 93.78 58.52 93.78H57.8C56.24 93.78 54.02 93.66 51.2 93.48C48.38 93.3 46.4 93.18 45.26 93.06C43.46 93 41.9 93 40.52 93.06C39.14 93.18 37.58 93.18 35.9 93.06C34.22 93 32.72 92.82 31.4 92.52C29.6 92.16 28.34 91.56 27.62 90.6C26.9 89.64 26.48 88.38 26.24 86.76C26.18 86.52 26.18 85.86 26.18 84.66C26.18 84.6 26.18 84.12 26.24 83.28C26.24 82.02 26.6 81.12 27.2 80.64C27.8 80.16 28.82 79.92 30.38 79.86C36.14 79.74 43.76 79.44 53.3 79.02C54.5 79.02 55.1 78.6 55.1 77.76V77.46C55.04 77.22 55.04 76.98 55.04 76.74V76.44C55.04 76.32 54.74 76.26 54.14 76.26C53.54 76.26 52.46 76.26 50.9 76.32C49.34 76.38 47.72 76.44 45.98 76.56C44.24 76.68 41.78 76.8 38.66 76.92C35.54 77.1 32.48 77.22 29.6 77.34Z" fill="white"/>
<rect x="90.5" y="0.5" width="90" height="120" fill="#FF961E"/>
<rect x="90.5" y="0.5" width="90" height="120" stroke="black"/>
<path d="M151.1 89.22C149.18 89.22 147.86 88.92 147.14 88.2C146.42 87.48 146.06 86.16 145.94 84.18C145.64 78.6 145.52 74.76 145.52 72.66C145.52 69.72 145.7 60.42 146.12 44.82C146.12 44.4 146.18 43.92 146.3 43.44C146.36 42.96 146.42 42.54 146.54 42.18C146.6 41.82 146.72 41.4 146.9 40.8C147.02 40.2 147.14 39.78 147.26 39.42C147.38 38.94 147.62 38.58 148.04 38.46C148.16 38.46 148.58 38.34 149.24 38.16C149.9 37.98 150.38 37.86 150.62 37.8C150.86 37.74 151.22 37.68 151.82 37.56C152.36 37.44 152.78 37.44 153.14 37.44C153.5 37.44 153.92 37.5 154.4 37.62C154.88 37.74 155.3 37.86 155.78 38.04C156.92 38.64 157.58 39.72 157.7 41.28C157.7 42 157.76 44.4 157.82 48.54C157.82 52.68 157.94 55.26 158.06 56.28C158.18 57 158.6 57.78 159.32 58.56C159.68 58.98 160.04 59.4 160.46 59.82C160.88 60.3 161.36 60.78 161.9 61.26C162.38 61.8 162.8 62.22 163.16 62.46C163.64 62.94 163.94 63.48 164.18 64.02C164.42 64.62 164.48 65.28 164.42 66C164.36 66.72 164.3 67.26 164.24 67.62C164.12 67.98 164 68.64 163.76 69.48C163.4 70.92 162.14 71.7 159.98 71.7C158.84 71.7 158.12 71.88 157.88 72.18C157.58 72.54 157.46 73.32 157.52 74.64C157.52 75.54 157.52 77.16 157.58 79.44C157.64 81.72 157.7 83.28 157.7 84.06C157.7 85.68 157.28 86.76 156.32 87.3C153.92 88.62 152.18 89.28 151.1 89.22ZM109.04 46.86C109.46 46.14 110.12 45.66 110.96 45.48C115.88 44.58 119.66 43.92 122.3 43.56C126.26 43.02 129.92 42.96 133.34 43.44C133.4 43.44 133.58 43.5 133.94 43.5C134.24 43.56 134.48 43.62 134.6 43.62C134.72 43.62 134.96 43.68 135.2 43.74C135.44 43.8 135.62 43.86 135.8 43.98C135.98 44.1 136.16 44.28 136.34 44.4C136.64 44.7 136.94 45.3 137.3 46.2C138.8 50.52 139.46 55.32 139.22 60.72C139.1 62.7 138.8 65.58 138.32 69.42C138.2 70.26 138.08 72.06 137.9 74.94C137.72 77.82 137.42 79.98 137.06 81.48C136.64 83.16 136.1 84.24 135.5 84.84C135.02 85.32 133.58 85.68 131.3 85.8C129.02 85.98 126.92 85.98 125.12 85.86C124.16 85.86 123.68 85.56 123.56 84.96C123.44 84.72 123.44 84.48 123.56 84.12C123.62 83.76 123.74 83.4 123.86 82.98C123.98 82.62 124.04 82.32 124.04 82.14C124.22 81.06 124.4 79.98 124.52 78.84C124.76 76.86 124.88 74.7 125 72.36C125.06 69.48 125 65.22 124.82 59.52C124.76 58.68 124.64 58.08 124.46 57.72C123.92 56.76 122.66 56.52 120.74 56.94C118.52 57.48 114.56 57.66 108.86 57.42C108.56 57.42 108.38 57.36 108.26 57.24C108.08 57.12 108.02 56.76 108.08 56.28C108.44 50.52 108.74 47.34 109.04 46.86Z" fill="white"/>
</svg>
