<svg width="271" height="121" viewBox="0 0 271 121" fill="none" xmlns="http://www.w3.org/2000/svg">
<rect x="0.5" y="0.5" width="90" height="120" fill="#FF961E"/>
<rect x="0.5" y="0.5" width="90" height="120" stroke="black"/>
<path d="M62.18 68.64C61.76 68.76 61.46 68.82 61.22 68.88C60.98 69 60.68 69.06 60.32 69.06C59.72 69.18 59.24 69.36 58.94 69.6C58.64 69.9 58.52 70.38 58.52 71.1C58.52 71.94 58.52 74.1 58.52 77.64C58.52 81.18 58.52 83.34 58.58 84.18C58.58 85.86 57.98 86.88 56.72 87.3C56.42 87.42 56 87.54 55.52 87.78C54.98 88.02 54.56 88.2 54.32 88.26C53 88.74 51.98 88.26 51.32 86.82C50.24 84.54 49.52 81.54 49.22 77.76C49.1 76.62 49.04 74.82 49.04 72.42C49.04 70.02 48.98 68.16 48.92 66.96C48.14 59.04 48.2 51.84 49.1 45.24C49.1 45.12 49.1 44.88 49.16 44.58C49.16 44.28 49.22 44.04 49.22 43.92C49.22 43.8 49.28 43.68 49.34 43.44C49.34 43.2 49.4 43.08 49.52 42.96C49.58 42.84 49.7 42.72 49.82 42.6C49.94 42.48 50.06 42.3 50.24 42.18C50.42 42.06 50.66 42 50.9 41.88C52.22 41.34 53.9 40.92 56.06 40.62C57.26 40.44 57.98 41.1 58.22 42.6C58.28 43.2 58.4 44.88 58.52 47.52C58.52 47.88 58.58 49.38 58.58 51.9C58.58 54.48 58.64 56.1 58.7 56.7C58.76 57.54 59.06 58.2 59.54 58.56C60.02 58.92 60.68 59.04 61.52 58.92C61.76 58.92 61.94 58.86 62 58.74C62.06 58.68 62.24 58.68 62.54 58.68C63.08 58.74 63.5 58.62 63.74 58.38C63.98 58.14 64.04 57.66 64.04 57.06C64.04 49.32 63.98 45.06 63.98 44.34C63.92 43.26 64.34 42.66 65.24 42.54C67.76 42.3 69.62 42.18 70.82 42.18C71.06 42.18 71.3 42.24 71.54 42.36C71.72 42.48 71.84 42.72 71.96 42.96C72.08 43.2 72.14 43.44 72.14 43.56C72.14 43.68 72.2 43.98 72.2 44.34C72.2 44.76 72.26 45 72.26 45C72.26 45.06 72.38 48 72.62 53.82C72.62 54.18 72.62 55.38 72.74 57.36C72.86 59.4 72.92 60.9 72.92 61.98C72.92 63.9 72.92 70.2 72.86 80.76C72.86 82.08 72.62 83.16 72.14 83.88C71.66 84.6 70.88 85.2 69.8 85.56C69.2 85.74 68.36 85.98 67.22 86.22C65.66 86.58 64.82 85.92 64.58 84.18V83.58C64.82 81.72 64.7 79.14 64.22 75.78C63.74 72.42 63.02 70.08 62.18 68.64ZM29.36 71.1C32.36 71.4 34.58 71.52 36.02 71.52C36.56 71.58 37.16 71.64 37.88 71.64C38.6 71.7 39.08 71.76 39.44 71.76C39.8 71.76 40.22 71.76 40.82 71.7C41.42 71.64 42.08 71.52 42.8 71.34C44.24 71.04 45.8 71.46 47.48 72.66C47.66 72.84 47.84 73.08 47.96 73.44C48.08 73.8 48.14 74.16 48.08 74.4C47.96 75.3 47.78 76.02 47.66 76.56C47.54 77.16 47.42 77.52 47.36 77.76C47.24 78 47 78.48 46.64 79.26C46.28 80.04 45.98 80.64 45.74 81.12C44.84 83.04 43.4 84.12 41.42 84.24C39.98 84.36 38.12 84.6 35.9 84.96C33.62 85.32 32 85.5 30.92 85.56C29.84 85.68 28.04 85.68 25.4 85.56C23.78 85.44 22.22 85.2 20.66 84.78C19.34 84.48 18.62 83.52 18.56 81.96C18.5 81.06 18.44 79.8 18.38 78.24C18.26 76.68 18.2 75.18 18.14 73.86C18.08 72.54 18.08 71.28 18.08 70.08C17.96 64.2 17.96 58.38 18.08 52.5C18.08 51.24 18.32 49.8 18.92 48.18C19.28 47.16 19.76 46.44 20.36 46.08C20.96 45.72 21.92 45.48 23.24 45.36C23.84 45.3 24.8 45.3 26.24 45.36C26.36 45.36 26.54 45.48 26.78 45.6C27.02 45.72 27.2 45.84 27.26 45.84C27.74 46.08 28.04 46.14 28.22 46.14C28.88 46.14 29.36 46.26 29.66 46.5C29.9 46.74 30.14 47.28 30.32 48C30.56 48.9 30.68 49.86 30.68 50.94C30.68 52.02 30.62 52.92 30.56 53.7C30.44 54.48 30.32 55.44 30.14 56.64C29.96 57.84 29.84 58.74 29.84 59.4C29.72 60.36 29.6 62.4 29.54 65.52C29.42 68.64 29.36 70.5 29.36 71.1Z" fill="white"/>
<rect x="180.5" y="0.5" width="90" height="120" fill="#FF961E"/>
<rect x="180.5" y="0.5" width="90" height="120" stroke="black"/>
<path d="M249.8 37.14C249.98 40.62 250.1 42.36 250.16 42.48C250.52 45.48 250.4 49.8 249.92 55.44C249.8 56.4 249.68 57.78 249.44 59.52C249.2 61.26 249.08 62.4 249.08 63C248.96 63.96 248.42 64.44 247.46 64.44C246.98 64.44 245.66 64.38 243.38 64.38C241.1 64.38 239.6 64.38 238.94 64.38C238.22 64.38 237.8 63.84 237.62 62.76C237.5 62.52 237.44 62.22 237.44 61.86C237.38 61.56 237.32 61.26 237.32 61.02C237.32 60.78 237.26 60.48 237.26 60.12C237.26 59.76 237.26 59.46 237.26 59.22C237.26 59.04 237.26 58.74 237.26 58.32C237.26 57.9 237.32 57.6 237.32 57.48C237.32 57.36 237.32 57 237.38 56.52C237.38 56.04 237.44 55.8 237.44 55.68C237.44 55.62 237.5 55.32 237.56 54.78C237.56 54.24 237.62 53.94 237.62 53.88C237.74 52.68 237.8 50.04 237.92 45.96V42.78V39.54C237.92 38.94 238.28 38.46 239 38.1C240.56 37.44 243.98 37.08 249.32 36.96C249.32 36.96 249.5 37.02 249.8 37.14ZM202.58 38.28C203.18 38.28 204.44 38.28 206.3 38.4C208.1 38.52 209.42 38.52 210.2 38.46C210.56 38.46 211.16 38.46 211.94 38.46C212.66 38.52 213.26 38.52 213.62 38.46C218.24 38.22 222.26 38.4 225.68 39.12C228.32 39.72 229.46 41.46 229.22 44.34C229.1 45.36 228.98 47.52 228.86 50.76C228.74 52.62 228.68 54.06 228.62 55.08C228.5 56.16 228.32 57.42 228.02 58.98C227.72 60.54 227.3 61.92 226.82 63.12C226.4 64.08 225.86 64.8 225.14 65.22C223.34 66.36 221.72 67.14 220.34 67.56C219.8 67.68 219.44 67.68 219.2 67.68C218.96 67.68 218.54 67.68 217.94 67.62C217.34 67.56 216.98 67.5 216.74 67.5C211.34 67.32 208.28 67.2 207.62 67.14C206.42 67.08 205.22 66.48 204.14 65.28C203 64.08 202.34 62.88 202.22 61.68C201.98 60.12 201.92 58.38 201.92 56.46C201.92 54.54 201.98 53.1 202.1 52.02C202.16 51 202.28 49.26 202.52 46.8C202.58 45.96 202.64 45.12 202.64 44.16C202.64 43.26 202.58 42.18 202.58 40.98C202.58 39.78 202.58 38.88 202.58 38.28ZM210.8 46.74V54.6C210.8 55.56 210.98 56.22 211.28 56.52C211.58 56.82 212.24 56.94 213.26 56.94C213.5 56.94 213.98 57 214.58 57C215.18 57 215.6 57 215.96 57C216.68 57 217.4 56.82 218 56.34C218.6 55.86 218.9 55.32 218.96 54.6C219.08 51.18 218.72 48.36 217.82 46.14L210.8 46.74ZM209.6 77.34C209.48 77.34 209.18 77.4 208.7 77.4C208.22 77.46 207.86 77.46 207.68 77.46C207.44 77.46 207.2 77.46 206.84 77.4C206.48 77.34 206.18 77.22 206.06 77.1C205.88 76.98 205.7 76.74 205.52 76.44C205.34 76.14 205.22 75.78 205.22 75.3C205.16 75.06 205.1 74.58 204.98 73.92C204.86 73.32 204.8 72.78 204.8 72.3C204.8 71.7 204.86 71.04 205.04 70.44C205.04 70.2 205.22 69.9 205.58 69.6C205.94 69.36 206.3 69.18 206.72 69.18C222.92 69.12 234.2 69.3 240.68 69.72C242 69.84 243.02 69.96 243.8 70.2C244.7 70.56 245.24 70.98 245.42 71.52C245.6 72.36 245.72 73.2 245.72 74.04C245.72 75.06 245.54 76.26 245.3 77.64C244.82 79.98 243.62 81.66 241.64 82.62C240.56 83.16 238.58 83.58 235.76 83.82C234.74 83.94 233.3 84 231.38 84C229.46 84.06 228.14 84.12 227.36 84.18C227.24 84.18 225.08 84.24 220.94 84.3C216.74 84.36 214.46 84.42 214.04 84.54L214.1 86.16C214.82 86.16 217.52 86.16 222.2 86.04C226.88 85.98 229.64 85.92 230.36 85.92C231.98 85.92 233.42 85.92 234.68 85.86C235.52 85.86 236.84 85.8 238.58 85.68C240.26 85.56 241.52 85.5 242.36 85.44H242.48C243.56 85.44 244.16 85.86 244.16 86.7V87C243.8 88.86 243.5 90.3 243.26 91.26C242.96 92.22 242.48 92.88 241.82 93.24C241.16 93.6 240.08 93.78 238.52 93.78H237.8C236.24 93.78 234.02 93.66 231.2 93.48C228.38 93.3 226.4 93.18 225.26 93.06C223.46 93 221.9 93 220.52 93.06C219.14 93.18 217.58 93.18 215.9 93.06C214.22 93 212.72 92.82 211.4 92.52C209.6 92.16 208.34 91.56 207.62 90.6C206.9 89.64 206.48 88.38 206.24 86.76C206.18 86.52 206.18 85.86 206.18 84.66C206.18 84.6 206.18 84.12 206.24 83.28C206.24 82.02 206.6 81.12 207.2 80.64C207.8 80.16 208.82 79.92 210.38 79.86C216.14 79.74 223.76 79.44 233.3 79.02C234.5 79.02 235.1 78.6 235.1 77.76V77.46C235.04 77.22 235.04 76.98 235.04 76.74V76.44C235.04 76.32 234.74 76.26 234.14 76.26C233.54 76.26 232.46 76.26 230.9 76.32C229.34 76.38 227.72 76.44 225.98 76.56C224.24 76.68 221.78 76.8 218.66 76.92C215.54 77.1 212.48 77.22 209.6 77.34Z" fill="white"/>
<rect x="90.5" y="0.5" width="90" height="120" fill="#FF961E"/>
<rect x="90.5" y="0.5" width="90" height="120" stroke="black"/>
<path d="M147.722 35.876C150.116 35.75 151.439 35.687 151.565 35.687C152.951 35.75 154.274 35.876 155.66 36.065C157.046 36.254 158.243 36.38 159.314 36.443C160.511 36.569 161.141 37.262 161.204 38.459C161.204 39.971 161.33 42.302 161.519 45.389C161.708 48.539 161.834 50.87 161.897 52.445C161.96 53.642 161.96 55.784 161.96 58.808C161.96 61.895 161.96 64.037 161.96 65.171C161.96 66.872 161.96 70.337 161.96 75.629C161.96 80.921 161.96 84.449 161.96 86.15V86.276C161.96 87.158 161.834 88.04 161.582 88.796C161.015 90.371 160.007 91.127 158.558 91.064C157.865 91.064 157.046 91.127 156.164 91.127C155.282 91.127 154.526 91.127 153.896 91.001C153.392 91.001 152.825 90.812 152.321 90.497C151.754 90.245 151.376 89.867 151.25 89.489C149.99 86.465 149.36 84.134 149.297 82.496C149.108 78.842 148.982 72.605 148.919 63.911C148.856 55.217 148.793 49.295 148.667 46.082C148.667 45.074 148.604 44.066 148.478 42.932C148.352 41.798 148.226 40.538 148.1 39.089L147.722 35.876ZM117.986 41.735C117.734 42.743 117.545 46.145 117.545 52.067C117.545 57.989 117.293 61.895 116.789 63.848C116.663 64.793 116.852 65.486 117.356 65.927C117.86 66.431 118.616 66.683 119.624 66.683C120.569 66.683 121.577 66.683 122.585 66.557C123.593 66.431 124.601 66.305 125.672 66.179C126.743 66.053 127.499 66.053 128.003 66.053C126.743 57.926 126.302 49.736 126.554 41.546C126.68 41.609 128.066 41.861 130.838 42.365C133.61 42.869 135.689 43.247 137.138 43.373C138.146 43.499 138.965 43.94 139.658 44.633C140.288 45.326 140.603 46.145 140.603 47.027C140.54 48.224 140.477 50.618 140.414 54.209C140.288 57.863 140.225 60.887 140.099 63.344C139.973 65.801 139.847 68.195 139.595 70.463C139.469 71.534 139.343 72.227 139.28 72.605C139.217 72.983 139.091 73.676 138.965 74.747C138.776 75.881 138.587 76.637 138.461 77.141C138.335 77.645 138.083 78.338 137.831 79.283C137.579 80.291 137.264 80.984 136.949 81.488C136.634 81.992 136.256 82.559 135.815 83.252C135.311 84.008 134.807 84.512 134.303 84.827C133.736 85.205 133.106 85.52 132.413 85.772C131.657 86.087 130.901 86.213 130.082 86.213C128.759 86.213 127.121 86.339 125.231 86.528C123.341 86.78 121.64 86.969 120.254 87.095C118.868 87.284 117.293 87.347 115.529 87.221C113.765 87.158 112.127 86.843 110.741 86.276C110.237 86.15 109.796 85.898 109.481 85.52C109.166 85.205 108.977 84.764 108.851 84.26C108.725 83.756 108.599 83.378 108.536 83C108.473 82.685 108.473 82.181 108.473 81.551C108.347 79.283 108.221 75.818 108.032 71.282C107.78 66.746 107.591 62.651 107.465 58.997C107.339 55.343 107.213 51.941 107.15 48.665C107.213 47.09 107.339 45.83 107.528 44.885C107.717 43.94 107.969 43.247 108.347 42.743C108.725 42.239 109.166 41.924 109.733 41.798C110.3 41.672 110.993 41.672 111.749 41.672C112.505 41.672 113.45 41.735 114.458 41.798C115.466 41.861 116.663 41.861 117.986 41.735ZM125.609 72.794C124.916 72.794 124.16 72.794 123.404 72.794C122.585 72.794 122.018 72.731 121.64 72.668C121.262 72.668 120.821 72.668 120.317 72.731C119.813 72.794 119.498 72.857 119.372 72.857C119.183 72.92 118.994 73.046 118.805 73.298C118.553 73.55 118.427 73.802 118.427 74.054C118.427 74.306 118.427 74.684 118.427 75.188C118.427 75.755 118.427 76.322 118.553 76.826C118.616 77.393 118.742 78.149 118.931 79.094C121.451 80.102 123.278 80.417 124.349 80.165C125.357 79.913 125.924 79.157 125.924 77.834C125.924 76.574 125.798 74.873 125.609 72.794Z" fill="white"/>
</svg>
