<svg width="451" height="151" viewBox="0 0 451 151" fill="none" xmlns="http://www.w3.org/2000/svg">
<rect x="0.5" y="0.5" width="90" height="120" fill="#FF961E"/>
<rect x="0.5" y="0.5" width="90" height="120" stroke="black"/>
<path d="M42.02 61.5C41.6 57.54 42.38 55.32 44.36 54.84C46.16 54.48 47.24 54.24 47.54 54.24C48.5 54.18 49.22 54.18 49.76 54.24C50.3 54.36 50.66 54.6 50.9 54.96C51.14 55.32 51.32 56.04 51.5 57.12C51.5 57.24 51.56 57.66 51.56 58.44C51.56 59.28 51.56 60 51.62 60.72C51.62 61.44 51.68 61.8 51.74 61.8C52.76 61.8 55.16 61.92 58.88 62.04C62.6 62.16 64.94 62.22 65.96 62.22L71.06 61.74C71.18 61.8 71.3 61.92 71.54 62.04C71.78 62.16 72.02 62.46 72.38 62.88C72.68 63.3 72.8 63.72 72.74 64.2C72.68 64.44 72.44 66.06 71.96 68.94C71.36 69 71.06 69 71.06 69C70.82 69 63.8 68.94 50 68.76C49.22 68.76 47.18 68.82 43.82 68.94C40.46 69.06 38.48 69.06 38 69.06C37.04 69.12 34.58 69.12 30.68 69C26.72 68.94 24.32 68.88 23.42 68.82C23.18 68.82 22.58 68.88 21.68 68.94C20.72 69.06 20.18 69.06 19.94 69.06C19.58 69.06 19.28 69.06 19.04 69C18.8 68.94 18.62 68.82 18.5 68.58C18.38 68.4 18.32 68.22 18.32 68.1C18.32 67.98 18.26 67.68 18.26 67.2C18.26 66.78 18.26 66.42 18.26 66.18C18.14 65.46 18.14 64.44 18.26 63.06C18.26 62.34 18.62 61.98 19.34 61.98C20.3 61.98 23.24 61.98 28.16 62.04C33.02 62.16 36.02 62.16 37.22 62.1C37.7 62.1 39.26 61.92 42.02 61.5ZM25.58 39.42C25.88 39.42 26.3 39.3 26.84 39.18C27.38 39.06 27.86 38.94 28.28 38.88C28.64 38.82 29.06 38.76 29.48 38.7C36.44 38.46 41.9 38.34 45.74 38.34C50.06 38.34 54.74 38.52 59.72 38.76H60.74C61.46 38.76 61.94 38.82 62.3 38.88C62.6 38.94 63.02 39 63.62 39.12C64.16 39.24 64.58 39.48 64.88 39.72C65.18 39.96 65.42 40.32 65.54 40.68C65.54 40.86 65.6 41.04 65.72 41.28C65.84 41.94 65.96 42.42 66.02 42.78L66.14 44.1C66.26 44.22 66.32 45.9 66.26 49.14C66.2 52.44 66.2 54.12 66.2 54.18C66.2 55.38 65.96 56.28 65.48 56.82C64.94 57.42 64.1 57.72 62.96 57.72C62.6 57.72 62.06 57.72 61.4 57.66C60.68 57.6 60.2 57.54 59.9 57.54C58.16 57.6 57.26 55.38 57.2 50.82C57.2 49.38 56.96 48.54 56.6 48.18C56.24 47.88 55.34 47.7 54.02 47.58C53.78 47.58 53.66 47.58 53.54 47.52C50.06 47.34 47.9 47.22 47.12 47.22C41.12 47.1 35.48 47.1 30.08 47.16H28.4C28.04 47.16 27.68 47.16 27.32 47.04C26.96 46.92 26.72 46.86 26.6 46.86C26.48 46.86 26.36 46.68 26.24 46.38C26.12 46.08 26.06 45.84 26.06 45.72C26.06 45.6 26 45.24 26 44.64C25.94 44.1 25.88 43.62 25.88 43.26C25.64 40.74 25.58 39.48 25.58 39.42ZM29.6 77.76C29.48 77.76 29.18 77.82 28.7 77.82C28.22 77.88 27.86 77.88 27.68 77.88C27.44 77.88 27.2 77.88 26.84 77.82C26.48 77.76 26.18 77.64 26.06 77.52C25.88 77.4 25.7 77.16 25.52 76.92C25.34 76.68 25.22 76.32 25.22 75.9C25.16 75.66 25.1 75.3 24.98 74.7C24.86 74.1 24.8 73.62 24.8 73.2C24.8 72.66 24.86 72.12 25.04 71.52C25.04 71.28 25.22 71.04 25.58 70.8C25.94 70.56 26.3 70.38 26.72 70.38C42.92 70.38 54.2 70.5 60.68 70.86C62 70.98 63.02 71.1 63.8 71.34C64.7 71.64 65.24 72.06 65.42 72.54C65.6 73.26 65.72 74.04 65.72 74.82C65.72 75.72 65.54 76.8 65.3 78.06C64.82 80.16 63.62 81.66 61.64 82.5C60.56 82.98 58.58 83.34 55.76 83.58C54.74 83.7 53.3 83.76 51.38 83.76C49.46 83.82 48.14 83.88 47.36 83.88C47.24 83.88 45.08 83.94 40.94 84C36.74 84.06 34.46 84.12 34.04 84.24L34.1 85.68C34.82 85.68 37.52 85.68 42.2 85.62C46.88 85.56 49.64 85.5 50.36 85.5C51.98 85.5 53.42 85.5 54.68 85.44C55.52 85.44 56.84 85.38 58.58 85.26C60.26 85.14 61.52 85.08 62.36 85.08H62.48C63.56 85.08 64.16 85.44 64.16 86.16V86.46C63.8 88.14 63.5 89.46 63.26 90.3C62.96 91.14 62.48 91.74 61.82 92.1C61.16 92.46 60.08 92.58 58.52 92.58H57.8C56.24 92.58 54.02 92.46 51.2 92.28C48.38 92.1 46.4 91.98 45.26 91.92C43.46 91.86 41.9 91.86 40.52 91.92C39.14 91.98 37.58 91.98 35.9 91.92C34.22 91.86 32.72 91.68 31.4 91.44C29.6 91.08 28.34 90.48 27.62 89.64C26.9 88.8 26.48 87.72 26.24 86.28C26.18 86.04 26.18 85.38 26.18 84.36C26.18 84.3 26.18 83.88 26.24 83.1C26.24 81.96 26.6 81.18 27.2 80.7C27.8 80.28 28.82 80.04 30.38 79.98C36.14 79.86 43.76 79.62 53.3 79.26C54.5 79.26 55.1 78.84 55.1 78.12L55.04 77.82C55.04 77.64 55.04 77.46 55.04 77.28V76.92C55.04 76.86 54.74 76.8 54.14 76.8C53.54 76.8 52.46 76.8 50.9 76.86C49.34 76.92 47.72 76.98 45.98 77.04C44.24 77.16 41.78 77.28 38.66 77.4C35.54 77.52 32.48 77.64 29.6 77.76Z" fill="white"/>
<rect x="90.5" y="0.5" width="90" height="120" fill="#FF961E"/>
<rect x="90.5" y="0.5" width="90" height="120" stroke="black"/>
<path d="M151.1 89.22C149.18 89.22 147.86 88.92 147.14 88.2C146.42 87.48 146.06 86.16 145.94 84.18C145.64 78.6 145.52 74.76 145.52 72.66C145.52 69.72 145.7 60.42 146.12 44.82C146.12 44.4 146.18 43.92 146.3 43.44C146.36 42.96 146.42 42.54 146.54 42.18C146.6 41.82 146.72 41.4 146.9 40.8C147.02 40.2 147.14 39.78 147.26 39.42C147.38 38.94 147.62 38.58 148.04 38.46C148.16 38.46 148.58 38.34 149.24 38.16C149.9 37.98 150.38 37.86 150.62 37.8C150.86 37.74 151.22 37.68 151.82 37.56C152.36 37.44 152.78 37.44 153.14 37.44C153.5 37.44 153.92 37.5 154.4 37.62C154.88 37.74 155.3 37.86 155.78 38.04C156.92 38.64 157.58 39.72 157.7 41.28C157.7 42 157.76 44.4 157.82 48.54C157.82 52.68 157.94 55.26 158.06 56.28C158.18 57 158.6 57.78 159.32 58.56C159.68 58.98 160.04 59.4 160.46 59.82C160.88 60.3 161.36 60.78 161.9 61.26C162.38 61.8 162.8 62.22 163.16 62.46C163.64 62.94 163.94 63.48 164.18 64.02C164.42 64.62 164.48 65.28 164.42 66C164.36 66.72 164.3 67.26 164.24 67.62C164.12 67.98 164 68.64 163.76 69.48C163.4 70.92 162.14 71.7 159.98 71.7C158.84 71.7 158.12 71.88 157.88 72.18C157.58 72.54 157.46 73.32 157.52 74.64C157.52 75.54 157.52 77.16 157.58 79.44C157.64 81.72 157.7 83.28 157.7 84.06C157.7 85.68 157.28 86.76 156.32 87.3C153.92 88.62 152.18 89.28 151.1 89.22ZM124.7 87.96C119.48 87.9 115.16 86.1 111.68 82.5C110.48 81.3 109.64 79.26 109.28 76.38C108.68 72.42 108.38 68.88 108.44 65.82C108.44 60.54 109.58 55.44 111.86 50.52C112.04 50.1 112.22 49.8 112.4 49.62C115.52 46.5 117.5 44.58 118.34 43.86C118.52 43.68 118.76 43.56 119.06 43.44C119.3 43.38 119.66 43.32 120.14 43.26C120.56 43.2 120.86 43.14 121.04 43.14C123.74 42.54 126.32 42.72 128.72 43.68C131.12 44.64 133.64 46.2 136.16 48.24C137.18 49.2 138.02 50.04 138.62 50.82C139.22 51.6 139.64 52.5 139.88 53.52C140.36 56.1 140.54 58.26 140.36 59.94C140 64.02 139.34 68.46 138.5 73.32C137.48 79.02 134.84 83.22 130.52 85.86C127.88 87.54 125.9 88.2 124.7 87.96ZM131.24 62.94C131.18 62.82 131.12 62.46 131.06 61.98C130.94 61.5 130.88 61.14 130.82 60.9C130.76 60.72 130.7 60.42 130.58 60.06C130.46 59.7 130.34 59.4 130.16 59.1C129.98 58.86 129.8 58.56 129.56 58.32C128.12 56.82 126.56 56.22 124.88 56.52C123.14 56.88 121.94 58.02 121.22 60C120.32 62.28 120.08 64.32 120.44 66.12C120.56 66.84 120.68 67.98 120.86 69.48C121.04 71.04 121.22 72.18 121.4 72.96C121.58 73.86 122.12 74.64 123.08 75.3C123.98 75.96 124.88 76.26 125.84 76.26C126.5 76.26 127.16 76.02 127.88 75.48C128.54 75 128.96 74.34 129.14 73.5C129.26 72.84 129.98 69.3 131.24 62.94Z" fill="white"/>
<rect x="180.5" y="0.5" width="90" height="120" fill="#FF961E"/>
<rect x="180.5" y="0.5" width="90" height="120" stroke="black"/>
<path d="M231.62 82.08C231.5 82.74 231.32 83.76 231.08 85.08C230.84 86.4 230.72 87.24 230.66 87.54C230.48 88.44 229.94 88.98 229.1 89.1C228.2 89.28 226.16 89.4 222.92 89.46C222.08 89.52 221.6 89.04 221.48 88.02V86.64V85.5C221.48 85.26 221.48 84.96 221.48 84.66C221.48 84.36 221.48 84.12 221.48 83.94C221.42 83.82 221.42 83.64 221.42 83.52C221.42 83.4 221.36 83.28 221.24 83.16C221.12 83.1 221.06 83.04 221 82.98C220.94 82.92 220.82 82.86 220.58 82.8C220.34 82.74 220.16 82.68 220.04 82.68C219.92 82.68 219.68 82.62 219.32 82.5C218.6 82.38 215.66 82.26 210.5 82.08C205.34 81.96 202.22 81.84 201.14 81.84C200.42 81.84 199.88 81.42 199.52 80.58C198.74 78.9 198.68 76.8 199.34 74.34C199.4 73.92 199.94 73.62 200.96 73.38C201.08 73.32 202.28 73.32 204.56 73.32C206.84 73.32 208.04 73.32 208.16 73.32C209.42 73.32 213.14 73.2 219.26 73.08C225.38 72.96 228.92 72.84 230 72.78C231.2 72.72 234.56 72.66 240.02 72.6C245.48 72.6 248.54 72.54 249.2 72.54C250.04 72.54 250.76 73.08 251.3 74.28C252.14 76.08 252.32 77.82 251.84 79.56C251.66 80.16 251.18 80.64 250.4 80.88C249.5 81.24 246.38 81.54 241.04 81.66C235.64 81.84 232.88 81.9 232.64 81.9L231.62 82.08ZM228.86 47.1C221.96 47.1 218.18 47.1 217.58 47.04C216.32 47.04 213.8 46.8 210.02 46.38C209.72 46.38 209.3 46.26 208.7 46.08C208.1 45.96 207.68 45.84 207.38 45.84C206.18 45.72 205.52 45.06 205.52 43.86V38.34C205.88 38.28 206.36 38.16 207.08 38.04C207.74 37.92 208.34 37.8 208.88 37.68C209.42 37.62 209.96 37.56 210.44 37.56C213.08 37.56 216.86 37.62 221.66 37.8C222.5 37.8 223.76 37.92 225.38 38.04C227 38.16 228.2 38.28 228.92 38.28C229.52 38.34 230.78 38.4 232.7 38.4C234.62 38.46 236.12 38.52 237.2 38.58C238.28 38.7 239.96 39 242.24 39.6C242.96 39.84 243.44 40.14 243.62 40.62C243.8 41.1 243.86 41.76 243.74 42.54C243.38 45 243.08 46.68 242.84 47.52C242.48 48.6 241.82 49.62 240.86 50.46C240.5 50.82 240.08 51.12 239.72 51.36C239.3 51.66 238.82 51.96 238.22 52.32C237.62 52.68 237.2 52.98 236.96 53.1C241.52 56.58 244.16 58.5 244.88 58.92C245.24 59.22 245.48 59.46 245.54 59.7C245.6 59.94 245.54 60.3 245.3 60.66C245 61.14 244.64 61.8 244.22 62.64C243.74 63.48 243.38 64.14 243.14 64.5C242.66 65.28 241.88 65.82 240.68 66.12C239.48 66.42 238.34 66.42 237.32 66.12C236.6 65.94 235.94 65.7 235.22 65.34C234.5 64.98 233.9 64.68 233.48 64.38C233 64.08 232.4 63.66 231.62 63.12L229.94 61.98C228.92 61.38 227.84 60.78 226.7 60.3C225.62 59.94 224.3 60.18 222.74 61.02C220.52 62.22 217.88 63.78 214.88 65.7C214.52 65.94 214.16 66.06 213.86 66.18C213.5 66.3 213.14 66.3 212.78 66.3C212.36 66.3 212.06 66.24 211.82 66.24C211.58 66.24 211.22 66.18 210.74 66.06C210.2 65.94 209.9 65.88 209.78 65.82C208.22 65.52 207.02 64.98 206.3 64.14C205.58 63.3 205.28 62.4 205.4 61.38C205.52 60.42 206.06 59.4 206.9 58.32C207.14 58.08 207.44 57.78 207.86 57.54C208.28 57.3 208.7 57.06 209.06 56.94C209.42 56.82 209.9 56.7 210.5 56.46C211.1 56.22 211.52 56.04 211.76 55.92C212.6 55.62 213.86 55.14 215.6 54.54C217.28 53.94 218.6 53.46 219.44 53.1C220.28 52.74 221.54 52.2 223.16 51.48C224.78 50.76 225.74 50.28 226.1 50.16C226.7 49.92 227.24 49.5 227.66 49.02C228.02 48.54 228.44 47.88 228.86 47.1Z" fill="white"/>
<rect x="270.5" y="0.5" width="90" height="120" fill="#FF961E"/>
<rect x="270.5" y="0.5" width="90" height="120" stroke="black"/>
<path d="M315.2 88.5C314.18 88.38 310.76 88.2 304.94 87.96C299.06 87.72 295.58 87.48 294.44 87.36C294.08 87.36 293.48 87.36 292.76 87.42C291.98 87.48 291.38 87.48 291.02 87.42C290.72 87.42 290.42 87.3 290.06 87.06C289.7 86.88 289.52 86.7 289.52 86.46C289.16 84.6 288.92 82.32 288.74 79.56C288.68 79.44 288.74 79.26 288.98 79.02C289.22 78.78 289.4 78.66 289.58 78.6C290.9 78.36 293.24 78 296.6 77.64C299.9 77.28 303.44 76.98 307.16 76.62C310.88 76.32 313.22 76.08 314.18 75.96C316.1 75.78 319.94 75.6 325.7 75.48C331.46 75.36 334.52 75.3 335 75.3C335.36 75.3 335.96 75.24 336.74 75.18C337.52 75.12 338.12 75.06 338.48 75.06C338.84 75.06 339.44 75.06 340.22 75.06C342.14 75.24 342.86 76.26 342.38 78.18C341.72 80.46 341 82.86 340.16 85.38C339.98 85.92 339.56 86.34 338.84 86.58C337.88 86.94 336.86 87.18 335.84 87.24C334.28 87.42 330.86 87.66 325.64 87.9C320.36 88.14 316.88 88.38 315.2 88.5ZM337.1 69.48C332.9 69.48 330.62 69.54 330.2 69.54C329.72 69.54 328.52 69.66 326.72 69.84C326.12 69.96 325.76 69.9 325.52 69.66C325.28 69.42 325.16 69.06 325.16 68.46C325.16 68.16 325.22 66.36 325.22 63.12C323.6 63.36 322.76 63.48 322.7 63.48C318.86 64.62 314.24 65.28 308.84 65.46C307.58 65.52 304.46 65.7 299.48 66.06C298.82 66.12 298.16 65.82 297.5 65.1C296.84 64.44 296.48 63.66 296.36 62.82C296.12 60.9 296.06 59.16 296.06 57.6C296.06 57.36 296.12 57.06 296.36 56.7C296.54 56.34 296.72 56.16 296.96 56.04C299.12 55.44 300.86 55.08 302.18 54.96C304.34 54.84 307.52 54.72 311.66 54.54C315.8 54.42 318.38 54.3 319.34 54.24C319.34 54.24 320.12 54.06 321.68 53.58C321.5 53.46 321.26 53.22 321.02 52.92C320.78 52.62 320.54 52.38 320.36 52.2C320.18 52.08 320 51.96 319.82 51.9C317.9 51.42 316.04 51.12 314.12 50.88C310.16 50.52 306.86 50.28 304.22 50.22C302.78 50.22 299.66 50.28 294.92 50.52C293.84 50.58 293.3 50.16 293.3 49.32C293.06 45.36 293 42.96 293 42.24C293 40.68 292.76 39.84 292.4 39.66V39.3C293.18 39.12 293.6 39 293.66 39C300.38 39 304.34 39 305.42 39C308 39.18 312.26 39.6 318.26 40.32C321.92 40.8 326.06 41.34 330.68 42.06C332.48 42.3 334.22 43.38 335.96 45.24C337.7 47.1 338.54 48.9 338.48 50.7V51.6C338.24 57.48 337.82 61.86 337.16 64.74C337.04 65.16 336.98 65.64 336.98 66.12C336.98 66.6 336.98 67.2 337.04 67.92C337.04 68.64 337.1 69.12 337.1 69.48Z" fill="white"/>
<rect x="360.5" y="30.5" width="90" height="120" fill="#FF961E"/>
<rect x="360.5" y="30.5" width="90" height="120" stroke="black"/>
<path d="M421.1 119.22C419.18 119.22 417.86 118.92 417.14 118.2C416.42 117.48 416.06 116.16 415.94 114.18C415.64 108.6 415.52 104.76 415.52 102.66C415.52 99.72 415.7 90.42 416.12 74.82C416.12 74.4 416.18 73.92 416.3 73.44C416.36 72.96 416.42 72.54 416.54 72.18C416.6 71.82 416.72 71.4 416.9 70.8C417.02 70.2 417.14 69.78 417.26 69.42C417.38 68.94 417.62 68.58 418.04 68.46C418.16 68.46 418.58 68.34 419.24 68.16C419.9 67.98 420.38 67.86 420.62 67.8C420.86 67.74 421.22 67.68 421.82 67.56C422.36 67.44 422.78 67.44 423.14 67.44C423.5 67.44 423.92 67.5 424.4 67.62C424.88 67.74 425.3 67.86 425.78 68.04C426.92 68.64 427.58 69.72 427.7 71.28C427.7 72 427.76 74.4 427.82 78.54C427.82 82.68 427.94 85.26 428.06 86.28C428.18 87 428.6 87.78 429.32 88.56C429.68 88.98 430.04 89.4 430.46 89.82C430.88 90.3 431.36 90.78 431.9 91.26C432.38 91.8 432.8 92.22 433.16 92.46C433.64 92.94 433.94 93.48 434.18 94.02C434.42 94.62 434.48 95.28 434.42 96C434.36 96.72 434.3 97.26 434.24 97.62C434.12 97.98 434 98.64 433.76 99.48C433.4 100.92 432.14 101.7 429.98 101.7C428.84 101.7 428.12 101.88 427.88 102.18C427.58 102.54 427.46 103.32 427.52 104.64C427.52 105.54 427.52 107.16 427.58 109.44C427.64 111.72 427.7 113.28 427.7 114.06C427.7 115.68 427.28 116.76 426.32 117.3C423.92 118.62 422.18 119.28 421.1 119.22ZM392.84 99.48C392.84 99.6 392.78 100.08 392.78 100.92C392.78 101.76 392.72 102.36 392.72 102.66C396.56 102.24 400.94 102.36 405.8 103.08C406.4 103.2 406.88 103.5 407.18 103.92C407.42 104.4 407.54 104.94 407.48 105.66C407.42 106.38 407.3 107.04 407.18 107.58C407.06 108.18 406.82 108.9 406.58 109.74C406.28 110.58 406.1 111.18 406.1 111.42C405.74 112.56 404.84 113.28 403.52 113.64C403.16 113.76 402.26 114 400.76 114.42C399.26 114.84 398.24 115.08 397.76 115.2C397.28 115.32 396.38 115.44 395.12 115.68C393.8 115.92 392.78 116.1 392.06 116.1C391.34 116.1 390.44 116.1 389.42 115.98C388.34 115.86 387.38 115.68 386.48 115.38C386 115.26 385.16 114.9 383.84 114.42C382.52 113.94 381.56 113.58 380.84 113.22C379.64 112.74 379.04 111.6 379.16 109.86C379.16 108.18 379.4 105.96 379.82 103.2C380.18 100.44 380.42 98.22 380.48 96.48C380.36 92.64 381.44 90.66 383.78 90.66C384.8 90.66 386.24 90.72 388.04 90.9C389.84 91.08 391.46 91.14 392.96 91.08C394.4 91.02 395.78 90.72 397.1 90.18C397.1 90.18 397.1 89.7 396.98 88.8C396.86 87.96 396.74 87.06 396.62 86.1C396.5 85.14 396.44 84.66 396.44 84.6C396.44 84.54 396.38 84.42 396.26 84.3C396.14 84.18 396.02 84.06 395.96 84.06C392.96 83.46 391.04 83.16 390.32 83.1C389.84 83.1 389.12 83.1 388.28 83.22C387.44 83.34 386.84 83.4 386.48 83.4C384.74 83.4 382.52 83.34 379.82 83.22C379.58 83.22 379.34 83.16 379.22 83.04C379.04 82.92 378.92 82.8 378.8 82.56C378.68 82.32 378.62 82.14 378.62 81.96C378.62 81.84 378.56 81.6 378.56 81.3C378.5 81 378.5 80.76 378.5 80.64C378.38 80.22 378.32 79.8 378.32 79.44C378.32 79.08 378.32 78.66 378.44 78.3C378.5 77.94 378.56 77.7 378.62 77.46C378.62 77.22 378.74 76.92 378.92 76.5C379.04 76.14 379.16 75.84 379.28 75.66C379.34 75.54 379.52 75.18 379.82 74.7C380.06 74.22 380.24 73.92 380.36 73.68C380.48 73.5 381.02 73.32 382.04 73.14C386.36 72.42 389 72.06 389.96 71.94C390.62 71.94 391.58 72 392.84 72.18C394.04 72.36 394.88 72.42 395.36 72.42C395.96 72.48 396.8 72.48 398 72.42C399.2 72.36 400.1 72.36 400.7 72.36C401.96 72.42 403.22 72.72 404.54 73.2C405.8 73.68 406.94 74.46 407.9 75.54C408.86 76.62 409.28 77.82 409.28 79.2C409.22 80.4 409.28 82.62 409.46 85.74C409.58 88.86 409.64 91.08 409.64 92.28C409.64 92.82 409.58 93.3 409.46 93.66C409.34 94.08 409.28 94.38 409.22 94.56C409.1 94.74 408.98 95.04 408.74 95.46C408.5 95.94 408.26 96.3 408.14 96.54C407.9 97.02 407.42 97.44 406.76 97.68C403.16 99.12 400.22 99.6 397.94 99.12C397.16 99.06 396.62 99.06 396.26 99.06C395.9 99.06 395.36 99.18 394.58 99.3C393.74 99.42 393.2 99.48 392.84 99.48Z" fill="white"/>
</svg>
