<svg width="181" height="151" viewBox="0 0 181 151" fill="none" xmlns="http://www.w3.org/2000/svg">
<rect x="0.5" y="30.5" width="90" height="120" fill="#FF961E"/>
<rect x="0.5" y="30.5" width="90" height="120" stroke="black"/>
<path d="M61.88 120.056C59.864 120.056 58.478 119.741 57.722 118.985C56.966 118.229 56.588 116.843 56.462 114.764C56.147 108.905 56.021 104.873 56.021 102.668C56.021 99.581 56.21 89.816 56.651 73.436C56.651 72.995 56.714 72.491 56.84 71.987C56.903 71.483 56.966 71.042 57.092 70.664C57.155 70.286 57.281 69.845 57.47 69.215C57.596 68.585 57.722 68.144 57.848 67.766C57.974 67.262 58.226 66.884 58.667 66.758C58.793 66.758 59.234 66.632 59.927 66.443C60.62 66.254 61.124 66.128 61.376 66.065C61.628 66.002 62.006 65.939 62.636 65.813C63.203 65.687 63.644 65.687 64.022 65.687C64.4 65.687 64.841 65.75 65.345 65.876C65.849 66.002 66.29 66.128 66.794 66.317C67.991 66.947 68.684 68.081 68.81 69.719C68.81 70.475 68.873 72.995 68.936 77.342C68.936 81.689 69.062 84.398 69.188 85.469C69.314 86.225 69.755 87.044 70.511 87.863C70.889 88.304 71.267 88.745 71.708 89.186C72.149 89.69 72.653 90.194 73.22 90.698C73.724 91.265 74.165 91.706 74.543 91.958C75.047 92.462 75.362 93.029 75.614 93.596C75.866 94.226 75.929 94.919 75.866 95.675C75.803 96.431 75.74 96.998 75.677 97.376C75.551 97.754 75.425 98.447 75.173 99.329C74.795 100.841 73.472 101.66 71.204 101.66C70.007 101.66 69.251 101.849 68.999 102.164C68.684 102.542 68.558 103.361 68.621 104.747C68.621 105.692 68.621 107.393 68.684 109.787C68.747 112.181 68.81 113.819 68.81 114.638C68.81 116.339 68.369 117.473 67.361 118.04C64.841 119.426 63.014 120.119 61.88 120.056ZM24.962 95.234C24.458 95.171 23.765 95.045 23.009 94.919C22.253 94.793 21.56 94.667 20.993 94.541C20.363 94.415 19.859 94.352 19.355 94.226C18.221 94.1 17.654 93.596 17.591 92.714C17.339 90.446 17.024 87.737 16.646 84.461C17.15 84.461 17.843 84.335 18.725 84.209C19.607 84.083 20.3 84.02 20.867 83.894C21.434 83.831 22.064 83.768 22.82 83.768C23.576 83.768 24.269 83.831 24.899 83.957C25.529 84.083 25.97 84.083 26.348 84.083C26.663 84.083 27.167 84.083 27.797 83.957C28.427 83.894 28.931 83.831 29.309 83.831C29.687 83.831 30.38 83.831 31.325 83.831C32.27 83.831 33.026 83.768 33.53 83.768C34.034 83.768 35.735 83.642 38.696 83.453C41.657 83.327 43.925 83.201 45.563 83.138C47.453 83.138 48.587 83.327 49.028 83.768C49.406 84.272 49.532 85.406 49.343 87.296C49.091 89.438 48.776 91.202 48.335 92.651C48.209 92.84 48.083 93.029 47.894 93.155C47.642 93.344 47.39 93.533 47.012 93.722C46.634 93.911 46.382 94.037 46.256 94.1C46.445 94.856 46.823 96.053 47.453 97.628C48.02 99.203 48.461 100.589 48.776 101.849C49.028 103.109 49.154 104.369 49.028 105.629C48.65 110.354 46.697 113.882 43.295 116.213C41.909 117.221 40.208 117.536 38.066 117.284C35.42 117.032 31.262 116.276 25.718 115.079C22.19 114.386 20.237 112.118 19.796 108.338C19.166 103.487 20.426 99.581 23.639 96.683C23.639 96.683 24.08 96.179 24.962 95.234ZM34.286 109.346C37.688 109.346 39.893 108.023 40.838 105.377C41.09 104.558 41.027 103.613 40.649 102.479C40.271 101.408 39.704 100.841 39.074 100.778C36.365 100.463 34.349 100.337 32.963 100.463C31.388 100.589 30.191 101.156 29.435 102.038C28.679 102.92 28.301 104.18 28.427 105.692C28.427 106.889 28.742 107.582 29.246 107.771C29.75 108.023 31.388 108.527 34.286 109.346ZM40.46 79.421C36.554 81.059 32.774 81.437 29.246 80.618C27.104 80.114 25.34 79.358 23.828 78.35C23.576 78.224 23.45 77.972 23.324 77.594C23.198 77.279 23.072 76.838 23.009 76.271C22.883 75.704 22.82 75.326 22.82 75.074C22.568 74.192 22.379 73.625 22.379 73.247C22.19 72.869 22.127 72.554 22.253 72.302C22.379 72.05 22.694 71.924 23.324 71.924C23.828 71.924 24.521 71.735 25.529 71.483C26.474 71.231 27.167 71.105 27.545 71.042C32.207 70.538 35.609 70.286 37.751 70.223C38.129 70.223 38.507 70.349 38.759 70.601C39.011 70.853 39.2 71.105 39.263 71.294C39.326 71.546 39.389 71.924 39.515 72.428C39.641 72.932 39.704 73.247 39.704 73.31C39.83 73.94 39.893 74.507 40.019 75.137C40.082 75.767 40.145 76.586 40.208 77.468C40.271 78.35 40.334 79.043 40.46 79.421Z" fill="white"/>
<rect x="90.5" y="0.5" width="90" height="120" fill="#FF961E"/>
<rect x="90.5" y="0.5" width="90" height="120" stroke="black"/>
<path d="M153.329 63.155C152.762 63.092 152.195 63.029 151.691 62.966C151.313 62.966 150.683 62.903 149.927 62.84C149.171 62.84 148.604 62.777 148.352 62.777C147.596 62.777 147.092 62.714 146.777 62.588C146.462 62.525 146.21 62.399 146.021 62.273C145.769 62.147 145.643 61.958 145.517 61.706C145.391 61.517 145.265 61.265 145.265 60.95C145.139 60.761 145.076 60.383 145.013 59.879C144.887 59.501 144.824 59.123 144.824 58.808C144.698 58.304 144.635 57.926 144.635 57.674C144.572 57.233 144.572 56.855 144.698 56.54C144.824 56.225 145.013 55.973 145.328 55.721C145.58 55.595 145.895 55.406 146.336 55.28C146.714 55.154 147.281 55.091 148.037 55.028C148.415 55.028 148.982 54.965 149.738 54.902C150.494 54.839 151.124 54.776 151.502 54.713C151.88 54.713 152.195 54.713 152.384 54.65C152.762 54.65 153.014 54.587 153.203 54.461C153.266 54.461 153.329 54.398 153.455 54.272C153.455 54.209 153.518 54.146 153.644 54.02C153.644 53.957 153.644 53.894 153.644 53.768C153.644 53.642 153.707 53.138 153.707 52.193V51.374V50.555V48.917C153.581 48.98 153.518 48.98 153.455 48.98H153.203C153.077 49.043 153.014 49.043 152.951 49.043C152.195 49.169 151.628 49.232 151.313 49.232C149.297 49.358 148.163 49.484 147.911 49.484C147.785 49.484 147.659 49.547 147.47 49.547C147.281 49.61 147.155 49.61 147.092 49.61C146.714 49.673 146.399 49.673 146.273 49.61C146.147 49.61 146.021 49.61 145.895 49.547C145.769 49.484 145.643 49.358 145.58 49.232C145.454 49.169 145.391 49.043 145.328 48.917C145.076 48.539 144.887 47.846 144.761 46.964C144.635 46.208 144.572 45.578 144.635 44.948C144.635 44.633 144.635 44.318 144.761 43.94C144.824 43.562 144.95 43.184 145.076 42.932C145.076 42.806 145.139 42.743 145.265 42.617C145.328 42.554 145.454 42.491 145.58 42.365C145.643 42.365 145.769 42.302 145.895 42.239C146.147 42.176 146.777 42.113 147.848 41.987C148.226 41.987 148.856 41.987 149.738 41.924C150.62 41.924 151.187 41.861 151.502 41.861C152.132 41.861 152.825 41.798 153.455 41.672C153.455 41.357 153.455 40.979 153.518 40.475C153.518 39.908 153.518 39.467 153.581 39.152C153.581 38.711 153.644 38.27 153.77 37.892C153.833 37.514 153.959 37.073 154.148 36.632C154.274 36.317 154.4 35.939 154.652 35.498C154.841 35.057 155.03 34.679 155.219 34.427C155.345 34.301 155.471 34.175 155.597 34.049C155.723 33.923 155.912 33.86 156.101 33.797C156.353 33.734 156.731 33.734 157.172 33.797C157.487 33.923 157.865 33.986 158.306 33.986C158.432 33.986 158.558 34.049 158.684 34.049C158.747 34.049 158.81 34.112 158.936 34.112C158.999 34.112 159.062 34.175 159.125 34.175C159.188 34.175 159.314 34.238 159.503 34.238C160.007 34.364 160.448 34.49 160.7 34.616C160.952 34.868 161.204 35.12 161.393 35.435C161.519 35.75 161.645 36.128 161.708 36.632C161.708 36.947 161.708 37.451 161.708 38.081C161.708 38.774 161.771 39.278 161.834 39.656C161.834 40.349 161.897 41.357 161.96 42.68C161.96 43.814 162.023 44.822 162.086 45.704C162.086 46.208 162.149 46.775 162.275 47.279C162.338 48.161 162.401 48.728 162.401 48.854C162.401 49.421 162.464 49.925 162.464 50.429C162.464 51.059 162.401 51.752 162.338 52.634C162.212 53.264 162.149 54.02 162.086 54.776C161.96 55.847 161.834 56.603 161.834 56.981C161.771 57.359 161.708 57.8 161.708 58.304C161.645 58.997 161.645 59.438 161.645 59.627C161.582 60.131 161.519 60.572 161.456 60.95C161.393 61.328 161.33 61.643 161.267 62.021C161.141 62.273 161.078 62.651 161.015 63.092C160.889 63.596 160.763 63.911 160.637 64.1C160.448 64.604 160.196 64.919 159.944 65.171C159.692 65.423 159.314 65.612 158.873 65.738C158.747 65.801 158.369 65.927 157.739 66.179C157.361 66.305 157.046 66.431 156.794 66.494C156.542 66.62 156.29 66.683 155.912 66.683C155.408 66.809 155.093 66.872 154.967 66.872C154.715 66.935 154.463 66.935 154.274 66.872C154.022 66.809 153.896 66.683 153.77 66.494C153.644 66.368 153.581 66.116 153.518 65.801C153.518 65.675 153.455 65.36 153.455 64.919C153.455 64.73 153.392 64.415 153.392 64.037L153.329 63.155ZM126.869 67.124C122.144 67.25 117.86 66.242 113.954 64.037C111.56 62.651 109.922 60.446 109.166 57.296C108.158 53.579 108.032 50.555 108.788 48.161C109.166 46.901 109.796 45.704 110.615 44.57C112.19 42.428 113.576 40.79 114.773 39.656C116.537 38.018 118.868 37.388 121.64 37.703C125.231 38.207 129.074 39.656 133.106 42.05C135.374 43.436 136.76 45.452 137.264 48.224C137.957 52.634 138.02 56.162 137.39 58.934C136.76 61.58 135.563 63.659 133.736 65.171C131.909 66.683 129.641 67.376 126.869 67.124ZM120.002 53.705C120.758 56.225 121.262 57.611 121.451 57.926C121.577 58.178 121.766 58.43 122.081 58.682C122.396 58.934 122.648 59.06 122.9 59.06C124.286 58.934 125.483 58.619 126.428 57.989C127.31 57.359 127.94 56.54 128.192 55.469C128.444 54.398 128.192 53.075 127.436 51.563C126.302 49.358 124.538 48.602 122.144 49.295C120.758 49.673 120.065 51.185 120.002 53.705ZM142.871 85.205C143.879 85.205 144.761 84.827 145.517 83.945C146.273 83.126 146.651 82.118 146.651 80.858C146.651 79.094 145.643 78.023 143.753 77.582C141.674 77.204 137.579 76.952 131.468 76.952H131.405C130.775 76.952 130.271 77.078 129.83 77.267C129.389 77.519 129.011 77.834 128.759 78.275C128.507 78.716 128.318 79.094 128.192 79.409C128.066 79.787 127.94 80.228 127.814 80.858C127.688 81.173 127.688 81.425 127.688 81.677C127.688 82.37 127.877 82.937 128.381 83.315C128.885 83.756 129.452 84.008 130.208 84.134C130.901 84.323 131.846 84.449 133.106 84.575C134.303 84.701 135.374 84.827 136.319 84.827C137.201 84.89 138.398 84.953 139.847 85.016C141.296 85.142 142.241 85.205 142.682 85.205H142.871ZM133.61 70.526C136.004 70.526 138.902 70.778 142.178 71.156C145.454 71.534 148.226 72.038 150.494 72.668C154.337 73.802 156.479 75.818 156.92 78.716C157.046 79.472 157.109 80.165 157.109 80.795C157.109 83.63 155.975 85.898 153.77 87.536C152.258 88.67 150.998 89.615 149.99 90.245C148.982 90.875 147.785 91.505 146.273 92.072C144.761 92.702 143.249 93.017 141.737 93.017C141.107 93.017 139.595 93.143 137.138 93.269C134.681 93.395 133.043 93.458 132.224 93.458C131.027 93.458 129.956 93.395 129.074 93.206C128.822 93.206 128.57 93.206 128.192 93.08C126.428 92.828 125.042 92.576 124.16 92.387C123.215 92.198 122.081 91.82 120.758 91.19C119.435 90.623 118.301 89.867 117.419 88.922C115.718 87.284 114.899 85.772 114.899 84.323C114.899 81.425 115.277 79.22 116.159 77.771C118.49 73.865 123.341 71.471 130.649 70.715C131.594 70.589 132.602 70.526 133.61 70.526Z" fill="white"/>
</svg>
