<svg width="361" height="151" viewBox="0 0 361 151" fill="none" xmlns="http://www.w3.org/2000/svg">
<rect x="0.5" y="0.5" width="90" height="120" fill="#FF961E"/>
<rect x="0.5" y="0.5" width="90" height="120" stroke="black"/>
<path d="M20.96 39.54C23.36 39.54 27.02 39.48 32 39.42C36.98 39.36 40.76 39.3 43.34 39.24C44.9 39.24 46.1 39.48 46.94 40.08C47.72 40.68 48.38 41.76 48.86 43.32C49.82 46.5 50.3 48.66 50.42 49.8C50.42 50.94 50.42 51.72 50.42 52.2C50.42 52.68 50.36 53.52 50.24 54.6C50.12 55.74 50 56.52 50 57C49.7 60.9 49.52 63.12 49.52 63.66C49.46 65.1 48.92 66.3 47.96 67.2C47 68.16 45.8 68.64 44.36 68.7C41.72 68.82 39.74 68.34 38.48 67.14C37.64 66.42 37.22 65.7 37.22 65.1C37.1 63.9 36.98 60.6 36.8 55.08C36.8 54 36.62 53.34 36.32 53.04C35.96 52.8 35.3 52.62 34.28 52.62C33.68 52.62 32.84 52.68 31.7 52.68C30.56 52.68 29.54 52.68 28.7 52.68C27.86 52.68 27.02 52.62 26.24 52.5C23.9 52.26 21.8 51.72 20 50.76C19.76 50.64 19.64 50.4 19.52 50.04C19.4 49.68 19.34 49.2 19.28 48.54C19.16 47.88 19.1 47.46 19.1 47.28C18.98 46.92 18.68 45.06 18.2 41.76C18.14 41.76 18.08 41.7 18.08 41.52C18.08 41.4 18.08 41.22 18.14 40.98C18.2 40.8 18.32 40.62 18.5 40.38C18.62 40.14 18.92 39.96 19.34 39.78C19.76 39.66 20.3 39.54 20.96 39.54ZM67.1 58.5V66.24C67.1 66.9 66.98 68.1 66.86 69.78C66.74 70.74 66.14 71.28 65.18 71.28C63.02 71.34 61.22 71.34 59.66 71.22C58.76 71.22 57.98 70.86 57.38 70.26C56.78 69.66 56.42 68.94 56.42 68.1C56.36 64.62 56.36 60.3 56.42 55.14C56.42 54.84 56.42 52.5 56.54 48.12C56.6 43.8 56.66 41.1 56.72 40.14C56.72 38.94 57.14 38.16 57.98 37.68C58.16 37.56 58.52 37.38 59.06 37.08C59.6 36.84 60.02 36.6 60.32 36.48C60.56 36.36 60.92 36.24 61.4 36.06C61.88 35.88 62.3 35.76 62.72 35.7C63.14 35.64 63.56 35.64 64.04 35.64C64.76 35.7 65.3 35.76 65.66 35.88C66.5 36.24 66.92 36.84 66.92 37.74C66.92 38.52 66.92 40.5 67.04 43.74C67.16 46.98 67.22 48.9 67.34 49.5C67.4 49.98 67.76 50.28 68.48 50.34C71.36 50.58 72.98 50.7 73.34 50.76C74.18 51 74.72 51.66 74.84 52.86C75.02 54.66 74.72 56.28 73.88 57.66C73.64 58.08 72.92 58.38 71.84 58.5H67.1ZM42.44 80.58C50.6 80.1 55.22 79.86 56.24 79.74C57.26 79.68 58.46 79.56 59.9 79.44C61.34 79.32 62.54 79.2 63.5 79.08C64.46 78.96 65.3 78.9 65.9 78.9C66.68 78.9 67.28 79.92 67.64 81.84C67.7 82.26 67.76 83.1 67.76 84.3C67.76 85.68 67.4 87.06 66.68 88.5C66.44 88.92 65.9 89.22 65.06 89.34C64.22 89.46 61.4 89.64 56.6 89.88C51.8 90.12 48.98 90.3 48.08 90.42C47.84 90.48 47.66 90.48 47.42 90.48C46.4 90.48 44.24 90.54 40.94 90.6C37.64 90.66 35.24 90.72 33.74 90.78C33.38 90.78 32.72 90.84 31.88 90.9C31.04 90.96 30.38 90.96 29.96 90.96C28.58 90.96 27.44 90.72 26.6 90.18C26.3 90.06 26.06 89.76 25.82 89.4C25.58 89.04 25.52 88.74 25.52 88.38C25.34 86.64 25.22 84.18 25.1 80.94C24.98 77.7 24.86 75.48 24.8 74.22L24.74 73.38C24.74 72.78 24.74 72.24 24.74 71.64L24.68 70.8C24.8 70.8 25.1 70.74 25.64 70.62C26.18 70.5 26.54 70.38 26.72 70.32C27.14 70.26 28.1 70.2 29.6 70.2C31.34 70.2 32.42 70.32 32.9 70.44C33.38 70.62 33.62 70.92 33.62 71.34C33.62 71.52 33.68 71.94 33.8 72.54C33.92 73.14 34.04 73.56 34.04 73.74C34.04 74.4 34.16 75.6 34.52 77.4C34.52 77.64 34.58 78.18 34.7 78.96C34.76 79.74 34.88 80.4 35.06 81L42.44 80.58Z" fill="white"/>
<rect x="90.5" y="0.5" width="90" height="120" fill="#FF961E"/>
<rect x="90.5" y="0.5" width="90" height="120" stroke="black"/>
<path d="M126.32 70.02C120.98 70.02 118.16 70.02 117.8 69.96C115.82 69.96 114.44 69.6 113.66 68.82C112.82 68.04 112.22 66.6 111.8 64.5C111.68 64.08 111.5 63.24 111.26 62.04C110.96 60.84 110.72 59.82 110.6 58.98C110.48 58.14 110.42 57.36 110.48 56.52C110.72 51.6 111.74 47.34 113.6 43.68C113.96 42.96 114.32 42.42 114.74 41.94C115.16 41.46 115.64 41.16 116.24 40.92C116.78 40.68 117.26 40.56 117.68 40.44C118.1 40.38 118.76 40.32 119.6 40.2C119.84 40.2 120.68 40.14 122 40.02C123.32 39.9 124.1 39.78 124.4 39.78C124.7 39.78 125.54 39.72 126.86 39.6C128.18 39.48 129.02 39.48 129.32 39.48C129.56 39.54 130.4 39.54 131.72 39.54C132.44 39.6 133.16 39.78 133.88 40.02C134.6 40.26 135.56 40.68 136.64 41.16C137.72 41.64 138.44 42 138.8 42.12C138.98 42.24 139.1 42.66 139.16 43.38C139.16 43.8 139.22 44.22 139.34 44.7C139.4 45.18 139.46 45.54 139.46 45.66C139.46 45.84 139.4 46.26 139.34 46.98C139.22 47.46 138.98 47.94 138.5 48.42C138.02 48.9 137.54 49.26 137.06 49.5C134.42 50.58 131.48 50.88 128.12 50.28C127.94 50.28 127.34 50.16 126.32 49.92C125.24 49.68 124.46 49.5 123.92 49.5C123.32 49.56 122.72 49.74 122.12 49.98C121.52 50.28 121.1 50.64 120.92 51C120.74 51.36 120.62 52.02 120.56 53.1C120.5 54.18 120.5 55.44 120.56 56.88L120.62 59.04C120.62 59.16 120.68 59.22 120.86 59.34C120.98 59.46 121.16 59.52 121.34 59.52C124.7 59.64 126.74 59.64 127.46 59.58C128.18 59.52 128.9 59.4 129.74 59.28C130.52 59.16 131.42 59.04 132.44 58.86C133.46 58.68 134.24 58.56 134.78 58.44C134.96 58.44 135.26 58.44 135.68 58.44C136.04 58.44 136.46 58.44 136.88 58.44C137.3 58.44 137.72 58.44 138.08 58.44C138.44 58.5 138.68 58.62 138.74 58.74C138.86 58.98 138.92 59.34 138.92 59.82C138.92 60.3 138.86 60.72 138.8 61.02C138.68 61.32 138.56 61.74 138.44 62.22C138.32 62.7 138.2 63.06 138.2 63.3C138.08 63.72 138.08 63.96 138.08 64.08C138.08 64.2 138.02 64.32 137.96 64.44C137.9 64.56 137.84 64.68 137.84 64.68C137.84 64.68 137.78 64.8 137.66 64.98C137.54 65.22 137.48 65.46 137.36 65.7C136.28 67.86 134.24 69.12 131.18 69.6C130.94 69.66 129.32 69.84 126.32 70.08V70.02ZM157.1 58.5V66.24C157.1 66.9 156.98 68.1 156.86 69.78C156.74 70.74 156.14 71.28 155.18 71.28C153.02 71.34 151.22 71.34 149.66 71.22C148.76 71.22 147.98 70.86 147.38 70.26C146.78 69.66 146.42 68.94 146.42 68.1C146.36 64.62 146.36 60.3 146.42 55.14C146.42 54.84 146.42 52.5 146.54 48.12C146.6 43.8 146.66 41.1 146.72 40.14C146.72 38.94 147.14 38.16 147.98 37.68C148.16 37.56 148.52 37.38 149.06 37.08C149.6 36.84 150.02 36.6 150.32 36.48C150.56 36.36 150.92 36.24 151.4 36.06C151.88 35.88 152.3 35.76 152.72 35.7C153.14 35.64 153.56 35.64 154.04 35.64C154.76 35.7 155.3 35.76 155.66 35.88C156.5 36.24 156.92 36.84 156.92 37.74C156.92 38.52 156.92 40.5 157.04 43.74C157.16 46.98 157.22 48.9 157.34 49.5C157.4 49.98 157.76 50.28 158.48 50.34C161.36 50.58 162.98 50.7 163.34 50.76C164.18 51 164.72 51.66 164.84 52.86C165.02 54.66 164.72 56.28 163.88 57.66C163.64 58.08 162.92 58.38 161.84 58.5H157.1ZM132.44 80.58C140.6 80.1 145.22 79.86 146.24 79.74C147.26 79.68 148.46 79.56 149.9 79.44C151.34 79.32 152.54 79.2 153.5 79.08C154.46 78.96 155.3 78.9 155.9 78.9C156.68 78.9 157.28 79.92 157.64 81.84C157.7 82.26 157.76 83.1 157.76 84.3C157.76 85.68 157.4 87.06 156.68 88.5C156.44 88.92 155.9 89.22 155.06 89.34C154.22 89.46 151.4 89.64 146.6 89.88C141.8 90.12 138.98 90.3 138.08 90.42C137.84 90.48 137.66 90.48 137.42 90.48C136.4 90.48 134.24 90.54 130.94 90.6C127.64 90.66 125.24 90.72 123.74 90.78C123.38 90.78 122.72 90.84 121.88 90.9C121.04 90.96 120.38 90.96 119.96 90.96C118.58 90.96 117.44 90.72 116.6 90.18C116.3 90.06 116.06 89.76 115.82 89.4C115.58 89.04 115.52 88.74 115.52 88.38C115.34 86.64 115.22 84.18 115.1 80.94C114.98 77.7 114.86 75.48 114.8 74.22L114.74 73.38C114.74 72.78 114.74 72.24 114.74 71.64L114.68 70.8C114.8 70.8 115.1 70.74 115.64 70.62C116.18 70.5 116.54 70.38 116.72 70.32C117.14 70.26 118.1 70.2 119.6 70.2C121.34 70.2 122.42 70.32 122.9 70.44C123.38 70.62 123.62 70.92 123.62 71.34C123.62 71.52 123.68 71.94 123.8 72.54C123.92 73.14 124.04 73.56 124.04 73.74C124.04 74.4 124.16 75.6 124.52 77.4C124.52 77.64 124.58 78.18 124.7 78.96C124.76 79.74 124.88 80.4 125.06 81L132.44 80.58Z" fill="white"/>
<rect x="180.5" y="0.5" width="90" height="120" fill="#FF961E"/>
<rect x="180.5" y="0.5" width="90" height="120" stroke="black"/>
<path d="M207.68 53.94C203.6 53.22 201.38 52.8 200.96 52.68C199.7 52.44 199.1 51.78 199.16 50.64V46.62C201.02 45.9 203.06 45.48 205.34 45.24C207.62 45.06 209.54 45 211.16 45.06C212.72 45.18 214.88 45.36 217.52 45.66C218.24 45.78 219.02 45.78 219.86 45.78C220.7 45.78 221.66 45.78 222.8 45.78C223.94 45.78 224.84 45.72 225.44 45.72V49.32C225.44 49.92 225.26 50.34 224.9 50.58C224.48 50.82 224 51 223.4 51.12C222.8 51.24 222.44 51.48 222.26 51.72L223.04 52.56C226.4 54.84 227.36 57.96 225.98 61.92C225.38 63.6 224 65.7 221.84 68.16C221.48 68.52 221 68.88 220.28 69.12C219.56 69.36 218.9 69.54 218.24 69.54C214.94 69.66 212.06 69.6 209.66 69.24C206.18 68.76 203.84 67.44 202.7 65.22C201.5 63 201.92 60.6 203.84 58.02C204.14 57.6 204.5 57.18 204.92 56.7C205.34 56.22 205.82 55.74 206.42 55.14C206.96 54.6 207.38 54.18 207.68 53.94ZM218.96 61.32C218.9 60.36 218.6 59.7 218.06 59.28C217.46 58.92 216.5 58.68 215.12 58.62C214.16 58.62 213.38 59.04 212.84 59.88C212.24 60.72 211.88 61.8 211.7 63C211.58 63.72 211.82 64.2 212.3 64.5C212.78 64.8 213.62 64.98 214.76 64.98C215.96 64.98 216.92 64.68 217.76 63.96C218.54 63.24 218.96 62.4 218.96 61.32ZM207.5 44.34C207.74 42.18 207.92 40.8 208.04 40.2C208.04 40.14 208.1 40.02 208.22 39.84C208.82 39.24 210.14 38.7 212.18 38.28C214.16 37.86 215.66 37.8 216.62 38.16C217.94 38.64 218.72 39.54 218.96 40.74C219.2 42 218.84 43.02 217.76 43.8C217.04 44.28 216.14 44.52 215.06 44.52C214.64 44.58 212.72 44.52 209.3 44.4C209.06 44.4 208.46 44.4 207.5 44.34ZM247.1 58.5V66.24C247.1 66.9 246.98 68.1 246.86 69.78C246.74 70.74 246.14 71.28 245.18 71.28C243.02 71.34 241.22 71.34 239.66 71.22C238.76 71.22 237.98 70.86 237.38 70.26C236.78 69.66 236.42 68.94 236.42 68.1C236.36 64.62 236.36 60.3 236.42 55.14C236.42 54.84 236.42 52.5 236.54 48.12C236.6 43.8 236.66 41.1 236.72 40.14C236.72 38.94 237.14 38.16 237.98 37.68C238.16 37.56 238.52 37.38 239.06 37.08C239.6 36.84 240.02 36.6 240.32 36.48C240.56 36.36 240.92 36.24 241.4 36.06C241.88 35.88 242.3 35.76 242.72 35.7C243.14 35.64 243.56 35.64 244.04 35.64C244.76 35.7 245.3 35.76 245.66 35.88C246.5 36.24 246.92 36.84 246.92 37.74C246.92 38.52 246.92 40.5 247.04 43.74C247.16 46.98 247.22 48.9 247.34 49.5C247.4 49.98 247.76 50.28 248.48 50.34C251.36 50.58 252.98 50.7 253.34 50.76C254.18 51 254.72 51.66 254.84 52.86C255.02 54.66 254.72 56.28 253.88 57.66C253.64 58.08 252.92 58.38 251.84 58.5H247.1ZM222.44 80.58C230.6 80.1 235.22 79.86 236.24 79.74C237.26 79.68 238.46 79.56 239.9 79.44C241.34 79.32 242.54 79.2 243.5 79.08C244.46 78.96 245.3 78.9 245.9 78.9C246.68 78.9 247.28 79.92 247.64 81.84C247.7 82.26 247.76 83.1 247.76 84.3C247.76 85.68 247.4 87.06 246.68 88.5C246.44 88.92 245.9 89.22 245.06 89.34C244.22 89.46 241.4 89.64 236.6 89.88C231.8 90.12 228.98 90.3 228.08 90.42C227.84 90.48 227.66 90.48 227.42 90.48C226.4 90.48 224.24 90.54 220.94 90.6C217.64 90.66 215.24 90.72 213.74 90.78C213.38 90.78 212.72 90.84 211.88 90.9C211.04 90.96 210.38 90.96 209.96 90.96C208.58 90.96 207.44 90.72 206.6 90.18C206.3 90.06 206.06 89.76 205.82 89.4C205.58 89.04 205.52 88.74 205.52 88.38C205.34 86.64 205.22 84.18 205.1 80.94C204.98 77.7 204.86 75.48 204.8 74.22L204.74 73.38C204.74 72.78 204.74 72.24 204.74 71.64L204.68 70.8C204.8 70.8 205.1 70.74 205.64 70.62C206.18 70.5 206.54 70.38 206.72 70.32C207.14 70.26 208.1 70.2 209.6 70.2C211.34 70.2 212.42 70.32 212.9 70.44C213.38 70.62 213.62 70.92 213.62 71.34C213.62 71.52 213.68 71.94 213.8 72.54C213.92 73.14 214.04 73.56 214.04 73.74C214.04 74.4 214.16 75.6 214.52 77.4C214.52 77.64 214.58 78.18 214.7 78.96C214.76 79.74 214.88 80.4 215.06 81L222.44 80.58Z" fill="white"/>
<rect x="270.5" y="30.5" width="90" height="120" fill="#FF961E"/>
<rect x="270.5" y="30.5" width="90" height="120" stroke="black"/>
<path d="M341.12 69.96C341.12 70.02 341.12 70.08 341.24 70.08C341.36 70.2 341.6 70.26 341.96 70.38C342.32 70.5 342.62 70.56 342.86 70.68C343.1 70.8 343.22 70.92 343.28 71.04C343.58 72.18 343.7 73.5 343.64 74.94C343.58 75.42 343.28 78.6 342.8 84.48C342.38 88.92 342.02 93.36 341.66 97.8C341.24 102.12 341 104.7 341 105.54C340.88 106.26 340.82 107.22 340.76 108.48C340.7 109.74 340.64 110.88 340.58 111.9C340.46 112.92 340.4 113.88 340.28 114.78C340.16 115.62 339.56 116.82 338.6 118.44C338.36 118.86 337.82 119.04 336.98 119.04C336.8 119.1 335.06 119.1 331.7 119.1C331.1 119.1 330.62 118.98 330.26 118.62C329.9 118.26 329.66 117.84 329.66 117.24L329.24 110.94C329.24 110.82 329.18 110.4 329.12 109.68C329 108.96 329 108.42 329.06 108.06C329.18 106.32 329.42 104.58 329.78 102.84C329.96 101.7 329.9 100.92 329.54 100.56C329.18 100.2 328.46 100.14 327.38 100.38C325.7 100.74 324.32 100.32 323.24 99.24C322.1 98.16 321.68 96.84 321.98 95.16C322.22 93.6 322.88 92.34 323.96 91.38C324.98 90.48 326.3 89.94 327.98 89.82C328.76 89.82 329.48 89.52 330.08 88.98C330.68 88.44 331.04 87.78 331.1 87.06C331.16 85.86 331.28 84 331.52 81.36C331.7 78.78 331.82 76.8 331.94 75.42C332 74.82 332.18 73.74 332.54 72.3C332.84 70.98 333.68 70.38 335.06 70.38C336.62 70.44 338.12 70.44 339.5 70.44C339.5 70.44 340.04 70.32 341.12 69.96ZM289.04 76.86C289.46 76.14 290.12 75.66 290.96 75.48C295.88 74.58 299.66 73.92 302.3 73.56C306.26 73.02 309.92 72.96 313.34 73.44C313.4 73.44 313.58 73.5 313.94 73.5C314.24 73.56 314.48 73.62 314.6 73.62C314.72 73.62 314.96 73.68 315.2 73.74C315.44 73.8 315.62 73.86 315.8 73.98C315.98 74.1 316.16 74.28 316.34 74.4C316.64 74.7 316.94 75.3 317.3 76.2C318.8 80.52 319.46 85.32 319.22 90.72C319.1 92.7 318.8 95.58 318.32 99.42C318.2 100.26 318.08 102.06 317.9 104.94C317.72 107.82 317.42 109.98 317.06 111.48C316.64 113.16 316.1 114.24 315.5 114.84C315.02 115.32 313.58 115.68 311.3 115.8C309.02 115.98 306.92 115.98 305.12 115.86C304.16 115.86 303.68 115.56 303.56 114.96C303.44 114.72 303.44 114.48 303.56 114.12C303.62 113.76 303.74 113.4 303.86 112.98C303.98 112.62 304.04 112.32 304.04 112.14C304.22 111.06 304.4 109.98 304.52 108.84C304.76 106.86 304.88 104.7 305 102.36C305.06 99.48 305 95.22 304.82 89.52C304.76 88.68 304.64 88.08 304.46 87.72C303.92 86.76 302.66 86.52 300.74 86.94C298.52 87.48 294.56 87.66 288.86 87.42C288.56 87.42 288.38 87.36 288.26 87.24C288.08 87.12 288.02 86.76 288.08 86.28C288.44 80.52 288.74 77.34 289.04 76.86Z" fill="white"/>
</svg>
