<svg width="91" height="121" viewBox="0 0 91 121" fill="none" xmlns="http://www.w3.org/2000/svg">
<rect x="0.5" y="0.5" width="90" height="120" fill="white"/>
<rect x="0.5" y="0.5" width="90" height="120" stroke="black"/>
<path d="M44.7823 49.08C44.7823 43.86 41.2423 39.42 35.4823 39.42C29.7823 39.42 26.1823 43.86 26.1823 49.08C26.1823 54.3 29.7823 58.8 35.4823 58.8C41.2423 58.8 44.7823 54.3 44.7823 49.08ZM37.0423 61.2V72.12C39.8623 72.12 48.5023 71.4 51.3223 70.86V73.2C49.3423 73.5 41.7223 74.58 34.7023 74.58H21.2023V72.18H34.0423V61.26C27.7423 60.54 23.1223 55.32 23.1223 49.08C23.1223 42.36 28.4023 36.84 35.4823 36.84C42.5623 36.84 47.8423 42.84 47.8423 49.08C47.8423 55.32 43.2823 60.42 37.0423 61.2ZM68.0023 84.9H65.0023V57.3H56.6023V82.5H53.6023V33.3H56.6023V54.9H65.0023V32.1H68.0023V84.9Z" fill="black"/>
</svg>
