<svg width="361" height="121" viewBox="0 0 361 121" fill="none" xmlns="http://www.w3.org/2000/svg">
<rect x="0.5" y="0.5" width="90" height="120" fill="white"/>
<rect x="0.5" y="0.5" width="90" height="120" stroke="black"/>
<path d="M63.8623 57.9V84.9H60.8623V32.1H63.8623V55.44H72.9823V57.9H63.8623ZM21.2623 73.38C35.5423 66.96 44.0023 53.64 45.2023 41.1H24.5023V38.7H48.5623C47.0623 55.98 37.1023 68.58 23.7223 75.24L21.2623 73.38Z" fill="black"/>
<rect x="90.5" y="0.5" width="90" height="120" fill="white"/>
<rect x="90.5" y="0.5" width="90" height="120" stroke="black"/>
<path d="M119.602 52.2H151.402V42.9H119.602V52.2ZM137.002 63.18H161.902V65.58H109.102V63.18H134.002V54.6H116.602V33.6H119.602V40.5H151.402V33.6H154.402V54.6H137.002V63.18ZM116.602 69.42H119.602V81.3H156.502V83.7H116.602V69.42Z" fill="black"/>
<rect x="180.5" y="0.5" width="90" height="120" fill="white"/>
<rect x="180.5" y="0.5" width="90" height="120" stroke="black"/>
<path d="M210.502 67.32H247.762V84.9H244.762V69.72H210.502V67.32ZM244.702 45.36V32.1H247.702V63.54H244.702V47.76H232.102V45.36H244.702ZM219.682 38.22V39.72C219.682 53.52 233.302 57.66 234.982 58.14L233.122 60.36C231.802 59.88 221.362 56.1 218.182 46.92C215.362 55.92 204.502 61.08 202.882 61.8L200.782 59.76C203.482 58.56 216.682 53.1 216.682 39.72V38.22H204.082V35.82H232.462V38.22H219.682Z" fill="black"/>
<rect x="270.5" y="0.5" width="90" height="120" fill="white"/>
<rect x="270.5" y="0.5" width="90" height="120" stroke="black"/>
<path d="M333.502 32.1H336.502V84.9H333.502V32.1ZM296.002 55.62C296.002 64.8 299.542 72.18 306.142 72.18C312.742 72.18 316.162 64.74 316.162 55.62C316.162 46.62 312.742 39.18 306.142 39.18C299.542 39.18 296.002 46.56 296.002 55.62ZM292.882 55.68C292.882 44.04 298.102 36.42 306.082 36.42C314.122 36.42 319.282 44.04 319.282 55.68C319.282 67.26 314.122 74.94 306.082 74.94C298.102 74.94 292.882 67.26 292.882 55.68Z" fill="black"/>
</svg>
