<svg width="181" height="121" viewBox="0 0 181 121" fill="none" xmlns="http://www.w3.org/2000/svg">
<rect x="0.5" y="0.5" width="90" height="120" fill="white"/>
<rect x="0.5" y="0.5" width="90" height="120" stroke="black"/>
<path d="M46.4023 46.02C46.4023 40.8 42.8023 36.6 35.8423 36.6C29.0023 36.6 25.2823 40.92 25.2823 46.02C25.2823 51.18 29.0623 55.44 35.8423 55.44C42.7423 55.44 46.4023 51.18 46.4023 46.02ZM32.4223 72.96V81.9H45.5623V72.96H32.4223ZM48.5623 84.3H29.4223V63.66H32.4223V70.56H45.5623V63.66H48.5623V84.3ZM49.5823 44.22H63.5023V32.1H66.5023V60.66H63.5023V46.62H49.7023C49.3423 53.1 43.8223 58.14 35.8423 58.14C27.6823 58.14 21.9823 52.8 21.9823 46.02C21.9823 39.24 27.6223 33.78 35.8423 33.78C43.2823 33.78 48.6223 38.34 49.5823 44.22ZM61.0423 73.44C59.7223 77.76 55.9423 82.38 51.3223 84.9L49.3423 82.8C55.1023 79.86 59.5423 73.5 59.5423 66.6V63.6H62.5423V66.6C62.5423 74.16 66.6223 79.86 72.9223 82.8L70.7023 84.84C66.2623 82.5 62.1223 77.76 61.0423 73.44Z" fill="black"/>
<rect x="90.5" y="0.5" width="90" height="120" fill="white"/>
<rect x="90.5" y="0.5" width="90" height="120" stroke="black"/>
<path d="M135.562 55.62C135.562 46.62 132.142 39.18 125.542 39.18C118.942 39.18 115.402 46.56 115.402 55.62C115.402 64.8 118.942 72.18 125.542 72.18C132.142 72.18 135.562 64.74 135.562 55.62ZM138.622 54H153.202V32.1H156.202V84.9H153.202V56.4H138.682C138.442 67.56 133.342 74.94 125.482 74.94C117.502 74.94 112.282 67.26 112.282 55.68C112.282 44.04 117.502 36.42 125.482 36.42C133.102 36.42 138.142 43.32 138.622 54Z" fill="black"/>
</svg>
