<svg width="181" height="121" viewBox="0 0 181 121" fill="none" xmlns="http://www.w3.org/2000/svg">
<rect x="0.5" y="0.5" width="90" height="120" fill="white"/>
<rect x="0.5" y="0.5" width="90" height="120" stroke="black"/>
<path d="M64.7023 55.5V32.1H67.7023V84.9H64.7023V57.9H51.5023V55.5H64.7023ZM37.0423 48.78H23.3623V46.38H53.7223V48.78H40.0423V50.64C40.0423 64.68 53.6023 72.6 55.5823 73.44L53.8423 75.72C50.4223 73.92 41.3623 67.14 38.5423 58.02C36.0223 67.62 25.2823 75.12 22.7023 76.44L20.4823 74.34C22.2223 73.5 37.0423 65.34 37.0423 50.64V48.78ZM29.8423 36H47.3623V38.4H29.8423V36Z" fill="black"/>
<rect x="90.5" y="0.5" width="90" height="120" fill="white"/>
<rect x="90.5" y="0.5" width="90" height="120" stroke="black"/>
<path d="M161.902 58.44V60.84H109.102V58.44H161.902ZM116.602 84.3V67.26H154.402V84.3H116.602ZM119.602 81.9H151.402V69.66H119.602V81.9ZM155.182 42.12C155.182 47.88 148.042 52.32 135.502 52.32C123.022 52.32 115.822 47.88 115.822 42.12C115.822 36.36 123.022 31.92 135.502 31.92C148.042 31.92 155.182 36.36 155.182 42.12ZM152.242 42.12C152.242 37.44 145.042 34.32 135.502 34.32C125.842 34.32 118.702 37.44 118.702 42.12C118.702 46.68 125.842 49.92 135.502 49.92C145.042 49.92 152.242 46.68 152.242 42.12Z" fill="black"/>
</svg>
