<svg width="361" height="121" viewBox="0 0 361 121" fill="none" xmlns="http://www.w3.org/2000/svg">
<rect x="0.5" y="0.5" width="90" height="120" fill="white"/>
<rect x="0.5" y="0.5" width="90" height="120" stroke="black"/>
<path d="M26.3023 38.4V58.38H44.8423V38.4H26.3023ZM23.3023 36H47.8423V60.78H23.3023V36ZM29.6023 67.5H32.6023V81.3H66.2023V83.7H29.6023V67.5ZM63.8023 50.94V70.5H60.8023V32.1H63.8023V48.42H72.2023V50.94H63.8023Z" fill="black"/>
<rect x="90.5" y="0.5" width="90" height="120" fill="white"/>
<rect x="90.5" y="0.5" width="90" height="120" stroke="black"/>
<path d="M147.322 55.86C143.542 56.52 134.182 57.96 121.162 57.96H113.122V34.74H116.122V55.56H122.182C131.962 55.56 143.602 54.24 147.322 53.46V55.86ZM150.802 32.1H153.802V45.36H162.142V47.76H153.802V62.16H150.802V32.1ZM136.342 84.9C131.602 82.32 127.642 76.32 126.202 72.42C125.302 76.38 120.622 82.2 115.882 84.78L113.842 82.92C120.742 79.14 124.702 72.66 124.702 65.64V64.92H127.702V65.64C127.702 72.66 131.962 78.6 136.282 81.84C140.602 78.6 144.922 72.66 144.922 65.64V64.92H147.922V65.64C147.922 72.66 151.882 79.14 158.782 82.92L156.742 84.78C152.002 82.2 147.322 76.38 146.422 72.42C144.982 76.32 141.082 82.08 136.342 84.9Z" fill="black"/>
<rect x="180.5" y="0.5" width="90" height="120" fill="white"/>
<rect x="180.5" y="0.5" width="90" height="120" stroke="black"/>
<path d="M246.022 84.3H206.602V72.78H241.402V66.66H206.602V64.26H244.402V75.18H209.602V81.9H246.022V84.3ZM251.902 56.58V58.98H199.102V56.58H251.902ZM245.182 41.28C245.182 46.5 238.042 50.7 225.502 50.7C213.022 50.7 205.822 46.5 205.822 41.28C205.822 36.06 213.022 31.92 225.502 31.92C238.042 31.92 245.182 36.42 245.182 41.28ZM242.062 41.28C242.062 37.14 234.922 34.32 225.502 34.32C215.962 34.32 208.942 37.14 208.942 41.28C208.942 45.3 215.962 48.24 225.502 48.24C234.922 48.24 242.062 45.3 242.062 41.28Z" fill="black"/>
<rect x="270.5" y="0.5" width="90" height="120" fill="white"/>
<rect x="270.5" y="0.5" width="90" height="120" stroke="black"/>
<path d="M323.002 33.42H326.002V53.94H333.802V32.1H336.802V84.9H333.802V56.34H326.002V82.5H323.002V33.42ZM306.802 39.06H318.262V41.46H309.802V70.2H311.242C312.502 70.2 317.302 69.66 320.002 69.24V71.64C317.902 72.06 312.502 72.6 308.662 72.6H306.802V39.06ZM305.002 71.88C303.202 72.18 297.862 72.6 295.582 72.6H293.662V39.06H303.802V41.46H296.662V70.2H298.342C299.542 70.2 303.802 69.72 305.002 69.54V71.88Z" fill="black"/>
</svg>
