<svg width="271" height="121" viewBox="0 0 271 121" fill="none" xmlns="http://www.w3.org/2000/svg">
<rect x="0.5" y="0.5" width="90" height="120" fill="white"/>
<rect x="0.5" y="0.5" width="90" height="120" stroke="black"/>
<path d="M44.1823 60H19.1023V57.6H71.9023V60H47.1823V69.78H64.7623V84.9H61.7623V72.18H26.0023V69.78H44.1823V60ZM44.0023 36.9H26.3023V34.56H64.7023V36.9H47.0023C46.9423 44.34 61.7023 50.64 67.9423 51.78L66.0223 53.88C56.6023 51.78 48.2623 46.26 45.5023 41.22C41.9023 48.6 28.0423 53.28 25.1023 53.76L23.1823 51.54C29.7823 50.52 44.0023 44.4 44.0023 36.9Z" fill="black"/>
<rect x="90.5" y="0.5" width="90" height="120" fill="white"/>
<rect x="90.5" y="0.5" width="90" height="120" stroke="black"/>
<path d="M153.502 32.1H156.502V84.9H153.502V32.1ZM116.002 55.62C116.002 64.8 119.542 72.18 126.142 72.18C132.742 72.18 136.162 64.74 136.162 55.62C136.162 46.62 132.742 39.18 126.142 39.18C119.542 39.18 116.002 46.56 116.002 55.62ZM112.882 55.68C112.882 44.04 118.102 36.42 126.082 36.42C134.122 36.42 139.282 44.04 139.282 55.68C139.282 67.26 134.122 74.94 126.082 74.94C118.102 74.94 112.882 67.26 112.882 55.68Z" fill="black"/>
<rect x="180.5" y="0.5" width="90" height="120" fill="white"/>
<rect x="180.5" y="0.5" width="90" height="120" stroke="black"/>
<path d="M244.702 32.1H247.702V84.9H244.702V32.1ZM217.282 40.8H203.782V38.4H234.202V40.8H220.282V46.62C220.282 62.28 232.342 70.2 234.982 71.58L233.122 73.98C231.382 72.96 221.062 65.88 218.782 54.66C216.682 65.7 205.882 73.8 203.182 75.42L200.902 73.38C207.082 70.5 217.282 60.3 217.282 46.62V40.8Z" fill="black"/>
</svg>
