<svg width="359" height="121" viewBox="0 0 359 121" fill="none" xmlns="http://www.w3.org/2000/svg">
<rect x="0.5" y="0.5" width="90" height="120" fill="white"/>
<rect x="0.5" y="0.5" width="90" height="120" stroke="black"/>
<path d="M64.4023 46.68V58.92H61.4023V32.1H64.4023V44.16H72.8023V46.68H64.4023ZM49.4023 45.9C49.4023 52.68 43.7623 57.9 35.5423 57.9C27.3823 57.9 21.6823 52.68 21.6823 45.9C21.6823 39.12 27.3223 33.78 35.5423 33.78C43.7623 33.78 49.4023 39.18 49.4023 45.9ZM46.1023 45.9C46.1023 40.68 42.5023 36.6 35.5423 36.6C28.7023 36.6 24.9823 40.8 24.9823 45.9C24.9823 51.06 28.7623 55.2 35.5423 55.2C42.4423 55.2 46.1023 51.06 46.1023 45.9ZM56.4223 75.78C52.3423 75.78 48.5023 77.22 48.5023 79.74C48.5023 82.14 52.3423 83.46 56.4223 83.46C60.3823 83.46 64.2823 82.02 64.2823 79.8C64.2823 77.28 60.3823 75.78 56.4223 75.78ZM56.4223 73.62C62.9023 73.62 67.3423 76.02 67.3423 79.74C67.3423 83.28 62.8423 85.86 56.4223 85.86C49.9423 85.86 45.5023 83.34 45.5023 79.74C45.5023 76.14 49.9423 73.62 56.4223 73.62ZM44.0023 83.58C43.1623 83.82 36.9823 84.24 34.5823 84.24H28.4623V62.76H31.4623V81.84H34.5823C36.9823 81.84 42.9823 81.36 44.0023 81.12V83.58ZM43.4023 68.04H69.6823V70.44H43.4023V68.04ZM48.9223 61.92H63.9223V64.32H48.9223V61.92Z" fill="black"/>
<rect x="90.5" y="0.5" width="90" height="120" fill="white"/>
<rect x="90.5" y="0.5" width="90" height="120" stroke="black"/>
<path d="M154.402 47.52V63H151.402V32.1H154.402V45.12H162.742V47.52H154.402ZM138.142 84.9C133.402 82.32 129.442 76.32 128.002 72.42C127.102 76.38 122.782 82.26 118.042 84.84L116.002 82.98C122.902 79.2 126.502 72.66 126.502 65.64H129.502C129.502 72.66 133.762 78.6 138.082 81.84C142.402 78.6 146.722 72.66 146.722 65.64H149.722C149.722 72.66 153.382 79.14 160.282 82.92L158.242 84.78C153.502 82.2 149.122 76.38 148.222 72.42C146.782 76.32 142.882 82.08 138.142 84.9ZM125.662 36.78C118.582 36.78 114.682 41.22 114.682 46.74C114.682 52.26 118.582 56.7 125.662 56.7C132.802 56.7 136.642 52.26 136.642 46.74C136.642 41.22 132.802 36.78 125.662 36.78ZM125.662 33.96C134.002 33.96 139.942 39.66 139.942 46.74C139.942 53.82 134.002 59.52 125.662 59.52C117.322 59.52 111.382 53.82 111.382 46.74C111.382 39.66 117.322 33.96 125.662 33.96Z" fill="black"/>
<rect x="180.5" y="0.5" width="90" height="120" fill="white"/>
<rect x="180.5" y="0.5" width="90" height="120" stroke="black"/>
<path d="M246.022 84.3H206.602V72.78H241.402V66.66H206.602V64.26H244.402V75.18H209.602V81.9H246.022V84.3ZM251.902 56.58V58.98H199.102V56.58H251.902ZM245.182 41.28C245.182 46.5 238.042 50.7 225.502 50.7C213.022 50.7 205.822 46.5 205.822 41.28C205.822 36.06 213.022 31.92 225.502 31.92C238.042 31.92 245.182 36.42 245.182 41.28ZM242.062 41.28C242.062 37.14 234.922 34.32 225.502 34.32C215.962 34.32 208.942 37.14 208.942 41.28C208.942 45.3 215.962 48.24 225.502 48.24C234.922 48.24 242.062 45.3 242.062 41.28Z" fill="black"/>
<rect x="268.5" y="0.5" width="90" height="120" fill="white"/>
<rect x="268.5" y="0.5" width="90" height="120" stroke="black"/>
<path d="M334.202 57.9V84.9H331.202V32.1H334.202V55.38H342.302V57.9H334.202ZM309.182 39.3H322.862C322.322 55.32 314.882 68.1 305.942 76.74L303.302 75.3C309.482 69.9 319.922 55.5 319.502 41.7H309.182V39.3ZM306.842 39.3C306.422 51.84 300.962 64.32 291.482 73.32L288.902 72C300.302 61.56 303.482 48.42 303.542 41.7H291.602V39.3H306.842Z" fill="black"/>
</svg>
