<svg width="271" height="121" viewBox="0 0 271 121" fill="none" xmlns="http://www.w3.org/2000/svg">
<rect x="0.5" y="0.5" width="90" height="120" fill="white"/>
<rect x="0.5" y="0.5" width="90" height="120" stroke="black"/>
<path d="M30.5023 67.5H33.5023V81.3H68.4223V83.7H30.5023V67.5ZM52.4623 47.1V33H55.4623V70.2H52.4623V49.5H40.4623V47.1H52.4623ZM64.1023 32.1H67.1023V70.8H64.1023V32.1ZM48.5623 60.36C44.9623 60.9 35.7223 61.8 29.4223 61.8H23.3023V36.3H43.1623V38.7H26.3023V59.4H29.6023C35.4223 59.4 44.9623 58.62 48.5623 57.96V60.36Z" fill="black"/>
<rect x="90.5" y="0.5" width="90" height="120" fill="white"/>
<rect x="90.5" y="0.5" width="90" height="120" stroke="black"/>
<path d="M154.702 32.1H157.702V84.9H154.702V32.1ZM127.282 40.8H113.782V38.4H144.202V40.8H130.282V46.62C130.282 62.28 142.342 70.2 144.982 71.58L143.122 73.98C141.382 72.96 131.062 65.88 128.782 54.66C126.682 65.7 115.882 73.8 113.182 75.42L110.902 73.38C117.082 70.5 127.282 60.3 127.282 46.62V40.8Z" fill="black"/>
<rect x="180.5" y="0.5" width="90" height="120" fill="white"/>
<rect x="180.5" y="0.5" width="90" height="120" stroke="black"/>
<path d="M251.902 58.86H227.362V74.34H224.362V58.86H199.102V56.46H238.942C239.482 54.06 241.462 43.5 242.062 37.32H205.702V34.92H245.602C244.642 42.36 242.662 53.64 242.002 56.46H251.902V58.86ZM246.502 83.7H206.602V67.86H209.602V81.3H246.502V83.7Z" fill="black"/>
</svg>
