<svg width="541" height="121" viewBox="0 0 541 121" fill="none" xmlns="http://www.w3.org/2000/svg">
<rect x="0.5" y="0.5" width="90" height="120" fill="white"/>
<rect x="0.5" y="0.5" width="90" height="120" stroke="black"/>
<path d="M55.8223 71.52L53.7223 73.68C51.7423 72.48 40.7623 65.4 37.7023 53.88C35.5423 65.4 24.3223 73.5 21.8023 74.82L19.4023 72.78C24.8023 69.9 36.2023 61.98 36.2023 45.06V35.4H39.2023V45.06C39.2023 62.22 52.8823 69.84 55.8223 71.52ZM73.1023 56.1H64.7023V84.9H61.7023V32.1H64.7023V53.7H73.1023V56.1Z" fill="black"/>
<rect x="90.5" y="0.5" width="90" height="120" fill="white"/>
<rect x="90.5" y="0.5" width="90" height="120" stroke="black"/>
<path d="M158.962 84.3H122.302V72.36H154.762V65.46H122.062V63.06H157.762V74.76H125.302V81.9H158.962V84.3ZM154.702 32.1H157.702V60.06H154.702V32.1ZM129.682 36.66C129.682 48.42 143.302 55.2 145.702 56.1L143.782 58.32C141.982 57.66 132.262 52.62 128.182 43.32C124.882 52.92 114.442 58.68 112.642 59.58L110.302 57.66C114.442 55.98 126.682 48.06 126.682 36.66V33.66H129.682V36.66Z" fill="black"/>
<rect x="180.5" y="0.5" width="90" height="120" fill="white"/>
<rect x="180.5" y="0.5" width="90" height="120" stroke="black"/>
<path d="M206.602 68.28H209.602V81.3H246.502V83.7H206.602V68.28ZM251.902 60.9V63.3H199.102V60.9H251.902ZM225.322 31.92C237.382 31.92 244.822 37.08 244.822 43.26C244.822 49.44 237.502 54 225.322 54C213.682 54 205.822 49.44 205.822 43.26C205.822 37.2 213.562 31.92 225.322 31.92ZM225.322 34.44C216.442 34.44 208.942 38.22 208.942 43.26C208.942 48.42 216.802 51.42 225.322 51.42C234.322 51.42 241.702 48.3 241.702 43.26C241.702 38.1 234.442 34.44 225.322 34.44Z" fill="black"/>
<rect x="270.5" y="0.5" width="90" height="120" fill="white"/>
<rect x="270.5" y="0.5" width="90" height="120" stroke="black"/>
<path d="M296.302 38.1V54.3L314.842 54.36V38.1H296.302ZM293.302 35.7H317.842V56.76L293.302 56.7V35.7ZM333.802 47.16V60.06H330.802V32.1H333.802V44.64H342.202V47.16H333.802ZM335.602 84.3H299.602V72.54H330.802V65.88H299.602V63.48H333.802V74.94H302.602V81.9H335.602V84.3Z" fill="black"/>
<rect x="360.5" y="0.5" width="90" height="120" fill="white"/>
<rect x="360.5" y="0.5" width="90" height="120" stroke="black"/>
<path d="M423.502 32.1H426.502V84.9H423.502V32.1ZM386.002 55.62C386.002 64.8 389.542 72.18 396.142 72.18C402.742 72.18 406.162 64.74 406.162 55.62C406.162 46.62 402.742 39.18 396.142 39.18C389.542 39.18 386.002 46.56 386.002 55.62ZM382.882 55.68C382.882 44.04 388.102 36.42 396.082 36.42C404.122 36.42 409.282 44.04 409.282 55.68C409.282 67.26 404.122 74.94 396.082 74.94C388.102 74.94 382.882 67.26 382.882 55.68Z" fill="black"/>
<rect x="450.5" y="0.5" width="90" height="120" fill="white"/>
<rect x="450.5" y="0.5" width="90" height="120" stroke="black"/>
<path d="M513.142 48.84V63.24H522.502V65.64H513.142V84.9H510.142V32.1H513.142V46.44H522.502V48.84H513.142ZM474.082 55.62C474.082 64.8 477.622 72.18 484.222 72.18C490.822 72.18 494.242 64.74 494.242 55.62C494.242 46.62 490.822 39.18 484.222 39.18C477.622 39.18 474.082 46.56 474.082 55.62ZM470.962 55.68C470.962 44.04 476.182 36.42 484.162 36.42C492.202 36.42 497.362 44.04 497.362 55.68C497.362 67.26 492.202 74.94 484.162 74.94C476.182 74.94 470.962 67.26 470.962 55.68Z" fill="black"/>
</svg>
