<svg width="181" height="121" viewBox="0 0 181 121" fill="none" xmlns="http://www.w3.org/2000/svg">
<rect x="0.5" y="0.5" width="90" height="120" fill="white"/>
<rect x="0.5" y="0.5" width="90" height="120" stroke="black"/>
<path d="M60.5023 32.1H63.5023V52.8H71.9023V55.2H63.5023V84.9H60.5023V32.1ZM56.9023 68.88C53.2423 69.54 42.0823 71.16 32.1823 71.16H23.9023V37.26H26.9023V68.76H33.6223C41.1223 68.76 53.1823 67.32 56.9023 66.48V68.88Z" fill="black"/>
<rect x="90.5" y="0.5" width="90" height="120" fill="white"/>
<rect x="90.5" y="0.5" width="90" height="120" stroke="black"/>
<path d="M136.762 61.2V74.64H161.902V77.04H109.102V74.64H133.762V61.2H116.842V37.86H154.522V40.26H119.842V58.8H155.182V61.2H136.762Z" fill="black"/>
</svg>
