<svg width="271" height="121" viewBox="0 0 271 121" fill="none" xmlns="http://www.w3.org/2000/svg">
<rect x="0.5" y="0.5" width="90" height="120" fill="white"/>
<rect x="0.5" y="0.5" width="90" height="120" stroke="black"/>
<path d="M38.4823 48.96C31.7623 48.96 28.0423 51.78 28.0423 55.2C28.0423 58.62 31.7623 61.26 38.4823 61.26C45.2623 61.26 48.9223 58.62 48.9223 55.2C48.9223 51.78 45.2623 48.96 38.4823 48.96ZM38.4823 46.68C47.0023 46.68 52.1023 50.46 52.1023 55.26C52.1023 60.06 46.9423 63.72 38.4223 63.72C29.9023 63.72 24.8623 60.06 24.8623 55.26C24.8623 50.46 29.9623 46.68 38.4823 46.68ZM22.0423 40.74H54.9223V43.14H22.0423V40.74ZM28.5823 69.42H65.1223V84.9H62.1223V71.82H28.5823V69.42ZM65.0023 50.16V65.88H62.0023V32.1H65.0023V47.76H73.3423V50.16H65.0023ZM29.4823 33H46.8223V35.4H29.4823V33Z" fill="black"/>
<rect x="90.5" y="0.5" width="90" height="120" fill="white"/>
<rect x="90.5" y="0.5" width="90" height="120" stroke="black"/>
<path d="M147.802 67.38C149.902 57.9 151.042 49.14 151.522 41.34H116.242V38.94H154.762C153.982 50.1 153.022 56.4 150.742 67.38H147.802ZM161.902 76.8H109.102V74.4H123.562V55.08H126.502V74.4H137.122V55.08H140.122V74.4H161.902V76.8Z" fill="black"/>
<rect x="180.5" y="0.5" width="90" height="120" fill="white"/>
<rect x="180.5" y="0.5" width="90" height="120" stroke="black"/>
<path d="M222.082 56.4C222.082 47.4 218.782 40.02 213.382 40.02C207.922 40.02 204.682 47.28 204.682 56.4C204.682 65.64 207.922 72.72 213.382 72.72C218.782 72.72 222.082 65.52 222.082 56.4ZM247.102 84.9H244.102V32.1H247.102V84.9ZM225.142 53.7H233.782V33.3H236.782V82.5H233.782V56.22H225.262V56.4C225.262 68.04 220.342 75.48 213.382 75.48C206.542 75.48 201.502 68.04 201.502 56.4C201.502 44.7 206.542 37.32 213.382 37.32C219.802 37.32 224.482 43.56 225.142 53.7Z" fill="black"/>
</svg>
