<svg width="181" height="121" viewBox="0 0 181 121" fill="none" xmlns="http://www.w3.org/2000/svg">
<rect x="0.5" y="0.5" width="90" height="120" fill="#90C85F"/>
<rect x="0.5" y="0.5" width="90" height="120" stroke="black"/>
<path d="M69.9734 78.34C68.8334 78.34 67.8734 77.44 67.8734 76.24V60.34H63.1334V74.98C63.1334 76.18 62.2334 77.08 61.0934 77.08C59.9534 77.08 58.9934 76.18 58.9934 74.98V41.8C58.9934 40.66 59.9534 39.7 61.0934 39.7C62.2334 39.7 63.1334 40.66 63.1334 41.8V56.32H67.8734V40.96C67.8734 39.82 68.8334 38.86 69.9734 38.86C71.1134 38.86 72.0734 39.82 72.0734 40.96V76.24C72.0734 77.44 71.1134 78.34 69.9734 78.34ZM27.3734 76.3C21.8534 76.42 19.3934 74.74 19.3934 69.4V42.52C19.3934 41.44 20.3534 40.36 21.5534 40.36C22.8734 40.42 23.7134 41.5 23.7134 42.52V67.96C23.7134 71.92 24.1334 72.16 28.0934 72.22C36.4934 72.22 46.5734 70.9 52.7534 69.4C55.5734 68.68 56.4734 72.7 53.7734 73.36C47.2934 74.92 37.3934 76.3 27.3734 76.3Z" fill="white"/>
<rect x="90.5" y="0.5" width="90" height="120" fill="#90C85F"/>
<rect x="90.5" y="0.5" width="90" height="120" stroke="black"/>
<path d="M157.813 78.34C156.673 78.34 155.713 77.44 155.713 76.24V40.96C155.713 39.82 156.673 38.86 157.813 38.86C158.953 38.86 159.913 39.82 159.913 40.96V55.48H163.453C164.593 55.48 165.493 56.38 165.493 57.52C165.493 58.66 164.593 59.56 163.453 59.56H159.913V76.24C159.913 77.44 158.953 78.34 157.813 78.34ZM111.613 76.78C110.293 77.02 109.453 76.24 109.213 75.28C108.973 74.32 109.513 73.12 110.893 72.88C124.153 70.3 137.473 60.82 140.293 47.02C140.713 44.86 140.533 44.5 138.853 44.5H112.453C111.373 44.5 110.473 43.6 110.473 42.52C110.473 41.44 111.373 40.54 112.453 40.54H139.693C144.253 40.54 145.453 42.94 144.253 48.1C140.653 64.06 125.953 74.14 111.613 76.78Z" fill="white"/>
</svg>
