<svg width="631" height="151" viewBox="0 0 631 151" fill="none" xmlns="http://www.w3.org/2000/svg">
<rect x="0.5" y="0.5" width="90" height="120" fill="#90C85F"/>
<rect x="0.5" y="0.5" width="90" height="120" stroke="black"/>
<path d="M68.3534 59.14C67.2134 59.14 66.2534 58.24 66.2534 57.04V51.04H63.7934C62.6534 51.04 61.7534 50.14 61.7534 49C61.7534 47.86 62.6534 46.96 63.7934 46.96H66.2534V40.96C66.2534 39.82 67.2134 38.86 68.3534 38.86C69.4934 38.86 70.4534 39.82 70.4534 40.96V57.04C70.4534 58.24 69.4934 59.14 68.3534 59.14ZM28.0934 78.16C22.7534 78.16 21.1934 77.14 21.1934 72.76V63.58C21.1934 62.44 22.1534 61.48 23.2934 61.48C24.4334 61.48 25.3334 62.44 25.3334 63.58V65.92H66.3134V63.58C66.3134 62.44 67.2134 61.48 68.3534 61.48C69.4934 61.48 70.4534 62.44 70.4534 63.58V72.76C70.4534 77.14 68.8934 78.16 63.5534 78.16H28.0934ZM20.8334 58.72C18.1934 59.26 17.3534 55.54 19.8734 54.94C25.4534 53.62 29.8334 50.14 31.3334 45.88C31.8134 44.26 31.6934 43.9 30.3734 43.9H21.5534C20.4734 43.9 19.6334 43.06 19.6334 41.98C19.6334 40.9 20.4734 40.06 21.5534 40.06H32.1734C35.6534 40.06 36.6134 41.98 35.5934 46C33.8534 52.66 27.9734 57.28 20.8334 58.72ZM44.5334 58.84C43.2134 59.38 42.1934 58.78 41.8334 57.94C41.4134 57.04 41.6534 55.84 42.9734 55.24C47.6534 53.08 50.7734 49.6 51.3734 45.46C51.5534 44.38 51.4334 44.02 50.1134 44.02H40.5734C39.4934 44.02 38.5934 43.12 38.5934 42.04C38.5934 40.96 39.4934 40.06 40.5734 40.06H52.2134C55.4534 40.06 55.9934 42.16 55.4534 45.94C54.3134 53.14 48.1334 57.4 44.5334 58.84ZM25.3334 71.98C25.3334 73.96 25.6934 74.26 28.2134 74.26H63.4334C65.9534 74.26 66.3134 73.96 66.3134 71.98V69.76H25.3334V71.98Z" fill="white"/>
<rect x="360.5" y="0.5" width="90" height="120" fill="#90C85F"/>
<rect x="360.5" y="0.5" width="90" height="120" stroke="black"/>
<path d="M428.353 59.14C427.213 59.14 426.253 58.24 426.253 57.04V51.04H423.793C422.653 51.04 421.753 50.14 421.753 49C421.753 47.86 422.653 46.96 423.793 46.96H426.253V40.96C426.253 39.82 427.213 38.86 428.353 38.86C429.493 38.86 430.453 39.82 430.453 40.96V57.04C430.453 58.24 429.493 59.14 428.353 59.14ZM388.093 78.16C382.753 78.16 381.193 77.14 381.193 72.76V63.58C381.193 62.44 382.153 61.48 383.293 61.48C384.433 61.48 385.333 62.44 385.333 63.58V65.92H426.313V63.58C426.313 62.44 427.213 61.48 428.353 61.48C429.493 61.48 430.453 62.44 430.453 63.58V72.76C430.453 77.14 428.893 78.16 423.553 78.16H388.093ZM380.833 58.72C378.193 59.26 377.353 55.54 379.873 54.94C385.453 53.62 389.833 50.14 391.333 45.88C391.813 44.26 391.693 43.9 390.373 43.9H381.553C380.473 43.9 379.633 43.06 379.633 41.98C379.633 40.9 380.473 40.06 381.553 40.06H392.173C395.653 40.06 396.613 41.98 395.593 46C393.853 52.66 387.973 57.28 380.833 58.72ZM404.533 58.84C403.213 59.38 402.193 58.78 401.833 57.94C401.413 57.04 401.653 55.84 402.973 55.24C407.653 53.08 410.773 49.6 411.373 45.46C411.553 44.38 411.433 44.02 410.113 44.02H400.573C399.493 44.02 398.593 43.12 398.593 42.04C398.593 40.96 399.493 40.06 400.573 40.06H412.213C415.453 40.06 415.993 42.16 415.453 45.94C414.313 53.14 408.133 57.4 404.533 58.84ZM385.333 71.98C385.333 73.96 385.693 74.26 388.213 74.26H423.433C425.953 74.26 426.313 73.96 426.313 71.98V69.76H385.333V71.98Z" fill="white"/>
<rect x="90.5" y="0.5" width="90" height="120" fill="#90C85F"/>
<rect x="90.5" y="0.5" width="90" height="120" stroke="black"/>
<path d="M159.973 78.34C158.833 78.34 157.873 77.44 157.873 76.24V40.96C157.873 39.82 158.833 38.86 159.973 38.86C161.113 38.86 162.073 39.82 162.073 40.96V76.24C162.073 77.44 161.113 78.34 159.973 78.34ZM151.993 77.08C150.853 77.08 149.893 76.18 149.893 74.98V58.66H145.873C144.733 58.66 143.833 57.76 143.833 56.62C143.833 55.48 144.733 54.58 145.873 54.58H149.893V41.8C149.893 40.66 150.853 39.7 151.993 39.7C153.133 39.7 154.033 40.66 154.033 41.8V74.98C154.033 76.18 153.133 77.08 151.993 77.08ZM117.133 76.3C111.553 76.3 109.093 74.74 109.093 69.22V46.72C109.093 41.74 110.773 40.54 116.473 40.54H137.233C138.313 40.54 139.213 41.44 139.213 42.52C139.213 43.6 138.313 44.5 137.233 44.5H116.773C113.773 44.5 113.293 44.86 113.293 47.14V68.08C113.293 72.04 113.713 72.34 117.613 72.34C127.753 72.34 136.153 71.26 142.453 69.64C145.273 68.92 146.173 72.82 143.473 73.48C136.993 75.1 127.993 76.3 117.133 76.3Z" fill="white"/>
<rect x="450.5" y="0.5" width="90" height="120" fill="#90C85F"/>
<rect x="450.5" y="0.5" width="90" height="120" stroke="black"/>
<path d="M519.973 78.34C518.833 78.34 517.873 77.44 517.873 76.24V40.96C517.873 39.82 518.833 38.86 519.973 38.86C521.113 38.86 522.073 39.82 522.073 40.96V76.24C522.073 77.44 521.113 78.34 519.973 78.34ZM511.993 77.08C510.853 77.08 509.893 76.18 509.893 74.98V58.66H505.873C504.733 58.66 503.833 57.76 503.833 56.62C503.833 55.48 504.733 54.58 505.873 54.58H509.893V41.8C509.893 40.66 510.853 39.7 511.993 39.7C513.133 39.7 514.033 40.66 514.033 41.8V74.98C514.033 76.18 513.133 77.08 511.993 77.08ZM477.133 76.3C471.553 76.3 469.093 74.74 469.093 69.22V46.72C469.093 41.74 470.773 40.54 476.473 40.54H497.233C498.313 40.54 499.213 41.44 499.213 42.52C499.213 43.6 498.313 44.5 497.233 44.5H476.773C473.773 44.5 473.293 44.86 473.293 47.14V68.08C473.293 72.04 473.713 72.34 477.613 72.34C487.753 72.34 496.153 71.26 502.453 69.64C505.273 68.92 506.173 72.82 503.473 73.48C496.993 75.1 487.993 76.3 477.133 76.3Z" fill="white"/>
<rect x="180.5" y="30.5" width="90" height="120" fill="#90C85F"/>
<rect x="180.5" y="30.5" width="90" height="120" stroke="black"/>
<path d="M248.413 108.34C247.273 108.34 246.313 107.44 246.313 106.24V70.96C246.313 69.82 247.273 68.86 248.413 68.86C249.553 68.86 250.513 69.82 250.513 70.96V106.24C250.513 107.44 249.553 108.34 248.413 108.34ZM201.673 106.78C200.293 107.02 199.453 106.24 199.213 105.28C198.973 104.32 199.513 103.12 200.893 102.88C214.753 100.18 228.313 90.4 231.013 77.02C231.433 74.86 231.253 74.5 229.573 74.5H202.453C201.373 74.5 200.473 73.6 200.473 72.52C200.473 71.44 201.373 70.54 202.453 70.54H230.413C234.973 70.54 236.173 72.94 234.973 78.1C231.433 93.34 217.033 103.84 201.673 106.78Z" fill="white"/>
<rect x="540.5" y="30.5" width="90" height="120" fill="#90C85F"/>
<rect x="540.5" y="30.5" width="90" height="120" stroke="black"/>
<path d="M608.413 108.34C607.273 108.34 606.313 107.44 606.313 106.24V70.96C606.313 69.82 607.273 68.86 608.413 68.86C609.553 68.86 610.513 69.82 610.513 70.96V106.24C610.513 107.44 609.553 108.34 608.413 108.34ZM561.673 106.78C560.293 107.02 559.453 106.24 559.213 105.28C558.973 104.32 559.513 103.12 560.893 102.88C574.753 100.18 588.313 90.4 591.013 77.02C591.433 74.86 591.253 74.5 589.573 74.5H562.453C561.373 74.5 560.473 73.6 560.473 72.52C560.473 71.44 561.373 70.54 562.453 70.54H590.413C594.973 70.54 596.173 72.94 594.973 78.1C591.433 93.34 577.033 103.84 561.673 106.78Z" fill="white"/>
<rect x="270.5" y="0.5" width="90" height="120" fill="#90C85F"/>
<rect x="270.5" y="0.5" width="90" height="120" stroke="black"/>
<path d="M338.413 78.34C337.273 78.34 336.313 77.44 336.313 76.24V69.76H332.053C330.913 69.76 330.013 68.86 330.013 67.72C330.013 66.58 330.913 65.68 332.053 65.68H336.313V51.16H332.053C330.913 51.16 330.013 50.26 330.013 49.12C330.013 47.98 330.913 47.08 332.053 47.08H336.313V40.96C336.313 39.82 337.273 38.86 338.413 38.86C339.553 38.86 340.513 39.82 340.513 40.96V76.24C340.513 77.44 339.553 78.34 338.413 78.34ZM307.513 78.22C297.013 78.22 288.193 70.18 288.193 58.6C288.193 47.02 297.013 38.98 307.513 38.98C318.013 38.98 326.833 47.02 326.833 58.6C326.833 70.18 318.013 78.22 307.513 78.22ZM307.513 74.26C315.973 74.26 322.633 67.72 322.633 58.6C322.633 49.48 315.973 42.94 307.513 42.94C299.053 42.94 292.393 49.48 292.393 58.6C292.393 67.72 299.053 74.26 307.513 74.26Z" fill="white"/>
</svg>
