<svg width="181" height="151" viewBox="0 0 181 151" fill="none" xmlns="http://www.w3.org/2000/svg">
<rect x="0.5" y="0.5" width="90" height="120" fill="#90C85F"/>
<rect x="0.5" y="0.5" width="90" height="120" stroke="black"/>
<path d="M25.5734 78.34C21.9134 78.34 19.8734 76.18 19.8734 72.88C19.8734 69.52 21.9134 67.42 25.5734 67.42H65.2334C66.3734 67.42 66.8534 66.76 66.8534 65.8C66.8534 64.9 66.3734 64.24 65.2334 64.24H21.7334C18.9734 64.24 18.9734 60.46 21.7334 60.46H65.2934C69.0134 60.46 71.0534 62.62 71.0534 65.86C71.0534 69.16 69.0134 71.2 65.2934 71.2H25.6934C24.5534 71.2 24.0734 71.8 24.0734 72.82C24.0734 73.78 24.5534 74.5 25.6934 74.5H70.1534C72.9134 74.5 72.8534 78.34 70.1534 78.34H25.5734ZM20.1134 56.74C19.0334 56.74 18.2534 55.96 18.2534 54.88C18.2534 53.8 19.0334 53.02 20.1134 53.02H64.5734C65.1134 50.86 65.5934 48.34 65.7134 46.18C65.7134 45.34 65.6534 44.8 65.3534 44.5C64.9934 44.08 64.2734 44.02 62.8934 44.02H22.3934C21.2534 44.02 20.4734 43.18 20.4734 42.04C20.4734 40.96 21.2534 40.24 22.3934 40.24H63.3734C66.1934 40.24 67.8134 40.6 68.7734 41.56C69.6134 42.4 70.0334 43.78 69.9134 45.64C69.8534 47.92 69.3134 50.86 68.8334 53.02H70.8734C71.9534 53.02 72.7334 53.8 72.7334 54.88C72.7334 55.96 71.9534 56.74 70.8734 56.74H20.1134Z" fill="white"/>
<rect x="90.5" y="30.5" width="90" height="120" fill="#90C85F"/>
<rect x="90.5" y="30.5" width="90" height="120" stroke="black"/>
<path d="M146.353 90.46C145.213 90.46 144.313 89.56 144.313 88.42C144.313 87.28 145.213 86.38 146.353 86.38H149.893V71.8C149.893 70.66 150.853 69.7 151.993 69.7C153.133 69.7 154.033 70.66 154.033 71.8V104.98C154.033 106.18 153.133 107.08 151.993 107.08C150.853 107.08 149.893 106.18 149.893 104.98V90.46H146.353ZM159.973 108.34C158.833 108.34 157.873 107.44 157.873 106.24V70.96C157.873 69.82 158.833 68.86 159.973 68.86C161.113 68.86 162.073 69.82 162.073 70.96V106.24C162.073 107.44 161.113 108.34 159.973 108.34ZM110.113 106.78C107.293 107.38 106.573 103.54 109.333 102.88C124.393 99.52 134.953 90.82 137.293 76.96C137.653 74.8 137.473 74.44 135.793 74.44H110.773C109.693 74.44 108.793 73.6 108.793 72.52C108.793 71.44 109.693 70.54 110.773 70.54H136.693C141.253 70.54 142.453 72.94 141.313 78.1C138.193 93.7 126.553 103.3 110.113 106.78ZM113.473 88.66C112.333 88.66 111.553 87.82 111.553 86.74C111.553 85.66 112.333 84.82 113.473 84.82H127.753C128.893 84.82 129.673 85.66 129.673 86.74C129.673 87.82 128.893 88.66 127.753 88.66H113.473Z" fill="white"/>
</svg>
