<svg width="91" height="121" viewBox="0 0 91 121" fill="none" xmlns="http://www.w3.org/2000/svg">
<rect x="0.5" y="0.5" width="90" height="120" fill="#90C85F"/>
<rect x="0.5" y="0.5" width="90" height="120" stroke="black"/>
<path d="M20.1734 60.64C19.0934 60.64 18.2534 59.8 18.2534 58.72C18.2534 57.64 19.0934 56.8 20.1734 56.8H43.3934V53.2C43.3934 52 44.3534 51.1 45.4934 51.1C46.6334 51.1 47.5934 52 47.5934 53.2V56.8H70.8134C71.8934 56.8 72.7334 57.64 72.7334 58.72C72.7334 59.8 71.8934 60.64 70.8134 60.64H20.1734ZM26.7734 78.16C22.1534 78.16 20.7134 77.2 20.7134 73.12V68.98C20.7134 64.9 22.1534 63.94 26.7734 63.94H64.2134C68.8934 63.94 70.2734 64.9 70.2734 68.98V73.12C70.2734 77.2 68.8934 78.16 64.2134 78.16H26.7734ZM24.8534 72.34C24.8534 74.08 25.2134 74.32 27.3734 74.32H63.6134C65.7734 74.32 66.1334 74.08 66.1334 72.34V69.76C66.1334 68.02 65.7734 67.78 63.6134 67.78H27.3734C25.2134 67.78 24.8534 68.02 24.8534 69.76V72.34ZM20.7134 53.8C18.1334 53.86 18.0134 50.02 20.6534 49.96C30.8534 49.6 42.1934 46.48 43.4534 43.84H22.3934C21.3734 43.84 20.5334 43 20.5334 41.92C20.5334 40.9 21.3734 40.06 22.3934 40.06H68.5934C69.6134 40.06 70.4534 40.9 70.4534 41.92C70.4534 43 69.6134 43.84 68.5934 43.84H47.5334C48.7934 46.48 60.1334 49.6 70.3334 49.96C72.9134 50.02 72.8534 53.86 70.2134 53.8C61.4534 53.5 50.2334 51.22 45.4934 47.2C40.7534 51.22 29.5334 53.5 20.7134 53.8Z" fill="white"/>
</svg>
