<svg width="361" height="181" viewBox="0 0 361 181" fill="none" xmlns="http://www.w3.org/2000/svg">
<rect x="0.5" y="0.5" width="90" height="120" fill="#90C85F"/>
<rect x="0.5" y="0.5" width="90" height="120" stroke="black"/>
<path d="M68.3534 67.48C67.2134 67.48 66.2534 66.58 66.2534 65.38V52.66H62.5334C61.4534 52.66 60.5534 51.76 60.5534 50.68C60.5534 49.6 61.4534 48.7 62.5334 48.7H66.2534V40.96C66.2534 39.82 67.2134 38.86 68.3534 38.86C69.4934 38.86 70.4534 39.82 70.4534 40.96V65.38C70.4534 66.58 69.4934 67.48 68.3534 67.48ZM28.9934 77.74C23.6534 77.74 21.4934 76.36 21.4934 72.46V67.36C21.4934 65.92 22.5734 65.2 23.6534 65.2C24.7334 65.2 25.8134 65.92 25.8134 67.36V71.38C25.8134 73.36 26.3534 73.66 29.7734 73.66H69.6134C70.6934 73.66 71.6534 74.56 71.6534 75.7C71.6534 76.84 70.6934 77.74 69.6134 77.74H28.9934ZM19.3934 61.66C18.0734 61.96 17.1734 61.12 16.9934 60.1C16.8134 59.14 17.2934 58 18.6734 57.76C26.8934 56.08 35.7134 49.96 36.0134 44.02H20.5934C19.2134 44.02 18.5534 43 18.5534 42.04C18.5534 41.02 19.2134 40.06 20.5934 40.06H55.0934C56.4734 40.06 57.1334 41.02 57.1334 42.04C57.1334 43 56.4734 44.02 55.0934 44.02H40.0934C40.3934 49.96 49.3334 56.14 56.8934 57.76C58.2134 58 58.6934 59.14 58.5134 60.1C58.3334 61.12 57.4334 61.96 56.0534 61.66C49.5734 60.28 41.6534 55.84 38.0534 49.9C34.3934 55.96 26.2334 60.16 19.3934 61.66Z" fill="white"/>
<rect x="90.5" y="30.5" width="90" height="120" fill="#90C85F"/>
<rect x="90.5" y="30.5" width="90" height="120" stroke="black"/>
<path d="M159.973 108.34C158.833 108.34 157.873 107.44 157.873 106.24V90.34H153.133V104.98C153.133 106.18 152.233 107.08 151.093 107.08C149.953 107.08 148.993 106.18 148.993 104.98V71.8C148.993 70.66 149.953 69.7 151.093 69.7C152.233 69.7 153.133 70.66 153.133 71.8V86.32H157.873V70.96C157.873 69.82 158.833 68.86 159.973 68.86C161.113 68.86 162.073 69.82 162.073 70.96V106.24C162.073 107.44 161.113 108.34 159.973 108.34ZM125.173 108.28C114.133 108.28 106.633 102.1 106.633 94.36C106.633 86.62 114.133 80.44 125.173 80.44C136.213 80.44 143.713 86.62 143.713 94.36C143.713 102.1 136.213 108.28 125.173 108.28ZM125.173 104.44C133.753 104.44 139.693 100.12 139.693 94.36C139.693 88.6 133.753 84.28 125.173 84.28C116.593 84.28 110.653 88.6 110.653 94.36C110.653 100.12 116.593 104.44 125.173 104.44ZM109.033 76.54C107.953 76.54 107.113 75.7 107.113 74.62C107.113 73.54 107.953 72.7 109.033 72.7H123.073V70.66C123.073 69.52 124.033 68.56 125.173 68.56C126.313 68.56 127.273 69.52 127.273 70.66V72.7H141.313C142.393 72.7 143.233 73.54 143.233 74.62C143.233 75.7 142.393 76.54 141.313 76.54H109.033Z" fill="white"/>
<rect x="180.5" y="60.5" width="90" height="120" fill="#90C85F"/>
<rect x="180.5" y="60.5" width="90" height="120" stroke="black"/>
<path d="M199.753 127.9C197.113 127.9 197.113 124 199.753 124H205.693C224.893 124 235.693 123.04 241.093 122.14C243.733 121.66 244.393 125.5 241.813 125.98C237.553 126.7 230.173 127.42 218.653 127.72V137.5C218.653 138.7 217.693 139.6 216.553 139.6C215.413 139.6 214.513 138.7 214.513 137.5V127.84C211.753 127.9 208.873 127.9 205.693 127.9H199.753ZM248.473 138.34C247.333 138.34 246.373 137.44 246.373 136.24V133.6H239.353C238.273 133.6 237.433 132.76 237.433 131.68C237.433 130.6 238.273 129.76 239.353 129.76H246.373V100.96C246.373 99.82 247.333 98.86 248.473 98.86C249.613 98.86 250.513 99.82 250.513 100.96V136.24C250.513 137.44 249.613 138.34 248.473 138.34ZM200.353 119.68C197.413 120.34 196.573 116.44 199.393 115.84C208.933 113.86 216.313 108.46 216.433 103.84H201.733C199.153 103.84 199.153 99.94 201.733 99.94H235.333C237.913 99.94 237.913 103.84 235.333 103.84H220.513C220.633 108.28 228.073 113.68 237.613 115.72C240.433 116.32 239.593 120.22 236.653 119.5C228.673 117.76 221.953 113.98 218.473 109C214.933 114.04 208.273 117.94 200.353 119.68Z" fill="white"/>
<rect x="270.5" y="60.5" width="90" height="120" fill="#90C85F"/>
<rect x="270.5" y="60.5" width="90" height="120" stroke="black"/>
<path d="M290.233 129.34C289.093 129.34 288.253 128.5 288.253 127.36C288.253 126.22 289.093 125.38 290.233 125.38H340.753C341.893 125.38 342.733 126.22 342.733 127.36C342.733 128.5 341.893 129.34 340.753 129.34H331.993V137.5C331.993 138.7 331.033 139.6 329.893 139.6C328.753 139.6 327.793 138.7 327.793 137.5V129.34H303.193V137.5C303.193 138.7 302.233 139.6 301.093 139.6C299.953 139.6 298.993 138.7 298.993 137.5V129.34H290.233ZM315.493 120.94C300.193 120.94 289.693 116.68 289.693 109.66C289.693 102.64 300.193 98.38 315.493 98.38C330.793 98.38 341.293 102.64 341.293 109.66C341.293 116.68 330.793 120.94 315.493 120.94ZM315.493 116.98C328.153 116.98 337.093 113.68 337.093 109.66C337.093 105.64 328.153 102.34 315.493 102.34C302.833 102.34 293.893 105.64 293.893 109.66C293.893 113.68 302.833 116.98 315.493 116.98Z" fill="white"/>
</svg>
