<svg width="91" height="121" viewBox="0 0 91 121" fill="none" xmlns="http://www.w3.org/2000/svg">
<rect x="0.5" y="0.5" width="90" height="120" fill="#90C85F"/>
<rect x="0.5" y="0.5" width="90" height="120" stroke="black"/>
<path d="M68.4134 78.34C67.2734 78.34 66.3134 77.44 66.3134 76.24V56.86H60.8534C59.7134 56.86 58.8134 55.96 58.8134 54.82C58.8134 53.68 59.7134 52.78 60.8534 52.78H66.3134V40.96C66.3134 39.82 67.2734 38.86 68.4134 38.86C69.5534 38.86 70.5134 39.82 70.5134 40.96V76.24C70.5134 77.44 69.5534 78.34 68.4134 78.34ZM29.0534 76.3C23.4734 76.42 20.9534 74.74 20.9534 69.28V42.52C20.9534 41.44 21.9134 40.36 23.1134 40.36C24.4334 40.42 25.2734 41.5 25.2734 42.52V67.96C25.2734 71.92 25.6934 72.16 29.6534 72.22C38.3534 72.22 48.6134 70.96 54.8534 69.4C57.6734 68.74 58.5134 72.7 55.8134 73.36C49.3334 74.98 39.0134 76.3 29.0534 76.3Z" fill="white"/>
</svg>
