<svg width="181" height="151" viewBox="0 0 181 151" fill="none" xmlns="http://www.w3.org/2000/svg">
<rect x="0.5" y="30.5" width="90" height="120" fill="#90C85F"/>
<rect x="0.5" y="30.5" width="90" height="120" stroke="black"/>
<path d="M69.4934 89.14C68.3534 89.14 67.3934 88.24 67.3934 87.04V80.86H62.6534V86.56C62.6534 87.7 61.8134 88.6 60.6734 88.6C59.5334 88.6 58.6334 87.7 58.6334 86.56V71.62C58.6334 70.48 59.5334 69.58 60.6734 69.58C61.8134 69.58 62.6534 70.48 62.6534 71.62V76.9H67.3934V70.96C67.3934 69.82 68.3534 68.86 69.4934 68.86C70.6334 68.86 71.5334 69.82 71.5334 70.96V87.04C71.5334 88.24 70.6334 89.14 69.4934 89.14ZM28.2134 108.16C22.9334 108.16 21.2534 107.14 21.2534 102.76V97.48C21.2534 93.1 22.9334 92.08 28.2134 92.08H64.6934C69.9734 92.08 71.5934 93.1 71.5934 97.48V102.76C71.5934 107.14 69.9734 108.16 64.6934 108.16H28.2134ZM25.3934 101.98C25.3934 103.96 25.8734 104.26 28.3934 104.26H64.5134C67.0334 104.26 67.4534 103.96 67.4534 101.98V98.26C67.4534 96.28 67.0334 95.98 64.5134 95.98H28.3934C25.8734 95.98 25.3934 96.28 25.3934 98.26V101.98ZM23.3534 88.12C19.5734 88.12 17.6534 86.68 17.6534 82.48V74.92C17.6534 71.14 18.9734 70.06 22.8734 70.06H31.7534C34.3334 70.06 34.3334 73.9 31.7534 73.9H24.2534C22.1534 73.9 21.8534 74.2 21.8534 76.24V80.86C21.8534 83.98 22.0934 84.22 24.6734 84.22H33.1334C35.6534 84.22 35.7134 88.12 33.1334 88.12H23.3534ZM43.1534 88.12C39.3134 88.24 37.3934 86.68 37.3934 82.48V74.92C37.3934 71.14 38.7734 70.06 42.6734 70.06H51.7334C54.3134 70.06 54.3134 73.96 51.7334 73.96H44.0534C41.9534 73.96 41.5934 74.26 41.5934 76.24V81.4C41.5934 83.98 41.8934 84.16 44.3534 84.22C48.8534 84.1 51.4934 83.8 54.6734 82.9C57.4334 82.12 58.2734 85.84 55.8734 86.62C52.5734 87.58 49.4534 88.12 43.1534 88.12Z" fill="white"/>
<rect x="90.5" y="0.5" width="90" height="120" fill="#90C85F"/>
<rect x="90.5" y="0.5" width="90" height="120" stroke="black"/>
<path d="M109.213 76.06C106.753 77.74 104.533 74.26 107.053 72.58C117.913 65.38 126.133 52.84 126.133 43.12V41.8C126.133 38.92 130.453 38.92 130.453 41.8V43.12C130.453 52.84 138.673 65.38 149.533 72.58C152.053 74.26 149.833 77.74 147.373 76.06C138.613 70.12 131.653 61.66 128.293 52.36C124.933 61.66 117.973 70.12 109.213 76.06ZM158.413 78.34C157.273 78.34 156.313 77.44 156.313 76.24V40.96C156.313 39.82 157.273 38.86 158.413 38.86C159.553 38.86 160.513 39.82 160.513 40.96V76.24C160.513 77.44 159.553 78.34 158.413 78.34Z" fill="white"/>
</svg>
