<svg width="361" height="181" viewBox="0 0 361 181" fill="none" xmlns="http://www.w3.org/2000/svg">
<rect x="0.5" y="0.5" width="90" height="120" fill="#90C85F"/>
<rect x="0.5" y="0.5" width="90" height="120" stroke="black"/>
<path d="M66.3134 64.3C65.8934 65.68 64.6934 66.1 63.7334 65.8C62.7134 65.56 61.9934 64.54 62.4134 63.04C63.9734 57.76 64.9334 52.84 65.2934 47.26C65.3534 46.18 65.2934 45.52 64.8734 45.16C64.3934 44.68 63.5534 44.56 61.9334 44.56H22.6334C21.5534 44.56 20.7134 43.66 20.7134 42.58C20.7134 41.5 21.5534 40.54 22.6334 40.54H62.1134C65.2334 40.54 67.2134 40.9 68.3534 42.04C69.3134 43 69.6134 44.56 69.5534 46.96C69.1334 54.28 67.8134 59.62 66.3134 64.3ZM20.5934 77.32C19.4534 77.32 18.5534 76.42 18.5534 75.28C18.5534 74.14 19.4534 73.24 20.5934 73.24H37.3934V54.4C37.3934 53.2 38.3534 52.3 39.4934 52.3C40.6334 52.3 41.5934 53.2 41.5934 54.4V73.24H70.3934C71.5334 73.24 72.4334 74.14 72.4334 75.28C72.4334 76.42 71.5334 77.32 70.3934 77.32H20.5934Z" fill="white"/>
<rect x="90.5" y="30.5" width="90" height="120" fill="#90C85F"/>
<rect x="90.5" y="30.5" width="90" height="120" stroke="black"/>
<path d="M136.813 109.06C120.853 109.06 110.593 106.18 110.593 100.06C110.593 93.94 120.853 91.06 136.813 91.06C152.713 91.06 162.313 93.88 162.313 100.06C162.313 106.18 152.713 109.06 136.813 109.06ZM136.813 105.16C149.413 105.16 158.113 102.88 158.113 100.06C158.113 97.24 149.413 94.96 136.813 94.96C124.153 94.96 114.793 97.24 114.793 100.06C114.793 102.88 124.153 105.16 136.813 105.16ZM159.433 89.14C158.293 89.14 157.333 88.24 157.333 87.04V80.86H152.593V86.5C152.593 87.7 151.693 88.6 150.553 88.6C149.413 88.6 148.453 87.7 148.453 86.5V71.68C148.453 70.54 149.413 69.58 150.553 69.58C151.693 69.58 152.593 70.54 152.593 71.68V76.9H157.333V70.96C157.333 69.82 158.293 68.86 159.433 68.86C160.573 68.86 161.533 69.82 161.533 70.96V87.04C161.533 88.24 160.573 89.14 159.433 89.14ZM107.233 88.66C104.653 89.5 103.453 85.84 106.093 84.94C113.293 82.3 119.893 76.66 123.133 70.9C123.733 69.82 124.273 69.28 125.293 69.28C126.253 69.28 126.793 69.82 127.393 70.9C130.633 76.48 137.233 81.46 144.253 83.86C146.893 84.76 145.753 88.42 143.113 87.58C136.093 85.3 129.313 80.32 125.293 74.8C121.213 80.5 114.373 86.08 107.233 88.66Z" fill="white"/>
<rect x="180.5" y="30.5" width="90" height="120" fill="#90C85F"/>
<rect x="180.5" y="30.5" width="90" height="120" stroke="black"/>
<path d="M249.973 108.34C248.833 108.34 247.873 107.44 247.873 106.24V90.34H243.133V104.98C243.133 106.18 242.233 107.08 241.093 107.08C239.953 107.08 238.993 106.18 238.993 104.98V71.8C238.993 70.66 239.953 69.7 241.093 69.7C242.233 69.7 243.133 70.66 243.133 71.8V86.32H247.873V70.96C247.873 69.82 248.833 68.86 249.973 68.86C251.113 68.86 252.073 69.82 252.073 70.96V106.24C252.073 107.44 251.113 108.34 249.973 108.34ZM199.693 106.24C198.673 107.08 197.533 106.78 196.873 106C196.273 105.28 196.153 104.08 197.113 103.18C204.013 97.12 208.573 86.02 209.053 76.78C209.173 74.8 208.993 74.5 207.613 74.5H199.813C198.733 74.5 197.833 73.6 197.833 72.52C197.833 71.44 198.733 70.54 199.813 70.54H209.113C212.113 70.54 213.253 72.1 213.253 75.4C213.253 85.48 207.493 99.88 199.693 106.24ZM218.893 106.6C218.113 106 217.753 104.86 218.593 103.78C224.593 96.1 227.473 86.14 227.893 76.3C228.013 74.74 227.773 74.5 226.453 74.5H217.753C216.673 74.5 215.773 73.6 215.773 72.52C215.773 71.44 216.673 70.54 217.753 70.54H227.713C230.953 70.54 232.153 71.98 231.973 75.88C231.673 86.38 228.433 97.9 221.653 106.24C220.813 107.26 219.673 107.2 218.893 106.6Z" fill="white"/>
<rect x="270.5" y="60.5" width="90" height="120" fill="#90C85F"/>
<rect x="270.5" y="60.5" width="90" height="120" stroke="black"/>
<path d="M337.813 138.34C336.673 138.34 335.713 137.44 335.713 136.24V100.96C335.713 99.82 336.673 98.86 337.813 98.86C338.953 98.86 339.913 99.82 339.913 100.96V115.48H343.453C344.593 115.48 345.493 116.38 345.493 117.52C345.493 118.66 344.593 119.56 343.453 119.56H339.913V136.24C339.913 137.44 338.953 138.34 337.813 138.34ZM299.173 136.3C293.533 136.42 290.953 134.68 290.953 129.16V102.52C290.953 101.44 291.913 100.36 293.113 100.36C294.433 100.42 295.273 101.5 295.273 102.52V127.9C295.273 131.92 295.693 132.16 299.713 132.22C308.773 132.22 319.273 131.02 325.573 129.46C328.393 128.8 329.233 132.76 326.533 133.42C319.993 135.04 309.073 136.3 299.173 136.3Z" fill="white"/>
</svg>
