<svg width="271" height="181" viewBox="0 0 271 181" fill="none" xmlns="http://www.w3.org/2000/svg">
<rect x="0.5" y="0.5" width="90" height="120" fill="#90C85F"/>
<rect x="0.5" y="0.5" width="90" height="120" stroke="black"/>
<path d="M69.4334 60.76C68.2934 60.76 67.3334 59.86 67.3334 58.66V51.16H62.5934V57.58C62.5934 58.78 61.6934 59.68 60.5534 59.68C59.4134 59.68 58.4534 58.78 58.4534 57.58V41.68C58.4534 40.54 59.4134 39.58 60.5534 39.58C61.6934 39.58 62.5934 40.54 62.5934 41.68V47.2H67.3334V40.96C67.3334 39.82 68.2934 38.86 69.4334 38.86C70.5734 38.86 71.5334 39.82 71.5334 40.96V58.66C71.5334 59.86 70.5734 60.76 69.4334 60.76ZM20.2334 74.5C25.0334 71.86 29.0534 68.38 31.8134 64.06C32.3534 63.16 33.1934 62.68 34.0934 62.68C34.9934 62.68 35.7734 63.16 36.3734 64.06C39.0134 68.26 42.5534 71.56 46.9934 74.14C51.4334 71.56 54.9734 68.26 57.6134 64.06C58.2134 63.16 58.9934 62.68 59.8934 62.68C60.7934 62.68 61.6334 63.16 62.1734 64.06C64.9334 68.44 69.0134 71.92 73.8134 74.56C76.2734 75.88 74.3534 79.42 71.8934 78.04C67.1534 75.46 62.5934 71.5 59.8934 67.66C57.1334 71.62 52.7534 75.52 48.1934 78.04C47.4134 78.46 46.6334 78.46 45.7934 78.04C41.2334 75.52 36.8534 71.62 34.0934 67.6C31.3934 71.44 26.8334 75.4 22.0934 78.04C19.6334 79.36 17.7734 75.82 20.2334 74.5ZM35.3534 59.98C23.8334 59.98 16.3934 58.66 16.3934 53.74C16.3934 48.88 23.8334 47.26 35.3534 47.26C46.8134 47.26 54.2534 48.88 54.2534 53.74C54.2534 58.66 46.8134 59.98 35.3534 59.98ZM35.3534 56.38C44.6534 56.38 50.1734 55.36 50.1734 53.74C50.1734 52.18 44.6534 50.86 35.3534 50.86C25.9934 50.86 20.4734 52.18 20.4734 53.74C20.4734 55.36 25.9934 56.38 35.3534 56.38ZM18.4934 44.98C16.0334 45.04 16.0334 41.32 18.4934 41.32H33.1334V40.24C33.1334 39.04 34.1534 38.26 35.2334 38.26C36.3134 38.26 37.3334 39.04 37.3334 40.24V41.32H52.1534C54.6134 41.32 54.6134 45.04 52.1534 44.98C39.9134 44.74 30.7334 44.74 18.4934 44.98Z" fill="white"/>
<rect x="90.5" y="30.5" width="90" height="120" fill="#90C85F"/>
<rect x="90.5" y="30.5" width="90" height="120" stroke="black"/>
<path d="M118.453 107.74C113.653 107.74 111.613 106.48 111.613 102.76V99.16C111.613 97.72 112.693 97 113.773 97C114.853 97 115.933 97.72 115.933 99.16V101.8C115.933 103.54 116.353 103.78 119.533 103.78H159.493C160.573 103.78 161.473 104.62 161.473 105.76C161.473 106.9 160.573 107.74 159.493 107.74H118.453ZM119.713 83.86C113.893 83.98 111.313 82.48 111.313 77.8V71.38C111.313 69.94 112.393 69.22 113.473 69.22C114.553 69.22 115.633 69.94 115.633 71.38V76.36C115.633 79.54 116.053 79.72 119.953 79.78H158.833C159.913 79.78 160.873 80.68 160.873 81.82C160.873 82.96 159.913 83.86 158.833 83.86H119.713ZM110.293 93.52C109.153 93.52 108.253 92.62 108.253 91.48C108.253 90.34 109.153 89.44 110.293 89.44H160.693C161.833 89.44 162.733 90.34 162.733 91.48C162.733 92.62 161.833 93.52 160.693 93.52H110.293Z" fill="white"/>
<rect x="180.5" y="60.5" width="90" height="120" fill="#90C85F"/>
<rect x="180.5" y="60.5" width="90" height="120" stroke="black"/>
<path d="M208.933 136.3C203.233 136.42 200.653 134.68 200.653 129.1V106.84C200.653 101.74 202.393 100.54 208.273 100.54H230.353C231.433 100.54 232.333 101.44 232.333 102.52C232.333 103.6 231.433 104.5 230.353 104.5H208.453C205.333 104.5 204.853 104.86 204.853 107.2V128.02C204.853 132.04 205.273 132.28 209.293 132.34C219.193 132.34 230.473 131.02 236.773 129.46C239.593 128.74 240.493 132.58 237.793 133.3C231.193 134.92 219.193 136.3 208.933 136.3ZM248.413 138.34C247.273 138.34 246.313 137.44 246.313 136.24V100.96C246.313 99.82 247.273 98.86 248.413 98.86C249.553 98.86 250.513 99.82 250.513 100.96V136.24C250.513 137.44 249.553 138.34 248.413 138.34Z" fill="white"/>
</svg>
