<svg width="271" height="121" viewBox="0 0 271 121" fill="none" xmlns="http://www.w3.org/2000/svg">
<rect x="0.5" y="0.5" width="90" height="120" fill="#90C85F"/>
<rect x="0.5" y="0.5" width="90" height="120" stroke="black"/>
<path d="M20.7134 52.48C18.1934 52.6 17.8334 48.7 20.4134 48.52C28.1534 47.86 38.1734 44.74 43.5134 39.4C43.9934 38.86 44.7134 38.5 45.4934 38.5C46.3334 38.5 46.9934 38.86 47.4734 39.4C52.8134 44.74 62.8334 47.86 70.5734 48.52C73.1534 48.7 72.7934 52.6 70.2734 52.48C61.4534 51.82 51.1334 47.86 45.4934 43C39.8534 47.86 29.5334 51.82 20.7134 52.48ZM25.3934 78.34C21.9134 78.34 19.8734 76.36 19.8734 73.3C19.8734 70.24 21.9134 68.38 25.3934 68.38H65.5334C66.3734 68.38 66.8534 67.78 66.8534 67C66.8534 66.22 66.3734 65.68 65.5334 65.68H21.5534C19.0334 65.68 19.0334 62.08 21.5534 62.08H65.5334C69.0134 62.08 71.0534 64.06 71.0534 67.06C71.0534 70.12 69.0134 71.92 65.5334 71.92H25.3934C24.4934 71.92 24.0134 72.46 24.0134 73.3C24.0134 74.14 24.4934 74.68 25.3934 74.68H70.2734C72.8534 74.68 72.7934 78.34 70.2734 78.34H25.3934ZM20.1134 59.2C19.0334 59.2 18.2534 58.42 18.2534 57.34C18.2534 56.26 19.0334 55.48 20.1134 55.48H43.3934V49.78C43.3934 48.58 44.3534 47.68 45.4934 47.68C46.6334 47.68 47.5934 48.58 47.5934 49.78V55.48H70.8734C71.9534 55.48 72.7334 56.26 72.7334 57.34C72.7334 58.42 71.9534 59.2 70.8734 59.2H20.1134Z" fill="white"/>
<rect x="90.5" y="0.5" width="90" height="120" fill="#90C85F"/>
<rect x="90.5" y="0.5" width="90" height="120" stroke="black"/>
<path d="M158.353 59.14C157.213 59.14 156.253 58.24 156.253 57.04V40.96C156.253 39.82 157.213 38.86 158.353 38.86C159.493 38.86 160.453 39.82 160.453 40.96V57.04C160.453 58.24 159.493 59.14 158.353 59.14ZM158.353 78.34C157.213 78.34 156.253 77.38 156.253 76.24V68.8C156.253 66.82 155.893 66.52 153.373 66.52H112.873C111.733 66.52 110.893 65.62 110.893 64.54C110.893 63.46 111.733 62.56 112.873 62.56H153.253C158.833 62.56 160.513 63.58 160.453 67.96V76.24C160.453 77.38 159.493 78.34 158.353 78.34ZM109.153 57.76C107.893 57.94 107.053 57.04 106.993 56.02C106.873 55.06 107.413 53.98 108.853 53.86C115.093 53.14 126.733 49.06 126.733 43.96H110.653C109.333 43.96 108.613 43 108.613 42.04C108.613 41.02 109.333 40.06 110.653 40.06H146.893C148.213 40.06 148.933 41.02 148.933 42.04C148.933 43 148.213 43.96 146.893 43.96H130.813C130.813 49.12 142.993 53.26 148.693 53.86C150.073 53.98 150.673 55.06 150.613 56.02C150.493 57.04 149.653 57.94 148.273 57.76C142.153 56.92 132.913 54.1 128.773 48.94C124.693 54.04 115.513 56.98 109.153 57.76Z" fill="white"/>
<rect x="180.5" y="0.5" width="90" height="120" fill="#90C85F"/>
<rect x="180.5" y="0.5" width="90" height="120" stroke="black"/>
<path d="M217.873 78.28C206.653 78.28 198.193 72.22 198.193 64.36C198.193 56.5 206.653 50.44 217.873 50.44C229.093 50.44 237.553 56.5 237.553 64.36C237.553 72.22 229.093 78.28 217.873 78.28ZM217.873 74.44C226.873 74.44 233.533 70.12 233.533 64.36C233.533 58.6 226.873 54.28 217.873 54.28C208.873 54.28 202.213 58.6 202.213 64.36C202.213 70.12 208.873 74.44 217.873 74.44ZM200.593 46.54C199.513 46.54 198.673 45.7 198.673 44.62C198.673 43.54 199.513 42.7 200.593 42.7H215.773V40.66C215.773 39.52 216.733 38.56 217.873 38.56C219.013 38.56 219.973 39.52 219.973 40.66V42.7H235.153C236.233 42.7 237.073 43.54 237.073 44.62C237.073 45.7 236.233 46.54 235.153 46.54H200.593ZM248.413 78.34C247.273 78.34 246.313 77.44 246.313 76.24V40.96C246.313 39.82 247.273 38.86 248.413 38.86C249.553 38.86 250.513 39.82 250.513 40.96V76.24C250.513 77.44 249.553 78.34 248.413 78.34Z" fill="white"/>
</svg>
