<svg width="91" height="121" viewBox="0 0 91 121" fill="none" xmlns="http://www.w3.org/2000/svg">
<rect x="0.5" y="0.5" width="90" height="120" fill="#90C85F"/>
<rect x="0.5" y="0.5" width="90" height="120" stroke="black"/>
<path d="M29.2334 76.3C23.5334 76.42 20.9534 74.68 20.9534 69.1V42.52C20.9534 41.44 21.9134 40.36 23.1134 40.36C24.4334 40.42 25.2734 41.5 25.2734 42.52V67.9C25.2734 71.92 25.6934 72.16 29.7134 72.22C39.1334 72.22 49.8134 71.02 56.1734 69.52C58.9934 68.86 59.8334 72.82 57.1334 73.48C50.4734 75.04 39.1334 76.3 29.2334 76.3ZM68.4134 78.34C67.2734 78.34 66.3134 77.44 66.3134 76.24V40.96C66.3134 39.82 67.2734 38.86 68.4134 38.86C69.5534 38.86 70.5134 39.82 70.5134 40.96V76.24C70.5134 77.44 69.5534 78.34 68.4134 78.34Z" fill="white"/>
</svg>
