<svg width="271" height="151" viewBox="0 0 271 151" fill="none" xmlns="http://www.w3.org/2000/svg">
<rect x="0.5" y="0.5" width="90" height="120" fill="#90C85F"/>
<rect x="0.5" y="0.5" width="90" height="120" stroke="black"/>
<path d="M67.8134 78.34C66.6734 78.34 65.7134 77.44 65.7134 76.24V40.96C65.7134 39.82 66.6734 38.86 67.8134 38.86C68.9534 38.86 69.9134 39.82 69.9134 40.96V55.48H73.4534C74.5934 55.48 75.4934 56.38 75.4934 57.52C75.4934 58.66 74.5934 59.56 73.4534 59.56H69.9134V76.24C69.9134 77.44 68.9534 78.34 67.8134 78.34ZM37.5134 78.22C27.0134 78.22 18.1934 70.18 18.1934 58.6C18.1934 47.02 27.0134 38.98 37.5134 38.98C48.0134 38.98 56.8334 47.02 56.8334 58.6C56.8334 70.18 48.0134 78.22 37.5134 78.22ZM37.5134 74.26C45.9734 74.26 52.6334 67.72 52.6334 58.6C52.6334 49.48 45.9734 42.94 37.5134 42.94C29.0534 42.94 22.3934 49.48 22.3934 58.6C22.3934 67.72 29.0534 74.26 37.5134 74.26Z" fill="white"/>
<rect x="90.5" y="30.5" width="90" height="120" fill="#90C85F"/>
<rect x="90.5" y="30.5" width="90" height="120" stroke="black"/>
<path d="M158.353 90.34C157.213 90.34 156.253 89.44 156.253 88.24V84.58H151.873C150.793 84.58 149.953 83.74 149.953 82.72C149.953 81.64 150.793 80.8 151.873 80.8H156.253V76H151.873C150.793 76 149.953 75.16 149.953 74.14C149.953 73.06 150.793 72.22 151.873 72.22H156.253V70.96C156.253 69.82 157.213 68.86 158.353 68.86C159.493 68.86 160.453 69.82 160.453 70.96V88.24C160.453 89.44 159.493 90.34 158.353 90.34ZM110.113 104.56C114.793 101.8 118.753 97.84 121.453 93.22C121.993 92.32 122.833 91.78 123.733 91.78C124.633 91.78 125.473 92.32 126.013 93.22C128.773 97.96 132.073 101.32 136.393 104.08C140.713 101.32 144.013 97.96 146.773 93.22C147.313 92.32 148.153 91.78 149.053 91.78C149.953 91.78 150.793 92.32 151.333 93.22C154.033 97.9 157.993 101.8 162.673 104.56C165.133 106 163.033 109.48 160.573 107.98C156.073 105.22 151.633 101.02 149.053 96.94C146.473 101.02 142.093 105.28 137.593 108.04C136.813 108.52 135.973 108.52 135.193 108.04C130.693 105.34 126.313 101.02 123.733 96.94C121.153 101.02 116.773 105.22 112.213 107.98C109.753 109.48 107.653 106 110.113 104.56ZM117.733 87.64C112.273 87.7 109.993 86.2 109.993 81.28V72.22C109.993 71.14 110.953 70.06 112.153 70.06C113.473 70.12 114.313 71.2 114.313 72.22V79.84C114.313 83.32 114.673 83.56 118.093 83.62C126.073 83.68 135.013 83.26 142.333 82.06C145.393 81.52 145.873 85.6 143.173 86.02C135.973 87.1 126.673 87.64 118.453 87.64H117.733Z" fill="white"/>
<rect x="180.5" y="30.5" width="90" height="120" fill="#90C85F"/>
<rect x="180.5" y="30.5" width="90" height="120" stroke="black"/>
<path d="M206.773 108.16C202.153 108.16 200.713 107.2 200.713 103.12V98.98C200.713 94.9 202.153 93.94 206.773 93.94H244.213C248.893 93.94 250.273 94.9 250.273 98.98V103.12C250.273 107.2 248.893 108.16 244.213 108.16H206.773ZM204.853 102.34C204.853 104.08 205.213 104.32 207.373 104.32H243.613C245.773 104.32 246.133 104.08 246.133 102.34V99.76C246.133 98.02 245.773 97.78 243.613 97.78H207.373C205.213 97.78 204.853 98.02 204.853 99.76V102.34ZM200.173 90.58C199.093 90.58 198.253 89.74 198.253 88.66C198.253 87.58 199.093 86.74 200.173 86.74H250.813C251.893 86.74 252.733 87.58 252.733 88.66C252.733 89.74 251.893 90.58 250.813 90.58H200.173ZM225.253 84.22C208.993 84.22 199.333 82.12 199.333 76.78C199.333 71.44 208.993 69.34 225.253 69.34C241.513 69.34 251.173 71.44 251.173 76.78C251.173 82.12 241.513 84.22 225.253 84.22ZM225.253 80.56C238.933 80.56 246.913 78.76 246.913 76.78C246.913 74.68 238.633 73 225.253 73C211.573 73 203.593 74.8 203.593 76.78C203.593 78.76 211.573 80.56 225.253 80.56Z" fill="white"/>
</svg>
