<svg width="271" height="121" viewBox="0 0 271 121" fill="none" xmlns="http://www.w3.org/2000/svg">
<rect x="0.5" y="0.5" width="90" height="120" fill="#90C85F"/>
<rect x="0.5" y="0.5" width="90" height="120" stroke="black"/>
<path d="M69.9734 78.34C68.8334 78.34 67.8734 77.44 67.8734 76.24V60.34H63.1334V74.98C63.1334 76.18 62.2334 77.08 61.0934 77.08C59.9534 77.08 58.9934 76.18 58.9934 74.98V41.8C58.9934 40.66 59.9534 39.7 61.0934 39.7C62.2334 39.7 63.1334 40.66 63.1334 41.8V56.32H67.8734V40.96C67.8734 39.82 68.8334 38.86 69.9734 38.86C71.1134 38.86 72.0734 39.82 72.0734 40.96V76.24C72.0734 77.44 71.1134 78.34 69.9734 78.34ZM27.3734 76.3C21.8534 76.42 19.3934 74.74 19.3934 69.4V42.52C19.3934 41.44 20.3534 40.36 21.5534 40.36C22.8734 40.42 23.7134 41.5 23.7134 42.52V67.96C23.7134 71.92 24.1334 72.16 28.0934 72.22C36.4934 72.22 46.5734 70.9 52.7534 69.4C55.5734 68.68 56.4734 72.7 53.7734 73.36C47.2934 74.92 37.3934 76.3 27.3734 76.3Z" fill="white"/>
<rect x="90.5" y="0.5" width="90" height="120" fill="#90C85F"/>
<rect x="90.5" y="0.5" width="90" height="120" stroke="black"/>
<path d="M158.353 67.48C157.213 67.48 156.253 66.58 156.253 65.38V40.96C156.253 39.82 157.213 38.86 158.353 38.86C159.493 38.86 160.453 39.82 160.453 40.96V65.38C160.453 66.58 159.493 67.48 158.353 67.48ZM118.993 77.74C113.653 77.74 111.493 76.36 111.493 72.46V67.36C111.493 65.92 112.573 65.2 113.653 65.2C114.733 65.2 115.813 65.92 115.813 67.36V71.38C115.813 73.36 116.353 73.66 119.773 73.66H159.613C160.693 73.66 161.653 74.56 161.653 75.7C161.653 76.84 160.693 77.74 159.613 77.74H118.993ZM127.393 62.68C117.073 62.68 108.013 58.24 108.013 50.74C108.013 43.3 117.073 38.86 127.393 38.86C137.713 38.86 146.773 43.3 146.773 50.74C146.773 58.24 137.713 62.68 127.393 62.68ZM127.393 58.72C136.633 58.72 142.573 55.24 142.573 50.74C142.573 46.3 136.633 42.82 127.393 42.82C118.153 42.82 112.213 46.3 112.213 50.74C112.213 55.24 118.153 58.72 127.393 58.72Z" fill="white"/>
<rect x="180.5" y="0.5" width="90" height="120" fill="#90C85F"/>
<rect x="180.5" y="0.5" width="90" height="120" stroke="black"/>
<path d="M226.813 79.06C210.853 79.06 200.593 76.18 200.593 70.06C200.593 63.94 210.853 61.06 226.813 61.06C242.713 61.06 252.313 63.88 252.313 70.06C252.313 76.18 242.713 79.06 226.813 79.06ZM226.813 75.16C239.413 75.16 248.113 72.88 248.113 70.06C248.113 67.24 239.413 64.96 226.813 64.96C214.153 64.96 204.793 67.24 204.793 70.06C204.793 72.88 214.153 75.16 226.813 75.16ZM249.433 59.14C248.293 59.14 247.333 58.24 247.333 57.04V50.86H242.593V56.5C242.593 57.7 241.693 58.6 240.553 58.6C239.413 58.6 238.453 57.7 238.453 56.5V41.68C238.453 40.54 239.413 39.58 240.553 39.58C241.693 39.58 242.593 40.54 242.593 41.68V46.9H247.333V40.96C247.333 39.82 248.293 38.86 249.433 38.86C250.573 38.86 251.533 39.82 251.533 40.96V57.04C251.533 58.24 250.573 59.14 249.433 59.14ZM197.233 58.66C194.653 59.5 193.453 55.84 196.093 54.94C203.293 52.3 209.893 46.66 213.133 40.9C213.733 39.82 214.273 39.28 215.293 39.28C216.253 39.28 216.793 39.82 217.393 40.9C220.633 46.48 227.233 51.46 234.253 53.86C236.893 54.76 235.753 58.42 233.113 57.58C226.093 55.3 219.313 50.32 215.293 44.8C211.213 50.5 204.373 56.08 197.233 58.66Z" fill="white"/>
</svg>
