<svg width="361" height="181" viewBox="0 0 361 181" fill="none" xmlns="http://www.w3.org/2000/svg">
<rect x="0.5" y="29.5" width="90" height="120" fill="#00B7AB"/>
<rect x="0.5" y="29.5" width="90" height="120" stroke="black"/>
<path d="M60.5623 81.2V56.24H65.4823V69.74H73.8823V74.18H65.4823V81.02C65.4823 86.18 66.9223 89.36 71.7223 89.36H73.2223V93.8H71.6623C64.4623 93.8 60.5623 89.6 60.5623 81.2ZM23.1223 93.8H17.8423V89.36H22.5223C31.5823 89.36 36.8023 85.04 36.8023 77.48V74.18H24.6223V69.74H53.7223V74.18H41.9023V77.48C41.9023 84.74 46.8223 89.06 55.2223 89.24V93.56C48.2023 93.56 42.4423 90.68 39.3823 85.7C36.4423 90.86 30.5023 93.8 23.1223 93.8ZM44.1223 114.08V120.38H65.2423V124.82H41.9023C40.1623 124.82 39.2023 123.86 39.2023 122.12V109.7H59.1823V103.64H39.2023V99.2H61.4023C63.1423 99.2 64.1023 100.16 64.1023 101.9V114.08H44.1223Z" fill="white"/>
<rect x="90.5" y="60.5" width="90" height="120" fill="#00B7AB"/>
<rect x="90.5" y="60.5" width="90" height="120" stroke="black"/>
<path d="M161.349 120.36V124.8C155.949 124.44 151.689 120.36 151.689 110.64V87.24H156.609V109.56C156.609 116.28 158.469 119.28 161.349 120.36ZM127.689 124.8H109.629V120.36H127.689C131.949 120.36 135.009 117.24 135.009 112.92C135.009 108.54 131.949 105.42 127.689 105.42C123.489 105.42 120.429 108.54 120.429 112.92C120.429 114.6 120.789 115.92 121.569 117.12H116.589C115.869 115.98 115.509 114.54 115.509 112.92C115.509 105.96 120.669 100.98 127.689 100.98C134.769 100.98 139.929 105.96 139.929 112.92C139.929 119.82 134.769 124.8 127.689 124.8ZM120.969 151.92V147.48C126.549 147.24 129.369 143.76 129.369 138.9V130.68H134.349V138.9C134.349 143.58 136.329 146.94 139.989 147.18C143.649 146.94 145.629 143.58 145.629 138.9V130.68H150.609V138.9C150.609 143.7 153.309 147 158.649 147.24V151.68C153.729 151.56 150.009 149.46 148.149 146.1C146.409 149.46 143.409 151.44 139.989 151.56C136.629 151.44 133.509 149.46 131.889 146.1C129.849 149.64 125.949 151.8 120.969 151.92Z" fill="white"/>
<rect x="180.5" y="29.5" width="90" height="120" fill="#00B7AB"/>
<rect x="180.5" y="29.5" width="90" height="120" stroke="black"/>
<path d="M254.668 89.36V93.8C248.668 93.44 245.008 89.48 245.008 81.8V74.42H230.968V69.98H245.008V56.24H249.928V80.84C249.928 85.58 251.428 88.64 254.668 89.36ZM214.348 93.8H196.348V89.36H214.348C218.548 89.36 221.608 86.24 221.608 81.92C221.608 77.6 218.548 74.48 214.348 74.48C210.148 74.48 207.088 77.6 207.088 81.92C207.088 83.6 207.448 84.92 208.228 86.12H203.248C202.528 84.98 202.168 83.54 202.168 81.92C202.168 75.02 207.328 70.04 214.348 70.04C221.368 70.04 226.528 75.02 226.528 81.92C226.528 88.82 221.368 93.8 214.348 93.8Z" fill="white"/>
<rect x="270.5" y="0.5" width="90" height="120" fill="#00B7AB"/>
<rect x="270.5" y="0.5" width="90" height="120" stroke="black"/>
<path d="M341.349 60.36V64.8C335.949 64.44 331.689 60.36 331.689 50.64V27.24H336.609V49.56C336.609 56.28 338.469 59.28 341.349 60.36ZM307.689 64.8H289.629V60.36H307.689C311.949 60.36 315.009 57.24 315.009 52.92C315.009 48.54 311.949 45.42 307.689 45.42C303.489 45.42 300.429 48.54 300.429 52.92C300.429 54.6 300.789 55.92 301.569 57.12H296.589C295.869 55.98 295.509 54.54 295.509 52.92C295.509 45.96 300.669 40.98 307.689 40.98C314.769 40.98 319.929 45.96 319.929 52.92C319.929 59.82 314.769 64.8 307.689 64.8ZM324.309 92.88C317.109 92.88 311.949 88.08 311.949 81.36C311.949 74.64 317.109 69.84 324.309 69.84H335.409V74.28H324.309C319.989 74.28 316.869 77.22 316.869 81.36C316.869 85.5 319.989 88.44 324.309 88.44C328.629 88.44 331.749 85.5 331.749 81.36C331.749 79.86 331.329 78.42 330.669 77.52H335.589C336.189 78.48 336.669 79.62 336.669 81.36C336.669 88.08 331.509 92.88 324.309 92.88Z" fill="white"/>
</svg>
