<svg width="271" height="151" viewBox="0 0 271 151" fill="none" xmlns="http://www.w3.org/2000/svg">
<rect x="90.5" y="0.5" width="90" height="120" fill="#00B7AB"/>
<rect x="90.5" y="0.5" width="90" height="120" stroke="black"/>
<path d="M164.054 60.36V64.8C158.054 64.44 154.394 60.48 154.394 52.8V45.42H139.754V40.98H154.394V27.24H159.314V51.84C159.314 56.58 160.814 59.64 164.054 60.36ZM114.974 64.8H106.934V60.36H114.374C125.354 60.36 130.934 56.16 130.934 47.88V45.3H113.714V40.86H135.914V47.88C135.914 58.74 128.474 64.8 114.974 64.8Z" fill="white"/>
<rect x="180.5" y="30.5" width="90" height="120" fill="#00B7AB"/>
<rect x="180.5" y="30.5" width="90" height="120" stroke="black"/>
<path d="M209.419 83.82V79.38C218.059 78.84 223.039 74.64 223.039 67.86V62.82H228.019V67.86C228.019 74.58 232.879 78.72 241.399 79.26V83.58C233.959 83.16 228.199 80.22 225.559 75.48C222.919 80.4 217.039 83.4 209.419 83.82ZM201.739 94.8V90.36H249.259V94.8H201.739ZM215.959 101.46V114.96H239.719V119.4H213.739C211.999 119.4 211.039 118.44 211.039 116.7V101.46H215.959Z" fill="white"/>
<rect x="0.5" y="30.5" width="90" height="120" fill="#00B7AB"/>
<rect x="0.5" y="30.5" width="90" height="120" stroke="black"/>
<path d="M58.8188 66.6V85.86H53.8988V68.34H31.7588V63.9H56.1188C57.8588 63.9 58.8188 64.86 58.8188 66.6ZM21.7388 94.8V90.36H69.2588V94.8H21.7388Z" fill="white"/>
</svg>
