<svg width="271" height="151" viewBox="0 0 271 151" fill="none" xmlns="http://www.w3.org/2000/svg">
<rect x="90.5" y="0.5" width="90" height="120" fill="#00B7AB"/>
<rect x="90.5" y="0.5" width="90" height="120" stroke="black"/>
<path d="M135.499 54.78C128.119 54.78 122.959 49.92 122.959 43.08C122.959 36.24 128.119 31.38 135.499 31.38H146.599V35.82H135.499C130.999 35.82 127.879 38.82 127.879 43.08C127.879 47.34 130.999 50.34 135.499 50.34C139.999 50.34 143.119 47.34 143.119 43.08C143.119 41.52 142.699 39.96 141.799 38.7H146.839C147.619 39.78 148.039 41.52 148.039 43.08C148.039 49.92 142.879 54.78 135.499 54.78ZM111.739 64.8V60.36H159.259V64.8H111.739Z" fill="white"/>
<rect x="180.5" y="30.5" width="90" height="120" fill="#00B7AB"/>
<rect x="180.5" y="30.5" width="90" height="120" stroke="black"/>
<path d="M228.079 82.32V90.36H249.259V94.8H201.739V90.36H223.159V82.32H215.419C213.679 82.32 212.719 81.36 212.719 79.62V66.9H233.179V60.54H212.719V56.1H235.399C237.139 56.1 238.099 57.06 238.099 58.8V71.28H217.639V77.88H238.699V82.32H228.079Z" fill="white"/>
<rect x="0.5" y="30.5" width="90" height="120" fill="#00B7AB"/>
<rect x="0.5" y="30.5" width="90" height="120" stroke="black"/>
<path d="M67.046 82.815V75.381H57.848V95.415H52.808V56.355H57.848V70.719H67.046V55.977H72.086V81.807C72.086 87.477 73.661 89.997 77.063 90.753V95.415C70.763 95.037 67.046 90.879 67.046 82.815ZM44.177 73.302V95.415H13.937V90.753H39.137V75.129H25.781V87.351H20.741V70.467H41.342C43.169 70.467 44.177 71.475 44.177 73.302ZM65.534 119.544V109.149H70.7V124.206H46.886C45.059 124.206 44.051 123.198 44.051 121.371V101.085H70.7V105.747H49.217V119.544H65.534Z" fill="white"/>
</svg>
