<svg width="181" height="151" viewBox="0 0 181 151" fill="none" xmlns="http://www.w3.org/2000/svg">
<rect x="0.5" y="0.5" width="90" height="120" fill="#00B7AB"/>
<rect x="0.5" y="0.5" width="90" height="120" stroke="black"/>
<path d="M65.1153 40.74H73.5153V45.18H65.1153V52.02C65.1153 57.18 66.5553 60.36 71.3553 60.36H72.8553V64.8H71.2353C67.4553 64.8 64.6953 63.48 63.2553 61.62C62.2353 63.6 60.0153 64.8 56.5953 64.8H18.1353V60.36H35.5953V51.9H28.3953C26.6553 51.9 25.6953 50.94 25.6953 49.2V28.86H30.6153V36.3H42.1353V40.74H30.6153V47.46H45.4953V28.86H50.4153V51.9H40.5153V60.36H55.6353C58.8153 60.36 60.1953 59.04 60.1953 56.4V27.24H65.1153V40.74Z" fill="white"/>
<rect x="90.5" y="30.5" width="90" height="120" fill="#00B7AB"/>
<rect x="90.5" y="30.5" width="90" height="120" stroke="black"/>
<path d="M149.611 82.2V57.24L154.531 57.3V65.4H162.931V69.9H154.531V76.08H162.931V80.52H154.531V82.02C154.531 87.18 155.971 90.36 160.771 90.36H162.271V94.8H160.711C153.511 94.8 149.611 90.6 149.611 82.2ZM126.751 94.8H108.751V90.36H126.751C130.951 90.36 134.011 87.24 134.011 82.92C134.011 78.6 130.951 75.48 126.751 75.48C122.551 75.48 119.491 78.6 119.491 82.92C119.491 84.6 119.851 85.92 120.631 87.12H115.651C114.931 85.98 114.571 84.54 114.571 82.92C114.571 76.02 119.731 71.04 126.751 71.04C133.771 71.04 138.931 76.02 138.931 82.92C138.931 89.82 133.771 94.8 126.751 94.8Z" fill="white"/>
</svg>
