<svg width="541" height="151" viewBox="0 0 541 151" fill="none" xmlns="http://www.w3.org/2000/svg">
<rect x="0.5" y="30.5" width="90" height="120" fill="#00B7AB"/>
<rect x="0.5" y="30.5" width="90" height="120" stroke="black"/>
<path d="M60.5623 82.2V57.24H65.4823V70.74H73.8823V75.18H65.4823V82.02C65.4823 87.18 66.9223 90.36 71.7223 90.36H73.2223V94.8H71.6623C64.4623 94.8 60.5623 90.6 60.5623 82.2ZM23.1223 94.8H17.8423V90.36H22.5223C31.5823 90.36 36.8023 86.04 36.8023 78.48V75.18H24.6223V70.74H53.7223V75.18H41.9023V78.48C41.9023 85.74 46.8223 90.06 55.2223 90.24V94.56C48.2023 94.56 42.4423 91.68 39.3823 86.7C36.4423 91.86 30.5023 94.8 23.1223 94.8ZM44.1223 115.08V121.38H65.2423V125.82H41.9023C40.1623 125.82 39.2023 124.86 39.2023 123.12V110.7H59.1823V104.64H39.2023V100.2H61.4023C63.1423 100.2 64.1023 101.16 64.1023 102.9V115.08H44.1223Z" fill="white"/>
<rect x="180.5" y="0.5" width="90" height="120" fill="#00B7AB"/>
<rect x="180.5" y="0.5" width="90" height="120" stroke="black"/>
<path d="M251.349 60.36V64.8C245.949 64.44 241.689 60.36 241.689 50.64V27.24H246.609V49.56C246.609 56.28 248.469 59.28 251.349 60.36ZM217.689 64.8H199.629V60.36H217.689C221.949 60.36 225.009 57.24 225.009 52.92C225.009 48.54 221.949 45.42 217.689 45.42C213.489 45.42 210.429 48.54 210.429 52.92C210.429 54.6 210.789 55.92 211.569 57.12H206.589C205.869 55.98 205.509 54.54 205.509 52.92C205.509 45.96 210.669 40.98 217.689 40.98C224.769 40.98 229.929 45.96 229.929 52.92C229.929 59.82 224.769 64.8 217.689 64.8ZM226.329 71.4V85.98H246.969V90.42H224.109C222.369 90.42 221.409 89.46 221.409 87.72V71.4H226.329Z" fill="white"/>
<rect x="90.5" y="0.5" width="90" height="120" fill="#00B7AB"/>
<rect x="90.5" y="0.5" width="90" height="120" stroke="black"/>
<path d="M138.079 50.4V60.36H159.259V64.8H111.739V60.36H133.159V50.4H124.519C122.779 50.4 121.819 49.44 121.819 47.7V27.3H126.739V34.74H140.899V39.18H126.739V45.96H144.259V27.3H149.179V50.4H138.079Z" fill="white"/>
<rect x="270.5" y="0.5" width="90" height="120" fill="#00B7AB"/>
<rect x="270.5" y="0.5" width="90" height="120" stroke="black"/>
<path d="M328.689 52.2V27.24H333.609V40.74H342.009V45.18H333.609V52.02C333.609 57.18 335.049 60.36 339.849 60.36H341.349V64.8H339.789C332.589 64.8 328.689 60.6 328.689 52.2ZM305.169 60.36H321.429V64.8H289.629V60.36H297.909C297.129 59.52 296.709 58.38 296.709 56.1V40.74H318.429V45.18H301.629V56.34C301.629 59.16 302.829 60.36 305.169 60.36Z" fill="white"/>
<rect x="360.5" y="30.5" width="90" height="120" fill="#00B7AB"/>
<rect x="360.5" y="30.5" width="90" height="120" stroke="black"/>
<path d="M396.739 64.92V79.32H419.119V83.76H394.519C392.779 83.76 391.819 82.8 391.819 81.06V64.92H396.739ZM381.739 94.8V90.36H429.259V94.8H381.739ZM395.959 101.46V114.96H419.719V119.4H393.739C391.999 119.4 391.039 118.44 391.039 116.7V101.46H395.959Z" fill="white"/>
<rect x="450.5" y="0.5" width="90" height="120" fill="#00B7AB"/>
<rect x="450.5" y="0.5" width="90" height="120" stroke="black"/>
<path d="M524.054 60.36V64.8C519.254 64.5 515.954 61.92 514.814 56.94H499.154V52.5H514.394V45.42H499.154V40.98H514.394V27.24H519.314V51.84C519.314 56.58 520.814 59.64 524.054 60.36ZM474.974 64.8H466.934V60.36H474.434C485.054 60.36 490.454 56.16 490.454 47.88V45.3H473.714V40.86H495.434V47.88C495.434 58.74 488.174 64.8 474.974 64.8Z" fill="white"/>
</svg>
