<svg width="181" height="181" viewBox="0 0 181 181" fill="none" xmlns="http://www.w3.org/2000/svg">
<rect x="90.5" y="0.5" width="90" height="120" fill="#00B7AB"/>
<rect x="90.5" y="0.5" width="90" height="120" stroke="black"/>
<path d="M151.315 52.185V25.977H156.481V40.152H165.301V44.814H156.481V51.996C156.481 57.414 157.993 60.753 163.033 60.753H164.608V65.415H162.97C155.41 65.415 151.315 61.005 151.315 52.185ZM112.003 65.415H106.459V60.753H111.373C120.886 60.753 126.367 56.217 126.367 48.279V44.814H113.578V40.152H144.133V44.814H131.722V48.279C131.722 55.902 136.888 60.438 145.708 60.627V65.163C138.337 65.163 132.289 62.139 129.076 56.91C125.989 62.328 119.752 65.415 112.003 65.415ZM142.81 94.962C135.187 94.962 129.706 89.859 129.706 82.803C129.706 75.747 135.187 70.707 142.81 70.707H154.528V75.369H142.81C138.211 75.369 134.872 78.456 134.872 82.803C134.872 87.15 138.211 90.3 142.81 90.3C147.409 90.3 150.685 87.15 150.685 82.803C150.685 81.228 150.244 79.716 149.551 78.771H154.654C155.347 79.716 155.851 80.976 155.851 82.803C155.851 89.859 150.433 94.962 142.81 94.962Z" fill="white"/>
<rect x="0.5" y="60.5" width="90" height="120" fill="#00B7AB"/>
<rect x="0.5" y="60.5" width="90" height="120" stroke="black"/>
<path d="M59.3489 112.185V85.977H64.5149V100.152H73.3349V104.814H64.5149V111.996C64.5149 117.414 66.0269 120.753 71.0669 120.753H72.6419V125.415H71.0039C63.4439 125.415 59.3489 121.005 59.3489 112.185ZM26.7779 125.415H18.3359V120.753H26.1479C37.6769 120.753 43.5359 116.343 43.5359 107.649V104.94H25.4549V100.278H48.7649V107.649C48.7649 119.052 40.9529 125.415 26.7779 125.415Z" fill="white"/>
</svg>
