<svg width="451" height="152" viewBox="0 0 451 152" fill="none" xmlns="http://www.w3.org/2000/svg">
<rect x="360.5" y="30.5" width="90" height="120" fill="#00B7AB"/>
<rect x="360.5" y="30.5" width="90" height="120" stroke="black"/>
<path d="M389.419 83.82V79.38C398.059 78.84 403.039 74.64 403.039 67.86V62.82H408.019V67.86C408.019 74.58 412.879 78.72 421.399 79.26V83.58C413.959 83.16 408.199 80.22 405.559 75.48C402.919 80.4 397.039 83.4 389.419 83.82ZM381.739 94.8V90.36H429.259V94.8H381.739ZM395.959 101.46V114.96H419.719V119.4H393.739C391.999 119.4 391.039 118.44 391.039 116.7V101.46H395.959Z" fill="white"/>
<rect x="270.5" y="0.5" width="90" height="120" fill="#00B7AB"/>
<rect x="270.5" y="0.5" width="90" height="120" stroke="black"/>
<path d="M344.054 60.36V64.8C338.054 64.44 334.394 60.48 334.394 52.8V45.42H319.754V40.98H334.394V27.24H339.314V51.84C339.314 56.58 340.814 59.64 344.054 60.36ZM294.974 64.8H286.934V60.36H294.374C305.354 60.36 310.934 56.16 310.934 47.88V45.3H293.714V40.86H315.914V47.88C315.914 58.74 308.474 64.8 294.974 64.8Z" fill="white"/>
<rect x="180.5" y="30.5" width="90" height="120" fill="#00B7AB"/>
<rect x="180.5" y="30.5" width="90" height="120" stroke="black"/>
<path d="M241.252 82.185V55.977H246.418V70.152H255.238V74.814H246.418V81.996C246.418 87.414 247.93 90.753 252.97 90.753H254.545V95.415H252.907C245.347 95.415 241.252 91.005 241.252 82.185ZM219.139 95.415H196.459V90.753H219.139C223.171 90.753 226.006 87.792 226.006 83.697C226.006 79.602 223.171 76.641 219.139 76.641C215.107 76.641 212.272 79.602 212.272 83.697C212.272 85.02 212.587 86.217 213.091 87.225H208.051C207.484 86.343 207.106 85.083 207.106 83.697C207.106 80.925 208.051 78.468 209.689 76.641H202.633V71.979H216.682V62.34H221.848V71.979H235.645V76.641H228.589C230.227 78.468 231.172 80.925 231.172 83.697C231.172 90.501 226.132 95.415 219.139 95.415ZM225.565 102.345V115.764H246.229V120.426H223.234C221.407 120.426 220.399 119.418 220.399 117.591V102.345H225.565Z" fill="white"/>
<rect x="90.5" y="0.5" width="90" height="120" fill="#00B7AB"/>
<rect x="90.5" y="0.5" width="90" height="120" stroke="black"/>
<path d="M144.634 48.468V60.753H160.447V65.415H110.551V60.753H126.49V48.594C123.781 46.389 122.206 43.113 122.206 39.27C122.206 32.088 127.687 26.985 135.499 26.985H147.28V31.647H135.499C130.711 31.647 127.372 34.797 127.372 39.27C127.372 43.743 130.711 46.893 135.499 46.893C140.287 46.893 143.626 43.743 143.626 39.27C143.626 37.632 143.122 35.931 142.177 34.671H147.469C148.288 35.742 148.792 37.632 148.792 39.27C148.792 43.05 147.28 46.326 144.634 48.468ZM131.719 51.114V60.753H139.531V51.051C138.271 51.366 136.948 51.555 135.499 51.555C134.176 51.555 132.916 51.429 131.719 51.114Z" fill="white"/>
<rect x="0.5" y="31.5" width="90" height="120" fill="#00B7AB"/>
<rect x="0.5" y="31.5" width="90" height="120" stroke="black"/>
<path d="M28.6778 86.146V81.484C37.6868 80.98 42.8528 76.381 42.8528 68.821V67.75H29.6228V63.088H61.1858V67.75H48.2078V68.821C48.2078 76.255 53.3108 80.854 62.1308 81.358V85.894C54.4448 85.516 48.3968 82.492 45.5618 77.578C42.6638 82.681 36.5528 85.768 28.6778 86.146ZM45.5618 127.726C38.0648 127.726 32.7728 122.749 32.7728 115.63C32.7728 109.393 36.8678 104.794 42.9158 103.723V96.415H20.5508V91.753H70.4468V96.415H48.0818V103.534H57.1538V108.196H45.5618C41.2148 108.196 37.9388 111.283 37.9388 115.63C37.9388 119.977 41.2148 123.064 45.5618 123.064C49.9088 123.064 53.1848 119.977 53.1848 115.63C53.1848 113.929 52.7438 112.795 52.0508 111.598H57.2798C57.9728 112.669 58.3508 113.992 58.3508 115.63C58.3508 122.749 53.0588 127.726 45.5618 127.726Z" fill="white"/>
</svg>
