<svg width="181" height="151" viewBox="0 0 181 151" fill="none" xmlns="http://www.w3.org/2000/svg">
<rect x="0.5" y="0.5" width="90" height="120" fill="#00B7AB"/>
<rect x="0.5" y="0.5" width="90" height="120" stroke="black"/>
<path d="M36.7388 34.92V49.32H59.1188V53.76H34.5188C32.7788 53.76 31.8188 52.8 31.8188 51.06V34.92H36.7388ZM69.2588 60.36V64.8H48.9788V77.64H44.0588V64.8H21.7388V60.36H69.2588ZM35.9588 71.7V85.44H59.7188V89.88H33.7388C31.9988 89.88 31.0388 88.92 31.0388 87.18V71.7H35.9588Z" fill="white"/>
<rect x="90.5" y="30.5" width="90" height="120" fill="#00B7AB"/>
<rect x="90.5" y="30.5" width="90" height="120" stroke="black"/>
<path d="M165.56 90.36V94.8C159.56 94.44 156.02 90.48 156.02 82.8V57.24H160.82V81.84C160.82 87.24 162.32 89.64 165.56 90.36ZM145.4 71.28V57.6H150.2V94.8H145.4V75.72H137.54V71.28H145.4ZM123.14 94.8H105.44V90.36H123.14C127.28 90.36 130.34 87.24 130.34 82.98C130.34 78.72 127.28 75.6 123.14 75.6C119 75.6 115.94 78.72 115.94 82.98C115.94 84.6 116.3 85.92 117.08 87.12H112.16C111.44 85.98 111.08 84.54 111.08 82.98C111.08 76.14 116.18 71.16 123.14 71.16C130.1 71.16 135.2 76.14 135.2 82.98C135.2 89.82 130.1 94.8 123.14 94.8Z" fill="white"/>
</svg>
