<svg width="541" height="151" viewBox="0 0 541 151" fill="none" xmlns="http://www.w3.org/2000/svg">
<rect x="0.5" y="0.5" width="90" height="120" fill="#00B7AB"/>
<rect x="0.5" y="0.5" width="90" height="120" stroke="black"/>
<path d="M48.0788 50.4V60.36H69.2588V64.8H21.7388V60.36H43.1588V50.4H34.5188C32.7788 50.4 31.8188 49.44 31.8188 47.7V27.3H36.7388V34.74H50.8988V39.18H36.7388V45.96H54.2588V27.3H59.1788V50.4H48.0788Z" fill="white"/>
<rect x="90.5" y="0.5" width="90" height="120" fill="#00B7AB"/>
<rect x="90.5" y="0.5" width="90" height="120" stroke="black"/>
<path d="M161.349 60.36V64.8C155.949 64.44 151.689 60.36 151.689 50.64V27.24H156.609V49.56C156.609 56.28 158.469 59.28 161.349 60.36ZM127.689 64.8H109.629V60.36H127.689C131.949 60.36 135.009 57.24 135.009 52.92C135.009 48.54 131.949 45.42 127.689 45.42C123.489 45.42 120.429 48.54 120.429 52.92C120.429 54.6 120.789 55.92 121.569 57.12H116.589C115.869 55.98 115.509 54.54 115.509 52.92C115.509 45.96 120.669 40.98 127.689 40.98C134.769 40.98 139.929 45.96 139.929 52.92C139.929 59.82 134.769 64.8 127.689 64.8Z" fill="white"/>
<rect x="180.5" y="0.5" width="90" height="120" fill="#00B7AB"/>
<rect x="180.5" y="0.5" width="90" height="120" stroke="black"/>
<path d="M252.331 60.36V64.8C246.931 64.44 242.671 60.36 242.671 50.64V27.24H247.591V49.56C247.591 56.28 249.451 59.28 252.331 60.36ZM204.031 64.8H198.751V60.36H203.431C212.491 60.36 217.711 56.04 217.711 48.48V45.18H205.531V40.74H234.631V45.18H222.811V48.48C222.811 55.74 227.731 60.06 236.131 60.24V64.56C229.111 64.56 223.351 61.68 220.291 56.7C217.351 61.86 211.411 64.8 204.031 64.8Z" fill="white"/>
<rect x="270.5" y="0.5" width="90" height="120" fill="#00B7AB"/>
<rect x="270.5" y="0.5" width="90" height="120" stroke="black"/>
<path d="M330.316 52.185V25.977H335.482V40.152H344.302V44.814H335.482V51.996C335.482 57.414 336.994 60.753 342.034 60.753H343.609V65.415H341.971C334.411 65.415 330.316 61.005 330.316 52.185ZM306.313 65.415H287.413V60.753H306.313C310.723 60.753 313.936 57.477 313.936 52.941C313.936 48.405 310.723 45.129 306.313 45.129C301.903 45.129 298.69 48.405 298.69 52.941C298.69 54.705 299.068 56.091 299.887 57.351H294.658C293.902 56.154 293.524 54.642 293.524 52.941C293.524 45.696 298.942 40.467 306.313 40.467C313.684 40.467 319.102 45.696 319.102 52.941C319.102 60.186 313.684 65.415 306.313 65.415ZM324.583 93.828C319.228 93.828 315.385 90.111 315.385 84.945C315.385 83.055 315.889 81.354 316.771 79.968H312.298V75.306H322.063V69.573H327.103V75.306H336.931V79.968H324.583C322.189 79.968 320.425 81.858 320.425 84.567C320.425 87.339 322.189 89.292 324.583 89.292C327.04 89.292 328.804 87.339 328.804 84.567C328.804 83.937 328.678 83.37 328.552 82.803H333.403C333.655 83.37 333.844 84.189 333.844 84.945C333.844 90.111 330.001 93.828 324.583 93.828ZM304.549 72.597V88.347H313.558V92.883H302.344C300.517 92.883 299.509 91.875 299.509 90.048V72.597H304.549Z" fill="white"/>
<rect x="360.5" y="0.5" width="90" height="120" fill="#00B7AB"/>
<rect x="360.5" y="0.5" width="90" height="120" stroke="black"/>
<path d="M396.301 34.041V49.161H419.8V53.823H393.97C392.143 53.823 391.135 52.815 391.135 50.988V34.041H396.301ZM380.551 65.415V60.753H430.447V65.415H380.551ZM395.482 72.408V86.583H420.43V91.245H393.151C391.324 91.245 390.316 90.237 390.316 88.41V72.408H395.482Z" fill="white"/>
<rect x="450.5" y="30.5" width="90" height="120" fill="#00B7AB"/>
<rect x="450.5" y="30.5" width="90" height="120" stroke="black"/>
<path d="M525.482 90.753V95.415C520.442 95.1 516.977 92.391 515.78 87.162H499.337V82.5H515.339V75.066H499.337V70.404H515.339V55.977H520.505V81.807C520.505 86.784 522.08 89.997 525.482 90.753ZM473.948 95.415H465.506V90.753H473.381C484.532 90.753 490.202 86.343 490.202 77.649V74.94H472.625V70.278H495.431V77.649C495.431 89.052 487.808 95.415 473.948 95.415Z" fill="white"/>
</svg>
