<svg width="181" height="121" viewBox="0 0 181 121" fill="none" xmlns="http://www.w3.org/2000/svg">
<rect x="0.5" y="0.5" width="90" height="120" fill="#00B7AB"/>
<rect x="0.5" y="0.5" width="90" height="120" stroke="black"/>
<path d="M58.8188 36.6V55.86H53.8988V38.34H31.7588V33.9H56.1188C57.8588 33.9 58.8188 34.86 58.8188 36.6ZM21.7388 64.8V60.36H69.2588V64.8H21.7388Z" fill="white"/>
<rect x="90.5" y="0.5" width="90" height="120" fill="#00B7AB"/>
<rect x="90.5" y="0.5" width="90" height="120" stroke="black"/>
<path d="M148.689 52.2V27.24H153.609V40.74H162.009V45.18H153.609V52.02C153.609 57.18 155.049 60.36 159.849 60.36H161.349V64.8H159.789C152.589 64.8 148.689 60.6 148.689 52.2ZM117.669 64.8H109.629V60.36H117.069C128.049 60.36 133.629 56.16 133.629 47.88V45.3H116.409V40.86H138.609V47.88C138.609 58.74 131.169 64.8 117.669 64.8Z" fill="white"/>
</svg>
