<svg width="271" height="121" viewBox="0 0 271 121" fill="none" xmlns="http://www.w3.org/2000/svg">
<rect x="0.5" y="0.5" width="90" height="120" fill="#00B7AB"/>
<rect x="0.5" y="0.5" width="90" height="120" stroke="black"/>
<path d="M60.3161 52.185V25.977H65.4821V40.152H74.3021V44.814H65.4821V51.996C65.4821 57.414 66.9941 60.753 72.0341 60.753H73.6091V65.415H71.9711C64.4111 65.415 60.3161 61.005 60.3161 52.185ZM49.6691 42.987V65.415H17.4131V60.753H44.5031V44.814H30.0131V57.351H24.8471V40.152H46.8341C48.6611 40.152 49.6691 41.16 49.6691 42.987ZM44.4401 86.709V93.324H65.9231V97.986H42.1091C40.2821 97.986 39.2741 96.978 39.2741 95.151V82.11H59.5601V75.747H39.2741V71.085H61.8911C63.7181 71.085 64.7261 72.093 64.7261 73.92V86.709H44.4401Z" fill="white"/>
<rect x="90.5" y="0.5" width="90" height="120" fill="#00B7AB"/>
<rect x="90.5" y="0.5" width="90" height="120" stroke="black"/>
<path d="M166.127 60.753V65.415C161.591 65.1 158.441 62.643 157.181 57.855H146.849V53.193H156.614V46.515H146.849V41.853H156.614V25.977H161.78V51.807C161.78 56.784 163.166 59.997 166.127 60.753ZM127.508 65.415H104.891V60.753H127.508C131.54 60.753 134.375 57.792 134.375 53.697C134.375 49.602 131.54 46.641 127.508 46.641C123.539 46.641 120.704 49.602 120.704 53.697C120.704 55.02 121.019 56.217 121.523 57.225H116.483C115.916 56.343 115.538 55.083 115.538 53.697C115.538 50.925 116.483 48.468 118.121 46.641H111.128V41.979H125.051V32.34H130.217V41.979H143.951V46.641H136.958C138.596 48.468 139.541 50.925 139.541 53.697C139.541 60.501 134.501 65.415 127.508 65.415ZM122.09 92.001V87.339C127.697 87.087 131.036 84.063 131.036 79.212V71.589H136.265V79.212C136.265 83.874 138.596 86.772 142.376 87.024C146.219 86.772 148.487 83.874 148.487 79.212V71.589H153.716V79.212C153.716 83.874 156.929 86.835 162.284 87.087V91.749C157.244 91.623 153.086 89.544 151.133 86.142C149.558 89.418 146.282 91.497 142.376 91.623C138.47 91.497 135.194 89.418 133.682 86.142C131.792 89.67 127.445 91.875 122.09 92.001Z" fill="white"/>
<rect x="180.5" y="0.5" width="90" height="120" fill="#00B7AB"/>
<rect x="180.5" y="0.5" width="90" height="120" stroke="black"/>
<path d="M239.349 52.185V25.977H244.515V40.152H253.335V44.814H244.515V51.996C244.515 57.414 246.027 60.753 251.067 60.753H252.642V65.415H251.004C243.444 65.415 239.349 61.005 239.349 52.185ZM214.653 60.753H231.726V65.415H198.336V60.753H207.03C206.211 59.871 205.77 58.674 205.77 56.28V40.152H228.576V44.814H210.936V56.532C210.936 59.493 212.196 60.753 214.653 60.753Z" fill="white"/>
</svg>
