<svg width="271" height="151" viewBox="0 0 271 151" fill="none" xmlns="http://www.w3.org/2000/svg">
<rect x="0.5" y="30.5" width="90" height="120" fill="#00B7AB"/>
<rect x="0.5" y="30.5" width="90" height="120" stroke="black"/>
<path d="M59.4848 65.805V86.028H54.3188V67.632H31.0718V62.97H56.6498C58.4768 62.97 59.4848 63.978 59.4848 65.805ZM20.5508 95.415V90.753H70.4468V95.415H20.5508Z" fill="white"/>
<rect x="90.5" y="0.5" width="90" height="120" fill="#00B7AB"/>
<rect x="90.5" y="0.5" width="90" height="120" stroke="black"/>
<path d="M149.349 52.185V25.977H154.515V40.152H163.335V44.814H154.515V51.996C154.515 57.414 156.027 60.753 161.067 60.753H162.642V65.415H161.004C153.444 65.415 149.349 61.005 149.349 52.185ZM124.212 60.753H141.726V65.415H108.336V60.753H116.778C116.148 59.934 115.77 58.863 115.77 56.784V47.775H133.284V40.215H115.77V35.553H135.615C137.442 35.553 138.45 36.561 138.45 38.388V52.374H120.936V56.973C120.936 59.682 121.944 60.753 124.212 60.753Z" fill="white"/>
<rect x="180.5" y="30.5" width="90" height="120" fill="#00B7AB"/>
<rect x="180.5" y="30.5" width="90" height="120" stroke="black"/>
<path d="M259.258 90.753V95.415C252.958 95.037 249.241 90.879 249.241 82.815V55.977H254.281V81.807C254.281 87.477 255.856 89.997 259.258 90.753ZM237.586 70.467V56.355H242.626V95.415H237.586V75.129H229.774V70.467H237.586ZM196.636 95.415H191.722V90.753H196.006C204.7 90.753 209.74 86.28 209.74 78.468V75.129H198.211V70.467H226.246V75.129H215.095V78.468C215.095 85.965 219.757 90.438 227.821 90.627V95.163C220.576 95.163 214.969 92.202 212.449 87.099C209.74 92.391 204.007 95.415 196.636 95.415Z" fill="white"/>
</svg>
