<svg width="271" height="151" viewBox="0 0 271 151" fill="none" xmlns="http://www.w3.org/2000/svg">
<rect x="180.5" y="0.5" width="90" height="120" fill="#00B7AB"/>
<rect x="180.5" y="0.5" width="90" height="120" stroke="black"/>
<path d="M251.349 60.36V64.8C245.949 64.44 241.689 60.36 241.689 50.64V27.24H246.609V49.56C246.609 56.28 248.469 59.28 251.349 60.36ZM217.689 64.8H199.629V60.36H217.689C221.949 60.36 225.009 57.24 225.009 52.92C225.009 48.54 221.949 45.42 217.689 45.42C213.489 45.42 210.429 48.54 210.429 52.92C210.429 54.6 210.789 55.92 211.569 57.12H206.589C205.869 55.98 205.509 54.54 205.509 52.92C205.509 45.96 210.669 40.98 217.689 40.98C224.769 40.98 229.929 45.96 229.929 52.92C229.929 59.82 224.769 64.8 217.689 64.8ZM234.309 92.88C227.109 92.88 221.949 88.08 221.949 81.36C221.949 74.64 227.109 69.84 234.309 69.84H245.409V74.28H234.309C229.989 74.28 226.869 77.22 226.869 81.36C226.869 85.5 229.989 88.44 234.309 88.44C238.629 88.44 241.749 85.5 241.749 81.36C241.749 79.86 241.329 78.42 240.669 77.52H245.589C246.189 78.48 246.669 79.62 246.669 81.36C246.669 88.08 241.509 92.88 234.309 92.88Z" fill="white"/>
<rect x="0.5" y="0.5" width="90" height="120" fill="#00B7AB"/>
<rect x="0.5" y="0.5" width="90" height="120" stroke="black"/>
<path d="M60.5623 52.2V27.24H65.4823V40.74H73.8823V45.18H65.4823V52.02C65.4823 57.18 66.9223 60.36 71.7223 60.36H73.2223V64.8H71.6623C64.4623 64.8 60.5623 60.6 60.5623 52.2ZM23.1223 64.8H17.8423V60.36H22.5223C31.5823 60.36 36.8023 56.04 36.8023 48.48V45.18H24.6223V40.74H53.7223V45.18H41.9023V48.48C41.9023 55.74 46.8223 60.06 55.2223 60.24V64.56C48.2023 64.56 42.4423 61.68 39.3823 56.7C36.4423 61.86 30.5023 64.8 23.1223 64.8ZM44.1223 85.08V91.38H65.2423V95.82H41.9023C40.1623 95.82 39.2023 94.86 39.2023 93.12V80.7H59.1823V74.64H39.2023V70.2H61.4023C63.1423 70.2 64.1023 71.16 64.1023 72.9V85.08H44.1223Z" fill="white"/>
<rect x="90.5" y="30.5" width="90" height="120" fill="#00B7AB"/>
<rect x="90.5" y="30.5" width="90" height="120" stroke="black"/>
<path d="M148.689 82.2V57.24H153.609V70.74H162.009V75.18H153.609V82.02C153.609 87.18 155.049 90.36 159.849 90.36H161.349V94.8H159.789C152.589 94.8 148.689 90.6 148.689 82.2ZM117.669 94.8H109.629V90.36H117.069C128.049 90.36 133.629 86.16 133.629 77.88V75.3H116.409V70.86H138.609V77.88C138.609 88.74 131.169 94.8 117.669 94.8Z" fill="white"/>
</svg>
