<svg width="361" height="151" viewBox="0 0 361 151" fill="none" xmlns="http://www.w3.org/2000/svg">
<rect x="0.5" y="30.5" width="90" height="120" fill="#00B7AB"/>
<rect x="0.5" y="30.5" width="90" height="120" stroke="black"/>
<path d="M64.8212 82.8V75.72H55.4612V94.8H50.6612V57.6H55.4612V71.28H64.8212V57.24H69.6212V81.84C69.6212 87.24 71.1212 89.64 74.3612 90.36V94.8C68.3612 94.44 64.8212 90.48 64.8212 82.8ZM33.0212 90.36H45.8612V94.8H16.6412V90.36H25.7612C24.9812 89.52 24.5612 88.38 24.5612 86.1V71.28H29.4812V86.34C29.4812 89.16 30.6812 90.36 33.0212 90.36Z" fill="white"/>
<rect x="180.5" y="0.5" width="90" height="120" fill="#00B7AB"/>
<rect x="180.5" y="0.5" width="90" height="120" stroke="black"/>
<path d="M251.349 60.36V64.8C245.949 64.44 241.689 60.36 241.689 50.64V27.24H246.609V49.56C246.609 56.28 248.469 59.28 251.349 60.36ZM230.769 43.44V64.8H199.629V60.36H225.789V45.18H211.689V57.12H206.709V40.74H228.069C229.809 40.74 230.769 41.7 230.769 43.44ZM226.269 85.08V91.38H247.029V95.82H224.049C222.309 95.82 221.349 94.86 221.349 93.12V80.7H240.969V74.64H221.349V70.2H243.189C244.929 70.2 245.889 71.16 245.889 72.9V85.08H226.269Z" fill="white"/>
<rect x="270.5" y="30.5" width="90" height="120" fill="#00B7AB"/>
<rect x="270.5" y="30.5" width="90" height="120" stroke="black"/>
<path d="M315.499 84.78C308.119 84.78 302.959 79.92 302.959 73.08C302.959 66.24 308.119 61.38 315.499 61.38H326.599V65.82H315.499C310.999 65.82 307.879 68.82 307.879 73.08C307.879 77.34 310.999 80.34 315.499 80.34C319.999 80.34 323.119 77.34 323.119 73.08C323.119 71.52 322.699 69.96 321.799 68.7H326.839C327.619 69.78 328.039 71.52 328.039 73.08C328.039 79.92 322.879 84.78 315.499 84.78ZM291.739 94.8V90.36H339.259V94.8H291.739ZM305.839 116.34V122.88H330.259V127.32H303.619C301.879 127.32 300.919 126.36 300.919 124.62V111.96H324.439V105.72H300.919V101.28H326.659C328.399 101.28 329.359 102.24 329.359 103.98V116.34H305.839Z" fill="white"/>
<rect x="90.5" y="0.5" width="90" height="120" fill="#00B7AB"/>
<rect x="90.5" y="0.5" width="90" height="120" stroke="black"/>
<path d="M162.642 60.753V65.415C156.972 65.037 152.499 60.753 152.499 50.547V25.977H157.665V49.413C157.665 56.469 159.618 59.619 162.642 60.753ZM135.93 60.753V37.443H141.159V65.415H108.336V60.753H116.904C116.085 59.871 115.644 58.674 115.644 56.28V37.443H120.873V47.019H132.402V51.681H120.873V56.532C120.873 59.493 122.07 60.753 124.59 60.753H135.93Z" fill="white"/>
</svg>
