<svg width="361" height="121" viewBox="0 0 361 121" fill="none" xmlns="http://www.w3.org/2000/svg">
<rect x="0.5" y="0.5" width="90" height="120" fill="#00B7AB"/>
<rect x="0.5" y="0.5" width="90" height="120" stroke="black"/>
<path d="M59.6105 52.2V27.24H64.5305V40.74H72.9306V45.18H64.5305V52.02C64.5305 57.18 65.9705 60.36 70.7706 60.36H72.2705V64.8H70.7106C63.5106 64.8 59.6105 60.6 59.6105 52.2ZM49.4705 43.44V64.8H18.7505V60.36H44.5505V45.18H30.7505V57.12H25.8305V40.74H46.7705C48.5105 40.74 49.4705 41.7 49.4705 43.44ZM44.4905 85.08V91.38H64.9506V95.82H42.2705C40.5305 95.82 39.5705 94.86 39.5705 93.12V80.7H58.8905V74.64H39.5705V70.2H61.1105C62.8505 70.2 63.8106 71.16 63.8106 72.9V85.08H44.4905Z" fill="white"/>
<rect x="90.5" y="0.5" width="90" height="120" fill="#00B7AB"/>
<rect x="90.5" y="0.5" width="90" height="120" stroke="black"/>
<path d="M164.668 60.36V64.8C160.348 64.5 157.348 62.16 156.148 57.6H146.068V53.16H155.608V46.8H146.068V42.36H155.608V27.24H160.528V51.84C160.528 56.58 161.848 59.64 164.668 60.36ZM127.888 64.8H106.348V60.36H127.888C131.728 60.36 134.428 57.54 134.428 53.64C134.428 49.74 131.728 46.92 127.888 46.92C124.108 46.92 121.408 49.74 121.408 53.64C121.408 54.9 121.708 56.04 122.188 57H117.388C116.848 56.16 116.488 54.96 116.488 53.64C116.488 51 117.388 48.66 118.948 46.92H112.288V42.48H125.548V33.3H130.468V42.48H143.548V46.92H136.888C138.448 48.66 139.348 51 139.348 53.64C139.348 60.12 134.548 64.8 127.888 64.8Z" fill="white"/>
<rect x="180.5" y="0.5" width="90" height="120" fill="#00B7AB"/>
<rect x="180.5" y="0.5" width="90" height="120" stroke="black"/>
<path d="M209.479 55.02V50.58C218.059 50.1 222.979 45.72 222.979 38.52V37.5H210.379V33.06H240.439V37.5H228.079V38.52C228.079 45.6 232.939 49.98 241.339 50.46V54.78C234.019 54.42 228.259 51.54 225.559 46.86C222.799 51.72 216.979 54.66 209.479 55.02ZM215.839 87.18V93.12H240.259V97.56H213.619C211.879 97.56 210.919 96.6 210.919 94.86V82.8H234.439V77.04H210.919V72.6H223.039V64.8H201.739V60.36H249.259V64.8H227.959V72.6H236.659C238.399 72.6 239.359 73.56 239.359 75.3V87.18H215.839Z" fill="white"/>
<rect x="270.5" y="0.5" width="90" height="120" fill="#00B7AB"/>
<rect x="270.5" y="0.5" width="90" height="120" stroke="black"/>
<path d="M344.668 60.36V64.8C338.668 64.44 335.128 60.48 335.128 52.8V27.24H339.928V51.84C339.928 57.24 341.428 59.64 344.668 60.36ZM324.268 41.04V27.6H329.068V64.8H324.268V45.48H315.748V41.04H324.268ZM293.788 64.8H286.348V60.36H293.368C302.668 60.36 307.408 56.28 307.408 48.18V45.6H292.528V41.16H312.388V48.18C312.388 58.98 305.788 64.8 293.788 64.8Z" fill="white"/>
</svg>
