<svg width="181" height="151" viewBox="0 0 181 151" fill="none" xmlns="http://www.w3.org/2000/svg">
<rect x="0.5" y="0.5" width="90" height="120" fill="#00B7AB"/>
<rect x="0.5" y="0.5" width="90" height="120" stroke="black"/>
<path d="M60.3161 52.185V25.977H65.4821V40.152H74.3021V44.814H65.4821V51.996C65.4821 57.414 66.9941 60.753 72.0341 60.753H73.6091V65.415H71.9711C64.4111 65.415 60.3161 61.005 60.3161 52.185ZM36.3131 65.415H17.4131V60.753H36.3131C40.7231 60.753 43.9361 57.477 43.9361 52.941C43.9361 48.405 40.7231 45.129 36.3131 45.129C31.9031 45.129 28.6901 48.405 28.6901 52.941C28.6901 54.705 29.0681 56.091 29.8871 57.351H24.6581C23.9021 56.154 23.5241 54.642 23.5241 52.941C23.5241 45.696 28.9421 40.467 36.3131 40.467C43.6841 40.467 49.1021 45.696 49.1021 52.941C49.1021 60.186 43.6841 65.415 36.3131 65.415Z" fill="white"/>
<rect x="90.5" y="30.5" width="90" height="120" fill="#00B7AB"/>
<rect x="90.5" y="30.5" width="90" height="120" stroke="black"/>
<path d="M118.678 85.146V80.484C127.687 79.98 132.853 75.381 132.853 67.821V66.75H119.623V62.088H151.186V66.75H138.208V67.821C138.208 75.255 143.311 79.854 152.131 80.358V84.894C144.445 84.516 138.397 81.492 135.562 76.578C132.664 81.681 126.553 84.768 118.678 85.146ZM160.447 90.753V95.415H138.082V113.055H132.916V95.415H110.551V90.753H160.447Z" fill="white"/>
</svg>
