<svg width="271" height="151" viewBox="0 0 271 151" fill="none" xmlns="http://www.w3.org/2000/svg">
<rect x="0.5" y="0.5" width="90" height="120" fill="#00B7AB"/>
<rect x="0.5" y="0.5" width="90" height="120" stroke="black"/>
<path d="M58.6895 52.2V27.24H63.6095V40.74H72.0095V45.18H63.6095V52.02C63.6095 57.18 65.0495 60.36 69.8495 60.36H71.3495V64.8H69.7895C62.5895 64.8 58.6895 60.6 58.6895 52.2ZM35.1695 60.36H51.4295V64.8H19.6295V60.36H27.9095C27.1295 59.52 26.7095 58.38 26.7095 56.1V40.74H48.4295V45.18H31.6295V56.34C31.6295 59.16 32.8295 60.36 35.1695 60.36ZM43.5695 71.4V85.98H63.4295V90.42H41.3495C39.6095 90.42 38.6495 89.46 38.6495 87.72V71.4H43.5695Z" fill="white"/>
<rect x="90.5" y="0.5" width="90" height="120" fill="#00B7AB"/>
<rect x="90.5" y="0.5" width="90" height="120" stroke="black"/>
<path d="M119.419 54V49.56C128.059 49.02 133.039 44.76 133.039 38.04V33H138.019V38.04C138.019 44.7 142.879 48.9 151.399 49.44V53.76C143.959 53.34 138.199 50.4 135.559 45.66C132.919 50.52 127.039 53.58 119.419 54ZM159.259 60.36V64.8H138.979V77.64H134.059V64.8H111.739V60.36H159.259ZM125.959 72.54V85.8H149.719V90.24H123.739C121.999 90.24 121.039 89.28 121.039 87.54V72.54H125.959Z" fill="white"/>
<rect x="180.5" y="30.5" width="90" height="120" fill="#00B7AB"/>
<rect x="180.5" y="30.5" width="90" height="120" stroke="black"/>
<path d="M254.668 90.36V94.8C250.348 94.5 247.348 92.16 246.148 87.6H236.068V83.16H245.608V76.8H236.068V72.36H245.608V57.24H250.528V81.84C250.528 86.58 251.848 89.64 254.668 90.36ZM217.888 94.8H196.348V90.36H217.888C221.728 90.36 224.428 87.54 224.428 83.64C224.428 79.74 221.728 76.92 217.888 76.92C214.108 76.92 211.408 79.74 211.408 83.64C211.408 84.9 211.708 86.04 212.188 87H207.388C206.848 86.16 206.488 84.96 206.488 83.64C206.488 81 207.388 78.66 208.948 76.92H202.288V72.48H215.548V63.3H220.468V72.48H233.548V76.92H226.888C228.448 78.66 229.348 81 229.348 83.64C229.348 90.12 224.548 94.8 217.888 94.8Z" fill="white"/>
</svg>
