<svg width="93" height="110" viewBox="0 0 93 110" fill="none" xmlns="http://www.w3.org/2000/svg">
<rect x="0.428711" y="0.428711" width="91.4694" height="108.62" fill="#FF961E"/>
<rect x="0.428711" y="0.428711" width="91.4694" height="108.62" stroke="black" stroke-width="0.857525"/>
<path d="M61.2613 62.0296C60.8812 62.1382 60.6096 62.1925 60.3924 62.2468C60.1751 62.3555 59.9036 62.4098 59.5777 62.4098C59.0346 62.5184 58.6002 62.6813 58.3286 62.8986C58.0571 63.1701 57.9484 63.6046 57.9484 64.2563C57.9484 65.0166 57.9484 66.9718 57.9484 70.1761C57.9484 73.3804 57.9484 75.3355 58.0028 76.0959C58.0028 77.6166 57.4596 78.5398 56.3191 78.92C56.0476 79.0286 55.6674 79.1372 55.2329 79.3545C54.7442 79.5717 54.364 79.7346 54.1467 79.789C52.9519 80.2234 52.0287 79.789 51.4312 78.4855C50.4537 76.4217 49.8019 73.7062 49.5304 70.2847C49.4218 69.2528 49.3675 67.6235 49.3675 65.4511C49.3675 63.2787 49.3132 61.5951 49.2588 60.5089C48.5528 53.34 48.6071 46.8228 49.4218 40.8487C49.4218 40.7401 49.4218 40.5229 49.4761 40.2513C49.4761 39.9798 49.5304 39.7625 49.5304 39.6539C49.5304 39.5453 49.5847 39.4367 49.639 39.2194C49.639 39.0022 49.6933 38.8936 49.8019 38.7849C49.8563 38.6763 49.9649 38.5677 50.0735 38.4591C50.1821 38.3505 50.2907 38.1875 50.4537 38.0789C50.6166 37.9703 50.8338 37.916 51.0511 37.8074C52.2459 37.3186 53.7666 36.9384 55.7217 36.6668C56.8079 36.5039 57.4596 37.1013 57.6769 38.4591C57.7312 39.0022 57.8398 40.5229 57.9484 42.9125C57.9484 43.2384 58.0028 44.5961 58.0028 46.8771C58.0028 49.2124 58.0571 50.6788 58.1114 51.2219C58.1657 51.9823 58.4372 52.5797 58.8717 52.9055C59.3062 53.2314 59.9036 53.34 60.6639 53.2314C60.8812 53.2314 61.0441 53.1771 61.0984 53.0685C61.1527 53.0141 61.3157 53.0141 61.5872 53.0141C62.076 53.0685 62.4562 52.9598 62.6734 52.7426C62.8906 52.5254 62.945 52.0909 62.945 51.5478C62.945 44.5418 62.8906 40.6858 62.8906 40.0341C62.8363 39.0565 63.2165 38.5134 64.0312 38.4048C66.3122 38.1875 67.9958 38.0789 69.082 38.0789C69.2992 38.0789 69.5165 38.1332 69.7337 38.2418C69.8966 38.3505 70.0053 38.5677 70.1139 38.7849C70.2225 39.0022 70.2768 39.2194 70.2768 39.328C70.2768 39.4367 70.3311 39.7082 70.3311 40.0341C70.3311 40.4142 70.3854 40.6315 70.3854 40.6315C70.3854 40.6858 70.494 43.347 70.7113 48.615C70.7113 48.9409 70.7113 50.0271 70.8199 51.8193C70.9285 53.6659 70.9828 55.0236 70.9828 56.0012C70.9828 57.7391 70.9828 63.4417 70.9285 73.0002C70.9285 74.195 70.7113 75.1726 70.2768 75.8243C69.8423 76.476 69.1363 77.0191 68.1587 77.345C67.6156 77.5079 66.8553 77.7252 65.8234 77.9424C64.4113 78.2683 63.651 77.6709 63.4337 76.0959V75.5528C63.651 73.8692 63.5424 71.5338 63.1079 68.4925C62.6734 65.4511 62.0217 63.333 61.2613 62.0296ZM28.4581 42.5866C30.6305 41.9349 33.0745 41.8263 35.6814 42.3151C36.2245 42.4237 36.6589 42.9668 37.0391 43.8901C37.365 44.8133 37.5279 45.6823 37.4736 46.4426C37.4193 46.7685 37.2563 48.9409 37.0391 52.8512C37.0391 53.1771 37.0934 53.3943 37.202 53.5029C37.3107 53.6116 37.5822 53.6659 37.9081 53.6659C41.4382 54.209 44.1537 55.0236 46.1089 56.1098C46.8692 56.5443 47.3037 56.8702 47.4123 57.0874C47.5209 57.3046 47.4666 57.902 47.3037 58.771C47.0864 59.5313 46.9778 60.6175 46.9235 61.921C46.8692 63.2787 46.7606 64.4192 46.5434 65.2882C46.3261 65.9942 46.1089 66.4287 45.8916 66.5916C45.6201 66.8089 45.3485 66.8632 45.1313 66.7546C44.8597 66.6459 44.4796 66.5373 43.9365 66.3201C43.3934 66.1572 42.8503 66.0485 42.3615 66.0485C42.2529 66.0485 42.1986 66.0485 42.1442 65.9942C42.0899 65.9942 42.0356 65.9399 41.9813 65.8856C41.8727 65.8856 41.8184 65.8313 41.8184 65.777C38.8856 64.4735 36.9848 63.2244 36.1158 62.0839C35.9529 61.921 35.79 61.758 35.6271 61.5951C35.4098 61.4322 35.1926 61.2149 34.921 60.9977L34.2693 60.5089C32.9116 62.8986 32.2055 64.1477 32.0969 64.3106C30.4676 66.9718 29.2728 68.8183 28.5124 69.8502C28.4038 70.0132 28.2409 70.2304 28.0237 70.5563L27.4262 71.4795L26.7745 72.4571C26.503 72.8373 26.2857 73.1088 26.0685 73.3261C25.8513 73.5433 25.5797 73.7605 25.3625 73.9778C25.0909 74.195 24.8737 74.3036 24.6564 74.3036C24.4392 74.3036 24.2763 74.2493 24.059 74.1407C21.8866 72.62 20.5832 70.1218 20.0944 66.6459C19.9858 66.1028 20.203 65.4511 20.6918 64.6908C21.6694 63.0615 23.353 60.5089 25.7426 56.9788C26.1228 56.3814 26.5573 55.8383 27.0461 55.2952C27.7521 54.5348 28.1323 53.4486 28.2409 51.9823C28.2952 51.3848 28.4038 50.353 28.5124 48.8323C28.6211 47.3116 28.7297 46.1711 28.8383 45.3021C28.8383 45.0849 28.784 44.8676 28.784 44.6504C28.7297 44.4332 28.6754 44.2159 28.6211 43.9444C28.5124 43.6728 28.4581 43.4556 28.4581 43.2927V42.5866Z" fill="white"/>
</svg>
