<svg width="93" height="110" viewBox="0 0 93 110" fill="none" xmlns="http://www.w3.org/2000/svg">
<rect x="0.428711" y="0.428711" width="91.4694" height="108.62" fill="#FF961E"/>
<rect x="0.428711" y="0.428711" width="91.4694" height="108.62" stroke="black" stroke-width="0.857525"/>
<path d="M70.1682 73.9778C70.1139 74.4123 70.1139 75.0097 70.2225 75.6614C70.3311 76.3674 70.3311 77.0191 70.3311 77.6166C70.3311 78.214 70.1682 78.7571 69.9509 79.2459C69.5165 80.0605 69.082 80.5493 68.5389 80.6579C67.8872 80.8208 67.1268 80.9838 66.1492 81.0924C65.1717 81.2553 64.3027 81.3639 63.5967 81.4182C62.8906 81.4726 62.5648 81.4726 62.5648 81.4182H33.8891C32.9116 81.4726 31.4452 81.5269 29.49 81.5812C27.5349 81.6355 26.0685 81.6355 25.0909 81.6355C24.0047 81.6898 22.9728 81.4726 21.9953 80.9838L21.2892 76.8019L21.9953 74.7381C22.2125 74.0864 22.647 73.7605 23.2987 73.7062L27.6435 73.2718C31.9883 73.2718 36.6589 73.1631 41.6011 73.0545C41.1667 72.62 40.9494 72.1312 40.9494 71.6968C40.8408 71.045 40.7865 70.1218 40.7865 68.927C40.7322 67.7321 40.6779 66.8632 40.6779 66.4287C40.6779 65.9942 40.7322 65.6684 40.8951 65.4511C41.0037 65.2339 41.3296 65.1253 41.8184 65.1253C42.3615 65.1796 43.3934 65.1796 44.8054 65.1796C46.2175 65.1796 47.1951 65.1253 47.7925 65.1253C48.933 65.1796 49.6933 65.4511 50.1278 65.9942C50.5623 66.5373 50.8881 67.5692 51.1597 69.0899C51.3226 70.2304 51.0511 71.4795 50.345 72.8916C56.2105 72.783 60.0665 72.6743 61.8044 72.5657C63.9225 72.5114 65.6061 72.5114 66.801 72.62C67.1268 72.62 68.1044 72.9459 69.7337 73.489C69.788 73.5433 69.8966 73.5976 70.0053 73.7062C70.1139 73.8149 70.1682 73.9235 70.1682 73.9778ZM38.2339 55.2952C38.0167 56.5443 38.071 57.3046 38.3425 57.5762C38.6141 57.8477 39.3744 57.8477 40.5693 57.6305C41.7098 57.4132 43.6106 57.2503 46.3261 57.1417C47.5752 57.1417 49.3675 57.0874 51.6485 56.9788C53.9295 56.9245 55.6131 56.8702 56.5907 56.8158C56.5907 56.8158 58.1114 56.7072 61.1527 56.49C61.7501 56.49 62.1846 56.5986 62.4562 56.8702C62.7277 57.1417 62.8363 57.5762 62.8363 58.2279C62.8363 59.0969 62.782 59.8029 62.7277 60.346C62.6191 60.8891 62.5105 61.4865 62.2932 62.1382C62.076 62.7899 61.6958 63.333 61.2613 63.7675C60.7726 64.202 60.1751 64.5279 59.4148 64.7451C58.9803 64.8537 58.4915 64.9623 57.9484 64.9623C57.4053 64.9623 56.8079 64.9623 56.0476 64.8537C55.2873 64.7994 54.7442 64.7451 54.5269 64.7451C52.9519 64.6908 50.9425 64.5822 48.5528 64.4192C43.5563 64.1477 38.6141 63.8218 33.6719 63.4417C33.4547 63.4417 33.2374 63.3873 32.9116 63.2244C31.7167 62.7356 30.5762 61.5951 29.49 59.8029C28.3495 58.065 27.8607 56.5986 27.9693 55.4038C28.1323 53.6659 28.5124 51.9823 29.1099 50.4616C29.4357 49.484 29.8702 48.8866 30.4133 48.6693C30.9021 48.4521 31.7167 48.3978 32.8029 48.615C33.0745 48.6693 33.346 48.7237 33.6719 48.7237C33.9978 48.7237 34.3236 48.7237 34.7581 48.6693C35.1926 48.6693 35.5184 48.615 35.7357 48.615C35.79 48.615 36.2788 48.615 37.2563 48.615C38.1796 48.615 38.6684 48.615 38.777 48.615C38.9943 48.615 39.8632 48.6693 41.3839 48.778C42.9046 48.8866 44.0994 48.8866 44.9141 48.8323C47.4123 48.778 49.639 48.5607 51.5942 48.1806C52.083 48.0719 52.4088 47.8547 52.6261 47.5288C52.789 47.203 52.8976 46.7142 52.9519 46.1168C52.9519 45.5737 53.0605 45.1392 53.1692 44.922C53.1692 44.922 53.0605 44.8133 52.9519 44.7047C52.789 44.5961 52.6261 44.4875 52.4088 44.3789C52.1916 44.2702 51.9743 44.1616 51.8657 44.1073C51.1054 43.9444 50.2907 43.8358 49.4218 43.8358C48.4442 43.8358 46.7606 43.8358 44.371 43.8358C41.9813 43.8358 40.352 43.8358 39.4287 43.7815C38.8856 43.7815 37.9624 43.7815 36.6589 43.6728C35.3012 43.5642 34.2693 43.5099 33.6176 43.5099C31.9883 43.6185 30.2504 43.8358 28.3495 44.2702C27.915 44.3789 27.5349 44.3789 27.3176 44.2702C27.1004 44.1616 26.9918 43.8901 26.9918 43.4556C27.0461 39.8168 27.1547 37.4272 27.3176 36.2324C27.4262 35.2005 27.8064 34.4401 28.3495 34.0057C28.8926 33.5712 29.7073 33.3539 30.7935 33.3539C36.1158 33.2453 40.5693 33.6255 44.208 34.5488C44.5339 34.6574 44.9684 34.7117 45.4028 34.766C45.8373 34.8203 46.2718 34.8746 46.5977 34.8746C46.9235 34.8746 47.358 34.8746 47.9011 34.8746C48.4442 34.8746 48.8244 34.9289 49.0959 34.9289C49.4761 34.9289 50.508 34.9832 52.1373 35.0375C53.7666 35.0919 54.9614 35.1462 55.7217 35.2005C56.4278 35.2548 57.4053 35.3634 58.6545 35.5263C59.8493 35.6893 60.9898 35.9065 61.9674 36.2324C62.8363 36.5582 63.5424 37.047 64.0312 37.753C65.1717 39.6539 65.4975 42.2608 65.0087 45.628C64.9001 46.334 64.6286 47.3659 64.3027 48.7237C63.9225 50.0814 63.7053 51.1133 63.5967 51.8193C63.3794 53.0141 62.8906 53.8831 62.1303 54.4262C61.37 54.9693 60.3381 55.2952 59.1433 55.4581C56.3191 55.8926 53.495 56.1098 50.6709 56.1098H49.7476C48.6614 56.1098 47.5209 56.0555 46.3261 55.9469C45.1313 55.8383 43.7192 55.7296 42.1986 55.5667C40.6779 55.4581 39.5374 55.3495 38.8313 55.2409C38.777 55.2409 38.5598 55.2952 38.2339 55.2952Z" fill="white"/>
</svg>
