<svg width="93" height="110" viewBox="0 0 93 110" fill="none" xmlns="http://www.w3.org/2000/svg">
<rect x="0.428711" y="0.428711" width="91.4694" height="108.62" fill="#FF961E"/>
<rect x="0.428711" y="0.428711" width="91.4694" height="108.62" stroke="black" stroke-width="0.857525"/>
<path d="M33.4547 54.7521H36.1701H40.2434H42.9589C49.5847 54.6434 53.4407 54.5891 54.4726 54.5891C55.4502 54.6434 57.6769 54.7521 61.0984 54.915C64.4656 55.0779 66.2579 55.1322 66.4751 55.1322C66.638 55.1865 66.9639 55.2409 67.4527 55.3495C68.213 55.5667 68.7018 55.8383 68.9734 56.1641C69.2449 56.49 69.3535 57.0331 69.2449 57.7934C69.1906 58.1193 69.1363 58.3365 69.1363 58.5538C69.082 58.771 69.0277 58.9882 69.0277 59.1512C68.9734 59.3141 68.9191 59.477 68.8104 59.5856C68.7018 59.7486 68.5932 59.8572 68.5932 59.9658C68.5389 60.0744 68.4303 60.1831 68.2673 60.2917C68.0501 60.4003 67.9415 60.4546 67.8329 60.5089C67.7242 60.5632 67.5613 60.6175 67.2898 60.6718C67.0182 60.7805 66.801 60.8348 66.6923 60.8348C66.5837 60.8891 66.3122 60.9434 65.932 61.052C65.4975 61.1606 65.226 61.2149 65.0087 61.2693C64.5743 61.3779 62.2932 61.4865 58.0571 61.5951C53.8209 61.758 51.4856 61.921 51.0511 62.0296C50.8881 62.0839 50.7795 62.4641 50.7795 63.1158C50.7795 63.8218 50.7795 64.5279 50.7795 65.1796C50.7795 65.8856 50.7795 66.4287 50.7795 66.8632C50.7795 66.9718 50.7795 67.189 50.8338 67.5149C50.8881 67.8408 50.8881 68.058 50.7795 68.058C50.1278 68.9813 49.0416 69.4701 47.4123 69.5244C45.783 69.5787 44.5339 69.1985 43.6649 68.4382C43.3391 68.2209 43.1761 68.0037 43.1218 67.7865C42.9589 67.4606 42.9046 66.8632 42.9046 65.8856C42.9046 64.908 42.796 64.0934 42.6873 63.3873C42.5787 62.6813 42.3072 62.3011 41.9813 62.1925C41.4382 62.1382 39.2115 62.0839 35.3012 61.9753C31.3909 61.8667 29.1099 61.8667 28.4581 61.8667C27.5892 62.0839 26.8831 62.1382 26.2857 62.0296C25.6883 61.9753 25.2538 61.5951 24.9823 60.8891C24.4392 59.6943 24.2763 58.3365 24.4935 56.8702C24.5478 56.5443 24.8737 56.1641 25.4168 55.784C25.9599 55.4581 27.209 55.1322 29.2185 54.915C31.1736 54.6978 32.5857 54.6434 33.4547 54.7521ZM45.6744 32.9738C49.1502 33.191 50.8881 33.2996 50.9425 33.2996C55.939 33.7884 59.795 35.7436 62.5648 39.1108C62.8906 39.5996 63.1622 40.3056 63.3251 41.2289C63.5424 42.9668 63.1622 44.922 62.2932 47.1487C61.3157 49.6469 59.4691 51.1676 56.645 51.7107C54.5812 52.1452 52.4088 52.3081 50.0735 52.3081C49.4218 52.3081 48.227 52.3624 46.4347 52.4167C44.6425 52.5254 43.2848 52.5254 42.3072 52.471C38.7227 52.3081 35.6271 51.6564 33.1288 50.5702C30.0874 49.3211 28.7297 47.203 29.0555 44.2159C29.3271 41.772 30.6305 39.4367 32.9116 37.1556C34.7038 35.3634 37.5822 34.06 41.6011 33.2996C41.9813 33.2453 42.4158 33.191 42.9046 33.1367C43.3391 33.1367 43.8822 33.0824 44.4253 33.0824C44.9684 33.0824 45.4028 33.0281 45.6744 32.9738ZM45.783 46.4969C47.9554 46.3883 49.0959 46.2797 49.2588 46.2797C49.9106 46.2254 50.6166 45.9539 51.2683 45.5194C51.92 45.0849 52.3002 44.6504 52.4088 44.2159C52.5174 43.2384 52.4088 42.3694 51.9743 41.7177C51.5399 41.066 50.6709 40.6315 49.4761 40.3599C46.8149 39.8168 44.4253 39.7625 42.3615 40.2513C41.2753 40.5229 40.6779 40.7401 40.5149 40.903C39.9175 41.5547 39.3201 42.478 38.6684 43.6728C38.1253 44.6504 38.5055 45.2478 39.7546 45.5737C42.3615 46.334 44.371 46.6599 45.783 46.4969ZM43.6649 73.1631H49.2588H55.2329C59.632 73.1631 62.6191 73.2174 64.1941 73.2174C64.3027 73.2174 64.4656 73.2718 64.5743 73.2718C64.6829 73.3261 64.7372 73.3804 64.8458 73.3804C64.9001 73.4347 64.9544 73.489 65.063 73.5976L65.226 73.8692C65.226 73.9235 65.2803 74.0321 65.3346 74.1407C65.3346 74.3036 65.3889 74.4123 65.3889 74.4666C65.3889 74.5209 65.4432 74.6295 65.4975 74.7924C65.4975 74.9554 65.5518 75.064 65.5518 75.064C65.6061 75.4442 65.6605 75.8243 65.6605 76.2045C65.6605 77.4536 65.2803 78.7028 64.6286 80.0062C64.4113 80.3864 63.9768 80.6579 63.2165 80.7665C62.4562 80.8751 59.9036 81.0381 55.5588 81.2553C51.214 81.4726 48.6614 81.6355 47.8468 81.7441C47.6295 81.7984 47.4123 81.7984 47.2494 81.7984C46.3261 81.7984 44.371 81.8527 41.3839 81.907C38.3969 81.9613 36.2245 82.0157 34.8667 82.07C34.5409 82.07 33.9434 82.1243 33.1831 82.1786C32.4228 82.2329 31.8254 82.2329 31.4452 82.2329C30.1961 82.2329 29.1642 82.0157 28.3495 81.5269C28.1323 81.4182 27.915 81.1467 27.6978 80.8208C27.4806 80.495 27.3719 80.2234 27.3719 79.8976C27.2633 78.2683 27.1004 75.6614 26.9375 72.0769C26.7202 68.4925 26.6116 66.3744 26.6116 65.7227H26.6659C26.8288 65.7227 27.1547 65.6684 27.6435 65.5597C28.1323 65.4511 28.5124 65.2882 28.7297 65.1253C29.0012 64.908 29.4357 64.7994 29.9788 64.7994C30.6848 64.7994 31.8254 65.071 33.346 65.5597C33.7805 65.7227 33.9978 65.9942 33.9978 66.3744C33.9978 66.5373 33.9434 66.7546 33.9434 67.0261C33.9434 67.352 33.9434 67.5692 33.9434 67.7321V68.8727V69.9588V71.5881V73.1631H43.6649Z" fill="white"/>
</svg>
