<svg width="93" height="110" viewBox="0 0 93 110" fill="none" xmlns="http://www.w3.org/2000/svg">
<rect x="0.428711" y="0.428711" width="91.4694" height="108.62" fill="#FF961E"/>
<rect x="0.428711" y="0.428711" width="91.4694" height="108.62" stroke="black" stroke-width="0.857525"/>
<path d="M38.7227 61.8667C34.6495 61.9753 30.9564 61.1063 27.5892 59.1512C25.5254 58.0107 24.1133 56.1098 23.4616 53.3943C22.5927 50.1357 22.484 47.5288 23.1358 45.4651C23.4616 44.3789 24.0047 43.347 24.7107 42.3694C26.0685 40.5229 27.2633 39.1108 28.2952 38.1332C29.8159 36.7212 31.8254 36.1781 34.215 36.4496C37.3107 36.8841 40.6236 38.1332 44.0994 40.197C46.0546 41.3918 47.2494 43.1297 47.6839 45.5194C48.2813 49.3211 48.3356 52.4167 47.7925 54.7521C47.2494 57.0874 46.2175 58.8796 44.6425 60.1831C43.0675 61.4865 41.1124 62.0839 38.7227 61.8667ZM32.8029 50.2443C33.4547 52.4167 33.8891 53.6659 34.0521 53.8831C34.1607 54.1003 34.3236 54.3719 34.5952 54.5891C34.8667 54.8064 35.0839 54.915 35.3012 54.8607C36.496 54.7521 37.5279 54.4805 38.3425 53.9374C39.1029 53.3943 39.646 52.6883 39.8632 51.765C40.0805 50.8417 39.8632 49.7555 39.2115 48.4521C38.2339 46.4969 36.7132 45.8452 34.6495 46.4426C33.4547 46.8228 32.8572 48.0719 32.8029 50.2443ZM70.0596 58.2279C70.0053 60.5089 69.4621 62.0839 68.4303 62.9529C67.9958 63.2787 67.4527 63.5503 66.801 63.6589C66.1492 63.7675 65.5518 63.8218 65.063 63.7675H64.357L63.1622 63.4417C62.4019 63.2787 62.076 62.7899 62.076 62.0296V53.0141C61.0984 53.2314 60.0122 53.34 58.8717 53.4486C56.7536 53.6659 55.5045 53.1771 55.1243 51.9823C54.3097 49.7012 54.8528 47.4202 56.8079 45.1392C56.9166 45.0306 57.1338 44.922 57.514 44.8133C57.8398 44.759 58.3829 44.7047 59.1433 44.6504C59.8493 44.5961 60.2838 44.5418 60.4467 44.4875C60.501 44.4875 60.9898 44.5418 61.8588 44.6504C61.7501 41.772 61.7501 38.6763 61.7501 35.3634C61.7501 34.6574 61.9674 34.06 62.5105 33.5712C62.9993 33.1367 63.651 32.8652 64.4113 32.8652L68.2673 33.2453L68.8104 33.6798C69.0277 33.8427 69.2992 34.1686 69.7337 34.6574C70.1139 35.1462 70.3311 35.635 70.3311 36.0694V44.1616C70.2768 44.1616 70.2225 45.0306 70.2225 46.7685C70.2225 48.5064 70.1682 50.6245 70.1682 53.0685C70.1139 55.5667 70.0596 57.2503 70.0596 58.2279ZM43.3934 72.8373C50.7795 72.4028 54.9614 72.1856 55.8847 72.0769C56.8079 72.0226 57.8941 71.914 59.1976 71.8054C60.501 71.6968 61.5872 71.5881 62.4562 71.4795C63.3251 71.3709 64.0855 71.3166 64.6286 71.3166C65.3346 71.3166 65.8777 72.2399 66.2036 73.9778C66.2579 74.358 66.3122 75.1183 66.3122 76.2045C66.3122 77.4536 65.9863 78.7028 65.3346 80.0062C65.1174 80.3864 64.6286 80.6579 63.8682 80.7665C63.1079 80.8751 60.5553 81.0381 56.2105 81.2553C51.8657 81.4726 49.3132 81.6355 48.4985 81.7441C48.2813 81.7984 48.1183 81.7984 47.9011 81.7984C46.9778 81.7984 45.0227 81.8527 42.0356 81.907C39.0486 81.9613 36.8762 82.0157 35.5184 82.07C35.1926 82.07 34.5952 82.1243 33.8348 82.1786C33.0745 82.2329 32.4771 82.2329 32.0969 82.2329C30.8478 82.2329 29.8159 82.0157 29.0555 81.5269C28.784 81.4182 28.5668 81.1467 28.3495 80.8208C28.1323 80.495 28.078 80.2234 28.078 79.8976C27.915 78.3226 27.8064 76.0959 27.6978 73.1631C27.5892 70.2304 27.4806 68.2209 27.4262 67.0804L27.3719 66.3201C27.3719 65.777 27.3719 65.2882 27.3719 64.7451L27.3176 63.9848C27.4262 63.9848 27.6978 63.9304 28.1866 63.8218C28.6754 63.7132 29.0012 63.6046 29.1642 63.5503C29.5443 63.496 30.4133 63.4417 31.771 63.4417C33.346 63.4417 34.3236 63.5503 34.7581 63.6589C35.1926 63.8218 35.4098 64.0934 35.4098 64.4735C35.4098 64.6365 35.4641 65.0166 35.5727 65.5597C35.6814 66.1028 35.79 66.483 35.79 66.6459C35.79 67.2434 35.8986 68.3296 36.2245 69.9588C36.2245 70.1761 36.2788 70.6649 36.3874 71.3709C36.4417 72.0769 36.5503 72.6743 36.7132 73.2174L43.3934 72.8373Z" fill="white"/>
</svg>
