<svg width="93" height="110" viewBox="0 0 93 110" fill="none" xmlns="http://www.w3.org/2000/svg">
<rect x="0.428711" y="0.428711" width="91.4694" height="108.62" fill="#FF961E"/>
<rect x="0.428711" y="0.428711" width="91.4694" height="108.62" stroke="black" stroke-width="0.857525"/>
<path d="M69.3535 36.0694C69.3535 36.1237 69.3535 36.1781 69.4621 36.1781C69.5708 36.2867 69.788 36.341 70.1139 36.4496C70.4397 36.5582 70.7113 36.6125 70.9285 36.7212C71.1458 36.8298 71.2544 36.9384 71.3087 37.047C71.5802 38.0789 71.6889 39.2737 71.6345 40.5772C71.5802 41.0116 71.3087 43.8901 70.8742 49.2124C70.494 53.2314 70.1682 57.2503 69.8423 61.2693C69.4621 65.1796 69.2449 67.5149 69.2449 68.2752C69.1363 68.927 69.082 69.7959 69.0277 70.9364C68.9734 72.0769 68.9191 73.1088 68.8647 74.0321C68.7561 74.9554 68.7018 75.8243 68.5932 76.639C68.4846 77.3993 67.9415 78.4855 67.0725 79.9519C66.8553 80.3321 66.3665 80.495 65.6061 80.495C65.4432 80.5493 63.8682 80.5493 60.8269 80.5493C60.2838 80.5493 59.8493 80.4407 59.5234 80.1148C59.1976 79.789 58.9803 79.4088 58.9803 78.8657L58.6002 73.1631C58.6002 73.0545 58.5459 72.6743 58.4915 72.0226C58.3829 71.3709 58.3829 70.8821 58.4372 70.5563C58.5459 68.9813 58.7631 67.4063 59.0889 65.8313C59.2519 64.7994 59.1976 64.0934 58.8717 63.7675C58.5459 63.4417 57.8941 63.3873 56.9166 63.6046C55.3959 63.9304 54.1467 63.5503 53.1692 62.5727C52.1373 61.5951 51.7571 60.4003 52.0287 58.8796C52.2459 57.4676 52.8433 56.3271 53.8209 55.4581C54.7442 54.6434 55.939 54.1547 57.4596 54.046C58.1657 54.046 58.8174 53.7745 59.3605 53.2857C59.9036 52.7969 60.2295 52.1995 60.2838 51.5478C60.3381 50.4616 60.4467 48.778 60.6639 46.3883C60.8269 44.053 60.9355 42.2608 61.0441 41.0116C61.0984 40.4685 61.2613 39.491 61.5872 38.1875C61.8588 36.9927 62.6191 36.4496 63.8682 36.4496C65.2803 36.5039 66.638 36.5039 67.8872 36.5039C67.8872 36.5039 68.376 36.3953 69.3535 36.0694ZM36.3874 79.5174C31.6624 79.4631 27.7521 77.8338 24.6021 74.5752C23.5159 73.489 22.7556 71.6425 22.4297 69.0356C21.8866 65.4511 21.6151 62.2468 21.6694 59.477C21.6694 54.6978 22.7013 50.0814 24.7651 45.628C24.928 45.2478 25.0909 44.9763 25.2538 44.8133C28.078 41.9892 29.8702 40.2513 30.6305 39.5996C30.7935 39.4367 31.0107 39.328 31.2823 39.2194C31.4995 39.1651 31.8254 39.1108 32.2598 39.0565C32.64 39.0022 32.9116 38.9479 33.0745 38.9479C35.5184 38.4048 37.8538 38.5677 40.0262 39.4367C42.1986 40.3056 44.4796 41.7177 46.7606 43.5642C47.6839 44.4332 48.4442 45.1935 48.9873 45.8995C49.5304 46.6056 49.9106 47.4202 50.1278 48.3435C50.5623 50.6788 50.7252 52.634 50.5623 54.1547C50.2364 57.8477 49.639 61.8667 48.8787 66.2658C47.9554 71.4252 45.5658 75.2269 41.6555 77.6166C39.2658 79.1372 37.4736 79.7346 36.3874 79.5174ZM42.3072 56.8702C42.2529 56.7615 42.1986 56.4357 42.1442 56.0012C42.0356 55.5667 41.9813 55.2409 41.927 55.0236C41.8727 54.8607 41.8184 54.5891 41.7098 54.2633C41.6011 53.9374 41.4925 53.6659 41.3296 53.3943C41.1667 53.1771 41.0037 52.9055 40.7865 52.6883C39.4831 51.3305 38.071 50.7874 36.5503 51.059C34.9753 51.3848 33.8891 52.4167 33.2374 54.209C32.4228 56.2727 32.2055 58.1193 32.5314 59.7486C32.64 60.4003 32.7486 61.4322 32.9116 62.7899C33.0745 64.202 33.2374 65.2339 33.4003 65.9399C33.5633 66.7546 34.0521 67.4606 34.921 68.058C35.7357 68.6554 36.5503 68.927 37.4193 68.927C38.0167 68.927 38.6141 68.7097 39.2658 68.2209C39.8632 67.7865 40.2434 67.189 40.4063 66.4287C40.5149 65.8313 41.1667 62.627 42.3072 56.8702Z" fill="white"/>
</svg>
