<svg width="93" height="110" viewBox="0 0 93 110" fill="none" xmlns="http://www.w3.org/2000/svg">
<rect x="0.428711" y="0.428711" width="91.4694" height="108.62" fill="#FF961E"/>
<rect x="0.428711" y="0.428711" width="91.4694" height="108.62" stroke="black" stroke-width="0.857525"/>
<path d="M61.2613 62.0296C60.8812 62.1382 60.6096 62.1925 60.3924 62.2468C60.1751 62.3555 59.9036 62.4098 59.5777 62.4098C59.0346 62.5184 58.6002 62.6813 58.3286 62.8986C58.0571 63.1701 57.9484 63.6046 57.9484 64.2563C57.9484 65.0166 57.9484 66.9718 57.9484 70.1761C57.9484 73.3804 57.9484 75.3355 58.0028 76.0959C58.0028 77.6166 57.4596 78.5398 56.3191 78.92C56.0476 79.0286 55.6674 79.1372 55.2329 79.3545C54.7442 79.5717 54.364 79.7346 54.1467 79.789C52.9519 80.2234 52.0287 79.789 51.4312 78.4855C50.4537 76.4217 49.8019 73.7062 49.5304 70.2847C49.4218 69.2528 49.3675 67.6235 49.3675 65.4511C49.3675 63.2787 49.3132 61.5951 49.2588 60.5089C48.5528 53.34 48.6071 46.8228 49.4218 40.8487C49.4218 40.7401 49.4218 40.5229 49.4761 40.2513C49.4761 39.9798 49.5304 39.7625 49.5304 39.6539C49.5304 39.5453 49.5847 39.4367 49.639 39.2194C49.639 39.0022 49.6933 38.8936 49.8019 38.7849C49.8563 38.6763 49.9649 38.5677 50.0735 38.4591C50.1821 38.3505 50.2907 38.1875 50.4537 38.0789C50.6166 37.9703 50.8338 37.916 51.0511 37.8074C52.2459 37.3186 53.7666 36.9384 55.7217 36.6668C56.8079 36.5039 57.4596 37.1013 57.6769 38.4591C57.7312 39.0022 57.8398 40.5229 57.9484 42.9125C57.9484 43.2384 58.0028 44.5961 58.0028 46.8771C58.0028 49.2124 58.0571 50.6788 58.1114 51.2219C58.1657 51.9823 58.4372 52.5797 58.8717 52.9055C59.3062 53.2314 59.9036 53.34 60.6639 53.2314C60.8812 53.2314 61.0441 53.1771 61.0984 53.0685C61.1527 53.0141 61.3157 53.0141 61.5872 53.0141C62.076 53.0685 62.4562 52.9598 62.6734 52.7426C62.8906 52.5254 62.945 52.0909 62.945 51.5478C62.945 44.5418 62.8906 40.6858 62.8906 40.0341C62.8363 39.0565 63.2165 38.5134 64.0312 38.4048C66.3122 38.1875 67.9958 38.0789 69.082 38.0789C69.2992 38.0789 69.5165 38.1332 69.7337 38.2418C69.8966 38.3505 70.0053 38.5677 70.1139 38.7849C70.2225 39.0022 70.2768 39.2194 70.2768 39.328C70.2768 39.4367 70.3311 39.7082 70.3311 40.0341C70.3311 40.4142 70.3854 40.6315 70.3854 40.6315C70.3854 40.6858 70.494 43.347 70.7113 48.615C70.7113 48.9409 70.7113 50.0271 70.8199 51.8193C70.9285 53.6659 70.9828 55.0236 70.9828 56.0012C70.9828 57.7391 70.9828 63.4417 70.9285 73.0002C70.9285 74.195 70.7113 75.1726 70.2768 75.8243C69.8423 76.476 69.1363 77.0191 68.1587 77.345C67.6156 77.5079 66.8553 77.7252 65.8234 77.9424C64.4113 78.2683 63.651 77.6709 63.4337 76.0959V75.5528C63.651 73.8692 63.5424 71.5338 63.1079 68.4925C62.6734 65.4511 62.0217 63.333 61.2613 62.0296ZM23.8961 39.7082C25.4168 40.1427 26.2314 40.3599 26.34 40.3599C28.4038 41.0116 30.7935 41.3375 33.6176 41.2832C33.9434 41.2832 35.1926 41.4461 37.2563 41.772C39.2115 42.0978 40.5149 42.3694 41.2753 42.478C42.4701 42.8039 43.7735 43.1297 45.077 43.5099C45.2942 43.6185 45.5115 43.9987 45.6744 44.5418C45.783 45.1392 45.8373 45.7366 45.7287 46.2797C45.6744 46.5513 45.4028 48.0719 44.8597 50.8417L40.6779 51.7107C40.1891 53.9917 40.1891 58.065 40.6779 63.8761C40.7865 63.9304 41.0037 63.9848 41.221 64.0391C41.4382 64.1477 41.927 64.202 42.5787 64.3106C43.2304 64.4192 43.8279 64.4192 44.4253 64.4192C45.077 64.4192 45.783 64.7451 46.489 65.2882C46.5977 65.3968 46.5434 66.1028 46.4347 67.352C46.3261 67.9494 46.2175 68.4925 46.1089 68.9813C45.9459 69.5244 45.8373 70.0675 45.783 70.6106C45.6201 71.7511 45.077 72.5114 44.208 72.9459C42.633 73.7062 41.2753 74.0321 40.0805 73.9235C39.3201 73.9235 38.5598 73.8692 37.7451 73.8149C36.8762 73.8149 35.9529 73.7605 34.9753 73.7605C33.9978 73.7605 33.1831 73.7062 32.64 73.6519C29.7616 73.5433 27.8607 73.489 26.9918 73.4347C25.9056 73.3261 24.7107 73.1631 23.2987 72.8916C22.3754 72.783 21.778 72.0226 21.5065 70.6106C21.2892 69.5244 21.1263 68.8183 21.1263 68.4925C21.1263 68.2209 21.1806 67.5149 21.3978 66.3744C21.3978 66.1572 21.5608 65.8856 21.778 65.6141C21.9953 65.3968 22.2125 65.1796 22.4297 65.071C22.647 64.9623 23.8418 64.5822 26.0142 63.9304V50.0814L25.0366 49.7555C24.4935 49.5926 24.059 49.4297 23.7875 49.3211C22.9728 49.1038 22.647 48.2892 22.7556 46.9314C22.8642 45.4108 23.1358 43.5099 23.4616 41.2289C23.4616 41.1746 23.5702 40.6858 23.8961 39.7082ZM32.2055 50.2443C31.4452 53.2857 31.1736 57.0874 31.2823 61.6494C31.2823 61.9753 31.3909 62.3011 31.6081 62.5727C31.771 62.8986 31.9883 63.1701 32.2598 63.333C32.5314 63.5503 32.7486 63.6589 32.9659 63.6589C33.1831 63.7132 33.4547 63.7675 33.8348 63.7675C34.1607 63.8218 34.4322 63.8218 34.5952 63.8218C34.921 63.9304 35.1926 63.8761 35.4098 63.6589C35.5727 63.4417 35.6814 63.1158 35.79 62.627C35.79 62.3555 35.8443 61.5951 35.8986 60.4003C35.8986 59.2055 35.9529 58.4994 36.0072 58.3365C36.2788 54.5891 36.4417 52.5254 36.496 52.1452C36.496 51.7107 36.496 51.4392 36.3874 51.2219C36.2788 51.059 36.0615 50.9504 35.7357 50.8961C35.4641 50.8961 34.2693 50.6788 32.2055 50.2443Z" fill="white"/>
</svg>
