<svg width="93" height="110" viewBox="0 0 93 110" fill="none" xmlns="http://www.w3.org/2000/svg">
<rect x="0.428711" y="0.428711" width="91.4694" height="108.62" fill="#FF961E"/>
<rect x="0.428711" y="0.428711" width="91.4694" height="108.62" stroke="black" stroke-width="0.857525"/>
<path d="M31.771 44.5961C32.2055 44.5961 32.9116 44.5418 33.9434 44.4332C34.921 44.3245 35.8443 44.2702 36.6046 44.2159C37.365 44.2159 38.071 44.1616 38.8313 44.1616C39.9718 44.2159 42.0899 44.4875 45.1313 44.9763C45.2399 44.9763 45.4028 45.1392 45.6201 45.3564C45.783 45.628 45.8373 45.8452 45.8373 46.0082C45.7287 47.04 45.5115 48.1806 45.1856 49.484C45.1313 49.6469 45.0227 49.8099 44.8054 49.9185C44.5882 50.0271 44.4253 50.0814 44.3166 50.0814C43.7735 50.1357 43.0675 50.2443 42.1986 50.353C41.3296 50.4616 40.5693 50.5702 39.9718 50.6788C39.3744 50.7874 38.6684 50.7874 37.8538 50.7874C37.0391 50.7874 36.2788 50.6788 35.6271 50.5159C34.9753 50.4616 34.4865 50.4616 34.1607 50.4616C33.8348 50.4616 33.346 50.5702 32.5857 50.6788C31.8254 50.7874 31.2279 50.8961 30.9021 50.8961C31.1736 51.765 31.4995 52.3624 31.8254 52.6883C32.1512 53.0685 32.7486 53.2314 33.509 53.1228C34.921 53.0141 38.6684 52.7969 44.8597 52.471H46.8149C47.3037 54.9693 46.8692 57.5219 45.5115 60.1287C45.2942 60.5632 44.9141 60.7262 44.4253 60.7262C43.4477 60.7805 41.8184 60.7805 39.4831 60.7805C37.0934 60.7805 35.3012 60.8348 34.0521 60.8348C31.4452 60.9434 28.4581 60.4003 25.0909 59.2055C23.6245 58.771 22.7013 58.2822 22.3754 57.7934C22.0496 57.3589 21.8866 56.3814 21.8866 54.8607C21.8866 53.6659 21.9409 51.6021 22.0496 48.6693C22.1582 45.7909 22.2125 43.184 22.3211 40.903L22.484 37.4815L28.9469 36.5582C35.0296 35.6893 39.8089 35.0919 43.1761 34.8203C43.4477 34.8203 43.8279 34.8203 44.3166 34.9289C44.8054 35.0375 45.2399 35.0919 45.6201 35.1462L46.1632 35.3091L45.8916 39.9798C43.0675 41.5004 40.8951 42.3151 39.2658 42.4237C38.8313 42.478 37.9081 42.5323 36.6046 42.5866C35.2469 42.6953 34.215 42.7496 33.509 42.8039C33.2917 42.8582 33.0745 42.9125 32.8572 43.0211C32.64 43.1297 32.3685 43.2927 32.0969 43.4556C31.771 43.6728 31.5538 43.7815 31.4452 43.8358L31.771 44.5961ZM70.0596 58.2279C70.0053 60.5089 69.4621 62.0839 68.4303 62.9529C67.9958 63.2787 67.4527 63.5503 66.801 63.6589C66.1492 63.7675 65.5518 63.8218 65.063 63.7675H64.357L63.1622 63.4417C62.4019 63.2787 62.076 62.7899 62.076 62.0296V53.0141C61.0984 53.2314 60.0122 53.34 58.8717 53.4486C56.7536 53.6659 55.5045 53.1771 55.1243 51.9823C54.3097 49.7012 54.8528 47.4202 56.8079 45.1392C56.9166 45.0306 57.1338 44.922 57.514 44.8133C57.8398 44.759 58.3829 44.7047 59.1433 44.6504C59.8493 44.5961 60.2838 44.5418 60.4467 44.4875C60.501 44.4875 60.9898 44.5418 61.8588 44.6504C61.7501 41.772 61.7501 38.6763 61.7501 35.3634C61.7501 34.6574 61.9674 34.06 62.5105 33.5712C62.9993 33.1367 63.651 32.8652 64.4113 32.8652L68.2673 33.2453L68.8104 33.6798C69.0277 33.8427 69.2992 34.1686 69.7337 34.6574C70.1139 35.1462 70.3311 35.635 70.3311 36.0694V44.1616C70.2768 44.1616 70.2225 45.0306 70.2225 46.7685C70.2225 48.5064 70.1682 50.6245 70.1682 53.0685C70.1139 55.5667 70.0596 57.2503 70.0596 58.2279ZM43.3934 72.8373C50.7795 72.4028 54.9614 72.1856 55.8847 72.0769C56.8079 72.0226 57.8941 71.914 59.1976 71.8054C60.501 71.6968 61.5872 71.5881 62.4562 71.4795C63.3251 71.3709 64.0855 71.3166 64.6286 71.3166C65.3346 71.3166 65.8777 72.2399 66.2036 73.9778C66.2579 74.358 66.3122 75.1183 66.3122 76.2045C66.3122 77.4536 65.9863 78.7028 65.3346 80.0062C65.1174 80.3864 64.6286 80.6579 63.8682 80.7665C63.1079 80.8751 60.5553 81.0381 56.2105 81.2553C51.8657 81.4726 49.3132 81.6355 48.4985 81.7441C48.2813 81.7984 48.1183 81.7984 47.9011 81.7984C46.9778 81.7984 45.0227 81.8527 42.0356 81.907C39.0486 81.9613 36.8762 82.0157 35.5184 82.07C35.1926 82.07 34.5952 82.1243 33.8348 82.1786C33.0745 82.2329 32.4771 82.2329 32.0969 82.2329C30.8478 82.2329 29.8159 82.0157 29.0555 81.5269C28.784 81.4182 28.5668 81.1467 28.3495 80.8208C28.1323 80.495 28.078 80.2234 28.078 79.8976C27.915 78.3226 27.8064 76.0959 27.6978 73.1631C27.5892 70.2304 27.4806 68.2209 27.4262 67.0804L27.3719 66.3201C27.3719 65.777 27.3719 65.2882 27.3719 64.7451L27.3176 63.9848C27.4262 63.9848 27.6978 63.9304 28.1866 63.8218C28.6754 63.7132 29.0012 63.6046 29.1642 63.5503C29.5443 63.496 30.4133 63.4417 31.771 63.4417C33.346 63.4417 34.3236 63.5503 34.7581 63.6589C35.1926 63.8218 35.4098 64.0934 35.4098 64.4735C35.4098 64.6365 35.4641 65.0166 35.5727 65.5597C35.6814 66.1028 35.79 66.483 35.79 66.6459C35.79 67.2434 35.8986 68.3296 36.2245 69.9588C36.2245 70.1761 36.2788 70.6649 36.3874 71.3709C36.4417 72.0769 36.5503 72.6743 36.7132 73.2174L43.3934 72.8373Z" fill="white"/>
</svg>
