<svg width="361" height="182" viewBox="0 0 361 182" fill="none" xmlns="http://www.w3.org/2000/svg">
<rect x="0.5" y="31.5" width="90" height="120" fill="#F6C500"/>
<rect x="0.5" y="31.5" width="90" height="120" stroke="black"/>
<path d="M52.1717 99.56C52.4717 99.08 52.4717 98.84 52.2317 98.78C51.8717 98.78 51.5717 98.72 51.2717 98.72C50.6717 98.72 50.1317 98.78 49.6517 98.84C49.1117 98.96 48.5717 99.08 48.0917 99.32C47.8517 99.44 47.4917 99.56 47.0717 99.68C46.5917 99.86 46.1717 99.98 45.7517 100.1C45.2717 100.28 44.7917 100.4 44.3717 100.46C43.8917 100.58 43.5317 100.7 43.2917 100.7C43.0517 100.76 42.7517 100.88 42.2717 101C41.7917 101.18 41.2517 101.36 40.7717 101.48C40.2317 101.66 39.7517 101.78 39.3317 101.9C38.8517 102.08 38.4917 102.14 38.3117 102.14C37.8317 102.14 37.4717 101.9 37.2917 101.54C37.0517 101.18 36.8717 100.82 36.8117 100.34C36.8117 100.22 36.7517 99.92 36.7517 99.5C36.6917 99.14 36.6317 98.72 36.6317 98.24C36.5717 97.88 36.5117 97.46 36.5117 97.1C36.4517 96.74 36.4517 96.5 36.5117 96.32C36.5117 96.02 36.6917 95.84 37.0517 95.72C37.2917 95.66 37.5317 95.78 37.6517 96.02C37.8317 96.68 38.0717 97.1 38.4317 97.34C38.7317 97.58 39.4517 97.7 40.6517 97.7C40.8917 97.7 41.3717 97.7 42.0317 97.64C42.6317 97.64 43.2317 97.58 43.9517 97.46C44.5517 97.4 45.2117 97.34 45.8117 97.22C46.3517 97.22 46.7717 97.16 47.0117 97.04C47.8517 96.92 48.7517 96.8 49.8317 96.68C50.0117 96.68 50.3117 96.68 50.6717 96.68C50.9717 96.74 51.2717 96.8 51.6317 96.8C51.9917 96.86 52.3517 96.92 52.7717 96.92C52.8317 96.92 52.9517 96.92 53.0717 96.86C53.3117 96.8 53.5517 96.62 53.7917 96.32C54.0317 96.08 54.3917 96.02 54.8717 96.02C55.2917 96.14 55.7717 96.32 56.2517 96.56C56.3717 96.68 56.5517 96.74 56.7917 96.8C56.9717 96.92 57.1517 97.04 57.3917 97.16C57.5717 97.34 57.7517 97.52 57.9317 97.64C58.0517 97.82 58.0517 98 58.0517 98.24C57.9917 98.78 57.8717 99.32 57.6317 99.8C57.3917 100.34 56.7317 100.88 55.7117 101.48C54.6317 102.08 53.4917 102.5 52.2317 102.74C50.9117 102.98 49.7717 103.28 48.8717 103.58C48.5717 103.7 48.2117 103.76 47.8517 103.88C47.3717 104.06 46.8917 104.18 46.4117 104.3C45.4517 104.78 44.8517 105.08 44.6717 105.26C44.4317 105.44 44.4317 105.56 44.7317 105.62C44.9717 105.74 45.3917 105.8 45.9317 105.8C46.4117 105.86 46.8917 105.86 47.4917 105.86C47.9717 105.86 48.3917 105.86 48.6317 105.86C49.0517 105.86 49.3517 105.8 49.5317 105.62C49.6517 105.5 49.8917 105.32 50.1317 105.08C50.3117 104.9 50.6117 104.78 50.9717 104.66C51.2717 104.66 51.8117 104.66 52.5317 104.66C53.2517 104.72 53.7917 104.78 54.2717 104.9C54.6917 105.02 55.0517 105.14 55.3517 105.14C55.4717 105.14 55.5917 105.2 55.8317 105.32C56.0117 105.44 56.1917 105.62 56.3117 105.74C56.3717 105.98 56.3717 106.16 56.2517 106.4C56.1317 106.7 55.7717 107 55.2917 107.3C54.9317 107.54 54.3917 107.78 53.6717 108.08C52.9517 108.44 52.1717 108.74 51.3317 109.16C50.4317 109.52 49.5317 109.88 48.6317 110.3C47.6717 110.66 46.8317 110.96 46.1117 111.32C45.2717 111.62 44.6117 111.92 44.1317 112.16C43.5917 112.34 43.2917 112.46 43.1717 112.58C42.8117 112.76 42.7517 113 42.8717 113.24C42.9917 113.48 43.2317 113.6 43.7117 113.72C43.9517 113.72 44.3717 113.84 45.0317 114.08C45.6317 114.2 46.2917 114.44 47.0117 114.68C47.7317 114.86 48.3917 115.04 49.0517 115.28C49.6517 115.46 50.1317 115.58 50.4317 115.64C50.8517 115.7 51.3917 115.76 52.1117 115.76C52.7117 115.76 53.4317 115.7 54.1517 115.7C54.8117 115.64 55.4717 115.58 56.1317 115.52C56.7317 115.4 57.1517 115.34 57.5117 115.28C57.8717 115.16 58.2917 115.1 58.7717 115.04C59.1917 114.92 59.6717 114.86 60.1517 114.8C60.5717 114.68 60.9917 114.62 61.3517 114.62C61.7117 114.56 61.9517 114.56 62.1317 114.56C62.2517 114.56 62.5517 114.5 62.9717 114.5C63.3317 114.44 63.7517 114.44 64.1717 114.44C64.5317 114.44 64.8917 114.44 65.2517 114.5C65.4917 114.5 65.6117 114.62 65.6117 114.8C65.4917 115.16 65.6117 115.4 65.9117 115.58C66.1517 115.7 66.3917 115.76 66.6317 115.76C66.7517 115.76 66.9317 115.76 67.2317 115.82C67.4717 115.82 67.4717 116.06 67.1117 116.54C66.7517 116.96 66.3317 117.32 65.8517 117.56C65.3117 117.8 64.8317 117.92 64.3517 118.04C63.9917 118.1 63.4517 118.22 62.7317 118.4C61.9517 118.52 61.1717 118.64 60.3917 118.82C59.5517 118.94 58.7717 119.06 58.0517 119.18C57.2717 119.24 56.6717 119.3 56.3117 119.3C55.4117 119.3 54.3317 119.24 53.0117 119.18C51.6317 119.06 50.4317 118.88 49.4717 118.58C48.9317 118.4 48.3317 118.22 47.6717 117.98C46.9517 117.68 46.2317 117.44 45.6317 117.2C44.9117 116.96 44.3117 116.72 43.8317 116.54C43.2317 116.3 42.8717 116.18 42.6917 116.06C42.2117 115.88 41.7317 115.82 41.2517 115.94C40.7117 115.94 40.1117 116 39.4517 116C38.7317 116 38.1317 115.88 37.7117 115.7C37.2317 115.46 37.0517 114.98 37.1717 114.32C37.2317 113.6 37.3517 113 37.4717 112.4C37.5917 111.74 37.8917 111.44 38.4917 111.44C39.0317 111.44 39.5717 111.5 40.1117 111.62C40.5917 111.68 41.0717 111.62 41.5517 111.44C41.9717 111.2 42.5117 111.02 43.1117 110.9C43.6517 110.66 44.1917 110.42 44.7917 110.06C45.2717 109.7 45.5117 109.52 45.5117 109.46C45.5117 109.34 45.2117 109.28 44.6717 109.28C44.3117 109.28 43.8317 109.28 43.2317 109.28C42.5117 109.28 41.8517 109.22 41.2517 109.1C40.5317 108.98 39.9917 108.8 39.5117 108.56C39.0317 108.32 38.7917 107.96 38.9117 107.48C38.9117 107 38.9717 106.64 39.0317 106.4C39.0317 106.16 39.0917 105.98 39.2117 105.8C39.2717 105.68 39.3917 105.5 39.5717 105.38C39.6917 105.32 39.8717 105.14 40.1717 104.9C40.3517 104.78 40.7717 104.54 41.4917 104.24C42.1517 104 42.9317 103.76 43.8917 103.4C44.7317 103.1 45.6917 102.74 46.7117 102.32C47.6717 101.96 48.6317 101.6 49.4717 101.24C49.8317 101.06 50.3717 100.82 50.9717 100.52C51.5117 100.28 51.9317 99.92 52.1717 99.56ZM32.9117 82.1C33.0917 82.16 33.2717 82.16 33.4517 82.16C33.5717 82.22 33.7517 82.22 33.9917 82.22C34.7117 81.38 35.4917 80.42 36.2717 79.4C36.9917 78.44 37.7717 77.42 38.4917 76.22C38.6717 75.92 38.7317 75.68 38.6717 75.5C38.5517 75.38 38.3117 75.32 38.0117 75.38C37.6517 75.62 37.3517 75.8 37.1117 75.92C36.7517 76.1 36.4517 76.22 36.0917 76.34C35.8517 76.46 35.4917 76.58 35.0717 76.7C34.5917 76.94 34.2917 77.24 34.1117 77.6C33.9917 77.84 33.7517 78.02 33.4517 78.2C33.0917 78.44 32.7317 78.68 32.3717 78.86C31.8917 79.1 31.4717 79.22 30.9917 79.28C30.5117 79.4 30.0317 79.4 29.6117 79.28C29.1317 79.16 28.7117 78.98 28.2917 78.62C27.8117 78.32 27.3317 77.96 26.9117 77.6C26.4317 77.24 26.0717 76.88 25.7117 76.52C25.3517 76.22 25.0517 75.98 24.8117 75.8C24.3317 75.5 24.2117 75.26 24.3317 75.02C24.4517 74.84 24.6917 74.78 25.1117 74.84C25.2917 74.84 25.6517 74.9 26.1917 74.9C26.6717 74.96 27.1517 74.96 27.7517 74.96C28.2917 75.02 28.8317 75.02 29.4317 74.96C29.9717 74.96 30.4517 74.96 30.8117 74.84C31.2317 74.72 31.7117 74.66 32.3117 74.78C32.8517 74.9 33.2117 74.96 33.3917 74.96C33.5717 74.96 33.9317 74.84 34.4117 74.48C34.8317 74.18 35.3717 73.88 36.0917 73.64L39.2117 72.5C39.6917 72.38 40.0517 72.2 40.2917 71.84C40.2917 71.78 40.3517 71.66 40.4117 71.48C40.4117 71.36 40.5317 71.24 40.6517 71.12C40.7717 71 40.9517 70.94 41.1917 70.88C41.3717 70.88 41.7317 70.88 42.2117 71C43.1717 71.24 43.9517 71.54 44.6117 71.78C45.2117 72.08 45.7517 72.32 46.1117 72.5C46.2317 72.62 46.3517 72.74 46.4717 72.98C46.4717 73.22 46.4717 73.46 46.4717 73.7C46.4117 74 46.2917 74.3 46.1717 74.54C45.9917 74.84 45.7517 75.08 45.5117 75.2C44.9717 75.5 44.5517 75.86 44.1917 76.28C43.7717 76.76 43.4117 77.18 43.1117 77.6C41.7917 79.16 40.2317 80.84 38.4317 82.64C38.6117 82.7 38.8517 82.76 39.0917 82.76C39.3317 82.88 39.5717 82.94 39.8117 83C41.1317 83.48 42.3917 83.9 43.5317 84.26C44.6117 84.74 45.7517 85.52 47.0117 86.6C47.3717 86.96 47.7317 87.32 48.0917 87.56C48.3917 87.92 48.6917 88.22 48.9317 88.58C49.1717 88.94 49.3517 89.36 49.4717 89.78C49.5317 90.26 49.5317 90.8 49.4117 91.4C49.2917 92 49.1117 92.42 48.9317 92.66C48.6917 92.96 48.5117 93.14 48.2717 93.26C48.0317 93.38 47.7917 93.5 47.6117 93.5C47.3717 93.56 47.1317 93.68 47.0117 93.8C46.8317 93.98 46.5917 94.04 46.3517 94.04C46.0517 94.1 45.8117 94.1 45.5717 93.98C45.2717 93.92 45.0317 93.8 44.8517 93.56C44.6117 93.44 44.5517 93.2 44.6117 92.84C44.6117 92.6 44.6117 92.36 44.6117 92.12C44.5517 92 44.4917 91.82 44.4917 91.7C44.3717 91.58 44.3117 91.46 44.3117 91.28C44.2517 91.16 44.2517 91.04 44.3117 90.8C44.3717 90.38 44.4317 90.02 44.4917 89.78C44.4917 89.6 44.3117 89.36 44.0117 89C42.9917 87.92 41.9717 87.14 41.0117 86.6C39.9917 86.12 38.9117 85.64 37.7117 85.1C37.4117 85.04 37.1717 84.98 36.9317 84.92C36.6917 84.92 36.3917 84.86 36.1517 84.8C34.5917 86.24 33.0317 87.62 31.5317 88.94C29.9717 90.32 28.6517 91.52 27.5117 92.6C26.8517 93.2 26.1317 93.56 25.3517 93.74C24.5117 93.98 23.7917 94.04 23.3117 93.8C22.1717 93.32 21.4517 92.9 21.2117 92.54C21.0317 92.42 21.0317 92.18 21.1517 91.94C21.2717 91.7 21.4517 91.64 21.8117 91.7C22.1117 91.82 22.5917 91.88 23.1917 91.88C23.7917 91.94 24.3917 91.7 25.1117 91.1C26.1917 90.02 27.3317 88.94 28.4717 87.86C29.5517 86.9 30.5717 85.82 31.6517 84.74C31.3517 84.68 31.1117 84.56 30.9317 84.44C30.8117 84.38 30.7517 84.32 30.7517 84.26C30.7517 84.26 30.6317 84.26 30.3917 84.32C30.1517 84.38 29.9117 84.44 29.6717 84.44C29.3717 84.5 29.1317 84.5 28.9517 84.38C28.7117 84.26 28.6517 84.14 28.6517 84.02C28.6517 83.96 28.4717 83.9 28.2317 83.84C27.9317 83.84 27.6917 83.84 27.5117 83.84C27.2717 83.9 26.9717 83.9 26.6117 83.78C26.1917 83.72 25.9517 83.6 25.9517 83.42C25.8317 83.3 26.0717 83.18 26.6117 83C26.9717 82.88 27.5117 82.7 28.1117 82.52C28.6517 82.4 29.2517 82.34 29.8517 82.22C30.3917 82.16 30.9317 82.1 31.5317 82.04C32.0717 82.04 32.5517 82.1 32.9117 82.1ZM71.3117 81.5C71.3117 81.68 71.3717 81.86 71.4317 82.04C71.4317 82.28 71.4917 82.52 71.4917 82.7C71.4917 82.94 71.4317 83.12 71.3117 83.24C71.1317 83.42 70.8917 83.54 70.5917 83.6C69.9317 83.84 69.0917 83.9 68.1317 83.9C67.0517 83.9 66.2117 83.9 65.5517 83.78C65.2517 83.78 64.8317 83.78 64.2917 83.78C63.6917 83.84 63.1517 83.9 62.5517 83.9C61.9517 83.96 61.3517 84.02 60.8117 84.02C60.2117 84.14 59.7917 84.2 59.5517 84.2C59.4917 84.2 59.4917 84.2 59.4917 84.2C59.4317 84.26 59.3717 84.26 59.3717 84.26V84.5H59.3117C59.3117 85.1 59.2517 85.7 59.2517 86.24C59.1917 86.84 59.1317 87.26 59.1317 87.62C59.0717 88.1 58.9517 88.58 58.8317 89.12C58.5917 89.72 58.4117 90.26 58.1717 90.74C57.9317 91.34 57.6317 91.82 57.3917 92.24C57.0917 92.72 56.8517 93.02 56.6117 93.2C56.3717 93.44 56.0717 93.62 55.8317 93.74C55.4717 93.98 55.2317 94.1 54.9917 94.1C54.6917 94.22 54.5117 94.16 54.3917 94.04C54.2717 93.92 54.2717 93.68 54.4517 93.2C54.5717 92.9 54.6317 92.42 54.6917 91.76C54.6917 91.16 54.7517 90.38 54.8117 89.54C54.8117 88.76 54.8717 87.92 54.8717 87.02C54.8117 86.18 54.8117 85.34 54.8117 84.5H54.7517C54.6917 82.88 54.6917 81.44 54.6917 80.18C54.6317 78.98 54.6317 78.38 54.7517 78.26C54.8717 78.08 55.0517 77.96 55.2317 77.96C55.3517 78.02 55.4117 77.9 55.5317 77.6C55.5317 77.48 55.5317 77.3 55.4717 77.18C55.3517 77.06 55.2917 76.94 55.2317 76.76C55.1117 76.64 54.9917 76.4 54.9317 76.16C54.8117 75.98 54.8117 75.74 54.8717 75.38C54.9317 74.96 54.9917 74.48 54.9917 73.88C54.9917 73.4 54.9917 72.86 54.9917 72.32C54.9317 71.72 54.9317 71.24 54.9317 70.82C54.9317 70.46 54.9317 70.16 54.9917 69.86C54.9917 69.62 54.9917 69.38 54.9917 69.14C54.9917 68.96 54.9917 68.72 54.9917 68.48C54.8717 68.06 54.8717 67.58 54.8717 67.04C54.8117 66.56 54.5717 66.14 54.0917 65.72C53.6117 65.36 53.1917 65.12 52.8317 64.94C52.3517 64.82 51.9317 64.64 51.5717 64.4C51.3317 64.28 51.2117 64.16 51.2117 63.92C51.1517 63.74 51.2117 63.56 51.3317 63.32C51.3917 63.2 51.5717 63.02 51.8117 62.9C52.0517 62.84 52.3517 62.84 52.7717 62.9C53.0117 63.02 53.3717 63.14 53.9717 63.26C54.4517 63.44 55.0517 63.62 55.7117 63.8C56.3117 64.04 56.9717 64.22 57.6317 64.34C58.2317 64.52 58.7717 64.64 59.1317 64.7C59.6717 64.88 60.0917 65.06 60.4517 65.18C60.7517 65.42 60.8117 65.78 60.6317 66.38C60.3917 67.04 60.2117 67.7 60.0317 68.42C59.7917 69.14 59.6717 69.92 59.6717 70.7C59.6717 71.3 59.6717 71.9 59.6717 72.62C59.6117 73.34 59.6117 74.12 59.6117 74.84C59.6117 75.38 59.5517 76.34 59.4917 77.66C59.3717 79.04 59.3717 80.48 59.3717 82.04L60.5717 81.8C61.0517 81.68 61.4117 81.62 61.7717 81.5C62.0117 81.44 62.2517 81.38 62.4917 81.26C62.6117 81.26 62.7917 81.14 63.0317 81.02C63.1517 80.96 63.3917 80.84 63.6317 80.72C64.1117 80.48 64.5917 80.3 65.0717 80.12C65.4917 80 65.9717 79.94 66.4517 80.06C66.9917 80.18 67.5317 80.18 68.0717 80.06C68.5517 80 68.9117 79.94 69.2117 79.94C69.6917 79.94 70.1117 80.06 70.5917 80.3C70.9517 80.66 71.1917 81.02 71.3117 81.5Z" fill="white"/>
<rect x="90.5" y="0.5" width="90" height="120" fill="#F6C500"/>
<rect x="90.5" y="0.5" width="90" height="120" stroke="black"/>
<path d="M128.891 43C129.611 43.12 130.451 43.3 131.291 43.54C132.131 43.9 132.911 44.32 133.631 44.86C134.351 45.46 134.951 46.24 135.491 47.08C135.971 47.98 136.271 49 136.391 50.2C136.391 50.74 136.391 51.1 136.391 51.34C136.331 51.64 136.271 51.82 136.211 51.88C136.091 52 136.031 52.12 135.971 52.12C135.851 52.18 135.791 52.24 135.791 52.36C135.731 52.48 135.731 52.6 135.851 52.66C135.851 52.78 135.911 52.9 136.031 53.02C136.091 53.2 136.151 53.38 136.211 53.62C136.211 53.92 136.211 54.28 136.091 54.7C135.731 55.96 135.251 57.04 134.591 58C133.871 58.96 132.971 59.86 131.951 60.7C131.351 61.18 130.691 61.48 130.031 61.66C129.311 61.9 128.591 62.08 127.991 62.14C127.271 62.26 126.671 62.26 126.131 62.2C125.531 62.2 125.051 62.2 124.691 62.2C123.851 62.14 123.011 61.96 122.171 61.6C121.271 61.3 120.491 60.94 119.891 60.58C118.931 59.98 118.151 59.2 117.551 58.24C116.951 57.34 116.531 56.32 116.291 55.24C116.051 54.22 115.931 53.14 116.051 52.06C116.051 51.04 116.231 50.14 116.591 49.3C116.891 48.52 117.371 47.68 118.031 46.78C118.631 45.94 119.471 45.22 120.551 44.5C120.371 43.9 120.191 43.24 119.951 42.64C119.711 42.1 119.471 41.68 119.231 41.38C118.751 40.9 118.631 40.42 118.991 40.06C119.231 39.76 119.651 39.76 120.131 40.06C120.611 40.42 121.091 40.66 121.451 40.84C121.811 41.08 122.411 41.44 123.251 41.8C123.971 42.22 124.511 42.94 124.871 43.96C125.291 43.72 125.891 43.48 126.611 43.24C127.271 43.06 128.051 43 128.891 43ZM133.091 66.52C133.151 66.28 133.331 66.16 133.571 66.04C133.811 65.98 134.111 66.1 134.531 66.4C135.071 66.88 135.611 67.24 136.211 67.6C136.751 67.96 137.051 68.44 137.171 68.98C137.291 69.58 137.291 70.24 137.171 71.02C136.991 71.86 136.571 72.88 135.911 74.08C135.491 74.8 135.011 75.58 134.471 76.42C133.871 77.26 133.271 78.04 132.671 78.88C133.031 79 133.451 79.24 134.051 79.48C134.531 79.66 135.071 79.9 135.611 80.2C136.091 80.44 136.511 80.74 136.991 81.1C137.351 81.34 137.651 81.64 137.771 82C137.831 82.24 137.891 82.48 138.011 82.72C138.071 82.9 138.131 83.08 138.191 83.32C138.371 83.26 138.671 83.02 139.091 82.66C139.571 82.18 139.991 81.64 140.411 81.04C140.771 80.44 141.191 79.84 141.551 79.24C141.851 78.64 142.151 78.04 142.391 77.56C142.631 77.08 142.811 76.66 142.931 76.3C143.171 75.76 143.411 75.22 143.711 74.62C143.951 74.08 144.131 73.66 144.251 73.3C144.311 72.94 144.311 72.64 144.311 72.34C144.191 72.1 144.011 72.04 143.711 72.1C143.351 72.22 143.171 72.28 143.051 72.34C142.931 72.46 142.751 72.52 142.571 72.52C142.451 72.52 142.331 72.52 142.151 72.4C141.911 72.34 141.671 72.22 141.491 72.1C141.251 72.04 141.071 71.92 140.951 71.8C140.771 71.68 140.711 71.56 140.711 71.38C140.711 71.26 140.711 71.08 140.711 70.96C140.651 70.84 140.651 70.72 140.711 70.6C140.711 70.48 140.831 70.42 141.011 70.3C141.131 70.3 141.371 70.24 141.731 70.18C142.391 70.12 142.811 70 143.051 69.82C143.171 69.7 143.471 69.46 143.831 69.04C144.251 68.74 144.551 68.44 144.731 68.14C144.851 67.9 145.091 67.72 145.391 67.48L146.111 67.12C146.291 67.06 146.531 67 146.771 66.88C146.951 66.82 147.131 66.76 147.371 66.76L149.531 67C149.651 67 149.831 67.12 150.011 67.36C150.131 67.6 150.071 68.08 149.891 68.8C149.591 69.88 149.171 71.14 148.631 72.58C148.031 74.08 147.431 75.46 146.771 76.66L145.931 77.92C146.711 78.16 147.611 78.64 148.631 79.3C149.591 79.9 150.431 80.5 151.091 81.1C151.451 81.4 151.811 81.76 152.291 82.18C152.651 82.54 153.071 82.9 153.431 83.32C153.791 83.68 154.091 83.98 154.331 84.34C154.571 84.64 154.691 84.88 154.811 85.12C154.931 85.48 154.991 85.84 154.871 86.2C154.751 86.56 154.391 86.68 153.911 86.56C153.431 86.44 153.011 86.38 152.711 86.38C152.351 86.26 152.051 86.32 151.811 86.56C151.571 86.68 151.271 86.8 151.031 86.92C150.671 86.92 150.311 86.68 149.831 86.2C149.591 85.96 149.351 85.48 149.051 84.88C148.691 84.22 148.271 83.56 147.911 82.84C147.431 82.12 147.011 81.4 146.531 80.74C145.991 80.02 145.511 79.48 145.031 79.12L143.411 81.22C143.291 81.34 143.111 81.58 142.871 81.94C142.571 82.24 142.271 82.6 142.031 82.96C141.671 83.32 141.371 83.62 141.071 83.98C140.711 84.28 140.471 84.52 140.351 84.64C139.631 85.3 139.031 85.9 138.611 86.44C138.491 86.5 138.431 86.62 138.311 86.8C138.191 86.92 138.011 87.1 137.831 87.28C137.651 87.52 137.471 87.64 137.291 87.58C136.811 87.76 136.511 87.46 136.511 86.74C136.031 85.9 135.371 84.88 134.471 83.74C133.511 82.54 132.551 81.58 131.471 80.86L131.231 80.68L129.671 82.42C128.471 83.56 127.331 84.52 126.251 85.36C125.171 86.08 124.091 86.56 123.071 86.8C122.531 86.92 122.111 86.98 121.811 87.04C121.451 87.04 121.091 87.1 120.851 87.1C120.551 87.1 120.311 87.04 120.071 86.98C119.771 86.86 119.471 86.8 119.231 86.68C118.631 86.32 118.451 86.08 118.691 85.96C118.811 85.72 119.231 85.66 119.891 85.66C120.491 85.66 121.151 85.6 121.931 85.48C122.651 85.36 123.371 85.06 124.211 84.64C125.231 84.04 126.131 83.26 126.971 82.24C127.691 81.16 128.351 80.14 128.951 79.12L124.991 76.6C124.631 76.42 124.451 76.18 124.451 75.82C124.391 75.52 124.691 75.46 125.291 75.7C125.771 75.94 126.371 76.18 127.211 76.48C127.931 76.84 128.771 77.26 129.731 77.62C130.451 76.12 130.991 74.74 131.351 73.48C131.651 72.28 131.951 71.32 132.191 70.6C132.431 69.82 132.611 68.98 132.791 68.14C132.911 67.36 132.971 66.82 133.091 66.52ZM152.891 44.5C152.831 44.86 152.771 45.28 152.771 45.82C152.711 46.42 152.711 47.02 152.711 47.62C152.651 48.28 152.651 48.88 152.651 49.42C152.591 50.02 152.591 50.5 152.591 50.8L152.651 54.22H152.591C152.591 54.94 152.591 55.66 152.591 56.32C152.531 57.04 152.471 57.58 152.411 58C152.351 58.48 152.231 58.96 152.111 59.5C151.871 60.1 151.691 60.7 151.451 61.18C151.151 61.78 150.911 62.26 150.671 62.68C150.371 63.16 150.131 63.52 149.891 63.7C149.651 63.94 149.351 64.12 149.111 64.24C148.751 64.48 148.511 64.6 148.271 64.6C147.971 64.72 147.791 64.66 147.671 64.54C147.551 64.42 147.551 64.18 147.731 63.7C147.851 63.34 147.911 62.8 148.031 62.08C148.031 61.36 148.091 60.58 148.091 59.62C148.091 58.78 148.091 57.82 148.091 56.86C148.031 55.96 148.031 55.06 148.031 54.22C148.031 53.44 148.031 52.66 148.031 51.88C147.971 51.16 147.971 50.5 147.971 49.9C147.971 49.36 147.971 48.88 147.971 48.52C147.971 48.16 147.971 47.98 148.031 47.92C148.151 47.8 148.331 47.68 148.511 47.68C148.631 47.68 148.691 47.56 148.811 47.26C148.811 47.14 148.811 46.96 148.751 46.84C148.631 46.72 148.571 46.6 148.511 46.42C148.391 46.3 148.271 46.12 148.211 45.88C148.091 45.7 148.091 45.46 148.151 45.1C148.211 44.68 148.271 44.2 148.271 43.6C148.271 43.12 148.271 42.58 148.271 41.98C148.151 40.84 148.151 39.94 148.271 39.22C148.271 38.62 148.271 38.02 148.271 37.42C148.151 37 148.151 36.52 148.151 35.98C148.091 35.5 147.851 35.08 147.371 34.66C146.891 34.3 146.471 34.06 146.111 33.88C145.631 33.76 145.211 33.58 144.851 33.34C144.611 33.22 144.491 33.1 144.491 32.86C144.431 32.68 144.491 32.5 144.611 32.26C144.671 32.14 144.851 31.96 145.091 31.84C145.331 31.78 145.631 31.78 146.051 31.9C146.291 32.02 146.651 32.14 147.251 32.26C147.731 32.44 148.331 32.62 148.991 32.74C149.591 32.98 150.251 33.16 150.911 33.28C151.511 33.52 152.051 33.64 152.411 33.7C152.951 33.82 153.371 34 153.731 34.12C154.031 34.36 154.091 34.72 153.911 35.32C153.671 35.98 153.491 36.64 153.311 37.36C153.071 38.08 152.951 38.86 152.951 39.7C152.951 40.3 152.951 41.02 152.951 41.98C152.891 42.94 152.891 43.78 152.891 44.5ZM124.031 47.62C123.191 48.46 122.471 48.7 121.871 48.4C121.511 48.4 121.271 48.52 121.091 48.64C120.851 48.88 120.611 49.12 120.491 49.36C120.311 49.72 120.191 50.02 120.131 50.32C120.011 50.68 119.891 51.04 119.891 51.34C119.771 52.06 119.771 52.72 119.891 53.38C119.891 54.1 120.071 54.7 120.371 55.3C120.611 55.9 120.971 56.44 121.571 56.92C122.111 57.4 122.831 57.76 123.791 58C124.931 58.36 125.951 58.42 126.791 58.18C127.571 58.06 128.351 57.76 129.191 57.4C130.271 56.5 130.991 55.48 131.351 54.4C131.711 53.38 131.891 52.24 132.011 50.92C132.071 49.6 131.771 48.4 131.051 47.32C130.331 46.36 129.311 45.7 128.051 45.4C127.571 45.34 127.091 45.28 126.551 45.28C125.951 45.34 125.471 45.34 125.051 45.34C125.051 45.82 124.931 46.18 124.811 46.54C124.631 46.96 124.391 47.32 124.031 47.62Z" fill="white"/>
<rect x="180.5" y="31.5" width="90" height="120" fill="#F6C500"/>
<rect x="180.5" y="31.5" width="90" height="120" stroke="black"/>
<path d="M218.711 80C219.491 80.12 220.331 80.24 221.231 80.48C222.071 80.78 222.851 81.2 223.631 81.74C224.351 82.34 225.011 83 225.551 83.84C226.031 84.74 226.271 85.82 226.391 87.02C226.391 87.62 226.391 87.98 226.391 88.22C226.331 88.46 226.271 88.64 226.271 88.76C226.151 88.88 226.091 89 226.031 89C225.911 89.06 225.791 89.12 225.791 89.24C225.731 89.36 225.731 89.48 225.791 89.48C225.791 89.6 225.851 89.66 225.971 89.78C225.971 89.9 226.031 90.08 226.091 90.26C226.091 90.5 226.091 90.86 225.971 91.22C225.611 92.36 225.191 93.56 224.651 94.76C224.051 96.08 223.151 97.1 222.011 97.88C221.411 98.36 220.691 98.72 219.971 98.9C219.191 99.14 218.471 99.32 217.751 99.38C216.971 99.5 216.311 99.5 215.711 99.5C215.051 99.5 214.571 99.5 214.211 99.5C213.251 99.38 212.351 99.14 211.511 98.78C210.551 98.48 209.771 98.18 209.111 97.82C207.911 97.22 207.071 96.38 206.471 95.3C205.871 94.28 205.451 93.2 205.271 92.06C205.031 90.98 205.031 89.84 205.151 88.76C205.271 87.74 205.451 86.9 205.811 86.18C206.111 85.4 206.591 84.56 207.311 83.66C207.911 82.82 208.811 82.1 209.891 81.38C209.651 80.78 209.471 80.12 209.231 79.52C208.991 78.98 208.751 78.56 208.511 78.26C208.271 78.02 208.091 77.78 208.091 77.54C208.031 77.3 208.091 77.12 208.211 76.94C208.331 76.82 208.511 76.7 208.751 76.64C208.931 76.64 209.171 76.76 209.471 76.94C209.711 77.12 209.951 77.24 210.191 77.36C210.371 77.54 210.611 77.66 210.851 77.78C211.091 77.9 211.331 78.02 211.691 78.14C211.931 78.32 212.291 78.5 212.771 78.68C213.131 78.92 213.431 79.22 213.731 79.58C213.971 80 214.211 80.42 214.391 80.9C214.871 80.72 215.471 80.48 216.251 80.24C216.971 80.06 217.751 80 218.711 80ZM227.891 87.98C226.931 87.86 226.511 87.56 226.511 87.2C226.451 86.9 226.691 86.72 227.291 86.6C227.531 86.6 227.771 86.54 228.011 86.48C228.131 86.48 228.371 86.48 228.611 86.42C228.851 86.42 229.151 86.36 229.511 86.3C229.811 86.3 230.291 86.3 230.891 86.3C231.551 86.3 232.571 86.18 233.951 85.94C235.271 85.7 236.651 85.46 237.971 85.1C237.911 83.48 237.911 82.04 237.911 80.78C237.911 79.58 237.911 78.98 238.031 78.86C238.151 78.74 238.331 78.62 238.511 78.62C238.631 78.62 238.691 78.5 238.811 78.2C238.811 78.08 238.811 77.9 238.751 77.78C238.631 77.66 238.571 77.54 238.511 77.36C238.391 77.24 238.271 77.06 238.211 76.82C238.091 76.64 238.091 76.4 238.151 76.04C238.211 75.62 238.271 75.14 238.271 74.54C238.211 74.06 238.211 73.52 238.211 72.92C238.151 71.72 238.151 70.82 238.271 70.16C238.271 69.56 238.271 69.02 238.211 68.42C238.151 68 238.151 67.52 238.151 66.98C238.091 66.5 237.851 66.08 237.371 65.66C236.891 65.3 236.471 65.06 236.051 64.88C235.571 64.76 235.211 64.58 234.851 64.34C234.611 64.22 234.491 64.1 234.491 63.86C234.431 63.68 234.491 63.5 234.611 63.26C234.671 63.14 234.851 62.96 235.091 62.84C235.331 62.78 235.631 62.78 236.051 62.9C236.231 63.02 236.591 63.08 237.191 63.2C237.671 63.38 238.271 63.56 238.991 63.68C239.591 63.92 240.251 64.1 240.911 64.22C241.511 64.4 241.991 64.52 242.411 64.58C242.951 64.76 243.371 64.94 243.731 65.06C244.031 65.3 244.091 65.66 243.911 66.26C243.671 66.92 243.491 67.58 243.311 68.3C243.071 69.08 242.951 69.86 242.951 70.7C242.951 71.24 242.891 71.96 242.891 72.92C242.831 73.88 242.831 74.72 242.831 75.44C242.831 75.8 242.771 76.22 242.771 76.76C242.711 77.36 242.711 78.02 242.711 78.62C242.651 79.28 242.651 79.88 242.651 80.42C242.591 81.02 242.591 81.5 242.591 81.8C242.591 82.46 242.591 83 242.651 83.48C242.651 84.02 242.651 84.5 242.651 84.98C242.651 85.52 242.651 86.06 242.711 86.6C242.711 87.2 242.711 87.92 242.711 88.7C242.711 89.3 242.711 89.96 242.771 90.68C242.771 91.46 242.771 92.18 242.771 92.9C242.771 93.68 242.771 94.4 242.771 95.06C242.711 95.78 242.711 96.44 242.711 96.92C242.591 99.08 242.591 100.82 242.591 102.26C242.531 103.76 242.531 104.78 242.531 105.32C242.531 106.28 242.411 107.3 242.291 108.44C242.051 109.58 241.871 110.72 241.631 111.8C241.331 112.88 241.031 113.84 240.791 114.74C240.431 115.58 240.191 116.24 239.951 116.6C239.711 116.96 239.411 117.38 239.171 117.8C238.811 118.16 238.571 118.4 238.331 118.58C238.031 118.7 237.851 118.64 237.731 118.4C237.611 118.1 237.611 117.5 237.791 116.6C237.911 115.7 238.031 114.32 238.151 112.46C238.151 110.54 238.211 108.5 238.271 106.28C238.271 104.12 238.271 101.96 238.271 99.8C238.211 97.7 238.211 95.96 238.211 94.64C238.271 93.68 238.271 92.72 238.211 91.7C238.091 90.74 238.091 89.54 238.091 88.16C237.851 88.28 237.611 88.4 237.371 88.46C237.071 88.58 236.831 88.7 236.591 88.7C236.231 88.82 235.811 88.88 235.271 89C234.671 89.18 234.131 89.3 233.591 89.42C232.991 89.54 232.511 89.66 232.031 89.66C231.491 89.78 231.131 89.72 230.891 89.6C230.651 89.48 230.471 89.36 230.351 89.18C230.111 89.06 229.931 88.88 229.751 88.7C229.511 88.58 229.271 88.4 229.031 88.22C228.671 88.1 228.311 88.04 227.891 87.98ZM213.551 84.56C213.011 85.04 212.591 85.28 212.231 85.34C211.811 85.46 211.451 85.46 211.211 85.34C210.611 85.4 210.131 85.76 209.831 86.42C209.471 87.14 209.231 87.74 209.171 88.34C209.051 89.06 209.051 89.72 209.111 90.38C209.111 91.1 209.291 91.7 209.591 92.3C209.831 92.9 210.191 93.44 210.791 93.92C211.331 94.4 212.111 94.76 213.071 95C214.271 95.36 215.351 95.42 216.431 95.3C217.391 95.18 218.351 94.94 219.251 94.58C220.391 93.68 221.111 92.66 221.471 91.46C221.771 90.38 221.951 89.12 222.071 87.8C222.131 86.42 221.771 85.22 221.051 84.14C220.271 83.12 219.251 82.46 217.931 82.22C217.451 82.16 216.911 82.16 216.311 82.16C215.651 82.22 215.111 82.22 214.631 82.22C214.631 83.18 214.271 83.96 213.551 84.56Z" fill="white"/>
<rect x="270.5" y="61.5" width="90" height="120" fill="#F6C500"/>
<rect x="270.5" y="61.5" width="90" height="120" stroke="black"/>
<path d="M341.612 121.1C341.612 121.46 341.672 121.88 341.672 122.3C341.672 122.78 341.312 123.08 340.652 123.2C339.992 123.32 339.152 123.32 338.192 123.2C337.172 123.08 336.332 122.96 335.612 122.78C335.312 122.78 334.892 122.72 334.352 122.66C333.752 122.66 333.212 122.66 332.612 122.66C332.012 122.66 331.412 122.66 330.872 122.66C330.272 122.72 329.852 122.72 329.612 122.72H329.492C329.492 123.56 329.492 124.28 329.492 125C329.432 125.72 329.432 126.38 329.432 126.92C329.312 129.08 329.312 130.82 329.312 132.26C329.252 133.76 329.252 134.78 329.252 135.32C329.252 136.28 329.132 137.3 329.012 138.44C328.772 139.58 328.592 140.72 328.352 141.8C328.052 142.88 327.752 143.84 327.512 144.74C327.152 145.58 326.912 146.24 326.672 146.6C326.432 146.96 326.132 147.38 325.892 147.8C325.532 148.16 325.292 148.4 325.052 148.58C324.752 148.7 324.572 148.64 324.452 148.4C324.332 148.1 324.332 147.5 324.512 146.6C324.632 145.7 324.752 144.32 324.872 142.46C324.872 140.54 324.932 138.5 324.992 136.28C324.992 134.12 324.992 131.96 324.992 129.8C324.932 127.7 324.932 125.96 324.932 124.64C324.992 123.62 324.992 122.54 324.932 121.46C324.812 120.38 324.812 119.12 324.812 117.56C324.752 116.6 324.752 115.58 324.752 114.5C324.692 113.48 324.692 112.52 324.692 111.68C324.692 110.9 324.692 110.24 324.692 109.7C324.692 109.22 324.692 108.92 324.752 108.86C324.872 108.74 325.052 108.62 325.232 108.62C325.352 108.62 325.412 108.5 325.532 108.2C325.532 108.08 325.532 107.9 325.472 107.78C325.352 107.66 325.292 107.54 325.232 107.36C325.112 107.24 324.992 107.06 324.932 106.82C324.812 106.64 324.812 106.4 324.872 106.04C324.932 105.62 324.992 105.14 324.992 104.54C324.932 104.06 324.932 103.52 324.932 102.92C324.872 101.72 324.872 100.82 324.992 100.16C324.992 99.56 324.992 99.02 324.932 98.42C324.872 98 324.872 97.52 324.872 96.98C324.812 96.5 324.572 96.08 324.092 95.66C323.612 95.3 323.192 95.06 322.772 94.88C322.292 94.76 321.932 94.58 321.572 94.34C321.332 94.22 321.212 94.1 321.212 93.86C321.152 93.68 321.212 93.5 321.332 93.26C321.392 93.14 321.572 92.96 321.812 92.84C322.052 92.78 322.352 92.78 322.772 92.9C322.952 93.02 323.312 93.08 323.912 93.2C324.392 93.38 324.992 93.56 325.712 93.68C326.312 93.92 326.972 94.1 327.632 94.22C328.232 94.4 328.712 94.52 329.132 94.58C329.672 94.76 330.092 94.94 330.452 95.06C330.752 95.3 330.812 95.66 330.632 96.26C330.392 96.92 330.212 97.58 330.032 98.3C329.792 99.08 329.672 99.86 329.672 100.7C329.672 101.24 329.612 101.96 329.612 102.92C329.552 103.88 329.552 104.72 329.552 105.44C329.552 105.8 329.492 106.22 329.492 106.76C329.432 107.36 329.432 108.02 329.432 108.62C329.372 109.28 329.372 109.88 329.372 110.42C329.312 111.02 329.312 111.5 329.312 111.8C329.312 112.46 329.312 113 329.372 113.48C329.372 114.02 329.372 114.5 329.372 114.98C329.372 115.52 329.372 116.06 329.432 116.6C329.432 117.2 329.432 117.92 329.432 118.7V120.62L330.932 120.44C331.412 120.38 331.772 120.32 332.132 120.2C332.372 120.2 332.612 120.14 332.852 120.02C333.032 120.02 333.212 119.96 333.452 119.84C333.572 119.84 333.812 119.72 334.052 119.6C334.592 119.42 335.072 119.24 335.552 119.12C335.912 119 336.392 119.06 336.932 119.24C337.412 119.48 337.892 119.48 338.492 119.36C338.972 119.3 339.392 119.3 339.692 119.3C340.112 119.36 340.532 119.54 340.952 119.84C341.312 120.2 341.552 120.62 341.612 121.1ZM302.852 131.06C304.292 130.94 305.732 130.82 307.292 130.64C308.732 130.52 310.232 130.16 311.732 129.56C312.212 129.44 312.812 129.08 313.472 128.6C314.072 128.12 314.492 127.52 314.732 126.68L315.632 122.96C315.692 122.72 315.812 122.48 315.992 122.24C316.112 122.06 316.292 122.24 316.472 122.84C316.652 123.44 316.712 123.86 316.712 124.1C316.592 124.4 316.652 124.64 316.892 124.76C317.012 124.94 317.192 125 317.432 124.88C317.612 124.88 317.732 125 317.852 125.3C317.852 125.66 317.972 125.9 318.152 126.02C318.272 126.2 318.452 126.26 318.572 126.2C318.932 126.2 319.232 126.5 319.352 127.1C319.352 127.34 319.412 127.52 319.652 127.64C319.772 127.88 319.892 128.12 320.012 128.48C320.012 128.9 319.892 129.38 319.532 129.86C319.112 130.4 318.692 130.82 318.212 131.12C317.612 131.54 316.772 131.9 315.572 132.2C314.372 132.56 313.232 132.8 312.152 132.98C310.592 133.22 309.032 133.4 307.412 133.52C305.732 133.7 304.112 133.76 302.552 133.76C301.652 133.76 300.812 133.7 300.092 133.52C299.252 133.4 298.592 133.16 298.052 132.74C297.452 132.38 297.032 131.9 296.732 131.18C296.372 130.52 296.192 129.62 296.252 128.48C296.252 126.56 296.372 124.88 296.492 123.44C296.552 122.06 296.612 121.16 296.612 120.68V120.5C296.372 120.38 296.192 120.32 296.012 120.2C295.772 120.2 295.652 120.08 295.592 119.96C295.472 119.9 295.412 119.78 295.532 119.66C295.592 119.6 295.832 119.48 296.252 119.3C296.132 119.12 295.952 118.88 295.832 118.64C295.652 118.46 295.472 118.28 295.292 118.04C294.692 117.62 294.392 117.26 294.392 116.9C294.332 116.66 294.692 116.54 295.412 116.6C296.132 116.72 296.852 116.9 297.632 117.14C298.352 117.44 299.012 117.74 299.612 118.1C299.612 118.16 299.612 118.16 299.732 118.16C300.632 117.92 301.532 117.62 302.372 117.38C303.152 117.14 303.812 116.96 304.412 116.72C305.072 116.48 305.552 116.18 305.912 115.88C306.212 115.64 306.512 115.16 306.812 114.32C307.052 113.6 307.412 112.7 307.772 111.62C308.132 110.66 308.312 109.88 308.432 109.28C308.432 109.1 308.492 108.86 308.492 108.62C308.492 108.44 308.432 108.26 308.432 108.08C308.312 107.96 308.192 107.84 308.012 107.78C307.772 107.78 307.472 107.9 307.112 108.02C306.752 108.2 306.152 108.38 305.372 108.62C304.532 108.92 303.752 109.22 302.912 109.46C302.072 109.76 301.292 110 300.572 110.24C299.852 110.54 299.372 110.78 299.132 110.9C298.652 111.26 298.112 111.56 297.452 111.8C296.732 112.1 296.132 112.1 295.712 111.8C295.232 111.56 294.872 111.2 294.632 110.84C294.392 110.54 294.092 110.18 293.792 109.7C293.432 109.28 293.372 108.98 293.552 108.8C293.672 108.68 294.032 108.56 294.512 108.5C294.932 108.5 295.472 108.44 296.192 108.32C296.852 108.26 297.572 108.14 298.412 107.9C298.652 107.84 299.312 107.66 300.272 107.36C301.232 107.12 302.252 106.82 303.332 106.46C304.412 106.16 305.432 105.86 306.392 105.5C307.352 105.26 307.952 105.02 308.312 104.9C309.512 104.3 310.592 104.18 311.612 104.6C312.152 104.84 312.752 105.08 313.412 105.38C314.012 105.74 314.432 106.1 314.612 106.4C314.792 106.76 314.912 107.06 314.912 107.3C314.852 107.6 314.852 107.96 314.912 108.32C314.912 108.68 314.732 109.1 314.372 109.58C313.952 110.06 313.652 110.42 313.412 110.6C313.292 110.72 313.112 110.9 312.932 111.2C312.692 111.56 312.452 111.92 312.212 112.28C311.972 112.7 311.732 113.12 311.492 113.48C311.252 113.9 311.012 114.26 310.892 114.5C310.652 114.86 310.592 115.04 310.772 115.1C310.892 115.22 311.132 115.22 311.432 115.22C311.612 115.22 311.852 115.16 312.212 115.16C312.512 115.16 312.752 115.4 312.872 115.82C312.932 116.3 312.872 116.6 312.692 116.84C312.452 117.14 312.152 117.44 311.852 117.68C311.492 118.04 311.072 118.22 310.592 118.22C310.052 118.28 309.452 118.4 308.792 118.52C307.772 118.76 306.632 119 305.372 119.24C304.052 119.54 303.032 119.84 302.312 120.14C302.072 120.26 301.892 120.32 301.772 120.44C301.532 120.56 301.352 120.68 301.232 120.74C301.112 121.1 301.052 121.46 301.052 121.7C300.932 122 300.812 122.3 300.692 122.6C300.452 123.08 300.272 123.74 300.152 124.7C299.972 125.72 299.852 126.62 299.732 127.46C299.612 128.06 299.612 128.6 299.672 129.02C299.672 129.5 299.852 129.92 300.092 130.16C300.272 130.52 300.572 130.76 301.052 130.88C301.472 131.06 302.072 131.12 302.852 131.06Z" fill="white"/>
</svg>
