<svg width="181" height="121" viewBox="0 0 181 121" fill="none" xmlns="http://www.w3.org/2000/svg">
<rect x="90.5" y="0.5" width="90" height="120" fill="#F6C500"/>
<rect x="90.5" y="0.5" width="90" height="120" stroke="black"/>
<path d="M137.171 54.88C136.211 54.76 135.731 54.52 135.611 54.16C135.431 53.8 135.611 53.62 136.211 53.5C136.451 53.5 136.691 53.44 136.931 53.44C137.111 53.44 137.351 53.44 137.591 53.38C137.831 53.38 138.131 53.38 138.491 53.32C138.851 53.32 139.331 53.32 139.991 53.2C140.231 53.2 140.711 53.14 141.371 53.08C141.971 53.08 142.751 53.02 143.591 52.9C144.371 52.84 145.211 52.72 146.171 52.6C147.011 52.54 147.851 52.42 148.691 52.18V51.1C148.691 50.98 148.691 50.74 148.691 50.38C148.631 50.14 148.631 49.78 148.631 49.42C148.631 49.12 148.631 48.82 148.691 48.52C148.691 48.28 148.751 48.1 148.871 47.98C148.991 47.8 149.111 47.68 149.291 47.68C149.411 47.74 149.531 47.62 149.651 47.32C149.651 47.2 149.651 47.02 149.591 46.9C149.471 46.78 149.351 46.66 149.291 46.48C149.171 46.36 149.051 46.12 148.991 45.88C148.871 45.7 148.871 45.46 148.991 45.1C149.051 44.68 149.111 44.2 149.111 43.6C149.051 43.12 149.051 42.58 149.051 42.04C148.991 40.84 148.991 39.94 149.051 39.22C149.051 38.62 149.051 38.02 149.051 37.48C148.991 37.06 148.931 36.58 148.931 36.04C148.871 35.56 148.631 35.14 148.211 34.72C147.731 34.36 147.251 34.12 146.891 33.94C146.411 33.82 146.051 33.64 145.691 33.4C145.451 33.28 145.331 33.16 145.331 32.92C145.271 32.74 145.271 32.56 145.391 32.32C145.451 32.2 145.631 32.02 145.871 31.9C146.111 31.84 146.411 31.84 146.891 31.9C147.071 32.02 147.431 32.14 148.031 32.26C148.511 32.44 149.111 32.62 149.771 32.8C150.371 33.04 151.031 33.22 151.691 33.34C152.291 33.52 152.831 33.64 153.191 33.7C153.731 33.88 154.151 34.06 154.511 34.18C154.811 34.42 154.871 34.78 154.691 35.38C154.451 36.04 154.271 36.7 154.091 37.42C153.851 38.2 153.731 38.98 153.731 39.76C153.731 40.36 153.731 41.08 153.731 41.98C153.671 42.94 153.671 43.84 153.671 44.56C153.671 44.92 153.611 45.34 153.611 45.88C153.551 46.48 153.491 47.14 153.491 47.74C153.431 48.4 153.431 49 153.431 49.54C153.371 50.14 153.371 50.62 153.371 50.92C153.371 52.18 153.371 53.32 153.371 54.4C153.311 55.48 153.311 56.56 153.311 57.64C153.191 59.14 153.191 60.4 153.191 61.36C153.131 62.44 153.131 63.16 153.131 63.52C153.131 64.18 153.011 64.9 152.891 65.68C152.651 66.52 152.471 67.3 152.231 68.02C151.931 68.86 151.631 69.58 151.391 70.18C151.031 70.84 150.791 71.26 150.551 71.5C150.311 71.8 150.011 72.04 149.771 72.28C149.411 72.58 149.171 72.76 148.931 72.82C148.631 72.94 148.451 72.94 148.331 72.7C148.211 72.58 148.211 72.16 148.391 71.5C148.511 70.9 148.631 69.94 148.751 68.56C148.811 67.24 148.871 65.8 148.931 64.24C148.931 62.74 148.931 61.24 148.931 59.68C148.871 58.24 148.871 56.98 148.871 56.02V54.7C148.271 55 147.671 55.24 147.131 55.42C146.531 55.66 145.931 55.84 145.391 55.9C145.031 56.02 144.551 56.08 144.071 56.2C143.531 56.32 142.991 56.44 142.511 56.5C141.971 56.62 141.491 56.62 141.071 56.62C140.591 56.68 140.231 56.62 139.991 56.5C139.751 56.38 139.571 56.26 139.451 56.08C139.271 55.96 139.091 55.78 138.971 55.6C138.731 55.48 138.551 55.3 138.311 55.12C138.011 55 137.651 54.94 137.171 54.88ZM130.571 48.34C130.931 47.8 131.231 47.38 131.351 47.14C131.471 46.96 131.531 46.78 131.651 46.66C131.951 46.06 132.011 45.7 131.891 45.46C131.651 45.34 131.291 45.34 130.811 45.52C129.791 45.88 129.011 46.12 128.411 46.36C127.751 46.6 127.271 46.78 126.971 46.9C126.071 47.26 125.111 47.62 124.151 48.04C123.131 48.52 122.231 48.82 121.391 48.82C120.071 48.82 118.991 48.64 118.091 48.22C117.131 47.86 116.351 47.56 115.811 47.32C115.631 47.26 115.511 47.14 115.451 46.9C115.331 46.72 115.271 46.54 115.331 46.3C115.331 46.18 115.451 46 115.631 45.82C115.751 45.7 115.931 45.7 116.291 45.7C116.531 45.76 116.831 45.76 117.191 45.76C117.551 45.76 117.911 45.76 118.331 45.7C118.691 45.7 119.111 45.7 119.531 45.64C119.891 45.64 120.251 45.64 120.491 45.58C120.971 45.52 121.631 45.4 122.411 45.16C123.131 45.04 123.911 44.86 124.751 44.62C125.591 44.44 126.431 44.2 127.271 43.96C128.051 43.72 128.771 43.54 129.491 43.3C129.611 43.3 129.851 43.18 130.151 43.06C130.391 42.94 130.511 42.88 130.631 42.82C131.471 42.52 132.191 42.28 132.671 42.1C133.091 41.98 133.391 41.8 133.631 41.5C133.751 41.26 133.991 41.02 134.351 40.72C134.591 40.48 135.131 40.54 135.971 40.9C136.991 41.38 137.771 41.86 138.371 42.34C138.911 42.94 139.091 43.48 138.911 44.08C138.611 44.74 138.191 45.4 137.711 46.06C137.111 46.78 136.391 47.68 135.551 48.64C135.071 49.24 134.531 49.84 133.931 50.44C133.331 51.16 132.731 51.82 132.131 52.42C131.471 53.14 130.871 53.74 130.331 54.34C129.731 55 129.191 55.54 128.831 55.9C127.871 56.86 126.791 57.88 125.591 58.84C124.391 59.86 123.191 60.82 122.051 61.66C120.851 62.62 119.711 63.4 118.751 64.12C117.671 64.84 116.891 65.44 116.291 65.8C115.691 66.16 115.271 66.22 115.031 66.1C114.731 66.04 114.551 65.86 114.491 65.5C114.371 65.2 114.491 64.9 114.731 64.54C114.911 64.3 115.211 63.88 115.691 63.4C116.171 62.92 116.711 62.32 117.431 61.48C118.091 60.76 118.691 60.1 119.171 59.5C119.591 58.96 120.011 58.66 120.491 58.66C120.911 58.72 121.211 58.66 121.451 58.54C121.511 58.48 121.751 58.18 122.111 57.7C122.411 57.22 122.771 56.74 123.251 56.14C123.611 55.6 124.031 55.06 124.451 54.52C124.811 54.04 125.051 53.68 125.231 53.56C125.351 53.44 125.531 53.44 125.651 53.44C125.711 53.5 125.771 53.5 125.891 53.5C125.951 53.56 126.071 53.56 126.191 53.44C126.311 53.44 126.431 53.2 126.671 52.84C127.031 52.12 127.331 51.52 127.511 51.1C127.631 50.74 128.051 50.44 128.651 50.2C129.251 49.96 129.671 49.6 129.971 49.24C130.211 48.94 130.391 48.64 130.571 48.34ZM136.811 68.92C137.111 68.92 137.411 69.1 137.651 69.34C137.831 69.64 137.771 70 137.531 70.42C137.411 70.66 137.231 70.9 137.051 71.26C136.811 71.68 136.631 72.1 136.451 72.46C136.211 72.94 135.971 73.3 135.851 73.66C135.611 74.08 135.491 74.38 135.431 74.56C135.371 74.8 135.311 75.22 135.251 75.82C135.131 76.42 135.011 77.08 135.011 77.74C134.951 78.4 134.951 79.06 135.011 79.72C135.011 80.32 135.191 80.8 135.431 81.1C135.911 81.64 136.511 82 137.171 82.18C137.771 82.3 138.371 82.42 138.971 82.48C139.631 82.48 140.471 82.42 141.551 82.42C142.511 82.3 143.531 82.24 144.611 82.12C145.571 81.94 146.531 81.76 147.491 81.64C148.391 81.46 149.111 81.28 149.591 81.1C150.371 80.8 151.091 80.68 151.751 80.74C152.351 80.74 152.891 80.92 153.371 81.4C153.611 81.64 153.851 81.82 154.151 82.06C154.391 82.18 154.631 82.36 154.871 82.54C154.991 82.66 155.111 82.78 155.171 82.9C155.171 83.02 155.051 83.14 154.811 83.26C154.271 83.5 153.791 83.8 153.311 84.04C152.831 84.22 152.171 84.4 151.391 84.64C151.031 84.76 150.731 84.88 150.611 85.06C150.371 85.18 150.251 85.3 150.131 85.48C149.951 85.6 149.771 85.78 149.591 85.96C149.351 86.08 149.051 86.14 148.631 86.26C148.151 86.32 147.371 86.38 146.351 86.44C145.271 86.44 144.071 86.38 142.871 86.38C141.611 86.32 140.411 86.26 139.331 86.2C138.191 86.08 137.351 86.02 136.751 85.9C136.031 85.72 135.311 85.48 134.711 85.24C134.051 84.88 133.511 84.52 133.031 84.04C132.551 83.5 132.191 82.9 131.951 82.24C131.651 81.52 131.531 80.68 131.591 79.72C131.651 78.52 131.711 77.38 131.771 76.06C131.771 74.86 131.831 73.96 131.831 73.36C131.831 73 131.711 72.7 131.471 72.4C131.171 72.16 130.931 71.92 130.691 71.56C130.571 71.44 130.451 71.32 130.331 71.08C130.151 70.96 130.031 70.78 129.911 70.54C129.791 70.36 129.731 70.12 129.731 69.88C129.671 69.64 129.731 69.4 129.911 69.1C130.211 68.5 130.451 68.14 130.691 68.02C130.871 67.96 131.111 68.02 131.411 68.2C131.531 68.32 131.591 68.44 131.651 68.56C131.651 68.68 131.651 68.8 131.651 68.86C131.651 68.98 131.651 69.1 131.711 69.16C131.711 69.28 131.831 69.28 132.071 69.28C132.431 69.4 132.791 69.34 133.151 69.16C133.451 69.04 133.871 68.92 134.351 68.86C134.771 68.86 135.191 68.8 135.671 68.8C136.091 68.86 136.451 68.92 136.811 68.92Z" fill="white"/>
<rect x="0.5" y="0.5" width="90" height="120" fill="#F6C500"/>
<rect x="0.5" y="0.5" width="90" height="120" stroke="black"/>
<path d="M36.7895 45.28C37.6295 45.16 38.7095 44.98 39.9695 44.74C41.1695 44.56 42.4295 44.32 43.7495 44.02C45.0095 43.78 46.2695 43.54 47.5895 43.18C48.7895 42.94 49.9295 42.64 50.8895 42.4C51.4895 42.22 52.0895 42.22 52.6295 42.34C53.1095 42.52 53.7095 42.7 54.4295 42.88C55.0895 43.12 55.8095 43.36 56.5295 43.6C57.1895 43.9 57.7295 44.14 58.2095 44.38C58.6295 44.62 58.9295 44.98 59.1095 45.58C59.2295 46.18 59.1695 47.02 58.9895 48.1C58.9295 48.46 58.8695 49.12 58.8095 49.96C58.6895 50.92 58.5695 51.94 58.4495 53.02C58.2695 54.22 58.0895 55.42 57.9695 56.68C57.7895 58 57.6695 59.2 57.5495 60.34C57.3695 61.54 57.2495 62.62 57.1295 63.46C57.0095 64.42 56.8895 65.08 56.8895 65.5C56.7695 66.16 56.7095 66.58 56.7095 66.82C56.6495 67.12 56.5895 67.3 56.5895 67.42C56.4695 67.54 56.4095 67.66 56.3495 67.78C56.2295 67.9 56.1095 68.14 55.9895 68.5C55.7495 69.22 55.3895 69.64 55.0295 69.76C54.5495 70 54.1895 69.88 53.8895 69.4C53.6495 68.98 53.2895 68.5 52.8095 68.02C52.2695 67.6 51.7295 67.18 51.1895 66.7C50.5295 66.34 50.2895 66.04 50.5295 65.68C50.6495 65.44 51.0695 65.32 51.7895 65.38C52.4495 65.44 52.9295 65.32 53.2295 65.02C53.4695 64.78 53.5895 64.42 53.5895 64C53.5895 63.88 53.5895 63.46 53.6495 62.68C53.6495 61.96 53.6495 61.12 53.7095 60.04C53.7095 59.08 53.7095 57.94 53.7695 56.74C53.7695 55.6 53.8295 54.46 53.8895 53.38C53.8895 52.36 53.9495 51.46 54.0095 50.62C54.0095 49.9 54.0695 49.36 54.1295 49.12C54.1895 48.22 54.0695 47.5 53.7095 47.02C53.2895 46.54 52.8095 46.24 52.2095 46.12C51.6095 46.06 51.0095 46 50.3495 45.94C49.6295 45.94 49.0295 45.94 48.6695 45.94L44.8895 47.08C44.4095 47.26 43.8695 47.44 43.2695 47.62C42.6095 47.86 41.9495 48.1 41.3495 48.28C40.6895 48.52 40.0895 48.64 39.4895 48.76C38.8895 48.94 38.3495 49 37.9295 48.94C36.4895 48.88 35.2895 48.58 34.2095 47.98C33.0695 47.44 32.2295 46.96 31.6895 46.6C31.5095 46.48 31.3895 46.36 31.3295 46.12C31.2095 46 31.2095 45.82 31.2695 45.58C31.2695 45.46 31.3295 45.28 31.5695 45.16C31.6895 45.1 31.9295 45.1 32.2895 45.1C32.5295 45.16 32.8295 45.22 33.2495 45.22C33.6095 45.28 33.9695 45.28 34.4495 45.28C34.8695 45.28 35.2895 45.28 35.7695 45.28C36.1295 45.28 36.4895 45.28 36.7895 45.28ZM21.6095 76.48C21.9695 76.54 22.5095 76.54 23.1095 76.42C23.6495 76.36 24.1895 76.24 24.7895 76.12C25.0295 76.06 25.3895 75.94 25.9295 75.82C26.4095 75.7 26.9495 75.58 27.5495 75.46C28.0895 75.34 28.6895 75.28 29.2895 75.16C29.8895 75.1 30.3695 75.04 30.8495 75.04C31.3295 75.1 31.8695 75.16 32.4695 75.22C33.0695 75.34 33.6095 75.4 34.2095 75.4C34.4495 75.4 34.9895 75.34 35.7695 75.22C36.4895 75.1 37.3295 74.98 38.3495 74.8C39.3095 74.68 40.3295 74.56 41.4095 74.44C42.4295 74.32 43.3895 74.26 44.3495 74.2L55.9295 73.6C57.0095 73.6 58.0895 73.42 59.1695 73.06C60.1295 72.82 60.9095 72.58 61.5095 72.34C61.9895 72.22 62.5295 72.22 63.1295 72.22C63.6695 72.28 64.2695 72.34 64.8695 72.46C65.4095 72.58 65.9495 72.76 66.4895 72.88C66.9695 73.06 67.3295 73.18 67.6295 73.3C68.1095 73.6 68.5295 73.84 68.8895 74.02C69.2495 74.26 69.6095 74.62 70.0895 75.04C70.5095 75.46 70.6895 75.88 70.5695 76.3C70.4495 76.78 70.0895 77.02 69.4895 77.02C69.1295 77.02 68.6495 77.02 67.9895 76.96C67.2695 76.96 66.6095 76.96 65.8895 76.9C65.1095 76.9 64.3895 76.9 63.7895 76.9C63.0695 76.96 62.6495 77.02 62.4095 77.02C62.1095 77.08 61.7495 77.08 61.3895 76.96C60.9095 76.96 60.4895 76.84 60.1295 76.72C59.6495 76.66 59.2895 76.54 58.9295 76.42C58.5695 76.36 58.2695 76.3 58.0295 76.24C57.7895 76.24 57.1895 76.18 56.2895 76.12C55.3295 76.12 54.1895 76.12 52.9895 76.12C51.7295 76.12 50.4695 76.12 49.2695 76.12C47.9495 76.18 46.9295 76.24 46.0895 76.3C44.1095 76.48 42.1895 76.72 40.2695 76.96C38.3495 77.26 36.4895 77.56 34.6895 78.04C33.4295 78.28 32.5895 78.46 32.1095 78.64C31.5695 78.76 31.1495 79 30.8495 79.36C30.5495 79.66 30.2495 79.84 30.0095 79.96C29.6495 79.96 29.1695 79.9 28.5095 79.72C28.1495 79.6 27.6695 79.54 26.9495 79.42C26.2295 79.3 25.4495 79.18 24.6695 79.06C23.8295 78.88 23.1095 78.76 22.5095 78.64C21.7895 78.46 21.3695 78.34 21.1895 78.28C20.9495 78.22 20.7695 78.1 20.6495 77.92C20.4695 77.68 20.4095 77.44 20.4095 77.2C20.4095 77.02 20.4695 76.84 20.7095 76.66C20.8295 76.54 21.1295 76.48 21.6095 76.48Z" fill="white"/>
</svg>
