<svg width="271" height="121" viewBox="0 0 271 121" fill="none" xmlns="http://www.w3.org/2000/svg">
<rect x="90.5" y="0.5" width="90" height="120" fill="#F6C500"/>
<rect x="90.5" y="0.5" width="90" height="120" stroke="black"/>
<path d="M138.789 42.7C139.629 42.82 140.529 43 141.489 43.24C142.389 43.6 143.289 44.08 144.129 44.68C144.909 45.34 145.569 46.12 146.169 47.08C146.709 48.04 147.069 49.18 147.189 50.5C147.189 51.1 147.189 51.52 147.189 51.76C147.129 52.06 147.069 52.24 147.009 52.36C146.889 52.54 146.829 52.66 146.769 52.66C146.649 52.72 146.589 52.78 146.589 52.9C146.529 53.02 146.529 53.14 146.589 53.2C146.589 53.32 146.649 53.44 146.769 53.56C146.769 53.74 146.829 53.92 146.829 54.16C146.829 54.46 146.709 54.82 146.589 55.3C146.229 56.5 145.749 57.64 145.029 58.78C144.249 59.98 143.289 61 142.089 61.9C141.369 62.38 140.649 62.8 139.929 63.1C139.149 63.46 138.429 63.7 137.709 63.82C136.929 64.06 136.209 64.18 135.609 64.18C134.889 64.3 134.349 64.3 133.989 64.3C133.029 64.24 132.069 64 131.109 63.64C130.089 63.28 129.249 62.92 128.589 62.5C127.329 61.84 126.369 60.94 125.769 59.74C125.049 58.66 124.629 57.46 124.449 56.14C124.209 54.94 124.149 53.68 124.329 52.48C124.449 51.34 124.629 50.38 124.989 49.6C125.349 48.76 125.829 47.86 126.549 46.84C127.209 45.88 128.109 44.98 129.309 44.26C129.069 43.6 128.829 42.94 128.589 42.28C128.289 41.68 127.989 41.2 127.689 40.9C127.449 40.66 127.329 40.36 127.329 40.06C127.269 39.82 127.329 39.64 127.509 39.46C127.629 39.34 127.809 39.22 128.109 39.16C128.349 39.16 128.589 39.28 128.889 39.4C129.429 39.82 129.909 40.12 130.329 40.3C130.689 40.54 131.349 40.9 132.309 41.32C133.209 41.74 133.809 42.52 134.169 43.66C134.649 43.42 135.369 43.12 136.209 42.88C136.989 42.7 137.829 42.64 138.789 42.7ZM133.209 47.62C132.369 48.34 131.709 48.7 131.169 48.58V48.88C130.749 48.76 130.389 48.82 130.089 48.94C129.729 49.18 129.429 49.42 129.189 49.72C128.949 50.08 128.709 50.44 128.589 50.8C128.409 51.28 128.289 51.64 128.289 52C128.169 52.78 128.169 53.56 128.229 54.28C128.229 55.12 128.349 55.84 128.709 56.56C128.949 57.28 129.429 57.94 130.029 58.48C130.629 59.08 131.409 59.56 132.489 59.8C133.809 60.22 135.129 60.28 136.329 59.98C137.529 59.74 138.609 59.38 139.689 58.9C140.889 57.88 141.669 56.74 142.089 55.42C142.449 54.16 142.689 52.84 142.809 51.4C142.929 49.96 142.569 48.58 141.729 47.38C140.769 46.18 139.629 45.46 138.189 45.1C137.649 45.04 137.049 44.98 136.329 44.98C135.549 45.04 134.889 45.04 134.409 45.04C134.349 45.52 134.229 46 134.109 46.42C133.929 46.9 133.629 47.32 133.209 47.62ZM111.609 76.48C111.969 76.54 112.509 76.54 113.109 76.42C113.649 76.36 114.189 76.24 114.789 76.12C115.029 76.06 115.389 75.94 115.929 75.82C116.409 75.7 116.949 75.58 117.549 75.46C118.089 75.34 118.689 75.28 119.289 75.16C119.889 75.1 120.369 75.04 120.849 75.04C121.329 75.1 121.869 75.16 122.469 75.22C123.069 75.34 123.609 75.4 124.209 75.4C124.449 75.4 124.989 75.34 125.769 75.22C126.489 75.1 127.329 74.98 128.349 74.8C129.309 74.68 130.329 74.56 131.409 74.44C132.429 74.32 133.389 74.26 134.349 74.2L145.929 73.6C147.009 73.6 148.089 73.42 149.169 73.06C150.129 72.82 150.909 72.58 151.509 72.34C151.989 72.22 152.529 72.22 153.129 72.22C153.669 72.28 154.269 72.34 154.869 72.46C155.409 72.58 155.949 72.76 156.489 72.88C156.969 73.06 157.329 73.18 157.629 73.3C158.109 73.6 158.529 73.84 158.889 74.02C159.249 74.26 159.609 74.62 160.089 75.04C160.509 75.46 160.689 75.88 160.569 76.3C160.449 76.78 160.089 77.02 159.489 77.02C159.129 77.02 158.649 77.02 157.989 76.96C157.269 76.96 156.609 76.96 155.889 76.9C155.109 76.9 154.389 76.9 153.789 76.9C153.069 76.96 152.649 77.02 152.409 77.02C152.109 77.08 151.749 77.08 151.389 76.96C150.909 76.96 150.489 76.84 150.129 76.72C149.649 76.66 149.289 76.54 148.929 76.42C148.569 76.36 148.269 76.3 148.029 76.24C147.789 76.24 147.189 76.18 146.289 76.12C145.329 76.12 144.189 76.12 142.989 76.12C141.729 76.12 140.469 76.12 139.269 76.12C137.949 76.18 136.929 76.24 136.089 76.3C134.109 76.48 132.189 76.72 130.269 76.96C128.349 77.26 126.489 77.56 124.689 78.04C123.429 78.28 122.589 78.46 122.109 78.64C121.569 78.76 121.149 79 120.849 79.36C120.549 79.66 120.249 79.84 120.009 79.96C119.649 79.96 119.169 79.9 118.509 79.72C118.149 79.6 117.669 79.54 116.949 79.42C116.229 79.3 115.449 79.18 114.669 79.06C113.829 78.88 113.109 78.76 112.509 78.64C111.789 78.46 111.369 78.34 111.189 78.28C110.949 78.22 110.769 78.1 110.649 77.92C110.469 77.68 110.409 77.44 110.409 77.2C110.409 77.02 110.469 76.84 110.709 76.66C110.829 76.54 111.129 76.48 111.609 76.48Z" fill="white"/>
<rect x="180.5" y="0.5" width="90" height="120" fill="#F6C500"/>
<rect x="180.5" y="0.5" width="90" height="120" stroke="black"/>
<path d="M219.549 75.28C220.389 75.04 221.229 74.62 222.009 74.14C222.729 73.72 223.389 73.24 224.049 72.64C224.649 72.16 225.249 71.56 225.789 70.96C226.269 70.42 226.809 69.88 227.289 69.4C228.069 68.56 228.729 67.78 229.269 67.06C229.749 66.4 230.049 65.86 230.289 65.38C230.529 64.9 230.649 64.42 230.769 64C230.769 63.64 230.469 63.52 229.809 63.64V63.58C229.629 63.7 229.509 63.7 229.389 63.7C228.549 63.94 227.889 64.18 227.349 64.42C226.749 64.72 226.269 64.96 225.789 65.2C225.249 65.44 224.709 65.68 224.229 65.8C223.689 65.98 223.089 66.1 222.489 66.1C221.109 66.22 219.969 66.22 219.069 66.1C218.109 66.04 217.329 65.8 216.729 65.38C216.129 65.02 215.709 64.42 215.529 63.64C215.289 62.92 215.169 61.96 215.289 60.7C215.409 59.5 215.649 58.3 216.069 57.1C216.429 55.9 216.609 54.94 216.729 54.22C216.489 54.1 216.309 53.98 216.129 53.86C215.889 53.74 215.709 53.62 215.649 53.5C215.529 53.38 215.469 53.26 215.589 53.08C215.649 52.96 215.889 52.84 216.369 52.6C216.249 52.42 216.069 52.24 215.889 52.06C215.649 51.94 215.469 51.76 215.289 51.52C214.569 51.04 214.209 50.62 214.209 50.26C214.149 49.96 214.509 49.84 215.349 49.9C216.129 50.02 216.969 50.2 217.809 50.5C218.649 50.86 219.369 51.16 219.969 51.52V51.58C220.689 51.46 221.529 51.28 222.369 51.1C223.149 50.98 223.929 50.8 224.649 50.68C225.369 50.56 226.029 50.44 226.629 50.32C227.169 50.26 227.589 50.2 227.889 50.08C228.249 49.96 228.549 49.9 228.849 49.78C229.089 49.78 229.269 49.66 229.509 49.54C229.689 49.42 229.869 49.3 230.049 49.06C230.169 48.88 230.289 48.58 230.469 48.16C230.769 47.38 231.069 46.54 231.369 45.64C231.609 44.8 231.789 44.08 231.969 43.48C231.969 43.36 231.969 43.24 232.029 43C232.029 42.82 231.969 42.64 231.969 42.4C231.849 42.28 231.729 42.16 231.549 42.04C231.309 41.98 231.009 42.04 230.649 42.16C230.169 42.34 229.389 42.52 228.309 42.76C227.109 43 225.909 43.24 224.649 43.48C223.329 43.78 222.189 44.02 221.169 44.2C220.089 44.44 219.429 44.68 219.189 44.8C218.649 45.04 218.049 45.28 217.329 45.52C216.609 45.82 216.009 45.82 215.589 45.46C215.109 45.22 214.749 44.86 214.449 44.5C214.089 44.14 213.789 43.78 213.489 43.3C213.129 42.94 213.129 42.64 213.369 42.4C213.549 42.28 213.909 42.16 214.389 42.1C214.869 42.1 215.469 42.1 216.129 42.04C216.729 42.04 217.449 41.92 218.289 41.68C218.589 41.68 219.429 41.5 220.809 41.26C222.129 41.02 223.569 40.78 225.129 40.42C226.689 40.18 228.129 39.88 229.509 39.52C230.829 39.28 231.609 39.04 231.969 38.92C232.569 38.68 233.229 38.56 233.949 38.5C234.549 38.5 235.149 38.56 235.689 38.8C236.229 39.04 236.769 39.28 237.309 39.58C237.789 39.94 238.149 40.3 238.389 40.6C238.629 41.2 238.749 41.86 238.749 42.52C238.749 42.94 238.569 43.36 238.209 43.78C237.789 44.26 237.429 44.56 237.129 44.74C237.009 44.86 236.829 45.04 236.649 45.28C236.409 45.64 236.169 45.94 235.989 46.3C235.749 46.72 235.509 47.08 235.329 47.44C235.089 47.86 234.849 48.16 234.729 48.4C234.489 48.76 234.429 48.94 234.609 49C234.729 49.12 234.909 49.12 235.269 49.12C235.509 49.12 235.809 49.06 236.169 49.06C236.469 49.12 236.649 49.36 236.769 49.78C236.829 50.26 236.769 50.56 236.589 50.8C236.349 51.1 236.049 51.4 235.749 51.7C235.329 52 234.849 52.12 234.309 52.12C233.709 52.18 233.049 52.24 232.389 52.36C231.789 52.48 231.069 52.54 230.229 52.66C229.329 52.78 228.429 52.96 227.529 53.08C226.569 53.26 225.669 53.44 224.829 53.56C223.989 53.74 223.329 53.92 222.969 54.04C222.489 54.22 222.069 54.46 221.589 54.7L221.229 55.72C220.929 56.38 220.689 57.1 220.449 57.82C220.209 58.6 219.969 59.32 219.789 59.98C219.429 61.12 219.609 61.78 220.269 61.96C220.869 62.2 221.769 62.32 223.089 62.2C223.809 62.2 224.589 62.08 225.369 61.84C226.089 61.66 226.749 61.48 227.349 61.24C227.889 61.12 228.369 60.94 228.729 60.82C229.029 60.7 229.149 60.7 229.149 60.7C229.329 60.58 229.689 60.4 230.229 60.16C230.709 59.92 231.309 59.68 232.029 59.44C232.689 59.26 233.409 59.08 234.129 58.84C234.789 58.72 235.389 58.6 235.989 58.6C236.349 58.6 236.769 58.72 237.249 58.84C237.609 59.08 237.969 59.26 238.329 59.5C238.629 59.74 238.929 59.98 239.169 60.22C239.409 60.46 239.529 60.64 239.589 60.7C239.649 60.82 239.709 61 239.709 61.18C239.709 61.42 239.649 61.66 239.529 61.9C239.409 62.14 239.169 62.38 238.929 62.56C238.629 62.8 238.269 62.92 237.789 62.92H237.729C237.369 63.1 237.129 63.28 236.889 63.46C236.589 63.7 236.289 64 235.989 64.3C235.569 64.78 235.089 65.26 234.609 65.74C234.069 66.28 233.589 66.76 233.169 67.18C232.689 67.66 232.269 68.08 231.909 68.38C231.549 68.74 231.309 68.98 231.189 69.1C230.949 69.4 230.589 69.76 230.169 70.12C229.689 70.6 229.269 71.02 228.909 71.38C228.429 71.86 228.069 72.22 227.709 72.58C227.289 73 227.049 73.3 226.929 73.42C226.689 73.72 226.509 73.96 226.449 74.2C226.329 74.44 226.509 74.62 227.049 74.68L235.929 74.2C237.009 74.2 238.089 74.02 239.169 73.66C240.129 73.42 240.909 73.18 241.509 72.94C241.989 72.82 242.529 72.82 243.129 72.82C243.669 72.88 244.269 72.94 244.869 73.06C245.409 73.18 245.949 73.36 246.489 73.48C246.969 73.66 247.329 73.78 247.629 73.9C248.109 74.2 248.529 74.44 248.889 74.62C249.249 74.86 249.609 75.22 250.089 75.64C250.509 76.06 250.689 76.48 250.569 76.9C250.449 77.38 250.089 77.56 249.489 77.62C249.129 77.62 248.649 77.62 247.989 77.62C247.269 77.56 246.609 77.56 245.889 77.56C245.109 77.5 244.389 77.5 243.789 77.56C243.069 77.56 242.649 77.56 242.409 77.62C242.109 77.62 241.749 77.62 241.389 77.62C240.909 77.5 240.489 77.44 240.129 77.32C239.649 77.26 239.289 77.14 238.929 77.02C238.569 76.96 238.269 76.9 238.029 76.84C237.789 76.84 237.189 76.78 236.289 76.72C235.329 76.72 234.189 76.72 232.989 76.72C231.729 76.72 230.469 76.72 229.269 76.72C227.949 76.78 226.929 76.84 226.089 76.9C224.109 77.08 222.189 77.32 220.269 77.56C218.349 77.8 216.489 78.16 214.689 78.64C213.429 78.88 212.589 79.06 212.109 79.24C211.569 79.36 211.149 79.6 210.849 79.96C210.549 80.26 210.249 80.44 210.009 80.56C209.649 80.56 209.169 80.5 208.509 80.32C208.149 80.2 207.669 80.14 206.949 80.02C206.229 79.9 205.449 79.78 204.669 79.66C203.829 79.48 203.109 79.36 202.509 79.24C201.789 79.06 201.369 78.94 201.189 78.88C200.949 78.82 200.769 78.7 200.649 78.52C200.469 78.28 200.409 78.04 200.409 77.86C200.409 77.62 200.469 77.44 200.709 77.26C200.829 77.14 201.129 77.08 201.609 77.08C201.969 77.14 202.509 77.14 203.109 77.02C203.649 76.96 204.189 76.84 204.789 76.72C205.029 76.66 205.389 76.54 205.929 76.42C206.409 76.3 206.949 76.18 207.549 76.06C208.089 75.94 208.689 75.88 209.289 75.76C209.889 75.7 210.369 75.64 210.849 75.64C211.329 75.7 211.869 75.76 212.469 75.82C213.069 75.94 213.609 76 214.209 76C214.509 76 215.169 75.94 216.189 75.76C217.149 75.64 218.289 75.52 219.549 75.28Z" fill="white"/>
<rect x="0.5" y="0.5" width="90" height="120" fill="#F6C500"/>
<rect x="0.5" y="0.5" width="90" height="120" stroke="black"/>
<path d="M31.1483 59.856L31.3373 60.801C31.3373 61.305 31.2743 61.683 31.2113 62.061C31.0853 62.439 30.7703 62.754 30.3293 62.943C29.8253 63.195 29.3843 63.195 28.9433 63.069C28.4393 62.943 27.9983 62.628 27.5573 61.998C27.1793 61.557 26.8013 60.801 26.3603 59.73C25.8563 58.722 25.3523 57.651 24.9113 56.454C24.4073 55.32 23.9033 54.186 23.4623 53.052C22.9583 51.981 22.6433 51.099 22.3913 50.469C22.0763 49.839 21.8243 49.272 21.6353 48.705C21.3833 48.201 21.2573 47.697 21.1313 47.193C20.9423 46.752 20.8163 46.248 20.7533 45.744C20.6273 45.24 20.5013 44.673 20.5013 44.043C20.3753 43.413 20.3753 42.972 20.5013 42.72C20.5643 42.531 20.6903 42.405 20.8793 42.405C21.0053 42.468 21.1313 42.531 21.3203 42.657C21.4463 42.846 21.6353 42.972 21.7613 43.098C22.0133 43.476 22.5173 43.854 23.1473 44.358C23.7143 44.862 24.2183 45.114 24.5963 45.114C24.7853 45.114 25.1003 45.177 25.4783 45.24C25.8563 45.366 26.2343 45.492 26.6123 45.681C26.9903 45.933 27.3053 46.185 27.6833 46.437C27.9983 46.815 28.1873 47.193 28.3133 47.697C28.4393 48.201 28.5023 48.768 28.6283 49.398C28.6913 50.028 28.7543 50.658 28.8803 51.225C28.8803 51.855 28.9433 52.359 29.0693 52.863C29.0693 53.367 29.1323 53.745 29.2583 53.871L29.9513 56.076C30.0773 56.139 30.2033 56.265 30.4553 56.454C30.6443 56.706 30.8333 56.832 31.0853 56.958C31.5893 57.462 32.3453 57.651 33.3533 57.588C34.2353 57.588 35.1173 57.588 35.8733 57.462C37.3853 57.273 38.4563 56.895 38.9603 56.328C39.4013 55.824 39.7163 54.942 39.8423 53.682C39.8423 53.115 39.9053 52.422 39.9683 51.666C39.9683 50.91 39.9683 50.154 39.9683 49.398C39.9683 48.705 39.9683 48.075 39.9683 47.445C39.9053 46.878 39.9053 46.437 39.9053 46.185C39.9053 45.681 39.7163 45.303 39.4013 45.051C39.0233 44.862 38.3933 44.799 37.5113 44.925C37.0073 45.051 36.4403 45.114 35.7473 45.177C34.9913 45.303 34.2983 45.366 33.6053 45.366C32.8493 45.492 32.1563 45.555 31.5893 45.555C30.9593 45.681 30.5183 45.681 30.2663 45.681C30.0143 45.681 29.6993 45.681 29.4473 45.555C29.0693 45.555 28.8173 45.429 28.6913 45.303C28.5023 45.177 28.4393 45.051 28.5023 44.862C28.5023 44.736 28.7543 44.547 29.2583 44.295C29.6993 44.106 30.2663 43.854 30.8963 43.602C31.5263 43.413 32.1563 43.224 32.8493 42.972C33.4793 42.783 34.0463 42.531 34.6763 42.279C35.1803 42.027 35.6213 41.775 35.9363 41.46C36.5033 40.893 37.0703 40.326 37.6373 39.696C38.1413 39.192 38.7713 38.877 39.6533 38.877C40.4093 38.877 41.1653 39.003 41.9213 39.192C42.5513 39.444 43.4963 39.57 44.6933 39.633C45.1973 39.696 45.7013 39.822 46.2053 40.011C46.5833 40.263 46.8983 40.578 47.1503 40.893C47.2763 41.271 47.3393 41.712 47.2763 42.09C47.1503 42.531 46.7723 42.972 46.2683 43.413C45.7013 43.917 45.2603 44.295 45.0083 44.547C44.6303 44.862 44.4413 45.177 44.3153 45.429C44.1893 45.807 44.1263 46.185 44.1263 46.563C44.1263 47.067 44.1263 47.634 44.2523 48.39C44.3783 49.902 44.4413 51.288 44.4413 52.611C44.4413 53.997 44.4413 55.005 44.4413 55.572C44.4413 56.265 44.2523 56.769 44.0003 57.084C43.6853 57.462 43.3073 57.84 42.8033 58.281C42.5513 58.533 42.3623 58.848 42.2363 59.1C42.0473 59.415 41.9213 59.667 41.7953 59.919C41.6693 60.234 41.4803 60.486 41.3543 60.612C41.1653 60.864 40.9763 60.99 40.7243 60.99C40.2203 61.116 39.5903 61.116 38.7713 61.053C37.8893 61.053 37.0073 60.927 36.1253 60.801C35.1173 60.675 34.2353 60.549 33.3533 60.36C32.4083 60.234 31.6523 60.108 31.1483 59.856ZM72.6023 50.595C72.6023 50.784 72.6653 50.973 72.7283 51.162C72.7283 51.414 72.7913 51.666 72.7913 51.855C72.7913 52.107 72.7283 52.296 72.6023 52.422C72.4133 52.611 72.1613 52.737 71.8463 52.8C71.1533 53.052 70.2713 53.115 69.2633 53.115C68.1293 53.115 67.2473 53.115 66.5543 52.989C66.2393 52.989 65.7983 52.989 65.2313 52.989C64.6013 53.052 64.0343 53.115 63.4043 53.115C62.7743 53.178 62.1443 53.241 61.5773 53.241C60.9473 53.367 60.5063 53.43 60.2543 53.43C60.1913 53.43 60.1913 53.43 60.1913 53.43C60.1283 53.493 60.0653 53.493 60.0653 53.493V53.556H60.0023C60.0023 54.312 60.0023 55.068 60.0023 55.761C59.9393 56.517 59.8763 57.084 59.8133 57.525C59.7503 58.029 59.6243 58.533 59.4983 59.1C59.2463 59.73 59.0573 60.36 58.8053 60.864C58.4903 61.494 58.2383 61.998 57.9863 62.439C57.6713 62.943 57.4193 63.321 57.1673 63.51C56.9153 63.762 56.6003 63.951 56.3483 64.077C55.9703 64.329 55.7183 64.455 55.4663 64.455C55.1513 64.581 54.9623 64.518 54.8363 64.392C54.7103 64.266 54.7103 64.014 54.8993 63.51C55.0253 63.132 55.0883 62.565 55.2143 61.809C55.2143 61.053 55.2773 60.234 55.2773 59.226C55.2773 58.344 55.2773 57.336 55.2773 56.328C55.2143 55.383 55.2143 54.438 55.2143 53.556C55.2143 52.737 55.2143 51.918 55.2143 51.099C55.1513 50.343 55.1513 49.65 55.1513 49.02C55.1513 48.453 55.1513 47.949 55.1513 47.571C55.1513 47.193 55.1513 47.004 55.2143 46.941C55.3403 46.815 55.5293 46.689 55.7183 46.689C55.8443 46.689 55.9073 46.563 56.0333 46.248C56.0333 46.122 56.0333 45.933 55.9703 45.807C55.8443 45.681 55.7813 45.555 55.7183 45.366C55.5923 45.24 55.4663 45.051 55.4033 44.799C55.2773 44.61 55.2773 44.358 55.3403 43.98C55.4033 43.539 55.4663 43.035 55.4663 42.405C55.4663 41.901 55.4663 41.334 55.4663 40.704C55.3403 39.507 55.3403 38.562 55.4663 37.806C55.4663 37.176 55.4663 36.546 55.4663 35.916C55.3403 35.475 55.3403 34.971 55.3403 34.404C55.2773 33.9 55.0253 33.459 54.5213 33.018C54.0173 32.64 53.5763 32.388 53.1983 32.199C52.6943 32.073 52.2533 31.884 51.8753 31.632C51.6233 31.506 51.4973 31.38 51.4973 31.128C51.4343 30.939 51.4973 30.75 51.6233 30.498C51.6863 30.372 51.8753 30.183 52.1273 30.057C52.3793 29.994 52.6943 29.994 53.1353 30.12C53.3873 30.246 53.7653 30.372 54.3953 30.498C54.8993 30.687 55.5293 30.876 56.2223 31.002C56.8523 31.254 57.5453 31.443 58.2383 31.569C58.8683 31.821 59.4353 31.947 59.8133 32.01C60.3803 32.136 60.8213 32.325 61.1993 32.451C61.5143 32.703 61.5773 33.081 61.3883 33.711C61.1363 34.404 60.9473 35.097 60.7583 35.853C60.5063 36.609 60.3803 37.428 60.3803 38.31C60.3803 38.94 60.3803 39.696 60.3803 40.704C60.3173 41.712 60.3173 42.594 60.3173 43.35C60.2543 43.728 60.1913 44.169 60.1913 44.736C60.1283 45.366 60.1283 45.996 60.1283 46.626C60.0653 47.319 60.0653 47.949 60.0653 48.516C60.0023 49.146 60.0023 49.65 60.0023 49.965V51.162C60.5693 51.099 61.0103 51.036 61.3253 50.91C61.8293 50.784 62.2073 50.721 62.5853 50.595C62.8373 50.532 63.0893 50.469 63.3413 50.343C63.4673 50.343 63.6563 50.217 63.9083 50.091C64.0343 50.028 64.2863 49.902 64.5383 49.776C65.0423 49.524 65.5463 49.335 66.0503 49.146C66.4913 49.02 66.9953 48.957 67.4993 49.083C68.0663 49.209 68.6333 49.209 69.2003 49.083C69.7043 49.02 70.0823 48.957 70.3973 48.957C70.9013 48.957 71.3423 49.083 71.8463 49.335C72.2243 49.713 72.4763 50.091 72.6023 50.595ZM42.9923 84.552C43.3703 84.426 43.9373 84.3 44.6303 84.111C45.2603 83.859 46.0163 83.67 46.7723 83.544C47.5283 83.292 48.2843 83.103 49.0403 82.977C49.7333 82.788 50.3633 82.662 50.9933 82.662C51.1823 82.599 51.4973 82.599 51.8753 82.599C52.2533 82.599 52.6313 82.599 53.1353 82.599C53.1353 82.095 53.1353 81.402 53.2613 80.646C53.2613 79.827 53.3243 79.008 53.3873 78.252C53.3873 77.496 53.4503 76.74 53.5133 76.047C53.5133 75.417 53.4503 74.913 53.4503 74.535C53.3243 73.905 53.2613 73.464 53.1353 73.275C53.0093 73.149 52.6943 72.96 52.1903 72.645C51.9383 72.519 51.6863 72.519 51.4343 72.519C51.1193 72.582 50.8043 72.645 50.5523 72.771C50.1743 72.897 49.8593 73.086 49.6073 73.212C49.2923 73.401 49.0403 73.527 48.7883 73.653C48.5363 73.779 48.2213 73.968 47.8433 74.094C47.4023 74.283 46.9613 74.409 46.5203 74.472C46.0163 74.598 45.5753 74.661 45.1343 74.598C44.6303 74.598 44.2523 74.472 43.8743 74.157C43.4963 73.905 43.0553 73.59 42.6143 73.212C42.1103 72.96 41.6693 72.645 41.2913 72.33C40.7873 72.078 40.4093 71.826 40.0943 71.574C39.7163 71.322 39.4013 71.133 39.2753 71.007C38.8973 70.692 38.7713 70.44 38.8973 70.188C38.9603 69.999 39.2123 69.936 39.6533 69.936C40.0313 69.999 40.4723 69.999 41.0393 69.936C41.5433 69.936 42.3623 69.936 43.4963 69.81C44.1263 69.81 44.8193 69.684 45.5753 69.558C46.3313 69.495 47.0873 69.369 47.8433 69.243C48.5993 69.117 49.2923 68.991 49.9853 68.802C50.6153 68.676 51.1193 68.487 51.4973 68.361C51.6863 68.298 51.9383 68.172 52.1903 67.983C52.3793 67.857 52.6313 67.668 52.8833 67.542C53.1353 67.416 53.3873 67.353 53.7653 67.227C54.0173 67.227 54.3953 67.227 54.8363 67.29C55.5923 67.542 56.4743 67.92 57.4193 68.361C58.3013 68.865 58.9943 69.243 59.6243 69.558C60.1913 69.936 60.5063 70.314 60.5063 70.692C60.5063 71.196 60.3173 71.637 60.0023 72.015C59.6243 72.519 59.4353 72.834 59.3093 73.086C59.1203 73.401 58.8053 73.59 58.4273 73.653C57.9863 73.779 57.6713 74.031 57.4823 74.472C57.2303 74.976 57.1043 75.417 57.0413 75.732C56.9153 75.984 56.7893 76.425 56.6633 76.929C56.5373 77.559 56.3483 78.126 56.2223 78.819C56.0333 79.449 55.9073 80.142 55.7813 80.835C55.6553 81.465 55.5293 82.095 55.4033 82.599C55.7813 82.599 56.1593 82.662 56.5373 82.725C56.8523 82.725 57.1043 82.725 57.3563 82.851C57.9233 82.914 58.2383 83.166 58.3643 83.544C58.3643 83.859 58.3643 84.237 58.3013 84.678C58.1753 85.245 57.9863 85.749 57.7973 86.253C57.5453 86.694 56.9153 86.883 55.9073 86.82C55.3403 86.757 54.3953 86.694 53.0723 86.631C51.6863 86.505 50.3003 86.379 48.9143 86.316C47.4653 86.19 46.2053 86.127 45.0713 86.064C43.8743 85.938 43.1813 85.938 43.0553 85.938C42.8663 85.938 42.6773 85.875 42.4253 85.812C42.1733 85.686 41.9843 85.623 41.9213 85.497C41.7953 85.308 41.7953 85.119 41.9213 84.993C42.0473 84.804 42.3623 84.678 42.9923 84.552ZM40.7873 79.449C40.9133 80.079 40.9133 80.772 40.9133 81.654C40.8503 82.41 40.7873 83.229 40.6613 84.048C40.5353 84.804 40.3463 85.497 40.2203 86.19C40.0313 86.82 39.8423 87.324 39.7163 87.702C39.5903 87.891 39.4013 88.08 39.2123 88.332C38.9603 88.458 38.7083 88.584 38.4563 88.647C38.2043 88.647 37.9523 88.521 37.7633 88.332C37.5113 88.08 37.3853 87.765 37.3223 87.261C37.1963 86.82 37.1333 86.316 37.0073 85.749C36.8813 85.119 36.7553 84.489 36.6293 83.859C36.5033 83.166 36.3773 82.536 36.3143 81.906C36.1883 81.276 36.0623 80.709 36.0623 80.268C35.8733 79.26 35.7473 78.315 35.6213 77.433C35.4953 76.551 35.4323 75.543 35.4323 74.535C35.3693 73.275 35.4953 72.078 35.8103 70.944C36.0623 69.873 36.8183 68.865 38.0783 67.857C38.7713 67.353 39.3383 66.975 39.7793 66.723C40.1573 66.534 40.4723 66.471 40.7243 66.471C40.8503 66.534 40.9133 66.66 40.9133 66.849C40.7873 67.101 40.5983 67.353 40.3463 67.605C39.8423 68.109 39.4643 68.487 39.2123 68.802C38.8343 69.18 38.5823 69.621 38.4563 70.188C38.3303 70.818 38.3933 71.385 38.6453 72.015C38.8343 72.708 39.0233 73.275 39.2123 73.779C39.3383 74.031 39.4643 74.409 39.6533 74.913C39.7793 75.48 39.9053 76.047 40.0943 76.614C40.2203 77.244 40.4093 77.874 40.5353 78.378C40.6613 78.882 40.7243 79.197 40.7873 79.449Z" fill="white"/>
</svg>
