<svg width="181" height="151" viewBox="0 0 181 151" fill="none" xmlns="http://www.w3.org/2000/svg">
<rect x="0.5" y="0.5" width="90" height="120" fill="#F6C500"/>
<rect x="0.5" y="0.5" width="90" height="120" stroke="black"/>
<path d="M71.7095 60.1C71.7095 60.46 71.7695 60.88 71.7695 61.3C71.7695 61.78 71.4095 62.08 70.8095 62.2C70.2095 62.32 69.4295 62.32 68.4695 62.2C67.5095 62.08 66.6695 61.96 66.0095 61.78C65.7695 61.78 65.4095 61.72 64.9895 61.66C64.5095 61.66 63.9695 61.66 63.4895 61.66C62.9495 61.66 62.4695 61.66 61.9895 61.66C61.4495 61.72 61.0295 61.72 60.6695 61.72C60.6695 62.56 60.6695 63.28 60.6695 64C60.6095 64.72 60.6095 65.38 60.6095 65.92C60.4895 68.08 60.4895 69.82 60.4895 71.26C60.4295 72.76 60.4295 73.78 60.4295 74.32C60.4295 75.28 60.3095 76.3 60.1895 77.44C59.9495 78.58 59.7695 79.72 59.5295 80.8C59.2295 81.88 58.9295 82.84 58.6895 83.74C58.3295 84.58 58.0895 85.24 57.8495 85.6C57.6095 85.96 57.3095 86.38 57.0695 86.8C56.7095 87.16 56.4695 87.4 56.2295 87.58C55.9295 87.7 55.7495 87.64 55.6295 87.4C55.5095 87.1 55.5095 86.5 55.6895 85.6C55.8095 84.88 55.8695 83.86 55.9895 82.54C55.9895 81.16 56.0495 79.66 56.1095 78.04C56.1095 76.36 56.1695 74.68 56.1695 72.88C56.1095 71.14 56.1095 69.46 56.1095 67.9C55.6295 68.2 55.0295 68.5 54.3695 68.74C53.6495 69.1 52.9295 69.34 52.2695 69.58C51.5495 69.88 50.8895 70.12 50.3495 70.24C49.7495 70.48 49.3295 70.6 49.0895 70.6C48.5495 70.72 47.7695 70.9 46.7495 71.08C45.6695 71.32 44.5295 71.56 43.2695 71.8C41.9495 72.1 40.5695 72.4 39.1895 72.64C37.7495 72.94 36.3695 73.18 35.1695 73.42C33.9095 73.72 32.8295 73.96 31.9895 74.08C31.0295 74.32 30.4295 74.44 30.1895 74.5C29.7095 74.62 29.1695 74.68 28.6295 74.68C28.0295 74.8 27.4895 74.8 26.9495 74.8C26.3495 74.8 25.7495 74.74 25.2695 74.62C24.7295 74.56 24.2495 74.44 23.8895 74.2C23.0495 73.78 22.4495 73.36 21.9695 73C21.4895 72.7 21.0095 72.4 20.5895 72.1C20.3495 71.98 20.1695 71.8 20.1095 71.56C19.9895 71.38 19.9295 71.2 20.0495 70.96C20.0495 70.84 20.2295 70.66 20.4695 70.54C20.7095 70.42 21.0095 70.42 21.4895 70.54C22.2095 70.78 23.0495 70.84 24.0095 70.78C24.8495 70.78 25.8095 70.72 26.8895 70.6C27.1895 70.6 27.7295 70.6 28.5095 70.48C29.2295 70.42 30.0695 70.3 31.0895 70.18C31.9295 69.94 32.6495 69.7 33.2495 69.46C33.7895 69.22 34.2695 68.98 34.6895 68.68C35.0495 68.44 35.4095 68.14 35.7695 67.78C36.0695 67.54 36.4295 67.18 36.7895 66.7C37.0295 66.46 37.2695 66.1 37.6295 65.68C37.9295 65.32 38.2295 64.9 38.5295 64.42C38.7695 64.06 39.0695 63.64 39.3095 63.28C39.4895 62.98 39.6695 62.74 39.7895 62.5C39.8495 62.32 39.9095 62.08 39.9695 61.78C39.9695 61.54 39.7295 61.24 39.1895 60.94C38.1095 60.58 37.2695 60.16 36.6695 59.56C36.0095 59.08 35.4695 58.54 34.9895 58C34.6895 57.76 34.4495 57.34 34.2095 56.86C33.9095 56.38 33.7295 55.9 33.7295 55.3C33.6695 54.76 33.7895 54.16 34.1495 53.5C34.3895 52.9 34.9895 52.3 35.8895 51.7C36.7295 51.16 37.8695 50.56 39.3695 49.84C40.8095 49.18 42.2495 48.52 43.8095 47.8C43.8095 46.36 43.8695 44.92 43.9895 43.6C43.9895 42.58 43.7495 41.86 43.2695 41.38C42.7295 41.02 42.1895 40.66 41.5895 40.3C41.3495 40.18 41.1695 40 41.1695 39.64C41.0495 39.34 41.4095 39.16 42.1895 39.1C42.5495 39.1 43.0895 39.1 43.6895 39.1C44.2295 39.22 44.7695 39.28 45.3695 39.34C45.9095 39.46 46.4495 39.58 46.9295 39.7C47.3495 39.82 47.6495 39.94 47.7695 40C48.0695 40.18 48.4295 40.48 48.7895 40.84C49.0895 41.26 49.1495 41.86 48.9695 42.7C48.8495 42.94 48.7895 43.12 48.7895 43.36C48.6695 43.6 48.6095 43.9 48.5495 44.2C48.4895 44.5 48.4895 44.74 48.4895 44.98C48.4295 45.28 48.4295 45.58 48.4295 45.82C48.9095 45.58 49.3895 45.4 49.8095 45.16C50.1695 45.04 50.4095 44.92 50.5895 44.8C51.1295 44.5 51.4895 44.44 51.7295 44.68C51.9095 44.92 51.7295 45.28 51.1895 45.7C50.8295 45.94 50.4095 46.24 49.9295 46.48C49.3895 46.84 48.8495 47.14 48.3095 47.44C48.1895 48.52 48.1295 49.6 48.1295 50.56C48.0695 51.58 48.0695 52.66 48.1895 53.8C48.1895 54.64 48.1895 55.6 48.0695 56.56C47.9495 57.64 47.7695 58.6 47.6495 59.5C47.5895 60.1 47.4095 60.46 47.1095 60.7C46.7495 61 46.3295 61.18 45.9095 61.24C45.4295 61.48 45.0695 61.66 44.7695 61.84C44.4095 62.08 44.1095 62.32 43.9895 62.5C43.1495 63.34 42.4295 64.24 41.7095 65.14C40.9295 66.1 40.2095 67 39.4895 67.9C39.2495 68.26 39.1895 68.5 39.3695 68.74C39.4895 68.98 40.0895 69.1 41.1695 68.98L47.8895 68.2C48.3695 68.2 48.9695 68.14 49.6895 67.96C50.4095 67.84 51.1295 67.6 51.9695 67.36C52.6895 67.12 53.4695 66.88 54.2495 66.58C54.9695 66.34 55.5695 66.1 56.1095 65.86V63.64C56.1695 62.62 56.1695 61.54 56.1095 60.46C55.9895 59.38 55.9895 58.12 55.9895 56.56C55.9295 55.6 55.9295 54.58 55.9295 53.5C55.8695 52.48 55.8695 51.52 55.8695 50.68C55.8695 49.9 55.8695 49.24 55.8695 48.7C55.8695 48.22 55.8695 47.92 55.9295 47.86C56.0495 47.74 56.2295 47.62 56.4095 47.62C56.5295 47.62 56.5895 47.5 56.7095 47.2C56.7095 47.08 56.7095 46.9 56.6495 46.78C56.5295 46.66 56.4695 46.54 56.4095 46.36C56.2895 46.24 56.1695 46.06 56.1095 45.82C55.9895 45.64 55.9895 45.4 56.0495 45.04C56.1095 44.62 56.1695 44.14 56.1695 43.54C56.1095 43.06 56.1095 42.52 56.1095 41.92C56.0495 40.72 56.0495 39.82 56.1695 39.16C56.1695 38.56 56.1695 38.02 56.1095 37.42C56.0495 37 56.0495 36.52 56.0495 35.98C55.9895 35.5 55.7495 35.08 55.2695 34.66C54.7895 34.3 54.3695 34.06 53.9495 33.88C53.4695 33.76 53.1095 33.58 52.7495 33.34C52.5095 33.22 52.3895 33.1 52.3895 32.86C52.3295 32.68 52.3895 32.5 52.5095 32.26C52.5695 32.14 52.7495 31.96 52.9895 31.84C53.2295 31.78 53.5295 31.78 53.9495 31.9C54.1295 32.02 54.4895 32.08 55.0895 32.2C55.5695 32.38 56.1695 32.56 56.8895 32.68C57.4895 32.92 58.1495 33.1 58.8095 33.22C59.4095 33.4 59.8895 33.52 60.3095 33.58C60.8495 33.76 61.2695 33.94 61.6295 34.06C61.9295 34.3 61.9895 34.66 61.8095 35.26C61.5695 35.92 61.3895 36.58 61.2095 37.3C60.9695 38.08 60.8495 38.86 60.8495 39.7C60.8495 40.24 60.7895 40.96 60.7895 41.92C60.7295 42.88 60.7295 43.72 60.7295 44.44C60.7295 44.8 60.6695 45.22 60.6695 45.76C60.6095 46.36 60.6095 47.02 60.6095 47.62C60.5495 48.28 60.5495 48.88 60.5495 49.42C60.4895 50.02 60.4895 50.5 60.4895 50.8C60.4895 51.46 60.4895 52 60.5495 52.48C60.5495 53.02 60.5495 53.5 60.5495 53.98C60.5495 54.52 60.5495 55.06 60.6095 55.6C60.6095 56.2 60.6095 56.92 60.6095 57.7V59.56C60.7895 59.56 60.9695 59.56 61.1495 59.5C61.2695 59.5 61.3895 59.5 61.5695 59.44C62.4695 59.32 63.0695 59.14 63.3695 59.02C63.6095 58.96 64.0295 58.84 64.5095 58.6C64.9895 58.42 65.4695 58.24 65.9495 58.12C66.3095 58 66.7895 58.06 67.2695 58.24C67.6895 58.48 68.1695 58.48 68.7095 58.36C69.1895 58.3 69.6095 58.3 69.9095 58.3C70.3295 58.36 70.7495 58.54 71.1095 58.84C71.4695 59.2 71.6495 59.62 71.7095 60.1ZM26.2895 44.5C26.5895 44.68 27.0695 44.92 27.7895 45.28C28.3895 45.64 29.0495 46.12 29.7695 46.66C30.4295 47.26 31.0295 47.92 31.6295 48.64C32.1095 49.48 32.4695 50.38 32.5895 51.4C32.6495 52.12 32.6495 52.84 32.6495 53.68C32.5295 54.58 32.4695 55.42 32.3495 56.26C32.1695 57.16 31.9895 57.94 31.8095 58.6C31.5695 59.32 31.3895 59.86 31.2095 60.1C31.0895 60.34 30.9095 60.52 30.6695 60.7C30.3695 60.94 30.1295 61.06 29.8895 61.06C29.5895 61.12 29.3495 61.06 29.1695 60.82C28.9295 60.7 28.7495 60.34 28.6895 59.8C28.5695 59.02 28.3895 58 28.2095 56.68C27.9695 55.48 27.7295 54.16 27.4895 52.72C27.1895 51.4 26.8895 50.08 26.5895 48.76C26.2295 47.56 25.8095 46.54 25.3895 45.7C25.1495 45.22 25.0295 44.92 25.0295 44.68C25.0295 44.5 25.0895 44.38 25.2095 44.32C25.3295 44.32 25.5095 44.32 25.7495 44.32C25.9295 44.44 26.1095 44.5 26.2895 44.5ZM39.1895 53.2C38.5895 53.68 38.2295 54.16 38.1695 54.7C38.0495 55.3 38.4095 55.9 39.1895 56.5C39.5495 56.74 40.0895 56.98 40.9295 57.22C41.6495 57.46 42.4895 57.64 43.3295 57.7C43.3895 56.86 43.4495 55.9 43.5695 54.94C43.6295 53.98 43.6895 53.14 43.7495 52.3V50.08C43.3295 50.38 42.9095 50.68 42.4295 50.98C41.9495 51.34 41.4695 51.64 41.0495 51.88C40.5695 52.24 40.1495 52.48 39.8495 52.72C39.4895 52.96 39.3095 53.14 39.1895 53.2Z" fill="white"/>
<rect x="90.5" y="30.5" width="90" height="120" fill="#F6C500"/>
<rect x="90.5" y="30.5" width="90" height="120" stroke="black"/>
<path d="M127.532 79C128.312 79.12 129.152 79.24 130.052 79.48C130.892 79.78 131.672 80.2 132.452 80.74C133.172 81.34 133.832 82 134.372 82.84C134.852 83.74 135.092 84.82 135.212 86.02C135.212 86.62 135.212 86.98 135.212 87.22C135.152 87.46 135.092 87.64 135.092 87.76C134.972 87.88 134.912 88 134.852 88C134.732 88.06 134.612 88.12 134.612 88.24C134.552 88.36 134.552 88.48 134.612 88.48C134.612 88.6 134.672 88.66 134.792 88.78C134.792 88.9 134.852 89.08 134.912 89.26C134.912 89.5 134.912 89.86 134.792 90.22C134.432 91.36 134.012 92.56 133.472 93.76C132.872 95.08 131.972 96.1 130.832 96.88C130.232 97.36 129.512 97.72 128.792 97.9C128.012 98.14 127.292 98.32 126.572 98.38C125.792 98.5 125.132 98.5 124.532 98.5C123.872 98.5 123.392 98.5 123.032 98.5C122.072 98.38 121.172 98.14 120.332 97.78C119.372 97.48 118.592 97.18 117.932 96.82C116.732 96.22 115.892 95.38 115.292 94.3C114.692 93.28 114.272 92.2 114.092 91.06C113.852 89.98 113.852 88.84 113.972 87.76C114.092 86.74 114.272 85.9 114.632 85.18C114.932 84.4 115.412 83.56 116.132 82.66C116.732 81.82 117.632 81.1 118.712 80.38C118.472 79.78 118.292 79.12 118.052 78.52C117.812 77.98 117.572 77.56 117.332 77.26C117.092 77.02 116.912 76.78 116.912 76.54C116.852 76.3 116.912 76.12 117.032 75.94C117.152 75.82 117.332 75.7 117.572 75.64C117.752 75.64 117.992 75.76 118.292 75.94C118.532 76.12 118.772 76.24 119.012 76.36C119.192 76.54 119.432 76.66 119.672 76.78C119.912 76.9 120.152 77.02 120.512 77.14C120.752 77.32 121.112 77.5 121.592 77.68C121.952 77.92 122.252 78.22 122.552 78.58C122.792 79 123.032 79.42 123.212 79.9C123.692 79.72 124.292 79.48 125.072 79.24C125.792 79.06 126.572 79 127.532 79ZM149.552 74.44C149.552 74.8 149.492 75.22 149.492 75.7C149.432 76.3 149.432 76.84 149.432 77.44C149.372 78.04 149.372 78.64 149.372 79.18C149.312 79.78 149.312 80.26 149.312 80.62L150.932 80.44C151.412 80.38 151.772 80.32 152.132 80.2C152.372 80.2 152.612 80.14 152.852 80.02C153.032 80.02 153.212 79.96 153.452 79.84C153.572 79.84 153.812 79.72 154.052 79.6C154.592 79.42 155.072 79.24 155.552 79.12C155.912 79 156.392 79.06 156.932 79.24C157.412 79.48 157.892 79.48 158.492 79.36C158.972 79.3 159.392 79.3 159.692 79.3C160.112 79.36 160.532 79.54 160.952 79.84C161.312 80.2 161.552 80.62 161.612 81.1C161.612 81.46 161.672 81.88 161.672 82.3C161.672 82.78 161.312 83.08 160.652 83.2C159.992 83.32 159.152 83.32 158.192 83.2C157.172 83.08 156.332 82.96 155.612 82.78C155.312 82.78 154.892 82.72 154.352 82.66C153.752 82.66 153.212 82.66 152.612 82.66C152.012 82.66 151.412 82.66 150.872 82.66C150.272 82.72 149.852 82.72 149.612 82.72H149.312C149.312 83.44 149.312 84.16 149.372 84.88C149.372 85.66 149.432 86.62 149.432 87.7C149.432 88.42 149.432 89.2 149.492 90.04C149.492 90.94 149.492 91.78 149.492 92.62L150.932 92.44C151.412 92.38 151.772 92.32 152.132 92.2C152.372 92.2 152.612 92.14 152.852 92.02C153.032 92.02 153.212 91.96 153.452 91.84C153.572 91.84 153.812 91.72 154.052 91.6C154.592 91.42 155.072 91.24 155.552 91.12C155.912 91 156.392 91.06 156.932 91.24C157.412 91.48 157.892 91.48 158.492 91.36C158.972 91.3 159.392 91.3 159.692 91.3C160.112 91.36 160.532 91.54 160.952 91.84C161.312 92.2 161.552 92.62 161.612 93.1C161.612 93.46 161.672 93.88 161.672 94.3C161.672 94.78 161.312 95.08 160.652 95.2C159.992 95.32 159.152 95.32 158.192 95.2C157.172 95.08 156.332 94.96 155.612 94.78C155.312 94.78 154.892 94.72 154.352 94.66C153.752 94.66 153.212 94.66 152.612 94.66C152.012 94.66 151.412 94.66 150.872 94.66C150.272 94.72 149.852 94.72 149.612 94.72H149.432V95.92C149.312 98.08 149.312 99.82 149.312 101.26C149.252 102.76 149.252 103.78 149.252 104.32C149.252 105.28 149.132 106.3 149.012 107.44C148.772 108.58 148.592 109.72 148.352 110.8C148.052 111.88 147.752 112.84 147.512 113.74C147.152 114.58 146.912 115.24 146.672 115.6C146.432 115.96 146.132 116.38 145.892 116.8C145.532 117.16 145.292 117.4 145.052 117.58C144.752 117.7 144.572 117.64 144.452 117.4C144.332 117.1 144.332 116.5 144.512 115.6C144.632 114.7 144.752 113.32 144.872 111.46C144.872 109.54 144.932 107.5 144.992 105.28C144.992 103.12 144.992 100.96 144.992 98.8C144.932 96.7 144.932 94.96 144.932 93.64C144.992 92.62 144.992 91.54 144.932 90.46C144.812 89.38 144.812 88.12 144.812 86.56C144.752 85.6 144.752 84.58 144.752 83.5C144.692 82.48 144.692 81.52 144.692 80.68C144.692 79.9 144.692 79.24 144.692 78.7C144.692 78.22 144.692 77.92 144.752 77.86C144.872 77.74 145.052 77.62 145.232 77.62C145.352 77.62 145.412 77.5 145.532 77.2C145.532 77.08 145.532 76.9 145.472 76.78C145.352 76.66 145.292 76.54 145.232 76.36C145.112 76.24 144.992 76.06 144.932 75.82C144.812 75.64 144.812 75.4 144.872 75.04C144.932 74.62 144.992 74.14 144.992 73.54C144.932 73.06 144.932 72.52 144.932 71.92C144.872 70.72 144.872 69.82 144.992 69.16C144.992 68.56 144.992 68.02 144.932 67.42C144.872 67 144.872 66.52 144.872 65.98C144.812 65.5 144.572 65.08 144.092 64.66C143.612 64.3 143.192 64.06 142.772 63.88C142.292 63.76 141.932 63.58 141.572 63.34C141.332 63.22 141.212 63.1 141.212 62.86C141.152 62.68 141.212 62.5 141.332 62.26C141.392 62.14 141.572 61.96 141.812 61.84C142.052 61.78 142.352 61.78 142.772 61.9C142.952 62.02 143.312 62.08 143.912 62.2C144.392 62.38 144.992 62.56 145.712 62.68C146.312 62.92 146.972 63.1 147.632 63.22C148.232 63.4 148.712 63.52 149.132 63.58C149.672 63.76 150.092 63.94 150.452 64.06C150.752 64.3 150.812 64.66 150.632 65.26C150.392 65.92 150.212 66.58 150.032 67.3C149.792 68.08 149.672 68.86 149.672 69.7C149.672 70.24 149.612 70.96 149.612 71.92C149.552 72.88 149.552 73.72 149.552 74.44ZM122.372 83.56C121.832 84.04 121.412 84.28 121.052 84.34C120.632 84.46 120.272 84.46 120.032 84.34C119.432 84.4 118.952 84.76 118.652 85.42C118.292 86.14 118.052 86.74 117.992 87.34C117.872 88.06 117.872 88.72 117.932 89.38C117.932 90.1 118.112 90.7 118.412 91.3C118.652 91.9 119.012 92.44 119.612 92.92C120.152 93.4 120.932 93.76 121.892 94C123.092 94.36 124.172 94.42 125.252 94.3C126.212 94.18 127.172 93.94 128.072 93.58C129.212 92.68 129.932 91.66 130.292 90.46C130.592 89.38 130.772 88.12 130.892 86.8C130.952 85.42 130.592 84.22 129.872 83.14C129.092 82.12 128.072 81.46 126.752 81.22C126.272 81.16 125.732 81.16 125.132 81.16C124.472 81.22 123.932 81.22 123.452 81.22C123.452 82.18 123.092 82.96 122.372 83.56Z" fill="white"/>
</svg>
