<svg width="361" height="181" viewBox="0 0 361 181" fill="none" xmlns="http://www.w3.org/2000/svg">
<rect x="0.5" y="30.5" width="90" height="120" fill="#F6C500"/>
<rect x="0.5" y="30.5" width="90" height="120" stroke="black"/>
<path d="M52.1717 98.56C52.4717 98.08 52.4717 97.84 52.2317 97.78C51.8717 97.78 51.5717 97.72 51.2717 97.72C50.6717 97.72 50.1317 97.78 49.6517 97.84C49.1117 97.96 48.5717 98.08 48.0917 98.32C47.8517 98.44 47.4917 98.56 47.0717 98.68C46.5917 98.86 46.1717 98.98 45.7517 99.1C45.2717 99.28 44.7917 99.4 44.3717 99.46C43.8917 99.58 43.5317 99.7 43.2917 99.7C43.0517 99.76 42.7517 99.88 42.2717 100C41.7917 100.18 41.2517 100.36 40.7717 100.48C40.2317 100.66 39.7517 100.78 39.3317 100.9C38.8517 101.08 38.4917 101.14 38.3117 101.14C37.8317 101.14 37.4717 100.9 37.2917 100.54C37.0517 100.18 36.8717 99.82 36.8117 99.34C36.8117 99.22 36.7517 98.92 36.7517 98.5C36.6917 98.14 36.6317 97.72 36.6317 97.24C36.5717 96.88 36.5117 96.46 36.5117 96.1C36.4517 95.74 36.4517 95.5 36.5117 95.32C36.5117 95.02 36.6917 94.84 37.0517 94.72C37.2917 94.66 37.5317 94.78 37.6517 95.02C37.8317 95.68 38.0717 96.1 38.4317 96.34C38.7317 96.58 39.4517 96.7 40.6517 96.7C40.8917 96.7 41.3717 96.7 42.0317 96.64C42.6317 96.64 43.2317 96.58 43.9517 96.46C44.5517 96.4 45.2117 96.34 45.8117 96.22C46.3517 96.22 46.7717 96.16 47.0117 96.04C47.8517 95.92 48.7517 95.8 49.8317 95.68C50.0117 95.68 50.3117 95.68 50.6717 95.68C50.9717 95.74 51.2717 95.8 51.6317 95.8C51.9917 95.86 52.3517 95.92 52.7717 95.92C52.8317 95.92 52.9517 95.92 53.0717 95.86C53.3117 95.8 53.5517 95.62 53.7917 95.32C54.0317 95.08 54.3917 95.02 54.8717 95.02C55.2917 95.14 55.7717 95.32 56.2517 95.56C56.3717 95.68 56.5517 95.74 56.7917 95.8C56.9717 95.92 57.1517 96.04 57.3917 96.16C57.5717 96.34 57.7517 96.52 57.9317 96.64C58.0517 96.82 58.0517 97 58.0517 97.24C57.9917 97.78 57.8717 98.32 57.6317 98.8C57.3917 99.34 56.7317 99.88 55.7117 100.48C54.6317 101.08 53.4917 101.5 52.2317 101.74C50.9117 101.98 49.7717 102.28 48.8717 102.58C48.5717 102.7 48.2117 102.76 47.8517 102.88C47.3717 103.06 46.8917 103.18 46.4117 103.3C45.4517 103.78 44.8517 104.08 44.6717 104.26C44.4317 104.44 44.4317 104.56 44.7317 104.62C44.9717 104.74 45.3917 104.8 45.9317 104.8C46.4117 104.86 46.8917 104.86 47.4917 104.86C47.9717 104.86 48.3917 104.86 48.6317 104.86C49.0517 104.86 49.3517 104.8 49.5317 104.62C49.6517 104.5 49.8917 104.32 50.1317 104.08C50.3117 103.9 50.6117 103.78 50.9717 103.66C51.2717 103.66 51.8117 103.66 52.5317 103.66C53.2517 103.72 53.7917 103.78 54.2717 103.9C54.6917 104.02 55.0517 104.14 55.3517 104.14C55.4717 104.14 55.5917 104.2 55.8317 104.32C56.0117 104.44 56.1917 104.62 56.3117 104.74C56.3717 104.98 56.3717 105.16 56.2517 105.4C56.1317 105.7 55.7717 106 55.2917 106.3C54.9317 106.54 54.3917 106.78 53.6717 107.08C52.9517 107.44 52.1717 107.74 51.3317 108.16C50.4317 108.52 49.5317 108.88 48.6317 109.3C47.6717 109.66 46.8317 109.96 46.1117 110.32C45.2717 110.62 44.6117 110.92 44.1317 111.16C43.5917 111.34 43.2917 111.46 43.1717 111.58C42.8117 111.76 42.7517 112 42.8717 112.24C42.9917 112.48 43.2317 112.6 43.7117 112.72C43.9517 112.72 44.3717 112.84 45.0317 113.08C45.6317 113.2 46.2917 113.44 47.0117 113.68C47.7317 113.86 48.3917 114.04 49.0517 114.28C49.6517 114.46 50.1317 114.58 50.4317 114.64C50.8517 114.7 51.3917 114.76 52.1117 114.76C52.7117 114.76 53.4317 114.7 54.1517 114.7C54.8117 114.64 55.4717 114.58 56.1317 114.52C56.7317 114.4 57.1517 114.34 57.5117 114.28C57.8717 114.16 58.2917 114.1 58.7717 114.04C59.1917 113.92 59.6717 113.86 60.1517 113.8C60.5717 113.68 60.9917 113.62 61.3517 113.62C61.7117 113.56 61.9517 113.56 62.1317 113.56C62.2517 113.56 62.5517 113.5 62.9717 113.5C63.3317 113.44 63.7517 113.44 64.1717 113.44C64.5317 113.44 64.8917 113.44 65.2517 113.5C65.4917 113.5 65.6117 113.62 65.6117 113.8C65.4917 114.16 65.6117 114.4 65.9117 114.58C66.1517 114.7 66.3917 114.76 66.6317 114.76C66.7517 114.76 66.9317 114.76 67.2317 114.82C67.4717 114.82 67.4717 115.06 67.1117 115.54C66.7517 115.96 66.3317 116.32 65.8517 116.56C65.3117 116.8 64.8317 116.92 64.3517 117.04C63.9917 117.1 63.4517 117.22 62.7317 117.4C61.9517 117.52 61.1717 117.64 60.3917 117.82C59.5517 117.94 58.7717 118.06 58.0517 118.18C57.2717 118.24 56.6717 118.3 56.3117 118.3C55.4117 118.3 54.3317 118.24 53.0117 118.18C51.6317 118.06 50.4317 117.88 49.4717 117.58C48.9317 117.4 48.3317 117.22 47.6717 116.98C46.9517 116.68 46.2317 116.44 45.6317 116.2C44.9117 115.96 44.3117 115.72 43.8317 115.54C43.2317 115.3 42.8717 115.18 42.6917 115.06C42.2117 114.88 41.7317 114.82 41.2517 114.94C40.7117 114.94 40.1117 115 39.4517 115C38.7317 115 38.1317 114.88 37.7117 114.7C37.2317 114.46 37.0517 113.98 37.1717 113.32C37.2317 112.6 37.3517 112 37.4717 111.4C37.5917 110.74 37.8917 110.44 38.4917 110.44C39.0317 110.44 39.5717 110.5 40.1117 110.62C40.5917 110.68 41.0717 110.62 41.5517 110.44C41.9717 110.2 42.5117 110.02 43.1117 109.9C43.6517 109.66 44.1917 109.42 44.7917 109.06C45.2717 108.7 45.5117 108.52 45.5117 108.46C45.5117 108.34 45.2117 108.28 44.6717 108.28C44.3117 108.28 43.8317 108.28 43.2317 108.28C42.5117 108.28 41.8517 108.22 41.2517 108.1C40.5317 107.98 39.9917 107.8 39.5117 107.56C39.0317 107.32 38.7917 106.96 38.9117 106.48C38.9117 106 38.9717 105.64 39.0317 105.4C39.0317 105.16 39.0917 104.98 39.2117 104.8C39.2717 104.68 39.3917 104.5 39.5717 104.38C39.6917 104.32 39.8717 104.14 40.1717 103.9C40.3517 103.78 40.7717 103.54 41.4917 103.24C42.1517 103 42.9317 102.76 43.8917 102.4C44.7317 102.1 45.6917 101.74 46.7117 101.32C47.6717 100.96 48.6317 100.6 49.4717 100.24C49.8317 100.06 50.3717 99.82 50.9717 99.52C51.5117 99.28 51.9317 98.92 52.1717 98.56ZM32.9117 81.1C33.0917 81.16 33.2717 81.16 33.4517 81.16C33.5717 81.22 33.7517 81.22 33.9917 81.22C34.7117 80.38 35.4917 79.42 36.2717 78.4C36.9917 77.44 37.7717 76.42 38.4917 75.22C38.6717 74.92 38.7317 74.68 38.6717 74.5C38.5517 74.38 38.3117 74.32 38.0117 74.38C37.6517 74.62 37.3517 74.8 37.1117 74.92C36.7517 75.1 36.4517 75.22 36.0917 75.34C35.8517 75.46 35.4917 75.58 35.0717 75.7C34.5917 75.94 34.2917 76.24 34.1117 76.6C33.9917 76.84 33.7517 77.02 33.4517 77.2C33.0917 77.44 32.7317 77.68 32.3717 77.86C31.8917 78.1 31.4717 78.22 30.9917 78.28C30.5117 78.4 30.0317 78.4 29.6117 78.28C29.1317 78.16 28.7117 77.98 28.2917 77.62C27.8117 77.32 27.3317 76.96 26.9117 76.6C26.4317 76.24 26.0717 75.88 25.7117 75.52C25.3517 75.22 25.0517 74.98 24.8117 74.8C24.3317 74.5 24.2117 74.26 24.3317 74.02C24.4517 73.84 24.6917 73.78 25.1117 73.84C25.2917 73.84 25.6517 73.9 26.1917 73.9C26.6717 73.96 27.1517 73.96 27.7517 73.96C28.2917 74.02 28.8317 74.02 29.4317 73.96C29.9717 73.96 30.4517 73.96 30.8117 73.84C31.2317 73.72 31.7117 73.66 32.3117 73.78C32.8517 73.9 33.2117 73.96 33.3917 73.96C33.5717 73.96 33.9317 73.84 34.4117 73.48C34.8317 73.18 35.3717 72.88 36.0917 72.64L39.2117 71.5C39.6917 71.38 40.0517 71.2 40.2917 70.84C40.2917 70.78 40.3517 70.66 40.4117 70.48C40.4117 70.36 40.5317 70.24 40.6517 70.12C40.7717 70 40.9517 69.94 41.1917 69.88C41.3717 69.88 41.7317 69.88 42.2117 70C43.1717 70.24 43.9517 70.54 44.6117 70.78C45.2117 71.08 45.7517 71.32 46.1117 71.5C46.2317 71.62 46.3517 71.74 46.4717 71.98C46.4717 72.22 46.4717 72.46 46.4717 72.7C46.4117 73 46.2917 73.3 46.1717 73.54C45.9917 73.84 45.7517 74.08 45.5117 74.2C44.9717 74.5 44.5517 74.86 44.1917 75.28C43.7717 75.76 43.4117 76.18 43.1117 76.6C41.7917 78.16 40.2317 79.84 38.4317 81.64C38.6117 81.7 38.8517 81.76 39.0917 81.76C39.3317 81.88 39.5717 81.94 39.8117 82C41.1317 82.48 42.3917 82.9 43.5317 83.26C44.6117 83.74 45.7517 84.52 47.0117 85.6C47.3717 85.96 47.7317 86.32 48.0917 86.56C48.3917 86.92 48.6917 87.22 48.9317 87.58C49.1717 87.94 49.3517 88.36 49.4717 88.78C49.5317 89.26 49.5317 89.8 49.4117 90.4C49.2917 91 49.1117 91.42 48.9317 91.66C48.6917 91.96 48.5117 92.14 48.2717 92.26C48.0317 92.38 47.7917 92.5 47.6117 92.5C47.3717 92.56 47.1317 92.68 47.0117 92.8C46.8317 92.98 46.5917 93.04 46.3517 93.04C46.0517 93.1 45.8117 93.1 45.5717 92.98C45.2717 92.92 45.0317 92.8 44.8517 92.56C44.6117 92.44 44.5517 92.2 44.6117 91.84C44.6117 91.6 44.6117 91.36 44.6117 91.12C44.5517 91 44.4917 90.82 44.4917 90.7C44.3717 90.58 44.3117 90.46 44.3117 90.28C44.2517 90.16 44.2517 90.04 44.3117 89.8C44.3717 89.38 44.4317 89.02 44.4917 88.78C44.4917 88.6 44.3117 88.36 44.0117 88C42.9917 86.92 41.9717 86.14 41.0117 85.6C39.9917 85.12 38.9117 84.64 37.7117 84.1C37.4117 84.04 37.1717 83.98 36.9317 83.92C36.6917 83.92 36.3917 83.86 36.1517 83.8C34.5917 85.24 33.0317 86.62 31.5317 87.94C29.9717 89.32 28.6517 90.52 27.5117 91.6C26.8517 92.2 26.1317 92.56 25.3517 92.74C24.5117 92.98 23.7917 93.04 23.3117 92.8C22.1717 92.32 21.4517 91.9 21.2117 91.54C21.0317 91.42 21.0317 91.18 21.1517 90.94C21.2717 90.7 21.4517 90.64 21.8117 90.7C22.1117 90.82 22.5917 90.88 23.1917 90.88C23.7917 90.94 24.3917 90.7 25.1117 90.1C26.1917 89.02 27.3317 87.94 28.4717 86.86C29.5517 85.9 30.5717 84.82 31.6517 83.74C31.3517 83.68 31.1117 83.56 30.9317 83.44C30.8117 83.38 30.7517 83.32 30.7517 83.26C30.7517 83.26 30.6317 83.26 30.3917 83.32C30.1517 83.38 29.9117 83.44 29.6717 83.44C29.3717 83.5 29.1317 83.5 28.9517 83.38C28.7117 83.26 28.6517 83.14 28.6517 83.02C28.6517 82.96 28.4717 82.9 28.2317 82.84C27.9317 82.84 27.6917 82.84 27.5117 82.84C27.2717 82.9 26.9717 82.9 26.6117 82.78C26.1917 82.72 25.9517 82.6 25.9517 82.42C25.8317 82.3 26.0717 82.18 26.6117 82C26.9717 81.88 27.5117 81.7 28.1117 81.52C28.6517 81.4 29.2517 81.34 29.8517 81.22C30.3917 81.16 30.9317 81.1 31.5317 81.04C32.0717 81.04 32.5517 81.1 32.9117 81.1ZM71.3117 80.5C71.3117 80.68 71.3717 80.86 71.4317 81.04C71.4317 81.28 71.4917 81.52 71.4917 81.7C71.4917 81.94 71.4317 82.12 71.3117 82.24C71.1317 82.42 70.8917 82.54 70.5917 82.6C69.9317 82.84 69.0917 82.9 68.1317 82.9C67.0517 82.9 66.2117 82.9 65.5517 82.78C65.2517 82.78 64.8317 82.78 64.2917 82.78C63.6917 82.84 63.1517 82.9 62.5517 82.9C61.9517 82.96 61.3517 83.02 60.8117 83.02C60.2117 83.14 59.7917 83.2 59.5517 83.2C59.4917 83.2 59.4917 83.2 59.4917 83.2C59.4317 83.26 59.3717 83.26 59.3717 83.26V83.5H59.3117C59.3117 84.1 59.2517 84.7 59.2517 85.24C59.1917 85.84 59.1317 86.26 59.1317 86.62C59.0717 87.1 58.9517 87.58 58.8317 88.12C58.5917 88.72 58.4117 89.26 58.1717 89.74C57.9317 90.34 57.6317 90.82 57.3917 91.24C57.0917 91.72 56.8517 92.02 56.6117 92.2C56.3717 92.44 56.0717 92.62 55.8317 92.74C55.4717 92.98 55.2317 93.1 54.9917 93.1C54.6917 93.22 54.5117 93.16 54.3917 93.04C54.2717 92.92 54.2717 92.68 54.4517 92.2C54.5717 91.9 54.6317 91.42 54.6917 90.76C54.6917 90.16 54.7517 89.38 54.8117 88.54C54.8117 87.76 54.8717 86.92 54.8717 86.02C54.8117 85.18 54.8117 84.34 54.8117 83.5H54.7517C54.6917 81.88 54.6917 80.44 54.6917 79.18C54.6317 77.98 54.6317 77.38 54.7517 77.26C54.8717 77.08 55.0517 76.96 55.2317 76.96C55.3517 77.02 55.4117 76.9 55.5317 76.6C55.5317 76.48 55.5317 76.3 55.4717 76.18C55.3517 76.06 55.2917 75.94 55.2317 75.76C55.1117 75.64 54.9917 75.4 54.9317 75.16C54.8117 74.98 54.8117 74.74 54.8717 74.38C54.9317 73.96 54.9917 73.48 54.9917 72.88C54.9917 72.4 54.9917 71.86 54.9917 71.32C54.9317 70.72 54.9317 70.24 54.9317 69.82C54.9317 69.46 54.9317 69.16 54.9917 68.86C54.9917 68.62 54.9917 68.38 54.9917 68.14C54.9917 67.96 54.9917 67.72 54.9917 67.48C54.8717 67.06 54.8717 66.58 54.8717 66.04C54.8117 65.56 54.5717 65.14 54.0917 64.72C53.6117 64.36 53.1917 64.12 52.8317 63.94C52.3517 63.82 51.9317 63.64 51.5717 63.4C51.3317 63.28 51.2117 63.16 51.2117 62.92C51.1517 62.74 51.2117 62.56 51.3317 62.32C51.3917 62.2 51.5717 62.02 51.8117 61.9C52.0517 61.84 52.3517 61.84 52.7717 61.9C53.0117 62.02 53.3717 62.14 53.9717 62.26C54.4517 62.44 55.0517 62.62 55.7117 62.8C56.3117 63.04 56.9717 63.22 57.6317 63.34C58.2317 63.52 58.7717 63.64 59.1317 63.7C59.6717 63.88 60.0917 64.06 60.4517 64.18C60.7517 64.42 60.8117 64.78 60.6317 65.38C60.3917 66.04 60.2117 66.7 60.0317 67.42C59.7917 68.14 59.6717 68.92 59.6717 69.7C59.6717 70.3 59.6717 70.9 59.6717 71.62C59.6117 72.34 59.6117 73.12 59.6117 73.84C59.6117 74.38 59.5517 75.34 59.4917 76.66C59.3717 78.04 59.3717 79.48 59.3717 81.04L60.5717 80.8C61.0517 80.68 61.4117 80.62 61.7717 80.5C62.0117 80.44 62.2517 80.38 62.4917 80.26C62.6117 80.26 62.7917 80.14 63.0317 80.02C63.1517 79.96 63.3917 79.84 63.6317 79.72C64.1117 79.48 64.5917 79.3 65.0717 79.12C65.4917 79 65.9717 78.94 66.4517 79.06C66.9917 79.18 67.5317 79.18 68.0717 79.06C68.5517 79 68.9117 78.94 69.2117 78.94C69.6917 78.94 70.1117 79.06 70.5917 79.3C70.9517 79.66 71.1917 80.02 71.3117 80.5Z" fill="white"/>
<rect x="90.5" y="0.5" width="90" height="120" fill="#F6C500"/>
<rect x="90.5" y="0.5" width="90" height="120" stroke="black"/>
<path d="M122.298 74.5C121.818 74.62 121.278 74.68 120.738 74.68C120.138 74.8 119.538 74.8 118.938 74.8C118.338 74.8 117.738 74.74 117.258 74.62C116.658 74.56 116.178 74.44 115.818 74.2C114.978 73.78 114.378 73.36 113.898 73C113.358 72.7 112.878 72.4 112.398 72.1C112.158 71.98 111.978 71.8 111.918 71.56C111.798 71.38 111.738 71.2 111.858 70.96C111.858 70.84 112.038 70.66 112.278 70.54C112.518 70.42 112.878 70.42 113.358 70.54C114.138 70.78 114.978 70.84 115.938 70.78C116.838 70.78 117.858 70.72 118.938 70.6C119.238 70.6 119.778 70.6 120.558 70.48C121.278 70.42 122.118 70.36 123.198 70.24V70.18C124.038 69.94 124.758 69.7 125.358 69.46C125.898 69.22 126.378 68.98 126.798 68.68C127.158 68.44 127.518 68.14 127.878 67.78C128.178 67.54 128.538 67.18 128.898 66.7C129.138 66.46 129.378 66.1 129.738 65.68C130.038 65.32 130.338 64.9 130.638 64.42C130.878 64.06 131.178 63.64 131.418 63.28C131.598 62.98 131.778 62.74 131.898 62.5C131.958 62.32 132.018 62.08 132.078 61.78C132.078 61.54 131.838 61.24 131.298 60.94C130.218 60.58 129.378 60.16 128.778 59.56C128.118 59.08 127.578 58.54 127.098 58C126.798 57.76 126.558 57.34 126.318 56.86C126.018 56.38 125.838 55.9 125.838 55.3C125.778 54.76 125.898 54.16 126.258 53.5C126.498 52.9 127.098 52.3 127.998 51.7C128.838 51.16 129.978 50.56 131.478 49.84C132.918 49.18 134.358 48.52 135.918 47.8C135.918 46.36 135.978 44.92 136.098 43.6C136.098 42.58 135.858 41.86 135.378 41.38C134.838 41.02 134.298 40.66 133.698 40.3C133.458 40.18 133.278 40 133.278 39.64C133.158 39.34 133.518 39.16 134.298 39.1C134.658 39.1 135.198 39.1 135.798 39.1C136.338 39.22 136.878 39.28 137.478 39.34C138.018 39.46 138.558 39.58 139.038 39.7C139.458 39.82 139.758 39.94 139.878 40C140.178 40.18 140.538 40.48 140.898 40.84C141.198 41.26 141.258 41.86 141.078 42.7C140.958 42.94 140.898 43.12 140.898 43.36C140.778 43.6 140.718 43.9 140.658 44.2C140.598 44.5 140.598 44.74 140.598 44.98C140.538 45.28 140.538 45.58 140.538 45.82C141.018 45.58 141.498 45.4 141.918 45.16C142.278 45.04 142.518 44.92 142.698 44.8C143.238 44.5 143.598 44.44 143.838 44.68C144.018 44.92 143.838 45.28 143.298 45.7C142.938 45.94 142.518 46.24 142.038 46.48C141.498 46.84 140.958 47.14 140.418 47.44C140.298 48.52 140.238 49.6 140.238 50.56C140.178 51.58 140.178 52.66 140.298 53.8C140.298 54.64 140.298 55.6 140.178 56.56C140.058 57.64 139.878 58.6 139.758 59.5C139.698 60.1 139.518 60.46 139.218 60.7C138.858 61 138.438 61.18 138.018 61.24C137.538 61.48 137.178 61.66 136.878 61.84C136.518 62.08 136.218 62.32 136.098 62.5C135.258 63.34 134.538 64.24 133.818 65.14C133.038 66.1 132.318 67 131.598 67.9C131.358 68.26 131.298 68.5 131.478 68.74C131.598 68.98 132.198 69.1 133.278 68.98V69.04L140.538 68.2C141.018 68.2 141.678 68.08 142.518 67.84C143.298 67.72 144.138 67.48 145.038 67.24C145.878 67 146.658 66.76 147.498 66.46C148.278 66.22 148.938 65.98 149.418 65.74V63.64C149.478 62.62 149.478 61.54 149.418 60.46C149.298 59.38 149.298 58.12 149.298 56.56C149.238 55.6 149.238 54.58 149.238 53.5C149.178 52.48 149.178 51.52 149.178 50.68C149.178 49.9 149.178 49.24 149.178 48.7C149.178 48.22 149.178 47.92 149.238 47.86C149.358 47.74 149.538 47.62 149.718 47.62C149.838 47.62 149.898 47.5 150.018 47.2C150.018 47.08 150.018 46.9 149.958 46.78C149.838 46.66 149.778 46.54 149.718 46.36C149.598 46.24 149.478 46.06 149.418 45.82C149.298 45.64 149.298 45.4 149.358 45.04C149.418 44.62 149.478 44.14 149.478 43.54C149.418 43.06 149.418 42.52 149.418 41.92C149.358 40.72 149.358 39.82 149.478 39.16C149.478 38.56 149.478 38.02 149.418 37.42C149.358 37 149.358 36.52 149.358 35.98C149.298 35.5 149.058 35.08 148.578 34.66C148.098 34.3 147.678 34.06 147.258 33.88C146.778 33.76 146.418 33.58 146.058 33.34C145.818 33.22 145.698 33.1 145.698 32.86C145.638 32.68 145.698 32.5 145.818 32.26C145.878 32.14 146.058 31.96 146.298 31.84C146.538 31.78 146.838 31.78 147.258 31.9C147.438 32.02 147.798 32.08 148.398 32.2C148.878 32.38 149.478 32.56 150.198 32.68C150.798 32.92 151.458 33.1 152.118 33.22C152.718 33.4 153.198 33.52 153.618 33.58C154.158 33.76 154.578 33.94 154.938 34.06C155.238 34.3 155.298 34.66 155.118 35.26C154.878 35.92 154.698 36.58 154.518 37.3C154.278 38.08 154.158 38.86 154.158 39.7C154.158 40.24 154.098 40.96 154.098 41.92C154.038 42.88 154.038 43.72 154.038 44.44C154.038 44.8 153.978 45.22 153.978 45.76C153.918 46.36 153.918 47.02 153.918 47.62C153.858 48.28 153.858 48.88 153.858 49.42C153.798 50.02 153.798 50.5 153.798 50.8C153.798 51.46 153.798 52 153.858 52.48C153.858 53.02 153.858 53.5 153.858 53.98C153.858 54.52 153.858 55.06 153.918 55.6C153.918 56.2 153.918 56.92 153.918 57.7C153.918 58.3 153.918 58.96 153.978 59.68C153.978 60.46 153.978 61.18 153.978 61.9C153.978 62.68 153.978 63.4 153.978 64.06C153.918 64.78 153.918 65.44 153.918 65.92C153.798 68.08 153.798 69.82 153.798 71.26C153.738 72.76 153.738 73.78 153.738 74.32C153.738 75.28 153.618 76.3 153.498 77.44C153.258 78.58 153.078 79.72 152.838 80.8C152.538 81.88 152.238 82.84 151.998 83.74C151.638 84.58 151.398 85.24 151.158 85.6C150.918 85.96 150.618 86.38 150.378 86.8C150.018 87.16 149.778 87.4 149.538 87.58C149.238 87.7 149.058 87.64 148.938 87.4C148.818 87.1 148.818 86.5 148.998 85.6C149.118 84.88 149.178 83.8 149.298 82.48C149.358 81.04 149.418 79.54 149.478 77.86C149.478 76.18 149.478 74.44 149.478 72.64C149.418 70.9 149.418 69.22 149.418 67.66C148.938 67.96 148.398 68.26 147.678 68.56C146.898 68.92 146.118 69.28 145.338 69.52C144.498 69.82 143.778 70.06 143.178 70.24C142.458 70.48 142.038 70.6 141.798 70.6C141.258 70.72 140.478 70.9 139.398 71.08C138.258 71.32 137.058 71.56 135.738 71.8C134.358 72.1 132.978 72.4 131.538 72.64C130.098 72.94 128.718 73.18 127.458 73.42C126.138 73.72 125.058 73.96 124.158 74.08C123.198 74.32 122.538 74.44 122.298 74.5ZM118.398 44.5C118.698 44.68 119.178 44.92 119.898 45.28C120.498 45.64 121.158 46.12 121.878 46.66C122.538 47.26 123.138 47.92 123.738 48.64C124.218 49.48 124.578 50.38 124.698 51.4C124.758 52.12 124.758 52.84 124.758 53.68C124.638 54.58 124.578 55.42 124.458 56.26C124.278 57.16 124.098 57.94 123.918 58.6C123.678 59.32 123.498 59.86 123.318 60.1C123.198 60.34 123.018 60.52 122.778 60.7C122.478 60.94 122.238 61.06 121.998 61.06C121.698 61.12 121.458 61.06 121.278 60.82C121.038 60.7 120.858 60.34 120.798 59.8C120.678 59.02 120.498 58 120.318 56.68C120.078 55.48 119.838 54.16 119.598 52.72C119.298 51.4 118.998 50.08 118.698 48.76C118.338 47.56 117.918 46.54 117.498 45.7C117.258 45.22 117.138 44.92 117.138 44.68C117.138 44.5 117.198 44.38 117.318 44.32C117.438 44.32 117.618 44.32 117.858 44.32C118.038 44.44 118.218 44.5 118.398 44.5ZM131.298 53.2C130.698 53.68 130.338 54.16 130.278 54.7C130.158 55.3 130.518 55.9 131.298 56.5C131.658 56.74 132.198 56.98 133.038 57.22C133.758 57.46 134.598 57.64 135.438 57.7C135.498 56.86 135.558 55.9 135.678 54.94C135.738 53.98 135.798 53.14 135.858 52.3V50.08C135.438 50.38 135.018 50.68 134.538 50.98C134.058 51.34 133.578 51.64 133.158 51.88C132.678 52.24 132.258 52.48 131.958 52.72C131.598 52.96 131.418 53.14 131.298 53.2Z" fill="white"/>
<rect x="180.5" y="30.5" width="90" height="120" fill="#F6C500"/>
<rect x="180.5" y="30.5" width="90" height="120" stroke="black"/>
<path d="M218.229 76.9C218.349 77.86 218.529 78.58 218.769 79.06C218.889 79.6 219.129 79.96 219.429 80.14C219.669 80.38 219.969 80.5 220.329 80.44C220.689 80.44 221.109 80.32 221.589 80.2C222.069 80.08 222.609 79.96 223.269 79.78C223.869 79.66 224.469 79.54 225.069 79.3C225.669 79.18 226.209 79 226.749 78.76C227.229 78.58 227.649 78.34 227.889 78.1C228.129 77.86 228.429 77.62 228.789 77.38C229.149 77.14 229.509 76.96 229.929 76.78C230.289 76.66 230.709 76.54 231.129 76.48C231.489 76.48 231.849 76.48 232.089 76.6L232.509 76.96C232.629 76.54 232.809 76.18 232.929 75.82C233.049 75.52 233.169 75.28 233.289 75.16C233.409 75.04 233.709 74.86 234.069 74.62C234.369 74.5 234.729 74.32 235.149 74.2C235.509 74.14 235.929 74.08 236.409 74.02C236.769 74.02 237.129 74.08 237.489 74.2C238.089 74.44 238.629 74.86 238.989 75.46C239.289 76.06 239.469 76.66 239.529 77.2C239.589 77.8 239.529 78.16 239.289 78.28C238.989 78.52 238.629 78.76 238.149 79.06C237.669 79.36 237.249 79.66 236.829 79.9C236.349 80.2 235.989 80.44 235.809 80.68C235.569 80.92 235.329 80.98 235.149 80.98C234.909 81.04 234.609 81.04 234.189 81.04C233.709 81.04 233.409 81.1 233.229 81.1C232.989 81.16 232.749 81.28 232.569 81.52C232.329 81.76 231.969 81.88 231.609 81.82C231.189 81.82 231.069 81.64 231.249 81.22L231.669 79.66C230.829 79.96 229.989 80.26 229.029 80.56C228.069 80.92 227.349 81.34 226.989 81.7C226.629 82 226.209 82.3 225.729 82.54C225.189 82.9 224.649 83.2 224.049 83.44C223.449 83.74 222.849 83.98 222.309 84.16C221.709 84.4 221.289 84.58 220.989 84.7C220.749 84.82 220.449 84.88 219.969 84.94C219.489 85.06 219.129 85.06 218.889 85C218.169 84.94 217.509 84.7 216.909 84.22C216.309 83.86 215.769 83.32 215.289 82.6C214.629 81.76 214.149 80.92 213.909 79.96C213.609 79.12 213.429 78.16 213.429 77.2C213.309 76.24 213.309 75.28 213.369 74.26C213.369 73.3 213.429 72.28 213.489 71.2C213.489 70.36 213.429 69.64 213.369 69.04C213.249 68.56 213.069 68.14 212.949 67.78C212.709 67.48 212.529 67.24 212.289 67C211.989 66.82 211.689 66.64 211.389 66.4C210.729 65.98 210.489 65.56 210.669 65.14C210.789 64.78 211.149 64.72 211.689 64.9C211.929 65.02 212.349 65.14 212.949 65.26C213.429 65.44 214.029 65.62 214.629 65.74C215.229 65.98 215.769 66.16 216.309 66.28C216.789 66.46 217.149 66.58 217.389 66.7C217.869 66.94 218.169 67.3 218.289 67.9C218.409 68.5 218.409 69.52 218.289 70.9C218.169 71.86 218.109 72.64 218.109 73.18C217.989 73.78 217.989 74.2 217.989 74.56C217.989 74.98 217.989 75.34 218.049 75.64C218.049 76 218.109 76.42 218.229 76.9ZM201.489 91.84C202.209 92.08 203.049 92.14 204.009 92.08C204.849 92.08 205.809 92.02 206.889 91.9C207.249 91.9 208.089 91.84 209.409 91.72C210.609 91.6 212.049 91.48 213.729 91.3C215.349 91.18 217.089 91 218.949 90.82C220.749 90.7 222.489 90.52 224.109 90.34C225.669 90.22 227.049 90.04 228.189 89.92C229.269 89.86 229.989 89.8 230.289 89.74C230.769 89.74 231.609 89.62 232.869 89.5C234.069 89.38 235.389 89.26 236.769 89.08C238.089 88.96 239.289 88.84 240.369 88.72C241.449 88.66 242.049 88.6 242.289 88.6C242.469 88.6 242.709 88.48 242.949 88.24C243.189 88 243.429 87.76 243.789 87.52C244.029 87.34 244.389 87.16 244.749 87.04C245.049 86.98 245.409 87.04 245.889 87.28C246.249 87.52 246.669 87.82 247.149 88.18C247.569 88.54 247.989 88.9 248.469 89.2C248.829 89.56 249.249 89.86 249.609 90.1C249.909 90.4 250.149 90.58 250.389 90.7C250.569 90.82 250.689 91.06 250.809 91.3C250.869 91.6 250.869 91.9 250.869 92.14C250.749 92.44 250.629 92.68 250.509 92.86C250.269 93.1 250.029 93.16 249.789 93.1C249.309 93.1 248.709 93.04 247.989 93.04C247.209 93.1 246.429 93.16 245.589 93.28C244.689 93.4 243.849 93.58 243.009 93.76C242.169 94 241.449 94.24 240.849 94.6C239.949 95.08 239.289 95.2 238.869 95.02C238.389 94.9 238.569 94.6 239.289 94C239.589 93.76 239.949 93.46 240.369 93.04C240.729 92.68 241.089 92.32 241.389 91.96C241.629 91.6 241.749 91.3 241.869 91.06C241.869 90.82 241.749 90.7 241.389 90.7C241.029 90.7 240.309 90.76 239.349 90.82C238.329 90.94 237.249 91 236.109 91.12C234.909 91.24 233.709 91.36 232.629 91.48C231.489 91.66 230.589 91.78 229.989 91.9C229.509 92.02 228.789 92.2 227.769 92.38C226.689 92.62 225.489 92.8 224.169 93.04C222.729 93.34 221.289 93.64 219.849 93.88C218.289 94.24 216.909 94.48 215.589 94.72C214.209 95.02 213.069 95.26 212.109 95.38C211.089 95.62 210.429 95.74 210.189 95.8C209.709 95.92 209.169 95.98 208.629 95.98C208.029 96.1 207.489 96.1 206.949 96.1C206.349 96.1 205.749 96.04 205.269 95.92C204.729 95.86 204.249 95.74 203.889 95.5C203.049 95.08 202.449 94.66 201.969 94.3C201.489 94 201.009 93.7 200.589 93.4C200.349 93.28 200.169 93.1 200.109 92.86C199.989 92.68 199.929 92.5 200.049 92.26C200.049 92.14 200.229 91.96 200.469 91.84C200.709 91.72 201.009 91.72 201.489 91.84ZM221.169 99.4C221.469 99.4 221.769 99.58 222.009 99.82C222.189 100.12 222.129 100.48 221.889 100.9C221.769 101.14 221.589 101.44 221.409 101.8C221.169 102.22 220.989 102.64 220.809 103C220.569 103.48 220.329 103.84 220.209 104.2C219.969 104.62 219.849 104.92 219.789 105.1C219.729 105.34 219.669 105.76 219.609 106.24C219.489 106.84 219.369 107.44 219.369 108.04C219.309 108.64 219.309 109.24 219.369 109.84C219.369 110.38 219.549 110.8 219.789 111.1C220.269 111.64 220.869 112 221.589 112.18C222.189 112.3 222.789 112.42 223.389 112.48C224.049 112.48 224.949 112.42 226.089 112.42C227.169 112.3 228.369 112.24 229.569 112.12C230.709 111.94 231.789 111.76 232.869 111.64C233.829 111.46 234.609 111.28 235.089 111.1C235.869 110.8 236.529 110.68 237.129 110.74C237.669 110.74 238.209 110.92 238.689 111.4C238.929 111.64 239.169 111.82 239.469 112C239.709 112.12 239.949 112.3 240.189 112.48C240.309 112.6 240.429 112.72 240.489 112.84C240.489 112.96 240.429 113.08 240.189 113.2C239.649 113.44 239.169 113.74 238.749 113.98C238.269 114.16 237.669 114.34 236.889 114.58C236.529 114.7 236.229 114.82 236.109 115C235.869 115.12 235.749 115.24 235.629 115.42C235.449 115.54 235.269 115.72 235.089 115.9C234.849 116.02 234.549 116.08 234.129 116.2C233.649 116.26 232.809 116.32 231.609 116.38C230.409 116.38 229.089 116.38 227.769 116.38C226.329 116.32 225.009 116.26 223.809 116.2C222.489 116.08 221.589 116.02 220.989 115.9C219.549 115.6 218.289 114.94 217.329 113.98C216.249 112.9 215.769 111.46 215.889 109.6C215.949 108.4 216.009 107.38 216.129 106.3C216.129 105.28 216.189 104.5 216.189 103.9C216.189 103.54 216.009 103.24 215.769 102.94C215.469 102.7 215.229 102.46 214.989 102.1C214.749 101.86 214.509 101.5 214.269 101.08C213.909 100.72 213.909 100.3 214.269 99.7C214.569 99.1 214.809 98.74 215.049 98.62C215.229 98.56 215.469 98.62 215.769 98.8C215.889 98.92 215.949 99.04 216.009 99.16C216.009 99.28 216.009 99.4 216.009 99.46C216.009 99.58 216.009 99.7 216.069 99.76C216.069 99.88 216.189 99.88 216.429 99.88C216.789 100 217.149 99.94 217.509 99.76C217.809 99.64 218.229 99.52 218.709 99.46C219.129 99.46 219.549 99.4 220.029 99.34C220.449 99.34 220.809 99.4 221.169 99.4Z" fill="white"/>
<rect x="270.5" y="60.5" width="90" height="120" fill="#F6C500"/>
<rect x="270.5" y="60.5" width="90" height="120" stroke="black"/>
<path d="M317.291 124.48C316.331 124.36 315.911 124.06 315.911 123.7C315.851 123.4 316.091 123.22 316.691 123.1C316.931 123.1 317.171 123.04 317.411 122.98C317.531 122.98 317.771 122.98 318.011 122.92C318.251 122.92 318.551 122.86 318.911 122.8C319.211 122.8 319.691 122.8 320.291 122.8C320.651 122.8 321.191 122.8 321.911 122.68C322.511 122.62 323.231 122.5 324.071 122.32C324.791 122.2 325.631 122.08 326.471 121.84C327.311 121.66 328.091 121.48 328.811 121.24C328.811 120.58 328.751 119.86 328.751 119.08C328.691 118.36 328.691 117.52 328.691 116.56C328.631 116.26 328.631 115.9 328.631 115.54C328.631 115.18 328.631 114.82 328.631 114.46C328.391 114.58 328.151 114.7 327.911 114.76C327.671 114.88 327.431 115 327.191 115C326.831 115.12 326.411 115.18 325.871 115.3C325.271 115.48 324.731 115.6 324.191 115.72C323.591 115.84 323.111 115.96 322.631 115.96C322.091 116.08 321.731 116.02 321.491 115.9C321.251 115.78 321.071 115.66 320.951 115.48C320.711 115.36 320.531 115.18 320.351 115C320.111 114.88 319.871 114.7 319.631 114.52C319.271 114.4 318.911 114.34 318.491 114.28C317.531 114.16 317.111 113.86 317.111 113.5C317.051 113.2 317.291 113.02 317.891 112.9C318.131 112.9 318.371 112.84 318.611 112.78C318.731 112.78 318.971 112.78 319.211 112.72C319.451 112.72 319.751 112.66 320.111 112.6C320.411 112.6 320.891 112.6 321.491 112.6C322.151 112.6 323.171 112.48 324.551 112.24C325.871 112 327.191 111.76 328.571 111.4C328.511 110.44 328.511 109.66 328.571 108.94C328.571 108.28 328.571 107.92 328.631 107.86C328.751 107.74 328.931 107.62 329.111 107.62C329.231 107.62 329.291 107.5 329.411 107.2C329.411 107.08 329.411 106.9 329.351 106.78C329.231 106.66 329.171 106.54 329.111 106.36C328.991 106.24 328.871 106.06 328.811 105.82C328.691 105.64 328.691 105.4 328.751 105.04C328.811 104.62 328.871 104.14 328.871 103.54C328.811 103.06 328.811 102.52 328.811 101.92C328.751 100.72 328.751 99.82 328.871 99.16C328.871 98.56 328.871 98.02 328.811 97.42C328.751 97 328.751 96.52 328.751 95.98C328.691 95.5 328.451 95.08 327.971 94.66C327.491 94.3 327.071 94.06 326.651 93.88C326.171 93.76 325.811 93.58 325.451 93.34C325.211 93.22 325.091 93.1 325.091 92.86C325.031 92.68 325.091 92.5 325.211 92.26C325.271 92.14 325.451 91.96 325.691 91.84C325.931 91.78 326.231 91.78 326.651 91.9C326.831 92.02 327.191 92.08 327.791 92.2C328.271 92.38 328.871 92.56 329.591 92.68C330.191 92.92 330.851 93.1 331.511 93.22C332.111 93.4 332.591 93.52 333.011 93.58C333.551 93.76 333.971 93.94 334.331 94.06C334.631 94.3 334.691 94.66 334.511 95.26C334.271 95.92 334.091 96.58 333.911 97.3C333.671 98.08 333.551 98.86 333.551 99.7C333.551 100.24 333.491 100.96 333.491 101.92C333.431 102.88 333.431 103.72 333.431 104.44C333.431 104.8 333.371 105.22 333.371 105.76C333.311 106.36 333.311 107.02 333.311 107.62C333.251 108.28 333.251 108.88 333.251 109.42C333.191 110.02 333.191 110.5 333.191 110.8C333.191 111.46 333.191 112 333.251 112.48C333.251 113.02 333.251 113.5 333.251 113.98C333.251 114.52 333.251 115.06 333.311 115.6C333.311 116.2 333.311 116.92 333.311 117.7C333.311 118.3 333.311 118.96 333.371 119.68C333.371 120.46 333.371 121.18 333.371 121.9C333.371 122.68 333.371 123.4 333.371 124.06C333.311 124.78 333.311 125.44 333.311 125.92C333.191 128.08 333.191 129.82 333.191 131.26C333.131 132.76 333.131 133.78 333.131 134.32C333.131 135.28 333.011 136.3 332.891 137.44C332.651 138.58 332.471 139.72 332.231 140.8C331.931 141.88 331.631 142.84 331.391 143.74C331.031 144.58 330.791 145.24 330.551 145.6C330.311 145.96 330.011 146.38 329.771 146.8C329.411 147.16 329.171 147.4 328.931 147.58C328.631 147.7 328.451 147.64 328.331 147.4C328.211 147.1 328.211 146.5 328.391 145.6C328.511 144.7 328.631 143.32 328.751 141.52C328.751 139.6 328.811 137.62 328.871 135.46C328.871 133.3 328.871 131.2 328.871 129.04C328.811 127 328.811 125.26 328.811 123.88C328.271 124.24 327.791 124.48 327.371 124.72C326.891 124.96 326.471 125.14 325.991 125.2C325.631 125.32 325.211 125.38 324.671 125.5C324.071 125.68 323.531 125.8 322.991 125.92C322.391 126.04 321.911 126.16 321.431 126.16C320.891 126.28 320.531 126.22 320.291 126.1C320.051 125.98 319.871 125.86 319.751 125.68C319.511 125.56 319.331 125.38 319.151 125.2C318.911 125.08 318.671 124.9 318.431 124.72C318.071 124.6 317.711 124.54 317.291 124.48ZM309.371 114.16C309.791 113.56 310.211 112.96 310.571 112.36C310.871 111.76 311.231 111.22 311.651 110.62C311.951 110.02 312.011 109.66 311.891 109.48C311.651 109.36 311.291 109.36 310.811 109.54L309.911 109.84C309.311 110.08 308.771 110.26 308.291 110.44C307.691 110.68 307.271 110.8 306.971 110.92C306.071 111.28 305.111 111.64 304.151 112.06C303.131 112.54 302.231 112.84 301.391 112.9C300.071 112.9 298.991 112.66 298.031 112.18C297.011 111.76 296.231 111.4 295.691 111.1C295.511 111.04 295.391 110.92 295.331 110.68C295.211 110.5 295.211 110.26 295.271 110.02C295.271 109.84 295.391 109.66 295.571 109.48C295.691 109.36 295.931 109.3 296.291 109.3C296.531 109.36 296.831 109.36 297.191 109.36C297.551 109.42 297.911 109.42 298.331 109.42C298.691 109.42 299.111 109.42 299.531 109.36C299.891 109.36 300.251 109.36 300.491 109.3C301.991 109.12 303.611 108.82 305.351 108.4C307.031 108.04 308.531 107.68 309.851 107.2C310.691 106.9 311.531 106.6 312.251 106.3C312.971 106.06 313.391 105.76 313.631 105.46C313.691 105.34 313.811 105.22 313.931 105.04C313.991 104.92 314.111 104.86 314.351 104.74C314.471 104.68 314.711 104.62 315.011 104.62C315.251 104.62 315.551 104.74 315.971 104.92C316.991 105.4 317.831 105.88 318.491 106.42C319.091 107.02 319.271 107.56 319.091 108.1C318.731 108.88 318.251 109.6 317.591 110.32C316.871 111.04 316.031 112 315.191 113.2C314.771 113.8 314.291 114.4 313.691 115.12C313.091 115.9 312.431 116.68 311.831 117.4C311.111 118.24 310.511 118.96 309.911 119.68C309.251 120.46 308.711 121.12 308.291 121.6C307.331 122.68 306.311 123.76 305.171 124.9C303.971 126.1 302.771 127.18 301.691 128.2C300.491 129.28 299.471 130.24 298.511 131.08C297.491 131.98 296.711 132.64 296.171 133C295.631 133.42 295.211 133.6 294.911 133.48C294.551 133.42 294.311 133.24 294.251 132.88C294.131 132.58 294.251 132.22 294.491 131.86C294.731 131.56 295.031 131.14 295.511 130.54C295.931 130.06 296.471 129.4 297.131 128.56C297.731 127.78 298.211 127.06 298.631 126.4C298.811 126.16 299.051 125.92 299.291 125.74C299.531 125.62 299.771 125.56 300.011 125.44C300.191 125.44 300.371 125.38 300.551 125.32C300.671 125.32 300.791 125.32 300.911 125.2C300.971 125.2 301.151 124.9 301.511 124.36C301.811 123.88 302.171 123.28 302.591 122.68C302.951 122.08 303.311 121.54 303.671 120.94C304.031 120.46 304.271 120.1 304.451 119.92C304.571 119.8 304.751 119.68 304.871 119.68C304.931 119.74 304.991 119.8 305.111 119.8C305.171 119.86 305.291 119.86 305.411 119.74C305.471 119.68 305.591 119.44 305.831 119.02C306.191 118.24 306.431 117.64 306.611 117.22C306.731 116.86 307.091 116.56 307.691 116.2C308.231 115.9 308.651 115.54 308.891 115.12C309.071 114.76 309.251 114.46 309.371 114.16Z" fill="white"/>
</svg>
