<svg width="181" height="121" viewBox="0 0 181 121" fill="none" xmlns="http://www.w3.org/2000/svg">
<rect x="90.5" y="0.5" width="90" height="120" fill="#F6C500"/>
<rect x="90.5" y="0.5" width="90" height="120" stroke="black"/>
<path d="M128.119 40.83C128.875 40.956 129.694 41.145 130.702 41.397C131.584 41.712 132.466 42.153 133.348 42.72C134.104 43.35 134.797 44.043 135.427 44.925C135.994 45.807 136.309 46.878 136.435 48.075C136.435 48.642 136.435 49.02 136.435 49.272C136.372 49.524 136.309 49.713 136.246 49.776C136.12 49.902 136.057 50.028 135.994 50.028C135.868 50.091 135.805 50.154 135.805 50.28C135.742 50.406 135.742 50.532 135.868 50.595C135.931 50.721 135.994 50.784 136.12 50.91C136.12 51.099 136.183 51.288 136.246 51.477C136.246 51.729 136.246 52.107 136.12 52.485C135.805 53.745 135.301 55.005 134.545 56.265C133.726 57.525 132.781 58.596 131.71 59.415C131.08 59.919 130.45 60.234 129.694 60.423C128.938 60.675 128.182 60.801 127.426 60.864C126.67 60.99 125.977 61.053 125.347 60.99C124.654 60.99 124.15 60.99 123.835 60.99C122.953 60.927 122.134 60.738 121.315 60.36C120.433 60.108 119.74 59.793 119.11 59.415C118.102 58.911 117.346 58.092 116.779 57.021C116.149 56.013 115.708 54.879 115.456 53.682C115.141 52.548 115.015 51.351 115.078 50.154C115.078 49.02 115.267 48.075 115.645 47.256C115.96 46.5 116.464 45.618 117.157 44.736C117.787 43.854 118.669 43.098 119.803 42.405C119.551 41.775 119.362 41.208 119.173 40.578C118.921 40.074 118.669 39.633 118.417 39.318C118.165 39.066 118.102 38.814 118.102 38.562C118.039 38.373 118.102 38.184 118.228 37.995C118.291 37.869 118.48 37.806 118.732 37.743C118.921 37.743 119.173 37.869 119.425 37.995C119.866 38.373 120.307 38.625 120.685 38.877C121 39.129 121.567 39.444 122.449 39.822C123.205 40.2 123.709 40.893 124.087 41.901C124.528 41.649 125.095 41.334 125.851 41.082C126.481 40.893 127.237 40.83 128.119 40.83ZM145.948 68.613C146.263 68.109 146.263 67.857 146.011 67.794C145.633 67.794 145.318 67.731 145.003 67.731C144.373 67.731 143.806 67.794 143.302 67.857C142.735 67.983 142.168 68.109 141.664 68.361C141.412 68.487 141.034 68.613 140.593 68.739C140.089 68.928 139.648 69.054 139.207 69.18C138.703 69.369 138.199 69.495 137.758 69.558C137.254 69.684 136.876 69.81 136.624 69.81C136.372 69.873 136.057 69.999 135.553 70.125C135.049 70.314 134.482 70.503 133.978 70.629C133.411 70.818 132.907 70.944 132.466 71.07C131.962 71.259 131.584 71.322 131.395 71.322C130.891 71.322 130.513 71.07 130.324 70.692C130.072 70.314 129.883 69.936 129.82 69.432C129.82 69.306 129.757 68.991 129.757 68.55C129.694 68.172 129.631 67.731 129.631 67.227C129.568 66.849 129.505 66.408 129.505 66.03C129.442 65.652 129.442 65.4 129.505 65.211C129.505 64.896 129.694 64.707 130.072 64.581C130.324 64.518 130.576 64.644 130.702 64.896C130.891 65.589 131.143 66.03 131.521 66.282C131.836 66.534 132.592 66.66 133.852 66.66C134.104 66.66 134.608 66.66 135.301 66.597C135.931 66.597 136.561 66.534 137.317 66.408C137.947 66.345 138.64 66.282 139.27 66.156C139.837 66.156 140.278 66.093 140.53 65.967C141.412 65.841 142.357 65.715 143.491 65.589C143.68 65.589 143.995 65.589 144.373 65.589C144.688 65.652 145.003 65.715 145.381 65.715C145.759 65.778 146.137 65.841 146.578 65.841C146.641 65.841 146.767 65.841 146.893 65.778C147.145 65.715 147.397 65.526 147.649 65.211C147.901 64.959 148.279 64.896 148.783 64.896C149.224 65.022 149.728 65.211 150.232 65.463C150.358 65.589 150.547 65.652 150.799 65.715C150.988 65.841 151.177 65.967 151.429 66.093C151.618 66.282 151.807 66.471 151.996 66.597C152.122 66.786 152.122 66.975 152.122 67.227C152.059 67.794 151.933 68.361 151.681 68.865C151.429 69.432 150.736 69.999 149.665 70.629C148.531 71.259 147.334 71.7 146.011 71.952C144.625 72.204 143.428 72.519 142.483 72.834C142.168 72.96 141.79 73.023 141.412 73.149C140.908 73.338 140.404 73.464 139.9 73.59C138.892 74.094 138.262 74.409 138.073 74.598C137.821 74.787 137.821 74.913 138.136 74.976C138.388 75.102 138.829 75.165 139.396 75.165C139.9 75.228 140.404 75.228 141.034 75.228C141.538 75.228 141.979 75.228 142.231 75.228C142.672 75.228 142.987 75.165 143.176 74.976C143.302 74.85 143.554 74.661 143.806 74.409C143.995 74.22 144.31 74.094 144.688 73.968C145.003 73.968 145.57 73.968 146.326 73.968C147.082 74.031 147.649 74.094 148.153 74.22C148.594 74.346 148.972 74.472 149.287 74.472C149.413 74.472 149.539 74.535 149.791 74.661C149.98 74.787 150.169 74.976 150.295 75.102C150.358 75.354 150.358 75.543 150.232 75.795C150.106 76.11 149.728 76.425 149.224 76.74C148.846 76.992 148.279 77.244 147.523 77.559C146.767 77.937 145.948 78.252 145.066 78.693C144.121 79.071 143.176 79.449 142.231 79.89C141.223 80.268 140.341 80.583 139.585 80.961C138.703 81.276 138.01 81.591 137.506 81.843C136.876 82.032 136.561 82.158 136.498 82.284C136.12 82.473 136.057 82.725 136.183 82.977C136.309 83.229 136.561 83.355 137.065 83.481C137.317 83.481 137.758 83.607 138.451 83.859C139.081 83.985 139.774 84.237 140.53 84.489C141.286 84.678 141.979 84.867 142.672 85.119C143.302 85.308 143.806 85.434 144.121 85.497C144.562 85.56 145.129 85.623 145.885 85.623C146.515 85.623 147.271 85.56 148.027 85.56C148.72 85.497 149.413 85.434 150.106 85.371C150.736 85.245 151.177 85.182 151.555 85.119C151.933 84.993 152.374 84.93 152.878 84.867C153.319 84.741 153.823 84.678 154.327 84.615C154.768 84.489 155.209 84.426 155.587 84.426C155.965 84.363 156.217 84.363 156.406 84.363C156.532 84.363 156.847 84.3 157.288 84.3C157.666 84.237 158.107 84.237 158.548 84.237C158.926 84.237 159.304 84.237 159.682 84.3C159.934 84.3 160.06 84.426 160.06 84.615C159.934 84.993 160.06 85.245 160.375 85.434C160.627 85.56 160.879 85.623 161.131 85.623C161.257 85.623 161.446 85.623 161.761 85.686C162.013 85.686 162.013 85.938 161.635 86.442C161.257 86.883 160.816 87.261 160.312 87.513C159.745 87.765 159.241 87.891 158.737 88.017C158.359 88.08 157.792 88.206 157.036 88.395C156.217 88.521 155.398 88.647 154.579 88.836C153.697 88.962 152.878 89.088 152.122 89.214C151.303 89.277 150.673 89.34 150.295 89.34C149.35 89.34 148.216 89.277 146.83 89.214C145.381 89.088 144.121 88.899 143.113 88.584C142.546 88.395 141.916 88.206 141.223 87.954C140.467 87.639 139.711 87.387 139.081 87.135C138.325 86.883 137.695 86.631 137.191 86.442C136.561 86.19 136.183 86.064 135.994 85.938C135.49 85.749 134.986 85.686 134.482 85.812C133.915 85.812 133.285 85.875 132.592 85.875C131.836 85.875 131.206 85.749 130.765 85.56C130.261 85.308 130.072 84.804 130.198 84.111C130.261 83.355 130.387 82.725 130.513 82.095C130.639 81.402 130.954 81.087 131.584 81.087C132.151 81.087 132.718 81.15 133.285 81.276C133.789 81.339 134.293 81.276 134.797 81.087C135.238 80.835 135.805 80.646 136.435 80.52C137.002 80.268 137.569 80.016 138.199 79.638C138.703 79.26 138.955 79.071 138.955 79.008C138.955 78.882 138.64 78.819 138.073 78.819C137.695 78.819 137.191 78.819 136.561 78.819C135.805 78.819 135.112 78.756 134.482 78.63C133.726 78.504 133.159 78.315 132.655 78.063C132.151 77.811 131.899 77.433 132.025 76.929C132.025 76.425 132.088 76.047 132.151 75.795C132.151 75.543 132.214 75.354 132.34 75.165C132.403 75.039 132.529 74.85 132.718 74.724C132.844 74.661 133.033 74.472 133.348 74.22C133.537 74.094 133.978 73.842 134.734 73.527C135.427 73.275 136.246 73.023 137.254 72.645C138.136 72.33 139.144 71.952 140.215 71.511C141.223 71.133 142.231 70.755 143.113 70.377C143.491 70.188 144.058 69.936 144.688 69.621C145.255 69.369 145.696 68.991 145.948 68.613ZM153.76 42.657C153.76 43.035 153.697 43.476 153.697 44.106C153.634 44.736 153.634 45.492 153.634 46.248C153.571 47.13 153.571 48.012 153.571 48.894C153.508 49.902 153.508 50.847 153.508 51.729V52.8H153.445C153.445 53.43 153.382 54.06 153.382 54.627C153.319 55.257 153.256 55.698 153.256 56.076C153.193 56.58 153.067 57.084 152.941 57.651C152.689 58.281 152.5 58.848 152.248 59.352C151.996 59.982 151.681 60.486 151.429 60.927C151.114 61.431 150.862 61.746 150.61 61.935C150.358 62.187 150.043 62.376 149.791 62.502C149.413 62.754 149.161 62.88 148.909 62.88C148.594 63.006 148.405 62.943 148.279 62.817C148.153 62.691 148.153 62.439 148.342 61.935C148.468 61.62 148.531 61.116 148.594 60.423C148.594 59.793 148.657 58.974 148.72 58.092C148.72 57.273 148.783 56.391 148.783 55.446C148.72 54.564 148.72 53.682 148.72 52.8H148.657C148.594 51.099 148.594 49.587 148.594 48.264C148.531 47.004 148.531 46.374 148.657 46.248C148.783 46.059 148.972 45.933 149.161 45.933C149.287 45.996 149.35 45.87 149.476 45.555C149.476 45.429 149.476 45.24 149.413 45.114C149.287 44.988 149.224 44.862 149.161 44.673C149.035 44.547 148.909 44.295 148.846 44.043C148.72 43.854 148.72 43.602 148.783 43.224C148.846 42.783 148.909 42.279 148.909 41.649C148.909 41.145 148.909 40.578 148.909 40.011C148.846 39.381 148.846 38.877 148.846 38.436C148.846 38.058 148.846 37.743 148.909 37.428C148.909 37.176 148.909 36.924 148.909 36.672C148.909 36.483 148.909 36.231 148.909 35.979C148.783 35.538 148.783 35.034 148.783 34.467C148.72 33.963 148.468 33.522 147.964 33.081C147.46 32.703 147.019 32.451 146.641 32.262C146.137 32.136 145.696 31.947 145.318 31.695C145.066 31.569 144.94 31.443 144.94 31.191C144.877 31.002 144.94 30.813 145.066 30.561C145.129 30.435 145.318 30.246 145.57 30.12C145.822 30.057 146.137 30.057 146.578 30.12C146.83 30.246 147.208 30.372 147.838 30.498C148.342 30.687 148.972 30.876 149.665 31.065C150.295 31.317 150.988 31.506 151.681 31.632C152.311 31.821 152.878 31.947 153.256 32.01C153.823 32.199 154.264 32.388 154.642 32.514C154.957 32.766 155.02 33.144 154.831 33.774C154.579 34.467 154.39 35.16 154.201 35.916C153.949 36.672 153.823 37.491 153.823 38.31C153.823 38.94 153.823 39.57 153.823 40.326C153.76 41.082 153.76 41.901 153.76 42.657ZM123.268 45.618C122.386 46.437 121.63 46.689 121.063 46.374C120.433 46.374 119.992 46.752 119.677 47.382C119.299 48.138 119.11 48.768 119.11 49.335C118.984 49.965 118.984 50.658 119.11 51.351C119.11 52.107 119.299 52.863 119.551 53.493C119.803 54.249 120.181 54.879 120.748 55.383C121.252 55.95 121.945 56.328 122.89 56.58C124.024 56.895 125.032 57.021 125.977 56.958C126.859 56.958 127.741 56.769 128.56 56.265C129.127 55.95 129.631 55.509 130.072 54.879C130.45 54.375 130.765 53.745 131.017 53.052C131.269 52.422 131.458 51.792 131.584 51.036C131.647 50.343 131.71 49.65 131.71 49.02C131.71 47.634 131.269 46.437 130.45 45.366C129.568 44.358 128.56 43.665 127.3 43.35C126.796 43.287 126.292 43.224 125.788 43.224C125.158 43.287 124.654 43.287 124.276 43.224C124.276 44.232 123.898 44.988 123.268 45.618Z" fill="white"/>
<rect x="0.5" y="0.5" width="90" height="120" fill="#F6C500"/>
<rect x="0.5" y="0.5" width="90" height="120" stroke="black"/>
<path d="M29.8809 58.092L31.3299 58.344L37.5039 48.201C37.6929 47.886 37.7559 47.634 37.6929 47.445C37.5669 47.319 37.3149 47.256 36.9999 47.319C36.6219 47.571 36.3069 47.697 36.0549 47.697C35.7399 47.823 35.4249 47.886 35.1099 48.012C34.8579 48.138 34.4799 48.201 33.9759 48.264C33.4719 48.39 33.0939 48.642 32.9049 49.02C32.7789 49.272 32.5269 49.461 32.2749 49.713C31.9599 49.965 31.5819 50.217 31.2039 50.406C30.7629 50.658 30.3219 50.784 29.8809 50.91C29.3769 51.036 28.8729 51.036 28.4949 50.91C27.9909 50.784 27.5499 50.595 27.1089 50.217C26.6049 49.902 26.1639 49.524 25.7859 49.146C25.3449 48.768 24.9669 48.39 24.6519 48.012C24.2739 47.697 23.9589 47.445 23.7699 47.256C23.2659 46.941 23.1399 46.626 23.2659 46.374C23.3919 46.185 23.6439 46.122 24.0849 46.185C24.2739 46.185 24.6519 46.248 25.1559 46.248C25.5969 46.374 26.1009 46.374 26.7309 46.374C27.2349 46.437 27.8019 46.437 28.4319 46.437C28.9359 46.437 29.3769 46.437 29.7549 46.311C30.1959 46.185 30.6999 46.122 31.2669 46.248C31.7709 46.437 32.0859 46.5 32.2749 46.5C32.4639 46.5 32.8419 46.374 33.3459 45.996C33.8499 45.744 34.4169 45.429 35.1099 45.177L38.1969 44.295C38.4489 44.232 38.7009 44.106 38.8899 43.98C39.0159 43.854 39.1419 43.728 39.2679 43.602C39.2679 43.539 39.3309 43.413 39.3939 43.224C39.3939 43.098 39.5199 42.972 39.6459 42.846C39.7089 42.72 39.8979 42.657 40.1499 42.594C40.3389 42.594 40.6539 42.594 41.1579 42.72C42.1029 42.972 42.9219 43.287 43.6779 43.539C44.3079 43.854 44.8119 44.106 45.1899 44.295C45.3159 44.421 45.4419 44.547 45.5679 44.799C45.5679 45.051 45.5679 45.303 45.5679 45.555C45.5049 45.87 45.3789 46.185 45.2529 46.437C45.0639 46.752 44.8119 47.004 44.5599 47.13C44.0559 47.445 43.6149 47.823 43.3629 48.264C42.9849 48.768 42.6699 49.209 42.3549 49.65C42.1029 49.902 41.7879 50.406 41.2839 51.036C40.7799 51.792 40.1499 52.611 39.5199 53.493C38.7639 54.438 38.0709 55.446 37.3149 56.454C36.5589 57.525 35.8029 58.47 35.1729 59.352C35.4879 59.478 35.8659 59.541 36.2439 59.667C36.5589 59.793 36.9369 59.919 37.3149 60.045C38.6379 60.549 39.8349 61.053 40.9689 61.683C41.9769 62.313 43.1109 63.258 44.3709 64.455C44.7489 64.833 45.1269 65.211 45.5049 65.526C45.8199 65.904 46.1349 66.345 46.4499 66.723C46.7019 67.164 46.8909 67.605 47.0169 68.109C47.1429 68.613 47.1429 69.18 47.0799 69.81C46.9539 70.44 46.7649 70.881 46.5759 71.133C46.3239 71.448 46.1349 71.637 45.9459 71.763C45.6939 71.889 45.5049 72.015 45.3159 72.015C45.0639 72.078 44.8749 72.204 44.7489 72.33C44.5599 72.519 44.3709 72.582 44.1189 72.582C43.8039 72.645 43.5519 72.645 43.2999 72.519C42.9849 72.456 42.7329 72.33 42.6069 72.078C42.3549 71.952 42.2919 71.7 42.3549 71.322C42.3549 71.07 42.3549 70.755 42.3549 70.503C42.2919 70.314 42.2289 70.125 42.2289 69.936C42.1029 69.81 42.0399 69.621 42.0399 69.432C41.9769 69.306 41.9769 69.117 42.0399 68.865C42.1029 68.424 42.1659 68.046 42.2289 67.794C42.2289 67.605 42.0399 67.353 41.7249 66.975C40.7169 65.841 39.7089 64.896 38.6379 64.14C37.5039 63.447 36.3069 62.817 35.1099 62.25C34.7949 62.187 34.5429 62.124 34.2909 61.998C33.9759 61.935 33.6609 61.872 33.3459 61.746C33.2199 61.872 33.2199 61.935 33.2199 61.935C32.5899 62.754 31.9599 63.636 31.2039 64.644C30.4479 65.715 29.6919 66.723 28.9359 67.668C28.1799 68.676 27.4869 69.495 26.9199 70.188C26.2899 70.944 25.9119 71.448 25.6599 71.7C25.0299 72.33 24.2739 72.708 23.4549 72.897C22.5729 73.149 21.9429 73.212 21.4389 72.96C20.8719 72.708 20.3679 72.519 19.9899 72.267C19.4859 72.078 19.1709 71.889 19.0449 71.637C18.9189 71.511 18.8559 71.259 18.9819 71.007C19.1079 70.755 19.2969 70.692 19.6749 70.755C19.9899 70.881 20.4939 70.944 21.1239 70.944C21.7539 71.007 22.3839 70.755 23.1399 70.125C23.5179 69.873 23.9589 69.432 24.4629 68.739C24.9669 68.109 25.4709 67.353 26.1009 66.471C26.6679 65.652 27.2979 64.77 27.9279 63.825C28.4949 62.943 29.0619 62.061 29.5659 61.179C29.1879 61.116 28.8729 61.053 28.6209 60.927C28.2429 60.864 27.9909 60.738 27.8019 60.549C27.6759 60.486 27.6129 60.423 27.6129 60.36C27.6129 60.36 27.4869 60.36 27.2349 60.423C26.9829 60.486 26.7939 60.549 26.5419 60.549C26.2269 60.612 25.9749 60.612 25.7859 60.486C25.5339 60.36 25.4709 60.234 25.4709 60.108C25.4709 60.045 25.3449 59.982 25.0929 59.919C24.7779 59.919 24.5259 59.919 24.3369 59.919C24.0849 59.982 23.7699 59.982 23.3919 59.856C23.0139 59.793 22.7619 59.667 22.7619 59.478C22.6989 59.352 22.9509 59.226 23.4549 59.037C23.8329 58.911 24.3369 58.722 24.9669 58.533C25.5339 58.407 26.1009 58.344 26.7309 58.218C27.2979 58.155 27.8649 58.092 28.4949 58.029C28.9989 58.029 29.5029 58.092 29.8809 58.092ZM65.0979 43.287C65.0979 43.665 65.0979 44.106 65.0979 44.673C65.0349 45.303 65.0349 45.996 65.0349 46.626C64.9719 47.319 64.9719 47.949 64.9719 48.516C64.9089 49.146 64.9089 49.65 64.9089 49.965C64.9089 50.658 64.9089 51.225 64.9719 51.729C64.9719 52.296 64.9719 52.8 64.9719 53.304C64.9719 53.871 64.9719 54.438 65.0349 55.005C65.0349 55.635 65.0349 56.391 65.0349 57.21V65.841C64.9089 68.109 64.8459 69.936 64.8459 71.448C64.7829 73.023 64.7829 74.094 64.7829 74.661C64.7829 75.669 64.6569 76.74 64.5309 77.937C64.3419 79.134 64.1529 80.331 63.9009 81.465C63.6489 82.599 63.3339 83.607 63.0819 84.552C62.7669 85.434 62.5149 86.127 62.2629 86.505C62.0109 86.883 61.6959 87.324 61.4439 87.765C61.1289 88.143 60.8769 88.395 60.6249 88.584C60.3729 88.71 60.1839 88.647 60.0579 88.395C59.9319 88.08 59.9319 87.45 60.1209 86.505C60.1839 85.875 60.2469 84.993 60.3729 83.922C60.3729 82.788 60.4359 81.528 60.4989 80.142C60.4989 78.756 60.5619 77.307 60.5619 75.732C60.5619 74.22 60.5619 72.645 60.5619 71.133V63.51C60.5619 62.439 60.4989 61.305 60.4989 60.108C60.4359 58.974 60.4359 57.651 60.4359 56.013C60.3729 55.005 60.3099 53.934 60.3099 52.8C60.2469 51.729 60.2469 50.721 60.2469 49.839C60.2469 49.02 60.2469 48.327 60.3099 47.76C60.3099 47.256 60.3099 46.941 60.3729 46.878C60.4989 46.752 60.6249 46.626 60.8139 46.626C60.9399 46.626 61.0029 46.5 61.1289 46.185C61.1289 46.059 61.1289 45.87 61.0659 45.744C60.9399 45.618 60.8769 45.492 60.8139 45.303C60.6879 45.177 60.5619 44.988 60.4989 44.736C60.3729 44.547 60.3729 44.295 60.4989 43.917C60.4989 43.476 60.5619 42.972 60.5619 42.342C60.4989 41.838 60.4989 41.271 60.5619 40.641C60.4989 39.381 60.4989 38.436 60.5619 37.743C60.5619 37.113 60.5619 36.483 60.5619 35.853C60.4989 35.412 60.4989 34.908 60.4989 34.404C60.4359 33.9 60.1839 33.459 59.7429 33.018C59.2389 32.64 58.7979 32.388 58.4199 32.199C57.9159 32.073 57.5379 31.884 57.2229 31.632C56.9709 31.506 56.8449 31.38 56.8449 31.128C56.7819 30.939 56.7819 30.75 56.9079 30.498C56.9709 30.372 57.1599 30.183 57.4119 30.057C57.6009 29.994 57.9159 29.994 58.3569 30.12C58.5459 30.246 58.9239 30.309 59.4909 30.435C59.9949 30.624 60.6249 30.813 61.3179 30.939C61.9479 31.191 62.5779 31.38 63.2079 31.506C63.8379 31.695 64.3419 31.821 64.7199 31.884C65.2239 32.073 65.6649 32.262 66.0429 32.388C66.2949 32.64 66.3579 33.018 66.1689 33.648C65.9169 34.341 65.7279 35.034 65.6019 35.79C65.3499 36.609 65.2869 37.428 65.2869 38.31C65.2869 38.877 65.2869 39.633 65.2869 40.641C65.2239 41.649 65.1609 42.531 65.0979 43.287ZM55.0179 35.349C55.5219 35.538 55.9629 35.727 56.3409 35.853C56.5929 36.105 56.6559 36.483 56.4669 37.113C56.2149 37.806 56.0259 38.499 55.8999 39.255C55.6479 40.074 55.5849 40.893 55.5849 41.775C55.5219 42.342 55.5219 43.098 55.5219 44.106C55.5219 45.114 55.4589 45.996 55.4589 46.752C55.4589 47.13 55.4589 47.571 55.4589 48.138C55.3959 48.768 55.3329 49.461 55.3329 50.091C55.2699 50.784 55.2699 51.414 55.2699 51.981C55.2699 52.611 55.2699 53.115 55.2699 53.43C55.2699 54.375 55.2699 55.194 55.2699 55.95C55.2699 56.769 55.2069 57.588 55.2069 58.47C55.2069 59.856 55.2699 61.368 55.3329 62.88C55.3329 64.518 55.3329 65.967 55.3329 67.353C55.3329 68.802 55.3329 69.999 55.3329 71.007C55.2699 72.078 55.2699 72.708 55.2699 72.96C55.2069 73.716 54.9549 74.22 54.4509 74.472C53.9469 74.787 53.5059 75.102 53.1909 75.354C52.9389 75.543 52.7499 75.732 52.5609 75.858C52.3089 76.11 52.0569 76.236 51.8679 76.236C51.6159 76.299 51.3639 76.236 51.2379 75.984C50.9859 75.795 50.8599 75.354 50.8599 74.724C50.7969 74.346 50.7969 73.653 50.7969 72.519C50.7969 71.511 50.7969 70.188 50.7969 68.676V58.596C50.7339 58.281 50.7339 57.966 50.7339 57.588C50.7339 57.336 50.7339 57.021 50.7339 56.643C50.4819 56.895 50.2929 57.021 50.1039 57.147C49.8519 57.336 49.5999 57.462 49.3479 57.462C49.0959 57.525 48.7179 57.588 48.2769 57.714C47.7729 57.84 47.3319 57.966 46.8909 58.029C46.3869 58.155 45.9459 58.218 45.5679 58.218C45.1269 58.281 44.8119 58.218 44.6859 58.092C44.3079 57.84 44.0559 57.462 43.8039 56.958C43.5519 56.517 43.0479 56.202 42.4179 56.076C41.6619 55.95 41.2839 55.635 41.2209 55.257C41.0949 54.942 41.2839 54.753 41.7879 54.627C42.1659 54.564 42.6069 54.501 42.9849 54.501C43.3629 54.564 43.9929 54.501 45.0009 54.375C45.3789 54.375 46.1979 54.249 47.3319 54.123C48.4029 54.06 49.5369 53.871 50.6709 53.556C50.6079 52.674 50.6079 51.918 50.6709 51.288C50.6709 50.721 50.6709 50.406 50.7339 50.343C50.8599 50.217 51.0489 50.091 51.1749 50.091C51.3009 50.091 51.3639 49.965 51.4899 49.65C51.4899 49.524 51.4899 49.335 51.4899 49.209C51.3639 49.083 51.3009 48.957 51.2379 48.768C51.1119 48.642 50.9859 48.453 50.9229 48.201C50.7969 48.012 50.7969 47.76 50.8599 47.382C50.9229 46.941 50.9859 46.437 50.9859 45.807C50.9229 45.303 50.9229 44.736 50.9229 44.106C50.9229 42.846 50.9229 41.901 50.9859 41.208C50.9859 40.578 50.9859 39.948 50.9229 39.318C50.8599 38.877 50.8599 38.373 50.8599 37.869C50.7969 37.365 50.5449 36.924 50.1039 36.483C49.5999 36.105 49.2219 35.853 48.8439 35.664C48.4029 35.538 48.0249 35.349 47.7099 35.097C47.5209 34.971 47.3949 34.845 47.3949 34.593C47.2689 34.404 47.2689 34.215 47.3949 33.963C47.4579 33.837 47.6469 33.648 47.8989 33.522C48.0879 33.459 48.4029 33.459 48.7809 33.585C48.9699 33.711 49.3479 33.774 49.9149 33.9C50.4189 34.089 51.0489 34.278 51.6789 34.404C52.3089 34.656 52.9389 34.845 53.5689 34.971C54.1359 35.16 54.6399 35.286 55.0179 35.349Z" fill="white"/>
</svg>
