<svg width="271" height="121" viewBox="0 0 271 121" fill="none" xmlns="http://www.w3.org/2000/svg">
<rect x="180.5" y="0.5" width="90" height="120" fill="#F6C500"/>
<rect x="180.5" y="0.5" width="90" height="120" stroke="black"/>
<path d="M227.171 54.88C226.211 54.76 225.731 54.52 225.611 54.16C225.431 53.8 225.611 53.62 226.211 53.5C226.451 53.5 226.691 53.44 226.931 53.44C227.111 53.44 227.351 53.44 227.591 53.38C227.831 53.38 228.131 53.38 228.491 53.32C228.851 53.32 229.331 53.32 229.991 53.2C230.231 53.2 230.711 53.14 231.371 53.08C231.971 53.08 232.751 53.02 233.591 52.9C234.371 52.84 235.211 52.72 236.171 52.6C237.011 52.54 237.851 52.42 238.691 52.18V51.1C238.691 50.98 238.691 50.74 238.691 50.38C238.631 50.14 238.631 49.78 238.631 49.42C238.631 49.12 238.631 48.82 238.691 48.52C238.691 48.28 238.751 48.1 238.871 47.98C238.991 47.8 239.111 47.68 239.291 47.68C239.411 47.74 239.531 47.62 239.651 47.32C239.651 47.2 239.651 47.02 239.591 46.9C239.471 46.78 239.351 46.66 239.291 46.48C239.171 46.36 239.051 46.12 238.991 45.88C238.871 45.7 238.871 45.46 238.991 45.1C239.051 44.68 239.111 44.2 239.111 43.6C239.051 43.12 239.051 42.58 239.051 42.04C238.991 40.84 238.991 39.94 239.051 39.22C239.051 38.62 239.051 38.02 239.051 37.48C238.991 37.06 238.931 36.58 238.931 36.04C238.871 35.56 238.631 35.14 238.211 34.72C237.731 34.36 237.251 34.12 236.891 33.94C236.411 33.82 236.051 33.64 235.691 33.4C235.451 33.28 235.331 33.16 235.331 32.92C235.271 32.74 235.271 32.56 235.391 32.32C235.451 32.2 235.631 32.02 235.871 31.9C236.111 31.84 236.411 31.84 236.891 31.9C237.071 32.02 237.431 32.14 238.031 32.26C238.511 32.44 239.111 32.62 239.771 32.8C240.371 33.04 241.031 33.22 241.691 33.34C242.291 33.52 242.831 33.64 243.191 33.7C243.731 33.88 244.151 34.06 244.511 34.18C244.811 34.42 244.871 34.78 244.691 35.38C244.451 36.04 244.271 36.7 244.091 37.42C243.851 38.2 243.731 38.98 243.731 39.76C243.731 40.36 243.731 41.08 243.731 41.98C243.671 42.94 243.671 43.84 243.671 44.56C243.671 44.92 243.611 45.34 243.611 45.88C243.551 46.48 243.491 47.14 243.491 47.74C243.431 48.4 243.431 49 243.431 49.54C243.371 50.14 243.371 50.62 243.371 50.92C243.371 52.18 243.371 53.32 243.371 54.4C243.311 55.48 243.311 56.56 243.311 57.64C243.191 59.14 243.191 60.4 243.191 61.36C243.131 62.44 243.131 63.16 243.131 63.52C243.131 64.18 243.011 64.9 242.891 65.68C242.651 66.52 242.471 67.3 242.231 68.02C241.931 68.86 241.631 69.58 241.391 70.18C241.031 70.84 240.791 71.26 240.551 71.5C240.311 71.8 240.011 72.04 239.771 72.28C239.411 72.58 239.171 72.76 238.931 72.82C238.631 72.94 238.451 72.94 238.331 72.7C238.211 72.58 238.211 72.16 238.391 71.5C238.511 70.9 238.631 69.94 238.751 68.56C238.811 67.24 238.871 65.8 238.931 64.24C238.931 62.74 238.931 61.24 238.931 59.68C238.871 58.24 238.871 56.98 238.871 56.02V54.7C238.271 55 237.671 55.24 237.131 55.42C236.531 55.66 235.931 55.84 235.391 55.9C235.031 56.02 234.551 56.08 234.071 56.2C233.531 56.32 232.991 56.44 232.511 56.5C231.971 56.62 231.491 56.62 231.071 56.62C230.591 56.68 230.231 56.62 229.991 56.5C229.751 56.38 229.571 56.26 229.451 56.08C229.271 55.96 229.091 55.78 228.971 55.6C228.731 55.48 228.551 55.3 228.311 55.12C228.011 55 227.651 54.94 227.171 54.88ZM220.571 48.34C220.931 47.8 221.231 47.38 221.351 47.14C221.471 46.96 221.531 46.78 221.651 46.66C221.951 46.06 222.011 45.7 221.891 45.46C221.651 45.34 221.291 45.34 220.811 45.52C219.791 45.88 219.011 46.12 218.411 46.36C217.751 46.6 217.271 46.78 216.971 46.9C216.071 47.26 215.111 47.62 214.151 48.04C213.131 48.52 212.231 48.82 211.391 48.82C210.071 48.82 208.991 48.64 208.091 48.22C207.131 47.86 206.351 47.56 205.811 47.32C205.631 47.26 205.511 47.14 205.451 46.9C205.331 46.72 205.271 46.54 205.331 46.3C205.331 46.18 205.451 46 205.631 45.82C205.751 45.7 205.931 45.7 206.291 45.7C206.531 45.76 206.831 45.76 207.191 45.76C207.551 45.76 207.911 45.76 208.331 45.7C208.691 45.7 209.111 45.7 209.531 45.64C209.891 45.64 210.251 45.64 210.491 45.58C210.971 45.52 211.631 45.4 212.411 45.16C213.131 45.04 213.911 44.86 214.751 44.62C215.591 44.44 216.431 44.2 217.271 43.96C218.051 43.72 218.771 43.54 219.491 43.3C219.611 43.3 219.851 43.18 220.151 43.06C220.391 42.94 220.511 42.88 220.631 42.82C221.471 42.52 222.191 42.28 222.671 42.1C223.091 41.98 223.391 41.8 223.631 41.5C223.751 41.26 223.991 41.02 224.351 40.72C224.591 40.48 225.131 40.54 225.971 40.9C226.991 41.38 227.771 41.86 228.371 42.34C228.911 42.94 229.091 43.48 228.911 44.08C228.611 44.74 228.191 45.4 227.711 46.06C227.111 46.78 226.391 47.68 225.551 48.64C225.071 49.24 224.531 49.84 223.931 50.44C223.331 51.16 222.731 51.82 222.131 52.42C221.471 53.14 220.871 53.74 220.331 54.34C219.731 55 219.191 55.54 218.831 55.9C217.871 56.86 216.791 57.88 215.591 58.84C214.391 59.86 213.191 60.82 212.051 61.66C210.851 62.62 209.711 63.4 208.751 64.12C207.671 64.84 206.891 65.44 206.291 65.8C205.691 66.16 205.271 66.22 205.031 66.1C204.731 66.04 204.551 65.86 204.491 65.5C204.371 65.2 204.491 64.9 204.731 64.54C204.911 64.3 205.211 63.88 205.691 63.4C206.171 62.92 206.711 62.32 207.431 61.48C208.091 60.76 208.691 60.1 209.171 59.5C209.591 58.96 210.011 58.66 210.491 58.66C210.911 58.72 211.211 58.66 211.451 58.54C211.511 58.48 211.751 58.18 212.111 57.7C212.411 57.22 212.771 56.74 213.251 56.14C213.611 55.6 214.031 55.06 214.451 54.52C214.811 54.04 215.051 53.68 215.231 53.56C215.351 53.44 215.531 53.44 215.651 53.44C215.711 53.5 215.771 53.5 215.891 53.5C215.951 53.56 216.071 53.56 216.191 53.44C216.311 53.44 216.431 53.2 216.671 52.84C217.031 52.12 217.331 51.52 217.511 51.1C217.631 50.74 218.051 50.44 218.651 50.2C219.251 49.96 219.671 49.6 219.971 49.24C220.211 48.94 220.391 48.64 220.571 48.34ZM226.811 68.92C227.111 68.92 227.411 69.1 227.651 69.34C227.831 69.64 227.771 70 227.531 70.42C227.411 70.66 227.231 70.9 227.051 71.26C226.811 71.68 226.631 72.1 226.451 72.46C226.211 72.94 225.971 73.3 225.851 73.66C225.611 74.08 225.491 74.38 225.431 74.56C225.371 74.8 225.311 75.22 225.251 75.82C225.131 76.42 225.011 77.08 225.011 77.74C224.951 78.4 224.951 79.06 225.011 79.72C225.011 80.32 225.191 80.8 225.431 81.1C225.911 81.64 226.511 82 227.171 82.18C227.771 82.3 228.371 82.42 228.971 82.48C229.631 82.48 230.471 82.42 231.551 82.42C232.511 82.3 233.531 82.24 234.611 82.12C235.571 81.94 236.531 81.76 237.491 81.64C238.391 81.46 239.111 81.28 239.591 81.1C240.371 80.8 241.091 80.68 241.751 80.74C242.351 80.74 242.891 80.92 243.371 81.4C243.611 81.64 243.851 81.82 244.151 82.06C244.391 82.18 244.631 82.36 244.871 82.54C244.991 82.66 245.111 82.78 245.171 82.9C245.171 83.02 245.051 83.14 244.811 83.26C244.271 83.5 243.791 83.8 243.311 84.04C242.831 84.22 242.171 84.4 241.391 84.64C241.031 84.76 240.731 84.88 240.611 85.06C240.371 85.18 240.251 85.3 240.131 85.48C239.951 85.6 239.771 85.78 239.591 85.96C239.351 86.08 239.051 86.14 238.631 86.26C238.151 86.32 237.371 86.38 236.351 86.44C235.271 86.44 234.071 86.38 232.871 86.38C231.611 86.32 230.411 86.26 229.331 86.2C228.191 86.08 227.351 86.02 226.751 85.9C226.031 85.72 225.311 85.48 224.711 85.24C224.051 84.88 223.511 84.52 223.031 84.04C222.551 83.5 222.191 82.9 221.951 82.24C221.651 81.52 221.531 80.68 221.591 79.72C221.651 78.52 221.711 77.38 221.771 76.06C221.771 74.86 221.831 73.96 221.831 73.36C221.831 73 221.711 72.7 221.471 72.4C221.171 72.16 220.931 71.92 220.691 71.56C220.571 71.44 220.451 71.32 220.331 71.08C220.151 70.96 220.031 70.78 219.911 70.54C219.791 70.36 219.731 70.12 219.731 69.88C219.671 69.64 219.731 69.4 219.911 69.1C220.211 68.5 220.451 68.14 220.691 68.02C220.871 67.96 221.111 68.02 221.411 68.2C221.531 68.32 221.591 68.44 221.651 68.56C221.651 68.68 221.651 68.8 221.651 68.86C221.651 68.98 221.651 69.1 221.711 69.16C221.711 69.28 221.831 69.28 222.071 69.28C222.431 69.4 222.791 69.34 223.151 69.16C223.451 69.04 223.871 68.92 224.351 68.86C224.771 68.86 225.191 68.8 225.671 68.8C226.091 68.86 226.451 68.92 226.811 68.92Z" fill="white"/>
<rect x="90.5" y="0.5" width="90" height="120" fill="#F6C500"/>
<rect x="90.5" y="0.5" width="90" height="120" stroke="black"/>
<path d="M139.04 44.925C139.103 45.177 139.04 45.366 138.914 45.555C138.662 45.807 138.347 45.933 137.906 45.996C137.402 46.122 137.024 46.248 136.835 46.374C136.583 46.563 136.268 46.563 136.016 46.374C135.764 46.185 135.638 45.933 135.701 45.681C135.701 45.429 135.638 45.303 135.512 45.303C135.323 45.303 135.197 45.366 135.134 45.492C135.008 45.618 134.945 45.807 134.945 45.933C134.819 46.122 134.756 46.311 134.693 46.437C134.567 46.626 134.441 46.752 134.315 46.752C133.937 46.941 133.433 47.067 132.677 47.193C131.858 47.382 131.228 47.571 130.787 47.76C130.031 48.012 129.401 48.201 129.023 48.264C128.519 48.39 128.078 48.579 127.637 48.894C127.322 49.146 127.196 49.335 127.259 49.461C127.259 49.713 127.259 49.902 127.385 50.091C127.7 50.343 128.015 50.532 128.393 50.658C128.645 50.91 129.023 51.036 129.464 51.162C129.59 51.225 129.842 51.288 130.22 51.414C130.535 51.54 130.913 51.666 131.354 51.792C131.732 51.981 132.11 52.107 132.551 52.233C132.929 52.422 133.181 52.548 133.433 52.674C134 53.052 134.378 53.556 134.504 54.249C134.63 55.005 134.63 55.761 134.567 56.58C134.441 57.525 134.189 58.47 133.748 59.352C133.244 60.297 132.614 61.116 131.984 61.872C131.291 62.691 130.535 63.384 129.779 64.014C128.897 64.644 128.078 65.148 127.322 65.4C125.999 66.03 124.676 66.408 123.416 66.534C122.03 66.723 120.959 66.786 120.203 66.66C119.825 66.66 119.51 66.471 119.195 66.093C118.817 65.778 118.439 65.337 118.187 64.833C117.809 64.329 117.557 63.762 117.368 63.132C117.116 62.565 116.927 61.935 116.927 61.305C116.864 60.612 116.927 59.793 117.116 58.911C117.242 58.029 117.305 57.399 117.431 56.895C117.494 56.517 117.62 56.139 117.809 55.887C117.935 55.698 118.313 55.509 118.943 55.383C119.51 55.32 119.888 55.194 120.14 54.942C120.266 54.816 120.455 54.438 120.707 53.808C120.833 53.178 121.085 52.611 121.4 52.107C121.652 51.666 121.904 51.225 122.093 50.847C122.282 50.28 122.66 49.839 123.227 49.461C123.731 49.209 124.298 49.02 124.928 49.02C125.432 48.642 125.873 48.264 126.377 47.886C126.755 47.634 127.196 47.256 127.7 46.815C128.015 46.626 128.204 46.437 128.204 46.185C128.204 45.996 127.889 45.933 127.259 45.933C126.314 45.933 125.432 46.059 124.55 46.311C123.605 46.563 122.723 46.815 121.904 47.067C121.589 47.193 121.4 47.256 121.337 47.256C121.211 47.382 121.085 47.445 121.085 47.445C120.959 47.508 120.959 47.508 120.959 47.508C120.896 47.508 120.833 47.508 120.77 47.382C120.518 47.319 120.392 47.193 120.329 46.941C120.266 46.878 120.266 46.815 120.266 46.689C119.888 47.13 119.636 47.508 119.384 47.76C119.069 48.075 118.628 48.264 118.124 48.264C117.683 48.39 117.242 48.39 116.801 48.39C116.297 48.453 115.667 48.201 115.037 47.697C114.722 47.445 114.533 47.256 114.407 47.004C114.218 46.878 114.092 46.689 114.029 46.5C113.903 46.374 113.84 46.248 113.777 46.122C113.651 46.059 113.525 45.933 113.336 45.807C112.832 45.555 112.517 45.366 112.391 45.366C112.139 45.366 111.887 45.366 111.572 45.24C111.257 45.177 111.068 45.051 111.005 44.799C110.879 44.673 111.068 44.547 111.572 44.484C111.824 44.484 112.013 44.484 112.202 44.484C112.328 44.484 112.517 44.484 112.769 44.484C112.895 44.547 113.147 44.547 113.399 44.547C113.651 44.61 113.966 44.61 114.407 44.61C114.659 44.61 115.1 44.61 115.73 44.547C116.36 44.547 117.053 44.547 117.872 44.421C118.628 44.421 119.384 44.358 120.203 44.232C120.959 44.169 121.652 44.106 122.282 43.98C123.542 43.791 124.676 43.602 125.747 43.413C126.755 43.287 127.511 43.224 127.952 43.287C128.519 43.413 129.212 43.413 130.031 43.287C130.787 43.224 131.354 43.161 131.732 43.035C131.984 42.909 132.299 42.72 132.74 42.342C133.118 42.09 133.433 41.775 133.685 41.397C133.874 41.082 134.252 40.893 134.819 40.83C135.323 40.83 135.764 40.956 136.016 41.145C136.268 41.397 136.646 41.649 137.213 42.027C137.717 42.405 138.032 42.846 138.221 43.224C138.284 43.35 138.41 43.602 138.599 43.917C138.725 44.295 138.914 44.673 139.04 44.925ZM145.277 50.28C145.277 50.154 145.277 49.902 145.277 49.524C145.214 49.272 145.214 48.894 145.214 48.516C145.214 48.201 145.214 47.886 145.277 47.571C145.277 47.319 145.34 47.13 145.466 47.004C145.592 46.815 145.718 46.689 145.907 46.689C146.033 46.752 146.159 46.626 146.285 46.311C146.285 46.185 146.285 45.996 146.222 45.87C146.096 45.744 145.97 45.618 145.907 45.429C145.781 45.303 145.655 45.051 145.592 44.799C145.466 44.61 145.466 44.358 145.592 43.98C145.655 43.539 145.718 43.035 145.718 42.405C145.655 41.901 145.655 41.334 145.655 40.767C145.592 39.507 145.592 38.562 145.655 37.806C145.655 37.176 145.655 36.546 145.655 35.979C145.592 35.538 145.529 35.034 145.529 34.467C145.466 33.963 145.214 33.522 144.773 33.081C144.269 32.703 143.765 32.451 143.387 32.262C142.883 32.136 142.505 31.947 142.127 31.695C141.875 31.569 141.749 31.443 141.749 31.191C141.686 31.002 141.686 30.813 141.812 30.561C141.875 30.435 142.064 30.246 142.316 30.12C142.568 30.057 142.883 30.057 143.387 30.12C143.576 30.246 143.954 30.372 144.584 30.498C145.088 30.687 145.718 30.876 146.411 31.065C147.041 31.317 147.734 31.506 148.427 31.632C149.057 31.821 149.624 31.947 150.002 32.01C150.569 32.199 151.01 32.388 151.388 32.514C151.703 32.766 151.766 33.144 151.577 33.774C151.325 34.467 151.136 35.16 150.947 35.916C150.695 36.735 150.569 37.554 150.569 38.373C150.569 39.003 150.569 39.759 150.569 40.704C150.506 41.712 150.506 42.657 150.506 43.413C150.506 43.791 150.443 44.232 150.443 44.799C150.38 45.429 150.317 46.122 150.317 46.752C150.254 47.445 150.254 48.075 150.254 48.642C150.191 49.272 150.191 49.776 150.191 50.091V51.729L151.325 51.54C151.829 51.414 152.207 51.351 152.585 51.225C152.837 51.162 153.089 51.099 153.341 50.973C153.467 50.973 153.656 50.847 153.908 50.721C154.034 50.658 154.286 50.532 154.538 50.406C155.042 50.154 155.546 49.965 156.05 49.776C156.491 49.65 156.995 49.587 157.499 49.713C158.066 49.839 158.633 49.839 159.2 49.713C159.704 49.65 160.082 49.587 160.397 49.587C160.901 49.587 161.342 49.713 161.846 49.965C162.224 50.343 162.476 50.721 162.602 51.225C162.602 51.414 162.665 51.603 162.728 51.792C162.728 52.044 162.791 52.296 162.791 52.485C162.791 52.737 162.728 52.926 162.602 53.052C162.413 53.241 162.161 53.367 161.846 53.43C161.153 53.682 160.271 53.745 159.263 53.745C158.129 53.745 157.247 53.745 156.554 53.619C156.239 53.619 155.798 53.619 155.231 53.619C154.601 53.682 154.034 53.745 153.404 53.745C152.774 53.808 152.144 53.871 151.577 53.871C150.947 53.997 150.506 54.06 150.254 54.06H150.128V57.147C150.002 58.722 150.002 60.045 150.002 61.053C149.939 62.187 149.939 62.943 149.939 63.321C149.939 64.014 149.813 64.77 149.687 65.589C149.435 66.471 149.246 67.29 148.994 68.046C148.679 68.928 148.364 69.684 148.112 70.314C147.734 71.007 147.482 71.448 147.23 71.7C146.978 72.015 146.663 72.267 146.411 72.519C146.033 72.834 145.781 73.023 145.529 73.086C145.214 73.212 145.025 73.212 144.899 72.96C144.773 72.834 144.773 72.393 144.962 71.7C145.088 71.07 145.214 70.062 145.34 68.613C145.403 67.227 145.466 65.715 145.529 64.077C145.529 62.502 145.529 60.927 145.529 59.289C145.466 57.777 145.466 56.454 145.466 55.446C145.466 54.69 145.466 53.934 145.403 53.115C145.277 52.359 145.277 51.414 145.277 50.28ZM132.173 70.44C132.488 70.44 132.803 70.629 133.055 70.881C133.307 71.196 133.244 71.574 132.992 72.015C132.866 72.267 132.677 72.519 132.488 72.897C132.236 73.275 132.047 73.653 131.858 74.031C131.606 74.472 131.354 74.85 131.228 75.228C130.976 75.606 130.85 75.921 130.787 76.11C130.724 76.362 130.661 76.74 130.598 77.244C130.472 77.748 130.346 78.252 130.346 78.882C130.22 79.386 130.22 79.953 130.283 80.52C130.283 81.024 130.472 81.465 130.724 81.78C131.228 82.347 131.858 82.725 132.551 82.914C133.181 83.04 133.811 83.166 134.441 83.229C135.134 83.229 136.079 83.166 137.213 83.166C138.347 83.04 139.481 82.977 140.678 82.851C141.812 82.662 142.883 82.473 143.954 82.347C144.962 82.158 145.718 81.969 146.222 81.78C147.041 81.465 147.797 81.339 148.49 81.402C149.12 81.402 149.687 81.591 150.191 82.095C150.443 82.347 150.695 82.536 151.01 82.788C151.262 82.914 151.514 83.103 151.766 83.292C151.892 83.418 152.018 83.544 152.081 83.67C152.081 83.796 151.955 83.922 151.703 84.048C151.136 84.3 150.632 84.552 150.128 84.804C149.624 84.993 148.931 85.182 148.112 85.434C147.734 85.56 147.419 85.686 147.293 85.875C147.104 86.001 146.978 86.127 146.852 86.316C146.663 86.442 146.474 86.631 146.285 86.82C146.033 86.946 145.718 87.009 145.277 87.135C144.773 87.198 143.891 87.261 142.757 87.324C141.497 87.324 140.237 87.324 138.914 87.324C137.528 87.261 136.205 87.198 134.945 87.135C133.685 87.009 132.74 86.946 132.11 86.82C131.354 86.631 130.598 86.379 129.968 86.127C129.275 85.749 128.708 85.371 128.204 84.867C127.7 84.3 127.322 83.67 127.07 82.977C126.755 82.221 126.629 81.339 126.692 80.331C126.755 79.071 126.818 78 126.944 77.118C126.944 76.236 127.007 75.48 127.007 74.85C127.007 74.472 126.818 74.157 126.566 73.842C126.251 73.59 125.999 73.338 125.747 72.96C125.495 72.708 125.243 72.33 124.928 71.889C124.55 71.511 124.55 71.07 124.928 70.44C125.243 69.81 125.495 69.432 125.747 69.306C125.936 69.243 126.188 69.306 126.503 69.495C126.629 69.621 126.692 69.747 126.755 69.873C126.755 69.999 126.755 70.125 126.755 70.188C126.755 70.314 126.755 70.44 126.818 70.503C126.818 70.629 126.944 70.629 127.196 70.629C127.574 70.755 127.952 70.692 128.33 70.503C128.645 70.377 129.086 70.251 129.59 70.188C130.031 70.188 130.472 70.188 130.976 70.251C131.417 70.377 131.795 70.44 132.173 70.44ZM120.833 59.226C120.833 59.982 121.022 60.612 121.4 61.116C121.715 61.683 122.156 62.124 122.723 62.439C123.227 62.817 123.857 63.006 124.613 63.006C125.243 63.132 125.936 63.006 126.629 62.628C127.637 62.124 128.456 61.242 129.149 60.108C129.779 58.974 130.094 57.714 130.031 56.202C129.968 55.446 129.779 54.879 129.527 54.438C129.212 54.06 128.834 53.745 128.456 53.493C128.015 53.304 127.574 53.178 127.07 53.115C126.566 53.115 126.062 53.178 125.684 53.178C124.928 53.304 124.361 53.43 123.857 53.619C123.353 53.871 122.975 54.123 122.723 54.312C121.904 54.69 121.4 55.257 121.148 56.013C120.833 56.832 120.707 57.903 120.833 59.226ZM120.959 34.53C121.211 34.782 121.463 35.034 121.652 35.16C121.778 35.412 122.093 35.475 122.597 35.475C123.038 35.475 123.542 35.412 124.046 35.286C124.55 35.223 125.117 35.16 125.747 35.16C126.314 35.16 126.944 35.223 127.637 35.286C128.267 35.412 128.834 35.475 129.212 35.475C129.527 35.601 129.716 35.916 129.842 36.42C129.905 37.05 129.905 37.491 129.842 37.806C129.716 38.184 129.464 38.562 128.96 38.94C128.393 39.381 127.826 39.696 127.322 39.885C127.07 40.011 126.755 40.011 126.314 39.948C125.81 39.948 125.306 39.948 124.802 39.822C124.298 39.759 123.794 39.633 123.416 39.444C122.975 39.318 122.723 39.192 122.597 38.94C122.156 38.121 121.715 37.428 121.337 36.798C120.833 36.294 120.518 35.853 120.329 35.601C120.077 35.223 120.077 34.908 120.329 34.593C120.518 34.341 120.707 34.341 120.959 34.53Z" fill="white"/>
<rect x="0.5" y="0.5" width="90" height="120" fill="#F6C500"/>
<rect x="0.5" y="0.5" width="90" height="120" stroke="black"/>
<path d="M20.2889 58.722C21.0449 58.974 21.9269 59.037 22.9349 58.974C23.8169 58.974 24.8249 58.911 25.9589 58.785C26.3369 58.785 27.2189 58.722 28.6049 58.596C29.8649 58.47 31.3769 58.344 33.1409 58.155C34.8419 58.029 36.6689 57.84 38.6219 57.651C40.5119 57.525 42.3389 57.336 44.0399 57.147C45.6779 57.021 47.1269 56.832 48.3239 56.706C49.4579 56.58 50.2139 56.517 50.5289 56.517C51.0329 56.517 51.9149 56.391 53.2379 56.265C54.4979 56.139 55.8839 56.013 57.3329 55.824C58.7189 55.698 59.9789 55.572 61.1129 55.446C62.2469 55.383 62.8769 55.32 63.1289 55.32C63.3179 55.32 63.5699 55.194 63.8219 54.942C64.0739 54.69 64.3259 54.438 64.7039 54.186C64.9559 53.997 65.3339 53.808 65.7119 53.682C66.0269 53.619 66.4049 53.682 66.9089 53.934C67.2869 54.186 67.7279 54.501 68.2319 54.879C68.6729 55.257 69.1139 55.635 69.6179 55.95C69.9959 56.328 70.4369 56.643 70.8149 56.895C71.1299 57.21 71.3819 57.399 71.6339 57.525C71.8229 57.651 71.9489 57.903 72.0749 58.155C72.1379 58.47 72.1379 58.785 72.1379 59.037C72.0119 59.352 71.8859 59.604 71.7599 59.793C71.5079 60.045 71.2559 60.108 71.0039 60.045C70.4999 60.045 69.8699 59.982 69.1139 59.982C68.2949 60.045 67.4759 60.108 66.5939 60.234C65.6489 60.36 64.7669 60.549 63.8849 60.738C63.0029 60.99 62.2469 61.242 61.6169 61.62C60.6719 62.124 59.9789 62.25 59.5379 62.061C59.0339 61.935 59.2229 61.62 59.9789 60.99C60.2939 60.738 60.6719 60.423 61.1129 59.982C61.4909 59.604 61.8689 59.226 62.1839 58.848C62.4359 58.47 62.5619 58.155 62.6879 57.903C62.6879 57.651 62.5619 57.525 62.1839 57.525C61.8059 57.525 61.0499 57.588 60.0419 57.651C58.9709 57.777 57.8369 57.84 56.6399 57.966C55.3799 58.092 54.1199 58.218 52.9859 58.344C51.7889 58.533 50.8439 58.659 50.2139 58.785L47.5679 59.352C48.0719 60.108 48.4499 60.675 48.5759 61.179C48.6389 61.998 48.7019 62.817 48.7649 63.699C48.7649 64.644 48.5759 65.589 48.1979 66.534C47.8199 67.416 47.3159 68.046 46.8119 68.55C47.1899 68.487 47.5679 68.424 48.0719 68.298C48.4499 68.235 48.8909 68.235 49.3949 68.235C50.2139 68.361 51.0959 68.55 52.0409 68.802C52.9229 69.117 53.7419 69.558 54.4979 70.062C55.2539 70.692 55.8839 71.385 56.4509 72.267C56.9549 73.149 57.2069 74.22 57.3329 75.48C57.3329 76.047 57.3329 76.425 57.3329 76.677C57.2699 76.929 57.2069 77.118 57.1439 77.181C57.0179 77.307 56.9549 77.433 56.8919 77.433C56.7659 77.496 56.7029 77.559 56.7029 77.685C56.5769 77.811 56.5769 77.937 56.7029 77.937C56.7029 78 56.7659 78.126 56.8919 78.252C56.8919 78.378 56.9549 78.567 57.0179 78.819C57.0179 79.071 56.9549 79.386 56.8289 79.89C56.4509 80.961 56.0099 82.095 55.3799 83.229C54.7499 84.363 53.8679 85.308 52.7339 86.19C52.1039 86.631 51.4109 87.009 50.6549 87.261C49.8989 87.513 49.1429 87.702 48.4499 87.828C47.6939 87.954 47.0009 88.017 46.3709 88.08C45.7409 88.08 45.2369 88.08 44.8589 88.08C43.9139 87.954 42.9689 87.765 42.0869 87.45C41.1419 87.072 40.3229 86.757 39.6299 86.442C38.4329 85.812 37.5509 84.93 36.9839 83.922C36.3539 82.788 35.9759 81.717 35.8499 80.583C35.5979 79.386 35.5979 78.252 35.7239 77.181C35.8499 76.11 36.0389 75.228 36.3539 74.535C36.7319 73.779 37.2359 72.897 37.9289 71.952C38.5589 71.07 39.5039 70.314 40.6379 69.621C40.4489 69.054 40.2599 68.487 40.0709 67.92C39.8189 67.416 39.5669 67.038 39.3149 66.786C38.8109 66.345 38.6849 65.904 39.0629 65.463C39.3149 65.085 39.7559 65.085 40.2599 65.4C40.7639 65.778 41.2679 66.03 41.6459 66.282C41.9609 66.597 42.5279 66.912 43.4099 67.29C43.7879 67.542 44.1029 67.794 44.4809 68.172C44.2919 67.668 44.1029 67.101 43.9139 66.597C43.6619 66.093 43.4729 65.715 43.2839 65.4C42.9689 65.148 42.9059 64.959 43.0949 64.707C43.2209 64.581 43.4099 64.329 43.5989 64.014C43.7879 63.762 43.9139 63.51 43.9769 63.384C43.9769 63.258 43.9139 63.069 43.7879 62.817C43.5989 62.628 43.4729 62.376 43.4729 62.124C43.3469 61.935 43.4729 61.809 43.7879 61.683C44.0399 61.557 44.2289 61.431 44.4179 61.305C44.5439 61.242 44.6069 61.053 44.7329 60.675C44.7329 60.549 44.7329 60.423 44.7959 60.297C44.7959 60.171 44.7329 60.045 44.7329 59.919C43.2209 60.234 41.7089 60.549 40.0709 60.801C38.4329 61.179 36.8579 61.431 35.4089 61.683C33.8969 61.998 32.6369 62.25 31.5659 62.439C30.4319 62.691 29.7389 62.817 29.4239 62.88C28.9199 63.006 28.3529 63.069 27.7859 63.069C27.1559 63.195 26.5889 63.195 26.0219 63.195C25.3919 63.195 24.7619 63.132 24.2579 63.006C23.6909 62.943 23.1869 62.817 22.8089 62.565C21.9269 62.124 21.2969 61.683 20.7929 61.305C20.2889 60.99 19.7849 60.675 19.3439 60.36C19.0919 60.234 18.9029 60.045 18.8399 59.793C18.7139 59.604 18.6509 59.415 18.7769 59.163C18.7769 59.037 18.9659 58.848 19.2179 58.722C19.4699 58.596 19.7849 58.596 20.2889 58.722ZM58.5299 32.325C58.7819 32.577 58.9079 32.892 58.9709 33.144C58.9709 33.522 58.6559 33.9 58.0889 34.341C57.7739 34.593 57.5849 34.782 57.5219 34.908C57.3959 35.097 57.2699 35.223 57.2699 35.223C57.1439 35.349 57.0809 35.349 57.0179 35.349C56.8919 35.349 56.7659 35.349 56.5139 35.349C56.0099 35.349 55.5059 35.601 54.8759 36.168C54.2459 36.798 53.5529 37.428 52.7969 38.184C52.5449 38.373 52.2299 38.625 51.8519 39.003C51.4109 39.381 50.8439 39.885 50.2139 40.515C49.7099 41.019 49.1429 41.46 48.6389 41.838C49.1429 42.027 49.5839 42.153 50.0879 42.279C50.5289 42.405 50.9699 42.594 51.4739 42.72C51.8519 42.846 52.4819 43.035 53.3639 43.287C54.1829 43.539 55.0649 43.854 56.0099 44.169C56.8919 44.547 57.7109 44.862 58.5299 45.24C59.2859 45.681 59.7269 46.122 59.9789 46.5C60.3569 47.382 60.7349 48.138 60.9869 48.705C61.1759 49.335 61.2389 50.028 61.2389 50.91C61.2389 51.351 61.1129 51.729 60.9869 52.044C60.7979 52.422 60.6089 52.737 60.4199 52.863C60.1679 53.115 59.8529 53.178 59.6009 53.052C59.2859 52.989 58.9709 52.674 58.7189 52.17C58.4039 51.666 57.9629 51.099 57.3959 50.469C56.7659 49.902 56.1359 49.272 55.3799 48.642C54.6239 48.012 53.8049 47.445 52.9859 46.815C52.1039 46.248 51.2849 45.744 50.5289 45.24L46.4339 43.476C45.2999 44.295 44.1659 45.114 42.9689 45.87C41.7089 46.689 40.5119 47.445 39.5039 48.075C38.4329 48.768 37.5509 49.335 36.7949 49.839C36.0389 50.343 35.5349 50.721 35.4089 50.91C34.5899 51.981 33.8339 52.737 33.0779 53.115C32.3219 53.556 31.6919 53.871 31.3139 54.06C31.0619 54.186 30.8099 54.249 30.5579 54.249C30.1799 54.312 29.9279 54.312 29.6759 54.186C29.4239 54.186 29.2349 54.06 29.1089 53.871C28.9829 53.745 28.9829 53.493 29.1089 53.115C29.2349 52.674 29.5499 52.233 30.1169 51.855C30.6209 51.54 31.2509 50.973 32.0069 50.091C32.2589 49.776 32.5109 49.461 32.7629 49.209C32.8889 48.957 33.0779 48.705 33.2039 48.453C33.3299 48.201 33.4559 47.949 33.5819 47.634C33.7079 47.382 33.8339 47.067 34.0229 46.626C34.3379 45.807 34.6529 45.303 34.9049 45.177C35.0939 45.051 35.1569 45.303 35.0939 45.87C34.9679 46.122 34.9049 46.437 34.9049 46.752C34.8419 47.13 34.8419 47.382 34.9679 47.508C34.9679 47.76 35.0939 47.823 35.2829 47.76C35.4089 47.76 35.7239 47.571 36.1019 47.13C36.3539 46.878 36.7319 46.5 37.2359 46.059C37.6769 45.681 38.1809 45.303 38.8109 44.799C39.3779 44.358 40.0079 43.854 40.6379 43.35C41.2679 42.909 41.8979 42.405 42.5279 41.901L39.8189 40.83C39.5669 40.704 39.3779 40.578 39.2519 40.389C39.1259 40.263 39.0629 40.137 39.1259 40.011C39.1259 39.885 39.2519 39.822 39.5039 39.759C39.6929 39.759 40.0079 39.759 40.4489 39.885C40.8269 40.011 41.3939 40.137 42.0239 40.263C42.5909 40.389 43.2209 40.578 43.9769 40.704C44.2289 40.515 44.4809 40.263 44.7329 40.011C44.9219 39.822 45.1109 39.633 45.3629 39.381C45.6149 39.066 45.9929 38.751 46.4339 38.436C46.8119 38.184 47.1269 37.932 47.3789 37.68C48.4499 36.609 49.0799 35.79 49.2689 35.16C49.3949 34.656 49.0169 34.53 48.1979 34.845C47.3789 35.223 46.5599 35.412 45.8039 35.475C44.9219 35.601 44.2289 35.79 43.5989 35.979C43.2209 36.105 42.7799 36.168 42.2129 36.294C41.5829 36.483 41.0159 36.672 40.4489 36.798C39.8189 37.05 39.2519 37.239 38.7479 37.428C38.1809 37.68 37.8029 37.869 37.5509 37.995C36.9209 38.373 36.4169 38.436 36.0389 38.31C35.5349 38.247 35.1569 38.058 34.7789 37.68C34.2749 37.302 33.7079 36.861 33.0779 36.231C32.3849 35.727 31.9439 35.223 31.7549 34.782C31.5029 34.404 31.5029 34.089 31.6289 33.963C31.6919 33.837 32.1329 33.837 32.8889 33.9C33.1409 33.9 33.7079 33.9 34.4639 33.837C35.2199 33.837 35.9759 33.837 36.8579 33.774C37.6769 33.774 38.4959 33.711 39.3149 33.648C40.0709 33.648 40.5749 33.585 40.9529 33.585C41.5829 33.585 42.2129 33.522 42.8429 33.459C43.4729 33.459 43.9139 33.396 44.2289 33.27C44.3549 33.27 44.6699 33.207 45.1739 33.144C45.6149 33.144 46.1189 33.081 46.7489 32.955C47.2529 32.955 47.8199 32.829 48.3869 32.703C48.8909 32.64 49.3319 32.514 49.5839 32.388C50.0249 32.199 50.4029 31.947 50.7179 31.632C50.9699 31.38 51.1589 31.065 51.2849 30.75C51.4739 30.435 51.7889 30.309 52.2299 30.435C52.6079 30.561 53.1119 30.687 53.6789 30.75C54.1199 30.876 54.6239 31.002 55.1279 31.128C55.6319 31.317 56.0729 31.38 56.5769 31.38C57.0179 31.38 57.3959 31.443 57.7109 31.632C57.9629 31.884 58.2779 32.136 58.5299 32.325ZM44.2289 72.96C43.4099 73.59 42.7799 73.905 42.2759 73.779C41.8979 73.653 41.5199 73.716 41.2679 73.842C40.8899 74.031 40.6379 74.283 40.4489 74.535C40.1969 74.913 40.0709 75.228 39.9449 75.606C39.8189 75.984 39.6929 76.362 39.6929 76.74C39.6299 77.496 39.6299 78.126 39.6929 78.882C39.6929 79.575 39.8189 80.268 40.0709 80.898C40.3229 81.528 40.7009 82.095 41.2679 82.599C41.7719 83.04 42.5909 83.418 43.5989 83.67C44.7959 83.922 45.9929 84.048 47.1899 83.922C48.3239 83.733 49.3319 83.418 50.2139 83.04C51.3479 82.032 52.0409 81.024 52.3559 79.953C52.6079 78.819 52.7339 77.622 52.8599 76.236C52.9229 74.85 52.6079 73.59 51.8519 72.456C51.0959 71.385 50.0249 70.692 48.6389 70.44C48.1349 70.377 47.5679 70.377 46.9379 70.377C46.2449 70.44 45.6779 70.503 45.2369 70.503C45.2999 71.511 44.9849 72.33 44.2289 72.96Z" fill="white"/>
</svg>
