<svg width="181" height="121" viewBox="0 0 181 121" fill="none" xmlns="http://www.w3.org/2000/svg">
<rect x="0.5" y="0.5" width="90" height="120" fill="#F6C500"/>
<rect x="0.5" y="0.5" width="90" height="120" stroke="black"/>
<path d="M21.4895 60.64C22.2095 60.88 23.0495 60.94 24.0095 60.88C24.8495 60.88 25.8095 60.82 26.8895 60.7C27.2495 60.7 28.0895 60.64 29.4095 60.52C30.6095 60.4 32.0495 60.28 33.7295 60.1C35.3495 59.98 37.0895 59.8 38.9495 59.62C40.7495 59.5 42.4895 59.32 44.1095 59.14C45.6695 59.02 47.0495 58.84 48.1895 58.72C49.2695 58.6 49.9895 58.54 50.2895 58.54C50.7695 58.54 51.6095 58.42 52.8695 58.3C54.0695 58.18 55.3895 58.06 56.7695 57.88C58.0895 57.76 59.2895 57.64 60.3695 57.52C61.4495 57.46 62.0495 57.4 62.2895 57.4C62.4695 57.4 62.7095 57.28 62.9495 57.04C63.1895 56.8 63.4295 56.56 63.7895 56.32C64.0295 56.14 64.3895 55.96 64.7495 55.84C65.0495 55.78 65.4095 55.84 65.8895 56.08C66.2495 56.32 66.6695 56.62 67.1495 56.98C67.5695 57.34 67.9895 57.7 68.4695 58C68.8295 58.36 69.2495 58.66 69.6095 58.9C69.9095 59.2 70.1495 59.38 70.3895 59.5C70.5695 59.62 70.6895 59.86 70.8095 60.1C70.8695 60.4 70.8695 60.7 70.8695 60.94C70.7495 61.24 70.6295 61.48 70.5095 61.66C70.2695 61.9 70.0295 61.96 69.7895 61.9C69.3095 61.9 68.7095 61.84 67.9895 61.84C67.2095 61.9 66.4295 61.96 65.5895 62.08C64.6895 62.2 63.8495 62.38 63.0095 62.56C62.1695 62.8 61.4495 63.04 60.8495 63.4C59.9495 63.88 59.2895 64 58.8695 63.82C58.3895 63.7 58.5695 63.4 59.2895 62.8C59.5895 62.56 59.9495 62.26 60.3695 61.84C60.7295 61.48 61.0895 61.12 61.3895 60.76C61.6295 60.4 61.7495 60.1 61.8695 59.86C61.8695 59.62 61.7495 59.5 61.3895 59.5C61.0295 59.5 60.3095 59.56 59.3495 59.62C58.3295 59.74 57.2495 59.8 56.1095 59.92C54.9095 60.04 53.7095 60.16 52.6295 60.28C51.4895 60.46 50.5895 60.58 49.9895 60.7L49.3295 60.88C49.5695 61.36 49.8095 61.78 50.0495 62.2C50.1695 62.68 50.2895 63.16 50.4095 63.58C50.4695 64.66 50.5295 65.74 50.5895 66.94C50.5895 68.2 50.4095 69.52 50.0495 70.84C49.8095 71.68 49.5095 72.34 49.1495 72.88C48.7895 73.48 48.4295 73.96 48.1895 74.26C47.8295 74.62 47.5295 74.8 47.2895 74.74C46.9295 74.74 46.6895 74.32 46.5695 73.48C46.3895 72.7 46.2095 71.92 46.0295 71.08C45.7895 70.36 45.6095 69.76 45.3695 69.34C45.0695 68.98 45.0095 68.62 45.1895 68.38C45.3095 68.14 45.4895 67.84 45.6695 67.42C45.8495 67 45.9695 66.7 46.0295 66.52C46.0295 66.4 45.9695 66.16 45.8495 65.8C45.6695 65.5 45.5495 65.2 45.5495 64.84C45.4295 64.6 45.5495 64.36 45.8495 64.24C46.0895 64.12 46.2695 63.94 46.4495 63.76C46.5695 63.64 46.6295 63.34 46.7495 62.86C46.7495 62.68 46.7495 62.44 46.8095 62.2C46.8095 61.96 46.7495 61.72 46.7495 61.42C45.3695 61.72 43.8095 62.02 42.0695 62.32C40.2695 62.68 38.5895 63.04 36.9695 63.28C35.2895 63.64 33.8495 63.88 32.6495 64.12C31.3295 64.36 30.5495 64.54 30.1895 64.6C29.7095 64.72 29.1695 64.78 28.6295 64.78C28.0295 64.9 27.4895 64.9 26.9495 64.9C26.3495 64.9 25.7495 64.84 25.2695 64.72C24.7295 64.66 24.2495 64.54 23.8895 64.3C23.0495 63.88 22.4495 63.46 21.9695 63.1C21.4895 62.8 21.0095 62.5 20.5895 62.2C20.3495 62.08 20.1695 61.9 20.1095 61.66C19.9895 61.48 19.9295 61.3 20.0495 61.06C20.0495 60.94 20.2295 60.76 20.4695 60.64C20.7095 60.52 21.0095 60.52 21.4895 60.64ZM38.2295 46.9C38.3495 47.86 38.5295 48.58 38.7695 49.06C38.8895 49.6 39.1295 49.96 39.4295 50.14C39.6695 50.38 39.9695 50.5 40.3295 50.44C40.6895 50.44 41.1095 50.32 41.5895 50.2C42.0695 50.08 42.6095 49.96 43.2695 49.78C43.8695 49.66 44.4695 49.54 45.0695 49.3C45.6695 49.18 46.2095 49 46.7495 48.76C47.2295 48.58 47.6495 48.34 47.8895 48.1C48.1295 47.86 48.4295 47.62 48.7895 47.38C49.1495 47.14 49.5095 46.96 49.9295 46.78C50.2895 46.66 50.7095 46.54 51.1295 46.48C51.4895 46.48 51.8495 46.48 52.0895 46.6L52.5095 46.96C52.6295 46.54 52.8095 46.18 52.9295 45.82C53.0495 45.52 53.1695 45.28 53.2895 45.16C53.4095 45.04 53.7095 44.86 54.0695 44.62C54.3695 44.5 54.7295 44.32 55.1495 44.2C55.5095 44.14 55.9295 44.08 56.4095 44.02C56.7695 44.02 57.1295 44.08 57.4895 44.2C58.0895 44.44 58.6295 44.86 58.9895 45.46C59.2895 46.06 59.4695 46.66 59.5295 47.2C59.5895 47.8 59.5295 48.16 59.2895 48.28C58.9895 48.52 58.6295 48.76 58.1495 49.06C57.6695 49.36 57.2495 49.66 56.8295 49.9C56.3495 50.2 55.9895 50.44 55.8095 50.68C55.5695 50.92 55.3295 50.98 55.1495 50.98C54.9095 51.04 54.6095 51.04 54.1895 51.04C53.7095 51.04 53.4095 51.1 53.2295 51.1C52.9895 51.16 52.7495 51.28 52.5695 51.52C52.3295 51.76 51.9695 51.88 51.6095 51.82C51.1895 51.82 51.0695 51.64 51.2495 51.22L51.6695 49.66C50.8295 49.96 49.9895 50.26 49.0295 50.56C48.0695 50.92 47.3495 51.34 46.9895 51.7C46.6295 52 46.2095 52.3 45.7295 52.54C45.1895 52.9 44.6495 53.2 44.0495 53.44C43.4495 53.74 42.8495 53.98 42.3095 54.16C41.7095 54.4 41.2895 54.58 40.9895 54.7C40.7495 54.82 40.4495 54.88 39.9695 54.94C39.4895 55.06 39.1295 55.06 38.8895 55C38.1695 54.94 37.5095 54.7 36.9095 54.22C36.3095 53.86 35.7695 53.32 35.2895 52.6C34.6295 51.76 34.1495 50.92 33.9095 49.96C33.6095 49.12 33.4295 48.16 33.4295 47.2C33.3095 46.24 33.3095 45.28 33.3695 44.26C33.3695 43.3 33.4295 42.28 33.4895 41.2C33.4895 40.36 33.4295 39.64 33.3695 39.04C33.2495 38.56 33.0695 38.14 32.9495 37.78C32.7095 37.48 32.5295 37.24 32.2895 37C31.9895 36.82 31.6895 36.64 31.3895 36.4C30.7295 35.98 30.4895 35.56 30.6695 35.14C30.7895 34.78 31.1495 34.72 31.6895 34.9C31.9295 35.02 32.3495 35.14 32.9495 35.26C33.4295 35.44 34.0295 35.62 34.6295 35.74C35.2295 35.98 35.7695 36.16 36.3095 36.28C36.7895 36.46 37.1495 36.58 37.3895 36.7C37.8695 36.94 38.1695 37.3 38.2895 37.9C38.4095 38.5 38.4095 39.52 38.2895 40.9C38.1695 41.86 38.1095 42.64 38.1095 43.18C37.9895 43.78 37.9895 44.2 37.9895 44.56C37.9895 44.98 37.9895 45.34 38.0495 45.64C38.0495 46 38.1095 46.42 38.2295 46.9ZM40.8695 69.4C41.1695 69.4 41.4695 69.58 41.7095 69.82C41.8895 70.12 41.8295 70.48 41.5895 70.9C41.4695 71.14 41.2895 71.44 41.1095 71.8C40.8695 72.22 40.6895 72.64 40.5095 73C40.2695 73.48 40.0295 73.84 39.9095 74.2C39.6695 74.62 39.5495 74.92 39.4895 75.1C39.4295 75.34 39.3695 75.76 39.3095 76.24C39.1895 76.84 39.0695 77.44 39.0695 78.04C39.0095 78.64 39.0095 79.24 39.0695 79.84C39.0695 80.38 39.2495 80.8 39.4895 81.1C39.9695 81.64 40.5695 82 41.2895 82.18C41.8895 82.3 42.4895 82.42 43.0895 82.48C43.7495 82.48 44.6495 82.42 45.7895 82.42C46.8695 82.3 48.0695 82.24 49.2695 82.12C50.4095 81.94 51.4895 81.76 52.5695 81.64C53.5295 81.46 54.3095 81.28 54.7895 81.1C55.5695 80.8 56.2295 80.68 56.8295 80.74C57.3695 80.74 57.9095 80.92 58.3895 81.4C58.6295 81.64 58.8695 81.82 59.1695 82C59.4095 82.12 59.6495 82.3 59.8895 82.48C60.0095 82.6 60.1295 82.72 60.1895 82.84C60.1895 82.96 60.1295 83.08 59.8895 83.2C59.3495 83.44 58.8695 83.74 58.4495 83.98C57.9695 84.16 57.3695 84.34 56.5895 84.58C56.2295 84.7 55.9295 84.82 55.8095 85C55.5695 85.12 55.4495 85.24 55.3295 85.42C55.1495 85.54 54.9695 85.72 54.7895 85.9C54.5495 86.02 54.2495 86.08 53.8295 86.2C53.3495 86.26 52.5095 86.32 51.3095 86.38C50.1095 86.38 48.7895 86.38 47.4695 86.38C46.0295 86.32 44.7095 86.26 43.5095 86.2C42.1895 86.08 41.2895 86.02 40.6895 85.9C39.2495 85.6 37.9895 84.94 37.0295 83.98C35.9495 82.9 35.4695 81.46 35.5895 79.6C35.6495 78.4 35.7095 77.38 35.8295 76.3C35.8295 75.28 35.8895 74.5 35.8895 73.9C35.8895 73.54 35.7095 73.24 35.4695 72.94C35.1695 72.7 34.9295 72.46 34.6895 72.1C34.4495 71.86 34.2095 71.5 33.9695 71.08C33.6095 70.72 33.6095 70.3 33.9695 69.7C34.2695 69.1 34.5095 68.74 34.7495 68.62C34.9295 68.56 35.1695 68.62 35.4695 68.8C35.5895 68.92 35.6495 69.04 35.7095 69.16C35.7095 69.28 35.7095 69.4 35.7095 69.46C35.7095 69.58 35.7095 69.7 35.7695 69.76C35.7695 69.88 35.8895 69.88 36.1295 69.88C36.4895 70 36.8495 69.94 37.2095 69.76C37.5095 69.64 37.9295 69.52 38.4095 69.46C38.8295 69.46 39.2495 69.4 39.7295 69.34C40.1495 69.34 40.5095 69.4 40.8695 69.4Z" fill="white"/>
<rect x="90.5" y="0.5" width="90" height="120" fill="#F6C500"/>
<rect x="90.5" y="0.5" width="90" height="120" stroke="black"/>
<path d="M138.789 42.7C139.629 42.82 140.529 43 141.489 43.24C142.389 43.6 143.289 44.08 144.129 44.68C144.909 45.34 145.569 46.12 146.169 47.08C146.709 48.04 147.069 49.18 147.189 50.5C147.189 51.1 147.189 51.52 147.189 51.76C147.129 52.06 147.069 52.24 147.009 52.36C146.889 52.54 146.829 52.66 146.769 52.66C146.649 52.72 146.589 52.78 146.589 52.9C146.529 53.02 146.529 53.14 146.589 53.2C146.589 53.32 146.649 53.44 146.769 53.56C146.769 53.74 146.829 53.92 146.829 54.16C146.829 54.46 146.709 54.82 146.589 55.3C146.229 56.5 145.749 57.64 145.029 58.78C144.249 59.98 143.289 61 142.089 61.9C141.369 62.38 140.649 62.8 139.929 63.1C139.149 63.46 138.429 63.7 137.709 63.82C136.929 64.06 136.209 64.18 135.609 64.18C134.889 64.3 134.349 64.3 133.989 64.3C133.029 64.24 132.069 64 131.109 63.64C130.089 63.28 129.249 62.92 128.589 62.5C127.329 61.84 126.369 60.94 125.769 59.74C125.049 58.66 124.629 57.46 124.449 56.14C124.209 54.94 124.149 53.68 124.329 52.48C124.449 51.34 124.629 50.38 124.989 49.6C125.349 48.76 125.829 47.86 126.549 46.84C127.209 45.88 128.109 44.98 129.309 44.26C129.069 43.6 128.829 42.94 128.589 42.28C128.289 41.68 127.989 41.2 127.689 40.9C127.449 40.66 127.329 40.36 127.329 40.06C127.269 39.82 127.329 39.64 127.509 39.46C127.629 39.34 127.809 39.22 128.109 39.16C128.349 39.16 128.589 39.28 128.889 39.4C129.429 39.82 129.909 40.12 130.329 40.3C130.689 40.54 131.349 40.9 132.309 41.32C133.209 41.74 133.809 42.52 134.169 43.66C134.649 43.42 135.369 43.12 136.209 42.88C136.989 42.7 137.829 42.64 138.789 42.7ZM133.209 47.62C132.369 48.34 131.709 48.7 131.169 48.58V48.88C130.749 48.76 130.389 48.82 130.089 48.94C129.729 49.18 129.429 49.42 129.189 49.72C128.949 50.08 128.709 50.44 128.589 50.8C128.409 51.28 128.289 51.64 128.289 52C128.169 52.78 128.169 53.56 128.229 54.28C128.229 55.12 128.349 55.84 128.709 56.56C128.949 57.28 129.429 57.94 130.029 58.48C130.629 59.08 131.409 59.56 132.489 59.8C133.809 60.22 135.129 60.28 136.329 59.98C137.529 59.74 138.609 59.38 139.689 58.9C140.889 57.88 141.669 56.74 142.089 55.42C142.449 54.16 142.689 52.84 142.809 51.4C142.929 49.96 142.569 48.58 141.729 47.38C140.769 46.18 139.629 45.46 138.189 45.1C137.649 45.04 137.049 44.98 136.329 44.98C135.549 45.04 134.889 45.04 134.409 45.04C134.349 45.52 134.229 46 134.109 46.42C133.929 46.9 133.629 47.32 133.209 47.62ZM111.609 76.48C111.969 76.54 112.509 76.54 113.109 76.42C113.649 76.36 114.189 76.24 114.789 76.12C115.029 76.06 115.389 75.94 115.929 75.82C116.409 75.7 116.949 75.58 117.549 75.46C118.089 75.34 118.689 75.28 119.289 75.16C119.889 75.1 120.369 75.04 120.849 75.04C121.329 75.1 121.869 75.16 122.469 75.22C123.069 75.34 123.609 75.4 124.209 75.4C124.449 75.4 124.989 75.34 125.769 75.22C126.489 75.1 127.329 74.98 128.349 74.8C129.309 74.68 130.329 74.56 131.409 74.44C132.429 74.32 133.389 74.26 134.349 74.2L145.929 73.6C147.009 73.6 148.089 73.42 149.169 73.06C150.129 72.82 150.909 72.58 151.509 72.34C151.989 72.22 152.529 72.22 153.129 72.22C153.669 72.28 154.269 72.34 154.869 72.46C155.409 72.58 155.949 72.76 156.489 72.88C156.969 73.06 157.329 73.18 157.629 73.3C158.109 73.6 158.529 73.84 158.889 74.02C159.249 74.26 159.609 74.62 160.089 75.04C160.509 75.46 160.689 75.88 160.569 76.3C160.449 76.78 160.089 77.02 159.489 77.02C159.129 77.02 158.649 77.02 157.989 76.96C157.269 76.96 156.609 76.96 155.889 76.9C155.109 76.9 154.389 76.9 153.789 76.9C153.069 76.96 152.649 77.02 152.409 77.02C152.109 77.08 151.749 77.08 151.389 76.96C150.909 76.96 150.489 76.84 150.129 76.72C149.649 76.66 149.289 76.54 148.929 76.42C148.569 76.36 148.269 76.3 148.029 76.24C147.789 76.24 147.189 76.18 146.289 76.12C145.329 76.12 144.189 76.12 142.989 76.12C141.729 76.12 140.469 76.12 139.269 76.12C137.949 76.18 136.929 76.24 136.089 76.3C134.109 76.48 132.189 76.72 130.269 76.96C128.349 77.26 126.489 77.56 124.689 78.04C123.429 78.28 122.589 78.46 122.109 78.64C121.569 78.76 121.149 79 120.849 79.36C120.549 79.66 120.249 79.84 120.009 79.96C119.649 79.96 119.169 79.9 118.509 79.72C118.149 79.6 117.669 79.54 116.949 79.42C116.229 79.3 115.449 79.18 114.669 79.06C113.829 78.88 113.109 78.76 112.509 78.64C111.789 78.46 111.369 78.34 111.189 78.28C110.949 78.22 110.769 78.1 110.649 77.92C110.469 77.68 110.409 77.44 110.409 77.2C110.409 77.02 110.469 76.84 110.709 76.66C110.829 76.54 111.129 76.48 111.609 76.48Z" fill="white"/>
</svg>
