<svg width="271" height="150" viewBox="0 0 271 150" fill="none" xmlns="http://www.w3.org/2000/svg">
<rect x="0.5" y="29.5" width="90" height="120" fill="#F6C500"/>
<rect x="0.5" y="29.5" width="90" height="120" stroke="black"/>
<path d="M37.4117 72.6C38.1317 72.72 38.9717 72.9 39.8117 73.14C40.6517 73.5 41.4317 73.92 42.1517 74.46C42.8717 75.06 43.4717 75.84 44.0117 76.68C44.4917 77.58 44.7917 78.6 44.9117 79.8C44.9117 80.34 44.9117 80.7 44.9117 80.94C44.8517 81.24 44.7917 81.42 44.7317 81.48C44.6117 81.6 44.5517 81.72 44.4917 81.72C44.3717 81.78 44.3117 81.84 44.3117 81.96C44.2517 82.08 44.2517 82.2 44.3717 82.26C44.3717 82.38 44.4317 82.5 44.5517 82.62C44.6117 82.8 44.6717 82.98 44.7317 83.22C44.7317 83.52 44.7317 83.88 44.6117 84.3C44.2517 85.56 43.7717 86.7 43.0517 87.78C42.3317 88.86 41.4317 89.82 40.4117 90.6C39.8117 91.08 39.2117 91.38 38.4917 91.56C37.7717 91.8 37.0517 91.98 36.3317 92.04C35.6117 92.16 34.9517 92.16 34.3517 92.1C33.7517 92.1 33.2717 92.1 32.9117 92.1C32.0717 92.04 31.2317 91.8 30.3917 91.44C29.4917 91.14 28.7117 90.78 28.1117 90.42C27.1517 89.82 26.3717 89.04 25.7717 88.08C25.1717 87.12 24.7517 86.1 24.5117 84.96C24.2717 83.88 24.1517 82.8 24.2717 81.72C24.2717 80.64 24.4517 79.74 24.8117 78.9C25.1117 78.12 25.5917 77.28 26.2517 76.38C26.8517 75.54 27.6917 74.82 28.7717 74.1C28.5917 73.5 28.4117 72.84 28.1717 72.24C27.9317 71.7 27.6917 71.28 27.4517 70.98C26.9717 70.5 26.8517 70.02 27.2117 69.66C27.4517 69.36 27.8717 69.36 28.3517 69.66C28.8317 70.02 29.3117 70.26 29.6717 70.44C30.0317 70.68 30.6317 71.04 31.4717 71.4C32.1917 71.76 32.7317 72.54 33.0917 73.62C33.5717 73.38 34.1717 73.14 35.0117 72.9C35.7317 72.66 36.5717 72.6 37.4117 72.6ZM54.8117 80.1C54.8117 79.98 54.8117 79.74 54.8117 79.38C54.7517 79.14 54.7517 78.78 54.7517 78.42C54.7517 78.12 54.7517 77.82 54.8117 77.52C54.8117 77.28 54.8717 77.1 54.9917 76.98C55.1117 76.8 55.2317 76.68 55.4117 76.68C55.5317 76.74 55.6517 76.62 55.7717 76.32C55.7717 76.2 55.7717 76.02 55.7117 75.9C55.5917 75.78 55.4717 75.66 55.4117 75.48C55.2917 75.36 55.1717 75.12 55.1117 74.88C54.9917 74.7 54.9917 74.46 55.1117 74.1C55.1717 73.68 55.2317 73.2 55.2317 72.6C55.1717 72.12 55.1717 71.58 55.1717 71.04C55.1117 69.84 55.1117 68.94 55.1717 68.22C55.1717 67.62 55.1717 67.02 55.1717 66.48C55.1117 66.06 55.0517 65.58 55.0517 65.04C54.9917 64.56 54.7517 64.14 54.3317 63.72C53.8517 63.36 53.3717 63.12 53.0117 62.94C52.5317 62.82 52.1717 62.64 51.8117 62.4C51.5717 62.28 51.4517 62.16 51.4517 61.92C51.3917 61.74 51.3917 61.56 51.5117 61.32C51.5717 61.2 51.7517 61.02 51.9917 60.9C52.2317 60.84 52.5317 60.84 53.0117 60.9C53.1917 61.02 53.5517 61.14 54.1517 61.26C54.6317 61.44 55.2317 61.62 55.8917 61.8C56.4917 62.04 57.1517 62.22 57.8117 62.34C58.4117 62.52 58.9517 62.64 59.3117 62.7C59.8517 62.88 60.2717 63.06 60.6317 63.18C60.9317 63.42 60.9917 63.78 60.8117 64.38C60.5717 65.04 60.3917 65.7 60.2117 66.42C59.9717 67.2 59.8517 67.98 59.8517 68.76C59.8517 69.36 59.8517 70.08 59.8517 70.98C59.7917 71.94 59.7917 72.84 59.7917 73.56C59.7917 73.92 59.7317 74.34 59.7317 74.88C59.6717 75.48 59.6117 76.14 59.6117 76.74C59.5517 77.4 59.5517 78 59.5517 78.54C59.4917 79.14 59.4917 79.62 59.4917 79.92V81.48L60.5717 81.3C61.0517 81.18 61.4117 81.12 61.7717 81C62.0117 80.94 62.2517 80.88 62.4917 80.76C62.6117 80.76 62.7917 80.64 63.0317 80.52C63.1517 80.46 63.3917 80.34 63.6317 80.22C64.1117 79.98 64.5917 79.8 65.0717 79.62C65.4917 79.5 65.9717 79.44 66.4517 79.56C66.9917 79.68 67.5317 79.68 68.0717 79.56C68.5517 79.5 68.9117 79.44 69.2117 79.44C69.6917 79.44 70.1117 79.56 70.5917 79.8C70.9517 80.16 71.1917 80.52 71.3117 81C71.3117 81.18 71.3717 81.36 71.4317 81.54C71.4317 81.78 71.4917 82.02 71.4917 82.2C71.4917 82.44 71.4317 82.62 71.3117 82.74C71.1317 82.92 70.8917 83.04 70.5917 83.1C69.9317 83.34 69.0917 83.4 68.1317 83.4C67.0517 83.4 66.2117 83.4 65.5517 83.28C65.2517 83.28 64.8317 83.28 64.2917 83.28C63.6917 83.34 63.1517 83.4 62.5517 83.4C61.9517 83.46 61.3517 83.52 60.8117 83.52C60.2117 83.64 59.7917 83.7 59.5517 83.7H59.4317V86.64C59.3117 88.14 59.3117 89.4 59.3117 90.36C59.2517 91.44 59.2517 92.16 59.2517 92.52C59.2517 93.18 59.1317 93.9 59.0117 94.68C58.7717 95.52 58.5917 96.3 58.3517 97.02C58.0517 97.86 57.7517 98.58 57.5117 99.18C57.1517 99.84 56.9117 100.26 56.6717 100.5C56.4317 100.8 56.1317 101.04 55.8917 101.28C55.5317 101.58 55.2917 101.76 55.0517 101.82C54.7517 101.94 54.5717 101.94 54.4517 101.7C54.3317 101.58 54.3317 101.16 54.5117 100.5C54.6317 99.9 54.7517 98.94 54.8717 97.56C54.9317 96.24 54.9917 94.8 55.0517 93.24C55.0517 91.74 55.0517 90.24 55.0517 88.68C54.9917 87.24 54.9917 85.98 54.9917 85.02C54.9917 84.3 54.9917 83.58 54.9317 82.8C54.8117 82.08 54.8117 81.18 54.8117 80.1ZM42.9317 98.52C43.2317 98.52 43.5317 98.7 43.7717 98.94C43.9517 99.24 43.8917 99.6 43.6517 100.02C43.5317 100.26 43.3517 100.5 43.1717 100.86C42.9317 101.28 42.7517 101.7 42.5717 102.06C42.3317 102.54 42.0917 102.9 41.9717 103.26C41.7317 103.68 41.6117 103.98 41.5517 104.16C41.4917 104.4 41.4317 104.82 41.3717 105.3C41.2517 105.9 41.1317 106.44 41.1317 107.04C41.0717 107.64 41.0717 108.24 41.1317 108.84C41.1317 109.38 41.3117 109.8 41.5517 110.1C42.0317 110.64 42.6317 111 43.2917 111.18C43.8917 111.3 44.4917 111.42 45.0917 111.48C45.7517 111.48 46.5917 111.42 47.6717 111.42C48.6317 111.3 49.6517 111.24 50.7317 111.12C51.6917 110.94 52.6517 110.76 53.6117 110.64C54.5117 110.46 55.2317 110.28 55.7117 110.1C56.4917 109.8 57.2117 109.68 57.8717 109.74C58.4717 109.74 59.0117 109.92 59.4917 110.4C59.7317 110.64 59.9717 110.82 60.2717 111.06C60.5117 111.18 60.7517 111.36 60.9917 111.54C61.1117 111.66 61.2317 111.78 61.2917 111.9C61.2917 112.02 61.1717 112.14 60.9317 112.26C60.3917 112.5 59.9117 112.8 59.4317 113.04C58.9517 113.22 58.2917 113.4 57.5117 113.64C57.1517 113.76 56.8517 113.88 56.7317 114.06C56.4917 114.18 56.3717 114.3 56.2517 114.48C56.0717 114.6 55.8917 114.78 55.7117 114.96C55.4717 115.08 55.1717 115.14 54.7517 115.26C54.2717 115.32 53.4917 115.38 52.4717 115.44C51.3917 115.44 50.1917 115.38 48.9917 115.38C47.7317 115.32 46.5317 115.26 45.4517 115.2C44.3117 115.08 43.4717 115.02 42.8717 114.9C42.1517 114.72 41.4317 114.48 40.8317 114.24C40.1717 113.88 39.6317 113.52 39.1517 113.04C38.6717 112.5 38.3117 111.9 38.0717 111.24C37.7717 110.52 37.6517 109.68 37.7117 108.72C37.7717 107.52 37.8317 106.44 37.8917 105.36C37.8917 104.34 37.9517 103.56 37.9517 102.96C37.9517 102.6 37.8317 102.3 37.5917 102C37.2917 101.76 37.0517 101.52 36.8117 101.16C36.6917 101.04 36.5717 100.92 36.4517 100.68C36.2717 100.56 36.1517 100.38 36.0317 100.14C35.9117 99.96 35.8517 99.72 35.8517 99.48C35.7917 99.24 35.8517 99 36.0317 98.7C36.3317 98.1 36.5717 97.74 36.8117 97.62C36.9917 97.56 37.2317 97.62 37.5317 97.8C37.6517 97.92 37.7117 98.04 37.7717 98.16C37.7717 98.28 37.7717 98.4 37.7717 98.46C37.7717 98.58 37.7717 98.7 37.8317 98.76C37.8317 98.88 37.9517 98.88 38.1917 98.88C38.5517 99 38.9117 98.94 39.2717 98.76C39.5717 98.64 39.9917 98.52 40.4717 98.46C40.8917 98.46 41.3117 98.4 41.7917 98.4C42.2117 98.46 42.5717 98.52 42.9317 98.52ZM32.2517 77.22C31.4117 78.06 30.6917 78.3 30.0917 78C29.7317 78 29.4917 78.12 29.3117 78.24C29.0717 78.48 28.8317 78.72 28.7117 78.96C28.5317 79.32 28.4117 79.62 28.3517 79.92C28.2317 80.28 28.1117 80.64 28.1117 80.94C27.9917 81.66 27.9917 82.32 28.1117 83.04C28.1117 83.76 28.2917 84.48 28.5917 85.08C28.8317 85.74 29.1917 86.28 29.7917 86.76C30.3317 87.3 31.0517 87.66 32.0117 87.9C33.1517 88.26 34.1717 88.32 35.1317 88.08C36.0317 87.96 36.8717 87.66 37.7117 87.3C38.7917 86.4 39.5117 85.38 39.8717 84.18C40.2317 83.04 40.4117 81.84 40.5317 80.52C40.5917 79.2 40.2917 78 39.5717 76.92C38.8517 75.96 37.8317 75.3 36.5717 75C36.0917 74.94 35.5517 74.88 34.9517 74.88C34.2317 74.94 33.6917 74.94 33.2717 74.94C33.2717 75.42 33.1517 75.78 33.0317 76.14C32.8517 76.56 32.6117 76.92 32.2517 77.22Z" fill="white"/>
<rect x="90.5" y="0.5" width="90" height="120" fill="#F6C500"/>
<rect x="90.5" y="0.5" width="90" height="120" stroke="black"/>
<path d="M122.298 74.5C121.818 74.62 121.278 74.68 120.738 74.68C120.138 74.8 119.538 74.8 118.938 74.8C118.338 74.8 117.738 74.74 117.258 74.62C116.658 74.56 116.178 74.44 115.818 74.2C114.978 73.78 114.378 73.36 113.898 73C113.358 72.7 112.878 72.4 112.398 72.1C112.158 71.98 111.978 71.8 111.918 71.56C111.798 71.38 111.738 71.2 111.858 70.96C111.858 70.84 112.038 70.66 112.278 70.54C112.518 70.42 112.878 70.42 113.358 70.54C114.138 70.78 114.978 70.84 115.938 70.78C116.838 70.78 117.858 70.72 118.938 70.6C119.238 70.6 119.778 70.6 120.558 70.48C121.278 70.42 122.118 70.36 123.198 70.24V70.18C124.038 69.94 124.758 69.7 125.358 69.46C125.898 69.22 126.378 68.98 126.798 68.68C127.158 68.44 127.518 68.14 127.878 67.78C128.178 67.54 128.538 67.18 128.898 66.7C129.138 66.46 129.378 66.1 129.738 65.68C130.038 65.32 130.338 64.9 130.638 64.42C130.878 64.06 131.178 63.64 131.418 63.28C131.598 62.98 131.778 62.74 131.898 62.5C131.958 62.32 132.018 62.08 132.078 61.78C132.078 61.54 131.838 61.24 131.298 60.94C130.218 60.58 129.378 60.16 128.778 59.56C128.118 59.08 127.578 58.54 127.098 58C126.798 57.76 126.558 57.34 126.318 56.86C126.018 56.38 125.838 55.9 125.838 55.3C125.778 54.76 125.898 54.16 126.258 53.5C126.498 52.9 127.098 52.3 127.998 51.7C128.838 51.16 129.978 50.56 131.478 49.84C132.918 49.18 134.358 48.52 135.918 47.8C135.918 46.36 135.978 44.92 136.098 43.6C136.098 42.58 135.858 41.86 135.378 41.38C134.838 41.02 134.298 40.66 133.698 40.3C133.458 40.18 133.278 40 133.278 39.64C133.158 39.34 133.518 39.16 134.298 39.1C134.658 39.1 135.198 39.1 135.798 39.1C136.338 39.22 136.878 39.28 137.478 39.34C138.018 39.46 138.558 39.58 139.038 39.7C139.458 39.82 139.758 39.94 139.878 40C140.178 40.18 140.538 40.48 140.898 40.84C141.198 41.26 141.258 41.86 141.078 42.7C140.958 42.94 140.898 43.12 140.898 43.36C140.778 43.6 140.718 43.9 140.658 44.2C140.598 44.5 140.598 44.74 140.598 44.98C140.538 45.28 140.538 45.58 140.538 45.82C141.018 45.58 141.498 45.4 141.918 45.16C142.278 45.04 142.518 44.92 142.698 44.8C143.238 44.5 143.598 44.44 143.838 44.68C144.018 44.92 143.838 45.28 143.298 45.7C142.938 45.94 142.518 46.24 142.038 46.48C141.498 46.84 140.958 47.14 140.418 47.44C140.298 48.52 140.238 49.6 140.238 50.56C140.178 51.58 140.178 52.66 140.298 53.8C140.298 54.64 140.298 55.6 140.178 56.56C140.058 57.64 139.878 58.6 139.758 59.5C139.698 60.1 139.518 60.46 139.218 60.7C138.858 61 138.438 61.18 138.018 61.24C137.538 61.48 137.178 61.66 136.878 61.84C136.518 62.08 136.218 62.32 136.098 62.5C135.258 63.34 134.538 64.24 133.818 65.14C133.038 66.1 132.318 67 131.598 67.9C131.358 68.26 131.298 68.5 131.478 68.74C131.598 68.98 132.198 69.1 133.278 68.98V69.04L140.538 68.2C141.018 68.2 141.678 68.08 142.518 67.84C143.298 67.72 144.138 67.48 145.038 67.24C145.878 67 146.658 66.76 147.498 66.46C148.278 66.22 148.938 65.98 149.418 65.74V63.64C149.478 62.62 149.478 61.54 149.418 60.46C149.298 59.38 149.298 58.12 149.298 56.56C149.238 55.6 149.238 54.58 149.238 53.5C149.178 52.48 149.178 51.52 149.178 50.68C149.178 49.9 149.178 49.24 149.178 48.7C149.178 48.22 149.178 47.92 149.238 47.86C149.358 47.74 149.538 47.62 149.718 47.62C149.838 47.62 149.898 47.5 150.018 47.2C150.018 47.08 150.018 46.9 149.958 46.78C149.838 46.66 149.778 46.54 149.718 46.36C149.598 46.24 149.478 46.06 149.418 45.82C149.298 45.64 149.298 45.4 149.358 45.04C149.418 44.62 149.478 44.14 149.478 43.54C149.418 43.06 149.418 42.52 149.418 41.92C149.358 40.72 149.358 39.82 149.478 39.16C149.478 38.56 149.478 38.02 149.418 37.42C149.358 37 149.358 36.52 149.358 35.98C149.298 35.5 149.058 35.08 148.578 34.66C148.098 34.3 147.678 34.06 147.258 33.88C146.778 33.76 146.418 33.58 146.058 33.34C145.818 33.22 145.698 33.1 145.698 32.86C145.638 32.68 145.698 32.5 145.818 32.26C145.878 32.14 146.058 31.96 146.298 31.84C146.538 31.78 146.838 31.78 147.258 31.9C147.438 32.02 147.798 32.08 148.398 32.2C148.878 32.38 149.478 32.56 150.198 32.68C150.798 32.92 151.458 33.1 152.118 33.22C152.718 33.4 153.198 33.52 153.618 33.58C154.158 33.76 154.578 33.94 154.938 34.06C155.238 34.3 155.298 34.66 155.118 35.26C154.878 35.92 154.698 36.58 154.518 37.3C154.278 38.08 154.158 38.86 154.158 39.7C154.158 40.24 154.098 40.96 154.098 41.92C154.038 42.88 154.038 43.72 154.038 44.44C154.038 44.8 153.978 45.22 153.978 45.76C153.918 46.36 153.918 47.02 153.918 47.62C153.858 48.28 153.858 48.88 153.858 49.42C153.798 50.02 153.798 50.5 153.798 50.8C153.798 51.46 153.798 52 153.858 52.48C153.858 53.02 153.858 53.5 153.858 53.98C153.858 54.52 153.858 55.06 153.918 55.6C153.918 56.2 153.918 56.92 153.918 57.7C153.918 58.3 153.918 58.96 153.978 59.68C153.978 60.46 153.978 61.18 153.978 61.9C153.978 62.68 153.978 63.4 153.978 64.06C153.918 64.78 153.918 65.44 153.918 65.92C153.798 68.08 153.798 69.82 153.798 71.26C153.738 72.76 153.738 73.78 153.738 74.32C153.738 75.28 153.618 76.3 153.498 77.44C153.258 78.58 153.078 79.72 152.838 80.8C152.538 81.88 152.238 82.84 151.998 83.74C151.638 84.58 151.398 85.24 151.158 85.6C150.918 85.96 150.618 86.38 150.378 86.8C150.018 87.16 149.778 87.4 149.538 87.58C149.238 87.7 149.058 87.64 148.938 87.4C148.818 87.1 148.818 86.5 148.998 85.6C149.118 84.88 149.178 83.8 149.298 82.48C149.358 81.04 149.418 79.54 149.478 77.86C149.478 76.18 149.478 74.44 149.478 72.64C149.418 70.9 149.418 69.22 149.418 67.66C148.938 67.96 148.398 68.26 147.678 68.56C146.898 68.92 146.118 69.28 145.338 69.52C144.498 69.82 143.778 70.06 143.178 70.24C142.458 70.48 142.038 70.6 141.798 70.6C141.258 70.72 140.478 70.9 139.398 71.08C138.258 71.32 137.058 71.56 135.738 71.8C134.358 72.1 132.978 72.4 131.538 72.64C130.098 72.94 128.718 73.18 127.458 73.42C126.138 73.72 125.058 73.96 124.158 74.08C123.198 74.32 122.538 74.44 122.298 74.5ZM118.398 44.5C118.698 44.68 119.178 44.92 119.898 45.28C120.498 45.64 121.158 46.12 121.878 46.66C122.538 47.26 123.138 47.92 123.738 48.64C124.218 49.48 124.578 50.38 124.698 51.4C124.758 52.12 124.758 52.84 124.758 53.68C124.638 54.58 124.578 55.42 124.458 56.26C124.278 57.16 124.098 57.94 123.918 58.6C123.678 59.32 123.498 59.86 123.318 60.1C123.198 60.34 123.018 60.52 122.778 60.7C122.478 60.94 122.238 61.06 121.998 61.06C121.698 61.12 121.458 61.06 121.278 60.82C121.038 60.7 120.858 60.34 120.798 59.8C120.678 59.02 120.498 58 120.318 56.68C120.078 55.48 119.838 54.16 119.598 52.72C119.298 51.4 118.998 50.08 118.698 48.76C118.338 47.56 117.918 46.54 117.498 45.7C117.258 45.22 117.138 44.92 117.138 44.68C117.138 44.5 117.198 44.38 117.318 44.32C117.438 44.32 117.618 44.32 117.858 44.32C118.038 44.44 118.218 44.5 118.398 44.5ZM131.298 53.2C130.698 53.68 130.338 54.16 130.278 54.7C130.158 55.3 130.518 55.9 131.298 56.5C131.658 56.74 132.198 56.98 133.038 57.22C133.758 57.46 134.598 57.64 135.438 57.7C135.498 56.86 135.558 55.9 135.678 54.94C135.738 53.98 135.798 53.14 135.858 52.3V50.08C135.438 50.38 135.018 50.68 134.538 50.98C134.058 51.34 133.578 51.64 133.158 51.88C132.678 52.24 132.258 52.48 131.958 52.72C131.598 52.96 131.418 53.14 131.298 53.2Z" fill="white"/>
<rect x="180.5" y="29.5" width="90" height="120" fill="#F6C500"/>
<rect x="180.5" y="29.5" width="90" height="120" stroke="black"/>
<path d="M218.371 77.075C219.19 77.201 220.072 77.327 221.017 77.579C221.899 77.894 222.718 78.335 223.537 78.902C224.293 79.532 224.986 80.225 225.553 81.107C226.057 82.052 226.309 83.186 226.435 84.446C226.435 85.076 226.435 85.454 226.435 85.706C226.372 85.958 226.309 86.147 226.309 86.273C226.183 86.399 226.12 86.525 226.057 86.525C225.931 86.588 225.805 86.651 225.805 86.777C225.742 86.903 225.742 87.029 225.805 87.029C225.805 87.155 225.868 87.218 225.994 87.344C225.994 87.47 226.057 87.659 226.12 87.848C226.12 88.1 226.12 88.478 225.994 88.856C225.616 90.053 225.175 91.313 224.608 92.573C223.978 93.959 223.033 95.03 221.836 95.849C221.206 96.353 220.45 96.731 219.694 96.92C218.875 97.172 218.119 97.361 217.363 97.424C216.544 97.55 215.851 97.55 215.221 97.55C214.528 97.55 214.024 97.55 213.646 97.55C212.638 97.424 211.693 97.172 210.811 96.794C209.803 96.479 208.984 96.164 208.291 95.786C207.031 95.156 206.149 94.274 205.519 93.14C204.889 92.069 204.448 90.935 204.259 89.738C204.007 88.604 204.007 87.407 204.133 86.273C204.259 85.202 204.448 84.32 204.826 83.564C205.141 82.745 205.645 81.863 206.401 80.918C207.031 80.036 207.976 79.28 209.11 78.524C208.858 77.894 208.669 77.201 208.417 76.571C208.165 76.004 207.913 75.563 207.661 75.248C207.409 74.996 207.22 74.744 207.22 74.492C207.157 74.24 207.22 74.051 207.346 73.862C207.472 73.736 207.661 73.61 207.913 73.547C208.102 73.547 208.354 73.673 208.669 73.862C208.921 74.051 209.173 74.177 209.425 74.303C209.614 74.492 209.866 74.618 210.118 74.744C210.37 74.87 210.622 74.996 211 75.122C211.252 75.311 211.63 75.5 212.134 75.689C212.512 75.941 212.827 76.256 213.142 76.634C213.394 77.075 213.646 77.516 213.835 78.02C214.339 77.831 214.969 77.579 215.788 77.327C216.544 77.138 217.363 77.075 218.371 77.075ZM228.01 91.754C227.002 91.628 226.561 91.313 226.561 90.935C226.498 90.62 226.75 90.431 227.38 90.305C227.632 90.305 227.884 90.242 228.136 90.179C228.262 90.179 228.514 90.179 228.766 90.116C229.018 90.116 229.333 90.053 229.711 89.99C230.026 89.99 230.53 89.99 231.16 89.99C231.916 89.99 232.987 89.864 234.499 89.612C235.885 89.36 237.334 89.108 238.783 88.73C238.783 88.226 238.783 87.596 238.783 86.966C238.72 86.399 238.72 85.769 238.72 85.013L238.594 81.296C238.09 81.611 237.649 81.8 237.145 81.8C236.767 81.926 236.326 81.989 235.759 82.115C235.129 82.304 234.562 82.43 233.995 82.556C233.365 82.682 232.861 82.808 232.357 82.808C231.79 82.934 231.412 82.871 231.16 82.745C230.908 82.619 230.719 82.493 230.593 82.304C230.341 82.178 230.152 81.989 229.963 81.8C229.711 81.674 229.459 81.485 229.207 81.296C228.829 81.17 228.451 81.107 228.01 81.044C227.002 80.918 226.561 80.603 226.561 80.225C226.498 79.91 226.75 79.721 227.38 79.595C227.632 79.595 227.884 79.532 228.136 79.469C228.262 79.469 228.514 79.469 228.766 79.406C229.018 79.406 229.333 79.343 229.711 79.28C230.026 79.28 230.53 79.28 231.16 79.28C231.853 79.28 232.924 79.154 234.373 78.902C235.759 78.65 237.145 78.398 238.594 78.02C238.594 77.516 238.594 77.075 238.594 76.571C238.594 76.193 238.594 75.941 238.657 75.878C238.783 75.752 238.972 75.626 239.161 75.626C239.287 75.626 239.35 75.5 239.476 75.185C239.476 75.059 239.476 74.87 239.413 74.744C239.287 74.618 239.224 74.492 239.161 74.303C239.035 74.177 238.909 73.988 238.846 73.736C238.72 73.547 238.72 73.295 238.783 72.917C238.846 72.476 238.909 71.972 238.909 71.342C238.846 70.838 238.846 70.271 238.846 69.641C238.783 68.381 238.783 67.436 238.909 66.743C238.909 66.113 238.909 65.546 238.846 64.916C238.783 64.475 238.783 63.971 238.783 63.404C238.72 62.9 238.468 62.459 237.964 62.018C237.46 61.64 237.019 61.388 236.578 61.199C236.074 61.073 235.696 60.884 235.318 60.632C235.066 60.506 234.94 60.38 234.94 60.128C234.877 59.939 234.94 59.75 235.066 59.498C235.129 59.372 235.318 59.183 235.57 59.057C235.822 58.994 236.137 58.994 236.578 59.12C236.767 59.246 237.145 59.309 237.775 59.435C238.279 59.624 238.909 59.813 239.665 59.939C240.295 60.191 240.988 60.38 241.681 60.506C242.311 60.695 242.815 60.821 243.256 60.884C243.823 61.073 244.264 61.262 244.642 61.388C244.957 61.64 245.02 62.018 244.831 62.648C244.579 63.341 244.39 64.034 244.201 64.79C243.949 65.609 243.823 66.428 243.823 67.31C243.823 67.877 243.76 68.633 243.76 69.641C243.697 70.649 243.697 71.531 243.697 72.287C243.697 72.665 243.634 73.106 243.634 73.673C243.571 74.303 243.571 74.996 243.571 75.626C243.508 76.319 243.508 76.949 243.508 77.516C243.445 78.146 243.445 78.65 243.445 78.965C243.445 79.658 243.445 80.225 243.508 80.729C243.508 81.296 243.508 81.8 243.508 82.304C243.508 82.871 243.508 83.438 243.571 84.005C243.571 84.635 243.571 85.391 243.571 86.21C243.571 86.84 243.571 87.533 243.634 88.289C243.634 89.108 243.634 89.864 243.634 90.62C243.634 91.439 243.634 92.195 243.634 92.888C243.571 93.644 243.571 94.337 243.571 94.841C243.445 97.109 243.445 98.936 243.445 100.448C243.382 102.023 243.382 103.094 243.382 103.661C243.382 104.669 243.256 105.74 243.13 106.937C242.878 108.134 242.689 109.331 242.437 110.465C242.122 111.599 241.807 112.607 241.555 113.552C241.177 114.434 240.925 115.127 240.673 115.505C240.421 115.883 240.106 116.324 239.854 116.765C239.476 117.143 239.224 117.395 238.972 117.584C238.657 117.71 238.468 117.647 238.342 117.395C238.216 117.08 238.216 116.45 238.405 115.505C238.531 114.56 238.657 113.111 238.783 111.158C238.783 109.142 238.846 107 238.909 104.669C238.909 102.401 238.909 100.133 238.909 97.865C238.846 95.66 238.846 93.833 238.846 92.447V91.88C238.342 92.195 237.775 92.384 237.145 92.51C236.767 92.636 236.326 92.699 235.759 92.825C235.129 93.014 234.562 93.14 233.995 93.266C233.365 93.392 232.861 93.518 232.357 93.518C231.79 93.644 231.412 93.581 231.16 93.455C230.908 93.329 230.719 93.203 230.593 93.014C230.341 92.888 230.152 92.699 229.963 92.51C229.711 92.384 229.459 92.195 229.207 92.006C228.829 91.88 228.451 91.817 228.01 91.754ZM212.953 81.863C212.386 82.367 211.945 82.619 211.567 82.682C211.126 82.808 210.748 82.808 210.496 82.682C209.866 82.745 209.362 83.123 209.047 83.816C208.669 84.572 208.417 85.202 208.354 85.832C208.228 86.588 208.228 87.281 208.291 87.974C208.291 88.73 208.48 89.36 208.795 89.99C209.047 90.62 209.425 91.187 210.055 91.691C210.622 92.195 211.441 92.573 212.449 92.825C213.709 93.203 214.843 93.266 215.977 93.14C216.985 93.014 217.993 92.762 218.938 92.384C220.135 91.439 220.891 90.368 221.269 89.108C221.584 87.974 221.773 86.651 221.899 85.265C221.962 83.816 221.584 82.556 220.828 81.422C220.009 80.351 218.938 79.658 217.552 79.406C217.048 79.343 216.481 79.343 215.851 79.343C215.158 79.406 214.591 79.406 214.087 79.406C214.087 80.414 213.709 81.233 212.953 81.863Z" fill="white"/>
</svg>
