<svg width="181" height="121" viewBox="0 0 181 121" fill="none" xmlns="http://www.w3.org/2000/svg">
<rect x="0.5" y="0.5" width="90" height="120" fill="#F6C500"/>
<rect x="0.5" y="0.5" width="90" height="120" stroke="black"/>
<path d="M36.7895 45.28C37.6295 45.16 38.7095 44.98 39.9695 44.74C41.1695 44.56 42.4295 44.32 43.7495 44.02C45.0095 43.78 46.2695 43.54 47.5895 43.18C48.7895 42.94 49.9295 42.64 50.8895 42.4C51.4895 42.22 52.0895 42.22 52.6295 42.34C53.1095 42.52 53.7095 42.7 54.4295 42.88C55.0895 43.12 55.8095 43.36 56.5295 43.6C57.1895 43.9 57.7295 44.14 58.2095 44.38C58.6295 44.62 58.9295 44.98 59.1095 45.58C59.2295 46.18 59.1695 47.02 58.9895 48.1C58.9295 48.46 58.8695 49.12 58.8095 49.96C58.6895 50.92 58.5695 51.94 58.4495 53.02C58.2695 54.22 58.0895 55.42 57.9695 56.68C57.7895 58 57.6695 59.2 57.5495 60.34C57.3695 61.54 57.2495 62.62 57.1295 63.46C57.0095 64.42 56.8895 65.08 56.8895 65.5C56.7695 66.16 56.7095 66.58 56.7095 66.82C56.6495 67.12 56.5895 67.3 56.5895 67.42C56.4695 67.54 56.4095 67.66 56.3495 67.78C56.2295 67.9 56.1095 68.14 55.9895 68.5C55.7495 69.22 55.3895 69.64 55.0295 69.76C54.5495 70 54.1895 69.88 53.8895 69.4C53.6495 68.98 53.2895 68.5 52.8095 68.02C52.2695 67.6 51.7295 67.18 51.1895 66.7C50.5295 66.34 50.2895 66.04 50.5295 65.68C50.6495 65.44 51.0695 65.32 51.7895 65.38C52.4495 65.44 52.9295 65.32 53.2295 65.02C53.4695 64.78 53.5895 64.42 53.5895 64C53.5895 63.88 53.5895 63.46 53.6495 62.68C53.6495 61.96 53.6495 61.12 53.7095 60.04C53.7095 59.08 53.7095 57.94 53.7695 56.74C53.7695 55.6 53.8295 54.46 53.8895 53.38C53.8895 52.36 53.9495 51.46 54.0095 50.62C54.0095 49.9 54.0695 49.36 54.1295 49.12C54.1895 48.22 54.0695 47.5 53.7095 47.02C53.2895 46.54 52.8095 46.24 52.2095 46.12C51.6095 46.06 51.0095 46 50.3495 45.94C49.6295 45.94 49.0295 45.94 48.6695 45.94L44.8895 47.08C44.4095 47.26 43.8695 47.44 43.2695 47.62C42.6095 47.86 41.9495 48.1 41.3495 48.28C40.6895 48.52 40.0895 48.64 39.4895 48.76C38.8895 48.94 38.3495 49 37.9295 48.94C36.4895 48.88 35.2895 48.58 34.2095 47.98C33.0695 47.44 32.2295 46.96 31.6895 46.6C31.5095 46.48 31.3895 46.36 31.3295 46.12C31.2095 46 31.2095 45.82 31.2695 45.58C31.2695 45.46 31.3295 45.28 31.5695 45.16C31.6895 45.1 31.9295 45.1 32.2895 45.1C32.5295 45.16 32.8295 45.22 33.2495 45.22C33.6095 45.28 33.9695 45.28 34.4495 45.28C34.8695 45.28 35.2895 45.28 35.7695 45.28C36.1295 45.28 36.4895 45.28 36.7895 45.28ZM21.6095 76.48C21.9695 76.54 22.5095 76.54 23.1095 76.42C23.6495 76.36 24.1895 76.24 24.7895 76.12C25.0295 76.06 25.3895 75.94 25.9295 75.82C26.4095 75.7 26.9495 75.58 27.5495 75.46C28.0895 75.34 28.6895 75.28 29.2895 75.16C29.8895 75.1 30.3695 75.04 30.8495 75.04C31.3295 75.1 31.8695 75.16 32.4695 75.22C33.0695 75.34 33.6095 75.4 34.2095 75.4C34.4495 75.4 34.9895 75.34 35.7695 75.22C36.4895 75.1 37.3295 74.98 38.3495 74.8C39.3095 74.68 40.3295 74.56 41.4095 74.44C42.4295 74.32 43.3895 74.26 44.3495 74.2L55.9295 73.6C57.0095 73.6 58.0895 73.42 59.1695 73.06C60.1295 72.82 60.9095 72.58 61.5095 72.34C61.9895 72.22 62.5295 72.22 63.1295 72.22C63.6695 72.28 64.2695 72.34 64.8695 72.46C65.4095 72.58 65.9495 72.76 66.4895 72.88C66.9695 73.06 67.3295 73.18 67.6295 73.3C68.1095 73.6 68.5295 73.84 68.8895 74.02C69.2495 74.26 69.6095 74.62 70.0895 75.04C70.5095 75.46 70.6895 75.88 70.5695 76.3C70.4495 76.78 70.0895 77.02 69.4895 77.02C69.1295 77.02 68.6495 77.02 67.9895 76.96C67.2695 76.96 66.6095 76.96 65.8895 76.9C65.1095 76.9 64.3895 76.9 63.7895 76.9C63.0695 76.96 62.6495 77.02 62.4095 77.02C62.1095 77.08 61.7495 77.08 61.3895 76.96C60.9095 76.96 60.4895 76.84 60.1295 76.72C59.6495 76.66 59.2895 76.54 58.9295 76.42C58.5695 76.36 58.2695 76.3 58.0295 76.24C57.7895 76.24 57.1895 76.18 56.2895 76.12C55.3295 76.12 54.1895 76.12 52.9895 76.12C51.7295 76.12 50.4695 76.12 49.2695 76.12C47.9495 76.18 46.9295 76.24 46.0895 76.3C44.1095 76.48 42.1895 76.72 40.2695 76.96C38.3495 77.26 36.4895 77.56 34.6895 78.04C33.4295 78.28 32.5895 78.46 32.1095 78.64C31.5695 78.76 31.1495 79 30.8495 79.36C30.5495 79.66 30.2495 79.84 30.0095 79.96C29.6495 79.96 29.1695 79.9 28.5095 79.72C28.1495 79.6 27.6695 79.54 26.9495 79.42C26.2295 79.3 25.4495 79.18 24.6695 79.06C23.8295 78.88 23.1095 78.76 22.5095 78.64C21.7895 78.46 21.3695 78.34 21.1895 78.28C20.9495 78.22 20.7695 78.1 20.6495 77.92C20.4695 77.68 20.4095 77.44 20.4095 77.2C20.4095 77.02 20.4695 76.84 20.7095 76.66C20.8295 76.54 21.1295 76.48 21.6095 76.48Z" fill="white"/>
<rect x="90.5" y="0.5" width="90" height="120" fill="#F6C500"/>
<rect x="90.5" y="0.5" width="90" height="120" stroke="black"/>
<path d="M128.229 46.9C128.349 47.86 128.529 48.58 128.769 49.06C128.889 49.6 129.129 49.96 129.429 50.14C129.669 50.38 129.969 50.5 130.329 50.44C130.689 50.44 131.109 50.32 131.589 50.2C132.069 50.08 132.609 49.96 133.269 49.78C133.869 49.66 134.469 49.54 135.069 49.3C135.669 49.18 136.209 49 136.749 48.76C137.229 48.58 137.649 48.34 137.889 48.1C138.129 47.86 138.429 47.62 138.789 47.38C139.149 47.14 139.509 46.96 139.929 46.78C140.289 46.66 140.709 46.54 141.129 46.48C141.489 46.48 141.849 46.48 142.089 46.6L142.509 46.96C142.629 46.54 142.809 46.18 142.929 45.82C143.049 45.52 143.169 45.28 143.289 45.16C143.409 45.04 143.709 44.86 144.069 44.62C144.369 44.5 144.729 44.32 145.149 44.2C145.509 44.14 145.929 44.08 146.409 44.02C146.769 44.02 147.129 44.08 147.489 44.2C148.089 44.44 148.629 44.86 148.989 45.46C149.289 46.06 149.469 46.66 149.529 47.2C149.589 47.8 149.529 48.16 149.289 48.28C148.989 48.52 148.629 48.76 148.149 49.06C147.669 49.36 147.249 49.66 146.829 49.9C146.349 50.2 145.989 50.44 145.809 50.68C145.569 50.92 145.329 50.98 145.149 50.98C144.909 51.04 144.609 51.04 144.189 51.04C143.709 51.04 143.409 51.1 143.229 51.1C142.989 51.16 142.749 51.28 142.569 51.52C142.329 51.76 141.969 51.88 141.609 51.82C141.189 51.82 141.069 51.64 141.249 51.22L141.669 49.66C140.829 49.96 139.989 50.26 139.029 50.56C138.069 50.92 137.349 51.34 136.989 51.7C136.629 52 136.209 52.3 135.729 52.54C135.189 52.9 134.649 53.2 134.049 53.44C133.449 53.74 132.849 53.98 132.309 54.16C131.709 54.4 131.289 54.58 130.989 54.7C130.749 54.82 130.449 54.88 129.969 54.94C129.489 55.06 129.129 55.06 128.889 55C128.169 54.94 127.509 54.7 126.909 54.22C126.309 53.86 125.769 53.32 125.289 52.6C124.629 51.76 124.149 50.92 123.909 49.96C123.609 49.12 123.429 48.16 123.429 47.2C123.309 46.24 123.309 45.28 123.369 44.26C123.369 43.3 123.429 42.28 123.489 41.2C123.489 40.36 123.429 39.64 123.369 39.04C123.249 38.56 123.069 38.14 122.949 37.78C122.709 37.48 122.529 37.24 122.289 37C121.989 36.82 121.689 36.64 121.389 36.4C120.729 35.98 120.489 35.56 120.669 35.14C120.789 34.78 121.149 34.72 121.689 34.9C121.929 35.02 122.349 35.14 122.949 35.26C123.429 35.44 124.029 35.62 124.629 35.74C125.229 35.98 125.769 36.16 126.309 36.28C126.789 36.46 127.149 36.58 127.389 36.7C127.869 36.94 128.169 37.3 128.289 37.9C128.409 38.5 128.409 39.52 128.289 40.9C128.169 41.86 128.109 42.64 128.109 43.18C127.989 43.78 127.989 44.2 127.989 44.56C127.989 44.98 127.989 45.34 128.049 45.64C128.049 46 128.109 46.42 128.229 46.9ZM111.489 61.84C112.209 62.08 113.049 62.14 114.009 62.08C114.849 62.08 115.809 62.02 116.889 61.9C117.249 61.9 118.089 61.84 119.409 61.72C120.609 61.6 122.049 61.48 123.729 61.3C125.349 61.18 127.089 61 128.949 60.82C130.749 60.7 132.489 60.52 134.109 60.34C135.669 60.22 137.049 60.04 138.189 59.92C139.269 59.86 139.989 59.8 140.289 59.74C140.769 59.74 141.609 59.62 142.869 59.5C144.069 59.38 145.389 59.26 146.769 59.08C148.089 58.96 149.289 58.84 150.369 58.72C151.449 58.66 152.049 58.6 152.289 58.6C152.469 58.6 152.709 58.48 152.949 58.24C153.189 58 153.429 57.76 153.789 57.52C154.029 57.34 154.389 57.16 154.749 57.04C155.049 56.98 155.409 57.04 155.889 57.28C156.249 57.52 156.669 57.82 157.149 58.18C157.569 58.54 157.989 58.9 158.469 59.2C158.829 59.56 159.249 59.86 159.609 60.1C159.909 60.4 160.149 60.58 160.389 60.7C160.569 60.82 160.689 61.06 160.809 61.3C160.869 61.6 160.869 61.9 160.869 62.14C160.749 62.44 160.629 62.68 160.509 62.86C160.269 63.1 160.029 63.16 159.789 63.1C159.309 63.1 158.709 63.04 157.989 63.04C157.209 63.1 156.429 63.16 155.589 63.28C154.689 63.4 153.849 63.58 153.009 63.76C152.169 64 151.449 64.24 150.849 64.6C149.949 65.08 149.289 65.2 148.869 65.02C148.389 64.9 148.569 64.6 149.289 64C149.589 63.76 149.949 63.46 150.369 63.04C150.729 62.68 151.089 62.32 151.389 61.96C151.629 61.6 151.749 61.3 151.869 61.06C151.869 60.82 151.749 60.7 151.389 60.7C151.029 60.7 150.309 60.76 149.349 60.82C148.329 60.94 147.249 61 146.109 61.12C144.909 61.24 143.709 61.36 142.629 61.48C141.489 61.66 140.589 61.78 139.989 61.9C139.509 62.02 138.789 62.2 137.769 62.38C136.689 62.62 135.489 62.8 134.169 63.04C132.729 63.34 131.289 63.64 129.849 63.88C128.289 64.24 126.909 64.48 125.589 64.72C124.209 65.02 123.069 65.26 122.109 65.38C121.089 65.62 120.429 65.74 120.189 65.8C119.709 65.92 119.169 65.98 118.629 65.98C118.029 66.1 117.489 66.1 116.949 66.1C116.349 66.1 115.749 66.04 115.269 65.92C114.729 65.86 114.249 65.74 113.889 65.5C113.049 65.08 112.449 64.66 111.969 64.3C111.489 64 111.009 63.7 110.589 63.4C110.349 63.28 110.169 63.1 110.109 62.86C109.989 62.68 109.929 62.5 110.049 62.26C110.049 62.14 110.229 61.96 110.469 61.84C110.709 61.72 111.009 61.72 111.489 61.84ZM131.169 69.4C131.469 69.4 131.769 69.58 132.009 69.82C132.189 70.12 132.129 70.48 131.889 70.9C131.769 71.14 131.589 71.44 131.409 71.8C131.169 72.22 130.989 72.64 130.809 73C130.569 73.48 130.329 73.84 130.209 74.2C129.969 74.62 129.849 74.92 129.789 75.1C129.729 75.34 129.669 75.76 129.609 76.24C129.489 76.84 129.369 77.44 129.369 78.04C129.309 78.64 129.309 79.24 129.369 79.84C129.369 80.38 129.549 80.8 129.789 81.1C130.269 81.64 130.869 82 131.589 82.18C132.189 82.3 132.789 82.42 133.389 82.48C134.049 82.48 134.949 82.42 136.089 82.42C137.169 82.3 138.369 82.24 139.569 82.12C140.709 81.94 141.789 81.76 142.869 81.64C143.829 81.46 144.609 81.28 145.089 81.1C145.869 80.8 146.529 80.68 147.129 80.74C147.669 80.74 148.209 80.92 148.689 81.4C148.929 81.64 149.169 81.82 149.469 82C149.709 82.12 149.949 82.3 150.189 82.48C150.309 82.6 150.429 82.72 150.489 82.84C150.489 82.96 150.429 83.08 150.189 83.2C149.649 83.44 149.169 83.74 148.749 83.98C148.269 84.16 147.669 84.34 146.889 84.58C146.529 84.7 146.229 84.82 146.109 85C145.869 85.12 145.749 85.24 145.629 85.42C145.449 85.54 145.269 85.72 145.089 85.9C144.849 86.02 144.549 86.08 144.129 86.2C143.649 86.26 142.809 86.32 141.609 86.38C140.409 86.38 139.089 86.38 137.769 86.38C136.329 86.32 135.009 86.26 133.809 86.2C132.489 86.08 131.589 86.02 130.989 85.9C129.549 85.6 128.289 84.94 127.329 83.98C126.249 82.9 125.769 81.46 125.889 79.6C125.949 78.4 126.009 77.38 126.129 76.3C126.129 75.28 126.189 74.5 126.189 73.9C126.189 73.54 126.009 73.24 125.769 72.94C125.469 72.7 125.229 72.46 124.989 72.1C124.749 71.86 124.509 71.5 124.269 71.08C123.909 70.72 123.909 70.3 124.269 69.7C124.569 69.1 124.809 68.74 125.049 68.62C125.229 68.56 125.469 68.62 125.769 68.8C125.889 68.92 125.949 69.04 126.009 69.16C126.009 69.28 126.009 69.4 126.009 69.46C126.009 69.58 126.009 69.7 126.069 69.76C126.069 69.88 126.189 69.88 126.429 69.88C126.789 70 127.149 69.94 127.509 69.76C127.809 69.64 128.229 69.52 128.709 69.46C129.129 69.46 129.549 69.4 130.029 69.34C130.449 69.34 130.809 69.4 131.169 69.4Z" fill="white"/>
</svg>
