<svg width="361" height="121" viewBox="0 0 361 121" fill="none" xmlns="http://www.w3.org/2000/svg">
<rect x="0.5" y="0.5" width="90" height="120" fill="#F6C500"/>
<rect x="0.5" y="0.5" width="90" height="120" stroke="black"/>
<path d="M52.5053 68.613C52.8203 68.109 52.8203 67.857 52.5683 67.794C52.1903 67.794 51.8753 67.731 51.5603 67.731C50.9303 67.731 50.3633 67.794 49.8593 67.857C49.2923 67.983 48.7253 68.109 48.2213 68.361C47.9693 68.487 47.5913 68.613 47.1503 68.739C46.6463 68.928 46.2053 69.054 45.7643 69.18C45.2603 69.369 44.7563 69.495 44.3153 69.558C43.8113 69.684 43.4333 69.81 43.1813 69.81C42.9293 69.873 42.6143 69.999 42.1103 70.125C41.6063 70.314 41.0393 70.503 40.5353 70.629C39.9683 70.818 39.4643 70.944 39.0233 71.07C38.5193 71.259 38.1413 71.322 37.9523 71.322C37.4483 71.322 37.0703 71.07 36.8813 70.692C36.6293 70.314 36.4403 69.936 36.3773 69.432C36.3773 69.306 36.3143 68.991 36.3143 68.55C36.2513 68.172 36.1883 67.731 36.1883 67.227C36.1253 66.849 36.0623 66.408 36.0623 66.03C35.9993 65.652 35.9993 65.4 36.0623 65.211C36.0623 64.896 36.2513 64.707 36.6293 64.581C36.8813 64.518 37.1333 64.644 37.2593 64.896C37.4483 65.589 37.7003 66.03 38.0783 66.282C38.3933 66.534 39.1493 66.66 40.4093 66.66C40.6613 66.66 41.1653 66.66 41.8583 66.597C42.4883 66.597 43.1183 66.534 43.8743 66.408C44.5043 66.345 45.1973 66.282 45.8273 66.156C46.3943 66.156 46.8353 66.093 47.0873 65.967C47.9693 65.841 48.9143 65.715 50.0483 65.589C50.2373 65.589 50.5523 65.589 50.9303 65.589C51.2453 65.652 51.5603 65.715 51.9383 65.715C52.3163 65.778 52.6943 65.841 53.1353 65.841C53.1983 65.841 53.3243 65.841 53.4503 65.778C53.7023 65.715 53.9543 65.526 54.2063 65.211C54.4583 64.959 54.8363 64.896 55.3403 64.896C55.7813 65.022 56.2853 65.211 56.7893 65.463C56.9153 65.589 57.1043 65.652 57.3563 65.715C57.5453 65.841 57.7343 65.967 57.9863 66.093C58.1753 66.282 58.3643 66.471 58.5533 66.597C58.6793 66.786 58.6793 66.975 58.6793 67.227C58.6163 67.794 58.4903 68.361 58.2383 68.865C57.9863 69.432 57.2933 69.999 56.2223 70.629C55.0883 71.259 53.8913 71.7 52.5683 71.952C51.1823 72.204 49.9853 72.519 49.0403 72.834C48.7253 72.96 48.3473 73.023 47.9693 73.149C47.4653 73.338 46.9613 73.464 46.4573 73.59C45.4493 74.094 44.8193 74.409 44.6303 74.598C44.3783 74.787 44.3783 74.913 44.6933 74.976C44.9453 75.102 45.3863 75.165 45.9533 75.165C46.4573 75.228 46.9613 75.228 47.5913 75.228C48.0953 75.228 48.5363 75.228 48.7883 75.228C49.2293 75.228 49.5443 75.165 49.7333 74.976C49.8593 74.85 50.1113 74.661 50.3633 74.409C50.5523 74.22 50.8673 74.094 51.2453 73.968C51.5603 73.968 52.1273 73.968 52.8833 73.968C53.6393 74.031 54.2063 74.094 54.7103 74.22C55.1513 74.346 55.5293 74.472 55.8443 74.472C55.9703 74.472 56.0963 74.535 56.3483 74.661C56.5373 74.787 56.7263 74.976 56.8523 75.102C56.9153 75.354 56.9153 75.543 56.7893 75.795C56.6633 76.11 56.2853 76.425 55.7813 76.74C55.4033 76.992 54.8363 77.244 54.0803 77.559C53.3243 77.937 52.5053 78.252 51.6233 78.693C50.6783 79.071 49.7333 79.449 48.7883 79.89C47.7803 80.268 46.8983 80.583 46.1423 80.961C45.2603 81.276 44.5673 81.591 44.0633 81.843C43.4963 82.032 43.1813 82.158 43.0553 82.284C42.6773 82.473 42.6143 82.725 42.7403 82.977C42.8663 83.229 43.1183 83.355 43.6223 83.481C43.8743 83.481 44.3153 83.607 45.0083 83.859C45.6383 83.985 46.3313 84.237 47.0873 84.489C47.8433 84.678 48.5363 84.867 49.2293 85.119C49.8593 85.308 50.3633 85.434 50.6783 85.497C51.1193 85.56 51.6863 85.623 52.4423 85.623C53.0723 85.623 53.8283 85.56 54.5843 85.56C55.2773 85.497 55.9703 85.434 56.6633 85.371C57.2933 85.245 57.7343 85.182 58.1123 85.119C58.4903 84.993 58.9313 84.93 59.4353 84.867C59.8763 84.741 60.3803 84.678 60.8843 84.615C61.3253 84.489 61.7663 84.426 62.1443 84.426C62.5223 84.363 62.7743 84.363 62.9633 84.363C63.0893 84.363 63.4043 84.3 63.8453 84.3C64.2233 84.237 64.6643 84.237 65.1053 84.237C65.4833 84.237 65.8613 84.237 66.2393 84.3C66.4913 84.3 66.6173 84.426 66.6173 84.615C66.4913 84.993 66.6173 85.245 66.9323 85.434C67.1843 85.56 67.4363 85.623 67.6883 85.623C67.8143 85.623 68.0033 85.623 68.3183 85.686C68.5703 85.686 68.5703 85.938 68.1923 86.442C67.8143 86.883 67.3733 87.261 66.8693 87.513C66.3023 87.765 65.7983 87.891 65.2943 88.017C64.9163 88.08 64.3493 88.206 63.5933 88.395C62.7743 88.521 61.9553 88.647 61.1363 88.836C60.2543 88.962 59.4353 89.088 58.6793 89.214C57.8603 89.277 57.2303 89.34 56.8523 89.34C55.9073 89.34 54.7733 89.277 53.3873 89.214C51.9383 89.088 50.6783 88.899 49.6703 88.584C49.1033 88.395 48.4733 88.206 47.7803 87.954C47.0243 87.639 46.2683 87.387 45.6383 87.135C44.8823 86.883 44.2523 86.631 43.7483 86.442C43.1183 86.19 42.7403 86.064 42.5513 85.938C42.0473 85.749 41.5433 85.686 41.0393 85.812C40.4723 85.812 39.8423 85.875 39.1493 85.875C38.3933 85.875 37.7633 85.749 37.3223 85.56C36.8183 85.308 36.6293 84.804 36.7553 84.111C36.8183 83.355 36.9443 82.725 37.0703 82.095C37.1963 81.402 37.5113 81.087 38.1413 81.087C38.7083 81.087 39.2753 81.15 39.8423 81.276C40.3463 81.339 40.8503 81.276 41.3543 81.087C41.7953 80.835 42.3623 80.646 42.9923 80.52C43.5593 80.268 44.1263 80.016 44.7563 79.638C45.2603 79.26 45.5123 79.071 45.5123 79.008C45.5123 78.882 45.1973 78.819 44.6303 78.819C44.2523 78.819 43.7483 78.819 43.1183 78.819C42.3623 78.819 41.6693 78.756 41.0393 78.63C40.2833 78.504 39.7163 78.315 39.2123 78.063C38.7083 77.811 38.4563 77.433 38.5823 76.929C38.5823 76.425 38.6453 76.047 38.7083 75.795C38.7083 75.543 38.7713 75.354 38.8973 75.165C38.9603 75.039 39.0863 74.85 39.2753 74.724C39.4013 74.661 39.5903 74.472 39.9053 74.22C40.0943 74.094 40.5353 73.842 41.2913 73.527C41.9843 73.275 42.8033 73.023 43.8113 72.645C44.6933 72.33 45.7013 71.952 46.7723 71.511C47.7803 71.133 48.7883 70.755 49.6703 70.377C50.0483 70.188 50.6153 69.936 51.2453 69.621C51.8123 69.369 52.2533 68.991 52.5053 68.613ZM32.5973 58.911C32.3453 58.911 32.1563 58.848 31.9673 58.785C31.7153 58.785 31.4003 58.659 31.0223 58.533L31.2113 59.478C31.2113 59.982 31.1483 60.36 31.1483 60.738C31.0223 61.116 30.7703 61.431 30.3293 61.62C29.8253 61.809 29.3843 61.809 28.9433 61.683C28.4393 61.62 27.9983 61.305 27.5573 60.675C27.1793 60.234 26.8013 59.541 26.3603 58.659C25.8563 57.777 25.4153 56.832 24.9743 55.824C24.4703 54.816 23.9663 53.871 23.5883 52.863C23.0843 51.918 22.7693 51.099 22.5173 50.469C22.2023 49.839 21.9503 49.272 21.7613 48.705C21.5093 48.201 21.3833 47.697 21.2573 47.193C21.0683 46.689 20.9423 46.185 20.8793 45.681C20.7533 45.177 20.6273 44.61 20.6273 43.98C20.5013 43.35 20.5013 42.909 20.6273 42.657C20.6903 42.468 20.8163 42.342 21.0053 42.342C21.1313 42.405 21.2573 42.468 21.4463 42.594C21.5723 42.783 21.7613 42.909 21.8873 43.035C22.2023 43.413 22.6433 43.791 23.1473 44.295C23.6513 44.862 24.0923 45.114 24.4703 45.114C24.6593 45.114 24.9743 45.177 25.3523 45.24C25.7303 45.366 26.1083 45.492 26.4863 45.681C26.8643 45.933 27.1793 46.185 27.5573 46.437C27.8723 46.815 28.0613 47.193 28.1873 47.697C28.3763 48.705 28.5653 49.65 28.6913 50.532C28.8173 51.54 28.9433 52.17 29.1323 52.548L29.8253 54.753C29.9513 54.816 30.0773 54.942 30.3293 55.131C30.5183 55.383 30.7073 55.509 30.9593 55.635C31.2113 55.887 31.5263 56.076 32.0303 56.139C32.4083 56.265 32.8493 56.265 33.3533 56.265C33.7943 56.328 34.2983 56.328 34.8023 56.265C35.2433 56.265 35.6843 56.202 36.0623 56.139C37.5743 55.95 38.6453 55.572 39.2123 55.068C39.7163 54.564 40.0313 53.745 40.1573 52.485C40.2203 51.288 40.2203 50.028 40.2203 48.768C40.1573 47.571 40.1573 46.689 40.1573 46.185C40.1573 45.681 39.9683 45.303 39.5903 45.051C39.2123 44.799 38.5193 44.799 37.6373 44.925C37.1333 45.051 36.5663 45.114 35.8733 45.177C35.1173 45.303 34.3613 45.366 33.6683 45.366C32.9123 45.492 32.2193 45.555 31.5893 45.555C30.9593 45.681 30.5183 45.681 30.2663 45.681C30.0143 45.681 29.6993 45.681 29.4473 45.555C29.0693 45.555 28.8173 45.429 28.6913 45.303C28.5023 45.177 28.4393 45.051 28.5023 44.862C28.5023 44.736 28.7543 44.547 29.2583 44.295C29.6993 44.106 30.2663 43.854 30.8963 43.602C31.5263 43.413 32.1563 43.161 32.8493 42.909C33.4793 42.72 34.0463 42.468 34.6763 42.216C35.1803 41.964 35.6213 41.712 35.9363 41.46C36.5033 40.893 37.0703 40.326 37.6373 39.759C38.1413 39.255 38.7713 38.94 39.6533 38.94C40.4093 38.94 41.1653 39.066 41.9213 39.255C42.5513 39.507 43.4963 39.633 44.6933 39.696C45.1973 39.759 45.7013 39.885 46.2053 40.074C46.5833 40.326 46.8983 40.641 47.1503 40.956C47.2763 41.334 47.3393 41.712 47.2763 42.09C47.1503 42.594 46.7723 43.035 46.2683 43.476C45.7013 43.98 45.2603 44.295 45.0083 44.547C44.6303 44.862 44.4413 45.177 44.3153 45.429C44.1893 45.807 44.1263 46.185 44.1263 46.563C44.1263 47.067 44.1263 47.634 44.2523 48.39C44.3783 49.902 44.4413 51.099 44.4413 52.044C44.4413 53.052 44.4413 53.808 44.4413 54.375C44.4413 55.068 44.2523 55.572 44.0003 55.824C43.6853 56.202 43.3073 56.58 42.8033 57.021C42.5513 57.273 42.3623 57.588 42.2363 57.84C42.0473 58.155 41.9213 58.407 41.7953 58.659C41.6693 58.974 41.4803 59.226 41.3543 59.352C41.1653 59.604 40.9763 59.73 40.7243 59.73C40.4723 59.793 39.9053 59.793 39.0863 59.667C38.2043 59.604 37.2593 59.478 36.3143 59.352C35.1803 59.226 33.9833 59.1 32.5973 58.911ZM72.6023 49.65C72.6023 49.839 72.6653 50.028 72.7283 50.217C72.7283 50.469 72.7913 50.721 72.7913 50.91C72.7913 51.162 72.7283 51.351 72.6023 51.477C72.4133 51.666 72.1613 51.792 71.8463 51.855C71.1533 52.107 70.2713 52.17 69.2633 52.17C68.1293 52.17 67.2473 52.17 66.5543 52.044C66.2393 52.044 65.7983 52.044 65.2313 52.044C64.6013 52.107 64.0343 52.17 63.4043 52.17C62.7743 52.233 62.1443 52.296 61.5773 52.296C60.9473 52.422 60.5063 52.485 60.2543 52.485C60.1913 52.485 60.1913 52.485 60.1913 52.485C60.1283 52.548 60.0653 52.548 60.0653 52.548V52.8H60.0023C60.0023 53.43 59.9393 54.06 59.9393 54.627C59.8763 55.257 59.8133 55.698 59.8133 56.076C59.7503 56.58 59.6243 57.084 59.4983 57.651C59.2463 58.281 59.0573 58.848 58.8053 59.352C58.5533 59.982 58.2383 60.486 57.9863 60.927C57.6713 61.431 57.4193 61.746 57.1673 61.935C56.9153 62.187 56.6003 62.376 56.3483 62.502C55.9703 62.754 55.7183 62.88 55.4663 62.88C55.1513 63.006 54.9623 62.943 54.8363 62.817C54.7103 62.691 54.7103 62.439 54.8993 61.935C55.0253 61.62 55.0883 61.116 55.1513 60.423C55.1513 59.793 55.2143 58.974 55.2773 58.092C55.2773 57.273 55.3403 56.391 55.3403 55.446C55.2773 54.564 55.2773 53.682 55.2773 52.8H55.2143C55.1513 51.099 55.1513 49.587 55.1513 48.264C55.0883 47.004 55.0883 46.374 55.2143 46.248C55.3403 46.059 55.5293 45.933 55.7183 45.933C55.8443 45.996 55.9073 45.87 56.0333 45.555C56.0333 45.429 56.0333 45.24 55.9703 45.114C55.8443 44.988 55.7813 44.862 55.7183 44.673C55.5923 44.547 55.4663 44.295 55.4033 44.043C55.2773 43.854 55.2773 43.602 55.3403 43.224C55.4033 42.783 55.4663 42.279 55.4663 41.649C55.4663 41.145 55.4663 40.578 55.4663 40.011C55.4033 39.381 55.4033 38.877 55.4033 38.436C55.4033 38.058 55.4033 37.743 55.4663 37.428C55.4663 37.176 55.4663 36.924 55.4663 36.672C55.4663 36.483 55.4663 36.231 55.4663 35.979C55.3403 35.538 55.3403 35.034 55.3403 34.467C55.2773 33.963 55.0253 33.522 54.5213 33.081C54.0173 32.703 53.5763 32.451 53.1983 32.262C52.6943 32.136 52.2533 31.947 51.8753 31.695C51.6233 31.569 51.4973 31.443 51.4973 31.191C51.4343 31.002 51.4973 30.813 51.6233 30.561C51.6863 30.435 51.8753 30.246 52.1273 30.12C52.3793 30.057 52.6943 30.057 53.1353 30.12C53.3873 30.246 53.7653 30.372 54.3953 30.498C54.8993 30.687 55.5293 30.876 56.2223 31.065C56.8523 31.317 57.5453 31.506 58.2383 31.632C58.8683 31.821 59.4353 31.947 59.8133 32.01C60.3803 32.199 60.8213 32.388 61.1993 32.514C61.5143 32.766 61.5773 33.144 61.3883 33.774C61.1363 34.467 60.9473 35.16 60.7583 35.916C60.5063 36.672 60.3803 37.491 60.3803 38.31C60.3803 38.94 60.3803 39.57 60.3803 40.326C60.3173 41.082 60.3173 41.901 60.3173 42.657C60.3173 43.224 60.2543 44.232 60.1913 45.618C60.0653 47.067 60.0653 48.579 60.0653 50.217L61.3253 49.965C61.8293 49.839 62.2073 49.776 62.5853 49.65C62.8373 49.587 63.0893 49.524 63.3413 49.398C63.4673 49.398 63.6563 49.272 63.9083 49.146C64.0343 49.083 64.2863 48.957 64.5383 48.831C65.0423 48.579 65.5463 48.39 66.0503 48.201C66.4913 48.075 66.9953 48.012 67.4993 48.138C68.0663 48.264 68.6333 48.264 69.2003 48.138C69.7043 48.075 70.0823 48.012 70.3973 48.012C70.9013 48.012 71.3423 48.138 71.8463 48.39C72.2243 48.768 72.4763 49.146 72.6023 49.65Z" fill="white"/>
<rect x="90.5" y="0.5" width="90" height="120" fill="#F6C500"/>
<rect x="90.5" y="0.5" width="90" height="120" stroke="black"/>
<path d="M155.161 43.98C155.161 44.484 155.161 45.051 155.161 45.681C155.098 46.437 155.098 47.13 155.098 47.76C155.035 48.453 155.035 49.083 155.035 49.587C154.972 50.217 154.972 50.595 154.972 50.721C154.972 52.485 154.972 53.934 154.972 55.005C154.909 56.139 154.783 57.147 154.657 58.155C154.594 58.659 154.468 59.163 154.342 59.73C154.153 60.36 153.964 60.99 153.712 61.494C153.46 62.124 153.208 62.628 152.956 63.069C152.704 63.573 152.452 63.951 152.2 64.14C151.948 64.392 151.633 64.581 151.381 64.707C151.003 64.959 150.751 65.085 150.499 65.085C150.247 65.211 150.058 65.148 149.995 65.022C149.869 64.896 149.869 64.644 150.058 64.14C150.184 63.762 150.247 63.195 150.31 62.439C150.31 61.683 150.373 60.864 150.436 59.856C150.436 58.974 150.436 57.966 150.436 56.958C150.373 55.95 150.373 55.005 150.373 54.123C150.31 53.178 150.31 52.233 150.31 51.351C150.31 50.532 150.31 49.713 150.31 48.831C149.932 49.398 149.617 49.965 149.302 50.469C148.924 51.099 148.609 51.603 148.294 52.107C147.916 52.611 147.538 53.241 147.16 53.934C146.656 54.69 146.215 55.383 145.837 56.139C145.396 56.895 145.018 57.651 144.703 58.344C144.325 59.1 144.136 59.793 144.01 60.36C143.884 60.738 143.884 61.053 144.01 61.305C144.01 61.557 144.01 61.809 144.01 61.935C143.947 62.124 143.821 62.25 143.632 62.25C143.38 62.376 143.002 62.376 142.435 62.25C141.175 62.25 140.356 62.061 139.915 61.809C139.411 61.557 139.159 60.801 139.285 59.415C139.285 58.533 139.285 57.336 139.285 55.95C139.159 54.564 139.159 53.304 139.285 52.17C139.285 51.666 139.285 51.288 139.285 50.91C139.285 50.658 139.285 50.469 139.348 50.406C139.474 50.28 139.663 50.154 139.789 50.154C139.915 50.154 139.978 50.028 140.104 49.713C140.104 49.587 140.104 49.398 140.104 49.272C139.978 49.146 139.915 49.02 139.852 48.831C139.726 48.705 139.6 48.516 139.537 48.264C139.411 48.075 139.411 47.823 139.474 47.445C139.537 47.004 139.6 46.374 139.6 45.555C139.6 44.799 139.6 44.169 139.6 43.539V39.381C139.474 38.94 139.474 38.436 139.474 37.869C139.411 37.365 139.159 36.924 138.718 36.483C138.214 36.105 137.836 35.853 137.458 35.664C137.017 35.538 136.639 35.349 136.324 35.097C136.135 34.971 136.009 34.845 136.009 34.593C135.883 34.404 135.883 34.215 136.009 33.963C136.072 33.837 136.261 33.648 136.513 33.522C136.702 33.459 137.017 33.459 137.395 33.585C137.584 33.711 137.962 33.837 138.529 33.963C139.033 34.152 139.663 34.341 140.293 34.467C140.923 34.719 141.553 34.908 142.183 35.034C142.75 35.286 143.254 35.412 143.632 35.475C144.136 35.601 144.577 35.79 144.955 35.916C145.207 36.168 145.27 36.546 145.144 37.176C144.892 37.869 144.703 38.562 144.514 39.318C144.262 40.137 144.199 40.956 144.199 41.838C144.136 42.468 144.136 43.224 144.136 44.169C144.136 45.177 144.073 46.059 144.073 46.815C144.073 47.319 144.01 47.949 144.01 48.831C143.947 49.776 143.884 50.658 143.884 51.477C143.947 52.044 144.199 52.233 144.577 52.044C144.955 51.918 145.459 51.351 146.215 50.28C146.908 49.335 147.664 48.327 148.483 47.319C149.239 46.374 149.995 45.492 150.751 44.673C150.625 44.547 150.562 44.295 150.499 44.043C150.373 43.854 150.373 43.602 150.436 43.224C150.499 42.783 150.562 42.405 150.562 42.027C150.499 41.775 150.499 41.334 150.499 40.704C150.499 39.507 150.499 38.562 150.562 37.806C150.562 37.176 150.499 36.546 150.499 35.916C150.436 35.475 150.436 34.971 150.436 34.404C150.373 33.9 150.121 33.459 149.68 33.018C149.176 32.64 148.735 32.388 148.357 32.199C147.916 32.073 147.538 31.884 147.223 31.632C147.034 31.506 146.908 31.38 146.908 31.128C146.782 30.939 146.782 30.75 146.908 30.498C146.971 30.372 147.16 30.183 147.412 30.057C147.601 29.994 147.916 29.994 148.357 30.12C148.546 30.246 148.924 30.372 149.491 30.498C149.995 30.687 150.625 30.876 151.255 31.002C151.885 31.254 152.515 31.443 153.208 31.569C153.838 31.821 154.342 31.947 154.72 32.01C155.224 32.136 155.665 32.325 156.043 32.451C156.295 32.703 156.358 33.081 156.232 33.711C155.98 34.404 155.791 35.097 155.602 35.853C155.35 36.672 155.224 37.491 155.224 38.373V41.019C155.161 41.586 155.161 42.09 155.161 42.594C155.161 43.161 155.161 43.602 155.161 43.98ZM136.513 45.429C136.576 45.681 136.513 45.87 136.387 46.059C136.135 46.311 135.82 46.5 135.379 46.563C134.875 46.689 134.56 46.815 134.371 46.941C134.119 47.13 133.867 47.13 133.615 46.941C133.363 46.752 133.237 46.5 133.3 46.185C133.3 45.933 133.237 45.807 133.111 45.807C132.922 45.807 132.796 45.87 132.733 45.996C132.607 46.185 132.544 46.374 132.544 46.5C132.418 46.689 132.355 46.878 132.292 47.004C132.166 47.193 131.977 47.319 131.851 47.319C131.473 47.508 130.969 47.634 130.276 47.76C129.52 47.949 128.953 48.138 128.512 48.327C127.819 48.579 127.315 48.705 126.937 48.768C126.496 48.894 126.118 49.083 125.74 49.272C126.181 49.524 126.685 49.776 127.189 50.091C127.693 50.469 128.26 50.721 128.89 50.91C129.016 50.973 129.268 51.036 129.646 51.099C129.961 51.225 130.339 51.351 130.78 51.477C131.158 51.666 131.599 51.855 132.04 51.981C132.418 52.17 132.733 52.359 132.985 52.485C133.426 52.8 133.741 53.241 133.93 53.808C134.056 54.438 134.056 55.194 133.93 55.95C133.804 56.895 133.552 57.777 133.111 58.596C132.607 59.478 131.977 60.297 131.347 61.053C130.591 61.809 129.835 62.502 129.079 63.069C128.197 63.699 127.441 64.14 126.685 64.455C125.425 65.085 124.165 65.4 122.905 65.4C121.519 65.526 120.511 65.526 119.755 65.4C119.062 65.337 118.369 64.77 117.739 63.699C117.046 62.691 116.668 61.62 116.605 60.36C116.479 59.604 116.542 58.911 116.668 58.155C116.731 57.525 116.794 56.958 116.92 56.58C116.983 56.202 117.109 55.887 117.361 55.572C117.487 55.32 117.865 55.131 118.495 55.005C118.999 54.942 119.377 54.816 119.692 54.564C119.944 54.438 120.133 54.06 120.385 53.43C120.574 52.863 120.763 52.359 121.015 51.855C121.204 51.414 121.393 50.973 121.645 50.595C121.771 50.28 121.96 49.965 122.338 49.713C122.59 49.461 122.968 49.272 123.346 49.146C123.724 48.831 124.102 48.516 124.48 48.264C124.795 48.012 125.173 47.76 125.551 47.382C125.803 47.13 125.992 46.941 125.992 46.689C125.992 46.563 125.677 46.5 125.11 46.5C124.984 46.5 124.795 46.563 124.543 46.563C124.291 46.626 123.976 46.689 123.661 46.752C123.409 46.878 123.22 46.941 123.094 46.941C122.905 47.067 122.716 47.13 122.59 47.13C121.96 47.319 121.708 47.445 121.708 47.508C121.645 47.634 121.519 47.634 121.33 47.445C121.078 47.382 120.952 47.256 120.889 47.004L120.763 46.752C120.637 46.878 120.574 47.004 120.448 47.13C120.259 47.319 120.07 47.508 119.944 47.76C119.818 47.949 119.629 48.075 119.503 48.138C119.314 48.264 118.999 48.39 118.621 48.39C118.18 48.516 117.676 48.516 117.172 48.516C116.605 48.516 115.975 48.264 115.345 47.76C114.967 47.508 114.778 47.319 114.652 47.067C114.526 46.878 114.4 46.689 114.337 46.5C114.211 46.374 114.148 46.248 114.085 46.059C113.959 45.933 113.77 45.807 113.581 45.681C113.077 45.429 112.762 45.24 112.636 45.24C112.384 45.24 112.132 45.24 111.88 45.114C111.502 45.051 111.313 44.925 111.313 44.673C111.187 44.484 111.376 44.358 111.88 44.295C112.384 44.295 112.825 44.232 113.203 44.232C113.518 44.295 114.148 44.295 115.03 44.295C115.219 44.295 115.597 44.295 116.227 44.295C116.794 44.295 117.487 44.295 118.243 44.232C118.999 44.232 119.755 44.232 120.574 44.169C121.33 44.169 121.96 44.106 122.59 43.98C123.22 43.854 123.85 43.791 124.48 43.665C124.984 43.602 125.425 43.602 125.74 43.665C126.244 43.791 126.937 43.791 127.693 43.665C128.449 43.539 128.953 43.476 129.205 43.35C129.457 43.224 129.835 43.035 130.339 42.72C130.717 42.468 131.032 42.153 131.284 41.775C131.473 41.46 131.851 41.271 132.418 41.208C132.922 41.208 133.3 41.271 133.615 41.46C133.804 41.712 134.182 41.964 134.749 42.342C135.253 42.783 135.631 43.224 135.82 43.665C135.82 43.791 135.946 44.043 136.135 44.421C136.261 44.799 136.387 45.177 136.513 45.429ZM134.245 67.416C134.308 67.164 134.497 67.038 134.812 66.912C135.064 66.849 135.442 66.975 135.883 67.29C136.45 67.794 137.017 68.172 137.584 68.55C138.088 68.928 138.403 69.432 138.529 69.999C138.655 70.629 138.655 71.322 138.529 72.141C138.34 73.023 137.899 74.094 137.206 75.354C136.765 76.11 136.261 76.803 135.757 77.433C135.19 78.126 134.623 78.819 133.993 79.575C134.371 79.701 134.875 79.89 135.442 80.142C135.946 80.331 136.513 80.583 137.017 80.898C137.521 81.15 137.962 81.402 138.403 81.78C138.781 82.032 139.033 82.347 139.159 82.725C139.222 82.977 139.285 83.229 139.411 83.481C139.474 83.67 139.537 83.859 139.6 84.111C139.789 84.048 140.104 83.796 140.545 83.418C141.553 82.41 142.372 81.339 143.065 80.205C143.695 79.008 144.199 78.063 144.514 77.37C144.766 76.803 145.018 76.236 145.333 75.732C145.585 75.291 145.774 74.913 145.9 74.535C145.963 74.157 145.963 73.842 145.963 73.527C145.837 73.275 145.648 73.212 145.333 73.275C144.955 73.401 144.703 73.464 144.577 73.527C144.388 73.653 144.199 73.716 144.01 73.716C143.884 73.716 143.758 73.716 143.569 73.59C143.317 73.527 143.128 73.401 142.939 73.275C142.687 73.212 142.498 73.086 142.372 72.96C142.183 72.834 142.12 72.708 142.12 72.519C142.12 72.204 142.183 71.952 142.183 71.7C142.183 71.511 142.498 71.385 143.254 71.259C143.947 71.196 144.388 71.07 144.64 70.881C144.766 70.755 145.081 70.503 145.459 70.062C145.9 69.747 146.215 69.432 146.467 69.117C146.593 68.865 146.845 68.676 147.16 68.424L147.916 68.046C148.105 67.983 148.357 67.92 148.609 67.794C148.798 67.731 148.987 67.668 149.239 67.668L151.381 67.92C151.507 67.92 151.696 68.046 151.885 68.298C152.011 68.55 151.948 69.054 151.759 69.81C151.444 70.944 151.003 72.204 150.499 73.464C149.932 74.85 149.302 76.173 148.609 77.433L147.853 78.504C148.672 78.819 149.617 79.323 150.625 80.016C151.633 80.646 152.452 81.213 153.145 81.78C153.523 82.095 153.901 82.473 154.405 82.914C154.783 83.292 155.224 83.67 155.602 84.111C155.98 84.489 156.295 84.804 156.547 85.182C156.799 85.497 156.925 85.749 157.051 86.001C157.177 86.379 157.24 86.757 157.114 87.135C156.988 87.513 156.61 87.639 156.106 87.513C155.602 87.387 155.161 87.324 154.846 87.324C154.468 87.198 154.153 87.261 153.901 87.513C153.649 87.639 153.334 87.765 153.082 87.891C152.704 87.891 152.326 87.639 151.822 87.135C151.57 86.883 151.318 86.442 151.003 85.812C150.625 85.182 150.184 84.489 149.806 83.733C149.302 82.977 148.861 82.221 148.357 81.528C147.853 80.772 147.349 80.205 146.845 79.827C146.467 80.205 146.152 80.52 145.9 80.898C145.585 81.213 145.333 81.528 145.081 81.906C144.955 82.032 144.766 82.284 144.514 82.662C144.199 82.977 143.884 83.355 143.632 83.733C143.254 84.111 142.939 84.426 142.624 84.804C142.246 85.119 141.994 85.371 141.868 85.497C141.112 86.19 140.482 86.82 140.041 87.387C139.915 87.45 139.852 87.576 139.726 87.765C139.6 87.891 139.411 88.08 139.222 88.269C139.096 88.458 138.907 88.584 138.655 88.584C138.403 88.647 138.277 88.647 138.151 88.584C137.962 88.458 137.836 88.143 137.836 87.702C137.332 86.82 136.639 85.749 135.694 84.552C134.686 83.292 133.678 82.284 132.544 81.528L132.355 81.402L130.654 83.166C129.394 84.363 128.197 85.371 127.063 86.253C125.929 87.009 124.795 87.513 123.724 87.765C123.157 87.891 122.716 87.954 122.401 88.017C122.023 88.017 121.645 88.08 121.393 88.08C121.078 88.08 120.826 88.017 120.574 87.954C120.259 87.828 119.944 87.765 119.692 87.639C119.062 87.261 118.873 87.009 119.125 86.883C119.251 86.631 119.692 86.568 120.385 86.568C121.015 86.568 121.708 86.505 122.527 86.379C123.283 86.253 124.039 85.938 124.921 85.497C125.992 84.867 126.937 84.048 127.819 82.977C128.638 81.843 129.331 80.772 129.961 79.764C129.079 79.134 128.197 78.567 127.378 78.063C126.496 77.559 125.929 77.181 125.74 77.055C125.362 76.866 125.173 76.614 125.173 76.236C125.11 75.921 125.425 75.858 126.055 76.11C126.559 76.362 127.252 76.614 128.134 76.929C128.953 77.307 129.835 77.748 130.843 78.126C131.599 76.551 132.103 75.228 132.481 74.22C132.796 73.275 133.048 72.456 133.3 71.7C133.552 70.881 133.804 69.999 133.93 69.117C134.056 68.298 134.119 67.731 134.245 67.416ZM120.7 58.47C120.7 59.163 120.889 59.73 121.267 60.171C121.582 60.675 122.023 61.053 122.527 61.305C123.031 61.62 123.598 61.746 124.228 61.746C124.795 61.746 125.425 61.62 126.055 61.305C126.937 60.864 127.756 60.171 128.386 59.289C129.016 58.407 129.268 57.336 129.205 55.95C129.142 55.257 129.016 54.69 128.764 54.249C128.449 53.871 128.134 53.619 127.756 53.367C127.315 53.241 126.874 53.115 126.433 53.052C125.929 53.052 125.488 53.115 125.11 53.115C124.48 53.241 123.913 53.367 123.472 53.493C122.968 53.745 122.527 53.934 122.275 54.06C121.519 54.438 121.078 55.005 120.889 55.635C120.637 56.328 120.574 57.273 120.7 58.47ZM119.755 35.16C120.007 35.412 120.322 35.664 120.7 35.79C121.015 36.042 121.456 36.105 121.96 36.105C122.401 36.105 122.905 36.042 123.472 35.916C123.976 35.853 124.48 35.79 125.11 35.79C125.677 35.79 126.307 35.916 127 36.042C127.63 36.294 128.197 36.42 128.575 36.42C128.953 36.546 129.142 36.798 129.268 37.302C129.268 37.869 129.268 38.31 129.205 38.625C129.079 39.003 128.764 39.318 128.197 39.633C127.567 40.011 127.063 40.326 126.559 40.515C126.307 40.641 125.929 40.641 125.425 40.641C124.921 40.704 124.417 40.704 123.913 40.578C123.346 40.578 122.842 40.452 122.464 40.263C121.96 40.137 121.708 40.011 121.645 39.759C121.141 38.94 120.7 38.247 120.196 37.617C119.692 37.113 119.314 36.672 119.125 36.42C118.873 36.042 118.936 35.727 119.188 35.349C119.377 35.034 119.566 34.971 119.755 35.16Z" fill="white"/>
<rect x="180.5" y="0.5" width="90" height="120" fill="#F6C500"/>
<rect x="180.5" y="0.5" width="90" height="120" stroke="black"/>
<path d="M218.371 48.075C219.19 48.201 220.072 48.327 221.017 48.579C221.899 48.894 222.718 49.335 223.537 49.902C224.293 50.532 224.986 51.225 225.553 52.107C226.057 53.052 226.309 54.186 226.435 55.446C226.435 56.076 226.435 56.454 226.435 56.706C226.372 56.958 226.309 57.147 226.309 57.273C226.183 57.399 226.12 57.525 226.057 57.525C225.931 57.588 225.805 57.651 225.805 57.777C225.742 57.903 225.742 58.029 225.805 58.029C225.805 58.155 225.868 58.218 225.994 58.344C225.994 58.47 226.057 58.659 226.12 58.848C226.12 59.1 226.12 59.478 225.994 59.856C225.616 61.053 225.175 62.313 224.608 63.573C223.978 64.959 223.033 66.03 221.836 66.849C221.206 67.353 220.45 67.731 219.694 67.92C218.875 68.172 218.119 68.361 217.363 68.424C216.544 68.55 215.851 68.55 215.221 68.55C214.528 68.55 214.024 68.55 213.646 68.55C212.638 68.424 211.693 68.172 210.811 67.794C209.803 67.479 208.984 67.164 208.291 66.786C207.031 66.156 206.149 65.274 205.519 64.14C204.889 63.069 204.448 61.935 204.259 60.738C204.007 59.604 204.007 58.407 204.133 57.273C204.259 56.202 204.448 55.32 204.826 54.564C205.141 53.745 205.645 52.863 206.401 51.918C207.031 51.036 207.976 50.28 209.11 49.524C208.858 48.894 208.669 48.201 208.417 47.571C208.165 47.004 207.913 46.563 207.661 46.248C207.409 45.996 207.22 45.744 207.22 45.492C207.157 45.24 207.22 45.051 207.346 44.862C207.472 44.736 207.661 44.61 207.913 44.547C208.102 44.547 208.354 44.673 208.669 44.862C208.921 45.051 209.173 45.177 209.425 45.303C209.614 45.492 209.866 45.618 210.118 45.744C210.37 45.87 210.622 45.996 211 46.122C211.252 46.311 211.63 46.5 212.134 46.689C212.512 46.941 212.827 47.256 213.142 47.634C213.394 48.075 213.646 48.516 213.835 49.02C214.339 48.831 214.969 48.579 215.788 48.327C216.544 48.138 217.363 48.075 218.371 48.075ZM228.01 56.454C227.002 56.328 226.561 56.013 226.561 55.635C226.498 55.32 226.75 55.131 227.38 55.005C227.632 55.005 227.884 54.942 228.136 54.879C228.262 54.879 228.514 54.879 228.766 54.816C229.018 54.816 229.333 54.753 229.711 54.69C230.026 54.69 230.53 54.69 231.16 54.69C231.853 54.69 232.924 54.564 234.373 54.312C235.759 54.06 237.208 53.808 238.594 53.43C238.531 51.729 238.531 50.217 238.531 48.894C238.531 47.634 238.531 47.004 238.657 46.878C238.783 46.752 238.972 46.626 239.161 46.626C239.287 46.626 239.35 46.5 239.476 46.185C239.476 46.059 239.476 45.87 239.413 45.744C239.287 45.618 239.224 45.492 239.161 45.303C239.035 45.177 238.909 44.988 238.846 44.736C238.72 44.547 238.72 44.295 238.783 43.917C238.846 43.476 238.909 42.972 238.909 42.342C238.846 41.838 238.846 41.271 238.846 40.641C238.783 39.381 238.783 38.436 238.909 37.743C238.909 37.113 238.909 36.546 238.846 35.916C238.783 35.475 238.783 34.971 238.783 34.404C238.72 33.9 238.468 33.459 237.964 33.018C237.46 32.64 237.019 32.388 236.578 32.199C236.074 32.073 235.696 31.884 235.318 31.632C235.066 31.506 234.94 31.38 234.94 31.128C234.877 30.939 234.94 30.75 235.066 30.498C235.129 30.372 235.318 30.183 235.57 30.057C235.822 29.994 236.137 29.994 236.578 30.12C236.767 30.246 237.145 30.309 237.775 30.435C238.279 30.624 238.909 30.813 239.665 30.939C240.295 31.191 240.988 31.38 241.681 31.506C242.311 31.695 242.815 31.821 243.256 31.884C243.823 32.073 244.264 32.262 244.642 32.388C244.957 32.64 245.02 33.018 244.831 33.648C244.579 34.341 244.39 35.034 244.201 35.79C243.949 36.609 243.823 37.428 243.823 38.31C243.823 38.877 243.76 39.633 243.76 40.641C243.697 41.649 243.697 42.531 243.697 43.287C243.697 43.665 243.634 44.106 243.634 44.673C243.571 45.303 243.571 45.996 243.571 46.626C243.508 47.319 243.508 47.949 243.508 48.516C243.445 49.146 243.445 49.65 243.445 49.965C243.445 50.658 243.445 51.225 243.508 51.729C243.508 52.296 243.508 52.8 243.508 53.304C243.508 53.871 243.508 54.438 243.571 55.005C243.571 55.635 243.571 56.391 243.571 57.21C243.571 57.84 243.571 58.533 243.634 59.289C243.634 60.108 243.634 60.864 243.634 61.62C243.634 62.439 243.634 63.195 243.634 63.888C243.571 64.644 243.571 65.337 243.571 65.841C243.445 68.109 243.445 69.936 243.445 71.448C243.382 73.023 243.382 74.094 243.382 74.661C243.382 75.669 243.256 76.74 243.13 77.937C242.878 79.134 242.689 80.331 242.437 81.465C242.122 82.599 241.807 83.607 241.555 84.552C241.177 85.434 240.925 86.127 240.673 86.505C240.421 86.883 240.106 87.324 239.854 87.765C239.476 88.143 239.224 88.395 238.972 88.584C238.657 88.71 238.468 88.647 238.342 88.395C238.216 88.08 238.216 87.45 238.405 86.505C238.531 85.56 238.657 84.111 238.783 82.158C238.783 80.142 238.846 78 238.909 75.669C238.909 73.401 238.909 71.133 238.909 68.865C238.846 66.66 238.846 64.833 238.846 63.447C238.909 62.439 238.909 61.431 238.846 60.36C238.72 59.352 238.72 58.092 238.72 56.643C238.468 56.769 238.216 56.895 237.964 56.958C237.649 57.084 237.397 57.21 237.145 57.21C236.767 57.336 236.326 57.399 235.759 57.525C235.129 57.714 234.562 57.84 233.995 57.966C233.365 58.092 232.861 58.218 232.357 58.218C231.79 58.344 231.412 58.281 231.16 58.155C230.908 58.029 230.719 57.903 230.593 57.714C230.341 57.588 230.152 57.399 229.963 57.21C229.711 57.084 229.459 56.895 229.207 56.706C228.829 56.58 228.451 56.517 228.01 56.454ZM212.953 52.863C212.386 53.367 211.945 53.619 211.567 53.682C211.126 53.808 210.748 53.808 210.496 53.682C209.866 53.745 209.362 54.123 209.047 54.816C208.669 55.572 208.417 56.202 208.354 56.832C208.228 57.588 208.228 58.281 208.291 58.974C208.291 59.73 208.48 60.36 208.795 60.99C209.047 61.62 209.425 62.187 210.055 62.691C210.622 63.195 211.441 63.573 212.449 63.825C213.709 64.203 214.843 64.266 215.977 64.14C216.985 64.014 217.993 63.762 218.938 63.384C220.135 62.439 220.891 61.368 221.269 60.108C221.584 58.974 221.773 57.651 221.899 56.265C221.962 54.816 221.584 53.556 220.828 52.422C220.009 51.351 218.938 50.658 217.552 50.406C217.048 50.343 216.481 50.343 215.851 50.343C215.158 50.406 214.591 50.406 214.087 50.406C214.087 51.414 213.709 52.233 212.953 52.863Z" fill="white"/>
<rect x="270.5" y="0.5" width="90" height="120" fill="#F6C500"/>
<rect x="270.5" y="0.5" width="90" height="120" stroke="black"/>
<path d="M342.917 59.73C342.917 60.108 342.98 60.549 342.98 60.99C342.98 61.494 342.602 61.809 341.909 61.935C341.216 62.061 340.334 62.061 339.326 61.935C338.255 61.809 337.373 61.683 336.617 61.494C336.302 61.494 335.861 61.431 335.294 61.368C334.664 61.368 334.097 61.368 333.467 61.368C332.837 61.368 332.207 61.368 331.64 61.368C331.01 61.431 330.569 61.431 330.317 61.431H330.191C330.191 62.313 330.191 63.069 330.191 63.825C330.128 64.581 330.128 65.274 330.128 65.841C330.002 68.109 330.002 69.936 330.002 71.448C329.939 73.023 329.939 74.094 329.939 74.661C329.939 75.669 329.813 76.74 329.687 77.937C329.435 79.134 329.246 80.331 328.994 81.465C328.679 82.599 328.364 83.607 328.112 84.552C327.734 85.434 327.482 86.127 327.23 86.505C326.978 86.883 326.663 87.324 326.411 87.765C326.033 88.143 325.781 88.395 325.529 88.584C325.214 88.71 325.025 88.647 324.899 88.395C324.773 88.08 324.773 87.45 324.962 86.505C325.088 85.56 325.214 84.111 325.34 82.158C325.34 80.142 325.403 78 325.466 75.669C325.466 73.401 325.466 71.133 325.466 68.865C325.403 66.66 325.403 64.833 325.403 63.447C325.466 62.376 325.466 61.242 325.403 60.108C325.277 58.974 325.277 57.651 325.277 56.013C325.214 55.005 325.214 53.934 325.214 52.8C325.151 51.729 325.151 50.721 325.151 49.839C325.151 49.02 325.151 48.327 325.151 47.76C325.151 47.256 325.151 46.941 325.214 46.878C325.34 46.752 325.529 46.626 325.718 46.626C325.844 46.626 325.907 46.5 326.033 46.185C326.033 46.059 326.033 45.87 325.97 45.744C325.844 45.618 325.781 45.492 325.718 45.303C325.592 45.177 325.466 44.988 325.403 44.736C325.277 44.547 325.277 44.295 325.34 43.917C325.403 43.476 325.466 42.972 325.466 42.342C325.403 41.838 325.403 41.271 325.403 40.641C325.34 39.381 325.34 38.436 325.466 37.743C325.466 37.113 325.466 36.546 325.403 35.916C325.34 35.475 325.34 34.971 325.34 34.404C325.277 33.9 325.025 33.459 324.521 33.018C324.017 32.64 323.576 32.388 323.135 32.199C322.631 32.073 322.253 31.884 321.875 31.632C321.623 31.506 321.497 31.38 321.497 31.128C321.434 30.939 321.497 30.75 321.623 30.498C321.686 30.372 321.875 30.183 322.127 30.057C322.379 29.994 322.694 29.994 323.135 30.12C323.324 30.246 323.702 30.309 324.332 30.435C324.836 30.624 325.466 30.813 326.222 30.939C326.852 31.191 327.545 31.38 328.238 31.506C328.868 31.695 329.372 31.821 329.813 31.884C330.38 32.073 330.821 32.262 331.199 32.388C331.514 32.64 331.577 33.018 331.388 33.648C331.136 34.341 330.947 35.034 330.758 35.79C330.506 36.609 330.38 37.428 330.38 38.31C330.38 38.877 330.317 39.633 330.317 40.641C330.254 41.649 330.254 42.531 330.254 43.287C330.254 43.665 330.191 44.106 330.191 44.673C330.128 45.303 330.128 45.996 330.128 46.626C330.065 47.319 330.065 47.949 330.065 48.516C330.002 49.146 330.002 49.65 330.002 49.965C330.002 50.658 330.002 51.225 330.065 51.729C330.065 52.296 330.065 52.8 330.065 53.304C330.065 53.871 330.065 54.438 330.128 55.005C330.128 55.635 330.128 56.391 330.128 57.21V59.226L331.703 59.037C332.207 58.974 332.585 58.911 332.963 58.785C333.215 58.785 333.467 58.722 333.719 58.596C333.908 58.596 334.097 58.533 334.349 58.407C334.475 58.407 334.727 58.281 334.979 58.155C335.546 57.966 336.05 57.777 336.554 57.651C336.932 57.525 337.436 57.588 338.003 57.777C338.507 58.029 339.011 58.029 339.641 57.903C340.145 57.84 340.586 57.84 340.901 57.84C341.342 57.903 341.783 58.092 342.224 58.407C342.602 58.785 342.854 59.226 342.917 59.73ZM302.219 70.188C303.731 70.062 305.243 69.936 306.881 69.747C308.393 69.621 309.968 69.243 311.543 68.613C312.047 68.487 312.677 68.109 313.37 67.605C314 67.101 314.441 66.471 314.693 65.589L315.638 61.683C315.701 61.431 315.827 61.179 316.016 60.927C316.142 60.738 316.331 60.927 316.52 61.557C316.709 62.187 316.772 62.628 316.772 62.88C316.646 63.195 316.709 63.447 316.961 63.573C317.087 63.762 317.276 63.825 317.528 63.699C317.717 63.699 317.843 63.825 317.969 64.14C317.969 64.518 318.095 64.77 318.284 64.896C318.41 65.085 318.599 65.148 318.725 65.085C319.103 65.085 319.418 65.4 319.544 66.03C319.544 66.282 319.607 66.471 319.859 66.597C319.985 66.849 320.111 67.101 320.237 67.479C320.237 67.92 320.111 68.424 319.733 68.928C319.292 69.495 318.851 69.936 318.347 70.251C317.717 70.692 316.835 71.07 315.575 71.385C314.315 71.763 313.118 72.015 311.984 72.204C310.346 72.456 308.708 72.645 307.007 72.771C305.243 72.96 303.542 73.023 301.904 73.023C300.959 73.023 300.077 72.96 299.321 72.771C298.439 72.645 297.746 72.393 297.179 71.952C296.549 71.574 296.108 71.07 295.793 70.314C295.415 69.621 295.226 68.676 295.289 67.479C295.289 65.463 295.415 63.699 295.541 62.187C295.604 60.738 295.667 59.793 295.667 59.289V59.1C295.415 58.974 295.226 58.911 295.037 58.785C294.785 58.785 294.659 58.659 294.596 58.533C294.47 58.47 294.407 58.344 294.533 58.218C294.596 58.155 294.848 58.029 295.289 57.84C295.163 57.651 294.974 57.399 294.848 57.147C294.659 56.958 294.47 56.769 294.281 56.517C293.651 56.076 293.336 55.698 293.336 55.32C293.273 55.068 293.651 54.942 294.407 55.005C295.163 55.131 295.919 55.32 296.738 55.572C297.494 55.887 298.187 56.202 298.817 56.58C298.817 56.643 298.817 56.643 298.943 56.643C299.888 56.391 300.833 56.076 301.715 55.824C302.534 55.572 303.227 55.383 303.857 55.131C304.55 54.879 305.054 54.564 305.432 54.249C305.747 53.997 306.062 53.493 306.377 52.611C306.629 51.855 307.007 50.91 307.385 49.776C307.763 48.768 307.952 47.949 308.078 47.319C308.078 47.13 308.141 46.878 308.141 46.626C308.141 46.437 308.078 46.248 308.078 46.059C307.952 45.933 307.826 45.807 307.637 45.744C307.385 45.744 307.07 45.87 306.692 45.996C306.314 46.185 305.684 46.374 304.865 46.626C303.983 46.941 303.164 47.256 302.282 47.508C301.4 47.823 300.581 48.075 299.825 48.327C299.069 48.642 298.565 48.894 298.313 49.02C297.809 49.398 297.242 49.713 296.549 49.965C295.793 50.28 295.163 50.28 294.722 49.965C294.218 49.713 293.84 49.335 293.588 48.957C293.336 48.642 293.021 48.264 292.706 47.76C292.328 47.319 292.265 47.004 292.454 46.815C292.58 46.689 292.958 46.563 293.462 46.5C293.903 46.5 294.47 46.437 295.226 46.311C295.919 46.248 296.675 46.122 297.557 45.87C297.809 45.807 298.502 45.618 299.51 45.303C300.518 45.051 301.589 44.736 302.723 44.358C303.857 44.043 304.928 43.728 305.936 43.35C306.944 43.098 307.574 42.846 307.952 42.72C309.212 42.09 310.346 41.964 311.417 42.405C311.984 42.657 312.614 42.909 313.307 43.224C313.937 43.602 314.378 43.98 314.567 44.295C314.756 44.673 314.882 44.988 314.882 45.24C314.819 45.555 314.819 45.933 314.882 46.311C314.882 46.689 314.693 47.13 314.315 47.634C313.874 48.138 313.559 48.516 313.307 48.705C313.181 48.831 312.992 49.02 312.803 49.335C312.551 49.713 312.299 50.091 312.047 50.469C311.795 50.91 311.543 51.351 311.291 51.729C311.039 52.17 310.787 52.548 310.661 52.8C310.409 53.178 310.346 53.367 310.535 53.43C310.661 53.556 310.913 53.556 311.228 53.556C311.417 53.556 311.669 53.493 312.047 53.493C312.362 53.493 312.614 53.745 312.74 54.186C312.803 54.69 312.74 55.005 312.551 55.257C312.299 55.572 311.984 55.887 311.669 56.139C311.291 56.517 310.85 56.706 310.346 56.706C309.779 56.769 309.149 56.895 308.456 57.021C307.385 57.273 306.188 57.525 304.865 57.777C303.479 58.092 302.408 58.407 301.652 58.722C301.4 58.848 301.211 58.911 301.085 59.037C300.833 59.163 300.644 59.289 300.518 59.352C300.392 59.73 300.329 60.108 300.329 60.36C300.203 60.675 300.077 60.99 299.951 61.305C299.699 61.809 299.51 62.502 299.384 63.51C299.195 64.581 299.069 65.526 298.943 66.408C298.817 67.038 298.817 67.605 298.88 68.046C298.88 68.55 299.069 68.991 299.321 69.243C299.51 69.621 299.825 69.873 300.329 69.999C300.77 70.188 301.4 70.251 302.219 70.188Z" fill="white"/>
</svg>
