<svg width="181" height="121" viewBox="0 0 181 121" fill="none" xmlns="http://www.w3.org/2000/svg">
<rect x="0.5" y="0.5" width="90" height="120" fill="#F6C500"/>
<rect x="0.5" y="0.5" width="90" height="120" stroke="black"/>
<path d="M36.3539 44.169C37.2359 44.043 38.3699 43.854 39.6929 43.602C40.9529 43.413 42.2759 43.161 43.6619 42.846C44.9849 42.594 46.3079 42.342 47.6939 41.964C48.9539 41.712 50.1509 41.397 51.1589 41.145C51.7889 40.956 52.4189 40.956 52.9859 41.082C53.4899 41.271 54.1199 41.46 54.8759 41.649C55.5689 41.901 56.3249 42.153 57.0809 42.405C57.7739 42.72 58.3409 42.972 58.8449 43.224C59.2859 43.476 59.6009 43.854 59.7899 44.484C59.9159 45.114 59.8529 45.996 59.6639 47.13C59.6009 47.508 59.5379 48.201 59.4749 49.083C59.3489 50.091 59.2229 51.162 59.0969 52.296C58.9079 53.556 58.7189 54.816 58.5929 56.139C58.4039 57.525 58.2779 58.785 58.1519 59.982C57.9629 61.242 57.8369 62.376 57.7109 63.258C57.5849 64.266 57.4589 64.959 57.4589 65.4C57.3329 66.093 57.2699 66.534 57.2699 66.786C57.2069 67.101 57.1439 67.29 57.1439 67.416C57.0179 67.542 56.9549 67.668 56.8919 67.794C56.7659 67.92 56.6399 68.172 56.5139 68.55C56.2619 69.306 55.8839 69.747 55.5059 69.873C55.0019 70.125 54.6239 69.999 54.3089 69.495C54.0569 69.054 53.6789 68.55 53.1749 68.046C52.6079 67.605 52.0409 67.164 51.4739 66.66C50.7809 66.282 50.5289 65.967 50.7809 65.589C50.9069 65.337 51.3479 65.211 52.1039 65.274C52.7969 65.337 53.3009 65.211 53.6159 64.896C53.8679 64.644 53.9939 64.266 53.9939 63.825C53.9939 63.699 53.9939 63.258 54.0569 62.439C54.0569 61.683 54.0569 60.801 54.1199 59.667C54.1199 58.659 54.1199 57.462 54.1829 56.202C54.1829 55.005 54.2459 53.808 54.3089 52.674C54.3089 51.603 54.3719 50.658 54.4349 49.776C54.4349 49.02 54.4979 48.453 54.5609 48.201C54.6239 47.256 54.4979 46.5 54.1199 45.996C53.6789 45.492 53.1749 45.177 52.5449 45.051C51.9149 44.988 51.2849 44.925 50.5919 44.862C49.8359 44.862 49.2059 44.862 48.8279 44.862L44.8589 46.059C44.3549 46.248 43.7879 46.437 43.1579 46.626C42.4649 46.878 41.7719 47.13 41.1419 47.319C40.4489 47.571 39.8189 47.697 39.1889 47.823C38.5589 48.012 37.9919 48.075 37.5509 48.012C36.0389 47.949 34.7789 47.634 33.6449 47.004C32.4479 46.437 31.5659 45.933 30.9989 45.555C30.8099 45.429 30.6839 45.303 30.6209 45.051C30.4949 44.925 30.4949 44.736 30.5579 44.484C30.5579 44.358 30.6209 44.169 30.8729 44.043C30.9989 43.98 31.2509 43.98 31.6289 43.98C31.8809 44.043 32.1959 44.106 32.6369 44.106C33.0149 44.169 33.3929 44.169 33.8969 44.169C34.3379 44.169 34.7789 44.169 35.2829 44.169C35.6609 44.169 36.0389 44.169 36.3539 44.169ZM20.4149 76.929C20.7929 76.992 21.3599 76.992 21.9899 76.866C22.5569 76.803 23.1239 76.677 23.7539 76.551C24.0059 76.488 24.3839 76.362 24.9509 76.236C25.4549 76.11 26.0219 75.984 26.6519 75.858C27.2189 75.732 27.8489 75.669 28.4789 75.543C29.1089 75.48 29.6129 75.417 30.1169 75.417C30.6209 75.48 31.1879 75.543 31.8179 75.606C32.4479 75.732 33.0149 75.795 33.6449 75.795C33.8969 75.795 34.4639 75.732 35.2829 75.606C36.0389 75.48 36.9209 75.354 37.9919 75.165C38.9999 75.039 40.0709 74.913 41.2049 74.787C42.2759 74.661 43.2839 74.598 44.2919 74.535L56.4509 73.905C57.5849 73.905 58.7189 73.716 59.8529 73.338C60.8609 73.086 61.6799 72.834 62.3099 72.582C62.8139 72.456 63.3809 72.456 64.0109 72.456C64.5779 72.519 65.2079 72.582 65.8379 72.708C66.4049 72.834 66.9719 73.023 67.5389 73.149C68.0429 73.338 68.4209 73.464 68.7359 73.59C69.2399 73.905 69.6809 74.157 70.0589 74.346C70.4369 74.598 70.8149 74.976 71.3189 75.417C71.7599 75.858 71.9489 76.299 71.8229 76.74C71.6969 77.244 71.3189 77.496 70.6889 77.496C70.3109 77.496 69.8069 77.496 69.1139 77.433C68.3579 77.433 67.6649 77.433 66.9089 77.37C66.0899 77.37 65.3339 77.37 64.7039 77.37C63.9479 77.433 63.5069 77.496 63.2549 77.496C62.9399 77.559 62.5619 77.559 62.1839 77.433C61.6799 77.433 61.2389 77.307 60.8609 77.181C60.3569 77.118 59.9789 76.992 59.6009 76.866C59.2229 76.803 58.9079 76.74 58.6559 76.677C58.4039 76.677 57.7739 76.614 56.8289 76.551C55.8209 76.551 54.6239 76.551 53.3639 76.551C52.0409 76.551 50.7179 76.551 49.4579 76.551C48.0719 76.614 47.0009 76.677 46.1189 76.74C44.0399 76.929 42.0239 77.181 40.0079 77.433C37.9919 77.748 36.0389 78.063 34.1489 78.567C32.8259 78.819 31.9439 79.008 31.4399 79.197C30.8729 79.323 30.4319 79.575 30.1169 79.953C29.8019 80.268 29.4869 80.457 29.2349 80.583C28.8569 80.583 28.3529 80.52 27.6599 80.331C27.2819 80.205 26.7779 80.142 26.0219 80.016C25.2659 79.89 24.4469 79.764 23.6279 79.638C22.7459 79.449 21.9899 79.323 21.3599 79.197C20.6039 79.008 20.1629 78.882 19.9739 78.819C19.7219 78.756 19.5329 78.63 19.4069 78.441C19.2179 78.189 19.1549 77.937 19.1549 77.685C19.1549 77.496 19.2179 77.307 19.4699 77.118C19.5959 76.992 19.9109 76.929 20.4149 76.929Z" fill="white"/>
<rect x="90.5" y="0.5" width="90" height="120" fill="#F6C500"/>
<rect x="90.5" y="0.5" width="90" height="120" stroke="black"/>
<path d="M138.325 60.234C137.317 60.108 136.876 59.793 136.876 59.415C136.813 59.1 137.065 58.911 137.695 58.785C137.947 58.785 138.199 58.722 138.451 58.659C138.577 58.659 138.829 58.659 139.081 58.596C139.333 58.596 139.648 58.533 140.026 58.47C140.341 58.47 140.845 58.47 141.475 58.47C142.168 58.47 143.239 58.344 144.751 58.092C146.137 57.84 147.586 57.588 149.035 57.21V56.013C148.972 55.005 148.972 54.06 148.972 53.052C148.909 52.17 148.909 51.288 148.909 50.406C148.657 50.532 148.405 50.658 148.216 50.721C147.964 50.847 147.712 50.91 147.46 50.91C147.082 51.036 146.641 51.099 146.074 51.225C145.444 51.414 144.877 51.54 144.31 51.666C143.68 51.792 143.176 51.918 142.672 51.918C142.105 52.044 141.727 51.981 141.475 51.855C141.223 51.729 141.034 51.603 140.908 51.414C140.656 51.288 140.467 51.099 140.278 50.91C140.026 50.784 139.774 50.595 139.522 50.406C139.144 50.28 138.766 50.217 138.325 50.154C137.317 50.028 136.876 49.713 136.876 49.335C136.813 49.02 137.065 48.831 137.695 48.705C137.947 48.705 138.199 48.642 138.451 48.579C138.577 48.579 138.829 48.579 139.081 48.516C139.333 48.516 139.648 48.453 140.026 48.39C140.341 48.39 140.845 48.39 141.475 48.39C142.168 48.39 143.239 48.264 144.688 48.012C146.074 47.76 147.523 47.508 148.909 47.13V46.941C148.909 46.941 148.909 46.878 148.972 46.878C149.098 46.752 149.287 46.626 149.476 46.626C149.602 46.626 149.665 46.5 149.791 46.185C149.791 46.059 149.791 45.87 149.728 45.744C149.602 45.618 149.539 45.492 149.476 45.303C149.35 45.177 149.224 44.988 149.161 44.736C149.035 44.547 149.035 44.295 149.098 43.917C149.161 43.476 149.224 42.972 149.224 42.342C149.161 41.838 149.161 41.271 149.161 40.641C149.098 39.381 149.098 38.436 149.224 37.743C149.224 37.113 149.224 36.546 149.161 35.916C149.098 35.475 149.098 34.971 149.098 34.404C149.035 33.9 148.783 33.459 148.279 33.018C147.775 32.64 147.334 32.388 146.893 32.199C146.389 32.073 146.011 31.884 145.633 31.632C145.381 31.506 145.255 31.38 145.255 31.128C145.192 30.939 145.255 30.75 145.381 30.498C145.444 30.372 145.633 30.183 145.885 30.057C146.137 29.994 146.452 29.994 146.893 30.12C147.082 30.246 147.46 30.309 148.09 30.435C148.594 30.624 149.224 30.813 149.98 30.939C150.61 31.191 151.303 31.38 151.996 31.506C152.626 31.695 153.13 31.821 153.571 31.884C154.138 32.073 154.579 32.262 154.957 32.388C155.272 32.64 155.335 33.018 155.146 33.648C154.894 34.341 154.705 35.034 154.516 35.79C154.264 36.609 154.138 37.428 154.138 38.31C154.138 38.877 154.075 39.633 154.075 40.641C154.012 41.649 154.012 42.531 154.012 43.287C154.012 43.665 153.949 44.106 153.949 44.673C153.886 45.303 153.886 45.996 153.886 46.626C153.823 47.319 153.823 47.949 153.823 48.516C153.76 49.146 153.76 49.65 153.76 49.965C153.76 50.658 153.76 51.225 153.823 51.729C153.823 52.296 153.823 52.8 153.823 53.304C153.823 53.871 153.823 54.438 153.886 55.005C153.886 55.635 153.886 56.391 153.886 57.21C153.886 57.84 153.886 58.533 153.949 59.289C153.949 60.108 153.949 60.864 153.949 61.62C153.949 62.439 153.949 63.195 153.949 63.888C153.886 64.644 153.886 65.337 153.886 65.841C153.76 68.109 153.76 69.936 153.76 71.448C153.697 73.023 153.697 74.094 153.697 74.661C153.697 75.669 153.571 76.74 153.445 77.937C153.193 79.134 153.004 80.331 152.752 81.465C152.437 82.599 152.122 83.607 151.87 84.552C151.492 85.434 151.24 86.127 150.988 86.505C150.736 86.883 150.421 87.324 150.169 87.765C149.791 88.143 149.539 88.395 149.287 88.584C148.972 88.71 148.783 88.647 148.657 88.395C148.531 88.08 148.531 87.45 148.72 86.505C148.846 85.56 148.972 84.111 149.098 82.158C149.098 80.142 149.161 78 149.224 75.669C149.224 73.401 149.224 71.133 149.224 68.865C149.161 66.66 149.161 64.833 149.161 63.447C149.161 62.943 149.224 62.439 149.224 61.935C149.161 61.431 149.161 60.927 149.161 60.36C148.657 60.675 148.09 60.864 147.46 60.99C147.082 61.116 146.641 61.179 146.074 61.305C145.444 61.494 144.877 61.62 144.31 61.746C143.68 61.872 143.176 61.998 142.672 61.998C142.105 62.124 141.727 62.061 141.475 61.935C141.223 61.809 141.034 61.683 140.908 61.494C140.656 61.368 140.467 61.179 140.278 60.99C140.026 60.864 139.774 60.675 139.522 60.486C139.144 60.36 138.766 60.297 138.325 60.234ZM124.087 70.188C125.599 70.062 127.111 69.936 128.749 69.747C130.261 69.621 131.836 69.243 133.411 68.613C133.915 68.487 134.545 68.109 135.238 67.605C135.868 67.101 136.309 66.471 136.561 65.589L137.506 61.683C137.569 61.431 137.695 61.179 137.884 60.927C138.01 60.738 138.199 60.927 138.388 61.557C138.577 62.187 138.64 62.628 138.64 62.88C138.514 63.195 138.577 63.447 138.829 63.573C138.955 63.762 139.144 63.825 139.396 63.699C139.585 63.699 139.711 63.825 139.837 64.14C139.837 64.518 139.963 64.77 140.152 64.896C140.278 65.085 140.467 65.148 140.593 65.085C140.971 65.085 141.286 65.4 141.412 66.03C141.412 66.282 141.475 66.471 141.727 66.597C141.853 66.849 141.979 67.101 142.105 67.479C142.105 67.92 141.979 68.424 141.601 68.928C141.16 69.495 140.719 69.936 140.215 70.251C139.585 70.692 138.703 71.07 137.443 71.385C136.183 71.763 134.986 72.015 133.852 72.204C132.214 72.456 130.576 72.645 128.875 72.771C127.111 72.96 125.41 73.023 123.772 73.023C122.827 73.023 121.945 72.96 121.189 72.771C120.307 72.645 119.614 72.393 119.047 71.952C118.417 71.574 117.976 71.07 117.661 70.314C117.283 69.621 117.094 68.676 117.157 67.479C117.157 65.463 117.283 63.699 117.409 62.187C117.472 60.738 117.535 59.793 117.535 59.289V59.1C117.283 58.974 117.094 58.911 116.905 58.785C116.653 58.785 116.527 58.659 116.464 58.533C116.338 58.47 116.275 58.344 116.401 58.218C116.464 58.155 116.716 58.029 117.157 57.84C117.031 57.651 116.842 57.399 116.716 57.147C116.527 56.958 116.338 56.769 116.149 56.517C115.519 56.076 115.204 55.698 115.204 55.32C115.141 55.068 115.519 54.942 116.275 55.005C117.031 55.131 117.787 55.32 118.606 55.572C119.362 55.887 120.055 56.202 120.685 56.58C120.685 56.643 120.685 56.643 120.811 56.643C121.756 56.391 122.701 56.076 123.583 55.824C124.402 55.572 125.095 55.383 125.725 55.131C126.418 54.879 126.922 54.564 127.3 54.249C127.615 53.997 127.93 53.493 128.245 52.611C128.497 51.855 128.875 50.91 129.253 49.776C129.631 48.768 129.82 47.949 129.946 47.319C129.946 47.13 130.009 46.878 130.009 46.626C130.009 46.437 129.946 46.248 129.946 46.059C129.82 45.933 129.694 45.807 129.505 45.744C129.253 45.744 128.938 45.87 128.56 45.996C128.182 46.185 127.552 46.374 126.733 46.626C125.851 46.941 125.032 47.256 124.15 47.508C123.268 47.823 122.449 48.075 121.693 48.327C120.937 48.642 120.433 48.894 120.181 49.02C119.677 49.398 119.11 49.713 118.417 49.965C117.661 50.28 117.031 50.28 116.59 49.965C116.086 49.713 115.708 49.335 115.456 48.957C115.204 48.642 114.889 48.264 114.574 47.76C114.196 47.319 114.133 47.004 114.322 46.815C114.448 46.689 114.826 46.563 115.33 46.5C115.771 46.5 116.338 46.437 117.094 46.311C117.787 46.248 118.543 46.122 119.425 45.87C119.677 45.807 120.37 45.618 121.378 45.303C122.386 45.051 123.457 44.736 124.591 44.358C125.725 44.043 126.796 43.728 127.804 43.35C128.812 43.098 129.442 42.846 129.82 42.72C131.08 42.09 132.214 41.964 133.285 42.405C133.852 42.657 134.482 42.909 135.175 43.224C135.805 43.602 136.246 43.98 136.435 44.295C136.624 44.673 136.75 44.988 136.75 45.24C136.687 45.555 136.687 45.933 136.75 46.311C136.75 46.689 136.561 47.13 136.183 47.634C135.742 48.138 135.427 48.516 135.175 48.705C135.049 48.831 134.86 49.02 134.671 49.335C134.419 49.713 134.167 50.091 133.915 50.469C133.663 50.91 133.411 51.351 133.159 51.729C132.907 52.17 132.655 52.548 132.529 52.8C132.277 53.178 132.214 53.367 132.403 53.43C132.529 53.556 132.781 53.556 133.096 53.556C133.285 53.556 133.537 53.493 133.915 53.493C134.23 53.493 134.482 53.745 134.608 54.186C134.671 54.69 134.608 55.005 134.419 55.257C134.167 55.572 133.852 55.887 133.537 56.139C133.159 56.517 132.718 56.706 132.214 56.706C131.647 56.769 131.017 56.895 130.324 57.021C129.253 57.273 128.056 57.525 126.733 57.777C125.347 58.092 124.276 58.407 123.52 58.722C123.268 58.848 123.079 58.911 122.953 59.037C122.701 59.163 122.512 59.289 122.386 59.352C122.26 59.73 122.197 60.108 122.197 60.36C122.071 60.675 121.945 60.99 121.819 61.305C121.567 61.809 121.378 62.502 121.252 63.51C121.063 64.581 120.937 65.526 120.811 66.408C120.685 67.038 120.685 67.605 120.748 68.046C120.748 68.55 120.937 68.991 121.189 69.243C121.378 69.621 121.693 69.873 122.197 69.999C122.638 70.188 123.268 70.251 124.087 70.188Z" fill="white"/>
</svg>
