<svg width="271" height="151" viewBox="0 0 271 151" fill="none" xmlns="http://www.w3.org/2000/svg">
<rect x="180.5" y="30.5" width="90" height="120" fill="#F6C500"/>
<rect x="180.5" y="30.5" width="90" height="120" stroke="black"/>
<path d="M251.612 90.1C251.612 90.46 251.672 90.88 251.672 91.3C251.672 91.78 251.312 92.08 250.652 92.2C249.992 92.32 249.152 92.32 248.192 92.2C247.172 92.08 246.332 91.96 245.612 91.78C245.312 91.78 244.892 91.72 244.352 91.66C243.752 91.66 243.212 91.66 242.612 91.66C242.012 91.66 241.412 91.66 240.872 91.66C240.272 91.72 239.852 91.72 239.612 91.72H239.492C239.492 92.56 239.492 93.28 239.492 94C239.432 94.72 239.432 95.38 239.432 95.92C239.312 98.08 239.312 99.82 239.312 101.26C239.252 102.76 239.252 103.78 239.252 104.32C239.252 105.28 239.132 106.3 239.012 107.44C238.772 108.58 238.592 109.72 238.352 110.8C238.052 111.88 237.752 112.84 237.512 113.74C237.152 114.58 236.912 115.24 236.672 115.6C236.432 115.96 236.132 116.38 235.892 116.8C235.532 117.16 235.292 117.4 235.052 117.58C234.752 117.7 234.572 117.64 234.452 117.4C234.332 117.1 234.332 116.5 234.512 115.6C234.632 114.7 234.752 113.32 234.872 111.46C234.872 109.54 234.932 107.5 234.992 105.28C234.992 103.12 234.992 100.96 234.992 98.8C234.932 96.7 234.932 94.96 234.932 93.64C234.992 92.62 234.992 91.54 234.932 90.46C234.812 89.38 234.812 88.12 234.812 86.56C234.752 85.6 234.752 84.58 234.752 83.5C234.692 82.48 234.692 81.52 234.692 80.68C234.692 79.9 234.692 79.24 234.692 78.7C234.692 78.22 234.692 77.92 234.752 77.86C234.872 77.74 235.052 77.62 235.232 77.62C235.352 77.62 235.412 77.5 235.532 77.2C235.532 77.08 235.532 76.9 235.472 76.78C235.352 76.66 235.292 76.54 235.232 76.36C235.112 76.24 234.992 76.06 234.932 75.82C234.812 75.64 234.812 75.4 234.872 75.04C234.932 74.62 234.992 74.14 234.992 73.54C234.932 73.06 234.932 72.52 234.932 71.92C234.872 70.72 234.872 69.82 234.992 69.16C234.992 68.56 234.992 68.02 234.932 67.42C234.872 67 234.872 66.52 234.872 65.98C234.812 65.5 234.572 65.08 234.092 64.66C233.612 64.3 233.192 64.06 232.772 63.88C232.292 63.76 231.932 63.58 231.572 63.34C231.332 63.22 231.212 63.1 231.212 62.86C231.152 62.68 231.212 62.5 231.332 62.26C231.392 62.14 231.572 61.96 231.812 61.84C232.052 61.78 232.352 61.78 232.772 61.9C232.952 62.02 233.312 62.08 233.912 62.2C234.392 62.38 234.992 62.56 235.712 62.68C236.312 62.92 236.972 63.1 237.632 63.22C238.232 63.4 238.712 63.52 239.132 63.58C239.672 63.76 240.092 63.94 240.452 64.06C240.752 64.3 240.812 64.66 240.632 65.26C240.392 65.92 240.212 66.58 240.032 67.3C239.792 68.08 239.672 68.86 239.672 69.7C239.672 70.24 239.612 70.96 239.612 71.92C239.552 72.88 239.552 73.72 239.552 74.44C239.552 74.8 239.492 75.22 239.492 75.76C239.432 76.36 239.432 77.02 239.432 77.62C239.372 78.28 239.372 78.88 239.372 79.42C239.312 80.02 239.312 80.5 239.312 80.8C239.312 81.46 239.312 82 239.372 82.48C239.372 83.02 239.372 83.5 239.372 83.98C239.372 84.52 239.372 85.06 239.432 85.6C239.432 86.2 239.432 86.92 239.432 87.7V89.62L240.932 89.44C241.412 89.38 241.772 89.32 242.132 89.2C242.372 89.2 242.612 89.14 242.852 89.02C243.032 89.02 243.212 88.96 243.452 88.84C243.572 88.84 243.812 88.72 244.052 88.6C244.592 88.42 245.072 88.24 245.552 88.12C245.912 88 246.392 88.06 246.932 88.24C247.412 88.48 247.892 88.48 248.492 88.36C248.972 88.3 249.392 88.3 249.692 88.3C250.112 88.36 250.532 88.54 250.952 88.84C251.312 89.2 251.552 89.62 251.612 90.1ZM212.852 100.06C214.292 99.94 215.732 99.82 217.292 99.64C218.732 99.52 220.232 99.16 221.732 98.56C222.212 98.44 222.812 98.08 223.472 97.6C224.072 97.12 224.492 96.52 224.732 95.68L225.632 91.96C225.692 91.72 225.812 91.48 225.992 91.24C226.112 91.06 226.292 91.24 226.472 91.84C226.652 92.44 226.712 92.86 226.712 93.1C226.592 93.4 226.652 93.64 226.892 93.76C227.012 93.94 227.192 94 227.432 93.88C227.612 93.88 227.732 94 227.852 94.3C227.852 94.66 227.972 94.9 228.152 95.02C228.272 95.2 228.452 95.26 228.572 95.2C228.932 95.2 229.232 95.5 229.352 96.1C229.352 96.34 229.412 96.52 229.652 96.64C229.772 96.88 229.892 97.12 230.012 97.48C230.012 97.9 229.892 98.38 229.532 98.86C229.112 99.4 228.692 99.82 228.212 100.12C227.612 100.54 226.772 100.9 225.572 101.2C224.372 101.56 223.232 101.8 222.152 101.98C220.592 102.22 219.032 102.4 217.412 102.52C215.732 102.7 214.112 102.76 212.552 102.76C211.652 102.76 210.812 102.7 210.092 102.52C209.252 102.4 208.592 102.16 208.052 101.74C207.452 101.38 207.032 100.9 206.732 100.18C206.372 99.52 206.192 98.62 206.252 97.48C206.252 95.56 206.372 93.88 206.492 92.44C206.552 91.06 206.612 90.16 206.612 89.68V89.5C206.372 89.38 206.192 89.32 206.012 89.2C205.772 89.2 205.652 89.08 205.592 88.96C205.472 88.9 205.412 88.78 205.532 88.66C205.592 88.6 205.832 88.48 206.252 88.3C206.132 88.12 205.952 87.88 205.832 87.64C205.652 87.46 205.472 87.28 205.292 87.04C204.692 86.62 204.392 86.26 204.392 85.9C204.332 85.66 204.692 85.54 205.412 85.6C206.132 85.72 206.852 85.9 207.632 86.14C208.352 86.44 209.012 86.74 209.612 87.1C209.612 87.16 209.612 87.16 209.732 87.16C210.632 86.92 211.532 86.62 212.372 86.38C213.152 86.14 213.812 85.96 214.412 85.72C215.072 85.48 215.552 85.18 215.912 84.88C216.212 84.64 216.512 84.16 216.812 83.32C217.052 82.6 217.412 81.7 217.772 80.62C218.132 79.66 218.312 78.88 218.432 78.28C218.432 78.1 218.492 77.86 218.492 77.62C218.492 77.44 218.432 77.26 218.432 77.08C218.312 76.96 218.192 76.84 218.012 76.78C217.772 76.78 217.472 76.9 217.112 77.02C216.752 77.2 216.152 77.38 215.372 77.62C214.532 77.92 213.752 78.22 212.912 78.46C212.072 78.76 211.292 79 210.572 79.24C209.852 79.54 209.372 79.78 209.132 79.9C208.652 80.26 208.112 80.56 207.452 80.8C206.732 81.1 206.132 81.1 205.712 80.8C205.232 80.56 204.872 80.2 204.632 79.84C204.392 79.54 204.092 79.18 203.792 78.7C203.432 78.28 203.372 77.98 203.552 77.8C203.672 77.68 204.032 77.56 204.512 77.5C204.932 77.5 205.472 77.44 206.192 77.32C206.852 77.26 207.572 77.14 208.412 76.9C208.652 76.84 209.312 76.66 210.272 76.36C211.232 76.12 212.252 75.82 213.332 75.46C214.412 75.16 215.432 74.86 216.392 74.5C217.352 74.26 217.952 74.02 218.312 73.9C219.512 73.3 220.592 73.18 221.612 73.6C222.152 73.84 222.752 74.08 223.412 74.38C224.012 74.74 224.432 75.1 224.612 75.4C224.792 75.76 224.912 76.06 224.912 76.3C224.852 76.6 224.852 76.96 224.912 77.32C224.912 77.68 224.732 78.1 224.372 78.58C223.952 79.06 223.652 79.42 223.412 79.6C223.292 79.72 223.112 79.9 222.932 80.2C222.692 80.56 222.452 80.92 222.212 81.28C221.972 81.7 221.732 82.12 221.492 82.48C221.252 82.9 221.012 83.26 220.892 83.5C220.652 83.86 220.592 84.04 220.772 84.1C220.892 84.22 221.132 84.22 221.432 84.22C221.612 84.22 221.852 84.16 222.212 84.16C222.512 84.16 222.752 84.4 222.872 84.82C222.932 85.3 222.872 85.6 222.692 85.84C222.452 86.14 222.152 86.44 221.852 86.68C221.492 87.04 221.072 87.22 220.592 87.22C220.052 87.28 219.452 87.4 218.792 87.52C217.772 87.76 216.632 88 215.372 88.24C214.052 88.54 213.032 88.84 212.312 89.14C212.072 89.26 211.892 89.32 211.772 89.44C211.532 89.56 211.352 89.68 211.232 89.74C211.112 90.1 211.052 90.46 211.052 90.7C210.932 91 210.812 91.3 210.692 91.6C210.452 92.08 210.272 92.74 210.152 93.7C209.972 94.72 209.852 95.62 209.732 96.46C209.612 97.06 209.612 97.6 209.672 98.02C209.672 98.5 209.852 98.92 210.092 99.16C210.272 99.52 210.572 99.76 211.052 99.88C211.472 100.06 212.072 100.12 212.852 100.06Z" fill="white"/>
<rect x="0.5" y="30.5" width="90" height="120" fill="#F6C500"/>
<rect x="0.5" y="30.5" width="90" height="120" stroke="black"/>
<path d="M52.1717 98.56C52.4717 98.08 52.4717 97.84 52.2317 97.78C51.8717 97.78 51.5717 97.72 51.2717 97.72C50.6717 97.72 50.1317 97.78 49.6517 97.84C49.1117 97.96 48.5717 98.08 48.0917 98.32C47.8517 98.44 47.4917 98.56 47.0717 98.68C46.5917 98.86 46.1717 98.98 45.7517 99.1C45.2717 99.28 44.7917 99.4 44.3717 99.46C43.8917 99.58 43.5317 99.7 43.2917 99.7C43.0517 99.76 42.7517 99.88 42.2717 100C41.7917 100.18 41.2517 100.36 40.7717 100.48C40.2317 100.66 39.7517 100.78 39.3317 100.9C38.8517 101.08 38.4917 101.14 38.3117 101.14C37.8317 101.14 37.4717 100.9 37.2917 100.54C37.0517 100.18 36.8717 99.82 36.8117 99.34C36.8117 99.22 36.7517 98.92 36.7517 98.5C36.6917 98.14 36.6317 97.72 36.6317 97.24C36.5717 96.88 36.5117 96.46 36.5117 96.1C36.4517 95.74 36.4517 95.5 36.5117 95.32C36.5117 95.02 36.6917 94.84 37.0517 94.72C37.2917 94.66 37.5317 94.78 37.6517 95.02C37.8317 95.68 38.0717 96.1 38.4317 96.34C38.7317 96.58 39.4517 96.7 40.6517 96.7C40.8917 96.7 41.3717 96.7 42.0317 96.64C42.6317 96.64 43.2317 96.58 43.9517 96.46C44.5517 96.4 45.2117 96.34 45.8117 96.22C46.3517 96.22 46.7717 96.16 47.0117 96.04C47.8517 95.92 48.7517 95.8 49.8317 95.68C50.0117 95.68 50.3117 95.68 50.6717 95.68C50.9717 95.74 51.2717 95.8 51.6317 95.8C51.9917 95.86 52.3517 95.92 52.7717 95.92C52.8317 95.92 52.9517 95.92 53.0717 95.86C53.3117 95.8 53.5517 95.62 53.7917 95.32C54.0317 95.08 54.3917 95.02 54.8717 95.02C55.2917 95.14 55.7717 95.32 56.2517 95.56C56.3717 95.68 56.5517 95.74 56.7917 95.8C56.9717 95.92 57.1517 96.04 57.3917 96.16C57.5717 96.34 57.7517 96.52 57.9317 96.64C58.0517 96.82 58.0517 97 58.0517 97.24C57.9917 97.78 57.8717 98.32 57.6317 98.8C57.3917 99.34 56.7317 99.88 55.7117 100.48C54.6317 101.08 53.4917 101.5 52.2317 101.74C50.9117 101.98 49.7717 102.28 48.8717 102.58C48.5717 102.7 48.2117 102.76 47.8517 102.88C47.3717 103.06 46.8917 103.18 46.4117 103.3C45.4517 103.78 44.8517 104.08 44.6717 104.26C44.4317 104.44 44.4317 104.56 44.7317 104.62C44.9717 104.74 45.3917 104.8 45.9317 104.8C46.4117 104.86 46.8917 104.86 47.4917 104.86C47.9717 104.86 48.3917 104.86 48.6317 104.86C49.0517 104.86 49.3517 104.8 49.5317 104.62C49.6517 104.5 49.8917 104.32 50.1317 104.08C50.3117 103.9 50.6117 103.78 50.9717 103.66C51.2717 103.66 51.8117 103.66 52.5317 103.66C53.2517 103.72 53.7917 103.78 54.2717 103.9C54.6917 104.02 55.0517 104.14 55.3517 104.14C55.4717 104.14 55.5917 104.2 55.8317 104.32C56.0117 104.44 56.1917 104.62 56.3117 104.74C56.3717 104.98 56.3717 105.16 56.2517 105.4C56.1317 105.7 55.7717 106 55.2917 106.3C54.9317 106.54 54.3917 106.78 53.6717 107.08C52.9517 107.44 52.1717 107.74 51.3317 108.16C50.4317 108.52 49.5317 108.88 48.6317 109.3C47.6717 109.66 46.8317 109.96 46.1117 110.32C45.2717 110.62 44.6117 110.92 44.1317 111.16C43.5917 111.34 43.2917 111.46 43.1717 111.58C42.8117 111.76 42.7517 112 42.8717 112.24C42.9917 112.48 43.2317 112.6 43.7117 112.72C43.9517 112.72 44.3717 112.84 45.0317 113.08C45.6317 113.2 46.2917 113.44 47.0117 113.68C47.7317 113.86 48.3917 114.04 49.0517 114.28C49.6517 114.46 50.1317 114.58 50.4317 114.64C50.8517 114.7 51.3917 114.76 52.1117 114.76C52.7117 114.76 53.4317 114.7 54.1517 114.7C54.8117 114.64 55.4717 114.58 56.1317 114.52C56.7317 114.4 57.1517 114.34 57.5117 114.28C57.8717 114.16 58.2917 114.1 58.7717 114.04C59.1917 113.92 59.6717 113.86 60.1517 113.8C60.5717 113.68 60.9917 113.62 61.3517 113.62C61.7117 113.56 61.9517 113.56 62.1317 113.56C62.2517 113.56 62.5517 113.5 62.9717 113.5C63.3317 113.44 63.7517 113.44 64.1717 113.44C64.5317 113.44 64.8917 113.44 65.2517 113.5C65.4917 113.5 65.6117 113.62 65.6117 113.8C65.4917 114.16 65.6117 114.4 65.9117 114.58C66.1517 114.7 66.3917 114.76 66.6317 114.76C66.7517 114.76 66.9317 114.76 67.2317 114.82C67.4717 114.82 67.4717 115.06 67.1117 115.54C66.7517 115.96 66.3317 116.32 65.8517 116.56C65.3117 116.8 64.8317 116.92 64.3517 117.04C63.9917 117.1 63.4517 117.22 62.7317 117.4C61.9517 117.52 61.1717 117.64 60.3917 117.82C59.5517 117.94 58.7717 118.06 58.0517 118.18C57.2717 118.24 56.6717 118.3 56.3117 118.3C55.4117 118.3 54.3317 118.24 53.0117 118.18C51.6317 118.06 50.4317 117.88 49.4717 117.58C48.9317 117.4 48.3317 117.22 47.6717 116.98C46.9517 116.68 46.2317 116.44 45.6317 116.2C44.9117 115.96 44.3117 115.72 43.8317 115.54C43.2317 115.3 42.8717 115.18 42.6917 115.06C42.2117 114.88 41.7317 114.82 41.2517 114.94C40.7117 114.94 40.1117 115 39.4517 115C38.7317 115 38.1317 114.88 37.7117 114.7C37.2317 114.46 37.0517 113.98 37.1717 113.32C37.2317 112.6 37.3517 112 37.4717 111.4C37.5917 110.74 37.8917 110.44 38.4917 110.44C39.0317 110.44 39.5717 110.5 40.1117 110.62C40.5917 110.68 41.0717 110.62 41.5517 110.44C41.9717 110.2 42.5117 110.02 43.1117 109.9C43.6517 109.66 44.1917 109.42 44.7917 109.06C45.2717 108.7 45.5117 108.52 45.5117 108.46C45.5117 108.34 45.2117 108.28 44.6717 108.28C44.3117 108.28 43.8317 108.28 43.2317 108.28C42.5117 108.28 41.8517 108.22 41.2517 108.1C40.5317 107.98 39.9917 107.8 39.5117 107.56C39.0317 107.32 38.7917 106.96 38.9117 106.48C38.9117 106 38.9717 105.64 39.0317 105.4C39.0317 105.16 39.0917 104.98 39.2117 104.8C39.2717 104.68 39.3917 104.5 39.5717 104.38C39.6917 104.32 39.8717 104.14 40.1717 103.9C40.3517 103.78 40.7717 103.54 41.4917 103.24C42.1517 103 42.9317 102.76 43.8917 102.4C44.7317 102.1 45.6917 101.74 46.7117 101.32C47.6717 100.96 48.6317 100.6 49.4717 100.24C49.8317 100.06 50.3717 99.82 50.9717 99.52C51.5117 99.28 51.9317 98.92 52.1717 98.56ZM32.9117 81.1C33.0917 81.16 33.2717 81.16 33.4517 81.16C33.5717 81.22 33.7517 81.22 33.9917 81.22C34.7117 80.38 35.4917 79.42 36.2717 78.4C36.9917 77.44 37.7717 76.42 38.4917 75.22C38.6717 74.92 38.7317 74.68 38.6717 74.5C38.5517 74.38 38.3117 74.32 38.0117 74.38C37.6517 74.62 37.3517 74.8 37.1117 74.92C36.7517 75.1 36.4517 75.22 36.0917 75.34C35.8517 75.46 35.4917 75.58 35.0717 75.7C34.5917 75.94 34.2917 76.24 34.1117 76.6C33.9917 76.84 33.7517 77.02 33.4517 77.2C33.0917 77.44 32.7317 77.68 32.3717 77.86C31.8917 78.1 31.4717 78.22 30.9917 78.28C30.5117 78.4 30.0317 78.4 29.6117 78.28C29.1317 78.16 28.7117 77.98 28.2917 77.62C27.8117 77.32 27.3317 76.96 26.9117 76.6C26.4317 76.24 26.0717 75.88 25.7117 75.52C25.3517 75.22 25.0517 74.98 24.8117 74.8C24.3317 74.5 24.2117 74.26 24.3317 74.02C24.4517 73.84 24.6917 73.78 25.1117 73.84C25.2917 73.84 25.6517 73.9 26.1917 73.9C26.6717 73.96 27.1517 73.96 27.7517 73.96C28.2917 74.02 28.8317 74.02 29.4317 73.96C29.9717 73.96 30.4517 73.96 30.8117 73.84C31.2317 73.72 31.7117 73.66 32.3117 73.78C32.8517 73.9 33.2117 73.96 33.3917 73.96C33.5717 73.96 33.9317 73.84 34.4117 73.48C34.8317 73.18 35.3717 72.88 36.0917 72.64L39.2117 71.5C39.6917 71.38 40.0517 71.2 40.2917 70.84C40.2917 70.78 40.3517 70.66 40.4117 70.48C40.4117 70.36 40.5317 70.24 40.6517 70.12C40.7717 70 40.9517 69.94 41.1917 69.88C41.3717 69.88 41.7317 69.88 42.2117 70C43.1717 70.24 43.9517 70.54 44.6117 70.78C45.2117 71.08 45.7517 71.32 46.1117 71.5C46.2317 71.62 46.3517 71.74 46.4717 71.98C46.4717 72.22 46.4717 72.46 46.4717 72.7C46.4117 73 46.2917 73.3 46.1717 73.54C45.9917 73.84 45.7517 74.08 45.5117 74.2C44.9717 74.5 44.5517 74.86 44.1917 75.28C43.7717 75.76 43.4117 76.18 43.1117 76.6C41.7917 78.16 40.2317 79.84 38.4317 81.64C38.6117 81.7 38.8517 81.76 39.0917 81.76C39.3317 81.88 39.5717 81.94 39.8117 82C41.1317 82.48 42.3917 82.9 43.5317 83.26C44.6117 83.74 45.7517 84.52 47.0117 85.6C47.3717 85.96 47.7317 86.32 48.0917 86.56C48.3917 86.92 48.6917 87.22 48.9317 87.58C49.1717 87.94 49.3517 88.36 49.4717 88.78C49.5317 89.26 49.5317 89.8 49.4117 90.4C49.2917 91 49.1117 91.42 48.9317 91.66C48.6917 91.96 48.5117 92.14 48.2717 92.26C48.0317 92.38 47.7917 92.5 47.6117 92.5C47.3717 92.56 47.1317 92.68 47.0117 92.8C46.8317 92.98 46.5917 93.04 46.3517 93.04C46.0517 93.1 45.8117 93.1 45.5717 92.98C45.2717 92.92 45.0317 92.8 44.8517 92.56C44.6117 92.44 44.5517 92.2 44.6117 91.84C44.6117 91.6 44.6117 91.36 44.6117 91.12C44.5517 91 44.4917 90.82 44.4917 90.7C44.3717 90.58 44.3117 90.46 44.3117 90.28C44.2517 90.16 44.2517 90.04 44.3117 89.8C44.3717 89.38 44.4317 89.02 44.4917 88.78C44.4917 88.6 44.3117 88.36 44.0117 88C42.9917 86.92 41.9717 86.14 41.0117 85.6C39.9917 85.12 38.9117 84.64 37.7117 84.1C37.4117 84.04 37.1717 83.98 36.9317 83.92C36.6917 83.92 36.3917 83.86 36.1517 83.8C34.5917 85.24 33.0317 86.62 31.5317 87.94C29.9717 89.32 28.6517 90.52 27.5117 91.6C26.8517 92.2 26.1317 92.56 25.3517 92.74C24.5117 92.98 23.7917 93.04 23.3117 92.8C22.1717 92.32 21.4517 91.9 21.2117 91.54C21.0317 91.42 21.0317 91.18 21.1517 90.94C21.2717 90.7 21.4517 90.64 21.8117 90.7C22.1117 90.82 22.5917 90.88 23.1917 90.88C23.7917 90.94 24.3917 90.7 25.1117 90.1C26.1917 89.02 27.3317 87.94 28.4717 86.86C29.5517 85.9 30.5717 84.82 31.6517 83.74C31.3517 83.68 31.1117 83.56 30.9317 83.44C30.8117 83.38 30.7517 83.32 30.7517 83.26C30.7517 83.26 30.6317 83.26 30.3917 83.32C30.1517 83.38 29.9117 83.44 29.6717 83.44C29.3717 83.5 29.1317 83.5 28.9517 83.38C28.7117 83.26 28.6517 83.14 28.6517 83.02C28.6517 82.96 28.4717 82.9 28.2317 82.84C27.9317 82.84 27.6917 82.84 27.5117 82.84C27.2717 82.9 26.9717 82.9 26.6117 82.78C26.1917 82.72 25.9517 82.6 25.9517 82.42C25.8317 82.3 26.0717 82.18 26.6117 82C26.9717 81.88 27.5117 81.7 28.1117 81.52C28.6517 81.4 29.2517 81.34 29.8517 81.22C30.3917 81.16 30.9317 81.1 31.5317 81.04C32.0717 81.04 32.5517 81.1 32.9117 81.1ZM71.3117 80.5C71.3117 80.68 71.3717 80.86 71.4317 81.04C71.4317 81.28 71.4917 81.52 71.4917 81.7C71.4917 81.94 71.4317 82.12 71.3117 82.24C71.1317 82.42 70.8917 82.54 70.5917 82.6C69.9317 82.84 69.0917 82.9 68.1317 82.9C67.0517 82.9 66.2117 82.9 65.5517 82.78C65.2517 82.78 64.8317 82.78 64.2917 82.78C63.6917 82.84 63.1517 82.9 62.5517 82.9C61.9517 82.96 61.3517 83.02 60.8117 83.02C60.2117 83.14 59.7917 83.2 59.5517 83.2C59.4917 83.2 59.4917 83.2 59.4917 83.2C59.4317 83.26 59.3717 83.26 59.3717 83.26V83.5H59.3117C59.3117 84.1 59.2517 84.7 59.2517 85.24C59.1917 85.84 59.1317 86.26 59.1317 86.62C59.0717 87.1 58.9517 87.58 58.8317 88.12C58.5917 88.72 58.4117 89.26 58.1717 89.74C57.9317 90.34 57.6317 90.82 57.3917 91.24C57.0917 91.72 56.8517 92.02 56.6117 92.2C56.3717 92.44 56.0717 92.62 55.8317 92.74C55.4717 92.98 55.2317 93.1 54.9917 93.1C54.6917 93.22 54.5117 93.16 54.3917 93.04C54.2717 92.92 54.2717 92.68 54.4517 92.2C54.5717 91.9 54.6317 91.42 54.6917 90.76C54.6917 90.16 54.7517 89.38 54.8117 88.54C54.8117 87.76 54.8717 86.92 54.8717 86.02C54.8117 85.18 54.8117 84.34 54.8117 83.5H54.7517C54.6917 81.88 54.6917 80.44 54.6917 79.18C54.6317 77.98 54.6317 77.38 54.7517 77.26C54.8717 77.08 55.0517 76.96 55.2317 76.96C55.3517 77.02 55.4117 76.9 55.5317 76.6C55.5317 76.48 55.5317 76.3 55.4717 76.18C55.3517 76.06 55.2917 75.94 55.2317 75.76C55.1117 75.64 54.9917 75.4 54.9317 75.16C54.8117 74.98 54.8117 74.74 54.8717 74.38C54.9317 73.96 54.9917 73.48 54.9917 72.88C54.9917 72.4 54.9917 71.86 54.9917 71.32C54.9317 70.72 54.9317 70.24 54.9317 69.82C54.9317 69.46 54.9317 69.16 54.9917 68.86C54.9917 68.62 54.9917 68.38 54.9917 68.14C54.9917 67.96 54.9917 67.72 54.9917 67.48C54.8717 67.06 54.8717 66.58 54.8717 66.04C54.8117 65.56 54.5717 65.14 54.0917 64.72C53.6117 64.36 53.1917 64.12 52.8317 63.94C52.3517 63.82 51.9317 63.64 51.5717 63.4C51.3317 63.28 51.2117 63.16 51.2117 62.92C51.1517 62.74 51.2117 62.56 51.3317 62.32C51.3917 62.2 51.5717 62.02 51.8117 61.9C52.0517 61.84 52.3517 61.84 52.7717 61.9C53.0117 62.02 53.3717 62.14 53.9717 62.26C54.4517 62.44 55.0517 62.62 55.7117 62.8C56.3117 63.04 56.9717 63.22 57.6317 63.34C58.2317 63.52 58.7717 63.64 59.1317 63.7C59.6717 63.88 60.0917 64.06 60.4517 64.18C60.7517 64.42 60.8117 64.78 60.6317 65.38C60.3917 66.04 60.2117 66.7 60.0317 67.42C59.7917 68.14 59.6717 68.92 59.6717 69.7C59.6717 70.3 59.6717 70.9 59.6717 71.62C59.6117 72.34 59.6117 73.12 59.6117 73.84C59.6117 74.38 59.5517 75.34 59.4917 76.66C59.3717 78.04 59.3717 79.48 59.3717 81.04L60.5717 80.8C61.0517 80.68 61.4117 80.62 61.7717 80.5C62.0117 80.44 62.2517 80.38 62.4917 80.26C62.6117 80.26 62.7917 80.14 63.0317 80.02C63.1517 79.96 63.3917 79.84 63.6317 79.72C64.1117 79.48 64.5917 79.3 65.0717 79.12C65.4917 79 65.9717 78.94 66.4517 79.06C66.9917 79.18 67.5317 79.18 68.0717 79.06C68.5517 79 68.9117 78.94 69.2117 78.94C69.6917 78.94 70.1117 79.06 70.5917 79.3C70.9517 79.66 71.1917 80.02 71.3117 80.5Z" fill="white"/>
<rect x="90.5" y="0.5" width="90" height="120" fill="#F6C500"/>
<rect x="90.5" y="0.5" width="90" height="120" stroke="black"/>
<path d="M161.612 60.7C161.612 61.06 161.672 61.48 161.672 61.9C161.672 62.38 161.312 62.68 160.652 62.8C159.992 62.92 159.152 62.92 158.192 62.8C157.172 62.68 156.332 62.56 155.612 62.38C155.312 62.38 154.892 62.32 154.352 62.26C153.752 62.26 153.212 62.26 152.612 62.26C152.012 62.26 151.412 62.26 150.872 62.26C150.272 62.32 149.852 62.32 149.612 62.32H149.492C149.492 63.04 149.492 63.64 149.492 64.24C149.432 64.9 149.432 65.44 149.432 65.92C149.312 68.08 149.312 69.82 149.312 71.26C149.252 72.76 149.252 73.78 149.252 74.32C149.252 75.28 149.132 76.3 149.012 77.44C148.772 78.58 148.592 79.72 148.352 80.8C148.052 81.88 147.752 82.84 147.512 83.74C147.152 84.58 146.912 85.24 146.672 85.6C146.432 85.96 146.132 86.38 145.892 86.8C145.532 87.16 145.292 87.4 145.052 87.58C144.752 87.7 144.572 87.64 144.452 87.4C144.332 87.1 144.332 86.5 144.512 85.6C144.632 84.7 144.752 83.32 144.872 81.46C144.872 79.54 144.932 77.5 144.992 75.28C144.992 73.12 144.992 70.96 144.992 68.8C144.932 66.7 144.932 64.96 144.932 63.64C144.992 62.62 144.992 61.54 144.932 60.46C144.812 59.38 144.812 58.12 144.812 56.56C144.752 55.6 144.752 54.58 144.752 53.5C144.692 52.48 144.692 51.52 144.692 50.68C144.692 49.9 144.692 49.24 144.692 48.7C144.692 48.22 144.692 47.92 144.752 47.86C144.872 47.74 145.052 47.62 145.232 47.62C145.352 47.62 145.412 47.5 145.532 47.2C145.532 47.08 145.532 46.9 145.472 46.78C145.352 46.66 145.292 46.54 145.232 46.36C145.112 46.24 144.992 46.06 144.932 45.82C144.812 45.64 144.812 45.4 144.872 45.04C144.932 44.62 144.992 44.14 144.992 43.54C144.932 43.06 144.932 42.52 144.932 41.92C144.872 40.72 144.872 39.82 144.992 39.16C144.992 38.56 144.992 38.02 144.932 37.42C144.872 37 144.872 36.52 144.872 35.98C144.812 35.5 144.572 35.08 144.092 34.66C143.612 34.3 143.192 34.06 142.772 33.88C142.292 33.76 141.932 33.58 141.572 33.34C141.332 33.22 141.212 33.1 141.212 32.86C141.152 32.68 141.212 32.5 141.332 32.26C141.392 32.14 141.572 31.96 141.812 31.84C142.052 31.78 142.352 31.78 142.772 31.9C142.952 32.02 143.312 32.08 143.912 32.2C144.392 32.38 144.992 32.56 145.712 32.68C146.312 32.92 146.972 33.1 147.632 33.22C148.232 33.4 148.712 33.52 149.132 33.58C149.672 33.76 150.092 33.94 150.452 34.06C150.752 34.3 150.812 34.66 150.632 35.26C150.392 35.92 150.212 36.58 150.032 37.3C149.792 38.08 149.672 38.86 149.672 39.7C149.672 40.24 149.612 40.96 149.612 41.92C149.552 42.88 149.552 43.72 149.552 44.44C149.552 44.8 149.492 45.22 149.492 45.76C149.432 46.36 149.432 47.02 149.432 47.62C149.372 48.28 149.372 48.88 149.372 49.42C149.312 50.02 149.312 50.5 149.312 50.8C149.312 51.46 149.312 52 149.372 52.48C149.372 53.02 149.372 53.5 149.372 53.98C149.372 54.52 149.372 55.06 149.432 55.6C149.432 56.2 149.432 56.92 149.432 57.7V60.22L150.932 60.04C151.412 59.98 151.772 59.92 152.132 59.8C152.372 59.8 152.612 59.74 152.852 59.62C153.032 59.62 153.212 59.56 153.452 59.44C153.572 59.44 153.812 59.32 154.052 59.2C154.592 59.02 155.072 58.84 155.552 58.72C155.912 58.6 156.392 58.66 156.932 58.84C157.412 59.08 157.892 59.08 158.492 58.96C158.972 58.9 159.392 58.9 159.692 58.9C160.112 58.96 160.532 59.14 160.952 59.44C161.312 59.8 161.552 60.22 161.612 60.7ZM127.292 54.16C127.712 53.56 128.132 52.96 128.492 52.36C128.792 51.76 129.152 51.22 129.572 50.62C129.872 50.02 129.932 49.66 129.812 49.48C129.572 49.36 129.212 49.36 128.732 49.54L127.832 49.84C127.232 50.08 126.692 50.26 126.212 50.44C125.612 50.68 125.192 50.8 124.892 50.92C123.992 51.28 123.032 51.64 122.072 52.06C121.052 52.54 120.152 52.84 119.312 52.9C117.992 52.9 116.912 52.66 115.952 52.18C114.932 51.76 114.152 51.4 113.612 51.1C113.432 51.04 113.312 50.92 113.252 50.68C113.132 50.5 113.132 50.26 113.192 50.02C113.192 49.84 113.312 49.66 113.492 49.48C113.612 49.36 113.852 49.3 114.212 49.3C114.452 49.36 114.752 49.36 115.112 49.36C115.472 49.42 115.832 49.42 116.252 49.42C116.612 49.42 117.032 49.42 117.452 49.36C117.812 49.36 118.172 49.36 118.412 49.3C119.912 49.12 121.532 48.82 123.272 48.4C124.952 48.04 126.452 47.68 127.772 47.2C128.612 46.9 129.452 46.6 130.172 46.3C130.892 46.06 131.312 45.76 131.552 45.46C131.612 45.34 131.732 45.22 131.852 45.04C131.912 44.92 132.032 44.86 132.272 44.74C132.392 44.68 132.632 44.62 132.932 44.62C133.172 44.62 133.472 44.74 133.892 44.92C134.912 45.4 135.752 45.88 136.412 46.42C137.012 47.02 137.192 47.56 137.012 48.1C136.652 48.88 136.172 49.6 135.512 50.32C134.792 51.04 133.952 52 133.112 53.2C132.692 53.8 132.212 54.4 131.612 55.12C131.012 55.9 130.352 56.68 129.752 57.4C129.032 58.24 128.432 58.96 127.832 59.68C127.172 60.46 126.632 61.12 126.212 61.6C125.252 62.68 124.232 63.76 123.092 64.9C121.892 66.1 120.692 67.18 119.612 68.2C118.412 69.28 117.392 70.24 116.432 71.08C115.412 71.98 114.632 72.64 114.092 73C113.552 73.42 113.132 73.6 112.832 73.48C112.472 73.42 112.232 73.24 112.172 72.88C112.052 72.58 112.172 72.22 112.412 71.86C112.652 71.56 112.952 71.14 113.432 70.54C113.852 70.06 114.392 69.4 115.052 68.56C115.652 67.78 116.132 67.06 116.552 66.4C116.732 66.16 116.972 65.92 117.212 65.74C117.452 65.62 117.692 65.56 117.932 65.44C118.112 65.44 118.292 65.38 118.472 65.32C118.592 65.32 118.712 65.32 118.832 65.2C118.892 65.2 119.072 64.9 119.432 64.36C119.732 63.88 120.092 63.28 120.512 62.68C120.872 62.08 121.232 61.54 121.592 60.94C121.952 60.46 122.192 60.1 122.372 59.92C122.492 59.8 122.672 59.68 122.792 59.68C122.852 59.74 122.912 59.8 123.032 59.8C123.092 59.86 123.212 59.86 123.332 59.74C123.392 59.68 123.512 59.44 123.752 59.02C124.112 58.24 124.352 57.64 124.532 57.22C124.652 56.86 125.012 56.56 125.612 56.2C126.152 55.9 126.572 55.54 126.812 55.12C126.992 54.76 127.172 54.46 127.292 54.16Z" fill="white"/>
</svg>
