<svg width="361" height="151" viewBox="0 0 361 151" fill="none" xmlns="http://www.w3.org/2000/svg">
<rect x="0.5" y="0.5" width="90" height="120" fill="#F6C500"/>
<rect x="0.5" y="0.5" width="90" height="120" stroke="black"/>
<path d="M55.1647 52.9C55.7647 51.52 56.4247 50.14 57.2047 48.76C57.9247 47.44 58.7047 46.18 59.4847 44.98C59.4847 44.56 59.5447 44.08 59.5447 43.54C59.4847 43.06 59.4847 42.52 59.5447 41.92C59.4847 40.72 59.4847 39.82 59.5447 39.16C59.5447 38.56 59.5447 37.96 59.5447 37.36C59.4847 36.94 59.4847 36.46 59.4847 35.98C59.4247 35.5 59.1847 35.08 58.7647 34.66C58.2847 34.3 57.8647 34.06 57.5047 33.88C57.0247 33.76 56.6647 33.58 56.3647 33.34C56.1247 33.22 56.0047 33.1 56.0047 32.86C55.9447 32.68 55.9447 32.5 56.0647 32.26C56.1247 32.14 56.3047 31.96 56.5447 31.84C56.7247 31.78 57.0247 31.78 57.4447 31.9C57.6247 32.02 57.9847 32.08 58.5247 32.2C59.0047 32.38 59.6047 32.56 60.2647 32.68C60.8647 32.92 61.4647 33.1 62.0647 33.22C62.6647 33.4 63.1447 33.52 63.5047 33.58C63.9847 33.76 64.4047 33.94 64.7647 34.06C65.0047 34.3 65.0647 34.66 64.8847 35.26C64.6447 35.92 64.4647 36.58 64.3447 37.3C64.1047 38.08 64.0447 38.86 64.0447 39.7C64.0447 40.24 64.0447 40.96 64.0447 41.92C63.9847 42.88 63.9247 43.72 63.8647 44.44C63.8647 44.8 63.8647 45.22 63.8647 45.76C63.8047 46.36 63.8047 47.02 63.8047 47.62C63.7447 48.28 63.7447 48.88 63.7447 49.42C63.6847 50.02 63.6847 50.5 63.6847 50.8C63.6847 51.46 63.6847 52 63.7447 52.48C63.7447 53.02 63.7447 53.5 63.7447 53.98C63.7447 54.52 63.7447 55.06 63.8047 55.6C63.8047 56.2 63.8047 56.92 63.8047 57.7V65.92C63.6847 68.08 63.6247 69.82 63.6247 71.26C63.5647 72.76 63.5647 73.78 63.5647 74.32C63.5647 75.28 63.4447 76.3 63.3247 77.44C63.1447 78.58 62.9647 79.72 62.7247 80.8C62.4847 81.88 62.1847 82.84 61.9447 83.74C61.6447 84.58 61.4047 85.24 61.1647 85.6C60.9247 85.96 60.6247 86.38 60.3847 86.8C60.0847 87.16 59.8447 87.4 59.6047 87.58C59.3647 87.7 59.1847 87.64 59.0647 87.4C58.9447 87.1 58.9447 86.5 59.1247 85.6C59.1847 85 59.2447 84.16 59.3647 83.14C59.3647 82.06 59.4247 80.86 59.4847 79.54C59.4847 78.16 59.5447 76.78 59.5447 75.28C59.5447 73.84 59.5447 72.34 59.5447 70.9V63.64C59.5447 62.62 59.4847 61.54 59.4847 60.46C59.4247 59.38 59.4247 58.12 59.4247 56.56C59.3047 55.6 59.3047 54.58 59.3047 53.56C59.2447 52.6 59.2447 51.7 59.2447 50.86C58.8847 51.7 58.5847 52.48 58.3447 53.2C57.9847 54.04 57.6847 54.82 57.3847 55.6C57.0247 56.44 56.6647 57.34 56.3047 58.3C55.8247 59.32 55.4647 60.34 55.1047 61.42C54.6847 62.5 54.3247 63.58 54.0847 64.66C53.7247 65.74 53.5447 66.76 53.4847 67.6C53.3647 68.2 53.3647 68.68 53.4247 69.1C53.4247 69.58 53.4247 70 53.4247 70.3C53.3047 70.66 53.1847 70.96 53.0047 71.08C52.7647 71.26 52.3447 71.32 51.8047 71.2C51.2047 71.14 50.7247 71.08 50.3647 70.96C49.9447 70.9 49.6447 70.72 49.4047 70.42C49.1647 70.18 48.9847 69.82 48.9247 69.28C48.8047 68.8 48.7447 68.02 48.8047 67C48.8047 66.28 48.8647 65.38 48.8647 64.3C48.8047 63.28 48.8047 62.2 48.8047 61.06C48.7447 59.98 48.7447 58.9 48.7447 57.82C48.7447 56.8 48.7447 55.84 48.8047 55C48.7447 53.98 48.7447 53.08 48.7447 52.3C48.7447 51.58 48.7447 51.22 48.8647 51.16C48.9847 51.04 49.1047 50.92 49.2847 50.92C49.4047 50.92 49.4647 50.8 49.5847 50.5C49.5847 50.38 49.5847 50.2 49.5847 50.08C49.4647 49.96 49.4047 49.84 49.3447 49.66C49.2247 49.54 49.1047 49.36 49.0447 49.12C48.9247 48.94 48.9247 48.7 48.9847 48.34C49.0447 47.92 49.1047 47.44 49.1047 46.84C49.0447 46.36 49.0447 45.82 49.0447 45.22C49.0447 44.02 49.0447 43.12 49.1047 42.46C49.1047 41.86 49.0447 41.26 49.0447 40.66C48.9847 40.24 48.9847 39.76 48.9847 39.28C48.9247 38.8 48.6847 38.38 48.2647 37.96C47.7847 37.6 47.3647 37.36 47.0047 37.18C46.5847 37.06 46.2247 36.88 45.9247 36.64C45.7447 36.52 45.6247 36.4 45.6247 36.16C45.5047 35.98 45.5647 35.8 45.6847 35.56C45.7447 35.44 45.9247 35.26 46.1647 35.14C46.3447 35.08 46.6447 35.08 47.0047 35.2C47.1847 35.32 47.5447 35.38 48.0847 35.5C48.5647 35.68 49.1047 35.86 49.7047 35.98C50.3047 36.22 50.9047 36.4 51.5047 36.52C52.1047 36.7 52.5847 36.82 52.9447 36.88C53.4247 37.06 53.7847 37.24 54.1447 37.36C54.3847 37.6 54.4447 37.96 54.3247 38.56C54.0847 39.22 53.9047 39.88 53.7847 40.6C53.5447 41.38 53.4847 42.16 53.4847 43C53.4247 43.54 53.4247 44.26 53.4247 45.22C53.4247 46.24 53.3647 47.08 53.3047 47.8C53.3047 48.16 53.2447 48.52 53.2447 49C53.1847 49.54 53.1247 50.08 53.1247 50.62C53.0647 51.22 53.0647 51.82 53.0647 52.36C53.0047 52.96 53.0047 53.38 53.0047 53.74C52.8847 55.18 53.0647 55.84 53.4247 55.72C53.7847 55.66 54.3247 54.7 55.1647 52.9ZM31.2247 63.4C31.3447 64.36 31.4047 65.14 31.5247 65.68C31.5847 66.28 31.7047 66.76 31.8247 67C31.9447 67.3 32.1247 67.48 32.3647 67.48C32.6047 67.54 32.9647 67.48 33.4447 67.36C34.2847 67.12 35.1847 66.82 36.0847 66.4C36.9247 66.04 37.5847 65.56 38.1847 65.08C38.6647 64.72 39.1447 64.3 39.6847 63.82C40.1647 63.4 40.6447 63.34 41.1247 63.58L41.1847 63.64C41.3647 62.92 41.5447 62.44 41.6647 62.32C41.7847 62.14 41.9647 61.96 42.2647 61.72C42.5047 61.54 42.8647 61.36 43.2247 61.18C43.5247 61.06 43.8847 60.94 44.2447 60.88C44.6047 60.88 44.9047 60.88 45.2047 61C45.7447 61.24 46.2247 61.72 46.6447 62.32C47.0047 63.04 47.1847 63.7 47.3047 64.3C47.3047 64.96 47.2447 65.38 47.0647 65.56C46.8247 65.8 46.5247 66.04 46.1047 66.4C45.6847 66.76 45.3247 67.06 45.0247 67.36C44.6647 67.72 44.3647 67.96 44.1847 68.2C43.9447 68.5 43.7647 68.68 43.6447 68.68C43.4647 68.74 43.1647 68.8 42.8047 68.8C42.3847 68.86 42.0847 68.92 41.9047 68.92C41.6647 68.98 41.4247 69.16 41.3047 69.4C41.0647 69.76 40.8247 69.88 40.5247 69.88C40.1647 69.94 39.9847 69.76 40.1047 69.28L40.4647 67.12C39.9247 67.48 39.4447 67.78 38.9647 68.08C38.4247 68.44 38.0047 68.8 37.7047 69.1C37.1047 69.7 36.3247 70.18 35.4247 70.54C34.4647 70.9 33.6247 71.26 33.0247 71.5C32.7847 71.62 32.5447 71.62 32.3647 71.62C32.1247 71.68 31.9447 71.68 31.7047 71.56C30.9847 71.56 30.3847 71.38 29.9047 71.02C29.3647 70.72 28.8847 70.18 28.4047 69.4C27.8047 68.56 27.4447 67.36 27.2047 65.92C26.9047 64.54 26.7247 63.04 26.6647 61.42C26.5447 59.86 26.4847 58.36 26.5447 56.8C26.5447 55.36 26.6047 54.1 26.6047 53.02C26.6047 52.12 26.5447 51.4 26.4847 50.8C26.3647 50.26 26.2447 49.78 26.1247 49.42C25.9447 49.12 25.7647 48.82 25.5247 48.58C25.2247 48.4 24.9247 48.16 24.6847 47.92C24.0847 47.5 23.8447 47.08 24.0247 46.72C24.1447 46.36 24.4447 46.3 25.0447 46.48C25.2847 46.6 25.6447 46.72 26.2447 46.9C26.7247 47.14 27.3247 47.44 27.9247 47.68C28.4647 47.98 29.0047 48.22 29.5447 48.46C30.0247 48.7 30.4447 48.88 30.6847 49C31.1047 49.24 31.3447 49.6 31.4047 50.14C31.4047 50.74 31.4047 51.7 31.2847 53.08C31.0447 55.48 30.9847 57.46 30.9847 59.02C30.9247 60.7 30.9847 62.14 31.2247 63.4Z" fill="white"/>
<rect x="180.5" y="0.5" width="90" height="120" fill="#F6C500"/>
<rect x="180.5" y="0.5" width="90" height="120" stroke="black"/>
<path d="M215.291 59.32C215.051 59.32 214.871 59.26 214.691 59.2C214.451 59.2 214.151 59.08 213.791 58.96L213.971 59.86C213.971 60.34 213.911 60.7 213.911 61.06C213.791 61.42 213.551 61.72 213.131 61.9C212.651 62.08 212.231 62.08 211.811 61.96C211.331 61.9 210.911 61.6 210.491 61C210.131 60.58 209.771 59.92 209.351 59.08C208.871 58.24 208.451 57.34 208.031 56.38C207.551 55.42 207.071 54.52 206.711 53.56C206.231 52.66 205.931 51.88 205.691 51.28C205.391 50.68 205.151 50.14 204.971 49.6C204.731 49.12 204.611 48.64 204.491 48.16C204.311 47.68 204.191 47.2 204.131 46.72C204.011 46.24 203.891 45.7 203.891 45.1C203.771 44.5 203.771 44.08 203.891 43.84C203.951 43.66 204.071 43.54 204.251 43.54C204.371 43.6 204.491 43.66 204.671 43.78C204.791 43.96 204.971 44.08 205.091 44.2C205.391 44.56 205.811 44.92 206.291 45.4C206.771 45.94 207.191 46.18 207.551 46.18C207.731 46.18 208.031 46.24 208.391 46.3C208.751 46.42 209.111 46.54 209.471 46.72C209.831 46.96 210.131 47.2 210.491 47.44C210.791 47.8 210.971 48.16 211.091 48.64C211.271 49.6 211.451 50.5 211.571 51.34C211.691 52.3 211.811 52.9 211.991 53.26L212.651 55.36C212.771 55.42 212.891 55.54 213.131 55.72C213.311 55.96 213.491 56.08 213.731 56.2C213.971 56.44 214.271 56.62 214.751 56.68C215.111 56.8 215.531 56.8 216.011 56.8C216.431 56.86 216.911 56.86 217.391 56.8C217.811 56.8 218.231 56.74 218.591 56.68C220.031 56.5 221.051 56.14 221.591 55.66C222.071 55.18 222.371 54.4 222.491 53.2C222.551 52.06 222.551 50.86 222.551 49.66C222.491 48.52 222.491 47.68 222.491 47.2C222.491 46.72 222.311 46.36 221.951 46.12C221.591 45.88 220.931 45.88 220.091 46C219.611 46.12 219.071 46.18 218.411 46.24C217.691 46.36 216.971 46.42 216.311 46.42C215.591 46.54 214.931 46.6 214.331 46.6C213.731 46.72 213.311 46.72 213.071 46.72C212.831 46.72 212.531 46.72 212.291 46.6C211.931 46.6 211.691 46.48 211.571 46.36C211.391 46.24 211.331 46.12 211.391 45.94C211.391 45.82 211.631 45.64 212.111 45.4C212.531 45.22 213.071 44.98 213.671 44.74C214.271 44.56 214.871 44.32 215.531 44.08C216.131 43.9 216.671 43.66 217.271 43.42C217.751 43.18 218.171 42.94 218.471 42.7C219.011 42.16 219.551 41.62 220.091 41.08C220.571 40.6 221.171 40.3 222.011 40.3C222.731 40.3 223.451 40.42 224.171 40.6C224.771 40.84 225.671 40.96 226.811 41.02C227.291 41.08 227.771 41.2 228.251 41.38C228.611 41.62 228.911 41.92 229.151 42.22C229.271 42.58 229.331 42.94 229.271 43.3C229.151 43.78 228.791 44.2 228.311 44.62C227.771 45.1 227.351 45.4 227.111 45.64C226.751 45.94 226.571 46.24 226.451 46.48C226.331 46.84 226.271 47.2 226.271 47.56C226.271 48.04 226.271 48.58 226.391 49.3C226.511 50.74 226.571 51.88 226.571 52.78C226.571 53.74 226.571 54.46 226.571 55C226.571 55.66 226.391 56.14 226.151 56.38C225.851 56.74 225.491 57.1 225.011 57.52C224.771 57.76 224.591 58.06 224.471 58.3C224.291 58.6 224.171 58.84 224.051 59.08C223.931 59.38 223.751 59.62 223.631 59.74C223.451 59.98 223.271 60.1 223.031 60.1C222.791 60.16 222.251 60.16 221.471 60.04C220.631 59.98 219.731 59.86 218.831 59.74C217.751 59.62 216.611 59.5 215.291 59.32ZM243.491 43.84C243.491 44.2 243.431 44.62 243.431 45.22C243.371 45.82 243.371 46.54 243.371 47.26C243.311 48.1 243.311 48.94 243.311 49.78C243.251 50.74 243.251 51.64 243.251 52.48V53.5H243.191C243.191 54.1 243.131 54.7 243.131 55.24C243.071 55.84 243.011 56.26 243.011 56.62C242.951 57.1 242.831 57.58 242.711 58.12C242.471 58.72 242.291 59.26 242.051 59.74C241.811 60.34 241.511 60.82 241.271 61.24C240.971 61.72 240.731 62.02 240.491 62.2C240.251 62.44 239.951 62.62 239.711 62.74C239.351 62.98 239.111 63.1 238.871 63.1C238.571 63.22 238.391 63.16 238.271 63.04C238.151 62.92 238.151 62.68 238.331 62.2C238.451 61.9 238.511 61.42 238.571 60.76C238.571 60.16 238.631 59.38 238.691 58.54C238.691 57.76 238.751 56.92 238.751 56.02C238.691 55.18 238.691 54.34 238.691 53.5H238.631C238.571 51.88 238.571 50.44 238.571 49.18C238.511 47.98 238.511 47.38 238.631 47.26C238.751 47.08 238.931 46.96 239.111 46.96C239.231 47.02 239.291 46.9 239.411 46.6C239.411 46.48 239.411 46.3 239.351 46.18C239.231 46.06 239.171 45.94 239.111 45.76C238.991 45.64 238.871 45.4 238.811 45.16C238.691 44.98 238.691 44.74 238.751 44.38C238.811 43.96 238.871 43.48 238.871 42.88C238.871 42.4 238.871 41.86 238.871 41.32C238.811 40.72 238.811 40.24 238.811 39.82C238.811 39.46 238.811 39.16 238.871 38.86C238.871 38.62 238.871 38.38 238.871 38.14C238.871 37.96 238.871 37.72 238.871 37.48C238.751 37.06 238.751 36.58 238.751 36.04C238.691 35.56 238.451 35.14 237.971 34.72C237.491 34.36 237.071 34.12 236.711 33.94C236.231 33.82 235.811 33.64 235.451 33.4C235.211 33.28 235.091 33.16 235.091 32.92C235.031 32.74 235.091 32.56 235.211 32.32C235.271 32.2 235.451 32.02 235.691 31.9C235.931 31.84 236.231 31.84 236.651 31.9C236.891 32.02 237.251 32.14 237.851 32.26C238.331 32.44 238.931 32.62 239.591 32.8C240.191 33.04 240.851 33.22 241.511 33.34C242.111 33.52 242.651 33.64 243.011 33.7C243.551 33.88 243.971 34.06 244.331 34.18C244.631 34.42 244.691 34.78 244.511 35.38C244.271 36.04 244.091 36.7 243.911 37.42C243.671 38.14 243.551 38.92 243.551 39.7C243.551 40.3 243.551 40.9 243.551 41.62C243.491 42.34 243.491 43.12 243.491 43.84ZM236.051 68.56C236.351 68.08 236.351 67.84 236.111 67.78C235.751 67.78 235.451 67.72 235.151 67.72C234.551 67.72 234.011 67.78 233.531 67.84C232.991 67.96 232.451 68.08 231.971 68.32C231.731 68.44 231.371 68.56 230.951 68.68C230.471 68.86 230.051 68.98 229.631 69.1C229.151 69.28 228.671 69.4 228.251 69.46C227.771 69.58 227.411 69.7 227.171 69.7C226.931 69.76 226.631 69.88 226.151 70C225.671 70.18 225.131 70.36 224.651 70.48C224.111 70.66 223.631 70.78 223.211 70.9C222.731 71.08 222.371 71.14 222.191 71.14C221.711 71.14 221.351 70.9 221.171 70.54C220.931 70.18 220.751 69.82 220.691 69.34C220.691 69.22 220.631 68.92 220.631 68.5C220.571 68.14 220.511 67.72 220.511 67.24C220.451 66.88 220.391 66.46 220.391 66.1C220.331 65.74 220.331 65.5 220.391 65.32C220.391 65.02 220.571 64.84 220.931 64.72C221.171 64.66 221.411 64.78 221.531 65.02C221.711 65.68 221.951 66.1 222.311 66.34C222.611 66.58 223.331 66.7 224.531 66.7C224.771 66.7 225.251 66.7 225.911 66.64C226.511 66.64 227.111 66.58 227.831 66.46C228.431 66.4 229.091 66.34 229.691 66.22C230.231 66.22 230.651 66.16 230.891 66.04C231.731 65.92 232.631 65.8 233.711 65.68C233.891 65.68 234.191 65.68 234.551 65.68C234.851 65.74 235.151 65.8 235.511 65.8C235.871 65.86 236.231 65.92 236.651 65.92C236.711 65.92 236.831 65.92 236.951 65.86C237.191 65.8 237.431 65.62 237.671 65.32C237.911 65.08 238.271 65.02 238.751 65.02C239.171 65.14 239.651 65.32 240.131 65.56C240.251 65.68 240.431 65.74 240.671 65.8C240.851 65.92 241.031 66.04 241.271 66.16C241.451 66.34 241.631 66.52 241.811 66.64C241.931 66.82 241.931 67 241.931 67.24C241.871 67.78 241.751 68.32 241.511 68.8C241.271 69.34 240.611 69.88 239.591 70.48C238.511 71.08 237.371 71.5 236.111 71.74C234.791 71.98 233.651 72.28 232.751 72.58C232.451 72.7 232.091 72.76 231.731 72.88C231.251 73.06 230.771 73.18 230.291 73.3C229.331 73.78 228.731 74.08 228.551 74.26C228.311 74.44 228.311 74.56 228.611 74.62C228.851 74.74 229.271 74.8 229.811 74.8C230.291 74.86 230.771 74.86 231.371 74.86C231.851 74.86 232.271 74.86 232.511 74.86C232.931 74.86 233.231 74.8 233.411 74.62C233.531 74.5 233.771 74.32 234.011 74.08C234.191 73.9 234.491 73.78 234.851 73.66C235.151 73.66 235.691 73.66 236.411 73.66C237.131 73.72 237.671 73.78 238.151 73.9C238.571 74.02 238.931 74.14 239.231 74.14C239.351 74.14 239.471 74.2 239.711 74.32C239.891 74.44 240.071 74.62 240.191 74.74C240.251 74.98 240.251 75.16 240.131 75.4C240.011 75.7 239.651 76 239.171 76.3C238.811 76.54 238.271 76.78 237.551 77.08C236.831 77.44 236.051 77.74 235.211 78.16C234.311 78.52 233.411 78.88 232.511 79.3C231.551 79.66 230.711 79.96 229.991 80.32C229.151 80.62 228.491 80.92 228.011 81.16C227.411 81.34 227.111 81.46 227.051 81.58C226.691 81.76 226.631 82 226.751 82.24C226.871 82.48 227.111 82.6 227.591 82.72C227.831 82.72 228.251 82.84 228.911 83.08C229.511 83.2 230.171 83.44 230.891 83.68C231.611 83.86 232.271 84.04 232.931 84.28C233.531 84.46 234.011 84.58 234.311 84.64C234.731 84.7 235.271 84.76 235.991 84.76C236.591 84.76 237.311 84.7 238.031 84.7C238.691 84.64 239.351 84.58 240.011 84.52C240.611 84.4 241.031 84.34 241.391 84.28C241.751 84.16 242.171 84.1 242.651 84.04C243.071 83.92 243.551 83.86 244.031 83.8C244.451 83.68 244.871 83.62 245.231 83.62C245.591 83.56 245.831 83.56 246.011 83.56C246.131 83.56 246.431 83.5 246.851 83.5C247.211 83.44 247.631 83.44 248.051 83.44C248.411 83.44 248.771 83.44 249.131 83.5C249.371 83.5 249.491 83.62 249.491 83.8C249.371 84.16 249.491 84.4 249.791 84.58C250.031 84.7 250.271 84.76 250.511 84.76C250.631 84.76 250.811 84.76 251.111 84.82C251.351 84.82 251.351 85.06 250.991 85.54C250.631 85.96 250.211 86.32 249.731 86.56C249.191 86.8 248.711 86.92 248.231 87.04C247.871 87.1 247.331 87.22 246.611 87.4C245.831 87.52 245.051 87.64 244.271 87.82C243.431 87.94 242.651 88.06 241.931 88.18C241.151 88.24 240.551 88.3 240.191 88.3C239.291 88.3 238.211 88.24 236.891 88.18C235.511 88.06 234.311 87.88 233.351 87.58C232.811 87.4 232.211 87.22 231.551 86.98C230.831 86.68 230.111 86.44 229.511 86.2C228.791 85.96 228.191 85.72 227.711 85.54C227.111 85.3 226.751 85.18 226.571 85.06C226.091 84.88 225.611 84.82 225.131 84.94C224.591 84.94 223.991 85 223.331 85C222.611 85 222.011 84.88 221.591 84.7C221.111 84.46 220.931 83.98 221.051 83.32C221.111 82.6 221.231 82 221.351 81.4C221.471 80.74 221.771 80.44 222.371 80.44C222.911 80.44 223.451 80.5 223.991 80.62C224.471 80.68 224.951 80.62 225.431 80.44C225.851 80.2 226.391 80.02 226.991 79.9C227.531 79.66 228.071 79.42 228.671 79.06C229.151 78.7 229.391 78.52 229.391 78.46C229.391 78.34 229.091 78.28 228.551 78.28C228.191 78.28 227.711 78.28 227.111 78.28C226.391 78.28 225.731 78.22 225.131 78.1C224.411 77.98 223.871 77.8 223.391 77.56C222.911 77.32 222.671 76.96 222.791 76.48C222.791 76 222.851 75.64 222.911 75.4C222.911 75.16 222.971 74.98 223.091 74.8C223.151 74.68 223.271 74.5 223.451 74.38C223.571 74.32 223.751 74.14 224.051 73.9C224.231 73.78 224.651 73.54 225.371 73.24C226.031 73 226.811 72.76 227.771 72.4C228.611 72.1 229.571 71.74 230.591 71.32C231.551 70.96 232.511 70.6 233.351 70.24C233.711 70.06 234.251 69.82 234.851 69.52C235.391 69.28 235.811 68.92 236.051 68.56Z" fill="white"/>
<rect x="270.5" y="30.5" width="90" height="120" fill="#F6C500"/>
<rect x="270.5" y="30.5" width="90" height="120" stroke="black"/>
<path d="M321.609 97.84C321.789 97.6 321.909 97.42 321.909 97.3C321.849 97.18 321.789 97.12 321.669 97.06H320.709C320.049 97 319.449 97 318.909 97.06C318.309 97.18 317.769 97.36 317.289 97.54C316.989 97.66 316.629 97.84 316.209 97.96C315.729 98.2 315.309 98.38 314.829 98.5C314.349 98.74 313.869 98.92 313.389 99.04C312.909 99.22 312.489 99.34 312.249 99.34C312.009 99.4 311.709 99.52 311.229 99.64C310.689 99.82 310.149 100 309.609 100.12C309.009 100.36 308.469 100.48 307.989 100.6C307.449 100.72 307.089 100.78 306.849 100.78C306.369 100.78 306.009 100.54 305.769 100.18C305.529 99.82 305.349 99.46 305.289 99.04C305.289 98.86 305.229 98.56 305.229 98.14C305.109 97.78 305.049 97.36 305.049 96.88C304.989 96.46 304.929 96.04 304.929 95.68C304.869 95.32 304.869 95.08 304.929 94.9C304.989 94.6 305.169 94.42 305.529 94.3C305.769 94.24 306.009 94.36 306.129 94.6C306.249 95.32 306.549 95.74 306.969 95.92C307.329 96.16 308.169 96.28 309.489 96.28C309.789 96.34 310.269 96.34 310.929 96.22C311.529 96.16 312.249 96.04 312.969 95.92C313.629 95.86 314.289 95.74 314.889 95.62C315.429 95.5 315.849 95.44 316.089 95.38C316.509 95.32 316.989 95.2 317.529 95.08C318.009 95.02 318.549 94.96 319.089 94.9C319.329 94.9 319.629 94.9 320.049 94.9C320.409 94.96 320.709 95.02 321.069 95.02C321.429 95.08 321.849 95.14 322.269 95.2C322.329 95.2 322.449 95.2 322.569 95.14C322.809 95.08 323.049 94.9 323.409 94.54C323.649 94.3 324.009 94.18 324.489 94.18C324.969 94.3 325.449 94.48 325.929 94.78C326.049 94.9 326.289 94.96 326.529 95.02C326.709 95.14 326.949 95.26 327.189 95.38C327.369 95.56 327.549 95.74 327.729 95.92C327.849 96.16 327.909 96.34 327.909 96.58C327.849 97.06 327.729 97.54 327.489 98.08C327.189 98.68 326.469 99.22 325.329 99.82C324.789 100.18 324.189 100.42 323.589 100.6C322.929 100.84 322.269 100.96 321.669 101.08C321.009 101.26 320.409 101.38 319.809 101.5C319.209 101.68 318.669 101.86 318.189 101.98C317.889 102.1 317.529 102.22 317.049 102.46C316.569 102.7 316.029 102.94 315.549 103.06C315.069 103.3 314.649 103.42 314.349 103.54C313.989 103.72 313.749 103.84 313.629 103.9C313.389 104.14 313.389 104.26 313.749 104.32C313.989 104.44 314.409 104.5 315.009 104.5C315.489 104.56 316.089 104.56 316.689 104.56C317.229 104.56 317.649 104.56 317.889 104.56C318.309 104.56 318.609 104.5 318.789 104.32C318.909 104.2 319.149 104.02 319.389 103.78C319.629 103.54 319.929 103.42 320.289 103.3C320.649 103.3 321.189 103.3 322.029 103.3C322.809 103.36 323.469 103.42 323.949 103.54C324.369 103.66 324.729 103.78 324.969 103.78C325.089 103.78 325.269 103.84 325.509 103.96C325.689 104.08 325.869 104.26 325.989 104.44C326.049 104.68 326.049 104.92 325.929 105.16C325.809 105.46 325.449 105.76 324.849 106.06C324.249 106.42 323.349 106.84 322.029 107.38C320.709 107.92 319.329 108.52 317.949 109.12C316.509 109.66 315.189 110.14 314.109 110.62C312.909 111.04 312.249 111.34 312.129 111.46C311.769 111.64 311.709 111.88 311.829 112.12C311.949 112.36 312.189 112.48 312.669 112.6C312.909 112.6 313.329 112.72 313.989 112.96C314.589 113.14 315.309 113.32 316.089 113.56C316.809 113.74 317.529 113.92 318.249 114.16C318.909 114.28 319.389 114.4 319.689 114.46C320.169 114.52 320.769 114.58 321.549 114.64C322.269 114.64 322.989 114.58 323.769 114.58C324.489 114.52 325.209 114.46 325.929 114.46C326.589 114.34 327.129 114.28 327.489 114.22C328.209 113.98 329.049 113.86 329.949 113.74C330.789 113.56 331.329 113.5 331.689 113.5C331.809 113.5 332.109 113.44 332.529 113.44C332.889 113.38 333.309 113.38 333.789 113.38C334.149 113.38 334.509 113.38 334.869 113.44C335.169 113.44 335.289 113.56 335.289 113.74C335.169 114.1 335.289 114.34 335.589 114.52C335.829 114.64 336.009 114.7 336.189 114.7C336.249 114.7 336.369 114.7 336.549 114.7C336.669 114.7 336.789 114.7 336.909 114.76C336.969 114.76 337.029 114.82 337.029 114.94C337.029 115.06 336.909 115.24 336.789 115.48C336.429 115.96 335.949 116.32 335.409 116.62C334.809 116.86 334.269 116.98 333.789 117.1C333.369 117.16 332.829 117.28 332.169 117.46C331.449 117.58 330.669 117.7 329.949 117.82C329.169 117.94 328.449 118.06 327.729 118.18C327.009 118.24 326.409 118.3 325.989 118.3C325.509 118.3 325.029 118.3 324.429 118.3C323.769 118.24 323.109 118.18 322.509 118.18C321.789 118.12 321.129 118.06 320.529 118C319.809 117.88 319.209 117.7 318.729 117.52C318.189 117.34 317.589 117.16 316.869 116.92C316.089 116.62 315.369 116.38 314.649 116.14C313.929 115.9 313.269 115.66 312.729 115.48C312.129 115.24 311.769 115.12 311.589 115.06C311.109 114.82 310.629 114.76 310.089 114.88C309.489 114.88 308.829 114.94 308.109 114.94C307.269 114.94 306.669 114.82 306.309 114.58C305.829 114.34 305.649 113.86 305.769 113.2C305.769 112.48 305.889 111.88 306.069 111.28C306.189 110.62 306.489 110.32 307.089 110.32C307.689 110.32 308.229 110.32 308.829 110.44C309.309 110.5 309.849 110.44 310.329 110.32C310.809 110.08 311.409 109.9 312.009 109.72C312.549 109.48 313.089 109.24 313.689 108.94C314.229 108.58 314.469 108.34 314.409 108.22C314.289 108.1 313.989 108.04 313.569 108.04C313.209 108.04 312.729 108.1 312.069 108.1C311.349 108.1 310.689 108.04 310.029 107.98C309.309 107.86 308.709 107.62 308.229 107.38C307.689 107.14 307.449 106.78 307.569 106.3C307.569 105.82 307.629 105.4 307.689 105.1C307.689 104.86 307.809 104.68 307.929 104.5C307.989 104.38 308.109 104.26 308.289 104.14C308.409 104.02 308.589 103.9 308.949 103.66C309.129 103.54 309.609 103.36 310.329 103C311.049 102.76 311.889 102.4 312.849 101.98C313.809 101.62 314.769 101.2 315.849 100.72C316.869 100.36 317.829 99.94 318.729 99.52C319.089 99.4 319.629 99.16 320.289 98.8C320.889 98.56 321.369 98.2 321.609 97.84ZM318.489 62.8C319.209 62.92 319.929 63.04 320.769 63.28C321.489 63.58 322.209 64 322.929 64.48C323.589 65.02 324.189 65.68 324.669 66.46C325.089 67.3 325.329 68.32 325.449 69.4C325.449 69.88 325.449 70.24 325.449 70.48C325.389 70.72 325.329 70.9 325.329 70.96C325.209 71.08 325.149 71.2 325.089 71.2C324.969 71.26 324.909 71.32 324.909 71.44C324.849 71.56 324.849 71.68 324.969 71.68C324.969 71.8 325.029 71.86 325.149 71.98C325.149 72.1 325.209 72.28 325.269 72.46C325.269 72.7 325.269 73 325.149 73.36C324.549 75.76 323.229 77.62 321.309 79.06C320.709 79.48 320.109 79.78 319.509 79.96C318.849 80.2 318.189 80.38 317.589 80.44C316.929 80.56 316.329 80.56 315.849 80.56C315.249 80.56 314.829 80.56 314.529 80.56C313.689 80.5 312.849 80.32 312.009 79.96C311.109 79.66 310.389 79.36 309.789 79C308.829 78.52 308.049 77.8 307.569 76.9C306.969 76.06 306.609 75.1 306.429 74.08C306.189 73.12 306.129 72.16 306.249 71.14C306.249 70.18 306.429 69.34 306.789 68.62C307.089 67.9 307.569 67.12 308.169 66.28C308.769 65.44 309.549 64.72 310.509 64.12C310.329 63.52 310.149 62.92 309.969 62.32C309.729 61.78 309.489 61.36 309.249 61.12C308.769 60.7 308.709 60.28 309.009 59.92C309.249 59.62 309.669 59.62 310.149 59.92C310.629 60.28 311.049 60.52 311.409 60.76C311.709 61 312.249 61.3 313.089 61.6C313.809 62.02 314.289 62.68 314.649 63.64C315.069 63.46 315.609 63.28 316.329 63.04C316.929 62.86 317.649 62.8 318.489 62.8ZM291.489 87.34C292.209 87.58 293.049 87.64 294.009 87.58C294.849 87.58 295.809 87.52 296.889 87.4C297.249 87.4 298.089 87.34 299.409 87.22C300.609 87.1 302.049 86.98 303.729 86.8C305.349 86.68 307.089 86.5 308.949 86.32C310.749 86.2 312.489 86.02 314.109 85.84C315.669 85.72 317.049 85.54 318.189 85.42C319.269 85.3 319.989 85.24 320.289 85.24C320.769 85.24 321.609 85.12 322.869 85C324.069 84.88 325.389 84.76 326.769 84.58C328.089 84.46 329.289 84.34 330.369 84.22C331.449 84.16 332.049 84.1 332.289 84.1C332.469 84.1 332.709 83.98 332.949 83.74C333.189 83.5 333.429 83.26 333.789 83.02C334.029 82.84 334.389 82.66 334.749 82.54C335.049 82.48 335.409 82.54 335.889 82.78C336.249 83.02 336.669 83.32 337.149 83.68C337.569 84.04 337.989 84.4 338.469 84.7C338.829 85.06 339.249 85.36 339.609 85.6C339.909 85.9 340.149 86.08 340.389 86.2C340.569 86.32 340.689 86.56 340.809 86.8C340.869 87.1 340.869 87.4 340.869 87.64C340.749 87.94 340.629 88.18 340.509 88.36C340.269 88.6 340.029 88.66 339.789 88.6C339.309 88.6 338.709 88.54 337.989 88.54C337.209 88.6 336.429 88.66 335.589 88.78C334.689 88.9 333.849 89.08 333.009 89.26C332.169 89.5 331.449 89.74 330.849 90.1C329.949 90.58 329.289 90.7 328.869 90.52C328.389 90.4 328.569 90.1 329.289 89.5C329.589 89.26 329.949 88.96 330.369 88.54C330.729 88.18 331.089 87.82 331.389 87.46C331.629 87.1 331.749 86.8 331.869 86.56C331.869 86.32 331.749 86.2 331.389 86.2C331.029 86.2 330.309 86.26 329.349 86.32C328.329 86.44 327.249 86.5 326.109 86.62C324.909 86.74 323.709 86.86 322.629 86.98C321.489 87.16 320.589 87.28 319.989 87.4C319.509 87.52 318.789 87.7 317.769 87.88C316.689 88.12 315.489 88.3 314.169 88.54C312.729 88.84 311.289 89.14 309.849 89.38C308.289 89.74 306.909 89.98 305.589 90.22C304.209 90.52 303.069 90.76 302.109 90.88C301.089 91.12 300.429 91.24 300.189 91.3C299.709 91.42 299.169 91.48 298.629 91.48C298.029 91.6 297.489 91.6 296.949 91.6C296.349 91.6 295.749 91.54 295.269 91.42C294.729 91.36 294.249 91.24 293.889 91C293.049 90.58 292.449 90.16 291.969 89.8C291.489 89.5 291.009 89.2 290.589 88.9C290.349 88.78 290.169 88.6 290.109 88.36C289.989 88.18 289.929 88 290.049 87.76C290.049 87.64 290.229 87.46 290.469 87.34C290.709 87.22 291.009 87.22 291.489 87.34ZM313.869 67C313.509 67.36 313.149 67.54 312.909 67.66C312.549 67.78 312.309 67.84 312.129 67.84H312.009L311.889 67.78C311.229 67.72 310.749 68.02 310.449 68.62C310.089 69.28 309.909 69.88 309.909 70.48C309.789 71.14 309.789 71.74 309.909 72.34C309.909 73 310.089 73.6 310.329 74.14C310.569 74.74 310.929 75.22 311.469 75.58C311.949 76.06 312.669 76.36 313.569 76.6C314.649 76.9 315.609 76.96 316.449 76.78C317.289 76.66 318.069 76.42 318.909 76.06C319.929 75.28 320.589 74.38 320.889 73.36C321.129 72.4 321.249 71.32 321.369 70.12C321.429 68.86 321.129 67.72 320.469 66.76C319.749 65.8 318.849 65.2 317.709 64.9C317.229 64.84 316.749 64.78 316.269 64.78C315.669 64.84 315.189 64.84 314.829 64.84C314.829 65.26 314.709 65.62 314.589 65.98C314.409 66.4 314.169 66.76 313.869 67Z" fill="white"/>
<rect x="90.5" y="0.5" width="90" height="120" fill="#F6C500"/>
<rect x="90.5" y="0.5" width="90" height="120" stroke="black"/>
<path d="M135.049 42.594C135.742 44.106 136.183 45.555 136.372 47.067C136.498 48.579 136.624 50.154 136.687 51.729C137.632 50.973 138.514 50.28 139.333 49.65C140.089 49.146 140.593 48.768 140.908 48.516C141.16 48.39 141.475 48.201 141.727 48.075C141.979 48.012 142.168 48.012 142.294 48.012C142.357 48.138 142.357 48.264 142.294 48.453C142.168 48.705 141.916 49.083 141.538 49.524C140.908 50.154 140.215 50.784 139.333 51.54C138.451 52.296 137.569 53.052 136.687 53.745C136.624 55.572 136.372 57.336 135.994 59.037C135.553 60.801 135.049 62.439 134.419 63.951C133.726 65.526 132.97 66.912 132.214 68.172C131.332 69.432 130.513 70.503 129.631 71.322C128.497 72.33 127.489 73.149 126.481 73.779C125.41 74.409 124.402 74.913 123.394 75.228C122.323 75.606 121.315 75.858 120.307 75.921C119.299 76.047 118.228 76.11 117.22 76.11C116.527 76.11 115.897 75.984 115.33 75.732C114.7 75.543 114.259 75.228 113.944 74.787C113.566 74.409 113.377 73.968 113.377 73.338C113.377 72.834 113.629 72.204 114.133 71.511C114.826 70.503 115.771 69.432 116.905 68.361C117.976 67.353 119.047 66.471 120.055 65.652C119.803 65.4 119.551 65.022 119.425 64.581C119.047 63.825 118.732 63.069 118.417 62.187C118.039 61.431 117.661 60.612 117.409 59.856C117.094 59.163 116.842 58.533 116.653 57.903C116.401 57.399 116.212 57.021 116.086 56.769C115.771 56.265 115.645 55.761 115.771 55.32C115.771 54.942 116.086 54.942 116.716 55.32C116.842 55.446 117.157 55.635 117.535 55.887C117.913 56.139 118.291 56.391 118.795 56.643C119.173 56.958 119.614 57.273 120.055 57.525C120.433 57.903 120.685 58.155 120.937 58.407C121.378 58.911 121.882 59.478 122.449 60.234C122.953 60.99 123.457 61.746 123.961 62.502C124.78 61.746 125.725 60.927 126.859 59.919C127.93 58.974 129.127 57.966 130.387 56.832L131.71 55.761V52.17C131.647 50.91 131.584 49.839 131.458 48.957C131.269 48.138 131.08 47.445 130.891 46.941C130.639 46.437 130.45 46.059 130.261 45.744C130.009 45.492 129.757 45.303 129.631 45.177C129.379 45.051 129.127 44.925 128.812 44.799C128.434 44.799 128.182 44.673 127.993 44.547C127.741 44.484 127.615 44.358 127.678 44.169C127.678 44.043 127.93 43.728 128.434 43.287C129.064 42.783 129.631 42.279 130.261 41.838C130.765 41.46 131.332 41.082 131.962 40.578C132.214 40.326 132.529 40.263 132.907 40.326C133.159 40.452 133.474 40.578 133.789 40.767C134.041 41.019 134.293 41.334 134.545 41.649C134.734 42.027 134.923 42.342 135.049 42.594ZM154.327 43.287C154.327 43.665 154.264 44.106 154.264 44.673C154.201 45.303 154.201 45.996 154.201 46.626C154.138 47.319 154.138 47.949 154.138 48.516C154.075 49.146 154.075 49.65 154.075 49.965C154.075 50.658 154.075 51.225 154.138 51.729C154.138 52.296 154.138 52.8 154.138 53.304C154.138 53.871 154.138 54.438 154.201 55.005C154.201 55.635 154.201 56.391 154.201 57.21C154.201 57.84 154.201 58.533 154.264 59.289C154.264 60.108 154.264 60.864 154.264 61.62C154.264 62.439 154.264 63.195 154.264 63.888C154.201 64.644 154.201 65.337 154.201 65.841C154.075 68.109 154.075 69.936 154.075 71.448C154.012 73.023 154.012 74.094 154.012 74.661C154.012 75.669 153.886 76.74 153.76 77.937C153.508 79.134 153.319 80.331 153.067 81.465C152.752 82.599 152.437 83.607 152.185 84.552C151.807 85.434 151.555 86.127 151.303 86.505C151.051 86.883 150.736 87.324 150.484 87.765C150.106 88.143 149.854 88.395 149.602 88.584C149.287 88.71 149.098 88.647 148.972 88.395C148.846 88.08 148.846 87.45 149.035 86.505C149.161 85.56 149.287 84.111 149.413 82.158C149.413 80.142 149.476 78 149.539 75.669C149.539 73.401 149.539 71.133 149.539 68.865C149.476 66.66 149.476 64.833 149.476 63.447C149.539 62.376 149.539 61.242 149.476 60.108C149.35 58.974 149.35 57.651 149.35 56.013C149.287 55.005 149.287 53.934 149.287 52.8C149.224 51.729 149.224 50.721 149.224 49.839C149.224 49.02 149.224 48.327 149.224 47.76C149.224 47.256 149.224 46.941 149.287 46.878C149.413 46.752 149.602 46.626 149.791 46.626C149.917 46.626 149.98 46.5 150.106 46.185C150.106 46.059 150.106 45.87 150.043 45.744C149.917 45.618 149.854 45.492 149.791 45.303C149.665 45.177 149.539 44.988 149.476 44.736C149.35 44.547 149.35 44.295 149.413 43.917C149.476 43.476 149.539 42.972 149.539 42.342C149.476 41.838 149.476 41.271 149.476 40.641C149.413 39.381 149.413 38.436 149.539 37.743C149.539 37.113 149.539 36.546 149.476 35.916C149.413 35.475 149.413 34.971 149.413 34.404C149.35 33.9 149.098 33.459 148.594 33.018C148.09 32.64 147.649 32.388 147.208 32.199C146.704 32.073 146.326 31.884 145.948 31.632C145.696 31.506 145.57 31.38 145.57 31.128C145.507 30.939 145.57 30.75 145.696 30.498C145.759 30.372 145.948 30.183 146.2 30.057C146.452 29.994 146.767 29.994 147.208 30.12C147.397 30.246 147.775 30.309 148.405 30.435C148.909 30.624 149.539 30.813 150.295 30.939C150.925 31.191 151.618 31.38 152.311 31.506C152.941 31.695 153.445 31.821 153.886 31.884C154.453 32.073 154.894 32.262 155.272 32.388C155.587 32.64 155.65 33.018 155.461 33.648C155.209 34.341 155.02 35.034 154.831 35.79C154.579 36.609 154.453 37.428 154.453 38.31C154.453 38.877 154.39 39.633 154.39 40.641C154.327 41.649 154.327 42.531 154.327 43.287ZM125.284 64.644C125.662 65.337 125.914 65.841 126.166 66.219C126.292 66.66 126.481 67.101 126.67 67.542C126.859 67.983 126.859 68.298 126.607 68.487C126.355 68.739 125.914 68.676 125.284 68.361C124.969 68.235 124.591 68.109 124.15 67.983C123.646 67.857 123.142 67.731 122.638 67.479C122.008 68.361 121.441 69.054 121.063 69.684C120.559 70.377 120.307 70.881 120.181 71.196C119.803 72.204 119.866 72.834 120.244 73.212C120.559 73.653 121.315 73.716 122.512 73.338C123.268 73.149 124.087 72.771 124.843 72.204C125.599 71.7 126.292 71.07 126.922 70.377C127.552 69.747 128.119 69.054 128.623 68.298C129.127 67.605 129.505 66.912 129.757 66.282C130.387 64.896 130.828 63.384 131.143 61.746C131.395 60.234 131.521 58.659 131.647 57.021C131.458 57.147 131.332 57.147 131.206 57.147C131.08 57.21 130.891 57.336 130.702 57.462C130.45 57.651 130.387 57.777 130.387 57.84C130.324 57.966 130.324 58.029 130.324 58.155C130.261 58.281 130.198 58.47 130.072 58.596C129.946 58.848 129.694 59.163 129.316 59.541C128.938 59.919 128.434 60.549 127.678 61.431C126.859 62.313 126.04 63.321 125.158 64.392L125.284 64.644Z" fill="white"/>
</svg>
