<svg width="361" height="181" viewBox="0 0 361 181" fill="none" xmlns="http://www.w3.org/2000/svg">
<rect x="0.5" y="0.5" width="90" height="120" fill="#F6C500"/>
<rect x="0.5" y="0.5" width="90" height="120" stroke="black"/>
<path d="M38.4706 42.1C39.1906 42.22 39.9706 42.4 40.9306 42.64C41.7706 42.94 42.6106 43.36 43.4506 43.9C44.1706 44.5 44.8306 45.16 45.4306 46C45.9706 46.84 46.2706 47.86 46.3906 49C46.3906 49.54 46.3906 49.9 46.3906 50.14C46.3306 50.38 46.2706 50.56 46.2106 50.62C46.0906 50.74 46.0306 50.86 45.9706 50.86C45.8506 50.92 45.7906 50.98 45.7906 51.1C45.7306 51.22 45.7306 51.34 45.8506 51.4C45.9106 51.52 45.9706 51.58 46.0906 51.7C46.0906 51.88 46.1506 52.06 46.2106 52.24C46.2106 52.48 46.2106 52.84 46.0906 53.2C45.7906 54.4 45.3106 55.6 44.5906 56.8C43.8106 58 42.9106 59.02 41.8906 59.8C41.2906 60.28 40.6906 60.58 39.9706 60.76C39.2506 61 38.5306 61.12 37.8106 61.18C37.0906 61.3 36.4306 61.36 35.8306 61.3C35.1706 61.3 34.6906 61.3 34.3906 61.3C33.5506 61.24 32.7706 61.06 31.9906 60.7C31.1506 60.46 30.4906 60.16 29.8906 59.8C28.9306 59.32 28.2106 58.54 27.6706 57.52C27.0706 56.56 26.6506 55.48 26.4106 54.34C26.1106 53.26 25.9906 52.12 26.0506 50.98C26.0506 49.9 26.2306 49 26.5906 48.22C26.8906 47.5 27.3706 46.66 28.0306 45.82C28.6306 44.98 29.4706 44.26 30.5506 43.6C30.3106 43 30.1306 42.46 29.9506 41.86C29.7106 41.38 29.4706 40.96 29.2306 40.66C28.9906 40.42 28.9306 40.18 28.9306 39.94C28.8706 39.76 28.9306 39.58 29.0506 39.4C29.1106 39.28 29.2906 39.22 29.5306 39.16C29.7106 39.16 29.9506 39.28 30.1906 39.4C30.6106 39.76 31.0306 40 31.3906 40.24C31.6906 40.48 32.2306 40.78 33.0706 41.14C33.7906 41.5 34.2706 42.16 34.6306 43.12C35.0506 42.88 35.5906 42.58 36.3106 42.34C36.9106 42.16 37.6306 42.1 38.4706 42.1ZM55.4506 68.56C55.7506 68.08 55.7506 67.84 55.5106 67.78C55.1506 67.78 54.8506 67.72 54.5506 67.72C53.9506 67.72 53.4106 67.78 52.9306 67.84C52.3906 67.96 51.8506 68.08 51.3706 68.32C51.1306 68.44 50.7706 68.56 50.3506 68.68C49.8706 68.86 49.4506 68.98 49.0306 69.1C48.5506 69.28 48.0706 69.4 47.6506 69.46C47.1706 69.58 46.8106 69.7 46.5706 69.7C46.3306 69.76 46.0306 69.88 45.5506 70C45.0706 70.18 44.5306 70.36 44.0506 70.48C43.5106 70.66 43.0306 70.78 42.6106 70.9C42.1306 71.08 41.7706 71.14 41.5906 71.14C41.1106 71.14 40.7506 70.9 40.5706 70.54C40.3306 70.18 40.1506 69.82 40.0906 69.34C40.0906 69.22 40.0306 68.92 40.0306 68.5C39.9706 68.14 39.9106 67.72 39.9106 67.24C39.8506 66.88 39.7906 66.46 39.7906 66.1C39.7306 65.74 39.7306 65.5 39.7906 65.32C39.7906 65.02 39.9706 64.84 40.3306 64.72C40.5706 64.66 40.8106 64.78 40.9306 65.02C41.1106 65.68 41.3506 66.1 41.7106 66.34C42.0106 66.58 42.7306 66.7 43.9306 66.7C44.1706 66.7 44.6506 66.7 45.3106 66.64C45.9106 66.64 46.5106 66.58 47.2306 66.46C47.8306 66.4 48.4906 66.34 49.0906 66.22C49.6306 66.22 50.0506 66.16 50.2906 66.04C51.1306 65.92 52.0306 65.8 53.1106 65.68C53.2906 65.68 53.5906 65.68 53.9506 65.68C54.2506 65.74 54.5506 65.8 54.9106 65.8C55.2706 65.86 55.6306 65.92 56.0506 65.92C56.1106 65.92 56.2306 65.92 56.3506 65.86C56.5906 65.8 56.8306 65.62 57.0706 65.32C57.3106 65.08 57.6706 65.02 58.1506 65.02C58.5706 65.14 59.0506 65.32 59.5306 65.56C59.6506 65.68 59.8306 65.74 60.0706 65.8C60.2506 65.92 60.4306 66.04 60.6706 66.16C60.8506 66.34 61.0306 66.52 61.2106 66.64C61.3306 66.82 61.3306 67 61.3306 67.24C61.2706 67.78 61.1506 68.32 60.9106 68.8C60.6706 69.34 60.0106 69.88 58.9906 70.48C57.9106 71.08 56.7706 71.5 55.5106 71.74C54.1906 71.98 53.0506 72.28 52.1506 72.58C51.8506 72.7 51.4906 72.76 51.1306 72.88C50.6506 73.06 50.1706 73.18 49.6906 73.3C48.7306 73.78 48.1306 74.08 47.9506 74.26C47.7106 74.44 47.7106 74.56 48.0106 74.62C48.2506 74.74 48.6706 74.8 49.2106 74.8C49.6906 74.86 50.1706 74.86 50.7706 74.86C51.2506 74.86 51.6706 74.86 51.9106 74.86C52.3306 74.86 52.6306 74.8 52.8106 74.62C52.9306 74.5 53.1706 74.32 53.4106 74.08C53.5906 73.9 53.8906 73.78 54.2506 73.66C54.5506 73.66 55.0906 73.66 55.8106 73.66C56.5306 73.72 57.0706 73.78 57.5506 73.9C57.9706 74.02 58.3306 74.14 58.6306 74.14C58.7506 74.14 58.8706 74.2 59.1106 74.32C59.2906 74.44 59.4706 74.62 59.5906 74.74C59.6506 74.98 59.6506 75.16 59.5306 75.4C59.4106 75.7 59.0506 76 58.5706 76.3C58.2106 76.54 57.6706 76.78 56.9506 77.08C56.2306 77.44 55.4506 77.74 54.6106 78.16C53.7106 78.52 52.8106 78.88 51.9106 79.3C50.9506 79.66 50.1106 79.96 49.3906 80.32C48.5506 80.62 47.8906 80.92 47.4106 81.16C46.8106 81.34 46.5106 81.46 46.4506 81.58C46.0906 81.76 46.0306 82 46.1506 82.24C46.2706 82.48 46.5106 82.6 46.9906 82.72C47.2306 82.72 47.6506 82.84 48.3106 83.08C48.9106 83.2 49.5706 83.44 50.2906 83.68C51.0106 83.86 51.6706 84.04 52.3306 84.28C52.9306 84.46 53.4106 84.58 53.7106 84.64C54.1306 84.7 54.6706 84.76 55.3906 84.76C55.9906 84.76 56.7106 84.7 57.4306 84.7C58.0906 84.64 58.7506 84.58 59.4106 84.52C60.0106 84.4 60.4306 84.34 60.7906 84.28C61.1506 84.16 61.5706 84.1 62.0506 84.04C62.4706 83.92 62.9506 83.86 63.4306 83.8C63.8506 83.68 64.2706 83.62 64.6306 83.62C64.9906 83.56 65.2306 83.56 65.4106 83.56C65.5306 83.56 65.8306 83.5 66.2506 83.5C66.6106 83.44 67.0306 83.44 67.4506 83.44C67.8106 83.44 68.1706 83.44 68.5306 83.5C68.7706 83.5 68.8906 83.62 68.8906 83.8C68.7706 84.16 68.8906 84.4 69.1906 84.58C69.4306 84.7 69.6706 84.76 69.9106 84.76C70.0306 84.76 70.2106 84.76 70.5106 84.82C70.7506 84.82 70.7506 85.06 70.3906 85.54C70.0306 85.96 69.6106 86.32 69.1306 86.56C68.5906 86.8 68.1106 86.92 67.6306 87.04C67.2706 87.1 66.7306 87.22 66.0106 87.4C65.2306 87.52 64.4506 87.64 63.6706 87.82C62.8306 87.94 62.0506 88.06 61.3306 88.18C60.5506 88.24 59.9506 88.3 59.5906 88.3C58.6906 88.3 57.6106 88.24 56.2906 88.18C54.9106 88.06 53.7106 87.88 52.7506 87.58C52.2106 87.4 51.6106 87.22 50.9506 86.98C50.2306 86.68 49.5106 86.44 48.9106 86.2C48.1906 85.96 47.5906 85.72 47.1106 85.54C46.5106 85.3 46.1506 85.18 45.9706 85.06C45.4906 84.88 45.0106 84.82 44.5306 84.94C43.9906 84.94 43.3906 85 42.7306 85C42.0106 85 41.4106 84.88 40.9906 84.7C40.5106 84.46 40.3306 83.98 40.4506 83.32C40.5106 82.6 40.6306 82 40.7506 81.4C40.8706 80.74 41.1706 80.44 41.7706 80.44C42.3106 80.44 42.8506 80.5 43.3906 80.62C43.8706 80.68 44.3506 80.62 44.8306 80.44C45.2506 80.2 45.7906 80.02 46.3906 79.9C46.9306 79.66 47.4706 79.42 48.0706 79.06C48.5506 78.7 48.7906 78.52 48.7906 78.46C48.7906 78.34 48.4906 78.28 47.9506 78.28C47.5906 78.28 47.1106 78.28 46.5106 78.28C45.7906 78.28 45.1306 78.22 44.5306 78.1C43.8106 77.98 43.2706 77.8 42.7906 77.56C42.3106 77.32 42.0706 76.96 42.1906 76.48C42.1906 76 42.2506 75.64 42.3106 75.4C42.3106 75.16 42.3706 74.98 42.4906 74.8C42.5506 74.68 42.6706 74.5 42.8506 74.38C42.9706 74.32 43.1506 74.14 43.4506 73.9C43.6306 73.78 44.0506 73.54 44.7706 73.24C45.4306 73 46.2106 72.76 47.1706 72.4C48.0106 72.1 48.9706 71.74 49.9906 71.32C50.9506 70.96 51.9106 70.6 52.7506 70.24C53.1106 70.06 53.6506 69.82 54.2506 69.52C54.7906 69.28 55.2106 68.92 55.4506 68.56ZM62.8906 43.84C62.8906 44.2 62.8306 44.62 62.8306 45.22C62.7706 45.82 62.7706 46.54 62.7706 47.26C62.7106 48.1 62.7106 48.94 62.7106 49.78C62.6506 50.74 62.6506 51.64 62.6506 52.48V53.5H62.5906C62.5906 54.1 62.5306 54.7 62.5306 55.24C62.4706 55.84 62.4106 56.26 62.4106 56.62C62.3506 57.1 62.2306 57.58 62.1106 58.12C61.8706 58.72 61.6906 59.26 61.4506 59.74C61.2106 60.34 60.9106 60.82 60.6706 61.24C60.3706 61.72 60.1306 62.02 59.8906 62.2C59.6506 62.44 59.3506 62.62 59.1106 62.74C58.7506 62.98 58.5106 63.1 58.2706 63.1C57.9706 63.22 57.7906 63.16 57.6706 63.04C57.5506 62.92 57.5506 62.68 57.7306 62.2C57.8506 61.9 57.9106 61.42 57.9706 60.76C57.9706 60.16 58.0306 59.38 58.0906 58.54C58.0906 57.76 58.1506 56.92 58.1506 56.02C58.0906 55.18 58.0906 54.34 58.0906 53.5H58.0306C57.9706 51.88 57.9706 50.44 57.9706 49.18C57.9106 47.98 57.9106 47.38 58.0306 47.26C58.1506 47.08 58.3306 46.96 58.5106 46.96C58.6306 47.02 58.6906 46.9 58.8106 46.6C58.8106 46.48 58.8106 46.3 58.7506 46.18C58.6306 46.06 58.5706 45.94 58.5106 45.76C58.3906 45.64 58.2706 45.4 58.2106 45.16C58.0906 44.98 58.0906 44.74 58.1506 44.38C58.2106 43.96 58.2706 43.48 58.2706 42.88C58.2706 42.4 58.2706 41.86 58.2706 41.32C58.2106 40.72 58.2106 40.24 58.2106 39.82C58.2106 39.46 58.2106 39.16 58.2706 38.86C58.2706 38.62 58.2706 38.38 58.2706 38.14C58.2706 37.96 58.2706 37.72 58.2706 37.48C58.1506 37.06 58.1506 36.58 58.1506 36.04C58.0906 35.56 57.8506 35.14 57.3706 34.72C56.8906 34.36 56.4706 34.12 56.1106 33.94C55.6306 33.82 55.2106 33.64 54.8506 33.4C54.6106 33.28 54.4906 33.16 54.4906 32.92C54.4306 32.74 54.4906 32.56 54.6106 32.32C54.6706 32.2 54.8506 32.02 55.0906 31.9C55.3306 31.84 55.6306 31.84 56.0506 31.9C56.2906 32.02 56.6506 32.14 57.2506 32.26C57.7306 32.44 58.3306 32.62 58.9906 32.8C59.5906 33.04 60.2506 33.22 60.9106 33.34C61.5106 33.52 62.0506 33.64 62.4106 33.7C62.9506 33.88 63.3706 34.06 63.7306 34.18C64.0306 34.42 64.0906 34.78 63.9106 35.38C63.6706 36.04 63.4906 36.7 63.3106 37.42C63.0706 38.14 62.9506 38.92 62.9506 39.7C62.9506 40.3 62.9506 40.9 62.9506 41.62C62.8906 42.34 62.8906 43.12 62.8906 43.84ZM33.8506 46.66C33.0106 47.44 32.2906 47.68 31.7506 47.38C31.1506 47.38 30.7306 47.74 30.4306 48.34C30.0706 49.06 29.8906 49.66 29.8906 50.2C29.7706 50.8 29.7706 51.46 29.8906 52.12C29.8906 52.84 30.0706 53.56 30.3106 54.16C30.5506 54.88 30.9106 55.48 31.4506 55.96C31.9306 56.5 32.5906 56.86 33.4906 57.1C34.5706 57.4 35.5306 57.52 36.4306 57.46C37.2706 57.46 38.1106 57.28 38.8906 56.8C39.4306 56.5 39.9106 56.08 40.3306 55.48C40.6906 55 40.9906 54.4 41.2306 53.74C41.4706 53.14 41.6506 52.54 41.7706 51.82C41.8306 51.16 41.8906 50.5 41.8906 49.9C41.8906 48.58 41.4706 47.44 40.6906 46.42C39.8506 45.46 38.8906 44.8 37.6906 44.5C37.2106 44.44 36.7306 44.38 36.2506 44.38C35.6506 44.44 35.1706 44.44 34.8106 44.38C34.8106 45.34 34.4506 46.06 33.8506 46.66Z" fill="white"/>
<rect x="90.5" y="30.5" width="90" height="120" fill="#F6C500"/>
<rect x="90.5" y="30.5" width="90" height="120" stroke="black"/>
<path d="M124.631 100.06C126.071 99.94 127.511 99.82 129.071 99.64C130.511 99.52 132.011 99.16 133.511 98.56C133.991 98.44 134.591 98.08 135.251 97.6C135.851 97.12 136.271 96.52 136.511 95.68L137.411 91.96C137.471 91.72 137.591 91.48 137.771 91.24C137.891 91.06 138.071 91.24 138.251 91.84C138.431 92.44 138.491 92.86 138.491 93.1C138.371 93.4 138.431 93.64 138.671 93.76C138.791 93.94 138.971 94 139.211 93.88C139.391 93.88 139.511 94 139.631 94.3C139.631 94.66 139.751 94.9 139.931 95.02C140.051 95.2 140.231 95.26 140.351 95.2C140.711 95.2 141.011 95.5 141.131 96.1C141.131 96.34 141.191 96.52 141.431 96.64C141.551 96.88 141.671 97.12 141.791 97.48C141.791 97.9 141.671 98.38 141.311 98.86C140.891 99.4 140.471 99.82 139.991 100.12C139.391 100.54 138.551 100.9 137.351 101.2C136.151 101.56 135.011 101.8 133.931 101.98C132.371 102.22 130.811 102.4 129.191 102.52C127.511 102.7 125.891 102.76 124.331 102.76C123.431 102.76 122.591 102.7 121.871 102.52C121.031 102.4 120.371 102.16 119.831 101.74C119.231 101.38 118.811 100.9 118.511 100.18C118.151 99.52 117.971 98.62 118.031 97.48C118.031 95.56 118.151 93.88 118.271 92.44C118.331 91.06 118.391 90.16 118.391 89.68V89.5C118.151 89.38 117.971 89.32 117.791 89.2C117.551 89.2 117.431 89.08 117.371 88.96C117.251 88.9 117.191 88.78 117.311 88.66C117.371 88.6 117.611 88.48 118.031 88.3C117.911 88.12 117.731 87.88 117.611 87.64C117.431 87.46 117.251 87.28 117.071 87.04C116.471 86.62 116.171 86.26 116.171 85.9C116.111 85.66 116.471 85.54 117.191 85.6C117.911 85.72 118.631 85.9 119.411 86.14C120.131 86.44 120.791 86.74 121.391 87.1C121.391 87.16 121.391 87.16 121.511 87.16C122.411 86.92 123.311 86.62 124.151 86.38C124.931 86.14 125.591 85.96 126.191 85.72C126.851 85.48 127.331 85.18 127.691 84.88C127.991 84.64 128.291 84.16 128.591 83.32C128.831 82.6 129.191 81.7 129.551 80.62C129.911 79.66 130.091 78.88 130.211 78.28C130.211 78.1 130.271 77.86 130.271 77.62C130.271 77.44 130.211 77.26 130.211 77.08C130.091 76.96 129.971 76.84 129.791 76.78C129.551 76.78 129.251 76.9 128.891 77.02C128.531 77.2 127.931 77.38 127.151 77.62C126.311 77.92 125.531 78.22 124.691 78.46C123.851 78.76 123.071 79 122.351 79.24C121.631 79.54 121.151 79.78 120.911 79.9C120.431 80.26 119.891 80.56 119.231 80.8C118.511 81.1 117.911 81.1 117.491 80.8C117.011 80.56 116.651 80.2 116.411 79.84C116.171 79.54 115.871 79.18 115.571 78.7C115.211 78.28 115.151 77.98 115.331 77.8C115.451 77.68 115.811 77.56 116.291 77.5C116.711 77.5 117.251 77.44 117.971 77.32C118.631 77.26 119.351 77.14 120.191 76.9C120.431 76.84 121.091 76.66 122.051 76.36C123.011 76.12 124.031 75.82 125.111 75.46C126.191 75.16 127.211 74.86 128.171 74.5C129.131 74.26 129.731 74.02 130.091 73.9C131.291 73.3 132.371 73.18 133.391 73.6C133.931 73.84 134.531 74.08 135.191 74.38C135.791 74.74 136.211 75.1 136.391 75.4C136.571 75.76 136.691 76.06 136.691 76.3C136.631 76.6 136.631 76.96 136.691 77.32C136.691 77.68 136.511 78.1 136.151 78.58C135.731 79.06 135.431 79.42 135.191 79.6C135.071 79.72 134.891 79.9 134.711 80.2C134.471 80.56 134.231 80.92 133.991 81.28C133.751 81.7 133.511 82.12 133.271 82.48C133.031 82.9 132.791 83.26 132.671 83.5C132.431 83.86 132.371 84.04 132.551 84.1C132.671 84.22 132.911 84.22 133.211 84.22C133.391 84.22 133.631 84.16 133.991 84.16C134.291 84.16 134.531 84.4 134.651 84.82C134.711 85.3 134.651 85.6 134.471 85.84C134.231 86.14 133.931 86.44 133.631 86.68C133.271 87.04 132.851 87.22 132.371 87.22C131.831 87.28 131.231 87.4 130.571 87.52C129.551 87.76 128.411 88 127.151 88.24C125.831 88.54 124.811 88.84 124.091 89.14C123.851 89.26 123.671 89.32 123.551 89.44C123.311 89.56 123.131 89.68 123.011 89.74C122.891 90.1 122.831 90.46 122.831 90.7C122.711 91 122.591 91.3 122.471 91.6C122.231 92.08 122.051 92.74 121.931 93.7C121.751 94.72 121.631 95.62 121.511 96.46C121.391 97.06 121.391 97.6 121.451 98.02C121.451 98.5 121.631 98.92 121.871 99.16C122.051 99.52 122.351 99.76 122.831 99.88C123.251 100.06 123.851 100.12 124.631 100.06ZM138.191 85.78C137.231 85.66 136.811 85.36 136.811 85C136.751 84.7 136.991 84.52 137.591 84.4C137.831 84.4 138.071 84.34 138.311 84.28C138.431 84.28 138.671 84.28 138.911 84.22C139.151 84.22 139.451 84.16 139.811 84.1C140.111 84.1 140.591 84.1 141.191 84.1C141.851 84.1 142.871 83.98 144.251 83.74C145.571 83.5 146.951 83.26 148.271 82.9C148.211 81.58 148.211 80.38 148.211 79.42C148.211 78.46 148.211 77.98 148.331 77.86C148.451 77.74 148.631 77.62 148.811 77.62C148.931 77.62 148.991 77.5 149.111 77.2C149.111 77.08 149.111 76.9 149.051 76.78C148.931 76.66 148.871 76.54 148.811 76.36C148.691 76.24 148.571 76.06 148.511 75.82C148.391 75.64 148.391 75.4 148.451 75.04C148.511 74.62 148.571 74.14 148.571 73.54C148.511 73.06 148.511 72.52 148.511 71.92C148.451 70.72 148.451 69.82 148.571 69.16C148.571 68.56 148.571 68.02 148.511 67.42C148.451 67 148.451 66.52 148.451 65.98C148.391 65.5 148.151 65.08 147.671 64.66C147.191 64.3 146.771 64.06 146.351 63.88C145.871 63.76 145.511 63.58 145.151 63.34C144.911 63.22 144.791 63.1 144.791 62.86C144.731 62.68 144.791 62.5 144.911 62.26C144.971 62.14 145.151 61.96 145.391 61.84C145.631 61.78 145.931 61.78 146.351 61.9C146.531 62.02 146.891 62.08 147.491 62.2C147.971 62.38 148.571 62.56 149.291 62.68C149.891 62.92 150.551 63.1 151.211 63.22C151.811 63.4 152.291 63.52 152.711 63.58C153.251 63.76 153.671 63.94 154.031 64.06C154.331 64.3 154.391 64.66 154.211 65.26C153.971 65.92 153.791 66.58 153.611 67.3C153.371 68.08 153.251 68.86 153.251 69.7C153.251 70.24 153.191 70.96 153.191 71.92C153.131 72.88 153.131 73.72 153.131 74.44C153.131 74.8 153.071 75.22 153.071 75.76C153.011 76.36 153.011 77.02 153.011 77.62C152.951 78.28 152.951 78.88 152.951 79.42C152.891 80.02 152.891 80.5 152.891 80.8C152.891 81.46 152.891 82 152.951 82.48C152.951 83.02 152.951 83.5 152.951 83.98C152.951 84.52 152.951 85.06 153.011 85.6C153.011 86.2 153.011 86.92 153.011 87.7C153.011 88.3 153.011 88.96 153.071 89.68C153.071 90.46 153.071 91.18 153.071 91.9C153.071 92.68 153.071 93.4 153.071 94.06C153.011 94.78 153.011 95.44 153.011 95.92C152.891 98.08 152.891 99.82 152.891 101.26C152.831 102.76 152.831 103.78 152.831 104.32C152.831 105.28 152.711 106.3 152.591 107.44C152.351 108.58 152.171 109.72 151.931 110.8C151.631 111.88 151.331 112.84 151.091 113.74C150.731 114.58 150.491 115.24 150.251 115.6C150.011 115.96 149.711 116.38 149.471 116.8C149.111 117.16 148.871 117.4 148.631 117.58C148.331 117.7 148.151 117.64 148.031 117.4C147.911 117.1 147.911 116.5 148.091 115.6C148.211 114.7 148.331 113.32 148.451 111.46C148.451 109.54 148.511 107.5 148.571 105.28C148.571 103.12 148.571 100.96 148.571 98.8C148.511 96.7 148.511 94.96 148.511 93.64C148.571 92.62 148.571 91.54 148.511 90.46C148.391 89.38 148.391 88.12 148.391 86.56C148.391 86.5 148.391 86.38 148.391 86.26C148.331 86.2 148.331 86.08 148.331 85.96C148.091 86.08 147.851 86.2 147.611 86.26C147.371 86.38 147.131 86.5 146.891 86.5C146.531 86.62 146.111 86.68 145.571 86.8C144.971 86.98 144.431 87.1 143.891 87.22C143.291 87.34 142.811 87.46 142.331 87.46C141.791 87.58 141.431 87.52 141.191 87.4C140.951 87.28 140.771 87.16 140.651 86.98C140.411 86.86 140.231 86.68 140.051 86.5C139.811 86.38 139.571 86.2 139.331 86.02C138.971 85.9 138.611 85.84 138.191 85.78Z" fill="white"/>
<rect x="180.5" y="60.5" width="90" height="120" fill="#F6C500"/>
<rect x="180.5" y="60.5" width="90" height="120" stroke="black"/>
<path d="M201.489 117.34C202.209 117.58 203.049 117.64 204.009 117.58C204.849 117.58 205.809 117.52 206.889 117.4C207.249 117.4 208.089 117.34 209.409 117.22C210.609 117.1 212.049 116.98 213.729 116.8C215.349 116.68 217.089 116.5 218.949 116.32C220.749 116.2 222.489 116.02 224.109 115.84C225.669 115.72 227.049 115.54 228.189 115.42C229.269 115.3 229.989 115.24 230.289 115.24C230.769 115.24 231.609 115.12 232.869 115C234.069 114.88 235.389 114.76 236.769 114.58C238.089 114.46 239.289 114.34 240.369 114.22C241.449 114.16 242.049 114.1 242.289 114.1C242.469 114.1 242.709 113.98 242.949 113.74C243.189 113.5 243.429 113.26 243.789 113.02C244.029 112.84 244.389 112.66 244.749 112.54C245.049 112.48 245.409 112.54 245.889 112.78C246.249 113.02 246.669 113.32 247.149 113.68C247.569 114.04 247.989 114.4 248.469 114.7C248.829 115.06 249.249 115.36 249.609 115.6C249.909 115.9 250.149 116.08 250.389 116.2C250.569 116.32 250.689 116.56 250.809 116.8C250.869 117.1 250.869 117.4 250.869 117.64C250.749 117.94 250.629 118.18 250.509 118.36C250.269 118.6 250.029 118.66 249.789 118.6C249.309 118.6 248.709 118.54 247.989 118.54C247.209 118.6 246.429 118.66 245.589 118.78C244.689 118.9 243.849 119.08 243.009 119.26C242.169 119.5 241.449 119.74 240.849 120.1C239.949 120.58 239.289 120.7 238.869 120.52C238.389 120.4 238.569 120.1 239.289 119.5C239.589 119.26 239.949 118.96 240.369 118.54C240.729 118.18 241.089 117.82 241.389 117.46C241.629 117.1 241.749 116.8 241.869 116.56C241.869 116.32 241.749 116.2 241.389 116.2C241.029 116.2 240.309 116.26 239.349 116.32C238.329 116.44 237.249 116.5 236.109 116.62C234.909 116.74 233.709 116.86 232.629 116.98C231.489 117.16 230.589 117.28 229.989 117.4C229.749 117.52 229.509 117.58 229.209 117.64C228.849 117.76 228.429 117.82 227.949 117.88C228.309 118.36 228.609 118.78 228.729 119.26C228.789 119.98 228.849 120.76 228.909 121.54C228.909 122.38 228.729 123.22 228.369 124.06L227.829 125.08L229.089 124.9C229.329 124.9 229.629 124.9 230.049 124.9C230.409 124.96 230.709 125.02 231.069 125.02C231.429 125.08 231.849 125.14 232.269 125.2C232.329 125.2 232.449 125.2 232.569 125.14C232.809 125.08 233.049 124.9 233.409 124.54C233.649 124.3 234.009 124.18 234.489 124.18C234.969 124.3 235.449 124.48 235.929 124.78C236.049 124.9 236.289 124.96 236.529 125.02C236.709 125.14 236.949 125.26 237.189 125.38C237.369 125.56 237.549 125.74 237.729 125.92C237.849 126.16 237.909 126.34 237.909 126.58C237.849 127.06 237.729 127.54 237.489 128.08C237.189 128.68 236.469 129.22 235.329 129.82C234.789 130.18 234.189 130.42 233.589 130.6C232.929 130.84 232.269 130.96 231.669 131.08C231.009 131.26 230.409 131.38 229.809 131.5C229.209 131.68 228.669 131.86 228.189 131.98C227.889 132.1 227.529 132.22 227.049 132.46C226.569 132.7 226.029 132.94 225.549 133.06C225.069 133.3 224.649 133.42 224.349 133.54C223.989 133.72 223.749 133.84 223.629 133.9C223.389 134.14 223.389 134.26 223.749 134.32C223.989 134.44 224.409 134.5 225.009 134.5C225.489 134.56 226.089 134.56 226.689 134.56C227.229 134.56 227.649 134.56 227.889 134.56C228.309 134.56 228.609 134.5 228.789 134.32C228.909 134.2 229.149 134.02 229.389 133.78C229.629 133.54 229.929 133.42 230.289 133.3C230.649 133.3 231.189 133.3 232.029 133.3C232.809 133.36 233.469 133.42 233.949 133.54C234.369 133.66 234.729 133.78 234.969 133.78C235.089 133.78 235.269 133.84 235.509 133.96C235.689 134.08 235.869 134.26 235.989 134.44C236.049 134.68 236.049 134.92 235.929 135.16C235.809 135.46 235.449 135.76 234.849 136.06C234.249 136.42 233.349 136.84 232.029 137.38C230.709 137.92 229.329 138.52 227.949 139.12C226.509 139.66 225.189 140.14 224.109 140.62C222.909 141.04 222.249 141.34 222.129 141.46C221.769 141.64 221.709 141.88 221.829 142.12C221.949 142.36 222.189 142.48 222.669 142.6C222.909 142.6 223.329 142.72 223.989 142.96C224.589 143.14 225.309 143.32 226.089 143.56C226.809 143.74 227.529 143.92 228.249 144.16C228.909 144.28 229.389 144.4 229.689 144.46C230.169 144.52 230.769 144.58 231.549 144.64C232.269 144.64 232.989 144.58 233.769 144.58C234.489 144.52 235.209 144.46 235.929 144.46C236.589 144.34 237.129 144.28 237.489 144.22C238.209 143.98 239.049 143.86 239.949 143.74C240.789 143.56 241.329 143.5 241.689 143.5C241.809 143.5 242.109 143.44 242.529 143.44C242.889 143.38 243.309 143.38 243.789 143.38C244.149 143.38 244.509 143.38 244.869 143.44C245.169 143.44 245.289 143.56 245.289 143.74C245.169 144.1 245.289 144.34 245.589 144.52C245.829 144.64 246.009 144.7 246.189 144.7C246.249 144.7 246.369 144.7 246.549 144.7C246.669 144.7 246.789 144.7 246.909 144.76C246.969 144.76 247.029 144.82 247.029 144.94C247.029 145.06 246.909 145.24 246.789 145.48C246.429 145.96 245.949 146.32 245.409 146.62C244.809 146.86 244.269 146.98 243.789 147.1C243.369 147.16 242.829 147.28 242.169 147.46C241.449 147.58 240.669 147.7 239.949 147.82C239.169 147.94 238.449 148.06 237.729 148.18C237.009 148.24 236.409 148.3 235.989 148.3C235.509 148.3 235.029 148.3 234.429 148.3C233.769 148.24 233.109 148.18 232.509 148.18C231.789 148.12 231.129 148.06 230.529 148C229.809 147.88 229.209 147.7 228.729 147.52C228.189 147.34 227.589 147.16 226.869 146.92C226.089 146.62 225.369 146.38 224.649 146.14C223.929 145.9 223.269 145.66 222.729 145.48C222.129 145.24 221.769 145.12 221.589 145.06C221.109 144.82 220.629 144.76 220.089 144.88C219.489 144.88 218.829 144.94 218.109 144.94C217.269 144.94 216.669 144.82 216.309 144.58C215.829 144.34 215.649 143.86 215.769 143.2C215.769 142.48 215.889 141.88 216.069 141.28C216.189 140.62 216.489 140.32 217.089 140.32C217.689 140.32 218.229 140.32 218.829 140.44C219.309 140.5 219.849 140.44 220.329 140.32C220.809 140.08 221.409 139.9 222.009 139.72C222.549 139.48 223.089 139.24 223.689 138.94C224.229 138.58 224.469 138.34 224.409 138.22C224.289 138.1 223.989 138.04 223.569 138.04C223.209 138.04 222.729 138.1 222.069 138.1C221.349 138.1 220.689 138.04 220.029 137.98C219.309 137.86 218.709 137.62 218.229 137.38C217.689 137.14 217.449 136.78 217.569 136.3C217.569 135.82 217.629 135.4 217.689 135.1C217.689 134.86 217.809 134.68 217.929 134.5C217.989 134.38 218.109 134.26 218.289 134.14C218.409 134.02 218.589 133.9 218.949 133.66C219.129 133.54 219.609 133.36 220.329 133C221.049 132.76 221.889 132.4 222.849 131.98C223.809 131.62 224.769 131.2 225.849 130.72C226.869 130.36 227.829 129.94 228.729 129.52C229.089 129.4 229.629 129.16 230.289 128.8C230.889 128.56 231.369 128.2 231.609 127.84C231.789 127.6 231.909 127.42 231.909 127.3C231.849 127.18 231.789 127.12 231.669 127.06C231.549 127.06 231.369 127.06 231.249 127.06C231.009 127.06 230.829 127.06 230.709 127.06C230.049 127 229.449 127 228.909 127.06C228.309 127.18 227.769 127.36 227.289 127.54C226.989 127.66 226.629 127.84 226.209 127.96C225.729 128.2 225.309 128.38 224.829 128.5C224.349 128.74 223.869 128.92 223.389 129.04C222.909 129.22 222.489 129.34 222.249 129.34C222.009 129.4 221.709 129.52 221.229 129.64C220.689 129.82 220.149 130 219.609 130.12C219.009 130.36 218.469 130.48 217.989 130.6C217.449 130.72 217.089 130.78 216.849 130.78C216.369 130.78 216.009 130.54 215.769 130.18C215.529 129.82 215.349 129.46 215.289 129.04C215.289 128.86 215.229 128.56 215.229 128.14C215.109 127.78 215.049 127.36 215.049 126.88C214.989 126.46 214.929 126.04 214.929 125.68C214.869 125.32 214.869 125.08 214.929 124.9C214.989 124.6 215.169 124.42 215.529 124.3C215.769 124.24 216.009 124.36 216.129 124.6C216.249 125.32 216.549 125.74 216.969 125.92C217.329 126.16 218.169 126.28 219.489 126.28C219.729 126.34 220.029 126.34 220.509 126.28C220.869 126.28 221.349 126.22 221.889 126.1C222.369 126.04 222.909 125.98 223.449 125.86C223.929 125.8 224.349 125.74 224.829 125.62C224.649 125.14 224.469 124.66 224.289 124.18C224.049 123.7 223.869 123.34 223.689 123.1C223.389 122.86 223.329 122.68 223.509 122.5C223.629 122.38 223.809 122.14 223.989 121.84C224.169 121.6 224.289 121.36 224.349 121.24C224.349 121.12 224.289 121 224.169 120.76C223.989 120.58 223.869 120.4 223.869 120.16C223.749 119.98 223.869 119.86 224.169 119.74C224.409 119.62 224.589 119.5 224.769 119.38C224.889 119.32 224.949 119.14 225.069 118.78V118.42C223.629 118.72 222.129 119.02 220.569 119.26C218.949 119.62 217.449 119.92 216.009 120.16C214.569 120.46 213.309 120.7 212.289 120.88C211.209 121.12 210.489 121.24 210.189 121.3C209.709 121.42 209.169 121.48 208.629 121.48C208.029 121.6 207.489 121.6 206.949 121.6C206.349 121.6 205.749 121.54 205.269 121.42C204.729 121.36 204.249 121.24 203.889 121C203.049 120.58 202.449 120.16 201.969 119.8C201.489 119.5 201.009 119.2 200.589 118.9C200.349 118.78 200.169 118.6 200.109 118.36C199.989 118.18 199.929 118 200.049 117.76C200.049 117.64 200.229 117.46 200.469 117.34C200.709 117.22 201.009 117.22 201.489 117.34ZM237.909 93.7C238.149 93.94 238.269 94.18 238.329 94.42C238.329 94.78 238.029 95.14 237.489 95.56C237.189 95.8 237.009 95.98 236.949 96.1C236.829 96.28 236.709 96.4 236.709 96.4C236.589 96.52 236.529 96.52 236.469 96.52C236.349 96.52 236.229 96.52 235.989 96.52C235.509 96.52 235.029 96.76 234.429 97.24C233.769 97.84 233.109 98.44 232.389 99.16C232.149 99.34 231.909 99.52 231.549 99.76C231.129 100.06 230.589 100.48 229.989 101.02C229.749 101.26 229.449 101.44 229.209 101.68C228.909 101.98 228.609 102.22 228.309 102.46L231.189 103.36C231.549 103.48 232.149 103.66 232.989 103.9C233.769 104.14 234.609 104.44 235.509 104.68C236.349 105.04 237.129 105.34 237.909 105.7C238.629 106.12 239.049 106.54 239.289 106.9C239.649 107.74 240.009 108.4 240.249 108.82C240.429 109.3 240.489 109.9 240.489 110.74C240.489 111.1 240.369 111.46 240.249 111.82C240.069 112.18 239.889 112.48 239.709 112.6C239.469 112.78 239.169 112.84 238.929 112.72C238.629 112.66 238.329 112.36 238.089 111.88C237.789 111.4 237.369 110.92 236.829 110.32C236.229 109.84 235.629 109.3 234.909 108.7C234.189 108.22 233.409 107.68 232.629 107.14C231.789 106.66 231.009 106.18 230.289 105.76C229.929 105.64 229.449 105.34 228.729 104.98C227.949 104.68 227.109 104.32 226.269 103.96C225.189 104.68 224.109 105.46 222.969 106.18C221.769 106.96 220.689 107.68 219.729 108.28C218.709 109 217.869 109.54 217.209 110.02C216.489 110.5 216.009 110.86 215.889 111.04C215.109 112 214.389 112.72 213.669 113.08C212.949 113.5 212.349 113.8 211.989 113.98C211.749 114.1 211.509 114.16 211.269 114.16C210.909 114.22 210.669 114.22 210.429 114.1C210.189 114.1 210.009 113.98 209.889 113.8C209.769 113.68 209.769 113.44 209.889 113.08C210.009 112.66 210.309 112.24 210.849 111.88C211.329 111.58 211.929 111.04 212.649 110.26C212.889 109.96 213.129 109.66 213.369 109.42C213.489 109.18 213.669 108.94 213.789 108.7C213.909 108.52 214.029 108.28 214.149 107.98C214.269 107.74 214.389 107.44 214.569 107.02C214.869 106.24 215.169 105.76 215.409 105.64C215.589 105.58 215.649 105.82 215.589 106.3C215.469 106.54 215.409 106.84 215.409 107.14C215.349 107.5 215.349 107.74 215.469 107.86C215.469 108.1 215.589 108.16 215.769 108.1C215.889 108.1 216.189 107.92 216.549 107.5C216.789 107.26 217.149 106.9 217.629 106.48C218.049 106.12 218.529 105.7 219.129 105.22C219.669 104.8 220.269 104.32 220.869 103.84C221.469 103.36 222.069 102.88 222.669 102.4L220.089 101.32C219.849 101.2 219.669 101.08 219.549 100.9C219.429 100.78 219.369 100.66 219.429 100.54C219.429 100.42 219.549 100.36 219.789 100.3C219.969 100.3 220.269 100.3 220.689 100.42C221.049 100.54 221.529 100.66 222.129 100.78C222.669 100.9 223.269 101.08 223.989 101.26C224.229 101.02 224.529 100.78 224.769 100.54C224.949 100.36 225.129 100.18 225.369 99.94C225.609 99.7 225.969 99.4 226.389 99.1C226.749 98.86 227.049 98.62 227.289 98.38C228.309 97.42 228.909 96.7 229.089 96.22C229.209 95.8 228.849 95.74 228.069 96.04C227.289 96.4 226.509 96.58 225.789 96.64C224.949 96.76 224.289 96.88 223.689 97.06C223.329 97.18 222.909 97.24 222.369 97.36C221.769 97.54 221.229 97.72 220.689 97.84C220.089 98.08 219.549 98.26 219.069 98.44C218.529 98.68 218.169 98.86 217.929 98.98C217.329 99.34 216.849 99.4 216.489 99.28C216.009 99.22 215.649 99.04 215.289 98.68C214.809 98.32 214.269 97.9 213.669 97.36C213.009 96.88 212.589 96.4 212.409 95.98C212.169 95.62 212.169 95.32 212.289 95.2C212.349 95.08 212.769 95.08 213.489 95.14C213.729 95.14 214.269 95.14 214.989 95.08C215.709 95.08 216.429 95.08 217.269 95.02C218.049 95.02 218.829 94.96 219.609 94.9C220.329 94.9 220.809 94.84 221.169 94.84C221.769 94.84 222.369 94.78 222.969 94.72C223.569 94.72 223.989 94.66 224.289 94.54C224.409 94.54 224.709 94.48 225.189 94.42C225.609 94.42 226.089 94.36 226.689 94.24C227.169 94.24 227.709 94.18 228.249 94.06C228.729 94 229.149 93.88 229.389 93.76C229.809 93.58 230.169 93.34 230.469 93.04C230.709 92.8 230.889 92.5 231.009 92.2C231.189 91.9 231.489 91.78 231.909 91.9C232.269 92.02 232.749 92.14 233.289 92.2C233.709 92.32 234.189 92.44 234.669 92.56C235.149 92.74 235.569 92.8 236.049 92.8C236.469 92.8 236.829 92.86 237.129 93.04C237.369 93.28 237.669 93.52 237.909 93.7Z" fill="white"/>
<rect x="270.5" y="60.5" width="90" height="120" fill="#F6C500"/>
<rect x="270.5" y="60.5" width="90" height="120" stroke="black"/>
<path d="M334.165 104.44C334.165 104.8 334.165 105.22 334.165 105.76C334.105 106.36 334.105 107.02 334.105 107.62C334.045 108.28 334.045 108.88 334.045 109.42C333.985 110.02 333.985 110.5 333.985 110.8C333.985 111.46 333.985 112 334.045 112.48C334.045 113.02 334.045 113.5 334.045 113.98C334.045 114.52 334.045 115.06 334.105 115.6C334.105 116.2 334.105 116.92 334.105 117.7V125.92C333.985 128.08 333.925 129.82 333.925 131.26C333.865 132.76 333.865 133.78 333.865 134.32C333.865 135.28 333.745 136.3 333.625 137.44C333.445 138.58 333.265 139.72 333.025 140.8C332.785 141.88 332.485 142.84 332.245 143.74C331.945 144.58 331.705 145.24 331.465 145.6C331.225 145.96 330.925 146.38 330.685 146.8C330.385 147.16 330.145 147.4 329.905 147.58C329.665 147.7 329.485 147.64 329.365 147.4C329.245 147.1 329.245 146.5 329.425 145.6C329.485 145 329.545 144.16 329.665 143.14C329.665 142.06 329.725 140.86 329.785 139.54C329.785 138.22 329.845 136.84 329.845 135.34C329.845 133.9 329.845 132.4 329.845 130.96V123.7C329.845 122.68 329.785 121.6 329.785 120.46C329.725 119.38 329.725 118.12 329.725 116.56C329.665 115.6 329.605 114.58 329.605 113.5C329.545 112.48 329.545 111.52 329.545 110.68C329.545 109.9 329.545 109.24 329.605 108.7C329.605 108.22 329.605 107.92 329.665 107.86C329.785 107.74 329.905 107.62 330.085 107.62C330.205 107.62 330.265 107.5 330.385 107.2C330.385 107.08 330.385 106.9 330.325 106.78C330.205 106.66 330.145 106.54 330.085 106.36C329.965 106.24 329.845 106.06 329.785 105.82C329.665 105.64 329.665 105.4 329.785 105.04C329.785 104.62 329.845 104.14 329.845 103.54C329.785 103.06 329.785 102.52 329.845 101.92C329.785 100.72 329.785 99.82 329.845 99.16C329.845 98.56 329.845 97.96 329.845 97.36C329.785 96.94 329.785 96.46 329.785 95.98C329.725 95.5 329.485 95.08 329.065 94.66C328.585 94.3 328.165 94.06 327.805 93.88C327.325 93.76 326.965 93.58 326.665 93.34C326.425 93.22 326.305 93.1 326.305 92.86C326.245 92.68 326.245 92.5 326.365 92.26C326.425 92.14 326.605 91.96 326.845 91.84C327.025 91.78 327.325 91.78 327.745 91.9C327.925 92.02 328.285 92.08 328.825 92.2C329.305 92.38 329.905 92.56 330.565 92.68C331.165 92.92 331.765 93.1 332.365 93.22C332.965 93.4 333.445 93.52 333.805 93.58C334.285 93.76 334.705 93.94 335.065 94.06C335.305 94.3 335.365 94.66 335.185 95.26C334.945 95.92 334.765 96.58 334.645 97.3C334.405 98.08 334.345 98.86 334.345 99.7C334.345 100.24 334.345 100.96 334.345 101.92C334.285 102.88 334.225 103.72 334.165 104.44ZM324.565 96.88C325.045 97.06 325.465 97.24 325.825 97.36C326.065 97.6 326.125 97.96 325.945 98.56C325.705 99.22 325.525 99.88 325.405 100.6C325.165 101.38 325.105 102.16 325.105 103C325.045 103.54 325.045 104.26 325.045 105.22C325.045 106.18 324.985 107.02 324.985 107.74C324.985 108.1 324.985 108.52 324.985 109.06C324.925 109.66 324.865 110.32 324.865 110.92C324.805 111.58 324.805 112.18 324.805 112.72C324.805 113.32 324.805 113.8 324.805 114.1C324.805 115 324.805 115.78 324.805 116.5C324.805 117.28 324.745 118.06 324.745 118.9C324.745 120.22 324.805 121.66 324.865 123.1C324.865 124.66 324.865 126.04 324.865 127.36C324.865 128.74 324.865 129.88 324.865 130.84C324.805 131.86 324.805 132.46 324.805 132.7C324.745 133.42 324.505 133.9 324.025 134.14C323.545 134.44 323.125 134.74 322.825 134.98C322.585 135.16 322.405 135.34 322.225 135.46C321.985 135.7 321.745 135.82 321.565 135.82C321.325 135.88 321.085 135.82 320.965 135.58C320.725 135.4 320.605 134.98 320.605 134.38C320.545 134.02 320.545 133.36 320.545 132.28C320.545 131.32 320.545 130.06 320.545 128.62V119.02C320.545 118.96 320.545 118.84 320.545 118.72C320.485 118.6 320.485 118.48 320.485 118.36C320.125 118.72 319.765 118.96 319.525 119.2C319.225 119.5 318.925 119.68 318.565 119.74C318.325 119.8 317.965 119.86 317.545 119.98C317.065 120.1 316.645 120.22 316.225 120.28C315.745 120.4 315.325 120.46 314.965 120.46C314.545 120.52 314.245 120.46 314.125 120.34C313.765 120.1 313.525 119.74 313.285 119.26C313.045 118.84 312.565 118.54 311.965 118.42C311.245 118.3 310.885 118 310.825 117.64C310.705 117.34 310.885 117.16 311.365 117.04C311.725 116.98 312.145 116.92 312.505 116.92C312.865 116.98 313.465 116.92 314.425 116.8C314.845 116.8 315.685 116.68 316.885 116.5C318.085 116.38 319.225 116.2 320.425 115.84C320.365 114.58 320.365 113.5 320.365 112.6C320.365 111.76 320.365 111.28 320.485 111.16C320.605 111.04 320.785 110.92 320.905 110.92C321.025 110.92 321.085 110.8 321.205 110.5C321.205 110.38 321.205 110.2 321.205 110.08C321.085 109.96 321.025 109.84 320.965 109.66C320.845 109.54 320.725 109.36 320.665 109.12C320.545 108.94 320.545 108.7 320.605 108.34C320.665 107.92 320.725 107.44 320.725 106.84C320.665 106.36 320.665 105.82 320.665 105.22C320.665 104.02 320.665 103.12 320.725 102.46C320.725 101.86 320.725 101.26 320.665 100.66C320.605 100.24 320.605 99.76 320.605 99.28C320.545 98.8 320.305 98.38 319.885 97.96C319.405 97.6 319.045 97.36 318.685 97.18C318.265 97.06 317.905 96.88 317.605 96.64C317.425 96.52 317.305 96.4 317.305 96.16C317.185 95.98 317.185 95.8 317.305 95.56C317.365 95.44 317.545 95.26 317.785 95.14C317.965 95.08 318.265 95.08 318.625 95.2C318.805 95.32 319.165 95.38 319.705 95.5C320.185 95.68 320.785 95.86 321.385 95.98C321.985 96.22 322.585 96.4 323.185 96.52C323.725 96.7 324.205 96.82 324.565 96.88ZM306.685 113.86C306.745 113.74 306.925 113.44 307.225 113.02C307.465 112.66 307.765 112.24 308.125 111.76C308.305 111.52 308.425 111.22 308.545 110.98C308.545 110.74 308.665 110.56 308.785 110.32C309.025 109.78 309.145 109.42 309.085 109.18C308.965 109.06 308.725 109.06 308.305 109.24L307.525 109.72C306.925 109.96 306.445 110.14 305.965 110.32C305.425 110.56 305.005 110.68 304.705 110.8C303.865 111.16 302.965 111.46 302.005 111.82C300.985 112.24 300.085 112.48 299.305 112.54C298.105 112.54 297.085 112.36 296.185 111.88C295.225 111.46 294.445 111.1 293.905 110.8C293.545 110.68 293.425 110.38 293.485 109.9C293.485 109.48 293.845 109.3 294.505 109.3C294.685 109.36 294.985 109.36 295.345 109.36C295.645 109.42 296.005 109.42 296.425 109.42C296.785 109.42 297.145 109.42 297.505 109.36C297.865 109.36 298.165 109.36 298.405 109.3C298.765 109.3 299.485 109.12 300.445 108.88C301.345 108.64 302.305 108.4 303.265 108.1C304.225 107.86 305.065 107.62 305.905 107.38C306.685 107.14 307.165 107.02 307.405 106.9C308.245 106.54 308.965 106.3 309.685 106.06C310.345 105.88 310.765 105.64 311.005 105.34C311.065 105.22 311.185 105.1 311.305 104.92C311.365 104.8 311.485 104.74 311.665 104.62C311.785 104.56 311.965 104.5 312.265 104.5C312.505 104.5 312.805 104.62 313.165 104.8C314.125 105.28 314.905 105.7 315.505 106.18C315.985 106.66 316.165 107.2 315.925 107.74C315.625 108.52 315.205 109.3 314.605 110.14C314.005 110.98 313.285 112 312.505 113.2C312.145 113.8 311.665 114.46 311.125 115.18C310.525 116.02 309.985 116.8 309.445 117.58C308.845 118.42 308.245 119.26 307.705 119.98C307.105 120.76 306.565 121.42 306.205 121.9C305.365 122.98 304.405 124.06 303.325 125.14C302.185 126.34 301.105 127.42 300.025 128.38C298.945 129.46 297.925 130.36 296.965 131.14C296.005 131.98 295.225 132.64 294.745 133C293.665 133.78 293.065 133.78 292.885 133C292.765 132.7 292.885 132.34 293.125 131.98C293.305 131.62 293.605 131.2 294.085 130.6C294.445 130.12 294.985 129.4 295.585 128.56C296.125 127.78 296.605 127.06 297.025 126.4C297.205 126.16 297.445 125.92 297.685 125.74C297.865 125.62 298.105 125.56 298.345 125.44C298.525 125.44 298.705 125.38 298.885 125.32C299.005 125.32 299.065 125.32 299.185 125.2C299.245 125.2 299.425 124.9 299.785 124.36C300.025 123.88 300.385 123.28 300.745 122.68C301.105 122.08 301.405 121.54 301.765 120.94C302.065 120.46 302.305 120.1 302.485 119.92C302.605 119.8 302.785 119.68 302.905 119.68C302.965 119.74 303.025 119.8 303.145 119.8C303.205 119.86 303.325 119.86 303.445 119.74C303.505 119.68 303.625 119.44 303.805 119.02C303.925 118.66 304.045 118.3 304.165 117.94C304.165 117.64 304.225 117.34 304.345 117.1C304.345 116.86 304.465 116.68 304.585 116.44C304.705 116.26 304.885 116.08 305.185 115.9C305.725 115.6 306.085 115.24 306.265 114.82C306.385 114.46 306.565 114.16 306.685 113.86Z" fill="white"/>
</svg>
