<svg width="91" height="121" viewBox="0 0 91 121" fill="none" xmlns="http://www.w3.org/2000/svg">
<rect x="0.5" y="0.5" width="90" height="120" fill="#F6C500"/>
<rect x="0.5" y="0.5" width="90" height="120" stroke="black"/>
<path d="M73.0199 59.73C73.0199 60.108 73.0829 60.549 73.0829 60.99C73.0829 61.494 72.7049 61.809 72.0749 61.935C71.4449 62.061 70.6259 62.061 69.6179 61.935C68.6099 61.809 67.7279 61.683 67.0349 61.494C66.7829 61.494 66.4049 61.431 65.9639 61.368C65.4599 61.368 64.8929 61.368 64.3889 61.368C63.8219 61.368 63.3179 61.368 62.8139 61.368C62.2469 61.431 61.8059 61.431 61.4279 61.431C61.4279 62.313 61.4279 63.069 61.4279 63.825C61.3649 64.581 61.3649 65.274 61.3649 65.841C61.2389 68.109 61.2389 69.936 61.2389 71.448C61.1759 73.023 61.1759 74.094 61.1759 74.661C61.1759 75.669 61.0499 76.74 60.9239 77.937C60.6719 79.134 60.4829 80.331 60.2309 81.465C59.9159 82.599 59.6009 83.607 59.3489 84.552C58.9709 85.434 58.7189 86.127 58.4669 86.505C58.2149 86.883 57.8999 87.324 57.6479 87.765C57.2699 88.143 57.0179 88.395 56.7659 88.584C56.4509 88.71 56.2619 88.647 56.1359 88.395C56.0099 88.08 56.0099 87.45 56.1989 86.505C56.3249 85.749 56.3879 84.678 56.5139 83.292C56.5139 81.843 56.5769 80.268 56.6399 78.567C56.6399 76.803 56.7029 75.039 56.7029 73.149C56.6399 71.322 56.6399 69.558 56.6399 67.92C56.1359 68.235 55.5059 68.55 54.8129 68.802C54.0569 69.18 53.3009 69.432 52.6079 69.684C51.8519 69.999 51.1589 70.251 50.5919 70.377C49.9619 70.629 49.5209 70.755 49.2689 70.755C48.7019 70.881 47.8829 71.07 46.8119 71.259C45.6779 71.511 44.4809 71.763 43.1579 72.015C41.7719 72.33 40.3229 72.645 38.8739 72.897C37.3619 73.212 35.9129 73.464 34.6529 73.716C33.3299 74.031 32.1959 74.283 31.3139 74.409C30.3059 74.661 29.6759 74.787 29.4239 74.85C28.9199 74.976 28.3529 75.039 27.7859 75.039C27.1559 75.165 26.5889 75.165 26.0219 75.165C25.3919 75.165 24.7619 75.102 24.2579 74.976C23.6909 74.913 23.1869 74.787 22.8089 74.535C21.9269 74.094 21.2969 73.653 20.7929 73.275C20.2889 72.96 19.7849 72.645 19.3439 72.33C19.0919 72.204 18.9029 72.015 18.8399 71.763C18.7139 71.574 18.6509 71.385 18.7769 71.133C18.7769 71.007 18.9659 70.818 19.2179 70.692C19.4699 70.566 19.7849 70.566 20.2889 70.692C21.0449 70.944 21.9269 71.007 22.9349 70.944C23.8169 70.944 24.8249 70.881 25.9589 70.755C26.3999 70.755 27.1559 70.692 28.1639 70.566C29.8019 69.999 31.2509 69.117 32.5109 67.857C33.6449 66.723 34.6529 65.526 35.4089 64.266C35.6609 63.825 35.9759 63.384 36.2909 62.88C36.5429 62.439 36.8579 61.935 37.1729 61.305C37.2989 60.927 37.2989 60.549 37.1729 60.297C36.9839 60.045 36.5429 59.919 35.9129 59.793C35.7869 59.793 35.7239 59.793 35.7239 59.73C35.6609 59.73 35.5979 59.73 35.5349 59.73C34.6529 59.667 33.7709 59.415 32.8889 58.974C31.8809 58.596 31.0619 58.218 30.4319 57.84C29.4239 57.273 28.6049 56.517 28.0379 55.509C27.4079 54.627 27.0299 53.619 26.8409 52.485C26.5889 51.477 26.4629 50.406 26.5889 49.335C26.6519 48.327 26.8409 47.382 27.2189 46.563C27.5339 45.807 28.0379 44.925 28.7309 43.98C29.3609 43.098 30.1799 42.342 31.2509 41.712C30.9989 41.019 30.8099 40.326 30.5579 39.696C30.2429 39.066 29.9909 38.625 29.7389 38.373C29.4869 38.121 29.3609 37.869 29.3609 37.617C29.3609 37.428 29.4239 37.239 29.5499 37.05C29.6759 36.924 29.8649 36.861 30.1169 36.798C30.3059 36.798 30.5579 36.924 30.8099 37.05C31.3139 37.428 31.8179 37.68 32.2589 37.932C32.6369 38.247 33.2669 38.562 34.1489 38.94C34.4639 39.129 34.7789 39.381 35.0939 39.759C35.3459 40.2 35.5979 40.641 35.7239 41.145C36.2279 40.893 36.7949 40.704 37.5509 40.452C38.1809 40.263 38.9369 40.2 39.8189 40.2C40.5749 40.326 41.4569 40.515 42.3389 40.767C43.1579 41.082 43.9139 41.523 44.6699 42.027C45.3629 42.657 45.9929 43.35 46.4969 44.232C47.0009 45.114 47.2529 46.185 47.3789 47.445C47.3789 48.012 47.3789 48.39 47.3789 48.579C47.3159 48.831 47.2529 49.02 47.2529 49.083C47.1269 49.209 47.0639 49.335 47.0009 49.335C46.8749 49.461 46.8119 49.524 46.8119 49.65C46.7489 49.776 46.7489 49.902 46.8749 49.902C46.8749 50.028 46.9379 50.091 47.0639 50.217C47.0639 50.343 47.1269 50.532 47.1899 50.721C47.1899 50.973 47.1899 51.351 47.0639 51.729C46.7489 52.674 46.3709 53.619 45.9299 54.627C45.8039 55.068 45.5519 55.572 45.1739 56.202C44.6699 56.895 44.3549 57.399 44.1659 57.651C43.7879 58.155 43.4099 58.659 43.0319 59.163C42.5909 59.73 42.2129 60.234 41.8979 60.738C41.5199 61.242 41.1419 61.683 40.8899 62.061C40.5749 62.502 40.3859 62.754 40.2599 62.88C40.0079 63.132 39.6929 63.51 39.4409 63.888C39.1259 64.392 38.8109 64.833 38.5589 65.274C38.2439 65.778 37.9919 66.156 37.7399 66.534C37.4879 66.912 37.2989 67.227 37.1729 67.353C37.0469 67.542 36.9209 67.731 36.8579 67.92C36.7319 68.172 36.6689 68.424 36.6689 68.613C36.6689 68.865 36.7319 69.054 36.9209 69.18C37.0469 69.369 37.3619 69.432 37.8659 69.432C38.9999 69.306 40.1969 69.18 41.3309 68.991C42.4649 68.865 43.4729 68.739 44.4179 68.613C45.2999 68.55 46.1189 68.487 46.7489 68.361C47.3789 68.298 47.7569 68.235 48.0089 68.235C48.5129 68.235 49.1429 68.172 49.8989 67.983C50.6549 67.857 51.4109 67.605 52.2929 67.353C53.0489 67.101 53.8679 66.849 54.6869 66.534C55.4429 66.282 56.0729 66.03 56.6399 65.778V63.447C56.7029 62.376 56.7029 61.242 56.6399 60.108C56.5139 58.974 56.5139 57.651 56.5139 56.013C56.4509 55.005 56.4509 53.934 56.4509 52.8C56.3879 51.729 56.3879 50.721 56.3879 49.839C56.3879 49.02 56.3879 48.327 56.3879 47.76C56.3879 47.256 56.3879 46.941 56.4509 46.878C56.5769 46.752 56.7659 46.626 56.9549 46.626C57.0809 46.626 57.1439 46.5 57.2699 46.185C57.2699 46.059 57.2699 45.87 57.2069 45.744C57.0809 45.618 57.0179 45.492 56.9549 45.303C56.8289 45.177 56.7029 44.988 56.6399 44.736C56.5139 44.547 56.5139 44.295 56.5769 43.917C56.6399 43.476 56.7029 42.972 56.7029 42.342C56.6399 41.838 56.6399 41.271 56.6399 40.641C56.5769 39.381 56.5769 38.436 56.7029 37.743C56.7029 37.113 56.7029 36.546 56.6399 35.916C56.5769 35.475 56.5769 34.971 56.5769 34.404C56.5139 33.9 56.2619 33.459 55.7579 33.018C55.2539 32.64 54.8129 32.388 54.3719 32.199C53.8679 32.073 53.4899 31.884 53.1119 31.632C52.8599 31.506 52.7339 31.38 52.7339 31.128C52.6709 30.939 52.7339 30.75 52.8599 30.498C52.9229 30.372 53.1119 30.183 53.3639 30.057C53.6159 29.994 53.9309 29.994 54.3719 30.12C54.5609 30.246 54.9389 30.309 55.5689 30.435C56.0729 30.624 56.7029 30.813 57.4589 30.939C58.0889 31.191 58.7819 31.38 59.4749 31.506C60.1049 31.695 60.6089 31.821 61.0499 31.884C61.6169 32.073 62.0579 32.262 62.4359 32.388C62.7509 32.64 62.8139 33.018 62.6249 33.648C62.3729 34.341 62.1839 35.034 61.9949 35.79C61.7429 36.609 61.6169 37.428 61.6169 38.31C61.6169 38.877 61.5539 39.633 61.5539 40.641C61.4909 41.649 61.4909 42.531 61.4909 43.287C61.4909 43.665 61.4279 44.106 61.4279 44.673C61.3649 45.303 61.3649 45.996 61.3649 46.626C61.3019 47.319 61.3019 47.949 61.3019 48.516C61.2389 49.146 61.2389 49.65 61.2389 49.965C61.2389 50.658 61.2389 51.225 61.3019 51.729C61.3019 52.296 61.3019 52.8 61.3019 53.304C61.3019 53.871 61.3019 54.438 61.3649 55.005C61.3649 55.635 61.3649 56.391 61.3649 57.21V59.163C61.5539 59.163 61.7429 59.163 61.9319 59.1C62.0579 59.1 62.1839 59.1 62.3729 59.037C63.3179 58.911 63.9479 58.722 64.2629 58.596C64.5149 58.533 64.9559 58.407 65.4599 58.155C65.9639 57.966 66.4679 57.777 66.9719 57.651C67.3499 57.525 67.8539 57.588 68.3579 57.777C68.7989 58.029 69.3029 58.029 69.8699 57.903C70.3739 57.84 70.8149 57.84 71.1299 57.84C71.5709 57.903 72.0119 58.092 72.3899 58.407C72.7679 58.785 72.9569 59.226 73.0199 59.73ZM34.8419 44.862C34.4009 45.24 34.0229 45.429 33.7709 45.555C33.3929 45.681 33.1409 45.744 32.9519 45.744C32.5739 45.618 32.2589 45.618 32.0069 45.744C31.6919 45.933 31.4399 46.185 31.2509 46.437C30.9989 46.815 30.8729 47.13 30.7469 47.508C30.6209 47.886 30.5579 48.264 30.5579 48.579C30.4319 49.335 30.4319 50.028 30.4949 50.658C30.4949 51.414 30.6839 52.044 30.9989 52.611C31.2509 53.241 31.6289 53.808 32.1959 54.249C32.6999 54.753 33.4559 55.068 34.4639 55.32C35.5979 55.698 36.6689 55.761 37.6139 55.509C38.4959 55.383 39.4409 55.068 40.3229 54.69C41.3939 53.808 42.0869 52.863 42.4019 51.729C42.6539 50.721 42.8429 49.524 42.9689 48.201C43.0319 46.815 42.7169 45.618 42.0239 44.547C41.2679 43.539 40.2599 42.909 38.9999 42.531C38.4959 42.468 37.9919 42.405 37.4879 42.405C36.8579 42.468 36.3539 42.468 35.9129 42.468C35.9129 42.972 35.7869 43.35 35.6609 43.728C35.4719 44.169 35.2199 44.547 34.8419 44.862Z" fill="white"/>
</svg>
