<svg width="361" height="121" viewBox="0 0 361 121" fill="none" xmlns="http://www.w3.org/2000/svg">
<rect x="0.5" y="0.5" width="90" height="120" fill="#F6C500"/>
<rect x="0.5" y="0.5" width="90" height="120" stroke="black"/>
<path d="M42.9917 62.92L43.5317 60.7C42.8117 61 42.0917 61.24 41.4317 61.48C40.7117 61.78 40.0517 62.02 39.5717 62.2C38.9717 62.44 38.3117 62.68 37.5917 62.92C36.8117 63.28 36.0317 63.58 35.3117 63.82C34.5317 64.18 33.8117 64.42 33.2117 64.66C32.5517 64.96 32.0717 65.2 31.7117 65.32C30.9917 65.62 30.3317 65.8 29.6117 65.92C28.8317 66.04 28.2317 66.1 27.8117 66.1C26.7317 66.1 26.1317 65.62 25.8917 64.78C25.5917 63.94 25.4117 62.92 25.4117 61.6C25.4117 60.58 25.4717 59.56 25.7117 58.48C25.8917 57.46 26.3717 56.38 27.2117 55.3C27.4517 54.94 27.8717 54.46 28.3517 53.8C28.8317 53.2 29.3717 52.48 29.9717 51.76C30.5117 51.04 31.1117 50.38 31.7717 49.66C32.3717 49 32.9117 48.46 33.5117 47.98C33.8717 47.68 33.9917 47.44 33.8717 47.2C33.6317 47.02 33.3317 47.02 32.9117 47.26C32.4317 47.56 31.8317 47.86 31.2317 48.22C30.5717 48.58 29.8517 48.76 29.0117 48.7C28.2917 48.7 27.6917 48.46 27.2117 48.04C26.6717 47.68 26.2517 47.2 26.0117 46.6C25.7717 46.06 25.7117 45.52 25.8317 44.92C25.8917 44.44 26.0717 44.26 26.3117 44.5C26.5517 44.74 27.0917 44.86 27.9317 44.98C28.6517 45.1 29.4317 45.16 30.2117 45.1C30.4517 45.1 30.8717 45.04 31.5317 44.86C32.1317 44.74 32.8517 44.56 33.5717 44.32C34.2917 44.14 34.9517 43.96 35.6717 43.72C36.3317 43.6 36.8117 43.48 37.1117 43.42C37.7117 43.36 38.1317 43.24 38.4317 43.06C38.6717 42.94 38.9717 42.7 39.3317 42.22C39.6917 41.86 40.1117 41.5 40.6517 41.2C41.1317 40.96 41.6117 40.84 42.2117 40.9C42.7517 41.08 43.3517 41.2 43.9517 41.32C44.5517 41.44 44.9717 41.62 45.3317 41.74C45.6917 41.86 45.9317 42.1 46.0517 42.34C46.1717 42.7 46.1717 43 46.1117 43.3C45.9917 43.66 45.7517 43.9 45.2717 44.08C44.7317 44.32 44.1917 44.44 43.7117 44.5C42.4517 44.74 41.2517 45.1 40.1117 45.7C38.9117 46.3 37.5917 47.2 36.2117 48.4C35.6117 48.88 34.9517 49.54 34.2317 50.5C33.3917 51.52 32.6717 52.54 32.0117 53.5C31.5317 54.22 31.1117 55 30.6317 55.9C30.0917 56.86 29.7917 57.76 29.7317 58.6C29.6117 59.2 29.6717 59.8 29.7917 60.28C29.8517 60.88 30.2117 61.12 30.9317 61.12C31.5317 60.94 32.1317 60.82 32.8517 60.82C33.4517 60.88 33.9917 60.82 34.4117 60.58C34.5917 60.52 34.7717 60.46 34.9517 60.4C35.0717 60.4 35.1917 60.52 35.4317 60.88C35.5517 61.18 35.7317 61.3 35.9117 61.3C36.0317 61.36 36.2117 61.3 36.3317 61.18C36.4517 61.12 36.5117 61 36.6317 60.82C36.6317 60.7 36.6917 60.52 36.6917 60.4C36.6917 60.28 36.6317 60.22 36.6317 60.1C36.5117 60.04 36.5117 59.92 36.5717 59.8C36.5717 59.74 36.6917 59.68 36.9317 59.56C37.0517 59.5 37.4117 59.44 37.8917 59.32C38.8517 59.14 39.6317 58.9 40.2917 58.66C40.8917 58.48 41.2517 58.36 41.4317 58.24C41.4917 58.24 41.4917 58.36 41.4917 58.48C41.4317 58.66 41.3717 58.84 41.3717 58.96C41.3117 59.14 41.3117 59.26 41.3717 59.32C41.3717 59.44 41.5517 59.38 41.9117 59.14C42.1517 59.02 42.3917 58.84 42.5117 58.66C42.5717 58.54 42.6317 58.48 42.6917 58.36C42.6917 58.3 42.6917 58.24 42.7517 58.12C42.7517 58.12 42.8717 58.06 43.1117 57.94L44.4317 57.52C44.5517 57.22 44.6717 56.92 44.7917 56.68C44.8517 56.44 44.9117 56.32 45.0317 56.2C45.1517 56.08 45.3317 55.9 45.6917 55.66C45.9317 55.48 46.2917 55.3 46.6517 55.12C46.9517 55 47.3117 54.88 47.6717 54.82C48.0317 54.82 48.3317 54.82 48.6917 54.94C49.3517 55.18 49.8917 55.6 50.3117 56.2C50.6717 56.86 50.9117 57.46 50.9717 58.06C51.0317 58.66 50.9717 59.08 50.8517 59.26C50.6717 59.5 50.3117 59.74 49.8317 60.04C49.3517 60.4 48.9317 60.76 48.5717 61.12C48.0917 61.54 47.7917 61.84 47.5517 62.02C47.3117 62.32 47.1317 62.5 46.8917 62.5C46.6517 62.56 46.2917 62.62 45.8717 62.62C45.3917 62.68 45.0917 62.74 44.8517 62.74C44.6117 62.8 44.3717 62.92 44.1317 63.16C43.9517 63.52 43.7117 63.64 43.4117 63.58C43.0517 63.58 42.8717 63.34 42.9917 62.92ZM54.8117 51.1C54.8117 50.98 54.8117 50.74 54.8117 50.38C54.7517 50.14 54.7517 49.78 54.7517 49.42C54.7517 49.12 54.7517 48.82 54.8117 48.52C54.8117 48.28 54.8717 48.1 54.9917 47.98C55.1117 47.8 55.2317 47.68 55.4117 47.68C55.5317 47.74 55.6517 47.62 55.7717 47.32C55.7717 47.2 55.7717 47.02 55.7117 46.9C55.5917 46.78 55.4717 46.66 55.4117 46.48C55.2917 46.36 55.1717 46.12 55.1117 45.88C54.9917 45.7 54.9917 45.46 55.1117 45.1C55.1717 44.68 55.2317 44.2 55.2317 43.6C55.1717 43.12 55.1717 42.58 55.1717 42.04C55.1117 40.84 55.1117 39.94 55.1717 39.22C55.1717 38.62 55.1717 38.02 55.1717 37.48C55.1117 37.06 55.0517 36.58 55.0517 36.04C54.9917 35.56 54.7517 35.14 54.3317 34.72C53.8517 34.36 53.3717 34.12 53.0117 33.94C52.5317 33.82 52.1717 33.64 51.8117 33.4C51.5717 33.28 51.4517 33.16 51.4517 32.92C51.3917 32.74 51.3917 32.56 51.5117 32.32C51.5717 32.2 51.7517 32.02 51.9917 31.9C52.2317 31.84 52.5317 31.84 53.0117 31.9C53.1917 32.02 53.5517 32.14 54.1517 32.26C54.6317 32.44 55.2317 32.62 55.8917 32.8C56.4917 33.04 57.1517 33.22 57.8117 33.34C58.4117 33.52 58.9517 33.64 59.3117 33.7C59.8517 33.88 60.2717 34.06 60.6317 34.18C60.9317 34.42 60.9917 34.78 60.8117 35.38C60.5717 36.04 60.3917 36.7 60.2117 37.42C59.9717 38.2 59.8517 38.98 59.8517 39.76C59.8517 40.36 59.8517 41.08 59.8517 41.98C59.7917 42.94 59.7917 43.84 59.7917 44.56C59.7917 44.92 59.7317 45.34 59.7317 45.88C59.6717 46.48 59.6117 47.14 59.6117 47.74C59.5517 48.4 59.5517 49 59.5517 49.54C59.4917 50.14 59.4917 50.62 59.4917 50.92V52.48L60.5717 52.3C61.0517 52.18 61.4117 52.12 61.7717 52C62.0117 51.94 62.2517 51.88 62.4917 51.76C62.6117 51.76 62.7917 51.64 63.0317 51.52C63.1517 51.46 63.3917 51.34 63.6317 51.22C64.1117 50.98 64.5917 50.8 65.0717 50.62C65.4917 50.5 65.9717 50.44 66.4517 50.56C66.9917 50.68 67.5317 50.68 68.0717 50.56C68.5517 50.5 68.9117 50.44 69.2117 50.44C69.6917 50.44 70.1117 50.56 70.5917 50.8C70.9517 51.16 71.1917 51.52 71.3117 52C71.3117 52.18 71.3717 52.36 71.4317 52.54C71.4317 52.78 71.4917 53.02 71.4917 53.2C71.4917 53.44 71.4317 53.62 71.3117 53.74C71.1317 53.92 70.8917 54.04 70.5917 54.1C69.9317 54.34 69.0917 54.4 68.1317 54.4C67.0517 54.4 66.2117 54.4 65.5517 54.28C65.2517 54.28 64.8317 54.28 64.2917 54.28C63.6917 54.34 63.1517 54.4 62.5517 54.4C61.9517 54.46 61.3517 54.52 60.8117 54.52C60.2117 54.64 59.7917 54.7 59.5517 54.7H59.4317V57.64C59.3117 59.14 59.3117 60.4 59.3117 61.36C59.2517 62.44 59.2517 63.16 59.2517 63.52C59.2517 64.18 59.1317 64.9 59.0117 65.68C58.7717 66.52 58.5917 67.3 58.3517 68.02C58.0517 68.86 57.7517 69.58 57.5117 70.18C57.1517 70.84 56.9117 71.26 56.6717 71.5C56.4317 71.8 56.1317 72.04 55.8917 72.28C55.5317 72.58 55.2917 72.76 55.0517 72.82C54.7517 72.94 54.5717 72.94 54.4517 72.7C54.3317 72.58 54.3317 72.16 54.5117 71.5C54.6317 70.9 54.7517 69.94 54.8717 68.56C54.9317 67.24 54.9917 65.8 55.0517 64.24C55.0517 62.74 55.0517 61.24 55.0517 59.68C54.9917 58.24 54.9917 56.98 54.9917 56.02C54.9917 55.3 54.9917 54.58 54.9317 53.8C54.8117 53.08 54.8117 52.18 54.8117 51.1ZM42.9317 69.52C43.2317 69.52 43.5317 69.7 43.7717 69.94C43.9517 70.24 43.8917 70.6 43.6517 71.02C43.5317 71.26 43.3517 71.5 43.1717 71.86C42.9317 72.28 42.7517 72.7 42.5717 73.06C42.3317 73.54 42.0917 73.9 41.9717 74.26C41.7317 74.68 41.6117 74.98 41.5517 75.16C41.4917 75.4 41.4317 75.82 41.3717 76.3C41.2517 76.9 41.1317 77.44 41.1317 78.04C41.0717 78.64 41.0717 79.24 41.1317 79.84C41.1317 80.38 41.3117 80.8 41.5517 81.1C42.0317 81.64 42.6317 82 43.2917 82.18C43.8917 82.3 44.4917 82.42 45.0917 82.48C45.7517 82.48 46.5917 82.42 47.6717 82.42C48.6317 82.3 49.6517 82.24 50.7317 82.12C51.6917 81.94 52.6517 81.76 53.6117 81.64C54.5117 81.46 55.2317 81.28 55.7117 81.1C56.4917 80.8 57.2117 80.68 57.8717 80.74C58.4717 80.74 59.0117 80.92 59.4917 81.4C59.7317 81.64 59.9717 81.82 60.2717 82.06C60.5117 82.18 60.7517 82.36 60.9917 82.54C61.1117 82.66 61.2317 82.78 61.2917 82.9C61.2917 83.02 61.1717 83.14 60.9317 83.26C60.3917 83.5 59.9117 83.8 59.4317 84.04C58.9517 84.22 58.2917 84.4 57.5117 84.64C57.1517 84.76 56.8517 84.88 56.7317 85.06C56.4917 85.18 56.3717 85.3 56.2517 85.48C56.0717 85.6 55.8917 85.78 55.7117 85.96C55.4717 86.08 55.1717 86.14 54.7517 86.26C54.2717 86.32 53.4917 86.38 52.4717 86.44C51.3917 86.44 50.1917 86.38 48.9917 86.38C47.7317 86.32 46.5317 86.26 45.4517 86.2C44.3117 86.08 43.4717 86.02 42.8717 85.9C42.1517 85.72 41.4317 85.48 40.8317 85.24C40.1717 84.88 39.6317 84.52 39.1517 84.04C38.6717 83.5 38.3117 82.9 38.0717 82.24C37.7717 81.52 37.6517 80.68 37.7117 79.72C37.7717 78.52 37.8317 77.44 37.8917 76.36C37.8917 75.34 37.9517 74.56 37.9517 73.96C37.9517 73.6 37.8317 73.3 37.5917 73C37.2917 72.76 37.0517 72.52 36.8117 72.16C36.6917 72.04 36.5717 71.92 36.4517 71.68C36.2717 71.56 36.1517 71.38 36.0317 71.14C35.9117 70.96 35.8517 70.72 35.8517 70.48C35.7917 70.24 35.8517 70 36.0317 69.7C36.3317 69.1 36.5717 68.74 36.8117 68.62C36.9917 68.56 37.2317 68.62 37.5317 68.8C37.6517 68.92 37.7117 69.04 37.7717 69.16C37.7717 69.28 37.7717 69.4 37.7717 69.46C37.7717 69.58 37.7717 69.7 37.8317 69.76C37.8317 69.88 37.9517 69.88 38.1917 69.88C38.5517 70 38.9117 69.94 39.2717 69.76C39.5717 69.64 39.9917 69.52 40.4717 69.46C40.8917 69.46 41.3117 69.4 41.7917 69.4C42.2117 69.46 42.5717 69.52 42.9317 69.52Z" fill="white"/>
<rect x="90.5" y="0.5" width="90" height="120" fill="#F6C500"/>
<rect x="90.5" y="0.5" width="90" height="120" stroke="black"/>
<path d="M140.409 63.58C140.469 64.66 140.529 65.74 140.589 66.94C140.589 68.2 140.409 69.52 140.049 70.84C139.809 71.68 139.509 72.34 139.149 72.88C138.789 73.48 138.429 73.96 138.189 74.26C137.829 74.62 137.529 74.8 137.289 74.74C136.929 74.74 136.689 74.32 136.569 73.48C136.389 72.7 136.209 71.92 136.029 71.08C135.789 70.36 135.609 69.76 135.369 69.34C135.069 68.98 135.009 68.62 135.189 68.38C135.309 68.14 135.489 67.84 135.669 67.42C135.849 67 135.969 66.7 136.029 66.52C136.029 66.4 135.969 66.16 135.849 65.8C135.669 65.5 135.549 65.2 135.549 64.84C135.429 64.6 135.549 64.36 135.849 64.24C136.089 64.12 136.269 63.94 136.449 63.76C136.569 63.64 136.629 63.34 136.749 62.86C136.749 62.68 136.749 62.44 136.809 62.2C136.809 61.96 136.749 61.72 136.749 61.42C135.369 61.72 133.809 62.02 132.069 62.32C130.269 62.68 128.589 63.04 126.969 63.28C125.289 63.64 123.849 63.88 122.649 64.12C121.329 64.36 120.549 64.54 120.189 64.6C119.709 64.72 119.169 64.78 118.629 64.78C118.029 64.9 117.489 64.9 116.949 64.9C116.349 64.9 115.749 64.84 115.269 64.72C114.729 64.66 114.249 64.54 113.889 64.3C113.049 63.88 112.449 63.46 111.969 63.1C111.489 62.8 111.009 62.5 110.589 62.2C110.349 62.08 110.169 61.9 110.109 61.66C109.989 61.48 109.929 61.3 110.049 61.06C110.049 60.94 110.229 60.76 110.469 60.64C110.709 60.52 111.009 60.52 111.489 60.64C112.209 60.88 113.049 60.94 114.009 60.88C114.849 60.88 115.809 60.82 116.889 60.7C117.249 60.7 118.089 60.64 119.409 60.52C120.609 60.4 122.049 60.28 123.729 60.1C125.349 59.98 127.089 59.8 128.949 59.62C130.749 59.5 132.489 59.32 134.109 59.14C135.669 59.02 137.049 58.84 138.189 58.72C139.269 58.6 139.989 58.54 140.289 58.54C140.769 58.54 141.609 58.42 142.869 58.3C144.069 58.18 145.389 58.06 146.769 57.88C148.089 57.76 149.289 57.64 150.369 57.52C151.449 57.46 152.049 57.4 152.289 57.4C152.469 57.4 152.709 57.28 152.949 57.04C153.189 56.8 153.429 56.56 153.789 56.32C154.029 56.14 154.389 55.96 154.749 55.84C155.049 55.78 155.409 55.84 155.889 56.08C156.249 56.32 156.669 56.62 157.149 56.98C157.569 57.34 157.989 57.7 158.469 58C158.829 58.36 159.249 58.66 159.609 58.9C159.909 59.2 160.149 59.38 160.389 59.5C160.569 59.62 160.689 59.86 160.809 60.1C160.869 60.4 160.869 60.7 160.869 60.94C160.749 61.24 160.629 61.48 160.509 61.66C160.269 61.9 160.029 61.96 159.789 61.9C159.309 61.9 158.709 61.84 157.989 61.84C157.209 61.9 156.429 61.96 155.589 62.08C154.689 62.2 153.849 62.38 153.009 62.56C152.169 62.8 151.449 63.04 150.849 63.4C149.949 63.88 149.289 64 148.869 63.82C148.389 63.7 148.569 63.4 149.289 62.8C149.589 62.56 149.949 62.26 150.369 61.84C150.729 61.48 151.089 61.12 151.389 60.76C151.629 60.4 151.749 60.1 151.869 59.86C151.869 59.62 151.749 59.5 151.389 59.5C151.029 59.5 150.309 59.56 149.349 59.62C148.329 59.74 147.249 59.8 146.109 59.92C144.909 60.04 143.709 60.16 142.629 60.28C141.489 60.46 140.589 60.58 139.989 60.7L139.329 60.88C139.569 61.36 139.809 61.78 140.049 62.2C140.169 62.68 140.289 63.16 140.409 63.58ZM133.389 39.82C133.689 39.28 133.989 38.74 134.349 38.14C134.589 37.66 134.769 37.24 134.889 37C135.069 36.34 135.069 35.68 134.829 35.02C134.529 34.42 134.169 33.82 133.809 33.34C133.689 33.22 133.569 33.04 133.449 32.74C133.269 32.5 133.149 32.2 133.089 31.96C132.849 31.6 132.969 31.3 133.329 31C133.629 30.76 133.989 30.88 134.469 31.3C134.649 31.66 134.889 31.96 135.249 32.26C135.489 32.62 135.969 32.98 136.689 33.4C137.049 33.76 137.649 34 138.369 34.24C139.029 34.54 139.569 34.84 139.989 35.08C140.349 35.32 140.649 35.62 140.889 35.92C141.009 36.28 140.769 36.88 140.169 37.72L136.869 42.28C137.709 42.58 138.549 42.88 139.509 43.18C140.409 43.54 141.309 43.9 142.209 44.26C143.049 44.62 143.769 44.98 144.489 45.28C145.149 45.64 145.629 45.88 145.989 46C146.349 46.24 146.709 46.42 147.189 46.6C147.549 46.84 147.969 47.02 148.389 47.2C148.749 47.44 149.109 47.68 149.469 47.8C149.709 47.98 149.889 48.1 150.009 48.1C150.189 48.22 150.369 48.4 150.549 48.64C150.669 48.94 150.729 49.48 150.669 50.2C150.609 50.56 150.609 50.86 150.609 50.98C150.609 51.22 150.609 51.34 150.609 51.46C150.609 51.64 150.609 51.76 150.669 51.88C150.669 52.06 150.669 52.3 150.729 52.54C150.729 53.02 150.609 53.44 150.249 53.68C149.889 53.98 149.409 53.92 148.869 53.5C148.509 53.26 147.909 52.84 147.069 52.12C146.169 51.52 145.209 50.74 144.129 49.9C142.989 49.12 141.789 48.28 140.589 47.38C139.269 46.54 138.069 45.76 136.989 45.1C136.509 44.86 135.969 44.62 135.489 44.38C134.289 45.94 133.029 47.38 131.649 48.58C130.209 49.84 128.949 50.86 127.929 51.7C126.369 52.9 124.869 53.68 123.429 54.16C121.869 54.7 120.489 54.88 119.289 54.7C118.389 54.58 117.969 54.34 118.029 54.04C118.029 53.8 118.209 53.62 118.689 53.5C119.289 53.44 119.829 53.32 120.309 53.2C120.789 53.14 121.269 52.96 121.749 52.72C122.229 52.54 122.709 52.24 123.249 51.88C123.729 51.52 124.269 51.04 124.989 50.38C125.889 49.48 126.969 48.34 128.169 46.96C129.369 45.64 130.449 44.26 131.529 42.82L128.769 41.8C128.049 41.62 127.689 41.32 127.809 40.96C127.809 40.66 128.229 40.54 129.069 40.6C129.549 40.72 130.089 40.78 130.809 40.84C131.409 40.96 132.009 41.08 132.609 41.2L133.389 39.82ZM130.869 69.4C131.169 69.4 131.469 69.58 131.709 69.82C131.889 70.12 131.829 70.48 131.589 70.9C131.469 71.14 131.289 71.44 131.109 71.8C130.869 72.22 130.689 72.64 130.509 73C130.269 73.48 130.029 73.84 129.909 74.2C129.669 74.62 129.549 74.92 129.489 75.1C129.429 75.34 129.369 75.76 129.309 76.24C129.189 76.84 129.069 77.44 129.069 78.04C129.009 78.64 129.009 79.24 129.069 79.84C129.069 80.38 129.249 80.8 129.489 81.1C129.969 81.64 130.569 82 131.289 82.18C131.889 82.3 132.489 82.42 133.089 82.48C133.749 82.48 134.649 82.42 135.789 82.42C136.869 82.3 138.069 82.24 139.269 82.12C140.409 81.94 141.489 81.76 142.569 81.64C143.529 81.46 144.309 81.28 144.789 81.1C145.569 80.8 146.229 80.68 146.829 80.74C147.369 80.74 147.909 80.92 148.389 81.4C148.629 81.64 148.869 81.82 149.169 82C149.409 82.12 149.649 82.3 149.889 82.48C150.009 82.6 150.129 82.72 150.189 82.84C150.189 82.96 150.129 83.08 149.889 83.2C149.349 83.44 148.869 83.74 148.449 83.98C147.969 84.16 147.369 84.34 146.589 84.58C146.229 84.7 145.929 84.82 145.809 85C145.569 85.12 145.449 85.24 145.329 85.42C145.149 85.54 144.969 85.72 144.789 85.9C144.549 86.02 144.249 86.08 143.829 86.2C143.349 86.26 142.509 86.32 141.309 86.38C140.109 86.38 138.789 86.38 137.469 86.38C136.029 86.32 134.709 86.26 133.509 86.2C132.189 86.08 131.289 86.02 130.689 85.9C129.249 85.6 127.989 84.94 127.029 83.98C125.949 82.9 125.469 81.46 125.589 79.6C125.649 78.4 125.709 77.38 125.829 76.3C125.829 75.28 125.889 74.5 125.889 73.9C125.889 73.54 125.709 73.24 125.469 72.94C125.169 72.7 124.929 72.46 124.689 72.1C124.449 71.86 124.209 71.5 123.969 71.08C123.609 70.72 123.609 70.3 123.969 69.7C124.269 69.1 124.509 68.74 124.749 68.62C124.929 68.56 125.169 68.62 125.469 68.8C125.589 68.92 125.649 69.04 125.709 69.16C125.709 69.28 125.709 69.4 125.709 69.46C125.709 69.58 125.709 69.7 125.769 69.76C125.769 69.88 125.889 69.88 126.129 69.88C126.489 70 126.849 69.94 127.209 69.76C127.509 69.64 127.929 69.52 128.409 69.46C128.829 69.46 129.249 69.4 129.729 69.34C130.149 69.34 130.509 69.4 130.869 69.4Z" fill="white"/>
<rect x="180.5" y="0.5" width="90" height="120" fill="#F6C500"/>
<rect x="180.5" y="0.5" width="90" height="120" stroke="black"/>
<path d="M231.191 49.66C231.371 50.14 230.951 50.56 229.991 50.8C229.511 50.92 229.151 51.04 228.971 51.16C228.731 51.34 228.491 51.34 228.251 51.16C228.071 51.1 227.951 50.98 227.951 50.8C227.891 50.68 227.891 50.56 227.891 50.44C227.891 50.32 227.891 50.26 227.891 50.14C227.831 50.08 227.771 50.02 227.651 50.02C227.471 50.02 227.351 50.08 227.291 50.2C227.171 50.38 227.111 50.56 227.111 50.68C226.991 50.92 226.931 51.1 226.871 51.22C226.751 51.4 226.631 51.52 226.511 51.52C226.151 51.7 225.611 51.82 224.891 51.94C224.051 52.12 223.451 52.3 223.031 52.48C222.191 52.72 221.591 52.9 221.231 52.96C220.751 53.08 220.331 53.26 219.911 53.56C219.611 53.8 219.491 54.04 219.551 54.28C219.551 54.58 219.551 54.82 219.671 55.06C219.971 55.3 220.271 55.48 220.631 55.6C220.871 55.84 221.231 55.96 221.651 56.08C221.771 56.14 222.071 56.2 222.431 56.32C222.791 56.44 223.151 56.62 223.571 56.74C223.931 56.92 224.351 57.1 224.771 57.22C225.131 57.4 225.431 57.52 225.671 57.64C226.211 58 226.571 58.48 226.691 59.08C226.751 59.8 226.751 60.58 226.691 61.42C226.571 62.38 226.331 63.28 225.911 64.18C225.431 65.14 224.831 65.98 224.171 66.76C223.451 67.6 222.731 68.26 221.951 68.86C221.111 69.52 220.271 70 219.551 70.3C218.231 70.9 216.971 71.26 215.651 71.38C214.331 71.56 213.251 71.62 212.471 71.5C212.111 71.5 211.811 71.26 211.451 70.9C211.091 70.6 210.731 70.18 210.491 69.64C210.131 69.16 209.891 68.62 209.711 68.02C209.471 67.48 209.291 66.88 209.291 66.28C209.231 65.56 209.291 64.72 209.471 63.76C209.591 62.92 209.711 62.26 209.831 61.78C209.891 61.42 210.011 61.06 210.191 60.82C210.311 60.64 210.671 60.46 211.271 60.34C211.811 60.28 212.171 60.16 212.411 59.92C212.591 59.8 212.831 59.38 213.071 58.72C213.191 58.12 213.431 57.58 213.731 57.04C213.971 56.56 214.211 56.14 214.391 55.78C214.571 55.24 214.931 54.82 215.531 54.46C216.071 54.22 216.611 54.04 217.211 54.04C217.691 53.62 218.171 53.2 218.651 52.84C219.071 52.48 219.491 52.12 219.971 51.7C220.271 51.52 220.451 51.28 220.451 51.04C220.451 50.8 220.151 50.74 219.551 50.8C218.591 50.8 217.691 50.98 216.851 51.22C215.951 51.52 215.111 51.76 214.271 52C213.971 52.12 213.791 52.18 213.731 52.18C213.611 52.3 213.491 52.36 213.491 52.36C213.371 52.42 213.371 52.42 213.371 52.42C213.311 52.42 213.251 52.42 213.191 52.3C213.071 52.24 212.951 52.18 212.951 52.06C212.831 52.06 212.771 52 212.711 51.88C212.591 51.82 212.591 51.76 212.591 51.7C212.231 52.12 211.931 52.42 211.691 52.6C211.391 52.84 210.971 53.02 210.491 53.02C210.071 53.14 209.591 53.2 209.111 53.2C208.571 53.26 207.971 53.02 207.371 52.54C207.011 52.3 206.831 52.12 206.711 51.88C206.531 51.76 206.411 51.58 206.351 51.4C206.231 51.28 206.171 51.16 206.111 51.04C205.991 50.92 205.871 50.8 205.631 50.62C205.151 50.38 204.851 50.2 204.731 50.14C204.551 50.14 204.311 50.14 204.011 50.02C203.651 49.96 203.471 49.84 203.411 49.6C203.291 49.48 203.471 49.36 203.951 49.3C204.371 49.3 204.791 49.24 205.151 49.24C205.451 49.3 206.051 49.3 206.891 49.3C207.131 49.3 207.551 49.3 208.211 49.24C208.811 49.24 209.471 49.24 210.311 49.12C211.031 49.12 211.811 49.06 212.651 48.94C213.431 48.88 214.091 48.82 214.691 48.7C215.951 48.52 217.151 48.34 218.231 48.1C219.251 47.98 219.971 47.92 220.391 47.98C220.931 48.1 221.531 48.16 222.251 48.04C222.851 47.98 223.331 47.92 223.691 47.8C223.931 47.68 224.291 47.5 224.771 47.2C225.191 46.96 225.551 46.72 225.791 46.36C225.971 46.06 226.331 45.88 226.931 45.76C227.411 45.76 227.831 45.82 228.191 46C228.431 46.24 228.791 46.48 229.331 46.84C229.811 47.26 230.111 47.68 230.291 48.1C230.351 48.22 230.471 48.46 230.651 48.76C230.771 49.12 230.951 49.42 231.191 49.66ZM228.311 58.78C227.411 58.66 226.931 58.36 226.931 58C226.871 57.7 227.111 57.52 227.711 57.4C227.951 57.4 228.191 57.34 228.431 57.28C228.551 57.28 228.731 57.28 228.971 57.22C229.151 57.22 229.451 57.16 229.811 57.1C230.111 57.1 230.531 57.1 231.131 57.1C231.851 57.1 232.871 56.98 234.311 56.68C235.631 56.44 237.011 56.14 238.331 55.78C238.331 54.82 238.331 53.86 238.331 52.9C238.271 52 238.271 51.16 238.271 50.38C238.271 49.66 238.271 49.06 238.271 48.58C238.271 48.16 238.271 47.92 238.331 47.86C238.451 47.74 238.631 47.62 238.811 47.62C238.931 47.62 238.991 47.5 239.111 47.2C239.111 47.08 239.111 46.9 239.051 46.78C238.931 46.66 238.871 46.54 238.811 46.36C238.691 46.24 238.571 46.06 238.511 45.82C238.391 45.64 238.391 45.4 238.451 45.04C238.511 44.62 238.571 44.14 238.571 43.54C238.511 43.06 238.511 42.52 238.511 41.92C238.451 40.72 238.451 39.82 238.571 39.16C238.571 38.56 238.571 38.02 238.511 37.42C238.451 37 238.451 36.52 238.451 35.98C238.391 35.5 238.151 35.08 237.671 34.66C237.191 34.3 236.771 34.06 236.351 33.88C235.871 33.76 235.511 33.58 235.151 33.34C234.911 33.22 234.791 33.1 234.791 32.86C234.731 32.68 234.791 32.5 234.911 32.26C234.971 32.14 235.151 31.96 235.391 31.84C235.631 31.78 235.931 31.78 236.351 31.9C236.531 32.02 236.891 32.08 237.491 32.2C237.971 32.38 238.571 32.56 239.291 32.68C239.891 32.92 240.551 33.1 241.211 33.22C241.811 33.4 242.291 33.52 242.711 33.58C243.251 33.76 243.671 33.94 244.031 34.06C244.331 34.3 244.391 34.66 244.211 35.26C243.971 35.92 243.791 36.58 243.611 37.3C243.371 38.08 243.251 38.86 243.251 39.7C243.251 40.24 243.191 40.96 243.191 41.92C243.131 42.88 243.131 43.72 243.131 44.44C243.131 44.8 243.071 45.22 243.071 45.76C243.011 46.36 243.011 47.02 243.011 47.62C242.951 48.28 242.951 48.88 242.951 49.42C242.891 50.02 242.891 50.5 242.891 50.8C242.891 51.46 242.891 52 242.951 52.48C242.951 53.02 242.951 53.5 242.951 53.98C242.951 54.52 242.951 55.06 243.011 55.6C243.011 56.2 243.011 56.92 243.011 57.7C243.011 58.3 243.011 58.96 243.071 59.68C243.071 60.46 243.071 61.18 243.071 61.9C243.071 62.68 243.071 63.4 243.071 64.06C243.011 64.78 243.011 65.44 243.011 65.92C242.891 68.08 242.891 69.82 242.891 71.26C242.831 72.76 242.831 73.78 242.831 74.32C242.831 75.28 242.711 76.3 242.591 77.44C242.351 78.58 242.171 79.72 241.931 80.8C241.631 81.88 241.331 82.84 241.091 83.74C240.731 84.58 240.491 85.24 240.251 85.6C240.011 85.96 239.711 86.38 239.471 86.8C239.111 87.16 238.871 87.4 238.631 87.58C238.331 87.7 238.151 87.64 238.031 87.4C237.911 87.1 237.911 86.5 238.091 85.6C238.211 84.7 238.331 83.32 238.451 81.46C238.451 79.54 238.511 77.5 238.571 75.28C238.571 73.12 238.571 70.96 238.571 68.8C238.511 66.7 238.511 64.96 238.511 63.64C238.511 62.86 238.511 62.08 238.511 61.3C238.451 60.58 238.391 59.68 238.391 58.72C238.031 58.96 237.731 59.08 237.491 59.2C237.191 59.32 236.891 59.44 236.591 59.5C236.231 59.62 235.811 59.68 235.331 59.8C234.791 59.98 234.251 60.1 233.771 60.22C233.171 60.34 232.691 60.46 232.211 60.46C231.731 60.58 231.371 60.52 231.131 60.4C230.711 60.16 230.351 59.86 230.051 59.44C229.691 59.08 229.151 58.9 228.311 58.78ZM213.191 64.18C213.191 64.9 213.371 65.5 213.731 66.04C214.091 66.64 214.511 67.06 215.111 67.36C215.591 67.72 216.191 67.9 216.911 67.9C217.571 68.02 218.231 67.9 218.951 67.54C219.911 67.06 220.691 66.16 221.411 64.96C222.071 63.82 222.371 62.5 222.311 61.06C222.251 60.34 222.071 59.8 221.831 59.32C221.471 58.96 221.111 58.66 220.751 58.42C220.271 58.24 219.851 58.12 219.371 58.06C218.831 58.06 218.351 58.12 217.931 58.12C217.211 58.24 216.611 58.36 216.131 58.54C215.591 58.78 215.231 59.02 214.991 59.2C214.211 59.68 213.731 60.28 213.491 61C213.191 61.84 213.071 62.86 213.191 64.18ZM213.191 39.4C213.431 39.64 213.671 39.88 213.911 40C214.091 40.24 214.391 40.3 214.871 40.3C215.351 40.3 215.891 40.24 216.371 40.12C216.851 40.06 217.391 40 217.991 40C218.591 40 219.251 40.06 219.971 40.12C220.691 40.24 221.231 40.3 221.591 40.3C221.951 40.42 222.191 40.72 222.251 41.26C222.251 41.86 222.251 42.28 222.191 42.58C222.011 42.94 221.651 43.24 221.111 43.6C220.511 44.02 219.971 44.32 219.491 44.5C219.251 44.62 218.891 44.62 218.411 44.62C217.871 44.62 217.391 44.62 216.911 44.5C216.371 44.44 215.891 44.32 215.531 44.14C215.051 44.02 214.811 43.84 214.691 43.6C214.271 42.82 213.851 42.1 213.491 41.5C213.071 40.96 212.771 40.54 212.591 40.3C212.291 39.94 212.291 39.64 212.531 39.4C212.771 39.22 212.951 39.22 213.191 39.4Z" fill="white"/>
<rect x="270.5" y="0.5" width="90" height="120" fill="#F6C500"/>
<rect x="270.5" y="0.5" width="90" height="120" stroke="black"/>
<path d="M341.612 60.1C341.612 60.46 341.672 60.88 341.672 61.3C341.672 61.78 341.312 62.08 340.652 62.2C339.992 62.32 339.152 62.32 338.192 62.2C337.172 62.08 336.332 61.96 335.612 61.78C335.312 61.78 334.892 61.72 334.352 61.66C333.752 61.66 333.212 61.66 332.612 61.66C332.012 61.66 331.412 61.66 330.872 61.66C330.272 61.72 329.852 61.72 329.612 61.72H329.492C329.492 62.56 329.492 63.28 329.492 64C329.432 64.72 329.432 65.38 329.432 65.92C329.312 68.08 329.312 69.82 329.312 71.26C329.252 72.76 329.252 73.78 329.252 74.32C329.252 75.28 329.132 76.3 329.012 77.44C328.772 78.58 328.592 79.72 328.352 80.8C328.052 81.88 327.752 82.84 327.512 83.74C327.152 84.58 326.912 85.24 326.672 85.6C326.432 85.96 326.132 86.38 325.892 86.8C325.532 87.16 325.292 87.4 325.052 87.58C324.752 87.7 324.572 87.64 324.452 87.4C324.332 87.1 324.332 86.5 324.512 85.6C324.632 84.7 324.752 83.32 324.872 81.46C324.872 79.54 324.932 77.5 324.992 75.28C324.992 73.12 324.992 70.96 324.992 68.8C324.932 66.7 324.932 64.96 324.932 63.64C324.992 62.62 324.992 61.54 324.932 60.46C324.812 59.38 324.812 58.12 324.812 56.56C324.752 55.6 324.752 54.58 324.752 53.5C324.692 52.48 324.692 51.52 324.692 50.68C324.692 49.9 324.692 49.24 324.692 48.7C324.692 48.22 324.692 47.92 324.752 47.86C324.872 47.74 325.052 47.62 325.232 47.62C325.352 47.62 325.412 47.5 325.532 47.2C325.532 47.08 325.532 46.9 325.472 46.78C325.352 46.66 325.292 46.54 325.232 46.36C325.112 46.24 324.992 46.06 324.932 45.82C324.812 45.64 324.812 45.4 324.872 45.04C324.932 44.62 324.992 44.14 324.992 43.54C324.932 43.06 324.932 42.52 324.932 41.92C324.872 40.72 324.872 39.82 324.992 39.16C324.992 38.56 324.992 38.02 324.932 37.42C324.872 37 324.872 36.52 324.872 35.98C324.812 35.5 324.572 35.08 324.092 34.66C323.612 34.3 323.192 34.06 322.772 33.88C322.292 33.76 321.932 33.58 321.572 33.34C321.332 33.22 321.212 33.1 321.212 32.86C321.152 32.68 321.212 32.5 321.332 32.26C321.392 32.14 321.572 31.96 321.812 31.84C322.052 31.78 322.352 31.78 322.772 31.9C322.952 32.02 323.312 32.08 323.912 32.2C324.392 32.38 324.992 32.56 325.712 32.68C326.312 32.92 326.972 33.1 327.632 33.22C328.232 33.4 328.712 33.52 329.132 33.58C329.672 33.76 330.092 33.94 330.452 34.06C330.752 34.3 330.812 34.66 330.632 35.26C330.392 35.92 330.212 36.58 330.032 37.3C329.792 38.08 329.672 38.86 329.672 39.7C329.672 40.24 329.612 40.96 329.612 41.92C329.552 42.88 329.552 43.72 329.552 44.44C329.552 44.8 329.492 45.22 329.492 45.76C329.432 46.36 329.432 47.02 329.432 47.62C329.372 48.28 329.372 48.88 329.372 49.42C329.312 50.02 329.312 50.5 329.312 50.8C329.312 51.46 329.312 52 329.372 52.48C329.372 53.02 329.372 53.5 329.372 53.98C329.372 54.52 329.372 55.06 329.432 55.6C329.432 56.2 329.432 56.92 329.432 57.7V59.62L330.932 59.44C331.412 59.38 331.772 59.32 332.132 59.2C332.372 59.2 332.612 59.14 332.852 59.02C333.032 59.02 333.212 58.96 333.452 58.84C333.572 58.84 333.812 58.72 334.052 58.6C334.592 58.42 335.072 58.24 335.552 58.12C335.912 58 336.392 58.06 336.932 58.24C337.412 58.48 337.892 58.48 338.492 58.36C338.972 58.3 339.392 58.3 339.692 58.3C340.112 58.36 340.532 58.54 340.952 58.84C341.312 59.2 341.552 59.62 341.612 60.1ZM313.052 68.86C313.052 68.74 313.112 68.38 313.232 67.9C313.292 67.48 313.412 66.94 313.592 66.34L309.512 67.9C308.912 68.14 308.252 68.38 307.532 68.68C306.752 69.04 306.032 69.4 305.312 69.7C304.532 70.06 303.812 70.36 303.212 70.6C302.552 70.96 302.072 71.2 301.712 71.32C300.992 71.62 300.332 71.8 299.612 71.92C298.832 72.04 298.232 72.1 297.812 72.1C296.732 72.1 296.132 71.62 295.892 70.78C295.592 69.94 295.412 68.92 295.412 67.6C295.412 66.58 295.532 65.44 295.772 64.24C295.952 63.1 296.432 61.9 297.212 60.7C298.232 59.26 299.252 57.82 300.212 56.38C301.172 55 302.132 53.62 303.212 52.18C303.512 51.82 303.632 51.58 303.512 51.34C303.332 51.22 303.032 51.22 302.612 51.46C302.132 51.76 301.532 52.06 300.932 52.42C300.272 52.78 299.552 52.96 298.712 52.9C297.992 52.9 297.392 52.66 296.912 52.24C296.372 51.88 295.952 51.4 295.712 50.8C295.472 50.26 295.412 49.72 295.532 49.12C295.592 48.64 295.772 48.46 296.012 48.7C296.252 48.94 296.792 49.06 297.632 49.18C298.352 49.3 299.132 49.36 299.912 49.3C300.152 49.3 300.572 49.24 301.292 49.06C301.892 48.94 302.612 48.76 303.452 48.52C304.172 48.34 304.952 48.16 305.672 47.92C306.332 47.8 306.812 47.68 307.112 47.62C307.712 47.56 308.132 47.44 308.432 47.26C308.672 47.14 308.972 46.9 309.332 46.42C309.692 46.06 310.112 45.7 310.652 45.4C311.132 45.16 311.612 45.04 312.212 45.1C312.752 45.28 313.352 45.4 313.952 45.52C314.552 45.64 314.972 45.82 315.332 45.94C315.692 46.06 315.932 46.3 316.052 46.54C316.172 46.9 316.172 47.2 316.112 47.5C315.992 47.86 315.752 48.1 315.272 48.28C314.732 48.52 314.192 48.64 313.712 48.7C312.452 48.94 311.252 49.3 310.112 49.9C308.912 50.5 307.592 51.4 306.212 52.6C305.912 52.84 305.612 53.2 305.312 53.68C304.952 54.22 304.592 54.76 304.232 55.36C303.812 55.96 303.452 56.62 303.092 57.22C302.672 57.88 302.312 58.42 302.012 58.9C301.772 59.26 301.532 59.62 301.292 60.1C301.052 60.58 300.812 61.12 300.632 61.6C300.392 62.14 300.152 62.68 300.032 63.16C299.852 63.76 299.732 64.24 299.732 64.6C299.612 65.2 299.672 65.8 299.792 66.28C299.852 66.88 300.212 67.12 300.932 67.12C301.532 66.94 302.132 66.76 302.852 66.64C303.452 66.58 303.992 66.46 304.412 66.22C304.592 66.16 304.772 66.1 304.952 66.04C305.072 66.04 305.192 66.16 305.432 66.52C305.552 66.82 305.732 66.94 305.912 66.94C306.032 67 306.212 66.94 306.332 66.82C306.452 66.76 306.512 66.64 306.632 66.46C306.632 66.34 306.692 66.16 306.692 66.04C306.692 65.92 306.632 65.86 306.632 65.74C306.512 65.68 306.512 65.56 306.572 65.44C306.572 65.38 306.692 65.32 306.932 65.2C307.052 65.14 307.412 65.08 307.892 64.96C308.852 64.78 309.632 64.6 310.292 64.36C310.892 64.18 311.252 64.06 311.432 63.94C311.492 63.94 311.492 64.06 311.492 64.18C311.432 64.36 311.372 64.54 311.372 64.66C311.312 64.84 311.312 64.96 311.372 65.02C311.372 65.14 311.552 65.08 311.912 64.84C312.152 64.72 312.392 64.54 312.512 64.36C312.572 64.24 312.632 64.18 312.692 64.06C312.692 64 312.692 63.94 312.752 63.82C312.752 63.82 312.872 63.76 313.112 63.64L314.372 63.28C314.492 62.92 314.612 62.62 314.732 62.32C314.792 62.08 314.852 61.9 314.972 61.78C315.092 61.6 315.332 61.36 315.692 61.12C315.932 60.94 316.292 60.76 316.652 60.58C317.012 60.46 317.372 60.34 317.732 60.22C318.092 60.22 318.392 60.22 318.752 60.34C319.412 60.58 319.952 61.06 320.372 61.72C320.732 62.44 320.972 63.16 321.032 63.76C321.092 64.42 321.032 64.84 320.912 64.96C320.732 65.14 320.372 65.38 319.892 65.74C319.412 66.1 318.992 66.46 318.632 66.82C318.152 67.18 317.852 67.48 317.612 67.72C317.252 68.14 316.652 68.32 315.932 68.32C315.452 68.38 315.152 68.44 315.032 68.56C314.792 68.74 314.612 68.92 314.372 69.16C314.192 69.46 313.892 69.58 313.532 69.52C313.112 69.52 312.932 69.34 313.052 68.86Z" fill="white"/>
</svg>
