<svg width="91" height="121" viewBox="0 0 91 121" fill="none" xmlns="http://www.w3.org/2000/svg">
<rect x="0.5" y="0.5" width="90" height="120" fill="#90C85F"/>
<rect x="0.5" y="0.5" width="90" height="120" stroke="black"/>
<path d="M70.0334 78.34C68.8934 78.34 67.9334 77.44 67.9334 76.24V60.4H63.1334V75.28C63.1334 76.48 62.2334 77.38 61.0934 77.38C59.9534 77.38 59.0534 76.48 59.0534 75.28V41.74C59.0534 40.66 59.9534 39.7 61.0934 39.7C62.2334 39.7 63.1334 40.66 63.1334 41.74V56.44H67.9334V40.96C67.9334 39.82 68.8934 38.86 70.0334 38.86C71.1734 38.86 72.0734 39.82 72.0734 40.96V76.24C72.0734 77.44 71.1734 78.34 70.0334 78.34ZM19.6934 77.2C17.0534 77.2 17.0534 73.24 19.6934 73.24H26.6534C28.9334 73.24 31.0334 73.24 33.0734 73.18V70.9C33.0734 69.7 34.0334 68.8 35.1734 68.8C36.3134 68.8 37.2734 69.7 37.2734 70.9V73.06C44.8934 72.7 50.3534 72.1 53.8934 71.44C56.7134 70.96 57.3134 74.74 54.6734 75.28C49.8134 76.24 39.8534 77.2 26.6534 77.2H19.6934ZM35.2934 66.64C25.1534 66.64 16.8734 61.18 16.8734 52.66C16.8734 44.2 25.1534 38.74 35.2934 38.74C45.4334 38.74 53.7734 44.2 53.7734 52.66C53.7734 61.18 45.4334 66.64 35.2934 66.64ZM35.2934 62.68C43.8134 62.68 49.5734 58.3 49.5734 52.66C49.5734 47.08 43.8134 42.7 35.2934 42.7C26.7734 42.7 21.0734 47.08 21.0734 52.66C21.0734 58.3 26.7734 62.68 35.2934 62.68Z" fill="white"/>
</svg>
