<svg width="361" height="151" viewBox="0 0 361 151" fill="none" xmlns="http://www.w3.org/2000/svg">
<rect x="0.5" y="0.5" width="90" height="120" fill="#90C85F"/>
<rect x="0.5" y="0.5" width="90" height="120" stroke="black"/>
<path d="M67.8134 78.34C66.6734 78.34 65.7134 77.44 65.7134 76.24V40.96C65.7134 39.82 66.6734 38.86 67.8134 38.86C68.9534 38.86 69.9134 39.82 69.9134 40.96V55.48H73.4534C74.5934 55.48 75.4934 56.38 75.4934 57.52C75.4934 58.66 74.5934 59.56 73.4534 59.56H69.9134V76.24C69.9134 77.44 68.9534 78.34 67.8134 78.34ZM21.6134 76.78C20.2934 77.02 19.4534 76.24 19.2134 75.28C18.9734 74.32 19.5134 73.12 20.8934 72.88C34.1534 70.3 47.4734 60.82 50.2934 47.02C50.7134 44.86 50.5334 44.5 48.8534 44.5H22.4534C21.3734 44.5 20.4734 43.6 20.4734 42.52C20.4734 41.44 21.3734 40.54 22.4534 40.54H49.6934C54.2534 40.54 55.4534 42.94 54.2534 48.1C50.6534 64.06 35.9534 74.14 21.6134 76.78Z" fill="white"/>
<rect x="90.5" y="30.5" width="90" height="120" fill="#90C85F"/>
<rect x="90.5" y="30.5" width="90" height="120" stroke="black"/>
<path d="M118.573 107.74C113.653 107.74 111.613 106.48 111.613 102.7V98.86C111.613 97.42 112.693 96.7 113.773 96.7C114.853 96.7 115.933 97.42 115.933 98.86V101.68C115.933 103.54 116.353 103.78 119.593 103.78H159.493C160.573 103.78 161.473 104.62 161.473 105.76C161.473 106.9 160.573 107.74 159.493 107.74H118.573ZM110.233 93.94C109.093 93.94 108.253 93.1 108.253 91.96C108.253 90.88 109.093 90.04 110.233 90.04H133.393V85H116.713C112.273 85 111.013 84.04 111.013 79.78V71.62C111.013 70.48 111.973 69.52 113.113 69.52C114.253 69.52 115.213 70.48 115.213 71.62V73.96H155.773V71.62C155.773 70.48 156.733 69.52 157.873 69.52C159.013 69.52 159.973 70.48 159.973 71.62V79.78C159.973 84.04 158.713 85 154.273 85H137.593V90.04H160.813C161.893 90.04 162.733 90.88 162.733 91.96C162.733 93.1 161.893 93.94 160.813 93.94H110.233ZM115.213 79.24C115.213 80.8 115.513 81.04 117.373 81.04H153.613C155.473 81.04 155.773 80.8 155.773 79.24V77.86H115.213V79.24Z" fill="white"/>
<rect x="180.5" y="30.5" width="90" height="120" fill="#90C85F"/>
<rect x="180.5" y="30.5" width="90" height="120" stroke="black"/>
<path d="M248.353 89.14C247.213 89.14 246.253 88.24 246.253 87.04V80.44H242.533C241.393 80.44 240.553 79.6 240.553 78.52C240.553 77.44 241.393 76.54 242.533 76.54H246.253V70.96C246.253 69.82 247.213 68.86 248.353 68.86C249.493 68.86 250.453 69.82 250.453 70.96V87.04C250.453 88.24 249.493 89.14 248.353 89.14ZM248.353 108.34C247.213 108.34 246.253 107.38 246.253 106.24V98.8C246.253 96.82 245.893 96.52 243.373 96.52H202.873C201.733 96.52 200.893 95.62 200.893 94.54C200.893 93.46 201.733 92.56 202.873 92.56H243.253C248.833 92.56 250.513 93.58 250.453 97.96V106.24C250.453 107.38 249.493 108.34 248.353 108.34ZM199.153 87.76C197.893 87.94 197.053 87.04 196.933 86.08C196.873 85.06 197.413 83.98 198.853 83.86C204.673 83.14 216.013 79 216.013 74.02V73.96H200.533C199.213 73.96 198.493 73 198.493 72.04C198.493 71.02 199.213 70.06 200.533 70.06H235.153C236.533 70.06 237.193 71.02 237.193 72.04C237.193 73 236.533 73.96 235.153 73.96H220.093V74.02C220.093 79.06 232.033 83.32 236.713 83.86C238.093 83.98 238.693 85.06 238.573 86.02C238.453 87.04 237.613 87.94 236.233 87.76C230.653 86.98 221.953 83.92 218.053 79C214.093 83.92 205.333 86.92 199.153 87.76Z" fill="white"/>
<rect x="270.5" y="0.5" width="90" height="120" fill="#90C85F"/>
<rect x="270.5" y="0.5" width="90" height="120" stroke="black"/>
<path d="M338.413 78.34C337.273 78.34 336.313 77.44 336.313 76.24V40.96C336.313 39.82 337.273 38.86 338.413 38.86C339.553 38.86 340.513 39.82 340.513 40.96V76.24C340.513 77.44 339.553 78.34 338.413 78.34ZM307.873 78.22C297.253 78.22 288.193 70.12 288.193 58.6C288.193 47.08 297.253 38.98 307.873 38.98C318.493 38.98 327.553 47.08 327.553 58.6C327.553 70.12 318.493 78.22 307.873 78.22ZM307.873 74.26C316.393 74.26 323.353 67.72 323.353 58.6C323.353 49.48 316.393 42.94 307.873 42.94C299.353 42.94 292.393 49.48 292.393 58.6C292.393 67.72 299.353 74.26 307.873 74.26Z" fill="white"/>
</svg>
