<svg width="181" height="151" viewBox="0 0 181 151" fill="none" xmlns="http://www.w3.org/2000/svg">
<rect x="90.5" y="30.5" width="90" height="120" fill="#90C85F"/>
<rect x="90.5" y="30.5" width="90" height="120" stroke="black"/>
<path d="M110.233 99.34C109.093 99.34 108.253 98.5 108.253 97.36C108.253 96.22 109.093 95.38 110.233 95.38H160.753C161.893 95.38 162.733 96.22 162.733 97.36C162.733 98.5 161.893 99.34 160.753 99.34H151.993V107.5C151.993 108.7 151.033 109.6 149.893 109.6C148.753 109.6 147.793 108.7 147.793 107.5V99.34H123.193V107.5C123.193 108.7 122.233 109.6 121.093 109.6C119.953 109.6 118.993 108.7 118.993 107.5V99.34H110.233ZM110.293 85.12C118.693 82.78 127.813 77.44 133.273 70.18C133.873 69.4 134.473 68.86 135.493 68.86C136.513 68.86 137.113 69.4 137.713 70.18C143.173 77.5 152.293 82.78 160.693 85.12C163.273 85.84 162.313 89.86 159.493 89.08C150.853 86.68 141.253 80.92 135.493 73.78C129.733 80.92 120.133 86.68 111.493 89.08C108.613 89.86 107.713 85.84 110.293 85.12Z" fill="white"/>
<rect x="0.5" y="0.5" width="90" height="120" fill="#90C85F"/>
<rect x="0.5" y="0.5" width="90" height="120" stroke="black"/>
<path d="M68.3534 60.34C67.2134 60.34 66.2534 59.44 66.2534 58.24V51.04H62.5934C61.4534 51.04 60.5534 50.14 60.5534 49C60.5534 47.86 61.4534 46.96 62.5934 46.96H66.2534V40.96C66.2534 39.82 67.2134 38.86 68.3534 38.86C69.4934 38.86 70.4534 39.82 70.4534 40.96V58.24C70.4534 59.44 69.4934 60.34 68.3534 60.34ZM49.2134 78.1C46.6334 79.66 44.6534 76.12 47.0534 74.68C51.0734 72.28 54.6134 68.62 57.4334 63.58C57.9734 62.62 58.9334 62.08 59.8334 62.08C60.7334 62.08 61.6934 62.56 62.2334 63.58C64.9934 68.62 68.5334 72.34 72.5534 74.74C74.9534 76.18 72.9734 79.78 70.3934 78.16C66.3734 75.64 62.2934 71.56 59.8334 67.24C57.3134 71.56 53.2334 75.64 49.2134 78.1ZM26.0534 78.34C22.0934 78.34 20.6534 77.32 20.6534 72.94V63.64C20.6534 62.5 21.4934 61.6 22.6334 61.6C23.7734 61.6 24.6734 62.5 24.6734 63.64V65.98H40.2134V63.64C40.2134 62.5 41.1134 61.6 42.2534 61.6C43.3934 61.6 44.2934 62.5 44.2934 63.64V72.94C44.2934 77.32 42.8534 78.34 38.8934 78.34H26.0534ZM37.0934 58.78C27.0134 58.78 18.0134 55.42 18.0134 48.82C18.0134 42.22 27.0134 38.86 37.0934 38.86C47.1734 38.86 56.1734 42.22 56.1734 48.82C56.1734 55.42 47.1734 58.78 37.0934 58.78ZM37.0934 54.94C46.2734 54.94 51.9734 52.12 51.9734 48.82C51.9734 45.52 46.2734 42.7 37.0934 42.7C27.9134 42.7 22.2134 45.52 22.2134 48.82C22.2134 52.12 27.9134 54.94 37.0934 54.94ZM24.6734 72.34C24.6734 74.02 24.9734 74.44 26.8334 74.44H38.0534C39.9134 74.44 40.2134 74.02 40.2134 72.34V69.82H24.6734V72.34Z" fill="white"/>
</svg>
