<svg width="181" height="151" viewBox="0 0 181 151" fill="none" xmlns="http://www.w3.org/2000/svg">
<rect x="0.5" y="0.5" width="90" height="120" fill="#90C85F"/>
<rect x="0.5" y="0.5" width="90" height="120" stroke="black"/>
<path d="M68.4134 78.34C67.2734 78.34 66.3134 77.44 66.3134 76.24V60.82H62.6534C61.5134 60.82 60.6134 59.98 60.6134 58.84C60.6134 57.7 61.5134 56.8 62.6534 56.8H66.3134V40.96C66.3134 39.82 67.2734 38.86 68.4134 38.86C69.5534 38.86 70.5134 39.82 70.5134 40.96V76.24C70.5134 77.44 69.5534 78.34 68.4134 78.34ZM19.7534 76.36C18.4934 77.02 17.4734 76.42 17.0534 75.58C16.6334 74.68 16.8134 73.54 17.8934 73C25.8734 68.98 36.1934 58.18 36.2534 46.66H20.4734C19.3934 46.66 18.5534 45.82 18.5534 44.74C18.5534 43.66 19.3934 42.82 20.4734 42.82H36.1334V40.78C36.0734 39.4 37.1534 38.62 38.2934 38.62C39.3734 38.62 40.4534 39.4 40.4534 40.78L40.3934 42.82H56.0534C57.1334 42.82 57.9734 43.66 57.9734 44.74C57.9734 45.82 57.1334 46.66 56.0534 46.66H40.3334C40.3934 58.18 50.4734 68.74 58.7534 73.06C59.7734 73.6 59.9534 74.74 59.4734 75.58C59.0534 76.48 58.0334 76.96 56.7134 76.3C49.6934 72.58 41.8334 64.84 38.2934 55.66C34.7534 64.96 26.7134 72.82 19.7534 76.36Z" fill="white"/>
<rect x="90.5" y="30.5" width="90" height="120" fill="#90C85F"/>
<rect x="90.5" y="30.5" width="90" height="120" stroke="black"/>
<path d="M116.773 108.16C112.153 108.16 110.713 107.2 110.713 103.12V98.98C110.713 94.9 112.153 93.94 116.773 93.94H154.213C158.893 93.94 160.273 94.9 160.273 98.98V103.12C160.273 107.2 158.893 108.16 154.213 108.16H116.773ZM114.853 102.34C114.853 104.08 115.213 104.32 117.373 104.32H153.613C155.773 104.32 156.133 104.08 156.133 102.34V99.76C156.133 98.02 155.773 97.78 153.613 97.78H117.373C115.213 97.78 114.853 98.02 114.853 99.76V102.34ZM110.173 90.58C109.093 90.58 108.253 89.74 108.253 88.66C108.253 87.58 109.093 86.74 110.173 86.74H160.813C161.893 86.74 162.733 87.58 162.733 88.66C162.733 89.74 161.893 90.58 160.813 90.58H110.173ZM135.253 84.22C118.993 84.22 109.333 82.12 109.333 76.78C109.333 71.44 118.993 69.34 135.253 69.34C151.513 69.34 161.173 71.44 161.173 76.78C161.173 82.12 151.513 84.22 135.253 84.22ZM135.253 80.56C148.933 80.56 156.913 78.76 156.913 76.78C156.913 74.68 148.633 73 135.253 73C121.573 73 113.593 74.8 113.593 76.78C113.593 78.76 121.573 80.56 135.253 80.56Z" fill="white"/>
</svg>
