<svg width="271" height="181" viewBox="0 0 271 181" fill="none" xmlns="http://www.w3.org/2000/svg">
<rect x="0.5" y="0.5" width="90" height="120" fill="#90C85F"/>
<rect x="0.5" y="0.5" width="90" height="120" stroke="black"/>
<path d="M67.8734 63.04C66.7334 63.04 65.7734 62.14 65.7734 60.94V40.96C65.7734 39.82 66.7334 38.86 67.8734 38.86C69.0134 38.86 69.9134 39.82 69.9134 40.96V48.52H73.4534C74.5934 48.52 75.4934 49.42 75.4934 50.56C75.4934 51.7 74.5934 52.6 73.4534 52.6H69.9134V60.94C69.9134 62.14 69.0134 63.04 67.8734 63.04ZM20.2934 74.56C24.6734 72.46 28.6334 69.22 31.3934 65.14C31.9934 64.3 32.7734 63.82 33.6734 63.82C34.5734 63.82 35.3534 64.3 35.9534 65.14C38.5934 69.22 42.0134 72.16 46.1534 74.26C50.2934 72.16 53.7134 69.22 56.3534 65.14C56.9534 64.3 57.7334 63.82 58.6334 63.82C59.5334 63.82 60.3134 64.3 60.9134 65.14C63.6734 69.22 67.6934 72.52 72.0734 74.68C74.5334 75.82 72.7934 79.36 70.3334 78.16C65.7734 76.06 61.3334 72.34 58.6334 68.68C55.8134 72.46 51.7334 75.88 47.3534 78.04C46.5134 78.46 45.7934 78.46 44.9534 78.04C40.5734 75.88 36.4934 72.4 33.6734 68.56C30.9734 72.22 26.4734 75.94 21.9134 78.1C19.4534 79.24 17.8334 75.7 20.2934 74.56ZM19.6934 61.12C17.1734 61.12 17.1734 57.34 19.6934 57.34H26.8334L35.2334 57.28V53.5H26.2334C21.9134 53.5 20.6534 52.72 20.6534 48.88V41.56C20.6534 40.42 21.5534 39.52 22.6934 39.52C23.8334 39.52 24.7334 40.42 24.7334 41.56V43.12H50.3534V41.56C50.3534 40.42 51.2534 39.52 52.3934 39.52C53.5334 39.52 54.4334 40.42 54.4334 41.56V48.88C54.4334 52.72 53.1734 53.5 48.8534 53.5H39.3734V57.28C50.2334 57.1 56.0534 56.74 60.6734 56.26C63.3134 56.02 63.6734 59.8 61.0334 60.04C55.3934 60.58 45.7934 61.12 26.2934 61.12H19.6934ZM24.7334 48.1C24.7334 49.48 24.9734 49.72 26.7734 49.72H48.3134C50.1134 49.72 50.3534 49.48 50.3534 48.1V46.84H24.7334V48.1Z" fill="white"/>
<rect x="90.5" y="30.5" width="90" height="120" fill="#90C85F"/>
<rect x="90.5" y="30.5" width="90" height="120" stroke="black"/>
<path d="M110.113 88.9C109.033 88.9 108.253 88.12 108.253 87.04C108.253 86.02 109.033 85.24 110.113 85.24H160.933C161.953 85.24 162.733 86.02 162.733 87.04C162.733 88.12 161.953 88.9 160.933 88.9H110.113ZM115.393 108.34C111.913 108.34 109.873 106.36 109.873 103.3C109.873 100.24 111.913 98.38 115.393 98.38H155.533C156.373 98.38 156.853 97.78 156.853 97C156.853 96.22 156.373 95.68 155.533 95.68H111.553C109.033 95.68 109.033 92.08 111.553 92.08H155.533C159.013 92.08 161.053 94.06 161.053 97.06C161.053 100.12 159.013 101.92 155.533 101.92H115.393C114.493 101.92 114.013 102.46 114.013 103.3C114.013 104.14 114.493 104.68 115.393 104.68H160.273C162.853 104.68 162.793 108.34 160.273 108.34H115.393ZM135.253 83.02C119.233 83.02 109.333 81.4 109.333 76.18C109.333 70.96 119.233 69.34 135.253 69.34C151.273 69.34 161.173 70.96 161.173 76.18C161.173 81.4 151.273 83.02 135.253 83.02ZM135.253 79.42C148.933 79.42 156.913 78.04 156.913 76.18C156.913 74.14 148.453 72.94 135.253 72.94C121.573 72.94 113.593 74.32 113.593 76.18C113.593 78.04 121.573 79.42 135.253 79.42Z" fill="white"/>
<rect x="180.5" y="60.5" width="90" height="120" fill="#90C85F"/>
<rect x="180.5" y="60.5" width="90" height="120" stroke="black"/>
<path d="M249.973 138.34C248.833 138.34 247.873 137.44 247.873 136.24V120.34H243.133V134.98C243.133 136.18 242.233 137.08 241.093 137.08C239.953 137.08 238.993 136.18 238.993 134.98V101.8C238.993 100.66 239.953 99.7 241.093 99.7C242.233 99.7 243.133 100.66 243.133 101.8V116.32H247.873V100.96C247.873 99.82 248.833 98.86 249.973 98.86C251.113 98.86 252.073 99.82 252.073 100.96V136.24C252.073 137.44 251.113 138.34 249.973 138.34ZM222.553 136.3C218.773 136.36 217.093 135.1 217.093 130.9V106.18C217.093 101.62 218.413 100.54 222.913 100.54H230.473C231.553 100.54 232.453 101.44 232.453 102.52C232.453 103.6 231.553 104.44 230.473 104.44H223.993C221.593 104.44 221.233 104.8 221.233 107.02V128.92C221.233 132.16 221.533 132.46 224.413 132.34C227.533 132.22 230.473 131.92 233.473 131.08C236.233 130.3 237.253 134.08 234.553 134.86C231.013 135.82 226.873 136.3 223.393 136.3H222.553ZM204.313 136.3C199.873 136.3 197.893 134.86 197.893 129.82V106.18C197.893 101.62 199.213 100.54 203.713 100.54H211.213C212.293 100.54 213.193 101.44 213.193 102.52C213.193 103.54 212.293 104.44 211.213 104.44H204.793C202.393 104.44 202.033 104.8 202.033 107.02V128.32C202.033 132.1 202.333 132.4 205.453 132.4H212.533C213.853 132.4 214.513 133.42 214.513 134.38C214.513 135.4 213.793 136.3 212.533 136.3H204.313Z" fill="white"/>
</svg>
