<svg width="271" height="151" viewBox="0 0 271 151" fill="none" xmlns="http://www.w3.org/2000/svg">
<rect x="0.5" y="30.5" width="90" height="120" fill="#90C85F"/>
<rect x="0.5" y="30.5" width="90" height="120" stroke="black"/>
<path d="M20.1734 90.82C19.0934 90.82 18.2534 89.98 18.2534 88.9C18.2534 87.82 19.0934 86.98 20.1734 86.98H70.8134C71.8934 86.98 72.7334 87.82 72.7334 88.9C72.7334 89.98 71.8934 90.82 70.8134 90.82H47.5934V94.66H64.1534C69.1334 94.66 70.6334 95.74 70.6334 99.76V106.24C70.6334 107.38 69.6734 108.34 68.5334 108.34C67.3934 108.34 66.4334 107.38 66.4334 106.24V100.36C66.4334 98.68 66.1334 98.44 64.0334 98.44H22.1534C21.0134 98.44 20.2334 97.66 20.2334 96.58C20.2334 95.5 21.0134 94.66 22.1534 94.66H43.3934V90.82H20.1734ZM20.7734 83.8C18.1334 83.86 18.0734 79.96 20.6534 79.96C30.6734 79.84 42.6734 77.08 43.5134 73.84H22.3934C21.3734 73.84 20.5334 73 20.5334 71.92C20.5334 70.9 21.3734 70.06 22.3934 70.06H68.5934C69.6134 70.06 70.4534 70.9 70.4534 71.92C70.4534 73 69.6134 73.84 68.5934 73.84H47.4734C48.3134 77.08 60.3134 79.84 70.3334 79.96C72.9134 79.96 72.8534 83.86 70.2134 83.8C61.3934 83.56 50.1734 81.88 45.4934 77.62C40.8134 81.88 29.5934 83.56 20.7734 83.8Z" fill="white"/>
<rect x="90.5" y="0.5" width="90" height="120" fill="#90C85F"/>
<rect x="90.5" y="0.5" width="90" height="120" stroke="black"/>
<path d="M158.413 78.34C157.273 78.34 156.313 77.44 156.313 76.24V40.96C156.313 39.82 157.273 38.86 158.413 38.86C159.553 38.86 160.513 39.82 160.513 40.96V76.24C160.513 77.44 159.553 78.34 158.413 78.34ZM127.873 78.22C117.253 78.22 108.193 70.12 108.193 58.6C108.193 47.08 117.253 38.98 127.873 38.98C138.493 38.98 147.553 47.08 147.553 58.6C147.553 70.12 138.493 78.22 127.873 78.22ZM127.873 74.26C136.393 74.26 143.353 67.72 143.353 58.6C143.353 49.48 136.393 42.94 127.873 42.94C119.353 42.94 112.393 49.48 112.393 58.6C112.393 67.72 119.353 74.26 127.873 74.26Z" fill="white"/>
<rect x="180.5" y="0.5" width="90" height="120" fill="#90C85F"/>
<rect x="180.5" y="0.5" width="90" height="120" stroke="black"/>
<path d="M199.873 76.24C198.613 76.72 197.593 76.12 197.233 75.22C196.873 74.26 197.113 73.12 198.313 72.58C207.973 68.44 216.733 57.1 216.733 44.56V44.5H200.773C199.633 44.5 198.793 43.6 198.793 42.52C198.793 41.44 199.633 40.54 200.773 40.54H236.893C238.033 40.54 238.873 41.44 238.873 42.52C238.873 43.6 238.033 44.5 236.893 44.5H220.933V44.56C220.933 56.86 229.153 67.84 239.353 72.58C240.613 73.12 240.853 74.32 240.433 75.22C240.073 76.12 239.053 76.72 237.793 76.24C229.993 73 221.773 64.3 218.833 55.18C215.893 64.42 207.553 73.18 199.873 76.24ZM248.413 78.34C247.273 78.34 246.313 77.44 246.313 76.24V40.96C246.313 39.82 247.273 38.86 248.413 38.86C249.553 38.86 250.513 39.82 250.513 40.96V76.24C250.513 77.44 249.553 78.34 248.413 78.34Z" fill="white"/>
</svg>
