<svg width="451" height="181" viewBox="0 0 451 181" fill="none" xmlns="http://www.w3.org/2000/svg">
<rect x="0.5" y="0.5" width="90" height="120" fill="#90C85F"/>
<rect x="0.5" y="0.5" width="90" height="120" stroke="black"/>
<path d="M27.4934 77.86C23.1734 77.86 20.9534 76.48 20.9534 72.58V63.58C20.9534 62.14 21.9734 61.48 23.0534 61.48C24.1334 61.48 25.1534 62.14 25.1534 63.58V71.68C25.1534 73.66 25.4534 73.84 28.2734 73.84H39.4334C40.5134 73.84 41.4134 74.74 41.4134 75.88C41.4134 77.02 40.5134 77.86 39.4334 77.86H27.4934ZM57.3734 79.48C48.3134 79.48 43.5734 77.26 43.5734 73.66C43.5734 70.06 48.3134 67.84 57.3734 67.84C66.4334 67.84 71.1734 70.06 71.1734 73.66C71.1734 77.26 66.4334 79.48 57.3734 79.48ZM57.3734 75.76C63.2534 75.76 66.9734 74.8 66.9734 73.66C66.9734 72.52 63.2534 71.5 57.3734 71.5C51.4934 71.5 47.7734 72.52 47.7734 73.66C47.7734 74.8 51.4934 75.76 57.3734 75.76ZM45.6134 65.8C44.5334 65.8 43.6934 65.02 43.6934 63.94C43.6934 62.86 44.5334 62.08 45.6134 62.08H55.2734V60.64C55.2734 57.88 59.4734 57.88 59.4734 60.64V62.08H69.1934C70.2734 62.08 71.0534 62.86 71.0534 63.94C71.0534 65.02 70.2734 65.8 69.1934 65.8H45.6134ZM67.8134 57.58C66.6734 57.58 65.7134 56.68 65.7134 55.48V40.96C65.7134 39.82 66.6734 38.86 67.8134 38.86C68.9534 38.86 69.9134 39.82 69.9134 40.96V46.96H73.4534C74.5934 46.96 75.4934 47.86 75.4934 49C75.4934 50.14 74.5934 51.04 73.4534 51.04H69.9134V55.48C69.9134 56.68 68.9534 57.58 67.8134 57.58ZM37.1534 58.24C27.1334 58.24 18.0734 55 18.0734 48.52C18.0734 42.1 27.1334 38.86 37.1534 38.86C47.1734 38.86 56.2334 42.1 56.2334 48.52C56.2334 55 47.1734 58.24 37.1534 58.24ZM37.1534 54.46C46.3334 54.46 52.0334 51.7 52.0334 48.52C52.0334 45.4 46.3334 42.64 37.1534 42.64C27.9734 42.64 22.2734 45.4 22.2734 48.52C22.2734 51.7 27.9734 54.46 37.1534 54.46Z" fill="white"/>
<rect x="90.5" y="0.5" width="90" height="120" fill="#90C85F"/>
<rect x="90.5" y="0.5" width="90" height="120" stroke="black"/>
<path d="M110.173 74.56C114.733 71.86 118.693 67.9 121.393 63.22C121.933 62.32 122.773 61.78 123.673 61.78C124.573 61.78 125.413 62.32 125.953 63.22C128.713 68.08 131.953 71.38 136.153 74.08C140.353 71.38 143.593 68.08 146.353 63.22C146.893 62.32 147.733 61.78 148.633 61.78C149.533 61.78 150.373 62.32 150.913 63.22C153.613 67.9 157.573 71.86 162.133 74.56C164.593 76 162.493 79.48 160.033 77.98C155.593 75.28 151.213 71.08 148.633 67C146.113 71.02 141.853 75.34 137.353 78.04C136.573 78.52 135.733 78.52 134.953 78.04C130.453 75.34 126.193 71.02 123.673 67C121.093 71.08 116.713 75.28 112.273 77.98C109.813 79.48 107.713 76 110.173 74.56ZM157.813 60.34C156.673 60.34 155.713 59.44 155.713 58.24V40.96C155.713 39.82 156.673 38.86 157.813 38.86C158.953 38.86 159.913 39.82 159.913 40.96V46.96H163.453C164.593 46.96 165.493 47.86 165.493 49C165.493 50.14 164.593 51.04 163.453 51.04H159.913V58.24C159.913 59.44 158.953 60.34 157.813 60.34ZM127.153 58.78C117.073 58.78 108.073 55.42 108.073 48.82C108.073 42.22 117.073 38.86 127.153 38.86C137.233 38.86 146.233 42.22 146.233 48.82C146.233 55.42 137.233 58.78 127.153 58.78ZM127.153 54.94C136.333 54.94 142.033 52.12 142.033 48.82C142.033 45.52 136.333 42.7 127.153 42.7C117.973 42.7 112.273 45.52 112.273 48.82C112.273 52.12 117.973 54.94 127.153 54.94Z" fill="white"/>
<rect x="180.5" y="30.5" width="90" height="120" fill="#90C85F"/>
<rect x="180.5" y="30.5" width="90" height="120" stroke="black"/>
<path d="M200.113 88.9C199.033 88.9 198.253 88.12 198.253 87.04C198.253 86.02 199.033 85.24 200.113 85.24H250.933C251.953 85.24 252.733 86.02 252.733 87.04C252.733 88.12 251.953 88.9 250.933 88.9H200.113ZM205.393 108.34C201.913 108.34 199.873 106.36 199.873 103.3C199.873 100.24 201.913 98.38 205.393 98.38H245.533C246.373 98.38 246.853 97.78 246.853 97C246.853 96.22 246.373 95.68 245.533 95.68H201.553C199.033 95.68 199.033 92.08 201.553 92.08H245.533C249.013 92.08 251.053 94.06 251.053 97.06C251.053 100.12 249.013 101.92 245.533 101.92H205.393C204.493 101.92 204.013 102.46 204.013 103.3C204.013 104.14 204.493 104.68 205.393 104.68H250.273C252.853 104.68 252.793 108.34 250.273 108.34H205.393ZM225.253 83.02C209.233 83.02 199.333 81.4 199.333 76.18C199.333 70.96 209.233 69.34 225.253 69.34C241.273 69.34 251.173 70.96 251.173 76.18C251.173 81.4 241.273 83.02 225.253 83.02ZM225.253 79.42C238.933 79.42 246.913 78.04 246.913 76.18C246.913 74.14 238.453 72.94 225.253 72.94C211.573 72.94 203.593 74.32 203.593 76.18C203.593 78.04 211.573 79.42 225.253 79.42Z" fill="white"/>
<rect x="270.5" y="60.5" width="90" height="120" fill="#90C85F"/>
<rect x="270.5" y="60.5" width="90" height="120" stroke="black"/>
<path d="M337.813 138.34C336.673 138.34 335.713 137.44 335.713 136.24V100.96C335.713 99.82 336.673 98.86 337.813 98.86C338.953 98.86 339.913 99.82 339.913 100.96V115.48H343.453C344.593 115.48 345.493 116.38 345.493 117.52C345.493 118.66 344.593 119.56 343.453 119.56H339.913V136.24C339.913 137.44 338.953 138.34 337.813 138.34ZM291.133 136.3C289.993 137.08 288.913 136.66 288.313 135.88C287.773 135.04 287.773 133.9 288.853 133.12C296.413 127.78 301.093 116.38 301.633 106.78C301.753 104.8 301.513 104.5 300.193 104.5H291.553C290.473 104.5 289.573 103.6 289.573 102.52C289.573 101.44 290.473 100.54 291.553 100.54H301.693C304.633 100.54 305.833 102.04 305.833 105.4C305.833 116.26 300.133 130 291.133 136.3ZM311.833 136.54C311.113 135.88 310.813 134.74 311.713 133.66C318.013 126.46 321.133 115.06 321.313 106C321.313 104.8 321.073 104.5 319.813 104.5H310.393C309.313 104.5 308.413 103.6 308.413 102.52C308.413 101.44 309.313 100.54 310.393 100.54H321.253C324.313 100.54 325.453 101.74 325.453 105.64C325.333 115.42 321.793 128.38 314.653 136.36C313.753 137.32 312.553 137.14 311.833 136.54Z" fill="white"/>
<rect x="360.5" y="60.5" width="90" height="120" fill="#90C85F"/>
<rect x="360.5" y="60.5" width="90" height="120" stroke="black"/>
<path d="M428.353 119.14C427.213 119.14 426.253 118.24 426.253 117.04V100.96C426.253 99.82 427.213 98.86 428.353 98.86C429.493 98.86 430.453 99.82 430.453 100.96V117.04C430.453 118.24 429.493 119.14 428.353 119.14ZM405.973 139.06C390.733 139.06 380.533 136.18 380.533 130.06C380.533 123.94 390.733 121.06 405.973 121.06C421.213 121.06 431.173 123.94 431.173 130.06C431.173 136.18 421.213 139.06 405.973 139.06ZM405.973 135.16C418.213 135.16 426.973 132.82 426.973 130.06C426.973 127.3 418.213 124.96 405.973 124.96C393.733 124.96 384.733 127.3 384.733 130.06C384.733 132.82 393.733 135.16 405.973 135.16ZM397.393 118.78C387.193 118.78 378.013 115.42 378.013 108.82C378.013 102.22 387.193 98.86 397.393 98.86C407.593 98.86 416.773 102.22 416.773 108.82C416.773 115.42 407.593 118.78 397.393 118.78ZM397.393 114.94C406.753 114.94 412.573 112.12 412.573 108.82C412.573 105.52 406.753 102.7 397.393 102.7C388.033 102.7 382.213 105.52 382.213 108.82C382.213 112.12 388.033 114.94 397.393 114.94Z" fill="white"/>
</svg>
