<svg width="271" height="151" viewBox="0 0 271 151" fill="none" xmlns="http://www.w3.org/2000/svg">
<rect x="0.5" y="0.5" width="90" height="120" fill="#90C85F"/>
<rect x="0.5" y="0.5" width="90" height="120" stroke="black"/>
<path d="M29.0534 77.74C23.8934 77.74 21.5534 76.6 21.5534 72.7V67.36C21.5534 65.92 22.6334 65.2 23.7134 65.2C24.7934 65.2 25.8734 65.92 25.8734 67.36V71.56C25.8734 73.54 26.2334 73.72 29.8934 73.72H70.7534C71.8334 73.72 72.7934 74.56 72.7934 75.7C72.7934 76.84 71.8334 77.74 70.7534 77.74H29.0534ZM69.4334 67.48C68.2934 67.48 67.3334 66.58 67.3334 65.38V40.96C67.3334 39.82 68.2934 38.86 69.4334 38.86C70.5734 38.86 71.5334 39.82 71.5334 40.96V65.38C71.5334 66.58 70.5734 67.48 69.4334 67.48ZM61.4534 64.9C60.3134 64.9 59.3534 64 59.3534 62.8V50.74H56.4734C55.3334 50.74 54.4934 49.9 54.4934 48.82C54.4934 47.74 55.3334 46.84 56.4734 46.84H59.3534V41.68C59.3534 40.54 60.3134 39.58 61.4534 39.58C62.5934 39.58 63.4934 40.54 63.4934 41.68V62.8C63.4934 64 62.5934 64.9 61.4534 64.9ZM25.8134 61.6C20.7134 61.66 18.3734 60.16 18.3734 55.12V45.64C18.3734 41.14 19.9334 40.06 25.1534 40.06H47.0534C48.1334 40.06 49.0334 40.96 49.0334 42.04C49.0334 43.12 48.1334 44.02 47.0534 44.02H25.7534C22.9934 44.02 22.5734 44.32 22.5734 46.3V53.92C22.5734 57.4 22.9334 57.58 26.5934 57.64H27.0134C35.7134 57.64 45.0734 56.68 51.0134 55.6C53.9534 55.06 54.5534 58.96 51.8534 59.5C45.6134 60.76 35.7134 61.6 26.6534 61.6H25.8134Z" fill="white"/>
<rect x="90.5" y="0.5" width="90" height="120" fill="#90C85F"/>
<rect x="90.5" y="0.5" width="90" height="120" stroke="black"/>
<path d="M109.873 76.24C108.613 76.72 107.593 76.12 107.233 75.22C106.873 74.26 107.113 73.12 108.313 72.58C117.973 68.44 126.733 57.1 126.733 44.56V44.5H110.773C109.633 44.5 108.793 43.6 108.793 42.52C108.793 41.44 109.633 40.54 110.773 40.54H146.893C148.033 40.54 148.873 41.44 148.873 42.52C148.873 43.6 148.033 44.5 146.893 44.5H130.933V44.56C130.933 56.86 139.153 67.84 149.353 72.58C150.613 73.12 150.853 74.32 150.433 75.22C150.073 76.12 149.053 76.72 147.793 76.24C139.993 73 131.773 64.3 128.833 55.18C125.893 64.42 117.553 73.18 109.873 76.24ZM158.413 78.34C157.273 78.34 156.313 77.44 156.313 76.24V40.96C156.313 39.82 157.273 38.86 158.413 38.86C159.553 38.86 160.513 39.82 160.513 40.96V76.24C160.513 77.44 159.553 78.34 158.413 78.34Z" fill="white"/>
<rect x="180.5" y="30.5" width="90" height="120" fill="#90C85F"/>
<rect x="180.5" y="30.5" width="90" height="120" stroke="black"/>
<path d="M248.413 108.34C247.273 108.34 246.313 107.44 246.313 106.24V99.76H242.053C240.913 99.76 240.013 98.86 240.013 97.72C240.013 96.58 240.913 95.68 242.053 95.68H246.313V81.16H242.053C240.913 81.16 240.013 80.26 240.013 79.12C240.013 77.98 240.913 77.08 242.053 77.08H246.313V70.96C246.313 69.82 247.273 68.86 248.413 68.86C249.553 68.86 250.513 69.82 250.513 70.96V106.24C250.513 107.44 249.553 108.34 248.413 108.34ZM217.513 108.22C207.013 108.22 198.193 100.18 198.193 88.6C198.193 77.02 207.013 68.98 217.513 68.98C228.013 68.98 236.833 77.02 236.833 88.6C236.833 100.18 228.013 108.22 217.513 108.22ZM217.513 104.26C225.973 104.26 232.633 97.72 232.633 88.6C232.633 79.48 225.973 72.94 217.513 72.94C209.053 72.94 202.393 79.48 202.393 88.6C202.393 97.72 209.053 104.26 217.513 104.26Z" fill="white"/>
</svg>
