<svg width="541" height="151" viewBox="0 0 541 151" fill="none" xmlns="http://www.w3.org/2000/svg">
<rect x="90.5" y="0.5" width="90" height="120" fill="#90C85F"/>
<rect x="90.5" y="0.5" width="90" height="120" stroke="black"/>
<path d="M158.353 57.58C157.213 57.58 156.253 56.68 156.253 55.48V40.96C156.253 39.82 157.213 38.86 158.353 38.86C159.493 38.86 160.453 39.82 160.453 40.96V55.48C160.453 56.68 159.493 57.58 158.353 57.58ZM115.873 78.34C112.153 78.34 110.113 76.12 110.113 72.76C110.113 69.4 112.153 67.24 115.873 67.24H155.593C156.793 67.24 157.273 66.52 157.273 65.56C157.273 64.6 156.793 63.94 155.593 63.94H111.973C109.213 63.94 109.213 60.1 111.973 60.1H155.713C159.433 60.1 161.473 62.32 161.473 65.62C161.473 68.92 159.433 71.02 155.713 71.02H115.993C114.793 71.02 114.313 71.68 114.313 72.7C114.313 73.72 114.793 74.44 115.993 74.44H160.573C163.393 74.44 163.333 78.34 160.573 78.34H115.873ZM108.853 57.1C106.213 57.82 105.253 54.1 107.953 53.32C115.273 51.22 122.353 46.42 125.953 40.78C126.553 39.82 127.093 39.28 128.053 39.28C129.013 39.28 129.553 39.82 130.153 40.78C133.753 46.42 140.713 50.62 148.033 52.72C150.793 53.5 149.833 57.22 147.133 56.5C139.873 54.52 132.373 49.96 128.053 44.44C123.673 50.02 116.113 55.12 108.853 57.1Z" fill="white"/>
<rect x="0.5" y="0.5" width="90" height="120" fill="#90C85F"/>
<rect x="0.5" y="0.5" width="90" height="120" stroke="black"/>
<path d="M19.2134 76.06C16.7534 77.68 14.5334 74.26 17.0534 72.58C27.8534 65.44 35.7734 52.84 35.7734 43.12V41.8C35.7734 38.92 40.0934 38.92 40.0934 41.8V43.12C40.0934 52.84 48.0134 65.5 58.8134 72.58C61.3334 74.26 59.1134 77.68 56.6534 76.06C48.1334 70.3 41.1734 61.72 37.9334 52.48C34.6934 61.72 27.7334 70.3 19.2134 76.06ZM67.8134 78.34C66.6734 78.34 65.7134 77.44 65.7134 76.24V40.96C65.7134 39.82 66.6734 38.86 67.8134 38.86C68.9534 38.86 69.9134 39.82 69.9134 40.96V55.48H73.4534C74.5934 55.48 75.4934 56.38 75.4934 57.52C75.4934 58.66 74.5934 59.56 73.4534 59.56H69.9134V76.24C69.9134 77.44 68.9534 78.34 67.8134 78.34Z" fill="white"/>
<rect x="180.5" y="30.5" width="90" height="120" fill="#90C85F"/>
<rect x="180.5" y="30.5" width="90" height="120" stroke="black"/>
<path d="M208.573 107.74C203.653 107.74 201.613 106.48 201.613 102.7V98.86C201.613 97.42 202.693 96.7 203.773 96.7C204.853 96.7 205.933 97.42 205.933 98.86V101.68C205.933 103.54 206.353 103.78 209.593 103.78H249.493C250.573 103.78 251.473 104.62 251.473 105.76C251.473 106.9 250.573 107.74 249.493 107.74H208.573ZM200.233 93.46C199.093 93.46 198.253 92.62 198.253 91.48C198.253 90.4 199.093 89.56 200.233 89.56H250.813C251.893 89.56 252.733 90.4 252.733 91.48C252.733 92.62 251.893 93.46 250.813 93.46H200.233ZM225.253 85.72C208.753 85.72 199.333 83.02 199.333 77.5C199.333 71.98 208.753 69.34 225.253 69.34C241.753 69.34 251.173 71.98 251.173 77.5C251.173 83.02 241.753 85.72 225.253 85.72ZM225.253 82C238.933 82 246.973 79.72 246.973 77.5C246.973 75.34 238.873 73.06 225.253 73.06C211.573 73.06 203.533 75.34 203.533 77.5C203.533 79.72 211.573 82 225.253 82Z" fill="white"/>
<rect x="270.5" y="0.5" width="90" height="120" fill="#90C85F"/>
<rect x="270.5" y="0.5" width="90" height="120" stroke="black"/>
<path d="M296.773 56.26C291.613 56.26 290.053 55 290.053 50.44V45.82C290.053 41.32 291.613 40.06 296.773 40.06H317.713C322.873 40.06 324.433 41.32 324.433 45.82V50.44C324.433 55 322.873 56.26 317.713 56.26H296.773ZM294.253 50.08C294.253 52.06 294.673 52.36 297.433 52.36H317.053C319.813 52.36 320.233 52.06 320.233 50.08V46.24C320.233 44.26 319.813 43.96 317.053 43.96H297.433C294.673 43.96 294.253 44.26 294.253 46.24V50.08ZM337.813 57.58C336.673 57.58 335.713 56.68 335.713 55.48V40.96C335.713 39.82 336.673 38.86 337.813 38.86C338.953 38.86 339.913 39.82 339.913 40.96V46.24H343.453C344.593 46.24 345.493 47.14 345.493 48.28C345.493 49.42 344.593 50.32 343.453 50.32H339.913V55.48C339.913 56.68 338.953 57.58 337.813 57.58ZM295.933 78.34C292.213 78.34 290.173 76.12 290.173 72.76C290.173 69.4 292.213 67.24 295.933 67.24H335.113C336.313 67.24 336.793 66.52 336.793 65.56C336.793 64.6 336.313 63.94 335.113 63.94H292.033C289.273 63.94 289.273 60.1 292.033 60.1H335.233C338.953 60.1 340.993 62.32 340.993 65.62C340.993 68.92 338.953 71.02 335.233 71.02H296.053C294.853 71.02 294.373 71.68 294.373 72.7C294.373 73.72 294.853 74.44 296.053 74.44H340.033C342.853 74.44 342.793 78.34 340.033 78.34H295.933Z" fill="white"/>
<rect x="360.5" y="30.5" width="90" height="120" fill="#90C85F"/>
<rect x="360.5" y="30.5" width="90" height="120" stroke="black"/>
<path d="M428.413 108.34C427.273 108.34 426.313 107.44 426.313 106.24V70.96C426.313 69.82 427.273 68.86 428.413 68.86C429.553 68.86 430.513 69.82 430.513 70.96V106.24C430.513 107.44 429.553 108.34 428.413 108.34ZM397.873 108.22C387.253 108.22 378.193 100.12 378.193 88.6C378.193 77.08 387.253 68.98 397.873 68.98C408.493 68.98 417.553 77.08 417.553 88.6C417.553 100.12 408.493 108.22 397.873 108.22ZM397.873 104.26C406.393 104.26 413.353 97.72 413.353 88.6C413.353 79.48 406.393 72.94 397.873 72.94C389.353 72.94 382.393 79.48 382.393 88.6C382.393 97.72 389.353 104.26 397.873 104.26Z" fill="white"/>
<rect x="450.5" y="30.5" width="90" height="120" fill="#90C85F"/>
<rect x="450.5" y="30.5" width="90" height="120" stroke="black"/>
<path d="M518.413 108.34C517.273 108.34 516.313 107.44 516.313 106.24V99.76H512.053C510.913 99.76 510.013 98.86 510.013 97.72C510.013 96.58 510.913 95.68 512.053 95.68H516.313V81.16H512.053C510.913 81.16 510.013 80.26 510.013 79.12C510.013 77.98 510.913 77.08 512.053 77.08H516.313V70.96C516.313 69.82 517.273 68.86 518.413 68.86C519.553 68.86 520.513 69.82 520.513 70.96V106.24C520.513 107.44 519.553 108.34 518.413 108.34ZM487.513 108.22C477.013 108.22 468.193 100.18 468.193 88.6C468.193 77.02 477.013 68.98 487.513 68.98C498.013 68.98 506.833 77.02 506.833 88.6C506.833 100.18 498.013 108.22 487.513 108.22ZM487.513 104.26C495.973 104.26 502.633 97.72 502.633 88.6C502.633 79.48 495.973 72.94 487.513 72.94C479.053 72.94 472.393 79.48 472.393 88.6C472.393 97.72 479.053 104.26 487.513 104.26Z" fill="white"/>
</svg>
