<svg width="181" height="151" viewBox="0 0 181 151" fill="none" xmlns="http://www.w3.org/2000/svg">
<rect x="0.5" y="30.5" width="90" height="120" fill="#90C85F"/>
<rect x="0.5" y="30.5" width="90" height="120" stroke="black"/>
<path d="M67.8134 108.34C66.6734 108.34 65.7134 107.44 65.7134 106.24V70.96C65.7134 69.82 66.6734 68.86 67.8134 68.86C68.9534 68.86 69.9134 69.82 69.9134 70.96V85.48H73.4534C74.5934 85.48 75.4934 86.38 75.4934 87.52C75.4934 88.66 74.5934 89.56 73.4534 89.56H69.9134V106.24C69.9134 107.44 68.9534 108.34 67.8134 108.34ZM29.1734 106.3C23.5334 106.42 20.9534 104.68 20.9534 99.16V72.52C20.9534 71.44 21.9134 70.36 23.1134 70.36C24.4334 70.42 25.2734 71.5 25.2734 72.52V97.9C25.2734 101.92 25.6934 102.16 29.7134 102.22C38.7734 102.22 49.2734 101.02 55.5734 99.46C58.3934 98.8 59.2334 102.76 56.5334 103.42C49.9934 105.04 39.0734 106.3 29.1734 106.3Z" fill="white"/>
<rect x="90.5" y="0.5" width="90" height="120" fill="#90C85F"/>
<rect x="90.5" y="0.5" width="90" height="120" stroke="black"/>
<path d="M119.233 64.66C113.533 64.78 111.013 63.04 111.013 57.58V47.62C111.013 42.16 113.533 40.54 119.233 40.54H156.733C159.373 40.54 159.493 44.5 156.733 44.5H119.593C115.633 44.5 115.213 44.8 115.213 49.12V56.44C115.213 60.4 115.633 60.64 119.593 60.7H158.533C161.293 60.7 161.173 64.66 158.533 64.66H119.233ZM110.533 77.32C109.393 77.32 108.553 76.48 108.553 75.34C108.553 74.2 109.393 73.36 110.533 73.36H133.393V69.52C133.393 68.32 134.353 67.42 135.493 67.42C136.633 67.42 137.593 68.32 137.593 69.52V73.36H160.453C161.593 73.36 162.433 74.2 162.433 75.34C162.433 76.48 161.593 77.32 160.453 77.32H110.533Z" fill="white"/>
</svg>
