<svg width="271" height="151" viewBox="0 0 271 151" fill="none" xmlns="http://www.w3.org/2000/svg">
<rect x="0.5" y="0.5" width="90" height="120" fill="#90C85F"/>
<rect x="0.5" y="0.5" width="90" height="120" stroke="black"/>
<path d="M67.8134 59.86C66.6734 59.86 65.7134 58.96 65.7134 57.76V40.96C65.7134 39.82 66.6734 38.86 67.8134 38.86C68.9534 38.86 69.9134 39.82 69.9134 40.96V47.26H73.4534C74.5934 47.26 75.4934 48.16 75.4934 49.3C75.4934 50.44 74.5934 51.34 73.4534 51.34H69.9134V57.76C69.9134 58.96 68.9534 59.86 67.8134 59.86ZM67.8134 78.34C66.6734 78.34 65.7134 77.38 65.7134 76.24V69.22C65.7134 67.36 65.3534 67.06 62.9534 67.06H22.9334C21.7934 67.06 20.9534 66.22 20.9534 65.14C20.9534 64.06 21.7934 63.16 22.9334 63.16H62.8934C68.3534 63.16 69.9734 64.18 69.9134 68.44V76.24C69.9134 77.38 68.9534 78.34 67.8134 78.34ZM37.5734 59.98C25.8134 59.98 18.1934 58.6 18.1934 53.74C18.1934 48.82 25.8134 47.26 37.5734 47.26C49.3334 47.26 56.9534 48.82 56.9534 53.74C56.9534 58.6 49.3334 59.98 37.5734 59.98ZM37.5734 56.38C47.1734 56.38 52.8734 55.3 52.8734 53.74C52.8734 52.12 47.1734 50.86 37.5734 50.86C27.9134 50.86 22.2734 52.12 22.2734 53.74C22.2734 55.3 27.9134 56.38 37.5734 56.38ZM20.3534 44.98C17.8934 45.04 17.8934 41.32 20.3534 41.32H35.4134V40.24C35.4134 39.04 36.4934 38.26 37.5134 38.26C38.5934 38.26 39.6134 39.04 39.6134 40.24V41.32H54.7934C57.2534 41.32 57.2534 45.04 54.7934 44.98C41.8934 44.74 33.2534 44.74 20.3534 44.98Z" fill="white"/>
<rect x="90.5" y="30.5" width="90" height="120" fill="#90C85F"/>
<rect x="90.5" y="30.5" width="90" height="120" stroke="black"/>
<path d="M156.313 94.3C155.893 95.68 154.693 96.1 153.733 95.8C152.713 95.56 151.993 94.54 152.413 93.04C153.973 87.76 154.933 82.84 155.293 77.26C155.353 76.18 155.293 75.52 154.873 75.16C154.393 74.68 153.553 74.56 151.933 74.56H112.633C111.553 74.56 110.713 73.66 110.713 72.58C110.713 71.5 111.553 70.54 112.633 70.54H152.113C155.233 70.54 157.213 70.9 158.353 72.04C159.313 73 159.613 74.56 159.553 76.96C159.133 84.28 157.813 89.62 156.313 94.3ZM110.593 107.32C109.453 107.32 108.553 106.42 108.553 105.28C108.553 104.14 109.453 103.24 110.593 103.24H119.893V84.76C119.893 83.56 120.853 82.66 121.993 82.66C123.133 82.66 124.093 83.56 124.093 84.76V103.24H138.793V84.76C138.793 83.56 139.753 82.66 140.893 82.66C142.033 82.66 142.993 83.56 142.993 84.76V103.24H160.393C161.533 103.24 162.433 104.14 162.433 105.28C162.433 106.42 161.533 107.32 160.393 107.32H110.593Z" fill="white"/>
<rect x="180.5" y="0.5" width="90" height="120" fill="#90C85F"/>
<rect x="180.5" y="0.5" width="90" height="120" stroke="black"/>
<path d="M249.973 78.34C248.833 78.34 247.873 77.44 247.873 76.24V40.96C247.873 39.82 248.833 38.86 249.973 38.86C251.113 38.86 252.073 39.82 252.073 40.96V76.24C252.073 77.44 251.113 78.34 249.973 78.34ZM241.993 77.08C240.853 77.08 239.893 76.18 239.893 74.98V60.46H238.273C237.133 60.46 236.233 59.56 236.233 58.42C236.233 57.28 237.133 56.38 238.273 56.38H239.893V41.8C239.893 40.66 240.853 39.7 241.993 39.7C243.133 39.7 244.033 40.66 244.033 41.8V74.98C244.033 76.18 243.133 77.08 241.993 77.08ZM215.173 78.22C204.853 78.22 196.633 70.24 196.633 58.6C196.633 46.96 204.853 38.98 215.173 38.98C225.493 38.98 233.713 46.96 233.713 58.6C233.713 70.24 225.493 78.22 215.173 78.22ZM215.173 74.14C223.453 74.14 229.513 67.78 229.513 58.6C229.513 49.42 223.453 43.06 215.173 43.06C206.893 43.06 200.833 49.42 200.833 58.6C200.833 67.78 206.893 74.14 215.173 74.14Z" fill="white"/>
</svg>
