<svg width="1920" height="1080" viewBox="0 0 1920 1080" fill="none" xmlns="http://www.w3.org/2000/svg">
<g clip-path="url(#clip0_355_315)">
<rect width="1920" height="1080" fill="#F6C500"/>
<path d="M321.68 447.68C321.68 452.8 317.68 456.88 311.96 456.88C306.16 456.88 302.24 452.8 302.24 447.68C302.24 442.48 306.16 438.36 311.96 438.36C317.68 438.36 321.68 442.48 321.68 447.68ZM311.96 454.72C316.32 454.72 318.96 451.6 318.96 447.64C318.96 443.64 316.32 440.52 311.96 440.52C307.52 440.52 304.92 443.64 304.92 447.64C304.92 451.6 307.52 454.72 311.96 454.72ZM332.56 472.72H307.8V460.88H310.48V470.56H332.56V472.72ZM331.08 464.12H328.44V437.72H331.08V446.68H336.52V448.92H331.08V464.12ZM363.157 452.2V454.32C358.997 455.24 352.477 455.72 346.877 455.72H340.757V438.76H343.397V453.52H346.877C352.277 453.52 358.757 453.08 363.157 452.2ZM356.517 473.88C348.437 473.88 343.557 470.88 343.557 466.8C343.557 462.76 348.437 459.76 356.517 459.76C364.557 459.76 369.437 462.76 369.437 466.8C369.437 470.88 364.557 473.88 356.517 473.88ZM356.517 461.92C350.597 461.92 346.237 463.72 346.237 466.8C346.237 469.92 350.597 471.72 356.517 471.72C362.437 471.72 366.757 469.92 366.757 466.8C366.757 463.72 362.437 461.92 356.517 461.92ZM368.757 459.48H366.117V449.2H354.997V447.04H366.117V443.28H354.997V441.12H366.117V437.72H368.757V459.48ZM392.154 440.92H381.074V438.76H392.154V440.92ZM404.794 473.28H402.154V437.72H404.794V452.4H410.554V454.68H404.794V473.28ZM395.834 458.32C395.834 463 392.154 466.76 386.754 466.76C381.354 466.76 377.674 463 377.674 458.32C377.674 453.64 381.354 449.84 386.754 449.84C392.154 449.84 395.834 453.6 395.834 458.32ZM393.194 458.32C393.194 454.56 390.674 451.96 386.794 451.96C382.874 451.96 380.354 454.52 380.354 458.32C380.354 462.08 382.874 464.64 386.794 464.64C390.674 464.64 393.194 462.08 393.194 458.32ZM397.634 446.84H375.674V444.68H397.634V446.84ZM442.871 473.28H440.191V437.72H442.871V473.28ZM435.511 463L433.911 464.92C429.151 462.32 424.671 457.48 423.271 452.92C421.791 457.96 417.991 462.6 412.511 465.96L410.711 464.28C416.871 460.68 421.751 454.48 421.751 446V439.28H424.591V446C424.591 454.16 429.951 460.24 435.511 463ZM478.748 446.12C478.748 450.72 473.788 454.32 465.508 454.32C457.268 454.32 452.308 450.72 452.308 446.12C452.308 441.56 457.268 437.96 465.508 437.96C473.788 437.96 478.748 441.56 478.748 446.12ZM476.068 446.12C476.068 442.4 471.548 440.12 465.508 440.12C459.548 440.12 454.988 442.4 454.988 446.12C454.988 449.88 459.548 452.16 465.508 452.16C471.548 452.16 476.068 449.88 476.068 446.12ZM483.068 460.2H466.988V473.28H464.228V460.2H448.148V458.04H483.068V460.2ZM486.344 452.2C486.344 443.68 490.224 438.68 495.424 438.68C500.624 438.68 504.544 443.68 504.544 452.2C504.544 460.76 500.624 465.76 495.424 465.76C490.224 465.76 486.344 460.76 486.344 452.2ZM501.864 452.2C501.864 444.88 499.144 440.84 495.424 440.84C491.704 440.84 489.024 444.88 489.024 452.2C489.024 459.56 491.704 463.6 495.424 463.6C499.144 463.6 501.864 459.56 501.864 452.2ZM514.504 473.28H511.864V437.72H514.504V445.04H520.304V447.32H514.504V456.84H520.304V459.12H514.504V473.28Z" fill="white"/>
<path d="M1187.92 99.68H1162.88V86.12H1187.92V99.68ZM1185.24 97.52V88.28H1165.56V97.52H1185.24ZM1192.88 107.2H1176.8V120.28H1174.04V107.2H1157.96V105.04H1192.88V107.2ZM1226.16 119.88H1198.32V117.84H1203.8L1203.6 110.8H1199.16V108.76H1225.36V110.8H1220.88L1220.68 117.84H1226.16V119.88ZM1218 117.84L1218.2 110.8H1206.24L1206.44 117.84H1218ZM1225.24 99.48H1199.68V91.48H1221.72V87.68H1199.68V85.6H1224.36V93.52H1202.36V97.32H1225.24V99.48ZM1229.68 105H1194.8V102.92H1229.68V105ZM1264.11 106.48H1261.55V95.8H1256.55V105.12H1254.03V85.32H1256.55V93.52H1261.55V84.72H1264.11V106.48ZM1251.19 120.88C1242.91 120.88 1237.91 117.88 1237.91 113.8C1237.91 109.76 1242.91 106.76 1251.19 106.76C1259.47 106.76 1264.43 109.76 1264.43 113.8C1264.43 117.88 1259.47 120.88 1251.19 120.88ZM1251.19 108.92C1245.07 108.92 1240.63 110.72 1240.63 113.8C1240.63 116.92 1245.07 118.72 1251.19 118.72C1257.31 118.72 1261.75 116.92 1261.75 113.8C1261.75 110.72 1257.31 108.92 1251.19 108.92ZM1242.19 105.08L1240.11 103.56C1245.35 99.72 1247.79 93.8 1248.23 88.64H1243.15V86.56H1251.07C1250.83 94.28 1247.63 100.68 1242.19 105.08ZM1233.51 102.76L1231.59 101.24C1236.35 97.92 1238.87 93.12 1239.27 88.64H1233.87V86.56H1242.07C1241.79 93.76 1238.55 98.96 1233.51 102.76ZM1299.87 120.28H1297.19V84.72H1299.87V120.28ZM1270.59 99.2C1270.59 90.68 1274.51 85.68 1279.71 85.68C1284.95 85.68 1288.83 90.68 1288.83 99.2C1288.83 107.76 1284.95 112.76 1279.71 112.76C1274.51 112.76 1270.59 107.76 1270.59 99.2ZM1286.15 99.2C1286.15 91.88 1283.47 87.84 1279.71 87.84C1275.99 87.84 1273.27 91.88 1273.27 99.2C1273.27 106.56 1275.99 110.6 1279.71 110.6C1283.47 110.6 1286.15 106.56 1286.15 99.2Z" fill="white"/>
<path d="M225.92 863.44H213.84V859.16H224.16V857.08H213.84V856.02H225.5V860.18H215.16V862.36H225.92V863.44ZM225.54 855.08H224.22V845.86H225.54V849.88H228.26V850.98H225.54V855.08ZM219.02 847.82H211.84V846.78H220.56C220.18 851.34 215.72 854.28 211.52 855.28L210.78 854.32C214.94 853.44 218.36 850.86 219.02 847.82ZM246.358 855.64H238.038V863.64H236.698V855.64H228.878V854.56H241.738C242.178 852.42 242.518 849.98 242.658 847.84H230.918V846.76H244.038C243.938 849.16 243.498 852.4 243.098 854.56H246.358V855.64ZM262.057 863.64H260.737V845.86H262.057V852.2H265.057V853.34H262.057V863.64ZM259.877 857.16V858.24C257.637 858.7 254.137 858.92 251.457 858.92H248.697V847.04H257.277V848.12H250.017V857.82H251.457C254.137 857.82 257.477 857.6 259.877 857.16Z" fill="white"/>
<path d="M1258.98 381.04H1257.66V376.62H1253.38V380.02H1244.88V372.48H1246.2V375.12H1252.04V372.48H1253.38V375.52H1257.66V371.86H1258.98V381.04ZM1259.38 389.44H1247.08V385.14H1257.64V383.04H1247.08V382H1258.96V386.16H1248.42V388.38H1259.38V389.44ZM1252.04 378.96V376.16H1246.2V378.96H1252.04ZM1277.22 389.64H1275.88V379.68H1271.78V378.56H1275.88V371.86H1277.22V389.64ZM1263.36 385.84L1262.48 384.94C1267.2 382.64 1269.84 378.64 1270.34 374.12H1263.58V373.04H1271.8C1271.54 379.06 1268.06 383.46 1263.36 385.84ZM1292.62 384.58L1291.8 385.54C1289.52 384.24 1287.24 381.96 1286.48 379.76C1285.78 382.22 1283.68 384.52 1281.1 386.06L1280.2 385.18C1283.12 383.54 1285.72 380.48 1285.72 376.34V374.12H1281.24V373.04H1291.5V374.12H1287.14V376.34C1287.14 380.4 1290.06 383.26 1292.62 384.58ZM1296.04 389.64H1294.7V371.86H1296.04V389.64Z" fill="white"/>
<path d="M751.08 563.64H748.44V541.72H751.08V550.04H756.52V552.28H751.08V563.64ZM739.44 577.88C731.6 577.88 726.88 575 726.88 571.08C726.88 567.2 731.6 564.32 739.44 564.32C747.2 564.32 751.92 567.2 751.92 571.08C751.92 575 747.2 577.88 739.44 577.88ZM739.44 566.48C733.72 566.48 729.56 568.2 729.56 571.08C729.56 574 733.72 575.72 739.44 575.72C745.12 575.72 749.28 574 749.28 571.08C749.28 568.2 745.12 566.48 739.44 566.48ZM740.4 560.04H723.52V542.96H726.2V549.28H737.72V542.96H740.4V560.04ZM737.72 557.88V551.4H726.2V557.88H737.72ZM787.757 576.88H762.677V562H765.357V567H785.077V562H787.757V576.88ZM792.677 557.64H776.597V563.96H773.837V557.64H757.797V555.52H784.197C784.957 552.08 785.517 547.92 785.637 545.04H762.037V542.88H788.357C788.197 547.6 787.517 552.16 786.797 555.52H792.677V557.64ZM785.037 574.8V569.08H765.357V574.8H785.037ZM827.754 560.44L826.314 562.4C820.554 560.56 814.434 556.4 811.994 551.08C809.594 556.4 803.514 560.56 797.714 562.4L796.234 560.44C802.994 558.48 810.594 552.8 810.594 546.16V543.2H813.434V546.16C813.434 552.8 821.034 558.48 827.754 560.44ZM829.514 572.36H794.554V570.2H810.634V560.6H813.394V570.2H829.514V572.36ZM832.751 556.2C832.751 547.68 836.631 542.68 841.831 542.68C847.031 542.68 850.951 547.68 850.951 556.2C850.951 564.76 847.031 569.76 841.831 569.76C836.631 569.76 832.751 564.76 832.751 556.2ZM848.271 556.2C848.271 548.88 845.551 544.84 841.831 544.84C838.111 544.84 835.431 548.88 835.431 556.2C835.431 563.56 838.111 567.6 841.831 567.6C845.551 567.6 848.271 563.56 848.271 556.2ZM860.911 577.28H858.271V541.72H860.911V549.04H866.711V551.32H860.911V560.84H866.711V563.12H860.911V577.28Z" fill="white"/>
<path d="M129.4 929.16H126.72V920.28H118.56C118.24 924.64 114.52 928.04 109.2 928.04C103.52 928.04 99.72 924.28 99.72 919.6C99.72 914.96 103.52 911.2 109.2 911.2C114.2 911.2 117.72 914.16 118.48 918.08H126.72V910.72H129.4V929.16ZM130.2 945.88H105.6V937.32H126.68V933.12H105.6V931.04H129.36V939.32H108.28V943.76H130.2V945.88ZM115.92 919.6C115.92 916.08 113.48 913.32 109.2 913.32C104.88 913.32 102.44 916.08 102.44 919.6C102.44 923.12 104.88 925.92 109.2 925.92C113.48 925.92 115.92 923.12 115.92 919.6ZM166.077 946.28H163.437V925.76H157.917V944.6H155.317V911.32H157.917V923.44H163.437V910.72H166.077V946.28ZM151.037 936.84H137.397V913.32H151.037V936.84ZM148.357 934.68V915.48H139.997V934.68H148.357ZM196.754 933.28V935.44C192.274 936.36 185.274 936.76 179.914 936.76H174.394V912.36H177.034V934.56H179.914C185.274 934.56 191.954 934.16 196.754 933.28ZM201.114 946.28H198.474V910.72H201.114V922.92H207.114V925.2H201.114V946.28Z" fill="white"/>
<path d="M551.52 544.28H548.88V508.72H551.52V521.6H557.52V523.88H551.52V544.28ZM523.36 523.2C523.36 514.68 527.24 509.68 532.44 509.68C537.64 509.68 541.56 514.68 541.56 523.2C541.56 531.76 537.64 536.76 532.44 536.76C527.24 536.76 523.36 531.76 523.36 523.2ZM538.88 523.2C538.88 515.88 536.16 511.84 532.44 511.84C528.72 511.84 526.04 515.88 526.04 523.2C526.04 530.56 528.72 534.6 532.44 534.6C536.16 534.6 538.88 530.56 538.88 523.2ZM570.357 537.76L567.917 536.56C572.997 530.04 575.157 521.12 575.397 513.48H570.437V511.32H578.157C577.997 521.4 575.597 530.36 570.357 537.76ZM561.117 535.92L558.757 534.72C563.957 528.68 566.277 520.24 566.597 513.48H560.797V511.32H569.357C569.157 520.6 566.437 529.32 561.117 535.92ZM591.317 544.28H588.757V524.68H583.717V542.6H581.157V509.32H583.717V522.32H588.757V508.72H591.317V544.28Z" fill="white"/>
<path d="M1066.5 465.32H1031.52V445.58H1066.5V465.32ZM1062.48 462.08V448.82H1035.48V462.08H1062.48ZM1024.56 443.06L1022.34 440.18C1035.54 436.82 1045.44 428.24 1047.18 418.58H1025.52V415.34H1051.74C1050.48 430.1 1038.06 439.04 1024.56 443.06ZM1066.62 442.7H1062.66V412.58H1066.62V425.42H1074.78V428.78H1066.62V442.7ZM1125.42 465.92H1121.46V435.74H1113.36V463.4H1109.4V413.48H1113.36V432.26H1121.46V412.58H1125.42V465.92ZM1107.24 450.68L1104.78 453.38C1098.96 449.36 1094.58 443.42 1092.72 437.42C1090.98 444.08 1085.94 450.56 1079.1 455.18L1076.22 452.72C1084.5 447.68 1090.56 438.08 1090.56 426.86V419.72H1080.3V416.48H1104.54V419.72H1094.76V426.86C1094.76 438.32 1100.7 446.6 1107.24 450.68Z" fill="white"/>
<path d="M105.92 683.44H93.84V678.98H104.16V676.7H93.84V675.66H105.5V679.98H95.16V682.38H105.92V683.44ZM105.54 674.72H104.22V665.86H105.54V668.92H108.26V670.04H105.54V674.72ZM103.34 671.8V672.82C101.3 673.3 98 673.54 95.22 673.54H91.88V666.34H93.2V672.46H95.22C97.92 672.46 101.14 672.24 103.34 671.8ZM124.538 683.64H123.218V673.48H120.658V682.8H119.378V666.16H120.658V672.32H123.218V665.86H124.538V683.64ZM118.438 677.82V678.9C116.798 679.16 114.338 679.32 112.618 679.32H110.198V672.54H115.658V668.14H110.198V667.06H116.958V673.6H111.498V678.22H112.618C114.338 678.22 116.778 678.08 118.438 677.82Z" fill="white"/>
<path d="M515.28 395.46H509.74V394.38H515.28V395.46ZM521.6 411.64H520.28V393.86H521.6V401.2H524.48V402.34H521.6V411.64ZM517.12 404.16C517.12 406.5 515.28 408.38 512.58 408.38C509.88 408.38 508.04 406.5 508.04 404.16C508.04 401.82 509.88 399.92 512.58 399.92C515.28 399.92 517.12 401.8 517.12 404.16ZM515.8 404.16C515.8 402.28 514.54 400.98 512.6 400.98C510.64 400.98 509.38 402.26 509.38 404.16C509.38 406.04 510.64 407.32 512.6 407.32C514.54 407.32 515.8 406.04 515.8 404.16ZM518.02 398.42H507.04V397.34H518.02V398.42ZM534.778 403.02H526.278V394.78H534.778V403.02ZM533.438 401.94V395.84H527.598V401.94H533.438ZM540.378 407.04H539.058V393.86H540.378V407.04ZM541.038 411.36H528.478V405.44H529.818V410.28H541.038V411.36Z" fill="white"/>
<path d="M595.68 476.56L594.86 477.46C592.92 476.12 591.46 474.14 590.84 472.14C590.26 474.36 588.58 476.52 586.3 478.06L585.34 477.24C588.1 475.56 590.12 472.36 590.12 468.62V466.24H586.7V465.16H594.78V466.24H591.52V468.62C591.52 472.44 593.5 475.2 595.68 476.56ZM598.12 480.8H596.82V470.78H593.56V469.66H596.82V464.16H598.12V480.8ZM601.74 481.64H600.42V463.86H601.74V481.64ZM619.218 481.64H617.878V463.86H619.218V481.64ZM616.938 475.56V476.66C614.698 477.1 611.198 477.32 608.498 477.32H605.338V470.5H612.518V466.02H605.338V464.94H613.878V471.56H606.658V476.22H608.498C611.198 476.22 614.538 476.02 616.938 475.56ZM632.477 476.56L631.657 477.46C629.717 476.12 628.257 474.14 627.637 472.14C627.057 474.36 625.377 476.52 623.097 478.06L622.137 477.24C624.897 475.56 626.917 472.36 626.917 468.62V466.24H623.497V465.16H631.577V466.24H628.317V468.62C628.317 472.44 630.297 475.2 632.477 476.56ZM634.917 480.8H633.617V470.78H630.357V469.66H633.617V464.16H634.917V480.8ZM638.537 481.64H637.217V463.86H638.537V481.64ZM656.015 481.64H654.675V463.86H656.015V481.64ZM653.735 475.56V476.66C651.495 477.1 647.995 477.32 645.295 477.32H642.135V470.5H649.315V466.02H642.135V464.94H650.675V471.56H643.455V476.22H645.295C647.995 476.22 651.335 476.02 653.735 475.56ZM667.874 465.46H662.334V464.38H667.874V465.46ZM674.194 481.64H672.874V463.86H674.194V471.2H677.074V472.34H674.194V481.64ZM669.714 474.16C669.714 476.5 667.874 478.38 665.174 478.38C662.474 478.38 660.634 476.5 660.634 474.16C660.634 471.82 662.474 469.92 665.174 469.92C667.874 469.92 669.714 471.8 669.714 474.16ZM668.394 474.16C668.394 472.28 667.134 470.98 665.194 470.98C663.234 470.98 661.974 472.26 661.974 474.16C661.974 476.04 663.234 477.32 665.194 477.32C667.134 477.32 668.394 476.04 668.394 474.16ZM670.614 468.42H659.634V467.34H670.614V468.42ZM692.252 481.64H690.932V463.86H692.252V470.2H695.252V471.34H692.252V481.64ZM690.072 475.16V476.24C687.832 476.7 684.332 476.92 681.652 476.92H678.892V465.04H687.472V466.12H680.212V475.82H681.652C684.332 475.82 687.672 475.6 690.072 475.16Z" fill="white"/>
<path d="M938.72 529.82L937.7 528.96C941.84 526.64 943.98 522.2 944.22 518.24H938.7V517.16H945.66C945.56 522.66 942.92 527.26 938.72 529.82ZM953.34 533.64H952.02V523.84H949.12V532.8H947.8V516.16H949.12V522.66H952.02V515.86H953.34V533.64ZM970.938 526.76H969.618V515.86H970.938V520.24H973.658V521.36H970.938V526.76ZM970.898 533.74H969.558V528.82H958.838V527.72H970.898V533.74ZM968.738 524.02V525.04C966.698 525.5 963.398 525.74 960.618 525.74H957.158V520.62H964.298V517.66H957.158V516.62H965.638V521.64H958.498V524.68H960.618C963.318 524.68 966.538 524.44 968.738 524.02ZM990.037 533.64H988.697V515.86H990.037V533.64ZM975.397 523.1C975.397 518.84 977.357 516.34 979.957 516.34C982.577 516.34 984.517 518.84 984.517 523.1C984.517 527.38 982.577 529.88 979.957 529.88C977.357 529.88 975.397 527.38 975.397 523.1ZM983.177 523.1C983.177 519.44 981.837 517.42 979.957 517.42C978.097 517.42 976.737 519.44 976.737 523.1C976.737 526.78 978.097 528.8 979.957 528.8C981.837 528.8 983.177 526.78 983.177 523.1ZM1007.46 533.64H1006.14V515.86H1007.46V522.2H1010.46V523.34H1007.46V533.64ZM1005.28 527.16V528.24C1003.04 528.7 999.535 528.92 996.855 528.92H994.095V517.04H1002.68V518.12H995.415V527.82H996.855C999.535 527.82 1002.88 527.6 1005.28 527.16Z" fill="white"/>
<path d="M1014.96 587.18H997.48V586.1H1005.52V581.4H999.94V572.98H1012.46V581.4H1006.9V586.1H1014.96V587.18ZM1011.12 580.32V574.06H1001.28V580.32H1011.12ZM1031.74 583.08H1030.42V577.4H1027.56V582.4H1026.26V572.16H1027.56V576.26H1030.42V571.86H1031.74V583.08ZM1025.38 589.94C1021.3 589.94 1018.86 588.52 1018.86 586.58C1018.86 584.64 1021.3 583.22 1025.38 583.22C1029.46 583.22 1031.92 584.64 1031.92 586.58C1031.92 588.52 1029.46 589.94 1025.38 589.94ZM1025.38 584.26C1022.4 584.26 1020.2 585.1 1020.2 586.56C1020.2 588.02 1022.4 588.86 1025.38 588.86C1028.38 588.86 1030.56 588.02 1030.56 586.56C1030.56 585.1 1028.38 584.26 1025.38 584.26ZM1025.4 580.06V581.08C1023.78 581.38 1021.38 581.52 1019.3 581.52H1016.94V576.52H1022.5V573.66H1016.94V572.62H1023.8V577.56H1018.24V580.46H1019.3C1021.38 580.46 1023.72 580.34 1025.4 580.06ZM1050.04 589.64H1048.7V571.86H1050.04V589.64ZM1035.4 579.1C1035.4 574.84 1037.36 572.34 1039.96 572.34C1042.58 572.34 1044.52 574.84 1044.52 579.1C1044.52 583.38 1042.58 585.88 1039.96 585.88C1037.36 585.88 1035.4 583.38 1035.4 579.1ZM1043.18 579.1C1043.18 575.44 1041.84 573.42 1039.96 573.42C1038.1 573.42 1036.74 575.44 1036.74 579.1C1036.74 582.78 1038.1 584.8 1039.96 584.8C1041.84 584.8 1043.18 582.78 1043.18 579.1Z" fill="white"/>
<path d="M1148.74 503.64H1141.54V495.78H1148.74V503.64ZM1147.4 502.56V496.84H1142.84V502.56H1147.4ZM1156.34 505.74H1155.02V500H1152.16V505.06H1150.86V495.16H1152.16V498.86H1155.02V494.86H1156.34V505.74ZM1149.98 512.94C1145.9 512.94 1143.46 511.44 1143.46 509.4C1143.46 507.38 1145.9 505.88 1149.98 505.88C1154.06 505.88 1156.52 507.38 1156.52 509.4C1156.52 511.44 1154.06 512.94 1149.98 512.94ZM1149.98 506.96C1147 506.96 1144.8 507.86 1144.8 509.4C1144.8 510.96 1147 511.86 1149.98 511.86C1152.98 511.86 1155.16 510.96 1155.16 509.4C1155.16 507.86 1152.98 506.96 1149.98 506.96ZM1174.28 512.44H1161.32V507.92H1172.52V505.6H1161.32V504.54H1173.86V508.92H1162.66V511.38H1174.28V512.44ZM1176.34 502.38H1158.9V501.32H1172.1C1172.46 499.96 1172.76 497.84 1172.82 496.48H1161.02V495.44H1174.18C1174.08 497.8 1173.74 500 1173.42 501.32H1176.34V502.38ZM1192.06 512.64H1190.74V494.86H1192.06V501.2H1195.06V502.34H1192.06V512.64ZM1189.88 506.16V507.24C1187.64 507.7 1184.14 507.92 1181.46 507.92H1178.7V496.04H1187.28V497.12H1180.02V506.82H1181.46C1184.14 506.82 1187.48 506.6 1189.88 506.16Z" fill="white"/>
<path d="M1168.74 388.08C1168.74 390.16 1166.8 391.96 1163.92 391.96C1161.02 391.96 1159.1 390.16 1159.1 388.08C1159.1 385.98 1161.02 384.18 1163.92 384.18C1166.8 384.18 1168.74 385.98 1168.74 388.08ZM1167.4 388.08C1167.4 386.6 1166.18 385.26 1163.92 385.26C1161.64 385.26 1160.44 386.6 1160.44 388.08C1160.44 389.56 1161.64 390.88 1163.92 390.88C1166.18 390.88 1167.4 389.56 1167.4 388.08ZM1172.94 401.64H1171.62V397.8H1167V396.72H1171.62V383.86H1172.94V401.64ZM1164.44 401.22H1163.12V394.62H1157.9V393.54H1164.44C1166.68 393.54 1169.16 393.34 1170.86 393.02V394.08C1169.24 394.44 1166.96 394.62 1164.44 394.62V401.22ZM1191.54 401.64H1190.22V391.34H1187.46V400.8H1186.16V384.16H1187.46V390.16H1190.22V383.86H1191.54V401.64ZM1185.24 395.54V396.62C1183.58 396.88 1181.14 397.04 1179.4 397.04H1177.42V385.2H1184.04V386.28H1178.7V395.94H1179.4C1181.14 395.94 1183.56 395.8 1185.24 395.54Z" fill="white"/>
<path d="M1239.14 475.64H1237.82V465.38H1235.06V474.8H1233.76V458.16H1235.06V464.22H1237.82V457.86H1239.14V475.64ZM1231.62 470.92H1224.8V459.16H1231.62V470.92ZM1230.28 469.84V460.24H1226.1V469.84H1230.28ZM1258.04 475.36H1245.48V470H1246.82V474.28H1258.04V475.36ZM1254.58 466.5V467.52C1252.5 467.98 1249.24 468.22 1246.44 468.22H1243.28V462.84H1250.02V459.66H1243.28V458.62H1251.34V463.86H1244.6V467.16H1246.44C1249.14 467.16 1252.38 466.92 1254.58 466.5ZM1257.38 471.2H1256.06V464.88H1252.46V463.82H1256.06V461.36H1252.46V460.32H1256.06V457.86H1257.38V471.2ZM1276 467.34H1274.66V462.96H1270.76C1270.48 465.08 1268.62 466.72 1265.98 466.72C1263.1 466.72 1261.16 464.8 1261.16 462.44C1261.16 460.08 1263.1 458.18 1265.98 458.18C1268.58 458.18 1270.44 459.78 1270.76 461.84H1274.66V457.86H1276V467.34ZM1277.94 474.78L1277.04 475.64C1275.66 474.86 1274.44 473.4 1273.96 472C1273.46 473.52 1272.34 474.82 1270.9 475.66L1270.02 474.82V475.44H1263.46V468.2H1264.78V470.6H1268.7V468.2H1270.02V474.78C1271.76 473.84 1273.28 472 1273.28 469.58V468.2H1274.66V469.58C1274.66 471.92 1276.24 473.86 1277.94 474.78ZM1269.44 462.44C1269.44 460.68 1268.16 459.26 1265.98 459.26C1263.78 459.26 1262.52 460.68 1262.52 462.44C1262.52 464.22 1263.78 465.64 1265.98 465.64C1268.16 465.64 1269.44 464.22 1269.44 462.44ZM1268.7 474.4V471.62H1264.78V474.4H1268.7ZM1293.46 475.64H1292.14V457.86H1293.46V464.2H1296.46V465.34H1293.46V475.64ZM1291.28 469.16V470.24C1289.04 470.7 1285.54 470.92 1282.86 470.92H1280.1V459.04H1288.68V460.12H1281.42V469.82H1282.86C1285.54 469.82 1288.88 469.6 1291.28 469.16Z" fill="white"/>
<path d="M1202.92 352.44H1190.84V348.06H1201.16V345.86H1190.84V344.82H1202.5V349.06H1192.16V351.38H1202.92V352.44ZM1202.54 343.88H1201.22V334.86H1202.54V338.3H1205.26V339.42H1202.54V343.88ZM1200.34 340.98V342.02C1198.3 342.48 1195 342.7 1192.22 342.7H1188.88V335.78H1197.5V336.82H1190.2V341.64H1192.22C1194.92 341.64 1198.14 341.42 1200.34 340.98ZM1222.12 349.3C1222.12 351.4 1219.68 352.94 1215.6 352.94C1211.52 352.94 1209.06 351.4 1209.06 349.3C1209.06 347.22 1211.52 345.68 1215.6 345.68C1219.68 345.68 1222.12 347.22 1222.12 349.3ZM1220.78 349.3C1220.78 347.7 1218.6 346.76 1215.6 346.76C1212.6 346.76 1210.42 347.7 1210.42 349.3C1210.42 350.92 1212.6 351.86 1215.6 351.86C1218.6 351.86 1220.78 350.92 1220.78 349.3ZM1207.16 344.96L1206.36 344C1210.22 342.68 1212.66 339.94 1213.06 336.84H1207.44V335.78H1214.56C1214.4 340.34 1211.04 343.52 1207.16 344.96ZM1218.38 344.86H1217.08V340.9H1214.12V339.8H1217.08V335.16H1218.38V344.86ZM1221.96 345.54H1220.62V334.86H1221.96V345.54ZM1240.04 352.64H1238.7V334.86H1240.04V352.64ZM1225.4 342.1C1225.4 337.84 1227.36 335.34 1229.96 335.34C1232.58 335.34 1234.52 337.84 1234.52 342.1C1234.52 346.38 1232.58 348.88 1229.96 348.88C1227.36 348.88 1225.4 346.38 1225.4 342.1ZM1233.18 342.1C1233.18 338.44 1231.84 336.42 1229.96 336.42C1228.1 336.42 1226.74 338.44 1226.74 342.1C1226.74 345.78 1228.1 347.8 1229.96 347.8C1231.84 347.8 1233.18 345.78 1233.18 342.1Z" fill="white"/>
<path d="M1285.88 284.52C1283.06 284.52 1281.16 282.64 1281.16 280.3C1281.16 277.98 1283.06 276.1 1285.88 276.1C1288.7 276.1 1290.6 277.98 1290.6 280.3C1290.6 282.64 1288.7 284.52 1285.88 284.52ZM1285.88 277.16C1283.74 277.16 1282.5 278.54 1282.5 280.3C1282.5 282.06 1283.74 283.46 1285.88 283.46C1288.02 283.46 1289.24 282.06 1289.24 280.3C1289.24 278.54 1288.02 277.16 1285.88 277.16ZM1295.92 293.44H1283.84V289.16H1294.16V287.06H1283.84V286.02H1295.5V290.16H1285.16V292.38H1295.92V293.44ZM1295.54 285.08H1294.22V275.86H1295.54V279.44H1298.26V280.56H1295.54V285.08ZM1314.3 293.44H1301.32V289.52H1312.52V287.8H1301.32V286.74H1306.92V284.8H1298.9V283.74H1316.34V284.8H1308.3V286.74H1313.86V290.52H1302.66V292.38H1314.3V293.44ZM1313.86 282.08H1301.34V276.02H1302.68V277.94H1312.52V276.02H1313.86V282.08ZM1312.52 281.04V278.96H1302.68V281.04H1312.52Z" fill="white"/>
<path d="M1314.92 154.54V155.62C1313.28 155.88 1310.84 156.04 1309.08 156.04H1307.02V144.2H1313.64V145.28H1308.3V154.94H1309.08C1310.84 154.94 1313.26 154.8 1314.92 154.54ZM1317.42 159.8H1316.1V150.22H1311.94V149.12H1316.1V143.16H1317.42V159.8ZM1321.14 160.64H1319.82V142.86H1321.14V160.64ZM1339.18 147.06C1339.18 149.36 1336.7 151.16 1332.56 151.16C1328.44 151.16 1325.96 149.36 1325.96 147.06C1325.96 144.78 1328.44 142.98 1332.56 142.98C1336.7 142.98 1339.18 144.78 1339.18 147.06ZM1337.84 147.06C1337.84 145.2 1335.58 144.06 1332.56 144.06C1329.58 144.06 1327.3 145.2 1327.3 147.06C1327.3 148.94 1329.58 150.08 1332.56 150.08C1335.58 150.08 1337.84 148.94 1337.84 147.06ZM1341.34 154.1H1333.3V160.64H1331.92V154.1H1323.88V153.02H1341.34V154.1Z" fill="white"/>
</g>
<defs>
<clipPath id="clip0_355_315">
<rect width="1920" height="1080" fill="white"/>
</clipPath>
</defs>
</svg>
