<svg width="230" height="76" viewBox="0 0 230 76" fill="none" xmlns="http://www.w3.org/2000/svg">
<rect x="0.5" y="0.5" width="229" height="75" fill="#F6C500"/>
<rect x="0.5" y="0.5" width="229" height="75" stroke="black"/>
<path d="M29.24 31.64H27.9V13.86H29.24V31.64ZM14.6 21.1C14.6 16.84 16.56 14.34 19.16 14.34C21.78 14.34 23.72 16.84 23.72 21.1C23.72 25.38 21.78 27.88 19.16 27.88C16.56 27.88 14.6 25.38 14.6 21.1ZM22.38 21.1C22.38 17.44 21.04 15.42 19.16 15.42C17.3 15.42 15.94 17.44 15.94 21.1C15.94 24.78 17.3 26.8 19.16 26.8C21.04 26.8 22.38 24.78 22.38 21.1ZM44.3384 30.8H43.0384V21.66H40.6184C40.4984 25.58 38.8384 27.86 36.5784 27.86C34.2384 27.86 32.5384 25.38 32.5384 21.16C32.5384 16.96 34.2384 14.48 36.5784 14.48C38.8184 14.48 40.4784 16.72 40.6184 20.54H43.0384V14.16H44.3384V30.8ZM36.5784 26.78C38.2584 26.78 39.3384 24.56 39.3384 21.16C39.3384 17.78 38.2584 15.56 36.5784 15.56C34.9384 15.56 33.8384 17.78 33.8384 21.16C33.8384 24.56 34.9384 26.78 36.5784 26.78ZM47.9584 31.64H46.6184V13.86H47.9584V31.64ZM58.9969 23.84C55.1169 23.84 52.4569 21.76 52.4569 19.04C52.4569 16.3 55.1169 14.22 58.9969 14.22C62.8969 14.22 65.5769 16.3 65.5769 19.04C65.5769 21.76 62.8969 23.84 58.9969 23.84ZM58.9969 15.3C56.0569 15.3 53.7769 16.8 53.7769 19.04C53.7769 21.28 56.0569 22.76 58.9969 22.76C61.9569 22.76 64.2369 21.28 64.2369 19.04C64.2369 16.8 61.9569 15.3 58.9969 15.3ZM67.7569 29.18H50.2769V28.1H54.5369V24.24H55.8969V28.1H62.0969V24.24H63.4569V28.1H67.7569V29.18ZM23.04 58.8L23.24 59.8C22.22 60.12 20.98 60.24 19.8 60.24C15.98 60.24 14.16 57.68 14.14 54.34C14.1 51.24 15.98 48.6 19.2 48.62C22.5 48.62 23.98 50.76 23.98 53.94V54.66H15.42C15.5 57.16 16.92 59.26 19.84 59.24C20.86 59.24 22.02 59.12 23.04 58.8ZM15.38 53.68H22.72C22.72 53.64 22.76 53.46 22.72 53.42C22.7 51.04 21.38 49.62 19.2 49.62C16.72 49.62 15.54 51.6 15.38 53.68ZM28.5397 59.66C28.5397 60.3 28.0397 60.78 27.3997 60.78C26.7197 60.78 26.2197 60.3 26.2197 59.66C26.2197 59.06 26.7197 58.54 27.3997 58.54C28.0397 58.54 28.5397 59.06 28.5397 59.66ZM40.028 59.42V57.92H39.908C39.128 59.14 37.688 59.86 36.128 59.86C33.068 59.88 31.328 57.5 31.328 54.24C31.328 51 33.108 48.62 36.208 48.64C37.788 48.64 39.088 49.3 39.888 50.48H39.988V48.9H41.268V59.6C41.268 62.68 39.148 64.24 36.108 64.24C35.048 64.24 33.668 64.08 32.648 63.74L32.928 62.72C33.928 63.1 35.048 63.24 36.108 63.24C38.728 63.24 40.028 61.82 40.028 59.42ZM39.968 55.22V53.12C39.968 51.16 38.228 49.64 36.348 49.64C33.968 49.64 32.588 51.6 32.588 54.24C32.588 56.88 33.848 58.86 36.268 58.86C38.208 58.86 39.968 57.32 39.968 55.22ZM46.9186 59.66C46.9186 60.3 46.4186 60.78 45.7786 60.78C45.0986 60.78 44.5986 60.3 44.5986 59.66C44.5986 59.06 45.0986 58.54 45.7786 58.54C46.4186 58.54 46.9186 59.06 46.9186 59.66ZM70.4119 61.64H69.0719V54.54H64.3519C63.5919 56.7 62.0919 57.88 60.3119 57.88C57.7119 57.88 55.7719 55.38 55.7719 51.1C55.7719 46.84 57.7119 44.34 60.3119 44.34C62.0719 44.34 63.5319 45.48 64.2919 47.54H69.0719V43.86H70.4119V61.64ZM60.3119 56.8C62.1719 56.8 63.5319 54.78 63.5319 51.1C63.5319 47.44 62.1719 45.42 60.3119 45.42C58.4519 45.42 57.1119 47.44 57.1119 51.1C57.1119 54.78 58.4519 56.8 60.3119 56.8ZM69.0719 53.46V48.62H64.5919C64.7719 49.36 64.8719 50.2 64.8719 51.1C64.8719 51.96 64.7919 52.76 64.6519 53.46H69.0719ZM88.3903 61.64H87.0503V43.86H88.3903V61.64ZM74.5303 57.84L73.6503 56.94C78.3703 54.64 81.0303 50.64 81.5503 46.12H74.7503V45.04H82.9903C82.7303 51.06 79.2303 55.46 74.5303 57.84ZM92.7088 57.84L91.8488 56.94C96.5688 54.64 99.2088 50.64 99.7088 46.12H92.9488V45.04H101.169C100.889 51.06 97.4288 55.46 92.7088 57.84ZM106.229 61.64H104.909V43.86H106.229V50.8H109.229V51.94H106.229V61.64ZM124.712 61.94C120.792 61.94 118.432 60.4 118.432 58.3C118.432 56.22 120.792 54.68 124.712 54.68C128.592 54.68 130.952 56.22 130.952 58.3C130.952 60.4 128.592 61.94 124.712 61.94ZM124.712 55.76C121.852 55.76 119.772 56.7 119.772 58.3C119.772 59.92 121.852 60.86 124.712 60.86C127.552 60.86 129.632 59.92 129.632 58.3C129.632 56.7 127.552 55.76 124.712 55.76ZM130.532 54.38H129.212V43.86H130.532V48.36H133.252V49.46H130.532V54.38ZM116.532 54.16L115.772 53.2C120.172 52.02 123.452 49.14 124.032 45.86H116.832V44.78H125.572C125.152 49.76 121.012 52.84 116.532 54.16ZM149.111 51.44H136.331V47.34H147.351V45.34H136.331V44.3H148.671V48.36H137.671V50.36H149.111V51.44ZM151.331 54.24H133.891V53.2H151.331V54.24ZM142.591 61.94C138.351 61.94 135.931 60.62 135.931 58.78C135.931 56.96 138.351 55.64 142.591 55.64C146.851 55.64 149.251 56.96 149.251 58.78C149.251 60.62 146.851 61.94 142.591 61.94ZM142.591 56.64C139.271 56.64 137.271 57.5 137.271 58.78C137.271 60.08 139.271 60.94 142.591 60.94C145.911 60.94 147.911 60.08 147.911 58.78C147.911 57.5 145.911 56.64 142.591 56.64ZM168.029 61.64H166.689V43.86H168.029V61.64ZM153.389 51.1C153.389 46.84 155.349 44.34 157.949 44.34C160.569 44.34 162.509 46.84 162.509 51.1C162.509 55.38 160.569 57.88 157.949 57.88C155.349 57.88 153.389 55.38 153.389 51.1ZM161.169 51.1C161.169 47.44 159.829 45.42 157.949 45.42C156.089 45.42 154.729 47.44 154.729 51.1C154.729 54.78 156.089 56.8 157.949 56.8C159.829 56.8 161.169 54.78 161.169 51.1ZM186.328 61.64H185.008V51.48H182.448V60.8H181.168V44.16H182.448V50.32H185.008V43.86H186.328V61.64ZM180.228 55.82V56.9C178.588 57.16 176.128 57.32 174.408 57.32H171.988V50.54H177.448V46.14H171.988V45.06H178.748V51.6H173.288V56.22H174.408C176.128 56.22 178.568 56.08 180.228 55.82ZM197.786 53.84C193.906 53.84 191.246 51.76 191.246 49.04C191.246 46.3 193.906 44.22 197.786 44.22C201.686 44.22 204.366 46.3 204.366 49.04C204.366 51.76 201.686 53.84 197.786 53.84ZM197.786 45.3C194.846 45.3 192.566 46.8 192.566 49.04C192.566 51.28 194.846 52.76 197.786 52.76C200.746 52.76 203.026 51.28 203.026 49.04C203.026 46.8 200.746 45.3 197.786 45.3ZM206.546 59.18H189.066V58.1H193.326V54.24H194.686V58.1H200.886V54.24H202.246V58.1H206.546V59.18ZM212.024 56.6H210.864V55.74C210.864 53.92 211.304 52.84 213.084 51.38C214.224 50.44 215.004 49.22 215.004 48.08C215.004 46.2 213.444 45.4 211.784 45.4C210.804 45.4 209.324 45.8 208.284 46.42L207.804 45.52C208.884 44.88 210.524 44.38 211.884 44.38C214.144 44.38 216.284 45.44 216.284 48.04C216.284 49.5 215.524 50.74 214.164 51.88C212.424 53.38 212.024 54.1 212.024 55.82V56.6ZM212.584 59.84C212.584 60.46 212.084 60.94 211.464 60.94C210.784 60.94 210.304 60.46 210.304 59.84C210.304 59.26 210.784 58.74 211.464 58.74C212.084 58.74 212.584 59.26 212.584 59.84Z" fill="white"/>
</svg>
