<svg width="208" height="76" viewBox="0 0 208 76" fill="none" xmlns="http://www.w3.org/2000/svg">
<rect x="0.5" y="0.5" width="207" height="75" fill="#F6C500"/>
<rect x="0.5" y="0.5" width="207" height="75" stroke="black"/>
<path d="M28.82 31.64H27.48V21H22.02V19.92H27.48V13.86H28.82V31.64ZM25.98 25.16V26.24C23.76 26.7 20.26 26.92 17.58 26.92H15.14V15.04H23.76V16.12H16.48V25.82H17.58C20.26 25.82 23.62 25.6 25.98 25.16ZM46.6584 31.64H45.3384V13.86H46.6584V20.6H49.6584V21.74H46.6584V31.64ZM44.4784 25.56V26.66C42.2384 27.1 38.7384 27.32 36.0584 27.32H33.0784V20.5H40.2784V16.02H33.0784V14.94H41.6184V21.56H34.4384V26.22H36.0584C38.7384 26.22 42.0784 26.02 44.4784 25.56ZM67.7569 29.18H50.2769V28.1H56.8369V21.24H58.2369V28.1H67.7569V29.18ZM64.1769 25.44H62.7969C63.5369 22.52 63.9969 19.02 64.0769 16.26H52.4169V15.18H65.4969C65.3969 18.72 64.8569 22.46 64.1769 25.44ZM78.3553 18.44H69.0953V17.36H78.3553V18.44ZM76.2153 15.58H71.1953V14.5H76.2153V15.58ZM84.8553 31.64H83.5153V22.24H80.8353V30.8H79.5353V14.16H80.8353V21.06H83.5153V13.86H84.8553V31.64ZM69.7153 23.88C69.7153 21.62 71.4753 19.92 73.6953 19.92C75.9353 19.92 77.7153 21.62 77.7153 23.88C77.7153 26.14 75.9353 27.84 73.6953 27.84C71.4753 27.84 69.7153 26.14 69.7153 23.88ZM76.4153 23.88C76.4153 22.2 75.3553 20.96 73.6953 20.96C72.0753 20.96 71.0153 22.2 71.0153 23.88C71.0153 25.54 72.0753 26.8 73.6953 26.8C75.3553 26.8 76.4153 25.54 76.4153 23.88ZM95.7938 23.84C91.9138 23.84 89.2538 21.76 89.2538 19.04C89.2538 16.3 91.9138 14.22 95.7938 14.22C99.6938 14.22 102.374 16.3 102.374 19.04C102.374 21.76 99.6938 23.84 95.7938 23.84ZM95.7938 15.3C92.8538 15.3 90.5738 16.8 90.5738 19.04C90.5738 21.28 92.8538 22.76 95.7938 22.76C98.7538 22.76 101.034 21.28 101.034 19.04C101.034 16.8 98.7538 15.3 95.7938 15.3ZM104.554 29.18H87.0738V28.1H91.3338V24.24H92.6938V28.1H98.8938V24.24H100.254V28.1H104.554V29.18ZM23.04 58.8L23.24 59.8C22.22 60.12 20.98 60.24 19.8 60.24C15.98 60.24 14.16 57.68 14.14 54.34C14.1 51.24 15.98 48.6 19.2 48.62C22.5 48.62 23.98 50.76 23.98 53.94V54.66H15.42C15.5 57.16 16.92 59.26 19.84 59.24C20.86 59.24 22.02 59.12 23.04 58.8ZM15.38 53.68H22.72C22.72 53.64 22.76 53.46 22.72 53.42C22.7 51.04 21.38 49.62 19.2 49.62C16.72 49.62 15.54 51.6 15.38 53.68ZM28.5397 59.66C28.5397 60.3 28.0397 60.78 27.3997 60.78C26.7197 60.78 26.2197 60.3 26.2197 59.66C26.2197 59.06 26.7197 58.54 27.3997 58.54C28.0397 58.54 28.5397 59.06 28.5397 59.66ZM40.028 59.42V57.92H39.908C39.128 59.14 37.688 59.86 36.128 59.86C33.068 59.88 31.328 57.5 31.328 54.24C31.328 51 33.108 48.62 36.208 48.64C37.788 48.64 39.088 49.3 39.888 50.48H39.988V48.9H41.268V59.6C41.268 62.68 39.148 64.24 36.108 64.24C35.048 64.24 33.668 64.08 32.648 63.74L32.928 62.72C33.928 63.1 35.048 63.24 36.108 63.24C38.728 63.24 40.028 61.82 40.028 59.42ZM39.968 55.22V53.12C39.968 51.16 38.228 49.64 36.348 49.64C33.968 49.64 32.588 51.6 32.588 54.24C32.588 56.88 33.848 58.86 36.268 58.86C38.208 58.86 39.968 57.32 39.968 55.22ZM46.9186 59.66C46.9186 60.3 46.4186 60.78 45.7786 60.78C45.0986 60.78 44.5986 60.3 44.5986 59.66C44.5986 59.06 45.0986 58.54 45.7786 58.54C46.4186 58.54 46.9186 59.06 46.9186 59.66ZM70.0519 61.44H57.0919V57.42H68.2919V55.6H57.0919V54.54H62.6919V52.5H54.6719V51.44H72.1119V52.5H64.0719V54.54H69.6319V58.42H58.4319V60.38H70.0519V61.44ZM70.0519 49.7H57.1119V44.44H69.7119V45.48H58.4519V48.64H70.0519V49.7ZM88.8103 61.64H87.4703V43.86H88.8103V61.64ZM74.1703 51.1C74.1703 46.84 76.1303 44.34 78.7303 44.34C81.3503 44.34 83.2903 46.84 83.2903 51.1C83.2903 55.38 81.3503 57.88 78.7303 57.88C76.1303 57.88 74.1703 55.38 74.1703 51.1ZM81.9503 51.1C81.9503 47.44 80.6103 45.42 78.7303 45.42C76.8703 45.42 75.5103 47.44 75.5103 51.1C75.5103 54.78 76.8703 56.8 78.7303 56.8C80.6103 56.8 81.9503 54.78 81.9503 51.1ZM108.954 56.5L108.134 57.46C105.754 56.16 103.534 53.74 102.814 51.46C102.074 53.98 100.174 56.3 97.4538 57.98L96.5337 57.14C99.6538 55.34 102.054 52.24 102.054 48V44.64H103.494V48C103.494 52.08 106.154 55.12 108.954 56.5ZM112.074 61.64H110.734V43.86H112.074V50.74H115.074V51.88H112.074V61.64ZM122.252 61.24H120.912V53.32H115.892V52.24H122.432C123.112 52.24 123.832 52.22 124.512 52.2C124.912 50.2 125.172 47.48 125.252 45.82H117.092V44.74H126.672C126.572 47.04 126.252 50.1 125.892 52.1C126.972 52.02 127.992 51.9 128.852 51.74V52.8C127.192 53.16 124.852 53.32 122.252 53.32V61.24ZM130.932 61.64H129.612V43.86H130.932V61.64ZM149.211 61.64H147.871V51H142.411V49.92H147.871V43.86H149.211V61.64ZM146.371 55.16V56.24C144.151 56.7 140.651 56.92 137.971 56.92H135.531V45.04H144.151V46.12H136.871V55.82H137.971C140.651 55.82 144.011 55.6 146.371 55.16ZM167.929 61.64H166.609V51.48H164.049V60.8H162.769V44.16H164.049V50.32H166.609V43.86H167.929V61.64ZM161.829 55.82V56.9C160.189 57.16 157.729 57.32 156.009 57.32H153.589V50.54H159.049V46.14H153.589V45.06H160.349V51.6H154.889V56.22H156.009C157.729 56.22 160.169 56.08 161.829 55.82ZM179.388 53.84C175.508 53.84 172.848 51.76 172.848 49.04C172.848 46.3 175.508 44.22 179.388 44.22C183.288 44.22 185.968 46.3 185.968 49.04C185.968 51.76 183.288 53.84 179.388 53.84ZM179.388 45.3C176.448 45.3 174.168 46.8 174.168 49.04C174.168 51.28 176.448 52.76 179.388 52.76C182.348 52.76 184.628 51.28 184.628 49.04C184.628 46.8 182.348 45.3 179.388 45.3ZM188.148 59.18H170.668V58.1H174.928V54.24H176.288V58.1H182.488V54.24H183.848V58.1H188.148V59.18ZM192.446 59.66C192.446 60.3 191.946 60.78 191.306 60.78C190.626 60.78 190.126 60.3 190.126 59.66C190.126 59.06 190.626 58.54 191.306 58.54C191.946 58.54 192.446 59.06 192.446 59.66Z" fill="white"/>
</svg>
