<svg width="302" height="46" viewBox="0 0 302 46" fill="none" xmlns="http://www.w3.org/2000/svg">
<rect x="0.5" y="0.5" width="301" height="45" fill="#F6C500"/>
<rect x="0.5" y="0.5" width="301" height="45" stroke="black"/>
<path d="M23.04 28.8L23.24 29.8C22.22 30.12 20.98 30.24 19.8 30.24C15.98 30.24 14.16 27.68 14.14 24.34C14.1 21.24 15.98 18.6 19.2 18.62C22.5 18.62 23.98 20.76 23.98 23.94V24.66H15.42C15.5 27.16 16.92 29.26 19.84 29.24C20.86 29.24 22.02 29.12 23.04 28.8ZM15.38 23.68H22.72C22.72 23.64 22.76 23.46 22.72 23.42C22.7 21.04 21.38 19.62 19.2 19.62C16.72 19.62 15.54 21.6 15.38 23.68ZM28.5397 29.66C28.5397 30.3 28.0397 30.78 27.3997 30.78C26.7197 30.78 26.2197 30.3 26.2197 29.66C26.2197 29.06 26.7197 28.54 27.3997 28.54C28.0397 28.54 28.5397 29.06 28.5397 29.66ZM40.028 29.42V27.92H39.908C39.128 29.14 37.688 29.86 36.128 29.86C33.068 29.88 31.328 27.5 31.328 24.24C31.328 21 33.108 18.62 36.208 18.64C37.788 18.64 39.088 19.3 39.888 20.48H39.988V18.9H41.268V29.6C41.268 32.68 39.148 34.24 36.108 34.24C35.048 34.24 33.668 34.08 32.648 33.74L32.928 32.72C33.928 33.1 35.048 33.24 36.108 33.24C38.728 33.24 40.028 31.82 40.028 29.42ZM39.968 25.22V23.12C39.968 21.16 38.228 19.64 36.348 19.64C33.968 19.64 32.588 21.6 32.588 24.24C32.588 26.88 33.848 28.86 36.268 28.86C38.208 28.86 39.968 27.32 39.968 25.22ZM46.9186 29.66C46.9186 30.3 46.4186 30.78 45.7786 30.78C45.0986 30.78 44.5986 30.3 44.5986 29.66C44.5986 29.06 45.0986 28.54 45.7786 28.54C46.4186 28.54 46.9186 29.06 46.9186 29.66ZM70.4119 31.64H69.0719V24.54H64.3519C63.5919 26.7 62.0919 27.88 60.3119 27.88C57.7119 27.88 55.7719 25.38 55.7719 21.1C55.7719 16.84 57.7119 14.34 60.3119 14.34C62.0719 14.34 63.5319 15.48 64.2919 17.54H69.0719V13.86H70.4119V31.64ZM60.3119 26.8C62.1719 26.8 63.5319 24.78 63.5319 21.1C63.5319 17.44 62.1719 15.42 60.3119 15.42C58.4519 15.42 57.1119 17.44 57.1119 21.1C57.1119 24.78 58.4519 26.8 60.3119 26.8ZM69.0719 23.46V18.62H64.5919C64.7719 19.36 64.8719 20.2 64.8719 21.1C64.8719 21.96 64.7919 22.76 64.6519 23.46H69.0719ZM88.3903 31.64H87.0503V13.86H88.3903V31.64ZM74.5303 27.84L73.6503 26.94C78.3703 24.64 81.0303 20.64 81.5503 16.12H74.7503V15.04H82.9903C82.7303 21.06 79.2303 25.46 74.5303 27.84ZM112.094 31.44H100.434V24.86H112.094V31.44ZM110.754 30.36V25.94H101.754V30.36H110.754ZM98.1138 24.02L97.3738 23.06C101.774 21.94 105.074 19.08 105.654 15.86H98.4338V14.78H107.174C106.754 19.7 102.614 22.68 98.1138 24.02ZM112.134 23.9H110.814V13.86H112.134V18.14H114.854V19.26H112.134V23.9ZM131.732 31.64H130.412V21.58H127.712V30.8H126.392V14.16H127.712V20.42H130.412V13.86H131.732V31.64ZM125.672 26.56L124.852 27.46C122.912 26.12 121.452 24.14 120.832 22.14C120.252 24.36 118.572 26.52 116.292 28.06L115.332 27.24C118.092 25.56 120.112 22.36 120.112 18.62V16.24H116.692V15.16H124.772V16.24H121.512V18.62C121.512 22.44 123.492 25.2 125.672 26.56ZM155.356 31.64H154.036V21.84H151.136V30.8H149.816V14.16H151.136V20.66H154.036V13.86H155.356V31.64ZM140.716 27.96L139.716 27.1C142.396 25.64 144.196 23.42 145.256 20.92C144.116 21.06 142.796 21.1 141.556 21.1H140.416V20.02H141.476C142.856 20.02 144.456 19.98 145.656 19.82C146.036 18.66 146.236 17.44 146.316 16.24H140.936V15.16H147.756C147.696 20.82 145.036 25.4 140.716 27.96ZM173.234 31.64H171.894V21.02H168.454V19.9H171.894V13.86H173.234V31.64ZM170.394 25.56V26.66C168.174 27.1 164.674 27.32 161.994 27.32H159.354V20.5H165.914V16.02H159.354V14.94H167.254V21.56H160.674V26.22H161.994C164.674 26.22 168.034 26.02 170.394 25.56ZM191.733 31.44H179.653V27.16H189.973V25.08H179.653V24.02H191.313V28.18H180.973V30.36H191.733V31.44ZM191.353 23.08H190.033V13.86H191.353V17.88H194.073V18.98H191.353V23.08ZM184.833 15.82H177.653V14.78H186.372C185.993 19.34 181.533 22.28 177.333 23.28L176.593 22.32C180.753 21.44 184.173 18.86 184.833 15.82ZM212.196 26.5L211.376 27.46C208.996 26.16 206.776 23.74 206.056 21.46C205.316 23.98 203.416 26.3 200.696 27.98L199.776 27.14C202.896 25.34 205.296 22.24 205.296 18V14.64H206.736V18C206.736 22.08 209.396 25.12 212.196 26.5ZM215.316 31.64H213.976V13.86H215.316V20.74H218.316V21.88H215.316V31.64ZM231.574 21.42V22.44C229.534 22.9 226.234 23.14 223.454 23.14H219.994V18.3H227.134V15.66H219.994V14.62H228.474V19.32H221.334V22.08H223.454C226.154 22.08 229.374 21.84 231.574 21.42ZM233.734 31.44H222.074V25.08H233.734V31.44ZM232.394 30.36V26.14H223.394V30.36H232.394ZM233.774 24.12H232.454V13.86H233.774V17.86H236.494V18.96H233.774V24.12ZM260.378 30.82L259.538 31.72C257.978 30.92 256.378 29.4 255.858 27.94C255.338 29.34 253.898 30.9 252.498 31.66C251.078 30.9 249.618 29.34 249.118 27.94C248.578 29.4 246.998 30.92 245.438 31.72L244.598 30.82C246.478 29.96 248.438 27.92 248.438 25.76V24.98H249.778V25.76C249.778 27.6 251.258 29.48 252.498 30.26C253.718 29.48 255.198 27.6 255.198 25.76V24.98H256.538V25.76C256.538 27.92 258.518 29.96 260.378 30.82ZM253.238 18.62C253.238 21.08 251.278 23.04 248.438 23.04C245.558 23.04 243.618 21.08 243.618 18.62C243.618 16.16 245.558 14.18 248.438 14.18C251.278 14.18 253.238 16.16 253.238 18.62ZM251.898 18.62C251.898 16.74 250.618 15.26 248.438 15.26C246.238 15.26 244.978 16.74 244.978 18.62C244.978 20.48 246.238 21.96 248.438 21.96C250.618 21.96 251.898 20.48 251.898 18.62ZM258.458 24.2H257.118V13.86H258.458V24.2ZM276.436 18.06C276.436 20.36 273.956 22.16 269.816 22.16C265.696 22.16 263.216 20.36 263.216 18.06C263.216 15.78 265.696 13.98 269.816 13.98C273.956 13.98 276.436 15.78 276.436 18.06ZM275.096 18.06C275.096 16.2 272.836 15.06 269.816 15.06C266.836 15.06 264.556 16.2 264.556 18.06C264.556 19.94 266.836 21.08 269.816 21.08C272.836 21.08 275.096 19.94 275.096 18.06ZM278.596 25.1H270.556V31.64H269.176V25.1H261.136V24.02H278.596V25.1ZM284.095 26.6H282.935V25.74C282.935 23.92 283.375 22.84 285.155 21.38C286.295 20.44 287.075 19.22 287.075 18.08C287.075 16.2 285.515 15.4 283.855 15.4C282.875 15.4 281.395 15.8 280.355 16.42L279.875 15.52C280.955 14.88 282.595 14.38 283.955 14.38C286.215 14.38 288.355 15.44 288.355 18.04C288.355 19.5 287.595 20.74 286.235 21.88C284.495 23.38 284.095 24.1 284.095 25.82V26.6ZM284.655 29.84C284.655 30.46 284.155 30.94 283.535 30.94C282.855 30.94 282.375 30.46 282.375 29.84C282.375 29.26 282.855 28.74 283.535 28.74C284.155 28.74 284.655 29.26 284.655 29.84Z" fill="white"/>
</svg>
