<svg width="268" height="46" viewBox="0 0 268 46" fill="none" xmlns="http://www.w3.org/2000/svg">
<rect x="0.5" y="0.5" width="267" height="45" fill="#F6C500"/>
<rect x="0.5" y="0.5" width="267" height="45" stroke="black"/>
<path d="M23.04 28.8L23.24 29.8C22.22 30.12 20.98 30.24 19.8 30.24C15.98 30.24 14.16 27.68 14.14 24.34C14.1 21.24 15.98 18.6 19.2 18.62C22.5 18.62 23.98 20.76 23.98 23.94V24.66H15.42C15.5 27.16 16.92 29.26 19.84 29.24C20.86 29.24 22.02 29.12 23.04 28.8ZM15.38 23.68H22.72C22.72 23.64 22.76 23.46 22.72 23.42C22.7 21.04 21.38 19.62 19.2 19.62C16.72 19.62 15.54 21.6 15.38 23.68ZM28.5397 29.66C28.5397 30.3 28.0397 30.78 27.3997 30.78C26.7197 30.78 26.2197 30.3 26.2197 29.66C26.2197 29.06 26.7197 28.54 27.3997 28.54C28.0397 28.54 28.5397 29.06 28.5397 29.66ZM40.028 29.42V27.92H39.908C39.128 29.14 37.688 29.86 36.128 29.86C33.068 29.88 31.328 27.5 31.328 24.24C31.328 21 33.108 18.62 36.208 18.64C37.788 18.64 39.088 19.3 39.888 20.48H39.988V18.9H41.268V29.6C41.268 32.68 39.148 34.24 36.108 34.24C35.048 34.24 33.668 34.08 32.648 33.74L32.928 32.72C33.928 33.1 35.048 33.24 36.108 33.24C38.728 33.24 40.028 31.82 40.028 29.42ZM39.968 25.22V23.12C39.968 21.16 38.228 19.64 36.348 19.64C33.968 19.64 32.588 21.6 32.588 24.24C32.588 26.88 33.848 28.86 36.268 28.86C38.208 28.86 39.968 27.32 39.968 25.22ZM46.9186 29.66C46.9186 30.3 46.4186 30.78 45.7786 30.78C45.0986 30.78 44.5986 30.3 44.5986 29.66C44.5986 29.06 45.0986 28.54 45.7786 28.54C46.4186 28.54 46.9186 29.06 46.9186 29.66ZM65.0119 18.84C65.0119 21.4 63.0119 23.44 60.1519 23.44C57.2519 23.44 55.2919 21.4 55.2919 18.84C55.2919 16.24 57.2519 14.18 60.1519 14.18C63.0119 14.18 65.0119 16.24 65.0119 18.84ZM60.1519 22.36C62.3319 22.36 63.6519 20.8 63.6519 18.82C63.6519 16.82 62.3319 15.26 60.1519 15.26C57.9319 15.26 56.6319 16.82 56.6319 18.82C56.6319 20.8 57.9319 22.36 60.1519 22.36ZM70.4519 31.36H58.0719V25.44H59.4119V30.28H70.4519V31.36ZM69.7119 27.06H68.3919V13.86H69.7119V18.34H72.4319V19.46H69.7119V27.06ZM85.7503 21.1V22.16C83.6703 22.62 80.4103 22.86 77.6103 22.86H74.5503V14.38H75.8703V21.76H77.6103C80.3103 21.76 83.5503 21.54 85.7503 21.1ZM82.4303 31.94C78.3903 31.94 75.9503 30.44 75.9503 28.4C75.9503 26.38 78.3903 24.88 82.4303 24.88C86.4503 24.88 88.8903 26.38 88.8903 28.4C88.8903 30.44 86.4503 31.94 82.4303 31.94ZM82.4303 25.96C79.4703 25.96 77.2903 26.86 77.2903 28.4C77.2903 29.96 79.4703 30.86 82.4303 30.86C85.3903 30.86 87.5503 29.96 87.5503 28.4C87.5503 26.86 85.3903 25.96 82.4303 25.96ZM88.5503 24.74H87.2303V19.6H81.6703V18.52H87.2303V16.64H81.6703V15.56H87.2303V13.86H88.5503V24.74ZM100.249 15.46H94.7088V14.38H100.249V15.46ZM106.569 31.64H105.249V13.86H106.569V21.2H109.449V22.34H106.569V31.64ZM102.089 24.16C102.089 26.5 100.249 28.38 97.5488 28.38C94.8488 28.38 93.0088 26.5 93.0088 24.16C93.0088 21.82 94.8488 19.92 97.5488 19.92C100.249 19.92 102.089 21.8 102.089 24.16ZM100.769 24.16C100.769 22.28 99.5088 20.98 97.5688 20.98C95.6088 20.98 94.3488 22.26 94.3488 24.16C94.3488 26.04 95.6088 27.32 97.5688 27.32C99.5088 27.32 100.769 26.04 100.769 24.16ZM102.989 18.42H92.0088V17.34H102.989V18.42ZM125.607 31.64H124.267V13.86H125.607V31.64ZM121.927 26.5L121.127 27.46C118.747 26.16 116.507 23.74 115.807 21.46C115.067 23.98 113.167 26.3 110.427 27.98L109.527 27.14C112.607 25.34 115.047 22.24 115.047 18V14.64H116.467V18C116.467 22.08 119.147 25.12 121.927 26.5ZM143.546 18.06C143.546 20.36 141.066 22.16 136.926 22.16C132.806 22.16 130.326 20.36 130.326 18.06C130.326 15.78 132.806 13.98 136.926 13.98C141.066 13.98 143.546 15.78 143.546 18.06ZM142.206 18.06C142.206 16.2 139.946 15.06 136.926 15.06C133.946 15.06 131.666 16.2 131.666 18.06C131.666 19.94 133.946 21.08 136.926 21.08C139.946 21.08 142.206 19.94 142.206 18.06ZM145.706 25.1H137.666V31.64H136.286V25.1H128.246V24.02H145.706V25.1ZM147.344 21.1C147.344 16.84 149.284 14.34 151.884 14.34C154.484 14.34 156.444 16.84 156.444 21.1C156.444 25.38 154.484 27.88 151.884 27.88C149.284 27.88 147.344 25.38 147.344 21.1ZM155.104 21.1C155.104 17.44 153.744 15.42 151.884 15.42C150.024 15.42 148.684 17.44 148.684 21.1C148.684 24.78 150.024 26.8 151.884 26.8C153.744 26.8 155.104 24.78 155.104 21.1ZM161.424 31.64H160.104V13.86H161.424V17.52H164.324V18.66H161.424V23.42H164.324V24.56H161.424V31.64ZM168.423 29.66C168.423 30.3 167.923 30.78 167.283 30.78C166.603 30.78 166.103 30.3 166.103 29.66C166.103 29.06 166.603 28.54 167.283 28.54C167.923 28.54 168.423 29.06 168.423 29.66ZM191.216 24.82H189.896V13.86H191.216V18.02H193.936V19.14H191.216V24.82ZM185.396 31.94C181.476 31.94 179.116 30.5 179.116 28.54C179.116 26.6 181.476 25.16 185.396 25.16C189.276 25.16 191.636 26.6 191.636 28.54C191.636 30.5 189.276 31.94 185.396 31.94ZM185.396 26.24C182.536 26.24 180.456 27.1 180.456 28.54C180.456 30 182.536 30.86 185.396 30.86C188.236 30.86 190.316 30 190.316 28.54C190.316 27.1 188.236 26.24 185.396 26.24ZM185.876 23.02H177.436V14.48H178.776V17.64H184.536V14.48H185.876V23.02ZM184.536 21.94V18.7H178.776V21.94H184.536ZM208.214 30.38V27.58H199.214V30.38H208.214ZM209.574 31.44H197.894V24H199.214V26.56H208.234V24H209.574V31.44ZM209.614 23.14H208.294V13.86H209.614V17.98H212.334V19.08H209.614V23.14ZM203.094 15.82H195.914V14.78H204.634C204.254 19.34 199.794 22.28 195.594 23.28L194.854 22.32C199.014 21.44 202.434 18.86 203.094 15.82ZM229.553 23.22L228.833 24.2C225.953 23.28 222.893 21.2 221.673 18.54C220.473 21.2 217.433 23.28 214.533 24.2L213.793 23.22C217.173 22.24 220.973 19.4 220.973 16.08V14.6H222.393V16.08C222.393 19.4 226.193 22.24 229.553 23.22ZM230.433 29.18H212.953V28.1H220.993V23.3H222.373V28.1H230.433V29.18ZM232.051 21.1C232.051 16.84 233.991 14.34 236.591 14.34C239.191 14.34 241.151 16.84 241.151 21.1C241.151 25.38 239.191 27.88 236.591 27.88C233.991 27.88 232.051 25.38 232.051 21.1ZM239.811 21.1C239.811 17.44 238.451 15.42 236.591 15.42C234.731 15.42 233.391 17.44 233.391 21.1C233.391 24.78 234.731 26.8 236.591 26.8C238.451 26.8 239.811 24.78 239.811 21.1ZM246.131 31.64H244.811V13.86H246.131V17.52H249.031V18.66H246.131V23.42H249.031V24.56H246.131V31.64ZM253.13 29.66C253.13 30.3 252.63 30.78 251.99 30.78C251.31 30.78 250.81 30.3 250.81 29.66C250.81 29.06 251.31 28.54 251.99 28.54C252.63 28.54 253.13 29.06 253.13 29.66Z" fill="white"/>
</svg>
