<svg width="890" height="140" viewBox="0 0 890 140" fill="none" xmlns="http://www.w3.org/2000/svg">
<rect x="0.5" y="0.5" width="889" height="139" fill="white"/>
<rect x="0.5" y="0.5" width="889" height="139" stroke="black"/>
<path d="M31.55 29.375L30.5 30.475C29.025 29.55 27.7 27.925 27.175 26.375C26.7 28.1 25.15 29.95 23.65 31.025C22.125 29.95 20.7 28.15 20.1 26.425C19.55 28.1 18.2 29.825 16.525 30.975L15.3 29.975C17.3 28.675 19.3 26.25 19.3 23.125V22.525H16.675V21.225H23.225V22.525H20.925V23.125C20.925 25.775 22.225 27.825 23.65 29.15C25.025 27.825 26.35 25.775 26.35 23.125V22.525H24.05V21.225H30.55V22.525H27.975V23.125C27.975 26.075 29.775 28.35 31.55 29.375ZM34.975 42.05H27.95V32.775H29.55V35.975H33.4V32.775H34.975V42.05ZM27.075 40.45V41.75C25.525 42 23.7 42.05 22.05 42.05H19.125V36.7H24.825V34.075H19.1V32.775H26.45V37.95H20.8V40.725H22.125C23.65 40.725 25.475 40.65 27.075 40.45ZM35.075 31.6H33.45V20.075H35.075V24.5H38.075V25.875H35.075V31.6ZM33.4 40.725V37.25H29.55V40.725H33.4ZM60.448 39.225H38.598V37.875H46.798V29.3H48.548V37.875H60.448V39.225ZM55.973 34.55H54.248C55.173 30.9 55.748 26.525 55.848 23.075H41.273V21.725H57.623C57.498 26.15 56.823 30.825 55.973 34.55ZM87.4523 36.55H85.8023V20.075H87.4523V25.6H90.8523V27H87.4523V36.55ZM88.3773 41.95H72.9023V34.55H74.5773V40.6H88.3773V41.95ZM84.7023 29.3V30.625C82.1523 31.2 78.0273 31.475 74.5523 31.475H70.3773V21.225H81.1523V22.55H72.0273V30.1H74.5523C77.9273 30.1 81.9523 29.825 84.7023 29.3ZM110.45 36.55H108.8V20.075H110.45V25.6H113.85V27H110.45V36.55ZM111.375 41.95H95.9004V34.55H97.5754V40.6H111.375V41.95ZM107.7 29.3V30.625C105.15 31.2 101.025 31.475 97.5504 31.475H93.3754V21.225H104.15V22.55H95.0254V30.1H97.5504C100.925 30.1 104.95 29.825 107.7 29.3ZM133.723 36.75H132.048V20.075H133.723V26.925H137.123V28.325H133.723V36.75ZM134.648 41.95H119.173V35.5H120.823V40.6H134.648V41.95ZM129.148 24.8H115.473V23.5H129.148V24.8ZM125.848 21.475H118.723V20.175H125.848V21.475ZM122.348 33.825C118.898 33.825 116.673 32.1 116.673 29.975C116.673 27.85 118.898 26.125 122.348 26.125C125.773 26.125 128.023 27.85 128.023 29.975C128.023 32.1 125.773 33.825 122.348 33.825ZM122.348 27.4C119.823 27.4 118.348 28.5 118.348 29.975C118.348 31.475 119.823 32.575 122.348 32.575C124.873 32.575 126.348 31.45 126.348 29.975C126.348 28.5 124.873 27.4 122.348 27.4ZM166.503 39.375H144.653V38.025H154.703V34.65C150.803 34.475 148.353 32.95 148.353 30.9C148.353 28.725 151.178 27.15 155.553 27.15C159.978 27.15 162.778 28.725 162.778 30.9C162.778 32.95 160.303 34.475 156.428 34.65V38.025H166.503V39.375ZM161.103 30.9C161.103 29.325 158.628 28.475 155.553 28.475C152.528 28.475 150.028 29.325 150.028 30.9C150.028 32.475 152.528 33.35 155.553 33.35C158.628 33.35 161.103 32.475 161.103 30.9ZM164.478 25.7H146.653V24.35H164.478V25.7ZM160.178 22.175H150.953V20.825H160.178V22.175ZM187.551 24.025H169.576V22.775H187.551V24.025ZM182.951 21.3H174.201V20.025H182.951V21.3ZM178.551 30.375C174.326 30.375 171.176 29.55 171.176 27.7C171.176 25.825 174.326 25.025 178.551 25.025C182.801 25.025 185.926 25.825 185.926 27.7C185.926 29.55 182.801 30.375 178.551 30.375ZM178.551 26.25C175.351 26.25 172.876 26.725 172.876 27.7C172.876 28.65 175.351 29.15 178.551 29.15C181.776 29.15 184.251 28.65 184.251 27.7C184.251 26.725 181.776 26.25 178.551 26.25ZM186.401 42.05H170.726V34.7H172.401V36.85H184.726V34.7H186.401V42.05ZM184.701 40.775V38.1H172.401V40.775H184.701ZM189.476 33.175H167.676V31.9H189.476V33.175ZM209.399 42.3H207.724V20.075H209.399V29.1H212.949V30.525H209.399V42.3ZM206.774 35.4V36.7C204.449 37.2 201.624 37.35 198.324 37.35H190.849V36H196.099V28.15H197.774V36H198.424C201.499 36 204.449 35.825 206.774 35.4ZM203.249 32.725H201.599C202.124 30.2 202.674 25.875 202.624 22.8H192.149V21.45H204.374C204.349 24.9 203.899 29.675 203.249 32.725ZM240.328 31.6H238.653V20.075H240.328V31.6ZM240.828 42.05H225.453V36.7H238.628V34.075H225.453V32.775H240.303V37.95H227.128V40.725H240.828V42.05ZM227.703 30.9C224.153 30.9 221.778 28.55 221.778 25.625C221.778 22.725 224.153 20.375 227.703 20.375C231.203 20.375 233.578 22.725 233.578 25.625C233.578 28.55 231.203 30.9 227.703 30.9ZM227.703 21.7C225.003 21.7 223.478 23.425 223.478 25.625C223.478 27.825 225.003 29.575 227.703 29.575C230.378 29.575 231.903 27.825 231.903 25.625C231.903 23.425 230.378 21.7 227.703 21.7ZM262.401 30.5H246.751V20.55H248.426V23.825H260.726V20.55H262.401V30.5ZM260.726 29.15V25.15H248.426V29.15H260.726ZM265.526 34.65H255.451V42.3H253.726V34.65H243.676V33.3H265.526V34.65ZM284.605 28.625C279.53 28.625 276.43 26.8 276.43 24.275C276.43 21.775 279.53 19.95 284.605 19.95C289.68 19.95 292.805 21.775 292.805 24.275C292.805 26.8 289.68 28.625 284.605 28.625ZM284.605 21.275C280.905 21.275 278.08 22.35 278.08 24.3C278.08 26.225 280.905 27.3 284.605 27.3C288.33 27.3 291.13 26.225 291.13 24.3C291.13 22.35 288.33 21.275 284.605 21.275ZM295.53 31.975H273.73V30.625H295.53V31.975ZM292.455 42.05H276.78V34.525H292.455V42.05ZM290.78 40.7V35.875H278.455V40.7H290.78ZM316.854 42.05H301.479V36.7H314.654V34.075H301.479V32.775H316.329V37.95H303.154V40.725H316.854V42.05ZM311.929 29.65L311.079 30.9C308.379 30.2 305.754 28.425 304.679 26.225C303.704 28.5 301.004 30.55 298.054 31.65L297.079 30.5C300.479 29.35 303.754 26.575 303.754 23.15V22.525H298.304V21.225H310.804V22.525H305.529V23.15C305.529 26.55 308.654 28.875 311.929 29.65ZM316.354 31.6H314.679V26.1H309.654V24.75H314.679V20.075H316.354V31.6ZM335.277 41.25H333.652V29.825H330.627C330.477 34.725 328.402 37.575 325.577 37.575C322.652 37.575 320.527 34.475 320.527 29.2C320.527 23.95 322.652 20.85 325.577 20.85C328.377 20.85 330.452 23.65 330.627 28.425H333.652V20.45H335.277V41.25ZM325.577 36.225C327.677 36.225 329.027 33.45 329.027 29.2C329.027 24.975 327.677 22.2 325.577 22.2C323.527 22.2 322.152 24.975 322.152 29.2C322.152 33.45 323.527 36.225 325.577 36.225ZM339.802 42.3H338.127V20.075H339.802V42.3ZM362.4 42.3H360.725V28.525H355.175V27.125H360.725V20.075H362.4V42.3ZM357.8 35.875L356.8 37.075C353.825 35.45 351.025 32.425 350.15 29.575C349.225 32.725 346.85 35.625 343.425 37.725L342.3 36.675C346.15 34.425 349.2 30.55 349.2 25.25V21.05H350.975V25.25C350.975 30.35 354.325 34.15 357.8 35.875ZM392.029 29.425H375.804V20.95H391.779V22.3H377.479V28.075H392.029V29.425ZM394.579 34.125H384.504V42.3H382.779V34.125H372.729V32.775H394.579V34.125ZM415.027 32.15H398.802V21.475H414.777V22.825H400.477V30.8H415.027V32.15ZM417.577 39.05H395.727V37.7H417.577V39.05ZM437.9 42.3H436.225V29.025H431.925V27.625H436.225V20.075H437.9V42.3ZM434.35 34.7V36.075C431.575 36.625 427.2 36.9 423.85 36.9H420.55V28.375H428.75V22.775H420.55V21.425H430.425V29.7H422.2V35.525H423.85C427.2 35.525 431.4 35.275 434.35 34.7ZM457.148 35.975L456.123 37.175C453.273 35.55 450.423 32.7 449.473 29.95C448.598 33.025 445.973 35.9 442.748 37.825L441.623 36.725C445.273 34.675 448.523 30.85 448.523 25.675V22.9H442.923V21.55H455.748V22.9H450.298V25.675C450.298 30.75 453.948 34.325 457.148 35.975ZM461.423 42.3H459.748V20.075H461.423V42.3ZM486.546 32.8H464.746V31.45H486.546V32.8ZM484.021 28.075H467.796V20.15H469.471V26.725H484.021V28.075ZM484.446 41.95H467.821V35H469.496V40.575H484.446V41.95ZM514.4 33.2H512.725V26.625H507.875C507.55 29.425 505.2 31.55 501.875 31.55C498.275 31.55 495.85 29.1 495.85 26.025C495.85 22.95 498.275 20.475 501.875 20.475C505.125 20.475 507.45 22.55 507.85 25.25H512.725V20.075H514.4V33.2ZM506.2 26.025C506.2 23.675 504.6 21.825 501.875 21.825C499.125 21.825 497.55 23.675 497.55 26.025C497.55 28.35 499.125 30.2 501.875 30.2C504.6 30.2 506.2 28.35 506.2 26.025ZM514.35 42.425H512.675V35.775H499V34.4H514.35V42.425ZM530.623 26.025C530.623 29.1 528.173 31.55 524.623 31.55C521.023 31.55 518.598 29.1 518.598 26.025C518.598 22.95 521.023 20.475 524.623 20.475C528.173 20.475 530.623 22.95 530.623 26.025ZM528.948 26.025C528.948 23.675 527.323 21.825 524.623 21.825C521.873 21.825 520.273 23.675 520.273 26.025C520.273 28.35 521.873 30.2 524.623 30.2C527.323 30.2 528.948 28.35 528.948 26.025ZM537.098 38.275C537.098 40.8 534.148 42.675 529.248 42.675C524.398 42.675 521.448 40.8 521.448 38.275C521.448 35.725 524.398 33.85 529.248 33.85C534.148 33.85 537.098 35.725 537.098 38.275ZM535.448 38.275C535.448 36.325 532.848 35.2 529.248 35.2C525.723 35.2 523.123 36.325 523.123 38.275C523.123 40.2 525.723 41.325 529.248 41.325C532.848 41.325 535.448 40.2 535.448 38.275ZM536.573 33.4H534.923V20.075H536.573V22.95H539.848V24.3H536.573V27.8H539.848V29.15H536.573V33.4ZM567.153 36.55H565.503V29.625H560.153V32.475H549.528V20.85H551.178V25.275H558.478V20.85H560.153V23.775H565.503V20.075H567.153V36.55ZM558.478 31.125V26.575H551.178V31.125H558.478ZM567.978 41.95H552.278V34.775H553.953V40.6H567.978V41.95ZM565.503 28.275V25.125H560.153V28.275H565.503ZM586.901 36.125V37.425C584.576 37.925 581.751 38.075 578.451 38.075H570.976V36.725H577.901V34C575.101 33.725 573.351 32.125 573.351 30.3C573.351 28.275 575.451 26.575 578.726 26.575C581.976 26.575 584.051 28.275 584.051 30.3C584.051 32.125 582.351 33.725 579.576 34V36.725C582.251 36.7 584.851 36.5 586.901 36.125ZM589.526 42.3H587.851V20.075H589.526V29.35H593.076V30.775H589.526V42.3ZM582.401 30.3C582.401 28.9 580.951 27.875 578.726 27.875C576.476 27.875 575.026 28.9 575.026 30.3C575.026 31.7 576.476 32.7 578.726 32.7C580.951 32.7 582.401 31.7 582.401 30.3ZM585.326 25.275H572.076V23.925H585.326V25.275ZM582.126 21.9H575.251V20.55H582.126V21.9ZM595.349 37.55L594.274 36.425C600.174 33.55 603.474 28.55 604.099 22.9H595.649V21.55H605.924C605.574 29.075 601.249 34.575 595.349 37.55ZM612.249 42.3H610.599V20.075H612.249V28.75H615.999V30.175H612.249V42.3ZM642.478 42.425H640.803V36.95H626.528V35.65H642.478V42.425ZM645.628 33.2H623.828V31.9H645.628V33.2ZM642.853 29.7H626.878V20.625H642.578V21.925H628.553V24.475H642.478V25.75H628.553V28.375H642.853V29.7ZM666.876 38.25C666.876 40.8 663.801 42.675 658.776 42.675C653.751 42.675 650.676 40.8 650.676 38.25C650.676 35.725 653.751 33.85 658.776 33.85C663.801 33.85 666.876 35.725 666.876 38.25ZM665.176 38.25C665.176 36.325 662.451 35.2 658.776 35.2C655.076 35.2 652.376 36.325 652.376 38.25C652.376 40.2 655.076 41.325 658.776 41.325C662.451 41.325 665.176 40.2 665.176 38.25ZM662.101 30.6L661.101 31.8C658.301 30.775 655.801 28.725 654.776 26.55C653.876 28.975 651.276 31.275 648.226 32.55L647.176 31.4C650.751 30.1 653.851 26.925 653.851 23.15V22.55H648.401V21.225H660.901V22.55H655.626V23.15C655.626 26.775 658.776 29.525 662.101 30.6ZM666.451 33.675H664.776V20.075H666.451V33.675ZM689.499 42.3H687.824V20.075H689.499V42.3ZM671.199 29.125C671.199 23.8 673.649 20.675 676.899 20.675C680.174 20.675 682.599 23.8 682.599 29.125C682.599 34.475 680.174 37.6 676.899 37.6C673.649 37.6 671.199 34.475 671.199 29.125ZM680.924 29.125C680.924 24.55 679.249 22.025 676.899 22.025C674.574 22.025 672.874 24.55 672.874 29.125C672.874 33.725 674.574 36.25 676.899 36.25C679.249 36.25 680.924 33.725 680.924 29.125ZM714.647 39.225H692.797V37.875H700.997V29.3H702.747V37.875H714.647V39.225ZM710.172 34.55H708.447C709.372 30.9 709.947 26.525 710.047 23.075H695.472V21.725H711.822C711.697 26.15 711.022 30.825 710.172 34.55ZM717.545 44.4L717.145 44.025C718.02 43.475 718.77 42.4 718.895 41.45C718.92 41.325 718.895 41.225 718.845 41.175C718.795 41.05 718.645 40.975 718.395 40.975C717.695 40.975 717.045 40.5 717.045 39.65C717.045 38.85 717.695 38.325 718.495 38.325C719.42 38.325 720.07 39.15 720.07 40.175C720.07 41.95 718.995 43.625 717.545 44.4ZM748.912 38.475C748.912 40.925 745.912 42.675 740.587 42.675C735.287 42.675 732.262 40.925 732.262 38.475C732.262 36.05 735.287 34.3 740.587 34.3C745.912 34.3 748.912 36.05 748.912 38.475ZM747.237 38.475C747.237 36.75 744.737 35.6 740.587 35.6C736.437 35.6 733.937 36.75 733.937 38.475C733.937 40.225 736.437 41.375 740.587 41.375C744.737 41.375 747.237 40.225 747.237 38.475ZM750.137 27.55L749.237 28.75C745.512 28.2 742.037 26.325 740.612 23.925C739.212 26.375 735.762 28.175 732.062 28.75L731.137 27.55C735.112 26.975 739.237 24.825 739.712 22.15H732.512V20.8H748.712V22.15H741.562C742.037 24.85 746.312 27.025 750.137 27.55ZM751.512 32.475H729.712V31.125H739.787V27.775H741.487V31.125H751.512V32.475ZM764.66 42.675C759.635 42.675 756.56 40.8 756.56 38.25C756.56 35.725 759.635 33.85 764.66 33.85C769.685 33.85 772.76 35.725 772.76 38.25C772.76 40.8 769.685 42.675 764.66 42.675ZM764.66 35.2C760.96 35.2 758.26 36.325 758.26 38.25C758.26 40.2 760.96 41.325 764.66 41.325C768.335 41.325 771.06 40.2 771.06 38.25C771.06 36.325 768.335 35.2 764.66 35.2ZM767.66 30.375L766.685 31.625C763.885 30.6 761.36 28.525 760.335 26.3C759.435 28.75 756.91 31.025 753.785 32.35L752.76 31.225C756.41 29.825 759.41 26.7 759.41 22.9V20.65H761.185V22.9C761.185 26.525 764.26 29.25 767.66 30.375ZM772.335 33.675H770.66V25.7H765.085V24.3H770.66V20.075H772.335V33.675ZM794.433 42.3H792.758V20.075H794.433V29.1H797.983V30.525H794.433V42.3ZM791.808 35.4V36.7C789.483 37.2 786.658 37.35 783.358 37.35H775.883V36H781.133V28.15H782.808V36H783.458C786.533 36 789.483 35.825 791.808 35.4ZM788.283 32.725H786.633C787.158 30.2 787.708 25.875 787.658 22.8H777.183V21.45H789.408C789.383 24.9 788.933 29.675 788.283 32.725ZM817.437 42.675C812.387 42.675 809.337 40.75 809.337 38.125C809.337 35.525 812.387 33.6 817.437 33.6C822.462 33.6 825.512 35.525 825.512 38.125C825.512 40.75 822.462 42.675 817.437 42.675ZM817.437 34.95C813.737 34.95 811.012 36.125 811.012 38.15C811.012 40.15 813.737 41.325 817.437 41.325C821.137 41.325 823.837 40.15 823.837 38.15C823.837 36.125 821.137 34.95 817.437 34.95ZM807.187 32.95L806.237 31.75C811.762 30.275 815.862 26.675 816.562 22.575H807.587V21.225H818.487C817.962 27.45 812.787 31.3 807.187 32.95ZM825.087 33.425H823.437V29.675H818.437V28.325H823.437V25.05H818.962V23.7H823.437V20.075H825.087V33.425ZM839.61 28.625C834.535 28.625 831.435 26.8 831.435 24.275C831.435 21.775 834.535 19.95 839.61 19.95C844.685 19.95 847.81 21.775 847.81 24.275C847.81 26.8 844.685 28.625 839.61 28.625ZM839.61 21.275C835.91 21.275 833.085 22.35 833.085 24.3C833.085 26.225 835.91 27.3 839.61 27.3C843.335 27.3 846.135 26.225 846.135 24.3C846.135 22.35 843.335 21.275 839.61 21.275ZM850.535 31.975H828.735V30.625H850.535V31.975ZM847.46 42.05H831.785V34.525H847.46V42.05ZM845.785 40.7V35.875H833.46V40.7H845.785ZM871.408 42.3H869.733V20.075H871.408V42.3ZM853.108 29.125C853.108 23.8 855.558 20.675 858.808 20.675C862.083 20.675 864.508 23.8 864.508 29.125C864.508 34.475 862.083 37.6 858.808 37.6C855.558 37.6 853.108 34.475 853.108 29.125ZM862.833 29.125C862.833 24.55 861.158 22.025 858.808 22.025C856.483 22.025 854.783 24.55 854.783 29.125C854.783 33.725 856.483 36.25 858.808 36.25C861.158 36.25 862.833 33.725 862.833 29.125ZM34.775 80.3H33.1V58.075H34.775V80.3ZM28.1 74.65H17.425V59.3H19.075V65.2H26.4V59.3H28.1V74.65ZM26.4 73.3V66.525H19.075V73.3H26.4ZM60.448 77.225H38.598V75.875H43.973V67.45H45.648V75.875H50.023V67.45H51.723V75.875H60.448V77.225ZM55.973 72.55H54.248C55.173 68.9 55.748 64.525 55.848 61.075H41.273V59.725H57.623C57.498 64.15 56.823 68.825 55.973 72.55ZM76.8961 68.85L75.8961 70.05C73.0961 69.025 70.5961 66.975 69.5711 64.8C68.6711 67.225 66.0711 69.525 63.0211 70.8L61.9711 69.65C65.5461 68.35 68.6461 65.175 68.6461 61.4V60.55H63.1961V59.225H75.6961V60.55H70.4211V61.4C70.4211 65.025 73.5711 67.775 76.8961 68.85ZM81.1961 80.425H79.5211V74.025H65.8461V72.65H81.1961V80.425ZM81.2461 71.45H79.5711V64.625H74.5461V63.225H79.5711V58.075H81.2461V71.45ZM113.475 77.225H91.6254V75.875H101.8V70.85H103.5V75.875H113.475V77.225ZM102.15 68.3V69.625C100.675 69.9 98.4504 70 96.8004 70H94.1754V59.475H102V60.825H95.8504V68.65H96.8254C98.4004 68.65 100.625 68.55 102.15 68.3ZM111.2 70H102.95V59.475H110.925V60.825H104.65V68.65H111.2V70ZM135.448 79.05L134.673 80.3C131.173 79.6 127.698 77.65 126.573 75.2C125.473 77.65 121.998 79.6 118.498 80.3L117.673 79.05C121.248 78.425 125.648 76 125.648 72.875V72.25H127.498V72.875C127.498 76 131.923 78.425 135.448 79.05ZM130.498 68.3V69.575C127.898 70.15 123.823 70.45 120.323 70.45H116.373V64.025H124.798V60.325H116.373V59.025H126.448V65.3H118.023V69.125H120.323C123.698 69.125 127.748 68.825 130.498 68.3ZM133.998 73.175H132.348V66.4H127.848V65.075H132.348V62.25H127.848V60.95H132.348V58.075H133.998V73.175ZM148.621 60.075H141.696V58.725H148.621V60.075ZM156.521 80.3H154.871V58.075H156.521V67.25H160.121V68.675H156.521V80.3ZM150.921 70.95C150.921 73.875 148.621 76.225 145.246 76.225C141.871 76.225 139.571 73.875 139.571 70.95C139.571 68.025 141.871 65.65 145.246 65.65C148.621 65.65 150.921 68 150.921 70.95ZM149.271 70.95C149.271 68.6 147.696 66.975 145.271 66.975C142.821 66.975 141.246 68.575 141.246 70.95C141.246 73.3 142.821 74.9 145.271 74.9C147.696 74.9 149.271 73.3 149.271 70.95ZM152.046 63.775H138.321V62.425H152.046V63.775ZM162.17 75.525L160.895 74.45C166.07 71.55 168.745 66 169.045 61.05H162.145V59.7H170.845C170.72 66.575 167.42 72.325 162.17 75.525ZM175.87 79.25H174.245V67.875H170.445V66.475H174.245V58.45H175.87V79.25ZM180.445 80.3H178.795V58.075H180.445V80.3ZM209.949 80.05H194.849V74.675H207.749V72.05H194.849V70.75H209.424V75.95H196.499V78.725H209.949V80.05ZM209.474 69.55H207.824V58.075H209.474V62.475H212.874V63.85H209.474V69.55ZM202.799 68.25H192.249V58.85H193.924V62.125H201.124V58.85H202.799V68.25ZM201.124 66.95V63.425H193.924V66.95H201.124ZM224.547 66.625C219.472 66.625 216.372 64.8 216.372 62.275C216.372 59.775 219.472 57.95 224.547 57.95C229.622 57.95 232.747 59.775 232.747 62.275C232.747 64.8 229.622 66.625 224.547 66.625ZM224.547 59.275C220.847 59.275 218.022 60.35 218.022 62.3C218.022 64.225 220.847 65.3 224.547 65.3C228.272 65.3 231.072 64.225 231.072 62.3C231.072 60.35 228.272 59.275 224.547 59.275ZM235.472 69.975H213.672V68.625H235.472V69.975ZM232.397 80.05H216.722V72.525H232.397V80.05ZM230.722 78.7V73.875H218.397V78.7H230.722ZM253.595 69.575V70.875C251.27 71.275 248.27 71.45 244.92 71.45H237.17V70.1H244.595V66.85H239.145V59.1H250.995V60.425H240.82V65.5H251.52V66.85H246.245V70.1C248.895 70.075 251.545 69.875 253.595 69.575ZM256.67 79.95H241.02V73.55H242.695V78.575H256.67V79.95ZM256.17 75.2H254.495V58.075H256.17V75.2ZM278.118 80.3H276.468V58.075H278.118V66H281.868V67.425H278.118V80.3ZM275.393 72.2V73.55C272.593 74.125 268.218 74.4 264.868 74.4H261.418V59.55H272.143V60.9H263.068V73.025H264.868C268.218 73.025 272.393 72.75 275.393 72.2ZM286.866 77.825C286.866 78.625 286.241 79.225 285.441 79.225C284.591 79.225 283.966 78.625 283.966 77.825C283.966 77.075 284.591 76.425 285.441 76.425C286.241 76.425 286.866 77.075 286.866 77.825ZM316.358 69.5H298.533V68.15H302.133L301.958 60.825H299.058V59.475H315.833V60.825H313.158L312.983 68.15H316.358V69.5ZM311.308 68.15L311.508 60.825H303.633L303.783 68.15H311.308ZM318.383 77.225H296.533V75.875H301.983V70.625H303.683V75.875H311.208V70.625H312.883V75.875H318.383V77.225ZM333.831 62.8H320.381V61.5H333.831V62.8ZM330.756 59.475H323.631V58.175H330.756V59.475ZM327.256 71.825C323.806 71.825 321.581 70.1 321.581 67.975C321.581 65.85 323.806 64.125 327.256 64.125C330.681 64.125 332.931 65.85 332.931 67.975C332.931 70.1 330.681 71.825 327.256 71.825ZM327.256 65.4C324.731 65.4 323.256 66.5 323.256 67.975C323.256 69.475 324.731 70.575 327.256 70.575C329.781 70.575 331.256 69.45 331.256 67.975C331.256 66.5 329.781 65.4 327.256 65.4ZM340.006 79.95H324.306V73.5H325.981V78.6H340.006V79.95ZM339.181 74.75H337.506V70.35H333.556V69.05H337.506V65.825H333.556V64.525H337.506V58.075H339.181V74.75ZM362.229 80.3H360.554V58.075H362.229V80.3ZM343.929 67.125C343.929 61.8 346.379 58.675 349.629 58.675C352.904 58.675 355.329 61.8 355.329 67.125C355.329 72.475 352.904 75.6 349.629 75.6C346.379 75.6 343.929 72.475 343.929 67.125ZM353.654 67.125C353.654 62.55 351.979 60.025 349.629 60.025C347.304 60.025 345.604 62.55 345.604 67.125C345.604 71.725 347.304 74.25 349.629 74.25C351.979 74.25 353.654 71.725 353.654 67.125ZM373.858 71.8L372.908 70.575C378.583 68.875 382.533 64.85 383.258 60.575H374.258V59.225H385.183C384.658 65.525 379.708 69.8 373.858 71.8ZM392.308 79.95H376.833V72.55H378.508V78.6H392.308V79.95ZM391.383 74.55H389.733V58.075H391.383V64.425H394.783V65.825H391.383V74.55ZM415.431 80.05H400.056V74.7H413.256V72.1H400.056V70.775H414.906V75.975H401.731V78.7H415.431V80.05ZM406.381 60.525H397.431V59.225H408.306C407.831 64.925 402.256 68.6 397.006 69.85L396.081 68.65C401.256 67.55 405.556 64.325 406.381 60.525ZM414.931 69.6H413.281V66.875H408.256V65.575H413.281V62.75H408.806V61.425H413.281V58.075H414.931V69.6ZM429.554 60.075H422.629V58.725H429.554V60.075ZM437.454 80.3H435.804V58.075H437.454V67.25H441.054V68.675H437.454V80.3ZM431.854 70.95C431.854 73.875 429.554 76.225 426.179 76.225C422.804 76.225 420.504 73.875 420.504 70.95C420.504 68.025 422.804 65.65 426.179 65.65C429.554 65.65 431.854 68 431.854 70.95ZM430.204 70.95C430.204 68.6 428.629 66.975 426.204 66.975C423.754 66.975 422.179 68.575 422.179 70.95C422.179 73.3 423.754 74.9 426.204 74.9C428.629 74.9 430.204 73.3 430.204 70.95ZM432.979 63.775H419.254V62.425H432.979V63.775ZM463.402 77.225H441.552V75.875H449.752V67.3H451.502V75.875H463.402V77.225ZM458.927 72.55H457.202C458.127 68.9 458.702 64.525 458.802 61.075H444.227V59.725H460.577C460.452 64.15 459.777 68.825 458.927 72.55ZM490.356 80.05H475.781V71.825H490.356V80.05ZM488.681 78.7V73.175H477.431V78.7H488.681ZM472.881 70.775L471.956 69.575C477.456 68.175 481.581 64.6 482.306 60.575H473.281V59.225H484.206C483.681 65.375 478.506 69.1 472.881 70.775ZM490.406 70.625H488.756V58.075H490.406V63.425H493.806V64.825H490.406V70.625ZM514.654 76.25C514.654 78.8 511.579 80.675 506.554 80.675C501.529 80.675 498.454 78.8 498.454 76.25C498.454 73.725 501.529 71.85 506.554 71.85C511.579 71.85 514.654 73.725 514.654 76.25ZM512.954 76.25C512.954 74.325 510.229 73.2 506.554 73.2C502.854 73.2 500.154 74.325 500.154 76.25C500.154 78.2 502.854 79.325 506.554 79.325C510.229 79.325 512.954 78.2 512.954 76.25ZM509.879 68.85L508.879 70.05C506.079 69.025 503.579 66.975 502.554 64.8C501.654 67.225 499.054 69.525 496.004 70.8L494.954 69.65C498.529 68.35 501.629 65.175 501.629 61.4V60.55H496.179V59.225H508.679V60.55H503.404V61.4C503.404 65.025 506.554 67.775 509.879 68.85ZM514.229 71.675H512.554V64.625H507.529V63.25H512.554V58.075H514.229V71.675ZM536.678 61.925C536.678 64.225 533.553 65.925 528.478 65.925C523.403 65.925 520.303 64.225 520.303 61.925C520.303 59.625 523.403 57.925 528.478 57.925C533.553 57.925 536.678 59.625 536.678 61.925ZM535.003 61.95C535.003 60.2 532.203 59.225 528.478 59.225C524.778 59.225 521.953 60.2 521.953 61.95C521.953 63.675 524.778 64.65 528.478 64.65C532.203 64.65 535.003 63.675 535.003 61.95ZM536.853 80.05H520.628V74.925H534.628V72.575H520.628V71.25H536.303V76.2H522.303V78.725H536.853V80.05ZM539.403 68.925H517.603V67.6H539.403V68.925ZM562.907 68.6L561.907 69.8C559.107 68.775 556.607 66.725 555.582 64.55C554.682 66.975 552.082 69.275 549.032 70.55L547.982 69.4C551.557 68.1 554.657 64.925 554.657 61.15V60.55H549.207V59.225H561.707V60.55H556.432V61.15C556.432 64.775 559.582 67.525 562.907 68.6ZM567.207 80.425H565.532V74.025H551.857V72.65H567.207V80.425ZM567.257 71.45H565.582V58.075H567.257V71.45ZM590.23 80.05H575.355V71H577.03V74.075H588.555V71H590.23V80.05ZM585.83 67.9L584.98 69.15C582.28 68.475 579.655 66.675 578.58 64.475C577.605 66.775 574.905 68.8 571.955 69.9L570.98 68.75C574.38 67.6 577.655 64.825 577.655 61.425V60.525H572.205V59.225H584.705V60.525H579.43V61.425C579.43 64.825 582.555 67.125 585.83 67.9ZM588.555 78.75V75.35H577.03V78.75H588.555ZM590.255 69.925H588.58V64.25H583.555V62.875H588.58V58.075H590.255V69.925ZM619.934 70.15H603.709V59.475H619.684V60.825H605.384V68.8H619.934V70.15ZM622.484 77.05H600.634V75.7H622.484V77.05ZM642.807 80.3H641.132V67.025H636.832V65.625H641.132V58.075H642.807V80.3ZM639.257 72.7V74.075C636.482 74.625 632.107 74.9 628.757 74.9H625.457V66.375H633.657V60.775H625.457V59.425H635.332V67.7H627.107V73.525H628.757C632.107 73.525 636.307 73.275 639.257 72.7ZM666.205 80.3H664.555V67.375H660.83V79.25H659.23V58.45H660.83V65.925H664.555V58.075H666.205V80.3ZM658.205 72.65V74C656.13 74.325 653.105 74.525 650.905 74.525H648.555V59.25H650.155V73.15H650.905C653.105 73.15 656.105 72.975 658.205 72.65ZM685.053 73.975L684.028 75.175C681.178 73.55 678.328 70.7 677.378 67.95C676.503 71.025 673.878 73.9 670.653 75.825L669.528 74.725C673.178 72.675 676.428 68.85 676.428 63.675V60.9H670.828V59.55H683.653V60.9H678.203V63.675C678.203 68.75 681.853 72.325 685.053 73.975ZM689.328 80.3H687.653V58.075H689.328V80.3ZM720.283 74.325H709.583V73.05H720.283V74.325ZM709.858 78.425V79.75C708.533 80 706.633 80.05 705.258 80.05H703.008V70.675H704.633V78.7H705.308C706.583 78.7 708.433 78.65 709.858 78.425ZM717.883 71.675H711.983V70.4H717.883V71.675ZM718.483 69.2H716.833V58.075H718.483V62.7H721.883V64.1H718.483V69.2ZM714.908 80.625C712.233 80.625 710.433 79.475 710.433 77.9C710.433 76.325 712.233 75.175 714.908 75.175C717.608 75.175 719.358 76.325 719.358 77.9C719.358 79.475 717.608 80.625 714.908 80.625ZM714.908 76.4C713.133 76.4 712.058 77.025 712.058 77.9C712.058 78.775 713.133 79.4 714.908 79.4C716.683 79.4 717.733 78.775 717.733 77.9C717.733 77.025 716.683 76.4 714.908 76.4ZM706.408 68.9C702.883 68.9 700.508 66.55 700.508 63.625C700.508 60.725 702.883 58.375 706.408 58.375C709.933 58.375 712.308 60.725 712.308 63.625C712.308 66.55 709.933 68.9 706.408 68.9ZM706.408 59.7C703.733 59.7 702.183 61.425 702.183 63.625C702.183 65.825 703.733 67.575 706.408 67.575C709.083 67.575 710.608 65.825 710.608 63.625C710.608 61.425 709.083 59.7 706.408 59.7ZM741.131 80.3H739.481V58.075H741.131V66.125H744.881V67.55H741.131V80.3ZM723.531 67.125C723.531 61.8 725.956 58.675 729.206 58.675C732.456 58.675 734.906 61.8 734.906 67.125C734.906 72.475 732.456 75.6 729.206 75.6C725.956 75.6 723.531 72.475 723.531 67.125ZM733.231 67.125C733.231 62.55 731.531 60.025 729.206 60.025C726.881 60.025 725.206 62.55 725.206 67.125C725.206 71.725 726.881 74.25 729.206 74.25C731.531 74.25 733.231 71.725 733.231 67.125ZM774.51 70.7H764.46V73.05C769.21 73.2 771.91 74.775 771.91 76.85C771.91 79.075 768.91 80.675 763.585 80.675C758.285 80.675 755.26 79.075 755.26 76.85C755.26 74.775 757.935 73.2 762.735 73.05V70.7H752.71V69.375H774.51V70.7ZM771.71 67.3H755.76V58.625H771.435V59.925H757.435V62.3H771.335V63.575H757.435V65.95H771.71V67.3ZM770.235 76.85C770.235 75.3 767.735 74.3 763.585 74.3C759.435 74.3 756.935 75.3 756.935 76.85C756.935 78.4 759.435 79.425 763.585 79.425C767.735 79.425 770.235 78.4 770.235 76.85ZM795.058 71.725H793.408V67.225H788.058V69.475H777.433V59.225H788.058V61.4H793.408V58.075H795.058V71.725ZM795.483 76.275C795.483 78.8 792.433 80.675 787.408 80.675C782.358 80.675 779.308 78.8 779.308 76.275C779.308 73.75 782.358 71.875 787.408 71.875C792.433 71.875 795.483 73.75 795.483 76.275ZM793.808 76.275C793.808 74.35 791.108 73.225 787.408 73.225C783.708 73.225 780.983 74.35 780.983 76.275C780.983 78.2 783.708 79.325 787.408 79.325C791.108 79.325 793.808 78.2 793.808 76.275ZM786.383 68.125V60.55H779.083V68.125H786.383ZM793.408 65.875V62.75H788.058V65.875H793.408ZM809.681 60.075H802.756V58.725H809.681V60.075ZM817.581 80.3H815.931V58.075H817.581V67.25H821.181V68.675H817.581V80.3ZM811.981 70.95C811.981 73.875 809.681 76.225 806.306 76.225C802.931 76.225 800.631 73.875 800.631 70.95C800.631 68.025 802.931 65.65 806.306 65.65C809.681 65.65 811.981 68 811.981 70.95ZM810.331 70.95C810.331 68.6 808.756 66.975 806.331 66.975C803.881 66.975 802.306 68.575 802.306 70.95C802.306 73.3 803.881 74.9 806.331 74.9C808.756 74.9 810.331 73.3 810.331 70.95ZM813.106 63.775H799.381V62.425H813.106V63.775ZM823.229 75.525L821.954 74.45C827.129 71.55 829.804 66 830.104 61.05H823.204V59.7H831.904C831.779 66.575 828.479 72.325 823.229 75.525ZM836.929 79.25H835.304V67.875H831.504V66.475H835.304V58.45H836.929V79.25ZM841.504 80.3H839.854V58.075H841.504V80.3ZM35.15 107.6H18.575V96.975H20.25V106.25H35.15V107.6ZM37.45 115.05H15.6V113.7H37.45V115.05ZM47.348 114.525L45.848 113.725C49.548 109.55 51.123 104.35 51.348 98.9H47.148V97.55H53.123C52.973 104.7 51.123 110.05 47.348 114.525ZM40.423 113.175L38.948 112.4C42.698 108.55 44.323 103.55 44.598 98.9H40.123V97.55H46.373C46.198 103.95 44.198 109.075 40.423 113.175ZM58.823 118.3H57.148V109.025H52.973V107.625H57.148V102.8H53.623V101.425H57.148V96.075H58.823V118.3ZM81.7461 118.05H66.3711V112.7H79.5461V110.075H66.3711V108.775H81.2211V113.95H68.0461V116.725H81.7461V118.05ZM76.8211 105.4L75.9711 106.65C73.2711 105.975 70.6461 104.175 69.5711 101.975C68.5961 104.275 65.8961 106.3 62.9461 107.4L61.9711 106.25C65.3711 105.1 68.6461 102.325 68.6461 98.925V98.525H63.1961V97.225H75.6961V98.525H70.4211V98.925C70.4211 102.325 73.5461 104.625 76.8211 105.4ZM81.2461 107.6H79.5711V96.075H81.2461V107.6ZM113.45 109.875H103.4V118.3H101.675V109.875H91.6254V108.525H113.45V109.875ZM112.25 104.85L111.325 106.075C107.525 105.2 103.95 103.1 102.525 100.425C101.125 103.1 97.5504 105.2 93.7504 106.075L92.8004 104.85C97.0504 104 101.65 101.25 101.65 97.725V96.65H103.425V97.725C103.425 101.25 108.025 104 112.25 104.85ZM143.705 117.275L142.655 118.4C140.705 117.4 138.705 115.5 138.055 113.675C137.405 115.425 135.605 117.375 133.855 118.325C132.08 117.375 130.255 115.425 129.63 113.675C128.955 115.5 126.98 117.4 125.03 118.4L123.98 117.275C126.33 116.2 128.78 113.65 128.78 110.95V109.975H130.455V110.95C130.455 113.25 132.305 115.6 133.855 116.575C135.38 115.6 137.23 113.25 137.23 110.95V109.975H138.905V110.95C138.905 113.65 141.38 116.2 143.705 117.275ZM134.78 102.025C134.78 105.1 132.33 107.55 128.78 107.55C125.18 107.55 122.755 105.1 122.755 102.025C122.755 98.95 125.18 96.475 128.78 96.475C132.33 96.475 134.78 98.95 134.78 102.025ZM133.105 102.025C133.105 99.675 131.505 97.825 128.78 97.825C126.03 97.825 124.455 99.675 124.455 102.025C124.455 104.35 126.03 106.2 128.78 106.2C131.505 106.2 133.105 104.35 133.105 102.025ZM141.305 109H139.63V96.075H141.305V109ZM155.553 108.8C150.703 108.8 147.378 106.15 147.378 102.675C147.378 99.175 150.703 96.525 155.553 96.525C160.428 96.525 163.778 99.175 163.778 102.675C163.778 106.15 160.428 108.8 155.553 108.8ZM155.553 97.875C151.878 97.875 149.028 99.775 149.028 102.675C149.028 105.55 151.878 107.45 155.553 107.45C159.253 107.45 162.103 105.55 162.103 102.675C162.103 99.775 159.253 97.875 155.553 97.875ZM166.503 115.05H144.653V113.7H166.503V115.05ZM183.401 110.175V111.525C180.601 112.1 176.226 112.35 172.876 112.35H169.426V97.1H171.076V110.975H172.876C176.226 110.975 180.401 110.725 183.401 110.175ZM186.126 118.3H184.476V96.075H186.126V103.7H189.876V105.125H186.126V118.3ZM192.399 120.4L191.999 120.025C192.874 119.475 193.624 118.4 193.749 117.45C193.774 117.325 193.749 117.225 193.699 117.175C193.649 117.05 193.499 116.975 193.249 116.975C192.549 116.975 191.899 116.5 191.899 115.65C191.899 114.85 192.549 114.325 193.349 114.325C194.274 114.325 194.924 115.15 194.924 116.175C194.924 117.95 193.849 119.625 192.399 120.4ZM224.19 107.6H222.515V96.075H224.19V107.6ZM224.69 118.05H209.315V112.7H222.49V110.075H209.315V108.775H224.165V113.95H210.99V116.725H224.69V118.05ZM219.515 105.25L218.615 106.5C215.79 105.775 213.19 103.85 212.19 101.675C211.215 104.025 208.515 106.1 205.565 107.25L204.59 106.1C208.015 104.9 211.265 102.1 211.265 98.4V96.525H213.04V98.4C213.04 101.975 216.115 104.4 219.515 105.25ZM240.288 111.95L239.263 113.075C236.838 111.4 235.013 108.925 234.238 106.425C233.513 109.2 231.413 111.9 228.563 113.825L227.363 112.8C230.813 110.7 233.338 106.7 233.338 102.025V99.05H229.063V97.7H239.163V99.05H235.088V102.025C235.088 106.8 237.563 110.25 240.288 111.95ZM243.338 117.25H241.713V104.725H237.638V103.325H241.713V96.45H243.338V117.25ZM247.863 118.3H246.213V96.075H247.863V118.3ZM272.387 115.375H250.537V114.025H260.737V109.3H253.612V102.625H267.337V98.65H253.612V97.3H268.987V103.95H255.287V107.925H269.712V109.3H262.437V114.025H272.387V115.375ZM295.36 108.8H273.56V107.45H295.36V108.8ZM292.835 104.075H276.61V96.15H278.285V102.725H292.835V104.075ZM293.26 117.95H276.635V111H278.31V116.575H293.26V117.95ZM322.289 105.425H306.639V96.95H322.289V105.425ZM320.614 104.075V98.3H308.314V104.075H320.614ZM325.389 110.125H315.339V118.3H313.614V110.125H303.564V108.775H325.389V110.125ZM345.237 118.425H343.562V112.5H329.287V111.15H336.612V108H326.587V106.65H348.387V108H338.337V111.15H345.237V118.425ZM346.087 104.15H337.912V96.825H345.612V98.15H339.612V102.825H346.087V104.15ZM337.112 102.475V103.775C335.637 104.05 333.437 104.15 331.762 104.15H329.237V96.825H336.912V98.15H330.887V102.825H331.762C333.362 102.825 335.587 102.7 337.112 102.475ZM368.235 118.425H366.56V112.5H352.285V111.15H359.61V108H349.585V106.65H371.385V108H361.335V111.15H368.235V118.425ZM369.085 104.15H360.91V96.825H368.61V98.15H362.61V102.825H369.085V104.15ZM360.11 102.475V103.775C358.635 104.05 356.435 104.15 354.76 104.15H352.235V96.825H359.91V98.15H353.885V102.825H354.76C356.36 102.825 358.585 102.7 360.11 102.475ZM391.658 112.75H389.983V96.075H391.658V102.925H395.058V104.325H391.658V112.75ZM392.583 117.95H377.108V111.5H378.758V116.6H392.583V117.95ZM387.083 100.8H373.408V99.5H387.083V100.8ZM383.783 97.475H376.658V96.175H383.783V97.475ZM380.283 109.825C376.833 109.825 374.608 108.1 374.608 105.975C374.608 103.85 376.833 102.125 380.283 102.125C383.708 102.125 385.958 103.85 385.958 105.975C385.958 108.1 383.708 109.825 380.283 109.825ZM380.283 103.4C377.758 103.4 376.283 104.5 376.283 105.975C376.283 107.475 377.758 108.575 380.283 108.575C382.808 108.575 384.283 107.45 384.283 105.975C384.283 104.5 382.808 103.4 380.283 103.4ZM422.662 114.25C422.662 116.8 419.587 118.675 414.562 118.675C409.537 118.675 406.462 116.8 406.462 114.25C406.462 111.725 409.537 109.85 414.562 109.85C419.587 109.85 422.662 111.725 422.662 114.25ZM420.962 114.25C420.962 112.325 418.237 111.2 414.562 111.2C410.862 111.2 408.162 112.325 408.162 114.25C408.162 116.2 410.862 117.325 414.562 117.325C418.237 117.325 420.962 116.2 420.962 114.25ZM417.887 106.85L416.887 108.05C414.087 107.025 411.587 104.975 410.562 102.8C409.662 105.225 407.062 107.525 404.012 108.8L402.962 107.65C406.537 106.35 409.637 103.175 409.637 99.4V98.55H404.187V97.225H416.687V98.55H411.412V99.4C411.412 103.025 414.562 105.775 417.887 106.85ZM422.237 109.675H420.562V102.625H415.537V101.25H420.562V96.075H422.237V109.675ZM444.335 118.3H442.66V96.075H444.335V105.1H447.885V106.525H444.335V118.3ZM441.71 111.4V112.7C439.385 113.2 436.56 113.35 433.26 113.35H425.785V112H431.035V104.15H432.71V112H433.36C436.435 112 439.385 111.825 441.71 111.4ZM438.185 108.725H436.535C437.06 106.2 437.61 101.875 437.56 98.8H427.085V97.45H439.31C439.285 100.9 438.835 105.675 438.185 108.725ZM476.365 107.775L475.465 109C471.865 107.85 468.04 105.25 466.515 101.925C465.015 105.25 461.215 107.85 457.59 109L456.665 107.775C460.89 106.55 465.64 103 465.64 98.85V97H467.415V98.85C467.415 103 472.165 106.55 476.365 107.775ZM477.465 115.225H455.615V113.875H465.665V107.875H467.39V113.875H477.465V115.225ZM490.763 107.775H480.213V96.85H481.888V100.925H489.088V96.85H490.763V107.775ZM489.088 106.425V102.25H481.888V106.425H489.088ZM497.438 109.45H495.788V96.075H497.438V101.4H500.838V102.775H497.438V109.45ZM497.388 118.425H495.713V112.025H482.313V110.65H497.388V118.425ZM520.661 118.05H506.061V110.775H520.661V118.05ZM518.986 116.75V112.075H507.736V116.75H518.986ZM520.711 109.575H519.036V96.075H520.711V102.075H524.111V103.45H520.711V109.575ZM516.136 100.525H502.461V99.225H516.136V100.525ZM512.836 97.475H505.711V96.175H512.836V97.475ZM509.336 108.975C505.886 108.975 503.661 107.35 503.661 105.35C503.661 103.35 505.886 101.725 509.336 101.725C512.761 101.725 515.011 103.35 515.011 105.35C515.011 107.35 512.761 108.975 509.336 108.975ZM509.336 103C506.811 103 505.336 104 505.336 105.35C505.336 106.725 506.811 107.725 509.336 107.725C511.861 107.725 513.336 106.7 513.336 105.35C513.336 104 511.861 103 509.336 103ZM543.709 99.925C543.709 102.225 540.584 103.925 535.509 103.925C530.434 103.925 527.334 102.225 527.334 99.925C527.334 97.625 530.434 95.925 535.509 95.925C540.584 95.925 543.709 97.625 543.709 99.925ZM542.034 99.95C542.034 98.2 539.234 97.225 535.509 97.225C531.809 97.225 528.984 98.2 528.984 99.95C528.984 101.675 531.809 102.65 535.509 102.65C539.234 102.65 542.034 101.675 542.034 99.95ZM543.884 118.05H527.659V112.925H541.659V110.575H527.659V109.25H543.334V114.2H529.334V116.725H543.884V118.05ZM546.434 106.925H524.634V105.6H546.434V106.925ZM573.413 118.05H558.838V109.65H573.413V118.05ZM571.738 116.7V110.975H560.488V116.7H571.738ZM573.463 108.45H571.813V96.075H573.463V100.65H576.863V102.05H573.463V108.45ZM570.713 104.4V105.725C568.163 106.3 564.038 106.575 560.563 106.575H556.388V97.225H567.163V98.55H558.038V105.225H560.563C563.938 105.225 567.963 104.925 570.713 104.4ZM599.486 115.225H577.636V113.875H585.836V105.3H587.586V113.875H599.486V115.225ZM595.011 110.55H593.286C594.211 106.9 594.786 102.525 594.886 99.075H580.311V97.725H596.661C596.536 102.15 595.861 106.825 595.011 110.55ZM629.715 117.275L628.665 118.4C626.715 117.4 624.715 115.5 624.065 113.675C623.415 115.425 621.615 117.375 619.865 118.325C618.09 117.375 616.265 115.425 615.64 113.675C614.965 115.5 612.99 117.4 611.04 118.4L609.99 117.275C612.34 116.2 614.79 113.65 614.79 110.95V109.975H616.465V110.95C616.465 113.25 618.315 115.6 619.865 116.575C621.39 115.6 623.24 113.25 623.24 110.95V109.975H624.915V110.95C624.915 113.65 627.39 116.2 629.715 117.275ZM620.79 102.025C620.79 105.1 618.34 107.55 614.79 107.55C611.19 107.55 608.765 105.1 608.765 102.025C608.765 98.95 611.19 96.475 614.79 96.475C618.34 96.475 620.79 98.95 620.79 102.025ZM619.115 102.025C619.115 99.675 617.515 97.825 614.79 97.825C612.04 97.825 610.465 99.675 610.465 102.025C610.465 104.35 612.04 106.2 614.79 106.2C617.515 106.2 619.115 104.35 619.115 102.025ZM627.315 109H625.64V96.075H627.315V109ZM652.488 108.8H630.688V107.45H652.488V108.8ZM649.963 104.075H633.738V96.15H635.413V102.725H649.963V104.075ZM650.388 117.95H633.763V111H635.438V116.575H650.388V117.95ZM679.993 118.05H664.893V112.575H677.793V109.825H664.893V108.525H679.468V113.825H666.543V116.725H679.993V118.05ZM672.843 105.875H662.293V97.225H672.843V105.875ZM671.168 104.575V98.525H663.968V104.575H671.168ZM679.518 107.35H677.868V96.075H679.518V100.425H682.918V101.825H679.518V107.35ZM702.866 107.05H686.766V96.775H702.391V98.125H688.441V101.2H702.291V102.525H688.441V105.675H702.866V107.05ZM705.541 111H695.466V118.3H693.741V111H683.691V109.65H705.541V111ZM728.539 115.375H706.689V114.025H716.889V109.3H709.764V102.625H723.489V98.65H709.764V97.3H725.139V103.95H711.439V107.925H725.864V109.3H718.589V114.025H728.539V115.375ZM756.418 118.3H754.743V109.425H748.843C747.893 112.125 746.018 113.6 743.793 113.6C740.543 113.6 738.118 110.475 738.118 105.125C738.118 99.8 740.543 96.675 743.793 96.675C745.993 96.675 747.818 98.1 748.768 100.675H754.743V96.075H756.418V118.3ZM743.793 112.25C746.118 112.25 747.818 109.725 747.818 105.125C747.818 100.55 746.118 98.025 743.793 98.025C741.468 98.025 739.793 100.55 739.793 105.125C739.793 109.725 741.468 112.25 743.793 112.25ZM754.743 108.075V102.025H749.143C749.368 102.95 749.493 104 749.493 105.125C749.493 106.2 749.393 107.2 749.218 108.075H754.743ZM761.566 113.55L760.466 112.425C766.366 109.55 769.666 104.55 770.291 98.9H761.841V97.55H772.116C771.791 105.075 767.441 110.575 761.566 113.55ZM778.891 118.3H777.216V108.675H772.016V107.325H777.216V102.825H772.616V101.475H777.216V96.075H778.891V118.3ZM798.014 107.25L797.064 108.475C794.314 107.45 791.714 105.25 790.689 103.025C789.789 105.55 787.189 107.875 784.114 109.225L783.089 108.05C786.664 106.625 789.764 103.5 789.764 99.625V98.55H784.314V97.225H796.814V98.55H791.539V99.625C791.539 103.3 794.739 106.075 798.014 107.25ZM803.189 117.95H787.489V110.55H789.164V116.6H803.189V117.95ZM802.364 112.55H800.689V96.075H802.364V112.55ZM824.187 118.3H822.537V96.075H824.187V104H827.937V105.425H824.187V118.3ZM821.462 110.2V111.55C818.662 112.125 814.287 112.4 810.937 112.4H807.487V97.55H818.212V98.9H809.137V111.025H810.937C814.287 111.025 818.462 110.75 821.462 110.2ZM832.935 115.825C832.935 116.625 832.31 117.225 831.51 117.225C830.66 117.225 830.035 116.625 830.035 115.825C830.035 115.075 830.66 114.425 831.51 114.425C832.31 114.425 832.935 115.075 832.935 115.825Z" fill="black"/>
</svg>
