<svg width="434" height="45" viewBox="0 0 434 45" fill="none" xmlns="http://www.w3.org/2000/svg">
<rect x="0.5" y="0.5" width="433" height="44" fill="white"/>
<rect x="0.5" y="0.5" width="433" height="44" stroke="#F6C500"/>
<path d="M35.45 20.5H25.975V23.375C30.525 23.7 33.25 25.525 33.25 28C33.25 30.725 29.95 32.675 24.5 32.675C19.1 32.675 15.775 30.725 15.775 28C15.775 25.525 18.475 23.7 23.05 23.375V20.5H13.6V18.2H29.35C29.75 16.35 30.1 14.25 30.15 12.85H15.975V10.55H33.15C33.1 13.25 32.625 16.1 32.175 18.2H35.45V20.5ZM30.275 28C30.275 26.475 27.875 25.625 24.5 25.625C21.15 25.625 18.775 26.475 18.775 28C18.775 29.525 21.15 30.375 24.5 30.375C27.875 30.375 30.275 29.525 30.275 28ZM56.723 32.05H40.323V23.425H56.723V32.05ZM59.448 20.95H37.598V18.65H53.223C53.698 16.7 54.098 14.375 54.148 12.85H39.973V10.55H57.148C57.098 13.45 56.548 16.525 56.048 18.65H59.448V20.95ZM53.898 29.75V25.725H43.148V29.75H53.898ZM72.8711 12.05H65.5961V9.85H72.8711V12.05ZM76.1211 15.575H62.3211V13.325H76.1211V15.575ZM75.1711 20.4C75.1711 22.65 72.7211 24.275 69.2211 24.275C65.7211 24.275 63.2461 22.65 63.2461 20.4C63.2461 18.15 65.7211 16.525 69.2211 16.525C72.7211 16.525 75.1711 18.15 75.1711 20.4ZM81.7461 31.95H65.8461V25.575H68.7211V29.575H81.7461V31.95ZM81.0211 26.5H78.1961V10H81.0211V16.525H84.1461V18.925H81.0211V26.5ZM72.3461 20.4C72.3461 19.225 70.9711 18.625 69.2211 18.625C67.4461 18.625 66.0711 19.225 66.0711 20.4C66.0711 21.575 67.4461 22.175 69.2211 22.175C70.9711 22.175 72.3461 21.575 72.3461 20.4ZM108.275 25.4L106.5 27.5C103.975 26.15 101.675 23.85 100.625 21.475C99.7754 23.95 97.4004 26.45 94.6754 28L92.6504 26.1C96.4504 24.2 99.0754 20.5 99.0754 15.475V10.9H102.05V15.625C102.05 20.6 105.05 23.8 108.275 25.4ZM112.875 32.35H110.05V10.025H112.875V18.1H116.175V20.55H112.875V32.35ZM137.048 21.5H120.448V10.575H136.648V12.875H123.273V14.875H136.523V17.125H123.273V19.175H137.048V21.5ZM139.473 25.75H129.973V32.35H127.098V25.75H117.623V23.45H139.473V25.75ZM161.271 32.35H158.446V10.025H161.271V32.35ZM157.146 24.275V26.6C154.321 27.1 151.296 27.325 148.421 27.325H143.246V17.95H151.546V13.625H143.246V11.275H154.371V20.25H146.071V24.95H148.421C151.296 24.95 154.221 24.775 157.146 24.275ZM181.52 31.3H178.745V20.225H176.52C176.295 25.05 174.37 27.875 171.345 27.875C168.17 27.875 166.17 24.675 166.17 19.3C166.17 13.925 168.17 10.725 171.345 10.725C174.195 10.725 176.12 13.3 176.47 17.725H178.745V10.4H181.52V31.3ZM186.17 32.35H183.37V10.025H186.17V32.35ZM171.345 25.525C172.995 25.525 173.82 22.9 173.82 19.3C173.82 15.7 172.995 13.075 171.345 13.075C169.745 13.075 168.87 15.7 168.87 19.3C168.87 22.9 169.745 25.525 171.345 25.525ZM200.174 28.225L198.199 26.275C201.799 24.675 204.224 22.2 205.749 19.475C204.249 19.625 202.399 19.7 200.649 19.7H198.924V17.4H200.624C202.949 17.4 205.299 17.3 206.774 17.125C207.174 16 207.449 14.85 207.549 13.75H199.499V11.4H210.524C210.674 19.35 206.149 25.1 200.174 28.225ZM217.299 32.35H214.474V20.575H210.049V18.125H214.474V10.025H217.299V32.35ZM241.822 32.35H238.997V19.05H234.247V16.65H238.997V10.025H241.822V32.35ZM236.572 25.4L234.772 27.5C232.272 26.15 229.947 23.85 228.897 21.475C228.072 23.95 225.672 26.45 222.972 28L220.922 26.1C224.722 24.2 227.347 20.5 227.347 15.475V10.9H230.322V15.625C230.322 20.6 233.347 23.8 236.572 25.4ZM265.295 32.15H248.37V26.925H261.945V25.825H248.37V23.725H264.77V28.875H251.195V30H265.295V32.15ZM264.97 18.85H248.395V13.575H261.745V12.45H248.395V10.35H264.57V15.575H251.22V16.725H264.97V18.85ZM267.495 22.35H245.645V20.25H267.495V22.35ZM279.949 27.975L277.949 26.025C283.874 23.2 286.699 18.1 287.149 13.75H279.249V11.4H290.199C290.324 19.1 285.824 24.8 279.949 27.975ZM296.674 32.35H293.824V10.025H296.674V18.35H299.974V20.8H296.674V32.35ZM316.897 25.55L315.222 27.65C312.672 26.35 310.447 24.1 309.247 21.625C308.347 24.15 305.947 26.65 303.247 28.15L301.272 26.2C305.047 24.35 307.697 20.65 307.697 15.625V13.75H302.597V11.4H315.722V13.75H310.672V15.775C310.672 20.8 313.622 24 316.897 25.55ZM321.847 32.35H319.022V22.525H315.147V20.175H319.022V17.275H315.097V14.925H319.022V10.025H321.847V32.35ZM327.945 27.975L325.945 26.025C331.87 23.2 334.695 18.1 335.145 13.75H327.245V11.4H338.195C338.32 19.1 333.82 24.8 327.945 27.975ZM344.67 32.35H341.82V10.025H344.67V18.35H347.97V20.8H344.67V32.35ZM371.518 29.85H349.668V27.5H359.143V23.075H352.493V10.7H355.318V14.425H365.868V10.7H368.693V23.075H362.018V27.5H371.518V29.85ZM365.868 20.725V16.725H355.318V20.725H365.868ZM386.141 25.55L384.341 27.4C382.366 26 380.741 24 379.916 21.925C379.091 24.15 377.416 26.3 375.166 27.975L373.116 26.275C376.341 24.2 378.416 20.7 378.416 15.45V11.05H381.341V15.45C381.341 20.6 383.641 24 386.141 25.55ZM389.691 31.3H386.916V19.025H383.516V16.525H386.916V10.4H389.691V31.3ZM394.441 32.35H391.666V10.025H394.441V32.35ZM417.139 16.475C417.139 19.9 413.514 22.7 408.514 22.7C403.514 22.7 399.939 19.9 399.939 16.475C399.939 13.05 403.514 10.25 408.514 10.25C413.514 10.25 417.139 13.05 417.139 16.475ZM419.514 29.85H397.664V27.5H402.464V23.175H405.289V27.5H411.864V23.175H414.689V27.5H419.514V29.85ZM414.139 16.475C414.139 14.25 411.789 12.6 408.514 12.6C405.264 12.6 402.914 14.25 402.914 16.475C402.914 18.675 405.264 20.35 408.514 20.35C411.789 20.35 414.139 18.675 414.139 16.475Z" fill="#F6C500"/>
</svg>
