<svg width="767" height="142" viewBox="0 0 767 142" fill="none" xmlns="http://www.w3.org/2000/svg">
<rect x="0.5" y="0.5" width="766" height="141" fill="white"/>
<rect x="0.5" y="0.5" width="766" height="141" stroke="black"/>
<path d="M28.554 36.815C28.905 36.869 29.283 36.95 29.688 37.058C30.066 37.193 30.417 37.382 30.741 37.598C31.065 37.868 31.335 38.165 31.578 38.543C31.794 38.921 31.902 39.38 31.956 39.92C31.956 40.163 31.956 40.325 31.956 40.433C31.929 40.541 31.902 40.622 31.875 40.649C31.821 40.703 31.794 40.757 31.767 40.757C31.713 40.784 31.686 40.811 31.686 40.865C31.632 40.919 31.632 40.973 31.686 40.973C31.686 41 31.713 41.054 31.767 41.108C31.767 41.162 31.794 41.243 31.821 41.351C31.821 41.459 31.794 41.594 31.74 41.81C31.578 42.269 31.389 42.755 31.119 43.241C30.849 43.727 30.471 44.132 29.985 44.51C29.715 44.699 29.418 44.861 29.094 44.969C28.77 45.077 28.446 45.158 28.149 45.212C27.825 45.266 27.528 45.293 27.258 45.32C26.988 45.32 26.772 45.32 26.61 45.32C26.205 45.266 25.8 45.185 25.422 45.05C25.017 44.888 24.666 44.753 24.369 44.618C23.856 44.348 23.478 43.97 23.235 43.538C22.965 43.052 22.803 42.593 22.749 42.107C22.641 41.594 22.641 41.108 22.695 40.649C22.749 40.19 22.83 39.812 22.965 39.515C23.127 39.191 23.343 38.813 23.64 38.408C23.91 38.03 24.315 37.706 24.801 37.409C24.72 37.166 24.639 36.923 24.558 36.68C24.45 36.464 24.342 36.302 24.234 36.194C24.018 36.005 23.964 35.816 24.126 35.627C24.234 35.465 24.423 35.465 24.639 35.6C24.855 35.762 25.071 35.87 25.233 35.978C25.368 36.113 25.611 36.248 25.989 36.41C26.286 36.572 26.502 36.842 26.664 37.247C26.88 37.139 27.15 37.031 27.501 36.923C27.825 36.842 28.176 36.815 28.554 36.815ZM32.82 26.15C32.793 26.312 32.766 26.501 32.766 26.744C32.739 27.014 32.739 27.311 32.739 27.581C32.712 27.905 32.712 28.175 32.712 28.418C32.685 28.688 32.685 28.904 32.685 29.039V29.498C32.793 29.471 32.874 29.444 32.982 29.444C33.063 29.444 33.144 29.444 33.252 29.39C33.468 29.336 33.63 29.309 33.792 29.255C33.9 29.228 34.008 29.201 34.116 29.147C34.17 29.147 34.251 29.093 34.359 29.039C34.413 29.012 34.521 28.958 34.629 28.904C34.845 28.796 35.061 28.715 35.277 28.634C35.466 28.58 35.682 28.553 35.898 28.607C36.141 28.661 36.384 28.661 36.627 28.607C36.843 28.58 37.005 28.553 37.14 28.553C37.356 28.553 37.545 28.607 37.761 28.715C37.923 28.877 38.031 29.039 38.085 29.255C38.085 29.336 38.112 29.417 38.139 29.498C38.139 29.606 38.166 29.714 38.166 29.795C38.166 29.903 38.139 29.984 38.085 30.038C38.004 30.119 37.896 30.173 37.761 30.2C37.464 30.308 37.086 30.335 36.654 30.335C36.168 30.335 35.79 30.335 35.493 30.281C35.358 30.281 35.169 30.281 34.926 30.281C34.656 30.308 34.413 30.335 34.143 30.335C33.873 30.362 33.603 30.389 33.36 30.389C33.09 30.443 32.901 30.47 32.793 30.47C32.766 30.47 32.766 30.47 32.766 30.47C32.739 30.497 32.712 30.497 32.712 30.497C32.685 30.929 32.685 31.334 32.685 31.739C32.658 32.171 32.631 32.522 32.604 32.765C32.577 32.981 32.523 33.197 32.469 33.44C32.361 33.71 32.28 33.98 32.172 34.196C32.037 34.466 31.929 34.682 31.821 34.871C31.686 35.087 31.578 35.249 31.47 35.33C31.362 35.438 31.227 35.519 31.119 35.6C30.957 35.708 30.849 35.762 30.741 35.762C30.606 35.816 30.525 35.789 30.471 35.708C30.417 35.654 30.417 35.546 30.498 35.33C30.552 35.168 30.579 34.898 30.633 34.52C30.633 34.142 30.66 33.737 30.66 33.251C30.66 32.792 30.66 32.306 30.66 31.82C30.633 31.334 30.633 30.902 30.633 30.524C30.606 29.795 30.606 29.147 30.606 28.58C30.579 28.04 30.579 27.77 30.633 27.716C30.687 27.635 30.768 27.581 30.849 27.581C30.903 27.581 30.93 27.527 30.984 27.419C30.984 27.365 30.984 27.284 30.957 27.23C30.903 27.176 30.876 27.122 30.849 27.041C30.795 26.987 30.741 26.879 30.714 26.771C30.66 26.69 30.66 26.582 30.687 26.42C30.714 26.231 30.741 26.015 30.741 25.745C30.741 25.529 30.741 25.286 30.741 25.043C30.687 24.503 30.687 24.098 30.741 23.774C30.741 23.504 30.741 23.234 30.741 22.991C30.687 22.802 30.687 22.586 30.687 22.343C30.66 22.127 30.552 21.938 30.336 21.722C30.12 21.56 29.931 21.452 29.769 21.371C29.553 21.317 29.364 21.236 29.202 21.128C29.094 21.074 29.04 21.02 29.04 20.912C29.013 20.858 29.04 20.777 29.094 20.669C29.121 20.615 29.202 20.534 29.31 20.48C29.418 20.453 29.553 20.453 29.742 20.48C29.85 20.534 30.012 20.588 30.282 20.642C30.498 20.723 30.768 20.804 31.065 20.858C31.335 20.966 31.632 21.047 31.929 21.101C32.199 21.209 32.442 21.263 32.604 21.29C32.847 21.344 33.036 21.425 33.198 21.506C33.333 21.614 33.36 21.776 33.279 22.019C33.171 22.316 33.09 22.64 33.009 22.964C32.901 23.315 32.847 23.666 32.847 24.017C32.847 24.287 32.847 24.611 32.847 25.016C32.82 25.448 32.82 25.826 32.82 26.15ZM23.316 27.608C23.478 27.365 23.613 27.176 23.667 27.068C23.721 26.987 23.748 26.906 23.802 26.852C23.937 26.582 23.964 26.42 23.91 26.312C23.802 26.258 23.64 26.258 23.424 26.339C22.965 26.501 22.614 26.609 22.344 26.717C22.047 26.825 21.831 26.906 21.696 26.96C21.291 27.122 20.859 27.284 20.427 27.473C19.968 27.689 19.563 27.824 19.185 27.824C18.591 27.824 18.105 27.743 17.7 27.554C17.268 27.392 16.917 27.257 16.674 27.149C16.593 27.122 16.539 27.068 16.512 26.96C16.458 26.879 16.431 26.798 16.458 26.69C16.458 26.636 16.512 26.555 16.593 26.474C16.647 26.42 16.728 26.42 16.89 26.42C16.998 26.447 17.133 26.447 17.295 26.447C17.457 26.447 17.619 26.447 17.808 26.42C17.97 26.42 18.159 26.42 18.348 26.393C18.51 26.393 18.672 26.393 18.78 26.366C18.996 26.339 19.293 26.285 19.644 26.177C19.968 26.123 20.319 26.042 20.697 25.934C21.075 25.853 21.453 25.745 21.831 25.637C22.182 25.529 22.506 25.448 22.83 25.34C22.884 25.34 22.992 25.286 23.127 25.232C23.235 25.178 23.289 25.151 23.343 25.124C23.721 24.989 24.045 24.881 24.261 24.8C24.45 24.746 24.585 24.665 24.693 24.53C24.747 24.422 24.855 24.314 25.017 24.179C25.125 24.071 25.368 24.098 25.746 24.26C26.205 24.476 26.556 24.692 26.826 24.908C27.069 25.178 27.15 25.421 27.069 25.691C26.934 25.988 26.745 26.285 26.529 26.582C26.259 26.906 25.935 27.311 25.557 27.743C25.341 28.013 25.098 28.283 24.828 28.553C24.558 28.877 24.288 29.174 24.018 29.444C23.721 29.768 23.451 30.038 23.208 30.308C22.938 30.605 22.695 30.848 22.533 31.01C22.101 31.442 21.615 31.901 21.075 32.333C20.535 32.792 19.995 33.224 19.482 33.602C18.942 34.034 18.429 34.385 17.997 34.709C17.511 35.033 17.16 35.303 16.89 35.465C16.62 35.627 16.431 35.654 16.323 35.6C16.188 35.573 16.107 35.492 16.08 35.33C16.026 35.195 16.08 35.06 16.188 34.898C16.269 34.79 16.404 34.601 16.62 34.385C16.836 34.169 17.079 33.899 17.403 33.521C17.7 33.197 17.97 32.9 18.186 32.63C18.375 32.387 18.564 32.252 18.78 32.252C18.969 32.279 19.104 32.252 19.212 32.198C19.239 32.171 19.347 32.036 19.509 31.82C19.644 31.604 19.806 31.388 20.022 31.118C20.184 30.875 20.373 30.632 20.562 30.389C20.724 30.173 20.832 30.011 20.913 29.957C20.967 29.903 21.048 29.903 21.102 29.903C21.129 29.93 21.156 29.93 21.21 29.93C21.237 29.957 21.291 29.957 21.345 29.903C21.399 29.903 21.453 29.795 21.561 29.633C21.723 29.309 21.858 29.039 21.939 28.85C21.993 28.688 22.182 28.553 22.452 28.445C22.722 28.337 22.911 28.175 23.046 28.013C23.154 27.878 23.235 27.743 23.316 27.608ZM26.34 38.84C25.989 39.11 25.719 39.245 25.503 39.191C25.341 39.137 25.179 39.164 25.071 39.218C24.909 39.299 24.801 39.407 24.72 39.515C24.612 39.677 24.558 39.812 24.504 39.974C24.45 40.136 24.396 40.298 24.396 40.46C24.369 40.784 24.369 41.054 24.396 41.378C24.396 41.675 24.45 41.972 24.558 42.242C24.666 42.512 24.828 42.755 25.071 42.971C25.287 43.16 25.638 43.322 26.07 43.43C26.583 43.538 27.096 43.592 27.609 43.538C28.095 43.457 28.527 43.322 28.905 43.16C29.391 42.728 29.688 42.296 29.823 41.837C29.931 41.351 29.985 40.838 30.039 40.244C30.066 39.65 29.931 39.11 29.607 38.624C29.283 38.165 28.824 37.868 28.23 37.76C28.014 37.733 27.771 37.733 27.501 37.733C27.204 37.76 26.961 37.787 26.772 37.787C26.799 38.219 26.664 38.57 26.34 38.84ZM46.9701 23.423C47.2671 23.477 47.5911 23.531 47.9691 23.639C48.2931 23.747 48.6171 23.909 48.9411 24.125C49.2381 24.368 49.5081 24.665 49.7241 24.989C49.9401 25.367 50.0481 25.772 50.1021 26.258C50.1021 26.474 50.1021 26.636 50.1021 26.717C50.0751 26.825 50.0481 26.906 50.0481 26.933C49.9941 26.987 49.9671 27.041 49.9401 27.041C49.8861 27.068 49.8591 27.095 49.8591 27.149C49.8321 27.203 49.8321 27.23 49.8861 27.23C49.8861 27.284 49.9131 27.311 49.9671 27.365C49.9671 27.419 49.9941 27.5 50.0211 27.581C50.0211 27.689 50.0211 27.797 49.9671 27.959C49.8051 28.499 49.5891 28.958 49.2921 29.336C48.9681 29.768 48.5901 30.119 48.1581 30.416C47.9151 30.605 47.6721 30.74 47.4021 30.821C47.1051 30.929 46.8351 30.983 46.5651 31.01C46.2951 31.064 46.0251 31.091 45.8091 31.091C45.5391 31.091 45.3501 31.091 45.2151 31.091C44.8911 31.064 44.5131 30.983 44.1351 30.821C43.7301 30.686 43.4061 30.551 43.1361 30.389C42.7041 30.173 42.3801 29.876 42.1641 29.498C41.8941 29.12 41.7321 28.715 41.6511 28.283C41.5431 27.878 41.4891 27.473 41.5431 27.041C41.5431 26.636 41.6241 26.258 41.7861 25.934C41.9211 25.637 42.1371 25.286 42.4341 24.908C42.7041 24.557 43.0551 24.233 43.4871 23.963C43.3791 23.693 43.2981 23.45 43.1901 23.18C43.0821 22.937 42.9741 22.748 42.8661 22.64C42.7581 22.559 42.7311 22.478 42.7311 22.37C42.7311 22.289 42.7581 22.208 42.8121 22.127C42.8661 22.073 42.9471 22.046 43.0551 22.019C43.1361 22.019 43.2441 22.046 43.3521 22.1C43.5411 22.262 43.7031 22.37 43.8651 22.478C44.0001 22.613 44.2431 22.748 44.6211 22.883C44.9181 23.045 45.1341 23.342 45.2691 23.747C45.4581 23.666 45.7011 23.585 46.0251 23.504C46.3221 23.45 46.6461 23.423 46.9701 23.423ZM54.7461 29.12C54.7461 29.066 54.7461 28.958 54.7461 28.796C54.7191 28.688 54.7191 28.526 54.7191 28.364C54.7191 28.229 54.7191 28.094 54.7461 27.959C54.7461 27.851 54.7731 27.77 54.8271 27.716C54.8811 27.635 54.9351 27.581 55.0161 27.581C55.0701 27.608 55.1241 27.554 55.1781 27.419C55.1781 27.365 55.1781 27.284 55.1511 27.23C55.0971 27.176 55.0431 27.122 55.0161 27.041C54.9621 26.987 54.9081 26.879 54.8811 26.771C54.8271 26.69 54.8271 26.582 54.8811 26.42C54.9081 26.231 54.9351 26.015 54.9351 25.745C54.9081 25.529 54.9081 25.286 54.9081 25.043C54.8811 24.503 54.8811 24.098 54.9081 23.774C54.9081 23.504 54.9081 23.234 54.9081 22.991C54.8811 22.802 54.8541 22.586 54.8541 22.343C54.8271 22.127 54.7191 21.938 54.5301 21.749C54.3141 21.587 54.0981 21.479 53.9361 21.398C53.7201 21.344 53.5581 21.263 53.3961 21.155C53.2881 21.101 53.2341 21.047 53.2341 20.939C53.2071 20.858 53.2071 20.777 53.2611 20.669C53.2881 20.615 53.3691 20.534 53.4771 20.48C53.5851 20.453 53.7201 20.453 53.9361 20.48C54.0171 20.534 54.1791 20.588 54.4491 20.642C54.6651 20.723 54.9351 20.804 55.2321 20.885C55.5021 20.993 55.7991 21.074 56.0961 21.128C56.3661 21.209 56.6091 21.263 56.7711 21.29C57.0141 21.371 57.2031 21.452 57.3651 21.506C57.5001 21.614 57.5271 21.776 57.4461 22.046C57.3381 22.343 57.2571 22.64 57.1761 22.964C57.0681 23.315 57.0141 23.666 57.0141 24.017C57.0141 24.287 57.0141 24.611 57.0141 25.016C56.9871 25.448 56.9871 25.853 56.9871 26.177C56.9871 26.339 56.9601 26.528 56.9601 26.771C56.9331 27.041 56.9061 27.338 56.9061 27.608C56.8791 27.905 56.8791 28.175 56.8791 28.418C56.8521 28.688 56.8521 28.904 56.8521 29.039C56.8521 29.309 56.8521 29.633 56.8521 29.957C56.8521 30.308 56.8521 30.659 56.8521 30.983C56.8251 31.361 56.8251 31.685 56.8251 32.009C56.8251 32.36 56.8251 32.657 56.8251 32.873C56.7711 33.548 56.7711 34.115 56.7711 34.547C56.7441 35.033 56.7441 35.357 56.7441 35.519C56.7441 35.816 56.6901 36.14 56.6361 36.491C56.5281 36.869 56.4471 37.22 56.3391 37.544C56.2041 37.922 56.0691 38.246 55.9611 38.516C55.7991 38.813 55.6911 39.002 55.5831 39.11C55.4751 39.245 55.3401 39.353 55.2321 39.461C55.0701 39.596 54.9621 39.677 54.8541 39.704C54.7191 39.758 54.6381 39.758 54.5841 39.65C54.5301 39.596 54.5301 39.407 54.6111 39.11C54.6651 38.84 54.7191 38.408 54.7731 37.787C54.8001 37.193 54.8271 36.545 54.8541 35.843C54.8541 35.168 54.8541 34.493 54.8541 33.791C54.8271 33.143 54.8271 32.576 54.8271 32.144C54.8271 32.036 54.8271 31.874 54.8271 31.712C54.8271 31.55 54.8001 31.388 54.8001 31.172C54.5301 31.28 54.2871 31.361 54.0171 31.415C53.8551 31.469 53.6931 31.496 53.5041 31.55C53.2881 31.604 53.0721 31.658 52.8561 31.685C52.6401 31.739 52.4241 31.739 52.2621 31.739C52.0461 31.766 51.9111 31.739 51.8301 31.685C51.7221 31.631 51.6681 31.577 51.6141 31.496C51.5331 31.442 51.4521 31.361 51.3981 31.28C51.3171 31.226 51.2361 31.145 51.1281 31.064C51.0201 31.01 50.8581 30.983 50.6961 30.956C50.2911 30.902 50.0751 30.794 50.0211 30.632C49.9401 30.47 50.0211 30.389 50.2911 30.335C50.3991 30.335 50.5071 30.308 50.6151 30.308C50.6691 30.308 50.7771 30.308 50.8851 30.281C50.9661 30.281 51.0741 30.281 51.2361 30.254C51.3711 30.254 51.5601 30.254 51.8301 30.2C51.9381 30.2 52.0731 30.2 52.2891 30.173C52.4781 30.173 52.7211 30.146 52.9911 30.092C53.2611 30.092 53.5311 30.065 53.8551 30.011C54.1251 29.984 54.4221 29.93 54.7461 29.876V29.12ZM43.6221 32.9L46.9971 32.495C47.1591 32.468 47.2941 32.387 47.4561 32.279C47.5641 32.171 47.6991 32.063 47.8341 31.955C47.9421 31.847 48.0771 31.766 48.2121 31.658C48.3201 31.604 48.4551 31.55 48.6171 31.55C48.9681 31.577 49.2921 31.631 49.6161 31.739C49.9131 31.874 50.1561 31.982 50.3721 32.09C50.5341 32.171 50.6961 32.252 50.8581 32.36C50.9661 32.495 51.0741 32.63 51.1821 32.738C51.3441 33.008 51.3981 33.278 51.3711 33.548C51.3171 33.872 51.0201 34.169 50.5071 34.439C50.1561 34.655 49.7511 34.898 49.2921 35.168C48.8061 35.492 48.3471 35.843 47.9421 36.248C47.5101 36.626 47.1321 36.923 46.8081 37.166C46.4301 37.436 46.1061 37.787 45.8361 38.219C45.6201 38.516 45.4311 38.786 45.2151 39.029C44.9721 39.299 44.7831 39.515 44.6481 39.65C44.5401 39.758 44.4051 39.839 44.2971 39.839C44.1621 39.866 44.0541 39.839 43.9731 39.758C43.8651 39.704 43.8111 39.623 43.8111 39.515C43.7841 39.407 43.8381 39.299 43.9461 39.164C44.0541 39.056 44.1351 38.867 44.2161 38.651C44.2701 38.435 44.3511 38.219 44.4051 37.976C44.4321 37.76 44.4591 37.544 44.5131 37.328C44.5131 37.139 44.5401 37.004 44.5671 36.896C44.5941 36.707 44.6751 36.572 44.7831 36.491C44.8641 36.437 45.0261 36.356 45.2961 36.248C45.5121 36.194 45.7281 36.14 45.9441 36.086C46.1061 36.086 46.2951 35.951 46.4571 35.735C46.7271 35.357 47.0241 35.06 47.3481 34.844C47.6721 34.655 47.8881 34.466 47.9961 34.25C48.1041 34.061 48.1311 33.899 48.1311 33.791C48.1041 33.71 47.9151 33.683 47.5911 33.683C46.9701 33.737 46.3761 33.845 45.7821 33.98C45.1881 34.142 44.6211 34.277 44.1351 34.412C43.6221 34.574 43.1901 34.736 42.8391 34.871C42.4611 35.033 42.2181 35.141 42.0831 35.195C41.7591 35.33 41.5161 35.411 41.3541 35.438C41.1381 35.492 40.8681 35.438 40.5171 35.276C40.3281 35.222 40.1391 35.141 39.9231 35.06C39.6801 35.006 39.4641 34.952 39.2481 34.871C39.0051 34.817 38.7891 34.763 38.6001 34.682C38.3841 34.628 38.1951 34.574 38.0871 34.52C37.8171 34.412 37.7091 34.223 37.7631 34.007C37.7631 33.791 37.9251 33.71 38.2221 33.737C38.3571 33.791 38.4921 33.791 38.6001 33.791C38.6811 33.818 38.7621 33.818 38.8701 33.791C38.9241 33.791 39.0321 33.791 39.1401 33.764C39.2211 33.764 39.3291 33.737 39.4911 33.683C40.1661 33.467 40.8681 33.305 41.6241 33.17C42.3261 33.062 43.0011 32.981 43.6221 32.9ZM49.0761 38.3C49.2111 38.3 49.3461 38.381 49.4541 38.489C49.5621 38.624 49.5351 38.786 49.4271 38.975C49.3731 39.083 49.2921 39.191 49.2111 39.353C49.1031 39.515 49.0221 39.677 48.9411 39.839C48.8331 40.028 48.7251 40.19 48.6711 40.352C48.5631 40.514 48.5091 40.649 48.4821 40.73C48.4551 40.838 48.4281 40.973 48.4011 41.135C48.3471 41.297 48.2931 41.459 48.2931 41.648C48.2661 41.81 48.2661 41.972 48.2931 42.161C48.2931 42.323 48.3741 42.485 48.4821 42.62C48.6981 42.863 48.9681 43.025 49.2651 43.106C49.5351 43.16 49.7781 43.214 50.0481 43.241C50.3451 43.241 50.7501 43.214 51.2361 43.214C51.7221 43.16 52.2081 43.133 52.7211 43.079C53.2071 42.998 53.6661 42.917 54.1251 42.863C54.5571 42.782 54.8811 42.701 55.0971 42.62C55.4481 42.485 55.7721 42.431 56.0691 42.458C56.3391 42.458 56.5821 42.539 56.7981 42.755C56.9061 42.863 57.0141 42.944 57.1491 43.052C57.2571 43.106 57.3651 43.187 57.4731 43.268C57.5271 43.322 57.5811 43.376 57.6081 43.43C57.6081 43.484 57.5541 43.538 57.4461 43.592C57.2031 43.7 56.9871 43.808 56.7711 43.916C56.5551 43.997 56.2581 44.078 55.9071 44.186C55.7451 44.24 55.6101 44.294 55.5561 44.375C55.4751 44.429 55.4211 44.483 55.3671 44.564C55.2861 44.618 55.2051 44.699 55.1241 44.78C55.0161 44.834 54.8811 44.861 54.6921 44.915C54.4761 44.942 54.0981 44.969 53.6121 44.996C53.0721 44.996 52.5321 44.996 51.9381 44.996C51.3441 44.969 50.7771 44.942 50.2371 44.915C49.6971 44.861 49.2921 44.834 49.0221 44.78C48.6981 44.699 48.3741 44.591 48.1041 44.483C47.8071 44.348 47.5641 44.186 47.3751 43.97C47.1591 43.754 46.9971 43.484 46.8891 43.187C46.7541 42.863 46.7001 42.512 46.7271 42.08C46.7541 41.54 46.7811 41.162 46.8351 40.919C46.8351 40.703 46.8621 40.46 46.8621 40.19C46.8621 40.028 46.7811 39.893 46.6731 39.758C46.5381 39.65 46.4301 39.542 46.3221 39.38C46.2141 39.272 46.1061 39.11 45.9711 38.921C45.8091 38.759 45.8091 38.57 45.9711 38.3C46.1061 38.03 46.2141 37.868 46.3221 37.814C46.4031 37.787 46.5111 37.814 46.6461 37.895C46.7001 37.949 46.7271 38.003 46.7541 38.057C46.7541 38.111 46.7541 38.165 46.7541 38.192C46.7541 38.246 46.7541 38.3 46.7811 38.327C46.7811 38.381 46.8351 38.381 46.9431 38.381C47.1051 38.435 47.2671 38.408 47.4291 38.327C47.5641 38.273 47.7531 38.219 47.9691 38.192C48.1581 38.192 48.3471 38.192 48.5631 38.219C48.7521 38.273 48.9141 38.3 49.0761 38.3ZM44.9721 25.205C44.6481 25.475 44.3781 25.61 44.1891 25.556V25.583C44.0271 25.529 43.9191 25.529 43.8111 25.583C43.7031 25.664 43.5951 25.772 43.5411 25.88C43.4331 26.015 43.3791 26.15 43.3521 26.312C43.2981 26.474 43.2711 26.636 43.2711 26.744C43.2171 27.014 43.2171 27.284 43.2711 27.554C43.2711 27.824 43.3521 28.094 43.4601 28.31C43.5681 28.553 43.7301 28.769 43.9731 28.931C44.1891 29.12 44.4861 29.255 44.8641 29.336C45.3231 29.471 45.7281 29.498 46.0521 29.444C46.3761 29.39 46.7001 29.282 47.0781 29.12C47.5101 28.796 47.7801 28.418 47.9151 27.986C48.0231 27.608 48.1041 27.149 48.1581 26.609C48.1851 26.069 48.0501 25.583 47.7801 25.151C47.4831 24.746 47.0781 24.476 46.5651 24.368C46.4031 24.341 46.1871 24.314 45.9711 24.314C45.7281 24.314 45.5121 24.314 45.3501 24.314C45.3501 24.476 45.3231 24.638 45.2691 24.8C45.2151 24.962 45.1071 25.097 44.9721 25.205ZM74.3772 33.062L74.5122 32.576H74.4852C74.3772 32.576 74.1612 32.684 73.7832 32.9C73.3782 33.116 72.9462 33.332 72.4872 33.602C72.0012 33.872 71.5152 34.169 71.0292 34.439C70.7592 34.601 70.4892 34.736 70.2192 34.898C69.9222 35.087 69.6252 35.249 69.3012 35.384C68.9502 35.546 68.5992 35.681 68.2482 35.762C67.8702 35.87 67.4922 35.897 67.1142 35.87C66.7902 35.87 66.5472 35.87 66.3582 35.843C66.1422 35.843 65.9532 35.789 65.8452 35.681C65.7102 35.6 65.6292 35.411 65.5752 35.141C65.5212 34.898 65.4942 34.52 65.4942 33.98C65.4942 33.332 65.5752 32.765 65.7912 32.306C65.9802 31.874 66.2772 31.415 66.7092 30.875C66.9252 30.632 67.1682 30.362 67.4652 30.092C67.7352 29.849 68.0322 29.606 68.3292 29.363C68.5992 29.147 68.8422 28.931 69.0852 28.742C69.3012 28.58 69.4362 28.418 69.5442 28.31C69.6522 28.202 69.7332 28.094 69.7602 28.013C69.7602 27.959 69.7332 27.932 69.6792 27.932C69.6252 27.932 69.5442 27.959 69.4902 27.959C69.3822 28.013 69.3282 28.04 69.2742 28.04C69.1122 28.094 69.0042 28.148 68.8962 28.202C68.7612 28.283 68.6262 28.337 68.5182 28.391C68.3832 28.445 68.2482 28.499 68.1132 28.526C67.9512 28.58 67.7352 28.58 67.5192 28.58C67.0602 28.58 66.6552 28.445 66.3042 28.175C65.9262 27.932 65.6562 27.662 65.4942 27.365C65.3862 27.23 65.3592 27.068 65.3592 26.906C65.3322 26.744 65.3322 26.609 65.3862 26.501C65.4132 26.393 65.4672 26.312 65.5482 26.258C65.6022 26.204 65.6562 26.231 65.7642 26.285C65.9262 26.42 66.2232 26.501 66.6822 26.528C67.1142 26.582 67.5732 26.609 68.0592 26.555C68.2752 26.555 68.5452 26.501 68.9232 26.447C69.2472 26.42 69.6252 26.366 70.0032 26.285C70.3812 26.231 70.7322 26.15 71.1102 26.069C71.4612 26.015 71.7582 25.934 71.9742 25.88C72.2982 25.826 72.5412 25.745 72.6762 25.637C72.7842 25.583 72.9732 25.421 73.1892 25.205C73.3782 25.016 73.6212 24.8 73.9452 24.53C74.2422 24.287 74.5662 24.206 74.9442 24.26C75.2682 24.314 75.5922 24.395 75.8622 24.503C76.1052 24.638 76.3482 24.746 76.5642 24.8C76.7802 24.854 76.9422 24.962 77.0502 25.124C77.1312 25.286 77.1582 25.448 77.1042 25.61C77.0502 25.826 76.9692 25.961 76.8072 26.015C76.6452 26.096 76.4022 26.15 76.1322 26.15C75.8892 26.204 75.5112 26.285 74.9712 26.447C74.4312 26.636 73.8912 26.798 73.3782 26.96C73.1082 27.068 72.9192 27.149 72.7842 27.23C72.6222 27.338 72.4872 27.446 72.3792 27.5C72.1632 27.608 71.9202 27.743 71.6502 27.959C71.3262 28.175 71.0292 28.418 70.7592 28.661C70.4352 28.931 70.1652 29.201 69.8952 29.444C69.6252 29.714 69.4092 29.903 69.2742 30.065C69.0582 30.281 68.8962 30.47 68.7342 30.605C68.5452 30.767 68.3832 30.929 68.2482 31.091C68.0862 31.253 67.9782 31.442 67.8972 31.631C67.7892 31.847 67.7082 32.09 67.6542 32.36C67.6272 32.549 67.6272 32.738 67.6812 32.9C67.7082 33.089 67.7892 33.251 67.8972 33.359C68.0052 33.494 68.1402 33.575 68.3292 33.602C68.4912 33.656 68.7342 33.656 69.0042 33.575C69.6522 33.413 70.2732 33.197 70.8402 32.981C71.3802 32.792 71.8662 32.576 72.2442 32.36C72.7032 32.09 73.0542 31.928 73.2972 31.847C73.5132 31.793 73.6482 31.766 73.7292 31.712C73.9452 31.55 74.1342 31.469 74.3502 31.415C74.5122 31.415 74.6742 31.415 74.7822 31.415L74.8902 31.469C74.9442 31.28 74.9712 31.118 75.0252 30.983C75.0252 30.875 75.1062 30.794 75.2412 30.713C75.2952 30.686 75.3762 30.686 75.5382 30.686C75.6732 30.713 75.8352 30.74 76.0242 30.767C76.1862 30.821 76.3482 30.902 76.5372 30.956C76.6992 31.037 76.8342 31.091 76.9692 31.145C77.0772 31.199 77.1582 31.28 77.2392 31.334C77.2932 31.442 77.3472 31.55 77.3742 31.685C77.3742 31.847 77.3202 32.063 77.2662 32.279C77.1582 32.522 77.0232 32.819 76.8342 33.17C76.3482 34.034 75.8622 34.817 75.3492 35.519C74.8092 36.221 74.1612 36.977 73.4052 37.733C73.0812 38.084 72.7572 38.408 72.4602 38.705C72.1362 39.029 71.7852 39.38 71.3802 39.758L76.1322 39.515C76.6182 39.515 77.1042 39.434 77.5902 39.272C78.0222 39.164 78.3732 39.056 78.6432 38.948C78.8592 38.894 79.1022 38.894 79.3722 38.894C79.6152 38.921 79.8852 38.948 80.1552 39.002C80.3982 39.056 80.6412 39.137 80.8842 39.191C81.1002 39.272 81.2622 39.326 81.3972 39.38C81.6132 39.515 81.8022 39.623 81.9642 39.704C82.1262 39.812 82.2882 39.974 82.5042 40.163C82.6932 40.352 82.7742 40.541 82.7202 40.73C82.6662 40.946 82.5042 41.027 82.2342 41.054C82.0722 41.054 81.8562 41.054 81.5592 41.054C81.2352 41.027 80.9382 41.027 80.6142 41.027C80.2632 41 79.9392 41 79.6692 41.027C79.3452 41.027 79.1562 41.027 79.0482 41.054C78.9132 41.054 78.7512 41.054 78.5892 41.054C78.3732 41 78.1842 40.973 78.0222 40.919C77.8062 40.892 77.6442 40.838 77.4822 40.784C77.3202 40.757 77.1852 40.73 77.0772 40.703C76.9692 40.703 76.6992 40.676 76.2942 40.649C75.8622 40.649 75.3492 40.649 74.8092 40.649C74.2422 40.649 73.6752 40.649 73.1352 40.649C72.5412 40.676 72.0822 40.703 71.7042 40.73C70.8132 40.811 69.9492 40.919 69.0852 41.027C68.2212 41.135 67.3842 41.297 66.5742 41.513C66.0072 41.621 65.6292 41.702 65.4132 41.783C65.1702 41.837 64.9812 41.945 64.8462 42.107C64.7112 42.242 64.5762 42.323 64.4682 42.377C64.3062 42.377 64.0902 42.35 63.7932 42.269C63.6312 42.215 63.4152 42.188 63.0912 42.134C62.7672 42.08 62.4162 42.026 62.0652 41.972C61.6872 41.891 61.3632 41.837 61.0932 41.783C60.7692 41.702 60.5802 41.648 60.4992 41.621C60.3912 41.594 60.3102 41.54 60.2562 41.459C60.1752 41.351 60.1482 41.243 60.1482 41.162C60.1482 41.054 60.1752 40.973 60.2832 40.892C60.3372 40.838 60.4722 40.811 60.6882 40.811C60.8502 40.838 61.0932 40.838 61.3632 40.784C61.6062 40.757 61.8492 40.703 62.1192 40.649C62.2272 40.622 62.3892 40.568 62.6322 40.514C62.8482 40.46 63.0912 40.406 63.3612 40.352C63.6042 40.298 63.8742 40.271 64.1442 40.217C64.4142 40.19 64.6302 40.163 64.8462 40.163C65.0622 40.19 65.3052 40.217 65.5752 40.244C65.8452 40.298 66.0882 40.325 66.3582 40.325C66.4662 40.325 66.6552 40.298 66.9252 40.244C67.1952 40.217 67.4922 40.163 67.8702 40.109C68.2212 40.082 68.5992 40.028 69.0312 39.974C69.4362 39.92 69.8412 39.893 70.2462 39.839C70.2462 39.839 70.2462 39.812 70.2732 39.785C70.5162 39.434 70.8672 38.948 71.2992 38.3C71.7042 37.706 72.1092 37.058 72.5412 36.383C72.9462 35.735 73.3242 35.114 73.7022 34.493C74.0262 33.899 74.2692 33.413 74.3772 33.062ZM111.732 33.17C111.732 33.332 111.759 33.521 111.759 33.71C111.759 33.926 111.597 34.061 111.3 34.115C111.003 34.169 110.625 34.169 110.193 34.115C109.734 34.061 109.356 34.007 109.032 33.926C108.897 33.926 108.708 33.899 108.465 33.872C108.195 33.872 107.952 33.872 107.682 33.872C107.412 33.872 107.142 33.872 106.899 33.872C106.629 33.899 106.44 33.899 106.332 33.899H106.278C106.278 34.277 106.278 34.601 106.278 34.925C106.251 35.249 106.251 35.546 106.251 35.789C106.197 36.761 106.197 37.544 106.197 38.192C106.17 38.867 106.17 39.326 106.17 39.569C106.17 40.001 106.116 40.46 106.062 40.973C105.954 41.486 105.873 41.999 105.765 42.485C105.63 42.971 105.495 43.403 105.387 43.808C105.225 44.186 105.117 44.483 105.009 44.645C104.901 44.807 104.766 44.996 104.658 45.185C104.496 45.347 104.388 45.455 104.28 45.536C104.145 45.59 104.064 45.563 104.01 45.455C103.956 45.32 103.956 45.05 104.037 44.645C104.091 44.24 104.145 43.619 104.199 42.782C104.199 41.918 104.226 41 104.253 40.001C104.253 39.029 104.253 38.057 104.253 37.085C104.226 36.14 104.226 35.357 104.226 34.763C104.253 34.304 104.253 33.818 104.226 33.332C104.172 32.846 104.172 32.279 104.172 31.577C104.145 31.145 104.145 30.686 104.145 30.2C104.118 29.741 104.118 29.309 104.118 28.931C104.118 28.58 104.118 28.283 104.118 28.04C104.118 27.824 104.118 27.689 104.145 27.662C104.199 27.608 104.28 27.554 104.361 27.554C104.415 27.554 104.442 27.5 104.496 27.365C104.496 27.311 104.496 27.23 104.469 27.176C104.415 27.122 104.388 27.068 104.361 26.987C104.307 26.933 104.253 26.852 104.226 26.744C104.172 26.663 104.172 26.555 104.199 26.393C104.226 26.204 104.253 25.988 104.253 25.718C104.226 25.502 104.226 25.259 104.226 24.989C104.199 24.449 104.199 24.044 104.253 23.747C104.253 23.477 104.253 23.234 104.226 22.964C104.199 22.775 104.199 22.559 104.199 22.316C104.172 22.1 104.064 21.911 103.848 21.722C103.632 21.56 103.443 21.452 103.254 21.371C103.038 21.317 102.876 21.236 102.714 21.128C102.606 21.074 102.552 21.02 102.552 20.912C102.525 20.831 102.552 20.75 102.606 20.642C102.633 20.588 102.714 20.507 102.822 20.453C102.93 20.426 103.065 20.426 103.254 20.48C103.335 20.534 103.497 20.561 103.767 20.615C103.983 20.696 104.253 20.777 104.577 20.831C104.847 20.939 105.144 21.02 105.441 21.074C105.711 21.155 105.927 21.209 106.116 21.236C106.359 21.317 106.548 21.398 106.71 21.452C106.845 21.56 106.872 21.722 106.791 21.992C106.683 22.289 106.602 22.586 106.521 22.91C106.413 23.261 106.359 23.612 106.359 23.99C106.359 24.233 106.332 24.557 106.332 24.989C106.305 25.421 106.305 25.799 106.305 26.123C106.305 26.285 106.278 26.474 106.278 26.717C106.251 26.987 106.251 27.284 106.251 27.554C106.224 27.851 106.224 28.121 106.224 28.364C106.197 28.634 106.197 28.85 106.197 28.985C106.197 29.282 106.197 29.525 106.224 29.741C106.224 29.984 106.224 30.2 106.224 30.416C106.224 30.659 106.224 30.902 106.251 31.145C106.251 31.415 106.251 31.739 106.251 32.09V32.954L106.926 32.873C107.142 32.846 107.304 32.819 107.466 32.765C107.574 32.765 107.682 32.738 107.79 32.684C107.871 32.684 107.952 32.657 108.06 32.603C108.114 32.603 108.222 32.549 108.33 32.495C108.573 32.414 108.789 32.333 109.005 32.279C109.167 32.225 109.383 32.252 109.626 32.333C109.842 32.441 110.058 32.441 110.328 32.387C110.544 32.36 110.733 32.36 110.868 32.36C111.057 32.387 111.246 32.468 111.435 32.603C111.597 32.765 111.705 32.954 111.732 33.17ZM96.1257 30.875L95.5587 31.982C95.9367 32.198 96.3147 32.414 96.7467 32.63C97.1517 32.9 97.5567 33.143 97.9347 33.359C98.3127 33.629 98.6367 33.845 98.9337 34.034C99.2037 34.25 99.4197 34.412 99.5817 34.52L101.202 36.005C101.283 36.113 101.364 36.221 101.418 36.356C101.472 36.518 101.472 36.761 101.418 37.085C101.364 37.247 101.337 37.382 101.337 37.463C101.31 37.571 101.31 37.625 101.31 37.679C101.31 37.76 101.31 37.841 101.337 37.895C101.337 37.976 101.337 38.057 101.337 38.165C101.337 38.435 101.229 38.57 101.067 38.624C100.851 38.705 100.635 38.651 100.392 38.435C100.23 38.327 99.9867 38.03 99.6627 37.571C99.2847 37.139 98.8797 36.626 98.4207 36.059C97.9347 35.519 97.4487 34.979 96.9357 34.412C96.3957 33.872 95.8827 33.413 95.3967 33.035C95.3157 33.008 95.2077 32.927 95.0727 32.819C94.6947 33.413 94.3167 33.926 93.9387 34.412C93.5067 34.925 93.1017 35.357 92.6967 35.735C92.3727 36.032 92.0217 36.275 91.6977 36.437C91.3197 36.653 90.9687 36.788 90.6177 36.896C90.2397 37.004 89.8887 37.085 89.5647 37.085C89.2137 37.139 88.9167 37.139 88.6467 37.085C88.2417 37.031 88.0527 36.95 88.0527 36.815C88.0797 36.707 88.1877 36.653 88.3767 36.599C88.6467 36.572 88.8897 36.545 89.1597 36.491C89.3757 36.464 89.6187 36.41 89.8617 36.302C90.0777 36.221 90.3207 36.086 90.5907 35.897C90.8067 35.735 91.0767 35.519 91.3467 35.195C91.6977 34.817 92.0757 34.304 92.4807 33.71C92.8587 33.116 93.2097 32.522 93.5607 31.874C93.2097 31.685 92.9127 31.496 92.6427 31.334C92.3727 31.199 92.1567 31.091 92.0217 31.01C91.6977 30.875 91.5627 30.74 91.6437 30.632C91.6977 30.551 91.9137 30.551 92.2917 30.605C92.5347 30.686 92.8047 30.767 93.1017 30.875C93.3717 31.01 93.6417 31.118 93.8847 31.226C93.9657 31.037 94.0467 30.848 94.1547 30.632C94.2087 30.443 94.2897 30.254 94.3707 30.065C94.4247 29.957 94.4787 29.768 94.5867 29.552C94.6407 29.363 94.7217 29.147 94.8297 28.904C94.8837 28.688 94.9647 28.499 95.0457 28.283C95.0997 28.121 95.1537 27.986 95.1807 27.878C95.2617 27.581 95.2347 27.284 95.1267 26.96C94.9647 26.69 94.8297 26.42 94.6947 26.204C94.6407 26.15 94.5867 26.042 94.5327 25.907C94.4517 25.799 94.3977 25.664 94.3707 25.556C94.2627 25.394 94.3167 25.259 94.4787 25.151C94.6137 25.043 94.7757 25.097 94.9647 25.259C95.0727 25.421 95.1807 25.556 95.3427 25.691C95.4507 25.853 95.6667 26.015 95.9907 26.204C96.1527 26.366 96.3957 26.501 96.7197 26.609C97.0167 26.771 97.2597 26.906 97.4757 27.014C97.6377 27.122 97.7727 27.257 97.8807 27.392C97.9347 27.554 97.8267 27.851 97.5567 28.229C97.3947 28.418 97.2597 28.634 97.0977 28.904C96.9357 29.201 96.7737 29.471 96.6657 29.741C96.5037 30.038 96.3957 30.281 96.3147 30.47C96.2067 30.686 96.1257 30.821 96.1257 30.875ZM125.255 32.09L125.443 31.253C125.39 31.28 125.363 31.307 125.309 31.307C125.255 31.361 125.201 31.388 125.147 31.415C124.742 31.631 124.31 31.766 123.851 31.82C123.365 31.901 122.879 32.09 122.393 32.36C121.88 32.684 121.34 32.9 120.8 33.008C120.206 33.17 119.531 33.224 118.748 33.17C118.424 33.17 118.154 33.17 117.938 33.116C117.695 33.089 117.506 33.008 117.344 32.873C117.182 32.765 117.047 32.603 116.993 32.36C116.885 32.144 116.858 31.847 116.858 31.415C116.858 31.091 116.858 30.821 116.912 30.578C116.939 30.362 117.02 30.146 117.128 29.93C117.209 29.741 117.344 29.552 117.506 29.336C117.641 29.174 117.83 28.958 118.073 28.715C118.289 28.499 118.559 28.283 118.856 28.094C119.125 27.932 119.396 27.77 119.666 27.608C119.909 27.5 120.125 27.365 120.341 27.257C120.53 27.176 120.665 27.068 120.773 26.96C120.881 26.852 120.962 26.744 120.989 26.663C120.989 26.609 120.962 26.582 120.908 26.582C120.854 26.582 120.773 26.609 120.719 26.609C120.611 26.663 120.557 26.69 120.503 26.69C120.341 26.744 120.233 26.798 120.125 26.852C119.99 26.906 119.855 26.96 119.747 26.987C119.612 27.041 119.477 27.068 119.342 27.068C119.18 27.095 118.964 27.095 118.748 27.095C118.289 27.095 117.911 26.96 117.587 26.744C117.263 26.555 117.02 26.312 116.858 26.015C116.75 25.88 116.723 25.718 116.723 25.556C116.696 25.394 116.696 25.259 116.75 25.151C116.777 25.043 116.831 24.962 116.912 24.908C116.966 24.854 117.02 24.881 117.128 24.935C117.29 25.07 117.587 25.178 118.046 25.259C118.478 25.367 118.937 25.394 119.423 25.34C119.639 25.34 119.909 25.313 120.287 25.286C120.611 25.286 120.989 25.259 121.367 25.205C121.745 25.178 122.096 25.124 122.474 25.07C122.825 25.043 123.122 24.989 123.338 24.935C123.5 24.908 123.662 24.881 123.77 24.854C123.878 24.854 123.959 24.854 124.067 24.827C124.121 24.827 124.202 24.8 124.283 24.746C124.337 24.719 124.445 24.638 124.553 24.53C124.742 24.341 124.985 24.125 125.309 23.855C125.606 23.612 125.93 23.531 126.308 23.585C126.632 23.639 126.956 23.72 127.226 23.828C127.469 23.963 127.712 24.071 127.928 24.125C128.144 24.179 128.306 24.287 128.414 24.449C128.495 24.611 128.522 24.773 128.468 24.935C128.414 25.151 128.333 25.286 128.171 25.34C128.009 25.421 127.766 25.475 127.496 25.475C127.253 25.529 126.875 25.61 126.335 25.718C125.795 25.853 125.255 25.988 124.742 26.15C124.472 26.258 124.283 26.285 124.148 26.231C123.986 26.204 123.851 26.231 123.743 26.285C123.527 26.393 123.284 26.501 123.014 26.663C122.717 26.852 122.42 27.041 122.15 27.23C121.826 27.446 121.556 27.635 121.286 27.824C121.016 28.04 120.8 28.202 120.638 28.31C120.179 28.688 119.801 28.985 119.504 29.228C119.18 29.498 118.964 29.876 118.883 30.335C118.802 30.713 118.883 30.983 119.125 31.145C119.342 31.361 119.693 31.388 120.233 31.28C120.557 31.226 120.854 31.172 121.124 31.118C121.367 31.091 121.61 31.064 121.826 31.037C122.015 31.037 122.204 31.01 122.393 30.956C122.555 30.956 122.717 30.929 122.933 30.875C123.446 30.767 123.905 30.659 124.283 30.497C124.661 30.362 124.877 30.281 124.958 30.227C125.093 30.146 125.228 30.065 125.39 30.011C125.498 29.984 125.633 29.957 125.768 29.93C125.822 29.768 125.876 29.606 125.93 29.444C125.984 29.336 126.038 29.228 126.092 29.174C126.146 29.12 126.281 29.039 126.442 28.931C126.578 28.85 126.74 28.769 126.956 28.688C127.118 28.634 127.307 28.58 127.523 28.526C127.712 28.526 127.874 28.526 128.036 28.58C128.333 28.688 128.576 28.877 128.792 29.147C128.981 29.444 129.089 29.714 129.143 29.957C129.143 30.227 129.089 30.389 129.008 30.497C128.9 30.605 128.711 30.74 128.495 30.875C128.279 31.037 128.062 31.172 127.874 31.307C127.658 31.469 127.523 31.577 127.442 31.685C127.334 31.793 127.226 31.847 127.145 31.847C127.037 31.874 126.875 31.901 126.659 31.901C126.442 31.928 126.308 31.955 126.227 31.955C126.119 31.982 126.011 32.063 125.93 32.171C125.876 32.225 125.795 32.279 125.741 32.279C125.633 32.333 125.552 32.333 125.498 32.333C125.39 32.333 125.336 32.333 125.309 32.279C125.255 32.252 125.228 32.198 125.255 32.09ZM124.526 39.353C124.526 39.839 124.526 40.244 124.526 40.541C124.499 40.865 124.472 41.135 124.472 41.351C124.445 41.567 124.418 41.729 124.418 41.891C124.391 42.026 124.364 42.161 124.364 42.296C124.337 42.485 124.283 42.701 124.229 42.971C124.121 43.214 124.04 43.457 123.932 43.727C123.824 43.97 123.689 44.213 123.581 44.429C123.446 44.618 123.338 44.753 123.23 44.861C123.122 44.915 122.987 44.996 122.879 45.104C122.717 45.158 122.609 45.212 122.501 45.266C122.366 45.266 122.285 45.266 122.231 45.212C122.177 45.158 122.177 45.023 122.258 44.861C122.312 44.672 122.366 44.375 122.42 43.97C122.42 43.538 122.447 43.079 122.447 42.593C122.447 42.107 122.447 41.621 122.447 41.135C122.42 40.649 122.42 40.244 122.42 39.92C122.42 39.65 122.42 39.353 122.42 39.056C122.393 38.786 122.393 38.516 122.393 38.273C122.366 38.057 122.366 37.895 122.393 37.733C122.393 37.598 122.393 37.517 122.42 37.49C122.474 37.409 122.528 37.355 122.609 37.355C122.663 37.355 122.717 37.328 122.771 37.22C122.771 37.112 122.717 36.977 122.609 36.842C122.474 36.734 122.42 36.545 122.474 36.275V36.059C122.204 36.113 121.934 36.14 121.691 36.14C121.421 36.194 121.205 36.221 121.016 36.221C120.584 36.275 120.125 36.356 119.585 36.437C119.045 36.545 118.532 36.626 118.046 36.707C117.533 36.815 117.074 36.923 116.696 37.004C116.264 37.112 115.994 37.22 115.859 37.274C115.535 37.436 115.292 37.517 115.13 37.517C114.914 37.571 114.644 37.517 114.293 37.355C114.131 37.301 113.942 37.22 113.726 37.139C113.483 37.085 113.24 37.004 113.024 36.923C112.781 36.869 112.565 36.815 112.376 36.734C112.16 36.68 111.971 36.626 111.863 36.545C111.701 36.491 111.62 36.41 111.593 36.302C111.539 36.221 111.512 36.14 111.539 36.032C111.539 35.978 111.566 35.897 111.674 35.843C111.728 35.789 111.836 35.789 111.998 35.816C112.295 35.87 112.511 35.897 112.673 35.87C112.808 35.87 113.024 35.843 113.348 35.735C113.645 35.654 113.888 35.6 114.104 35.546C114.266 35.546 114.509 35.519 114.833 35.465C114.968 35.438 115.156 35.411 115.4 35.357C115.616 35.357 115.859 35.33 116.129 35.276C116.345 35.276 116.588 35.249 116.831 35.195C117.047 35.195 117.236 35.168 117.398 35.168C117.614 35.168 118.019 35.114 118.64 35.06C119.234 35.033 119.909 34.979 120.611 34.925C121.286 34.871 121.934 34.817 122.582 34.763C123.203 34.736 123.662 34.709 123.932 34.709C124.175 34.709 124.472 34.682 124.85 34.655C125.174 34.655 125.525 34.655 125.876 34.628C126.2 34.628 126.497 34.628 126.794 34.601C127.063 34.601 127.253 34.601 127.388 34.574C127.631 34.547 127.874 34.466 128.144 34.358C128.387 34.25 128.657 34.196 128.981 34.196C129.278 34.196 129.602 34.223 129.926 34.277C130.25 34.358 130.547 34.385 130.871 34.358C131.168 34.358 131.465 34.277 131.735 34.142C131.978 34.034 132.248 34.034 132.545 34.088C132.68 34.142 132.842 34.169 133.058 34.169C133.22 34.223 133.409 34.25 133.571 34.304C133.733 34.358 133.841 34.439 133.949 34.493C134.03 34.601 134.057 34.709 134.003 34.817C133.895 35.087 133.814 35.249 133.76 35.276C133.679 35.33 133.571 35.384 133.463 35.465C133.409 35.519 133.382 35.573 133.409 35.681C133.409 35.816 133.382 35.951 133.382 36.059C133.328 36.194 133.274 36.302 133.193 36.356C133.085 36.464 132.923 36.464 132.68 36.41C132.086 36.302 131.546 36.221 131.006 36.14C130.466 36.086 129.98 36.032 129.548 35.978C129.089 35.951 128.711 35.924 128.414 35.87C128.09 35.843 127.874 35.789 127.766 35.735C127.631 35.681 127.55 35.654 127.496 35.627C127.415 35.627 127.361 35.6 127.307 35.573C127.253 35.573 127.172 35.573 127.118 35.573C127.037 35.573 126.929 35.573 126.794 35.573C126.632 35.573 126.362 35.6 125.984 35.627C125.579 35.681 125.12 35.735 124.607 35.789C124.58 36.437 124.553 37.031 124.553 37.598C124.526 38.192 124.526 38.786 124.526 39.353ZM120.422 21.128C120.503 21.128 120.638 21.128 120.8 21.128C120.935 21.128 121.097 21.128 121.259 21.101C121.394 21.101 121.529 21.074 121.691 21.02C121.799 21.02 121.907 20.993 121.961 20.939C122.393 20.669 122.933 20.534 123.581 20.48C123.77 20.48 123.986 20.507 124.202 20.534C124.418 20.588 124.58 20.669 124.688 20.75C124.742 20.804 124.769 20.831 124.769 20.885C124.769 20.966 124.742 21.047 124.742 21.101C124.715 21.209 124.715 21.29 124.715 21.344C124.715 21.425 124.742 21.506 124.796 21.56C124.796 21.614 124.85 21.641 124.931 21.668C124.985 21.722 125.065 21.776 125.12 21.83C125.147 21.884 125.174 21.965 125.174 22.019C125.174 22.1 125.12 22.181 125.039 22.235C124.931 22.316 124.769 22.397 124.553 22.478C124.31 22.586 124.04 22.64 123.77 22.694C123.473 22.775 123.176 22.829 122.906 22.829C122.609 22.856 122.366 22.829 122.15 22.775C121.934 22.721 121.745 22.64 121.583 22.532C121.421 22.451 121.259 22.343 121.124 22.235C120.962 22.154 120.827 22.073 120.692 21.992C120.53 21.938 120.368 21.884 120.206 21.857C120.044 21.857 119.936 21.803 119.882 21.695C119.801 21.641 119.774 21.56 119.801 21.452C119.801 21.371 119.882 21.29 119.99 21.209C120.071 21.155 120.206 21.128 120.422 21.128ZM140.735 37.652C141.383 37.598 142.031 37.544 142.733 37.463C143.381 37.409 144.056 37.247 144.731 36.977C144.947 36.923 145.217 36.761 145.514 36.545C145.784 36.329 145.973 36.059 146.081 35.681L146.486 34.007C146.513 33.899 146.567 33.791 146.648 33.683C146.702 33.602 146.783 33.683 146.864 33.953C146.945 34.223 146.972 34.412 146.972 34.52C146.918 34.655 146.945 34.763 147.053 34.817C147.107 34.898 147.188 34.925 147.296 34.871C147.377 34.871 147.431 34.925 147.485 35.06C147.485 35.222 147.539 35.33 147.62 35.384C147.674 35.465 147.755 35.492 147.809 35.465C147.971 35.465 148.106 35.6 148.16 35.87C148.16 35.978 148.187 36.059 148.295 36.113C148.349 36.221 148.403 36.329 148.457 36.491C148.457 36.68 148.403 36.896 148.241 37.112C148.052 37.355 147.863 37.544 147.647 37.679C147.377 37.868 146.999 38.03 146.459 38.165C145.919 38.327 145.406 38.435 144.92 38.516C144.218 38.624 143.516 38.705 142.787 38.759C142.031 38.84 141.302 38.867 140.6 38.867C140.195 38.867 139.817 38.84 139.493 38.759C139.115 38.705 138.818 38.597 138.575 38.408C138.305 38.246 138.116 38.03 137.981 37.706C137.819 37.409 137.738 37.004 137.765 36.491C137.765 35.627 137.819 34.871 137.873 34.223C137.9 33.602 137.927 33.197 137.927 32.981V32.9C137.819 32.846 137.738 32.819 137.657 32.765C137.549 32.765 137.495 32.711 137.468 32.657C137.414 32.63 137.387 32.576 137.441 32.522C137.468 32.495 137.576 32.441 137.765 32.36C137.711 32.279 137.63 32.171 137.576 32.063C137.495 31.982 137.414 31.901 137.333 31.793C137.063 31.604 136.928 31.442 136.928 31.28C136.901 31.172 137.063 31.118 137.387 31.145C137.711 31.199 138.035 31.28 138.386 31.388C138.71 31.523 139.007 31.658 139.277 31.82C139.277 31.847 139.277 31.847 139.331 31.847C139.736 31.739 140.141 31.604 140.519 31.496C140.87 31.388 141.167 31.307 141.437 31.199C141.734 31.091 141.95 30.956 142.112 30.821C142.247 30.713 142.382 30.497 142.517 30.119C142.625 29.795 142.787 29.39 142.949 28.904C143.111 28.472 143.192 28.121 143.246 27.851C143.246 27.77 143.273 27.662 143.273 27.554C143.273 27.473 143.246 27.392 143.246 27.311C143.192 27.257 143.138 27.203 143.057 27.176C142.949 27.176 142.814 27.23 142.652 27.284C142.49 27.365 142.22 27.446 141.869 27.554C141.491 27.689 141.14 27.824 140.762 27.932C140.384 28.067 140.033 28.175 139.709 28.283C139.385 28.418 139.169 28.526 139.061 28.58C138.845 28.742 138.602 28.877 138.305 28.985C137.981 29.12 137.711 29.12 137.522 28.985C137.306 28.877 137.144 28.715 137.036 28.553C136.928 28.418 136.793 28.256 136.658 28.04C136.496 27.851 136.469 27.716 136.55 27.635C136.604 27.581 136.766 27.527 136.982 27.5C137.171 27.5 137.414 27.473 137.738 27.419C138.035 27.392 138.359 27.338 138.737 27.23C138.845 27.203 139.142 27.122 139.574 26.987C140.006 26.879 140.465 26.744 140.951 26.582C141.437 26.447 141.896 26.312 142.328 26.15C142.76 26.042 143.03 25.934 143.192 25.88C143.732 25.61 144.218 25.556 144.677 25.745C144.92 25.853 145.19 25.961 145.487 26.096C145.757 26.258 145.946 26.42 146.027 26.555C146.108 26.717 146.162 26.852 146.162 26.96C146.135 27.095 146.135 27.257 146.162 27.419C146.162 27.581 146.081 27.77 145.919 27.986C145.73 28.202 145.595 28.364 145.487 28.445C145.433 28.499 145.352 28.58 145.271 28.715C145.163 28.877 145.055 29.039 144.947 29.201C144.839 29.39 144.731 29.579 144.623 29.741C144.515 29.93 144.407 30.092 144.353 30.2C144.245 30.362 144.218 30.443 144.299 30.47C144.353 30.524 144.461 30.524 144.596 30.524C144.677 30.524 144.785 30.497 144.947 30.497C145.082 30.497 145.19 30.605 145.244 30.794C145.271 31.01 145.244 31.145 145.163 31.253C145.055 31.388 144.92 31.523 144.785 31.631C144.623 31.793 144.434 31.874 144.218 31.874C143.975 31.901 143.705 31.955 143.408 32.009C142.949 32.117 142.436 32.225 141.869 32.333C141.275 32.468 140.816 32.603 140.492 32.738C140.384 32.792 140.303 32.819 140.249 32.873C140.141 32.927 140.06 32.981 140.006 33.008C139.952 33.17 139.925 33.332 139.925 33.44C139.871 33.575 139.817 33.71 139.763 33.845C139.655 34.061 139.574 34.358 139.52 34.79C139.439 35.249 139.385 35.654 139.331 36.032C139.277 36.302 139.277 36.545 139.304 36.734C139.304 36.95 139.385 37.139 139.493 37.247C139.574 37.409 139.709 37.517 139.925 37.571C140.114 37.652 140.384 37.679 140.735 37.652ZM153.425 26.123C153.425 26.285 153.398 26.474 153.398 26.717C153.371 26.987 153.371 27.284 153.371 27.554C153.344 27.851 153.344 28.121 153.344 28.364C153.317 28.634 153.317 28.85 153.317 28.985C153.317 29.282 153.317 29.525 153.344 29.741C153.344 29.984 153.344 30.2 153.344 30.416C153.344 30.659 153.344 30.902 153.371 31.145C153.371 31.415 153.371 31.739 153.371 32.09C153.371 32.36 153.371 32.657 153.398 32.981C153.398 33.332 153.398 33.656 153.398 33.98C153.398 34.331 153.398 34.655 153.398 34.952C153.371 35.276 153.371 35.573 153.371 35.789C153.317 36.761 153.317 37.544 153.317 38.192C153.29 38.867 153.29 39.326 153.29 39.569C153.29 40.001 153.236 40.46 153.182 40.973C153.074 41.486 152.993 41.999 152.885 42.485C152.75 42.971 152.615 43.403 152.507 43.808C152.345 44.186 152.237 44.483 152.129 44.645C152.021 44.807 151.886 44.996 151.778 45.185C151.616 45.347 151.508 45.455 151.4 45.536C151.265 45.59 151.184 45.563 151.13 45.455C151.076 45.32 151.076 45.05 151.157 44.645C151.211 44.24 151.265 43.619 151.319 42.782C151.319 41.918 151.346 41 151.373 40.001C151.373 39.029 151.373 38.057 151.373 37.085C151.346 36.14 151.346 35.357 151.346 34.763C151.373 34.304 151.373 33.818 151.346 33.332C151.292 32.846 151.292 32.279 151.292 31.577C151.265 31.145 151.265 30.686 151.265 30.2C151.238 29.741 151.238 29.309 151.238 28.931C151.238 28.58 151.238 28.283 151.238 28.04C151.238 27.824 151.238 27.689 151.265 27.662C151.319 27.608 151.4 27.554 151.481 27.554C151.535 27.554 151.562 27.5 151.616 27.365C151.616 27.311 151.616 27.23 151.589 27.176C151.535 27.122 151.508 27.068 151.481 26.987C151.427 26.933 151.373 26.852 151.346 26.744C151.292 26.663 151.292 26.555 151.319 26.393C151.346 26.204 151.373 25.988 151.373 25.718C151.346 25.502 151.346 25.259 151.346 24.989C151.319 24.449 151.319 24.044 151.373 23.747C151.373 23.477 151.373 23.234 151.346 22.964C151.319 22.775 151.319 22.559 151.319 22.316C151.292 22.1 151.184 21.911 150.968 21.722C150.752 21.56 150.563 21.452 150.374 21.371C150.158 21.317 149.996 21.236 149.834 21.128C149.726 21.074 149.672 21.02 149.672 20.912C149.645 20.831 149.672 20.75 149.726 20.642C149.753 20.588 149.834 20.507 149.942 20.453C150.05 20.426 150.185 20.426 150.374 20.48C150.455 20.534 150.617 20.561 150.887 20.615C151.103 20.696 151.373 20.777 151.697 20.831C151.967 20.939 152.264 21.02 152.561 21.074C152.831 21.155 153.047 21.209 153.236 21.236C153.479 21.317 153.668 21.398 153.83 21.452C153.965 21.56 153.992 21.722 153.911 21.992C153.803 22.289 153.722 22.586 153.641 22.91C153.533 23.261 153.479 23.612 153.479 23.99C153.479 24.233 153.452 24.557 153.452 24.989C153.425 25.421 153.425 25.799 153.425 26.123Z" fill="#F6C500"/>
<path d="M181.69 34.8H159.89V33.45H181.69V34.8ZM179.165 30.075H162.94V22.15H164.615V28.725H179.165V30.075ZM179.59 43.95H162.965V37H164.64V42.575H179.59V43.95ZM204.595 32.9L203.595 34.15C200.895 33.05 198.345 30.9 197.295 28.6C196.395 31.025 193.82 33.475 190.77 34.9L189.695 33.75C193.32 32.225 196.37 28.975 196.37 25.2V22.65H198.12V25.2C198.12 28.725 201.27 31.65 204.595 32.9ZM208.845 38.55H207.195V22.075H208.845V27.975H212.12V29.375H208.845V38.55ZM209.77 43.95H194.295V36.55H195.97V42.6H209.77V43.95ZM231.718 35.2H230.068V22.075H231.718V27.25H235.118V28.625H231.718V35.2ZM231.668 44.425H229.993V37.775H216.593V36.4H231.668V44.425ZM225.768 28.025C225.768 31.1 223.318 33.55 219.768 33.55C216.168 33.55 213.743 31.1 213.743 28.025C213.743 24.95 216.168 22.475 219.768 22.475C223.318 22.475 225.768 24.95 225.768 28.025ZM224.093 28.025C224.093 25.675 222.468 23.825 219.768 23.825C217.018 23.825 215.418 25.675 215.418 28.025C215.418 30.35 217.018 32.2 219.768 32.2C222.468 32.2 224.093 30.35 224.093 28.025ZM258.347 37.975L257.322 39.175C254.472 37.55 251.622 34.7 250.672 31.95C249.797 35.025 247.172 37.9 243.947 39.825L242.822 38.725C246.472 36.675 249.722 32.85 249.722 27.675V24.9H244.122V23.55H256.947V24.9H251.497V27.675C251.497 32.75 255.147 36.325 258.347 37.975ZM262.622 44.3H260.947V22.075H262.622V44.3ZM277.895 44.675C272.87 44.675 269.795 43 269.795 40.725C269.795 38.45 272.87 36.775 277.895 36.775C282.92 36.775 285.995 38.45 285.995 40.725C285.995 43 282.92 44.675 277.895 44.675ZM277.895 38.05C274.195 38.05 271.495 39.025 271.495 40.725C271.495 42.425 274.195 43.4 277.895 43.4C281.57 43.4 284.295 42.425 284.295 40.725C284.295 39.025 281.57 38.05 277.895 38.05ZM280.22 26.525H266.77V25.225H280.22V26.525ZM277.145 23.475H270.02V22.175H277.145V23.475ZM273.645 34.975C270.195 34.975 267.97 33.35 267.97 31.35C267.97 29.35 270.195 27.725 273.645 27.725C277.07 27.725 279.32 29.35 279.32 31.35C279.32 33.35 277.07 34.975 273.645 34.975ZM273.645 29C271.12 29 269.645 30 269.645 31.35C269.645 32.725 271.12 33.725 273.645 33.725C276.17 33.725 277.645 32.7 277.645 31.35C277.645 30 276.17 29 273.645 29ZM285.57 36.625H283.895V33.35H279.945V32.05H283.895V29.2H279.945V27.9H283.895V22.075H285.57V36.625ZM308.618 44.3H306.943V22.075H308.618V44.3ZM290.318 31.125C290.318 25.8 292.768 22.675 296.018 22.675C299.293 22.675 301.718 25.8 301.718 31.125C301.718 36.475 299.293 39.6 296.018 39.6C292.768 39.6 290.318 36.475 290.318 31.125ZM300.043 31.125C300.043 26.55 298.368 24.025 296.018 24.025C293.693 24.025 291.993 26.55 291.993 31.125C291.993 35.725 293.693 38.25 296.018 38.25C298.368 38.25 300.043 35.725 300.043 31.125ZM339.572 38.325H328.872V37.05H339.572V38.325ZM329.147 42.425V43.75C327.822 44 325.922 44.05 324.547 44.05H322.297V34.675H323.922V42.7H324.597C325.872 42.7 327.722 42.65 329.147 42.425ZM337.172 35.675H331.272V34.4H337.172V35.675ZM331.097 32.025H320.547V23.225H331.097V32.025ZM329.422 30.725V24.525H322.222V30.725H329.422ZM337.772 33.2H336.122V22.075H337.772V26.7H341.172V28.1H337.772V33.2ZM334.197 44.625C331.522 44.625 329.722 43.475 329.722 41.9C329.722 40.325 331.522 39.175 334.197 39.175C336.897 39.175 338.647 40.325 338.647 41.9C338.647 43.475 336.897 44.625 334.197 44.625ZM334.197 40.4C332.422 40.4 331.347 41.025 331.347 41.9C331.347 42.775 332.422 43.4 334.197 43.4C335.972 43.4 337.022 42.775 337.022 41.9C337.022 41.025 335.972 40.4 334.197 40.4ZM361.671 43.95H345.046V37.3H346.721V42.575H361.671V43.95ZM363.771 35.35H341.971V34H363.771V35.35ZM352.846 31.325C347.771 31.325 344.671 29.375 344.671 26.65C344.671 23.925 347.771 21.95 352.846 21.95C357.921 21.95 361.046 23.925 361.046 26.65C361.046 29.375 357.921 31.325 352.846 31.325ZM352.846 23.275C349.146 23.275 346.321 24.475 346.321 26.65C346.321 28.825 349.146 30.025 352.846 30.025C356.571 30.025 359.371 28.825 359.371 26.65C359.371 24.475 356.571 23.275 352.846 23.275ZM387.4 37.975L386.375 39.175C383.525 37.55 380.675 34.7 379.725 31.95C378.85 35.025 376.225 37.9 373 39.825L371.875 38.725C375.525 36.675 378.775 32.85 378.775 27.675V24.9H373.175V23.55H386V24.9H380.55V27.675C380.55 32.75 384.2 36.325 387.4 37.975ZM391.675 44.3H390V22.075H391.675V44.3ZM414.623 35.2H412.948V31.4H406.923C405.848 32.725 404.173 33.55 402.098 33.55C398.498 33.55 396.073 31.1 396.073 28.025C396.073 24.95 398.498 22.475 402.098 22.475C404.223 22.475 405.923 23.375 406.998 24.725H412.948V22.075H414.623V35.2ZM406.423 28.025C406.423 25.675 404.823 23.825 402.098 23.825C399.348 23.825 397.773 25.675 397.773 28.025C397.773 30.35 399.348 32.2 402.098 32.2C404.823 32.2 406.423 30.35 406.423 28.025ZM414.573 44.425H412.898V37.775H399.223V36.4H414.573V44.425ZM412.948 30.05V26.075H407.748C407.998 26.7 408.098 27.35 408.098 28.025C408.098 28.75 407.998 29.425 407.723 30.05H412.948ZM433.271 32.85L432.271 34.05C429.471 33.025 426.971 30.975 425.946 28.8C425.046 31.225 422.446 33.525 419.396 34.8L418.346 33.65C421.921 32.35 425.021 29.175 425.021 25.4V24.55H419.571V23.225H432.071V24.55H426.796V25.4C426.796 29.025 429.946 31.775 433.271 32.85ZM437.571 44.425H435.896V38.025H422.221V36.65H437.571V44.425ZM437.621 35.45H435.946V28.625H430.921V27.225H435.946V22.075H437.621V35.45ZM466.675 44.425H465V38.95H450.725V37.65H466.675V44.425ZM469.825 35.2H448.025V33.9H469.825V35.2ZM467.05 31.7H451.075V22.625H466.775V23.925H452.75V26.475H466.675V27.75H452.75V30.375H467.05V31.7ZM482.973 44.675C477.948 44.675 474.873 42.8 474.873 40.25C474.873 37.725 477.948 35.85 482.973 35.85C487.998 35.85 491.073 37.725 491.073 40.25C491.073 42.8 487.998 44.675 482.973 44.675ZM482.973 37.2C479.273 37.2 476.573 38.325 476.573 40.25C476.573 42.2 479.273 43.325 482.973 43.325C486.648 43.325 489.373 42.2 489.373 40.25C489.373 38.325 486.648 37.2 482.973 37.2ZM485.973 32.375L484.998 33.625C482.198 32.6 479.673 30.525 478.648 28.3C477.748 30.75 475.223 33.025 472.098 34.35L471.073 33.225C474.723 31.825 477.723 28.7 477.723 24.9V22.65H479.498V24.9C479.498 28.525 482.573 31.25 485.973 32.375ZM490.648 35.675H488.973V27.7H483.398V26.3H488.973V22.075H490.648V35.675ZM504.896 34.8C500.046 34.8 496.721 32.15 496.721 28.675C496.721 25.175 500.046 22.525 504.896 22.525C509.771 22.525 513.121 25.175 513.121 28.675C513.121 32.15 509.771 34.8 504.896 34.8ZM504.896 23.875C501.221 23.875 498.371 25.775 498.371 28.675C498.371 31.55 501.221 33.45 504.896 33.45C508.596 33.45 511.446 31.55 511.446 28.675C511.446 25.775 508.596 23.875 504.896 23.875ZM515.846 41.05H493.996V39.7H515.846V41.05ZM538.844 41.375H516.994V40.025H527.194V35.3H520.069V28.625H533.794V24.65H520.069V23.3H535.444V29.95H521.744V33.925H536.169V35.3H528.894V40.025H538.844V41.375ZM560.199 28.3C560.199 31.5 557.724 34.05 554.149 34.05C550.524 34.05 548.074 31.5 548.074 28.3C548.074 25.05 550.524 22.475 554.149 22.475C557.724 22.475 560.199 25.05 560.199 28.3ZM554.149 32.7C556.899 32.7 558.524 30.75 558.524 28.275C558.524 25.775 556.899 23.825 554.149 23.825C551.374 23.825 549.774 25.775 549.774 28.275C549.774 30.75 551.374 32.7 554.149 32.7ZM566.674 38.575H564.999V22.075H566.674V38.575ZM567.499 43.95H551.799V36.55H553.474V42.6H567.499V43.95ZM582.122 27.8H570.547V26.45H582.122V27.8ZM579.447 24.225H573.172V22.875H579.447V24.225ZM590.247 44.3H588.572V32.55H585.222V43.25H583.597V22.45H585.222V31.075H588.572V22.075H590.247V44.3ZM571.322 34.6C571.322 31.775 573.522 29.65 576.297 29.65C579.097 29.65 581.322 31.775 581.322 34.6C581.322 37.425 579.097 39.55 576.297 39.55C573.522 39.55 571.322 37.425 571.322 34.6ZM579.697 34.6C579.697 32.5 578.372 30.95 576.297 30.95C574.272 30.95 572.947 32.5 572.947 34.6C572.947 36.675 574.272 38.25 576.297 38.25C578.372 38.25 579.697 36.675 579.697 34.6ZM615.476 37.975L614.451 39.175C611.601 37.55 608.751 34.7 607.801 31.95C606.926 35.025 604.301 37.9 601.076 39.825L599.951 38.725C603.601 36.675 606.851 32.85 606.851 27.675V24.9H601.251V23.55H614.076V24.9H608.626V27.675C608.626 32.75 612.276 36.325 615.476 37.975ZM619.751 44.3H618.076V22.075H619.751V44.3ZM642.699 35.2H641.024V31.4H634.999C633.924 32.725 632.249 33.55 630.174 33.55C626.574 33.55 624.149 31.1 624.149 28.025C624.149 24.95 626.574 22.475 630.174 22.475C632.299 22.475 633.999 23.375 635.074 24.725H641.024V22.075H642.699V35.2ZM634.499 28.025C634.499 25.675 632.899 23.825 630.174 23.825C627.424 23.825 625.849 25.675 625.849 28.025C625.849 30.35 627.424 32.2 630.174 32.2C632.899 32.2 634.499 30.35 634.499 28.025ZM642.649 44.425H640.974V37.775H627.299V36.4H642.649V44.425ZM641.024 30.05V26.075H635.824C636.074 26.7 636.174 27.35 636.174 28.025C636.174 28.75 636.074 29.425 635.799 30.05H641.024ZM672.653 44.3H671.003V31.375H667.278V43.25H665.678V22.45H667.278V29.925H671.003V22.075H672.653V44.3ZM664.653 36.65V38C662.578 38.325 659.553 38.525 657.353 38.525H655.003V23.25H656.603V37.15H657.353C659.553 37.15 662.553 36.975 664.653 36.65ZM691.651 43.25H690.026V31.825H687.001C686.851 36.725 684.776 39.575 681.951 39.575C679.026 39.575 676.901 36.475 676.901 31.2C676.901 25.95 679.026 22.85 681.951 22.85C684.751 22.85 686.826 25.65 687.001 30.425H690.026V22.45H691.651V43.25ZM681.951 38.225C684.051 38.225 685.401 35.45 685.401 31.2C685.401 26.975 684.051 24.2 681.951 24.2C679.901 24.2 678.526 26.975 678.526 31.2C678.526 35.45 679.901 38.225 681.951 38.225ZM696.176 44.3H694.501V22.075H696.176V44.3ZM718.774 44.3H717.099V30.525H711.549V29.125H717.099V22.075H718.774V44.3ZM714.174 37.875L713.174 39.075C710.199 37.45 707.399 34.425 706.524 31.575C705.599 34.725 703.224 37.625 699.799 39.725L698.674 38.675C702.524 36.425 705.574 32.55 705.574 27.25V23.05H707.349V27.25C707.349 32.35 710.699 36.15 714.174 37.875ZM743.922 41.225H722.072V39.875H732.272V34H725.147V23.475H741.122V24.825H726.822V32.65H741.372V34H733.972V39.875H743.922V41.225ZM34.075 82.3H32.425V60.075H34.075V68H37.825V69.425H34.075V82.3ZM31.35 74.2V75.55C28.55 76.125 24.175 76.4 20.825 76.4H17.375V61.55H28.1V62.9H19.025V75.025H20.825C24.175 75.025 28.35 74.75 31.35 74.2ZM51.473 66.025C51.473 69.1 49.023 71.55 45.473 71.55C41.873 71.55 39.448 69.1 39.448 66.025C39.448 62.95 41.873 60.475 45.473 60.475C49.023 60.475 51.473 62.95 51.473 66.025ZM49.798 66.025C49.798 63.675 48.173 61.825 45.473 61.825C42.723 61.825 41.123 63.675 41.123 66.025C41.123 68.35 42.723 70.2 45.473 70.2C48.173 70.2 49.798 68.35 49.798 66.025ZM57.948 78.275C57.948 80.8 54.998 82.675 50.098 82.675C45.248 82.675 42.298 80.8 42.298 78.275C42.298 75.725 45.248 73.85 50.098 73.85C54.998 73.85 57.948 75.725 57.948 78.275ZM56.298 78.275C56.298 76.325 53.698 75.2 50.098 75.2C46.573 75.2 43.973 76.325 43.973 78.275C43.973 80.2 46.573 81.325 50.098 81.325C53.698 81.325 56.298 80.2 56.298 78.275ZM57.423 73.4H55.773V60.075H57.423V62.95H60.698V64.3H57.423V67.8H60.698V69.15H57.423V73.4ZM80.6961 76.75H79.0211V60.075H80.6961V66.925H84.0961V68.325H80.6961V76.75ZM81.6211 81.95H66.1461V75.5H67.7961V80.6H81.6211V81.95ZM76.1211 64.8H62.4461V63.5H76.1211V64.8ZM72.8211 61.475H65.6961V60.175H72.8211V61.475ZM69.3211 73.825C65.8711 73.825 63.6461 72.1 63.6461 69.975C63.6461 67.85 65.8711 66.125 69.3211 66.125C72.7461 66.125 74.9961 67.85 74.9961 69.975C74.9961 72.1 72.7461 73.825 69.3211 73.825ZM69.3211 67.4C66.7961 67.4 65.3211 68.5 65.3211 69.975C65.3211 71.475 66.7961 72.575 69.3211 72.575C71.8461 72.575 73.3211 71.45 73.3211 69.975C73.3211 68.5 71.8461 67.4 69.3211 67.4ZM111.275 73.2H109.6V66.625H104.75C104.425 69.425 102.075 71.55 98.7504 71.55C95.1504 71.55 92.7254 69.1 92.7254 66.025C92.7254 62.95 95.1504 60.475 98.7504 60.475C102 60.475 104.325 62.55 104.725 65.25H109.6V60.075H111.275V73.2ZM103.075 66.025C103.075 63.675 101.475 61.825 98.7504 61.825C96.0004 61.825 94.4254 63.675 94.4254 66.025C94.4254 68.35 96.0004 70.2 98.7504 70.2C101.475 70.2 103.075 68.35 103.075 66.025ZM111.225 82.425H109.55V75.775H95.8754V74.4H111.225V82.425ZM127.498 66.025C127.498 69.1 125.048 71.55 121.498 71.55C117.898 71.55 115.473 69.1 115.473 66.025C115.473 62.95 117.898 60.475 121.498 60.475C125.048 60.475 127.498 62.95 127.498 66.025ZM125.823 66.025C125.823 63.675 124.198 61.825 121.498 61.825C118.748 61.825 117.148 63.675 117.148 66.025C117.148 68.35 118.748 70.2 121.498 70.2C124.198 70.2 125.823 68.35 125.823 66.025ZM133.973 78.275C133.973 80.8 131.023 82.675 126.123 82.675C121.273 82.675 118.323 80.8 118.323 78.275C118.323 75.725 121.273 73.85 126.123 73.85C131.023 73.85 133.973 75.725 133.973 78.275ZM132.323 78.275C132.323 76.325 129.723 75.2 126.123 75.2C122.598 75.2 119.998 76.325 119.998 78.275C119.998 80.2 122.598 81.325 126.123 81.325C129.723 81.325 132.323 80.2 132.323 78.275ZM133.448 73.4H131.798V60.075H133.448V62.95H136.723V64.3H133.448V67.8H136.723V69.15H133.448V73.4ZM156.371 82.3H154.696V60.075H156.371V69.1H159.921V70.525H156.371V82.3ZM153.746 75.4V76.7C151.421 77.2 148.596 77.35 145.296 77.35H137.821V76H143.071V68.15H144.746V76H145.396C148.471 76 151.421 75.825 153.746 75.4ZM150.221 72.725H148.571C149.096 70.2 149.646 65.875 149.596 62.8H139.121V61.45H151.346C151.321 64.9 150.871 69.675 150.221 72.725ZM187.026 76.55H185.376V69.625H180.026V72.475H169.401V60.85H171.051V65.275H178.351V60.85H180.026V63.775H185.376V60.075H187.026V76.55ZM178.351 71.125V66.575H171.051V71.125H178.351ZM187.851 81.95H172.151V74.775H173.826V80.6H187.851V81.95ZM185.376 68.275V65.125H180.026V68.275H185.376ZM210.349 82.3H208.674V60.075H210.349V82.3ZM192.049 69.125C192.049 63.8 194.499 60.675 197.749 60.675C201.024 60.675 203.449 63.8 203.449 69.125C203.449 74.475 201.024 77.6 197.749 77.6C194.499 77.6 192.049 74.475 192.049 69.125ZM201.774 69.125C201.774 64.55 200.099 62.025 197.749 62.025C195.424 62.025 193.724 64.55 193.724 69.125C193.724 73.725 195.424 76.25 197.749 76.25C200.099 76.25 201.774 73.725 201.774 69.125ZM232.697 68.675H216.722V63.975H230.497V61.9H216.722V60.625H232.147V65.2H218.397V67.375H232.697V68.675ZM235.472 71.875H213.672V70.6H235.472V71.875ZM232.922 82.05H216.697V77.275H230.697V75.2H216.697V73.925H232.372V78.525H218.372V80.75H232.922V82.05ZM265.526 79.225H243.676V77.875H253.726V72.75H246.751V61.175H248.426V65.25H260.726V61.175H262.401V72.75H255.451V77.875H265.526V79.225ZM260.726 71.4V66.575H248.426V71.4H260.726ZM279.849 66.3C279.849 69.5 277.374 72.05 273.799 72.05C270.174 72.05 267.724 69.5 267.724 66.3C267.724 63.05 270.174 60.475 273.799 60.475C277.374 60.475 279.849 63.05 279.849 66.3ZM273.799 70.7C276.549 70.7 278.174 68.75 278.174 66.275C278.174 63.775 276.549 61.825 273.799 61.825C271.024 61.825 269.424 63.775 269.424 66.275C269.424 68.75 271.024 70.7 273.799 70.7ZM286.324 76.575H284.649V60.075H286.324V76.575ZM287.149 81.95H271.449V74.55H273.124V80.6H287.149V81.95ZM308.147 82.3H306.497V60.075H308.147V68H311.897V69.425H308.147V82.3ZM305.422 74.2V75.55C302.622 76.125 298.247 76.4 294.897 76.4H291.447V61.55H302.172V62.9H293.097V75.025H294.897C298.247 75.025 302.422 74.75 305.422 74.2ZM316.895 79.825C316.895 80.625 316.27 81.225 315.47 81.225C314.62 81.225 313.995 80.625 313.995 79.825C313.995 79.075 314.62 78.425 315.47 78.425C316.27 78.425 316.895 79.075 316.895 79.825ZM346.212 71.6H344.537V60.075H346.212V71.6ZM346.712 82.05H331.337V76.7H344.512V74.075H331.337V72.775H346.187V77.95H333.012V80.725H346.712V82.05ZM333.587 70.9C330.037 70.9 327.662 68.55 327.662 65.625C327.662 62.725 330.037 60.375 333.587 60.375C337.087 60.375 339.462 62.725 339.462 65.625C339.462 68.55 337.087 70.9 333.587 70.9ZM333.587 61.7C330.887 61.7 329.362 63.425 329.362 65.625C329.362 67.825 330.887 69.575 333.587 69.575C336.262 69.575 337.787 67.825 337.787 65.625C337.787 63.425 336.262 61.7 333.587 61.7ZM368.285 70.5H352.635V60.55H354.31V63.825H366.61V60.55H368.285V70.5ZM366.61 69.15V65.15H354.31V69.15H366.61ZM371.41 74.65H361.335V82.3H359.61V74.65H349.56V73.3H371.41V74.65ZM399.239 73.2H397.564V66.625H392.714C392.389 69.425 390.039 71.55 386.714 71.55C383.114 71.55 380.689 69.1 380.689 66.025C380.689 62.95 383.114 60.475 386.714 60.475C389.964 60.475 392.289 62.55 392.689 65.25H397.564V60.075H399.239V73.2ZM391.039 66.025C391.039 63.675 389.439 61.825 386.714 61.825C383.964 61.825 382.389 63.675 382.389 66.025C382.389 68.35 383.964 70.2 386.714 70.2C389.439 70.2 391.039 68.35 391.039 66.025ZM399.189 82.425H397.514V75.775H383.839V74.4H399.189V82.425ZM415.462 66.025C415.462 69.1 413.012 71.55 409.462 71.55C405.862 71.55 403.437 69.1 403.437 66.025C403.437 62.95 405.862 60.475 409.462 60.475C413.012 60.475 415.462 62.95 415.462 66.025ZM413.787 66.025C413.787 63.675 412.162 61.825 409.462 61.825C406.712 61.825 405.112 63.675 405.112 66.025C405.112 68.35 406.712 70.2 409.462 70.2C412.162 70.2 413.787 68.35 413.787 66.025ZM421.937 78.275C421.937 80.8 418.987 82.675 414.087 82.675C409.237 82.675 406.287 80.8 406.287 78.275C406.287 75.725 409.237 73.85 414.087 73.85C418.987 73.85 421.937 75.725 421.937 78.275ZM420.287 78.275C420.287 76.325 417.687 75.2 414.087 75.2C410.562 75.2 407.962 76.325 407.962 78.275C407.962 80.2 410.562 81.325 414.087 81.325C417.687 81.325 420.287 80.2 420.287 78.275ZM421.412 73.4H419.762V60.075H421.412V62.95H424.687V64.3H421.412V67.8H424.687V69.15H421.412V73.4ZM444.335 82.3H442.66V60.075H444.335V69.1H447.885V70.525H444.335V82.3ZM441.71 75.4V76.7C439.385 77.2 436.56 77.35 433.26 77.35H425.785V76H431.035V68.15H432.71V76H433.36C436.435 76 439.385 75.825 441.71 75.4ZM438.185 72.725H436.535C437.06 70.2 437.61 65.875 437.56 62.8H427.085V61.45H439.31C439.285 64.9 438.835 69.675 438.185 72.725ZM474.915 82.05H459.815V76.675H472.715V74.05H459.815V72.75H474.39V77.95H461.465V80.725H474.915V82.05ZM474.44 71.55H472.79V60.075H474.44V64.475H477.84V65.85H474.44V71.55ZM467.765 70.25H457.215V60.85H458.89V64.125H466.09V60.85H467.765V70.25ZM466.09 68.95V65.425H458.89V68.95H466.09ZM489.513 68.625C484.438 68.625 481.338 66.8 481.338 64.275C481.338 61.775 484.438 59.95 489.513 59.95C494.588 59.95 497.713 61.775 497.713 64.275C497.713 66.8 494.588 68.625 489.513 68.625ZM489.513 61.275C485.813 61.275 482.988 62.35 482.988 64.3C482.988 66.225 485.813 67.3 489.513 67.3C493.238 67.3 496.038 66.225 496.038 64.3C496.038 62.35 493.238 61.275 489.513 61.275ZM500.438 71.975H478.638V70.625H500.438V71.975ZM497.363 82.05H481.688V74.525H497.363V82.05ZM495.688 80.7V75.875H483.363V80.7H495.688ZM521.336 81.95H504.711V75.3H506.386V80.575H521.336V81.95ZM523.436 73.35H501.636V72H523.436V73.35ZM512.511 69.325C507.436 69.325 504.336 67.375 504.336 64.65C504.336 61.925 507.436 59.95 512.511 59.95C517.586 59.95 520.711 61.925 520.711 64.65C520.711 67.375 517.586 69.325 512.511 69.325ZM512.511 61.275C508.811 61.275 505.986 62.475 505.986 64.65C505.986 66.825 508.811 68.025 512.511 68.025C516.236 68.025 519.036 66.825 519.036 64.65C519.036 62.475 516.236 61.275 512.511 61.275ZM550.365 68.75H534.715V60.275H536.39V63.05H548.69V60.275H550.365V68.75ZM550.315 82.425H548.64V76.875H534.365V75.525H541.69V72.525H531.665V71.175H553.465V72.525H543.415V75.525H550.315V82.425ZM548.69 67.4V64.35H536.39V67.4H548.69ZM573.738 76.75H572.063V60.075H573.738V66.925H577.138V68.325H573.738V76.75ZM574.663 81.95H559.188V75.5H560.838V80.6H574.663V81.95ZM569.163 64.8H555.488V63.5H569.163V64.8ZM565.863 61.475H558.738V60.175H565.863V61.475ZM562.363 73.825C558.913 73.825 556.688 72.1 556.688 69.975C556.688 67.85 558.913 66.125 562.363 66.125C565.788 66.125 568.038 67.85 568.038 69.975C568.038 72.1 565.788 73.825 562.363 73.825ZM562.363 67.4C559.838 67.4 558.363 68.5 558.363 69.975C558.363 71.475 559.838 72.575 562.363 72.575C564.888 72.575 566.363 71.45 566.363 69.975C566.363 68.5 564.888 67.4 562.363 67.4ZM599.517 75.875L598.492 77.075C595.517 75.45 592.742 72.425 591.842 69.575C590.917 72.725 588.542 75.625 585.142 77.725L583.992 76.675C587.892 74.425 590.892 70.55 590.892 65.25V61.05H592.692V65.25C592.692 70.35 596.017 74.15 599.517 75.875ZM603.417 82.3H601.742V60.075H603.417V68.675H607.167V70.1H603.417V82.3ZM626.84 71.05H610.74V60.775H626.365V62.125H612.415V65.2H626.265V66.525H612.415V69.675H626.84V71.05ZM629.515 75H619.44V82.3H617.715V75H607.665V73.65H629.515V75ZM649.838 82.3H648.163V60.075H649.838V82.3ZM646.988 74.7V76.075C644.188 76.625 639.813 76.9 636.438 76.9H632.488V68.375H641.463V62.775H632.488V61.425H643.163V69.7H634.138V75.525H636.438C639.813 75.525 643.988 75.275 646.988 74.7ZM669.012 76.275L668.012 77.475C664.962 76 662.362 73.5 661.412 70.775C660.462 73.675 657.812 76.375 654.737 78.05L653.637 76.975C657.112 75.225 660.462 71.775 660.462 66.875V66.125H654.862V64.775H667.687V66.125H662.237V66.875C662.237 71.65 665.637 74.75 669.012 76.275ZM673.362 82.3H671.687V70.625H667.012V69.25H671.687V60.075H673.362V82.3ZM664.887 62.075H657.662V60.725H664.887V62.075ZM696.01 82.05H681.16V74.075H696.01V82.05ZM694.36 80.7V75.425H682.835V80.7H694.36ZM696.035 72.875H694.385V66.275H689.785V64.925H694.385V60.075H696.035V72.875ZM692.535 69.525V70.8C689.935 71.375 685.86 71.675 682.36 71.675H678.41V65.625H686.835V62.325H678.41V61.025H688.485V66.9H680.06V70.35H682.36C685.735 70.35 689.785 70.05 692.535 69.525ZM34.85 105.375H18.675V98.8H34.425V100.1H20.35V104.05H34.85V105.375ZM34.875 120.05H18.65V114.95H32.65V112.6H18.65V111.3H34.325V116.225H20.325V118.725H34.875V120.05ZM37.425 108.9H15.625V107.575H37.425V108.9ZM57.773 120.3H56.098V98.075H57.773V120.3ZM54.923 112.7V114.075C52.123 114.625 47.748 114.9 44.373 114.9H40.423V106.375H49.398V100.775H40.423V99.425H51.098V107.7H42.073V113.525H44.373C47.748 113.525 51.923 113.275 54.923 112.7ZM80.7711 120.3H79.0961V98.075H80.7711V120.3ZM63.4461 115.55L62.3461 114.425C68.2461 111.55 71.5711 106.55 72.2211 100.9H63.7211V99.55H74.0211C73.6961 107.075 69.3211 112.575 63.4461 115.55ZM106.444 117.225H84.5941V115.875H94.7941V110H87.6691V99.475H103.644V100.825H89.3441V108.65H103.894V110H96.4941V115.875H106.444V117.225ZM125.623 100.075H118.698V98.725H125.623V100.075ZM133.523 120.3H131.873V98.075H133.523V107.25H137.123V108.675H133.523V120.3ZM127.923 110.95C127.923 113.875 125.623 116.225 122.248 116.225C118.873 116.225 116.573 113.875 116.573 110.95C116.573 108.025 118.873 105.65 122.248 105.65C125.623 105.65 127.923 108 127.923 110.95ZM126.273 110.95C126.273 108.6 124.698 106.975 122.273 106.975C119.823 106.975 118.248 108.575 118.248 110.95C118.248 113.3 119.823 114.9 122.273 114.9C124.698 114.9 126.273 113.3 126.273 110.95ZM129.048 103.775H115.323V102.425H129.048V103.775ZM156.796 120.3H155.121V110.325H150.121V114.4H139.446V99.55H150.121V102.875H155.121V98.075H156.796V120.3ZM148.421 113.05V100.9H141.096V113.05H148.421ZM155.121 108.975V104.225H150.121V108.975H155.121ZM162.37 122.4L161.97 122.025C162.845 121.475 163.595 120.4 163.72 119.45C163.745 119.325 163.72 119.225 163.67 119.175C163.62 119.05 163.47 118.975 163.22 118.975C162.52 118.975 161.87 118.5 161.87 117.65C161.87 116.85 162.52 116.325 163.32 116.325C164.245 116.325 164.895 117.15 164.895 118.175C164.895 119.95 163.82 121.625 162.37 122.4ZM194.161 111.675H192.486V107.35H186.486C185.436 108.7 183.736 109.55 181.636 109.55C178.036 109.55 175.611 107.1 175.611 104.025C175.611 100.95 178.036 98.475 181.636 98.475C183.761 98.475 185.461 99.375 186.536 100.725H192.486V98.075H194.161V111.675ZM194.586 116.275C194.586 118.8 191.511 120.675 186.461 120.675C181.461 120.675 178.386 118.8 178.386 116.275C178.386 113.725 181.461 111.85 186.461 111.85C191.511 111.85 194.586 113.725 194.586 116.275ZM192.886 116.275C192.886 114.325 190.161 113.2 186.461 113.2C182.786 113.2 180.086 114.325 180.086 116.275C180.086 118.2 182.786 119.325 186.461 119.325C190.161 119.325 192.886 118.2 192.886 116.275ZM185.961 104.025C185.961 101.675 184.361 99.825 181.636 99.825C178.886 99.825 177.311 101.675 177.311 104.025C177.311 106.35 178.886 108.2 181.636 108.2C184.361 108.2 185.961 106.35 185.961 104.025ZM192.486 106V102.075H187.286C187.536 102.7 187.636 103.35 187.636 104.025C187.636 104.725 187.536 105.4 187.286 106H192.486ZM208.409 120.675C203.109 120.675 200.084 118.925 200.084 116.475C200.084 114.05 203.109 112.3 208.409 112.3C213.734 112.3 216.734 114.05 216.734 116.475C216.734 118.925 213.734 120.675 208.409 120.675ZM208.409 113.6C204.259 113.6 201.759 114.75 201.759 116.475C201.759 118.225 204.259 119.375 208.409 119.375C212.559 119.375 215.059 118.225 215.059 116.475C215.059 114.75 212.559 113.6 208.409 113.6ZM219.334 110.475H197.534V109.125H207.709V106.125H200.584V98.8H216.334V100.15H202.259V104.775H216.759V106.125H209.409V109.125H219.334V110.475ZM242.963 113.975L241.938 115.175C239.088 113.55 236.238 110.7 235.288 107.95C234.413 111.025 231.788 113.9 228.563 115.825L227.438 114.725C231.088 112.675 234.338 108.85 234.338 103.675V100.9H228.738V99.55H241.563V100.9H236.113V103.675C236.113 108.75 239.763 112.325 242.963 113.975ZM247.238 120.3H245.563V98.075H247.238V120.3ZM269.362 111.775H267.712V98.075H269.362V103.275H272.762V104.675H269.362V111.775ZM262.087 120.675C257.187 120.675 254.237 118.875 254.237 116.425C254.237 114 257.187 112.2 262.087 112.2C266.937 112.2 269.887 114 269.887 116.425C269.887 118.875 266.937 120.675 262.087 120.675ZM262.087 113.55C258.512 113.55 255.912 114.625 255.912 116.425C255.912 118.25 258.512 119.325 262.087 119.325C265.637 119.325 268.237 118.25 268.237 116.425C268.237 114.625 265.637 113.55 262.087 113.55ZM262.687 109.525H252.137V98.85H253.812V102.8H261.012V98.85H262.687V109.525ZM261.012 108.175V104.125H253.812V108.175H261.012ZM289.11 119.25H287.485V107.825H284.46C284.31 112.725 282.235 115.575 279.41 115.575C276.485 115.575 274.36 112.475 274.36 107.2C274.36 101.95 276.485 98.85 279.41 98.85C282.21 98.85 284.285 101.65 284.46 106.425H287.485V98.45H289.11V119.25ZM279.41 114.225C281.51 114.225 282.86 111.45 282.86 107.2C282.86 102.975 281.51 100.2 279.41 100.2C277.36 100.2 275.985 102.975 275.985 107.2C275.985 111.45 277.36 114.225 279.41 114.225ZM293.635 120.3H291.96V98.075H293.635V120.3ZM316.233 120.3H314.558V106.525H309.008V105.125H314.558V98.075H316.233V120.3ZM311.633 113.875L310.633 115.075C307.658 113.45 304.858 110.425 303.983 107.575C303.058 110.725 300.683 113.625 297.258 115.725L296.133 114.675C299.983 112.425 303.033 108.55 303.033 103.25V99.05H304.808V103.25C304.808 108.35 308.158 112.15 311.633 113.875ZM346.437 102.35H328.462V101.05H346.437V102.35ZM341.812 99.325H333.087V98.025H341.812V99.325ZM337.437 109.425C333.212 109.425 330.062 108.475 330.062 106.5C330.062 104.525 333.212 103.6 337.437 103.6C341.687 103.6 344.812 104.525 344.812 106.5C344.812 108.475 341.687 109.425 337.437 109.425ZM337.437 104.85C334.237 104.85 331.762 105.4 331.762 106.5C331.762 107.625 334.237 108.15 337.437 108.15C340.662 108.15 343.137 107.625 343.137 106.5C343.137 105.4 340.662 104.85 337.437 104.85ZM348.387 112.65H326.587V111.35H348.387V112.65ZM346.287 119.95H329.662V114.15H331.337V118.575H346.287V119.95ZM369.26 120.3H367.585V98.075H369.26V120.3ZM360.56 100.075H353.635V98.725H360.56V100.075ZM362.86 110.95C362.86 113.875 360.56 116.225 357.185 116.225C353.81 116.225 351.51 113.875 351.51 110.95C351.51 108.025 353.81 105.65 357.185 105.65C360.56 105.65 362.86 108 362.86 110.95ZM361.21 110.95C361.21 108.6 359.635 106.975 357.21 106.975C354.76 106.975 353.185 108.575 353.185 110.95C353.185 113.3 354.76 114.9 357.21 114.9C359.635 114.9 361.21 113.3 361.21 110.95ZM363.985 103.775H350.26V102.425H363.985V103.775ZM398.889 120.05H383.789V114.575H396.689V111.825H383.789V110.525H398.364V115.825H385.439V118.725H398.889V120.05ZM391.739 107.875H381.189V99.225H391.739V107.875ZM390.064 106.575V100.525H382.864V106.575H390.064ZM398.414 109.35H396.764V98.075H398.414V102.425H401.814V103.825H398.414V109.35ZM421.912 120.05H405.637V110.175H421.487V111.5H407.312V114.4H421.312V115.65H407.312V118.725H421.912V120.05ZM424.412 107.475H402.612V106.15H409.812C410.262 104.45 410.637 101.8 410.712 100.1H404.637V98.8H412.412C412.287 101.75 411.862 104.5 411.462 106.15H419.137C419.562 104.45 419.937 101.8 420.012 100.1H413.287V98.8H421.737C421.612 101.75 421.187 104.5 420.762 106.15H424.412V107.475ZM441.16 119.25H439.535V107.825H436.51C436.36 112.725 434.285 115.575 431.46 115.575C428.535 115.575 426.41 112.475 426.41 107.2C426.41 101.95 428.535 98.85 431.46 98.85C434.26 98.85 436.335 101.65 436.51 106.425H439.535V98.45H441.16V119.25ZM431.46 114.225C433.56 114.225 434.91 111.45 434.91 107.2C434.91 102.975 433.56 100.2 431.46 100.2C429.41 100.2 428.035 102.975 428.035 107.2C428.035 111.45 429.41 114.225 431.46 114.225ZM445.685 120.3H444.01V98.075H445.685V120.3ZM474.94 120.05H458.665V111.675H465.665V109.25H455.64V107.925H477.44V109.25H467.39V111.675H474.49V113H460.34V115.15H474.265V116.4H460.34V118.725H474.94V120.05ZM474.34 105.85H458.69V98.275H460.365V100.675H472.665V98.275H474.34V105.85ZM472.665 104.55V101.95H460.365V104.55H472.665ZM500.438 110.8H478.638V109.45H500.438V110.8ZM497.913 106.075H481.688V98.15H483.363V104.725H497.913V106.075ZM498.338 119.95H481.713V113H483.388V118.575H498.338V119.95ZM513.917 97.225L514.367 97.575C513.742 98.025 512.917 98.925 512.642 99.775C512.442 100.475 512.517 100.75 513.092 100.75C513.292 100.75 513.542 100.8 513.717 100.85C514.092 101 514.467 101.4 514.467 102.075C514.467 102.95 513.817 103.45 513.067 103.45C512.142 103.45 511.367 102.65 511.367 101.525C511.367 100.6 511.667 99.575 512.192 98.85C512.692 98.125 513.317 97.525 513.917 97.225ZM528.932 107.55L529.782 108.05C529.232 109.725 527.932 110.7 526.382 110.7C525.207 110.7 524.257 110.05 523.407 109.35C522.482 108.6 521.657 107.925 520.632 107.925C519.582 107.925 518.682 108.725 518.132 109.85L517.282 109.4C517.657 108 519.132 106.625 520.657 106.625C521.807 106.625 522.732 107.2 523.557 107.875C524.532 108.675 525.407 109.375 526.507 109.375C527.482 109.375 528.407 108.725 528.932 107.55ZM551.209 110.15H534.984V99.475H550.959V100.825H536.659V108.8H551.209V110.15ZM553.759 117.05H531.909V115.7H553.759V117.05ZM574.482 120.3H572.832V107.6H569.632V119.25H568.032V98.45H569.632V106.15H572.832V98.075H574.482V120.3ZM566.857 113.025V114.375C564.807 114.7 561.732 114.9 559.582 114.9H556.557V106.425H563.382V100.925H556.557V99.575H565.007V107.75H558.182V113.525H559.582C561.732 113.525 564.782 113.35 566.857 113.025ZM588.805 110.55C583.955 110.55 580.63 107.95 580.63 104.55C580.63 101.125 583.955 98.525 588.805 98.525C593.68 98.525 597.03 101.125 597.03 104.55C597.03 107.95 593.68 110.55 588.805 110.55ZM588.805 99.875C585.13 99.875 582.28 101.75 582.28 104.55C582.28 107.35 585.13 109.2 588.805 109.2C592.505 109.2 595.355 107.35 595.355 104.55C595.355 101.75 592.505 99.875 588.805 99.875ZM599.755 117.225H577.905V115.875H583.23V111.05H584.93V115.875H592.68V111.05H594.38V115.875H599.755V117.225ZM603.953 103.225H602.878L602.553 97.275H604.278L603.953 103.225ZM615.832 115.55L614.757 114.425C620.657 111.55 623.957 106.55 624.582 100.9H616.132V99.55H626.407C626.057 107.075 621.732 112.575 615.832 115.55ZM632.732 120.3H631.082V98.075H632.732V106.75H636.482V108.175H632.732V120.3ZM663.412 103.325C663.412 106.2 660.312 108.45 655.137 108.45C649.987 108.45 646.887 106.2 646.887 103.325C646.887 100.475 649.987 98.225 655.137 98.225C660.312 98.225 663.412 100.475 663.412 103.325ZM661.737 103.325C661.737 101 658.912 99.575 655.137 99.575C651.412 99.575 648.562 101 648.562 103.325C648.562 105.675 651.412 107.1 655.137 107.1C658.912 107.1 661.737 105.675 661.737 103.325ZM659.962 120.3H658.312V112.125H652.112V120.1H650.412V112.125H644.287V110.775H666.112V112.125H659.962V120.3ZM686.66 111.725H685.01V107.225H679.66V109.475H669.035V99.225H679.66V101.4H685.01V98.075H686.66V111.725ZM687.085 116.275C687.085 118.8 684.035 120.675 679.01 120.675C673.96 120.675 670.91 118.8 670.91 116.275C670.91 113.75 673.96 111.875 679.01 111.875C684.035 111.875 687.085 113.75 687.085 116.275ZM685.41 116.275C685.41 114.35 682.71 113.225 679.01 113.225C675.31 113.225 672.585 114.35 672.585 116.275C672.585 118.2 675.31 119.325 679.01 119.325C682.71 119.325 685.41 118.2 685.41 116.275ZM677.985 108.125V100.55H670.685V108.125H677.985ZM685.01 105.875V102.75H679.66V105.875H685.01ZM701.283 100.075H694.358V98.725H701.283V100.075ZM709.183 120.3H707.533V98.075H709.183V107.25H712.783V108.675H709.183V120.3ZM703.583 110.95C703.583 113.875 701.283 116.225 697.908 116.225C694.533 116.225 692.233 113.875 692.233 110.95C692.233 108.025 694.533 105.65 697.908 105.65C701.283 105.65 703.583 108 703.583 110.95ZM701.933 110.95C701.933 108.6 700.358 106.975 697.933 106.975C695.483 106.975 693.908 108.575 693.908 110.95C693.908 113.3 695.483 114.9 697.933 114.9C700.358 114.9 701.933 113.3 701.933 110.95ZM704.708 103.775H690.983V102.425H704.708V103.775ZM731.756 120.3H730.106V98.075H731.756V106H735.506V107.425H731.756V120.3ZM729.031 112.2V113.55C726.231 114.125 721.856 114.4 718.506 114.4H715.056V99.55H725.781V100.9H716.706V113.025H718.506C721.856 113.025 726.031 112.75 729.031 112.2ZM740.504 117.825C740.504 118.625 739.879 119.225 739.079 119.225C738.229 119.225 737.604 118.625 737.604 117.825C737.604 117.075 738.229 116.425 739.079 116.425C739.879 116.425 740.504 117.075 740.504 117.825Z" fill="black"/>
</svg>
