<svg width="152" height="182" viewBox="0 0 152 182" fill="none" xmlns="http://www.w3.org/2000/svg">
<rect x="0.75" y="0.75" width="150" height="180" fill="white"/>
<rect x="0.75" y="0.75" width="150" height="180" stroke="#F6C500" stroke-width="1.5"/>
<path d="M82.5955 72.03C82.9105 72.87 82.1755 73.605 80.4955 74.025C79.6555 74.235 79.0255 74.445 78.7105 74.655C78.2905 74.97 77.8705 74.97 77.4505 74.655C77.1355 74.55 76.9255 74.34 76.9255 74.025C76.8205 73.815 76.8205 73.605 76.8205 73.395C76.8205 73.185 76.8205 73.08 76.8205 72.87C76.7155 72.765 76.6105 72.66 76.4005 72.66C76.0855 72.66 75.8755 72.765 75.7705 72.975C75.5605 73.29 75.4555 73.605 75.4555 73.815C75.2455 74.235 75.1405 74.55 75.0355 74.76C74.8255 75.075 74.6155 75.285 74.4055 75.285C73.7755 75.6 72.8305 75.81 71.5705 76.02C70.1005 76.335 69.0505 76.65 68.3155 76.965C66.8455 77.385 65.7955 77.7 65.1655 77.805C64.3255 78.015 63.5905 78.33 62.8555 78.855C62.3305 79.275 62.1205 79.695 62.2255 80.115C62.2255 80.64 62.2255 81.06 62.4355 81.48C62.9605 81.9 63.4855 82.215 64.1155 82.425C64.5355 82.845 65.1655 83.055 65.9005 83.265C66.1105 83.37 66.6355 83.475 67.2655 83.685C67.8955 83.895 68.5255 84.21 69.2605 84.42C69.8905 84.735 70.6255 85.05 71.3605 85.26C71.9905 85.575 72.5155 85.785 72.9355 85.995C73.8805 86.625 74.5105 87.465 74.7205 88.515C74.8255 89.775 74.8255 91.14 74.7205 92.61C74.5105 94.29 74.0905 95.865 73.3555 97.44C72.5155 99.12 71.4655 100.59 70.3105 101.955C69.0505 103.425 67.7905 104.58 66.4255 105.63C64.9555 106.785 63.4855 107.625 62.2255 108.15C59.9155 109.2 57.7105 109.83 55.4005 110.04C53.0905 110.355 51.2005 110.46 49.8355 110.25C49.2055 110.25 48.6805 109.83 48.0505 109.2C47.4205 108.675 46.7905 107.94 46.3705 106.995C45.7405 106.155 45.3205 105.21 45.0055 104.16C44.5855 103.215 44.2705 102.165 44.2705 101.115C44.1655 99.855 44.2705 98.385 44.5855 96.705C44.7955 95.235 45.0055 94.08 45.2155 93.24C45.3205 92.61 45.5305 91.98 45.8455 91.56C46.0555 91.245 46.6855 90.93 47.7355 90.72C48.6805 90.615 49.3105 90.405 49.7305 89.985C50.0455 89.775 50.4655 89.04 50.8855 87.885C51.0955 86.835 51.5155 85.89 52.0405 84.945C52.4605 84.105 52.8805 83.37 53.1955 82.74C53.5105 81.795 54.1405 81.06 55.1905 80.43C56.1355 80.01 57.0805 79.695 58.1305 79.695C58.9705 78.96 59.8105 78.225 60.6505 77.595C61.3855 76.965 62.1205 76.335 62.9605 75.6C63.4855 75.285 63.8005 74.865 63.8005 74.445C63.8005 74.025 63.2755 73.92 62.2255 74.025C60.5455 74.025 58.9705 74.34 57.5005 74.76C55.9255 75.285 54.4555 75.705 52.9855 76.125C52.4605 76.335 52.1455 76.44 52.0405 76.44C51.8305 76.65 51.6205 76.755 51.6205 76.755C51.4105 76.86 51.4105 76.86 51.4105 76.86C51.3055 76.86 51.2005 76.86 51.0955 76.65C50.8855 76.545 50.6755 76.44 50.6755 76.23C50.4655 76.23 50.3605 76.125 50.2555 75.915C50.0455 75.81 50.0455 75.705 50.0455 75.6C49.4155 76.335 48.8905 76.86 48.4705 77.175C47.9455 77.595 47.2105 77.91 46.3705 77.91C45.6355 78.12 44.7955 78.225 43.9555 78.225C43.0105 78.33 41.9605 77.91 40.9105 77.07C40.2805 76.65 39.9655 76.335 39.7555 75.915C39.4405 75.705 39.2305 75.39 39.1255 75.075C38.9155 74.865 38.8105 74.655 38.7055 74.445C38.4955 74.235 38.2855 74.025 37.8655 73.71C37.0255 73.29 36.5005 72.975 36.2905 72.87C35.9755 72.87 35.5555 72.87 35.0305 72.66C34.4005 72.555 34.0855 72.345 33.9805 71.925C33.7705 71.715 34.0855 71.505 34.9255 71.4C35.6605 71.4 36.3955 71.295 37.0255 71.295C37.5505 71.4 38.6005 71.4 40.0705 71.4C40.4905 71.4 41.2255 71.4 42.3805 71.295C43.4305 71.295 44.5855 71.295 46.0555 71.085C47.3155 71.085 48.6805 70.98 50.1505 70.77C51.5155 70.665 52.6705 70.56 53.7205 70.35C55.9255 70.035 58.0255 69.72 59.9155 69.3C61.7005 69.09 62.9605 68.985 63.6955 69.09C64.6405 69.3 65.6905 69.405 66.9505 69.195C68.0005 69.09 68.8405 68.985 69.4705 68.775C69.8905 68.565 70.5205 68.25 71.3605 67.725C72.0955 67.305 72.7255 66.885 73.1455 66.255C73.4605 65.73 74.0905 65.415 75.1405 65.205C75.9805 65.205 76.7155 65.31 77.3455 65.625C77.7655 66.045 78.3955 66.465 79.3405 67.095C80.1805 67.83 80.7055 68.565 81.0205 69.3C81.1255 69.51 81.3355 69.93 81.6505 70.455C81.8605 71.085 82.1755 71.61 82.5955 72.03ZM121.446 90.3C121.446 90.93 121.551 91.665 121.551 92.4C121.551 93.24 120.921 93.765 119.766 93.975C118.611 94.185 117.141 94.185 115.461 93.975C113.676 93.765 112.206 93.555 110.946 93.24C110.421 93.24 109.686 93.135 108.741 93.03C107.691 93.03 106.746 93.03 105.696 93.03C104.646 93.03 103.596 93.03 102.651 93.03C101.601 93.135 100.866 93.135 100.446 93.135H100.236C100.236 94.605 100.236 95.865 100.236 97.125C100.131 98.385 100.131 99.54 100.131 100.485C99.9205 104.265 99.9205 107.31 99.9205 109.83C99.8155 112.455 99.8155 114.24 99.8155 115.185C99.8155 116.865 99.6055 118.65 99.3955 120.645C98.9755 122.64 98.6605 124.635 98.2405 126.525C97.7155 128.415 97.1905 130.095 96.7705 131.67C96.1405 133.14 95.7205 134.295 95.3005 134.925C94.8805 135.555 94.3555 136.29 93.9355 137.025C93.3055 137.655 92.8855 138.075 92.4655 138.39C91.9405 138.6 91.6255 138.495 91.4155 138.075C91.2055 137.55 91.2055 136.5 91.5205 134.925C91.7305 133.35 91.9405 130.935 92.1505 127.68C92.1505 124.32 92.2555 120.75 92.3605 116.865C92.3605 113.085 92.3605 109.305 92.3605 105.525C92.2555 101.85 92.2555 98.805 92.2555 96.495C92.3605 94.71 92.3605 92.82 92.2555 90.93C92.0455 89.04 92.0455 86.835 92.0455 84.105C91.9405 82.425 91.9405 80.64 91.9405 78.75C91.8355 76.965 91.8355 75.285 91.8355 73.815C91.8355 72.45 91.8355 71.295 91.8355 70.35C91.8355 69.51 91.8355 68.985 91.9405 68.88C92.1505 68.67 92.4655 68.46 92.7805 68.46C92.9905 68.46 93.0955 68.25 93.3055 67.725C93.3055 67.515 93.3055 67.2 93.2005 66.99C92.9905 66.78 92.8855 66.57 92.7805 66.255C92.5705 66.045 92.3605 65.73 92.2555 65.31C92.0455 64.995 92.0455 64.575 92.1505 63.945C92.2555 63.21 92.3605 62.37 92.3605 61.32C92.2555 60.48 92.2555 59.535 92.2555 58.485C92.1505 56.385 92.1505 54.81 92.3605 53.655C92.3605 52.605 92.3605 51.66 92.2555 50.61C92.1505 49.875 92.1505 49.035 92.1505 48.09C92.0455 47.25 91.6255 46.515 90.7855 45.78C89.9455 45.15 89.2105 44.73 88.4755 44.415C87.6355 44.205 87.0055 43.89 86.3755 43.47C85.9555 43.26 85.7455 43.05 85.7455 42.63C85.6405 42.315 85.7455 42 85.9555 41.58C86.0605 41.37 86.3755 41.055 86.7955 40.845C87.2155 40.74 87.7405 40.74 88.4755 40.95C88.7905 41.16 89.4205 41.265 90.4705 41.475C91.3105 41.79 92.3605 42.105 93.6205 42.315C94.6705 42.735 95.8255 43.05 96.9805 43.26C98.0305 43.575 98.8705 43.785 99.6055 43.89C100.551 44.205 101.286 44.52 101.916 44.73C102.441 45.15 102.546 45.78 102.231 46.83C101.811 47.985 101.496 49.14 101.181 50.4C100.761 51.765 100.551 53.13 100.551 54.6C100.551 55.545 100.446 56.805 100.446 58.485C100.341 60.165 100.341 61.635 100.341 62.895C100.341 63.525 100.236 64.26 100.236 65.205C100.131 66.255 100.131 67.41 100.131 68.46C100.026 69.615 100.026 70.665 100.026 71.61C99.9205 72.66 99.9205 73.5 99.9205 74.025C99.9205 75.18 99.9205 76.125 100.026 76.965C100.026 77.91 100.026 78.75 100.026 79.59C100.026 80.535 100.026 81.48 100.131 82.425C100.131 83.475 100.131 84.735 100.131 86.1V89.46L102.756 89.145C103.596 89.04 104.226 88.935 104.856 88.725C105.276 88.725 105.696 88.62 106.116 88.41C106.431 88.41 106.746 88.305 107.166 88.095C107.376 88.095 107.796 87.885 108.216 87.675C109.161 87.36 110.001 87.045 110.841 86.835C111.471 86.625 112.311 86.73 113.256 87.045C114.096 87.465 114.936 87.465 115.986 87.255C116.826 87.15 117.561 87.15 118.086 87.15C118.821 87.255 119.556 87.57 120.291 88.095C120.921 88.725 121.341 89.46 121.446 90.3ZM51.0955 97.44C51.0955 98.7 51.4105 99.75 52.0405 100.695C52.6705 101.745 53.4055 102.48 54.4555 103.005C55.2955 103.635 56.3455 103.95 57.6055 103.95C58.7605 104.16 59.9155 103.95 61.1755 103.32C62.8555 102.48 64.2205 100.905 65.4805 98.805C66.6355 96.81 67.1605 94.5 67.0555 91.98C66.9505 90.72 66.6355 89.775 66.2155 88.935C65.5855 88.305 64.9555 87.78 64.3255 87.36C63.4855 87.045 62.7505 86.835 61.9105 86.73C60.9655 86.73 60.1255 86.835 59.3905 86.835C58.1305 87.045 57.0805 87.255 56.2405 87.57C55.2955 87.99 54.6655 88.41 54.2455 88.725C52.8805 89.565 52.0405 90.615 51.6205 91.875C51.0955 93.345 50.8855 95.13 51.0955 97.44ZM51.0955 54.075C51.5155 54.495 51.9355 54.915 52.3555 55.125C52.6705 55.545 53.1955 55.65 54.0355 55.65C54.8755 55.65 55.8205 55.545 56.6605 55.335C57.5005 55.23 58.4455 55.125 59.4955 55.125C60.5455 55.125 61.7005 55.23 62.9605 55.335C64.2205 55.545 65.1655 55.65 65.7955 55.65C66.4255 55.86 66.8455 56.385 66.9505 57.33C66.9505 58.38 66.9505 59.115 66.8455 59.64C66.5305 60.27 65.9005 60.795 64.9555 61.425C63.9055 62.16 62.9605 62.685 62.1205 63C61.7005 63.21 61.0705 63.21 60.2305 63.21C59.2855 63.21 58.4455 63.21 57.6055 63C56.6605 62.895 55.8205 62.685 55.1905 62.37C54.3505 62.16 53.9305 61.845 53.7205 61.425C52.9855 60.06 52.2505 58.8 51.6205 57.75C50.8855 56.805 50.3605 56.07 50.0455 55.65C49.5205 55.02 49.5205 54.495 49.9405 54.075C50.3605 53.76 50.6755 53.76 51.0955 54.075Z" fill="#F6C500"/>
</svg>
