<svg width="152" height="182" viewBox="0 0 152 182" fill="none" xmlns="http://www.w3.org/2000/svg">
<rect x="0.75" y="0.75" width="150" height="180" fill="white"/>
<rect x="0.75" y="0.75" width="150" height="180" stroke="#F6C500" stroke-width="1.5"/>
<path d="M89.5936 104.475C90.9586 104.685 92.4286 105 94.0036 105.42C95.4736 105.945 96.8386 106.68 98.0986 107.52C99.3586 108.57 100.409 109.725 101.354 111.195C102.194 112.665 102.614 114.45 102.824 116.55C102.824 117.495 102.824 118.125 102.824 118.545C102.719 118.965 102.614 119.28 102.509 119.385C102.299 119.595 102.194 119.805 102.089 119.805C101.879 119.91 101.774 120.015 101.774 120.225C101.564 120.435 101.564 120.645 101.774 120.645C101.774 120.75 101.879 120.96 102.089 121.17C102.089 121.38 102.194 121.695 102.299 122.115C102.299 122.535 102.194 123.06 101.984 123.9C101.354 125.685 100.619 127.575 99.5686 129.465C98.5186 131.355 97.0486 132.93 95.1586 134.4C94.1086 135.135 92.9536 135.765 91.6936 136.185C90.4336 136.605 89.1736 136.92 88.0186 137.13C86.7586 137.34 85.6036 137.445 84.5536 137.55C83.5036 137.55 82.6636 137.55 82.0336 137.55C80.4586 137.34 78.8836 137.025 77.4136 136.5C75.8386 135.87 74.4736 135.345 73.3186 134.82C71.3236 133.77 69.8536 132.3 68.9086 130.62C67.8586 128.73 67.2286 126.945 67.0186 125.055C66.5986 123.06 66.5986 121.17 66.8086 119.385C67.0186 117.6 67.3336 116.13 67.8586 114.975C68.4886 113.715 69.3286 112.245 70.4836 110.67C71.5336 109.2 73.1086 107.94 74.9986 106.785C74.6836 105.84 74.3686 104.895 74.0536 103.95C73.6336 103.11 73.2136 102.48 72.7936 102.06C71.9536 101.325 71.7436 100.59 72.3736 99.855C72.7936 99.225 73.5286 99.225 74.3686 99.75C75.2086 100.38 76.0486 100.8 76.6786 101.22C77.2036 101.745 78.1486 102.27 79.6186 102.9C80.7736 103.53 81.6136 104.58 82.2436 106.155C83.0836 105.735 84.1336 105.315 85.4986 104.895C86.7586 104.58 88.1236 104.475 89.5936 104.475ZM76.0486 76.65C74.3686 76.44 73.5286 75.915 73.5286 75.285C73.4236 74.76 73.8436 74.445 74.8936 74.235C75.3136 74.235 75.7336 74.13 76.1536 74.025C76.4686 74.025 76.8886 74.025 77.3086 73.92C77.7286 73.92 78.2536 73.815 78.8836 73.71C79.5136 73.71 80.3536 73.71 81.5086 73.71C82.2436 73.71 83.2936 73.71 84.5536 73.5C85.8136 73.395 87.1786 73.185 88.6486 72.87C90.1186 72.66 91.5886 72.45 93.1636 72.03C94.6336 71.715 96.1036 71.4 97.5736 70.98C97.5736 70.665 97.5736 70.245 97.5736 69.825C97.5736 69.405 97.5736 69.195 97.6786 69.09C97.8886 68.775 98.2036 68.565 98.5186 68.565C98.7286 68.565 98.8336 68.355 99.0436 67.935C99.0436 67.725 99.0436 67.41 98.9386 67.2C98.7286 66.99 98.6236 66.78 98.5186 66.465C98.3086 66.255 98.0986 65.835 97.9936 65.415C97.7836 65.1 97.7836 64.68 97.8886 64.05C97.8886 64.05 97.8886 63.945 97.9936 63.84C97.9936 63.84 97.9936 63.735 97.9936 63.525C96.8386 64.155 95.7886 64.68 94.9486 65.205C93.8986 65.835 92.9536 66.255 92.0086 66.36C91.3786 66.57 90.5386 66.675 89.5936 66.885C88.5436 67.2 87.4936 67.41 86.4436 67.62C85.3936 67.83 84.3436 68.04 83.5036 68.04C82.5586 68.145 81.9286 68.04 81.5086 67.83C81.0886 67.62 80.7736 67.41 80.5636 67.095C80.1436 66.885 79.8286 66.57 79.5136 66.255C79.0936 66.045 78.5686 65.73 78.1486 65.52C77.5186 65.31 76.8886 65.205 76.0486 65.1C74.3686 64.89 73.5286 64.365 73.5286 63.735C73.4236 63.21 73.8436 62.895 74.8936 62.685C75.3136 62.685 75.7336 62.58 76.1536 62.475C76.4686 62.475 76.8886 62.475 77.3086 62.37C77.7286 62.37 78.2536 62.265 78.8836 62.16C79.5136 62.16 80.3536 62.16 81.5086 62.16C82.3486 62.16 83.3986 62.16 84.7636 61.95C86.0236 61.845 87.3886 61.635 88.9636 61.32C90.4336 61.11 92.0086 60.795 93.6886 60.375C95.1586 60.06 96.6286 59.745 98.0986 59.325V58.695C97.8886 56.595 97.8886 55.02 98.0986 53.76C98.0986 52.71 98.0986 51.66 98.0986 50.715C97.8886 49.98 97.8886 49.14 97.8886 48.195C97.7836 47.355 97.3636 46.62 96.5236 45.78C95.6836 45.15 94.9486 44.73 94.3186 44.415C93.4786 44.205 92.7436 43.89 92.1136 43.47C91.6936 43.26 91.4836 43.05 91.4836 42.63C91.3786 42.42 91.4836 42.105 91.6936 41.685C91.7986 41.475 92.1136 41.16 92.5336 40.95C92.9536 40.845 93.4786 40.845 94.2136 40.95C94.6336 41.16 95.2636 41.37 96.3136 41.58C97.1536 41.895 98.2036 42.21 99.3586 42.42C100.409 42.84 101.564 43.155 102.719 43.365C103.769 43.785 104.714 43.995 105.344 44.1C106.289 44.31 107.024 44.625 107.654 44.94C108.179 45.36 108.284 45.99 107.969 46.935C107.549 48.09 107.234 49.35 106.919 50.61C106.499 51.975 106.289 53.34 106.289 54.705C106.289 55.755 106.289 57.015 106.289 58.59C106.184 60.27 106.184 61.74 106.184 63C106.079 63.63 105.974 64.365 105.974 65.31C105.869 66.36 105.869 67.515 105.869 68.565C105.764 69.825 105.764 70.875 105.764 71.82C105.659 72.87 105.659 73.71 105.659 74.235V76.86H105.764C105.764 77.7 105.764 78.75 105.764 79.8C105.764 80.955 105.764 82.005 105.764 83.055C105.659 84.21 105.554 85.26 105.554 86.205C105.449 87.255 105.344 88.095 105.344 88.725C105.239 89.565 105.029 90.405 104.819 91.35C104.399 92.4 104.084 93.45 103.664 94.29C103.139 95.34 102.719 96.18 102.299 96.915C101.774 97.755 101.354 98.385 100.934 98.7C100.514 99.12 99.9886 99.435 99.5686 99.75C98.9386 100.17 98.5186 100.38 98.0986 100.38C97.5736 100.59 97.2586 100.485 97.0486 100.17C96.8386 99.96 96.8386 99.54 97.1536 98.7C97.3636 98.07 97.4686 97.02 97.6786 95.55C97.6786 94.08 97.7836 92.505 97.7836 90.615C97.7836 88.83 97.7836 86.94 97.7836 85.05C97.6786 83.16 97.6786 81.48 97.6786 80.01C97.5736 79.17 97.5736 78.435 97.5736 77.595C97.5736 76.965 97.5736 76.23 97.5736 75.39C96.5236 76.02 95.6836 76.545 94.8436 76.965C93.8986 77.49 92.9536 77.805 92.0086 77.91C91.3786 78.12 90.5386 78.225 89.5936 78.435C88.5436 78.75 87.4936 78.96 86.4436 79.17C85.3936 79.38 84.3436 79.59 83.5036 79.59C82.5586 79.695 81.9286 79.59 81.5086 79.38C81.0886 79.17 80.7736 78.96 80.5636 78.645C80.1436 78.435 79.8286 78.12 79.5136 77.805C79.0936 77.595 78.5686 77.28 78.1486 77.07C77.5186 76.86 76.8886 76.755 76.0486 76.65ZM75.2086 95.025L76.1536 90.405C75.4186 90.615 74.6836 90.93 73.8436 91.14C73.0036 91.455 72.1636 91.77 71.4286 91.98C70.5886 92.4 69.9586 92.715 69.3286 92.925C68.6986 93.345 68.1736 93.66 67.8586 93.975C67.2286 94.605 66.3886 95.025 65.2336 95.445C63.9736 95.865 62.7136 96.285 61.4536 96.495C59.9836 96.915 58.6186 97.125 57.3586 97.125C55.9936 97.335 54.9436 97.335 54.2086 97.125C52.9486 96.81 51.7936 96.39 50.7436 95.865C49.6936 95.445 48.7486 94.71 47.9086 93.45C46.7536 91.98 46.0186 90.3 45.5986 88.2C45.0736 86.205 44.7586 84.105 44.6536 81.795C44.4436 79.695 44.4436 77.49 44.6536 75.285C44.6536 73.185 44.7586 71.19 44.7586 69.3C44.7586 67.83 44.6536 66.57 44.5486 65.52C44.3386 64.68 44.0236 63.945 43.8136 63.315C43.3936 62.895 43.0786 62.475 42.6586 62.055C42.1336 61.74 41.6086 61.32 41.0836 60.9C39.9286 60.165 39.5086 59.43 39.8236 58.8C40.0336 58.17 40.5586 58.065 41.6086 58.275C42.0286 58.485 42.7636 58.695 43.8136 59.01C44.6536 59.43 45.7036 59.85 46.7536 60.27C47.6986 60.69 48.6436 61.11 49.5886 61.53C50.4286 61.95 51.1636 62.265 51.5836 62.475C52.3186 62.895 52.8436 63.42 53.0536 64.26C53.1586 65.205 53.1586 66.885 52.9486 69.3C52.5286 72.03 52.4236 74.445 52.4236 76.545C52.3186 78.645 52.4236 80.85 52.6336 82.95C52.8436 85.68 53.2636 87.57 53.6836 88.62C54.1036 89.88 55.1536 90.195 56.8336 89.775C57.5686 89.565 58.6186 89.46 59.8786 89.355C61.0336 89.355 62.2936 89.25 63.5536 89.04C64.8136 89.04 65.9686 88.83 67.0186 88.62C68.0686 88.41 68.8036 88.095 69.4336 87.675C69.8536 87.255 70.3786 86.835 71.1136 86.415C71.7436 86.1 72.3736 85.785 73.1086 85.365C73.7386 85.155 74.4736 84.945 75.2086 84.84C75.8386 84.84 76.3636 84.84 76.7836 85.05L77.4136 85.575C77.7286 84.525 78.0436 83.79 78.3586 83.475C78.5686 83.16 78.9886 82.74 79.6186 82.32C80.1436 82.005 80.7736 81.69 81.6136 81.27C82.2436 81.06 82.9786 80.85 83.8186 80.64C84.4486 80.64 85.0786 80.64 85.7086 80.85C88.2286 81.795 89.6986 83.37 89.9086 85.575C90.0136 86.73 89.9086 87.465 89.6986 87.78C89.2786 88.2 88.6486 88.62 87.8086 89.25C86.9686 89.88 86.0236 90.51 85.1836 91.245C84.1336 92.085 83.5036 92.61 83.0836 92.925C82.6636 93.45 82.2436 93.765 81.8236 93.975C81.4036 94.29 80.7736 94.5 79.9336 94.5C79.0936 94.605 78.5686 94.71 78.3586 94.71C78.0436 94.815 77.7286 95.13 77.3086 95.55C76.8886 96.18 76.4686 96.39 75.8386 96.285C75.2086 96.285 74.9986 95.865 75.2086 95.025ZM80.9836 112.35C79.6186 113.4 78.5686 113.925 77.7286 113.715C77.0986 113.505 76.4686 113.61 76.0486 113.82C75.4186 114.135 74.9986 114.555 74.6836 114.975C74.2636 115.605 74.0536 116.13 73.8436 116.76C73.6336 117.39 73.4236 118.02 73.4236 118.65C73.3186 119.91 73.3186 120.96 73.4236 122.22C73.4236 123.375 73.6336 124.53 74.0536 125.58C74.4736 126.63 75.1036 127.575 76.0486 128.415C76.8886 129.15 78.2536 129.78 79.9336 130.2C81.9286 130.62 83.9236 130.83 85.9186 130.62C87.8086 130.305 89.4886 129.78 90.9586 129.15C92.8486 127.47 94.0036 125.79 94.5286 124.005C94.9486 122.115 95.1586 120.12 95.3686 117.81C95.4736 115.5 94.9486 113.4 93.6886 111.51C92.4286 109.725 90.6436 108.57 88.3336 108.15C87.4936 108.045 86.5486 108.045 85.4986 108.045C84.3436 108.15 83.3986 108.255 82.6636 108.255C82.7686 109.935 82.2436 111.3 80.9836 112.35Z" fill="#F6C500"/>
</svg>
