<svg width="152" height="182" viewBox="0 0 152 182" fill="none" xmlns="http://www.w3.org/2000/svg">
<rect x="0.75" y="0.75" width="150" height="180" fill="white"/>
<rect x="0.75" y="0.75" width="150" height="180" stroke="#F6C500" stroke-width="1.5"/>
<path d="M106.604 62.895C106.604 63.525 106.499 64.26 106.499 65.205C106.394 66.255 106.394 67.41 106.394 68.46C106.289 69.615 106.289 70.665 106.289 71.61C106.184 72.66 106.184 73.5 106.184 74.025C106.184 75.18 106.184 76.125 106.289 76.965C106.289 77.91 106.289 78.75 106.289 79.59C106.289 80.535 106.289 81.48 106.394 82.425C106.394 83.475 106.394 84.735 106.394 86.1C106.394 87.15 106.394 88.305 106.499 89.565C106.499 90.93 106.499 92.19 106.499 93.45C106.499 94.815 106.499 96.075 106.499 97.23C106.394 98.49 106.394 99.645 106.394 100.485C106.184 104.265 106.184 107.31 106.184 109.83C106.079 112.455 106.079 114.24 106.079 115.185C106.079 116.865 105.869 118.65 105.659 120.645C105.239 122.64 104.924 124.635 104.504 126.525C103.979 128.415 103.454 130.095 103.034 131.67C102.404 133.14 101.984 134.295 101.564 134.925C101.144 135.555 100.619 136.29 100.199 137.025C99.5686 137.655 99.1486 138.075 98.7286 138.39C98.2036 138.6 97.8886 138.495 97.6786 138.075C97.4686 137.55 97.4686 136.5 97.7836 134.925C97.9936 133.35 98.2036 130.935 98.4136 127.68C98.4136 124.32 98.5186 120.75 98.6236 116.865C98.6236 113.085 98.6236 109.305 98.6236 105.525C98.5186 101.85 98.5186 98.805 98.5186 96.495C98.6236 94.71 98.6236 92.82 98.5186 90.93C98.3086 89.04 98.3086 86.835 98.3086 84.105C98.2036 82.425 98.2036 80.64 98.2036 78.75C98.0986 76.965 98.0986 75.285 98.0986 73.815C98.0986 72.45 98.0986 71.295 98.0986 70.35C98.0986 69.51 98.0986 68.985 98.2036 68.88C98.4136 68.67 98.7286 68.46 99.0436 68.46C99.2536 68.46 99.3586 68.25 99.5686 67.725C99.5686 67.515 99.5686 67.2 99.4636 66.99C99.2536 66.78 99.1486 66.57 99.0436 66.255C98.8336 66.045 98.6236 65.73 98.5186 65.31C98.3086 64.995 98.3086 64.575 98.4136 63.945C98.5186 63.21 98.6236 62.37 98.6236 61.32C98.5186 60.48 98.5186 59.535 98.5186 58.485C98.4136 56.385 98.4136 54.81 98.6236 53.655C98.6236 52.605 98.6236 51.66 98.5186 50.61C98.4136 49.875 98.4136 49.035 98.4136 48.09C98.3086 47.25 97.8886 46.515 97.0486 45.78C96.2086 45.15 95.4736 44.73 94.7386 44.415C93.8986 44.205 93.2686 43.89 92.6386 43.47C92.2186 43.26 92.0086 43.05 92.0086 42.63C91.9036 42.315 92.0086 42 92.2186 41.58C92.3236 41.37 92.6386 41.055 93.0586 40.845C93.4786 40.74 94.0036 40.74 94.7386 40.95C95.0536 41.16 95.6836 41.265 96.7336 41.475C97.5736 41.79 98.6236 42.105 99.8836 42.315C100.934 42.735 102.089 43.05 103.244 43.26C104.294 43.575 105.134 43.785 105.869 43.89C106.814 44.205 107.549 44.52 108.179 44.73C108.704 45.15 108.809 45.78 108.494 46.83C108.074 47.985 107.759 49.14 107.444 50.4C107.024 51.765 106.814 53.13 106.814 54.6C106.814 55.545 106.709 56.805 106.709 58.485C106.604 60.165 106.604 61.635 106.604 62.895ZM64.3936 81.375L62.1886 85.68C63.6586 86.52 65.1286 87.36 66.8086 88.2C68.3836 89.25 69.9586 90.195 71.4286 91.035C72.8986 92.085 74.1586 92.925 75.3136 93.66C76.3636 94.5 77.2036 95.13 77.8336 95.55L84.1336 101.325C84.4486 101.745 84.7636 102.165 84.9736 102.69C85.1836 103.32 85.1836 104.265 84.9736 105.525C84.7636 106.155 84.6586 106.68 84.6586 106.995C84.5536 107.415 84.5536 107.625 84.5536 107.835C84.5536 108.15 84.5536 108.465 84.6586 108.675C84.6586 108.99 84.6586 109.305 84.6586 109.725C84.6586 110.775 84.2386 111.3 83.6086 111.51C82.7686 111.825 81.9286 111.615 80.9836 110.775C80.3536 110.355 79.4086 109.2 78.1486 107.415C76.6786 105.735 75.1036 103.74 73.3186 101.535C71.4286 99.435 69.5386 97.335 67.5436 95.13C65.4436 93.03 63.4486 91.245 61.5586 89.775C61.2436 89.67 60.8236 89.355 60.2986 88.935C58.8286 91.245 57.3586 93.24 55.8886 95.13C54.2086 97.125 52.6336 98.805 51.0586 100.275C49.7986 101.43 48.4336 102.375 47.1736 103.005C45.7036 103.845 44.3386 104.37 42.9736 104.79C41.5036 105.21 40.1386 105.525 38.8786 105.525C37.5136 105.735 36.3586 105.735 35.3086 105.525C33.6286 105.315 32.8936 105 32.9986 104.475C32.9986 104.055 33.4186 103.845 34.2586 103.635C35.3086 103.53 36.2536 103.425 37.3036 103.215C38.1436 103.11 39.0886 102.9 40.0336 102.48C40.8736 102.165 41.8186 101.64 42.8686 100.905C43.7086 100.275 44.7586 99.435 45.8086 98.175C47.1736 96.705 48.6436 94.71 50.2186 92.4C51.6886 90.09 53.0536 87.78 54.4186 85.26C53.0536 84.525 51.8986 83.79 50.8486 83.16C49.7986 82.635 48.9586 82.215 48.4336 81.9C47.1736 81.375 46.6486 80.85 46.9636 80.43C47.1736 80.115 48.0136 80.115 49.4836 80.325C50.4286 80.64 51.4786 80.955 52.6336 81.375C53.6836 81.9 54.7336 82.32 55.6786 82.74C55.9936 82.005 56.3086 81.27 56.7286 80.43C56.9386 79.695 57.2536 78.96 57.5686 78.225C57.7786 77.805 57.9886 77.07 58.4086 76.23C58.6186 75.495 58.9336 74.655 59.3536 73.71C59.5636 72.87 59.8786 72.135 60.1936 71.295C60.4036 70.665 60.6136 70.14 60.7186 69.72C61.0336 68.565 60.9286 67.41 60.5086 66.15C59.8786 65.1 59.3536 64.05 58.8286 63.21C58.6186 63 58.4086 62.58 58.1986 62.055C57.8836 61.635 57.6736 61.11 57.5686 60.69C57.1486 60.06 57.3586 59.535 57.9886 59.115C58.5136 58.695 59.1436 58.905 59.8786 59.535C60.2986 60.165 60.7186 60.69 61.3486 61.215C61.7686 61.845 62.6086 62.475 63.8686 63.21C64.4986 63.84 65.4436 64.365 66.7036 64.785C67.8586 65.415 68.8036 65.94 69.6436 66.36C70.2736 66.78 70.7986 67.305 71.2186 67.83C71.4286 68.46 71.0086 69.615 69.9586 71.085C69.3286 71.82 68.8036 72.66 68.1736 73.71C67.5436 74.865 66.9136 75.915 66.4936 76.965C65.8636 78.12 65.4436 79.065 65.1286 79.8C64.7086 80.64 64.3936 81.165 64.3936 81.375Z" fill="#F6C500"/>
</svg>
