<svg width="152" height="182" viewBox="0 0 152 182" fill="none" xmlns="http://www.w3.org/2000/svg">
<rect x="0.75" y="0.75" width="150" height="180" fill="white"/>
<rect x="0.75" y="0.75" width="150" height="180" stroke="#F6C500" stroke-width="1.5"/>
<path d="M61.5955 61.425C62.8555 61.635 64.3255 61.95 65.7955 62.37C67.2655 63 68.6305 63.735 69.8905 64.68C71.1505 65.73 72.2005 67.095 73.1455 68.565C73.9855 70.14 74.5105 71.925 74.7205 74.025C74.7205 74.97 74.7205 75.6 74.7205 76.02C74.6155 76.545 74.5105 76.86 74.4055 76.965C74.1955 77.175 74.0905 77.385 73.9855 77.385C73.7755 77.49 73.6705 77.595 73.6705 77.805C73.5655 78.015 73.5655 78.225 73.7755 78.33C73.7755 78.54 73.8805 78.75 74.0905 78.96C74.1955 79.275 74.3005 79.59 74.4055 80.01C74.4055 80.535 74.4055 81.165 74.1955 81.9C73.5655 84.105 72.7255 86.1 71.4655 87.99C70.2055 89.88 68.6305 91.56 66.8455 92.925C65.7955 93.765 64.7455 94.29 63.4855 94.605C62.2255 95.025 60.9655 95.34 59.7055 95.445C58.4455 95.655 57.2905 95.655 56.2405 95.55C55.1905 95.55 54.3505 95.55 53.7205 95.55C52.2505 95.445 50.7805 95.025 49.3105 94.395C47.7355 93.87 46.3705 93.24 45.3205 92.61C43.6405 91.56 42.2755 90.195 41.2255 88.515C40.1755 86.835 39.4405 85.05 39.0205 83.055C38.6005 81.165 38.3905 79.275 38.6005 77.385C38.6005 75.495 38.9155 73.92 39.5455 72.45C40.0705 71.085 40.9105 69.615 42.0655 68.04C43.1155 66.57 44.5855 65.31 46.4755 64.05C46.1605 63 45.8455 61.845 45.4255 60.795C45.0055 59.85 44.5855 59.115 44.1655 58.59C43.3255 57.75 43.1155 56.91 43.7455 56.28C44.1655 55.755 44.9005 55.755 45.7405 56.28C46.5805 56.91 47.4205 57.33 48.0505 57.645C48.6805 58.065 49.7305 58.695 51.2005 59.325C52.4605 59.955 53.4055 61.32 54.0355 63.21C54.8755 62.79 55.9255 62.37 57.3955 61.95C58.6555 61.53 60.1255 61.425 61.5955 61.425ZM92.0455 74.55C92.0455 74.34 92.0455 73.92 92.0455 73.29C91.9405 72.87 91.9405 72.24 91.9405 71.61C91.9405 71.085 91.9405 70.56 92.0455 70.035C92.0455 69.615 92.1505 69.3 92.3605 69.09C92.5705 68.775 92.7805 68.565 93.0955 68.565C93.3055 68.67 93.5155 68.46 93.7255 67.935C93.7255 67.725 93.7255 67.41 93.6205 67.2C93.4105 66.99 93.2005 66.78 93.0955 66.465C92.8855 66.255 92.6755 65.835 92.5705 65.415C92.3605 65.1 92.3605 64.68 92.5705 64.05C92.6755 63.315 92.7805 62.475 92.7805 61.425C92.6755 60.585 92.6755 59.64 92.6755 58.695C92.5705 56.595 92.5705 55.02 92.6755 53.76C92.6755 52.71 92.6755 51.66 92.6755 50.715C92.5705 49.98 92.4655 49.14 92.4655 48.195C92.3605 47.355 91.9405 46.62 91.2055 45.885C90.3655 45.255 89.5255 44.835 88.8955 44.52C88.0555 44.31 87.4255 43.995 86.7955 43.575C86.3755 43.365 86.1655 43.155 86.1655 42.735C86.0605 42.42 86.0605 42.105 86.2705 41.685C86.3755 41.475 86.6905 41.16 87.1105 40.95C87.5305 40.845 88.0555 40.845 88.8955 40.95C89.2105 41.16 89.8405 41.37 90.8905 41.58C91.7305 41.895 92.7805 42.21 93.9355 42.525C94.9855 42.945 96.1405 43.26 97.2955 43.47C98.3455 43.785 99.2905 43.995 99.9205 44.1C100.866 44.415 101.601 44.73 102.231 44.94C102.756 45.36 102.861 45.99 102.546 47.04C102.126 48.195 101.811 49.35 101.496 50.61C101.076 51.975 100.866 53.34 100.866 54.705C100.866 55.755 100.866 57.015 100.866 58.59C100.761 60.27 100.761 61.845 100.761 63.105C100.761 63.735 100.656 64.47 100.656 65.415C100.551 66.465 100.446 67.62 100.446 68.67C100.341 69.825 100.341 70.875 100.341 71.82C100.236 72.87 100.236 73.71 100.236 74.235V76.965L102.126 76.65C102.966 76.44 103.596 76.335 104.226 76.125C104.646 76.02 105.066 75.915 105.486 75.705C105.696 75.705 106.011 75.495 106.431 75.285C106.641 75.18 107.061 74.97 107.481 74.76C108.321 74.34 109.161 74.025 110.001 73.71C110.736 73.5 111.576 73.395 112.416 73.605C113.361 73.815 114.306 73.815 115.251 73.605C116.091 73.5 116.721 73.395 117.246 73.395C118.086 73.395 118.821 73.605 119.661 74.025C120.291 74.655 120.711 75.285 120.921 76.125C120.921 76.44 121.026 76.755 121.131 77.07C121.131 77.49 121.236 77.91 121.236 78.225C121.236 78.645 121.131 78.96 120.921 79.17C120.606 79.485 120.186 79.695 119.661 79.8C118.506 80.22 117.036 80.325 115.356 80.325C113.466 80.325 111.996 80.325 110.841 80.115C110.316 80.115 109.581 80.115 108.636 80.115C107.586 80.22 106.641 80.325 105.591 80.325C104.541 80.43 103.491 80.535 102.546 80.535C101.496 80.745 100.761 80.85 100.341 80.85H100.131V85.995C99.9205 88.62 99.9205 90.825 99.9205 92.505C99.8155 94.395 99.8155 95.655 99.8155 96.285C99.8155 97.44 99.6055 98.7 99.3955 100.065C98.9755 101.535 98.6605 102.9 98.2405 104.16C97.7155 105.63 97.1905 106.89 96.7705 107.94C96.1405 109.095 95.7205 109.83 95.3005 110.25C94.8805 110.775 94.3555 111.195 93.9355 111.615C93.3055 112.14 92.8855 112.455 92.4655 112.56C91.9405 112.77 91.6255 112.77 91.4155 112.35C91.2055 112.14 91.2055 111.405 91.5205 110.25C91.7305 109.2 91.9405 107.52 92.1505 105.105C92.2555 102.795 92.3605 100.275 92.4655 97.545C92.4655 94.92 92.4655 92.295 92.4655 89.565C92.3605 87.045 92.3605 84.84 92.3605 83.16C92.3605 81.9 92.3605 80.64 92.2555 79.275C92.0455 78.015 92.0455 76.44 92.0455 74.55ZM71.2555 106.785C71.7805 106.785 72.3055 107.1 72.7255 107.52C73.0405 108.045 72.9355 108.675 72.5155 109.41C72.3055 109.83 71.9905 110.25 71.6755 110.88C71.2555 111.615 70.9405 112.35 70.6255 112.98C70.2055 113.82 69.7855 114.45 69.5755 115.08C69.1555 115.815 68.9455 116.34 68.8405 116.655C68.7355 117.075 68.6305 117.81 68.5255 118.65C68.3155 119.7 68.1055 120.645 68.1055 121.695C68.0005 122.745 68.0005 123.795 68.1055 124.845C68.1055 125.79 68.4205 126.525 68.8405 127.05C69.6805 127.995 70.7305 128.625 71.8855 128.94C72.9355 129.15 73.9855 129.36 75.0355 129.465C76.1905 129.465 77.6605 129.36 79.5505 129.36C81.2305 129.15 83.0155 129.045 84.9055 128.835C86.5855 128.52 88.2655 128.205 89.9455 127.995C91.5205 127.68 92.7805 127.365 93.6205 127.05C94.9855 126.525 96.2455 126.315 97.4005 126.42C98.4505 126.42 99.3955 126.735 100.236 127.575C100.656 127.995 101.076 128.31 101.601 128.73C102.021 128.94 102.441 129.255 102.861 129.57C103.071 129.78 103.281 129.99 103.386 130.2C103.386 130.41 103.176 130.62 102.756 130.83C101.811 131.25 100.971 131.775 100.131 132.195C99.2905 132.51 98.1355 132.825 96.7705 133.245C96.1405 133.455 95.6155 133.665 95.4055 133.98C94.9855 134.19 94.7755 134.4 94.5655 134.715C94.2505 134.925 93.9355 135.24 93.6205 135.555C93.2005 135.765 92.6755 135.87 91.9405 136.08C91.1005 136.185 89.7355 136.29 87.9505 136.395C86.0605 136.395 83.9605 136.29 81.8605 136.29C79.6555 136.185 77.5555 136.08 75.6655 135.975C73.6705 135.765 72.2005 135.66 71.1505 135.45C69.8905 135.135 68.6305 134.715 67.5805 134.295C66.4255 133.665 65.4805 133.035 64.6405 132.195C63.8005 131.25 63.1705 130.2 62.7505 129.045C62.2255 127.785 62.0155 126.315 62.1205 124.635C62.2255 122.535 62.3305 120.645 62.4355 118.755C62.4355 116.97 62.5405 115.605 62.5405 114.555C62.5405 113.925 62.3305 113.4 61.9105 112.875C61.3855 112.455 60.9655 112.035 60.5455 111.405C60.3355 111.195 60.1255 110.985 59.9155 110.565C59.6005 110.355 59.3905 110.04 59.1805 109.62C58.9705 109.305 58.8655 108.885 58.8655 108.465C58.7605 108.045 58.8655 107.625 59.1805 107.1C59.7055 106.05 60.1255 105.42 60.5455 105.21C60.8605 105.105 61.2805 105.21 61.8055 105.525C62.0155 105.735 62.1205 105.945 62.2255 106.155C62.2255 106.365 62.2255 106.575 62.2255 106.68C62.2255 106.89 62.2255 107.1 62.3305 107.205C62.3305 107.415 62.5405 107.415 62.9605 107.415C63.5905 107.625 64.2205 107.52 64.8505 107.205C65.3755 106.995 66.1105 106.785 66.9505 106.68C67.6855 106.68 68.4205 106.575 69.2605 106.575C69.9955 106.68 70.6255 106.785 71.2555 106.785ZM52.5655 69.51C51.0955 70.98 49.8355 71.4 48.7855 70.875C48.1555 70.875 47.7355 71.085 47.4205 71.295C47.0005 71.715 46.5805 72.135 46.3705 72.555C46.0555 73.185 45.8455 73.71 45.7405 74.235C45.5305 74.865 45.3205 75.495 45.3205 76.02C45.1105 77.28 45.1105 78.435 45.3205 79.695C45.3205 80.955 45.6355 82.215 46.1605 83.265C46.5805 84.42 47.2105 85.365 48.2605 86.205C49.2055 87.15 50.4655 87.78 52.1455 88.2C54.1405 88.83 55.9255 88.935 57.6055 88.515C59.1805 88.305 60.6505 87.78 62.1205 87.15C64.0105 85.575 65.2705 83.79 65.9005 81.69C66.5305 79.695 66.8455 77.595 67.0555 75.285C67.1605 72.975 66.6355 70.875 65.3755 68.985C64.1155 67.305 62.3305 66.15 60.1255 65.625C59.2855 65.52 58.3405 65.415 57.2905 65.415C56.0305 65.52 55.0855 65.52 54.3505 65.52C54.3505 66.36 54.1405 66.99 53.9305 67.62C53.6155 68.355 53.1955 68.985 52.5655 69.51Z" fill="#F6C500"/>
</svg>
