<svg width="152" height="182" viewBox="0 0 152 182" fill="none" xmlns="http://www.w3.org/2000/svg">
<rect x="0.75" y="0.75" width="150" height="180" fill="white"/>
<rect x="0.75" y="0.75" width="150" height="180" stroke="#F6C500" stroke-width="1.5"/>
<path d="M82.2415 51.345C83.7115 51.555 85.1815 51.87 86.8615 52.29C88.3315 52.815 89.8015 53.55 91.2715 54.495C92.5315 55.545 93.6865 56.91 94.7365 58.485C95.5765 60.165 96.1015 62.055 96.3115 64.26C96.3115 65.31 96.3115 65.94 96.3115 66.36C96.2065 66.885 96.1015 67.2 95.9965 67.41C95.7865 67.62 95.6815 67.83 95.5765 67.83C95.3665 67.935 95.2615 68.04 95.2615 68.25C95.1565 68.46 95.1565 68.67 95.3665 68.67C95.3665 68.88 95.4715 68.985 95.6815 69.195C95.6815 69.405 95.7865 69.72 95.7865 70.14C95.7865 70.56 95.6815 71.19 95.4715 72.03C94.8415 74.025 94.1065 76.02 93.0565 78.12C91.9015 80.325 90.3265 82.215 88.3315 83.685C87.0715 84.525 85.8115 85.155 84.5515 85.575C83.0815 86.1 81.7165 86.415 80.4565 86.52C78.9865 86.73 77.7265 86.835 76.6765 86.835C75.4165 86.835 74.4715 86.835 73.8415 86.835C72.1615 86.73 70.5865 86.31 69.0115 85.68C67.3315 85.05 65.9665 84.42 64.7065 83.79C62.6065 82.74 61.0315 81.165 59.9815 79.275C58.8265 77.385 58.0915 75.39 57.7765 73.29C57.3565 71.295 57.2515 69.3 57.4615 67.305C57.6715 65.415 57.9865 63.84 58.6165 62.58C59.1415 61.215 59.9815 59.745 61.2415 58.065C62.3965 56.595 63.9715 55.23 66.0715 53.97C65.6515 52.815 65.3365 51.66 64.9165 50.505C64.4965 49.455 63.9715 48.72 63.4465 48.09C63.0265 47.67 62.7115 47.25 62.7115 46.725C62.6065 46.305 62.7115 45.99 62.9215 45.675C63.1315 45.465 63.4465 45.36 63.8665 45.255C64.2865 45.255 64.7065 45.465 65.2315 45.675C66.1765 46.305 67.0165 46.83 67.7515 47.25C68.3815 47.67 69.5365 48.3 71.2165 49.035C71.8465 49.455 72.4765 49.98 73.1065 50.61C73.5265 51.345 73.9465 52.185 74.3665 53.025C75.2065 52.605 76.3615 52.08 77.8315 51.66C79.0915 51.345 80.5615 51.24 82.2415 51.345ZM82.4515 113.4C82.4515 115.5 82.4515 117.075 82.4515 118.335C82.3465 119.7 82.2415 120.75 82.2415 121.695C82.1365 122.535 82.0315 123.165 82.0315 123.795C81.9265 124.32 81.8215 124.845 81.8215 125.475C81.7165 126.21 81.5065 127.155 81.2965 128.205C80.8765 129.255 80.5615 130.305 80.1415 131.355C79.7215 132.405 79.1965 133.35 78.7765 134.19C78.2515 135.03 77.8315 135.555 77.4115 135.975C76.9915 136.29 76.4665 136.605 76.0465 137.025C75.4165 137.235 74.9965 137.445 74.5765 137.655C74.0515 137.655 73.7365 137.655 73.5265 137.445C73.3165 137.235 73.3165 136.71 73.6315 135.975C73.8415 135.135 74.0515 133.98 74.2615 132.3C74.2615 130.515 74.3665 128.625 74.3665 126.735C74.3665 124.635 74.3665 122.64 74.3665 120.75C74.2615 118.86 74.2615 117.18 74.2615 115.815C74.1565 113.4 74.1565 111.195 74.1565 109.095C74.0515 107.1 74.0515 106.05 74.2615 105.84C74.4715 105.525 74.6815 105.315 74.9965 105.315C75.2065 105.315 75.4165 105.105 75.6265 104.685C75.6265 104.475 75.6265 104.16 75.5215 103.95C75.3115 103.74 75.2065 103.53 75.1015 103.215C74.8915 103.005 74.6815 102.585 74.5765 102.165C74.3665 101.85 74.3665 101.43 74.4715 100.8V99.96C73.4215 100.17 72.3715 100.275 71.4265 100.275C70.3765 100.485 69.5365 100.59 68.8015 100.59C67.1215 100.8 65.3365 101.115 63.2365 101.43C61.1365 101.85 59.1415 102.165 57.2515 102.48C55.2565 102.9 53.4715 103.32 52.0015 103.635C50.3215 104.055 49.2715 104.475 48.7465 104.685C47.4865 105.315 46.5415 105.63 45.9115 105.63C45.0715 105.84 44.0215 105.63 42.6565 105C42.0265 104.79 41.2915 104.475 40.4515 104.16C39.5065 103.95 38.5615 103.635 37.7215 103.32C36.7765 103.11 35.9365 102.9 35.2015 102.585C34.3615 102.375 33.6265 102.165 33.2065 101.85C32.5765 101.64 32.2615 101.325 32.1565 100.905C31.9465 100.59 31.8415 100.275 31.9465 99.855C31.9465 99.645 32.0515 99.33 32.4715 99.12C32.6815 98.91 33.1015 98.91 33.7315 99.015C34.8865 99.225 35.7265 99.33 36.3565 99.225C36.8815 99.225 37.7215 99.12 38.9815 98.7C40.1365 98.385 41.0815 98.175 41.9215 97.965C42.5515 97.965 43.4965 97.86 44.7565 97.65C45.2815 97.545 46.0165 97.44 46.9615 97.23C47.8015 97.23 48.7465 97.125 49.7965 96.915C50.6365 96.915 51.5815 96.81 52.5265 96.6C53.3665 96.6 54.1015 96.495 54.7315 96.495C55.5715 96.495 57.1465 96.285 59.5615 96.075C61.8715 95.97 64.4965 95.76 67.2265 95.55C69.8515 95.34 72.3715 95.13 74.8915 94.92C77.3065 94.815 79.0915 94.71 80.1415 94.71C81.0865 94.71 82.2415 94.605 83.7115 94.5C84.9715 94.5 86.3365 94.5 87.7015 94.395C88.9615 94.395 90.1165 94.395 91.2715 94.29C92.3215 94.29 93.0565 94.29 93.5815 94.185C94.5265 94.08 95.4715 93.765 96.5215 93.345C97.4665 92.925 98.5165 92.715 99.7765 92.715C100.932 92.715 102.192 92.82 103.452 93.03C104.712 93.345 105.867 93.45 107.127 93.345C108.282 93.345 109.437 93.03 110.487 92.505C111.432 92.085 112.482 92.085 113.637 92.295C114.162 92.505 114.792 92.61 115.632 92.61C116.262 92.82 116.997 92.925 117.627 93.135C118.257 93.345 118.677 93.66 119.097 93.87C119.412 94.29 119.517 94.71 119.307 95.13C118.887 96.18 118.572 96.81 118.362 96.915C118.047 97.125 117.627 97.335 117.207 97.65C116.997 97.86 116.892 98.07 116.997 98.49C116.997 99.015 116.892 99.54 116.892 99.96C116.682 100.485 116.472 100.905 116.157 101.115C115.737 101.535 115.107 101.535 114.162 101.325C111.852 100.905 109.752 100.59 107.652 100.275C105.552 100.065 103.662 99.855 101.982 99.645C100.197 99.54 98.7265 99.435 97.5715 99.225C96.3115 99.12 95.4715 98.91 95.0515 98.7C94.5265 98.49 94.2115 98.385 94.0015 98.28C93.6865 98.28 93.4765 98.175 93.2665 98.07C93.0565 98.07 92.7415 98.07 92.5315 98.07C92.2165 98.07 91.7965 98.07 91.2715 98.07C90.6415 98.07 89.5915 98.175 88.1215 98.28C86.5465 98.49 84.7615 98.7 82.7665 98.91C82.6615 101.535 82.5565 104.055 82.5565 106.365C82.4515 108.78 82.4515 111.09 82.4515 113.4ZM72.6865 59.745C71.7415 60.585 71.0065 61.005 70.3765 61.215C69.6415 61.425 69.0115 61.425 68.4865 61.215C67.8565 61.215 67.3315 61.425 66.9115 61.74C66.3865 62.16 65.9665 62.58 65.7565 63.105C65.3365 63.735 65.1265 64.26 64.9165 64.89C64.7065 65.625 64.4965 66.255 64.4965 66.78C64.2865 68.04 64.2865 69.3 64.3915 70.56C64.3915 71.925 64.7065 73.185 65.3365 74.235C65.7565 75.39 66.5965 76.44 67.6465 77.28C68.6965 78.225 70.0615 78.855 71.9515 79.275C74.0515 79.905 76.1515 80.01 78.1465 79.59C80.0365 79.38 81.8215 78.855 83.5015 78.12C85.4965 76.44 86.8615 74.445 87.5965 72.345C88.2265 70.35 88.5415 68.145 88.7515 65.625C88.9615 63.105 88.3315 60.9 86.9665 59.01C85.4965 57.12 83.5015 55.965 81.0865 55.335C80.1415 55.23 79.0915 55.23 77.9365 55.23C76.6765 55.335 75.5215 55.335 74.6815 55.335C74.6815 57.225 73.9465 58.695 72.6865 59.745Z" fill="#F6C500"/>
</svg>
