<svg width="902" height="302" viewBox="0 0 902 302" fill="none" xmlns="http://www.w3.org/2000/svg">
<rect x="0.75" y="0.75" width="150" height="180" fill="white"/>
<rect x="0.75" y="0.75" width="150" height="180" stroke="#F6C500" stroke-width="1.5"/>
<path d="M61.5955 61.425C62.8555 61.635 64.3255 61.95 65.7955 62.37C67.2655 63 68.6305 63.735 69.8905 64.68C71.1505 65.73 72.2005 67.095 73.1455 68.565C73.9855 70.14 74.5105 71.925 74.7205 74.025C74.7205 74.97 74.7205 75.6 74.7205 76.02C74.6155 76.545 74.5105 76.86 74.4055 76.965C74.1955 77.175 74.0905 77.385 73.9855 77.385C73.7755 77.49 73.6705 77.595 73.6705 77.805C73.5655 78.015 73.5655 78.225 73.7755 78.33C73.7755 78.54 73.8805 78.75 74.0905 78.96C74.1955 79.275 74.3005 79.59 74.4055 80.01C74.4055 80.535 74.4055 81.165 74.1955 81.9C73.5655 84.105 72.7255 86.1 71.4655 87.99C70.2055 89.88 68.6305 91.56 66.8455 92.925C65.7955 93.765 64.7455 94.29 63.4855 94.605C62.2255 95.025 60.9655 95.34 59.7055 95.445C58.4455 95.655 57.2905 95.655 56.2405 95.55C55.1905 95.55 54.3505 95.55 53.7205 95.55C52.2505 95.445 50.7805 95.025 49.3105 94.395C47.7355 93.87 46.3705 93.24 45.3205 92.61C43.6405 91.56 42.2755 90.195 41.2255 88.515C40.1755 86.835 39.4405 85.05 39.0205 83.055C38.6005 81.165 38.3905 79.275 38.6005 77.385C38.6005 75.495 38.9155 73.92 39.5455 72.45C40.0705 71.085 40.9105 69.615 42.0655 68.04C43.1155 66.57 44.5855 65.31 46.4755 64.05C46.1605 63 45.8455 61.845 45.4255 60.795C45.0055 59.85 44.5855 59.115 44.1655 58.59C43.3255 57.75 43.1155 56.91 43.7455 56.28C44.1655 55.755 44.9005 55.755 45.7405 56.28C46.5805 56.91 47.4205 57.33 48.0505 57.645C48.6805 58.065 49.7305 58.695 51.2005 59.325C52.4605 59.955 53.4055 61.32 54.0355 63.21C54.8755 62.79 55.9255 62.37 57.3955 61.95C58.6555 61.53 60.1255 61.425 61.5955 61.425ZM92.0455 74.55C92.0455 74.34 92.0455 73.92 92.0455 73.29C91.9405 72.87 91.9405 72.24 91.9405 71.61C91.9405 71.085 91.9405 70.56 92.0455 70.035C92.0455 69.615 92.1505 69.3 92.3605 69.09C92.5705 68.775 92.7805 68.565 93.0955 68.565C93.3055 68.67 93.5155 68.46 93.7255 67.935C93.7255 67.725 93.7255 67.41 93.6205 67.2C93.4105 66.99 93.2005 66.78 93.0955 66.465C92.8855 66.255 92.6755 65.835 92.5705 65.415C92.3605 65.1 92.3605 64.68 92.5705 64.05C92.6755 63.315 92.7805 62.475 92.7805 61.425C92.6755 60.585 92.6755 59.64 92.6755 58.695C92.5705 56.595 92.5705 55.02 92.6755 53.76C92.6755 52.71 92.6755 51.66 92.6755 50.715C92.5705 49.98 92.4655 49.14 92.4655 48.195C92.3605 47.355 91.9405 46.62 91.2055 45.885C90.3655 45.255 89.5255 44.835 88.8955 44.52C88.0555 44.31 87.4255 43.995 86.7955 43.575C86.3755 43.365 86.1655 43.155 86.1655 42.735C86.0605 42.42 86.0605 42.105 86.2705 41.685C86.3755 41.475 86.6905 41.16 87.1105 40.95C87.5305 40.845 88.0555 40.845 88.8955 40.95C89.2105 41.16 89.8405 41.37 90.8905 41.58C91.7305 41.895 92.7805 42.21 93.9355 42.525C94.9855 42.945 96.1405 43.26 97.2955 43.47C98.3455 43.785 99.2905 43.995 99.9205 44.1C100.866 44.415 101.601 44.73 102.231 44.94C102.756 45.36 102.861 45.99 102.546 47.04C102.126 48.195 101.811 49.35 101.496 50.61C101.076 51.975 100.866 53.34 100.866 54.705C100.866 55.755 100.866 57.015 100.866 58.59C100.761 60.27 100.761 61.845 100.761 63.105C100.761 63.735 100.656 64.47 100.656 65.415C100.551 66.465 100.446 67.62 100.446 68.67C100.341 69.825 100.341 70.875 100.341 71.82C100.236 72.87 100.236 73.71 100.236 74.235V76.965L102.126 76.65C102.966 76.44 103.596 76.335 104.226 76.125C104.646 76.02 105.066 75.915 105.486 75.705C105.696 75.705 106.011 75.495 106.431 75.285C106.641 75.18 107.061 74.97 107.481 74.76C108.321 74.34 109.161 74.025 110.001 73.71C110.736 73.5 111.576 73.395 112.416 73.605C113.361 73.815 114.306 73.815 115.251 73.605C116.091 73.5 116.721 73.395 117.246 73.395C118.086 73.395 118.821 73.605 119.661 74.025C120.291 74.655 120.711 75.285 120.921 76.125C120.921 76.44 121.026 76.755 121.131 77.07C121.131 77.49 121.236 77.91 121.236 78.225C121.236 78.645 121.131 78.96 120.921 79.17C120.606 79.485 120.186 79.695 119.661 79.8C118.506 80.22 117.036 80.325 115.356 80.325C113.466 80.325 111.996 80.325 110.841 80.115C110.316 80.115 109.581 80.115 108.636 80.115C107.586 80.22 106.641 80.325 105.591 80.325C104.541 80.43 103.491 80.535 102.546 80.535C101.496 80.745 100.761 80.85 100.341 80.85H100.131V85.995C99.9205 88.62 99.9205 90.825 99.9205 92.505C99.8155 94.395 99.8155 95.655 99.8155 96.285C99.8155 97.44 99.6055 98.7 99.3955 100.065C98.9755 101.535 98.6605 102.9 98.2405 104.16C97.7155 105.63 97.1905 106.89 96.7705 107.94C96.1405 109.095 95.7205 109.83 95.3005 110.25C94.8805 110.775 94.3555 111.195 93.9355 111.615C93.3055 112.14 92.8855 112.455 92.4655 112.56C91.9405 112.77 91.6255 112.77 91.4155 112.35C91.2055 112.14 91.2055 111.405 91.5205 110.25C91.7305 109.2 91.9405 107.52 92.1505 105.105C92.2555 102.795 92.3605 100.275 92.4655 97.545C92.4655 94.92 92.4655 92.295 92.4655 89.565C92.3605 87.045 92.3605 84.84 92.3605 83.16C92.3605 81.9 92.3605 80.64 92.2555 79.275C92.0455 78.015 92.0455 76.44 92.0455 74.55ZM71.2555 106.785C71.7805 106.785 72.3055 107.1 72.7255 107.52C73.0405 108.045 72.9355 108.675 72.5155 109.41C72.3055 109.83 71.9905 110.25 71.6755 110.88C71.2555 111.615 70.9405 112.35 70.6255 112.98C70.2055 113.82 69.7855 114.45 69.5755 115.08C69.1555 115.815 68.9455 116.34 68.8405 116.655C68.7355 117.075 68.6305 117.81 68.5255 118.65C68.3155 119.7 68.1055 120.645 68.1055 121.695C68.0005 122.745 68.0005 123.795 68.1055 124.845C68.1055 125.79 68.4205 126.525 68.8405 127.05C69.6805 127.995 70.7305 128.625 71.8855 128.94C72.9355 129.15 73.9855 129.36 75.0355 129.465C76.1905 129.465 77.6605 129.36 79.5505 129.36C81.2305 129.15 83.0155 129.045 84.9055 128.835C86.5855 128.52 88.2655 128.205 89.9455 127.995C91.5205 127.68 92.7805 127.365 93.6205 127.05C94.9855 126.525 96.2455 126.315 97.4005 126.42C98.4505 126.42 99.3955 126.735 100.236 127.575C100.656 127.995 101.076 128.31 101.601 128.73C102.021 128.94 102.441 129.255 102.861 129.57C103.071 129.78 103.281 129.99 103.386 130.2C103.386 130.41 103.176 130.62 102.756 130.83C101.811 131.25 100.971 131.775 100.131 132.195C99.2905 132.51 98.1355 132.825 96.7705 133.245C96.1405 133.455 95.6155 133.665 95.4055 133.98C94.9855 134.19 94.7755 134.4 94.5655 134.715C94.2505 134.925 93.9355 135.24 93.6205 135.555C93.2005 135.765 92.6755 135.87 91.9405 136.08C91.1005 136.185 89.7355 136.29 87.9505 136.395C86.0605 136.395 83.9605 136.29 81.8605 136.29C79.6555 136.185 77.5555 136.08 75.6655 135.975C73.6705 135.765 72.2005 135.66 71.1505 135.45C69.8905 135.135 68.6305 134.715 67.5805 134.295C66.4255 133.665 65.4805 133.035 64.6405 132.195C63.8005 131.25 63.1705 130.2 62.7505 129.045C62.2255 127.785 62.0155 126.315 62.1205 124.635C62.2255 122.535 62.3305 120.645 62.4355 118.755C62.4355 116.97 62.5405 115.605 62.5405 114.555C62.5405 113.925 62.3305 113.4 61.9105 112.875C61.3855 112.455 60.9655 112.035 60.5455 111.405C60.3355 111.195 60.1255 110.985 59.9155 110.565C59.6005 110.355 59.3905 110.04 59.1805 109.62C58.9705 109.305 58.8655 108.885 58.8655 108.465C58.7605 108.045 58.8655 107.625 59.1805 107.1C59.7055 106.05 60.1255 105.42 60.5455 105.21C60.8605 105.105 61.2805 105.21 61.8055 105.525C62.0155 105.735 62.1205 105.945 62.2255 106.155C62.2255 106.365 62.2255 106.575 62.2255 106.68C62.2255 106.89 62.2255 107.1 62.3305 107.205C62.3305 107.415 62.5405 107.415 62.9605 107.415C63.5905 107.625 64.2205 107.52 64.8505 107.205C65.3755 106.995 66.1105 106.785 66.9505 106.68C67.6855 106.68 68.4205 106.575 69.2605 106.575C69.9955 106.68 70.6255 106.785 71.2555 106.785ZM52.5655 69.51C51.0955 70.98 49.8355 71.4 48.7855 70.875C48.1555 70.875 47.7355 71.085 47.4205 71.295C47.0005 71.715 46.5805 72.135 46.3705 72.555C46.0555 73.185 45.8455 73.71 45.7405 74.235C45.5305 74.865 45.3205 75.495 45.3205 76.02C45.1105 77.28 45.1105 78.435 45.3205 79.695C45.3205 80.955 45.6355 82.215 46.1605 83.265C46.5805 84.42 47.2105 85.365 48.2605 86.205C49.2055 87.15 50.4655 87.78 52.1455 88.2C54.1405 88.83 55.9255 88.935 57.6055 88.515C59.1805 88.305 60.6505 87.78 62.1205 87.15C64.0105 85.575 65.2705 83.79 65.9005 81.69C66.5305 79.695 66.8455 77.595 67.0555 75.285C67.1605 72.975 66.6355 70.875 65.3755 68.985C64.1155 67.305 62.3305 66.15 60.1255 65.625C59.2855 65.52 58.3405 65.415 57.2905 65.415C56.0305 65.52 55.0855 65.52 54.3505 65.52C54.3505 66.36 54.1405 66.99 53.9305 67.62C53.6155 68.355 53.1955 68.985 52.5655 69.51Z" fill="#F6C500"/>
<rect x="150.75" y="0.75" width="150" height="180" fill="white"/>
<rect x="150.75" y="0.75" width="150" height="180" stroke="#F6C500" stroke-width="1.5"/>
<path d="M239.594 104.475C240.959 104.685 242.429 105 244.004 105.42C245.474 105.945 246.839 106.68 248.099 107.52C249.359 108.57 250.409 109.725 251.354 111.195C252.194 112.665 252.614 114.45 252.824 116.55C252.824 117.495 252.824 118.125 252.824 118.545C252.719 118.965 252.614 119.28 252.509 119.385C252.299 119.595 252.194 119.805 252.089 119.805C251.879 119.91 251.774 120.015 251.774 120.225C251.564 120.435 251.564 120.645 251.774 120.645C251.774 120.75 251.879 120.96 252.089 121.17C252.089 121.38 252.194 121.695 252.299 122.115C252.299 122.535 252.194 123.06 251.984 123.9C251.354 125.685 250.619 127.575 249.569 129.465C248.519 131.355 247.049 132.93 245.159 134.4C244.109 135.135 242.954 135.765 241.694 136.185C240.434 136.605 239.174 136.92 238.019 137.13C236.759 137.34 235.604 137.445 234.554 137.55C233.504 137.55 232.664 137.55 232.034 137.55C230.459 137.34 228.884 137.025 227.414 136.5C225.839 135.87 224.474 135.345 223.319 134.82C221.324 133.77 219.854 132.3 218.909 130.62C217.859 128.73 217.229 126.945 217.019 125.055C216.599 123.06 216.599 121.17 216.809 119.385C217.019 117.6 217.334 116.13 217.859 114.975C218.489 113.715 219.329 112.245 220.484 110.67C221.534 109.2 223.109 107.94 224.999 106.785C224.684 105.84 224.369 104.895 224.054 103.95C223.634 103.11 223.214 102.48 222.794 102.06C221.954 101.325 221.744 100.59 222.374 99.855C222.794 99.225 223.529 99.225 224.369 99.75C225.209 100.38 226.049 100.8 226.679 101.22C227.204 101.745 228.149 102.27 229.619 102.9C230.774 103.53 231.614 104.58 232.244 106.155C233.084 105.735 234.134 105.315 235.499 104.895C236.759 104.58 238.124 104.475 239.594 104.475ZM226.049 76.65C224.369 76.44 223.529 75.915 223.529 75.285C223.424 74.76 223.844 74.445 224.894 74.235C225.314 74.235 225.734 74.13 226.154 74.025C226.469 74.025 226.889 74.025 227.309 73.92C227.729 73.92 228.254 73.815 228.884 73.71C229.514 73.71 230.354 73.71 231.509 73.71C232.244 73.71 233.294 73.71 234.554 73.5C235.814 73.395 237.179 73.185 238.649 72.87C240.119 72.66 241.589 72.45 243.164 72.03C244.634 71.715 246.104 71.4 247.574 70.98C247.574 70.665 247.574 70.245 247.574 69.825C247.574 69.405 247.574 69.195 247.679 69.09C247.889 68.775 248.204 68.565 248.519 68.565C248.729 68.565 248.834 68.355 249.044 67.935C249.044 67.725 249.044 67.41 248.939 67.2C248.729 66.99 248.624 66.78 248.519 66.465C248.309 66.255 248.099 65.835 247.994 65.415C247.784 65.1 247.784 64.68 247.889 64.05C247.889 64.05 247.889 63.945 247.994 63.84C247.994 63.84 247.994 63.735 247.994 63.525C246.839 64.155 245.789 64.68 244.949 65.205C243.899 65.835 242.954 66.255 242.009 66.36C241.379 66.57 240.539 66.675 239.594 66.885C238.544 67.2 237.494 67.41 236.444 67.62C235.394 67.83 234.344 68.04 233.504 68.04C232.559 68.145 231.929 68.04 231.509 67.83C231.089 67.62 230.774 67.41 230.564 67.095C230.144 66.885 229.829 66.57 229.514 66.255C229.094 66.045 228.569 65.73 228.149 65.52C227.519 65.31 226.889 65.205 226.049 65.1C224.369 64.89 223.529 64.365 223.529 63.735C223.424 63.21 223.844 62.895 224.894 62.685C225.314 62.685 225.734 62.58 226.154 62.475C226.469 62.475 226.889 62.475 227.309 62.37C227.729 62.37 228.254 62.265 228.884 62.16C229.514 62.16 230.354 62.16 231.509 62.16C232.349 62.16 233.399 62.16 234.764 61.95C236.024 61.845 237.389 61.635 238.964 61.32C240.434 61.11 242.009 60.795 243.689 60.375C245.159 60.06 246.629 59.745 248.099 59.325V58.695C247.889 56.595 247.889 55.02 248.099 53.76C248.099 52.71 248.099 51.66 248.099 50.715C247.889 49.98 247.889 49.14 247.889 48.195C247.784 47.355 247.364 46.62 246.524 45.78C245.684 45.15 244.949 44.73 244.319 44.415C243.479 44.205 242.744 43.89 242.114 43.47C241.694 43.26 241.484 43.05 241.484 42.63C241.379 42.42 241.484 42.105 241.694 41.685C241.799 41.475 242.114 41.16 242.534 40.95C242.954 40.845 243.479 40.845 244.214 40.95C244.634 41.16 245.264 41.37 246.314 41.58C247.154 41.895 248.204 42.21 249.359 42.42C250.409 42.84 251.564 43.155 252.719 43.365C253.769 43.785 254.714 43.995 255.344 44.1C256.289 44.31 257.024 44.625 257.654 44.94C258.179 45.36 258.284 45.99 257.969 46.935C257.549 48.09 257.234 49.35 256.919 50.61C256.499 51.975 256.289 53.34 256.289 54.705C256.289 55.755 256.289 57.015 256.289 58.59C256.184 60.27 256.184 61.74 256.184 63C256.079 63.63 255.974 64.365 255.974 65.31C255.869 66.36 255.869 67.515 255.869 68.565C255.764 69.825 255.764 70.875 255.764 71.82C255.659 72.87 255.659 73.71 255.659 74.235V76.86H255.764C255.764 77.7 255.764 78.75 255.764 79.8C255.764 80.955 255.764 82.005 255.764 83.055C255.659 84.21 255.554 85.26 255.554 86.205C255.449 87.255 255.344 88.095 255.344 88.725C255.239 89.565 255.029 90.405 254.819 91.35C254.399 92.4 254.084 93.45 253.664 94.29C253.139 95.34 252.719 96.18 252.299 96.915C251.774 97.755 251.354 98.385 250.934 98.7C250.514 99.12 249.989 99.435 249.569 99.75C248.939 100.17 248.519 100.38 248.099 100.38C247.574 100.59 247.259 100.485 247.049 100.17C246.839 99.96 246.839 99.54 247.154 98.7C247.364 98.07 247.469 97.02 247.679 95.55C247.679 94.08 247.784 92.505 247.784 90.615C247.784 88.83 247.784 86.94 247.784 85.05C247.679 83.16 247.679 81.48 247.679 80.01C247.574 79.17 247.574 78.435 247.574 77.595C247.574 76.965 247.574 76.23 247.574 75.39C246.524 76.02 245.684 76.545 244.844 76.965C243.899 77.49 242.954 77.805 242.009 77.91C241.379 78.12 240.539 78.225 239.594 78.435C238.544 78.75 237.494 78.96 236.444 79.17C235.394 79.38 234.344 79.59 233.504 79.59C232.559 79.695 231.929 79.59 231.509 79.38C231.089 79.17 230.774 78.96 230.564 78.645C230.144 78.435 229.829 78.12 229.514 77.805C229.094 77.595 228.569 77.28 228.149 77.07C227.519 76.86 226.889 76.755 226.049 76.65ZM225.209 95.025L226.154 90.405C225.419 90.615 224.684 90.93 223.844 91.14C223.004 91.455 222.164 91.77 221.429 91.98C220.589 92.4 219.959 92.715 219.329 92.925C218.699 93.345 218.174 93.66 217.859 93.975C217.229 94.605 216.389 95.025 215.234 95.445C213.974 95.865 212.714 96.285 211.454 96.495C209.984 96.915 208.619 97.125 207.359 97.125C205.994 97.335 204.944 97.335 204.209 97.125C202.949 96.81 201.794 96.39 200.744 95.865C199.694 95.445 198.749 94.71 197.909 93.45C196.754 91.98 196.019 90.3 195.599 88.2C195.074 86.205 194.759 84.105 194.654 81.795C194.444 79.695 194.444 77.49 194.654 75.285C194.654 73.185 194.759 71.19 194.759 69.3C194.759 67.83 194.654 66.57 194.549 65.52C194.339 64.68 194.024 63.945 193.814 63.315C193.394 62.895 193.079 62.475 192.659 62.055C192.134 61.74 191.609 61.32 191.084 60.9C189.929 60.165 189.509 59.43 189.824 58.8C190.034 58.17 190.559 58.065 191.609 58.275C192.029 58.485 192.764 58.695 193.814 59.01C194.654 59.43 195.704 59.85 196.754 60.27C197.699 60.69 198.644 61.11 199.589 61.53C200.429 61.95 201.164 62.265 201.584 62.475C202.319 62.895 202.844 63.42 203.054 64.26C203.159 65.205 203.159 66.885 202.949 69.3C202.529 72.03 202.424 74.445 202.424 76.545C202.319 78.645 202.424 80.85 202.634 82.95C202.844 85.68 203.264 87.57 203.684 88.62C204.104 89.88 205.154 90.195 206.834 89.775C207.569 89.565 208.619 89.46 209.879 89.355C211.034 89.355 212.294 89.25 213.554 89.04C214.814 89.04 215.969 88.83 217.019 88.62C218.069 88.41 218.804 88.095 219.434 87.675C219.854 87.255 220.379 86.835 221.114 86.415C221.744 86.1 222.374 85.785 223.109 85.365C223.739 85.155 224.474 84.945 225.209 84.84C225.839 84.84 226.364 84.84 226.784 85.05L227.414 85.575C227.729 84.525 228.044 83.79 228.359 83.475C228.569 83.16 228.989 82.74 229.619 82.32C230.144 82.005 230.774 81.69 231.614 81.27C232.244 81.06 232.979 80.85 233.819 80.64C234.449 80.64 235.079 80.64 235.709 80.85C238.229 81.795 239.699 83.37 239.909 85.575C240.014 86.73 239.909 87.465 239.699 87.78C239.279 88.2 238.649 88.62 237.809 89.25C236.969 89.88 236.024 90.51 235.184 91.245C234.134 92.085 233.504 92.61 233.084 92.925C232.664 93.45 232.244 93.765 231.824 93.975C231.404 94.29 230.774 94.5 229.934 94.5C229.094 94.605 228.569 94.71 228.359 94.71C228.044 94.815 227.729 95.13 227.309 95.55C226.889 96.18 226.469 96.39 225.839 96.285C225.209 96.285 224.999 95.865 225.209 95.025ZM230.984 112.35C229.619 113.4 228.569 113.925 227.729 113.715C227.099 113.505 226.469 113.61 226.049 113.82C225.419 114.135 224.999 114.555 224.684 114.975C224.264 115.605 224.054 116.13 223.844 116.76C223.634 117.39 223.424 118.02 223.424 118.65C223.319 119.91 223.319 120.96 223.424 122.22C223.424 123.375 223.634 124.53 224.054 125.58C224.474 126.63 225.104 127.575 226.049 128.415C226.889 129.15 228.254 129.78 229.934 130.2C231.929 130.62 233.924 130.83 235.919 130.62C237.809 130.305 239.489 129.78 240.959 129.15C242.849 127.47 244.004 125.79 244.529 124.005C244.949 122.115 245.159 120.12 245.369 117.81C245.474 115.5 244.949 113.4 243.689 111.51C242.429 109.725 240.644 108.57 238.334 108.15C237.494 108.045 236.549 108.045 235.499 108.045C234.344 108.15 233.399 108.255 232.664 108.255C232.769 109.935 232.244 111.3 230.984 112.35Z" fill="#F6C500"/>
<rect x="300.75" y="0.75" width="150" height="180" fill="white"/>
<rect x="300.75" y="0.75" width="150" height="180" stroke="#F6C500" stroke-width="1.5"/>
<path d="M382.596 72.03C382.911 72.87 382.176 73.605 380.496 74.025C379.656 74.235 379.026 74.445 378.711 74.655C378.291 74.97 377.871 74.97 377.451 74.655C377.136 74.55 376.926 74.34 376.926 74.025C376.821 73.815 376.821 73.605 376.821 73.395C376.821 73.185 376.821 73.08 376.821 72.87C376.716 72.765 376.611 72.66 376.401 72.66C376.086 72.66 375.876 72.765 375.771 72.975C375.561 73.29 375.456 73.605 375.456 73.815C375.246 74.235 375.141 74.55 375.036 74.76C374.826 75.075 374.616 75.285 374.406 75.285C373.776 75.6 372.831 75.81 371.571 76.02C370.101 76.335 369.051 76.65 368.316 76.965C366.846 77.385 365.796 77.7 365.166 77.805C364.326 78.015 363.591 78.33 362.856 78.855C362.331 79.275 362.121 79.695 362.226 80.115C362.226 80.64 362.226 81.06 362.436 81.48C362.961 81.9 363.486 82.215 364.116 82.425C364.536 82.845 365.166 83.055 365.901 83.265C366.111 83.37 366.636 83.475 367.266 83.685C367.896 83.895 368.526 84.21 369.261 84.42C369.891 84.735 370.626 85.05 371.361 85.26C371.991 85.575 372.516 85.785 372.936 85.995C373.881 86.625 374.511 87.465 374.721 88.515C374.826 89.775 374.826 91.14 374.721 92.61C374.511 94.29 374.091 95.865 373.356 97.44C372.516 99.12 371.466 100.59 370.311 101.955C369.051 103.425 367.791 104.58 366.426 105.63C364.956 106.785 363.486 107.625 362.226 108.15C359.916 109.2 357.711 109.83 355.401 110.04C353.091 110.355 351.201 110.46 349.836 110.25C349.206 110.25 348.681 109.83 348.051 109.2C347.421 108.675 346.791 107.94 346.371 106.995C345.741 106.155 345.321 105.21 345.006 104.16C344.586 103.215 344.271 102.165 344.271 101.115C344.166 99.855 344.271 98.385 344.586 96.705C344.796 95.235 345.006 94.08 345.216 93.24C345.321 92.61 345.531 91.98 345.846 91.56C346.056 91.245 346.686 90.93 347.736 90.72C348.681 90.615 349.311 90.405 349.731 89.985C350.046 89.775 350.466 89.04 350.886 87.885C351.096 86.835 351.516 85.89 352.041 84.945C352.461 84.105 352.881 83.37 353.196 82.74C353.511 81.795 354.141 81.06 355.191 80.43C356.136 80.01 357.081 79.695 358.131 79.695C358.971 78.96 359.811 78.225 360.651 77.595C361.386 76.965 362.121 76.335 362.961 75.6C363.486 75.285 363.801 74.865 363.801 74.445C363.801 74.025 363.276 73.92 362.226 74.025C360.546 74.025 358.971 74.34 357.501 74.76C355.926 75.285 354.456 75.705 352.986 76.125C352.461 76.335 352.146 76.44 352.041 76.44C351.831 76.65 351.621 76.755 351.621 76.755C351.411 76.86 351.411 76.86 351.411 76.86C351.306 76.86 351.201 76.86 351.096 76.65C350.886 76.545 350.676 76.44 350.676 76.23C350.466 76.23 350.361 76.125 350.256 75.915C350.046 75.81 350.046 75.705 350.046 75.6C349.416 76.335 348.891 76.86 348.471 77.175C347.946 77.595 347.211 77.91 346.371 77.91C345.636 78.12 344.796 78.225 343.956 78.225C343.011 78.33 341.961 77.91 340.911 77.07C340.281 76.65 339.966 76.335 339.756 75.915C339.441 75.705 339.231 75.39 339.126 75.075C338.916 74.865 338.811 74.655 338.706 74.445C338.496 74.235 338.286 74.025 337.866 73.71C337.026 73.29 336.501 72.975 336.291 72.87C335.976 72.87 335.556 72.87 335.031 72.66C334.401 72.555 334.086 72.345 333.981 71.925C333.771 71.715 334.086 71.505 334.926 71.4C335.661 71.4 336.396 71.295 337.026 71.295C337.551 71.4 338.601 71.4 340.071 71.4C340.491 71.4 341.226 71.4 342.381 71.295C343.431 71.295 344.586 71.295 346.056 71.085C347.316 71.085 348.681 70.98 350.151 70.77C351.516 70.665 352.671 70.56 353.721 70.35C355.926 70.035 358.026 69.72 359.916 69.3C361.701 69.09 362.961 68.985 363.696 69.09C364.641 69.3 365.691 69.405 366.951 69.195C368.001 69.09 368.841 68.985 369.471 68.775C369.891 68.565 370.521 68.25 371.361 67.725C372.096 67.305 372.726 66.885 373.146 66.255C373.461 65.73 374.091 65.415 375.141 65.205C375.981 65.205 376.716 65.31 377.346 65.625C377.766 66.045 378.396 66.465 379.341 67.095C380.181 67.83 380.706 68.565 381.021 69.3C381.126 69.51 381.336 69.93 381.651 70.455C381.861 71.085 382.176 71.61 382.596 72.03ZM421.446 90.3C421.446 90.93 421.551 91.665 421.551 92.4C421.551 93.24 420.921 93.765 419.766 93.975C418.611 94.185 417.141 94.185 415.461 93.975C413.676 93.765 412.206 93.555 410.946 93.24C410.421 93.24 409.686 93.135 408.741 93.03C407.691 93.03 406.746 93.03 405.696 93.03C404.646 93.03 403.596 93.03 402.651 93.03C401.601 93.135 400.866 93.135 400.446 93.135H400.236C400.236 94.605 400.236 95.865 400.236 97.125C400.131 98.385 400.131 99.54 400.131 100.485C399.921 104.265 399.921 107.31 399.921 109.83C399.816 112.455 399.816 114.24 399.816 115.185C399.816 116.865 399.606 118.65 399.396 120.645C398.976 122.64 398.661 124.635 398.241 126.525C397.716 128.415 397.191 130.095 396.771 131.67C396.141 133.14 395.721 134.295 395.301 134.925C394.881 135.555 394.356 136.29 393.936 137.025C393.306 137.655 392.886 138.075 392.466 138.39C391.941 138.6 391.626 138.495 391.416 138.075C391.206 137.55 391.206 136.5 391.521 134.925C391.731 133.35 391.941 130.935 392.151 127.68C392.151 124.32 392.256 120.75 392.361 116.865C392.361 113.085 392.361 109.305 392.361 105.525C392.256 101.85 392.256 98.805 392.256 96.495C392.361 94.71 392.361 92.82 392.256 90.93C392.046 89.04 392.046 86.835 392.046 84.105C391.941 82.425 391.941 80.64 391.941 78.75C391.836 76.965 391.836 75.285 391.836 73.815C391.836 72.45 391.836 71.295 391.836 70.35C391.836 69.51 391.836 68.985 391.941 68.88C392.151 68.67 392.466 68.46 392.781 68.46C392.991 68.46 393.096 68.25 393.306 67.725C393.306 67.515 393.306 67.2 393.201 66.99C392.991 66.78 392.886 66.57 392.781 66.255C392.571 66.045 392.361 65.73 392.256 65.31C392.046 64.995 392.046 64.575 392.151 63.945C392.256 63.21 392.361 62.37 392.361 61.32C392.256 60.48 392.256 59.535 392.256 58.485C392.151 56.385 392.151 54.81 392.361 53.655C392.361 52.605 392.361 51.66 392.256 50.61C392.151 49.875 392.151 49.035 392.151 48.09C392.046 47.25 391.626 46.515 390.786 45.78C389.946 45.15 389.211 44.73 388.476 44.415C387.636 44.205 387.006 43.89 386.376 43.47C385.956 43.26 385.746 43.05 385.746 42.63C385.641 42.315 385.746 42 385.956 41.58C386.061 41.37 386.376 41.055 386.796 40.845C387.216 40.74 387.741 40.74 388.476 40.95C388.791 41.16 389.421 41.265 390.471 41.475C391.311 41.79 392.361 42.105 393.621 42.315C394.671 42.735 395.826 43.05 396.981 43.26C398.031 43.575 398.871 43.785 399.606 43.89C400.551 44.205 401.286 44.52 401.916 44.73C402.441 45.15 402.546 45.78 402.231 46.83C401.811 47.985 401.496 49.14 401.181 50.4C400.761 51.765 400.551 53.13 400.551 54.6C400.551 55.545 400.446 56.805 400.446 58.485C400.341 60.165 400.341 61.635 400.341 62.895C400.341 63.525 400.236 64.26 400.236 65.205C400.131 66.255 400.131 67.41 400.131 68.46C400.026 69.615 400.026 70.665 400.026 71.61C399.921 72.66 399.921 73.5 399.921 74.025C399.921 75.18 399.921 76.125 400.026 76.965C400.026 77.91 400.026 78.75 400.026 79.59C400.026 80.535 400.026 81.48 400.131 82.425C400.131 83.475 400.131 84.735 400.131 86.1V89.46L402.756 89.145C403.596 89.04 404.226 88.935 404.856 88.725C405.276 88.725 405.696 88.62 406.116 88.41C406.431 88.41 406.746 88.305 407.166 88.095C407.376 88.095 407.796 87.885 408.216 87.675C409.161 87.36 410.001 87.045 410.841 86.835C411.471 86.625 412.311 86.73 413.256 87.045C414.096 87.465 414.936 87.465 415.986 87.255C416.826 87.15 417.561 87.15 418.086 87.15C418.821 87.255 419.556 87.57 420.291 88.095C420.921 88.725 421.341 89.46 421.446 90.3ZM351.096 97.44C351.096 98.7 351.411 99.75 352.041 100.695C352.671 101.745 353.406 102.48 354.456 103.005C355.296 103.635 356.346 103.95 357.606 103.95C358.761 104.16 359.916 103.95 361.176 103.32C362.856 102.48 364.221 100.905 365.481 98.805C366.636 96.81 367.161 94.5 367.056 91.98C366.951 90.72 366.636 89.775 366.216 88.935C365.586 88.305 364.956 87.78 364.326 87.36C363.486 87.045 362.751 86.835 361.911 86.73C360.966 86.73 360.126 86.835 359.391 86.835C358.131 87.045 357.081 87.255 356.241 87.57C355.296 87.99 354.666 88.41 354.246 88.725C352.881 89.565 352.041 90.615 351.621 91.875C351.096 93.345 350.886 95.13 351.096 97.44ZM351.096 54.075C351.516 54.495 351.936 54.915 352.356 55.125C352.671 55.545 353.196 55.65 354.036 55.65C354.876 55.65 355.821 55.545 356.661 55.335C357.501 55.23 358.446 55.125 359.496 55.125C360.546 55.125 361.701 55.23 362.961 55.335C364.221 55.545 365.166 55.65 365.796 55.65C366.426 55.86 366.846 56.385 366.951 57.33C366.951 58.38 366.951 59.115 366.846 59.64C366.531 60.27 365.901 60.795 364.956 61.425C363.906 62.16 362.961 62.685 362.121 63C361.701 63.21 361.071 63.21 360.231 63.21C359.286 63.21 358.446 63.21 357.606 63C356.661 62.895 355.821 62.685 355.191 62.37C354.351 62.16 353.931 61.845 353.721 61.425C352.986 60.06 352.251 58.8 351.621 57.75C350.886 56.805 350.361 56.07 350.046 55.65C349.521 55.02 349.521 54.495 349.941 54.075C350.361 53.76 350.676 53.76 351.096 54.075Z" fill="#F6C500"/>
<rect x="450.75" y="0.75" width="150" height="180" fill="white"/>
<rect x="450.75" y="0.75" width="150" height="180" stroke="#F6C500" stroke-width="1.5"/>
<path d="M556.604 62.895C556.604 63.525 556.499 64.26 556.499 65.205C556.394 66.255 556.394 67.41 556.394 68.46C556.289 69.615 556.289 70.665 556.289 71.61C556.184 72.66 556.184 73.5 556.184 74.025C556.184 75.18 556.184 76.125 556.289 76.965C556.289 77.91 556.289 78.75 556.289 79.59C556.289 80.535 556.289 81.48 556.394 82.425C556.394 83.475 556.394 84.735 556.394 86.1C556.394 87.15 556.394 88.305 556.499 89.565C556.499 90.93 556.499 92.19 556.499 93.45C556.499 94.815 556.499 96.075 556.499 97.23C556.394 98.49 556.394 99.645 556.394 100.485C556.184 104.265 556.184 107.31 556.184 109.83C556.079 112.455 556.079 114.24 556.079 115.185C556.079 116.865 555.869 118.65 555.659 120.645C555.239 122.64 554.924 124.635 554.504 126.525C553.979 128.415 553.454 130.095 553.034 131.67C552.404 133.14 551.984 134.295 551.564 134.925C551.144 135.555 550.619 136.29 550.199 137.025C549.569 137.655 549.149 138.075 548.729 138.39C548.204 138.6 547.889 138.495 547.679 138.075C547.469 137.55 547.469 136.5 547.784 134.925C547.994 133.35 548.204 130.935 548.414 127.68C548.414 124.32 548.519 120.75 548.624 116.865C548.624 113.085 548.624 109.305 548.624 105.525C548.519 101.85 548.519 98.805 548.519 96.495C548.624 94.71 548.624 92.82 548.519 90.93C548.309 89.04 548.309 86.835 548.309 84.105C548.204 82.425 548.204 80.64 548.204 78.75C548.099 76.965 548.099 75.285 548.099 73.815C548.099 72.45 548.099 71.295 548.099 70.35C548.099 69.51 548.099 68.985 548.204 68.88C548.414 68.67 548.729 68.46 549.044 68.46C549.254 68.46 549.359 68.25 549.569 67.725C549.569 67.515 549.569 67.2 549.464 66.99C549.254 66.78 549.149 66.57 549.044 66.255C548.834 66.045 548.624 65.73 548.519 65.31C548.309 64.995 548.309 64.575 548.414 63.945C548.519 63.21 548.624 62.37 548.624 61.32C548.519 60.48 548.519 59.535 548.519 58.485C548.414 56.385 548.414 54.81 548.624 53.655C548.624 52.605 548.624 51.66 548.519 50.61C548.414 49.875 548.414 49.035 548.414 48.09C548.309 47.25 547.889 46.515 547.049 45.78C546.209 45.15 545.474 44.73 544.739 44.415C543.899 44.205 543.269 43.89 542.639 43.47C542.219 43.26 542.009 43.05 542.009 42.63C541.904 42.315 542.009 42 542.219 41.58C542.324 41.37 542.639 41.055 543.059 40.845C543.479 40.74 544.004 40.74 544.739 40.95C545.054 41.16 545.684 41.265 546.734 41.475C547.574 41.79 548.624 42.105 549.884 42.315C550.934 42.735 552.089 43.05 553.244 43.26C554.294 43.575 555.134 43.785 555.869 43.89C556.814 44.205 557.549 44.52 558.179 44.73C558.704 45.15 558.809 45.78 558.494 46.83C558.074 47.985 557.759 49.14 557.444 50.4C557.024 51.765 556.814 53.13 556.814 54.6C556.814 55.545 556.709 56.805 556.709 58.485C556.604 60.165 556.604 61.635 556.604 62.895ZM514.394 81.375L512.189 85.68C513.659 86.52 515.129 87.36 516.809 88.2C518.384 89.25 519.959 90.195 521.429 91.035C522.899 92.085 524.159 92.925 525.314 93.66C526.364 94.5 527.204 95.13 527.834 95.55L534.134 101.325C534.449 101.745 534.764 102.165 534.974 102.69C535.184 103.32 535.184 104.265 534.974 105.525C534.764 106.155 534.659 106.68 534.659 106.995C534.554 107.415 534.554 107.625 534.554 107.835C534.554 108.15 534.554 108.465 534.659 108.675C534.659 108.99 534.659 109.305 534.659 109.725C534.659 110.775 534.239 111.3 533.609 111.51C532.769 111.825 531.929 111.615 530.984 110.775C530.354 110.355 529.409 109.2 528.149 107.415C526.679 105.735 525.104 103.74 523.319 101.535C521.429 99.435 519.539 97.335 517.544 95.13C515.444 93.03 513.449 91.245 511.559 89.775C511.244 89.67 510.824 89.355 510.299 88.935C508.829 91.245 507.359 93.24 505.889 95.13C504.209 97.125 502.634 98.805 501.059 100.275C499.799 101.43 498.434 102.375 497.174 103.005C495.704 103.845 494.339 104.37 492.974 104.79C491.504 105.21 490.139 105.525 488.879 105.525C487.514 105.735 486.359 105.735 485.309 105.525C483.629 105.315 482.894 105 482.999 104.475C482.999 104.055 483.419 103.845 484.259 103.635C485.309 103.53 486.254 103.425 487.304 103.215C488.144 103.11 489.089 102.9 490.034 102.48C490.874 102.165 491.819 101.64 492.869 100.905C493.709 100.275 494.759 99.435 495.809 98.175C497.174 96.705 498.644 94.71 500.219 92.4C501.689 90.09 503.054 87.78 504.419 85.26C503.054 84.525 501.899 83.79 500.849 83.16C499.799 82.635 498.959 82.215 498.434 81.9C497.174 81.375 496.649 80.85 496.964 80.43C497.174 80.115 498.014 80.115 499.484 80.325C500.429 80.64 501.479 80.955 502.634 81.375C503.684 81.9 504.734 82.32 505.679 82.74C505.994 82.005 506.309 81.27 506.729 80.43C506.939 79.695 507.254 78.96 507.569 78.225C507.779 77.805 507.989 77.07 508.409 76.23C508.619 75.495 508.934 74.655 509.354 73.71C509.564 72.87 509.879 72.135 510.194 71.295C510.404 70.665 510.614 70.14 510.719 69.72C511.034 68.565 510.929 67.41 510.509 66.15C509.879 65.1 509.354 64.05 508.829 63.21C508.619 63 508.409 62.58 508.199 62.055C507.884 61.635 507.674 61.11 507.569 60.69C507.149 60.06 507.359 59.535 507.989 59.115C508.514 58.695 509.144 58.905 509.879 59.535C510.299 60.165 510.719 60.69 511.349 61.215C511.769 61.845 512.609 62.475 513.869 63.21C514.499 63.84 515.444 64.365 516.704 64.785C517.859 65.415 518.804 65.94 519.644 66.36C520.274 66.78 520.799 67.305 521.219 67.83C521.429 68.46 521.009 69.615 519.959 71.085C519.329 71.82 518.804 72.66 518.174 73.71C517.544 74.865 516.914 75.915 516.494 76.965C515.864 78.12 515.444 79.065 515.129 79.8C514.709 80.64 514.394 81.165 514.394 81.375Z" fill="#F6C500"/>
<rect x="600.75" y="57.75" width="150" height="180" fill="white"/>
<rect x="600.75" y="57.75" width="150" height="180" stroke="#F6C500" stroke-width="1.5"/>
<path d="M682.242 108.345C683.712 108.555 685.182 108.87 686.862 109.29C688.332 109.815 689.802 110.55 691.272 111.495C692.532 112.545 693.687 113.91 694.737 115.485C695.577 117.165 696.102 119.055 696.312 121.26C696.312 122.31 696.312 122.94 696.312 123.36C696.207 123.885 696.102 124.2 695.997 124.41C695.787 124.62 695.682 124.83 695.577 124.83C695.367 124.935 695.262 125.04 695.262 125.25C695.157 125.46 695.157 125.67 695.367 125.67C695.367 125.88 695.472 125.985 695.682 126.195C695.682 126.405 695.787 126.72 695.787 127.14C695.787 127.56 695.682 128.19 695.472 129.03C694.842 131.025 694.107 133.02 693.057 135.12C691.902 137.325 690.327 139.215 688.332 140.685C687.072 141.525 685.812 142.155 684.552 142.575C683.082 143.1 681.717 143.415 680.457 143.52C678.987 143.73 677.727 143.835 676.677 143.835C675.417 143.835 674.472 143.835 673.842 143.835C672.162 143.73 670.587 143.31 669.012 142.68C667.332 142.05 665.967 141.42 664.707 140.79C662.607 139.74 661.032 138.165 659.982 136.275C658.827 134.385 658.092 132.39 657.777 130.29C657.357 128.295 657.252 126.3 657.462 124.305C657.672 122.415 657.987 120.84 658.617 119.58C659.142 118.215 659.982 116.745 661.242 115.065C662.397 113.595 663.972 112.23 666.072 110.97C665.652 109.815 665.337 108.66 664.917 107.505C664.497 106.455 663.972 105.72 663.447 105.09C663.027 104.67 662.712 104.25 662.712 103.725C662.607 103.305 662.712 102.99 662.922 102.675C663.132 102.465 663.447 102.36 663.867 102.255C664.287 102.255 664.707 102.465 665.232 102.675C666.177 103.305 667.017 103.83 667.752 104.25C668.382 104.67 669.537 105.3 671.217 106.035C671.847 106.455 672.477 106.98 673.107 107.61C673.527 108.345 673.947 109.185 674.367 110.025C675.207 109.605 676.362 109.08 677.832 108.66C679.092 108.345 680.562 108.24 682.242 108.345ZM682.452 170.4C682.452 172.5 682.452 174.075 682.452 175.335C682.347 176.7 682.242 177.75 682.242 178.695C682.137 179.535 682.032 180.165 682.032 180.795C681.927 181.32 681.822 181.845 681.822 182.475C681.717 183.21 681.507 184.155 681.297 185.205C680.877 186.255 680.562 187.305 680.142 188.355C679.722 189.405 679.197 190.35 678.777 191.19C678.252 192.03 677.832 192.555 677.412 192.975C676.992 193.29 676.467 193.605 676.047 194.025C675.417 194.235 674.997 194.445 674.577 194.655C674.052 194.655 673.737 194.655 673.527 194.445C673.317 194.235 673.317 193.71 673.632 192.975C673.842 192.135 674.052 190.98 674.262 189.3C674.262 187.515 674.367 185.625 674.367 183.735C674.367 181.635 674.367 179.64 674.367 177.75C674.262 175.86 674.262 174.18 674.262 172.815C674.157 170.4 674.157 168.195 674.157 166.095C674.052 164.1 674.052 163.05 674.262 162.84C674.472 162.525 674.682 162.315 674.997 162.315C675.207 162.315 675.417 162.105 675.627 161.685C675.627 161.475 675.627 161.16 675.522 160.95C675.312 160.74 675.207 160.53 675.102 160.215C674.892 160.005 674.682 159.585 674.577 159.165C674.367 158.85 674.367 158.43 674.472 157.8V156.96C673.422 157.17 672.372 157.275 671.427 157.275C670.377 157.485 669.537 157.59 668.802 157.59C667.122 157.8 665.337 158.115 663.237 158.43C661.137 158.85 659.142 159.165 657.252 159.48C655.257 159.9 653.472 160.32 652.002 160.635C650.322 161.055 649.272 161.475 648.747 161.685C647.487 162.315 646.542 162.63 645.912 162.63C645.072 162.84 644.022 162.63 642.657 162C642.027 161.79 641.292 161.475 640.452 161.16C639.507 160.95 638.562 160.635 637.722 160.32C636.777 160.11 635.937 159.9 635.202 159.585C634.362 159.375 633.627 159.165 633.207 158.85C632.577 158.64 632.262 158.325 632.157 157.905C631.947 157.59 631.842 157.275 631.947 156.855C631.947 156.645 632.052 156.33 632.472 156.12C632.682 155.91 633.102 155.91 633.732 156.015C634.887 156.225 635.727 156.33 636.357 156.225C636.882 156.225 637.722 156.12 638.982 155.7C640.137 155.385 641.082 155.175 641.922 154.965C642.552 154.965 643.497 154.86 644.757 154.65C645.282 154.545 646.017 154.44 646.962 154.23C647.802 154.23 648.747 154.125 649.797 153.915C650.637 153.915 651.582 153.81 652.527 153.6C653.367 153.6 654.102 153.495 654.732 153.495C655.572 153.495 657.147 153.285 659.562 153.075C661.872 152.97 664.497 152.76 667.227 152.55C669.852 152.34 672.372 152.13 674.892 151.92C677.307 151.815 679.092 151.71 680.142 151.71C681.087 151.71 682.242 151.605 683.712 151.5C684.972 151.5 686.337 151.5 687.702 151.395C688.962 151.395 690.117 151.395 691.272 151.29C692.322 151.29 693.057 151.29 693.582 151.185C694.527 151.08 695.472 150.765 696.522 150.345C697.467 149.925 698.517 149.715 699.777 149.715C700.932 149.715 702.192 149.82 703.452 150.03C704.712 150.345 705.867 150.45 707.127 150.345C708.282 150.345 709.437 150.03 710.487 149.505C711.432 149.085 712.482 149.085 713.637 149.295C714.162 149.505 714.792 149.61 715.632 149.61C716.262 149.82 716.997 149.925 717.627 150.135C718.257 150.345 718.677 150.66 719.097 150.87C719.412 151.29 719.517 151.71 719.307 152.13C718.887 153.18 718.572 153.81 718.362 153.915C718.047 154.125 717.627 154.335 717.207 154.65C716.997 154.86 716.892 155.07 716.997 155.49C716.997 156.015 716.892 156.54 716.892 156.96C716.682 157.485 716.472 157.905 716.157 158.115C715.737 158.535 715.107 158.535 714.162 158.325C711.852 157.905 709.752 157.59 707.652 157.275C705.552 157.065 703.662 156.855 701.982 156.645C700.197 156.54 698.727 156.435 697.572 156.225C696.312 156.12 695.472 155.91 695.052 155.7C694.527 155.49 694.212 155.385 694.002 155.28C693.687 155.28 693.477 155.175 693.267 155.07C693.057 155.07 692.742 155.07 692.532 155.07C692.217 155.07 691.797 155.07 691.272 155.07C690.642 155.07 689.592 155.175 688.122 155.28C686.547 155.49 684.762 155.7 682.767 155.91C682.662 158.535 682.557 161.055 682.557 163.365C682.452 165.78 682.452 168.09 682.452 170.4ZM672.687 116.745C671.742 117.585 671.007 118.005 670.377 118.215C669.642 118.425 669.012 118.425 668.487 118.215C667.857 118.215 667.332 118.425 666.912 118.74C666.387 119.16 665.967 119.58 665.757 120.105C665.337 120.735 665.127 121.26 664.917 121.89C664.707 122.625 664.497 123.255 664.497 123.78C664.287 125.04 664.287 126.3 664.392 127.56C664.392 128.925 664.707 130.185 665.337 131.235C665.757 132.39 666.597 133.44 667.647 134.28C668.697 135.225 670.062 135.855 671.952 136.275C674.052 136.905 676.152 137.01 678.147 136.59C680.037 136.38 681.822 135.855 683.502 135.12C685.497 133.44 686.862 131.445 687.597 129.345C688.227 127.35 688.542 125.145 688.752 122.625C688.962 120.105 688.332 117.9 686.967 116.01C685.497 114.12 683.502 112.965 681.087 112.335C680.142 112.23 679.092 112.23 677.937 112.23C676.677 112.335 675.522 112.335 674.682 112.335C674.682 114.225 673.947 115.695 672.687 116.745Z" fill="#F6C500"/>
<rect x="750.75" y="120.75" width="150" height="180" fill="white"/>
<rect x="750.75" y="120.75" width="150" height="180" stroke="#F6C500" stroke-width="1.5"/>
<path d="M811.806 190.875C813.171 191.085 814.641 191.295 816.216 191.715C817.686 192.24 819.051 192.975 820.416 193.92C821.676 194.97 822.831 196.125 823.776 197.595C824.616 199.17 825.036 201.06 825.246 203.16C825.246 204.21 825.246 204.84 825.246 205.26C825.141 205.68 825.036 205.995 825.036 206.205C824.826 206.415 824.721 206.625 824.616 206.625C824.406 206.73 824.196 206.835 824.196 207.045C824.091 207.255 824.091 207.465 824.196 207.465C824.196 207.675 824.301 207.78 824.511 207.99C824.511 208.2 824.616 208.515 824.721 208.83C824.721 209.25 824.721 209.88 824.511 210.51C823.881 212.505 823.146 214.605 822.201 216.705C821.151 219.015 819.576 220.8 817.581 222.165C816.531 223.005 815.271 223.635 814.011 223.95C812.646 224.37 811.386 224.685 810.126 224.79C808.761 225 807.606 225 806.556 225C805.401 225 804.561 225 803.931 225C802.251 224.79 800.676 224.37 799.206 223.74C797.526 223.215 796.161 222.69 795.006 222.06C792.906 221.01 791.436 219.54 790.386 217.65C789.336 215.865 788.601 213.975 788.286 211.98C787.866 210.09 787.866 208.095 788.076 206.205C788.286 204.42 788.601 202.95 789.231 201.69C789.756 200.325 790.596 198.855 791.856 197.28C792.906 195.81 794.481 194.55 796.371 193.29C795.951 192.24 795.636 191.085 795.216 190.035C794.796 189.09 794.376 188.355 793.956 187.83C793.536 187.41 793.221 186.99 793.221 186.57C793.116 186.15 793.221 185.835 793.431 185.52C793.641 185.31 793.956 185.1 794.376 184.995C794.691 184.995 795.111 185.205 795.636 185.52C796.056 185.835 796.476 186.045 796.896 186.255C797.211 186.57 797.631 186.78 798.051 186.99C798.471 187.2 798.891 187.41 799.521 187.62C799.941 187.935 800.571 188.25 801.411 188.565C802.041 188.985 802.566 189.51 803.091 190.14C803.511 190.875 803.931 191.61 804.246 192.45C805.086 192.135 806.136 191.715 807.501 191.295C808.761 190.98 810.126 190.875 811.806 190.875ZM850.341 182.895C850.341 183.525 850.236 184.26 850.236 185.1C850.131 186.15 850.131 187.095 850.131 188.145C850.026 189.195 850.026 190.245 850.026 191.19C849.921 192.24 849.921 193.08 849.921 193.71L852.756 193.395C853.596 193.29 854.226 193.185 854.856 192.975C855.276 192.975 855.696 192.87 856.116 192.66C856.431 192.66 856.746 192.555 857.166 192.345C857.376 192.345 857.796 192.135 858.216 191.925C859.161 191.61 860.001 191.295 860.841 191.085C861.471 190.875 862.311 190.98 863.256 191.295C864.096 191.715 864.936 191.715 865.986 191.505C866.826 191.4 867.561 191.4 868.086 191.4C868.821 191.505 869.556 191.82 870.291 192.345C870.921 192.975 871.341 193.71 871.446 194.55C871.446 195.18 871.551 195.915 871.551 196.65C871.551 197.49 870.921 198.015 869.766 198.225C868.611 198.435 867.141 198.435 865.461 198.225C863.676 198.015 862.206 197.805 860.946 197.49C860.421 197.49 859.686 197.385 858.741 197.28C857.691 197.28 856.746 197.28 855.696 197.28C854.646 197.28 853.596 197.28 852.651 197.28C851.601 197.385 850.866 197.385 850.446 197.385H849.921C849.921 198.645 849.921 199.905 850.026 201.165C850.026 202.53 850.131 204.21 850.131 206.1C850.131 207.36 850.131 208.725 850.236 210.195C850.236 211.77 850.236 213.24 850.236 214.71L852.756 214.395C853.596 214.29 854.226 214.185 854.856 213.975C855.276 213.975 855.696 213.87 856.116 213.66C856.431 213.66 856.746 213.555 857.166 213.345C857.376 213.345 857.796 213.135 858.216 212.925C859.161 212.61 860.001 212.295 860.841 212.085C861.471 211.875 862.311 211.98 863.256 212.295C864.096 212.715 864.936 212.715 865.986 212.505C866.826 212.4 867.561 212.4 868.086 212.4C868.821 212.505 869.556 212.82 870.291 213.345C870.921 213.975 871.341 214.71 871.446 215.55C871.446 216.18 871.551 216.915 871.551 217.65C871.551 218.49 870.921 219.015 869.766 219.225C868.611 219.435 867.141 219.435 865.461 219.225C863.676 219.015 862.206 218.805 860.946 218.49C860.421 218.49 859.686 218.385 858.741 218.28C857.691 218.28 856.746 218.28 855.696 218.28C854.646 218.28 853.596 218.28 852.651 218.28C851.601 218.385 850.866 218.385 850.446 218.385H850.131V220.485C849.921 224.265 849.921 227.31 849.921 229.83C849.816 232.455 849.816 234.24 849.816 235.185C849.816 236.865 849.606 238.65 849.396 240.645C848.976 242.64 848.661 244.635 848.241 246.525C847.716 248.415 847.191 250.095 846.771 251.67C846.141 253.14 845.721 254.295 845.301 254.925C844.881 255.555 844.356 256.29 843.936 257.025C843.306 257.655 842.886 258.075 842.466 258.39C841.941 258.6 841.626 258.495 841.416 258.075C841.206 257.55 841.206 256.5 841.521 254.925C841.731 253.35 841.941 250.935 842.151 247.68C842.151 244.32 842.256 240.75 842.361 236.865C842.361 233.085 842.361 229.305 842.361 225.525C842.256 221.85 842.256 218.805 842.256 216.495C842.361 214.71 842.361 212.82 842.256 210.93C842.046 209.04 842.046 206.835 842.046 204.105C841.941 202.425 841.941 200.64 841.941 198.75C841.836 196.965 841.836 195.285 841.836 193.815C841.836 192.45 841.836 191.295 841.836 190.35C841.836 189.51 841.836 188.985 841.941 188.88C842.151 188.67 842.466 188.46 842.781 188.46C842.991 188.46 843.096 188.25 843.306 187.725C843.306 187.515 843.306 187.2 843.201 186.99C842.991 186.78 842.886 186.57 842.781 186.255C842.571 186.045 842.361 185.73 842.256 185.31C842.046 184.995 842.046 184.575 842.151 183.945C842.256 183.21 842.361 182.37 842.361 181.32C842.256 180.48 842.256 179.535 842.256 178.485C842.151 176.385 842.151 174.81 842.361 173.655C842.361 172.605 842.361 171.66 842.256 170.61C842.151 169.875 842.151 169.035 842.151 168.09C842.046 167.25 841.626 166.515 840.786 165.78C839.946 165.15 839.211 164.73 838.476 164.415C837.636 164.205 837.006 163.89 836.376 163.47C835.956 163.26 835.746 163.05 835.746 162.63C835.641 162.315 835.746 162 835.956 161.58C836.061 161.37 836.376 161.055 836.796 160.845C837.216 160.74 837.741 160.74 838.476 160.95C838.791 161.16 839.421 161.265 840.471 161.475C841.311 161.79 842.361 162.105 843.621 162.315C844.671 162.735 845.826 163.05 846.981 163.26C848.031 163.575 848.871 163.785 849.606 163.89C850.551 164.205 851.286 164.52 851.916 164.73C852.441 165.15 852.546 165.78 852.231 166.83C851.811 167.985 851.496 169.14 851.181 170.4C850.761 171.765 850.551 173.13 850.551 174.6C850.551 175.545 850.446 176.805 850.446 178.485C850.341 180.165 850.341 181.635 850.341 182.895ZM802.776 198.855C801.831 199.695 801.096 200.115 800.466 200.22C799.731 200.43 799.101 200.43 798.681 200.22C797.631 200.325 796.791 200.955 796.266 202.11C795.636 203.37 795.216 204.42 795.111 205.47C794.901 206.73 794.901 207.885 795.006 209.04C795.006 210.3 795.321 211.35 795.846 212.4C796.266 213.45 796.896 214.395 797.946 215.235C798.891 216.075 800.256 216.705 801.936 217.125C804.036 217.755 805.926 217.86 807.816 217.65C809.496 217.44 811.176 217.02 812.751 216.39C814.746 214.815 816.006 213.03 816.636 210.93C817.161 209.04 817.476 206.835 817.686 204.525C817.791 202.11 817.161 200.01 815.901 198.12C814.536 196.335 812.751 195.18 810.441 194.76C809.601 194.655 808.656 194.655 807.606 194.655C806.451 194.76 805.506 194.76 804.666 194.76C804.666 196.44 804.036 197.805 802.776 198.855Z" fill="#F6C500"/>
</svg>
