<svg width="152" height="182" viewBox="0 0 152 182" fill="none" xmlns="http://www.w3.org/2000/svg">
<rect x="0.75" y="0.75" width="150" height="180" fill="white"/>
<rect x="0.75" y="0.75" width="150" height="180" stroke="#F6C500" stroke-width="1.5"/>
<path d="M121.617 90.3C121.617 90.93 121.722 91.665 121.722 92.4C121.722 93.24 121.092 93.765 120.042 93.975C118.992 94.185 117.627 94.185 115.947 93.975C114.267 93.765 112.797 93.555 111.642 93.24C111.222 93.24 110.592 93.135 109.857 93.03C109.017 93.03 108.072 93.03 107.232 93.03C106.287 93.03 105.447 93.03 104.607 93.03C103.662 93.135 102.927 93.135 102.297 93.135C102.297 94.605 102.297 95.865 102.297 97.125C102.192 98.385 102.192 99.54 102.192 100.485C101.982 104.265 101.982 107.31 101.982 109.83C101.877 112.455 101.877 114.24 101.877 115.185C101.877 116.865 101.667 118.65 101.457 120.645C101.037 122.64 100.722 124.635 100.302 126.525C99.7765 128.415 99.2515 130.095 98.8315 131.67C98.2015 133.14 97.7815 134.295 97.3615 134.925C96.9415 135.555 96.4165 136.29 95.9965 137.025C95.3665 137.655 94.9465 138.075 94.5265 138.39C94.0015 138.6 93.6865 138.495 93.4765 138.075C93.2665 137.55 93.2665 136.5 93.5815 134.925C93.7915 133.665 93.8965 131.88 94.1065 129.57C94.1065 127.155 94.2115 124.53 94.3165 121.695C94.3165 118.755 94.4215 115.815 94.4215 112.665C94.3165 109.62 94.3165 106.68 94.3165 103.95C93.4765 104.475 92.4265 105 91.2715 105.42C90.0115 106.05 88.7515 106.47 87.5965 106.89C86.3365 107.415 85.1815 107.835 84.2365 108.045C83.1865 108.465 82.4515 108.675 82.0315 108.675C81.0865 108.885 79.7215 109.2 77.9365 109.515C76.0465 109.935 74.0515 110.355 71.8465 110.775C69.5365 111.3 67.1215 111.825 64.7065 112.245C62.1865 112.77 59.7715 113.19 57.6715 113.61C55.4665 114.135 53.5765 114.555 52.1065 114.765C50.4265 115.185 49.3765 115.395 48.9565 115.5C48.1165 115.71 47.1715 115.815 46.2265 115.815C45.1765 116.025 44.2315 116.025 43.2865 116.025C42.2365 116.025 41.1865 115.92 40.3465 115.71C39.4015 115.605 38.5615 115.395 37.9315 114.975C36.4615 114.24 35.4115 113.505 34.5715 112.875C33.7315 112.35 32.8915 111.825 32.1565 111.3C31.7365 111.09 31.4215 110.775 31.3165 110.355C31.1065 110.04 31.0015 109.725 31.2115 109.305C31.2115 109.095 31.5265 108.78 31.9465 108.57C32.3665 108.36 32.8915 108.36 33.7315 108.57C34.9915 108.99 36.4615 109.095 38.1415 108.99C39.6115 108.99 41.2915 108.885 43.1815 108.675C43.7065 108.675 44.6515 108.675 46.0165 108.465C47.2765 108.36 48.7465 108.15 50.5315 107.94C52.0015 107.52 53.2615 107.1 54.3115 106.68C55.2565 106.26 56.0965 105.84 56.8315 105.315C57.4615 104.895 58.0915 104.37 58.7215 103.74C59.2465 103.32 59.8765 102.69 60.5065 101.85C60.9265 101.43 61.3465 100.8 61.9765 100.065C62.5015 99.435 63.0265 98.7 63.5515 97.86C63.9715 97.23 64.4965 96.495 64.9165 95.865C65.2315 95.34 65.5465 94.92 65.7565 94.5C65.8615 94.185 65.9665 93.765 66.0715 93.24C66.0715 92.82 65.6515 92.295 64.7065 91.77C62.8165 91.14 61.3465 90.405 60.2965 89.355C59.1415 88.515 58.1965 87.57 57.3565 86.625C56.8315 86.205 56.4115 85.47 55.9915 84.63C55.4665 83.79 55.1515 82.95 55.1515 81.9C55.0465 80.955 55.2565 79.905 55.8865 78.75C56.3065 77.7 57.3565 76.65 58.9315 75.6C60.4015 74.655 62.3965 73.605 65.0215 72.345C67.5415 71.19 70.0615 70.035 72.7915 68.775C72.7915 66.255 72.8965 63.735 73.1065 61.425C73.1065 59.64 72.6865 58.38 71.8465 57.54C70.9015 56.91 69.9565 56.28 68.9065 55.65C68.4865 55.44 68.1715 55.125 68.1715 54.495C67.9615 53.97 68.5915 53.655 69.9565 53.55C70.5865 53.55 71.5315 53.55 72.5815 53.55C73.5265 53.76 74.4715 53.865 75.5215 53.97C76.4665 54.18 77.4115 54.39 78.2515 54.6C78.9865 54.81 79.5115 55.02 79.7215 55.125C80.2465 55.44 80.8765 55.965 81.5065 56.595C82.0315 57.33 82.1365 58.38 81.8215 59.85C81.6115 60.27 81.5065 60.585 81.5065 61.005C81.2965 61.425 81.1915 61.95 81.0865 62.475C80.9815 63 80.9815 63.42 80.9815 63.84C80.8765 64.365 80.8765 64.89 80.8765 65.31C81.7165 64.89 82.5565 64.575 83.2915 64.155C83.9215 63.945 84.3415 63.735 84.6565 63.525C85.6015 63 86.2315 62.895 86.6515 63.315C86.9665 63.735 86.6515 64.365 85.7065 65.1C85.0765 65.52 84.3415 66.045 83.5015 66.465C82.5565 67.095 81.6115 67.62 80.6665 68.145C80.4565 70.035 80.3515 71.925 80.3515 73.605C80.2465 75.39 80.2465 77.28 80.4565 79.275C80.4565 80.745 80.4565 82.425 80.2465 84.105C80.0365 85.995 79.7215 87.675 79.5115 89.25C79.4065 90.3 79.0915 90.93 78.5665 91.35C77.9365 91.875 77.2015 92.19 76.4665 92.295C75.6265 92.715 74.9965 93.03 74.4715 93.345C73.8415 93.765 73.3165 94.185 73.1065 94.5C71.6365 95.97 70.3765 97.545 69.1165 99.12C67.7515 100.8 66.4915 102.375 65.2315 103.95C64.8115 104.58 64.7065 105 65.0215 105.42C65.2315 105.84 66.2815 106.05 68.1715 105.84L79.9315 104.475C80.7715 104.475 81.8215 104.37 83.0815 104.055C84.3415 103.845 85.6015 103.425 87.0715 103.005C88.3315 102.585 89.6965 102.165 91.0615 101.64C92.3215 101.22 93.3715 100.8 94.3165 100.38V96.495C94.4215 94.71 94.4215 92.82 94.3165 90.93C94.1065 89.04 94.1065 86.835 94.1065 84.105C94.0015 82.425 94.0015 80.64 94.0015 78.75C93.8965 76.965 93.8965 75.285 93.8965 73.815C93.8965 72.45 93.8965 71.295 93.8965 70.35C93.8965 69.51 93.8965 68.985 94.0015 68.88C94.2115 68.67 94.5265 68.46 94.8415 68.46C95.0515 68.46 95.1565 68.25 95.3665 67.725C95.3665 67.515 95.3665 67.2 95.2615 66.99C95.0515 66.78 94.9465 66.57 94.8415 66.255C94.6315 66.045 94.4215 65.73 94.3165 65.31C94.1065 64.995 94.1065 64.575 94.2115 63.945C94.3165 63.21 94.4215 62.37 94.4215 61.32C94.3165 60.48 94.3165 59.535 94.3165 58.485C94.2115 56.385 94.2115 54.81 94.4215 53.655C94.4215 52.605 94.4215 51.66 94.3165 50.61C94.2115 49.875 94.2115 49.035 94.2115 48.09C94.1065 47.25 93.6865 46.515 92.8465 45.78C92.0065 45.15 91.2715 44.73 90.5365 44.415C89.6965 44.205 89.0665 43.89 88.4365 43.47C88.0165 43.26 87.8065 43.05 87.8065 42.63C87.7015 42.315 87.8065 42 88.0165 41.58C88.1215 41.37 88.4365 41.055 88.8565 40.845C89.2765 40.74 89.8015 40.74 90.5365 40.95C90.8515 41.16 91.4815 41.265 92.5315 41.475C93.3715 41.79 94.4215 42.105 95.6815 42.315C96.7315 42.735 97.8865 43.05 99.0415 43.26C100.092 43.575 100.932 43.785 101.667 43.89C102.612 44.205 103.347 44.52 103.977 44.73C104.502 45.15 104.607 45.78 104.292 46.83C103.872 47.985 103.557 49.14 103.242 50.4C102.822 51.765 102.612 53.13 102.612 54.6C102.612 55.545 102.507 56.805 102.507 58.485C102.402 60.165 102.402 61.635 102.402 62.895C102.402 63.525 102.297 64.26 102.297 65.205C102.192 66.255 102.192 67.41 102.192 68.46C102.087 69.615 102.087 70.665 102.087 71.61C101.982 72.66 101.982 73.5 101.982 74.025C101.982 75.18 101.982 76.125 102.087 76.965C102.087 77.91 102.087 78.75 102.087 79.59C102.087 80.535 102.087 81.48 102.192 82.425C102.192 83.475 102.192 84.735 102.192 86.1V89.355C102.507 89.355 102.822 89.355 103.137 89.25C103.347 89.25 103.557 89.25 103.872 89.145C105.447 88.935 106.497 88.62 107.022 88.41C107.442 88.305 108.177 88.095 109.017 87.675C109.857 87.36 110.697 87.045 111.537 86.835C112.167 86.625 113.007 86.73 113.847 87.045C114.582 87.465 115.422 87.465 116.367 87.255C117.207 87.15 117.942 87.15 118.467 87.15C119.202 87.255 119.937 87.57 120.567 88.095C121.197 88.725 121.512 89.46 121.617 90.3ZM42.1315 63C42.6565 63.315 43.4965 63.735 44.7565 64.365C45.8065 64.995 46.9615 65.835 48.2215 66.78C49.3765 67.83 50.4265 68.985 51.4765 70.245C52.3165 71.715 52.9465 73.29 53.1565 75.075C53.2615 76.335 53.2615 77.595 53.2615 79.065C53.0515 80.64 52.9465 82.11 52.7365 83.58C52.4215 85.155 52.1065 86.52 51.7915 87.675C51.3715 88.935 51.0565 89.88 50.7415 90.3C50.5315 90.72 50.2165 91.035 49.7965 91.35C49.2715 91.77 48.8515 91.98 48.4315 91.98C47.9065 92.085 47.4865 91.98 47.1715 91.56C46.7515 91.35 46.4365 90.72 46.3315 89.775C46.1215 88.41 45.8065 86.625 45.4915 84.315C45.0715 82.215 44.6515 79.905 44.2315 77.385C43.7065 75.075 43.1815 72.765 42.6565 70.455C42.0265 68.355 41.2915 66.57 40.5565 65.1C40.1365 64.26 39.9265 63.735 39.9265 63.315C39.9265 63 40.0315 62.79 40.2415 62.685C40.4515 62.685 40.7665 62.685 41.1865 62.685C41.5015 62.895 41.8165 63 42.1315 63ZM64.7065 78.225C63.6565 79.065 63.0265 79.905 62.9215 80.85C62.7115 81.9 63.3415 82.95 64.7065 84C65.3365 84.42 66.2815 84.84 67.7515 85.26C69.0115 85.68 70.4815 85.995 71.9515 86.1C72.0565 84.63 72.1615 82.95 72.3715 81.27C72.4765 79.59 72.5815 78.12 72.6865 76.65V72.765C71.9515 73.29 71.2165 73.815 70.3765 74.34C69.5365 74.97 68.6965 75.495 67.9615 75.915C67.1215 76.545 66.3865 76.965 65.8615 77.385C65.2315 77.805 64.9165 78.12 64.7065 78.225Z" fill="#F6C500"/>
</svg>
