<svg width="152" height="182" viewBox="0 0 152 182" fill="none" xmlns="http://www.w3.org/2000/svg">
<rect x="0.75" y="0.75" width="150" height="180" fill="white"/>
<rect x="0.75" y="0.75" width="150" height="180" stroke="#F6C500" stroke-width="1.5"/>
<path d="M121.446 90.3C121.446 90.93 121.551 91.665 121.551 92.4C121.551 93.24 120.921 93.765 119.766 93.975C118.611 94.185 117.141 94.185 115.461 93.975C113.676 93.765 112.206 93.555 110.946 93.24C110.421 93.24 109.686 93.135 108.741 93.03C107.691 93.03 106.746 93.03 105.696 93.03C104.646 93.03 103.596 93.03 102.651 93.03C101.601 93.135 100.866 93.135 100.446 93.135H100.236C100.236 94.605 100.236 95.865 100.236 97.125C100.131 98.385 100.131 99.54 100.131 100.485C99.9205 104.265 99.9205 107.31 99.9205 109.83C99.8155 112.455 99.8155 114.24 99.8155 115.185C99.8155 116.865 99.6055 118.65 99.3955 120.645C98.9755 122.64 98.6605 124.635 98.2405 126.525C97.7155 128.415 97.1905 130.095 96.7705 131.67C96.1405 133.14 95.7205 134.295 95.3005 134.925C94.8805 135.555 94.3555 136.29 93.9355 137.025C93.3055 137.655 92.8855 138.075 92.4655 138.39C91.9405 138.6 91.6255 138.495 91.4155 138.075C91.2055 137.55 91.2055 136.5 91.5205 134.925C91.7305 133.35 91.9405 130.935 92.1505 127.68C92.1505 124.32 92.2555 120.75 92.3605 116.865C92.3605 113.085 92.3605 109.305 92.3605 105.525C92.2555 101.85 92.2555 98.805 92.2555 96.495C92.3605 94.71 92.3605 92.82 92.2555 90.93C92.0455 89.04 92.0455 86.835 92.0455 84.105C91.9405 82.425 91.9405 80.64 91.9405 78.75C91.8355 76.965 91.8355 75.285 91.8355 73.815C91.8355 72.45 91.8355 71.295 91.8355 70.35C91.8355 69.51 91.8355 68.985 91.9405 68.88C92.1505 68.67 92.4655 68.46 92.7805 68.46C92.9905 68.46 93.0955 68.25 93.3055 67.725C93.3055 67.515 93.3055 67.2 93.2005 66.99C92.9905 66.78 92.8855 66.57 92.7805 66.255C92.5705 66.045 92.3605 65.73 92.2555 65.31C92.0455 64.995 92.0455 64.575 92.1505 63.945C92.2555 63.21 92.3605 62.37 92.3605 61.32C92.2555 60.48 92.2555 59.535 92.2555 58.485C92.1505 56.385 92.1505 54.81 92.3605 53.655C92.3605 52.605 92.3605 51.66 92.2555 50.61C92.1505 49.875 92.1505 49.035 92.1505 48.09C92.0455 47.25 91.6255 46.515 90.7855 45.78C89.9455 45.15 89.2105 44.73 88.4755 44.415C87.6355 44.205 87.0055 43.89 86.3755 43.47C85.9555 43.26 85.7455 43.05 85.7455 42.63C85.6405 42.315 85.7455 42 85.9555 41.58C86.0605 41.37 86.3755 41.055 86.7955 40.845C87.2155 40.74 87.7405 40.74 88.4755 40.95C88.7905 41.16 89.4205 41.265 90.4705 41.475C91.3105 41.79 92.3605 42.105 93.6205 42.315C94.6705 42.735 95.8255 43.05 96.9805 43.26C98.0305 43.575 98.8705 43.785 99.6055 43.89C100.551 44.205 101.286 44.52 101.916 44.73C102.441 45.15 102.546 45.78 102.231 46.83C101.811 47.985 101.496 49.14 101.181 50.4C100.761 51.765 100.551 53.13 100.551 54.6C100.551 55.545 100.446 56.805 100.446 58.485C100.341 60.165 100.341 61.635 100.341 62.895C100.341 63.525 100.236 64.26 100.236 65.205C100.131 66.255 100.131 67.41 100.131 68.46C100.026 69.615 100.026 70.665 100.026 71.61C99.9205 72.66 99.9205 73.5 99.9205 74.025C99.9205 75.18 99.9205 76.125 100.026 76.965C100.026 77.91 100.026 78.75 100.026 79.59C100.026 80.535 100.026 81.48 100.131 82.425C100.131 83.475 100.131 84.735 100.131 86.1V89.46L102.756 89.145C103.596 89.04 104.226 88.935 104.856 88.725C105.276 88.725 105.696 88.62 106.116 88.41C106.431 88.41 106.746 88.305 107.166 88.095C107.376 88.095 107.796 87.885 108.216 87.675C109.161 87.36 110.001 87.045 110.841 86.835C111.471 86.625 112.311 86.73 113.256 87.045C114.096 87.465 114.936 87.465 115.986 87.255C116.826 87.15 117.561 87.15 118.086 87.15C118.821 87.255 119.556 87.57 120.291 88.095C120.921 88.725 121.341 89.46 121.446 90.3ZM67.7905 105C66.9505 105.21 65.9005 105.21 64.6405 105.105C63.3805 105.105 62.0155 105.105 60.6505 104.895C59.1805 104.79 57.8155 104.58 56.5555 104.265C55.1905 104.055 54.0355 103.845 53.1955 103.635L53.4055 104.79C53.4055 105.63 53.3005 106.26 53.1955 106.89C52.9855 107.52 52.4605 108.045 51.7255 108.36C50.8855 108.78 50.1505 108.78 49.4155 108.57C48.5755 108.465 47.8405 107.835 47.1055 106.785C46.4755 106.05 45.7405 104.58 44.9005 102.27C43.9555 100.17 43.0105 97.755 42.0655 95.235C41.0155 92.715 40.0705 90.3 39.2305 87.885C38.2855 85.575 37.6555 83.895 37.2355 82.845C36.7105 81.795 36.2905 80.85 36.0805 80.01C35.6605 79.17 35.4505 78.33 35.2405 77.49C35.0305 76.755 34.8205 75.915 34.7155 75.075C34.5055 74.235 34.2955 73.29 34.2955 72.24C34.0855 71.19 34.0855 70.455 34.2955 70.035C34.2955 69.72 34.5055 69.615 34.8205 69.615C35.0305 69.72 35.3455 69.93 35.6605 70.14C35.8705 70.455 36.1855 70.665 36.3955 70.875C36.9205 71.4 37.6555 72.03 38.6005 72.765C39.4405 73.605 40.2805 74.025 40.9105 74.025C41.2255 74.025 41.7505 74.13 42.3805 74.235C43.0105 74.445 43.6405 74.655 44.2705 74.865C44.9005 75.285 45.4255 75.705 46.0555 76.125C46.5805 76.755 46.8955 77.385 47.1055 78.225C47.3155 79.065 47.5255 80.115 47.7355 81.27C47.9455 82.53 48.1555 83.685 48.3655 84.735C48.5755 85.995 48.7855 87.045 48.9955 87.885C49.1005 88.935 49.2055 89.565 49.4155 89.775C49.4155 90.09 49.6255 90.615 49.8355 91.245C50.0455 91.98 50.2555 92.715 50.4655 93.555C50.6755 94.395 50.8855 95.235 51.0955 96.075C51.2005 97.02 51.3055 97.755 51.5155 98.385C51.5155 98.49 51.6205 98.49 51.7255 98.49C52.5655 99.33 53.8255 99.645 55.5055 99.54C56.9755 99.54 58.4455 99.435 59.7055 99.225C62.2255 98.91 63.9055 98.28 64.7455 97.335C65.4805 96.495 66.0055 95.025 66.3205 92.925C66.3205 91.98 66.4255 90.615 66.5305 88.725C66.5305 87.045 66.5305 85.26 66.5305 83.37C66.5305 81.585 66.5305 79.905 66.5305 78.435C66.4255 76.965 66.4255 76.02 66.4255 75.6C66.4255 74.865 66.1105 74.235 65.5855 73.815C64.9555 73.395 63.9055 73.29 62.3305 73.5C61.4905 73.71 60.5455 73.815 59.3905 73.92C58.1305 74.13 56.9755 74.235 55.8205 74.34C54.5605 74.55 53.5105 74.655 52.5655 74.655C51.5155 74.865 50.7805 74.865 50.3605 74.865C49.9405 74.865 49.4155 74.865 48.9955 74.655C48.3655 74.655 47.9455 74.445 47.7355 74.235C47.4205 74.13 47.3155 73.92 47.4205 73.605C47.4205 73.395 47.8405 72.975 48.6805 72.555C49.4155 72.24 50.3605 71.82 51.4105 71.4C52.4605 71.085 53.5105 70.77 54.6655 70.35C55.7155 70.035 56.6605 69.615 57.6055 69.195C58.4455 68.775 59.1805 68.355 59.8105 67.83C60.7555 66.885 61.7005 65.94 62.6455 64.89C63.4855 64.05 64.5355 63.525 66.0055 63.525C66.6355 63.525 67.2655 63.63 67.8955 63.63C68.4205 63.84 69.0505 63.945 69.6805 64.05C70.3105 64.26 70.9405 64.47 71.7805 64.575C72.5155 64.785 73.3555 64.89 74.4055 64.89C75.2455 64.995 76.0855 65.205 76.9255 65.52C77.5555 65.94 78.0805 66.36 78.5005 66.885C78.7105 67.515 78.8155 68.25 78.7105 68.88C78.5005 69.615 77.8705 70.35 77.0305 71.085C76.0855 71.925 75.3505 72.555 74.9305 72.975C74.3005 73.5 73.9855 74.025 73.7755 74.445C73.5655 75.075 73.4605 75.705 73.4605 76.335C73.4605 77.07 73.4605 78.015 73.6705 79.275C73.6705 80.535 73.7755 81.9 73.8805 83.58C73.8805 85.365 73.8805 87.045 73.8805 88.725C73.8805 90.405 73.8805 91.98 73.8805 93.24C73.8805 94.71 73.8805 95.655 73.8805 96.075C73.8805 97.23 73.6705 98.07 73.2505 98.595C72.7255 99.225 72.0955 99.855 71.2555 100.59C70.4155 101.43 69.8905 102.27 69.5755 103.215C69.1555 104.265 68.6305 104.895 67.7905 105Z" fill="#F6C500"/>
</svg>
