<svg width="152" height="182" viewBox="0 0 152 182" fill="none" xmlns="http://www.w3.org/2000/svg">
<rect x="0.75" y="0.75" width="150" height="180" fill="white"/>
<rect x="0.75" y="0.75" width="150" height="180" stroke="#F6C500" stroke-width="1.5"/>
<path d="M121.446 90.3C121.446 90.93 121.551 91.665 121.551 92.4C121.551 93.24 120.921 93.765 119.766 93.975C118.611 94.185 117.141 94.185 115.461 93.975C113.676 93.765 112.206 93.555 110.946 93.24C110.421 93.24 109.686 93.135 108.741 93.03C107.691 93.03 106.746 93.03 105.696 93.03C104.646 93.03 103.596 93.03 102.651 93.03C101.601 93.135 100.866 93.135 100.446 93.135H100.236C100.236 94.605 100.236 95.865 100.236 97.125C100.131 98.385 100.131 99.54 100.131 100.485C99.9205 104.265 99.9205 107.31 99.9205 109.83C99.8155 112.455 99.8155 114.24 99.8155 115.185C99.8155 116.865 99.6055 118.65 99.3955 120.645C98.9755 122.64 98.6605 124.635 98.2405 126.525C97.7155 128.415 97.1905 130.095 96.7705 131.67C96.1405 133.14 95.7205 134.295 95.3005 134.925C94.8805 135.555 94.3555 136.29 93.9355 137.025C93.3055 137.655 92.8855 138.075 92.4655 138.39C91.9405 138.6 91.6255 138.495 91.4155 138.075C91.2055 137.55 91.2055 136.5 91.5205 134.925C91.7305 133.35 91.9405 130.935 92.1505 127.68C92.1505 124.32 92.2555 120.75 92.3605 116.865C92.3605 113.085 92.3605 109.305 92.3605 105.525C92.2555 101.85 92.2555 98.805 92.2555 96.495C92.3605 94.71 92.3605 92.82 92.2555 90.93C92.0455 89.04 92.0455 86.835 92.0455 84.105C91.9405 82.425 91.9405 80.64 91.9405 78.75C91.8355 76.965 91.8355 75.285 91.8355 73.815C91.8355 72.45 91.8355 71.295 91.8355 70.35C91.8355 69.51 91.8355 68.985 91.9405 68.88C92.1505 68.67 92.4655 68.46 92.7805 68.46C92.9905 68.46 93.0955 68.25 93.3055 67.725C93.3055 67.515 93.3055 67.2 93.2005 66.99C92.9905 66.78 92.8855 66.57 92.7805 66.255C92.5705 66.045 92.3605 65.73 92.2555 65.31C92.0455 64.995 92.0455 64.575 92.1505 63.945C92.2555 63.21 92.3605 62.37 92.3605 61.32C92.2555 60.48 92.2555 59.535 92.2555 58.485C92.1505 56.385 92.1505 54.81 92.3605 53.655C92.3605 52.605 92.3605 51.66 92.2555 50.61C92.1505 49.875 92.1505 49.035 92.1505 48.09C92.0455 47.25 91.6255 46.515 90.7855 45.78C89.9455 45.15 89.2105 44.73 88.4755 44.415C87.6355 44.205 87.0055 43.89 86.3755 43.47C85.9555 43.26 85.7455 43.05 85.7455 42.63C85.6405 42.315 85.7455 42 85.9555 41.58C86.0605 41.37 86.3755 41.055 86.7955 40.845C87.2155 40.74 87.7405 40.74 88.4755 40.95C88.7905 41.16 89.4205 41.265 90.4705 41.475C91.3105 41.79 92.3605 42.105 93.6205 42.315C94.6705 42.735 95.8255 43.05 96.9805 43.26C98.0305 43.575 98.8705 43.785 99.6055 43.89C100.551 44.205 101.286 44.52 101.916 44.73C102.441 45.15 102.546 45.78 102.231 46.83C101.811 47.985 101.496 49.14 101.181 50.4C100.761 51.765 100.551 53.13 100.551 54.6C100.551 55.545 100.446 56.805 100.446 58.485C100.341 60.165 100.341 61.635 100.341 62.895C100.341 63.525 100.236 64.26 100.236 65.205C100.131 66.255 100.131 67.41 100.131 68.46C100.026 69.615 100.026 70.665 100.026 71.61C99.9205 72.66 99.9205 73.5 99.9205 74.025C99.9205 75.18 99.9205 76.125 100.026 76.965C100.026 77.91 100.026 78.75 100.026 79.59C100.026 80.535 100.026 81.48 100.131 82.425C100.131 83.475 100.131 84.735 100.131 86.1V89.46L102.756 89.145C103.596 89.04 104.226 88.935 104.856 88.725C105.276 88.725 105.696 88.62 106.116 88.41C106.431 88.41 106.746 88.305 107.166 88.095C107.376 88.095 107.796 87.885 108.216 87.675C109.161 87.36 110.001 87.045 110.841 86.835C111.471 86.625 112.311 86.73 113.256 87.045C114.096 87.465 114.936 87.465 115.986 87.255C116.826 87.15 117.561 87.15 118.086 87.15C118.821 87.255 119.556 87.57 120.291 88.095C120.921 88.725 121.341 89.46 121.446 90.3ZM45.7405 89.67C46.1605 89.67 46.8955 89.355 47.9455 88.935C48.8905 88.62 50.0455 88.2 51.4105 87.57C52.6705 87.045 54.1405 86.415 55.8205 85.68C57.2905 85.05 58.8655 84.42 60.5455 83.79C61.4905 81.795 62.5405 79.59 63.5905 77.28C64.6405 74.97 65.4805 72.87 66.3205 70.98C66.7405 69.93 66.9505 69.3 66.9505 68.88C66.8455 68.67 66.4255 68.565 65.7955 68.775C64.7455 69.195 63.3805 69.615 61.8055 70.035C60.1255 70.56 58.5505 71.085 56.8705 71.505C55.1905 72.03 53.6155 72.555 52.1455 73.08C50.6755 73.71 49.5205 74.235 48.6805 74.865C48.2605 75.285 48.0505 75.6 47.9455 75.81C47.7355 76.125 47.5255 76.335 47.5255 76.545C47.3155 76.86 47.2105 77.07 47.1055 77.07C46.8955 77.28 46.6855 77.28 46.4755 77.28C45.2155 77.28 44.1655 78.015 43.5355 79.59C43.1155 80.43 42.6955 80.955 42.0655 80.955C41.4355 81.06 40.8055 80.955 40.2805 80.535C39.7555 80.115 39.5455 79.59 39.6505 78.75C39.6505 78.015 39.7555 77.175 39.7555 76.23C39.7555 75.81 39.6505 75.39 39.4405 74.97C39.1255 74.655 38.8105 74.235 38.6005 73.815C38.1805 73.5 37.9705 73.185 37.7605 72.765C37.5505 72.555 37.4455 72.24 37.4455 71.82C37.4455 71.295 37.5505 70.665 37.5505 69.825C37.5505 69.09 37.6555 68.355 37.9705 67.515C38.1805 66.675 38.6005 66.255 39.0205 66.255C39.3355 66.36 39.5455 66.675 39.7555 67.2C39.8605 67.83 40.4905 68.46 41.7505 68.985C42.8005 69.615 44.5855 69.72 46.8955 69.3C47.6305 69.195 48.4705 69.09 49.4155 68.88C50.2555 68.775 51.3055 68.565 52.5655 68.145L65.9005 64.47C66.8455 64.26 67.4755 63.945 67.8955 63.525C68.2105 63.315 68.5255 63 68.8405 62.58C69.0505 62.265 69.5755 61.74 70.4155 61.11C71.0455 60.48 71.7805 60.375 72.6205 60.69C73.4605 61.11 74.5105 61.635 75.9805 62.055C77.3455 62.685 78.3955 63 79.2355 63C79.9705 63 80.4955 63.315 80.7055 63.735C80.8105 64.365 80.8105 64.785 80.7055 65.205C80.6005 65.625 80.4955 66.045 80.4955 66.465C80.2855 66.99 80.0755 67.305 79.7605 67.305C79.1305 67.41 78.6055 67.725 77.9755 68.25C77.3455 68.88 76.7155 69.615 76.0855 70.35C75.6655 70.875 74.9305 72.135 73.7755 74.025C72.5155 76.02 71.2555 78.12 69.9955 80.325C71.5705 79.8 72.9355 79.275 74.1955 78.855C75.3505 78.54 76.1905 78.33 76.8205 78.12C77.3455 78.015 77.8705 77.91 78.3955 77.91C78.8155 77.91 79.1305 78.015 79.3405 78.12C79.4455 78.33 79.4455 78.54 79.2355 78.75C78.9205 79.17 78.2905 79.59 77.4505 80.01C76.1905 80.745 74.6155 81.48 72.8305 82.215C70.9405 83.055 69.1555 83.895 67.3705 84.63L64.7455 89.145C63.9055 90.72 62.8555 92.4 61.7005 94.08C60.4405 95.97 59.1805 97.755 57.9205 99.645C56.5555 101.535 55.1905 103.425 53.9305 105.21C52.4605 107.1 51.2005 108.78 49.9405 110.355C48.7855 111.825 47.7355 112.875 46.6855 113.61C45.5305 114.45 44.2705 115.29 42.8005 116.025C41.9605 116.445 41.3305 116.655 40.8055 116.55C40.1755 116.55 39.6505 116.655 39.4405 116.655C38.6005 117.075 37.8655 116.865 37.2355 116.13C36.7105 115.815 36.3955 115.395 36.3955 114.765C36.2905 114.24 36.6055 113.925 37.4455 113.925C38.0755 113.925 39.0205 113.925 40.1755 113.82C41.2255 113.82 42.0655 113.4 42.9055 112.77C44.1655 111.615 45.4255 110.04 46.7905 108.045C48.0505 106.155 49.4155 104.16 50.6755 101.85C51.9355 99.75 53.1955 97.545 54.4555 95.235C55.6105 93.03 56.7655 91.035 57.8155 89.145C57.8155 89.145 57.8155 89.04 58.0255 88.83C55.2955 90.195 52.9855 91.35 51.0955 92.4C48.9955 93.555 47.8405 94.29 47.5255 94.5C46.5805 95.235 45.7405 95.865 45.1105 96.285C44.3755 96.915 43.7455 97.125 43.2205 97.125C42.9055 97.125 42.6955 97.02 42.4855 96.6C42.1705 96.39 41.9605 96.075 41.7505 95.655C41.4355 95.445 41.1205 95.13 40.9105 94.71C40.5955 94.5 40.2805 94.29 40.0705 94.29C39.3355 94.29 38.9155 94.185 38.7055 94.08C38.3905 94.08 38.0755 94.08 37.6555 94.08C37.4455 94.08 37.3405 93.975 37.2355 93.765C37.0255 93.66 36.9205 93.45 36.9205 93.135C36.8155 92.925 36.9205 92.61 37.1305 92.295C37.2355 92.085 37.5505 91.98 38.1805 91.77C39.1255 91.455 40.1755 91.14 41.4355 90.825C42.4855 90.615 43.9555 90.195 45.7405 89.67Z" fill="#F6C500"/>
</svg>
