<svg width="152" height="182" viewBox="0 0 152 182" fill="none" xmlns="http://www.w3.org/2000/svg">
<rect x="0.75" y="0.75" width="150" height="180" fill="white"/>
<rect x="0.75" y="0.75" width="150" height="180" stroke="#F6C500" stroke-width="1.5"/>
<path d="M61.8055 70.875C63.1705 71.085 64.6405 71.295 66.2155 71.715C67.6855 72.24 69.0505 72.975 70.4155 73.92C71.6755 74.97 72.8305 76.125 73.7755 77.595C74.6155 79.17 75.0355 81.06 75.2455 83.16C75.2455 84.21 75.2455 84.84 75.2455 85.26C75.1405 85.68 75.0355 85.995 75.0355 86.205C74.8255 86.415 74.7205 86.625 74.6155 86.625C74.4055 86.73 74.1955 86.835 74.1955 87.045C74.0905 87.255 74.0905 87.465 74.1955 87.465C74.1955 87.675 74.3005 87.78 74.5105 87.99C74.5105 88.2 74.6155 88.515 74.7205 88.83C74.7205 89.25 74.7205 89.88 74.5105 90.51C73.8805 92.505 73.1455 94.605 72.2005 96.705C71.1505 99.015 69.5755 100.8 67.5805 102.165C66.5305 103.005 65.2705 103.635 64.0105 103.95C62.6455 104.37 61.3855 104.685 60.1255 104.79C58.7605 105 57.6055 105 56.5555 105C55.4005 105 54.5605 105 53.9305 105C52.2505 104.79 50.6755 104.37 49.2055 103.74C47.5255 103.215 46.1605 102.69 45.0055 102.06C42.9055 101.01 41.4355 99.54 40.3855 97.65C39.3355 95.865 38.6005 93.975 38.2855 91.98C37.8655 90.09 37.8655 88.095 38.0755 86.205C38.2855 84.42 38.6005 82.95 39.2305 81.69C39.7555 80.325 40.5955 78.855 41.8555 77.28C42.9055 75.81 44.4805 74.55 46.3705 73.29C45.9505 72.24 45.6355 71.085 45.2155 70.035C44.7955 69.09 44.3755 68.355 43.9555 67.83C43.5355 67.41 43.2205 66.99 43.2205 66.57C43.1155 66.15 43.2205 65.835 43.4305 65.52C43.6405 65.31 43.9555 65.1 44.3755 64.995C44.6905 64.995 45.1105 65.205 45.6355 65.52C46.0555 65.835 46.4755 66.045 46.8955 66.255C47.2105 66.57 47.6305 66.78 48.0505 66.99C48.4705 67.2 48.8905 67.41 49.5205 67.62C49.9405 67.935 50.5705 68.25 51.4105 68.565C52.0405 68.985 52.5655 69.51 53.0905 70.14C53.5105 70.875 53.9305 71.61 54.2455 72.45C55.0855 72.135 56.1355 71.715 57.5005 71.295C58.7605 70.98 60.1255 70.875 61.8055 70.875ZM121.446 90.3C121.446 90.93 121.551 91.665 121.551 92.4C121.551 93.24 120.921 93.765 119.766 93.975C118.611 94.185 117.141 94.185 115.461 93.975C113.676 93.765 112.206 93.555 110.946 93.24C110.421 93.24 109.686 93.135 108.741 93.03C107.691 93.03 106.746 93.03 105.696 93.03C104.646 93.03 103.596 93.03 102.651 93.03C101.601 93.135 100.866 93.135 100.446 93.135H100.236C100.236 94.605 100.236 95.865 100.236 97.125C100.131 98.385 100.131 99.54 100.131 100.485C99.9205 104.265 99.9205 107.31 99.9205 109.83C99.8155 112.455 99.8155 114.24 99.8155 115.185C99.8155 116.865 99.6055 118.65 99.3955 120.645C98.9755 122.64 98.6605 124.635 98.2405 126.525C97.7155 128.415 97.1905 130.095 96.7705 131.67C96.1405 133.14 95.7205 134.295 95.3005 134.925C94.8805 135.555 94.3555 136.29 93.9355 137.025C93.3055 137.655 92.8855 138.075 92.4655 138.39C91.9405 138.6 91.6255 138.495 91.4155 138.075C91.2055 137.55 91.2055 136.5 91.5205 134.925C91.7305 133.35 91.9405 130.935 92.1505 127.68C92.1505 124.32 92.2555 120.75 92.3605 116.865C92.3605 113.085 92.3605 109.305 92.3605 105.525C92.2555 101.85 92.2555 98.805 92.2555 96.495C92.3605 94.71 92.3605 92.82 92.2555 90.93C92.0455 89.04 92.0455 86.835 92.0455 84.105C91.9405 82.425 91.9405 80.64 91.9405 78.75C91.8355 76.965 91.8355 75.285 91.8355 73.815C91.8355 72.45 91.8355 71.295 91.8355 70.35C91.8355 69.51 91.8355 68.985 91.9405 68.88C92.1505 68.67 92.4655 68.46 92.7805 68.46C92.9905 68.46 93.0955 68.25 93.3055 67.725C93.3055 67.515 93.3055 67.2 93.2005 66.99C92.9905 66.78 92.8855 66.57 92.7805 66.255C92.5705 66.045 92.3605 65.73 92.2555 65.31C92.0455 64.995 92.0455 64.575 92.1505 63.945C92.2555 63.21 92.3605 62.37 92.3605 61.32C92.2555 60.48 92.2555 59.535 92.2555 58.485C92.1505 56.385 92.1505 54.81 92.3605 53.655C92.3605 52.605 92.3605 51.66 92.2555 50.61C92.1505 49.875 92.1505 49.035 92.1505 48.09C92.0455 47.25 91.6255 46.515 90.7855 45.78C89.9455 45.15 89.2105 44.73 88.4755 44.415C87.6355 44.205 87.0055 43.89 86.3755 43.47C85.9555 43.26 85.7455 43.05 85.7455 42.63C85.6405 42.315 85.7455 42 85.9555 41.58C86.0605 41.37 86.3755 41.055 86.7955 40.845C87.2155 40.74 87.7405 40.74 88.4755 40.95C88.7905 41.16 89.4205 41.265 90.4705 41.475C91.3105 41.79 92.3605 42.105 93.6205 42.315C94.6705 42.735 95.8255 43.05 96.9805 43.26C98.0305 43.575 98.8705 43.785 99.6055 43.89C100.551 44.205 101.286 44.52 101.916 44.73C102.441 45.15 102.546 45.78 102.231 46.83C101.811 47.985 101.496 49.14 101.181 50.4C100.761 51.765 100.551 53.13 100.551 54.6C100.551 55.545 100.446 56.805 100.446 58.485C100.341 60.165 100.341 61.635 100.341 62.895C100.341 63.525 100.236 64.26 100.236 65.205C100.131 66.255 100.131 67.41 100.131 68.46C100.026 69.615 100.026 70.665 100.026 71.61C99.9205 72.66 99.9205 73.5 99.9205 74.025C99.9205 75.18 99.9205 76.125 100.026 76.965C100.026 77.91 100.026 78.75 100.026 79.59C100.026 80.535 100.026 81.48 100.131 82.425C100.131 83.475 100.131 84.735 100.131 86.1V89.46L102.756 89.145C103.596 89.04 104.226 88.935 104.856 88.725C105.276 88.725 105.696 88.62 106.116 88.41C106.431 88.41 106.746 88.305 107.166 88.095C107.376 88.095 107.796 87.885 108.216 87.675C109.161 87.36 110.001 87.045 110.841 86.835C111.471 86.625 112.311 86.73 113.256 87.045C114.096 87.465 114.936 87.465 115.986 87.255C116.826 87.15 117.561 87.15 118.086 87.15C118.821 87.255 119.556 87.57 120.291 88.095C120.921 88.725 121.341 89.46 121.446 90.3ZM52.7755 78.855C51.8305 79.695 51.0955 80.115 50.4655 80.22C49.7305 80.43 49.1005 80.43 48.6805 80.22C47.6305 80.325 46.7905 80.955 46.2655 82.11C45.6355 83.37 45.2155 84.42 45.1105 85.47C44.9005 86.73 44.9005 87.885 45.0055 89.04C45.0055 90.3 45.3205 91.35 45.8455 92.4C46.2655 93.45 46.8955 94.395 47.9455 95.235C48.8905 96.075 50.2555 96.705 51.9355 97.125C54.0355 97.755 55.9255 97.86 57.8155 97.65C59.4955 97.44 61.1755 97.02 62.7505 96.39C64.7455 94.815 66.0055 93.03 66.6355 90.93C67.1605 89.04 67.4755 86.835 67.6855 84.525C67.7905 82.11 67.1605 80.01 65.9005 78.12C64.5355 76.335 62.7505 75.18 60.4405 74.76C59.6005 74.655 58.6555 74.655 57.6055 74.655C56.4505 74.76 55.5055 74.76 54.6655 74.76C54.6655 76.44 54.0355 77.805 52.7755 78.855Z" fill="#F6C500"/>
</svg>
