<svg width="152" height="182" viewBox="0 0 152 182" fill="none" xmlns="http://www.w3.org/2000/svg">
<rect x="0.75" y="0.75" width="150" height="180" fill="white"/>
<rect x="0.75" y="0.75" width="150" height="180" stroke="#F6C500" stroke-width="1.5"/>
<path d="M121.446 90.3C121.446 90.93 121.551 91.665 121.551 92.4C121.551 93.24 120.921 93.765 119.766 93.975C118.611 94.185 117.141 94.185 115.461 93.975C113.676 93.765 112.206 93.555 110.946 93.24C110.421 93.24 109.686 93.135 108.741 93.03C107.691 93.03 106.746 93.03 105.696 93.03C104.646 93.03 103.596 93.03 102.651 93.03C101.601 93.135 100.866 93.135 100.446 93.135H100.236C100.236 94.605 100.236 95.865 100.236 97.125C100.131 98.385 100.131 99.54 100.131 100.485C99.9205 104.265 99.9205 107.31 99.9205 109.83C99.8155 112.455 99.8155 114.24 99.8155 115.185C99.8155 116.865 99.6055 118.65 99.3955 120.645C98.9755 122.64 98.6605 124.635 98.2405 126.525C97.7155 128.415 97.1905 130.095 96.7705 131.67C96.1405 133.14 95.7205 134.295 95.3005 134.925C94.8805 135.555 94.3555 136.29 93.9355 137.025C93.3055 137.655 92.8855 138.075 92.4655 138.39C91.9405 138.6 91.6255 138.495 91.4155 138.075C91.2055 137.55 91.2055 136.5 91.5205 134.925C91.7305 133.35 91.9405 130.935 92.1505 127.68C92.1505 124.32 92.2555 120.75 92.3605 116.865C92.3605 113.085 92.3605 109.305 92.3605 105.525C92.2555 101.85 92.2555 98.805 92.2555 96.495C92.3605 94.71 92.3605 92.82 92.2555 90.93C92.0455 89.04 92.0455 86.835 92.0455 84.105C91.9405 82.425 91.9405 80.64 91.9405 78.75C91.8355 76.965 91.8355 75.285 91.8355 73.815C91.8355 72.45 91.8355 71.295 91.8355 70.35C91.8355 69.51 91.8355 68.985 91.9405 68.88C92.1505 68.67 92.4655 68.46 92.7805 68.46C92.9905 68.46 93.0955 68.25 93.3055 67.725C93.3055 67.515 93.3055 67.2 93.2005 66.99C92.9905 66.78 92.8855 66.57 92.7805 66.255C92.5705 66.045 92.3605 65.73 92.2555 65.31C92.0455 64.995 92.0455 64.575 92.1505 63.945C92.2555 63.21 92.3605 62.37 92.3605 61.32C92.2555 60.48 92.2555 59.535 92.2555 58.485C92.1505 56.385 92.1505 54.81 92.3605 53.655C92.3605 52.605 92.3605 51.66 92.2555 50.61C92.1505 49.875 92.1505 49.035 92.1505 48.09C92.0455 47.25 91.6255 46.515 90.7855 45.78C89.9455 45.15 89.2105 44.73 88.4755 44.415C87.6355 44.205 87.0055 43.89 86.3755 43.47C85.9555 43.26 85.7455 43.05 85.7455 42.63C85.6405 42.315 85.7455 42 85.9555 41.58C86.0605 41.37 86.3755 41.055 86.7955 40.845C87.2155 40.74 87.7405 40.74 88.4755 40.95C88.7905 41.16 89.4205 41.265 90.4705 41.475C91.3105 41.79 92.3605 42.105 93.6205 42.315C94.6705 42.735 95.8255 43.05 96.9805 43.26C98.0305 43.575 98.8705 43.785 99.6055 43.89C100.551 44.205 101.286 44.52 101.916 44.73C102.441 45.15 102.546 45.78 102.231 46.83C101.811 47.985 101.496 49.14 101.181 50.4C100.761 51.765 100.551 53.13 100.551 54.6C100.551 55.545 100.446 56.805 100.446 58.485C100.341 60.165 100.341 61.635 100.341 62.895C100.341 63.525 100.236 64.26 100.236 65.205C100.131 66.255 100.131 67.41 100.131 68.46C100.026 69.615 100.026 70.665 100.026 71.61C99.9205 72.66 99.9205 73.5 99.9205 74.025C99.9205 75.18 99.9205 76.125 100.026 76.965C100.026 77.91 100.026 78.75 100.026 79.59C100.026 80.535 100.026 81.48 100.131 82.425C100.131 83.475 100.131 84.735 100.131 86.1V89.46L102.756 89.145C103.596 89.04 104.226 88.935 104.856 88.725C105.276 88.725 105.696 88.62 106.116 88.41C106.431 88.41 106.746 88.305 107.166 88.095C107.376 88.095 107.796 87.885 108.216 87.675C109.161 87.36 110.001 87.045 110.841 86.835C111.471 86.625 112.311 86.73 113.256 87.045C114.096 87.465 114.936 87.465 115.986 87.255C116.826 87.15 117.561 87.15 118.086 87.15C118.821 87.255 119.556 87.57 120.291 88.095C120.921 88.725 121.341 89.46 121.446 90.3ZM53.6155 107.73C56.1355 107.52 58.6555 107.31 61.3855 106.995C63.9055 106.785 66.5305 106.155 69.1555 105.105C69.9955 104.895 71.0455 104.265 72.2005 103.425C73.2505 102.585 73.9855 101.535 74.4055 100.065L75.9805 93.555C76.0855 93.135 76.2955 92.715 76.6105 92.295C76.8205 91.98 77.1355 92.295 77.4505 93.345C77.7655 94.395 77.8705 95.13 77.8705 95.55C77.6605 96.075 77.7655 96.495 78.1855 96.705C78.3955 97.02 78.7105 97.125 79.1305 96.915C79.4455 96.915 79.6555 97.125 79.8655 97.65C79.8655 98.28 80.0755 98.7 80.3905 98.91C80.6005 99.225 80.9155 99.33 81.1255 99.225C81.7555 99.225 82.2805 99.75 82.4905 100.8C82.4905 101.22 82.5955 101.535 83.0155 101.745C83.2255 102.165 83.4355 102.585 83.6455 103.215C83.6455 103.95 83.4355 104.79 82.8055 105.63C82.0705 106.575 81.3355 107.31 80.4955 107.835C79.4455 108.57 77.9755 109.2 75.8755 109.725C73.7755 110.355 71.7805 110.775 69.8905 111.09C67.1605 111.51 64.4305 111.825 61.5955 112.035C58.6555 112.35 55.8205 112.455 53.0905 112.455C51.5155 112.455 50.0455 112.35 48.7855 112.035C47.3155 111.825 46.1605 111.405 45.2155 110.67C44.1655 110.04 43.4305 109.2 42.9055 107.94C42.2755 106.785 41.9605 105.21 42.0655 103.215C42.0655 99.855 42.2755 96.915 42.4855 94.395C42.5905 91.98 42.6955 90.405 42.6955 89.565V89.25C42.2755 89.04 41.9605 88.935 41.6455 88.725C41.2255 88.725 41.0155 88.515 40.9105 88.305C40.7005 88.2 40.5955 87.99 40.8055 87.78C40.9105 87.675 41.3305 87.465 42.0655 87.15C41.8555 86.835 41.5405 86.415 41.3305 85.995C41.0155 85.68 40.7005 85.365 40.3855 84.945C39.3355 84.21 38.8105 83.58 38.8105 82.95C38.7055 82.53 39.3355 82.32 40.5955 82.425C41.8555 82.635 43.1155 82.95 44.4805 83.37C45.7405 83.895 46.8955 84.42 47.9455 85.05C47.9455 85.155 47.9455 85.155 48.1555 85.155C49.7305 84.735 51.3055 84.21 52.7755 83.79C54.1405 83.37 55.2955 83.055 56.3455 82.635C57.5005 82.215 58.3405 81.69 58.9705 81.165C59.4955 80.745 60.0205 79.905 60.5455 78.435C60.9655 77.175 61.5955 75.6 62.2255 73.71C62.8555 72.03 63.1705 70.665 63.3805 69.615C63.3805 69.3 63.4855 68.88 63.4855 68.46C63.4855 68.145 63.3805 67.83 63.3805 67.515C63.1705 67.305 62.9605 67.095 62.6455 66.99C62.2255 66.99 61.7005 67.2 61.0705 67.41C60.4405 67.725 59.3905 68.04 58.0255 68.46C56.5555 68.985 55.1905 69.51 53.7205 69.93C52.2505 70.455 50.8855 70.875 49.6255 71.295C48.3655 71.82 47.5255 72.24 47.1055 72.45C46.2655 73.08 45.3205 73.605 44.1655 74.025C42.9055 74.55 41.8555 74.55 41.1205 74.025C40.2805 73.605 39.6505 72.975 39.2305 72.345C38.8105 71.82 38.2855 71.19 37.7605 70.35C37.1305 69.615 37.0255 69.09 37.3405 68.775C37.5505 68.565 38.1805 68.355 39.0205 68.25C39.7555 68.25 40.7005 68.145 41.9605 67.935C43.1155 67.83 44.3755 67.62 45.8455 67.2C46.2655 67.095 47.4205 66.78 49.1005 66.255C50.7805 65.835 52.5655 65.31 54.4555 64.68C56.3455 64.155 58.1305 63.63 59.8105 63C61.4905 62.58 62.5405 62.16 63.1705 61.95C65.2705 60.9 67.1605 60.69 68.9455 61.425C69.8905 61.845 70.9405 62.265 72.0955 62.79C73.1455 63.42 73.8805 64.05 74.1955 64.575C74.5105 65.205 74.7205 65.73 74.7205 66.15C74.6155 66.675 74.6155 67.305 74.7205 67.935C74.7205 68.565 74.4055 69.3 73.7755 70.14C73.0405 70.98 72.5155 71.61 72.0955 71.925C71.8855 72.135 71.5705 72.45 71.2555 72.975C70.8355 73.605 70.4155 74.235 69.9955 74.865C69.5755 75.6 69.1555 76.335 68.7355 76.965C68.3155 77.7 67.8955 78.33 67.6855 78.75C67.2655 79.38 67.1605 79.695 67.4755 79.8C67.6855 80.01 68.1055 80.01 68.6305 80.01C68.9455 80.01 69.3655 79.905 69.9955 79.905C70.5205 79.905 70.9405 80.325 71.1505 81.06C71.2555 81.9 71.1505 82.425 70.8355 82.845C70.4155 83.37 69.8905 83.895 69.3655 84.315C68.7355 84.945 68.0005 85.26 67.1605 85.26C66.2155 85.365 65.1655 85.575 64.0105 85.785C62.2255 86.205 60.2305 86.625 58.0255 87.045C55.7155 87.57 53.9305 88.095 52.6705 88.62C52.2505 88.83 51.9355 88.935 51.7255 89.145C51.3055 89.355 50.9905 89.565 50.7805 89.67C50.5705 90.3 50.4655 90.93 50.4655 91.35C50.2555 91.875 50.0455 92.4 49.8355 92.925C49.4155 93.765 49.1005 94.92 48.8905 96.6C48.5755 98.385 48.3655 99.96 48.1555 101.43C47.9455 102.48 47.9455 103.425 48.0505 104.16C48.0505 105 48.3655 105.735 48.7855 106.155C49.1005 106.785 49.6255 107.205 50.4655 107.415C51.2005 107.73 52.2505 107.835 53.6155 107.73Z" fill="#F6C500"/>
</svg>
