<svg width="152" height="182" viewBox="0 0 152 182" fill="none" xmlns="http://www.w3.org/2000/svg">
<rect x="0.75" y="0.75" width="150" height="180" fill="white"/>
<rect x="0.75" y="0.75" width="150" height="180" stroke="#F6C500" stroke-width="1.5"/>
<path d="M86.4415 103.845C86.7565 103.425 86.9665 103.11 86.9665 102.9C86.8615 102.69 86.7565 102.585 86.5465 102.48C86.3365 102.48 86.0215 102.48 85.8115 102.48C85.3915 102.48 85.0765 102.48 84.8665 102.48C83.7115 102.375 82.6615 102.375 81.7165 102.48C80.6665 102.69 79.7215 103.005 78.8815 103.32C78.3565 103.53 77.7265 103.845 76.9915 104.055C76.1515 104.475 75.4165 104.79 74.5765 105C73.7365 105.42 72.8965 105.735 72.0565 105.945C71.2165 106.26 70.4815 106.47 70.0615 106.47C69.6415 106.575 69.1165 106.785 68.2765 106.995C67.3315 107.31 66.3865 107.625 65.4415 107.835C64.3915 108.255 63.4465 108.465 62.6065 108.675C61.6615 108.885 61.0315 108.99 60.6115 108.99C59.7715 108.99 59.1415 108.57 58.7215 107.94C58.3015 107.31 57.9865 106.68 57.8815 105.945C57.8815 105.63 57.7765 105.105 57.7765 104.37C57.5665 103.74 57.4615 103.005 57.4615 102.165C57.3565 101.43 57.2515 100.695 57.2515 100.065C57.1465 99.435 57.1465 99.015 57.2515 98.7C57.3565 98.175 57.6715 97.86 58.3015 97.65C58.7215 97.545 59.1415 97.755 59.3515 98.175C59.5615 99.435 60.0865 100.17 60.8215 100.485C61.4515 100.905 62.9215 101.115 65.2315 101.115C65.7565 101.22 66.5965 101.22 67.7515 101.01C68.8015 100.905 70.0615 100.695 71.3215 100.485C72.4765 100.38 73.6315 100.17 74.6815 99.96C75.6265 99.75 76.3615 99.645 76.7815 99.54C77.5165 99.435 78.3565 99.225 79.3015 99.015C80.1415 98.91 81.0865 98.805 82.0315 98.7C82.4515 98.7 82.9765 98.7 83.7115 98.7C84.3415 98.805 84.8665 98.91 85.4965 98.91C86.1265 99.015 86.8615 99.12 87.5965 99.225C87.7015 99.225 87.9115 99.225 88.1215 99.12C88.5415 99.015 88.9615 98.7 89.5915 98.07C90.0115 97.65 90.6415 97.44 91.4815 97.44C92.3215 97.65 93.1615 97.965 94.0015 98.49C94.2115 98.7 94.6315 98.805 95.0515 98.91C95.3665 99.12 95.7865 99.33 96.2065 99.54C96.5215 99.855 96.8365 100.17 97.1515 100.485C97.3615 100.905 97.4665 101.22 97.4665 101.64C97.3615 102.48 97.1515 103.32 96.7315 104.265C96.2065 105.315 94.9465 106.26 92.9515 107.31C92.0065 107.94 90.9565 108.36 89.9065 108.675C88.7515 109.095 87.5965 109.305 86.5465 109.515C85.3915 109.83 84.3415 110.04 83.2915 110.25C82.2415 110.565 81.2965 110.88 80.4565 111.09C79.9315 111.3 79.3015 111.51 78.4615 111.93C77.6215 112.35 76.6765 112.77 75.8365 112.98C74.9965 113.4 74.2615 113.61 73.7365 113.82C73.1065 114.135 72.6865 114.345 72.4765 114.45C72.0565 114.87 72.0565 115.08 72.6865 115.185C73.1065 115.395 73.8415 115.5 74.8915 115.5C75.7315 115.605 76.7815 115.605 77.8315 115.605C78.7765 115.605 79.5115 115.605 79.9315 115.605C80.6665 115.605 81.1915 115.5 81.5065 115.185C81.7165 114.975 82.1365 114.66 82.5565 114.24C82.9765 113.82 83.5015 113.61 84.1315 113.4C84.7615 113.4 85.7065 113.4 87.1765 113.4C88.5415 113.505 89.6965 113.61 90.5365 113.82C91.2715 114.03 91.9015 114.24 92.3215 114.24C92.5315 114.24 92.8465 114.345 93.2665 114.555C93.5815 114.765 93.8965 115.08 94.1065 115.395C94.2115 115.815 94.2115 116.235 94.0015 116.655C93.7915 117.18 93.1615 117.705 92.1115 118.23C91.0615 118.86 89.4865 119.595 87.1765 120.54C84.8665 121.485 82.4515 122.535 80.0365 123.585C77.5165 124.53 75.2065 125.37 73.3165 126.21C71.2165 126.945 70.0615 127.47 69.8515 127.68C69.2215 127.995 69.1165 128.415 69.3265 128.835C69.5365 129.255 69.9565 129.465 70.7965 129.675C71.2165 129.675 71.9515 129.885 73.1065 130.305C74.1565 130.62 75.4165 130.935 76.7815 131.355C78.0415 131.67 79.3015 131.985 80.5615 132.405C81.7165 132.615 82.5565 132.825 83.0815 132.93C83.9215 133.035 84.9715 133.14 86.3365 133.245C87.5965 133.245 88.8565 133.14 90.2215 133.14C91.4815 133.035 92.7415 132.93 94.0015 132.93C95.1565 132.72 96.1015 132.615 96.7315 132.51C97.9915 132.09 99.4615 131.88 101.037 131.67C102.507 131.355 103.452 131.25 104.082 131.25C104.292 131.25 104.817 131.145 105.552 131.145C106.182 131.04 106.917 131.04 107.757 131.04C108.387 131.04 109.017 131.04 109.647 131.145C110.172 131.145 110.382 131.355 110.382 131.67C110.172 132.3 110.382 132.72 110.907 133.035C111.327 133.245 111.642 133.35 111.957 133.35C112.062 133.35 112.272 133.35 112.587 133.35C112.797 133.35 113.007 133.35 113.217 133.455C113.322 133.455 113.427 133.56 113.427 133.77C113.427 133.98 113.217 134.295 113.007 134.715C112.377 135.555 111.537 136.185 110.592 136.71C109.542 137.13 108.597 137.34 107.757 137.55C107.022 137.655 106.077 137.865 104.922 138.18C103.662 138.39 102.297 138.6 101.037 138.81C99.6715 139.02 98.4115 139.23 97.1515 139.44C95.8915 139.545 94.8415 139.65 94.1065 139.65C93.2665 139.65 92.4265 139.65 91.3765 139.65C90.2215 139.545 89.0665 139.44 88.0165 139.44C86.7565 139.335 85.6015 139.23 84.5515 139.125C83.2915 138.915 82.2415 138.6 81.4015 138.285C80.4565 137.97 79.4065 137.655 78.1465 137.235C76.7815 136.71 75.5215 136.29 74.2615 135.87C73.0015 135.45 71.8465 135.03 70.9015 134.715C69.8515 134.295 69.2215 134.085 68.9065 133.98C68.0665 133.56 67.2265 133.455 66.2815 133.665C65.2315 133.665 64.0765 133.77 62.8165 133.77C61.3465 133.77 60.2965 133.56 59.6665 133.14C58.8265 132.72 58.5115 131.88 58.7215 130.725C58.7215 129.465 58.9315 128.415 59.2465 127.365C59.4565 126.21 59.9815 125.685 61.0315 125.685C62.0815 125.685 63.0265 125.685 64.0765 125.895C64.9165 126 65.8615 125.895 66.7015 125.685C67.5415 125.265 68.5915 124.95 69.6415 124.635C70.5865 124.215 71.5315 123.795 72.5815 123.27C73.5265 122.64 73.9465 122.22 73.8415 122.01C73.6315 121.8 73.1065 121.695 72.3715 121.695C71.7415 121.695 70.9015 121.8 69.7465 121.8C68.4865 121.8 67.3315 121.695 66.1765 121.59C64.9165 121.38 63.8665 120.96 63.0265 120.54C62.0815 120.12 61.6615 119.49 61.8715 118.65C61.8715 117.81 61.9765 117.075 62.0815 116.55C62.0815 116.13 62.2915 115.815 62.5015 115.5C62.6065 115.29 62.8165 115.08 63.1315 114.87C63.3415 114.66 63.6565 114.45 64.2865 114.03C64.6015 113.82 65.4415 113.505 66.7015 112.875C67.9615 112.455 69.4315 111.825 71.1115 111.09C72.7915 110.46 74.4715 109.725 76.3615 108.885C78.1465 108.255 79.8265 107.52 81.4015 106.785C82.0315 106.575 82.9765 106.155 84.1315 105.525C85.1815 105.105 86.0215 104.475 86.4415 103.845ZM85.8115 73.71L86.6515 70.665C86.4415 70.875 86.3365 70.875 86.1265 70.875C85.9165 70.98 85.7065 71.085 85.4965 71.19C83.8165 71.925 82.0315 72.45 80.1415 72.87C78.1465 73.395 76.3615 74.13 74.6815 75.075C72.7915 76.125 70.6915 77.28 68.3815 78.33C65.9665 79.59 63.3415 80.01 60.5065 79.8C59.3515 79.8 58.4065 79.695 57.6715 79.59C56.8315 79.59 56.3065 79.275 55.8865 78.855C55.4665 78.435 55.1515 77.805 55.0465 76.755C54.8365 75.81 54.7315 74.34 54.7315 72.45C54.7315 71.19 54.9415 70.14 55.1515 69.09C55.3615 68.145 55.5715 67.2 55.9915 66.36C56.3065 65.52 56.8315 64.785 57.4615 63.945C57.9865 63.21 58.6165 62.37 59.4565 61.425C61.0315 59.64 62.7115 58.17 64.6015 56.91C66.2815 55.86 67.6465 55.02 68.4865 54.39C69.0115 53.97 69.3265 53.655 69.3265 53.445C69.3265 53.235 69.1165 53.13 68.9065 53.13C67.8565 53.445 67.0165 53.76 66.1765 54.18C65.3365 54.6 64.0765 54.705 62.3965 54.495C60.7165 54.39 59.3515 53.76 58.0915 52.71C56.7265 51.66 55.7815 50.61 55.2565 49.35C54.6265 48.3 54.5215 47.355 54.9415 46.515C55.2565 45.885 55.6765 45.78 56.3065 46.2C56.8315 46.725 57.9865 47.145 59.7715 47.565C61.4515 48.09 63.1315 48.3 64.8115 48.3C65.5465 48.3 66.5965 48.195 67.8565 47.985C69.1165 47.88 70.3765 47.67 71.8465 47.46C73.2115 47.355 74.5765 47.145 75.9415 46.935C77.2015 46.725 78.2515 46.62 79.0915 46.41C80.3515 46.2 81.2965 45.99 81.9265 45.78C82.5565 45.675 83.1865 45.255 84.0265 44.415C84.4465 44.1 84.8665 43.68 85.4965 43.155C85.9165 42.735 86.4415 42.315 87.0715 41.895C87.5965 41.58 88.2265 41.265 88.9615 41.055C89.5915 40.845 90.2215 40.845 90.8515 40.95C92.1115 41.37 93.1615 41.79 94.2115 42.315C95.0515 42.945 95.8915 43.47 96.7315 43.785C98.3065 44.415 98.8315 45.465 98.4115 46.935C97.8865 48.09 96.6265 48.72 94.5265 48.72C94.0015 48.72 93.2665 48.825 92.3215 49.035C91.2715 49.245 90.1165 49.56 88.9615 49.77C87.7015 50.085 86.4415 50.4 85.1815 50.61C83.9215 51.03 82.7665 51.24 81.8215 51.345L80.4565 51.87C79.6165 52.29 78.6715 52.71 77.6215 53.13C76.4665 53.76 75.3115 54.285 74.1565 54.915C72.8965 55.545 71.8465 56.175 70.7965 56.805C69.7465 57.54 68.9065 58.17 68.3815 58.8C67.6465 59.64 67.0165 60.27 66.3865 60.69C65.7565 61.32 65.1265 61.845 64.7065 62.37C64.1815 63 63.7615 63.735 63.4465 64.365C63.0265 65.205 62.8165 66.15 62.6065 67.2C62.3965 67.83 62.3965 68.46 62.5015 69.09C62.5015 69.825 62.7115 70.455 63.0265 70.875C63.2365 71.4 63.5515 71.715 64.1815 71.925C64.7065 72.135 65.4415 72.135 66.4915 71.925C68.9065 71.505 71.1115 70.875 73.1065 70.245C74.9965 69.72 76.6765 69.195 78.1465 68.565C80.1415 67.83 81.8215 67.305 83.0815 67.095C84.3415 66.99 85.0765 66.885 85.4965 66.675C85.9165 66.36 86.4415 66.15 86.9665 65.94C87.3865 65.94 87.7015 65.835 88.1215 65.73C88.6465 64.365 89.0665 63.525 89.3815 63.105C89.5915 62.895 90.1165 62.58 90.7465 62.265C91.2715 62.055 91.9015 61.74 92.6365 61.53C93.2665 61.32 94.0015 61.215 94.8415 61.215C95.4715 61.215 96.1015 61.32 96.7315 61.53C97.7815 61.95 98.7265 62.685 99.3565 63.63C99.8815 64.68 100.197 65.73 100.302 66.675C100.407 67.725 100.302 68.355 99.8815 68.565C99.3565 68.985 98.7265 69.405 97.8865 69.93C97.0465 70.455 96.3115 70.98 95.5765 71.4C94.7365 71.925 94.1065 72.345 93.7915 72.765C93.3715 73.185 92.9515 73.29 92.6365 73.29C92.2165 73.395 91.6915 73.395 90.9565 73.395C90.1165 73.395 89.5915 73.5 89.2765 73.5C88.8565 73.605 88.4365 73.815 88.1215 74.235C87.7015 74.655 87.0715 74.865 86.4415 74.76C85.7065 74.76 85.4965 74.445 85.8115 73.71ZM33.7315 87.57C34.9915 87.99 36.4615 88.095 38.1415 87.99C39.6115 87.99 41.2915 87.885 43.1815 87.675C43.8115 87.675 45.2815 87.57 47.5915 87.36C49.6915 87.15 52.2115 86.94 55.1515 86.625C57.9865 86.415 61.0315 86.1 64.2865 85.785C67.4365 85.575 70.4815 85.26 73.3165 84.945C76.0465 84.735 78.4615 84.42 80.4565 84.21C82.3465 84 83.6065 83.895 84.1315 83.895C84.9715 83.895 86.4415 83.685 88.6465 83.475C90.7465 83.265 93.0565 83.055 95.4715 82.74C97.7815 82.53 99.8815 82.32 101.772 82.11C103.662 82.005 104.712 81.9 105.132 81.9C105.447 81.9 105.867 81.69 106.287 81.27C106.707 80.85 107.127 80.43 107.757 80.01C108.177 79.695 108.807 79.38 109.437 79.17C109.962 79.065 110.592 79.17 111.432 79.59C112.062 80.01 112.797 80.535 113.637 81.165C114.372 81.795 115.107 82.425 115.947 82.95C116.577 83.58 117.312 84.105 117.942 84.525C118.467 85.05 118.887 85.365 119.307 85.575C119.622 85.785 119.832 86.205 120.042 86.625C120.147 87.15 120.147 87.675 120.147 88.095C119.937 88.62 119.727 89.04 119.517 89.355C119.097 89.775 118.677 89.88 118.257 89.775C117.417 89.775 116.367 89.67 115.107 89.67C113.742 89.775 112.377 89.88 110.907 90.09C109.332 90.3 107.862 90.615 106.392 90.93C104.922 91.35 103.662 91.77 102.612 92.4C101.037 93.24 99.8815 93.45 99.1465 93.135C98.3065 92.925 98.6215 92.4 99.8815 91.35C100.407 90.93 101.037 90.405 101.772 89.67C102.402 89.04 103.032 88.41 103.557 87.78C103.977 87.15 104.187 86.625 104.397 86.205C104.397 85.785 104.187 85.575 103.557 85.575C102.927 85.575 101.667 85.68 99.9865 85.785C98.2015 85.995 96.3115 86.1 94.3165 86.31C92.2165 86.52 90.1165 86.73 88.2265 86.94C86.2315 87.255 84.6565 87.465 83.6065 87.675C82.7665 87.885 81.5065 88.2 79.7215 88.515C77.8315 88.935 75.7315 89.25 73.4215 89.67C70.9015 90.195 68.3815 90.72 65.8615 91.14C63.1315 91.77 60.7165 92.19 58.4065 92.61C55.9915 93.135 53.9965 93.555 52.3165 93.765C50.5315 94.185 49.3765 94.395 48.9565 94.5C48.1165 94.71 47.1715 94.815 46.2265 94.815C45.1765 95.025 44.2315 95.025 43.2865 95.025C42.2365 95.025 41.1865 94.92 40.3465 94.71C39.4015 94.605 38.5615 94.395 37.9315 93.975C36.4615 93.24 35.4115 92.505 34.5715 91.875C33.7315 91.35 32.8915 90.825 32.1565 90.3C31.7365 90.09 31.4215 89.775 31.3165 89.355C31.1065 89.04 31.0015 88.725 31.2115 88.305C31.2115 88.095 31.5265 87.78 31.9465 87.57C32.3665 87.36 32.8915 87.36 33.7315 87.57Z" fill="#F6C500"/>
</svg>
