<svg width="152" height="182" viewBox="0 0 152 182" fill="none" xmlns="http://www.w3.org/2000/svg">
<rect x="0.75" y="0.75" width="150" height="180" fill="white"/>
<rect x="0.75" y="0.75" width="150" height="180" stroke="#F6C500" stroke-width="1.5"/>
<path d="M63.8686 70.875C65.2336 71.085 66.7036 71.295 68.2786 71.715C69.7486 72.24 71.1136 72.975 72.4786 73.92C73.7386 74.97 74.8936 76.125 75.8386 77.595C76.6786 79.17 77.0986 81.06 77.3086 83.16C77.3086 84.21 77.3086 84.84 77.3086 85.26C77.2036 85.68 77.0986 85.995 77.0986 86.205C76.8886 86.415 76.7836 86.625 76.6786 86.625C76.4686 86.73 76.2586 86.835 76.2586 87.045C76.1536 87.255 76.1536 87.465 76.2586 87.465C76.2586 87.675 76.3636 87.78 76.5736 87.99C76.5736 88.2 76.6786 88.515 76.7836 88.83C76.7836 89.25 76.7836 89.88 76.5736 90.51C75.9436 92.505 75.2086 94.605 74.2636 96.705C73.2136 99.015 71.6386 100.8 69.6436 102.165C68.5936 103.005 67.3336 103.635 66.0736 103.95C64.7086 104.37 63.4486 104.685 62.1886 104.79C60.8236 105 59.6686 105 58.6186 105C57.4636 105 56.6236 105 55.9936 105C54.3136 104.79 52.7386 104.37 51.2686 103.74C49.5886 103.215 48.2236 102.69 47.0686 102.06C44.9686 101.01 43.4986 99.54 42.4486 97.65C41.3986 95.865 40.6636 93.975 40.3486 91.98C39.9286 90.09 39.9286 88.095 40.1386 86.205C40.3486 84.42 40.6636 82.95 41.2936 81.69C41.8186 80.325 42.6586 78.855 43.9186 77.28C44.9686 75.81 46.5436 74.55 48.4336 73.29C48.0136 72.24 47.6986 71.085 47.2786 70.035C46.8586 69.09 46.4386 68.355 46.0186 67.83C45.5986 67.41 45.2836 66.99 45.2836 66.57C45.1786 66.15 45.2836 65.835 45.4936 65.52C45.7036 65.31 46.0186 65.1 46.4386 64.995C46.7536 64.995 47.1736 65.205 47.6986 65.52C48.1186 65.835 48.5386 66.045 48.9586 66.255C49.2736 66.57 49.6936 66.78 50.1136 66.99C50.5336 67.2 50.9536 67.41 51.5836 67.62C52.0036 67.935 52.6336 68.25 53.4736 68.565C54.1036 68.985 54.6286 69.51 55.1536 70.14C55.5736 70.875 55.9936 71.61 56.3086 72.45C57.1486 72.135 58.1986 71.715 59.5636 71.295C60.8236 70.98 62.1886 70.875 63.8686 70.875ZM79.9336 95.34C78.2536 95.13 77.5186 94.605 77.5186 93.975C77.4136 93.45 77.8336 93.135 78.8836 92.925C79.3036 92.925 79.7236 92.82 80.1436 92.715C80.3536 92.715 80.7736 92.715 81.1936 92.61C81.6136 92.61 82.1386 92.505 82.7686 92.4C83.2936 92.4 84.1336 92.4 85.1836 92.4C86.4436 92.4 88.2286 92.19 90.7486 91.77C93.0586 91.35 95.4736 90.93 97.8886 90.3C97.8886 89.46 97.8886 88.41 97.8886 87.36C97.7836 86.415 97.7836 85.365 97.7836 84.105L97.5736 77.91C96.7336 78.435 95.9986 78.75 95.1586 78.75C94.5286 78.96 93.7936 79.065 92.8486 79.275C91.7986 79.59 90.8536 79.8 89.9086 80.01C88.8586 80.22 88.0186 80.43 87.1786 80.43C86.2336 80.64 85.6036 80.535 85.1836 80.325C84.7636 80.115 84.4486 79.905 84.2386 79.59C83.8186 79.38 83.5036 79.065 83.1886 78.75C82.7686 78.54 82.3486 78.225 81.9286 77.91C81.2986 77.7 80.6686 77.595 79.9336 77.49C78.2536 77.28 77.5186 76.755 77.5186 76.125C77.4136 75.6 77.8336 75.285 78.8836 75.075C79.3036 75.075 79.7236 74.97 80.1436 74.865C80.3536 74.865 80.7736 74.865 81.1936 74.76C81.6136 74.76 82.1386 74.655 82.7686 74.55C83.2936 74.55 84.1336 74.55 85.1836 74.55C86.3386 74.55 88.1236 74.34 90.5386 73.92C92.8486 73.5 95.1586 73.08 97.5736 72.45C97.5736 71.61 97.5736 70.875 97.5736 70.035C97.5736 69.405 97.5736 68.985 97.6786 68.88C97.8886 68.67 98.2036 68.46 98.5186 68.46C98.7286 68.46 98.8336 68.25 99.0436 67.725C99.0436 67.515 99.0436 67.2 98.9386 66.99C98.7286 66.78 98.6236 66.57 98.5186 66.255C98.3086 66.045 98.0986 65.73 97.9936 65.31C97.7836 64.995 97.7836 64.575 97.8886 63.945C97.9936 63.21 98.0986 62.37 98.0986 61.32C97.9936 60.48 97.9936 59.535 97.9936 58.485C97.8886 56.385 97.8886 54.81 98.0986 53.655C98.0986 52.605 98.0986 51.66 97.9936 50.61C97.8886 49.875 97.8886 49.035 97.8886 48.09C97.7836 47.25 97.3636 46.515 96.5236 45.78C95.6836 45.15 94.9486 44.73 94.2136 44.415C93.3736 44.205 92.7436 43.89 92.1136 43.47C91.6936 43.26 91.4836 43.05 91.4836 42.63C91.3786 42.315 91.4836 42 91.6936 41.58C91.7986 41.37 92.1136 41.055 92.5336 40.845C92.9536 40.74 93.4786 40.74 94.2136 40.95C94.5286 41.16 95.1586 41.265 96.2086 41.475C97.0486 41.79 98.0986 42.105 99.3586 42.315C100.409 42.735 101.564 43.05 102.719 43.26C103.769 43.575 104.609 43.785 105.344 43.89C106.289 44.205 107.024 44.52 107.654 44.73C108.179 45.15 108.284 45.78 107.969 46.83C107.549 47.985 107.234 49.14 106.919 50.4C106.499 51.765 106.289 53.13 106.289 54.6C106.289 55.545 106.184 56.805 106.184 58.485C106.079 60.165 106.079 61.635 106.079 62.895C106.079 63.525 105.974 64.26 105.974 65.205C105.869 66.255 105.869 67.41 105.869 68.46C105.764 69.615 105.764 70.665 105.764 71.61C105.659 72.66 105.659 73.5 105.659 74.025C105.659 75.18 105.659 76.125 105.764 76.965C105.764 77.91 105.764 78.75 105.764 79.59C105.764 80.535 105.764 81.48 105.869 82.425C105.869 83.475 105.869 84.735 105.869 86.1C105.869 87.15 105.869 88.305 105.974 89.565C105.974 90.93 105.974 92.19 105.974 93.45C105.974 94.815 105.974 96.075 105.974 97.23C105.869 98.49 105.869 99.645 105.869 100.485C105.659 104.265 105.659 107.31 105.659 109.83C105.554 112.455 105.554 114.24 105.554 115.185C105.554 116.865 105.344 118.65 105.134 120.645C104.714 122.64 104.399 124.635 103.979 126.525C103.454 128.415 102.929 130.095 102.509 131.67C101.879 133.14 101.459 134.295 101.039 134.925C100.619 135.555 100.094 136.29 99.6736 137.025C99.0436 137.655 98.6236 138.075 98.2036 138.39C97.6786 138.6 97.3636 138.495 97.1536 138.075C96.9436 137.55 96.9436 136.5 97.2586 134.925C97.4686 133.35 97.6786 130.935 97.8886 127.68C97.8886 124.32 97.9936 120.75 98.0986 116.865C98.0986 113.085 98.0986 109.305 98.0986 105.525C97.9936 101.85 97.9936 98.805 97.9936 96.495V95.55C97.1536 96.075 96.2086 96.39 95.1586 96.6C94.5286 96.81 93.7936 96.915 92.8486 97.125C91.7986 97.44 90.8536 97.65 89.9086 97.86C88.8586 98.07 88.0186 98.28 87.1786 98.28C86.2336 98.49 85.6036 98.385 85.1836 98.175C84.7636 97.965 84.4486 97.755 84.2386 97.44C83.8186 97.23 83.5036 96.915 83.1886 96.6C82.7686 96.39 82.3486 96.075 81.9286 95.76C81.2986 95.55 80.6686 95.445 79.9336 95.34ZM54.8386 78.855C53.8936 79.695 53.1586 80.115 52.5286 80.22C51.7936 80.43 51.1636 80.43 50.7436 80.22C49.6936 80.325 48.8536 80.955 48.3286 82.11C47.6986 83.37 47.2786 84.42 47.1736 85.47C46.9636 86.73 46.9636 87.885 47.0686 89.04C47.0686 90.3 47.3836 91.35 47.9086 92.4C48.3286 93.45 48.9586 94.395 50.0086 95.235C50.9536 96.075 52.3186 96.705 53.9986 97.125C56.0986 97.755 57.9886 97.86 59.8786 97.65C61.5586 97.44 63.2386 97.02 64.8136 96.39C66.8086 94.815 68.0686 93.03 68.6986 90.93C69.2236 89.04 69.5386 86.835 69.7486 84.525C69.8536 82.11 69.2236 80.01 67.9636 78.12C66.5986 76.335 64.8136 75.18 62.5036 74.76C61.6636 74.655 60.7186 74.655 59.6686 74.655C58.5136 74.76 57.5686 74.76 56.7286 74.76C56.7286 76.44 56.0986 77.805 54.8386 78.855Z" fill="#F6C500"/>
</svg>
