<svg width="152" height="182" viewBox="0 0 152 182" fill="none" xmlns="http://www.w3.org/2000/svg">
<rect x="0.75" y="0.75" width="150" height="180" fill="white"/>
<rect x="0.75" y="0.75" width="150" height="180" stroke="#F6C500" stroke-width="1.5"/>
<path d="M33.9415 120.015C34.5715 120.12 35.5165 120.12 36.5665 119.91C37.5115 119.805 38.4565 119.595 39.5065 119.385C39.9265 119.28 40.5565 119.07 41.5015 118.86C42.3415 118.65 43.2865 118.44 44.3365 118.23C45.2815 118.02 46.3315 117.915 47.3815 117.705C48.4315 117.6 49.2715 117.495 50.1115 117.495C50.9515 117.6 51.8965 117.705 52.9465 117.81C53.9965 118.02 54.9415 118.125 55.9915 118.125C56.5165 118.125 57.5665 118.02 59.0365 117.81C60.5065 117.6 62.1865 117.39 64.0765 117.075V116.97C65.5465 116.55 67.0165 115.815 68.4865 114.87C69.8515 114.03 71.1115 112.98 72.3715 111.825C73.4215 110.775 74.5765 109.725 75.6265 108.57C76.5715 107.52 77.5165 106.575 78.3565 105.525C79.8265 103.845 81.0865 101.955 82.1365 100.065C83.0815 98.28 83.7115 96.915 84.1315 95.865C84.5515 95.025 84.7615 94.29 84.7615 93.66C84.6565 93.135 84.0265 92.715 82.7665 92.4C81.7165 92.505 80.8765 92.505 80.2465 92.505C79.4065 92.61 78.8815 92.61 78.5665 92.61C77.3065 92.61 76.5715 92.4 76.1515 91.77C75.6265 91.35 75.3115 90.615 75.2065 89.565C75.2065 89.145 74.9965 88.725 74.7865 88.41C74.4715 88.2 74.2615 87.885 74.0515 87.465C73.7365 87.15 73.5265 86.73 73.4215 86.205C73.2115 85.785 73.3165 85.05 73.6315 84C73.8415 83.16 74.2615 82.32 74.7865 81.585C75.2065 80.955 75.8365 80.43 76.4665 79.8C77.0965 79.38 77.7265 78.855 78.4615 78.33C79.0915 77.91 79.7215 77.28 80.3515 76.65C80.8765 76.02 81.5065 75.18 82.3465 74.025C83.0815 72.975 83.8165 71.925 84.6565 70.665C85.3915 69.615 86.1265 68.46 86.7565 67.41C87.3865 66.465 87.8065 65.73 88.1215 65.205C88.5415 64.26 88.6465 63.42 88.3315 62.685C87.9115 62.055 86.8615 61.95 85.0765 62.475C84.0265 62.895 82.9765 63.21 81.9265 63.525C80.6665 63.945 79.5115 64.26 78.4615 64.575C77.3065 64.995 76.3615 65.31 75.5215 65.52C74.5765 65.94 73.9465 66.15 73.6315 66.36C73.2115 66.57 73.0015 66.885 72.7915 67.2C72.4765 67.62 72.1615 68.04 71.9515 68.355C71.6365 68.775 71.3215 69.195 71.0065 69.405C70.5865 69.72 70.1665 69.825 69.6415 69.825C68.3815 69.825 67.2265 69.615 66.0715 69.09C64.8115 68.67 63.8665 68.145 63.1315 67.305C62.3965 66.465 61.9765 65.73 61.8715 64.995C61.6615 64.365 61.6615 63.84 61.8715 63.315C61.9765 62.895 62.6065 62.685 63.8665 62.685C64.7065 62.79 65.8615 62.79 67.1215 62.58C68.3815 62.58 69.3265 62.37 70.1665 61.95C70.7965 61.74 71.9515 61.32 73.4215 60.69C74.7865 60.27 76.2565 59.745 77.7265 59.115C79.1965 58.695 80.5615 58.17 81.9265 57.645C83.1865 57.225 84.0265 56.91 84.6565 56.7C85.0765 56.49 85.4965 56.28 85.8115 55.86C86.0215 55.545 86.3365 55.125 86.7565 54.705C86.9665 54.39 87.3865 54.075 87.8065 53.76C88.1215 53.55 88.6465 53.55 89.4865 53.55C90.8515 53.76 92.4265 53.97 94.3165 54.18C95.9965 54.6 97.3615 54.705 98.3065 54.705C99.3565 54.6 100.092 54.81 100.512 55.44C100.932 56.07 101.352 56.91 101.982 57.96C102.192 58.59 102.402 59.22 102.612 59.955C102.717 60.795 102.717 61.53 102.717 62.37C102.507 63.21 102.192 64.05 101.772 64.785C101.247 65.625 100.407 66.36 99.3565 66.99C98.3065 67.62 97.0465 68.46 95.5765 69.72C94.0015 70.98 92.4265 72.345 90.9565 73.71C89.2765 75.18 87.8065 76.44 86.4415 77.595C84.9715 78.855 83.9215 79.8 83.1865 80.22C81.6115 81.27 80.8765 82.215 80.9815 82.845C80.9815 83.685 81.5065 84 82.7665 84C83.3965 84 84.2365 84 85.2865 83.895C86.3365 83.895 87.3865 83.79 88.5415 83.58C89.5915 83.58 90.5365 83.475 91.5865 83.265C92.4265 83.265 93.0565 83.16 93.4765 83.16C93.8965 83.16 94.3165 83.37 94.8415 83.79C95.2615 84.21 95.6815 84.735 96.1015 85.155C96.5215 85.68 96.8365 86.1 97.2565 86.52C97.5715 87.045 97.7815 87.36 97.9915 87.36C98.0965 87.57 98.3065 87.78 98.5165 87.99C98.7265 88.41 98.8315 88.725 98.9365 89.04C98.9365 89.46 98.7265 89.88 98.5165 90.195C98.2015 90.615 97.6765 90.825 96.8365 90.825H96.7315C96.2065 91.035 95.7865 91.35 95.3665 91.665C94.8415 92.085 94.2115 92.715 93.5815 93.45C92.8465 94.395 92.0065 95.445 91.1665 96.495C90.1165 97.755 89.1715 98.805 88.3315 99.855C87.3865 101.01 86.6515 101.955 86.0215 102.795C85.2865 103.635 84.8665 104.265 84.6565 104.475C84.2365 105.105 83.6065 105.735 82.9765 106.575C82.1365 107.415 81.4015 108.255 80.6665 109.095C79.8265 110.04 79.1965 110.88 78.5665 111.51C77.9365 112.35 77.5165 112.875 77.3065 113.19C76.7815 113.82 76.4665 114.45 76.3615 114.975C76.1515 115.605 76.6765 115.815 78.1465 115.815L94.0015 114.975C95.8915 114.975 97.7815 114.66 99.6715 114.03C101.352 113.61 102.717 113.19 103.767 112.77C104.607 112.56 105.552 112.56 106.602 112.56C107.547 112.665 108.597 112.77 109.647 112.98C110.592 113.19 111.537 113.505 112.482 113.715C113.322 114.03 113.952 114.24 114.477 114.45C115.317 114.975 116.052 115.395 116.682 115.71C117.312 116.13 117.942 116.76 118.782 117.495C119.517 118.23 119.832 118.965 119.622 119.7C119.412 120.54 118.782 120.855 117.732 120.96C117.102 120.96 116.262 120.96 115.107 120.96C113.847 120.855 112.692 120.855 111.432 120.855C110.067 120.75 108.807 120.75 107.757 120.855C106.497 120.855 105.762 120.855 105.342 120.96C104.817 120.96 104.187 120.96 103.557 120.96C102.717 120.75 101.982 120.645 101.352 120.435C100.512 120.33 99.8815 120.12 99.2515 119.91C98.6215 119.805 98.0965 119.7 97.6765 119.595C97.2565 119.595 96.2065 119.49 94.6315 119.385C92.9515 119.385 90.9565 119.385 88.8565 119.385C86.6515 119.385 84.4465 119.385 82.3465 119.385C80.0365 119.49 78.2515 119.595 76.7815 119.7C73.3165 120.015 69.9565 120.435 66.5965 120.855C63.2365 121.275 59.9815 121.905 56.8315 122.745C54.6265 123.165 53.1565 123.48 52.3165 123.795C51.3715 124.005 50.6365 124.425 50.1115 125.055C49.5865 125.58 49.0615 125.895 48.6415 126.105C48.0115 126.105 47.1715 126 46.0165 125.685C45.3865 125.475 44.5465 125.37 43.2865 125.16C42.0265 124.95 40.6615 124.74 39.2965 124.53C37.8265 124.215 36.5665 124.005 35.5165 123.795C34.2565 123.48 33.5215 123.27 33.2065 123.165C32.7865 123.06 32.4715 122.85 32.2615 122.535C31.9465 122.115 31.8415 121.695 31.8415 121.38C31.8415 120.96 31.9465 120.645 32.3665 120.33C32.5765 120.12 33.1015 120.015 33.9415 120.015ZM65.4415 83.16C65.4415 83.58 65.5465 84 65.6515 84.525C65.6515 85.155 65.7565 85.785 65.7565 86.31C65.6515 86.94 65.5465 87.36 65.4415 87.78C65.2315 88.305 64.8115 88.62 64.3915 88.62C63.7615 88.83 63.5515 89.145 63.6565 89.67C63.6565 90.3 63.5515 90.72 63.4465 91.14C63.4465 91.455 63.2365 91.77 62.8165 92.19C62.3965 92.61 61.8715 93.03 61.4515 93.24C60.8215 93.66 60.2965 93.87 59.7715 93.87C59.1415 94.08 58.7215 93.87 58.4065 93.45C57.1465 92.295 56.3065 90.72 56.0965 88.725C55.6765 86.835 55.4665 84.735 55.2565 82.425C55.0465 80.535 54.8365 78.54 54.4165 76.65C53.8915 74.865 53.4715 73.5 53.1565 72.45C52.8415 71.4 52.3165 70.035 51.5815 68.355C50.7415 66.885 49.6915 65.73 48.4315 65.1C47.9065 64.89 47.4865 64.575 47.2765 64.26C46.8565 64.05 46.6465 63.735 46.6465 63.42C46.5415 63.21 46.6465 63 47.0665 62.79C47.3815 62.685 48.0115 62.58 48.9565 62.475C50.7415 62.37 52.4215 62.58 54.1015 63.21C55.5715 63.945 56.8315 64.68 57.8815 65.415C58.9315 66.36 59.9815 67.515 60.8215 68.985C61.6615 70.455 62.3965 72.03 63.0265 73.71C63.6565 75.39 64.1815 77.07 64.6015 78.645C65.0215 80.325 65.2315 81.9 65.4415 83.16Z" fill="#F6C500"/>
</svg>
