<svg width="1352" height="242" viewBox="0 0 1352 242" fill="none" xmlns="http://www.w3.org/2000/svg">
<rect x="0.75" y="0.75" width="150" height="180" fill="white"/>
<rect x="0.75" y="0.75" width="150" height="180" stroke="#F6C500" stroke-width="1.5"/>
<path d="M61.8055 70.875C63.1705 71.085 64.6405 71.295 66.2155 71.715C67.6855 72.24 69.0505 72.975 70.4155 73.92C71.6755 74.97 72.8305 76.125 73.7755 77.595C74.6155 79.17 75.0355 81.06 75.2455 83.16C75.2455 84.21 75.2455 84.84 75.2455 85.26C75.1405 85.68 75.0355 85.995 75.0355 86.205C74.8255 86.415 74.7205 86.625 74.6155 86.625C74.4055 86.73 74.1955 86.835 74.1955 87.045C74.0905 87.255 74.0905 87.465 74.1955 87.465C74.1955 87.675 74.3005 87.78 74.5105 87.99C74.5105 88.2 74.6155 88.515 74.7205 88.83C74.7205 89.25 74.7205 89.88 74.5105 90.51C73.8805 92.505 73.1455 94.605 72.2005 96.705C71.1505 99.015 69.5755 100.8 67.5805 102.165C66.5305 103.005 65.2705 103.635 64.0105 103.95C62.6455 104.37 61.3855 104.685 60.1255 104.79C58.7605 105 57.6055 105 56.5555 105C55.4005 105 54.5605 105 53.9305 105C52.2505 104.79 50.6755 104.37 49.2055 103.74C47.5255 103.215 46.1605 102.69 45.0055 102.06C42.9055 101.01 41.4355 99.54 40.3855 97.65C39.3355 95.865 38.6005 93.975 38.2855 91.98C37.8655 90.09 37.8655 88.095 38.0755 86.205C38.2855 84.42 38.6005 82.95 39.2305 81.69C39.7555 80.325 40.5955 78.855 41.8555 77.28C42.9055 75.81 44.4805 74.55 46.3705 73.29C45.9505 72.24 45.6355 71.085 45.2155 70.035C44.7955 69.09 44.3755 68.355 43.9555 67.83C43.5355 67.41 43.2205 66.99 43.2205 66.57C43.1155 66.15 43.2205 65.835 43.4305 65.52C43.6405 65.31 43.9555 65.1 44.3755 64.995C44.6905 64.995 45.1105 65.205 45.6355 65.52C46.0555 65.835 46.4755 66.045 46.8955 66.255C47.2105 66.57 47.6305 66.78 48.0505 66.99C48.4705 67.2 48.8905 67.41 49.5205 67.62C49.9405 67.935 50.5705 68.25 51.4105 68.565C52.0405 68.985 52.5655 69.51 53.0905 70.14C53.5105 70.875 53.9305 71.61 54.2455 72.45C55.0855 72.135 56.1355 71.715 57.5005 71.295C58.7605 70.98 60.1255 70.875 61.8055 70.875ZM100.341 62.895C100.341 63.525 100.236 64.26 100.236 65.1C100.131 66.15 100.131 67.095 100.131 68.145C100.026 69.195 100.026 70.245 100.026 71.19C99.9205 72.24 99.9205 73.08 99.9205 73.71L102.756 73.395C103.596 73.29 104.226 73.185 104.856 72.975C105.276 72.975 105.696 72.87 106.116 72.66C106.431 72.66 106.746 72.555 107.166 72.345C107.376 72.345 107.796 72.135 108.216 71.925C109.161 71.61 110.001 71.295 110.841 71.085C111.471 70.875 112.311 70.98 113.256 71.295C114.096 71.715 114.936 71.715 115.986 71.505C116.826 71.4 117.561 71.4 118.086 71.4C118.821 71.505 119.556 71.82 120.291 72.345C120.921 72.975 121.341 73.71 121.446 74.55C121.446 75.18 121.551 75.915 121.551 76.65C121.551 77.49 120.921 78.015 119.766 78.225C118.611 78.435 117.141 78.435 115.461 78.225C113.676 78.015 112.206 77.805 110.946 77.49C110.421 77.49 109.686 77.385 108.741 77.28C107.691 77.28 106.746 77.28 105.696 77.28C104.646 77.28 103.596 77.28 102.651 77.28C101.601 77.385 100.866 77.385 100.446 77.385H99.9205C99.9205 78.645 99.9205 79.905 100.026 81.165C100.026 82.53 100.131 84.21 100.131 86.1C100.131 87.36 100.131 88.725 100.236 90.195C100.236 91.77 100.236 93.24 100.236 94.71L102.756 94.395C103.596 94.29 104.226 94.185 104.856 93.975C105.276 93.975 105.696 93.87 106.116 93.66C106.431 93.66 106.746 93.555 107.166 93.345C107.376 93.345 107.796 93.135 108.216 92.925C109.161 92.61 110.001 92.295 110.841 92.085C111.471 91.875 112.311 91.98 113.256 92.295C114.096 92.715 114.936 92.715 115.986 92.505C116.826 92.4 117.561 92.4 118.086 92.4C118.821 92.505 119.556 92.82 120.291 93.345C120.921 93.975 121.341 94.71 121.446 95.55C121.446 96.18 121.551 96.915 121.551 97.65C121.551 98.49 120.921 99.015 119.766 99.225C118.611 99.435 117.141 99.435 115.461 99.225C113.676 99.015 112.206 98.805 110.946 98.49C110.421 98.49 109.686 98.385 108.741 98.28C107.691 98.28 106.746 98.28 105.696 98.28C104.646 98.28 103.596 98.28 102.651 98.28C101.601 98.385 100.866 98.385 100.446 98.385H100.131V100.485C99.9205 104.265 99.9205 107.31 99.9205 109.83C99.8155 112.455 99.8155 114.24 99.8155 115.185C99.8155 116.865 99.6055 118.65 99.3955 120.645C98.9755 122.64 98.6605 124.635 98.2405 126.525C97.7155 128.415 97.1905 130.095 96.7705 131.67C96.1405 133.14 95.7205 134.295 95.3005 134.925C94.8805 135.555 94.3555 136.29 93.9355 137.025C93.3055 137.655 92.8855 138.075 92.4655 138.39C91.9405 138.6 91.6255 138.495 91.4155 138.075C91.2055 137.55 91.2055 136.5 91.5205 134.925C91.7305 133.35 91.9405 130.935 92.1505 127.68C92.1505 124.32 92.2555 120.75 92.3605 116.865C92.3605 113.085 92.3605 109.305 92.3605 105.525C92.2555 101.85 92.2555 98.805 92.2555 96.495C92.3605 94.71 92.3605 92.82 92.2555 90.93C92.0455 89.04 92.0455 86.835 92.0455 84.105C91.9405 82.425 91.9405 80.64 91.9405 78.75C91.8355 76.965 91.8355 75.285 91.8355 73.815C91.8355 72.45 91.8355 71.295 91.8355 70.35C91.8355 69.51 91.8355 68.985 91.9405 68.88C92.1505 68.67 92.4655 68.46 92.7805 68.46C92.9905 68.46 93.0955 68.25 93.3055 67.725C93.3055 67.515 93.3055 67.2 93.2005 66.99C92.9905 66.78 92.8855 66.57 92.7805 66.255C92.5705 66.045 92.3605 65.73 92.2555 65.31C92.0455 64.995 92.0455 64.575 92.1505 63.945C92.2555 63.21 92.3605 62.37 92.3605 61.32C92.2555 60.48 92.2555 59.535 92.2555 58.485C92.1505 56.385 92.1505 54.81 92.3605 53.655C92.3605 52.605 92.3605 51.66 92.2555 50.61C92.1505 49.875 92.1505 49.035 92.1505 48.09C92.0455 47.25 91.6255 46.515 90.7855 45.78C89.9455 45.15 89.2105 44.73 88.4755 44.415C87.6355 44.205 87.0055 43.89 86.3755 43.47C85.9555 43.26 85.7455 43.05 85.7455 42.63C85.6405 42.315 85.7455 42 85.9555 41.58C86.0605 41.37 86.3755 41.055 86.7955 40.845C87.2155 40.74 87.7405 40.74 88.4755 40.95C88.7905 41.16 89.4205 41.265 90.4705 41.475C91.3105 41.79 92.3605 42.105 93.6205 42.315C94.6705 42.735 95.8255 43.05 96.9805 43.26C98.0305 43.575 98.8705 43.785 99.6055 43.89C100.551 44.205 101.286 44.52 101.916 44.73C102.441 45.15 102.546 45.78 102.231 46.83C101.811 47.985 101.496 49.14 101.181 50.4C100.761 51.765 100.551 53.13 100.551 54.6C100.551 55.545 100.446 56.805 100.446 58.485C100.341 60.165 100.341 61.635 100.341 62.895ZM52.7755 78.855C51.8305 79.695 51.0955 80.115 50.4655 80.22C49.7305 80.43 49.1005 80.43 48.6805 80.22C47.6305 80.325 46.7905 80.955 46.2655 82.11C45.6355 83.37 45.2155 84.42 45.1105 85.47C44.9005 86.73 44.9005 87.885 45.0055 89.04C45.0055 90.3 45.3205 91.35 45.8455 92.4C46.2655 93.45 46.8955 94.395 47.9455 95.235C48.8905 96.075 50.2555 96.705 51.9355 97.125C54.0355 97.755 55.9255 97.86 57.8155 97.65C59.4955 97.44 61.1755 97.02 62.7505 96.39C64.7455 94.815 66.0055 93.03 66.6355 90.93C67.1605 89.04 67.4755 86.835 67.6855 84.525C67.7905 82.11 67.1605 80.01 65.9005 78.12C64.5355 76.335 62.7505 75.18 60.4405 74.76C59.6005 74.655 58.6555 74.655 57.6055 74.655C56.4505 74.76 55.5055 74.76 54.6655 74.76C54.6655 76.44 54.0355 77.805 52.7755 78.855Z" fill="#F6C500"/>
<rect x="150.75" y="60.75" width="150" height="180" fill="white"/>
<rect x="150.75" y="60.75" width="150" height="180" stroke="#F6C500" stroke-width="1.5"/>
<path d="M236.442 163.845C236.757 163.425 236.967 163.11 236.967 162.9C236.862 162.69 236.757 162.585 236.547 162.48C236.337 162.48 236.022 162.48 235.812 162.48C235.392 162.48 235.077 162.48 234.867 162.48C233.712 162.375 232.662 162.375 231.717 162.48C230.667 162.69 229.722 163.005 228.882 163.32C228.357 163.53 227.727 163.845 226.992 164.055C226.152 164.475 225.417 164.79 224.577 165C223.737 165.42 222.897 165.735 222.057 165.945C221.217 166.26 220.482 166.47 220.062 166.47C219.642 166.575 219.117 166.785 218.277 166.995C217.332 167.31 216.387 167.625 215.442 167.835C214.392 168.255 213.447 168.465 212.607 168.675C211.662 168.885 211.032 168.99 210.612 168.99C209.772 168.99 209.142 168.57 208.722 167.94C208.302 167.31 207.987 166.68 207.882 165.945C207.882 165.63 207.777 165.105 207.777 164.37C207.567 163.74 207.462 163.005 207.462 162.165C207.357 161.43 207.252 160.695 207.252 160.065C207.147 159.435 207.147 159.015 207.252 158.7C207.357 158.175 207.672 157.86 208.302 157.65C208.722 157.545 209.142 157.755 209.352 158.175C209.562 159.435 210.087 160.17 210.822 160.485C211.452 160.905 212.922 161.115 215.232 161.115C215.757 161.22 216.597 161.22 217.752 161.01C218.802 160.905 220.062 160.695 221.322 160.485C222.477 160.38 223.632 160.17 224.682 159.96C225.627 159.75 226.362 159.645 226.782 159.54C227.517 159.435 228.357 159.225 229.302 159.015C230.142 158.91 231.087 158.805 232.032 158.7C232.452 158.7 232.977 158.7 233.712 158.7C234.342 158.805 234.867 158.91 235.497 158.91C236.127 159.015 236.862 159.12 237.597 159.225C237.702 159.225 237.912 159.225 238.122 159.12C238.542 159.015 238.962 158.7 239.592 158.07C240.012 157.65 240.642 157.44 241.482 157.44C242.322 157.65 243.162 157.965 244.002 158.49C244.212 158.7 244.632 158.805 245.052 158.91C245.367 159.12 245.787 159.33 246.207 159.54C246.522 159.855 246.837 160.17 247.152 160.485C247.362 160.905 247.467 161.22 247.467 161.64C247.362 162.48 247.152 163.32 246.732 164.265C246.207 165.315 244.947 166.26 242.952 167.31C242.007 167.94 240.957 168.36 239.907 168.675C238.752 169.095 237.597 169.305 236.547 169.515C235.392 169.83 234.342 170.04 233.292 170.25C232.242 170.565 231.297 170.88 230.457 171.09C229.932 171.3 229.302 171.51 228.462 171.93C227.622 172.35 226.677 172.77 225.837 172.98C224.997 173.4 224.262 173.61 223.737 173.82C223.107 174.135 222.687 174.345 222.477 174.45C222.057 174.87 222.057 175.08 222.687 175.185C223.107 175.395 223.842 175.5 224.892 175.5C225.732 175.605 226.782 175.605 227.832 175.605C228.777 175.605 229.512 175.605 229.932 175.605C230.667 175.605 231.192 175.5 231.507 175.185C231.717 174.975 232.137 174.66 232.557 174.24C232.977 173.82 233.502 173.61 234.132 173.4C234.762 173.4 235.707 173.4 237.177 173.4C238.542 173.505 239.697 173.61 240.537 173.82C241.272 174.03 241.902 174.24 242.322 174.24C242.532 174.24 242.847 174.345 243.267 174.555C243.582 174.765 243.897 175.08 244.107 175.395C244.212 175.815 244.212 176.235 244.002 176.655C243.792 177.18 243.162 177.705 242.112 178.23C241.062 178.86 239.487 179.595 237.177 180.54C234.867 181.485 232.452 182.535 230.037 183.585C227.517 184.53 225.207 185.37 223.317 186.21C221.217 186.945 220.062 187.47 219.852 187.68C219.222 187.995 219.117 188.415 219.327 188.835C219.537 189.255 219.957 189.465 220.797 189.675C221.217 189.675 221.952 189.885 223.107 190.305C224.157 190.62 225.417 190.935 226.782 191.355C228.042 191.67 229.302 191.985 230.562 192.405C231.717 192.615 232.557 192.825 233.082 192.93C233.922 193.035 234.972 193.14 236.337 193.245C237.597 193.245 238.857 193.14 240.222 193.14C241.482 193.035 242.742 192.93 244.002 192.93C245.157 192.72 246.102 192.615 246.732 192.51C247.992 192.09 249.462 191.88 251.037 191.67C252.507 191.355 253.452 191.25 254.082 191.25C254.292 191.25 254.817 191.145 255.552 191.145C256.182 191.04 256.917 191.04 257.757 191.04C258.387 191.04 259.017 191.04 259.647 191.145C260.172 191.145 260.382 191.355 260.382 191.67C260.172 192.3 260.382 192.72 260.907 193.035C261.327 193.245 261.642 193.35 261.957 193.35C262.062 193.35 262.272 193.35 262.587 193.35C262.797 193.35 263.007 193.35 263.217 193.455C263.322 193.455 263.427 193.56 263.427 193.77C263.427 193.98 263.217 194.295 263.007 194.715C262.377 195.555 261.537 196.185 260.592 196.71C259.542 197.13 258.597 197.34 257.757 197.55C257.022 197.655 256.077 197.865 254.922 198.18C253.662 198.39 252.297 198.6 251.037 198.81C249.672 199.02 248.412 199.23 247.152 199.44C245.892 199.545 244.842 199.65 244.107 199.65C243.267 199.65 242.427 199.65 241.377 199.65C240.222 199.545 239.067 199.44 238.017 199.44C236.757 199.335 235.602 199.23 234.552 199.125C233.292 198.915 232.242 198.6 231.402 198.285C230.457 197.97 229.407 197.655 228.147 197.235C226.782 196.71 225.522 196.29 224.262 195.87C223.002 195.45 221.847 195.03 220.902 194.715C219.852 194.295 219.222 194.085 218.907 193.98C218.067 193.56 217.227 193.455 216.282 193.665C215.232 193.665 214.077 193.77 212.817 193.77C211.347 193.77 210.297 193.56 209.667 193.14C208.827 192.72 208.512 191.88 208.722 190.725C208.722 189.465 208.932 188.415 209.247 187.365C209.457 186.21 209.982 185.685 211.032 185.685C212.082 185.685 213.027 185.685 214.077 185.895C214.917 186 215.862 185.895 216.702 185.685C217.542 185.265 218.592 184.95 219.642 184.635C220.587 184.215 221.532 183.795 222.582 183.27C223.527 182.64 223.947 182.22 223.842 182.01C223.632 181.8 223.107 181.695 222.372 181.695C221.742 181.695 220.902 181.8 219.747 181.8C218.487 181.8 217.332 181.695 216.177 181.59C214.917 181.38 213.867 180.96 213.027 180.54C212.082 180.12 211.662 179.49 211.872 178.65C211.872 177.81 211.977 177.075 212.082 176.55C212.082 176.13 212.292 175.815 212.502 175.5C212.607 175.29 212.817 175.08 213.132 174.87C213.342 174.66 213.657 174.45 214.287 174.03C214.602 173.82 215.442 173.505 216.702 172.875C217.962 172.455 219.432 171.825 221.112 171.09C222.792 170.46 224.472 169.725 226.362 168.885C228.147 168.255 229.827 167.52 231.402 166.785C232.032 166.575 232.977 166.155 234.132 165.525C235.182 165.105 236.022 164.475 236.442 163.845ZM235.812 133.71L236.652 130.665C236.442 130.875 236.337 130.875 236.127 130.875C235.917 130.98 235.707 131.085 235.497 131.19C233.817 131.925 232.032 132.45 230.142 132.87C228.147 133.395 226.362 134.13 224.682 135.075C222.792 136.125 220.692 137.28 218.382 138.33C215.967 139.59 213.342 140.01 210.507 139.8C209.352 139.8 208.407 139.695 207.672 139.59C206.832 139.59 206.307 139.275 205.887 138.855C205.467 138.435 205.152 137.805 205.047 136.755C204.837 135.81 204.732 134.34 204.732 132.45C204.732 131.19 204.942 130.14 205.152 129.09C205.362 128.145 205.572 127.2 205.992 126.36C206.307 125.52 206.832 124.785 207.462 123.945C207.987 123.21 208.617 122.37 209.457 121.425C211.032 119.64 212.712 118.17 214.602 116.91C216.282 115.86 217.647 115.02 218.487 114.39C219.012 113.97 219.327 113.655 219.327 113.445C219.327 113.235 219.117 113.13 218.907 113.13C217.857 113.445 217.017 113.76 216.177 114.18C215.337 114.6 214.077 114.705 212.397 114.495C210.717 114.39 209.352 113.76 208.092 112.71C206.727 111.66 205.782 110.61 205.257 109.35C204.627 108.3 204.522 107.355 204.942 106.515C205.257 105.885 205.677 105.78 206.307 106.2C206.832 106.725 207.987 107.145 209.772 107.565C211.452 108.09 213.132 108.3 214.812 108.3C215.547 108.3 216.597 108.195 217.857 107.985C219.117 107.88 220.377 107.67 221.847 107.46C223.212 107.355 224.577 107.145 225.942 106.935C227.202 106.725 228.252 106.62 229.092 106.41C230.352 106.2 231.297 105.99 231.927 105.78C232.557 105.675 233.187 105.255 234.027 104.415C234.447 104.1 234.867 103.68 235.497 103.155C235.917 102.735 236.442 102.315 237.072 101.895C237.597 101.58 238.227 101.265 238.962 101.055C239.592 100.845 240.222 100.845 240.852 100.95C242.112 101.37 243.162 101.79 244.212 102.315C245.052 102.945 245.892 103.47 246.732 103.785C248.307 104.415 248.832 105.465 248.412 106.935C247.887 108.09 246.627 108.72 244.527 108.72C244.002 108.72 243.267 108.825 242.322 109.035C241.272 109.245 240.117 109.56 238.962 109.77C237.702 110.085 236.442 110.4 235.182 110.61C233.922 111.03 232.767 111.24 231.822 111.345L230.457 111.87C229.617 112.29 228.672 112.71 227.622 113.13C226.467 113.76 225.312 114.285 224.157 114.915C222.897 115.545 221.847 116.175 220.797 116.805C219.747 117.54 218.907 118.17 218.382 118.8C217.647 119.64 217.017 120.27 216.387 120.69C215.757 121.32 215.127 121.845 214.707 122.37C214.182 123 213.762 123.735 213.447 124.365C213.027 125.205 212.817 126.15 212.607 127.2C212.397 127.83 212.397 128.46 212.502 129.09C212.502 129.825 212.712 130.455 213.027 130.875C213.237 131.4 213.552 131.715 214.182 131.925C214.707 132.135 215.442 132.135 216.492 131.925C218.907 131.505 221.112 130.875 223.107 130.245C224.997 129.72 226.677 129.195 228.147 128.565C230.142 127.83 231.822 127.305 233.082 127.095C234.342 126.99 235.077 126.885 235.497 126.675C235.917 126.36 236.442 126.15 236.967 125.94C237.387 125.94 237.702 125.835 238.122 125.73C238.647 124.365 239.067 123.525 239.382 123.105C239.592 122.895 240.117 122.58 240.747 122.265C241.272 122.055 241.902 121.74 242.637 121.53C243.267 121.32 244.002 121.215 244.842 121.215C245.472 121.215 246.102 121.32 246.732 121.53C247.782 121.95 248.727 122.685 249.357 123.63C249.882 124.68 250.197 125.73 250.302 126.675C250.407 127.725 250.302 128.355 249.882 128.565C249.357 128.985 248.727 129.405 247.887 129.93C247.047 130.455 246.312 130.98 245.577 131.4C244.737 131.925 244.107 132.345 243.792 132.765C243.372 133.185 242.952 133.29 242.637 133.29C242.217 133.395 241.692 133.395 240.957 133.395C240.117 133.395 239.592 133.5 239.277 133.5C238.857 133.605 238.437 133.815 238.122 134.235C237.702 134.655 237.072 134.865 236.442 134.76C235.707 134.76 235.497 134.445 235.812 133.71ZM183.732 147.57C184.992 147.99 186.462 148.095 188.142 147.99C189.612 147.99 191.292 147.885 193.182 147.675C193.812 147.675 195.282 147.57 197.592 147.36C199.692 147.15 202.212 146.94 205.152 146.625C207.987 146.415 211.032 146.1 214.287 145.785C217.437 145.575 220.482 145.26 223.317 144.945C226.047 144.735 228.462 144.42 230.457 144.21C232.347 144 233.607 143.895 234.132 143.895C234.972 143.895 236.442 143.685 238.647 143.475C240.747 143.265 243.057 143.055 245.472 142.74C247.782 142.53 249.882 142.32 251.772 142.11C253.662 142.005 254.712 141.9 255.132 141.9C255.447 141.9 255.867 141.69 256.287 141.27C256.707 140.85 257.127 140.43 257.757 140.01C258.177 139.695 258.807 139.38 259.437 139.17C259.962 139.065 260.592 139.17 261.432 139.59C262.062 140.01 262.797 140.535 263.637 141.165C264.372 141.795 265.107 142.425 265.947 142.95C266.577 143.58 267.312 144.105 267.942 144.525C268.467 145.05 268.887 145.365 269.307 145.575C269.622 145.785 269.832 146.205 270.042 146.625C270.147 147.15 270.147 147.675 270.147 148.095C269.937 148.62 269.727 149.04 269.517 149.355C269.097 149.775 268.677 149.88 268.257 149.775C267.417 149.775 266.367 149.67 265.107 149.67C263.742 149.775 262.377 149.88 260.907 150.09C259.332 150.3 257.862 150.615 256.392 150.93C254.922 151.35 253.662 151.77 252.612 152.4C251.037 153.24 249.882 153.45 249.147 153.135C248.307 152.925 248.622 152.4 249.882 151.35C250.407 150.93 251.037 150.405 251.772 149.67C252.402 149.04 253.032 148.41 253.557 147.78C253.977 147.15 254.187 146.625 254.397 146.205C254.397 145.785 254.187 145.575 253.557 145.575C252.927 145.575 251.667 145.68 249.987 145.785C248.202 145.995 246.312 146.1 244.317 146.31C242.217 146.52 240.117 146.73 238.227 146.94C236.232 147.255 234.657 147.465 233.607 147.675C232.767 147.885 231.507 148.2 229.722 148.515C227.832 148.935 225.732 149.25 223.422 149.67C220.902 150.195 218.382 150.72 215.862 151.14C213.132 151.77 210.717 152.19 208.407 152.61C205.992 153.135 203.997 153.555 202.317 153.765C200.532 154.185 199.377 154.395 198.957 154.5C198.117 154.71 197.172 154.815 196.227 154.815C195.177 155.025 194.232 155.025 193.287 155.025C192.237 155.025 191.187 154.92 190.347 154.71C189.402 154.605 188.562 154.395 187.932 153.975C186.462 153.24 185.412 152.505 184.572 151.875C183.732 151.35 182.892 150.825 182.157 150.3C181.737 150.09 181.422 149.775 181.317 149.355C181.107 149.04 181.002 148.725 181.212 148.305C181.212 148.095 181.527 147.78 181.947 147.57C182.367 147.36 182.892 147.36 183.732 147.57Z" fill="#F6C500"/>
<rect x="300.75" y="60.75" width="150" height="180" fill="white"/>
<rect x="300.75" y="60.75" width="150" height="180" stroke="#F6C500" stroke-width="1.5"/>
<path d="M361.806 130.875C363.171 131.085 364.641 131.295 366.216 131.715C367.686 132.24 369.051 132.975 370.416 133.92C371.676 134.97 372.831 136.125 373.776 137.595C374.616 139.17 375.036 141.06 375.246 143.16C375.246 144.21 375.246 144.84 375.246 145.26C375.141 145.68 375.036 145.995 375.036 146.205C374.826 146.415 374.721 146.625 374.616 146.625C374.406 146.73 374.196 146.835 374.196 147.045C374.091 147.255 374.091 147.465 374.196 147.465C374.196 147.675 374.301 147.78 374.511 147.99C374.511 148.2 374.616 148.515 374.721 148.83C374.721 149.25 374.721 149.88 374.511 150.51C373.881 152.505 373.146 154.605 372.201 156.705C371.151 159.015 369.576 160.8 367.581 162.165C366.531 163.005 365.271 163.635 364.011 163.95C362.646 164.37 361.386 164.685 360.126 164.79C358.761 165 357.606 165 356.556 165C355.401 165 354.561 165 353.931 165C352.251 164.79 350.676 164.37 349.206 163.74C347.526 163.215 346.161 162.69 345.006 162.06C342.906 161.01 341.436 159.54 340.386 157.65C339.336 155.865 338.601 153.975 338.286 151.98C337.866 150.09 337.866 148.095 338.076 146.205C338.286 144.42 338.601 142.95 339.231 141.69C339.756 140.325 340.596 138.855 341.856 137.28C342.906 135.81 344.481 134.55 346.371 133.29C345.951 132.24 345.636 131.085 345.216 130.035C344.796 129.09 344.376 128.355 343.956 127.83C343.536 127.41 343.221 126.99 343.221 126.57C343.116 126.15 343.221 125.835 343.431 125.52C343.641 125.31 343.956 125.1 344.376 124.995C344.691 124.995 345.111 125.205 345.636 125.52C346.056 125.835 346.476 126.045 346.896 126.255C347.211 126.57 347.631 126.78 348.051 126.99C348.471 127.2 348.891 127.41 349.521 127.62C349.941 127.935 350.571 128.25 351.411 128.565C352.041 128.985 352.566 129.51 353.091 130.14C353.511 130.875 353.931 131.61 354.246 132.45C355.086 132.135 356.136 131.715 357.501 131.295C358.761 130.98 360.126 130.875 361.806 130.875ZM421.446 150.3C421.446 150.93 421.551 151.665 421.551 152.4C421.551 153.24 420.921 153.765 419.766 153.975C418.611 154.185 417.141 154.185 415.461 153.975C413.676 153.765 412.206 153.555 410.946 153.24C410.421 153.24 409.686 153.135 408.741 153.03C407.691 153.03 406.746 153.03 405.696 153.03C404.646 153.03 403.596 153.03 402.651 153.03C401.601 153.135 400.866 153.135 400.446 153.135H400.236C400.236 154.605 400.236 155.865 400.236 157.125C400.131 158.385 400.131 159.54 400.131 160.485C399.921 164.265 399.921 167.31 399.921 169.83C399.816 172.455 399.816 174.24 399.816 175.185C399.816 176.865 399.606 178.65 399.396 180.645C398.976 182.64 398.661 184.635 398.241 186.525C397.716 188.415 397.191 190.095 396.771 191.67C396.141 193.14 395.721 194.295 395.301 194.925C394.881 195.555 394.356 196.29 393.936 197.025C393.306 197.655 392.886 198.075 392.466 198.39C391.941 198.6 391.626 198.495 391.416 198.075C391.206 197.55 391.206 196.5 391.521 194.925C391.731 193.35 391.941 190.935 392.151 187.68C392.151 184.32 392.256 180.75 392.361 176.865C392.361 173.085 392.361 169.305 392.361 165.525C392.256 161.85 392.256 158.805 392.256 156.495C392.361 154.71 392.361 152.82 392.256 150.93C392.046 149.04 392.046 146.835 392.046 144.105C391.941 142.425 391.941 140.64 391.941 138.75C391.836 136.965 391.836 135.285 391.836 133.815C391.836 132.45 391.836 131.295 391.836 130.35C391.836 129.51 391.836 128.985 391.941 128.88C392.151 128.67 392.466 128.46 392.781 128.46C392.991 128.46 393.096 128.25 393.306 127.725C393.306 127.515 393.306 127.2 393.201 126.99C392.991 126.78 392.886 126.57 392.781 126.255C392.571 126.045 392.361 125.73 392.256 125.31C392.046 124.995 392.046 124.575 392.151 123.945C392.256 123.21 392.361 122.37 392.361 121.32C392.256 120.48 392.256 119.535 392.256 118.485C392.151 116.385 392.151 114.81 392.361 113.655C392.361 112.605 392.361 111.66 392.256 110.61C392.151 109.875 392.151 109.035 392.151 108.09C392.046 107.25 391.626 106.515 390.786 105.78C389.946 105.15 389.211 104.73 388.476 104.415C387.636 104.205 387.006 103.89 386.376 103.47C385.956 103.26 385.746 103.05 385.746 102.63C385.641 102.315 385.746 102 385.956 101.58C386.061 101.37 386.376 101.055 386.796 100.845C387.216 100.74 387.741 100.74 388.476 100.95C388.791 101.16 389.421 101.265 390.471 101.475C391.311 101.79 392.361 102.105 393.621 102.315C394.671 102.735 395.826 103.05 396.981 103.26C398.031 103.575 398.871 103.785 399.606 103.89C400.551 104.205 401.286 104.52 401.916 104.73C402.441 105.15 402.546 105.78 402.231 106.83C401.811 107.985 401.496 109.14 401.181 110.4C400.761 111.765 400.551 113.13 400.551 114.6C400.551 115.545 400.446 116.805 400.446 118.485C400.341 120.165 400.341 121.635 400.341 122.895C400.341 123.525 400.236 124.26 400.236 125.205C400.131 126.255 400.131 127.41 400.131 128.46C400.026 129.615 400.026 130.665 400.026 131.61C399.921 132.66 399.921 133.5 399.921 134.025C399.921 135.18 399.921 136.125 400.026 136.965C400.026 137.91 400.026 138.75 400.026 139.59C400.026 140.535 400.026 141.48 400.131 142.425C400.131 143.475 400.131 144.735 400.131 146.1V149.46L402.756 149.145C403.596 149.04 404.226 148.935 404.856 148.725C405.276 148.725 405.696 148.62 406.116 148.41C406.431 148.41 406.746 148.305 407.166 148.095C407.376 148.095 407.796 147.885 408.216 147.675C409.161 147.36 410.001 147.045 410.841 146.835C411.471 146.625 412.311 146.73 413.256 147.045C414.096 147.465 414.936 147.465 415.986 147.255C416.826 147.15 417.561 147.15 418.086 147.15C418.821 147.255 419.556 147.57 420.291 148.095C420.921 148.725 421.341 149.46 421.446 150.3ZM352.776 138.855C351.831 139.695 351.096 140.115 350.466 140.22C349.731 140.43 349.101 140.43 348.681 140.22C347.631 140.325 346.791 140.955 346.266 142.11C345.636 143.37 345.216 144.42 345.111 145.47C344.901 146.73 344.901 147.885 345.006 149.04C345.006 150.3 345.321 151.35 345.846 152.4C346.266 153.45 346.896 154.395 347.946 155.235C348.891 156.075 350.256 156.705 351.936 157.125C354.036 157.755 355.926 157.86 357.816 157.65C359.496 157.44 361.176 157.02 362.751 156.39C364.746 154.815 366.006 153.03 366.636 150.93C367.161 149.04 367.476 146.835 367.686 144.525C367.791 142.11 367.161 140.01 365.901 138.12C364.536 136.335 362.751 135.18 360.441 134.76C359.601 134.655 358.656 134.655 357.606 134.655C356.451 134.76 355.506 134.76 354.666 134.76C354.666 136.44 354.036 137.805 352.776 138.855Z" fill="#F6C500"/>
<rect x="450.75" y="60.75" width="150" height="180" fill="white"/>
<rect x="450.75" y="60.75" width="150" height="180" stroke="#F6C500" stroke-width="1.5"/>
<path d="M571.446 150.3C571.446 150.93 571.551 151.665 571.551 152.4C571.551 153.24 570.921 153.765 569.766 153.975C568.611 154.185 567.141 154.185 565.461 153.975C563.676 153.765 562.206 153.555 560.946 153.24C560.421 153.24 559.686 153.135 558.741 153.03C557.691 153.03 556.746 153.03 555.696 153.03C554.646 153.03 553.596 153.03 552.651 153.03C551.601 153.135 550.866 153.135 550.446 153.135H550.236C550.236 154.605 550.236 155.865 550.236 157.125C550.131 158.385 550.131 159.54 550.131 160.485C549.921 164.265 549.921 167.31 549.921 169.83C549.816 172.455 549.816 174.24 549.816 175.185C549.816 176.865 549.606 178.65 549.396 180.645C548.976 182.64 548.661 184.635 548.241 186.525C547.716 188.415 547.191 190.095 546.771 191.67C546.141 193.14 545.721 194.295 545.301 194.925C544.881 195.555 544.356 196.29 543.936 197.025C543.306 197.655 542.886 198.075 542.466 198.39C541.941 198.6 541.626 198.495 541.416 198.075C541.206 197.55 541.206 196.5 541.521 194.925C541.731 193.35 541.941 190.935 542.151 187.68C542.151 184.32 542.256 180.75 542.361 176.865C542.361 173.085 542.361 169.305 542.361 165.525C542.256 161.85 542.256 158.805 542.256 156.495C542.361 154.71 542.361 152.82 542.256 150.93C542.046 149.04 542.046 146.835 542.046 144.105C541.941 142.425 541.941 140.64 541.941 138.75C541.836 136.965 541.836 135.285 541.836 133.815C541.836 132.45 541.836 131.295 541.836 130.35C541.836 129.51 541.836 128.985 541.941 128.88C542.151 128.67 542.466 128.46 542.781 128.46C542.991 128.46 543.096 128.25 543.306 127.725C543.306 127.515 543.306 127.2 543.201 126.99C542.991 126.78 542.886 126.57 542.781 126.255C542.571 126.045 542.361 125.73 542.256 125.31C542.046 124.995 542.046 124.575 542.151 123.945C542.256 123.21 542.361 122.37 542.361 121.32C542.256 120.48 542.256 119.535 542.256 118.485C542.151 116.385 542.151 114.81 542.361 113.655C542.361 112.605 542.361 111.66 542.256 110.61C542.151 109.875 542.151 109.035 542.151 108.09C542.046 107.25 541.626 106.515 540.786 105.78C539.946 105.15 539.211 104.73 538.476 104.415C537.636 104.205 537.006 103.89 536.376 103.47C535.956 103.26 535.746 103.05 535.746 102.63C535.641 102.315 535.746 102 535.956 101.58C536.061 101.37 536.376 101.055 536.796 100.845C537.216 100.74 537.741 100.74 538.476 100.95C538.791 101.16 539.421 101.265 540.471 101.475C541.311 101.79 542.361 102.105 543.621 102.315C544.671 102.735 545.826 103.05 546.981 103.26C548.031 103.575 548.871 103.785 549.606 103.89C550.551 104.205 551.286 104.52 551.916 104.73C552.441 105.15 552.546 105.78 552.231 106.83C551.811 107.985 551.496 109.14 551.181 110.4C550.761 111.765 550.551 113.13 550.551 114.6C550.551 115.545 550.446 116.805 550.446 118.485C550.341 120.165 550.341 121.635 550.341 122.895C550.341 123.525 550.236 124.26 550.236 125.205C550.131 126.255 550.131 127.41 550.131 128.46C550.026 129.615 550.026 130.665 550.026 131.61C549.921 132.66 549.921 133.5 549.921 134.025C549.921 135.18 549.921 136.125 550.026 136.965C550.026 137.91 550.026 138.75 550.026 139.59C550.026 140.535 550.026 141.48 550.131 142.425C550.131 143.475 550.131 144.735 550.131 146.1V149.46L552.756 149.145C553.596 149.04 554.226 148.935 554.856 148.725C555.276 148.725 555.696 148.62 556.116 148.41C556.431 148.41 556.746 148.305 557.166 148.095C557.376 148.095 557.796 147.885 558.216 147.675C559.161 147.36 560.001 147.045 560.841 146.835C561.471 146.625 562.311 146.73 563.256 147.045C564.096 147.465 564.936 147.465 565.986 147.255C566.826 147.15 567.561 147.15 568.086 147.15C568.821 147.255 569.556 147.57 570.291 148.095C570.921 148.725 571.341 149.46 571.446 150.3ZM517.791 165C516.951 165.21 515.901 165.21 514.641 165.105C513.381 165.105 512.016 165.105 510.651 164.895C509.181 164.79 507.816 164.58 506.556 164.265C505.191 164.055 504.036 163.845 503.196 163.635L503.406 164.79C503.406 165.63 503.301 166.26 503.196 166.89C502.986 167.52 502.461 168.045 501.726 168.36C500.886 168.78 500.151 168.78 499.416 168.57C498.576 168.465 497.841 167.835 497.106 166.785C496.476 166.05 495.741 164.58 494.901 162.27C493.956 160.17 493.011 157.755 492.066 155.235C491.016 152.715 490.071 150.3 489.231 147.885C488.286 145.575 487.656 143.895 487.236 142.845C486.711 141.795 486.291 140.85 486.081 140.01C485.661 139.17 485.451 138.33 485.241 137.49C485.031 136.755 484.821 135.915 484.716 135.075C484.506 134.235 484.296 133.29 484.296 132.24C484.086 131.19 484.086 130.455 484.296 130.035C484.296 129.72 484.506 129.615 484.821 129.615C485.031 129.72 485.346 129.93 485.661 130.14C485.871 130.455 486.186 130.665 486.396 130.875C486.921 131.4 487.656 132.03 488.601 132.765C489.441 133.605 490.281 134.025 490.911 134.025C491.226 134.025 491.751 134.13 492.381 134.235C493.011 134.445 493.641 134.655 494.271 134.865C494.901 135.285 495.426 135.705 496.056 136.125C496.581 136.755 496.896 137.385 497.106 138.225C497.316 139.065 497.526 140.115 497.736 141.27C497.946 142.53 498.156 143.685 498.366 144.735C498.576 145.995 498.786 147.045 498.996 147.885C499.101 148.935 499.206 149.565 499.416 149.775C499.416 150.09 499.626 150.615 499.836 151.245C500.046 151.98 500.256 152.715 500.466 153.555C500.676 154.395 500.886 155.235 501.096 156.075C501.201 157.02 501.306 157.755 501.516 158.385C501.516 158.49 501.621 158.49 501.726 158.49C502.566 159.33 503.826 159.645 505.506 159.54C506.976 159.54 508.446 159.435 509.706 159.225C512.226 158.91 513.906 158.28 514.746 157.335C515.481 156.495 516.006 155.025 516.321 152.925C516.321 151.98 516.426 150.615 516.531 148.725C516.531 147.045 516.531 145.26 516.531 143.37C516.531 141.585 516.531 139.905 516.531 138.435C516.426 136.965 516.426 136.02 516.426 135.6C516.426 134.865 516.111 134.235 515.586 133.815C514.956 133.395 513.906 133.29 512.331 133.5C511.491 133.71 510.546 133.815 509.391 133.92C508.131 134.13 506.976 134.235 505.821 134.34C504.561 134.55 503.511 134.655 502.566 134.655C501.516 134.865 500.781 134.865 500.361 134.865C499.941 134.865 499.416 134.865 498.996 134.655C498.366 134.655 497.946 134.445 497.736 134.235C497.421 134.13 497.316 133.92 497.421 133.605C497.421 133.395 497.841 132.975 498.681 132.555C499.416 132.24 500.361 131.82 501.411 131.4C502.461 131.085 503.511 130.77 504.666 130.35C505.716 130.035 506.661 129.615 507.606 129.195C508.446 128.775 509.181 128.355 509.811 127.83C510.756 126.885 511.701 125.94 512.646 124.89C513.486 124.05 514.536 123.525 516.006 123.525C516.636 123.525 517.266 123.63 517.896 123.63C518.421 123.84 519.051 123.945 519.681 124.05C520.311 124.26 520.941 124.47 521.781 124.575C522.516 124.785 523.356 124.89 524.406 124.89C525.246 124.995 526.086 125.205 526.926 125.52C527.556 125.94 528.081 126.36 528.501 126.885C528.711 127.515 528.816 128.25 528.711 128.88C528.501 129.615 527.871 130.35 527.031 131.085C526.086 131.925 525.351 132.555 524.931 132.975C524.301 133.5 523.986 134.025 523.776 134.445C523.566 135.075 523.461 135.705 523.461 136.335C523.461 137.07 523.461 138.015 523.671 139.275C523.671 140.535 523.776 141.9 523.881 143.58C523.881 145.365 523.881 147.045 523.881 148.725C523.881 150.405 523.881 151.98 523.881 153.24C523.881 154.71 523.881 155.655 523.881 156.075C523.881 157.23 523.671 158.07 523.251 158.595C522.726 159.225 522.096 159.855 521.256 160.59C520.416 161.43 519.891 162.27 519.576 163.215C519.156 164.265 518.631 164.895 517.791 165Z" fill="#F6C500"/>
<rect x="600.75" y="0.75" width="150" height="180" fill="white"/>
<rect x="600.75" y="0.75" width="150" height="180" stroke="#F6C500" stroke-width="1.5"/>
<path d="M721.446 90.3C721.446 90.93 721.551 91.665 721.551 92.4C721.551 93.24 720.921 93.765 719.766 93.975C718.611 94.185 717.141 94.185 715.461 93.975C713.676 93.765 712.206 93.555 710.946 93.24C710.421 93.24 709.686 93.135 708.741 93.03C707.691 93.03 706.746 93.03 705.696 93.03C704.646 93.03 703.596 93.03 702.651 93.03C701.601 93.135 700.866 93.135 700.446 93.135H700.236C700.236 94.605 700.236 95.865 700.236 97.125C700.131 98.385 700.131 99.54 700.131 100.485C699.921 104.265 699.921 107.31 699.921 109.83C699.816 112.455 699.816 114.24 699.816 115.185C699.816 116.865 699.606 118.65 699.396 120.645C698.976 122.64 698.661 124.635 698.241 126.525C697.716 128.415 697.191 130.095 696.771 131.67C696.141 133.14 695.721 134.295 695.301 134.925C694.881 135.555 694.356 136.29 693.936 137.025C693.306 137.655 692.886 138.075 692.466 138.39C691.941 138.6 691.626 138.495 691.416 138.075C691.206 137.55 691.206 136.5 691.521 134.925C691.731 133.35 691.941 130.935 692.151 127.68C692.151 124.32 692.256 120.75 692.361 116.865C692.361 113.085 692.361 109.305 692.361 105.525C692.256 101.85 692.256 98.805 692.256 96.495C692.361 94.71 692.361 92.82 692.256 90.93C692.046 89.04 692.046 86.835 692.046 84.105C691.941 82.425 691.941 80.64 691.941 78.75C691.836 76.965 691.836 75.285 691.836 73.815C691.836 72.45 691.836 71.295 691.836 70.35C691.836 69.51 691.836 68.985 691.941 68.88C692.151 68.67 692.466 68.46 692.781 68.46C692.991 68.46 693.096 68.25 693.306 67.725C693.306 67.515 693.306 67.2 693.201 66.99C692.991 66.78 692.886 66.57 692.781 66.255C692.571 66.045 692.361 65.73 692.256 65.31C692.046 64.995 692.046 64.575 692.151 63.945C692.256 63.21 692.361 62.37 692.361 61.32C692.256 60.48 692.256 59.535 692.256 58.485C692.151 56.385 692.151 54.81 692.361 53.655C692.361 52.605 692.361 51.66 692.256 50.61C692.151 49.875 692.151 49.035 692.151 48.09C692.046 47.25 691.626 46.515 690.786 45.78C689.946 45.15 689.211 44.73 688.476 44.415C687.636 44.205 687.006 43.89 686.376 43.47C685.956 43.26 685.746 43.05 685.746 42.63C685.641 42.315 685.746 42 685.956 41.58C686.061 41.37 686.376 41.055 686.796 40.845C687.216 40.74 687.741 40.74 688.476 40.95C688.791 41.16 689.421 41.265 690.471 41.475C691.311 41.79 692.361 42.105 693.621 42.315C694.671 42.735 695.826 43.05 696.981 43.26C698.031 43.575 698.871 43.785 699.606 43.89C700.551 44.205 701.286 44.52 701.916 44.73C702.441 45.15 702.546 45.78 702.231 46.83C701.811 47.985 701.496 49.14 701.181 50.4C700.761 51.765 700.551 53.13 700.551 54.6C700.551 55.545 700.446 56.805 700.446 58.485C700.341 60.165 700.341 61.635 700.341 62.895C700.341 63.525 700.236 64.26 700.236 65.205C700.131 66.255 700.131 67.41 700.131 68.46C700.026 69.615 700.026 70.665 700.026 71.61C699.921 72.66 699.921 73.5 699.921 74.025C699.921 75.18 699.921 76.125 700.026 76.965C700.026 77.91 700.026 78.75 700.026 79.59C700.026 80.535 700.026 81.48 700.131 82.425C700.131 83.475 700.131 84.735 700.131 86.1V89.46L702.756 89.145C703.596 89.04 704.226 88.935 704.856 88.725C705.276 88.725 705.696 88.62 706.116 88.41C706.431 88.41 706.746 88.305 707.166 88.095C707.376 88.095 707.796 87.885 708.216 87.675C709.161 87.36 710.001 87.045 710.841 86.835C711.471 86.625 712.311 86.73 713.256 87.045C714.096 87.465 714.936 87.465 715.986 87.255C716.826 87.15 717.561 87.15 718.086 87.15C718.821 87.255 719.556 87.57 720.291 88.095C720.921 88.725 721.341 89.46 721.446 90.3ZM645.741 89.67C646.161 89.67 646.896 89.355 647.946 88.935C648.891 88.62 650.046 88.2 651.411 87.57C652.671 87.045 654.141 86.415 655.821 85.68C657.291 85.05 658.866 84.42 660.546 83.79C661.491 81.795 662.541 79.59 663.591 77.28C664.641 74.97 665.481 72.87 666.321 70.98C666.741 69.93 666.951 69.3 666.951 68.88C666.846 68.67 666.426 68.565 665.796 68.775C664.746 69.195 663.381 69.615 661.806 70.035C660.126 70.56 658.551 71.085 656.871 71.505C655.191 72.03 653.616 72.555 652.146 73.08C650.676 73.71 649.521 74.235 648.681 74.865C648.261 75.285 648.051 75.6 647.946 75.81C647.736 76.125 647.526 76.335 647.526 76.545C647.316 76.86 647.211 77.07 647.106 77.07C646.896 77.28 646.686 77.28 646.476 77.28C645.216 77.28 644.166 78.015 643.536 79.59C643.116 80.43 642.696 80.955 642.066 80.955C641.436 81.06 640.806 80.955 640.281 80.535C639.756 80.115 639.546 79.59 639.651 78.75C639.651 78.015 639.756 77.175 639.756 76.23C639.756 75.81 639.651 75.39 639.441 74.97C639.126 74.655 638.811 74.235 638.601 73.815C638.181 73.5 637.971 73.185 637.761 72.765C637.551 72.555 637.446 72.24 637.446 71.82C637.446 71.295 637.551 70.665 637.551 69.825C637.551 69.09 637.656 68.355 637.971 67.515C638.181 66.675 638.601 66.255 639.021 66.255C639.336 66.36 639.546 66.675 639.756 67.2C639.861 67.83 640.491 68.46 641.751 68.985C642.801 69.615 644.586 69.72 646.896 69.3C647.631 69.195 648.471 69.09 649.416 68.88C650.256 68.775 651.306 68.565 652.566 68.145L665.901 64.47C666.846 64.26 667.476 63.945 667.896 63.525C668.211 63.315 668.526 63 668.841 62.58C669.051 62.265 669.576 61.74 670.416 61.11C671.046 60.48 671.781 60.375 672.621 60.69C673.461 61.11 674.511 61.635 675.981 62.055C677.346 62.685 678.396 63 679.236 63C679.971 63 680.496 63.315 680.706 63.735C680.811 64.365 680.811 64.785 680.706 65.205C680.601 65.625 680.496 66.045 680.496 66.465C680.286 66.99 680.076 67.305 679.761 67.305C679.131 67.41 678.606 67.725 677.976 68.25C677.346 68.88 676.716 69.615 676.086 70.35C675.666 70.875 674.931 72.135 673.776 74.025C672.516 76.02 671.256 78.12 669.996 80.325C671.571 79.8 672.936 79.275 674.196 78.855C675.351 78.54 676.191 78.33 676.821 78.12C677.346 78.015 677.871 77.91 678.396 77.91C678.816 77.91 679.131 78.015 679.341 78.12C679.446 78.33 679.446 78.54 679.236 78.75C678.921 79.17 678.291 79.59 677.451 80.01C676.191 80.745 674.616 81.48 672.831 82.215C670.941 83.055 669.156 83.895 667.371 84.63L664.746 89.145C663.906 90.72 662.856 92.4 661.701 94.08C660.441 95.97 659.181 97.755 657.921 99.645C656.556 101.535 655.191 103.425 653.931 105.21C652.461 107.1 651.201 108.78 649.941 110.355C648.786 111.825 647.736 112.875 646.686 113.61C645.531 114.45 644.271 115.29 642.801 116.025C641.961 116.445 641.331 116.655 640.806 116.55C640.176 116.55 639.651 116.655 639.441 116.655C638.601 117.075 637.866 116.865 637.236 116.13C636.711 115.815 636.396 115.395 636.396 114.765C636.291 114.24 636.606 113.925 637.446 113.925C638.076 113.925 639.021 113.925 640.176 113.82C641.226 113.82 642.066 113.4 642.906 112.77C644.166 111.615 645.426 110.04 646.791 108.045C648.051 106.155 649.416 104.16 650.676 101.85C651.936 99.75 653.196 97.545 654.456 95.235C655.611 93.03 656.766 91.035 657.816 89.145C657.816 89.145 657.816 89.04 658.026 88.83C655.296 90.195 652.986 91.35 651.096 92.4C648.996 93.555 647.841 94.29 647.526 94.5C646.581 95.235 645.741 95.865 645.111 96.285C644.376 96.915 643.746 97.125 643.221 97.125C642.906 97.125 642.696 97.02 642.486 96.6C642.171 96.39 641.961 96.075 641.751 95.655C641.436 95.445 641.121 95.13 640.911 94.71C640.596 94.5 640.281 94.29 640.071 94.29C639.336 94.29 638.916 94.185 638.706 94.08C638.391 94.08 638.076 94.08 637.656 94.08C637.446 94.08 637.341 93.975 637.236 93.765C637.026 93.66 636.921 93.45 636.921 93.135C636.816 92.925 636.921 92.61 637.131 92.295C637.236 92.085 637.551 91.98 638.181 91.77C639.126 91.455 640.176 91.14 641.436 90.825C642.486 90.615 643.956 90.195 645.741 89.67Z" fill="#F6C500"/>
<rect x="750.75" y="60.75" width="150" height="180" fill="white"/>
<rect x="750.75" y="60.75" width="150" height="180" stroke="#F6C500" stroke-width="1.5"/>
<path d="M783.942 180.015C784.572 180.12 785.517 180.12 786.567 179.91C787.512 179.805 788.457 179.595 789.507 179.385C789.927 179.28 790.557 179.07 791.502 178.86C792.342 178.65 793.287 178.44 794.337 178.23C795.282 178.02 796.332 177.915 797.382 177.705C798.432 177.6 799.272 177.495 800.112 177.495C800.952 177.6 801.897 177.705 802.947 177.81C803.997 178.02 804.942 178.125 805.992 178.125C806.517 178.125 807.567 178.02 809.037 177.81C810.507 177.6 812.187 177.39 814.077 177.075V176.97C815.547 176.55 817.017 175.815 818.487 174.87C819.852 174.03 821.112 172.98 822.372 171.825C823.422 170.775 824.577 169.725 825.627 168.57C826.572 167.52 827.517 166.575 828.357 165.525C829.827 163.845 831.087 161.955 832.137 160.065C833.082 158.28 833.712 156.915 834.132 155.865C834.552 155.025 834.762 154.29 834.762 153.66C834.657 153.135 834.027 152.715 832.767 152.4C831.717 152.505 830.877 152.505 830.247 152.505C829.407 152.61 828.882 152.61 828.567 152.61C827.307 152.61 826.572 152.4 826.152 151.77C825.627 151.35 825.312 150.615 825.207 149.565C825.207 149.145 824.997 148.725 824.787 148.41C824.472 148.2 824.262 147.885 824.052 147.465C823.737 147.15 823.527 146.73 823.422 146.205C823.212 145.785 823.317 145.05 823.632 144C823.842 143.16 824.262 142.32 824.787 141.585C825.207 140.955 825.837 140.43 826.467 139.8C827.097 139.38 827.727 138.855 828.462 138.33C829.092 137.91 829.722 137.28 830.352 136.65C830.877 136.02 831.507 135.18 832.347 134.025C833.082 132.975 833.817 131.925 834.657 130.665C835.392 129.615 836.127 128.46 836.757 127.41C837.387 126.465 837.807 125.73 838.122 125.205C838.542 124.26 838.647 123.42 838.332 122.685C837.912 122.055 836.862 121.95 835.077 122.475C834.027 122.895 832.977 123.21 831.927 123.525C830.667 123.945 829.512 124.26 828.462 124.575C827.307 124.995 826.362 125.31 825.522 125.52C824.577 125.94 823.947 126.15 823.632 126.36C823.212 126.57 823.002 126.885 822.792 127.2C822.477 127.62 822.162 128.04 821.952 128.355C821.637 128.775 821.322 129.195 821.007 129.405C820.587 129.72 820.167 129.825 819.642 129.825C818.382 129.825 817.227 129.615 816.072 129.09C814.812 128.67 813.867 128.145 813.132 127.305C812.397 126.465 811.977 125.73 811.872 124.995C811.662 124.365 811.662 123.84 811.872 123.315C811.977 122.895 812.607 122.685 813.867 122.685C814.707 122.79 815.862 122.79 817.122 122.58C818.382 122.58 819.327 122.37 820.167 121.95C820.797 121.74 821.952 121.32 823.422 120.69C824.787 120.27 826.257 119.745 827.727 119.115C829.197 118.695 830.562 118.17 831.927 117.645C833.187 117.225 834.027 116.91 834.657 116.7C835.077 116.49 835.497 116.28 835.812 115.86C836.022 115.545 836.337 115.125 836.757 114.705C836.967 114.39 837.387 114.075 837.807 113.76C838.122 113.55 838.647 113.55 839.487 113.55C840.852 113.76 842.427 113.97 844.317 114.18C845.997 114.6 847.362 114.705 848.307 114.705C849.357 114.6 850.092 114.81 850.512 115.44C850.932 116.07 851.352 116.91 851.982 117.96C852.192 118.59 852.402 119.22 852.612 119.955C852.717 120.795 852.717 121.53 852.717 122.37C852.507 123.21 852.192 124.05 851.772 124.785C851.247 125.625 850.407 126.36 849.357 126.99C848.307 127.62 847.047 128.46 845.577 129.72C844.002 130.98 842.427 132.345 840.957 133.71C839.277 135.18 837.807 136.44 836.442 137.595C834.972 138.855 833.922 139.8 833.187 140.22C831.612 141.27 830.877 142.215 830.982 142.845C830.982 143.685 831.507 144 832.767 144C833.397 144 834.237 144 835.287 143.895C836.337 143.895 837.387 143.79 838.542 143.58C839.592 143.58 840.537 143.475 841.587 143.265C842.427 143.265 843.057 143.16 843.477 143.16C843.897 143.16 844.317 143.37 844.842 143.79C845.262 144.21 845.682 144.735 846.102 145.155C846.522 145.68 846.837 146.1 847.257 146.52C847.572 147.045 847.782 147.36 847.992 147.36C848.097 147.57 848.307 147.78 848.517 147.99C848.727 148.41 848.832 148.725 848.937 149.04C848.937 149.46 848.727 149.88 848.517 150.195C848.202 150.615 847.677 150.825 846.837 150.825H846.732C846.207 151.035 845.787 151.35 845.367 151.665C844.842 152.085 844.212 152.715 843.582 153.45C842.847 154.395 842.007 155.445 841.167 156.495C840.117 157.755 839.172 158.805 838.332 159.855C837.387 161.01 836.652 161.955 836.022 162.795C835.287 163.635 834.867 164.265 834.657 164.475C834.237 165.105 833.607 165.735 832.977 166.575C832.137 167.415 831.402 168.255 830.667 169.095C829.827 170.04 829.197 170.88 828.567 171.51C827.937 172.35 827.517 172.875 827.307 173.19C826.782 173.82 826.467 174.45 826.362 174.975C826.152 175.605 826.677 175.815 828.147 175.815L844.002 174.975C845.892 174.975 847.782 174.66 849.672 174.03C851.352 173.61 852.717 173.19 853.767 172.77C854.607 172.56 855.552 172.56 856.602 172.56C857.547 172.665 858.597 172.77 859.647 172.98C860.592 173.19 861.537 173.505 862.482 173.715C863.322 174.03 863.952 174.24 864.477 174.45C865.317 174.975 866.052 175.395 866.682 175.71C867.312 176.13 867.942 176.76 868.782 177.495C869.517 178.23 869.832 178.965 869.622 179.7C869.412 180.54 868.782 180.855 867.732 180.96C867.102 180.96 866.262 180.96 865.107 180.96C863.847 180.855 862.692 180.855 861.432 180.855C860.067 180.75 858.807 180.75 857.757 180.855C856.497 180.855 855.762 180.855 855.342 180.96C854.817 180.96 854.187 180.96 853.557 180.96C852.717 180.75 851.982 180.645 851.352 180.435C850.512 180.33 849.882 180.12 849.252 179.91C848.622 179.805 848.097 179.7 847.677 179.595C847.257 179.595 846.207 179.49 844.632 179.385C842.952 179.385 840.957 179.385 838.857 179.385C836.652 179.385 834.447 179.385 832.347 179.385C830.037 179.49 828.252 179.595 826.782 179.7C823.317 180.015 819.957 180.435 816.597 180.855C813.237 181.275 809.982 181.905 806.832 182.745C804.627 183.165 803.157 183.48 802.317 183.795C801.372 184.005 800.637 184.425 800.112 185.055C799.587 185.58 799.062 185.895 798.642 186.105C798.012 186.105 797.172 186 796.017 185.685C795.387 185.475 794.547 185.37 793.287 185.16C792.027 184.95 790.662 184.74 789.297 184.53C787.827 184.215 786.567 184.005 785.517 183.795C784.257 183.48 783.522 183.27 783.207 183.165C782.787 183.06 782.472 182.85 782.262 182.535C781.947 182.115 781.842 181.695 781.842 181.38C781.842 180.96 781.947 180.645 782.367 180.33C782.577 180.12 783.102 180.015 783.942 180.015ZM815.442 143.16C815.442 143.58 815.547 144 815.652 144.525C815.652 145.155 815.757 145.785 815.757 146.31C815.652 146.94 815.547 147.36 815.442 147.78C815.232 148.305 814.812 148.62 814.392 148.62C813.762 148.83 813.552 149.145 813.657 149.67C813.657 150.3 813.552 150.72 813.447 151.14C813.447 151.455 813.237 151.77 812.817 152.19C812.397 152.61 811.872 153.03 811.452 153.24C810.822 153.66 810.297 153.87 809.772 153.87C809.142 154.08 808.722 153.87 808.407 153.45C807.147 152.295 806.307 150.72 806.097 148.725C805.677 146.835 805.467 144.735 805.257 142.425C805.047 140.535 804.837 138.54 804.417 136.65C803.892 134.865 803.472 133.5 803.157 132.45C802.842 131.4 802.317 130.035 801.582 128.355C800.742 126.885 799.692 125.73 798.432 125.1C797.907 124.89 797.487 124.575 797.277 124.26C796.857 124.05 796.647 123.735 796.647 123.42C796.542 123.21 796.647 123 797.067 122.79C797.382 122.685 798.012 122.58 798.957 122.475C800.742 122.37 802.422 122.58 804.102 123.21C805.572 123.945 806.832 124.68 807.882 125.415C808.932 126.36 809.982 127.515 810.822 128.985C811.662 130.455 812.397 132.03 813.027 133.71C813.657 135.39 814.182 137.07 814.602 138.645C815.022 140.325 815.232 141.9 815.442 143.16Z" fill="#F6C500"/>
<rect x="900.75" y="60.75" width="150" height="180" fill="white"/>
<rect x="900.75" y="60.75" width="150" height="180" stroke="#F6C500" stroke-width="1.5"/>
<path d="M963.869 130.875C965.234 131.085 966.704 131.295 968.279 131.715C969.749 132.24 971.114 132.975 972.479 133.92C973.739 134.97 974.894 136.125 975.839 137.595C976.679 139.17 977.099 141.06 977.309 143.16C977.309 144.21 977.309 144.84 977.309 145.26C977.204 145.68 977.099 145.995 977.099 146.205C976.889 146.415 976.784 146.625 976.679 146.625C976.469 146.73 976.259 146.835 976.259 147.045C976.154 147.255 976.154 147.465 976.259 147.465C976.259 147.675 976.364 147.78 976.574 147.99C976.574 148.2 976.679 148.515 976.784 148.83C976.784 149.25 976.784 149.88 976.574 150.51C975.944 152.505 975.209 154.605 974.264 156.705C973.214 159.015 971.639 160.8 969.644 162.165C968.594 163.005 967.334 163.635 966.074 163.95C964.709 164.37 963.449 164.685 962.189 164.79C960.824 165 959.669 165 958.619 165C957.464 165 956.624 165 955.994 165C954.314 164.79 952.739 164.37 951.269 163.74C949.589 163.215 948.224 162.69 947.069 162.06C944.969 161.01 943.499 159.54 942.449 157.65C941.399 155.865 940.664 153.975 940.349 151.98C939.929 150.09 939.929 148.095 940.139 146.205C940.349 144.42 940.664 142.95 941.294 141.69C941.819 140.325 942.659 138.855 943.919 137.28C944.969 135.81 946.544 134.55 948.434 133.29C948.014 132.24 947.699 131.085 947.279 130.035C946.859 129.09 946.439 128.355 946.019 127.83C945.599 127.41 945.284 126.99 945.284 126.57C945.179 126.15 945.284 125.835 945.494 125.52C945.704 125.31 946.019 125.1 946.439 124.995C946.754 124.995 947.174 125.205 947.699 125.52C948.119 125.835 948.539 126.045 948.959 126.255C949.274 126.57 949.694 126.78 950.114 126.99C950.534 127.2 950.954 127.41 951.584 127.62C952.004 127.935 952.634 128.25 953.474 128.565C954.104 128.985 954.629 129.51 955.154 130.14C955.574 130.875 955.994 131.61 956.309 132.45C957.149 132.135 958.199 131.715 959.564 131.295C960.824 130.98 962.189 130.875 963.869 130.875ZM979.934 155.34C978.254 155.13 977.519 154.605 977.519 153.975C977.414 153.45 977.834 153.135 978.884 152.925C979.304 152.925 979.724 152.82 980.144 152.715C980.354 152.715 980.774 152.715 981.194 152.61C981.614 152.61 982.139 152.505 982.769 152.4C983.294 152.4 984.134 152.4 985.184 152.4C986.444 152.4 988.229 152.19 990.749 151.77C993.059 151.35 995.474 150.93 997.889 150.3C997.889 149.46 997.889 148.41 997.889 147.36C997.784 146.415 997.784 145.365 997.784 144.105L997.574 137.91C996.734 138.435 995.999 138.75 995.159 138.75C994.529 138.96 993.794 139.065 992.849 139.275C991.799 139.59 990.854 139.8 989.909 140.01C988.859 140.22 988.019 140.43 987.179 140.43C986.234 140.64 985.604 140.535 985.184 140.325C984.764 140.115 984.449 139.905 984.239 139.59C983.819 139.38 983.504 139.065 983.189 138.75C982.769 138.54 982.349 138.225 981.929 137.91C981.299 137.7 980.669 137.595 979.934 137.49C978.254 137.28 977.519 136.755 977.519 136.125C977.414 135.6 977.834 135.285 978.884 135.075C979.304 135.075 979.724 134.97 980.144 134.865C980.354 134.865 980.774 134.865 981.194 134.76C981.614 134.76 982.139 134.655 982.769 134.55C983.294 134.55 984.134 134.55 985.184 134.55C986.339 134.55 988.124 134.34 990.539 133.92C992.849 133.5 995.159 133.08 997.574 132.45C997.574 131.61 997.574 130.875 997.574 130.035C997.574 129.405 997.574 128.985 997.679 128.88C997.889 128.67 998.204 128.46 998.519 128.46C998.729 128.46 998.834 128.25 999.044 127.725C999.044 127.515 999.044 127.2 998.939 126.99C998.729 126.78 998.624 126.57 998.519 126.255C998.309 126.045 998.099 125.73 997.994 125.31C997.784 124.995 997.784 124.575 997.889 123.945C997.994 123.21 998.099 122.37 998.099 121.32C997.994 120.48 997.994 119.535 997.994 118.485C997.889 116.385 997.889 114.81 998.099 113.655C998.099 112.605 998.099 111.66 997.994 110.61C997.889 109.875 997.889 109.035 997.889 108.09C997.784 107.25 997.364 106.515 996.524 105.78C995.684 105.15 994.949 104.73 994.214 104.415C993.374 104.205 992.744 103.89 992.114 103.47C991.694 103.26 991.484 103.05 991.484 102.63C991.379 102.315 991.484 102 991.694 101.58C991.799 101.37 992.114 101.055 992.534 100.845C992.954 100.74 993.479 100.74 994.214 100.95C994.529 101.16 995.159 101.265 996.209 101.475C997.049 101.79 998.099 102.105 999.359 102.315C1000.41 102.735 1001.56 103.05 1002.72 103.26C1003.77 103.575 1004.61 103.785 1005.34 103.89C1006.29 104.205 1007.02 104.52 1007.65 104.73C1008.18 105.15 1008.28 105.78 1007.97 106.83C1007.55 107.985 1007.23 109.14 1006.92 110.4C1006.5 111.765 1006.29 113.13 1006.29 114.6C1006.29 115.545 1006.18 116.805 1006.18 118.485C1006.08 120.165 1006.08 121.635 1006.08 122.895C1006.08 123.525 1005.97 124.26 1005.97 125.205C1005.87 126.255 1005.87 127.41 1005.87 128.46C1005.76 129.615 1005.76 130.665 1005.76 131.61C1005.66 132.66 1005.66 133.5 1005.66 134.025C1005.66 135.18 1005.66 136.125 1005.76 136.965C1005.76 137.91 1005.76 138.75 1005.76 139.59C1005.76 140.535 1005.76 141.48 1005.87 142.425C1005.87 143.475 1005.87 144.735 1005.87 146.1C1005.87 147.15 1005.87 148.305 1005.97 149.565C1005.97 150.93 1005.97 152.19 1005.97 153.45C1005.97 154.815 1005.97 156.075 1005.97 157.23C1005.87 158.49 1005.87 159.645 1005.87 160.485C1005.66 164.265 1005.66 167.31 1005.66 169.83C1005.55 172.455 1005.55 174.24 1005.55 175.185C1005.55 176.865 1005.34 178.65 1005.13 180.645C1004.71 182.64 1004.4 184.635 1003.98 186.525C1003.45 188.415 1002.93 190.095 1002.51 191.67C1001.88 193.14 1001.46 194.295 1001.04 194.925C1000.62 195.555 1000.09 196.29 999.674 197.025C999.044 197.655 998.624 198.075 998.204 198.39C997.679 198.6 997.364 198.495 997.154 198.075C996.944 197.55 996.944 196.5 997.259 194.925C997.469 193.35 997.679 190.935 997.889 187.68C997.889 184.32 997.994 180.75 998.099 176.865C998.099 173.085 998.099 169.305 998.099 165.525C997.994 161.85 997.994 158.805 997.994 156.495V155.55C997.154 156.075 996.209 156.39 995.159 156.6C994.529 156.81 993.794 156.915 992.849 157.125C991.799 157.44 990.854 157.65 989.909 157.86C988.859 158.07 988.019 158.28 987.179 158.28C986.234 158.49 985.604 158.385 985.184 158.175C984.764 157.965 984.449 157.755 984.239 157.44C983.819 157.23 983.504 156.915 983.189 156.6C982.769 156.39 982.349 156.075 981.929 155.76C981.299 155.55 980.669 155.445 979.934 155.34ZM954.839 138.855C953.894 139.695 953.159 140.115 952.529 140.22C951.794 140.43 951.164 140.43 950.744 140.22C949.694 140.325 948.854 140.955 948.329 142.11C947.699 143.37 947.279 144.42 947.174 145.47C946.964 146.73 946.964 147.885 947.069 149.04C947.069 150.3 947.384 151.35 947.909 152.4C948.329 153.45 948.959 154.395 950.009 155.235C950.954 156.075 952.319 156.705 953.999 157.125C956.099 157.755 957.989 157.86 959.879 157.65C961.559 157.44 963.239 157.02 964.814 156.39C966.809 154.815 968.069 153.03 968.699 150.93C969.224 149.04 969.539 146.835 969.749 144.525C969.854 142.11 969.224 140.01 967.964 138.12C966.599 136.335 964.814 135.18 962.504 134.76C961.664 134.655 960.719 134.655 959.669 134.655C958.514 134.76 957.569 134.76 956.729 134.76C956.729 136.44 956.099 137.805 954.839 138.855Z" fill="#F6C500"/>
<rect x="1050.75" y="0.75" width="150" height="180" fill="white"/>
<rect x="1050.75" y="0.75" width="150" height="180" stroke="#F6C500" stroke-width="1.5"/>
<path d="M1171.62 90.3C1171.62 90.93 1171.72 91.665 1171.72 92.4C1171.72 93.24 1171.09 93.765 1170.04 93.975C1168.99 94.185 1167.63 94.185 1165.95 93.975C1164.27 93.765 1162.8 93.555 1161.64 93.24C1161.22 93.24 1160.59 93.135 1159.86 93.03C1159.02 93.03 1158.07 93.03 1157.23 93.03C1156.29 93.03 1155.45 93.03 1154.61 93.03C1153.66 93.135 1152.93 93.135 1152.3 93.135C1152.3 94.605 1152.3 95.865 1152.3 97.125C1152.19 98.385 1152.19 99.54 1152.19 100.485C1151.98 104.265 1151.98 107.31 1151.98 109.83C1151.88 112.455 1151.88 114.24 1151.88 115.185C1151.88 116.865 1151.67 118.65 1151.46 120.645C1151.04 122.64 1150.72 124.635 1150.3 126.525C1149.78 128.415 1149.25 130.095 1148.83 131.67C1148.2 133.14 1147.78 134.295 1147.36 134.925C1146.94 135.555 1146.42 136.29 1146 137.025C1145.37 137.655 1144.95 138.075 1144.53 138.39C1144 138.6 1143.69 138.495 1143.48 138.075C1143.27 137.55 1143.27 136.5 1143.58 134.925C1143.79 133.665 1143.9 131.88 1144.11 129.57C1144.11 127.155 1144.21 124.53 1144.32 121.695C1144.32 118.755 1144.42 115.815 1144.42 112.665C1144.32 109.62 1144.32 106.68 1144.32 103.95C1143.48 104.475 1142.43 105 1141.27 105.42C1140.01 106.05 1138.75 106.47 1137.6 106.89C1136.34 107.415 1135.18 107.835 1134.24 108.045C1133.19 108.465 1132.45 108.675 1132.03 108.675C1131.09 108.885 1129.72 109.2 1127.94 109.515C1126.05 109.935 1124.05 110.355 1121.85 110.775C1119.54 111.3 1117.12 111.825 1114.71 112.245C1112.19 112.77 1109.77 113.19 1107.67 113.61C1105.47 114.135 1103.58 114.555 1102.11 114.765C1100.43 115.185 1099.38 115.395 1098.96 115.5C1098.12 115.71 1097.17 115.815 1096.23 115.815C1095.18 116.025 1094.23 116.025 1093.29 116.025C1092.24 116.025 1091.19 115.92 1090.35 115.71C1089.4 115.605 1088.56 115.395 1087.93 114.975C1086.46 114.24 1085.41 113.505 1084.57 112.875C1083.73 112.35 1082.89 111.825 1082.16 111.3C1081.74 111.09 1081.42 110.775 1081.32 110.355C1081.11 110.04 1081 109.725 1081.21 109.305C1081.21 109.095 1081.53 108.78 1081.95 108.57C1082.37 108.36 1082.89 108.36 1083.73 108.57C1084.99 108.99 1086.46 109.095 1088.14 108.99C1089.61 108.99 1091.29 108.885 1093.18 108.675C1093.71 108.675 1094.65 108.675 1096.02 108.465C1097.28 108.36 1098.75 108.15 1100.53 107.94C1102 107.52 1103.26 107.1 1104.31 106.68C1105.26 106.26 1106.1 105.84 1106.83 105.315C1107.46 104.895 1108.09 104.37 1108.72 103.74C1109.25 103.32 1109.88 102.69 1110.51 101.85C1110.93 101.43 1111.35 100.8 1111.98 100.065C1112.5 99.435 1113.03 98.7 1113.55 97.86C1113.97 97.23 1114.5 96.495 1114.92 95.865C1115.23 95.34 1115.55 94.92 1115.76 94.5C1115.86 94.185 1115.97 93.765 1116.07 93.24C1116.07 92.82 1115.65 92.295 1114.71 91.77C1112.82 91.14 1111.35 90.405 1110.3 89.355C1109.14 88.515 1108.2 87.57 1107.36 86.625C1106.83 86.205 1106.41 85.47 1105.99 84.63C1105.47 83.79 1105.15 82.95 1105.15 81.9C1105.05 80.955 1105.26 79.905 1105.89 78.75C1106.31 77.7 1107.36 76.65 1108.93 75.6C1110.4 74.655 1112.4 73.605 1115.02 72.345C1117.54 71.19 1120.06 70.035 1122.79 68.775C1122.79 66.255 1122.9 63.735 1123.11 61.425C1123.11 59.64 1122.69 58.38 1121.85 57.54C1120.9 56.91 1119.96 56.28 1118.91 55.65C1118.49 55.44 1118.17 55.125 1118.17 54.495C1117.96 53.97 1118.59 53.655 1119.96 53.55C1120.59 53.55 1121.53 53.55 1122.58 53.55C1123.53 53.76 1124.47 53.865 1125.52 53.97C1126.47 54.18 1127.41 54.39 1128.25 54.6C1128.99 54.81 1129.51 55.02 1129.72 55.125C1130.25 55.44 1130.88 55.965 1131.51 56.595C1132.03 57.33 1132.14 58.38 1131.82 59.85C1131.61 60.27 1131.51 60.585 1131.51 61.005C1131.3 61.425 1131.19 61.95 1131.09 62.475C1130.98 63 1130.98 63.42 1130.98 63.84C1130.88 64.365 1130.88 64.89 1130.88 65.31C1131.72 64.89 1132.56 64.575 1133.29 64.155C1133.92 63.945 1134.34 63.735 1134.66 63.525C1135.6 63 1136.23 62.895 1136.65 63.315C1136.97 63.735 1136.65 64.365 1135.71 65.1C1135.08 65.52 1134.34 66.045 1133.5 66.465C1132.56 67.095 1131.61 67.62 1130.67 68.145C1130.46 70.035 1130.35 71.925 1130.35 73.605C1130.25 75.39 1130.25 77.28 1130.46 79.275C1130.46 80.745 1130.46 82.425 1130.25 84.105C1130.04 85.995 1129.72 87.675 1129.51 89.25C1129.41 90.3 1129.09 90.93 1128.57 91.35C1127.94 91.875 1127.2 92.19 1126.47 92.295C1125.63 92.715 1125 93.03 1124.47 93.345C1123.84 93.765 1123.32 94.185 1123.11 94.5C1121.64 95.97 1120.38 97.545 1119.12 99.12C1117.75 100.8 1116.49 102.375 1115.23 103.95C1114.81 104.58 1114.71 105 1115.02 105.42C1115.23 105.84 1116.28 106.05 1118.17 105.84L1129.93 104.475C1130.77 104.475 1131.82 104.37 1133.08 104.055C1134.34 103.845 1135.6 103.425 1137.07 103.005C1138.33 102.585 1139.7 102.165 1141.06 101.64C1142.32 101.22 1143.37 100.8 1144.32 100.38V96.495C1144.42 94.71 1144.42 92.82 1144.32 90.93C1144.11 89.04 1144.11 86.835 1144.11 84.105C1144 82.425 1144 80.64 1144 78.75C1143.9 76.965 1143.9 75.285 1143.9 73.815C1143.9 72.45 1143.9 71.295 1143.9 70.35C1143.9 69.51 1143.9 68.985 1144 68.88C1144.21 68.67 1144.53 68.46 1144.84 68.46C1145.05 68.46 1145.16 68.25 1145.37 67.725C1145.37 67.515 1145.37 67.2 1145.26 66.99C1145.05 66.78 1144.95 66.57 1144.84 66.255C1144.63 66.045 1144.42 65.73 1144.32 65.31C1144.11 64.995 1144.11 64.575 1144.21 63.945C1144.32 63.21 1144.42 62.37 1144.42 61.32C1144.32 60.48 1144.32 59.535 1144.32 58.485C1144.21 56.385 1144.21 54.81 1144.42 53.655C1144.42 52.605 1144.42 51.66 1144.32 50.61C1144.21 49.875 1144.21 49.035 1144.21 48.09C1144.11 47.25 1143.69 46.515 1142.85 45.78C1142.01 45.15 1141.27 44.73 1140.54 44.415C1139.7 44.205 1139.07 43.89 1138.44 43.47C1138.02 43.26 1137.81 43.05 1137.81 42.63C1137.7 42.315 1137.81 42 1138.02 41.58C1138.12 41.37 1138.44 41.055 1138.86 40.845C1139.28 40.74 1139.8 40.74 1140.54 40.95C1140.85 41.16 1141.48 41.265 1142.53 41.475C1143.37 41.79 1144.42 42.105 1145.68 42.315C1146.73 42.735 1147.89 43.05 1149.04 43.26C1150.09 43.575 1150.93 43.785 1151.67 43.89C1152.61 44.205 1153.35 44.52 1153.98 44.73C1154.5 45.15 1154.61 45.78 1154.29 46.83C1153.87 47.985 1153.56 49.14 1153.24 50.4C1152.82 51.765 1152.61 53.13 1152.61 54.6C1152.61 55.545 1152.51 56.805 1152.51 58.485C1152.4 60.165 1152.4 61.635 1152.4 62.895C1152.4 63.525 1152.3 64.26 1152.3 65.205C1152.19 66.255 1152.19 67.41 1152.19 68.46C1152.09 69.615 1152.09 70.665 1152.09 71.61C1151.98 72.66 1151.98 73.5 1151.98 74.025C1151.98 75.18 1151.98 76.125 1152.09 76.965C1152.09 77.91 1152.09 78.75 1152.09 79.59C1152.09 80.535 1152.09 81.48 1152.19 82.425C1152.19 83.475 1152.19 84.735 1152.19 86.1V89.355C1152.51 89.355 1152.82 89.355 1153.14 89.25C1153.35 89.25 1153.56 89.25 1153.87 89.145C1155.45 88.935 1156.5 88.62 1157.02 88.41C1157.44 88.305 1158.18 88.095 1159.02 87.675C1159.86 87.36 1160.7 87.045 1161.54 86.835C1162.17 86.625 1163.01 86.73 1163.85 87.045C1164.58 87.465 1165.42 87.465 1166.37 87.255C1167.21 87.15 1167.94 87.15 1168.47 87.15C1169.2 87.255 1169.94 87.57 1170.57 88.095C1171.2 88.725 1171.51 89.46 1171.62 90.3ZM1092.13 63C1092.66 63.315 1093.5 63.735 1094.76 64.365C1095.81 64.995 1096.96 65.835 1098.22 66.78C1099.38 67.83 1100.43 68.985 1101.48 70.245C1102.32 71.715 1102.95 73.29 1103.16 75.075C1103.26 76.335 1103.26 77.595 1103.26 79.065C1103.05 80.64 1102.95 82.11 1102.74 83.58C1102.42 85.155 1102.11 86.52 1101.79 87.675C1101.37 88.935 1101.06 89.88 1100.74 90.3C1100.53 90.72 1100.22 91.035 1099.8 91.35C1099.27 91.77 1098.85 91.98 1098.43 91.98C1097.91 92.085 1097.49 91.98 1097.17 91.56C1096.75 91.35 1096.44 90.72 1096.33 89.775C1096.12 88.41 1095.81 86.625 1095.49 84.315C1095.07 82.215 1094.65 79.905 1094.23 77.385C1093.71 75.075 1093.18 72.765 1092.66 70.455C1092.03 68.355 1091.29 66.57 1090.56 65.1C1090.14 64.26 1089.93 63.735 1089.93 63.315C1089.93 63 1090.03 62.79 1090.24 62.685C1090.45 62.685 1090.77 62.685 1091.19 62.685C1091.5 62.895 1091.82 63 1092.13 63ZM1114.71 78.225C1113.66 79.065 1113.03 79.905 1112.92 80.85C1112.71 81.9 1113.34 82.95 1114.71 84C1115.34 84.42 1116.28 84.84 1117.75 85.26C1119.01 85.68 1120.48 85.995 1121.95 86.1C1122.06 84.63 1122.16 82.95 1122.37 81.27C1122.48 79.59 1122.58 78.12 1122.69 76.65V72.765C1121.95 73.29 1121.22 73.815 1120.38 74.34C1119.54 74.97 1118.7 75.495 1117.96 75.915C1117.12 76.545 1116.39 76.965 1115.86 77.385C1115.23 77.805 1114.92 78.12 1114.71 78.225Z" fill="#F6C500"/>
<rect x="1200.75" y="60.75" width="150" height="180" fill="white"/>
<rect x="1200.75" y="60.75" width="150" height="180" stroke="#F6C500" stroke-width="1.5"/>
<path d="M1321.45 150.3C1321.45 150.93 1321.55 151.665 1321.55 152.4C1321.55 153.24 1320.92 153.765 1319.77 153.975C1318.61 154.185 1317.14 154.185 1315.46 153.975C1313.68 153.765 1312.21 153.555 1310.95 153.24C1310.42 153.24 1309.69 153.135 1308.74 153.03C1307.69 153.03 1306.75 153.03 1305.7 153.03C1304.65 153.03 1303.6 153.03 1302.65 153.03C1301.6 153.135 1300.87 153.135 1300.45 153.135H1300.24C1300.24 154.605 1300.24 155.865 1300.24 157.125C1300.13 158.385 1300.13 159.54 1300.13 160.485C1299.92 164.265 1299.92 167.31 1299.92 169.83C1299.82 172.455 1299.82 174.24 1299.82 175.185C1299.82 176.865 1299.61 178.65 1299.4 180.645C1298.98 182.64 1298.66 184.635 1298.24 186.525C1297.72 188.415 1297.19 190.095 1296.77 191.67C1296.14 193.14 1295.72 194.295 1295.3 194.925C1294.88 195.555 1294.36 196.29 1293.94 197.025C1293.31 197.655 1292.89 198.075 1292.47 198.39C1291.94 198.6 1291.63 198.495 1291.42 198.075C1291.21 197.55 1291.21 196.5 1291.52 194.925C1291.73 193.35 1291.94 190.935 1292.15 187.68C1292.15 184.32 1292.26 180.75 1292.36 176.865C1292.36 173.085 1292.36 169.305 1292.36 165.525C1292.26 161.85 1292.26 158.805 1292.26 156.495C1292.36 154.71 1292.36 152.82 1292.26 150.93C1292.05 149.04 1292.05 146.835 1292.05 144.105C1291.94 142.425 1291.94 140.64 1291.94 138.75C1291.84 136.965 1291.84 135.285 1291.84 133.815C1291.84 132.45 1291.84 131.295 1291.84 130.35C1291.84 129.51 1291.84 128.985 1291.94 128.88C1292.15 128.67 1292.47 128.46 1292.78 128.46C1292.99 128.46 1293.1 128.25 1293.31 127.725C1293.31 127.515 1293.31 127.2 1293.2 126.99C1292.99 126.78 1292.89 126.57 1292.78 126.255C1292.57 126.045 1292.36 125.73 1292.26 125.31C1292.05 124.995 1292.05 124.575 1292.15 123.945C1292.26 123.21 1292.36 122.37 1292.36 121.32C1292.26 120.48 1292.26 119.535 1292.26 118.485C1292.15 116.385 1292.15 114.81 1292.36 113.655C1292.36 112.605 1292.36 111.66 1292.26 110.61C1292.15 109.875 1292.15 109.035 1292.15 108.09C1292.05 107.25 1291.63 106.515 1290.79 105.78C1289.95 105.15 1289.21 104.73 1288.48 104.415C1287.64 104.205 1287.01 103.89 1286.38 103.47C1285.96 103.26 1285.75 103.05 1285.75 102.63C1285.64 102.315 1285.75 102 1285.96 101.58C1286.06 101.37 1286.38 101.055 1286.8 100.845C1287.22 100.74 1287.74 100.74 1288.48 100.95C1288.79 101.16 1289.42 101.265 1290.47 101.475C1291.31 101.79 1292.36 102.105 1293.62 102.315C1294.67 102.735 1295.83 103.05 1296.98 103.26C1298.03 103.575 1298.87 103.785 1299.61 103.89C1300.55 104.205 1301.29 104.52 1301.92 104.73C1302.44 105.15 1302.55 105.78 1302.23 106.83C1301.81 107.985 1301.5 109.14 1301.18 110.4C1300.76 111.765 1300.55 113.13 1300.55 114.6C1300.55 115.545 1300.45 116.805 1300.45 118.485C1300.34 120.165 1300.34 121.635 1300.34 122.895C1300.34 123.525 1300.24 124.26 1300.24 125.205C1300.13 126.255 1300.13 127.41 1300.13 128.46C1300.03 129.615 1300.03 130.665 1300.03 131.61C1299.92 132.66 1299.92 133.5 1299.92 134.025C1299.92 135.18 1299.92 136.125 1300.03 136.965C1300.03 137.91 1300.03 138.75 1300.03 139.59C1300.03 140.535 1300.03 141.48 1300.13 142.425C1300.13 143.475 1300.13 144.735 1300.13 146.1V149.46L1302.76 149.145C1303.6 149.04 1304.23 148.935 1304.86 148.725C1305.28 148.725 1305.7 148.62 1306.12 148.41C1306.43 148.41 1306.75 148.305 1307.17 148.095C1307.38 148.095 1307.8 147.885 1308.22 147.675C1309.16 147.36 1310 147.045 1310.84 146.835C1311.47 146.625 1312.31 146.73 1313.26 147.045C1314.1 147.465 1314.94 147.465 1315.99 147.255C1316.83 147.15 1317.56 147.15 1318.09 147.15C1318.82 147.255 1319.56 147.57 1320.29 148.095C1320.92 148.725 1321.34 149.46 1321.45 150.3ZM1253.62 167.73C1256.14 167.52 1258.66 167.31 1261.39 166.995C1263.91 166.785 1266.53 166.155 1269.16 165.105C1270 164.895 1271.05 164.265 1272.2 163.425C1273.25 162.585 1273.99 161.535 1274.41 160.065L1275.98 153.555C1276.09 153.135 1276.3 152.715 1276.61 152.295C1276.82 151.98 1277.14 152.295 1277.45 153.345C1277.77 154.395 1277.87 155.13 1277.87 155.55C1277.66 156.075 1277.77 156.495 1278.19 156.705C1278.4 157.02 1278.71 157.125 1279.13 156.915C1279.45 156.915 1279.66 157.125 1279.87 157.65C1279.87 158.28 1280.08 158.7 1280.39 158.91C1280.6 159.225 1280.92 159.33 1281.13 159.225C1281.76 159.225 1282.28 159.75 1282.49 160.8C1282.49 161.22 1282.6 161.535 1283.02 161.745C1283.23 162.165 1283.44 162.585 1283.65 163.215C1283.65 163.95 1283.44 164.79 1282.81 165.63C1282.07 166.575 1281.34 167.31 1280.5 167.835C1279.45 168.57 1277.98 169.2 1275.88 169.725C1273.78 170.355 1271.78 170.775 1269.89 171.09C1267.16 171.51 1264.43 171.825 1261.6 172.035C1258.66 172.35 1255.82 172.455 1253.09 172.455C1251.52 172.455 1250.05 172.35 1248.79 172.035C1247.32 171.825 1246.16 171.405 1245.22 170.67C1244.17 170.04 1243.43 169.2 1242.91 167.94C1242.28 166.785 1241.96 165.21 1242.07 163.215C1242.07 159.855 1242.28 156.915 1242.49 154.395C1242.59 151.98 1242.7 150.405 1242.7 149.565V149.25C1242.28 149.04 1241.96 148.935 1241.65 148.725C1241.23 148.725 1241.02 148.515 1240.91 148.305C1240.7 148.2 1240.6 147.99 1240.81 147.78C1240.91 147.675 1241.33 147.465 1242.07 147.15C1241.86 146.835 1241.54 146.415 1241.33 145.995C1241.02 145.68 1240.7 145.365 1240.39 144.945C1239.34 144.21 1238.81 143.58 1238.81 142.95C1238.71 142.53 1239.34 142.32 1240.6 142.425C1241.86 142.635 1243.12 142.95 1244.48 143.37C1245.74 143.895 1246.9 144.42 1247.95 145.05C1247.95 145.155 1247.95 145.155 1248.16 145.155C1249.73 144.735 1251.31 144.21 1252.78 143.79C1254.14 143.37 1255.3 143.055 1256.35 142.635C1257.5 142.215 1258.34 141.69 1258.97 141.165C1259.5 140.745 1260.02 139.905 1260.55 138.435C1260.97 137.175 1261.6 135.6 1262.23 133.71C1262.86 132.03 1263.17 130.665 1263.38 129.615C1263.38 129.3 1263.49 128.88 1263.49 128.46C1263.49 128.145 1263.38 127.83 1263.38 127.515C1263.17 127.305 1262.96 127.095 1262.65 126.99C1262.23 126.99 1261.7 127.2 1261.07 127.41C1260.44 127.725 1259.39 128.04 1258.03 128.46C1256.56 128.985 1255.19 129.51 1253.72 129.93C1252.25 130.455 1250.89 130.875 1249.63 131.295C1248.37 131.82 1247.53 132.24 1247.11 132.45C1246.27 133.08 1245.32 133.605 1244.17 134.025C1242.91 134.55 1241.86 134.55 1241.12 134.025C1240.28 133.605 1239.65 132.975 1239.23 132.345C1238.81 131.82 1238.29 131.19 1237.76 130.35C1237.13 129.615 1237.03 129.09 1237.34 128.775C1237.55 128.565 1238.18 128.355 1239.02 128.25C1239.76 128.25 1240.7 128.145 1241.96 127.935C1243.12 127.83 1244.38 127.62 1245.85 127.2C1246.27 127.095 1247.42 126.78 1249.1 126.255C1250.78 125.835 1252.57 125.31 1254.46 124.68C1256.35 124.155 1258.13 123.63 1259.81 123C1261.49 122.58 1262.54 122.16 1263.17 121.95C1265.27 120.9 1267.16 120.69 1268.95 121.425C1269.89 121.845 1270.94 122.265 1272.1 122.79C1273.15 123.42 1273.88 124.05 1274.2 124.575C1274.51 125.205 1274.72 125.73 1274.72 126.15C1274.62 126.675 1274.62 127.305 1274.72 127.935C1274.72 128.565 1274.41 129.3 1273.78 130.14C1273.04 130.98 1272.52 131.61 1272.1 131.925C1271.89 132.135 1271.57 132.45 1271.26 132.975C1270.84 133.605 1270.42 134.235 1270 134.865C1269.58 135.6 1269.16 136.335 1268.74 136.965C1268.32 137.7 1267.9 138.33 1267.69 138.75C1267.27 139.38 1267.16 139.695 1267.48 139.8C1267.69 140.01 1268.11 140.01 1268.63 140.01C1268.95 140.01 1269.37 139.905 1270 139.905C1270.52 139.905 1270.94 140.325 1271.15 141.06C1271.26 141.9 1271.15 142.425 1270.84 142.845C1270.42 143.37 1269.89 143.895 1269.37 144.315C1268.74 144.945 1268 145.26 1267.16 145.26C1266.22 145.365 1265.17 145.575 1264.01 145.785C1262.23 146.205 1260.23 146.625 1258.03 147.045C1255.72 147.57 1253.93 148.095 1252.67 148.62C1252.25 148.83 1251.94 148.935 1251.73 149.145C1251.31 149.355 1250.99 149.565 1250.78 149.67C1250.57 150.3 1250.47 150.93 1250.47 151.35C1250.26 151.875 1250.05 152.4 1249.84 152.925C1249.42 153.765 1249.1 154.92 1248.89 156.6C1248.58 158.385 1248.37 159.96 1248.16 161.43C1247.95 162.48 1247.95 163.425 1248.05 164.16C1248.05 165 1248.37 165.735 1248.79 166.155C1249.1 166.785 1249.63 167.205 1250.47 167.415C1251.2 167.73 1252.25 167.835 1253.62 167.73Z" fill="#F6C500"/>
</svg>
