<svg width="302" height="76" viewBox="0 0 302 76" fill="none" xmlns="http://www.w3.org/2000/svg">
<rect x="0.5" y="0.5" width="301" height="75" fill="#F6C500"/>
<rect x="0.5" y="0.5" width="301" height="75" stroke="black"/>
<path d="M28.26 31.64H26.94V13.86H28.26V20.3H31.26V21.44H28.26V31.64ZM14.18 21.1C14.18 16.84 16.12 14.34 18.72 14.34C21.32 14.34 23.28 16.84 23.28 21.1C23.28 25.38 21.32 27.88 18.72 27.88C16.12 27.88 14.18 25.38 14.18 21.1ZM21.94 21.1C21.94 17.44 20.58 15.42 18.72 15.42C16.86 15.42 15.52 17.44 15.52 21.1C15.52 24.78 16.86 26.8 18.72 26.8C20.58 26.8 21.94 24.78 21.94 21.1ZM39.0384 28.62L37.8584 27.98C40.7984 24.64 42.0584 20.48 42.2584 16.12H38.7184V15.04H43.6384C43.5384 20.76 42.0584 24.98 39.0384 28.62ZM33.3384 27.54L32.1584 26.92C35.1584 23.84 36.4584 19.84 36.6784 16.12H33.0984V15.04H38.0984C37.9584 20.16 36.3584 24.26 33.3384 27.54ZM47.2984 31.64H46.0184V13.86H47.2984V20.8H49.8784V21.94H47.2984V31.64ZM23.04 58.8L23.24 59.8C22.22 60.12 20.98 60.24 19.8 60.24C15.98 60.24 14.16 57.68 14.14 54.34C14.1 51.24 15.98 48.6 19.2 48.62C22.5 48.62 23.98 50.76 23.98 53.94V54.66H15.42C15.5 57.16 16.92 59.26 19.84 59.24C20.86 59.24 22.02 59.12 23.04 58.8ZM15.38 53.68H22.72C22.72 53.64 22.76 53.46 22.72 53.42C22.7 51.04 21.38 49.62 19.2 49.62C16.72 49.62 15.54 51.6 15.38 53.68ZM28.5397 59.66C28.5397 60.3 28.0397 60.78 27.3997 60.78C26.7197 60.78 26.2197 60.3 26.2197 59.66C26.2197 59.06 26.7197 58.54 27.3997 58.54C28.0397 58.54 28.5397 59.06 28.5397 59.66ZM40.028 59.42V57.92H39.908C39.128 59.14 37.688 59.86 36.128 59.86C33.068 59.88 31.328 57.5 31.328 54.24C31.328 51 33.108 48.62 36.208 48.64C37.788 48.64 39.088 49.3 39.888 50.48H39.988V48.9H41.268V59.6C41.268 62.68 39.148 64.24 36.108 64.24C35.048 64.24 33.668 64.08 32.648 63.74L32.928 62.72C33.928 63.1 35.048 63.24 36.108 63.24C38.728 63.24 40.028 61.82 40.028 59.42ZM39.968 55.22V53.12C39.968 51.16 38.228 49.64 36.348 49.64C33.968 49.64 32.588 51.6 32.588 54.24C32.588 56.88 33.848 58.86 36.268 58.86C38.208 58.86 39.968 57.32 39.968 55.22ZM46.9186 59.66C46.9186 60.3 46.4186 60.78 45.7786 60.78C45.0986 60.78 44.5986 60.3 44.5986 59.66C44.5986 59.06 45.0986 58.54 45.7786 58.54C46.4186 58.54 46.9186 59.06 46.9186 59.66ZM69.4319 61.64H68.1119V43.86H69.4319V50.3H72.4319V51.44H69.4319V61.64ZM55.3519 51.1C55.3519 46.84 57.2919 44.34 59.8919 44.34C62.4919 44.34 64.4519 46.84 64.4519 51.1C64.4519 55.38 62.4919 57.88 59.8919 57.88C57.2919 57.88 55.3519 55.38 55.3519 51.1ZM63.1119 51.1C63.1119 47.44 61.7519 45.42 59.8919 45.42C58.0319 45.42 56.6919 47.44 56.6919 51.1C56.6919 54.78 58.0319 56.8 59.8919 56.8C61.7519 56.8 63.1119 54.78 63.1119 51.1ZM78.8503 58.38L77.6303 57.78C80.1703 54.52 81.2503 50.06 81.3703 46.24H78.8903V45.16H82.7503C82.6703 50.2 81.4703 54.68 78.8503 58.38ZM74.2303 57.46L73.0503 56.86C75.6503 53.84 76.8103 49.62 76.9703 46.24H74.0703V45.16H78.3503C78.2503 49.8 76.8903 54.16 74.2303 57.46ZM89.3303 61.64H88.0503V51.84H85.5303V60.8H84.2503V44.16H85.5303V50.66H88.0503V43.86H89.3303V61.64ZM108.214 50.9H99.0338V44.74H108.214V50.9ZM112.534 61.64H111.214V57.68H106.594V56.6H111.214V43.86H112.534V61.64ZM106.874 49.82V45.82H100.374V49.82H106.874ZM104.034 61.24H102.714V54.4H97.4938V53.32H104.034C106.274 53.32 108.754 53.1 110.454 52.8V53.86C108.834 54.2 106.554 54.38 104.034 54.4V61.24ZM138.557 55.6H121.117V54.56H129.137V52.94C126.077 52.84 123.897 52.08 123.897 50.6C123.897 49.02 126.417 48.28 129.797 48.28C133.197 48.28 135.697 49.02 135.697 50.6C135.697 52.08 133.537 52.84 130.517 52.94V54.56H138.557V55.6ZM134.357 50.6C134.357 49.72 132.377 49.28 129.797 49.28C127.237 49.28 125.257 49.72 125.257 50.6C125.257 51.5 127.237 51.92 129.797 51.92C132.377 51.92 134.357 51.5 134.357 50.6ZM136.877 61.36H123.577V56.74H124.917V60.26H136.877V61.36ZM136.997 47.28H122.617V46.24H136.997V47.28ZM133.297 44.86H126.317V43.82H133.297V44.86ZM151.836 56.58L151.016 57.54C148.736 56.24 146.456 53.96 145.696 51.76C144.996 54.22 142.896 56.52 140.316 58.06L139.416 57.18C142.336 55.54 144.936 52.48 144.936 48.34V46.12H140.456V45.04H150.716V46.12H146.356V48.34C146.356 52.4 149.276 55.26 151.836 56.58ZM155.256 61.64H153.916V50.62H149.916V49.5H153.916V43.86H155.256V61.64ZM181.159 60.82L180.319 61.72C178.759 60.92 177.159 59.4 176.639 57.94C176.119 59.34 174.679 60.9 173.279 61.66C171.859 60.9 170.399 59.34 169.899 57.94C169.359 59.4 167.779 60.92 166.219 61.72L165.379 60.82C167.259 59.96 169.219 57.92 169.219 55.76V54.98H170.559V55.76C170.559 57.6 172.039 59.48 173.279 60.26C174.499 59.48 175.979 57.6 175.979 55.76V54.98H177.319V55.76C177.319 57.92 179.299 59.96 181.159 60.82ZM174.019 48.62C174.019 51.08 172.059 53.04 169.219 53.04C166.339 53.04 164.399 51.08 164.399 48.62C164.399 46.16 166.339 44.18 169.219 44.18C172.059 44.18 174.019 46.16 174.019 48.62ZM172.679 48.62C172.679 46.74 171.399 45.26 169.219 45.26C167.019 45.26 165.759 46.74 165.759 48.62C165.759 50.48 167.019 51.96 169.219 51.96C171.399 51.96 172.679 50.48 172.679 48.62ZM179.239 54.2H177.899V43.86H179.239V54.2ZM197.638 54.2H196.298V49.1H192.418C192.158 51.34 190.278 53.04 187.618 53.04C184.738 53.04 182.798 51.08 182.798 48.62C182.798 46.16 184.738 44.18 187.618 44.18C190.218 44.18 192.058 45.84 192.378 47.98H196.298V43.86H197.638V54.2ZM191.078 48.62C191.078 46.74 189.798 45.26 187.618 45.26C185.418 45.26 184.158 46.74 184.158 48.62C184.158 50.48 185.418 51.96 187.618 51.96C189.798 51.96 191.078 50.48 191.078 48.62ZM199.558 60.82L198.718 61.72C197.158 60.92 195.558 59.4 195.038 57.94C194.518 59.34 193.078 60.9 191.678 61.66C190.258 60.9 188.798 59.34 188.298 57.94C187.758 59.4 186.178 60.92 184.618 61.72L183.778 60.82C185.658 59.96 187.618 57.92 187.618 55.76V54.98H188.958V55.76C188.958 57.6 190.438 59.48 191.678 60.26C192.898 59.48 194.378 57.6 194.378 55.76V54.98H195.718V55.76C195.718 57.92 197.698 59.96 199.558 60.82ZM215.376 57.04H214.056V43.86H215.376V48.28H218.096V49.4H215.376V57.04ZM216.116 61.36H203.736V55.44H205.076V60.28H216.116V61.36ZM213.176 51.24V52.3C211.136 52.76 207.836 52.98 205.056 52.98H201.716V44.78H210.336V45.84H203.036V51.88H205.056C207.756 51.88 210.976 51.66 213.176 51.24ZM239.779 61.44H227.699V57.06H238.019V54.86H227.699V53.82H239.359V58.06H229.019V60.38H239.779V61.44ZM234.059 51.7H225.619V44.78H234.059V51.7ZM232.719 50.66V45.82H226.959V50.66H232.719ZM239.399 52.88H238.079V43.86H239.399V47.34H242.119V48.46H239.399V52.88ZM258.498 61.64H257.158V43.86H258.498V61.64ZM243.858 51.1C243.858 46.84 245.818 44.34 248.418 44.34C251.038 44.34 252.978 46.84 252.978 51.1C252.978 55.38 251.038 57.88 248.418 57.88C245.818 57.88 243.858 55.38 243.858 51.1ZM251.638 51.1C251.638 47.44 250.298 45.42 248.418 45.42C246.558 45.42 245.198 47.44 245.198 51.1C245.198 54.78 246.558 56.8 248.418 56.8C250.298 56.8 251.638 54.78 251.638 51.1ZM261.836 51.1C261.836 46.84 263.776 44.34 266.376 44.34C268.976 44.34 270.936 46.84 270.936 51.1C270.936 55.38 268.976 57.88 266.376 57.88C263.776 57.88 261.836 55.38 261.836 51.1ZM269.596 51.1C269.596 47.44 268.236 45.42 266.376 45.42C264.516 45.42 263.176 47.44 263.176 51.1C263.176 54.78 264.516 56.8 266.376 56.8C268.236 56.8 269.596 54.78 269.596 51.1ZM275.916 61.64H274.596V43.86H275.916V47.52H278.816V48.66H275.916V53.42H278.816V54.56H275.916V61.64ZM284.095 56.6H282.935V55.74C282.935 53.92 283.375 52.84 285.155 51.38C286.295 50.44 287.075 49.22 287.075 48.08C287.075 46.2 285.515 45.4 283.855 45.4C282.875 45.4 281.395 45.8 280.355 46.42L279.875 45.52C280.955 44.88 282.595 44.38 283.955 44.38C286.215 44.38 288.355 45.44 288.355 48.04C288.355 49.5 287.595 50.74 286.235 51.88C284.495 53.38 284.095 54.1 284.095 55.82V56.6ZM284.655 59.84C284.655 60.46 284.155 60.94 283.535 60.94C282.855 60.94 282.375 60.46 282.375 59.84C282.375 59.26 282.855 58.74 283.535 58.74C284.155 58.74 284.655 59.26 284.655 59.84Z" fill="white"/>
</svg>
