<svg width="226" height="76" viewBox="0 0 226 76" fill="none" xmlns="http://www.w3.org/2000/svg">
<rect x="0.5" y="0.5" width="225" height="75" fill="#F6C500"/>
<rect x="0.5" y="0.5" width="225" height="75" stroke="black"/>
<path d="M29.14 31.44H16.84V27.14H27.38V25.04H16.84V24H28.72V28.16H18.16V30.38H29.14V31.44ZM28.76 23.04H27.46V13.86H28.76V17.38H31.26V18.48H28.76V23.04ZM19.46 22.16H14.52V14.48H15.76V17.22H18.24V14.48H19.46V22.16ZM18.24 21.16V18.2H15.76V21.16H18.24ZM25.44 22.16H20.56V14.48H21.8V17.22H24.2V14.48H25.44V22.16ZM24.2 21.16V18.2H21.8V21.16H24.2ZM47.2184 31.64H45.8784V13.86H47.2184V31.64ZM44.9384 25.56V26.66C42.6984 27.1 39.1984 27.32 36.4984 27.32H33.3384V20.5H40.5184V16.02H33.3384V14.94H41.8784V21.56H34.6584V26.22H36.4984C39.1984 26.22 42.5384 26.02 44.9384 25.56ZM51.6769 33.32L51.3569 33.02C52.0569 32.58 52.6569 31.72 52.7569 30.96C52.7769 30.86 52.7569 30.78 52.7169 30.74C52.6769 30.64 52.5569 30.58 52.3569 30.58C51.7969 30.58 51.2769 30.2 51.2769 29.52C51.2769 28.88 51.7969 28.46 52.4369 28.46C53.1769 28.46 53.6969 29.12 53.6969 29.94C53.6969 31.36 52.8369 32.7 51.6769 33.32ZM77.1502 31.64H75.8102V21.4H71.6102C71.5102 25.5 69.5902 27.88 67.0502 27.88C64.4502 27.88 62.5102 25.38 62.5102 21.1C62.5102 16.84 64.4502 14.34 67.0502 14.34C69.4702 14.34 71.3702 16.54 71.5902 20.3H75.8102V13.86H77.1502V31.64ZM67.0502 26.8C68.9102 26.8 70.2702 24.78 70.2702 21.1C70.2702 17.44 68.9102 15.42 67.0502 15.42C65.1902 15.42 63.8502 17.44 63.8502 21.1C63.8502 24.78 65.1902 26.8 67.0502 26.8ZM95.5486 31.64H94.2086V20.62H89.7686V19.5H94.2086V13.86H95.5486V31.64ZM91.8686 26.5L91.0686 27.46C88.6886 26.16 86.4486 23.74 85.7486 21.46C85.0086 23.98 83.1086 26.3 80.3686 27.98L79.4686 27.14C82.5486 25.34 84.9886 22.24 84.9886 18V14.64H86.4086V18C86.4086 22.08 89.0886 25.12 91.8686 26.5ZM23.04 58.8L23.24 59.8C22.22 60.12 20.98 60.24 19.8 60.24C15.98 60.24 14.16 57.68 14.14 54.34C14.1 51.24 15.98 48.6 19.2 48.62C22.5 48.62 23.98 50.76 23.98 53.94V54.66H15.42C15.5 57.16 16.92 59.26 19.84 59.24C20.86 59.24 22.02 59.12 23.04 58.8ZM15.38 53.68H22.72C22.72 53.64 22.76 53.46 22.72 53.42C22.7 51.04 21.38 49.62 19.2 49.62C16.72 49.62 15.54 51.6 15.38 53.68ZM28.5397 59.66C28.5397 60.3 28.0397 60.78 27.3997 60.78C26.7197 60.78 26.2197 60.3 26.2197 59.66C26.2197 59.06 26.7197 58.54 27.3997 58.54C28.0397 58.54 28.5397 59.06 28.5397 59.66ZM40.028 59.42V57.92H39.908C39.128 59.14 37.688 59.86 36.128 59.86C33.068 59.88 31.328 57.5 31.328 54.24C31.328 51 33.108 48.62 36.208 48.64C37.788 48.64 39.088 49.3 39.888 50.48H39.988V48.9H41.268V59.6C41.268 62.68 39.148 64.24 36.108 64.24C35.048 64.24 33.668 64.08 32.648 63.74L32.928 62.72C33.928 63.1 35.048 63.24 36.108 63.24C38.728 63.24 40.028 61.82 40.028 59.42ZM39.968 55.22V53.12C39.968 51.16 38.228 49.64 36.348 49.64C33.968 49.64 32.588 51.6 32.588 54.24C32.588 56.88 33.848 58.86 36.268 58.86C38.208 58.86 39.968 57.32 39.968 55.22ZM46.9186 59.66C46.9186 60.3 46.4186 60.78 45.7786 60.78C45.0986 60.78 44.5986 60.3 44.5986 59.66C44.5986 59.06 45.0986 58.54 45.7786 58.54C46.4186 58.54 46.9186 59.06 46.9186 59.66ZM69.4319 61.64H68.1119V43.86H69.4319V50.2H72.4319V51.34H69.4319V61.64ZM64.3919 56.92H55.8519V45.04H64.3919V56.92ZM63.0519 55.84V46.12H57.2119V55.84H63.0519ZM74.3103 58L73.4503 57.1C76.5703 55.66 78.7103 53.48 79.9703 50.92C78.7703 51.06 77.3703 51.08 76.0903 51.08H73.9103V50.02H76.0103C77.4903 50.02 79.1503 49.96 80.4903 49.8C80.9503 48.64 81.2503 47.4 81.3903 46.12H74.5503V45.04H82.8503C82.6103 51.06 79.2303 55.62 74.3103 58ZM87.8303 61.64H86.5103V43.86H87.8303V50.8H90.8303V51.94H87.8303V61.64ZM112.514 61.44H100.434V57.06H110.754V54.86H100.434V53.82H112.094V58.06H101.754V60.38H112.514V61.44ZM112.134 52.88H110.814V43.86H112.134V47.3H114.854V48.42H112.134V52.88ZM109.934 49.98V51.02C107.894 51.48 104.594 51.7 101.814 51.7H98.4738V44.78H107.094V45.82H99.7938V50.64H101.814C104.514 50.64 107.734 50.42 109.934 49.98ZM127.972 55.56V56.66C125.752 57.1 122.252 57.32 119.572 57.32H116.932V50.5H123.492V46.02H116.932V44.94H124.832V51.56H118.252V56.22H119.572C122.252 56.22 125.612 56.02 127.972 55.56ZM130.812 61.64H129.472V53.16H126.132V52.04H129.472V48.54H126.132V47.42H129.472V43.86H130.812V61.64ZM151.351 59.18H133.871V58.1H141.911V53.92C138.411 53.7 136.051 51.7 136.051 49.08C136.051 46.32 138.711 44.22 142.591 44.22C146.491 44.22 149.171 46.32 149.171 49.08C149.171 51.7 146.791 53.7 143.291 53.92V58.1H151.351V59.18ZM147.831 49.08C147.831 46.82 145.551 45.3 142.591 45.3C139.651 45.3 137.371 46.82 137.371 49.08C137.371 51.36 139.651 52.86 142.591 52.86C145.551 52.86 147.831 51.36 147.831 49.08ZM168.029 61.64H166.689V43.86H168.029V61.64ZM164.349 56.5L163.549 57.46C161.169 56.16 158.929 53.74 158.229 51.46C157.489 53.98 155.589 56.3 152.849 57.98L151.949 57.14C155.029 55.34 157.469 52.24 157.469 48V44.64H158.889V48C158.889 52.08 161.569 55.12 164.349 56.5ZM185.968 48.06C185.968 50.36 183.488 52.16 179.348 52.16C175.228 52.16 172.748 50.36 172.748 48.06C172.748 45.78 175.228 43.98 179.348 43.98C183.488 43.98 185.968 45.78 185.968 48.06ZM184.628 48.06C184.628 46.2 182.368 45.06 179.348 45.06C176.368 45.06 174.088 46.2 174.088 48.06C174.088 49.94 176.368 51.08 179.348 51.08C182.368 51.08 184.628 49.94 184.628 48.06ZM188.128 55.1H180.088V61.64H178.708V55.1H170.668V54.02H188.128V55.1ZM189.766 51.1C189.766 46.84 191.706 44.34 194.306 44.34C196.906 44.34 198.866 46.84 198.866 51.1C198.866 55.38 196.906 57.88 194.306 57.88C191.706 57.88 189.766 55.38 189.766 51.1ZM197.526 51.1C197.526 47.44 196.166 45.42 194.306 45.42C192.446 45.42 191.106 47.44 191.106 51.1C191.106 54.78 192.446 56.8 194.306 56.8C196.166 56.8 197.526 54.78 197.526 51.1ZM203.846 61.64H202.526V43.86H203.846V47.52H206.746V48.66H203.846V53.42H206.746V54.56H203.846V61.64ZM210.844 59.66C210.844 60.3 210.344 60.78 209.704 60.78C209.024 60.78 208.524 60.3 208.524 59.66C208.524 59.06 209.024 58.54 209.704 58.54C210.344 58.54 210.844 59.06 210.844 59.66Z" fill="white"/>
</svg>
