<svg width="410" height="45" viewBox="0 0 410 45" fill="none" xmlns="http://www.w3.org/2000/svg">
<rect x="0.5" y="0.5" width="409" height="44" fill="white"/>
<rect x="0.5" y="0.5" width="409" height="44" stroke="black"/>
<path d="M35.425 21.325H13.625V20H35.425V21.325ZM32.325 17.85H16.675V10.275H18.35V12.675H30.65V10.275H32.325V17.85ZM30.65 16.55V13.95H18.35V16.55H30.65ZM32.875 32.05H16.65V27.1H30.65V24.9H16.65V23.575H32.325V28.35H18.325V30.725H32.875V32.05ZM56.923 32.425H55.273V26.275H41.573V24.9H56.923V32.425ZM56.973 23.7H55.323V16.6H50.723V15.25H55.323V10.075H56.973V23.7ZM53.473 20.275V21.55C50.873 22.125 46.798 22.425 43.298 22.425H39.348V16.025H47.773V12.325H39.348V11.025H49.423V17.3H40.998V21.1H43.298C46.673 21.1 50.723 20.8 53.473 20.275ZM80.6961 13.925C80.6961 16.225 77.5711 17.925 72.4961 17.925C67.4211 17.925 64.3211 16.225 64.3211 13.925C64.3211 11.625 67.4211 9.925 72.4961 9.925C77.5711 9.925 80.6961 11.625 80.6961 13.925ZM79.0211 13.95C79.0211 12.2 76.2211 11.225 72.4961 11.225C68.7961 11.225 65.9711 12.2 65.9711 13.95C65.9711 15.675 68.7961 16.65 72.4961 16.65C76.2211 16.65 79.0211 15.675 79.0211 13.95ZM80.8711 32.05H64.6461V26.925H78.6461V24.575H64.6461V23.25H80.3211V28.2H66.3211V30.725H80.8711V32.05ZM83.4211 20.925H61.6211V19.6H83.4211V20.925ZM112.925 22.15H96.7004V11.475H112.675V12.825H98.3754V20.8H112.925V22.15ZM115.475 29.05H93.6254V27.7H115.475V29.05ZM137.198 32.3H135.548V19.6H132.348V31.25H130.748V10.45H132.348V18.15H135.548V10.075H137.198V32.3ZM129.573 25.025V26.375C127.523 26.7 124.448 26.9 122.298 26.9H119.273V18.425H126.098V12.925H119.273V11.575H127.723V19.75H120.898V25.525H122.298C124.448 25.525 127.498 25.35 129.573 25.025ZM163.471 28.975H141.621V27.625H156.721C157.971 23.25 158.696 17.325 158.896 13.075H144.296V11.725H160.646C160.421 17.3 159.671 23.2 158.446 27.625H163.471V28.975ZM177.72 15.8H166.145V14.45H177.72V15.8ZM175.045 12.225H168.77V10.875H175.045V12.225ZM185.845 32.3H184.17V20.55H180.82V31.25H179.195V10.45H180.82V19.075H184.17V10.075H185.845V32.3ZM166.92 22.6C166.92 19.775 169.12 17.65 171.895 17.65C174.695 17.65 176.92 19.775 176.92 22.6C176.92 25.425 174.695 27.55 171.895 27.55C169.12 27.55 166.92 25.425 166.92 22.6ZM175.295 22.6C175.295 20.5 173.97 18.95 171.895 18.95C169.87 18.95 168.545 20.5 168.545 22.6C168.545 24.675 169.87 26.25 171.895 26.25C173.97 26.25 175.295 24.675 175.295 22.6ZM210.074 24.65V26C208.024 26.275 204.999 26.375 202.799 26.375H197.949V25H200.624L200.524 13.05H198.324V11.7H209.499V13.05H207.474L207.374 24.9C208.324 24.85 209.274 24.75 210.074 24.65ZM217.474 32.3H215.824V19.35H212.674V31.25H211.049V10.45H212.674V17.9H215.824V10.075H217.474V32.3ZM205.749 24.95L205.824 13.05H202.149L202.274 25H202.799C203.674 25 204.699 25 205.749 24.95ZM241.847 31.95H226.147V25.25H227.822V30.6H241.847V31.95ZM241.022 26.75H239.372V17.15H234.922V15.8H239.372V10.075H241.022V26.75ZM237.522 20.875V22.15C234.922 22.725 230.847 23.025 227.347 23.025H223.522V11.025H233.872V12.325H225.172V16.3H233.597V17.575H225.172V21.7H227.347C230.722 21.7 234.772 21.4 237.522 20.875ZM264.745 13.925C264.745 16.225 261.62 17.925 256.545 17.925C251.47 17.925 248.37 16.225 248.37 13.925C248.37 11.625 251.47 9.925 256.545 9.925C261.62 9.925 264.745 11.625 264.745 13.925ZM263.07 13.95C263.07 12.2 260.27 11.225 256.545 11.225C252.845 11.225 250.02 12.2 250.02 13.95C250.02 15.675 252.845 16.65 256.545 16.65C260.27 16.65 263.07 15.675 263.07 13.95ZM264.92 32.05H248.695V26.925H262.695V24.575H248.695V23.25H264.37V28.2H250.37V30.725H264.92V32.05ZM267.47 20.925H245.67V19.6H267.47V20.925ZM289.849 26.65H279.174V11.3H280.874V17.2H288.174V11.3H289.849V26.65ZM288.174 25.3V18.525H280.874V25.3H288.174ZM296.149 32.3H294.499V10.075H296.149V18.475H299.899V19.9H296.149V32.3ZM310.647 31.8H308.972V21.4H302.197V20.05H306.322C306.847 17.625 307.172 14.575 307.272 12.525H303.222V11.175H309.047C308.897 14.075 308.497 17.625 307.997 20.05H310.372C311.297 20.05 312.297 20.025 313.247 19.975C313.747 17.55 314.047 14.55 314.172 12.525H309.847V11.175H315.922C315.797 14 315.397 17.45 314.922 19.875C316.222 19.75 317.397 19.6 318.397 19.425V20.75C316.422 21.175 313.697 21.375 310.647 21.4V31.8ZM320.997 32.3H319.347V26.25H313.847V24.9H319.347V10.075H320.997V32.3ZM346.245 19.1L345.295 20.325C341.52 19.575 337.97 17.55 336.57 14.9C335.195 17.55 331.645 19.575 327.845 20.325L326.87 19.1C331.195 18.45 335.57 15.675 335.67 12.3H328.42V10.95H344.695V12.3H337.47C337.57 15.675 341.995 18.45 346.245 19.1ZM347.495 24.125H337.445V32.3H335.72V24.125H325.67V22.775H347.495V24.125ZM362.218 25.75L361.143 26.9C358.693 25.175 356.768 22.575 355.993 20.05C355.268 22.85 353.218 25.675 350.318 27.7L349.143 26.675C352.693 24.475 355.118 20.225 355.118 15.4V11.2H356.843V15.4C356.843 20.35 359.393 23.975 362.218 25.75ZM365.468 31.25H363.843V18.625H359.443V17.25H363.843V10.45H365.468V31.25ZM369.993 32.3H368.343V10.075H369.993V32.3ZM384.566 22.55C379.716 22.55 376.391 19.95 376.391 16.55C376.391 13.125 379.716 10.525 384.566 10.525C389.441 10.525 392.791 13.125 392.791 16.55C392.791 19.95 389.441 22.55 384.566 22.55ZM384.566 11.875C380.891 11.875 378.041 13.75 378.041 16.55C378.041 19.35 380.891 21.2 384.566 21.2C388.266 21.2 391.116 19.35 391.116 16.55C391.116 13.75 388.266 11.875 384.566 11.875ZM395.516 29.225H373.666V27.875H378.991V23.05H380.691V27.875H388.441V23.05H390.141V27.875H395.516V29.225Z" fill="black"/>
</svg>
