<svg width="91" height="121" viewBox="0 0 91 121" fill="none" xmlns="http://www.w3.org/2000/svg">
<rect x="0.5" y="0.5" width="90" height="120" fill="#00B7AB"/>
<rect x="0.5" y="0.5" width="90" height="120" stroke="black"/>
<path d="M65.1153 40.74H73.5153V45.18H65.1153V52.02C65.1153 57.18 66.5553 60.36 71.3553 60.36H72.8553V64.8H71.2353C67.4553 64.8 64.6953 63.48 63.2553 61.62C62.2353 63.6 60.0153 64.8 56.5953 64.8H18.1353V60.36H35.5953V53.22C29.7753 52.26 25.8153 47.88 25.8153 42C25.8153 35.34 30.9153 30.66 38.0553 30.66H49.0353V35.1H38.0553C33.7953 35.1 30.7353 37.98 30.7353 42C30.7353 46.08 33.7953 48.96 38.0553 48.96C42.3153 48.96 45.3753 46.08 45.3753 42C45.3753 40.62 45.0153 39.48 44.3553 38.34H49.2153C49.8753 39.36 50.2953 40.74 50.2953 42C50.2953 47.88 46.3353 52.26 40.5153 53.22V60.36H55.6353C58.8153 60.36 60.1953 59.04 60.1953 56.4V27.24H65.1153V40.74Z" fill="white"/>
</svg>
