<svg width="361" height="151" viewBox="0 0 361 151" fill="none" xmlns="http://www.w3.org/2000/svg">
<rect x="0.5" y="0.5" width="90" height="120" fill="#00B7AB"/>
<rect x="0.5" y="0.5" width="90" height="120" stroke="black"/>
<path d="M58.6895 52.2V27.24H63.6095V40.74H72.0095V45.18H63.6095V52.02C63.6095 57.18 65.0495 60.36 69.8495 60.36H71.3495V64.8H69.7895C62.5895 64.8 58.6895 60.6 58.6895 52.2ZM27.6695 64.8H19.6295V60.36H27.0695C38.0495 60.36 43.6295 56.16 43.6295 47.88V45.3H26.4095V40.86H48.6095V47.88C48.6095 58.74 41.1695 64.8 27.6695 64.8Z" fill="white"/>
<rect x="90.5" y="30.5" width="90" height="120" fill="#00B7AB"/>
<rect x="90.5" y="30.5" width="90" height="120" stroke="black"/>
<path d="M138.079 83.16V90.36H159.259V94.8H111.739V90.36H133.159V83.16H124.519C122.779 83.16 121.819 82.2 121.819 80.46V60.06H126.739V67.5H140.899V71.94H126.739V78.72H144.259V60.06H149.179V83.16H138.079ZM126.199 101.46V115.08H149.959V119.52H123.979C122.239 119.52 121.279 118.56 121.279 116.82V101.46H126.199Z" fill="white"/>
<rect x="180.5" y="30.5" width="90" height="120" fill="#00B7AB"/>
<rect x="180.5" y="30.5" width="90" height="120" stroke="black"/>
<path d="M255.253 90.36V94.8C249.253 94.44 245.593 90.48 245.593 82.8V75.18H233.893V70.74H245.593V57.24H250.513V81.84C250.513 86.58 252.013 89.64 255.253 90.36ZM201.013 94.8H195.733V90.36H200.413C209.173 90.36 214.213 86.04 214.213 78.48V75.18H202.513V70.74H230.653V75.18H219.313V78.48C219.313 85.74 224.053 90.06 232.153 90.24V94.56C225.253 94.56 219.673 91.68 216.793 86.7C213.973 91.86 208.213 94.8 201.013 94.8ZM249.313 103.08V121.38H244.393V104.82H223.753V100.38H246.613C248.353 100.38 249.313 101.34 249.313 103.08Z" fill="white"/>
<rect x="270.5" y="0.5" width="90" height="120" fill="#00B7AB"/>
<rect x="270.5" y="0.5" width="90" height="120" stroke="black"/>
<path d="M341.349 60.36V64.8C335.949 64.44 331.689 60.36 331.689 50.64V27.24H336.609V49.56C336.609 56.28 338.469 59.28 341.349 60.36ZM307.689 64.8H289.629V60.36H307.689C311.949 60.36 315.009 57.24 315.009 52.92C315.009 48.54 311.949 45.42 307.689 45.42C303.489 45.42 300.429 48.54 300.429 52.92C300.429 54.6 300.789 55.92 301.569 57.12H296.589C295.869 55.98 295.509 54.54 295.509 52.92C295.509 45.96 300.669 40.98 307.689 40.98C314.769 40.98 319.929 45.96 319.929 52.92C319.929 59.82 314.769 64.8 307.689 64.8Z" fill="white"/>
</svg>
