<svg width="271" height="151" viewBox="0 0 271 151" fill="none" xmlns="http://www.w3.org/2000/svg">
<rect x="90.5" y="0.5" width="90" height="120" fill="#00B7AB"/>
<rect x="90.5" y="0.5" width="90" height="120" stroke="black"/>
<path d="M161.349 60.36V64.8C155.949 64.44 151.689 60.36 151.689 50.64V27.24H156.609V49.56C156.609 56.28 158.469 59.28 161.349 60.36ZM127.689 64.8H109.629V60.36H127.689C131.949 60.36 135.009 57.24 135.009 52.92C135.009 48.54 131.949 45.42 127.689 45.42C123.489 45.42 120.429 48.54 120.429 52.92C120.429 54.6 120.789 55.92 121.569 57.12H116.589C115.869 55.98 115.509 54.54 115.509 52.92C115.509 45.96 120.669 40.98 127.689 40.98C134.769 40.98 139.929 45.96 139.929 52.92C139.929 59.82 134.769 64.8 127.689 64.8Z" fill="white"/>
<rect x="0.5" y="30.5" width="90" height="120" fill="#00B7AB"/>
<rect x="0.5" y="30.5" width="90" height="120" stroke="black"/>
<path d="M74.6682 90.36V94.8C68.6682 94.44 65.0082 90.48 65.0082 82.8V75.42H51.6282V70.98H65.0082V57.24H69.9282V81.84C69.9282 86.58 71.4282 89.64 74.6682 90.36ZM34.3482 94.8H16.3482V90.36H34.3482C38.5482 90.36 41.6082 87.24 41.6082 82.92C41.6082 78.6 38.5482 75.48 34.3482 75.48C30.1482 75.48 27.0882 78.6 27.0882 82.92C27.0882 84.6 27.4482 85.92 28.2282 87.12H23.2482C22.5282 85.98 22.1682 84.54 22.1682 82.92C22.1682 76.02 27.3282 71.04 34.3482 71.04C41.3682 71.04 46.5282 76.02 46.5282 82.92C46.5282 89.82 41.3682 94.8 34.3482 94.8ZM46.2282 118.5V100.92H51.0282V122.94H35.9682C34.2282 122.94 33.2682 121.98 33.2682 120.24V100.92H38.0682V107.52H43.8282V111.96H38.0682V118.5H46.2282ZM53.3082 122.94V118.5C57.5682 118.26 60.3882 115.2 60.3882 110.46V100.92H65.2482V110.46C65.2482 115.14 67.8282 118.14 72.1482 118.38V122.7C67.6482 122.52 64.2282 120.36 62.8482 117.3C61.4082 120.54 57.8082 122.76 53.3082 122.94Z" fill="white"/>
<rect x="180.5" y="30.5" width="90" height="120" fill="#00B7AB"/>
<rect x="180.5" y="30.5" width="90" height="120" stroke="black"/>
<path d="M239.611 82.2V57.24L244.531 57.3V65.4H252.931V69.9H244.531V76.08H252.931V80.52H244.531V82.02C244.531 87.18 245.971 90.36 250.771 90.36H252.271V94.8H250.711C243.511 94.8 239.611 90.6 239.611 82.2ZM216.751 94.8H198.751V90.36H216.751C220.951 90.36 224.011 87.24 224.011 82.92C224.011 78.6 220.951 75.48 216.751 75.48C212.551 75.48 209.491 78.6 209.491 82.92C209.491 84.6 209.851 85.92 210.631 87.12H205.651C204.931 85.98 204.571 84.54 204.571 82.92C204.571 76.02 209.731 71.04 216.751 71.04C223.771 71.04 228.931 76.02 228.931 82.92C228.931 89.82 223.771 94.8 216.751 94.8Z" fill="white"/>
</svg>
