<svg width="91" height="121" viewBox="0 0 91 121" fill="none" xmlns="http://www.w3.org/2000/svg">
<rect x="0.5" y="0.5" width="90" height="120" fill="#00B7AB"/>
<rect x="0.5" y="0.5" width="90" height="120" stroke="black"/>
<path d="M29.4188 54.96V50.52C37.9388 50.16 42.8588 46.5 42.8588 40.44V39.9H30.3188V35.46H42.9788V28.44H48.0788V35.46H60.4988V39.9H48.1988V40.44C48.1988 46.44 52.9988 50.04 61.3988 50.4V54.72C54.1388 54.48 48.3788 51.9 45.5588 47.7C42.7388 52.02 36.7988 54.72 29.4188 54.96ZM21.7388 64.8V60.36H69.2588V64.8H21.7388ZM54.6788 87.84V78.96H59.5988V92.22H33.6188C31.8788 92.22 30.9188 91.26 30.9188 89.52V71.28H59.5988V75.72H35.8388V87.84H54.6788Z" fill="white"/>
</svg>
