<svg width="361" height="151" viewBox="0 0 361 151" fill="none" xmlns="http://www.w3.org/2000/svg">
<rect x="0.5" y="0.5" width="90" height="120" fill="#00B7AB"/>
<rect x="0.5" y="0.5" width="90" height="120" stroke="black"/>
<path d="M59.6105 52.2V27.24H64.5305V40.74H72.9306V45.18H64.5305V52.02C64.5305 57.18 65.9705 60.36 70.7706 60.36H72.2705V64.8H70.7106C63.5106 64.8 59.6105 60.6 59.6105 52.2ZM49.4705 43.44V64.8H18.7505V60.36H44.5505V45.18H30.7505V57.12H25.8305V40.74H46.7705C48.5105 40.74 49.4705 41.7 49.4705 43.44ZM44.4905 71.4V85.98H64.3506V90.42H42.2705C40.5305 90.42 39.5705 89.46 39.5705 87.72V71.4H44.4905Z" fill="white"/>
<rect x="90.5" y="0.5" width="90" height="120" fill="#00B7AB"/>
<rect x="90.5" y="0.5" width="90" height="120" stroke="black"/>
<path d="M148.412 52.2V27.24H153.332V40.74H161.732V45.18H153.332V52.02C153.332 57.18 154.772 60.36 159.572 60.36H161.072V64.8H159.512C152.312 64.8 148.412 60.6 148.412 52.2ZM126.932 60.36H143.432V64.8H109.952V60.36H119.672C118.892 59.52 118.472 58.38 118.472 56.1V40.98H123.392V56.34C123.392 59.16 124.592 60.36 126.932 60.36ZM122.372 91.92V87.48C127.712 87.24 130.052 83.76 130.052 78.9V70.68H135.032V78.9C135.032 83.58 136.592 86.94 139.772 87.18C143.012 86.94 144.512 83.58 144.512 78.9V70.68H149.492V78.9C149.492 83.7 152.012 87 156.872 87.24V91.68C151.952 91.56 148.472 89.46 147.032 86.34C145.532 89.7 143.012 91.44 139.772 91.56C136.892 91.44 134.012 89.7 132.572 86.34C130.772 89.88 127.112 91.8 122.372 91.92Z" fill="white"/>
<rect x="180.5" y="0.5" width="90" height="120" fill="#00B7AB"/>
<rect x="180.5" y="0.5" width="90" height="120" stroke="black"/>
<path d="M225.499 54.78C218.119 54.78 212.959 49.92 212.959 43.08C212.959 36.24 218.119 31.38 225.499 31.38H236.599V35.82H225.499C220.999 35.82 217.879 38.82 217.879 43.08C217.879 47.34 220.999 50.34 225.499 50.34C229.999 50.34 233.119 47.34 233.119 43.08C233.119 41.52 232.699 39.96 231.799 38.7H236.839C237.619 39.78 238.039 41.52 238.039 43.08C238.039 49.92 232.879 54.78 225.499 54.78ZM201.739 64.8V60.36H249.259V64.8H201.739ZM215.839 86.34V92.88H240.259V97.32H213.619C211.879 97.32 210.919 96.36 210.919 94.62V81.96H234.439V75.72H210.919V71.28H236.659C238.399 71.28 239.359 72.24 239.359 73.98V86.34H215.839Z" fill="white"/>
<rect x="270.5" y="30.5" width="90" height="120" fill="#00B7AB"/>
<rect x="270.5" y="30.5" width="90" height="120" stroke="black"/>
<path d="M335.713 82.8V75.72H328.393V94.8H323.593V57.6H328.393V71.28H335.713V57.24H340.513V81.84C340.513 87.24 342.013 89.64 345.253 90.36V94.8C339.253 94.44 335.713 90.48 335.713 82.8ZM314.413 90.36H319.513V94.8H285.733V90.36H293.413C292.633 89.52 292.213 88.38 292.213 86.1V71.52H303.373V75.96H297.073V86.34C297.073 89.16 298.273 90.36 300.613 90.36H307.213C306.433 89.52 306.013 88.38 306.013 86.1V71.52H318.133V75.96H310.873V86.34C310.873 89.16 312.073 90.36 314.413 90.36Z" fill="white"/>
</svg>
