<svg width="271" height="121" viewBox="0 0 271 121" fill="none" xmlns="http://www.w3.org/2000/svg">
<rect x="0.5" y="0.5" width="90" height="120" fill="#00B7AB"/>
<rect x="0.5" y="0.5" width="90" height="120" stroke="black"/>
<path d="M29.4788 55.02V50.58C38.0588 50.1 42.9788 45.72 42.9788 38.52V37.5H30.3788V33.06H60.4388V37.5H48.0788V38.52C48.0788 45.6 52.9388 49.98 61.3388 50.46V54.78C54.0188 54.42 48.2588 51.54 45.5588 46.86C42.7988 51.72 36.9788 54.66 29.4788 55.02ZM59.5388 75.54V92.04H54.6188V77.28H30.8588V72.84H43.0388V64.8H21.7388V60.36H69.2588V64.8H47.9588V72.84H56.8388C58.5788 72.84 59.5388 73.8 59.5388 75.54Z" fill="white"/>
<rect x="90.5" y="0.5" width="90" height="120" fill="#00B7AB"/>
<rect x="90.5" y="0.5" width="90" height="120" stroke="black"/>
<path d="M161.349 60.36V64.8C155.949 64.44 151.689 60.36 151.689 50.64V27.24H156.609V49.56C156.609 56.28 158.469 59.28 161.349 60.36ZM127.689 64.8H109.629V60.36H127.689C131.949 60.36 135.009 57.24 135.009 52.92C135.009 48.54 131.949 45.42 127.689 45.42C123.489 45.42 120.429 48.54 120.429 52.92C120.429 54.6 120.789 55.92 121.569 57.12H116.589C115.869 55.98 115.509 54.54 115.509 52.92C115.509 45.96 120.669 40.98 127.689 40.98C134.769 40.98 139.929 45.96 139.929 52.92C139.929 59.82 134.769 64.8 127.689 64.8Z" fill="white"/>
<rect x="180.5" y="0.5" width="90" height="120" fill="#00B7AB"/>
<rect x="180.5" y="0.5" width="90" height="120" stroke="black"/>
<path d="M252.331 60.36V64.8C246.931 64.44 242.671 60.36 242.671 50.64V27.24H247.591V49.56C247.591 56.28 249.451 59.28 252.331 60.36ZM204.031 64.8H198.751V60.36H203.431C212.491 60.36 217.711 56.04 217.711 48.48V45.18H205.531V40.74H234.631V45.18H222.811V48.48C222.811 55.74 227.731 60.06 236.131 60.24V64.56C229.111 64.56 223.351 61.68 220.291 56.7C217.351 61.86 211.411 64.8 204.031 64.8Z" fill="white"/>
</svg>
