<svg width="451" height="181" viewBox="0 0 451 181" fill="none" xmlns="http://www.w3.org/2000/svg">
<rect x="0.5" y="30.5" width="90" height="120" fill="#00B7AB"/>
<rect x="0.5" y="30.5" width="90" height="120" stroke="black"/>
<path d="M59.6105 82.2V57.24H64.5305V70.74H72.9306V75.18H64.5305V82.02C64.5305 87.18 65.9705 90.36 70.7706 90.36H72.2705V94.8H70.7106C63.5106 94.8 59.6105 90.6 59.6105 82.2ZM36.7505 94.8H18.7505V90.36H36.7505C40.9505 90.36 44.0105 87.24 44.0105 82.92C44.0105 78.6 40.9505 75.48 36.7505 75.48C32.5505 75.48 29.4905 78.6 29.4905 82.92C29.4905 84.6 29.8505 85.92 30.6305 87.12H25.6505C24.9305 85.98 24.5705 84.54 24.5705 82.92C24.5705 76.02 29.7305 71.04 36.7505 71.04C43.7705 71.04 48.9305 76.02 48.9305 82.92C48.9305 89.82 43.7705 94.8 36.7505 94.8ZM54.1505 121.86C49.0505 121.86 45.3905 118.32 45.3905 113.4C45.3905 111.6 45.8705 109.98 46.7105 108.66H42.4505V104.22H51.7505V98.76H56.5505V104.22H65.9105V108.66H54.1505C51.8705 108.66 50.1905 110.46 50.1905 113.04C50.1905 115.68 51.8705 117.54 54.1505 117.54C56.4905 117.54 58.1705 115.68 58.1705 113.04C58.1705 112.44 58.0505 111.9 57.9305 111.36H62.5505C62.7905 111.9 62.9706 112.68 62.9706 113.4C62.9706 118.32 59.3105 121.86 54.1505 121.86ZM35.0705 101.64V116.64H43.6505V120.96H32.9705C31.2305 120.96 30.2705 120 30.2705 118.26V101.64H35.0705Z" fill="white"/>
<rect x="90.5" y="0.5" width="90" height="120" fill="#00B7AB"/>
<rect x="90.5" y="0.5" width="90" height="120" stroke="black"/>
<path d="M149.611 52.2V27.24H154.531V40.74H162.931V45.18H154.531V52.02C154.531 57.18 155.971 60.36 160.771 60.36H162.271V64.8H160.711C153.511 64.8 149.611 60.6 149.611 52.2ZM126.751 64.8H108.751V60.36H126.751C130.951 60.36 134.011 57.24 134.011 52.92C134.011 48.6 130.951 45.48 126.751 45.48C122.551 45.48 119.491 48.6 119.491 52.92C119.491 54.6 119.851 55.92 120.631 57.12H115.651C114.931 55.98 114.571 54.54 114.571 52.92C114.571 46.02 119.731 41.04 126.751 41.04C133.771 41.04 138.931 46.02 138.931 52.92C138.931 59.82 133.771 64.8 126.751 64.8ZM119.131 91.92V87.48C124.711 87.24 127.471 83.76 127.471 78.9V70.68H132.451V78.9C132.451 83.58 134.431 86.94 138.031 87.18C141.691 86.94 143.611 83.58 143.611 78.9V70.68H148.591V78.9C148.591 83.7 151.291 87 156.571 87.24V91.68C151.651 91.56 147.931 89.46 146.131 86.1C144.391 89.46 141.451 91.44 138.031 91.56C134.731 91.44 131.611 89.46 129.991 86.1C128.011 89.64 124.111 91.8 119.131 91.92Z" fill="white"/>
<rect x="180.5" y="30.5" width="90" height="120" fill="#00B7AB"/>
<rect x="180.5" y="30.5" width="90" height="120" stroke="black"/>
<path d="M225.499 84.78C218.119 84.78 212.959 79.92 212.959 73.08C212.959 66.24 218.119 61.38 225.499 61.38H236.599V65.82H225.499C220.999 65.82 217.879 68.82 217.879 73.08C217.879 77.34 220.999 80.34 225.499 80.34C229.999 80.34 233.119 77.34 233.119 73.08C233.119 71.52 232.699 69.96 231.799 68.7H236.839C237.619 69.78 238.039 71.52 238.039 73.08C238.039 79.92 232.879 84.78 225.499 84.78ZM201.739 94.8V90.36H249.259V94.8H201.739ZM215.839 116.34V122.88H240.259V127.32H213.619C211.879 127.32 210.919 126.36 210.919 124.62V111.96H234.439V105.72H210.919V101.28H236.659C238.399 101.28 239.359 102.24 239.359 103.98V116.34H215.839Z" fill="white"/>
<rect x="270.5" y="30.5" width="90" height="120" fill="#00B7AB"/>
<rect x="270.5" y="30.5" width="90" height="120" stroke="black"/>
<path d="M329.611 82.2V57.24H334.531V70.74H342.931V75.18H334.531V82.02C334.531 87.18 335.971 90.36 340.771 90.36H342.271V94.8H340.711C333.511 94.8 329.611 90.6 329.611 82.2ZM296.671 94.8H288.751V90.36H296.191C300.991 90.36 303.451 87.36 303.451 81.54V75.9H295.531V71.46H308.431V82.02C308.431 90.24 304.231 94.8 296.671 94.8ZM309.811 94.8H309.211V90.36H309.331C314.791 90.36 317.671 87.36 317.671 81.54V75.9H310.771V71.46H322.651V82.02C322.651 90.24 318.031 94.8 309.811 94.8Z" fill="white"/>
<rect x="360.5" y="60.5" width="90" height="120" fill="#00B7AB"/>
<rect x="360.5" y="60.5" width="90" height="120" stroke="black"/>
<path d="M431.349 120.36V124.8C425.949 124.44 421.689 120.36 421.689 110.64V87.24H426.609V109.56C426.609 116.28 428.469 119.28 431.349 120.36ZM397.689 124.8H379.629V120.36H397.689C401.949 120.36 405.009 117.24 405.009 112.92C405.009 108.54 401.949 105.42 397.689 105.42C393.489 105.42 390.429 108.54 390.429 112.92C390.429 114.6 390.789 115.92 391.569 117.12H386.589C385.869 115.98 385.509 114.54 385.509 112.92C385.509 105.96 390.669 100.98 397.689 100.98C404.769 100.98 409.929 105.96 409.929 112.92C409.929 119.82 404.769 124.8 397.689 124.8ZM414.309 152.88C407.109 152.88 401.949 148.08 401.949 141.36C401.949 134.64 407.109 129.84 414.309 129.84H425.409V134.28H414.309C409.989 134.28 406.869 137.22 406.869 141.36C406.869 145.5 409.989 148.44 414.309 148.44C418.629 148.44 421.749 145.5 421.749 141.36C421.749 139.86 421.329 138.42 420.669 137.52H425.589C426.189 138.48 426.669 139.62 426.669 141.36C426.669 148.08 421.509 152.88 414.309 152.88Z" fill="white"/>
</svg>
