<svg width="271" height="151" viewBox="0 0 271 151" fill="none" xmlns="http://www.w3.org/2000/svg">
<rect x="0.5" y="0.5" width="90" height="120" fill="#00B7AB"/>
<rect x="0.5" y="0.5" width="90" height="120" stroke="black"/>
<path d="M74.6682 60.36V64.8C68.6682 64.44 65.1282 60.48 65.1282 52.8V27.24H69.9282V51.84C69.9282 57.24 71.4282 59.64 74.6682 60.36ZM54.0282 41.04V27.6H58.8282V64.8H54.0282V45.48H45.7482V41.04H54.0282ZM31.1082 60.36H45.2082V64.8H16.3482V60.36H24.0282C23.2482 59.52 22.8282 58.38 22.8282 56.1V41.04H42.2082V45.48H27.5682V56.34C27.5682 59.16 28.7682 60.36 31.1082 60.36ZM49.4082 71.34V85.92H70.0482V90.36H47.1882C45.4482 90.36 44.4882 89.4 44.4882 87.66V71.34H49.4082Z" fill="white"/>
<rect x="90.5" y="0.5" width="90" height="120" fill="#00B7AB"/>
<rect x="90.5" y="0.5" width="90" height="120" stroke="black"/>
<path d="M162.331 60.36V64.8C156.931 64.44 152.671 60.36 152.671 50.64V27.24H157.591V49.56C157.591 56.28 159.451 59.28 162.331 60.36ZM114.031 64.8H108.751V60.36H113.431C122.491 60.36 127.711 56.04 127.711 48.48V45.18H115.531V40.74H144.631V45.18H132.811V48.48C132.811 55.74 137.731 60.06 146.131 60.24V64.56C139.111 64.56 133.351 61.68 130.291 56.7C127.351 61.86 121.411 64.8 114.031 64.8Z" fill="white"/>
<rect x="180.5" y="30.5" width="90" height="120" fill="#00B7AB"/>
<rect x="180.5" y="30.5" width="90" height="120" stroke="black"/>
<path d="M238.819 70.08V86.34H233.899V71.82H211.759V67.38H236.119C237.859 67.38 238.819 68.34 238.819 70.08ZM249.259 90.36V94.8H228.979V107.64H224.059V94.8H201.739V90.36H249.259ZM215.959 102.54V115.8H239.719V120.24H213.739C211.999 120.24 211.039 119.28 211.039 117.54V102.54H215.959Z" fill="white"/>
</svg>
