<svg width="540" height="151" viewBox="0 0 540 151" fill="none" xmlns="http://www.w3.org/2000/svg">
<rect x="90.5" y="0.5" width="90" height="120" fill="#00B7AB"/>
<rect x="90.5" y="0.5" width="90" height="120" stroke="black"/>
<path d="M159.566 60.36V64.8C154.166 64.44 149.906 60.36 149.906 50.64V27.24H154.826V49.56C154.826 56.28 156.686 59.28 159.566 60.36ZM111.446 64.8V60.36C120.026 60.12 125.186 54.96 125.186 46.8V38.1H130.166V46.8C130.166 54.9 135.266 60 143.546 60.24V64.56C136.406 64.5 130.406 61.14 127.706 55.62C125.066 61.26 118.946 64.74 111.446 64.8ZM134.906 85.08V91.38H155.246V95.82H132.686C130.946 95.82 129.986 94.86 129.986 93.12V80.7H149.186V74.64H129.986V70.2H151.406C153.146 70.2 154.106 71.16 154.106 72.9V85.08H134.906Z" fill="white"/>
<rect x="0.5" y="0.5" width="90" height="120" fill="#00B7AB"/>
<rect x="0.5" y="0.5" width="90" height="120" stroke="black"/>
<path d="M57.7977 52.2V27.24H62.7177V40.74H71.1177V45.18H62.7177V52.02C62.7177 57.18 64.1577 60.36 68.9577 60.36H70.4577V64.8H68.8977C61.6977 64.8 57.7977 60.6 57.7977 52.2ZM20.5377 64.8V60.36C29.1177 60.12 34.2777 54.96 34.2777 46.8V38.1H39.2577V46.8C39.2577 54.9 44.3577 60 52.6377 60.24V64.56C45.4977 64.5 39.4977 61.14 36.7977 55.62C34.1577 61.26 28.0377 64.74 20.5377 64.8Z" fill="white"/>
<rect x="180.5" y="30.5" width="90" height="120" fill="#00B7AB"/>
<rect x="180.5" y="30.5" width="90" height="120" stroke="black"/>
<path d="M225.499 84.78C218.119 84.78 212.959 79.92 212.959 73.08C212.959 66.24 218.119 61.38 225.499 61.38H236.599V65.82H225.499C220.999 65.82 217.879 68.82 217.879 73.08C217.879 77.34 220.999 80.34 225.499 80.34C229.999 80.34 233.119 77.34 233.119 73.08C233.119 71.52 232.699 69.96 231.799 68.7H236.839C237.619 69.78 238.039 71.52 238.039 73.08C238.039 79.92 232.879 84.78 225.499 84.78ZM201.739 94.8V90.36H249.259V94.8H201.739ZM215.959 101.46V114.96H239.719V119.4H213.739C211.999 119.4 211.039 118.44 211.039 116.7V101.46H215.959Z" fill="white"/>
<rect x="270.5" y="30.5" width="90" height="120" fill="#00B7AB"/>
<rect x="270.5" y="30.5" width="90" height="120" stroke="black"/>
<path d="M329.611 82.2V57.24H334.531V70.74H342.931V75.18H334.531V82.02C334.531 87.18 335.971 90.36 340.771 90.36H342.271V94.8H340.711C333.511 94.8 329.611 90.6 329.611 82.2ZM319.471 73.44V94.8H288.751V90.36H314.551V75.18H300.751V87.12H295.831V70.74H316.771C318.511 70.74 319.471 71.7 319.471 73.44ZM314.491 115.08V121.38H334.951V125.82H312.271C310.531 125.82 309.571 124.86 309.571 123.12V110.7H328.891V104.64H309.571V100.2H331.111C332.851 100.2 333.811 101.16 333.811 102.9V115.08H314.491Z" fill="white"/>
<rect x="360.5" y="30.5" width="90" height="120" fill="#00B7AB"/>
<rect x="360.5" y="30.5" width="90" height="120" stroke="black"/>
<path d="M431.349 90.36V94.8C425.949 94.44 421.689 90.36 421.689 80.64V57.24H426.609V79.56C426.609 86.28 428.469 89.28 431.349 90.36ZM397.689 94.8H379.629V90.36H397.689C401.949 90.36 405.009 87.24 405.009 82.92C405.009 78.54 401.949 75.42 397.689 75.42C393.489 75.42 390.429 78.54 390.429 82.92C390.429 84.6 390.789 85.92 391.569 87.12H386.589C385.869 85.98 385.509 84.54 385.509 82.92C385.509 75.96 390.669 70.98 397.689 70.98C404.769 70.98 409.929 75.96 409.929 82.92C409.929 89.82 404.769 94.8 397.689 94.8Z" fill="white"/>
<rect x="449.5" y="0.5" width="90" height="120" fill="#00B7AB"/>
<rect x="449.5" y="0.5" width="90" height="120" stroke="black"/>
<path d="M523.668 60.36V64.8C518.868 64.5 515.568 61.92 514.428 56.94H499.188V52.5H514.008V45.42H499.188V40.98H514.008V27.24H518.928V51.84C518.928 56.58 520.428 59.64 523.668 60.36ZM483.228 64.8H465.348V60.36H483.228C487.428 60.36 490.488 57.24 490.488 52.92C490.488 48.66 487.428 45.54 483.228 45.54C479.088 45.54 476.028 48.66 476.028 52.92C476.028 54.6 476.388 55.92 477.168 57.12H472.188C471.468 55.98 471.108 54.54 471.108 52.92C471.108 46.08 476.268 41.1 483.228 41.1C490.248 41.1 495.408 46.08 495.408 52.92C495.408 59.82 490.248 64.8 483.228 64.8Z" fill="white"/>
</svg>
