<svg width="181" height="151" viewBox="0 0 181 151" fill="none" xmlns="http://www.w3.org/2000/svg">
<rect x="0.5" y="0.5" width="90" height="120" fill="#00B7AB"/>
<rect x="0.5" y="0.5" width="90" height="120" stroke="black"/>
<path d="M64.8212 52.8V45.72H55.4612V64.8H50.6612V27.6H55.4612V41.28H64.8212V27.24H69.6212V51.84C69.6212 57.24 71.1212 59.64 74.3612 60.36V64.8C68.3612 64.44 64.8212 60.48 64.8212 52.8ZM33.0212 60.36H45.8612V64.8H16.6412V60.36H25.7612C24.9812 59.52 24.5612 58.38 24.5612 56.1V41.28H29.4812V56.34C29.4812 59.16 30.6812 60.36 33.0212 60.36Z" fill="white"/>
<rect x="90.5" y="30.5" width="90" height="120" fill="#00B7AB"/>
<rect x="90.5" y="30.5" width="90" height="120" stroke="black"/>
<path d="M138.079 80.1V90.36H159.259V94.8H111.739V90.36H133.159V80.1H124.879C123.139 80.1 122.179 79.14 122.179 77.4V58.74H149.119V63.18H127.099V75.66H149.119V80.1H138.079Z" fill="white"/>
</svg>
