<svg width="271" height="151" viewBox="0 0 271 151" fill="none" xmlns="http://www.w3.org/2000/svg">
<rect x="0.5" y="30.5" width="90" height="120" fill="#00B7AB"/>
<rect x="0.5" y="30.5" width="90" height="120" stroke="black"/>
<path d="M60.5023 82.2V57.24H65.4223V70.74H73.8223V75.18H65.4223V82.02C65.4223 87.18 66.8623 90.36 71.6623 90.36H73.1623V94.8H71.6023C64.4023 94.8 60.5023 90.6 60.5023 82.2ZM39.4423 94.8H17.8423V90.36H39.4423C43.2823 90.36 45.9823 87.54 45.9823 83.64C45.9823 79.74 43.2823 76.92 39.4423 76.92C35.6023 76.92 32.9023 79.74 32.9023 83.64C32.9023 84.9 33.2023 86.04 33.6823 87H28.8823C28.3423 86.16 27.9823 84.96 27.9823 83.64C27.9823 81 28.8823 78.66 30.4423 76.92H23.7223V72.48H37.1023V63.3H42.0223V72.48H55.1623V76.92H48.4423C50.0023 78.66 50.9023 81 50.9023 83.64C50.9023 90.12 46.1023 94.8 39.4423 94.8ZM65.3623 103.08V119.58H60.4423V104.82H41.2423V100.38H62.6623C64.4023 100.38 65.3623 101.34 65.3623 103.08Z" fill="white"/>
<rect x="90.5" y="0.5" width="90" height="120" fill="#00B7AB"/>
<rect x="90.5" y="0.5" width="90" height="120" stroke="black"/>
<path d="M148.939 33.78V53.04H144.019V35.52H121.639V31.08H146.239C147.979 31.08 148.939 32.04 148.939 33.78ZM139.999 44.58V60.36H159.259V64.8H111.739V60.36H124.519V44.58H129.439V60.36H135.079V44.58H139.999Z" fill="white"/>
<rect x="180.5" y="30.5" width="90" height="120" fill="#00B7AB"/>
<rect x="180.5" y="30.5" width="90" height="120" stroke="black"/>
<path d="M255.56 90.36V94.8C249.56 94.44 246.02 90.48 246.02 82.8V57.24H250.82V81.84C250.82 87.24 252.32 89.64 255.56 90.36ZM235.4 71.28V57.6H240.2V94.8H235.4V75.72H227.54V71.28H235.4ZM213.14 94.8H195.44V90.36H213.14C217.28 90.36 220.34 87.24 220.34 82.98C220.34 78.72 217.28 75.6 213.14 75.6C209 75.6 205.94 78.72 205.94 82.98C205.94 84.6 206.3 85.92 207.08 87.12H202.16C201.44 85.98 201.08 84.54 201.08 82.98C201.08 76.14 206.18 71.16 213.14 71.16C220.1 71.16 225.2 76.14 225.2 82.98C225.2 89.82 220.1 94.8 213.14 94.8Z" fill="white"/>
</svg>
