<svg width="91" height="121" viewBox="0 0 91 121" fill="none" xmlns="http://www.w3.org/2000/svg">
<rect x="0.5" y="0.5" width="90" height="120" fill="#FF0561"/>
<rect x="0.5" y="0.5" width="90" height="120" stroke="black"/>
<path d="M37.1459 90.06C38.1659 84.72 39.3659 79.02 40.6859 73.26C34.0259 77.58 24.1859 82.26 15.4859 83.28C18.4259 71.7 25.1459 48.72 28.9259 35.58L39.0659 35.4C36.3059 45.24 31.2059 64.44 29.3459 71.7C33.1859 70.68 37.4459 68.94 42.2459 66.48C45.0059 54.9 48.1859 43.14 51.3659 32.76L62.1659 31.74C59.6459 39.48 57.4859 47.64 55.5659 55.74L60.9659 54.84C62.7659 47.16 64.7459 39.66 66.6659 32.76L77.4659 31.74C71.8859 50.76 67.9859 72.24 65.1659 89.64L53.6459 90.06C55.1459 81.48 57.0659 72 59.1659 62.58C57.3659 62.88 55.5659 63.24 53.7659 63.54C51.7859 72.66 50.1059 81.6 48.6659 89.64L37.1459 90.06Z" fill="white"/>
</svg>
