<svg width="541" height="211" viewBox="0 0 541 211" fill="none" xmlns="http://www.w3.org/2000/svg">
<rect x="0.5" y="60.5" width="90" height="120" fill="#FF0561"/>
<rect x="0.5" y="60.5" width="90" height="120" stroke="black"/>
<path d="M40.9283 143.76C46.9883 143.64 52.8083 141.96 53.5283 138.96C54.2483 135.9 51.3083 134.4 42.6683 134.88C36.9083 135.24 31.5083 136.92 30.8483 139.32C30.0083 142.44 33.5483 144.24 40.9283 143.76ZM18.1283 126.24L21.0683 118.26C22.9283 118.14 29.4683 117.84 37.3283 117.42C38.5283 113.76 39.9083 109.56 40.7483 107.22L51.7283 106.74C50.8283 109.44 49.5683 113.52 48.4883 116.88C59.3483 116.4 69.8483 115.86 72.7283 115.74L70.2683 123.24C65.2883 123.48 24.9683 125.82 18.1283 126.24ZM21.0683 138.24C23.3483 131.82 31.7483 127.68 44.2883 127.26C59.4683 126.84 65.6483 132.54 64.4483 139.74C62.8883 147.72 53.7683 151.32 39.6683 151.68C23.8283 152.04 18.3083 145.92 21.0683 138.24ZM27.3083 103.5L30.1283 95.76C38.3483 95.28 61.3283 94.02 73.4483 93.48C71.6483 99.78 68.8283 108.96 67.5083 113.28L56.8283 113.7C57.9683 109.98 59.8883 103.86 60.5483 101.64C55.6883 101.88 36.4283 102.96 27.3083 103.5Z" fill="white"/>
<rect x="90.5" y="30.5" width="90" height="120" fill="#FF0561"/>
<rect x="90.5" y="30.5" width="90" height="120" stroke="black"/>
<path d="M111.622 73.02C114.082 72.78 118.642 72.42 123.802 72C124.822 68.76 125.902 64.92 126.682 62.34L138.082 61.56C137.242 64.08 135.862 67.92 134.722 71.04C140.662 70.56 146.122 70.08 148.822 69.9L146.242 78.18C140.842 78.66 117.682 80.46 109.162 81.18L111.622 73.02ZM109.462 97.14C111.622 89.58 118.042 82.5 127.762 81.9C135.442 81.48 140.602 84.48 141.922 89.88L147.082 89.22C149.242 80.04 151.582 70.98 153.982 62.76L165.082 61.74C159.502 80.76 155.602 102.24 152.782 119.64L140.662 120.06C141.922 112.8 143.542 105 145.282 97.02L141.442 97.56C138.802 106.38 130.702 112.14 120.682 112.5C111.202 112.8 107.122 105.3 109.462 97.14ZM119.662 96.96C118.162 101.46 119.782 104.04 122.482 103.98C126.262 103.86 129.622 100.56 131.002 95.94C132.202 91.8 129.682 90.12 126.802 90.3C123.742 90.48 120.982 93.06 119.662 96.96Z" fill="white"/>
<rect x="180.5" y="0.5" width="90" height="120" fill="#FF0561"/>
<rect x="180.5" y="0.5" width="90" height="120" stroke="black"/>
<path d="M225.366 65.76C227.466 57.42 231.726 40.38 233.826 32.7L244.626 31.74C243.726 35.04 242.406 39.66 241.026 44.52L243.786 44.22C244.866 39.72 245.886 35.52 246.666 32.7L257.466 31.74C255.246 40.02 250.806 57.18 248.766 64.38L238.806 64.86C239.646 61.44 240.786 56.46 242.046 51.3L239.046 51.66C237.546 57.06 236.166 62.1 235.326 65.28L225.366 65.76ZM194.286 90.48C201.846 83.52 208.986 75 213.186 68.04L223.446 67.44C222.366 69.54 221.106 71.7 219.726 73.86C221.406 75.72 223.506 77.52 225.786 79.14C229.146 75 232.146 70.8 234.486 66.78L244.746 66.18C243.486 68.7 241.866 71.28 240.186 73.86C243.366 78.24 247.686 82.8 252.486 86.58L240.966 87.42C239.046 85.68 237.006 83.46 235.086 80.94C232.806 83.94 230.526 86.7 228.546 88.92L216.246 89.76C217.626 88.32 219.006 86.88 220.386 85.38C218.466 84.06 216.606 82.38 214.926 80.52C212.286 84 209.526 87.18 207.186 89.64L194.286 90.48ZM199.626 57.72C200.826 50.94 207.126 46.14 215.286 45.72C222.846 45.36 227.346 48.42 226.506 54.48C225.306 62.34 218.166 66.36 210.906 66.9C202.626 67.56 198.486 63.96 199.626 57.72ZM199.986 45.96L202.206 38.22L212.166 37.56C212.946 35.46 213.666 33.3 214.206 31.74L224.706 31.14C224.106 32.64 223.266 34.8 222.486 36.9C225.666 36.72 228.786 36.48 231.726 36.3L229.746 43.26C223.086 43.92 208.386 45.24 199.986 45.96ZM208.086 56.88C207.786 58.8 209.226 59.76 212.166 59.4C214.926 58.98 216.906 57.54 217.206 55.56C217.506 53.7 216.066 52.68 213.126 53.04C210.366 53.46 208.386 54.9 208.086 56.88Z" fill="white"/>
<rect x="270.5" y="30.5" width="90" height="120" fill="#FF0561"/>
<rect x="270.5" y="30.5" width="90" height="120" stroke="black"/>
<path d="M313.928 83.88C300.128 84.3 294.548 79.86 297.068 72.66C298.988 67.2 308.528 62.82 321.848 62.4C336.368 61.98 343.208 65.82 341.648 72C339.908 79.02 328.628 83.46 313.928 83.88ZM288.128 94.44L291.068 87.06C296.108 86.76 336.608 84.84 342.728 84.54L340.268 91.44C335.288 91.68 294.968 94.02 288.128 94.44ZM289.928 113.04L291.968 106.08C299.528 105.6 318.308 104.46 324.248 103.98L324.788 101.58C318.788 101.94 301.688 103.02 292.868 103.62L294.848 96.54C303.608 96 327.728 94.62 337.628 94.08C336.428 98.1 334.388 106.5 333.488 109.8L305.048 111.9C305.048 114.12 307.028 115.02 313.028 114.96C320.228 114.9 331.868 113.22 343.268 108L340.268 114.36C331.508 119.1 321.368 121.14 313.148 121.38C296.828 121.86 292.748 118.8 293.348 112.74C292.028 112.86 290.888 112.98 289.928 113.04ZM306.848 73.26C306.248 75.3 309.068 76.5 316.208 76.2C322.628 75.96 330.008 74.94 330.728 72.24C331.208 70.44 327.668 69.66 320.108 70.02C313.868 70.26 307.508 71.16 306.848 73.26Z" fill="white"/>
<rect x="360.5" y="60.5" width="90" height="120" fill="#FF0561"/>
<rect x="360.5" y="60.5" width="90" height="120" stroke="black"/>
<path d="M390.382 143.46C397.582 130.02 404.722 113.52 408.142 102.78L401.842 103.68C396.622 120.3 390.802 133.26 385.942 142.8L374.182 143.46C381.382 130.02 388.522 113.52 391.942 102.78C389.542 103.14 383.602 104.16 379.462 104.82L381.802 97.2C386.782 96.54 399.322 94.92 404.602 94.38L404.062 96.24C410.062 95.52 417.142 94.74 420.802 94.38C414.982 115.5 407.842 131.52 402.142 142.8L390.382 143.46ZM411.262 150.06C414.442 132.12 419.482 110.4 424.582 92.76L435.082 91.74C429.502 110.76 425.602 132.24 422.782 149.64L411.262 150.06Z" fill="white"/>
<rect x="450.5" y="90.5" width="90" height="120" fill="#FF0561"/>
<rect x="450.5" y="90.5" width="90" height="120" stroke="black"/>
<path d="M467.287 173.28C469.687 163.92 474.607 146.7 478.207 134.22C475.927 134.4 474.067 134.58 472.747 134.64L475.207 126.78C482.767 126.24 502.207 124.74 507.607 124.44L505.027 131.82C502.687 132 496.387 132.6 489.787 133.2C487.207 142.32 483.727 155.1 482.347 160.32C489.187 158.7 496.927 155.04 505.747 149.7C507.967 140.34 510.367 131.1 512.767 122.76L523.867 121.74C521.467 129.9 519.367 138.54 517.567 147.06C520.267 146.76 522.967 146.4 525.727 146.04L523.867 153.72C521.287 154.08 518.587 154.5 515.947 154.86C514.267 163.5 512.827 171.96 511.567 179.64L499.447 180.06C500.767 172.74 502.387 164.76 504.187 156.66C495.967 163.2 480.607 171.66 467.287 173.28Z" fill="white"/>
</svg>
