<svg width="181" height="151" viewBox="0 0 181 151" fill="none" xmlns="http://www.w3.org/2000/svg">
<rect x="0.5" y="30.5" width="90" height="120" fill="#FF0561"/>
<rect x="0.5" y="30.5" width="90" height="120" stroke="black"/>
<path d="M50.6623 120.06C53.8423 102.12 58.8823 80.4 63.9823 62.76L75.0823 61.74C69.5023 80.76 65.6023 102.24 62.7823 119.64L50.6623 120.06ZM20.9023 84.54C24.0223 74.52 30.5023 66.3 41.2423 66.3C51.0223 66.3 56.4223 76.08 52.5823 90C49.1023 102.84 41.6623 109.5 31.4623 109.5C20.7223 109.5 16.5223 98.4 20.9023 84.54ZM30.6823 86.52C28.0423 96.12 29.9023 101.58 33.0223 101.58C36.2623 101.58 40.1023 97.44 42.4423 88.2C44.5423 79.92 42.5023 74.1 39.6223 74.1C36.3223 74.1 32.7223 79.02 30.6823 86.52Z" fill="white"/>
<rect x="90.5" y="0.5" width="90" height="120" fill="#FF0561"/>
<rect x="90.5" y="0.5" width="90" height="120" stroke="black"/>
<path d="M127.746 90.06C128.766 84.78 129.906 79.26 131.226 73.5C125.046 78.12 114.606 83.46 105.486 85.08C107.106 79.08 110.586 67.86 112.686 60.9L108.786 61.44L111.306 53.58C114.186 53.28 121.026 52.26 123.546 51.84C124.446 48.96 125.766 45 126.666 41.88C124.146 42.12 117.546 42.78 113.046 43.32L115.386 36.24C120.486 35.76 133.446 34.62 138.786 34.14C137.166 40.14 133.026 52.62 131.526 57.66C130.206 57.84 126.966 58.44 123.306 59.04C121.986 63.42 120.126 69.66 119.346 72.42C123.366 71.22 127.806 69.24 132.846 66.42C135.606 54.84 138.786 43.08 141.966 32.76L152.766 31.74C150.306 39.48 148.086 47.58 146.166 55.68L150.966 54.84C152.766 47.16 154.746 39.66 156.666 32.76L167.466 31.74C161.886 50.76 157.986 72.24 155.166 89.64L143.646 90.06C145.146 81.48 147.066 72 149.166 62.58C147.606 62.88 145.986 63.18 144.426 63.42C142.386 72.6 140.706 81.54 139.266 89.64L127.746 90.06Z" fill="white"/>
</svg>
