<svg width="91" height="121" viewBox="0 0 91 121" fill="none" xmlns="http://www.w3.org/2000/svg">
<rect x="0.5" y="0.5" width="90" height="120" fill="#FF0561"/>
<rect x="0.5" y="0.5" width="90" height="120" stroke="black"/>
<path d="M22.0283 58.56C27.8483 53.28 33.3083 47.28 37.0283 41.58L26.0483 42.18L28.5683 35.1C32.7083 34.86 43.2083 34.32 50.4083 33.96C49.0283 37.14 47.1083 40.5 45.0083 43.8C46.2083 45.78 47.6483 47.76 49.3283 49.62C52.0883 46.62 54.7883 43.56 57.1283 40.56C54.9683 40.62 50.3483 40.86 48.8483 40.98L51.3683 33.96C53.4683 33.78 63.9083 33.36 71.2283 33.12C68.8283 36.9 66.0683 40.8 63.3083 44.52L66.8483 44.16C67.4483 48.36 69.1883 52.62 71.2883 56.16L60.0683 56.76C59.4683 55.08 58.9283 52.98 58.5683 50.7C57.0083 52.68 55.5683 54.48 54.1883 56.04C53.8883 57 53.5283 58.02 53.1683 59.1C62.2283 58.62 70.2683 58.26 72.7283 58.14L70.2683 65.64C65.2883 65.88 24.9683 68.22 18.1283 68.64L21.0683 60.66L40.9883 59.64C41.5883 57.96 42.1883 56.34 42.6683 55.02C41.5883 53.94 40.5683 52.68 39.6683 51.42C37.8083 53.82 36.0083 56.04 34.3283 57.9L22.0283 58.56ZM16.9283 92.04C18.3683 87.9 20.1683 82.92 21.7283 78.72L18.9083 78.9L21.6683 70.92C31.6883 70.32 54.1283 68.94 66.5483 68.22C65.5283 71.46 63.9683 75.9 62.6483 79.68C63.6083 79.62 64.4483 79.5 65.2883 79.44L63.3083 86.46C54.4883 87.66 29.9483 90.6 16.9283 92.04ZM30.3083 82.98C33.4883 82.62 42.8483 81.72 51.6683 80.82C52.2083 79.14 52.6283 77.58 52.9283 76.62C48.8483 76.86 39.9683 77.46 32.1083 78C31.3283 80.04 30.6683 81.96 30.3083 82.98Z" fill="white"/>
</svg>
