<svg width="451" height="151" viewBox="0 0 451 151" fill="none" xmlns="http://www.w3.org/2000/svg">
<rect x="0.5" y="30.5" width="90" height="120" fill="#FF0561"/>
<rect x="0.5" y="30.5" width="90" height="120" stroke="black"/>
<path d="M51.8023 104.58C53.3623 98.88 55.7623 89.82 58.1623 81.24L49.6423 82.02L51.6823 74.88L60.1423 74.16C61.3423 69.72 62.4823 65.76 63.3823 62.88L75.3823 61.92C72.0823 72.72 65.1223 93.42 62.3623 104.34L51.8023 104.58ZM15.8023 101.34C23.1823 92.94 33.0823 81.48 39.5623 71.34C33.6223 71.88 26.6623 72.36 22.2223 72.78L24.8023 65.1C33.0823 64.56 48.0823 63.54 56.3623 63.06C53.6023 68.04 48.9223 74.64 44.0623 81.06L49.1023 79.98C49.5223 85.26 50.9023 90.54 52.8823 95.04L41.0623 97.32C40.4023 94.44 39.8623 90.6 39.6223 86.76C35.5423 91.92 31.7023 96.48 29.0623 99.24L15.8023 101.34ZM23.1823 101.94L34.6423 100.2C36.2023 113.94 43.8823 115.56 50.8423 115.56C56.6623 115.56 64.5823 114.9 69.5623 113.1L63.9223 119.52C60.3823 120.9 55.0423 121.38 48.9823 121.38C37.4623 121.38 25.4023 118.02 23.1823 101.94Z" fill="white"/>
<rect x="90.5" y="0.5" width="90" height="120" fill="#FF0561"/>
<rect x="90.5" y="0.5" width="90" height="120" stroke="black"/>
<path d="M130.746 90.06C134.166 72.12 139.506 50.4 144.966 32.76L155.166 31.74C152.406 40.32 150.006 49.38 147.966 58.38L150.846 57.84C152.886 49.14 155.046 40.56 157.266 32.76L167.466 31.74C161.886 50.76 157.986 72.24 155.166 89.64L144.246 90.06C145.566 82.38 147.246 74.04 149.106 65.58L146.226 66.12C144.486 74.34 142.986 82.38 141.666 89.64L130.746 90.06ZM107.346 66.84C109.206 59.16 114.426 51.9 122.526 51.3C131.106 50.76 135.906 56.46 134.226 65.88C132.366 75.66 125.406 82.14 116.766 82.5C108.366 82.86 105.186 75.72 107.346 66.84ZM108.726 51.18L110.766 43.02C112.626 42.84 115.926 42.48 119.706 42.06C120.486 39.6 121.866 35.1 122.466 32.94L133.266 32.16C132.486 34.5 131.226 37.98 130.146 40.98C134.646 40.5 138.726 40.08 140.826 39.9L138.726 48.18C134.346 48.66 115.626 50.46 108.726 51.18ZM115.686 66.66C114.546 71.34 116.046 74.04 118.386 73.98C121.566 73.86 124.326 70.44 125.346 65.64C126.306 61.2 124.086 59.52 121.566 59.7C118.926 59.88 116.706 62.58 115.686 66.66Z" fill="white"/>
<rect x="180.5" y="0.5" width="90" height="120" fill="#FF0561"/>
<rect x="180.5" y="0.5" width="90" height="120" stroke="black"/>
<path d="M199.868 66.36C204.908 65.88 245.408 62.58 251.528 62.1L249.668 69.66C247.568 69.84 239.048 70.68 229.508 71.58C227.048 78.72 224.468 86.4 223.388 89.58L210.608 90.78L217.208 72.84C208.328 73.68 200.528 74.46 197.828 74.76L199.868 66.36ZM200.588 63.6C210.788 57.54 221.048 49.74 228.188 43.32C220.928 43.8 212.048 44.46 208.148 44.64L210.368 36.12C215.588 35.82 235.448 34.74 248.828 34.14C246.188 37.86 242.588 41.76 238.508 45.54L242.648 45.12C243.908 50.34 247.448 55.56 251.888 59.94L238.268 60.78C235.628 58.14 233.528 54.54 232.388 51C227.348 55.26 222.188 59.16 217.988 62.22L200.588 63.6Z" fill="white"/>
<rect x="270.5" y="0.5" width="90" height="120" fill="#FF0561"/>
<rect x="270.5" y="0.5" width="90" height="120" stroke="black"/>
<path d="M320.662 90.06C323.842 72.12 328.882 50.4 333.982 32.76L345.082 31.74C339.502 50.76 335.602 72.24 332.782 89.64L320.662 90.06ZM290.902 54.54C294.022 44.52 300.502 36.3 311.242 36.3C321.022 36.3 326.422 46.08 322.582 60C319.102 72.84 311.662 79.5 301.462 79.5C290.722 79.5 286.522 68.4 290.902 54.54ZM300.682 56.52C298.042 66.12 299.902 71.58 303.022 71.58C306.262 71.58 310.102 67.44 312.442 58.2C314.542 49.92 312.502 44.1 309.622 44.1C306.322 44.1 302.722 49.02 300.682 56.52Z" fill="white"/>
<rect x="360.5" y="30.5" width="90" height="120" fill="#FF0561"/>
<rect x="360.5" y="30.5" width="90" height="120" stroke="black"/>
<path d="M378.788 103.26C390.008 91.62 401.408 75.6 406.868 65.52L419.228 64.74C416.708 70.2 413.288 75.9 409.688 81.36L419.048 80.1C420.308 86.7 423.848 93.48 428.288 99.12L414.668 100.26C411.248 95.88 408.788 89.52 408.008 83.76C403.328 90.66 398.348 97.02 394.388 101.82L378.788 103.26ZM375.428 119.16L377.468 110.76C379.448 110.58 386.948 109.92 395.648 109.2C396.908 105.24 398.468 99.96 399.308 97.26L411.308 96.48C410.408 99.66 409.148 104.58 408.248 108.18C417.848 107.4 426.548 106.68 429.128 106.5L427.268 114.06C422.288 114.48 382.208 118.44 375.428 119.16Z" fill="white"/>
</svg>
