<svg width="181" height="151" viewBox="0 0 181 151" fill="none" xmlns="http://www.w3.org/2000/svg">
<rect x="0.5" y="30.5" width="90" height="120" fill="#FF0561"/>
<rect x="0.5" y="30.5" width="90" height="120" stroke="black"/>
<path d="M48.5459 93.96L50.5259 86.16C46.1459 89.82 38.1059 94.26 31.0859 95.58C31.4459 94.26 31.9259 92.7 32.4659 91.02C27.9659 93.3 22.3859 95.34 18.1859 95.88C19.7459 90.36 22.6259 80.7 24.7259 74.04L20.0459 74.46L22.5059 66.6C29.9459 65.94 49.0259 64.5 54.3659 64.14L52.3259 71.52C51.2459 71.64 49.3859 71.76 47.0459 72C45.4859 76.8 43.6859 82.74 42.9059 85.32C45.4859 84.48 48.4859 83.04 51.8459 80.76C53.5859 73.98 55.3859 66.9 56.5259 62.7L66.1259 61.74L62.5259 74.46L64.9859 74.16C66.0659 69.66 67.1459 65.52 67.8659 62.7L77.4659 61.74C75.3659 69.54 71.1659 85.74 69.2459 92.58L60.4859 93.06L63.3059 81.24L60.5459 81.54C59.2259 86.28 58.0259 90.66 57.3059 93.48L48.5459 93.96ZM19.3259 122.04C21.1259 116.64 23.4059 110.1 25.2659 104.94C23.7659 105.06 22.5659 105.12 21.6659 105.18L24.4259 96.9C34.4459 96.3 56.8859 94.92 69.3059 94.2C68.1659 98.58 66.2459 104.82 64.7459 109.74C65.7659 109.62 66.7859 109.56 67.6859 109.44L65.7059 116.46C56.8859 117.66 32.3459 120.6 19.3259 122.04ZM29.7659 86.64C31.1459 86.34 32.6459 85.86 34.2059 85.14L37.9859 72.84C36.6059 72.96 35.2259 73.08 33.8459 73.2C32.5259 77.46 30.5459 83.88 29.7659 86.64ZM32.7059 112.98C35.8859 112.62 45.0059 111.72 53.7659 110.82C54.5459 107.82 55.2659 104.7 55.6859 102.9C51.7859 103.14 43.5659 103.68 35.9459 104.22C34.6259 107.7 33.3059 111.3 32.7059 112.98Z" fill="white"/>
<rect x="90.5" y="0.5" width="90" height="120" fill="#FF0561"/>
<rect x="90.5" y="0.5" width="90" height="120" stroke="black"/>
<path d="M130.746 90.06C132.426 81.24 134.586 71.46 136.986 61.74L133.686 62.1C130.146 73.38 124.266 79.5 117.126 79.5C108.486 79.5 105.546 69.54 109.326 55.62C112.506 43.98 117.966 36.3 126.366 36.3C132.966 36.3 137.106 43.02 135.486 54.3L138.966 53.94C140.886 46.62 142.926 39.36 144.966 32.76L155.166 31.74C149.046 50.76 144.786 72.24 141.666 89.64L130.746 90.06ZM118.026 57.18C115.806 65.46 116.706 70.14 118.746 70.14C120.846 70.14 123.726 66 125.706 58.08C127.506 50.94 126.726 46.5 124.566 46.5C122.466 46.5 119.706 50.76 118.026 57.18ZM144.246 90.06C147.366 72.12 152.286 50.4 157.266 32.76L167.466 31.74C161.886 50.76 157.986 72.24 155.166 89.64L144.246 90.06Z" fill="white"/>
</svg>
