<svg width="361" height="151" viewBox="0 0 361 151" fill="none" xmlns="http://www.w3.org/2000/svg">
<rect x="0.5" y="30.5" width="90" height="120" fill="#FF0561"/>
<rect x="0.5" y="30.5" width="90" height="120" stroke="black"/>
<path d="M17.4683 110.76L28.8083 109.8C31.3883 102.78 35.6483 90.84 37.8083 85.26L49.8083 84.48C47.3483 91.14 43.5683 102.48 41.4083 108.78C53.4083 107.76 65.9483 106.74 69.1283 106.5L67.2683 114.06C62.2883 114.48 22.2083 118.44 15.4283 119.16L17.4683 110.76ZM26.4683 75.66L29.2283 67.5C39.4883 66.72 62.4683 65.22 75.3083 64.38C71.1083 75.54 65.3483 90.84 60.6083 103.14L49.2083 104.1C53.7083 91.74 57.9683 79.44 60.1883 73.14C48.7883 73.92 32.3483 75.18 26.4683 75.66Z" fill="white"/>
<rect x="90.5" y="30.5" width="90" height="120" fill="#FF0561"/>
<rect x="90.5" y="30.5" width="90" height="120" stroke="black"/>
<path d="M134.646 93.96C134.766 93.54 134.826 93.12 134.946 92.7L125.046 93.72C124.746 91.44 124.506 88.56 124.326 85.56C121.986 89.94 119.586 93.84 117.546 96.24L105.486 97.14C113.166 88.38 120.906 72.6 125.106 63.66L134.706 63.06C133.146 67.08 130.866 72.36 128.406 77.58L132.726 76.68C133.026 81.96 133.866 87.3 135.186 91.92C137.286 83.58 140.826 69.36 142.626 62.7L153.426 61.74C152.466 65.04 151.146 69.72 149.766 74.64L153.726 74.22C154.866 69.72 155.886 65.52 156.666 62.7L167.466 61.74C165.246 70.14 160.746 87.6 158.646 94.98L148.686 95.46C149.526 91.92 150.726 86.7 152.046 81.3L147.786 81.78C146.526 86.4 145.326 90.72 144.606 93.48L134.646 93.96ZM112.746 107.88C116.406 100.32 127.566 95.4 140.166 95.64C151.866 95.88 158.166 101.88 155.706 108.24C152.166 117.66 141.066 121.74 127.686 121.38C114.486 121.08 109.326 115.02 112.746 107.88ZM123.126 108.48C121.566 111.42 124.446 113.4 130.446 113.34C136.866 113.52 142.566 111.66 144.246 108C145.566 105 143.166 103.44 136.446 103.44C130.146 103.5 124.626 105.66 123.126 108.48Z" fill="white"/>
<rect x="180.5" y="0.5" width="90" height="120" fill="#FF0561"/>
<rect x="180.5" y="0.5" width="90" height="120" stroke="black"/>
<path d="M208.266 83.46C214.386 70.02 219.846 53.64 223.326 42.9L219.126 43.62C214.326 60.24 209.586 73.2 205.326 82.8L194.466 83.46C200.826 70.14 206.526 53.76 210.126 43.08C208.206 43.38 203.406 44.1 200.046 44.64L202.386 37.02C206.586 36.48 217.146 35.16 221.586 34.68C221.466 35.22 221.286 35.76 221.166 36.24C226.026 35.52 231.786 34.74 234.786 34.38C229.326 55.5 223.926 71.52 219.126 82.8L208.266 83.46ZM223.746 90.06C227.166 72.12 232.506 50.4 237.966 32.76L247.266 31.74C244.866 39.24 242.706 47.1 240.846 54.96C241.806 54.84 242.766 54.66 243.726 54.48C245.526 46.92 247.446 39.54 249.366 32.76L258.666 31.74C253.086 50.76 249.186 72.24 246.366 89.64L236.346 90.06C237.846 81.36 239.766 71.82 241.926 62.22L239.046 62.76C237.006 72.18 235.266 81.36 233.766 89.64L223.746 90.06Z" fill="white"/>
<rect x="270.5" y="30.5" width="90" height="120" fill="#FF0561"/>
<rect x="270.5" y="30.5" width="90" height="120" stroke="black"/>
<path d="M287.287 113.28C290.227 101.7 296.947 78.72 300.727 65.58L312.067 65.4C309.307 74.94 304.207 93.48 302.347 100.32C309.187 98.7 316.927 95.04 325.747 89.7C327.967 80.34 330.367 71.1 332.767 62.76L343.867 61.74C341.467 69.9 339.367 78.54 337.567 87.06C340.267 86.76 342.967 86.4 345.727 86.04L343.867 93.72C341.287 94.08 338.587 94.5 335.947 94.86C334.267 103.5 332.827 111.96 331.567 119.64L319.447 120.06C320.767 112.74 322.387 104.76 324.187 96.66C315.967 103.2 300.607 111.66 287.287 113.28Z" fill="white"/>
</svg>
