<svg width="271" height="181" viewBox="0 0 271 181" fill="none" xmlns="http://www.w3.org/2000/svg">
<rect x="0.5" y="0.5" width="90" height="120" fill="#FF0561"/>
<rect x="0.5" y="0.5" width="90" height="120" stroke="black"/>
<path d="M45.3659 65.76C47.4659 57.42 51.7259 40.38 53.8259 32.7L64.6259 31.74C63.7259 35.04 62.4059 39.66 61.0259 44.52L63.7859 44.22C64.8659 39.72 65.8859 35.52 66.6659 32.7L77.4659 31.74C75.2459 40.02 70.8059 57.18 68.7659 64.38L58.8059 64.86C59.6459 61.44 60.7859 56.46 62.0459 51.3L59.0459 51.66C57.5459 57.06 56.1659 62.1 55.3259 65.28L45.3659 65.76ZM14.2859 90.48C21.8459 83.52 28.9859 75 33.1859 68.04L43.4459 67.44C42.3659 69.54 41.1059 71.7 39.7259 73.86C41.4059 75.72 43.5059 77.52 45.7859 79.14C49.1459 75 52.1459 70.8 54.4859 66.78L64.7459 66.18C63.4859 68.7 61.8659 71.28 60.1859 73.86C63.3659 78.24 67.6859 82.8 72.4859 86.58L60.9659 87.42C59.0459 85.68 57.0059 83.46 55.0859 80.94C52.8059 83.94 50.5259 86.7 48.5459 88.92L36.2459 89.76C37.6259 88.32 39.0059 86.88 40.3859 85.38C38.4659 84.06 36.6059 82.38 34.9259 80.52C32.2859 84 29.5259 87.18 27.1859 89.64L14.2859 90.48ZM19.6259 57.72C20.8259 50.94 27.1259 46.14 35.2859 45.72C42.8459 45.36 47.3459 48.42 46.5059 54.48C45.3059 62.34 38.1659 66.36 30.9059 66.9C22.6259 67.56 18.4859 63.96 19.6259 57.72ZM19.9859 45.96L22.2059 38.22L32.1659 37.56C32.9459 35.46 33.6659 33.3 34.2059 31.74L44.7059 31.14C44.1059 32.64 43.2659 34.8 42.4859 36.9C45.6659 36.72 48.7859 36.48 51.7259 36.3L49.7459 43.26C43.0859 43.92 28.3859 45.24 19.9859 45.96ZM28.0859 56.88C27.7859 58.8 29.2259 59.76 32.1659 59.4C34.9259 58.98 36.9059 57.54 37.2059 55.56C37.5059 53.7 36.0659 52.68 33.1259 53.04C30.3659 53.46 28.3859 54.9 28.0859 56.88Z" fill="white"/>
<rect x="90.5" y="30.5" width="90" height="120" fill="#FF0561"/>
<rect x="90.5" y="30.5" width="90" height="120" stroke="black"/>
<path d="M130.762 111.72C129.742 107.58 129.082 101.76 128.782 96.18C124.822 102.66 120.982 108.24 117.562 112.92L104.302 113.82C114.742 100.8 125.182 84.9 130.642 74.46C126.682 74.82 117.142 75.6 112.222 75.96L114.442 67.68C120.862 67.26 137.062 66.18 144.982 65.82C140.782 75.06 136.462 83.28 132.202 90.6L138.262 89.28C138.682 96.72 140.242 104.28 142.402 110.7C145.522 94.92 149.722 77.4 153.982 62.76L165.082 61.74C159.502 80.76 155.602 102.24 152.782 119.64L140.662 120.06C141.202 117.12 141.742 114.12 142.342 111L130.762 111.72Z" fill="white"/>
<rect x="180.5" y="60.5" width="90" height="120" fill="#FF0561"/>
<rect x="180.5" y="60.5" width="90" height="120" stroke="black"/>
<path d="M231.187 134.58C234.007 124.08 239.827 102.54 242.767 92.88L254.767 91.92C253.327 96.6 251.227 103.2 249.007 110.04L255.847 109.26L253.327 116.4L246.787 117.18C244.747 123.66 242.887 129.84 241.747 134.34L231.187 134.58ZM198.847 129.12C201.727 117.54 205.447 102.72 208.147 93.78L219.187 93.06C218.887 94.02 218.527 94.98 218.227 96C223.447 95.46 230.467 94.92 238.207 94.44L230.527 116.7C231.367 116.52 232.267 116.34 233.047 116.16L233.587 122.52C227.767 124.02 218.947 125.82 211.447 126.6L211.087 121.02C210.487 123.36 209.947 125.52 209.527 127.38L198.847 129.12ZM203.167 131.94L214.627 130.2C216.187 143.94 223.867 145.56 230.227 145.56C236.047 145.56 243.967 144.9 248.947 143.1L243.307 149.52C239.767 150.9 234.427 151.38 228.367 151.38C217.447 151.38 205.387 148.02 203.167 131.94ZM211.507 119.34C214.387 119.1 217.447 118.8 220.387 118.38C222.307 112.56 224.647 104.46 225.307 101.88C223.087 102.06 219.547 102.36 216.187 102.6C214.507 108.18 212.887 114.12 211.507 119.34Z" fill="white"/>
</svg>
