<svg width="181" height="151" viewBox="0 0 181 151" fill="none" xmlns="http://www.w3.org/2000/svg">
<rect x="0.5" y="0.5" width="90" height="120" fill="#FF0561"/>
<rect x="0.5" y="0.5" width="90" height="120" stroke="black"/>
<path d="M14.2871 83.82C23.8271 71.22 33.4871 48.36 38.6471 35.46L48.8471 34.86C46.8671 40.8 43.9871 48.66 40.7471 56.4L46.9871 55.08C47.5871 63.18 49.5071 71.4 52.2071 78.6C55.3271 63.36 59.2871 46.8 63.3671 32.76L74.4671 31.74C72.0671 39.9 69.9671 48.54 68.1671 57.06C70.8671 56.76 73.5671 56.4 76.3271 56.04L74.4671 63.72C71.8871 64.08 69.1871 64.5 66.5471 64.86C64.8671 73.5 63.4271 81.96 62.1671 89.64L50.0471 90.06C50.5871 87.12 51.1271 84.12 51.7271 81.06L41.3471 81.72C39.4871 76.8 38.2271 70.14 37.6871 63.6C34.2071 71.52 30.5471 78.72 27.5471 82.92L14.2871 83.82Z" fill="white"/>
<rect x="90.5" y="30.5" width="90" height="120" fill="#FF0561"/>
<rect x="90.5" y="30.5" width="90" height="120" stroke="black"/>
<path d="M146.422 90.18C148.462 81.72 151.162 71.22 153.382 62.88L165.382 61.92C162.562 70.86 159.322 81.12 157.042 89.34L146.422 90.18ZM104.902 92.34C114.202 84.84 123.622 71.34 128.662 63.66L139.162 63.06C137.182 66.66 134.302 71.34 131.182 76.02L137.902 74.58C138.502 79.86 140.602 85.14 143.482 89.64L131.662 90.72C130.042 87.78 128.902 83.76 128.482 79.8C125.062 84.6 121.462 88.92 118.462 91.44L104.902 92.34ZM110.242 111.84L112.282 104.58C119.482 104.16 136.822 102.84 143.062 102.24L144.022 98.58C138.262 99 123.382 100.02 113.182 100.92L115.162 93.84C124.282 93.18 147.382 91.44 156.982 90.78C155.782 95.16 153.502 104.16 152.602 107.76L125.362 110.34C125.302 113.76 127.162 115.02 132.742 114.96C139.822 114.9 151.222 113.22 162.382 108L159.382 114.36C150.802 119.1 140.902 121.14 132.862 121.38C117.442 121.86 113.242 118.38 113.662 111.48C112.342 111.66 111.142 111.72 110.242 111.84Z" fill="white"/>
</svg>
