<svg width="91" height="121" viewBox="0 0 91 121" fill="none" xmlns="http://www.w3.org/2000/svg">
<rect x="0.5" y="0.5" width="90" height="120" fill="#FF0561"/>
<rect x="0.5" y="0.5" width="90" height="120" stroke="black"/>
<path d="M50.6623 90.06C52.0423 82.44 53.7223 74.1 55.5823 65.64C46.5223 72.84 30.9223 81.54 17.3023 83.28C20.2423 71.7 26.9623 48.72 30.7423 35.58L42.0823 35.4C39.3223 44.94 34.2223 63.48 32.3623 70.32C39.6823 68.52 47.9023 64.62 57.1423 58.92C59.3023 49.86 61.6423 40.86 63.9823 32.76L75.0823 31.74C69.5023 50.76 65.6023 72.24 62.7823 89.64L50.6623 90.06Z" fill="white"/>
</svg>
