<svg width="451" height="181" viewBox="0 0 451 181" fill="none" xmlns="http://www.w3.org/2000/svg">
<rect x="0.5" y="60.5" width="90" height="120" fill="#FF0561"/>
<rect x="0.5" y="60.5" width="90" height="120" stroke="black"/>
<path d="M50.0471 150.06C53.2271 132.12 58.2671 110.4 63.3671 92.76L74.4671 91.74C72.0671 99.9 69.9671 108.54 68.1671 117.06C70.8671 116.76 73.5671 116.4 76.3271 116.04L74.4671 123.72C71.8871 124.08 69.1871 124.5 66.5471 124.86C64.8671 133.5 63.4271 141.96 62.1671 149.64L50.0471 150.06ZM20.8871 114.54C24.0071 104.52 30.6071 96.3 41.5271 96.3C51.6071 96.3 57.0071 106.02 53.1671 120C49.6871 132.84 42.0671 139.5 31.7471 139.5C20.7671 139.5 16.5071 128.4 20.8871 114.54ZM30.6671 116.52C28.0271 126.12 30.0071 131.58 33.3071 131.58C36.6671 131.58 40.6871 127.44 43.0271 118.2C45.1271 109.8 43.2671 104.1 39.9071 104.1C36.4871 104.1 32.7071 109.02 30.6671 116.52Z" fill="white"/>
<rect x="90.5" y="30.5" width="90" height="120" fill="#FF0561"/>
<rect x="90.5" y="30.5" width="90" height="120" stroke="black"/>
<path d="M140.662 120.06C142.042 112.44 143.722 104.1 145.582 95.64C136.522 102.84 120.922 111.54 107.302 113.28C110.242 101.7 116.962 78.72 120.742 65.58L132.082 65.4C129.322 74.94 124.222 93.48 122.362 100.32C129.682 98.52 137.902 94.62 147.142 88.92C149.302 79.86 151.642 70.86 153.982 62.76L165.082 61.74C159.502 80.76 155.602 102.24 152.782 119.64L140.662 120.06Z" fill="white"/>
<rect x="180.5" y="0.5" width="90" height="120" fill="#FF0561"/>
<rect x="180.5" y="0.5" width="90" height="120" stroke="black"/>
<path d="M234.982 63.18C235.822 59.94 237.142 55.26 238.462 50.4L232.882 51.06C229.462 57.9 221.842 62.04 212.782 62.64C202.942 63.3 197.902 57.6 200.122 48.66C202.282 40.08 210.982 33.54 221.062 33.36C229.102 33.24 234.742 37.14 234.682 43.98L240.382 43.32C241.522 39.24 242.602 35.46 243.382 32.88L255.382 31.92C252.862 39.72 247.642 54.6 245.542 62.58L234.982 63.18ZM193.102 90.48C200.842 82.98 208.162 73.74 212.482 66.24L222.742 65.64C221.542 68.16 220.042 70.74 218.422 73.26C220.102 75.3 222.202 77.16 224.422 78.9C228.022 74.22 231.322 69.48 233.782 64.98L244.042 64.38C242.602 67.26 240.862 70.32 238.942 73.26C242.182 77.82 246.442 82.62 251.302 86.58L239.782 87.42C237.862 85.56 235.822 83.22 233.902 80.64C231.622 83.76 229.342 86.58 227.362 88.92L215.062 89.76C216.442 88.32 217.762 86.82 219.082 85.26C217.222 83.88 215.362 82.08 213.742 80.16C211.102 83.76 208.342 87.06 206.002 89.64L193.102 90.48ZM210.082 48.18C208.882 52.62 211.282 54.72 214.522 54.48C218.902 54.12 222.262 51.48 223.162 47.52C224.182 43.08 222.322 41.22 218.662 41.34C214.162 41.46 211.042 44.76 210.082 48.18Z" fill="white"/>
<rect x="270.5" y="0.5" width="90" height="120" fill="#FF0561"/>
<rect x="270.5" y="0.5" width="90" height="120" stroke="black"/>
<path d="M287.468 80.76C292.508 80.28 333.008 76.98 339.128 76.5L337.268 84.06C332.288 84.48 292.208 88.44 285.428 89.16L287.468 80.76ZM295.088 51.96C297.668 42.72 306.728 34.56 320.048 33.9C334.568 33.18 342.248 39.96 339.848 49.98C336.968 61.8 326.828 69.12 312.128 69.9C298.328 70.62 292.088 62.76 295.088 51.96ZM305.168 51.72C303.368 58.38 307.088 62.4 313.808 61.98C319.868 61.62 327.008 57.78 328.928 50.4C330.428 44.52 326.048 41.16 318.908 41.7C312.968 42.12 306.728 45.9 305.168 51.72Z" fill="white"/>
<rect x="360.5" y="30.5" width="90" height="120" fill="#FF0561"/>
<rect x="360.5" y="30.5" width="90" height="120" stroke="black"/>
<path d="M381.068 92.46C386.108 92.16 426.608 90.24 432.728 89.94L430.268 97.44C425.288 97.68 384.968 100.02 378.128 100.44L381.068 92.46ZM382.568 103.74L394.028 102C395.588 113.58 403.268 114.96 410.228 114.96C416.048 114.96 423.968 114.3 428.948 112.5L423.308 119.52C419.768 120.9 414.428 121.38 408.368 121.38C396.848 121.38 384.788 118.32 382.568 103.74ZM384.428 89.64C386.228 84.3 388.568 77.82 390.368 72.9C388.988 73.02 387.908 73.08 387.068 73.14L389.828 64.86C399.848 64.26 422.288 62.88 434.708 62.16C433.388 66.84 431.108 73.68 429.548 78.48C430.748 78.36 431.828 78.3 432.788 78.24L430.808 85.26C421.988 86.22 397.448 88.5 384.428 89.64ZM397.808 80.58C400.928 80.4 410.108 79.8 418.868 79.2C419.708 76.14 420.608 72.72 421.088 70.86C417.128 71.1 408.488 71.7 400.748 72.18C399.548 75.48 398.348 78.96 397.808 80.58Z" fill="white"/>
</svg>
