<svg width="271" height="181" viewBox="0 0 271 181" fill="none" xmlns="http://www.w3.org/2000/svg">
<rect x="0.5" y="60.5" width="90" height="120" fill="#FF0561"/>
<rect x="0.5" y="60.5" width="90" height="120" stroke="black"/>
<path d="M37.1459 150.06C38.1659 144.72 39.3659 139.02 40.6859 133.26C34.0259 137.58 24.1859 142.26 15.4859 143.28C18.4259 131.7 25.1459 108.72 28.9259 95.58L39.0659 95.4C36.3059 105.24 31.2059 124.44 29.3459 131.7C33.1859 130.68 37.4459 128.94 42.2459 126.48C45.0059 114.9 48.1859 103.14 51.3659 92.76L62.1659 91.74C59.6459 99.48 57.4859 107.64 55.5659 115.74L60.9659 114.84C62.7659 107.16 64.7459 99.66 66.6659 92.76L77.4659 91.74C71.8859 110.76 67.9859 132.24 65.1659 149.64L53.6459 150.06C55.1459 141.48 57.0659 132 59.1659 122.58C57.3659 122.88 55.5659 123.24 53.7659 123.54C51.7859 132.66 50.1059 141.6 48.6659 149.64L37.1459 150.06Z" fill="white"/>
<rect x="90.5" y="30.5" width="90" height="120" fill="#FF0561"/>
<rect x="90.5" y="30.5" width="90" height="120" stroke="black"/>
<path d="M141.802 104.58C144.622 94.08 150.442 72.54 153.382 62.88L165.382 61.92C162.082 72.72 155.122 93.42 152.362 104.34L141.802 104.58ZM110.122 81.06C112.582 71.58 121.162 64.14 131.362 63.96C140.722 63.84 147.082 69.66 144.922 79.26C142.762 89.64 134.122 96.12 123.082 96.84C113.062 97.5 107.602 91.02 110.122 81.06ZM113.182 101.94L124.642 100.2C126.202 113.94 133.882 115.56 140.842 115.56C146.662 115.56 154.582 114.9 159.562 113.1L153.922 119.52C150.382 120.9 145.042 121.38 138.982 121.38C127.462 121.38 115.402 118.02 113.182 101.94ZM120.082 80.58C118.582 86.16 121.402 88.86 124.822 88.68C129.382 88.38 132.562 84.9 133.762 79.92C135.082 74.34 132.922 71.82 128.962 71.94C124.282 72.06 121.282 76.38 120.082 80.58Z" fill="white"/>
<rect x="180.5" y="0.5" width="90" height="120" fill="#FF0561"/>
<rect x="180.5" y="0.5" width="90" height="120" stroke="black"/>
<path d="M224.646 63.96C224.766 63.54 224.826 63.12 224.946 62.7L215.046 63.72C214.746 61.44 214.506 58.56 214.326 55.56C211.986 59.94 209.586 63.84 207.546 66.24L195.486 67.14C203.166 58.38 210.906 42.6 215.106 33.66L224.706 33.06C223.146 37.08 220.866 42.36 218.406 47.58L222.726 46.68C223.026 51.96 223.866 57.3 225.186 61.92C227.286 53.58 230.826 39.36 232.626 32.7L243.426 31.74C242.466 35.04 241.146 39.72 239.766 44.64L243.726 44.22C244.866 39.72 245.886 35.52 246.666 32.7L257.466 31.74C255.246 40.14 250.746 57.6 248.646 64.98L238.686 65.46C239.526 61.92 240.726 56.7 242.046 51.3L237.786 51.78C236.526 56.4 235.326 60.72 234.606 63.48L224.646 63.96ZM202.746 77.88C206.406 70.32 217.566 65.4 230.166 65.64C241.866 65.88 248.166 71.88 245.706 78.24C242.166 87.66 231.066 91.74 217.686 91.38C204.486 91.08 199.326 85.02 202.746 77.88ZM213.126 78.48C211.566 81.42 214.446 83.4 220.446 83.34C226.866 83.52 232.566 81.66 234.246 78C235.566 75 233.166 73.44 226.446 73.44C220.146 73.5 214.626 75.66 213.126 78.48Z" fill="white"/>
</svg>
