<svg width="1920" height="1080" viewBox="0 0 1920 1080" fill="none" xmlns="http://www.w3.org/2000/svg">
<g clip-path="url(#clip0_355_467)">
<rect width="1920" height="1080" fill="#FF961E"/>
<path d="M101.16 872.44L99.72 874.4C93.96 872.56 87.84 868.4 85.4 863.08C83 868.4 76.92 872.56 71.12 874.4L69.64 872.44C76.4 870.48 84 864.8 84 858.16V855.2H86.84V858.16C86.84 864.8 94.44 870.48 101.16 872.44ZM102.92 884.36H67.96V882.2H84.04V872.6H86.8V882.2H102.92V884.36ZM135.437 889.28H132.757V853.72H135.437V889.28ZM130.877 877.12V879.32C126.397 880.2 119.397 880.64 113.997 880.64H107.677V867H122.037V858.04H107.677V855.88H124.757V869.12H110.317V878.44H113.997C119.397 878.44 126.077 878.04 130.877 877.12ZM166.474 887.6H163.874V869.32H159.034C158.794 877.16 155.474 881.72 150.954 881.72C146.274 881.72 142.874 876.76 142.874 868.32C142.874 859.92 146.274 854.96 150.954 854.96C155.434 854.96 158.754 859.44 159.034 867.08H163.874V854.32H166.474V887.6ZM150.954 879.56C154.314 879.56 156.474 875.12 156.474 868.32C156.474 861.56 154.314 857.12 150.954 857.12C147.674 857.12 145.474 861.56 145.474 868.32C145.474 875.12 147.674 879.56 150.954 879.56ZM173.714 889.28H171.034V853.72H173.714V889.28ZM219.161 889.28H216.521V853.72H219.161V866.6H225.161V868.88H219.161V889.28ZM191.001 868.2C191.001 859.68 194.881 854.68 200.081 854.68C205.281 854.68 209.201 859.68 209.201 868.2C209.201 876.76 205.281 881.76 200.081 881.76C194.881 881.76 191.001 876.76 191.001 868.2ZM206.521 868.2C206.521 860.88 203.801 856.84 200.081 856.84C196.361 856.84 193.681 860.88 193.681 868.2C193.681 875.56 196.361 879.6 200.081 879.6C203.801 879.6 206.521 875.56 206.521 868.2ZM257.918 889.28H255.238V853.72H257.918V889.28ZM228.638 868.2C228.638 859.68 232.558 854.68 237.758 854.68C242.998 854.68 246.878 859.68 246.878 868.2C246.878 876.76 242.998 881.76 237.758 881.76C232.558 881.76 228.638 876.76 228.638 868.2ZM244.198 868.2C244.198 860.88 241.518 856.84 237.758 856.84C234.038 856.84 231.317 860.88 231.317 868.2C231.317 875.56 234.038 879.6 237.758 879.6C241.518 879.6 244.198 875.56 244.198 868.2ZM298.154 873.28H281.514V889.28H278.834V873.28H263.194V871.12H288.914C289.794 866.84 290.474 861.96 290.754 857.68H267.274V855.52H293.514C293.314 860.32 292.434 866.8 291.634 871.12H298.154V873.28ZM327.601 880.24H313.881V855.92H316.481V865.04H324.921V855.92H327.601V880.24ZM324.921 878.08V867.2H316.481V878.08H324.921ZM342.561 889.28H339.921V868.76H334.481V887.6H331.881V854.32H334.481V866.4H339.921V853.72H342.561V889.28ZM350.558 881.68L348.838 879.88C358.278 875.28 363.558 867.28 364.558 858.24H351.038V856.08H367.478C366.918 868.12 359.998 876.92 350.558 881.68ZM377.598 889.28H374.958V853.72H377.598V867.6H383.598V869.88H377.598V889.28ZM426.765 889.28H424.085V868.52H417.645V866.28H424.085V853.72H426.765V889.28ZM421.085 877.12V879.32C416.645 880.2 409.645 880.64 404.285 880.64H399.205V855.88H416.565V858.04H401.885V867H415.325V869.12H401.885V878.44H404.285C409.645 878.44 416.365 878.04 421.085 877.12ZM457.562 879.16L455.922 881.08C451.362 878.48 446.802 873.92 445.282 869.52C443.882 874.44 439.682 879.04 434.522 882.12L432.722 880.36C438.562 877.08 443.762 870.96 443.762 862.68V858.24H434.802V856.08H455.322V858.24H446.602V862.68C446.602 870.8 452.442 876.52 457.562 879.16ZM464.402 889.28H461.722V872.08H454.082V869.92H461.722V863.92H454.122V861.76H461.722V853.72H464.402V889.28ZM472.159 881.64L470.119 879.92C478.399 875.28 482.679 866.4 483.159 858.48H472.119V856.32H486.039C485.839 867.32 480.559 876.52 472.159 881.64ZM494.079 887.6H491.479V869.4H485.399V867.16H491.479V854.32H494.079V887.6ZM501.399 889.28H498.759V853.72H501.399V889.28ZM537.526 870.04H520.526V854.96H523.166V860.24H534.846V854.96H537.526V870.04ZM550.566 887.28L549.206 889.28C543.806 888.6 538.446 886 536.286 882.96C534.166 886 528.766 888.6 523.286 889.28L522.046 887.28C527.286 886.6 533.406 884 534.566 880.72H523.406V878.6H549.166V880.72H537.966C539.166 884 545.246 886.6 550.566 887.28ZM534.846 867.92V862.32H523.166V867.92H534.846ZM548.726 874.2H546.086V853.72H548.726V874.2ZM542.686 875.92H529.646V873.84H542.686V875.92ZM579.723 876.28V878.44C575.243 879.36 568.243 879.76 562.883 879.76H557.363V855.36H560.003V877.56H562.883C568.243 877.56 574.923 877.16 579.723 876.28ZM584.083 889.28H581.443V853.72H584.083V865.92H590.083V868.2H584.083V889.28ZM622.839 889.28H620.159V875.08H610.719C609.199 879.4 606.199 881.76 602.639 881.76C597.439 881.76 593.559 876.76 593.559 868.2C593.559 859.68 597.439 854.68 602.639 854.68C606.159 854.68 609.079 856.96 610.599 861.08H620.159V853.72H622.839V889.28ZM602.639 879.6C606.359 879.6 609.079 875.56 609.079 868.2C609.079 860.88 606.359 856.84 602.639 856.84C598.919 856.84 596.239 860.88 596.239 868.2C596.239 875.56 598.919 879.6 602.639 879.6ZM620.159 872.92V863.24H611.199C611.559 864.72 611.759 866.4 611.759 868.2C611.759 869.92 611.599 871.52 611.319 872.92H620.159ZM670.046 889.28H667.366V869.36H659.166V867.12H667.366V853.72H670.046V889.28ZM642.326 881.68L640.566 879.88C650.006 875.28 655.286 867.28 656.286 858.24H642.766V856.08H659.206C658.686 868.12 651.726 876.92 642.326 881.68ZM707.083 889.48H704.443V879.24H682.523V877.04H707.083V889.48ZM707.163 875.12H704.523V864.16H693.243V862H704.523V853.72H707.163V875.12ZM701.563 868.76V870.88C697.403 871.8 690.883 872.28 685.283 872.28H679.163V855.56H696.203V857.68H681.803V870.08H685.283C690.683 870.08 697.163 869.64 701.563 868.76ZM734.04 863.68C734.04 868.8 730.08 872.88 724.36 872.88C718.56 872.88 714.64 868.8 714.64 863.68C714.64 858.48 718.56 854.36 724.36 854.36C730.08 854.36 734.04 858.48 734.04 863.68ZM724.36 870.72C728.76 870.72 731.36 867.6 731.36 863.64C731.36 859.64 728.76 856.52 724.36 856.52C719.92 856.52 717.36 859.64 717.36 863.64C717.36 867.6 719.92 870.72 724.36 870.72ZM744.4 880.12H741.72V853.72H744.4V880.12ZM745.72 888.72H720.6V876.88H723.28V886.56H745.72V888.72ZM774.437 879.16L772.797 881.08C768.237 878.48 763.677 873.92 762.157 869.52C760.757 874.44 756.557 879.04 751.397 882.12L749.597 880.36C755.437 877.08 760.637 870.96 760.637 862.68V858.24H751.677V856.08H772.197V858.24H763.477V862.68C763.477 870.8 769.317 876.52 774.437 879.16ZM781.277 889.28H778.597V853.72H781.277V889.28ZM821.514 884.36H786.554V882.2H802.874V872.8H791.474V855.96H817.034V858.12H794.154V870.64H817.434V872.8H805.594V882.2H821.514V884.36ZM865.441 888.88H839.481V880.84H861.881V877.2H839.481V875.08H864.561V882.84H842.161V886.76H865.441V888.88ZM869.521 871.56H834.641V869.44H850.681V865.4H839.521V854.88H864.561V865.4H853.441V869.44H869.521V871.56ZM861.881 863.28V856.96H842.201V863.28H861.881ZM902.078 875.12H876.317V864.32H898.278V857.84H876.317V855.68H900.918V866.44H878.998V872.92H902.078V875.12ZM906.358 884.16H871.398V882H906.358V884.16ZM943.154 873.28H926.514V889.28H923.834V873.28H908.194V871.12H933.914C934.794 866.84 935.474 861.96 935.754 857.68H912.274V855.52H938.514C938.314 860.32 937.434 866.8 936.634 871.12H943.154V873.28ZM99.48 949.28H96.8V935.08H87.36C85.84 939.4 82.84 941.76 79.28 941.76C74.08 941.76 70.2 936.76 70.2 928.2C70.2 919.68 74.08 914.68 79.28 914.68C82.8 914.68 85.72 916.96 87.24 921.08H96.8V913.72H99.48V949.28ZM79.28 939.6C83 939.6 85.72 935.56 85.72 928.2C85.72 920.88 83 916.84 79.28 916.84C75.56 916.84 72.88 920.88 72.88 928.2C72.88 935.56 75.56 939.6 79.28 939.6ZM96.8 932.92V923.24H87.84C88.2 924.72 88.4 926.4 88.4 928.2C88.4 929.92 88.24 931.52 87.96 932.92H96.8ZM135.437 949.28H132.757V913.72H135.437V949.28ZM107.717 941.68L105.957 939.88C115.397 935.28 120.717 927.28 121.757 918.24H108.157V916.08H124.637C124.117 928.12 117.117 936.92 107.717 941.68ZM166.474 947.6H163.874V929.32H159.034C158.794 937.16 155.474 941.72 150.954 941.72C146.274 941.72 142.874 936.76 142.874 928.32C142.874 919.92 146.274 914.96 150.954 914.96C155.434 914.96 158.754 919.44 159.034 927.08H163.874V914.32H166.474V947.6ZM150.954 939.56C154.314 939.56 156.474 935.12 156.474 928.32C156.474 921.56 154.314 917.12 150.954 917.12C147.674 917.12 145.474 921.56 145.474 928.32C145.474 935.12 147.674 939.56 150.954 939.56ZM173.714 949.28H171.034V913.72H173.714V949.28ZM214.801 936.28V938.44C210.321 939.36 203.321 939.76 197.961 939.76H192.441V915.36H195.081V937.56H197.961C203.321 937.56 210.001 937.16 214.801 936.28ZM219.161 949.28H216.521V913.72H219.161V925.92H225.161V928.2H219.161V949.28ZM261.808 945.96H258.968L253.168 926.6L247.247 945.96H244.448L237.528 923.84H240.248L245.888 943.2L251.648 923.84H254.648L260.488 943.2L266.048 923.84H268.728L261.808 945.96ZM282.298 946.52C275.698 946.52 271.898 941.92 271.898 934.84C271.898 927.84 275.658 923.28 282.298 923.28C288.858 923.28 292.698 927.84 292.698 934.84C292.698 941.88 288.778 946.52 282.298 946.52ZM282.298 944.52C287.578 944.52 290.138 940.4 290.138 934.84C290.138 929.32 287.538 925.28 282.298 925.28C276.978 925.28 274.418 929.44 274.418 934.84C274.418 940.32 276.898 944.52 282.298 944.52ZM316.57 946H314.09V943H313.97C312.45 945.24 309.65 946.52 306.49 946.52C301.33 946.52 298.29 943.24 298.29 938.36V923.8H300.85V937.52C300.85 941.72 302.41 944.56 307.05 944.56C310.57 944.56 314.01 942.24 314.01 936.76V923.8H316.57V946ZM326.443 946H323.923V915.12H326.443V946ZM352.285 946H349.765V942.64H349.645C348.085 945 345.285 946.52 342.165 946.52C336.045 946.56 332.405 941.52 332.405 934.84C332.405 928.36 336.045 923.24 342.285 923.28C345.605 923.28 348.085 924.84 349.565 927H349.725V915.12H352.285V946ZM349.725 937.24V932.28C349.725 928.4 346.245 925.28 342.485 925.28C337.725 925.28 334.965 929.56 334.965 934.84C334.965 940.16 337.485 944.52 342.325 944.52C346.205 944.52 349.725 941.44 349.725 937.24ZM373.474 946H370.954V915.12H373.474V946ZM384.356 917.36C384.356 918.56 383.396 919.48 382.156 919.48C380.916 919.48 379.956 918.56 379.956 917.36C379.956 916.2 380.916 915.2 382.156 915.2C383.396 915.2 384.356 916.2 384.356 917.36ZM383.396 946H380.836V923.8H383.396V946ZM408.198 946H405.078L396.798 934.2L393.318 937.72V946H390.758V915.12H393.318V934.68L403.758 923.84H407.118L398.518 932.48L408.198 946ZM427.236 943.6L427.636 945.6C425.596 946.24 423.116 946.48 420.756 946.48C413.116 946.48 409.476 941.36 409.436 934.68C409.356 928.48 413.116 923.2 419.556 923.24C426.156 923.24 429.116 927.52 429.116 933.88V935.32H411.996C412.156 940.32 414.996 944.52 420.836 944.48C422.876 944.48 425.196 944.24 427.236 943.6ZM411.916 933.36H426.596C426.596 933.28 426.676 932.92 426.596 932.84C426.556 928.08 423.916 925.24 419.556 925.24C414.596 925.24 412.236 929.2 411.916 933.36ZM464.193 946H461.633V932.32C461.633 928.04 460.113 925.28 455.513 925.28C451.993 925.28 448.513 927.56 448.513 933.08V946H445.953V915.04H448.513V926.84H448.713C450.193 924.48 453.113 923.28 456.033 923.28C461.193 923.28 464.193 926.48 464.193 931.44V946ZM487.867 946H485.507C485.227 945.04 485.147 944.24 485.107 943.24H484.907C483.387 945.2 480.547 946.52 476.907 946.52C472.947 946.52 469.747 944.48 469.747 940C469.747 935.2 473.547 932.68 481.067 932.36C482.107 932.32 483.907 932.28 484.907 931.96V931.44C484.907 927.12 482.787 925.28 478.627 925.28C476.867 925.28 474.587 925.6 472.507 926.44L471.867 924.4C473.827 923.72 476.547 923.28 478.747 923.28C484.387 923.28 487.427 925.96 487.427 931.2V940.68C487.427 942.2 487.587 944.4 487.867 946ZM484.907 937.4V933.92C483.987 934.12 482.227 934.2 481.267 934.24C475.627 934.48 472.147 936 472.147 939.88C472.147 942.72 474.067 944.52 477.187 944.52C482.467 944.52 484.907 941.56 484.907 937.4ZM503.633 944.16V946.08C502.833 946.16 501.713 946.28 500.593 946.28C496.633 946.28 495.393 944.72 495.393 940.76V925.8H491.073V923.8H495.393V918.28H497.953V923.8H503.513V925.8H497.953V940.6C497.953 943.68 498.673 944.32 501.193 944.32C502.353 944.32 502.833 944.28 503.633 944.16ZM524.307 943.6L524.707 945.6C522.667 946.24 520.187 946.48 517.827 946.48C510.187 946.48 506.547 941.36 506.507 934.68C506.427 928.48 510.187 923.2 516.627 923.24C523.227 923.24 526.187 927.52 526.187 933.88V935.32H509.067C509.227 940.32 512.067 944.52 517.907 944.48C519.947 944.48 522.267 944.24 524.307 943.6ZM508.987 933.36H523.667C523.667 933.28 523.747 932.92 523.667 932.84C523.627 928.08 520.987 925.24 516.627 925.24C511.667 925.24 509.307 929.2 508.987 933.36ZM534.334 946H531.774V923.8H534.214V926.72H534.414C535.534 924.52 537.974 923.28 540.614 923.28H542.254L542.174 925.36C541.494 925.28 540.934 925.28 540.334 925.28C536.734 925.28 534.334 927.96 534.334 933V946ZM566.719 944.16V946.08C565.919 946.16 564.799 946.28 563.679 946.28C559.719 946.28 558.479 944.72 558.479 940.76V925.8H554.159V923.8H558.479V918.28H561.039V923.8H566.599V925.8H561.039V940.6C561.039 943.68 561.759 944.32 564.279 944.32C565.439 944.32 565.919 944.28 566.719 944.16ZM580.033 946.52C573.433 946.52 569.633 941.92 569.633 934.84C569.633 927.84 573.393 923.28 580.033 923.28C586.593 923.28 590.433 927.84 590.433 934.84C590.433 941.88 586.513 946.52 580.033 946.52ZM580.033 944.52C585.313 944.52 587.872 940.4 587.872 934.84C587.872 929.32 585.273 925.28 580.033 925.28C574.713 925.28 572.153 929.44 572.153 934.84C572.153 940.32 574.633 944.52 580.033 944.52ZM598.784 954.36H596.344V923.8H598.904V927H599.064C600.544 924.84 602.944 923.28 606.344 923.28C612.544 923.24 616.224 928.36 616.224 934.84C616.224 941.52 612.544 946.56 606.464 946.52C603.344 946.52 600.544 945 598.984 942.64H598.784V954.36ZM598.824 932.28V937.24C598.824 941.44 602.424 944.52 606.304 944.52C611.104 944.52 613.624 940.16 613.624 934.84C613.624 929.56 610.904 925.28 606.144 925.28C602.384 925.28 598.824 928.4 598.824 932.28ZM642.493 946.52C635.893 946.52 632.093 941.92 632.093 934.84C632.093 927.84 635.853 923.28 642.493 923.28C649.053 923.28 652.893 927.84 652.893 934.84C652.893 941.88 648.973 946.52 642.493 946.52ZM642.493 944.52C647.773 944.52 650.333 940.4 650.333 934.84C650.333 929.32 647.733 925.28 642.493 925.28C637.173 925.28 634.613 929.44 634.613 934.84C634.613 940.32 637.093 944.52 642.493 944.52ZM677.045 946H674.485V932.32C674.485 928.16 672.925 925.28 668.365 925.28C664.885 925.28 661.365 927.56 661.365 933.08V946H658.805V923.8H661.245V926.88H661.405C662.885 924.64 665.725 923.28 668.885 923.28C674.045 923.28 677.045 926.48 677.045 931.44V946ZM700.478 943.6L700.878 945.6C698.838 946.24 696.358 946.48 693.998 946.48C686.358 946.48 682.718 941.36 682.678 934.68C682.598 928.48 686.358 923.2 692.798 923.24C699.398 923.24 702.358 927.52 702.358 933.88V935.32H685.238C685.398 940.32 688.238 944.52 694.078 944.48C696.118 944.48 698.438 944.24 700.478 943.6ZM685.158 933.36H699.838C699.838 933.28 699.918 932.92 699.838 932.84C699.798 928.08 697.158 925.24 692.798 925.24C687.838 925.24 685.478 929.2 685.158 933.36ZM723.196 946H720.636V925.8H715.596V923.8H720.636V922C720.636 917.84 722.356 915.08 727.276 915.08C728.676 915.08 729.636 915.2 730.716 915.44L730.476 917.4C729.276 917.16 728.276 917.08 727.316 917.08C724.276 917.08 723.196 918.6 723.196 922.44V923.8H729.076V925.8H723.196V946ZM741.283 946.52C734.683 946.52 730.883 941.92 730.883 934.84C730.883 927.84 734.643 923.28 741.283 923.28C747.843 923.28 751.683 927.84 751.683 934.84C751.683 941.88 747.763 946.52 741.283 946.52ZM741.283 944.52C746.563 944.52 749.122 940.4 749.122 934.84C749.122 929.32 746.523 925.28 741.283 925.28C735.963 925.28 733.403 929.44 733.403 934.84C733.403 940.32 735.883 944.52 741.283 944.52ZM760.154 946H757.594V923.8H760.034V926.72H760.234C761.354 924.52 763.794 923.28 766.434 923.28H768.074L767.994 925.36C767.314 925.28 766.754 925.28 766.154 925.28C762.554 925.28 760.154 927.96 760.154 933V946ZM792.539 944.16V946.08C791.739 946.16 790.619 946.28 789.499 946.28C785.539 946.28 784.299 944.72 784.299 940.76V925.8H779.979V923.8H784.299V918.28H786.859V923.8H792.419V925.8H786.859V940.6C786.859 943.68 787.579 944.32 790.099 944.32C791.259 944.32 791.739 944.28 792.539 944.16ZM815.483 946H812.923V932.32C812.923 928.04 811.403 925.28 806.803 925.28C803.283 925.28 799.803 927.56 799.803 933.08V946H797.243V915.04H799.803V926.84H800.003C801.483 924.48 804.403 923.28 807.323 923.28C812.483 923.28 815.483 926.48 815.483 931.44V946ZM838.916 943.6L839.316 945.6C837.276 946.24 834.796 946.48 832.436 946.48C824.796 946.48 821.156 941.36 821.116 934.68C821.036 928.48 824.796 923.2 831.236 923.24C837.836 923.24 840.796 927.52 840.796 933.88V935.32H823.676C823.836 940.32 826.676 944.52 832.516 944.48C834.556 944.48 836.876 944.24 838.916 943.6ZM823.596 933.36H838.276C838.276 933.28 838.356 932.92 838.276 932.84C838.236 928.08 835.596 925.24 831.236 925.24C826.276 925.24 823.916 929.2 823.596 933.36ZM85.44 1003.88L85.88 1005.88C84.12 1006.36 82.2 1006.52 80.44 1006.52C73.08 1006.52 69.32 1001.4 69.32 994.88C69.32 988.32 73.4 983.28 80.44 983.28C82.24 983.28 84.08 983.48 85.72 983.96L85.08 985.92C83.48 985.4 82 985.28 80.48 985.28C74.8 985.28 71.88 989.52 71.88 994.88C71.88 1000.16 74.8 1004.52 80.48 1004.52C82.04 1004.52 83.96 1004.4 85.44 1003.88ZM109.233 1006H106.673V992.32C106.673 988.04 105.153 985.28 100.553 985.28C97.0325 985.28 93.5525 987.56 93.5525 993.08V1006H90.9925V975.04H93.5525V986.84H93.7525C95.2325 984.48 98.1525 983.28 101.073 983.28C106.233 983.28 109.233 986.48 109.233 991.44V1006ZM134.226 1006H131.746V1003H131.626C130.106 1005.24 127.306 1006.52 124.146 1006.52C118.986 1006.52 115.946 1003.24 115.946 998.36V983.8H118.506V997.52C118.506 1001.72 120.066 1004.56 124.706 1004.56C128.226 1004.56 131.666 1002.24 131.666 996.76V983.8H134.226V1006ZM156.299 1003.88L156.739 1005.88C154.979 1006.36 153.059 1006.52 151.299 1006.52C143.939 1006.52 140.179 1001.4 140.179 994.88C140.179 988.32 144.259 983.28 151.299 983.28C153.099 983.28 154.939 983.48 156.579 983.96L155.939 985.92C154.339 985.4 152.859 985.28 151.339 985.28C145.659 985.28 142.739 989.52 142.739 994.88C142.739 1000.16 145.659 1004.52 151.339 1004.52C152.899 1004.52 154.819 1004.4 156.299 1003.88ZM179.292 1006H176.172L167.892 994.2L164.412 997.72V1006H161.852V975.12H164.412V994.68L174.852 983.84H178.212L169.612 992.48L179.292 1006ZM215.518 1005.96H212.678L206.878 986.6L200.958 1005.96H198.158L191.238 983.84H193.958L199.598 1003.2L205.358 983.84H208.358L214.198 1003.2L219.758 983.84H222.438L215.518 1005.96ZM236.009 1006.52C229.409 1006.52 225.609 1001.92 225.609 994.84C225.609 987.84 229.369 983.28 236.009 983.28C242.569 983.28 246.409 987.84 246.409 994.84C246.409 1001.88 242.489 1006.52 236.009 1006.52ZM236.009 1004.52C241.289 1004.52 243.849 1000.4 243.849 994.84C243.849 989.32 241.249 985.28 236.009 985.28C230.689 985.28 228.129 989.44 228.129 994.84C228.129 1000.32 230.609 1004.52 236.009 1004.52ZM270.561 1006H268.001V992.32C268.001 988.16 266.441 985.28 261.881 985.28C258.401 985.28 254.881 987.56 254.881 993.08V1006H252.321V983.8H254.761V986.88H254.921C256.401 984.64 259.241 983.28 262.401 983.28C267.561 983.28 270.561 986.48 270.561 991.44V1006ZM296.074 1006H293.554V1002.64H293.434C291.874 1005 289.074 1006.52 285.954 1006.52C279.834 1006.56 276.194 1001.52 276.194 994.84C276.194 988.36 279.834 983.24 286.074 983.28C289.394 983.28 291.874 984.84 293.354 987H293.514V975.12H296.074V1006ZM293.514 997.24V992.28C293.514 988.4 290.034 985.28 286.274 985.28C281.514 985.28 278.754 989.56 278.754 994.84C278.754 1000.16 281.274 1004.52 286.114 1004.52C289.994 1004.52 293.514 1001.44 293.514 997.24ZM319.853 1003.6L320.253 1005.6C318.213 1006.24 315.733 1006.48 313.373 1006.48C305.733 1006.48 302.093 1001.36 302.053 994.68C301.973 988.48 305.733 983.2 312.173 983.24C318.773 983.24 321.733 987.52 321.733 993.88V995.32H304.613C304.773 1000.32 307.613 1004.52 313.453 1004.48C315.493 1004.48 317.813 1004.24 319.853 1003.6ZM304.533 993.36H319.213C319.213 993.28 319.293 992.92 319.213 992.84C319.173 988.08 316.533 985.24 312.173 985.24C307.213 985.24 304.853 989.2 304.533 993.36ZM329.881 1006H327.321V983.8H329.761V986.72H329.961C331.081 984.52 333.521 983.28 336.161 983.28H337.801L337.721 985.36C337.041 985.28 336.481 985.28 335.881 985.28C332.281 985.28 329.881 987.96 329.881 993V1006ZM355.506 1006H352.986V975.12H355.506V1006ZM366.388 977.36C366.388 978.56 365.428 979.48 364.188 979.48C362.948 979.48 361.988 978.56 361.988 977.36C361.988 976.2 362.948 975.2 364.188 975.2C365.428 975.2 366.388 976.2 366.388 977.36ZM365.428 1006H362.868V983.8H365.428V1006ZM390.229 1006H387.109L378.829 994.2L375.349 997.72V1006H372.789V975.12H375.349V994.68L385.789 983.84H389.149L380.549 992.48L390.229 1006ZM409.268 1003.6L409.668 1005.6C407.628 1006.24 405.148 1006.48 402.788 1006.48C395.148 1006.48 391.508 1001.36 391.468 994.68C391.388 988.48 395.148 983.2 401.588 983.24C408.188 983.24 411.148 987.52 411.148 993.88V995.32H394.028C394.188 1000.32 397.028 1004.52 402.868 1004.48C404.908 1004.48 407.228 1004.24 409.268 1003.6ZM393.948 993.36H408.628C408.628 993.28 408.708 992.92 408.628 992.84C408.588 988.08 405.948 985.24 401.588 985.24C396.628 985.24 394.268 989.2 393.948 993.36ZM426.265 1005.12L426.945 1003.16C429.025 1004.04 431.545 1004.52 433.705 1004.52C437.025 1004.52 439.025 1003.24 439.025 1000.48C439.025 998.04 436.665 996.76 433.145 995.52C429.185 994.08 426.745 992.28 426.745 989.2C426.745 985.16 430.705 983.28 434.385 983.28C436.545 983.28 438.705 983.64 440.665 984.4L439.945 986.32C438.225 985.6 436.185 985.28 434.385 985.28C431.825 985.28 429.305 986.16 429.305 989C429.305 991.32 430.985 992.4 434.425 993.6C438.545 995.08 441.585 996.64 441.585 1000.36C441.585 1004.76 437.905 1006.52 433.665 1006.52C431.105 1006.52 428.345 1006 426.265 1005.12ZM456.797 1004.16V1006.08C455.997 1006.16 454.877 1006.28 453.757 1006.28C449.797 1006.28 448.557 1004.72 448.557 1000.76V985.8H444.237V983.8H448.557V978.28H451.117V983.8H456.677V985.8H451.117V1000.6C451.117 1003.68 451.837 1004.32 454.357 1004.32C455.517 1004.32 455.997 1004.28 456.797 1004.16ZM477.906 1006H475.546C475.266 1005.04 475.186 1004.24 475.146 1003.24H474.946C473.426 1005.2 470.586 1006.52 466.946 1006.52C462.986 1006.52 459.786 1004.48 459.786 1000C459.786 995.2 463.586 992.68 471.106 992.36C472.146 992.32 473.946 992.28 474.946 991.96V991.44C474.946 987.12 472.826 985.28 468.666 985.28C466.906 985.28 464.626 985.6 462.546 986.44L461.906 984.4C463.866 983.72 466.586 983.28 468.786 983.28C474.426 983.28 477.466 985.96 477.466 991.2V1000.68C477.466 1002.2 477.626 1004.4 477.906 1006ZM474.946 997.4V993.92C474.026 994.12 472.266 994.2 471.306 994.24C465.666 994.48 462.186 996 462.186 999.88C462.186 1002.72 464.106 1004.52 467.226 1004.52C472.506 1004.52 474.946 1001.56 474.946 997.4ZM493.672 1004.16V1006.08C492.872 1006.16 491.752 1006.28 490.632 1006.28C486.672 1006.28 485.432 1004.72 485.432 1000.76V985.8H481.112V983.8H485.432V978.28H487.992V983.8H493.552V985.8H487.992V1000.6C487.992 1003.68 488.712 1004.32 491.232 1004.32C492.392 1004.32 492.872 1004.28 493.672 1004.16ZM501.895 977.36C501.895 978.56 500.935 979.48 499.695 979.48C498.455 979.48 497.495 978.56 497.495 977.36C497.495 976.2 498.455 975.2 499.695 975.2C500.935 975.2 501.895 976.2 501.895 977.36ZM500.935 1006H498.375V983.8H500.935V1006ZM517.337 1006.52C510.737 1006.52 506.937 1001.92 506.937 994.84C506.937 987.84 510.697 983.28 517.337 983.28C523.897 983.28 527.737 987.84 527.737 994.84C527.737 1001.88 523.817 1006.52 517.337 1006.52ZM517.337 1004.52C522.617 1004.52 525.177 1000.4 525.177 994.84C525.177 989.32 522.577 985.28 517.337 985.28C512.017 985.28 509.457 989.44 509.457 994.84C509.457 1000.32 511.937 1004.52 517.337 1004.52ZM551.889 1006H549.329V992.32C549.329 988.16 547.769 985.28 543.209 985.28C539.729 985.28 536.209 987.56 536.209 993.08V1006H533.649V983.8H536.089V986.88H536.249C537.729 984.64 540.569 983.28 543.729 983.28C548.889 983.28 551.889 986.48 551.889 991.44V1006ZM584.892 1009.88C576.412 1009.88 571.572 1007.08 571.572 1003.16C571.572 999.28 576.412 996.48 584.892 996.48C593.412 996.48 598.212 999.28 598.212 1003.16C598.212 1007.08 593.412 1009.88 584.892 1009.88ZM584.892 998.56C578.252 998.56 574.252 1000.4 574.252 1003.16C574.252 1005.96 578.252 1007.8 584.892 1007.8C591.532 1007.8 595.532 1005.96 595.532 1003.16C595.532 1000.4 591.532 998.56 584.892 998.56ZM602.372 993.56H567.492V991.4H583.772V986.6H572.372V974.88H597.572V977.04H575.052V984.44H598.252V986.6H586.492V991.4H602.372V993.56ZM627.889 1007.6H625.289V987.6H617.129V985.36H625.289V974.32H627.889V1007.6ZM635.569 1009.28H632.929V973.72H635.569V1009.28ZM622.929 997.04V999.2C619.609 999.72 614.769 1000.04 611.249 1000.04H607.329V975.48H609.889V997.84H611.249C614.769 997.84 619.569 997.56 622.929 997.04ZM664.806 999L663.166 1000.92C658.406 998.32 653.966 993.48 652.526 988.92C651.046 993.96 647.246 998.6 641.806 1001.96L639.966 1000.28C646.206 996.68 651.006 990.48 651.006 982V975.28H653.886V982C653.886 990.16 659.206 996.24 664.806 999ZM671.046 1009.28H668.366V973.72H671.046V987.48H677.046V989.76H671.046V1009.28ZM703.563 988.84V990.88C699.483 991.8 692.883 992.28 687.323 992.28H680.403V982.6H694.683V977.32H680.403V975.24H697.363V984.64H683.083V990.16H687.323C692.723 990.16 699.163 989.68 703.563 988.84ZM707.883 1008.88H684.563V996.16H707.883V1008.88ZM705.203 1006.72V998.28H687.203V1006.72H705.203ZM707.963 994.24H705.323V973.72H707.963V981.72H713.403V983.92H707.963V994.24ZM745.44 985.4H719.56V974.88H744.76V976.96H722.24V983.28H745.44V985.4ZM745.48 1008.88H719.52V1000.72H741.92V996.96H719.52V994.88H744.6V1002.76H722.2V1006.76H745.48V1008.88ZM749.56 991.04H714.68V988.92H749.56V991.04Z" fill="white"/>
<path d="M1602.46 491.92H1598.44V438.58H1602.46V491.92ZM1560.88 480.52L1558.24 477.82C1572.4 470.92 1580.38 458.92 1581.94 445.36H1561.54V442.12H1586.26C1585.48 460.18 1574.98 473.38 1560.88 480.52Z" fill="white"/>
<path d="M1813.94 969.34H1796.5V968.28H1804.52V966.34C1800.88 966.18 1798.66 964.84 1798.66 963.06C1798.66 961.14 1801.14 959.76 1805.2 959.76C1809.26 959.76 1811.76 961.14 1811.76 963.06C1811.76 964.84 1809.54 966.18 1805.9 966.34V968.28H1813.94V969.34ZM1811.48 977.44H1798.94V970.8H1800.28V972.88H1810.14V970.8H1811.48V977.44ZM1810.42 963.06C1810.42 961.58 1808.18 960.78 1805.2 960.78C1802.24 960.78 1799.98 961.58 1799.98 963.06C1799.98 964.52 1802.24 965.32 1805.2 965.32C1808.18 965.32 1810.42 964.52 1810.42 963.06ZM1810.12 976.4V973.92H1800.28V976.4H1810.12ZM1830.64 977.64H1829.3V966.62H1824.86V965.5H1829.3V959.86H1830.64V977.64ZM1826.96 972.5L1826.16 973.46C1823.78 972.16 1821.54 969.74 1820.84 967.46C1820.1 969.98 1818.2 972.3 1815.46 973.98L1814.56 973.14C1817.64 971.34 1820.08 968.24 1820.08 964V960.64H1821.5V964C1821.5 968.08 1824.18 971.12 1826.96 972.5Z" fill="white"/>
<path d="M489.86 307.94C485.82 307.94 483.38 306.4 483.38 304.3C483.38 302.22 485.82 300.68 489.86 300.68C493.88 300.68 496.32 302.22 496.32 304.3C496.32 306.4 493.88 307.94 489.86 307.94ZM489.86 301.76C486.9 301.76 484.72 302.7 484.72 304.32C484.72 305.92 486.9 306.86 489.86 306.86C492.82 306.86 494.98 305.92 494.98 304.32C494.98 302.7 492.82 301.76 489.86 301.76ZM481.66 300.16L480.9 299.2C485.32 298.02 488.6 295.14 489.16 291.86H481.98V290.78H490.7C490.28 295.76 486.14 298.84 481.66 300.16ZM495.98 300.54H494.66V297.54H490.66V296.46H494.66V293.84H491.08V292.76H494.66V289.86H495.98V300.54Z" fill="white"/>
<path d="M1588.94 411.22H1571.5V410.14H1579.52V407.74H1573.14V406.66H1575.94L1575.82 402.52H1573.56V401.44H1586.86V402.52H1584.74L1584.64 406.66H1587.28V407.74H1580.9V410.14H1588.94V411.22ZM1583.3 406.66L1583.42 402.52H1577.16L1577.26 406.66H1583.3ZM1586.42 418.74H1585.08V414.26H1573.66V413.18H1586.42V418.74ZM1605.46 411.56H1604.16V400.86H1605.46V405.26H1607.86V406.36H1605.46V411.56ZM1605.4 418.74H1604.08V413.62H1593.14V412.52H1605.4V418.74ZM1602.98 409.34L1602.14 410.24C1600.94 409.44 1599.8 407.98 1599.38 406.72C1598.94 408.14 1597.74 409.78 1596.46 410.7C1595.2 409.78 1594.02 408.14 1593.58 406.76C1593.14 408.18 1591.96 409.7 1590.64 410.66L1589.64 409.86C1591.3 408.7 1592.92 406.74 1592.92 403.56V401.32H1594.22V403.56C1594.22 406.3 1595.28 408 1596.46 409.12C1597.66 408 1598.74 406.3 1598.74 403.56V401.32H1600.04V403.56C1600.04 406.52 1601.56 408.42 1602.98 409.34ZM1628.84 418.74H1627.5V413.98H1616.08V412.9H1628.84V418.74ZM1631.36 410.84H1613.92V409.76H1621.98V406.86H1623.34V409.76H1631.36V410.84ZM1630.28 406.78L1629.54 407.72C1626.6 407.12 1623.74 405.52 1622.62 403.52C1621.52 405.52 1618.66 407.12 1615.74 407.72L1615 406.78C1618.18 406.22 1621.92 404.16 1621.92 401.54V400.9H1623.34V401.54C1623.34 404.16 1627.08 406.22 1630.28 406.78ZM1649.64 417.82L1648.78 418.74C1647.24 417.94 1645.66 416.4 1645.12 414.94C1644.62 416.34 1643.16 417.9 1641.74 418.66C1640.34 417.9 1638.88 416.34 1638.38 414.94C1637.86 416.4 1636.26 417.94 1634.7 418.74L1633.86 417.82C1635.72 416.94 1637.7 414.92 1637.7 412.76V411.8H1639.04V412.76C1639.04 414.6 1640.52 416.48 1641.74 417.26C1642.96 416.48 1644.46 414.6 1644.46 412.76V411.8H1645.8V412.76C1645.8 414.92 1647.76 416.94 1649.64 417.82ZM1637.8 409.84C1634.92 409.84 1632.98 407.92 1632.98 405.52C1632.98 403.12 1634.92 401.18 1637.8 401.18C1640.64 401.18 1642.6 403.12 1642.6 405.52C1642.6 407.92 1640.64 409.84 1637.8 409.84ZM1637.8 402.26C1635.6 402.26 1634.32 403.7 1634.32 405.52C1634.32 407.32 1635.6 408.76 1637.8 408.76C1639.96 408.76 1641.26 407.32 1641.26 405.52C1641.26 403.7 1639.96 402.26 1637.8 402.26ZM1647.36 410.9H1646.04V400.86H1647.36V404.82H1650.08V405.94H1647.36V410.9ZM1668.16 411.9H1660.12V418.64H1658.74V411.9H1650.7V410.82H1668.16V411.9ZM1667.2 407.88L1666.46 408.86C1663.42 408.16 1660.56 406.48 1659.42 404.34C1658.3 406.48 1655.44 408.16 1652.4 408.86L1651.64 407.88C1655.04 407.2 1658.72 405 1658.72 402.18V401.32H1660.14V402.18C1660.14 405 1663.82 407.2 1667.2 407.88ZM1683.88 418.64H1682.56V400.86H1683.88V407.2H1686.88V408.34H1683.88V418.64ZM1681.7 412.16V413.24C1679.46 413.7 1675.96 413.92 1673.28 413.92H1670.52V402.04H1679.1V403.12H1671.84V412.82H1673.28C1675.96 412.82 1679.3 412.6 1681.7 412.16Z" fill="white"/>
<path d="M1827.32 204.06L1826.46 204.96C1824.76 204.24 1823.28 202.92 1822.68 201.52C1822.1 202.9 1820.7 204.26 1819.2 204.96C1817.72 204.26 1816.32 202.9 1815.74 201.52C1815.12 202.92 1813.66 204.24 1811.98 204.96L1811.08 204.06C1813.02 203.28 1814.9 201.72 1815.04 199.52H1812.2V198.44H1818.84V199.52H1816.42C1816.56 201.46 1818 202.92 1819.2 203.64C1820.42 202.92 1821.84 201.46 1822 199.52H1819.62V198.44H1826.26V199.52H1823.34C1823.52 201.72 1825.4 203.28 1827.32 204.06ZM1827.94 208.1H1810.5V207.02H1818.52V205.02H1819.9V207.02H1827.94V208.1ZM1825.42 215.74H1824.08V211.14H1812.66V210.06H1825.42V215.74ZM1844 215.44H1832.32V208.2H1833.66V210.66H1842.68V208.2H1844V215.44ZM1840.86 205.52L1840.16 206.52C1838 205.98 1835.92 204.54 1835.04 202.78C1834.26 204.62 1832.1 206.24 1829.74 207.12L1828.96 206.2C1831.68 205.28 1834.3 203.06 1834.3 200.34V199.82H1829.96V198.78H1839.94V199.82H1835.72V200.34C1835.72 203.06 1838.24 204.9 1840.86 205.52ZM1842.68 214.4V211.68H1833.66V214.4H1842.68ZM1844.04 207.32H1842.72V197.86H1844.04V201.6H1846.66V202.7H1844.04V207.32ZM1862.06 215.64H1860.74V197.86H1862.06V204.2H1865.06V205.34H1862.06V215.64ZM1859.88 209.16V210.24C1857.64 210.7 1854.14 210.92 1851.46 210.92H1848.7V199.04H1857.28V200.12H1850.02V209.82H1851.46C1854.14 209.82 1857.48 209.6 1859.88 209.16Z" fill="white"/>
<path d="M845.26 407.64H843.94V389.86H845.26V396.3H848.26V397.44H845.26V407.64ZM831.18 397.1C831.18 392.84 833.12 390.34 835.72 390.34C838.32 390.34 840.28 392.84 840.28 397.1C840.28 401.38 838.32 403.88 835.72 403.88C833.12 403.88 831.18 401.38 831.18 397.1ZM838.94 397.1C838.94 393.44 837.58 391.42 835.72 391.42C833.86 391.42 832.52 393.44 832.52 397.1C832.52 400.78 833.86 402.8 835.72 402.8C837.58 402.8 838.94 400.78 838.94 397.1ZM863.878 407.44H851.338V400.2H852.678V402.58H862.538V400.2H863.878V407.44ZM862.518 406.4V403.62H852.678V406.4H862.518ZM866.338 398.68H848.898V397.62H857.198V394.28H858.578V397.62H866.338V398.68ZM863.678 396.28H862.378C862.798 394.88 862.938 392.86 862.998 391.48H857.178V390.44H864.338C864.318 392.46 864.158 394.76 863.678 396.28ZM855.158 396.24H853.758C854.578 394.6 854.958 392.84 855.038 391.48H850.518V390.44H856.458C856.338 392.74 855.918 394.7 855.158 396.24ZM882.057 407.64H880.737V389.86H882.057V396.2H885.057V397.34H882.057V407.64ZM879.877 401.16V402.24C877.637 402.7 874.137 402.92 871.457 402.92H868.697V391.04H877.277V392.12H870.017V401.82H871.457C874.137 401.82 877.477 401.6 879.877 401.16Z" fill="white"/>
<path d="M651.94 429.94H634.5V428.86H639.04V426.12C637.5 425.48 636.66 424.48 636.66 423.28C636.66 421.24 639.14 419.76 643.2 419.76C647.26 419.76 649.76 421.24 649.76 423.28C649.76 424.48 648.9 425.48 647.38 426.12V428.86H651.94V429.94ZM649.86 434.58C649.86 436.54 647.46 437.94 643.2 437.94C638.96 437.94 636.54 436.54 636.54 434.58C636.54 432.64 638.96 431.24 643.2 431.24C647.46 431.24 649.86 432.64 649.86 434.58ZM648.42 423.3C648.42 421.68 646.18 420.82 643.2 420.82C640.24 420.82 637.98 421.68 637.98 423.3C637.98 424.9 640.24 425.76 643.2 425.76C646.18 425.76 648.42 424.9 648.42 423.3ZM648.52 434.58C648.52 433.2 646.52 432.28 643.2 432.28C639.88 432.28 637.88 433.2 637.88 434.58C637.88 435.98 639.88 436.9 643.2 436.9C646.52 436.9 648.52 435.98 648.52 434.58ZM646.06 428.86V426.54C645.22 426.72 644.26 426.82 643.2 426.82C642.14 426.82 641.18 426.72 640.38 426.54V428.86H646.06ZM664.858 427.92L664.078 428.92C661.838 428.12 659.818 426.46 658.998 424.68C658.278 426.64 656.258 428.46 653.758 429.52L652.938 428.6C655.858 427.48 658.258 425 658.258 421.96V420.32H659.678V421.96C659.678 424.86 662.138 427.02 664.858 427.92ZM668.578 437.44H656.698V430.86H668.578V437.44ZM667.238 436.36V431.94H658.038V436.36H667.238ZM668.598 429.9H667.258V419.86H668.598V429.9Z" fill="white"/>
<path d="M582.78 241.22H581.44V234.42H579V240.8H577.7V228.18H579V233.32H581.44V227.88H582.78V241.22ZM577.06 237V238.04C576.26 238.2 575.16 238.28 573.98 238.36C572.74 238.46 571.36 238.52 570.04 238.52H567.04V237.48H571.38V234.36H568.3V228.7H575.6V229.72H569.6V233.34H575.82V234.36H572.68V237.4C573.18 237.4 574.12 237.34 574.98 237.26C575.82 237.18 576.66 237.08 577.06 237ZM583.14 245.24H570.26V240.44H571.64V244.16H583.14V245.24Z" fill="white"/>
<path d="M844.5 538.44H832.84V531.86H844.5V538.44ZM843.16 537.36V532.94H834.16V537.36H843.16ZM830.52 531.02L829.78 530.06C834.18 528.94 837.48 526.08 838.06 522.86H830.84V521.78H839.58C839.16 526.7 835.02 529.68 830.52 531.02ZM844.54 530.9H843.22V520.86H844.54V525.14H847.26V526.26H844.54V530.9ZM865.338 531.9H857.298V538.64H855.918V531.9H847.878V530.82H865.338V531.9ZM864.378 527.88L863.638 528.86C860.598 528.16 857.738 526.48 856.598 524.34C855.478 526.48 852.618 528.16 849.578 528.86L848.818 527.88C852.218 527.2 855.898 525 855.898 522.18V521.32H857.318V522.18C857.318 525 860.998 527.2 864.378 527.88ZM881.677 535.56C881.677 537.52 879.377 538.94 875.257 538.94C871.137 538.94 868.857 537.52 868.857 535.56C868.857 533.62 871.137 532.18 875.257 532.18C879.377 532.18 881.677 533.62 881.677 535.56ZM880.337 535.56C880.337 534.06 878.237 533.22 875.257 533.22C872.317 533.22 870.177 534.06 870.177 535.56C870.177 537.06 872.317 537.9 875.257 537.9C878.237 537.9 880.337 537.06 880.337 535.56ZM879.257 529.08V530.12C877.417 530.44 874.977 530.58 872.337 530.58H866.437V529.5H870.917V525.36H872.277V529.5H872.417C874.877 529.5 877.377 529.36 879.257 529.08ZM881.317 532.06H879.997V520.86H881.317V525.5H884.117V526.6H881.317V532.06ZM876.377 527.72H875.017C875.437 526.28 875.677 524.32 875.757 522.74H867.717V521.68H877.157C877.077 523.94 876.797 526.16 876.377 527.72Z" fill="white"/>
<path d="M360.56 345.04H359.26V340.78H357.2V345.04H355.92V336.16H357.2V339.64H359.26V335.86H360.56V345.04ZM360.92 353.44H348V349.14H359.16V347.04H348V346H360.52V350.16H349.34V352.38H360.92V353.44ZM349.46 344.32H345.32V336.58H346.54V339.38H348.28V336.58H349.46V344.32ZM348.28 343.3V340.36H346.54V343.3H348.28ZM354.62 344.32H350.46V336.58H351.66V339.38H353.4V336.58H354.62V344.32ZM353.4 343.3V340.36H351.66V343.3H353.4ZM377.658 353.64H376.338V335.86H377.658V342.6H380.658V343.74H377.658V353.64ZM375.478 347.56V348.66C373.238 349.1 369.738 349.32 367.058 349.32H364.078V342.5H371.278V338.02H364.078V336.94H372.618V343.56H365.438V348.22H367.058C369.738 348.22 373.078 348.02 375.478 347.56ZM393.617 348.58L392.797 349.54C390.517 348.24 388.237 345.96 387.477 343.76C386.777 346.22 384.677 348.52 382.097 350.06L381.197 349.18C384.117 347.54 386.717 344.48 386.717 340.34V338.12H382.237V337.04H392.497V338.12H388.137V340.34C388.137 344.4 391.057 347.26 393.617 348.58ZM397.037 353.64H395.697V335.86H397.037V353.64ZM414.455 353.64H413.135V335.86H414.455V342.2H417.455V343.34H414.455V353.64ZM412.275 347.16V348.24C410.035 348.7 406.535 348.92 403.855 348.92H401.095V337.04H409.675V338.12H402.415V347.82H403.855C406.535 347.82 409.875 347.6 412.275 347.16Z" fill="white"/>
<path d="M1669.46 89.34H1656.94V82.56H1669.46V89.34ZM1668.12 88.26V83.64H1658.28V88.26H1668.12ZM1671.94 93.1H1663.9V99.64H1662.52V93.1H1654.48V92.02H1671.94V93.1ZM1684.76 94.5L1683.94 95.46C1681.56 94.16 1679.34 91.74 1678.62 89.46C1677.88 91.98 1675.98 94.3 1673.26 95.98L1672.34 95.14C1675.46 93.34 1677.86 90.24 1677.86 86V82.64H1679.3V86C1679.3 90.08 1681.96 93.12 1684.76 94.5ZM1687.88 99.64H1686.54V81.86H1687.88V88.74H1690.88V89.88H1687.88V99.64ZM1700.66 99.94C1696.62 99.94 1694.18 98.4 1694.18 96.3C1694.18 94.22 1696.62 92.68 1700.66 92.68C1704.68 92.68 1707.12 94.22 1707.12 96.3C1707.12 98.4 1704.68 99.94 1700.66 99.94ZM1700.66 93.76C1697.7 93.76 1695.52 94.7 1695.52 96.32C1695.52 97.92 1697.7 98.86 1700.66 98.86C1703.62 98.86 1705.78 97.92 1705.78 96.32C1705.78 94.7 1703.62 93.76 1700.66 93.76ZM1692.46 92.16L1691.7 91.2C1696.12 90.02 1699.4 87.14 1699.96 83.86H1692.78V82.78H1701.5C1701.08 87.76 1696.94 90.84 1692.46 92.16ZM1706.78 92.54H1705.46V89.54H1701.46V88.46H1705.46V85.84H1701.88V84.76H1705.46V81.86H1706.78V92.54Z" fill="white"/>
<path d="M1725.16 154.46L1722.1 151.88C1734.52 144.92 1740.94 131.6 1741.66 119.72H1725.1V116.48H1745.98C1745.68 132.98 1737.76 146.78 1725.16 154.46ZM1758.04 163.4H1754.14V136.1H1745.02V132.74H1754.14V113.48H1758.04V163.4ZM1769.02 165.92H1765.06V112.58H1769.02V165.92ZM1824.04 165.08H1786.9V147.32H1790.92V161.84H1824.04V165.08ZM1821.82 152.18H1817.86V112.58H1821.82V125H1829.98V128.3H1821.82V152.18ZM1815.22 135.26V138.44C1809.04 139.82 1799.2 140.54 1790.86 140.54H1780.84V114.14H1784.8V137.24H1790.86C1798.96 137.24 1808.62 136.58 1815.22 135.26Z" fill="white"/>
<path d="M545.92 346.6H510.96V344.44H527.04V339.04C520.8 338.76 516.88 336.32 516.88 333.04C516.88 329.56 521.4 327.04 528.4 327.04C535.48 327.04 539.96 329.56 539.96 333.04C539.96 336.32 536 338.76 529.8 339.04V344.44H545.92V346.6ZM537.28 333.04C537.28 330.52 533.32 329.16 528.4 329.16C523.56 329.16 519.56 330.52 519.56 333.04C519.56 335.56 523.56 336.96 528.4 336.96C533.32 336.96 537.28 335.56 537.28 333.04ZM542.68 324.72H514.16V322.56H542.68V324.72ZM535.8 319.08H521.04V316.92H535.8V319.08ZM577.757 350.88H552.677V338H577.757V350.88ZM582.677 332.44H547.797V330.28H559.277C559.997 326.8 560.637 322 560.717 319.04H551.037V316.88H563.477C563.317 321.8 562.637 326.84 561.877 330.28H574.157C574.917 326.8 575.517 322 575.637 319.04H564.877V316.88H578.397C578.197 321.8 577.517 326.84 576.797 330.28H582.677V332.44ZM575.077 348.72V340.12H555.357V348.72H575.077Z" fill="white"/>
<path d="M908.8 496.32H873.82V476.76H908.8V496.32ZM904.84 493.08V479.94H877.84V493.08H904.84ZM908.92 473.88H904.96V443.58H908.92V455.88H916.78V459.18H908.92V473.88ZM898.72 467.76L896.38 470.76C889.66 468.36 883.66 463.38 881.2 458.04C879.04 463.92 872.92 469.38 865.48 472.56L862.96 469.8C871.72 466.44 878.98 459 878.98 449.88V444.96H883.18V449.88C883.18 458.58 890.56 465.06 898.72 467.76ZM967.655 466.02L965.495 468.9C956.915 467.7 948.635 463.98 944.855 458.64C941.195 463.86 932.735 467.82 924.275 468.9L922.115 466.02C931.115 465.06 941.135 460.44 942.575 455.04H925.355V451.92H964.295V455.04H947.195C948.635 460.5 958.715 464.94 967.655 466.02ZM971.015 476.28H947.495V487.2H943.415V476.28H918.695V473.1H971.015V476.28ZM965.975 496.08H926.075V481.26H930.095V492.78H965.975V496.08ZM955.535 446.58H934.475V443.46H955.535V446.58Z" fill="white"/>
<path d="M732.56 404.92H721.48V402.76H732.56V404.92ZM745.2 437.28H742.56V401.72H745.2V416.4H750.96V418.68H745.2V437.28ZM736.24 422.32C736.24 427 732.56 430.76 727.16 430.76C721.76 430.76 718.08 427 718.08 422.32C718.08 417.64 721.76 413.84 727.16 413.84C732.56 413.84 736.24 417.6 736.24 422.32ZM733.6 422.32C733.6 418.56 731.08 415.96 727.2 415.96C723.28 415.96 720.76 418.52 720.76 422.32C720.76 426.08 723.28 428.64 727.2 428.64C731.08 428.64 733.6 426.08 733.6 422.32ZM738.04 410.84H716.08V408.68H738.04V410.84ZM783.197 423.48H780.517V416.56H770.917C769.237 418.72 766.517 420.08 763.157 420.08C757.397 420.08 753.517 416.16 753.517 411.24C753.517 406.32 757.397 402.36 763.157 402.36C766.557 402.36 769.277 403.8 770.997 405.96H780.517V401.72H783.197V423.48ZM783.877 430.84C783.877 434.88 778.957 437.88 770.877 437.88C762.877 437.88 757.957 434.88 757.957 430.84C757.957 426.76 762.877 423.76 770.877 423.76C778.957 423.76 783.877 426.76 783.877 430.84ZM781.157 430.84C781.157 427.72 776.797 425.92 770.877 425.92C764.997 425.92 760.677 427.72 760.677 430.84C760.677 433.92 764.997 435.72 770.877 435.72C776.797 435.72 781.157 433.92 781.157 430.84ZM770.077 411.24C770.077 407.48 767.517 404.52 763.157 404.52C758.757 404.52 756.237 407.48 756.237 411.24C756.237 414.96 758.757 417.92 763.157 417.92C767.517 417.92 770.077 414.96 770.077 411.24ZM780.517 414.4V408.12H772.197C772.597 409.12 772.757 410.16 772.757 411.24C772.757 412.36 772.597 413.44 772.197 414.4H780.517Z" fill="white"/>
<path d="M1595.52 152.28H1592.88V116.72H1595.52V129.6H1601.52V131.88H1595.52V152.28ZM1567.36 131.2C1567.36 122.68 1571.24 117.68 1576.44 117.68C1581.64 117.68 1585.56 122.68 1585.56 131.2C1585.56 139.76 1581.64 144.76 1576.44 144.76C1571.24 144.76 1567.36 139.76 1567.36 131.2ZM1582.88 131.2C1582.88 123.88 1580.16 119.84 1576.44 119.84C1572.72 119.84 1570.04 123.88 1570.04 131.2C1570.04 138.56 1572.72 142.6 1576.44 142.6C1580.16 142.6 1582.88 138.56 1582.88 131.2ZM1632.88 138.64H1630.24V116.72H1632.88V125.04H1638.32V127.28H1632.88V138.64ZM1621.24 152.88C1613.4 152.88 1608.68 150 1608.68 146.08C1608.68 142.2 1613.4 139.32 1621.24 139.32C1629 139.32 1633.72 142.2 1633.72 146.08C1633.72 150 1629 152.88 1621.24 152.88ZM1621.24 141.48C1615.52 141.48 1611.36 143.2 1611.36 146.08C1611.36 149 1615.52 150.72 1621.24 150.72C1626.92 150.72 1631.08 149 1631.08 146.08C1631.08 143.2 1626.92 141.48 1621.24 141.48ZM1622.2 135.04H1605.32V117.96H1608V124.28H1619.52V117.96H1622.2V135.04ZM1619.52 132.88V126.4H1608V132.88H1619.52Z" fill="white"/>
<path d="M1713.52 871.56C1713.52 875.64 1708.52 878.64 1700.4 878.64C1692.28 878.64 1687.32 875.64 1687.32 871.56C1687.32 867.48 1692.28 864.52 1700.4 864.52C1708.52 864.52 1713.52 867.48 1713.52 871.56ZM1712.84 900.48H1710.16V891.24H1687.32V889.08H1692.96V883.68H1683V881.52H1717.88V883.68H1707.88V889.08H1712.84V900.48ZM1710.84 871.6C1710.84 868.36 1706.36 866.64 1700.4 866.64C1694.48 866.64 1689.96 868.36 1689.96 871.6C1689.96 874.8 1694.48 876.52 1700.4 876.52C1706.36 876.52 1710.84 874.8 1710.84 871.6ZM1705.2 889.08V883.68H1695.68V889.08H1705.2ZM1744.44 890.16L1742.8 892.08C1738.24 889.48 1733.68 884.92 1732.16 880.52C1730.76 885.44 1726.56 890.04 1721.4 893.12L1719.6 891.36C1725.44 888.08 1730.64 881.96 1730.64 873.68V869.24H1721.68V867.08H1742.2V869.24H1733.48V873.68C1733.48 881.8 1739.32 887.52 1744.44 890.16ZM1751.28 900.28H1748.6V864.72H1751.28V900.28Z" fill="white"/>
<path d="M1767.48 710.68L1765.76 708.88C1775.2 704.28 1780.48 696.28 1781.48 687.24H1767.96V685.08H1784.4C1783.84 697.12 1776.92 705.92 1767.48 710.68ZM1794.52 718.28H1791.88V682.72H1794.52V696.6H1800.52V698.88H1794.52V718.28ZM1833.28 718.28H1830.6V682.72H1833.28V718.28ZM1804 697.2C1804 688.68 1807.92 683.68 1813.12 683.68C1818.36 683.68 1822.24 688.68 1822.24 697.2C1822.24 705.76 1818.36 710.76 1813.12 710.76C1807.92 710.76 1804 705.76 1804 697.2ZM1819.56 697.2C1819.56 689.88 1816.88 685.84 1813.12 685.84C1809.4 685.84 1806.68 689.88 1806.68 697.2C1806.68 704.56 1809.4 708.6 1813.12 708.6C1816.88 708.6 1819.56 704.56 1819.56 697.2ZM1789.2 768.16L1787.56 770.08C1783 767.48 1778.48 762.92 1776.96 758.52C1775.52 763.44 1771.32 768.04 1766.16 771.12L1764.36 769.36C1770.24 766.08 1775.44 759.96 1775.44 751.68V747.24H1766.48V745.08H1786.96V747.24H1778.28V751.68C1778.28 759.8 1784.08 765.52 1789.2 768.16ZM1794.96 778.28H1792.28V742.72H1794.96V756.48H1800.96V758.76H1794.96V778.28ZM1833.28 778.28H1830.6V742.72H1833.28V778.28ZM1804 757.2C1804 748.68 1807.92 743.68 1813.12 743.68C1818.36 743.68 1822.24 748.68 1822.24 757.2C1822.24 765.76 1818.36 770.76 1813.12 770.76C1807.92 770.76 1804 765.76 1804 757.2ZM1819.56 757.2C1819.56 749.88 1816.88 745.84 1813.12 745.84C1809.4 745.84 1806.68 749.88 1806.68 757.2C1806.68 764.56 1809.4 768.6 1813.12 768.6C1816.88 768.6 1819.56 764.56 1819.56 757.2ZM1766.36 817.2C1766.36 808.68 1770.24 803.68 1775.44 803.68C1780.64 803.68 1784.56 808.68 1784.56 817.2C1784.56 825.76 1780.64 830.76 1775.44 830.76C1770.24 830.76 1766.36 825.76 1766.36 817.2ZM1781.88 817.2C1781.88 809.88 1779.16 805.84 1775.44 805.84C1771.72 805.84 1769.04 809.88 1769.04 817.2C1769.04 824.56 1771.72 828.6 1775.44 828.6C1779.16 828.6 1781.88 824.56 1781.88 817.2ZM1794.52 838.28H1791.88V802.72H1794.52V810.04H1800.32V812.32H1794.52V821.84H1800.32V824.12H1794.52V838.28ZM1833.28 838.28H1830.6V802.72H1833.28V838.28ZM1804 817.2C1804 808.68 1807.92 803.68 1813.12 803.68C1818.36 803.68 1822.24 808.68 1822.24 817.2C1822.24 825.76 1818.36 830.76 1813.12 830.76C1807.92 830.76 1804 825.76 1804 817.2ZM1819.56 817.2C1819.56 809.88 1816.88 805.84 1813.12 805.84C1809.4 805.84 1806.68 809.88 1806.68 817.2C1806.68 824.56 1809.4 828.6 1813.12 828.6C1816.88 828.6 1819.56 824.56 1819.56 817.2Z" fill="white"/>
<path d="M623.24 84.8H604.88V72.48H623.24V84.8ZM631.88 106.28H629.24V98.36H620V96.2H629.24V70.72H631.88V106.28ZM620.56 82.64V74.64H607.56V82.64H620.56ZM614.88 105.48H612.24V91.8H601.8V89.64H614.88C619.36 89.64 624.32 89.2 627.72 88.6V90.72C624.48 91.4 619.92 91.76 614.88 91.8V105.48ZM666.607 73.92H655.527V71.76H666.607V73.92ZM679.247 106.28H676.607V70.72H679.247V85.4H685.007V87.68H679.247V106.28ZM670.287 91.32C670.287 96 666.607 99.76 661.207 99.76C655.807 99.76 652.127 96 652.127 91.32C652.127 86.64 655.807 82.84 661.207 82.84C666.607 82.84 670.287 86.6 670.287 91.32ZM667.647 91.32C667.647 87.56 665.127 84.96 661.247 84.96C657.327 84.96 654.807 87.52 654.807 91.32C654.807 95.08 657.327 97.64 661.247 97.64C665.127 97.64 667.647 95.08 667.647 91.32ZM672.087 79.84H650.127V77.68H672.087V79.84ZM710.444 96.52H707.764V81.6H702.244V89.08H687.924V72.56H702.244V79.4H707.764V71.32H710.444V96.52ZM699.604 86.92V74.68H690.524V86.92H699.604ZM718.564 105.72H692.844V93.88H695.524V103.56H718.564V105.72ZM717.524 97.32H714.884V70.72H717.524V97.32Z" fill="white"/>
<path d="M704.94 137.6H687.5V136.56H695.52V134.94C692.46 134.84 690.28 134.08 690.28 132.6C690.28 131.02 692.8 130.28 696.18 130.28C699.58 130.28 702.08 131.02 702.08 132.6C702.08 134.08 699.92 134.84 696.9 134.94V136.56H704.94V137.6ZM700.74 132.6C700.74 131.72 698.76 131.28 696.18 131.28C693.62 131.28 691.64 131.72 691.64 132.6C691.64 133.5 693.62 133.92 696.18 133.92C698.76 133.92 700.74 133.5 700.74 132.6ZM703.26 143.36H689.96V138.74H691.3V142.26H703.26V143.36ZM703.38 129.28H689V128.24H703.38V129.28ZM699.68 126.86H692.7V125.82H699.68V126.86ZM718.218 138.58L717.398 139.54C715.118 138.24 712.838 135.96 712.078 133.76C711.378 136.22 709.278 138.52 706.698 140.06L705.798 139.18C708.718 137.54 711.318 134.48 711.318 130.34V128.12H706.838V127.04H717.098V128.12H712.738V130.34C712.738 134.4 715.658 137.26 718.218 138.58ZM721.638 143.64H720.298V132.62H716.298V131.5H720.298V125.86H721.638V143.64ZM741.737 135.34H724.297V134.28H732.317V132.34C728.677 132.18 726.457 130.84 726.457 129.06C726.457 127.14 728.937 125.76 732.997 125.76C737.057 125.76 739.557 127.14 739.557 129.06C739.557 130.84 737.337 132.18 733.697 132.34V134.28H741.737V135.34ZM739.277 143.44H726.737V136.8H728.077V138.88H737.937V136.8H739.277V143.44ZM738.217 129.06C738.217 127.58 735.977 126.78 732.997 126.78C730.037 126.78 727.777 127.58 727.777 129.06C727.777 130.52 730.037 131.32 732.997 131.32C735.977 131.32 738.217 130.52 738.217 129.06ZM737.917 142.4V139.92H728.077V142.4H737.917ZM758.435 143.64H757.095V132.62H752.655V131.5H757.095V125.86H758.435V143.64ZM754.755 138.5L753.955 139.46C751.575 138.16 749.335 135.74 748.635 133.46C747.895 135.98 745.995 138.3 743.255 139.98L742.355 139.14C745.435 137.34 747.875 134.24 747.875 130V126.64H749.295V130C749.295 134.08 751.975 137.12 754.755 138.5ZM773.534 142.8H772.234V136.54H769.394C768.734 138.68 767.434 139.86 765.774 139.86C763.434 139.86 761.734 137.38 761.734 133.16C761.734 128.96 763.434 126.48 765.774 126.48C767.374 126.48 768.634 127.58 769.334 129.56H772.234V126.16H773.534V142.8ZM765.774 138.78C767.454 138.78 768.534 136.56 768.534 133.16C768.534 129.78 767.454 127.56 765.774 127.56C764.134 127.56 763.034 129.78 763.034 133.16C763.034 136.56 764.134 138.78 765.774 138.78ZM777.154 143.64H775.814V125.86H777.154V143.64ZM772.234 135.46V130.64H769.614C769.754 131.4 769.834 132.24 769.834 133.16C769.834 134 769.774 134.78 769.654 135.46H772.234Z" fill="white"/>
</g>
<defs>
<clipPath id="clip0_355_467">
<rect width="1920" height="1080" fill="white"/>
</clipPath>
</defs>
</svg>
