<svg width="182" height="46" viewBox="0 0 182 46" fill="none" xmlns="http://www.w3.org/2000/svg">
<rect x="0.5" y="0.5" width="181" height="45" fill="#FF961E"/>
<rect x="0.5" y="0.5" width="181" height="45" stroke="black"/>
<path d="M23.04 28.8L23.24 29.8C22.22 30.12 20.98 30.24 19.8 30.24C15.98 30.24 14.16 27.68 14.14 24.34C14.1 21.24 15.98 18.6 19.2 18.62C22.5 18.62 23.98 20.76 23.98 23.94V24.66H15.42C15.5 27.16 16.92 29.26 19.84 29.24C20.86 29.24 22.02 29.12 23.04 28.8ZM15.38 23.68H22.72C22.72 23.64 22.76 23.46 22.72 23.42C22.7 21.04 21.38 19.62 19.2 19.62C16.72 19.62 15.54 21.6 15.38 23.68ZM28.5397 29.66C28.5397 30.3 28.0397 30.78 27.3997 30.78C26.7197 30.78 26.2197 30.3 26.2197 29.66C26.2197 29.06 26.7197 28.54 27.3997 28.54C28.0397 28.54 28.5397 29.06 28.5397 29.66ZM40.028 29.42V27.92H39.908C39.128 29.14 37.688 29.86 36.128 29.86C33.068 29.88 31.328 27.5 31.328 24.24C31.328 21 33.108 18.62 36.208 18.64C37.788 18.64 39.088 19.3 39.888 20.48H39.988V18.9H41.268V29.6C41.268 32.68 39.148 34.24 36.108 34.24C35.048 34.24 33.668 34.08 32.648 33.74L32.928 32.72C33.928 33.1 35.048 33.24 36.108 33.24C38.728 33.24 40.028 31.82 40.028 29.42ZM39.968 25.22V23.12C39.968 21.16 38.228 19.64 36.348 19.64C33.968 19.64 32.588 21.6 32.588 24.24C32.588 26.88 33.848 28.86 36.268 28.86C38.208 28.86 39.968 27.32 39.968 25.22ZM46.9186 29.66C46.9186 30.3 46.4186 30.78 45.7786 30.78C45.0986 30.78 44.5986 30.3 44.5986 29.66C44.5986 29.06 45.0986 28.54 45.7786 28.54C46.4186 28.54 46.9186 29.06 46.9186 29.66ZM70.7319 24.66H69.3919V20.06H66.7919V24.66H65.4919V14.16H66.7919V18.92H69.3919V13.86H70.7319V24.66ZM72.2919 30.82L71.4519 31.74C69.8919 30.94 68.2919 29.46 67.7719 27.98C67.2319 29.4 65.8119 30.94 64.4119 31.66C62.9919 30.94 61.5719 29.4 61.0319 27.98C60.5319 29.46 58.9319 30.94 57.3519 31.74L56.5119 30.82C58.4119 29.96 60.3519 27.98 60.3519 25.96V25.48H61.6919V25.96C61.6919 27.64 63.1719 29.54 64.4119 30.3C65.6319 29.54 67.1119 27.64 67.1119 25.96V25.48H68.4519V25.96C68.4519 27.98 70.4119 29.96 72.2919 30.82ZM64.1719 17.56H55.0919V16.52H64.1719V17.56ZM62.0119 15.26H57.2519V14.22H62.0119V15.26ZM59.6519 24.3C57.3319 24.3 55.7719 23 55.7719 21.38C55.7719 19.76 57.3319 18.46 59.6519 18.46C62.0119 18.46 63.5719 19.76 63.5719 21.38C63.5719 23 62.0119 24.3 59.6519 24.3ZM59.6519 19.46C58.0319 19.46 57.0719 20.3 57.0719 21.38C57.0719 22.44 58.0319 23.28 59.6519 23.28C61.3119 23.28 62.2519 22.44 62.2519 21.38C62.2519 20.3 61.3119 19.46 59.6519 19.46ZM88.7703 27.06H87.4303V19.32H83.5703C83.3503 21.66 81.4303 23.44 78.7503 23.44C75.8503 23.44 73.8903 21.4 73.8903 18.84C73.8903 16.24 75.8503 14.18 78.7503 14.18C81.3703 14.18 83.2703 15.92 83.5503 18.2H87.4303V13.86H88.7703V27.06ZM78.7503 22.36C80.9503 22.36 82.2503 20.8 82.2503 18.82C82.2503 16.82 80.9503 15.26 78.7503 15.26C76.5303 15.26 75.2503 16.82 75.2503 18.82C75.2503 20.8 76.5303 22.36 78.7503 22.36ZM89.4303 31.36H76.8703V25.44H78.2103V30.28H89.4303V31.36ZM96.0088 26.6H94.8488V25.74C94.8488 23.92 95.2888 22.84 97.0688 21.38C98.2088 20.44 98.9888 19.22 98.9888 18.08C98.9888 16.2 97.4288 15.4 95.7688 15.4C94.7888 15.4 93.3088 15.8 92.2688 16.42L91.7888 15.52C92.8688 14.88 94.5088 14.38 95.8688 14.38C98.1288 14.38 100.269 15.44 100.269 18.04C100.269 19.5 99.5088 20.74 98.1488 21.88C96.4088 23.38 96.0088 24.1 96.0088 25.82V26.6ZM96.5688 29.84C96.5688 30.46 96.0688 30.94 95.4488 30.94C94.7688 30.94 94.2888 30.46 94.2888 29.84C94.2888 29.26 94.7688 28.74 95.4488 28.74C96.0688 28.74 96.5688 29.26 96.5688 29.84ZM108.157 31.94H106.977L114.057 13.16H115.237L108.157 31.94ZM137.476 24.36H136.156V19.1H131.876V22.78H123.376V14.78H131.876V18H136.156V13.86H137.476V24.36ZM130.536 21.7V15.84H124.696V21.7H130.536ZM137.436 31.74H136.116V26.42H125.156V25.32H137.436V31.74ZM156.095 27.06H154.755V19.32H150.895C150.675 21.66 148.755 23.44 146.075 23.44C143.175 23.44 141.215 21.4 141.215 18.84C141.215 16.24 143.175 14.18 146.075 14.18C148.695 14.18 150.595 15.92 150.875 18.2H154.755V13.86H156.095V27.06ZM146.075 22.36C148.275 22.36 149.575 20.8 149.575 18.82C149.575 16.82 148.275 15.26 146.075 15.26C143.855 15.26 142.575 16.82 142.575 18.82C142.575 20.8 143.855 22.36 146.075 22.36ZM156.755 31.36H144.195V25.44H145.535V30.28H156.755V31.36ZM163.333 26.6H162.173V25.74C162.173 23.92 162.613 22.84 164.393 21.38C165.533 20.44 166.313 19.22 166.313 18.08C166.313 16.2 164.753 15.4 163.093 15.4C162.113 15.4 160.633 15.8 159.593 16.42L159.113 15.52C160.193 14.88 161.833 14.38 163.193 14.38C165.453 14.38 167.593 15.44 167.593 18.04C167.593 19.5 166.833 20.74 165.473 21.88C163.733 23.38 163.333 24.1 163.333 25.82V26.6ZM163.893 29.84C163.893 30.46 163.393 30.94 162.773 30.94C162.093 30.94 161.613 30.46 161.613 29.84C161.613 29.26 162.093 28.74 162.773 28.74C163.393 28.74 163.893 29.26 163.893 29.84Z" fill="white"/>
</svg>
