<svg width="329" height="46" viewBox="0 0 329 46" fill="none" xmlns="http://www.w3.org/2000/svg">
<rect x="0.5" y="0.5" width="328" height="45" fill="#FF961E"/>
<rect x="0.5" y="0.5" width="328" height="45" stroke="black"/>
<path d="M23.04 28.8L23.24 29.8C22.22 30.12 20.98 30.24 19.8 30.24C15.98 30.24 14.16 27.68 14.14 24.34C14.1 21.24 15.98 18.6 19.2 18.62C22.5 18.62 23.98 20.76 23.98 23.94V24.66H15.42C15.5 27.16 16.92 29.26 19.84 29.24C20.86 29.24 22.02 29.12 23.04 28.8ZM15.38 23.68H22.72C22.72 23.64 22.76 23.46 22.72 23.42C22.7 21.04 21.38 19.62 19.2 19.62C16.72 19.62 15.54 21.6 15.38 23.68ZM28.5397 29.66C28.5397 30.3 28.0397 30.78 27.3997 30.78C26.7197 30.78 26.2197 30.3 26.2197 29.66C26.2197 29.06 26.7197 28.54 27.3997 28.54C28.0397 28.54 28.5397 29.06 28.5397 29.66ZM40.028 29.42V27.92H39.908C39.128 29.14 37.688 29.86 36.128 29.86C33.068 29.88 31.328 27.5 31.328 24.24C31.328 21 33.108 18.62 36.208 18.64C37.788 18.64 39.088 19.3 39.888 20.48H39.988V18.9H41.268V29.6C41.268 32.68 39.148 34.24 36.108 34.24C35.048 34.24 33.668 34.08 32.648 33.74L32.928 32.72C33.928 33.1 35.048 33.24 36.108 33.24C38.728 33.24 40.028 31.82 40.028 29.42ZM39.968 25.22V23.12C39.968 21.16 38.228 19.64 36.348 19.64C33.968 19.64 32.588 21.6 32.588 24.24C32.588 26.88 33.848 28.86 36.268 28.86C38.208 28.86 39.968 27.32 39.968 25.22ZM46.9186 29.66C46.9186 30.3 46.4186 30.78 45.7786 30.78C45.0986 30.78 44.5986 30.3 44.5986 29.66C44.5986 29.06 45.0986 28.54 45.7786 28.54C46.4186 28.54 46.9186 29.06 46.9186 29.66ZM64.3919 27.12H55.8519V14.84H57.2119V19.56H63.0519V14.84H64.3919V27.12ZM63.0519 26.04V20.62H57.2119V26.04H63.0519ZM69.4319 31.64H68.1119V13.86H69.4319V20.58H72.4319V21.72H69.4319V31.64ZM82.2903 31.94C78.3703 31.94 76.0103 30.44 76.0103 28.4C76.0103 26.38 78.3703 24.88 82.2903 24.88C86.1703 24.88 88.5303 26.38 88.5303 28.4C88.5303 30.44 86.1703 31.94 82.2903 31.94ZM82.2903 25.96C79.4303 25.96 77.3503 26.86 77.3503 28.4C77.3503 29.96 79.4303 30.86 82.2903 30.86C85.1303 30.86 87.2103 29.96 87.2103 28.4C87.2103 26.86 85.1303 25.96 82.2903 25.96ZM88.1103 24.52H86.7903V13.86H88.1103V17.66H90.8303V18.76H88.1103V24.52ZM85.9103 20.96V22.02C83.8703 22.48 80.5703 22.7 77.7903 22.7H74.4503V14.78H83.0703V15.84H75.7703V21.6H77.7903C80.4903 21.6 83.7103 21.38 85.9103 20.96ZM109.674 25.14V26.22C107.434 26.68 103.934 26.88 101.254 26.88H98.4938V14.68H99.8138V25.78H101.254C103.934 25.78 107.274 25.58 109.674 25.14ZM111.854 31.64H110.534V13.86H111.854V19.96H114.854V21.1H111.854V31.64ZM130.912 31.44H118.832V27.16H129.152V25.08H118.832V24.02H130.492V28.18H120.152V30.36H130.912V31.44ZM130.532 23.08H129.212V13.86H130.532V17.88H133.252V18.98H130.532V23.08ZM124.012 15.82H116.832V14.78H125.552C125.172 19.34 120.712 22.28 116.512 23.28L115.772 22.32C119.932 21.44 123.352 18.86 124.012 15.82ZM154.836 31.64H153.496V21.68H149.396V20.56H153.496V13.86H154.836V31.64ZM140.976 27.84L140.096 26.94C144.816 24.64 147.456 20.64 147.956 16.12H141.196V15.04H149.416C149.156 21.06 145.676 25.46 140.976 27.84ZM173.394 27.04H172.074V21.28H167.794V23.22H159.294V14.78H167.794V16.6H172.074V13.86H173.394V27.04ZM166.454 22.14V15.84H160.614V22.14H166.454ZM174.054 31.36H161.494V25.44H162.834V30.28H174.054V31.36ZM172.074 20.2V17.68H167.794V20.2H172.074ZM198.498 23.28L197.758 24.26C194.578 23.34 191.738 21.5 190.638 19.1C189.578 21.52 186.678 23.38 183.518 24.26L182.778 23.3C186.258 22.44 189.938 20.02 189.938 16.8V16.06H184.118V14.98H197.178V16.06H191.358V16.8C191.358 20.06 195.058 22.42 198.498 23.28ZM199.398 29.18H181.918V28.1H189.958V23.3H191.338V28.1H199.398V29.18ZM212.296 21.92L211.516 22.92C209.276 22.12 207.256 20.46 206.436 18.68C205.716 20.64 203.696 22.46 201.196 23.52L200.376 22.6C203.296 21.48 205.696 19 205.696 15.96V14.32H207.116V15.96C207.116 18.86 209.576 21.02 212.296 21.92ZM216.016 31.44H204.136V24.86H216.016V31.44ZM214.676 30.36V25.94H205.476V30.36H214.676ZM216.036 23.9H214.696V13.86H216.036V23.9ZM234.794 27.32H233.454V20.7H230.854V26.92H229.554V14.16H230.854V19.56H233.454V13.86H234.794V27.32ZM235.274 31.36H222.454V26.24H223.774V30.28H235.274V31.36ZM228.234 17.76H219.154V16.72H228.234V17.76ZM226.074 15.26H221.314V14.22H226.074V15.26ZM223.714 25.06C221.394 25.06 219.834 23.68 219.834 21.96C219.834 20.24 221.394 18.86 223.714 18.86C226.074 18.86 227.634 20.24 227.634 21.96C227.634 23.68 226.074 25.06 223.714 25.06ZM223.714 19.86C222.094 19.86 221.134 20.78 221.134 21.96C221.134 23.12 222.094 24.04 223.714 24.04C225.374 24.04 226.314 23.12 226.314 21.96C226.314 20.78 225.374 19.86 223.714 19.86ZM257.518 31.64H256.198V13.86H257.518V20.2H260.518V21.34H257.518V31.64ZM255.338 25.16V26.24C253.098 26.7 249.598 26.92 246.918 26.92H244.158V15.04H252.738V16.12H245.478V25.82H246.918C249.598 25.82 252.938 25.6 255.338 25.16ZM276.476 31.64H275.136V22.32H269.656V21.24H275.136V18.16H269.656V17.08H275.136V13.86H276.476V31.64ZM273.636 25.14V26.22C271.416 26.68 267.916 26.88 265.236 26.88H262.796V14.7H264.136V25.78H265.236C267.916 25.78 271.276 25.58 273.636 25.14ZM297.015 29.18H279.535V28.1H287.575V23.92C284.075 23.7 281.715 21.7 281.715 19.08C281.715 16.32 284.375 14.22 288.255 14.22C292.155 14.22 294.835 16.32 294.835 19.08C294.835 21.7 292.455 23.7 288.955 23.92V28.1H297.015V29.18ZM293.495 19.08C293.495 16.82 291.215 15.3 288.255 15.3C285.315 15.3 283.035 16.82 283.035 19.08C283.035 21.36 285.315 22.86 288.255 22.86C291.215 22.86 293.495 21.36 293.495 19.08ZM312.713 31.64H311.393V13.86H312.713V20.6H315.713V21.74H312.713V31.64ZM310.533 25.56V26.66C308.293 27.1 304.793 27.32 302.113 27.32H299.133V20.5H306.333V16.02H299.133V14.94H307.673V21.56H300.493V26.22H302.113C304.793 26.22 308.133 26.02 310.533 25.56Z" fill="white"/>
</svg>
