<svg width="200" height="76" viewBox="0 0 200 76" fill="none" xmlns="http://www.w3.org/2000/svg">
<rect x="0.5" y="0.5" width="199" height="75" fill="#FF961E"/>
<rect x="0.5" y="0.5" width="199" height="75" stroke="black"/>
<path d="M23.54 21.44L24.22 21.84C23.78 23.18 22.74 23.96 21.5 23.96C20.56 23.96 19.8 23.44 19.12 22.88C18.38 22.28 17.72 21.74 16.9 21.74C16.06 21.74 15.34 22.38 14.9 23.28L14.22 22.92C14.52 21.8 15.7 20.7 16.92 20.7C17.84 20.7 18.58 21.16 19.24 21.7C20.02 22.34 20.72 22.9 21.6 22.9C22.38 22.9 23.12 22.38 23.54 21.44ZM43.3814 24.04H25.9414V22.96H43.3814V24.04ZM41.3614 20.26H28.3814V13.92H29.7214V19.18H41.3614V20.26ZM41.7014 31.36H28.4014V25.8H29.7414V30.26H41.7014V31.36ZM53.7598 25.54V26.62C52.1198 26.88 49.6798 27.04 47.9198 27.04H45.8598V15.2H52.4798V16.28H47.1398V25.94H47.9198C49.6798 25.94 52.0998 25.8 53.7598 25.54ZM56.2598 30.8H54.9398V21.22H50.7798V20.12H54.9398V14.16H56.2598V30.8ZM59.9798 31.64H58.6598V13.86H59.9798V31.64ZM69.5633 31.94H68.3833L75.4633 13.16H76.6433L69.5633 31.94ZM93.4423 21.44L94.1223 21.84C93.6823 23.18 92.6423 23.96 91.4023 23.96C90.4623 23.96 89.7023 23.44 89.0223 22.88C88.2823 22.28 87.6223 21.74 86.8023 21.74C85.9623 21.74 85.2423 22.38 84.8023 23.28L84.1223 22.92C84.4223 21.8 85.6023 20.7 86.8223 20.7C87.7423 20.7 88.4823 21.16 89.1423 21.7C89.9223 22.34 90.6223 22.9 91.5023 22.9C92.2823 22.9 93.0223 22.38 93.4423 21.44ZM105.604 22.76V23.8C103.984 24.08 101.564 24.24 99.5038 24.24H97.0038V14.62H104.124V15.66H98.3438V18.88H103.444V19.9H98.3438V23.16H99.5038C101.564 23.16 103.904 23.04 105.604 22.76ZM112.204 31.36H99.3438V26.04H100.684V30.28H112.204V31.36ZM108.164 26.92H106.844V19.54H104.264V18.46H106.844V14.16H108.164V26.92ZM111.684 27.32H110.364V13.86H111.684V27.32ZM123.662 25.54V26.62C122.022 26.88 119.582 27.04 117.822 27.04H115.762V15.2H122.382V16.28H117.042V25.94H117.822C119.582 25.94 122.002 25.8 123.662 25.54ZM126.162 30.8H124.842V21.22H120.682V20.12H124.842V14.16H126.162V30.8ZM129.882 31.64H128.562V13.86H129.882V31.64ZM23.04 58.8L23.24 59.8C22.22 60.12 20.98 60.24 19.8 60.24C15.98 60.24 14.16 57.68 14.14 54.34C14.1 51.24 15.98 48.6 19.2 48.62C22.5 48.62 23.98 50.76 23.98 53.94V54.66H15.42C15.5 57.16 16.92 59.26 19.84 59.24C20.86 59.24 22.02 59.12 23.04 58.8ZM15.38 53.68H22.72C22.72 53.64 22.76 53.46 22.72 53.42C22.7 51.04 21.38 49.62 19.2 49.62C16.72 49.62 15.54 51.6 15.38 53.68ZM28.5397 59.66C28.5397 60.3 28.0397 60.78 27.3997 60.78C26.7197 60.78 26.2197 60.3 26.2197 59.66C26.2197 59.06 26.7197 58.54 27.3997 58.54C28.0397 58.54 28.5397 59.06 28.5397 59.66ZM40.028 59.42V57.92H39.908C39.128 59.14 37.688 59.86 36.128 59.86C33.068 59.88 31.328 57.5 31.328 54.24C31.328 51 33.108 48.62 36.208 48.64C37.788 48.64 39.088 49.3 39.888 50.48H39.988V48.9H41.268V59.6C41.268 62.68 39.148 64.24 36.108 64.24C35.048 64.24 33.668 64.08 32.648 63.74L32.928 62.72C33.928 63.1 35.048 63.24 36.108 63.24C38.728 63.24 40.028 61.82 40.028 59.42ZM39.968 55.22V53.12C39.968 51.16 38.228 49.64 36.348 49.64C33.968 49.64 32.588 51.6 32.588 54.24C32.588 56.88 33.848 58.86 36.268 58.86C38.208 58.86 39.968 57.32 39.968 55.22ZM46.9186 59.66C46.9186 60.3 46.4186 60.78 45.7786 60.78C45.0986 60.78 44.5986 60.3 44.5986 59.66C44.5986 59.06 45.0986 58.54 45.7786 58.54C46.4186 58.54 46.9186 59.06 46.9186 59.66ZM69.4319 61.64H68.1119V43.86H69.4319V50.3H72.4319V51.44H69.4319V61.64ZM55.3519 51.1C55.3519 46.84 57.2919 44.34 59.8919 44.34C62.4919 44.34 64.4519 46.84 64.4519 51.1C64.4519 55.38 62.4919 57.88 59.8919 57.88C57.2919 57.88 55.3519 55.38 55.3519 51.1ZM63.1119 51.1C63.1119 47.44 61.7519 45.42 59.8919 45.42C58.0319 45.42 56.6919 47.44 56.6919 51.1C56.6919 54.78 58.0319 56.8 59.8919 56.8C61.7519 56.8 63.1119 54.78 63.1119 51.1ZM80.2103 58.62L79.0303 57.98C81.9703 54.64 83.2303 50.48 83.4303 46.12H79.8903V45.04H84.8103C84.7103 50.76 83.2303 54.98 80.2103 58.62ZM74.5103 57.54L73.3303 56.92C76.3303 53.84 77.6303 49.84 77.8503 46.12H74.2703V45.04H79.2703C79.1303 50.16 77.5303 54.26 74.5103 57.54ZM88.4703 61.64H87.1903V43.86H88.4703V50.8H91.0503V51.94H88.4703V61.64ZM112.574 54.36H111.254V49.1H106.974V52.78H98.4738V44.78H106.974V48H111.254V43.86H112.574V54.36ZM105.634 51.7V45.84H99.7938V51.7H105.634ZM112.534 61.74H111.214V56.42H100.254V55.32H112.534V61.74ZM124.192 54.04C120.312 54.04 117.652 51.92 117.652 49.14C117.652 46.34 120.312 44.22 124.192 44.22C128.092 44.22 130.772 46.34 130.772 49.14C130.772 51.92 128.092 54.04 124.192 54.04ZM124.192 45.3C121.252 45.3 118.972 46.82 118.972 49.14C118.972 51.44 121.252 52.96 124.192 52.96C127.152 52.96 129.432 51.44 129.432 49.14C129.432 46.82 127.152 45.3 124.192 45.3ZM132.952 59.04H115.472V57.96H132.952V59.04ZM150.251 61.36H137.691V55.44H139.031V60.28H150.251V61.36ZM149.591 57.04H148.251V43.86H149.591V57.04ZM145.851 52.52L145.051 53.52C142.891 52.64 140.831 50.92 139.991 49.08C139.271 51.02 137.231 52.98 134.771 54.12L133.931 53.2C136.831 51.98 139.251 49.38 139.251 46.36V44.32H140.671V46.36C140.671 49.18 143.191 51.52 145.851 52.52ZM167.609 61.64H166.269V43.86H167.609V61.64ZM165.329 55.16V56.24C163.089 56.7 159.589 56.92 156.889 56.92H153.929V45.04H162.769V46.12H155.269V55.82H156.889C159.589 55.82 162.929 55.6 165.329 55.16ZM174.048 59.66C174.048 60.3 173.548 60.78 172.908 60.78C172.228 60.78 171.728 60.3 171.728 59.66C171.728 59.06 172.228 58.54 172.908 58.54C173.548 58.54 174.048 59.06 174.048 59.66ZM179.536 59.66C179.536 60.3 179.036 60.78 178.396 60.78C177.716 60.78 177.216 60.3 177.216 59.66C177.216 59.06 177.716 58.54 178.396 58.54C179.036 58.54 179.536 59.06 179.536 59.66ZM185.024 59.66C185.024 60.3 184.524 60.78 183.884 60.78C183.204 60.78 182.704 60.3 182.704 59.66C182.704 59.06 183.204 58.54 183.884 58.54C184.524 58.54 185.024 59.06 185.024 59.66Z" fill="white"/>
</svg>
