<svg width="595" height="178" viewBox="0 0 595 178" fill="none" xmlns="http://www.w3.org/2000/svg">
<rect x="0.5" y="0.5" width="594" height="177" fill="white"/>
<rect x="0.5" y="0.5" width="594" height="177" stroke="black"/>
<path d="M27.15 42.675C22.25 42.675 19.3 40.75 19.3 38.125C19.3 35.525 22.25 33.6 27.15 33.6C32 33.6 34.95 35.525 34.95 38.125C34.95 40.75 32 42.675 27.15 42.675ZM27.15 34.95C23.575 34.95 20.975 36.125 20.975 38.125C20.975 40.15 23.575 41.325 27.15 41.325C30.7 41.325 33.3 40.15 33.3 38.125C33.3 36.125 30.7 34.95 27.15 34.95ZM34.425 33.225H32.775V20.075H34.425V25.7H37.825V27.075H34.425V33.225ZM16.925 32.95L15.975 31.75C21.475 30.275 25.575 26.675 26.3 22.575H17.3V21.225H28.225C27.7 27.45 22.525 31.3 16.925 32.95ZM57.698 36.75H56.023V20.075H57.698V26.925H61.098V28.325H57.698V36.75ZM58.623 41.95H43.148V35.5H44.798V40.6H58.623V41.95ZM53.123 24.8H39.448V23.5H53.123V24.8ZM49.823 21.475H42.698V20.175H49.823V21.475ZM46.323 33.825C42.873 33.825 40.648 32.1 40.648 29.975C40.648 27.85 42.873 26.125 46.323 26.125C49.748 26.125 51.998 27.85 51.998 29.975C51.998 32.1 49.748 33.825 46.323 33.825ZM46.323 27.4C43.798 27.4 42.323 28.5 42.323 29.975C42.323 31.475 43.798 32.575 46.323 32.575C48.848 32.575 50.323 31.45 50.323 29.975C50.323 28.5 48.848 27.4 46.323 27.4ZM80.8023 36.65H70.1273V21.3H71.8273V27.2H79.1273V21.3H80.8023V36.65ZM79.1273 35.3V28.525H71.8273V35.3H79.1273ZM87.1023 42.3H85.4523V20.075H87.1023V28.475H90.8523V29.9H87.1023V42.3ZM107.7 29.525V30.8C105.15 31.375 101.025 31.675 97.5504 31.675H93.2254V25.625H102.15V22.325H93.2254V21.025H103.825V26.9H94.9004V30.35H97.5504C100.925 30.35 104.95 30.05 107.7 29.525ZM110.4 42.05H95.8254V34.1H110.4V42.05ZM108.725 40.7V35.425H97.4754V40.7H108.725ZM110.45 32.9H108.8V20.075H110.45V25.075H113.85V26.45H110.45V32.9ZM134.323 42.3H132.648V20.075H134.323V42.3ZM116.023 29.125C116.023 23.8 118.473 20.675 121.723 20.675C124.998 20.675 127.423 23.8 127.423 29.125C127.423 34.475 124.998 37.6 121.723 37.6C118.473 37.6 116.023 34.475 116.023 29.125ZM125.748 29.125C125.748 24.55 124.073 22.025 121.723 22.025C119.398 22.025 117.698 24.55 117.698 29.125C117.698 33.725 119.398 36.25 121.723 36.25C124.073 36.25 125.748 33.725 125.748 29.125ZM164.303 31.6H162.628V20.075H164.303V31.6ZM164.803 42.05H149.428V36.7H162.603V34.075H149.428V32.775H164.278V37.95H151.103V40.725H164.803V42.05ZM151.678 30.9C148.128 30.9 145.753 28.55 145.753 25.625C145.753 22.725 148.128 20.375 151.678 20.375C155.178 20.375 157.553 22.725 157.553 25.625C157.553 28.55 155.178 30.9 151.678 30.9ZM151.678 21.7C148.978 21.7 147.453 23.425 147.453 25.625C147.453 27.825 148.978 29.575 151.678 29.575C154.353 29.575 155.878 27.825 155.878 25.625C155.878 23.425 154.353 21.7 151.678 21.7ZM182.351 30.35L181.376 31.6C178.576 30.575 176.076 28.5 175.051 26.275C174.151 28.725 171.601 31 168.501 32.325L167.451 31.2C171.101 29.8 174.126 26.675 174.126 22.875V20.65H175.876V22.875C175.876 26.5 178.951 29.225 182.351 30.35ZM179.326 42.675C174.426 42.675 171.476 40.8 171.476 38.25C171.476 35.725 174.426 33.85 179.326 33.85C184.176 33.85 187.151 35.725 187.151 38.25C187.151 40.8 184.176 42.675 179.326 42.675ZM179.326 35.2C175.751 35.2 173.176 36.325 173.176 38.25C173.176 40.2 175.751 41.325 179.326 41.325C182.876 41.325 185.476 40.2 185.476 38.25C185.476 36.325 182.876 35.2 179.326 35.2ZM186.601 33.4H184.951V20.075H186.601V25.2H189.876V26.575H186.601V33.4ZM205.949 30.85L204.949 32.05C202.149 31.025 199.649 28.975 198.624 26.8C197.724 29.225 195.124 31.525 192.074 32.8L191.024 31.65C194.599 30.35 197.699 27.175 197.699 23.4V22.55H192.249V21.225H204.749V22.55H199.474V23.4C199.474 27.025 202.624 29.775 205.949 30.85ZM210.249 42.425H208.574V36.025H194.899V34.65H210.249V42.425ZM210.299 33.45H208.624V26.625H203.599V25.225H208.624V20.075H210.299V33.45ZM226.822 26.3C226.822 29.5 224.347 32.05 220.772 32.05C217.147 32.05 214.697 29.5 214.697 26.3C214.697 23.05 217.147 20.475 220.772 20.475C224.347 20.475 226.822 23.05 226.822 26.3ZM220.772 30.7C223.522 30.7 225.147 28.75 225.147 26.275C225.147 23.775 223.522 21.825 220.772 21.825C217.997 21.825 216.397 23.775 216.397 26.275C216.397 28.75 217.997 30.7 220.772 30.7ZM233.297 36.575H231.622V20.075H233.297V36.575ZM234.122 41.95H218.422V34.55H220.097V40.6H234.122V41.95ZM259.901 33V34.25C257.601 34.675 254.551 34.825 251.251 34.825H243.876V33.525H250.876V31.475C248.051 31.3 246.176 30.075 246.176 28.375C246.176 26.55 248.426 25.275 251.651 25.275C254.876 25.275 257.126 26.55 257.126 28.375C257.126 30.05 255.276 31.25 252.526 31.475V33.525C255.226 33.5 257.826 33.3 259.901 33ZM262.476 37.35H260.826V20.075H262.476V27.55H265.976V28.95H262.476V37.35ZM263.101 41.95H247.651V36.275H249.351V40.575H263.101V41.95ZM255.451 28.375C255.451 27.25 253.926 26.55 251.651 26.55C249.376 26.55 247.851 27.25 247.851 28.375C247.851 29.525 249.376 30.225 251.651 30.225C253.926 30.225 255.451 29.525 255.451 28.375ZM258.276 24.175H245.026V22.875H258.276V24.175ZM255.076 21.375H248.226V20.075H255.076V21.375ZM278.399 42.675C273.349 42.675 270.299 40.75 270.299 38.125C270.299 35.525 273.349 33.6 278.399 33.6C283.424 33.6 286.474 35.525 286.474 38.125C286.474 40.75 283.424 42.675 278.399 42.675ZM278.399 34.95C274.699 34.95 271.974 36.125 271.974 38.15C271.974 40.15 274.699 41.325 278.399 41.325C282.099 41.325 284.799 40.15 284.799 38.15C284.799 36.125 282.099 34.95 278.399 34.95ZM268.149 32.95L267.199 31.75C272.724 30.275 276.824 26.675 277.524 22.575H268.549V21.225H279.449C278.924 27.45 273.749 31.3 268.149 32.95ZM286.049 33.425H284.399V29.675H279.399V28.325H284.399V25.05H279.924V23.7H284.399V20.075H286.049V33.425ZM315.379 42.425H313.704V36.475H299.429V35.125H315.379V42.425ZM318.529 32.55H296.729V31.2H306.804V27.575H308.504V31.2H318.529V32.55ZM317.179 27.475L316.254 28.65C312.579 27.9 309.004 25.9 307.604 23.4C306.229 25.9 302.654 27.9 299.004 28.65L298.079 27.475C302.054 26.775 306.729 24.2 306.729 20.925V20.125H308.504V20.925C308.504 24.2 313.179 26.775 317.179 27.475ZM335.277 41.25H333.652V29.825H330.627C330.477 34.725 328.402 37.575 325.577 37.575C322.652 37.575 320.527 34.475 320.527 29.2C320.527 23.95 322.652 20.85 325.577 20.85C328.377 20.85 330.452 23.65 330.627 28.425H333.652V20.45H335.277V41.25ZM325.577 36.225C327.677 36.225 329.027 33.45 329.027 29.2C329.027 24.975 327.677 22.2 325.577 22.2C323.527 22.2 322.152 24.975 322.152 29.2C322.152 33.45 323.527 36.225 325.577 36.225ZM339.802 42.3H338.127V20.075H339.802V42.3ZM362.4 42.3H360.725V28.525H355.175V27.125H360.725V20.075H362.4V42.3ZM357.8 35.875L356.8 37.075C353.825 35.45 351.025 32.425 350.15 29.575C349.225 32.725 346.85 35.625 343.425 37.725L342.3 36.675C346.15 34.425 349.2 30.55 349.2 25.25V21.05H350.975V25.25C350.975 30.35 354.325 34.15 357.8 35.875ZM388.679 29.375L387.629 30.475C386.154 29.55 384.829 27.925 384.304 26.375C383.829 28.1 382.279 29.95 380.779 31.025C379.254 29.95 377.829 28.15 377.229 26.425C376.679 28.1 375.329 29.825 373.654 30.975L372.429 29.975C374.429 28.675 376.429 26.25 376.429 23.125V22.525H373.804V21.225H380.354V22.525H378.054V23.125C378.054 25.775 379.354 27.825 380.779 29.15C382.154 27.825 383.479 25.775 383.479 23.125V22.525H381.179V21.225H387.679V22.525H385.104V23.125C385.104 26.075 386.904 28.35 388.679 29.375ZM392.104 42.05H385.079V32.775H386.679V35.975H390.529V32.775H392.104V42.05ZM384.204 40.45V41.75C382.654 42 380.829 42.05 379.179 42.05H376.254V36.7H381.954V34.075H376.229V32.775H383.579V37.95H377.929V40.725H379.254C380.779 40.725 382.604 40.65 384.204 40.45ZM392.204 31.6H390.579V20.075H392.204V24.5H395.204V25.875H392.204V31.6ZM390.529 40.725V37.25H386.679V40.725H390.529ZM397.277 37.525L396.002 36.45C401.177 33.55 403.852 28 404.152 23.05H397.252V21.7H405.952C405.827 28.575 402.527 34.325 397.277 37.525ZM410.977 41.25H409.352V29.875H405.552V28.475H409.352V20.45H410.977V41.25ZM415.552 42.3H413.902V20.075H415.552V42.3ZM445.056 42.05H429.956V36.575H442.856V33.825H429.956V32.525H444.531V37.825H431.606V40.725H445.056V42.05ZM437.906 29.875H427.356V21.225H437.906V29.875ZM436.231 28.575V22.525H429.031V28.575H436.231ZM444.581 31.35H442.931V20.075H444.581V24.425H447.981V25.825H444.581V31.35ZM459.754 22.075H452.829V20.725H459.754V22.075ZM467.654 42.3H466.004V20.075H467.654V29.25H471.254V30.675H467.654V42.3ZM462.054 32.95C462.054 35.875 459.754 38.225 456.379 38.225C453.004 38.225 450.704 35.875 450.704 32.95C450.704 30.025 453.004 27.65 456.379 27.65C459.754 27.65 462.054 30 462.054 32.95ZM460.404 32.95C460.404 30.6 458.829 28.975 456.404 28.975C453.954 28.975 452.379 30.575 452.379 32.95C452.379 35.3 453.954 36.9 456.404 36.9C458.829 36.9 460.404 35.3 460.404 32.95ZM463.179 25.775H449.454V24.425H463.179V25.775ZM493.577 32.8H471.777V31.45H493.577V32.8ZM491.052 28.075H474.827V20.15H476.502V26.725H491.052V28.075ZM491.477 41.95H474.852V35H476.527V40.575H491.477V41.95ZM517.907 36.125V37.425C515.582 37.925 512.757 38.075 509.457 38.075H501.982V36.725H508.907V34C506.107 33.725 504.357 32.125 504.357 30.3C504.357 28.275 506.457 26.575 509.732 26.575C512.982 26.575 515.057 28.275 515.057 30.3C515.057 32.125 513.357 33.725 510.582 34V36.725C513.257 36.7 515.857 36.5 517.907 36.125ZM520.532 42.3H518.857V20.075H520.532V29.35H524.082V30.775H520.532V42.3ZM513.407 30.3C513.407 28.9 511.957 27.875 509.732 27.875C507.482 27.875 506.032 28.9 506.032 30.3C506.032 31.7 507.482 32.7 509.732 32.7C511.957 32.7 513.407 31.7 513.407 30.3ZM516.332 25.275H503.082V23.925H516.332V25.275ZM513.132 21.9H506.257V20.55H513.132V21.9ZM544.155 31.925H542.505V26.2H537.155V30.975H526.53V20.85H528.18V24.525H535.48V20.85H537.155V24.8H542.505V20.075H544.155V31.925ZM544.13 42.05H529.255V33H530.93V36.05H542.48V33H544.13V42.05ZM542.48 40.75V37.35H530.93V40.75H542.48ZM535.48 29.65V25.8H528.18V29.65H535.48ZM567.478 42.3H565.803V20.075H567.478V42.3ZM549.178 29.125C549.178 23.8 551.628 20.675 554.878 20.675C558.153 20.675 560.578 23.8 560.578 29.125C560.578 34.475 558.153 37.6 554.878 37.6C551.628 37.6 549.178 34.475 549.178 29.125ZM558.903 29.125C558.903 24.55 557.228 22.025 554.878 22.025C552.553 22.025 550.853 24.55 550.853 29.125C550.853 33.725 552.553 36.25 554.878 36.25C557.228 36.25 558.903 33.725 558.903 29.125ZM27.575 80.675C22.55 80.675 19.475 79 19.475 76.725C19.475 74.45 22.55 72.775 27.575 72.775C32.6 72.775 35.675 74.45 35.675 76.725C35.675 79 32.6 80.675 27.575 80.675ZM27.575 74.05C23.875 74.05 21.175 75.025 21.175 76.725C21.175 78.425 23.875 79.4 27.575 79.4C31.25 79.4 33.975 78.425 33.975 76.725C33.975 75.025 31.25 74.05 27.575 74.05ZM29.9 62.525H16.45V61.225H29.9V62.525ZM26.825 59.475H19.7V58.175H26.825V59.475ZM23.325 70.975C19.875 70.975 17.65 69.35 17.65 67.35C17.65 65.35 19.875 63.725 23.325 63.725C26.75 63.725 29 65.35 29 67.35C29 69.35 26.75 70.975 23.325 70.975ZM23.325 65C20.8 65 19.325 66 19.325 67.35C19.325 68.725 20.8 69.725 23.325 69.725C25.85 69.725 27.325 68.7 27.325 67.35C27.325 66 25.85 65 23.325 65ZM35.25 72.625H33.575V69.35H29.625V68.05H33.575V65.2H29.625V63.9H33.575V58.075H35.25V72.625ZM50.573 80.675C45.548 80.675 42.473 78.8 42.473 76.25C42.473 73.725 45.548 71.85 50.573 71.85C55.598 71.85 58.673 73.725 58.673 76.25C58.673 78.8 55.598 80.675 50.573 80.675ZM50.573 73.2C46.873 73.2 44.173 74.325 44.173 76.25C44.173 78.2 46.873 79.325 50.573 79.325C54.248 79.325 56.973 78.2 56.973 76.25C56.973 74.325 54.248 73.2 50.573 73.2ZM53.573 68.375L52.598 69.625C49.798 68.6 47.273 66.525 46.248 64.3C45.348 66.75 42.823 69.025 39.698 70.35L38.673 69.225C42.323 67.825 45.323 64.7 45.323 60.9V58.65H47.098V60.9C47.098 64.525 50.173 67.25 53.573 68.375ZM58.248 71.675H56.573V63.7H50.998V62.3H56.573V58.075H58.248V71.675ZM78.3711 73.4V74.7C76.0461 75.2 73.2211 75.35 69.8961 75.35H62.1211V74H69.3461V68.85H63.7711V59.45H75.8211V60.8H65.4461V67.5H76.3461V68.85H71.0211V74C73.7211 73.975 76.2961 73.775 78.3711 73.4ZM80.9211 80.3H79.2711V58.075H80.9211V80.3ZM104.244 71H102.569V64.625H97.7191C97.3941 67.425 95.0441 69.55 91.7191 69.55C88.1191 69.55 85.6941 67.1 85.6941 64.025C85.6941 60.95 88.1191 58.475 91.7191 58.475C94.9691 58.475 97.2691 60.55 97.6691 63.225H102.569V58.075H104.244V71ZM96.0441 64.025C96.0441 61.675 94.4441 59.825 91.7191 59.825C88.9691 59.825 87.3941 61.675 87.3941 64.025C87.3941 66.35 88.9691 68.2 91.7191 68.2C94.4441 68.2 96.0441 66.35 96.0441 64.025ZM106.644 79.275L105.594 80.4C103.644 79.4 101.644 77.5 100.994 75.675C100.344 77.425 98.5441 79.375 96.7941 80.325C95.0191 79.375 93.1941 77.425 92.5691 75.675C91.8941 77.5 89.9191 79.4 87.9691 80.4L86.9191 79.275C89.2691 78.2 91.7191 75.65 91.7191 72.95V71.975H93.3941V72.95C93.3941 75.25 95.2441 77.6 96.7941 78.575C98.3191 77.6 100.169 75.25 100.169 72.95V71.975H101.844V72.95C101.844 75.65 104.319 78.2 106.644 79.275ZM126.067 80.3H124.417V58.075H126.067V66H129.817V67.425H126.067V80.3ZM123.342 72.2V73.55C120.542 74.125 116.167 74.4 112.817 74.4H109.367V59.55H120.092V60.9H111.017V73.025H112.817C116.167 73.025 120.342 72.75 123.342 72.2ZM152.415 70.8H130.615V69.45H152.415V70.8ZM149.89 66.075H133.665V58.15H135.34V64.725H149.89V66.075ZM150.315 79.95H133.69V73H135.365V78.575H150.315V79.95ZM172.72 63.8H161.145V62.45H172.72V63.8ZM170.045 60.225H163.77V58.875H170.045V60.225ZM180.845 80.3H179.17V68.55H175.82V79.25H174.195V58.45H175.82V67.075H179.17V58.075H180.845V80.3ZM161.92 70.6C161.92 67.775 164.12 65.65 166.895 65.65C169.695 65.65 171.92 67.775 171.92 70.6C171.92 73.425 169.695 75.55 166.895 75.55C164.12 75.55 161.92 73.425 161.92 70.6ZM170.295 70.6C170.295 68.5 168.97 66.95 166.895 66.95C164.87 66.95 163.545 68.5 163.545 70.6C163.545 72.675 164.87 74.25 166.895 74.25C168.97 74.25 170.295 72.675 170.295 70.6ZM203.218 80.425H201.543V74.025H187.868V72.65H203.218V80.425ZM203.268 71.45H201.593V63.9H196.018V62.525H201.593V58.075H203.268V71.45ZM198.593 68.625L197.618 69.875C194.818 68.875 192.293 66.8 191.268 64.575C190.368 67.025 187.843 69.3 184.718 70.625L183.693 69.475C187.343 68.075 190.343 64.975 190.343 61.175V58.65H192.118V61.175C192.118 64.8 195.193 67.5 198.593 68.625ZM226.316 80.3H224.641V58.075H226.316V80.3ZM208.016 67.125C208.016 61.8 210.466 58.675 213.716 58.675C216.991 58.675 219.416 61.8 219.416 67.125C219.416 72.475 216.991 75.6 213.716 75.6C210.466 75.6 208.016 72.475 208.016 67.125ZM217.741 67.125C217.741 62.55 216.066 60.025 213.716 60.025C211.391 60.025 209.691 62.55 209.691 67.125C209.691 71.725 211.391 74.25 213.716 74.25C216.066 74.25 217.741 71.725 217.741 67.125ZM255.77 63.325C255.77 66.2 252.67 68.45 247.495 68.45C242.345 68.45 239.245 66.2 239.245 63.325C239.245 60.475 242.345 58.225 247.495 58.225C252.67 58.225 255.77 60.475 255.77 63.325ZM254.095 63.325C254.095 61 251.27 59.575 247.495 59.575C243.77 59.575 240.92 61 240.92 63.325C240.92 65.675 243.77 67.1 247.495 67.1C251.27 67.1 254.095 65.675 254.095 63.325ZM252.32 80.3H250.67V72.125H244.47V80.1H242.77V72.125H236.645V70.775H258.47V72.125H252.32V80.3ZM278.968 80.425H277.318V74.525H263.618V73.15H278.968V80.425ZM275.518 68.525V69.8C272.918 70.375 268.843 70.675 265.343 70.675H261.393V64.125H269.818V60.325H261.393V59.025H271.468V65.4H263.043V69.35H265.343C268.718 69.35 272.768 69.05 275.518 68.525ZM279.018 71.95H277.368V66.475H272.868V65.15H277.368V62.225H272.868V60.9H277.368V58.075H279.018V71.95ZM293.641 60.075H286.716V58.725H293.641V60.075ZM301.541 80.3H299.891V58.075H301.541V67.25H305.141V68.675H301.541V80.3ZM295.941 70.95C295.941 73.875 293.641 76.225 290.266 76.225C286.891 76.225 284.591 73.875 284.591 70.95C284.591 68.025 286.891 65.65 290.266 65.65C293.641 65.65 295.941 68 295.941 70.95ZM294.291 70.95C294.291 68.6 292.716 66.975 290.291 66.975C287.841 66.975 286.266 68.575 286.266 70.95C286.266 73.3 287.841 74.9 290.291 74.9C292.716 74.9 294.291 73.3 294.291 70.95ZM297.066 63.775H283.341V62.425H297.066V63.775ZM324.814 80.3H323.139V70.325H318.139V74.4H307.464V59.55H318.139V62.875H323.139V58.075H324.814V80.3ZM316.439 73.05V60.9H309.114V73.05H316.439ZM323.139 68.975V64.225H318.139V68.975H323.139ZM330.387 82.4L329.987 82.025C330.862 81.475 331.612 80.4 331.737 79.45C331.762 79.325 331.737 79.225 331.687 79.175C331.637 79.05 331.487 78.975 331.237 78.975C330.537 78.975 329.887 78.5 329.887 77.65C329.887 76.85 330.537 76.325 331.337 76.325C332.262 76.325 332.912 77.15 332.912 78.175C332.912 79.95 331.837 81.625 330.387 82.4ZM359.304 73.4V74.7C356.979 75.2 354.154 75.35 350.829 75.35H343.054V74H350.029V69.6C346.804 69.3 344.554 66.925 344.554 64.15C344.554 61.175 347.154 58.7 350.704 58.7C354.304 58.7 356.904 61.175 356.904 64.15C356.904 66.85 354.754 69.175 351.679 69.575V74C354.479 73.975 357.154 73.8 359.304 73.4ZM355.229 64.15C355.229 61.9 353.504 60.05 350.704 60.05C347.904 60.05 346.229 61.9 346.229 64.15C346.229 66.4 347.904 68.275 350.704 68.275C353.504 68.275 355.229 66.4 355.229 64.15ZM361.854 80.3H360.204V58.075H361.854V80.3ZM384.252 68.5H368.602V58.55H370.277V61.825H382.577V58.55H384.252V68.5ZM382.577 67.15V63.15H370.277V67.15H382.577ZM387.377 72.65H377.302V80.3H375.577V72.65H365.527V71.3H387.377V72.65ZM401.7 64.3C401.7 67.5 399.225 70.05 395.65 70.05C392.025 70.05 389.575 67.5 389.575 64.3C389.575 61.05 392.025 58.475 395.65 58.475C399.225 58.475 401.7 61.05 401.7 64.3ZM395.65 68.7C398.4 68.7 400.025 66.75 400.025 64.275C400.025 61.775 398.4 59.825 395.65 59.825C392.875 59.825 391.275 61.775 391.275 64.275C391.275 66.75 392.875 68.7 395.65 68.7ZM408.175 74.575H406.5V58.075H408.175V74.575ZM409 79.95H393.3V72.55H394.975V78.6H409V79.95ZM427.098 79.25H425.473V67.825H422.448C422.298 72.725 420.223 75.575 417.398 75.575C414.473 75.575 412.348 72.475 412.348 67.2C412.348 61.95 414.473 58.85 417.398 58.85C420.198 58.85 422.273 61.65 422.448 66.425H425.473V58.45H427.098V79.25ZM417.398 74.225C419.498 74.225 420.848 71.45 420.848 67.2C420.848 62.975 419.498 60.2 417.398 60.2C415.348 60.2 413.973 62.975 413.973 67.2C413.973 71.45 415.348 74.225 417.398 74.225ZM431.623 80.3H429.948V58.075H431.623V80.3ZM436.071 75.525L434.796 74.45C439.971 71.55 442.646 66 442.946 61.05H436.046V59.7H444.746C444.621 66.575 441.321 72.325 436.071 75.525ZM449.771 79.25H448.146V67.875H444.346V66.475H448.146V58.45H449.771V79.25ZM454.346 80.3H452.696V58.075H454.346V80.3ZM479.344 70.8H457.544V69.45H479.344V70.8ZM476.819 66.075H460.594V58.15H462.269V64.725H476.819V66.075ZM477.244 79.95H460.619V73H462.294V78.575H477.244V79.95ZM507.298 79.95H491.823V72.55H493.498V78.6H507.298V79.95ZM506.373 74.575H504.723V58.075H506.373V63.25H509.773V64.625H506.373V74.575ZM503.623 67.525V68.85C501.048 69.425 496.948 69.725 493.473 69.725H489.298V58.725H490.948V68.35H493.473C496.848 68.35 500.873 68.075 503.623 67.525ZM522.646 63.8H511.071V62.45H522.646V63.8ZM519.971 60.225H513.696V58.875H519.971V60.225ZM530.771 80.3H529.096V68.55H525.746V79.25H524.121V58.45H525.746V67.075H529.096V58.075H530.771V80.3ZM511.846 70.6C511.846 67.775 514.046 65.65 516.821 65.65C519.621 65.65 521.846 67.775 521.846 70.6C521.846 73.425 519.621 75.55 516.821 75.55C514.046 75.55 511.846 73.425 511.846 70.6ZM520.221 70.6C520.221 68.5 518.896 66.95 516.821 66.95C514.796 66.95 513.471 68.5 513.471 70.6C513.471 72.675 514.796 74.25 516.821 74.25C518.896 74.25 520.221 72.675 520.221 70.6ZM544.544 60.075H537.619V58.725H544.544V60.075ZM552.444 80.3H550.794V58.075H552.444V67.25H556.044V68.675H552.444V80.3ZM546.844 70.95C546.844 73.875 544.544 76.225 541.169 76.225C537.794 76.225 535.494 73.875 535.494 70.95C535.494 68.025 537.794 65.65 541.169 65.65C544.544 65.65 546.844 68 546.844 70.95ZM545.194 70.95C545.194 68.6 543.619 66.975 541.194 66.975C538.744 66.975 537.169 68.575 537.169 70.95C537.169 73.3 538.744 74.9 541.194 74.9C543.619 74.9 545.194 73.3 545.194 70.95ZM547.969 63.775H534.244V62.425H547.969V63.775ZM578.392 77.225H556.542V75.875H564.742V67.3H566.492V75.875H578.392V77.225ZM573.917 72.55H572.192C573.117 68.9 573.692 64.525 573.792 61.075H559.217V59.725H575.567C575.442 64.15 574.767 68.825 573.917 72.55ZM35.3 118.3H33.625V96.075H35.3V118.3ZM17 105.125C17 99.8 19.45 96.675 22.7 96.675C25.975 96.675 28.4 99.8 28.4 105.125C28.4 110.475 25.975 113.6 22.7 113.6C19.45 113.6 17 110.475 17 105.125ZM26.725 105.125C26.725 100.55 25.05 98.025 22.7 98.025C20.375 98.025 18.675 100.55 18.675 105.125C18.675 109.725 20.375 112.25 22.7 112.25C25.05 112.25 26.725 109.725 26.725 105.125ZM57.273 118.425H55.598V112.05H41.323V110.7H48.373V106.3H38.623V104.95H55.123C55.573 102.8 55.948 99.975 56.023 98.15H41.273V96.8H57.723C57.623 99.825 57.198 102.825 56.748 104.95H60.423V106.3H50.048V110.7H57.273V118.425ZM76.8961 106.85L75.8961 108.05C73.0961 107.025 70.5961 104.975 69.5711 102.8C68.6711 105.225 66.0711 107.525 63.0211 108.8L61.9711 107.65C65.5461 106.35 68.6461 103.175 68.6461 99.4V98.55H63.1961V97.225H75.6961V98.55H70.4211V99.4C70.4211 103.025 73.5711 105.775 76.8961 106.85ZM81.1961 118.425H79.5211V112.025H65.8461V110.65H81.1961V118.425ZM81.2461 109.45H79.5711V102.625H74.5461V101.225H79.5711V96.075H81.2461V109.45ZM95.4941 108.8C90.6441 108.8 87.3191 106.15 87.3191 102.675C87.3191 99.175 90.6441 96.525 95.4941 96.525C100.369 96.525 103.719 99.175 103.719 102.675C103.719 106.15 100.369 108.8 95.4941 108.8ZM95.4941 97.875C91.8191 97.875 88.9691 99.775 88.9691 102.675C88.9691 105.55 91.8191 107.45 95.4941 107.45C99.1941 107.45 102.044 105.55 102.044 102.675C102.044 99.775 99.1941 97.875 95.4941 97.875ZM106.444 115.05H84.5941V113.7H106.444V115.05ZM129.442 115.375H107.592V114.025H117.792V109.3H110.667V102.625H124.392V98.65H110.667V97.3H126.042V103.95H112.342V107.925H126.767V109.3H119.492V114.025H129.442V115.375ZM156.871 103.375H140.696V96.8H156.446V98.1H142.371V102.05H156.871V103.375ZM156.896 118.05H140.671V112.95H154.671V110.6H140.671V109.3H156.346V114.225H142.346V116.725H156.896V118.05ZM159.446 106.9H137.646V105.575H159.446V106.9ZM180.495 118.05H165.12V112.775H178.32V110.225H165.12V108.925H179.97V114.025H166.795V116.725H180.495V118.05ZM179.995 107.75H178.345V96.075H179.995V107.75ZM177.145 104.45V105.7C174.595 106.275 170.47 106.55 166.97 106.55H162.37V101.125H171.345V98.275H162.37V97.025H173.02V102.35H164.02V105.275H166.97C170.37 105.275 174.42 104.975 177.145 104.45ZM212.474 109.875H202.424V118.3H200.699V109.875H190.649V108.525H212.474V109.875ZM211.274 104.85L210.349 106.075C206.549 105.2 202.974 103.1 201.549 100.425C200.149 103.1 196.574 105.2 192.774 106.075L191.824 104.85C196.074 104 200.674 101.25 200.674 97.725V96.65H202.449V97.725C202.449 101.25 207.049 104 211.274 104.85ZM242.728 117.275L241.678 118.4C239.728 117.4 237.728 115.5 237.078 113.675C236.428 115.425 234.628 117.375 232.878 118.325C231.103 117.375 229.278 115.425 228.653 113.675C227.978 115.5 226.003 117.4 224.053 118.4L223.003 117.275C225.353 116.2 227.803 113.65 227.803 110.95V109.975H229.478V110.95C229.478 113.25 231.328 115.6 232.878 116.575C234.403 115.6 236.253 113.25 236.253 110.95V109.975H237.928V110.95C237.928 113.65 240.403 116.2 242.728 117.275ZM233.803 102.025C233.803 105.1 231.353 107.55 227.803 107.55C224.203 107.55 221.778 105.1 221.778 102.025C221.778 98.95 224.203 96.475 227.803 96.475C231.353 96.475 233.803 98.95 233.803 102.025ZM232.128 102.025C232.128 99.675 230.528 97.825 227.803 97.825C225.053 97.825 223.478 99.675 223.478 102.025C223.478 104.35 225.053 106.2 227.803 106.2C230.528 106.2 232.128 104.35 232.128 102.025ZM240.328 109H238.653V96.075H240.328V109ZM254.576 108.8C249.726 108.8 246.401 106.15 246.401 102.675C246.401 99.175 249.726 96.525 254.576 96.525C259.451 96.525 262.801 99.175 262.801 102.675C262.801 106.15 259.451 108.8 254.576 108.8ZM254.576 97.875C250.901 97.875 248.051 99.775 248.051 102.675C248.051 105.55 250.901 107.45 254.576 107.45C258.276 107.45 261.126 105.55 261.126 102.675C261.126 99.775 258.276 97.875 254.576 97.875ZM265.526 115.05H243.676V113.7H265.526V115.05ZM282.424 110.175V111.525C279.624 112.1 275.249 112.35 271.899 112.35H268.449V97.1H270.099V110.975H271.899C275.249 110.975 279.424 110.725 282.424 110.175ZM285.149 118.3H283.499V96.075H285.149V103.7H288.899V105.125H285.149V118.3ZM312.129 111.975L311.104 113.175C308.254 111.55 305.404 108.7 304.454 105.95C303.579 109.025 300.954 111.9 297.729 113.825L296.604 112.725C300.254 110.675 303.504 106.85 303.504 101.675V98.9H297.904V97.55H310.729V98.9H305.279V101.675C305.279 106.75 308.929 110.325 312.129 111.975ZM316.404 118.3H314.729V96.075H316.404V118.3ZM339.352 109.2H337.677V105.4H331.652C330.577 106.725 328.902 107.55 326.827 107.55C323.227 107.55 320.802 105.1 320.802 102.025C320.802 98.95 323.227 96.475 326.827 96.475C328.952 96.475 330.652 97.375 331.727 98.725H337.677V96.075H339.352V109.2ZM331.152 102.025C331.152 99.675 329.552 97.825 326.827 97.825C324.077 97.825 322.502 99.675 322.502 102.025C322.502 104.35 324.077 106.2 326.827 106.2C329.552 106.2 331.152 104.35 331.152 102.025ZM339.302 118.425H337.627V111.775H323.952V110.4H339.302V118.425ZM337.677 104.05V100.075H332.477C332.727 100.7 332.827 101.35 332.827 102.025C332.827 102.75 332.727 103.425 332.452 104.05H337.677ZM355.075 107.525H344.45V97.225H355.075V107.525ZM353.4 106.175V98.55H346.1V106.175H353.4ZM362.075 112.55H360.425V96.075H362.075V112.55ZM362.9 117.95H347.2V110.55H348.875V116.6H362.9V117.95ZM381.273 117.25H379.648V105.825H376.623C376.473 110.725 374.398 113.575 371.573 113.575C368.648 113.575 366.523 110.475 366.523 105.2C366.523 99.95 368.648 96.85 371.573 96.85C374.373 96.85 376.448 99.65 376.623 104.425H379.648V96.45H381.273V117.25ZM371.573 112.225C373.673 112.225 375.023 109.45 375.023 105.2C375.023 100.975 373.673 98.2 371.573 98.2C369.523 98.2 368.148 100.975 368.148 105.2C368.148 109.45 369.523 112.225 371.573 112.225ZM385.798 118.3H384.123V96.075H385.798V118.3ZM390.246 113.525L388.971 112.45C394.146 109.55 396.821 104 397.121 99.05H390.221V97.7H398.921C398.796 104.575 395.496 110.325 390.246 113.525ZM403.946 117.25H402.321V105.875H398.521V104.475H402.321V96.45H403.946V117.25ZM408.521 118.3H406.871V96.075H408.521V118.3ZM433.519 108.8H411.719V107.45H433.519V108.8ZM430.994 104.075H414.769V96.15H416.444V102.725H430.994V104.075ZM431.419 117.95H414.794V111H416.469V116.575H431.419V117.95ZM461.798 114.25C461.798 116.8 458.723 118.675 453.698 118.675C448.673 118.675 445.598 116.8 445.598 114.25C445.598 111.725 448.673 109.85 453.698 109.85C458.723 109.85 461.798 111.725 461.798 114.25ZM460.098 114.25C460.098 112.325 457.373 111.2 453.698 111.2C449.998 111.2 447.298 112.325 447.298 114.25C447.298 116.2 449.998 117.325 453.698 117.325C457.373 117.325 460.098 116.2 460.098 114.25ZM457.023 106.85L456.023 108.05C453.223 107.025 450.723 104.975 449.698 102.8C448.798 105.225 446.198 107.525 443.148 108.8L442.098 107.65C445.673 106.35 448.773 103.175 448.773 99.4V98.55H443.323V97.225H455.823V98.55H450.548V99.4C450.548 103.025 453.698 105.775 457.023 106.85ZM461.373 109.675H459.698V102.625H454.673V101.25H459.698V96.075H461.373V109.675ZM477.396 112.25L476.396 113.4C474.221 111.975 472.171 109.475 471.421 107.15C470.646 109.65 468.471 112.325 465.721 114.15L464.596 113.1C467.946 111.125 470.521 107.475 470.521 103.025V102.3H466.046V100.95H476.646V102.3H472.271V103.025C472.271 107.425 474.896 110.8 477.396 112.25ZM480.496 117.25H478.871V106.55H475.271V105.175H478.871V96.45H480.496V117.25ZM485.021 118.3H483.371V96.075H485.021V118.3ZM474.471 98.225H468.221V96.875H474.471V98.225ZM499.694 118.675C494.669 118.675 491.594 116.8 491.594 114.25C491.594 111.725 494.669 109.85 499.694 109.85C504.719 109.85 507.794 111.725 507.794 114.25C507.794 116.8 504.719 118.675 499.694 118.675ZM499.694 111.2C495.994 111.2 493.294 112.325 493.294 114.25C493.294 116.2 495.994 117.325 499.694 117.325C503.369 117.325 506.094 116.2 506.094 114.25C506.094 112.325 503.369 111.2 499.694 111.2ZM502.694 106.375L501.719 107.625C498.919 106.6 496.394 104.525 495.369 102.3C494.469 104.75 491.944 107.025 488.819 108.35L487.794 107.225C491.444 105.825 494.444 102.7 494.444 98.9V96.65H496.219V98.9C496.219 102.525 499.294 105.25 502.694 106.375ZM507.369 109.675H505.694V101.7H500.119V100.3H505.694V96.075H507.369V109.675ZM529.467 118.3H527.792V96.075H529.467V105.1H533.017V106.525H529.467V118.3ZM526.842 111.4V112.7C524.517 113.2 521.692 113.35 518.392 113.35H510.917V112H516.167V104.15H517.842V112H518.492C521.567 112 524.517 111.825 526.842 111.4ZM523.317 108.725H521.667C522.192 106.2 522.742 101.875 522.692 98.8H512.217V97.45H524.442C524.417 100.9 523.967 105.675 523.317 108.725ZM35.7 147.675H34.025V140.775H30.725V146.825H29.075V134.45H30.725V139.35H34.025V134.075H35.7V147.675ZM27.75 156.675C22.65 156.675 19.575 154.8 19.575 152.25C19.575 149.725 22.65 147.85 27.75 147.85C32.85 147.85 35.9 149.725 35.9 152.25C35.9 154.8 32.85 156.675 27.75 156.675ZM27.75 149.2C24 149.2 21.275 150.325 21.275 152.25C21.275 154.2 24 155.325 27.75 155.325C31.5 155.325 34.225 154.2 34.225 152.25C34.225 150.325 31.5 149.2 27.75 149.2ZM27.95 144.725L26.975 145.925C24.675 144.825 22.7 142.8 21.925 140.75C21.25 143 19.2 145.225 16.825 146.675L15.675 145.625C18.65 143.95 21.025 140.825 21.025 137.05V134.775H22.75V137.075C22.75 140.975 25.325 143.55 27.95 144.725ZM54.823 144.925V146.15C52.523 146.55 49.473 146.725 46.173 146.725H38.798V145.45H45.798V143.9C42.973 143.725 41.098 142.675 41.098 141.25C41.098 139.7 43.348 138.6 46.573 138.6C49.798 138.6 52.048 139.7 52.048 141.25C52.048 142.65 50.198 143.7 47.448 143.875V145.45C50.148 145.425 52.748 145.225 54.823 144.925ZM57.873 156.05H42.523V151.525H55.673V149.6H42.523V148.375H57.348V152.725H44.223V154.8H57.873V156.05ZM57.398 147.225H55.748V134.075H57.398V140.025H60.898V141.4H57.398V147.225ZM50.373 141.25C50.373 140.375 48.848 139.825 46.573 139.825C44.298 139.825 42.773 140.375 42.773 141.25C42.773 142.125 44.298 142.675 46.573 142.675C48.848 142.675 50.373 142.125 50.373 141.25ZM53.198 137.75H39.948V136.475H53.198V137.75ZM49.998 135.225H43.148V133.975H49.998V135.225ZM80.9211 156.3H79.2711V134.075H80.9211V156.3ZM78.3711 149.15V150.45C76.0461 150.95 73.2211 151.1 69.8961 151.1H62.1211V149.75H69.9961C73.0711 149.75 76.0461 149.55 78.3711 149.15ZM69.7711 145.875C66.2211 145.875 63.6211 143.375 63.6211 140.4C63.6211 137.425 66.2211 134.95 69.7711 134.95C73.3711 134.95 75.9711 137.425 75.9711 140.4C75.9711 143.375 73.3711 145.875 69.7711 145.875ZM69.7711 136.3C66.9711 136.3 65.2961 138.15 65.2961 140.4C65.2961 142.65 66.9711 144.525 69.7711 144.525C72.5711 144.525 74.2961 142.65 74.2961 140.4C74.2961 138.15 72.5711 136.3 69.7711 136.3ZM111.5 156.05H96.1254V150.7H109.325V148.1H96.1254V146.775H110.975V151.975H97.8004V154.7H111.5V156.05ZM102.45 136.525H93.5004V135.225H104.375C103.9 140.925 98.3254 144.6 93.0754 145.85L92.1504 144.65C97.3254 143.55 101.625 140.325 102.45 136.525ZM111 145.6H109.35V142.875H104.325V141.575H109.35V138.75H104.875V137.425H109.35V134.075H111V145.6ZM133.723 137.925C133.723 140.225 130.598 141.925 125.523 141.925C120.448 141.925 117.348 140.225 117.348 137.925C117.348 135.625 120.448 133.925 125.523 133.925C130.598 133.925 133.723 135.625 133.723 137.925ZM132.048 137.95C132.048 136.2 129.248 135.225 125.523 135.225C121.823 135.225 118.998 136.2 118.998 137.95C118.998 139.675 121.823 140.65 125.523 140.65C129.248 140.65 132.048 139.675 132.048 137.95ZM133.898 156.05H117.673V150.925H131.673V148.575H117.673V147.25H133.348V152.2H119.348V154.725H133.898V156.05ZM136.448 144.925H114.648V143.6H136.448V144.925ZM163.428 156.05H148.853V147.65H163.428V156.05ZM161.753 154.7V148.975H150.503V154.7H161.753ZM163.478 146.45H161.828V134.075H163.478V138.65H166.878V140.05H163.478V146.45ZM160.728 142.4V143.725C158.178 144.3 154.053 144.575 150.578 144.575H146.403V135.225H157.178V136.55H148.053V143.225H150.578C153.953 143.225 157.978 142.925 160.728 142.4ZM187.376 155.95H170.751V149.3H172.426V154.575H187.376V155.95ZM189.476 147.35H167.676V146H189.476V147.35ZM178.551 143.325C173.476 143.325 170.376 141.375 170.376 138.65C170.376 135.925 173.476 133.95 178.551 133.95C183.626 133.95 186.751 135.925 186.751 138.65C186.751 141.375 183.626 143.325 178.551 143.325ZM178.551 135.275C174.851 135.275 172.026 136.475 172.026 138.65C172.026 140.825 174.851 142.025 178.551 142.025C182.276 142.025 185.076 140.825 185.076 138.65C185.076 136.475 182.276 135.275 178.551 135.275ZM205.83 148.725V150.075C204.655 150.275 202.63 150.4 201.58 150.4H199.18V135.55H205.705V136.9H200.83V149.025H201.63C202.655 149.025 204.63 148.925 205.83 148.725ZM214.03 148.575V149.925C212.555 150.225 210.58 150.4 209.255 150.4H206.705V135.55H213.005V136.9H208.33V149.025H209.18C210.48 149.025 212.455 148.9 214.03 148.575ZM216.805 156.3H215.13V134.075H216.805V142H220.055V143.425H216.805V156.3ZM242.503 146.575H220.703V145.225H242.503V146.575ZM241.303 155.1L240.453 156.35C236.753 155.825 232.903 154.025 231.578 151.55C230.278 154.025 226.403 155.825 222.728 156.35L221.828 155.1C225.978 154.575 230.653 152.4 230.653 149.3V148.425H232.503V149.3C232.503 152.4 237.203 154.575 241.303 155.1ZM231.228 140.8V142.1C229.753 142.375 227.553 142.475 225.878 142.475H223.353V134.825H231.053V136.15H225.003V141.15H225.903C227.478 141.15 229.728 141.025 231.228 140.8ZM240.203 142.475H232.028V134.825H239.728V136.15H233.728V141.15H240.203V142.475ZM262.776 150.75H261.101V134.075H262.776V140.925H266.176V142.325H262.776V150.75ZM263.701 155.95H248.226V149.5H249.876V154.6H263.701V155.95ZM258.201 138.8H244.526V137.5H258.201V138.8ZM254.901 135.475H247.776V134.175H254.901V135.475ZM251.401 147.825C247.951 147.825 245.726 146.1 245.726 143.975C245.726 141.85 247.951 140.125 251.401 140.125C254.826 140.125 257.076 141.85 257.076 143.975C257.076 146.1 254.826 147.825 251.401 147.825ZM251.401 141.4C248.876 141.4 247.401 142.5 247.401 143.975C247.401 145.475 248.876 146.575 251.401 146.575C253.926 146.575 255.401 145.45 255.401 143.975C255.401 142.5 253.926 141.4 251.401 141.4ZM293.805 147.675H292.13V140.775H288.83V146.825H287.18V134.45H288.83V139.35H292.13V134.075H293.805V147.675ZM285.855 156.675C280.755 156.675 277.68 154.8 277.68 152.25C277.68 149.725 280.755 147.85 285.855 147.85C290.955 147.85 294.005 149.725 294.005 152.25C294.005 154.8 290.955 156.675 285.855 156.675ZM285.855 149.2C282.105 149.2 279.38 150.325 279.38 152.25C279.38 154.2 282.105 155.325 285.855 155.325C289.605 155.325 292.33 154.2 292.33 152.25C292.33 150.325 289.605 149.2 285.855 149.2ZM286.055 144.725L285.08 145.925C282.78 144.825 280.805 142.8 280.03 140.75C279.355 143 277.305 145.225 274.93 146.675L273.78 145.625C276.755 143.95 279.13 140.825 279.13 137.05V134.775H280.855V137.075C280.855 140.975 283.43 143.55 286.055 144.725ZM312.929 144.925V146.15C310.629 146.55 307.579 146.725 304.279 146.725H296.904V145.45H303.904V143.9C301.079 143.725 299.204 142.675 299.204 141.25C299.204 139.7 301.454 138.6 304.679 138.6C307.904 138.6 310.154 139.7 310.154 141.25C310.154 142.65 308.304 143.7 305.554 143.875V145.45C308.254 145.425 310.854 145.225 312.929 144.925ZM315.979 156.05H300.629V151.525H313.779V149.6H300.629V148.375H315.454V152.725H302.329V154.8H315.979V156.05ZM315.504 147.225H313.854V134.075H315.504V140.025H319.004V141.4H315.504V147.225ZM308.479 141.25C308.479 140.375 306.954 139.825 304.679 139.825C302.404 139.825 300.879 140.375 300.879 141.25C300.879 142.125 302.404 142.675 304.679 142.675C306.954 142.675 308.479 142.125 308.479 141.25ZM311.304 137.75H298.054V136.475H311.304V137.75ZM308.104 135.225H301.254V133.975H308.104V135.225ZM339.402 156.3H337.727V143.5H332.477C332.352 148.625 329.952 151.6 326.777 151.6C323.527 151.6 321.102 148.475 321.102 143.125C321.102 137.8 323.527 134.675 326.777 134.675C329.802 134.675 332.177 137.425 332.452 142.125H337.727V134.075H339.402V156.3ZM326.777 150.25C329.102 150.25 330.802 147.725 330.802 143.125C330.802 138.55 329.102 136.025 326.777 136.025C324.452 136.025 322.777 138.55 322.777 143.125C322.777 147.725 324.452 150.25 326.777 150.25ZM364.55 153.375H342.7V152.025H352.9V147.3H345.775V140.625H359.5V136.65H345.775V135.3H361.15V141.95H347.45V145.925H361.875V147.3H354.6V152.025H364.55V153.375ZM385.904 140.3C385.904 143.5 383.429 146.05 379.854 146.05C376.229 146.05 373.779 143.5 373.779 140.3C373.779 137.05 376.229 134.475 379.854 134.475C383.429 134.475 385.904 137.05 385.904 140.3ZM379.854 144.7C382.604 144.7 384.229 142.75 384.229 140.275C384.229 137.775 382.604 135.825 379.854 135.825C377.079 135.825 375.479 137.775 375.479 140.275C375.479 142.75 377.079 144.7 379.854 144.7ZM392.379 150.575H390.704V134.075H392.379V150.575ZM393.204 155.95H377.504V148.55H379.179V154.6H393.204V155.95ZM415.327 156.425H413.652V150.025H399.977V148.65H415.327V156.425ZM415.377 147.45H413.702V134.075H415.377V147.45ZM410.702 144.35L409.727 145.6C406.927 144.575 404.402 142.5 403.377 140.275C402.477 142.725 399.952 145 396.827 146.325L395.802 145.2C399.452 143.8 402.452 140.675 402.452 136.875V134.65H404.227V136.875C404.227 140.5 407.302 143.225 410.702 144.35ZM435.675 145.575V146.875C433.35 147.275 430.35 147.45 427 147.45H419.25V146.1H426.675V142.85H421.225V135.1H433.075V136.425H422.9V141.5H433.6V142.85H428.325V146.1C430.975 146.075 433.625 145.875 435.675 145.575ZM438.75 155.95H423.1V149.55H424.775V154.575H438.75V155.95ZM438.25 151.2H436.575V134.075H438.25V151.2ZM460.198 156.3H458.548V134.075H460.198V142H463.948V143.425H460.198V156.3ZM457.473 148.2V149.55C454.673 150.125 450.298 150.4 446.948 150.4H443.498V135.55H454.223V136.9H445.148V149.025H446.948C450.298 149.025 454.473 148.75 457.473 148.2ZM468.946 153.825C468.946 154.625 468.321 155.225 467.521 155.225C466.671 155.225 466.046 154.625 466.046 153.825C466.046 153.075 466.671 152.425 467.521 152.425C468.321 152.425 468.946 153.075 468.946 153.825Z" fill="black"/>
</svg>
