<svg width="941" height="143" viewBox="0 0 941 143" fill="none" xmlns="http://www.w3.org/2000/svg">
<rect x="0.5" y="0.5" width="940" height="142" fill="white"/>
<rect x="0.5" y="0.5" width="940" height="142" stroke="black"/>
<path d="M30.85 31.175V26.375C30.85 26.025 30.825 25.55 30.8 24.9C30.775 24.25 30.75 23.775 30.75 23.45C30.75 22.925 30.825 22.55 30.975 22.3C31.125 22.075 31.425 21.95 31.825 21.925C32.95 21.875 33.9 22.125 34.7 22.625C35.175 22.95 35.4 23.45 35.35 24.1C35.25 25 35.175 26.575 35.125 28.825C35.1 29.325 35.05 30.85 34.975 33.4C34.875 35.95 34.8 37.9 34.75 39.25C34.75 39.575 34.6 40.775 34.35 42.85C34.3 43.15 34.225 43.4 34.1 43.55C33.95 43.7 33.775 43.775 33.525 43.725C33.4 43.725 33.225 43.75 33.025 43.8C32.8 43.85 32.65 43.85 32.575 43.85C31.725 43.9 31.1 43.725 30.75 43.275C30.4 42.825 30.2 42.05 30.2 40.925C30.2 40.225 30.225 38.8 30.325 36.625C30.325 36.375 30.275 36.175 30.2 36.075C30.125 35.975 30 35.95 29.8 35.975H29.75H29.7C29.075 35.975 28.625 35.75 28.375 35.35C28.125 34.95 28.05 34.35 28.15 33.5C28.2 32.9 28.3 32.425 28.45 32.1C28.6 31.775 28.825 31.55 29.125 31.45C29.225 31.425 29.8 31.325 30.85 31.175ZM39.675 26.575C39.375 31.1 39.2 33.55 39.175 33.95C39.1 34.825 39 36.175 38.85 38C38.7 39.85 38.575 41.25 38.5 42.2C38.45 42.975 38.15 43.6 37.6 44.075C37.05 44.575 36.525 44.675 35.975 44.4C35.775 44.325 35.65 44.075 35.575 43.65C35.425 42.8 35.35 41.9 35.35 41C35.35 40.525 35.375 40.025 35.425 39.525C35.475 39.225 35.475 38.65 35.475 37.8C35.45 36.95 35.45 36.375 35.475 36.075C35.475 35.425 35.55 34.3 35.65 32.675C35.75 31.05 35.8 29.8 35.85 28.9C35.85 28.5 35.85 27.85 35.8 26.975C35.75 26.1 35.725 25.45 35.75 25C35.75 24.6 35.925 23.8 36.275 22.55C36.3 22.45 36.45 22.375 36.75 22.325C37.65 22.225 38.225 22.2 38.525 22.225C38.625 22.25 38.75 22.325 38.9 22.475C39.025 22.625 39.1 22.775 39.15 22.925C39.2 23.3 39.375 24.525 39.675 26.575ZM18.4 24.85L21.975 25.125C22.95 25.225 23.725 25.3 24.275 25.35C24.55 25.4 24.8 25.6 25.05 25.95C25.3 26.3 25.4 26.675 25.35 27.05C25.3 27.475 25.125 28.275 24.825 29.475C24.75 29.725 24.65 30.075 24.5 30.575C24.35 31.075 24.225 31.475 24.175 31.725C24.075 32.125 24.05 32.425 24.125 32.675C24.175 32.875 24.375 33.025 24.675 33.1C25.075 33.225 25.975 33.45 27.325 33.775C27.75 33.875 27.9 34.175 27.75 34.675C27.7 34.825 27.6 35.25 27.45 35.9C27.275 36.55 27.125 37.05 27.025 37.375C26.675 38.275 26.175 38.675 25.5 38.625C25.425 38.625 25.375 38.65 25.35 38.65C25.175 38.75 25 38.8 24.825 38.8C24.65 38.8 24.525 38.8 24.425 38.775C24.325 38.75 24.175 38.675 24.025 38.525C23.85 38.375 23.75 38.275 23.7 38.225C23.65 38.175 23.525 38.025 23.375 37.8C22.925 37.3 22.65 37 22.6 36.9C22.45 36.75 22.275 36.675 22.075 36.675C21.875 36.675 21.675 36.775 21.525 36.95C21.175 37.325 20.9 37.725 20.65 38.15C20.575 38.275 20.2 38.95 19.525 40.175C19.3 40.625 18.95 40.9 18.45 41.05C17.95 41.2 17.45 41.2 16.975 41.025C16.475 40.875 16.125 40.575 15.925 40.15C15.6 39.55 15.475 38.725 15.575 37.675C15.6 37.375 15.775 37.075 16.1 36.825C16.45 36.525 16.95 36.125 17.65 35.6C18.35 35.075 18.85 34.675 19.175 34.4C19.675 34 20.075 33.6 20.4 33.2C20.7 32.8 20.925 32.3 21.05 31.725C21.15 31.275 21.075 30.925 20.875 30.65C20.65 30.4 20.325 30.275 19.925 30.3C18.55 30.425 17.475 30.1 16.725 29.35C16.425 29.1 16.275 28.775 16.275 28.4C16.25 28.05 16.275 27.275 16.35 26.1C16.35 26.025 16.375 25.925 16.45 25.825C16.525 25.725 16.575 25.625 16.6 25.55C16.625 25.475 16.6 25.35 16.55 25.2C16.575 25.175 16.625 25.125 16.7 25.075C16.75 25.025 16.825 25 16.875 24.975C16.925 24.95 16.975 24.925 17.025 24.925C17.125 24.925 17.575 24.9 18.4 24.9V24.85ZM55.05 40.825C55 41.1 54.925 41.525 54.825 42.075C54.725 42.625 54.675 42.975 54.65 43.1C54.575 43.475 54.35 43.7 54 43.75C53.625 43.825 52.775 43.875 51.425 43.9C51.075 43.925 50.875 43.725 50.825 43.3V42.725V42.25C50.825 42.15 50.825 42.025 50.825 41.9C50.825 41.775 50.825 41.675 50.825 41.6C50.8 41.55 50.8 41.475 50.8 41.425C50.8 41.375 50.775 41.325 50.725 41.275C50.675 41.25 50.65 41.225 50.625 41.2C50.6 41.175 50.55 41.15 50.45 41.125C50.35 41.1 50.275 41.075 50.225 41.075C50.175 41.075 50.075 41.05 49.925 41C49.625 40.95 48.4 40.9 46.25 40.825C44.1 40.775 42.8 40.725 42.35 40.725C42.05 40.725 41.825 40.55 41.675 40.2C41.35 39.5 41.325 38.625 41.6 37.6C41.625 37.425 41.85 37.3 42.275 37.2C42.325 37.175 42.825 37.175 43.775 37.175C44.725 37.175 45.225 37.175 45.275 37.175C45.8 37.175 47.35 37.125 49.9 37.075C52.45 37.025 53.925 36.975 54.375 36.95C54.875 36.925 56.275 36.9 58.55 36.875C60.825 36.875 62.1 36.85 62.375 36.85C62.725 36.85 63.025 37.075 63.25 37.575C63.6 38.325 63.675 39.05 63.475 39.775C63.4 40.025 63.2 40.225 62.875 40.325C62.5 40.475 61.2 40.6 58.975 40.65C56.725 40.725 55.575 40.75 55.475 40.75L55.05 40.825ZM53.9 26.25C51.025 26.25 49.45 26.25 49.2 26.225C48.675 26.225 47.625 26.125 46.05 25.95C45.925 25.95 45.75 25.9 45.5 25.825C45.25 25.775 45.075 25.725 44.95 25.725C44.45 25.675 44.175 25.4 44.175 24.9V22.6C44.325 22.575 44.525 22.525 44.825 22.475C45.1 22.425 45.35 22.375 45.575 22.325C45.8 22.3 46.025 22.275 46.225 22.275C47.325 22.275 48.9 22.3 50.9 22.375C51.25 22.375 51.775 22.425 52.45 22.475C53.125 22.525 53.625 22.575 53.925 22.575C54.175 22.6 54.7 22.625 55.5 22.625C56.3 22.65 56.925 22.675 57.375 22.7C57.825 22.75 58.525 22.875 59.475 23.125C59.775 23.225 59.975 23.35 60.05 23.55C60.125 23.75 60.15 24.025 60.1 24.35C59.95 25.375 59.825 26.075 59.725 26.425C59.575 26.875 59.3 27.3 58.9 27.65C58.75 27.8 58.575 27.925 58.425 28.025C58.25 28.15 58.05 28.275 57.8 28.425C57.55 28.575 57.375 28.7 57.275 28.75C59.175 30.2 60.275 31 60.575 31.175C60.725 31.3 60.825 31.4 60.85 31.5C60.875 31.6 60.85 31.75 60.75 31.9C60.625 32.1 60.475 32.375 60.3 32.725C60.1 33.075 59.95 33.35 59.85 33.5C59.65 33.825 59.325 34.05 58.825 34.175C58.325 34.3 57.85 34.3 57.425 34.175C57.125 34.1 56.85 34 56.55 33.85C56.25 33.7 56 33.575 55.825 33.45C55.625 33.325 55.375 33.15 55.05 32.925L54.35 32.45C53.925 32.2 53.475 31.95 53 31.75C52.55 31.6 52 31.7 51.35 32.05C50.425 32.55 49.325 33.2 48.075 34C47.925 34.1 47.775 34.15 47.65 34.2C47.5 34.25 47.35 34.25 47.2 34.25C47.025 34.25 46.9 34.225 46.8 34.225C46.7 34.225 46.55 34.2 46.35 34.15C46.125 34.1 46 34.075 45.95 34.05C45.3 33.925 44.8 33.7 44.5 33.35C44.2 33 44.075 32.625 44.125 32.2C44.175 31.8 44.4 31.375 44.75 30.925C44.85 30.825 44.975 30.7 45.15 30.6C45.325 30.5 45.5 30.4 45.65 30.35C45.8 30.3 46 30.25 46.25 30.15C46.5 30.05 46.675 29.975 46.775 29.925C47.125 29.8 47.65 29.6 48.375 29.35C49.075 29.1 49.625 28.9 49.975 28.75C50.325 28.6 50.85 28.375 51.525 28.075C52.2 27.775 52.6 27.575 52.75 27.525C53 27.425 53.225 27.25 53.4 27.05C53.55 26.85 53.725 26.575 53.9 26.25ZM88.55 40.725C88.525 40.925 88.525 41.2 88.575 41.5C88.625 41.825 88.625 42.125 88.625 42.4C88.625 42.675 88.55 42.925 88.45 43.15C88.25 43.525 88.05 43.75 87.8 43.8C87.5 43.875 87.15 43.95 86.7 44C86.25 44.075 85.85 44.125 85.525 44.15C85.2 44.175 85.05 44.175 85.05 44.15H71.85C71.4 44.175 70.725 44.2 69.825 44.225C68.925 44.25 68.25 44.25 67.8 44.25C67.3 44.275 66.825 44.175 66.375 43.95L66.05 42.025L66.375 41.075C66.475 40.775 66.675 40.625 66.975 40.6L68.975 40.4C70.975 40.4 73.125 40.35 75.4 40.3C75.2 40.1 75.1 39.875 75.1 39.675C75.05 39.375 75.025 38.95 75.025 38.4C75 37.85 74.975 37.45 74.975 37.25C74.975 37.05 75 36.9 75.075 36.8C75.125 36.7 75.275 36.65 75.5 36.65C75.75 36.675 76.225 36.675 76.875 36.675C77.525 36.675 77.975 36.65 78.25 36.65C78.775 36.675 79.125 36.8 79.325 37.05C79.525 37.3 79.675 37.775 79.8 38.475C79.875 39 79.75 39.575 79.425 40.225C82.125 40.175 83.9 40.125 84.7 40.075C85.675 40.05 86.45 40.05 87 40.1C87.15 40.1 87.6 40.25 88.35 40.5C88.375 40.525 88.425 40.55 88.475 40.6C88.525 40.65 88.55 40.7 88.55 40.725ZM72.825 30.675C75.7 30.525 77.325 30.45 77.7 30.425C78 30.4 78.475 30.375 79.125 30.325C79.775 30.275 80.25 30.25 80.6 30.225C82.35 30.125 83.425 30.1 83.8 30.1C84.375 30.125 85 30.25 85.65 30.475C86.2 30.675 86.55 30.875 86.65 31.025C86.75 31.2 86.775 31.55 86.675 32.1C86.6 32.5 86.525 32.875 86.425 33.275C86.325 33.675 86.2 34.1 86.05 34.6C85.9 35.1 85.8 35.45 85.75 35.65C85.2 35.65 84.425 35.675 83.375 35.675C82.325 35.675 81.425 35.675 80.675 35.675C79.925 35.675 79.2 35.65 78.5 35.625C77.75 35.6 76.95 35.55 76.125 35.5C75.275 35.45 74.35 35.375 73.3 35.275C72.25 35.175 71.475 35.125 70.95 35.075C70.75 35.075 70.5 35.05 70.2 35.05C69.875 35.05 69.7 35.05 69.65 35.025C69 35.025 68.6 34.9 68.45 34.65C68.275 34.4 68.2 33.975 68.225 33.325C68.25 32.95 68.325 32.375 68.45 31.625L68.675 30.35C68.7 30.075 68.75 29.675 68.825 29.125C68.875 28.575 68.925 28.175 68.975 27.925C69.2 26.075 69.35 24.975 69.45 24.625C69.7 23.375 70.675 22.85 72.325 23C73.15 23.15 74.075 23.2 75.075 23.175C76.075 23.175 76.975 23.025 77.825 22.775C77.975 22.725 78.15 22.675 78.35 22.65C78.55 22.65 78.75 22.65 79 22.65C79.225 22.675 79.4 22.7 79.55 22.7C79.7 22.725 79.925 22.75 80.225 22.8C80.525 22.85 80.7 22.875 80.8 22.875C81.4 22.975 82.25 23.125 83.35 23.325C84.45 23.525 85.25 23.675 85.75 23.75C86.125 23.825 86.4 23.95 86.55 24.1C86.7 24.25 86.775 24.525 86.725 24.875C86.675 25.075 86.625 25.45 86.575 25.975C86.5 26.525 86.45 26.925 86.4 27.2C86.225 28.025 85.65 28.425 84.675 28.4C84.125 28.4 83.35 28.4 82.35 28.35C81.325 28.3 80.6 28.275 80.15 28.275C78.625 28.25 77.3 28.25 76.15 28.3C75.9 28.3 75.5 28.35 75 28.425C74.5 28.525 74.125 28.55 73.875 28.55C73.55 28.55 73.325 28.625 73.175 28.725C73.025 28.825 72.95 29.025 72.95 29.3C72.95 29.35 72.9 29.825 72.825 30.675ZM119.01 43.8C118.21 43.8 117.66 43.675 117.36 43.375C117.06 43.075 116.91 42.525 116.86 41.7C116.735 39.375 116.685 37.775 116.685 36.9C116.685 35.675 116.76 31.8 116.935 25.3C116.935 25.125 116.96 24.925 117.01 24.725C117.035 24.525 117.06 24.35 117.11 24.2C117.135 24.05 117.185 23.875 117.26 23.625C117.31 23.375 117.36 23.2 117.41 23.05C117.46 22.85 117.56 22.7 117.735 22.65C117.785 22.65 117.96 22.6 118.235 22.525C118.51 22.45 118.71 22.4 118.81 22.375C118.91 22.35 119.06 22.325 119.31 22.275C119.535 22.225 119.71 22.225 119.86 22.225C120.01 22.225 120.185 22.25 120.385 22.3C120.585 22.35 120.76 22.4 120.96 22.475C121.435 22.725 121.71 23.175 121.76 23.825C121.76 24.125 121.785 25.125 121.81 26.85C121.81 28.575 121.86 29.65 121.91 30.075C121.96 30.375 122.135 30.7 122.435 31.025C122.585 31.2 122.735 31.375 122.91 31.55C123.085 31.75 123.285 31.95 123.51 32.15C123.71 32.375 123.885 32.55 124.035 32.65C124.235 32.85 124.36 33.075 124.46 33.3C124.56 33.55 124.585 33.825 124.56 34.125C124.535 34.425 124.51 34.65 124.485 34.8C124.435 34.95 124.385 35.225 124.285 35.575C124.135 36.175 123.61 36.5 122.71 36.5C122.235 36.5 121.935 36.575 121.835 36.7C121.71 36.85 121.66 37.175 121.685 37.725C121.685 38.1 121.685 38.775 121.71 39.725C121.735 40.675 121.76 41.325 121.76 41.65C121.76 42.325 121.585 42.775 121.185 43C120.185 43.55 119.46 43.825 119.01 43.8ZM104.835 26.275C105.96 25.975 107.185 25.925 108.535 26.15C108.785 26.2 109.01 26.45 109.21 26.875C109.41 27.3 109.485 27.7 109.435 28.05C109.41 28.2 109.335 29.2 109.235 31C109.235 31.15 109.26 31.25 109.335 31.3C109.385 31.35 109.51 31.375 109.66 31.375C111.46 31.625 112.86 32 113.86 32.5C114.235 32.7 114.46 32.85 114.51 32.95C114.56 33.05 114.56 33.325 114.485 33.725C114.385 34.075 114.335 34.575 114.31 35.175C114.26 35.8 114.185 36.325 114.085 36.725C113.985 37.05 113.86 37.25 113.735 37.325C113.61 37.425 113.485 37.45 113.36 37.4C113.235 37.35 113.035 37.3 112.76 37.2C112.485 37.125 112.21 37.075 111.96 37.075C111.91 37.075 111.835 37.075 111.785 37.025L111.685 36.95C110.185 36.35 109.21 35.775 108.76 35.25C108.685 35.175 108.61 35.1 108.51 35.025C108.41 34.95 108.285 34.85 108.135 34.75C107.985 34.65 107.885 34.575 107.81 34.525C107.11 35.625 106.76 36.2 106.71 36.275C105.86 37.5 105.26 38.35 104.885 38.825C104.81 38.9 104.71 39 104.61 39.15C104.51 39.3 104.41 39.45 104.31 39.575C104.21 39.7 104.11 39.85 103.985 40.025C103.835 40.2 103.71 40.325 103.61 40.425C103.51 40.525 103.385 40.625 103.26 40.725C103.11 40.825 103.01 40.875 102.91 40.875C102.81 40.875 102.685 40.85 102.585 40.8C101.485 40.1 100.81 38.95 100.56 37.35C100.51 37.1 100.61 36.8 100.86 36.45C101.385 35.7 102.26 34.525 103.46 32.9C103.66 32.625 103.885 32.375 104.135 32.125C104.485 31.775 104.685 31.275 104.735 30.6C104.76 30.325 104.81 29.85 104.885 29.15C104.935 28.45 104.985 27.925 105.035 27.525C105.035 27.425 105.01 27.325 105.01 27.225C104.985 27.125 104.96 27.025 104.91 26.9C104.86 26.775 104.835 26.675 104.835 26.6V26.275ZM140.06 40.825C140.01 41.1 139.935 41.525 139.835 42.075C139.735 42.625 139.685 42.975 139.66 43.1C139.585 43.475 139.36 43.7 139.01 43.75C138.635 43.825 137.785 43.875 136.435 43.9C136.085 43.925 135.885 43.725 135.835 43.3V42.725V42.25C135.835 42.15 135.835 42.025 135.835 41.9C135.835 41.775 135.835 41.675 135.835 41.6C135.81 41.55 135.81 41.475 135.81 41.425C135.81 41.375 135.785 41.325 135.735 41.275C135.685 41.25 135.66 41.225 135.635 41.2C135.61 41.175 135.56 41.15 135.46 41.125C135.36 41.1 135.285 41.075 135.235 41.075C135.185 41.075 135.085 41.05 134.935 41C134.635 40.95 133.41 40.9 131.26 40.825C129.11 40.775 127.81 40.725 127.36 40.725C127.06 40.725 126.835 40.55 126.685 40.2C126.36 39.5 126.335 38.625 126.61 37.6C126.635 37.425 126.86 37.3 127.285 37.2C127.335 37.175 127.835 37.175 128.785 37.175C129.735 37.175 130.235 37.175 130.285 37.175C130.81 37.175 132.36 37.125 134.91 37.075C137.46 37.025 138.935 36.975 139.385 36.95C139.885 36.925 141.285 36.9 143.56 36.875C145.835 36.875 147.11 36.85 147.385 36.85C147.735 36.85 148.035 37.075 148.26 37.575C148.61 38.325 148.685 39.05 148.485 39.775C148.41 40.025 148.21 40.225 147.885 40.325C147.51 40.475 146.21 40.6 143.985 40.65C141.735 40.725 140.585 40.75 140.485 40.75L140.06 40.825ZM132.235 26.475C132.235 26.725 132.185 26.975 132.135 27.275C132.085 27.575 132.06 27.825 132.06 28.075C135.51 28.325 137.41 28.475 137.76 28.5C139.035 28.575 140.185 28.6 141.235 28.55C141.485 28.55 141.81 28.525 142.235 28.475C142.66 28.425 143.035 28.4 143.335 28.35L143.785 28.275L144.685 28.25C144.785 28.325 144.885 28.425 145.035 28.55C145.185 28.675 145.36 28.9 145.585 29.2C145.785 29.525 145.885 29.8 145.835 30.025C145.685 30.525 145.51 30.85 145.31 30.975C145.11 31.1 144.71 31.15 144.11 31.1C143.86 31.075 143.46 31.075 142.885 31.1C142.285 31.125 141.885 31.125 141.66 31.1C140.81 31.1 139.61 31.05 138.06 30.975C136.51 30.925 135.535 30.875 135.11 30.85C134.535 30.825 134.16 30.825 133.985 30.875C133.835 30.925 133.71 30.975 133.635 31.075C133.535 31.175 133.485 31.275 133.485 31.35C133.485 31.425 133.485 31.55 133.51 31.725C133.51 31.9 133.535 32.025 133.535 32.1C137.11 32.275 139.035 32.35 139.335 32.35L144.385 32.425L145.51 32.8C145.485 32.95 145.46 33.1 145.41 33.3C145.36 33.5 145.235 33.75 145.085 34.1C144.91 34.45 144.735 34.65 144.56 34.675C143.91 34.85 143.185 34.975 142.385 35.05C141.585 35.15 140.935 35.2 140.485 35.2C140.01 35.225 139.235 35.225 138.185 35.225C137.135 35.225 136.46 35.225 136.185 35.225H135.91C133.635 35.225 131.41 34.975 129.235 34.425C129.01 34.375 128.86 34.25 128.81 34.05C128.71 33.725 128.635 33.375 128.635 33.025C128.61 29.425 128.61 27.1 128.66 26.025C128.66 25.775 128.71 25.375 128.81 24.775C128.91 24.2 129.01 23.675 129.11 23.2L129.235 22.525L130.735 22.275C131.085 22.375 131.51 22.475 132.06 22.575C132.585 22.675 133.435 22.825 134.61 22.975C135.76 23.15 136.635 23.2 137.21 23.15C138.76 23.075 139.76 23.025 140.235 22.975C140.31 22.975 140.435 23 140.585 23.025C140.735 23.05 140.86 23.05 140.96 23.05C141.06 23.05 141.16 23.025 141.26 23C141.36 22.975 141.46 22.95 141.585 22.9C141.71 22.85 141.81 22.825 141.91 22.8C142.26 22.725 142.46 22.675 142.535 22.675C142.76 22.7 143.235 22.75 143.935 22.825C144.635 22.925 145.185 22.975 145.585 23C145.835 23.025 146.035 23.1 146.185 23.225C146.335 23.375 146.41 23.55 146.41 23.75C146.385 24.6 146.285 25.55 146.135 26.575C146.11 26.675 146.035 26.75 145.885 26.85C145.735 26.95 145.585 27 145.46 27C145.185 27.05 144.76 27.075 144.185 27.05C142.085 26.975 140.01 26.875 137.96 26.75C137.285 26.725 136.335 26.675 135.085 26.6C133.835 26.525 133.085 26.475 132.835 26.45C132.785 26.45 132.585 26.475 132.235 26.475ZM167.36 22.3C168.31 22.25 168.835 22.225 168.885 22.225C169.435 22.25 169.96 22.3 170.51 22.375C171.06 22.45 171.535 22.5 171.96 22.525C172.435 22.575 172.685 22.85 172.71 23.325C172.71 23.925 172.76 24.85 172.835 26.075C172.91 27.325 172.96 28.25 172.985 28.875C173.01 29.35 173.01 30.2 173.01 31.4C173.01 32.625 173.01 33.475 173.01 33.925C173.01 34.6 173.01 35.975 173.01 38.075C173.01 40.175 173.01 41.575 173.01 42.25V42.3C173.01 42.65 172.96 43 172.86 43.3C172.635 43.925 172.235 44.225 171.66 44.2C171.385 44.2 171.06 44.225 170.71 44.225C170.36 44.225 170.06 44.225 169.81 44.175C169.61 44.175 169.385 44.1 169.185 43.975C168.96 43.875 168.81 43.725 168.76 43.575C168.26 42.375 168.01 41.45 167.985 40.8C167.91 39.35 167.86 36.875 167.835 33.425C167.81 29.975 167.785 27.625 167.735 26.35C167.735 25.95 167.71 25.55 167.66 25.1C167.61 24.65 167.56 24.15 167.51 23.575L167.36 22.3ZM157.235 35.575C157.235 35.625 157.21 35.825 157.21 36.175C157.21 36.525 157.185 36.775 157.185 36.9C158.785 36.725 160.61 36.775 162.635 37.075C162.885 37.125 163.085 37.25 163.21 37.425C163.31 37.625 163.36 37.85 163.335 38.15C163.31 38.45 163.26 38.725 163.21 38.95C163.16 39.2 163.06 39.5 162.96 39.85C162.835 40.2 162.76 40.45 162.76 40.55C162.61 41.025 162.235 41.325 161.685 41.475C161.535 41.525 161.16 41.625 160.535 41.8C159.91 41.975 159.485 42.075 159.285 42.125C159.085 42.175 158.71 42.225 158.185 42.325C157.635 42.425 157.21 42.5 156.91 42.5C156.61 42.5 156.235 42.5 155.81 42.45C155.36 42.4 154.96 42.325 154.585 42.2C154.385 42.15 154.035 42 153.485 41.8C152.935 41.6 152.535 41.45 152.235 41.3C151.735 41.1 151.485 40.625 151.535 39.9C151.535 39.2 151.635 38.275 151.81 37.125C151.96 35.975 152.06 35.05 152.085 34.325C152.035 32.725 152.485 31.9 153.46 31.9C153.885 31.9 154.485 31.925 155.235 32C155.985 32.075 156.66 32.1 157.285 32.075C157.885 32.05 158.46 31.925 159.01 31.7C159.01 31.7 159.01 31.5 158.96 31.125C158.91 30.775 158.86 30.4 158.81 30C158.76 29.6 158.735 29.4 158.735 29.375C158.735 29.35 158.71 29.3 158.66 29.25C158.61 29.2 158.56 29.15 158.535 29.15C157.285 28.9 156.485 28.775 156.185 28.75C155.985 28.75 155.685 28.75 155.335 28.8C154.985 28.85 154.735 28.875 154.585 28.875C153.86 28.875 152.935 28.85 151.81 28.8C151.71 28.8 151.61 28.775 151.56 28.725C151.485 28.675 151.435 28.625 151.385 28.525C151.335 28.425 151.31 28.35 151.31 28.275C151.31 28.225 151.285 28.125 151.285 28C151.26 27.875 151.26 27.775 151.26 27.725C151.21 27.55 151.185 27.375 151.185 27.225C151.185 27.075 151.185 26.9 151.235 26.75C151.26 26.6 151.285 26.5 151.31 26.4C151.31 26.3 151.36 26.175 151.435 26C151.485 25.85 151.535 25.725 151.585 25.65C151.61 25.6 151.685 25.45 151.81 25.25C151.91 25.05 151.985 24.925 152.035 24.825C152.085 24.75 152.31 24.675 152.735 24.6C154.535 24.3 155.635 24.15 156.035 24.1C156.31 24.1 156.71 24.125 157.235 24.2C157.735 24.275 158.085 24.3 158.285 24.3C158.535 24.325 158.885 24.325 159.385 24.3C159.885 24.275 160.26 24.275 160.51 24.275C161.035 24.3 161.56 24.425 162.11 24.625C162.635 24.825 163.11 25.15 163.51 25.6C163.91 26.05 164.085 26.55 164.085 27.125C164.06 27.625 164.085 28.55 164.16 29.85C164.21 31.15 164.235 32.075 164.235 32.575C164.235 32.8 164.21 33 164.16 33.15C164.11 33.325 164.085 33.45 164.06 33.525C164.01 33.6 163.96 33.725 163.86 33.9C163.76 34.1 163.66 34.25 163.61 34.35C163.51 34.55 163.31 34.725 163.035 34.825C161.535 35.425 160.31 35.625 159.36 35.425C159.035 35.4 158.81 35.4 158.66 35.4C158.51 35.4 158.285 35.45 157.96 35.5C157.61 35.55 157.385 35.575 157.235 35.575Z" fill="#FF961E"/>
<path d="M199.935 34.8H178.135V33.45H199.935V34.8ZM197.41 30.075H181.185V22.15H182.86V28.725H197.41V30.075ZM197.835 43.95H181.21V37H182.885V42.575H197.835V43.95ZM227.239 38.75H225.564V22.075H227.239V28.925H230.639V30.325H227.239V38.75ZM228.164 43.95H212.689V37.5H214.339V42.6H228.164V43.95ZM222.664 26.8H208.989V25.5H222.664V26.8ZM219.364 23.475H212.239V22.175H219.364V23.475ZM215.864 35.825C212.414 35.825 210.189 34.1 210.189 31.975C210.189 29.85 212.414 28.125 215.864 28.125C219.289 28.125 221.539 29.85 221.539 31.975C221.539 34.1 219.289 35.825 215.864 35.825ZM215.864 29.4C213.339 29.4 211.864 30.5 211.864 31.975C211.864 33.475 213.339 34.575 215.864 34.575C218.389 34.575 219.864 33.45 219.864 31.975C219.864 30.5 218.389 29.4 215.864 29.4ZM249.962 38.55H248.312V22.075H249.962V27.925H253.362V29.3H249.962V38.55ZM250.887 43.95H235.412V36.8H237.087V42.6H250.887V43.95ZM243.287 34.025H232.737V22.85H234.412V27.05H241.612V22.85H243.287V34.025ZM241.612 32.675V28.375H234.412V32.675H241.612ZM275.985 41.225H254.135V39.875H264.335V34H257.21V23.475H273.185V24.825H258.885V32.65H273.435V34H266.035V39.875H275.985V41.225ZM293.258 37.4V38.7C290.933 39.2 288.108 39.35 284.808 39.35H277.333V38H284.108V33.6C280.883 33.3 278.633 30.925 278.633 28.15C278.633 25.175 281.233 22.7 284.808 22.7C288.383 22.7 290.958 25.175 290.958 28.15C290.958 30.85 288.833 33.175 285.758 33.575V38C288.533 37.975 291.158 37.8 293.258 37.4ZM289.308 28.15C289.308 25.9 287.608 24.05 284.808 24.05C281.983 24.05 280.333 25.9 280.333 28.15C280.333 30.4 281.983 32.275 284.808 32.275C287.608 32.275 289.308 30.4 289.308 28.15ZM295.883 44.3H294.208V22.075H295.883V31.1H299.433V32.525H295.883V44.3ZM325.888 31.175H310.237V22.275H311.913V25.25H324.213V22.275H325.888V31.175ZM324.213 29.825V26.55H311.913V29.825H324.213ZM328.988 35.225H319.187V40.125H317.488V35.225H307.188V33.875H328.988V35.225ZM326.888 43.95H310.263V37.3H311.938V42.575H326.888V43.95ZM349.336 44.3H347.661V22.075H349.336V44.3ZM346.486 36.7V38.075C343.686 38.625 339.311 38.9 335.936 38.9H331.986V30.375H340.961V24.775H331.986V23.425H342.661V31.7H333.636V37.525H335.936C339.311 37.525 343.486 37.275 346.486 36.7ZM370.109 33.575V34.875C367.784 35.275 364.784 35.45 361.434 35.45H353.684V34.1H361.109V30.85H355.659V23.1H367.509V24.425H357.334V29.5H368.034V30.85H362.759V34.1C365.409 34.075 368.059 33.875 370.109 33.575ZM373.184 43.95H357.534V37.55H359.209V42.575H373.184V43.95ZM372.684 39.2H371.009V22.075H372.684V39.2ZM398.613 37.975L397.588 39.175C394.738 37.55 391.888 34.7 390.938 31.95C390.063 35.025 387.438 37.9 384.213 39.825L383.088 38.725C386.738 36.675 389.988 32.85 389.988 27.675V24.9H384.388V23.55H397.213V24.9H391.763V27.675C391.763 32.75 395.413 36.325 398.613 37.975ZM402.888 44.3H401.213V22.075H402.888V44.3ZM425.361 44.3H423.686V22.075H425.361V44.3ZM422.511 36.7V38.075C419.711 38.625 415.336 38.9 411.961 38.9H408.011V30.375H416.986V24.775H408.011V23.425H418.686V31.7H409.661V37.525H411.961C415.336 37.525 419.511 37.275 422.511 36.7ZM444.484 32.85L443.484 34.05C440.684 33.025 438.184 30.975 437.159 28.8C436.259 31.225 433.659 33.525 430.609 34.8L429.559 33.65C433.134 32.35 436.234 29.175 436.234 25.4V24.55H430.784V23.225H443.284V24.55H438.009V25.4C438.009 29.025 441.159 31.775 444.484 32.85ZM448.784 44.425H447.109V38.025H433.434V36.65H448.784V44.425ZM448.834 35.45H447.159V28.625H442.134V27.225H447.159V22.075H448.834V35.45ZM475.438 35V36.25C473.138 36.675 470.088 36.825 466.788 36.825H459.413V35.525H466.413V33.475C463.588 33.3 461.713 32.075 461.713 30.375C461.713 28.55 463.963 27.275 467.188 27.275C470.413 27.275 472.663 28.55 472.663 30.375C472.663 32.05 470.813 33.25 468.063 33.475V35.525C470.763 35.5 473.363 35.3 475.438 35ZM478.013 39.35H476.363V22.075H478.013V29.55H481.513V30.95H478.013V39.35ZM478.638 43.95H463.188V38.275H464.888V42.575H478.638V43.95ZM470.988 30.375C470.988 29.25 469.463 28.55 467.188 28.55C464.913 28.55 463.388 29.25 463.388 30.375C463.388 31.525 464.913 32.225 467.188 32.225C469.463 32.225 470.988 31.525 470.988 30.375ZM473.813 26.175H460.563V24.875H473.813V26.175ZM470.613 23.375H463.763V22.075H470.613V23.375ZM493.936 44.675C488.886 44.675 485.836 42.75 485.836 40.125C485.836 37.525 488.886 35.6 493.936 35.6C498.961 35.6 502.011 37.525 502.011 40.125C502.011 42.75 498.961 44.675 493.936 44.675ZM493.936 36.95C490.236 36.95 487.511 38.125 487.511 40.15C487.511 42.15 490.236 43.325 493.936 43.325C497.636 43.325 500.336 42.15 500.336 40.15C500.336 38.125 497.636 36.95 493.936 36.95ZM483.686 34.95L482.736 33.75C488.261 32.275 492.361 28.675 493.061 24.575H484.086V23.225H494.986C494.461 29.45 489.286 33.3 483.686 34.95ZM501.586 35.425H499.936V31.675H494.936V30.325H499.936V27.05H495.461V25.7H499.936V22.075H501.586V35.425ZM523.959 44.3H522.284V22.075H523.959V31.1H527.509V32.525H523.959V44.3ZM521.334 37.4V38.7C519.009 39.2 516.184 39.35 512.884 39.35H505.409V38H510.659V30.15H512.334V38H512.984C516.059 38 519.009 37.825 521.334 37.4ZM517.809 34.725H516.159C516.684 32.2 517.234 27.875 517.184 24.8H506.709V23.45H518.934C518.909 26.9 518.459 31.675 517.809 34.725ZM553.914 44.425H552.239V38.475H537.964V37.125H553.914V44.425ZM557.064 34.55H535.264V33.2H545.439V30.225H538.314V22.8H554.064V24.15H539.989V28.875H554.489V30.225H547.139V33.2H557.064V34.55ZM573.387 37.975L572.362 39.175C569.512 37.55 566.687 34.7 565.737 31.95C564.837 35.025 562.212 37.9 558.987 39.825L557.862 38.725C561.537 36.675 564.787 32.85 564.787 27.675V24.9H559.187V23.55H571.987V24.9H566.562V27.675C566.562 32.75 570.187 36.325 573.387 37.975ZM576.987 44.3H575.312V22.075H576.987V30.675H580.737V32.1H576.987V44.3ZM596.535 32.85L595.535 34.05C592.735 33.025 590.235 30.975 589.21 28.8C588.31 31.225 585.71 33.525 582.66 34.8L581.61 33.65C585.185 32.35 588.285 29.175 588.285 25.4V24.55H582.835V23.225H595.335V24.55H590.06V25.4C590.06 29.025 593.21 31.775 596.535 32.85ZM600.835 44.425H599.16V38.025H585.485V36.65H600.835V44.425ZM600.885 35.45H599.21V28.625H594.185V27.225H599.21V22.075H600.885V35.45ZM630.914 35.2H629.239V31.4H623.214C622.139 32.725 620.464 33.55 618.389 33.55C614.789 33.55 612.364 31.1 612.364 28.025C612.364 24.95 614.789 22.475 618.389 22.475C620.514 22.475 622.214 23.375 623.289 24.725H629.239V22.075H630.914V35.2ZM622.714 28.025C622.714 25.675 621.114 23.825 618.389 23.825C615.639 23.825 614.064 25.675 614.064 28.025C614.064 30.35 615.639 32.2 618.389 32.2C621.114 32.2 622.714 30.35 622.714 28.025ZM630.864 44.425H629.189V37.775H615.514V36.4H630.864V44.425ZM629.239 30.05V26.075H624.039C624.289 26.7 624.389 27.35 624.389 28.025C624.389 28.75 624.289 29.425 624.014 30.05H629.239ZM649.112 37.875L648.087 39.075C645.112 37.45 642.337 34.425 641.437 31.575C640.512 34.725 638.137 37.625 634.737 39.725L633.587 38.675C637.487 36.425 640.487 32.55 640.487 27.25V23.05H642.287V27.25C642.287 32.35 645.612 36.15 649.112 37.875ZM653.012 44.3H651.337V22.075H653.012V30.675H656.762V32.1H653.012V44.3ZM682.966 44.425H681.291V38.475H667.016V37.125H682.966V44.425ZM686.116 34.55H664.316V33.2H674.391V29.575H676.091V33.2H686.116V34.55ZM684.766 29.475L683.841 30.65C680.166 29.9 676.591 27.9 675.191 25.4C673.816 27.9 670.241 29.9 666.591 30.65L665.666 29.475C669.641 28.775 674.316 26.2 674.316 22.925V22.125H676.091V22.925C676.091 26.2 680.766 28.775 684.766 29.475ZM702.864 43.25H701.239V31.825H698.214C698.064 36.725 695.989 39.575 693.164 39.575C690.239 39.575 688.114 36.475 688.114 31.2C688.114 25.95 690.239 22.85 693.164 22.85C695.964 22.85 698.039 25.65 698.214 30.425H701.239V22.45H702.864V43.25ZM693.164 38.225C695.264 38.225 696.614 35.45 696.614 31.2C696.614 26.975 695.264 24.2 693.164 24.2C691.114 24.2 689.739 26.975 689.739 31.2C689.739 35.45 691.114 38.225 693.164 38.225ZM707.389 44.3H705.714V22.075H707.389V44.3ZM729.988 44.3H728.313V30.525H722.763V29.125H728.313V22.075H729.988V44.3ZM725.388 37.875L724.387 39.075C721.413 37.45 718.613 34.425 717.738 31.575C716.813 34.725 714.438 37.625 711.013 39.725L709.888 38.675C713.738 36.425 716.788 32.55 716.788 27.25V23.05H718.563V27.25C718.563 32.35 721.913 36.15 725.388 37.875ZM752.292 44.675C747.267 44.675 744.192 43 744.192 40.725C744.192 38.45 747.267 36.775 752.292 36.775C757.317 36.775 760.392 38.45 760.392 40.725C760.392 43 757.317 44.675 752.292 44.675ZM752.292 38.05C748.592 38.05 745.892 39.025 745.892 40.725C745.892 42.425 748.592 43.4 752.292 43.4C755.967 43.4 758.692 42.425 758.692 40.725C758.692 39.025 755.967 38.05 752.292 38.05ZM754.617 26.525H741.167V25.225H754.617V26.525ZM751.542 23.475H744.417V22.175H751.542V23.475ZM748.042 34.975C744.592 34.975 742.367 33.35 742.367 31.35C742.367 29.35 744.592 27.725 748.042 27.725C751.467 27.725 753.717 29.35 753.717 31.35C753.717 33.35 751.467 34.975 748.042 34.975ZM748.042 29C745.517 29 744.042 30 744.042 31.35C744.042 32.725 745.517 33.725 748.042 33.725C750.567 33.725 752.042 32.7 752.042 31.35C752.042 30 750.567 29 748.042 29ZM759.967 36.625H758.292V33.35H754.342V32.05H758.292V29.2H754.342V27.9H758.292V22.075H759.967V36.625ZM775.29 44.675C770.265 44.675 767.19 42.8 767.19 40.25C767.19 37.725 770.265 35.85 775.29 35.85C780.315 35.85 783.39 37.725 783.39 40.25C783.39 42.8 780.315 44.675 775.29 44.675ZM775.29 37.2C771.59 37.2 768.89 38.325 768.89 40.25C768.89 42.2 771.59 43.325 775.29 43.325C778.965 43.325 781.69 42.2 781.69 40.25C781.69 38.325 778.965 37.2 775.29 37.2ZM778.29 32.375L777.315 33.625C774.515 32.6 771.99 30.525 770.965 28.3C770.065 30.75 767.54 33.025 764.415 34.35L763.39 33.225C767.04 31.825 770.04 28.7 770.04 24.9V22.65H771.815V24.9C771.815 28.525 774.89 31.25 778.29 32.375ZM782.965 35.675H781.29V27.7H775.715V26.3H781.29V22.075H782.965V35.675ZM803.263 33.575V34.875C800.938 35.275 797.938 35.45 794.588 35.45H786.838V34.1H794.263V30.85H788.813V23.1H800.663V24.425H790.488V29.5H801.188V30.85H795.913V34.1C798.563 34.075 801.213 33.875 803.263 33.575ZM806.338 43.95H790.688V37.55H792.363V42.575H806.338V43.95ZM805.838 39.2H804.163V22.075H805.838V39.2ZM811.061 46.4L810.661 46.025C811.536 45.475 812.286 44.4 812.411 43.45C812.436 43.325 812.411 43.225 812.361 43.175C812.311 43.05 812.161 42.975 811.911 42.975C811.211 42.975 810.561 42.5 810.561 41.65C810.561 40.85 811.211 40.325 812.011 40.325C812.936 40.325 813.586 41.15 813.586 42.175C813.586 43.95 812.511 45.625 811.061 46.4ZM842.328 27.325C842.328 30.2 839.228 32.45 834.053 32.45C828.903 32.45 825.803 30.2 825.803 27.325C825.803 24.475 828.903 22.225 834.053 22.225C839.228 22.225 842.328 24.475 842.328 27.325ZM840.653 27.325C840.653 25 837.828 23.575 834.053 23.575C830.328 23.575 827.478 25 827.478 27.325C827.478 29.675 830.328 31.1 834.053 31.1C837.828 31.1 840.653 29.675 840.653 27.325ZM845.028 36.125H834.978V44.3H833.253V36.125H823.203V34.775H845.028V36.125ZM865.376 44.3H863.701V22.075H865.376V44.3ZM862.526 36.7V38.075C859.726 38.625 855.351 38.9 851.976 38.9H848.026V30.375H857.001V24.775H848.026V23.425H858.701V31.7H849.676V37.525H851.976C855.351 37.525 859.526 37.275 862.526 36.7ZM884.949 36.175V37.525C882.149 38.1 877.774 38.35 874.424 38.35H870.974V23.1H872.624V36.975H874.424C877.774 36.975 881.949 36.725 884.949 36.175ZM887.674 44.3H886.024V22.075H887.674V29.7H891.424V31.125H887.674V44.3ZM910.672 44.3H909.022V22.075H910.672V30.5H914.422V31.925H910.672V44.3ZM907.947 36.7V38.075C905.147 38.625 900.772 38.9 897.422 38.9H893.697V30.375H902.697V24.775H893.697V23.425H904.372V31.7H895.397V37.525H897.422C900.772 37.525 904.947 37.275 907.947 36.7ZM34.425 73.775H32.775V60.075H34.425V65.275H37.825V66.675H34.425V73.775ZM27.15 82.675C22.25 82.675 19.3 80.875 19.3 78.425C19.3 76 22.25 74.2 27.15 74.2C32 74.2 34.95 76 34.95 78.425C34.95 80.875 32 82.675 27.15 82.675ZM27.15 75.55C23.575 75.55 20.975 76.625 20.975 78.425C20.975 80.25 23.575 81.325 27.15 81.325C30.7 81.325 33.3 80.25 33.3 78.425C33.3 76.625 30.7 75.55 27.15 75.55ZM27.75 71.525H17.2V60.85H18.875V64.8H26.075V60.85H27.75V71.525ZM26.075 70.175V66.125H18.875V70.175H26.075ZM58.248 76.575H56.573V66.9H51.748C51.473 69.825 49.073 72.05 45.723 72.05C42.098 72.05 39.648 69.5 39.648 66.3C39.648 63.05 42.098 60.475 45.723 60.475C48.998 60.475 51.373 62.65 51.723 65.5H56.573V60.075H58.248V76.575ZM45.723 70.7C48.473 70.7 50.098 68.75 50.098 66.275C50.098 63.775 48.473 61.825 45.723 61.825C42.948 61.825 41.348 63.775 41.348 66.275C41.348 68.75 42.948 70.7 45.723 70.7ZM59.073 81.95H43.373V74.55H45.048V80.6H59.073V81.95ZM90.4523 71.725H80.4023V74.325C85.1523 74.5 87.8523 76.2 87.8523 78.475C87.8523 80.925 84.8523 82.675 79.5273 82.675C74.2273 82.675 71.2023 80.925 71.2023 78.475C71.2023 76.2 73.8773 74.5 78.6773 74.325V71.725H68.6523V70.375H90.4523V71.725ZM86.1773 78.475C86.1773 76.75 83.6773 75.6 79.5273 75.6C75.3773 75.6 72.8773 76.75 72.8773 78.475C72.8773 80.225 75.3773 81.375 79.5273 81.375C83.6773 81.375 86.1773 80.225 86.1773 78.475ZM89.0773 67.55L88.1773 68.75C84.4273 68.2 80.9773 66.325 79.5523 63.925C78.1523 66.375 74.6773 68.175 70.9773 68.75L70.0773 67.55C74.0523 66.975 78.1523 64.825 78.6273 62.15H71.4273V60.8H87.6523V62.15H80.5023C80.9773 64.85 85.2273 67.025 89.0773 67.55ZM100.232 77.55L99.1566 76.425C105.057 73.55 108.357 68.55 108.982 62.9H100.532V61.55H110.807C110.457 69.075 106.132 74.575 100.232 77.55ZM117.132 82.3H115.482V60.075H117.132V68.75H120.882V70.175H117.132V82.3ZM141.155 78.25C141.155 80.8 138.18 82.675 133.33 82.675C128.43 82.675 125.48 80.8 125.48 78.25C125.48 75.725 128.43 73.85 133.33 73.85C138.18 73.85 141.155 75.725 141.155 78.25ZM139.48 78.25C139.48 76.325 136.88 75.2 133.33 75.2C129.755 75.2 127.18 76.325 127.18 78.25C127.18 80.2 129.755 81.325 133.33 81.325C136.88 81.325 139.48 80.2 139.48 78.25ZM136.68 70.6L135.705 71.8C132.905 70.775 130.405 68.725 129.355 66.55C128.455 68.975 125.88 71.275 122.805 72.55L121.755 71.4C125.355 70.1 128.43 66.925 128.43 63.15V62.55H123.005V61.225H135.48V62.55H130.205V63.15C130.205 66.775 133.38 69.525 136.68 70.6ZM140.605 73.4H138.955V60.075H140.605V65.2H143.88V66.575H140.605V73.4ZM171.384 82.3H169.709V60.075H171.384V82.3ZM153.084 69.125C153.084 63.8 155.534 60.675 158.784 60.675C162.059 60.675 164.484 63.8 164.484 69.125C164.484 74.475 162.059 77.6 158.784 77.6C155.534 77.6 153.084 74.475 153.084 69.125ZM162.809 69.125C162.809 64.55 161.134 62.025 158.784 62.025C156.459 62.025 154.759 64.55 154.759 69.125C154.759 73.725 156.459 76.25 158.784 76.25C161.134 76.25 162.809 73.725 162.809 69.125ZM194.832 82.05H179.457V76.7H192.632V74.075H179.457V72.775H194.307V77.95H181.132V80.725H194.832V82.05ZM189.907 69.4L189.057 70.65C186.357 69.975 183.732 68.175 182.657 65.975C181.682 68.275 178.982 70.3 176.032 71.4L175.057 70.25C178.457 69.1 181.732 66.325 181.732 62.925V62.525H176.282V61.225H188.782V62.525H183.507V62.925C183.507 66.325 186.632 68.625 189.907 69.4ZM194.332 71.6H192.657V60.075H194.332V71.6ZM209.655 82.675C204.63 82.675 201.555 80.8 201.555 78.25C201.555 75.725 204.63 73.85 209.655 73.85C214.68 73.85 217.755 75.725 217.755 78.25C217.755 80.8 214.68 82.675 209.655 82.675ZM209.655 75.2C205.955 75.2 203.255 76.325 203.255 78.25C203.255 80.2 205.955 81.325 209.655 81.325C213.33 81.325 216.055 80.2 216.055 78.25C216.055 76.325 213.33 75.2 209.655 75.2ZM212.655 70.375L211.68 71.625C208.88 70.6 206.355 68.525 205.33 66.3C204.43 68.75 201.905 71.025 198.78 72.35L197.755 71.225C201.405 69.825 204.405 66.7 204.405 62.9V60.65H206.18V62.9C206.18 66.525 209.255 69.25 212.655 70.375ZM217.33 73.675H215.655V65.7H210.08V64.3H215.655V60.075H217.33V73.675ZM239.428 82.3H237.753V60.075H239.428V69.1H242.978V70.525H239.428V82.3ZM236.803 75.4V76.7C234.478 77.2 231.653 77.35 228.353 77.35H220.878V76H226.128V68.15H227.803V76H228.453C231.528 76 234.478 75.825 236.803 75.4ZM233.278 72.725H231.628C232.153 70.2 232.703 65.875 232.653 62.8H222.178V61.45H234.403C234.378 64.9 233.928 69.675 233.278 72.725ZM269.382 82.425H267.707V76.475H253.432V75.125H269.382V82.425ZM272.532 72.55H250.732V71.2H260.907V68.225H253.782V60.8H269.532V62.15H255.457V66.875H269.957V68.225H262.607V71.2H272.532V72.55ZM293.055 82.05H278.18V73.125H279.855V76.125H291.405V73.125H293.055V82.05ZM291.405 80.75V77.425H279.855V80.75H291.405ZM290.23 69.1V70.35C287.68 70.925 283.555 71.225 280.055 71.225H275.455V65.45H284.43V62.275H275.455V61.025H286.105V66.7H277.105V69.925H280.055C283.455 69.925 287.505 69.65 290.23 69.1ZM293.08 72.05H291.43V60.075H293.08V72.05ZM308.679 82.675C303.654 82.675 300.579 80.8 300.579 78.25C300.579 75.725 303.654 73.85 308.679 73.85C313.704 73.85 316.779 75.725 316.779 78.25C316.779 80.8 313.704 82.675 308.679 82.675ZM308.679 75.2C304.979 75.2 302.279 76.325 302.279 78.25C302.279 80.2 304.979 81.325 308.679 81.325C312.354 81.325 315.079 80.2 315.079 78.25C315.079 76.325 312.354 75.2 308.679 75.2ZM311.679 70.375L310.704 71.625C307.904 70.6 305.379 68.525 304.354 66.3C303.454 68.75 300.929 71.025 297.804 72.35L296.779 71.225C300.429 69.825 303.429 66.7 303.429 62.9V60.65H305.204V62.9C305.204 66.525 308.279 69.25 311.679 70.375ZM316.354 73.675H314.679V65.7H309.104V64.3H314.679V60.075H316.354V73.675ZM339.402 82.3H337.727V60.075H339.402V82.3ZM321.102 69.125C321.102 63.8 323.552 60.675 326.802 60.675C330.077 60.675 332.502 63.8 332.502 69.125C332.502 74.475 330.077 77.6 326.802 77.6C323.552 77.6 321.102 74.475 321.102 69.125ZM330.827 69.125C330.827 64.55 329.152 62.025 326.802 62.025C324.477 62.025 322.777 64.55 322.777 69.125C322.777 73.725 324.477 76.25 326.802 76.25C329.152 76.25 330.827 73.725 330.827 69.125ZM371.556 72.675H349.756V71.325H366.056C366.331 70.1 366.581 68.525 366.781 66.925C363.606 67.15 359.906 67.2 356.181 67.2H352.281V65.9H356.206C359.981 65.9 363.731 65.85 366.931 65.625C367.031 64.4 367.131 63.2 367.156 62.15H352.656V60.8H368.856C368.756 64.925 368.281 68.9 367.681 71.325H371.556V72.675ZM369.456 81.95H352.831V74.8H354.506V80.575H369.456V81.95ZM399.41 76.575H397.735V66.9H392.91C392.635 69.825 390.235 72.05 386.885 72.05C383.26 72.05 380.81 69.5 380.81 66.3C380.81 63.05 383.26 60.475 386.885 60.475C390.16 60.475 392.535 62.65 392.885 65.5H397.735V60.075H399.41V76.575ZM386.885 70.7C389.635 70.7 391.26 68.75 391.26 66.275C391.26 63.775 389.635 61.825 386.885 61.825C384.11 61.825 382.51 63.775 382.51 66.275C382.51 68.75 384.11 70.7 386.885 70.7ZM400.235 81.95H384.535V74.55H386.21V80.6H400.235V81.95ZM422.458 82.3H420.783V69.5H415.533C415.408 74.625 413.008 77.6 409.833 77.6C406.583 77.6 404.158 74.475 404.158 69.125C404.158 63.8 406.583 60.675 409.833 60.675C412.858 60.675 415.233 63.425 415.508 68.125H420.783V60.075H422.458V82.3ZM409.833 76.25C412.158 76.25 413.858 73.725 413.858 69.125C413.858 64.55 412.158 62.025 409.833 62.025C407.508 62.025 405.833 64.55 405.833 69.125C405.833 73.725 407.508 76.25 409.833 76.25ZM444.231 82.3H442.581V60.075H444.231V68H447.981V69.425H444.231V82.3ZM441.506 74.2V75.55C438.706 76.125 434.331 76.4 430.981 76.4H427.531V61.55H438.256V62.9H429.181V75.025H430.981C434.331 75.025 438.506 74.75 441.506 74.2ZM452.979 79.825C452.979 80.625 452.354 81.225 451.554 81.225C450.704 81.225 450.079 80.625 450.079 79.825C450.079 79.075 450.704 78.425 451.554 78.425C452.354 78.425 452.979 79.075 452.979 79.825ZM484.496 74.125H474.421V82.3H472.696V74.125H462.646V72.775H484.496V74.125ZM482.246 69.425H473.971V60.95H481.971V62.3H475.671V68.075H482.246V69.425ZM473.171 67.725V69.05C471.696 69.325 469.471 69.425 467.821 69.425H465.171V60.95H473.021V62.3H466.846V68.075H467.846C469.421 68.075 471.646 67.975 473.171 67.725ZM506.469 81.05L505.694 82.3C502.194 81.6 498.719 79.65 497.594 77.2C496.494 79.65 493.019 81.6 489.519 82.3L488.694 81.05C492.269 80.425 496.669 78 496.669 74.875V74.25H498.519V74.875C498.519 78 502.944 80.425 506.469 81.05ZM501.519 70.3V71.575C498.919 72.15 494.844 72.45 491.344 72.45H487.394V66.025H495.819V62.325H487.394V61.025H497.469V67.3H489.044V71.125H491.344C494.719 71.125 498.769 70.825 501.519 70.3ZM505.019 75.175H503.369V68.4H498.869V67.075H503.369V64.25H498.869V62.95H503.369V60.075H505.019V75.175ZM527.742 76.75H526.067V60.075H527.742V66.925H531.142V68.325H527.742V76.75ZM528.667 81.95H513.192V75.5H514.842V80.6H528.667V81.95ZM523.167 64.8H509.492V63.5H523.167V64.8ZM519.867 61.475H512.742V60.175H519.867V61.475ZM516.367 73.825C512.917 73.825 510.692 72.1 510.692 69.975C510.692 67.85 512.917 66.125 516.367 66.125C519.792 66.125 522.042 67.85 522.042 69.975C522.042 72.1 519.792 73.825 516.367 73.825ZM516.367 67.4C513.842 67.4 512.367 68.5 512.367 69.975C512.367 71.475 513.842 72.575 516.367 72.575C518.892 72.575 520.367 71.45 520.367 69.975C520.367 68.5 518.892 67.4 516.367 67.4ZM558.321 73.2H556.646V66.625H551.796C551.471 69.425 549.121 71.55 545.796 71.55C542.196 71.55 539.771 69.1 539.771 66.025C539.771 62.95 542.196 60.475 545.796 60.475C549.046 60.475 551.371 62.55 551.771 65.25H556.646V60.075H558.321V73.2ZM550.121 66.025C550.121 63.675 548.521 61.825 545.796 61.825C543.046 61.825 541.471 63.675 541.471 66.025C541.471 68.35 543.046 70.2 545.796 70.2C548.521 70.2 550.121 68.35 550.121 66.025ZM558.271 82.425H556.596V75.775H542.921V74.4H558.271V82.425ZM574.544 66.025C574.544 69.1 572.094 71.55 568.544 71.55C564.944 71.55 562.519 69.1 562.519 66.025C562.519 62.95 564.944 60.475 568.544 60.475C572.094 60.475 574.544 62.95 574.544 66.025ZM572.869 66.025C572.869 63.675 571.244 61.825 568.544 61.825C565.794 61.825 564.194 63.675 564.194 66.025C564.194 68.35 565.794 70.2 568.544 70.2C571.244 70.2 572.869 68.35 572.869 66.025ZM581.019 78.275C581.019 80.8 578.069 82.675 573.169 82.675C568.319 82.675 565.369 80.8 565.369 78.275C565.369 75.725 568.319 73.85 573.169 73.85C578.069 73.85 581.019 75.725 581.019 78.275ZM579.369 78.275C579.369 76.325 576.769 75.2 573.169 75.2C569.644 75.2 567.044 76.325 567.044 78.275C567.044 80.2 569.644 81.325 573.169 81.325C576.769 81.325 579.369 80.2 579.369 78.275ZM580.494 73.4H578.844V60.075H580.494V62.95H583.769V64.3H580.494V67.8H583.769V69.15H580.494V73.4ZM611.074 76.55H609.424V69.625H604.074V72.475H593.449V60.85H595.099V65.275H602.399V60.85H604.074V63.775H609.424V60.075H611.074V76.55ZM602.399 71.125V66.575H595.099V71.125H602.399ZM611.899 81.95H596.199V74.775H597.874V80.6H611.899V81.95ZM609.424 68.275V65.125H604.074V68.275H609.424ZM630.822 76.125V77.425C628.497 77.925 625.672 78.075 622.372 78.075H614.897V76.725H621.822V74C619.022 73.725 617.272 72.125 617.272 70.3C617.272 68.275 619.372 66.575 622.647 66.575C625.897 66.575 627.972 68.275 627.972 70.3C627.972 72.125 626.272 73.725 623.497 74V76.725C626.172 76.7 628.772 76.5 630.822 76.125ZM633.447 82.3H631.772V60.075H633.447V69.35H636.997V70.775H633.447V82.3ZM626.322 70.3C626.322 68.9 624.872 67.875 622.647 67.875C620.397 67.875 618.947 68.9 618.947 70.3C618.947 71.7 620.397 72.7 622.647 72.7C624.872 72.7 626.322 71.7 626.322 70.3ZM629.247 65.275H615.997V63.925H629.247V65.275ZM626.047 61.9H619.172V60.55H626.047V61.9ZM659.545 79.225H637.695V77.875H647.745V72.75H640.77V61.175H642.445V65.25H654.745V61.175H656.42V72.75H649.47V77.875H659.545V79.225ZM654.745 71.4V66.575H642.445V71.4H654.745ZM679.168 82.3H677.518V60.075H679.168V68H682.918V69.425H679.168V82.3ZM676.443 74.2V75.55C673.643 76.125 669.268 76.4 665.918 76.4H662.468V61.55H673.193V62.9H664.118V75.025H665.918C669.268 75.025 673.443 74.75 676.443 74.2ZM705.516 72.8H683.716V71.45H705.516V72.8ZM702.991 68.075H686.766V60.15H688.441V66.725H702.991V68.075ZM703.416 81.95H686.791V75H688.466V80.575H703.416V81.95ZM732.395 82.425H730.72V76.95H716.445V75.65H732.395V82.425ZM735.545 73.2H713.745V71.9H735.545V73.2ZM732.77 69.7H716.795V60.625H732.495V61.925H718.47V64.475H732.395V65.75H718.47V68.375H732.77V69.7ZM758.543 73.875H748.493V82.3H746.768V73.875H736.718V72.525H758.543V73.875ZM757.343 68.85L756.418 70.075C752.618 69.2 749.043 67.1 747.618 64.425C746.218 67.1 742.643 69.2 738.843 70.075L737.893 68.85C742.143 68 746.743 65.25 746.743 61.725V60.65H748.518V61.725C748.518 65.25 753.118 68 757.343 68.85ZM778.816 76.75H777.141V60.075H778.816V66.925H782.216V68.325H778.816V76.75ZM779.741 81.95H764.266V75.5H765.916V80.6H779.741V81.95ZM774.241 64.8H760.566V63.5H774.241V64.8ZM770.941 61.475H763.816V60.175H770.941V61.475ZM767.441 73.825C763.991 73.825 761.766 72.1 761.766 69.975C761.766 67.85 763.991 66.125 767.441 66.125C770.866 66.125 773.116 67.85 773.116 69.975C773.116 72.1 770.866 73.825 767.441 73.825ZM767.441 67.4C764.916 67.4 763.441 68.5 763.441 69.975C763.441 71.475 764.916 72.575 767.441 72.575C769.966 72.575 771.441 71.45 771.441 69.975C771.441 68.5 769.966 67.4 767.441 67.4ZM809.446 82.3H807.771V69.5H802.521C802.396 74.625 799.996 77.6 796.821 77.6C793.571 77.6 791.146 74.475 791.146 69.125C791.146 63.8 793.571 60.675 796.821 60.675C799.846 60.675 802.221 63.425 802.496 68.125H807.771V60.075H809.446V82.3ZM796.821 76.25C799.146 76.25 800.846 73.725 800.846 69.125C800.846 64.55 799.146 62.025 796.821 62.025C794.496 62.025 792.821 64.55 792.821 69.125C792.821 73.725 794.496 76.25 796.821 76.25ZM826.544 69.125C826.544 70.9 824.469 72.425 821.194 72.425C817.944 72.425 815.844 70.9 815.844 69.125C815.844 67.325 817.944 65.825 821.194 65.825C824.469 65.825 826.544 67.325 826.544 69.125ZM832.069 82.3H830.419V60.075H832.069V82.3ZM821.844 81.8H820.194V75.4H813.269V74.075H821.444C824.244 74.075 827.344 73.825 829.469 73.45V74.725C827.519 75.175 824.844 75.375 821.844 75.4V81.8ZM824.894 69.125C824.894 67.95 823.419 67.075 821.194 67.075C818.969 67.075 817.519 67.95 817.519 69.125C817.519 70.3 818.969 71.15 821.194 71.15C823.419 71.15 824.894 70.3 824.894 69.125ZM827.819 64.7H814.569V63.375H827.819V64.7ZM824.619 61.625H817.769V60.3H824.619V61.625ZM855.448 76.25L854.448 77.4C852.273 75.975 850.223 73.475 849.473 71.15C848.698 73.65 846.523 76.325 843.773 78.15L842.648 77.1C845.998 75.125 848.573 71.475 848.573 67.025V66.3H844.098V64.95H854.698V66.3H850.323V67.025C850.323 71.425 852.948 74.8 855.448 76.25ZM858.548 81.25H856.923V70.55H853.323V69.175H856.923V60.45H858.548V81.25ZM863.073 82.3H861.423V60.075H863.073V82.3ZM852.523 62.225H846.273V60.875H852.523V62.225ZM885.596 82.3H883.946V60.075H885.596V82.3ZM867.321 77.525L866.046 76.45C871.221 73.55 873.896 68 874.196 63.05H867.296V61.7H875.996C875.871 68.575 872.571 74.325 867.321 77.525ZM881.021 81.25H879.396V72.725H875.521V71.35H879.396V66.75H876.296V65.35H879.396V60.45H881.021V81.25ZM890.344 77.55L889.269 76.425C895.169 73.55 898.469 68.55 899.094 62.9H890.644V61.55H900.919C900.569 69.075 896.244 74.575 890.344 77.55ZM907.244 82.3H905.594V60.075H907.244V68.75H910.994V70.175H907.244V82.3ZM34.9 107.425H18.675V98.95H34.65V100.3H20.35V106.075H34.9V107.425ZM37.45 112.125H27.375V120.3H25.65V112.125H15.6V110.775H37.45V112.125ZM57.898 110.15H41.673V99.475H57.648V100.825H43.348V108.8H57.898V110.15ZM60.448 117.05H38.598V115.7H60.448V117.05ZM80.7711 120.3H79.0961V107.025H74.7961V105.625H79.0961V98.075H80.7711V120.3ZM77.2211 112.7V114.075C74.4461 114.625 70.0711 114.9 66.7211 114.9H63.4211V106.375H71.6211V100.775H63.4211V99.425H73.2961V107.7H65.0711V113.525H66.7211C70.0711 113.525 74.2711 113.275 77.2211 112.7ZM100.019 113.975L98.9941 115.175C96.1441 113.55 93.2941 110.7 92.3441 107.95C91.4691 111.025 88.8441 113.9 85.6191 115.825L84.4941 114.725C88.1441 112.675 91.3941 108.85 91.3941 103.675V100.9H85.7941V99.55H98.6191V100.9H93.1691V103.675C93.1691 108.75 96.8191 112.325 100.019 113.975ZM104.294 120.3H102.619V98.075H104.294V120.3ZM126.767 120.3H125.092V110.325H120.092V114.4H109.417V99.55H120.092V102.875H125.092V98.075H126.767V120.3ZM118.392 113.05V100.9H111.067V113.05H118.392ZM125.092 108.975V104.225H120.092V108.975H125.092ZM132.34 122.4L131.94 122.025C132.815 121.475 133.565 120.4 133.69 119.45C133.715 119.325 133.69 119.225 133.64 119.175C133.59 119.05 133.44 118.975 133.19 118.975C132.49 118.975 131.84 118.5 131.84 117.65C131.84 116.85 132.49 116.325 133.29 116.325C134.215 116.325 134.865 117.15 134.865 118.175C134.865 119.95 133.79 121.625 132.34 122.4ZM166.332 117.225H144.482V115.875H152.682V107.3H154.432V115.875H166.332V117.225ZM161.857 112.55H160.132C161.057 108.9 161.632 104.525 161.732 101.075H147.157V99.725H163.507C163.382 104.15 162.707 108.825 161.857 112.55ZM186.605 103.325C186.605 106.2 183.505 108.45 178.33 108.45C173.18 108.45 170.08 106.2 170.08 103.325C170.08 100.475 173.18 98.225 178.33 98.225C183.505 98.225 186.605 100.475 186.605 103.325ZM184.93 103.325C184.93 101 182.105 99.575 178.33 99.575C174.605 99.575 171.755 101 171.755 103.325C171.755 105.675 174.605 107.1 178.33 107.1C182.105 107.1 184.93 105.675 184.93 103.325ZM183.155 120.3H181.505V112.125H175.305V120.1H173.605V112.125H167.48V110.775H189.305V112.125H183.155V120.3ZM210.178 120.3H208.503V107.5H203.253C203.128 112.625 200.728 115.6 197.553 115.6C194.303 115.6 191.878 112.475 191.878 107.125C191.878 101.8 194.303 98.675 197.553 98.675C200.578 98.675 202.953 101.425 203.228 106.125H208.503V98.075H210.178V120.3ZM197.553 114.25C199.878 114.25 201.578 111.725 201.578 107.125C201.578 102.55 199.878 100.025 197.553 100.025C195.228 100.025 193.553 102.55 193.553 107.125C193.553 111.725 195.228 114.25 197.553 114.25ZM229.601 113.4V114.7C227.276 115.2 224.451 115.35 221.151 115.35H213.676V114H220.451V109.6C217.226 109.3 214.976 106.925 214.976 104.15C214.976 101.175 217.576 98.7 221.151 98.7C224.726 98.7 227.301 101.175 227.301 104.15C227.301 106.85 225.176 109.175 222.101 109.575V114C224.876 113.975 227.501 113.8 229.601 113.4ZM225.651 104.15C225.651 101.9 223.951 100.05 221.151 100.05C218.326 100.05 216.676 101.9 216.676 104.15C216.676 106.4 218.326 108.275 221.151 108.275C223.951 108.275 225.651 106.4 225.651 104.15ZM232.226 120.3H230.551V98.075H232.226V107.1H235.776V108.525H232.226V120.3ZM263.205 120.3H261.53V107.5H256.28C256.155 112.625 253.755 115.6 250.58 115.6C247.33 115.6 244.905 112.475 244.905 107.125C244.905 101.8 247.33 98.675 250.58 98.675C253.605 98.675 255.98 101.425 256.255 106.125H261.53V98.075H263.205V120.3ZM250.58 114.25C252.905 114.25 254.605 111.725 254.605 107.125C254.605 102.55 252.905 100.025 250.58 100.025C248.255 100.025 246.58 102.55 246.58 107.125C246.58 111.725 248.255 114.25 250.58 114.25ZM279.028 114.4H268.353V99.55H279.028V114.4ZM277.328 113.05V100.9H270.003V113.05H277.328ZM285.678 120.3H284.003V98.075H285.678V120.3ZM315.908 114.55H314.258V107.625H308.908V110.475H298.283V98.85H299.933V103.275H307.233V98.85H308.908V101.775H314.258V98.075H315.908V114.55ZM307.233 109.125V104.575H299.933V109.125H307.233ZM316.733 119.95H301.033V112.775H302.708V118.6H316.733V119.95ZM314.258 106.275V103.125H308.908V106.275H314.258ZM331.506 120.675C326.481 120.675 323.406 119 323.406 116.725C323.406 114.45 326.481 112.775 331.506 112.775C336.531 112.775 339.606 114.45 339.606 116.725C339.606 119 336.531 120.675 331.506 120.675ZM331.506 114.05C327.806 114.05 325.106 115.025 325.106 116.725C325.106 118.425 327.806 119.4 331.506 119.4C335.181 119.4 337.906 118.425 337.906 116.725C337.906 115.025 335.181 114.05 331.506 114.05ZM333.831 102.525H320.381V101.225H333.831V102.525ZM330.756 99.475H323.631V98.175H330.756V99.475ZM327.256 110.975C323.806 110.975 321.581 109.35 321.581 107.35C321.581 105.35 323.806 103.725 327.256 103.725C330.681 103.725 332.931 105.35 332.931 107.35C332.931 109.35 330.681 110.975 327.256 110.975ZM327.256 105C324.731 105 323.256 106 323.256 107.35C323.256 108.725 324.731 109.725 327.256 109.725C329.781 109.725 331.256 108.7 331.256 107.35C331.256 106 329.781 105 327.256 105ZM339.181 112.625H337.506V109.35H333.556V108.05H337.506V105.2H333.556V103.9H337.506V98.075H339.181V112.625ZM362.229 120.3H360.554V98.075H362.229V120.3ZM343.929 107.125C343.929 101.8 346.379 98.675 349.629 98.675C352.904 98.675 355.329 101.8 355.329 107.125C355.329 112.475 352.904 115.6 349.629 115.6C346.379 115.6 343.929 112.475 343.929 107.125ZM353.654 107.125C353.654 102.55 351.979 100.025 349.629 100.025C347.304 100.025 345.604 102.55 345.604 107.125C345.604 111.725 347.304 114.25 349.629 114.25C351.979 114.25 353.654 111.725 353.654 107.125ZM394.383 110.25H384.333V112.625C389.083 112.8 391.783 114.4 391.783 116.625C391.783 118.975 388.783 120.675 383.458 120.675C378.158 120.675 375.133 118.975 375.133 116.625C375.133 114.4 377.808 112.8 382.608 112.625V110.25H372.583V108.9H394.383V110.25ZM392.308 106.425H374.633V105.075H378.133L377.983 100.15H375.158V98.8H391.783V100.15H389.133L389.008 105.075H392.308V106.425ZM390.108 116.625C390.108 115 387.608 113.9 383.458 113.9C379.308 113.9 376.808 115 376.808 116.625C376.808 118.275 379.308 119.375 383.458 119.375C387.608 119.375 390.108 118.275 390.108 116.625ZM387.333 105.075L387.483 100.15H379.658L379.783 105.075H387.333ZM414.281 108.5H398.631V98.55H400.306V101.825H412.606V98.55H414.281V108.5ZM412.606 107.15V103.15H400.306V107.15H412.606ZM417.406 112.65H407.331V120.3H405.606V112.65H395.556V111.3H417.406V112.65ZM429.554 100.075H422.629V98.725H429.554V100.075ZM437.454 120.3H435.804V98.075H437.454V107.25H441.054V108.675H437.454V120.3ZM431.854 110.95C431.854 113.875 429.554 116.225 426.179 116.225C422.804 116.225 420.504 113.875 420.504 110.95C420.504 108.025 422.804 105.65 426.179 105.65C429.554 105.65 431.854 108 431.854 110.95ZM430.204 110.95C430.204 108.6 428.629 106.975 426.204 106.975C423.754 106.975 422.179 108.575 422.179 110.95C422.179 113.3 423.754 114.9 426.204 114.9C428.629 114.9 430.204 113.3 430.204 110.95ZM432.979 103.775H419.254V102.425H432.979V103.775ZM463.402 117.225H441.552V115.875H449.752V107.3H451.502V115.875H463.402V117.225ZM458.927 112.55H457.202C458.127 108.9 458.702 104.525 458.802 101.075H444.227V99.725H460.577C460.452 104.15 459.777 108.825 458.927 112.55ZM490.881 120.05H475.781V114.675H488.681V112.05H475.781V110.75H490.356V115.95H477.431V118.725H490.881V120.05ZM490.406 109.55H488.756V98.075H490.406V102.475H493.806V103.85H490.406V109.55ZM483.731 108.25H473.181V98.85H474.856V102.125H482.056V98.85H483.731V108.25ZM482.056 106.95V103.425H474.856V106.95H482.056ZM505.479 106.625C500.404 106.625 497.304 104.8 497.304 102.275C497.304 99.775 500.404 97.95 505.479 97.95C510.554 97.95 513.679 99.775 513.679 102.275C513.679 104.8 510.554 106.625 505.479 106.625ZM505.479 99.275C501.779 99.275 498.954 100.35 498.954 102.3C498.954 104.225 501.779 105.3 505.479 105.3C509.204 105.3 512.004 104.225 512.004 102.3C512.004 100.35 509.204 99.275 505.479 99.275ZM516.404 109.975H494.604V108.625H516.404V109.975ZM513.329 120.05H497.654V112.525H513.329V120.05ZM511.654 118.7V113.875H499.329V118.7H511.654ZM537.284 114.25L536.284 115.4C534.109 113.975 532.059 111.475 531.309 109.15C530.534 111.65 528.359 114.325 525.609 116.15L524.484 115.1C527.834 113.125 530.409 109.475 530.409 105.025V104.3H525.934V102.95H536.534V104.3H532.159V105.025C532.159 109.425 534.784 112.8 537.284 114.25ZM540.384 119.25H538.759V108.55H535.159V107.175H538.759V98.45H540.384V119.25ZM544.909 120.3H543.259V98.075H544.909V120.3ZM534.359 100.225H528.109V98.875H534.359V100.225ZM567.432 120.3H565.782V98.075H567.432V120.3ZM549.157 115.525L547.882 114.45C553.057 111.55 555.732 106 556.032 101.05H549.132V99.7H557.832C557.707 106.575 554.407 112.325 549.157 115.525ZM562.857 119.25H561.232V110.725H557.357V109.35H561.232V104.75H558.132V103.35H561.232V98.45H562.857V119.25ZM599.486 117.225H577.636V115.875H587.811V110.85H589.511V115.875H599.486V117.225ZM588.161 108.3V109.625C586.686 109.9 584.461 110 582.811 110H580.186V99.475H588.011V100.825H581.861V108.65H582.836C584.411 108.65 586.636 108.55 588.161 108.3ZM597.211 110H588.961V99.475H596.936V100.825H590.661V108.65H597.211V110ZM619.734 114.75H618.059V98.075H619.734V104.925H623.134V106.325H619.734V114.75ZM620.659 119.95H605.184V113.5H606.834V118.6H620.659V119.95ZM615.159 102.8H601.484V101.5H615.159V102.8ZM611.859 99.475H604.734V98.175H611.859V99.475ZM608.359 111.825C604.909 111.825 602.684 110.1 602.684 107.975C602.684 105.85 604.909 104.125 608.359 104.125C611.784 104.125 614.034 105.85 614.034 107.975C614.034 110.1 611.784 111.825 608.359 111.825ZM608.359 105.4C605.834 105.4 604.359 106.5 604.359 107.975C604.359 109.475 605.834 110.575 608.359 110.575C610.884 110.575 612.359 109.45 612.359 107.975C612.359 106.5 610.884 105.4 608.359 105.4ZM649.338 120.425H647.663V114.475H633.388V113.125H649.338V120.425ZM652.488 110.55H630.688V109.2H640.863V106.225H633.738V98.8H649.488V100.15H635.413V104.875H649.913V106.225H642.563V109.2H652.488V110.55ZM668.812 113.975L667.787 115.175C664.937 113.55 662.112 110.7 661.162 107.95C660.262 111.025 657.637 113.9 654.412 115.825L653.287 114.725C656.962 112.675 660.212 108.85 660.212 103.675V100.9H654.612V99.55H667.412V100.9H661.987V103.675C661.987 108.75 665.612 112.325 668.812 113.975ZM672.412 120.3H670.737V98.075H672.412V106.675H676.162V108.1H672.412V120.3ZM691.96 108.85L690.96 110.05C688.16 109.025 685.66 106.975 684.635 104.8C683.735 107.225 681.135 109.525 678.085 110.8L677.035 109.65C680.61 108.35 683.71 105.175 683.71 101.4V100.55H678.26V99.225H690.76V100.55H685.485V101.4C685.485 105.025 688.635 107.775 691.96 108.85ZM696.26 120.425H694.585V114.025H680.91V112.65H696.26V120.425ZM696.31 111.45H694.635V104.625H689.61V103.225H694.635V98.075H696.31V111.45ZM710.558 110.8C705.708 110.8 702.383 108.15 702.383 104.675C702.383 101.175 705.708 98.525 710.558 98.525C715.433 98.525 718.783 101.175 718.783 104.675C718.783 108.15 715.433 110.8 710.558 110.8ZM710.558 99.875C706.883 99.875 704.033 101.775 704.033 104.675C704.033 107.55 706.883 109.45 710.558 109.45C714.258 109.45 717.108 107.55 717.108 104.675C717.108 101.775 714.258 99.875 710.558 99.875ZM721.508 117.05H699.658V115.7H721.508V117.05ZM744.506 117.375H722.656V116.025H732.856V111.3H725.731V104.625H739.456V100.65H725.731V99.3H741.106V105.95H727.406V109.925H741.831V111.3H734.556V116.025H744.506V117.375ZM771.985 120.05H756.885V114.675H769.785V112.05H756.885V110.75H771.46V115.95H758.535V118.725H771.985V120.05ZM771.51 109.55H769.86V98.075H771.51V102.475H774.91V103.85H771.51V109.55ZM764.835 108.25H754.285V98.85H755.96V102.125H763.16V98.85H764.835V108.25ZM763.16 106.95V103.425H755.96V106.95H763.16ZM790.983 109.5L790.033 110.725C787.283 109.7 784.683 107.5 783.658 105.275C782.758 107.8 780.158 110.125 777.083 111.475L776.058 110.3C779.633 108.875 782.733 105.75 782.733 101.875V100.55H777.283V99.225H789.783V100.55H784.508V101.875C784.508 105.55 787.708 108.325 790.983 109.5ZM795.333 114.55H793.658V104.75H788.633V103.375H793.658V98.075H795.333V114.55ZM796.158 119.95H780.458V112.55H782.133V118.6H796.158V119.95ZM810.781 103.8H799.206V102.45H810.781V103.8ZM808.106 100.225H801.831V98.875H808.106V100.225ZM818.906 120.3H817.231V108.55H813.881V119.25H812.256V98.45H813.881V107.075H817.231V98.075H818.906V120.3ZM799.981 110.6C799.981 107.775 802.181 105.65 804.956 105.65C807.756 105.65 809.981 107.775 809.981 110.6C809.981 113.425 807.756 115.55 804.956 115.55C802.181 115.55 799.981 113.425 799.981 110.6ZM808.356 110.6C808.356 108.5 807.031 106.95 804.956 106.95C802.931 106.95 801.606 108.5 801.606 110.6C801.606 112.675 802.931 114.25 804.956 114.25C807.031 114.25 808.356 112.675 808.356 110.6ZM837.904 108.9V110.2C835.604 110.625 832.554 110.775 829.254 110.775H821.879V109.45H828.704V106.9C825.604 106.625 823.629 104.675 823.629 102.525C823.629 100.2 825.954 98.125 829.454 98.125C832.954 98.125 835.279 100.2 835.279 102.525C835.279 104.65 833.354 106.55 830.354 106.875V109.45C833.104 109.425 835.804 109.25 837.904 108.9ZM842.904 119.275L841.879 120.425C839.904 119.5 838.104 117.8 837.329 116.075C836.679 117.65 834.929 119.35 833.229 120.3C831.504 119.35 829.779 117.65 829.104 116.075C828.304 117.8 826.529 119.5 824.554 120.425L823.529 119.275C825.854 118.275 828.254 115.95 828.254 113.5V112.75H829.904V113.575C829.904 115.575 831.729 117.65 833.229 118.55C834.704 117.65 836.529 115.575 836.529 113.575V112.75H838.179V113.5C838.179 115.95 840.579 118.275 842.904 119.275ZM833.604 102.525C833.604 100.95 832.204 99.425 829.454 99.425C826.729 99.425 825.304 100.95 825.304 102.525C825.304 104.1 826.729 105.625 829.454 105.625C832.204 105.625 833.604 104.1 833.604 102.525ZM840.479 111.925H838.829V98.075H840.479V103.875H843.979V105.25H840.479V111.925ZM863.152 120.3H861.502V98.075H863.152V106H866.902V107.425H863.152V120.3ZM860.427 112.2V113.55C857.627 114.125 853.252 114.4 849.902 114.4H846.452V99.55H857.177V100.9H848.102V113.025H849.902C853.252 113.025 857.427 112.75 860.427 112.2ZM871.9 117.825C871.9 118.625 871.275 119.225 870.475 119.225C869.625 119.225 869 118.625 869 117.825C869 117.075 869.625 116.425 870.475 116.425C871.275 116.425 871.9 117.075 871.9 117.825Z" fill="black"/>
</svg>
