<svg width="256" height="76" viewBox="0 0 256 76" fill="none" xmlns="http://www.w3.org/2000/svg">
<rect x="0.5" y="0.5" width="255" height="75" fill="#FF961E"/>
<rect x="0.5" y="0.5" width="255" height="75" stroke="black"/>
<path d="M30.96 28.98H13.48V27.9H25.56C26.56 24.4 27.14 19.66 27.3 16.26H15.62V15.18H28.7C28.52 19.64 27.92 24.36 26.94 27.9H30.96V28.98ZM47.2184 31.64H45.8784V21.02H42.4384V19.9H45.8784V13.86H47.2184V31.64ZM44.3784 25.56V26.66C42.1584 27.1 38.6584 27.32 35.9784 27.32H33.3384V20.5H39.8984V16.02H33.3384V14.94H41.2384V21.56H34.6584V26.22H35.9784C38.6584 26.22 42.0184 26.02 44.3784 25.56ZM51.5169 27.82L50.4969 26.96C54.6369 24.64 56.7769 20.2 57.0169 16.24H51.4969V15.16H58.4569C58.3569 20.66 55.7169 25.26 51.5169 27.82ZM62.4769 30.8H61.1769V21.7H58.1369V20.58H61.1769V14.16H62.4769V30.8ZM66.1369 31.64H64.8169V13.86H66.1369V31.64ZM69.8953 31.94H68.7153L75.7953 13.16H76.9753L69.8953 31.94ZM95.5694 28.98H78.0894V27.9H90.1694C91.1694 24.4 91.7494 19.66 91.9094 16.26H80.2294V15.18H93.3094C93.1294 19.64 92.5294 24.36 91.5494 27.9H95.5694V28.98ZM111.828 31.64H110.488V21.02H107.048V19.9H110.488V13.86H111.828V31.64ZM108.988 25.56V26.66C106.768 27.1 103.268 27.32 100.588 27.32H97.9478V20.5H104.508V16.02H97.9478V14.94H105.848V21.56H99.2678V26.22H100.588C103.268 26.22 106.628 26.02 108.988 25.56ZM130.226 31.64H128.886V13.86H130.226V31.64ZM127.946 25.14V26.22C125.706 26.68 122.206 26.88 119.506 26.88H116.546V14.7H117.886V25.78H119.506C122.206 25.78 125.546 25.58 127.946 25.14ZM140.445 28.62L139.265 27.98C142.205 24.64 143.465 20.48 143.665 16.12H140.125V15.04H145.045C144.945 20.76 143.465 24.98 140.445 28.62ZM134.745 27.54L133.565 26.92C136.565 23.84 137.865 19.84 138.085 16.12H134.505V15.04H139.505C139.365 20.16 137.765 24.26 134.745 27.54ZM148.705 31.64H147.425V13.86H148.705V20.8H151.285V21.94H148.705V31.64ZM23.04 58.8L23.24 59.8C22.22 60.12 20.98 60.24 19.8 60.24C15.98 60.24 14.16 57.68 14.14 54.34C14.1 51.24 15.98 48.6 19.2 48.62C22.5 48.62 23.98 50.76 23.98 53.94V54.66H15.42C15.5 57.16 16.92 59.26 19.84 59.24C20.86 59.24 22.02 59.12 23.04 58.8ZM15.38 53.68H22.72C22.72 53.64 22.76 53.46 22.72 53.42C22.7 51.04 21.38 49.62 19.2 49.62C16.72 49.62 15.54 51.6 15.38 53.68ZM28.5397 59.66C28.5397 60.3 28.0397 60.78 27.3997 60.78C26.7197 60.78 26.2197 60.3 26.2197 59.66C26.2197 59.06 26.7197 58.54 27.3997 58.54C28.0397 58.54 28.5397 59.06 28.5397 59.66ZM40.028 59.42V57.92H39.908C39.128 59.14 37.688 59.86 36.128 59.86C33.068 59.88 31.328 57.5 31.328 54.24C31.328 51 33.108 48.62 36.208 48.64C37.788 48.64 39.088 49.3 39.888 50.48H39.988V48.9H41.268V59.6C41.268 62.68 39.148 64.24 36.108 64.24C35.048 64.24 33.668 64.08 32.648 63.74L32.928 62.72C33.928 63.1 35.048 63.24 36.108 63.24C38.728 63.24 40.028 61.82 40.028 59.42ZM39.968 55.22V53.12C39.968 51.16 38.228 49.64 36.348 49.64C33.968 49.64 32.588 51.6 32.588 54.24C32.588 56.88 33.848 58.86 36.268 58.86C38.208 58.86 39.968 57.32 39.968 55.22ZM46.9186 59.66C46.9186 60.3 46.4186 60.78 45.7786 60.78C45.0986 60.78 44.5986 60.3 44.5986 59.66C44.5986 59.06 45.0986 58.54 45.7786 58.54C46.4186 58.54 46.9186 59.06 46.9186 59.66ZM69.9919 61.64H68.6519V43.86H69.9919V61.64ZM64.6519 57.12H56.1119V44.84H57.4319V49.56H63.2919V44.84H64.6519V57.12ZM63.2919 56.04V50.62H57.4319V56.04H63.2919ZM85.9503 56.12V57.16C84.0903 57.56 81.8303 57.68 79.1903 57.68H73.2103V56.6H78.6303V53.08C76.0503 52.84 74.2503 50.94 74.2503 48.72C74.2503 46.34 76.3303 44.36 79.1903 44.36C82.0503 44.36 84.1103 46.34 84.1103 48.72C84.1103 50.88 82.4103 52.74 79.9503 53.06V56.6C82.1703 56.58 84.2703 56.44 85.9503 56.12ZM82.7903 48.72C82.7903 46.92 81.4303 45.44 79.1903 45.44C76.9303 45.44 75.6103 46.92 75.6103 48.72C75.6103 50.52 76.9303 52.02 79.1903 52.02C81.4303 52.02 82.7903 50.52 82.7903 48.72ZM88.0503 61.64H86.7103V43.86H88.0503V51.08H90.8903V52.22H88.0503V61.64ZM107.209 61.64H105.869V50.62H101.429V49.5H105.869V43.86H107.209V61.64ZM103.529 56.5L102.729 57.46C100.349 56.16 98.1088 53.74 97.4088 51.46C96.6688 53.98 94.7688 56.3 92.0288 57.98L91.1288 57.14C94.2088 55.34 96.6488 52.24 96.6488 48V44.64H98.0688V48C98.0688 52.08 100.749 55.12 103.529 56.5ZM132.932 54.16H115.492V53.08H123.512V50.58H117.932V44.44H130.452V50.58H124.892V53.08H132.932V54.16ZM129.112 49.5V45.52H119.272V49.5H129.112ZM131.972 60.68L131.292 61.68C128.332 61.26 125.252 59.82 124.192 57.84C123.152 59.82 120.052 61.26 117.112 61.68L116.392 60.68C119.712 60.26 123.452 58.52 123.452 56.04V55.54H124.932V56.04C124.932 58.52 128.692 60.26 131.972 60.68ZM156.836 60.82L155.976 61.74C154.436 60.94 152.856 59.4 152.316 57.94C151.816 59.34 150.356 60.9 148.936 61.66C147.536 60.9 146.076 59.34 145.576 57.94C145.056 59.4 143.456 60.94 141.896 61.74L141.056 60.82C142.916 59.94 144.896 57.92 144.896 55.76V54.8H146.236V55.76C146.236 57.6 147.716 59.48 148.936 60.26C150.156 59.48 151.656 57.6 151.656 55.76V54.8H152.996V55.76C152.996 57.92 154.956 59.94 156.836 60.82ZM140.536 54.02L139.796 53.06C144.196 51.94 147.496 49.08 148.076 45.86H140.856V44.78H149.596C149.176 49.7 145.036 52.68 140.536 54.02ZM154.556 53.9H153.236V43.86H154.556V48.14H157.276V49.26H154.556V53.9ZM175.354 54.9H167.314V61.64H165.934V54.9H157.894V53.82H175.354V54.9ZM174.394 50.88L173.654 51.86C170.614 51.16 167.754 49.48 166.614 47.34C165.494 49.48 162.634 51.16 159.594 51.86L158.834 50.88C162.234 50.2 165.914 48 165.914 45.18V44.32H167.334V45.18C167.334 48 171.014 50.2 174.394 50.88ZM191.073 61.64H189.753V43.86H191.073V50.2H194.073V51.34H191.073V61.64ZM188.893 55.16V56.24C186.653 56.7 183.153 56.92 180.473 56.92H177.713V45.04H186.293V46.12H179.033V55.82H180.473C183.153 55.82 186.493 55.6 188.893 55.16ZM201.556 57.82L200.536 56.96C204.676 54.64 206.816 50.2 207.056 46.24H201.536V45.16H208.496C208.396 50.66 205.756 55.26 201.556 57.82ZM212.516 60.8H211.216V51.7H208.176V50.58H211.216V44.16H212.516V60.8ZM216.176 61.64H214.856V43.86H216.176V61.64ZM234.514 61.36H222.134V55.44H223.474V60.28H234.514V61.36ZM233.774 57.06H232.454V43.86H233.774V48H236.494V49.1H233.774V57.06ZM231.574 51.42V52.48C229.514 52.94 226.234 53.18 223.454 53.18H220.114V44.38H221.434V52.08H223.454C226.154 52.08 229.374 51.86 231.574 51.42ZM240.493 59.66C240.493 60.3 239.993 60.78 239.353 60.78C238.673 60.78 238.173 60.3 238.173 59.66C238.173 59.06 238.673 58.54 239.353 58.54C239.993 58.54 240.493 59.06 240.493 59.66Z" fill="white"/>
</svg>
