<svg width="171" height="46" viewBox="0 0 171 46" fill="none" xmlns="http://www.w3.org/2000/svg">
<rect x="0.5" y="0.5" width="170" height="45" fill="#FF961E"/>
<rect x="0.5" y="0.5" width="170" height="45" stroke="black"/>
<path d="M23.04 28.8L23.24 29.8C22.22 30.12 20.98 30.24 19.8 30.24C15.98 30.24 14.16 27.68 14.14 24.34C14.1 21.24 15.98 18.6 19.2 18.62C22.5 18.62 23.98 20.76 23.98 23.94V24.66H15.42C15.5 27.16 16.92 29.26 19.84 29.24C20.86 29.24 22.02 29.12 23.04 28.8ZM15.38 23.68H22.72C22.72 23.64 22.76 23.46 22.72 23.42C22.7 21.04 21.38 19.62 19.2 19.62C16.72 19.62 15.54 21.6 15.38 23.68ZM28.5397 29.66C28.5397 30.3 28.0397 30.78 27.3997 30.78C26.7197 30.78 26.2197 30.3 26.2197 29.66C26.2197 29.06 26.7197 28.54 27.3997 28.54C28.0397 28.54 28.5397 29.06 28.5397 29.66ZM40.028 29.42V27.92H39.908C39.128 29.14 37.688 29.86 36.128 29.86C33.068 29.88 31.328 27.5 31.328 24.24C31.328 21 33.108 18.62 36.208 18.64C37.788 18.64 39.088 19.3 39.888 20.48H39.988V18.9H41.268V29.6C41.268 32.68 39.148 34.24 36.108 34.24C35.048 34.24 33.668 34.08 32.648 33.74L32.928 32.72C33.928 33.1 35.048 33.24 36.108 33.24C38.728 33.24 40.028 31.82 40.028 29.42ZM39.968 25.22V23.12C39.968 21.16 38.228 19.64 36.348 19.64C33.968 19.64 32.588 21.6 32.588 24.24C32.588 26.88 33.848 28.86 36.268 28.86C38.208 28.86 39.968 27.32 39.968 25.22ZM46.9186 29.66C46.9186 30.3 46.4186 30.78 45.7786 30.78C45.0986 30.78 44.5986 30.3 44.5986 29.66C44.5986 29.06 45.0986 28.54 45.7786 28.54C46.4186 28.54 46.9186 29.06 46.9186 29.66ZM72.1319 28.98H54.6519V27.9H66.7319C67.7319 24.4 68.3119 19.66 68.4719 16.26H56.7919V15.18H69.8719C69.6919 19.64 69.0919 24.36 68.1119 27.9H72.1319V28.98ZM85.5703 24.4H78.8703V23.38H85.5703V24.4ZM89.1903 26.58H75.4303V25.56H89.1903V26.58ZM82.3103 31.92C78.6103 31.92 76.5903 30.98 76.5903 29.68C76.5903 28.38 78.6103 27.44 82.3103 27.44C86.0103 27.44 88.0103 28.38 88.0103 29.68C88.0103 30.98 86.0103 31.92 82.3103 31.92ZM82.3103 28.42C79.5903 28.42 77.9303 28.92 77.9303 29.68C77.9303 30.44 79.5903 30.94 82.3103 30.94C85.0303 30.94 86.6703 30.44 86.6703 29.68C86.6703 28.92 85.0303 28.42 82.3103 28.42ZM85.7503 20.22V21.22C83.6703 21.68 80.4103 21.9 77.6103 21.9H74.4503V17.72H81.1903V15.62H74.4503V14.62H82.5103V18.72H75.7703V20.88H77.6103C80.3103 20.88 83.5503 20.64 85.7503 20.22ZM88.5503 23.4H87.2303V18.32H83.5503V17.26H87.2303V13.86H88.5503V23.4ZM108.909 24.9H100.869V31.64H99.4888V24.9H91.4488V23.82H108.909V24.9ZM107.949 20.88L107.209 21.86C104.169 21.16 101.309 19.48 100.169 17.34C99.0488 19.48 96.1888 21.16 93.1488 21.86L92.3888 20.88C95.7888 20.2 99.4688 18 99.4688 15.18V14.32H100.889V15.18C100.889 18 104.569 20.2 107.949 20.88ZM124.627 31.64H123.307V13.86H124.627V20.2H127.627V21.34H124.627V31.64ZM122.447 25.16V26.24C120.207 26.7 116.707 26.92 114.027 26.92H111.267V15.04H119.847V16.12H112.587V25.82H114.027C116.707 25.82 120.047 25.6 122.447 25.16ZM134.571 21.1C134.571 16.84 136.511 14.34 139.111 14.34C141.711 14.34 143.671 16.84 143.671 21.1C143.671 25.38 141.711 27.88 139.111 27.88C136.511 27.88 134.571 25.38 134.571 21.1ZM142.331 21.1C142.331 17.44 140.971 15.42 139.111 15.42C137.251 15.42 135.911 17.44 135.911 21.1C135.911 24.78 137.251 26.8 139.111 26.8C140.971 26.8 142.331 24.78 142.331 21.1ZM148.651 31.64H147.331V13.86H148.651V17.52H151.551V18.66H148.651V23.42H151.551V24.56H148.651V31.64ZM155.649 29.66C155.649 30.3 155.149 30.78 154.509 30.78C153.829 30.78 153.329 30.3 153.329 29.66C153.329 29.06 153.829 28.54 154.509 28.54C155.149 28.54 155.649 29.06 155.649 29.66Z" fill="white"/>
</svg>
