<svg width="152" height="182" viewBox="0 0 152 182" fill="none" xmlns="http://www.w3.org/2000/svg">
<rect x="0.75" y="0.75" width="150" height="180" fill="white"/>
<rect x="0.75" y="0.75" width="150" height="180" stroke="#FF961E" stroke-width="1.5"/>
<path d="M113.55 77.3V87.695C113.55 88.85 113.34 90.95 113.13 93.89C112.92 95.57 111.87 96.515 110.19 96.515C106.41 96.62 103.26 96.62 100.53 96.41C98.955 96.41 97.59 95.78 96.54 94.73C95.49 93.68 94.86 92.42 94.86 90.95C94.755 85.805 94.755 79.295 94.86 71.42C94.86 70.265 94.965 67.535 95.07 63.335C95.175 59.135 95.28 56.195 95.385 54.62C95.385 52.52 96.12 51.155 97.59 50.315C97.905 50.105 98.535 49.79 99.48 49.265C100.425 48.845 101.16 48.425 101.685 48.215C102.105 48.005 102.735 47.795 103.575 47.48C104.415 47.165 105.15 46.955 105.885 46.85C106.62 46.745 107.355 46.745 108.195 46.745C109.455 46.85 110.4 46.955 111.03 47.165C112.5 47.795 113.235 48.845 113.235 50.42C113.235 53.36 113.445 57.14 113.97 61.55C114.075 62.39 114.705 62.915 115.965 63.02C121.005 63.44 123.84 63.65 124.47 63.755C125.94 64.175 126.885 65.33 127.095 67.43C127.41 70.58 126.885 73.415 125.415 75.83C124.995 76.565 123.735 77.09 121.845 77.3H113.55ZM35.64 51.365C36.69 51.365 38.895 51.365 42.15 51.575C45.3 51.785 47.61 51.785 48.975 51.68C49.605 51.68 50.655 51.68 52.02 51.68C53.28 51.785 54.33 51.785 54.96 51.68C63.045 51.26 70.08 51.575 76.065 52.835C80.685 53.885 82.68 56.93 82.26 61.97C82.05 63.755 81.84 67.535 81.63 73.205C81.42 76.355 81.315 78.875 81.21 80.765C81 82.655 80.685 84.86 80.16 87.59C79.635 90.32 78.9 92.63 78.06 94.73C77.325 96.515 76.38 97.775 75.12 98.51C71.97 100.505 69.135 101.87 66.72 102.605C65.775 102.815 65.145 102.815 64.725 102.815C64.305 102.815 63.57 102.815 62.52 102.71C61.47 102.605 60.84 102.5 60.42 102.5C50.97 102.185 45.615 101.975 44.46 101.87C42.36 101.765 40.26 100.715 38.37 98.615C36.375 96.515 35.22 94.415 35.01 92.315C34.59 89.585 34.485 86.54 34.485 83.18C34.485 79.82 34.59 77.3 34.8 75.41C34.905 73.625 35.115 70.58 35.535 66.275C35.64 64.805 35.745 63.335 35.745 61.655C35.745 60.08 35.64 58.19 35.64 56.09C35.64 53.99 35.64 52.415 35.64 51.365ZM50.025 66.17V79.925C50.025 81.605 50.34 82.76 50.865 83.18C51.39 83.705 52.545 84.02 54.33 84.02C54.75 84.02 55.59 84.125 56.64 84.125C57.69 84.125 58.425 84.125 59.055 84.125C60.315 84.125 61.575 83.81 62.625 82.97C63.675 82.13 64.2 81.185 64.305 79.925C64.515 73.94 63.885 69.005 62.31 65.12L50.025 66.17ZM88.035 132.425C89.715 132.425 91.185 131.795 92.445 130.325C93.705 128.96 94.335 127.28 94.335 125.18C94.335 122.24 92.655 120.455 89.505 119.72C86.04 119.09 79.215 118.67 69.03 118.67H68.925C67.875 118.67 67.035 118.88 66.3 119.195C65.565 119.615 64.935 120.14 64.515 120.875C64.095 121.61 63.78 122.24 63.57 122.765C63.36 123.395 63.15 124.13 62.94 125.18C62.73 125.705 62.73 126.125 62.73 126.545C62.73 127.7 63.045 128.645 63.885 129.275C64.725 130.01 65.67 130.43 66.93 130.64C68.085 130.955 69.66 131.165 71.76 131.375C73.755 131.585 75.54 131.795 77.115 131.795C78.585 131.9 80.58 132.005 82.995 132.11C85.41 132.32 86.985 132.425 87.72 132.425H88.035ZM72.6 107.96C76.59 107.96 81.42 108.38 86.88 109.01C92.34 109.64 96.96 110.48 100.74 111.53C107.145 113.42 110.715 116.78 111.45 121.61C111.66 122.87 111.765 124.025 111.765 125.075C111.765 129.8 109.875 133.58 106.2 136.31C103.68 138.2 101.58 139.775 99.9 140.825C98.22 141.875 96.225 142.925 93.705 143.87C91.185 144.92 88.665 145.445 86.145 145.445C85.095 145.445 82.575 145.655 78.48 145.865C74.385 146.075 71.655 146.18 70.29 146.18C68.295 146.18 66.51 146.075 65.04 145.76C64.62 145.76 64.2 145.76 63.57 145.55C60.63 145.13 58.32 144.71 56.85 144.395C55.275 144.08 53.385 143.45 51.18 142.4C48.975 141.455 47.085 140.195 45.615 138.62C42.78 135.89 41.415 133.37 41.415 130.955C41.415 126.125 42.045 122.45 43.515 120.035C47.4 113.525 55.485 109.535 67.665 108.275C69.24 108.065 70.92 107.96 72.6 107.96Z" fill="#FF961E"/>
</svg>
