<svg width="152" height="182" viewBox="0 0 152 182" fill="none" xmlns="http://www.w3.org/2000/svg">
<rect x="0.75" y="0.75" width="150" height="180" fill="white"/>
<rect x="0.75" y="0.75" width="150" height="180" stroke="#FF961E" stroke-width="1.5"/>
<path d="M52.23 127.805C52.23 126.965 52.44 125.915 52.86 124.445C53.28 122.975 53.49 121.82 53.595 120.98C53.7 117.515 53.805 115.205 54.015 114.05C54.015 113.21 54.435 112.475 55.065 111.95C55.695 111.53 56.43 111.32 57.375 111.32C59.37 111.425 61.68 111.635 64.305 111.845C65.145 112.055 65.67 112.58 65.67 113.525C65.565 116.885 65.565 119.3 65.67 120.77C65.67 121.82 65.985 123.71 66.405 126.23C66.405 126.65 66.615 126.965 67.035 127.07C67.35 127.28 67.98 127.49 68.925 127.91C69.87 128.33 70.71 128.54 71.34 128.75C71.97 128.96 72.705 129.065 73.335 129.065C74.805 129.275 77.22 129.065 80.58 128.435C80.79 128.435 81 128.12 81.21 127.7C81.42 127.28 81.63 126.755 81.735 126.335C81.735 125.495 81.84 123.92 82.05 121.82C82.26 119.72 82.47 118.145 82.68 116.99C82.89 115.52 83.415 114.155 84.36 112.895C84.57 112.685 85.83 112.265 88.35 111.74C91.29 111.11 93.075 112.37 93.705 115.415C94.125 117.305 94.23 119.72 94.02 122.66C93.915 123.71 96.645 124.76 102.315 125.6C107.88 126.545 111.87 127.07 114.285 127.07H118.8C119.64 127.175 120.165 127.49 120.375 128.12C121.635 131.375 122.265 133.58 122.475 134.63C122.685 136.31 122.265 137.57 121.425 138.62C120.585 139.67 119.22 140.3 117.33 140.51C116.7 140.615 114.495 140.615 110.925 140.615C107.25 140.615 103.47 140.615 99.585 140.615C95.595 140.615 93.495 140.51 93.075 140.51C91.605 140.615 87.825 140.72 81.84 140.72C75.855 140.72 71.235 140.825 68.085 140.825C67.14 140.93 65.67 141.035 63.78 141.245C61.89 141.455 60.42 141.56 59.58 141.56C56.64 141.56 47.295 141.14 31.545 140.195H31.125C30.915 140.195 30.705 140.09 30.6 140.09C29.235 140.3 28.395 140.195 27.975 139.88C27.555 139.565 27.345 138.725 27.345 137.465C27.24 135.575 27.24 133.16 27.345 130.22C27.345 129.38 27.87 128.75 28.71 128.12C29.55 127.595 30.6 127.28 31.86 127.28C32.49 127.28 35.85 127.385 42.15 127.595C48.345 127.805 51.705 127.805 52.23 127.805ZM74.385 51.365C82.365 51.89 86.67 52.205 87.195 52.205C99.165 53.465 108.51 58.82 115.125 68.06C115.965 69.32 116.595 71.315 116.91 73.835C117.435 78.455 116.7 83.915 114.6 90.11C112.29 96.83 107.67 100.925 100.95 102.5C96.015 103.655 90.765 104.18 85.095 104.18C83.52 104.18 80.58 104.285 76.275 104.495C71.97 104.705 68.715 104.81 66.405 104.6C57.69 104.18 50.235 102.395 44.145 99.455C40.575 97.775 37.95 95.465 36.375 92.42C34.695 89.48 34.065 86.015 34.485 82.025C35.115 75.305 38.16 68.9 43.725 62.705C46.245 59.87 49.29 57.665 52.65 56.09C56.01 54.515 60 53.255 64.62 52.205C65.565 51.995 66.615 51.89 67.77 51.785C68.82 51.68 70.08 51.575 71.445 51.575C72.81 51.575 73.755 51.47 74.385 51.365ZM74.91 90.53C80.685 90.11 83.835 89.795 84.255 89.69C86.04 89.48 87.825 88.64 89.715 87.17C91.5 85.7 92.445 84.23 92.655 82.76C93.075 79.4 92.655 76.565 91.5 74.36C90.345 72.155 88.14 70.58 84.78 69.635C77.64 67.745 71.235 67.535 65.565 69.215C65.355 69.32 65.04 69.425 64.62 69.53C64.2 69.635 63.885 69.74 63.675 69.74C63.465 69.845 63.15 69.95 62.73 70.055C62.31 70.265 62.1 70.37 61.89 70.475C61.68 70.685 61.365 70.79 61.155 71C60.945 71.21 60.735 71.315 60.63 71.525C59.055 73.73 57.375 76.88 55.59 80.975C54.225 84.125 55.17 86.225 58.53 87.38C60.945 88.22 62.73 88.85 63.99 89.27C65.145 89.69 66.825 90.005 68.925 90.32C71.025 90.74 73.02 90.74 74.91 90.53Z" fill="#FF961E"/>
</svg>
