<svg width="152" height="182" viewBox="0 0 152 182" fill="none" xmlns="http://www.w3.org/2000/svg">
<rect x="0.75" y="0.75" width="150" height="180" fill="white"/>
<rect x="0.75" y="0.75" width="150" height="180" stroke="#FF961E" stroke-width="1.5"/>
<path d="M96.12 50.21C100.11 50 102.315 49.895 102.525 49.895C104.835 50 107.04 50.21 109.35 50.525C111.66 50.84 113.655 51.05 115.44 51.155C117.435 51.365 118.485 52.52 118.59 54.515C118.59 57.035 118.8 60.92 119.115 66.065C119.43 71.315 119.64 75.2 119.745 77.825C119.85 79.82 119.85 83.39 119.85 88.43C119.85 93.575 119.85 97.145 119.85 99.035C119.85 101.87 119.85 107.645 119.85 116.465C119.85 125.285 119.85 131.165 119.85 134V134.21C119.85 135.68 119.64 137.15 119.22 138.41C118.275 141.035 116.595 142.295 114.18 142.19C113.025 142.19 111.66 142.295 110.19 142.295C108.72 142.295 107.46 142.295 106.41 142.085C105.57 142.085 104.625 141.77 103.785 141.245C102.84 140.825 102.21 140.195 102 139.565C99.9 134.525 98.85 130.64 98.745 127.91C98.43 121.82 98.22 111.425 98.115 96.935C98.01 82.445 97.905 72.575 97.695 67.22C97.695 65.54 97.59 63.86 97.38 61.97C97.17 60.08 96.96 57.98 96.75 55.565L96.12 50.21ZM56.85 138.305C47.715 138.2 40.155 135.05 34.065 128.75C31.965 126.65 30.495 123.08 29.865 118.04C28.815 111.11 28.29 104.915 28.395 99.56C28.395 90.32 30.39 81.395 34.38 72.785C34.695 72.05 35.01 71.525 35.325 71.21C40.785 65.75 44.25 62.39 45.72 61.13C46.035 60.815 46.455 60.605 46.98 60.395C47.4 60.29 48.03 60.185 48.87 60.08C49.605 59.975 50.13 59.87 50.445 59.87C55.17 58.82 59.685 59.135 63.885 60.815C68.085 62.495 72.495 65.225 76.905 68.795C78.69 70.475 80.16 71.945 81.21 73.31C82.26 74.675 82.995 76.25 83.415 78.035C84.255 82.55 84.57 86.33 84.255 89.27C83.625 96.41 82.47 104.18 81 112.685C79.215 122.66 74.595 130.01 67.035 134.63C62.415 137.57 58.95 138.725 56.85 138.305ZM68.295 94.52C68.19 94.31 68.085 93.68 67.98 92.84C67.77 92 67.665 91.37 67.56 90.95C67.455 90.635 67.35 90.11 67.14 89.48C66.93 88.85 66.72 88.325 66.405 87.8C66.09 87.38 65.775 86.855 65.355 86.435C62.835 83.81 60.105 82.76 57.165 83.285C54.12 83.915 52.02 85.91 50.76 89.375C49.185 93.365 48.765 96.935 49.395 100.085C49.605 101.345 49.815 103.34 50.13 105.965C50.445 108.695 50.76 110.69 51.075 112.055C51.39 113.63 52.335 114.995 54.015 116.15C55.59 117.305 57.165 117.83 58.845 117.83C60 117.83 61.155 117.41 62.415 116.465C63.57 115.625 64.305 114.47 64.62 113C64.83 111.845 66.09 105.65 68.295 94.52Z" fill="#FF961E"/>
</svg>
