<svg width="152" height="182" viewBox="0 0 152 182" fill="none" xmlns="http://www.w3.org/2000/svg">
<rect x="0.75" y="0.75" width="150" height="180" fill="white"/>
<rect x="0.75" y="0.75" width="150" height="180" stroke="#FF961E" stroke-width="1.5"/>
<path d="M56.85 138.305C47.715 138.2 40.155 135.05 34.065 128.75C31.965 126.65 30.495 123.08 29.865 118.04C28.815 111.11 28.29 104.915 28.395 99.56C28.395 90.32 30.39 81.395 34.38 72.785C34.695 72.05 35.01 71.525 35.325 71.21C40.785 65.75 44.25 62.39 45.72 61.13C46.035 60.815 46.455 60.605 46.98 60.395C47.4 60.29 48.03 60.185 48.87 60.08C49.605 59.975 50.13 59.87 50.445 59.87C55.17 58.82 59.685 59.135 63.885 60.815C68.085 62.495 72.495 65.225 76.905 68.795C78.69 70.475 80.16 71.945 81.21 73.31C82.26 74.675 82.995 76.25 83.415 78.035C83.835 80.135 84.045 82.025 84.255 83.6C84.465 82.55 84.885 81.29 85.515 79.925C87.195 76.145 90.135 74.465 94.44 74.675C95.07 74.78 95.91 74.78 96.75 74.675C97.59 74.675 98.535 74.57 99.69 74.36C100.74 74.255 101.685 74.15 102.315 74.15V64.385V62.6V60.71C102.315 57.14 102.63 54.83 103.47 53.885C104.31 52.94 106.515 52.205 110.19 51.68C110.61 51.68 111.87 51.26 113.97 50.525C116.7 49.475 118.905 49.58 120.375 50.63C121.845 51.785 122.58 53.78 122.58 56.72C122.475 61.025 122.16 72.68 121.635 91.58C121.11 108.59 120.69 120.875 120.48 128.33C120.27 130.43 119.955 132.425 119.535 134.42C118.485 137.99 116.595 139.775 113.865 139.67C113.235 139.67 112.185 139.565 110.82 139.565C109.35 139.565 108.195 139.565 107.145 139.565C106.095 139.565 105.045 139.46 104.1 139.25C103.155 139.145 102.42 138.725 101.895 137.99C101.265 137.36 101.055 136.415 101.16 135.155C101.265 133.685 101.37 130.85 101.475 126.86C101.58 122.87 101.685 120.665 101.685 120.035C101.685 119.615 101.79 118.88 101.79 117.62C101.685 115.94 100.74 115.31 98.955 115.625C96.435 116.045 93.285 116.57 89.505 117.095C88.455 117.305 87.72 117.095 87.09 116.57C86.46 116.045 86.145 115.31 86.355 114.47C86.775 110.375 87.51 106.595 88.56 103.13C88.56 103.025 88.665 102.92 88.875 102.71C89.085 102.605 89.295 102.5 89.715 102.395C90.03 102.29 90.345 102.185 90.555 102.08C90.765 102.08 91.185 101.975 91.605 101.87C92.025 101.765 92.34 101.66 92.55 101.66C93.18 101.555 94.23 101.345 95.7 101.135C97.17 100.925 98.22 100.61 99.06 100.4C99.48 100.4 100.005 100.295 100.845 100.085C101.58 99.98 102.105 99.875 102.42 99.77C102.735 99.665 103.155 99.455 103.575 99.245C103.995 99.035 104.205 98.72 104.31 98.3C104.415 97.88 104.52 97.355 104.52 96.725C104.415 96.305 104.415 93.995 104.415 89.585C97.275 90.11 93.39 90.32 92.76 90.32L90.87 90.635C90.03 90.845 89.295 90.95 88.875 90.95C88.35 91.055 87.825 90.95 87.195 90.74C86.565 90.53 86.04 90.11 85.62 89.48C84.99 88.745 84.57 88.01 84.36 87.17C84.36 87.905 84.255 88.64 84.255 89.27C83.625 96.41 82.47 104.18 81 112.685C79.215 122.66 74.595 130.01 67.035 134.63C62.415 137.57 58.95 138.725 56.85 138.305ZM68.295 94.52C68.19 94.31 68.085 93.68 67.98 92.84C67.77 92 67.665 91.37 67.56 90.95C67.455 90.635 67.35 90.11 67.14 89.48C66.93 88.85 66.72 88.325 66.405 87.8C66.09 87.38 65.775 86.855 65.355 86.435C62.835 83.81 60.105 82.76 57.165 83.285C54.12 83.915 52.02 85.91 50.76 89.375C49.185 93.365 48.765 96.935 49.395 100.085C49.605 101.345 49.815 103.34 50.13 105.965C50.445 108.695 50.76 110.69 51.075 112.055C51.39 113.63 52.335 114.995 54.015 116.15C55.59 117.305 57.165 117.83 58.845 117.83C60 117.83 61.155 117.41 62.415 116.465C63.57 115.625 64.305 114.47 64.62 113C64.83 111.845 66.09 105.65 68.295 94.52Z" fill="#FF961E"/>
</svg>
