<svg width="152" height="182" viewBox="0 0 152 182" fill="none" xmlns="http://www.w3.org/2000/svg">
<rect x="0.75" y="0.75" width="150" height="180" fill="white"/>
<rect x="0.75" y="0.75" width="150" height="180" stroke="#FF961E" stroke-width="1.5"/>
<path d="M58.425 67.745C54.645 66.905 49.92 67.01 44.25 68.06C38.58 69.11 34.59 69.635 32.49 69.53C33.225 63.23 33.75 58.715 34.17 55.985C39.735 55.25 42.675 54.83 43.095 54.83C52.545 54.305 58.635 54.095 61.575 54.2C63.045 54.305 64.515 54.515 65.985 54.725C67.455 55.04 69.345 55.46 71.655 55.985C73.86 56.615 75.33 56.93 76.17 57.035C78.69 57.665 79.635 59.45 78.795 62.285C77.955 65.12 77.325 67.115 76.905 68.375C76.485 69.635 75.645 71.21 74.595 73.31C73.545 75.41 72.285 77.09 70.815 78.455C70.395 78.875 69.87 79.4 69.24 80.03C68.505 80.66 67.98 81.185 67.77 81.395C67.56 81.605 67.245 81.92 67.035 82.34C66.825 82.76 66.72 83.18 66.825 83.39C66.93 83.705 67.14 84.02 67.56 84.44C67.875 84.86 68.4 85.28 69.135 85.7C69.555 86.015 70.185 86.645 71.235 87.485C72.18 88.325 72.81 88.955 73.02 89.27C73.965 90.635 75.225 92 76.695 93.47C78.165 94.94 79.32 96.305 80.265 97.67C81.945 100.19 81.63 102.08 79.11 103.34C78.27 103.865 77.115 104.6 75.645 105.65C74.175 106.7 73.125 107.33 72.6 107.645C72.075 108.065 71.655 108.275 71.235 108.38C70.815 108.485 70.29 108.485 69.765 108.275C69.24 108.065 68.925 107.96 68.715 107.855C68.505 107.855 68.085 107.54 67.35 107.015C66.615 106.595 66.195 106.28 66.09 106.175C65.565 105.965 65.25 105.755 65.145 105.545C64.935 105.335 64.83 105.23 64.83 105.125C64.83 105.02 64.62 104.705 64.305 104.285C63.885 103.865 63.36 103.235 62.625 102.5C62.31 102.29 61.785 101.66 60.945 100.505C60.105 99.455 59.265 98.51 58.635 97.88C56.535 95.78 54.225 94.835 51.705 94.835C49.185 94.835 46.14 96.095 42.36 98.615C40.26 99.98 38.055 101.765 35.745 103.97C33.645 105.86 32.385 105.44 31.755 102.815C30.39 97.355 29.655 93.995 29.445 92.63C29.025 90.32 29.34 88.22 30.39 86.435C31.44 84.755 33.225 83.495 35.64 82.655C39.21 81.605 42.57 80.135 45.615 78.035C48.555 75.935 52.02 73.205 56.01 69.74C56.01 69.74 56.85 69.11 58.425 67.745ZM119.85 50C119.85 50.945 119.85 52.73 119.85 55.25C119.745 57.77 119.745 59.45 119.955 60.29C120.585 65.12 120.06 76.04 118.485 92.945C118.275 94.205 118.065 97.25 117.75 101.975C117.33 106.805 117.12 109.955 117.015 111.425C116.805 113.105 115.86 113.945 114.18 113.945C113.34 113.945 111.03 113.945 107.04 113.945C103.05 113.945 100.425 113.84 99.27 113.84C98.01 113.84 97.275 112.895 96.96 111.005C96.12 106.805 96.12 99.875 96.96 90.215C97.065 89.27 97.275 82.34 97.485 69.425V61.55V53.57C97.485 52.52 98.115 51.68 99.375 51.05C100.11 50.735 101.055 50.42 102.21 50.21C103.365 50 104.73 49.79 106.41 49.58C108.09 49.475 109.35 49.37 110.19 49.37C111.03 49.37 112.5 49.265 114.495 49.16L117.435 49.055C117.645 49.055 118.065 49.265 118.8 49.475C119.43 49.685 119.85 49.895 119.85 50ZM70.395 125.39C84.675 124.55 92.76 124.13 94.545 123.92C96.33 123.815 98.43 123.605 100.95 123.395C103.47 123.185 105.57 122.975 107.25 122.765C108.93 122.555 110.4 122.45 111.45 122.45C112.815 122.45 113.865 124.235 114.495 127.595C114.6 128.33 114.705 129.8 114.705 131.9C114.705 134.315 114.075 136.73 112.815 139.25C112.395 139.985 111.45 140.51 109.98 140.72C108.51 140.93 103.575 141.245 95.175 141.665C86.775 142.085 81.84 142.4 80.265 142.61C79.845 142.715 79.53 142.715 79.11 142.715C77.325 142.715 73.545 142.82 67.77 142.925C61.995 143.03 57.795 143.135 55.17 143.24C54.54 143.24 53.385 143.345 51.915 143.45C50.445 143.555 49.29 143.555 48.555 143.555C46.14 143.555 44.145 143.135 42.675 142.19C42.15 141.98 41.73 141.455 41.31 140.825C40.89 140.195 40.785 139.67 40.785 139.04C40.47 135.995 40.26 131.69 40.05 126.02C39.84 120.35 39.63 116.465 39.525 114.26L39.42 112.79C39.42 111.74 39.42 110.795 39.42 109.745L39.315 108.275C39.525 108.275 40.05 108.17 40.995 107.96C41.94 107.75 42.57 107.54 42.885 107.435C43.62 107.33 45.3 107.225 47.925 107.225C50.97 107.225 52.86 107.435 53.7 107.645C54.54 107.96 54.96 108.485 54.96 109.22C54.96 109.535 55.065 110.27 55.275 111.32C55.485 112.37 55.695 113.105 55.695 113.42C55.695 114.575 55.905 116.675 56.535 119.825C56.535 120.245 56.64 121.19 56.85 122.555C56.955 123.92 57.165 125.075 57.48 126.125L70.395 125.39Z" fill="#FF961E"/>
</svg>
