<svg width="152" height="182" viewBox="0 0 152 182" fill="none" xmlns="http://www.w3.org/2000/svg">
<rect x="0.75" y="0.75" width="150" height="180" fill="white"/>
<rect x="0.75" y="0.75" width="150" height="180" stroke="#FF961E" stroke-width="1.5"/>
<path d="M122.16 127.595C122.055 128.435 122.055 129.59 122.265 130.85C122.475 132.215 122.475 133.475 122.475 134.63C122.475 135.785 122.16 136.835 121.74 137.78C120.9 139.355 120.06 140.3 119.01 140.51C117.75 140.825 116.28 141.14 114.39 141.35C112.5 141.665 110.82 141.875 109.455 141.98C108.09 142.085 107.46 142.085 107.46 141.98H52.02C50.13 142.085 47.295 142.19 43.515 142.295C39.735 142.4 36.9 142.4 35.01 142.4C32.91 142.505 30.915 142.085 29.025 141.14L27.66 133.055L29.025 129.065C29.445 127.805 30.285 127.175 31.545 127.07L39.945 126.23C48.345 126.23 57.375 126.02 66.93 125.81C66.09 124.97 65.67 124.025 65.67 123.185C65.46 121.925 65.355 120.14 65.355 117.83C65.25 115.52 65.145 113.84 65.145 113C65.145 112.16 65.25 111.53 65.565 111.11C65.775 110.69 66.405 110.48 67.35 110.48C68.4 110.585 70.395 110.585 73.125 110.585C75.855 110.585 77.745 110.48 78.9 110.48C81.105 110.585 82.575 111.11 83.415 112.16C84.255 113.21 84.885 115.205 85.41 118.145C85.725 120.35 85.2 122.765 83.835 125.495C95.175 125.285 102.63 125.075 105.99 124.865C110.085 124.76 113.34 124.76 115.65 124.97C116.28 124.97 118.17 125.6 121.32 126.65C121.425 126.755 121.635 126.86 121.845 127.07C122.055 127.28 122.16 127.49 122.16 127.595ZM56.115 85.385C68.19 84.755 75.015 84.44 76.59 84.335C77.85 84.23 79.845 84.125 82.575 83.915C85.305 83.705 87.3 83.6 88.77 83.495C96.12 83.075 100.635 82.97 102.21 82.97C104.625 83.075 107.25 83.6 109.98 84.545C112.29 85.385 113.76 86.225 114.18 86.855C114.6 87.59 114.705 89.06 114.285 91.37C113.97 93.05 113.655 94.625 113.235 96.305C112.815 97.985 112.29 99.77 111.66 101.87C111.03 103.97 110.61 105.44 110.4 106.28C108.09 106.28 104.835 106.385 100.425 106.385C96.015 106.385 92.235 106.385 89.085 106.385C85.935 106.385 82.89 106.28 79.95 106.175C76.8 106.07 73.44 105.86 69.975 105.65C66.405 105.44 62.52 105.125 58.11 104.705C53.7 104.285 50.445 104.075 48.24 103.865C47.4 103.865 46.35 103.76 45.09 103.76C43.725 103.76 42.99 103.76 42.78 103.655C40.05 103.655 38.37 103.13 37.74 102.08C37.005 101.03 36.69 99.245 36.795 96.515C36.9 94.94 37.215 92.525 37.74 89.375L38.685 84.02C38.79 82.865 39 81.185 39.315 78.875C39.525 76.565 39.735 74.885 39.945 73.835C40.89 66.065 41.52 61.445 41.94 59.975C42.99 54.725 47.085 52.52 54.015 53.15C57.48 53.78 61.365 53.99 65.565 53.885C69.765 53.885 73.545 53.255 77.115 52.205C77.745 51.995 78.48 51.785 79.32 51.68C80.16 51.68 81 51.68 82.05 51.68C82.995 51.785 83.73 51.89 84.36 51.89C84.99 51.995 85.935 52.1 87.195 52.31C88.455 52.52 89.19 52.625 89.61 52.625C92.13 53.045 95.7 53.675 100.32 54.515C104.94 55.355 108.3 55.985 110.4 56.3C111.975 56.615 113.13 57.14 113.76 57.77C114.39 58.4 114.705 59.555 114.495 61.025C114.285 61.865 114.075 63.44 113.865 65.645C113.55 67.955 113.34 69.635 113.13 70.79C112.395 74.255 109.98 75.935 105.885 75.83C103.575 75.83 100.32 75.83 96.12 75.62C91.815 75.41 88.77 75.305 86.88 75.305C80.475 75.2 74.91 75.2 70.08 75.41C69.03 75.41 67.35 75.62 65.25 75.935C63.15 76.355 61.575 76.46 60.525 76.46C59.16 76.46 58.215 76.775 57.585 77.195C56.955 77.615 56.64 78.455 56.64 79.61C56.64 79.82 56.43 81.815 56.115 85.385Z" fill="#FF961E"/>
</svg>
