<svg width="152" height="182" viewBox="0 0 152 182" fill="none" xmlns="http://www.w3.org/2000/svg">
<rect x="0.75" y="0.75" width="150" height="180" fill="white"/>
<rect x="0.75" y="0.75" width="150" height="180" stroke="#FF961E" stroke-width="1.5"/>
<path d="M103.05 140.51C99.69 140.51 97.38 139.985 96.12 138.725C94.86 137.465 94.23 135.155 94.02 131.69C93.495 121.925 93.285 115.205 93.285 111.53C93.285 106.385 93.6 90.11 94.335 62.81C94.335 62.075 94.44 61.235 94.65 60.395C94.755 59.555 94.86 58.82 95.07 58.19C95.175 57.56 95.385 56.825 95.7 55.775C95.91 54.725 96.12 53.99 96.33 53.36C96.54 52.52 96.96 51.89 97.695 51.68C97.905 51.68 98.64 51.47 99.795 51.155C100.95 50.84 101.79 50.63 102.21 50.525C102.63 50.42 103.26 50.315 104.31 50.105C105.255 49.895 105.99 49.895 106.62 49.895C107.25 49.895 107.985 50 108.825 50.21C109.665 50.42 110.4 50.63 111.24 50.945C113.235 51.995 114.39 53.885 114.6 56.615C114.6 57.875 114.705 62.075 114.81 69.32C114.81 76.565 115.02 81.08 115.23 82.865C115.44 84.125 116.175 85.49 117.435 86.855C118.065 87.59 118.695 88.325 119.43 89.06C120.165 89.9 121.005 90.74 121.95 91.58C122.79 92.525 123.525 93.26 124.155 93.68C124.995 94.52 125.52 95.465 125.94 96.41C126.36 97.46 126.465 98.615 126.36 99.875C126.255 101.135 126.15 102.08 126.045 102.71C125.835 103.34 125.625 104.495 125.205 105.965C124.575 108.485 122.37 109.85 118.59 109.85C116.595 109.85 115.335 110.165 114.915 110.69C114.39 111.32 114.18 112.685 114.285 114.995C114.285 116.57 114.285 119.405 114.39 123.395C114.495 127.385 114.6 130.115 114.6 131.48C114.6 134.315 113.865 136.205 112.185 137.15C107.985 139.46 104.94 140.615 103.05 140.51ZM56.85 138.305C47.715 138.2 40.155 135.05 34.065 128.75C31.965 126.65 30.495 123.08 29.865 118.04C28.815 111.11 28.29 104.915 28.395 99.56C28.395 90.32 30.39 81.395 34.38 72.785C34.695 72.05 35.01 71.525 35.325 71.21C40.785 65.75 44.25 62.39 45.72 61.13C46.035 60.815 46.455 60.605 46.98 60.395C47.4 60.29 48.03 60.185 48.87 60.08C49.605 59.975 50.13 59.87 50.445 59.87C55.17 58.82 59.685 59.135 63.885 60.815C68.085 62.495 72.495 65.225 76.905 68.795C78.69 70.475 80.16 71.945 81.21 73.31C82.26 74.675 82.995 76.25 83.415 78.035C84.255 82.55 84.57 86.33 84.255 89.27C83.625 96.41 82.47 104.18 81 112.685C79.215 122.66 74.595 130.01 67.035 134.63C62.415 137.57 58.95 138.725 56.85 138.305ZM68.295 94.52C68.19 94.31 68.085 93.68 67.98 92.84C67.77 92 67.665 91.37 67.56 90.95C67.455 90.635 67.35 90.11 67.14 89.48C66.93 88.85 66.72 88.325 66.405 87.8C66.09 87.38 65.775 86.855 65.355 86.435C62.835 83.81 60.105 82.76 57.165 83.285C54.12 83.915 52.02 85.91 50.76 89.375C49.185 93.365 48.765 96.935 49.395 100.085C49.605 101.345 49.815 103.34 50.13 105.965C50.445 108.695 50.76 110.69 51.075 112.055C51.39 113.63 52.335 114.995 54.015 116.15C55.59 117.305 57.165 117.83 58.845 117.83C60 117.83 61.155 117.41 62.415 116.465C63.57 115.625 64.305 114.47 64.62 113C64.83 111.845 66.09 105.65 68.295 94.52Z" fill="#FF961E"/>
</svg>
