<svg width="152" height="182" viewBox="0 0 152 182" fill="none" xmlns="http://www.w3.org/2000/svg">
<rect x="0.75" y="0.75" width="150" height="180" fill="white"/>
<rect x="0.75" y="0.75" width="150" height="180" stroke="#FF961E" stroke-width="1.5"/>
<path d="M113.55 77.3V87.695C113.55 88.85 113.34 90.95 113.13 93.89C112.92 95.57 111.87 96.515 110.19 96.515C106.41 96.62 103.26 96.62 100.53 96.41C98.955 96.41 97.59 95.78 96.54 94.73C95.49 93.68 94.86 92.42 94.86 90.95C94.755 85.805 94.755 79.295 94.86 71.42C94.86 70.265 94.965 67.535 95.07 63.335C95.175 59.135 95.28 56.195 95.385 54.62C95.385 52.52 96.12 51.155 97.59 50.315C97.905 50.105 98.535 49.79 99.48 49.265C100.425 48.845 101.16 48.425 101.685 48.215C102.105 48.005 102.735 47.795 103.575 47.48C104.415 47.165 105.15 46.955 105.885 46.85C106.62 46.745 107.355 46.745 108.195 46.745C109.455 46.85 110.4 46.955 111.03 47.165C112.5 47.795 113.235 48.845 113.235 50.42C113.235 53.36 113.445 57.14 113.97 61.55C114.075 62.39 114.705 62.915 115.965 63.02C121.005 63.44 123.84 63.65 124.47 63.755C125.94 64.175 126.885 65.33 127.095 67.43C127.41 70.58 126.885 73.415 125.415 75.83C124.995 76.565 123.735 77.09 121.845 77.3H113.55ZM58.425 64.595C54.645 63.755 49.92 63.86 44.25 64.91C38.58 65.96 34.59 66.485 32.49 66.38C33.225 60.08 33.75 55.565 34.17 52.835C39.735 52.1 42.675 51.68 43.095 51.68C52.545 51.155 58.635 50.945 61.575 51.05C63.045 51.155 64.515 51.365 65.985 51.575C67.455 51.89 69.345 52.31 71.655 52.835C73.86 53.465 75.33 53.78 76.17 53.885C78.69 54.515 79.635 56.3 78.795 59.135C77.955 61.97 77.325 63.965 76.905 65.225C76.485 66.485 75.645 68.06 74.595 70.16C73.545 72.26 72.285 73.94 70.815 75.305C70.395 75.725 69.87 76.25 69.24 76.88C68.505 77.51 67.98 78.035 67.77 78.245C67.56 78.455 67.245 78.77 67.035 79.19C66.825 79.61 66.72 80.03 66.825 80.24C66.93 80.555 67.14 80.87 67.56 81.29C67.875 81.71 68.4 82.13 69.135 82.55C69.555 82.865 70.185 83.495 71.235 84.335C72.18 85.175 72.81 85.805 73.02 86.12C73.965 87.485 75.225 88.85 76.695 90.32C78.165 91.79 79.32 93.155 80.265 94.52C81.945 97.04 81.63 98.93 79.11 100.19C78.27 100.715 77.115 101.45 75.645 102.5C74.175 103.55 73.125 104.18 72.6 104.495C72.075 104.915 71.655 105.125 71.235 105.23C70.815 105.335 70.29 105.335 69.765 105.125C69.24 104.915 68.925 104.81 68.715 104.705C68.505 104.705 68.085 104.39 67.35 103.865C66.615 103.445 66.195 103.13 66.09 103.025C65.565 102.815 65.25 102.605 65.145 102.395C64.935 102.185 64.83 102.08 64.83 101.975C64.83 101.87 64.62 101.555 64.305 101.135C63.885 100.715 63.36 100.085 62.625 99.35C62.31 99.14 61.785 98.51 60.945 97.355C60.105 96.305 59.265 95.36 58.635 94.73C56.535 92.63 54.225 91.685 51.705 91.685C49.185 91.685 46.14 92.945 42.36 95.465C40.26 96.83 38.055 98.615 35.745 100.82C33.645 102.71 32.385 102.29 31.755 99.665C30.39 94.205 29.655 90.845 29.445 89.48C29.025 87.17 29.34 85.07 30.39 83.285C31.44 81.605 33.225 80.345 35.64 79.505C39.21 78.455 42.57 76.985 45.615 74.885C48.555 72.785 52.02 70.055 56.01 66.59C56.01 66.59 56.85 65.96 58.425 64.595ZM47.925 119.72C47.715 119.72 47.19 119.825 46.35 119.825C45.51 119.93 44.88 119.93 44.565 119.93C44.145 119.93 43.725 119.93 43.095 119.825C42.465 119.72 41.94 119.51 41.73 119.3C41.415 119.09 41.1 118.67 40.785 118.145C40.47 117.62 40.26 116.99 40.26 116.15C40.155 115.73 40.05 114.89 39.84 113.735C39.63 112.685 39.525 111.74 39.525 110.9C39.525 109.85 39.63 108.695 39.945 107.645C39.945 107.225 40.26 106.7 40.89 106.175C41.52 105.755 42.15 105.44 42.885 105.44C71.235 105.335 90.975 105.65 102.315 106.385C104.625 106.595 106.41 106.805 107.775 107.225C109.35 107.855 110.295 108.59 110.61 109.535C110.925 111.005 111.135 112.475 111.135 113.945C111.135 115.73 110.82 117.83 110.4 120.245C109.56 124.34 107.46 127.28 103.995 128.96C102.105 129.905 98.64 130.64 93.705 131.06C91.92 131.27 89.4 131.375 86.04 131.375C82.68 131.48 80.37 131.585 79.005 131.69C78.795 131.69 75.015 131.795 67.77 131.9C60.42 132.005 56.43 132.11 55.695 132.32L55.8 135.155C57.06 135.155 61.785 135.155 69.975 134.945C78.165 134.84 82.995 134.735 84.255 134.735C87.09 134.735 89.61 134.735 91.815 134.63C93.285 134.63 95.595 134.525 98.64 134.315C101.58 134.105 103.785 134 105.255 133.895H105.465C107.355 133.895 108.405 134.63 108.405 136.1V136.625C107.775 139.88 107.25 142.4 106.83 144.08C106.305 145.76 105.465 146.915 104.31 147.545C103.155 148.175 101.265 148.49 98.535 148.49H97.275C94.545 148.49 90.66 148.28 85.725 147.965C80.79 147.65 77.325 147.44 75.33 147.23C72.18 147.125 69.45 147.125 67.035 147.23C64.62 147.44 61.89 147.44 58.95 147.23C56.01 147.125 53.385 146.81 51.075 146.285C47.925 145.655 45.72 144.605 44.46 142.925C43.2 141.245 42.465 139.04 42.045 136.205C41.94 135.785 41.94 134.63 41.94 132.53C41.94 132.425 41.94 131.585 42.045 130.115C42.045 127.91 42.675 126.335 43.725 125.495C44.775 124.655 46.56 124.235 49.29 124.13C59.37 123.92 72.705 123.395 89.4 122.66C91.5 122.66 92.55 121.925 92.55 120.455V119.93C92.445 119.51 92.445 119.09 92.445 118.67V118.145C92.445 117.935 91.92 117.83 90.87 117.83C89.82 117.83 87.93 117.83 85.2 117.935C82.47 118.04 79.635 118.145 76.59 118.355C73.545 118.565 69.24 118.775 63.78 118.985C58.32 119.3 52.965 119.51 47.925 119.72Z" fill="#FF961E"/>
</svg>
