<svg width="452" height="182" viewBox="0 0 452 182" fill="none" xmlns="http://www.w3.org/2000/svg">
<rect x="0.75" y="0.75" width="150" height="180" fill="white"/>
<rect x="0.75" y="0.75" width="150" height="180" stroke="#FF961E" stroke-width="1.5"/>
<path d="M105.465 95.675C104.52 95.57 103.575 95.465 102.735 95.36C102.105 95.36 101.055 95.255 99.795 95.15C98.535 95.15 97.59 95.045 97.17 95.045C95.91 95.045 95.07 94.94 94.545 94.73C94.02 94.625 93.6 94.415 93.285 94.205C92.865 93.995 92.655 93.68 92.445 93.26C92.235 92.945 92.025 92.525 92.025 92C91.815 91.685 91.71 91.055 91.605 90.215C91.395 89.585 91.29 88.955 91.29 88.43C91.08 87.59 90.975 86.96 90.975 86.54C90.87 85.805 90.87 85.175 91.08 84.65C91.29 84.125 91.605 83.705 92.13 83.285C92.55 83.075 93.075 82.76 93.81 82.55C94.44 82.34 95.385 82.235 96.645 82.13C97.275 82.13 98.22 82.025 99.48 81.92C100.74 81.815 101.79 81.71 102.42 81.605C103.05 81.605 103.575 81.605 103.89 81.5C104.52 81.5 104.94 81.395 105.255 81.185C105.36 81.185 105.465 81.08 105.675 80.87C105.675 80.765 105.78 80.66 105.99 80.45C105.99 80.345 105.99 80.24 105.99 80.03C105.99 79.82 106.095 78.98 106.095 77.405V76.04V74.675V71.945C105.885 72.05 105.78 72.05 105.675 72.05H105.255C105.045 72.155 104.94 72.155 104.835 72.155C103.575 72.365 102.63 72.47 102.105 72.47C98.745 72.68 96.855 72.89 96.435 72.89C96.225 72.89 96.015 72.995 95.7 72.995C95.385 73.1 95.175 73.1 95.07 73.1C94.44 73.205 93.915 73.205 93.705 73.1C93.495 73.1 93.285 73.1 93.075 72.995C92.865 72.89 92.655 72.68 92.55 72.47C92.34 72.365 92.235 72.155 92.13 71.945C91.71 71.315 91.395 70.16 91.185 68.69C90.975 67.43 90.87 66.38 90.975 65.33C90.975 64.805 90.975 64.28 91.185 63.65C91.29 63.02 91.5 62.39 91.71 61.97C91.71 61.76 91.815 61.655 92.025 61.445C92.13 61.34 92.34 61.235 92.55 61.025C92.655 61.025 92.865 60.92 93.075 60.815C93.495 60.71 94.545 60.605 96.33 60.395C96.96 60.395 98.01 60.395 99.48 60.29C100.95 60.29 101.895 60.185 102.42 60.185C103.47 60.185 104.625 60.08 105.675 59.87C105.675 59.345 105.675 58.715 105.78 57.875C105.78 56.93 105.78 56.195 105.885 55.67C105.885 54.935 105.99 54.2 106.2 53.57C106.305 52.94 106.515 52.205 106.83 51.47C107.04 50.945 107.25 50.315 107.67 49.58C107.985 48.845 108.3 48.215 108.615 47.795C108.825 47.585 109.035 47.375 109.245 47.165C109.455 46.955 109.77 46.85 110.085 46.745C110.505 46.64 111.135 46.64 111.87 46.745C112.395 46.955 113.025 47.06 113.76 47.06C113.97 47.06 114.18 47.165 114.39 47.165C114.495 47.165 114.6 47.27 114.81 47.27C114.915 47.27 115.02 47.375 115.125 47.375C115.23 47.375 115.44 47.48 115.755 47.48C116.595 47.69 117.33 47.9 117.75 48.11C118.17 48.53 118.59 48.95 118.905 49.475C119.115 50 119.325 50.63 119.43 51.47C119.43 51.995 119.43 52.835 119.43 53.885C119.43 55.04 119.535 55.88 119.64 56.51C119.64 57.665 119.745 59.345 119.85 61.55C119.85 63.44 119.955 65.12 120.06 66.59C120.06 67.43 120.165 68.375 120.375 69.215C120.48 70.685 120.585 71.63 120.585 71.84C120.585 72.785 120.69 73.625 120.69 74.465C120.69 75.515 120.585 76.67 120.48 78.14C120.27 79.19 120.165 80.45 120.06 81.71C119.85 83.495 119.64 84.755 119.64 85.385C119.535 86.015 119.43 86.75 119.43 87.59C119.325 88.745 119.325 89.48 119.325 89.795C119.22 90.635 119.115 91.37 119.01 92C118.905 92.63 118.8 93.155 118.695 93.785C118.485 94.205 118.38 94.835 118.275 95.57C118.065 96.41 117.855 96.935 117.645 97.25C117.33 98.09 116.91 98.615 116.49 99.035C116.07 99.455 115.44 99.77 114.705 99.98C114.495 100.085 113.865 100.295 112.815 100.715C112.185 100.925 111.66 101.135 111.24 101.24C110.82 101.45 110.4 101.555 109.77 101.555C108.93 101.765 108.405 101.87 108.195 101.87C107.775 101.975 107.355 101.975 107.04 101.87C106.62 101.765 106.41 101.555 106.2 101.24C105.99 101.03 105.885 100.61 105.78 100.085C105.78 99.875 105.675 99.35 105.675 98.615C105.675 98.3 105.57 97.775 105.57 97.145L105.465 95.675ZM61.365 102.29C53.49 102.5 46.35 100.82 39.84 97.145C35.85 94.835 33.12 91.16 31.86 85.91C30.18 79.715 29.97 74.675 31.23 70.685C31.86 68.585 32.91 66.59 34.275 64.7C36.9 61.13 39.21 58.4 41.205 56.51C44.145 53.78 48.03 52.73 52.65 53.255C58.635 54.095 65.04 56.51 71.76 60.5C75.54 62.81 77.85 66.17 78.69 70.79C79.845 78.14 79.95 84.02 78.9 88.64C77.85 93.05 75.855 96.515 72.81 99.035C69.765 101.555 65.985 102.71 61.365 102.29ZM49.92 79.925C51.18 84.125 52.02 86.435 52.335 86.96C52.545 87.38 52.86 87.8 53.385 88.22C53.91 88.64 54.33 88.85 54.75 88.85C57.06 88.64 59.055 88.115 60.63 87.065C62.1 86.015 63.15 84.65 63.57 82.865C63.99 81.08 63.57 78.875 62.31 76.355C60.42 72.68 57.48 71.42 53.49 72.575C51.18 73.205 50.025 75.725 49.92 79.925ZM88.035 132.425C89.715 132.425 91.185 131.795 92.445 130.325C93.705 128.96 94.335 127.28 94.335 125.18C94.335 122.24 92.655 120.455 89.505 119.72C86.04 119.09 79.215 118.67 69.03 118.67H68.925C67.875 118.67 67.035 118.88 66.3 119.195C65.565 119.615 64.935 120.14 64.515 120.875C64.095 121.61 63.78 122.24 63.57 122.765C63.36 123.395 63.15 124.13 62.94 125.18C62.73 125.705 62.73 126.125 62.73 126.545C62.73 127.7 63.045 128.645 63.885 129.275C64.725 130.01 65.67 130.43 66.93 130.64C68.085 130.955 69.66 131.165 71.76 131.375C73.755 131.585 75.54 131.795 77.115 131.795C78.585 131.9 80.58 132.005 82.995 132.11C85.41 132.32 86.985 132.425 87.72 132.425H88.035ZM72.6 107.96C76.59 107.96 81.42 108.38 86.88 109.01C92.34 109.64 96.96 110.48 100.74 111.53C107.145 113.42 110.715 116.78 111.45 121.61C111.66 122.87 111.765 124.025 111.765 125.075C111.765 129.8 109.875 133.58 106.2 136.31C103.68 138.2 101.58 139.775 99.9 140.825C98.22 141.875 96.225 142.925 93.705 143.87C91.185 144.92 88.665 145.445 86.145 145.445C85.095 145.445 82.575 145.655 78.48 145.865C74.385 146.075 71.655 146.18 70.29 146.18C68.295 146.18 66.51 146.075 65.04 145.76C64.62 145.76 64.2 145.76 63.57 145.55C60.63 145.13 58.32 144.71 56.85 144.395C55.275 144.08 53.385 143.45 51.18 142.4C48.975 141.455 47.085 140.195 45.615 138.62C42.78 135.89 41.415 133.37 41.415 130.955C41.415 126.125 42.045 122.45 43.515 120.035C47.4 113.525 55.485 109.535 67.665 108.275C69.24 108.065 70.92 107.96 72.6 107.96Z" fill="#FF961E"/>
<rect x="150.75" y="0.75" width="150" height="180" fill="white"/>
<rect x="150.75" y="0.75" width="150" height="180" stroke="#FF961E" stroke-width="1.5"/>
<path d="M271.95 86.645C271.845 91.055 270.795 94.1 268.8 95.78C267.96 96.41 266.91 96.935 265.65 97.145C264.39 97.355 263.235 97.46 262.29 97.355H260.925L258.615 96.725C257.145 96.41 256.515 95.465 256.515 93.995C256.515 82.235 256.515 74.15 256.305 69.95C255.99 65.33 255.885 59.66 255.885 52.94C255.885 51.575 256.305 50.42 257.355 49.475C258.3 48.635 259.56 48.11 261.03 48.11L268.485 48.845L269.535 49.685C269.955 50 270.48 50.63 271.32 51.575C272.055 52.52 272.475 53.465 272.475 54.305V64.7C272.37 64.7 272.265 65.96 272.265 68.375C272.265 70.895 272.16 74.15 272.16 78.14C272.055 82.13 271.95 84.965 271.95 86.645ZM248.85 65.645C250.845 66.065 252.21 66.59 252.945 67.22C253.68 67.85 254.1 69.11 254.31 70.79C254.31 71.63 254.415 72.89 254.415 74.57V77.405C254.415 79.19 253.26 80.45 250.845 81.29C249.165 81.92 247.17 82.34 244.86 82.655C242.13 83.075 240.555 82.13 240.135 79.82C239.085 75.41 239.715 71 242.235 66.59C242.445 66.38 242.76 66.17 243.18 65.96C243.6 65.855 244.335 65.75 245.28 65.645C246.12 65.54 246.75 65.435 246.96 65.33C246.96 65.33 247.59 65.435 248.85 65.645ZM182.805 49.16C187.005 49.16 193.41 49.055 202.125 48.95C210.84 48.845 217.455 48.74 221.97 48.635C224.7 48.635 226.8 49.055 228.27 50.105C229.635 51.155 230.79 53.045 231.63 55.775C233.31 61.34 234.15 65.12 234.36 67.115C234.36 69.11 234.36 70.475 234.36 71.315C234.36 72.155 234.255 73.625 234.045 75.515C233.835 77.51 233.625 78.875 233.625 79.715C233.1 86.54 232.785 90.425 232.785 91.37C232.68 93.89 231.735 95.99 230.055 97.565C228.375 99.245 226.275 100.085 223.755 100.19C219.135 100.4 215.67 99.56 213.465 97.46C211.995 96.2 211.26 94.94 211.26 93.89C211.05 91.79 210.84 86.015 210.525 76.355C210.525 74.465 210.21 73.31 209.685 72.785C209.055 72.365 207.9 72.05 206.115 72.05C205.065 72.05 203.595 72.155 201.6 72.155C199.605 72.155 197.82 72.155 196.35 72.155C194.88 72.155 193.41 72.05 192.045 71.84C187.95 71.42 184.275 70.475 181.125 68.795C180.705 68.585 180.495 68.165 180.285 67.535C180.075 66.905 179.97 66.065 179.865 64.91C179.655 63.755 179.55 63.02 179.55 62.705C179.34 62.075 178.815 58.82 177.975 53.045C177.87 53.045 177.765 52.94 177.765 52.625C177.765 52.415 177.765 52.1 177.87 51.68C177.975 51.365 178.185 51.05 178.5 50.63C178.71 50.21 179.235 49.895 179.97 49.58C180.705 49.37 181.65 49.16 182.805 49.16ZM238.035 132.425C239.715 132.425 241.185 131.795 242.445 130.325C243.705 128.96 244.335 127.28 244.335 125.18C244.335 122.24 242.655 120.455 239.505 119.72C236.04 119.09 229.215 118.67 219.03 118.67H218.925C217.875 118.67 217.035 118.88 216.3 119.195C215.565 119.615 214.935 120.14 214.515 120.875C214.095 121.61 213.78 122.24 213.57 122.765C213.36 123.395 213.15 124.13 212.94 125.18C212.73 125.705 212.73 126.125 212.73 126.545C212.73 127.7 213.045 128.645 213.885 129.275C214.725 130.01 215.67 130.43 216.93 130.64C218.085 130.955 219.66 131.165 221.76 131.375C223.755 131.585 225.54 131.795 227.115 131.795C228.585 131.9 230.58 132.005 232.995 132.11C235.41 132.32 236.985 132.425 237.72 132.425H238.035ZM222.6 107.96C226.59 107.96 231.42 108.38 236.88 109.01C242.34 109.64 246.96 110.48 250.74 111.53C257.145 113.42 260.715 116.78 261.45 121.61C261.66 122.87 261.765 124.025 261.765 125.075C261.765 129.8 259.875 133.58 256.2 136.31C253.68 138.2 251.58 139.775 249.9 140.825C248.22 141.875 246.225 142.925 243.705 143.87C241.185 144.92 238.665 145.445 236.145 145.445C235.095 145.445 232.575 145.655 228.48 145.865C224.385 146.075 221.655 146.18 220.29 146.18C218.295 146.18 216.51 146.075 215.04 145.76C214.62 145.76 214.2 145.76 213.57 145.55C210.63 145.13 208.32 144.71 206.85 144.395C205.275 144.08 203.385 143.45 201.18 142.4C198.975 141.455 197.085 140.195 195.615 138.62C192.78 135.89 191.415 133.37 191.415 130.955C191.415 126.125 192.045 122.45 193.515 120.035C197.4 113.525 205.485 109.535 217.665 108.275C219.24 108.065 220.92 107.96 222.6 107.96Z" fill="#FF961E"/>
<rect x="300.75" y="0.75" width="150" height="180" fill="white"/>
<rect x="300.75" y="0.75" width="150" height="180" stroke="#FF961E" stroke-width="1.5"/>
<path d="M418.8 72.26C418.695 77.72 418.485 81.71 418.275 84.23C417.96 87.065 417.33 89.795 416.49 92.42C416.07 93.68 415.65 94.52 415.02 94.73C414.39 95.045 413.34 95.15 411.765 94.94C409.455 94.73 407.985 94.625 407.46 94.625C405.78 94.73 404.835 94.1 404.625 92.735C404.205 90.635 403.89 88.535 403.68 86.435C403.575 85.385 403.47 83.915 403.365 81.92C403.26 79.925 403.155 78.56 403.155 77.825C403.05 76.67 402.42 75.83 401.37 75.41C400.32 74.99 399.165 75.095 398.01 75.725C397.38 76.145 397.17 76.775 397.275 77.615C397.38 78.98 397.695 81.29 398.115 84.545C398.535 87.905 398.745 90.425 398.955 92.105C399.06 93.155 398.955 94.52 398.535 96.305C398.325 96.935 397.905 97.355 397.275 97.565L391.395 99.455C388.56 99.77 386.565 99.56 385.515 98.825C384.465 98.3 383.94 97.565 383.94 96.62C383.205 87.8 382.785 80.765 382.575 75.62L382.05 54.62L383.205 50.105L389.715 49.58C390.87 49.685 391.815 49.79 392.445 49.895C393.495 50.105 394.23 50.735 394.755 51.68C395.175 52.625 395.385 53.465 395.385 54.2L395.28 55.355L394.86 65.015L397.905 67.64H400.11C401.79 67.535 402.84 67.22 403.365 66.8C403.785 66.38 404.1 65.54 404.1 64.175C403.995 63.125 403.89 61.025 403.785 57.98C403.68 54.935 403.68 52.625 403.68 50.945C403.575 49.685 403.785 48.95 404.415 48.53C404.94 48.11 405.99 47.9 407.565 47.795C412.5 47.69 415.965 48.95 418.065 51.47C418.38 51.89 418.59 52.415 418.8 52.94C419.01 53.57 419.115 54.2 419.325 54.83C419.43 55.565 419.535 56.09 419.745 56.405C419.535 56.405 419.325 58.4 419.115 62.285C418.905 66.275 418.8 69.53 418.8 72.26ZM344.565 75.305C337.425 74.045 333.54 73.31 332.805 73.1C330.6 72.68 329.55 71.525 329.655 69.53V62.495C332.91 61.235 336.48 60.5 340.47 60.08C344.46 59.765 347.82 59.66 350.655 59.765C353.385 59.975 357.165 60.29 361.785 60.815C363.045 61.025 364.41 61.025 365.88 61.025C367.35 61.025 369.03 61.025 371.025 61.025C373.02 61.025 374.595 60.92 375.645 60.92V67.325C375.645 68.375 375.33 69.005 374.7 69.425C373.965 69.845 373.125 70.16 372.075 70.37C371.025 70.58 370.395 71 370.08 71.525L371.445 72.89C377.325 76.88 379.005 82.34 376.59 89.27C375.54 92.21 373.125 95.885 369.345 100.19C368.715 100.82 367.875 101.45 366.615 101.87C365.355 102.29 364.2 102.605 363.045 102.605C357.27 102.815 352.23 102.71 348.03 102.08C341.94 101.24 337.845 98.93 335.85 95.045C333.75 91.16 334.485 86.96 337.845 82.445C338.37 81.71 339 80.975 339.735 80.135C340.47 79.295 341.31 78.455 342.36 77.405C343.305 76.46 344.04 75.725 344.565 75.305ZM364.305 88.22C364.2 86.54 363.675 85.385 362.73 84.755C361.68 84.125 360 83.705 357.585 83.495C355.905 83.495 354.54 84.23 353.595 85.7C352.545 87.17 351.915 89.06 351.6 91.16C351.39 92.42 351.81 93.26 352.65 93.785C353.49 94.415 354.96 94.625 356.955 94.625C359.055 94.625 360.735 94.1 362.205 92.84C363.57 91.58 364.305 90.11 364.305 88.22ZM344.25 58.505C344.67 54.725 344.985 52.31 345.195 51.26C345.195 51.155 345.3 50.945 345.51 50.735C346.56 49.58 348.87 48.635 352.44 47.9C355.905 47.165 358.53 47.06 360.21 47.69C362.52 48.53 363.885 50.105 364.305 52.205C364.725 54.41 364.095 56.195 362.205 57.56C360.945 58.4 359.37 58.925 357.48 58.925C356.745 58.925 353.385 58.82 347.4 58.61C346.98 58.61 345.93 58.61 344.25 58.505ZM388.035 132.425C389.715 132.425 391.185 131.795 392.445 130.325C393.705 128.96 394.335 127.28 394.335 125.18C394.335 122.24 392.655 120.455 389.505 119.72C386.04 119.09 379.215 118.67 369.03 118.67H368.925C367.875 118.67 367.035 118.88 366.3 119.195C365.565 119.615 364.935 120.14 364.515 120.875C364.095 121.61 363.78 122.24 363.57 122.765C363.36 123.395 363.15 124.13 362.94 125.18C362.73 125.705 362.73 126.125 362.73 126.545C362.73 127.7 363.045 128.645 363.885 129.275C364.725 130.01 365.67 130.43 366.93 130.64C368.085 130.955 369.66 131.165 371.76 131.375C373.755 131.585 375.54 131.795 377.115 131.795C378.585 131.9 380.58 132.005 382.995 132.11C385.41 132.32 386.985 132.425 387.72 132.425H388.035ZM372.6 107.96C376.59 107.96 381.42 108.38 386.88 109.01C392.34 109.64 396.96 110.48 400.74 111.53C407.145 113.42 410.715 116.78 411.45 121.61C411.66 122.87 411.765 124.025 411.765 125.075C411.765 129.8 409.875 133.58 406.2 136.31C403.68 138.2 401.58 139.775 399.9 140.825C398.22 141.875 396.225 142.925 393.705 143.87C391.185 144.92 388.665 145.445 386.145 145.445C385.095 145.445 382.575 145.655 378.48 145.865C374.385 146.075 371.655 146.18 370.29 146.18C368.295 146.18 366.51 146.075 365.04 145.76C364.62 145.76 364.2 145.76 363.57 145.55C360.63 145.13 358.32 144.71 356.85 144.395C355.275 144.08 353.385 143.45 351.18 142.4C348.975 141.455 347.085 140.195 345.615 138.62C342.78 135.89 341.415 133.37 341.415 130.955C341.415 126.125 342.045 122.45 343.515 120.035C347.4 113.525 355.485 109.535 367.665 108.275C369.24 108.065 370.92 107.96 372.6 107.96Z" fill="#FF961E"/>
</svg>
