<svg width="152" height="182" viewBox="0 0 152 182" fill="none" xmlns="http://www.w3.org/2000/svg">
<rect x="0.75" y="0.75" width="150" height="180" fill="white"/>
<rect x="0.75" y="0.75" width="150" height="180" stroke="#FF961E" stroke-width="1.5"/>
<path d="M121.95 86.645C121.845 91.055 120.795 94.1 118.8 95.78C117.96 96.41 116.91 96.935 115.65 97.145C114.39 97.355 113.235 97.46 112.29 97.355H110.925L108.615 96.725C107.145 96.41 106.515 95.465 106.515 93.995C106.515 82.235 106.515 74.15 106.305 69.95C105.99 65.33 105.885 59.66 105.885 52.94C105.885 51.575 106.305 50.42 107.355 49.475C108.3 48.635 109.56 48.11 111.03 48.11L118.485 48.845L119.535 49.685C119.955 50 120.48 50.63 121.32 51.575C122.055 52.52 122.475 53.465 122.475 54.305V64.7C122.37 64.7 122.265 65.96 122.265 68.375C122.265 70.895 122.16 74.15 122.16 78.14C122.055 82.13 121.95 84.965 121.95 86.645ZM98.85 65.645C100.845 66.065 102.21 66.59 102.945 67.22C103.68 67.85 104.1 69.11 104.31 70.79C104.31 71.63 104.415 72.89 104.415 74.57V77.405C104.415 79.19 103.26 80.45 100.845 81.29C99.165 81.92 97.17 82.34 94.86 82.655C92.13 83.075 90.555 82.13 90.135 79.82C89.085 75.41 89.715 71 92.235 66.59C92.445 66.38 92.76 66.17 93.18 65.96C93.6 65.855 94.335 65.75 95.28 65.645C96.12 65.54 96.75 65.435 96.96 65.33C96.96 65.33 97.59 65.435 98.85 65.645ZM32.805 49.16C37.005 49.16 43.41 49.055 52.125 48.95C60.84 48.845 67.455 48.74 71.97 48.635C74.7 48.635 76.8 49.055 78.27 50.105C79.635 51.155 80.79 53.045 81.63 55.775C83.31 61.34 84.15 65.12 84.36 67.115C84.36 69.11 84.36 70.475 84.36 71.315C84.36 72.155 84.255 73.625 84.045 75.515C83.835 77.51 83.625 78.875 83.625 79.715C83.1 86.54 82.785 90.425 82.785 91.37C82.68 93.89 81.735 95.99 80.055 97.565C78.375 99.245 76.275 100.085 73.755 100.19C69.135 100.4 65.67 99.56 63.465 97.46C61.995 96.2 61.26 94.94 61.26 93.89C61.05 91.79 60.84 86.015 60.525 76.355C60.525 74.465 60.21 73.31 59.685 72.785C59.055 72.365 57.9 72.05 56.115 72.05C55.065 72.05 53.595 72.155 51.6 72.155C49.605 72.155 47.82 72.155 46.35 72.155C44.88 72.155 43.41 72.05 42.045 71.84C37.95 71.42 34.275 70.475 31.125 68.795C30.705 68.585 30.495 68.165 30.285 67.535C30.075 66.905 29.97 66.065 29.865 64.91C29.655 63.755 29.55 63.02 29.55 62.705C29.34 62.075 28.815 58.82 27.975 53.045C27.87 53.045 27.765 52.94 27.765 52.625C27.765 52.415 27.765 52.1 27.87 51.68C27.975 51.365 28.185 51.05 28.5 50.63C28.71 50.21 29.235 49.895 29.97 49.58C30.705 49.37 31.65 49.16 32.805 49.16ZM88.035 132.425C89.715 132.425 91.185 131.795 92.445 130.325C93.705 128.96 94.335 127.28 94.335 125.18C94.335 122.24 92.655 120.455 89.505 119.72C86.04 119.09 79.215 118.67 69.03 118.67H68.925C67.875 118.67 67.035 118.88 66.3 119.195C65.565 119.615 64.935 120.14 64.515 120.875C64.095 121.61 63.78 122.24 63.57 122.765C63.36 123.395 63.15 124.13 62.94 125.18C62.73 125.705 62.73 126.125 62.73 126.545C62.73 127.7 63.045 128.645 63.885 129.275C64.725 130.01 65.67 130.43 66.93 130.64C68.085 130.955 69.66 131.165 71.76 131.375C73.755 131.585 75.54 131.795 77.115 131.795C78.585 131.9 80.58 132.005 82.995 132.11C85.41 132.32 86.985 132.425 87.72 132.425H88.035ZM72.6 107.96C76.59 107.96 81.42 108.38 86.88 109.01C92.34 109.64 96.96 110.48 100.74 111.53C107.145 113.42 110.715 116.78 111.45 121.61C111.66 122.87 111.765 124.025 111.765 125.075C111.765 129.8 109.875 133.58 106.2 136.31C103.68 138.2 101.58 139.775 99.9 140.825C98.22 141.875 96.225 142.925 93.705 143.87C91.185 144.92 88.665 145.445 86.145 145.445C85.095 145.445 82.575 145.655 78.48 145.865C74.385 146.075 71.655 146.18 70.29 146.18C68.295 146.18 66.51 146.075 65.04 145.76C64.62 145.76 64.2 145.76 63.57 145.55C60.63 145.13 58.32 144.71 56.85 144.395C55.275 144.08 53.385 143.45 51.18 142.4C48.975 141.455 47.085 140.195 45.615 138.62C42.78 135.89 41.415 133.37 41.415 130.955C41.415 126.125 42.045 122.45 43.515 120.035C47.4 113.525 55.485 109.535 67.665 108.275C69.24 108.065 70.92 107.96 72.6 107.96Z" fill="#FF961E"/>
</svg>
