<svg width="152" height="182" viewBox="0 0 152 182" fill="none" xmlns="http://www.w3.org/2000/svg">
<rect x="0.75" y="0.75" width="150" height="180" fill="white"/>
<rect x="0.75" y="0.75" width="150" height="180" stroke="#FF961E" stroke-width="1.5"/>
<path d="M118.8 72.26C118.695 77.72 118.485 81.71 118.275 84.23C117.96 87.065 117.33 89.795 116.49 92.42C116.07 93.68 115.65 94.52 115.02 94.73C114.39 95.045 113.34 95.15 111.765 94.94C109.455 94.73 107.985 94.625 107.46 94.625C105.78 94.73 104.835 94.1 104.625 92.735C104.205 90.635 103.89 88.535 103.68 86.435C103.575 85.385 103.47 83.915 103.365 81.92C103.26 79.925 103.155 78.56 103.155 77.825C103.05 76.67 102.42 75.83 101.37 75.41C100.32 74.99 99.165 75.095 98.01 75.725C97.38 76.145 97.17 76.775 97.275 77.615C97.38 78.98 97.695 81.29 98.115 84.545C98.535 87.905 98.745 90.425 98.955 92.105C99.06 93.155 98.955 94.52 98.535 96.305C98.325 96.935 97.905 97.355 97.275 97.565L91.395 99.455C88.56 99.77 86.565 99.56 85.515 98.825C84.465 98.3 83.94 97.565 83.94 96.62C83.205 87.8 82.785 80.765 82.575 75.62L82.05 54.62L83.205 50.105L89.715 49.58C90.87 49.685 91.815 49.79 92.445 49.895C93.495 50.105 94.23 50.735 94.755 51.68C95.175 52.625 95.385 53.465 95.385 54.2L95.28 55.355L94.86 65.015L97.905 67.64H100.11C101.79 67.535 102.84 67.22 103.365 66.8C103.785 66.38 104.1 65.54 104.1 64.175C103.995 63.125 103.89 61.025 103.785 57.98C103.68 54.935 103.68 52.625 103.68 50.945C103.575 49.685 103.785 48.95 104.415 48.53C104.94 48.11 105.99 47.9 107.565 47.795C112.5 47.69 115.965 48.95 118.065 51.47C118.38 51.89 118.59 52.415 118.8 52.94C119.01 53.57 119.115 54.2 119.325 54.83C119.43 55.565 119.535 56.09 119.745 56.405C119.535 56.405 119.325 58.4 119.115 62.285C118.905 66.275 118.8 69.53 118.8 72.26ZM44.565 75.305C37.425 74.045 33.54 73.31 32.805 73.1C30.6 72.68 29.55 71.525 29.655 69.53V62.495C32.91 61.235 36.48 60.5 40.47 60.08C44.46 59.765 47.82 59.66 50.655 59.765C53.385 59.975 57.165 60.29 61.785 60.815C63.045 61.025 64.41 61.025 65.88 61.025C67.35 61.025 69.03 61.025 71.025 61.025C73.02 61.025 74.595 60.92 75.645 60.92V67.325C75.645 68.375 75.33 69.005 74.7 69.425C73.965 69.845 73.125 70.16 72.075 70.37C71.025 70.58 70.395 71 70.08 71.525L71.445 72.89C77.325 76.88 79.005 82.34 76.59 89.27C75.54 92.21 73.125 95.885 69.345 100.19C68.715 100.82 67.875 101.45 66.615 101.87C65.355 102.29 64.2 102.605 63.045 102.605C57.27 102.815 52.23 102.71 48.03 102.08C41.94 101.24 37.845 98.93 35.85 95.045C33.75 91.16 34.485 86.96 37.845 82.445C38.37 81.71 39 80.975 39.735 80.135C40.47 79.295 41.31 78.455 42.36 77.405C43.305 76.46 44.04 75.725 44.565 75.305ZM64.305 88.22C64.2 86.54 63.675 85.385 62.73 84.755C61.68 84.125 60 83.705 57.585 83.495C55.905 83.495 54.54 84.23 53.595 85.7C52.545 87.17 51.915 89.06 51.6 91.16C51.39 92.42 51.81 93.26 52.65 93.785C53.49 94.415 54.96 94.625 56.955 94.625C59.055 94.625 60.735 94.1 62.205 92.84C63.57 91.58 64.305 90.11 64.305 88.22ZM44.25 58.505C44.67 54.725 44.985 52.31 45.195 51.26C45.195 51.155 45.3 50.945 45.51 50.735C46.56 49.58 48.87 48.635 52.44 47.9C55.905 47.165 58.53 47.06 60.21 47.69C62.52 48.53 63.885 50.105 64.305 52.205C64.725 54.41 64.095 56.195 62.205 57.56C60.945 58.4 59.37 58.925 57.48 58.925C56.745 58.925 53.385 58.82 47.4 58.61C46.98 58.61 45.93 58.61 44.25 58.505ZM88.035 132.425C89.715 132.425 91.185 131.795 92.445 130.325C93.705 128.96 94.335 127.28 94.335 125.18C94.335 122.24 92.655 120.455 89.505 119.72C86.04 119.09 79.215 118.67 69.03 118.67H68.925C67.875 118.67 67.035 118.88 66.3 119.195C65.565 119.615 64.935 120.14 64.515 120.875C64.095 121.61 63.78 122.24 63.57 122.765C63.36 123.395 63.15 124.13 62.94 125.18C62.73 125.705 62.73 126.125 62.73 126.545C62.73 127.7 63.045 128.645 63.885 129.275C64.725 130.01 65.67 130.43 66.93 130.64C68.085 130.955 69.66 131.165 71.76 131.375C73.755 131.585 75.54 131.795 77.115 131.795C78.585 131.9 80.58 132.005 82.995 132.11C85.41 132.32 86.985 132.425 87.72 132.425H88.035ZM72.6 107.96C76.59 107.96 81.42 108.38 86.88 109.01C92.34 109.64 96.96 110.48 100.74 111.53C107.145 113.42 110.715 116.78 111.45 121.61C111.66 122.87 111.765 124.025 111.765 125.075C111.765 129.8 109.875 133.58 106.2 136.31C103.68 138.2 101.58 139.775 99.9 140.825C98.22 141.875 96.225 142.925 93.705 143.87C91.185 144.92 88.665 145.445 86.145 145.445C85.095 145.445 82.575 145.655 78.48 145.865C74.385 146.075 71.655 146.18 70.29 146.18C68.295 146.18 66.51 146.075 65.04 145.76C64.62 145.76 64.2 145.76 63.57 145.55C60.63 145.13 58.32 144.71 56.85 144.395C55.275 144.08 53.385 143.45 51.18 142.4C48.975 141.455 47.085 140.195 45.615 138.62C42.78 135.89 41.415 133.37 41.415 130.955C41.415 126.125 42.045 122.45 43.515 120.035C47.4 113.525 55.485 109.535 67.665 108.275C69.24 108.065 70.92 107.96 72.6 107.96Z" fill="#FF961E"/>
</svg>
