<svg width="152" height="182" viewBox="0 0 152 182" fill="none" xmlns="http://www.w3.org/2000/svg">
<rect x="0.75" y="0.75" width="150" height="180" fill="white"/>
<rect x="0.75" y="0.75" width="150" height="180" stroke="#FF961E" stroke-width="1.5"/>
<path d="M105.465 95.675C104.52 95.57 103.575 95.465 102.735 95.36C102.105 95.36 101.055 95.255 99.795 95.15C98.535 95.15 97.59 95.045 97.17 95.045C95.91 95.045 95.07 94.94 94.545 94.73C94.02 94.625 93.6 94.415 93.285 94.205C92.865 93.995 92.655 93.68 92.445 93.26C92.235 92.945 92.025 92.525 92.025 92C91.815 91.685 91.71 91.055 91.605 90.215C91.395 89.585 91.29 88.955 91.29 88.43C91.08 87.59 90.975 86.96 90.975 86.54C90.87 85.805 90.87 85.175 91.08 84.65C91.29 84.125 91.605 83.705 92.13 83.285C92.55 83.075 93.075 82.76 93.81 82.55C94.44 82.34 95.385 82.235 96.645 82.13C97.275 82.13 98.22 82.025 99.48 81.92C100.74 81.815 101.79 81.71 102.42 81.605C103.05 81.605 103.575 81.605 103.89 81.5C104.52 81.5 104.94 81.395 105.255 81.185C105.36 81.185 105.465 81.08 105.675 80.87C105.675 80.765 105.78 80.66 105.99 80.45C105.99 80.345 105.99 80.24 105.99 80.03C105.99 79.82 106.095 78.98 106.095 77.405V76.04V74.675V71.945C105.885 72.05 105.78 72.05 105.675 72.05H105.255C105.045 72.155 104.94 72.155 104.835 72.155C103.575 72.365 102.63 72.47 102.105 72.47C98.745 72.68 96.855 72.89 96.435 72.89C96.225 72.89 96.015 72.995 95.7 72.995C95.385 73.1 95.175 73.1 95.07 73.1C94.44 73.205 93.915 73.205 93.705 73.1C93.495 73.1 93.285 73.1 93.075 72.995C92.865 72.89 92.655 72.68 92.55 72.47C92.34 72.365 92.235 72.155 92.13 71.945C91.71 71.315 91.395 70.16 91.185 68.69C90.975 67.43 90.87 66.38 90.975 65.33C90.975 64.805 90.975 64.28 91.185 63.65C91.29 63.02 91.5 62.39 91.71 61.97C91.71 61.76 91.815 61.655 92.025 61.445C92.13 61.34 92.34 61.235 92.55 61.025C92.655 61.025 92.865 60.92 93.075 60.815C93.495 60.71 94.545 60.605 96.33 60.395C96.96 60.395 98.01 60.395 99.48 60.29C100.95 60.29 101.895 60.185 102.42 60.185C103.47 60.185 104.625 60.08 105.675 59.87C105.675 59.345 105.675 58.715 105.78 57.875C105.78 56.93 105.78 56.195 105.885 55.67C105.885 54.935 105.99 54.2 106.2 53.57C106.305 52.94 106.515 52.205 106.83 51.47C107.04 50.945 107.25 50.315 107.67 49.58C107.985 48.845 108.3 48.215 108.615 47.795C108.825 47.585 109.035 47.375 109.245 47.165C109.455 46.955 109.77 46.85 110.085 46.745C110.505 46.64 111.135 46.64 111.87 46.745C112.395 46.955 113.025 47.06 113.76 47.06C113.97 47.06 114.18 47.165 114.39 47.165C114.495 47.165 114.6 47.27 114.81 47.27C114.915 47.27 115.02 47.375 115.125 47.375C115.23 47.375 115.44 47.48 115.755 47.48C116.595 47.69 117.33 47.9 117.75 48.11C118.17 48.53 118.59 48.95 118.905 49.475C119.115 50 119.325 50.63 119.43 51.47C119.43 51.995 119.43 52.835 119.43 53.885C119.43 55.04 119.535 55.88 119.64 56.51C119.64 57.665 119.745 59.345 119.85 61.55C119.85 63.44 119.955 65.12 120.06 66.59C120.06 67.43 120.165 68.375 120.375 69.215C120.48 70.685 120.585 71.63 120.585 71.84C120.585 72.785 120.69 73.625 120.69 74.465C120.69 75.515 120.585 76.67 120.48 78.14C120.27 79.19 120.165 80.45 120.06 81.71C119.85 83.495 119.64 84.755 119.64 85.385C119.535 86.015 119.43 86.75 119.43 87.59C119.325 88.745 119.325 89.48 119.325 89.795C119.22 90.635 119.115 91.37 119.01 92C118.905 92.63 118.8 93.155 118.695 93.785C118.485 94.205 118.38 94.835 118.275 95.57C118.065 96.41 117.855 96.935 117.645 97.25C117.33 98.09 116.91 98.615 116.49 99.035C116.07 99.455 115.44 99.77 114.705 99.98C114.495 100.085 113.865 100.295 112.815 100.715C112.185 100.925 111.66 101.135 111.24 101.24C110.82 101.45 110.4 101.555 109.77 101.555C108.93 101.765 108.405 101.87 108.195 101.87C107.775 101.975 107.355 101.975 107.04 101.87C106.62 101.765 106.41 101.555 106.2 101.24C105.99 101.03 105.885 100.61 105.78 100.085C105.78 99.875 105.675 99.35 105.675 98.615C105.675 98.3 105.57 97.775 105.57 97.145L105.465 95.675ZM61.365 102.29C53.49 102.5 46.35 100.82 39.84 97.145C35.85 94.835 33.12 91.16 31.86 85.91C30.18 79.715 29.97 74.675 31.23 70.685C31.86 68.585 32.91 66.59 34.275 64.7C36.9 61.13 39.21 58.4 41.205 56.51C44.145 53.78 48.03 52.73 52.65 53.255C58.635 54.095 65.04 56.51 71.76 60.5C75.54 62.81 77.85 66.17 78.69 70.79C79.845 78.14 79.95 84.02 78.9 88.64C77.85 93.05 75.855 96.515 72.81 99.035C69.765 101.555 65.985 102.71 61.365 102.29ZM49.92 79.925C51.18 84.125 52.02 86.435 52.335 86.96C52.545 87.38 52.86 87.8 53.385 88.22C53.91 88.64 54.33 88.85 54.75 88.85C57.06 88.64 59.055 88.115 60.63 87.065C62.1 86.015 63.15 84.65 63.57 82.865C63.99 81.08 63.57 78.875 62.31 76.355C60.42 72.68 57.48 71.42 53.49 72.575C51.18 73.205 50.025 75.725 49.92 79.925ZM88.035 132.425C89.715 132.425 91.185 131.795 92.445 130.325C93.705 128.96 94.335 127.28 94.335 125.18C94.335 122.24 92.655 120.455 89.505 119.72C86.04 119.09 79.215 118.67 69.03 118.67H68.925C67.875 118.67 67.035 118.88 66.3 119.195C65.565 119.615 64.935 120.14 64.515 120.875C64.095 121.61 63.78 122.24 63.57 122.765C63.36 123.395 63.15 124.13 62.94 125.18C62.73 125.705 62.73 126.125 62.73 126.545C62.73 127.7 63.045 128.645 63.885 129.275C64.725 130.01 65.67 130.43 66.93 130.64C68.085 130.955 69.66 131.165 71.76 131.375C73.755 131.585 75.54 131.795 77.115 131.795C78.585 131.9 80.58 132.005 82.995 132.11C85.41 132.32 86.985 132.425 87.72 132.425H88.035ZM72.6 107.96C76.59 107.96 81.42 108.38 86.88 109.01C92.34 109.64 96.96 110.48 100.74 111.53C107.145 113.42 110.715 116.78 111.45 121.61C111.66 122.87 111.765 124.025 111.765 125.075C111.765 129.8 109.875 133.58 106.2 136.31C103.68 138.2 101.58 139.775 99.9 140.825C98.22 141.875 96.225 142.925 93.705 143.87C91.185 144.92 88.665 145.445 86.145 145.445C85.095 145.445 82.575 145.655 78.48 145.865C74.385 146.075 71.655 146.18 70.29 146.18C68.295 146.18 66.51 146.075 65.04 145.76C64.62 145.76 64.2 145.76 63.57 145.55C60.63 145.13 58.32 144.71 56.85 144.395C55.275 144.08 53.385 143.45 51.18 142.4C48.975 141.455 47.085 140.195 45.615 138.62C42.78 135.89 41.415 133.37 41.415 130.955C41.415 126.125 42.045 122.45 43.515 120.035C47.4 113.525 55.485 109.535 67.665 108.275C69.24 108.065 70.92 107.96 72.6 107.96Z" fill="#FF961E"/>
</svg>
