<svg width="1202" height="242" viewBox="0 0 1202 242" fill="none" xmlns="http://www.w3.org/2000/svg">
<rect x="0.75" y="0.75" width="150" height="180" fill="white"/>
<rect x="0.75" y="0.75" width="150" height="180" stroke="#FF961E" stroke-width="1.5"/>
<path d="M113.55 77.3V87.695C113.55 88.85 113.34 90.95 113.13 93.89C112.92 95.57 111.87 96.515 110.19 96.515C106.41 96.62 103.26 96.62 100.53 96.41C98.955 96.41 97.59 95.78 96.54 94.73C95.49 93.68 94.86 92.42 94.86 90.95C94.755 85.805 94.755 79.295 94.86 71.42C94.86 70.265 94.965 67.535 95.07 63.335C95.175 59.135 95.28 56.195 95.385 54.62C95.385 52.52 96.12 51.155 97.59 50.315C97.905 50.105 98.535 49.79 99.48 49.265C100.425 48.845 101.16 48.425 101.685 48.215C102.105 48.005 102.735 47.795 103.575 47.48C104.415 47.165 105.15 46.955 105.885 46.85C106.62 46.745 107.355 46.745 108.195 46.745C109.455 46.85 110.4 46.955 111.03 47.165C112.5 47.795 113.235 48.845 113.235 50.42C113.235 53.36 113.445 57.14 113.97 61.55C114.075 62.39 114.705 62.915 115.965 63.02C121.005 63.44 123.84 63.65 124.47 63.755C125.94 64.175 126.885 65.33 127.095 67.43C127.41 70.58 126.885 73.415 125.415 75.83C124.995 76.565 123.735 77.09 121.845 77.3H113.55ZM58.425 64.595C54.645 63.755 49.92 63.86 44.25 64.91C38.58 65.96 34.59 66.485 32.49 66.38C33.225 60.08 33.75 55.565 34.17 52.835C39.735 52.1 42.675 51.68 43.095 51.68C52.545 51.155 58.635 50.945 61.575 51.05C63.045 51.155 64.515 51.365 65.985 51.575C67.455 51.89 69.345 52.31 71.655 52.835C73.86 53.465 75.33 53.78 76.17 53.885C78.69 54.515 79.635 56.3 78.795 59.135C77.955 61.97 77.325 63.965 76.905 65.225C76.485 66.485 75.645 68.06 74.595 70.16C73.545 72.26 72.285 73.94 70.815 75.305C70.395 75.725 69.87 76.25 69.24 76.88C68.505 77.51 67.98 78.035 67.77 78.245C67.56 78.455 67.245 78.77 67.035 79.19C66.825 79.61 66.72 80.03 66.825 80.24C66.93 80.555 67.14 80.87 67.56 81.29C67.875 81.71 68.4 82.13 69.135 82.55C69.555 82.865 70.185 83.495 71.235 84.335C72.18 85.175 72.81 85.805 73.02 86.12C73.965 87.485 75.225 88.85 76.695 90.32C78.165 91.79 79.32 93.155 80.265 94.52C81.945 97.04 81.63 98.93 79.11 100.19C78.27 100.715 77.115 101.45 75.645 102.5C74.175 103.55 73.125 104.18 72.6 104.495C72.075 104.915 71.655 105.125 71.235 105.23C70.815 105.335 70.29 105.335 69.765 105.125C69.24 104.915 68.925 104.81 68.715 104.705C68.505 104.705 68.085 104.39 67.35 103.865C66.615 103.445 66.195 103.13 66.09 103.025C65.565 102.815 65.25 102.605 65.145 102.395C64.935 102.185 64.83 102.08 64.83 101.975C64.83 101.87 64.62 101.555 64.305 101.135C63.885 100.715 63.36 100.085 62.625 99.35C62.31 99.14 61.785 98.51 60.945 97.355C60.105 96.305 59.265 95.36 58.635 94.73C56.535 92.63 54.225 91.685 51.705 91.685C49.185 91.685 46.14 92.945 42.36 95.465C40.26 96.83 38.055 98.615 35.745 100.82C33.645 102.71 32.385 102.29 31.755 99.665C30.39 94.205 29.655 90.845 29.445 89.48C29.025 87.17 29.34 85.07 30.39 83.285C31.44 81.605 33.225 80.345 35.64 79.505C39.21 78.455 42.57 76.985 45.615 74.885C48.555 72.785 52.02 70.055 56.01 66.59C56.01 66.59 56.85 65.96 58.425 64.595ZM47.925 119.72C47.715 119.72 47.19 119.825 46.35 119.825C45.51 119.93 44.88 119.93 44.565 119.93C44.145 119.93 43.725 119.93 43.095 119.825C42.465 119.72 41.94 119.51 41.73 119.3C41.415 119.09 41.1 118.67 40.785 118.145C40.47 117.62 40.26 116.99 40.26 116.15C40.155 115.73 40.05 114.89 39.84 113.735C39.63 112.685 39.525 111.74 39.525 110.9C39.525 109.85 39.63 108.695 39.945 107.645C39.945 107.225 40.26 106.7 40.89 106.175C41.52 105.755 42.15 105.44 42.885 105.44C71.235 105.335 90.975 105.65 102.315 106.385C104.625 106.595 106.41 106.805 107.775 107.225C109.35 107.855 110.295 108.59 110.61 109.535C110.925 111.005 111.135 112.475 111.135 113.945C111.135 115.73 110.82 117.83 110.4 120.245C109.56 124.34 107.46 127.28 103.995 128.96C102.105 129.905 98.64 130.64 93.705 131.06C91.92 131.27 89.4 131.375 86.04 131.375C82.68 131.48 80.37 131.585 79.005 131.69C78.795 131.69 75.015 131.795 67.77 131.9C60.42 132.005 56.43 132.11 55.695 132.32L55.8 135.155C57.06 135.155 61.785 135.155 69.975 134.945C78.165 134.84 82.995 134.735 84.255 134.735C87.09 134.735 89.61 134.735 91.815 134.63C93.285 134.63 95.595 134.525 98.64 134.315C101.58 134.105 103.785 134 105.255 133.895H105.465C107.355 133.895 108.405 134.63 108.405 136.1V136.625C107.775 139.88 107.25 142.4 106.83 144.08C106.305 145.76 105.465 146.915 104.31 147.545C103.155 148.175 101.265 148.49 98.535 148.49H97.275C94.545 148.49 90.66 148.28 85.725 147.965C80.79 147.65 77.325 147.44 75.33 147.23C72.18 147.125 69.45 147.125 67.035 147.23C64.62 147.44 61.89 147.44 58.95 147.23C56.01 147.125 53.385 146.81 51.075 146.285C47.925 145.655 45.72 144.605 44.46 142.925C43.2 141.245 42.465 139.04 42.045 136.205C41.94 135.785 41.94 134.63 41.94 132.53C41.94 132.425 41.94 131.585 42.045 130.115C42.045 127.91 42.675 126.335 43.725 125.495C44.775 124.655 46.56 124.235 49.29 124.13C59.37 123.92 72.705 123.395 89.4 122.66C91.5 122.66 92.55 121.925 92.55 120.455V119.93C92.445 119.51 92.445 119.09 92.445 118.67V118.145C92.445 117.935 91.92 117.83 90.87 117.83C89.82 117.83 87.93 117.83 85.2 117.935C82.47 118.04 79.635 118.145 76.59 118.355C73.545 118.565 69.24 118.775 63.78 118.985C58.32 119.3 52.965 119.51 47.925 119.72Z" fill="#FF961E"/>
<rect x="150.75" y="0.75" width="150" height="180" fill="white"/>
<rect x="150.75" y="0.75" width="150" height="180" stroke="#FF961E" stroke-width="1.5"/>
<path d="M272.16 127.595C272.055 128.435 272.055 129.59 272.265 130.85C272.475 132.215 272.475 133.475 272.475 134.63C272.475 135.785 272.16 136.835 271.74 137.78C270.9 139.355 270.06 140.3 269.01 140.51C267.75 140.825 266.28 141.14 264.39 141.35C262.5 141.665 260.82 141.875 259.455 141.98C258.09 142.085 257.46 142.085 257.46 141.98H202.02C200.13 142.085 197.295 142.19 193.515 142.295C189.735 142.4 186.9 142.4 185.01 142.4C182.91 142.505 180.915 142.085 179.025 141.14L177.66 133.055L179.025 129.065C179.445 127.805 180.285 127.175 181.545 127.07L189.945 126.23C198.345 126.23 207.375 126.02 216.93 125.81C216.09 124.97 215.67 124.025 215.67 123.185C215.46 121.925 215.355 120.14 215.355 117.83C215.25 115.52 215.145 113.84 215.145 113C215.145 112.16 215.25 111.53 215.565 111.11C215.775 110.69 216.405 110.48 217.35 110.48C218.4 110.585 220.395 110.585 223.125 110.585C225.855 110.585 227.745 110.48 228.9 110.48C231.105 110.585 232.575 111.11 233.415 112.16C234.255 113.21 234.885 115.205 235.41 118.145C235.725 120.35 235.2 122.765 233.835 125.495C245.175 125.285 252.63 125.075 255.99 124.865C260.085 124.76 263.34 124.76 265.65 124.97C266.28 124.97 268.17 125.6 271.32 126.65C271.425 126.755 271.635 126.86 271.845 127.07C272.055 127.28 272.16 127.49 272.16 127.595ZM206.115 85.385C218.19 84.755 225.015 84.44 226.59 84.335C227.85 84.23 229.845 84.125 232.575 83.915C235.305 83.705 237.3 83.6 238.77 83.495C246.12 83.075 250.635 82.97 252.21 82.97C254.625 83.075 257.25 83.6 259.98 84.545C262.29 85.385 263.76 86.225 264.18 86.855C264.6 87.59 264.705 89.06 264.285 91.37C263.97 93.05 263.655 94.625 263.235 96.305C262.815 97.985 262.29 99.77 261.66 101.87C261.03 103.97 260.61 105.44 260.4 106.28C258.09 106.28 254.835 106.385 250.425 106.385C246.015 106.385 242.235 106.385 239.085 106.385C235.935 106.385 232.89 106.28 229.95 106.175C226.8 106.07 223.44 105.86 219.975 105.65C216.405 105.44 212.52 105.125 208.11 104.705C203.7 104.285 200.445 104.075 198.24 103.865C197.4 103.865 196.35 103.76 195.09 103.76C193.725 103.76 192.99 103.76 192.78 103.655C190.05 103.655 188.37 103.13 187.74 102.08C187.005 101.03 186.69 99.245 186.795 96.515C186.9 94.94 187.215 92.525 187.74 89.375L188.685 84.02C188.79 82.865 189 81.185 189.315 78.875C189.525 76.565 189.735 74.885 189.945 73.835C190.89 66.065 191.52 61.445 191.94 59.975C192.99 54.725 197.085 52.52 204.015 53.15C207.48 53.78 211.365 53.99 215.565 53.885C219.765 53.885 223.545 53.255 227.115 52.205C227.745 51.995 228.48 51.785 229.32 51.68C230.16 51.68 231 51.68 232.05 51.68C232.995 51.785 233.73 51.89 234.36 51.89C234.99 51.995 235.935 52.1 237.195 52.31C238.455 52.52 239.19 52.625 239.61 52.625C242.13 53.045 245.7 53.675 250.32 54.515C254.94 55.355 258.3 55.985 260.4 56.3C261.975 56.615 263.13 57.14 263.76 57.77C264.39 58.4 264.705 59.555 264.495 61.025C264.285 61.865 264.075 63.44 263.865 65.645C263.55 67.955 263.34 69.635 263.13 70.79C262.395 74.255 259.98 75.935 255.885 75.83C253.575 75.83 250.32 75.83 246.12 75.62C241.815 75.41 238.77 75.305 236.88 75.305C230.475 75.2 224.91 75.2 220.08 75.41C219.03 75.41 217.35 75.62 215.25 75.935C213.15 76.355 211.575 76.46 210.525 76.46C209.16 76.46 208.215 76.775 207.585 77.195C206.955 77.615 206.64 78.455 206.64 79.61C206.64 79.82 206.43 81.815 206.115 85.385Z" fill="#FF961E"/>
<rect x="300.75" y="0.75" width="150" height="180" fill="white"/>
<rect x="300.75" y="0.75" width="150" height="180" stroke="#FF961E" stroke-width="1.5"/>
<path d="M352.23 127.805C352.23 126.965 352.44 125.915 352.86 124.445C353.28 122.975 353.49 121.82 353.595 120.98C353.7 117.515 353.805 115.205 354.015 114.05C354.015 113.21 354.435 112.475 355.065 111.95C355.695 111.53 356.43 111.32 357.375 111.32C359.37 111.425 361.68 111.635 364.305 111.845C365.145 112.055 365.67 112.58 365.67 113.525C365.565 116.885 365.565 119.3 365.67 120.77C365.67 121.82 365.985 123.71 366.405 126.23C366.405 126.65 366.615 126.965 367.035 127.07C367.35 127.28 367.98 127.49 368.925 127.91C369.87 128.33 370.71 128.54 371.34 128.75C371.97 128.96 372.705 129.065 373.335 129.065C374.805 129.275 377.22 129.065 380.58 128.435C380.79 128.435 381 128.12 381.21 127.7C381.42 127.28 381.63 126.755 381.735 126.335C381.735 125.495 381.84 123.92 382.05 121.82C382.26 119.72 382.47 118.145 382.68 116.99C382.89 115.52 383.415 114.155 384.36 112.895C384.57 112.685 385.83 112.265 388.35 111.74C391.29 111.11 393.075 112.37 393.705 115.415C394.125 117.305 394.23 119.72 394.02 122.66C393.915 123.71 396.645 124.76 402.315 125.6C407.88 126.545 411.87 127.07 414.285 127.07H418.8C419.64 127.175 420.165 127.49 420.375 128.12C421.635 131.375 422.265 133.58 422.475 134.63C422.685 136.31 422.265 137.57 421.425 138.62C420.585 139.67 419.22 140.3 417.33 140.51C416.7 140.615 414.495 140.615 410.925 140.615C407.25 140.615 403.47 140.615 399.585 140.615C395.595 140.615 393.495 140.51 393.075 140.51C391.605 140.615 387.825 140.72 381.84 140.72C375.855 140.72 371.235 140.825 368.085 140.825C367.14 140.93 365.67 141.035 363.78 141.245C361.89 141.455 360.42 141.56 359.58 141.56C356.64 141.56 347.295 141.14 331.545 140.195H331.125C330.915 140.195 330.705 140.09 330.6 140.09C329.235 140.3 328.395 140.195 327.975 139.88C327.555 139.565 327.345 138.725 327.345 137.465C327.24 135.575 327.24 133.16 327.345 130.22C327.345 129.38 327.87 128.75 328.71 128.12C329.55 127.595 330.6 127.28 331.86 127.28C332.49 127.28 335.85 127.385 342.15 127.595C348.345 127.805 351.705 127.805 352.23 127.805ZM374.385 51.365C382.365 51.89 386.67 52.205 387.195 52.205C399.165 53.465 408.51 58.82 415.125 68.06C415.965 69.32 416.595 71.315 416.91 73.835C417.435 78.455 416.7 83.915 414.6 90.11C412.29 96.83 407.67 100.925 400.95 102.5C396.015 103.655 390.765 104.18 385.095 104.18C383.52 104.18 380.58 104.285 376.275 104.495C371.97 104.705 368.715 104.81 366.405 104.6C357.69 104.18 350.235 102.395 344.145 99.455C340.575 97.775 337.95 95.465 336.375 92.42C334.695 89.48 334.065 86.015 334.485 82.025C335.115 75.305 338.16 68.9 343.725 62.705C346.245 59.87 349.29 57.665 352.65 56.09C356.01 54.515 360 53.255 364.62 52.205C365.565 51.995 366.615 51.89 367.77 51.785C368.82 51.68 370.08 51.575 371.445 51.575C372.81 51.575 373.755 51.47 374.385 51.365ZM374.91 90.53C380.685 90.11 383.835 89.795 384.255 89.69C386.04 89.48 387.825 88.64 389.715 87.17C391.5 85.7 392.445 84.23 392.655 82.76C393.075 79.4 392.655 76.565 391.5 74.36C390.345 72.155 388.14 70.58 384.78 69.635C377.64 67.745 371.235 67.535 365.565 69.215C365.355 69.32 365.04 69.425 364.62 69.53C364.2 69.635 363.885 69.74 363.675 69.74C363.465 69.845 363.15 69.95 362.73 70.055C362.31 70.265 362.1 70.37 361.89 70.475C361.68 70.685 361.365 70.79 361.155 71C360.945 71.21 360.735 71.315 360.63 71.525C359.055 73.73 357.375 76.88 355.59 80.975C354.225 84.125 355.17 86.225 358.53 87.38C360.945 88.22 362.73 88.85 363.99 89.27C365.145 89.69 366.825 90.005 368.925 90.32C371.025 90.74 373.02 90.74 374.91 90.53Z" fill="#FF961E"/>
<rect x="450.75" y="0.75" width="150" height="180" fill="white"/>
<rect x="450.75" y="0.75" width="150" height="180" stroke="#FF961E" stroke-width="1.5"/>
<path d="M563.55 77.3V87.695C563.55 88.85 563.34 90.95 563.13 93.89C562.92 95.57 561.87 96.515 560.19 96.515C556.41 96.62 553.26 96.62 550.53 96.41C548.955 96.41 547.59 95.78 546.54 94.73C545.49 93.68 544.86 92.42 544.86 90.95C544.755 85.805 544.755 79.295 544.86 71.42C544.86 70.265 544.965 67.535 545.07 63.335C545.175 59.135 545.28 56.195 545.385 54.62C545.385 52.52 546.12 51.155 547.59 50.315C547.905 50.105 548.535 49.79 549.48 49.265C550.425 48.845 551.16 48.425 551.685 48.215C552.105 48.005 552.735 47.795 553.575 47.48C554.415 47.165 555.15 46.955 555.885 46.85C556.62 46.745 557.355 46.745 558.195 46.745C559.455 46.85 560.4 46.955 561.03 47.165C562.5 47.795 563.235 48.845 563.235 50.42C563.235 53.36 563.445 57.14 563.97 61.55C564.075 62.39 564.705 62.915 565.965 63.02C571.005 63.44 573.84 63.65 574.47 63.755C575.94 64.175 576.885 65.33 577.095 67.43C577.41 70.58 576.885 73.415 575.415 75.83C574.995 76.565 573.735 77.09 571.845 77.3H563.55ZM485.64 51.365C486.69 51.365 488.895 51.365 492.15 51.575C495.3 51.785 497.61 51.785 498.975 51.68C499.605 51.68 500.655 51.68 502.02 51.68C503.28 51.785 504.33 51.785 504.96 51.68C513.045 51.26 520.08 51.575 526.065 52.835C530.685 53.885 532.68 56.93 532.26 61.97C532.05 63.755 531.84 67.535 531.63 73.205C531.42 76.355 531.315 78.875 531.21 80.765C531 82.655 530.685 84.86 530.16 87.59C529.635 90.32 528.9 92.63 528.06 94.73C527.325 96.515 526.38 97.775 525.12 98.51C521.97 100.505 519.135 101.87 516.72 102.605C515.775 102.815 515.145 102.815 514.725 102.815C514.305 102.815 513.57 102.815 512.52 102.71C511.47 102.605 510.84 102.5 510.42 102.5C500.97 102.185 495.615 101.975 494.46 101.87C492.36 101.765 490.26 100.715 488.37 98.615C486.375 96.515 485.22 94.415 485.01 92.315C484.59 89.585 484.485 86.54 484.485 83.18C484.485 79.82 484.59 77.3 484.8 75.41C484.905 73.625 485.115 70.58 485.535 66.275C485.64 64.805 485.745 63.335 485.745 61.655C485.745 60.08 485.64 58.19 485.64 56.09C485.64 53.99 485.64 52.415 485.64 51.365ZM500.025 66.17V79.925C500.025 81.605 500.34 82.76 500.865 83.18C501.39 83.705 502.545 84.02 504.33 84.02C504.75 84.02 505.59 84.125 506.64 84.125C507.69 84.125 508.425 84.125 509.055 84.125C510.315 84.125 511.575 83.81 512.625 82.97C513.675 82.13 514.2 81.185 514.305 79.925C514.515 73.94 513.885 69.005 512.31 65.12L500.025 66.17ZM538.035 132.425C539.715 132.425 541.185 131.795 542.445 130.325C543.705 128.96 544.335 127.28 544.335 125.18C544.335 122.24 542.655 120.455 539.505 119.72C536.04 119.09 529.215 118.67 519.03 118.67H518.925C517.875 118.67 517.035 118.88 516.3 119.195C515.565 119.615 514.935 120.14 514.515 120.875C514.095 121.61 513.78 122.24 513.57 122.765C513.36 123.395 513.15 124.13 512.94 125.18C512.73 125.705 512.73 126.125 512.73 126.545C512.73 127.7 513.045 128.645 513.885 129.275C514.725 130.01 515.67 130.43 516.93 130.64C518.085 130.955 519.66 131.165 521.76 131.375C523.755 131.585 525.54 131.795 527.115 131.795C528.585 131.9 530.58 132.005 532.995 132.11C535.41 132.32 536.985 132.425 537.72 132.425H538.035ZM522.6 107.96C526.59 107.96 531.42 108.38 536.88 109.01C542.34 109.64 546.96 110.48 550.74 111.53C557.145 113.42 560.715 116.78 561.45 121.61C561.66 122.87 561.765 124.025 561.765 125.075C561.765 129.8 559.875 133.58 556.2 136.31C553.68 138.2 551.58 139.775 549.9 140.825C548.22 141.875 546.225 142.925 543.705 143.87C541.185 144.92 538.665 145.445 536.145 145.445C535.095 145.445 532.575 145.655 528.48 145.865C524.385 146.075 521.655 146.18 520.29 146.18C518.295 146.18 516.51 146.075 515.04 145.76C514.62 145.76 514.2 145.76 513.57 145.55C510.63 145.13 508.32 144.71 506.85 144.395C505.275 144.08 503.385 143.45 501.18 142.4C498.975 141.455 497.085 140.195 495.615 138.62C492.78 135.89 491.415 133.37 491.415 130.955C491.415 126.125 492.045 122.45 493.515 120.035C497.4 113.525 505.485 109.535 517.665 108.275C519.24 108.065 520.92 107.96 522.6 107.96Z" fill="#FF961E"/>
<rect x="600.75" y="60.75" width="150" height="180" fill="white"/>
<rect x="600.75" y="60.75" width="150" height="180" stroke="#FF961E" stroke-width="1.5"/>
<path d="M658.425 127.745C654.645 126.905 649.92 127.01 644.25 128.06C638.58 129.11 634.59 129.635 632.49 129.53C633.225 123.23 633.75 118.715 634.17 115.985C639.735 115.25 642.675 114.83 643.095 114.83C652.545 114.305 658.635 114.095 661.575 114.2C663.045 114.305 664.515 114.515 665.985 114.725C667.455 115.04 669.345 115.46 671.655 115.985C673.86 116.615 675.33 116.93 676.17 117.035C678.69 117.665 679.635 119.45 678.795 122.285C677.955 125.12 677.325 127.115 676.905 128.375C676.485 129.635 675.645 131.21 674.595 133.31C673.545 135.41 672.285 137.09 670.815 138.455C670.395 138.875 669.87 139.4 669.24 140.03C668.505 140.66 667.98 141.185 667.77 141.395C667.56 141.605 667.245 141.92 667.035 142.34C666.825 142.76 666.72 143.18 666.825 143.39C666.93 143.705 667.14 144.02 667.56 144.44C667.875 144.86 668.4 145.28 669.135 145.7C669.555 146.015 670.185 146.645 671.235 147.485C672.18 148.325 672.81 148.955 673.02 149.27C673.965 150.635 675.225 152 676.695 153.47C678.165 154.94 679.32 156.305 680.265 157.67C681.945 160.19 681.63 162.08 679.11 163.34C678.27 163.865 677.115 164.6 675.645 165.65C674.175 166.7 673.125 167.33 672.6 167.645C672.075 168.065 671.655 168.275 671.235 168.38C670.815 168.485 670.29 168.485 669.765 168.275C669.24 168.065 668.925 167.96 668.715 167.855C668.505 167.855 668.085 167.54 667.35 167.015C666.615 166.595 666.195 166.28 666.09 166.175C665.565 165.965 665.25 165.755 665.145 165.545C664.935 165.335 664.83 165.23 664.83 165.125C664.83 165.02 664.62 164.705 664.305 164.285C663.885 163.865 663.36 163.235 662.625 162.5C662.31 162.29 661.785 161.66 660.945 160.505C660.105 159.455 659.265 158.51 658.635 157.88C656.535 155.78 654.225 154.835 651.705 154.835C649.185 154.835 646.14 156.095 642.36 158.615C640.26 159.98 638.055 161.765 635.745 163.97C633.645 165.86 632.385 165.44 631.755 162.815C630.39 157.355 629.655 153.995 629.445 152.63C629.025 150.32 629.34 148.22 630.39 146.435C631.44 144.755 633.225 143.495 635.64 142.655C639.21 141.605 642.57 140.135 645.615 138.035C648.555 135.935 652.02 133.205 656.01 129.74C656.01 129.74 656.85 129.11 658.425 127.745ZM719.85 110C719.85 110.945 719.85 112.73 719.85 115.25C719.745 117.77 719.745 119.45 719.955 120.29C720.585 125.12 720.06 136.04 718.485 152.945C718.275 154.205 718.065 157.25 717.75 161.975C717.33 166.805 717.12 169.955 717.015 171.425C716.805 173.105 715.86 173.945 714.18 173.945C713.34 173.945 711.03 173.945 707.04 173.945C703.05 173.945 700.425 173.84 699.27 173.84C698.01 173.84 697.275 172.895 696.96 171.005C696.12 166.805 696.12 159.875 696.96 150.215C697.065 149.27 697.275 142.34 697.485 129.425V121.55V113.57C697.485 112.52 698.115 111.68 699.375 111.05C700.11 110.735 701.055 110.42 702.21 110.21C703.365 110 704.73 109.79 706.41 109.58C708.09 109.475 709.35 109.37 710.19 109.37C711.03 109.37 712.5 109.265 714.495 109.16L717.435 109.055C717.645 109.055 718.065 109.265 718.8 109.475C719.43 109.685 719.85 109.895 719.85 110ZM670.395 185.39C684.675 184.55 692.76 184.13 694.545 183.92C696.33 183.815 698.43 183.605 700.95 183.395C703.47 183.185 705.57 182.975 707.25 182.765C708.93 182.555 710.4 182.45 711.45 182.45C712.815 182.45 713.865 184.235 714.495 187.595C714.6 188.33 714.705 189.8 714.705 191.9C714.705 194.315 714.075 196.73 712.815 199.25C712.395 199.985 711.45 200.51 709.98 200.72C708.51 200.93 703.575 201.245 695.175 201.665C686.775 202.085 681.84 202.4 680.265 202.61C679.845 202.715 679.53 202.715 679.11 202.715C677.325 202.715 673.545 202.82 667.77 202.925C661.995 203.03 657.795 203.135 655.17 203.24C654.54 203.24 653.385 203.345 651.915 203.45C650.445 203.555 649.29 203.555 648.555 203.555C646.14 203.555 644.145 203.135 642.675 202.19C642.15 201.98 641.73 201.455 641.31 200.825C640.89 200.195 640.785 199.67 640.785 199.04C640.47 195.995 640.26 191.69 640.05 186.02C639.84 180.35 639.63 176.465 639.525 174.26L639.42 172.79C639.42 171.74 639.42 170.795 639.42 169.745L639.315 168.275C639.525 168.275 640.05 168.17 640.995 167.96C641.94 167.75 642.57 167.54 642.885 167.435C643.62 167.33 645.3 167.225 647.925 167.225C650.97 167.225 652.86 167.435 653.7 167.645C654.54 167.96 654.96 168.485 654.96 169.22C654.96 169.535 655.065 170.27 655.275 171.32C655.485 172.37 655.695 173.105 655.695 173.42C655.695 174.575 655.905 176.675 656.535 179.825C656.535 180.245 656.64 181.19 656.85 182.555C656.955 183.92 657.165 185.075 657.48 186.125L670.395 185.39Z" fill="#FF961E"/>
<rect x="750.75" y="0.75" width="150" height="180" fill="white"/>
<rect x="750.75" y="0.75" width="150" height="180" stroke="#FF961E" stroke-width="1.5"/>
<path d="M853.05 140.51C849.69 140.51 847.38 139.985 846.12 138.725C844.86 137.465 844.23 135.155 844.02 131.69C843.495 121.925 843.285 115.205 843.285 111.53C843.285 106.385 843.6 90.11 844.335 62.81C844.335 62.075 844.44 61.235 844.65 60.395C844.755 59.555 844.86 58.82 845.07 58.19C845.175 57.56 845.385 56.825 845.7 55.775C845.91 54.725 846.12 53.99 846.33 53.36C846.54 52.52 846.96 51.89 847.695 51.68C847.905 51.68 848.64 51.47 849.795 51.155C850.95 50.84 851.79 50.63 852.21 50.525C852.63 50.42 853.26 50.315 854.31 50.105C855.255 49.895 855.99 49.895 856.62 49.895C857.25 49.895 857.985 50 858.825 50.21C859.665 50.42 860.4 50.63 861.24 50.945C863.235 51.995 864.39 53.885 864.6 56.615C864.6 57.875 864.705 62.075 864.81 69.32C864.81 76.565 865.02 81.08 865.23 82.865C865.44 84.125 866.175 85.49 867.435 86.855C868.065 87.59 868.695 88.325 869.43 89.06C870.165 89.9 871.005 90.74 871.95 91.58C872.79 92.525 873.525 93.26 874.155 93.68C874.995 94.52 875.52 95.465 875.94 96.41C876.36 97.46 876.465 98.615 876.36 99.875C876.255 101.135 876.15 102.08 876.045 102.71C875.835 103.34 875.625 104.495 875.205 105.965C874.575 108.485 872.37 109.85 868.59 109.85C866.595 109.85 865.335 110.165 864.915 110.69C864.39 111.32 864.18 112.685 864.285 114.995C864.285 116.57 864.285 119.405 864.39 123.395C864.495 127.385 864.6 130.115 864.6 131.48C864.6 134.315 863.865 136.205 862.185 137.15C857.985 139.46 854.94 140.615 853.05 140.51ZM806.85 138.305C797.715 138.2 790.155 135.05 784.065 128.75C781.965 126.65 780.495 123.08 779.865 118.04C778.815 111.11 778.29 104.915 778.395 99.56C778.395 90.32 780.39 81.395 784.38 72.785C784.695 72.05 785.01 71.525 785.325 71.21C790.785 65.75 794.25 62.39 795.72 61.13C796.035 60.815 796.455 60.605 796.98 60.395C797.4 60.29 798.03 60.185 798.87 60.08C799.605 59.975 800.13 59.87 800.445 59.87C805.17 58.82 809.685 59.135 813.885 60.815C818.085 62.495 822.495 65.225 826.905 68.795C828.69 70.475 830.16 71.945 831.21 73.31C832.26 74.675 832.995 76.25 833.415 78.035C834.255 82.55 834.57 86.33 834.255 89.27C833.625 96.41 832.47 104.18 831 112.685C829.215 122.66 824.595 130.01 817.035 134.63C812.415 137.57 808.95 138.725 806.85 138.305ZM818.295 94.52C818.19 94.31 818.085 93.68 817.98 92.84C817.77 92 817.665 91.37 817.56 90.95C817.455 90.635 817.35 90.11 817.14 89.48C816.93 88.85 816.72 88.325 816.405 87.8C816.09 87.38 815.775 86.855 815.355 86.435C812.835 83.81 810.105 82.76 807.165 83.285C804.12 83.915 802.02 85.91 800.76 89.375C799.185 93.365 798.765 96.935 799.395 100.085C799.605 101.345 799.815 103.34 800.13 105.965C800.445 108.695 800.76 110.69 801.075 112.055C801.39 113.63 802.335 114.995 804.015 116.15C805.59 117.305 807.165 117.83 808.845 117.83C810 117.83 811.155 117.41 812.415 116.465C813.57 115.625 814.305 114.47 814.62 113C814.83 111.845 816.09 105.65 818.295 94.52Z" fill="#FF961E"/>
<rect x="900.75" y="0.75" width="150" height="180" fill="white"/>
<rect x="900.75" y="0.75" width="150" height="180" stroke="#FF961E" stroke-width="1.5"/>
<path d="M996.12 50.21C1000.11 50 1002.32 49.895 1002.53 49.895C1004.84 50 1007.04 50.21 1009.35 50.525C1011.66 50.84 1013.66 51.05 1015.44 51.155C1017.44 51.365 1018.49 52.52 1018.59 54.515C1018.59 57.035 1018.8 60.92 1019.12 66.065C1019.43 71.315 1019.64 75.2 1019.75 77.825C1019.85 79.82 1019.85 83.39 1019.85 88.43C1019.85 93.575 1019.85 97.145 1019.85 99.035C1019.85 101.87 1019.85 107.645 1019.85 116.465C1019.85 125.285 1019.85 131.165 1019.85 134V134.21C1019.85 135.68 1019.64 137.15 1019.22 138.41C1018.28 141.035 1016.6 142.295 1014.18 142.19C1013.03 142.19 1011.66 142.295 1010.19 142.295C1008.72 142.295 1007.46 142.295 1006.41 142.085C1005.57 142.085 1004.63 141.77 1003.79 141.245C1002.84 140.825 1002.21 140.195 1002 139.565C999.9 134.525 998.85 130.64 998.745 127.91C998.43 121.82 998.22 111.425 998.115 96.935C998.01 82.445 997.905 72.575 997.695 67.22C997.695 65.54 997.59 63.86 997.38 61.97C997.17 60.08 996.96 57.98 996.75 55.565L996.12 50.21ZM956.85 138.305C947.715 138.2 940.155 135.05 934.065 128.75C931.965 126.65 930.495 123.08 929.865 118.04C928.815 111.11 928.29 104.915 928.395 99.56C928.395 90.32 930.39 81.395 934.38 72.785C934.695 72.05 935.01 71.525 935.325 71.21C940.785 65.75 944.25 62.39 945.72 61.13C946.035 60.815 946.455 60.605 946.98 60.395C947.4 60.29 948.03 60.185 948.87 60.08C949.605 59.975 950.13 59.87 950.445 59.87C955.17 58.82 959.685 59.135 963.885 60.815C968.085 62.495 972.495 65.225 976.905 68.795C978.69 70.475 980.16 71.945 981.21 73.31C982.26 74.675 982.995 76.25 983.415 78.035C984.255 82.55 984.57 86.33 984.255 89.27C983.625 96.41 982.47 104.18 981 112.685C979.215 122.66 974.595 130.01 967.035 134.63C962.415 137.57 958.95 138.725 956.85 138.305ZM968.295 94.52C968.19 94.31 968.085 93.68 967.98 92.84C967.77 92 967.665 91.37 967.56 90.95C967.455 90.635 967.35 90.11 967.14 89.48C966.93 88.85 966.72 88.325 966.405 87.8C966.09 87.38 965.775 86.855 965.355 86.435C962.835 83.81 960.105 82.76 957.165 83.285C954.12 83.915 952.02 85.91 950.76 89.375C949.185 93.365 948.765 96.935 949.395 100.085C949.605 101.345 949.815 103.34 950.13 105.965C950.445 108.695 950.76 110.69 951.075 112.055C951.39 113.63 952.335 114.995 954.015 116.15C955.59 117.305 957.165 117.83 958.845 117.83C960 117.83 961.155 117.41 962.415 116.465C963.57 115.625 964.305 114.47 964.62 113C964.83 111.845 966.09 105.65 968.295 94.52Z" fill="#FF961E"/>
<rect x="1050.75" y="60.75" width="150" height="180" fill="white"/>
<rect x="1050.75" y="60.75" width="150" height="180" stroke="#FF961E" stroke-width="1.5"/>
<path d="M1106.85 198.305C1097.72 198.2 1090.16 195.05 1084.07 188.75C1081.97 186.65 1080.5 183.08 1079.87 178.04C1078.82 171.11 1078.29 164.915 1078.4 159.56C1078.4 150.32 1080.39 141.395 1084.38 132.785C1084.7 132.05 1085.01 131.525 1085.33 131.21C1090.79 125.75 1094.25 122.39 1095.72 121.13C1096.04 120.815 1096.46 120.605 1096.98 120.395C1097.4 120.29 1098.03 120.185 1098.87 120.08C1099.61 119.975 1100.13 119.87 1100.45 119.87C1105.17 118.82 1109.69 119.135 1113.89 120.815C1118.09 122.495 1122.5 125.225 1126.91 128.795C1128.69 130.475 1130.16 131.945 1131.21 133.31C1132.26 134.675 1133 136.25 1133.42 138.035C1133.84 140.135 1134.05 142.025 1134.26 143.6C1134.47 142.55 1134.89 141.29 1135.52 139.925C1137.2 136.145 1140.14 134.465 1144.44 134.675C1145.07 134.78 1145.91 134.78 1146.75 134.675C1147.59 134.675 1148.54 134.57 1149.69 134.36C1150.74 134.255 1151.69 134.15 1152.32 134.15V124.385V122.6V120.71C1152.32 117.14 1152.63 114.83 1153.47 113.885C1154.31 112.94 1156.52 112.205 1160.19 111.68C1160.61 111.68 1161.87 111.26 1163.97 110.525C1166.7 109.475 1168.91 109.58 1170.38 110.63C1171.85 111.785 1172.58 113.78 1172.58 116.72C1172.48 121.025 1172.16 132.68 1171.64 151.58C1171.11 168.59 1170.69 180.875 1170.48 188.33C1170.27 190.43 1169.96 192.425 1169.54 194.42C1168.49 197.99 1166.6 199.775 1163.87 199.67C1163.24 199.67 1162.19 199.565 1160.82 199.565C1159.35 199.565 1158.2 199.565 1157.15 199.565C1156.1 199.565 1155.05 199.46 1154.1 199.25C1153.16 199.145 1152.42 198.725 1151.9 197.99C1151.27 197.36 1151.06 196.415 1151.16 195.155C1151.27 193.685 1151.37 190.85 1151.48 186.86C1151.58 182.87 1151.69 180.665 1151.69 180.035C1151.69 179.615 1151.79 178.88 1151.79 177.62C1151.69 175.94 1150.74 175.31 1148.96 175.625C1146.44 176.045 1143.29 176.57 1139.51 177.095C1138.46 177.305 1137.72 177.095 1137.09 176.57C1136.46 176.045 1136.15 175.31 1136.36 174.47C1136.78 170.375 1137.51 166.595 1138.56 163.13C1138.56 163.025 1138.67 162.92 1138.88 162.71C1139.09 162.605 1139.3 162.5 1139.72 162.395C1140.03 162.29 1140.35 162.185 1140.56 162.08C1140.77 162.08 1141.19 161.975 1141.61 161.87C1142.03 161.765 1142.34 161.66 1142.55 161.66C1143.18 161.555 1144.23 161.345 1145.7 161.135C1147.17 160.925 1148.22 160.61 1149.06 160.4C1149.48 160.4 1150.01 160.295 1150.85 160.085C1151.58 159.98 1152.11 159.875 1152.42 159.77C1152.74 159.665 1153.16 159.455 1153.58 159.245C1154 159.035 1154.21 158.72 1154.31 158.3C1154.42 157.88 1154.52 157.355 1154.52 156.725C1154.42 156.305 1154.42 153.995 1154.42 149.585C1147.28 150.11 1143.39 150.32 1142.76 150.32L1140.87 150.635C1140.03 150.845 1139.3 150.95 1138.88 150.95C1138.35 151.055 1137.83 150.95 1137.2 150.74C1136.57 150.53 1136.04 150.11 1135.62 149.48C1134.99 148.745 1134.57 148.01 1134.36 147.17C1134.36 147.905 1134.26 148.64 1134.26 149.27C1133.63 156.41 1132.47 164.18 1131 172.685C1129.22 182.66 1124.6 190.01 1117.04 194.63C1112.42 197.57 1108.95 198.725 1106.85 198.305ZM1118.3 154.52C1118.19 154.31 1118.09 153.68 1117.98 152.84C1117.77 152 1117.67 151.37 1117.56 150.95C1117.46 150.635 1117.35 150.11 1117.14 149.48C1116.93 148.85 1116.72 148.325 1116.41 147.8C1116.09 147.38 1115.78 146.855 1115.36 146.435C1112.84 143.81 1110.11 142.76 1107.17 143.285C1104.12 143.915 1102.02 145.91 1100.76 149.375C1099.19 153.365 1098.77 156.935 1099.4 160.085C1099.61 161.345 1099.82 163.34 1100.13 165.965C1100.45 168.695 1100.76 170.69 1101.08 172.055C1101.39 173.63 1102.34 174.995 1104.02 176.15C1105.59 177.305 1107.17 177.83 1108.85 177.83C1110 177.83 1111.16 177.41 1112.42 176.465C1113.57 175.625 1114.31 174.47 1114.62 173C1114.83 171.845 1116.09 165.65 1118.3 154.52Z" fill="#FF961E"/>
</svg>
