<svg width="152" height="182" viewBox="0 0 152 182" fill="none" xmlns="http://www.w3.org/2000/svg">
<rect x="0.75" y="0.75" width="150" height="180" fill="white"/>
<rect x="0.75" y="0.75" width="150" height="180" stroke="#FF961E" stroke-width="1.5"/>
<path d="M121.95 86.645C121.845 91.055 120.795 94.1 118.8 95.78C117.96 96.41 116.91 96.935 115.65 97.145C114.39 97.355 113.235 97.46 112.29 97.355H110.925L108.615 96.725C107.145 96.41 106.515 95.465 106.515 93.995C106.515 82.235 106.515 74.15 106.305 69.95C105.99 65.33 105.885 59.66 105.885 52.94C105.885 51.575 106.305 50.42 107.355 49.475C108.3 48.635 109.56 48.11 111.03 48.11L118.485 48.845L119.535 49.685C119.955 50 120.48 50.63 121.32 51.575C122.055 52.52 122.475 53.465 122.475 54.305V64.7C122.37 64.7 122.265 65.96 122.265 68.375C122.265 70.895 122.16 74.15 122.16 78.14C122.055 82.13 121.95 84.965 121.95 86.645ZM98.85 65.645C100.845 66.065 102.21 66.59 102.945 67.22C103.68 67.85 104.1 69.11 104.31 70.79C104.31 71.63 104.415 72.89 104.415 74.57V77.405C104.415 79.19 103.26 80.45 100.845 81.29C99.165 81.92 97.17 82.34 94.86 82.655C92.13 83.075 90.555 82.13 90.135 79.82C89.085 75.41 89.715 71 92.235 66.59C92.445 66.38 92.76 66.17 93.18 65.96C93.6 65.855 94.335 65.75 95.28 65.645C96.12 65.54 96.75 65.435 96.96 65.33C96.96 65.33 97.59 65.435 98.85 65.645ZM35.64 50.105C36.69 50.105 38.895 50.105 42.15 50.315C45.3 50.525 47.61 50.525 48.975 50.42C49.605 50.42 50.655 50.42 52.02 50.42C53.28 50.525 54.33 50.525 54.96 50.42C63.045 50 70.08 50.315 76.065 51.575C80.685 52.625 82.68 55.67 82.26 60.71C82.05 62.495 81.84 66.275 81.63 71.945C81.42 75.095 81.315 77.615 81.21 79.505C81 81.395 80.685 83.6 80.16 86.33C79.635 89.06 78.9 91.37 78.06 93.47C77.325 95.255 76.38 96.515 75.12 97.25C71.97 99.245 69.135 100.61 66.72 101.345C65.775 101.555 65.145 101.555 64.725 101.555C64.305 101.555 63.57 101.555 62.52 101.45C61.47 101.345 60.84 101.24 60.42 101.24C50.97 100.925 45.615 100.715 44.46 100.61C42.36 100.505 40.26 99.455 38.37 97.355C36.375 95.255 35.22 93.155 35.01 91.055C34.59 88.325 34.485 85.28 34.485 81.92C34.485 78.56 34.59 76.04 34.8 74.15C34.905 72.365 35.115 69.32 35.535 65.015C35.64 63.545 35.745 62.075 35.745 60.395C35.745 58.82 35.64 56.93 35.64 54.83C35.64 52.73 35.64 51.155 35.64 50.105ZM50.025 64.91V78.665C50.025 80.345 50.34 81.5 50.865 81.92C51.39 82.445 52.545 82.76 54.33 82.76C54.75 82.76 55.59 82.865 56.64 82.865C57.69 82.865 58.425 82.865 59.055 82.865C60.315 82.865 61.575 82.55 62.625 81.71C63.675 80.87 64.2 79.925 64.305 78.665C64.515 72.68 63.885 67.745 62.31 63.86L50.025 64.91ZM41.835 111.53C42.045 111.53 43.62 111.11 46.56 110.27C49.5 109.43 51.705 109.01 53.175 109.01C53.805 109.01 54.435 109.115 55.17 109.22C56.01 109.43 56.955 109.535 58.11 109.535C58.635 109.535 59.475 109.535 60.525 109.43C61.575 109.43 62.31 109.325 62.835 109.325C63.36 109.325 64.095 109.43 65.145 109.43C66.195 109.535 66.93 109.535 67.455 109.535C69.24 109.535 71.13 109.43 73.125 109.22C75.015 109.01 77.22 108.59 79.53 108.17C81.84 107.75 83.73 107.54 84.99 107.33C86.46 107.12 88.035 107.015 89.82 107.015C91.395 107.015 94.125 107.225 97.905 107.435C101.685 107.645 104.1 107.75 105.15 107.75C105.465 107.75 105.675 107.96 105.885 108.17C107.145 110.69 107.88 113.84 108.195 117.62C108.3 119.405 108.405 120.77 108.405 121.715C108.405 123.395 108.3 124.97 108.195 126.44C108.09 128.015 107.985 129.8 107.775 131.9C107.565 134 107.46 135.575 107.46 136.52C107.25 137.675 106.515 139.67 105.045 142.505C104.625 143.345 103.995 144.08 103.26 144.5C102.42 144.92 101.79 145.235 101.265 145.235L98.955 145.55C97.695 145.655 96.75 145.76 96.225 145.865C95.49 146.075 94.44 146.18 92.97 146.39C91.5 146.6 90.555 146.705 89.925 146.81C89.505 146.915 89.085 146.915 88.875 146.915C87.405 146.915 86.67 146.075 86.67 144.29C86.46 136.94 86.355 131.795 86.355 128.75C86.25 126.44 85.2 125.285 83.31 125.285C83.1 125.285 82.89 125.39 82.68 125.39C81.63 125.495 80.055 125.705 78.165 126.125C76.275 126.545 75.015 126.755 74.49 126.755C73.965 126.86 72.915 127.07 71.235 127.28C69.555 127.595 68.19 127.805 67.035 127.91C65.88 128.12 64.725 128.12 63.675 128.12C60.945 128.12 55.38 127.805 47.085 127.07C46.665 127.07 46.14 126.86 45.615 126.545C45.09 126.23 44.88 125.915 44.88 125.6C44.67 124.865 44.25 123.92 43.62 122.66C42.99 121.4 42.78 120.14 42.78 118.88C42.78 118.67 42.57 117.935 42.15 116.885C41.73 115.835 41.625 114.995 42.045 114.365C42.045 114.155 42.15 113.945 42.15 113.735C42.15 113.42 42.045 113 41.94 112.58C41.835 112.16 41.835 111.845 41.835 111.53Z" fill="#FF961E"/>
</svg>
