<svg width="152" height="182" viewBox="0 0 152 182" fill="none" xmlns="http://www.w3.org/2000/svg">
<rect x="0.75" y="0.75" width="150" height="180" fill="white"/>
<rect x="0.75" y="0.75" width="150" height="180" stroke="#FF961E" stroke-width="1.5"/>
<path d="M113.55 77.3V87.695C113.55 88.85 113.34 90.95 113.13 93.89C112.92 95.57 111.87 96.515 110.19 96.515C106.41 96.62 103.26 96.62 100.53 96.41C98.955 96.41 97.59 95.78 96.54 94.73C95.49 93.68 94.86 92.42 94.86 90.95C94.755 85.805 94.755 79.295 94.86 71.42C94.86 70.265 94.965 67.535 95.07 63.335C95.175 59.135 95.28 56.195 95.385 54.62C95.385 52.52 96.12 51.155 97.59 50.315C97.905 50.105 98.535 49.79 99.48 49.265C100.425 48.845 101.16 48.425 101.685 48.215C102.105 48.005 102.735 47.795 103.575 47.48C104.415 47.165 105.15 46.955 105.885 46.85C106.62 46.745 107.355 46.745 108.195 46.745C109.455 46.85 110.4 46.955 111.03 47.165C112.5 47.795 113.235 48.845 113.235 50.42C113.235 53.36 113.445 57.14 113.97 61.55C114.075 62.39 114.705 62.915 115.965 63.02C121.005 63.44 123.84 63.65 124.47 63.755C125.94 64.175 126.885 65.33 127.095 67.43C127.41 70.58 126.885 73.415 125.415 75.83C124.995 76.565 123.735 77.09 121.845 77.3H113.55ZM64.62 66.275C65.355 59.45 65.985 55.145 66.405 53.36C66.72 51.785 68.19 50 70.71 48.005C71.13 47.585 71.865 47.375 72.81 47.27C73.65 47.27 74.49 47.27 75.12 47.48C78.06 48.53 80.37 50.42 82.05 53.15C83.73 55.88 84.36 58.715 83.835 61.55C83.415 63.65 82.785 66.8 81.945 70.895C81 74.99 80.37 78.245 79.95 80.555C79.635 82.025 79.425 84.02 79.32 86.54C79.11 89.06 79.005 90.845 79.005 91.685C78.69 93.785 77.85 95.465 76.38 96.935C74.91 98.405 73.125 99.245 71.025 99.455C70.395 99.56 67.56 99.77 62.31 100.085C60.105 100.295 57.69 100.295 55.17 100.085C52.545 99.875 50.34 99.56 48.555 99.14C46.77 98.825 44.46 98.3 41.52 97.67C38.58 97.04 36.375 96.515 34.905 96.2C31.86 95.57 29.865 94.625 28.815 93.365C27.765 92.105 27.345 89.9 27.345 86.645C27.345 84.335 27.45 81.08 27.87 76.88C28.185 72.68 28.395 69.845 28.5 68.165C28.605 66.275 28.71 63.44 28.71 59.66C28.71 55.88 28.815 52.94 28.92 50.84C28.92 50.42 29.13 50 29.76 49.37C30.285 48.74 30.705 48.425 31.125 48.425C35.745 49.055 39.735 49.685 42.99 50.525C46.14 51.365 48.135 52.52 48.975 53.885C49.71 55.25 49.71 57.455 48.87 60.605C48.87 60.815 48.66 61.445 48.45 62.39C48.135 63.335 47.925 64.175 47.82 64.805V67.43L64.62 66.275ZM44.985 87.17C45.825 87.17 47.4 87.275 49.71 87.275C52.02 87.275 54.015 87.275 55.59 87.275C57.165 87.275 58.74 87.17 60.21 86.96C60.735 86.96 61.26 86.435 61.89 85.385C62.52 84.44 62.94 83.495 63.255 82.445C63.99 79.715 63.255 78.245 60.945 78.245H45.09C44.985 79.715 44.985 80.45 44.985 80.45V87.17ZM75.855 129.905C74.175 129.905 72.705 130.01 71.235 130.01C68.82 130.01 66.405 130.22 64.095 130.64C63.675 130.745 63.15 130.955 62.73 131.375C62.31 131.795 62.1 132.005 62.1 132.215C62.31 133.37 62.835 134.21 63.78 134.63C64.305 134.945 65.145 135.05 66.195 135.05C67.035 135.05 68.085 135.05 69.345 134.84C70.395 134.735 71.235 134.63 71.865 134.63C72.39 134.63 72.915 134.735 73.44 134.735C74.7 135.05 76.065 135.155 77.535 135.155C79.425 135.155 82.05 134.84 85.41 134.105C87.09 133.79 88.035 132.845 88.035 131.375C88.035 131.165 87.93 130.745 87.93 130.325L87.3 130.01H83.625C82.155 130.01 80.685 130.01 79.425 130.01C78.165 130.01 76.905 129.905 75.855 129.905ZM57.585 114.05V117.41V120.665H63.15H68.715C71.55 120.665 74.07 120.665 76.275 120.56C77.535 120.56 79.53 120.56 82.05 120.35C84.57 120.14 86.04 120.035 86.67 120.035C89.19 119.93 90.45 118.67 90.45 116.15V115.52V114.995C90.45 113.42 90.555 112.16 90.765 111.11C90.975 110.06 91.08 109.325 91.185 109.01C91.29 108.8 91.5 108.38 91.815 107.855C92.025 107.435 92.445 107.12 92.97 107.015C93.39 106.91 94.125 106.805 95.07 106.805C95.28 106.805 96.225 106.7 98.115 106.385C100.005 106.175 101.055 106.07 101.37 106.07C104.73 107.015 106.725 107.855 107.46 108.59C108.195 109.43 108.615 111.215 108.615 114.155C108.615 119.195 108.405 125.39 107.985 132.74C107.775 135.575 106.515 137.99 104.205 139.985C101.895 142.085 99.06 143.24 95.805 143.45C94.23 143.66 91.395 143.975 87.405 144.605C83.415 145.235 80.265 145.55 78.06 145.655C76.8 145.76 75.435 145.76 73.965 145.76C71.97 145.76 67.77 145.655 61.26 145.235C59.265 145.13 56.535 144.71 52.965 144.08C48.345 143.24 45.405 140.405 44.04 135.68C42.885 132.11 42.36 128.225 42.36 124.13C42.36 120.035 42.99 114.785 44.25 108.485C44.355 107.96 44.565 107.54 44.985 107.12C45.3 106.805 45.825 106.595 46.56 106.49C47.295 106.385 47.925 106.28 48.555 106.28C49.08 106.28 49.815 106.175 50.865 106.175H51.81C52.65 106.175 53.28 106.28 53.7 106.28C54.12 106.28 54.54 106.385 55.17 106.49C55.8 106.595 56.22 106.805 56.535 107.015C56.745 107.225 57.06 107.645 57.27 108.065C57.48 108.59 57.585 109.22 57.585 109.85V114.05Z" fill="#FF961E"/>
</svg>
