<svg width="152" height="182" viewBox="0 0 152 182" fill="none" xmlns="http://www.w3.org/2000/svg">
<rect x="0.75" y="0.75" width="150" height="180" fill="white"/>
<rect x="0.75" y="0.75" width="150" height="180" stroke="#FF961E" stroke-width="1.5"/>
<path d="M61.365 104.18C53.49 104.39 46.35 102.71 39.84 98.93C35.85 96.725 33.12 93.05 31.86 87.8C30.18 81.5 29.97 76.46 31.23 72.47C31.86 70.37 32.91 68.375 34.275 66.485C36.9 62.915 39.21 60.185 41.205 58.295C44.145 55.565 48.03 54.515 52.65 55.04C58.635 55.88 65.04 58.295 71.76 62.285C75.54 64.595 77.85 67.955 78.69 72.575C79.845 79.925 79.95 85.91 78.9 90.425C77.85 94.94 75.855 98.405 72.81 100.925C69.765 103.445 65.985 104.6 61.365 104.18ZM49.92 81.71C51.18 85.91 52.02 88.325 52.335 88.745C52.545 89.165 52.86 89.69 53.385 90.11C53.91 90.53 54.33 90.74 54.75 90.635C57.06 90.425 59.055 89.9 60.63 88.85C62.1 87.8 63.15 86.435 63.57 84.65C63.99 82.865 63.57 80.765 62.31 78.245C60.42 74.465 57.48 73.205 53.49 74.36C51.18 75.095 50.025 77.51 49.92 81.71ZM121.95 97.145C121.845 101.555 120.795 104.6 118.8 106.28C117.96 106.91 116.91 107.435 115.65 107.645C114.39 107.855 113.235 107.96 112.29 107.855H110.925L108.615 107.225C107.145 106.91 106.515 105.965 106.515 104.495V87.065C104.625 87.485 102.525 87.695 100.32 87.905C96.225 88.325 93.81 87.38 93.075 85.07C91.5 80.66 92.55 76.25 96.33 71.84C96.54 71.63 96.96 71.42 97.695 71.21C98.325 71.105 99.375 71 100.845 70.895C102.21 70.79 103.05 70.685 103.365 70.58C103.47 70.58 104.415 70.685 106.095 70.895C105.885 65.33 105.885 59.345 105.885 52.94C105.885 51.575 106.305 50.42 107.355 49.475C108.3 48.635 109.56 48.11 111.03 48.11L118.485 48.845L119.535 49.685C119.955 50 120.48 50.63 121.32 51.575C122.055 52.52 122.475 53.465 122.475 54.305V69.95C122.37 69.95 122.265 71.63 122.265 74.99C122.265 78.35 122.16 82.445 122.16 87.17C122.055 92 121.95 95.255 121.95 97.145ZM70.395 125.39C84.675 124.55 92.76 124.13 94.545 123.92C96.33 123.815 98.43 123.605 100.95 123.395C103.47 123.185 105.57 122.975 107.25 122.765C108.93 122.555 110.4 122.45 111.45 122.45C112.815 122.45 113.865 124.235 114.495 127.595C114.6 128.33 114.705 129.8 114.705 131.9C114.705 134.315 114.075 136.73 112.815 139.25C112.395 139.985 111.45 140.51 109.98 140.72C108.51 140.93 103.575 141.245 95.175 141.665C86.775 142.085 81.84 142.4 80.265 142.61C79.845 142.715 79.53 142.715 79.11 142.715C77.325 142.715 73.545 142.82 67.77 142.925C61.995 143.03 57.795 143.135 55.17 143.24C54.54 143.24 53.385 143.345 51.915 143.45C50.445 143.555 49.29 143.555 48.555 143.555C46.14 143.555 44.145 143.135 42.675 142.19C42.15 141.98 41.73 141.455 41.31 140.825C40.89 140.195 40.785 139.67 40.785 139.04C40.47 135.995 40.26 131.69 40.05 126.02C39.84 120.35 39.63 116.465 39.525 114.26L39.42 112.79C39.42 111.74 39.42 110.795 39.42 109.745L39.315 108.275C39.525 108.275 40.05 108.17 40.995 107.96C41.94 107.75 42.57 107.54 42.885 107.435C43.62 107.33 45.3 107.225 47.925 107.225C50.97 107.225 52.86 107.435 53.7 107.645C54.54 107.96 54.96 108.485 54.96 109.22C54.96 109.535 55.065 110.27 55.275 111.32C55.485 112.37 55.695 113.105 55.695 113.42C55.695 114.575 55.905 116.675 56.535 119.825C56.535 120.245 56.64 121.19 56.85 122.555C56.955 123.92 57.165 125.075 57.48 126.125L70.395 125.39Z" fill="#FF961E"/>
</svg>
