<svg width="452" height="242" viewBox="0 0 452 242" fill="none" xmlns="http://www.w3.org/2000/svg">
<rect x="0.75" y="60.75" width="150" height="180" fill="white"/>
<rect x="0.75" y="60.75" width="150" height="180" stroke="#FF961E" stroke-width="1.5"/>
<path d="M113.55 137.3V147.695C113.55 148.85 113.34 150.95 113.13 153.89C112.92 155.57 111.87 156.515 110.19 156.515C106.41 156.62 103.26 156.62 100.53 156.41C98.955 156.41 97.59 155.78 96.54 154.73C95.49 153.68 94.86 152.42 94.86 150.95C94.755 145.805 94.755 139.295 94.86 131.42C94.86 130.265 94.965 127.535 95.07 123.335C95.175 119.135 95.28 116.195 95.385 114.62C95.385 112.52 96.12 111.155 97.59 110.315C97.905 110.105 98.535 109.79 99.48 109.265C100.425 108.845 101.16 108.425 101.685 108.215C102.105 108.005 102.735 107.795 103.575 107.48C104.415 107.165 105.15 106.955 105.885 106.85C106.62 106.745 107.355 106.745 108.195 106.745C109.455 106.85 110.4 106.955 111.03 107.165C112.5 107.795 113.235 108.845 113.235 110.42C113.235 113.36 113.445 117.14 113.97 121.55C114.075 122.39 114.705 122.915 115.965 123.02C121.005 123.44 123.84 123.65 124.47 123.755C125.94 124.175 126.885 125.33 127.095 127.43C127.41 130.58 126.885 133.415 125.415 135.83C124.995 136.565 123.735 137.09 121.845 137.3H113.55ZM64.62 126.275C65.355 119.45 65.985 115.145 66.405 113.36C66.72 111.785 68.19 110 70.71 108.005C71.13 107.585 71.865 107.375 72.81 107.27C73.65 107.27 74.49 107.27 75.12 107.48C78.06 108.53 80.37 110.42 82.05 113.15C83.73 115.88 84.36 118.715 83.835 121.55C83.415 123.65 82.785 126.8 81.945 130.895C81 134.99 80.37 138.245 79.95 140.555C79.635 142.025 79.425 144.02 79.32 146.54C79.11 149.06 79.005 150.845 79.005 151.685C78.69 153.785 77.85 155.465 76.38 156.935C74.91 158.405 73.125 159.245 71.025 159.455C70.395 159.56 67.56 159.77 62.31 160.085C60.105 160.295 57.69 160.295 55.17 160.085C52.545 159.875 50.34 159.56 48.555 159.14C46.77 158.825 44.46 158.3 41.52 157.67C38.58 157.04 36.375 156.515 34.905 156.2C31.86 155.57 29.865 154.625 28.815 153.365C27.765 152.105 27.345 149.9 27.345 146.645C27.345 144.335 27.45 141.08 27.87 136.88C28.185 132.68 28.395 129.845 28.5 128.165C28.605 126.275 28.71 123.44 28.71 119.66C28.71 115.88 28.815 112.94 28.92 110.84C28.92 110.42 29.13 110 29.76 109.37C30.285 108.74 30.705 108.425 31.125 108.425C35.745 109.055 39.735 109.685 42.99 110.525C46.14 111.365 48.135 112.52 48.975 113.885C49.71 115.25 49.71 117.455 48.87 120.605C48.87 120.815 48.66 121.445 48.45 122.39C48.135 123.335 47.925 124.175 47.82 124.805V127.43L64.62 126.275ZM44.985 147.17C45.825 147.17 47.4 147.275 49.71 147.275C52.02 147.275 54.015 147.275 55.59 147.275C57.165 147.275 58.74 147.17 60.21 146.96C60.735 146.96 61.26 146.435 61.89 145.385C62.52 144.44 62.94 143.495 63.255 142.445C63.99 139.715 63.255 138.245 60.945 138.245H45.09C44.985 139.715 44.985 140.45 44.985 140.45V147.17ZM75.855 189.905C74.175 189.905 72.705 190.01 71.235 190.01C68.82 190.01 66.405 190.22 64.095 190.64C63.675 190.745 63.15 190.955 62.73 191.375C62.31 191.795 62.1 192.005 62.1 192.215C62.31 193.37 62.835 194.21 63.78 194.63C64.305 194.945 65.145 195.05 66.195 195.05C67.035 195.05 68.085 195.05 69.345 194.84C70.395 194.735 71.235 194.63 71.865 194.63C72.39 194.63 72.915 194.735 73.44 194.735C74.7 195.05 76.065 195.155 77.535 195.155C79.425 195.155 82.05 194.84 85.41 194.105C87.09 193.79 88.035 192.845 88.035 191.375C88.035 191.165 87.93 190.745 87.93 190.325L87.3 190.01H83.625C82.155 190.01 80.685 190.01 79.425 190.01C78.165 190.01 76.905 189.905 75.855 189.905ZM57.585 174.05V177.41V180.665H63.15H68.715C71.55 180.665 74.07 180.665 76.275 180.56C77.535 180.56 79.53 180.56 82.05 180.35C84.57 180.14 86.04 180.035 86.67 180.035C89.19 179.93 90.45 178.67 90.45 176.15V175.52V174.995C90.45 173.42 90.555 172.16 90.765 171.11C90.975 170.06 91.08 169.325 91.185 169.01C91.29 168.8 91.5 168.38 91.815 167.855C92.025 167.435 92.445 167.12 92.97 167.015C93.39 166.91 94.125 166.805 95.07 166.805C95.28 166.805 96.225 166.7 98.115 166.385C100.005 166.175 101.055 166.07 101.37 166.07C104.73 167.015 106.725 167.855 107.46 168.59C108.195 169.43 108.615 171.215 108.615 174.155C108.615 179.195 108.405 185.39 107.985 192.74C107.775 195.575 106.515 197.99 104.205 199.985C101.895 202.085 99.06 203.24 95.805 203.45C94.23 203.66 91.395 203.975 87.405 204.605C83.415 205.235 80.265 205.55 78.06 205.655C76.8 205.76 75.435 205.76 73.965 205.76C71.97 205.76 67.77 205.655 61.26 205.235C59.265 205.13 56.535 204.71 52.965 204.08C48.345 203.24 45.405 200.405 44.04 195.68C42.885 192.11 42.36 188.225 42.36 184.13C42.36 180.035 42.99 174.785 44.25 168.485C44.355 167.96 44.565 167.54 44.985 167.12C45.3 166.805 45.825 166.595 46.56 166.49C47.295 166.385 47.925 166.28 48.555 166.28C49.08 166.28 49.815 166.175 50.865 166.175H51.81C52.65 166.175 53.28 166.28 53.7 166.28C54.12 166.28 54.54 166.385 55.17 166.49C55.8 166.595 56.22 166.805 56.535 167.015C56.745 167.225 57.06 167.645 57.27 168.065C57.48 168.59 57.585 169.22 57.585 169.85V174.05Z" fill="#FF961E"/>
<rect x="150.75" y="60.75" width="150" height="180" fill="white"/>
<rect x="150.75" y="60.75" width="150" height="180" stroke="#FF961E" stroke-width="1.5"/>
<path d="M271.95 146.645C271.845 151.055 270.795 154.1 268.8 155.78C267.96 156.41 266.91 156.935 265.65 157.145C264.39 157.355 263.235 157.46 262.29 157.355H260.925L258.615 156.725C257.145 156.41 256.515 155.465 256.515 153.995C256.515 142.235 256.515 134.15 256.305 129.95C255.99 125.33 255.885 119.66 255.885 112.94C255.885 111.575 256.305 110.42 257.355 109.475C258.3 108.635 259.56 108.11 261.03 108.11L268.485 108.845L269.535 109.685C269.955 110 270.48 110.63 271.32 111.575C272.055 112.52 272.475 113.465 272.475 114.305V124.7C272.37 124.7 272.265 125.96 272.265 128.375C272.265 130.895 272.16 134.15 272.16 138.14C272.055 142.13 271.95 144.965 271.95 146.645ZM248.85 125.645C250.845 126.065 252.21 126.59 252.945 127.22C253.68 127.85 254.1 129.11 254.31 130.79C254.31 131.63 254.415 132.89 254.415 134.57V137.405C254.415 139.19 253.26 140.45 250.845 141.29C249.165 141.92 247.17 142.34 244.86 142.655C242.13 143.075 240.555 142.13 240.135 139.82C239.085 135.41 239.715 131 242.235 126.59C242.445 126.38 242.76 126.17 243.18 125.96C243.6 125.855 244.335 125.75 245.28 125.645C246.12 125.54 246.75 125.435 246.96 125.33C246.96 125.33 247.59 125.435 248.85 125.645ZM185.64 110.105C186.69 110.105 188.895 110.105 192.15 110.315C195.3 110.525 197.61 110.525 198.975 110.42C199.605 110.42 200.655 110.42 202.02 110.42C203.28 110.525 204.33 110.525 204.96 110.42C213.045 110 220.08 110.315 226.065 111.575C230.685 112.625 232.68 115.67 232.26 120.71C232.05 122.495 231.84 126.275 231.63 131.945C231.42 135.095 231.315 137.615 231.21 139.505C231 141.395 230.685 143.6 230.16 146.33C229.635 149.06 228.9 151.37 228.06 153.47C227.325 155.255 226.38 156.515 225.12 157.25C221.97 159.245 219.135 160.61 216.72 161.345C215.775 161.555 215.145 161.555 214.725 161.555C214.305 161.555 213.57 161.555 212.52 161.45C211.47 161.345 210.84 161.24 210.42 161.24C200.97 160.925 195.615 160.715 194.46 160.61C192.36 160.505 190.26 159.455 188.37 157.355C186.375 155.255 185.22 153.155 185.01 151.055C184.59 148.325 184.485 145.28 184.485 141.92C184.485 138.56 184.59 136.04 184.8 134.15C184.905 132.365 185.115 129.32 185.535 125.015C185.64 123.545 185.745 122.075 185.745 120.395C185.745 118.82 185.64 116.93 185.64 114.83C185.64 112.73 185.64 111.155 185.64 110.105ZM200.025 124.91V138.665C200.025 140.345 200.34 141.5 200.865 141.92C201.39 142.445 202.545 142.76 204.33 142.76C204.75 142.76 205.59 142.865 206.64 142.865C207.69 142.865 208.425 142.865 209.055 142.865C210.315 142.865 211.575 142.55 212.625 141.71C213.675 140.87 214.2 139.925 214.305 138.665C214.515 132.68 213.885 127.745 212.31 123.86L200.025 124.91ZM191.835 171.53C192.045 171.53 193.62 171.11 196.56 170.27C199.5 169.43 201.705 169.01 203.175 169.01C203.805 169.01 204.435 169.115 205.17 169.22C206.01 169.43 206.955 169.535 208.11 169.535C208.635 169.535 209.475 169.535 210.525 169.43C211.575 169.43 212.31 169.325 212.835 169.325C213.36 169.325 214.095 169.43 215.145 169.43C216.195 169.535 216.93 169.535 217.455 169.535C219.24 169.535 221.13 169.43 223.125 169.22C225.015 169.01 227.22 168.59 229.53 168.17C231.84 167.75 233.73 167.54 234.99 167.33C236.46 167.12 238.035 167.015 239.82 167.015C241.395 167.015 244.125 167.225 247.905 167.435C251.685 167.645 254.1 167.75 255.15 167.75C255.465 167.75 255.675 167.96 255.885 168.17C257.145 170.69 257.88 173.84 258.195 177.62C258.3 179.405 258.405 180.77 258.405 181.715C258.405 183.395 258.3 184.97 258.195 186.44C258.09 188.015 257.985 189.8 257.775 191.9C257.565 194 257.46 195.575 257.46 196.52C257.25 197.675 256.515 199.67 255.045 202.505C254.625 203.345 253.995 204.08 253.26 204.5C252.42 204.92 251.79 205.235 251.265 205.235L248.955 205.55C247.695 205.655 246.75 205.76 246.225 205.865C245.49 206.075 244.44 206.18 242.97 206.39C241.5 206.6 240.555 206.705 239.925 206.81C239.505 206.915 239.085 206.915 238.875 206.915C237.405 206.915 236.67 206.075 236.67 204.29C236.46 196.94 236.355 191.795 236.355 188.75C236.25 186.44 235.2 185.285 233.31 185.285C233.1 185.285 232.89 185.39 232.68 185.39C231.63 185.495 230.055 185.705 228.165 186.125C226.275 186.545 225.015 186.755 224.49 186.755C223.965 186.86 222.915 187.07 221.235 187.28C219.555 187.595 218.19 187.805 217.035 187.91C215.88 188.12 214.725 188.12 213.675 188.12C210.945 188.12 205.38 187.805 197.085 187.07C196.665 187.07 196.14 186.86 195.615 186.545C195.09 186.23 194.88 185.915 194.88 185.6C194.67 184.865 194.25 183.92 193.62 182.66C192.99 181.4 192.78 180.14 192.78 178.88C192.78 178.67 192.57 177.935 192.15 176.885C191.73 175.835 191.625 174.995 192.045 174.365C192.045 174.155 192.15 173.945 192.15 173.735C192.15 173.42 192.045 173 191.94 172.58C191.835 172.16 191.835 171.845 191.835 171.53Z" fill="#FF961E"/>
<rect x="300.75" y="0.75" width="150" height="180" fill="white"/>
<rect x="300.75" y="0.75" width="150" height="180" stroke="#FF961E" stroke-width="1.5"/>
<path d="M361.365 104.18C353.49 104.39 346.35 102.71 339.84 98.93C335.85 96.725 333.12 93.05 331.86 87.8C330.18 81.5 329.97 76.46 331.23 72.47C331.86 70.37 332.91 68.375 334.275 66.485C336.9 62.915 339.21 60.185 341.205 58.295C344.145 55.565 348.03 54.515 352.65 55.04C358.635 55.88 365.04 58.295 371.76 62.285C375.54 64.595 377.85 67.955 378.69 72.575C379.845 79.925 379.95 85.91 378.9 90.425C377.85 94.94 375.855 98.405 372.81 100.925C369.765 103.445 365.985 104.6 361.365 104.18ZM349.92 81.71C351.18 85.91 352.02 88.325 352.335 88.745C352.545 89.165 352.86 89.69 353.385 90.11C353.91 90.53 354.33 90.74 354.75 90.635C357.06 90.425 359.055 89.9 360.63 88.85C362.1 87.8 363.15 86.435 363.57 84.65C363.99 82.865 363.57 80.765 362.31 78.245C360.42 74.465 357.48 73.205 353.49 74.36C351.18 75.095 350.025 77.51 349.92 81.71ZM421.95 97.145C421.845 101.555 420.795 104.6 418.8 106.28C417.96 106.91 416.91 107.435 415.65 107.645C414.39 107.855 413.235 107.96 412.29 107.855H410.925L408.615 107.225C407.145 106.91 406.515 105.965 406.515 104.495V87.065C404.625 87.485 402.525 87.695 400.32 87.905C396.225 88.325 393.81 87.38 393.075 85.07C391.5 80.66 392.55 76.25 396.33 71.84C396.54 71.63 396.96 71.42 397.695 71.21C398.325 71.105 399.375 71 400.845 70.895C402.21 70.79 403.05 70.685 403.365 70.58C403.47 70.58 404.415 70.685 406.095 70.895C405.885 65.33 405.885 59.345 405.885 52.94C405.885 51.575 406.305 50.42 407.355 49.475C408.3 48.635 409.56 48.11 411.03 48.11L418.485 48.845L419.535 49.685C419.955 50 420.48 50.63 421.32 51.575C422.055 52.52 422.475 53.465 422.475 54.305V69.95C422.37 69.95 422.265 71.63 422.265 74.99C422.265 78.35 422.16 82.445 422.16 87.17C422.055 92 421.95 95.255 421.95 97.145ZM370.395 125.39C384.675 124.55 392.76 124.13 394.545 123.92C396.33 123.815 398.43 123.605 400.95 123.395C403.47 123.185 405.57 122.975 407.25 122.765C408.93 122.555 410.4 122.45 411.45 122.45C412.815 122.45 413.865 124.235 414.495 127.595C414.6 128.33 414.705 129.8 414.705 131.9C414.705 134.315 414.075 136.73 412.815 139.25C412.395 139.985 411.45 140.51 409.98 140.72C408.51 140.93 403.575 141.245 395.175 141.665C386.775 142.085 381.84 142.4 380.265 142.61C379.845 142.715 379.53 142.715 379.11 142.715C377.325 142.715 373.545 142.82 367.77 142.925C361.995 143.03 357.795 143.135 355.17 143.24C354.54 143.24 353.385 143.345 351.915 143.45C350.445 143.555 349.29 143.555 348.555 143.555C346.14 143.555 344.145 143.135 342.675 142.19C342.15 141.98 341.73 141.455 341.31 140.825C340.89 140.195 340.785 139.67 340.785 139.04C340.47 135.995 340.26 131.69 340.05 126.02C339.84 120.35 339.63 116.465 339.525 114.26L339.42 112.79C339.42 111.74 339.42 110.795 339.42 109.745L339.315 108.275C339.525 108.275 340.05 108.17 340.995 107.96C341.94 107.75 342.57 107.54 342.885 107.435C343.62 107.33 345.3 107.225 347.925 107.225C350.97 107.225 352.86 107.435 353.7 107.645C354.54 107.96 354.96 108.485 354.96 109.22C354.96 109.535 355.065 110.27 355.275 111.32C355.485 112.37 355.695 113.105 355.695 113.42C355.695 114.575 355.905 116.675 356.535 119.825C356.535 120.245 356.64 121.19 356.85 122.555C356.955 123.92 357.165 125.075 357.48 126.125L370.395 125.39Z" fill="#FF961E"/>
</svg>
