<svg width="152" height="182" viewBox="0 0 152 182" fill="none" xmlns="http://www.w3.org/2000/svg">
<rect x="0.75" y="0.75" width="150" height="180" fill="white"/>
<rect x="0.75" y="0.75" width="150" height="180" stroke="#FF961E" stroke-width="1.5"/>
<path d="M86.46 128.015C86.25 129.17 85.935 130.955 85.515 133.265C85.095 135.575 84.885 137.045 84.78 137.57C84.465 139.145 83.52 140.09 82.05 140.3C80.475 140.615 76.905 140.825 71.235 140.93C69.765 141.035 68.925 140.195 68.715 138.41V135.995V134C68.715 133.58 68.715 133.055 68.715 132.53C68.715 132.005 68.715 131.585 68.715 131.27C68.61 131.06 68.61 130.745 68.61 130.535C68.61 130.325 68.505 130.115 68.295 129.905C68.085 129.8 67.98 129.695 67.875 129.59C67.77 129.485 67.56 129.38 67.14 129.275C66.72 129.17 66.405 129.065 66.195 129.065C65.985 129.065 65.565 128.96 64.935 128.75C63.675 128.54 58.53 128.33 49.5 128.015C40.47 127.805 35.01 127.595 33.12 127.595C31.86 127.595 30.915 126.86 30.285 125.39C28.92 122.45 28.815 118.775 29.97 114.47C30.075 113.735 31.02 113.21 32.805 112.79C33.015 112.685 35.115 112.685 39.105 112.685C43.095 112.685 45.195 112.685 45.405 112.685C47.61 112.685 54.12 112.475 64.83 112.265C75.54 112.055 81.735 111.845 83.625 111.74C85.725 111.635 91.605 111.53 101.16 111.425C110.715 111.425 116.07 111.32 117.225 111.32C118.695 111.32 119.955 112.265 120.9 114.365C122.37 117.515 122.685 120.56 121.845 123.605C121.53 124.655 120.69 125.495 119.325 125.915C117.75 126.545 112.29 127.07 102.945 127.28C93.495 127.595 88.665 127.7 88.245 127.7L86.46 128.015ZM39 53.57C41.625 53.57 45.93 53.57 51.915 53.57C57.9 53.57 63.15 53.57 67.56 53.57C71.97 53.57 76.275 53.675 80.37 53.675C82.785 53.78 85.41 53.99 88.14 54.2C90.87 54.515 94.02 54.83 97.38 55.25C100.74 55.67 103.365 55.88 105.255 55.985C109.245 56.405 112.29 57.98 114.18 60.71C115.02 62.075 115.335 64.7 115.02 68.69C114.81 70.58 114.39 73.835 113.76 78.245C113.13 82.76 112.71 86.225 112.605 88.535C112.395 92 111.03 94.835 108.72 96.935C106.305 99.14 103.26 100.295 99.48 100.295C91.71 100.505 81.63 100.925 69.135 101.555C67.56 101.66 64.935 101.87 61.155 102.185C57.375 102.5 54.435 102.605 52.44 102.605C49.5 102.71 47.085 102.605 45.3 102.185C43.41 101.765 42.045 101.03 41.1 99.98C40.05 98.93 39.42 97.88 39.105 96.62C38.685 95.465 38.37 93.89 38.16 91.79C37.215 83.6 36.585 74.045 36.165 63.125C36.06 60.5 36.9 57.56 38.58 54.2L39 53.57ZM97.275 72.365C94.545 72.155 93.075 72.05 93.075 72.05C89.715 71.21 86.04 70.58 82.155 70.16C78.27 69.845 74.595 69.74 71.235 69.74C67.875 69.74 64.2 69.74 60.315 69.74C58.74 69.845 57.585 70.16 56.745 70.79C55.905 71.42 55.695 72.365 55.905 73.835C56.01 74.255 56.01 75.2 56.01 76.67C55.905 78.245 55.905 79.19 55.905 79.505C55.905 80.975 56.745 82.655 58.425 84.335C60.105 86.12 61.68 87.065 63.15 87.065C74.595 87.59 82.365 87.8 86.565 87.59C86.88 87.59 87.405 87.59 88.245 87.59C89.085 87.695 89.715 87.695 90.24 87.59C90.765 87.59 91.395 87.485 92.025 87.275C92.655 87.17 93.18 86.855 93.6 86.435C94.02 86.015 94.335 85.385 94.545 84.545C94.65 84.125 95.595 80.03 97.275 72.365Z" fill="#FF961E"/>
</svg>
