<svg width="152" height="182" viewBox="0 0 152 182" fill="none" xmlns="http://www.w3.org/2000/svg">
<rect x="0.75" y="0.75" width="150" height="180" fill="white"/>
<rect x="0.75" y="0.75" width="150" height="180" stroke="#FF961E" stroke-width="1.5"/>
<path d="M103.05 140.51C99.69 140.51 97.38 139.985 96.12 138.725C94.86 137.465 94.23 135.155 94.02 131.69C93.495 121.925 93.285 115.205 93.285 111.53C93.285 106.385 93.6 90.11 94.335 62.81C94.335 62.075 94.44 61.235 94.65 60.395C94.755 59.555 94.86 58.82 95.07 58.19C95.175 57.56 95.385 56.825 95.7 55.775C95.91 54.725 96.12 53.99 96.33 53.36C96.54 52.52 96.96 51.89 97.695 51.68C97.905 51.68 98.64 51.47 99.795 51.155C100.95 50.84 101.79 50.63 102.21 50.525C102.63 50.42 103.26 50.315 104.31 50.105C105.255 49.895 105.99 49.895 106.62 49.895C107.25 49.895 107.985 50 108.825 50.21C109.665 50.42 110.4 50.63 111.24 50.945C113.235 51.995 114.39 53.885 114.6 56.615C114.6 57.875 114.705 62.075 114.81 69.32C114.81 76.565 115.02 81.08 115.23 82.865C115.44 84.125 116.175 85.49 117.435 86.855C118.065 87.59 118.695 88.325 119.43 89.06C120.165 89.9 121.005 90.74 121.95 91.58C122.79 92.525 123.525 93.26 124.155 93.68C124.995 94.52 125.52 95.465 125.94 96.41C126.36 97.46 126.465 98.615 126.36 99.875C126.255 101.135 126.15 102.08 126.045 102.71C125.835 103.34 125.625 104.495 125.205 105.965C124.575 108.485 122.37 109.85 118.59 109.85C116.595 109.85 115.335 110.165 114.915 110.69C114.39 111.32 114.18 112.685 114.285 114.995C114.285 116.57 114.285 119.405 114.39 123.395C114.495 127.385 114.6 130.115 114.6 131.48C114.6 134.315 113.865 136.205 112.185 137.15C107.985 139.46 104.94 140.615 103.05 140.51ZM43.515 66.905C48.24 65.645 53.385 65.435 59.055 66.38C60.105 66.59 61.05 67.64 61.89 69.425C62.73 71.21 63.045 72.89 62.835 74.36C62.73 74.99 62.415 79.19 61.995 86.75C61.995 87.38 62.1 87.8 62.415 88.01C62.625 88.22 63.15 88.325 63.78 88.325C71.34 89.375 77.22 90.95 81.42 93.05C82.995 93.89 83.94 94.52 84.15 94.94C84.36 95.36 84.36 96.515 84.045 98.195C83.625 99.665 83.415 101.765 83.31 104.285C83.1 106.91 82.785 109.115 82.365 110.795C81.945 112.16 81.42 113 80.895 113.315C80.37 113.735 79.845 113.84 79.32 113.63C78.795 113.42 77.955 113.21 76.8 112.79C75.645 112.475 74.49 112.265 73.44 112.265C73.23 112.265 72.915 112.265 72.705 112.055L72.285 111.74C65.985 109.22 61.89 106.805 60 104.6C59.685 104.285 59.37 103.97 58.95 103.655C58.53 103.34 58.005 102.92 57.375 102.5C56.745 102.08 56.325 101.765 56.01 101.555C53.07 106.175 51.6 108.59 51.39 108.905C47.82 114.05 45.3 117.62 43.725 119.615C43.41 119.93 42.99 120.35 42.57 120.98C42.15 121.61 41.73 122.24 41.31 122.765C40.89 123.29 40.47 123.92 39.945 124.655C39.315 125.39 38.79 125.915 38.37 126.335C37.95 126.755 37.425 127.175 36.9 127.595C36.27 128.015 35.85 128.225 35.43 128.225C35.01 128.225 34.485 128.12 34.065 127.91C29.445 124.97 26.61 120.14 25.56 113.42C25.35 112.37 25.77 111.11 26.82 109.64C29.025 106.49 32.7 101.555 37.74 94.73C38.58 93.575 39.525 92.525 40.575 91.475C42.045 90.005 42.885 87.905 43.095 85.07C43.2 83.915 43.41 81.92 43.725 78.98C43.935 76.04 44.145 73.835 44.355 72.155C44.355 71.735 44.25 71.315 44.25 70.895C44.145 70.475 44.04 70.055 43.83 69.53C43.62 69.005 43.515 68.585 43.515 68.27V66.905Z" fill="#FF961E"/>
</svg>
