<svg width="302" height="242" viewBox="0 0 302 242" fill="none" xmlns="http://www.w3.org/2000/svg">
<rect x="0.75" y="60.75" width="150" height="180" fill="white"/>
<rect x="0.75" y="60.75" width="150" height="180" stroke="#FF961E" stroke-width="1.5"/>
<path d="M86.46 188.015C86.25 189.17 85.935 190.955 85.515 193.265C85.095 195.575 84.885 197.045 84.78 197.57C84.465 199.145 83.52 200.09 82.05 200.3C80.475 200.615 76.905 200.825 71.235 200.93C69.765 201.035 68.925 200.195 68.715 198.41V195.995V194C68.715 193.58 68.715 193.055 68.715 192.53C68.715 192.005 68.715 191.585 68.715 191.27C68.61 191.06 68.61 190.745 68.61 190.535C68.61 190.325 68.505 190.115 68.295 189.905C68.085 189.8 67.98 189.695 67.875 189.59C67.77 189.485 67.56 189.38 67.14 189.275C66.72 189.17 66.405 189.065 66.195 189.065C65.985 189.065 65.565 188.96 64.935 188.75C63.675 188.54 58.53 188.33 49.5 188.015C40.47 187.805 35.01 187.595 33.12 187.595C31.86 187.595 30.915 186.86 30.285 185.39C28.92 182.45 28.815 178.775 29.97 174.47C30.075 173.735 31.02 173.21 32.805 172.79C33.015 172.685 35.115 172.685 39.105 172.685C43.095 172.685 45.195 172.685 45.405 172.685C47.61 172.685 54.12 172.475 64.83 172.265C75.54 172.055 81.735 171.845 83.625 171.74C85.725 171.635 91.605 171.53 101.16 171.425C110.715 171.425 116.07 171.32 117.225 171.32C118.695 171.32 119.955 172.265 120.9 174.365C122.37 177.515 122.685 180.56 121.845 183.605C121.53 184.655 120.69 185.495 119.325 185.915C117.75 186.545 112.29 187.07 102.945 187.28C93.495 187.595 88.665 187.7 88.245 187.7L86.46 188.015ZM39 113.57C41.625 113.57 45.93 113.57 51.915 113.57C57.9 113.57 63.15 113.57 67.56 113.57C71.97 113.57 76.275 113.675 80.37 113.675C82.785 113.78 85.41 113.99 88.14 114.2C90.87 114.515 94.02 114.83 97.38 115.25C100.74 115.67 103.365 115.88 105.255 115.985C109.245 116.405 112.29 117.98 114.18 120.71C115.02 122.075 115.335 124.7 115.02 128.69C114.81 130.58 114.39 133.835 113.76 138.245C113.13 142.76 112.71 146.225 112.605 148.535C112.395 152 111.03 154.835 108.72 156.935C106.305 159.14 103.26 160.295 99.48 160.295C91.71 160.505 81.63 160.925 69.135 161.555C67.56 161.66 64.935 161.87 61.155 162.185C57.375 162.5 54.435 162.605 52.44 162.605C49.5 162.71 47.085 162.605 45.3 162.185C43.41 161.765 42.045 161.03 41.1 159.98C40.05 158.93 39.42 157.88 39.105 156.62C38.685 155.465 38.37 153.89 38.16 151.79C37.215 143.6 36.585 134.045 36.165 123.125C36.06 120.5 36.9 117.56 38.58 114.2L39 113.57ZM97.275 132.365C94.545 132.155 93.075 132.05 93.075 132.05C89.715 131.21 86.04 130.58 82.155 130.16C78.27 129.845 74.595 129.74 71.235 129.74C67.875 129.74 64.2 129.74 60.315 129.74C58.74 129.845 57.585 130.16 56.745 130.79C55.905 131.42 55.695 132.365 55.905 133.835C56.01 134.255 56.01 135.2 56.01 136.67C55.905 138.245 55.905 139.19 55.905 139.505C55.905 140.975 56.745 142.655 58.425 144.335C60.105 146.12 61.68 147.065 63.15 147.065C74.595 147.59 82.365 147.8 86.565 147.59C86.88 147.59 87.405 147.59 88.245 147.59C89.085 147.695 89.715 147.695 90.24 147.59C90.765 147.59 91.395 147.485 92.025 147.275C92.655 147.17 93.18 146.855 93.6 146.435C94.02 146.015 94.335 145.385 94.545 144.545C94.65 144.125 95.595 140.03 97.275 132.365Z" fill="#FF961E"/>
<rect x="150.75" y="0.75" width="150" height="180" fill="white"/>
<rect x="150.75" y="0.75" width="150" height="180" stroke="#FF961E" stroke-width="1.5"/>
<path d="M253.05 140.51C249.69 140.51 247.38 139.985 246.12 138.725C244.86 137.465 244.23 135.155 244.02 131.69C243.495 121.925 243.285 115.205 243.285 111.53C243.285 106.385 243.6 90.11 244.335 62.81C244.335 62.075 244.44 61.235 244.65 60.395C244.755 59.555 244.86 58.82 245.07 58.19C245.175 57.56 245.385 56.825 245.7 55.775C245.91 54.725 246.12 53.99 246.33 53.36C246.54 52.52 246.96 51.89 247.695 51.68C247.905 51.68 248.64 51.47 249.795 51.155C250.95 50.84 251.79 50.63 252.21 50.525C252.63 50.42 253.26 50.315 254.31 50.105C255.255 49.895 255.99 49.895 256.62 49.895C257.25 49.895 257.985 50 258.825 50.21C259.665 50.42 260.4 50.63 261.24 50.945C263.235 51.995 264.39 53.885 264.6 56.615C264.6 57.875 264.705 62.075 264.81 69.32C264.81 76.565 265.02 81.08 265.23 82.865C265.44 84.125 266.175 85.49 267.435 86.855C268.065 87.59 268.695 88.325 269.43 89.06C270.165 89.9 271.005 90.74 271.95 91.58C272.79 92.525 273.525 93.26 274.155 93.68C274.995 94.52 275.52 95.465 275.94 96.41C276.36 97.46 276.465 98.615 276.36 99.875C276.255 101.135 276.15 102.08 276.045 102.71C275.835 103.34 275.625 104.495 275.205 105.965C274.575 108.485 272.37 109.85 268.59 109.85C266.595 109.85 265.335 110.165 264.915 110.69C264.39 111.32 264.18 112.685 264.285 114.995C264.285 116.57 264.285 119.405 264.39 123.395C264.495 127.385 264.6 130.115 264.6 131.48C264.6 134.315 263.865 136.205 262.185 137.15C257.985 139.46 254.94 140.615 253.05 140.51ZM193.515 66.905C198.24 65.645 203.385 65.435 209.055 66.38C210.105 66.59 211.05 67.64 211.89 69.425C212.73 71.21 213.045 72.89 212.835 74.36C212.73 74.99 212.415 79.19 211.995 86.75C211.995 87.38 212.1 87.8 212.415 88.01C212.625 88.22 213.15 88.325 213.78 88.325C221.34 89.375 227.22 90.95 231.42 93.05C232.995 93.89 233.94 94.52 234.15 94.94C234.36 95.36 234.36 96.515 234.045 98.195C233.625 99.665 233.415 101.765 233.31 104.285C233.1 106.91 232.785 109.115 232.365 110.795C231.945 112.16 231.42 113 230.895 113.315C230.37 113.735 229.845 113.84 229.32 113.63C228.795 113.42 227.955 113.21 226.8 112.79C225.645 112.475 224.49 112.265 223.44 112.265C223.23 112.265 222.915 112.265 222.705 112.055L222.285 111.74C215.985 109.22 211.89 106.805 210 104.6C209.685 104.285 209.37 103.97 208.95 103.655C208.53 103.34 208.005 102.92 207.375 102.5C206.745 102.08 206.325 101.765 206.01 101.555C203.07 106.175 201.6 108.59 201.39 108.905C197.82 114.05 195.3 117.62 193.725 119.615C193.41 119.93 192.99 120.35 192.57 120.98C192.15 121.61 191.73 122.24 191.31 122.765C190.89 123.29 190.47 123.92 189.945 124.655C189.315 125.39 188.79 125.915 188.37 126.335C187.95 126.755 187.425 127.175 186.9 127.595C186.27 128.015 185.85 128.225 185.43 128.225C185.01 128.225 184.485 128.12 184.065 127.91C179.445 124.97 176.61 120.14 175.56 113.42C175.35 112.37 175.77 111.11 176.82 109.64C179.025 106.49 182.7 101.555 187.74 94.73C188.58 93.575 189.525 92.525 190.575 91.475C192.045 90.005 192.885 87.905 193.095 85.07C193.2 83.915 193.41 81.92 193.725 78.98C193.935 76.04 194.145 73.835 194.355 72.155C194.355 71.735 194.25 71.315 194.25 70.895C194.145 70.475 194.04 70.055 193.83 69.53C193.62 69.005 193.515 68.585 193.515 68.27V66.905Z" fill="#FF961E"/>
</svg>
