<svg width="495" height="146" viewBox="0 0 495 146" fill="none" xmlns="http://www.w3.org/2000/svg">
<path d="M34.408 35.2924C28.832 35.5644 25.84 35.6324 25.296 35.6324C14.28 35.6324 8.09201 35.4964 6.59601 35.0884C5.23601 34.7484 4.48801 34.0684 4.28401 33.1164C4.08001 32.1644 4.21601 30.7364 4.76001 28.8324C4.96401 28.5604 5.10001 28.2204 5.16801 27.7444C5.23601 27.2684 5.44001 26.8604 5.78001 26.5884C5.91601 26.4524 6.25601 26.3164 6.73201 26.3164H18.156H29.58C29.92 26.3164 30.804 26.3844 32.3 26.5204C33.796 26.6564 34.612 26.7924 34.816 26.7924C35.224 26.7924 38.964 26.8604 45.9 26.9964C52.836 27.1324 56.848 27.2004 57.936 27.3364C58.14 27.3364 58.412 27.5404 58.684 27.8124C58.956 28.0844 59.16 28.3564 59.228 28.5604C59.5 30.3284 59.5 31.6884 59.228 32.6404C58.82 34.1364 57.528 34.9524 55.352 35.0884C54.672 35.1564 51.136 35.2244 44.812 35.2244C38.42 35.2924 34.952 35.3604 34.408 35.3604V35.2924ZM47.056 21.0124C47.192 19.1764 47.328 18.1564 47.328 18.0204C47.328 17.6124 47.396 17.0684 47.532 16.3204C47.668 15.5724 47.736 14.8924 47.804 14.2804C47.872 13.7364 47.94 13.1244 47.94 12.5804C47.94 11.8324 47.872 11.3564 47.668 11.0844C47.396 10.8124 46.92 10.7444 46.172 10.7444C45.764 10.8124 43.724 10.9484 40.188 11.0844C36.584 11.2884 34.068 11.4244 32.708 11.4924C32.844 12.5804 32.98 13.1924 32.98 13.1924V21.1484C27.744 21.8284 25.092 21.6244 24.956 20.4004C24.752 19.1764 24.684 17.9524 24.684 16.6604C24.616 16.2524 24.616 13.8724 24.616 9.5204C23.8 9.65639 23.256 9.7244 22.916 9.7924C22.508 9.9284 22.032 9.9964 21.42 9.9964C19.924 10.1324 17.272 10.0644 13.464 9.8604L11.356 7.0724C11.356 5.57639 11.356 4.3524 11.492 3.5364C11.492 3.4004 11.628 3.06039 11.764 2.38039C11.9 1.7004 11.968 1.15639 11.968 0.748396H15.028H30.124C30.736 0.748396 32.436 0.816395 35.224 0.952397C37.944 1.0884 40.12 1.0884 41.616 0.952397C42.908 0.952397 44.268 0.952397 45.628 1.0884C46.988 1.2244 48.62 1.3604 50.524 1.6324C52.36 1.9044 53.72 2.0404 54.536 2.10839C55.488 2.2444 55.896 2.7884 55.828 3.8084C55.692 4.62439 55.556 5.84839 55.352 7.4124C55.148 9.0444 55.012 10.2004 55.012 10.9484C54.944 11.3564 54.74 13.1244 54.468 16.1164C54.264 18.0884 54.128 19.1084 54.128 19.1764C53.924 20.2644 53.04 20.8764 51.408 21.0124H47.056ZM35.904 40.6644C37.128 40.6644 38.896 40.6644 41.344 40.5284C43.724 40.4604 45.56 40.3924 46.784 40.3924H48.28C49.368 40.4604 50.116 40.5964 50.456 40.8004C50.728 41.0724 50.932 41.5484 50.932 42.2964C50.932 42.5684 50.864 42.9084 50.864 43.3164C50.864 43.8604 50.388 44.2684 49.504 44.5404C48.62 44.8804 47.26 45.1524 45.492 45.2884C43.656 45.4244 42.092 45.5604 40.868 45.5604C39.576 45.5604 37.808 45.6284 35.632 45.6284C31.62 45.6964 29.444 45.8324 29.104 46.0364C28.696 46.2404 28.56 46.5124 28.56 46.8524L28.628 47.3284C41.208 47.4644 48.212 47.6004 49.64 47.8724C49.776 48.4844 49.844 49.0284 49.844 49.4364C49.844 51.3404 48.62 52.5644 46.308 53.1764C44.472 53.2444 41.956 53.3124 38.692 53.4484C35.428 53.5844 32.776 53.6524 30.872 53.6524H28.696C28.56 53.6524 27.336 53.5164 25.024 53.2444C25.228 53.9244 25.568 54.4684 26.112 54.8084C26.588 55.1484 26.996 55.3524 27.404 55.3524C27.812 55.4204 28.356 55.4204 29.104 55.4204C29.648 55.4204 30.124 55.4884 30.464 55.4884C30.804 55.5564 31.212 55.5564 31.62 55.5564C32.096 55.5564 32.844 55.5564 33.932 55.4204C35.02 55.3524 35.836 55.2844 36.38 55.2844C36.584 55.2844 36.924 55.3524 37.4 55.3524C37.876 55.3524 38.216 55.3524 38.488 55.3524C39.848 55.3524 42.024 55.1484 45.084 54.6044C45.22 54.6044 45.424 54.5364 45.696 54.5364C46.512 54.5364 47.6 54.8084 49.096 55.2844C49.436 55.4204 49.708 56.0324 49.844 56.9844V57.1204C49.844 57.2564 49.776 57.4604 49.708 57.7324C49.572 58.0044 49.572 58.2084 49.572 58.3444V58.4804C49.64 58.8204 49.708 59.0924 49.708 59.3644C49.708 60.0444 49.436 60.5884 48.96 60.9284C48.416 61.2684 47.736 61.5404 46.784 61.6764C40.392 62.9684 34.816 63.5804 30.192 63.5804C28.832 63.5804 27.472 63.5804 26.18 63.4444C24.82 63.3764 22.984 63.1044 20.604 62.6284C18.156 62.1524 16.796 61.8804 16.388 61.7444C15.572 61.6764 15.028 61.4044 14.756 60.8604C14.484 60.3844 14.416 59.7724 14.416 58.9564C14.348 58.4804 14.28 57.4604 14.212 55.8964C14.144 54.4004 14.144 53.1764 14.144 52.2924C14.144 50.2524 14.28 48.4844 14.688 46.9204C14.96 45.8324 15.096 44.4724 15.096 42.8404V41.4804C15.844 41.4124 16.864 41.3444 18.088 41.2084C19.312 41.0724 21.284 40.9364 24.004 40.8004C26.724 40.6644 28.9 40.5284 30.464 40.5284H32.232C33.32 40.6644 34.544 40.6644 35.904 40.6644ZM118.388 60.7244C116.212 60.7244 114.716 60.3844 113.9 59.5684C113.084 58.7524 112.676 57.2564 112.54 55.0124C112.2 48.6884 112.064 44.3364 112.064 41.9564C112.064 38.6244 112.268 28.0844 112.744 10.4044C112.744 9.9284 112.812 9.3844 112.948 8.8404C113.016 8.2964 113.084 7.8204 113.22 7.4124C113.288 7.0044 113.424 6.52839 113.628 5.84839C113.764 5.1684 113.9 4.6924 114.036 4.28439C114.172 3.7404 114.444 3.33239 114.92 3.1964C115.056 3.1964 115.532 3.06039 116.28 2.8564C117.028 2.6524 117.572 2.5164 117.844 2.44839C118.116 2.38039 118.524 2.3124 119.204 2.1764C119.816 2.0404 120.292 2.0404 120.7 2.0404C121.108 2.0404 121.584 2.10839 122.128 2.2444C122.672 2.38039 123.148 2.5164 123.692 2.72039C124.984 3.4004 125.732 4.62439 125.868 6.3924C125.868 7.2084 125.936 9.9284 126.004 14.6204C126.004 19.3124 126.14 22.2364 126.276 23.3924C126.412 24.2084 126.888 25.0924 127.704 25.9764C128.112 26.4524 128.52 26.9284 128.996 27.4044C129.472 27.9484 130.016 28.4924 130.628 29.0364C131.172 29.6484 131.648 30.1244 132.056 30.3964C132.6 30.9404 132.94 31.5524 133.212 32.1644C133.484 32.8444 133.552 33.5924 133.484 34.4084C133.416 35.2244 133.348 35.8364 133.28 36.2444C133.144 36.6524 133.008 37.4004 132.736 38.3524C132.328 39.9844 130.9 40.8684 128.452 40.8684C127.16 40.8684 126.344 41.0724 126.072 41.4124C125.732 41.8204 125.596 42.7044 125.664 44.2004C125.664 45.2204 125.664 47.0564 125.732 49.6404C125.8 52.2244 125.868 53.9924 125.868 54.8764C125.868 56.7124 125.392 57.9364 124.304 58.5484C121.584 60.0444 119.612 60.7924 118.388 60.7244ZM70.652 9.9284C71.332 9.7924 72.012 9.65639 72.828 9.65639C73.576 9.65639 74.188 9.65639 74.732 9.65639C75.276 9.7244 75.956 9.7924 76.908 9.9284C77.86 10.0644 78.54 10.2004 79.084 10.2004C80.308 10.3364 82.008 10.4044 84.184 10.2684C85.544 10.2684 86.428 10.4724 86.972 10.9484C87.38 11.3564 87.652 12.0364 87.788 13.1244C88.06 15.7084 88.06 19.5164 87.72 24.6164C87.244 32.0964 86.7 37.6044 86.088 41.2764C85.544 43.9964 85.272 45.8324 85.272 46.6484C85.272 47.1924 85.068 48.2804 84.728 49.9124C84.32 51.6124 84.116 52.5644 84.116 52.7684C83.912 54.1964 83.436 55.2164 82.62 55.8284C81.804 56.5084 80.852 56.8484 79.696 56.8484C78.472 56.8484 77.18 56.7804 75.684 56.6444C75.548 56.6444 75.48 56.6444 75.412 56.5764C75.004 56.4404 74.936 56.0324 75.14 55.3524C75.752 53.1764 76.772 47.5324 78.2 38.4204C79.56 29.3084 80.24 22.9844 80.104 19.4484C80.036 19.0404 79.968 18.7004 79.9 18.4964C79.696 18.1564 79.22 17.8164 78.472 17.5444C77.996 17.4084 76.772 17.3404 74.732 17.4084C72.692 17.5444 71.4 17.4764 70.992 17.3404C70.584 17.2044 70.312 17.0684 70.176 16.9324C69.768 16.6604 69.632 16.0484 69.632 15.0964V11.4924C69.632 11.2884 69.7 11.0164 69.836 10.7444C69.972 10.4724 70.176 10.2684 70.38 10.1324L70.652 9.9284ZM89.488 10.6764C91.8 10.3364 94.112 10.1324 96.492 10.1324C97.784 10.1324 99.144 10.2004 100.572 10.3364C102.136 10.4724 103.224 10.8804 103.836 11.5604C104.176 11.9684 104.516 12.5804 104.788 13.5324C105.06 14.6884 105.264 15.8444 105.332 16.9324C105.332 18.0204 105.332 19.5164 105.196 21.4204C105.06 23.3244 104.992 24.4124 104.992 24.8204C104.924 26.7244 104.856 29.9884 104.788 34.4764C104.72 38.9644 104.652 42.9084 104.516 46.2404C104.38 49.5724 104.108 52.5644 103.7 55.2164C103.632 55.6244 103.156 55.8284 102.204 55.8964C101.252 55.9644 100.708 56.1004 100.504 56.3044C100.028 56.7804 99.484 57.0524 98.804 57.0524C98.124 57.0524 97.308 56.9844 96.356 56.8484C95.404 56.7124 94.724 56.5764 94.316 56.5764C94.248 56.0324 94.384 54.8764 94.656 53.2444C95.064 51.0684 95.268 48.4844 95.268 45.5604L95.2 35.7004C95.132 32.9804 95.064 30.8724 95.064 29.4444C94.996 28.9004 95.064 27.9484 95.268 26.5884C95.472 25.2284 95.608 24.1404 95.608 23.3244C95.608 22.5084 95.472 21.6924 95.2 20.7404C94.928 20.3324 94.792 20.1284 94.656 19.9924C94.52 19.8564 94.248 19.7884 93.84 19.7204C93.432 19.6524 93.092 19.5844 92.956 19.4484C91.46 19.0404 90.304 18.7684 89.556 18.7684C89.352 18.7684 89.148 18.6324 88.944 18.2244C88.74 17.8844 88.672 17.6124 88.74 17.3404C88.808 16.5924 88.74 15.5044 88.604 14.0084C88.468 12.5804 88.4 11.4924 88.468 10.8124L89.488 10.6764ZM181.9 2.2444C184.484 2.10839 185.912 2.0404 186.048 2.0404C187.544 2.10839 188.972 2.2444 190.468 2.44839C191.964 2.6524 193.256 2.7884 194.412 2.8564C195.704 2.9924 196.384 3.7404 196.452 5.0324C196.452 6.6644 196.588 9.1804 196.792 12.5124C196.996 15.9124 197.132 18.4284 197.2 20.1284C197.268 21.4204 197.268 23.7324 197.268 26.9964C197.268 30.3284 197.268 32.6404 197.268 33.8644C197.268 35.7004 197.268 39.4404 197.268 45.1524C197.268 50.8644 197.268 54.6724 197.268 56.5084V56.6444C197.268 57.5964 197.132 58.5484 196.86 59.3644C196.248 61.0644 195.16 61.8804 193.596 61.8124C192.848 61.8124 191.964 61.8804 191.012 61.8804C190.06 61.8804 189.244 61.8804 188.564 61.7444C188.02 61.7444 187.408 61.5404 186.864 61.2004C186.252 60.9284 185.844 60.5204 185.708 60.1124C184.348 56.8484 183.668 54.3324 183.6 52.5644C183.396 48.6204 183.26 41.8884 183.192 32.5044C183.124 23.1204 183.056 16.7284 182.92 13.2604C182.92 12.1724 182.852 11.0844 182.716 9.8604C182.58 8.6364 182.444 7.2764 182.308 5.7124L181.9 2.2444ZM144.976 9.1804C151.504 9.65639 155.108 9.9284 155.788 9.9284C158.78 10.2004 161.092 10.4044 162.724 10.5404C163.608 10.6764 164.424 11.2204 165.104 12.1724C165.784 13.1244 166.124 14.1444 165.988 15.1644C165.852 16.3204 165.376 18.4964 164.424 21.7604C164.152 22.4404 163.812 23.3924 163.404 24.7524C162.928 26.1124 162.588 27.2004 162.452 27.8804C162.112 28.9684 162.044 29.7844 162.316 30.4644C162.452 31.0084 162.996 31.4164 163.948 31.6204C165.172 31.9604 167.892 32.5724 171.972 33.4564C173.264 33.7284 173.672 34.5444 173.264 35.9044C173.128 36.3124 172.788 37.4684 172.312 39.2364C171.768 41.0044 171.36 42.3644 171.02 43.2484C170 45.6964 168.504 46.7844 166.464 46.6484C166.192 46.6484 166.056 46.7164 165.988 46.7164C165.444 46.9884 164.9 47.1244 164.424 47.1244C163.88 47.1244 163.472 47.1244 163.2 47.0564C162.86 46.9884 162.452 46.7844 161.976 46.3764C161.432 45.9684 161.16 45.6964 161.024 45.5604C160.888 45.4244 160.548 45.0164 160.004 44.4044C158.644 43.0444 157.896 42.2284 157.692 41.9564C157.148 41.5484 156.604 41.3444 156.06 41.3444C155.448 41.3444 154.904 41.6164 154.428 42.0924C153.408 43.1124 152.524 44.2004 151.776 45.3564C151.504 45.6964 150.416 47.5324 148.444 50.8644C147.696 52.0884 146.608 52.8364 145.112 53.2444C143.616 53.6524 142.12 53.6524 140.624 53.1764C139.128 52.7684 138.108 51.9524 137.496 50.7964C136.544 49.1644 136.204 46.9204 136.476 44.0644C136.544 43.2484 137.088 42.4324 138.04 41.7524C139.128 40.9364 140.692 39.8484 142.8 38.4204C144.84 36.9924 146.404 35.9044 147.356 35.1564C148.852 34.0684 150.076 32.9804 151.028 31.8924C151.98 30.8044 152.592 29.4444 153 27.8804C153.272 26.6564 153.068 25.7044 152.456 24.9564C151.776 24.2764 150.824 23.9364 149.532 24.0044C145.452 24.3444 142.188 23.4604 139.876 21.4204C139.06 20.7404 138.584 19.8564 138.584 18.8364C138.448 17.8844 138.516 15.7764 138.788 12.5804C138.788 12.3764 138.856 12.1044 139.128 11.8324C139.332 11.5604 139.468 11.2884 139.536 11.0844C139.604 10.8804 139.536 10.5404 139.332 10.1324L139.808 9.7924C140.012 9.65639 140.216 9.5884 140.352 9.5204C140.488 9.4524 140.692 9.3844 140.828 9.3844C141.1 9.3844 142.528 9.31639 144.976 9.31639V9.1804ZM288.415 19.7884V26.5204C288.415 27.2684 288.279 28.6284 288.143 30.5324C288.007 31.6204 287.327 32.2324 286.239 32.2324C283.791 32.3004 281.751 32.3004 279.983 32.1644C278.963 32.1644 278.079 31.7564 277.399 31.0764C276.719 30.3964 276.311 29.5804 276.311 28.6284C276.243 25.2964 276.243 21.0804 276.311 15.9804C276.311 15.2324 276.379 13.4644 276.447 10.7444C276.515 8.0244 276.583 6.1204 276.651 5.1004C276.651 3.7404 277.127 2.8564 278.079 2.3124C278.283 2.1764 278.691 1.9724 279.303 1.6324C279.915 1.3604 280.391 1.0884 280.731 0.952397C281.003 0.816395 281.411 0.680397 281.955 0.476395C282.499 0.272398 282.975 0.136395 283.451 0.0683963C283.927 0.000397205 284.403 0.000397205 284.947 0.000397205C285.763 0.0683963 286.375 0.136395 286.783 0.272398C287.735 0.680397 288.211 1.3604 288.211 2.38039C288.211 4.28439 288.347 6.7324 288.687 9.5884C288.755 10.1324 289.163 10.4724 289.979 10.5404C293.243 10.8124 295.079 10.9484 295.487 11.0164C296.439 11.2884 297.051 12.0364 297.187 13.3964C297.391 15.4364 297.051 17.2724 296.099 18.8364C295.827 19.3124 295.011 19.6524 293.787 19.7884H288.415ZM245.915 47.2604C245.779 47.2604 245.439 47.3284 244.895 47.3284C244.351 47.3964 243.943 47.3964 243.739 47.3964C243.467 47.3964 243.195 47.3964 242.787 47.3284C242.379 47.2604 242.039 47.1244 241.903 46.9884C241.699 46.8524 241.495 46.5804 241.291 46.2404C241.087 45.9004 240.951 45.4924 240.951 44.9484C240.883 44.6764 240.815 44.1324 240.679 43.3844C240.543 42.7044 240.475 42.0924 240.475 41.5484C240.475 40.8684 240.543 40.1204 240.747 39.4404C240.747 39.1684 240.951 38.8284 241.359 38.4884C241.767 38.2164 242.175 38.0124 242.651 38.0124C248.635 38.0124 254.755 38.0124 261.011 38.0804C260.739 37.9444 260.467 37.6724 260.127 37.3324C259.719 37.0604 259.515 36.8564 259.447 36.7884C258.019 35.8364 256.591 34.5444 255.163 32.9124C254.755 32.5044 254.075 31.8244 253.123 30.9404C252.171 30.1244 251.423 29.3764 250.879 28.6964C250.607 28.4244 250.403 28.1524 250.267 28.0164C250.131 27.8804 249.927 27.8804 249.791 27.8804C249.587 27.8804 249.451 27.9484 249.451 27.9484C249.383 27.9484 249.247 28.1524 249.043 28.4244C248.771 28.6964 248.635 28.9004 248.499 29.0364C247.751 29.8524 246.595 31.0084 245.099 32.5044C243.535 34.0684 242.379 35.2244 241.699 35.9724C241.019 36.6524 240.475 36.9924 239.931 36.9924C239.387 36.9924 238.775 36.5844 238.231 35.9044C237.347 34.9524 236.395 34.2044 235.307 33.5924C234.627 33.2524 234.083 32.9124 233.811 32.5724C233.471 32.3004 233.267 31.8244 233.199 31.2804C233.131 30.7364 233.335 30.1924 233.879 29.5124C234.151 29.1044 234.559 28.4244 235.103 27.4044C235.647 26.3844 236.123 25.6364 236.531 25.0924C237.619 23.5964 238.911 22.2364 240.271 21.0124C242.447 19.0404 243.603 16.3204 243.807 12.9204C243.875 11.5604 243.807 9.8604 243.671 7.8204C243.467 5.7804 243.263 4.8284 242.991 4.8284C242.991 4.28439 243.059 4.01239 243.127 4.01239C243.807 3.67239 244.283 3.4004 244.623 3.2644C244.895 3.1284 245.371 2.9244 246.051 2.6524C246.663 2.38039 247.207 2.2444 247.615 2.1764C248.023 2.10839 248.567 2.0404 249.179 2.0404C249.791 2.0404 250.403 2.10839 250.947 2.2444C251.491 2.38039 252.239 2.5844 253.327 2.7884C254.415 3.06039 255.163 3.1964 255.707 3.33239C257.135 3.7404 257.747 4.6924 257.611 6.18839C257.475 7.8204 257.203 9.65639 256.863 11.8324C256.523 14.0084 256.319 15.7764 256.183 17.2044C256.183 17.3404 255.979 18.2924 255.707 20.1284C256.591 20.8764 258.223 21.9644 260.671 23.3244C263.051 24.6844 264.343 25.4324 264.547 25.5684C265.635 26.2484 266.451 26.8604 267.063 27.3364C267.607 27.8124 268.151 28.3564 268.559 29.0364C268.967 29.7164 269.171 30.3964 269.035 31.2124C268.899 32.0284 268.423 32.9124 267.743 33.8644C266.111 36.0404 264.819 37.4684 263.799 38.0804C272.095 38.2164 277.875 38.4204 281.139 38.6244C282.635 38.7604 283.791 38.8964 284.675 39.1684C285.695 39.5764 286.307 40.0524 286.511 40.6644C286.715 41.6164 286.851 42.5684 286.851 43.5204C286.851 44.6764 286.647 46.0364 286.375 47.6004C285.831 50.2524 284.471 52.1564 282.227 53.2444C281.003 53.8564 278.759 54.3324 275.563 54.6044C274.407 54.7404 272.775 54.8084 270.599 54.8084C268.423 54.8764 266.927 54.9444 266.043 55.0124C265.907 55.0124 263.459 55.0804 258.767 55.1484C254.007 55.2164 251.423 55.2844 250.947 55.4204L251.015 57.2564C251.831 57.2564 254.891 57.2564 260.195 57.1204C265.499 57.0524 268.627 56.9844 269.443 56.9844C271.279 56.9844 272.911 56.9844 274.339 56.9164C275.291 56.9164 276.787 56.8484 278.759 56.7124C280.663 56.5764 282.091 56.5084 283.043 56.4404H283.179C284.403 56.4404 285.083 56.9164 285.083 57.8684V58.2084C284.675 60.3164 284.335 61.9484 284.063 63.0364C283.723 64.1244 283.179 64.8724 282.431 65.2804C281.683 65.6884 280.459 65.8924 278.691 65.8924H277.875C276.107 65.8924 273.591 65.7564 270.395 65.5524C267.199 65.3484 264.955 65.2124 263.663 65.0764C261.623 65.0084 259.855 65.0084 258.291 65.0764C256.727 65.2124 254.959 65.2124 253.055 65.0764C251.151 65.0084 249.451 64.8044 247.955 64.4644C245.915 64.0564 244.487 63.3764 243.671 62.2884C242.855 61.2004 242.379 59.7724 242.107 57.9364C242.039 57.6644 242.039 56.9164 242.039 55.5564C242.039 55.4884 242.039 54.9444 242.107 53.9924C242.107 52.5644 242.515 51.5444 243.195 51.0004C243.875 50.4564 245.031 50.1844 246.799 50.1164C253.327 49.9804 261.963 49.6404 272.775 49.1644C274.135 49.1644 274.815 48.6884 274.815 47.7364V47.3964C274.747 47.1244 274.747 46.8524 274.747 46.5804V46.2404C274.747 46.1044 274.407 46.0364 273.727 46.0364C273.047 46.0364 271.823 46.0364 270.055 46.1044C268.287 46.1724 266.451 46.2404 264.479 46.3764C262.507 46.5124 259.719 46.6484 256.183 46.7844C252.647 46.9884 249.179 47.1244 245.915 47.2604ZM349.615 60.7244C347.439 60.7244 345.943 60.3844 345.127 59.5684C344.311 58.7524 343.903 57.2564 343.767 55.0124C343.427 48.6884 343.291 44.3364 343.291 41.9564C343.291 38.6244 343.495 28.0844 343.971 10.4044C343.971 9.9284 344.039 9.3844 344.175 8.8404C344.243 8.2964 344.311 7.8204 344.447 7.4124C344.515 7.0044 344.651 6.52839 344.855 5.84839C344.991 5.1684 345.127 4.6924 345.263 4.28439C345.399 3.7404 345.671 3.33239 346.147 3.1964C346.283 3.1964 346.759 3.06039 347.507 2.8564C348.255 2.6524 348.799 2.5164 349.071 2.44839C349.343 2.38039 349.751 2.3124 350.431 2.1764C351.043 2.0404 351.519 2.0404 351.927 2.0404C352.335 2.0404 352.811 2.10839 353.355 2.2444C353.899 2.38039 354.375 2.5164 354.919 2.72039C356.211 3.4004 356.959 4.62439 357.095 6.3924C357.095 7.2084 357.163 9.9284 357.231 14.6204C357.231 19.3124 357.367 22.2364 357.503 23.3924C357.639 24.2084 358.115 25.0924 358.931 25.9764C359.339 26.4524 359.747 26.9284 360.223 27.4044C360.699 27.9484 361.243 28.4924 361.855 29.0364C362.399 29.6484 362.875 30.1244 363.283 30.3964C363.827 30.9404 364.167 31.5524 364.439 32.1644C364.711 32.8444 364.779 33.5924 364.711 34.4084C364.643 35.2244 364.575 35.8364 364.507 36.2444C364.371 36.6524 364.235 37.4004 363.963 38.3524C363.555 39.9844 362.127 40.8684 359.679 40.8684C358.387 40.8684 357.571 41.0724 357.299 41.4124C356.959 41.8204 356.823 42.7044 356.891 44.2004C356.891 45.2204 356.891 47.0564 356.959 49.6404C357.027 52.2244 357.095 53.9924 357.095 54.8764C357.095 56.7124 356.619 57.9364 355.531 58.5484C352.811 60.0444 350.839 60.7924 349.615 60.7244ZM319.695 59.2964C313.779 59.2284 308.883 57.1884 304.939 53.1084C303.579 51.7484 302.627 49.4364 302.219 46.1724C301.539 41.6844 301.199 37.6724 301.267 34.2044C301.267 28.2204 302.559 22.4404 305.143 16.8644C305.347 16.3884 305.551 16.0484 305.755 15.8444C309.291 12.3084 311.535 10.1324 312.487 9.31639C312.691 9.1124 312.963 8.9764 313.303 8.8404C313.575 8.7724 313.983 8.70439 314.527 8.6364C315.003 8.5684 315.343 8.5004 315.547 8.5004C318.607 7.8204 321.531 8.0244 324.251 9.1124C326.971 10.2004 329.827 11.9684 332.683 14.2804C333.839 15.3684 334.791 16.3204 335.471 17.2044C336.151 18.0884 336.627 19.1084 336.899 20.2644C337.443 23.1884 337.647 25.6364 337.443 27.5404C337.035 32.1644 336.287 37.1964 335.335 42.7044C334.179 49.1644 331.187 53.9244 326.291 56.9164C323.299 58.8204 321.055 59.5684 319.695 59.2964ZM327.107 30.9404C327.039 30.8044 326.971 30.3964 326.903 29.8524C326.767 29.3084 326.699 28.9004 326.631 28.6284C326.563 28.4244 326.495 28.0844 326.359 27.6764C326.223 27.2684 326.087 26.9284 325.883 26.5884C325.679 26.3164 325.475 25.9764 325.203 25.7044C323.571 24.0044 321.803 23.3244 319.899 23.6644C317.927 24.0724 316.567 25.3644 315.751 27.6084C314.731 30.1924 314.459 32.5044 314.867 34.5444C315.003 35.3604 315.139 36.6524 315.343 38.3524C315.547 40.1204 315.751 41.4124 315.955 42.2964C316.159 43.3164 316.771 44.2004 317.859 44.9484C318.879 45.6964 319.899 46.0364 320.987 46.0364C321.735 46.0364 322.483 45.7644 323.299 45.1524C324.047 44.6084 324.523 43.8604 324.727 42.9084C324.863 42.1604 325.679 38.1484 327.107 30.9404ZM424.415 19.7884V26.5204C424.415 27.2684 424.279 28.6284 424.143 30.5324C424.007 31.6204 423.327 32.2324 422.239 32.2324C419.791 32.3004 417.751 32.3004 415.983 32.1644C414.963 32.1644 414.079 31.7564 413.399 31.0764C412.719 30.3964 412.311 29.5804 412.311 28.6284C412.243 25.2964 412.243 21.0804 412.311 15.9804C412.311 15.2324 412.379 13.4644 412.447 10.7444C412.515 8.0244 412.583 6.1204 412.651 5.1004C412.651 3.7404 413.127 2.8564 414.079 2.3124C414.283 2.1764 414.691 1.9724 415.303 1.6324C415.915 1.3604 416.391 1.0884 416.731 0.952397C417.003 0.816395 417.411 0.680397 417.955 0.476395C418.499 0.272398 418.975 0.136395 419.451 0.0683963C419.927 0.000397205 420.403 0.000397205 420.947 0.000397205C421.763 0.0683963 422.375 0.136395 422.783 0.272398C423.735 0.680397 424.211 1.3604 424.211 2.38039C424.211 4.28439 424.347 6.7324 424.687 9.5884C424.755 10.1324 425.163 10.4724 425.979 10.5404C429.243 10.8124 431.079 10.9484 431.487 11.0164C432.439 11.2884 433.051 12.0364 433.187 13.3964C433.391 15.4364 433.051 17.2724 432.099 18.8364C431.827 19.3124 431.011 19.6524 429.787 19.7884H424.415ZM388.511 33.7284C387.627 33.7284 386.471 33.7964 385.043 33.7964C383.615 33.7964 382.391 33.7964 381.439 33.7964C380.487 33.7964 379.535 33.7964 378.719 33.6604C377.291 33.5244 376.203 33.1844 375.387 32.5044C374.571 31.8924 374.095 30.9404 373.891 29.5804C373.211 25.9764 372.735 22.7804 372.599 19.9244C372.463 17.0684 372.463 13.8044 372.667 10.1324C372.667 8.6364 373.007 7.4124 373.687 6.3244C374.367 5.3044 375.523 4.5564 377.223 4.0804C380.079 3.33239 382.663 2.8564 384.907 2.5844C385.179 2.5844 385.655 2.8564 386.199 3.4684C386.743 4.0804 387.015 4.62439 387.015 5.0324C387.083 5.7124 387.287 6.9364 387.627 8.6364C387.899 10.3364 388.035 11.7644 388.035 12.9204C387.967 14.1444 387.695 15.2324 387.151 16.3204C386.675 17.2724 386.539 18.7004 386.743 20.6044C386.743 20.8764 386.947 21.2164 387.355 21.4884C387.763 21.7604 388.171 21.9644 388.511 21.9644H389.599C389.803 21.9644 390.143 21.9644 390.687 21.8284C391.231 21.7604 391.571 21.6924 391.843 21.6244C398.235 20.9444 402.247 20.4684 403.743 20.3324C405.035 20.1964 405.919 20.8764 406.327 22.3724C407.007 24.4124 407.347 25.7724 407.347 26.4524C407.279 27.1324 406.599 28.2884 405.375 29.8524C405.035 30.2604 403.743 30.8724 401.567 31.5524C395.719 33.4564 391.367 34.2044 388.511 33.7284ZM398.167 55.5564C401.635 55.5564 403.675 55.4884 404.355 55.2844C404.899 55.1484 405.307 55.0124 405.579 54.7404C405.851 54.4684 406.055 54.1284 406.191 53.7204C406.259 53.3124 406.327 52.9724 406.327 52.5644C406.327 52.2244 406.327 51.6804 406.327 50.9324C406.259 50.2524 406.259 49.6404 406.327 49.0964V48.7564C406.327 48.2124 406.191 47.7364 406.055 47.4644C405.851 47.1924 405.511 47.0564 404.967 47.0564H393.611V54.4004C395.243 55.2164 396.739 55.5564 398.167 55.5564ZM390.755 37.4684C390.959 37.4684 391.299 37.5364 391.707 37.5364C392.115 37.5364 392.455 37.5364 392.727 37.5364C398.779 37.5364 403.335 37.3324 406.327 36.9244C407.143 36.8564 407.959 36.7884 408.775 36.7884C412.447 36.7884 415.643 37.9444 418.363 40.2564C419.043 40.8004 419.587 41.6844 419.995 42.9084C420.403 44.1324 420.675 45.4244 420.675 46.6484C420.675 47.1924 420.607 47.6684 420.539 48.0764C420.403 48.8924 420.131 50.1164 419.859 51.8164C419.519 53.5164 419.247 54.8084 419.111 55.7604C418.703 57.6644 418.363 59.0924 417.955 60.1804C417.683 60.7244 417.207 61.2004 416.459 61.4724C412.379 62.9684 408.095 63.7164 403.471 63.7164C398.847 63.7164 395.855 63.5804 394.631 63.3084C388.307 61.9484 384.635 61.0644 383.615 60.7244C383.207 60.5884 382.799 60.3164 382.391 59.7724C381.983 59.2284 381.779 58.6844 381.643 58.1404C381.507 57.7324 381.439 57.2564 381.439 56.5764C381.439 56.3044 381.439 55.9644 381.439 55.4204C381.439 54.8764 381.507 54.6044 381.507 54.4684C381.643 50.3204 381.847 47.5324 381.983 46.1724C382.255 42.7724 383.071 40.4604 384.363 39.2364C385.655 38.0804 387.763 37.4684 390.755 37.4684ZM469.635 36.1084C464.059 36.3804 461.067 36.5164 460.523 36.5164C449.507 36.5164 443.319 36.3804 441.823 35.9724C440.463 35.6324 439.715 34.9524 439.511 34.0004C439.307 33.0484 439.443 31.6204 439.987 29.7164C440.191 29.4444 440.327 29.1044 440.395 28.5604C440.463 28.0844 440.667 27.7444 441.007 27.4724C441.143 27.3364 441.483 27.2004 441.959 27.2004H453.383C460.387 27.2004 464.195 27.2004 464.807 27.1324C465.147 27.1324 466.031 27.2684 467.527 27.4044C469.023 27.5404 469.839 27.6084 470.043 27.6084C470.451 27.6764 474.191 27.7444 481.127 27.8804C488.063 28.0164 492.075 28.0844 493.163 28.1524C493.367 28.2204 493.639 28.4244 493.911 28.6964C494.183 28.9684 494.387 29.2404 494.455 29.4444C494.727 31.2124 494.727 32.5724 494.455 33.5244C494.047 35.0204 492.755 35.8364 490.579 35.9724C489.899 36.0404 486.363 36.1084 480.039 36.1084C473.647 36.1764 470.179 36.2444 469.635 36.2444V36.1084ZM467.323 1.0204C471.675 1.2924 473.851 1.4284 473.919 1.4284C480.175 2.0404 485.003 4.4884 488.471 8.70439C488.879 9.31639 489.219 10.2004 489.423 11.3564C489.695 13.5324 489.219 15.9804 488.131 18.7684C486.907 21.8964 484.595 23.8004 481.059 24.4804C478.475 25.0244 475.755 25.2284 472.831 25.2284C472.015 25.2284 470.519 25.2964 468.275 25.3644C466.031 25.5004 464.331 25.5004 463.107 25.4324C458.619 25.2284 454.743 24.4124 451.615 23.0524C447.807 21.4884 446.107 18.8364 446.515 15.0964C446.855 12.0364 448.487 9.1124 451.343 6.2564C453.587 4.01239 457.191 2.38039 462.223 1.4284C462.699 1.3604 463.243 1.2924 463.855 1.2244C464.399 1.2244 465.079 1.15639 465.759 1.15639C466.439 1.15639 466.983 1.0884 467.323 1.0204ZM467.459 17.9524C470.179 17.8164 471.607 17.6804 471.811 17.6804C472.627 17.6124 473.511 17.2724 474.327 16.7284C475.143 16.1844 475.619 15.6404 475.755 15.0964C475.891 13.8724 475.755 12.7844 475.211 11.9684C474.667 11.1524 473.579 10.6084 472.083 10.2684C468.751 9.5884 465.759 9.5204 463.175 10.1324C461.815 10.4724 461.067 10.7444 460.863 10.9484C460.115 11.7644 459.367 12.9204 458.551 14.4164C457.871 15.6404 458.347 16.3884 459.911 16.7964C463.175 17.7484 465.691 18.1564 467.459 17.9524ZM449.915 47.7364C449.779 47.7364 449.439 47.8044 448.895 47.8044C448.351 47.8724 447.943 47.8724 447.739 47.8724C447.467 47.8724 447.195 47.8724 446.787 47.8044C446.379 47.7364 446.039 47.6004 445.903 47.4644C445.699 47.3284 445.495 47.0564 445.291 46.7844C445.087 46.5124 444.951 46.1044 444.951 45.6284C444.883 45.3564 444.815 44.9484 444.679 44.2684C444.543 43.5884 444.475 43.0444 444.475 42.5684C444.475 41.9564 444.543 41.3444 444.747 40.6644C444.747 40.3924 444.951 40.1204 445.359 39.8484C445.767 39.5764 446.175 39.3724 446.651 39.3724C465.011 39.3724 477.795 39.5084 485.139 39.9164C486.635 40.0524 487.791 40.1884 488.675 40.4604C489.695 40.8004 490.307 41.2764 490.511 41.8204C490.715 42.6364 490.851 43.5204 490.851 44.4044C490.851 45.4244 490.647 46.6484 490.375 48.0764C489.831 50.4564 488.471 52.1564 486.227 53.1084C485.003 53.6524 482.759 54.0604 479.563 54.3324C478.407 54.4684 476.775 54.5364 474.599 54.5364C472.423 54.6044 470.927 54.6724 470.043 54.6724C469.907 54.6724 467.459 54.7404 462.767 54.8084C458.007 54.8764 455.423 54.9444 454.947 55.0804L455.015 56.7124C455.831 56.7124 458.891 56.7124 464.195 56.6444C469.499 56.5764 472.627 56.5084 473.443 56.5084C475.279 56.5084 476.911 56.5084 478.339 56.4404C479.291 56.4404 480.787 56.3724 482.759 56.2364C484.663 56.1004 486.091 56.0324 487.043 56.0324H487.179C488.403 56.0324 489.083 56.4404 489.083 57.2564V57.5964C488.675 59.5004 488.335 60.9964 488.063 61.9484C487.723 62.9004 487.179 63.5804 486.431 63.9884C485.683 64.3964 484.459 64.5324 482.691 64.5324H481.875C480.107 64.5324 477.591 64.3964 474.395 64.1924C471.199 63.9884 468.955 63.8524 467.663 63.7844C465.623 63.7164 463.855 63.7164 462.291 63.7844C460.727 63.8524 458.959 63.8524 457.055 63.7844C455.151 63.7164 453.451 63.5124 451.955 63.2404C449.915 62.8324 448.487 62.1524 447.671 61.2004C446.855 60.2484 446.379 59.0244 446.107 57.3924C446.039 57.1204 446.039 56.3724 446.039 55.2164C446.039 55.1484 446.039 54.6724 446.107 53.7884C446.107 52.4964 446.515 51.6124 447.195 51.0684C447.875 50.5924 449.031 50.3204 450.799 50.2524C457.327 50.1164 465.963 49.8444 476.775 49.4364C478.135 49.4364 478.815 48.9604 478.815 48.1444L478.747 47.8044C478.747 47.6004 478.747 47.3964 478.747 47.1924V46.7844C478.747 46.7164 478.407 46.6484 477.727 46.6484C477.047 46.6484 475.823 46.6484 474.055 46.7164C472.287 46.7844 470.451 46.8524 468.479 46.9204C466.507 47.0564 463.719 47.1924 460.183 47.3284C456.647 47.4644 453.179 47.6004 449.915 47.7364ZM41.82 108.384V95.3284C41.82 94.3764 41.752 93.0844 41.684 91.3164C41.616 89.5484 41.548 88.2564 41.548 87.3724C41.548 85.9444 41.752 84.9244 42.16 84.2444C42.568 83.6324 43.384 83.2924 44.472 83.2244C47.532 83.0884 50.116 83.7684 52.292 85.1284C53.584 86.0124 54.196 87.3724 54.06 89.1404C53.788 91.5884 53.584 95.8724 53.448 101.992C53.38 103.352 53.244 107.5 53.04 114.436C52.768 121.372 52.564 126.676 52.428 130.348C52.428 131.232 52.02 134.496 51.34 140.14C51.204 140.956 51 141.636 50.66 142.044C50.252 142.452 49.776 142.656 49.096 142.52C48.756 142.52 48.28 142.588 47.736 142.724C47.124 142.86 46.716 142.86 46.512 142.86C44.2 142.996 42.5 142.52 41.548 141.296C40.596 140.072 40.052 137.964 40.052 134.904C40.052 133 40.12 129.124 40.392 123.208C40.392 122.528 40.256 121.984 40.052 121.712C39.848 121.44 39.508 121.372 38.964 121.44H38.828H38.692C36.992 121.44 35.768 120.828 35.088 119.74C34.408 118.652 34.204 117.02 34.476 114.708C34.612 113.076 34.884 111.784 35.292 110.9C35.7 110.016 36.312 109.404 37.128 109.132C37.4 109.064 38.964 108.792 41.82 108.384ZM65.824 95.8724C65.008 108.18 64.532 114.844 64.464 115.932C64.26 118.312 63.988 121.984 63.58 126.948C63.172 131.98 62.832 135.788 62.628 138.372C62.492 140.48 61.676 142.18 60.18 143.472C58.684 144.832 57.256 145.104 55.76 144.356C55.216 144.152 54.876 143.472 54.672 142.316C54.264 140.004 54.06 137.556 54.06 135.108C54.06 133.816 54.128 132.456 54.264 131.096C54.4 130.28 54.4 128.716 54.4 126.404C54.332 124.092 54.332 122.528 54.4 121.712C54.4 119.944 54.604 116.884 54.876 112.464C55.148 108.044 55.284 104.644 55.42 102.196C55.42 101.108 55.42 99.3404 55.284 96.9604C55.148 94.5804 55.08 92.8124 55.148 91.5884C55.148 90.5004 55.624 88.3244 56.576 84.9244C56.644 84.6524 57.052 84.4484 57.868 84.3124C60.316 84.0404 61.88 83.9724 62.696 84.0404C62.968 84.1084 63.308 84.3124 63.716 84.7204C64.056 85.1284 64.26 85.5364 64.396 85.9444C64.532 86.9644 65.008 90.2964 65.824 95.8724ZM7.95601 91.1804L17.68 91.9284C20.332 92.2004 22.44 92.4044 23.936 92.5404C24.684 92.6764 25.364 93.2204 26.044 94.1724C26.724 95.1244 26.996 96.1444 26.86 97.1644C26.724 98.3204 26.248 100.496 25.432 103.76C25.228 104.44 24.956 105.392 24.548 106.752C24.14 108.112 23.8 109.2 23.664 109.88C23.392 110.968 23.324 111.784 23.528 112.464C23.664 113.008 24.208 113.416 25.024 113.62C26.112 113.96 28.56 114.572 32.232 115.456C33.388 115.728 33.796 116.544 33.388 117.904C33.252 118.312 32.98 119.468 32.572 121.236C32.096 123.004 31.688 124.364 31.416 125.248C30.464 127.696 29.104 128.784 27.268 128.648C27.064 128.648 26.928 128.716 26.86 128.716C26.384 128.988 25.908 129.124 25.432 129.124C24.956 129.124 24.616 129.124 24.344 129.056C24.072 128.988 23.664 128.784 23.256 128.376C22.78 127.968 22.508 127.696 22.372 127.56C22.236 127.424 21.896 127.016 21.488 126.404C20.264 125.044 19.516 124.228 19.38 123.956C18.972 123.548 18.496 123.344 17.952 123.344C17.408 123.344 16.864 123.616 16.456 124.092C15.504 125.112 14.756 126.2 14.076 127.356C13.872 127.696 12.852 129.532 11.016 132.864C10.404 134.088 9.45201 134.836 8.09201 135.244C6.73201 135.652 5.37201 135.652 4.08001 135.176C2.72001 134.768 1.76801 133.952 1.22401 132.796C0.340008 131.164 7.89762e-06 128.92 0.272008 126.064C0.340008 125.248 0.816008 124.432 1.70001 123.752C2.65201 122.936 4.01201 121.848 5.91601 120.42C7.82001 118.992 9.18001 117.904 10.064 117.156C11.424 116.068 12.512 114.98 13.396 113.892C14.212 112.804 14.824 111.444 15.164 109.88C15.436 108.656 15.232 107.704 14.688 106.956C14.076 106.276 13.192 105.936 12.104 106.004C8.36401 106.344 5.44001 105.46 3.40001 103.42C2.58401 102.74 2.17601 101.856 2.17601 100.836C2.10801 99.8844 2.17601 97.7764 2.38001 94.5804C2.38001 94.3764 2.44801 94.1044 2.65201 93.8324C2.85601 93.5604 2.99201 93.2884 3.06001 93.0844C3.12801 92.8804 3.06001 92.5404 2.92401 92.1324C2.99201 92.0644 3.12801 91.9284 3.33201 91.7924C3.46801 91.6564 3.67201 91.5884 3.80801 91.5204C3.94401 91.4524 4.08001 91.3844 4.21601 91.3844C4.48801 91.3844 5.71201 91.3164 7.95601 91.3164V91.1804ZM107.644 134.632C107.508 135.38 107.304 136.536 107.032 138.032C106.76 139.528 106.624 140.48 106.556 140.82C106.352 141.84 105.74 142.452 104.788 142.588C103.768 142.792 101.456 142.928 97.784 142.996C96.832 143.064 96.288 142.52 96.152 141.364V139.8V138.508C96.152 138.236 96.152 137.896 96.152 137.556C96.152 137.216 96.152 136.944 96.152 136.74C96.084 136.604 96.084 136.4 96.084 136.264C96.084 136.128 96.016 135.992 95.88 135.856C95.744 135.788 95.676 135.72 95.608 135.652C95.54 135.584 95.404 135.516 95.132 135.448C94.86 135.38 94.656 135.312 94.52 135.312C94.384 135.312 94.112 135.244 93.704 135.108C92.888 134.972 89.556 134.836 83.708 134.632C77.86 134.496 74.324 134.36 73.1 134.36C72.284 134.36 71.672 133.884 71.264 132.932C70.38 131.028 70.312 128.648 71.06 125.86C71.128 125.384 71.74 125.044 72.896 124.772C73.032 124.704 74.392 124.704 76.976 124.704C79.56 124.704 80.92 124.704 81.056 124.704C82.484 124.704 86.7 124.568 93.636 124.432C100.572 124.296 104.584 124.16 105.808 124.092C107.168 124.024 110.976 123.956 117.164 123.888C123.352 123.888 126.82 123.82 127.568 123.82C128.52 123.82 129.336 124.432 129.948 125.792C130.9 127.832 131.104 129.804 130.56 131.776C130.356 132.456 129.812 133 128.928 133.272C127.908 133.68 124.372 134.02 118.32 134.156C112.2 134.36 109.072 134.428 108.8 134.428L107.644 134.632ZM104.516 94.9884C96.696 94.9884 92.412 94.9884 91.732 94.9204C90.304 94.9204 87.448 94.6484 83.164 94.1724C82.824 94.1724 82.348 94.0364 81.668 93.8324C80.988 93.6964 80.512 93.5604 80.172 93.5604C78.812 93.4244 78.064 92.6764 78.064 91.3164V85.0604C78.472 84.9924 79.016 84.8564 79.832 84.7204C80.58 84.5844 81.26 84.4484 81.872 84.3124C82.484 84.2444 83.096 84.1764 83.64 84.1764C86.632 84.1764 90.916 84.2444 96.356 84.4484C97.308 84.4484 98.736 84.5844 100.572 84.7204C102.408 84.8564 103.768 84.9924 104.584 84.9924C105.264 85.0604 106.692 85.1284 108.868 85.1284C111.044 85.1964 112.744 85.2644 113.968 85.3324C115.192 85.4684 117.096 85.8084 119.68 86.4884C120.496 86.7604 121.04 87.1004 121.244 87.6444C121.448 88.1884 121.516 88.9364 121.38 89.8204C120.972 92.6084 120.632 94.5124 120.36 95.4644C119.952 96.6884 119.204 97.8444 118.116 98.7964C117.708 99.2044 117.232 99.5444 116.824 99.8164C116.348 100.156 115.804 100.496 115.124 100.904C114.444 101.312 113.968 101.652 113.696 101.788C118.864 105.732 121.856 107.908 122.672 108.384C123.08 108.724 123.352 108.996 123.42 109.268C123.488 109.54 123.42 109.948 123.148 110.356C122.808 110.9 122.4 111.648 121.924 112.6C121.38 113.552 120.972 114.3 120.7 114.708C120.156 115.592 119.272 116.204 117.912 116.544C116.552 116.884 115.26 116.884 114.104 116.544C113.288 116.34 112.54 116.068 111.724 115.66C110.908 115.252 110.228 114.912 109.752 114.572C109.208 114.232 108.528 113.756 107.644 113.144L105.74 111.852C104.584 111.172 103.36 110.492 102.068 109.948C100.844 109.54 99.348 109.812 97.58 110.764C95.064 112.124 92.072 113.892 88.672 116.068C88.264 116.34 87.856 116.476 87.516 116.612C87.108 116.748 86.7 116.748 86.292 116.748C85.816 116.748 85.476 116.68 85.204 116.68C84.932 116.68 84.524 116.612 83.98 116.476C83.368 116.34 83.028 116.272 82.892 116.204C81.124 115.864 79.764 115.252 78.948 114.3C78.132 113.348 77.792 112.328 77.928 111.172C78.064 110.084 78.676 108.928 79.628 107.704C79.9 107.432 80.24 107.092 80.716 106.82C81.192 106.548 81.668 106.276 82.076 106.14C82.484 106.004 83.028 105.868 83.708 105.596C84.388 105.324 84.864 105.12 85.136 104.984C86.088 104.644 87.516 104.1 89.488 103.42C91.392 102.74 92.888 102.196 93.84 101.788C94.792 101.38 96.22 100.768 98.056 99.9524C99.892 99.1364 100.98 98.5924 101.388 98.4564C102.068 98.1844 102.68 97.7084 103.156 97.1644C103.564 96.6204 104.04 95.8724 104.516 94.9884ZM198.764 134.36C198.696 134.904 198.696 135.652 198.832 136.468C198.968 137.352 198.968 138.168 198.968 138.916C198.968 139.664 198.764 140.344 198.492 140.956C197.948 141.976 197.404 142.588 196.724 142.724C195.908 142.928 194.956 143.132 193.732 143.268C192.508 143.472 191.42 143.608 190.536 143.676C189.652 143.744 189.244 143.744 189.244 143.676H153.34C152.116 143.744 150.28 143.812 147.832 143.88C145.384 143.948 143.548 143.948 142.324 143.948C140.964 144.016 139.672 143.744 138.448 143.132L137.564 137.896L138.448 135.312C138.72 134.496 139.264 134.088 140.08 134.02L145.52 133.476C150.96 133.476 156.808 133.34 162.996 133.204C162.452 132.66 162.18 132.048 162.18 131.504C162.044 130.688 161.976 129.532 161.976 128.036C161.908 126.54 161.84 125.452 161.84 124.908C161.84 124.364 161.908 123.956 162.112 123.684C162.248 123.412 162.656 123.276 163.268 123.276C163.948 123.344 165.24 123.344 167.008 123.344C168.776 123.344 170 123.276 170.748 123.276C172.176 123.344 173.128 123.684 173.672 124.364C174.216 125.044 174.624 126.336 174.964 128.24C175.168 129.668 174.828 131.232 173.944 133C181.288 132.864 186.116 132.728 188.292 132.592C190.944 132.524 193.052 132.524 194.548 132.66C194.956 132.66 196.18 133.068 198.22 133.748C198.288 133.816 198.424 133.884 198.56 134.02C198.696 134.156 198.764 134.292 198.764 134.36ZM155.992 107.024C163.812 106.616 168.232 106.412 169.252 106.344C170.068 106.276 171.36 106.208 173.128 106.072C174.896 105.936 176.188 105.868 177.14 105.8C181.9 105.528 184.824 105.46 185.844 105.46C187.408 105.528 189.108 105.868 190.876 106.48C192.372 107.024 193.324 107.568 193.596 107.976C193.868 108.452 193.936 109.404 193.664 110.9C193.46 111.988 193.256 113.008 192.984 114.096C192.712 115.184 192.372 116.34 191.964 117.7C191.556 119.06 191.284 120.012 191.148 120.556C189.652 120.556 187.544 120.624 184.688 120.624C181.832 120.624 179.384 120.624 177.344 120.624C175.304 120.624 173.332 120.556 171.428 120.488C169.388 120.42 167.212 120.284 164.968 120.148C162.656 120.012 160.14 119.808 157.284 119.536C154.428 119.264 152.32 119.128 150.892 118.992C150.348 118.992 149.668 118.924 148.852 118.924C147.968 118.924 147.492 118.924 147.356 118.856C145.588 118.856 144.5 118.516 144.092 117.836C143.616 117.156 143.412 116 143.48 114.232C143.548 113.212 143.752 111.648 144.092 109.608L144.704 106.14C144.772 105.392 144.908 104.304 145.112 102.808C145.248 101.312 145.384 100.224 145.52 99.5444C146.132 94.5124 146.54 91.5204 146.812 90.5684C147.492 87.1684 150.144 85.7404 154.632 86.1484C156.876 86.5564 159.392 86.6924 162.112 86.6244C164.832 86.6244 167.28 86.2164 169.592 85.5364C170 85.4004 170.476 85.2644 171.02 85.1964C171.564 85.1964 172.108 85.1964 172.788 85.1964C173.4 85.2644 173.876 85.3324 174.284 85.3324C174.692 85.4004 175.304 85.4684 176.12 85.6044C176.936 85.7404 177.412 85.8084 177.684 85.8084C179.316 86.0804 181.628 86.4884 184.62 87.0324C187.612 87.5764 189.788 87.9844 191.148 88.1884C192.168 88.3924 192.916 88.7324 193.324 89.1404C193.732 89.5484 193.936 90.2964 193.8 91.2484C193.664 91.7924 193.528 92.8124 193.392 94.2404C193.188 95.7364 193.052 96.8244 192.916 97.5724C192.44 99.8164 190.876 100.904 188.224 100.836C186.728 100.836 184.62 100.836 181.9 100.7C179.112 100.564 177.14 100.496 175.916 100.496C171.768 100.428 168.164 100.428 165.036 100.564C164.356 100.564 163.268 100.7 161.908 100.904C160.548 101.176 159.528 101.244 158.848 101.244C157.964 101.244 157.352 101.448 156.944 101.72C156.536 101.992 156.332 102.536 156.332 103.284C156.332 103.42 156.196 104.712 155.992 107.024ZM281.615 142.724C279.439 142.724 277.943 142.384 277.127 141.568C276.311 140.752 275.903 139.256 275.767 137.012C275.427 130.688 275.291 126.336 275.291 123.956C275.291 120.624 275.495 110.084 275.971 92.4044C275.971 91.9284 276.039 91.3844 276.175 90.8404C276.243 90.2964 276.311 89.8204 276.447 89.4124C276.515 89.0044 276.651 88.5284 276.855 87.8484C276.991 87.1684 277.127 86.6924 277.263 86.2844C277.399 85.7404 277.671 85.3324 278.147 85.1964C278.283 85.1964 278.759 85.0604 279.507 84.8564C280.255 84.6524 280.799 84.5164 281.071 84.4484C281.343 84.3804 281.751 84.3124 282.431 84.1764C283.043 84.0404 283.519 84.0404 283.927 84.0404C284.335 84.0404 284.811 84.1084 285.355 84.2444C285.899 84.3804 286.375 84.5164 286.919 84.7204C288.211 85.4004 288.959 86.6244 289.095 88.3924C289.095 89.2084 289.163 91.9284 289.231 96.6204C289.231 101.312 289.367 104.236 289.503 105.392C289.639 106.208 290.115 107.092 290.931 107.976C291.339 108.452 291.747 108.928 292.223 109.404C292.699 109.948 293.243 110.492 293.855 111.036C294.399 111.648 294.875 112.124 295.283 112.396C295.827 112.94 296.167 113.552 296.439 114.164C296.711 114.844 296.779 115.592 296.711 116.408C296.643 117.224 296.575 117.836 296.507 118.244C296.371 118.652 296.235 119.4 295.963 120.352C295.555 121.984 294.127 122.868 291.679 122.868C290.387 122.868 289.571 123.072 289.299 123.412C288.959 123.82 288.823 124.704 288.891 126.2C288.891 127.22 288.891 129.056 288.959 131.64C289.027 134.224 289.095 135.992 289.095 136.876C289.095 138.712 288.619 139.936 287.531 140.548C284.811 142.044 282.839 142.792 281.615 142.724ZM243.059 95.0564C246.119 94.2404 249.451 94.1044 253.123 94.7164C253.803 94.8524 254.415 95.5324 254.959 96.6884C255.503 97.8444 255.707 98.9324 255.571 99.8844C255.503 100.292 255.299 103.012 255.027 107.908C255.027 108.316 255.095 108.588 255.299 108.724C255.435 108.86 255.775 108.928 256.183 108.928C261.079 109.608 264.887 110.628 267.607 111.988C268.627 112.532 269.239 112.94 269.375 113.212C269.511 113.484 269.511 114.232 269.307 115.32C269.035 116.272 268.899 117.632 268.831 119.264C268.695 120.964 268.491 122.392 268.219 123.48C267.947 124.364 267.607 124.908 267.267 125.112C266.927 125.384 266.587 125.452 266.247 125.316C265.907 125.18 265.363 125.044 264.615 124.772C263.867 124.568 263.119 124.432 262.439 124.432C262.303 124.432 262.099 124.432 261.963 124.296L261.691 124.092C257.611 122.46 254.959 120.896 253.735 119.468C253.531 119.264 253.327 119.06 253.055 118.856C252.783 118.652 252.443 118.38 252.035 118.108C251.627 117.836 251.355 117.632 251.151 117.496C249.247 120.488 248.295 122.052 248.159 122.256C245.847 125.588 244.215 127.9 243.195 129.192C242.991 129.396 242.719 129.668 242.447 130.076C242.175 130.484 241.903 130.892 241.631 131.232C241.359 131.572 241.087 131.98 240.747 132.456C240.339 132.932 239.999 133.272 239.727 133.544C239.455 133.816 239.115 134.088 238.775 134.36C238.367 134.632 238.095 134.768 237.823 134.768C237.551 134.768 237.211 134.7 236.939 134.564C233.947 132.66 232.111 129.532 231.431 125.18C231.295 124.5 231.567 123.684 232.247 122.732C233.675 120.692 236.055 117.496 239.319 113.076C239.863 112.328 240.475 111.648 241.155 110.968C242.107 110.016 242.651 108.656 242.787 106.82C242.855 106.072 242.991 104.78 243.195 102.876C243.331 100.972 243.467 99.5444 243.603 98.4564C243.603 98.1844 243.535 97.9124 243.535 97.6404C243.467 97.3684 243.399 97.0964 243.263 96.7564C243.127 96.4164 243.059 96.1444 243.059 95.9404V95.0564ZM338.871 134.632C338.735 135.38 338.531 136.536 338.259 138.032C337.987 139.528 337.851 140.48 337.783 140.82C337.579 141.84 336.967 142.452 336.015 142.588C334.995 142.792 332.683 142.928 329.011 142.996C328.059 143.064 327.515 142.52 327.379 141.364V139.8V138.508C327.379 138.236 327.379 137.896 327.379 137.556C327.379 137.216 327.379 136.944 327.379 136.74C327.311 136.604 327.311 136.4 327.311 136.264C327.311 136.128 327.243 135.992 327.107 135.856C326.971 135.788 326.903 135.72 326.835 135.652C326.767 135.584 326.631 135.516 326.359 135.448C326.087 135.38 325.883 135.312 325.747 135.312C325.611 135.312 325.339 135.244 324.931 135.108C324.115 134.972 320.783 134.836 314.935 134.632C309.087 134.496 305.551 134.36 304.327 134.36C303.511 134.36 302.899 133.884 302.491 132.932C301.607 131.028 301.539 128.648 302.287 125.86C302.355 125.384 302.967 125.044 304.123 124.772C304.259 124.704 305.619 124.704 308.203 124.704C310.787 124.704 312.147 124.704 312.283 124.704C313.711 124.704 317.927 124.568 324.863 124.432C331.799 124.296 335.811 124.16 337.035 124.092C338.395 124.024 342.203 123.956 348.391 123.888C354.579 123.888 358.047 123.82 358.795 123.82C359.747 123.82 360.563 124.432 361.175 125.792C362.127 127.832 362.331 129.804 361.787 131.776C361.583 132.456 361.039 133 360.155 133.272C359.135 133.68 355.599 134.02 349.547 134.156C343.427 134.36 340.299 134.428 340.027 134.428L338.871 134.632ZM317.587 95.6004C317.587 96.2804 317.451 96.9604 317.315 97.7764C317.179 98.5924 317.111 99.2724 317.111 99.9524C326.495 100.632 331.663 101.04 332.615 101.108C336.083 101.312 339.211 101.38 342.067 101.244C342.747 101.244 343.631 101.176 344.787 101.04C345.943 100.904 346.963 100.836 347.779 100.7L349.003 100.496L351.451 100.428C351.723 100.632 351.995 100.904 352.403 101.244C352.811 101.584 353.287 102.196 353.899 103.012C354.443 103.896 354.715 104.644 354.579 105.256C354.171 106.616 353.695 107.5 353.151 107.84C352.607 108.18 351.519 108.316 349.887 108.18C349.207 108.112 348.119 108.112 346.555 108.18C344.923 108.248 343.835 108.248 343.223 108.18C340.911 108.18 337.647 108.044 333.431 107.84C329.215 107.704 326.563 107.568 325.407 107.5C323.843 107.432 322.823 107.432 322.347 107.568C321.939 107.704 321.599 107.84 321.395 108.112C321.123 108.384 320.987 108.656 320.987 108.86C320.987 109.064 320.987 109.404 321.055 109.88C321.055 110.356 321.123 110.696 321.123 110.9C330.847 111.376 336.083 111.58 336.899 111.58L350.635 111.784L353.695 112.804C353.627 113.212 353.559 113.62 353.423 114.164C353.287 114.708 352.947 115.388 352.539 116.34C352.063 117.292 351.587 117.836 351.111 117.904C349.343 118.38 347.371 118.72 345.195 118.924C343.019 119.196 341.251 119.332 340.027 119.332C338.735 119.4 336.627 119.4 333.771 119.4C330.915 119.4 329.079 119.4 328.331 119.4H327.583C321.395 119.4 315.343 118.72 309.427 117.224C308.815 117.088 308.407 116.748 308.271 116.204C307.999 115.32 307.795 114.368 307.795 113.416C307.727 103.624 307.727 97.3004 307.863 94.3764C307.863 93.6964 307.999 92.6084 308.271 90.9764C308.543 89.4124 308.815 87.9844 309.087 86.6924L309.427 84.8564L313.507 84.1764C314.459 84.4484 315.615 84.7204 317.111 84.9924C318.539 85.2644 320.851 85.6724 324.047 86.0804C327.175 86.5564 329.555 86.6924 331.119 86.5564C335.335 86.3524 338.055 86.2164 339.347 86.0804C339.551 86.0804 339.891 86.1484 340.299 86.2164C340.707 86.2844 341.047 86.2844 341.319 86.2844C341.591 86.2844 341.863 86.2164 342.135 86.1484C342.407 86.0804 342.679 86.0124 343.019 85.8764C343.359 85.7404 343.631 85.6724 343.903 85.6044C344.855 85.4004 345.399 85.2644 345.603 85.2644C346.215 85.3324 347.507 85.4684 349.411 85.6724C351.315 85.9444 352.811 86.0804 353.899 86.1484C354.579 86.2164 355.123 86.4204 355.531 86.7604C355.939 87.1684 356.143 87.6444 356.143 88.1884C356.075 90.5004 355.803 93.0844 355.395 95.8724C355.327 96.1444 355.123 96.3484 354.715 96.6204C354.307 96.8924 353.899 97.0284 353.559 97.0284C352.811 97.1644 351.655 97.2324 350.091 97.1644C344.379 96.9604 338.735 96.6884 333.159 96.3484C331.323 96.2804 328.739 96.1444 325.339 95.9404C321.939 95.7364 319.899 95.6004 319.219 95.5324C319.083 95.5324 318.539 95.6004 317.587 95.6004ZM413.127 84.2444C415.711 84.1084 417.139 84.0404 417.275 84.0404C418.771 84.1084 420.199 84.2444 421.695 84.4484C423.191 84.6524 424.483 84.7884 425.639 84.8564C426.931 84.9924 427.611 85.7404 427.679 87.0324C427.679 88.6644 427.815 91.1804 428.019 94.5124C428.223 97.9124 428.359 100.428 428.427 102.128C428.495 103.42 428.495 105.732 428.495 108.996C428.495 112.328 428.495 114.64 428.495 115.864C428.495 117.7 428.495 121.44 428.495 127.152C428.495 132.864 428.495 136.672 428.495 138.508V138.644C428.495 139.596 428.359 140.548 428.087 141.364C427.475 143.064 426.387 143.88 424.823 143.812C424.075 143.812 423.191 143.88 422.239 143.88C421.287 143.88 420.471 143.88 419.791 143.744C419.247 143.744 418.635 143.54 418.091 143.2C417.479 142.928 417.071 142.52 416.935 142.112C415.575 138.848 414.895 136.332 414.827 134.564C414.623 130.62 414.487 123.888 414.419 114.504C414.351 105.12 414.283 98.7284 414.147 95.2604C414.147 94.1724 414.079 93.0844 413.943 91.8604C413.807 90.6364 413.671 89.2764 413.535 87.7124L413.127 84.2444ZM385.587 120.352C385.587 120.488 385.519 121.032 385.519 121.984C385.519 122.936 385.451 123.616 385.451 123.956C389.803 123.48 394.767 123.616 400.275 124.432C400.955 124.568 401.499 124.908 401.839 125.384C402.111 125.928 402.247 126.54 402.179 127.356C402.111 128.172 401.975 128.92 401.839 129.532C401.703 130.212 401.431 131.028 401.159 131.98C400.819 132.932 400.615 133.612 400.615 133.884C400.207 135.176 399.187 135.992 397.691 136.4C397.283 136.536 396.263 136.808 394.563 137.284C392.863 137.76 391.707 138.032 391.163 138.168C390.619 138.304 389.599 138.44 388.171 138.712C386.675 138.984 385.519 139.188 384.703 139.188C383.887 139.188 382.867 139.188 381.711 139.052C380.487 138.916 379.399 138.712 378.379 138.372C377.835 138.236 376.883 137.828 375.387 137.284C373.891 136.74 372.803 136.332 371.987 135.924C370.627 135.38 369.947 134.088 370.083 132.116C370.083 130.212 370.355 127.696 370.831 124.568C371.239 121.44 371.511 118.924 371.579 116.952C371.443 112.6 372.667 110.356 375.319 110.356C376.475 110.356 378.107 110.424 380.147 110.628C382.187 110.832 384.023 110.9 385.723 110.832C387.355 110.764 388.919 110.424 390.415 109.812C390.415 109.812 390.415 109.268 390.279 108.248C390.143 107.296 390.007 106.276 389.871 105.188C389.735 104.1 389.667 103.556 389.667 103.488C389.667 103.42 389.599 103.284 389.463 103.148C389.327 103.012 389.191 102.876 389.123 102.876C385.723 102.196 383.547 101.856 382.731 101.788C382.187 101.788 381.371 101.788 380.419 101.924C379.467 102.06 378.787 102.128 378.379 102.128C376.407 102.128 373.891 102.06 370.831 101.924C370.559 101.924 370.287 101.856 370.151 101.72C369.947 101.584 369.811 101.448 369.675 101.176C369.539 100.904 369.471 100.7 369.471 100.496C369.471 100.36 369.403 100.088 369.403 99.7484C369.335 99.4084 369.335 99.1364 369.335 99.0004C369.199 98.5244 369.131 98.0484 369.131 97.6404C369.131 97.2324 369.131 96.7564 369.267 96.3484C369.335 95.9404 369.403 95.6684 369.471 95.3964C369.471 95.1244 369.607 94.7844 369.811 94.3084C369.947 93.9004 370.083 93.5604 370.219 93.3564C370.287 93.2204 370.491 92.8124 370.831 92.2684C371.103 91.7244 371.307 91.3844 371.443 91.1124C371.579 90.9084 372.191 90.7044 373.347 90.5004C378.243 89.6844 381.235 89.2764 382.323 89.1404C383.071 89.1404 384.159 89.2084 385.587 89.4124C386.947 89.6164 387.899 89.6844 388.443 89.6844C389.123 89.7524 390.075 89.7524 391.435 89.6844C392.795 89.6164 393.815 89.6164 394.495 89.6164C395.923 89.6844 397.351 90.0244 398.847 90.5684C400.275 91.1124 401.567 91.9964 402.655 93.2204C403.743 94.4444 404.219 95.8044 404.219 97.3684C404.151 98.7284 404.219 101.244 404.423 104.78C404.559 108.316 404.627 110.832 404.627 112.192C404.627 112.804 404.559 113.348 404.423 113.756C404.287 114.232 404.219 114.572 404.151 114.776C404.015 114.98 403.879 115.32 403.607 115.796C403.335 116.34 403.063 116.748 402.927 117.02C402.655 117.564 402.111 118.04 401.363 118.312C397.283 119.944 393.951 120.488 391.367 119.944C390.483 119.876 389.871 119.876 389.463 119.876C389.055 119.876 388.443 120.012 387.559 120.148C386.607 120.284 385.995 120.352 385.587 120.352Z" fill="#FF961E"/>
</svg>
