<svg width="199" height="76" viewBox="0 0 199 76" fill="none" xmlns="http://www.w3.org/2000/svg">
<rect x="0.5" y="0.5" width="198" height="75" fill="#FF961E"/>
<rect x="0.5" y="0.5" width="198" height="75" stroke="black"/>
<path d="M23.68 26.28V27.34C22.42 27.66 20.12 27.76 18.3 27.76H13.72V26.68H17.68V22.86C15.52 22.6 13.88 20.94 13.88 18.72C13.88 16.32 15.86 14.56 18.28 14.56C20.7 14.56 22.68 16.32 22.68 18.72C22.68 20.9 21.08 22.54 19.02 22.86V26.68C20.7 26.66 22.54 26.54 23.68 26.28ZM29.56 31.64H28.22V22.04H25.68V30.8H24.38V14.16H25.68V20.86H28.22V13.86H29.56V31.64ZM21.38 18.72C21.38 16.86 20.02 15.64 18.28 15.64C16.54 15.64 15.16 16.86 15.16 18.72C15.16 20.58 16.54 21.82 18.28 21.82C20.02 21.82 21.38 20.58 21.38 18.72ZM23.04 58.8L23.24 59.8C22.22 60.12 20.98 60.24 19.8 60.24C15.98 60.24 14.16 57.68 14.14 54.34C14.1 51.24 15.98 48.6 19.2 48.62C22.5 48.62 23.98 50.76 23.98 53.94V54.66H15.42C15.5 57.16 16.92 59.26 19.84 59.24C20.86 59.24 22.02 59.12 23.04 58.8ZM15.38 53.68H22.72C22.72 53.64 22.76 53.46 22.72 53.42C22.7 51.04 21.38 49.62 19.2 49.62C16.72 49.62 15.54 51.6 15.38 53.68ZM28.5397 59.66C28.5397 60.3 28.0397 60.78 27.3997 60.78C26.7197 60.78 26.2197 60.3 26.2197 59.66C26.2197 59.06 26.7197 58.54 27.3997 58.54C28.0397 58.54 28.5397 59.06 28.5397 59.66ZM40.028 59.42V57.92H39.908C39.128 59.14 37.688 59.86 36.128 59.86C33.068 59.88 31.328 57.5 31.328 54.24C31.328 51 33.108 48.62 36.208 48.64C37.788 48.64 39.088 49.3 39.888 50.48H39.988V48.9H41.268V59.6C41.268 62.68 39.148 64.24 36.108 64.24C35.048 64.24 33.668 64.08 32.648 63.74L32.928 62.72C33.928 63.1 35.048 63.24 36.108 63.24C38.728 63.24 40.028 61.82 40.028 59.42ZM39.968 55.22V53.12C39.968 51.16 38.228 49.64 36.348 49.64C33.968 49.64 32.588 51.6 32.588 54.24C32.588 56.88 33.848 58.86 36.268 58.86C38.208 58.86 39.968 57.32 39.968 55.22ZM46.9186 59.66C46.9186 60.3 46.4186 60.78 45.7786 60.78C45.0986 60.78 44.5986 60.3 44.5986 59.66C44.5986 59.06 45.0986 58.54 45.7786 58.54C46.4186 58.54 46.9186 59.06 46.9186 59.66ZM69.6319 51.34H57.1119V44.56H69.6319V51.34ZM68.2919 50.26V45.64H58.4519V50.26H68.2919ZM72.1119 55.1H64.0719V61.64H62.6919V55.1H54.6519V54.02H72.1119V55.1ZM84.9303 56.5L84.1103 57.46C81.7303 56.16 79.5103 53.74 78.7903 51.46C78.0503 53.98 76.1503 56.3 73.4303 57.98L72.5103 57.14C75.6303 55.34 78.0303 52.24 78.0303 48V44.64H79.4703V48C79.4703 52.08 82.1303 55.12 84.9303 56.5ZM88.0503 61.64H86.7103V43.86H88.0503V50.74H91.0503V51.88H88.0503V61.64ZM107.434 48.84C107.434 51.4 105.434 53.44 102.574 53.44C99.6738 53.44 97.7138 51.4 97.7138 48.84C97.7138 46.24 99.6738 44.18 102.574 44.18C105.434 44.18 107.434 46.24 107.434 48.84ZM102.574 52.36C104.754 52.36 106.074 50.8 106.074 48.82C106.074 46.82 104.754 45.26 102.574 45.26C100.354 45.26 99.0538 46.82 99.0538 48.82C99.0538 50.8 100.354 52.36 102.574 52.36ZM112.874 61.36H100.494V55.44H101.834V60.28H112.874V61.36ZM112.134 57.06H110.814V43.86H112.134V48.34H114.854V49.46H112.134V57.06ZM138.557 53.34H121.117V52.28H129.137V50.34C125.497 50.18 123.277 48.84 123.277 47.06C123.277 45.14 125.757 43.76 129.817 43.76C133.877 43.76 136.377 45.14 136.377 47.06C136.377 48.84 134.157 50.18 130.517 50.34V52.28H138.557V53.34ZM136.097 61.44H123.557V54.8H124.897V56.88H134.757V54.8H136.097V61.44ZM135.037 47.06C135.037 45.58 132.797 44.78 129.817 44.78C126.857 44.78 124.597 45.58 124.597 47.06C124.597 48.52 126.857 49.32 129.817 49.32C132.797 49.32 135.037 48.52 135.037 47.06ZM134.737 60.4V57.92H124.897V60.4H134.737ZM151.316 60.8H150.016V50.8H145.936V49.68H150.016V44.16H151.316V60.8ZM155.156 61.64H153.836V43.86H155.156V61.64ZM148.836 55.52V56.6C147.176 56.86 144.756 57.02 142.996 57.02H141.036V44.74H142.316V55.92H142.996C144.756 55.92 147.156 55.78 148.836 55.52ZM165.054 58.62L163.874 57.98C166.814 54.64 168.074 50.48 168.274 46.12H164.734V45.04H169.654C169.554 50.76 168.074 54.98 165.054 58.62ZM159.354 57.54L158.174 56.92C161.174 53.84 162.474 49.84 162.694 46.12H159.114V45.04H164.114C163.974 50.16 162.374 54.26 159.354 57.54ZM173.314 61.64H172.034V43.86H173.314V50.8H175.894V51.94H173.314V61.64ZM180.853 56.6H179.693V55.74C179.693 53.92 180.133 52.84 181.913 51.38C183.053 50.44 183.833 49.22 183.833 48.08C183.833 46.2 182.273 45.4 180.613 45.4C179.633 45.4 178.153 45.8 177.113 46.42L176.633 45.52C177.713 44.88 179.353 44.38 180.713 44.38C182.973 44.38 185.113 45.44 185.113 48.04C185.113 49.5 184.353 50.74 182.993 51.88C181.253 53.38 180.853 54.1 180.853 55.82V56.6ZM181.413 59.84C181.413 60.46 180.913 60.94 180.293 60.94C179.613 60.94 179.133 60.46 179.133 59.84C179.133 59.26 179.613 58.74 180.293 58.74C180.913 58.74 181.413 59.26 181.413 59.84Z" fill="white"/>
</svg>
