<svg width="190" height="76" viewBox="0 0 190 76" fill="none" xmlns="http://www.w3.org/2000/svg">
<rect x="0.5" y="0.5" width="189" height="75" fill="#FF961E"/>
<rect x="0.5" y="0.5" width="189" height="75" stroke="black"/>
<path d="M30.96 28.98H13.48V27.9H25.56C26.56 24.4 27.14 19.66 27.3 16.26H15.62V15.18H28.7C28.52 19.64 27.92 24.36 26.94 27.9H30.96V28.98ZM33.1184 27.82L32.0984 26.96C36.2384 24.64 38.3784 20.2 38.6184 16.24H33.0984V15.16H40.0584C39.9584 20.66 37.3184 25.26 33.1184 27.82ZM44.0784 30.8H42.7784V21.7H39.7384V20.58H42.7784V14.16H44.0784V30.8ZM47.7384 31.64H46.4184V13.86H47.7384V31.64ZM73.3819 28.98H55.9019V27.9H67.9819C68.9819 24.4 69.5619 19.66 69.7219 16.26H58.0419V15.18H71.1219C70.9419 19.64 70.3419 24.36 69.3619 27.9H73.3819V28.98ZM89.6403 31.64H88.3003V21.68H84.2003V20.56H88.3003V13.86H89.6403V31.64ZM75.7803 27.84L74.9003 26.94C79.6203 24.64 82.2603 20.64 82.7603 16.12H76.0003V15.04H84.2203C83.9603 21.06 80.4803 25.46 75.7803 27.84ZM108.039 31.64H106.699V13.86H108.039V31.64ZM105.759 25.14V26.22C103.519 26.68 100.019 26.88 97.3188 26.88H94.3588V14.7H95.6988V25.78H97.3188C100.019 25.78 103.359 25.58 105.759 25.14ZM115.657 26.6H114.497V25.74C114.497 23.92 114.937 22.84 116.717 21.38C117.857 20.44 118.637 19.22 118.637 18.08C118.637 16.2 117.077 15.4 115.417 15.4C114.437 15.4 112.957 15.8 111.917 16.42L111.437 15.52C112.517 14.88 114.157 14.38 115.517 14.38C117.777 14.38 119.917 15.44 119.917 18.04C119.917 19.5 119.157 20.74 117.797 21.88C116.057 23.38 115.657 24.1 115.657 25.82V26.6ZM116.217 29.84C116.217 30.46 115.717 30.94 115.097 30.94C114.417 30.94 113.937 30.46 113.937 29.84C113.937 29.26 114.417 28.74 115.097 28.74C115.717 28.74 116.217 29.26 116.217 29.84ZM122.18 31.94H121L128.08 13.16H129.26L122.18 31.94ZM147.855 28.98H130.375V27.9H142.455C143.455 24.4 144.035 19.66 144.195 16.26H132.515V15.18H145.595C145.415 19.64 144.815 24.36 143.835 27.9H147.855V28.98ZM164.433 31.64H163.113V21.48H160.553V30.8H159.273V14.16H160.553V20.32H163.113V13.86H164.433V31.64ZM158.333 25.82V26.9C156.693 27.16 154.233 27.32 152.513 27.32H150.093V20.54H155.553V16.14H150.093V15.06H156.853V21.6H151.393V26.22H152.513C154.233 26.22 156.673 26.08 158.333 25.82ZM171.731 26.6H170.571V25.74C170.571 23.92 171.011 22.84 172.791 21.38C173.931 20.44 174.711 19.22 174.711 18.08C174.711 16.2 173.151 15.4 171.491 15.4C170.511 15.4 169.031 15.8 167.991 16.42L167.511 15.52C168.591 14.88 170.231 14.38 171.591 14.38C173.851 14.38 175.991 15.44 175.991 18.04C175.991 19.5 175.231 20.74 173.871 21.88C172.131 23.38 171.731 24.1 171.731 25.82V26.6ZM172.291 29.84C172.291 30.46 171.791 30.94 171.171 30.94C170.491 30.94 170.011 30.46 170.011 29.84C170.011 29.26 170.491 28.74 171.171 28.74C171.791 28.74 172.291 29.26 172.291 29.84ZM23.04 58.8L23.24 59.8C22.22 60.12 20.98 60.24 19.8 60.24C15.98 60.24 14.16 57.68 14.14 54.34C14.1 51.24 15.98 48.6 19.2 48.62C22.5 48.62 23.98 50.76 23.98 53.94V54.66H15.42C15.5 57.16 16.92 59.26 19.84 59.24C20.86 59.24 22.02 59.12 23.04 58.8ZM15.38 53.68H22.72C22.72 53.64 22.76 53.46 22.72 53.42C22.7 51.04 21.38 49.62 19.2 49.62C16.72 49.62 15.54 51.6 15.38 53.68ZM28.5397 59.66C28.5397 60.3 28.0397 60.78 27.3997 60.78C26.7197 60.78 26.2197 60.3 26.2197 59.66C26.2197 59.06 26.7197 58.54 27.3997 58.54C28.0397 58.54 28.5397 59.06 28.5397 59.66ZM40.028 59.42V57.92H39.908C39.128 59.14 37.688 59.86 36.128 59.86C33.068 59.88 31.328 57.5 31.328 54.24C31.328 51 33.108 48.62 36.208 48.64C37.788 48.64 39.088 49.3 39.888 50.48H39.988V48.9H41.268V59.6C41.268 62.68 39.148 64.24 36.108 64.24C35.048 64.24 33.668 64.08 32.648 63.74L32.928 62.72C33.928 63.1 35.048 63.24 36.108 63.24C38.728 63.24 40.028 61.82 40.028 59.42ZM39.968 55.22V53.12C39.968 51.16 38.228 49.64 36.348 49.64C33.968 49.64 32.588 51.6 32.588 54.24C32.588 56.88 33.848 58.86 36.268 58.86C38.208 58.86 39.968 57.32 39.968 55.22ZM46.9186 59.66C46.9186 60.3 46.4186 60.78 45.7786 60.78C45.0986 60.78 44.5986 60.3 44.5986 59.66C44.5986 59.06 45.0986 58.54 45.7786 58.54C46.4186 58.54 46.9186 59.06 46.9186 59.66ZM69.9919 61.64H68.6519V43.86H69.9919V61.64ZM56.1319 57.84L55.2519 56.94C59.9719 54.64 62.6319 50.64 63.1519 46.12H56.3519V45.04H64.5919C64.3319 51.06 60.8319 55.46 56.1319 57.84ZM93.6753 61.44H81.1353V55.16H82.4753V57.14H92.3353V55.16H93.6753V61.44ZM95.0153 50.24L94.3353 51.22C91.5553 50.92 88.7353 49.92 87.4153 48.38C86.1153 49.92 83.2553 50.92 80.5353 51.22L79.8353 50.24C82.6553 49.98 86.1553 48.76 86.6553 47.18H80.9153V46.18H93.8953V47.18H88.1953C88.6953 48.76 92.1553 49.98 95.0153 50.24ZM92.3153 60.42V58.14H82.4753V60.42H92.3153ZM96.1353 53.58H88.0953V55.96H86.7153V53.58H78.6953V52.56H96.1353V53.58ZM90.9753 44.82H83.9553V43.8H90.9753V44.82ZM114.534 54.9H106.494V61.64H105.114V54.9H97.0738V53.82H114.534V54.9ZM113.574 50.88L112.834 51.86C109.794 51.16 106.934 49.48 105.794 47.34C104.674 49.48 101.814 51.16 98.7738 51.86L98.0138 50.88C101.414 50.2 105.094 48 105.094 45.18V44.32H106.514V45.18C106.514 48 110.194 50.2 113.574 50.88ZM130.252 61.64H128.932V43.86H130.252V50.2H133.252V51.34H130.252V61.64ZM128.072 55.16V56.24C125.832 56.7 122.332 56.92 119.652 56.92H116.892V45.04H125.472V46.12H118.212V55.82H119.652C122.332 55.82 125.672 55.6 128.072 55.16ZM137.251 59.66C137.251 60.3 136.751 60.78 136.111 60.78C135.431 60.78 134.931 60.3 134.931 59.66C134.931 59.06 135.431 58.54 136.111 58.54C136.751 58.54 137.251 59.06 137.251 59.66Z" fill="white"/>
</svg>
