<svg width="171" height="76" viewBox="0 0 171 76" fill="none" xmlns="http://www.w3.org/2000/svg">
<rect x="0.5" y="0.5" width="170" height="75" fill="#FF961E"/>
<rect x="0.5" y="0.5" width="170" height="75" stroke="black"/>
<path d="M29.14 31.64H27.82V21.38H25.06V30.8H23.76V14.16H25.06V20.22H27.82V13.86H29.14V31.64ZM21.62 26.92H14.8V15.16H21.62V26.92ZM20.28 25.84V16.24H16.1V25.84H20.28ZM47.1784 18.06C47.1784 20.36 44.6984 22.16 40.5584 22.16C36.4384 22.16 33.9584 20.36 33.9584 18.06C33.9584 15.78 36.4384 13.98 40.5584 13.98C44.6984 13.98 47.1784 15.78 47.1784 18.06ZM45.8384 18.06C45.8384 16.2 43.5784 15.06 40.5584 15.06C37.5784 15.06 35.2984 16.2 35.2984 18.06C35.2984 19.94 37.5784 21.08 40.5584 21.08C43.5784 21.08 45.8384 19.94 45.8384 18.06ZM49.3384 25.1H41.2984V31.64H39.9184V25.1H31.8784V24.02H49.3384V25.1ZM51.4969 31.94H50.3169L57.3969 13.16H58.5769L51.4969 31.94ZM74.4709 31.64H73.1509V13.86H74.4709V20.3H77.4709V21.44H74.4709V31.64ZM60.3909 21.1C60.3909 16.84 62.3309 14.34 64.9309 14.34C67.5309 14.34 69.4909 16.84 69.4909 21.1C69.4909 25.38 67.5309 27.88 64.9309 27.88C62.3309 27.88 60.3909 25.38 60.3909 21.1ZM68.1509 21.1C68.1509 17.44 66.7909 15.42 64.9309 15.42C63.0709 15.42 61.7309 17.44 61.7309 21.1C61.7309 24.78 63.0709 26.8 64.9309 26.8C66.7909 26.8 68.1509 24.78 68.1509 21.1ZM94.5494 21.08L93.7894 22.06C90.7694 21.46 87.9294 19.84 86.8094 17.72C85.7094 19.84 82.8694 21.46 79.8294 22.06L79.0494 21.08C82.5094 20.56 86.0094 18.34 86.0894 15.64H80.2894V14.56H93.3094V15.64H87.5294C87.6094 18.34 91.1494 20.56 94.5494 21.08ZM95.5494 25.1H87.5094V31.64H86.1294V25.1H78.0894V24.02H95.5494V25.1ZM23.04 58.8L23.24 59.8C22.22 60.12 20.98 60.24 19.8 60.24C15.98 60.24 14.16 57.68 14.14 54.34C14.1 51.24 15.98 48.6 19.2 48.62C22.5 48.62 23.98 50.76 23.98 53.94V54.66H15.42C15.5 57.16 16.92 59.26 19.84 59.24C20.86 59.24 22.02 59.12 23.04 58.8ZM15.38 53.68H22.72C22.72 53.64 22.76 53.46 22.72 53.42C22.7 51.04 21.38 49.62 19.2 49.62C16.72 49.62 15.54 51.6 15.38 53.68ZM28.5397 59.66C28.5397 60.3 28.0397 60.78 27.3997 60.78C26.7197 60.78 26.2197 60.3 26.2197 59.66C26.2197 59.06 26.7197 58.54 27.3997 58.54C28.0397 58.54 28.5397 59.06 28.5397 59.66ZM40.028 59.42V57.92H39.908C39.128 59.14 37.688 59.86 36.128 59.86C33.068 59.88 31.328 57.5 31.328 54.24C31.328 51 33.108 48.62 36.208 48.64C37.788 48.64 39.088 49.3 39.888 50.48H39.988V48.9H41.268V59.6C41.268 62.68 39.148 64.24 36.108 64.24C35.048 64.24 33.668 64.08 32.648 63.74L32.928 62.72C33.928 63.1 35.048 63.24 36.108 63.24C38.728 63.24 40.028 61.82 40.028 59.42ZM39.968 55.22V53.12C39.968 51.16 38.228 49.64 36.348 49.64C33.968 49.64 32.588 51.6 32.588 54.24C32.588 56.88 33.848 58.86 36.268 58.86C38.208 58.86 39.968 57.32 39.968 55.22ZM46.9186 59.66C46.9186 60.3 46.4186 60.78 45.7786 60.78C45.0986 60.78 44.5986 60.3 44.5986 59.66C44.5986 59.06 45.0986 58.54 45.7786 58.54C46.4186 58.54 46.9186 59.06 46.9186 59.66ZM70.1919 61.44H58.1119V57.16H68.4519V55.06H58.1119V54.02H69.7719V58.16H59.4519V60.38H70.1919V61.44ZM66.6319 51.32L65.9319 52.32C63.7719 51.78 61.6919 50.34 60.8119 48.58C60.0319 50.42 57.8719 52.04 55.5119 52.92L54.7319 52C57.4519 51.08 60.0719 48.86 60.0719 46.14V45.82H55.7319V44.78H65.7119V45.82H61.4919V46.14C61.4919 48.86 64.0119 50.7 66.6319 51.32ZM69.8119 53.08H68.4919V43.86H69.8119V47.4H72.4319V48.5H69.8119V53.08ZM90.5303 59.18H73.0503V58.1H81.2103V53.4H75.5103V44.98H88.2903V46.06H76.8503V52.32H88.4903V53.4H82.5703V58.1H90.5303V59.18ZM114.494 60.82L113.654 61.74C112.114 60.94 110.534 59.4 109.974 57.94C109.474 59.34 108.014 60.9 106.614 61.66C105.214 60.9 103.774 59.34 103.234 57.94C102.714 59.4 101.134 60.94 99.5938 61.74L98.7138 60.82C100.594 59.94 102.574 57.92 102.574 55.76V54.78H103.894V55.76C103.894 57.6 105.394 59.48 106.614 60.26C107.854 59.48 109.334 57.6 109.334 55.76V54.78H110.654V55.76C110.654 57.92 112.654 59.94 114.494 60.82ZM98.2338 54.1L97.4938 53.14C100.294 52.46 102.574 51.1 104.034 49.4C102.914 49.5 101.674 49.54 100.534 49.54H98.3538V48.48H100.454C101.894 48.48 103.554 48.44 104.894 48.26C105.374 47.5 105.674 46.7 105.814 45.86H98.7738V44.78H107.334C106.914 49.7 102.774 52.9 98.2338 54.1ZM112.574 54H111.254V49.62H107.314V48.5H111.254V43.86H112.574V54ZM132.932 54.9H124.892V61.64H123.512V54.9H115.472V53.82H132.932V54.9ZM131.972 50.88L131.232 51.86C128.192 51.16 125.332 49.48 124.192 47.34C123.072 49.48 120.212 51.16 117.172 51.86L116.412 50.88C119.812 50.2 123.492 48 123.492 45.18V44.32H124.912V45.18C124.912 48 128.592 50.2 131.972 50.88ZM148.651 61.64H147.331V43.86H148.651V50.2H151.651V51.34H148.651V61.64ZM146.471 55.16V56.24C144.231 56.7 140.731 56.92 138.051 56.92H135.291V45.04H143.871V46.12H136.611V55.82H138.051C140.731 55.82 144.071 55.6 146.471 55.16ZM155.649 59.66C155.649 60.3 155.149 60.78 154.509 60.78C153.829 60.78 153.329 60.3 153.329 59.66C153.329 59.06 153.829 58.54 154.509 58.54C155.149 58.54 155.649 59.06 155.649 59.66Z" fill="white"/>
</svg>
