<svg width="404" height="76" viewBox="0 0 404 76" fill="none" xmlns="http://www.w3.org/2000/svg">
<rect x="0.5" y="0.5" width="403" height="75" fill="#FF961E"/>
<rect x="0.5" y="0.5" width="403" height="75" stroke="black"/>
<path d="M23.06 31.94C19.04 31.94 16.58 30.44 16.58 28.4C16.58 26.38 19.04 24.88 23.06 24.88C27.08 24.88 29.54 26.38 29.54 28.4C29.54 30.44 27.08 31.94 23.06 31.94ZM23.06 25.96C20.1 25.96 17.94 26.86 17.94 28.4C17.94 29.96 20.1 30.86 23.06 30.86C26 30.86 28.18 29.96 28.18 28.4C28.18 26.86 26 25.96 23.06 25.96ZM25.46 22.1L24.68 23.1C22.44 22.28 20.42 20.62 19.6 18.84C18.88 20.8 16.86 22.62 14.36 23.68L13.54 22.78C16.46 21.66 18.86 19.16 18.86 16.12V14.32H20.28V16.12C20.28 19.02 22.74 21.2 25.46 22.1ZM29.2 24.74H27.86V18.36H23.4V17.24H27.86V13.86H29.2V24.74ZM47.3784 23.04H46.0584V20.44H41.7784V22.16H33.2784V14.48H34.5984V17.2H40.4384V14.48H41.7784V16.28H46.0584V13.86H47.3784V23.04ZM47.7784 31.44H35.4784V27.14H46.0384V25.04H35.4784V24H47.3584V28.16H36.8184V30.38H47.7784V31.44ZM40.4384 21.12V18.22H34.5984V21.12H40.4384ZM46.0584 19.4V17.34H41.7784V19.4H46.0584ZM65.2769 31.64H63.9369V13.86H65.2769V21.08H68.1169V22.22H65.2769V31.64ZM63.1769 26.12V27.16C61.3169 27.56 59.0569 27.68 56.4169 27.68H50.4369V26.6H54.6369V20.32H55.9769V26.6H56.4969C58.9569 26.6 61.3169 26.46 63.1769 26.12ZM60.3569 23.98H59.0369C59.4569 21.96 59.8969 18.5 59.8569 16.04H51.4769V14.96H61.2569C61.2369 17.72 60.8769 21.54 60.3569 23.98ZM89.3403 27.48H88.0203V13.86H89.3403V19.44H92.1403V20.56H89.3403V27.48ZM87.2803 22.74V23.78C85.4403 24.1 83.0003 24.24 80.3603 24.24H74.4603V23.16H78.9403V18.76H80.3003V23.16H80.4403C82.9003 23.16 85.4003 23.02 87.2803 22.74ZM89.8003 31.36H77.4603V26.02H78.8403V30.26H89.8003V31.36ZM84.4003 21.18H83.0403C83.4603 19.58 83.7203 17.46 83.7803 15.74H75.7403V14.68H85.1803C85.1203 17.1 84.8203 19.46 84.4003 21.18ZM108.559 31.64H107.239V13.86H108.559V31.64ZM93.9388 27.82L92.9188 26.96C97.0588 24.64 99.1988 20.2 99.4388 16.24H93.9188V15.16H100.879C100.779 20.66 98.1388 25.26 93.9388 27.82ZM104.899 30.8H103.599V23.98H100.499V22.88H103.599V19.2H101.119V18.08H103.599V14.16H104.899V30.8ZM126.817 23.34H125.477V18.96H121.577C121.297 21.08 119.437 22.72 116.797 22.72C113.917 22.72 111.977 20.8 111.977 18.44C111.977 16.08 113.917 14.18 116.797 14.18C119.397 14.18 121.257 15.78 121.577 17.84H125.477V13.86H126.817V23.34ZM128.757 30.78L127.857 31.64C126.477 30.86 125.257 29.4 124.777 28C124.277 29.52 123.157 30.82 121.717 31.66L120.837 30.82V31.44H114.277V24.2H115.597V26.6H119.517V24.2H120.837V30.78C122.577 29.84 124.097 28 124.097 25.58V24.2H125.477V25.58C125.477 27.92 127.057 29.86 128.757 30.78ZM120.257 18.44C120.257 16.68 118.977 15.26 116.797 15.26C114.597 15.26 113.337 16.68 113.337 18.44C113.337 20.22 114.597 21.64 116.797 21.64C118.977 21.64 120.257 20.22 120.257 18.44ZM119.517 30.4V27.62H115.597V30.4H119.517ZM145.256 31.64H143.916V13.86H145.256V31.64ZM130.616 21.1C130.616 16.84 132.576 14.34 135.176 14.34C137.796 14.34 139.736 16.84 139.736 21.1C139.736 25.38 137.796 27.88 135.176 27.88C132.576 27.88 130.616 25.38 130.616 21.1ZM138.396 21.1C138.396 17.44 137.056 15.42 135.176 15.42C133.316 15.42 131.956 17.44 131.956 21.1C131.956 24.78 133.316 26.8 135.176 26.8C137.056 26.8 138.396 24.78 138.396 21.1ZM169.279 31.64H167.939V13.86H169.279V31.64ZM154.639 21.1C154.639 16.84 156.599 14.34 159.199 14.34C161.819 14.34 163.759 16.84 163.759 21.1C163.759 25.38 161.819 27.88 159.199 27.88C156.599 27.88 154.639 25.38 154.639 21.1ZM162.419 21.1C162.419 17.44 161.079 15.42 159.199 15.42C157.339 15.42 155.979 17.44 155.979 21.1C155.979 24.78 157.339 26.8 159.199 26.8C161.079 26.8 162.419 24.78 162.419 21.1ZM188.418 30.66L187.738 31.66C184.778 31.32 181.658 29.92 180.638 27.96C179.618 29.92 176.478 31.32 173.558 31.66C173.318 31.34 173.078 31 172.838 30.66C176.138 30.32 179.898 28.64 179.898 26.18V25.86H181.378V26.18C181.378 28.64 185.138 30.32 188.418 30.66ZM187.198 17.16C187.198 19.12 184.678 20.56 180.618 20.56C176.558 20.56 174.098 19.12 174.098 17.16C174.098 15.2 176.558 13.76 180.618 13.76C184.678 13.76 187.198 15.2 187.198 17.16ZM185.858 17.16C185.858 15.66 183.598 14.82 180.618 14.82C177.658 14.82 175.418 15.66 175.418 17.16C175.418 18.68 177.658 19.52 180.618 19.52C183.598 19.52 185.858 18.68 185.858 17.16ZM189.378 23.12H181.358V25.26H179.918V23.12H171.938V22.04H189.378V23.12ZM205.776 31.64H204.456V13.86H205.776V31.64ZM203.736 25.92V26.96C201.876 27.36 199.616 27.48 196.956 27.48H190.736V26.4H197.036C199.496 26.4 201.876 26.24 203.736 25.92ZM196.856 23.3C194.016 23.3 191.936 21.3 191.936 18.92C191.936 16.54 194.016 14.56 196.856 14.56C199.736 14.56 201.816 16.54 201.816 18.92C201.816 21.3 199.736 23.3 196.856 23.3ZM196.856 15.64C194.616 15.64 193.276 17.12 193.276 18.92C193.276 20.72 194.616 22.22 196.856 22.22C199.096 22.22 200.476 20.72 200.476 18.92C200.476 17.12 199.096 15.64 196.856 15.64ZM230.839 30.66L230.159 31.66C227.199 31.32 224.079 29.92 223.059 27.96C222.039 29.92 218.899 31.32 215.979 31.66C215.739 31.34 215.499 31 215.259 30.66C218.559 30.32 222.319 28.64 222.319 26.18V25.86H223.799V26.18C223.799 28.64 227.559 30.32 230.839 30.66ZM229.619 17.16C229.619 19.12 227.099 20.56 223.039 20.56C218.979 20.56 216.519 19.12 216.519 17.16C216.519 15.2 218.979 13.76 223.039 13.76C227.099 13.76 229.619 15.2 229.619 17.16ZM228.279 17.16C228.279 15.66 226.019 14.82 223.039 14.82C220.079 14.82 217.839 15.66 217.839 17.16C217.839 18.68 220.079 19.52 223.039 19.52C226.019 19.52 228.279 18.68 228.279 17.16ZM231.799 23.12H223.779V25.26H222.339V23.12H214.359V22.04H231.799V23.12ZM248.498 31.64H247.158V21.4H242.958C242.858 25.5 240.938 27.88 238.398 27.88C235.798 27.88 233.858 25.38 233.858 21.1C233.858 16.84 235.798 14.34 238.398 14.34C240.818 14.34 242.718 16.54 242.938 20.3H247.158V13.86H248.498V31.64ZM238.398 26.8C240.258 26.8 241.618 24.78 241.618 21.1C241.618 17.44 240.258 15.42 238.398 15.42C236.538 15.42 235.198 17.44 235.198 21.1C235.198 24.78 236.538 26.8 238.398 26.8ZM266.376 21.86H253.596V17.54H264.616V15.34H253.596V14.3H265.936V18.54H254.936V20.78H266.376V21.86ZM268.596 25.1H251.156V24.06H268.596V25.1ZM266.916 31.36H253.616V26.52H254.956V30.26H266.916V31.36ZM284.815 16.94C284.815 18.78 282.315 20.14 278.255 20.14C274.195 20.14 271.715 18.78 271.715 16.94C271.715 15.1 274.195 13.74 278.255 13.74C282.315 13.74 284.815 15.1 284.815 16.94ZM283.475 16.96C283.475 15.56 281.235 14.78 278.255 14.78C275.295 14.78 273.035 15.56 273.035 16.96C273.035 18.34 275.295 19.12 278.255 19.12C281.235 19.12 283.475 18.34 283.475 16.96ZM284.955 31.44H271.975V27.34H283.175V25.46H271.975V24.4H284.515V28.36H273.315V30.38H284.955V31.44ZM286.995 22.54H269.555V21.48H286.995V22.54ZM308.538 22.2H296.018V14.24H297.358V16.86H307.198V14.24H308.538V22.2ZM307.198 21.12V17.92H297.358V21.12H307.198ZM311.038 25.52H302.978V31.64H301.598V25.52H293.558V24.44H311.038V25.52ZM327.297 24.56H314.417V19.16H325.397V15.92H314.417V14.84H326.717V20.22H315.757V23.46H327.297V24.56ZM329.437 29.08H311.957V28H329.437V29.08ZM347.815 24.04H330.375V22.96H347.815V24.04ZM345.795 20.26H332.815V13.92H334.155V19.18H345.795V20.26ZM346.135 31.36H332.835V25.8H334.175V30.26H346.135V31.36ZM371.858 29.3H354.378V28.22H362.418V25.52C359.298 25.38 357.338 24.16 357.338 22.52C357.338 20.78 359.598 19.52 363.098 19.52C366.638 19.52 368.878 20.78 368.878 22.52C368.878 24.16 366.898 25.38 363.798 25.52V28.22H371.858V29.3ZM367.538 22.52C367.538 21.26 365.558 20.58 363.098 20.58C360.678 20.58 358.678 21.26 358.678 22.52C358.678 23.78 360.678 24.48 363.098 24.48C365.558 24.48 367.538 23.78 367.538 22.52ZM370.238 18.36H355.978V17.28H370.238V18.36ZM366.798 15.54H359.418V14.46H366.798V15.54ZM388.837 28.58C388.837 30.52 386.377 31.94 382.357 31.94C378.337 31.94 375.877 30.52 375.877 28.58C375.877 26.64 378.337 25.22 382.357 25.22C386.377 25.22 388.837 26.64 388.837 28.58ZM387.477 28.58C387.477 27.12 385.297 26.26 382.357 26.26C379.397 26.26 377.237 27.12 377.237 28.58C377.237 30.06 379.397 30.9 382.357 30.9C385.297 30.9 387.477 30.06 387.477 28.58ZM384.957 22.82L384.217 23.78C382.077 23.16 379.977 21.62 379.157 19.92C378.497 21.7 376.337 23.5 373.877 24.44L373.077 23.5C375.957 22.6 378.417 20.06 378.417 17.88V17.72H374.097V16.64H384.057V17.72H379.837V17.88C379.837 20.04 382.357 22.16 384.957 22.82ZM388.497 25.1H387.157V13.86H388.497V25.1ZM381.877 15H376.277V13.94H381.877V15ZM23.04 58.8L23.24 59.8C22.22 60.12 20.98 60.24 19.8 60.24C15.98 60.24 14.16 57.68 14.14 54.34C14.1 51.24 15.98 48.6 19.2 48.62C22.5 48.62 23.98 50.76 23.98 53.94V54.66H15.42C15.5 57.16 16.92 59.26 19.84 59.24C20.86 59.24 22.02 59.12 23.04 58.8ZM15.38 53.68H22.72C22.72 53.64 22.76 53.46 22.72 53.42C22.7 51.04 21.38 49.62 19.2 49.62C16.72 49.62 15.54 51.6 15.38 53.68ZM28.5397 59.66C28.5397 60.3 28.0397 60.78 27.3997 60.78C26.7197 60.78 26.2197 60.3 26.2197 59.66C26.2197 59.06 26.7197 58.54 27.3997 58.54C28.0397 58.54 28.5397 59.06 28.5397 59.66ZM40.028 59.42V57.92H39.908C39.128 59.14 37.688 59.86 36.128 59.86C33.068 59.88 31.328 57.5 31.328 54.24C31.328 51 33.108 48.62 36.208 48.64C37.788 48.64 39.088 49.3 39.888 50.48H39.988V48.9H41.268V59.6C41.268 62.68 39.148 64.24 36.108 64.24C35.048 64.24 33.668 64.08 32.648 63.74L32.928 62.72C33.928 63.1 35.048 63.24 36.108 63.24C38.728 63.24 40.028 61.82 40.028 59.42ZM39.968 55.22V53.12C39.968 51.16 38.228 49.64 36.348 49.64C33.968 49.64 32.588 51.6 32.588 54.24C32.588 56.88 33.848 58.86 36.268 58.86C38.208 58.86 39.968 57.32 39.968 55.22ZM46.9186 59.66C46.9186 60.3 46.4186 60.78 45.7786 60.78C45.0986 60.78 44.5986 60.3 44.5986 59.66C44.5986 59.06 45.0986 58.54 45.7786 58.54C46.4186 58.54 46.9186 59.06 46.9186 59.66ZM69.7719 61.44H58.1119V54.92H69.7719V61.44ZM68.4519 60.36V55.98H59.4519V60.36H68.4519ZM69.8119 53.96H68.4919V43.86H69.8119V47.96H72.4319V49.06H69.8119V53.96ZM66.4119 51.92L65.6319 52.92C63.3919 52.12 61.3919 50.46 60.5719 48.68C59.8519 50.64 57.8119 52.46 55.3319 53.52L54.4919 52.6C57.4119 51.48 59.8319 49 59.8319 45.96V44.32H61.2319V45.96C61.2319 48.86 63.6919 51.02 66.4119 51.92ZM89.3903 51.34L88.6703 52.3C85.8103 51.9 83.0503 50.66 81.7903 48.88C80.5703 50.62 77.7503 51.94 74.9303 52.3L74.2103 51.34C77.2103 51.02 80.5503 49.48 81.0303 47.68H75.2903V46.64H88.2703V47.68H82.5703C83.0503 49.5 86.4103 50.98 89.3903 51.34ZM90.5103 54.76H82.6703V58.4H81.3103V54.76H73.0703V53.7H90.5103V54.76ZM88.8303 61.36H75.5303V56.42H76.8703V60.26H88.8303V61.36ZM85.3503 44.86H78.3303V43.82H85.3503V44.86ZM112.834 61.64H111.494V51.4H107.294C107.194 55.5 105.274 57.88 102.734 57.88C100.134 57.88 98.1938 55.38 98.1938 51.1C98.1938 46.84 100.134 44.34 102.734 44.34C105.154 44.34 107.054 46.54 107.274 50.3H111.494V43.86H112.834V61.64ZM102.734 56.8C104.594 56.8 105.954 54.78 105.954 51.1C105.954 47.44 104.594 45.42 102.734 45.42C100.874 45.42 99.5337 47.44 99.5337 51.1C99.5337 54.78 100.874 56.8 102.734 56.8ZM130.812 61.64H129.472V43.86H130.812V61.64ZM128.532 55.16V56.24C126.292 56.7 122.792 56.92 120.092 56.92H117.132V45.04H125.972V46.12H118.472V55.82H120.092C122.792 55.82 126.132 55.6 128.532 55.16ZM154.516 61.44H142.856V54.86H154.516V61.44ZM153.176 60.36V55.94H144.176V60.36H153.176ZM140.536 54.02L139.796 53.06C144.196 51.94 147.496 49.08 148.076 45.86H140.856V44.78H149.596C149.176 49.7 145.036 52.68 140.536 54.02ZM154.556 53.9H153.236V43.86H154.556V48.14H157.276V49.26H154.556V53.9ZM175.354 54.9H167.314V61.64H165.934V54.9H157.894V53.82H175.354V54.9ZM174.394 50.88L173.654 51.86C170.614 51.16 167.754 49.48 166.614 47.34C165.494 49.48 162.634 51.16 159.594 51.86L158.834 50.88C162.234 50.2 165.914 48 165.914 45.18V44.32H167.334V45.18C167.334 48 171.014 50.2 174.394 50.88ZM191.293 61.64H189.953V43.86H191.293V51.08H194.133V52.22H191.293V61.64ZM189.193 56.12V57.16C187.333 57.56 185.073 57.68 182.433 57.68H176.453V56.6H180.653V50.32H181.993V56.6H182.513C184.973 56.6 187.333 56.46 189.193 56.12ZM186.372 53.98H185.053C185.473 51.96 185.912 48.5 185.873 46.04H177.493V44.96H187.273C187.253 47.72 186.893 51.54 186.372 53.98ZM198.071 59.66C198.071 60.3 197.571 60.78 196.931 60.78C196.251 60.78 195.751 60.3 195.751 59.66C195.751 59.06 196.251 58.54 196.931 58.54C197.571 58.54 198.071 59.06 198.071 59.66Z" fill="white"/>
</svg>
