<svg width="1920" height="1080" viewBox="0 0 1920 1080" fill="none" xmlns="http://www.w3.org/2000/svg">
<g clip-path="url(#clip0_355_163)">
<rect width="1920" height="1080" fill="#90C85F"/>
<path d="M179.24 356.8H160.88V344.48H179.24V356.8ZM187.88 378.28H185.24V370.36H176V368.2H185.24V342.72H187.88V378.28ZM176.56 354.64V346.64H163.56V354.64H176.56ZM170.88 377.48H168.24V363.8H157.8V361.64H170.88C175.36 361.64 180.32 361.2 183.72 360.6V362.72C180.48 363.4 175.92 363.76 170.88 363.8V377.48ZM225.277 378.28H222.597V364.08H213.157C211.637 368.4 208.637 370.76 205.077 370.76C199.877 370.76 195.997 365.76 195.997 357.2C195.997 348.68 199.877 343.68 205.077 343.68C208.597 343.68 211.517 345.96 213.037 350.08H222.597V342.72H225.277V378.28ZM205.077 368.6C208.797 368.6 211.517 364.56 211.517 357.2C211.517 349.88 208.797 345.84 205.077 345.84C201.357 345.84 198.677 349.88 198.677 357.2C198.677 364.56 201.357 368.6 205.077 368.6ZM222.597 361.92V352.24H213.637C213.997 353.72 214.197 355.4 214.197 357.2C214.197 358.92 214.037 360.52 213.757 361.92H222.597Z" fill="white"/>
<path d="M1537.44 122.64L1535.4 120.92C1543.68 116.28 1547.96 107.4 1548.44 99.48H1537.4V97.32H1551.32C1551.12 108.32 1545.84 117.52 1537.44 122.64ZM1566.68 130.28H1564.04V110.68H1558.24V128.6H1555.6V95.32H1558.24V108.32H1564.04V94.72H1566.68V130.28ZM1600.61 97.92H1589.53V95.76H1600.61V97.92ZM1606.09 103.84H1584.13V101.68H1606.09V103.84ZM1604.29 115.32C1604.29 120 1600.61 123.76 1595.21 123.76C1589.81 123.76 1586.13 120 1586.13 115.32C1586.13 110.64 1589.81 106.84 1595.21 106.84C1600.61 106.84 1604.29 110.6 1604.29 115.32ZM1601.65 115.32C1601.65 111.56 1599.13 108.96 1595.25 108.96C1591.33 108.96 1588.81 111.52 1588.81 115.32C1588.81 119.08 1591.33 121.64 1595.25 121.64C1599.13 121.64 1601.65 119.08 1601.65 115.32ZM1614.53 130.28H1611.85V119.68H1605.73V117.44H1611.85V109.6H1605.73V107.4H1611.85V94.72H1614.53V130.28ZM1628.92 120.2H1626.6V118.48C1626.6 114.84 1627.48 112.68 1631.04 109.76C1633.32 107.88 1634.88 105.44 1634.88 103.16C1634.88 99.4 1631.76 97.8 1628.44 97.8C1626.48 97.8 1623.52 98.6 1621.44 99.84L1620.48 98.04C1622.64 96.76 1625.92 95.76 1628.64 95.76C1633.16 95.76 1637.44 97.88 1637.44 103.08C1637.44 106 1635.92 108.48 1633.2 110.76C1629.72 113.76 1628.92 115.2 1628.92 118.64V120.2ZM1630.04 126.68C1630.04 127.92 1629.04 128.88 1627.8 128.88C1626.44 128.88 1625.48 127.92 1625.48 126.68C1625.48 125.52 1626.44 124.48 1627.8 124.48C1629.04 124.48 1630.04 125.52 1630.04 126.68Z" fill="white"/>
<path d="M1394 547.32H1375.84V545.24H1394V547.32ZM1389.68 542.52H1380.16V540.44H1389.68V542.52ZM1407.12 562.28H1404.44V552.76H1399.24V562.28H1396.64V540.32H1399.24V550.48H1404.44V539.72H1407.12V562.28ZM1407.04 575.48H1404.32V566.44H1381.84V564.24H1407.04V575.48ZM1384.96 561.32C1380.32 561.32 1377.2 558.64 1377.2 555.32C1377.2 552 1380.32 549.32 1384.96 549.32C1389.68 549.32 1392.8 552 1392.8 555.32C1392.8 558.64 1389.68 561.32 1384.96 561.32ZM1384.96 551.32C1381.72 551.32 1379.8 553.08 1379.8 555.32C1379.8 557.52 1381.72 559.28 1384.96 559.28C1388.28 559.28 1390.16 557.52 1390.16 555.32C1390.16 553.08 1388.28 551.32 1384.96 551.32ZM1446.72 570.36H1411.76V568.2H1420.36V554.72H1423.04V568.2H1430.04V554.72H1432.76V568.2H1446.72V570.36ZM1439.56 562.88H1436.8C1438.28 557.04 1439.2 550.04 1439.36 544.52H1416.04V542.36H1442.2C1442 549.44 1440.92 556.92 1439.56 562.88Z" fill="white"/>
<path d="M1433.82 300.94H1381.5V297.7H1395.12V289.36C1390.5 287.44 1387.98 284.44 1387.98 280.84C1387.98 274.72 1395.42 270.28 1407.6 270.28C1419.78 270.28 1427.28 274.72 1427.28 280.84C1427.28 284.44 1424.7 287.44 1420.14 289.36V297.7H1433.82V300.94ZM1423.26 280.9C1423.26 276.04 1416.54 273.46 1407.6 273.46C1398.72 273.46 1391.94 276.04 1391.94 280.9C1391.94 285.7 1398.72 288.28 1407.6 288.28C1416.54 288.28 1423.26 285.7 1423.26 280.9ZM1426.26 324.22H1422.24V309.94H1387.98V306.7H1426.26V324.22ZM1416.18 297.7V290.62C1413.66 291.16 1410.78 291.46 1407.6 291.46C1404.42 291.46 1401.54 291.16 1399.14 290.62V297.7H1416.18ZM1475.58 297.58V300.7C1470.06 301.72 1462.74 302.08 1454.82 302.08H1437.12V298.9H1453.62V292.48H1442.04V272.02H1446V278.68H1465.02V272.02H1469.04V292.48H1457.52V298.9C1464.06 298.84 1470.54 298.42 1475.58 297.58ZM1487.64 321.46L1485.18 324.22C1480.44 322 1476.12 317.92 1474.2 313.78C1472.64 317.56 1468.5 321.64 1464.42 323.92C1460.28 321.64 1456.14 317.56 1454.52 313.78C1452.6 317.92 1448.34 322 1443.6 324.22L1441.08 321.46C1446.72 319.06 1452.48 313.48 1452.48 307.6V306.4H1456.5V307.78C1456.5 312.58 1460.82 317.56 1464.42 319.72C1467.96 317.56 1472.28 312.58 1472.28 307.78V306.4H1476.24V307.6C1476.24 313.48 1482.06 319.06 1487.64 321.46ZM1481.76 304.12H1477.8V270.58H1481.76V284.5H1490.16V287.8H1481.76V304.12ZM1465.02 289.24V281.8H1446V289.24H1465.02ZM1529.45 323.92H1525.49V303.88H1510.61V323.44H1506.53V303.88H1491.83V300.64H1544.21V303.88H1529.45V323.92ZM1541.33 291.64L1539.11 294.58C1529.93 292.48 1521.35 287.68 1517.99 281.02C1514.69 287.68 1506.05 292.48 1496.93 294.58L1494.65 291.64C1504.85 289.6 1515.89 283 1515.89 274.54V271.96H1520.15V274.54C1520.15 283 1531.13 289.6 1541.33 291.64Z" fill="white"/>
<path d="M1309.94 405.64H1308.62V387.86H1309.94V405.64ZM1307.9 400.12V401.16C1306.04 401.56 1303.78 401.68 1301.12 401.68H1294.9V400.6H1299.1V394.32H1300.46V400.6H1301.2C1303.66 400.6 1306.04 400.46 1307.9 400.12ZM1304.76 397.98H1303.46C1303.88 395.96 1304.3 392.5 1304.28 390.04H1295.9V388.96H1305.68C1305.66 391.72 1305.3 395.54 1304.76 397.98ZM1328.22 405.64H1326.88V387.86H1328.22V405.64ZM1314.36 401.84L1313.48 400.94C1318.2 398.64 1320.86 394.64 1321.38 390.12H1314.58V389.04H1322.82C1322.56 395.06 1319.06 399.46 1314.36 401.84Z" fill="white"/>
<path d="M1545.02 362.84C1545.02 365.4 1543.04 367.44 1540.18 367.44C1537.28 367.44 1535.32 365.4 1535.32 362.84C1535.32 360.24 1537.28 358.18 1540.18 358.18C1543.04 358.18 1545.02 360.24 1545.02 362.84ZM1540.18 366.36C1542.38 366.36 1543.68 364.8 1543.68 362.82C1543.68 360.82 1542.38 359.26 1540.18 359.26C1537.96 359.26 1536.68 360.82 1536.68 362.82C1536.68 364.8 1537.96 366.36 1540.18 366.36ZM1550.2 371.06H1548.86V357.86H1550.2V371.06ZM1550.86 375.36H1538.3V369.44H1539.64V374.28H1550.86V375.36ZM1553.92 368.84L1553.16 367.86C1557.7 366.5 1560.86 363.28 1561.44 359.86H1554.24V358.78H1562.98C1562.56 363.82 1558.6 367.24 1553.92 368.84ZM1568.68 375.36H1556.3V369.44H1557.64V374.28H1568.68V375.36ZM1567.94 371.04H1566.62V357.86H1567.94V362.94H1570.66V364.06H1567.94V371.04ZM1583.56 370.82L1582.76 371.78C1580.32 370.6 1578.24 368.6 1577.48 366.42C1576.72 368.74 1574.6 370.9 1572.14 372.24L1571.26 371.38C1574.04 369.98 1576.72 367.22 1576.72 363.3V362.7H1572.24V361.62H1582.5V362.7H1578.14V363.3C1578.14 367.12 1580.86 369.6 1583.56 370.82ZM1587.04 375.64H1585.7V357.86H1587.04V375.64ZM1580.26 359.46H1574.48V358.38H1580.26V359.46Z" fill="white"/>
<path d="M1292.18 630.44H1280.3V623.86H1292.18V630.44ZM1290.84 629.36V624.94H1281.64V629.36H1290.84ZM1288.72 621.16L1287.92 622.12C1285.68 621.3 1283.68 619.66 1282.86 617.92C1282.14 619.86 1280.06 621.7 1277.62 622.72L1276.78 621.8C1279.64 620.76 1282.12 618.22 1282.12 615.2V614.84H1277.76V613.78H1287.76V614.84H1283.54V615.2C1283.54 618.1 1286.06 620.3 1288.72 621.16ZM1292.2 622.9H1290.86V612.86H1292.2V622.9ZM1307.16 625.82L1306.36 626.78C1303.92 625.6 1301.84 623.6 1301.08 621.42C1300.32 623.74 1298.2 625.9 1295.74 627.24L1294.86 626.38C1297.64 624.98 1300.32 622.22 1300.32 618.3V617.7H1295.84V616.62H1306.1V617.7H1301.74V618.3C1301.74 622.12 1304.46 624.6 1307.16 625.82ZM1310.64 630.64H1309.3V612.86H1310.64V630.64ZM1303.86 614.46H1298.08V613.38H1303.86V614.46Z" fill="white"/>
<path d="M1337.56 554.64H1336.22V544.54H1333.58V553.8H1332.28V537.16H1333.58V543.36H1336.22V536.86H1337.56V554.64ZM1322.14 544.16C1322.14 539.96 1323.84 537.48 1326.22 537.48C1328.6 537.48 1330.28 539.96 1330.28 544.16C1330.28 548.38 1328.6 550.86 1326.22 550.86C1323.84 550.86 1322.14 548.38 1322.14 544.16ZM1328.98 544.16C1328.98 540.78 1327.88 538.56 1326.22 538.56C1324.56 538.56 1323.44 540.78 1323.44 544.16C1323.44 547.56 1324.56 549.78 1326.22 549.78C1327.88 549.78 1328.98 547.56 1328.98 544.16ZM1355.22 554.64H1353.88V536.86H1355.22V554.64ZM1341.36 550.84L1340.48 549.94C1345.2 547.64 1347.86 543.64 1348.38 539.12H1341.58V538.04H1349.82C1349.56 544.06 1346.06 548.46 1341.36 550.84Z" fill="white"/>
<path d="M1412.88 656.94H1360.44V653.7H1396.68C1399.68 643.2 1401.42 628.98 1401.9 618.78H1366.86V615.54H1406.1C1405.56 628.92 1403.76 643.08 1400.82 653.7H1412.88V656.94ZM1464.12 664.08H1426.44V648H1430.46V660.84H1464.12V664.08ZM1453.74 637.5V640.56C1447.5 641.94 1437.72 642.66 1429.32 642.66H1419.84V626.52H1440.06V616.98H1419.84V613.86H1444.02V629.58H1423.8V639.48H1429.32C1437.42 639.48 1447.14 638.76 1453.74 637.5ZM1462.14 651.6H1458.18V627.96H1447.14V624.72H1458.18V611.58H1462.14V651.6ZM1475.27 653.52L1472.63 650.82C1486.79 643.92 1494.71 631.92 1496.21 618.36H1475.93V615.12H1500.59C1499.81 633.18 1489.37 646.38 1475.27 653.52ZM1516.85 664.92H1512.83V641.82H1500.35V638.58H1512.83V627.78H1501.79V624.54H1512.83V611.58H1516.85V664.92ZM1539.71 649.8H1536.23V647.22C1536.23 641.76 1537.55 638.52 1542.89 634.14C1546.31 631.32 1548.65 627.66 1548.65 624.24C1548.65 618.6 1543.97 616.2 1538.99 616.2C1536.05 616.2 1531.61 617.4 1528.49 619.26L1527.05 616.56C1530.29 614.64 1535.21 613.14 1539.29 613.14C1546.07 613.14 1552.49 616.32 1552.49 624.12C1552.49 628.5 1550.21 632.22 1546.13 635.64C1540.91 640.14 1539.71 642.3 1539.71 647.46V649.8ZM1541.39 659.52C1541.39 661.38 1539.89 662.82 1538.03 662.82C1535.99 662.82 1534.55 661.38 1534.55 659.52C1534.55 657.78 1535.99 656.22 1538.03 656.22C1539.89 656.22 1541.39 657.78 1541.39 659.52Z" fill="white"/>
<path d="M1368.88 486.08H1334V483.96H1350.08V479.88H1338.88V465.6H1364V467.68H1341.56V471.68H1363.84V473.72H1341.56V477.72H1364.44V479.88H1352.84V483.96H1368.88V486.08ZM1364.72 494.76C1364.72 498.32 1359.92 500.88 1351.4 500.88C1342.92 500.88 1338.08 498.32 1338.08 494.76C1338.08 491.24 1342.92 488.64 1351.4 488.64C1359.92 488.64 1364.72 491.24 1364.72 494.76ZM1362.04 494.76C1362.04 492.28 1358.04 490.68 1351.4 490.68C1344.76 490.68 1340.76 492.28 1340.76 494.76C1340.76 497.24 1344.76 498.88 1351.4 498.88C1358.04 498.88 1362.04 497.24 1362.04 494.76Z" fill="white"/>
<path d="M53.96 384.98H36.48V383.9H48.56C49.56 380.4 50.14 375.66 50.3 372.26H38.62V371.18H51.7C51.52 375.64 50.92 380.36 49.94 383.9H53.96V384.98ZM70.2184 387.64H68.8784V377.02H65.4384V375.9H68.8784V369.86H70.2184V387.64ZM67.3784 381.56V382.66C65.1584 383.1 61.6584 383.32 58.9784 383.32H56.3384V376.5H62.8984V372.02H56.3384V370.94H64.2384V377.56H57.6584V382.22H58.9784C61.6584 382.22 65.0184 382.02 67.3784 381.56ZM88.6169 387.64H87.2769V369.86H88.6169V387.64ZM86.3369 381.14V382.22C84.0969 382.68 80.5969 382.88 77.8969 382.88H74.9369V370.7H76.2769V381.78H77.8969C80.5969 381.78 83.9369 381.58 86.3369 381.14ZM98.8353 384.62L97.6553 383.98C100.595 380.64 101.855 376.48 102.055 372.12H98.5153V371.04H103.435C103.335 376.76 101.855 380.98 98.8353 384.62ZM93.1353 383.54L91.9553 382.92C94.9553 379.84 96.2553 375.84 96.4753 372.12H92.8953V371.04H97.8953C97.7553 376.16 96.1553 380.26 93.1353 383.54ZM107.095 387.64H105.815V369.86H107.095V376.8H109.675V377.94H107.095V387.64ZM125.414 387.64H124.074V369.86H125.414V387.64ZM123.134 381.14V382.22C120.894 382.68 117.394 382.88 114.694 382.88H111.734V370.7H113.074V381.78H114.694C117.394 381.78 120.734 381.58 123.134 381.14Z" fill="white"/>
<path d="M1475.2 164.74H1473.86V153.86H1475.2V164.74ZM1475.54 168.42C1475.54 170.44 1473.08 171.94 1469.04 171.94C1465.04 171.94 1462.58 170.44 1462.58 168.42C1462.58 166.38 1465.04 164.88 1469.04 164.88C1473.08 164.88 1475.54 166.38 1475.54 168.42ZM1474.18 168.42C1474.18 166.86 1472 165.96 1469.04 165.96C1466.1 165.96 1463.94 166.86 1463.94 168.42C1463.94 169.96 1466.1 170.86 1469.04 170.86C1472 170.86 1474.18 169.96 1474.18 168.42ZM1469.98 158.62C1469.98 161.08 1468.02 163.04 1465.18 163.04C1462.3 163.04 1460.36 161.08 1460.36 158.62C1460.36 156.16 1462.3 154.18 1465.18 154.18C1468.02 154.18 1469.98 156.16 1469.98 158.62ZM1468.64 158.62C1468.64 156.74 1467.36 155.26 1465.18 155.26C1462.98 155.26 1461.72 156.74 1461.72 158.62C1461.72 160.48 1462.98 161.96 1465.18 161.96C1467.36 161.96 1468.64 160.48 1468.64 158.62Z" fill="white"/>
<path d="M1527.6 211.58L1526.78 212.54C1524.5 211.24 1522.24 208.96 1521.48 206.76C1520.76 209.22 1518.66 211.52 1516.08 213.06L1515.18 212.18C1518.12 210.54 1520.72 207.48 1520.72 203.34V201.12H1516.24V200.04H1526.48V201.12H1522.14V203.34C1522.14 207.4 1525.04 210.26 1527.6 211.58ZM1530.48 216.64H1529.14V198.86H1530.48V205.74H1533.48V206.88H1530.48V216.64ZM1548.86 209.12H1536.34V199.72H1537.68V203.04H1547.52V199.72H1548.86V209.12ZM1547.52 208.04V204.1H1537.68V208.04H1547.52ZM1551.36 214.04H1533.88V212.96H1551.36V214.04ZM1567.62 216.64H1566.28V206.02H1562.84V204.9H1566.28V198.86H1567.62V216.64ZM1564.78 210.56V211.66C1562.56 212.1 1559.06 212.32 1556.38 212.32H1553.74V205.5H1560.3V201.02H1553.74V199.94H1561.64V206.56H1555.06V211.22H1556.38C1559.06 211.22 1562.42 211.02 1564.78 210.56ZM1581.94 203.08C1581.94 205.16 1580 206.96 1577.12 206.96C1574.22 206.96 1572.3 205.16 1572.3 203.08C1572.3 200.98 1574.22 199.18 1577.12 199.18C1580 199.18 1581.94 200.98 1581.94 203.08ZM1580.6 203.08C1580.6 201.6 1579.38 200.26 1577.12 200.26C1574.84 200.26 1573.64 201.6 1573.64 203.08C1573.64 204.56 1574.84 205.88 1577.12 205.88C1579.38 205.88 1580.6 204.56 1580.6 203.08ZM1586.14 216.64H1584.82V212.8H1580.2V211.72H1584.82V198.86H1586.14V216.64ZM1577.64 216.22H1576.32V209.62H1571.1V208.54H1577.64C1579.88 208.54 1582.36 208.34 1584.06 208.02V209.08C1582.44 209.44 1580.16 209.62 1577.64 209.62V216.22Z" fill="white"/>
<path d="M1045.38 436.7V437.74C1043.52 438.14 1041.26 438.26 1038.62 438.26H1032.64V437.18H1038.18V435C1035.94 434.78 1034.54 433.5 1034.54 432.04C1034.54 430.42 1036.22 429.06 1038.84 429.06C1041.44 429.06 1043.1 430.42 1043.1 432.04C1043.1 433.5 1041.74 434.78 1039.52 435V437.18C1041.66 437.16 1043.74 437 1045.38 436.7ZM1047.48 441.64H1046.14V423.86H1047.48V431.28H1050.32V432.42H1047.48V441.64ZM1041.78 432.04C1041.78 430.92 1040.62 430.1 1038.84 430.1C1037.04 430.1 1035.88 430.92 1035.88 432.04C1035.88 433.16 1037.04 433.96 1038.84 433.96C1040.62 433.96 1041.78 433.16 1041.78 432.04ZM1044.12 428.02H1033.52V426.94H1044.12V428.02ZM1041.56 425.32H1036.06V424.24H1041.56V425.32ZM1065.94 433.9H1064.62V423.86H1065.94V427.14H1068.66V428.24H1065.94V433.9ZM1068.22 440.82L1067.36 441.72C1065.82 440.92 1064.24 439.4 1063.7 437.94C1063.18 439.34 1061.74 440.9 1060.32 441.66C1058.92 440.9 1057.46 439.34 1056.96 437.94C1056.42 439.4 1054.82 440.92 1053.28 441.72L1052.44 440.82C1054.3 439.96 1056.28 437.92 1056.28 435.76V434.82H1057.62V435.76C1057.62 437.6 1059.1 439.48 1060.32 440.26C1061.54 439.48 1063.04 437.6 1063.04 435.76V434.82H1064.38V435.76C1064.38 437.92 1066.34 439.96 1068.22 440.82ZM1063.74 430.48V431.56C1061.68 432.02 1058.4 432.26 1055.62 432.26H1052.28V424.38H1053.6V431.16H1055.62C1058.32 431.16 1061.54 430.92 1063.74 430.48ZM1084.56 426.94C1084.56 428.78 1082.06 430.14 1078 430.14C1073.94 430.14 1071.46 428.78 1071.46 426.94C1071.46 425.1 1073.94 423.74 1078 423.74C1082.06 423.74 1084.56 425.1 1084.56 426.94ZM1083.22 426.96C1083.22 425.56 1080.98 424.78 1078 424.78C1075.04 424.78 1072.78 425.56 1072.78 426.96C1072.78 428.34 1075.04 429.12 1078 429.12C1080.98 429.12 1083.22 428.34 1083.22 426.96ZM1084.7 441.44H1071.72V437.34H1082.92V435.46H1071.72V434.4H1084.26V438.36H1073.06V440.38H1084.7V441.44ZM1086.74 432.54H1069.3V431.48H1086.74V432.54ZM1098.62 435.76V436.82C1097.8 436.96 1096.94 437.02 1096.32 437.02H1094.56V425.2H1098.54V426.28H1095.88V435.94H1096.32C1096.86 435.94 1097.76 435.9 1098.62 435.76ZM1103.74 435.66V436.72C1102.86 436.92 1101.74 437.02 1100.96 437.02H1099.18V425.2H1103.16V426.28H1100.46V435.94H1100.94C1101.7 435.94 1102.82 435.86 1103.74 435.66ZM1109.38 441.64H1108.04V431.34H1105.7V440.8H1104.36V424.16H1105.7V430.16H1108.04V423.86H1109.38V441.64ZM1127.18 432.86H1118.26V431.88H1127.18V432.86ZM1145.85 430.9H1136.67V424.74H1145.85V430.9ZM1150.17 441.64H1148.85V437.68H1144.23V436.6H1148.85V423.86H1150.17V441.64ZM1144.51 429.82V425.82H1138.01V429.82H1144.51ZM1141.67 441.24H1140.35V434.4H1135.13V433.32H1141.67C1143.91 433.32 1146.39 433.1 1148.09 432.8V433.86C1146.47 434.2 1144.19 434.38 1141.67 434.4V441.24ZM1168.87 441.64H1167.53V434.54H1162.81C1162.05 436.7 1160.55 437.88 1158.77 437.88C1156.17 437.88 1154.23 435.38 1154.23 431.1C1154.23 426.84 1156.17 424.34 1158.77 424.34C1160.53 424.34 1161.99 425.48 1162.75 427.54H1167.53V423.86H1168.87V441.64ZM1158.77 436.8C1160.63 436.8 1161.99 434.78 1161.99 431.1C1161.99 427.44 1160.63 425.42 1158.77 425.42C1156.91 425.42 1155.56 427.44 1155.56 431.1C1155.56 434.78 1156.91 436.8 1158.77 436.8ZM1167.53 433.46V428.62H1163.05C1163.23 429.36 1163.33 430.2 1163.33 431.1C1163.33 431.96 1163.25 432.76 1163.11 433.46H1167.53ZM1174.74 436.52H1173.74L1173.48 424.34H1175L1174.74 436.52ZM1175.38 439.84C1175.38 440.46 1174.9 440.94 1174.26 440.94C1173.58 440.94 1173.1 440.46 1173.1 439.84C1173.1 439.26 1173.58 438.74 1174.26 438.74C1174.9 438.74 1175.38 439.26 1175.38 439.84ZM1181.19 436.52H1180.19L1179.93 424.34H1181.45L1181.19 436.52ZM1181.83 439.84C1181.83 440.46 1181.35 440.94 1180.71 440.94C1180.03 440.94 1179.55 440.46 1179.55 439.84C1179.55 439.26 1180.03 438.74 1180.71 438.74C1181.35 438.74 1181.83 439.26 1181.83 439.84ZM1187.63 436.52H1186.63L1186.37 424.34H1187.89L1187.63 436.52ZM1188.27 439.84C1188.27 440.46 1187.79 440.94 1187.15 440.94C1186.47 440.94 1185.99 440.46 1185.99 439.84C1185.99 439.26 1186.47 438.74 1187.15 438.74C1187.79 438.74 1188.27 439.26 1188.27 439.84ZM1049.94 462.3H1032.5V461.24H1040.66V458.92H1034.94V453.9H1036.28V457.88H1047.92V458.92H1042.02V461.24H1049.94V462.3ZM1047.9 471.44H1034.92V467.22H1046.12V465.2H1034.92V464.14H1047.46V468.22H1036.26V470.38H1047.9V471.44ZM1065.94 464.3H1064.62V453.86H1065.94V458.06H1068.66V459.16H1065.94V464.3ZM1068.22 470.82L1067.38 471.74C1065.8 470.94 1064.24 469.46 1063.7 467.98C1063.18 469.4 1061.74 470.94 1060.32 471.66C1058.92 470.94 1057.5 469.4 1056.96 467.98C1056.44 469.46 1054.86 470.94 1053.28 471.74L1052.44 470.82C1054.32 469.96 1056.28 467.98 1056.28 465.8V465.2H1057.62V465.8C1057.62 467.64 1059.1 469.5 1060.32 470.26C1061.54 469.5 1063.04 467.64 1063.04 465.8V465.2H1064.38V465.8C1064.38 467.98 1066.32 469.96 1068.22 470.82ZM1063.74 461.58V462.6C1061.7 463.06 1058.4 463.3 1055.62 463.3H1052.16V458.38H1059.3V455.66H1052.16V454.62H1060.64V459.4H1053.5V462.24H1055.62C1058.32 462.24 1061.54 462 1063.74 461.58ZM1084.56 456.94C1084.56 458.78 1082.06 460.14 1078 460.14C1073.94 460.14 1071.46 458.78 1071.46 456.94C1071.46 455.1 1073.94 453.74 1078 453.74C1082.06 453.74 1084.56 455.1 1084.56 456.94ZM1083.22 456.96C1083.22 455.56 1080.98 454.78 1078 454.78C1075.04 454.78 1072.78 455.56 1072.78 456.96C1072.78 458.34 1075.04 459.12 1078 459.12C1080.98 459.12 1083.22 458.34 1083.22 456.96ZM1084.7 471.44H1071.72V467.34H1082.92V465.46H1071.72V464.4H1084.26V468.36H1073.06V470.38H1084.7V471.44ZM1086.74 462.54H1069.3V461.48H1086.74V462.54ZM1098.62 465.76V466.82C1097.8 466.96 1096.94 467.02 1096.32 467.02H1094.56V455.2H1098.54V456.28H1095.88V465.94H1096.32C1096.86 465.94 1097.76 465.9 1098.62 465.76ZM1103.74 465.66V466.72C1102.86 466.92 1101.74 467.02 1100.96 467.02H1099.18V455.2H1103.16V456.28H1100.46V465.94H1100.94C1101.7 465.94 1102.82 465.86 1103.74 465.66ZM1109.38 471.64H1108.04V461.34H1105.7V470.8H1104.36V454.16H1105.7V460.16H1108.04V453.86H1109.38V471.64ZM1127.18 462.86H1118.26V461.88H1127.18V462.86ZM1145.85 460.9H1136.67V454.74H1145.85V460.9ZM1150.17 471.64H1148.85V467.68H1144.23V466.6H1148.85V453.86H1150.17V471.64ZM1144.51 459.82V455.82H1138.01V459.82H1144.51ZM1141.67 471.24H1140.35V464.4H1135.13V463.32H1141.67C1143.91 463.32 1146.39 463.1 1148.09 462.8V463.86C1146.47 464.2 1144.19 464.38 1141.67 464.4V471.24ZM1168.87 471.64H1167.53V464.54H1162.81C1162.05 466.7 1160.55 467.88 1158.77 467.88C1156.17 467.88 1154.23 465.38 1154.23 461.1C1154.23 456.84 1156.17 454.34 1158.77 454.34C1160.53 454.34 1161.99 455.48 1162.75 457.54H1167.53V453.86H1168.87V471.64ZM1158.77 466.8C1160.63 466.8 1161.99 464.78 1161.99 461.1C1161.99 457.44 1160.63 455.42 1158.77 455.42C1156.91 455.42 1155.56 457.44 1155.56 461.1C1155.56 464.78 1156.91 466.8 1158.77 466.8ZM1167.53 463.46V458.62H1163.05C1163.23 459.36 1163.33 460.2 1163.33 461.1C1163.33 461.96 1163.25 462.76 1163.11 463.46H1167.53ZM1176.06 466.6H1174.9V465.74C1174.9 463.92 1175.34 462.84 1177.12 461.38C1178.26 460.44 1179.04 459.22 1179.04 458.08C1179.04 456.2 1177.48 455.4 1175.82 455.4C1174.84 455.4 1173.36 455.8 1172.32 456.42L1171.84 455.52C1172.92 454.88 1174.56 454.38 1175.92 454.38C1178.18 454.38 1180.32 455.44 1180.32 458.04C1180.32 459.5 1179.56 460.74 1178.2 461.88C1176.46 463.38 1176.06 464.1 1176.06 465.82V466.6ZM1176.62 469.84C1176.62 470.46 1176.12 470.94 1175.5 470.94C1174.82 470.94 1174.34 470.46 1174.34 469.84C1174.34 469.26 1174.82 468.74 1175.5 468.74C1176.12 468.74 1176.62 469.26 1176.62 469.84ZM1184.61 466.52H1183.61L1183.35 454.34H1184.87L1184.61 466.52ZM1185.25 469.84C1185.25 470.46 1184.77 470.94 1184.13 470.94C1183.45 470.94 1182.97 470.46 1182.97 469.84C1182.97 469.26 1183.45 468.74 1184.13 468.74C1184.77 468.74 1185.25 469.26 1185.25 469.84ZM1045.26 496.78L1044.36 497.58C1043.06 496.4 1042.14 494.68 1041.72 493.1C1041.3 494.84 1040.08 496.96 1038.94 497.94C1037.78 496.96 1036.58 494.84 1036.16 493.1C1035.76 494.8 1034.76 496.56 1033.3 497.92L1032.28 497.16C1034.1 495.56 1035.48 492.94 1035.48 489.06V486.12H1033.32V485.04H1038.62V486.12H1036.82V489.06C1036.82 492.26 1037.8 494.66 1038.94 496.22C1040.08 494.66 1041.04 492.26 1041.04 489.06V486.12H1039.26V485.04H1044.56V486.12H1042.38V489.06C1042.38 492.76 1043.76 495.34 1045.26 496.78ZM1047.86 501.64H1046.58V483.86H1047.86V490.64H1050.5V491.78H1047.86V501.64ZM1066.26 498.46C1066.26 500.48 1063.86 501.94 1059.6 501.94C1055.36 501.94 1052.94 500.48 1052.94 498.46C1052.94 496.46 1055.36 494.98 1059.6 494.98C1063.86 494.98 1066.26 496.46 1066.26 498.46ZM1064.92 498.46C1064.92 497 1062.92 496.02 1059.6 496.02C1056.28 496.02 1054.28 497 1054.28 498.46C1054.28 499.92 1056.28 500.9 1059.6 500.9C1062.92 500.9 1064.92 499.92 1064.92 498.46ZM1067.24 489.84L1066.52 490.8C1063.54 490.36 1060.76 488.86 1059.62 486.94C1058.5 488.9 1055.74 490.34 1052.78 490.8L1052.04 489.84C1055.22 489.38 1058.52 487.66 1058.9 485.52H1053.14V484.44H1066.1V485.52H1060.38C1060.76 487.68 1064.18 489.42 1067.24 489.84ZM1068.34 493.42H1050.9V492.34H1068.34V493.42ZM1084.72 501.44H1072.64V496.98H1082.96V494.7H1072.64V493.66H1084.3V497.98H1073.96V500.38H1084.72V501.44ZM1084.34 492.72H1083.02V483.86H1084.34V486.92H1087.06V488.04H1084.34V492.72ZM1082.14 489.8V490.82C1080.1 491.3 1076.8 491.54 1074.02 491.54H1070.68V484.34H1072V490.46H1074.02C1076.72 490.46 1079.94 490.24 1082.14 489.8ZM1098.62 495.76V496.82C1097.8 496.96 1096.94 497.02 1096.32 497.02H1094.56V485.2H1098.54V486.28H1095.88V495.94H1096.32C1096.86 495.94 1097.76 495.9 1098.62 495.76ZM1103.74 495.66V496.72C1102.86 496.92 1101.74 497.02 1100.96 497.02H1099.18V485.2H1103.16V486.28H1100.46V495.94H1100.94C1101.7 495.94 1102.82 495.86 1103.74 495.66ZM1109.38 501.64H1108.04V491.34H1105.7V500.8H1104.36V484.16H1105.7V490.16H1108.04V483.86H1109.38V501.64ZM1127.18 492.86H1118.26V491.88H1127.18V492.86ZM1145.85 490.9H1136.67V484.74H1145.85V490.9ZM1150.17 501.64H1148.85V497.68H1144.23V496.6H1148.85V483.86H1150.17V501.64ZM1144.51 489.82V485.82H1138.01V489.82H1144.51ZM1141.67 501.24H1140.35V494.4H1135.13V493.32H1141.67C1143.91 493.32 1146.39 493.1 1148.09 492.8V493.86C1146.47 494.2 1144.19 494.38 1141.67 494.4V501.24ZM1168.87 501.64H1167.53V494.54H1162.81C1162.05 496.7 1160.55 497.88 1158.77 497.88C1156.17 497.88 1154.23 495.38 1154.23 491.1C1154.23 486.84 1156.17 484.34 1158.77 484.34C1160.53 484.34 1161.99 485.48 1162.75 487.54H1167.53V483.86H1168.87V501.64ZM1158.77 496.8C1160.63 496.8 1161.99 494.78 1161.99 491.1C1161.99 487.44 1160.63 485.42 1158.77 485.42C1156.91 485.42 1155.56 487.44 1155.56 491.1C1155.56 494.78 1156.91 496.8 1158.77 496.8ZM1167.53 493.46V488.62H1163.05C1163.23 489.36 1163.33 490.2 1163.33 491.1C1163.33 491.96 1163.25 492.76 1163.11 493.46H1167.53ZM1174.74 496.52H1173.74L1173.48 484.34H1175L1174.74 496.52ZM1175.38 499.84C1175.38 500.46 1174.9 500.94 1174.26 500.94C1173.58 500.94 1173.1 500.46 1173.1 499.84C1173.1 499.26 1173.58 498.74 1174.26 498.74C1174.9 498.74 1175.38 499.26 1175.38 499.84ZM1181.19 496.52H1180.19L1179.93 484.34H1181.45L1181.19 496.52ZM1181.83 499.84C1181.83 500.46 1181.35 500.94 1180.71 500.94C1180.03 500.94 1179.55 500.46 1179.55 499.84C1179.55 499.26 1180.03 498.74 1180.71 498.74C1181.35 498.74 1181.83 499.26 1181.83 499.84ZM1047.46 521.34H1034.94V514.56H1047.46V521.34ZM1046.12 520.26V515.64H1036.28V520.26H1046.12ZM1049.94 525.1H1041.9V531.64H1040.52V525.1H1032.48V524.02H1049.94V525.1ZM1066.64 531.64H1065.3V520.62H1060.86V519.5H1065.3V513.86H1066.64V531.64ZM1062.96 526.5L1062.16 527.46C1059.78 526.16 1057.54 523.74 1056.84 521.46C1056.1 523.98 1054.2 526.3 1051.46 527.98L1050.56 527.14C1053.64 525.34 1056.08 522.24 1056.08 518V514.64H1057.5V518C1057.5 522.08 1060.18 525.12 1062.96 526.5ZM1084.56 516.94C1084.56 518.78 1082.04 520.14 1077.98 520.14C1073.92 520.14 1071.46 518.78 1071.46 516.94C1071.46 515.1 1073.92 513.74 1077.98 513.74C1082.04 513.74 1084.56 515.1 1084.56 516.94ZM1084.68 531.44H1071.72V527.42H1082.92V525.6H1071.72V524.54H1077.32V522.5H1069.3V521.44H1086.74V522.5H1078.7V524.54H1084.26V528.42H1073.06V530.38H1084.68V531.44ZM1083.22 516.96C1083.22 515.56 1080.96 514.78 1077.98 514.78C1075.02 514.78 1072.78 515.56 1072.78 516.96C1072.78 518.34 1075.02 519.12 1077.98 519.12C1080.96 519.12 1083.22 518.34 1083.22 516.96ZM1098.62 525.76V526.82C1097.8 526.96 1096.94 527.02 1096.32 527.02H1094.56V515.2H1098.54V516.28H1095.88V525.94H1096.32C1096.86 525.94 1097.76 525.9 1098.62 525.76ZM1103.74 525.66V526.72C1102.86 526.92 1101.74 527.02 1100.96 527.02H1099.18V515.2H1103.16V516.28H1100.46V525.94H1100.94C1101.7 525.94 1102.82 525.86 1103.74 525.66ZM1109.38 531.64H1108.04V521.34H1105.7V530.8H1104.36V514.16H1105.7V520.16H1108.04V513.86H1109.38V531.64ZM1127.18 522.86H1118.26V521.88H1127.18V522.86ZM1145.85 520.9H1136.67V514.74H1145.85V520.9ZM1150.17 531.64H1148.85V527.68H1144.23V526.6H1148.85V513.86H1150.17V531.64ZM1144.51 519.82V515.82H1138.01V519.82H1144.51ZM1141.67 531.24H1140.35V524.4H1135.13V523.32H1141.67C1143.91 523.32 1146.39 523.1 1148.09 522.8V523.86C1146.47 524.2 1144.19 524.38 1141.67 524.4V531.24ZM1168.87 531.64H1167.53V524.54H1162.81C1162.05 526.7 1160.55 527.88 1158.77 527.88C1156.17 527.88 1154.23 525.38 1154.23 521.1C1154.23 516.84 1156.17 514.34 1158.77 514.34C1160.53 514.34 1161.99 515.48 1162.75 517.54H1167.53V513.86H1168.87V531.64ZM1158.77 526.8C1160.63 526.8 1161.99 524.78 1161.99 521.1C1161.99 517.44 1160.63 515.42 1158.77 515.42C1156.91 515.42 1155.56 517.44 1155.56 521.1C1155.56 524.78 1156.91 526.8 1158.77 526.8ZM1167.53 523.46V518.62H1163.05C1163.23 519.36 1163.33 520.2 1163.33 521.1C1163.33 521.96 1163.25 522.76 1163.11 523.46H1167.53ZM1174.88 529.66C1174.88 530.3 1174.38 530.78 1173.74 530.78C1173.06 530.78 1172.56 530.3 1172.56 529.66C1172.56 529.06 1173.06 528.54 1173.74 528.54C1174.38 528.54 1174.88 529.06 1174.88 529.66ZM1180.37 529.66C1180.37 530.3 1179.87 530.78 1179.23 530.78C1178.55 530.78 1178.05 530.3 1178.05 529.66C1178.05 529.06 1178.55 528.54 1179.23 528.54C1179.87 528.54 1180.37 529.06 1180.37 529.66ZM1185.86 529.66C1185.86 530.3 1185.36 530.78 1184.72 530.78C1184.04 530.78 1183.54 530.3 1183.54 529.66C1183.54 529.06 1184.04 528.54 1184.72 528.54C1185.36 528.54 1185.86 529.06 1185.86 529.66ZM1191.21 526.52H1190.21L1189.95 514.34H1191.47L1191.21 526.52ZM1191.85 529.84C1191.85 530.46 1191.37 530.94 1190.73 530.94C1190.05 530.94 1189.57 530.46 1189.57 529.84C1189.57 529.26 1190.05 528.74 1190.73 528.74C1191.37 528.74 1191.85 529.26 1191.85 529.84ZM1047.88 559.12C1047.88 560.74 1045.58 561.94 1041.46 561.94C1037.34 561.94 1035.06 560.74 1035.06 559.12C1035.06 557.5 1037.34 556.3 1041.46 556.3C1045.58 556.3 1047.88 557.5 1047.88 559.12ZM1045.46 553.74V554.74C1043.62 555.06 1041.18 555.2 1038.54 555.2H1032.64V554.16H1038.24V552.58C1035.98 552.44 1034.48 551.52 1034.48 550.2C1034.48 548.8 1036.28 547.82 1038.86 547.82C1041.44 547.82 1043.24 548.8 1043.24 550.2C1043.24 551.5 1041.76 552.42 1039.56 552.58V554.16C1041.72 554.14 1043.8 553.98 1045.46 553.74ZM1046.54 559.12C1046.54 557.94 1044.44 557.3 1041.46 557.3C1038.52 557.3 1036.38 557.94 1036.38 559.12C1036.38 560.3 1038.52 560.92 1041.46 560.92C1044.44 560.92 1046.54 560.3 1046.54 559.12ZM1047.52 556.16H1046.2V543.86H1047.52V549.62H1050.32V550.72H1047.52V556.16ZM1041.9 550.2C1041.9 549.36 1040.68 548.84 1038.86 548.84C1037.04 548.84 1035.82 549.36 1035.82 550.2C1035.82 551.06 1037.04 551.58 1038.86 551.58C1040.68 551.58 1041.9 551.06 1041.9 550.2ZM1044.16 547.04H1033.56V546H1044.16V547.04ZM1041.6 544.9H1036.12V543.86H1041.6V544.9ZM1060.12 561.94C1056.2 561.94 1053.84 560.44 1053.84 558.4C1053.84 556.38 1056.2 554.88 1060.12 554.88C1064 554.88 1066.36 556.38 1066.36 558.4C1066.36 560.44 1064 561.94 1060.12 561.94ZM1060.12 555.96C1057.26 555.96 1055.18 556.86 1055.18 558.4C1055.18 559.96 1057.26 560.86 1060.12 560.86C1062.96 560.86 1065.04 559.96 1065.04 558.4C1065.04 556.86 1062.96 555.96 1060.12 555.96ZM1065.94 554.52H1064.62V543.86H1065.94V547.66H1068.66V548.76H1065.94V554.52ZM1063.74 550.96V552.02C1061.7 552.48 1058.4 552.7 1055.62 552.7H1052.28V544.78H1060.9V545.84H1053.6V551.6H1055.62C1058.32 551.6 1061.54 551.38 1063.74 550.96ZM1075.46 553.42C1072.7 553.42 1070.92 552.22 1070.92 550.72C1070.92 549.22 1072.7 548.02 1075.46 548.02C1078.2 548.02 1080 549.22 1080 550.72C1080 552.22 1078.2 553.42 1075.46 553.42ZM1075.46 549C1073.44 549 1072.26 549.72 1072.26 550.72C1072.26 551.72 1073.44 552.44 1075.46 552.44C1077.5 552.44 1078.66 551.72 1078.66 550.72C1078.66 549.74 1077.5 549 1075.46 549ZM1084.94 561.44H1072.84V557.52H1083.18V555.76H1072.84V554.74H1084.52V558.52H1074.18V560.4H1084.94V561.44ZM1084.56 553.8H1083.22V543.86H1084.56V548.24H1087.28V549.36H1084.56V553.8ZM1080.9 547.12H1069.96V546.12H1080.9V547.12ZM1078.26 544.86H1072.56V543.86H1078.26V544.86ZM1098.62 555.76V556.82C1097.8 556.96 1096.94 557.02 1096.32 557.02H1094.56V545.2H1098.54V546.28H1095.88V555.94H1096.32C1096.86 555.94 1097.76 555.9 1098.62 555.76ZM1103.74 555.66V556.72C1102.86 556.92 1101.74 557.02 1100.96 557.02H1099.18V545.2H1103.16V546.28H1100.46V555.94H1100.94C1101.7 555.94 1102.82 555.86 1103.74 555.66ZM1109.38 561.64H1108.04V551.34H1105.7V560.8H1104.36V544.16H1105.7V550.16H1108.04V543.86H1109.38V561.64ZM1127.18 552.86H1118.26V551.88H1127.18V552.86ZM1145.85 550.9H1136.67V544.74H1145.85V550.9ZM1150.17 561.64H1148.85V557.68H1144.23V556.6H1148.85V543.86H1150.17V561.64ZM1144.51 549.82V545.82H1138.01V549.82H1144.51ZM1141.67 561.24H1140.35V554.4H1135.13V553.32H1141.67C1143.91 553.32 1146.39 553.1 1148.09 552.8V553.86C1146.47 554.2 1144.19 554.38 1141.67 554.4V561.24ZM1168.87 561.64H1167.53V554.54H1162.81C1162.05 556.7 1160.55 557.88 1158.77 557.88C1156.17 557.88 1154.23 555.38 1154.23 551.1C1154.23 546.84 1156.17 544.34 1158.77 544.34C1160.53 544.34 1161.99 545.48 1162.75 547.54H1167.53V543.86H1168.87V561.64ZM1158.77 556.8C1160.63 556.8 1161.99 554.78 1161.99 551.1C1161.99 547.44 1160.63 545.42 1158.77 545.42C1156.91 545.42 1155.56 547.44 1155.56 551.1C1155.56 554.78 1156.91 556.8 1158.77 556.8ZM1167.53 553.46V548.62H1163.05C1163.23 549.36 1163.33 550.2 1163.33 551.1C1163.33 551.96 1163.25 552.76 1163.11 553.46H1167.53ZM1174.88 559.66C1174.88 560.3 1174.38 560.78 1173.74 560.78C1173.06 560.78 1172.56 560.3 1172.56 559.66C1172.56 559.06 1173.06 558.54 1173.74 558.54C1174.38 558.54 1174.88 559.06 1174.88 559.66ZM1180.37 559.66C1180.37 560.3 1179.87 560.78 1179.23 560.78C1178.55 560.78 1178.05 560.3 1178.05 559.66C1178.05 559.06 1178.55 558.54 1179.23 558.54C1179.87 558.54 1180.37 559.06 1180.37 559.66ZM1185.86 559.66C1185.86 560.3 1185.36 560.78 1184.72 560.78C1184.04 560.78 1183.54 560.3 1183.54 559.66C1183.54 559.06 1184.04 558.54 1184.72 558.54C1185.36 558.54 1185.86 559.06 1185.86 559.66ZM1192.53 556.6H1191.37V555.74C1191.37 553.92 1191.81 552.84 1193.59 551.38C1194.73 550.44 1195.51 549.22 1195.51 548.08C1195.51 546.2 1193.95 545.4 1192.29 545.4C1191.31 545.4 1189.83 545.8 1188.79 546.42L1188.31 545.52C1189.39 544.88 1191.03 544.38 1192.39 544.38C1194.65 544.38 1196.79 545.44 1196.79 548.04C1196.79 549.5 1196.03 550.74 1194.67 551.88C1192.93 553.38 1192.53 554.1 1192.53 555.82V556.6ZM1193.09 559.84C1193.09 560.46 1192.59 560.94 1191.97 560.94C1191.29 560.94 1190.81 560.46 1190.81 559.84C1190.81 559.26 1191.29 558.74 1191.97 558.74C1192.59 558.74 1193.09 559.26 1193.09 559.84ZM1048.84 579.12L1048.14 580.08C1045.18 579.68 1042.26 578.24 1041.2 576.28C1040.16 578.24 1037.22 579.68 1034.3 580.08L1033.58 579.12C1036.8 578.66 1040.5 576.98 1040.5 574.48V573.82H1041.92V574.48C1041.92 576.98 1045.62 578.66 1048.84 579.12ZM1047.9 591.44H1034.92V587.28H1046.12V585.32H1034.92V584.26H1047.46V588.28H1036.26V590.38H1047.9V591.44ZM1049.94 582.38H1032.5V581.32H1049.94V582.38ZM1068.34 582.86H1050.9V581.8H1068.34V582.86ZM1066.3 591.44H1053.32V587.48H1064.52V585.72H1053.32V584.66H1065.86V588.48H1054.66V590.38H1066.3V591.44ZM1066.68 580H1052.54V578.94H1055.34L1055.22 575.48H1052.96V574.44H1066.26V575.48H1064.14L1064.04 578.94H1066.68V580ZM1062.7 578.94L1062.82 575.48H1056.56L1056.66 578.94H1062.7ZM1080.22 585.76V586.82C1079.4 586.96 1078.54 587.02 1077.92 587.02H1076.16V575.2H1080.14V576.28H1077.48V585.94H1077.92C1078.46 585.94 1079.36 585.9 1080.22 585.76ZM1085.34 585.66V586.72C1084.46 586.92 1083.34 587.02 1082.56 587.02H1080.78V575.2H1084.76V576.28H1082.06V585.94H1082.54C1083.3 585.94 1084.42 585.86 1085.34 585.66ZM1090.98 591.64H1089.64V581.34H1087.3V590.8H1085.96V574.16H1087.3V580.16H1089.64V573.86H1090.98V591.64ZM1108.79 582.86H1099.87V581.88H1108.79V582.86ZM1127.45 580.9H1118.27V574.74H1127.45V580.9ZM1131.77 591.64H1130.45V587.68H1125.83V586.6H1130.45V573.86H1131.77V591.64ZM1126.11 579.82V575.82H1119.61V579.82H1126.11ZM1123.27 591.24H1121.95V584.4H1116.73V583.32H1123.27C1125.51 583.32 1127.99 583.1 1129.69 582.8V583.86C1128.07 584.2 1125.79 584.38 1123.27 584.4V591.24ZM1150.47 591.64H1149.13V584.54H1144.41C1143.65 586.7 1142.15 587.88 1140.37 587.88C1137.77 587.88 1135.83 585.38 1135.83 581.1C1135.83 576.84 1137.77 574.34 1140.37 574.34C1142.13 574.34 1143.59 575.48 1144.35 577.54H1149.13V573.86H1150.47V591.64ZM1140.37 586.8C1142.23 586.8 1143.59 584.78 1143.59 581.1C1143.59 577.44 1142.23 575.42 1140.37 575.42C1138.51 575.42 1137.17 577.44 1137.17 581.1C1137.17 584.78 1138.51 586.8 1140.37 586.8ZM1149.13 583.46V578.62H1144.65C1144.83 579.36 1144.93 580.2 1144.93 581.1C1144.93 581.96 1144.85 582.76 1144.71 583.46H1149.13ZM1165.69 591.64H1164.35V584.56H1159.33V591.44H1157.97V584.56H1153.01V583.48H1170.65V584.56H1165.69V591.64ZM1184.08 591.64H1182.74V584.56H1177.72V591.44H1176.36V584.56H1171.4V583.48H1189.04V584.56H1184.08V591.64ZM1047.82 621.64H1046.48V603.86H1047.82V621.64ZM1033.96 617.84L1033.08 616.94C1037.8 614.64 1040.46 610.64 1040.98 606.12H1034.18V605.04H1042.42C1042.16 611.06 1038.66 615.46 1033.96 617.84ZM1065.86 611.14H1053.34V604.02H1054.68V606.4H1064.52V604.02H1065.86V611.14ZM1064.52 610.06V607.44H1054.68V610.06H1064.52ZM1068.34 614.38H1060.5V618.3H1059.14V614.38H1050.9V613.3H1068.34V614.38ZM1066.66 621.36H1053.36V616.04H1054.7V620.26H1066.66V621.36ZM1087.5 615.14V616.22C1085.26 616.68 1081.76 616.88 1079.08 616.88H1076.32V604.68H1077.64V615.78H1079.08C1081.76 615.78 1085.1 615.58 1087.5 615.14ZM1089.68 621.64H1088.36V603.86H1089.68V609.96H1092.68V611.1H1089.68V621.64ZM1110.76 612.86H1093.32V611.8H1110.76V612.86ZM1108.72 621.44H1095.74V617.48H1106.94V615.72H1095.74V614.66H1108.28V618.48H1097.08V620.38H1108.72V621.44ZM1101.38 610.1H1095.34V604.02H1096.62V605.94H1100.1V604.02H1101.38V610.1ZM1100.1 609.08V606.92H1096.62V609.08H1100.1ZM1108.7 610.1H1102.68V604.02H1103.94V605.94H1107.44V604.02H1108.7V610.1ZM1107.44 609.08V606.92H1103.94V609.08H1107.44ZM1122.64 615.76V616.82C1121.82 616.96 1120.96 617.02 1120.34 617.02H1118.58V605.2H1122.56V606.28H1119.9V615.94H1120.34C1120.88 615.94 1121.78 615.9 1122.64 615.76ZM1127.76 615.66V616.72C1126.88 616.92 1125.76 617.02 1124.98 617.02H1123.2V605.2H1127.18V606.28H1124.48V615.94H1124.96C1125.72 615.94 1126.84 615.86 1127.76 615.66ZM1133.4 621.64H1132.06V611.34H1129.72V620.8H1128.38V604.16H1129.72V610.16H1132.06V603.86H1133.4V621.64ZM1151.21 612.86H1142.29V611.88H1151.21V612.86ZM1169.87 610.9H1160.69V604.74H1169.87V610.9ZM1174.19 621.64H1172.87V617.68H1168.25V616.6H1172.87V603.86H1174.19V621.64ZM1168.53 609.82V605.82H1162.03V609.82H1168.53ZM1165.69 621.24H1164.37V614.4H1159.15V613.32H1165.69C1167.93 613.32 1170.41 613.1 1172.11 612.8V613.86C1170.49 614.2 1168.21 614.38 1165.69 614.4V621.24ZM1192.89 621.64H1191.55V614.54H1186.83C1186.07 616.7 1184.57 617.88 1182.79 617.88C1180.19 617.88 1178.25 615.38 1178.25 611.1C1178.25 606.84 1180.19 604.34 1182.79 604.34C1184.55 604.34 1186.01 605.48 1186.77 607.54H1191.55V603.86H1192.89V621.64ZM1182.79 616.8C1184.65 616.8 1186.01 614.78 1186.01 611.1C1186.01 607.44 1184.65 605.42 1182.79 605.42C1180.93 605.42 1179.59 607.44 1179.59 611.1C1179.59 614.78 1180.93 616.8 1182.79 616.8ZM1191.55 613.46V608.62H1187.07C1187.25 609.36 1187.35 610.2 1187.35 611.1C1187.35 611.96 1187.27 612.76 1187.13 613.46H1191.55ZM1199.31 608.42C1199.31 609.08 1198.79 609.54 1198.17 609.54C1197.51 609.54 1197.03 609.08 1197.03 608.42C1197.03 607.84 1197.51 607.32 1198.17 607.32C1198.79 607.32 1199.31 607.84 1199.31 608.42ZM1197.35 620.34L1197.05 620.04C1197.75 619.6 1198.37 618.72 1198.47 617.98C1198.47 617.88 1198.45 617.8 1198.43 617.76C1198.37 617.66 1198.27 617.58 1198.05 617.58C1197.51 617.58 1196.99 617.22 1196.99 616.54C1196.99 615.9 1197.51 615.48 1198.11 615.48C1198.87 615.48 1199.39 616.12 1199.39 616.94C1199.39 618.36 1198.57 619.7 1197.35 620.34ZM1205.73 608.42C1205.73 609.08 1205.21 609.54 1204.59 609.54C1203.93 609.54 1203.45 609.08 1203.45 608.42C1203.45 607.84 1203.93 607.32 1204.59 607.32C1205.21 607.32 1205.73 607.84 1205.73 608.42ZM1203.77 620.34L1203.47 620.04C1204.17 619.6 1204.79 618.72 1204.89 617.98C1204.89 617.88 1204.87 617.8 1204.85 617.76C1204.79 617.66 1204.69 617.58 1204.47 617.58C1203.93 617.58 1203.41 617.22 1203.41 616.54C1203.41 615.9 1203.93 615.48 1204.53 615.48C1205.29 615.48 1205.81 616.12 1205.81 616.94C1205.81 618.36 1204.99 619.7 1203.77 620.34ZM1047.82 651.64H1046.48V633.86H1047.82V651.64ZM1033.96 647.84L1033.08 646.94C1037.8 644.64 1040.46 640.64 1040.98 636.12H1034.18V635.04H1042.42C1042.16 641.06 1038.66 645.46 1033.96 647.84ZM1065.86 641.14H1053.34V634.02H1054.68V636.4H1064.52V634.02H1065.86V641.14ZM1064.52 640.06V637.44H1054.68V640.06H1064.52ZM1068.34 644.38H1060.5V648.3H1059.14V644.38H1050.9V643.3H1068.34V644.38ZM1066.66 651.36H1053.36V646.04H1054.7V650.26H1066.66V651.36ZM1089.8 649.68C1089.8 651.26 1087.16 651.92 1083.6 651.92C1080.1 651.92 1077.46 651.26 1077.46 649.68C1077.46 648.12 1080.1 647.46 1083.6 647.46C1087.16 647.46 1089.8 648.12 1089.8 649.68ZM1091.26 638.76L1090.56 639.72C1087.78 639.42 1084.82 638.26 1083.64 636.56C1082.5 638.26 1079.5 639.42 1076.76 639.72L1076.08 638.76C1078.94 638.46 1082.12 637.24 1082.82 635.48H1077.16V634.44H1090.12V635.48H1084.48C1085.18 637.24 1088.38 638.46 1091.26 638.76ZM1092.36 642.2H1074.92V641.16H1082.98V638.96H1084.34V641.16H1092.36V642.2ZM1088.46 649.68C1088.46 648.8 1086.38 648.44 1083.6 648.44C1080.86 648.44 1078.78 648.8 1078.78 649.68C1078.78 650.56 1080.86 650.94 1083.6 650.94C1086.38 650.94 1088.46 650.56 1088.46 649.68ZM1090.76 646.62H1076.48V645.6H1090.76V646.62ZM1087.42 644.58H1079.72V643.56H1087.42V644.58ZM1108.58 636.94C1108.58 638.78 1106.08 640.14 1102.02 640.14C1097.96 640.14 1095.48 638.78 1095.48 636.94C1095.48 635.1 1097.96 633.74 1102.02 633.74C1106.08 633.74 1108.58 635.1 1108.58 636.94ZM1107.24 636.96C1107.24 635.56 1105 634.78 1102.02 634.78C1099.06 634.78 1096.8 635.56 1096.8 636.96C1096.8 638.34 1099.06 639.12 1102.02 639.12C1105 639.12 1107.24 638.34 1107.24 636.96ZM1108.72 651.44H1095.74V647.34H1106.94V645.46H1095.74V644.4H1108.28V648.36H1097.08V650.38H1108.72V651.44ZM1110.76 642.54H1093.32V641.48H1110.76V642.54ZM1122.64 645.76V646.82C1121.82 646.96 1120.96 647.02 1120.34 647.02H1118.58V635.2H1122.56V636.28H1119.9V645.94H1120.34C1120.88 645.94 1121.78 645.9 1122.64 645.76ZM1127.76 645.66V646.72C1126.88 646.92 1125.76 647.02 1124.98 647.02H1123.2V635.2H1127.18V636.28H1124.48V645.94H1124.96C1125.72 645.94 1126.84 645.86 1127.76 645.66ZM1133.4 651.64H1132.06V641.34H1129.72V650.8H1128.38V634.16H1129.72V640.16H1132.06V633.86H1133.4V651.64ZM1151.21 642.86H1142.29V641.88H1151.21V642.86ZM1169.87 640.9H1160.69V634.74H1169.87V640.9ZM1174.19 651.64H1172.87V647.68H1168.25V646.6H1172.87V633.86H1174.19V651.64ZM1168.53 639.82V635.82H1162.03V639.82H1168.53ZM1165.69 651.24H1164.37V644.4H1159.15V643.32H1165.69C1167.93 643.32 1170.41 643.1 1172.11 642.8V643.86C1170.49 644.2 1168.21 644.38 1165.69 644.4V651.24ZM1192.89 651.64H1191.55V644.54H1186.83C1186.07 646.7 1184.57 647.88 1182.79 647.88C1180.19 647.88 1178.25 645.38 1178.25 641.1C1178.25 636.84 1180.19 634.34 1182.79 634.34C1184.55 634.34 1186.01 635.48 1186.77 637.54H1191.55V633.86H1192.89V651.64ZM1182.79 646.8C1184.65 646.8 1186.01 644.78 1186.01 641.1C1186.01 637.44 1184.65 635.42 1182.79 635.42C1180.93 635.42 1179.59 637.44 1179.59 641.1C1179.59 644.78 1180.93 646.8 1182.79 646.8ZM1191.55 643.46V638.62H1187.07C1187.25 639.36 1187.35 640.2 1187.35 641.1C1187.35 641.96 1187.27 642.76 1187.13 643.46H1191.55ZM1205.59 641.44L1206.27 641.84C1205.83 643.18 1204.79 643.96 1203.55 643.96C1202.61 643.96 1201.85 643.44 1201.17 642.88C1200.43 642.28 1199.77 641.74 1198.95 641.74C1198.11 641.74 1197.39 642.38 1196.95 643.28L1196.27 642.92C1196.57 641.8 1197.75 640.7 1198.97 640.7C1199.89 640.7 1200.63 641.16 1201.29 641.7C1202.07 642.34 1202.77 642.9 1203.65 642.9C1204.43 642.9 1205.17 642.38 1205.59 641.44ZM1220.29 638.06H1213.09V636.98H1220.29V638.06ZM1223.77 640.98H1209.59V639.9H1223.77V640.98ZM1216.69 648.48C1213.15 648.48 1211.05 647.12 1211.05 645.36C1211.05 643.58 1213.15 642.22 1216.69 642.22C1220.25 642.22 1222.33 643.58 1222.33 645.36C1222.33 647.12 1220.25 648.48 1216.69 648.48ZM1216.69 643.28C1214.23 643.28 1212.41 644.08 1212.41 645.36C1212.41 646.64 1214.23 647.44 1216.69 647.44C1219.17 647.44 1220.99 646.64 1220.99 645.36C1220.99 644.08 1219.17 643.28 1216.69 643.28Z" fill="white"/>
</g>
<defs>
<clipPath id="clip0_355_163">
<rect width="1920" height="1080" fill="white"/>
</clipPath>
</defs>
</svg>
