<svg width="152" height="182" viewBox="0 0 152 182" fill="none" xmlns="http://www.w3.org/2000/svg">
<rect x="0.75" y="0.75" width="150" height="180" fill="white"/>
<rect x="0.75" y="0.75" width="150" height="180" stroke="#90C85F" stroke-width="1.5"/>
<path d="M30.6935 103.16C26.0735 103.16 26.0735 96.335 30.6935 96.335H41.0885C74.6885 96.335 93.5885 94.655 103.039 93.08C107.659 92.24 108.814 98.96 104.299 99.8C96.8435 101.06 83.9285 102.32 63.7685 102.845V119.75C63.7685 121.85 62.0885 123.425 60.0935 123.425C58.0985 123.425 56.5235 121.85 56.5235 119.75V103.055C51.6935 103.16 46.6535 103.16 41.0885 103.16H30.6935ZM115.954 121.22C113.959 121.22 112.279 119.645 112.279 117.545V112.925H99.9935C98.1035 112.925 96.6335 111.455 96.6335 109.565C96.6335 107.675 98.1035 106.205 99.9935 106.205H112.279V55.805C112.279 53.81 113.959 52.13 115.954 52.13C117.949 52.13 119.524 53.81 119.524 55.805V117.545C119.524 119.645 117.949 121.22 115.954 121.22ZM45.1835 88.145C36.1535 88.145 32.0585 85.31 32.0585 75.545V65.255C32.0585 56.33 34.9985 54.23 44.7635 54.23H86.1335C88.0235 54.23 89.5985 55.805 89.5985 57.695C89.5985 59.585 88.0235 61.16 86.1335 61.16H45.2885C40.2485 61.16 39.4085 61.79 39.4085 65.885V73.655C39.4085 80.69 40.1435 81.215 46.7585 81.215H47.1785C64.0835 81.215 82.0385 80.69 93.4835 79.01C98.5235 78.38 99.3635 84.995 94.6385 85.73C82.7735 87.62 63.7685 88.145 46.5485 88.145H45.1835Z" fill="#90C85F"/>
</svg>
