<svg width="152" height="182" viewBox="0 0 152 182" fill="none" xmlns="http://www.w3.org/2000/svg">
<rect x="0.75" y="0.75" width="150" height="180" fill="white"/>
<rect x="0.75" y="0.75" width="150" height="180" stroke="#90C85F" stroke-width="1.5"/>
<path d="M45.4985 120.905C36.1535 120.905 33.3185 119.015 33.3185 111.35V95.39C33.3185 93.395 34.9985 91.715 36.9935 91.715C38.9885 91.715 40.5635 93.395 40.5635 95.39V99.485H114.169V95.39C114.169 93.395 115.744 91.715 117.739 91.715C119.734 91.715 121.414 93.395 121.414 95.39V111.35C121.414 119.015 118.579 120.905 109.234 120.905H45.4985ZM117.634 87.62C115.639 87.62 113.959 86.045 113.959 83.945V73.13H105.664V83C105.664 85.1 104.089 86.675 102.094 86.675C100.099 86.675 98.4185 85.1 98.4185 83V57.065C98.4185 55.07 100.099 53.39 102.094 53.39C104.089 53.39 105.664 55.07 105.664 57.065V66.2H113.959V55.805C113.959 53.81 115.639 52.13 117.634 52.13C119.629 52.13 121.309 53.81 121.309 55.805V83.945C121.309 86.045 119.629 87.62 117.634 87.62ZM41.5085 84.575C32.0585 84.785 28.0685 82.055 28.0685 73.445V58.01C28.0685 56.12 29.7485 54.23 31.8485 54.23C34.1585 54.335 35.6285 56.225 35.6285 58.01V71.03C35.6285 77.015 36.2585 77.33 42.2435 77.54C56.8385 77.645 73.5335 76.28 86.3435 73.865C91.5935 72.92 92.7485 79.955 88.0235 80.795C75.5285 83.105 57.8885 84.575 42.7685 84.575H41.5085ZM40.5635 110.09C40.5635 113.555 41.1935 114.08 45.6035 114.08H109.129C113.539 114.08 114.169 113.555 114.169 110.09V106.205H40.5635V110.09Z" fill="#90C85F"/>
</svg>
