<svg width="452" height="242" viewBox="0 0 452 242" fill="none" xmlns="http://www.w3.org/2000/svg">
<rect x="0.75" y="0.75" width="150" height="180" fill="white"/>
<rect x="0.75" y="0.75" width="150" height="180" stroke="#90C85F" stroke-width="1.5"/>
<path d="M45.4985 120.905C36.1535 120.905 33.3185 119.015 33.3185 111.35V95.39C33.3185 93.395 34.9985 91.715 36.9935 91.715C38.9885 91.715 40.5635 93.395 40.5635 95.39V99.485H114.169V95.39C114.169 93.395 115.744 91.715 117.739 91.715C119.734 91.715 121.414 93.395 121.414 95.39V111.35C121.414 119.015 118.579 120.905 109.234 120.905H45.4985ZM117.634 87.62C115.639 87.62 113.959 86.045 113.959 83.945V73.13H105.664V83C105.664 85.1 104.089 86.675 102.094 86.675C100.099 86.675 98.4185 85.1 98.4185 83V57.065C98.4185 55.07 100.099 53.39 102.094 53.39C104.089 53.39 105.664 55.07 105.664 57.065V66.2H113.959V55.805C113.959 53.81 115.639 52.13 117.634 52.13C119.629 52.13 121.309 53.81 121.309 55.805V83.945C121.309 86.045 119.629 87.62 117.634 87.62ZM41.5085 84.575C32.0585 84.785 28.0685 82.055 28.0685 73.445V58.01C28.0685 56.12 29.7485 54.23 31.8485 54.23C34.1585 54.335 35.6285 56.225 35.6285 58.01V71.03C35.6285 77.015 36.2585 77.33 42.2435 77.54C56.8385 77.645 73.5335 76.28 86.3435 73.865C91.5935 72.92 92.7485 79.955 88.0235 80.795C75.5285 83.105 57.8885 84.575 42.7685 84.575H41.5085ZM40.5635 110.09C40.5635 113.555 41.1935 114.08 45.6035 114.08H109.129C113.539 114.08 114.169 113.555 114.169 110.09V106.205H40.5635V110.09Z" fill="#90C85F"/>
<rect x="150.75" y="60.75" width="150" height="180" fill="white"/>
<rect x="150.75" y="60.75" width="150" height="180" stroke="#90C85F" stroke-width="1.5"/>
<path d="M180.694 163.16C176.074 163.16 176.074 156.335 180.694 156.335H191.089C224.689 156.335 243.589 154.655 253.039 153.08C257.659 152.24 258.814 158.96 254.299 159.8C246.844 161.06 233.929 162.32 213.769 162.845V179.75C213.769 181.85 212.089 183.425 210.094 183.425C208.099 183.425 206.524 181.85 206.524 179.75V163.055C201.694 163.16 196.654 163.16 191.089 163.16H180.694ZM265.954 181.22C263.959 181.22 262.279 179.645 262.279 177.545V172.925H249.994C248.104 172.925 246.634 171.455 246.634 169.565C246.634 167.675 248.104 166.205 249.994 166.205H262.279V115.805C262.279 113.81 263.959 112.13 265.954 112.13C267.949 112.13 269.524 113.81 269.524 115.805V177.545C269.524 179.645 267.949 181.22 265.954 181.22ZM195.184 148.145C186.154 148.145 182.059 145.31 182.059 135.545V125.255C182.059 116.33 184.999 114.23 194.764 114.23H236.134C238.024 114.23 239.599 115.805 239.599 117.695C239.599 119.585 238.024 121.16 236.134 121.16H195.289C190.249 121.16 189.409 121.79 189.409 125.885V133.655C189.409 140.69 190.144 141.215 196.759 141.215H197.179C214.084 141.215 232.039 140.69 243.484 139.01C248.524 138.38 249.364 144.995 244.639 145.73C232.774 147.62 213.769 148.145 196.549 148.145H195.184Z" fill="#90C85F"/>
<rect x="300.75" y="0.75" width="150" height="180" fill="white"/>
<rect x="300.75" y="0.75" width="150" height="180" stroke="#90C85F" stroke-width="1.5"/>
<path d="M331.534 105.47C329.539 105.47 328.069 104 328.069 102.005C328.069 100.01 329.539 98.54 331.534 98.54H419.944C421.939 98.54 423.409 100.01 423.409 102.005C423.409 104 421.939 105.47 419.944 105.47H404.614V119.75C404.614 121.85 402.934 123.425 400.939 123.425C398.944 123.425 397.264 121.85 397.264 119.75V105.47H354.214V119.75C354.214 121.85 352.534 123.425 350.539 123.425C348.544 123.425 346.864 121.85 346.864 119.75V105.47H331.534ZM375.739 90.77C348.964 90.77 330.589 83.315 330.589 71.03C330.589 58.745 348.964 51.29 375.739 51.29C402.514 51.29 420.889 58.745 420.889 71.03C420.889 83.315 402.514 90.77 375.739 90.77ZM375.739 83.84C397.894 83.84 413.539 78.065 413.539 71.03C413.539 63.995 397.894 58.22 375.739 58.22C353.584 58.22 337.939 63.995 337.939 71.03C337.939 78.065 353.584 83.84 375.739 83.84Z" fill="#90C85F"/>
</svg>
