<svg width="152" height="182" viewBox="0 0 152 182" fill="none" xmlns="http://www.w3.org/2000/svg">
<rect x="0.75" y="0.75" width="150" height="180" fill="white"/>
<rect x="0.75" y="0.75" width="150" height="180" stroke="#90C85F" stroke-width="1.5"/>
<path d="M31.5335 105.47C29.5385 105.47 28.0685 104 28.0685 102.005C28.0685 100.01 29.5385 98.54 31.5335 98.54H119.944C121.939 98.54 123.409 100.01 123.409 102.005C123.409 104 121.939 105.47 119.944 105.47H104.614V119.75C104.614 121.85 102.934 123.425 100.939 123.425C98.9435 123.425 97.2635 121.85 97.2635 119.75V105.47H54.2135V119.75C54.2135 121.85 52.5335 123.425 50.5385 123.425C48.5435 123.425 46.8635 121.85 46.8635 119.75V105.47H31.5335ZM75.7385 90.77C48.9635 90.77 30.5885 83.315 30.5885 71.03C30.5885 58.745 48.9635 51.29 75.7385 51.29C102.514 51.29 120.889 58.745 120.889 71.03C120.889 83.315 102.514 90.77 75.7385 90.77ZM75.7385 83.84C97.8935 83.84 113.539 78.065 113.539 71.03C113.539 63.995 97.8935 58.22 75.7385 58.22C53.5835 58.22 37.9385 63.995 37.9385 71.03C37.9385 78.065 53.5835 83.84 75.7385 83.84Z" fill="#90C85F"/>
</svg>
