<svg width="152" height="182" viewBox="0 0 152 182" fill="none" xmlns="http://www.w3.org/2000/svg">
<rect x="0.75" y="0.75" width="150" height="180" fill="white"/>
<rect x="0.75" y="0.75" width="150" height="180" stroke="#90C85F" stroke-width="1.5"/>
<path d="M114.799 121.22C112.804 121.22 111.124 119.645 111.124 117.545V55.805C111.124 53.81 112.804 52.13 114.799 52.13C116.794 52.13 118.474 53.81 118.474 55.805V81.215H124.669C126.664 81.215 128.239 82.79 128.239 84.785C128.239 86.78 126.664 88.355 124.669 88.355H118.474V117.545C118.474 119.645 116.794 121.22 114.799 121.22ZM33.9485 118.49C31.6385 118.91 30.1685 117.545 29.7485 115.865C29.3285 114.185 30.2735 112.085 32.6885 111.665C55.8935 107.15 79.2035 90.56 84.1385 66.41C84.8735 62.63 84.5585 62 81.6185 62H35.4185C33.5285 62 31.9535 60.425 31.9535 58.535C31.9535 56.645 33.5285 55.07 35.4185 55.07H83.0885C91.0685 55.07 93.1685 59.27 91.0685 68.3C84.7685 96.23 59.0435 113.87 33.9485 118.49Z" fill="#90C85F"/>
</svg>
