<svg width="152" height="182" viewBox="0 0 152 182" fill="none" xmlns="http://www.w3.org/2000/svg">
<rect x="0.75" y="0.75" width="150" height="180" fill="white"/>
<rect x="0.75" y="0.75" width="150" height="180" stroke="#90C85F" stroke-width="1.5"/>
<path d="M115.849 121.22C113.854 121.22 112.174 119.645 112.174 117.545V87.41H103.669C101.674 87.41 100.099 85.94 100.099 83.945C100.099 81.95 101.674 80.375 103.669 80.375H112.174V55.805C112.174 53.81 113.854 52.13 115.849 52.13C117.844 52.13 119.524 53.81 119.524 55.805V117.545C119.524 119.645 117.844 121.22 115.849 121.22ZM44.3435 117.65C34.9985 117.65 31.2185 114.71 31.2185 105.785V94.445C31.2185 84.26 35.7335 81.32 45.7085 81.32H74.7935C81.6185 81.32 82.3535 80.795 82.3535 73.445V69.77C82.3535 62.42 81.6185 61.895 74.7935 61.895H34.5785C30.0635 61.895 30.0635 55.07 34.5785 55.07H74.8985C85.0835 55.07 89.7035 58.01 89.7035 68.195V75.02C89.7035 85.205 85.2935 88.145 75.3185 88.145H46.1285C39.3035 88.145 38.5685 88.67 38.5685 96.02V104.525C38.5685 110.3 39.1985 110.825 45.6035 110.825C66.0785 110.825 84.1385 108.515 95.0585 105.785C99.7835 104.63 101.254 111.245 96.7385 112.4C85.1885 115.34 66.2885 117.65 44.3435 117.65Z" fill="#90C85F"/>
</svg>
