<svg width="152" height="182" viewBox="0 0 152 182" fill="none" xmlns="http://www.w3.org/2000/svg">
<rect x="0.75" y="0.75" width="150" height="180" fill="white"/>
<rect x="0.75" y="0.75" width="150" height="180" stroke="#90C85F" stroke-width="1.5"/>
<path d="M31.3235 87.725C29.4335 87.725 28.0685 86.36 28.0685 84.47C28.0685 82.58 29.4335 81.215 31.3235 81.215H72.0635V75.23H42.9785C36.4685 75.23 33.4235 73.235 33.4235 66.83V62.42C33.4235 56.12 36.2585 54.23 42.4535 54.23H113.959C118.579 54.23 118.789 60.845 113.959 60.845H44.0285C41.0885 60.845 40.7735 61.475 40.7735 64.31V65.465C40.7735 68.09 41.4035 68.615 44.0285 68.615H115.849C120.679 68.615 120.469 75.23 115.849 75.23H79.4135V81.215H120.154C122.044 81.215 123.409 82.58 123.409 84.47C123.409 86.36 122.044 87.725 120.154 87.725H31.3235ZM40.5635 121.22C34.4735 121.22 30.9035 117.755 30.9035 112.4C30.9035 107.045 34.4735 103.79 40.5635 103.79H110.809C112.279 103.79 113.119 102.74 113.119 101.375C113.119 100.01 112.279 99.065 110.809 99.065H33.8435C29.4335 99.065 29.4335 92.765 33.8435 92.765H110.809C116.899 92.765 120.469 96.23 120.469 101.48C120.469 106.835 116.899 109.985 110.809 109.985H40.5635C38.9885 109.985 38.1485 110.93 38.1485 112.4C38.1485 113.87 38.9885 114.815 40.5635 114.815H119.104C123.619 114.815 123.514 121.22 119.104 121.22H40.5635Z" fill="#90C85F"/>
</svg>
