<svg width="152" height="182" viewBox="0 0 152 182" fill="none" xmlns="http://www.w3.org/2000/svg">
<rect x="0.75" y="0.75" width="150" height="180" fill="white"/>
<rect x="0.75" y="0.75" width="150" height="180" stroke="#90C85F" stroke-width="1.5"/>
<path d="M31.3235 82.265C29.4335 82.265 28.0685 80.9 28.0685 79.01C28.0685 77.12 29.4335 75.755 31.3235 75.755H109.444C110.179 72.185 110.914 68.3 111.124 64.835C111.124 63.365 111.019 62.42 110.494 61.895C109.864 61.16 108.604 61.055 106.189 61.055H35.2085C33.3185 61.055 31.9535 59.585 31.9535 57.695C31.9535 55.805 33.3185 54.545 35.2085 54.545H107.029C111.964 54.545 114.799 55.175 116.479 56.855C117.949 58.325 118.684 60.74 118.474 63.995C118.369 67.565 117.529 72.185 116.794 75.755H120.154C122.044 75.755 123.409 77.12 123.409 79.01C123.409 80.9 122.044 82.265 120.154 82.265H79.4135V90.455H110.494C116.899 90.455 120.469 94.235 120.469 99.8C120.469 105.47 116.899 108.935 110.494 108.935H40.9835C39.0935 108.935 38.2535 109.985 38.2535 111.665C38.2535 113.345 39.0935 114.5 40.9835 114.5H118.894C123.724 114.5 123.619 121.22 118.894 121.22H40.8785C34.4735 121.22 30.9035 117.545 30.9035 111.77C30.9035 106.1 34.4735 102.425 40.8785 102.425H110.389C112.279 102.425 113.119 101.27 113.119 99.695C113.119 98.12 112.279 97.07 110.389 97.07H34.0535C29.3285 97.07 29.3285 90.455 34.0535 90.455H72.1685V82.265H31.3235Z" fill="#90C85F"/>
</svg>
