<svg width="752" height="182" viewBox="0 0 752 182" fill="none" xmlns="http://www.w3.org/2000/svg">
<rect x="0.75" y="0.75" width="150" height="180" fill="white"/>
<rect x="0.75" y="0.75" width="150" height="180" stroke="#90C85F" stroke-width="1.5"/>
<path d="M31.3235 87.725C29.4335 87.725 28.0685 86.36 28.0685 84.47C28.0685 82.58 29.4335 81.215 31.3235 81.215H72.0635V75.23H42.9785C36.4685 75.23 33.4235 73.235 33.4235 66.83V62.42C33.4235 56.12 36.2585 54.23 42.4535 54.23H113.959C118.579 54.23 118.789 60.845 113.959 60.845H44.0285C41.0885 60.845 40.7735 61.475 40.7735 64.31V65.465C40.7735 68.09 41.4035 68.615 44.0285 68.615H115.849C120.679 68.615 120.469 75.23 115.849 75.23H79.4135V81.215H120.154C122.044 81.215 123.409 82.58 123.409 84.47C123.409 86.36 122.044 87.725 120.154 87.725H31.3235ZM40.5635 121.22C34.4735 121.22 30.9035 117.755 30.9035 112.4C30.9035 107.045 34.4735 103.79 40.5635 103.79H110.809C112.279 103.79 113.119 102.74 113.119 101.375C113.119 100.01 112.279 99.065 110.809 99.065H33.8435C29.4335 99.065 29.4335 92.765 33.8435 92.765H110.809C116.899 92.765 120.469 96.23 120.469 101.48C120.469 106.835 116.899 109.985 110.809 109.985H40.5635C38.9885 109.985 38.1485 110.93 38.1485 112.4C38.1485 113.87 38.9885 114.815 40.5635 114.815H119.104C123.619 114.815 123.514 121.22 119.104 121.22H40.5635Z" fill="#90C85F"/>
<rect x="150.75" y="0.75" width="150" height="180" fill="white"/>
<rect x="150.75" y="0.75" width="150" height="180" stroke="#90C85F" stroke-width="1.5"/>
<path d="M181.324 82.265C179.434 82.265 178.069 80.9 178.069 79.01C178.069 77.12 179.434 75.755 181.324 75.755H259.444C260.179 72.185 260.914 68.3 261.124 64.835C261.124 63.365 261.019 62.42 260.494 61.895C259.864 61.16 258.604 61.055 256.189 61.055H185.209C183.319 61.055 181.954 59.585 181.954 57.695C181.954 55.805 183.319 54.545 185.209 54.545H257.029C261.964 54.545 264.799 55.175 266.479 56.855C267.949 58.325 268.684 60.74 268.474 63.995C268.369 67.565 267.529 72.185 266.794 75.755H270.154C272.044 75.755 273.409 77.12 273.409 79.01C273.409 80.9 272.044 82.265 270.154 82.265H229.414V90.455H260.494C266.899 90.455 270.469 94.235 270.469 99.8C270.469 105.47 266.899 108.935 260.494 108.935H190.984C189.094 108.935 188.254 109.985 188.254 111.665C188.254 113.345 189.094 114.5 190.984 114.5H268.894C273.724 114.5 273.619 121.22 268.894 121.22H190.879C184.474 121.22 180.904 117.545 180.904 111.77C180.904 106.1 184.474 102.425 190.879 102.425H260.389C262.279 102.425 263.119 101.27 263.119 99.695C263.119 98.12 262.279 97.07 260.389 97.07H184.054C179.329 97.07 179.329 90.455 184.054 90.455H222.169V82.265H181.324Z" fill="#90C85F"/>
<rect x="300.75" y="0.75" width="150" height="180" fill="white"/>
<rect x="300.75" y="0.75" width="150" height="180" stroke="#90C85F" stroke-width="1.5"/>
<path d="M415.849 121.22C413.854 121.22 412.174 119.645 412.174 117.545V87.41H403.669C401.674 87.41 400.099 85.94 400.099 83.945C400.099 81.95 401.674 80.375 403.669 80.375H412.174V55.805C412.174 53.81 413.854 52.13 415.849 52.13C417.844 52.13 419.524 53.81 419.524 55.805V117.545C419.524 119.645 417.844 121.22 415.849 121.22ZM344.344 117.65C334.999 117.65 331.219 114.71 331.219 105.785V94.445C331.219 84.26 335.734 81.32 345.709 81.32H374.794C381.619 81.32 382.354 80.795 382.354 73.445V69.77C382.354 62.42 381.619 61.895 374.794 61.895H334.579C330.064 61.895 330.064 55.07 334.579 55.07H374.899C385.084 55.07 389.704 58.01 389.704 68.195V75.02C389.704 85.205 385.294 88.145 375.319 88.145H346.129C339.304 88.145 338.569 88.67 338.569 96.02V104.525C338.569 110.3 339.199 110.825 345.604 110.825C366.079 110.825 384.139 108.515 395.059 105.785C399.784 104.63 401.254 111.245 396.739 112.4C385.189 115.34 366.289 117.65 344.344 117.65Z" fill="#90C85F"/>
<rect x="450.75" y="0.75" width="150" height="180" fill="white"/>
<rect x="450.75" y="0.75" width="150" height="180" stroke="#90C85F" stroke-width="1.5"/>
<path d="M564.799 121.22C562.804 121.22 561.124 119.645 561.124 117.545V55.805C561.124 53.81 562.804 52.13 564.799 52.13C566.794 52.13 568.474 53.81 568.474 55.805V81.215H574.669C576.664 81.215 578.239 82.79 578.239 84.785C578.239 86.78 576.664 88.355 574.669 88.355H568.474V117.545C568.474 119.645 566.794 121.22 564.799 121.22ZM483.949 118.49C481.639 118.91 480.169 117.545 479.749 115.865C479.329 114.185 480.274 112.085 482.689 111.665C505.894 107.15 529.204 90.56 534.139 66.41C534.874 62.63 534.559 62 531.619 62H485.419C483.529 62 481.954 60.425 481.954 58.535C481.954 56.645 483.529 55.07 485.419 55.07H533.089C541.069 55.07 543.169 59.27 541.069 68.3C534.769 96.23 509.044 113.87 483.949 118.49Z" fill="#90C85F"/>
<rect x="600.75" y="0.75" width="150" height="180" fill="white"/>
<rect x="600.75" y="0.75" width="150" height="180" stroke="#90C85F" stroke-width="1.5"/>
<path d="M631.534 105.47C629.539 105.47 628.069 104 628.069 102.005C628.069 100.01 629.539 98.54 631.534 98.54H719.944C721.939 98.54 723.409 100.01 723.409 102.005C723.409 104 721.939 105.47 719.944 105.47H704.614V119.75C704.614 121.85 702.934 123.425 700.939 123.425C698.944 123.425 697.264 121.85 697.264 119.75V105.47H654.214V119.75C654.214 121.85 652.534 123.425 650.539 123.425C648.544 123.425 646.864 121.85 646.864 119.75V105.47H631.534ZM675.739 90.77C648.964 90.77 630.589 83.315 630.589 71.03C630.589 58.745 648.964 51.29 675.739 51.29C702.514 51.29 720.889 58.745 720.889 71.03C720.889 83.315 702.514 90.77 675.739 90.77ZM675.739 83.84C697.894 83.84 713.539 78.065 713.539 71.03C713.539 63.995 697.894 58.22 675.739 58.22C653.584 58.22 637.939 63.995 637.939 71.03C637.939 78.065 653.584 83.84 675.739 83.84Z" fill="#90C85F"/>
</svg>
