<svg width="152" height="182" viewBox="0 0 152 182" fill="none" xmlns="http://www.w3.org/2000/svg">
<rect x="0.75" y="0.75" width="150" height="180" fill="white"/>
<rect x="0.75" y="0.75" width="150" height="180" stroke="#90C85F" stroke-width="1.5"/>
<path d="M112.069 97.7C111.334 100.01 109.234 100.85 107.554 100.325C105.769 99.8 104.404 98.12 105.139 95.495C107.974 85.835 109.759 77.015 110.389 66.935C110.494 64.94 110.389 63.785 109.654 63.155C108.814 62.315 107.344 62.105 104.404 62.105H35.7335C33.8435 62.105 32.3735 60.53 32.3735 58.64C32.3735 56.75 33.8435 55.07 35.7335 55.07H104.824C110.284 55.07 113.749 55.7 115.639 57.695C117.424 59.375 117.949 62.105 117.844 66.41C117.109 79.745 114.694 89.3 112.069 97.7ZM32.1635 119.33C30.1685 119.33 28.5935 117.755 28.5935 115.76C28.5935 113.765 30.1685 112.19 32.1635 112.19H119.314C121.309 112.19 122.884 113.765 122.884 115.76C122.884 117.755 121.309 119.33 119.314 119.33H32.1635Z" fill="#90C85F"/>
</svg>
