<svg width="152" height="182" viewBox="0 0 152 182" fill="none" xmlns="http://www.w3.org/2000/svg">
<rect x="0.75" y="0.75" width="150" height="180" fill="white"/>
<rect x="0.75" y="0.75" width="150" height="180" stroke="#90C85F" stroke-width="1.5"/>
<path d="M45.7085 99.38C35.4185 99.38 32.3735 97.28 32.3735 88.355V57.8C32.3735 55.805 34.0535 54.125 36.0485 54.125C38.0435 54.125 39.6185 55.805 39.6185 57.8V69.56H64.9235V57.695C64.9235 55.7 66.4985 54.125 68.4935 54.125C70.4885 54.125 72.0635 55.7 72.0635 57.695V88.355C72.0635 97.28 69.0185 99.38 58.7285 99.38H45.7085ZM92.7485 99.38C82.4585 99.38 79.4135 97.28 79.4135 88.355V57.695C79.4135 55.7 80.9885 54.125 82.9835 54.125C84.9785 54.125 86.5535 55.7 86.5535 57.695V69.56H111.859V57.8C111.859 55.805 113.434 54.125 115.429 54.125C117.424 54.125 119.104 55.805 119.104 57.8V88.355C119.104 97.28 116.059 99.38 105.769 99.38H92.7485ZM32.0585 119.33C30.0635 119.33 28.5935 117.86 28.5935 115.865C28.5935 113.87 30.0635 112.4 32.0585 112.4H119.419C121.414 112.4 122.884 113.87 122.884 115.865C122.884 117.86 121.414 119.33 119.419 119.33H32.0585ZM39.6185 87.83C39.6185 91.925 40.4585 92.555 45.9185 92.555H58.6235C64.0835 92.555 64.9235 91.925 64.9235 87.83V76.28H39.6185V87.83ZM86.5535 87.83C86.5535 91.925 87.3935 92.555 92.8535 92.555H105.559C111.019 92.555 111.859 91.925 111.859 87.83V76.28H86.5535V87.83Z" fill="#90C85F"/>
</svg>
