<svg width="152" height="182" viewBox="0 0 152 182" fill="none" xmlns="http://www.w3.org/2000/svg">
<rect x="0.75" y="0.75" width="150" height="180" fill="white"/>
<rect x="0.75" y="0.75" width="150" height="180" stroke="#90C85F" stroke-width="1.5"/>
<path d="M114.799 121.22C112.804 121.22 111.124 119.645 111.124 117.545V55.805C111.124 53.81 112.804 52.13 114.799 52.13C116.794 52.13 118.474 53.81 118.474 55.805V81.215H124.669C126.664 81.215 128.239 82.79 128.239 84.785C128.239 86.78 126.664 88.355 124.669 88.355H118.474V117.545C118.474 119.645 116.794 121.22 114.799 121.22ZM44.4485 117.65C34.2635 117.65 31.2185 115.55 31.2185 106.625V57.8C31.2185 55.805 32.8985 54.125 34.8935 54.125C36.8885 54.125 38.5685 55.805 38.5685 57.8V77.96H84.0335V57.8C84.0335 55.805 85.7135 54.125 87.7085 54.125C89.7035 54.125 91.3835 55.805 91.3835 57.8V106.625C91.3835 115.55 88.3385 117.65 78.1535 117.65H44.4485ZM38.5685 105.995C38.5685 110.09 39.4085 110.72 44.8685 110.72H77.7335C83.1935 110.72 84.0335 110.09 84.0335 105.995V84.89H38.5685V105.995Z" fill="#90C85F"/>
</svg>
