<svg width="152" height="182" viewBox="0 0 152 182" fill="none" xmlns="http://www.w3.org/2000/svg">
<rect x="0.75" y="0.75" width="150" height="180" fill="white"/>
<rect x="0.75" y="0.75" width="150" height="180" stroke="#90C85F" stroke-width="1.5"/>
<path d="M115.744 85.94C113.749 85.94 112.069 84.365 112.069 82.265V70.715H104.404C102.514 70.715 101.044 69.245 101.044 67.355C101.044 65.465 102.514 63.995 104.404 63.995H112.069V55.805C112.069 53.81 113.749 52.13 115.744 52.13C117.739 52.13 119.419 53.81 119.419 55.805V82.265C119.419 84.365 117.739 85.94 115.744 85.94ZM76.3685 123.215C49.6985 123.215 31.9535 121.85 31.9535 113.24C31.9535 104.735 49.6985 103.37 76.3685 103.37C103.144 103.37 120.784 104.735 120.784 113.24C120.784 121.85 103.144 123.215 76.3685 123.215ZM76.3685 116.705C99.5735 116.705 113.014 115.235 113.014 113.24C113.014 111.35 99.5735 109.775 76.3685 109.775C53.2685 109.775 39.7235 111.35 39.7235 113.24C39.7235 115.235 53.2685 116.705 76.3685 116.705ZM116.689 93.5C118.579 93.5 120.049 94.865 120.049 96.755C120.049 98.645 118.579 100.01 116.689 100.01H36.0485C34.2635 100.01 32.7935 98.645 32.7935 96.755C32.7935 94.865 34.2635 93.5 36.0485 93.5H72.7985V91.19C72.7985 86.255 80.0435 86.255 80.0435 91.19V93.5H116.689ZM41.5085 84.68C34.3685 84.68 31.1135 81.95 31.1135 75.86V74.705C31.1135 68.72 34.3685 65.78 41.8235 65.78H78.8885C81.4085 65.78 82.3535 65.15 82.3535 63.365C82.3535 61.685 81.4085 60.95 78.8885 60.95H34.4735C29.9585 60.95 29.9585 54.23 34.4735 54.23H78.8885C86.1335 54.23 89.7035 57.17 89.7035 63.26C89.7035 69.35 86.3435 72.395 78.8885 72.395H41.9285C39.3035 72.395 38.4635 73.025 38.4635 75.02V75.335C38.4635 77.435 39.3035 77.96 41.9285 77.96C65.5535 77.96 81.1985 77.75 96.4235 75.23C101.569 74.39 102.514 81.215 97.6835 81.95C81.7235 84.365 66.4985 84.68 41.5085 84.68Z" fill="#90C85F"/>
</svg>
