<svg width="152" height="182" viewBox="0 0 152 182" fill="none" xmlns="http://www.w3.org/2000/svg">
<rect x="0.75" y="0.75" width="150" height="180" fill="white"/>
<rect x="0.75" y="0.75" width="150" height="180" stroke="#90C85F" stroke-width="1.5"/>
<path d="M30.9035 117.545C28.6985 118.385 26.9135 117.335 26.2835 115.76C25.6535 114.08 26.0735 112.085 28.1735 111.14C45.0785 103.895 60.4085 84.05 60.4085 62.105V62H32.4785C30.4835 62 29.0135 60.425 29.0135 58.535C29.0135 56.645 30.4835 55.07 32.4785 55.07H95.6885C97.6835 55.07 99.1535 56.645 99.1535 58.535C99.1535 60.425 97.6835 62 95.6885 62H67.7585V62.105C67.7585 83.63 82.1435 102.845 99.9935 111.14C102.199 112.085 102.619 114.185 101.884 115.76C101.254 117.335 99.4685 118.385 97.2635 117.545C83.6135 111.875 69.2285 96.65 64.0835 80.69C58.9385 96.86 44.3435 112.19 30.9035 117.545ZM115.849 121.22C113.854 121.22 112.174 119.645 112.174 117.545V55.805C112.174 53.81 113.854 52.13 115.849 52.13C117.844 52.13 119.524 53.81 119.524 55.805V117.545C119.524 119.645 117.844 121.22 115.849 121.22Z" fill="#90C85F"/>
</svg>
