<svg width="152" height="182" viewBox="0 0 152 182" fill="none" xmlns="http://www.w3.org/2000/svg">
<rect x="0.75" y="0.75" width="150" height="180" fill="white"/>
<rect x="0.75" y="0.75" width="150" height="180" stroke="#90C85F" stroke-width="1.5"/>
<path d="M43.0835 91.925C33.9485 91.925 31.1135 89.93 31.1135 81.845V64.31C31.1135 56.225 33.9485 54.23 43.0835 54.23H79.3085C88.4435 54.23 91.2785 56.12 91.2785 64.31V81.845C91.2785 89.93 88.4435 91.925 79.3085 91.925H43.0835ZM38.4635 80.9C38.4635 84.47 39.3035 84.995 44.2385 84.995H78.1535C83.0885 84.995 83.9285 84.47 83.9285 80.9V65.255C83.9285 61.685 83.0885 61.16 78.1535 61.16H44.2385C39.3035 61.16 38.4635 61.685 38.4635 65.255V80.9ZM115.744 102.215C113.749 102.215 112.069 100.64 112.069 98.54V89.615H105.559C103.669 89.615 102.094 88.04 102.094 86.15C102.094 84.26 103.669 82.685 105.559 82.685H112.069V69.035H105.559C103.669 69.035 102.094 67.46 102.094 65.57C102.094 63.68 103.669 62.105 105.559 62.105H112.069V55.805C112.069 53.81 113.749 52.13 115.744 52.13C117.739 52.13 119.419 53.81 119.419 55.805V98.54C119.419 100.64 117.739 102.215 115.744 102.215ZM46.8635 120.17C37.5185 120.17 33.7385 117.755 33.7385 110.93V102.005C33.7385 99.485 35.6285 98.225 37.5185 98.225C39.4085 98.225 41.2985 99.485 41.2985 102.005V109.04C41.2985 112.505 42.2435 113.03 48.2285 113.03H117.949C119.839 113.03 121.519 114.605 121.519 116.6C121.519 118.595 119.839 120.17 117.949 120.17H46.8635Z" fill="#90C85F"/>
</svg>
