<svg width="152" height="182" viewBox="0 0 152 182" fill="none" xmlns="http://www.w3.org/2000/svg">
<rect x="0.75" y="0.75" width="150" height="180" fill="white"/>
<rect x="0.75" y="0.75" width="150" height="180" stroke="#90C85F" stroke-width="1.5"/>
<path d="M31.5335 105.47C29.5385 105.47 28.0685 104 28.0685 102.005C28.0685 100.01 29.5385 98.54 31.5335 98.54H119.944C121.939 98.54 123.409 100.01 123.409 102.005C123.409 104 121.939 105.47 119.944 105.47H104.614V119.75C104.614 121.85 102.934 123.425 100.939 123.425C98.9435 123.425 97.2635 121.85 97.2635 119.75V105.47H54.2135V119.75C54.2135 121.85 52.5335 123.425 50.5385 123.425C48.5435 123.425 46.8635 121.85 46.8635 119.75V105.47H31.5335ZM31.6385 80.585C46.3385 76.49 62.2985 67.145 71.8535 54.44C72.9035 53.075 73.9535 52.13 75.7385 52.13C77.5235 52.13 78.5735 53.075 79.6235 54.44C89.1785 67.25 105.139 76.49 119.839 80.585C124.354 81.845 122.674 88.88 117.739 87.515C102.619 83.315 85.8185 73.235 75.7385 60.74C65.6585 73.235 48.8585 83.315 33.7385 87.515C28.6985 88.88 27.1235 81.845 31.6385 80.585Z" fill="#90C85F"/>
</svg>
