<svg width="152" height="182" viewBox="0 0 152 182" fill="none" xmlns="http://www.w3.org/2000/svg">
<rect x="0.75" y="0.75" width="150" height="180" fill="white"/>
<rect x="0.75" y="0.75" width="150" height="180" stroke="#90C85F" stroke-width="1.5"/>
<path d="M117.634 90.245C115.639 90.245 113.959 88.67 113.959 86.57V73.13H105.664V83C105.664 85.1 104.089 86.675 102.094 86.675C100.099 86.675 98.4185 85.1 98.4185 83V57.065C98.4185 55.07 100.099 53.39 102.094 53.39C104.089 53.39 105.664 55.07 105.664 57.065V66.2H113.959V55.805C113.959 53.81 115.639 52.13 117.634 52.13C119.629 52.13 121.309 53.81 121.309 55.805V86.57C121.309 88.67 119.629 90.245 117.634 90.245ZM38.5685 87.2C31.3235 87.2 28.0685 84.68 28.0685 78.695V75.965C28.0685 69.665 31.4285 66.935 38.9885 66.935H74.0585C77.3135 66.935 78.1535 66.41 78.1535 64.1V63.785C78.1535 61.58 77.3135 60.95 74.0585 60.95H31.4285C26.9135 60.95 26.9135 54.23 31.4285 54.23H74.2685C81.8285 54.23 85.5035 56.96 85.5035 63.365V64.415C85.5035 70.82 82.1435 73.655 74.4785 73.655H39.5135C36.2585 73.655 35.4185 74.18 35.4185 76.595V77.645C35.4185 79.955 36.1535 80.48 39.5135 80.48C62.4035 80.48 76.9985 79.955 91.4885 77.435C96.5285 76.49 97.5785 83.315 92.8535 84.155C77.5235 86.675 63.0335 87.2 38.5685 87.2ZM31.5335 114.5C39.9335 109.775 46.9685 103.475 51.7985 95.705C52.7435 94.235 54.2135 93.29 55.7885 93.29C57.3635 93.29 58.8335 94.235 59.7785 95.705C64.3985 103.265 70.5935 109.145 78.3635 113.87C86.1335 109.145 92.3285 103.265 96.9485 95.705C97.8935 94.235 99.3635 93.29 100.939 93.29C102.514 93.29 103.984 94.235 104.929 95.705C109.759 103.475 116.794 109.775 125.299 114.605C129.604 117.02 126.139 123.11 121.834 120.695C113.539 115.97 105.559 109.04 100.939 102.11C96.2135 109.145 88.4435 116.075 80.4635 120.695C79.0985 121.535 77.6285 121.535 76.2635 120.695C68.2835 116.075 60.5135 109.04 55.7885 102.005C51.1685 108.935 43.1885 115.865 34.8935 120.59C30.5885 123.11 27.2285 116.915 31.5335 114.5Z" fill="#90C85F"/>
</svg>
