<svg width="152" height="182" viewBox="0 0 152 182" fill="none" xmlns="http://www.w3.org/2000/svg">
<rect x="0.75" y="0.75" width="150" height="180" fill="white"/>
<rect x="0.75" y="0.75" width="150" height="180" stroke="#90C85F" stroke-width="1.5"/>
<path d="M96.0035 87.83C94.0085 87.83 92.4335 86.255 92.4335 84.26C92.4335 82.265 94.0085 80.69 96.0035 80.69H100.939V57.275C100.939 55.28 102.619 53.6 104.614 53.6C106.609 53.6 108.184 55.28 108.184 57.275V115.34C108.184 117.44 106.609 119.015 104.614 119.015C102.619 119.015 100.939 117.44 100.939 115.34V87.83H96.0035ZM118.579 121.22C116.584 121.22 114.904 119.645 114.904 117.545V55.805C114.904 53.81 116.584 52.13 118.579 52.13C120.574 52.13 122.254 53.81 122.254 55.805V117.545C122.254 119.645 120.574 121.22 118.579 121.22ZM28.3835 117.44C26.3885 118.49 24.4985 117.545 23.6585 116.075C22.9235 114.605 23.1335 112.505 25.2335 111.245C41.5085 101.9 55.2635 83.42 55.2635 62.105V62H29.5385C27.5435 62 26.0735 60.425 26.0735 58.535C26.0735 56.645 27.5435 55.07 29.5385 55.07H88.3385C90.3335 55.07 91.8035 56.645 91.8035 58.535C91.8035 60.425 90.3335 62 88.3385 62H62.6135V62.105C62.6135 83.63 76.3685 101.69 92.5385 111.35C94.6385 112.61 94.8485 114.71 93.9035 116.18C93.0635 117.65 91.1735 118.49 88.9685 117.23C76.8935 110.09 64.2935 96.755 58.9385 80.69C53.6885 96.125 41.4035 110.405 28.3835 117.44Z" fill="#90C85F"/>
</svg>
