<svg width="152" height="182" viewBox="0 0 152 182" fill="none" xmlns="http://www.w3.org/2000/svg">
<rect x="0.75" y="0.75" width="150" height="180" fill="white"/>
<rect x="0.75" y="0.75" width="150" height="180" stroke="#90C85F" stroke-width="1.5"/>
<path d="M75.7385 100.325C48.9635 100.325 30.5885 90.56 30.5885 76.07C30.5885 61.475 48.9635 51.815 75.7385 51.815C102.514 51.815 120.889 61.475 120.889 76.07C120.889 90.56 102.514 100.325 75.7385 100.325ZM75.7385 93.395C97.8935 93.395 113.539 86.57 113.539 76.07C113.539 65.57 97.8935 58.745 75.7385 58.745C53.5835 58.745 37.9385 65.57 37.9385 76.07C37.9385 86.57 53.5835 93.395 75.7385 93.395ZM32.0585 119.435C30.0635 119.435 28.5935 117.965 28.5935 115.97C28.5935 113.975 30.0635 112.505 32.0585 112.505H72.0635V107.36C72.0635 105.26 73.7435 103.685 75.7385 103.685C77.7335 103.685 79.4135 105.26 79.4135 107.36V112.505H119.419C121.414 112.505 122.884 113.975 122.884 115.97C122.884 117.965 121.414 119.435 119.419 119.435H32.0585Z" fill="#90C85F"/>
</svg>
