<svg width="152" height="182" viewBox="0 0 152 182" fill="none" xmlns="http://www.w3.org/2000/svg">
<rect x="0.75" y="0.75" width="150" height="180" fill="white"/>
<rect x="0.75" y="0.75" width="150" height="180" stroke="#90C85F" stroke-width="1.5"/>
<path d="M94.7435 89.93C92.7485 89.93 91.1735 88.355 91.1735 86.36C91.1735 84.365 92.7485 82.79 94.7435 82.79H100.939V57.275C100.939 55.28 102.619 53.6 104.614 53.6C106.609 53.6 108.184 55.28 108.184 57.275V115.34C108.184 117.44 106.609 119.015 104.614 119.015C102.619 119.015 100.939 117.44 100.939 115.34V89.93H94.7435ZM118.579 121.22C116.584 121.22 114.904 119.645 114.904 117.545V55.805C114.904 53.81 116.584 52.13 118.579 52.13C120.574 52.13 122.254 53.81 122.254 55.805V117.545C122.254 119.645 120.574 121.22 118.579 121.22ZM31.1135 118.49C28.6985 118.805 27.2285 117.335 27.0185 115.655C26.7035 113.975 27.5435 112.085 29.8535 111.665C50.7485 107.675 73.3235 92.345 78.6785 66.305C79.5185 62.63 79.2035 62 76.2635 62H32.4785C30.5885 62 29.0135 60.425 29.0135 58.535C29.0135 56.645 30.5885 55.07 32.4785 55.07H77.8385C85.8185 55.07 87.9185 59.27 85.7135 68.3C79.0985 98.75 52.0085 114.92 31.1135 118.49Z" fill="#90C85F"/>
</svg>
