<svg width="1652" height="541" viewBox="0 0 1652 541" fill="none" xmlns="http://www.w3.org/2000/svg">
<rect x="0.75" y="0.75" width="150" height="180" fill="white"/>
<rect x="0.75" y="0.75" width="150" height="180" stroke="#90C85F" stroke-width="1.5"/>
<path d="M112.069 97.7C111.334 100.01 109.234 100.85 107.554 100.325C105.769 99.8 104.404 98.12 105.139 95.495C107.974 85.835 109.759 77.015 110.389 66.935C110.494 64.94 110.389 63.785 109.654 63.155C108.814 62.315 107.344 62.105 104.404 62.105H35.7335C33.8435 62.105 32.3735 60.53 32.3735 58.64C32.3735 56.75 33.8435 55.07 35.7335 55.07H104.824C110.284 55.07 113.749 55.7 115.639 57.695C117.424 59.375 117.949 62.105 117.844 66.41C117.109 79.745 114.694 89.3 112.069 97.7ZM32.1635 119.33C30.1685 119.33 28.5935 117.755 28.5935 115.76C28.5935 113.765 30.1685 112.19 32.1635 112.19H119.314C121.309 112.19 122.884 113.765 122.884 115.76C122.884 117.755 121.309 119.33 119.314 119.33H32.1635Z" fill="#90C85F"/>
<rect x="150.75" y="0.75" width="150" height="180" fill="white"/>
<rect x="150.75" y="0.75" width="150" height="180" stroke="#90C85F" stroke-width="1.5"/>
<path d="M265.744 85.94C263.749 85.94 262.069 84.365 262.069 82.265V70.715H254.404C252.514 70.715 251.044 69.245 251.044 67.355C251.044 65.465 252.514 63.995 254.404 63.995H262.069V55.805C262.069 53.81 263.749 52.13 265.744 52.13C267.739 52.13 269.419 53.81 269.419 55.805V82.265C269.419 84.365 267.739 85.94 265.744 85.94ZM226.369 123.215C199.699 123.215 181.954 121.85 181.954 113.24C181.954 104.735 199.699 103.37 226.369 103.37C253.144 103.37 270.784 104.735 270.784 113.24C270.784 121.85 253.144 123.215 226.369 123.215ZM226.369 116.705C249.574 116.705 263.014 115.235 263.014 113.24C263.014 111.35 249.574 109.775 226.369 109.775C203.269 109.775 189.724 111.35 189.724 113.24C189.724 115.235 203.269 116.705 226.369 116.705ZM266.689 93.5C268.579 93.5 270.049 94.865 270.049 96.755C270.049 98.645 268.579 100.01 266.689 100.01H186.049C184.264 100.01 182.794 98.645 182.794 96.755C182.794 94.865 184.264 93.5 186.049 93.5H222.799V91.19C222.799 86.255 230.044 86.255 230.044 91.19V93.5H266.689ZM191.509 84.68C184.369 84.68 181.114 81.95 181.114 75.86V74.705C181.114 68.72 184.369 65.78 191.824 65.78H228.889C231.409 65.78 232.354 65.15 232.354 63.365C232.354 61.685 231.409 60.95 228.889 60.95H184.474C179.959 60.95 179.959 54.23 184.474 54.23H228.889C236.134 54.23 239.704 57.17 239.704 63.26C239.704 69.35 236.344 72.395 228.889 72.395H191.929C189.304 72.395 188.464 73.025 188.464 75.02V75.335C188.464 77.435 189.304 77.96 191.929 77.96C215.554 77.96 231.199 77.75 246.424 75.23C251.569 74.39 252.514 81.215 247.684 81.95C231.724 84.365 216.499 84.68 191.509 84.68Z" fill="#90C85F"/>
<rect x="300.75" y="60.75" width="150" height="180" fill="white"/>
<rect x="300.75" y="60.75" width="150" height="180" stroke="#90C85F" stroke-width="1.5"/>
<path d="M394.744 149.93C392.749 149.93 391.174 148.355 391.174 146.36C391.174 144.365 392.749 142.79 394.744 142.79H400.939V117.275C400.939 115.28 402.619 113.6 404.614 113.6C406.609 113.6 408.184 115.28 408.184 117.275V175.34C408.184 177.44 406.609 179.015 404.614 179.015C402.619 179.015 400.939 177.44 400.939 175.34V149.93H394.744ZM418.579 181.22C416.584 181.22 414.904 179.645 414.904 177.545V115.805C414.904 113.81 416.584 112.13 418.579 112.13C420.574 112.13 422.254 113.81 422.254 115.805V177.545C422.254 179.645 420.574 181.22 418.579 181.22ZM331.114 178.49C328.699 178.805 327.229 177.335 327.019 175.655C326.704 173.975 327.544 172.085 329.854 171.665C350.749 167.675 373.324 152.345 378.679 126.305C379.519 122.63 379.204 122 376.264 122H332.479C330.589 122 329.014 120.425 329.014 118.535C329.014 116.645 330.589 115.07 332.479 115.07H377.839C385.819 115.07 387.919 119.27 385.714 128.3C379.099 158.75 352.009 174.92 331.114 178.49Z" fill="#90C85F"/>
<rect x="450.75" y="0.75" width="150" height="180" fill="white"/>
<rect x="450.75" y="0.75" width="150" height="180" stroke="#90C85F" stroke-width="1.5"/>
<path d="M564.799 121.22C562.804 121.22 561.124 119.645 561.124 117.545V55.805C561.124 53.81 562.804 52.13 564.799 52.13C566.794 52.13 568.474 53.81 568.474 55.805V81.215H574.669C576.664 81.215 578.239 82.79 578.239 84.785C578.239 86.78 576.664 88.355 574.669 88.355H568.474V117.545C568.474 119.645 566.794 121.22 564.799 121.22ZM494.449 117.65C484.264 117.65 481.219 115.55 481.219 106.625V57.8C481.219 55.805 482.899 54.125 484.894 54.125C486.889 54.125 488.569 55.805 488.569 57.8V77.96H534.034V57.8C534.034 55.805 535.714 54.125 537.709 54.125C539.704 54.125 541.384 55.805 541.384 57.8V106.625C541.384 115.55 538.339 117.65 528.154 117.65H494.449ZM488.569 105.995C488.569 110.09 489.409 110.72 494.869 110.72H527.734C533.194 110.72 534.034 110.09 534.034 105.995V84.89H488.569V105.995Z" fill="#90C85F"/>
<rect x="600.75" y="0.75" width="150" height="180" fill="white"/>
<rect x="600.75" y="0.75" width="150" height="180" stroke="#90C85F" stroke-width="1.5"/>
<path d="M645.709 99.38C635.419 99.38 632.374 97.28 632.374 88.355V57.8C632.374 55.805 634.054 54.125 636.049 54.125C638.044 54.125 639.619 55.805 639.619 57.8V69.56H664.924V57.695C664.924 55.7 666.499 54.125 668.494 54.125C670.489 54.125 672.064 55.7 672.064 57.695V88.355C672.064 97.28 669.019 99.38 658.729 99.38H645.709ZM692.749 99.38C682.459 99.38 679.414 97.28 679.414 88.355V57.695C679.414 55.7 680.989 54.125 682.984 54.125C684.979 54.125 686.554 55.7 686.554 57.695V69.56H711.859V57.8C711.859 55.805 713.434 54.125 715.429 54.125C717.424 54.125 719.104 55.805 719.104 57.8V88.355C719.104 97.28 716.059 99.38 705.769 99.38H692.749ZM632.059 119.33C630.064 119.33 628.594 117.86 628.594 115.865C628.594 113.87 630.064 112.4 632.059 112.4H719.419C721.414 112.4 722.884 113.87 722.884 115.865C722.884 117.86 721.414 119.33 719.419 119.33H632.059ZM639.619 87.83C639.619 91.925 640.459 92.555 645.919 92.555H658.624C664.084 92.555 664.924 91.925 664.924 87.83V76.28H639.619V87.83ZM686.554 87.83C686.554 91.925 687.394 92.555 692.854 92.555H705.559C711.019 92.555 711.859 91.925 711.859 87.83V76.28H686.554V87.83Z" fill="#90C85F"/>
<rect x="750.75" y="60.75" width="150" height="180" fill="white"/>
<rect x="750.75" y="60.75" width="150" height="180" stroke="#90C85F" stroke-width="1.5"/>
<path d="M793.084 151.925C783.949 151.925 781.114 149.93 781.114 141.845V124.31C781.114 116.225 783.949 114.23 793.084 114.23H829.309C838.444 114.23 841.279 116.12 841.279 124.31V141.845C841.279 149.93 838.444 151.925 829.309 151.925H793.084ZM788.464 140.9C788.464 144.47 789.304 144.995 794.239 144.995H828.154C833.089 144.995 833.929 144.47 833.929 140.9V125.255C833.929 121.685 833.089 121.16 828.154 121.16H794.239C789.304 121.16 788.464 121.685 788.464 125.255V140.9ZM865.744 162.215C863.749 162.215 862.069 160.64 862.069 158.54V149.615H855.559C853.669 149.615 852.094 148.04 852.094 146.15C852.094 144.26 853.669 142.685 855.559 142.685H862.069V129.035H855.559C853.669 129.035 852.094 127.46 852.094 125.57C852.094 123.68 853.669 122.105 855.559 122.105H862.069V115.805C862.069 113.81 863.749 112.13 865.744 112.13C867.739 112.13 869.419 113.81 869.419 115.805V158.54C869.419 160.64 867.739 162.215 865.744 162.215ZM796.864 180.17C787.519 180.17 783.739 177.755 783.739 170.93V162.005C783.739 159.485 785.629 158.225 787.519 158.225C789.409 158.225 791.299 159.485 791.299 162.005V169.04C791.299 172.505 792.244 173.03 798.229 173.03H867.949C869.839 173.03 871.519 174.605 871.519 176.6C871.519 178.595 869.839 180.17 867.949 180.17H796.864Z" fill="#90C85F"/>
<rect x="600.75" y="240.75" width="150" height="180" fill="white"/>
<rect x="600.75" y="240.75" width="150" height="180" stroke="#90C85F" stroke-width="1.5"/>
<path d="M715.849 361.22C713.854 361.22 712.174 359.645 712.174 357.545V328.355H704.719C702.724 328.355 701.149 326.78 701.149 324.785C701.149 322.79 702.724 321.215 704.719 321.215H712.174V295.805C712.174 293.81 713.854 292.13 715.849 292.13C717.844 292.13 719.524 293.81 719.524 295.805V357.545C719.524 359.645 717.844 361.22 715.849 361.22ZM661.774 361.01C643.399 361.01 627.964 346.94 627.964 326.675C627.964 306.41 643.399 292.34 661.774 292.34C680.149 292.34 695.584 306.41 695.584 326.675C695.584 346.94 680.149 361.01 661.774 361.01ZM661.774 354.08C676.579 354.08 688.234 342.635 688.234 326.675C688.234 310.715 676.579 299.27 661.774 299.27C646.969 299.27 635.314 310.715 635.314 326.675C635.314 342.635 646.969 354.08 661.774 354.08Z" fill="#90C85F"/>
<rect x="750.75" y="300.75" width="150" height="180" fill="white"/>
<rect x="750.75" y="300.75" width="150" height="180" stroke="#90C85F" stroke-width="1.5"/>
<path d="M846.004 387.83C844.009 387.83 842.434 386.255 842.434 384.26C842.434 382.265 844.009 380.69 846.004 380.69H850.939V357.275C850.939 355.28 852.619 353.6 854.614 353.6C856.609 353.6 858.184 355.28 858.184 357.275V415.34C858.184 417.44 856.609 419.015 854.614 419.015C852.619 419.015 850.939 417.44 850.939 415.34V387.83H846.004ZM868.579 421.22C866.584 421.22 864.904 419.645 864.904 417.545V355.805C864.904 353.81 866.584 352.13 868.579 352.13C870.574 352.13 872.254 353.81 872.254 355.805V417.545C872.254 419.645 870.574 421.22 868.579 421.22ZM778.384 417.44C776.389 418.49 774.499 417.545 773.659 416.075C772.924 414.605 773.134 412.505 775.234 411.245C791.509 401.9 805.264 383.42 805.264 362.105V362H779.539C777.544 362 776.074 360.425 776.074 358.535C776.074 356.645 777.544 355.07 779.539 355.07H838.339C840.334 355.07 841.804 356.645 841.804 358.535C841.804 360.425 840.334 362 838.339 362H812.614V362.105C812.614 383.63 826.369 401.69 842.539 411.35C844.639 412.61 844.849 414.71 843.904 416.18C843.064 417.65 841.174 418.49 838.969 417.23C826.894 410.09 814.294 396.755 808.939 380.69C803.689 396.125 791.404 410.405 778.384 417.44Z" fill="#90C85F"/>
<rect x="900.75" y="300.75" width="150" height="180" fill="white"/>
<rect x="900.75" y="300.75" width="150" height="180" stroke="#90C85F" stroke-width="1.5"/>
<path d="M975.739 400.325C948.964 400.325 930.589 390.56 930.589 376.07C930.589 361.475 948.964 351.815 975.739 351.815C1002.51 351.815 1020.89 361.475 1020.89 376.07C1020.89 390.56 1002.51 400.325 975.739 400.325ZM975.739 393.395C997.894 393.395 1013.54 386.57 1013.54 376.07C1013.54 365.57 997.894 358.745 975.739 358.745C953.584 358.745 937.939 365.57 937.939 376.07C937.939 386.57 953.584 393.395 975.739 393.395ZM932.059 419.435C930.064 419.435 928.594 417.965 928.594 415.97C928.594 413.975 930.064 412.505 932.059 412.505H972.064V407.36C972.064 405.26 973.744 403.685 975.739 403.685C977.734 403.685 979.414 405.26 979.414 407.36V412.505H1019.42C1021.41 412.505 1022.88 413.975 1022.88 415.97C1022.88 417.965 1021.41 419.435 1019.42 419.435H932.059Z" fill="#90C85F"/>
<rect x="1050.75" y="359.75" width="150" height="180" fill="white"/>
<rect x="1050.75" y="359.75" width="150" height="180" stroke="#90C85F" stroke-width="1.5"/>
<path d="M1080.9 476.545C1078.7 477.385 1076.91 476.335 1076.28 474.76C1075.65 473.08 1076.07 471.085 1078.17 470.14C1095.08 462.895 1110.41 443.05 1110.41 421.105V421H1082.48C1080.48 421 1079.01 419.425 1079.01 417.535C1079.01 415.645 1080.48 414.07 1082.48 414.07H1145.69C1147.68 414.07 1149.15 415.645 1149.15 417.535C1149.15 419.425 1147.68 421 1145.69 421H1117.76V421.105C1117.76 442.63 1132.14 461.845 1149.99 470.14C1152.2 471.085 1152.62 473.185 1151.88 474.76C1151.25 476.335 1149.47 477.385 1147.26 476.545C1133.61 470.875 1119.23 455.65 1114.08 439.69C1108.94 455.86 1094.34 471.19 1080.9 476.545ZM1165.85 480.22C1163.85 480.22 1162.17 478.645 1162.17 476.545V414.805C1162.17 412.81 1163.85 411.13 1165.85 411.13C1167.84 411.13 1169.52 412.81 1169.52 414.805V476.545C1169.52 478.645 1167.84 480.22 1165.85 480.22Z" fill="#90C85F"/>
<rect x="1200.75" y="300.75" width="150" height="180" fill="white"/>
<rect x="1200.75" y="300.75" width="150" height="180" stroke="#90C85F" stroke-width="1.5"/>
<path d="M1312.07 397.7C1311.33 400.01 1309.23 400.85 1307.55 400.325C1305.77 399.8 1304.4 398.12 1305.14 395.495C1307.97 385.835 1309.76 377.015 1310.39 366.935C1310.49 364.94 1310.39 363.785 1309.65 363.155C1308.81 362.315 1307.34 362.105 1304.4 362.105H1235.73C1233.84 362.105 1232.37 360.53 1232.37 358.64C1232.37 356.75 1233.84 355.07 1235.73 355.07H1304.82C1310.28 355.07 1313.75 355.7 1315.64 357.695C1317.42 359.375 1317.95 362.105 1317.84 366.41C1317.11 379.745 1314.69 389.3 1312.07 397.7ZM1232.16 419.33C1230.17 419.33 1228.59 417.755 1228.59 415.76C1228.59 413.765 1230.17 412.19 1232.16 412.19H1319.31C1321.31 412.19 1322.88 413.765 1322.88 415.76C1322.88 417.755 1321.31 419.33 1319.31 419.33H1232.16Z" fill="#90C85F"/>
<rect x="1350.75" y="300.75" width="150" height="180" fill="white"/>
<rect x="1350.75" y="300.75" width="150" height="180" stroke="#90C85F" stroke-width="1.5"/>
<path d="M1467.63 390.245C1465.64 390.245 1463.96 388.67 1463.96 386.57V373.13H1455.66V383C1455.66 385.1 1454.09 386.675 1452.09 386.675C1450.1 386.675 1448.42 385.1 1448.42 383V357.065C1448.42 355.07 1450.1 353.39 1452.09 353.39C1454.09 353.39 1455.66 355.07 1455.66 357.065V366.2H1463.96V355.805C1463.96 353.81 1465.64 352.13 1467.63 352.13C1469.63 352.13 1471.31 353.81 1471.31 355.805V386.57C1471.31 388.67 1469.63 390.245 1467.63 390.245ZM1388.57 387.2C1381.32 387.2 1378.07 384.68 1378.07 378.695V375.965C1378.07 369.665 1381.43 366.935 1388.99 366.935H1424.06C1427.31 366.935 1428.15 366.41 1428.15 364.1V363.785C1428.15 361.58 1427.31 360.95 1424.06 360.95H1381.43C1376.91 360.95 1376.91 354.23 1381.43 354.23H1424.27C1431.83 354.23 1435.5 356.96 1435.5 363.365V364.415C1435.5 370.82 1432.14 373.655 1424.48 373.655H1389.51C1386.26 373.655 1385.42 374.18 1385.42 376.595V377.645C1385.42 379.955 1386.15 380.48 1389.51 380.48C1412.4 380.48 1427 379.955 1441.49 377.435C1446.53 376.49 1447.58 383.315 1442.85 384.155C1427.52 386.675 1413.03 387.2 1388.57 387.2ZM1381.53 414.5C1389.93 409.775 1396.97 403.475 1401.8 395.705C1402.74 394.235 1404.21 393.29 1405.79 393.29C1407.36 393.29 1408.83 394.235 1409.78 395.705C1414.4 403.265 1420.59 409.145 1428.36 413.87C1436.13 409.145 1442.33 403.265 1446.95 395.705C1447.89 394.235 1449.36 393.29 1450.94 393.29C1452.51 393.29 1453.98 394.235 1454.93 395.705C1459.76 403.475 1466.79 409.775 1475.3 414.605C1479.6 417.02 1476.14 423.11 1471.83 420.695C1463.54 415.97 1455.56 409.04 1450.94 402.11C1446.21 409.145 1438.44 416.075 1430.46 420.695C1429.1 421.535 1427.63 421.535 1426.26 420.695C1418.28 416.075 1410.51 409.04 1405.79 402.005C1401.17 408.935 1393.19 415.865 1384.89 420.59C1380.59 423.11 1377.23 416.915 1381.53 414.5Z" fill="#90C85F"/>
<rect x="1500.75" y="359.75" width="150" height="180" fill="white"/>
<rect x="1500.75" y="359.75" width="150" height="180" stroke="#90C85F" stroke-width="1.5"/>
<path d="M1531.53 464.47C1529.54 464.47 1528.07 463 1528.07 461.005C1528.07 459.01 1529.54 457.54 1531.53 457.54H1619.94C1621.94 457.54 1623.41 459.01 1623.41 461.005C1623.41 463 1621.94 464.47 1619.94 464.47H1604.61V478.75C1604.61 480.85 1602.93 482.425 1600.94 482.425C1598.94 482.425 1597.26 480.85 1597.26 478.75V464.47H1554.21V478.75C1554.21 480.85 1552.53 482.425 1550.54 482.425C1548.54 482.425 1546.86 480.85 1546.86 478.75V464.47H1531.53ZM1531.64 439.585C1546.34 435.49 1562.3 426.145 1571.85 413.44C1572.9 412.075 1573.95 411.13 1575.74 411.13C1577.52 411.13 1578.57 412.075 1579.62 413.44C1589.18 426.25 1605.14 435.49 1619.84 439.585C1624.35 440.845 1622.67 447.88 1617.74 446.515C1602.62 442.315 1585.82 432.235 1575.74 419.74C1565.66 432.235 1548.86 442.315 1533.74 446.515C1528.7 447.88 1527.12 440.845 1531.64 439.585Z" fill="#90C85F"/>
</svg>
