<svg width="218" height="46" viewBox="0 0 218 46" fill="none" xmlns="http://www.w3.org/2000/svg">
<rect x="0.5" y="0.5" width="217" height="45" fill="#90C85F"/>
<rect x="0.5" y="0.5" width="217" height="45" stroke="black"/>
<path d="M23.04 28.8L23.24 29.8C22.22 30.12 20.98 30.24 19.8 30.24C15.98 30.24 14.16 27.68 14.14 24.34C14.1 21.24 15.98 18.6 19.2 18.62C22.5 18.62 23.98 20.76 23.98 23.94V24.66H15.42C15.5 27.16 16.92 29.26 19.84 29.24C20.86 29.24 22.02 29.12 23.04 28.8ZM15.38 23.68H22.72C22.72 23.64 22.76 23.46 22.72 23.42C22.7 21.04 21.38 19.62 19.2 19.62C16.72 19.62 15.54 21.6 15.38 23.68ZM28.5397 29.66C28.5397 30.3 28.0397 30.78 27.3997 30.78C26.7197 30.78 26.2197 30.3 26.2197 29.66C26.2197 29.06 26.7197 28.54 27.3997 28.54C28.0397 28.54 28.5397 29.06 28.5397 29.66ZM40.028 29.42V27.92H39.908C39.128 29.14 37.688 29.86 36.128 29.86C33.068 29.88 31.328 27.5 31.328 24.24C31.328 21 33.108 18.62 36.208 18.64C37.788 18.64 39.088 19.3 39.888 20.48H39.988V18.9H41.268V29.6C41.268 32.68 39.148 34.24 36.108 34.24C35.048 34.24 33.668 34.08 32.648 33.74L32.928 32.72C33.928 33.1 35.048 33.24 36.108 33.24C38.728 33.24 40.028 31.82 40.028 29.42ZM39.968 25.22V23.12C39.968 21.16 38.228 19.64 36.348 19.64C33.968 19.64 32.588 21.6 32.588 24.24C32.588 26.88 33.848 28.86 36.268 28.86C38.208 28.86 39.968 27.32 39.968 25.22ZM46.9186 29.66C46.9186 30.3 46.4186 30.78 45.7786 30.78C45.0986 30.78 44.5986 30.3 44.5986 29.66C44.5986 29.06 45.0986 28.54 45.7786 28.54C46.4186 28.54 46.9186 29.06 46.9186 29.66ZM55.8919 27.82L54.8719 26.96C59.0119 24.64 61.1519 20.2 61.3919 16.24H55.8719V15.16H62.8319C62.7319 20.66 60.0919 25.26 55.8919 27.82ZM70.5119 31.64H69.1919V24.38H66.4319V30.8H65.1519V14.16H66.4319V17.66H69.1919V13.86H70.5119V31.64ZM69.1919 23.24V18.8H66.4319V23.24H69.1919ZM74.3103 27.84L73.4503 26.94C78.1703 24.64 80.8103 20.64 81.3103 16.12H74.5503V15.04H82.7703C82.4903 21.06 79.0303 25.46 74.3103 27.84ZM87.8303 31.64H86.5103V13.86H87.8303V20.8H90.8303V21.94H87.8303V31.64ZM114.554 29.18H97.0738V28.1H105.114V23.92C101.614 23.7 99.2538 21.7 99.2538 19.08C99.2538 16.32 101.914 14.22 105.794 14.22C109.694 14.22 112.374 16.32 112.374 19.08C112.374 21.7 109.994 23.7 106.494 23.92V28.1H114.554V29.18ZM111.034 19.08C111.034 16.82 108.754 15.3 105.794 15.3C102.854 15.3 100.574 16.82 100.574 19.08C100.574 21.36 102.854 22.86 105.794 22.86C108.754 22.86 111.034 21.36 111.034 19.08ZM132.932 22H115.492V20.96H132.932V22ZM130.912 19H117.932V13.9H119.272V17.96H130.912V19ZM130.892 31.44H117.912V27.16H129.112V25.08H117.912V24.02H130.452V28.16H119.252V30.38H130.892V31.44ZM149.856 18.84C149.856 21.4 147.856 23.44 144.996 23.44C142.096 23.44 140.136 21.4 140.136 18.84C140.136 16.24 142.096 14.18 144.996 14.18C147.856 14.18 149.856 16.24 149.856 18.84ZM144.996 22.36C147.176 22.36 148.496 20.8 148.496 18.82C148.496 16.82 147.176 15.26 144.996 15.26C142.776 15.26 141.476 16.82 141.476 18.82C141.476 20.8 142.776 22.36 144.996 22.36ZM155.296 31.36H142.916V25.44H144.256V30.28H155.296V31.36ZM154.556 27.06H153.236V13.86H154.556V18.34H157.276V19.46H154.556V27.06ZM175.354 24.5H157.914V23.42H165.934V21.02C162.294 20.86 160.074 19.38 160.074 17.4C160.074 15.3 162.554 13.76 166.614 13.76C170.674 13.76 173.174 15.3 173.174 17.4C173.174 19.38 170.954 20.86 167.314 21.02V23.42H175.354V24.5ZM171.834 17.4C171.834 15.74 169.594 14.82 166.614 14.82C163.654 14.82 161.394 15.74 161.394 17.4C161.394 19.06 163.654 19.98 166.614 19.98C169.594 19.98 171.834 19.06 171.834 17.4ZM173.674 31.36H160.374V26H161.714V30.26H173.674V31.36ZM188.893 25.16V26.24C186.653 26.7 183.153 26.92 180.473 26.92H177.713V15.04H186.293V16.12H179.033V25.82H180.473C183.153 25.82 186.493 25.6 188.893 25.16ZM191.073 31.64H189.753V13.86H191.073V17.42H193.973V18.56H191.073V22.86H193.973V24H191.073V31.64ZM199.251 26.6H198.091V25.74C198.091 23.92 198.531 22.84 200.311 21.38C201.451 20.44 202.231 19.22 202.231 18.08C202.231 16.2 200.671 15.4 199.011 15.4C198.031 15.4 196.551 15.8 195.511 16.42L195.031 15.52C196.111 14.88 197.751 14.38 199.111 14.38C201.371 14.38 203.511 15.44 203.511 18.04C203.511 19.5 202.751 20.74 201.391 21.88C199.651 23.38 199.251 24.1 199.251 25.82V26.6ZM199.811 29.84C199.811 30.46 199.311 30.94 198.691 30.94C198.011 30.94 197.531 30.46 197.531 29.84C197.531 29.26 198.011 28.74 198.691 28.74C199.311 28.74 199.811 29.26 199.811 29.84Z" fill="white"/>
</svg>
