<svg width="213" height="46" viewBox="0 0 213 46" fill="none" xmlns="http://www.w3.org/2000/svg">
<rect x="0.5" y="0.5" width="212" height="45" fill="#90C85F"/>
<rect x="0.5" y="0.5" width="212" height="45" stroke="black"/>
<path d="M23.04 28.8L23.24 29.8C22.22 30.12 20.98 30.24 19.8 30.24C15.98 30.24 14.16 27.68 14.14 24.34C14.1 21.24 15.98 18.6 19.2 18.62C22.5 18.62 23.98 20.76 23.98 23.94V24.66H15.42C15.5 27.16 16.92 29.26 19.84 29.24C20.86 29.24 22.02 29.12 23.04 28.8ZM15.38 23.68H22.72C22.72 23.64 22.76 23.46 22.72 23.42C22.7 21.04 21.38 19.62 19.2 19.62C16.72 19.62 15.54 21.6 15.38 23.68ZM28.5397 29.66C28.5397 30.3 28.0397 30.78 27.3997 30.78C26.7197 30.78 26.2197 30.3 26.2197 29.66C26.2197 29.06 26.7197 28.54 27.3997 28.54C28.0397 28.54 28.5397 29.06 28.5397 29.66ZM40.028 29.42V27.92H39.908C39.128 29.14 37.688 29.86 36.128 29.86C33.068 29.88 31.328 27.5 31.328 24.24C31.328 21 33.108 18.62 36.208 18.64C37.788 18.64 39.088 19.3 39.888 20.48H39.988V18.9H41.268V29.6C41.268 32.68 39.148 34.24 36.108 34.24C35.048 34.24 33.668 34.08 32.648 33.74L32.928 32.72C33.928 33.1 35.048 33.24 36.108 33.24C38.728 33.24 40.028 31.82 40.028 29.42ZM39.968 25.22V23.12C39.968 21.16 38.228 19.64 36.348 19.64C33.968 19.64 32.588 21.6 32.588 24.24C32.588 26.88 33.848 28.86 36.268 28.86C38.208 28.86 39.968 27.32 39.968 25.22ZM46.9186 29.66C46.9186 30.3 46.4186 30.78 45.7786 30.78C45.0986 30.78 44.5986 30.3 44.5986 29.66C44.5986 29.06 45.0986 28.54 45.7786 28.54C46.4186 28.54 46.9186 29.06 46.9186 29.66ZM70.5119 23.2H69.1919V18.36H66.2319V23.2H64.9119V14.16H66.2319V17.22H69.1919V13.86H70.5119V23.2ZM70.4719 31.44H58.1719V24.04H59.5119V26.56H69.1319V24.04H70.4719V31.44ZM69.1119 30.4V27.58H59.5119V30.4H69.1119ZM64.0719 20.38V21.46C62.4519 21.78 60.0319 21.96 57.9719 21.96H55.9119V14.42H57.2319V20.86H57.9719C60.0319 20.86 62.3919 20.68 64.0719 20.38ZM88.5103 31.64H87.1903V27.68H82.7903V26.6H87.1903V13.86H88.5103V31.64ZM84.7103 20.9H74.9903V14.74H84.2903V15.82H76.3303V19.82H84.7103V20.9ZM80.2303 31.22H78.8903V24.4H73.4703V23.32H80.0103C82.2503 23.32 84.7303 23.12 86.4303 22.8V23.86C84.8503 24.22 82.6703 24.38 80.2303 24.4V31.22ZM106.749 18.06C106.749 20.36 104.269 22.16 100.129 22.16C96.0088 22.16 93.5288 20.36 93.5288 18.06C93.5288 15.78 96.0088 13.98 100.129 13.98C104.269 13.98 106.749 15.78 106.749 18.06ZM105.409 18.06C105.409 16.2 103.149 15.06 100.129 15.06C97.1488 15.06 94.8688 16.2 94.8688 18.06C94.8688 19.94 97.1488 21.08 100.129 21.08C103.149 21.08 105.409 19.94 105.409 18.06ZM103.989 31.64H102.669V25.1H97.7088V31.48H96.3488V25.1H91.4488V24.02H108.909V25.1H103.989V31.64ZM111.247 33.32L110.927 33.02C111.627 32.58 112.227 31.72 112.327 30.96C112.347 30.86 112.327 30.78 112.287 30.74C112.247 30.64 112.127 30.58 111.927 30.58C111.367 30.58 110.847 30.2 110.847 29.52C110.847 28.88 111.367 28.46 112.007 28.46C112.747 28.46 113.267 29.12 113.267 29.94C113.267 31.36 112.407 32.7 111.247 33.32ZM122.2 27.82L121.18 26.96C125.32 24.64 127.46 20.2 127.7 16.24H122.18V15.16H129.14C129.04 20.66 126.4 25.26 122.2 27.82ZM136.82 31.64H135.5V21.84H132.6V30.8H131.28V14.16H132.6V20.66H135.5V13.86H136.82V31.64ZM151.959 25.14V26.22C149.719 26.68 146.219 26.88 143.539 26.88H140.779V14.68H142.099V25.78H143.539C146.219 25.78 149.559 25.58 151.959 25.14ZM154.139 31.64H152.819V13.86H154.139V19.96H157.139V21.1H154.139V31.64ZM174.217 21.08L173.457 22.06C170.437 21.46 167.597 19.84 166.477 17.72C165.377 19.84 162.537 21.46 159.497 22.06L158.717 21.08C162.177 20.56 165.677 18.34 165.757 15.64H159.957V14.56H172.977V15.64H167.197C167.277 18.34 170.817 20.56 174.217 21.08ZM175.217 25.1H167.177V31.64H165.797V25.1H157.757V24.02H175.217V25.1ZM177.396 27.82L176.376 26.96C180.516 24.64 182.656 20.2 182.896 16.24H177.376V15.16H184.336C184.236 20.66 181.596 25.26 177.396 27.82ZM188.356 30.8H187.056V21.7H184.016V20.58H187.056V14.16H188.356V30.8ZM192.016 31.64H190.696V13.86H192.016V31.64ZM197.934 29.66C197.934 30.3 197.434 30.78 196.794 30.78C196.114 30.78 195.614 30.3 195.614 29.66C195.614 29.06 196.114 28.54 196.794 28.54C197.434 28.54 197.934 29.06 197.934 29.66Z" fill="white"/>
</svg>
