<svg width="232" height="46" viewBox="0 0 232 46" fill="none" xmlns="http://www.w3.org/2000/svg">
<rect x="0.5" y="0.5" width="231" height="45" fill="#90C85F"/>
<rect x="0.5" y="0.5" width="231" height="45" stroke="black"/>
<path d="M23.04 28.8L23.24 29.8C22.22 30.12 20.98 30.24 19.8 30.24C15.98 30.24 14.16 27.68 14.14 24.34C14.1 21.24 15.98 18.6 19.2 18.62C22.5 18.62 23.98 20.76 23.98 23.94V24.66H15.42C15.5 27.16 16.92 29.26 19.84 29.24C20.86 29.24 22.02 29.12 23.04 28.8ZM15.38 23.68H22.72C22.72 23.64 22.76 23.46 22.72 23.42C22.7 21.04 21.38 19.62 19.2 19.62C16.72 19.62 15.54 21.6 15.38 23.68ZM28.5397 29.66C28.5397 30.3 28.0397 30.78 27.3997 30.78C26.7197 30.78 26.2197 30.3 26.2197 29.66C26.2197 29.06 26.7197 28.54 27.3997 28.54C28.0397 28.54 28.5397 29.06 28.5397 29.66ZM40.028 29.42V27.92H39.908C39.128 29.14 37.688 29.86 36.128 29.86C33.068 29.88 31.328 27.5 31.328 24.24C31.328 21 33.108 18.62 36.208 18.64C37.788 18.64 39.088 19.3 39.888 20.48H39.988V18.9H41.268V29.6C41.268 32.68 39.148 34.24 36.108 34.24C35.048 34.24 33.668 34.08 32.648 33.74L32.928 32.72C33.928 33.1 35.048 33.24 36.108 33.24C38.728 33.24 40.028 31.82 40.028 29.42ZM39.968 25.22V23.12C39.968 21.16 38.228 19.64 36.348 19.64C33.968 19.64 32.588 21.6 32.588 24.24C32.588 26.88 33.848 28.86 36.268 28.86C38.208 28.86 39.968 27.32 39.968 25.22ZM46.9186 29.66C46.9186 30.3 46.4186 30.78 45.7786 30.78C45.0986 30.78 44.5986 30.3 44.5986 29.66C44.5986 29.06 45.0986 28.54 45.7786 28.54C46.4186 28.54 46.9186 29.06 46.9186 29.66ZM72.1319 29.18H54.6519V28.1H62.6919V23.92C59.1919 23.7 56.8319 21.7 56.8319 19.08C56.8319 16.32 59.4919 14.22 63.3719 14.22C67.2719 14.22 69.9519 16.32 69.9519 19.08C69.9519 21.7 67.5719 23.7 64.0719 23.92V28.1H72.1319V29.18ZM68.6119 19.08C68.6119 16.82 66.3319 15.3 63.3719 15.3C60.4319 15.3 58.1519 16.82 58.1519 19.08C58.1519 21.36 60.4319 22.86 63.3719 22.86C66.3319 22.86 68.6119 21.36 68.6119 19.08ZM90.5103 22H73.0703V20.96H90.5103V22ZM88.4903 19H75.5103V13.9H76.8503V17.96H88.4903V19ZM88.4703 31.44H75.4903V27.16H86.6903V25.08H75.4903V24.02H88.0303V28.16H76.8303V30.38H88.4703V31.44ZM107.229 31.36H93.9288V26.04H95.2688V30.26H107.229V31.36ZM108.909 24.48H91.4688V23.4H108.909V24.48ZM100.169 21.26C96.1087 21.26 93.6288 19.7 93.6288 17.52C93.6288 15.34 96.1087 13.76 100.169 13.76C104.229 13.76 106.729 15.34 106.729 17.52C106.729 19.7 104.229 21.26 100.169 21.26ZM100.169 14.82C97.2088 14.82 94.9488 15.78 94.9488 17.52C94.9488 19.26 97.2088 20.22 100.169 20.22C103.149 20.22 105.389 19.26 105.389 17.52C105.389 15.78 103.149 14.82 100.169 14.82ZM130.472 31.44H117.932V25.6H130.472V31.44ZM129.132 30.36V26.66H119.272V30.36H129.132ZM131.832 19.62L131.112 20.58C128.092 20.2 125.352 18.74 124.212 16.96C123.112 18.74 120.352 20.2 117.372 20.58L116.632 19.62C119.792 19.22 123.112 17.62 123.492 15.52H117.732V14.44H130.692V15.52H124.952C125.332 17.62 128.652 19.22 131.832 19.62ZM132.932 23.54H115.492V22.46H123.552V19.74H124.912V22.46H132.932V23.54ZM156.016 30.68L155.316 31.68C152.356 31.28 149.256 29.8 148.216 27.84C147.196 29.8 144.076 31.28 141.136 31.68L140.436 30.68C143.636 30.28 147.276 28.62 147.476 26.26H141.516V25.18H154.876V26.26H148.976C149.216 28.62 152.836 30.28 156.016 30.68ZM154.936 19.56H141.956V13.92H143.296V18.48H154.936V19.56ZM156.956 22.86H139.516V21.78H156.956V22.86ZM175.314 30.82L174.474 31.74C172.934 30.94 171.354 29.4 170.794 27.94C170.294 29.34 168.834 30.9 167.434 31.66C166.034 30.9 164.594 29.34 164.054 27.94C163.534 29.4 161.954 30.94 160.414 31.74L159.534 30.82C161.414 29.94 163.394 27.92 163.394 25.76V24.78H164.714V25.76C164.714 27.6 166.214 29.48 167.434 30.26C168.674 29.48 170.154 27.6 170.154 25.76V24.78H171.474V25.76C171.474 27.92 173.474 29.94 175.314 30.82ZM173.394 24H172.074V19.68H168.054V18.58H172.074V13.86H173.394V24ZM159.054 24.02L158.314 23.06C162.734 21.94 166.034 19.08 166.594 15.86H159.394V14.78H168.114C167.694 19.7 163.554 22.68 159.054 24.02ZM188.113 30.8H186.813V20.8H182.733V19.68H186.813V14.16H188.113V30.8ZM191.953 31.64H190.633V13.86H191.953V31.64ZM185.633 25.52V26.6C183.973 26.86 181.553 27.02 179.793 27.02H177.833V14.74H179.113V25.92H179.793C181.553 25.92 183.953 25.78 185.633 25.52ZM209.991 18.06C209.991 20.36 207.511 22.16 203.371 22.16C199.251 22.16 196.771 20.36 196.771 18.06C196.771 15.78 199.251 13.98 203.371 13.98C207.511 13.98 209.991 15.78 209.991 18.06ZM208.651 18.06C208.651 16.2 206.391 15.06 203.371 15.06C200.391 15.06 198.111 16.2 198.111 18.06C198.111 19.94 200.391 21.08 203.371 21.08C206.391 21.08 208.651 19.94 208.651 18.06ZM207.231 31.64H205.911V25.1H200.951V31.48H199.591V25.1H194.691V24.02H212.151V25.1H207.231V31.64ZM216.469 29.66C216.469 30.3 215.969 30.78 215.329 30.78C214.649 30.78 214.149 30.3 214.149 29.66C214.149 29.06 214.649 28.54 215.329 28.54C215.969 28.54 216.469 29.06 216.469 29.66Z" fill="white"/>
</svg>
