<svg width="785" height="140" viewBox="0 0 785 140" fill="none" xmlns="http://www.w3.org/2000/svg">
<rect x="0.5" y="0.5" width="784" height="139" fill="white"/>
<rect x="0.5" y="0.5" width="784" height="139" stroke="black"/>
<path d="M37.425 32.55H27.375V35.05C32.125 35.2 34.825 36.775 34.825 38.85C34.825 41.075 31.825 42.675 26.5 42.675C21.2 42.675 18.175 41.075 18.175 38.85C18.175 36.775 20.85 35.2 25.65 35.05V32.55H15.625V31.225H37.425V32.55ZM33.15 38.85C33.15 37.3 30.65 36.3 26.5 36.3C22.35 36.3 19.85 37.3 19.85 38.85C19.85 40.4 22.35 41.425 26.5 41.425C30.65 41.425 33.15 40.4 33.15 38.85ZM36.025 28.45L35.125 29.65C31.575 29.275 28.1 27.95 26.525 25.85C24.975 27.95 21.45 29.275 17.95 29.65L17.05 28.45C20.65 28.1 24.625 26.6 25.475 24.6H18.4V23.3H34.625V24.6H27.575C28.45 26.6 32.45 28.1 36.025 28.45ZM30.975 21.325H22.2V20.025H30.975V21.325ZM58.673 38.475C58.673 40.9 55.598 42.675 50.573 42.675C45.548 42.675 42.473 40.9 42.473 38.475C42.473 36.05 45.548 34.275 50.573 34.275C55.598 34.275 58.673 36.05 58.673 38.475ZM56.973 38.475C56.973 36.65 54.248 35.575 50.573 35.575C46.873 35.575 44.173 36.65 44.173 38.475C44.173 40.325 46.873 41.375 50.573 41.375C54.248 41.375 56.973 40.325 56.973 38.475ZM53.823 31.525L52.898 32.725C50.223 31.95 47.598 30.025 46.573 27.9C45.748 30.125 43.048 32.375 39.973 33.55L38.973 32.375C42.573 31.25 45.648 28.075 45.648 25.35V24.9H40.248V23.55H52.698V24.9H47.423V25.35C47.423 28.05 50.573 30.7 53.823 31.525ZM58.248 34.125H56.573V28.125H52.148V26.775H56.573V20.075H58.248V34.125ZM49.973 21.5H42.973V20.175H49.973V21.5ZM83.4461 39.225H61.5961V37.875H71.7961V32H64.6711V21.475H80.6461V22.825H66.3461V30.65H80.8961V32H73.4961V37.875H83.4461V39.225ZM106.475 35.875L105.45 37.075C102.475 35.45 99.7004 32.425 98.8004 29.575C97.8754 32.725 95.5004 35.625 92.1004 37.725L90.9504 36.675C94.8504 34.425 97.8504 30.55 97.8504 25.25V21.05H99.6504V25.25C99.6504 30.35 102.975 34.15 106.475 35.875ZM110.375 42.3H108.7V20.075H110.375V28.675H114.125V30.1H110.375V42.3ZM133.798 31.05H117.698V20.775H133.323V22.125H119.373V25.2H133.223V26.525H119.373V29.675H133.798V31.05ZM136.473 35H126.398V42.3H124.673V35H114.623V33.65H136.473V35ZM156.796 42.3H155.121V20.075H156.796V42.3ZM153.946 34.7V36.075C151.146 36.625 146.771 36.9 143.396 36.9H139.446V28.375H148.421V22.775H139.446V21.425H150.121V29.7H141.096V35.525H143.396C146.771 35.525 150.946 35.275 153.946 34.7ZM182.445 32.8H160.645V31.45H182.445V32.8ZM179.92 28.075H163.695V20.15H165.37V26.725H179.92V28.075ZM180.345 41.95H163.72V35H165.395V40.575H180.345V41.95ZM212.499 39.225H190.649V37.875H198.849V29.3H200.599V37.875H212.499V39.225ZM208.024 34.55H206.299C207.224 30.9 207.799 26.525 207.899 23.075H193.324V21.725H209.674C209.549 26.15 208.874 30.825 208.024 34.55ZM223.972 31.3H214.972V21.225H223.972V31.3ZM222.297 29.95V22.55H216.597V29.95H222.297ZM233.472 33.175H231.822V26.725H228.247V33.175H226.622V20.45H228.247V25.3H231.822V20.075H233.472V33.175ZM233.422 42.425H231.747V35.775H217.672V34.4H233.422V42.425ZM255.47 33.7H253.82V20.075H255.47V25.55H258.87V26.95H255.47V33.7ZM255.42 42.425H253.745V36.275H240.345V34.9H255.42V42.425ZM252.72 30.275V31.55C250.17 32.125 246.045 32.425 242.57 32.425H238.245V26.025H247.17V22.325H238.245V21.025H248.845V27.3H239.92V31.1H242.57C245.945 31.1 249.97 30.8 252.72 30.275ZM286.324 36.575H284.649V26.9H279.824C279.549 29.825 277.149 32.05 273.799 32.05C270.174 32.05 267.724 29.5 267.724 26.3C267.724 23.05 270.174 20.475 273.799 20.475C277.074 20.475 279.449 22.65 279.799 25.5H284.649V20.075H286.324V36.575ZM273.799 30.7C276.549 30.7 278.174 28.75 278.174 26.275C278.174 23.775 276.549 21.825 273.799 21.825C271.024 21.825 269.424 23.775 269.424 26.275C269.424 28.75 271.024 30.7 273.799 30.7ZM287.149 41.95H271.449V34.55H273.124V40.6H287.149V41.95ZM309.372 42.3H307.697V29.5H302.447C302.322 34.625 299.922 37.6 296.747 37.6C293.497 37.6 291.072 34.475 291.072 29.125C291.072 23.8 293.497 20.675 296.747 20.675C299.772 20.675 302.147 23.425 302.422 28.125H307.697V20.075H309.372V42.3ZM296.747 36.25C299.072 36.25 300.772 33.725 300.772 29.125C300.772 24.55 299.072 22.025 296.747 22.025C294.422 22.025 292.747 24.55 292.747 29.125C292.747 33.725 294.422 36.25 296.747 36.25ZM331.995 42.3H330.345V20.075H331.995V42.3ZM329.445 35.15V36.45C327.12 36.95 324.295 37.1 320.97 37.1H313.195V35.75H321.07C324.145 35.75 327.12 35.55 329.445 35.15ZM320.845 31.875C317.295 31.875 314.695 29.375 314.695 26.4C314.695 23.425 317.295 20.95 320.845 20.95C324.445 20.95 327.045 23.425 327.045 26.4C327.045 29.375 324.445 31.875 320.845 31.875ZM320.845 22.3C318.045 22.3 316.37 24.15 316.37 26.4C316.37 28.65 318.045 30.525 320.845 30.525C323.645 30.525 325.37 28.65 325.37 26.4C325.37 24.15 323.645 22.3 320.845 22.3ZM354.675 42.675C349.65 42.675 346.575 40.8 346.575 38.25C346.575 35.725 349.65 33.85 354.675 33.85C359.7 33.85 362.775 35.725 362.775 38.25C362.775 40.8 359.7 42.675 354.675 42.675ZM354.675 35.2C350.975 35.2 348.275 36.325 348.275 38.25C348.275 40.2 350.975 41.325 354.675 41.325C358.35 41.325 361.075 40.2 361.075 38.25C361.075 36.325 358.35 35.2 354.675 35.2ZM357.675 30.375L356.7 31.625C353.9 30.6 351.375 28.525 350.35 26.3C349.45 28.75 346.925 31.025 343.8 32.35L342.775 31.225C346.425 29.825 349.425 26.7 349.425 22.9V20.65H351.2V22.9C351.2 26.525 354.275 29.25 357.675 30.375ZM362.35 33.675H360.675V25.7H355.1V24.3H360.675V20.075H362.35V33.675ZM367.173 33.025L366.223 31.8C371.748 30.35 375.848 26.675 376.548 22.575H367.573V21.225H378.473C377.948 27.45 372.823 31.35 367.173 33.025ZM385.023 42.425H383.373V36.025H369.673V34.65H385.023V42.425ZM385.073 33.45H383.423V29.825H378.423V28.475H383.423V25.075H378.948V23.725H383.423V20.075H385.073V33.45ZM407.796 23.925C407.796 26.225 404.671 27.925 399.596 27.925C394.521 27.925 391.421 26.225 391.421 23.925C391.421 21.625 394.521 19.925 399.596 19.925C404.671 19.925 407.796 21.625 407.796 23.925ZM406.121 23.95C406.121 22.2 403.321 21.225 399.596 21.225C395.896 21.225 393.071 22.2 393.071 23.95C393.071 25.675 395.896 26.65 399.596 26.65C403.321 26.65 406.121 25.675 406.121 23.95ZM407.971 42.05H391.746V36.925H405.746V34.575H391.746V33.25H407.421V38.2H393.421V40.725H407.971V42.05ZM410.521 30.925H388.721V29.6H410.521V30.925ZM430.275 42.675C425.375 42.675 422.425 40.75 422.425 38.125C422.425 35.525 425.375 33.6 430.275 33.6C435.125 33.6 438.075 35.525 438.075 38.125C438.075 40.75 435.125 42.675 430.275 42.675ZM430.275 34.95C426.7 34.95 424.1 36.125 424.1 38.125C424.1 40.15 426.7 41.325 430.275 41.325C433.825 41.325 436.425 40.15 436.425 38.125C436.425 36.125 433.825 34.95 430.275 34.95ZM437.55 33.225H435.9V20.075H437.55V25.7H440.95V27.075H437.55V33.225ZM420.05 32.95L419.1 31.75C424.6 30.275 428.7 26.675 429.425 22.575H420.425V21.225H431.35C430.825 27.45 425.65 31.3 420.05 32.95ZM452.723 22.075H445.798V20.725H452.723V22.075ZM460.623 42.3H458.973V20.075H460.623V29.25H464.223V30.675H460.623V42.3ZM455.023 32.95C455.023 35.875 452.723 38.225 449.348 38.225C445.973 38.225 443.673 35.875 443.673 32.95C443.673 30.025 445.973 27.65 449.348 27.65C452.723 27.65 455.023 30 455.023 32.95ZM453.373 32.95C453.373 30.6 451.798 28.975 449.373 28.975C446.923 28.975 445.348 30.575 445.348 32.95C445.348 35.3 446.923 36.9 449.373 36.9C451.798 36.9 453.373 35.3 453.373 32.95ZM456.148 25.775H442.423V24.425H456.148V25.775ZM466.271 37.525L464.996 36.45C470.171 33.55 472.846 28 473.146 23.05H466.246V21.7H474.946C474.821 28.575 471.521 34.325 466.271 37.525ZM479.971 41.25H478.346V29.875H474.546V28.475H478.346V20.45H479.971V41.25ZM484.546 42.3H482.896V20.075H484.546V42.3ZM514.275 42.3H512.6V20.075H514.275V42.3ZM502.825 34.725V36.075C501.65 36.275 499.625 36.4 498.575 36.4H496.35V21.55H502.7V22.9H497.975V35.025H498.625C499.65 35.025 501.625 34.925 502.825 34.725ZM511.525 34.575V35.925C509.975 36.225 508 36.4 506.675 36.4H503.675V21.55H510.175V22.9H505.325V35.025H506.625C507.9 35.025 509.9 34.9 511.525 34.575ZM536.923 42.3H535.248V32.325H530.248V36.4H519.573V21.55H530.248V24.875H535.248V20.075H536.923V42.3ZM528.548 35.05V22.9H521.223V35.05H528.548ZM535.248 30.975V26.225H530.248V30.975H535.248ZM567.078 42.05H551.978V36.575H564.878V33.825H551.978V32.525H566.553V37.825H553.628V40.725H567.078V42.05ZM559.928 29.875H549.378V21.225H559.928V29.875ZM558.253 28.575V22.525H551.053V28.575H558.253ZM566.603 31.35H564.953V20.075H566.603V24.425H570.003V25.825H566.603V31.35ZM592.626 39.225H570.776V37.875H580.826V32.75H573.851V21.175H575.526V25.25H587.826V21.175H589.501V32.75H582.551V37.875H592.626V39.225ZM587.826 31.4V26.575H575.526V31.4H587.826ZM612.249 42.3H610.599V20.075H612.249V28H615.999V29.425H612.249V42.3ZM609.524 34.2V35.55C606.724 36.125 602.349 36.4 598.999 36.4H595.549V21.55H606.274V22.9H597.199V35.025H598.999C602.349 35.025 606.524 34.75 609.524 34.2ZM643.503 42.3H641.828V33.425H635.928C634.978 36.125 633.103 37.6 630.878 37.6C627.628 37.6 625.203 34.475 625.203 29.125C625.203 23.8 627.628 20.675 630.878 20.675C633.078 20.675 634.903 22.1 635.853 24.675H641.828V20.075H643.503V42.3ZM630.878 36.25C633.203 36.25 634.903 33.725 634.903 29.125C634.903 24.55 633.203 22.025 630.878 22.025C628.553 22.025 626.878 24.55 626.878 29.125C626.878 33.725 628.553 36.25 630.878 36.25ZM641.828 32.075V26.025H636.228C636.453 26.95 636.578 28 636.578 29.125C636.578 30.2 636.478 31.2 636.303 32.075H641.828ZM657.126 31.8H648.126V20.975H649.751V25.025H655.451V20.975H657.126V31.8ZM655.451 30.45V26.35H649.751V30.45H655.451ZM666.626 33.35H664.976V26.95H661.401V33.35H659.776V20.45H661.401V25.525H664.976V20.075H666.626V33.35ZM666.576 42.425H664.901V35.925H650.826V34.575H666.576V42.425ZM688.549 42.3H686.874V20.075H688.549V29.1H692.099V30.525H688.549V42.3ZM685.924 35.4V36.7C683.599 37.2 680.774 37.35 677.474 37.35H669.999V36H675.249V28.15H676.924V36H677.574C680.649 36 683.599 35.825 685.924 35.4ZM682.399 32.725H680.749C681.274 30.2 681.824 25.875 681.774 22.8H671.299V21.45H683.524C683.499 24.9 683.049 29.675 682.399 32.725ZM710.154 31.3H701.154V21.225H710.154V31.3ZM708.479 29.95V22.55H702.779V29.95H708.479ZM719.654 33.175H718.004V26.725H714.429V33.175H712.804V20.45H714.429V25.3H718.004V20.075H719.654V33.175ZM719.604 42.425H717.929V35.775H703.854V34.4H719.604V42.425ZM741.652 33.7H740.002V20.075H741.652V25.55H745.052V26.95H741.652V33.7ZM741.602 42.425H739.927V36.275H726.527V34.9H741.602V42.425ZM738.902 30.275V31.55C736.352 32.125 732.227 32.425 728.752 32.425H724.427V26.025H733.352V22.325H724.427V21.025H735.027V27.3H726.102V31.1H728.752C732.127 31.1 736.152 30.8 738.902 30.275ZM761.4 41.25H759.775V29.825H756.75C756.6 34.725 754.525 37.575 751.7 37.575C748.775 37.575 746.65 34.475 746.65 29.2C746.65 23.95 748.775 20.85 751.7 20.85C754.5 20.85 756.575 23.65 756.75 28.425H759.775V20.45H761.4V41.25ZM751.7 36.225C753.8 36.225 755.15 33.45 755.15 29.2C755.15 24.975 753.8 22.2 751.7 22.2C749.65 22.2 748.275 24.975 748.275 29.2C748.275 33.45 749.65 36.225 751.7 36.225ZM765.925 42.3H764.25V20.075H765.925V42.3ZM34.925 80.3H33.275V58.075H34.925V80.3ZM32.375 73.15V74.45C30.05 74.95 27.225 75.1 23.9 75.1H16.125V73.75H24C27.075 73.75 30.05 73.55 32.375 73.15ZM23.775 69.875C20.225 69.875 17.625 67.375 17.625 64.4C17.625 61.425 20.225 58.95 23.775 58.95C27.375 58.95 29.975 61.425 29.975 64.4C29.975 67.375 27.375 69.875 23.775 69.875ZM23.775 60.3C20.975 60.3 19.3 62.15 19.3 64.4C19.3 66.65 20.975 68.525 23.775 68.525C26.575 68.525 28.3 66.65 28.3 64.4C28.3 62.15 26.575 60.3 23.775 60.3ZM51.123 74.4H40.448V59.55H51.123V74.4ZM49.423 73.05V60.9H42.098V73.05H49.423ZM57.773 80.3H56.098V58.075H57.773V80.3ZM63.1711 75.55L62.0961 74.425C67.9961 71.55 71.2961 66.55 71.9211 60.9H63.4711V59.55H73.7461C73.3961 67.075 69.0711 72.575 63.1711 75.55ZM80.0711 80.3H78.4211V58.075H80.0711V66.75H83.8211V68.175H80.0711V80.3ZM111.275 69.6H109.6V58.075H111.275V69.6ZM111.775 80.05H96.4004V74.7H109.575V72.075H96.4004V70.775H111.25V75.95H98.0754V78.725H111.775V80.05ZM106.6 67.25L105.7 68.5C102.875 67.775 100.275 65.85 99.2754 63.675C98.3004 66.025 95.6004 68.1 92.6504 69.25L91.6754 68.1C95.1004 66.9 98.3504 64.1 98.3504 60.4V58.525H100.125V60.4C100.125 63.975 103.2 66.4 106.6 67.25ZM133.798 80.3H132.123V58.075H133.798V80.3ZM130.948 72.7V74.075C128.148 74.625 123.773 74.9 120.398 74.9H116.448V66.375H125.423V60.775H116.448V59.425H127.123V67.7H118.098V73.525H120.398C123.773 73.525 127.948 73.275 130.948 72.7ZM159.446 70.8H137.646V69.45H159.446V70.8ZM156.921 66.075H140.696V58.15H142.371V64.725H156.921V66.075ZM157.346 79.95H140.721V73H142.396V78.575H157.346V79.95ZM183.776 74.125V75.425C181.451 75.925 178.626 76.075 175.326 76.075H167.851V74.725H174.776V72C171.976 71.725 170.226 70.125 170.226 68.3C170.226 66.275 172.326 64.575 175.601 64.575C178.851 64.575 180.926 66.275 180.926 68.3C180.926 70.125 179.226 71.725 176.451 72V74.725C179.126 74.7 181.726 74.5 183.776 74.125ZM186.401 80.3H184.726V58.075H186.401V67.35H189.951V68.775H186.401V80.3ZM179.276 68.3C179.276 66.9 177.826 65.875 175.601 65.875C173.351 65.875 171.901 66.9 171.901 68.3C171.901 69.7 173.351 70.7 175.601 70.7C177.826 70.7 179.276 69.7 179.276 68.3ZM182.201 63.275H168.951V61.925H182.201V63.275ZM179.001 59.9H172.126V58.55H179.001V59.9ZM210.024 69.925H208.374V64.2H203.024V68.975H192.399V58.85H194.049V62.525H201.349V58.85H203.024V62.8H208.374V58.075H210.024V69.925ZM209.999 80.05H195.124V71H196.799V74.05H208.349V71H209.999V80.05ZM208.349 78.75V75.35H196.799V78.75H208.349ZM201.349 67.65V63.8H194.049V67.65H201.349ZM224.547 70.8C219.697 70.8 216.372 68.15 216.372 64.675C216.372 61.175 219.697 58.525 224.547 58.525C229.422 58.525 232.772 61.175 232.772 64.675C232.772 68.15 229.422 70.8 224.547 70.8ZM224.547 59.875C220.872 59.875 218.022 61.775 218.022 64.675C218.022 67.55 220.872 69.45 224.547 69.45C228.247 69.45 231.097 67.55 231.097 64.675C231.097 61.775 228.247 59.875 224.547 59.875ZM235.497 77.05H213.647V75.7H235.497V77.05ZM258.495 77.375H236.645V76.025H246.845V71.3H239.72V64.625H253.445V60.65H239.72V59.3H255.095V65.95H241.395V69.925H255.82V71.3H248.545V76.025H258.495V77.375ZM273.424 68.9C269.899 68.9 267.524 66.55 267.524 63.625C267.524 60.725 269.899 58.375 273.424 58.375C276.949 58.375 279.324 60.725 279.324 63.625C279.324 66.55 276.949 68.9 273.424 68.9ZM273.424 59.7C270.749 59.7 269.199 61.425 269.199 63.625C269.199 65.825 270.749 67.575 273.424 67.575C276.099 67.575 277.624 65.825 277.624 63.625C277.624 61.425 276.099 59.7 273.424 59.7ZM285.974 80.05H270.874V74.7H283.774V72.075H270.874V70.775H285.449V75.95H272.524V78.725H285.974V80.05ZM285.499 69.6H283.849V58.075H285.499V62.55H288.899V63.95H285.499V69.6ZM305.297 72.7V74.075C302.522 74.625 298.147 74.9 294.797 74.9H291.497V66.375H299.697V60.775H291.497V59.425H301.372V67.7H293.147V73.525H294.797C298.147 73.525 302.347 73.275 305.297 72.7ZM308.847 80.3H307.172V69.7H302.997V68.3H307.172V63.925H302.997V62.525H307.172V58.075H308.847V80.3ZM328.095 73.975L327.07 75.175C324.22 73.55 321.37 70.7 320.42 67.95C319.545 71.025 316.92 73.9 313.695 75.825L312.57 74.725C316.22 72.675 319.47 68.85 319.47 63.675V60.9H313.87V59.55H326.695V60.9H321.245V63.675C321.245 68.75 324.895 72.325 328.095 73.975ZM332.37 80.3H330.695V69.55H325.92V68.2H330.695V64.45H325.945V63.1H330.695V58.075H332.37V80.3ZM364.75 79.275L363.7 80.4C361.75 79.4 359.75 77.5 359.1 75.675C358.45 77.425 356.65 79.375 354.9 80.325C353.125 79.375 351.3 77.425 350.675 75.675C350 77.5 348.025 79.4 346.075 80.4L345.025 79.275C347.375 78.2 349.825 75.65 349.825 72.95V71.975H351.5V72.95C351.5 75.25 353.35 77.6 354.9 78.575C356.425 77.6 358.275 75.25 358.275 72.95V71.975H359.95V72.95C359.95 75.65 362.425 78.2 364.75 79.275ZM355.825 64.025C355.825 67.1 353.375 69.55 349.825 69.55C346.225 69.55 343.8 67.1 343.8 64.025C343.8 60.95 346.225 58.475 349.825 58.475C353.375 58.475 355.825 60.95 355.825 64.025ZM354.15 64.025C354.15 61.675 352.55 59.825 349.825 59.825C347.075 59.825 345.5 61.675 345.5 64.025C345.5 66.35 347.075 68.2 349.825 68.2C352.55 68.2 354.15 66.35 354.15 64.025ZM362.35 71H360.675V58.075H362.35V71ZM384.173 80.3H382.523V58.075H384.173V66H387.923V67.425H384.173V80.3ZM381.448 72.2V73.55C378.648 74.125 374.273 74.4 370.923 74.4H367.473V59.55H378.198V60.9H369.123V73.025H370.923C374.273 73.025 378.448 72.75 381.448 72.2ZM392.921 77.825C392.921 78.625 392.296 79.225 391.496 79.225C390.646 79.225 390.021 78.625 390.021 77.825C390.021 77.075 390.646 76.425 391.496 76.425C392.296 76.425 392.921 77.075 392.921 77.825ZM407.862 57.225L408.312 57.575C407.687 58.025 406.862 58.925 406.587 59.775C406.387 60.475 406.462 60.75 407.037 60.75C407.237 60.75 407.487 60.8 407.662 60.85C408.037 61 408.412 61.4 408.412 62.075C408.412 62.95 407.762 63.45 407.012 63.45C406.087 63.45 405.312 62.65 405.312 61.525C405.312 60.6 405.612 59.575 406.137 58.85C406.637 58.125 407.262 57.525 407.862 57.225ZM432.127 70.55H422.077V73.05C426.827 73.2 429.527 74.775 429.527 76.85C429.527 79.075 426.527 80.675 421.202 80.675C415.902 80.675 412.877 79.075 412.877 76.85C412.877 74.775 415.552 73.2 420.352 73.05V70.55H410.327V69.225H432.127V70.55ZM427.852 76.85C427.852 75.3 425.352 74.3 421.202 74.3C417.052 74.3 414.552 75.3 414.552 76.85C414.552 78.4 417.052 79.425 421.202 79.425C425.352 79.425 427.852 78.4 427.852 76.85ZM430.727 66.45L429.827 67.65C426.277 67.275 422.802 65.95 421.227 63.85C419.677 65.95 416.152 67.275 412.652 67.65L411.752 66.45C415.352 66.1 419.327 64.6 420.177 62.6H413.102V61.3H429.327V62.6H422.277C423.152 64.6 427.152 66.1 430.727 66.45ZM425.677 59.325H416.902V58.025H425.677V59.325ZM453.375 76.475C453.375 78.9 450.3 80.675 445.275 80.675C440.25 80.675 437.175 78.9 437.175 76.475C437.175 74.05 440.25 72.275 445.275 72.275C450.3 72.275 453.375 74.05 453.375 76.475ZM451.675 76.475C451.675 74.65 448.95 73.575 445.275 73.575C441.575 73.575 438.875 74.65 438.875 76.475C438.875 78.325 441.575 79.375 445.275 79.375C448.95 79.375 451.675 78.325 451.675 76.475ZM448.525 69.525L447.6 70.725C444.925 69.95 442.3 68.025 441.275 65.9C440.45 68.125 437.75 70.375 434.675 71.55L433.675 70.375C437.275 69.25 440.35 66.075 440.35 63.35V62.9H434.95V61.55H447.4V62.9H442.125V63.35C442.125 66.05 445.275 68.7 448.525 69.525ZM452.95 72.125H451.275V66.125H446.85V64.775H451.275V58.075H452.95V72.125ZM444.675 59.5H437.675V58.175H444.675V59.5ZM478.148 77.225H456.298V75.875H466.498V70H459.373V59.475H475.348V60.825H461.048V68.65H475.598V70H468.198V75.875H478.148V77.225ZM502.453 74.125V75.425C500.128 75.925 497.303 76.075 494.003 76.075H486.528V74.725H493.453V72C490.653 71.725 488.903 70.125 488.903 68.3C488.903 66.275 491.003 64.575 494.278 64.575C497.528 64.575 499.603 66.275 499.603 68.3C499.603 70.125 497.903 71.725 495.128 72V74.725C497.803 74.7 500.403 74.5 502.453 74.125ZM505.078 80.3H503.403V58.075H505.078V67.35H508.628V68.775H505.078V80.3ZM497.953 68.3C497.953 66.9 496.503 65.875 494.278 65.875C492.028 65.875 490.578 66.9 490.578 68.3C490.578 69.7 492.028 70.7 494.278 70.7C496.503 70.7 497.953 69.7 497.953 68.3ZM500.878 63.275H487.628V61.925H500.878V63.275ZM497.678 59.9H490.803V58.55H497.678V59.9ZM528.701 69.925H527.051V64.2H521.701V68.975H511.076V58.85H512.726V62.525H520.026V58.85H521.701V62.8H527.051V58.075H528.701V69.925ZM528.676 80.05H513.801V71H515.476V74.05H527.026V71H528.676V80.05ZM527.026 78.75V75.35H515.476V78.75H527.026ZM520.026 67.65V63.8H512.726V67.65H520.026ZM533.574 63.975L533.124 63.625C533.749 63.175 534.574 62.275 534.849 61.425C535.049 60.725 534.974 60.45 534.399 60.45C534.199 60.45 533.949 60.4 533.774 60.35C533.399 60.2 532.999 59.8 532.999 59.125C532.999 58.25 533.674 57.75 534.424 57.75C535.349 57.75 536.124 58.55 536.124 59.675C536.124 60.6 535.824 61.625 535.299 62.35C534.799 63.075 534.174 63.675 533.574 63.975ZM559.738 80.3H558.063V58.075H559.738V80.3ZM541.438 67.125C541.438 61.8 543.888 58.675 547.138 58.675C550.413 58.675 552.838 61.8 552.838 67.125C552.838 72.475 550.413 75.6 547.138 75.6C543.888 75.6 541.438 72.475 541.438 67.125ZM551.163 67.125C551.163 62.55 549.488 60.025 547.138 60.025C544.813 60.025 543.113 62.55 543.113 67.125C543.113 71.725 544.813 74.25 547.138 74.25C549.488 74.25 551.163 71.725 551.163 67.125ZM581.512 80.3H579.862V58.075H581.512V66.5H585.262V67.925H581.512V80.3ZM578.787 72.7V74.075C575.987 74.625 571.612 74.9 568.262 74.9H564.537V66.375H573.537V60.775H564.537V59.425H575.212V67.7H566.237V73.525H568.262C571.612 73.525 575.787 73.275 578.787 72.7ZM607.86 70.8H586.06V69.45H607.86V70.8ZM605.335 66.075H589.11V58.15H590.785V64.725H605.335V66.075ZM605.76 79.95H589.135V73H590.81V78.575H605.76V79.95ZM635.889 69.5H618.064V68.15H621.664L621.489 60.825H618.589V59.475H635.364V60.825H632.689L632.514 68.15H635.889V69.5ZM630.839 68.15L631.039 60.825H623.164L623.314 68.15H630.839ZM637.914 77.225H616.064V75.875H621.514V70.625H623.214V75.875H630.739V70.625H632.414V75.875H637.914V77.225ZM653.362 62.8H639.912V61.5H653.362V62.8ZM650.287 59.475H643.162V58.175H650.287V59.475ZM646.787 71.825C643.337 71.825 641.112 70.1 641.112 67.975C641.112 65.85 643.337 64.125 646.787 64.125C650.212 64.125 652.462 65.85 652.462 67.975C652.462 70.1 650.212 71.825 646.787 71.825ZM646.787 65.4C644.262 65.4 642.787 66.5 642.787 67.975C642.787 69.475 644.262 70.575 646.787 70.575C649.312 70.575 650.787 69.45 650.787 67.975C650.787 66.5 649.312 65.4 646.787 65.4ZM659.537 79.95H643.837V73.5H645.512V78.6H659.537V79.95ZM658.712 74.75H657.037V70.35H653.087V69.05H657.037V65.825H653.087V64.525H657.037V58.075H658.712V74.75ZM681.76 80.3H680.085V58.075H681.76V80.3ZM663.46 67.125C663.46 61.8 665.91 58.675 669.16 58.675C672.435 58.675 674.86 61.8 674.86 67.125C674.86 72.475 672.435 75.6 669.16 75.6C665.91 75.6 663.46 72.475 663.46 67.125ZM673.185 67.125C673.185 62.55 671.51 60.025 669.16 60.025C666.835 60.025 665.135 62.55 665.135 67.125C665.135 71.725 666.835 74.25 669.16 74.25C671.51 74.25 673.185 71.725 673.185 67.125ZM700.239 72.725V74.075C699.064 74.275 697.039 74.4 695.989 74.4H693.589V59.55H700.114V60.9H695.239V73.025H696.039C697.064 73.025 699.039 72.925 700.239 72.725ZM708.439 72.575V73.925C706.964 74.225 704.989 74.4 703.664 74.4H701.114V59.55H707.414V60.9H702.739V73.025H703.589C704.889 73.025 706.864 72.9 708.439 72.575ZM711.214 80.3H709.539V58.075H711.214V66H714.464V67.425H711.214V80.3ZM736.937 77.375H715.087V76.025H725.287V71.3H718.162V64.625H731.887V60.65H718.162V59.3H733.537V65.95H719.837V69.925H734.262V71.3H726.987V76.025H736.937V77.375ZM36.05 104.25L35.15 105.45C31.425 104.75 27.95 102.85 26.525 100.375C25.125 102.85 21.675 104.75 17.975 105.45L17.05 104.25C21.25 103.55 25.6 101 25.675 98.15H18.425V96.8H34.625V98.15H27.425C27.5 101.025 31.825 103.525 36.05 104.25ZM37.425 109.325H15.625V107.975H25.7V104.35H27.4V107.975H37.425V109.325ZM35.325 117.95H18.7V111.225H20.375V116.575H35.325V117.95ZM58.923 118.3H57.273V105.725H53.898V117.25H52.248V96.45H53.898V104.275H57.273V96.075H58.923V118.3ZM51.348 111.95L50.323 113.075C47.898 111.4 46.073 108.925 45.298 106.425C44.573 109.2 42.473 111.9 39.623 113.825L38.423 112.8C41.873 110.7 44.398 106.7 44.398 102.025V99.05H40.123V97.7H50.223V99.05H46.148V102.025C46.148 106.8 48.623 110.25 51.348 111.95ZM69.3211 108.025C65.8711 108.025 63.6461 106.525 63.6461 104.65C63.6461 102.775 65.8711 101.275 69.3211 101.275C72.7461 101.275 74.9961 102.775 74.9961 104.65C74.9961 106.525 72.7461 108.025 69.3211 108.025ZM69.3211 102.5C66.7961 102.5 65.3211 103.4 65.3211 104.65C65.3211 105.9 66.7961 106.8 69.3211 106.8C71.8711 106.8 73.3211 105.9 73.3211 104.65C73.3211 103.425 71.8711 102.5 69.3211 102.5ZM81.1711 118.05H66.0461V113.15H78.9711V110.95H66.0461V109.675H80.6461V114.4H67.7211V116.75H81.1711V118.05ZM80.6961 108.5H79.0211V96.075H80.6961V101.55H84.0961V102.95H80.6961V108.5ZM76.1211 100.15H62.4461V98.9H76.1211V100.15ZM72.8211 97.325H65.6961V96.075H72.8211V97.325ZM103.775 107.475H93.2254V97.225H103.775V107.475ZM102.1 106.125V98.55H94.9004V106.125H102.1ZM110.45 112.55H108.8V96.075H110.45V101.675H113.85V103.075H110.45V112.55ZM111.375 117.95H95.9004V110.55H97.5754V116.6H111.375V117.95ZM133.373 118.05H117.698V110.25H133.373V118.05ZM136.448 107.275H114.648V105.925H131.023C131.298 104.85 131.523 103.55 131.673 102.225C128.498 102.45 124.798 102.5 121.073 102.5H117.173V101.2H121.098C124.873 101.2 128.648 101.125 131.848 100.925C131.948 99.95 132.023 99 132.048 98.15H117.548V96.8H133.748C133.648 100.45 133.123 103.775 132.648 105.925H136.448V107.275ZM131.698 116.7V111.575H119.373V116.7H131.698ZM159.953 106.6L158.953 107.8C156.153 106.775 153.653 104.725 152.628 102.55C151.728 104.975 149.128 107.275 146.078 108.55L145.028 107.4C148.603 106.1 151.703 102.925 151.703 99.15V98.55H146.253V97.225H158.753V98.55H153.478V99.15C153.478 102.775 156.628 105.525 159.953 106.6ZM164.253 118.425H162.578V112.025H148.903V110.65H164.253V118.425ZM164.303 109.45H162.628V96.075H164.303V109.45ZM182.626 105.5L181.726 106.75C178.901 106.025 176.301 104.1 175.301 101.925C174.326 104.275 171.626 106.35 168.676 107.5L167.701 106.35C171.126 105.15 174.376 102.35 174.376 98.65V96.525H176.151V98.65C176.151 102.225 179.226 104.65 182.626 105.5ZM187.301 107.6H185.626V101.4H180.051V100H185.626V96.075H187.301V107.6ZM187.801 118.05H172.426V112.7H185.601V110.075H172.426V108.775H187.276V113.95H174.101V116.725H187.801V118.05ZM209.749 99.925C209.749 102.225 206.624 103.925 201.549 103.925C196.474 103.925 193.374 102.225 193.374 99.925C193.374 97.625 196.474 95.925 201.549 95.925C206.624 95.925 209.749 97.625 209.749 99.925ZM208.074 99.95C208.074 98.2 205.274 97.225 201.549 97.225C197.849 97.225 195.024 98.2 195.024 99.95C195.024 101.675 197.849 102.65 201.549 102.65C205.274 102.65 208.074 101.675 208.074 99.95ZM209.924 118.05H193.699V112.925H207.699V110.575H193.699V109.25H209.374V114.2H195.374V116.725H209.924V118.05ZM212.474 106.925H190.674V105.6H212.474V106.925ZM237.078 110.45V111.8C234.228 112.2 229.928 112.4 226.528 112.4H221.378V111.025H224.628L224.528 98.9H221.978V97.55H235.078V98.9H232.728L232.628 110.85C234.228 110.75 235.778 110.625 237.078 110.45ZM230.978 110.95L231.053 98.9H226.228L226.328 111.025H226.903C228.203 111.025 229.578 111 230.978 110.95ZM240.103 118.3H238.453V96.075H240.103V118.3ZM254.676 98.075H247.751V96.725H254.676V98.075ZM262.576 118.3H260.926V96.075H262.576V105.25H266.176V106.675H262.576V118.3ZM256.976 108.95C256.976 111.875 254.676 114.225 251.301 114.225C247.926 114.225 245.626 111.875 245.626 108.95C245.626 106.025 247.926 103.65 251.301 103.65C254.676 103.65 256.976 106 256.976 108.95ZM255.326 108.95C255.326 106.6 253.751 104.975 251.326 104.975C248.876 104.975 247.301 106.575 247.301 108.95C247.301 111.3 248.876 112.9 251.326 112.9C253.751 112.9 255.326 111.3 255.326 108.95ZM258.101 101.775H244.376V100.425H258.101V101.775ZM288.524 115.225H266.674V113.875H274.874V105.3H276.624V113.875H288.524V115.225ZM284.049 110.55H282.324C283.249 106.9 283.824 102.525 283.924 99.075H269.349V97.725H285.699C285.574 102.15 284.899 106.825 284.049 110.55ZM315.954 118.05H299.754V113.025H313.754V110.75H299.754V109.45H315.429V114.3H301.429V116.7H315.954V118.05ZM318.529 107.225H296.729V105.925H306.904V103.375H299.779V96.8H315.529V98.1H301.454V102.075H315.954V103.375H308.579V105.925H318.529V107.225ZM335.327 110.7V112.075C332.552 112.625 328.177 112.9 324.827 112.9H321.527V104.375H329.727V98.775H321.527V97.425H331.402V105.7H323.177V111.525H324.827C328.177 111.525 332.377 111.275 335.327 110.7ZM338.877 118.3H337.202V107.7H333.027V106.3H337.202V101.925H333.027V100.525H337.202V96.075H338.877V118.3ZM369.031 118.05H353.931V112.575H366.831V109.825H353.931V108.525H368.506V113.825H355.581V116.725H369.031V118.05ZM361.881 105.875H351.331V97.225H361.881V105.875ZM360.206 104.575V98.525H353.006V104.575H360.206ZM368.556 107.35H366.906V96.075H368.556V100.425H371.956V101.825H368.556V107.35ZM383.729 98.075H376.804V96.725H383.729V98.075ZM391.629 118.3H389.979V96.075H391.629V105.25H395.229V106.675H391.629V118.3ZM386.029 108.95C386.029 111.875 383.729 114.225 380.354 114.225C376.979 114.225 374.679 111.875 374.679 108.95C374.679 106.025 376.979 103.65 380.354 103.65C383.729 103.65 386.029 106 386.029 108.95ZM384.379 108.95C384.379 106.6 382.804 104.975 380.379 104.975C377.929 104.975 376.354 106.575 376.354 108.95C376.354 111.3 377.929 112.9 380.379 112.9C382.804 112.9 384.379 111.3 384.379 108.95ZM387.154 101.775H373.429V100.425H387.154V101.775ZM417.552 108.8H395.752V107.45H417.552V108.8ZM415.027 104.075H398.802V96.15H400.477V102.725H415.027V104.075ZM415.452 117.95H398.827V111H400.502V116.575H415.452V117.95ZM444.581 109.775H442.931V96.075H444.581V101.275H447.981V102.675H444.581V109.775ZM437.306 118.675C432.406 118.675 429.456 116.875 429.456 114.425C429.456 112 432.406 110.2 437.306 110.2C442.156 110.2 445.106 112 445.106 114.425C445.106 116.875 442.156 118.675 437.306 118.675ZM437.306 111.55C433.731 111.55 431.131 112.625 431.131 114.425C431.131 116.25 433.731 117.325 437.306 117.325C440.856 117.325 443.456 116.25 443.456 114.425C443.456 112.625 440.856 111.55 437.306 111.55ZM437.906 107.525H427.356V96.85H429.031V100.8H436.231V96.85H437.906V107.525ZM436.231 106.175V102.125H429.031V106.175H436.231ZM468.354 118.425H466.679V112.025H453.004V110.65H468.354V118.425ZM468.404 109.45H466.729V96.075H468.404V109.45ZM463.729 106.35L462.754 107.6C459.954 106.575 457.429 104.5 456.404 102.275C455.504 104.725 452.979 107 449.854 108.325L448.829 107.2C452.479 105.8 455.479 102.675 455.479 98.875V96.65H457.254V98.875C457.254 102.5 460.329 105.225 463.729 106.35ZM491.452 118.3H489.777V96.075H491.452V118.3ZM473.152 105.125C473.152 99.8 475.602 96.675 478.852 96.675C482.127 96.675 484.552 99.8 484.552 105.125C484.552 110.475 482.127 113.6 478.852 113.6C475.602 113.6 473.152 110.475 473.152 105.125ZM482.877 105.125C482.877 100.55 481.202 98.025 478.852 98.025C476.527 98.025 474.827 100.55 474.827 105.125C474.827 109.725 476.527 112.25 478.852 112.25C481.202 112.25 482.877 109.725 482.877 105.125ZM521.082 105.425H504.857V96.95H520.832V98.3H506.532V104.075H521.082V105.425ZM523.632 110.125H513.557V118.3H511.832V110.125H501.782V108.775H523.632V110.125ZM544.08 108.15H527.855V97.475H543.83V98.825H529.53V106.8H544.08V108.15ZM546.63 115.05H524.78V113.7H546.63V115.05ZM566.953 118.3H565.278V105.025H560.978V103.625H565.278V96.075H566.953V118.3ZM563.403 110.7V112.075C560.628 112.625 556.253 112.9 552.903 112.9H549.603V104.375H557.803V98.775H549.603V97.425H559.478V105.7H551.253V111.525H552.903C556.253 111.525 560.453 111.275 563.403 110.7ZM586.076 107.25L585.126 108.475C582.376 107.45 579.776 105.25 578.751 103.025C577.851 105.55 575.251 107.875 572.176 109.225L571.151 108.05C574.726 106.625 577.826 103.5 577.826 99.625V98.55H572.376V97.225H584.876V98.55H579.601V99.625C579.601 103.3 582.801 106.075 586.076 107.25ZM591.251 117.95H575.551V110.55H577.226V116.6H591.251V117.95ZM590.426 112.55H588.751V96.075H590.426V112.55ZM612.249 118.3H610.599V96.075H612.249V104H615.999V105.425H612.249V118.3ZM609.524 110.2V111.55C606.724 112.125 602.349 112.4 598.999 112.4H595.549V97.55H606.274V98.9H597.199V111.025H598.999C602.349 111.025 606.524 110.75 609.524 110.2ZM620.997 115.825C620.997 116.625 620.372 117.225 619.572 117.225C618.722 117.225 618.097 116.625 618.097 115.825C618.097 115.075 618.722 114.425 619.572 114.425C620.372 114.425 620.997 115.075 620.997 115.825Z" fill="black"/>
</svg>
