<svg width="829" height="143" viewBox="0 0 829 143" fill="none" xmlns="http://www.w3.org/2000/svg">
<rect x="0.5" y="0.5" width="828" height="142" fill="white"/>
<rect x="0.5" y="0.5" width="828" height="142" stroke="black"/>
<path d="M18.192 33.02C17.688 33.02 17.324 32.656 17.324 32.152C17.324 31.676 17.688 31.312 18.192 31.312H41.908C42.384 31.312 42.748 31.676 42.748 32.152C42.748 32.656 42.384 33.02 41.908 33.02H31.016V34.56C37.568 34.644 41.936 35.512 41.936 38.144C41.936 40.888 37.176 41.728 30.12 41.728C23.064 41.728 18.136 40.888 18.136 38.144C18.136 35.54 22.56 34.644 29.056 34.56V33.02H18.192ZM30.12 39.964C36.056 39.964 39.948 39.264 39.948 38.144C39.948 37.024 36.056 36.324 30.12 36.324C24.184 36.324 20.124 37.024 20.124 38.144C20.124 39.264 24.184 39.964 30.12 39.964ZM18.528 30.136C17.38 30.164 17.268 28.484 18.472 28.4C23.288 28.232 28.972 27.084 29.084 25.572C25.78 25.572 22.448 25.572 19.144 25.6C18.668 25.6 18.304 25.236 18.304 24.732C18.304 24.256 18.668 23.892 19.144 23.892H29.056V23.416C29.056 22.016 31.016 22.016 31.016 23.416V23.892H40.9C41.376 23.892 41.74 24.256 41.74 24.732C41.74 25.236 41.376 25.6 40.9 25.6C37.596 25.572 34.292 25.572 30.988 25.572C31.1 27.084 36.84 28.204 41.628 28.4C42.832 28.456 42.748 30.192 41.6 30.136C37.68 29.968 32.052 29.044 30.036 27.392C27.908 29.128 22.616 30.024 18.528 30.136ZM70.7821 32.572C70.2501 32.572 69.8021 32.152 69.8021 31.592V28.876H68.0381C67.5341 28.876 67.1421 28.484 67.1421 27.98C67.1421 27.476 67.5341 27.084 68.0381 27.084H69.8021V23.948C69.8021 23.416 70.2501 22.968 70.7821 22.968C71.3141 22.968 71.7621 23.416 71.7621 23.948V31.592C71.7621 32.152 71.3141 32.572 70.7821 32.572ZM60.3381 41.728C53.2541 41.728 48.4661 40.468 48.4661 37.668C48.4661 34.868 53.2541 33.608 60.3381 33.608C67.4221 33.608 72.0981 34.84 72.0981 37.668C72.0981 40.468 67.4221 41.728 60.3381 41.728ZM60.3381 39.908C66.0501 39.908 70.1381 38.928 70.1381 37.668C70.1381 36.408 66.0501 35.4 60.3381 35.4C54.6261 35.4 50.4261 36.408 50.4261 37.668C50.4261 38.928 54.6261 39.908 60.3381 39.908ZM48.4381 25.992C47.9341 25.992 47.5421 25.628 47.5421 25.124C47.5421 24.62 47.9341 24.284 48.4381 24.284H55.5781V23.78C55.5781 23.052 56.0541 22.716 56.5581 22.716C57.0621 22.716 57.5661 23.052 57.5381 23.78V24.284H64.3981C64.9021 24.284 65.2941 24.62 65.2941 25.124C65.2941 25.628 64.9021 25.992 64.3981 25.992C62.0461 25.964 59.7781 25.964 57.5101 25.964V26.02C57.5101 27.98 61.3181 29.884 65.1541 30.416C65.7421 30.5 65.9941 30.976 65.9381 31.424C65.8541 31.872 65.5181 32.264 64.9021 32.18C61.6821 31.732 58.2661 30.5 56.5581 28.232C54.8781 30.444 51.1261 31.844 47.7381 32.348C47.1501 32.432 46.7861 32.012 46.7301 31.564C46.6741 31.116 46.8981 30.64 47.4861 30.556C51.5181 30.08 55.6061 27.952 55.6061 26.02V25.964C53.2541 25.964 50.9021 25.964 48.4381 25.992ZM82.6043 35.008C79.9443 35.064 78.7683 34.252 78.7683 31.704V27.056C78.7683 24.508 79.9443 23.752 82.6043 23.752H100.104C101.336 23.752 101.392 25.6 100.104 25.6H82.7723C80.9243 25.6 80.7283 25.74 80.7283 27.756V31.172C80.7283 33.02 80.9243 33.132 82.7723 33.16H100.944C102.232 33.16 102.176 35.008 100.944 35.008H82.6043ZM78.5443 40.916C78.0123 40.916 77.6203 40.524 77.6203 39.992C77.6203 39.46 78.0123 39.068 78.5443 39.068H89.2123V37.276C89.2123 36.716 89.6603 36.296 90.1923 36.296C90.7243 36.296 91.1723 36.716 91.1723 37.276V39.068H101.84C102.372 39.068 102.764 39.46 102.764 39.992C102.764 40.524 102.372 40.916 101.84 40.916H78.5443ZM114.733 40.328C113.585 41.084 112.549 39.488 113.725 38.704C118.765 35.372 122.461 29.492 122.461 24.956V24.34C122.461 22.996 124.477 22.996 124.477 24.34V24.956C124.477 29.492 128.173 35.4 133.213 38.704C134.389 39.488 133.353 41.084 132.205 40.328C128.229 37.64 124.981 33.636 123.469 29.324C121.957 33.636 118.709 37.64 114.733 40.328ZM137.413 41.392C136.881 41.392 136.433 40.972 136.433 40.412V23.948C136.433 23.416 136.881 22.968 137.413 22.968C137.945 22.968 138.393 23.416 138.393 23.948V30.724H140.045C140.577 30.724 140.997 31.144 140.997 31.676C140.997 32.208 140.577 32.628 140.045 32.628H138.393V40.412C138.393 40.972 137.945 41.392 137.413 41.392ZM145.287 37.192C144.755 37.192 144.363 36.8 144.363 36.268C144.363 35.736 144.755 35.344 145.287 35.344H168.863C169.395 35.344 169.787 35.736 169.787 36.268C169.787 36.8 169.395 37.192 168.863 37.192H158.055V41C158.055 41.56 157.607 41.98 157.075 41.98C156.543 41.98 156.095 41.56 156.095 41V37.192H145.287ZM148.927 33.048C146.631 33.048 145.595 32.376 145.595 30.052V26.608C145.595 24.284 146.631 23.612 148.927 23.612H167.351C168.639 23.612 168.639 25.404 167.351 25.404H149.347C147.723 25.404 147.555 25.544 147.555 27.336V29.464C147.555 31.144 147.723 31.256 149.319 31.256H168.079C169.367 31.256 169.367 33.048 168.079 33.048H148.927ZM166.063 27.364C166.567 27.364 166.931 27.728 166.931 28.232C166.931 28.736 166.567 29.1 166.063 29.1H149.991C149.487 29.1 149.123 28.736 149.123 28.232C149.123 27.728 149.487 27.364 149.991 27.364H166.063ZM197.849 41.392C197.317 41.392 196.869 40.972 196.869 40.412V23.948C196.869 23.416 197.317 22.968 197.849 22.968C198.381 22.968 198.829 23.416 198.829 23.948V40.412C198.829 40.972 198.381 41.392 197.849 41.392ZM178.781 40.44C176.373 40.44 175.281 39.712 175.281 37.248V34.28C175.281 31.536 176.485 30.752 179.173 30.752H187.125C188.973 30.752 189.169 30.612 189.169 28.624V27.7C189.169 25.712 188.973 25.572 187.125 25.572H176.177C174.973 25.572 174.973 23.752 176.177 23.752H187.153C189.897 23.752 191.129 24.536 191.129 27.28V29.044C191.129 31.788 189.925 32.572 187.237 32.572H179.285C177.437 32.572 177.241 32.712 177.241 34.7V36.912C177.241 38.508 177.409 38.62 179.117 38.62C184.633 38.62 189.729 38.004 192.641 37.276C193.901 36.968 194.293 38.732 193.089 39.04C190.009 39.824 184.689 40.44 178.781 40.44Z" fill="#90C85F"/>
<path d="M221.02 37.975L219.995 39.175C217.145 37.55 214.295 34.7 213.345 31.95C212.47 35.025 209.845 37.9 206.62 39.825L205.495 38.725C209.145 36.675 212.395 32.85 212.395 27.675V24.9H206.795V23.55H219.62V24.9H214.17V27.675C214.17 32.75 217.82 36.325 221.02 37.975ZM225.295 44.3H223.62V22.075H225.295V44.3ZM247.768 44.3H246.093V22.075H247.768V44.3ZM244.918 36.7V38.075C242.118 38.625 237.743 38.9 234.368 38.9H230.418V30.375H239.393V24.775H230.418V23.425H241.093V31.7H232.068V37.525H234.368C237.743 37.525 241.918 37.275 244.918 36.7ZM266.891 32.85L265.891 34.05C263.091 33.025 260.591 30.975 259.566 28.8C258.666 31.225 256.066 33.525 253.016 34.8L251.966 33.65C255.541 32.35 258.641 29.175 258.641 25.4V24.55H253.191V23.225H265.691V24.55H260.416V25.4C260.416 29.025 263.566 31.775 266.891 32.85ZM271.191 44.425H269.516V38.025H255.841V36.65H271.191V44.425ZM271.241 35.45H269.566V28.625H264.541V27.225H269.566V22.075H271.241V35.45ZM285.489 34.8C280.639 34.8 277.314 32.15 277.314 28.675C277.314 25.175 280.639 22.525 285.489 22.525C290.364 22.525 293.714 25.175 293.714 28.675C293.714 32.15 290.364 34.8 285.489 34.8ZM285.489 23.875C281.814 23.875 278.964 25.775 278.964 28.675C278.964 31.55 281.814 33.45 285.489 33.45C289.189 33.45 292.039 31.55 292.039 28.675C292.039 25.775 289.189 23.875 285.489 23.875ZM296.439 41.05H274.589V39.7H296.439V41.05ZM319.437 41.375H297.587V40.025H307.787V35.3H300.662V28.625H314.387V24.65H300.662V23.3H316.037V29.95H302.337V33.925H316.762V35.3H309.487V40.025H319.437V41.375ZM346.717 38.75H345.042V22.075H346.717V28.925H350.117V30.325H346.717V38.75ZM347.642 43.95H332.167V37.5H333.817V42.6H347.642V43.95ZM342.142 26.8H328.467V25.5H342.142V26.8ZM338.842 23.475H331.717V22.175H338.842V23.475ZM335.342 35.825C331.892 35.825 329.667 34.1 329.667 31.975C329.667 29.85 331.892 28.125 335.342 28.125C338.767 28.125 341.017 29.85 341.017 31.975C341.017 34.1 338.767 35.825 335.342 35.825ZM335.342 29.4C332.817 29.4 331.342 30.5 331.342 31.975C331.342 33.475 332.817 34.575 335.342 34.575C337.867 34.575 339.342 33.45 339.342 31.975C339.342 30.5 337.867 29.4 335.342 29.4ZM369.44 38.55H367.79V22.075H369.44V27.925H372.84V29.3H369.44V38.55ZM370.365 43.95H354.89V36.8H356.565V42.6H370.365V43.95ZM362.765 34.025H352.215V22.85H353.89V27.05H361.09V22.85H362.765V34.025ZM361.09 32.675V28.375H353.89V32.675H361.09ZM395.463 41.225H373.613V39.875H383.813V34H376.688V23.475H392.663V24.825H378.363V32.65H392.913V34H385.513V39.875H395.463V41.225ZM415.936 44.3H414.286V22.075H415.936V44.3ZM413.386 37.15V38.45C411.061 38.95 408.236 39.1 404.911 39.1H397.136V37.75H405.011C408.086 37.75 411.061 37.55 413.386 37.15ZM404.786 33.875C401.236 33.875 398.636 31.375 398.636 28.4C398.636 25.425 401.236 22.95 404.786 22.95C408.386 22.95 410.986 25.425 410.986 28.4C410.986 31.375 408.386 33.875 404.786 33.875ZM404.786 24.3C401.986 24.3 400.311 26.15 400.311 28.4C400.311 30.65 401.986 32.525 404.786 32.525C407.586 32.525 409.311 30.65 409.311 28.4C409.311 26.15 407.586 24.3 404.786 24.3ZM448.465 33.725H438.415V36.325C443.165 36.5 445.865 38.2 445.865 40.475C445.865 42.925 442.865 44.675 437.54 44.675C432.24 44.675 429.215 42.925 429.215 40.475C429.215 38.2 431.89 36.5 436.69 36.325V33.725H426.665V32.375H448.465V33.725ZM444.19 40.475C444.19 38.75 441.69 37.6 437.54 37.6C433.39 37.6 430.89 38.75 430.89 40.475C430.89 42.225 433.39 43.375 437.54 43.375C441.69 43.375 444.19 42.225 444.19 40.475ZM447.09 29.55L446.19 30.75C442.44 30.2 438.99 28.325 437.565 25.925C436.165 28.375 432.69 30.175 428.99 30.75L428.09 29.55C432.065 28.975 436.165 26.825 436.64 24.15H429.44V22.8H445.665V24.15H438.515C438.99 26.85 443.24 29.025 447.09 29.55ZM464.613 32.15L463.638 33.4C460.838 32.4 458.313 30.325 457.288 28.1C456.388 30.55 453.863 32.825 450.738 34.15L449.713 33C453.363 31.6 456.363 28.5 456.363 24.7V22.65H458.138V24.7C458.138 28.325 461.213 31.025 464.613 32.15ZM469.263 44.05H454.413V35.825H469.263V44.05ZM467.588 42.7V37.175H456.088V42.7H467.588ZM469.288 34.625H467.613V22.075H469.288V34.625ZM488.211 43.25H486.586V31.825H483.561C483.411 36.725 481.336 39.575 478.511 39.575C475.586 39.575 473.461 36.475 473.461 31.2C473.461 25.95 475.586 22.85 478.511 22.85C481.311 22.85 483.386 25.65 483.561 30.425H486.586V22.45H488.211V43.25ZM478.511 38.225C480.611 38.225 481.961 35.45 481.961 31.2C481.961 26.975 480.611 24.2 478.511 24.2C476.461 24.2 475.086 26.975 475.086 31.2C475.086 35.45 476.461 38.225 478.511 38.225ZM492.736 44.3H491.061V22.075H492.736V44.3ZM516.741 27.325C516.741 29.95 514.341 32.2 510.741 32.2C507.116 32.2 504.691 29.95 504.691 27.325C504.691 24.725 507.116 22.475 510.741 22.475C514.341 22.475 516.741 24.725 516.741 27.325ZM515.066 27.325C515.066 25.475 513.566 23.825 510.741 23.825C507.891 23.825 506.366 25.475 506.366 27.325C506.366 29.175 507.891 30.85 510.741 30.85C513.566 30.85 515.066 29.175 515.066 27.325ZM521.991 44.3H520.341V22.075H521.991V44.3ZM511.516 43.8H509.841V35.725H503.191V34.375H511.366C514.166 34.375 517.266 34.125 519.391 33.75V35.075C517.391 35.5 514.591 35.7 511.516 35.725V43.8ZM541.014 38.275L540.014 39.475C536.964 38 534.364 35.5 533.414 32.775C532.464 35.675 529.814 38.375 526.739 40.05L525.639 38.975C529.114 37.225 532.464 33.775 532.464 28.875V28.125H526.864V26.775H539.689V28.125H534.239V28.875C534.239 33.65 537.639 36.75 541.014 38.275ZM545.364 44.3H543.689V22.075H545.364V44.3ZM536.889 24.075H529.664V22.725H536.889V24.075ZM567.762 38.75H566.087V22.075H567.762V28.925H571.162V30.325H567.762V38.75ZM568.687 43.95H553.212V37.5H554.862V42.6H568.687V43.95ZM563.187 26.8H549.512V25.5H563.187V26.8ZM559.887 23.475H552.762V22.175H559.887V23.475ZM556.387 35.825C552.937 35.825 550.712 34.1 550.712 31.975C550.712 29.85 552.937 28.125 556.387 28.125C559.812 28.125 562.062 29.85 562.062 31.975C562.062 34.1 559.812 35.825 556.387 35.825ZM556.387 29.4C553.862 29.4 552.387 30.5 552.387 31.975C552.387 33.475 553.862 34.575 556.387 34.575C558.912 34.575 560.387 33.45 560.387 31.975C560.387 30.5 558.912 29.4 556.387 29.4ZM597.366 44.425H595.691V38.95H581.416V37.65H597.366V44.425ZM600.516 35.2H578.716V33.9H600.516V35.2ZM597.741 31.7H581.766V22.625H597.466V23.925H583.441V26.475H597.366V27.75H583.441V30.375H597.741V31.7ZM613.664 44.675C608.639 44.675 605.564 42.8 605.564 40.25C605.564 37.725 608.639 35.85 613.664 35.85C618.689 35.85 621.764 37.725 621.764 40.25C621.764 42.8 618.689 44.675 613.664 44.675ZM613.664 37.2C609.964 37.2 607.264 38.325 607.264 40.25C607.264 42.2 609.964 43.325 613.664 43.325C617.339 43.325 620.064 42.2 620.064 40.25C620.064 38.325 617.339 37.2 613.664 37.2ZM616.664 32.375L615.689 33.625C612.889 32.6 610.364 30.525 609.339 28.3C608.439 30.75 605.914 33.025 602.789 34.35L601.764 33.225C605.414 31.825 608.414 28.7 608.414 24.9V22.65H610.189V24.9C610.189 28.525 613.264 31.25 616.664 32.375ZM621.339 35.675H619.664V27.7H614.089V26.3H619.664V22.075H621.339V35.675ZM639.387 32.35L638.412 33.6C635.612 32.575 633.112 30.5 632.087 28.275C631.187 30.725 628.637 33 625.537 34.325L624.487 33.2C628.137 31.8 631.162 28.675 631.162 24.875V22.65H632.912V24.875C632.912 28.5 635.987 31.225 639.387 32.35ZM636.362 44.675C631.462 44.675 628.512 42.8 628.512 40.25C628.512 37.725 631.462 35.85 636.362 35.85C641.212 35.85 644.187 37.725 644.187 40.25C644.187 42.8 641.212 44.675 636.362 44.675ZM636.362 37.2C632.787 37.2 630.212 38.325 630.212 40.25C630.212 42.2 632.787 43.325 636.362 43.325C639.912 43.325 642.512 42.2 642.512 40.25C642.512 38.325 639.912 37.2 636.362 37.2ZM643.637 35.4H641.987V22.075H643.637V27.2H646.912V28.575H643.637V35.4ZM674.416 44.3H672.741V35.425H666.841C665.891 38.125 664.016 39.6 661.791 39.6C658.541 39.6 656.116 36.475 656.116 31.125C656.116 25.8 658.541 22.675 661.791 22.675C663.991 22.675 665.816 24.1 666.766 26.675H672.741V22.075H674.416V44.3ZM661.791 38.25C664.116 38.25 665.816 35.725 665.816 31.125C665.816 26.55 664.116 24.025 661.791 24.025C659.466 24.025 657.791 26.55 657.791 31.125C657.791 35.725 659.466 38.25 661.791 38.25ZM672.741 34.075V28.025H667.141C667.366 28.95 667.491 30 667.491 31.125C667.491 32.2 667.391 33.2 667.216 34.075H672.741ZM696.889 44.3H695.214V31.025H690.914V29.625H695.214V22.075H696.889V44.3ZM693.339 36.7V38.075C690.564 38.625 686.189 38.9 682.839 38.9H679.539V30.375H687.739V24.775H679.539V23.425H689.414V31.7H681.189V37.525H682.839C686.189 37.525 690.389 37.275 693.339 36.7ZM726.569 35.775H724.919V22.075H726.569V27.275H729.969V28.675H726.569V35.775ZM719.294 44.675C714.394 44.675 711.444 42.875 711.444 40.425C711.444 38 714.394 36.2 719.294 36.2C724.144 36.2 727.094 38 727.094 40.425C727.094 42.875 724.144 44.675 719.294 44.675ZM719.294 37.55C715.719 37.55 713.119 38.625 713.119 40.425C713.119 42.25 715.719 43.325 719.294 43.325C722.844 43.325 725.444 42.25 725.444 40.425C725.444 38.625 722.844 37.55 719.294 37.55ZM719.894 33.525H709.344V22.85H711.019V26.8H718.219V22.85H719.894V33.525ZM718.219 32.175V28.125H711.019V32.175H718.219ZM750.392 38.575H748.717V28.9H743.892C743.617 31.825 741.217 34.05 737.867 34.05C734.242 34.05 731.792 31.5 731.792 28.3C731.792 25.05 734.242 22.475 737.867 22.475C741.142 22.475 743.517 24.65 743.867 27.5H748.717V22.075H750.392V38.575ZM737.867 32.7C740.617 32.7 742.242 30.75 742.242 28.275C742.242 25.775 740.617 23.825 737.867 23.825C735.092 23.825 733.492 25.775 733.492 28.275C733.492 30.75 735.092 32.7 737.867 32.7ZM751.217 43.95H735.517V36.55H737.192V42.6H751.217V43.95ZM773.065 44.3H771.415V22.075H773.065V44.3ZM770.515 37.15V38.45C768.19 38.95 765.365 39.1 762.04 39.1H754.265V37.75H762.14C765.215 37.75 768.19 37.55 770.515 37.15ZM761.915 33.875C758.365 33.875 755.765 31.375 755.765 28.4C755.765 25.425 758.365 22.95 761.915 22.95C765.515 22.95 768.115 25.425 768.115 28.4C768.115 31.375 765.515 33.875 761.915 33.875ZM761.915 24.3C759.115 24.3 757.44 26.15 757.44 28.4C757.44 30.65 759.115 32.525 761.915 32.525C764.715 32.525 766.44 30.65 766.44 28.4C766.44 26.15 764.715 24.3 761.915 24.3ZM35.25 73.675H33.575V69.35H27.575C26.525 70.7 24.825 71.55 22.725 71.55C19.125 71.55 16.7 69.1 16.7 66.025C16.7 62.95 19.125 60.475 22.725 60.475C24.85 60.475 26.55 61.375 27.625 62.725H33.575V60.075H35.25V73.675ZM35.675 78.275C35.675 80.8 32.6 82.675 27.55 82.675C22.55 82.675 19.475 80.8 19.475 78.275C19.475 75.725 22.55 73.85 27.55 73.85C32.6 73.85 35.675 75.725 35.675 78.275ZM33.975 78.275C33.975 76.325 31.25 75.2 27.55 75.2C23.875 75.2 21.175 76.325 21.175 78.275C21.175 80.2 23.875 81.325 27.55 81.325C31.25 81.325 33.975 80.2 33.975 78.275ZM27.05 66.025C27.05 63.675 25.45 61.825 22.725 61.825C19.975 61.825 18.4 63.675 18.4 66.025C18.4 68.35 19.975 70.2 22.725 70.2C25.45 70.2 27.05 68.35 27.05 66.025ZM33.575 68V64.075H28.375C28.625 64.7 28.725 65.35 28.725 66.025C28.725 66.725 28.625 67.4 28.375 68H33.575ZM53.123 64.525H39.448V63.225H53.123V64.525ZM49.823 61.475H42.698V60.175H49.823V61.475ZM46.323 72.975C42.873 72.975 40.648 71.35 40.648 69.35C40.648 67.35 42.873 65.725 46.323 65.725C49.748 65.725 51.998 67.35 51.998 69.35C51.998 71.35 49.748 72.975 46.323 72.975ZM46.323 67C43.798 67 42.323 68 42.323 69.35C42.323 70.725 43.798 71.725 46.323 71.725C48.848 71.725 50.323 70.7 50.323 69.35C50.323 68 48.848 67 46.323 67ZM50.398 82.675C45.523 82.675 42.548 81 42.548 78.725C42.548 76.475 45.523 74.8 50.398 74.8C55.273 74.8 58.223 76.475 58.223 78.725C58.223 81 55.273 82.675 50.398 82.675ZM50.398 76.05C46.798 76.05 44.248 77.05 44.248 78.725C44.248 80.425 46.798 81.4 50.398 81.4C53.973 81.4 56.548 80.425 56.548 78.725C56.548 77.05 53.973 76.05 50.398 76.05ZM57.698 74.6H56.023V60.075H57.698V64.075H60.973V65.425H57.698V68.7H60.973V70.05H57.698V74.6ZM80.6961 63.925C80.6961 66.225 77.5711 67.925 72.4961 67.925C67.4211 67.925 64.3211 66.225 64.3211 63.925C64.3211 61.625 67.4211 59.925 72.4961 59.925C77.5711 59.925 80.6961 61.625 80.6961 63.925ZM79.0211 63.95C79.0211 62.2 76.2211 61.225 72.4961 61.225C68.7961 61.225 65.9711 62.2 65.9711 63.95C65.9711 65.675 68.7961 66.65 72.4961 66.65C76.2211 66.65 79.0211 65.675 79.0211 63.95ZM80.8711 82.05H64.6461V76.925H78.6461V74.575H64.6461V73.25H80.3211V78.2H66.3211V80.725H80.8711V82.05ZM83.4211 70.925H61.6211V69.6H83.4211V70.925ZM111.1 82.05H95.8004V74.275H110.55V75.625H97.4504V80.7H111.1V82.05ZM110.45 73.1H108.8V60.075H110.45V65.15H113.85V66.55H110.45V73.1ZM103.775 71.425H93.2254V60.85H94.9004V64.725H102.1V60.85H103.775V71.425ZM102.1 70.075V66.05H94.9004V70.075H102.1ZM133.098 82.3H131.448V60.075H133.098V68.125H136.848V69.55H133.098V82.3ZM115.498 69.125C115.498 63.8 117.923 60.675 121.173 60.675C124.423 60.675 126.873 63.8 126.873 69.125C126.873 74.475 124.423 77.6 121.173 77.6C117.923 77.6 115.498 74.475 115.498 69.125ZM125.198 69.125C125.198 64.55 123.498 62.025 121.173 62.025C118.848 62.025 117.173 64.55 117.173 69.125C117.173 73.725 118.848 76.25 121.173 76.25C123.498 76.25 125.198 73.725 125.198 69.125ZM165.378 71.85L164.453 73.075C160.478 71.925 156.928 69.625 155.553 66.625C154.228 69.65 150.603 71.975 146.653 73.075L145.728 71.875C150.078 70.8 154.678 67.775 154.678 63.75V62.825H147.403V61.475H163.728V62.825H156.453V63.75C156.453 67.825 161.078 70.775 165.378 71.85ZM166.503 79.225H144.653V77.875H154.703V71.875H156.428V77.875H166.503V79.225ZM183.776 76.125V77.425C181.451 77.925 178.626 78.075 175.326 78.075H167.851V76.725H174.776V74C171.976 73.725 170.226 72.125 170.226 70.3C170.226 68.275 172.326 66.575 175.601 66.575C178.851 66.575 180.926 68.275 180.926 70.3C180.926 72.125 179.226 73.725 176.451 74V76.725C179.126 76.7 181.726 76.5 183.776 76.125ZM186.401 82.3H184.726V60.075H186.401V69.35H189.951V70.775H186.401V82.3ZM179.276 70.3C179.276 68.9 177.826 67.875 175.601 67.875C173.351 67.875 171.901 68.9 171.901 70.3C171.901 71.7 173.351 72.7 175.601 72.7C177.826 72.7 179.276 71.7 179.276 70.3ZM182.201 65.275H168.951V63.925H182.201V65.275ZM179.001 61.9H172.126V60.55H179.001V61.9ZM212.499 79.375H190.649V78.025H200.849V73.3H193.724V66.625H207.449V62.65H193.724V61.3H209.099V67.95H195.399V71.925H209.824V73.3H202.549V78.025H212.499V79.375ZM224.522 69.05C219.447 69.05 216.372 67.125 216.372 64.5C216.372 61.875 219.447 59.95 224.522 59.95C229.597 59.95 232.747 61.875 232.747 64.5C232.747 67.125 229.597 69.05 224.522 69.05ZM224.522 61.275C220.822 61.275 218.022 62.425 218.022 64.5C218.022 66.575 220.822 67.725 224.522 67.725C228.247 67.725 231.072 66.575 231.072 64.5C231.072 62.425 228.247 61.275 224.522 61.275ZM235.472 72.9H225.672V77.975H223.972V72.9H213.672V71.55H235.472V72.9ZM233.372 81.95H216.747V75.3H218.422V80.575H233.372V81.95ZM255.651 82.675C250.626 82.675 247.551 80.8 247.551 78.25C247.551 75.725 250.626 73.85 255.651 73.85C260.676 73.85 263.751 75.725 263.751 78.25C263.751 80.8 260.676 82.675 255.651 82.675ZM255.651 75.2C251.951 75.2 249.251 76.325 249.251 78.25C249.251 80.2 251.951 81.325 255.651 81.325C259.326 81.325 262.051 80.2 262.051 78.25C262.051 76.325 259.326 75.2 255.651 75.2ZM258.651 70.375L257.676 71.625C254.876 70.6 252.351 68.525 251.326 66.3C250.426 68.75 247.901 71.025 244.776 72.35L243.751 71.225C247.401 69.825 250.401 66.7 250.401 62.9V60.65H252.176V62.9C252.176 66.525 255.251 69.25 258.651 70.375ZM263.326 73.675H261.651V65.7H256.076V64.3H261.651V60.075H263.326V73.675ZM268.149 73.025L267.199 71.8C272.724 70.35 276.824 66.675 277.524 62.575H268.549V61.225H279.449C278.924 67.45 273.799 71.35 268.149 73.025ZM285.999 82.425H284.349V76.025H270.649V74.65H285.999V82.425ZM286.049 73.45H284.399V69.825H279.399V68.475H284.399V65.075H279.924V63.725H284.399V60.075H286.049V73.45ZM308.772 63.925C308.772 66.225 305.647 67.925 300.572 67.925C295.497 67.925 292.397 66.225 292.397 63.925C292.397 61.625 295.497 59.925 300.572 59.925C305.647 59.925 308.772 61.625 308.772 63.925ZM307.097 63.95C307.097 62.2 304.297 61.225 300.572 61.225C296.872 61.225 294.047 62.2 294.047 63.95C294.047 65.675 296.872 66.65 300.572 66.65C304.297 66.65 307.097 65.675 307.097 63.95ZM308.947 82.05H292.722V76.925H306.722V74.575H292.722V73.25H308.397V78.2H294.397V80.725H308.947V82.05ZM311.497 70.925H289.697V69.6H311.497V70.925ZM335.127 75.975L334.102 77.175C331.252 75.55 328.402 72.7 327.452 69.95C326.577 73.025 323.952 75.9 320.727 77.825L319.602 76.725C323.252 74.675 326.502 70.85 326.502 65.675V62.9H320.902V61.55H333.727V62.9H328.277V65.675C328.277 70.75 331.927 74.325 335.127 75.975ZM339.402 82.3H337.727V60.075H339.402V82.3ZM362.9 81.95H347.2V74.55H348.875V80.6H362.9V81.95ZM359.2 69.525V70.85C356.65 71.425 352.525 71.725 349.025 71.725H344.575V60.7H346.225V70.35H349.025C352.425 70.35 356.475 70.075 359.2 69.525ZM362.075 76.55H360.425V60.075H362.075V76.55ZM384.173 82.3H382.523V60.075H384.173V68H387.923V69.425H384.173V82.3ZM381.448 74.2V75.55C378.648 76.125 374.273 76.4 370.923 76.4H367.473V61.55H378.198V62.9H369.123V75.025H370.923C374.273 75.025 378.448 74.75 381.448 74.2ZM392.921 79.825C392.921 80.625 392.296 81.225 391.496 81.225C390.646 81.225 390.021 80.625 390.021 79.825C390.021 79.075 390.646 78.425 391.496 78.425C392.296 78.425 392.921 79.075 392.921 79.825ZM418.812 71.575V72.875C416.512 73.275 413.462 73.45 410.162 73.45H402.787V72.1H409.612V69.5C406.512 69.2 404.537 67.125 404.537 64.825C404.537 62.35 406.862 60.125 410.362 60.125C413.862 60.125 416.187 62.35 416.187 64.825C416.187 67.075 414.262 69.125 411.262 69.475V72.1C414.012 72.075 416.712 71.9 418.812 71.575ZM414.512 64.825C414.512 63.1 413.112 61.425 410.362 61.425C407.637 61.425 406.212 63.1 406.212 64.825C406.212 66.55 407.637 68.2 410.362 68.2C413.112 68.2 414.512 66.55 414.512 64.825ZM421.387 77.175H419.737V60.075H421.387V67.05H424.887V68.45H421.387V77.175ZM421.962 81.95H406.537V75.525H408.262V80.575H421.962V81.95ZM437.735 71.475H427.185V61.225H437.735V71.475ZM436.06 70.125V62.55H428.86V70.125H436.06ZM444.41 76.55H442.76V60.075H444.41V65.675H447.81V67.075H444.41V76.55ZM445.335 81.95H429.86V74.55H431.535V80.6H445.335V81.95ZM467.683 76.75H466.008V60.075H467.683V66.925H471.083V68.325H467.683V76.75ZM468.608 81.95H453.133V75.5H454.783V80.6H468.608V81.95ZM463.108 64.8H449.433V63.5H463.108V64.8ZM459.808 61.475H452.683V60.175H459.808V61.475ZM456.308 73.825C452.858 73.825 450.633 72.1 450.633 69.975C450.633 67.85 452.858 66.125 456.308 66.125C459.733 66.125 461.983 67.85 461.983 69.975C461.983 72.1 459.733 73.825 456.308 73.825ZM456.308 67.4C453.783 67.4 452.308 68.5 452.308 69.975C452.308 71.475 453.783 72.575 456.308 72.575C458.833 72.575 460.308 71.45 460.308 69.975C460.308 68.5 458.833 67.4 456.308 67.4ZM498.263 73.2H496.588V66.625H491.738C491.413 69.425 489.063 71.55 485.738 71.55C482.138 71.55 479.713 69.1 479.713 66.025C479.713 62.95 482.138 60.475 485.738 60.475C488.988 60.475 491.313 62.55 491.713 65.25H496.588V60.075H498.263V73.2ZM490.063 66.025C490.063 63.675 488.463 61.825 485.738 61.825C482.988 61.825 481.413 63.675 481.413 66.025C481.413 68.35 482.988 70.2 485.738 70.2C488.463 70.2 490.063 68.35 490.063 66.025ZM498.213 82.425H496.538V75.775H482.863V74.4H498.213V82.425ZM514.486 66.025C514.486 69.1 512.036 71.55 508.486 71.55C504.886 71.55 502.461 69.1 502.461 66.025C502.461 62.95 504.886 60.475 508.486 60.475C512.036 60.475 514.486 62.95 514.486 66.025ZM512.811 66.025C512.811 63.675 511.186 61.825 508.486 61.825C505.736 61.825 504.136 63.675 504.136 66.025C504.136 68.35 505.736 70.2 508.486 70.2C511.186 70.2 512.811 68.35 512.811 66.025ZM520.961 78.275C520.961 80.8 518.011 82.675 513.111 82.675C508.261 82.675 505.311 80.8 505.311 78.275C505.311 75.725 508.261 73.85 513.111 73.85C518.011 73.85 520.961 75.725 520.961 78.275ZM519.311 78.275C519.311 76.325 516.711 75.2 513.111 75.2C509.586 75.2 506.986 76.325 506.986 78.275C506.986 80.2 509.586 81.325 513.111 81.325C516.711 81.325 519.311 80.2 519.311 78.275ZM520.436 73.4H518.786V60.075H520.436V62.95H523.711V64.3H520.436V67.8H523.711V69.15H520.436V73.4ZM543.359 82.3H541.684V60.075H543.359V69.1H546.909V70.525H543.359V82.3ZM540.734 75.4V76.7C538.409 77.2 535.584 77.35 532.284 77.35H524.809V76H530.059V68.15H531.734V76H532.384C535.459 76 538.409 75.825 540.734 75.4ZM537.209 72.725H535.559C536.084 70.2 536.634 65.875 536.584 62.8H526.109V61.45H538.334C538.309 64.9 537.859 69.675 537.209 72.725ZM574.188 71.6H557.613V60.975H559.288V70.25H574.188V71.6ZM576.488 79.05H554.638V77.7H576.488V79.05ZM597.836 81.95H582.136V75.25H583.811V80.6H597.836V81.95ZM594.161 70.875V72.15C591.611 72.725 587.486 73.025 583.986 73.025H579.386V66.3H588.361V62.325H579.386V61.025H590.036V67.575H581.036V71.7H583.986C587.386 71.7 591.436 71.4 594.161 70.875ZM597.011 76.75H595.361V60.075H597.011V76.75ZM626.34 82.425H624.665V76.475H610.39V75.125H626.34V82.425ZM629.49 72.55H607.69V71.2H617.765V67.575H619.465V71.2H629.49V72.55ZM628.14 67.475L627.215 68.65C623.54 67.9 619.965 65.9 618.565 63.4C617.19 65.9 613.615 67.9 609.965 68.65L609.04 67.475C613.015 66.775 617.69 64.2 617.69 60.925V60.125H619.465V60.925C619.465 64.2 624.14 66.775 628.14 67.475ZM652.513 79.225H630.663V77.875H640.863V72H633.738V61.475H649.713V62.825H635.413V70.65H649.963V72H642.563V77.875H652.513V79.225ZM680.068 71.6H678.418V60.075H680.068V71.6ZM680.568 82.05H665.193V76.7H678.393V74.1H665.193V72.775H680.043V77.975H666.868V80.7H680.568V82.05ZM671.518 62.525H662.568V61.225H673.443C672.968 66.925 667.393 70.6 662.143 71.85L661.218 70.65C666.393 69.55 670.693 66.325 671.518 62.525ZM685.241 77.525L683.966 76.45C689.141 73.55 691.816 68 692.116 63.05H685.216V61.7H693.916C693.791 68.575 690.491 74.325 685.241 77.525ZM698.941 81.25H697.316V69.875H693.516V68.475H697.316V60.45H698.941V81.25ZM703.516 82.3H701.866V60.075H703.516V82.3ZM733.295 82.3H731.645V69.375H727.92V81.25H726.32V60.45H727.92V67.925H731.645V60.075H733.295V82.3ZM725.295 74.65V76C723.22 76.325 720.195 76.525 717.995 76.525H715.645V61.25H717.245V75.15H717.995C720.195 75.15 723.195 74.975 725.295 74.65ZM752.343 74.7V76.075C749.568 76.625 745.193 76.9 741.843 76.9H738.543V68.375H746.743V62.775H738.543V61.425H748.418V69.7H740.193V75.525H741.843C745.193 75.525 749.393 75.275 752.343 74.7ZM755.893 82.3H754.218V71.7H750.043V70.3H754.218V65.925H750.043V64.525H754.218V60.075H755.893V82.3ZM772.591 65.9C772.591 68.9 770.141 71.3 766.591 71.3C762.991 71.3 760.566 68.9 760.566 65.9C760.566 62.9 762.991 60.475 766.591 60.475C770.141 60.475 772.591 62.9 772.591 65.9ZM770.916 65.9C770.916 63.625 769.291 61.825 766.591 61.825C763.841 61.825 762.241 63.625 762.241 65.9C762.241 68.15 763.841 69.95 766.591 69.95C769.291 69.95 770.916 68.15 770.916 65.9ZM780.416 81.2L779.391 82.325C777.691 81.5 775.991 79.775 775.266 77.95C774.616 79.725 772.891 81.425 771.191 82.325L770.141 81.225C772.366 80.1 774.416 77.9 774.416 75.325V74.95H770.341V73.6H780.066V74.95H776.116V75.375C776.141 78.025 778.216 80.15 780.416 81.2ZM778.541 72.4H776.891V60.075H778.541V64.9H781.941V66.3H778.541V72.4ZM769.866 80.425V81.75C768.541 82 766.641 82.05 765.266 82.05H763.066V73.3H764.691V80.7H765.316C766.591 80.7 768.416 80.65 769.866 80.425ZM804.539 72.8H782.739V71.45H804.539V72.8ZM802.014 68.075H785.789V60.15H787.464V66.725H802.014V68.075ZM802.439 81.95H785.814V75H787.489V80.575H802.439V81.95ZM37.425 110.9H27.625V115.975H25.925V110.9H15.625V109.55H37.425V110.9ZM35.325 119.95H18.7V113.3H20.375V118.575H35.325V119.95ZM34.325 106.675H18.675V98.8H34.325V106.675ZM32.65 105.325V100.15H20.35V105.325H32.65ZM58.098 116.25C58.098 118.8 55.123 120.675 50.273 120.675C45.373 120.675 42.423 118.8 42.423 116.25C42.423 113.725 45.373 111.85 50.273 111.85C55.123 111.85 58.098 113.725 58.098 116.25ZM56.423 116.25C56.423 114.325 53.823 113.2 50.273 113.2C46.698 113.2 44.123 114.325 44.123 116.25C44.123 118.2 46.698 119.325 50.273 119.325C53.823 119.325 56.423 118.2 56.423 116.25ZM53.623 108.6L52.648 109.8C49.848 108.775 47.348 106.725 46.298 104.55C45.398 106.975 42.823 109.275 39.748 110.55L38.698 109.4C42.298 108.1 45.373 104.925 45.373 101.15V100.55H39.948V99.225H52.423V100.55H47.148V101.15C47.148 104.775 50.323 107.525 53.623 108.6ZM57.548 111.4H55.898V98.075H57.548V103.2H60.823V104.575H57.548V111.4ZM87.1023 120.3H85.4523V98.075H87.1023V106H90.8523V107.425H87.1023V120.3ZM80.8023 114.4H70.1273V99.55H80.8023V114.4ZM79.1273 113.05V100.9H71.8273V113.05H79.1273ZM110.35 107.425H94.7004V98.95H110.35V107.425ZM108.675 106.075V100.3H96.3754V106.075H108.675ZM113.45 112.125H103.4V120.3H101.675V112.125H91.6254V110.775H113.45V112.125ZM133.798 120.3H132.123V98.075H133.798V120.3ZM130.948 112.7V114.075C128.148 114.625 123.773 114.9 120.398 114.9H116.448V106.375H125.423V100.775H116.448V99.425H127.123V107.7H118.098V113.525H120.398C123.773 113.525 127.948 113.275 130.948 112.7ZM139.196 115.55L138.121 114.425C144.021 111.55 147.321 106.55 147.946 100.9H139.496V99.55H149.771C149.421 107.075 145.096 112.575 139.196 115.55ZM156.096 120.3H154.446V98.075H156.096V106.75H159.846V108.175H156.096V120.3ZM186.326 120.425H184.651V114.95H170.376V113.65H186.326V120.425ZM189.476 111.2H167.676V109.9H189.476V111.2ZM186.701 107.7H170.726V98.625H186.426V99.925H172.401V102.475H186.326V103.75H172.401V106.375H186.701V107.7ZM210.724 116.25C210.724 118.8 207.649 120.675 202.624 120.675C197.599 120.675 194.524 118.8 194.524 116.25C194.524 113.725 197.599 111.85 202.624 111.85C207.649 111.85 210.724 113.725 210.724 116.25ZM209.024 116.25C209.024 114.325 206.299 113.2 202.624 113.2C198.924 113.2 196.224 114.325 196.224 116.25C196.224 118.2 198.924 119.325 202.624 119.325C206.299 119.325 209.024 118.2 209.024 116.25ZM205.949 108.6L204.949 109.8C202.149 108.775 199.649 106.725 198.624 104.55C197.724 106.975 195.124 109.275 192.074 110.55L191.024 109.4C194.599 108.1 197.699 104.925 197.699 101.15V100.55H192.249V99.225H204.749V100.55H199.474V101.15C199.474 104.775 202.624 107.525 205.949 108.6ZM210.299 111.675H208.624V98.075H210.299V111.675ZM233.347 120.3H231.672V98.075H233.347V120.3ZM215.047 107.125C215.047 101.8 217.497 98.675 220.747 98.675C224.022 98.675 226.447 101.8 226.447 107.125C226.447 112.475 224.022 115.6 220.747 115.6C217.497 115.6 215.047 112.475 215.047 107.125ZM224.772 107.125C224.772 102.55 223.097 100.025 220.747 100.025C218.422 100.025 216.722 102.55 216.722 107.125C216.722 111.725 218.422 114.25 220.747 114.25C223.097 114.25 224.772 111.725 224.772 107.125ZM255.82 120.3H254.145V110.325H249.145V114.4H238.47V99.55H249.145V102.875H254.145V98.075H255.82V120.3ZM247.445 113.05V100.9H240.12V113.05H247.445ZM254.145 108.975V104.225H249.145V108.975H254.145ZM285.499 114.55H283.849V98.075H285.499V103.6H288.899V105H285.499V114.55ZM286.424 119.95H270.949V112.55H272.624V118.6H286.424V119.95ZM282.749 107.3V108.625C280.199 109.2 276.074 109.475 272.599 109.475H268.424V99.225H279.199V100.55H270.074V108.1H272.599C275.974 108.1 279.999 107.825 282.749 107.3ZM309.372 120.3H307.697V107.5H302.447C302.322 112.625 299.922 115.6 296.747 115.6C293.497 115.6 291.072 112.475 291.072 107.125C291.072 101.8 293.497 98.675 296.747 98.675C299.772 98.675 302.147 101.425 302.422 106.125H307.697V98.075H309.372V120.3ZM296.747 114.25C299.072 114.25 300.772 111.725 300.772 107.125C300.772 102.55 299.072 100.025 296.747 100.025C294.422 100.025 292.747 102.55 292.747 107.125C292.747 111.725 294.422 114.25 296.747 114.25ZM334.552 113.875L333.527 115.075C330.552 113.45 327.777 110.425 326.877 107.575C325.952 110.725 323.577 113.625 320.177 115.725L319.027 114.675C322.927 112.425 325.927 108.55 325.927 103.25V99.05H327.727V103.25C327.727 108.35 331.052 112.15 334.552 113.875ZM338.452 120.3H336.777V98.075H338.452V106.675H342.202V108.1H338.452V120.3ZM362.4 120.3H360.725V98.075H362.4V120.3ZM344.1 107.125C344.1 101.8 346.55 98.675 349.8 98.675C353.075 98.675 355.5 101.8 355.5 107.125C355.5 112.475 353.075 115.6 349.8 115.6C346.55 115.6 344.1 112.475 344.1 107.125ZM353.825 107.125C353.825 102.55 352.15 100.025 349.8 100.025C347.475 100.025 345.775 102.55 345.775 107.125C345.775 111.725 347.475 114.25 349.8 114.25C352.15 114.25 353.825 111.725 353.825 107.125ZM385.023 120.3H383.373V98.075H385.023V120.3ZM382.473 113.15V114.45C380.148 114.95 377.323 115.1 373.998 115.1H366.223V113.75H374.098C377.173 113.75 380.148 113.55 382.473 113.15ZM373.873 109.875C370.323 109.875 367.723 107.375 367.723 104.4C367.723 101.425 370.323 98.95 373.873 98.95C377.473 98.95 380.073 101.425 380.073 104.4C380.073 107.375 377.473 109.875 373.873 109.875ZM373.873 100.3C371.073 100.3 369.398 102.15 369.398 104.4C369.398 106.65 371.073 108.525 373.873 108.525C376.673 108.525 378.398 106.65 378.398 104.4C378.398 102.15 376.673 100.3 373.873 100.3ZM397.027 111.8L396.077 110.575C401.752 108.875 405.702 104.85 406.427 100.575H397.427V99.225H408.352C407.827 105.525 402.877 109.8 397.027 111.8ZM415.477 119.95H400.002V112.55H401.677V118.6H415.477V119.95ZM414.552 114.55H412.902V98.075H414.552V104.425H417.952V105.825H414.552V114.55ZM420.2 111.025L419.25 109.8C424.775 108.35 428.875 104.675 429.575 100.575H420.6V99.225H431.5C430.975 105.45 425.85 109.35 420.2 111.025ZM438.05 120.425H436.4V114.025H422.7V112.65H438.05V120.425ZM438.1 111.45H436.45V107.825H431.45V106.475H436.45V103.075H431.975V101.725H436.45V98.075H438.1V111.45ZM461.423 120.3H459.748V98.075H461.423V120.3ZM443.123 107.125C443.123 101.8 445.573 98.675 448.823 98.675C452.098 98.675 454.523 101.8 454.523 107.125C454.523 112.475 452.098 115.6 448.823 115.6C445.573 115.6 443.123 112.475 443.123 107.125ZM452.848 107.125C452.848 102.55 451.173 100.025 448.823 100.025C446.498 100.025 444.798 102.55 444.798 107.125C444.798 111.725 446.498 114.25 448.823 114.25C451.173 114.25 452.848 111.725 452.848 107.125ZM491.077 120.425H489.427V113.775H475.727V112.4H491.077V120.425ZM491.127 111.2H489.477V103.475H482.327V102.075H489.477V98.075H491.127V111.2ZM487.627 107.125V108.45C485.027 109.025 480.952 109.325 477.452 109.325H473.627V98.725H475.277V107.95H477.452C480.827 107.95 484.877 107.675 487.627 107.125ZM514.075 120.425H512.425V113.775H498.725V112.4H514.075V120.425ZM514.125 111.2H512.475V103.475H505.325V102.075H512.475V98.075H514.125V111.2ZM510.625 107.125V108.45C508.025 109.025 503.95 109.325 500.45 109.325H496.625V98.725H498.275V107.95H500.45C503.825 107.95 507.875 107.675 510.625 107.125ZM529.848 103.8H518.273V102.45H529.848V103.8ZM527.173 100.225H520.898V98.875H527.173V100.225ZM537.973 120.3H536.298V108.55H532.948V119.25H531.323V98.45H532.948V107.075H536.298V98.075H537.973V120.3ZM519.048 110.6C519.048 107.775 521.248 105.65 524.023 105.65C526.823 105.65 529.048 107.775 529.048 110.6C529.048 113.425 526.823 115.55 524.023 115.55C521.248 115.55 519.048 113.425 519.048 110.6ZM527.423 110.6C527.423 108.5 526.098 106.95 524.023 106.95C521.998 106.95 520.673 108.5 520.673 110.6C520.673 112.675 521.998 114.25 524.023 114.25C526.098 114.25 527.423 112.675 527.423 110.6ZM567.078 120.05H551.978V114.575H564.878V111.825H551.978V110.525H566.553V115.825H553.628V118.725H567.078V120.05ZM559.928 107.875H549.378V99.225H559.928V107.875ZM558.253 106.575V100.525H551.053V106.575H558.253ZM566.603 109.35H564.953V98.075H566.603V102.425H570.003V103.825H566.603V109.35ZM586.351 119.25H584.726V107.825H581.701C581.551 112.725 579.476 115.575 576.651 115.575C573.726 115.575 571.601 112.475 571.601 107.2C571.601 101.95 573.726 98.85 576.651 98.85C579.451 98.85 581.526 101.65 581.701 106.425H584.726V98.45H586.351V119.25ZM576.651 114.225C578.751 114.225 580.101 111.45 580.101 107.2C580.101 102.975 578.751 100.2 576.651 100.2C574.601 100.2 573.226 102.975 573.226 107.2C573.226 111.45 574.601 114.225 576.651 114.225ZM590.876 120.3H589.201V98.075H590.876V120.3ZM620.505 120.3H618.83V111.425H612.93C611.98 114.125 610.105 115.6 607.88 115.6C604.63 115.6 602.205 112.475 602.205 107.125C602.205 101.8 604.63 98.675 607.88 98.675C610.08 98.675 611.905 100.1 612.855 102.675H618.83V98.075H620.505V120.3ZM607.88 114.25C610.205 114.25 611.905 111.725 611.905 107.125C611.905 102.55 610.205 100.025 607.88 100.025C605.555 100.025 603.88 102.55 603.88 107.125C603.88 111.725 605.555 114.25 607.88 114.25ZM618.83 110.075V104.025H613.23C613.455 104.95 613.58 106 613.58 107.125C613.58 108.2 613.48 109.2 613.305 110.075H618.83ZM642.928 103.325C642.928 106.2 639.828 108.45 634.653 108.45C629.503 108.45 626.403 106.2 626.403 103.325C626.403 100.475 629.503 98.225 634.653 98.225C639.828 98.225 642.928 100.475 642.928 103.325ZM641.253 103.325C641.253 101 638.428 99.575 634.653 99.575C630.928 99.575 628.078 101 628.078 103.325C628.078 105.675 630.928 107.1 634.653 107.1C638.428 107.1 641.253 105.675 641.253 103.325ZM639.478 120.3H637.828V112.125H631.628V120.1H629.928V112.125H623.803V110.775H645.628V112.125H639.478V120.3ZM648.376 115.55L647.301 114.425C653.201 111.55 656.501 106.55 657.126 100.9H648.676V99.55H658.951C658.601 107.075 654.276 112.575 648.376 115.55ZM665.276 120.3H663.626V98.075H665.276V106.75H669.026V108.175H665.276V120.3ZM696.93 111.675H695.255V104.775H691.955V110.825H690.305V98.45H691.955V103.35H695.255V98.075H696.93V111.675ZM688.98 120.675C683.88 120.675 680.805 118.8 680.805 116.25C680.805 113.725 683.88 111.85 688.98 111.85C694.08 111.85 697.13 113.725 697.13 116.25C697.13 118.8 694.08 120.675 688.98 120.675ZM688.98 113.2C685.23 113.2 682.505 114.325 682.505 116.25C682.505 118.2 685.23 119.325 688.98 119.325C692.73 119.325 695.455 118.2 695.455 116.25C695.455 114.325 692.73 113.2 688.98 113.2ZM689.18 108.725L688.205 109.925C685.905 108.825 683.93 106.8 683.155 104.75C682.48 107 680.43 109.225 678.055 110.675L676.905 109.625C679.88 107.95 682.255 104.825 682.255 101.05V98.775H683.98V101.075C683.98 104.975 686.555 107.55 689.18 108.725ZM720.029 119.95H704.329V112.625H706.004V118.6H720.029V119.95ZM701.279 111.8L700.329 110.575C706.004 108.875 709.979 104.85 710.679 100.575H701.704V99.225H712.604C712.079 105.525 707.129 109.8 701.279 111.8ZM719.204 114.55H717.554V98.075H719.204V114.55ZM741.302 120.3H739.652V98.075H741.302V106H745.052V107.425H741.302V120.3ZM738.577 112.2V113.55C735.777 114.125 731.402 114.4 728.052 114.4H724.602V99.55H735.327V100.9H726.252V113.025H728.052C731.402 113.025 735.577 112.75 738.577 112.2ZM750.05 117.825C750.05 118.625 749.425 119.225 748.625 119.225C747.775 119.225 747.15 118.625 747.15 117.825C747.15 117.075 747.775 116.425 748.625 116.425C749.425 116.425 750.05 117.075 750.05 117.825Z" fill="black"/>
</svg>
