<svg width="437" height="245" viewBox="0 0 437 245" fill="none" xmlns="http://www.w3.org/2000/svg">
<rect x="0.5" y="0.5" width="436" height="180" fill="#90C85F"/>
<rect x="0.5" y="0.5" width="436" height="180" stroke="black"/>
<path d="M48.5308 36.728H45.3668V21.72H48.5308V26.788H52.0308V29.476H48.5308V36.728ZM49.1188 41.992C49.1188 44.904 45.6748 47.116 39.7948 47.116C33.9148 47.116 30.4988 44.904 30.4988 41.992C30.4988 39.08 33.9148 36.868 39.7948 36.868C45.6748 36.868 49.1188 39.08 49.1188 41.992ZM45.8428 41.992C45.8428 40.368 43.4068 39.332 39.7948 39.332C36.2108 39.332 33.7748 40.368 33.7748 41.992C33.7748 43.616 36.2108 44.652 39.7948 44.652C43.4068 44.652 45.8428 43.616 45.8428 41.992ZM44.2188 30.96V33.536C41.0548 34.096 37.6388 34.348 34.4468 34.348H28.6508V22.756H41.1668V25.332H31.8148V31.716H34.4468C37.6388 31.716 40.9148 31.52 44.2188 30.96ZM75.2126 40.2H72.0486V21.72H75.2126V40.2ZM75.8566 46.304H57.9086V38.044H61.1286V43.7H75.8566V46.304ZM69.5006 33.452L67.7646 35.748C65.2726 34.712 62.7526 32.864 61.3246 30.596C60.1206 32.976 57.4886 35.216 54.6326 36.392L52.5886 34.208C56.6486 32.64 59.5886 29.336 59.5886 25.668V22.252H62.9206V25.612C62.9206 29.504 66.0286 32.248 69.5006 33.452ZM101.166 46.752H98.0024V21.748H101.166V46.752ZM86.6904 41.74C82.9104 41.74 79.8584 38.744 79.8584 32.024C79.8584 25.304 82.9104 22.308 86.6904 22.308C90.4984 22.308 93.4944 25.304 93.4944 32.024C93.4944 38.744 90.4984 41.74 86.6904 41.74ZM86.6904 39.108C88.8184 39.108 90.3584 37.064 90.3584 32.024C90.3584 26.984 88.8184 24.94 86.6904 24.94C84.5624 24.94 83.0224 26.984 83.0224 32.024C83.0224 37.064 84.5624 39.108 86.6904 39.108ZM135.135 41.992C135.135 44.904 131.747 47.116 125.503 47.116C119.259 47.116 115.899 44.904 115.899 41.992C115.899 39.08 119.259 36.868 125.503 36.868C131.747 36.868 135.135 39.08 135.135 41.992ZM135.107 36.868H131.971V29.924H129.451V36.028H126.343V22.168H129.451V27.124H131.971V21.748H135.107V36.868ZM125.699 33.2L123.935 35.272C121.835 34.208 120.155 32.528 119.063 30.568C118.111 32.696 116.235 34.656 113.939 36.168L111.783 34.208C115.003 32.36 117.383 29.168 117.383 25.024V22.336H120.659V25.024C120.659 29.224 122.787 31.744 125.699 33.2ZM131.831 41.992C131.831 40.368 129.479 39.332 125.503 39.332C121.555 39.332 119.175 40.368 119.175 41.992C119.175 43.616 121.555 44.652 125.503 44.652C129.479 44.652 131.831 43.616 131.831 41.992ZM159.437 36.56H156.273V21.72H159.437V27.628H162.937V30.316H159.437V36.56ZM159.381 46.836H156.217V40.256H141.741V37.624H159.381V46.836ZM140.117 36.392L138.297 34.096C144.121 32.696 147.957 29.112 148.741 25.332H139.781V22.756H152.381C152.073 30.736 145.689 34.768 140.117 36.392ZM176.179 24.8H168.031V22.168H176.179V24.8ZM179.875 29.112H164.363V26.48H179.875V29.112ZM185.279 46.752H182.115V21.748H185.279V31.772H188.975V34.516H185.279V46.752ZM179.007 36.364C179.007 39.64 176.235 42.412 172.119 42.412C167.975 42.412 165.203 39.64 165.203 36.364C165.203 33.088 167.975 30.316 172.119 30.316C176.235 30.316 179.007 33.088 179.007 36.364ZM175.843 36.364C175.843 34.46 174.415 32.892 172.119 32.892C169.795 32.892 168.367 34.46 168.367 36.364C168.367 38.268 169.795 39.836 172.119 39.836C174.415 39.836 175.843 38.268 175.843 36.364ZM211.597 46.304H192.585V38.52H195.805V43.7H211.597V46.304ZM211.177 30.988H192.529V21.776H195.693V28.384H211.177V30.988ZM213.949 36.532H189.477V33.956H213.949V36.532ZM245.118 46.528H226.162V35.02H244.698V37.484H229.326V39.556H244.53V41.908H229.326V44.008H245.118V46.528ZM247.582 32.836H223.11V30.316H230.362C230.726 28.412 231.034 26.06 231.09 24.856H225.07V22.336H234.422C234.366 24.884 233.974 28.104 233.526 30.316H240.918C241.31 28.412 241.59 26.06 241.646 24.856H235.346V22.336H245.006C244.95 24.884 244.53 28.104 244.082 30.316H247.582V32.836ZM259.479 42.524L256.763 41.04C260.515 36.896 262.251 31.408 262.363 25.92H258.387V23.288H265.639C265.667 31.912 263.259 37.96 259.479 42.524ZM251.303 41.18L248.615 39.724C252.451 36.084 254.215 30.652 254.355 25.92H250.211V23.288H257.659C257.687 30.848 255.447 36.84 251.303 41.18ZM270.735 46.752H267.627V21.748H270.735V31.072H274.123V33.816H270.735V46.752ZM291.677 39.136L289.801 41.488C286.945 40.032 284.453 37.512 283.109 34.74C282.101 37.568 279.413 40.368 276.389 42.048L274.177 39.864C278.405 37.792 281.373 33.648 281.373 28.02V25.92H275.661V23.288H290.361V25.92H284.705V28.188C284.705 33.816 288.009 37.4 291.677 39.136ZM297.221 46.752H294.057V21.748H297.221V46.752ZM329.874 34.684H326.71V21.72H329.874V26.284H333.206V28.916H329.874V34.684ZM330.406 46.528H312.738V39.864H326.654V38.212H312.738V35.748H329.818V42.216H315.902V44.008H330.406V46.528ZM324.638 31.492L322.986 33.788C320.466 33.032 317.778 31.24 316.49 29.196C315.314 31.408 312.57 33.48 309.742 34.432L307.754 32.192C311.842 30.904 314.726 27.992 314.726 24.268V22.14H318.086V24.212C318.086 28.16 321.25 30.512 324.638 31.492ZM355.296 46.752H352.104V21.748H355.296V30.232H358.992V32.976H355.296V46.752ZM341.632 41.74C337.796 41.74 334.744 38.744 334.744 32.024C334.744 25.304 337.796 22.308 341.632 22.308C345.496 22.308 348.576 25.304 348.576 32.024C348.576 38.744 345.496 41.74 341.632 41.74ZM341.632 39.108C343.844 39.108 345.412 37.064 345.412 32.024C345.412 26.984 343.844 24.94 341.632 24.94C339.448 24.94 337.88 26.984 337.88 32.024C337.88 37.064 339.448 39.108 341.632 39.108ZM381.25 35.412H378.086V21.72H381.25V26.088H384.722V28.776H381.25V35.412ZM381.194 46.416H364.114V36.476H381.194V46.416ZM378.03 43.84V39.052H367.278V43.84H378.03ZM376.938 30.12V32.696C373.774 33.256 370.358 33.508 367.166 33.508H361.51V22.336H364.674V30.876H367.166C370.358 30.876 373.634 30.68 376.938 30.12ZM410.003 34.32H385.531V31.856H410.003V34.32ZM407.539 46.528H388.583V40.116H403.787V38.548H388.583V36.084H406.951V42.412H391.747V44.008H407.539V46.528ZM407.371 25.948C407.371 28.608 403.731 30.54 397.739 30.54C391.803 30.54 388.163 28.608 388.163 25.948C388.163 23.288 391.803 21.356 397.739 21.356C403.731 21.356 407.371 23.288 407.371 25.948ZM404.011 25.948C404.011 24.604 401.435 23.764 397.739 23.764C394.071 23.764 391.495 24.604 391.495 25.948C391.495 27.292 394.071 28.132 397.739 28.132C401.435 28.132 404.011 27.292 404.011 25.948ZM72.3181 80.852C72.3181 83.848 68.8181 86.116 62.8541 86.116C56.8621 86.116 53.3901 83.848 53.3901 80.852C53.3901 77.856 56.8621 75.588 62.8541 75.588C68.8181 75.588 72.3181 77.856 72.3181 80.852ZM69.0421 80.852C69.0421 79.144 66.5501 78.052 62.8541 78.052C59.1581 78.052 56.6661 79.144 56.6661 80.852C56.6661 82.56 59.1581 83.652 62.8541 83.652C66.5501 83.652 69.0421 82.56 69.0421 80.852ZM52.0741 75.392L50.2821 73.096C56.0221 71.696 59.7461 68.112 60.5301 64.332H51.7661V61.756H64.1701C63.8621 69.736 57.5901 73.768 52.0741 75.392ZM71.8421 75.448H68.6781V72.284H63.8061V69.652H68.6781V66.964H64.5901V64.332H68.6781V60.72H71.8421V75.448ZM97.1239 75.728H93.9599V60.72H97.1239V66.068H100.484V68.756H97.1239V75.728ZM97.7119 80.992C97.7119 83.904 94.2959 86.116 88.3879 86.116C82.5079 86.116 79.1199 83.904 79.1199 80.992C79.1199 78.08 82.5079 75.868 88.3879 75.868C94.2959 75.868 97.7119 78.08 97.7119 80.992ZM94.4359 80.992C94.4359 79.368 91.9999 78.332 88.3879 78.332C84.8039 78.332 82.3679 79.368 82.3679 80.992C82.3679 82.616 84.8039 83.652 88.3879 83.652C91.9999 83.652 94.4359 82.616 94.4359 80.992ZM91.8879 71.556L90.2079 73.852C87.6599 73.04 85.0839 71.192 83.7399 69.036C82.5079 71.304 79.9319 73.432 77.0479 74.664L75.0039 72.48C79.1199 70.856 81.9759 67.832 81.9759 64.108V61.252H85.3359V64.052C85.3359 67.944 88.4439 70.408 91.8879 71.556ZM125.738 82.952H101.266V80.32H112.018V74.524H104.43V61.896H122.742V64.528H107.594V71.864H123.162V74.524H115.266V80.32H125.738V82.952ZM151.307 77.968L149.319 80.32C146.491 78.808 143.915 76.232 142.739 73.572C141.787 76.344 139.127 79.144 136.075 80.88L133.807 78.752C138.063 76.624 141.003 72.48 141.003 66.852V61.728H144.335V67.02C144.335 72.592 147.695 76.176 151.307 77.968ZM156.459 85.752H153.295V60.748H156.459V69.792H160.155V72.536H156.459V85.752ZM182.412 73.6H163.82V61.364H181.964V63.94H166.984V66.18H181.824V68.7H166.984V70.996H182.412V73.6ZM185.128 78.36H174.488V85.752H171.268V78.36H160.656V75.784H185.128V78.36ZM208.422 85.752H205.258V60.748H208.422V85.752ZM203.802 76.708V79.312C200.638 79.872 197.25 80.124 194.03 80.124H188.234V69.624H197.53V64.78H188.234V62.148H200.694V72.2H191.398V77.464H194.03C197.25 77.464 200.526 77.268 203.802 76.708ZM234.292 85.304H215.28V77.52H218.5V82.7H234.292V85.304ZM233.872 69.988H215.224V60.776H218.388V67.384H233.872V69.988ZM236.644 75.532H212.172V72.956H236.644V75.532ZM267.113 71.612H248.969V61.448H267.113V71.612ZM270.277 77.296H259.637V85.752H256.417V77.296H245.805V74.664H270.277V77.296ZM263.949 68.98V64.08H252.133V68.98H263.949ZM293.963 77.24H290.799V68.784H286.319C285.815 71.948 283.127 74.272 279.459 74.272C275.343 74.272 272.459 71.332 272.459 67.608C272.459 63.884 275.343 60.944 279.459 60.944C283.015 60.944 285.647 63.156 286.263 66.152H290.799V60.72H293.963V77.24ZM295.279 83.456L293.711 85.696C289.931 84.912 286.515 82.84 285.059 80.152C283.547 82.84 280.159 84.912 276.379 85.696L274.811 83.456C279.095 82.504 283.379 79.984 283.379 76.344V75.7H286.711V76.344C286.711 79.984 290.995 82.504 295.279 83.456ZM279.459 71.696C281.923 71.696 283.295 69.876 283.295 67.608C283.295 65.34 281.923 63.52 279.459 63.52C276.995 63.52 275.623 65.34 275.623 67.608C275.623 69.876 276.995 71.696 279.459 71.696ZM320.364 85.304H302.416V76.764H305.636V82.7H320.364V85.304ZM319.72 78.92H316.556V60.72H319.72V78.92ZM312.496 67.748C312.496 71.556 309.5 74.552 305.3 74.552C301.072 74.552 298.104 71.556 298.104 67.748C298.104 63.94 301.072 60.944 305.3 60.944C309.5 60.944 312.496 63.94 312.496 67.748ZM305.3 71.976C307.904 71.976 309.332 70.1 309.332 67.748C309.332 65.396 307.904 63.52 305.3 63.52C302.696 63.52 301.24 65.396 301.24 67.748C301.24 70.1 302.696 71.976 305.3 71.976ZM325.626 80.852L323.386 78.668C330.022 75.504 333.186 69.792 333.69 64.92H324.842V62.288H337.106C337.246 70.912 332.206 77.296 325.626 80.852ZM344.358 85.752H341.166V60.748H344.358V70.072H348.054V72.816H344.358V85.752ZM370.648 67.972C370.648 71.808 366.588 74.944 360.988 74.944C355.388 74.944 351.384 71.808 351.384 67.972C351.384 64.136 355.388 61 360.988 61C366.588 61 370.648 64.136 370.648 67.972ZM373.308 82.952H348.836V80.32H354.212V75.476H357.376V80.32H364.74V75.476H367.904V80.32H373.308V82.952ZM367.288 67.972C367.288 65.48 364.656 63.632 360.988 63.632C357.348 63.632 354.716 65.48 354.716 67.972C354.716 70.436 357.348 72.312 360.988 72.312C364.656 72.312 367.288 70.436 367.288 67.972ZM381.538 78.864H378.766V76.96C378.766 74.748 379.578 73.124 382.154 70.968C383.33 69.96 384.254 68.588 384.254 67.048C384.254 64.752 382.49 63.856 380.502 63.856C379.27 63.856 377.226 64.444 375.686 65.34L374.622 63.016C376.19 62.12 378.878 61.308 380.838 61.308C384.17 61.308 387.278 62.848 387.278 66.908C387.278 69.344 386.158 71.192 383.806 73.096C382.266 74.384 381.538 75.532 381.538 77.212V78.864ZM380.222 85.024C379.018 85.024 378.066 84.072 378.066 82.868C378.066 81.748 378.99 80.824 380.138 80.824C381.314 80.824 382.35 81.72 382.35 82.868C382.35 83.988 381.37 85.024 380.222 85.024ZM59.4443 164.956H47.2643V163.612H59.4443V164.956ZM68.8811 164.956H56.7011V163.612H68.8811V164.956ZM78.318 164.956H66.138V163.612H78.318V164.956ZM87.7549 164.956H75.5749V163.612H87.7549V164.956ZM97.1918 164.956H85.0118V163.612H97.1918V164.956ZM106.629 164.956H94.4486V163.612H106.629V164.956ZM116.065 164.956H103.885V163.612H116.065V164.956ZM125.502 164.956H113.322V163.612H125.502V164.956ZM134.939 164.956H122.759V163.612H134.939V164.956ZM144.376 164.956H132.196V163.612H144.376V164.956ZM153.813 164.956H141.633V163.612H153.813V164.956ZM163.25 164.956H151.07V163.612H163.25V164.956ZM172.687 164.956H160.507V163.612H172.687V164.956ZM182.124 164.956H169.944V163.612H182.124V164.956ZM191.561 164.956H179.381V163.612H191.561V164.956ZM200.997 164.956H188.817V163.612H200.997V164.956ZM210.434 164.956H198.254V163.612H210.434V164.956ZM219.871 164.956H207.691V163.612H219.871V164.956ZM229.308 164.956H217.128V163.612H229.308V164.956ZM238.745 164.956H226.565V163.612H238.745V164.956ZM248.182 164.956H236.002V163.612H248.182V164.956ZM257.619 164.956H245.439V163.612H257.619V164.956ZM267.056 164.956H254.876V163.612H267.056V164.956ZM276.492 164.956H264.312V163.612H276.492V164.956ZM285.929 164.956H273.749V163.612H285.929V164.956ZM295.366 164.956H283.186V163.612H295.366V164.956ZM304.803 164.956H292.623V163.612H304.803V164.956ZM314.24 164.956H302.06V163.612H314.24V164.956ZM323.677 164.956H311.497V163.612H323.677V164.956ZM333.114 164.956H320.934V163.612H333.114V164.956ZM342.551 164.956H330.371V163.612H342.551V164.956ZM351.987 164.956H339.807V163.612H351.987V164.956ZM361.424 164.956H349.244V163.612H361.424V164.956ZM370.861 164.956H358.681V163.612H370.861V164.956ZM380.298 164.956H368.118V163.612H380.298V164.956ZM389.735 164.956H377.555V163.612H389.735V164.956Z" fill="white"/>
<path d="M64.7908 155.64H63.4508V137.86H64.7908V155.64ZM50.1508 145.1C50.1508 140.84 52.1108 138.34 54.7108 138.34C57.3308 138.34 59.2708 140.84 59.2708 145.1C59.2708 149.38 57.3308 151.88 54.7108 151.88C52.1108 151.88 50.1508 149.38 50.1508 145.1ZM57.9308 145.1C57.9308 141.44 56.5908 139.42 54.7108 139.42C52.8508 139.42 51.4908 141.44 51.4908 145.1C51.4908 148.78 52.8508 150.8 54.7108 150.8C56.5908 150.8 57.9308 148.78 57.9308 145.1ZM87.5142 144.78H86.1942C86.6542 143.04 86.9142 141.1 86.9542 139.52H75.1942V138.44H88.3342C88.2942 140.94 87.9942 143.04 87.5142 144.78ZM90.5142 147.28H73.0742V146.2H80.1142V142H81.4942V146.2H90.5142V147.28ZM89.5542 154.7L88.8342 155.68C85.7142 155.1 82.8742 153.5 81.7742 151.46C80.6942 153.5 77.8542 155.1 74.7342 155.68L73.9742 154.7C77.4942 154.1 81.0342 152.02 81.0342 149.48V148.7H82.5142V149.48C82.5142 152.02 86.0942 154.1 89.5542 154.7ZM103.913 154.8H102.613V145.66H100.193C100.073 149.58 98.4127 151.86 96.1527 151.86C93.8127 151.86 92.1127 149.38 92.1127 145.16C92.1127 140.96 93.8127 138.48 96.1527 138.48C98.3927 138.48 100.053 140.72 100.193 144.54H102.613V138.16H103.913V154.8ZM96.1527 150.78C97.8327 150.78 98.9127 148.56 98.9127 145.16C98.9127 141.78 97.8327 139.56 96.1527 139.56C94.5127 139.56 93.4127 141.78 93.4127 145.16C93.4127 148.56 94.5127 150.78 96.1527 150.78ZM107.533 155.64H106.193V137.86H107.533V155.64ZM127.356 150.5L126.536 151.46C124.156 150.16 121.936 147.74 121.216 145.46C120.476 147.98 118.576 150.3 115.856 151.98L114.936 151.14C118.056 149.34 120.456 146.24 120.456 142V138.64H121.896V142C121.896 146.08 124.556 149.12 127.356 150.5ZM130.476 155.64H129.136V137.86H130.476V144.74H133.476V145.88H130.476V155.64ZM149.215 146.64H136.335V138.42H148.835V139.5H137.675V141.96H148.755V143.02H137.675V145.54H149.215V146.64ZM151.355 149.8H143.295V155.64H141.915V149.8H133.875V148.72H151.355V149.8ZM167.613 155.64H166.273V137.86H167.613V155.64ZM165.333 149.56V150.66C163.093 151.1 159.593 151.32 156.893 151.32H153.733V144.5H160.913V140.02H153.733V138.94H162.273V145.56H155.053V150.22H156.893C159.593 150.22 162.933 150.02 165.333 149.56ZM185.911 144.74H173.131V140.98H184.151V139.32H173.131V138.3H185.471V141.96H174.471V143.7H185.911V144.74ZM188.131 147.3H170.691V146.28H188.131V147.3ZM186.091 155.44H173.111V151.62H184.311V149.96H173.111V148.94H185.651V152.62H174.451V154.4H186.091V155.44ZM206.935 146.48L206.135 147.44C203.895 146.62 201.895 144.98 201.075 143.24C200.355 145.18 198.275 147.02 195.835 148.04L194.995 147.12C197.855 146.08 200.335 143.54 200.335 140.52V139.84H195.975V138.78H205.975V139.84H201.755V140.52C201.755 143.42 204.275 145.62 206.935 146.48ZM210.375 155.74H209.035V150.62H198.095V149.52H210.375V155.74ZM210.415 148.56H209.075V143.1H205.055V141.98H209.075V137.86H210.415V148.56ZM221.813 148.04C217.933 148.04 215.273 145.92 215.273 143.14C215.273 140.34 217.933 138.22 221.813 138.22C225.713 138.22 228.393 140.34 228.393 143.14C228.393 145.92 225.713 148.04 221.813 148.04ZM221.813 139.3C218.873 139.3 216.593 140.82 216.593 143.14C216.593 145.44 218.873 146.96 221.813 146.96C224.773 146.96 227.053 145.44 227.053 143.14C227.053 140.82 224.773 139.3 221.813 139.3ZM230.573 153.04H213.093V151.96H230.573V153.04ZM246.992 151.04H245.672V145.28H241.392V147.22H232.892V138.78H241.392V140.6H245.672V137.86H246.992V151.04ZM240.052 146.14V139.84H234.212V146.14H240.052ZM247.652 155.36H235.092V149.44H236.432V154.28H247.652V155.36ZM245.672 144.2V141.68H241.392V144.2H245.672ZM263.695 151.12H256.835V138.96H258.135V143.52H262.355V138.96H263.695V151.12ZM262.355 150.04V144.6H258.135V150.04H262.355ZM271.175 155.64H269.855V145.38H267.135V154.8H265.835V138.16H267.135V144.2H269.855V137.86H271.175V155.64ZM283.294 155.94C279.254 155.94 276.814 154.4 276.814 152.3C276.814 150.22 279.254 148.68 283.294 148.68C287.314 148.68 289.754 150.22 289.754 152.3C289.754 154.4 287.314 155.94 283.294 155.94ZM283.294 149.76C280.334 149.76 278.154 150.7 278.154 152.32C278.154 153.92 280.334 154.86 283.294 154.86C286.254 154.86 288.414 153.92 288.414 152.32C288.414 150.7 286.254 149.76 283.294 149.76ZM275.094 148.16L274.334 147.2C278.754 146.02 282.034 143.14 282.594 139.86H275.414V138.78H284.134C283.714 143.76 279.574 146.84 275.094 148.16ZM289.414 148.54H288.094V145.54H284.094V144.46H288.094V141.84H284.514V140.76H288.094V137.86H289.414V148.54ZM304.772 154.8H303.472V145.66H301.052C300.932 149.58 299.272 151.86 297.012 151.86C294.672 151.86 292.972 149.38 292.972 145.16C292.972 140.96 294.672 138.48 297.012 138.48C299.252 138.48 300.912 140.72 301.052 144.54H303.472V138.16H304.772V154.8ZM297.012 150.78C298.692 150.78 299.772 148.56 299.772 145.16C299.772 141.78 298.692 139.56 297.012 139.56C295.372 139.56 294.272 141.78 294.272 145.16C294.272 148.56 295.372 150.78 297.012 150.78ZM308.392 155.64H307.052V137.86H308.392V155.64ZM328.675 150.58L327.855 151.54C325.575 150.24 323.295 147.96 322.535 145.76C321.835 148.22 319.735 150.52 317.155 152.06L316.255 151.18C319.175 149.54 321.775 146.48 321.775 142.34V140.12H317.295V139.04H327.555V140.12H323.195V142.34C323.195 146.4 326.115 149.26 328.675 150.58ZM332.095 155.64H330.755V144.62H326.755V143.5H330.755V137.86H332.095V155.64ZM350.334 152.4C350.334 154.44 347.954 155.94 344.074 155.94C340.154 155.94 337.794 154.44 337.794 152.4C337.794 150.38 340.154 148.88 344.074 148.88C347.954 148.88 350.334 150.38 350.334 152.4ZM348.994 152.4C348.994 150.86 346.914 149.96 344.074 149.96C341.214 149.96 339.154 150.86 339.154 152.4C339.154 153.96 341.214 154.86 344.074 154.86C346.914 154.86 348.994 153.96 348.994 152.4ZM346.754 146.28L345.974 147.24C343.734 146.42 341.734 144.78 340.894 143.04C340.174 144.98 338.114 146.82 335.654 147.84L334.814 146.92C337.694 145.88 340.154 143.34 340.154 140.32V139.84H335.814V138.78H345.794V139.84H341.574V140.32C341.574 143.22 344.114 145.42 346.754 146.28ZM349.894 148.52H348.574V137.86H349.894V141.96H352.514V143.06H349.894V148.52ZM369.212 155.64H367.872V145.94H365.332V154.8H364.032V138.16H365.332V144.76H367.872V137.86H369.212V155.64ZM363.332 150.28V151.34C362.072 151.66 359.772 151.76 357.952 151.76H353.372V150.68H357.772V146.44H354.372V139.12H361.892V140.18H355.692V145.36H362.312V146.44H359.112V150.68C360.672 150.64 362.292 150.52 363.332 150.28ZM380.251 147.84C376.371 147.84 373.711 145.76 373.711 143.04C373.711 140.3 376.371 138.22 380.251 138.22C384.151 138.22 386.831 140.3 386.831 143.04C386.831 145.76 384.151 147.84 380.251 147.84ZM380.251 139.3C377.311 139.3 375.031 140.8 375.031 143.04C375.031 145.28 377.311 146.76 380.251 146.76C383.211 146.76 385.491 145.28 385.491 143.04C385.491 140.8 383.211 139.3 380.251 139.3ZM389.011 153.18H371.531V152.1H375.791V148.24H377.151V152.1H383.351V148.24H384.711V152.1H389.011V153.18Z" fill="#B7E58E"/>
</svg>
