<svg width="248" height="46" viewBox="0 0 248 46" fill="none" xmlns="http://www.w3.org/2000/svg">
<rect x="0.5" y="0.5" width="247" height="45" fill="#90C85F"/>
<rect x="0.5" y="0.5" width="247" height="45" stroke="black"/>
<path d="M23.04 28.8L23.24 29.8C22.22 30.12 20.98 30.24 19.8 30.24C15.98 30.24 14.16 27.68 14.14 24.34C14.1 21.24 15.98 18.6 19.2 18.62C22.5 18.62 23.98 20.76 23.98 23.94V24.66H15.42C15.5 27.16 16.92 29.26 19.84 29.24C20.86 29.24 22.02 29.12 23.04 28.8ZM15.38 23.68H22.72C22.72 23.64 22.76 23.46 22.72 23.42C22.7 21.04 21.38 19.62 19.2 19.62C16.72 19.62 15.54 21.6 15.38 23.68ZM28.5397 29.66C28.5397 30.3 28.0397 30.78 27.3997 30.78C26.7197 30.78 26.2197 30.3 26.2197 29.66C26.2197 29.06 26.7197 28.54 27.3997 28.54C28.0397 28.54 28.5397 29.06 28.5397 29.66ZM40.028 29.42V27.92H39.908C39.128 29.14 37.688 29.86 36.128 29.86C33.068 29.88 31.328 27.5 31.328 24.24C31.328 21 33.108 18.62 36.208 18.64C37.788 18.64 39.088 19.3 39.888 20.48H39.988V18.9H41.268V29.6C41.268 32.68 39.148 34.24 36.108 34.24C35.048 34.24 33.668 34.08 32.648 33.74L32.928 32.72C33.928 33.1 35.048 33.24 36.108 33.24C38.728 33.24 40.028 31.82 40.028 29.42ZM39.968 25.22V23.12C39.968 21.16 38.228 19.64 36.348 19.64C33.968 19.64 32.588 21.6 32.588 24.24C32.588 26.88 33.848 28.86 36.268 28.86C38.208 28.86 39.968 27.32 39.968 25.22ZM46.9186 29.66C46.9186 30.3 46.4186 30.78 45.7786 30.78C45.0986 30.78 44.5986 30.3 44.5986 29.66C44.5986 29.06 45.0986 28.54 45.7786 28.54C46.4186 28.54 46.9186 29.06 46.9186 29.66ZM69.4319 31.64H68.1119V13.86H69.4319V20.3H72.4319V21.44H69.4319V31.64ZM55.3519 21.1C55.3519 16.84 57.2919 14.34 59.8919 14.34C62.4919 14.34 64.4519 16.84 64.4519 21.1C64.4519 25.38 62.4919 27.88 59.8919 27.88C57.2919 27.88 55.3519 25.38 55.3519 21.1ZM63.1119 21.1C63.1119 17.44 61.7519 15.42 59.8919 15.42C58.0319 15.42 56.6919 17.44 56.6919 21.1C56.6919 24.78 58.0319 26.8 59.8919 26.8C61.7519 26.8 63.1119 24.78 63.1119 21.1ZM83.1103 21.44L83.7903 21.84C83.3503 23.18 82.3103 23.96 81.0703 23.96C80.1303 23.96 79.3703 23.44 78.6903 22.88C77.9503 22.28 77.2903 21.74 76.4703 21.74C75.6303 21.74 74.9103 22.38 74.4703 23.28L73.7903 22.92C74.0903 21.8 75.2703 20.7 76.4903 20.7C77.4103 20.7 78.1503 21.16 78.8103 21.7C79.5903 22.34 80.2903 22.9 81.1703 22.9C81.9503 22.9 82.6903 22.38 83.1103 21.44ZM100.832 31.64H99.4917V13.86H100.832V31.64ZM98.5517 25.14V26.22C96.3117 26.68 92.8117 26.88 90.1117 26.88H87.1517V14.7H88.4917V25.78H90.1117C92.8117 25.78 96.1517 25.58 98.5517 25.14ZM126.995 28.98H109.515V27.9H121.595C122.595 24.4 123.175 19.66 123.335 16.26H111.655V15.18H124.735C124.555 19.64 123.955 24.36 122.975 27.9H126.995V28.98ZM129.154 27.82L128.134 26.96C132.274 24.64 134.414 20.2 134.654 16.24H129.134V15.16H136.094C135.994 20.66 133.354 25.26 129.154 27.82ZM140.114 30.8H138.814V21.7H135.774V20.58H138.814V14.16H140.114V30.8ZM143.774 31.64H142.454V13.86H143.774V31.64ZM167.057 31.44H155.397V25.08H167.057V31.44ZM165.737 30.36V26.14H156.737V30.36H165.737ZM163.917 22.42L163.177 23.38C161.037 22.8 158.997 21.42 158.097 19.72C157.377 21.48 155.277 23.16 152.817 24.04L152.017 23.1C154.857 22.26 157.317 19.94 157.357 17.72H153.057V16.64H162.997V17.72H158.777C158.797 19.9 161.337 21.82 163.917 22.42ZM167.097 24.12H165.777V13.86H167.097V18.46H169.717V19.56H167.097V24.12ZM160.837 15H155.237V13.94H160.837V15ZM185.775 31.44H173.695V27.06H184.015V24.86H173.695V23.82H185.355V28.06H175.015V30.38H185.775V31.44ZM180.055 21.7H171.615V14.78H180.055V21.7ZM178.715 20.66V15.82H172.955V20.66H178.715ZM185.395 22.88H184.075V13.86H185.395V17.34H188.115V18.46H185.395V22.88ZM204.494 31.64H203.154V13.86H204.494V31.64ZM189.854 21.1C189.854 16.84 191.814 14.34 194.414 14.34C197.034 14.34 198.974 16.84 198.974 21.1C198.974 25.38 197.034 27.88 194.414 27.88C191.814 27.88 189.854 25.38 189.854 21.1ZM197.634 21.1C197.634 17.44 196.294 15.42 194.414 15.42C192.554 15.42 191.194 17.44 191.194 21.1C191.194 24.78 192.554 26.8 194.414 26.8C196.294 26.8 197.634 24.78 197.634 21.1ZM222.892 31.64H221.552V24.54H216.832C216.072 26.7 214.572 27.88 212.792 27.88C210.192 27.88 208.252 25.38 208.252 21.1C208.252 16.84 210.192 14.34 212.792 14.34C214.552 14.34 216.012 15.48 216.772 17.54H221.552V13.86H222.892V31.64ZM212.792 26.8C214.652 26.8 216.012 24.78 216.012 21.1C216.012 17.44 214.652 15.42 212.792 15.42C210.932 15.42 209.592 17.44 209.592 21.1C209.592 24.78 210.932 26.8 212.792 26.8ZM221.552 23.46V18.62H217.072C217.252 19.36 217.352 20.2 217.352 21.1C217.352 21.96 217.272 22.76 217.132 23.46H221.552ZM230.091 26.6H228.931V25.74C228.931 23.92 229.371 22.84 231.151 21.38C232.291 20.44 233.071 19.22 233.071 18.08C233.071 16.2 231.511 15.4 229.851 15.4C228.871 15.4 227.391 15.8 226.351 16.42L225.871 15.52C226.951 14.88 228.591 14.38 229.951 14.38C232.211 14.38 234.351 15.44 234.351 18.04C234.351 19.5 233.591 20.74 232.231 21.88C230.491 23.38 230.091 24.1 230.091 25.82V26.6ZM230.651 29.84C230.651 30.46 230.151 30.94 229.531 30.94C228.851 30.94 228.371 30.46 228.371 29.84C228.371 29.26 228.851 28.74 229.531 28.74C230.151 28.74 230.651 29.26 230.651 29.84Z" fill="white"/>
</svg>
