<svg width="334" height="166" viewBox="0 0 334 166" fill="none" xmlns="http://www.w3.org/2000/svg">
<rect x="0.5" y="0.5" width="333" height="165" fill="#90C85F"/>
<rect x="0.5" y="0.5" width="333" height="165" stroke="black"/>
<path d="M20.3 21.3L19.5 21.88L17.56 19.4L15.64 21.88L14.84 21.36L16.82 18.78L14.02 17.78L14.36 16.92L17.08 17.86V15.04H18.06V17.86L20.8 16.92L21.14 17.78L18.34 18.78L20.3 21.3ZM40.003 29.18H22.523V28.1H30.563V23.4H24.983V14.98H37.503V23.4H31.943V28.1H40.003V29.18ZM36.163 22.32V16.06H26.323V22.32H36.163ZM56.3214 20.78H43.3814V14.44H55.9814V15.52H44.7214V19.7H56.3214V20.78ZM56.7014 31.36H43.4014V26.04H44.7414V30.26H56.7014V31.36ZM58.3814 24.44H40.9414V23.36H58.3814V24.44ZM79.9648 31.44H68.3048V24.86H79.9648V31.44ZM78.6248 30.36V25.94H69.6248V30.36H78.6248ZM65.9848 24.02L65.2448 23.06C69.6448 21.94 72.9448 19.08 73.5248 15.86H66.3048V14.78H75.0448C74.6248 19.7 70.4848 22.68 65.9848 24.02ZM80.0048 23.9H78.6848V13.86H80.0048V18.14H82.7248V19.26H80.0048V23.9ZM99.4033 28.4C99.4033 30.44 96.9433 31.94 92.9233 31.94C88.9033 31.94 86.4433 30.44 86.4433 28.4C86.4433 26.38 88.9033 24.88 92.9233 24.88C96.9433 24.88 99.4033 26.38 99.4033 28.4ZM98.0433 28.4C98.0433 26.86 95.8633 25.96 92.9233 25.96C89.9633 25.96 87.8033 26.86 87.8033 28.4C87.8033 29.96 89.9633 30.86 92.9233 30.86C95.8633 30.86 98.0433 29.96 98.0433 28.4ZM95.5833 22.48L94.7833 23.44C92.5433 22.62 90.5433 20.98 89.7233 19.24C89.0033 21.18 86.9233 23.02 84.4833 24.04L83.6433 23.12C86.5033 22.08 88.9833 19.54 88.9833 16.52V15.84H84.6233V14.78H94.6233V15.84H90.4033V16.52C90.4033 19.42 92.9233 21.62 95.5833 22.48ZM99.0633 24.74H97.7233V19.1H93.7033V18H97.7233V13.86H99.0633V24.74ZM117.602 23H103.342V21.92H106.222L106.082 16.06H103.762V14.98H117.182V16.06H115.042L114.902 21.92H117.602V23ZM113.562 21.92L113.722 16.06H107.422L107.542 21.92H113.562ZM119.222 29.18H101.742V28.1H106.102V23.9H107.462V28.1H113.482V23.9H114.822V28.1H119.222V29.18ZM131.58 17.64H120.82V16.6H131.58V17.64ZM129.12 14.98H123.42V13.94H129.12V14.98ZM126.32 24.86C123.56 24.86 121.78 23.48 121.78 21.78C121.78 20.08 123.56 18.7 126.32 18.7C129.06 18.7 130.86 20.08 130.86 21.78C130.86 23.48 129.06 24.86 126.32 24.86ZM126.32 19.72C124.3 19.72 123.12 20.6 123.12 21.78C123.12 22.98 124.3 23.86 126.32 23.86C128.34 23.86 129.52 22.96 129.52 21.78C129.52 20.6 128.34 19.72 126.32 19.72ZM136.52 31.36H123.96V26.2H125.3V30.28H136.52V31.36ZM135.86 27.2H134.52V23.68H131.36V22.64H134.52V20.06H131.36V19.02H134.52V13.86H135.86V27.2ZM154.299 31.64H152.959V13.86H154.299V31.64ZM139.659 21.1C139.659 16.84 141.619 14.34 144.219 14.34C146.839 14.34 148.779 16.84 148.779 21.1C148.779 25.38 146.839 27.88 144.219 27.88C141.619 27.88 139.659 25.38 139.659 21.1ZM147.439 21.1C147.439 17.44 146.099 15.42 144.219 15.42C142.359 15.42 140.999 17.44 140.999 21.1C140.999 24.78 142.359 26.8 144.219 26.8C146.099 26.8 147.439 24.78 147.439 21.1ZM163.822 27.84L162.962 26.94C167.682 24.64 170.322 20.64 170.822 16.12H164.062V15.04H172.282C172.002 21.06 168.542 25.46 163.822 27.84ZM177.342 31.64H176.022V13.86H177.342V20.8H180.342V21.94H177.342V31.64ZM189.68 31.94C185.44 31.94 183.02 30.46 183.02 28.44C183.02 26.42 185.44 24.94 189.68 24.94C193.94 24.94 196.34 26.42 196.34 28.44C196.34 30.46 193.94 31.94 189.68 31.94ZM189.68 25.98C186.36 25.98 184.36 26.96 184.36 28.44C184.36 29.92 186.36 30.9 189.68 30.9C193 30.9 195 29.92 195 28.44C195 26.96 193 25.98 189.68 25.98ZM198.42 23.06H180.98V21.98H198.42V23.06ZM196.4 19.7H183.42V13.92H184.76V18.62H196.4V19.7ZM214.639 27.2H213.299V13.86H214.639V19.34H217.359V20.46H214.639V27.2ZM215.379 31.36H202.999V26.2H204.319V30.28H215.379V31.36ZM210.979 17.64H200.039V16.6H210.979V17.64ZM208.339 14.98H202.639V13.94H208.339V14.98ZM205.539 24.86C202.779 24.86 200.999 23.48 200.999 21.78C200.999 20.08 202.779 18.7 205.539 18.7C208.279 18.7 210.079 20.08 210.079 21.78C210.079 23.48 208.279 24.86 205.539 24.86ZM205.539 19.72C203.519 19.72 202.339 20.6 202.339 21.78C202.339 22.98 203.519 23.86 205.539 23.86C207.559 23.86 208.739 22.96 208.739 21.78C208.739 20.6 207.559 19.72 205.539 19.72ZM233.102 22.98H224.662V14.78H233.102V22.98ZM231.762 21.9V15.84H226.002V21.9H231.762ZM238.442 27.04H237.122V13.86H238.442V18.34H241.162V19.46H238.442V27.04ZM239.182 31.36H226.802V25.44H228.142V30.28H239.182V31.36ZM250.501 31.94C246.261 31.94 243.841 30.46 243.841 28.44C243.841 26.42 246.261 24.94 250.501 24.94C254.761 24.94 257.161 26.42 257.161 28.44C257.161 30.46 254.761 31.94 250.501 31.94ZM250.501 25.98C247.181 25.98 245.181 26.96 245.181 28.44C245.181 29.92 247.181 30.9 250.501 30.9C253.821 30.9 255.821 29.92 255.821 28.44C255.821 26.96 253.821 25.98 250.501 25.98ZM259.241 23.06H241.801V21.98H259.241V23.06ZM257.221 19.7H244.241V13.92H245.581V18.62H257.221V19.7ZM281.564 31.64H280.224V13.86H281.564V31.64ZM266.924 21.1C266.924 16.84 268.884 14.34 271.484 14.34C274.104 14.34 276.044 16.84 276.044 21.1C276.044 25.38 274.104 27.88 271.484 27.88C268.884 27.88 266.924 25.38 266.924 21.1ZM274.704 21.1C274.704 17.44 273.364 15.42 271.484 15.42C269.624 15.42 268.264 17.44 268.264 21.1C268.264 24.78 269.624 26.8 271.484 26.8C273.364 26.8 274.704 24.78 274.704 21.1ZM299.543 31.64H298.203V13.86H299.543V31.64ZM297.263 25.14V26.22C295.023 26.68 291.523 26.88 288.823 26.88H285.863V14.7H287.203V25.78H288.823C291.523 25.78 294.863 25.58 297.263 25.14ZM318.361 31.64H317.021V13.86H318.361V31.64ZM314.681 26.5L313.881 27.46C311.501 26.16 309.261 23.74 308.561 21.46C307.821 23.98 305.921 26.3 303.181 27.98L302.281 27.14C305.361 25.34 307.801 22.24 307.801 18V14.64H309.221V18C309.221 22.08 311.901 25.12 314.681 26.5ZM23.04 88.8L23.24 89.8C22.22 90.12 20.98 90.24 19.8 90.24C15.98 90.24 14.16 87.68 14.14 84.34C14.1 81.24 15.98 78.6 19.2 78.62C22.5 78.62 23.98 80.76 23.98 83.94V84.66H15.42C15.5 87.16 16.92 89.26 19.84 89.24C20.86 89.24 22.02 89.12 23.04 88.8ZM15.38 83.68H22.72C22.72 83.64 22.76 83.46 22.72 83.42C22.7 81.04 21.38 79.62 19.2 79.62C16.72 79.62 15.54 81.6 15.38 83.68ZM28.5397 89.66C28.5397 90.3 28.0397 90.78 27.3997 90.78C26.7197 90.78 26.2197 90.3 26.2197 89.66C26.2197 89.06 26.7197 88.54 27.3997 88.54C28.0397 88.54 28.5397 89.06 28.5397 89.66ZM40.028 89.42V87.92H39.908C39.128 89.14 37.688 89.86 36.128 89.86C33.068 89.88 31.328 87.5 31.328 84.24C31.328 81 33.108 78.62 36.208 78.64C37.788 78.64 39.088 79.3 39.888 80.48H39.988V78.9H41.268V89.6C41.268 92.68 39.148 94.24 36.108 94.24C35.048 94.24 33.668 94.08 32.648 93.74L32.928 92.72C33.928 93.1 35.048 93.24 36.108 93.24C38.728 93.24 40.028 91.82 40.028 89.42ZM39.968 85.22V83.12C39.968 81.16 38.228 79.64 36.348 79.64C33.968 79.64 32.588 81.6 32.588 84.24C32.588 86.88 33.848 88.86 36.268 88.86C38.208 88.86 39.968 87.32 39.968 85.22ZM46.9186 89.66C46.9186 90.3 46.4186 90.78 45.7786 90.78C45.0986 90.78 44.5986 90.3 44.5986 89.66C44.5986 89.06 45.0986 88.54 45.7786 88.54C46.4186 88.54 46.9186 89.06 46.9186 89.66ZM67.5519 86.7V87.74C65.6919 88.14 63.4319 88.26 60.7919 88.26H54.8119V87.18H60.3519V85C58.1119 84.78 56.7119 83.5 56.7119 82.04C56.7119 80.42 58.3919 79.06 61.0119 79.06C63.6119 79.06 65.2719 80.42 65.2719 82.04C65.2719 83.5 63.9119 84.78 61.6919 85V87.18C63.8319 87.16 65.9119 87 67.5519 86.7ZM69.6519 91.64H68.3119V73.86H69.6519V81.28H72.4919V82.42H69.6519V91.64ZM63.9519 82.04C63.9519 80.92 62.7919 80.1 61.0119 80.1C59.2119 80.1 58.0519 80.92 58.0519 82.04C58.0519 83.16 59.2119 83.96 61.0119 83.96C62.7919 83.96 63.9519 83.16 63.9519 82.04ZM66.2919 78.02H55.6919V76.94H66.2919V78.02ZM63.7319 75.32H58.2319V74.24H63.7319V75.32ZM88.1103 83.9H86.7903V73.86H88.1103V77.14H90.8303V78.24H88.1103V83.9ZM90.3903 90.82L89.5303 91.72C87.9903 90.92 86.4103 89.4 85.8703 87.94C85.3503 89.34 83.9103 90.9 82.4903 91.66C81.0903 90.9 79.6303 89.34 79.1303 87.94C78.5903 89.4 76.9903 90.92 75.4503 91.72L74.6103 90.82C76.4703 89.96 78.4503 87.92 78.4503 85.76V84.82H79.7903V85.76C79.7903 87.6 81.2703 89.48 82.4903 90.26C83.7103 89.48 85.2103 87.6 85.2103 85.76V84.82H86.5503V85.76C86.5503 87.92 88.5103 89.96 90.3903 90.82ZM85.9103 80.48V81.56C83.8503 82.02 80.5703 82.26 77.7903 82.26H74.4503V74.38H75.7703V81.16H77.7903C80.4903 81.16 83.7103 80.92 85.9103 80.48ZM106.729 76.94C106.729 78.78 104.229 80.14 100.169 80.14C96.1087 80.14 93.6288 78.78 93.6288 76.94C93.6288 75.1 96.1087 73.74 100.169 73.74C104.229 73.74 106.729 75.1 106.729 76.94ZM105.389 76.96C105.389 75.56 103.149 74.78 100.169 74.78C97.2088 74.78 94.9488 75.56 94.9488 76.96C94.9488 78.34 97.2088 79.12 100.169 79.12C103.149 79.12 105.389 78.34 105.389 76.96ZM106.869 91.44H93.8888V87.34H105.089V85.46H93.8888V84.4H106.429V88.36H95.2288V90.38H106.869V91.44ZM108.909 82.54H91.4688V81.48H108.909V82.54ZM120.792 85.76V86.82C119.972 86.96 119.112 87.02 118.492 87.02H116.732V75.2H120.712V76.28H118.052V85.94H118.492C119.032 85.94 119.932 85.9 120.792 85.76ZM125.912 85.66V86.72C125.032 86.92 123.912 87.02 123.132 87.02H121.352V75.2H125.332V76.28H122.632V85.94H123.112C123.872 85.94 124.992 85.86 125.912 85.66ZM131.552 91.64H130.212V81.34H127.872V90.8H126.532V74.16H127.872V80.16H130.212V73.86H131.552V91.64ZM143.731 82.86H134.811V81.88H143.731V82.86ZM162.393 80.9H153.213V74.74H162.393V80.9ZM166.713 91.64H165.393V87.68H160.773V86.6H165.393V73.86H166.713V91.64ZM161.053 79.82V75.82H154.553V79.82H161.053ZM158.213 91.24H156.893V84.4H151.673V83.32H158.213C160.453 83.32 162.933 83.1 164.633 82.8V83.86C163.013 84.2 160.733 84.38 158.213 84.4V91.24ZM185.412 91.64H184.072V84.54H179.352C178.592 86.7 177.092 87.88 175.312 87.88C172.712 87.88 170.772 85.38 170.772 81.1C170.772 76.84 172.712 74.34 175.312 74.34C177.072 74.34 178.532 75.48 179.292 77.54H184.072V73.86H185.412V91.64ZM175.312 86.8C177.172 86.8 178.532 84.78 178.532 81.1C178.532 77.44 177.172 75.42 175.312 75.42C173.452 75.42 172.112 77.44 172.112 81.1C172.112 84.78 173.452 86.8 175.312 86.8ZM184.072 83.46V78.62H179.592C179.772 79.36 179.872 80.2 179.872 81.1C179.872 81.96 179.792 82.76 179.652 83.46H184.072ZM191.29 86.52H190.29L190.03 74.34H191.55L191.29 86.52ZM191.93 89.84C191.93 90.46 191.45 90.94 190.81 90.94C190.13 90.94 189.65 90.46 189.65 89.84C189.65 89.26 190.13 88.74 190.81 88.74C191.45 88.74 191.93 89.26 191.93 89.84ZM197.736 86.52H196.736L196.476 74.34H197.996L197.736 86.52ZM198.376 89.84C198.376 90.46 197.896 90.94 197.256 90.94C196.576 90.94 196.096 90.46 196.096 89.84C196.096 89.26 196.576 88.74 197.256 88.74C197.896 88.74 198.376 89.26 198.376 89.84ZM204.181 86.52H203.181L202.921 74.34H204.441L204.181 86.52ZM204.821 89.84C204.821 90.46 204.341 90.94 203.701 90.94C203.021 90.94 202.541 90.46 202.541 89.84C202.541 89.26 203.021 88.74 203.701 88.74C204.341 88.74 204.821 89.26 204.821 89.84ZM28.46 111.34H15.94V104.56H28.46V111.34ZM27.12 110.26V105.64H17.28V110.26H27.12ZM30.94 115.1H22.9V121.64H21.52V115.1H13.48V114.02H30.94V115.1ZM47.6384 121.64H46.2984V110.62H41.8584V109.5H46.2984V103.86H47.6384V121.64ZM43.9584 116.5L43.1584 117.46C40.7784 116.16 38.5384 113.74 37.8384 111.46C37.0984 113.98 35.1984 116.3 32.4584 117.98L31.5584 117.14C34.6384 115.34 37.0784 112.24 37.0784 108V104.64H38.4984V108C38.4984 112.08 41.1784 115.12 43.9584 116.5ZM65.5569 106.94C65.5569 108.78 63.0369 110.14 58.9769 110.14C54.9169 110.14 52.4569 108.78 52.4569 106.94C52.4569 105.1 54.9169 103.74 58.9769 103.74C63.0369 103.74 65.5569 105.1 65.5569 106.94ZM65.6769 121.44H52.7169V117.42H63.9169V115.6H52.7169V114.54H58.3169V112.5H50.2969V111.44H67.7369V112.5H59.6969V114.54H65.2569V118.42H54.0569V120.38H65.6769V121.44ZM64.2169 106.96C64.2169 105.56 61.9569 104.78 58.9769 104.78C56.0169 104.78 53.7769 105.56 53.7769 106.96C53.7769 108.34 56.0169 109.12 58.9769 109.12C61.9569 109.12 64.2169 108.34 64.2169 106.96ZM79.6203 115.76V116.82C78.8003 116.96 77.9403 117.02 77.3203 117.02H75.5603V105.2H79.5403V106.28H76.8803V115.94H77.3203C77.8603 115.94 78.7603 115.9 79.6203 115.76ZM84.7403 115.66V116.72C83.8603 116.92 82.7403 117.02 81.9603 117.02H80.1803V105.2H84.1603V106.28H81.4603V115.94H81.9403C82.7003 115.94 83.8203 115.86 84.7403 115.66ZM90.3803 121.64H89.0403V111.34H86.7003V120.8H85.3603V104.16H86.7003V110.16H89.0403V103.86H90.3803V121.64ZM108.184 112.86H99.2638V111.88H108.184V112.86ZM126.847 110.9H117.667V104.74H126.847V110.9ZM131.167 121.64H129.847V117.68H125.227V116.6H129.847V103.86H131.167V121.64ZM125.507 109.82V105.82H119.007V109.82H125.507ZM122.667 121.24H121.347V114.4H116.127V113.32H122.667C124.907 113.32 127.387 113.1 129.087 112.8V113.86C127.467 114.2 125.187 114.38 122.667 114.4V121.24ZM149.865 121.64H148.525V114.54H143.805C143.045 116.7 141.545 117.88 139.765 117.88C137.165 117.88 135.225 115.38 135.225 111.1C135.225 106.84 137.165 104.34 139.765 104.34C141.525 104.34 142.985 105.48 143.745 107.54H148.525V103.86H149.865V121.64ZM139.765 116.8C141.625 116.8 142.985 114.78 142.985 111.1C142.985 107.44 141.625 105.42 139.765 105.42C137.905 105.42 136.565 107.44 136.565 111.1C136.565 114.78 137.905 116.8 139.765 116.8ZM148.525 113.46V108.62H144.045C144.225 109.36 144.325 110.2 144.325 111.1C144.325 111.96 144.245 112.76 144.105 113.46H148.525ZM155.883 119.66C155.883 120.3 155.383 120.78 154.743 120.78C154.063 120.78 153.563 120.3 153.563 119.66C153.563 119.06 154.063 118.54 154.743 118.54C155.383 118.54 155.883 119.06 155.883 119.66ZM161.372 119.66C161.372 120.3 160.872 120.78 160.232 120.78C159.552 120.78 159.052 120.3 159.052 119.66C159.052 119.06 159.552 118.54 160.232 118.54C160.872 118.54 161.372 119.06 161.372 119.66ZM166.86 119.66C166.86 120.3 166.36 120.78 165.72 120.78C165.04 120.78 164.54 120.3 164.54 119.66C164.54 119.06 165.04 118.54 165.72 118.54C166.36 118.54 166.86 119.06 166.86 119.66ZM172.208 116.52H171.208L170.948 104.34H172.468L172.208 116.52ZM172.848 119.84C172.848 120.46 172.368 120.94 171.728 120.94C171.048 120.94 170.568 120.46 170.568 119.84C170.568 119.26 171.048 118.74 171.728 118.74C172.368 118.74 172.848 119.26 172.848 119.84ZM28.82 151.64H27.48V133.86H28.82V151.64ZM14.96 147.84L14.08 146.94C18.8 144.64 21.46 140.64 21.98 136.12H15.18V135.04H23.42C23.16 141.06 19.66 145.46 14.96 147.84ZM46.8584 141.14H34.3384V134.02H35.6784V136.4H45.5184V134.02H46.8584V141.14ZM45.5184 140.06V137.44H35.6784V140.06H45.5184ZM49.3384 144.38H41.4984V148.3H40.1384V144.38H31.8984V143.3H49.3384V144.38ZM47.6584 151.36H34.3584V146.04H35.6984V150.26H47.6584V151.36ZM70.8019 149.68C70.8019 151.26 68.1619 151.92 64.6019 151.92C61.1019 151.92 58.4619 151.26 58.4619 149.68C58.4619 148.12 61.1019 147.46 64.6019 147.46C68.1619 147.46 70.8019 148.12 70.8019 149.68ZM72.2619 138.76L71.5619 139.72C68.7819 139.42 65.8219 138.26 64.6419 136.56C63.5019 138.26 60.5019 139.42 57.7619 139.72L57.0819 138.76C59.9419 138.46 63.1219 137.24 63.8219 135.48H58.1619V134.44H71.1219V135.48H65.4819C66.1819 137.24 69.3819 138.46 72.2619 138.76ZM73.3619 142.2H55.9219V141.16H63.9819V138.96H65.3419V141.16H73.3619V142.2ZM69.4619 149.68C69.4619 148.8 67.3819 148.44 64.6019 148.44C61.8619 148.44 59.7819 148.8 59.7819 149.68C59.7819 150.56 61.8619 150.94 64.6019 150.94C67.3819 150.94 69.4619 150.56 69.4619 149.68ZM71.7619 146.62H57.4819V145.6H71.7619V146.62ZM68.4219 144.58H60.7219V143.56H68.4219V144.58ZM89.5803 136.94C89.5803 138.78 87.0803 140.14 83.0203 140.14C78.9603 140.14 76.4803 138.78 76.4803 136.94C76.4803 135.1 78.9603 133.74 83.0203 133.74C87.0803 133.74 89.5803 135.1 89.5803 136.94ZM88.2403 136.96C88.2403 135.56 86.0003 134.78 83.0203 134.78C80.0603 134.78 77.8003 135.56 77.8003 136.96C77.8003 138.34 80.0603 139.12 83.0203 139.12C86.0003 139.12 88.2403 138.34 88.2403 136.96ZM89.7203 151.44H76.7403V147.34H87.9403V145.46H76.7403V144.4H89.2803V148.36H78.0803V150.38H89.7203V151.44ZM91.7603 142.54H74.3203V141.48H91.7603V142.54ZM103.644 145.76V146.82C102.824 146.96 101.964 147.02 101.344 147.02H99.5838V135.2H103.564V136.28H100.904V145.94H101.344C101.884 145.94 102.784 145.9 103.644 145.76ZM108.764 145.66V146.72C107.884 146.92 106.764 147.02 105.984 147.02H104.204V135.2H108.184V136.28H105.484V145.94H105.964C106.724 145.94 107.844 145.86 108.764 145.66ZM114.404 151.64H113.064V141.34H110.724V150.8H109.384V134.16H110.724V140.16H113.064V133.86H114.404V151.64ZM132.207 142.86H123.287V141.88H132.207V142.86ZM150.87 140.9H141.69V134.74H150.87V140.9ZM155.19 151.64H153.87V147.68H149.25V146.6H153.87V133.86H155.19V151.64ZM149.53 139.82V135.82H143.03V139.82H149.53ZM146.69 151.24H145.37V144.4H140.15V143.32H146.69C148.93 143.32 151.41 143.1 153.11 142.8V143.86C151.49 144.2 149.21 144.38 146.69 144.4V151.24ZM173.888 151.64H172.548V144.54H167.828C167.068 146.7 165.568 147.88 163.788 147.88C161.188 147.88 159.248 145.38 159.248 141.1C159.248 136.84 161.188 134.34 163.788 134.34C165.548 134.34 167.008 135.48 167.768 137.54H172.548V133.86H173.888V151.64ZM163.788 146.8C165.648 146.8 167.008 144.78 167.008 141.1C167.008 137.44 165.648 135.42 163.788 135.42C161.928 135.42 160.588 137.44 160.588 141.1C160.588 144.78 161.928 146.8 163.788 146.8ZM172.548 143.46V138.62H168.068C168.248 139.36 168.348 140.2 168.348 141.1C168.348 141.96 168.268 142.76 168.128 143.46H172.548ZM186.587 141.44L187.267 141.84C186.827 143.18 185.787 143.96 184.547 143.96C183.607 143.96 182.847 143.44 182.167 142.88C181.427 142.28 180.767 141.74 179.947 141.74C179.107 141.74 178.387 142.38 177.947 143.28L177.267 142.92C177.567 141.8 178.747 140.7 179.967 140.7C180.887 140.7 181.627 141.16 182.287 141.7C183.067 142.34 183.767 142.9 184.647 142.9C185.427 142.9 186.167 142.38 186.587 141.44ZM201.288 138.06H194.088V136.98H201.288V138.06ZM204.768 140.98H190.588V139.9H204.768V140.98ZM197.688 148.48C194.148 148.48 192.048 147.12 192.048 145.36C192.048 143.58 194.148 142.22 197.688 142.22C201.248 142.22 203.328 143.58 203.328 145.36C203.328 147.12 201.248 148.48 197.688 148.48ZM197.688 143.28C195.228 143.28 193.408 144.08 193.408 145.36C193.408 146.64 195.228 147.44 197.688 147.44C200.168 147.44 201.988 146.64 201.988 145.36C201.988 144.08 200.168 143.28 197.688 143.28Z" fill="white"/>
</svg>
