<svg width="532" height="118" viewBox="0 0 532 118" fill="none" xmlns="http://www.w3.org/2000/svg">
<path d="M10.2201 46.0601C4.83008 46.0601 2.45008 44.4501 2.45008 38.9901V32.2701C2.45008 26.8101 4.83008 25.2001 10.2201 25.2001H58.5201C61.6001 25.2001 61.7401 29.6801 58.5201 29.6801H11.4101C7.77008 29.6801 7.35008 29.9601 7.35008 33.8801V37.5201C7.35008 41.2301 7.77008 41.5801 11.4101 41.5801H60.4101C63.6301 41.5801 63.4901 46.0601 60.4101 46.0601H10.2201ZM13.0901 37.6601C11.8301 37.6601 10.9201 36.7501 10.9201 35.4901C10.9201 34.2301 11.8301 33.3201 13.0901 33.3201H55.5801C56.8401 33.3201 57.6801 34.2301 57.6801 35.4901C57.6801 36.7501 56.8401 37.6601 55.5801 37.6601H13.0901ZM2.31008 20.8601C1.05008 20.8601 0.140078 19.9501 0.140078 18.6901C0.140078 17.5001 1.05008 16.5901 2.31008 16.5901H23.2401C23.9401 13.5101 24.5001 9.80008 24.5001 7.98008C24.5001 7.14007 24.4301 6.58008 24.0801 6.23008C23.7301 5.88008 23.1001 5.74008 21.9801 5.74008H3.85008C2.59008 5.74008 1.68008 4.83007 1.68008 3.57007C1.68008 2.31008 2.59008 1.40008 3.85008 1.40008H23.0301C25.6201 1.40008 27.2301 1.82008 28.2101 2.80008C29.1201 3.71008 29.4001 5.04008 29.4001 6.86008C29.4001 9.66008 28.8401 13.3001 28.1401 16.5901H54.5301C55.2301 13.5101 55.7901 9.80008 55.7901 7.98008C55.7901 7.14007 55.7201 6.58008 55.3701 6.23008C55.0201 5.88008 54.3901 5.74008 53.2701 5.74008H34.8601C33.6001 5.74008 32.6901 4.83007 32.6901 3.57007C32.6901 2.31008 33.6001 1.40008 34.8601 1.40008H54.3201C56.9101 1.40008 58.5201 1.82008 59.5001 2.80008C60.4101 3.71008 60.6901 5.04008 60.6901 6.86008C60.6901 9.66008 60.1301 13.3001 59.3601 16.5901H61.6001C62.7901 16.5901 63.7001 17.5001 63.7001 18.6901C63.7001 19.9501 62.7901 20.8601 61.6001 20.8601H2.31008ZM133.155 46.0601C131.825 46.0601 130.705 45.0101 130.705 43.6101V2.45008C130.705 1.12008 131.825 7.43866e-05 133.155 7.43866e-05C134.485 7.43866e-05 135.605 1.12008 135.605 2.45008V19.3901H139.735C141.065 19.3901 142.115 20.4401 142.115 21.7701C142.115 23.1001 141.065 24.1501 139.735 24.1501H135.605V43.6101C135.605 45.0101 134.485 46.0601 133.155 46.0601ZM78.6954 43.6801C77.3654 44.5901 76.1054 44.1001 75.4054 43.1901C74.7754 42.2101 74.7754 40.8801 76.0354 39.9701C84.8554 33.7401 90.3154 20.4401 90.9454 9.24008C91.0854 6.93008 90.8054 6.58008 89.2654 6.58008H79.1854C77.9254 6.58008 76.8754 5.53008 76.8754 4.27008C76.8754 3.01008 77.9254 1.96007 79.1854 1.96007H91.0154C94.4454 1.96007 95.8454 3.71008 95.8454 7.63008C95.8454 20.3001 89.1954 36.3301 78.6954 43.6801ZM102.845 43.9601C102.005 43.1901 101.655 41.8601 102.705 40.6001C110.055 32.2001 113.695 18.9001 113.905 8.33008C113.905 6.93008 113.625 6.58008 112.155 6.58008H101.165C99.9054 6.58008 98.8554 5.53008 98.8554 4.27008C98.8554 3.01008 99.9054 1.96007 101.165 1.96007H113.835C117.405 1.96007 118.735 3.36008 118.735 7.91008C118.595 19.3201 114.465 34.4401 106.135 43.7501C105.085 44.8701 103.685 44.6601 102.845 43.9601ZM152.421 43.6101C150.951 44.1701 149.761 43.4701 149.341 42.4201C148.921 41.3001 149.201 39.9701 150.601 39.3401C161.871 34.5101 172.091 21.2801 172.091 6.65008V6.58008H153.471C152.141 6.58008 151.161 5.53008 151.161 4.27008C151.161 3.01008 152.141 1.96007 153.471 1.96007H195.611C196.941 1.96007 197.921 3.01008 197.921 4.27008C197.921 5.53008 196.941 6.58008 195.611 6.58008H176.991V6.65008C176.991 21.0001 186.581 33.8101 198.481 39.3401C199.951 39.9701 200.231 41.3701 199.741 42.4201C199.321 43.4701 198.131 44.1701 196.661 43.6101C187.561 39.8301 177.971 29.6801 174.541 19.0401C171.111 29.8201 161.381 40.0401 152.421 43.6101ZM209.051 46.0601C207.721 46.0601 206.601 45.0101 206.601 43.6101V2.45008C206.601 1.12008 207.721 7.43866e-05 209.051 7.43866e-05C210.381 7.43866e-05 211.501 1.12008 211.501 2.45008V43.6101C211.501 45.0101 210.381 46.0601 209.051 46.0601ZM300.362 21.8401C299.032 21.8401 297.912 20.7901 297.912 19.3901V2.45008C297.912 1.12008 299.032 7.43866e-05 300.362 7.43866e-05C301.692 7.43866e-05 302.812 1.12008 302.812 2.45008V8.61008H306.942C308.272 8.61008 309.322 9.66008 309.322 10.9901C309.322 12.3201 308.272 13.3701 306.942 13.3701H302.812V19.3901C302.812 20.7901 301.692 21.8401 300.362 21.8401ZM251.502 46.0601C247.162 46.0601 244.782 43.4701 244.782 39.5501C244.782 35.6301 247.162 33.1101 251.502 33.1101H297.212C298.612 33.1101 299.172 32.2701 299.172 31.1501C299.172 30.0301 298.612 29.2601 297.212 29.2601H246.952C243.732 29.2601 243.732 24.7801 246.952 24.7801H297.352C301.692 24.7801 304.072 27.3701 304.072 31.2201C304.072 35.0701 301.692 37.5201 297.352 37.5201H251.642C250.242 37.5201 249.682 38.2901 249.682 39.4801C249.682 40.6701 250.242 41.5101 251.642 41.5101H302.952C306.242 41.5101 306.172 46.0601 302.952 46.0601H251.502ZM243.312 21.3501C240.302 22.1901 239.112 17.9201 242.192 16.9401C250.592 14.4201 258.642 8.61008 262.772 2.24007C263.472 1.12008 264.102 0.490076 265.222 0.490076C266.342 0.490076 266.972 1.12008 267.672 2.24007C271.802 8.54008 279.782 13.6501 288.042 16.1001C291.262 17.0101 290.072 21.2801 286.922 20.4401C278.732 18.1301 270.192 12.7401 265.222 6.44007C260.252 12.8801 251.642 18.9001 243.312 21.3501ZM375.558 46.0601C374.228 46.0601 373.108 45.0101 373.108 43.6101V2.45008C373.108 1.12008 374.228 7.43866e-05 375.558 7.43866e-05C376.888 7.43866e-05 378.008 1.12008 378.008 2.45008V19.3901H382.138C383.468 19.3901 384.518 20.4401 384.518 21.7701C384.518 23.1001 383.468 24.1501 382.138 24.1501H378.008V43.6101C378.008 45.0101 376.888 46.0601 375.558 46.0601ZM340.208 45.9201C327.958 45.9201 317.668 36.5401 317.668 23.0301C317.668 9.52008 327.958 0.140077 340.208 0.140077C352.458 0.140077 362.748 9.52008 362.748 23.0301C362.748 36.5401 352.458 45.9201 340.208 45.9201ZM340.208 41.3001C350.078 41.3001 357.848 33.6701 357.848 23.0301C357.848 12.3901 350.078 4.76008 340.208 4.76008C330.338 4.76008 322.568 12.3901 322.568 23.0301C322.568 33.6701 330.338 41.3001 340.208 41.3001ZM450.753 23.6601C449.423 23.6601 448.303 22.6101 448.303 21.2101V2.45008C448.303 1.12008 449.423 7.43866e-05 450.753 7.43866e-05C452.083 7.43866e-05 453.203 1.12008 453.203 2.45008V9.45008H457.333C458.663 9.45008 459.713 10.5001 459.713 11.8301C459.713 13.1601 458.663 14.2101 457.333 14.2101H453.203V21.2101C453.203 22.6101 452.083 23.6601 450.753 23.6601ZM404.413 45.8501C398.253 45.8501 396.433 44.6601 396.433 39.5501V33.3901C396.433 28.2801 398.253 27.0901 404.413 27.0901H445.223C451.383 27.0901 453.203 28.2801 453.203 33.3901V39.5501C453.203 44.6601 451.383 45.8501 445.223 45.8501H404.413ZM401.263 38.6401C401.263 40.9501 401.683 41.3001 404.623 41.3001H445.013C447.953 41.3001 448.373 40.9501 448.373 38.6401V34.3001C448.373 31.9901 447.953 31.6401 445.013 31.6401H404.623C401.683 31.6401 401.263 31.9901 401.263 34.3001V38.6401ZM403.923 21.6301C397.763 21.7701 395.033 19.9501 395.033 14.2101V3.92008C395.033 2.66008 396.153 1.40008 397.553 1.40008C399.093 1.47008 400.073 2.73008 400.073 3.92008V12.6001C400.073 16.5901 400.493 16.8001 404.483 16.9401C414.983 17.0101 426.953 15.8901 435.703 14.3501C439.133 13.7201 439.973 18.4101 436.753 18.9701C428.283 20.5101 415.683 21.6301 404.763 21.6301H403.923ZM470.298 23.3801C469.038 23.3801 468.128 22.4701 468.128 21.2101C468.128 20.0201 469.038 19.1101 470.298 19.1101H529.588C530.778 19.1101 531.688 20.0201 531.688 21.2101C531.688 22.4701 530.778 23.3801 529.588 23.3801H470.298ZM476.458 46.0601C472.398 46.0601 470.018 43.7501 470.018 40.1801C470.018 36.6101 472.398 34.4401 476.458 34.4401H523.288C524.268 34.4401 524.828 33.7401 524.828 32.8301C524.828 31.9201 524.268 31.2901 523.288 31.2901H471.978C469.038 31.2901 469.038 27.0901 471.978 27.0901H523.288C527.348 27.0901 529.728 29.4001 529.728 32.9001C529.728 36.4701 527.348 38.5701 523.288 38.5701H476.458C475.408 38.5701 474.848 39.2001 474.848 40.1801C474.848 41.1601 475.408 41.7901 476.458 41.7901H528.818C531.828 41.7901 531.758 46.0601 528.818 46.0601H476.458ZM499.628 16.5201C480.938 16.5201 469.388 14.6301 469.388 8.54008C469.388 2.45008 480.938 0.560076 499.628 0.560076C518.318 0.560076 529.868 2.45008 529.868 8.54008C529.868 14.6301 518.318 16.5201 499.628 16.5201ZM499.628 12.3201C515.588 12.3201 524.898 10.7101 524.898 8.54008C524.898 6.16007 515.028 4.76008 499.628 4.76008C483.668 4.76008 474.358 6.37008 474.358 8.54008C474.358 10.7101 483.668 12.3201 499.628 12.3201ZM2.31008 95.1301C1.05008 95.1301 0.140078 94.2201 0.140078 92.9601C0.140078 91.7701 1.05008 90.8601 2.31008 90.8601H61.6001C62.7901 90.8601 63.7001 91.7701 63.7001 92.9601C63.7001 94.2201 62.7901 95.1301 61.6001 95.1301H34.3701V98.9801C50.7501 99.1901 61.6701 101.36 61.6701 107.94C61.6701 114.8 49.7701 116.9 32.1301 116.9C14.4901 116.9 2.17008 114.8 2.17008 107.94C2.17008 101.43 13.2301 99.1901 29.4701 98.9801V95.1301H2.31008ZM32.1301 112.49C46.9701 112.49 56.7001 110.74 56.7001 107.94C56.7001 105.14 46.9701 103.39 32.1301 103.39C17.2901 103.39 7.14008 105.14 7.14008 107.94C7.14008 110.74 17.2901 112.49 32.1301 112.49ZM3.15008 87.9201C0.280078 87.9901 7.81417e-05 83.7901 3.01008 83.5801C15.0501 83.1601 29.2601 80.2901 29.5401 76.5101C21.2801 76.5101 12.9501 76.5101 4.69008 76.5801C3.50008 76.5801 2.59008 75.6701 2.59008 74.4101C2.59008 73.2201 3.50008 72.3101 4.69008 72.3101H29.4701V71.1201C29.4701 67.6201 34.3701 67.6201 34.3701 71.1201V72.3101H59.0801C60.2701 72.3101 61.1801 73.2201 61.1801 74.4101C61.1801 75.6701 60.2701 76.5801 59.0801 76.5801C50.8201 76.5101 42.5601 76.5101 34.3001 76.5101C34.5801 80.2901 48.9301 83.0901 60.9001 83.5801C63.9101 83.7201 63.7001 88.0601 60.8301 87.9201C51.0301 87.5001 36.9601 85.1901 31.9201 81.0601C26.6001 85.4001 13.3701 87.6401 3.15008 87.9201ZM133.785 94.0101C132.455 94.0101 131.335 92.9601 131.335 91.5601V84.7701H126.925C125.665 84.7701 124.685 83.7901 124.685 82.5301C124.685 81.2701 125.665 80.2901 126.925 80.2901H131.335V72.4501C131.335 71.1201 132.455 70.0001 133.785 70.0001C135.115 70.0001 136.235 71.1201 136.235 72.4501V91.5601C136.235 92.9601 135.115 94.0101 133.785 94.0101ZM107.675 116.9C89.9654 116.9 77.9954 113.75 77.9954 106.75C77.9954 99.7501 89.9654 96.6001 107.675 96.6001C125.385 96.6001 137.075 99.6801 137.075 106.75C137.075 113.75 125.385 116.9 107.675 116.9ZM107.675 112.35C121.955 112.35 132.175 109.9 132.175 106.75C132.175 103.6 121.955 101.08 107.675 101.08C93.3954 101.08 82.8954 103.6 82.8954 106.75C82.8954 109.9 93.3954 112.35 107.675 112.35ZM77.9254 77.5601C76.6654 77.5601 75.6854 76.6501 75.6854 75.3901C75.6854 74.1301 76.6654 73.2901 77.9254 73.2901H95.7754V72.0301C95.7754 70.2101 96.9654 69.3701 98.2254 69.3701C99.4854 69.3701 100.745 70.2101 100.675 72.0301V73.2901H117.825C119.085 73.2901 120.065 74.1301 120.065 75.3901C120.065 76.6501 119.085 77.5601 117.825 77.5601C111.945 77.4901 106.275 77.4901 100.605 77.4901V77.6301C100.605 82.5301 110.125 87.2901 119.715 88.6201C121.185 88.8301 121.815 90.0201 121.675 91.1401C121.465 92.2601 120.625 93.2401 119.085 93.0301C111.035 91.9101 102.495 88.8301 98.2254 83.1601C94.0254 88.6901 84.6454 92.1901 76.1754 93.4501C74.7054 93.6601 73.7954 92.6101 73.6554 91.4901C73.5154 90.3701 74.0754 89.1801 75.5454 88.9701C85.6254 87.7801 95.8454 82.4601 95.8454 77.6301V77.4901C89.9654 77.4901 84.0854 77.4901 77.9254 77.5601ZM163.341 100.1C156.691 100.24 153.751 98.2101 153.751 91.8401V80.2201C153.751 73.8501 156.691 71.9601 163.341 71.9601H207.091C210.171 71.9601 210.311 76.5801 207.091 76.5801H163.761C159.141 76.5801 158.651 76.9301 158.651 81.9701V90.5101C158.651 95.1301 159.141 95.4101 163.761 95.4801H209.191C212.411 95.4801 212.271 100.1 209.191 100.1H163.341ZM153.191 114.87C151.861 114.87 150.881 113.89 150.881 112.56C150.881 111.23 151.861 110.25 153.191 110.25H179.861V105.77C179.861 104.37 180.981 103.32 182.311 103.32C183.641 103.32 184.761 104.37 184.761 105.77V110.25H211.431C212.761 110.25 213.741 111.23 213.741 112.56C213.741 113.89 212.761 114.87 211.431 114.87H153.191ZM243.662 113.4C240.792 115.29 238.202 111.3 241.142 109.34C253.742 101.01 262.982 86.3101 262.982 74.9701V73.4301C262.982 70.0701 268.022 70.0701 268.022 73.4301V74.9701C268.022 86.3101 277.262 101.08 289.862 109.34C292.802 111.3 290.212 115.29 287.342 113.4C277.402 106.68 269.282 96.6701 265.502 85.8901C261.722 96.6701 253.602 106.68 243.662 113.4ZM300.362 116.06C299.032 116.06 297.912 115.01 297.912 113.61V72.4501C297.912 71.1201 299.032 70.0001 300.362 70.0001C301.692 70.0001 302.812 71.1201 302.812 72.4501V89.3901H306.942C308.272 89.3901 309.322 90.4401 309.322 91.7701C309.322 93.1001 308.272 94.1501 306.942 94.1501H302.812V113.61C302.812 115.01 301.692 116.06 300.362 116.06ZM320.048 105.56C318.718 105.56 317.738 104.58 317.738 103.25C317.738 101.92 318.718 100.94 320.048 100.94H378.988C380.318 100.94 381.298 101.92 381.298 103.25C381.298 104.58 380.318 105.56 378.988 105.56H351.968V115.08C351.968 116.48 350.848 117.53 349.518 117.53C348.188 117.53 347.068 116.48 347.068 115.08V105.56H320.048ZM329.148 95.2001C323.408 95.2001 320.818 93.5201 320.818 87.7101V79.1001C320.818 73.2901 323.408 71.6101 329.148 71.6101H375.208C378.428 71.6101 378.428 76.0901 375.208 76.0901H330.198C326.138 76.0901 325.718 76.4401 325.718 80.9201V86.2401C325.718 90.4401 326.138 90.7201 330.128 90.7201H377.028C380.248 90.7201 380.248 95.2001 377.028 95.2001H329.148ZM371.988 80.9901C373.248 80.9901 374.158 81.9001 374.158 83.1601C374.158 84.4201 373.248 85.3301 371.988 85.3301H331.808C330.548 85.3301 329.638 84.4201 329.638 83.1601C329.638 81.9001 330.548 80.9901 331.808 80.9901H371.988ZM451.453 116.06C450.123 116.06 449.003 115.01 449.003 113.61V72.4501C449.003 71.1201 450.123 70.0001 451.453 70.0001C452.783 70.0001 453.903 71.1201 453.903 72.4501V113.61C453.903 115.01 452.783 116.06 451.453 116.06ZM403.783 113.68C397.763 113.68 395.033 111.86 395.033 105.7V98.2801C395.033 91.4201 398.043 89.4601 404.763 89.4601H424.643C429.263 89.4601 429.753 89.1101 429.753 84.1401V81.8301C429.753 76.8601 429.263 76.5101 424.643 76.5101H397.273C394.263 76.5101 394.263 71.9601 397.273 71.9601H424.713C431.573 71.9601 434.653 73.9201 434.653 80.7801V85.1901C434.653 92.0501 431.643 94.0101 424.923 94.0101H405.043C400.423 94.0101 399.933 94.3601 399.933 99.3301V104.86C399.933 108.85 400.353 109.13 404.623 109.13C418.413 109.13 431.153 107.59 438.433 105.77C441.583 105 442.563 109.41 439.553 110.18C431.853 112.14 418.553 113.68 403.783 113.68Z" fill="#90C85F"/>
</svg>
