<svg width="176" height="76" viewBox="0 0 176 76" fill="none" xmlns="http://www.w3.org/2000/svg">
<rect x="0.5" y="0.5" width="175" height="75" fill="#90C85F"/>
<rect x="0.5" y="0.5" width="175" height="75" stroke="black"/>
<path d="M30.96 29.18H13.48V28.1H20.04V21.24H21.44V28.1H30.96V29.18ZM27.38 25.44H26C26.74 22.52 27.2 19.02 27.28 16.26H15.62V15.18H28.7C28.6 18.72 28.06 22.46 27.38 25.44ZM47.9584 24.74H46.6184V19.22H43.9784V24.06H42.6584V14.16H43.9784V18.08H46.6184V13.86H47.9584V24.74ZM41.5984 31.94C37.5184 31.94 35.0584 30.44 35.0584 28.4C35.0584 26.38 37.5184 24.88 41.5984 24.88C45.6784 24.88 48.1184 26.38 48.1184 28.4C48.1184 30.44 45.6784 31.94 41.5984 31.94ZM41.5984 25.96C38.5984 25.96 36.4184 26.86 36.4184 28.4C36.4184 29.96 38.5984 30.86 41.5984 30.86C44.5984 30.86 46.7784 29.96 46.7784 28.4C46.7784 26.86 44.5984 25.96 41.5984 25.96ZM41.7584 22.38L40.9784 23.34C39.1384 22.46 37.5584 20.84 36.9384 19.2C36.3984 21 34.7584 22.78 32.8584 23.94L31.9384 23.1C34.3184 21.76 36.2184 19.26 36.2184 16.24V14.42H37.5984V16.26C37.5984 19.38 39.6584 21.44 41.7584 22.38ZM59.0769 15.46H53.5369V14.38H59.0769V15.46ZM65.3969 31.64H64.0769V13.86H65.3969V21.2H68.2769V22.34H65.3969V31.64ZM60.9169 24.16C60.9169 26.5 59.0769 28.38 56.3769 28.38C53.6769 28.38 51.8369 26.5 51.8369 24.16C51.8369 21.82 53.6769 19.92 56.3769 19.92C59.0769 19.92 60.9169 21.8 60.9169 24.16ZM59.5969 24.16C59.5969 22.28 58.3369 20.98 56.3969 20.98C54.4369 20.98 53.1769 22.26 53.1769 24.16C53.1769 26.04 54.4369 27.32 56.3969 27.32C58.3369 27.32 59.5969 26.04 59.5969 24.16ZM61.8169 18.42H50.8369V17.34H61.8169V18.42ZM83.4553 31.64H82.1353V13.86H83.4553V20.2H86.4553V21.34H83.4553V31.64ZM81.2753 25.16V26.24C79.0353 26.7 75.5353 26.92 72.8553 26.92H70.0953V15.04H78.6753V16.12H71.4153V25.82H72.8553C75.5353 25.82 78.8753 25.6 81.2753 25.16ZM23.04 58.8L23.24 59.8C22.22 60.12 20.98 60.24 19.8 60.24C15.98 60.24 14.16 57.68 14.14 54.34C14.1 51.24 15.98 48.6 19.2 48.62C22.5 48.62 23.98 50.76 23.98 53.94V54.66H15.42C15.5 57.16 16.92 59.26 19.84 59.24C20.86 59.24 22.02 59.12 23.04 58.8ZM15.38 53.68H22.72C22.72 53.64 22.76 53.46 22.72 53.42C22.7 51.04 21.38 49.62 19.2 49.62C16.72 49.62 15.54 51.6 15.38 53.68ZM28.5397 59.66C28.5397 60.3 28.0397 60.78 27.3997 60.78C26.7197 60.78 26.2197 60.3 26.2197 59.66C26.2197 59.06 26.7197 58.54 27.3997 58.54C28.0397 58.54 28.5397 59.06 28.5397 59.66ZM40.028 59.42V57.92H39.908C39.128 59.14 37.688 59.86 36.128 59.86C33.068 59.88 31.328 57.5 31.328 54.24C31.328 51 33.108 48.62 36.208 48.64C37.788 48.64 39.088 49.3 39.888 50.48H39.988V48.9H41.268V59.6C41.268 62.68 39.148 64.24 36.108 64.24C35.048 64.24 33.668 64.08 32.648 63.74L32.928 62.72C33.928 63.1 35.048 63.24 36.108 63.24C38.728 63.24 40.028 61.82 40.028 59.42ZM39.968 55.22V53.12C39.968 51.16 38.228 49.64 36.348 49.64C33.968 49.64 32.588 51.6 32.588 54.24C32.588 56.88 33.848 58.86 36.268 58.86C38.208 58.86 39.968 57.32 39.968 55.22ZM46.9186 59.66C46.9186 60.3 46.4186 60.78 45.7786 60.78C45.0986 60.78 44.5986 60.3 44.5986 59.66C44.5986 59.06 45.0986 58.54 45.7786 58.54C46.4186 58.54 46.9186 59.06 46.9186 59.66ZM72.1319 58.98H54.6519V57.9H66.7319C67.7319 54.4 68.3119 49.66 68.4719 46.26H56.7919V45.18H69.8719C69.6919 49.64 69.0919 54.36 68.1119 57.9H72.1319V58.98ZM85.5503 55.56V56.66C83.3303 57.1 79.8303 57.32 77.1503 57.32H74.5103V50.5H81.0703V46.02H74.5103V44.94H82.4103V51.56H75.8303V56.22H77.1503C79.8303 56.22 83.1903 56.02 85.5503 55.56ZM88.3903 61.64H87.0503V53.16H83.7103V52.04H87.0503V48.54H83.7103V47.42H87.0503V43.86H88.3903V61.64ZM92.8488 63.32L92.5288 63.02C93.2288 62.58 93.8288 61.72 93.9288 60.96C93.9488 60.86 93.9288 60.78 93.8888 60.74C93.8488 60.64 93.7288 60.58 93.5288 60.58C92.9688 60.58 92.4488 60.2 92.4488 59.52C92.4488 58.88 92.9688 58.46 93.6087 58.46C94.3488 58.46 94.8688 59.12 94.8688 59.94C94.8688 61.36 94.0088 62.7 92.8488 63.32ZM120.022 53.98H102.582V52.9H107.122V50.12C105.582 49.48 104.742 48.48 104.742 47.28C104.742 45.24 107.222 43.76 111.282 43.76C115.342 43.76 117.842 45.24 117.842 47.28C117.842 48.48 116.982 49.48 115.462 50.12V52.9H120.022V53.98ZM116.502 47.3C116.502 45.68 114.262 44.82 111.282 44.82C108.322 44.82 106.062 45.68 106.062 47.3C106.062 48.9 108.322 49.76 111.282 49.76C114.262 49.76 116.502 48.9 116.502 47.3ZM117.502 61.74H116.162V56.98H104.742V55.9H117.502V61.74ZM114.142 52.9V50.54C113.302 50.72 112.342 50.82 111.282 50.82C110.222 50.82 109.262 50.72 108.462 50.54V52.9H114.142ZM133.94 52.86V53.9C132.1 54.24 129.66 54.36 127.02 54.36H121.12V53.3H126.62V51.16H122.76V44.34H124.08V46.56H130.42V44.34H131.76V51.16H127.92V53.3C130.1 53.28 132.26 53.14 133.94 52.86ZM137.96 60.82L137.14 61.74C135.56 61 134.12 59.64 133.48 58.26C132.96 59.52 131.58 60.88 130.22 61.64C128.84 60.88 127.46 59.52 126.92 58.26C126.28 59.64 124.86 61 123.28 61.74L122.44 60.82C124.32 60.02 126.24 58.16 126.24 56.2V55.8H127.58V56.26C127.58 57.86 129.02 59.52 130.22 60.24C131.4 59.52 132.84 57.86 132.84 56.26V55.8H134.16V56.2C134.16 58.16 136.1 60.02 137.96 60.82ZM136 55.04H134.68V43.86H136V48.5H138.8V49.6H136V55.04ZM130.42 50.08V47.6H124.08V50.08H130.42ZM151.899 61.64H150.579V54.96H145.619V61.48H144.259V54.96H139.359V53.88H156.819V54.96H151.899V61.64ZM155.859 50.88L155.119 51.86C152.059 51.16 149.199 49.56 148.079 47.34C146.979 49.56 144.099 51.16 141.059 51.86L140.299 50.88C143.699 50.2 147.379 48 147.379 45.18V44.32H148.799V45.18C148.799 48 152.459 50.2 155.859 50.88ZM161.137 59.66C161.137 60.3 160.637 60.78 159.997 60.78C159.317 60.78 158.817 60.3 158.817 59.66C158.817 59.06 159.317 58.54 159.997 58.54C160.637 58.54 161.137 59.06 161.137 59.66Z" fill="white"/>
</svg>
