<svg width="273" height="76" viewBox="0 0 273 76" fill="none" xmlns="http://www.w3.org/2000/svg">
<rect x="0.5" y="0.5" width="272" height="75" fill="#90C85F"/>
<rect x="0.5" y="0.5" width="272" height="75" stroke="black"/>
<path d="M28.96 31.44H17.08V25.02H28.96V31.44ZM27.64 30.36V26.1H18.42V30.36H27.64ZM28.98 24.06H27.66V13.86H28.98V24.06ZM14.64 24.02L13.9 23.06C18.32 21.94 21.62 19.08 22.18 15.86H14.98V14.78H23.7C23.28 19.7 19.14 22.68 14.64 24.02ZM44.1584 26.82L43.3584 27.78C40.9184 26.6 38.8384 24.6 38.0784 22.42C37.3184 24.74 35.1984 26.9 32.7384 28.24L31.8584 27.38C34.6384 25.98 37.3184 23.22 37.3184 19.3V18.7H32.8384V17.62H43.0984V18.7H38.7384V19.3C38.7384 23.12 41.4584 25.6 44.1584 26.82ZM47.6384 31.64H46.2984V13.86H47.6384V31.64ZM40.8584 15.46H35.0784V14.38H40.8584V15.46ZM23.04 58.8L23.24 59.8C22.22 60.12 20.98 60.24 19.8 60.24C15.98 60.24 14.16 57.68 14.14 54.34C14.1 51.24 15.98 48.6 19.2 48.62C22.5 48.62 23.98 50.76 23.98 53.94V54.66H15.42C15.5 57.16 16.92 59.26 19.84 59.24C20.86 59.24 22.02 59.12 23.04 58.8ZM15.38 53.68H22.72C22.72 53.64 22.76 53.46 22.72 53.42C22.7 51.04 21.38 49.62 19.2 49.62C16.72 49.62 15.54 51.6 15.38 53.68ZM28.5397 59.66C28.5397 60.3 28.0397 60.78 27.3997 60.78C26.7197 60.78 26.2197 60.3 26.2197 59.66C26.2197 59.06 26.7197 58.54 27.3997 58.54C28.0397 58.54 28.5397 59.06 28.5397 59.66ZM40.028 59.42V57.92H39.908C39.128 59.14 37.688 59.86 36.128 59.86C33.068 59.88 31.328 57.5 31.328 54.24C31.328 51 33.108 48.62 36.208 48.64C37.788 48.64 39.088 49.3 39.888 50.48H39.988V48.9H41.268V59.6C41.268 62.68 39.148 64.24 36.108 64.24C35.048 64.24 33.668 64.08 32.648 63.74L32.928 62.72C33.928 63.1 35.048 63.24 36.108 63.24C38.728 63.24 40.028 61.82 40.028 59.42ZM39.968 55.22V53.12C39.968 51.16 38.228 49.64 36.348 49.64C33.968 49.64 32.588 51.6 32.588 54.24C32.588 56.88 33.848 58.86 36.268 58.86C38.208 58.86 39.968 57.32 39.968 55.22ZM46.9186 59.66C46.9186 60.3 46.4186 60.78 45.7786 60.78C45.0986 60.78 44.5986 60.3 44.5986 59.66C44.5986 59.06 45.0986 58.54 45.7786 58.54C46.4186 58.54 46.9186 59.06 46.9186 59.66ZM72.1119 53.84H64.0719V55.84C67.8719 55.96 70.0319 57.22 70.0319 58.88C70.0319 60.66 67.6319 61.94 63.3719 61.94C59.1319 61.94 56.7119 60.66 56.7119 58.88C56.7119 57.22 58.8519 55.96 62.6919 55.84V53.84H54.6719V52.78H72.1119V53.84ZM68.6919 58.88C68.6919 57.64 66.6919 56.84 63.3719 56.84C60.0519 56.84 58.0519 57.64 58.0519 58.88C58.0519 60.12 60.0519 60.94 63.3719 60.94C66.6919 60.94 68.6919 60.12 68.6919 58.88ZM70.9919 50.56L70.2719 51.52C67.4319 51.22 64.6519 50.16 63.3919 48.48C62.1519 50.16 59.3319 51.22 56.5319 51.52L55.8119 50.56C58.6919 50.28 61.8719 49.08 62.5519 47.48H56.8919V46.44H69.8719V47.48H64.2319C64.9319 49.08 68.1319 50.28 70.9919 50.56ZM66.9519 44.86H59.9319V43.82H66.9519V44.86ZM89.1103 58.58C89.1103 60.52 86.6503 61.94 82.6303 61.94C78.6103 61.94 76.1503 60.52 76.1503 58.58C76.1503 56.64 78.6103 55.22 82.6303 55.22C86.6503 55.22 89.1103 56.64 89.1103 58.58ZM87.7503 58.58C87.7503 57.12 85.5703 56.26 82.6303 56.26C79.6703 56.26 77.5103 57.12 77.5103 58.58C77.5103 60.06 79.6703 60.9 82.6303 60.9C85.5703 60.9 87.7503 60.06 87.7503 58.58ZM85.2303 53.02L84.4903 53.98C82.3503 53.36 80.2503 51.82 79.4303 50.12C78.7703 51.9 76.6103 53.7 74.1503 54.64L73.3503 53.7C76.2303 52.8 78.6903 50.26 78.6903 48.08V47.72H74.3703V46.64H84.3303V47.72H80.1103V48.08C80.1103 50.24 82.6303 52.36 85.2303 53.02ZM88.7703 55.1H87.4303V50.3H83.8903V49.22H87.4303V43.86H88.7703V55.1ZM82.1503 45H76.5503V43.94H82.1503V45ZM108.929 59.18H91.4488V58.1H99.6088V53.4H93.9087V44.98H106.689V46.06H95.2488V52.32H106.889V53.4H100.969V58.1H108.929V59.18ZM125.527 61.74H124.187V56.62H113.247V55.52H125.527V61.74ZM125.567 54.56H124.227V43.86H125.567V54.56ZM121.827 52.08L121.047 53.08C118.807 52.26 116.787 50.6 115.967 48.82C115.247 50.78 113.227 52.6 110.727 53.66L109.907 52.76C112.827 51.64 115.227 49.14 115.227 46.1V44.32H116.647V46.1C116.647 49 119.107 51.18 121.827 52.08ZM149.571 61.44H137.691V54.86H149.571V61.44ZM148.231 60.36V55.94H139.031V60.36H148.231ZM146.111 52.16L145.311 53.12C143.071 52.3 141.071 50.66 140.251 48.92C139.531 50.86 137.451 52.7 135.011 53.72L134.171 52.8C137.031 51.76 139.511 49.22 139.511 46.2V45.84H135.151V44.78H145.151V45.84H140.931V46.2C140.931 49.1 143.451 51.3 146.111 52.16ZM149.591 53.9H148.251V43.86H149.591V53.9ZM164.549 56.82L163.749 57.78C161.309 56.6 159.229 54.6 158.469 52.42C157.709 54.74 155.589 56.9 153.129 58.24L152.249 57.38C155.029 55.98 157.709 53.22 157.709 49.3V48.7H153.229V47.62H163.489V48.7H159.129V49.3C159.129 53.12 161.849 55.6 164.549 56.82ZM168.029 61.64H166.689V43.86H168.029V61.64ZM161.249 45.46H155.469V44.38H161.249V45.46ZM191.793 54.36H190.473V49.1H186.193V52.78H177.693V44.78H186.193V48H190.473V43.86H191.793V54.36ZM184.853 51.7V45.84H179.013V51.7H184.853ZM191.753 61.74H190.433V56.42H179.473V55.32H191.753V61.74ZM210.451 61.64H209.111V51.4H204.911C204.811 55.5 202.891 57.88 200.351 57.88C197.751 57.88 195.811 55.38 195.811 51.1C195.811 46.84 197.751 44.34 200.351 44.34C202.771 44.34 204.671 46.54 204.891 50.3H209.111V43.86H210.451V61.64ZM200.351 56.8C202.211 56.8 203.571 54.78 203.571 51.1C203.571 47.44 202.211 45.42 200.351 45.42C198.491 45.42 197.151 47.44 197.151 51.1C197.151 54.78 198.491 56.8 200.351 56.8ZM226.069 52.86V53.9C224.229 54.24 221.789 54.36 219.149 54.36H213.249V53.3H218.749V51.16H214.889V44.34H216.209V46.56H222.549V44.34H223.889V51.16H220.049V53.3C222.229 53.28 224.389 53.14 226.069 52.86ZM230.089 60.82L229.269 61.74C227.689 61 226.249 59.64 225.609 58.26C225.089 59.52 223.709 60.88 222.349 61.64C220.969 60.88 219.589 59.52 219.049 58.26C218.409 59.64 216.989 61 215.409 61.74L214.569 60.82C216.449 60.02 218.369 58.16 218.369 56.2V55.8H219.709V56.26C219.709 57.86 221.149 59.52 222.349 60.24C223.529 59.52 224.969 57.86 224.969 56.26V55.8H226.289V56.2C226.289 58.16 228.229 60.02 230.089 60.82ZM228.129 55.04H226.809V43.86H228.129V48.5H230.929V49.6H228.129V55.04ZM222.549 50.08V47.6H216.209V50.08H222.549ZM244.028 61.64H242.708V54.96H237.748V61.48H236.388V54.96H231.488V53.88H248.948V54.96H244.028V61.64ZM247.988 50.88L247.248 51.86C244.188 51.16 241.328 49.56 240.208 47.34C239.108 49.56 236.228 51.16 233.188 51.86L232.428 50.88C235.828 50.2 239.508 48 239.508 45.18V44.32H240.928V45.18C240.928 48 244.588 50.2 247.988 50.88ZM254.446 56.6H253.286V55.74C253.286 53.92 253.726 52.84 255.506 51.38C256.646 50.44 257.426 49.22 257.426 48.08C257.426 46.2 255.866 45.4 254.206 45.4C253.226 45.4 251.746 45.8 250.706 46.42L250.226 45.52C251.306 44.88 252.946 44.38 254.306 44.38C256.566 44.38 258.706 45.44 258.706 48.04C258.706 49.5 257.946 50.74 256.586 51.88C254.846 53.38 254.446 54.1 254.446 55.82V56.6ZM255.006 59.84C255.006 60.46 254.506 60.94 253.886 60.94C253.206 60.94 252.726 60.46 252.726 59.84C252.726 59.26 253.206 58.74 253.886 58.74C254.506 58.74 255.006 59.26 255.006 59.84Z" fill="white"/>
</svg>
