<svg width="348" height="76" viewBox="0 0 348 76" fill="none" xmlns="http://www.w3.org/2000/svg">
<rect x="0.5" y="0.5" width="347" height="75" fill="#90C85F"/>
<rect x="0.5" y="0.5" width="347" height="75" stroke="black"/>
<path d="M28.9 31.44H15.92V27.32H27.12V25.4H15.92V24.34H28.46V28.32H17.26V30.38H28.9V31.44ZM29.84 19.16L29.14 20.12C26.3 19.8 23.4 18.52 22.22 16.76C21.08 18.52 18.14 19.8 15.34 20.12L14.66 19.16C17.6 18.82 20.94 17.44 21.46 15.48H15.74V14.44H28.7V15.48H23C23.54 17.44 26.9 18.82 29.84 19.16ZM30.94 22.58H13.5V21.52H21.56V19.14H22.92V21.52H30.94V22.58ZM47.2184 31.64H45.8784V13.86H47.2184V31.64ZM44.9384 25.56V26.66C42.6984 27.1 39.1984 27.32 36.4984 27.32H33.3384V20.5H40.5184V16.02H33.3384V14.94H41.8784V21.56H34.6584V26.22H36.4984C39.1984 26.22 42.5384 26.02 44.9384 25.56ZM65.0569 31.64H63.7369V13.86H65.0569V20.2H68.0569V21.34H65.0569V31.64ZM62.8769 25.16V26.24C60.6369 26.7 57.1369 26.92 54.4569 26.92H51.6969V15.04H60.2769V16.12H53.0169V25.82H54.4569C57.1369 25.82 60.4769 25.6 62.8769 25.16ZM23.04 58.8L23.24 59.8C22.22 60.12 20.98 60.24 19.8 60.24C15.98 60.24 14.16 57.68 14.14 54.34C14.1 51.24 15.98 48.6 19.2 48.62C22.5 48.62 23.98 50.76 23.98 53.94V54.66H15.42C15.5 57.16 16.92 59.26 19.84 59.24C20.86 59.24 22.02 59.12 23.04 58.8ZM15.38 53.68H22.72C22.72 53.64 22.76 53.46 22.72 53.42C22.7 51.04 21.38 49.62 19.2 49.62C16.72 49.62 15.54 51.6 15.38 53.68ZM28.5397 59.66C28.5397 60.3 28.0397 60.78 27.3997 60.78C26.7197 60.78 26.2197 60.3 26.2197 59.66C26.2197 59.06 26.7197 58.54 27.3997 58.54C28.0397 58.54 28.5397 59.06 28.5397 59.66ZM40.028 59.42V57.92H39.908C39.128 59.14 37.688 59.86 36.128 59.86C33.068 59.88 31.328 57.5 31.328 54.24C31.328 51 33.108 48.62 36.208 48.64C37.788 48.64 39.088 49.3 39.888 50.48H39.988V48.9H41.268V59.6C41.268 62.68 39.148 64.24 36.108 64.24C35.048 64.24 33.668 64.08 32.648 63.74L32.928 62.72C33.928 63.1 35.048 63.24 36.108 63.24C38.728 63.24 40.028 61.82 40.028 59.42ZM39.968 55.22V53.12C39.968 51.16 38.228 49.64 36.348 49.64C33.968 49.64 32.588 51.6 32.588 54.24C32.588 56.88 33.848 58.86 36.268 58.86C38.208 58.86 39.968 57.32 39.968 55.22ZM46.9186 59.66C46.9186 60.3 46.4186 60.78 45.7786 60.78C45.0986 60.78 44.5986 60.3 44.5986 59.66C44.5986 59.06 45.0986 58.54 45.7786 58.54C46.4186 58.54 46.9186 59.06 46.9186 59.66ZM69.6519 61.64H68.3119V43.86H69.6519V51.08H72.4919V52.22H69.6519V61.64ZM67.5519 56.12V57.16C65.6919 57.56 63.4319 57.68 60.7919 57.68H54.8119V56.6H59.0119V50.32H60.3519V56.6H60.8719C63.3319 56.6 65.6919 56.46 67.5519 56.12ZM64.7319 53.98H63.4119C63.8319 51.96 64.2719 48.5 64.2319 46.04H55.8519V44.96H65.6319C65.6119 47.72 65.2519 51.54 64.7319 53.98ZM83.2503 56.56L82.4303 57.46C80.4903 56.12 79.0303 54.14 78.4103 52.14C77.8303 54.36 76.1503 56.52 73.8703 58.06L72.9103 57.24C75.6703 55.56 77.6903 52.36 77.6903 48.62V46.24H74.2703V45.16H82.3503V46.24H79.0903V48.62C79.0903 52.44 81.0703 55.2 83.2503 56.56ZM85.6903 60.8H84.3903V50.78H81.1303V49.66H84.3903V44.16H85.6903V60.8ZM89.3103 61.64H87.9903V43.86H89.3103V61.64ZM100.249 45.46H94.7088V44.38H100.249V45.46ZM106.569 61.64H105.249V43.86H106.569V51.2H109.449V52.34H106.569V61.64ZM102.089 54.16C102.089 56.5 100.249 58.38 97.5488 58.38C94.8488 58.38 93.0088 56.5 93.0088 54.16C93.0088 51.82 94.8488 49.92 97.5488 49.92C100.249 49.92 102.089 51.8 102.089 54.16ZM100.769 54.16C100.769 52.28 99.5088 50.98 97.5688 50.98C95.6088 50.98 94.3488 52.26 94.3488 54.16C94.3488 56.04 95.6088 57.32 97.5688 57.32C99.5088 57.32 100.769 56.04 100.769 54.16ZM102.989 48.42H92.0088V47.34H102.989V48.42ZM125.487 53.08H112.227V44.58H113.567V52H125.487V53.08ZM127.327 59.04H109.847V57.96H127.327V59.04ZM143.026 61.64H141.706V43.86H143.026V50.6H146.026V51.74H143.026V61.64ZM140.846 55.56V56.66C138.606 57.1 135.106 57.32 132.426 57.32H129.446V50.5H136.646V46.02H129.446V44.94H137.986V51.56H130.806V56.22H132.426C135.106 56.22 138.446 56.02 140.846 55.56ZM167.289 61.44H155.629V55.06H167.289V61.44ZM165.949 60.36V56.14H156.949V60.36H165.949ZM167.329 54.1H166.009V43.86H167.329V47.92H170.049V49.04H167.329V54.1ZM161.989 52.74H153.549V44.48H154.889V47.48H160.649V44.48H161.989V52.74ZM160.649 51.66V48.54H154.889V51.66H160.649ZM186.748 54.12H185.408V49.2H182.768V54.12H181.448V44.16H182.768V48.06H185.408V43.86H186.748V54.12ZM188.308 60.82L187.468 61.74C185.928 60.94 184.328 59.4 183.788 57.94C183.268 59.34 181.828 60.9 180.428 61.66C179.008 60.9 177.568 59.34 177.048 57.94C176.508 59.4 174.928 60.94 173.368 61.74L172.528 60.82C174.408 59.94 176.368 57.92 176.368 55.76V54.94H177.708V55.76C177.708 57.6 179.188 59.48 180.428 60.26C181.648 59.48 183.128 57.6 183.128 55.76V54.94H184.468V55.76C184.468 57.92 186.448 59.94 188.308 60.82ZM180.548 52.18L179.768 53.14C177.928 52.26 176.348 50.64 175.728 49C175.188 50.8 173.548 52.58 171.648 53.74L170.728 52.9C173.108 51.56 175.008 49.06 175.008 46.04V44.42H176.388V46.06C176.388 49.18 178.448 51.24 180.548 52.18ZM204.406 61.64H203.066V51H197.606V49.92H203.066V43.86H204.406V61.64ZM201.566 55.16V56.24C199.346 56.7 195.846 56.92 193.166 56.92H190.726V45.04H199.346V46.12H192.066V55.82H193.166C195.846 55.82 199.206 55.6 201.566 55.16ZM222.804 61.64H221.464V43.86H222.804V61.64ZM220.524 55.14V56.22C218.284 56.68 214.784 56.88 212.084 56.88H209.124V44.7H210.464V55.78H212.084C214.784 55.78 218.124 55.58 220.524 55.14ZM248.948 54.54H231.508V53.48H239.548V51.44H233.948V44.3H246.508V45.34H235.288V47.34H246.428V48.36H235.288V50.36H246.728V51.44H240.928V53.48H248.948V54.54ZM246.868 58.88C246.868 60.66 244.468 61.94 240.208 61.94C235.968 61.94 233.548 60.66 233.548 58.88C233.548 57.12 235.968 55.82 240.208 55.82C244.468 55.82 246.868 57.12 246.868 58.88ZM245.528 58.88C245.528 57.64 243.528 56.84 240.208 56.84C236.888 56.84 234.888 57.64 234.888 58.88C234.888 60.12 236.888 60.94 240.208 60.94C243.528 60.94 245.528 60.12 245.528 58.88ZM267.631 56.58L266.811 57.54C264.531 56.24 262.271 53.96 261.511 51.76C260.791 54.22 258.691 56.52 256.111 58.06L255.211 57.18C258.151 55.54 260.751 52.48 260.751 48.34V46.12H256.271V45.04H266.511V46.12H262.171V48.34C262.171 52.4 265.071 55.26 267.631 56.58ZM270.511 61.64H269.171V43.86H270.511V50.74H273.511V51.88H270.511V61.64ZM288.89 54.12H276.37V44.72H277.71V48.04H287.55V44.72H288.89V54.12ZM287.55 53.04V49.1H277.71V53.04H287.55ZM291.39 59.04H273.91V57.96H291.39V59.04ZM307.648 61.64H306.308V51.02H302.868V49.9H306.308V43.86H307.648V61.64ZM304.808 55.56V56.66C302.588 57.1 299.088 57.32 296.408 57.32H293.768V50.5H300.328V46.02H293.768V44.94H301.668V51.56H295.088V56.22H296.408C299.088 56.22 302.448 56.02 304.808 55.56ZM321.967 48.08C321.967 50.16 320.027 51.96 317.147 51.96C314.247 51.96 312.327 50.16 312.327 48.08C312.327 45.98 314.247 44.18 317.147 44.18C320.027 44.18 321.967 45.98 321.967 48.08ZM320.627 48.08C320.627 46.6 319.407 45.26 317.147 45.26C314.867 45.26 313.667 46.6 313.667 48.08C313.667 49.56 314.867 50.88 317.147 50.88C319.407 50.88 320.627 49.56 320.627 48.08ZM326.167 61.64H324.847V57.8H320.227V56.72H324.847V43.86H326.167V61.64ZM317.667 61.22H316.347V54.62H311.127V53.54H317.667C319.907 53.54 322.387 53.34 324.087 53.02V54.08C322.467 54.44 320.187 54.62 317.667 54.62V61.22ZM332.485 59.66C332.485 60.3 331.985 60.78 331.345 60.78C330.665 60.78 330.165 60.3 330.165 59.66C330.165 59.06 330.665 58.54 331.345 58.54C331.985 58.54 332.485 59.06 332.485 59.66Z" fill="white"/>
</svg>
