<svg width="93" height="110" viewBox="0 0 93 110" fill="none" xmlns="http://www.w3.org/2000/svg">
<rect x="0.428711" y="0.428711" width="91.4694" height="108.62" fill="white"/>
<rect x="0.428711" y="0.428711" width="91.4694" height="108.62" stroke="black" stroke-width="0.857525"/>
<path d="M72.5773 56.4094H48.2665V69.6153H45.2651V56.4094H19.7537V54.0083H72.5773V56.4094ZM67.1749 77.7789H27.2571V63.7326H30.2584V75.3778H67.1749V77.7789ZM65.8543 36.4204C65.8543 42.3631 58.7711 46.9251 46.2256 46.9251C33.74 46.9251 26.5368 42.3631 26.5368 36.4204C26.5368 30.4778 33.74 25.9758 46.2256 25.9758C58.7711 25.9758 65.8543 30.4778 65.8543 36.4204ZM62.7329 36.4204C62.7329 31.6783 55.6498 28.3769 46.2256 28.3769C36.6813 28.3769 29.6582 31.6783 29.6582 36.4204C29.6582 41.0425 36.6813 44.464 46.2256 44.464C55.6498 44.464 62.7329 41.0425 62.7329 36.4204Z" fill="black"/>
</svg>
