<svg width="93" height="110" viewBox="0 0 93 110" fill="none" xmlns="http://www.w3.org/2000/svg">
<rect x="0.428711" y="0.428711" width="91.4694" height="108.62" fill="white"/>
<rect x="0.428711" y="0.428711" width="91.4694" height="108.62" stroke="black" stroke-width="0.857525"/>
<path d="M47.4861 41.4027C47.4861 35.52 43.5844 30.898 36.5012 30.898C29.4781 30.898 25.5163 35.52 25.5163 41.4027C25.5163 47.2853 29.4781 51.9074 36.5012 51.9074C43.5844 51.9074 47.4861 47.2853 47.4861 41.4027ZM68.5555 77.7789H31.1588V61.5717H34.1602V75.3778H68.5555V77.7789ZM50.7276 40.2021H64.1736V26.1559H67.1749V64.573H64.1736V42.6032H50.7276C50.1273 49.4463 44.3647 54.7286 36.5012 54.7286C28.1575 54.7286 22.2148 48.786 22.2148 41.4027C22.2148 34.0194 28.1575 28.0767 36.5012 28.0767C44.3647 28.0767 50.1273 33.3591 50.7276 40.2021Z" fill="black"/>
</svg>
