<svg width="93" height="110" viewBox="0 0 93 110" fill="none" xmlns="http://www.w3.org/2000/svg">
<rect x="0.428711" y="0.428711" width="91.4694" height="108.62" fill="white"/>
<rect x="0.428711" y="0.428711" width="91.4694" height="108.62" stroke="black" stroke-width="0.857525"/>
<path d="M46.2256 49.6864C46.2256 40.6823 42.804 33.239 36.2011 33.239C29.5981 33.239 26.0566 40.6223 26.0566 49.6864C26.0566 58.8705 29.5981 66.2538 36.2011 66.2538C42.804 66.2538 46.2256 58.8104 46.2256 49.6864ZM49.2869 48.0656H63.8734V26.1559H66.8748V78.9794H63.8734V50.4667H49.3469C49.1068 61.6317 44.0046 69.015 36.1411 69.015C28.1575 69.015 22.9352 61.3316 22.9352 49.7464C22.9352 38.1012 28.1575 30.4778 36.1411 30.4778C43.7645 30.4778 48.8067 37.3809 49.2869 48.0656Z" fill="black"/>
</svg>
