<svg width="93" height="110" viewBox="0 0 93 110" fill="none" xmlns="http://www.w3.org/2000/svg">
<rect x="0.428711" y="0.428711" width="91.4694" height="108.62" fill="white"/>
<rect x="0.428711" y="0.428711" width="91.4694" height="108.62" stroke="black" stroke-width="0.857525"/>
<path d="M21.9147 35.8802V33.4791H48.2665V35.8802H21.9147ZM53.3687 27.3564H56.3701V47.4654H64.7738V26.1559H67.7752V78.9794H64.7738V49.8664H56.3701V76.5784H53.3687V27.3564ZM50.3674 65.8936C47.4261 66.2538 45.085 66.4338 41.0032 66.6139C35.2407 66.854 23.4154 66.794 20.7742 66.794V64.3929H27.5572L26.7168 37.681H29.7182L30.5586 64.3929C33.8 64.3929 37.1615 64.3929 39.5626 64.2729L40.403 37.681H43.4043L42.5639 64.1528C46.1055 63.9727 47.9663 63.7326 50.3674 63.4925V65.8936Z" fill="black"/>
</svg>
