<svg width="93" height="110" viewBox="0 0 93 110" fill="none" xmlns="http://www.w3.org/2000/svg">
<rect x="0.428711" y="0.428711" width="91.4694" height="108.62" fill="white"/>
<rect x="0.428711" y="0.428711" width="91.4694" height="108.62" stroke="black" stroke-width="0.857525"/>
<path d="M31.1588 61.9919H34.1602V75.3778H68.5555V77.7789H31.1588V61.9919ZM64.1736 40.5023V26.1559H67.1749V65.1733H64.1736V42.9033H53.0686V40.5023H64.1736ZM57.5706 55.1488C54.4492 55.689 49.8872 56.1693 43.6444 56.4094C36.9814 56.7095 27.9774 56.6495 24.5559 56.6495V29.7575H49.7671V32.1585H27.5572V41.8229H49.1669V44.2239H27.5572V54.2484C29.4181 54.2484 38.1219 54.3084 43.8245 54.0683C49.8872 53.7682 54.5092 53.348 57.5706 52.7477V55.1488Z" fill="black"/>
</svg>
