<svg width="1282" height="312" viewBox="0 0 1282 312" fill="none" xmlns="http://www.w3.org/2000/svg">
<rect x="0.75" y="120.75" width="160" height="190" fill="white"/>
<rect x="0.75" y="120.75" width="160" height="190" stroke="black" stroke-width="1.5"/>
<path d="M113.829 198.65V165.05H119.079V257.45H113.829V202.85H89.6791V198.65H113.829ZM100.179 233.93L96.5041 237.71C93.0391 235.61 73.8241 223.22 68.4691 203.06C64.6891 223.22 45.0541 237.395 40.6441 239.705L36.4441 236.135C45.8941 231.095 65.8441 217.235 65.8441 187.625V170.72H71.0941V187.625C71.0941 217.655 95.0341 230.99 100.179 233.93Z" fill="black"/>
<rect x="160.75" y="120.75" width="160" height="190" fill="white"/>
<rect x="160.75" y="120.75" width="160" height="190" stroke="black" stroke-width="1.5"/>
<path d="M286.954 210.515H243.799V222.17H273.829V240.86H212.929V252.2H276.559V256.4H207.679V236.66H268.579V226.37H207.679V222.17H238.549V210.515H194.554V206.315H286.954V210.515ZM275.194 181.115C275.194 190.25 262.699 197.6 240.754 197.6C218.914 197.6 206.314 190.25 206.314 181.115C206.314 171.98 218.914 164.735 240.754 164.735C262.699 164.735 275.194 172.61 275.194 181.115ZM269.734 181.115C269.734 173.87 257.239 168.935 240.754 168.935C224.059 168.935 211.774 173.87 211.774 181.115C211.774 188.15 224.059 193.295 240.754 193.295C257.239 193.295 269.734 188.15 269.734 181.115Z" fill="black"/>
<rect x="320.75" y="120.75" width="160" height="190" fill="white"/>
<rect x="320.75" y="120.75" width="160" height="190" stroke="black" stroke-width="1.5"/>
<path d="M375.134 227H380.384V251.15H438.134V255.35H375.134V227ZM433.829 198.02V232.25H428.579V165.05H433.829V193.82H448.319V198.02H433.829ZM388.889 178.805C388.889 198.65 409.889 212.195 417.134 215.765L413.774 219.65C410.624 218.495 392.564 205.895 386.264 190.46C379.754 209.36 362.324 219.545 359.174 221.12L355.079 217.76C363.164 214.82 383.639 198.86 383.639 178.805V168.2H388.889V178.805Z" fill="black"/>
<rect x="480.75" y="60.75" width="160" height="190" fill="white"/>
<rect x="480.75" y="60.75" width="160" height="190" stroke="black" stroke-width="1.5"/>
<path d="M594.354 105.05H599.604V197.45H594.354V105.05ZM546.369 120.275H522.744V116.075H575.979V120.275H551.619V130.46C551.619 157.865 572.724 171.725 577.344 174.14L574.089 178.34C571.044 176.555 552.984 164.165 548.994 144.53C545.319 163.85 526.419 178.025 521.694 180.86L517.704 177.29C528.519 172.25 546.369 154.4 546.369 130.46V120.275Z" fill="black"/>
<rect x="640.75" y="0.75" width="160" height="190" fill="white"/>
<rect x="640.75" y="0.75" width="160" height="190" stroke="black" stroke-width="1.5"/>
<path d="M752.884 90.2V137.45H747.634V45.05H752.884V85.895H768.844V90.2H752.884ZM678.334 117.29C703.324 106.055 718.129 82.745 720.229 60.8H684.004V56.6H726.109C723.484 86.84 706.054 108.89 682.639 120.545L678.334 117.29Z" fill="black"/>
<rect x="800.75" y="90.75" width="160" height="190" fill="white"/>
<rect x="800.75" y="90.75" width="160" height="190" stroke="black" stroke-width="1.5"/>
<path d="M882.329 159.2C882.329 150.065 876.029 142.925 863.849 142.925C851.879 142.925 845.369 150.275 845.369 159.2C845.369 168.23 851.984 175.475 863.849 175.475C875.924 175.475 882.329 168.23 882.329 159.2ZM887.894 156.05H912.254V135.05H917.504V183.98H912.254V160.25H888.104C887.474 171.59 877.814 180.2 863.849 180.2C849.569 180.2 839.594 171.065 839.594 159.2C839.594 147.335 849.464 137.99 863.849 137.99C876.869 137.99 886.214 145.76 887.894 156.05ZM920.444 226.4H854.504V205.82H912.359V194.375H853.979V190.175H917.609V210.02H859.754V222.2H920.444V226.4Z" fill="black"/>
<rect x="960.75" y="90.75" width="160" height="190" fill="white"/>
<rect x="960.75" y="90.75" width="160" height="190" stroke="black" stroke-width="1.5"/>
<path d="M1007.15 146.075V181.04H1039.6V146.075H1007.15ZM1001.9 141.875H1044.85V185.24H1001.9V141.875ZM1012.93 197H1018.18V221.15H1076.98V225.35H1012.93V197ZM1072.78 168.02V202.25H1067.53V135.05H1072.78V163.61H1087.48V168.02H1072.78Z" fill="black"/>
<rect x="1120.75" y="90.75" width="160" height="190" fill="white"/>
<rect x="1120.75" y="90.75" width="160" height="190" stroke="black" stroke-width="1.5"/>
<path d="M1213.35 172.115V137.36H1218.6V223.25H1213.35V176.315H1193.4V172.115H1213.35ZM1233.3 135.05H1238.55V227.45H1233.3V135.05ZM1205.9 203.405C1199.6 204.35 1185.74 205.4 1174.71 205.4H1164V147.65H1196.66V151.85H1169.25V201.2H1175.03C1183.85 201.2 1199.6 200.36 1205.9 199.205V203.405Z" fill="black"/>
</svg>
