<svg width="162" height="192" viewBox="0 0 162 192" fill="none" xmlns="http://www.w3.org/2000/svg">
<rect x="0.75" y="0.75" width="160" height="190" fill="#FF0561"/>
<rect x="0.75" y="0.75" width="160" height="190" stroke="black" stroke-width="1.5"/>
<path d="M66.8266 145.35C68.5266 136.45 70.5266 126.95 72.7266 117.35C61.6266 124.55 45.2266 132.35 30.7266 134.05C35.6266 114.75 46.8266 76.45 53.1266 54.55L70.0266 54.25C65.4266 70.65 56.9266 102.65 53.8266 114.75C60.2266 113.05 67.3266 110.15 75.3266 106.05C79.9266 86.75 85.2266 67.15 90.5266 49.85L108.527 48.15C104.327 61.05 100.727 74.65 97.5266 88.15L106.527 86.65C109.527 73.85 112.827 61.35 116.027 49.85L134.027 48.15C124.727 79.85 118.227 115.65 113.527 144.65L94.3266 145.35C96.8266 131.05 100.027 115.25 103.527 99.55C100.527 100.05 97.5266 100.65 94.5266 101.15C91.2266 116.35 88.4266 131.25 86.0266 144.65L66.8266 145.35Z" fill="white"/>
</svg>
