<svg width="162" height="192" viewBox="0 0 162 192" fill="none" xmlns="http://www.w3.org/2000/svg">
<rect x="0.75" y="0.75" width="160" height="190" fill="#FF0561"/>
<rect x="0.75" y="0.75" width="160" height="190" stroke="black" stroke-width="1.5"/>
<path d="M40.0305 99.35C48.4305 98.85 115.93 95.65 126.13 95.15L122.03 107.65C113.73 108.05 46.5305 111.95 35.1305 112.65L40.0305 99.35ZM42.5305 118.15L61.6305 115.25C64.2305 134.55 77.0305 136.85 88.6305 136.85C98.3305 136.85 111.53 135.75 119.83 132.75L110.43 144.45C104.53 146.75 95.6305 147.55 85.5305 147.55C66.3305 147.55 46.2305 142.45 42.5305 118.15ZM46.4305 92.75C50.8305 80.05 56.6305 64.45 60.9305 52.75L78.7305 52.05C75.1305 62.15 71.2305 73.45 69.6305 78.45C77.7305 77.95 109.83 76.25 125.03 75.05L119.83 87.95C105.93 88.95 66.9305 91.55 46.4305 92.75Z" fill="white"/>
</svg>
