<svg width="162" height="192" viewBox="0 0 162 192" fill="none" xmlns="http://www.w3.org/2000/svg">
<rect x="0.75" y="0.75" width="160" height="190" fill="#FF0561"/>
<rect x="0.75" y="0.75" width="160" height="190" stroke="black" stroke-width="1.5"/>
<path d="M28.7285 134.95C44.6285 113.95 60.7285 75.85 69.3285 54.35L86.3285 53.35C83.0285 63.25 78.2285 76.35 72.8285 89.25L83.2285 87.05C84.2285 100.55 87.4285 114.25 91.9285 126.25C97.1285 100.85 103.729 73.25 110.529 49.85L129.029 48.15C125.029 61.75 121.529 76.15 118.529 90.35C123.029 89.85 127.529 89.25 132.129 88.65L129.029 101.45C124.729 102.05 120.229 102.75 115.829 103.35C113.029 117.75 110.629 131.85 108.529 144.65L88.3285 145.35C89.2285 140.45 90.1285 135.45 91.1285 130.35L73.8285 131.45C70.7285 123.25 68.6285 112.15 67.7285 101.25C61.9285 114.45 55.8285 126.45 50.8285 133.45L28.7285 134.95Z" fill="white"/>
</svg>
