<svg width="162" height="192" viewBox="0 0 162 192" fill="none" xmlns="http://www.w3.org/2000/svg">
<rect x="0.75" y="0.75" width="160" height="190" fill="#FF0561"/>
<rect x="0.75" y="0.75" width="160" height="190" stroke="black" stroke-width="1.5"/>
<path d="M37.0305 109.85C45.4305 109.05 112.93 103.55 123.13 102.75L120.03 115.35C116.43 115.65 102.13 117.05 86.0305 118.65L77.2305 144.55L55.9305 146.55C58.0305 141.05 61.7305 130.65 65.3305 120.65C50.8305 122.05 38.0305 123.35 33.6305 123.85L37.0305 109.85ZM42.6305 104.85C45.3305 98.55 48.3305 90.85 50.7305 84.85C48.2305 85.15 45.8305 85.35 43.6305 85.55L48.7305 71.95C67.0305 70.45 105.73 67.15 126.73 65.05L122.03 78.45C109.63 79.65 89.3305 81.35 70.7305 83.05C69.6305 85.55 68.6305 88.05 68.1305 89.25C80.4305 88.25 112.13 85.45 124.23 84.25L119.03 97.65C100.23 99.45 63.7305 102.95 42.6305 104.85ZM48.0305 68.05L52.6305 53.95C67.3305 53.15 118.03 49.75 131.33 49.05L126.73 61.55C115.93 62.25 62.7305 66.85 48.0305 68.05Z" fill="white"/>
</svg>
