<svg width="162" height="192" viewBox="0 0 162 192" fill="none" xmlns="http://www.w3.org/2000/svg">
<rect x="0.75" y="0.75" width="160" height="190" fill="#FF0561"/>
<rect x="0.75" y="0.75" width="160" height="190" stroke="black" stroke-width="1.5"/>
<path d="M89.3539 145.35C91.4539 133.75 93.9539 121.25 96.7539 108.55C81.7539 120.15 56.1539 134.25 33.7539 137.05C36.4539 127.15 42.1539 108.55 45.6539 96.85C43.0539 97.25 40.8539 97.45 39.2539 97.65L43.4539 84.55C50.6539 83.95 67.6539 81.95 73.8539 81.15C75.3539 76.35 77.5539 69.75 79.0539 64.55C72.9539 65.05 57.1539 66.35 46.3539 67.45L50.2539 55.65L101.254 51.65C98.5539 61.65 91.6539 82.45 89.1539 90.85C85.5539 91.25 75.5539 92.75 65.3539 94.15C63.0539 101.45 60.0539 111.35 58.8539 115.45C70.7539 112.55 84.1539 106.45 99.2539 97.35C103.054 80.85 107.354 64.55 111.554 49.85L130.054 48.15C120.754 79.85 114.254 115.65 109.554 144.65L89.3539 145.35Z" fill="white"/>
</svg>
