<svg width="162" height="192" viewBox="0 0 162 192" fill="none" xmlns="http://www.w3.org/2000/svg">
<rect x="0.75" y="0.75" width="160" height="190" fill="#FF0561"/>
<rect x="0.75" y="0.75" width="160" height="190" stroke="black" stroke-width="1.5"/>
<path d="M90.2285 119.55C94.9285 102.05 104.629 66.15 109.529 50.05L129.529 48.45C127.129 56.25 123.629 67.25 119.929 78.65L131.329 77.35L127.129 89.25L116.229 90.55C112.829 101.35 109.729 111.65 107.829 119.15L90.2285 119.55ZM39.4285 80.35C43.5285 64.55 57.8285 52.15 74.8285 51.85C90.4285 51.65 101.029 61.35 97.4285 77.35C93.8285 94.65 79.4285 105.45 61.0285 106.65C44.3285 107.75 35.2285 96.95 39.4285 80.35ZM43.5285 115.15L62.6285 112.25C65.2285 135.15 78.0285 137.85 88.6285 137.85C98.3285 137.85 111.529 136.75 119.829 133.75L110.429 144.45C104.529 146.75 95.6285 147.55 85.5285 147.55C67.3285 147.55 47.2285 141.95 43.5285 115.15ZM56.0285 79.55C53.5285 88.85 58.2285 93.35 63.9285 93.05C71.5285 92.55 76.8285 86.75 78.8285 78.45C81.0285 69.15 77.4285 64.95 70.8285 65.15C63.0285 65.35 58.0285 72.55 56.0285 79.55Z" fill="white"/>
</svg>
