<svg width="162" height="192" viewBox="0 0 162 192" fill="none" xmlns="http://www.w3.org/2000/svg">
<rect x="0.75" y="0.75" width="160" height="190" fill="#FF0561"/>
<rect x="0.75" y="0.75" width="160" height="190" stroke="black" stroke-width="1.5"/>
<path d="M40.0305 100.35C48.4305 99.85 115.93 96.65 126.13 96.15L122.03 108.65C113.73 109.05 46.5305 112.95 35.1305 113.65L40.0305 100.35ZM41.7305 93.95C52.2305 80.65 63.1305 64.35 69.5305 51.05L87.1305 49.95C84.9305 55.45 82.0305 61.15 78.9305 66.75C80.7305 69.85 82.9305 72.85 85.5305 75.75C90.6305 67.05 95.4305 57.95 99.0305 49.45L116.63 48.45C114.23 55.05 111.03 61.95 107.63 68.65L115.83 67.55C117.13 74.75 120.73 82.05 125.23 88.25L106.53 89.65C104.73 86.45 103.33 82.45 102.33 78.25C99.7305 83.05 97.0305 87.35 94.7305 90.85L75.2305 92.45C76.1305 91.05 77.1305 89.55 78.0305 88.05C75.3305 85.85 72.9305 83.15 70.9305 80.25C67.9305 84.85 64.9305 89.05 62.2305 92.55L41.7305 93.95ZM42.5305 118.15L61.6305 115.25C64.2305 134.55 77.0305 136.85 88.6305 136.85C98.3305 136.85 111.53 135.75 119.83 132.75L110.43 144.45C104.53 146.75 95.6305 147.55 85.5305 147.55C66.3305 147.55 46.2305 142.45 42.5305 118.15Z" fill="white"/>
</svg>
