<svg width="162" height="192" viewBox="0 0 162 192" fill="none" xmlns="http://www.w3.org/2000/svg">
<rect x="0.75" y="0.75" width="160" height="190" fill="#FF0561"/>
<rect x="0.75" y="0.75" width="160" height="190" stroke="black" stroke-width="1.5"/>
<path d="M33.7285 134.05C37.7285 118.45 45.9285 89.75 51.9285 68.95C48.1285 69.25 45.0285 69.55 42.8285 69.65L46.9285 56.55C59.5285 55.65 91.9285 53.15 100.929 52.65L96.6285 64.95C92.7285 65.25 82.2285 66.25 71.2285 67.25C66.9285 82.45 61.1285 103.75 58.8285 112.45C70.2285 109.75 83.1285 103.65 97.8285 94.75C101.529 79.15 105.529 63.75 109.529 49.85L128.029 48.15C124.029 61.75 120.529 76.15 117.529 90.35C122.029 89.85 126.529 89.25 131.129 88.65L128.029 101.45C123.729 102.05 119.229 102.75 114.829 103.35C112.029 117.75 109.629 131.85 107.529 144.65L87.3285 145.35C89.5285 133.15 92.2285 119.85 95.2285 106.35C81.5285 117.25 55.9285 131.35 33.7285 134.05Z" fill="white"/>
</svg>
