<svg width="79" height="28" viewBox="0 0 79 28" fill="none" xmlns="http://www.w3.org/2000/svg">
<path d="M17.192 15.5681C17.444 14.7001 17.724 13.6081 18.06 12.4321L12.516 12.8801L13.748 9.5481L18.956 9.1281C19.152 8.4561 19.348 7.7841 19.516 7.1121L14.672 7.5041C12.236 10.6681 9.74405 13.2721 7.58804 15.3441L1.12004 15.6521C5.20805 11.9841 9.01605 7.6161 11.228 4.7321C9.57605 4.8721 5.46005 5.2081 2.60405 5.4601L3.69604 1.9041C7.05605 1.6521 15.568 1.0641 19.096 0.868101C18.452 1.9881 17.808 3.0521 17.136 4.0601L20.44 3.8081C20.804 2.4921 21.14 1.3441 21.42 0.448101L27.02 0.000100374C25.676 3.8921 23.212 11.3681 22.008 15.3161L17.192 15.5681ZM1.62404 21.3081C3.36005 17.7241 8.40005 15.3441 14.14 15.4561C19.376 15.5681 22.288 18.4521 21.112 21.4761C19.432 25.9561 14.42 27.9161 8.31605 27.7481C2.40805 27.6081 4.49158e-05 24.6681 1.62404 21.3081ZM6.46805 21.5881C5.71205 22.9881 7.02805 24.0241 9.60405 23.9961C12.46 24.0801 14.952 23.1281 15.764 21.3641C16.408 19.9081 15.288 19.0961 12.404 19.0961C9.60405 19.1241 7.19604 20.2161 6.46805 21.5881ZM42.9499 15.7081C44.0139 11.8721 46.1139 3.9761 47.1779 0.448101L52.7779 0.000100374L50.6499 6.3561L53.7859 5.9921L52.6099 9.3241L49.5859 9.6881C48.8859 11.8721 48.2419 13.9161 47.7659 15.4561L42.9499 15.7081ZM25.1139 16.3801C29.4539 12.3201 33.8499 4.9561 36.2019 0.8121L41.1019 0.5321C40.2059 2.4081 38.9179 4.8721 37.4899 7.3361L40.2339 6.7481C40.5139 9.4081 41.4939 12.0681 42.8379 14.3361L37.3219 14.8401C36.6219 13.4961 36.1459 11.7321 35.9219 9.9681C34.3819 12.4321 32.7859 14.6441 31.4419 15.9601L25.1139 16.3801ZM27.3819 21.4481C29.0899 17.9481 34.1579 15.6241 39.8979 15.7361C45.1339 15.8481 48.0179 18.6481 46.8699 21.6161C45.2179 26.0121 40.1779 27.9161 34.0739 27.7481C28.1659 27.6081 25.7859 24.7521 27.3819 21.4481ZM32.2259 21.7281C31.4979 23.0721 32.7859 24.0241 35.3619 23.9961C38.2179 24.0801 40.7379 23.1841 41.5219 21.5041C42.1379 20.1321 41.0459 19.3761 38.1619 19.3761C35.3619 19.4041 32.9259 20.4121 32.2259 21.7281ZM53.9379 17.2201C55.1419 13.6921 56.5139 9.4081 57.5779 6.3001C56.7099 6.3841 55.9819 6.4681 55.4499 6.5521L56.7379 2.3241C60.7699 2.1001 74.4619 1.1481 78.0739 0.9521L76.7859 4.5921C74.9659 4.7041 68.6939 5.2361 63.2619 5.7401C62.4779 8.1201 61.5539 11.2281 61.2179 12.4881C64.6619 12.2081 73.3979 11.4241 76.7859 11.0881L75.3299 14.8401C73.3979 15.0361 70.8219 15.3161 68.0219 15.6241L66.4539 21.5601C70.8219 21.2241 74.7419 20.8881 75.9179 20.8041L75.0499 24.3321C72.7259 24.5281 54.0219 26.3761 50.8579 26.7121L51.8099 22.7921C52.7619 22.7081 56.4019 22.4001 60.5739 22.0641C61.1059 20.3281 61.7779 18.0321 62.3099 16.2681C59.2299 16.6041 56.2619 16.9401 53.9379 17.2201Z" fill="#FF0561"/>
</svg>
