<svg width="181" height="151" viewBox="0 0 181 151" fill="none" xmlns="http://www.w3.org/2000/svg">
<rect x="0.5" y="0.5" width="90" height="120" fill="#FF961E"/>
<rect x="0.5" y="0.5" width="90" height="120" stroke="black"/>
<path d="M68.72 45.6C70.76 45.6 71.96 45.66 72.26 45.66C72.44 45.66 72.68 45.78 72.92 46.02C73.16 46.26 73.28 46.44 73.34 46.56C73.4 49.8 73.4 52.2 73.28 53.7C73.16 54.3 72.98 54.72 72.62 55.08C72.26 55.44 71.9 55.74 71.6 55.86C71.24 55.98 70.76 56.16 70.16 56.28C69.86 56.4 69.38 56.52 68.72 56.64C68 56.82 67.46 57 66.98 57.12C66.5 57.24 66.02 57.42 65.6 57.6C65.36 57.72 65.12 58.08 64.94 58.56C64.76 59.04 64.7 59.52 64.7 59.88C64.7 61.5 64.88 64.2 65.24 67.92C65.3 68.94 65.78 69.48 66.68 69.54C67.28 69.66 68.24 69.78 69.5 69.96C70.76 70.2 71.72 70.32 72.38 70.32C73.7 70.5 74.3 71.16 74.18 72.36C74.18 72.54 74.12 73.02 74.06 73.86C74 74.7 73.94 75.3 73.94 75.66C73.88 76.02 73.76 76.44 73.64 77.04C73.52 77.64 73.34 78.12 73.22 78.54C73.04 78.9 72.8 79.14 72.44 79.38C72.08 79.62 71.6 79.92 70.94 80.16C70.28 80.46 69.86 80.64 69.74 80.7C69.5 80.82 69.2 80.94 68.78 80.94C68.36 81 68.12 81.06 68 81.06C66.56 81.54 65.96 82.56 66.08 84.12C66.2 86.22 66.02 87.6 65.66 88.26C65.3 88.98 64.28 89.64 62.6 90.24C62.06 90.48 61.52 90.66 60.92 90.78C60.32 90.9 59.6 91.08 58.64 91.2C57.68 91.32 57.14 91.44 56.9 91.44C55.94 91.62 55.46 91.14 55.34 90C55.28 89.64 55.1 88.02 54.74 85.14C54.38 82.26 54.14 80.1 54.02 78.54C53.6 72.72 53.3 66.84 53.18 60.96C53.12 59.52 53.18 55.26 53.36 48.3C53.36 46.62 53.48 44.46 53.66 41.82C53.66 41.28 53.84 40.8 54.08 40.32C54.32 39.9 54.68 39.42 55.16 38.94C55.58 38.46 55.88 38.04 56.06 37.8C56.06 37.8 56.3 37.74 56.72 37.74C60.02 37.68 61.76 37.62 62 37.62C62.78 37.5 63.32 37.56 63.62 37.8C63.86 38.04 64.04 38.58 64.04 39.42C64.1 41.16 64.1 42.72 64.1 44.16C64.04 44.7 64.1 45.06 64.34 45.3C64.52 45.54 64.88 45.6 65.36 45.54H68.72V45.6ZM34.7 87.96C29.48 87.9 25.16 86.1 21.68 82.5C20.48 81.3 19.64 79.26 19.28 76.38C18.68 72.42 18.38 68.88 18.44 65.82C18.44 60.54 19.58 55.44 21.86 50.52C22.04 50.1 22.22 49.8 22.4 49.62C25.52 46.5 27.5 44.58 28.34 43.86C28.52 43.68 28.76 43.56 29.06 43.44C29.3 43.38 29.66 43.32 30.14 43.26C30.56 43.2 30.86 43.14 31.04 43.14C33.74 42.54 36.32 42.72 38.72 43.68C41.12 44.64 43.64 46.2 46.16 48.24C47.18 49.2 48.02 50.04 48.62 50.82C49.22 51.6 49.64 52.5 49.88 53.52C50.36 56.1 50.54 58.26 50.36 59.94C50 64.02 49.34 68.46 48.5 73.32C47.48 79.02 44.84 83.22 40.52 85.86C37.88 87.54 35.9 88.2 34.7 87.96ZM41.24 62.94C41.18 62.82 41.12 62.46 41.06 61.98C40.94 61.5 40.88 61.14 40.82 60.9C40.76 60.72 40.7 60.42 40.58 60.06C40.46 59.7 40.34 59.4 40.16 59.1C39.98 58.86 39.8 58.56 39.56 58.32C38.12 56.82 36.56 56.22 34.88 56.52C33.14 56.88 31.94 58.02 31.22 60C30.32 62.28 30.08 64.32 30.44 66.12C30.56 66.84 30.68 67.98 30.86 69.48C31.04 71.04 31.22 72.18 31.4 72.96C31.58 73.86 32.12 74.64 33.08 75.3C33.98 75.96 34.88 76.26 35.84 76.26C36.5 76.26 37.16 76.02 37.88 75.48C38.54 75 38.96 74.34 39.14 73.5C39.26 72.84 39.98 69.3 41.24 62.94Z" fill="white"/>
<rect x="90.5" y="30.5" width="90" height="120" fill="#FF961E"/>
<rect x="90.5" y="30.5" width="90" height="120" stroke="black"/>
<path d="M151.1 119.22C149.18 119.22 147.86 118.92 147.14 118.2C146.42 117.48 146.06 116.16 145.94 114.18C145.64 108.6 145.52 104.76 145.52 102.66C145.52 99.72 145.7 90.42 146.12 74.82C146.12 74.4 146.18 73.92 146.3 73.44C146.36 72.96 146.42 72.54 146.54 72.18C146.6 71.82 146.72 71.4 146.9 70.8C147.02 70.2 147.14 69.78 147.26 69.42C147.38 68.94 147.62 68.58 148.04 68.46C148.16 68.46 148.58 68.34 149.24 68.16C149.9 67.98 150.38 67.86 150.62 67.8C150.86 67.74 151.22 67.68 151.82 67.56C152.36 67.44 152.78 67.44 153.14 67.44C153.5 67.44 153.92 67.5 154.4 67.62C154.88 67.74 155.3 67.86 155.78 68.04C156.92 68.64 157.58 69.72 157.7 71.28C157.7 72 157.76 74.4 157.82 78.54C157.82 82.68 157.94 85.26 158.06 86.28C158.18 87 158.6 87.78 159.32 88.56C159.68 88.98 160.04 89.4 160.46 89.82C160.88 90.3 161.36 90.78 161.9 91.26C162.38 91.8 162.8 92.22 163.16 92.46C163.64 92.94 163.94 93.48 164.18 94.02C164.42 94.62 164.48 95.28 164.42 96C164.36 96.72 164.3 97.26 164.24 97.62C164.12 97.98 164 98.64 163.76 99.48C163.4 100.92 162.14 101.7 159.98 101.7C158.84 101.7 158.12 101.88 157.88 102.18C157.58 102.54 157.46 103.32 157.52 104.64C157.52 105.54 157.52 107.16 157.58 109.44C157.64 111.72 157.7 113.28 157.7 114.06C157.7 115.68 157.28 116.76 156.32 117.3C153.92 118.62 152.18 119.28 151.1 119.22ZM119.36 101.1C122.36 101.4 124.58 101.52 126.02 101.52C126.56 101.58 127.16 101.64 127.88 101.64C128.6 101.7 129.08 101.76 129.44 101.76C129.8 101.76 130.22 101.76 130.82 101.7C131.42 101.64 132.08 101.52 132.8 101.34C134.24 101.04 135.8 101.46 137.48 102.66C137.66 102.84 137.84 103.08 137.96 103.44C138.08 103.8 138.14 104.16 138.08 104.4C137.96 105.3 137.78 106.02 137.66 106.56C137.54 107.16 137.42 107.52 137.36 107.76C137.24 108 137 108.48 136.64 109.26C136.28 110.04 135.98 110.64 135.74 111.12C134.84 113.04 133.4 114.12 131.42 114.24C129.98 114.36 128.12 114.6 125.9 114.96C123.62 115.32 122 115.5 120.92 115.56C119.84 115.68 118.04 115.68 115.4 115.56C113.78 115.44 112.22 115.2 110.66 114.78C109.34 114.48 108.62 113.52 108.56 111.96C108.5 111.06 108.44 109.8 108.38 108.24C108.26 106.68 108.2 105.18 108.14 103.86C108.08 102.54 108.08 101.28 108.08 100.08C107.96 94.2 107.96 88.38 108.08 82.5C108.08 81.24 108.32 79.8 108.92 78.18C109.28 77.16 109.76 76.44 110.36 76.08C110.96 75.72 111.92 75.48 113.24 75.36C113.84 75.3 114.8 75.3 116.24 75.36C116.36 75.36 116.54 75.48 116.78 75.6C117.02 75.72 117.2 75.84 117.26 75.84C117.74 76.08 118.04 76.14 118.22 76.14C118.88 76.14 119.36 76.26 119.66 76.5C119.9 76.74 120.14 77.28 120.32 78C120.56 78.9 120.68 79.86 120.68 80.94C120.68 82.02 120.62 82.92 120.56 83.7C120.44 84.48 120.32 85.44 120.14 86.64C119.96 87.84 119.84 88.74 119.84 89.4C119.72 90.36 119.6 92.4 119.54 95.52C119.42 98.64 119.36 100.5 119.36 101.1Z" fill="white"/>
</svg>
