<svg width="541" height="151" viewBox="0 0 541 151" fill="none" xmlns="http://www.w3.org/2000/svg">
<rect x="0.5" y="0.5" width="90" height="120" fill="#FF961E"/>
<rect x="0.5" y="0.5" width="90" height="120" stroke="black"/>
<path d="M27.68 53.22C23.6 52.5 21.38 52.08 20.96 51.96C19.7 51.72 19.1 51.06 19.16 49.92V45.9C21.02 45.18 23.06 44.76 25.34 44.52C27.62 44.34 29.54 44.28 31.16 44.34C32.72 44.46 34.88 44.64 37.52 44.94C38.24 45.06 39.02 45.06 39.86 45.06C40.7 45.06 41.66 45.06 42.8 45.06C43.94 45.06 44.84 45 45.44 45V48.6C45.44 49.2 45.26 49.62 44.9 49.86C44.48 50.1 44 50.28 43.4 50.4C42.8 50.52 42.44 50.76 42.26 51L43.04 51.84C46.4 54.12 47.36 57.24 45.98 61.2C45.38 62.88 44 64.98 41.84 67.44C41.48 67.8 41 68.16 40.28 68.4C39.56 68.64 38.9 68.82 38.24 68.82C34.94 68.94 32.06 68.88 29.66 68.52C26.18 68.04 23.84 66.72 22.7 64.5C21.5 62.28 21.92 59.88 23.84 57.3C24.14 56.88 24.5 56.46 24.92 55.98C25.34 55.5 25.82 55.02 26.42 54.42C26.96 53.88 27.38 53.46 27.68 53.22ZM38.96 60.6C38.9 59.64 38.6 58.98 38.06 58.56C37.46 58.2 36.5 57.96 35.12 57.9C34.16 57.9 33.38 58.32 32.84 59.16C32.24 60 31.88 61.08 31.7 62.28C31.58 63 31.82 63.48 32.3 63.78C32.78 64.08 33.62 64.26 34.76 64.26C35.96 64.26 36.92 63.96 37.76 63.24C38.54 62.52 38.96 61.68 38.96 60.6ZM27.5 43.62C27.74 41.46 27.92 40.08 28.04 39.48C28.04 39.42 28.1 39.3 28.22 39.12C28.82 38.52 30.14 37.98 32.18 37.56C34.16 37.14 35.66 37.08 36.62 37.44C37.94 37.92 38.72 38.82 38.96 40.02C39.2 41.28 38.84 42.3 37.76 43.08C37.04 43.56 36.14 43.8 35.06 43.8C34.64 43.86 32.72 43.8 29.3 43.68C29.06 43.68 28.46 43.68 27.5 43.62ZM71.9 64.44C71.84 66.96 71.24 68.7 70.1 69.66C69.62 70.02 69.02 70.32 68.3 70.44C67.58 70.56 66.92 70.62 66.38 70.56H65.6L64.28 70.2C63.44 70.02 63.08 69.48 63.08 68.64V58.68C62 58.92 60.8 59.04 59.54 59.16C57.2 59.4 55.82 58.86 55.4 57.54C54.5 55.02 55.1 52.5 57.26 49.98C57.38 49.86 57.62 49.74 58.04 49.62C58.4 49.56 59 49.5 59.84 49.44C60.62 49.38 61.1 49.32 61.28 49.26C61.34 49.26 61.88 49.32 62.84 49.44C62.72 46.26 62.72 42.84 62.72 39.18C62.72 38.4 62.96 37.74 63.56 37.2C64.1 36.72 64.82 36.42 65.66 36.42L69.92 36.84L70.52 37.32C70.76 37.5 71.06 37.86 71.54 38.4C71.96 38.94 72.2 39.48 72.2 39.96V48.9C72.14 48.9 72.08 49.86 72.08 51.78C72.08 53.7 72.02 56.04 72.02 58.74C71.96 61.5 71.9 63.36 71.9 64.44ZM30.26 93.66L29.78 93.78C29.66 93.78 29.54 93.72 29.36 93.6C29.18 93.48 29.06 93.36 29 93.24C28.88 93.12 28.76 93 28.64 92.76C28.46 92.52 28.34 92.34 28.28 92.22C28.16 92.1 27.86 91.86 27.38 91.44C26.9 91.08 26.48 90.72 26.12 90.36C25.7 90 25.46 89.76 25.46 89.58C25.46 89.52 25.4 89.22 25.4 88.68C25.4 88.2 25.34 87.9 25.34 87.78C25.28 87.54 25.34 87.3 25.46 87.06C25.58 86.82 25.82 86.58 26.18 86.34C26.48 86.1 26.78 85.86 27.08 85.62C27.38 85.44 27.74 85.2 28.22 84.84C28.7 84.54 29.06 84.3 29.3 84.12C30.2 83.46 31.46 82.62 33.08 81.6C34.64 80.64 36.2 79.56 37.64 78.42C38 78.18 38.36 77.88 38.84 77.64C39.26 77.4 39.56 77.22 39.68 77.1C39.8 77.04 39.92 76.8 40.1 76.32C40.28 75.84 40.4 75.3 40.46 74.64C40.46 73.98 40.58 72.9 40.7 71.46C40.7 71.22 41.42 71.1 42.92 70.98C44.42 70.86 45.92 70.92 47.42 71.16C48.92 71.4 49.7 71.76 49.7 72.24C49.82 75.72 49.94 77.58 50.06 77.82C50.24 78.24 50.72 78.72 51.56 79.26C54.5 81.42 58.82 82.92 64.58 83.88C64.76 83.94 65 84 65.24 84C65.48 84 65.6 84.06 65.72 84.06C65.78 84.06 65.84 84.12 65.96 84.12C66.08 84.18 66.14 84.24 66.14 84.36C66.14 84.48 66.2 84.6 66.2 84.78C66.2 84.9 66.08 85.44 65.96 86.28C65.84 86.76 65.78 87.06 65.78 87.24C65.72 87.48 65.66 87.84 65.54 88.32C65.42 88.8 65.3 89.16 65.24 89.28C65.18 89.46 65.12 89.76 65 90.12C64.88 90.54 64.76 90.78 64.64 90.9C64.52 91.02 64.34 91.2 64.16 91.44C63.92 91.68 63.74 91.86 63.5 91.92C63.26 91.98 63.02 92.04 62.66 92.1C62.3 92.22 61.94 92.22 61.58 92.16C61.16 92.16 60.68 92.04 60.2 91.92C59.96 91.92 59.54 91.86 58.88 91.74C58.22 91.62 57.62 91.5 57.14 91.38C56.66 91.26 56.18 91.14 55.7 90.9C53.72 90.06 52.04 89.16 50.72 88.08C50.24 87.78 49.58 87.24 48.68 86.46C47.72 85.74 47.18 85.26 46.94 85.02L46.58 84.78C46.28 84.66 46.04 84.54 45.8 84.48C45.56 84.42 45.32 84.42 45.2 84.42C45.08 84.48 44.96 84.54 44.84 84.6C44.72 84.66 44.66 84.72 44.54 84.84L44.36 85.02C43.16 85.98 41.12 87.3 38.3 89.1C35.48 90.9 32.78 92.46 30.26 93.66Z" fill="white"/>
<rect x="360.5" y="30.5" width="90" height="120" fill="#FF961E"/>
<rect x="360.5" y="30.5" width="90" height="120" stroke="black"/>
<path d="M431.12 69.96C431.12 70.02 431.12 70.08 431.24 70.08C431.36 70.2 431.6 70.26 431.96 70.38C432.32 70.5 432.62 70.56 432.86 70.68C433.1 70.8 433.22 70.92 433.28 71.04C433.58 72.18 433.7 73.5 433.64 74.94C433.58 75.42 433.28 78.6 432.8 84.48C432.38 88.92 432.02 93.36 431.66 97.8C431.24 102.12 431 104.7 431 105.54C430.88 106.26 430.82 107.22 430.76 108.48C430.7 109.74 430.64 110.88 430.58 111.9C430.46 112.92 430.4 113.88 430.28 114.78C430.16 115.62 429.56 116.82 428.6 118.44C428.36 118.86 427.82 119.04 426.98 119.04C426.8 119.1 425.06 119.1 421.7 119.1C421.1 119.1 420.62 118.98 420.26 118.62C419.9 118.26 419.66 117.84 419.66 117.24L419.24 110.94C419.24 110.82 419.18 110.4 419.12 109.68C419 108.96 419 108.42 419.06 108.06C419.18 106.32 419.42 104.58 419.78 102.84C419.96 101.7 419.9 100.92 419.54 100.56C419.18 100.2 418.46 100.14 417.38 100.38C415.7 100.74 414.32 100.32 413.24 99.24C412.1 98.16 411.68 96.84 411.98 95.16C412.22 93.6 412.88 92.34 413.96 91.38C414.98 90.48 416.3 89.94 417.98 89.82C418.76 89.82 419.48 89.52 420.08 88.98C420.68 88.44 421.04 87.78 421.1 87.06C421.16 85.86 421.28 84 421.52 81.36C421.7 78.78 421.82 76.8 421.94 75.42C422 74.82 422.18 73.74 422.54 72.3C422.84 70.98 423.68 70.38 425.06 70.38C426.62 70.44 428.12 70.44 429.5 70.44C429.5 70.44 430.04 70.32 431.12 69.96ZM379.04 76.86C379.46 76.14 380.12 75.66 380.96 75.48C385.88 74.58 389.66 73.92 392.3 73.56C396.26 73.02 399.92 72.96 403.34 73.44C403.4 73.44 403.58 73.5 403.94 73.5C404.24 73.56 404.48 73.62 404.6 73.62C404.72 73.62 404.96 73.68 405.2 73.74C405.44 73.8 405.62 73.86 405.8 73.98C405.98 74.1 406.16 74.28 406.34 74.4C406.64 74.7 406.94 75.3 407.3 76.2C408.8 80.52 409.46 85.32 409.22 90.72C409.1 92.7 408.8 95.58 408.32 99.42C408.2 100.26 408.08 102.06 407.9 104.94C407.72 107.82 407.42 109.98 407.06 111.48C406.64 113.16 406.1 114.24 405.5 114.84C405.02 115.32 403.58 115.68 401.3 115.8C399.02 115.98 396.92 115.98 395.12 115.86C394.16 115.86 393.68 115.56 393.56 114.96C393.44 114.72 393.44 114.48 393.56 114.12C393.62 113.76 393.74 113.4 393.86 112.98C393.98 112.62 394.04 112.32 394.04 112.14C394.22 111.06 394.4 109.98 394.52 108.84C394.76 106.86 394.88 104.7 395 102.36C395.06 99.48 395 95.22 394.82 89.52C394.76 88.68 394.64 88.08 394.46 87.72C393.92 86.76 392.66 86.52 390.74 86.94C388.52 87.48 384.56 87.66 378.86 87.42C378.56 87.42 378.38 87.36 378.26 87.24C378.08 87.12 378.02 86.76 378.08 86.28C378.44 80.52 378.74 77.34 379.04 76.86Z" fill="white"/>
<rect x="90.5" y="30.5" width="90" height="120" fill="#FF961E"/>
<rect x="90.5" y="30.5" width="90" height="120" stroke="black"/>
<path d="M157.1 83.1V89.04C157.1 89.7 156.98 90.9 156.86 92.58C156.74 93.54 156.14 94.08 155.18 94.08C153.02 94.14 151.22 94.14 149.66 94.02C148.76 94.02 147.98 93.66 147.38 93.06C146.78 92.46 146.42 91.74 146.42 90.9C146.36 87.96 146.36 84.24 146.42 79.74C146.42 79.08 146.48 77.52 146.54 75.12C146.6 72.72 146.66 71.04 146.72 70.14C146.72 68.94 147.14 68.16 147.98 67.68C148.16 67.56 148.52 67.38 149.06 67.08C149.6 66.84 150.02 66.6 150.32 66.48C150.56 66.36 150.92 66.24 151.4 66.06C151.88 65.88 152.3 65.76 152.72 65.7C153.14 65.64 153.56 65.64 154.04 65.64C154.76 65.7 155.3 65.76 155.66 65.88C156.5 66.24 156.92 66.84 156.92 67.74C156.92 69.42 157.04 71.58 157.34 74.1C157.4 74.58 157.76 74.88 158.48 74.94C161.36 75.18 162.98 75.3 163.34 75.36C164.18 75.6 164.72 76.26 164.84 77.46C165.02 79.26 164.72 80.88 163.88 82.26C163.64 82.68 162.92 82.98 161.84 83.1H157.1ZM119.6 107.34C119.48 107.34 119.18 107.4 118.7 107.4C118.22 107.46 117.86 107.46 117.68 107.46C117.44 107.46 117.2 107.46 116.84 107.4C116.48 107.34 116.18 107.22 116.06 107.1C115.88 106.98 115.7 106.74 115.52 106.44C115.34 106.14 115.22 105.78 115.22 105.3C115.16 105.06 115.1 104.58 114.98 103.92C114.86 103.32 114.8 102.78 114.8 102.3C114.8 101.7 114.86 101.04 115.04 100.44C115.04 100.2 115.22 99.9 115.58 99.6C115.94 99.36 116.3 99.18 116.72 99.18C122 99.18 127.4 99.18 132.92 99.24C132.68 99.12 132.44 98.88 132.14 98.58C131.78 98.34 131.6 98.16 131.54 98.1C130.28 97.26 129.02 96.12 127.76 94.68C127.4 94.32 126.8 93.72 125.96 92.94C125.12 92.22 124.46 91.56 123.98 90.96C123.74 90.72 123.56 90.48 123.44 90.36C123.32 90.24 123.14 90.24 123.02 90.24C122.84 90.24 122.72 90.3 122.72 90.3C122.66 90.3 122.54 90.48 122.36 90.72C122.12 90.96 122 91.14 121.88 91.26C121.22 91.98 120.2 93 118.88 94.32C117.5 95.7 116.48 96.72 115.88 97.38C115.28 97.98 114.8 98.28 114.32 98.28C113.84 98.28 113.3 97.92 112.82 97.32C112.04 96.48 111.2 95.82 110.24 95.28C109.64 94.98 109.16 94.68 108.92 94.38C108.62 94.14 108.44 93.72 108.38 93.24C108.32 92.76 108.5 92.28 108.98 91.68C109.22 91.32 109.58 90.72 110.06 89.82C110.54 88.92 110.96 88.26 111.32 87.78C112.28 86.46 113.42 85.26 114.62 84.18C116.54 82.44 117.56 80.04 117.74 77.04C117.8 75.84 117.74 74.34 117.62 72.54C117.44 70.74 117.26 69.9 117.02 69.9C117.02 69.42 117.08 69.18 117.14 69.18C117.74 68.88 118.16 68.64 118.46 68.52C118.7 68.4 119.12 68.22 119.72 67.98C120.26 67.74 120.74 67.62 121.1 67.56C121.46 67.5 121.94 67.44 122.48 67.44C123.02 67.44 123.56 67.5 124.04 67.62C124.52 67.74 125.18 67.92 126.14 68.1C127.1 68.34 127.76 68.46 128.24 68.58C129.5 68.94 130.04 69.78 129.92 71.1C129.8 72.54 129.56 74.16 129.26 76.08C128.96 78 128.78 79.56 128.66 80.82C128.66 80.94 128.48 81.78 128.24 83.4C129.02 84.06 130.46 85.02 132.62 86.22C134.72 87.42 135.86 88.08 136.04 88.2C137 88.8 137.72 89.34 138.26 89.76C138.74 90.18 139.22 90.66 139.58 91.26C139.94 91.86 140.12 92.46 140 93.18C139.88 93.9 139.46 94.68 138.86 95.52C137.42 97.44 136.28 98.7 135.38 99.24C142.7 99.36 147.8 99.54 150.68 99.72C152 99.84 153.02 99.96 153.8 100.2C154.7 100.56 155.24 100.98 155.42 101.52C155.6 102.36 155.72 103.2 155.72 104.04C155.72 105.06 155.54 106.26 155.3 107.64C154.82 109.98 153.62 111.66 151.64 112.62C150.56 113.16 148.58 113.58 145.76 113.82C144.74 113.94 143.3 114 141.38 114C139.46 114.06 138.14 114.12 137.36 114.18C137.24 114.18 135.08 114.24 130.94 114.3C126.74 114.36 124.46 114.42 124.04 114.54L124.1 116.16C124.82 116.16 127.52 116.16 132.2 116.04C136.88 115.98 139.64 115.92 140.36 115.92C141.98 115.92 143.42 115.92 144.68 115.86C145.52 115.86 146.84 115.8 148.58 115.68C150.26 115.56 151.52 115.5 152.36 115.44H152.48C153.56 115.44 154.16 115.86 154.16 116.7V117C153.8 118.86 153.5 120.3 153.26 121.26C152.96 122.22 152.48 122.88 151.82 123.24C151.16 123.6 150.08 123.78 148.52 123.78H147.8C146.24 123.78 144.02 123.66 141.2 123.48C138.38 123.3 136.4 123.18 135.26 123.06C133.46 123 131.9 123 130.52 123.06C129.14 123.18 127.58 123.18 125.9 123.06C124.22 123 122.72 122.82 121.4 122.52C119.6 122.16 118.34 121.56 117.62 120.6C116.9 119.64 116.48 118.38 116.24 116.76C116.18 116.52 116.18 115.86 116.18 114.66C116.18 114.6 116.18 114.12 116.24 113.28C116.24 112.02 116.6 111.12 117.2 110.64C117.8 110.16 118.82 109.92 120.38 109.86C126.14 109.74 133.76 109.44 143.3 109.02C144.5 109.02 145.1 108.6 145.1 107.76V107.46C145.04 107.22 145.04 106.98 145.04 106.74V106.44C145.04 106.32 144.74 106.26 144.14 106.26C143.54 106.26 142.46 106.26 140.9 106.32C139.34 106.38 137.72 106.44 135.98 106.56C134.24 106.68 131.78 106.8 128.66 106.92C125.54 107.1 122.48 107.22 119.6 107.34Z" fill="white"/>
<rect x="450.5" y="30.5" width="90" height="120" fill="#FF961E"/>
<rect x="450.5" y="30.5" width="90" height="120" stroke="black"/>
<path d="M484.7 117.96C479.48 117.9 475.16 116.1 471.68 112.5C470.48 111.3 469.64 109.26 469.28 106.38C468.68 102.42 468.38 98.88 468.44 95.82C468.44 90.54 469.58 85.44 471.86 80.52C472.04 80.1 472.22 79.8 472.4 79.62C475.52 76.5 477.5 74.58 478.34 73.86C478.52 73.68 478.76 73.56 479.06 73.44C479.3 73.38 479.66 73.32 480.14 73.26C480.56 73.2 480.86 73.14 481.04 73.14C483.74 72.54 486.32 72.72 488.72 73.68C491.12 74.64 493.64 76.2 496.16 78.24C497.18 79.2 498.02 80.04 498.62 80.82C499.22 81.6 499.64 82.5 499.88 83.52C500.12 84.72 500.24 85.8 500.36 86.7C500.48 86.1 500.72 85.38 501.08 84.6C502.04 82.44 503.72 81.48 506.18 81.6C506.54 81.66 507.02 81.66 507.5 81.6C507.98 81.6 508.52 81.54 509.18 81.42C509.78 81.36 510.32 81.3 510.68 81.3V75.72V74.7V73.62C510.68 71.58 510.86 70.26 511.34 69.72C511.82 69.18 513.08 68.76 515.18 68.46C515.42 68.46 516.14 68.22 517.34 67.8C518.9 67.2 520.16 67.26 521 67.86C521.84 68.52 522.26 69.66 522.26 71.34C522.2 73.8 522.02 80.46 521.72 91.26C521.42 100.98 521.18 108 521.06 112.26C520.94 113.46 520.76 114.6 520.52 115.74C519.92 117.78 518.84 118.8 517.28 118.74C516.92 118.74 516.32 118.68 515.54 118.68C514.7 118.68 514.04 118.68 513.44 118.68C512.84 118.68 512.24 118.62 511.7 118.5C511.16 118.44 510.74 118.2 510.44 117.78C510.08 117.42 509.96 116.88 510.02 116.16C510.08 115.32 510.14 113.7 510.2 111.42C510.26 109.14 510.32 107.88 510.32 107.52C510.32 107.28 510.38 106.86 510.38 106.14C510.32 105.18 509.78 104.82 508.76 105C507.32 105.24 505.52 105.54 503.36 105.84C502.76 105.96 502.34 105.84 501.98 105.54C501.62 105.24 501.44 104.82 501.56 104.34C501.8 102 502.22 99.84 502.82 97.86C502.82 97.8 502.88 97.74 503 97.62C503.12 97.56 503.24 97.5 503.48 97.44C503.66 97.38 503.84 97.32 503.96 97.26C504.08 97.26 504.32 97.2 504.56 97.14C504.8 97.08 504.98 97.02 505.1 97.02C505.46 96.96 506.06 96.84 506.9 96.72C507.74 96.6 508.34 96.42 508.82 96.3C509.06 96.3 509.36 96.24 509.84 96.12C510.26 96.06 510.56 96 510.74 95.94C510.92 95.88 511.16 95.76 511.4 95.64C511.64 95.52 511.76 95.34 511.82 95.1C511.88 94.86 511.94 94.56 511.94 94.2C511.88 93.96 511.88 92.64 511.88 90.12C507.8 90.42 505.58 90.54 505.22 90.54L504.14 90.72C503.66 90.84 503.24 90.9 503 90.9C502.7 90.96 502.4 90.9 502.04 90.78C501.68 90.66 501.38 90.42 501.14 90.06C500.78 89.64 500.54 89.22 500.42 88.74C500.42 89.16 500.36 89.58 500.36 89.94C500 94.02 499.34 98.46 498.5 103.32C497.48 109.02 494.84 113.22 490.52 115.86C487.88 117.54 485.9 118.2 484.7 117.96ZM491.24 92.94C491.18 92.82 491.12 92.46 491.06 91.98C490.94 91.5 490.88 91.14 490.82 90.9C490.76 90.72 490.7 90.42 490.58 90.06C490.46 89.7 490.34 89.4 490.16 89.1C489.98 88.86 489.8 88.56 489.56 88.32C488.12 86.82 486.56 86.22 484.88 86.52C483.14 86.88 481.94 88.02 481.22 90C480.32 92.28 480.08 94.32 480.44 96.12C480.56 96.84 480.68 97.98 480.86 99.48C481.04 101.04 481.22 102.18 481.4 102.96C481.58 103.86 482.12 104.64 483.08 105.3C483.98 105.96 484.88 106.26 485.84 106.26C486.5 106.26 487.16 106.02 487.88 105.48C488.54 105 488.96 104.34 489.14 103.5C489.26 102.84 489.98 99.3 491.24 92.94Z" fill="white"/>
<rect x="180.5" y="30.5" width="90" height="120" fill="#FF961E"/>
<rect x="180.5" y="30.5" width="90" height="120" stroke="black"/>
<path d="M247.1 83.1V89.04C247.1 89.7 246.98 90.9 246.86 92.58C246.74 93.54 246.14 94.08 245.18 94.08C243.02 94.14 241.22 94.14 239.66 94.02C238.76 94.02 237.98 93.66 237.38 93.06C236.78 92.46 236.42 91.74 236.42 90.9C236.36 87.96 236.36 84.24 236.42 79.74C236.42 79.08 236.48 77.52 236.54 75.12C236.6 72.72 236.66 71.04 236.72 70.14C236.72 68.94 237.14 68.16 237.98 67.68C238.16 67.56 238.52 67.38 239.06 67.08C239.6 66.84 240.02 66.6 240.32 66.48C240.56 66.36 240.92 66.24 241.4 66.06C241.88 65.88 242.3 65.76 242.72 65.7C243.14 65.64 243.56 65.64 244.04 65.64C244.76 65.7 245.3 65.76 245.66 65.88C246.5 66.24 246.92 66.84 246.92 67.74C246.92 69.42 247.04 71.58 247.34 74.1C247.4 74.58 247.76 74.88 248.48 74.94C251.36 75.18 252.98 75.3 253.34 75.36C254.18 75.6 254.72 76.26 254.84 77.46C255.02 79.26 254.72 80.88 253.88 82.26C253.64 82.68 252.92 82.98 251.84 83.1H247.1ZM217.28 97.38C212.78 97.5 208.7 96.54 204.98 94.38C202.7 93.12 201.14 91.02 200.42 88.02C199.46 84.42 199.34 81.54 200.06 79.26C200.42 78.06 201.02 76.92 201.8 75.84C203.3 73.8 204.62 72.24 205.76 71.16C207.44 69.6 209.66 69 212.3 69.3C215.72 69.78 219.38 71.16 223.22 73.44C225.38 74.76 226.7 76.68 227.18 79.32C227.84 83.52 227.9 86.94 227.3 89.52C226.7 92.1 225.56 94.08 223.82 95.52C222.08 96.96 219.92 97.62 217.28 97.38ZM210.74 84.54C211.46 86.94 211.94 88.32 212.12 88.56C212.24 88.8 212.42 89.1 212.72 89.34C213.02 89.58 213.26 89.7 213.5 89.64C214.82 89.52 215.96 89.22 216.86 88.62C217.7 88.02 218.3 87.24 218.54 86.22C218.78 85.2 218.54 84 217.82 82.56C216.74 80.4 215.06 79.68 212.78 80.34C211.46 80.76 210.8 82.14 210.74 84.54ZM237.92 98.46C238.04 98.34 238.28 98.22 238.52 98.16C238.76 98.16 239 98.16 239.24 98.28C239.48 98.4 239.72 98.46 239.96 98.58C240.14 98.7 240.38 98.82 240.62 98.94C240.86 99.12 241.04 99.24 241.1 99.24C241.34 99.42 242.48 100.08 244.4 101.28C244.88 101.58 245.12 102 245.12 102.54C245.12 102.78 245.06 102.96 245 103.14C244.76 103.62 244.34 104.28 243.62 105.06C242.9 105.9 242.42 106.5 242.24 106.98C243.92 108.06 245.36 109.08 246.68 110.04C247.16 110.46 247.7 111 248.42 111.66C249.14 112.38 249.62 112.92 249.86 113.34C249.92 113.46 249.98 113.52 250.1 113.64C250.22 113.76 250.28 113.88 250.34 113.94C250.4 114 250.46 114.06 250.46 114.12C250.46 114.3 250.34 114.54 250.22 114.78C250.04 115.08 249.98 115.26 249.98 115.26C249.8 115.62 249.62 115.92 249.44 116.16C248.72 117 248 117.72 247.22 118.32C247.1 118.44 246.92 118.62 246.68 118.98C246.38 119.34 246.14 119.52 245.9 119.52C245.3 119.52 244.52 119.16 243.44 118.38C241.94 117.3 240.5 116.16 239.06 115.02C236.78 118.08 235.22 120.18 234.38 121.32C233.66 122.22 232.82 122.64 231.98 122.64C231.38 122.64 230.78 122.46 230.06 121.98C229.1 121.38 227.84 120.66 226.28 119.7C226.22 119.82 226.22 119.88 226.22 119.88C225.56 121.32 224.6 122.04 223.4 122.04C222.86 122.04 222.32 121.92 221.84 121.56C221.36 121.26 220.64 120.72 219.68 120C218.72 119.28 218.06 118.8 217.58 118.44C216.14 117.54 214.58 116.58 212.9 115.62C212.66 115.5 212.24 115.38 211.7 115.2C211.16 115.86 210.74 116.34 210.5 116.7C210.26 117 209.78 117.66 209.06 118.68C208.34 119.76 207.74 120.54 207.32 121.08C207.08 121.44 206.6 121.86 205.94 122.34C205.34 122.82 204.8 123 204.2 123C203.6 123 203.06 122.82 202.58 122.34C202.4 122.28 201.92 122.1 201.08 121.74C200.24 121.38 199.76 121.14 199.64 121.02C199.04 120.78 198.62 120.48 198.38 120.18C197.96 119.7 197.78 119.16 197.78 118.56C197.78 118.2 197.84 117.84 198.08 117.42C198.2 117.06 198.38 116.7 198.74 116.22C200.42 113.76 201.8 111.84 202.76 110.4C204.5 107.88 205.82 105.96 206.72 104.7C207.62 103.44 208.52 102.24 209.48 101.16C209.54 101.1 209.66 100.98 209.78 100.8C209.9 100.68 210.02 100.56 210.08 100.5C210.08 100.44 210.14 100.32 210.26 100.2C210.38 100.08 210.44 100.02 210.5 100.02C210.5 100.02 210.56 99.96 210.68 99.84C210.8 99.78 210.86 99.72 210.92 99.72C210.92 99.72 210.98 99.72 211.1 99.66C211.22 99.66 211.28 99.6 211.4 99.6H211.7C211.82 99.6 212 99.66 212.24 99.72C212.42 99.84 212.6 99.9 212.78 100.02C212.9 100.14 213.08 100.26 213.32 100.38C213.56 100.5 213.68 100.62 213.8 100.62C215.06 101.4 215.9 101.94 216.26 102.3C216.86 103.02 217.22 103.74 217.22 104.52C217.22 105.06 217.1 105.54 216.86 106.02C216.68 106.38 216.5 106.8 216.32 107.34C216.92 107.64 218.12 108.24 219.98 109.14C220.64 109.5 221.72 110.1 223.16 110.82C224.6 111.6 225.74 112.14 226.52 112.5C227.24 111.54 228.32 110.1 229.88 108.12C232.64 104.58 235.28 101.34 237.92 98.46Z" fill="white"/>
<rect x="270.5" y="30.5" width="90" height="120" fill="#FF961E"/>
<rect x="270.5" y="30.5" width="90" height="120" stroke="black"/>
<path d="M317 97.5C312.08 97.74 309.44 97.86 308.96 97.86C299.24 97.86 293.78 97.74 292.46 97.38C291.26 97.08 290.6 96.48 290.42 95.64C290.24 94.8 290.36 93.54 290.84 91.86C291.02 91.62 291.14 91.32 291.2 90.84C291.26 90.42 291.44 90.12 291.74 89.88C291.86 89.76 292.16 89.64 292.58 89.64H302.66C308.84 89.64 312.2 89.64 312.74 89.58C313.04 89.58 313.82 89.7 315.14 89.82C316.46 89.94 317.18 90 317.36 90C317.72 90.06 321.02 90.12 327.14 90.24C333.26 90.36 336.8 90.42 337.76 90.48C337.94 90.54 338.18 90.72 338.42 90.96C338.66 91.2 338.84 91.44 338.9 91.62C339.14 93.18 339.14 94.38 338.9 95.22C338.54 96.54 337.4 97.26 335.48 97.38C334.88 97.44 331.76 97.5 326.18 97.5C320.54 97.56 317.48 97.62 317 97.62V97.5ZM314.96 66.54C318.8 66.78 320.72 66.9 320.78 66.9C326.3 67.44 330.56 69.6 333.62 73.32C333.98 73.86 334.28 74.64 334.46 75.66C334.7 77.58 334.28 79.74 333.32 82.2C332.24 84.96 330.2 86.64 327.08 87.24C324.8 87.72 322.4 87.9 319.82 87.9C319.1 87.9 317.78 87.96 315.8 88.02C313.82 88.14 312.32 88.14 311.24 88.08C307.28 87.9 303.86 87.18 301.1 85.98C297.74 84.6 296.24 82.26 296.6 78.96C296.9 76.26 298.34 73.68 300.86 71.16C302.84 69.18 306.02 67.74 310.46 66.9C310.88 66.84 311.36 66.78 311.9 66.72C312.38 66.72 312.98 66.66 313.58 66.66C314.18 66.66 314.66 66.6 314.96 66.54ZM315.08 81.48C317.48 81.36 318.74 81.24 318.92 81.24C319.64 81.18 320.42 80.88 321.14 80.4C321.86 79.92 322.28 79.44 322.4 78.96C322.52 77.88 322.4 76.92 321.92 76.2C321.44 75.48 320.48 75 319.16 74.7C316.22 74.1 313.58 74.04 311.3 74.58C310.1 74.88 309.44 75.12 309.26 75.3C308.6 76.02 307.94 77.04 307.22 78.36C306.62 79.44 307.04 80.1 308.42 80.46C311.3 81.3 313.52 81.66 315.08 81.48ZM299.6 107.76C299.48 107.76 299.18 107.82 298.7 107.82C298.22 107.88 297.86 107.88 297.68 107.88C297.44 107.88 297.2 107.88 296.84 107.82C296.48 107.76 296.18 107.64 296.06 107.52C295.88 107.4 295.7 107.16 295.52 106.92C295.34 106.68 295.22 106.32 295.22 105.9C295.16 105.66 295.1 105.3 294.98 104.7C294.86 104.1 294.8 103.62 294.8 103.2C294.8 102.66 294.86 102.12 295.04 101.52C295.04 101.28 295.22 101.04 295.58 100.8C295.94 100.56 296.3 100.38 296.72 100.38C312.92 100.38 324.2 100.5 330.68 100.86C332 100.98 333.02 101.1 333.8 101.34C334.7 101.64 335.24 102.06 335.42 102.54C335.6 103.26 335.72 104.04 335.72 104.82C335.72 105.72 335.54 106.8 335.3 108.06C334.82 110.16 333.62 111.66 331.64 112.5C330.56 112.98 328.58 113.34 325.76 113.58C324.74 113.7 323.3 113.76 321.38 113.76C319.46 113.82 318.14 113.88 317.36 113.88C317.24 113.88 315.08 113.94 310.94 114C306.74 114.06 304.46 114.12 304.04 114.24L304.1 115.68C304.82 115.68 307.52 115.68 312.2 115.62C316.88 115.56 319.64 115.5 320.36 115.5C321.98 115.5 323.42 115.5 324.68 115.44C325.52 115.44 326.84 115.38 328.58 115.26C330.26 115.14 331.52 115.08 332.36 115.08H332.48C333.56 115.08 334.16 115.44 334.16 116.16V116.46C333.8 118.14 333.5 119.46 333.26 120.3C332.96 121.14 332.48 121.74 331.82 122.1C331.16 122.46 330.08 122.58 328.52 122.58H327.8C326.24 122.58 324.02 122.46 321.2 122.28C318.38 122.1 316.4 121.98 315.26 121.92C313.46 121.86 311.9 121.86 310.52 121.92C309.14 121.98 307.58 121.98 305.9 121.92C304.22 121.86 302.72 121.68 301.4 121.44C299.6 121.08 298.34 120.48 297.62 119.64C296.9 118.8 296.48 117.72 296.24 116.28C296.18 116.04 296.18 115.38 296.18 114.36C296.18 114.3 296.18 113.88 296.24 113.1C296.24 111.96 296.6 111.18 297.2 110.7C297.8 110.28 298.82 110.04 300.38 109.98C306.14 109.86 313.76 109.62 323.3 109.26C324.5 109.26 325.1 108.84 325.1 108.12L325.04 107.82C325.04 107.64 325.04 107.46 325.04 107.28V106.92C325.04 106.86 324.74 106.8 324.14 106.8C323.54 106.8 322.46 106.8 320.9 106.86C319.34 106.92 317.72 106.98 315.98 107.04C314.24 107.16 311.78 107.28 308.66 107.4C305.54 107.52 302.48 107.64 299.6 107.76Z" fill="white"/>
</svg>
