<svg width="91" height="121" viewBox="0 0 91 121" fill="none" xmlns="http://www.w3.org/2000/svg">
<rect x="0.5" y="0.5" width="90" height="120" fill="#FF961E"/>
<rect x="0.5" y="0.5" width="90" height="120" stroke="black"/>
<path d="M62.48 63.6C61.94 63.54 61.4 63.48 60.92 63.42C60.56 63.42 59.96 63.36 59.24 63.3C58.52 63.3 57.98 63.24 57.74 63.24C57.02 63.24 56.54 63.18 56.24 63.06C55.94 63 55.7 62.88 55.52 62.76C55.28 62.64 55.16 62.46 55.04 62.22C54.92 62.04 54.8 61.8 54.8 61.5C54.68 61.32 54.62 60.96 54.56 60.48C54.44 60.12 54.38 59.76 54.38 59.46C54.26 58.98 54.2 58.62 54.2 58.38C54.14 57.96 54.14 57.6 54.26 57.3C54.38 57 54.56 56.76 54.86 56.52C55.1 56.4 55.4 56.22 55.82 56.1C56.18 55.98 56.72 55.92 57.44 55.86C57.8 55.86 58.34 55.8 59.06 55.74C59.78 55.68 60.38 55.62 60.74 55.56C61.1 55.56 61.4 55.56 61.58 55.5C61.94 55.5 62.18 55.44 62.36 55.32C62.42 55.32 62.48 55.26 62.6 55.14C62.6 55.08 62.66 55.02 62.78 54.9C62.78 54.84 62.78 54.78 62.78 54.66C62.78 54.54 62.84 54.06 62.84 53.16V52.38V51.6V50.04C62.72 50.1 62.66 50.1 62.6 50.1H62.36C62.24 50.16 62.18 50.16 62.12 50.16C61.4 50.28 60.86 50.34 60.56 50.34C58.64 50.46 57.56 50.58 57.32 50.58C57.2 50.58 57.08 50.64 56.9 50.64C56.72 50.7 56.6 50.7 56.54 50.7C56.18 50.76 55.88 50.76 55.76 50.7C55.64 50.7 55.52 50.7 55.4 50.64C55.28 50.58 55.16 50.46 55.1 50.34C54.98 50.28 54.92 50.16 54.86 50.04C54.62 49.68 54.44 49.02 54.32 48.18C54.2 47.46 54.14 46.86 54.2 46.26C54.2 45.96 54.2 45.66 54.32 45.3C54.38 44.94 54.5 44.58 54.62 44.34C54.62 44.22 54.68 44.16 54.8 44.04C54.86 43.98 54.98 43.92 55.1 43.8C55.16 43.8 55.28 43.74 55.4 43.68C55.64 43.62 56.24 43.56 57.26 43.44C57.62 43.44 58.22 43.44 59.06 43.38C59.9 43.38 60.44 43.32 60.74 43.32C61.34 43.32 62 43.26 62.6 43.14C62.6 42.84 62.6 42.48 62.66 42C62.66 41.46 62.66 41.04 62.72 40.74C62.72 40.32 62.78 39.9 62.9 39.54C62.96 39.18 63.08 38.76 63.26 38.34C63.38 38.04 63.5 37.68 63.74 37.26C63.92 36.84 64.1 36.48 64.28 36.24C64.4 36.12 64.52 36 64.64 35.88C64.76 35.76 64.94 35.7 65.12 35.64C65.36 35.58 65.72 35.58 66.14 35.64C66.44 35.76 66.8 35.82 67.22 35.82C67.34 35.82 67.46 35.88 67.58 35.88C67.64 35.88 67.7 35.94 67.82 35.94C67.88 35.94 67.94 36 68 36C68.06 36 68.18 36.06 68.36 36.06C68.84 36.18 69.26 36.3 69.5 36.42C69.74 36.66 69.98 36.9 70.16 37.2C70.28 37.5 70.4 37.86 70.46 38.34C70.46 38.64 70.46 39.12 70.46 39.72C70.46 40.38 70.52 40.86 70.58 41.22C70.58 41.88 70.64 42.84 70.7 44.1C70.7 45.18 70.76 46.14 70.82 46.98C70.82 47.46 70.88 48 71 48.48C71.06 49.32 71.12 49.86 71.12 49.98C71.12 50.52 71.18 51 71.18 51.48C71.18 52.08 71.12 52.74 71.06 53.58C70.94 54.18 70.88 54.9 70.82 55.62C70.7 56.64 70.58 57.36 70.58 57.72C70.52 58.08 70.46 58.5 70.46 58.98C70.4 59.64 70.4 60.06 70.4 60.24C70.34 60.72 70.28 61.14 70.22 61.5C70.16 61.86 70.1 62.16 70.04 62.52C69.92 62.76 69.86 63.12 69.8 63.54C69.68 64.02 69.56 64.32 69.44 64.5C69.26 64.98 69.02 65.28 68.78 65.52C68.54 65.76 68.18 65.94 67.76 66.06C67.64 66.12 67.28 66.24 66.68 66.48C66.32 66.6 66.02 66.72 65.78 66.78C65.54 66.9 65.3 66.96 64.94 66.96C64.46 67.08 64.16 67.14 64.04 67.14C63.8 67.2 63.56 67.2 63.38 67.14C63.14 67.08 63.02 66.96 62.9 66.78C62.78 66.66 62.72 66.42 62.66 66.12C62.66 66 62.6 65.7 62.6 65.28C62.6 65.1 62.54 64.8 62.54 64.44L62.48 63.6ZM37.28 67.38C32.78 67.5 28.7 66.54 24.98 64.44C22.7 63.12 21.14 61.02 20.42 58.02C19.46 54.48 19.34 51.6 20.06 49.32C20.42 48.12 21.02 46.98 21.8 45.9C23.3 43.86 24.62 42.3 25.76 41.22C27.44 39.66 29.66 39.06 32.3 39.36C35.72 39.84 39.38 41.22 43.22 43.5C45.38 44.82 46.7 46.74 47.18 49.38C47.84 53.58 47.9 56.94 47.3 59.58C46.7 62.1 45.56 64.08 43.82 65.52C42.08 66.96 39.92 67.62 37.28 67.38ZM30.74 54.6C31.46 57 31.94 58.32 32.12 58.62C32.24 58.86 32.42 59.1 32.72 59.34C33.02 59.58 33.26 59.7 33.5 59.7C34.82 59.58 35.96 59.28 36.86 58.68C37.7 58.08 38.3 57.3 38.54 56.28C38.78 55.26 38.54 54 37.82 52.56C36.74 50.46 35.06 49.74 32.78 50.4C31.46 50.76 30.8 52.2 30.74 54.6ZM52.52 84.6C53.48 84.6 54.32 84.24 55.04 83.4C55.76 82.62 56.12 81.66 56.12 80.46C56.12 78.78 55.16 77.76 53.36 77.34C51.38 76.98 47.48 76.74 41.66 76.74H41.6C41 76.74 40.52 76.86 40.1 77.04C39.68 77.28 39.32 77.58 39.08 78C38.84 78.42 38.66 78.78 38.54 79.08C38.42 79.44 38.3 79.86 38.18 80.46C38.06 80.76 38.06 81 38.06 81.24C38.06 81.9 38.24 82.44 38.72 82.8C39.2 83.22 39.74 83.46 40.46 83.58C41.12 83.76 42.02 83.88 43.22 84C44.36 84.12 45.38 84.24 46.28 84.24C47.12 84.3 48.26 84.36 49.64 84.42C51.02 84.54 51.92 84.6 52.34 84.6H52.52ZM43.7 70.62C45.98 70.62 48.74 70.86 51.86 71.22C54.98 71.58 57.62 72.06 59.78 72.66C63.44 73.74 65.48 75.66 65.9 78.42C66.02 79.14 66.08 79.8 66.08 80.4C66.08 83.1 65 85.26 62.9 86.82C61.46 87.9 60.26 88.8 59.3 89.4C58.34 90 57.2 90.6 55.76 91.14C54.32 91.74 52.88 92.04 51.44 92.04C50.84 92.04 49.4 92.16 47.06 92.28C44.72 92.4 43.16 92.46 42.38 92.46C41.24 92.46 40.22 92.4 39.38 92.22C39.14 92.22 38.9 92.22 38.54 92.1C36.86 91.86 35.54 91.62 34.7 91.44C33.8 91.26 32.72 90.9 31.46 90.3C30.2 89.76 29.12 89.04 28.28 88.14C26.66 86.58 25.88 85.14 25.88 83.76C25.88 81 26.24 78.9 27.08 77.52C29.3 73.8 33.92 71.52 40.88 70.8C41.78 70.68 42.74 70.62 43.7 70.62Z" fill="white"/>
</svg>
