<svg width="181" height="151" viewBox="0 0 181 151" fill="none" xmlns="http://www.w3.org/2000/svg">
<rect x="0.5" y="0.5" width="90" height="120" fill="#FF961E"/>
<rect x="0.5" y="0.5" width="90" height="120" stroke="black"/>
<path d="M72.02 81.84C71.96 82.32 71.96 82.98 72.08 83.7C72.2 84.48 72.2 85.2 72.2 85.86C72.2 86.52 72.02 87.12 71.78 87.66C71.3 88.56 70.82 89.1 70.22 89.22C69.5 89.4 68.66 89.58 67.58 89.7C66.5 89.88 65.54 90 64.76 90.06C63.98 90.12 63.62 90.12 63.62 90.06H31.94C30.86 90.12 29.24 90.18 27.08 90.24C24.92 90.3 23.3 90.3 22.22 90.3C21.02 90.36 19.88 90.12 18.8 89.58L18.02 84.96L18.8 82.68C19.04 81.96 19.52 81.6 20.24 81.54L25.04 81.06C29.84 81.06 35 80.94 40.46 80.82C39.98 80.34 39.74 79.8 39.74 79.32C39.62 78.6 39.56 77.58 39.56 76.26C39.5 74.94 39.44 73.98 39.44 73.5C39.44 73.02 39.5 72.66 39.68 72.42C39.8 72.18 40.16 72.06 40.7 72.06C41.3 72.12 42.44 72.12 44 72.12C45.56 72.12 46.64 72.06 47.3 72.06C48.56 72.12 49.4 72.42 49.88 73.02C50.36 73.62 50.72 74.76 51.02 76.44C51.2 77.7 50.9 79.08 50.12 80.64C56.6 80.52 60.86 80.4 62.78 80.28C65.12 80.22 66.98 80.22 68.3 80.34C68.66 80.34 69.74 80.7 71.54 81.3C71.6 81.36 71.72 81.42 71.84 81.54C71.96 81.66 72.02 81.78 72.02 81.84ZM61.4 55.02C62.12 58.38 62.48 60.12 62.6 60.36C62.9 61.68 62.66 63.12 61.88 64.56C61.1 66.06 60.2 67.14 59.12 67.8C55.82 69.9 51.74 71.1 46.94 71.34C42.98 71.58 38.9 70.92 34.58 69.48C33.14 69.06 32.06 68.34 31.34 67.38C30.56 66.42 29.9 65.22 29.42 63.66C28.28 60.36 29.06 57.54 31.82 55.2C31.94 55.08 32.12 54.9 32.36 54.72L33.08 54.12L33.86 53.52C30.68 53.22 29 53.04 28.88 53.04C27.2 53.04 26.12 52.8 25.52 52.2C24.92 51.66 24.56 50.58 24.38 49.02C24.14 47.4 24.08 46.2 24.14 45.42C24.14 45.18 24.32 44.94 24.56 44.64C24.8 44.4 25.04 44.22 25.28 44.22C28.64 43.8 31.04 43.62 32.42 43.68C33.62 43.8 35.42 43.98 37.76 44.28C40.04 44.58 41.6 44.76 42.44 44.82C44.78 45.06 47.06 45.12 49.34 45.12C50.54 45.12 52.34 45.12 54.86 45C57.32 44.94 59.18 44.88 60.44 44.88C61.76 44.88 63.02 45.06 64.28 45.42C65.48 45.78 66.26 46.2 66.56 46.68C66.8 47.22 66.86 48.12 66.62 49.32L66.44 49.68C66.32 49.86 66.32 49.98 66.32 50.04C66.44 51.72 66.14 52.92 65.36 53.64C64.52 54.36 63.2 54.84 61.4 55.02ZM40.76 62.76C40.64 63.24 40.58 63.6 40.7 63.9C40.82 64.2 41 64.44 41.36 64.62C41.66 64.8 41.96 64.92 42.2 64.98C42.44 65.1 42.74 65.16 43.22 65.28C45.26 65.76 47.36 65.94 49.64 65.88C50.78 65.88 52.22 65.52 54.02 64.92C54.68 64.68 55.1 64.26 55.34 63.66C55.58 63.12 55.7 62.4 55.76 61.44C55.76 60.36 55.22 59.64 54.02 59.22C53.06 58.92 52.22 58.74 51.44 58.74C49.4 58.74 47.12 58.86 44.48 59.04C43.46 59.1 42.56 59.52 41.84 60.24C41.12 61.02 40.76 61.86 40.76 62.76ZM33.02 35.58H35H40.88C43.7 35.58 45.26 35.64 45.5 35.64C50.12 36.12 54.02 36.6 57.14 37.08C57.5 37.2 57.92 37.38 58.34 37.74C58.76 38.1 59.06 38.4 59.24 38.76C59.96 40.44 59.78 41.94 58.64 43.26C58.4 43.56 57.98 43.68 57.44 43.62C56.12 43.56 54.14 43.44 51.62 43.32C49.04 43.2 47.18 43.14 46.04 43.08C45.56 43.08 44.96 43.08 44.18 43.08C43.4 43.08 42.8 43.08 42.38 43.08C39.14 42.96 36.5 42.9 34.4 42.78C33.56 42.78 32.96 42.6 32.66 42.24C32.3 41.88 32.18 41.34 32.3 40.5C32.3 40.26 32.54 38.64 33.02 35.58Z" fill="white"/>
<rect x="90.5" y="30.5" width="90" height="120" fill="#FF961E"/>
<rect x="90.5" y="30.5" width="90" height="120" stroke="black"/>
<path d="M148.16 84.18C148.28 82.56 148.4 81.66 148.4 81.54C148.4 81.18 148.46 80.7 148.58 80.04C148.7 79.38 148.76 78.78 148.82 78.24C148.88 77.76 148.94 77.22 148.94 76.74C148.94 76.08 148.88 75.66 148.7 75.42C148.46 75.18 148.04 75.12 147.38 75.12C147.02 75.18 145.22 75.3 142.1 75.42C138.92 75.6 136.7 75.72 135.5 75.78C135.62 76.74 135.74 77.28 135.74 77.28V82.32C136.82 82.14 137.42 82.02 137.54 82.02C138.5 81.9 139.22 81.9 139.76 82.02C140.3 82.14 140.66 82.38 140.9 82.74C141.14 83.1 141.32 83.82 141.5 84.9C141.5 85.02 141.56 85.44 141.56 86.22C141.56 87.06 141.56 87.78 141.62 88.5C141.62 89.22 141.68 89.58 141.74 89.58C142.76 89.58 145.16 89.7 148.88 89.82C152.6 89.94 154.94 90 155.96 90L161.06 89.52C161.18 89.58 161.3 89.64 161.54 89.76C161.78 89.88 162.02 90.18 162.38 90.6C162.68 91.08 162.8 91.5 162.74 91.98C162.68 92.22 162.44 93.84 161.96 96.72C161.36 96.78 161.06 96.78 161.06 96.78C160.82 96.78 153.8 96.72 140 96.54C139.22 96.54 137.18 96.6 133.82 96.72C130.46 96.84 128.48 96.84 128 96.84C127.04 96.84 124.58 96.84 120.68 96.78C116.72 96.72 114.32 96.66 113.42 96.6C113.18 96.6 112.58 96.66 111.68 96.72C110.72 96.84 110.18 96.84 109.94 96.84C109.58 96.84 109.28 96.78 109.04 96.72C108.8 96.66 108.62 96.54 108.5 96.36C108.38 96.18 108.32 96 108.32 95.88C108.32 95.76 108.26 95.46 108.26 94.98C108.26 94.56 108.26 94.2 108.26 93.96C108.14 93.24 108.14 92.22 108.26 90.84C108.26 90.12 108.62 89.76 109.34 89.7C110.3 89.7 113.24 89.76 118.16 89.82C123.02 89.94 126.02 89.94 127.22 89.88C127.7 89.88 129.26 89.7 132.02 89.28C131.78 87.18 131.9 85.62 132.26 84.54C129.92 84.6 128.72 84.3 128.66 83.64C128.48 82.56 128.42 81.48 128.42 80.34C128.36 79.98 128.36 77.88 128.36 74.04C127.64 74.16 127.16 74.22 126.86 74.28C126.5 74.4 126.08 74.46 125.54 74.46C124.22 74.58 121.88 74.52 118.52 74.34L116.66 71.88C116.66 70.56 116.66 69.48 116.78 68.76C116.78 68.64 116.9 68.34 117.02 67.74C117.14 67.14 117.2 66.66 117.2 66.3H119.9H133.22C133.76 66.3 135.26 66.36 137.72 66.48C140.12 66.6 142.04 66.6 143.36 66.48C144.5 66.48 145.7 66.48 146.9 66.6C148.1 66.72 149.54 66.84 151.22 67.08C152.84 67.32 154.04 67.44 154.76 67.5C155.6 67.62 155.96 68.1 155.9 69C155.78 69.72 155.66 70.8 155.48 72.18C155.3 73.62 155.18 74.64 155.18 75.3C155.12 75.66 154.94 77.22 154.7 79.86C154.52 81.6 154.4 82.5 154.4 82.56C154.22 83.52 153.44 84.06 152 84.18H148.16ZM133.04 114C137.48 114 140.06 113.94 140.9 113.82C141.62 113.7 142.16 113.64 142.52 113.58C142.82 113.52 143.06 113.4 143.24 113.22C143.36 113.1 143.42 112.92 143.42 112.8C143.42 112.68 143.36 112.44 143.36 112.02C143.36 111.66 143.36 111.24 143.42 110.88V110.64C143.42 110.22 143.3 109.92 143.06 109.74C142.82 109.56 142.34 109.44 141.68 109.44H127.22V113.22C129.32 113.76 131.24 114 133.04 114ZM125.6 101.58H126.62H127.64C134.06 101.58 138.86 101.46 142.04 101.1C142.94 101.04 143.84 100.98 144.68 100.98C148.52 100.98 151.88 101.94 154.82 103.74C155.54 104.22 156.08 104.94 156.56 105.9C157.04 106.86 157.28 107.82 157.28 108.78C157.28 109.26 157.22 109.62 157.16 109.98C156.92 110.7 156.68 111.42 156.38 112.26C156.02 113.1 155.78 113.82 155.66 114.42C155.24 115.92 154.82 117.12 154.4 117.96C154.16 118.44 153.62 118.74 152.78 118.98C148.52 120.18 143.96 120.78 139.04 120.78C134.12 120.78 131.06 120.66 129.74 120.42C123.02 119.34 119.06 118.62 117.98 118.38C117.56 118.32 117.14 118.08 116.78 117.66C116.36 117.24 116.06 116.82 115.88 116.34C115.76 116.04 115.7 115.62 115.7 115.08C115.7 114.9 115.7 114.6 115.76 114.18C115.76 113.82 115.82 113.52 115.82 113.4C115.88 112.02 116 110.4 116.24 108.48C116.6 105.72 117.44 103.92 118.82 102.96C120.2 102.06 122.48 101.58 125.6 101.58Z" fill="white"/>
</svg>
