<svg width="451" height="181" viewBox="0 0 451 181" fill="none" xmlns="http://www.w3.org/2000/svg">
<rect x="90.5" y="0.5" width="90" height="120" fill="#FF961E"/>
<rect x="90.5" y="0.5" width="90" height="120" stroke="black"/>
<path d="M152.18 68.64C151.76 68.76 151.46 68.82 151.22 68.88C150.98 69 150.68 69.06 150.32 69.06C149.72 69.18 149.24 69.36 148.94 69.6C148.64 69.9 148.52 70.38 148.52 71.1C148.52 71.94 148.52 74.1 148.52 77.64C148.52 81.18 148.52 83.34 148.58 84.18C148.58 85.86 147.98 86.88 146.72 87.3C146.42 87.42 146 87.54 145.52 87.78C144.98 88.02 144.56 88.2 144.32 88.26C143 88.74 141.98 88.26 141.32 86.82C140.24 84.54 139.52 81.54 139.22 77.76C139.1 76.62 139.04 74.82 139.04 72.42C139.04 70.02 138.98 68.16 138.92 66.96C138.14 59.04 138.2 51.84 139.1 45.24C139.1 45.12 139.1 44.88 139.16 44.58C139.16 44.28 139.22 44.04 139.22 43.92C139.22 43.8 139.28 43.68 139.34 43.44C139.34 43.2 139.4 43.08 139.52 42.96C139.58 42.84 139.7 42.72 139.82 42.6C139.94 42.48 140.06 42.3 140.24 42.18C140.42 42.06 140.66 42 140.9 41.88C142.22 41.34 143.9 40.92 146.06 40.62C147.26 40.44 147.98 41.1 148.22 42.6C148.28 43.2 148.4 44.88 148.52 47.52C148.52 47.88 148.58 49.38 148.58 51.9C148.58 54.48 148.64 56.1 148.7 56.7C148.76 57.54 149.06 58.2 149.54 58.56C150.02 58.92 150.68 59.04 151.52 58.92C151.76 58.92 151.94 58.86 152 58.74C152.06 58.68 152.24 58.68 152.54 58.68C153.08 58.74 153.5 58.62 153.74 58.38C153.98 58.14 154.04 57.66 154.04 57.06C154.04 49.32 153.98 45.06 153.98 44.34C153.92 43.26 154.34 42.66 155.24 42.54C157.76 42.3 159.62 42.18 160.82 42.18C161.06 42.18 161.3 42.24 161.54 42.36C161.72 42.48 161.84 42.72 161.96 42.96C162.08 43.2 162.14 43.44 162.14 43.56C162.14 43.68 162.2 43.98 162.2 44.34C162.2 44.76 162.26 45 162.26 45C162.26 45.06 162.38 48 162.62 53.82C162.62 54.18 162.62 55.38 162.74 57.36C162.86 59.4 162.92 60.9 162.92 61.98C162.92 63.9 162.92 70.2 162.86 80.76C162.86 82.08 162.62 83.16 162.14 83.88C161.66 84.6 160.88 85.2 159.8 85.56C159.2 85.74 158.36 85.98 157.22 86.22C155.66 86.58 154.82 85.92 154.58 84.18V83.58C154.82 81.72 154.7 79.14 154.22 75.78C153.74 72.42 153.02 70.08 152.18 68.64ZM114.92 65.58C114.44 65.52 113.9 65.4 113.24 65.28C112.58 65.16 111.98 65.04 111.5 64.92C110.96 64.8 110.48 64.74 110.06 64.62C109.1 64.5 108.62 64.02 108.56 63.18C108.32 61.02 108.08 58.44 107.72 55.32C108.2 55.32 108.8 55.2 109.58 55.08C110.3 54.96 110.96 54.9 111.44 54.78C111.92 54.72 112.46 54.66 113.06 54.66C113.66 54.66 114.26 54.72 114.86 54.84C115.4 54.96 115.82 54.96 116.12 54.96C116.36 54.96 116.78 54.96 117.38 54.84C117.92 54.78 118.34 54.72 118.64 54.72C119 54.72 119.54 54.72 120.38 54.72C121.16 54.72 121.76 54.66 122.24 54.66C122.66 54.66 124.16 54.54 126.68 54.36C129.2 54.24 131.18 54.12 132.56 54.06C134.12 54.06 135.14 54.24 135.5 54.66C135.86 55.14 135.92 56.22 135.8 58.02C135.62 60.06 135.32 61.74 134.9 63.12C134.84 63.3 134.72 63.48 134.54 63.6C134.3 63.78 134.06 63.96 133.76 64.14C133.46 64.32 133.28 64.44 133.16 64.5C133.28 65.22 133.64 66.36 134.18 67.86C134.66 69.36 135.08 70.68 135.32 71.88C135.56 73.08 135.62 74.28 135.56 75.48C135.2 79.98 133.52 83.34 130.64 85.56C129.44 86.52 127.94 86.82 126.14 86.58C123.86 86.34 120.32 85.62 115.52 84.48C112.52 83.82 110.84 81.66 110.42 78.06C109.88 73.44 111.02 69.72 113.78 66.96C113.78 66.96 114.14 66.48 114.92 65.58ZM122.9 79.02C125.78 79.02 127.7 77.76 128.54 75.24C128.78 74.46 128.72 73.56 128.36 72.48C128 71.46 127.58 70.92 126.98 70.86C124.7 70.56 122.96 70.44 121.76 70.56C120.38 70.68 119.36 71.22 118.7 72.06C118.04 72.9 117.74 74.1 117.86 75.54C117.86 76.68 118.1 77.34 118.58 77.52C119 77.76 120.44 78.24 122.9 79.02ZM128.18 50.52C124.82 52.08 121.58 52.44 118.58 51.66C116.72 51.18 115.16 50.46 113.96 49.5C113.72 49.38 113.6 49.14 113.48 48.78C113.36 48.48 113.3 48.06 113.24 47.52C113.12 46.98 113.06 46.62 113.06 46.38C112.82 45.54 112.7 45 112.64 44.64C112.52 44.28 112.52 43.98 112.64 43.74C112.7 43.5 113 43.38 113.48 43.38C113.9 43.38 114.5 43.2 115.34 42.96C116.18 42.72 116.78 42.6 117.14 42.54C121.1 42.06 124.04 41.82 125.84 41.76C126.08 41.76 126.32 41.82 126.56 41.94C126.74 42.06 126.92 42.24 127.04 42.48C127.16 42.72 127.22 42.96 127.28 43.14C127.28 43.38 127.34 43.62 127.4 43.98C127.46 44.34 127.52 44.58 127.52 44.7C127.64 45.3 127.7 45.84 127.82 46.44C127.88 47.04 127.94 47.82 128 48.66C128.06 49.5 128.12 50.16 128.18 50.52Z" fill="white"/>
<rect x="0.5" y="0.5" width="90" height="120" fill="#FF961E"/>
<rect x="0.5" y="0.5" width="90" height="120" stroke="black"/>
<path d="M35.6 46.92C33.44 46.44 30.74 46.5 27.5 47.1C24.26 47.7 21.98 48 20.78 47.94C21.2 44.34 21.5 41.76 21.74 40.2C24.92 39.78 26.6 39.54 26.84 39.54C32.24 39.24 35.72 39.12 37.4 39.18C38.24 39.24 39.08 39.36 39.92 39.48C40.76 39.66 41.84 39.9 43.16 40.2C44.42 40.56 45.26 40.74 45.74 40.8C47.18 41.16 47.72 42.18 47.24 43.8C46.76 45.42 46.4 46.56 46.16 47.28C45.92 48 45.44 48.9 44.84 50.1C44.24 51.3 43.52 52.26 42.68 53.04C42.44 53.28 42.14 53.58 41.78 53.94C41.36 54.3 41.06 54.6 40.94 54.72C40.82 54.84 40.64 55.02 40.52 55.26C40.4 55.5 40.34 55.74 40.4 55.86C40.46 56.04 40.58 56.22 40.82 56.46C41 56.7 41.3 56.94 41.72 57.18C41.96 57.36 42.32 57.72 42.92 58.2C43.46 58.68 43.82 59.04 43.94 59.22C44.48 60 45.2 60.78 46.04 61.62C46.88 62.46 47.54 63.24 48.08 64.02C49.04 65.46 48.86 66.54 47.42 67.26C46.94 67.56 46.28 67.98 45.44 68.58C44.6 69.18 44 69.54 43.7 69.72C43.4 69.96 43.16 70.08 42.92 70.14C42.68 70.2 42.38 70.2 42.08 70.08C41.78 69.96 41.6 69.9 41.48 69.84C41.36 69.84 41.12 69.66 40.7 69.36C40.28 69.12 40.04 68.94 39.98 68.88C39.68 68.76 39.5 68.64 39.44 68.52C39.32 68.4 39.26 68.34 39.26 68.28C39.26 68.22 39.14 68.04 38.96 67.8C38.72 67.56 38.42 67.2 38 66.78C37.82 66.66 37.52 66.3 37.04 65.64C36.56 65.04 36.08 64.5 35.72 64.14C34.52 62.94 33.2 62.4 31.76 62.4C30.32 62.4 28.58 63.12 26.42 64.56C25.22 65.34 23.96 66.36 22.64 67.62C21.44 68.7 20.72 68.46 20.36 66.96C19.58 63.84 19.16 61.92 19.04 61.14C18.8 59.82 18.98 58.62 19.58 57.6C20.18 56.64 21.2 55.92 22.58 55.44C24.62 54.84 26.54 54 28.28 52.8C29.96 51.6 31.94 50.04 34.22 48.06C34.22 48.06 34.7 47.7 35.6 46.92ZM71.9 64.44C71.84 66.96 71.24 68.7 70.1 69.66C69.62 70.02 69.02 70.32 68.3 70.44C67.58 70.56 66.92 70.62 66.38 70.56H65.6L64.28 70.2C63.44 70.02 63.08 69.48 63.08 68.64V58.68C62 58.92 60.8 59.04 59.54 59.16C57.2 59.4 55.82 58.86 55.4 57.54C54.5 55.02 55.1 52.5 57.26 49.98C57.38 49.86 57.62 49.74 58.04 49.62C58.4 49.56 59 49.5 59.84 49.44C60.62 49.38 61.1 49.32 61.28 49.26C61.34 49.26 61.88 49.32 62.84 49.44C62.72 46.26 62.72 42.84 62.72 39.18C62.72 38.4 62.96 37.74 63.56 37.2C64.1 36.72 64.82 36.42 65.66 36.42L69.92 36.84L70.52 37.32C70.76 37.5 71.06 37.86 71.54 38.4C71.96 38.94 72.2 39.48 72.2 39.96V48.9C72.14 48.9 72.08 49.86 72.08 51.78C72.08 53.7 72.02 56.04 72.02 58.74C71.96 61.5 71.9 63.36 71.9 64.44ZM42.44 80.58C50.6 80.1 55.22 79.86 56.24 79.74C57.26 79.68 58.46 79.56 59.9 79.44C61.34 79.32 62.54 79.2 63.5 79.08C64.46 78.96 65.3 78.9 65.9 78.9C66.68 78.9 67.28 79.92 67.64 81.84C67.7 82.26 67.76 83.1 67.76 84.3C67.76 85.68 67.4 87.06 66.68 88.5C66.44 88.92 65.9 89.22 65.06 89.34C64.22 89.46 61.4 89.64 56.6 89.88C51.8 90.12 48.98 90.3 48.08 90.42C47.84 90.48 47.66 90.48 47.42 90.48C46.4 90.48 44.24 90.54 40.94 90.6C37.64 90.66 35.24 90.72 33.74 90.78C33.38 90.78 32.72 90.84 31.88 90.9C31.04 90.96 30.38 90.96 29.96 90.96C28.58 90.96 27.44 90.72 26.6 90.18C26.3 90.06 26.06 89.76 25.82 89.4C25.58 89.04 25.52 88.74 25.52 88.38C25.34 86.64 25.22 84.18 25.1 80.94C24.98 77.7 24.86 75.48 24.8 74.22L24.74 73.38C24.74 72.78 24.74 72.24 24.74 71.64L24.68 70.8C24.8 70.8 25.1 70.74 25.64 70.62C26.18 70.5 26.54 70.38 26.72 70.32C27.14 70.26 28.1 70.2 29.6 70.2C31.34 70.2 32.42 70.32 32.9 70.44C33.38 70.62 33.62 70.92 33.62 71.34C33.62 71.52 33.68 71.94 33.8 72.54C33.92 73.14 34.04 73.56 34.04 73.74C34.04 74.4 34.16 75.6 34.52 77.4C34.52 77.64 34.58 78.18 34.7 78.96C34.76 79.74 34.88 80.4 35.06 81L42.44 80.58Z" fill="white"/>
<rect x="180.5" y="0.5" width="90" height="120" fill="#FF961E"/>
<rect x="180.5" y="0.5" width="90" height="120" stroke="black"/>
<path d="M211.46 61.38C211.82 61.38 212.84 61.32 214.46 61.32H218.96H221.96C229.28 61.2 233.54 61.2 234.68 61.2C235.76 61.2 238.22 61.32 242 61.5C245.72 61.68 247.7 61.8 247.94 61.8C248.12 61.8 248.48 61.86 249.02 61.98C249.86 62.22 250.4 62.52 250.7 62.88C251 63.24 251.12 63.84 251 64.68C250.94 65.04 250.88 65.28 250.88 65.52C250.82 65.76 250.76 66 250.76 66.18C250.7 66.42 250.64 66.6 250.52 66.72C250.4 66.84 250.28 66.96 250.28 67.08C250.22 67.2 250.1 67.32 249.92 67.44C249.68 67.56 249.56 67.62 249.44 67.68C249.32 67.74 249.14 67.8 248.84 67.86C248.54 67.98 248.3 68.04 248.18 68.04C248.06 68.1 247.76 68.16 247.34 68.28C246.86 68.4 246.56 68.46 246.32 68.52C245.84 68.64 243.32 68.76 238.64 68.88C233.96 69.06 231.38 69.24 230.9 69.36C230.72 69.42 230.6 69.6 230.6 69.9C230.6 70.2 230.6 70.56 230.6 70.92C230.6 71.28 230.6 71.7 230.6 72.06C230.6 72.18 230.6 72.42 230.66 72.78C230.72 73.14 230.72 73.38 230.6 73.38C229.88 74.4 228.68 74.94 226.88 75C225.08 75.06 223.7 74.64 222.74 73.8C222.38 73.56 222.2 73.32 222.14 73.08C221.96 72.72 221.84 72.24 221.84 71.64C221.84 71.04 221.78 70.56 221.66 70.2C221.54 69.84 221.3 69.66 220.88 69.54C220.28 69.48 217.82 69.42 213.5 69.3C209.18 69.18 206.66 69.18 205.94 69.18C204.98 69.42 204.2 69.48 203.54 69.36C202.88 69.3 202.4 68.88 202.1 68.1C201.5 66.78 201.32 65.28 201.56 63.66C201.62 63.3 201.98 62.88 202.58 62.46C203.18 62.1 204.56 61.74 206.78 61.5C208.94 61.26 210.5 61.26 211.46 61.38ZM229.04 45.06H218.6C217.94 45.06 216.86 45 215.36 45C213.86 45 212.48 44.94 211.28 44.94C210.02 44.94 209.3 44.94 209.06 44.88C207.98 44.82 207.38 44.28 207.38 43.32C207.32 42.84 207.32 41.94 207.38 40.68C207.44 39.42 207.5 38.58 207.5 38.16C207.74 38.16 208.22 38.04 208.88 37.92C209.48 37.8 210.08 37.74 210.56 37.68C211.04 37.62 211.52 37.56 212 37.56C214.52 37.56 217.94 37.62 222.32 37.74C223.1 37.8 224.24 37.86 225.74 37.98C227.24 38.1 228.32 38.1 229.04 38.1C229.64 38.16 230.78 38.22 232.58 38.22C234.32 38.28 235.7 38.34 236.66 38.34C237.68 38.46 239.24 38.7 241.34 39.18C242 39.3 242.42 39.6 242.6 39.96C242.72 40.38 242.78 40.86 242.72 41.46C242.42 43.38 242.12 44.7 241.88 45.42C241.52 46.26 240.92 47.04 240.02 47.76C239.72 48 239.36 48.24 239 48.48C238.58 48.72 238.1 48.96 237.62 49.2C237.08 49.5 236.72 49.68 236.48 49.8C240.68 52.5 243.08 54.06 243.74 54.42C244.1 54.66 244.34 54.9 244.4 55.08C244.4 55.26 244.34 55.5 244.1 55.8C243.86 56.16 243.5 56.64 243.08 57.3C242.66 58.02 242.36 58.5 242.18 58.8C241.7 59.4 240.92 59.82 239.84 60.06C238.76 60.3 237.74 60.3 236.78 60.06C236.18 59.94 235.52 59.76 234.86 59.46C234.2 59.22 233.66 58.98 233.24 58.74C232.82 58.5 232.28 58.2 231.56 57.78C230.84 57.36 230.3 57.06 230 56.82C229.04 56.34 228.02 55.86 226.94 55.5C225.98 55.2 224.78 55.38 223.34 56.04C221.3 57 218.84 58.26 216.08 59.76C215.72 59.94 215.42 60.06 215.12 60.12C214.82 60.24 214.46 60.24 214.1 60.24C213.74 60.24 213.44 60.18 213.26 60.18C213.08 60.18 212.78 60.12 212.3 60C211.82 59.94 211.52 59.88 211.4 59.82C210.56 59.7 209.84 59.46 209.24 58.98C208.64 58.5 208.22 58.02 207.98 57.42C207.74 56.88 207.56 56.34 207.44 55.8C207.32 55.32 207.32 54.84 207.32 54.48V53.94C210.2 53.04 212.18 52.38 213.26 52.02C213.98 51.78 215.18 51.42 216.74 50.94C218.3 50.46 219.5 50.1 220.28 49.8C221.12 49.56 222.26 49.14 223.76 48.54C225.26 47.94 226.16 47.64 226.4 47.52C227.36 47.16 228.2 46.38 229.04 45.06ZM225.56 83.16C224.6 83.16 223.76 83.22 222.92 83.22C221.54 83.22 220.16 83.34 218.84 83.58C218.6 83.64 218.3 83.76 218.06 84C217.82 84.24 217.7 84.36 217.7 84.48C217.82 85.14 218.12 85.62 218.66 85.86C218.96 86.04 219.44 86.1 220.04 86.1C220.52 86.1 221.12 86.1 221.84 85.98C222.44 85.92 222.92 85.86 223.28 85.86C223.58 85.86 223.88 85.92 224.18 85.92C224.9 86.1 225.68 86.16 226.52 86.16C227.6 86.16 229.1 85.98 231.02 85.56C231.98 85.38 232.52 84.84 232.52 84C232.52 83.88 232.46 83.64 232.46 83.4L232.1 83.22H230C229.16 83.22 228.32 83.22 227.6 83.22C226.88 83.22 226.16 83.16 225.56 83.16ZM215.12 74.1V76.02V77.88H218.3H221.48C223.1 77.88 224.54 77.88 225.8 77.82C226.52 77.82 227.66 77.82 229.1 77.7C230.54 77.58 231.38 77.52 231.74 77.52C233.18 77.46 233.9 76.74 233.9 75.3V74.94V74.64C233.9 73.74 233.96 73.02 234.08 72.42C234.2 71.82 234.26 71.4 234.32 71.22C234.38 71.1 234.5 70.86 234.68 70.56C234.8 70.32 235.04 70.14 235.34 70.08C235.58 70.02 236 69.96 236.54 69.96C236.66 69.96 237.2 69.9 238.28 69.72C239.36 69.6 239.96 69.54 240.14 69.54C242.06 70.08 243.2 70.56 243.62 70.98C244.04 71.46 244.28 72.48 244.28 74.16C244.28 77.04 244.16 80.58 243.92 84.78C243.8 86.4 243.08 87.78 241.76 88.92C240.44 90.12 238.82 90.78 236.96 90.9C236.06 91.02 234.44 91.2 232.16 91.56C229.88 91.92 228.08 92.1 226.82 92.16C226.1 92.22 225.32 92.22 224.48 92.22C223.34 92.22 220.94 92.16 217.22 91.92C216.08 91.86 214.52 91.62 212.48 91.26C209.84 90.78 208.16 89.16 207.38 86.46C206.72 84.42 206.42 82.2 206.42 79.86C206.42 77.52 206.78 74.52 207.5 70.92C207.56 70.62 207.68 70.38 207.92 70.14C208.1 69.96 208.4 69.84 208.82 69.78C209.24 69.72 209.6 69.66 209.96 69.66C210.26 69.66 210.68 69.6 211.28 69.6H211.82C212.3 69.6 212.66 69.66 212.9 69.66C213.14 69.66 213.38 69.72 213.74 69.78C214.1 69.84 214.34 69.96 214.52 70.08C214.64 70.2 214.82 70.44 214.94 70.68C215.06 70.98 215.12 71.34 215.12 71.7V74.1Z" fill="white"/>
<rect x="270.5" y="30.5" width="90" height="120" fill="#FF961E"/>
<rect x="270.5" y="30.5" width="90" height="120" stroke="black"/>
<path d="M341.12 69.96C341.12 70.02 341.12 70.08 341.24 70.08C341.36 70.2 341.6 70.26 341.96 70.38C342.32 70.5 342.62 70.56 342.86 70.68C343.1 70.8 343.22 70.92 343.28 71.04C343.58 72.18 343.7 73.5 343.64 74.94C343.58 75.42 343.28 78.6 342.8 84.48C342.38 88.92 342.02 93.36 341.66 97.8C341.24 102.12 341 104.7 341 105.54C340.88 106.26 340.82 107.22 340.76 108.48C340.7 109.74 340.64 110.88 340.58 111.9C340.46 112.92 340.4 113.88 340.28 114.78C340.16 115.62 339.56 116.82 338.6 118.44C338.36 118.86 337.82 119.04 336.98 119.04C336.8 119.1 335.06 119.1 331.7 119.1C331.1 119.1 330.62 118.98 330.26 118.62C329.9 118.26 329.66 117.84 329.66 117.24L329.24 110.94C329.24 110.82 329.18 110.4 329.12 109.68C329 108.96 329 108.42 329.06 108.06C329.18 106.32 329.42 104.58 329.78 102.84C329.96 101.7 329.9 100.92 329.54 100.56C329.18 100.2 328.46 100.14 327.38 100.38C325.7 100.74 324.32 100.32 323.24 99.24C322.1 98.16 321.68 96.84 321.98 95.16C322.22 93.6 322.88 92.34 323.96 91.38C324.98 90.48 326.3 89.94 327.98 89.82C328.76 89.82 329.48 89.52 330.08 88.98C330.68 88.44 331.04 87.78 331.1 87.06C331.16 85.86 331.28 84 331.52 81.36C331.7 78.78 331.82 76.8 331.94 75.42C332 74.82 332.18 73.74 332.54 72.3C332.84 70.98 333.68 70.38 335.06 70.38C336.62 70.44 338.12 70.44 339.5 70.44C339.5 70.44 340.04 70.32 341.12 69.96ZM297.08 77.16C299.78 76.44 302.72 76.32 305.96 76.86C306.56 76.98 307.1 77.58 307.58 78.6C308.06 79.62 308.24 80.58 308.12 81.42C308.06 81.78 307.88 84.18 307.64 88.5C307.64 88.86 307.7 89.1 307.88 89.22C308 89.34 308.3 89.4 308.66 89.4C312.98 90 316.34 90.9 318.74 92.1C319.64 92.58 320.18 92.94 320.3 93.18C320.42 93.42 320.42 94.08 320.24 95.04C320 95.88 319.88 97.08 319.82 98.52C319.7 100.02 319.52 101.28 319.28 102.24C319.04 103.02 318.74 103.5 318.44 103.68C318.14 103.92 317.84 103.98 317.54 103.86C317.24 103.74 316.76 103.62 316.1 103.38C315.44 103.2 314.78 103.08 314.18 103.08C314.06 103.08 313.88 103.08 313.76 102.96L313.52 102.78C309.92 101.34 307.58 99.96 306.5 98.7C306.32 98.52 306.14 98.34 305.9 98.16C305.66 97.98 305.36 97.74 305 97.5C304.64 97.26 304.4 97.08 304.22 96.96C302.54 99.6 301.7 100.98 301.58 101.16C299.54 104.1 298.1 106.14 297.2 107.28C297.02 107.46 296.78 107.7 296.54 108.06C296.3 108.42 296.06 108.78 295.82 109.08C295.58 109.38 295.34 109.74 295.04 110.16C294.68 110.58 294.38 110.88 294.14 111.12C293.9 111.36 293.6 111.6 293.3 111.84C292.94 112.08 292.7 112.2 292.46 112.2C292.22 112.2 291.92 112.14 291.68 112.02C289.04 110.34 287.42 107.58 286.82 103.74C286.7 103.14 286.94 102.42 287.54 101.58C288.8 99.78 290.9 96.96 293.78 93.06C294.26 92.4 294.8 91.8 295.4 91.2C296.24 90.36 296.72 89.16 296.84 87.54C296.9 86.88 297.02 85.74 297.2 84.06C297.32 82.38 297.44 81.12 297.56 80.16C297.56 79.92 297.5 79.68 297.5 79.44C297.44 79.2 297.38 78.96 297.26 78.66C297.14 78.36 297.08 78.12 297.08 77.94V77.16Z" fill="white"/>
<rect x="360.5" y="60.5" width="90" height="120" fill="#FF961E"/>
<rect x="360.5" y="60.5" width="90" height="120" stroke="black"/>
<path d="M413.54 118.92V107.4C413.54 106.56 413.48 105.42 413.42 103.86C413.36 102.3 413.3 101.16 413.3 100.38C413.3 99.12 413.48 98.22 413.84 97.62C414.2 97.08 414.92 96.78 415.88 96.72C418.58 96.6 420.86 97.2 422.78 98.4C423.92 99.18 424.46 100.38 424.34 101.94C424.1 104.1 423.92 107.88 423.8 113.28C423.74 114.48 423.62 118.14 423.44 124.26C423.2 130.38 423.02 135.06 422.9 138.3C422.9 139.08 422.54 141.96 421.94 146.94C421.82 147.66 421.64 148.26 421.34 148.62C420.98 148.98 420.56 149.16 419.96 149.04C419.66 149.04 419.24 149.1 418.76 149.22C418.22 149.34 417.86 149.34 417.68 149.34C415.64 149.46 414.14 149.04 413.3 147.96C412.46 146.88 411.98 145.02 411.98 142.32C411.98 140.64 412.04 137.22 412.28 132C412.28 131.4 412.16 130.92 411.98 130.68C411.8 130.44 411.5 130.38 411.02 130.44H410.9H410.78C409.28 130.44 408.2 129.9 407.6 128.94C407 127.98 406.82 126.54 407.06 124.5C407.18 123.06 407.42 121.92 407.78 121.14C408.14 120.36 408.68 119.82 409.4 119.58C409.64 119.52 411.02 119.28 413.54 118.92ZM434.72 107.88C434 118.74 433.58 124.62 433.52 125.58C433.34 127.68 433.1 130.92 432.74 135.3C432.38 139.74 432.08 143.1 431.9 145.38C431.78 147.24 431.06 148.74 429.74 149.88C428.42 151.08 427.16 151.32 425.84 150.66C425.36 150.48 425.06 149.88 424.88 148.86C424.52 146.82 424.34 144.66 424.34 142.5C424.34 141.36 424.4 140.16 424.52 138.96C424.64 138.24 424.64 136.86 424.64 134.82C424.58 132.78 424.58 131.4 424.64 130.68C424.64 129.12 424.82 126.42 425.06 122.52C425.3 118.62 425.42 115.62 425.54 113.46C425.54 112.5 425.54 110.94 425.42 108.84C425.3 106.74 425.24 105.18 425.3 104.1C425.3 103.14 425.72 101.22 426.56 98.22C426.62 97.98 426.98 97.8 427.7 97.68C429.86 97.44 431.24 97.38 431.96 97.44C432.2 97.5 432.5 97.68 432.86 98.04C433.16 98.4 433.34 98.76 433.46 99.12C433.58 100.02 434 102.96 434.72 107.88ZM378.74 106.86C379.1 106.14 379.64 105.66 380.42 105.48C384.86 104.58 388.22 103.92 390.62 103.56C394.16 103.02 397.46 102.96 400.58 103.44C400.58 103.44 400.76 103.5 401.06 103.5C401.36 103.56 401.6 103.62 401.72 103.62C401.84 103.62 401.96 103.68 402.2 103.74C402.44 103.8 402.62 103.86 402.8 103.98C402.92 104.1 403.1 104.28 403.28 104.4C403.52 104.7 403.82 105.3 404.12 106.2C405.44 110.52 406.04 115.32 405.86 120.72C405.74 122.7 405.5 125.58 405.08 129.42C404.96 130.26 404.78 132.06 404.66 134.94C404.48 137.82 404.24 139.98 403.94 141.48C403.52 143.16 403.04 144.24 402.5 144.84C402.02 145.32 400.76 145.68 398.72 145.8C396.68 145.98 394.82 145.98 393.14 145.86C392.3 145.86 391.88 145.56 391.76 144.96C391.7 144.72 391.7 144.48 391.76 144.12C391.76 143.76 391.88 143.4 392 142.98C392.12 142.62 392.18 142.32 392.24 142.14C392.36 141.06 392.54 139.98 392.66 138.84C392.84 136.86 392.96 134.7 393.08 132.36C393.14 129.48 393.08 125.22 392.9 119.52C392.84 118.68 392.72 118.08 392.6 117.72C392.06 116.76 390.92 116.52 389.18 116.94C387.2 117.48 383.66 117.66 378.5 117.42C378.26 117.42 378.08 117.36 378.02 117.24C377.84 117.12 377.78 116.76 377.84 116.28C378.14 110.52 378.44 107.34 378.74 106.86Z" fill="white"/>
</svg>
