<svg width="91" height="121" viewBox="0 0 91 121" fill="none" xmlns="http://www.w3.org/2000/svg">
<rect x="0.5" y="0.5" width="90" height="120" fill="#FF961E"/>
<rect x="0.5" y="0.5" width="90" height="120" stroke="black"/>
<path d="M57.14 37.62C59.42 37.5 60.68 37.44 60.8 37.44C62.12 37.5 63.38 37.62 64.7 37.8C66.02 37.98 67.16 38.1 68.18 38.16C69.32 38.28 69.92 38.94 69.98 40.08C69.98 41.52 70.1 43.74 70.28 46.68C70.46 49.68 70.58 51.9 70.64 53.4C70.7 54.54 70.7 56.58 70.7 59.46C70.7 62.4 70.7 64.44 70.7 65.52C70.7 67.14 70.7 70.44 70.7 75.48C70.7 80.52 70.7 83.88 70.7 85.5V85.62C70.7 86.46 70.58 87.3 70.34 88.02C69.8 89.52 68.84 90.24 67.46 90.18C66.8 90.18 66.02 90.24 65.18 90.24C64.34 90.24 63.62 90.24 63.02 90.12C62.54 90.12 62 89.94 61.52 89.64C60.98 89.4 60.62 89.04 60.5 88.68C59.3 85.8 58.7 83.58 58.64 82.02C58.46 78.54 58.34 72.6 58.28 64.32C58.22 56.04 58.16 50.4 58.04 47.34C58.04 46.38 57.98 45.42 57.86 44.34C57.74 43.26 57.62 42.06 57.5 40.68L57.14 37.62ZM29.36 71.1C32.36 71.4 34.58 71.52 36.02 71.52C36.56 71.58 37.16 71.64 37.88 71.64C38.6 71.7 39.08 71.76 39.44 71.76C39.8 71.76 40.22 71.76 40.82 71.7C41.42 71.64 42.08 71.52 42.8 71.34C44.24 71.04 45.8 71.46 47.48 72.66C47.66 72.84 47.84 73.08 47.96 73.44C48.08 73.8 48.14 74.16 48.08 74.4C47.96 75.3 47.78 76.02 47.66 76.56C47.54 77.16 47.42 77.52 47.36 77.76C47.24 78 47 78.48 46.64 79.26C46.28 80.04 45.98 80.64 45.74 81.12C44.84 83.04 43.4 84.12 41.42 84.24C39.98 84.36 38.12 84.6 35.9 84.96C33.62 85.32 32 85.5 30.92 85.56C29.84 85.68 28.04 85.68 25.4 85.56C23.78 85.44 22.22 85.2 20.66 84.78C19.34 84.48 18.62 83.52 18.56 81.96C18.5 81.06 18.44 79.8 18.38 78.24C18.26 76.68 18.2 75.18 18.14 73.86C18.08 72.54 18.08 71.28 18.08 70.08C17.96 64.2 17.96 58.38 18.08 52.5C18.08 51.24 18.32 49.8 18.92 48.18C19.28 47.16 19.76 46.44 20.36 46.08C20.96 45.72 21.92 45.48 23.24 45.36C23.84 45.3 24.8 45.3 26.24 45.36C26.36 45.36 26.54 45.48 26.78 45.6C27.02 45.72 27.2 45.84 27.26 45.84C27.74 46.08 28.04 46.14 28.22 46.14C28.88 46.14 29.36 46.26 29.66 46.5C29.9 46.74 30.14 47.28 30.32 48C30.56 48.9 30.68 49.86 30.68 50.94C30.68 52.02 30.62 52.92 30.56 53.7C30.44 54.48 30.32 55.44 30.14 56.64C29.96 57.84 29.84 58.74 29.84 59.4C29.72 60.36 29.6 62.4 29.54 65.52C29.42 68.64 29.36 70.5 29.36 71.1Z" fill="white"/>
</svg>
