<svg width="181" height="151" viewBox="0 0 181 151" fill="none" xmlns="http://www.w3.org/2000/svg">
<rect x="0.5" y="0.5" width="90" height="120" fill="#FF961E"/>
<rect x="0.5" y="0.5" width="90" height="120" stroke="black"/>
<path d="M70.1 50.22C70.04 53.34 69.92 55.62 69.8 57.06C69.62 58.68 69.26 60.24 68.78 61.74C68.54 62.46 68.3 62.94 67.94 63.06C67.58 63.24 66.98 63.3 66.08 63.18C64.76 63.06 63.92 63 63.62 63C62.66 63.06 62.12 62.7 62 61.92C61.76 60.72 61.58 59.52 61.46 58.32C61.4 57.72 61.34 56.88 61.28 55.74C61.22 54.6 61.16 53.82 61.16 53.4C61.1 52.74 60.74 52.26 60.14 52.02C59.54 51.78 58.88 51.84 58.22 52.2C57.86 52.44 57.74 52.8 57.8 53.28C57.86 54.06 58.04 55.38 58.28 57.24C58.52 59.16 58.64 60.6 58.76 61.56C58.82 62.16 58.76 62.94 58.52 63.96C58.4 64.32 58.16 64.56 57.8 64.68L54.44 65.76C52.82 65.94 51.68 65.82 51.08 65.4C50.48 65.1 50.18 64.68 50.18 64.14C49.76 59.1 49.52 55.08 49.4 52.14L49.1 40.14L49.76 37.56L53.48 37.26C54.14 37.32 54.68 37.38 55.04 37.44C55.64 37.56 56.06 37.92 56.36 38.46C56.6 39 56.72 39.48 56.72 39.9L56.66 40.56L56.42 46.08L58.16 47.58H59.42C60.38 47.52 60.98 47.34 61.28 47.1C61.52 46.86 61.7 46.38 61.7 45.6C61.64 45 61.58 43.8 61.52 42.06C61.46 40.32 61.46 39 61.46 38.04C61.4 37.32 61.52 36.9 61.88 36.66C62.18 36.42 62.78 36.3 63.68 36.24C66.5 36.18 68.48 36.9 69.68 38.34C69.86 38.58 69.98 38.88 70.1 39.18C70.22 39.54 70.28 39.9 70.4 40.26C70.46 40.68 70.52 40.98 70.64 41.16C70.52 41.16 70.4 42.3 70.28 44.52C70.16 46.8 70.1 48.66 70.1 50.22ZM32.72 64.44C26.36 64.08 22.88 63.84 22.4 63.78C20.72 63.66 19.64 63.24 19.22 62.52C18.8 61.86 18.56 60.48 18.44 58.38C18.08 53.28 17.96 49.56 18.08 47.28C18.14 45.42 18.56 42.42 19.28 38.22C19.52 36.84 20.48 36.18 22.1 36.24C22.88 36.36 24.14 36.42 25.82 36.48C27.5 36.6 28.94 36.66 30.08 36.72C30.56 36.78 31.34 36.96 32.3 37.32C33.26 37.68 33.92 37.86 34.28 37.92C34.64 37.98 35.12 38.1 35.72 38.22C36.26 38.34 36.74 38.46 37.16 38.52C37.52 38.64 38 38.7 38.6 38.7C39.02 38.76 39.62 38.76 40.4 38.76C41.18 38.76 41.72 38.82 42.08 38.82C42.44 38.82 42.92 38.94 43.52 39.12C44.12 39.36 44.72 39.66 45.38 40.08C45.86 40.44 46.22 40.74 46.4 41.1C46.52 41.46 46.52 41.88 46.4 42.48C46.22 43.08 46.1 43.62 45.98 44.22C45.86 44.82 45.86 45.24 45.86 45.48C45.86 45.78 45.86 46.08 45.74 46.32C45.62 46.62 45.5 46.8 45.5 46.86C45.44 46.98 45.26 47.04 44.9 47.1C44.54 47.22 44.18 47.22 43.88 47.22H42.14H40.28H39.86C39.62 47.22 39.44 47.28 39.38 47.28C39.26 47.28 39.14 47.34 38.9 47.34C38.66 47.34 38.54 47.4 38.48 47.4C38.42 47.46 38.3 47.52 38.18 47.58C38 47.7 37.88 47.76 37.82 47.88C37.76 48 37.7 48.12 37.64 48.24C37.52 48.42 37.52 48.6 37.52 48.78C37.46 49.38 37.46 49.92 37.46 50.4C37.46 50.88 37.58 51.36 37.94 51.72C38.3 52.14 38.78 52.38 39.5 52.5C41.12 52.74 42.26 52.86 42.98 52.86C44.6 52.98 45.8 53.4 46.52 54.18C47.24 55.02 47.3 56.1 46.7 57.54C46.7 57.6 46.64 57.66 46.64 57.72C46.52 58.08 46.46 58.68 46.4 59.46C46.34 60.3 46.22 60.96 46.1 61.44C45.98 61.98 45.74 62.4 45.44 62.7C45.26 62.82 45.14 62.94 45.02 63.06C44.9 63.18 44.78 63.24 44.72 63.3C44.6 63.36 44.48 63.42 44.36 63.48C44.18 63.54 44.06 63.6 44 63.6C43.94 63.6 43.82 63.66 43.64 63.66C43.4 63.66 43.28 63.72 43.22 63.72C43.16 63.72 42.98 63.78 42.68 63.78C42.38 63.78 42.2 63.78 42.08 63.78C39.8 64.02 36.68 64.2 32.72 64.44ZM24.92 47.28V51.6C24.92 51.66 24.92 51.78 24.92 52.02C24.92 52.26 24.98 52.38 24.98 52.44C24.98 52.5 25.04 52.62 25.1 52.8C25.1 53.04 25.16 53.16 25.16 53.22C25.16 53.34 25.22 53.46 25.28 53.58C25.34 53.7 25.4 53.82 25.52 53.88L25.82 54.12C25.94 54.24 26.06 54.3 26.24 54.3L26.72 54.42C27.44 54.48 28.16 54.48 28.94 54.48C29.54 54.48 30.14 54.48 30.74 54.42C30.86 54.42 31.04 54.3 31.28 54C31.52 53.76 31.64 53.46 31.64 53.22C31.64 53.1 31.52 52.02 31.4 50.1C31.22 48.48 30.98 47.52 30.68 47.22C30.32 46.92 29.36 46.8 27.8 46.8C27.68 46.8 26.72 46.98 24.92 47.28ZM43.94 84.66C47 84.66 48.8 84.6 49.4 84.42C49.88 84.3 50.24 84.18 50.48 83.94C50.72 83.7 50.9 83.4 51.02 83.04C51.08 82.68 51.14 82.38 51.14 82.02C51.14 81.72 51.14 81.24 51.14 80.58C51.08 79.98 51.08 79.44 51.14 78.96V78.66C51.14 78.18 51.02 77.76 50.9 77.52C50.72 77.28 50.42 77.16 49.94 77.16H39.92V83.64C41.36 84.36 42.68 84.66 43.94 84.66ZM37.4 68.7C37.58 68.7 37.88 68.76 38.24 68.76C38.6 68.76 38.9 68.76 39.14 68.76C44.48 68.76 48.5 68.58 51.14 68.22C51.86 68.16 52.58 68.1 53.3 68.1C56.54 68.1 59.36 69.12 61.76 71.16C62.36 71.64 62.84 72.42 63.2 73.5C63.56 74.58 63.8 75.72 63.8 76.8C63.8 77.28 63.74 77.7 63.68 78.06C63.56 78.78 63.32 79.86 63.08 81.36C62.78 82.86 62.54 84 62.42 84.84C62.06 86.52 61.76 87.78 61.4 88.74C61.16 89.22 60.74 89.64 60.08 89.88C56.48 91.2 52.7 91.86 48.62 91.86C44.54 91.86 41.9 91.74 40.82 91.5C35.24 90.3 32 89.52 31.1 89.22C30.74 89.1 30.38 88.86 30.02 88.38C29.66 87.9 29.48 87.42 29.36 86.94C29.24 86.58 29.18 86.16 29.18 85.56C29.18 85.32 29.18 85.02 29.18 84.54C29.18 84.06 29.24 83.82 29.24 83.7C29.36 80.04 29.54 77.58 29.66 76.38C29.9 73.38 30.62 71.34 31.76 70.26C32.9 69.24 34.76 68.7 37.4 68.7Z" fill="white"/>
<rect x="90.5" y="30.5" width="90" height="120" fill="#FF961E"/>
<rect x="90.5" y="30.5" width="90" height="120" stroke="black"/>
<path d="M143.54 88.92V77.4C143.54 76.56 143.48 75.42 143.42 73.86C143.36 72.3 143.3 71.16 143.3 70.38C143.3 69.12 143.48 68.22 143.84 67.62C144.2 67.08 144.92 66.78 145.88 66.72C148.58 66.6 150.86 67.2 152.78 68.4C153.92 69.18 154.46 70.38 154.34 71.94C154.1 74.1 153.92 77.88 153.8 83.28C153.74 84.48 153.62 88.14 153.44 94.26C153.2 100.38 153.02 105.06 152.9 108.3C152.9 109.08 152.54 111.96 151.94 116.94C151.82 117.66 151.64 118.26 151.34 118.62C150.98 118.98 150.56 119.16 149.96 119.04C149.66 119.04 149.24 119.1 148.76 119.22C148.22 119.34 147.86 119.34 147.68 119.34C145.64 119.46 144.14 119.04 143.3 117.96C142.46 116.88 141.98 115.02 141.98 112.32C141.98 110.64 142.04 107.22 142.28 102C142.28 101.4 142.16 100.92 141.98 100.68C141.8 100.44 141.5 100.38 141.02 100.44H140.9H140.78C139.28 100.44 138.2 99.9 137.6 98.94C137 97.98 136.82 96.54 137.06 94.5C137.18 93.06 137.42 91.92 137.78 91.14C138.14 90.36 138.68 89.82 139.4 89.58C139.64 89.52 141.02 89.28 143.54 88.92ZM164.72 77.88C164 88.74 163.58 94.62 163.52 95.58C163.34 97.68 163.1 100.92 162.74 105.3C162.38 109.74 162.08 113.1 161.9 115.38C161.78 117.24 161.06 118.74 159.74 119.88C158.42 121.08 157.16 121.32 155.84 120.66C155.36 120.48 155.06 119.88 154.88 118.86C154.52 116.82 154.34 114.66 154.34 112.5C154.34 111.36 154.4 110.16 154.52 108.96C154.64 108.24 154.64 106.86 154.64 104.82C154.58 102.78 154.58 101.4 154.64 100.68C154.64 99.12 154.82 96.42 155.06 92.52C155.3 88.62 155.42 85.62 155.54 83.46C155.54 82.5 155.54 80.94 155.42 78.84C155.3 76.74 155.24 75.18 155.3 74.1C155.3 73.14 155.72 71.22 156.56 68.22C156.62 67.98 156.98 67.8 157.7 67.68C159.86 67.44 161.24 67.38 161.96 67.44C162.2 67.5 162.5 67.68 162.86 68.04C163.16 68.4 163.34 68.76 163.46 69.12C163.58 70.02 164 72.96 164.72 77.88ZM122.78 117.96C118.1 117.9 114.2 116.1 111.08 112.5C110 111.3 109.28 109.26 108.92 106.38C108.32 102.42 108.08 98.88 108.14 95.82C108.14 90.54 109.16 85.44 111.2 80.52C111.38 80.1 111.56 79.8 111.68 79.62C114.56 76.5 116.36 74.58 117.08 73.86C117.2 73.68 117.44 73.56 117.68 73.44C117.92 73.38 118.28 73.32 118.7 73.26C119.06 73.2 119.36 73.14 119.48 73.14C121.88 72.54 124.22 72.72 126.44 73.68C128.6 74.64 130.82 76.2 133.1 78.24C135.02 80.16 136.1 81.9 136.46 83.52C136.88 86.1 137 88.26 136.88 89.94C136.52 94.02 135.98 98.46 135.2 103.32C134.24 109.02 131.84 113.22 128 115.86C125.6 117.54 123.86 118.2 122.78 117.96ZM128.66 92.94C128.66 92.82 128.6 92.46 128.54 91.98C128.42 91.5 128.36 91.14 128.3 90.9C128.24 90.72 128.18 90.42 128.06 90.06C127.94 89.7 127.82 89.4 127.7 89.1C127.52 88.86 127.34 88.56 127.16 88.32C125.84 86.82 124.46 86.22 122.9 86.52C121.34 86.88 120.26 88.02 119.6 90C118.82 92.28 118.58 94.32 118.94 96.12C119.06 96.84 119.18 97.98 119.36 99.48C119.48 101.04 119.66 102.18 119.84 102.96C119.96 103.86 120.44 104.64 121.28 105.3C122.12 105.96 122.96 106.26 123.8 106.26C124.4 106.26 125.06 106.02 125.66 105.48C126.26 105 126.62 104.34 126.8 103.5C126.92 102.84 127.58 99.3 128.66 92.94Z" fill="white"/>
</svg>
