<svg width="361" height="151" viewBox="0 0 361 151" fill="none" xmlns="http://www.w3.org/2000/svg">
<rect x="0.5" y="0.5" width="90" height="120" fill="#FF961E"/>
<rect x="0.5" y="0.5" width="90" height="120" stroke="black"/>
<path d="M67.1 53.1V59.04C67.1 59.7 66.98 60.9 66.86 62.58C66.74 63.54 66.14 64.08 65.18 64.08C63.02 64.14 61.22 64.14 59.66 64.02C58.76 64.02 57.98 63.66 57.38 63.06C56.78 62.46 56.42 61.74 56.42 60.9C56.36 57.96 56.36 54.24 56.42 49.74C56.42 49.08 56.48 47.52 56.54 45.12C56.6 42.72 56.66 41.04 56.72 40.14C56.72 38.94 57.14 38.16 57.98 37.68C58.16 37.56 58.52 37.38 59.06 37.08C59.6 36.84 60.02 36.6 60.32 36.48C60.56 36.36 60.92 36.24 61.4 36.06C61.88 35.88 62.3 35.76 62.72 35.7C63.14 35.64 63.56 35.64 64.04 35.64C64.76 35.7 65.3 35.76 65.66 35.88C66.5 36.24 66.92 36.84 66.92 37.74C66.92 39.42 67.04 41.58 67.34 44.1C67.4 44.58 67.76 44.88 68.48 44.94C71.36 45.18 72.98 45.3 73.34 45.36C74.18 45.6 74.72 46.26 74.84 47.46C75.02 49.26 74.72 50.88 73.88 52.26C73.64 52.68 72.92 52.98 71.84 53.1H67.1ZM35.6 45.84C33.44 45.36 30.74 45.42 27.5 46.02C24.26 46.62 21.98 46.92 20.78 46.86C21.2 43.26 21.5 40.68 21.74 39.12C24.92 38.7 26.6 38.46 26.84 38.46C32.24 38.16 35.72 38.04 37.4 38.1C38.24 38.16 39.08 38.28 39.92 38.4C40.76 38.58 41.84 38.82 43.16 39.12C44.42 39.48 45.26 39.66 45.74 39.72C47.18 40.08 47.72 41.1 47.24 42.72C46.76 44.34 46.4 45.48 46.16 46.2C45.92 46.92 45.44 47.82 44.84 49.02C44.24 50.22 43.52 51.18 42.68 51.96C42.44 52.2 42.14 52.5 41.78 52.86C41.36 53.22 41.06 53.52 40.94 53.64C40.82 53.76 40.64 53.94 40.52 54.18C40.4 54.42 40.34 54.66 40.4 54.78C40.46 54.96 40.58 55.14 40.82 55.38C41 55.62 41.3 55.86 41.72 56.1C41.96 56.28 42.32 56.64 42.92 57.12C43.46 57.6 43.82 57.96 43.94 58.14C44.48 58.92 45.2 59.7 46.04 60.54C46.88 61.38 47.54 62.16 48.08 62.94C49.04 64.38 48.86 65.46 47.42 66.18C46.94 66.48 46.28 66.9 45.44 67.5C44.6 68.1 44 68.46 43.7 68.64C43.4 68.88 43.16 69 42.92 69.06C42.68 69.12 42.38 69.12 42.08 69C41.78 68.88 41.6 68.82 41.48 68.76C41.36 68.76 41.12 68.58 40.7 68.28C40.28 68.04 40.04 67.86 39.98 67.8C39.68 67.68 39.5 67.56 39.44 67.44C39.32 67.32 39.26 67.26 39.26 67.2C39.26 67.14 39.14 66.96 38.96 66.72C38.72 66.48 38.42 66.12 38 65.7C37.82 65.58 37.52 65.22 37.04 64.56C36.56 63.96 36.08 63.42 35.72 63.06C34.52 61.86 33.2 61.32 31.76 61.32C30.32 61.32 28.58 62.04 26.42 63.48C25.22 64.26 23.96 65.28 22.64 66.54C21.44 67.62 20.72 67.38 20.36 65.88C19.58 62.76 19.16 60.84 19.04 60.06C18.8 58.74 18.98 57.54 19.58 56.52C20.18 55.56 21.2 54.84 22.58 54.36C24.62 53.76 26.54 52.92 28.28 51.72C29.96 50.52 31.94 48.96 34.22 46.98C34.22 46.98 34.7 46.62 35.6 45.84ZM29.6 77.34C29.48 77.34 29.18 77.4 28.7 77.4C28.22 77.46 27.86 77.46 27.68 77.46C27.44 77.46 27.2 77.46 26.84 77.4C26.48 77.34 26.18 77.22 26.06 77.1C25.88 76.98 25.7 76.74 25.52 76.44C25.34 76.14 25.22 75.78 25.22 75.3C25.16 75.06 25.1 74.58 24.98 73.92C24.86 73.32 24.8 72.78 24.8 72.3C24.8 71.7 24.86 71.04 25.04 70.44C25.04 70.2 25.22 69.9 25.58 69.6C25.94 69.36 26.3 69.18 26.72 69.18C42.92 69.12 54.2 69.3 60.68 69.72C62 69.84 63.02 69.96 63.8 70.2C64.7 70.56 65.24 70.98 65.42 71.52C65.6 72.36 65.72 73.2 65.72 74.04C65.72 75.06 65.54 76.26 65.3 77.64C64.82 79.98 63.62 81.66 61.64 82.62C60.56 83.16 58.58 83.58 55.76 83.82C54.74 83.94 53.3 84 51.38 84C49.46 84.06 48.14 84.12 47.36 84.18C47.24 84.18 45.08 84.24 40.94 84.3C36.74 84.36 34.46 84.42 34.04 84.54L34.1 86.16C34.82 86.16 37.52 86.16 42.2 86.04C46.88 85.98 49.64 85.92 50.36 85.92C51.98 85.92 53.42 85.92 54.68 85.86C55.52 85.86 56.84 85.8 58.58 85.68C60.26 85.56 61.52 85.5 62.36 85.44H62.48C63.56 85.44 64.16 85.86 64.16 86.7V87C63.8 88.86 63.5 90.3 63.26 91.26C62.96 92.22 62.48 92.88 61.82 93.24C61.16 93.6 60.08 93.78 58.52 93.78H57.8C56.24 93.78 54.02 93.66 51.2 93.48C48.38 93.3 46.4 93.18 45.26 93.06C43.46 93 41.9 93 40.52 93.06C39.14 93.18 37.58 93.18 35.9 93.06C34.22 93 32.72 92.82 31.4 92.52C29.6 92.16 28.34 91.56 27.62 90.6C26.9 89.64 26.48 88.38 26.24 86.76C26.18 86.52 26.18 85.86 26.18 84.66C26.18 84.6 26.18 84.12 26.24 83.28C26.24 82.02 26.6 81.12 27.2 80.64C27.8 80.16 28.82 79.92 30.38 79.86C36.14 79.74 43.76 79.44 53.3 79.02C54.5 79.02 55.1 78.6 55.1 77.76V77.46C55.04 77.22 55.04 76.98 55.04 76.74V76.44C55.04 76.32 54.74 76.26 54.14 76.26C53.54 76.26 52.46 76.26 50.9 76.32C49.34 76.38 47.72 76.44 45.98 76.56C44.24 76.68 41.78 76.8 38.66 76.92C35.54 77.1 32.48 77.22 29.6 77.34Z" fill="white"/>
<rect x="90.5" y="30.5" width="90" height="120" fill="#FF961E"/>
<rect x="90.5" y="30.5" width="90" height="120" stroke="black"/>
<path d="M162.02 111.84C161.96 112.32 161.96 112.98 162.08 113.7C162.2 114.48 162.2 115.2 162.2 115.86C162.2 116.52 162.02 117.12 161.78 117.66C161.3 118.56 160.82 119.1 160.22 119.22C159.5 119.4 158.66 119.58 157.58 119.7C156.5 119.88 155.54 120 154.76 120.06C153.98 120.12 153.62 120.12 153.62 120.06H121.94C120.86 120.12 119.24 120.18 117.08 120.24C114.92 120.3 113.3 120.3 112.22 120.3C111.02 120.36 109.88 120.12 108.8 119.58L108.02 114.96L108.8 112.68C109.04 111.96 109.52 111.6 110.24 111.54L115.04 111.06C119.84 111.06 125 110.94 130.46 110.82C129.98 110.34 129.74 109.8 129.74 109.32C129.62 108.6 129.56 107.58 129.56 106.26C129.5 104.94 129.44 103.98 129.44 103.5C129.44 103.02 129.5 102.66 129.68 102.42C129.8 102.18 130.16 102.06 130.7 102.06C131.3 102.12 132.44 102.12 134 102.12C135.56 102.12 136.64 102.06 137.3 102.06C138.56 102.12 139.4 102.42 139.88 103.02C140.36 103.62 140.72 104.76 141.02 106.44C141.2 107.7 140.9 109.08 140.12 110.64C146.6 110.52 150.86 110.4 152.78 110.28C155.12 110.22 156.98 110.22 158.3 110.34C158.66 110.34 159.74 110.7 161.54 111.3C161.6 111.36 161.72 111.42 161.84 111.54C161.96 111.66 162.02 111.78 162.02 111.84ZM124.28 87.72C131.18 87.36 135.08 87.18 135.98 87.12C136.7 87.06 137.84 87 139.4 86.88C140.96 86.76 142.1 86.7 142.94 86.64C147.14 86.4 149.72 86.34 150.62 86.34C152 86.4 153.5 86.7 155.06 87.24C156.38 87.72 157.22 88.2 157.46 88.56C157.7 88.98 157.76 89.82 157.52 91.14C157.34 92.1 157.16 93 156.92 93.96C156.68 94.92 156.38 95.94 156.02 97.14C155.66 98.34 155.42 99.18 155.3 99.66C153.98 99.66 152.12 99.72 149.6 99.72C147.08 99.72 144.92 99.72 143.12 99.72C141.32 99.72 139.58 99.66 137.9 99.6C136.1 99.54 134.18 99.42 132.2 99.3C130.16 99.18 127.94 99 125.42 98.76C122.9 98.52 121.04 98.4 119.78 98.28C119.3 98.28 118.7 98.22 117.98 98.22C117.2 98.22 116.78 98.22 116.66 98.16C115.1 98.16 114.14 97.86 113.78 97.26C113.36 96.66 113.18 95.64 113.24 94.08C113.3 93.18 113.48 91.8 113.78 90L114.32 86.94C114.38 86.28 114.5 85.32 114.68 84C114.8 82.68 114.92 81.72 115.04 81.12C115.58 76.68 115.94 74.04 116.18 73.2C116.78 70.2 119.12 68.94 123.08 69.3C125.06 69.66 127.28 69.78 129.68 69.72C132.08 69.72 134.24 69.36 136.28 68.76C136.64 68.64 137.06 68.52 137.54 68.46C138.02 68.46 138.5 68.46 139.1 68.46C139.64 68.52 140.06 68.58 140.42 68.58C140.78 68.64 141.32 68.7 142.04 68.82C142.76 68.94 143.18 69 143.42 69C144.86 69.24 146.9 69.6 149.54 70.08C152.18 70.56 154.1 70.92 155.3 71.1C156.2 71.28 156.86 71.58 157.22 71.94C157.58 72.3 157.76 72.96 157.64 73.8C157.52 74.28 157.4 75.18 157.28 76.44C157.1 77.76 156.98 78.72 156.86 79.38C156.44 81.36 155.06 82.32 152.72 82.26C151.4 82.26 149.54 82.26 147.14 82.14C144.68 82.02 142.94 81.96 141.86 81.96C138.2 81.9 135.02 81.9 132.26 82.02C131.66 82.02 130.7 82.14 129.5 82.32C128.3 82.56 127.4 82.62 126.8 82.62C126.02 82.62 125.48 82.8 125.12 83.04C124.76 83.28 124.58 83.76 124.58 84.42C124.58 84.54 124.46 85.68 124.28 87.72Z" fill="white"/>
<rect x="180.5" y="30.5" width="90" height="120" fill="#FF961E"/>
<rect x="180.5" y="30.5" width="90" height="120" stroke="black"/>
<path d="M252.02 111.84C251.96 112.32 251.96 112.98 252.08 113.7C252.2 114.48 252.2 115.2 252.2 115.86C252.2 116.52 252.02 117.12 251.78 117.66C251.3 118.56 250.82 119.1 250.22 119.22C249.5 119.4 248.66 119.58 247.58 119.7C246.5 119.88 245.54 120 244.76 120.06C243.98 120.12 243.62 120.12 243.62 120.06H211.94C210.86 120.12 209.24 120.18 207.08 120.24C204.92 120.3 203.3 120.3 202.22 120.3C201.02 120.36 199.88 120.12 198.8 119.58L198.02 114.96L198.8 112.68C199.04 111.96 199.52 111.6 200.24 111.54L205.04 111.06C209.84 111.06 215 110.94 220.46 110.82C219.98 110.34 219.74 109.8 219.74 109.32C219.62 108.6 219.56 107.58 219.56 106.26C219.5 104.94 219.44 103.98 219.44 103.5C219.44 103.02 219.5 102.66 219.68 102.42C219.8 102.18 220.16 102.06 220.7 102.06C221.3 102.12 222.44 102.12 224 102.12C225.56 102.12 226.64 102.06 227.3 102.06C228.56 102.12 229.4 102.42 229.88 103.02C230.36 103.62 230.72 104.76 231.02 106.44C231.2 107.7 230.9 109.08 230.12 110.64C236.6 110.52 240.86 110.4 242.78 110.28C245.12 110.22 246.98 110.22 248.3 110.34C248.66 110.34 249.74 110.7 251.54 111.3C251.6 111.36 251.72 111.42 251.84 111.54C251.96 111.66 252.02 111.78 252.02 111.84ZM249.08 86.46C248 93.36 247.46 97.14 247.34 97.86C247.04 99.36 246.38 100.5 245.42 101.22C244.46 101.94 243.2 102.3 241.7 102.24C239.9 102.24 238.34 102.06 236.96 101.82C236.66 101.82 236.36 101.64 236.06 101.4C235.76 101.16 235.58 100.92 235.52 100.62C234.56 97.86 234.44 95.22 235.04 92.64C235.16 91.92 235.16 90.96 235.04 89.64C234.92 88.8 234.68 88.14 234.26 87.72C233.84 87.36 233.18 87.18 232.22 87.24C227.18 87.66 222.2 87.9 217.22 88.02C213.02 88.14 208.82 87.36 204.5 85.74C204.26 85.68 204.02 85.5 203.78 85.14C203.54 84.84 203.42 84.54 203.36 84.18C203.24 83.46 203 80.88 202.58 76.5C202.52 76.32 202.52 76.14 202.52 75.96C202.52 75.84 202.52 75.66 202.52 75.48C202.52 75.3 202.46 75.18 202.4 75.06C201.92 74.46 201.74 73.92 201.86 73.56C201.98 73.2 202.16 72.9 202.52 72.78C202.88 72.66 203.3 72.54 203.84 72.48C206.72 72.36 210.2 72.3 214.16 72.36C220.46 72.48 225.38 72.6 228.98 72.78C229.94 72.84 231.26 73.02 233 73.32C234.74 73.62 236 73.8 236.78 73.86C240.26 74.22 243.86 75.18 247.46 76.86C248.06 77.22 248.42 77.58 248.48 77.94C248.54 78.78 248.72 81.66 249.08 86.46Z" fill="white"/>
<rect x="270.5" y="30.5" width="90" height="120" fill="#FF961E"/>
<rect x="270.5" y="30.5" width="90" height="120" stroke="black"/>
<path d="M340.1 80.22C340.04 83.34 339.92 85.62 339.8 87.06C339.62 88.68 339.26 90.24 338.78 91.74C338.54 92.46 338.3 92.94 337.94 93.06C337.58 93.24 336.98 93.3 336.08 93.18C334.76 93.06 333.92 93 333.62 93C332.66 93.06 332.12 92.7 332 91.92C331.76 90.72 331.58 89.52 331.46 88.32C331.4 87.72 331.34 86.88 331.28 85.74C331.22 84.6 331.16 83.82 331.16 83.4C331.1 82.74 330.74 82.26 330.14 82.02C329.54 81.78 328.88 81.84 328.22 82.2C327.86 82.44 327.74 82.8 327.8 83.28C327.86 84.06 328.04 85.38 328.28 87.24C328.52 89.16 328.64 90.6 328.76 91.56C328.82 92.16 328.76 92.94 328.52 93.96C328.4 94.32 328.16 94.56 327.8 94.68L324.44 95.76C322.82 95.94 321.68 95.82 321.08 95.4C320.48 95.1 320.18 94.68 320.18 94.14C319.76 89.1 319.52 85.08 319.4 82.14L319.1 70.14L319.76 67.56L323.48 67.26C324.14 67.32 324.68 67.38 325.04 67.44C325.64 67.56 326.06 67.92 326.36 68.46C326.6 69 326.72 69.48 326.72 69.9L326.66 70.56L326.42 76.08L328.16 77.58H329.42C330.38 77.52 330.98 77.34 331.28 77.1C331.52 76.86 331.7 76.38 331.7 75.6C331.64 75 331.58 73.8 331.52 72.06C331.46 70.32 331.46 69 331.46 68.04C331.4 67.32 331.52 66.9 331.88 66.66C332.18 66.42 332.78 66.3 333.68 66.24C336.5 66.18 338.48 66.9 339.68 68.34C339.86 68.58 339.98 68.88 340.1 69.18C340.22 69.54 340.28 69.9 340.4 70.26C340.46 70.68 340.52 70.98 340.64 71.16C340.52 71.16 340.4 72.3 340.28 74.52C340.16 76.8 340.1 78.66 340.1 80.22ZM303.14 90C302.72 89.34 302.36 88.98 302.06 88.98C301.7 88.98 301.34 89.28 300.86 89.88L298.16 92.94C296.96 94.32 296.06 95.34 295.46 96.06C294.92 96.66 294.44 96.9 294.02 96.9C293.6 96.9 293.18 96.54 292.7 95.94C291.98 95.1 291.2 94.44 290.36 93.9C289.52 93.42 289.04 92.94 288.86 92.46C288.62 91.98 288.74 91.26 289.22 90.3C289.46 89.94 289.76 89.34 290.24 88.44C290.66 87.54 291.02 86.88 291.38 86.4C292.22 85.08 293.24 83.88 294.32 82.8C296 81.06 296.96 78.66 297.14 75.66C297.2 74.46 297.14 72.96 297.02 71.16C296.84 69.36 296.66 68.52 296.48 68.52L296.54 67.8C297.08 67.5 297.5 67.26 297.74 67.14C297.98 67.02 298.4 66.84 298.88 66.6C299.36 66.36 299.84 66.24 300.2 66.18C300.56 66.12 300.92 66.06 301.4 66.06C301.88 66.06 302.36 66.12 302.84 66.24C303.2 66.36 303.86 66.54 304.7 66.72C305.54 66.96 306.14 67.08 306.56 67.2C307.7 67.56 308.24 68.4 308.12 69.72C307.7 73.8 307.34 77.82 306.98 81.84C306.92 81.96 306.8 82.8 306.56 84.42C307.28 84.66 307.88 84.96 308.42 85.2C308.9 85.44 309.56 85.8 310.34 86.22C311.06 86.7 311.66 87 312.02 87.18C312.14 87.3 312.32 87.36 312.56 87.48C313.34 87.96 313.94 88.26 314.3 88.44C314.66 88.68 315.02 88.98 315.44 89.34C315.86 89.7 316.1 90.06 316.16 90.42C316.22 90.78 316.16 91.2 316.04 91.68C315.86 92.22 315.56 92.82 315.14 93.42C314.9 93.66 314.66 94.02 314.36 94.44L313.76 95.28C313.64 95.4 313.52 95.64 313.28 95.88C313.04 96.12 312.92 96.3 312.8 96.36C312.68 96.42 312.56 96.48 312.38 96.54C312.14 96.66 311.96 96.66 311.84 96.6C311.66 96.54 311.48 96.48 311.24 96.36C311 96.3 310.7 96.18 310.46 96C310.16 95.88 308.9 94.86 306.68 93.06C304.4 91.26 303.26 90.24 303.14 90ZM322.52 114.6C323.48 114.6 324.32 114.24 325.04 113.4C325.76 112.62 326.12 111.66 326.12 110.46C326.12 108.78 325.16 107.76 323.36 107.34C321.38 106.98 317.48 106.74 311.66 106.74H311.6C311 106.74 310.52 106.86 310.1 107.04C309.68 107.28 309.32 107.58 309.08 108C308.84 108.42 308.66 108.78 308.54 109.08C308.42 109.44 308.3 109.86 308.18 110.46C308.06 110.76 308.06 111 308.06 111.24C308.06 111.9 308.24 112.44 308.72 112.8C309.2 113.22 309.74 113.46 310.46 113.58C311.12 113.76 312.02 113.88 313.22 114C314.36 114.12 315.38 114.24 316.28 114.24C317.12 114.3 318.26 114.36 319.64 114.42C321.02 114.54 321.92 114.6 322.34 114.6H322.52ZM313.7 100.62C315.98 100.62 318.74 100.86 321.86 101.22C324.98 101.58 327.62 102.06 329.78 102.66C333.44 103.74 335.48 105.66 335.9 108.42C336.02 109.14 336.08 109.8 336.08 110.4C336.08 113.1 335 115.26 332.9 116.82C331.46 117.9 330.26 118.8 329.3 119.4C328.34 120 327.2 120.6 325.76 121.14C324.32 121.74 322.88 122.04 321.44 122.04C320.84 122.04 319.4 122.16 317.06 122.28C314.72 122.4 313.16 122.46 312.38 122.46C311.24 122.46 310.22 122.4 309.38 122.22C309.14 122.22 308.9 122.22 308.54 122.1C306.86 121.86 305.54 121.62 304.7 121.44C303.8 121.26 302.72 120.9 301.46 120.3C300.2 119.76 299.12 119.04 298.28 118.14C296.66 116.58 295.88 115.14 295.88 113.76C295.88 111 296.24 108.9 297.08 107.52C299.3 103.8 303.92 101.52 310.88 100.8C311.78 100.68 312.74 100.62 313.7 100.62Z" fill="white"/>
</svg>
