<svg width="181" height="151" viewBox="0 0 181 151" fill="none" xmlns="http://www.w3.org/2000/svg">
<rect x="0.5" y="0.5" width="90" height="120" fill="#FF961E"/>
<rect x="0.5" y="0.5" width="90" height="120" stroke="black"/>
<path d="M70.1 50.22C70.04 53.34 69.92 55.62 69.8 57.06C69.62 58.68 69.26 60.24 68.78 61.74C68.54 62.46 68.3 62.94 67.94 63.06C67.58 63.24 66.98 63.3 66.08 63.18C64.76 63.06 63.92 63 63.62 63C62.66 63.06 62.12 62.7 62 61.92C61.76 60.72 61.58 59.52 61.46 58.32C61.4 57.72 61.34 56.88 61.28 55.74C61.22 54.6 61.16 53.82 61.16 53.4C61.1 52.74 60.74 52.26 60.14 52.02C59.54 51.78 58.88 51.84 58.22 52.2C57.86 52.44 57.74 52.8 57.8 53.28C57.86 54.06 58.04 55.38 58.28 57.24C58.52 59.16 58.64 60.6 58.76 61.56C58.82 62.16 58.76 62.94 58.52 63.96C58.4 64.32 58.16 64.56 57.8 64.68L54.44 65.76C52.82 65.94 51.68 65.82 51.08 65.4C50.48 65.1 50.18 64.68 50.18 64.14C49.76 59.1 49.52 55.08 49.4 52.14L49.1 40.14L49.76 37.56L53.48 37.26C54.14 37.32 54.68 37.38 55.04 37.44C55.64 37.56 56.06 37.92 56.36 38.46C56.6 39 56.72 39.48 56.72 39.9L56.66 40.56L56.42 46.08L58.16 47.58H59.42C60.38 47.52 60.98 47.34 61.28 47.1C61.52 46.86 61.7 46.38 61.7 45.6C61.64 45 61.58 43.8 61.52 42.06C61.46 40.32 61.46 39 61.46 38.04C61.4 37.32 61.52 36.9 61.88 36.66C62.18 36.42 62.78 36.3 63.68 36.24C66.5 36.18 68.48 36.9 69.68 38.34C69.86 38.58 69.98 38.88 70.1 39.18C70.22 39.54 70.28 39.9 70.4 40.26C70.46 40.68 70.52 40.98 70.64 41.16C70.52 41.16 70.4 42.3 70.28 44.52C70.16 46.8 70.1 48.66 70.1 50.22ZM27.68 51.96C23.6 51.24 21.38 50.82 20.96 50.7C19.7 50.46 19.1 49.8 19.16 48.66V44.64C21.02 43.92 23.06 43.5 25.34 43.26C27.62 43.08 29.54 43.02 31.16 43.08C32.72 43.2 34.88 43.38 37.52 43.68C38.24 43.8 39.02 43.8 39.86 43.8C40.7 43.8 41.66 43.8 42.8 43.8C43.94 43.8 44.84 43.74 45.44 43.74V47.4C45.44 48 45.26 48.36 44.9 48.6C44.48 48.84 44 49.02 43.4 49.14C42.8 49.26 42.44 49.5 42.26 49.8L43.04 50.58C46.4 52.86 47.36 55.98 45.98 59.94C45.38 61.62 44 63.72 41.84 66.18C41.48 66.54 41 66.9 40.28 67.14C39.56 67.38 38.9 67.56 38.24 67.56C34.94 67.68 32.06 67.62 29.66 67.26C26.18 66.78 23.84 65.46 22.7 63.24C21.5 61.02 21.92 58.62 23.84 56.04C24.14 55.62 24.5 55.2 24.92 54.72C25.34 54.24 25.82 53.76 26.42 53.16C26.96 52.62 27.38 52.2 27.68 51.96ZM38.96 59.34C38.9 58.38 38.6 57.72 38.06 57.36C37.46 57 36.5 56.76 35.12 56.64C34.16 56.64 33.38 57.06 32.84 57.9C32.24 58.74 31.88 59.82 31.7 61.02C31.58 61.74 31.82 62.22 32.3 62.52C32.78 62.88 33.62 63 34.76 63C35.96 63 36.92 62.7 37.76 61.98C38.54 61.26 38.96 60.42 38.96 59.34ZM27.5 42.36C27.74 40.2 27.92 38.82 28.04 38.22C28.04 38.16 28.1 38.04 28.22 37.92C28.82 37.26 30.14 36.72 32.18 36.3C34.16 35.88 35.66 35.82 36.62 36.18C37.94 36.66 38.72 37.56 38.96 38.76C39.2 40.02 38.84 41.04 37.76 41.82C37.04 42.3 36.14 42.6 35.06 42.6C34.64 42.6 32.72 42.54 29.3 42.42C29.06 42.42 28.46 42.42 27.5 42.36ZM57.92 68.46C58.04 68.34 58.28 68.22 58.52 68.16C58.76 68.16 59 68.16 59.24 68.28C59.48 68.4 59.72 68.46 59.96 68.58C60.14 68.7 60.38 68.82 60.62 68.94C60.86 69.12 61.04 69.24 61.1 69.24C61.34 69.42 62.48 70.08 64.4 71.28C64.88 71.58 65.12 72 65.12 72.54C65.12 72.78 65.06 72.96 65 73.14C64.76 73.62 64.34 74.28 63.62 75.06C62.9 75.9 62.42 76.5 62.24 76.98C63.92 78.06 65.36 79.08 66.68 80.04C67.16 80.46 67.7 81 68.42 81.66C69.14 82.38 69.62 82.92 69.86 83.34C69.92 83.46 69.98 83.52 70.1 83.64C70.22 83.76 70.28 83.88 70.34 83.94C70.4 84 70.46 84.06 70.46 84.12C70.46 84.3 70.34 84.54 70.22 84.78C70.04 85.08 69.98 85.26 69.98 85.26C69.8 85.62 69.62 85.92 69.44 86.16C68.72 87 68 87.72 67.22 88.32C67.1 88.44 66.92 88.62 66.68 88.98C66.38 89.34 66.14 89.52 65.9 89.52C65.3 89.52 64.52 89.16 63.44 88.38C61.94 87.3 60.5 86.16 59.06 85.02C56.78 88.08 55.22 90.18 54.38 91.32C53.66 92.22 52.82 92.64 51.98 92.64C51.38 92.64 50.78 92.46 50.06 91.98C49.1 91.38 47.84 90.66 46.28 89.7C46.22 89.82 46.22 89.88 46.22 89.88C45.56 91.32 44.6 92.04 43.4 92.04C42.86 92.04 42.32 91.92 41.84 91.56C41.36 91.26 40.64 90.72 39.68 90C38.72 89.28 38.06 88.8 37.58 88.44C36.14 87.54 34.58 86.58 32.9 85.62C32.66 85.5 32.24 85.38 31.7 85.2C31.16 85.86 30.74 86.34 30.5 86.7C30.26 87 29.78 87.66 29.06 88.68C28.34 89.76 27.74 90.54 27.32 91.08C27.08 91.44 26.6 91.86 25.94 92.34C25.34 92.82 24.8 93 24.2 93C23.6 93 23.06 92.82 22.58 92.34C22.4 92.28 21.92 92.1 21.08 91.74C20.24 91.38 19.76 91.14 19.64 91.02C19.04 90.78 18.62 90.48 18.38 90.18C17.96 89.7 17.78 89.16 17.78 88.56C17.78 88.2 17.84 87.84 18.08 87.42C18.2 87.06 18.38 86.7 18.74 86.22C20.42 83.76 21.8 81.84 22.76 80.4C24.5 77.88 25.82 75.96 26.72 74.7C27.62 73.44 28.52 72.24 29.48 71.16C29.54 71.1 29.66 70.98 29.78 70.8C29.9 70.68 30.02 70.56 30.08 70.5C30.08 70.44 30.14 70.32 30.26 70.2C30.38 70.08 30.44 70.02 30.5 70.02C30.5 70.02 30.56 69.96 30.68 69.84C30.8 69.78 30.86 69.72 30.92 69.72C30.92 69.72 30.98 69.72 31.1 69.66C31.22 69.66 31.28 69.6 31.4 69.6H31.7C31.82 69.6 32 69.66 32.24 69.72C32.42 69.84 32.6 69.9 32.78 70.02C32.9 70.14 33.08 70.26 33.32 70.38C33.56 70.5 33.68 70.62 33.8 70.62C35.06 71.4 35.9 71.94 36.26 72.3C36.86 73.02 37.22 73.74 37.22 74.52C37.22 75.06 37.1 75.54 36.86 76.02C36.68 76.38 36.5 76.8 36.32 77.34C36.92 77.64 38.12 78.24 39.98 79.14C40.64 79.5 41.72 80.1 43.16 80.82C44.6 81.6 45.74 82.14 46.52 82.5C47.24 81.54 48.32 80.1 49.88 78.12C52.64 74.58 55.28 71.34 57.92 68.46Z" fill="white"/>
<rect x="90.5" y="30.5" width="90" height="120" fill="#FF961E"/>
<rect x="90.5" y="30.5" width="90" height="120" stroke="black"/>
<path d="M151.88 90.12C147.8 90.42 145.58 90.54 145.22 90.54L144.14 90.72C143.66 90.84 143.24 90.9 143 90.9C142.7 90.96 142.4 90.9 142.04 90.78C141.68 90.66 141.38 90.42 141.14 90.06C140.06 88.62 140 86.82 141.08 84.6C142.04 82.44 143.72 81.48 146.18 81.6C146.54 81.66 147.02 81.66 147.5 81.6C147.98 81.6 148.52 81.54 149.18 81.42C149.78 81.36 150.32 81.3 150.68 81.3V75.72V74.7V73.62C150.68 71.58 150.86 70.26 151.34 69.72C151.82 69.18 153.08 68.76 155.18 68.46C155.42 68.46 156.14 68.22 157.34 67.8C158.9 67.2 160.16 67.26 161 67.86C161.84 68.52 162.26 69.66 162.26 71.34C162.2 73.8 162.02 80.46 161.72 91.26C161.42 100.98 161.18 108 161.06 112.26C160.94 113.46 160.76 114.6 160.52 115.74C159.92 117.78 158.84 118.8 157.28 118.74C156.92 118.74 156.32 118.68 155.54 118.68C154.7 118.68 154.04 118.68 153.44 118.68C152.84 118.68 152.24 118.62 151.7 118.5C151.16 118.44 150.74 118.2 150.44 117.78C150.08 117.42 149.96 116.88 150.02 116.16C150.08 115.32 150.14 113.7 150.2 111.42C150.26 109.14 150.32 107.88 150.32 107.52C150.32 107.28 150.38 106.86 150.38 106.14C150.32 105.18 149.78 104.82 148.76 105C147.32 105.24 145.52 105.54 143.36 105.84C142.76 105.96 142.34 105.84 141.98 105.54C141.62 105.24 141.44 104.82 141.56 104.34C141.8 102 142.22 99.84 142.82 97.86C142.82 97.8 142.88 97.74 143 97.62C143.12 97.56 143.24 97.5 143.48 97.44C143.66 97.38 143.84 97.32 143.96 97.26C144.08 97.26 144.32 97.2 144.56 97.14C144.8 97.08 144.98 97.02 145.1 97.02C145.46 96.96 146.06 96.84 146.9 96.72C147.74 96.6 148.34 96.42 148.82 96.3C149.06 96.3 149.36 96.24 149.84 96.12C150.26 96.06 150.56 96 150.74 95.94C150.92 95.88 151.16 95.76 151.4 95.64C151.64 95.52 151.76 95.34 151.82 95.1C151.88 94.86 151.94 94.56 151.94 94.2C151.88 93.96 151.88 92.64 151.88 90.12ZM114.56 73.74C120.32 74.16 123.5 74.4 124.1 74.4C126.74 74.64 128.78 74.82 130.22 74.94C131 75.06 131.72 75.54 132.32 76.38C132.92 77.22 133.22 78.12 133.1 79.02C132.98 80.04 132.56 81.96 131.72 84.84C131.48 85.44 131.18 86.28 130.82 87.48C130.4 88.68 130.1 89.64 129.98 90.24C129.68 91.2 129.62 91.92 129.86 92.52C129.98 93 130.46 93.36 131.3 93.54C132.38 93.84 134.78 94.38 138.38 95.16C139.52 95.4 139.88 96.12 139.52 97.32C139.4 97.68 139.1 98.7 138.68 100.26C138.2 101.82 137.84 103.02 137.54 103.8C136.64 105.96 135.32 106.92 133.52 106.8C133.28 106.8 133.16 106.86 133.1 106.86C132.62 107.1 132.14 107.22 131.72 107.22C131.24 107.22 130.88 107.22 130.64 107.16C130.34 107.1 129.98 106.92 129.56 106.56C129.08 106.2 128.84 105.96 128.72 105.84C128.6 105.72 128.3 105.36 127.82 104.82C126.62 103.62 125.96 102.9 125.78 102.66C125.3 102.3 124.82 102.12 124.34 102.12C123.8 102.12 123.32 102.36 122.9 102.78C122 103.68 121.22 104.64 120.56 105.66C120.32 105.96 119.36 107.58 117.62 110.52C116.96 111.6 116 112.26 114.68 112.62C113.36 112.98 112.04 112.98 110.72 112.56C109.4 112.2 108.5 111.48 107.96 110.46C107.12 109.02 106.82 107.04 107.06 104.52C107.12 103.8 107.6 103.08 108.44 102.48C109.4 101.76 110.78 100.8 112.64 99.54C114.44 98.28 115.82 97.32 116.66 96.66C117.98 95.7 119.06 94.74 119.9 93.78C120.74 92.82 121.28 91.62 121.64 90.24C121.88 89.16 121.7 88.32 121.16 87.66C120.56 87.06 119.72 86.76 118.58 86.82C114.98 87.12 112.1 86.34 110.06 84.54C109.34 83.94 108.92 83.16 108.92 82.26C108.8 81.42 108.86 79.56 109.1 76.74C109.1 76.56 109.16 76.32 109.4 76.08C109.58 75.84 109.7 75.6 109.76 75.42C109.82 75.24 109.76 74.94 109.58 74.58L110 74.28C110.18 74.16 110.36 74.1 110.48 74.04C110.6 73.98 110.78 73.92 110.9 73.92C111.14 73.92 112.4 73.86 114.56 73.86V73.74Z" fill="white"/>
</svg>
