<svg width="271" height="121" viewBox="0 0 271 121" fill="none" xmlns="http://www.w3.org/2000/svg">
<rect x="0.5" y="0.5" width="90" height="120" fill="#FF961E"/>
<rect x="0.5" y="0.5" width="90" height="120" stroke="black"/>
<path d="M57.14 37.62C59.42 37.5 60.68 37.44 60.8 37.44C62.12 37.5 63.38 37.62 64.7 37.8C66.02 37.98 67.16 38.1 68.18 38.16C69.32 38.28 69.92 38.94 69.98 40.08C69.98 41.52 70.1 43.74 70.28 46.68C70.46 49.68 70.58 51.9 70.64 53.4C70.7 54.54 70.7 56.58 70.7 59.46C70.7 62.4 70.7 64.44 70.7 65.52C70.7 67.14 70.7 70.44 70.7 75.48C70.7 80.52 70.7 83.88 70.7 85.5V85.62C70.7 86.46 70.58 87.3 70.34 88.02C69.8 89.52 68.84 90.24 67.46 90.18C66.8 90.18 66.02 90.24 65.18 90.24C64.34 90.24 63.62 90.24 63.02 90.12C62.54 90.12 62 89.94 61.52 89.64C60.98 89.4 60.62 89.04 60.5 88.68C59.3 85.8 58.7 83.58 58.64 82.02C58.46 78.54 58.34 72.6 58.28 64.32C58.22 56.04 58.16 50.4 58.04 47.34C58.04 46.38 57.98 45.42 57.86 44.34C57.74 43.26 57.62 42.06 57.5 40.68L57.14 37.62ZM19.04 46.86C19.46 46.14 20.12 45.66 20.96 45.48C25.88 44.58 29.66 43.92 32.3 43.56C36.26 43.02 39.92 42.96 43.34 43.44C43.4 43.44 43.58 43.5 43.94 43.5C44.24 43.56 44.48 43.62 44.6 43.62C44.72 43.62 44.96 43.68 45.2 43.74C45.44 43.8 45.62 43.86 45.8 43.98C45.98 44.1 46.16 44.28 46.34 44.4C46.64 44.7 46.94 45.3 47.3 46.2C48.8 50.52 49.46 55.32 49.22 60.72C49.1 62.7 48.8 65.58 48.32 69.42C48.2 70.26 48.08 72.06 47.9 74.94C47.72 77.82 47.42 79.98 47.06 81.48C46.64 83.16 46.1 84.24 45.5 84.84C45.02 85.32 43.58 85.68 41.3 85.8C39.02 85.98 36.92 85.98 35.12 85.86C34.16 85.86 33.68 85.56 33.56 84.96C33.44 84.72 33.44 84.48 33.56 84.12C33.62 83.76 33.74 83.4 33.86 82.98C33.98 82.62 34.04 82.32 34.04 82.14C34.22 81.06 34.4 79.98 34.52 78.84C34.76 76.86 34.88 74.7 35 72.36C35.06 69.48 35 65.22 34.82 59.52C34.76 58.68 34.64 58.08 34.46 57.72C33.92 56.76 32.66 56.52 30.74 56.94C28.52 57.48 24.56 57.66 18.86 57.42C18.56 57.42 18.38 57.36 18.26 57.24C18.08 57.12 18.02 56.76 18.08 56.28C18.44 50.52 18.74 47.34 19.04 46.86Z" fill="white"/>
<rect x="90.5" y="0.5" width="90" height="120" fill="#FF961E"/>
<rect x="90.5" y="0.5" width="90" height="120" stroke="black"/>
<path d="M121.46 60.6H124.46H128.96H131.96C139.28 60.48 143.54 60.42 144.68 60.42C145.76 60.48 148.22 60.6 152 60.78C155.72 60.96 157.7 61.02 157.94 61.02C158.12 61.08 158.48 61.14 159.02 61.26C159.86 61.5 160.4 61.8 160.7 62.16C161 62.52 161.12 63.12 161 63.96C160.94 64.32 160.88 64.56 160.88 64.8C160.82 65.04 160.76 65.28 160.76 65.46C160.7 65.64 160.64 65.82 160.52 65.94C160.4 66.12 160.28 66.24 160.28 66.36C160.22 66.48 160.1 66.6 159.92 66.72C159.68 66.84 159.56 66.9 159.44 66.96C159.32 67.02 159.14 67.08 158.84 67.14C158.54 67.26 158.3 67.32 158.18 67.32C158.06 67.38 157.76 67.44 157.34 67.56C156.86 67.68 156.56 67.74 156.32 67.8C155.84 67.92 153.32 68.04 148.64 68.16C143.96 68.34 141.38 68.52 140.9 68.64C140.72 68.7 140.6 69.12 140.6 69.84C140.6 70.62 140.6 71.4 140.6 72.12C140.6 72.9 140.6 73.5 140.6 73.98C140.6 74.1 140.6 74.34 140.66 74.7C140.72 75.06 140.72 75.3 140.6 75.3C139.88 76.32 138.68 76.86 136.88 76.92C135.08 76.98 133.7 76.56 132.74 75.72C132.38 75.48 132.2 75.24 132.14 75C131.96 74.64 131.9 73.98 131.9 72.9C131.9 71.82 131.78 70.92 131.66 70.14C131.54 69.36 131.24 68.94 130.88 68.82C130.28 68.76 127.82 68.7 123.5 68.58C119.18 68.46 116.66 68.46 115.94 68.46C114.98 68.7 114.2 68.76 113.54 68.64C112.88 68.58 112.4 68.16 112.1 67.38C111.5 66.06 111.32 64.56 111.56 62.94C111.62 62.58 111.98 62.16 112.58 61.74C113.18 61.38 114.56 61.02 116.78 60.78C118.94 60.54 120.5 60.48 121.46 60.6ZM134.96 36.54C138.8 36.78 140.72 36.9 140.78 36.9C146.3 37.44 150.56 39.6 153.62 43.32C153.98 43.86 154.28 44.64 154.46 45.66C154.7 47.58 154.28 49.74 153.32 52.2C152.24 54.96 150.2 56.64 147.08 57.24C144.8 57.72 142.4 57.9 139.82 57.9C139.1 57.9 137.78 57.96 135.8 58.02C133.82 58.14 132.32 58.14 131.24 58.08C127.28 57.9 123.86 57.18 121.1 55.98C117.74 54.6 116.24 52.26 116.6 48.96C116.9 46.26 118.34 43.68 120.86 41.16C122.84 39.18 126.02 37.74 130.46 36.9C130.88 36.84 131.36 36.78 131.9 36.72C132.38 36.72 132.98 36.66 133.58 36.66C134.18 36.66 134.66 36.6 134.96 36.54ZM135.08 51.48C137.48 51.36 138.74 51.24 138.92 51.24C139.64 51.18 140.42 50.88 141.14 50.4C141.86 49.92 142.28 49.44 142.4 48.96C142.52 47.88 142.4 46.92 141.92 46.2C141.44 45.48 140.48 45 139.16 44.7C136.22 44.1 133.58 44.04 131.3 44.58C130.1 44.88 129.44 45.12 129.26 45.3C128.6 46.02 127.94 47.04 127.22 48.36C126.62 49.44 127.04 50.1 128.42 50.46C131.3 51.3 133.52 51.66 135.08 51.48ZM132.74 80.94H138.92H145.52C150.38 80.94 153.68 81 155.42 81C155.54 81 155.72 81.06 155.84 81.06C155.96 81.12 156.02 81.18 156.14 81.18C156.2 81.24 156.26 81.3 156.38 81.42L156.56 81.72C156.56 81.78 156.62 81.9 156.68 82.02C156.68 82.2 156.74 82.32 156.74 82.38C156.74 82.44 156.8 82.56 156.86 82.74C156.86 82.92 156.92 83.04 156.92 83.04C156.98 83.46 157.04 83.88 157.04 84.3C157.04 85.68 156.62 87.06 155.9 88.5C155.66 88.92 155.18 89.22 154.34 89.34C153.5 89.46 150.68 89.64 145.88 89.88C141.08 90.12 138.26 90.3 137.36 90.42C137.12 90.48 136.88 90.48 136.7 90.48C135.68 90.48 133.52 90.54 130.22 90.6C126.92 90.66 124.52 90.72 123.02 90.78C122.66 90.78 122 90.84 121.16 90.9C120.32 90.96 119.66 90.96 119.24 90.96C117.86 90.96 116.72 90.72 115.82 90.18C115.58 90.06 115.34 89.76 115.1 89.4C114.86 89.04 114.74 88.74 114.74 88.38C114.62 86.58 114.44 83.7 114.26 79.74C114.02 75.78 113.9 73.44 113.9 72.72H113.96C114.14 72.72 114.5 72.66 115.04 72.54C115.58 72.42 116 72.24 116.24 72.06C116.54 71.82 117.02 71.7 117.62 71.7C118.4 71.7 119.66 72 121.34 72.54C121.82 72.72 122.06 73.02 122.06 73.44C122.06 73.62 122 73.86 122 74.16C122 74.52 122 74.76 122 74.94V76.2V77.4V79.2V80.94H132.74Z" fill="white"/>
<rect x="180.5" y="0.5" width="90" height="120" fill="#FF961E"/>
<rect x="180.5" y="0.5" width="90" height="120" stroke="black"/>
<path d="M237.14 37.62C239.42 37.5 240.68 37.44 240.8 37.44C242.12 37.5 243.38 37.62 244.7 37.8C246.02 37.98 247.16 38.1 248.18 38.16C249.32 38.28 249.92 38.94 249.98 40.08C249.98 41.52 250.1 43.74 250.28 46.68C250.46 49.68 250.58 51.9 250.64 53.4C250.7 54.54 250.7 56.58 250.7 59.46C250.7 62.4 250.7 64.44 250.7 65.52C250.7 67.14 250.7 70.44 250.7 75.48C250.7 80.52 250.7 83.88 250.7 85.5V85.62C250.7 86.46 250.58 87.3 250.34 88.02C249.8 89.52 248.84 90.24 247.46 90.18C246.8 90.18 246.02 90.24 245.18 90.24C244.34 90.24 243.62 90.24 243.02 90.12C242.54 90.12 242 89.94 241.52 89.64C240.98 89.4 240.62 89.04 240.5 88.68C239.3 85.8 238.7 83.58 238.64 82.02C238.46 78.54 238.34 72.6 238.28 64.32C238.22 56.04 238.16 50.4 238.04 47.34C238.04 46.38 237.98 45.42 237.86 44.34C237.74 43.26 237.62 42.06 237.5 40.68L237.14 37.62ZM200.36 44.52C208.28 44.88 212.66 45 213.38 45C214.04 45.06 215.3 45.18 217.1 45.3C218.9 45.42 220.34 45.54 221.3 45.54C222.86 45.6 224.84 45.48 227.3 45.24C228.5 45.12 229.52 45.42 230.24 46.02C230.96 46.62 231.38 47.34 231.62 48.18C231.8 49.02 231.86 49.92 231.74 50.88C231.68 51.24 231.56 51.78 231.32 52.44C231.08 53.1 230.96 53.58 230.96 53.88C230.84 55.2 230.06 55.86 228.74 55.86C225.62 55.98 223.16 55.98 221.48 55.92C220.58 55.92 217.58 55.8 212.48 55.5L211.4 55.38C210.14 55.14 209.36 55.56 209 56.52C208.58 57.54 208.4 58.14 208.4 58.38C208.4 64.98 208.52 69.72 208.64 72.66C208.64 72.84 208.76 73.02 209 73.2C209.24 73.44 209.42 73.5 209.6 73.5C210.2 73.62 211.1 73.68 212.3 73.74C213.5 73.8 214.28 73.86 214.7 73.86C221.42 74.4 226.16 74.82 228.98 75.06C229.16 75.06 229.4 75.3 229.64 75.66C229.88 76.08 230.06 76.44 230.06 76.68C229.94 78.84 229.76 80.22 229.52 80.82C229.28 81.42 228.38 82.5 226.88 84.18C226.52 84.54 226.04 84.78 225.56 84.78C225.02 84.84 223.64 84.9 221.48 85.02C219.32 85.14 217.64 85.32 216.5 85.44C212.54 85.98 208.1 85.56 203.18 84.24C202.22 84 201.44 83.58 200.84 83.04C200.24 82.5 199.88 81.66 199.64 80.58C199.16 78.66 198.8 76.44 198.68 74.04C198.56 71.64 198.5 69.48 198.56 67.5C198.62 65.58 198.62 63.42 198.56 61.02C198.44 57.18 198.8 53.22 199.7 49.26C199.7 49.14 199.94 47.52 200.36 44.52Z" fill="white"/>
</svg>
