<svg width="91" height="121" viewBox="0 0 91 121" fill="none" xmlns="http://www.w3.org/2000/svg">
<rect x="0.5" y="0.5" width="90" height="120" fill="#FF961E"/>
<rect x="0.5" y="0.5" width="90" height="120" stroke="black"/>
<path d="M71.12 39.96C71.12 40.02 71.12 40.08 71.24 40.08C71.36 40.2 71.6 40.26 71.96 40.38C72.32 40.5 72.62 40.56 72.86 40.68C73.1 40.8 73.22 40.92 73.28 41.04C73.58 42.18 73.7 43.5 73.64 44.94C73.58 45.42 73.28 48.6 72.8 54.48C72.38 58.92 72.02 63.36 71.66 67.8C71.24 72.12 71 74.7 71 75.54C70.88 76.26 70.82 77.22 70.76 78.48C70.7 79.74 70.64 80.88 70.58 81.9C70.46 82.92 70.4 83.88 70.28 84.78C70.16 85.62 69.56 86.82 68.6 88.44C68.36 88.86 67.82 89.04 66.98 89.04C66.8 89.1 65.06 89.1 61.7 89.1C61.1 89.1 60.62 88.98 60.26 88.62C59.9 88.26 59.66 87.84 59.66 87.24L59.24 80.94C59.24 80.82 59.18 80.4 59.12 79.68C59 78.96 59 78.42 59.06 78.06C59.18 76.32 59.42 74.58 59.78 72.84C59.96 71.7 59.9 70.92 59.54 70.56C59.18 70.2 58.46 70.14 57.38 70.38C55.7 70.74 54.32 70.32 53.24 69.24C52.1 68.16 51.68 66.84 51.98 65.16C52.22 63.6 52.88 62.34 53.96 61.38C54.98 60.48 56.3 59.94 57.98 59.82C58.76 59.82 59.48 59.52 60.08 58.98C60.68 58.44 61.04 57.78 61.1 57.06C61.16 55.86 61.28 54 61.52 51.36C61.7 48.78 61.82 46.8 61.94 45.42C62 44.82 62.18 43.74 62.54 42.3C62.84 40.98 63.68 40.38 65.06 40.38C66.62 40.44 68.12 40.44 69.5 40.44C69.5 40.44 70.04 40.32 71.12 39.96ZM29.36 71.1C32.36 71.4 34.58 71.52 36.02 71.52C36.56 71.58 37.16 71.64 37.88 71.64C38.6 71.7 39.08 71.76 39.44 71.76C39.8 71.76 40.22 71.76 40.82 71.7C41.42 71.64 42.08 71.52 42.8 71.34C44.24 71.04 45.8 71.46 47.48 72.66C47.66 72.84 47.84 73.08 47.96 73.44C48.08 73.8 48.14 74.16 48.08 74.4C47.96 75.3 47.78 76.02 47.66 76.56C47.54 77.16 47.42 77.52 47.36 77.76C47.24 78 47 78.48 46.64 79.26C46.28 80.04 45.98 80.64 45.74 81.12C44.84 83.04 43.4 84.12 41.42 84.24C39.98 84.36 38.12 84.6 35.9 84.96C33.62 85.32 32 85.5 30.92 85.56C29.84 85.68 28.04 85.68 25.4 85.56C23.78 85.44 22.22 85.2 20.66 84.78C19.34 84.48 18.62 83.52 18.56 81.96C18.5 81.06 18.44 79.8 18.38 78.24C18.26 76.68 18.2 75.18 18.14 73.86C18.08 72.54 18.08 71.28 18.08 70.08C17.96 64.2 17.96 58.38 18.08 52.5C18.08 51.24 18.32 49.8 18.92 48.18C19.28 47.16 19.76 46.44 20.36 46.08C20.96 45.72 21.92 45.48 23.24 45.36C23.84 45.3 24.8 45.3 26.24 45.36C26.36 45.36 26.54 45.48 26.78 45.6C27.02 45.72 27.2 45.84 27.26 45.84C27.74 46.08 28.04 46.14 28.22 46.14C28.88 46.14 29.36 46.26 29.66 46.5C29.9 46.74 30.14 47.28 30.32 48C30.56 48.9 30.68 49.86 30.68 50.94C30.68 52.02 30.62 52.92 30.56 53.7C30.44 54.48 30.32 55.44 30.14 56.64C29.96 57.84 29.84 58.74 29.84 59.4C29.72 60.36 29.6 62.4 29.54 65.52C29.42 68.64 29.36 70.5 29.36 71.1Z" fill="white"/>
</svg>
