<svg width="451" height="151" viewBox="0 0 451 151" fill="none" xmlns="http://www.w3.org/2000/svg">
<rect x="0.5" y="0.5" width="90" height="120" fill="#FF961E"/>
<rect x="0.5" y="0.5" width="90" height="120" stroke="black"/>
<path d="M61.1 89.22C59.18 89.22 57.86 88.92 57.14 88.2C56.42 87.48 56.06 86.16 55.94 84.18C55.64 78.6 55.52 74.76 55.52 72.66C55.52 69.72 55.7 60.42 56.12 44.82C56.12 44.4 56.18 43.92 56.3 43.44C56.36 42.96 56.42 42.54 56.54 42.18C56.6 41.82 56.72 41.4 56.9 40.8C57.02 40.2 57.14 39.78 57.26 39.42C57.38 38.94 57.62 38.58 58.04 38.46C58.16 38.46 58.58 38.34 59.24 38.16C59.9 37.98 60.38 37.86 60.62 37.8C60.86 37.74 61.22 37.68 61.82 37.56C62.36 37.44 62.78 37.44 63.14 37.44C63.5 37.44 63.92 37.5 64.4 37.62C64.88 37.74 65.3 37.86 65.78 38.04C66.92 38.64 67.58 39.72 67.7 41.28C67.7 42 67.76 44.4 67.82 48.54C67.82 52.68 67.94 55.26 68.06 56.28C68.18 57 68.6 57.78 69.32 58.56C69.68 58.98 70.04 59.4 70.46 59.82C70.88 60.3 71.36 60.78 71.9 61.26C72.38 61.8 72.8 62.22 73.16 62.46C73.64 62.94 73.94 63.48 74.18 64.02C74.42 64.62 74.48 65.28 74.42 66C74.36 66.72 74.3 67.26 74.24 67.62C74.12 67.98 74 68.64 73.76 69.48C73.4 70.92 72.14 71.7 69.98 71.7C68.84 71.7 68.12 71.88 67.88 72.18C67.58 72.54 67.46 73.32 67.52 74.64C67.52 75.54 67.52 77.16 67.58 79.44C67.64 81.72 67.7 83.28 67.7 84.06C67.7 85.68 67.28 86.76 66.32 87.3C63.92 88.62 62.18 89.28 61.1 89.22ZM34.7 87.96C29.48 87.9 25.16 86.1 21.68 82.5C20.48 81.3 19.64 79.26 19.28 76.38C18.68 72.42 18.38 68.88 18.44 65.82C18.44 60.54 19.58 55.44 21.86 50.52C22.04 50.1 22.22 49.8 22.4 49.62C25.52 46.5 27.5 44.58 28.34 43.86C28.52 43.68 28.76 43.56 29.06 43.44C29.3 43.38 29.66 43.32 30.14 43.26C30.56 43.2 30.86 43.14 31.04 43.14C33.74 42.54 36.32 42.72 38.72 43.68C41.12 44.64 43.64 46.2 46.16 48.24C47.18 49.2 48.02 50.04 48.62 50.82C49.22 51.6 49.64 52.5 49.88 53.52C50.36 56.1 50.54 58.26 50.36 59.94C50 64.02 49.34 68.46 48.5 73.32C47.48 79.02 44.84 83.22 40.52 85.86C37.88 87.54 35.9 88.2 34.7 87.96ZM41.24 62.94C41.18 62.82 41.12 62.46 41.06 61.98C40.94 61.5 40.88 61.14 40.82 60.9C40.76 60.72 40.7 60.42 40.58 60.06C40.46 59.7 40.34 59.4 40.16 59.1C39.98 58.86 39.8 58.56 39.56 58.32C38.12 56.82 36.56 56.22 34.88 56.52C33.14 56.88 31.94 58.02 31.22 60C30.32 62.28 30.08 64.32 30.44 66.12C30.56 66.84 30.68 67.98 30.86 69.48C31.04 71.04 31.22 72.18 31.4 72.96C31.58 73.86 32.12 74.64 33.08 75.3C33.98 75.96 34.88 76.26 35.84 76.26C36.5 76.26 37.16 76.02 37.88 75.48C38.54 75 38.96 74.34 39.14 73.5C39.26 72.84 39.98 69.3 41.24 62.94Z" fill="white"/>
<rect x="90.5" y="0.5" width="90" height="120" fill="#FF961E"/>
<rect x="90.5" y="0.5" width="90" height="120" stroke="black"/>
<path d="M147.14 37.62C149.42 37.5 150.68 37.44 150.8 37.44C152.12 37.5 153.38 37.62 154.7 37.8C156.02 37.98 157.16 38.1 158.18 38.16C159.32 38.28 159.92 38.94 159.98 40.08C159.98 41.52 160.1 43.74 160.28 46.68C160.46 49.68 160.58 51.9 160.64 53.4C160.7 54.54 160.7 56.58 160.7 59.46C160.7 62.4 160.7 64.44 160.7 65.52C160.7 67.14 160.7 70.44 160.7 75.48C160.7 80.52 160.7 83.88 160.7 85.5V85.62C160.7 86.46 160.58 87.3 160.34 88.02C159.8 89.52 158.84 90.24 157.46 90.18C156.8 90.18 156.02 90.24 155.18 90.24C154.34 90.24 153.62 90.24 153.02 90.12C152.54 90.12 152 89.94 151.52 89.64C150.98 89.4 150.62 89.04 150.5 88.68C149.3 85.8 148.7 83.58 148.64 82.02C148.46 78.54 148.34 72.6 148.28 64.32C148.22 56.04 148.16 50.4 148.04 47.34C148.04 46.38 147.98 45.42 147.86 44.34C147.74 43.26 147.62 42.06 147.5 40.68L147.14 37.62ZM119.36 71.1C122.36 71.4 124.58 71.52 126.02 71.52C126.56 71.58 127.16 71.64 127.88 71.64C128.6 71.7 129.08 71.76 129.44 71.76C129.8 71.76 130.22 71.76 130.82 71.7C131.42 71.64 132.08 71.52 132.8 71.34C134.24 71.04 135.8 71.46 137.48 72.66C137.66 72.84 137.84 73.08 137.96 73.44C138.08 73.8 138.14 74.16 138.08 74.4C137.96 75.3 137.78 76.02 137.66 76.56C137.54 77.16 137.42 77.52 137.36 77.76C137.24 78 137 78.48 136.64 79.26C136.28 80.04 135.98 80.64 135.74 81.12C134.84 83.04 133.4 84.12 131.42 84.24C129.98 84.36 128.12 84.6 125.9 84.96C123.62 85.32 122 85.5 120.92 85.56C119.84 85.68 118.04 85.68 115.4 85.56C113.78 85.44 112.22 85.2 110.66 84.78C109.34 84.48 108.62 83.52 108.56 81.96C108.5 81.06 108.44 79.8 108.38 78.24C108.26 76.68 108.2 75.18 108.14 73.86C108.08 72.54 108.08 71.28 108.08 70.08C107.96 64.2 107.96 58.38 108.08 52.5C108.08 51.24 108.32 49.8 108.92 48.18C109.28 47.16 109.76 46.44 110.36 46.08C110.96 45.72 111.92 45.48 113.24 45.36C113.84 45.3 114.8 45.3 116.24 45.36C116.36 45.36 116.54 45.48 116.78 45.6C117.02 45.72 117.2 45.84 117.26 45.84C117.74 46.08 118.04 46.14 118.22 46.14C118.88 46.14 119.36 46.26 119.66 46.5C119.9 46.74 120.14 47.28 120.32 48C120.56 48.9 120.68 49.86 120.68 50.94C120.68 52.02 120.62 52.92 120.56 53.7C120.44 54.48 120.32 55.44 120.14 56.64C119.96 57.84 119.84 58.74 119.84 59.4C119.72 60.36 119.6 62.4 119.54 65.52C119.42 68.64 119.36 70.5 119.36 71.1Z" fill="white"/>
<rect x="180.5" y="0.5" width="90" height="120" fill="#FF961E"/>
<rect x="180.5" y="0.5" width="90" height="120" stroke="black"/>
<path d="M214.7 87.96C209.48 87.9 205.16 86.1 201.68 82.5C200.48 81.3 199.64 79.26 199.28 76.38C198.68 72.42 198.38 68.88 198.44 65.82C198.44 60.54 199.58 55.44 201.86 50.52C202.04 50.1 202.22 49.8 202.4 49.62C205.52 46.5 207.5 44.58 208.34 43.86C208.52 43.68 208.76 43.56 209.06 43.44C209.3 43.38 209.66 43.32 210.14 43.26C210.56 43.2 210.86 43.14 211.04 43.14C213.74 42.54 216.32 42.72 218.72 43.68C221.12 44.64 223.64 46.2 226.16 48.24C227.18 49.2 228.02 50.04 228.62 50.82C229.22 51.6 229.64 52.5 229.88 53.52C230.12 54.72 230.24 55.8 230.36 56.7C230.48 56.1 230.72 55.38 231.08 54.6C232.04 52.44 233.72 51.48 236.18 51.6C236.54 51.66 237.02 51.66 237.5 51.6C237.98 51.6 238.52 51.54 239.18 51.42C239.78 51.36 240.32 51.3 240.68 51.3V45.72V44.7V43.62C240.68 41.58 240.86 40.26 241.34 39.72C241.82 39.18 243.08 38.76 245.18 38.46C245.42 38.46 246.14 38.22 247.34 37.8C248.9 37.2 250.16 37.26 251 37.86C251.84 38.52 252.26 39.66 252.26 41.34C252.2 43.8 252.02 50.46 251.72 61.26C251.42 70.98 251.18 78 251.06 82.26C250.94 83.46 250.76 84.6 250.52 85.74C249.92 87.78 248.84 88.8 247.28 88.74C246.92 88.74 246.32 88.68 245.54 88.68C244.7 88.68 244.04 88.68 243.44 88.68C242.84 88.68 242.24 88.62 241.7 88.5C241.16 88.44 240.74 88.2 240.44 87.78C240.08 87.42 239.96 86.88 240.02 86.16C240.08 85.32 240.14 83.7 240.2 81.42C240.26 79.14 240.32 77.88 240.32 77.52C240.32 77.28 240.38 76.86 240.38 76.14C240.32 75.18 239.78 74.82 238.76 75C237.32 75.24 235.52 75.54 233.36 75.84C232.76 75.96 232.34 75.84 231.98 75.54C231.62 75.24 231.44 74.82 231.56 74.34C231.8 72 232.22 69.84 232.82 67.86C232.82 67.8 232.88 67.74 233 67.62C233.12 67.56 233.24 67.5 233.48 67.44C233.66 67.38 233.84 67.32 233.96 67.26C234.08 67.26 234.32 67.2 234.56 67.14C234.8 67.08 234.98 67.02 235.1 67.02C235.46 66.96 236.06 66.84 236.9 66.72C237.74 66.6 238.34 66.42 238.82 66.3C239.06 66.3 239.36 66.24 239.84 66.12C240.26 66.06 240.56 66 240.74 65.94C240.92 65.88 241.16 65.76 241.4 65.64C241.64 65.52 241.76 65.34 241.82 65.1C241.88 64.86 241.94 64.56 241.94 64.2C241.88 63.96 241.88 62.64 241.88 60.12C237.8 60.42 235.58 60.54 235.22 60.54L234.14 60.72C233.66 60.84 233.24 60.9 233 60.9C232.7 60.96 232.4 60.9 232.04 60.78C231.68 60.66 231.38 60.42 231.14 60.06C230.78 59.64 230.54 59.22 230.42 58.74C230.42 59.16 230.36 59.58 230.36 59.94C230 64.02 229.34 68.46 228.5 73.32C227.48 79.02 224.84 83.22 220.52 85.86C217.88 87.54 215.9 88.2 214.7 87.96ZM221.24 62.94C221.18 62.82 221.12 62.46 221.06 61.98C220.94 61.5 220.88 61.14 220.82 60.9C220.76 60.72 220.7 60.42 220.58 60.06C220.46 59.7 220.34 59.4 220.16 59.1C219.98 58.86 219.8 58.56 219.56 58.32C218.12 56.82 216.56 56.22 214.88 56.52C213.14 56.88 211.94 58.02 211.22 60C210.32 62.28 210.08 64.32 210.44 66.12C210.56 66.84 210.68 67.98 210.86 69.48C211.04 71.04 211.22 72.18 211.4 72.96C211.58 73.86 212.12 74.64 213.08 75.3C213.98 75.96 214.88 76.26 215.84 76.26C216.5 76.26 217.16 76.02 217.88 75.48C218.54 75 218.96 74.34 219.14 73.5C219.26 72.84 219.98 69.3 221.24 62.94Z" fill="white"/>
<rect x="270.5" y="0.5" width="90" height="120" fill="#FF961E"/>
<rect x="270.5" y="0.5" width="90" height="120" stroke="black"/>
<path d="M327.14 37.62C329.42 37.5 330.68 37.44 330.8 37.44C332.12 37.5 333.38 37.62 334.7 37.8C336.02 37.98 337.16 38.1 338.18 38.16C339.32 38.28 339.92 38.94 339.98 40.08C339.98 41.52 340.1 43.74 340.28 46.68C340.46 49.68 340.58 51.9 340.64 53.4C340.7 54.54 340.7 56.58 340.7 59.46C340.7 62.4 340.7 64.44 340.7 65.52C340.7 67.14 340.7 70.44 340.7 75.48C340.7 80.52 340.7 83.88 340.7 85.5V85.62C340.7 86.46 340.58 87.3 340.34 88.02C339.8 89.52 338.84 90.24 337.46 90.18C336.8 90.18 336.02 90.24 335.18 90.24C334.34 90.24 333.62 90.24 333.02 90.12C332.54 90.12 332 89.94 331.52 89.64C330.98 89.4 330.62 89.04 330.5 88.68C329.3 85.8 328.7 83.58 328.64 82.02C328.46 78.54 328.34 72.6 328.28 64.32C328.22 56.04 328.16 50.4 328.04 47.34C328.04 46.38 327.98 45.42 327.86 44.34C327.74 43.26 327.62 42.06 327.5 40.68L327.14 37.62ZM297.08 47.16C299.78 46.44 302.72 46.32 305.96 46.86C306.56 46.98 307.1 47.58 307.58 48.6C308.06 49.62 308.24 50.58 308.12 51.42C308.06 51.78 307.88 54.18 307.64 58.5C307.64 58.86 307.7 59.1 307.88 59.22C308 59.34 308.3 59.4 308.66 59.4C312.98 60 316.34 60.9 318.74 62.1C319.64 62.58 320.18 62.94 320.3 63.18C320.42 63.42 320.42 64.08 320.24 65.04C320 65.88 319.88 67.08 319.82 68.52C319.7 70.02 319.52 71.28 319.28 72.24C319.04 73.02 318.74 73.5 318.44 73.68C318.14 73.92 317.84 73.98 317.54 73.86C317.24 73.74 316.76 73.62 316.1 73.38C315.44 73.2 314.78 73.08 314.18 73.08C314.06 73.08 313.88 73.08 313.76 72.96L313.52 72.78C309.92 71.34 307.58 69.96 306.5 68.7C306.32 68.52 306.14 68.34 305.9 68.16C305.66 67.98 305.36 67.74 305 67.5C304.64 67.26 304.4 67.08 304.22 66.96C302.54 69.6 301.7 70.98 301.58 71.16C299.54 74.1 298.1 76.14 297.2 77.28C297.02 77.46 296.78 77.7 296.54 78.06C296.3 78.42 296.06 78.78 295.82 79.08C295.58 79.38 295.34 79.74 295.04 80.16C294.68 80.58 294.38 80.88 294.14 81.12C293.9 81.36 293.6 81.6 293.3 81.84C292.94 82.08 292.7 82.2 292.46 82.2C292.22 82.2 291.92 82.14 291.68 82.02C289.04 80.34 287.42 77.58 286.82 73.74C286.7 73.14 286.94 72.42 287.54 71.58C288.8 69.78 290.9 66.96 293.78 63.06C294.26 62.4 294.8 61.8 295.4 61.2C296.24 60.36 296.72 59.16 296.84 57.54C296.9 56.88 297.02 55.74 297.2 54.06C297.32 52.38 297.44 51.12 297.56 50.16C297.56 49.92 297.5 49.68 297.5 49.44C297.44 49.2 297.38 48.96 297.26 48.66C297.14 48.36 297.08 48.12 297.08 47.94V47.16Z" fill="white"/>
<rect x="360.5" y="30.5" width="90" height="120" fill="#FF961E"/>
<rect x="360.5" y="30.5" width="90" height="120" stroke="black"/>
<path d="M382.58 70.08C383.18 70.08 384.44 70.08 386.3 70.2C388.1 70.32 389.42 70.32 390.2 70.26C390.56 70.26 391.16 70.26 391.94 70.26C392.66 70.32 393.26 70.32 393.62 70.26C398.24 70.02 402.26 70.2 405.68 70.92C408.32 71.52 409.46 73.26 409.22 76.14C409.1 77.16 408.98 79.32 408.86 82.56C408.74 84.42 408.68 85.86 408.62 86.88C408.5 87.96 408.32 89.22 408.02 90.78C407.72 92.34 407.3 93.72 406.82 94.92C406.4 95.88 405.86 96.6 405.14 97.02C403.34 98.16 401.72 98.94 400.34 99.36C399.8 99.48 399.44 99.48 399.2 99.48C398.96 99.48 398.54 99.48 397.94 99.42C397.34 99.36 396.98 99.3 396.74 99.3C391.34 99.12 388.28 99 387.62 98.94C386.42 98.88 385.22 98.28 384.14 97.08C383 95.88 382.34 94.68 382.22 93.48C381.98 91.92 381.92 90.18 381.92 88.26C381.92 86.34 381.98 84.9 382.1 83.82C382.16 82.8 382.28 81.06 382.52 78.6C382.58 77.76 382.64 76.92 382.64 75.96C382.64 75.06 382.58 73.98 382.58 72.78C382.58 71.58 382.58 70.68 382.58 70.08ZM390.8 78.54V86.4C390.8 87.36 390.98 88.02 391.28 88.32C391.58 88.62 392.24 88.74 393.26 88.74C393.5 88.74 393.98 88.8 394.58 88.8C395.18 88.8 395.6 88.8 395.96 88.8C396.68 88.8 397.4 88.62 398 88.14C398.6 87.66 398.9 87.12 398.96 86.4C399.08 82.98 398.72 80.16 397.82 77.94L390.8 78.54ZM430.7 67.5C430.7 68.04 430.7 69.06 430.7 70.5C430.64 71.94 430.64 72.9 430.76 73.38C431.12 76.14 430.82 82.38 429.92 92.04C429.8 92.76 429.68 94.5 429.5 97.2C429.26 99.96 429.14 101.76 429.08 102.6C428.96 103.56 428.42 104.04 427.46 104.04C426.98 104.04 425.66 104.04 423.38 104.04C421.1 104.04 419.6 103.98 418.94 103.98C418.22 103.98 417.8 103.44 417.62 102.36C417.14 99.96 417.14 96 417.62 90.48C417.68 89.94 417.8 85.98 417.92 78.6V74.1V69.54C417.92 68.94 418.28 68.46 419 68.1C419.42 67.92 419.96 67.74 420.62 67.62C421.28 67.5 422.06 67.38 423.02 67.26C423.98 67.2 424.7 67.14 425.18 67.14C425.66 67.14 426.5 67.08 427.64 67.02L429.32 66.96C429.44 66.96 429.68 67.08 430.1 67.2C430.46 67.32 430.7 67.44 430.7 67.5ZM402.44 110.58C410.6 110.1 415.22 109.86 416.24 109.74C417.26 109.68 418.46 109.56 419.9 109.44C421.34 109.32 422.54 109.2 423.5 109.08C424.46 108.96 425.3 108.9 425.9 108.9C426.68 108.9 427.28 109.92 427.64 111.84C427.7 112.26 427.76 113.1 427.76 114.3C427.76 115.68 427.4 117.06 426.68 118.5C426.44 118.92 425.9 119.22 425.06 119.34C424.22 119.46 421.4 119.64 416.6 119.88C411.8 120.12 408.98 120.3 408.08 120.42C407.84 120.48 407.66 120.48 407.42 120.48C406.4 120.48 404.24 120.54 400.94 120.6C397.64 120.66 395.24 120.72 393.74 120.78C393.38 120.78 392.72 120.84 391.88 120.9C391.04 120.96 390.38 120.96 389.96 120.96C388.58 120.96 387.44 120.72 386.6 120.18C386.3 120.06 386.06 119.76 385.82 119.4C385.58 119.04 385.52 118.74 385.52 118.38C385.34 116.64 385.22 114.18 385.1 110.94C384.98 107.7 384.86 105.48 384.8 104.22L384.74 103.38C384.74 102.78 384.74 102.24 384.74 101.64L384.68 100.8C384.8 100.8 385.1 100.74 385.64 100.62C386.18 100.5 386.54 100.38 386.72 100.32C387.14 100.26 388.1 100.2 389.6 100.2C391.34 100.2 392.42 100.32 392.9 100.44C393.38 100.62 393.62 100.92 393.62 101.34C393.62 101.52 393.68 101.94 393.8 102.54C393.92 103.14 394.04 103.56 394.04 103.74C394.04 104.4 394.16 105.6 394.52 107.4C394.52 107.64 394.58 108.18 394.7 108.96C394.76 109.74 394.88 110.4 395.06 111L402.44 110.58Z" fill="white"/>
</svg>
