<svg width="271" height="151" viewBox="0 0 271 151" fill="none" xmlns="http://www.w3.org/2000/svg">
<rect x="0.5" y="30.5" width="90" height="120" fill="#FF961E"/>
<rect x="0.5" y="30.5" width="90" height="120" stroke="black"/>
<path d="M61.1 119.22C59.18 119.22 57.86 118.92 57.14 118.2C56.42 117.48 56.06 116.16 55.94 114.18C55.64 108.6 55.52 104.76 55.52 102.66C55.52 99.72 55.7 90.42 56.12 74.82C56.12 74.4 56.18 73.92 56.3 73.44C56.36 72.96 56.42 72.54 56.54 72.18C56.6 71.82 56.72 71.4 56.9 70.8C57.02 70.2 57.14 69.78 57.26 69.42C57.38 68.94 57.62 68.58 58.04 68.46C58.16 68.46 58.58 68.34 59.24 68.16C59.9 67.98 60.38 67.86 60.62 67.8C60.86 67.74 61.22 67.68 61.82 67.56C62.36 67.44 62.78 67.44 63.14 67.44C63.5 67.44 63.92 67.5 64.4 67.62C64.88 67.74 65.3 67.86 65.78 68.04C66.92 68.64 67.58 69.72 67.7 71.28C67.7 72 67.76 74.4 67.82 78.54C67.82 82.68 67.94 85.26 68.06 86.28C68.18 87 68.6 87.78 69.32 88.56C69.68 88.98 70.04 89.4 70.46 89.82C70.88 90.3 71.36 90.78 71.9 91.26C72.38 91.8 72.8 92.22 73.16 92.46C73.64 92.94 73.94 93.48 74.18 94.02C74.42 94.62 74.48 95.28 74.42 96C74.36 96.72 74.3 97.26 74.24 97.62C74.12 97.98 74 98.64 73.76 99.48C73.4 100.92 72.14 101.7 69.98 101.7C68.84 101.7 68.12 101.88 67.88 102.18C67.58 102.54 67.46 103.32 67.52 104.64C67.52 105.54 67.52 107.16 67.58 109.44C67.64 111.72 67.7 113.28 67.7 114.06C67.7 115.68 67.28 116.76 66.32 117.3C63.92 118.62 62.18 119.28 61.1 119.22ZM29.36 101.1C32.36 101.4 34.58 101.52 36.02 101.52C36.56 101.58 37.16 101.64 37.88 101.64C38.6 101.7 39.08 101.76 39.44 101.76C39.8 101.76 40.22 101.76 40.82 101.7C41.42 101.64 42.08 101.52 42.8 101.34C44.24 101.04 45.8 101.46 47.48 102.66C47.66 102.84 47.84 103.08 47.96 103.44C48.08 103.8 48.14 104.16 48.08 104.4C47.96 105.3 47.78 106.02 47.66 106.56C47.54 107.16 47.42 107.52 47.36 107.76C47.24 108 47 108.48 46.64 109.26C46.28 110.04 45.98 110.64 45.74 111.12C44.84 113.04 43.4 114.12 41.42 114.24C39.98 114.36 38.12 114.6 35.9 114.96C33.62 115.32 32 115.5 30.92 115.56C29.84 115.68 28.04 115.68 25.4 115.56C23.78 115.44 22.22 115.2 20.66 114.78C19.34 114.48 18.62 113.52 18.56 111.96C18.5 111.06 18.44 109.8 18.38 108.24C18.26 106.68 18.2 105.18 18.14 103.86C18.08 102.54 18.08 101.28 18.08 100.08C17.96 94.2 17.96 88.38 18.08 82.5C18.08 81.24 18.32 79.8 18.92 78.18C19.28 77.16 19.76 76.44 20.36 76.08C20.96 75.72 21.92 75.48 23.24 75.36C23.84 75.3 24.8 75.3 26.24 75.36C26.36 75.36 26.54 75.48 26.78 75.6C27.02 75.72 27.2 75.84 27.26 75.84C27.74 76.08 28.04 76.14 28.22 76.14C28.88 76.14 29.36 76.26 29.66 76.5C29.9 76.74 30.14 77.28 30.32 78C30.56 78.9 30.68 79.86 30.68 80.94C30.68 82.02 30.62 82.92 30.56 83.7C30.44 84.48 30.32 85.44 30.14 86.64C29.96 87.84 29.84 88.74 29.84 89.4C29.72 90.36 29.6 92.4 29.54 95.52C29.42 98.64 29.36 100.5 29.36 101.1Z" fill="white"/>
<rect x="90.5" y="0.5" width="90" height="120" fill="#FF961E"/>
<rect x="90.5" y="0.5" width="90" height="120" stroke="black"/>
<path d="M127.28 69.18C122.78 69.3 118.7 68.34 114.98 66.18C112.7 64.92 111.14 62.82 110.42 59.82C109.46 56.22 109.34 53.34 110.06 51.06C110.42 49.86 111.02 48.72 111.8 47.64C113.3 45.6 114.62 44.04 115.76 42.96C117.44 41.4 119.66 40.8 122.3 41.1C125.72 41.58 129.38 42.96 133.22 45.24C135.38 46.56 136.7 48.48 137.18 51.12C137.84 55.32 137.9 58.74 137.3 61.32C136.7 63.9 135.56 65.88 133.82 67.32C132.08 68.76 129.92 69.42 127.28 69.18ZM120.74 56.34C121.46 58.74 121.94 60.12 122.12 60.36C122.24 60.6 122.42 60.9 122.72 61.14C123.02 61.38 123.26 61.5 123.5 61.44C124.82 61.32 125.96 61.02 126.86 60.42C127.7 59.82 128.3 59.04 128.54 58.02C128.78 57 128.54 55.8 127.82 54.36C126.74 52.2 125.06 51.48 122.78 52.14C121.46 52.56 120.8 53.94 120.74 56.34ZM160.7 37.5C160.7 38.04 160.7 39.06 160.7 40.5C160.64 41.94 160.64 42.9 160.76 43.38C161.12 46.14 160.82 52.38 159.92 62.04C159.8 62.76 159.68 64.5 159.5 67.2C159.26 69.96 159.14 71.76 159.08 72.6C158.96 73.56 158.42 74.04 157.46 74.04C156.98 74.04 155.66 74.04 153.38 74.04C151.1 74.04 149.6 73.98 148.94 73.98C148.22 73.98 147.8 73.44 147.62 72.36C147.14 69.96 147.14 66 147.62 60.48C147.68 59.94 147.8 55.98 147.92 48.6V44.1V39.54C147.92 38.94 148.28 38.46 149 38.1C149.42 37.92 149.96 37.74 150.62 37.62C151.28 37.5 152.06 37.38 153.02 37.26C153.98 37.2 154.7 37.14 155.18 37.14C155.66 37.14 156.5 37.08 157.64 37.02L159.32 36.96C159.44 36.96 159.68 37.08 160.1 37.2C160.46 37.32 160.7 37.44 160.7 37.5ZM132.44 80.58C140.6 80.1 145.22 79.86 146.24 79.74C147.26 79.68 148.46 79.56 149.9 79.44C151.34 79.32 152.54 79.2 153.5 79.08C154.46 78.96 155.3 78.9 155.9 78.9C156.68 78.9 157.28 79.92 157.64 81.84C157.7 82.26 157.76 83.1 157.76 84.3C157.76 85.68 157.4 87.06 156.68 88.5C156.44 88.92 155.9 89.22 155.06 89.34C154.22 89.46 151.4 89.64 146.6 89.88C141.8 90.12 138.98 90.3 138.08 90.42C137.84 90.48 137.66 90.48 137.42 90.48C136.4 90.48 134.24 90.54 130.94 90.6C127.64 90.66 125.24 90.72 123.74 90.78C123.38 90.78 122.72 90.84 121.88 90.9C121.04 90.96 120.38 90.96 119.96 90.96C118.58 90.96 117.44 90.72 116.6 90.18C116.3 90.06 116.06 89.76 115.82 89.4C115.58 89.04 115.52 88.74 115.52 88.38C115.34 86.64 115.22 84.18 115.1 80.94C114.98 77.7 114.86 75.48 114.8 74.22L114.74 73.38C114.74 72.78 114.74 72.24 114.74 71.64L114.68 70.8C114.8 70.8 115.1 70.74 115.64 70.62C116.18 70.5 116.54 70.38 116.72 70.32C117.14 70.26 118.1 70.2 119.6 70.2C121.34 70.2 122.42 70.32 122.9 70.44C123.38 70.62 123.62 70.92 123.62 71.34C123.62 71.52 123.68 71.94 123.8 72.54C123.92 73.14 124.04 73.56 124.04 73.74C124.04 74.4 124.16 75.6 124.52 77.4C124.52 77.64 124.58 78.18 124.7 78.96C124.76 79.74 124.88 80.4 125.06 81L132.44 80.58Z" fill="white"/>
<rect x="180.5" y="30.5" width="90" height="120" fill="#FF961E"/>
<rect x="180.5" y="30.5" width="90" height="120" stroke="black"/>
<path d="M250.1 80.22C250.04 83.34 249.92 85.62 249.8 87.06C249.62 88.68 249.26 90.24 248.78 91.74C248.54 92.46 248.3 92.94 247.94 93.06C247.58 93.24 246.98 93.3 246.08 93.18C244.76 93.06 243.92 93 243.62 93C242.66 93.06 242.12 92.7 242 91.92C241.76 90.72 241.58 89.52 241.46 88.32C241.4 87.72 241.34 86.88 241.28 85.74C241.22 84.6 241.16 83.82 241.16 83.4C241.1 82.74 240.74 82.26 240.14 82.02C239.54 81.78 238.88 81.84 238.22 82.2C237.86 82.44 237.74 82.8 237.8 83.28C237.86 84.06 238.04 85.38 238.28 87.24C238.52 89.16 238.64 90.6 238.76 91.56C238.82 92.16 238.76 92.94 238.52 93.96C238.4 94.32 238.16 94.56 237.8 94.68L234.44 95.76C232.82 95.94 231.68 95.82 231.08 95.4C230.48 95.1 230.18 94.68 230.18 94.14C229.76 89.1 229.52 85.08 229.4 82.14L229.1 70.14L229.76 67.56L233.48 67.26C234.14 67.32 234.68 67.38 235.04 67.44C235.64 67.56 236.06 67.92 236.36 68.46C236.6 69 236.72 69.48 236.72 69.9L236.66 70.56L236.42 76.08L238.16 77.58H239.42C240.38 77.52 240.98 77.34 241.28 77.1C241.52 76.86 241.7 76.38 241.7 75.6C241.64 75 241.58 73.8 241.52 72.06C241.46 70.32 241.46 69 241.46 68.04C241.4 67.32 241.52 66.9 241.88 66.66C242.18 66.42 242.78 66.3 243.68 66.24C246.5 66.18 248.48 66.9 249.68 68.34C249.86 68.58 249.98 68.88 250.1 69.18C250.22 69.54 250.28 69.9 250.4 70.26C250.46 70.68 250.52 70.98 250.64 71.16C250.52 71.16 250.4 72.3 250.28 74.52C250.16 76.8 250.1 78.66 250.1 80.22ZM213.14 90C212.72 89.34 212.36 88.98 212.06 88.98C211.7 88.98 211.34 89.28 210.86 89.88L208.16 92.94C206.96 94.32 206.06 95.34 205.46 96.06C204.92 96.66 204.44 96.9 204.02 96.9C203.6 96.9 203.18 96.54 202.7 95.94C201.98 95.1 201.2 94.44 200.36 93.9C199.52 93.42 199.04 92.94 198.86 92.46C198.62 91.98 198.74 91.26 199.22 90.3C199.46 89.94 199.76 89.34 200.24 88.44C200.66 87.54 201.02 86.88 201.38 86.4C202.22 85.08 203.24 83.88 204.32 82.8C206 81.06 206.96 78.66 207.14 75.66C207.2 74.46 207.14 72.96 207.02 71.16C206.84 69.36 206.66 68.52 206.48 68.52L206.54 67.8C207.08 67.5 207.5 67.26 207.74 67.14C207.98 67.02 208.4 66.84 208.88 66.6C209.36 66.36 209.84 66.24 210.2 66.18C210.56 66.12 210.92 66.06 211.4 66.06C211.88 66.06 212.36 66.12 212.84 66.24C213.2 66.36 213.86 66.54 214.7 66.72C215.54 66.96 216.14 67.08 216.56 67.2C217.7 67.56 218.24 68.4 218.12 69.72C217.7 73.8 217.34 77.82 216.98 81.84C216.92 81.96 216.8 82.8 216.56 84.42C217.28 84.66 217.88 84.96 218.42 85.2C218.9 85.44 219.56 85.8 220.34 86.22C221.06 86.7 221.66 87 222.02 87.18C222.14 87.3 222.32 87.36 222.56 87.48C223.34 87.96 223.94 88.26 224.3 88.44C224.66 88.68 225.02 88.98 225.44 89.34C225.86 89.7 226.1 90.06 226.16 90.42C226.22 90.78 226.16 91.2 226.04 91.68C225.86 92.22 225.56 92.82 225.14 93.42C224.9 93.66 224.66 94.02 224.36 94.44L223.76 95.28C223.64 95.4 223.52 95.64 223.28 95.88C223.04 96.12 222.92 96.3 222.8 96.36C222.68 96.42 222.56 96.48 222.38 96.54C222.14 96.66 221.96 96.66 221.84 96.6C221.66 96.54 221.48 96.48 221.24 96.36C221 96.3 220.7 96.18 220.46 96C220.16 95.88 218.9 94.86 216.68 93.06C214.4 91.26 213.26 90.24 213.14 90ZM232.52 114.6C233.48 114.6 234.32 114.24 235.04 113.4C235.76 112.62 236.12 111.66 236.12 110.46C236.12 108.78 235.16 107.76 233.36 107.34C231.38 106.98 227.48 106.74 221.66 106.74H221.6C221 106.74 220.52 106.86 220.1 107.04C219.68 107.28 219.32 107.58 219.08 108C218.84 108.42 218.66 108.78 218.54 109.08C218.42 109.44 218.3 109.86 218.18 110.46C218.06 110.76 218.06 111 218.06 111.24C218.06 111.9 218.24 112.44 218.72 112.8C219.2 113.22 219.74 113.46 220.46 113.58C221.12 113.76 222.02 113.88 223.22 114C224.36 114.12 225.38 114.24 226.28 114.24C227.12 114.3 228.26 114.36 229.64 114.42C231.02 114.54 231.92 114.6 232.34 114.6H232.52ZM223.7 100.62C225.98 100.62 228.74 100.86 231.86 101.22C234.98 101.58 237.62 102.06 239.78 102.66C243.44 103.74 245.48 105.66 245.9 108.42C246.02 109.14 246.08 109.8 246.08 110.4C246.08 113.1 245 115.26 242.9 116.82C241.46 117.9 240.26 118.8 239.3 119.4C238.34 120 237.2 120.6 235.76 121.14C234.32 121.74 232.88 122.04 231.44 122.04C230.84 122.04 229.4 122.16 227.06 122.28C224.72 122.4 223.16 122.46 222.38 122.46C221.24 122.46 220.22 122.4 219.38 122.22C219.14 122.22 218.9 122.22 218.54 122.1C216.86 121.86 215.54 121.62 214.7 121.44C213.8 121.26 212.72 120.9 211.46 120.3C210.2 119.76 209.12 119.04 208.28 118.14C206.66 116.58 205.88 115.14 205.88 113.76C205.88 111 206.24 108.9 207.08 107.52C209.3 103.8 213.92 101.52 220.88 100.8C221.78 100.68 222.74 100.62 223.7 100.62Z" fill="white"/>
</svg>
