<svg width="93" height="110" viewBox="0 0 93 110" fill="none" xmlns="http://www.w3.org/2000/svg">
<rect x="0.428711" y="0.428711" width="91.4694" height="108.62" fill="#00B7AB"/>
<rect x="0.428711" y="0.428711" width="91.4694" height="108.62" stroke="black" stroke-width="0.857525"/>
<path d="M63.1137 47.7961V41.1739H55.2007V59.0202H50.7111V24.2256H55.2007V37.021H63.1137V23.8889H67.6033V46.8982C67.6033 51.949 69.0063 54.1939 72.0368 54.8673V59.0202C66.4248 58.6835 63.1137 54.9795 63.1137 47.7961ZM20.2939 59.0202V54.8673C27.5896 54.6428 32.0231 49.9848 32.0231 42.4647V34.3273H36.681V42.4647C36.681 49.8726 41.1145 54.5306 48.3541 54.7551V58.7957C42.0686 58.7396 36.7933 55.653 34.3801 50.6022C32.0231 55.7652 26.6916 58.9641 20.2939 59.0202Z" fill="white"/>
</svg>
