<svg width="93" height="110" viewBox="0 0 93 110" fill="none" xmlns="http://www.w3.org/2000/svg">
<rect x="0.428711" y="0.428711" width="91.4694" height="108.62" fill="#00B7AB"/>
<rect x="0.428711" y="0.428711" width="91.4694" height="108.62" stroke="black" stroke-width="0.857525"/>
<path d="M46.1621 49.6481C39.2593 49.6481 34.4329 45.1024 34.4329 38.7047C34.4329 32.3069 39.2593 27.7612 46.1621 27.7612H56.5443V31.9141H46.1621C41.9531 31.9141 39.0348 34.7201 39.0348 38.7047C39.0348 42.6892 41.9531 45.4952 46.1621 45.4952C50.3711 45.4952 53.2894 42.6892 53.2894 38.7047C53.2894 37.2455 52.8965 35.7864 52.0547 34.6079H56.7688C57.4984 35.618 57.8912 37.2455 57.8912 38.7047C57.8912 45.1024 53.0649 49.6481 46.1621 49.6481ZM68.3857 54.8673V59.0202H49.4171V71.0299H44.8152V59.0202H23.9385V54.8673H68.3857ZM37.239 65.474V78.3256H59.4626V82.4785H35.1625C33.535 82.4785 32.6371 81.5806 32.6371 79.9531V65.474H37.239Z" fill="white"/>
</svg>
