<svg width="93" height="110" viewBox="0 0 93 110" fill="none" xmlns="http://www.w3.org/2000/svg">
<rect x="0.428711" y="0.428711" width="91.4694" height="108.62" fill="#00B7AB"/>
<rect x="0.428711" y="0.428711" width="91.4694" height="108.62" stroke="black" stroke-width="0.857525"/>
<path d="M73.4453 54.8673V59.0202C67.8333 58.6835 64.4099 54.9795 64.4099 47.7961V40.8933H51.8951V36.7404H64.4099V23.8889H69.0118V46.8982C69.0118 51.3317 70.4148 54.1939 73.4453 54.8673ZM35.7325 59.0202H18.8964V54.8673H35.7325C39.6609 54.8673 42.523 51.949 42.523 47.9084C42.523 43.8677 39.6609 40.9495 35.7325 40.9495C31.8041 40.9495 28.9419 43.8677 28.9419 47.9084C28.9419 49.4798 29.2786 50.7144 30.0082 51.8368H25.3502C24.6768 50.7705 24.3401 49.4236 24.3401 47.9084C24.3401 41.4546 29.1664 36.7966 35.7325 36.7966C42.2986 36.7966 47.1249 41.4546 47.1249 47.9084C47.1249 54.3622 42.2986 59.0202 35.7325 59.0202ZM50.2676 65.1934V78.8307H69.6853V82.9836H48.1912C46.5637 82.9836 45.6658 82.0856 45.6658 80.4581V65.1934H50.2676Z" fill="white"/>
</svg>
