<svg width="93" height="110" viewBox="0 0 93 110" fill="none" xmlns="http://www.w3.org/2000/svg">
<rect x="0.428711" y="0.428711" width="91.4694" height="108.62" fill="#00B7AB"/>
<rect x="0.428711" y="0.428711" width="91.4694" height="108.62" stroke="black" stroke-width="0.857525"/>
<path d="M72.5838 54.8673V59.0202C66.9717 58.6835 63.5484 54.9795 63.5484 47.7961V43.1943H50.753V39.0414H63.5484V23.8889H68.1503V46.8982C68.1503 51.3317 69.5533 54.1939 72.5838 54.8673ZM34.4781 54.8673H49.6867V59.0202H19.7185V54.8673H27.6875C26.958 54.0816 26.5651 53.0153 26.5651 50.8828V34.0467H46.8807V38.1996H31.167V44.0361H46.3195V48.1329H31.167V51.1072C31.167 53.7449 32.2894 54.8673 34.4781 54.8673ZM49.0694 65.1934V77.1471H68.487V81.3H46.9929C45.3654 81.3 44.4675 80.402 44.4675 78.7745V65.1934H49.0694Z" fill="white"/>
</svg>
