<svg width="162" height="192" viewBox="0 0 162 192" fill="none" xmlns="http://www.w3.org/2000/svg">
<rect x="0.75" y="0.75" width="160" height="190" fill="#F6C500"/>
<rect x="0.75" y="0.75" width="160" height="190" stroke="black" stroke-width="1.5"/>
<path d="M125.575 95.38C125.575 95.998 125.678 96.719 125.678 97.44C125.678 98.264 125.06 98.779 123.927 98.985C122.794 99.191 121.352 99.191 119.704 98.985C117.953 98.779 116.511 98.573 115.275 98.264C114.76 98.264 114.039 98.161 113.112 98.058C112.082 98.058 111.155 98.058 110.125 98.058C109.095 98.058 108.065 98.058 107.138 98.058C106.108 98.161 105.387 98.161 104.975 98.161H104.769C104.769 99.603 104.769 100.839 104.769 102.075C104.666 103.311 104.666 104.444 104.666 105.371C104.46 109.079 104.46 112.066 104.46 114.538C104.357 117.113 104.357 118.864 104.357 119.791C104.357 121.439 104.151 123.19 103.945 125.147C103.533 127.104 103.224 129.061 102.812 130.915C102.297 132.769 101.782 134.417 101.37 135.962C100.752 137.404 100.34 138.537 99.9281 139.155C99.5161 139.773 99.0011 140.494 98.5891 141.215C97.9711 141.833 97.5591 142.245 97.1471 142.554C96.6321 142.76 96.3231 142.657 96.1171 142.245C95.9111 141.73 95.9111 140.7 96.2201 139.155C96.4261 137.61 96.6321 135.241 96.8381 132.048C96.8381 128.752 96.9411 125.25 97.0441 121.439C97.0441 117.731 97.0441 114.023 97.0441 110.315C96.9411 106.71 96.9411 103.723 96.9411 101.457C97.0441 99.706 97.0441 97.852 96.9411 95.998C96.7351 94.144 96.7351 91.981 96.7351 89.303C96.6321 87.655 96.6321 85.904 96.6321 84.05C96.5291 82.299 96.5291 80.651 96.5291 79.209C96.5291 77.87 96.5291 76.737 96.5291 75.81C96.5291 74.986 96.5291 74.471 96.6321 74.368C96.8381 74.162 97.1471 73.956 97.4561 73.956C97.6621 73.956 97.7651 73.75 97.9711 73.235C97.9711 73.029 97.9711 72.72 97.8681 72.514C97.6621 72.308 97.5591 72.102 97.4561 71.793C97.2501 71.587 97.0441 71.278 96.9411 70.866C96.7351 70.557 96.7351 70.145 96.8381 69.527C96.9411 68.806 97.0441 67.982 97.0441 66.952C96.9411 66.128 96.9411 65.201 96.9411 64.171C96.8381 62.111 96.8381 60.566 97.0441 59.433C97.0441 58.403 97.0441 57.476 96.9411 56.446C96.8381 55.725 96.8381 54.901 96.8381 53.974C96.7351 53.15 96.3231 52.429 95.4991 51.708C94.6751 51.09 93.9541 50.678 93.2331 50.369C92.4091 50.163 91.7911 49.854 91.1731 49.442C90.7611 49.236 90.5551 49.03 90.5551 48.618C90.4521 48.309 90.5551 48 90.7611 47.588C90.8641 47.382 91.1731 47.073 91.5851 46.867C91.9971 46.764 92.5121 46.764 93.2331 46.97C93.5421 47.176 94.1601 47.279 95.1901 47.485C96.0141 47.794 97.0441 48.103 98.2801 48.309C99.3101 48.721 100.443 49.03 101.576 49.236C102.606 49.545 103.43 49.751 104.151 49.854C105.078 50.163 105.799 50.472 106.417 50.678C106.932 51.09 107.035 51.708 106.726 52.738C106.314 53.871 106.005 55.004 105.696 56.24C105.284 57.579 105.078 58.918 105.078 60.36C105.078 61.287 104.975 62.523 104.975 64.171C104.872 65.819 104.872 67.261 104.872 68.497C104.872 69.115 104.769 69.836 104.769 70.763C104.666 71.793 104.666 72.926 104.666 73.956C104.563 75.089 104.563 76.119 104.563 77.046C104.46 78.076 104.46 78.9 104.46 79.415C104.46 80.548 104.46 81.475 104.563 82.299C104.563 83.226 104.563 84.05 104.563 84.874C104.563 85.801 104.563 86.728 104.666 87.655C104.666 88.685 104.666 89.921 104.666 91.26V94.556L107.241 94.247C108.065 94.144 108.683 94.041 109.301 93.835C109.713 93.835 110.125 93.732 110.537 93.526C110.846 93.526 111.155 93.423 111.567 93.217C111.773 93.217 112.185 93.011 112.597 92.805C113.524 92.496 114.348 92.187 115.172 91.981C115.79 91.775 116.614 91.878 117.541 92.187C118.365 92.599 119.189 92.599 120.219 92.393C121.043 92.29 121.764 92.29 122.279 92.29C123 92.393 123.721 92.702 124.442 93.217C125.06 93.835 125.472 94.556 125.575 95.38ZM55.5351 101.56C55.7411 103.208 55.9471 104.547 56.1531 105.474C56.2561 106.504 56.4621 107.225 56.7711 107.637C56.9771 108.255 57.2861 108.461 57.8011 108.461C58.2131 108.564 58.8311 108.461 59.6551 108.255C60.4791 108.049 61.4061 107.637 62.6421 107.019C63.7751 106.504 64.9081 105.886 66.1441 105.062C67.2771 104.444 68.4101 103.723 69.4401 102.899C70.4701 102.281 71.1911 101.663 71.6031 101.251C72.4271 100.427 73.3541 99.603 74.3841 98.882C75.2081 98.264 76.1351 98.161 77.0621 98.573L77.4741 98.882C77.6801 98.161 77.8861 97.543 78.0921 96.925C78.1951 96.513 78.2981 96.101 78.5041 95.895C78.7101 95.586 79.2251 95.174 79.8431 94.762C80.3581 94.453 80.9761 94.144 81.8001 93.732C82.4181 93.526 83.1391 93.32 83.9631 93.114C84.6841 93.114 85.3021 93.114 85.9201 93.32C87.0531 93.835 87.9801 94.659 88.8041 95.895C89.4221 97.131 89.8341 98.367 90.0401 99.5C90.0401 100.118 90.1431 100.53 90.1431 100.839C90.0401 101.251 89.9371 101.457 89.8341 101.663C89.6281 101.869 89.3191 102.075 89.1131 102.281C88.7011 102.487 88.3921 102.796 87.9801 103.105C87.1561 103.723 86.3321 104.341 85.6111 104.959C84.7871 105.68 84.2721 106.298 83.8601 106.71C83.1391 107.431 82.1091 107.74 80.7701 107.74C79.9461 107.843 79.3281 107.946 79.1221 108.152C78.7101 108.461 78.4011 108.873 77.9891 109.285C77.5771 109.8 77.0621 110.006 76.4441 109.903C75.6201 109.903 75.4141 109.594 75.6201 108.77C75.6201 108.564 75.6201 107.946 75.8261 107.122C75.9291 106.401 76.1351 105.474 76.3411 104.444C74.8991 105.268 73.4571 105.989 72.0151 106.813C70.3671 107.74 69.2341 108.564 68.6161 109.182C67.9981 109.8 67.3801 110.315 66.6591 110.933C65.8351 111.551 65.0111 112.169 64.1871 112.684C63.2601 113.302 62.4361 113.92 61.6121 114.332C60.7881 114.847 60.0671 115.156 59.5521 115.362C58.6251 115.671 57.8011 115.671 57.0801 115.465C55.8441 115.259 54.8141 114.847 53.7841 114.332C52.6511 113.92 51.7241 113.096 50.9001 111.86C49.7671 110.418 49.0461 108.461 48.6341 105.783C48.1191 103.311 47.8101 100.53 47.7071 97.646C47.5011 94.762 47.5011 91.981 47.7071 89.2C47.7071 86.522 47.8101 84.359 47.8101 82.505C47.8101 80.96 47.7071 79.724 47.6041 78.797C47.3981 77.973 47.0891 77.252 46.8831 76.634C46.4711 76.119 46.1621 75.707 45.7501 75.295C45.2351 75.089 44.7201 74.677 44.2051 74.265C43.0721 73.544 42.6601 72.823 42.9691 72.102C43.1751 71.484 43.6901 71.381 44.7201 71.69C45.1321 71.896 45.8531 72.102 46.8831 72.411C47.7071 72.823 48.7371 73.235 49.7671 73.647C50.6941 74.059 51.6211 74.471 52.5481 74.883C53.3721 75.295 54.0931 75.604 54.5051 75.81C55.2261 76.222 55.7411 76.737 55.9471 77.561C56.0501 78.488 56.0501 80.136 55.8441 82.505C55.4321 86.625 55.1231 90.23 55.1231 93.423C55.0201 96.719 55.1231 99.397 55.5351 101.56Z" fill="white"/>
</svg>
