<svg width="162" height="192" viewBox="0 0 162 192" fill="none" xmlns="http://www.w3.org/2000/svg">
<rect x="0.75" y="0.75" width="160" height="190" fill="#F6C500"/>
<rect x="0.75" y="0.75" width="160" height="190" stroke="black" stroke-width="1.5"/>
<path d="M125.575 95.38C125.575 95.998 125.678 96.719 125.678 97.44C125.678 98.264 125.06 98.779 123.927 98.985C122.794 99.191 121.352 99.191 119.704 98.985C117.953 98.779 116.511 98.573 115.275 98.264C114.76 98.264 114.039 98.161 113.112 98.058C112.082 98.058 111.155 98.058 110.125 98.058C109.095 98.058 108.065 98.058 107.138 98.058C106.108 98.161 105.387 98.161 104.975 98.161H104.769C104.769 99.603 104.769 100.839 104.769 102.075C104.666 103.311 104.666 104.444 104.666 105.371C104.46 109.079 104.46 112.066 104.46 114.538C104.357 117.113 104.357 118.864 104.357 119.791C104.357 121.439 104.151 123.19 103.945 125.147C103.533 127.104 103.224 129.061 102.812 130.915C102.297 132.769 101.782 134.417 101.37 135.962C100.752 137.404 100.34 138.537 99.9281 139.155C99.5161 139.773 99.0011 140.494 98.5891 141.215C97.9711 141.833 97.5591 142.245 97.1471 142.554C96.6321 142.76 96.3231 142.657 96.1171 142.245C95.9111 141.73 95.9111 140.7 96.2201 139.155C96.4261 137.61 96.6321 135.241 96.8381 132.048C96.8381 128.752 96.9411 125.25 97.0441 121.439C97.0441 117.731 97.0441 114.023 97.0441 110.315C96.9411 106.71 96.9411 103.723 96.9411 101.457C97.0441 99.706 97.0441 97.852 96.9411 95.998C96.7351 94.144 96.7351 91.981 96.7351 89.303C96.6321 87.655 96.6321 85.904 96.6321 84.05C96.5291 82.299 96.5291 80.651 96.5291 79.209C96.5291 77.87 96.5291 76.737 96.5291 75.81C96.5291 74.986 96.5291 74.471 96.6321 74.368C96.8381 74.162 97.1471 73.956 97.4561 73.956C97.6621 73.956 97.7651 73.75 97.9711 73.235C97.9711 73.029 97.9711 72.72 97.8681 72.514C97.6621 72.308 97.5591 72.102 97.4561 71.793C97.2501 71.587 97.0441 71.278 96.9411 70.866C96.7351 70.557 96.7351 70.145 96.8381 69.527C96.9411 68.806 97.0441 67.982 97.0441 66.952C96.9411 66.128 96.9411 65.201 96.9411 64.171C96.8381 62.111 96.8381 60.566 97.0441 59.433C97.0441 58.403 97.0441 57.476 96.9411 56.446C96.8381 55.725 96.8381 54.901 96.8381 53.974C96.7351 53.15 96.3231 52.429 95.4991 51.708C94.6751 51.09 93.9541 50.678 93.2331 50.369C92.4091 50.163 91.7911 49.854 91.1731 49.442C90.7611 49.236 90.5551 49.03 90.5551 48.618C90.4521 48.309 90.5551 48 90.7611 47.588C90.8641 47.382 91.1731 47.073 91.5851 46.867C91.9971 46.764 92.5121 46.764 93.2331 46.97C93.5421 47.176 94.1601 47.279 95.1901 47.485C96.0141 47.794 97.0441 48.103 98.2801 48.309C99.3101 48.721 100.443 49.03 101.576 49.236C102.606 49.545 103.43 49.751 104.151 49.854C105.078 50.163 105.799 50.472 106.417 50.678C106.932 51.09 107.035 51.708 106.726 52.738C106.314 53.871 106.005 55.004 105.696 56.24C105.284 57.579 105.078 58.918 105.078 60.36C105.078 61.287 104.975 62.523 104.975 64.171C104.872 65.819 104.872 67.261 104.872 68.497C104.872 69.115 104.769 69.836 104.769 70.763C104.666 71.793 104.666 72.926 104.666 73.956C104.563 75.089 104.563 76.119 104.563 77.046C104.46 78.076 104.46 78.9 104.46 79.415C104.46 80.548 104.46 81.475 104.563 82.299C104.563 83.226 104.563 84.05 104.563 84.874C104.563 85.801 104.563 86.728 104.666 87.655C104.666 88.685 104.666 89.921 104.666 91.26V94.556L107.241 94.247C108.065 94.144 108.683 94.041 109.301 93.835C109.713 93.835 110.125 93.732 110.537 93.526C110.846 93.526 111.155 93.423 111.567 93.217C111.773 93.217 112.185 93.011 112.597 92.805C113.524 92.496 114.348 92.187 115.172 91.981C115.79 91.775 116.614 91.878 117.541 92.187C118.365 92.599 119.189 92.599 120.219 92.393C121.043 92.29 121.764 92.29 122.279 92.29C123 92.393 123.721 92.702 124.442 93.217C125.06 93.835 125.472 94.556 125.575 95.38ZM66.0411 86.625L63.8781 90.848C65.3201 91.672 66.7621 92.496 68.4101 93.32C69.9551 94.35 71.5001 95.277 72.9421 96.101C74.3841 97.131 75.6201 97.955 76.7531 98.676C77.7831 99.5 78.6071 100.118 79.2251 100.53L85.4051 106.195C85.7141 106.607 86.0231 107.019 86.2291 107.534C86.4351 108.152 86.4351 109.079 86.2291 110.315C86.0231 110.933 85.9201 111.448 85.9201 111.757C85.8171 112.169 85.8171 112.375 85.8171 112.581C85.8171 112.89 85.8171 113.199 85.9201 113.405C85.9201 113.714 85.9201 114.023 85.9201 114.435C85.9201 115.465 85.5081 115.98 84.8901 116.186C84.0661 116.495 83.2421 116.289 82.3151 115.465C81.6971 115.053 80.7701 113.92 79.5341 112.169C78.0921 110.521 76.5471 108.564 74.7961 106.401C72.9421 104.341 71.0881 102.281 69.1311 100.118C67.0711 98.058 65.1141 96.307 63.2601 94.865C62.9511 94.762 62.5391 94.453 62.0241 94.041C60.5821 96.307 59.1401 98.264 57.6981 100.118C56.0501 102.075 54.5051 103.723 52.9601 105.165C51.7241 106.298 50.3851 107.225 49.1491 107.843C47.7071 108.667 46.3681 109.182 45.0291 109.594C43.5871 110.006 42.2481 110.315 41.0121 110.315C39.6731 110.521 38.5401 110.521 37.5101 110.315C35.9651 110.109 35.2441 109.8 35.2441 109.285C35.3471 108.873 35.7591 108.667 36.4801 108.461C37.5101 108.358 38.4371 108.255 39.4671 108.049C40.2911 107.946 41.2181 107.74 42.1451 107.328C42.9691 107.019 43.8961 106.504 44.9261 105.783C45.7501 105.165 46.7801 104.341 47.8101 103.105C49.1491 101.663 50.5911 99.706 52.1361 97.44C53.5781 95.174 54.9171 92.908 56.2561 90.436C54.9171 89.715 53.7841 88.994 52.7541 88.376C51.7241 87.861 50.9001 87.449 50.3851 87.14C49.1491 86.625 48.6341 86.11 48.9431 85.698C49.1491 85.389 49.9731 85.389 51.4151 85.595C52.3421 85.904 53.3721 86.213 54.5051 86.625C55.5351 87.14 56.5651 87.552 57.4921 87.964C57.8011 87.243 58.1101 86.522 58.5221 85.698C58.7281 84.977 59.0371 84.256 59.3461 83.535C59.5521 83.123 59.7581 82.402 60.1701 81.578C60.3761 80.857 60.6851 80.033 61.0971 79.106C61.3031 78.282 61.6121 77.561 61.9211 76.737C62.1271 76.119 62.3331 75.604 62.4361 75.192C62.7451 74.059 62.6421 72.926 62.2301 71.69C61.6121 70.66 61.0971 69.63 60.5821 68.806C60.3761 68.6 60.1701 68.188 59.9641 67.673C59.6551 67.261 59.4491 66.746 59.3461 66.334C58.9341 65.716 59.1401 65.201 59.7581 64.789C60.2731 64.377 60.8911 64.583 61.6121 65.201C62.0241 65.819 62.4361 66.334 63.0541 66.849C63.4661 67.467 64.2901 68.085 65.5261 68.806C66.1441 69.424 67.0711 69.939 68.3071 70.351C69.4401 70.969 70.3671 71.484 71.1911 71.896C71.8091 72.308 72.3241 72.823 72.7361 73.338C72.9421 73.956 72.5301 75.089 71.5001 76.531C70.8821 77.252 70.3671 78.076 69.7491 79.106C69.1311 80.239 68.5131 81.269 68.1011 82.299C67.4831 83.432 67.0711 84.359 66.7621 85.08C66.3501 85.904 66.0411 86.419 66.0411 86.625Z" fill="white"/>
</svg>
