<svg width="162" height="192" viewBox="0 0 162 192" fill="none" xmlns="http://www.w3.org/2000/svg">
<rect x="0.75" y="0.75" width="160" height="190" fill="#F6C500"/>
<rect x="0.75" y="0.75" width="160" height="190" stroke="black" stroke-width="1.5"/>
<path d="M90.1049 91.26L90.8259 88.067C90.6199 88.17 90.5169 88.273 90.3109 88.273C90.1049 88.479 89.8989 88.582 89.6929 88.685C88.1479 89.509 86.4999 90.024 84.7489 90.23C82.8949 90.539 81.0409 91.26 79.1869 92.29C77.2299 93.526 75.1699 94.35 73.1099 94.762C70.8439 95.38 68.2689 95.586 65.2819 95.38C64.0459 95.38 63.0159 95.38 62.1919 95.174C61.2649 95.071 60.5439 94.762 59.9259 94.247C59.3079 93.835 58.7929 93.217 58.5869 92.29C58.1749 91.466 58.0719 90.333 58.0719 88.685C58.0719 87.449 58.0719 86.419 58.2779 85.492C58.3809 84.668 58.6899 83.844 59.1019 83.02C59.4109 82.299 59.9259 81.578 60.5439 80.754C61.0589 80.136 61.7799 79.312 62.7069 78.385C63.5309 77.561 64.5609 76.737 65.6939 76.016C66.7239 75.398 67.7539 74.78 68.7839 74.162C69.7109 73.75 70.5349 73.235 71.3589 72.823C72.0799 72.514 72.5949 72.102 73.0069 71.69C73.4189 71.278 73.7279 70.866 73.8309 70.557C73.8309 70.351 73.7279 70.248 73.5219 70.248C73.3159 70.248 73.0069 70.351 72.8009 70.351C72.3889 70.557 72.1829 70.66 71.9769 70.66C71.3589 70.866 70.9469 71.072 70.5349 71.278C70.0199 71.484 69.5049 71.69 69.0929 71.793C68.5779 71.999 68.0629 72.102 67.5479 72.102C66.9299 72.205 66.1059 72.205 65.2819 72.205C63.5309 72.205 62.0889 71.69 60.8529 70.866C59.6169 70.145 58.6899 69.218 58.0719 68.085C57.6599 67.57 57.5569 66.952 57.5569 66.334C57.4539 65.716 57.4539 65.201 57.6599 64.789C57.7629 64.377 57.9689 64.068 58.2779 63.862C58.4839 63.656 58.6899 63.759 59.1019 63.965C59.7199 64.48 60.8529 64.892 62.6039 65.201C64.2519 65.613 66.0029 65.716 67.8569 65.51C68.6809 65.51 69.7109 65.407 71.1529 65.304C72.3889 65.304 73.8309 65.201 75.2729 64.995C76.7149 64.892 78.0539 64.686 79.4959 64.48C80.8349 64.377 81.9679 64.171 82.7919 63.965C83.4099 63.862 84.0279 63.759 84.4399 63.656C84.8519 63.656 85.1609 63.656 85.5729 63.553C85.7789 63.553 86.0879 63.45 86.3969 63.244C86.6029 63.141 87.0149 62.832 87.4269 62.42C88.1479 61.699 89.0749 60.875 90.3109 59.845C91.4439 58.918 92.6799 58.609 94.1219 58.815C95.3579 59.021 96.5939 59.33 97.6239 59.742C98.5509 60.257 99.4779 60.669 100.302 60.875C101.126 61.081 101.744 61.493 102.156 62.111C102.465 62.729 102.568 63.347 102.362 63.965C102.156 64.789 101.847 65.304 101.229 65.51C100.611 65.819 99.6839 66.025 98.6539 66.025C97.7269 66.231 96.2849 66.54 94.2249 66.952C92.1649 67.467 90.1049 67.982 88.1479 68.6C87.1179 69.012 86.3969 69.115 85.8819 68.909C85.2639 68.806 84.7489 68.909 84.3369 69.115C83.5129 69.527 82.5859 69.939 81.5559 70.557C80.4229 71.278 79.2899 71.999 78.2599 72.72C77.0239 73.544 75.9939 74.265 74.9639 74.986C73.9339 75.81 73.1099 76.428 72.4919 76.84C70.7409 78.282 69.2989 79.415 68.1659 80.342C66.9299 81.372 66.1059 82.814 65.7969 84.565C65.4879 86.007 65.7969 87.037 66.7239 87.655C67.5479 88.479 68.8869 88.582 70.9469 88.17C72.1829 87.964 73.3159 87.758 74.3459 87.552C75.2729 87.449 76.1999 87.346 77.0239 87.243C77.7449 87.243 78.4659 87.14 79.1869 86.934C79.8049 86.934 80.4229 86.831 81.2469 86.625C83.2039 86.213 84.9549 85.801 86.3969 85.183C87.8389 84.668 88.6629 84.359 88.9719 84.153C89.4869 83.844 90.0019 83.535 90.6199 83.329C91.0319 83.226 91.5469 83.123 92.0619 83.02C92.2679 82.402 92.4739 81.784 92.6799 81.166C92.8859 80.754 93.0919 80.342 93.2979 80.136C93.5039 79.93 94.0189 79.621 94.6369 79.209C95.1519 78.9 95.7699 78.591 96.5939 78.282C97.2119 78.076 97.9329 77.87 98.7569 77.664C99.4779 77.664 100.096 77.664 100.714 77.87C101.847 78.282 102.774 79.003 103.598 80.033C104.319 81.166 104.731 82.196 104.937 83.123C104.937 84.153 104.731 84.771 104.422 85.183C104.01 85.595 103.289 86.11 102.465 86.625C101.641 87.243 100.817 87.758 100.096 88.273C99.2719 88.891 98.7569 89.303 98.4479 89.715C98.0359 90.127 97.6239 90.333 97.3149 90.333C96.9029 90.436 96.2849 90.539 95.4609 90.539C94.6369 90.642 94.1219 90.745 93.8129 90.745C93.4009 90.848 92.9889 91.157 92.6799 91.569C92.4739 91.775 92.1649 91.981 91.9589 91.981C91.5469 92.187 91.2379 92.187 91.0319 92.187C90.6199 92.187 90.4139 92.187 90.3109 91.981C90.1049 91.878 90.0019 91.672 90.1049 91.26ZM87.3239 118.967C87.3239 120.821 87.3239 122.366 87.3239 123.499C87.2209 124.735 87.1179 125.765 87.1179 126.589C87.0149 127.413 86.9119 128.031 86.9119 128.649C86.8089 129.164 86.7059 129.679 86.7059 130.194C86.6029 130.915 86.3969 131.739 86.1909 132.769C85.7789 133.696 85.4699 134.623 85.0579 135.653C84.6459 136.58 84.1309 137.507 83.7189 138.331C83.2039 139.052 82.7919 139.567 82.3799 139.979C81.9679 140.185 81.4529 140.494 81.0409 140.906C80.4229 141.112 80.0109 141.318 79.5989 141.524C79.0839 141.524 78.7749 141.524 78.5689 141.318C78.3629 141.112 78.3629 140.597 78.6719 139.979C78.8779 139.258 79.0839 138.125 79.2899 136.58C79.2899 134.932 79.3929 133.181 79.3929 131.327C79.3929 129.473 79.3929 127.619 79.3929 125.765C79.2899 123.911 79.2899 122.366 79.2899 121.13C79.2899 120.1 79.2899 118.967 79.2899 117.834C79.1869 116.804 79.1869 115.774 79.1869 114.847C79.0839 114.023 79.0839 113.405 79.1869 112.787C79.1869 112.272 79.1869 111.963 79.2899 111.86C79.4959 111.551 79.7019 111.345 80.0109 111.345C80.2169 111.345 80.4229 111.242 80.6289 110.83C80.6289 110.418 80.4229 109.903 80.0109 109.388C79.4959 108.976 79.2899 108.255 79.4959 107.225V106.401C78.4659 106.607 77.4359 106.71 76.5089 106.71C75.4789 106.916 74.6549 107.019 73.9339 107.019C72.2859 107.225 70.5349 107.534 68.4749 107.843C66.4149 108.255 64.4579 108.564 62.6039 108.873C60.6469 109.285 58.8959 109.697 57.4539 110.006C55.8059 110.418 54.7759 110.83 54.2609 111.036C53.0249 111.654 52.0979 111.963 51.4799 111.963C50.6559 112.169 49.6259 111.963 48.2869 111.345C47.6689 111.139 46.9479 110.83 46.1239 110.521C45.1969 110.315 44.2699 110.006 43.4459 109.697C42.5189 109.491 41.6949 109.285 40.9739 108.976C40.1499 108.77 39.4289 108.564 39.0169 108.255C38.3989 108.049 38.0899 107.74 37.9869 107.328C37.7809 107.019 37.6779 106.71 37.7809 106.298C37.7809 106.092 37.8839 105.783 38.2959 105.577C38.5019 105.371 38.9139 105.371 39.5319 105.474C40.6649 105.68 41.4889 105.783 42.1069 105.68C42.6219 105.68 43.4459 105.577 44.6819 105.165C45.8149 104.856 46.7419 104.65 47.5659 104.444C48.1839 104.444 49.1109 104.341 50.3469 104.135C50.8619 104.032 51.5829 103.929 52.5099 103.723C53.3339 103.723 54.2609 103.62 55.2909 103.414C56.1149 103.414 57.0419 103.311 57.9689 103.105C58.7929 103.105 59.5139 103.002 60.1319 103.002C60.9559 103.002 62.5009 102.796 64.8699 102.59C67.1359 102.487 69.7109 102.281 72.3889 102.075C74.9639 101.869 77.4359 101.663 79.9079 101.457C82.2769 101.354 84.0279 101.251 85.0579 101.251C85.9849 101.251 87.1179 101.148 88.5599 101.045C89.7959 101.045 91.1349 101.045 92.4739 100.942C93.7099 100.942 94.8429 100.942 95.9759 100.839C97.0059 100.839 97.7269 100.839 98.2419 100.736C99.1689 100.633 100.096 100.324 101.126 99.912C102.053 99.5 103.083 99.294 104.319 99.294C105.452 99.294 106.688 99.397 107.924 99.603C109.16 99.912 110.293 100.015 111.529 99.912C112.662 99.912 113.795 99.603 114.825 99.088C115.752 98.676 116.782 98.676 117.915 98.882C118.43 99.088 119.048 99.191 119.872 99.191C120.49 99.397 121.211 99.5 121.829 99.706C122.447 99.912 122.859 100.221 123.271 100.427C123.58 100.839 123.683 101.251 123.477 101.663C123.065 102.693 122.756 103.311 122.55 103.414C122.241 103.62 121.829 103.826 121.417 104.135C121.211 104.341 121.108 104.547 121.211 104.959C121.211 105.474 121.108 105.989 121.108 106.401C120.902 106.916 120.696 107.328 120.387 107.534C119.975 107.946 119.357 107.946 118.43 107.74C116.164 107.328 114.104 107.019 112.044 106.71C109.984 106.504 108.13 106.298 106.482 106.092C104.731 105.989 103.289 105.886 102.156 105.68C100.92 105.577 100.096 105.371 99.6839 105.165C99.1689 104.959 98.8599 104.856 98.6539 104.753C98.3449 104.753 98.1389 104.65 97.9329 104.547C97.7269 104.547 97.4179 104.547 97.2119 104.547C96.9029 104.547 96.4909 104.547 95.9759 104.547C95.3579 104.547 94.3279 104.65 92.8859 104.753C91.3409 104.959 89.5899 105.165 87.6329 105.371C87.5299 107.843 87.4269 110.109 87.4269 112.272C87.3239 114.538 87.3239 116.804 87.3239 118.967ZM71.6679 49.442C71.9769 49.442 72.4919 49.442 73.1099 49.442C73.6249 49.442 74.2429 49.442 74.8609 49.339C75.3759 49.339 75.8909 49.236 76.5089 49.03C76.9209 49.03 77.3329 48.927 77.5389 48.721C79.1869 47.691 81.2469 47.176 83.7189 46.97C84.4399 46.97 85.2639 47.073 86.0879 47.176C86.9119 47.382 87.5299 47.691 87.9419 48C88.1479 48.206 88.2509 48.309 88.2509 48.515C88.2509 48.824 88.1479 49.133 88.1479 49.339C88.0449 49.751 88.0449 50.06 88.0449 50.266C88.0449 50.575 88.1479 50.884 88.3539 51.09C88.3539 51.296 88.5599 51.399 88.8689 51.502C89.0749 51.708 89.3839 51.914 89.5899 52.12C89.6929 52.326 89.7959 52.635 89.7959 52.841C89.7959 53.15 89.5899 53.459 89.2809 53.665C88.8689 53.974 88.2509 54.283 87.4269 54.592C86.4999 55.004 85.4699 55.21 84.4399 55.416C83.3069 55.725 82.1739 55.931 81.1439 55.931C80.0109 56.034 79.0839 55.931 78.2599 55.725C77.4359 55.519 76.7149 55.21 76.0969 54.798C75.4789 54.489 74.8609 54.077 74.3459 53.665C73.7279 53.356 73.2129 53.047 72.6979 52.738C72.0799 52.532 71.4619 52.326 70.8439 52.223C70.2259 52.223 69.8139 52.017 69.6079 51.605C69.2989 51.399 69.1959 51.09 69.2989 50.678C69.2989 50.369 69.6079 50.06 70.0199 49.751C70.3289 49.545 70.8439 49.442 71.6679 49.442Z" fill="white"/>
</svg>
