<svg width="162" height="192" viewBox="0 0 162 192" fill="none" xmlns="http://www.w3.org/2000/svg">
<rect x="0.75" y="0.75" width="160" height="190" fill="#F6C500"/>
<rect x="0.75" y="0.75" width="160" height="190" stroke="black" stroke-width="1.5"/>
<path d="M62.6059 112.478C65.0779 112.272 67.5499 112.066 70.2279 111.757C72.6999 111.551 75.2749 110.933 77.8499 109.903C78.6739 109.697 79.7039 109.079 80.8369 108.255C81.8669 107.431 82.5879 106.401 82.9999 104.959L84.5449 98.573C84.6479 98.161 84.8539 97.749 85.1629 97.337C85.3689 97.028 85.6779 97.337 85.9869 98.367C86.2959 99.397 86.3989 100.118 86.3989 100.53C86.1929 101.045 86.2959 101.457 86.7079 101.663C86.9139 101.972 87.2229 102.075 87.6349 101.869C87.9439 101.869 88.1499 102.075 88.3559 102.59C88.3559 103.208 88.5619 103.62 88.8709 103.826C89.0769 104.135 89.3859 104.238 89.5919 104.135C90.2099 104.135 90.7249 104.65 90.9309 105.68C90.9309 106.092 91.0339 106.401 91.4459 106.607C91.6519 107.019 91.8579 107.431 92.0639 108.049C92.0639 108.77 91.8579 109.594 91.2399 110.418C90.5189 111.345 89.7979 112.066 88.9739 112.581C87.9439 113.302 86.5019 113.92 84.4419 114.435C82.3819 115.053 80.4249 115.465 78.5709 115.774C75.8929 116.186 73.2149 116.495 70.4339 116.701C67.5499 117.01 64.7689 117.113 62.0909 117.113C60.5459 117.113 59.1039 117.01 57.8679 116.701C56.4259 116.495 55.2929 116.083 54.3659 115.362C53.3359 114.744 52.6149 113.92 52.0999 112.684C51.4819 111.551 51.1729 110.006 51.2759 108.049C51.2759 104.753 51.4819 101.869 51.6879 99.397C51.7909 97.028 51.8939 95.483 51.8939 94.659V94.35C51.4819 94.144 51.1729 94.041 50.8639 93.835C50.4519 93.835 50.2459 93.629 50.1429 93.423C49.9369 93.32 49.8339 93.114 50.0399 92.908C50.1429 92.805 50.5549 92.599 51.2759 92.29C51.0699 91.981 50.7609 91.569 50.5549 91.157C50.2459 90.848 49.9369 90.539 49.6279 90.127C48.5979 89.406 48.0829 88.788 48.0829 88.17C47.9799 87.758 48.5979 87.552 49.8339 87.655C51.0699 87.861 52.3059 88.17 53.6449 88.582C54.8809 89.097 56.0139 89.612 57.0439 90.23C57.0439 90.333 57.0439 90.333 57.2499 90.333C58.7949 89.921 60.3399 89.406 61.7819 88.994C63.1209 88.582 64.2539 88.273 65.2839 87.861C66.4169 87.449 67.2409 86.934 67.8589 86.419C68.3739 86.007 68.8889 85.183 69.4039 83.741C69.8159 82.505 70.4339 80.96 71.0519 79.106C71.6699 77.458 71.9789 76.119 72.1849 75.089C72.1849 74.78 72.2879 74.368 72.2879 73.956C72.2879 73.647 72.1849 73.338 72.1849 73.029C71.9789 72.823 71.7729 72.617 71.4639 72.514C71.0519 72.514 70.5369 72.72 69.9189 72.926C69.3009 73.235 68.2709 73.544 66.9319 73.956C65.4899 74.471 64.1509 74.986 62.7089 75.398C61.2669 75.913 59.9279 76.325 58.6919 76.737C57.4559 77.252 56.6319 77.664 56.2199 77.87C55.3959 78.488 54.4689 79.003 53.3359 79.415C52.0999 79.93 51.0699 79.93 50.3489 79.415C49.5249 79.003 48.9069 78.385 48.4949 77.767C48.0829 77.252 47.5679 76.634 47.0529 75.81C46.4349 75.089 46.3319 74.574 46.6409 74.265C46.8469 74.059 47.4649 73.853 48.2889 73.75C49.0099 73.75 49.9369 73.647 51.1729 73.441C52.3059 73.338 53.5419 73.132 54.9839 72.72C55.3959 72.617 56.5289 72.308 58.1769 71.793C59.8249 71.381 61.5759 70.866 63.4299 70.248C65.2839 69.733 67.0349 69.218 68.6829 68.6C70.3309 68.188 71.3609 67.776 71.9789 67.57C74.0389 66.54 75.8929 66.334 77.6439 67.055C78.5709 67.467 79.6009 67.879 80.7339 68.394C81.7639 69.012 82.4849 69.63 82.7939 70.145C83.1029 70.763 83.3089 71.278 83.3089 71.69C83.2059 72.205 83.2059 72.823 83.3089 73.441C83.3089 74.059 82.9999 74.78 82.3819 75.604C81.6609 76.428 81.1459 77.046 80.7339 77.355C80.5279 77.561 80.2189 77.87 79.9099 78.385C79.4979 79.003 79.0859 79.621 78.6739 80.239C78.2619 80.96 77.8499 81.681 77.4379 82.299C77.0259 83.02 76.6139 83.638 76.4079 84.05C75.9959 84.668 75.8929 84.977 76.2019 85.08C76.4079 85.286 76.8199 85.286 77.3349 85.286C77.6439 85.286 78.0559 85.183 78.6739 85.183C79.1889 85.183 79.6009 85.595 79.8069 86.316C79.9099 87.14 79.8069 87.655 79.4979 88.067C79.0859 88.582 78.5709 89.097 78.0559 89.509C77.4379 90.127 76.7169 90.436 75.8929 90.436C74.9659 90.539 73.9359 90.745 72.8029 90.951C71.0519 91.363 69.0949 91.775 66.9319 92.187C64.6659 92.702 62.9149 93.217 61.6789 93.732C61.2669 93.938 60.9579 94.041 60.7519 94.247C60.3399 94.453 60.0309 94.659 59.8249 94.762C59.6189 95.38 59.5159 95.998 59.5159 96.41C59.3099 96.925 59.1039 97.44 58.8979 97.955C58.4859 98.779 58.1769 99.912 57.9709 101.56C57.6619 103.311 57.4559 104.856 57.2499 106.298C57.0439 107.328 57.0439 108.255 57.1469 108.976C57.1469 109.8 57.4559 110.521 57.8679 110.933C58.1769 111.551 58.6919 111.963 59.5159 112.169C60.2369 112.478 61.2669 112.581 62.6059 112.478ZM111.016 68.497C111.016 69.115 110.913 69.836 110.913 70.763C110.81 71.793 110.81 72.926 110.81 73.956C110.707 75.089 110.707 76.119 110.707 77.046C110.604 78.076 110.604 78.9 110.604 79.415C110.604 80.548 110.604 81.475 110.707 82.299C110.707 83.226 110.707 84.05 110.707 84.874C110.707 85.801 110.707 86.728 110.81 87.655C110.81 88.685 110.81 89.921 110.81 91.26C110.81 92.29 110.81 93.423 110.913 94.659C110.913 95.998 110.913 97.234 110.913 98.47C110.913 99.809 110.913 101.045 110.913 102.178C110.81 103.414 110.81 104.547 110.81 105.371C110.604 109.079 110.604 112.066 110.604 114.538C110.501 117.113 110.501 118.864 110.501 119.791C110.501 121.439 110.295 123.19 110.089 125.147C109.677 127.104 109.368 129.061 108.956 130.915C108.441 132.769 107.926 134.417 107.514 135.962C106.896 137.404 106.484 138.537 106.072 139.155C105.66 139.773 105.145 140.494 104.733 141.215C104.115 141.833 103.703 142.245 103.291 142.554C102.776 142.76 102.467 142.657 102.261 142.245C102.055 141.73 102.055 140.7 102.364 139.155C102.57 137.61 102.776 135.241 102.982 132.048C102.982 128.752 103.085 125.25 103.188 121.439C103.188 117.731 103.188 114.023 103.188 110.315C103.085 106.71 103.085 103.723 103.085 101.457C103.188 99.706 103.188 97.852 103.085 95.998C102.879 94.144 102.879 91.981 102.879 89.303C102.776 87.655 102.776 85.904 102.776 84.05C102.673 82.299 102.673 80.651 102.673 79.209C102.673 77.87 102.673 76.737 102.673 75.81C102.673 74.986 102.673 74.471 102.776 74.368C102.982 74.162 103.291 73.956 103.6 73.956C103.806 73.956 103.909 73.75 104.115 73.235C104.115 73.029 104.115 72.72 104.012 72.514C103.806 72.308 103.703 72.102 103.6 71.793C103.394 71.587 103.188 71.278 103.085 70.866C102.879 70.557 102.879 70.145 102.982 69.527C103.085 68.806 103.188 67.982 103.188 66.952C103.085 66.128 103.085 65.201 103.085 64.171C102.982 62.111 102.982 60.566 103.188 59.433C103.188 58.403 103.188 57.476 103.085 56.446C102.982 55.725 102.982 54.901 102.982 53.974C102.879 53.15 102.467 52.429 101.643 51.708C100.819 51.09 100.098 50.678 99.3769 50.369C98.5529 50.163 97.9349 49.854 97.3169 49.442C96.9049 49.236 96.6989 49.03 96.6989 48.618C96.5959 48.309 96.6989 48 96.9049 47.588C97.0079 47.382 97.3169 47.073 97.7289 46.867C98.1409 46.764 98.6559 46.764 99.3769 46.97C99.6859 47.176 100.304 47.279 101.334 47.485C102.158 47.794 103.188 48.103 104.424 48.309C105.454 48.721 106.587 49.03 107.72 49.236C108.75 49.545 109.574 49.751 110.295 49.854C111.222 50.163 111.943 50.472 112.561 50.678C113.076 51.09 113.179 51.708 112.87 52.738C112.458 53.871 112.149 55.004 111.84 56.24C111.428 57.579 111.222 58.918 111.222 60.36C111.222 61.287 111.119 62.523 111.119 64.171C111.016 65.819 111.016 67.261 111.016 68.497Z" fill="white"/>
</svg>
