<svg width="162" height="192" viewBox="0 0 162 192" fill="none" xmlns="http://www.w3.org/2000/svg">
<rect x="0.75" y="0.75" width="160" height="190" fill="#F6C500"/>
<rect x="0.75" y="0.75" width="160" height="190" stroke="black" stroke-width="1.5"/>
<path d="M66.8651 66.025C68.1011 66.231 69.5431 66.54 70.9851 66.952C72.4271 67.57 73.7661 68.291 75.0021 69.218C76.2381 70.248 77.2681 71.587 78.1951 73.029C79.0191 74.574 79.5341 76.325 79.7401 78.385C79.7401 79.312 79.7401 79.93 79.7401 80.342C79.6371 80.857 79.5341 81.166 79.4311 81.269C79.2251 81.475 79.1221 81.681 79.0191 81.681C78.8131 81.784 78.7101 81.887 78.7101 82.093C78.6071 82.299 78.6071 82.505 78.8131 82.608C78.8131 82.814 78.9161 83.02 79.1221 83.226C79.2251 83.535 79.3281 83.844 79.4311 84.256C79.4311 84.771 79.4311 85.389 79.2251 86.11C78.6071 88.273 77.7831 90.127 76.6501 91.775C75.4141 93.423 73.8691 94.968 72.1181 96.41C71.0881 97.234 69.9551 97.749 68.8221 98.058C67.5861 98.47 66.3501 98.779 65.3201 98.882C64.0841 99.088 63.0541 99.088 62.1271 98.985C61.0971 98.985 60.2731 98.985 59.6551 98.985C58.2131 98.882 56.7711 98.573 55.3291 97.955C53.7841 97.44 52.4451 96.822 51.4151 96.204C49.7671 95.174 48.4281 93.835 47.3981 92.187C46.3681 90.642 45.6471 88.891 45.2351 87.037C44.8231 85.286 44.6171 83.432 44.8231 81.578C44.8231 79.827 45.1321 78.282 45.7501 76.84C46.2651 75.501 47.0891 74.059 48.2221 72.514C49.2521 71.072 50.6941 69.836 52.5481 68.6C52.2391 67.57 51.9301 66.437 51.5181 65.407C51.1061 64.48 50.6941 63.759 50.2821 63.244C49.4581 62.42 49.2521 61.596 49.8701 60.978C50.2821 60.463 51.0031 60.463 51.8271 60.978C52.6511 61.596 53.4751 62.008 54.0931 62.317C54.7111 62.729 55.7411 63.347 57.1831 63.965C58.4191 64.686 59.3461 65.922 59.9641 67.673C60.6851 67.261 61.7151 66.849 62.9511 66.437C64.0841 66.128 65.4231 66.025 66.8651 66.025ZM125.06 80.445C125.06 80.754 125.163 81.063 125.266 81.372C125.266 81.784 125.369 82.196 125.369 82.505C125.369 82.917 125.266 83.226 125.06 83.432C124.751 83.741 124.339 83.947 123.824 84.05C122.691 84.462 121.249 84.565 119.601 84.565C117.747 84.565 116.305 84.565 115.172 84.359C114.657 84.359 113.936 84.359 113.009 84.359C111.979 84.462 111.052 84.565 110.022 84.565C108.992 84.668 107.962 84.771 107.035 84.771C106.005 84.977 105.284 85.08 104.872 85.08C104.769 85.08 104.769 85.08 104.769 85.08C104.666 85.183 104.563 85.183 104.563 85.183V85.286H104.46C104.46 86.522 104.46 87.758 104.46 88.891C104.357 90.127 104.254 91.054 104.151 91.775C104.048 92.599 103.842 93.423 103.636 94.35C103.224 95.38 102.915 96.41 102.503 97.234C101.988 98.264 101.576 99.088 101.164 99.809C100.649 100.633 100.237 101.251 99.8251 101.56C99.4131 101.972 98.8981 102.281 98.4861 102.487C97.8681 102.899 97.4561 103.105 97.0441 103.105C96.5291 103.311 96.2201 103.208 96.0141 103.002C95.8081 102.796 95.8081 102.384 96.1171 101.56C96.3231 100.942 96.4261 100.015 96.6321 98.779C96.6321 97.543 96.7351 96.204 96.7351 94.556C96.7351 93.114 96.7351 91.466 96.7351 89.818C96.6321 88.273 96.6321 86.728 96.6321 85.286C96.6321 83.947 96.6321 82.608 96.6321 81.269C96.5291 80.033 96.5291 78.9 96.5291 77.87C96.5291 76.943 96.5291 76.119 96.5291 75.501C96.5291 74.883 96.5291 74.574 96.6321 74.471C96.8381 74.265 97.1471 74.059 97.4561 74.059C97.6621 74.059 97.7651 73.853 97.9711 73.338C97.9711 73.132 97.9711 72.823 97.8681 72.617C97.6621 72.411 97.5591 72.205 97.4561 71.896C97.2501 71.69 97.0441 71.381 96.9411 70.969C96.7351 70.66 96.7351 70.248 96.8381 69.63C96.9411 68.909 97.0441 68.085 97.0441 67.055C97.0441 66.231 97.0441 65.304 97.0441 64.274C96.8381 62.317 96.8381 60.772 97.0441 59.536C97.0441 58.506 97.0441 57.476 97.0441 56.446C96.8381 55.725 96.8381 54.901 96.8381 53.974C96.7351 53.15 96.3231 52.429 95.4991 51.708C94.6751 51.09 93.9541 50.678 93.3361 50.369C92.5121 50.163 91.7911 49.854 91.1731 49.442C90.7611 49.236 90.5551 49.03 90.5551 48.618C90.4521 48.309 90.5551 48 90.7611 47.588C90.8641 47.382 91.1731 47.073 91.5851 46.867C91.9971 46.764 92.5121 46.764 93.2331 46.97C93.6451 47.176 94.2631 47.382 95.2931 47.588C96.1171 47.897 97.1471 48.206 98.2801 48.412C99.3101 48.824 100.443 49.133 101.576 49.339C102.606 49.751 103.533 49.957 104.151 50.06C105.078 50.266 105.799 50.575 106.417 50.781C106.932 51.193 107.035 51.811 106.726 52.841C106.314 53.974 106.005 55.107 105.696 56.343C105.284 57.579 105.078 58.918 105.078 60.36C105.078 61.39 105.078 62.626 105.078 64.274C104.975 65.922 104.975 67.364 104.975 68.6C104.872 69.218 104.769 69.939 104.769 70.866C104.666 71.896 104.666 72.926 104.666 73.956C104.563 75.089 104.563 76.119 104.563 77.046C104.46 78.076 104.46 78.9 104.46 79.415V81.372C105.387 81.269 106.108 81.166 106.623 80.96C107.447 80.754 108.065 80.651 108.683 80.445C109.095 80.342 109.507 80.239 109.919 80.033C110.125 80.033 110.434 79.827 110.846 79.621C111.052 79.518 111.464 79.312 111.876 79.106C112.7 78.694 113.524 78.385 114.348 78.076C115.069 77.87 115.893 77.767 116.717 77.973C117.644 78.179 118.571 78.179 119.498 77.973C120.322 77.87 120.94 77.767 121.455 77.767C122.279 77.767 123 77.973 123.824 78.385C124.442 79.003 124.854 79.621 125.06 80.445ZM76.6501 135.962C77.2681 135.756 78.1951 135.55 79.3281 135.241C80.3581 134.829 81.5941 134.52 82.8301 134.314C84.0661 133.902 85.3021 133.593 86.5381 133.387C87.6711 133.078 88.7011 132.872 89.7311 132.872C90.0401 132.769 90.5551 132.769 91.1731 132.769C91.7911 132.769 92.4091 132.769 93.2331 132.769C93.2331 131.945 93.2331 130.812 93.4391 129.576C93.4391 128.237 93.5421 126.898 93.6451 125.662C93.6451 124.426 93.7481 123.19 93.8511 122.057C93.8511 121.027 93.7481 120.203 93.7481 119.585C93.5421 118.555 93.4391 117.834 93.2331 117.525C93.0271 117.319 92.5121 117.01 91.6881 116.495C91.2761 116.289 90.8641 116.289 90.4521 116.289C89.9371 116.392 89.4221 116.495 89.0101 116.701C88.3921 116.907 87.8771 117.216 87.4651 117.422C86.9501 117.731 86.5381 117.937 86.1261 118.143C85.7141 118.349 85.1991 118.658 84.5811 118.864C83.8601 119.173 83.1391 119.379 82.4181 119.482C81.5941 119.688 80.8731 119.791 80.1521 119.688C79.3281 119.688 78.7101 119.482 78.0921 118.967C77.4741 118.555 76.7531 118.04 76.0321 117.422C75.2081 117.01 74.4871 116.495 73.8691 115.98C73.0451 115.568 72.4271 115.156 71.9121 114.744C71.2941 114.332 70.7791 114.023 70.5731 113.817C69.9551 113.302 69.7491 112.89 69.9551 112.478C70.0581 112.169 70.4701 112.066 71.1911 112.066C71.8091 112.169 72.5301 112.169 73.4571 112.066C74.2811 112.066 75.6201 112.066 77.4741 111.86C78.5041 111.86 79.6371 111.654 80.8731 111.448C82.1091 111.345 83.3451 111.139 84.5811 110.933C85.8171 110.727 86.9501 110.521 88.0831 110.212C89.1131 110.006 89.9371 109.697 90.5551 109.491C90.8641 109.388 91.2761 109.182 91.6881 108.873C91.9971 108.667 92.4091 108.358 92.8211 108.152C93.2331 107.946 93.6451 107.843 94.2631 107.637C94.6751 107.637 95.2931 107.637 96.0141 107.74C97.2501 108.152 98.6921 108.77 100.237 109.491C101.679 110.315 102.812 110.933 103.842 111.448C104.769 112.066 105.284 112.684 105.284 113.302C105.284 114.126 104.975 114.847 104.46 115.465C103.842 116.289 103.533 116.804 103.327 117.216C103.018 117.731 102.503 118.04 101.885 118.143C101.164 118.349 100.649 118.761 100.34 119.482C99.9281 120.306 99.7221 121.027 99.6191 121.542C99.4131 121.954 99.2071 122.675 99.0011 123.499C98.7951 124.529 98.4861 125.456 98.2801 126.589C97.9711 127.619 97.7651 128.752 97.5591 129.885C97.3531 130.915 97.1471 131.945 96.9411 132.769C97.5591 132.769 98.1771 132.872 98.7951 132.975C99.3101 132.975 99.7221 132.975 100.134 133.181C101.061 133.284 101.576 133.696 101.782 134.314C101.782 134.829 101.782 135.447 101.679 136.168C101.473 137.095 101.164 137.919 100.855 138.743C100.443 139.464 99.4131 139.773 97.7651 139.67C96.8381 139.567 95.2931 139.464 93.1301 139.361C90.8641 139.155 88.5981 138.949 86.3321 138.846C83.9631 138.64 81.9031 138.537 80.0491 138.434C78.0921 138.228 76.9591 138.228 76.7531 138.228C76.4441 138.228 76.1351 138.125 75.7231 138.022C75.3111 137.816 75.0021 137.713 74.8991 137.507C74.6931 137.198 74.6931 136.889 74.8991 136.683C75.1051 136.374 75.6201 136.168 76.6501 135.962ZM58.5221 73.956C57.0801 75.398 55.8441 75.81 54.8141 75.295C54.1961 75.295 53.7841 75.501 53.4751 75.707C53.0631 76.119 52.6511 76.531 52.4451 76.943C52.1361 77.561 51.9301 78.076 51.8271 78.591C51.6211 79.209 51.4151 79.827 51.4151 80.342C51.2091 81.578 51.2091 82.711 51.4151 83.844C51.4151 85.08 51.7241 86.11 52.2391 87.14C52.6511 88.17 53.2691 89.097 54.2991 89.921C55.2261 90.745 56.4621 91.363 58.1101 91.775C60.0671 92.393 61.8181 92.496 63.2601 92.084C64.5991 91.878 65.9381 91.363 67.3801 90.745C69.2341 89.2 70.4701 87.449 71.0881 85.595C71.7061 83.844 72.0151 81.887 72.2211 79.621C72.3241 77.355 71.8091 75.295 70.5731 73.441C69.3371 71.793 67.5861 70.66 65.4231 70.145C64.5991 70.042 63.7751 69.939 62.8481 69.939C61.8181 70.042 60.9941 70.042 60.2731 70.042C60.2731 70.866 60.0671 71.484 59.8611 72.102C59.5521 72.823 59.1401 73.441 58.5221 73.956ZM73.0451 127.619C73.2511 128.649 73.2511 129.782 73.2511 131.224C73.1481 132.46 73.0451 133.799 72.8391 135.138C72.6331 136.374 72.3241 137.507 72.1181 138.64C71.8091 139.67 71.5001 140.494 71.2941 141.112C71.0881 141.421 70.7791 141.73 70.4701 142.142C70.0581 142.348 69.6461 142.554 69.2341 142.657C68.8221 142.657 68.4101 142.451 68.1011 142.142C67.6891 141.73 67.4831 141.215 67.3801 140.391C67.1741 139.67 67.0711 138.846 66.8651 137.919C66.6591 136.889 66.4531 135.859 66.2471 134.829C66.0411 133.696 65.8351 132.666 65.7321 131.636C65.5261 130.606 65.3201 129.679 65.3201 128.958C65.0111 127.31 64.8051 125.765 64.5991 124.323C64.3931 122.881 64.2901 121.233 64.2901 119.585C64.1871 117.525 64.3931 115.568 64.9081 113.714C65.3201 111.963 66.5561 110.315 68.6161 108.667C69.7491 107.843 70.6761 107.225 71.3971 106.813C72.0151 106.504 72.5301 106.401 72.9421 106.401C73.1481 106.504 73.2511 106.71 73.2511 107.019C73.0451 107.431 72.7361 107.843 72.3241 108.255C71.5001 109.079 70.8821 109.697 70.4701 110.212C69.8521 110.83 69.4401 111.551 69.2341 112.478C69.0281 113.508 69.1311 114.435 69.5431 115.465C69.8521 116.598 70.1611 117.525 70.4701 118.349C70.6761 118.761 70.8821 119.379 71.1911 120.203C71.3971 121.13 71.6031 122.057 71.9121 122.984C72.1181 124.014 72.4271 125.044 72.6331 125.868C72.8391 126.692 72.9421 127.207 73.0451 127.619Z" fill="white"/>
</svg>
