<svg width="162" height="192" viewBox="0 0 162 192" fill="none" xmlns="http://www.w3.org/2000/svg">
<rect x="0.75" y="0.75" width="160" height="190" fill="#F6C500"/>
<rect x="0.75" y="0.75" width="160" height="190" stroke="black" stroke-width="1.5"/>
<path d="M45.52 86.831C46.344 87.243 47.374 87.655 48.713 88.273C49.949 88.891 51.185 89.612 52.627 90.333C52.627 90.333 52.627 90.23 52.73 90.127C54.069 87.037 54.996 84.462 55.614 82.505C56.026 80.651 56.438 79.106 56.85 77.664C57.262 76.119 57.571 74.471 57.777 72.823C57.983 71.175 58.086 70.042 58.292 69.424C58.395 69.012 58.704 68.703 59.116 68.497C59.528 68.394 60.043 68.703 60.764 69.321C61.691 70.145 62.618 70.866 63.545 71.484C64.369 72.205 64.884 73.132 65.09 74.162C65.193 75.295 65.193 76.531 64.987 77.973C64.781 79.518 64.06 81.475 62.927 83.741C62.103 85.183 61.382 86.625 60.558 88.17C59.631 89.818 58.704 91.466 57.777 93.114C58.395 93.423 59.116 93.732 59.94 94.144C60.661 94.556 61.485 94.968 62.309 95.38C63.03 95.895 63.751 96.41 64.369 96.925C64.987 97.543 65.399 98.058 65.605 98.573C65.708 99.088 65.811 99.5 65.914 99.809C65.914 100.221 66.017 100.633 66.223 100.942C67.047 99.294 67.871 97.646 68.695 95.792C69.519 94.041 70.24 92.29 71.064 90.436C70.24 89.921 69.622 89.406 69.004 88.994C68.283 88.582 67.768 88.273 67.459 88.067C66.326 87.449 65.811 87.037 66.017 86.625C66.017 86.316 66.738 86.316 67.974 86.625C69.21 87.037 70.549 87.449 71.991 88.067L73.536 84.153C73.742 83.741 73.948 83.02 74.257 82.196C74.463 81.475 74.772 80.651 75.184 79.827C75.39 79.003 75.699 78.282 76.008 77.458C76.214 76.737 76.42 76.222 76.523 75.81C76.729 74.677 76.626 73.544 76.214 72.514C75.596 71.484 75.081 70.557 74.566 69.733C74.36 69.424 74.257 69.012 74.051 68.6C73.742 68.188 73.536 67.776 73.433 67.364C73.021 66.746 73.227 66.231 73.845 65.716C74.36 65.304 74.978 65.51 75.596 66.231C75.905 66.746 76.42 67.261 77.141 67.879C77.759 68.497 78.48 69.115 79.304 69.63C80.025 70.145 80.952 70.66 82.085 71.175C83.115 71.793 84.042 72.308 84.763 72.72C85.381 73.132 85.793 73.647 86.205 74.162C86.514 74.78 86.205 75.913 85.175 77.355C84.557 78.076 84.042 78.9 83.424 79.93C82.806 81.063 82.188 82.093 81.776 83.123C81.158 84.153 80.746 85.08 80.437 85.801C80.025 86.625 79.819 87.14 79.819 87.243L78.068 91.466C78.995 92.187 80.025 92.908 81.261 93.732C82.394 94.556 83.527 95.38 84.763 96.204C85.896 97.028 87.029 97.852 88.059 98.573C88.986 99.397 89.81 100.118 90.531 100.633C91.664 101.869 92.694 103.002 93.621 104.032C94.445 105.165 94.96 105.886 95.372 106.092C95.578 106.504 95.887 107.019 96.093 107.637C96.299 108.358 96.299 109.285 96.196 110.521C95.99 111.139 95.887 111.654 95.887 111.86C95.784 112.272 95.784 112.478 95.784 112.684C95.784 112.993 95.784 113.199 95.784 113.405C95.784 113.714 95.784 114.023 95.784 114.435C95.784 114.95 95.681 115.362 95.475 115.671C95.269 116.083 94.96 116.392 94.754 116.495C94.445 116.701 94.136 116.701 93.827 116.598C93.415 116.598 93.106 116.289 92.9 115.774C92.076 114.538 91.046 112.993 89.81 111.036C88.368 109.182 86.926 107.122 85.484 105.062C83.836 103.105 82.291 101.148 80.849 99.294C79.201 97.44 77.862 95.998 76.729 94.968L76.42 94.762C74.978 97.646 73.433 100.427 71.785 103.105C70.034 105.783 68.386 107.946 66.841 109.388C64.575 111.654 62.103 112.993 59.528 113.611C56.85 114.332 54.481 114.538 52.627 114.126C51.082 113.92 50.361 113.611 50.361 113.199C50.361 112.89 50.67 112.684 51.494 112.478C52.421 112.375 53.348 112.272 54.275 112.066C55.099 111.963 55.923 111.757 56.85 111.345C57.674 111.036 58.601 110.521 59.528 109.903C60.352 109.285 61.279 108.461 62.309 107.225L62.927 106.504C62 104.959 60.867 103.311 59.528 101.457C58.086 99.809 56.747 98.264 55.305 96.822L53.76 98.882C51.906 101.148 49.949 102.899 47.992 104.135C45.932 105.371 44.181 106.195 42.739 106.504C40.885 107.122 39.443 107.019 38.207 106.401C37.28 105.886 36.971 105.474 37.28 105.165C37.692 104.959 38.207 104.856 39.237 104.856C39.855 104.856 40.473 104.753 41.297 104.341C41.915 104.135 42.739 103.723 43.769 103.105C45.314 102.281 46.756 100.839 47.992 98.882C49.228 97.028 50.258 95.174 51.288 93.32C49.846 92.29 48.507 91.26 47.271 90.23C45.829 89.303 45.005 88.685 44.696 88.376C44.078 88.067 43.872 87.655 43.975 87.037C43.975 86.522 44.49 86.419 45.52 86.831ZM87.853 89.509C86.411 89.303 85.69 88.788 85.69 88.17C85.587 87.655 85.999 87.346 86.926 87.14C87.338 87.14 87.647 87.037 87.956 86.934C88.162 86.934 88.574 86.934 88.986 86.831C89.295 86.831 89.707 86.728 90.325 86.625C90.737 86.625 91.458 86.625 92.488 86.625C93.518 86.625 95.166 86.419 97.329 86.007C99.389 85.595 101.449 85.183 103.509 84.565C103.406 81.887 103.406 79.621 103.406 77.561C103.406 75.604 103.406 74.574 103.612 74.368C103.818 74.162 104.024 73.956 104.333 73.956C104.539 73.956 104.642 73.75 104.848 73.235C104.848 73.029 104.848 72.72 104.745 72.514C104.539 72.308 104.436 72.102 104.333 71.793C104.127 71.587 104.024 71.278 103.921 70.866C103.715 70.557 103.715 70.145 103.818 69.527C103.921 68.806 104.024 67.982 104.024 66.952C103.921 66.128 103.921 65.201 103.921 64.171C103.818 62.111 103.818 60.566 103.921 59.433C103.921 58.403 103.921 57.476 103.921 56.446C103.818 55.725 103.715 54.901 103.715 53.974C103.612 53.15 103.2 52.429 102.479 51.708C101.655 51.09 100.934 50.678 100.316 50.369C99.492 50.163 98.874 49.854 98.256 49.442C97.947 49.236 97.741 49.03 97.741 48.618C97.535 48.309 97.638 48 97.844 47.588C97.947 47.382 98.256 47.073 98.668 46.867C99.08 46.764 99.595 46.764 100.316 46.97C100.625 47.176 101.243 47.279 102.17 47.485C102.994 47.794 104.024 48.103 105.157 48.309C106.187 48.721 107.217 49.03 108.35 49.236C109.38 49.545 110.204 49.751 110.822 49.854C111.749 50.163 112.47 50.472 113.088 50.678C113.603 51.09 113.706 51.708 113.397 52.738C112.985 53.871 112.676 55.004 112.367 56.24C111.955 57.579 111.749 58.918 111.749 60.36C111.749 61.287 111.646 62.523 111.646 64.171C111.543 65.819 111.543 67.261 111.543 68.497C111.543 69.115 111.44 69.836 111.44 70.763C111.337 71.793 111.337 72.926 111.337 73.956C111.234 75.089 111.234 76.119 111.234 77.046C111.131 78.076 111.131 78.9 111.131 79.415C111.131 80.548 111.131 81.475 111.234 82.299C111.234 83.226 111.234 84.05 111.234 84.874C111.234 85.801 111.234 86.728 111.337 87.655C111.337 88.685 111.337 89.921 111.337 91.26C111.337 92.29 111.337 93.423 111.44 94.659C111.44 95.998 111.44 97.234 111.44 98.47C111.44 99.809 111.44 101.045 111.44 102.178C111.337 103.414 111.337 104.547 111.337 105.371C111.131 109.079 111.131 112.066 111.131 114.538C111.028 117.113 111.028 118.864 111.028 119.791C111.028 121.439 110.822 123.19 110.616 125.147C110.204 127.104 109.895 129.061 109.483 130.915C109.071 132.769 108.556 134.417 108.144 135.962C107.629 137.404 107.217 138.537 106.805 139.155C106.393 139.773 105.878 140.494 105.466 141.215C104.848 141.833 104.436 142.245 104.024 142.554C103.612 142.76 103.303 142.657 103.097 142.245C102.891 141.73 102.891 140.7 103.2 139.155C103.303 138.125 103.406 136.683 103.612 134.932C103.612 133.078 103.715 131.018 103.818 128.752C103.818 126.383 103.921 124.014 103.921 121.439C103.921 118.967 103.921 116.392 103.921 113.92C103.921 111.551 103.921 109.285 103.921 107.019C103.921 104.856 103.921 103.002 103.921 101.457C103.921 99.706 103.921 97.955 103.921 96.101C103.715 94.453 103.715 92.29 103.715 89.715C102.891 90.23 102.067 90.539 101.243 90.745C100.728 90.951 100.11 91.054 99.286 91.26C98.359 91.569 97.432 91.775 96.608 91.981C95.681 92.187 94.857 92.393 94.136 92.393C93.312 92.599 92.797 92.496 92.488 92.29C91.767 91.878 91.149 91.363 90.737 90.642C90.119 90.024 89.192 89.715 87.853 89.509Z" fill="white"/>
</svg>
