<svg width="162" height="192" viewBox="0 0 162 192" fill="none" xmlns="http://www.w3.org/2000/svg">
<rect x="0.75" y="0.75" width="160" height="190" fill="#F6C500"/>
<rect x="0.75" y="0.75" width="160" height="190" stroke="black" stroke-width="1.5"/>
<path d="M85.8819 64.48C87.3239 64.686 88.8689 64.995 90.5169 65.407C92.0619 65.922 93.6069 66.643 95.0489 67.57C96.3879 68.6 97.5209 69.939 98.5509 71.484C99.4779 73.132 100.096 75.089 100.302 77.355C100.302 78.385 100.302 79.106 100.302 79.518C100.199 80.033 100.096 80.342 99.9929 80.548C99.7869 80.857 99.6839 81.063 99.5809 81.063C99.3749 81.166 99.2719 81.269 99.2719 81.475C99.1689 81.681 99.1689 81.887 99.2719 81.99C99.2719 82.196 99.3749 82.402 99.5809 82.608C99.5809 82.917 99.6839 83.226 99.6839 83.638C99.6839 84.153 99.4779 84.771 99.2719 85.595C98.6539 87.655 97.8299 89.612 96.7999 91.672C95.6669 93.732 94.1219 95.586 92.0619 97.131C90.8259 97.955 89.5899 98.573 88.2509 98.985C86.8089 99.5 85.4699 99.809 84.2339 99.912C82.7919 100.118 81.5559 100.221 80.4229 100.221C79.1869 100.221 78.2599 100.221 77.6419 100.221C75.9939 100.118 74.3459 99.809 72.6979 99.191C70.9469 98.779 69.5049 98.161 68.3719 97.44C66.2089 96.307 64.5609 94.762 63.5309 92.805C62.2949 90.951 61.5739 88.891 61.2649 86.728C60.8529 84.668 60.7499 82.711 61.0589 80.651C61.2649 78.797 61.5739 77.149 62.1919 75.81C62.8099 74.368 63.6339 72.823 64.8699 71.175C65.8999 69.63 67.4449 68.291 69.5049 67.055C69.0929 65.922 68.7839 64.789 68.3719 63.656C67.8569 62.626 67.3419 61.905 66.8269 61.39C66.4149 60.978 66.2089 60.463 66.2089 59.948C66.1059 59.536 66.2089 59.227 66.5179 58.918C66.7239 58.712 67.0329 58.506 67.5479 58.403C67.9599 58.403 68.3719 58.609 68.8869 58.815C69.8139 59.536 70.6379 60.051 71.3589 60.36C71.9769 60.772 73.1099 61.39 74.7579 62.111C76.3029 62.832 77.3329 64.171 77.9509 66.128C78.7749 65.716 80.0109 65.201 81.4529 64.789C82.7919 64.48 84.2339 64.377 85.8819 64.48ZM70.0199 104.65C70.4319 104.856 70.9469 104.959 71.6679 105.062C72.2859 105.268 72.9039 105.577 73.5219 105.989C74.1399 106.401 74.6549 106.916 75.1699 107.534C75.5819 108.255 75.7879 109.079 75.7879 110.109C75.8909 111.963 76.1999 113.92 76.6119 115.774C77.0239 117.731 77.1269 119.379 76.9209 120.718C77.2299 120.718 77.5389 120.718 77.8479 120.718C78.0539 120.718 78.3629 120.718 78.7749 120.615L85.5729 120.203C86.2939 118.967 86.9119 117.731 87.5299 116.289C87.9419 114.95 88.4569 113.714 88.8689 112.581C89.3839 110.83 89.8989 109.182 90.5169 107.637C91.0319 106.195 91.1349 104.856 90.8259 103.826C90.4139 102.693 89.7959 101.972 88.8689 101.766C88.6629 101.766 88.4569 101.56 88.2509 101.354C87.9419 101.148 87.7359 100.942 87.7359 100.633C87.6329 100.427 87.7359 100.221 87.9419 100.015C88.1479 99.809 88.5599 99.706 89.1779 99.706C89.5899 99.706 90.2079 99.809 91.0319 99.809C91.7529 100.015 92.5769 100.118 93.4009 100.221C94.2249 100.427 94.9459 100.633 95.6669 100.839C96.2849 101.045 96.9029 101.251 97.3149 101.457C97.9329 101.663 98.4479 101.869 99.0659 101.869C99.5809 101.972 99.9929 102.384 100.199 103.105C100.405 103.929 100.302 104.753 99.7869 105.68C99.1689 106.71 98.5509 107.946 97.8299 109.285C97.5209 109.903 97.1089 110.521 96.6969 111.345C96.1819 112.272 95.6669 113.199 95.0489 114.126C94.4309 115.156 93.8129 116.083 93.1949 117.113C92.4739 118.143 91.7529 119.173 91.1349 119.997L98.6539 119.585C100.508 119.585 102.362 119.276 104.216 118.658C105.864 118.246 107.203 117.834 108.233 117.422C109.057 117.216 109.984 117.216 111.014 117.216C111.941 117.319 112.971 117.422 114.001 117.628C114.928 117.834 115.855 118.143 116.782 118.349C117.606 118.658 118.224 118.864 118.739 119.07C119.563 119.585 120.284 119.997 120.902 120.306C121.52 120.718 122.138 121.336 122.962 122.057C123.683 122.778 123.992 123.499 123.786 124.22C123.58 125.044 122.962 125.353 121.932 125.456C121.314 125.456 120.49 125.456 119.357 125.456C118.121 125.353 116.988 125.353 115.752 125.353C114.413 125.25 113.177 125.25 112.147 125.353C110.911 125.353 110.19 125.353 109.778 125.456C109.263 125.456 108.645 125.456 108.027 125.456C107.203 125.25 106.482 125.147 105.864 124.941C105.04 124.838 104.422 124.632 103.804 124.426C103.186 124.323 102.671 124.22 102.259 124.117C101.847 124.117 100.817 124.014 99.2719 123.911C97.6239 123.911 95.6669 123.911 93.6069 123.911C91.4439 123.911 89.2809 123.911 87.2209 123.911C84.9549 124.014 83.2039 124.117 81.7619 124.22C78.3629 124.529 75.0669 124.941 71.7709 125.353C68.4749 125.765 65.2819 126.383 62.1919 127.207C60.0289 127.619 58.5869 127.928 57.7629 128.237C56.8359 128.443 56.1149 128.855 55.5999 129.473C55.0849 129.988 54.5699 130.297 54.1579 130.503C53.5399 130.503 52.7159 130.4 51.5829 130.091C50.9649 129.885 50.1409 129.782 48.9049 129.576C47.6689 129.37 46.3299 129.164 44.9909 128.958C43.5489 128.649 42.3129 128.443 41.2829 128.237C40.0469 127.928 39.3259 127.722 39.0169 127.619C38.6049 127.516 38.2959 127.31 38.0899 127.001C37.7809 126.589 37.6779 126.177 37.6779 125.868C37.6779 125.456 37.7809 125.147 38.1929 124.838C38.3989 124.632 38.9139 124.529 39.7379 124.529C40.3559 124.632 41.2829 124.632 42.3129 124.426C43.2399 124.323 44.1669 124.117 45.1969 123.911C45.6089 123.808 46.2269 123.602 47.1539 123.396C47.9779 123.19 48.9049 122.984 49.9349 122.778C50.8619 122.572 51.8919 122.469 52.9219 122.263C53.9519 122.16 54.7759 122.057 55.5999 122.057C56.4239 122.16 57.3509 122.263 58.3809 122.366C59.4109 122.572 60.3379 122.675 61.3679 122.675C61.9859 122.675 63.3249 122.572 65.3849 122.16C67.4449 121.954 69.6079 121.645 72.0799 121.233C71.2559 120.306 70.5349 119.276 69.8139 118.04C68.9899 116.907 68.5779 115.877 68.4749 114.95C68.2689 114.435 68.1659 113.714 68.0629 112.89C67.8569 112.169 67.7539 111.345 67.6509 110.521C67.4449 109.8 67.3419 109.079 67.2389 108.358C67.0329 107.74 66.9299 107.328 66.7239 106.916C66.3119 106.298 66.0029 105.577 65.6939 104.856C65.2819 104.238 64.9729 103.723 64.6639 103.105C64.2519 102.59 64.2519 102.075 64.5609 101.56C64.7669 101.148 65.1789 101.148 65.7969 101.56C66.2089 101.972 66.8269 102.487 67.6509 103.105C68.2689 103.929 69.0929 104.444 70.0199 104.65ZM76.3029 72.926C74.6549 74.368 73.3159 74.883 72.2859 74.471C71.6679 74.471 71.0499 74.574 70.6379 74.883C70.0199 75.295 69.6079 75.707 69.2989 76.222C68.8869 76.84 68.5779 77.458 68.3719 78.076C68.0629 78.797 67.8569 79.415 67.8569 79.93C67.6509 81.269 67.6509 82.608 67.8569 83.844C67.8569 85.183 68.1659 86.419 68.7839 87.552C69.2989 88.788 70.1229 89.921 71.2559 90.745C72.2859 91.672 73.7279 92.393 75.5819 92.805C77.7449 93.423 79.8049 93.526 81.8649 93.114C83.7189 92.805 85.5729 92.29 87.2209 91.569C89.2809 89.818 90.6199 87.861 91.3409 85.698C91.9589 83.638 92.3709 81.372 92.5769 78.9C92.7829 76.428 92.2679 74.162 90.8259 72.205C89.2809 70.351 87.3239 69.218 84.8519 68.6C83.9249 68.497 82.8949 68.394 81.6589 68.394C80.3199 68.497 79.1869 68.497 78.3629 68.497C78.2599 69.321 78.0539 70.145 77.8479 70.866C77.5389 71.69 77.0239 72.411 76.3029 72.926Z" fill="white"/>
</svg>
