<svg width="162" height="192" viewBox="0 0 162 192" fill="none" xmlns="http://www.w3.org/2000/svg">
<rect x="0.75" y="0.75" width="160" height="190" fill="#F6C500"/>
<rect x="0.75" y="0.75" width="160" height="190" stroke="black" stroke-width="1.5"/>
<path d="M67.0711 76.325C68.4101 76.531 69.8521 76.737 71.3971 77.149C72.8391 77.664 74.1781 78.385 75.5171 79.312C76.7531 80.342 77.8861 81.475 78.8131 82.917C79.6371 84.462 80.0491 86.316 80.2551 88.376C80.2551 89.406 80.2551 90.024 80.2551 90.436C80.1521 90.848 80.0491 91.157 80.0491 91.363C79.8431 91.569 79.7401 91.775 79.6371 91.775C79.4311 91.878 79.2251 91.981 79.2251 92.187C79.1221 92.393 79.1221 92.599 79.2251 92.599C79.2251 92.805 79.3281 92.908 79.5341 93.114C79.5341 93.32 79.6371 93.629 79.7401 93.938C79.7401 94.35 79.7401 94.968 79.5341 95.586C78.9161 97.543 78.1951 99.603 77.2681 101.663C76.2381 103.929 74.6931 105.68 72.7361 107.019C71.7061 107.843 70.4701 108.461 69.2341 108.77C67.8951 109.182 66.6591 109.491 65.4231 109.594C64.0841 109.8 62.9511 109.8 61.9211 109.8C60.7881 109.8 59.9641 109.8 59.3461 109.8C57.6981 109.594 56.1531 109.182 54.7111 108.564C53.0631 108.049 51.7241 107.534 50.5911 106.916C48.5311 105.886 47.0891 104.444 46.0591 102.59C45.0291 100.839 44.3081 98.985 43.9991 97.028C43.5871 95.174 43.5871 93.217 43.7931 91.363C43.9991 89.612 44.3081 88.17 44.9261 86.934C45.4411 85.595 46.2651 84.153 47.5011 82.608C48.5311 81.166 50.0761 79.93 51.9301 78.694C51.5181 77.664 51.2091 76.531 50.7971 75.501C50.3851 74.574 49.9731 73.853 49.5611 73.338C49.1491 72.926 48.8401 72.514 48.8401 72.102C48.7371 71.69 48.8401 71.381 49.0461 71.072C49.2521 70.866 49.5611 70.66 49.9731 70.557C50.2821 70.557 50.6941 70.763 51.2091 71.072C51.6211 71.381 52.0331 71.587 52.4451 71.793C52.7541 72.102 53.1661 72.308 53.5781 72.514C53.9901 72.72 54.4021 72.926 55.0201 73.132C55.4321 73.441 56.0501 73.75 56.8741 74.059C57.4921 74.471 58.0071 74.986 58.5221 75.604C58.9341 76.325 59.3461 77.046 59.6551 77.87C60.4791 77.561 61.5091 77.149 62.8481 76.737C64.0841 76.428 65.4231 76.325 67.0711 76.325ZM104.872 68.497C104.872 69.115 104.769 69.836 104.769 70.66C104.666 71.69 104.666 72.617 104.666 73.647C104.563 74.677 104.563 75.707 104.563 76.634C104.46 77.664 104.46 78.488 104.46 79.106L107.241 78.797C108.065 78.694 108.683 78.591 109.301 78.385C109.713 78.385 110.125 78.282 110.537 78.076C110.846 78.076 111.155 77.973 111.567 77.767C111.773 77.767 112.185 77.561 112.597 77.355C113.524 77.046 114.348 76.737 115.172 76.531C115.79 76.325 116.614 76.428 117.541 76.737C118.365 77.149 119.189 77.149 120.219 76.943C121.043 76.84 121.764 76.84 122.279 76.84C123 76.943 123.721 77.252 124.442 77.767C125.06 78.385 125.472 79.106 125.575 79.93C125.575 80.548 125.678 81.269 125.678 81.99C125.678 82.814 125.06 83.329 123.927 83.535C122.794 83.741 121.352 83.741 119.704 83.535C117.953 83.329 116.511 83.123 115.275 82.814C114.76 82.814 114.039 82.711 113.112 82.608C112.082 82.608 111.155 82.608 110.125 82.608C109.095 82.608 108.065 82.608 107.138 82.608C106.108 82.711 105.387 82.711 104.975 82.711H104.46C104.46 83.947 104.46 85.183 104.563 86.419C104.563 87.758 104.666 89.406 104.666 91.26C104.666 92.496 104.666 93.835 104.769 95.277C104.769 96.822 104.769 98.264 104.769 99.706L107.241 99.397C108.065 99.294 108.683 99.191 109.301 98.985C109.713 98.985 110.125 98.882 110.537 98.676C110.846 98.676 111.155 98.573 111.567 98.367C111.773 98.367 112.185 98.161 112.597 97.955C113.524 97.646 114.348 97.337 115.172 97.131C115.79 96.925 116.614 97.028 117.541 97.337C118.365 97.749 119.189 97.749 120.219 97.543C121.043 97.44 121.764 97.44 122.279 97.44C123 97.543 123.721 97.852 124.442 98.367C125.06 98.985 125.472 99.706 125.575 100.53C125.575 101.148 125.678 101.869 125.678 102.59C125.678 103.414 125.06 103.929 123.927 104.135C122.794 104.341 121.352 104.341 119.704 104.135C117.953 103.929 116.511 103.723 115.275 103.414C114.76 103.414 114.039 103.311 113.112 103.208C112.082 103.208 111.155 103.208 110.125 103.208C109.095 103.208 108.065 103.208 107.138 103.208C106.108 103.311 105.387 103.311 104.975 103.311H104.666V105.371C104.46 109.079 104.46 112.066 104.46 114.538C104.357 117.113 104.357 118.864 104.357 119.791C104.357 121.439 104.151 123.19 103.945 125.147C103.533 127.104 103.224 129.061 102.812 130.915C102.297 132.769 101.782 134.417 101.37 135.962C100.752 137.404 100.34 138.537 99.9281 139.155C99.5161 139.773 99.0011 140.494 98.5891 141.215C97.9711 141.833 97.5591 142.245 97.1471 142.554C96.6321 142.76 96.3231 142.657 96.1171 142.245C95.9111 141.73 95.9111 140.7 96.2201 139.155C96.4261 137.61 96.6321 135.241 96.8381 132.048C96.8381 128.752 96.9411 125.25 97.0441 121.439C97.0441 117.731 97.0441 114.023 97.0441 110.315C96.9411 106.71 96.9411 103.723 96.9411 101.457C97.0441 99.706 97.0441 97.852 96.9411 95.998C96.7351 94.144 96.7351 91.981 96.7351 89.303C96.6321 87.655 96.6321 85.904 96.6321 84.05C96.5291 82.299 96.5291 80.651 96.5291 79.209C96.5291 77.87 96.5291 76.737 96.5291 75.81C96.5291 74.986 96.5291 74.471 96.6321 74.368C96.8381 74.162 97.1471 73.956 97.4561 73.956C97.6621 73.956 97.7651 73.75 97.9711 73.235C97.9711 73.029 97.9711 72.72 97.8681 72.514C97.6621 72.308 97.5591 72.102 97.4561 71.793C97.2501 71.587 97.0441 71.278 96.9411 70.866C96.7351 70.557 96.7351 70.145 96.8381 69.527C96.9411 68.806 97.0441 67.982 97.0441 66.952C96.9411 66.128 96.9411 65.201 96.9411 64.171C96.8381 62.111 96.8381 60.566 97.0441 59.433C97.0441 58.403 97.0441 57.476 96.9411 56.446C96.8381 55.725 96.8381 54.901 96.8381 53.974C96.7351 53.15 96.3231 52.429 95.4991 51.708C94.6751 51.09 93.9541 50.678 93.2331 50.369C92.4091 50.163 91.7911 49.854 91.1731 49.442C90.7611 49.236 90.5551 49.03 90.5551 48.618C90.4521 48.309 90.5551 48 90.7611 47.588C90.8641 47.382 91.1731 47.073 91.5851 46.867C91.9971 46.764 92.5121 46.764 93.2331 46.97C93.5421 47.176 94.1601 47.279 95.1901 47.485C96.0141 47.794 97.0441 48.103 98.2801 48.309C99.3101 48.721 100.443 49.03 101.576 49.236C102.606 49.545 103.43 49.751 104.151 49.854C105.078 50.163 105.799 50.472 106.417 50.678C106.932 51.09 107.035 51.708 106.726 52.738C106.314 53.871 106.005 55.004 105.696 56.24C105.284 57.579 105.078 58.918 105.078 60.36C105.078 61.287 104.975 62.523 104.975 64.171C104.872 65.819 104.872 67.261 104.872 68.497ZM58.2131 84.153C57.2861 84.977 56.5651 85.389 55.9471 85.492C55.2261 85.698 54.6081 85.698 54.1961 85.492C53.1661 85.595 52.3421 86.213 51.8271 87.346C51.2091 88.582 50.7971 89.612 50.6941 90.642C50.4881 91.878 50.4881 93.011 50.5911 94.144C50.5911 95.38 50.9001 96.41 51.4151 97.44C51.8271 98.47 52.4451 99.397 53.4751 100.221C54.4021 101.045 55.7411 101.663 57.3891 102.075C59.4491 102.693 61.3031 102.796 63.1571 102.59C64.8051 102.384 66.4531 101.972 67.9981 101.354C69.9551 99.809 71.1911 98.058 71.8091 95.998C72.3241 94.144 72.6331 91.981 72.8391 89.715C72.9421 87.346 72.3241 85.286 71.0881 83.432C69.7491 81.681 67.9981 80.548 65.7321 80.136C64.9081 80.033 63.9811 80.033 62.9511 80.033C61.8181 80.136 60.8911 80.136 60.0671 80.136C60.0671 81.784 59.4491 83.123 58.2131 84.153Z" fill="white"/>
</svg>
