<svg width="75" height="28" viewBox="0 0 75 28" fill="none" xmlns="http://www.w3.org/2000/svg">
<path d="M13.92 18.1801C14.31 18.2401 14.73 18.3301 15.18 18.4501C15.6 18.6001 15.99 18.8101 16.35 19.0501C16.71 19.3501 17.01 19.6801 17.28 20.1001C17.52 20.5201 17.64 21.0301 17.7 21.6301C17.7 21.9001 17.7 22.0801 17.7 22.2001C17.67 22.3201 17.64 22.4101 17.61 22.4401C17.55 22.5001 17.52 22.5601 17.49 22.5601C17.43 22.5901 17.4 22.6201 17.4 22.6801C17.34 22.7401 17.34 22.8001 17.4 22.8001C17.4 22.8301 17.43 22.8901 17.49 22.9501C17.49 23.0101 17.52 23.1001 17.55 23.2201C17.55 23.3401 17.52 23.4901 17.46 23.7301C17.28 24.2401 17.07 24.7801 16.77 25.3201C16.47 25.8601 16.05 26.3101 15.51 26.7301C15.21 26.9401 14.88 27.1201 14.52 27.2401C14.16 27.3601 13.8 27.4501 13.47 27.5101C13.11 27.5701 12.78 27.6001 12.48 27.6301C12.18 27.6301 11.94 27.6301 11.76 27.6301C11.31 27.5701 10.86 27.4801 10.44 27.3301C9.98999 27.1501 9.59999 27.0001 9.26999 26.8501C8.69999 26.5501 8.27999 26.1301 8.00999 25.6501C7.70999 25.1101 7.52999 24.6001 7.46999 24.0601C7.34999 23.4901 7.34999 22.9501 7.40999 22.4401C7.46999 21.9301 7.55999 21.5101 7.70999 21.1801C7.88999 20.8201 8.12999 20.4001 8.45999 19.9501C8.75999 19.5301 9.20999 19.1701 9.74999 18.8401C9.65999 18.5701 9.56999 18.3001 9.47999 18.0301C9.35999 17.7901 9.23999 17.6101 9.11999 17.4901C8.87999 17.2801 8.81999 17.0701 8.99999 16.8601C9.11999 16.6801 9.32999 16.6801 9.56999 16.8301C9.80999 17.0101 10.05 17.1301 10.23 17.2501C10.38 17.4001 10.65 17.5501 11.07 17.7301C11.4 17.9101 11.64 18.2101 11.82 18.6601C12.06 18.5401 12.36 18.4201 12.75 18.3001C13.11 18.2101 13.5 18.1801 13.92 18.1801ZM18.66 6.33008C18.63 6.51008 18.6 6.72008 18.6 6.99008C18.57 7.29008 18.57 7.62008 18.57 7.92008C18.54 8.28008 18.54 8.58008 18.54 8.85008C18.51 9.15008 18.51 9.39008 18.51 9.54008V10.0501C18.63 10.0201 18.72 9.99008 18.84 9.99008C18.93 9.99008 19.02 9.99008 19.14 9.93008C19.38 9.87008 19.56 9.84008 19.74 9.78008C19.86 9.75008 19.98 9.72008 20.1 9.66008C20.16 9.66008 20.25 9.60008 20.37 9.54008C20.43 9.51008 20.55 9.45008 20.67 9.39008C20.91 9.27008 21.15 9.18008 21.39 9.09008C21.6 9.03008 21.84 9.00008 22.08 9.06008C22.35 9.12008 22.62 9.12008 22.89 9.06008C23.13 9.03008 23.31 9.00008 23.46 9.00008C23.7 9.00008 23.91 9.06008 24.15 9.18008C24.33 9.36008 24.45 9.54008 24.51 9.78008C24.51 9.87008 24.54 9.96008 24.57 10.0501C24.57 10.1701 24.6 10.2901 24.6 10.3801C24.6 10.5001 24.57 10.5901 24.51 10.6501C24.42 10.7401 24.3 10.8001 24.15 10.8301C23.82 10.9501 23.4 10.9801 22.92 10.9801C22.38 10.9801 21.96 10.9801 21.63 10.9201C21.48 10.9201 21.27 10.9201 21 10.9201C20.7 10.9501 20.43 10.9801 20.13 10.9801C19.83 11.0101 19.53 11.0401 19.26 11.0401C18.96 11.1001 18.75 11.1301 18.63 11.1301C18.6 11.1301 18.6 11.1301 18.6 11.1301C18.57 11.1601 18.54 11.1601 18.54 11.1601C18.51 11.6401 18.51 12.0901 18.51 12.5401C18.48 13.0201 18.45 13.4101 18.42 13.6801C18.39 13.9201 18.33 14.1601 18.27 14.4301C18.15 14.7301 18.06 15.0301 17.94 15.2701C17.79 15.5701 17.67 15.8101 17.55 16.0201C17.4 16.2601 17.28 16.4401 17.16 16.5301C17.04 16.6501 16.89 16.7401 16.77 16.8301C16.59 16.9501 16.47 17.0101 16.35 17.0101C16.2 17.0701 16.11 17.0401 16.05 16.9501C15.99 16.8901 15.99 16.7701 16.08 16.5301C16.14 16.3501 16.17 16.0501 16.23 15.6301C16.23 15.2101 16.26 14.7601 16.26 14.2201C16.26 13.7101 16.26 13.1701 16.26 12.6301C16.23 12.0901 16.23 11.6101 16.23 11.1901C16.2 10.3801 16.2 9.66008 16.2 9.03008C16.17 8.43008 16.17 8.13008 16.23 8.07008C16.29 7.98008 16.38 7.92008 16.47 7.92008C16.53 7.92008 16.56 7.86008 16.62 7.74008C16.62 7.68008 16.62 7.59008 16.59 7.53008C16.53 7.47008 16.5 7.41008 16.47 7.32008C16.41 7.26008 16.35 7.14008 16.32 7.02008C16.26 6.93008 16.26 6.81008 16.29 6.63008C16.32 6.42008 16.35 6.18008 16.35 5.88008C16.35 5.64008 16.35 5.37008 16.35 5.10008C16.29 4.50008 16.29 4.05008 16.35 3.69008C16.35 3.39008 16.35 3.09008 16.35 2.82008C16.29 2.61008 16.29 2.37008 16.29 2.10008C16.26 1.86008 16.14 1.65008 15.9 1.41008C15.66 1.23008 15.45 1.11008 15.27 1.02008C15.03 0.960077 14.82 0.870077 14.64 0.750076C14.52 0.690077 14.46 0.630078 14.46 0.510078C14.43 0.450077 14.46 0.360078 14.52 0.240077C14.55 0.180076 14.64 0.0900776 14.76 0.0300766C14.88 7.70092e-05 15.03 7.70092e-05 15.24 0.0300766C15.36 0.0900776 15.54 0.150077 15.84 0.210078C16.08 0.300077 16.38 0.390077 16.71 0.450077C17.01 0.570077 17.34 0.660077 17.67 0.720077C17.97 0.840077 18.24 0.900078 18.42 0.930078C18.69 0.990077 18.9 1.08008 19.08 1.17008C19.23 1.29008 19.26 1.47008 19.17 1.74008C19.05 2.07008 18.96 2.43008 18.87 2.79008C18.75 3.18008 18.69 3.57008 18.69 3.96008C18.69 4.26008 18.69 4.62008 18.69 5.07008C18.66 5.55008 18.66 5.97008 18.66 6.33008ZM8.09999 7.95008C8.27999 7.68008 8.42999 7.47008 8.48999 7.35008C8.54999 7.26008 8.57999 7.17008 8.63999 7.11008C8.78999 6.81008 8.81999 6.63008 8.75999 6.51008C8.63999 6.45008 8.45999 6.45008 8.21999 6.54008C7.70999 6.72008 7.31999 6.84008 7.01999 6.96008C6.68999 7.08008 6.44999 7.17008 6.29999 7.23008C5.84999 7.41008 5.36999 7.59008 4.88999 7.80008C4.37999 8.04008 3.92999 8.19008 3.50999 8.19008C2.84999 8.19008 2.30999 8.10008 1.85999 7.89008C1.37999 7.71008 0.989985 7.56008 0.719985 7.44008C0.629985 7.41008 0.569985 7.35008 0.539985 7.23008C0.479985 7.14008 0.449985 7.05008 0.479985 6.93008C0.479985 6.87008 0.539985 6.78008 0.629985 6.69008C0.689985 6.63008 0.779985 6.63008 0.959985 6.63008C1.07999 6.66008 1.22999 6.66008 1.40999 6.66008C1.58999 6.66008 1.76999 6.66008 1.97999 6.63008C2.15999 6.63008 2.36999 6.63008 2.57999 6.60008C2.75999 6.60008 2.93999 6.60008 3.05999 6.57008C3.29999 6.54008 3.62999 6.48008 4.01999 6.36008C4.37999 6.30008 4.76999 6.21008 5.18999 6.09008C5.60999 6.00008 6.02999 5.88008 6.44999 5.76008C6.83999 5.64008 7.19999 5.55008 7.55999 5.43008C7.61999 5.43008 7.73999 5.37008 7.88999 5.31008C8.00999 5.25008 8.06999 5.22008 8.12999 5.19008C8.54999 5.04008 8.90999 4.92008 9.14999 4.83008C9.35999 4.77008 9.50999 4.68008 9.62999 4.53008C9.68999 4.41008 9.80999 4.29008 9.98999 4.14008C10.11 4.02008 10.38 4.05008 10.8 4.23008C11.31 4.47008 11.7 4.71008 12 4.95008C12.27 5.25008 12.36 5.52008 12.27 5.82008C12.12 6.15008 11.91 6.48008 11.67 6.81008C11.37 7.17008 11.01 7.62008 10.59 8.10008C10.35 8.40008 10.08 8.70008 9.77999 9.00008C9.47999 9.36008 9.17999 9.69008 8.87999 9.99008C8.54999 10.3501 8.24999 10.6501 7.97999 10.9501C7.67999 11.2801 7.40999 11.5501 7.22999 11.7301C6.74999 12.2101 6.20999 12.7201 5.60999 13.2001C5.00999 13.7101 4.40999 14.1901 3.83999 14.6101C3.23999 15.0901 2.66999 15.4801 2.18999 15.8401C1.64999 16.2001 1.25999 16.5001 0.959985 16.6801C0.659985 16.8601 0.449985 16.8901 0.329985 16.8301C0.179985 16.8001 0.0899854 16.7101 0.0599854 16.5301C-1.45733e-05 16.3801 0.0599854 16.2301 0.179985 16.0501C0.269985 15.9301 0.419985 15.7201 0.659985 15.4801C0.899985 15.2401 1.16999 14.9401 1.52999 14.5201C1.85999 14.1601 2.15999 13.8301 2.39999 13.5301C2.60999 13.2601 2.81999 13.1101 3.05999 13.1101C3.26999 13.1401 3.41999 13.1101 3.53999 13.0501C3.56999 13.0201 3.68999 12.8701 3.86999 12.6301C4.01999 12.3901 4.19999 12.1501 4.43999 11.8501C4.61999 11.5801 4.82999 11.3101 5.03999 11.0401C5.21999 10.8001 5.33999 10.6201 5.42999 10.5601C5.48999 10.5001 5.57999 10.5001 5.63999 10.5001C5.66999 10.5301 5.69999 10.5301 5.75999 10.5301C5.78999 10.5601 5.84999 10.5601 5.90999 10.5001C5.96999 10.5001 6.02999 10.3801 6.14999 10.2001C6.32999 9.84008 6.47999 9.54008 6.56999 9.33008C6.62999 9.15008 6.83999 9.00008 7.13999 8.88008C7.43999 8.76008 7.64999 8.58008 7.79999 8.40008C7.91999 8.25008 8.00999 8.10008 8.09999 7.95008ZM11.46 20.4301C11.07 20.7301 10.77 20.8801 10.53 20.8201C10.35 20.7601 10.17 20.7901 10.05 20.8501C9.86999 20.9401 9.74999 21.0601 9.65999 21.1801C9.53999 21.3601 9.47999 21.5101 9.41999 21.6901C9.35999 21.8701 9.29999 22.0501 9.29999 22.2301C9.26999 22.5901 9.26999 22.8901 9.29999 23.2501C9.29999 23.5801 9.35999 23.9101 9.47999 24.2101C9.59999 24.5101 9.77999 24.7801 10.05 25.0201C10.29 25.2301 10.68 25.4101 11.16 25.5301C11.73 25.6501 12.3 25.7101 12.87 25.6501C13.41 25.5601 13.89 25.4101 14.31 25.2301C14.85 24.7501 15.18 24.2701 15.33 23.7601C15.45 23.2201 15.51 22.6501 15.57 21.9901C15.6 21.3301 15.45 20.7301 15.09 20.1901C14.73 19.6801 14.22 19.3501 13.56 19.2301C13.32 19.2001 13.05 19.2001 12.75 19.2001C12.42 19.2301 12.15 19.2601 11.94 19.2601C11.97 19.7401 11.82 20.1301 11.46 20.4301ZM34.3823 3.30008C34.7123 3.36008 35.0723 3.42008 35.4923 3.54008C35.8523 3.66008 36.2123 3.84008 36.5723 4.08008C36.9023 4.35008 37.2023 4.68008 37.4423 5.04008C37.6823 5.46008 37.8023 5.91008 37.8623 6.45008C37.8623 6.69008 37.8623 6.87008 37.8623 6.96008C37.8323 7.08008 37.8023 7.17008 37.8023 7.20008C37.7423 7.26008 37.7123 7.32008 37.6823 7.32008C37.6223 7.35008 37.5923 7.38008 37.5923 7.44008C37.5623 7.50008 37.5623 7.53008 37.6223 7.53008C37.6223 7.59008 37.6523 7.62008 37.7123 7.68008C37.7123 7.74008 37.7423 7.83008 37.7723 7.92008C37.7723 8.04008 37.7723 8.16008 37.7123 8.34008C37.5323 8.94008 37.2923 9.45008 36.9623 9.87008C36.6023 10.3501 36.1823 10.7401 35.7023 11.0701C35.4323 11.2801 35.1623 11.4301 34.8623 11.5201C34.5323 11.6401 34.2323 11.7001 33.9323 11.7301C33.6323 11.7901 33.3323 11.8201 33.0923 11.8201C32.7923 11.8201 32.5823 11.8201 32.4323 11.8201C32.0723 11.7901 31.6523 11.7001 31.2323 11.5201C30.7823 11.3701 30.4223 11.2201 30.1223 11.0401C29.6423 10.8001 29.2823 10.4701 29.0423 10.0501C28.7423 9.63008 28.5623 9.18008 28.4723 8.70008C28.3523 8.25008 28.2923 7.80008 28.3523 7.32008C28.3523 6.87008 28.4423 6.45008 28.6223 6.09008C28.7723 5.76008 29.0123 5.37008 29.3423 4.95008C29.6423 4.56008 30.0323 4.20008 30.5123 3.90008C30.3923 3.60008 30.3023 3.33008 30.1823 3.03008C30.0623 2.76008 29.9423 2.55008 29.8223 2.43008C29.7023 2.34008 29.6723 2.25008 29.6723 2.13008C29.6723 2.04008 29.7023 1.95008 29.7623 1.86008C29.8223 1.80008 29.9123 1.77008 30.0323 1.74008C30.1223 1.74008 30.2423 1.77008 30.3623 1.83008C30.5723 2.01008 30.7523 2.13008 30.9323 2.25008C31.0823 2.40008 31.3523 2.55008 31.7723 2.70008C32.1023 2.88008 32.3423 3.21008 32.4923 3.66008C32.7023 3.57008 32.9723 3.48008 33.3323 3.39008C33.6623 3.33008 34.0223 3.30008 34.3823 3.30008ZM43.0223 9.63008C43.0223 9.57008 43.0223 9.45008 43.0223 9.27008C42.9923 9.15008 42.9923 8.97008 42.9923 8.79008C42.9923 8.64008 42.9923 8.49008 43.0223 8.34008C43.0223 8.22008 43.0523 8.13008 43.1123 8.07008C43.1723 7.98008 43.2323 7.92008 43.3223 7.92008C43.3823 7.95008 43.4423 7.89008 43.5023 7.74008C43.5023 7.68008 43.5023 7.59008 43.4723 7.53008C43.4123 7.47008 43.3523 7.41008 43.3223 7.32008C43.2623 7.26008 43.2023 7.14008 43.1723 7.02008C43.1123 6.93008 43.1123 6.81008 43.1723 6.63008C43.2023 6.42008 43.2323 6.18008 43.2323 5.88008C43.2023 5.64008 43.2023 5.37008 43.2023 5.10008C43.1723 4.50008 43.1723 4.05008 43.2023 3.69008C43.2023 3.39008 43.2023 3.09008 43.2023 2.82008C43.1723 2.61008 43.1423 2.37008 43.1423 2.10008C43.1123 1.86008 42.9923 1.65008 42.7823 1.44008C42.5423 1.26008 42.3023 1.14008 42.1223 1.05008C41.8823 0.990077 41.7023 0.900078 41.5223 0.780078C41.4023 0.720077 41.3423 0.660077 41.3423 0.540077C41.3123 0.450077 41.3123 0.360078 41.3723 0.240077C41.4023 0.180076 41.4923 0.0900776 41.6123 0.0300766C41.7323 7.70092e-05 41.8823 7.70092e-05 42.1223 0.0300766C42.2123 0.0900776 42.3923 0.150077 42.6923 0.210078C42.9323 0.300077 43.2323 0.390077 43.5623 0.480076C43.8623 0.600076 44.1923 0.690077 44.5223 0.750076C44.8223 0.840077 45.0923 0.900078 45.2723 0.930078C45.5423 1.02008 45.7523 1.11008 45.9323 1.17008C46.0823 1.29008 46.1123 1.47008 46.0223 1.77008C45.9023 2.10008 45.8123 2.43008 45.7223 2.79008C45.6023 3.18008 45.5423 3.57008 45.5423 3.96008C45.5423 4.26008 45.5423 4.62008 45.5423 5.07008C45.5123 5.55008 45.5123 6.00008 45.5123 6.36008C45.5123 6.54008 45.4823 6.75008 45.4823 7.02008C45.4523 7.32008 45.4223 7.65008 45.4223 7.95008C45.3923 8.28008 45.3923 8.58008 45.3923 8.85008C45.3623 9.15008 45.3623 9.39008 45.3623 9.54008C45.3623 9.84008 45.3623 10.2001 45.3623 10.5601C45.3623 10.9501 45.3623 11.3401 45.3623 11.7001C45.3323 12.1201 45.3323 12.4801 45.3323 12.8401C45.3323 13.2301 45.3323 13.5601 45.3323 13.8001C45.2723 14.5501 45.2723 15.1801 45.2723 15.6601C45.2423 16.2001 45.2423 16.5601 45.2423 16.7401C45.2423 17.0701 45.1823 17.4301 45.1223 17.8201C45.0023 18.2401 44.9123 18.6301 44.7923 18.9901C44.6423 19.4101 44.4923 19.7701 44.3723 20.0701C44.1923 20.4001 44.0723 20.6101 43.9523 20.7301C43.8323 20.8801 43.6823 21.0001 43.5623 21.1201C43.3823 21.2701 43.2623 21.3601 43.1423 21.3901C42.9923 21.4501 42.9023 21.4501 42.8423 21.3301C42.7823 21.2701 42.7823 21.0601 42.8723 20.7301C42.9323 20.4301 42.9923 19.9501 43.0523 19.2601C43.0823 18.6001 43.1123 17.8801 43.1423 17.1001C43.1423 16.3501 43.1423 15.6001 43.1423 14.8201C43.1123 14.1001 43.1123 13.4701 43.1123 12.9901C43.1123 12.8701 43.1123 12.6901 43.1123 12.5101C43.1123 12.3301 43.0823 12.1501 43.0823 11.9101C42.7823 12.0301 42.5123 12.1201 42.2123 12.1801C42.0323 12.2401 41.8523 12.2701 41.6423 12.3301C41.4023 12.3901 41.1623 12.4501 40.9223 12.4801C40.6823 12.5401 40.4423 12.5401 40.2623 12.5401C40.0223 12.5701 39.8723 12.5401 39.7823 12.4801C39.6623 12.4201 39.6023 12.3601 39.5423 12.2701C39.4523 12.2101 39.3623 12.1201 39.3023 12.0301C39.2123 11.9701 39.1223 11.8801 39.0023 11.7901C38.8823 11.7301 38.7023 11.7001 38.5223 11.6701C38.0723 11.6101 37.8323 11.4901 37.7723 11.3101C37.6823 11.1301 37.7723 11.0401 38.0723 10.9801C38.1923 10.9801 38.3123 10.9501 38.4323 10.9501C38.4923 10.9501 38.6123 10.9501 38.7323 10.9201C38.8223 10.9201 38.9423 10.9201 39.1223 10.8901C39.2723 10.8901 39.4823 10.8901 39.7823 10.8301C39.9023 10.8301 40.0523 10.8301 40.2923 10.8001C40.5023 10.8001 40.7723 10.7701 41.0723 10.7101C41.3723 10.7101 41.6723 10.6801 42.0323 10.6201C42.3323 10.5901 42.6623 10.5301 43.0223 10.4701V9.63008ZM30.6623 13.8301L34.4123 13.3801C34.5923 13.3501 34.7423 13.2601 34.9223 13.1401C35.0423 13.0201 35.1923 12.9001 35.3423 12.7801C35.4623 12.6601 35.6123 12.5701 35.7623 12.4501C35.8823 12.3901 36.0323 12.3301 36.2123 12.3301C36.6023 12.3601 36.9623 12.4201 37.3223 12.5401C37.6523 12.6901 37.9223 12.8101 38.1623 12.9301C38.3423 13.0201 38.5223 13.1101 38.7023 13.2301C38.8223 13.3801 38.9423 13.5301 39.0623 13.6501C39.2423 13.9501 39.3023 14.2501 39.2723 14.5501C39.2123 14.9101 38.8823 15.2401 38.3123 15.5401C37.9223 15.7801 37.4723 16.0501 36.9623 16.3501C36.4223 16.7101 35.9123 17.1001 35.4623 17.5501C34.9823 17.9701 34.5623 18.3001 34.2023 18.5701C33.7823 18.8701 33.4223 19.2601 33.1223 19.7401C32.8823 20.0701 32.6723 20.3701 32.4323 20.6401C32.1623 20.9401 31.9523 21.1801 31.8023 21.3301C31.6823 21.4501 31.5323 21.5401 31.4123 21.5401C31.2623 21.5701 31.1423 21.5401 31.0523 21.4501C30.9323 21.3901 30.8723 21.3001 30.8723 21.1801C30.8423 21.0601 30.9023 20.9401 31.0223 20.7901C31.1423 20.6701 31.2323 20.4601 31.3223 20.2201C31.3823 19.9801 31.4723 19.7401 31.5323 19.4701C31.5623 19.2301 31.5923 18.9901 31.6523 18.7501C31.6523 18.5401 31.6823 18.3901 31.7123 18.2701C31.7423 18.0601 31.8323 17.9101 31.9523 17.8201C32.0423 17.7601 32.2223 17.6701 32.5223 17.5501C32.7623 17.4901 33.0023 17.4301 33.2423 17.3701C33.4223 17.3701 33.6323 17.2201 33.8123 16.9801C34.1123 16.5601 34.4423 16.2301 34.8023 15.9901C35.1623 15.7801 35.4023 15.5701 35.5223 15.3301C35.6423 15.1201 35.6723 14.9401 35.6723 14.8201C35.6423 14.7301 35.4323 14.7001 35.0723 14.7001C34.3823 14.7601 33.7223 14.8801 33.0623 15.0301C32.4023 15.2101 31.7723 15.3601 31.2323 15.5101C30.6623 15.6901 30.1823 15.8701 29.7923 16.0201C29.3723 16.2001 29.1023 16.3201 28.9523 16.3801C28.5923 16.5301 28.3223 16.6201 28.1423 16.6501C27.9023 16.7101 27.6023 16.6501 27.2123 16.4701C27.0023 16.4101 26.7923 16.3201 26.5523 16.2301C26.2823 16.1701 26.0423 16.1101 25.8023 16.0201C25.5323 15.9601 25.2923 15.9001 25.0823 15.8101C24.8423 15.7501 24.6323 15.6901 24.5123 15.6301C24.2123 15.5101 24.0923 15.3001 24.1523 15.0601C24.1523 14.8201 24.3323 14.7301 24.6623 14.7601C24.8123 14.8201 24.9623 14.8201 25.0823 14.8201C25.1723 14.8501 25.2623 14.8501 25.3823 14.8201C25.4423 14.8201 25.5623 14.8201 25.6823 14.7901C25.7723 14.7901 25.8923 14.7601 26.0723 14.7001C26.8223 14.4601 27.6023 14.2801 28.4423 14.1301C29.2223 14.0101 29.9723 13.9201 30.6623 13.8301ZM36.7223 19.8301C36.8723 19.8301 37.0223 19.9201 37.1423 20.0401C37.2623 20.1901 37.2323 20.3701 37.1123 20.5801C37.0523 20.7001 36.9623 20.8201 36.8723 21.0001C36.7523 21.1801 36.6623 21.3601 36.5723 21.5401C36.4523 21.7501 36.3323 21.9301 36.2723 22.1101C36.1523 22.2901 36.0923 22.4401 36.0623 22.5301C36.0323 22.6501 36.0023 22.8001 35.9723 22.9801C35.9123 23.1601 35.8523 23.3401 35.8523 23.5501C35.8223 23.7301 35.8223 23.9101 35.8523 24.1201C35.8523 24.3001 35.9423 24.4801 36.0623 24.6301C36.3023 24.9001 36.6023 25.0801 36.9323 25.1701C37.2323 25.2301 37.5023 25.2901 37.8023 25.3201C38.1323 25.3201 38.5823 25.2901 39.1223 25.2901C39.6623 25.2301 40.2023 25.2001 40.7723 25.1401C41.3123 25.0501 41.8223 24.9601 42.3323 24.9001C42.8123 24.8101 43.1723 24.7201 43.4123 24.6301C43.8023 24.4801 44.1623 24.4201 44.4923 24.4501C44.7923 24.4501 45.0623 24.5401 45.3023 24.7801C45.4223 24.9001 45.5423 24.9901 45.6923 25.1101C45.8123 25.1701 45.9323 25.2601 46.0523 25.3501C46.1123 25.4101 46.1723 25.4701 46.2023 25.5301C46.2023 25.5901 46.1423 25.6501 46.0223 25.7101C45.7523 25.8301 45.5123 25.9501 45.2723 26.0701C45.0323 26.1601 44.7023 26.2501 44.3123 26.3701C44.1323 26.4301 43.9823 26.4901 43.9223 26.5801C43.8323 26.6401 43.7723 26.7001 43.7123 26.7901C43.6223 26.8501 43.5323 26.9401 43.4423 27.0301C43.3223 27.0901 43.1723 27.1201 42.9623 27.1801C42.7223 27.2101 42.3023 27.2401 41.7623 27.2701C41.1623 27.2701 40.5623 27.2701 39.9023 27.2701C39.2423 27.2401 38.6123 27.2101 38.0123 27.1801C37.4123 27.1201 36.9623 27.0901 36.6623 27.0301C36.3023 26.9401 35.9423 26.8201 35.6423 26.7001C35.3123 26.5501 35.0423 26.3701 34.8323 26.1301C34.5923 25.8901 34.4123 25.5901 34.2923 25.2601C34.1423 24.9001 34.0823 24.5101 34.1123 24.0301C34.1423 23.4301 34.1723 23.0101 34.2323 22.7401C34.2323 22.5001 34.2623 22.2301 34.2623 21.9301C34.2623 21.7501 34.1723 21.6001 34.0523 21.4501C33.9023 21.3301 33.7823 21.2101 33.6623 21.0301C33.5423 20.9101 33.4223 20.7301 33.2723 20.5201C33.0923 20.3401 33.0923 20.1301 33.2723 19.8301C33.4223 19.5301 33.5423 19.3501 33.6623 19.2901C33.7523 19.2601 33.8723 19.2901 34.0223 19.3801C34.0823 19.4401 34.1123 19.5001 34.1423 19.5601C34.1423 19.6201 34.1423 19.6801 34.1423 19.7101C34.1423 19.7701 34.1423 19.8301 34.1723 19.8601C34.1723 19.9201 34.2323 19.9201 34.3523 19.9201C34.5323 19.9801 34.7123 19.9501 34.8923 19.8601C35.0423 19.8001 35.2523 19.7401 35.4923 19.7101C35.7023 19.7101 35.9123 19.7101 36.1523 19.7401C36.3623 19.8001 36.5423 19.8301 36.7223 19.8301ZM32.1623 5.28008C31.8023 5.58008 31.5023 5.73008 31.2923 5.67008V5.70008C31.1123 5.64008 30.9923 5.64008 30.8723 5.70008C30.7523 5.79008 30.6323 5.91008 30.5723 6.03008C30.4523 6.18008 30.3923 6.33008 30.3623 6.51008C30.3023 6.69008 30.2723 6.87008 30.2723 6.99008C30.2123 7.29008 30.2123 7.59008 30.2723 7.89008C30.2723 8.19008 30.3623 8.49008 30.4823 8.73008C30.6023 9.00008 30.7823 9.24008 31.0523 9.42008C31.2923 9.63008 31.6223 9.78008 32.0423 9.87008C32.5523 10.0201 33.0023 10.0501 33.3623 9.99008C33.7223 9.93008 34.0823 9.81008 34.5023 9.63008C34.9823 9.27008 35.2823 8.85008 35.4323 8.37008C35.5523 7.95008 35.6423 7.44008 35.7023 6.84008C35.7323 6.24008 35.5823 5.70008 35.2823 5.22008C34.9523 4.77008 34.5023 4.47008 33.9323 4.35008C33.7523 4.32008 33.5123 4.29008 33.2723 4.29008C33.0023 4.29008 32.7623 4.29008 32.5823 4.29008C32.5823 4.47008 32.5523 4.65008 32.4923 4.83008C32.4323 5.01008 32.3123 5.16008 32.1623 5.28008ZM64.8347 14.0101L64.9847 13.4701H64.9547C64.8347 13.4701 64.5947 13.5901 64.1747 13.8301C63.7247 14.0701 63.2447 14.3101 62.7347 14.6101C62.1947 14.9101 61.6547 15.2401 61.1147 15.5401C60.8147 15.7201 60.5147 15.8701 60.2147 16.0501C59.8847 16.2601 59.5547 16.4401 59.1947 16.5901C58.8047 16.7701 58.4147 16.9201 58.0247 17.0101C57.6047 17.1301 57.1847 17.1601 56.7647 17.1301C56.4047 17.1301 56.1347 17.1301 55.9247 17.1001C55.6847 17.1001 55.4747 17.0401 55.3547 16.9201C55.2047 16.8301 55.1147 16.6201 55.0547 16.3201C54.9947 16.0501 54.9647 15.6301 54.9647 15.0301C54.9647 14.3101 55.0547 13.6801 55.2947 13.1701C55.5047 12.6901 55.8347 12.1801 56.3147 11.5801C56.5547 11.3101 56.8247 11.0101 57.1547 10.7101C57.4547 10.4401 57.7847 10.1701 58.1147 9.90008C58.4147 9.66008 58.6847 9.42008 58.9547 9.21008C59.1947 9.03008 59.3447 8.85008 59.4647 8.73008C59.5847 8.61008 59.6747 8.49008 59.7047 8.40008C59.7047 8.34008 59.6747 8.31008 59.6147 8.31008C59.5547 8.31008 59.4647 8.34008 59.4047 8.34008C59.2847 8.40008 59.2247 8.43008 59.1647 8.43008C58.9847 8.49008 58.8647 8.55008 58.7447 8.61008C58.5947 8.70008 58.4447 8.76008 58.3247 8.82008C58.1747 8.88008 58.0247 8.94008 57.8747 8.97008C57.6947 9.03008 57.4547 9.03008 57.2147 9.03008C56.7047 9.03008 56.2547 8.88008 55.8647 8.58008C55.4447 8.31008 55.1447 8.01008 54.9647 7.68008C54.8447 7.53008 54.8147 7.35008 54.8147 7.17008C54.7847 6.99008 54.7847 6.84008 54.8447 6.72008C54.8747 6.60008 54.9347 6.51008 55.0247 6.45008C55.0847 6.39008 55.1447 6.42008 55.2647 6.48008C55.4447 6.63008 55.7747 6.72008 56.2847 6.75008C56.7647 6.81008 57.2747 6.84008 57.8147 6.78008C58.0547 6.78008 58.3547 6.72008 58.7747 6.66008C59.1347 6.63008 59.5547 6.57008 59.9747 6.48008C60.3947 6.42008 60.7847 6.33008 61.2047 6.24008C61.5947 6.18008 61.9247 6.09008 62.1647 6.03008C62.5247 5.97008 62.7947 5.88008 62.9447 5.76008C63.0647 5.70008 63.2747 5.52008 63.5147 5.28008C63.7247 5.07008 63.9947 4.83008 64.3547 4.53008C64.6847 4.26008 65.0447 4.17008 65.4647 4.23008C65.8247 4.29008 66.1847 4.38008 66.4847 4.50008C66.7547 4.65008 67.0247 4.77008 67.2647 4.83008C67.5047 4.89008 67.6847 5.01008 67.8047 5.19008C67.8947 5.37008 67.9247 5.55008 67.8647 5.73008C67.8047 5.97008 67.7147 6.12008 67.5347 6.18008C67.3547 6.27008 67.0847 6.33008 66.7847 6.33008C66.5147 6.39008 66.0947 6.48008 65.4947 6.66008C64.8947 6.87008 64.2947 7.05008 63.7247 7.23008C63.4247 7.35008 63.2147 7.44008 63.0647 7.53008C62.8847 7.65008 62.7347 7.77008 62.6147 7.83008C62.3747 7.95008 62.1047 8.10008 61.8047 8.34008C61.4447 8.58008 61.1147 8.85008 60.8147 9.12008C60.4547 9.42008 60.1547 9.72008 59.8547 9.99008C59.5547 10.2901 59.3147 10.5001 59.1647 10.6801C58.9247 10.9201 58.7447 11.1301 58.5647 11.2801C58.3547 11.4601 58.1747 11.6401 58.0247 11.8201C57.8447 12.0001 57.7247 12.2101 57.6347 12.4201C57.5147 12.6601 57.4247 12.9301 57.3647 13.2301C57.3347 13.4401 57.3347 13.6501 57.3947 13.8301C57.4247 14.0401 57.5147 14.2201 57.6347 14.3401C57.7547 14.4901 57.9047 14.5801 58.1147 14.6101C58.2947 14.6701 58.5647 14.6701 58.8647 14.5801C59.5847 14.4001 60.2747 14.1601 60.9047 13.9201C61.5047 13.7101 62.0447 13.4701 62.4647 13.2301C62.9747 12.9301 63.3647 12.7501 63.6347 12.6601C63.8747 12.6001 64.0247 12.5701 64.1147 12.5101C64.3547 12.3301 64.5647 12.2401 64.8047 12.1801C64.9847 12.1801 65.1647 12.1801 65.2847 12.1801L65.4047 12.2401C65.4647 12.0301 65.4947 11.8501 65.5547 11.7001C65.5547 11.5801 65.6447 11.4901 65.7947 11.4001C65.8547 11.3701 65.9447 11.3701 66.1247 11.3701C66.2747 11.4001 66.4547 11.4301 66.6647 11.4601C66.8447 11.5201 67.0247 11.6101 67.2347 11.6701C67.4147 11.7601 67.5647 11.8201 67.7147 11.8801C67.8347 11.9401 67.9247 12.0301 68.0147 12.0901C68.0747 12.2101 68.1347 12.3301 68.1647 12.4801C68.1647 12.6601 68.1047 12.9001 68.0447 13.1401C67.9247 13.4101 67.7747 13.7401 67.5647 14.1301C67.0247 15.0901 66.4847 15.9601 65.9147 16.7401C65.3147 17.5201 64.5947 18.3601 63.7547 19.2001C63.3947 19.5901 63.0347 19.9501 62.7047 20.2801C62.3447 20.6401 61.9547 21.0301 61.5047 21.4501L66.7847 21.1801C67.3247 21.1801 67.8647 21.0901 68.4047 20.9101C68.8847 20.7901 69.2747 20.6701 69.5747 20.5501C69.8147 20.4901 70.0847 20.4901 70.3847 20.4901C70.6547 20.5201 70.9547 20.5501 71.2547 20.6101C71.5247 20.6701 71.7947 20.7601 72.0647 20.8201C72.3047 20.9101 72.4847 20.9701 72.6347 21.0301C72.8747 21.1801 73.0847 21.3001 73.2647 21.3901C73.4447 21.5101 73.6247 21.6901 73.8647 21.9001C74.0747 22.1101 74.1647 22.3201 74.1047 22.5301C74.0447 22.7701 73.8647 22.8601 73.5647 22.8901C73.3847 22.8901 73.1447 22.8901 72.8147 22.8901C72.4547 22.8601 72.1247 22.8601 71.7647 22.8601C71.3747 22.8301 71.0147 22.8301 70.7147 22.8601C70.3547 22.8601 70.1447 22.8601 70.0247 22.8901C69.8747 22.8901 69.6947 22.8901 69.5147 22.8901C69.2747 22.8301 69.0647 22.8001 68.8847 22.7401C68.6447 22.7101 68.4647 22.6501 68.2847 22.5901C68.1047 22.5601 67.9547 22.5301 67.8347 22.5001C67.7147 22.5001 67.4147 22.4701 66.9647 22.4401C66.4847 22.4401 65.9147 22.4401 65.3147 22.4401C64.6847 22.4401 64.0547 22.4401 63.4547 22.4401C62.7947 22.4701 62.2847 22.5001 61.8647 22.5301C60.8747 22.6201 59.9147 22.7401 58.9547 22.8601C57.9947 22.9801 57.0647 23.1601 56.1647 23.4001C55.5347 23.5201 55.1147 23.6101 54.8747 23.7001C54.6047 23.7601 54.3947 23.8801 54.2447 24.0601C54.0947 24.2101 53.9447 24.3001 53.8247 24.3601C53.6447 24.3601 53.4047 24.3301 53.0747 24.2401C52.8947 24.1801 52.6547 24.1501 52.2947 24.0901C51.9347 24.0301 51.5447 23.9701 51.1547 23.9101C50.7347 23.8201 50.3747 23.7601 50.0747 23.7001C49.7147 23.6101 49.5047 23.5501 49.4147 23.5201C49.2947 23.4901 49.2047 23.4301 49.1447 23.3401C49.0547 23.2201 49.0247 23.1001 49.0247 23.0101C49.0247 22.8901 49.0547 22.8001 49.1747 22.7101C49.2347 22.6501 49.3847 22.6201 49.6247 22.6201C49.8047 22.6501 50.0747 22.6501 50.3747 22.5901C50.6447 22.5601 50.9147 22.5001 51.2147 22.4401C51.3347 22.4101 51.5147 22.3501 51.7847 22.2901C52.0247 22.2301 52.2947 22.1701 52.5947 22.1101C52.8647 22.0501 53.1647 22.0201 53.4647 21.9601C53.7647 21.9301 54.0047 21.9001 54.2447 21.9001C54.4847 21.9301 54.7547 21.9601 55.0547 21.9901C55.3547 22.0501 55.6247 22.0801 55.9247 22.0801C56.0447 22.0801 56.2547 22.0501 56.5547 21.9901C56.8547 21.9601 57.1847 21.9001 57.6047 21.8401C57.9947 21.8101 58.4147 21.7501 58.8947 21.6901C59.3447 21.6301 59.7947 21.6001 60.2447 21.5401C60.2447 21.5401 60.2447 21.5101 60.2747 21.4801C60.5447 21.0901 60.9347 20.5501 61.4147 19.8301C61.8647 19.1701 62.3147 18.4501 62.7947 17.7001C63.2447 16.9801 63.6647 16.2901 64.0847 15.6001C64.4447 14.9401 64.7147 14.4001 64.8347 14.0101Z" fill="#F6C500"/>
</svg>
