<svg width="91" height="121" viewBox="0 0 91 121" fill="none" xmlns="http://www.w3.org/2000/svg">
<rect x="0.5" y="0.5" width="90" height="120" fill="#F6C500"/>
<rect x="0.5" y="0.5" width="90" height="120" stroke="black"/>
<path d="M39.1517 42.1C39.8717 42.22 40.5917 42.34 41.4317 42.58C42.2117 42.82 42.9317 43.24 43.6517 43.72C44.3117 44.26 44.9117 44.92 45.3917 45.7C45.8117 46.54 46.0517 47.5 46.1717 48.64C46.1717 49.12 46.1717 49.48 46.1717 49.66C46.1117 49.9 46.0517 50.08 46.0517 50.14C45.9317 50.26 45.8717 50.38 45.8117 50.38C45.6917 50.5 45.6317 50.56 45.6317 50.68C45.5717 50.8 45.5717 50.92 45.6917 50.92C45.6917 51.04 45.7517 51.1 45.8717 51.22C45.8717 51.34 45.9317 51.52 45.9917 51.7C45.9917 51.94 45.9917 52.18 45.8717 52.54C45.6917 53.08 45.5117 53.56 45.3917 53.98C45.1517 54.46 44.9117 54.94 44.6717 55.36C44.4317 55.78 44.1917 56.2 43.9517 56.62C43.6517 57.1 43.4117 57.46 43.2317 57.64C42.6317 58.36 42.0317 59.14 41.5517 59.92C40.9517 60.76 40.4117 61.54 39.9317 62.32C39.3917 63.16 38.9117 63.94 38.4317 64.66C37.8917 65.44 37.3517 66.1 36.8717 66.7C36.7517 66.82 36.6317 67 36.5717 67.24C36.4517 67.48 36.3317 67.72 36.3317 67.9C36.2717 68.14 36.3317 68.32 36.4517 68.44C36.5117 68.62 36.6917 68.68 36.9917 68.68C37.7117 68.68 38.4317 68.56 39.2117 68.44C39.9317 68.32 40.5917 68.2 41.3117 68.08C41.9117 67.96 42.5117 67.84 42.9917 67.72C43.4717 67.66 43.7717 67.6 44.0117 67.6C44.3717 67.6 44.8517 67.54 45.4517 67.36C45.9917 67.24 46.5917 67.12 47.2517 66.88C47.8517 66.76 48.5117 66.52 49.1717 66.28C49.7717 66.1 50.3717 65.92 50.9717 65.68C50.9717 64.66 51.0317 63.58 51.0917 62.38C51.0917 61.3 51.0917 60.16 51.0917 59.02C51.0917 58.42 51.0917 57.94 51.0917 57.52C51.0317 57.16 51.0317 56.86 51.0317 56.56V54.88C51.0317 54.58 51.0317 54.28 51.0317 53.98C51.0317 53.74 51.0317 53.62 51.0917 53.56C51.2117 53.44 51.3917 53.32 51.5117 53.32C51.6317 53.32 51.6917 53.2 51.8117 52.9C51.8117 52.78 51.8117 52.6 51.8117 52.48C51.6917 52.36 51.6317 52.24 51.5717 52.06C51.4517 51.94 51.3317 51.76 51.2717 51.52C51.1517 51.34 51.1517 51.1 51.2117 50.74C51.2117 50.5 51.2717 50.14 51.3317 49.6C51.3317 49.12 51.3317 48.64 51.3317 48.04C51.3317 47.5 51.3317 46.96 51.3317 46.42C51.2717 45.94 51.2717 45.52 51.2717 45.22C51.2717 44.02 51.2717 43.12 51.3317 42.46C51.3317 41.86 51.3317 41.26 51.2717 40.66C51.2117 40.24 51.2117 39.76 51.2117 39.28C51.1517 38.8 50.9117 38.38 50.4917 37.96C50.0117 37.6 49.6517 37.36 49.2917 37.18C48.8717 37.06 48.5117 36.88 48.2117 36.64C48.0317 36.52 47.9117 36.4 47.9117 36.16C47.7917 35.98 47.7917 35.8 47.9117 35.56C47.9717 35.44 48.1517 35.26 48.3917 35.14C48.5717 35.08 48.8717 35.08 49.2317 35.2C49.4117 35.32 49.7717 35.38 50.3117 35.5C50.7917 35.68 51.3917 35.86 51.9917 35.98C52.5917 36.22 53.1917 36.4 53.7917 36.52C54.3317 36.7 54.8117 36.82 55.1717 36.88C55.6517 37.06 56.0717 37.24 56.4317 37.36C56.6717 37.6 56.7317 37.96 56.5517 38.56C56.3117 39.22 56.1317 39.88 56.0117 40.6C55.7717 41.38 55.7117 42.16 55.7117 43C55.6517 43.54 55.6517 44.26 55.6517 45.22C55.6517 46.18 55.5917 47.02 55.5917 47.74C55.5917 48.22 55.5317 48.82 55.4717 49.48C55.3517 50.2 55.3517 50.92 55.4717 51.7C55.4117 52.42 55.3517 53.08 55.3517 53.68C55.2317 54.28 55.2317 54.88 55.2917 55.48C55.2917 55.84 55.2917 56.14 55.2917 56.44C55.2317 56.8 55.2917 56.98 55.4117 57.1C55.4717 57.22 55.6517 57.16 55.8917 56.92C56.0717 56.68 56.4317 56.14 56.9117 55.3C57.5717 54.22 58.1717 53.26 58.7117 52.42C59.1917 51.7 59.6717 50.98 60.1517 50.32C60.1517 49.6 60.1517 49.06 60.1517 48.58C60.1517 48.16 60.1517 47.92 60.2717 47.86C60.3917 47.74 60.5117 47.62 60.6917 47.62C60.8117 47.62 60.8717 47.5 60.9917 47.2C60.9917 47.08 60.9917 46.9 60.9317 46.78C60.8117 46.66 60.7517 46.54 60.6917 46.36C60.5717 46.24 60.4517 46.06 60.3917 45.82C60.2717 45.64 60.2717 45.4 60.3917 45.04C60.3917 44.62 60.4517 44.14 60.4517 43.54C60.3917 43.06 60.3917 42.52 60.4517 41.92C60.3917 40.72 60.3917 39.82 60.4517 39.16C60.4517 38.56 60.4517 37.96 60.4517 37.36C60.3917 36.94 60.3917 36.46 60.3917 35.98C60.3317 35.5 60.0917 35.08 59.6717 34.66C59.1917 34.3 58.7717 34.06 58.4117 33.88C57.9317 33.76 57.5717 33.58 57.2717 33.34C57.0317 33.22 56.9117 33.1 56.9117 32.86C56.8517 32.68 56.8517 32.5 56.9717 32.26C57.0317 32.14 57.2117 31.96 57.4517 31.84C57.6317 31.78 57.9317 31.78 58.3517 31.9C58.5317 32.02 58.8917 32.08 59.4317 32.2C59.9117 32.38 60.5117 32.56 61.1717 32.68C61.7717 32.92 62.3717 33.1 62.9717 33.22C63.5717 33.4 64.0517 33.52 64.4117 33.58C64.8917 33.76 65.3117 33.94 65.6717 34.06C65.9117 34.3 65.9717 34.66 65.7917 35.26C65.5517 35.92 65.3717 36.58 65.2517 37.3C65.0117 38.08 64.9517 38.86 64.9517 39.7C64.9517 40.24 64.9517 40.96 64.9517 41.92C64.8917 42.88 64.8317 43.72 64.7717 44.44C64.7717 44.8 64.7717 45.22 64.7717 45.76C64.7117 46.36 64.7117 47.02 64.7117 47.62C64.6517 48.28 64.6517 48.88 64.6517 49.42C64.5917 50.02 64.5917 50.5 64.5917 50.8C64.5917 51.46 64.5917 52 64.6517 52.48C64.6517 53.02 64.6517 53.5 64.6517 53.98C64.6517 54.52 64.6517 55.06 64.7117 55.6C64.7117 56.2 64.7117 56.92 64.7117 57.7V65.92C64.5917 68.08 64.5317 69.82 64.5317 71.26C64.4717 72.76 64.4717 73.78 64.4717 74.32C64.4717 75.28 64.3517 76.3 64.2317 77.44C64.0517 78.58 63.8717 79.72 63.6317 80.8C63.3917 81.88 63.0917 82.84 62.8517 83.74C62.5517 84.58 62.3117 85.24 62.0717 85.6C61.8317 85.96 61.5317 86.38 61.2917 86.8C60.9917 87.16 60.7517 87.4 60.5117 87.58C60.2717 87.7 60.0917 87.64 59.9717 87.4C59.8517 87.1 59.8517 86.5 60.0317 85.6C60.0917 85 60.1517 84.16 60.2717 83.14C60.2717 82.06 60.3317 80.86 60.3917 79.54C60.3917 78.22 60.4517 76.84 60.4517 75.34C60.4517 73.9 60.4517 72.4 60.4517 70.96V63.7C60.4517 62.68 60.3917 61.6 60.3917 60.46C60.3317 59.38 60.3317 58.12 60.3317 56.56C60.2717 56.38 60.2717 56.2 60.2717 55.96C60.2717 55.84 60.2717 55.66 60.2717 55.42C59.0717 57.7 57.9917 60.04 56.9717 62.44C55.8917 64.96 55.2317 67.36 54.9917 69.76C54.8717 71.32 54.8117 72.28 54.8117 72.7C54.7517 73.42 54.5117 73.9 54.0317 74.14C53.5517 74.44 53.1317 74.74 52.8317 74.98C52.5917 75.16 52.4117 75.34 52.2317 75.46C51.9917 75.7 51.7517 75.82 51.5717 75.82C51.3317 75.88 51.0917 75.82 50.9717 75.58C50.7317 75.4 50.6117 74.98 50.6117 74.38C50.5517 74.02 50.5517 73.24 50.6717 72.04C50.6717 70.9 50.7317 69.52 50.8517 67.9C50.3717 68.14 49.8317 68.38 49.2917 68.62C48.6917 68.86 48.0917 69.1 47.6117 69.28C47.0117 69.52 46.5317 69.64 46.1117 69.76C45.6317 69.88 45.3317 70 45.2117 70C44.4917 70.18 43.4117 70.48 41.9717 70.84C40.5317 71.26 39.0317 71.68 37.5317 72.04C35.9717 72.52 34.5917 72.88 33.3317 73.18C32.0117 73.54 31.1717 73.78 30.8117 73.9C29.8517 74.08 28.8917 74.2 27.8717 74.2C26.7917 74.26 25.8317 74.08 25.1117 73.6C24.3317 73.18 23.7317 72.76 23.2517 72.4C22.7117 72.1 22.2317 71.8 21.8117 71.5C21.5717 71.38 21.3917 71.2 21.3317 70.96C21.2117 70.78 21.1517 70.6 21.2717 70.36C21.2717 70.24 21.4517 70.06 21.6917 69.94C21.9317 69.82 22.2317 69.82 22.7117 69.94C23.4317 70.18 24.2117 70.24 25.0517 70.18C25.8917 70.18 26.7917 70.12 27.8117 70C29.4917 69.52 30.9917 68.68 32.2517 67.48C33.4517 66.4 34.4117 65.2 35.1917 64C35.4317 63.58 35.7317 63.16 35.9717 62.68C36.1517 62.26 36.3917 61.78 36.6917 61.18C36.9917 60.46 36.8117 60.04 36.1517 59.8C35.6117 59.8 35.2517 59.8 35.1317 59.74C34.2917 59.68 33.4517 59.5 32.5517 59.14C31.5917 58.84 30.8717 58.54 30.2717 58.18C29.3117 57.7 28.5317 56.98 28.0517 56.08C27.4517 55.24 27.0917 54.34 26.9117 53.38C26.6717 52.42 26.5517 51.46 26.6717 50.44C26.6717 49.48 26.8517 48.64 27.2117 47.92C27.5117 47.2 27.9917 46.42 28.6517 45.52C29.2517 44.68 30.0917 43.96 31.1117 43.36C30.8717 42.76 30.6917 42.1 30.4517 41.5C30.1517 40.96 29.9117 40.54 29.6717 40.24C29.4317 40.06 29.3717 39.82 29.3717 39.58C29.3717 39.4 29.4317 39.22 29.5517 39.04C29.6717 38.92 29.8517 38.86 30.0917 38.8C30.2717 38.8 30.5117 38.92 30.7517 39.04C31.2317 39.4 31.6517 39.64 32.0117 39.88C32.3117 40.18 32.8517 40.48 33.6917 40.78C34.4117 41.2 34.8917 41.86 35.2517 42.82C35.6717 42.64 36.2117 42.46 36.9317 42.28C37.5917 42.16 38.3117 42.1 39.1517 42.1ZM34.4717 46.18C33.9917 46.66 33.6317 46.9 33.3317 46.96C32.9717 47.08 32.6717 47.08 32.4317 46.96C32.0717 46.96 31.8317 47.02 31.6517 47.14C31.4117 47.38 31.2317 47.62 31.1117 47.86C30.9317 48.22 30.8117 48.52 30.7517 48.82C30.6317 49.18 30.5717 49.48 30.5717 49.72C30.4517 50.38 30.4517 50.98 30.5717 51.58C30.5717 52.24 30.7517 52.84 30.9917 53.38C31.2317 53.98 31.5917 54.46 32.1317 54.82C32.6117 55.3 33.3317 55.6 34.2317 55.78C35.3117 56.08 36.2117 56.14 37.0517 55.96C37.8317 55.84 38.6117 55.6 39.4517 55.24C40.4717 54.46 41.1317 53.62 41.4317 52.66C41.6717 51.76 41.7917 50.68 41.9117 49.42C41.9717 48.16 41.6717 47.02 41.0117 46.06C40.2917 45.16 39.3917 44.56 38.2517 44.2C37.7717 44.14 37.2917 44.08 36.8117 44.08C36.2717 44.08 35.7917 44.08 35.4317 44.08C35.4317 44.98 35.0717 45.7 34.4717 46.18Z" fill="white"/>
</svg>
