<svg width="361" height="151" viewBox="0 0 361 151" fill="none" xmlns="http://www.w3.org/2000/svg">
<rect x="0.5" y="0.5" width="90" height="120" fill="#F6C500"/>
<rect x="0.5" y="0.5" width="90" height="120" stroke="black"/>
<path d="M71.6117 60.7C71.6117 61.06 71.6717 61.48 71.6717 61.9C71.6717 62.38 71.3117 62.68 70.6517 62.8C69.9917 62.92 69.1517 62.92 68.1917 62.8C67.1717 62.68 66.3317 62.56 65.6117 62.38C65.3117 62.38 64.8917 62.32 64.3517 62.26C63.7517 62.26 63.2117 62.26 62.6117 62.26C62.0117 62.26 61.4117 62.26 60.8717 62.26C60.2717 62.32 59.8517 62.32 59.6117 62.32H59.4917C59.4917 63.04 59.4917 63.64 59.4917 64.24C59.4317 64.9 59.4317 65.44 59.4317 65.92C59.3117 68.08 59.3117 69.82 59.3117 71.26C59.2517 72.76 59.2517 73.78 59.2517 74.32C59.2517 75.28 59.1317 76.3 59.0117 77.44C58.7717 78.58 58.5917 79.72 58.3517 80.8C58.0517 81.88 57.7517 82.84 57.5117 83.74C57.1517 84.58 56.9117 85.24 56.6717 85.6C56.4317 85.96 56.1317 86.38 55.8917 86.8C55.5317 87.16 55.2917 87.4 55.0517 87.58C54.7517 87.7 54.5717 87.64 54.4517 87.4C54.3317 87.1 54.3317 86.5 54.5117 85.6C54.6317 84.7 54.7517 83.32 54.8717 81.46C54.8717 79.54 54.9317 77.5 54.9917 75.28C54.9917 73.12 54.9917 70.96 54.9917 68.8C54.9317 66.7 54.9317 64.96 54.9317 63.64C54.9917 62.62 54.9917 61.54 54.9317 60.46C54.8117 59.38 54.8117 58.12 54.8117 56.56C54.7517 55.6 54.7517 54.58 54.7517 53.5C54.6917 52.48 54.6917 51.52 54.6917 50.68C54.6917 49.9 54.6917 49.24 54.6917 48.7C54.6917 48.22 54.6917 47.92 54.7517 47.86C54.8717 47.74 55.0517 47.62 55.2317 47.62C55.3517 47.62 55.4117 47.5 55.5317 47.2C55.5317 47.08 55.5317 46.9 55.4717 46.78C55.3517 46.66 55.2917 46.54 55.2317 46.36C55.1117 46.24 54.9917 46.06 54.9317 45.82C54.8117 45.64 54.8117 45.4 54.8717 45.04C54.9317 44.62 54.9917 44.14 54.9917 43.54C54.9317 43.06 54.9317 42.52 54.9317 41.92C54.8717 40.72 54.8717 39.82 54.9917 39.16C54.9917 38.56 54.9917 38.02 54.9317 37.42C54.8717 37 54.8717 36.52 54.8717 35.98C54.8117 35.5 54.5717 35.08 54.0917 34.66C53.6117 34.3 53.1917 34.06 52.7717 33.88C52.2917 33.76 51.9317 33.58 51.5717 33.34C51.3317 33.22 51.2117 33.1 51.2117 32.86C51.1517 32.68 51.2117 32.5 51.3317 32.26C51.3917 32.14 51.5717 31.96 51.8117 31.84C52.0517 31.78 52.3517 31.78 52.7717 31.9C52.9517 32.02 53.3117 32.08 53.9117 32.2C54.3917 32.38 54.9917 32.56 55.7117 32.68C56.3117 32.92 56.9717 33.1 57.6317 33.22C58.2317 33.4 58.7117 33.52 59.1317 33.58C59.6717 33.76 60.0917 33.94 60.4517 34.06C60.7517 34.3 60.8117 34.66 60.6317 35.26C60.3917 35.92 60.2117 36.58 60.0317 37.3C59.7917 38.08 59.6717 38.86 59.6717 39.7C59.6717 40.24 59.6117 40.96 59.6117 41.92C59.5517 42.88 59.5517 43.72 59.5517 44.44C59.5517 44.8 59.4917 45.22 59.4917 45.76C59.4317 46.36 59.4317 47.02 59.4317 47.62C59.3717 48.28 59.3717 48.88 59.3717 49.42C59.3117 50.02 59.3117 50.5 59.3117 50.8C59.3117 51.46 59.3117 52 59.3717 52.48C59.3717 53.02 59.3717 53.5 59.3717 53.98C59.3717 54.52 59.3717 55.06 59.4317 55.6C59.4317 56.2 59.4317 56.92 59.4317 57.7V60.22L60.9317 60.04C61.4117 59.98 61.7717 59.92 62.1317 59.8C62.3717 59.8 62.6117 59.74 62.8517 59.62C63.0317 59.62 63.2117 59.56 63.4517 59.44C63.5717 59.44 63.8117 59.32 64.0517 59.2C64.5917 59.02 65.0717 58.84 65.5517 58.72C65.9117 58.6 66.3917 58.66 66.9317 58.84C67.4117 59.08 67.8917 59.08 68.4917 58.96C68.9717 58.9 69.3917 58.9 69.6917 58.9C70.1117 58.96 70.5317 59.14 70.9517 59.44C71.3117 59.8 71.5517 60.22 71.6117 60.7ZM37.2917 54.16C37.7117 53.56 38.1317 52.96 38.4917 52.36C38.7917 51.76 39.1517 51.22 39.5717 50.62C39.8717 50.02 39.9317 49.66 39.8117 49.48C39.5717 49.36 39.2117 49.36 38.7317 49.54L37.8317 49.84C37.2317 50.08 36.6917 50.26 36.2117 50.44C35.6117 50.68 35.1917 50.8 34.8917 50.92C33.9917 51.28 33.0317 51.64 32.0717 52.06C31.0517 52.54 30.1517 52.84 29.3117 52.9C27.9917 52.9 26.9117 52.66 25.9517 52.18C24.9317 51.76 24.1517 51.4 23.6117 51.1C23.4317 51.04 23.3117 50.92 23.2517 50.68C23.1317 50.5 23.1317 50.26 23.1917 50.02C23.1917 49.84 23.3117 49.66 23.4917 49.48C23.6117 49.36 23.8517 49.3 24.2117 49.3C24.4517 49.36 24.7517 49.36 25.1117 49.36C25.4717 49.42 25.8317 49.42 26.2517 49.42C26.6117 49.42 27.0317 49.42 27.4517 49.36C27.8117 49.36 28.1717 49.36 28.4117 49.3C29.9117 49.12 31.5317 48.82 33.2717 48.4C34.9517 48.04 36.4517 47.68 37.7717 47.2C38.6117 46.9 39.4517 46.6 40.1717 46.3C40.8917 46.06 41.3117 45.76 41.5517 45.46C41.6117 45.34 41.7317 45.22 41.8517 45.04C41.9117 44.92 42.0317 44.86 42.2717 44.74C42.3917 44.68 42.6317 44.62 42.9317 44.62C43.1717 44.62 43.4717 44.74 43.8917 44.92C44.9117 45.4 45.7517 45.88 46.4117 46.42C47.0117 47.02 47.1917 47.56 47.0117 48.1C46.6517 48.88 46.1717 49.6 45.5117 50.32C44.7917 51.04 43.9517 52 43.1117 53.2C42.6917 53.8 42.2117 54.4 41.6117 55.12C41.0117 55.9 40.3517 56.68 39.7517 57.4C39.0317 58.24 38.4317 58.96 37.8317 59.68C37.1717 60.46 36.6317 61.12 36.2117 61.6C35.2517 62.68 34.2317 63.76 33.0917 64.9C31.8917 66.1 30.6917 67.18 29.6117 68.2C28.4117 69.28 27.3917 70.24 26.4317 71.08C25.4117 71.98 24.6317 72.64 24.0917 73C23.5517 73.42 23.1317 73.6 22.8317 73.48C22.4717 73.42 22.2317 73.24 22.1717 72.88C22.0517 72.58 22.1717 72.22 22.4117 71.86C22.6517 71.56 22.9517 71.14 23.4317 70.54C23.8517 70.06 24.3917 69.4 25.0517 68.56C25.6517 67.78 26.1317 67.06 26.5517 66.4C26.7317 66.16 26.9717 65.92 27.2117 65.74C27.4517 65.62 27.6917 65.56 27.9317 65.44C28.1117 65.44 28.2917 65.38 28.4717 65.32C28.5917 65.32 28.7117 65.32 28.8317 65.2C28.8917 65.2 29.0717 64.9 29.4317 64.36C29.7317 63.88 30.0917 63.28 30.5117 62.68C30.8717 62.08 31.2317 61.54 31.5917 60.94C31.9517 60.46 32.1917 60.1 32.3717 59.92C32.4917 59.8 32.6717 59.68 32.7917 59.68C32.8517 59.74 32.9117 59.8 33.0317 59.8C33.0917 59.86 33.2117 59.86 33.3317 59.74C33.3917 59.68 33.5117 59.44 33.7517 59.02C34.1117 58.24 34.3517 57.64 34.5317 57.22C34.6517 56.86 35.0117 56.56 35.6117 56.2C36.1517 55.9 36.5717 55.54 36.8117 55.12C36.9917 54.76 37.1717 54.46 37.2917 54.16Z" fill="white"/>
<rect x="90.5" y="30.5" width="90" height="120" fill="#F6C500"/>
<rect x="90.5" y="30.5" width="90" height="120" stroke="black"/>
<path d="M128.889 91.72C129.729 91.48 130.509 91.24 131.169 90.94C131.769 90.7 132.369 90.46 132.909 90.16C133.389 89.92 133.809 89.68 134.229 89.32C134.589 89.02 135.009 88.66 135.489 88.3C136.209 87.7 136.749 87.16 137.229 86.62C137.649 86.14 137.949 85.66 138.189 85.3C138.309 85.12 138.369 84.88 138.429 84.58C138.429 84.34 138.069 84.1 137.469 83.8C136.389 83.44 135.429 82.96 134.589 82.42C133.749 81.94 133.029 81.4 132.489 80.8C132.189 80.56 131.949 80.2 131.709 79.72C131.469 79.36 131.349 78.88 131.349 78.34C131.349 77.86 131.529 77.38 131.949 76.78C132.309 76.24 133.029 75.7 133.989 75.1C134.949 74.5 136.389 73.84 138.189 73.06C139.989 72.34 141.789 71.68 143.649 70.96L143.889 66.82C143.949 65.8 143.829 65.02 143.469 64.54C143.049 64.12 142.509 63.76 141.849 63.4C141.669 63.4 141.549 63.28 141.429 63.16C141.309 63.04 141.249 62.92 141.249 62.8C141.249 62.68 141.309 62.56 141.489 62.44C141.609 62.32 141.909 62.26 142.389 62.2C142.749 62.2 143.229 62.26 143.829 62.32C144.369 62.44 144.909 62.5 145.509 62.62C145.989 62.74 146.469 62.86 146.949 62.98C147.309 63.16 147.609 63.28 147.789 63.34C148.089 63.58 148.449 63.88 148.809 64.24C149.109 64.72 149.169 65.38 148.989 66.22C148.929 66.4 148.869 66.58 148.869 66.82C148.749 67.12 148.689 67.42 148.629 67.78C148.509 68.38 148.449 68.86 148.449 69.16C148.989 68.98 149.469 68.8 149.829 68.62C150.189 68.5 150.429 68.38 150.609 68.26C151.209 68.02 151.629 68.02 151.869 68.26C151.989 68.62 151.809 68.98 151.209 69.4C150.489 69.88 149.589 70.42 148.389 70.9C148.329 71.62 148.269 72.46 148.209 73.42C148.089 74.44 148.089 75.4 148.089 76.36C148.029 77.26 147.969 78.22 147.849 79.3C147.729 80.38 147.549 81.4 147.429 82.3C147.309 82.9 147.129 83.32 146.829 83.56C146.469 83.92 146.049 84.1 145.629 84.16C145.029 84.4 144.369 84.64 143.649 85C142.869 85.36 142.329 85.66 142.089 85.9C141.129 86.68 140.349 87.34 139.689 87.82C138.969 88.42 138.249 89.08 137.589 89.8C137.349 90.1 137.229 90.34 137.169 90.52C137.049 90.76 137.289 90.88 137.889 90.88L140.289 90.64C140.769 90.64 141.609 90.52 142.869 90.4C144.069 90.28 145.389 90.16 146.769 89.98C148.089 89.86 149.289 89.74 150.369 89.62C151.449 89.56 152.049 89.5 152.289 89.5C152.469 89.5 152.709 89.38 152.949 89.14C153.189 88.9 153.429 88.66 153.789 88.42C154.029 88.24 154.389 88.06 154.749 87.94C155.049 87.88 155.409 87.94 155.889 88.18C156.249 88.42 156.669 88.72 157.149 89.08C157.569 89.44 157.989 89.8 158.469 90.1C158.829 90.46 159.249 90.76 159.609 91C159.909 91.3 160.149 91.48 160.389 91.6C160.569 91.72 160.689 91.96 160.809 92.2C160.869 92.5 160.869 92.8 160.869 93.04C160.749 93.34 160.629 93.58 160.509 93.76C160.269 94 160.029 94.06 159.789 94C159.309 94 158.709 93.94 157.989 93.94C157.209 94 156.429 94.06 155.589 94.18C154.689 94.3 153.849 94.48 153.009 94.66C152.169 94.9 151.449 95.14 150.849 95.5C149.949 95.98 149.289 96.1 148.869 95.92C148.389 95.8 148.569 95.5 149.289 94.9C149.589 94.66 149.949 94.36 150.369 93.94C150.729 93.58 151.089 93.22 151.389 92.86C151.629 92.5 151.749 92.2 151.869 91.96C151.869 91.72 151.749 91.6 151.389 91.6C151.029 91.6 150.309 91.66 149.349 91.72C148.329 91.84 147.249 91.9 146.109 92.02C144.909 92.14 143.709 92.26 142.629 92.38C141.489 92.56 140.589 92.68 139.989 92.8C139.509 92.92 138.789 93.1 137.769 93.28C136.689 93.52 135.489 93.7 134.169 93.94C132.729 94.24 131.289 94.54 129.849 94.78C128.289 95.14 126.909 95.38 125.589 95.62C124.209 95.92 123.069 96.16 122.109 96.28C121.089 96.52 120.429 96.64 120.189 96.7C119.709 96.82 119.169 96.88 118.629 96.88C118.029 97 117.489 97 116.949 97C116.349 97 115.749 96.94 115.269 96.82C114.729 96.76 114.249 96.64 113.889 96.4C113.049 95.98 112.449 95.56 111.969 95.2C111.489 94.9 111.009 94.6 110.589 94.3C110.349 94.18 110.169 94 110.109 93.76C109.989 93.58 109.929 93.4 110.049 93.16C110.049 93.04 110.229 92.86 110.469 92.74C110.709 92.62 111.009 92.62 111.489 92.74C112.209 92.98 113.049 93.04 114.009 92.98C114.849 92.98 115.809 92.92 116.889 92.8C117.189 92.8 117.729 92.8 118.569 92.68C119.289 92.62 120.249 92.56 121.389 92.44C122.469 92.38 123.669 92.26 124.989 92.08C126.249 91.96 127.569 91.84 128.889 91.72ZM131.169 100C131.469 100 131.769 100.18 132.009 100.42C132.189 100.72 132.129 101.08 131.889 101.5C131.769 101.74 131.589 102.04 131.409 102.4C131.169 102.82 130.989 103.24 130.809 103.6C130.569 104.08 130.329 104.44 130.209 104.8C129.969 105.22 129.849 105.52 129.789 105.7C129.729 105.94 129.669 106.3 129.609 106.78C129.489 107.26 129.369 107.74 129.369 108.34C129.309 108.82 129.309 109.36 129.369 109.9C129.369 110.38 129.549 110.8 129.789 111.1C130.269 111.64 130.869 112 131.589 112.18C132.189 112.3 132.789 112.42 133.389 112.48C134.049 112.48 134.949 112.42 136.089 112.42C137.169 112.3 138.369 112.24 139.569 112.12C140.709 111.94 141.789 111.76 142.869 111.64C143.829 111.46 144.609 111.28 145.089 111.1C145.869 110.8 146.529 110.68 147.129 110.74C147.669 110.74 148.209 110.92 148.689 111.4C148.929 111.64 149.169 111.82 149.469 112C149.709 112.12 149.949 112.3 150.189 112.48C150.309 112.6 150.429 112.72 150.489 112.84C150.489 112.96 150.429 113.08 150.189 113.2C149.649 113.44 149.169 113.74 148.749 113.98C148.269 114.16 147.669 114.34 146.889 114.58C146.529 114.7 146.229 114.82 146.109 115C145.869 115.12 145.749 115.24 145.629 115.42C145.449 115.54 145.269 115.72 145.089 115.9C144.849 116.02 144.549 116.08 144.129 116.2C143.649 116.26 142.809 116.32 141.609 116.38C140.409 116.38 139.089 116.38 137.769 116.38C136.329 116.32 135.009 116.26 133.809 116.2C132.489 116.08 131.589 116.02 130.989 115.9C129.549 115.6 128.289 114.94 127.329 113.98C126.249 112.9 125.769 111.46 125.889 109.6C125.949 108.4 126.009 107.44 126.129 106.6C126.129 105.76 126.189 105.1 126.189 104.5C126.189 104.14 126.009 103.84 125.769 103.54C125.469 103.3 125.229 103.06 124.989 102.7C124.749 102.46 124.509 102.1 124.269 101.68C123.909 101.32 123.909 100.9 124.269 100.3C124.569 99.7 124.809 99.34 125.049 99.22C125.229 99.16 125.469 99.22 125.769 99.4C125.889 99.52 125.949 99.64 126.009 99.76C126.009 99.88 126.009 100 126.009 100.06C126.009 100.18 126.009 100.3 126.069 100.36C126.069 100.48 126.189 100.48 126.429 100.48C126.789 100.6 127.149 100.54 127.509 100.36C127.809 100.24 128.229 100.12 128.709 100.06C129.129 100.06 129.549 100 130.029 99.94C130.449 99.94 130.809 100 131.169 100ZM123.789 68.2C124.149 68.38 124.629 68.68 125.349 69.04C125.949 69.46 126.609 69.94 127.329 70.54C127.929 71.2 128.529 71.92 129.129 72.76C129.609 73.66 129.969 74.62 130.089 75.7C130.149 76.42 130.149 77.14 130.089 77.86C129.969 78.64 129.789 79.36 129.669 80.08C129.429 80.8 129.249 81.46 129.009 82.06C128.769 82.72 128.529 83.2 128.289 83.5C128.109 83.74 127.869 83.92 127.629 84.04C127.329 84.22 127.029 84.28 126.789 84.28C126.489 84.28 126.249 84.22 126.009 83.98C125.769 83.8 125.589 83.44 125.589 82.9C125.469 82.06 125.409 81.04 125.289 79.84C125.109 78.64 124.929 77.44 124.689 76.12C124.449 74.92 124.149 73.66 123.849 72.46C123.489 71.26 123.069 70.24 122.589 69.4C122.289 68.92 122.169 68.56 122.229 68.32C122.229 68.14 122.289 68.02 122.529 67.96C122.649 67.96 122.889 67.96 123.189 67.96C123.429 68.08 123.609 68.14 123.789 68.2ZM137.289 76.6C136.689 77.02 136.389 77.38 136.389 77.74C136.269 78.16 136.569 78.64 137.289 79.12C137.409 79.24 137.709 79.36 138.189 79.48C138.549 79.66 139.029 79.78 139.629 79.9C140.109 80.08 140.709 80.2 141.309 80.26C141.849 80.38 142.389 80.5 142.929 80.5C142.989 79.66 143.109 78.82 143.229 77.86C143.289 76.96 143.349 76.12 143.409 75.28C143.409 74.92 143.409 74.5 143.469 74.14C143.469 73.84 143.469 73.54 143.469 73.18C143.049 73.42 142.569 73.72 141.969 74.02C141.309 74.38 140.649 74.74 140.049 75.04C139.389 75.4 138.789 75.76 138.309 76C137.769 76.3 137.409 76.48 137.289 76.6Z" fill="white"/>
<rect x="180.5" y="30.5" width="90" height="120" fill="#F6C500"/>
<rect x="180.5" y="30.5" width="90" height="120" stroke="black"/>
<path d="M214.391 81.7L215.651 81.88C216.431 80.92 217.211 79.9 217.991 78.82C218.711 77.8 219.491 76.72 220.271 75.52C220.451 75.22 220.511 74.98 220.451 74.8C220.331 74.68 220.091 74.62 219.791 74.68C219.431 74.92 219.131 75.1 218.891 75.22C218.531 75.4 218.231 75.52 217.871 75.64C217.631 75.76 217.271 75.88 216.851 76C216.371 76.24 216.071 76.54 215.891 76.9C215.771 77.14 215.531 77.32 215.231 77.5C214.871 77.74 214.511 77.98 214.151 78.16C213.671 78.4 213.251 78.52 212.771 78.58C212.291 78.7 211.811 78.7 211.391 78.58C210.911 78.46 210.491 78.28 210.071 77.92C209.591 77.62 209.111 77.26 208.691 76.9C208.211 76.54 207.851 76.18 207.491 75.82C207.131 75.52 206.831 75.28 206.591 75.1C206.111 74.8 205.991 74.56 206.111 74.32C206.231 74.14 206.471 74.08 206.891 74.14C207.071 74.14 207.431 74.2 207.971 74.2C208.451 74.26 208.931 74.26 209.531 74.26C210.071 74.32 210.611 74.32 211.211 74.26C211.751 74.26 212.231 74.26 212.591 74.14C213.011 74.02 213.491 73.96 214.091 74.08C214.631 74.2 214.991 74.26 215.171 74.26C215.351 74.26 215.711 74.14 216.191 73.78C216.611 73.48 217.151 73.18 217.871 72.94L220.991 71.8C221.471 71.68 221.831 71.5 222.071 71.14C222.071 71.08 222.131 70.96 222.191 70.78C222.191 70.66 222.311 70.54 222.431 70.42C222.551 70.3 222.731 70.24 222.971 70.18C223.151 70.18 223.511 70.18 223.991 70.3C224.951 70.54 225.731 70.84 226.391 71.08C226.991 71.38 227.531 71.62 227.891 71.8C228.011 71.92 228.131 72.04 228.251 72.28C228.251 72.52 228.251 72.76 228.251 73C228.191 73.3 228.071 73.6 227.951 73.84C227.771 74.14 227.531 74.38 227.291 74.5C226.751 74.8 226.331 75.16 225.971 75.58C225.551 76.06 225.191 76.48 224.891 76.9C224.171 77.8 223.391 78.7 222.551 79.66C221.651 80.68 220.691 81.7 219.671 82.72L221.291 83.2C222.671 83.68 223.991 84.1 225.191 84.58C226.331 85.12 227.531 85.96 228.791 87.1C229.151 87.46 229.511 87.82 229.871 88.06C230.171 88.42 230.471 88.72 230.711 89.08C230.951 89.44 231.131 89.86 231.251 90.28C231.311 90.76 231.311 91.3 231.191 91.9C231.071 92.5 230.891 92.92 230.711 93.16C230.471 93.46 230.291 93.64 230.051 93.76C229.811 93.88 229.571 94 229.391 94C229.151 94.06 228.911 94.18 228.791 94.3C228.611 94.48 228.371 94.54 228.131 94.54C227.831 94.6 227.591 94.6 227.351 94.48C227.051 94.42 226.811 94.3 226.631 94.06C226.391 93.94 226.331 93.7 226.391 93.34C226.391 93.1 226.391 92.86 226.391 92.62C226.331 92.5 226.271 92.32 226.271 92.2C226.151 92.08 226.091 91.96 226.091 91.78C226.031 91.66 226.031 91.54 226.091 91.3C226.151 90.88 226.211 90.52 226.271 90.28C226.271 90.1 226.091 89.86 225.791 89.5C224.771 88.42 223.751 87.58 222.671 86.98C221.531 86.38 220.391 85.84 219.191 85.3C218.651 85.18 218.111 85.06 217.511 84.94C215.951 86.5 214.391 87.94 212.951 89.38C211.391 90.82 210.071 92.08 208.991 93.1C208.331 93.7 207.611 94.06 206.831 94.24C205.991 94.48 205.271 94.54 204.791 94.3C203.651 93.82 202.931 93.4 202.691 93.04C202.511 92.92 202.511 92.68 202.631 92.44C202.751 92.2 202.931 92.14 203.291 92.2C203.591 92.32 204.071 92.38 204.671 92.38C205.271 92.44 205.871 92.2 206.591 91.6C207.731 90.4 208.871 89.2 210.071 88C211.151 86.86 212.291 85.66 213.431 84.4C213.071 84.4 212.711 84.28 212.411 84.04C212.291 83.98 212.231 83.92 212.231 83.86C212.231 83.86 212.111 83.86 211.871 83.92C211.631 83.98 211.391 84.04 211.151 84.04C210.851 84.1 210.611 84.1 210.431 83.98C210.191 83.86 210.131 83.74 210.131 83.62C210.131 83.56 209.951 83.5 209.711 83.44C209.411 83.44 209.171 83.44 208.991 83.44C208.751 83.5 208.451 83.5 208.091 83.38C207.671 83.32 207.431 83.2 207.431 83.02C207.311 82.9 207.551 82.78 208.091 82.6C208.451 82.48 208.991 82.3 209.591 82.12C210.131 82 210.731 81.94 211.331 81.82C211.871 81.76 212.411 81.7 213.011 81.64C213.551 81.64 214.031 81.7 214.391 81.7ZM227.891 81.28C226.931 81.16 226.451 80.92 226.331 80.56C226.211 80.2 226.391 80.02 226.991 79.9C227.231 79.9 227.471 79.84 227.711 79.84C227.831 79.84 228.071 79.84 228.311 79.78C228.551 79.78 228.851 79.78 229.211 79.72C229.511 79.72 229.991 79.72 230.591 79.6C230.831 79.6 231.191 79.6 231.791 79.54C232.331 79.54 232.991 79.48 233.711 79.36C234.371 79.36 235.091 79.24 235.931 79.12C236.711 79.06 237.491 78.94 238.271 78.76C238.271 78.58 238.271 78.4 238.271 78.22C238.271 78.1 238.271 77.98 238.331 77.92C238.451 77.8 238.631 77.68 238.811 77.68C238.931 77.68 238.991 77.56 239.111 77.26C239.111 77.14 239.111 76.96 239.051 76.84C238.931 76.72 238.871 76.6 238.811 76.42C238.691 76.3 238.571 76.12 238.511 75.88C238.391 75.7 238.391 75.46 238.451 75.1C238.511 74.68 238.571 74.2 238.571 73.6C238.571 73.12 238.571 72.58 238.571 71.98C238.451 70.84 238.451 69.94 238.571 69.22C238.571 68.62 238.571 68.02 238.571 67.42C238.451 67 238.451 66.52 238.451 65.98C238.391 65.5 238.151 65.08 237.671 64.66C237.191 64.3 236.771 64.06 236.411 63.88C235.931 63.76 235.511 63.58 235.151 63.34C234.911 63.22 234.791 63.1 234.791 62.86C234.731 62.68 234.791 62.5 234.911 62.26C234.971 62.14 235.151 61.96 235.391 61.84C235.631 61.78 235.931 61.78 236.351 61.9C236.591 62.02 236.951 62.14 237.551 62.26C238.031 62.44 238.631 62.62 239.291 62.74C239.891 62.98 240.551 63.16 241.211 63.28C241.811 63.52 242.351 63.64 242.711 63.7C243.251 63.82 243.671 64 244.031 64.12C244.331 64.36 244.391 64.72 244.211 65.32C243.971 65.98 243.791 66.64 243.611 67.36C243.371 68.08 243.251 68.86 243.251 69.7C243.251 70.3 243.251 71.02 243.251 71.98C243.191 72.94 243.191 73.78 243.191 74.5C243.131 74.86 243.071 75.28 243.071 75.82C243.011 76.42 243.011 77.02 243.011 77.62C242.951 78.28 242.951 78.88 242.951 79.42C242.891 80.02 242.891 80.5 242.891 80.8L242.951 84.22H242.891C242.891 84.94 242.891 85.66 242.891 86.32C242.831 87.04 242.771 87.58 242.711 88C242.651 88.48 242.531 88.96 242.411 89.5C242.171 90.1 241.991 90.7 241.751 91.18C241.451 91.78 241.211 92.26 240.971 92.68C240.671 93.16 240.431 93.52 240.191 93.7C239.951 93.94 239.651 94.12 239.411 94.24C239.051 94.48 238.811 94.6 238.571 94.6C238.271 94.72 238.091 94.66 237.971 94.54C237.851 94.42 237.851 94.18 238.031 93.7C238.151 93.34 238.211 92.8 238.331 92.08C238.331 91.36 238.391 90.58 238.391 89.62C238.391 88.78 238.391 87.82 238.391 86.86C238.331 85.96 238.331 85.06 238.331 84.22C238.271 83.74 238.271 83.2 238.271 82.72C238.271 82.3 238.271 81.88 238.271 81.4C237.791 81.64 237.371 81.82 236.951 81.94C236.471 82.12 236.051 82.24 235.691 82.3C235.331 82.42 234.971 82.48 234.491 82.6C233.951 82.72 233.471 82.84 232.991 82.9C232.451 83.02 231.971 83.02 231.551 83.02C231.071 83.08 230.771 83.02 230.591 82.9C230.351 82.78 230.171 82.66 230.051 82.48C229.871 82.36 229.691 82.18 229.571 82C229.391 81.88 229.211 81.7 228.971 81.52C228.671 81.4 228.311 81.34 227.891 81.28ZM242.231 99.22C242.471 99.58 242.591 99.94 242.591 100.24C242.531 100.6 242.471 101.02 242.411 101.44C242.291 101.86 242.171 102.16 242.051 102.34C241.811 102.58 241.631 102.88 241.511 103.18C241.391 103.36 241.331 103.72 241.331 104.2C241.211 104.8 241.151 105.4 241.091 106.12C240.971 106.9 240.911 107.68 240.911 108.52C240.791 109.36 240.791 110.14 240.791 110.92C240.791 111.52 240.851 112.12 240.851 112.72C240.851 113.26 240.851 113.74 240.851 114.1C240.851 114.58 240.851 115 240.911 115.42C240.911 115.78 240.611 116.14 240.131 116.5C239.951 116.62 239.891 116.68 239.891 116.74C239.831 116.74 239.831 116.8 239.831 116.86C239.831 116.86 239.831 116.92 239.831 117.04C239.831 117.04 239.771 117.16 239.771 117.28C239.651 117.52 239.531 117.7 239.351 117.7C239.111 117.7 238.871 117.76 238.751 118C238.631 118.06 238.511 118.18 238.391 118.3C238.211 118.42 238.031 118.48 237.851 118.6C237.671 118.66 237.491 118.72 237.371 118.78C237.131 118.78 237.011 118.66 236.951 118.42C236.831 118.24 236.771 118.06 236.771 117.88C236.651 117.64 236.651 117.34 236.711 116.98C236.711 116.2 236.711 115.54 236.771 114.94C236.771 114.28 236.831 113.68 236.831 113.14C236.831 112.78 236.831 112.24 236.891 111.58C236.891 110.86 236.891 110.14 236.951 109.42C236.951 108.64 236.951 107.92 237.011 107.32C237.011 106.72 237.011 106.24 237.011 106C237.011 105.52 237.011 104.98 237.071 104.5C237.071 104.08 237.071 103.6 237.131 103.12C237.131 102.64 237.131 102.22 237.131 101.86C237.131 101.56 237.011 101.32 236.831 101.2C236.591 101.08 236.351 101.02 236.111 101.02C235.811 101.08 235.511 101.14 235.271 101.14C234.911 101.26 234.671 101.32 234.551 101.32C233.591 101.62 232.811 101.86 232.091 101.98C231.371 102.22 230.651 102.46 229.931 102.76C229.151 103.12 228.311 103.48 227.411 103.96C226.451 104.44 225.491 104.74 224.591 104.8C224.111 104.86 223.631 104.8 223.091 104.62C222.491 104.5 221.951 104.26 221.471 104.02C220.931 103.78 220.451 103.54 220.091 103.24C219.611 103 219.311 102.82 219.131 102.7C218.651 102.4 218.411 102.22 218.291 102.1C218.171 102.04 217.931 101.86 217.631 101.5C217.271 101.2 217.211 100.96 217.451 100.78C217.571 100.66 217.751 100.6 217.991 100.6C218.291 100.6 218.771 100.72 219.431 100.96C220.031 101.26 220.811 101.32 221.831 101.2C222.311 101.2 223.031 101.08 223.991 100.84C224.891 100.72 225.851 100.48 226.871 100.24C227.831 100.06 228.791 99.88 229.691 99.64C230.531 99.46 231.071 99.34 231.431 99.22C232.031 99.1 232.751 98.92 233.531 98.74C234.251 98.62 235.151 98.44 236.111 98.2L236.231 98.08L236.351 97.96C236.531 97.84 236.711 97.72 236.831 97.54C236.891 97.42 237.011 97.36 237.131 97.24C237.191 97.18 237.311 97.12 237.491 97.12C237.611 97.12 237.911 97.18 238.271 97.3C238.631 97.42 238.991 97.54 239.411 97.66C239.771 97.84 240.191 98.02 240.611 98.14C240.971 98.32 241.271 98.5 241.631 98.62C241.871 98.8 242.111 98.98 242.231 99.22Z" fill="white"/>
<rect x="270.5" y="0.5" width="90" height="120" fill="#F6C500"/>
<rect x="270.5" y="0.5" width="90" height="120" stroke="black"/>
<path d="M309.011 49C309.791 49.12 310.631 49.24 311.531 49.48C312.371 49.78 313.151 50.2 313.931 50.74C314.651 51.34 315.311 52 315.851 52.84C316.331 53.74 316.571 54.82 316.691 56.02C316.691 56.62 316.691 56.98 316.691 57.22C316.631 57.46 316.571 57.64 316.571 57.76C316.451 57.88 316.391 58 316.331 58C316.211 58.06 316.091 58.12 316.091 58.24C316.031 58.36 316.031 58.48 316.091 58.48C316.091 58.6 316.151 58.66 316.271 58.78C316.271 58.9 316.331 59.08 316.391 59.26C316.391 59.5 316.391 59.86 316.271 60.22C315.911 61.36 315.491 62.56 314.951 63.76C314.351 65.08 313.451 66.1 312.311 66.88C311.711 67.36 310.991 67.72 310.271 67.9C309.491 68.14 308.771 68.32 308.051 68.38C307.271 68.5 306.611 68.5 306.011 68.5C305.351 68.5 304.871 68.5 304.511 68.5C303.551 68.38 302.651 68.14 301.811 67.78C300.851 67.48 300.071 67.18 299.411 66.82C298.211 66.22 297.371 65.38 296.771 64.3C296.171 63.28 295.751 62.2 295.571 61.06C295.331 59.98 295.331 58.84 295.451 57.76C295.571 56.74 295.751 55.9 296.111 55.18C296.411 54.4 296.891 53.56 297.611 52.66C298.211 51.82 299.111 51.1 300.191 50.38C299.951 49.78 299.771 49.12 299.531 48.52C299.291 47.98 299.051 47.56 298.811 47.26C298.571 47.02 298.391 46.78 298.391 46.54C298.331 46.3 298.391 46.12 298.511 45.94C298.631 45.82 298.811 45.7 299.051 45.64C299.231 45.64 299.471 45.76 299.771 45.94C300.011 46.12 300.251 46.24 300.491 46.36C300.671 46.54 300.911 46.66 301.151 46.78C301.391 46.9 301.631 47.02 301.991 47.14C302.231 47.32 302.591 47.5 303.071 47.68C303.431 47.92 303.731 48.22 304.031 48.58C304.271 49 304.511 49.42 304.691 49.9C305.171 49.72 305.771 49.48 306.551 49.24C307.271 49.06 308.051 49 309.011 49ZM332.831 44.44C332.831 44.8 332.771 45.22 332.771 45.76C332.711 46.36 332.711 47.02 332.711 47.62C332.651 48.28 332.651 48.88 332.651 49.42C332.591 50.02 332.591 50.5 332.591 50.8C332.591 51.46 332.591 52 332.651 52.48C332.651 53.02 332.651 53.5 332.651 53.98C332.651 54.52 332.651 55.06 332.711 55.6C332.711 56.2 332.711 56.92 332.711 57.7C332.711 58.3 332.711 58.96 332.771 59.68C332.771 60.46 332.771 61.18 332.771 61.9C332.771 62.68 332.771 63.4 332.771 64.06C332.711 64.78 332.711 65.44 332.711 65.92C332.591 68.08 332.591 69.82 332.591 71.26C332.531 72.76 332.531 73.78 332.531 74.32C332.531 75.28 332.411 76.3 332.291 77.44C332.051 78.58 331.871 79.72 331.631 80.8C331.331 81.88 331.031 82.84 330.791 83.74C330.431 84.58 330.191 85.24 329.951 85.6C329.711 85.96 329.411 86.38 329.171 86.8C328.811 87.16 328.571 87.4 328.331 87.58C328.031 87.7 327.851 87.64 327.731 87.4C327.611 87.1 327.611 86.5 327.791 85.6C327.911 84.7 328.031 83.32 328.151 81.46C328.151 79.54 328.211 77.5 328.271 75.28C328.271 73.12 328.271 70.96 328.271 68.8C328.211 66.7 328.211 64.96 328.211 63.64C328.271 62.62 328.271 61.54 328.211 60.46C328.091 59.38 328.091 58.12 328.091 56.56C328.031 55.6 328.031 54.58 328.031 53.5C327.971 52.48 327.971 51.52 327.971 50.68C327.971 49.9 327.971 49.24 327.971 48.7C327.971 48.22 327.971 47.92 328.031 47.86C328.151 47.74 328.331 47.62 328.511 47.62C328.631 47.62 328.691 47.5 328.811 47.2C328.811 47.08 328.811 46.9 328.751 46.78C328.631 46.66 328.571 46.54 328.511 46.36C328.391 46.24 328.271 46.06 328.211 45.82C328.091 45.64 328.091 45.4 328.151 45.04C328.211 44.62 328.271 44.14 328.271 43.54C328.211 43.06 328.211 42.52 328.211 41.92C328.151 40.72 328.151 39.82 328.271 39.16C328.271 38.56 328.271 38.02 328.211 37.42C328.151 37 328.151 36.52 328.151 35.98C328.091 35.5 327.851 35.08 327.371 34.66C326.891 34.3 326.471 34.06 326.051 33.88C325.571 33.76 325.211 33.58 324.851 33.34C324.611 33.22 324.491 33.1 324.491 32.86C324.431 32.68 324.491 32.5 324.611 32.26C324.671 32.14 324.851 31.96 325.091 31.84C325.331 31.78 325.631 31.78 326.051 31.9C326.231 32.02 326.591 32.08 327.191 32.2C327.671 32.38 328.271 32.56 328.991 32.68C329.591 32.92 330.251 33.1 330.911 33.22C331.511 33.4 331.991 33.52 332.411 33.58C332.951 33.76 333.371 33.94 333.731 34.06C334.031 34.3 334.091 34.66 333.911 35.26C333.671 35.92 333.491 36.58 333.311 37.3C333.071 38.08 332.951 38.86 332.951 39.7C332.951 40.24 332.891 40.96 332.891 41.92C332.831 42.88 332.831 43.72 332.831 44.44ZM303.851 53.56C303.311 54.04 302.891 54.28 302.531 54.34C302.111 54.46 301.751 54.46 301.511 54.34C300.911 54.4 300.431 54.76 300.131 55.42C299.771 56.14 299.531 56.74 299.471 57.34C299.351 58.06 299.351 58.72 299.411 59.38C299.411 60.1 299.591 60.7 299.891 61.3C300.131 61.9 300.491 62.44 301.091 62.92C301.631 63.4 302.411 63.76 303.371 64C304.571 64.36 305.651 64.42 306.731 64.3C307.691 64.18 308.651 63.94 309.551 63.58C310.691 62.68 311.411 61.66 311.771 60.46C312.071 59.38 312.251 58.12 312.371 56.8C312.431 55.42 312.071 54.22 311.351 53.14C310.571 52.12 309.551 51.46 308.231 51.22C307.751 51.16 307.211 51.16 306.611 51.16C305.951 51.22 305.411 51.22 304.931 51.22C304.931 52.18 304.571 52.96 303.851 53.56Z" fill="white"/>
</svg>
