<svg width="181" height="121" viewBox="0 0 181 121" fill="none" xmlns="http://www.w3.org/2000/svg">
<rect x="90.5" y="0.5" width="90" height="120" fill="#F6C500"/>
<rect x="90.5" y="0.5" width="90" height="120" stroke="black"/>
<path d="M114.978 55.12C115.458 55.36 116.058 55.6 116.838 55.96C117.558 56.32 118.278 56.74 119.118 57.16C119.118 57.16 119.118 57.1 119.178 57.04C119.958 55.24 120.498 53.74 120.858 52.6C121.098 51.52 121.338 50.62 121.578 49.78C121.818 48.88 121.998 47.92 122.118 46.96C122.238 46 122.298 45.34 122.418 44.98C122.478 44.74 122.658 44.56 122.898 44.44C123.138 44.38 123.438 44.56 123.858 44.92C124.398 45.4 124.938 45.82 125.478 46.18C125.958 46.6 126.258 47.14 126.378 47.74C126.438 48.4 126.438 49.12 126.318 49.96C126.198 50.86 125.778 52 125.118 53.32C124.638 54.16 124.218 55 123.738 55.9C123.198 56.86 122.658 57.82 122.118 58.78C122.478 58.96 122.898 59.14 123.378 59.38C123.798 59.62 124.278 59.86 124.758 60.1C125.178 60.4 125.598 60.7 125.958 61C126.318 61.36 126.558 61.66 126.678 61.96C126.738 62.26 126.798 62.5 126.858 62.68C126.858 62.92 126.918 63.16 127.038 63.34C127.518 62.38 127.998 61.42 128.478 60.34C128.958 59.32 129.378 58.3 129.858 57.22C129.378 56.92 129.018 56.62 128.658 56.38C128.238 56.14 127.938 55.96 127.758 55.84C127.098 55.48 126.798 55.24 126.918 55C126.918 54.82 127.338 54.82 128.058 55C128.778 55.24 129.558 55.48 130.398 55.84L131.298 53.56C131.418 53.32 131.538 52.9 131.718 52.42C131.838 52 132.018 51.52 132.258 51.04C132.378 50.56 132.558 50.14 132.738 49.66C132.858 49.24 132.978 48.94 133.038 48.7C133.158 48.04 133.098 47.38 132.858 46.78C132.498 46.18 132.198 45.64 131.898 45.16C131.778 44.98 131.718 44.74 131.598 44.5C131.418 44.26 131.298 44.02 131.238 43.78C130.998 43.42 131.118 43.12 131.478 42.82C131.778 42.58 132.138 42.7 132.498 43.12C132.678 43.42 132.978 43.72 133.398 44.08C133.758 44.44 134.178 44.8 134.658 45.1C135.078 45.4 135.618 45.7 136.278 46C136.878 46.36 137.418 46.66 137.838 46.9C138.198 47.14 138.438 47.44 138.678 47.74C138.858 48.1 138.678 48.76 138.078 49.6C137.718 50.02 137.418 50.5 137.058 51.1C136.698 51.76 136.338 52.36 136.098 52.96C135.738 53.56 135.498 54.1 135.318 54.52C135.078 55 134.958 55.3 134.958 55.36L133.938 57.82C134.478 58.24 135.078 58.66 135.798 59.14C136.458 59.62 137.118 60.1 137.838 60.58C138.498 61.06 139.158 61.54 139.758 61.96C140.298 62.44 140.778 62.86 141.198 63.16C141.858 63.88 142.458 64.54 142.998 65.14C143.478 65.8 143.778 66.22 144.018 66.34C144.138 66.58 144.318 66.88 144.438 67.24C144.558 67.66 144.558 68.2 144.498 68.92C144.378 69.28 144.318 69.58 144.318 69.7C144.258 69.94 144.258 70.06 144.258 70.18C144.258 70.36 144.258 70.48 144.258 70.6C144.258 70.78 144.258 70.96 144.258 71.2C144.258 71.5 144.198 71.74 144.078 71.92C143.958 72.16 143.778 72.34 143.658 72.4C143.478 72.52 143.298 72.52 143.118 72.46C142.878 72.46 142.698 72.28 142.578 71.98C142.098 71.26 141.498 70.36 140.778 69.22C139.938 68.14 139.098 66.94 138.258 65.74C137.298 64.6 136.398 63.46 135.558 62.38C134.598 61.3 133.818 60.46 133.158 59.86L132.978 59.74C132.138 61.42 131.238 63.04 130.278 64.6C129.258 66.16 128.298 67.42 127.398 68.26C126.078 69.58 124.638 70.36 123.138 70.72C121.578 71.14 120.198 71.26 119.118 71.02C118.218 70.9 117.798 70.72 117.798 70.48C117.798 70.3 117.978 70.18 118.458 70.06C118.998 70 119.538 69.94 120.078 69.82C120.558 69.76 121.038 69.64 121.578 69.4C122.058 69.22 122.598 68.92 123.138 68.56C123.618 68.2 124.158 67.72 124.758 67L125.118 66.58C124.578 65.68 123.918 64.72 123.138 63.64C122.298 62.68 121.518 61.78 120.678 60.94L119.778 62.14C118.698 63.46 117.558 64.48 116.418 65.2C115.218 65.92 114.198 66.4 113.358 66.58C112.278 66.94 111.438 66.88 110.718 66.52C110.178 66.22 109.998 65.98 110.178 65.8C110.418 65.68 110.718 65.62 111.318 65.62C111.678 65.62 112.038 65.56 112.518 65.32C112.878 65.2 113.358 64.96 113.958 64.6C114.858 64.12 115.698 63.28 116.418 62.14C117.138 61.06 117.738 59.98 118.338 58.9C117.498 58.3 116.718 57.7 115.998 57.1C115.158 56.56 114.678 56.2 114.498 56.02C114.138 55.84 114.018 55.6 114.078 55.24C114.078 54.94 114.378 54.88 114.978 55.12ZM139.638 56.68C138.798 56.56 138.378 56.26 138.378 55.9C138.318 55.6 138.558 55.42 139.098 55.3C139.338 55.3 139.518 55.24 139.698 55.18C139.818 55.18 140.058 55.18 140.298 55.12C140.478 55.12 140.718 55.06 141.078 55C141.318 55 141.738 55 142.338 55C142.938 55 143.898 54.88 145.158 54.64C146.358 54.4 147.558 54.16 148.758 53.8C148.698 52.24 148.698 50.92 148.698 49.72C148.698 48.58 148.698 47.98 148.818 47.86C148.938 47.74 149.058 47.62 149.238 47.62C149.358 47.62 149.418 47.5 149.538 47.2C149.538 47.08 149.538 46.9 149.478 46.78C149.358 46.66 149.298 46.54 149.238 46.36C149.118 46.24 149.058 46.06 148.998 45.82C148.878 45.64 148.878 45.4 148.938 45.04C148.998 44.62 149.058 44.14 149.058 43.54C148.998 43.06 148.998 42.52 148.998 41.92C148.938 40.72 148.938 39.82 148.998 39.16C148.998 38.56 148.998 38.02 148.998 37.42C148.938 37 148.878 36.52 148.878 35.98C148.818 35.5 148.578 35.08 148.158 34.66C147.678 34.3 147.258 34.06 146.898 33.88C146.418 33.76 146.058 33.58 145.698 33.34C145.518 33.22 145.398 33.1 145.398 32.86C145.278 32.68 145.338 32.5 145.458 32.26C145.518 32.14 145.698 31.96 145.938 31.84C146.178 31.78 146.478 31.78 146.898 31.9C147.078 32.02 147.438 32.08 147.978 32.2C148.458 32.38 149.058 32.56 149.718 32.68C150.318 32.92 150.918 33.1 151.578 33.22C152.178 33.4 152.658 33.52 153.018 33.58C153.558 33.76 153.978 33.94 154.338 34.06C154.638 34.3 154.698 34.66 154.518 35.26C154.278 35.92 154.098 36.58 153.918 37.3C153.678 38.08 153.558 38.86 153.558 39.7C153.558 40.24 153.498 40.96 153.498 41.92C153.438 42.88 153.438 43.72 153.438 44.44C153.438 44.8 153.378 45.22 153.378 45.76C153.318 46.36 153.318 47.02 153.318 47.62C153.258 48.28 153.258 48.88 153.258 49.42C153.198 50.02 153.198 50.5 153.198 50.8C153.198 51.46 153.198 52 153.258 52.48C153.258 53.02 153.258 53.5 153.258 53.98C153.258 54.52 153.258 55.06 153.318 55.6C153.318 56.2 153.318 56.92 153.318 57.7C153.318 58.3 153.318 58.96 153.378 59.68C153.378 60.46 153.378 61.18 153.378 61.9C153.378 62.68 153.378 63.4 153.378 64.06C153.318 64.78 153.318 65.44 153.318 65.92C153.198 68.08 153.198 69.82 153.198 71.26C153.138 72.76 153.138 73.78 153.138 74.32C153.138 75.28 153.018 76.3 152.898 77.44C152.658 78.58 152.478 79.72 152.238 80.8C151.998 81.88 151.698 82.84 151.458 83.74C151.158 84.58 150.918 85.24 150.678 85.6C150.438 85.96 150.138 86.38 149.898 86.8C149.538 87.16 149.298 87.4 149.058 87.58C148.818 87.7 148.638 87.64 148.518 87.4C148.398 87.1 148.398 86.5 148.578 85.6C148.638 85 148.698 84.16 148.818 83.14C148.818 82.06 148.878 80.86 148.938 79.54C148.938 78.16 148.998 76.78 148.998 75.28C148.998 73.84 148.998 72.34 148.998 70.9C148.998 69.52 148.998 68.2 148.998 66.88C148.998 65.62 148.998 64.54 148.998 63.64C148.998 62.62 148.998 61.6 148.998 60.52C148.878 59.56 148.878 58.3 148.878 56.8C148.398 57.1 147.918 57.28 147.438 57.4C147.138 57.52 146.778 57.58 146.298 57.7C145.758 57.88 145.218 58 144.738 58.12C144.198 58.24 143.718 58.36 143.298 58.36C142.818 58.48 142.518 58.42 142.338 58.3C141.918 58.06 141.558 57.76 141.318 57.34C140.958 56.98 140.418 56.8 139.638 56.68Z" fill="white"/>
<rect x="0.5" y="0.5" width="90" height="120" fill="#F6C500"/>
<rect x="0.5" y="0.5" width="90" height="120" stroke="black"/>
<path d="M38.5906 43C39.3106 43.12 40.1506 43.3 40.9906 43.54C41.8306 43.9 42.6106 44.32 43.3306 44.86C44.0506 45.46 44.6506 46.24 45.1906 47.08C45.6706 47.98 45.9706 49 46.0906 50.2C46.0906 50.74 46.0906 51.1 46.0906 51.34C46.0306 51.64 45.9706 51.82 45.9106 51.88C45.7906 52 45.7306 52.12 45.6706 52.12C45.5506 52.18 45.4906 52.24 45.4906 52.36C45.4306 52.48 45.4306 52.6 45.5506 52.66C45.5506 52.78 45.6106 52.9 45.7306 53.02C45.7906 53.2 45.8506 53.38 45.9106 53.62C45.9106 53.92 45.9106 54.28 45.7906 54.7C45.4306 55.96 44.9506 57.04 44.2906 58C43.5706 58.96 42.6706 59.86 41.6506 60.7C41.0506 61.18 40.3906 61.48 39.7306 61.66C39.0106 61.9 38.2906 62.08 37.6906 62.14C36.9706 62.26 36.3706 62.26 35.8306 62.2C35.2306 62.2 34.7506 62.2 34.3906 62.2C33.5506 62.14 32.7106 61.96 31.8706 61.6C30.9706 61.3 30.1906 60.94 29.5906 60.58C28.6306 59.98 27.8506 59.2 27.2506 58.24C26.6506 57.34 26.2306 56.32 25.9906 55.24C25.7506 54.22 25.6306 53.14 25.7506 52.06C25.7506 51.04 25.9306 50.14 26.2906 49.3C26.5906 48.52 27.0706 47.68 27.7306 46.78C28.3306 45.94 29.1706 45.22 30.2506 44.5C30.0706 43.9 29.8906 43.24 29.6506 42.64C29.4106 42.1 29.1706 41.68 28.9306 41.38C28.4506 40.9 28.3306 40.42 28.6906 40.06C28.9306 39.76 29.3506 39.76 29.8306 40.06C30.3106 40.42 30.7906 40.66 31.1506 40.84C31.5106 41.08 32.1106 41.44 32.9506 41.8C33.6706 42.22 34.2106 42.94 34.5706 43.96C34.9906 43.72 35.5906 43.48 36.3106 43.24C36.9706 43.06 37.7506 43 38.5906 43ZM48.1906 51.28C47.2306 51.16 46.7506 50.92 46.6306 50.56C46.5106 50.2 46.6906 50.02 47.2906 49.9C47.5306 49.9 47.7706 49.84 48.0106 49.84C48.1306 49.84 48.3706 49.84 48.6106 49.78C48.8506 49.78 49.1506 49.78 49.5106 49.72C49.8106 49.72 50.2906 49.72 50.8906 49.6C51.3706 49.6 52.2706 49.48 53.7106 49.36C55.0906 49.3 56.5306 49.12 57.9706 48.82C57.9706 48.64 57.9706 48.46 57.9706 48.22C57.9706 48.1 57.9706 47.98 58.0306 47.92C58.1506 47.8 58.3306 47.68 58.5106 47.68C58.6306 47.68 58.6906 47.56 58.8106 47.26C58.8106 47.14 58.8106 46.96 58.7506 46.84C58.6306 46.72 58.5706 46.6 58.5106 46.42C58.3906 46.3 58.2706 46.12 58.2106 45.88C58.0906 45.7 58.0906 45.46 58.1506 45.1C58.2106 44.68 58.2706 44.2 58.2706 43.6C58.2706 43.12 58.2706 42.58 58.2706 41.98C58.1506 40.84 58.1506 39.94 58.2706 39.22C58.2706 38.62 58.2706 38.02 58.2706 37.42C58.1506 37 58.1506 36.52 58.1506 35.98C58.0906 35.5 57.8506 35.08 57.3706 34.66C56.8906 34.3 56.4706 34.06 56.1106 33.88C55.6306 33.76 55.2106 33.58 54.8506 33.34C54.6106 33.22 54.4906 33.1 54.4906 32.86C54.4306 32.68 54.4906 32.5 54.6106 32.26C54.6706 32.14 54.8506 31.96 55.0906 31.84C55.3306 31.78 55.6306 31.78 56.0506 31.9C56.2906 32.02 56.6506 32.14 57.2506 32.26C57.7306 32.44 58.3306 32.62 58.9906 32.74C59.5906 32.98 60.2506 33.16 60.9106 33.28C61.5106 33.52 62.0506 33.64 62.4106 33.7C62.9506 33.82 63.3706 34 63.7306 34.12C64.0306 34.36 64.0906 34.72 63.9106 35.32C63.6706 35.98 63.4906 36.64 63.3106 37.36C63.0706 38.08 62.9506 38.86 62.9506 39.7C62.9506 40.3 62.9506 41.02 62.9506 41.98C62.8906 42.94 62.8906 43.78 62.8906 44.5C62.8306 44.86 62.7706 45.28 62.7706 45.82C62.7106 46.42 62.7106 47.02 62.7106 47.62C62.6506 48.28 62.6506 48.88 62.6506 49.42C62.5906 50.02 62.5906 50.5 62.5906 50.8L62.6506 54.22H62.5906C62.5906 54.94 62.5906 55.66 62.5906 56.32C62.5306 57.04 62.4706 57.58 62.4106 58C62.3506 58.48 62.2306 58.96 62.1106 59.5C61.8706 60.1 61.6906 60.7 61.4506 61.18C61.1506 61.78 60.9106 62.26 60.6706 62.68C60.3706 63.16 60.1306 63.52 59.8906 63.7C59.6506 63.94 59.3506 64.12 59.1106 64.24C58.7506 64.48 58.5106 64.6 58.2706 64.6C57.9706 64.72 57.7906 64.66 57.6706 64.54C57.5506 64.42 57.5506 64.18 57.7306 63.7C57.8506 63.34 57.9106 62.8 58.0306 62.08C58.0306 61.36 58.0906 60.58 58.0906 59.62C58.0906 58.78 58.0906 57.82 58.0906 56.86C58.0306 55.96 58.0306 55.06 58.0306 54.22C57.9706 53.8 57.9706 53.38 57.9706 52.9C57.9706 52.54 57.9706 52.12 57.9706 51.7C57.6106 51.82 57.2506 51.94 56.9506 52C56.5906 52.12 56.2906 52.24 55.9906 52.3C55.6306 52.42 55.2706 52.48 54.7906 52.6C54.2506 52.72 53.7706 52.84 53.2906 52.9C52.7506 53.02 52.2706 53.02 51.8506 53.02C51.3706 53.08 51.0706 53.02 50.8906 52.9C50.6506 52.78 50.4706 52.66 50.3506 52.48C50.1706 52.36 49.9906 52.18 49.8706 52C49.6906 51.88 49.5106 51.7 49.2706 51.52C48.9706 51.4 48.6106 51.34 48.1906 51.28ZM46.3906 83.74C46.7506 83.62 47.2906 83.5 47.9506 83.32C48.5506 83.08 49.2706 82.9 49.9906 82.78C50.7106 82.54 51.4306 82.36 52.1506 82.24C52.8106 82.06 53.4106 81.94 54.0106 81.94C54.1906 81.88 54.4906 81.88 54.8506 81.88C55.2106 81.88 55.5706 81.88 56.0506 81.88C56.0506 81.4 56.0506 80.74 56.1706 80.02C56.1706 79.24 56.2306 78.46 56.2906 77.74C56.2906 77.02 56.3506 76.3 56.4106 75.64C56.4106 75.04 56.3506 74.56 56.3506 74.2C56.2306 73.6 56.1706 73.18 56.0506 73C55.9306 72.88 55.6306 72.7 55.1506 72.4C54.9106 72.28 54.6706 72.28 54.4306 72.28C54.1306 72.34 53.8306 72.4 53.5906 72.52C53.2306 72.64 52.9306 72.82 52.6906 72.94C52.3906 73.12 52.1506 73.24 51.9106 73.36C51.6706 73.48 51.3706 73.66 51.0106 73.78C50.5906 73.96 50.1706 74.08 49.7506 74.14C49.2706 74.26 48.8506 74.32 48.4306 74.26C47.9506 74.26 47.5906 74.14 47.2306 73.84C46.8706 73.6 46.4506 73.3 46.0306 72.94C45.5506 72.7 45.1306 72.4 44.7706 72.1C44.2906 71.86 43.9306 71.62 43.6306 71.38C43.2706 71.14 42.9706 70.96 42.8506 70.84C42.4906 70.54 42.3706 70.3 42.4906 70.06C42.5506 69.88 42.7906 69.82 43.2106 69.82C43.5706 69.88 43.9906 69.88 44.5306 69.82C45.0106 69.82 45.7906 69.82 46.8706 69.7C47.4706 69.7 48.1306 69.58 48.8506 69.46C49.5706 69.4 50.2906 69.28 51.0106 69.16C51.7306 69.04 52.3906 68.92 53.0506 68.74C53.6506 68.62 54.1306 68.44 54.4906 68.32C54.6706 68.26 54.9106 68.14 55.1506 67.96C55.3306 67.84 55.5706 67.66 55.8106 67.54C56.0506 67.42 56.2906 67.36 56.6506 67.24C56.8906 67.24 57.2506 67.24 57.6706 67.3C58.3906 67.54 59.2306 67.9 60.1306 68.32C60.9706 68.8 61.6306 69.16 62.2306 69.46C62.7706 69.82 63.0706 70.18 63.0706 70.54C63.0706 71.02 62.8906 71.44 62.5906 71.8C62.2306 72.28 62.0506 72.58 61.9306 72.82C61.7506 73.12 61.4506 73.3 61.0906 73.36C60.6706 73.48 60.3706 73.72 60.1906 74.14C59.9506 74.62 59.8306 75.04 59.7706 75.34C59.6506 75.58 59.5306 76 59.4106 76.48C59.2906 77.08 59.1106 77.62 58.9906 78.28C58.8106 78.88 58.6906 79.54 58.5706 80.2C58.4506 80.8 58.3306 81.4 58.2106 81.88C58.5706 81.88 58.9306 81.94 59.2906 82C59.5906 82 59.8306 82 60.0706 82.12C60.6106 82.18 60.9106 82.42 61.0306 82.78C61.0306 83.08 61.0306 83.44 60.9706 83.86C60.8506 84.4 60.6706 84.88 60.4906 85.36C60.2506 85.78 59.6506 85.96 58.6906 85.9C58.1506 85.84 57.2506 85.78 55.9906 85.72C54.6706 85.6 53.3506 85.48 52.0306 85.42C50.6506 85.3 49.4506 85.24 48.3706 85.18C47.2306 85.06 46.5706 85.06 46.4506 85.06C46.2706 85.06 46.0906 85 45.8506 84.94C45.6106 84.82 45.4306 84.76 45.3706 84.64C45.2506 84.46 45.2506 84.28 45.3706 84.16C45.4906 83.98 45.7906 83.86 46.3906 83.74ZM33.7306 47.62C32.8906 48.46 32.1706 48.7 31.5706 48.4C31.2106 48.4 30.9706 48.52 30.7906 48.64C30.5506 48.88 30.3106 49.12 30.1906 49.36C30.0106 49.72 29.8906 50.02 29.8306 50.32C29.7106 50.68 29.5906 51.04 29.5906 51.34C29.4706 52.06 29.4706 52.72 29.5906 53.38C29.5906 54.1 29.7706 54.7 30.0706 55.3C30.3106 55.9 30.6706 56.44 31.2706 56.92C31.8106 57.4 32.5306 57.76 33.4906 58C34.6306 58.36 35.6506 58.42 36.4906 58.18C37.2706 58.06 38.0506 57.76 38.8906 57.4C39.9706 56.5 40.6906 55.48 41.0506 54.4C41.4106 53.38 41.5906 52.24 41.7106 50.92C41.7706 49.6 41.4706 48.4 40.7506 47.32C40.0306 46.36 39.0106 45.7 37.7506 45.4C37.2706 45.34 36.7906 45.28 36.2506 45.28C35.6506 45.34 35.1706 45.34 34.7506 45.34C34.7506 45.82 34.6306 46.18 34.5106 46.54C34.3306 46.96 34.0906 47.32 33.7306 47.62ZM44.2906 78.88C44.4106 79.48 44.4106 80.14 44.4106 80.98C44.3506 81.7 44.2906 82.48 44.1706 83.26C44.0506 83.98 43.8706 84.64 43.7506 85.3C43.5706 85.9 43.3906 86.38 43.2706 86.74C43.1506 86.92 42.9706 87.1 42.7906 87.34C42.5506 87.46 42.3106 87.58 42.0706 87.64C41.8306 87.64 41.5906 87.52 41.4106 87.34C41.1706 87.1 41.0506 86.8 40.9906 86.32C40.8706 85.9 40.8106 85.42 40.6906 84.88C40.5706 84.28 40.4506 83.68 40.3306 83.08C40.2106 82.42 40.0906 81.82 40.0306 81.22C39.9106 80.62 39.7906 80.08 39.7906 79.66C39.6106 78.7 39.4906 77.8 39.3706 76.96C39.2506 76.12 39.1906 75.16 39.1906 74.2C39.1306 73 39.2506 71.86 39.5506 70.78C39.7906 69.76 40.5106 68.8 41.7106 67.84C42.3706 67.36 42.9106 67 43.3306 66.76C43.6906 66.58 43.9906 66.52 44.2306 66.52C44.3506 66.58 44.4106 66.7 44.4106 66.88C44.2906 67.12 44.1106 67.36 43.8706 67.6C43.3906 68.08 43.0306 68.44 42.7906 68.74C42.4306 69.1 42.1906 69.52 42.0706 70.06C41.9506 70.66 42.0106 71.2 42.2506 71.8C42.4306 72.46 42.6106 73 42.7906 73.48C42.9106 73.72 43.0306 74.08 43.2106 74.56C43.3306 75.1 43.4506 75.64 43.6306 76.18C43.7506 76.78 43.9306 77.38 44.0506 77.86C44.1706 78.34 44.2306 78.64 44.2906 78.88Z" fill="white"/>
</svg>
