<svg width="181" height="151" viewBox="0 0 181 151" fill="none" xmlns="http://www.w3.org/2000/svg">
<rect x="0.5" y="0.5" width="90" height="120" fill="#F6C500"/>
<rect x="0.5" y="0.5" width="90" height="120" stroke="black"/>
<path d="M47.2906 56.98C46.3306 56.86 45.9106 56.56 45.9106 56.2C45.8506 55.9 46.0906 55.72 46.6906 55.6C46.9306 55.6 47.1706 55.54 47.4106 55.48C47.5306 55.48 47.7706 55.48 48.0106 55.42C48.2506 55.42 48.5506 55.36 48.9106 55.3C49.2106 55.3 49.6906 55.3 50.2906 55.3C50.6506 55.3 51.1906 55.3 51.7906 55.18C52.3906 55.12 53.0506 55 53.7706 54.88C54.4906 54.76 55.2106 54.64 56.0506 54.4C56.7706 54.28 57.5506 54.1 58.2706 53.86C58.2106 52.3 58.2106 50.92 58.2106 49.72C58.2106 48.58 58.2106 47.98 58.3306 47.86C58.4506 47.74 58.6306 47.62 58.8106 47.62C58.9306 47.62 58.9906 47.5 59.1106 47.2C59.1106 47.08 59.1106 46.9 59.0506 46.78C58.9306 46.66 58.8706 46.54 58.8106 46.36C58.6906 46.24 58.5706 46.06 58.5106 45.82C58.3906 45.64 58.3906 45.4 58.4506 45.04C58.5106 44.62 58.5706 44.14 58.5706 43.54C58.5106 43.06 58.5106 42.52 58.5106 41.92C58.4506 40.72 58.4506 39.82 58.5706 39.16C58.5706 38.56 58.5706 38.02 58.5106 37.42C58.4506 37 58.4506 36.52 58.4506 35.98C58.3906 35.5 58.1506 35.08 57.6706 34.66C57.1906 34.3 56.7706 34.06 56.3506 33.88C55.8706 33.76 55.5106 33.58 55.1506 33.34C54.9106 33.22 54.7906 33.1 54.7906 32.86C54.7306 32.68 54.7906 32.5 54.9106 32.26C54.9706 32.14 55.1506 31.96 55.3906 31.84C55.6306 31.78 55.9306 31.78 56.3506 31.9C56.5306 32.02 56.8906 32.08 57.4906 32.2C57.9706 32.38 58.5706 32.56 59.2906 32.68C59.8906 32.92 60.5506 33.1 61.2106 33.22C61.8106 33.4 62.2906 33.52 62.7106 33.58C63.2506 33.76 63.6706 33.94 64.0306 34.06C64.3306 34.3 64.3906 34.66 64.2106 35.26C63.9706 35.92 63.7906 36.58 63.6106 37.3C63.3706 38.08 63.2506 38.86 63.2506 39.7C63.2506 40.24 63.1906 40.96 63.1906 41.92C63.1306 42.88 63.1306 43.72 63.1306 44.44C63.1306 44.8 63.0706 45.22 63.0706 45.76C63.0106 46.36 63.0106 47.02 63.0106 47.62C62.9506 48.28 62.9506 48.88 62.9506 49.42C62.8906 50.02 62.8906 50.5 62.8906 50.8C62.8906 51.46 62.8906 52 62.9506 52.48C62.9506 53.02 62.9506 53.5 62.9506 53.98C62.9506 54.52 62.9506 55.06 63.0106 55.6C63.0106 56.2 63.0106 56.92 63.0106 57.7C63.0106 58.3 63.0106 58.96 63.0706 59.68C63.0706 60.46 63.0706 61.18 63.0706 61.9C63.0706 62.68 63.0706 63.4 63.0706 64.06C63.0106 64.78 63.0106 65.44 63.0106 65.92C62.8906 68.08 62.8906 69.82 62.8906 71.26C62.8306 72.76 62.8306 73.78 62.8306 74.32C62.8306 75.28 62.7106 76.3 62.5906 77.44C62.3506 78.58 62.1706 79.72 61.9306 80.8C61.6306 81.88 61.3306 82.84 61.0906 83.74C60.7306 84.58 60.4906 85.24 60.2506 85.6C60.0106 85.96 59.7106 86.38 59.4706 86.8C59.1106 87.16 58.8706 87.4 58.6306 87.58C58.3306 87.7 58.1506 87.64 58.0306 87.4C57.9106 87.1 57.9106 86.5 58.0906 85.6C58.2106 84.7 58.3306 83.32 58.4506 81.46C58.4506 79.54 58.5106 77.5 58.5706 75.28C58.5706 73.12 58.5706 70.96 58.5706 68.8C58.5106 66.7 58.5106 64.96 58.5106 63.64C58.5706 62.62 58.5706 61.54 58.5106 60.46C58.3906 59.44 58.3906 58.18 58.3906 56.62C57.9106 56.86 57.5506 57.1 57.1906 57.28C56.7706 57.52 56.3506 57.64 55.9906 57.7C55.6306 57.82 55.2106 57.88 54.6706 58C54.0706 58.18 53.5306 58.3 52.9906 58.42C52.3906 58.54 51.9106 58.66 51.4306 58.66C50.8906 58.78 50.5306 58.72 50.2906 58.6C50.0506 58.48 49.8706 58.36 49.7506 58.18C49.5106 58.06 49.3306 57.88 49.1506 57.7C48.9106 57.58 48.6706 57.4 48.4306 57.22C48.0706 57.1 47.7106 57.04 47.2906 56.98ZM32.5906 48.7C32.8906 48.58 33.6106 48.4 34.6906 48.1C35.7706 47.86 36.9106 47.62 38.1706 47.32C39.3706 47.08 40.4506 46.78 41.5306 46.54C42.4906 46.3 43.1506 46.12 43.3906 46C43.8706 45.76 44.3506 45.52 44.8306 45.16C45.3106 44.86 45.7906 44.86 46.3906 45.1C46.8706 45.4 47.3506 45.76 47.7706 46.12C48.1306 46.54 48.4906 46.78 48.7906 46.9C48.9106 47.02 49.0306 47.14 49.1506 47.38C49.1506 47.68 49.2106 47.98 49.2106 48.22C49.1506 48.52 49.0906 48.76 48.9706 48.94C48.8506 49.18 48.6706 49.3 48.4906 49.3C48.0106 49.3 47.5306 49.42 47.0506 49.6C46.4506 49.84 45.7306 50.38 44.8906 51.1C44.5906 51.34 44.1106 51.82 43.4506 52.42C42.7306 53.14 41.9506 53.86 41.1106 54.7C40.2106 55.6 39.3106 56.5 38.3506 57.4C37.3306 58.36 36.4306 59.26 35.6506 60.04C34.8106 60.88 34.0906 61.54 33.5506 62.08C32.9506 62.68 32.6506 62.98 32.5906 63.1C32.3506 63.46 32.2906 63.82 32.4106 64.18C32.4706 64.6 32.4106 64.84 32.2906 64.9C32.1706 64.9 31.9906 65.08 31.6306 65.44C31.2106 65.86 30.7906 66.28 30.3106 66.76C29.8306 67.24 29.3506 67.72 28.9306 68.14C28.4506 68.62 28.2106 68.98 28.0906 69.1C27.7306 69.46 27.4306 69.7 27.0706 69.88C26.6506 70.12 26.4106 69.94 26.2906 69.4C26.1106 68.8 26.2306 68.08 26.6506 67.12C27.0106 66.22 27.4906 65.5 28.0906 64.9C28.2106 64.78 28.5706 64.36 29.1106 63.64C29.5906 63.04 30.1906 62.26 30.9106 61.36C31.5706 60.52 32.2906 59.56 33.0706 58.54C33.7906 57.58 34.5106 56.68 35.2306 55.78C35.8306 54.94 36.4306 54.16 36.9706 53.5C37.4506 52.9 37.8106 52.48 37.9906 52.3C38.4106 51.82 38.6506 51.34 38.7106 50.98C38.7106 50.68 38.3506 50.62 37.6906 50.8C37.3306 50.92 36.9706 51.1 36.6106 51.22C36.1306 51.4 35.7106 51.58 35.3506 51.7C34.9306 51.88 34.5706 52.06 34.2706 52.18C33.9106 52.36 33.6106 52.48 33.4906 52.6C33.2506 52.72 33.1306 52.9 33.0106 53.02C32.8906 53.26 32.7706 53.44 32.6506 53.56C32.5306 53.74 32.4106 53.86 32.2906 53.98C32.1106 54.1 31.9306 54.16 31.6906 54.1C31.4506 54.1 31.0906 54.04 30.7306 53.8C30.2506 53.68 29.8306 53.44 29.3506 53.14C28.8706 52.9 28.3906 52.66 27.9706 52.3C27.4906 52 27.1306 51.7 26.8906 51.4C26.4106 50.8 26.2306 50.32 26.2306 49.96C26.2306 49.66 26.5306 49.66 27.1906 49.9C27.7906 50.14 28.3906 50.44 28.9906 50.68C29.5306 51.04 29.9506 51.16 30.1906 51.04C30.4306 50.92 30.7306 50.56 31.1506 49.96C31.5106 49.36 31.9906 48.94 32.5906 48.7ZM40.3906 57.7C40.6306 57.7 41.0506 57.7 41.6506 57.7C42.1906 57.7 42.7906 57.76 43.4506 57.76C44.0506 57.82 44.6506 57.88 45.1906 57.94C45.6706 58.06 45.9706 58.18 46.0906 58.3C46.2706 58.6 46.4506 59.32 46.6306 60.52C46.7506 61.78 46.5706 63.34 46.0906 65.2C45.8506 66.16 45.4906 67.24 45.0706 68.32C44.5906 69.52 44.1706 70.6 43.7506 71.62C43.2706 72.7 42.8506 73.66 42.4906 74.5C42.1306 75.34 41.8906 75.94 41.8906 76.3C41.7706 76.66 41.7706 76.9 41.8306 77.08C41.8306 77.32 41.8306 77.5 41.9506 77.74C41.9506 77.92 42.0106 78.1 42.1306 78.34C42.1306 78.46 42.1906 78.7 42.1906 79C42.1906 80.08 41.8906 80.74 41.2906 81.1C40.8706 81.28 40.6306 81.52 40.6306 81.82C40.5106 82.06 40.4506 82.42 40.4506 82.9C40.3306 83.32 40.0906 83.56 39.7306 83.68C39.2506 83.74 39.0106 83.5 38.8906 82.9C38.8306 82.6 38.7706 82.24 38.7706 81.82C38.7106 81.34 38.7106 80.92 38.7106 80.44C38.7106 79.9 38.7106 79.42 38.7706 78.94C38.7706 78.4 38.7706 77.92 38.8906 77.5C38.9506 77.08 39.0706 76.72 39.1906 76.48C39.2506 76.24 39.3706 76.06 39.4906 75.82C39.5506 75.7 39.6706 75.52 39.7906 75.34C39.8506 75.22 39.9706 75.04 40.0906 74.8C40.2106 74.56 40.3306 73.96 40.5706 73C40.6906 72.1 40.8706 71.08 41.1106 70C41.2306 68.98 41.4106 67.96 41.5906 67C41.7106 66.1 41.7706 65.5 41.8906 65.2C42.0706 64.36 42.1906 63.52 42.2506 62.8C42.2506 62.08 42.1906 61.42 42.1906 60.7C42.0706 60.28 41.7706 59.86 41.2906 59.44C40.7506 59.08 40.3306 58.9 40.0906 58.9C39.7306 58.9 39.5506 58.72 39.5506 58.36C39.4906 58 39.7906 57.82 40.3906 57.7ZM34.3906 38.2C34.8706 38.14 35.5306 38.14 36.4306 38.2C37.2706 38.32 38.2306 38.44 39.1906 38.5C40.1506 38.62 40.9906 38.86 41.7106 39.28C42.3706 39.76 42.6106 40.48 42.4906 41.5C42.3106 42.58 42.0106 43.24 41.6506 43.54C41.2306 43.9 40.6906 44.02 40.0906 43.9C39.7306 43.9 39.4306 43.84 39.0706 43.78C38.7106 43.78 38.3506 43.78 38.0506 43.66C37.6906 43.6 37.3906 43.48 37.2106 43.24C36.9706 43.12 36.7906 42.82 36.7906 42.4C36.7306 41.62 36.4306 40.96 35.8306 40.42C35.2306 39.94 34.6306 39.7 34.0906 39.7C33.8506 39.7 33.6106 39.64 33.3706 39.46C33.1306 39.34 32.9506 39.22 32.8906 39.04C32.7706 38.92 32.8306 38.74 33.0706 38.56C33.2506 38.44 33.6706 38.32 34.3906 38.2Z" fill="white"/>
<rect x="90.5" y="30.5" width="90" height="120" fill="#F6C500"/>
<rect x="90.5" y="30.5" width="90" height="120" stroke="black"/>
<path d="M138.069 63.1C138.789 63.22 139.629 63.4 140.469 63.64C141.309 64 142.089 64.42 142.809 64.96C143.469 65.56 144.069 66.28 144.549 67.12C145.029 68.02 145.269 69.04 145.389 70.24C145.389 70.78 145.449 71.14 145.449 71.38C145.389 71.68 145.329 71.86 145.329 71.92C145.209 72.04 145.149 72.16 145.089 72.16C144.969 72.22 144.909 72.28 144.909 72.4C144.789 72.52 144.789 72.64 144.909 72.64C144.909 72.76 144.969 72.82 145.089 72.94C145.149 73.12 145.209 73.3 145.269 73.54C145.269 73.78 145.209 74.14 145.089 74.56C144.489 76.96 143.169 79 141.129 80.62C140.529 81.1 139.869 81.4 139.209 81.64C138.489 81.88 137.769 82.06 137.169 82.12C136.449 82.24 135.849 82.24 135.309 82.24C134.709 82.24 134.289 82.24 133.929 82.24C133.089 82.18 132.189 82 131.289 81.64C130.329 81.34 129.549 80.98 128.949 80.62C127.989 80.02 127.209 79.24 126.669 78.28C126.069 77.38 125.709 76.36 125.529 75.28C125.289 74.26 125.169 73.24 125.289 72.16C125.349 71.14 125.529 70.24 125.889 69.4C126.189 68.62 126.669 67.78 127.269 66.88C127.869 66.04 128.649 65.26 129.729 64.54C129.549 63.94 129.369 63.28 129.129 62.68C128.889 62.14 128.649 61.72 128.409 61.42C127.929 60.94 127.809 60.46 128.109 60.1C128.349 59.8 128.769 59.8 129.309 60.1C129.789 60.46 130.209 60.7 130.629 60.88C130.989 61.12 131.589 61.48 132.429 61.84C133.149 62.2 133.689 62.98 134.049 64.06C134.469 63.82 135.069 63.58 135.789 63.34C136.509 63.16 137.229 63.1 138.069 63.1ZM111.489 90.04C112.209 90.28 113.049 90.34 114.009 90.28C114.849 90.28 115.809 90.22 116.889 90.1C117.249 90.1 118.089 90.04 119.409 89.92C120.609 89.8 122.049 89.68 123.729 89.5C125.349 89.38 127.089 89.2 128.949 89.02C130.749 88.9 132.489 88.72 134.109 88.54C135.669 88.42 137.049 88.24 138.189 88.12C139.269 88.06 139.989 88 140.289 87.94C140.769 87.94 141.609 87.82 142.869 87.7C144.069 87.58 145.389 87.46 146.769 87.28C148.089 87.16 149.289 87.04 150.369 86.92C151.449 86.86 152.049 86.8 152.289 86.8C152.469 86.8 152.709 86.68 152.949 86.44C153.189 86.2 153.429 85.96 153.789 85.72C154.029 85.54 154.389 85.36 154.749 85.24C155.049 85.18 155.409 85.24 155.889 85.48C156.249 85.72 156.669 86.02 157.149 86.38C157.569 86.74 157.989 87.1 158.469 87.4C158.829 87.76 159.249 88.06 159.609 88.3C159.909 88.6 160.149 88.78 160.389 88.9C160.569 89.02 160.689 89.26 160.809 89.5C160.869 89.8 160.869 90.1 160.869 90.34C160.749 90.64 160.629 90.88 160.509 91.06C160.269 91.3 160.029 91.36 159.789 91.3C159.309 91.3 158.709 91.24 157.989 91.24C157.209 91.3 156.429 91.36 155.589 91.48C154.689 91.6 153.849 91.78 153.009 91.96C152.169 92.2 151.449 92.44 150.849 92.8C149.949 93.28 149.289 93.4 148.869 93.22C148.389 93.1 148.569 92.8 149.289 92.2C149.589 91.96 149.949 91.66 150.369 91.24C150.729 90.88 151.089 90.52 151.389 90.16C151.629 89.8 151.749 89.5 151.869 89.26C151.869 89.02 151.749 88.9 151.389 88.9C151.029 88.9 150.309 88.96 149.349 89.02C148.329 89.14 147.249 89.2 146.109 89.32C144.909 89.44 143.709 89.56 142.629 89.68C141.489 89.86 140.589 89.98 139.989 90.1C139.509 90.22 138.789 90.4 137.769 90.58C136.689 90.82 135.489 91 134.169 91.24C132.729 91.54 131.289 91.84 129.849 92.08C128.289 92.44 126.909 92.68 125.589 92.92C124.209 93.22 123.069 93.46 122.109 93.58C121.089 93.82 120.429 93.94 120.189 94C119.709 94.12 119.169 94.18 118.629 94.18C118.029 94.3 117.489 94.3 116.949 94.3C116.349 94.3 115.749 94.24 115.269 94.12C114.729 94.06 114.249 93.94 113.889 93.7C113.049 93.28 112.449 92.86 111.969 92.5C111.489 92.2 111.009 91.9 110.589 91.6C110.349 91.48 110.169 91.3 110.109 91.06C109.989 90.88 109.929 90.7 110.049 90.46C110.049 90.34 110.229 90.16 110.469 90.04C110.709 89.92 111.009 89.92 111.489 90.04ZM132.609 114.1C132.969 113.98 133.509 113.8 134.169 113.62C134.769 113.38 135.489 113.14 136.209 112.96C136.929 112.72 137.649 112.48 138.369 112.36C139.089 112.12 139.689 112 140.289 112C140.469 111.94 140.769 111.94 141.189 111.94C141.549 111.94 141.909 111.88 142.389 111.88C142.389 111.28 142.389 110.56 142.449 109.78C142.449 108.94 142.509 108.16 142.569 107.38C142.569 106.66 142.629 105.94 142.689 105.28C142.689 104.68 142.689 104.2 142.689 103.9C142.569 103.24 142.389 102.82 142.029 102.64C141.669 102.52 141.249 102.34 140.889 102.1C140.649 101.98 140.349 101.98 140.049 101.98C139.689 102.04 139.389 102.16 139.089 102.28C138.729 102.46 138.429 102.64 138.129 102.76C137.769 103 137.529 103.18 137.289 103.3C137.049 103.42 136.689 103.6 136.269 103.78C135.789 104.02 135.309 104.14 134.829 104.2C134.229 104.32 133.689 104.38 133.209 104.32C132.669 104.32 132.249 104.2 131.889 103.9L128.289 100.9C127.929 100.6 127.869 100.3 128.169 100.06C128.409 99.88 128.769 99.82 129.189 99.82C129.489 99.88 129.969 99.88 130.629 99.82C131.229 99.82 132.009 99.82 133.089 99.7C133.569 99.64 134.229 99.52 134.949 99.34C135.669 99.22 136.389 99.1 137.109 98.92C137.829 98.8 138.489 98.68 139.149 98.5C139.749 98.38 140.289 98.2 140.649 98.02C141.069 97.9 141.489 97.6 141.969 97.24C142.329 96.88 142.929 96.82 143.769 97C144.489 97.24 145.329 97.54 146.229 97.96C147.069 98.44 147.789 98.8 148.389 99.1C148.929 99.46 149.229 99.88 149.349 100.24C149.349 100.66 149.229 101.08 148.989 101.5C148.629 101.98 148.389 102.34 148.209 102.58C147.969 102.88 147.609 103.06 147.189 103.12C146.709 103.24 146.469 103.48 146.349 103.9C146.229 104.38 146.109 104.8 145.989 105.1C145.869 105.34 145.809 105.76 145.689 106.24C145.569 106.84 145.449 107.44 145.329 108.04C145.209 108.64 145.089 109.3 144.969 110.02C144.849 110.68 144.729 111.28 144.669 111.88C144.969 111.88 145.269 111.88 145.569 111.94C145.809 111.94 146.049 111.94 146.289 112C146.829 112.12 147.129 112.36 147.249 112.72C147.249 112.96 147.249 113.32 147.189 113.8C147.069 114.28 146.949 114.82 146.769 115.36C146.529 115.84 145.929 116.02 144.969 115.9C144.429 115.84 143.529 115.78 142.269 115.78C140.949 115.66 139.689 115.6 138.369 115.6C136.989 115.48 135.789 115.42 134.709 115.42C133.569 115.3 132.909 115.3 132.789 115.3C132.549 115.3 132.369 115.24 132.129 115.18C131.889 115.06 131.709 115 131.649 114.88C131.529 114.76 131.529 114.64 131.649 114.52C131.769 114.34 132.069 114.22 132.609 114.1ZM133.209 67.66C132.489 68.32 131.889 68.62 131.409 68.5V68.56C131.049 68.44 130.689 68.44 130.449 68.56C130.149 68.74 129.909 68.98 129.729 69.22C129.489 69.58 129.369 69.88 129.309 70.24C129.189 70.66 129.069 71.02 129.069 71.38C128.949 72.1 128.949 72.76 129.009 73.42C129.009 74.14 129.189 74.74 129.489 75.34C129.729 75.94 130.089 76.48 130.689 76.9C131.169 77.38 131.889 77.74 132.849 77.98C133.989 78.34 135.009 78.4 135.909 78.22C136.749 78.1 137.649 77.8 138.489 77.44C139.569 76.54 140.229 75.52 140.589 74.44C140.889 73.42 141.069 72.28 141.189 70.96C141.249 69.64 140.949 68.44 140.229 67.36C139.509 66.4 138.489 65.74 137.229 65.44C136.749 65.38 136.269 65.32 135.729 65.32C135.129 65.38 134.649 65.38 134.229 65.38C134.229 65.86 134.109 66.22 133.989 66.58C133.809 67 133.569 67.36 133.209 67.66ZM124.089 101.2C124.389 101.32 124.869 101.62 125.589 102.04C126.189 102.52 126.909 103.06 127.629 103.72C128.289 104.44 128.949 105.28 129.549 106.12C130.089 107.02 130.449 107.92 130.689 109C130.809 109.6 130.869 110.32 130.869 111.16C130.809 111.94 130.749 112.72 130.689 113.56C130.569 114.28 130.389 115 130.269 115.66C130.089 116.26 129.909 116.74 129.789 117.1C129.669 117.34 129.489 117.52 129.309 117.7C129.069 117.82 128.829 117.94 128.589 118C128.349 118 128.109 117.88 127.929 117.7C127.689 117.46 127.509 117.1 127.389 116.62C127.149 115.84 126.909 114.82 126.669 113.56C126.369 112.24 126.069 110.92 125.709 109.54C125.349 108.1 124.929 106.78 124.569 105.46C124.089 104.2 123.669 103.18 123.189 102.4C122.889 101.98 122.769 101.68 122.769 101.44C122.769 101.26 122.829 101.14 123.009 101.02C123.129 101.02 123.309 101.02 123.549 101.02C123.729 101.14 123.909 101.2 124.089 101.2Z" fill="white"/>
</svg>
