<svg width="361" height="211" viewBox="0 0 361 211" fill="none" xmlns="http://www.w3.org/2000/svg">
<rect x="0.5" y="0.5" width="90" height="120" fill="#F6C500"/>
<rect x="0.5" y="0.5" width="90" height="120" stroke="black"/>
<path d="M31.6895 61.72C33.1295 61.48 34.2095 61.12 34.9895 60.64C35.7095 60.28 36.4295 59.68 37.0895 58.9C37.4495 58.42 37.9295 57.88 38.5295 57.4C39.0095 56.92 39.3695 56.56 39.5495 56.2C39.6695 56.02 39.6695 55.78 39.6695 55.48C39.6095 55.24 39.1895 54.94 38.4095 54.64C37.5695 54.28 36.9095 53.86 36.4295 53.38C35.8895 52.9 35.4095 52.48 34.9895 52C34.6895 51.76 34.4495 51.4 34.2095 51.04C33.9095 50.74 33.7295 50.38 33.7295 49.9C33.6695 49.48 33.7895 49 34.1495 48.46C34.3895 47.98 34.9895 47.5 35.8895 46.9C36.7295 46.36 37.8695 45.82 39.3695 45.22C40.8095 44.74 42.2495 44.2 43.8095 43.72C43.8095 43.24 43.8095 42.82 43.8695 42.34C43.8695 41.92 43.8695 41.32 43.9895 40.6C43.9895 39.58 43.7495 38.86 43.2695 38.38C42.7295 38.02 42.1895 37.66 41.5895 37.3C41.3495 37.18 41.1695 37 41.1695 36.64C41.0495 36.34 41.4095 36.16 42.1895 36.1C42.5495 36.1 43.0895 36.1 43.6895 36.1C44.2295 36.22 44.7695 36.28 45.3695 36.34C45.9095 36.46 46.4495 36.58 46.9295 36.7C47.3495 36.82 47.6495 36.94 47.7695 37C48.0695 37.18 48.4295 37.48 48.7895 37.84C49.0895 38.26 49.1495 38.86 48.9695 39.7C48.8495 39.94 48.7895 40.12 48.7895 40.36C48.6695 40.6 48.6095 40.9 48.5495 41.2C48.4895 41.44 48.4895 41.62 48.4895 41.74C48.4895 41.98 48.4895 42.16 48.4895 42.28C48.9695 42.1 49.4495 41.92 49.8095 41.8C50.1695 41.68 50.4095 41.62 50.5895 41.5C51.1295 41.2 51.4895 41.14 51.7295 41.38C51.9095 41.62 51.7295 41.98 51.1895 42.4C50.8295 42.64 50.4095 42.88 49.9295 43.06C49.3895 43.3 48.8495 43.54 48.3095 43.72C48.1895 44.44 48.1295 45.04 48.1295 45.58C48.0695 46.18 48.0695 47.02 48.1895 48.1C48.1895 48.94 48.1895 49.84 48.0695 50.74C47.9495 51.7 47.7695 52.6 47.6495 53.5C47.5895 54.1 47.4095 54.46 47.1095 54.7C46.7495 55 46.3295 55.18 45.9095 55.24C45.3695 55.48 44.8895 55.66 44.4095 55.84C43.9295 56.08 43.5695 56.32 43.3895 56.5C42.7295 57.28 42.1895 57.82 41.8295 58.18C41.3495 58.54 40.9295 59.02 40.4495 59.5C40.2095 59.74 40.1495 59.92 40.2695 60.16C40.3295 60.46 40.6895 60.58 41.4095 60.58L47.8895 59.8C48.3695 59.8 48.9695 59.74 49.6895 59.56C50.3495 59.44 51.0695 59.2 51.8495 58.96C52.5695 58.78 53.3495 58.54 54.1295 58.24C54.8495 58 55.4495 57.76 55.9895 57.52C55.9895 56.98 55.9895 56.38 55.9895 55.78C55.9295 55.24 55.9295 54.7 55.9295 54.22C55.8695 52.6 55.8695 51.16 55.8695 49.9C55.8095 48.7 55.8095 48.1 55.9295 47.98C56.0495 47.8 56.2295 47.68 56.4095 47.68C56.5295 47.68 56.5895 47.56 56.7095 47.32C56.7095 47.2 56.7095 47.02 56.6495 46.9C56.5295 46.78 56.4695 46.66 56.4095 46.48C56.2895 46.36 56.1695 46.12 56.1095 45.88C55.9895 45.7 55.9895 45.46 56.0495 45.1C56.1095 44.68 56.1695 44.2 56.1695 43.6C56.1695 43.12 56.1695 42.58 56.1695 42.04C56.0495 40.84 56.0495 39.94 56.1695 39.22C56.1695 38.62 56.1695 38.02 56.1695 37.48C56.0495 37.06 56.0495 36.58 56.0495 36.04C55.9895 35.56 55.7495 35.14 55.2695 34.66C54.7895 34.3 54.3695 34.06 54.0095 33.88C53.5295 33.76 53.1095 33.58 52.7495 33.34C52.5095 33.22 52.3895 33.1 52.3895 32.86C52.3295 32.74 52.3895 32.56 52.5095 32.32C52.5695 32.2 52.7495 32.02 52.9895 31.9C53.2295 31.84 53.5295 31.84 53.9495 31.9C54.1895 32.02 54.5495 32.14 55.1495 32.26C55.6295 32.44 56.2295 32.62 56.8895 32.74C57.4895 32.98 58.1495 33.16 58.8095 33.28C59.4095 33.52 59.9495 33.64 60.3095 33.7C60.8495 33.82 61.2695 34 61.6295 34.18C61.9295 34.42 61.9895 34.78 61.8095 35.32C61.5695 35.98 61.3895 36.7 61.2095 37.42C60.9695 38.2 60.8495 38.98 60.8495 39.76C60.8495 40.36 60.8495 41.08 60.8495 41.98C60.7895 42.94 60.7895 43.78 60.7895 44.5C60.7295 44.86 60.6695 45.28 60.6695 45.82C60.6095 46.42 60.6095 47.08 60.6095 47.68C60.5495 48.4 60.5495 49 60.5495 49.54C60.4895 50.14 60.4895 50.62 60.4895 50.92V52.42H60.5495V52.48L61.2095 52.3C61.6895 52.18 62.0495 52.12 62.3495 52C62.5895 51.94 62.8295 51.88 63.0695 51.76C63.1895 51.76 63.3695 51.64 63.5495 51.52C63.6695 51.46 63.9095 51.34 64.1495 51.22C64.6295 50.98 65.0495 50.8 65.5295 50.62C65.8895 50.5 66.3095 50.44 66.7895 50.56C67.2695 50.68 67.8095 50.68 68.2895 50.56C68.7695 50.5 69.1295 50.44 69.4295 50.44C69.8495 50.44 70.2695 50.56 70.6895 50.8C71.0495 51.16 71.2895 51.52 71.4095 52C71.4095 52.18 71.4695 52.36 71.5295 52.54C71.5295 52.78 71.5895 53.02 71.5895 53.2C71.5895 53.44 71.5295 53.62 71.4095 53.74C71.2895 53.92 71.0495 54.04 70.7495 54.1C70.1495 54.34 69.3695 54.4 68.4095 54.4C67.4495 54.4 66.6095 54.4 65.9495 54.28C65.7095 54.28 65.3495 54.22 64.8695 54.22C64.3895 54.28 63.8495 54.34 63.3695 54.34C62.8295 54.46 62.2895 54.52 61.8095 54.52C61.2695 54.64 60.8495 54.7 60.5495 54.7C60.4895 55.54 60.4895 56.38 60.4895 57.22C60.4295 58.06 60.3695 58.72 60.3095 59.2C60.2495 59.68 60.1295 60.16 60.0095 60.7C59.7695 61.3 59.5895 61.9 59.3495 62.38C59.0495 62.98 58.8095 63.46 58.5695 63.88C58.2695 64.36 58.0295 64.72 57.7895 64.9C57.5495 65.14 57.2495 65.32 57.0095 65.5C56.6495 65.74 56.4095 65.86 56.1695 65.86C55.8695 65.98 55.6895 65.92 55.5695 65.74C55.4495 65.62 55.4495 65.38 55.6295 64.9C55.7495 64.48 55.8095 63.76 55.9295 62.74C55.9295 61.78 55.9895 60.76 55.9895 59.56C55.5095 59.86 54.9095 60.16 54.2495 60.4C53.5295 60.76 52.8095 61 52.1495 61.24C51.4295 61.54 50.8295 61.78 50.2895 61.9C49.6895 62.08 49.3295 62.2 49.0895 62.2C48.5495 62.32 47.7695 62.5 46.7495 62.68C45.6695 62.92 44.5295 63.16 43.2695 63.4C41.9495 63.7 40.5695 64 39.1895 64.24C37.7495 64.54 36.3695 64.78 35.1695 65.02C33.9095 65.32 32.8295 65.56 31.9895 65.68C31.0295 65.92 30.4295 66.04 30.1895 66.1C29.7095 66.22 29.1695 66.28 28.6295 66.28C28.0295 66.4 27.4895 66.4 26.9495 66.4C26.3495 66.4 25.7495 66.34 25.2695 66.22C24.7295 66.16 24.2495 66.04 23.8895 65.8C23.0495 65.38 22.4495 64.96 21.9695 64.6C21.4895 64.3 21.0095 64 20.5895 63.7C20.3495 63.58 20.1695 63.4 20.1095 63.16C19.9895 62.98 19.9295 62.8 20.0495 62.56C20.0495 62.44 20.2295 62.26 20.4695 62.14C20.7095 62.02 21.0095 62.02 21.4895 62.14C22.2095 62.38 23.0495 62.44 24.0095 62.38C24.8495 62.38 25.8095 62.32 26.8895 62.2C27.1895 62.2 27.7895 62.2 28.6895 62.08C29.5295 62.02 30.4895 61.9 31.6895 61.72ZM40.9895 67.42C41.0495 67.18 41.2295 67.06 41.5295 66.94C41.7695 66.88 42.1295 67 42.5495 67.3C43.0895 67.78 43.6295 68.14 44.1695 68.5C44.6495 68.86 44.9495 69.34 45.0695 69.88C45.1895 70.48 45.1895 71.14 45.0695 71.92C44.8895 72.76 44.4695 73.78 43.8095 74.98C43.3895 75.7 42.9095 76.36 42.4295 76.96C41.8895 77.62 41.3495 78.28 40.7495 79C41.1095 79.12 41.5895 79.3 42.1295 79.54C42.6095 79.72 43.1495 79.96 43.6295 80.26C44.1095 80.5 44.5295 80.74 44.9495 81.1C45.3095 81.34 45.5495 81.64 45.6695 82C45.7295 82.24 45.7895 82.48 45.9095 82.72C45.9695 82.9 46.0295 83.08 46.0895 83.32C46.2695 83.26 46.5695 83.02 46.9895 82.66C47.9495 81.7 48.7295 80.68 49.3895 79.6C49.9895 78.46 50.4695 77.56 50.7695 76.9C51.0095 76.36 51.2495 75.82 51.5495 75.34C51.7895 74.92 51.9695 74.56 52.0895 74.2C52.1495 73.84 52.1495 73.54 52.1495 73.24C52.0295 73 51.8495 72.94 51.5495 73C51.1895 73.12 50.9495 73.18 50.8295 73.24C50.6495 73.36 50.4695 73.42 50.2895 73.42C50.1695 73.42 50.0495 73.42 49.8695 73.3C49.6295 73.24 49.4495 73.12 49.2695 73C49.0295 72.94 48.8495 72.82 48.7295 72.7C48.5495 72.58 48.4895 72.46 48.4895 72.28C48.4895 71.98 48.5495 71.74 48.5495 71.5C48.5495 71.32 48.8495 71.2 49.5695 71.08C50.2295 71.02 50.6495 70.9 50.8895 70.72C51.0095 70.6 51.3095 70.36 51.6695 69.94C52.0895 69.64 52.3895 69.34 52.6295 69.04C52.7495 68.8 52.9895 68.62 53.2895 68.38L54.0095 68.02C54.1895 67.96 54.4295 67.9 54.6695 67.78C54.8495 67.72 55.0295 67.66 55.2695 67.66L57.3095 67.9C57.4295 67.9 57.6095 68.02 57.7895 68.26C57.9095 68.5 57.8495 68.98 57.6695 69.7C57.3695 70.78 56.9495 71.98 56.4695 73.18C55.9295 74.5 55.3295 75.76 54.6695 76.96L53.9495 77.98C54.7295 78.28 55.6295 78.76 56.5895 79.42C57.5495 80.02 58.3295 80.56 58.9895 81.1C59.3495 81.4 59.7095 81.76 60.1895 82.18C60.5495 82.54 60.9695 82.9 61.3295 83.32C61.6895 83.68 61.9895 83.98 62.2295 84.34C62.4695 84.64 62.5895 84.88 62.7095 85.12C62.8295 85.48 62.8895 85.84 62.7695 86.2C62.6495 86.56 62.2895 86.68 61.8095 86.56C61.3295 86.44 60.9095 86.38 60.6095 86.38C60.2495 86.26 59.9495 86.32 59.7095 86.56C59.4695 86.68 59.1695 86.8 58.9295 86.92C58.5695 86.92 58.2095 86.68 57.7295 86.2C57.4895 85.96 57.2495 85.54 56.9495 84.94C56.5895 84.34 56.1695 83.68 55.8095 82.96C55.3295 82.24 54.9095 81.52 54.4295 80.86C53.9495 80.14 53.4695 79.6 52.9895 79.24C52.6295 79.6 52.3295 79.9 52.0895 80.26C51.7895 80.56 51.5495 80.86 51.3095 81.22C51.1895 81.34 51.0095 81.58 50.7695 81.94C50.4695 82.24 50.1695 82.6 49.9295 82.96C49.5695 83.32 49.2695 83.62 48.9695 83.98C48.6095 84.28 48.3695 84.52 48.2495 84.64C47.5295 85.3 46.9295 85.9 46.5095 86.44C46.3895 86.5 46.3295 86.62 46.2095 86.8C46.0895 86.92 45.9095 87.1 45.7295 87.28C45.5495 87.52 45.3695 87.64 45.1895 87.58C44.7095 87.76 44.4095 87.46 44.4095 86.74C43.9295 85.9 43.2695 84.88 42.3695 83.74C41.4095 82.54 40.4495 81.58 39.3695 80.86L39.1895 80.74L37.5695 82.42C36.3695 83.56 35.2295 84.52 34.1495 85.36C33.0695 86.08 31.9895 86.56 30.9695 86.8C30.4295 86.92 30.0095 86.98 29.7095 87.04C29.3495 87.04 28.9895 87.1 28.7495 87.1C28.4495 87.1 28.2095 87.04 27.9695 86.98C27.6695 86.86 27.3695 86.8 27.1295 86.68C26.5295 86.32 26.3495 86.08 26.5895 85.96C26.7095 85.72 27.1295 85.66 27.7895 85.66C28.3895 85.66 29.0495 85.6 29.8295 85.48C30.5495 85.36 31.2695 85.06 32.1095 84.64C33.1295 84.04 34.0295 83.26 34.8695 82.24C35.6495 81.16 36.3095 80.14 36.9095 79.18C36.0695 78.58 35.2295 78.04 34.4495 77.56C33.6095 77.08 33.0695 76.72 32.8895 76.6C32.5295 76.42 32.3495 76.18 32.3495 75.82C32.2895 75.52 32.5895 75.46 33.1895 75.7C33.6695 75.94 34.3295 76.18 35.1695 76.48C35.9495 76.84 36.7895 77.26 37.7495 77.62C38.4695 76.12 38.9495 74.86 39.3095 73.9C39.6095 73 39.8495 72.22 40.0895 71.5C40.3295 70.72 40.5695 69.88 40.6895 69.04C40.8095 68.26 40.8695 67.72 40.9895 67.42ZM26.2895 40.9C26.5895 41.08 27.0695 41.26 27.7895 41.5C28.3895 41.8 29.1095 42.16 29.8295 42.58C30.4895 43.06 31.0895 43.66 31.6895 44.32C32.1695 45.04 32.4695 45.88 32.5895 46.9C32.7095 48.58 32.6495 50.08 32.2895 51.4C31.9295 52.78 31.5695 53.8 31.2095 54.4C31.0295 54.64 30.8495 54.82 30.6095 55C30.3695 55.24 30.1295 55.36 29.8895 55.36C29.5895 55.42 29.3495 55.36 29.1695 55.12C28.9295 55 28.7495 54.64 28.6895 54.1C28.5695 53.32 28.3895 52.42 28.2095 51.34C27.9695 50.32 27.7295 49.24 27.4895 48.1C27.1895 47.02 26.8895 45.94 26.5895 44.86C26.2295 43.84 25.8095 42.94 25.3895 42.1C25.1495 41.62 25.0295 41.32 25.0295 41.08C25.0295 40.9 25.0895 40.78 25.2095 40.72C25.3295 40.72 25.5095 40.72 25.7495 40.72C25.9295 40.84 26.1095 40.9 26.2895 40.9ZM39.1895 48.4C38.5895 48.7 38.2895 49.06 38.2895 49.42C38.2295 49.84 38.5295 50.2 39.1895 50.5C39.5495 50.74 40.1495 50.92 40.9295 51.16C41.6495 51.46 42.4895 51.64 43.3295 51.7C43.3895 50.92 43.4495 50.08 43.5695 49.24C43.6295 48.46 43.6895 47.68 43.7495 46.9V45.88L39.1895 48.4Z" fill="white"/>
<rect x="90.5" y="30.5" width="90" height="120" fill="#F6C500"/>
<rect x="90.5" y="30.5" width="90" height="120" stroke="black"/>
<path d="M141.609 97.84C141.789 97.6 141.909 97.42 141.909 97.3C141.849 97.18 141.789 97.12 141.669 97.06H140.709C140.049 97 139.449 97 138.909 97.06C138.309 97.18 137.769 97.36 137.289 97.54C136.989 97.66 136.629 97.84 136.209 97.96C135.729 98.2 135.309 98.38 134.829 98.5C134.349 98.74 133.869 98.92 133.389 99.04C132.909 99.22 132.489 99.34 132.249 99.34C132.009 99.4 131.709 99.52 131.229 99.64C130.689 99.82 130.149 100 129.609 100.12C129.009 100.36 128.469 100.48 127.989 100.6C127.449 100.72 127.089 100.78 126.849 100.78C126.369 100.78 126.009 100.54 125.769 100.18C125.529 99.82 125.349 99.46 125.289 99.04C125.289 98.86 125.229 98.56 125.229 98.14C125.109 97.78 125.049 97.36 125.049 96.88C124.989 96.46 124.929 96.04 124.929 95.68C124.869 95.32 124.869 95.08 124.929 94.9C124.989 94.6 125.169 94.42 125.529 94.3C125.769 94.24 126.009 94.36 126.129 94.6C126.249 95.32 126.549 95.74 126.969 95.92C127.329 96.16 128.169 96.28 129.489 96.28C129.789 96.34 130.269 96.34 130.929 96.22C131.529 96.16 132.249 96.04 132.969 95.92C133.629 95.86 134.289 95.74 134.889 95.62C135.429 95.5 135.849 95.44 136.089 95.38C136.509 95.32 136.989 95.2 137.529 95.08C138.009 95.02 138.549 94.96 139.089 94.9C139.329 94.9 139.629 94.9 140.049 94.9C140.409 94.96 140.709 95.02 141.069 95.02C141.429 95.08 141.849 95.14 142.269 95.2C142.329 95.2 142.449 95.2 142.569 95.14C142.809 95.08 143.049 94.9 143.409 94.54C143.649 94.3 144.009 94.18 144.489 94.18C144.969 94.3 145.449 94.48 145.929 94.78C146.049 94.9 146.289 94.96 146.529 95.02C146.709 95.14 146.949 95.26 147.189 95.38C147.369 95.56 147.549 95.74 147.729 95.92C147.849 96.16 147.909 96.34 147.909 96.58C147.849 97.06 147.729 97.54 147.489 98.08C147.189 98.68 146.469 99.22 145.329 99.82C144.789 100.18 144.189 100.42 143.589 100.6C142.929 100.84 142.269 100.96 141.669 101.08C141.009 101.26 140.409 101.38 139.809 101.5C139.209 101.68 138.669 101.86 138.189 101.98C137.889 102.1 137.529 102.22 137.049 102.46C136.569 102.7 136.029 102.94 135.549 103.06C135.069 103.3 134.649 103.42 134.349 103.54C133.989 103.72 133.749 103.84 133.629 103.9C133.389 104.14 133.389 104.26 133.749 104.32C133.989 104.44 134.409 104.5 135.009 104.5C135.489 104.56 136.089 104.56 136.689 104.56C137.229 104.56 137.649 104.56 137.889 104.56C138.309 104.56 138.609 104.5 138.789 104.32C138.909 104.2 139.149 104.02 139.389 103.78C139.629 103.54 139.929 103.42 140.289 103.3C140.649 103.3 141.189 103.3 142.029 103.3C142.809 103.36 143.469 103.42 143.949 103.54C144.369 103.66 144.729 103.78 144.969 103.78C145.089 103.78 145.269 103.84 145.509 103.96C145.689 104.08 145.869 104.26 145.989 104.44C146.049 104.68 146.049 104.92 145.929 105.16C145.809 105.46 145.449 105.76 144.849 106.06C144.249 106.42 143.349 106.84 142.029 107.38C140.709 107.92 139.329 108.52 137.949 109.12C136.509 109.66 135.189 110.14 134.109 110.62C132.909 111.04 132.249 111.34 132.129 111.46C131.769 111.64 131.709 111.88 131.829 112.12C131.949 112.36 132.189 112.48 132.669 112.6C132.909 112.6 133.329 112.72 133.989 112.96C134.589 113.14 135.309 113.32 136.089 113.56C136.809 113.74 137.529 113.92 138.249 114.16C138.909 114.28 139.389 114.4 139.689 114.46C140.169 114.52 140.769 114.58 141.549 114.64C142.269 114.64 142.989 114.58 143.769 114.58C144.489 114.52 145.209 114.46 145.929 114.46C146.589 114.34 147.129 114.28 147.489 114.22C148.209 113.98 149.049 113.86 149.949 113.74C150.789 113.56 151.329 113.5 151.689 113.5C151.809 113.5 152.109 113.44 152.529 113.44C152.889 113.38 153.309 113.38 153.789 113.38C154.149 113.38 154.509 113.38 154.869 113.44C155.169 113.44 155.289 113.56 155.289 113.74C155.169 114.1 155.289 114.34 155.589 114.52C155.829 114.64 156.009 114.7 156.189 114.7C156.249 114.7 156.369 114.7 156.549 114.7C156.669 114.7 156.789 114.7 156.909 114.76C156.969 114.76 157.029 114.82 157.029 114.94C157.029 115.06 156.909 115.24 156.789 115.48C156.429 115.96 155.949 116.32 155.409 116.62C154.809 116.86 154.269 116.98 153.789 117.1C153.369 117.16 152.829 117.28 152.169 117.46C151.449 117.58 150.669 117.7 149.949 117.82C149.169 117.94 148.449 118.06 147.729 118.18C147.009 118.24 146.409 118.3 145.989 118.3C145.509 118.3 145.029 118.3 144.429 118.3C143.769 118.24 143.109 118.18 142.509 118.18C141.789 118.12 141.129 118.06 140.529 118C139.809 117.88 139.209 117.7 138.729 117.52C138.189 117.34 137.589 117.16 136.869 116.92C136.089 116.62 135.369 116.38 134.649 116.14C133.929 115.9 133.269 115.66 132.729 115.48C132.129 115.24 131.769 115.12 131.589 115.06C131.109 114.82 130.629 114.76 130.089 114.88C129.489 114.88 128.829 114.94 128.109 114.94C127.269 114.94 126.669 114.82 126.309 114.58C125.829 114.34 125.649 113.86 125.769 113.2C125.769 112.48 125.889 111.88 126.069 111.28C126.189 110.62 126.489 110.32 127.089 110.32C127.689 110.32 128.229 110.32 128.829 110.44C129.309 110.5 129.849 110.44 130.329 110.32C130.809 110.08 131.409 109.9 132.009 109.72C132.549 109.48 133.089 109.24 133.689 108.94C134.229 108.58 134.469 108.34 134.409 108.22C134.289 108.1 133.989 108.04 133.569 108.04C133.209 108.04 132.729 108.1 132.069 108.1C131.349 108.1 130.689 108.04 130.029 107.98C129.309 107.86 128.709 107.62 128.229 107.38C127.689 107.14 127.449 106.78 127.569 106.3C127.569 105.82 127.629 105.4 127.689 105.1C127.689 104.86 127.809 104.68 127.929 104.5C127.989 104.38 128.109 104.26 128.289 104.14C128.409 104.02 128.589 103.9 128.949 103.66C129.129 103.54 129.609 103.36 130.329 103C131.049 102.76 131.889 102.4 132.849 101.98C133.809 101.62 134.769 101.2 135.849 100.72C136.869 100.36 137.829 99.94 138.729 99.52C139.089 99.4 139.629 99.16 140.289 98.8C140.889 98.56 141.369 98.2 141.609 97.84ZM138.489 62.8C139.209 62.92 139.929 63.04 140.769 63.28C141.489 63.58 142.209 64 142.929 64.48C143.589 65.02 144.189 65.68 144.669 66.46C145.089 67.3 145.329 68.32 145.449 69.4C145.449 69.88 145.449 70.24 145.449 70.48C145.389 70.72 145.329 70.9 145.329 70.96C145.209 71.08 145.149 71.2 145.089 71.2C144.969 71.26 144.909 71.32 144.909 71.44C144.849 71.56 144.849 71.68 144.969 71.68C144.969 71.8 145.029 71.86 145.149 71.98C145.149 72.1 145.209 72.28 145.269 72.46C145.269 72.7 145.269 73 145.149 73.36C144.549 75.76 143.229 77.62 141.309 79.06C140.709 79.48 140.109 79.78 139.509 79.96C138.849 80.2 138.189 80.38 137.589 80.44C136.929 80.56 136.329 80.56 135.849 80.56C135.249 80.56 134.829 80.56 134.529 80.56C133.689 80.5 132.849 80.32 132.009 79.96C131.109 79.66 130.389 79.36 129.789 79C128.829 78.52 128.049 77.8 127.569 76.9C126.969 76.06 126.609 75.1 126.429 74.08C126.189 73.12 126.129 72.16 126.249 71.14C126.249 70.18 126.429 69.34 126.789 68.62C127.089 67.9 127.569 67.12 128.169 66.28C128.769 65.44 129.549 64.72 130.509 64.12C130.329 63.52 130.149 62.92 129.969 62.32C129.729 61.78 129.489 61.36 129.249 61.12C128.769 60.7 128.709 60.28 129.009 59.92C129.249 59.62 129.669 59.62 130.149 59.92C130.629 60.28 131.049 60.52 131.409 60.76C131.709 61 132.249 61.3 133.089 61.6C133.809 62.02 134.289 62.68 134.649 63.64C135.069 63.46 135.609 63.28 136.329 63.04C136.929 62.86 137.649 62.8 138.489 62.8ZM111.489 87.34C112.209 87.58 113.049 87.64 114.009 87.58C114.849 87.58 115.809 87.52 116.889 87.4C117.249 87.4 118.089 87.34 119.409 87.22C120.609 87.1 122.049 86.98 123.729 86.8C125.349 86.68 127.089 86.5 128.949 86.32C130.749 86.2 132.489 86.02 134.109 85.84C135.669 85.72 137.049 85.54 138.189 85.42C139.269 85.3 139.989 85.24 140.289 85.24C140.769 85.24 141.609 85.12 142.869 85C144.069 84.88 145.389 84.76 146.769 84.58C148.089 84.46 149.289 84.34 150.369 84.22C151.449 84.16 152.049 84.1 152.289 84.1C152.469 84.1 152.709 83.98 152.949 83.74C153.189 83.5 153.429 83.26 153.789 83.02C154.029 82.84 154.389 82.66 154.749 82.54C155.049 82.48 155.409 82.54 155.889 82.78C156.249 83.02 156.669 83.32 157.149 83.68C157.569 84.04 157.989 84.4 158.469 84.7C158.829 85.06 159.249 85.36 159.609 85.6C159.909 85.9 160.149 86.08 160.389 86.2C160.569 86.32 160.689 86.56 160.809 86.8C160.869 87.1 160.869 87.4 160.869 87.64C160.749 87.94 160.629 88.18 160.509 88.36C160.269 88.6 160.029 88.66 159.789 88.6C159.309 88.6 158.709 88.54 157.989 88.54C157.209 88.6 156.429 88.66 155.589 88.78C154.689 88.9 153.849 89.08 153.009 89.26C152.169 89.5 151.449 89.74 150.849 90.1C149.949 90.58 149.289 90.7 148.869 90.52C148.389 90.4 148.569 90.1 149.289 89.5C149.589 89.26 149.949 88.96 150.369 88.54C150.729 88.18 151.089 87.82 151.389 87.46C151.629 87.1 151.749 86.8 151.869 86.56C151.869 86.32 151.749 86.2 151.389 86.2C151.029 86.2 150.309 86.26 149.349 86.32C148.329 86.44 147.249 86.5 146.109 86.62C144.909 86.74 143.709 86.86 142.629 86.98C141.489 87.16 140.589 87.28 139.989 87.4C139.509 87.52 138.789 87.7 137.769 87.88C136.689 88.12 135.489 88.3 134.169 88.54C132.729 88.84 131.289 89.14 129.849 89.38C128.289 89.74 126.909 89.98 125.589 90.22C124.209 90.52 123.069 90.76 122.109 90.88C121.089 91.12 120.429 91.24 120.189 91.3C119.709 91.42 119.169 91.48 118.629 91.48C118.029 91.6 117.489 91.6 116.949 91.6C116.349 91.6 115.749 91.54 115.269 91.42C114.729 91.36 114.249 91.24 113.889 91C113.049 90.58 112.449 90.16 111.969 89.8C111.489 89.5 111.009 89.2 110.589 88.9C110.349 88.78 110.169 88.6 110.109 88.36C109.989 88.18 109.929 88 110.049 87.76C110.049 87.64 110.229 87.46 110.469 87.34C110.709 87.22 111.009 87.22 111.489 87.34ZM133.869 67C133.509 67.36 133.149 67.54 132.909 67.66C132.549 67.78 132.309 67.84 132.129 67.84H132.009L131.889 67.78C131.229 67.72 130.749 68.02 130.449 68.62C130.089 69.28 129.909 69.88 129.909 70.48C129.789 71.14 129.789 71.74 129.909 72.34C129.909 73 130.089 73.6 130.329 74.14C130.569 74.74 130.929 75.22 131.469 75.58C131.949 76.06 132.669 76.36 133.569 76.6C134.649 76.9 135.609 76.96 136.449 76.78C137.289 76.66 138.069 76.42 138.909 76.06C139.929 75.28 140.589 74.38 140.889 73.36C141.129 72.4 141.249 71.32 141.369 70.12C141.429 68.86 141.129 67.72 140.469 66.76C139.749 65.8 138.849 65.2 137.709 64.9C137.229 64.84 136.749 64.78 136.269 64.78C135.669 64.84 135.189 64.84 134.829 64.84C134.829 65.26 134.709 65.62 134.589 65.98C134.409 66.4 134.169 66.76 133.869 67Z" fill="white"/>
<rect x="180.5" y="60.5" width="90" height="120" fill="#F6C500"/>
<rect x="180.5" y="60.5" width="90" height="120" stroke="black"/>
<path d="M214.391 111.7L215.651 111.88C216.431 110.92 217.211 109.9 217.991 108.82C218.711 107.8 219.491 106.72 220.271 105.52C220.451 105.22 220.511 104.98 220.451 104.8C220.331 104.68 220.091 104.62 219.791 104.68C219.431 104.92 219.131 105.1 218.891 105.22C218.531 105.4 218.231 105.52 217.871 105.64C217.631 105.76 217.271 105.88 216.851 106C216.371 106.24 216.071 106.54 215.891 106.9C215.771 107.14 215.531 107.32 215.231 107.5C214.871 107.74 214.511 107.98 214.151 108.16C213.671 108.4 213.251 108.52 212.771 108.58C212.291 108.7 211.811 108.7 211.391 108.58C210.911 108.46 210.491 108.28 210.071 107.92C209.591 107.62 209.111 107.26 208.691 106.9C208.211 106.54 207.851 106.18 207.491 105.82C207.131 105.52 206.831 105.28 206.591 105.1C206.111 104.8 205.991 104.56 206.111 104.32C206.231 104.14 206.471 104.08 206.891 104.14C207.071 104.14 207.431 104.2 207.971 104.2C208.451 104.26 208.931 104.26 209.531 104.26C210.071 104.32 210.611 104.32 211.211 104.26C211.751 104.26 212.231 104.26 212.591 104.14C213.011 104.02 213.491 103.96 214.091 104.08C214.631 104.2 214.991 104.26 215.171 104.26C215.351 104.26 215.711 104.14 216.191 103.78C216.611 103.48 217.151 103.18 217.871 102.94L220.991 101.8C221.471 101.68 221.831 101.5 222.071 101.14C222.071 101.08 222.131 100.96 222.191 100.78C222.191 100.66 222.311 100.54 222.431 100.42C222.551 100.3 222.731 100.24 222.971 100.18C223.151 100.18 223.511 100.18 223.991 100.3C224.951 100.54 225.731 100.84 226.391 101.08C226.991 101.38 227.531 101.62 227.891 101.8C228.011 101.92 228.131 102.04 228.251 102.28C228.251 102.52 228.251 102.76 228.251 103C228.191 103.3 228.071 103.6 227.951 103.84C227.771 104.14 227.531 104.38 227.291 104.5C226.751 104.8 226.331 105.16 225.971 105.58C225.551 106.06 225.191 106.48 224.891 106.9C224.171 107.8 223.391 108.7 222.551 109.66C221.651 110.68 220.691 111.7 219.671 112.72L221.291 113.2C222.671 113.68 223.991 114.1 225.191 114.58C226.331 115.12 227.531 115.96 228.791 117.1C229.151 117.46 229.511 117.82 229.871 118.06C230.171 118.42 230.471 118.72 230.711 119.08C230.951 119.44 231.131 119.86 231.251 120.28C231.311 120.76 231.311 121.3 231.191 121.9C231.071 122.5 230.891 122.92 230.711 123.16C230.471 123.46 230.291 123.64 230.051 123.76C229.811 123.88 229.571 124 229.391 124C229.151 124.06 228.911 124.18 228.791 124.3C228.611 124.48 228.371 124.54 228.131 124.54C227.831 124.6 227.591 124.6 227.351 124.48C227.051 124.42 226.811 124.3 226.631 124.06C226.391 123.94 226.331 123.7 226.391 123.34C226.391 123.1 226.391 122.86 226.391 122.62C226.331 122.5 226.271 122.32 226.271 122.2C226.151 122.08 226.091 121.96 226.091 121.78C226.031 121.66 226.031 121.54 226.091 121.3C226.151 120.88 226.211 120.52 226.271 120.28C226.271 120.1 226.091 119.86 225.791 119.5C224.771 118.42 223.751 117.58 222.671 116.98C221.531 116.38 220.391 115.84 219.191 115.3C218.651 115.18 218.111 115.06 217.511 114.94C215.951 116.5 214.391 117.94 212.951 119.38C211.391 120.82 210.071 122.08 208.991 123.1C208.331 123.7 207.611 124.06 206.831 124.24C205.991 124.48 205.271 124.54 204.791 124.3C203.651 123.82 202.931 123.4 202.691 123.04C202.511 122.92 202.511 122.68 202.631 122.44C202.751 122.2 202.931 122.14 203.291 122.2C203.591 122.32 204.071 122.38 204.671 122.38C205.271 122.44 205.871 122.2 206.591 121.6C207.731 120.4 208.871 119.2 210.071 118C211.151 116.86 212.291 115.66 213.431 114.4C213.071 114.4 212.711 114.28 212.411 114.04C212.291 113.98 212.231 113.92 212.231 113.86C212.231 113.86 212.111 113.86 211.871 113.92C211.631 113.98 211.391 114.04 211.151 114.04C210.851 114.1 210.611 114.1 210.431 113.98C210.191 113.86 210.131 113.74 210.131 113.62C210.131 113.56 209.951 113.5 209.711 113.44C209.411 113.44 209.171 113.44 208.991 113.44C208.751 113.5 208.451 113.5 208.091 113.38C207.671 113.32 207.431 113.2 207.431 113.02C207.311 112.9 207.551 112.78 208.091 112.6C208.451 112.48 208.991 112.3 209.591 112.12C210.131 112 210.731 111.94 211.331 111.82C211.871 111.76 212.411 111.7 213.011 111.64C213.551 111.64 214.031 111.7 214.391 111.7ZM227.891 111.28C226.931 111.16 226.451 110.92 226.331 110.56C226.211 110.2 226.391 110.02 226.991 109.9C227.231 109.9 227.471 109.84 227.711 109.84C227.831 109.84 228.071 109.84 228.311 109.78C228.551 109.78 228.851 109.78 229.211 109.72C229.511 109.72 229.991 109.72 230.591 109.6C230.831 109.6 231.191 109.6 231.791 109.54C232.331 109.54 232.991 109.48 233.711 109.36C234.371 109.36 235.091 109.24 235.931 109.12C236.711 109.06 237.491 108.94 238.271 108.76C238.271 108.58 238.271 108.4 238.271 108.22C238.271 108.1 238.271 107.98 238.331 107.92C238.451 107.8 238.631 107.68 238.811 107.68C238.931 107.68 238.991 107.56 239.111 107.26C239.111 107.14 239.111 106.96 239.051 106.84C238.931 106.72 238.871 106.6 238.811 106.42C238.691 106.3 238.571 106.12 238.511 105.88C238.391 105.7 238.391 105.46 238.451 105.1C238.511 104.68 238.571 104.2 238.571 103.6C238.571 103.12 238.571 102.58 238.571 101.98C238.451 100.84 238.451 99.94 238.571 99.22C238.571 98.62 238.571 98.02 238.571 97.42C238.451 97 238.451 96.52 238.451 95.98C238.391 95.5 238.151 95.08 237.671 94.66C237.191 94.3 236.771 94.06 236.411 93.88C235.931 93.76 235.511 93.58 235.151 93.34C234.911 93.22 234.791 93.1 234.791 92.86C234.731 92.68 234.791 92.5 234.911 92.26C234.971 92.14 235.151 91.96 235.391 91.84C235.631 91.78 235.931 91.78 236.351 91.9C236.591 92.02 236.951 92.14 237.551 92.26C238.031 92.44 238.631 92.62 239.291 92.74C239.891 92.98 240.551 93.16 241.211 93.28C241.811 93.52 242.351 93.64 242.711 93.7C243.251 93.82 243.671 94 244.031 94.12C244.331 94.36 244.391 94.72 244.211 95.32C243.971 95.98 243.791 96.64 243.611 97.36C243.371 98.08 243.251 98.86 243.251 99.7C243.251 100.3 243.251 101.02 243.251 101.98C243.191 102.94 243.191 103.78 243.191 104.5C243.131 104.86 243.071 105.28 243.071 105.82C243.011 106.42 243.011 107.02 243.011 107.62C242.951 108.28 242.951 108.88 242.951 109.42C242.891 110.02 242.891 110.5 242.891 110.8L242.951 114.22H242.891C242.891 114.94 242.891 115.66 242.891 116.32C242.831 117.04 242.771 117.58 242.711 118C242.651 118.48 242.531 118.96 242.411 119.5C242.171 120.1 241.991 120.7 241.751 121.18C241.451 121.78 241.211 122.26 240.971 122.68C240.671 123.16 240.431 123.52 240.191 123.7C239.951 123.94 239.651 124.12 239.411 124.24C239.051 124.48 238.811 124.6 238.571 124.6C238.271 124.72 238.091 124.66 237.971 124.54C237.851 124.42 237.851 124.18 238.031 123.7C238.151 123.34 238.211 122.8 238.331 122.08C238.331 121.36 238.391 120.58 238.391 119.62C238.391 118.78 238.391 117.82 238.391 116.86C238.331 115.96 238.331 115.06 238.331 114.22C238.271 113.74 238.271 113.2 238.271 112.72C238.271 112.3 238.271 111.88 238.271 111.4C237.791 111.64 237.371 111.82 236.951 111.94C236.471 112.12 236.051 112.24 235.691 112.3C235.331 112.42 234.971 112.48 234.491 112.6C233.951 112.72 233.471 112.84 232.991 112.9C232.451 113.02 231.971 113.02 231.551 113.02C231.071 113.08 230.771 113.02 230.591 112.9C230.351 112.78 230.171 112.66 230.051 112.48C229.871 112.36 229.691 112.18 229.571 112C229.391 111.88 229.211 111.7 228.971 111.52C228.671 111.4 228.311 111.34 227.891 111.28ZM242.231 129.22C242.471 129.58 242.591 129.94 242.591 130.24C242.531 130.6 242.471 131.02 242.411 131.44C242.291 131.86 242.171 132.16 242.051 132.34C241.811 132.58 241.631 132.88 241.511 133.18C241.391 133.36 241.331 133.72 241.331 134.2C241.211 134.8 241.151 135.4 241.091 136.12C240.971 136.9 240.911 137.68 240.911 138.52C240.791 139.36 240.791 140.14 240.791 140.92C240.791 141.52 240.851 142.12 240.851 142.72C240.851 143.26 240.851 143.74 240.851 144.1C240.851 144.58 240.851 145 240.911 145.42C240.911 145.78 240.611 146.14 240.131 146.5C239.951 146.62 239.891 146.68 239.891 146.74C239.831 146.74 239.831 146.8 239.831 146.86C239.831 146.86 239.831 146.92 239.831 147.04C239.831 147.04 239.771 147.16 239.771 147.28C239.651 147.52 239.531 147.7 239.351 147.7C239.111 147.7 238.871 147.76 238.751 148C238.631 148.06 238.511 148.18 238.391 148.3C238.211 148.42 238.031 148.48 237.851 148.6C237.671 148.66 237.491 148.72 237.371 148.78C237.131 148.78 237.011 148.66 236.951 148.42C236.831 148.24 236.771 148.06 236.771 147.88C236.651 147.64 236.651 147.34 236.711 146.98C236.711 146.2 236.711 145.54 236.771 144.94C236.771 144.28 236.831 143.68 236.831 143.14C236.831 142.78 236.831 142.24 236.891 141.58C236.891 140.86 236.891 140.14 236.951 139.42C236.951 138.64 236.951 137.92 237.011 137.32C237.011 136.72 237.011 136.24 237.011 136C237.011 135.52 237.011 134.98 237.071 134.5C237.071 134.08 237.071 133.6 237.131 133.12C237.131 132.64 237.131 132.22 237.131 131.86C237.131 131.56 237.011 131.32 236.831 131.2C236.591 131.08 236.351 131.02 236.111 131.02C235.811 131.08 235.511 131.14 235.271 131.14C234.911 131.26 234.671 131.32 234.551 131.32C233.591 131.62 232.811 131.86 232.091 131.98C231.371 132.22 230.651 132.46 229.931 132.76C229.151 133.12 228.311 133.48 227.411 133.96C226.451 134.44 225.491 134.74 224.591 134.8C224.111 134.86 223.631 134.8 223.091 134.62C222.491 134.5 221.951 134.26 221.471 134.02C220.931 133.78 220.451 133.54 220.091 133.24C219.611 133 219.311 132.82 219.131 132.7C218.651 132.4 218.411 132.22 218.291 132.1C218.171 132.04 217.931 131.86 217.631 131.5C217.271 131.2 217.211 130.96 217.451 130.78C217.571 130.66 217.751 130.6 217.991 130.6C218.291 130.6 218.771 130.72 219.431 130.96C220.031 131.26 220.811 131.32 221.831 131.2C222.311 131.2 223.031 131.08 223.991 130.84C224.891 130.72 225.851 130.48 226.871 130.24C227.831 130.06 228.791 129.88 229.691 129.64C230.531 129.46 231.071 129.34 231.431 129.22C232.031 129.1 232.751 128.92 233.531 128.74C234.251 128.62 235.151 128.44 236.111 128.2L236.231 128.08L236.351 127.96C236.531 127.84 236.711 127.72 236.831 127.54C236.891 127.42 237.011 127.36 237.131 127.24C237.191 127.18 237.311 127.12 237.491 127.12C237.611 127.12 237.911 127.18 238.271 127.3C238.631 127.42 238.991 127.54 239.411 127.66C239.771 127.84 240.191 128.02 240.611 128.14C240.971 128.32 241.271 128.5 241.631 128.62C241.871 128.8 242.111 128.98 242.231 129.22Z" fill="white"/>
<rect x="270.5" y="90.5" width="90" height="120" fill="#F6C500"/>
<rect x="270.5" y="90.5" width="90" height="120" stroke="black"/>
<path d="M324.565 126.88C324.565 126.94 324.625 126.94 324.685 126.94C324.685 126.94 324.745 127 324.865 127H324.985L325.225 127.12C325.705 127.24 325.945 127.48 326.005 127.84C326.005 127.96 326.005 128.14 326.005 128.26C326.005 128.32 326.005 128.38 326.005 128.38C325.945 128.44 325.945 128.5 325.945 128.56C325.885 128.68 325.885 128.74 325.885 128.74C325.885 128.8 325.825 128.86 325.825 128.86L325.705 129.34C325.525 129.82 325.405 130.18 325.405 130.54L325.225 131.44L325.105 132.16V133C325.045 133.24 325.045 133.42 325.045 133.66C325.045 133.9 325.045 134.2 325.045 134.44C324.985 135.04 324.985 135.58 324.985 136.18C324.985 136.78 324.985 137.32 324.985 137.74V138.46L324.865 140.38V140.92C324.865 141.04 324.865 141.1 324.865 141.22C324.805 141.34 324.805 141.46 324.805 141.52C324.805 142.12 324.805 142.6 324.805 143.02C324.745 143.5 324.745 143.86 324.805 144.1V147.1C324.805 147.34 324.805 147.52 324.805 147.7C324.745 147.94 324.745 148.18 324.745 148.42V148.9C324.745 149.74 324.745 150.52 324.805 151.36C324.805 152.26 324.805 153.16 324.805 154V162.7C324.805 162.88 324.745 163.06 324.685 163.3L324.505 163.6C324.505 163.66 324.445 163.72 324.385 163.78L323.965 164.2L323.725 164.38C323.605 164.44 323.545 164.44 323.545 164.44C323.425 164.5 323.365 164.56 323.305 164.62C323.245 164.62 323.185 164.68 323.125 164.74C323.065 164.8 323.005 164.8 323.005 164.8L322.885 164.92L322.465 165.34L322.285 165.46L321.985 165.64C321.865 165.76 321.805 165.76 321.805 165.76C321.565 165.88 321.385 165.88 321.385 165.88C321.325 165.88 321.265 165.82 321.265 165.82C321.145 165.82 321.085 165.76 320.965 165.64C320.845 165.58 320.845 165.52 320.845 165.46C320.725 165.28 320.665 164.92 320.605 164.38C320.605 164.38 320.605 164.32 320.605 164.26C320.545 164.26 320.545 164.2 320.545 164.14V149.02C320.545 148.96 320.545 148.84 320.545 148.72C320.485 148.66 320.485 148.6 320.485 148.48V147.64H320.365L319.705 147.82C319.345 147.94 319.045 148 318.685 148.06C318.325 148.18 317.965 148.24 317.605 148.3C317.485 148.3 317.425 148.3 317.425 148.3C317.365 148.36 317.305 148.36 317.245 148.36C316.765 148.48 316.405 148.42 316.285 148.3C316.165 148.3 316.165 148.3 316.165 148.24L315.985 148.06L315.685 147.7C315.685 147.7 315.685 147.64 315.685 147.58C315.625 147.58 315.625 147.58 315.625 147.52C315.505 147.46 315.505 147.4 315.505 147.34L315.145 146.92C315.025 147.16 314.965 147.28 314.905 147.28C314.785 147.4 314.665 147.46 314.605 147.58C314.545 147.7 314.545 147.82 314.665 147.82C314.665 147.94 314.725 148 314.845 148.12C314.845 148.3 314.905 148.48 314.965 148.72C314.965 148.96 314.965 149.32 314.905 149.74C314.545 151.06 314.065 152.2 313.345 153.22C312.625 154.3 311.665 155.26 310.585 156.1C309.985 156.58 309.325 156.88 308.605 157.12C307.885 157.42 307.165 157.6 306.505 157.72C305.785 157.84 305.185 157.9 304.585 157.9C303.985 157.9 303.505 157.9 303.145 157.9C302.305 157.84 301.405 157.66 300.505 157.36C299.545 157.12 298.765 156.76 298.105 156.4C297.025 155.8 296.245 155.02 295.645 153.94C295.045 152.98 294.625 151.9 294.385 150.7C294.145 149.56 294.025 148.42 294.145 147.22C294.205 146.14 294.445 145.12 294.805 144.28C295.105 143.5 295.585 142.66 296.305 141.76C296.965 140.92 297.865 140.14 298.945 139.42C298.765 138.76 298.585 138.16 298.345 137.56C298.105 137.02 297.865 136.6 297.625 136.3C297.385 136.06 297.205 135.82 297.205 135.52C297.145 135.28 297.205 135.04 297.325 134.8C297.445 134.68 297.625 134.56 297.865 134.5C298.045 134.5 298.285 134.62 298.525 134.8C299.005 135.16 299.485 135.4 299.905 135.58C300.265 135.82 300.865 136.18 301.705 136.54C302.065 136.78 302.425 137.08 302.725 137.44C302.965 137.92 303.205 138.4 303.385 138.88C303.865 138.64 304.465 138.34 305.185 138.1C305.845 137.86 306.625 137.8 307.465 137.8C308.185 137.92 309.025 138.1 309.925 138.34C310.765 138.7 311.545 139.12 312.325 139.66C313.045 140.26 313.645 140.98 314.185 141.82C314.665 142.66 315.025 143.68 315.145 144.88L316.465 144.7H316.585C317.005 144.7 317.605 144.64 318.445 144.52C318.745 144.46 319.045 144.4 319.405 144.34C319.705 144.34 320.065 144.28 320.425 144.16C320.425 143.62 320.425 143.08 320.425 142.6C320.365 142.18 320.365 141.82 320.425 141.58V141.22L320.485 141.16C320.545 141.1 320.605 141.04 320.665 141.04L320.785 140.98C320.845 140.92 320.905 140.92 320.905 140.92C320.905 140.92 320.965 140.92 321.085 140.8L321.145 140.68C321.145 140.68 321.205 140.62 321.205 140.5C321.205 140.32 321.145 140.08 321.025 139.84C320.965 139.84 320.965 139.78 320.965 139.72C320.845 139.66 320.845 139.6 320.845 139.48C320.785 139.42 320.725 139.3 320.665 139.18C320.665 139.12 320.605 139.06 320.605 139C320.605 138.94 320.605 138.82 320.605 138.7C320.545 138.58 320.545 138.46 320.605 138.34V138.22C320.605 138.22 320.605 138.16 320.665 138.16C320.665 138.16 320.665 138.16 320.665 138.1V137.8C320.665 137.5 320.725 137.2 320.725 136.84C320.665 136.6 320.665 136.3 320.665 135.94V135.22C320.665 134.26 320.665 133.48 320.725 132.88C320.725 132.28 320.725 131.8 320.725 131.32C320.725 131.26 320.725 131.2 320.725 131.08C320.665 131.02 320.665 130.96 320.665 130.84V130.66C320.605 130.54 320.605 130.36 320.665 130.12C320.665 130 320.605 129.82 320.605 129.58V129.28L320.485 128.86L320.245 128.38C320.185 128.32 320.125 128.26 320.125 128.14C320.005 128.14 319.945 128.08 319.885 127.96L319.585 127.78C319.345 127.6 319.105 127.42 318.865 127.3C318.625 127.18 318.385 127.12 318.205 127L317.605 126.64C317.365 126.52 317.245 126.34 317.245 126.04C317.245 126.04 317.245 125.98 317.245 125.92C317.185 125.92 317.185 125.86 317.245 125.74C317.245 125.68 317.245 125.62 317.365 125.5C317.365 125.5 317.365 125.44 317.425 125.38L317.485 125.32C317.485 125.32 317.545 125.26 317.605 125.26C317.605 125.26 317.605 125.2 317.665 125.2C317.665 125.2 317.785 125.14 318.025 125.14C318.265 125.14 318.445 125.2 318.625 125.2C318.625 125.2 318.685 125.26 318.745 125.26C318.805 125.26 318.865 125.26 318.925 125.26C318.925 125.32 318.925 125.32 319.045 125.32L319.705 125.56L321.925 126.22L322.465 126.34L322.945 126.52C323.005 126.52 323.065 126.52 323.125 126.52C323.125 126.58 323.185 126.58 323.305 126.58L324.565 126.88ZM334.165 134.44V135.34C334.165 135.58 334.165 135.88 334.165 136.12C334.105 136.48 334.105 136.78 334.105 137.08C334.105 137.2 334.105 137.32 334.105 137.44C334.045 137.56 334.045 137.68 334.045 137.8C334.045 138.04 334.045 138.22 334.045 138.34C333.985 138.58 333.985 138.76 333.985 138.94V143.44C333.985 143.56 333.985 143.62 334.045 143.68C334.045 143.8 334.045 143.92 334.045 144.04V144.64C334.045 145.12 334.105 145.54 334.105 146.02C334.105 146.5 334.105 147.1 334.105 147.7V155.92C334.045 156.22 334.045 156.46 334.045 156.7C334.045 157 334.045 157.24 334.045 157.48V158.32C333.985 158.92 333.985 159.52 333.985 160C333.925 160.6 333.925 161.08 333.925 161.5C333.865 161.92 333.865 162.28 333.865 162.58C333.865 162.94 333.865 163.18 333.865 163.42V164.92C333.865 165.04 333.865 165.1 333.865 165.16C333.805 165.28 333.805 165.4 333.805 165.52C333.805 165.82 333.745 166 333.745 166.12L333.565 167.74L333.445 168.4C333.445 168.52 333.385 168.64 333.385 168.76C333.385 168.88 333.325 169 333.325 169.12L333.085 170.44C332.965 170.68 332.905 170.92 332.905 171.16C332.845 171.34 332.785 171.52 332.785 171.76C332.665 171.94 332.605 172.24 332.545 172.66L332.365 173.2C332.365 173.26 332.365 173.32 332.365 173.38C332.305 173.38 332.305 173.38 332.305 173.5C332.005 174.34 331.765 175 331.585 175.36C331.465 175.42 331.465 175.48 331.465 175.6C331.345 175.72 331.285 175.84 331.225 175.96C330.985 176.2 330.805 176.5 330.685 176.8C330.445 177.04 330.265 177.22 330.085 177.4L329.965 177.52C329.785 177.58 329.665 177.64 329.605 177.64C329.545 177.64 329.485 177.58 329.485 177.58L329.425 177.52C329.305 177.34 329.305 177.16 329.305 177.04V176.5C329.305 176.38 329.305 176.26 329.365 176.14C329.365 175.96 329.365 175.78 329.425 175.6C329.425 175.36 329.485 175.18 329.545 175C329.545 174.76 329.545 174.52 329.545 174.28L329.665 172.96C329.665 172.54 329.665 172.12 329.725 171.7C329.725 171.22 329.725 170.8 329.725 170.32C329.725 170.08 329.725 169.9 329.785 169.72C329.785 169.48 329.785 169.3 329.785 169.12C329.785 168.58 329.785 168.1 329.845 167.62C329.845 167.14 329.845 166.6 329.845 166V153.7C329.845 153.28 329.845 152.86 329.845 152.44C329.845 152.08 329.785 151.66 329.785 151.18C329.785 150.76 329.785 150.28 329.785 149.8C329.725 149.38 329.725 148.9 329.725 148.3V146.56L329.605 144.4V143.5C329.605 143.32 329.605 143.14 329.605 142.9C329.545 142.78 329.545 142.6 329.545 142.36V138.46C329.545 138.4 329.545 138.34 329.605 138.22C329.605 138.16 329.605 138.1 329.605 138.04C329.605 137.92 329.605 137.86 329.665 137.86C329.665 137.74 329.785 137.68 329.905 137.68C329.965 137.68 330.025 137.62 330.145 137.56C330.205 137.56 330.265 137.44 330.385 137.2C330.385 137.08 330.325 136.84 330.145 136.54C330.025 136.48 330.025 136.42 330.025 136.36C329.905 136.3 329.905 136.24 329.905 136.12C329.785 136 329.785 135.88 329.785 135.76C329.725 135.76 329.725 135.7 329.725 135.64V135.16C329.725 135.16 329.725 135.1 329.785 135.1C329.785 135.1 329.785 135.1 329.785 135.04V134.68C329.785 134.26 329.845 133.78 329.845 133.3C329.785 132.88 329.785 132.4 329.845 131.92C329.785 131.56 329.785 131.26 329.785 130.9C329.785 130.66 329.785 130.36 329.785 130.12C329.785 129.76 329.785 129.46 329.845 129.16C329.845 128.92 329.845 128.62 329.845 128.38V127.36C329.845 127.36 329.845 127.3 329.845 127.24C329.785 127.24 329.785 127.18 329.785 127.06C329.785 126.88 329.785 126.7 329.785 126.52C329.785 126.4 329.725 126.22 329.725 125.98C329.725 125.86 329.665 125.8 329.665 125.74C329.665 125.62 329.605 125.5 329.545 125.32C329.425 125.2 329.365 125.08 329.305 124.96C329.185 124.9 329.125 124.78 329.065 124.66L328.645 124.36L328.225 124.12C328.045 124.06 327.925 124 327.805 123.94C327.625 123.94 327.505 123.88 327.385 123.76L327.205 123.64H327.145L326.965 123.52L326.665 123.34H326.605L326.365 123.1L326.245 122.74C326.245 122.5 326.245 122.38 326.365 122.26V122.2L326.545 122.02C326.605 121.96 326.665 121.9 326.785 121.9C326.845 121.9 326.965 121.84 327.145 121.84H327.505C327.505 121.84 327.565 121.84 327.625 121.84C327.625 121.9 327.625 121.9 327.745 121.9L328.405 122.14H328.525C328.525 122.2 328.585 122.2 328.645 122.2C328.645 122.2 328.705 122.26 328.825 122.26L329.605 122.5C329.845 122.62 330.085 122.68 330.325 122.68C330.565 122.8 330.805 122.86 331.045 122.92C331.345 122.98 331.705 123.1 332.185 123.22C332.245 123.22 332.305 123.22 332.365 123.22C332.365 123.28 332.425 123.28 332.545 123.28C332.785 123.4 332.905 123.4 333.025 123.4C333.025 123.46 333.145 123.46 333.265 123.46C333.505 123.58 333.685 123.58 333.805 123.58L333.865 123.64H334.045C334.045 123.7 334.105 123.7 334.225 123.7L334.705 123.88L334.885 124L335.125 124.18C335.185 124.3 335.245 124.36 335.245 124.42C335.245 124.54 335.305 124.66 335.305 124.78C335.305 124.84 335.305 124.84 335.305 124.84C335.245 124.9 335.245 124.96 335.245 124.96C335.245 125.02 335.245 125.08 335.245 125.08C335.185 125.14 335.185 125.2 335.185 125.26C335.125 125.38 335.125 125.44 335.125 125.44C335.125 125.5 335.065 125.56 335.065 125.56C335.065 125.68 335.065 125.68 335.065 125.68C335.005 125.74 335.005 125.8 335.005 125.86C334.945 125.92 334.945 125.98 334.945 126.04L334.645 127.12C334.525 127.36 334.525 127.6 334.525 127.78C334.465 127.9 334.465 128.02 334.465 128.14C334.465 128.2 334.465 128.2 334.465 128.2C334.405 128.26 334.405 128.32 334.405 128.38V128.62C334.405 128.68 334.405 128.68 334.405 128.68C334.345 128.74 334.345 128.8 334.345 128.86V130.78C334.345 131.02 334.345 131.2 334.345 131.32C334.285 131.56 334.285 131.74 334.285 131.92V132.58C334.225 132.94 334.225 133.24 334.225 133.54C334.165 133.9 334.165 134.2 334.165 134.44ZM302.545 142.66C301.645 143.44 300.925 143.74 300.385 143.5C299.665 143.44 299.185 143.74 298.825 144.4C298.405 145.12 298.165 145.84 298.105 146.44C298.045 147.16 298.045 147.88 298.165 148.6C298.165 149.32 298.345 149.98 298.645 150.58C298.885 151.24 299.305 151.78 299.905 152.26C300.385 152.74 301.165 153.16 302.125 153.4C303.265 153.76 304.285 153.82 305.245 153.64C306.145 153.52 307.045 153.22 307.945 152.8C309.025 151.84 309.745 150.82 310.105 149.74C310.405 148.66 310.585 147.46 310.705 146.14C310.765 144.76 310.405 143.5 309.685 142.36C308.845 141.28 307.825 140.62 306.565 140.26C306.085 140.2 305.605 140.2 305.065 140.2C304.465 140.26 303.985 140.26 303.565 140.26C303.565 141.28 303.205 142.06 302.545 142.66Z" fill="white"/>
</svg>
