<svg width="271" height="151" viewBox="0 0 271 151" fill="none" xmlns="http://www.w3.org/2000/svg">
<rect x="0.5" y="30.5" width="90" height="120" fill="#F6C500"/>
<rect x="0.5" y="30.5" width="90" height="120" stroke="black"/>
<path d="M48.4295 91.96C48.4895 92.8 48.5495 93.7 48.6095 94.66C48.6095 95.62 48.4295 96.64 48.0695 97.66C47.9495 97.78 47.9495 97.9 47.9495 98.02C47.8895 98.14 47.8295 98.26 47.7695 98.32C48.3095 98.26 48.9695 98.14 49.6895 98.02C50.3495 97.9 51.0095 97.78 51.7295 97.54C51.9695 97.54 52.1495 97.42 52.3295 97.24C52.4495 97.12 52.5695 96.94 52.6895 96.82C52.8095 96.7 52.9295 96.64 53.1695 96.58C53.2895 96.58 53.5895 96.58 53.9495 96.7C54.6695 97 55.5095 97.3 56.4095 97.54C57.2495 97.84 57.7895 98.2 58.0895 98.62C58.3295 98.98 58.3895 99.34 58.3895 99.64C58.3295 100 58.2695 100.42 58.2095 100.84C58.0895 101.26 57.9695 101.56 57.8495 101.74C57.6095 101.98 57.4295 102.28 57.3095 102.58C57.1895 102.76 57.1295 103.12 57.0695 103.6C56.9495 104.14 56.8895 104.74 56.8295 105.46C56.7095 106.18 56.6495 106.96 56.6495 107.8C56.5895 108.64 56.5895 109.42 56.5895 110.2V113.8C56.5895 114.28 56.5895 114.7 56.6495 115.12C56.6495 115.48 56.3495 115.84 55.8095 116.2C55.4495 116.44 55.3295 116.56 55.4495 116.56C55.5095 116.56 55.5095 116.68 55.5095 116.98C55.5095 117.04 55.3895 117.16 55.2695 117.34C55.0295 117.46 54.8495 117.58 54.6695 117.7C54.4295 117.82 54.1895 117.94 54.0095 118.06C53.7695 118.18 53.5895 118.24 53.4695 118.3C53.2295 118.36 53.0495 118.42 52.9295 118.48C52.6895 118.48 52.5695 118.36 52.4495 118.12C52.3295 117.94 52.2695 117.76 52.2695 117.64C52.2095 117.4 52.2095 117.16 52.2095 116.8C52.2095 116.14 52.2095 115.42 52.2695 114.7C52.2695 113.92 52.2695 113.2 52.3895 112.6C52.3895 112.24 52.3895 111.7 52.4495 111.04C52.4495 110.32 52.4495 109.6 52.5095 108.88C52.5095 108.1 52.5095 107.44 52.5095 106.72C52.5095 106.12 52.5095 105.64 52.5095 105.4C52.5095 104.92 52.5095 104.38 52.5695 103.9C52.5695 103.48 52.6295 103 52.6895 102.52C52.6895 102.04 52.6895 101.62 52.6895 101.26C52.6895 100.9 52.5095 100.66 52.1495 100.54C51.7895 100.42 51.3095 100.48 50.7695 100.6C49.6895 100.96 48.7295 101.2 47.7695 101.32C46.7495 101.56 45.9095 101.8 45.1895 102.1C44.3495 102.46 43.4495 102.82 42.4895 103.3C41.4095 103.84 40.4495 104.14 39.4895 104.2C39.0095 104.26 38.4695 104.2 37.9295 104.02C37.3295 103.9 36.7295 103.66 36.2495 103.42C35.6495 103.18 35.1695 102.94 34.7495 102.64C34.2695 102.4 33.9695 102.22 33.7895 102.1C33.3095 101.8 33.0695 101.62 32.9495 101.5C32.8295 101.44 32.5895 101.26 32.2895 100.9C31.9295 100.6 31.8695 100.36 32.1095 100.18C32.2895 100.06 32.4695 100 32.7095 100C33.0095 100 33.4895 100.12 34.1495 100.36C34.7495 100.66 35.5895 100.72 36.6695 100.6C37.0295 100.6 37.5095 100.48 38.1095 100.36C38.7095 100.3 39.3695 100.18 40.0895 100C40.8095 99.88 41.5295 99.76 42.3095 99.58C43.0295 99.46 43.6895 99.28 44.4095 99.1C44.2895 98.56 44.1095 98.02 43.9895 97.54C43.7495 97.06 43.5695 96.7 43.3895 96.46C43.0895 96.22 43.0295 95.98 43.2095 95.74C43.3295 95.62 43.5095 95.38 43.6895 95.02C43.8695 94.72 43.9895 94.48 44.0495 94.3C44.0495 94.18 43.9895 94 43.8695 93.76C43.6895 93.52 43.5695 93.22 43.5695 92.98C43.4495 92.74 43.5695 92.62 43.8695 92.5C44.1095 92.38 44.2895 92.26 44.4695 92.14C44.5895 92.02 44.6495 91.78 44.7695 91.42C44.7695 91.3 44.7695 91.18 44.8295 91C44.8295 90.88 44.7695 90.76 44.7695 90.58C43.3295 90.88 41.8895 91.18 40.3295 91.42C38.7695 91.78 37.2695 92.02 35.8895 92.26C34.4495 92.56 33.2495 92.8 32.2295 92.98C31.1495 93.22 30.4895 93.34 30.1895 93.4C29.7095 93.52 29.1695 93.58 28.6295 93.58C28.0295 93.7 27.4895 93.7 26.9495 93.7C26.3495 93.7 25.7495 93.64 25.2695 93.52C24.7295 93.46 24.2495 93.34 23.8895 93.1C23.0495 92.68 22.4495 92.26 21.9695 91.9C21.4895 91.6 21.0095 91.3 20.5895 91C20.3495 90.88 20.1695 90.7 20.1095 90.46C19.9895 90.28 19.9295 90.1 20.0495 89.86C20.0495 89.74 20.2295 89.56 20.4695 89.44C20.7095 89.32 21.0095 89.32 21.4895 89.44C22.2095 89.68 23.0495 89.74 24.0095 89.68C24.8495 89.68 25.8095 89.62 26.8895 89.5C27.2495 89.5 28.0895 89.44 29.4095 89.32C30.6095 89.2 32.0495 89.08 33.7295 88.9C35.3495 88.78 37.0895 88.6 38.9495 88.42C40.7495 88.3 42.4895 88.12 44.1095 87.94C45.6695 87.82 47.0495 87.64 48.1895 87.52C49.2695 87.4 49.9895 87.34 50.2895 87.34C50.7695 87.34 51.6095 87.22 52.8695 87.1C54.0695 86.98 55.3895 86.86 56.7695 86.68C58.0895 86.56 59.2895 86.44 60.3695 86.32C61.4495 86.26 62.0495 86.2 62.2895 86.2C62.4695 86.2 62.7095 86.08 62.9495 85.84C63.1895 85.6 63.4295 85.36 63.7895 85.12C64.0295 84.94 64.3895 84.76 64.7495 84.64C65.0495 84.58 65.4095 84.64 65.8895 84.88C66.2495 85.12 66.6695 85.42 67.1495 85.78C67.5695 86.14 67.9895 86.5 68.4695 86.8C68.8295 87.16 69.2495 87.46 69.6095 87.7C69.9095 88 70.1495 88.18 70.3895 88.3C70.5695 88.42 70.6895 88.66 70.8095 88.9C70.8695 89.2 70.8695 89.5 70.8695 89.74C70.7495 90.04 70.6295 90.28 70.5095 90.46C70.2695 90.7 70.0295 90.76 69.7895 90.7C69.3095 90.7 68.7095 90.64 67.9895 90.64C67.2095 90.7 66.4295 90.76 65.5895 90.88C64.6895 91 63.8495 91.18 63.0095 91.36C62.1695 91.6 61.4495 91.84 60.8495 92.2C59.9495 92.68 59.2895 92.8 58.8695 92.62C58.3895 92.5 58.5695 92.2 59.2895 91.6C59.5895 91.36 59.9495 91.06 60.3695 90.64C60.7295 90.28 61.0895 89.92 61.3895 89.56C61.6295 89.2 61.7495 88.9 61.8695 88.66C61.8695 88.42 61.7495 88.3 61.3895 88.3C61.0295 88.3 60.3095 88.36 59.3495 88.42C58.3295 88.54 57.2495 88.6 56.1095 88.72C54.9095 88.84 53.7095 88.96 52.6295 89.08C51.4895 89.26 50.5895 89.38 49.9895 89.5L47.4695 90.04C47.9495 90.76 48.3095 91.42 48.4295 91.96ZM57.9095 64C58.1495 64.24 58.2695 64.54 58.3295 64.78C58.3295 65.14 58.0295 65.5 57.4895 65.92C57.1895 66.16 57.0095 66.34 56.9495 66.46C56.8295 66.64 56.7095 66.76 56.7095 66.76C56.5895 66.88 56.5295 66.88 56.4695 66.88C56.3495 66.88 56.2295 66.88 55.9895 66.88C55.5095 66.88 55.0295 67.12 54.4295 67.66C53.8295 68.26 53.1695 68.86 52.4495 69.58C52.2095 69.76 51.9095 70 51.5495 70.36C51.1295 70.72 50.5895 71.2 49.9895 71.8C49.5095 72.28 48.9095 72.82 48.3095 73.3L51.1895 74.2C51.5495 74.32 52.1495 74.56 52.9895 74.8C53.7695 75.1 54.6095 75.4 55.5095 75.7C56.3495 76.06 57.1295 76.48 57.9095 76.84C58.6295 77.32 59.0495 77.74 59.2895 78.1C59.6495 78.94 60.0095 79.66 60.2495 80.2C60.4295 80.8 60.4895 81.46 60.4895 82.3C60.4895 82.72 60.3695 83.08 60.2495 83.38C60.0695 83.74 59.8895 84.04 59.7095 84.16C59.4695 84.4 59.1695 84.46 58.9295 84.34C58.6295 84.28 58.3295 83.98 58.0895 83.5C57.7895 83.02 57.3695 82.48 56.8295 81.82C56.2295 81.22 55.6295 80.62 54.9095 79.96C54.1895 79.36 53.4095 78.7 52.6295 78.1C51.7895 77.56 51.0095 77.08 50.2895 76.6L46.3295 74.8C45.2495 75.64 44.1695 76.42 43.0295 77.2C41.8295 78.04 40.7495 78.76 39.7895 79.42C38.7095 80.14 37.8695 80.74 37.2095 81.22C36.4895 81.76 36.0095 82.12 35.8895 82.3C35.1095 83.32 34.3895 84.04 33.6695 84.4C32.9495 84.82 32.3495 85.12 31.9895 85.3C31.7495 85.42 31.5095 85.48 31.2695 85.48C30.9095 85.54 30.6695 85.54 30.4295 85.42C30.1895 85.42 30.0095 85.3 29.8895 85.12C29.7695 85 29.7695 84.76 29.8895 84.4C30.0095 83.98 30.3095 83.56 30.8495 83.2C31.3295 82.9 31.9295 82.36 32.6495 81.52C32.8895 81.22 33.1295 80.92 33.3695 80.68C33.4895 80.44 33.6695 80.2 33.7895 79.96C33.9095 79.72 34.0295 79.48 34.1495 79.18C34.2695 78.94 34.3895 78.64 34.5695 78.22C34.8695 77.44 35.1695 76.96 35.4095 76.84C35.5895 76.72 35.6495 76.96 35.5895 77.5C35.4695 77.74 35.4095 78.04 35.4095 78.34C35.3495 78.7 35.3495 78.94 35.4695 79.06C35.4695 79.3 35.5895 79.36 35.7695 79.3C35.8895 79.3 36.1895 79.12 36.5495 78.7C36.7895 78.46 37.2095 78.1 37.6895 77.62C38.1095 77.26 38.5895 76.78 39.1895 76.3C39.7295 75.82 40.3295 75.34 40.9295 74.8C41.5295 74.32 42.1295 73.78 42.7295 73.24C42.0095 73 41.4695 72.76 41.0495 72.52C40.5695 72.34 40.2095 72.22 40.0895 72.1C39.8495 71.98 39.6695 71.86 39.5495 71.68C39.4295 71.56 39.3695 71.44 39.4295 71.32C39.4295 71.2 39.5495 71.14 39.7895 71.08C39.9695 71.08 40.2695 71.08 40.6895 71.2L43.9895 72.1C44.5295 71.62 45.0095 71.2 45.3695 70.72C45.6095 70.42 45.9695 70.12 46.3895 69.82C46.7495 69.58 47.0495 69.34 47.2895 69.1C48.3095 68.08 48.9095 67.3 49.0895 66.7C49.2095 66.22 48.8495 66.1 48.0695 66.4C47.2895 66.76 46.5095 66.94 45.7895 67C44.9495 67.12 44.2895 67.3 43.6895 67.48C43.3295 67.6 42.9095 67.66 42.3695 67.78C41.7695 67.96 41.2295 68.14 40.6895 68.26C40.0895 68.5 39.5495 68.68 39.0695 68.86C38.5295 69.1 38.1695 69.28 37.9295 69.4C37.3295 69.76 36.8495 69.82 36.4895 69.7C36.0095 69.64 35.6495 69.46 35.2895 69.1C34.8095 68.74 34.2695 68.32 33.6695 67.72C33.0095 67.24 32.5895 66.76 32.4095 66.34C32.1695 65.98 32.1695 65.68 32.2895 65.56C32.3495 65.44 32.7695 65.44 33.4895 65.5C33.7295 65.5 34.2695 65.5 34.9895 65.44C35.7095 65.44 36.4295 65.44 37.2695 65.38C38.0495 65.38 38.8295 65.32 39.6095 65.26C40.3295 65.26 40.8095 65.2 41.1695 65.2C41.7695 65.2 42.3695 65.14 42.9695 65.08C43.5695 65.08 43.9895 65.02 44.2895 64.9C44.4095 64.9 44.7095 64.84 45.1895 64.78C45.6095 64.78 46.0895 64.72 46.6895 64.6C47.1695 64.6 47.7095 64.48 48.2495 64.36C48.7295 64.3 49.1495 64.18 49.3895 64.06C49.8095 63.88 50.1695 63.64 50.4695 63.34C50.7095 63.1 50.8895 62.8 51.0095 62.5C51.1895 62.2 51.4895 62.08 51.9095 62.2C52.2695 62.32 52.7495 62.44 53.2895 62.5C53.7095 62.62 54.1895 62.74 54.6695 62.86C55.1495 63.04 55.5695 63.1 56.0495 63.1C56.4695 63.1 56.8295 63.16 57.1295 63.34C57.3695 63.58 57.6695 63.82 57.9095 64Z" fill="white"/>
<rect x="90.5" y="0.5" width="90" height="120" fill="#F6C500"/>
<rect x="90.5" y="0.5" width="90" height="120" stroke="black"/>
<path d="M129.011 49C129.791 49.12 130.631 49.24 131.531 49.48C132.371 49.78 133.151 50.2 133.931 50.74C134.651 51.34 135.311 52 135.851 52.84C136.331 53.74 136.571 54.82 136.691 56.02C136.691 56.62 136.691 56.98 136.691 57.22C136.631 57.46 136.571 57.64 136.571 57.76C136.451 57.88 136.391 58 136.331 58C136.211 58.06 136.091 58.12 136.091 58.24C136.031 58.36 136.031 58.48 136.091 58.48C136.091 58.6 136.151 58.66 136.271 58.78C136.271 58.9 136.331 59.08 136.391 59.26C136.391 59.5 136.391 59.86 136.271 60.22C135.911 61.36 135.491 62.56 134.951 63.76C134.351 65.08 133.451 66.1 132.311 66.88C131.711 67.36 130.991 67.72 130.271 67.9C129.491 68.14 128.771 68.32 128.051 68.38C127.271 68.5 126.611 68.5 126.011 68.5C125.351 68.5 124.871 68.5 124.511 68.5C123.551 68.38 122.651 68.14 121.811 67.78C120.851 67.48 120.071 67.18 119.411 66.82C118.211 66.22 117.371 65.38 116.771 64.3C116.171 63.28 115.751 62.2 115.571 61.06C115.331 59.98 115.331 58.84 115.451 57.76C115.571 56.74 115.751 55.9 116.111 55.18C116.411 54.4 116.891 53.56 117.611 52.66C118.211 51.82 119.111 51.1 120.191 50.38C119.951 49.78 119.771 49.12 119.531 48.52C119.291 47.98 119.051 47.56 118.811 47.26C118.571 47.02 118.391 46.78 118.391 46.54C118.331 46.3 118.391 46.12 118.511 45.94C118.631 45.82 118.811 45.7 119.051 45.64C119.231 45.64 119.471 45.76 119.771 45.94C120.011 46.12 120.251 46.24 120.491 46.36C120.671 46.54 120.911 46.66 121.151 46.78C121.391 46.9 121.631 47.02 121.991 47.14C122.231 47.32 122.591 47.5 123.071 47.68C123.431 47.92 123.731 48.22 124.031 48.58C124.271 49 124.511 49.42 124.691 49.9C125.171 49.72 125.771 49.48 126.551 49.24C127.271 49.06 128.051 49 129.011 49ZM152.831 44.44C152.831 44.8 152.771 45.22 152.771 45.76C152.711 46.36 152.711 47.02 152.711 47.62C152.651 48.28 152.651 48.88 152.651 49.42C152.591 50.02 152.591 50.5 152.591 50.8C152.591 51.46 152.591 52 152.651 52.48C152.651 53.02 152.651 53.5 152.651 53.98C152.651 54.52 152.651 55.06 152.711 55.6C152.711 56.2 152.711 56.92 152.711 57.7C152.711 58.3 152.711 58.96 152.771 59.68C152.771 60.46 152.771 61.18 152.771 61.9C152.771 62.68 152.771 63.4 152.771 64.06C152.711 64.78 152.711 65.44 152.711 65.92C152.591 68.08 152.591 69.82 152.591 71.26C152.531 72.76 152.531 73.78 152.531 74.32C152.531 75.28 152.411 76.3 152.291 77.44C152.051 78.58 151.871 79.72 151.631 80.8C151.331 81.88 151.031 82.84 150.791 83.74C150.431 84.58 150.191 85.24 149.951 85.6C149.711 85.96 149.411 86.38 149.171 86.8C148.811 87.16 148.571 87.4 148.331 87.58C148.031 87.7 147.851 87.64 147.731 87.4C147.611 87.1 147.611 86.5 147.791 85.6C147.911 84.7 148.031 83.32 148.151 81.46C148.151 79.54 148.211 77.5 148.271 75.28C148.271 73.12 148.271 70.96 148.271 68.8C148.211 66.7 148.211 64.96 148.211 63.64C148.271 62.62 148.271 61.54 148.211 60.46C148.091 59.38 148.091 58.12 148.091 56.56C148.031 55.6 148.031 54.58 148.031 53.5C147.971 52.48 147.971 51.52 147.971 50.68C147.971 49.9 147.971 49.24 147.971 48.7C147.971 48.22 147.971 47.92 148.031 47.86C148.151 47.74 148.331 47.62 148.511 47.62C148.631 47.62 148.691 47.5 148.811 47.2C148.811 47.08 148.811 46.9 148.751 46.78C148.631 46.66 148.571 46.54 148.511 46.36C148.391 46.24 148.271 46.06 148.211 45.82C148.091 45.64 148.091 45.4 148.151 45.04C148.211 44.62 148.271 44.14 148.271 43.54C148.211 43.06 148.211 42.52 148.211 41.92C148.151 40.72 148.151 39.82 148.271 39.16C148.271 38.56 148.271 38.02 148.211 37.42C148.151 37 148.151 36.52 148.151 35.98C148.091 35.5 147.851 35.08 147.371 34.66C146.891 34.3 146.471 34.06 146.051 33.88C145.571 33.76 145.211 33.58 144.851 33.34C144.611 33.22 144.491 33.1 144.491 32.86C144.431 32.68 144.491 32.5 144.611 32.26C144.671 32.14 144.851 31.96 145.091 31.84C145.331 31.78 145.631 31.78 146.051 31.9C146.231 32.02 146.591 32.08 147.191 32.2C147.671 32.38 148.271 32.56 148.991 32.68C149.591 32.92 150.251 33.1 150.911 33.22C151.511 33.4 151.991 33.52 152.411 33.58C152.951 33.76 153.371 33.94 153.731 34.06C154.031 34.3 154.091 34.66 153.911 35.26C153.671 35.92 153.491 36.58 153.311 37.3C153.071 38.08 152.951 38.86 152.951 39.7C152.951 40.24 152.891 40.96 152.891 41.92C152.831 42.88 152.831 43.72 152.831 44.44ZM123.851 53.56C123.311 54.04 122.891 54.28 122.531 54.34C122.111 54.46 121.751 54.46 121.511 54.34C120.911 54.4 120.431 54.76 120.131 55.42C119.771 56.14 119.531 56.74 119.471 57.34C119.351 58.06 119.351 58.72 119.411 59.38C119.411 60.1 119.591 60.7 119.891 61.3C120.131 61.9 120.491 62.44 121.091 62.92C121.631 63.4 122.411 63.76 123.371 64C124.571 64.36 125.651 64.42 126.731 64.3C127.691 64.18 128.651 63.94 129.551 63.58C130.691 62.68 131.411 61.66 131.771 60.46C132.071 59.38 132.251 58.12 132.371 56.8C132.431 55.42 132.071 54.22 131.351 53.14C130.571 52.12 129.551 51.46 128.231 51.22C127.751 51.16 127.211 51.16 126.611 51.16C125.951 51.22 125.411 51.22 124.931 51.22C124.931 52.18 124.571 52.96 123.851 53.56Z" fill="white"/>
<rect x="180.5" y="0.5" width="90" height="120" fill="#F6C500"/>
<rect x="180.5" y="0.5" width="90" height="120" stroke="black"/>
<path d="M213.251 58.54C213.491 58.6 213.731 58.6 213.971 58.6C214.211 58.66 214.451 58.72 214.691 58.78L220.871 49.12C221.051 48.82 221.111 48.58 221.051 48.4C220.931 48.28 220.691 48.22 220.391 48.28C220.031 48.52 219.731 48.7 219.491 48.82C219.131 49 218.831 49.12 218.471 49.24C218.231 49.36 217.871 49.48 217.451 49.6C216.971 49.84 216.671 50.14 216.491 50.5C216.371 50.74 216.131 50.92 215.831 51.1C215.471 51.34 215.111 51.58 214.751 51.76C214.271 52 213.851 52.12 213.371 52.18C212.891 52.3 212.411 52.3 211.991 52.18C211.511 52.06 211.091 51.88 210.671 51.52C210.191 51.22 209.711 50.86 209.291 50.5C208.811 50.14 208.451 49.78 208.091 49.42C207.731 49.12 207.431 48.88 207.191 48.7C206.711 48.4 206.591 48.16 206.711 47.92C206.831 47.74 207.071 47.68 207.491 47.74C207.671 47.74 208.031 47.8 208.571 47.8C209.051 47.86 209.531 47.86 210.131 47.86C210.671 47.92 211.211 47.92 211.811 47.86C212.351 47.86 212.831 47.86 213.191 47.74C213.611 47.62 214.091 47.56 214.691 47.68C215.231 47.8 215.591 47.86 215.771 47.86C215.951 47.86 216.311 47.74 216.791 47.38C217.211 47.08 217.751 46.78 218.471 46.54L221.591 45.4C222.071 45.28 222.431 45.1 222.671 44.74C222.671 44.68 222.731 44.56 222.791 44.38C222.791 44.26 222.911 44.14 223.031 44.02C223.151 43.9 223.331 43.84 223.571 43.78C223.751 43.78 224.111 43.78 224.591 43.9C225.551 44.14 226.331 44.44 226.991 44.68C227.591 44.98 228.131 45.22 228.491 45.4C228.611 45.52 228.731 45.64 228.851 45.88C228.851 46.12 228.851 46.36 228.851 46.6C228.791 46.9 228.671 47.2 228.551 47.44C228.371 47.74 228.131 47.98 227.891 48.1C227.351 48.4 226.931 48.76 226.571 49.18C226.151 49.66 225.791 50.08 225.491 50.5L218.411 59.68C219.011 59.86 219.671 60.04 220.271 60.16C220.811 60.34 221.351 60.52 221.951 60.7C223.331 61.18 224.711 61.72 226.091 62.38C227.411 63.1 228.731 64.06 229.991 65.2C230.711 65.92 231.371 66.58 232.031 67.3C232.631 68.08 232.871 69.1 232.691 70.3C232.571 70.9 232.391 71.32 232.211 71.56C231.971 71.86 231.791 72.04 231.551 72.16C231.311 72.28 231.071 72.4 230.891 72.4C230.651 72.46 230.411 72.58 230.291 72.7C230.111 72.88 229.871 72.94 229.631 72.94C229.331 73 229.091 73 228.851 72.88C228.551 72.82 228.311 72.7 228.131 72.46C227.891 72.34 227.831 72.1 227.891 71.74C227.891 71.5 227.891 71.2 227.891 70.96C227.831 70.78 227.771 70.6 227.771 70.42C227.651 70.3 227.591 70.12 227.591 69.94C227.531 69.82 227.531 69.64 227.591 69.4C227.651 68.98 227.711 68.62 227.771 68.38C227.771 68.2 227.591 67.96 227.291 67.6C226.271 66.52 225.071 65.62 223.691 64.78C222.251 64 220.991 63.34 219.791 62.8C219.311 62.68 218.831 62.5 218.291 62.38C217.691 62.32 217.151 62.2 216.551 62.08L216.491 62.2C215.891 62.98 215.231 63.88 214.451 64.84C213.611 65.92 212.831 66.88 212.111 67.78C211.271 68.74 210.611 69.58 210.011 70.3C209.351 71.08 208.931 71.56 208.691 71.8C208.031 72.4 207.311 72.76 206.531 72.94C205.691 73.18 204.971 73.24 204.491 73C203.891 72.76 203.411 72.58 202.991 72.34C202.511 72.16 202.211 71.98 202.091 71.74C201.911 71.62 201.911 71.38 202.031 71.14C202.151 70.9 202.331 70.84 202.691 70.9C202.991 71.02 203.471 71.08 204.071 71.08C204.671 71.14 205.271 70.9 205.991 70.3C206.351 70.06 206.771 69.64 207.371 68.92C207.911 68.32 208.511 67.54 209.231 66.7C209.831 65.86 210.491 65.02 211.151 64.06C211.751 63.16 212.351 62.32 212.951 61.48C212.531 61.42 212.171 61.3 211.931 61.18C211.571 61.12 211.331 61 211.151 60.88C211.031 60.82 210.971 60.76 210.971 60.7C210.971 60.7 210.851 60.7 210.611 60.76C210.371 60.82 210.131 60.88 209.891 60.88C209.591 60.94 209.351 60.94 209.171 60.82C208.931 60.7 208.871 60.58 208.871 60.46C208.871 60.4 208.691 60.34 208.451 60.28C208.151 60.28 207.911 60.28 207.671 60.28C207.431 60.34 207.131 60.34 206.771 60.22C206.351 60.16 206.111 60.04 206.111 59.86C206.051 59.74 206.291 59.62 206.831 59.44C207.191 59.32 207.731 59.14 208.331 58.96C208.931 58.84 209.531 58.78 210.131 58.66C210.731 58.6 211.271 58.54 211.871 58.48C212.411 58.48 212.891 58.54 213.251 58.54ZM243.431 44.44C243.431 44.8 243.371 45.22 243.371 45.76C243.311 46.36 243.311 47.02 243.311 47.62C243.251 48.28 243.251 48.88 243.251 49.42C243.191 50.02 243.191 50.5 243.191 50.8C243.191 51.46 243.191 52 243.251 52.48C243.251 53.02 243.251 53.5 243.251 53.98C243.251 54.52 243.251 55.06 243.311 55.6C243.311 56.2 243.311 56.92 243.311 57.7C243.311 58.3 243.311 58.96 243.371 59.68C243.371 60.46 243.371 61.18 243.371 61.9C243.371 62.68 243.371 63.4 243.371 64.06C243.311 64.78 243.311 65.44 243.311 65.92C243.191 68.08 243.191 69.82 243.191 71.26C243.131 72.76 243.131 73.78 243.131 74.32C243.131 75.28 243.011 76.3 242.891 77.44C242.651 78.58 242.471 79.72 242.231 80.8C241.931 81.88 241.631 82.84 241.391 83.74C241.031 84.58 240.791 85.24 240.551 85.6C240.311 85.96 240.011 86.38 239.771 86.8C239.411 87.16 239.171 87.4 238.931 87.58C238.631 87.7 238.451 87.64 238.331 87.4C238.211 87.1 238.211 86.5 238.391 85.6C238.511 84.7 238.631 83.32 238.751 81.46C238.751 79.54 238.811 77.5 238.871 75.28C238.871 73.12 238.871 70.96 238.871 68.8C238.811 66.7 238.811 64.96 238.811 63.64C238.871 62.62 238.871 61.54 238.811 60.46C238.691 59.38 238.691 58.12 238.691 56.56C238.631 55.6 238.631 54.58 238.631 53.5C238.571 52.48 238.571 51.52 238.571 50.68C238.571 49.9 238.571 49.24 238.571 48.7C238.571 48.22 238.571 47.92 238.631 47.86C238.751 47.74 238.931 47.62 239.111 47.62C239.231 47.62 239.291 47.5 239.411 47.2C239.411 47.08 239.411 46.9 239.351 46.78C239.231 46.66 239.171 46.54 239.111 46.36C238.991 46.24 238.871 46.06 238.811 45.82C238.691 45.64 238.691 45.4 238.751 45.04C238.811 44.62 238.871 44.14 238.871 43.54C238.811 43.06 238.811 42.52 238.811 41.92C238.751 40.72 238.751 39.82 238.871 39.16C238.871 38.56 238.871 38.02 238.811 37.42C238.751 37 238.751 36.52 238.751 35.98C238.691 35.5 238.451 35.08 237.971 34.66C237.491 34.3 237.071 34.06 236.651 33.88C236.171 33.76 235.811 33.58 235.451 33.34C235.211 33.22 235.091 33.1 235.091 32.86C235.031 32.68 235.091 32.5 235.211 32.26C235.271 32.14 235.451 31.96 235.691 31.84C235.931 31.78 236.231 31.78 236.651 31.9C236.831 32.02 237.191 32.08 237.791 32.2C238.271 32.38 238.871 32.56 239.591 32.68C240.191 32.92 240.851 33.1 241.511 33.22C242.111 33.4 242.591 33.52 243.011 33.58C243.551 33.76 243.971 33.94 244.331 34.06C244.631 34.3 244.691 34.66 244.511 35.26C244.271 35.92 244.091 36.58 243.911 37.3C243.671 38.08 243.551 38.86 243.551 39.7C243.551 40.24 243.491 40.96 243.491 41.92C243.431 42.88 243.431 43.72 243.431 44.44Z" fill="white"/>
</svg>
