<svg width="361" height="181" viewBox="0 0 361 181" fill="none" xmlns="http://www.w3.org/2000/svg">
<rect x="0.5" y="0.5" width="90" height="120" fill="#F6C500"/>
<rect x="0.5" y="0.5" width="90" height="120" stroke="black"/>
<path d="M37.4117 42.7C38.1317 42.82 38.9717 43 39.8117 43.24C40.6517 43.6 41.4317 44.02 42.1517 44.56C42.8717 45.16 43.4717 45.94 44.0117 46.78C44.4917 47.68 44.7917 48.7 44.9117 49.9C44.9117 50.44 44.9117 50.8 44.9117 51.04C44.8517 51.34 44.7917 51.52 44.7317 51.58C44.6117 51.7 44.5517 51.82 44.4917 51.82C44.3717 51.88 44.3117 51.94 44.3117 52.06C44.2517 52.18 44.2517 52.3 44.3717 52.36C44.3717 52.48 44.4317 52.6 44.5517 52.72C44.6117 52.9 44.6717 53.08 44.7317 53.32C44.7317 53.62 44.7317 53.98 44.6117 54.4C44.2517 55.66 43.7717 56.74 43.1117 57.7C42.3917 58.66 41.4917 59.56 40.4717 60.4C39.8717 60.88 39.2117 61.18 38.5517 61.36C37.8317 61.6 37.1117 61.78 36.5117 61.84C35.7917 61.96 35.1917 61.96 34.6517 61.9C34.0517 61.9 33.5717 61.9 33.2117 61.9C32.3717 61.84 31.5317 61.66 30.6917 61.3C29.7917 61 29.0117 60.64 28.4117 60.28C27.4517 59.68 26.6717 58.9 26.0717 57.94C25.4717 57.04 25.0517 56.02 24.8117 54.94C24.5717 53.92 24.4517 52.84 24.5717 51.76C24.5717 50.74 24.7517 49.84 25.1117 49C25.4117 48.22 25.8917 47.38 26.5517 46.48C27.1517 45.64 27.9917 44.92 29.0717 44.2C28.8917 43.6 28.7117 42.94 28.4717 42.34C28.2317 41.8 27.9917 41.38 27.7517 41.08C27.2717 40.6 27.1517 40.12 27.5117 39.76C27.7517 39.46 28.1717 39.46 28.6517 39.76C29.1317 40.12 29.6117 40.36 29.9717 40.54C30.3317 40.78 30.9317 41.14 31.7717 41.5C32.4917 41.92 33.0317 42.64 33.3917 43.66C33.8117 43.42 34.4117 43.18 35.1317 42.94C35.7917 42.76 36.5717 42.7 37.4117 42.7ZM71.3117 51.1C71.3117 51.28 71.3717 51.46 71.4317 51.64C71.4317 51.88 71.4917 52.12 71.4917 52.3C71.4917 52.54 71.4317 52.72 71.3117 52.84C71.1317 53.02 70.8917 53.14 70.5917 53.2C69.9317 53.44 69.0917 53.5 68.1317 53.5C67.0517 53.5 66.2117 53.5 65.5517 53.38C65.2517 53.38 64.8317 53.38 64.2917 53.38C63.6917 53.44 63.1517 53.5 62.5517 53.5C61.9517 53.56 61.3517 53.62 60.8117 53.62C60.2117 53.74 59.7917 53.8 59.5517 53.8C59.4917 53.8 59.4917 53.8 59.4917 53.8C59.4317 53.86 59.3717 53.86 59.3717 53.86V54.16C59.3117 54.82 59.2517 55.42 59.2517 55.9C59.1917 56.5 59.1317 56.98 59.1317 57.34C59.0717 57.82 58.9517 58.3 58.8317 58.84C58.5917 59.44 58.4117 60.04 58.1717 60.58C57.8717 61.18 57.6317 61.66 57.3917 62.08C57.0917 62.56 56.8517 62.92 56.6117 63.1C56.3717 63.34 56.0717 63.52 55.8317 63.64C55.4717 63.88 55.2317 64 54.9917 64C54.6917 64.12 54.5117 64.06 54.3917 63.94C54.2717 63.82 54.2717 63.58 54.4517 63.1C54.5717 62.74 54.6317 62.26 54.6917 61.54C54.6917 60.94 54.7517 60.16 54.8117 59.32C54.8117 58.48 54.8717 57.64 54.8717 56.68C54.8117 55.84 54.8117 55 54.8117 54.16C54.7517 53.38 54.7517 52.6 54.7517 51.76C54.6917 50.98 54.6917 50.26 54.6917 49.6C54.6917 49 54.6917 48.46 54.6917 47.98C54.6917 47.62 54.6917 47.38 54.7517 47.32C54.8717 47.14 55.0517 47.02 55.2317 47.02C55.3517 47.08 55.4117 46.96 55.5317 46.66C55.5317 46.54 55.5317 46.36 55.4717 46.24C55.3517 46.12 55.2917 46 55.2317 45.82C55.1117 45.7 54.9917 45.52 54.9317 45.28C54.8117 45.1 54.8117 44.86 54.8717 44.5C54.9317 44.08 54.9917 43.6 54.9917 43C54.9917 42.52 54.9917 41.98 54.9917 41.38C54.9317 40.78 54.9317 40.3 54.9317 39.88C54.9317 39.52 54.9317 39.22 54.9917 38.92C54.9917 38.68 54.9917 38.38 54.9917 38.14C54.9917 37.96 54.9917 37.72 54.9917 37.42C54.8717 37 54.8717 36.52 54.8717 35.98C54.8117 35.5 54.5717 35.08 54.0917 34.66C53.6117 34.3 53.1917 34.06 52.8317 33.88C52.3517 33.76 51.9317 33.58 51.5717 33.34C51.3317 33.22 51.2117 33.1 51.2117 32.86C51.1517 32.68 51.2117 32.5 51.3317 32.26C51.3917 32.14 51.5717 31.96 51.8117 31.84C52.0517 31.78 52.3517 31.78 52.7717 31.9C53.0117 32.02 53.3717 32.14 53.9717 32.26C54.4517 32.44 55.0517 32.62 55.7117 32.74C56.3117 32.98 56.9717 33.16 57.6317 33.28C58.2317 33.46 58.7717 33.58 59.1317 33.64C59.6717 33.82 60.0917 34 60.4517 34.12C60.7517 34.36 60.8117 34.72 60.6317 35.32C60.3917 35.98 60.2117 36.64 60.0317 37.36C59.7917 38.14 59.6717 38.92 59.6717 39.76C59.6717 40.3 59.6717 41.02 59.6717 41.98C59.6117 42.94 59.6117 43.78 59.6117 44.5C59.5517 44.86 59.4917 45.28 59.4917 45.82C59.4317 46.42 59.4317 47.08 59.4317 47.68C59.3717 48.34 59.3717 48.94 59.3717 49.54C59.3117 50.14 59.3117 50.62 59.3117 50.86V51.64C59.5517 51.58 59.7317 51.52 59.9717 51.52C60.1517 51.52 60.3317 51.52 60.5717 51.4C61.0517 51.28 61.4117 51.22 61.7717 51.1C62.0117 51.04 62.2517 50.98 62.4917 50.86C62.6117 50.86 62.7917 50.74 63.0317 50.62C63.1517 50.56 63.3917 50.44 63.6317 50.32C64.1117 50.08 64.5917 49.9 65.0717 49.72C65.4917 49.6 65.9717 49.54 66.4517 49.66C66.9917 49.78 67.5317 49.78 68.0717 49.66C68.5517 49.6 68.9117 49.54 69.2117 49.54C69.6917 49.54 70.1117 49.66 70.5917 49.9C70.9517 50.26 71.1917 50.62 71.3117 51.1ZM58.7717 76.96C59.1917 77.2 59.4317 77.56 59.4917 78.04C59.4917 78.52 59.4917 79 59.4317 79.6C59.3117 80.32 59.0717 81.04 58.7117 81.76C58.2917 82.42 57.8117 83.08 57.2717 83.74C56.6717 84.34 56.1317 84.88 55.5317 85.42C54.9317 85.9 54.3917 86.26 53.9117 86.56C52.9517 87.1 51.9917 87.4 51.0317 87.46C49.9517 87.46 49.1717 87.46 48.5717 87.4C47.9717 87.28 47.4917 86.86 47.0117 86.08C46.4717 85.24 46.1717 84.34 46.1117 83.44C45.9917 82.84 46.0517 82.18 46.1717 81.58C46.2317 80.86 46.2917 80.38 46.4117 80.08C46.4717 79.72 46.5917 79.48 46.7117 79.36C46.8317 79.18 47.0717 79.06 47.5517 79C47.9717 78.88 48.2717 78.82 48.4517 78.7C48.5717 78.52 48.7517 78.22 48.9317 77.8C48.9917 77.56 49.1117 77.32 49.2317 76.96C49.3517 76.72 49.4717 76.42 49.5917 76.12C48.5117 75.94 47.7317 75.7 47.1317 75.4C46.3517 75.1 45.6917 74.74 45.0917 74.32C44.4917 73.96 44.0717 73.48 43.8917 72.88C43.6517 72.4 43.6517 72.04 43.8917 71.86C44.0717 71.74 44.4317 71.74 44.9717 71.98C45.3317 72.1 45.9917 72.16 46.8317 72.16C47.6117 72.22 48.2117 72.28 48.6317 72.28C49.1117 72.28 49.7717 72.28 50.6117 72.22C51.3317 72.22 52.1717 72.1 53.0117 71.98C53.8517 71.92 54.6317 71.8 55.4717 71.68C56.1917 71.56 56.8517 71.44 57.3917 71.32C57.7517 71.2 58.2317 71.14 58.7717 71.14C59.2517 71.2 59.7317 71.44 60.3317 71.86C60.5717 72.1 60.9317 72.28 61.2917 72.4C61.6517 72.58 61.8917 72.76 62.1317 72.88C62.2517 73.12 62.3117 73.3 62.1917 73.48C62.0717 73.72 61.6517 73.9 60.9917 74.14C59.9717 74.56 59.0117 74.92 58.1117 75.16C57.1517 75.46 56.3717 75.7 55.7717 75.88C56.0117 76 56.4917 76.12 57.2117 76.3C57.8717 76.54 58.4117 76.78 58.7717 76.96ZM32.5517 47.32C31.7117 48.16 30.9917 48.4 30.3917 48.1C30.0317 48.1 29.7917 48.22 29.6117 48.34C29.3717 48.58 29.1317 48.82 29.0117 49.06C28.8317 49.42 28.7117 49.72 28.6517 50.02C28.5317 50.38 28.4117 50.74 28.4117 51.04C28.2917 51.76 28.2917 52.42 28.4117 53.08C28.4117 53.8 28.5917 54.4 28.8917 55C29.1317 55.6 29.4917 56.14 30.0917 56.62C30.6317 57.1 31.3517 57.46 32.3117 57.7C33.4517 58.06 34.4717 58.12 35.3117 57.88C36.0917 57.76 36.8717 57.46 37.7117 57.1C38.7917 56.2 39.5117 55.18 39.8717 54.1C40.2317 53.08 40.4117 51.94 40.5317 50.62C40.5917 49.3 40.2917 48.1 39.5717 47.02C38.8517 46.06 37.8317 45.4 36.5717 45.1C36.0917 45.04 35.6117 44.98 35.0717 44.98C34.4717 45.04 33.9917 45.04 33.5717 45.04C33.5717 45.52 33.4517 45.88 33.3317 46.24C33.1517 46.66 32.9117 47.02 32.5517 47.32ZM44.5517 82.24C44.7317 82.3 45.0317 82.48 45.3917 82.78C45.6917 83.02 45.9317 83.32 46.0517 83.68C46.1117 83.98 45.9917 84.28 45.6917 84.64C45.3317 84.94 44.5517 85.18 43.4117 85.42C43.1717 85.42 42.8717 85.42 42.5117 85.54C41.7917 85.72 41.3117 85.84 41.0117 85.96C40.6517 86.02 40.3517 86.08 40.0517 86.2C39.6317 86.26 39.1517 86.38 38.6717 86.56C38.1317 86.68 37.6517 86.8 37.1717 86.98C36.6317 87.1 36.1517 87.28 35.7317 87.4C35.2517 87.52 34.9517 87.58 34.7117 87.58C34.4717 87.58 34.2317 87.52 33.9317 87.4C33.5717 87.22 33.2717 86.98 33.0317 86.74C32.6717 86.38 32.4317 86.02 32.2517 85.6C32.0117 85.12 31.8917 84.64 31.8917 84.1C31.8917 83.08 31.8917 82.18 31.9517 81.46C31.9517 80.68 32.0117 80.02 32.0717 79.42C32.0717 78.82 32.1317 78.28 32.1917 77.8C32.1917 77.32 32.2517 76.84 32.3117 76.36C32.4317 75.88 32.4917 75.34 32.4917 74.74C32.4917 74.14 32.4917 73.54 32.6117 72.94C32.6717 71.98 32.5517 71.26 32.2517 70.72C31.8917 70.24 31.5317 69.88 31.1117 69.7C30.8117 69.64 30.6917 69.46 30.8117 69.1C30.8717 68.8 31.2917 68.62 32.0117 68.62C32.7317 68.62 33.5117 68.68 34.4117 68.8C35.2517 68.98 35.7917 69.16 36.0917 69.34C36.3317 69.52 36.6317 69.82 36.9317 70.18C37.1717 70.6 37.2317 71.2 36.9917 71.98C36.7517 73.3 36.5717 74.2 36.5117 74.74C36.3917 75.34 36.3317 75.82 36.3317 76.18C36.2117 77.62 36.1517 78.76 36.1517 79.72C36.0917 80.62 36.0917 81.4 36.0917 82C36.0917 82.54 36.0917 82.96 36.1517 83.26C36.1517 83.5 36.1517 83.68 36.2117 83.8C36.2117 83.92 36.3317 83.98 36.4517 84.1C36.5717 84.1 36.6917 84.16 36.8717 84.16C36.9917 84.16 37.1717 84.16 37.2917 84.16C37.3517 84.16 37.3517 84.16 37.3517 84.16C37.6517 84.1 38.0717 84.04 38.6117 84.04C39.0917 83.98 39.5717 83.92 40.1717 83.92C40.2917 83.8 40.4717 83.8 40.5917 83.8C40.7117 83.74 40.7717 83.68 40.8917 83.62C41.3717 83.38 41.7317 83.08 42.0317 82.66C42.2717 82.18 42.4517 81.88 42.6317 81.82C42.7517 81.7 42.9917 81.7 43.4117 81.82C43.7717 81.88 44.1917 82 44.5517 82.24ZM49.5317 81.94C49.4117 82.42 49.5317 82.84 49.7717 83.14C50.0117 83.38 50.3117 83.56 50.6717 83.68C50.9717 83.74 51.3317 83.74 51.7517 83.74C52.1117 83.62 52.4717 83.5 52.7117 83.38C52.9517 83.2 53.2517 83.02 53.6117 82.9C53.9117 82.72 54.2117 82.54 54.5117 82.3C54.7517 82 54.9917 81.64 55.2317 81.28C55.4117 80.86 55.5317 80.32 55.5317 79.66C55.5317 79 55.4117 78.52 55.2317 78.28C54.9917 77.92 54.6917 77.74 54.3917 77.68C54.0317 77.56 53.6717 77.56 53.3117 77.68C52.8917 77.74 52.5317 77.8 52.1717 77.86C51.6917 77.92 51.4517 77.98 51.3317 78.04C51.1517 78.04 50.9117 78.1 50.6117 78.16C50.2517 78.22 50.0717 78.64 49.9517 79.36C49.8317 80.02 49.6517 80.86 49.5317 81.94ZM48.8117 65.74C49.0517 65.98 49.2917 66.16 49.4717 66.28C49.5917 66.52 49.8917 66.58 50.3717 66.58C50.7917 66.58 51.2117 66.52 51.6917 66.4C52.0517 66.34 52.5317 66.28 53.1317 66.28C53.6117 66.28 54.1517 66.34 54.7517 66.4C55.2917 66.52 55.7117 66.64 56.0717 66.64C56.4317 66.64 56.6717 66.88 56.7917 67.24C56.8517 67.72 56.8517 68.08 56.7317 68.32C56.6117 68.62 56.3717 68.92 55.8917 69.22C55.4117 69.58 54.9317 69.82 54.5117 70C54.2717 70.12 53.9717 70.12 53.6117 70.06C53.1317 70.06 52.7117 70.06 52.2917 69.94C51.8117 69.94 51.3917 69.82 51.0317 69.7C50.6117 69.64 50.3117 69.52 50.1917 69.4C49.6517 68.92 49.2317 68.38 48.9917 67.84C48.6317 67.36 48.3917 66.94 48.2717 66.58C48.1517 66.28 48.1517 66.04 48.3317 65.8C48.4517 65.68 48.6317 65.62 48.8117 65.74Z" fill="white"/>
<rect x="90.5" y="0.5" width="90" height="120" fill="#F6C500"/>
<rect x="90.5" y="0.5" width="90" height="120" stroke="black"/>
<path d="M127.412 43C128.132 43.12 128.972 43.3 129.812 43.54C130.652 43.9 131.432 44.32 132.152 44.86C132.872 45.46 133.472 46.24 134.012 47.08C134.492 47.98 134.792 49 134.912 50.2C134.912 50.74 134.912 51.1 134.912 51.34C134.852 51.64 134.792 51.82 134.732 51.88C134.612 52 134.552 52.12 134.492 52.12C134.372 52.18 134.312 52.24 134.312 52.36C134.252 52.48 134.252 52.6 134.372 52.66C134.372 52.78 134.432 52.9 134.552 53.02C134.612 53.2 134.672 53.38 134.732 53.62C134.732 53.92 134.732 54.28 134.612 54.7C134.252 55.96 133.772 57.04 133.112 58C132.392 58.96 131.492 59.86 130.472 60.7C129.872 61.18 129.212 61.48 128.552 61.66C127.832 61.9 127.112 62.08 126.512 62.14C125.792 62.26 125.192 62.26 124.652 62.2C124.052 62.2 123.572 62.2 123.212 62.2C122.372 62.14 121.532 61.96 120.692 61.6C119.792 61.3 119.012 60.94 118.412 60.58C117.452 59.98 116.672 59.2 116.072 58.24C115.472 57.34 115.052 56.32 114.812 55.24C114.572 54.22 114.452 53.14 114.572 52.06C114.572 51.04 114.752 50.14 115.112 49.3C115.412 48.52 115.892 47.68 116.552 46.78C117.152 45.94 117.992 45.22 119.072 44.5C118.892 43.9 118.712 43.24 118.472 42.64C118.232 42.1 117.992 41.68 117.752 41.38C117.272 40.9 117.152 40.42 117.512 40.06C117.752 39.76 118.172 39.76 118.652 40.06C119.132 40.42 119.612 40.66 119.972 40.84C120.332 41.08 120.932 41.44 121.772 41.8C122.492 42.22 123.032 42.94 123.392 43.96C123.812 43.72 124.412 43.48 125.132 43.24C125.792 43.06 126.572 43 127.412 43ZM131.012 66.52C131.072 66.28 131.252 66.16 131.492 66.04C131.732 65.98 132.032 66.1 132.452 66.4C132.992 66.88 133.592 67.24 134.192 67.6C134.792 67.96 135.092 68.44 135.212 68.98C135.332 69.58 135.332 70.24 135.212 71.02C135.032 71.86 134.612 72.88 133.952 74.08C133.052 75.64 131.912 77.32 130.472 79.06C130.832 79.18 131.252 79.36 131.852 79.6C132.392 79.78 132.932 80.02 133.472 80.26C133.952 80.5 134.432 80.74 134.912 81.04C135.272 81.28 135.572 81.64 135.692 82C135.752 82.24 135.812 82.48 135.932 82.72C135.992 82.9 136.052 83.08 136.112 83.32C136.292 83.26 136.592 83.02 137.012 82.66C137.492 82.18 137.912 81.64 138.332 81.04C138.692 80.44 139.052 79.84 139.412 79.24C139.652 78.64 139.952 78.04 140.192 77.56C140.432 77.08 140.612 76.66 140.732 76.3C140.972 75.76 141.212 75.22 141.512 74.62C141.752 74.08 141.932 73.66 142.052 73.3C142.112 72.94 142.112 72.64 142.112 72.34C141.992 72.1 141.812 72.04 141.512 72.1C141.152 72.22 140.972 72.28 140.852 72.34C140.732 72.46 140.552 72.52 140.372 72.52C140.252 72.52 140.132 72.52 139.952 72.4C139.712 72.34 139.472 72.22 139.292 72.1C139.052 72.04 138.872 71.92 138.752 71.8C138.572 71.68 138.512 71.56 138.512 71.38C138.512 71.26 138.512 71.08 138.512 70.96C138.452 70.84 138.452 70.72 138.512 70.6C138.512 70.48 138.632 70.42 138.812 70.3C138.932 70.3 139.172 70.24 139.532 70.18C140.192 70.12 140.612 70 140.852 69.82C140.972 69.7 141.272 69.46 141.632 69.04C142.052 68.74 142.352 68.44 142.532 68.14C142.652 67.9 142.892 67.72 143.192 67.48L143.912 67.12C144.392 66.94 144.812 66.82 145.172 66.82L147.512 67.06C147.632 67.06 147.812 67.18 147.932 67.36C148.052 67.6 147.992 68.08 147.812 68.8C147.512 69.88 147.092 71.14 146.552 72.58C145.952 74.08 145.292 75.46 144.632 76.66L143.792 78.04C144.152 78.1 144.572 78.28 145.052 78.52C145.472 78.76 145.952 79 146.432 79.36C146.912 79.6 147.332 79.9 147.812 80.26C148.232 80.56 148.652 80.86 149.012 81.16C149.372 81.46 149.732 81.82 150.212 82.18C150.572 82.54 150.992 82.9 151.352 83.32C151.712 83.68 152.012 83.98 152.252 84.34C152.492 84.64 152.612 84.88 152.732 85.12C152.852 85.48 152.912 85.84 152.792 86.2C152.672 86.56 152.312 86.68 151.832 86.56C151.352 86.44 150.932 86.38 150.632 86.38C150.272 86.26 149.972 86.32 149.732 86.56C149.492 86.68 149.192 86.8 148.952 86.86C148.592 86.86 148.232 86.62 147.752 86.14C147.512 85.9 147.272 85.42 146.912 84.82C146.552 84.1 146.132 83.44 145.712 82.72C145.232 81.94 144.812 81.22 144.392 80.62C143.912 79.9 143.432 79.42 143.012 79.18L142.892 79.06L142.712 79.24C142.472 79.42 142.232 79.72 141.992 80.14C141.752 80.5 141.512 80.86 141.332 81.22C141.212 81.34 141.032 81.58 140.792 81.94C140.492 82.24 140.192 82.6 139.952 82.96C139.592 83.32 139.292 83.62 138.992 83.98C138.632 84.28 138.392 84.52 138.272 84.64C137.552 85.3 136.952 85.9 136.532 86.44C136.412 86.5 136.352 86.62 136.232 86.8C136.112 86.92 135.932 87.1 135.752 87.28C135.632 87.46 135.452 87.58 135.212 87.58C134.972 87.64 134.852 87.64 134.732 87.58C134.552 87.46 134.432 87.16 134.432 86.74C133.952 85.9 133.292 84.88 132.392 83.74C131.432 82.54 130.472 81.58 129.392 80.86L129.152 80.68L127.592 82.42C126.392 83.56 125.252 84.52 124.172 85.36C123.092 86.08 122.012 86.56 120.992 86.8C120.452 86.92 120.032 86.98 119.732 87.04C119.372 87.04 119.012 87.1 118.772 87.1C118.472 87.1 118.232 87.04 117.992 86.98C117.692 86.86 117.392 86.8 117.152 86.68C116.552 86.32 116.372 86.08 116.612 85.96C116.732 85.72 117.152 85.66 117.812 85.66C118.952 85.66 120.332 85.24 122.012 84.4C123.032 83.8 123.992 83.08 124.892 82.12C125.732 81.1 126.392 80.14 126.992 79.18L122.912 76.54C122.552 76.36 122.312 76.18 122.312 75.94C122.252 75.76 122.552 75.76 123.152 76C123.632 76.24 124.232 76.48 125.072 76.78C125.852 77.14 126.692 77.5 127.652 77.86C128.432 76.18 128.972 74.74 129.332 73.6C129.632 72.52 129.872 71.62 130.112 70.9C130.352 70.12 130.592 69.28 130.712 68.32C130.832 67.42 130.892 66.82 131.012 66.52ZM161.312 51.4C161.312 51.58 161.372 51.76 161.432 51.94C161.432 52.18 161.492 52.42 161.492 52.6C161.492 52.84 161.432 53.02 161.312 53.14C161.132 53.32 160.892 53.44 160.592 53.5C159.932 53.74 159.092 53.8 158.132 53.8C157.052 53.8 156.212 53.8 155.552 53.68C155.252 53.68 154.832 53.68 154.292 53.68C153.692 53.74 153.152 53.8 152.552 53.8C151.952 53.86 151.352 53.92 150.812 53.92C150.212 54.04 149.792 54.1 149.552 54.1C149.492 54.1 149.492 54.1 149.492 54.1C149.432 54.16 149.372 54.16 149.372 54.16V54.22H149.312C149.312 54.94 149.312 55.66 149.312 56.32C149.252 57.04 149.192 57.58 149.132 58C149.072 58.48 148.952 58.96 148.832 59.5C148.592 60.1 148.412 60.7 148.172 61.18C147.872 61.78 147.632 62.26 147.392 62.68C147.092 63.16 146.852 63.52 146.612 63.7C146.372 63.94 146.072 64.12 145.832 64.24C145.472 64.48 145.232 64.6 144.992 64.6C144.692 64.72 144.512 64.66 144.392 64.54C144.272 64.42 144.272 64.18 144.452 63.7C144.572 63.34 144.632 62.8 144.752 62.08C144.752 61.36 144.812 60.58 144.812 59.62C144.812 58.78 144.812 57.82 144.812 56.86C144.752 55.96 144.752 55.06 144.752 54.22C144.752 53.44 144.752 52.66 144.752 51.88C144.692 51.16 144.692 50.5 144.692 49.9C144.692 49.36 144.692 48.88 144.692 48.52C144.692 48.16 144.692 47.98 144.752 47.92C144.872 47.8 145.052 47.68 145.232 47.68C145.352 47.68 145.412 47.56 145.532 47.26C145.532 47.14 145.532 46.96 145.472 46.84C145.352 46.72 145.292 46.6 145.232 46.42C145.112 46.3 144.992 46.12 144.932 45.88C144.812 45.7 144.812 45.46 144.872 45.1C144.932 44.68 144.992 44.2 144.992 43.6C144.992 43.12 144.992 42.58 144.992 41.98C144.872 40.84 144.872 39.94 144.992 39.22C144.992 38.62 144.992 38.02 144.992 37.42C144.872 37 144.872 36.52 144.872 35.98C144.812 35.5 144.572 35.08 144.092 34.66C143.612 34.3 143.192 34.06 142.832 33.88C142.352 33.76 141.932 33.58 141.572 33.34C141.332 33.22 141.212 33.1 141.212 32.86C141.152 32.68 141.212 32.5 141.332 32.26C141.392 32.14 141.572 31.96 141.812 31.84C142.052 31.78 142.352 31.78 142.772 31.9C143.012 32.02 143.372 32.14 143.972 32.26C144.452 32.44 145.052 32.62 145.712 32.74C146.312 32.98 146.972 33.16 147.632 33.28C148.232 33.52 148.772 33.64 149.132 33.7C149.672 33.82 150.092 34 150.452 34.12C150.752 34.36 150.812 34.72 150.632 35.32C150.392 35.98 150.212 36.64 150.032 37.36C149.792 38.08 149.672 38.86 149.672 39.7C149.672 40.3 149.672 41.02 149.672 41.98C149.612 42.94 149.612 43.78 149.612 44.5C149.552 44.86 149.492 45.28 149.492 45.82C149.432 46.42 149.432 47.02 149.432 47.62C149.372 48.28 149.372 48.88 149.372 49.42C149.312 50.02 149.312 50.5 149.312 50.8V51.94C149.852 51.88 150.272 51.82 150.572 51.7C151.052 51.58 151.412 51.52 151.772 51.4C152.012 51.34 152.252 51.28 152.492 51.16C152.612 51.16 152.792 51.04 153.032 50.92C153.152 50.86 153.392 50.74 153.632 50.62C154.112 50.38 154.592 50.2 155.072 50.02C155.492 49.9 155.972 49.84 156.452 49.96C156.992 50.08 157.532 50.08 158.072 49.96C158.552 49.9 158.912 49.84 159.212 49.84C159.692 49.84 160.112 49.96 160.592 50.2C160.952 50.56 161.192 50.92 161.312 51.4ZM122.552 47.62C121.712 48.46 120.992 48.7 120.392 48.4C120.032 48.4 119.792 48.52 119.612 48.64C119.372 48.88 119.132 49.12 119.012 49.36C118.832 49.72 118.712 50.02 118.652 50.32C118.532 50.68 118.412 51.04 118.412 51.34C118.292 52.06 118.292 52.72 118.412 53.38C118.412 54.1 118.592 54.7 118.892 55.3C119.132 55.9 119.492 56.44 120.092 56.92C120.632 57.4 121.352 57.76 122.312 58C123.452 58.36 124.472 58.42 125.312 58.18C126.092 58.06 126.872 57.76 127.712 57.4C128.792 56.5 129.512 55.48 129.872 54.4C130.232 53.38 130.412 52.24 130.532 50.92C130.592 49.6 130.292 48.4 129.572 47.32C128.852 46.36 127.832 45.7 126.572 45.4C126.092 45.34 125.612 45.28 125.072 45.28C124.472 45.34 123.992 45.34 123.572 45.34C123.572 45.82 123.452 46.18 123.332 46.54C123.152 46.96 122.912 47.32 122.552 47.62Z" fill="white"/>
<rect x="180.5" y="30.5" width="90" height="120" fill="#F6C500"/>
<rect x="180.5" y="30.5" width="90" height="120" stroke="black"/>
<path d="M231.609 97.84C231.789 97.6 231.909 97.42 231.909 97.3C231.849 97.18 231.789 97.12 231.669 97.06H230.709C230.049 97 229.449 97 228.909 97.06C228.309 97.18 227.769 97.36 227.289 97.54C226.989 97.66 226.629 97.84 226.209 97.96C225.729 98.2 225.309 98.38 224.829 98.5C224.349 98.74 223.869 98.92 223.389 99.04C222.909 99.22 222.489 99.34 222.249 99.34C222.009 99.4 221.709 99.52 221.229 99.64C220.689 99.82 220.149 100 219.609 100.12C219.009 100.36 218.469 100.48 217.989 100.6C217.449 100.72 217.089 100.78 216.849 100.78C216.369 100.78 216.009 100.54 215.769 100.18C215.529 99.82 215.349 99.46 215.289 99.04C215.289 98.86 215.229 98.56 215.229 98.14C215.109 97.78 215.049 97.36 215.049 96.88C214.989 96.46 214.929 96.04 214.929 95.68C214.869 95.32 214.869 95.08 214.929 94.9C214.989 94.6 215.169 94.42 215.529 94.3C215.769 94.24 216.009 94.36 216.129 94.6C216.249 95.32 216.549 95.74 216.969 95.92C217.329 96.16 218.169 96.28 219.489 96.28C219.789 96.34 220.269 96.34 220.929 96.22C221.529 96.16 222.249 96.04 222.969 95.92C223.629 95.86 224.289 95.74 224.889 95.62C225.429 95.5 225.849 95.44 226.089 95.38C226.509 95.32 226.989 95.2 227.529 95.08C228.009 95.02 228.549 94.96 229.089 94.9C229.329 94.9 229.629 94.9 230.049 94.9C230.409 94.96 230.709 95.02 231.069 95.02C231.429 95.08 231.849 95.14 232.269 95.2C232.329 95.2 232.449 95.2 232.569 95.14C232.809 95.08 233.049 94.9 233.409 94.54C233.649 94.3 234.009 94.18 234.489 94.18C234.969 94.3 235.449 94.48 235.929 94.78C236.049 94.9 236.289 94.96 236.529 95.02C236.709 95.14 236.949 95.26 237.189 95.38C237.369 95.56 237.549 95.74 237.729 95.92C237.849 96.16 237.909 96.34 237.909 96.58C237.849 97.06 237.729 97.54 237.489 98.08C237.189 98.68 236.469 99.22 235.329 99.82C234.789 100.18 234.189 100.42 233.589 100.6C232.929 100.84 232.269 100.96 231.669 101.08C231.009 101.26 230.409 101.38 229.809 101.5C229.209 101.68 228.669 101.86 228.189 101.98C227.889 102.1 227.529 102.22 227.049 102.46C226.569 102.7 226.029 102.94 225.549 103.06C225.069 103.3 224.649 103.42 224.349 103.54C223.989 103.72 223.749 103.84 223.629 103.9C223.389 104.14 223.389 104.26 223.749 104.32C223.989 104.44 224.409 104.5 225.009 104.5C225.489 104.56 226.089 104.56 226.689 104.56C227.229 104.56 227.649 104.56 227.889 104.56C228.309 104.56 228.609 104.5 228.789 104.32C228.909 104.2 229.149 104.02 229.389 103.78C229.629 103.54 229.929 103.42 230.289 103.3C230.649 103.3 231.189 103.3 232.029 103.3C232.809 103.36 233.469 103.42 233.949 103.54C234.369 103.66 234.729 103.78 234.969 103.78C235.089 103.78 235.269 103.84 235.509 103.96C235.689 104.08 235.869 104.26 235.989 104.44C236.049 104.68 236.049 104.92 235.929 105.16C235.809 105.46 235.449 105.76 234.849 106.06C234.249 106.42 233.349 106.84 232.029 107.38C230.709 107.92 229.329 108.52 227.949 109.12C226.509 109.66 225.189 110.14 224.109 110.62C222.909 111.04 222.249 111.34 222.129 111.46C221.769 111.64 221.709 111.88 221.829 112.12C221.949 112.36 222.189 112.48 222.669 112.6C222.909 112.6 223.329 112.72 223.989 112.96C224.589 113.14 225.309 113.32 226.089 113.56C226.809 113.74 227.529 113.92 228.249 114.16C228.909 114.28 229.389 114.4 229.689 114.46C230.169 114.52 230.769 114.58 231.549 114.64C232.269 114.64 232.989 114.58 233.769 114.58C234.489 114.52 235.209 114.46 235.929 114.46C236.589 114.34 237.129 114.28 237.489 114.22C238.209 113.98 239.049 113.86 239.949 113.74C240.789 113.56 241.329 113.5 241.689 113.5C241.809 113.5 242.109 113.44 242.529 113.44C242.889 113.38 243.309 113.38 243.789 113.38C244.149 113.38 244.509 113.38 244.869 113.44C245.169 113.44 245.289 113.56 245.289 113.74C245.169 114.1 245.289 114.34 245.589 114.52C245.829 114.64 246.009 114.7 246.189 114.7C246.249 114.7 246.369 114.7 246.549 114.7C246.669 114.7 246.789 114.7 246.909 114.76C246.969 114.76 247.029 114.82 247.029 114.94C247.029 115.06 246.909 115.24 246.789 115.48C246.429 115.96 245.949 116.32 245.409 116.62C244.809 116.86 244.269 116.98 243.789 117.1C243.369 117.16 242.829 117.28 242.169 117.46C241.449 117.58 240.669 117.7 239.949 117.82C239.169 117.94 238.449 118.06 237.729 118.18C237.009 118.24 236.409 118.3 235.989 118.3C235.509 118.3 235.029 118.3 234.429 118.3C233.769 118.24 233.109 118.18 232.509 118.18C231.789 118.12 231.129 118.06 230.529 118C229.809 117.88 229.209 117.7 228.729 117.52C228.189 117.34 227.589 117.16 226.869 116.92C226.089 116.62 225.369 116.38 224.649 116.14C223.929 115.9 223.269 115.66 222.729 115.48C222.129 115.24 221.769 115.12 221.589 115.06C221.109 114.82 220.629 114.76 220.089 114.88C219.489 114.88 218.829 114.94 218.109 114.94C217.269 114.94 216.669 114.82 216.309 114.58C215.829 114.34 215.649 113.86 215.769 113.2C215.769 112.48 215.889 111.88 216.069 111.28C216.189 110.62 216.489 110.32 217.089 110.32C217.689 110.32 218.229 110.32 218.829 110.44C219.309 110.5 219.849 110.44 220.329 110.32C220.809 110.08 221.409 109.9 222.009 109.72C222.549 109.48 223.089 109.24 223.689 108.94C224.229 108.58 224.469 108.34 224.409 108.22C224.289 108.1 223.989 108.04 223.569 108.04C223.209 108.04 222.729 108.1 222.069 108.1C221.349 108.1 220.689 108.04 220.029 107.98C219.309 107.86 218.709 107.62 218.229 107.38C217.689 107.14 217.449 106.78 217.569 106.3C217.569 105.82 217.629 105.4 217.689 105.1C217.689 104.86 217.809 104.68 217.929 104.5C217.989 104.38 218.109 104.26 218.289 104.14C218.409 104.02 218.589 103.9 218.949 103.66C219.129 103.54 219.609 103.36 220.329 103C221.049 102.76 221.889 102.4 222.849 101.98C223.809 101.62 224.769 101.2 225.849 100.72C226.869 100.36 227.829 99.94 228.729 99.52C229.089 99.4 229.629 99.16 230.289 98.8C230.889 98.56 231.369 98.2 231.609 97.84ZM228.489 62.8C229.209 62.92 229.929 63.04 230.769 63.28C231.489 63.58 232.209 64 232.929 64.48C233.589 65.02 234.189 65.68 234.669 66.46C235.089 67.3 235.329 68.32 235.449 69.4C235.449 69.88 235.449 70.24 235.449 70.48C235.389 70.72 235.329 70.9 235.329 70.96C235.209 71.08 235.149 71.2 235.089 71.2C234.969 71.26 234.909 71.32 234.909 71.44C234.849 71.56 234.849 71.68 234.969 71.68C234.969 71.8 235.029 71.86 235.149 71.98C235.149 72.1 235.209 72.28 235.269 72.46C235.269 72.7 235.269 73 235.149 73.36C234.549 75.76 233.229 77.62 231.309 79.06C230.709 79.48 230.109 79.78 229.509 79.96C228.849 80.2 228.189 80.38 227.589 80.44C226.929 80.56 226.329 80.56 225.849 80.56C225.249 80.56 224.829 80.56 224.529 80.56C223.689 80.5 222.849 80.32 222.009 79.96C221.109 79.66 220.389 79.36 219.789 79C218.829 78.52 218.049 77.8 217.569 76.9C216.969 76.06 216.609 75.1 216.429 74.08C216.189 73.12 216.129 72.16 216.249 71.14C216.249 70.18 216.429 69.34 216.789 68.62C217.089 67.9 217.569 67.12 218.169 66.28C218.769 65.44 219.549 64.72 220.509 64.12C220.329 63.52 220.149 62.92 219.969 62.32C219.729 61.78 219.489 61.36 219.249 61.12C218.769 60.7 218.709 60.28 219.009 59.92C219.249 59.62 219.669 59.62 220.149 59.92C220.629 60.28 221.049 60.52 221.409 60.76C221.709 61 222.249 61.3 223.089 61.6C223.809 62.02 224.289 62.68 224.649 63.64C225.069 63.46 225.609 63.28 226.329 63.04C226.929 62.86 227.649 62.8 228.489 62.8ZM201.489 87.34C202.209 87.58 203.049 87.64 204.009 87.58C204.849 87.58 205.809 87.52 206.889 87.4C207.249 87.4 208.089 87.34 209.409 87.22C210.609 87.1 212.049 86.98 213.729 86.8C215.349 86.68 217.089 86.5 218.949 86.32C220.749 86.2 222.489 86.02 224.109 85.84C225.669 85.72 227.049 85.54 228.189 85.42C229.269 85.3 229.989 85.24 230.289 85.24C230.769 85.24 231.609 85.12 232.869 85C234.069 84.88 235.389 84.76 236.769 84.58C238.089 84.46 239.289 84.34 240.369 84.22C241.449 84.16 242.049 84.1 242.289 84.1C242.469 84.1 242.709 83.98 242.949 83.74C243.189 83.5 243.429 83.26 243.789 83.02C244.029 82.84 244.389 82.66 244.749 82.54C245.049 82.48 245.409 82.54 245.889 82.78C246.249 83.02 246.669 83.32 247.149 83.68C247.569 84.04 247.989 84.4 248.469 84.7C248.829 85.06 249.249 85.36 249.609 85.6C249.909 85.9 250.149 86.08 250.389 86.2C250.569 86.32 250.689 86.56 250.809 86.8C250.869 87.1 250.869 87.4 250.869 87.64C250.749 87.94 250.629 88.18 250.509 88.36C250.269 88.6 250.029 88.66 249.789 88.6C249.309 88.6 248.709 88.54 247.989 88.54C247.209 88.6 246.429 88.66 245.589 88.78C244.689 88.9 243.849 89.08 243.009 89.26C242.169 89.5 241.449 89.74 240.849 90.1C239.949 90.58 239.289 90.7 238.869 90.52C238.389 90.4 238.569 90.1 239.289 89.5C239.589 89.26 239.949 88.96 240.369 88.54C240.729 88.18 241.089 87.82 241.389 87.46C241.629 87.1 241.749 86.8 241.869 86.56C241.869 86.32 241.749 86.2 241.389 86.2C241.029 86.2 240.309 86.26 239.349 86.32C238.329 86.44 237.249 86.5 236.109 86.62C234.909 86.74 233.709 86.86 232.629 86.98C231.489 87.16 230.589 87.28 229.989 87.4C229.509 87.52 228.789 87.7 227.769 87.88C226.689 88.12 225.489 88.3 224.169 88.54C222.729 88.84 221.289 89.14 219.849 89.38C218.289 89.74 216.909 89.98 215.589 90.22C214.209 90.52 213.069 90.76 212.109 90.88C211.089 91.12 210.429 91.24 210.189 91.3C209.709 91.42 209.169 91.48 208.629 91.48C208.029 91.6 207.489 91.6 206.949 91.6C206.349 91.6 205.749 91.54 205.269 91.42C204.729 91.36 204.249 91.24 203.889 91C203.049 90.58 202.449 90.16 201.969 89.8C201.489 89.5 201.009 89.2 200.589 88.9C200.349 88.78 200.169 88.6 200.109 88.36C199.989 88.18 199.929 88 200.049 87.76C200.049 87.64 200.229 87.46 200.469 87.34C200.709 87.22 201.009 87.22 201.489 87.34ZM223.869 67C223.509 67.36 223.149 67.54 222.909 67.66C222.549 67.78 222.309 67.84 222.129 67.84H222.009L221.889 67.78C221.229 67.72 220.749 68.02 220.449 68.62C220.089 69.28 219.909 69.88 219.909 70.48C219.789 71.14 219.789 71.74 219.909 72.34C219.909 73 220.089 73.6 220.329 74.14C220.569 74.74 220.929 75.22 221.469 75.58C221.949 76.06 222.669 76.36 223.569 76.6C224.649 76.9 225.609 76.96 226.449 76.78C227.289 76.66 228.069 76.42 228.909 76.06C229.929 75.28 230.589 74.38 230.889 73.36C231.129 72.4 231.249 71.32 231.369 70.12C231.429 68.86 231.129 67.72 230.469 66.76C229.749 65.8 228.849 65.2 227.709 64.9C227.229 64.84 226.749 64.78 226.269 64.78C225.669 64.84 225.189 64.84 224.829 64.84C224.829 65.26 224.709 65.62 224.589 65.98C224.409 66.4 224.169 66.76 223.869 67Z" fill="white"/>
<rect x="270.5" y="60.5" width="90" height="120" fill="#F6C500"/>
<rect x="270.5" y="60.5" width="90" height="120" stroke="black"/>
<path d="M303.369 106.6C303.849 106.36 304.449 106.12 305.169 105.82C305.769 105.58 306.429 105.34 307.029 105.1C307.629 104.86 308.169 104.62 308.709 104.38C309.189 104.2 309.549 104.02 309.789 103.84C310.269 103.54 310.689 103.42 310.989 103.54C311.229 103.66 311.529 103.78 311.889 103.9C312.129 104.08 312.429 104.26 312.909 104.5C313.329 104.74 313.689 105.04 313.929 105.28C314.049 105.4 314.169 105.52 314.289 105.64C314.349 105.82 314.409 105.94 314.409 106.06C314.409 106.18 314.289 106.3 314.169 106.42C313.989 106.54 313.689 106.66 313.329 106.72L312.789 106.84L313.689 107.14C313.929 107.26 314.109 107.44 314.349 107.68C314.469 107.98 314.409 108.58 314.049 109.48C313.629 110.5 313.329 111.52 313.149 112.54C312.909 113.62 312.789 114.4 312.729 115C312.549 115.66 312.369 116.38 312.189 117.1C311.949 117.88 311.709 118.78 311.529 119.74C311.589 119.74 311.889 119.74 312.489 119.8C312.669 119.86 313.029 119.92 313.509 120.04C313.989 120.22 314.469 120.4 315.009 120.58C315.489 120.82 316.029 121 316.509 121.18C316.989 121.42 317.349 121.66 317.589 121.9C318.549 122.74 318.789 123.94 318.309 125.5C318.189 125.74 318.129 126.16 318.129 126.64C318.009 127.24 317.949 127.9 317.949 128.62C317.889 129.4 317.829 130.24 317.829 131.08C317.769 131.98 317.709 132.88 317.709 133.72C317.709 134.32 318.069 134.5 318.849 134.38V134.56L325.929 134.2C327.009 134.2 328.089 134.02 329.169 133.66C330.129 133.42 330.909 133.18 331.509 132.94C331.989 132.82 332.529 132.82 333.129 132.82C333.669 132.88 334.269 132.94 334.869 133.06C335.409 133.18 335.949 133.36 336.489 133.48C336.969 133.66 337.329 133.78 337.629 133.9C338.109 134.2 338.529 134.44 338.889 134.62C339.249 134.86 339.609 135.22 340.089 135.64C340.509 136.06 340.689 136.48 340.569 136.9C340.449 137.38 340.089 137.56 339.489 137.62C339.129 137.62 338.649 137.62 337.989 137.62C337.269 137.56 336.609 137.56 335.889 137.56C335.109 137.5 334.389 137.5 333.789 137.56C333.069 137.56 332.649 137.56 332.409 137.62C332.109 137.62 331.749 137.62 331.389 137.62C330.909 137.5 330.489 137.44 330.129 137.32C329.649 137.26 329.289 137.14 328.929 137.02C328.569 136.96 328.269 136.9 328.029 136.84C327.789 136.84 327.189 136.78 326.289 136.72C325.329 136.72 324.189 136.72 322.989 136.72C321.729 136.72 320.469 136.72 319.269 136.72C317.949 136.78 316.929 136.84 316.089 136.9C314.109 137.08 312.189 137.32 310.269 137.56C308.349 137.8 306.489 138.16 304.689 138.64C303.429 138.88 302.589 139.06 302.109 139.24C301.569 139.36 301.149 139.6 300.849 139.96C300.549 140.26 300.249 140.44 300.009 140.56C299.649 140.56 299.169 140.5 298.509 140.32C298.149 140.2 297.669 140.14 296.949 140.02C296.229 139.9 295.449 139.78 294.669 139.66C293.829 139.48 293.109 139.36 292.509 139.24C291.789 139.06 291.369 138.94 291.189 138.88C290.949 138.82 290.769 138.7 290.649 138.52C290.469 138.28 290.409 138.04 290.409 137.86C290.409 137.62 290.469 137.44 290.709 137.26C290.829 137.14 291.129 137.08 291.609 137.08C291.969 137.14 292.509 137.14 293.109 137.02C293.649 136.96 294.189 136.84 294.789 136.72C295.029 136.66 295.389 136.54 295.929 136.42C296.409 136.3 296.949 136.18 297.549 136.06C298.089 135.94 298.689 135.88 299.289 135.76C299.889 135.7 300.369 135.64 300.849 135.64C301.329 135.7 301.869 135.76 302.469 135.82C303.069 135.94 303.609 136 304.209 136C304.449 136 304.869 135.94 305.469 135.82C306.069 135.76 306.729 135.64 307.569 135.52C308.349 135.46 309.249 135.34 310.209 135.22C311.109 135.1 312.009 135.04 312.909 134.92V134.86C313.569 134.86 313.929 134.62 314.049 134.02C314.109 132.76 314.169 131.56 314.229 130.48C314.229 129.46 314.289 128.62 314.289 127.9C314.289 126.82 314.229 125.92 314.229 125.08C314.109 124.36 313.989 123.7 313.749 123.1C313.569 122.74 313.389 122.38 313.209 122.02C312.969 121.72 312.609 121.42 312.189 121.12C311.829 121 311.589 120.76 311.409 120.4V120.52C311.289 121.48 311.049 122.44 310.809 123.46C310.449 124.54 310.149 125.56 309.909 126.52C309.669 127.24 309.489 127.66 309.309 127.84C309.069 128.08 308.769 128.2 308.289 128.2C307.809 128.2 307.389 128.2 307.029 128.2C306.669 128.26 306.369 128.26 306.189 128.2C305.949 128.2 305.769 128.08 305.709 127.84C305.589 127.72 305.529 127.42 305.589 126.94C305.589 126.58 305.709 126.1 305.949 125.44C306.069 124.84 306.309 124.12 306.549 123.28C306.789 122.56 307.029 121.72 307.269 120.88C307.509 120.1 307.689 119.32 307.809 118.6C307.929 117.94 308.109 117.34 308.229 116.74C308.349 116.26 308.529 115.54 308.889 114.58C309.129 113.86 309.309 112.9 309.549 111.7C309.729 110.56 309.909 109.6 310.029 108.82V107.74C309.249 107.98 308.529 108.28 307.869 108.52C307.149 108.88 306.609 109.18 306.189 109.42C305.349 110.02 304.449 110.5 303.609 110.8C302.649 111.16 301.809 111.16 301.089 110.8C300.309 110.5 299.589 110.14 298.989 109.78C298.329 109.42 297.789 109.12 297.369 108.82C296.889 108.58 296.649 108.28 296.769 107.92C296.829 107.62 297.249 107.5 298.089 107.62C298.869 107.74 299.709 107.74 300.549 107.5C301.329 107.32 302.289 107.02 303.369 106.6ZM315.729 106.54C316.089 106.6 316.629 106.6 317.229 106.48C317.769 106.42 318.249 106.24 318.729 105.88C318.969 105.76 319.389 105.52 319.869 105.28C320.289 105.1 320.709 104.86 321.189 104.62C321.609 104.38 322.029 104.2 322.449 103.96C322.809 103.78 323.109 103.6 323.289 103.36C323.529 103.06 323.829 102.76 324.129 102.46C324.369 102.22 324.909 102.22 325.629 102.4C326.349 102.64 327.009 102.82 327.489 103C327.969 103.24 328.509 103.54 329.229 103.84C329.889 104.2 330.249 104.5 330.369 104.74C330.369 105.1 330.249 105.58 329.949 106.18C329.589 106.84 329.409 107.56 329.349 108.4C329.229 109.24 329.169 110.02 329.169 110.68C329.109 111.4 328.989 112 328.809 112.54C328.569 113.14 328.509 113.56 328.689 113.8C328.869 114.04 328.989 114.34 328.989 114.7C328.989 115.12 328.749 115.36 328.269 115.48C327.789 115.66 327.489 115.84 327.369 116.02C327.249 116.26 327.249 116.5 327.489 116.68C327.669 116.92 327.909 117.22 328.209 117.58C328.449 117.94 328.569 118.24 328.449 118.42C328.329 118.6 328.329 118.84 328.449 119.2C328.569 119.56 328.629 119.92 328.689 120.28V126.1C328.689 126.4 328.689 126.58 328.749 126.7C328.749 126.82 328.749 126.94 328.749 126.94C328.689 127.06 328.629 127.12 328.509 127.18C328.389 127.3 328.149 127.48 327.909 127.66C327.549 127.9 327.429 128.02 327.549 128.02C327.609 128.08 327.609 128.26 327.549 128.56C327.429 128.92 327.309 129.04 327.069 129.04C326.829 129.04 326.589 129.16 326.409 129.4C326.289 129.52 326.109 129.7 325.869 129.88C325.629 130.12 325.389 130.24 325.149 130.24C324.849 130.3 324.609 130.18 324.489 129.88C324.249 129.64 324.189 129.04 324.249 128.2C324.249 127.36 324.309 126.46 324.429 125.5C324.489 124.6 324.549 123.7 324.669 122.8C324.669 121.96 324.729 121.24 324.849 120.52C324.849 119.92 324.909 119.44 324.909 119.08C324.909 118.84 324.909 118.24 324.969 117.4C324.969 116.56 324.969 115.72 324.969 114.76C324.969 113.86 324.969 112.96 325.029 112.12C325.029 111.34 325.029 110.8 325.089 110.44C325.089 109.84 325.029 109.36 324.849 109C324.609 108.7 324.489 108.46 324.489 108.22V106.72C324.489 106.54 324.429 106.36 324.309 106.24C324.189 106.18 324.069 106.12 323.949 106.06C323.769 106.06 323.589 106.18 323.409 106.36C323.169 106.6 322.989 106.72 322.929 106.84C322.809 106.96 322.689 107.08 322.569 107.2C322.449 107.32 322.269 107.44 322.149 107.5C321.909 107.62 321.669 107.74 321.309 107.86C320.229 108.16 319.149 108.28 318.129 108.16C317.049 108.16 316.329 108.1 315.909 108.1C315.429 108.1 315.069 107.98 314.889 107.8C314.649 107.68 314.529 107.5 314.529 107.26C314.529 107.08 314.649 106.9 314.889 106.72C315.069 106.6 315.369 106.54 315.729 106.54Z" fill="white"/>
</svg>
