<svg width="271" height="151" viewBox="0 0 271 151" fill="none" xmlns="http://www.w3.org/2000/svg">
<rect x="0.5" y="30.5" width="90" height="120" fill="#F6C500"/>
<rect x="0.5" y="30.5" width="90" height="120" stroke="black"/>
<path d="M30.0847 89.02C29.9647 89.68 29.9047 90.28 30.0247 90.76C30.0247 91.36 30.3847 91.66 31.1047 91.66C31.5847 91.54 31.9447 91.42 32.2447 91.3C32.4847 91.3 32.7847 91.24 33.1447 91.24C33.3247 91.24 33.5047 91.24 33.6847 91.18C33.8047 91.18 33.9847 91.3 34.1047 91.66C34.2247 91.96 34.4047 92.14 34.5847 92.14C34.7047 92.2 34.8247 92.2 34.9447 92.08C35.0047 92.02 35.0647 91.9 35.1847 91.72C35.1847 91.6 35.1847 91.48 35.1847 91.36C35.1847 91.24 35.1847 91.12 35.1847 91C35.1247 90.94 35.1247 90.82 35.2447 90.7C35.2447 90.58 35.3647 90.52 35.5447 90.4C35.6647 90.34 35.9647 90.28 36.4447 90.16C37.2847 90.04 38.0047 89.8 38.6047 89.56C39.1447 89.32 39.5047 89.2 39.6247 89.14C39.6247 89.14 39.6247 89.2 39.6247 89.32C39.5047 89.5 39.4447 89.68 39.4447 89.8C39.3847 89.98 39.3847 90.1 39.4447 90.16C39.4447 90.28 39.6247 90.22 39.9247 89.98C40.1647 89.86 40.4047 89.68 40.5247 89.56C40.5847 89.5 40.6447 89.44 40.7047 89.32C40.7047 89.32 40.7047 89.26 40.7647 89.14C40.7647 89.08 40.8847 89.02 41.1247 88.9C41.1847 88.9 41.3047 88.9 41.4247 88.84C41.4847 88.84 41.6047 88.78 41.7247 88.78C41.7847 88.48 41.8447 88.18 41.9647 87.94C42.0247 87.76 42.0847 87.64 42.2047 87.52C42.3247 87.34 42.5047 87.16 42.8047 86.92C43.0447 86.74 43.2847 86.56 43.6447 86.38C43.9447 86.26 44.3047 86.14 44.6647 86.08C45.0247 86.08 45.3247 86.08 45.5647 86.2C46.1047 86.5 46.5847 86.98 46.9447 87.58C47.2447 88.24 47.4247 88.9 47.5447 89.5C47.5447 90.16 47.4847 90.58 47.3047 90.76C47.0647 91 46.7647 91.24 46.4047 91.6C46.0447 91.96 45.6847 92.26 45.3847 92.56C45.0247 92.92 44.7847 93.16 44.6047 93.4C44.3647 93.7 44.1847 93.88 44.0647 93.88C43.8847 93.94 43.6447 94 43.2847 94C42.8647 94.06 42.5647 94.06 42.3847 94.06C42.1447 94.12 41.9647 94.3 41.9047 94.6C41.7847 94.84 41.6647 95.02 41.5447 95.14C41.3647 95.32 41.1847 95.38 41.0647 95.38C40.8247 95.44 40.7047 95.38 40.6447 95.2C40.5247 95.08 40.4647 94.78 40.5847 94.3L41.0047 91.96C40.4047 92.32 39.8047 92.56 39.2647 92.8C38.6647 93.04 38.1247 93.28 37.7047 93.4L31.1047 95.8C30.3847 96.1 29.7247 96.28 29.1247 96.28C28.4647 96.4 27.9247 96.4 27.5047 96.4C26.5447 96.28 25.9447 95.74 25.7047 94.72C25.4047 93.76 25.2847 92.62 25.4047 91.3C25.4647 90.64 25.5247 90.04 25.6447 89.5C25.6447 89.02 25.7647 88.48 26.0047 88C26.3047 87.28 26.7847 86.38 27.3847 85.36C27.9847 84.4 28.5247 83.56 29.0047 82.9C29.8447 81.76 30.7447 80.74 31.5847 79.9C32.4247 79.06 32.9047 78.52 33.1447 78.28C33.4447 77.92 33.5647 77.68 33.5647 77.44C33.4447 77.32 33.2047 77.32 32.7847 77.56C32.3047 77.86 31.7647 78.16 31.1647 78.52C30.5047 78.88 29.7847 79.06 29.0047 79C28.2847 79 27.7447 78.76 27.3247 78.34C26.8447 77.98 26.4847 77.5 26.3047 76.9C26.1847 76.66 26.0647 76.3 26.0647 75.94C26.0047 75.64 26.0047 75.34 26.0647 75.04C26.0647 74.8 26.1847 74.62 26.3047 74.44C26.3647 74.32 26.4847 74.26 26.6047 74.38C26.8447 74.62 27.3247 74.86 28.1047 74.98C28.8247 75.16 29.5447 75.22 30.3247 75.1C30.5047 75.1 30.8647 75.04 31.4047 74.92C31.8847 74.8 32.4847 74.68 33.0847 74.5C33.6847 74.38 34.2247 74.2 34.8247 73.96C35.3647 73.84 35.7847 73.72 36.0847 73.6C36.6247 73.48 37.0447 73.36 37.3447 73.24C37.5847 73.24 37.8247 73 38.1847 72.52C38.5447 72.16 38.9647 71.8 39.4447 71.5C39.9247 71.26 40.4047 71.14 41.0047 71.2C41.5447 71.38 42.0847 71.5 42.6847 71.62C43.1647 71.8 43.6447 71.98 44.0047 72.1C44.3047 72.22 44.4847 72.46 44.6047 72.7C44.6647 73.06 44.6647 73.36 44.6047 73.66C44.4847 74.02 44.2447 74.26 43.8847 74.38C43.4047 74.56 42.9847 74.68 42.5047 74.8C41.9047 74.98 41.3647 75.16 40.8847 75.28C40.4047 75.52 39.9247 75.76 39.4447 76C38.9647 76.36 38.4247 76.72 37.9447 77.14C37.4047 77.62 36.8047 78.1 36.2047 78.7C35.9647 78.94 35.6647 79.3 35.3047 79.66C34.9447 80.08 34.5847 80.5 34.2247 80.98C33.8047 81.46 33.3847 82 33.0247 82.48C32.6047 83.08 32.2447 83.62 32.0047 84.1C31.5247 84.82 31.1647 85.66 30.8047 86.5C30.3847 87.4 30.1447 88.24 30.0847 89.02ZM64.2247 75.7C64.2247 76.18 64.2247 76.84 64.2247 77.74C64.1647 78.7 64.1647 79.6 64.1647 80.5C64.1047 81.46 64.1047 82.36 64.1047 83.08C64.0447 83.92 64.0447 84.4 64.0447 84.52V91C63.9847 92.2 63.9247 93.22 63.9247 94.18C63.8647 95.2 63.8047 95.92 63.7447 96.4C63.6847 96.88 63.5647 97.36 63.4447 97.9C63.2647 98.5 63.0847 99.1 62.8447 99.58C62.6047 100.18 62.3647 100.66 62.1247 101.08C61.8847 101.56 61.6447 101.92 61.4047 102.1C61.1647 102.34 60.8647 102.52 60.6247 102.64C60.2647 102.88 60.0247 103 59.7847 103C59.5447 103.12 59.3647 103.06 59.3047 102.94C59.1847 102.82 59.1847 102.58 59.3647 102.1C59.4847 101.74 59.5447 100.96 59.6047 99.7C59.6047 98.5 59.6647 97.18 59.7247 95.62C59.7247 94.18 59.7247 92.68 59.7247 91.18C59.6647 89.74 59.6647 88.6 59.6647 87.76C59.6647 86.98 59.6647 86.02 59.6647 84.88C59.6047 83.8 59.6047 82.72 59.6047 81.64C59.6047 80.62 59.6047 79.72 59.6047 78.94C59.6047 78.22 59.6047 77.86 59.6647 77.8C59.7847 77.68 59.9647 77.56 60.0847 77.56C60.2047 77.56 60.2647 77.44 60.3847 77.14C60.3847 77.02 60.3847 76.84 60.3247 76.72C60.2047 76.6 60.1447 76.48 60.0847 76.3C59.9647 76.18 59.8447 76 59.7847 75.76C59.6647 75.58 59.6647 75.34 59.7247 74.98C59.7847 74.56 59.8447 74.08 59.8447 73.54C59.7847 73.06 59.7847 72.58 59.7847 71.98C59.7847 70.84 59.7847 69.94 59.8447 69.22C59.8447 68.62 59.7847 68.02 59.7847 67.42C59.7247 67 59.7247 66.52 59.7247 65.98C59.6647 65.5 59.4247 65.08 59.0047 64.66C58.5247 64.3 58.1047 64.06 57.7447 63.88C57.3247 63.76 56.9647 63.58 56.6647 63.34C56.4847 63.22 56.3647 63.1 56.3647 62.86C56.2447 62.68 56.2447 62.5 56.3647 62.26C56.4247 62.14 56.6047 61.96 56.8447 61.84C57.0247 61.78 57.3247 61.78 57.7447 61.9C57.9247 62.02 58.2847 62.14 58.8247 62.26C59.3047 62.44 59.9047 62.62 60.5047 62.74C61.1047 62.98 61.7047 63.16 62.3647 63.28C62.9647 63.52 63.4447 63.64 63.8047 63.7C64.2847 63.82 64.7047 64 65.0647 64.12C65.3047 64.36 65.3647 64.72 65.2447 65.32C65.0047 65.98 64.8247 66.64 64.6447 67.36C64.4047 68.14 64.2847 68.92 64.2847 69.76V72.58C64.2247 73.18 64.2247 73.78 64.2247 74.32C64.2247 74.92 64.2247 75.34 64.2247 75.7ZM42.2647 81.52C41.5447 81.4 41.1847 81.1 41.1247 80.74C41.0047 80.44 41.1847 80.26 41.6647 80.14C42.0247 80.08 42.4447 80.02 42.8047 80.02C43.1647 80.08 43.7647 80.02 44.7247 79.9C45.1447 79.9 45.9247 79.78 47.1247 79.66C48.2647 79.54 49.4047 79.36 50.6047 79C50.5447 78.88 50.5447 78.64 50.6047 78.4C50.6047 78.28 50.6047 78.04 50.6647 77.62C50.6647 77.26 50.6647 76.9 50.6647 76.42V74.26C50.6647 73.48 50.6647 72.82 50.7247 72.22C50.7247 71.74 50.6647 71.26 50.6647 70.78C50.6047 70.36 50.6047 69.88 50.6047 69.34C50.5447 68.86 50.3047 68.44 49.8847 68.02C49.4047 67.66 49.0447 67.42 48.6847 67.24C48.2647 67.12 47.9047 66.94 47.6047 66.7C47.4247 66.58 47.3047 66.46 47.3047 66.22C47.1847 66.04 47.1847 65.86 47.3047 65.62C47.3647 65.5 47.5447 65.32 47.7847 65.2C47.9647 65.14 48.2647 65.14 48.6247 65.2C48.8047 65.32 49.1647 65.44 49.7047 65.56C50.1847 65.74 50.7247 65.92 51.3247 66.1C51.9247 66.34 52.5247 66.52 53.1247 66.64C53.7247 66.82 54.2047 66.94 54.5647 67C55.0447 67.18 55.4647 67.36 55.8247 67.48C56.0647 67.72 56.1247 68.08 55.9447 68.68C55.7047 69.34 55.5247 70 55.4047 70.72C55.1647 71.5 55.1047 72.28 55.1047 73.06C54.9847 73.9 54.9247 74.68 54.9847 75.52C54.9847 76.36 54.9847 77.2 54.9847 77.98C54.9847 78.22 54.9847 78.58 54.9847 79C54.9247 79.48 54.9247 80.02 54.9247 80.5C54.8647 81.04 54.8647 81.52 54.8647 82C54.8047 82.48 54.8047 82.9 54.8047 83.14C54.8047 83.62 54.8047 83.98 54.8047 84.22C54.8047 84.46 54.8047 84.76 54.8647 85V88.12C54.8647 89.44 54.8647 90.52 54.8647 91.48C54.8647 92.44 54.8047 93.04 54.8047 93.28C54.7447 93.64 54.6847 93.88 54.5647 94C54.3847 94.24 54.2047 94.36 54.0847 94.48C53.8447 94.6 53.6647 94.72 53.4847 94.84C53.2447 94.96 53.0047 95.08 52.8847 95.2C52.6447 95.38 52.4647 95.56 52.2847 95.68C52.0447 95.86 51.8047 95.98 51.5647 95.98C51.3247 96.04 51.0847 95.98 50.9647 95.8C50.7247 95.68 50.6047 95.32 50.6047 94.72C50.5447 94.3 50.5447 93.34 50.5447 91.9C50.5447 90.52 50.5447 88.9 50.5447 86.98C50.4247 85.9 50.4247 84.94 50.4247 83.98C50.3647 83.14 50.3647 82.42 50.4247 81.82C50.1247 82.06 49.8847 82.3 49.7047 82.42C49.4647 82.66 49.1647 82.78 48.8647 82.84C48.6247 82.9 48.2647 82.96 47.8447 83.08C47.3647 83.2 46.9447 83.32 46.5247 83.38C46.0447 83.5 45.6247 83.56 45.2647 83.56C44.8447 83.62 44.5447 83.56 44.4247 83.44C44.0647 83.2 43.8247 82.84 43.5847 82.36C43.3447 81.94 42.8647 81.64 42.2647 81.52ZM46.8247 99.52C47.1247 99.52 47.4247 99.7 47.6647 99.94C47.8447 100.24 47.7847 100.6 47.5447 101.02C47.4247 101.26 47.2447 101.5 47.0647 101.86C46.8247 102.28 46.6447 102.7 46.4647 103.06C46.2247 103.54 45.9847 103.9 45.8647 104.26C45.6247 104.68 45.5047 104.98 45.4447 105.16C45.3847 105.4 45.3247 105.82 45.2647 106.3C45.1447 106.9 45.0247 107.44 45.0247 108.04C44.9647 108.64 44.9647 109.24 45.0247 109.84C45.0247 110.38 45.2047 110.8 45.4447 111.1C45.9247 111.64 46.5247 112 47.1847 112.18C47.7847 112.3 48.3847 112.42 48.9847 112.48C49.6447 112.48 50.4847 112.42 51.5647 112.42C52.5247 112.3 53.5447 112.24 54.6247 112.12C55.5847 111.94 56.5447 111.76 57.5047 111.64C58.4047 111.46 59.1247 111.28 59.6047 111.1C60.3847 110.8 61.1047 110.68 61.7647 110.74C62.3647 110.74 62.9047 110.92 63.3847 111.4C63.6247 111.64 63.8647 111.82 64.1647 112.06C64.4047 112.18 64.6447 112.36 64.8847 112.54C65.0047 112.66 65.1247 112.78 65.1847 112.9C65.1847 113.02 65.0647 113.14 64.8247 113.26C64.2847 113.5 63.8047 113.8 63.3247 114.04C62.8447 114.22 62.1847 114.4 61.4047 114.64C61.0447 114.76 60.7447 114.88 60.6247 115.06C60.3847 115.18 60.2647 115.3 60.1447 115.48C59.9647 115.6 59.7847 115.78 59.6047 115.96C59.3647 116.08 59.0647 116.14 58.6447 116.26C58.1647 116.32 57.3847 116.38 56.3647 116.44C55.2847 116.44 54.0847 116.38 52.8847 116.38C51.6247 116.32 50.4247 116.26 49.3447 116.2C48.2047 116.08 47.3647 116.02 46.7647 115.9C46.0447 115.72 45.3247 115.48 44.7247 115.24C44.0647 114.88 43.5247 114.52 43.0447 114.04C42.5647 113.5 42.2047 112.9 41.9647 112.24C41.6647 111.52 41.5447 110.68 41.6047 109.72C41.6647 108.52 41.7247 107.44 41.7847 106.36C41.7847 105.34 41.8447 104.56 41.8447 103.96C41.8447 103.6 41.7247 103.3 41.4847 103C41.1847 102.76 40.9447 102.52 40.7047 102.16C40.5847 102.04 40.4647 101.92 40.3447 101.68C40.1647 101.56 40.0447 101.38 39.9247 101.14C39.8047 100.96 39.7447 100.72 39.7447 100.48C39.6847 100.24 39.7447 100 39.9247 99.7C40.2247 99.1 40.4647 98.74 40.7047 98.62C40.8847 98.56 41.1247 98.62 41.4247 98.8C41.5447 98.92 41.6047 99.04 41.6647 99.16C41.6647 99.28 41.6647 99.4 41.6647 99.46C41.6647 99.58 41.6647 99.7 41.7247 99.76C41.7247 99.88 41.8447 99.88 42.0847 99.88C42.4447 100 42.8047 99.94 43.1647 99.76C43.4647 99.64 43.8847 99.52 44.3647 99.46C44.7847 99.46 45.2047 99.4 45.6847 99.4C46.1047 99.46 46.4647 99.52 46.8247 99.52Z" fill="white"/>
<rect x="90.5" y="0.5" width="90" height="120" fill="#F6C500"/>
<rect x="90.5" y="0.5" width="90" height="120" stroke="black"/>
<path d="M123.251 58.54C123.491 58.6 123.731 58.6 123.971 58.6C124.211 58.66 124.451 58.72 124.691 58.78L130.871 49.12C131.051 48.82 131.111 48.58 131.051 48.4C130.931 48.28 130.691 48.22 130.391 48.28C130.031 48.52 129.731 48.7 129.491 48.82C129.131 49 128.831 49.12 128.471 49.24C128.231 49.36 127.871 49.48 127.451 49.6C126.971 49.84 126.671 50.14 126.491 50.5C126.371 50.74 126.131 50.92 125.831 51.1C125.471 51.34 125.111 51.58 124.751 51.76C124.271 52 123.851 52.12 123.371 52.18C122.891 52.3 122.411 52.3 121.991 52.18C121.511 52.06 121.091 51.88 120.671 51.52C120.191 51.22 119.711 50.86 119.291 50.5C118.811 50.14 118.451 49.78 118.091 49.42C117.731 49.12 117.431 48.88 117.191 48.7C116.711 48.4 116.591 48.16 116.711 47.92C116.831 47.74 117.071 47.68 117.491 47.74C117.671 47.74 118.031 47.8 118.571 47.8C119.051 47.86 119.531 47.86 120.131 47.86C120.671 47.92 121.211 47.92 121.811 47.86C122.351 47.86 122.831 47.86 123.191 47.74C123.611 47.62 124.091 47.56 124.691 47.68C125.231 47.8 125.591 47.86 125.771 47.86C125.951 47.86 126.311 47.74 126.791 47.38C127.211 47.08 127.751 46.78 128.471 46.54L131.591 45.4C132.071 45.28 132.431 45.1 132.671 44.74C132.671 44.68 132.731 44.56 132.791 44.38C132.791 44.26 132.911 44.14 133.031 44.02C133.151 43.9 133.331 43.84 133.571 43.78C133.751 43.78 134.111 43.78 134.591 43.9C135.551 44.14 136.331 44.44 136.991 44.68C137.591 44.98 138.131 45.22 138.491 45.4C138.611 45.52 138.731 45.64 138.851 45.88C138.851 46.12 138.851 46.36 138.851 46.6C138.791 46.9 138.671 47.2 138.551 47.44C138.371 47.74 138.131 47.98 137.891 48.1C137.351 48.4 136.931 48.76 136.571 49.18C136.151 49.66 135.791 50.08 135.491 50.5L128.411 59.68C129.011 59.86 129.671 60.04 130.271 60.16C130.811 60.34 131.351 60.52 131.951 60.7C133.331 61.18 134.711 61.72 136.091 62.38C137.411 63.1 138.731 64.06 139.991 65.2C140.711 65.92 141.371 66.58 142.031 67.3C142.631 68.08 142.871 69.1 142.691 70.3C142.571 70.9 142.391 71.32 142.211 71.56C141.971 71.86 141.791 72.04 141.551 72.16C141.311 72.28 141.071 72.4 140.891 72.4C140.651 72.46 140.411 72.58 140.291 72.7C140.111 72.88 139.871 72.94 139.631 72.94C139.331 73 139.091 73 138.851 72.88C138.551 72.82 138.311 72.7 138.131 72.46C137.891 72.34 137.831 72.1 137.891 71.74C137.891 71.5 137.891 71.2 137.891 70.96C137.831 70.78 137.771 70.6 137.771 70.42C137.651 70.3 137.591 70.12 137.591 69.94C137.531 69.82 137.531 69.64 137.591 69.4C137.651 68.98 137.711 68.62 137.771 68.38C137.771 68.2 137.591 67.96 137.291 67.6C136.271 66.52 135.071 65.62 133.691 64.78C132.251 64 130.991 63.34 129.791 62.8C129.311 62.68 128.831 62.5 128.291 62.38C127.691 62.32 127.151 62.2 126.551 62.08L126.491 62.2C125.891 62.98 125.231 63.88 124.451 64.84C123.611 65.92 122.831 66.88 122.111 67.78C121.271 68.74 120.611 69.58 120.011 70.3C119.351 71.08 118.931 71.56 118.691 71.8C118.031 72.4 117.311 72.76 116.531 72.94C115.691 73.18 114.971 73.24 114.491 73C113.891 72.76 113.411 72.58 112.991 72.34C112.511 72.16 112.211 71.98 112.091 71.74C111.911 71.62 111.911 71.38 112.031 71.14C112.151 70.9 112.331 70.84 112.691 70.9C112.991 71.02 113.471 71.08 114.071 71.08C114.671 71.14 115.271 70.9 115.991 70.3C116.351 70.06 116.771 69.64 117.371 68.92C117.911 68.32 118.511 67.54 119.231 66.7C119.831 65.86 120.491 65.02 121.151 64.06C121.751 63.16 122.351 62.32 122.951 61.48C122.531 61.42 122.171 61.3 121.931 61.18C121.571 61.12 121.331 61 121.151 60.88C121.031 60.82 120.971 60.76 120.971 60.7C120.971 60.7 120.851 60.7 120.611 60.76C120.371 60.82 120.131 60.88 119.891 60.88C119.591 60.94 119.351 60.94 119.171 60.82C118.931 60.7 118.871 60.58 118.871 60.46C118.871 60.4 118.691 60.34 118.451 60.28C118.151 60.28 117.911 60.28 117.671 60.28C117.431 60.34 117.131 60.34 116.771 60.22C116.351 60.16 116.111 60.04 116.111 59.86C116.051 59.74 116.291 59.62 116.831 59.44C117.191 59.32 117.731 59.14 118.331 58.96C118.931 58.84 119.531 58.78 120.131 58.66C120.731 58.6 121.271 58.54 121.871 58.48C122.411 58.48 122.891 58.54 123.251 58.54ZM153.431 44.44C153.431 44.8 153.371 45.22 153.371 45.76C153.311 46.36 153.311 47.02 153.311 47.62C153.251 48.28 153.251 48.88 153.251 49.42C153.191 50.02 153.191 50.5 153.191 50.8C153.191 51.46 153.191 52 153.251 52.48C153.251 53.02 153.251 53.5 153.251 53.98C153.251 54.52 153.251 55.06 153.311 55.6C153.311 56.2 153.311 56.92 153.311 57.7C153.311 58.3 153.311 58.96 153.371 59.68C153.371 60.46 153.371 61.18 153.371 61.9C153.371 62.68 153.371 63.4 153.371 64.06C153.311 64.78 153.311 65.44 153.311 65.92C153.191 68.08 153.191 69.82 153.191 71.26C153.131 72.76 153.131 73.78 153.131 74.32C153.131 75.28 153.011 76.3 152.891 77.44C152.651 78.58 152.471 79.72 152.231 80.8C151.931 81.88 151.631 82.84 151.391 83.74C151.031 84.58 150.791 85.24 150.551 85.6C150.311 85.96 150.011 86.38 149.771 86.8C149.411 87.16 149.171 87.4 148.931 87.58C148.631 87.7 148.451 87.64 148.331 87.4C148.211 87.1 148.211 86.5 148.391 85.6C148.511 84.7 148.631 83.32 148.751 81.46C148.751 79.54 148.811 77.5 148.871 75.28C148.871 73.12 148.871 70.96 148.871 68.8C148.811 66.7 148.811 64.96 148.811 63.64C148.871 62.62 148.871 61.54 148.811 60.46C148.691 59.38 148.691 58.12 148.691 56.56C148.631 55.6 148.631 54.58 148.631 53.5C148.571 52.48 148.571 51.52 148.571 50.68C148.571 49.9 148.571 49.24 148.571 48.7C148.571 48.22 148.571 47.92 148.631 47.86C148.751 47.74 148.931 47.62 149.111 47.62C149.231 47.62 149.291 47.5 149.411 47.2C149.411 47.08 149.411 46.9 149.351 46.78C149.231 46.66 149.171 46.54 149.111 46.36C148.991 46.24 148.871 46.06 148.811 45.82C148.691 45.64 148.691 45.4 148.751 45.04C148.811 44.62 148.871 44.14 148.871 43.54C148.811 43.06 148.811 42.52 148.811 41.92C148.751 40.72 148.751 39.82 148.871 39.16C148.871 38.56 148.871 38.02 148.811 37.42C148.751 37 148.751 36.52 148.751 35.98C148.691 35.5 148.451 35.08 147.971 34.66C147.491 34.3 147.071 34.06 146.651 33.88C146.171 33.76 145.811 33.58 145.451 33.34C145.211 33.22 145.091 33.1 145.091 32.86C145.031 32.68 145.091 32.5 145.211 32.26C145.271 32.14 145.451 31.96 145.691 31.84C145.931 31.78 146.231 31.78 146.651 31.9C146.831 32.02 147.191 32.08 147.791 32.2C148.271 32.38 148.871 32.56 149.591 32.68C150.191 32.92 150.851 33.1 151.511 33.22C152.111 33.4 152.591 33.52 153.011 33.58C153.551 33.76 153.971 33.94 154.331 34.06C154.631 34.3 154.691 34.66 154.511 35.26C154.271 35.92 154.091 36.58 153.911 37.3C153.671 38.08 153.551 38.86 153.551 39.7C153.551 40.24 153.491 40.96 153.491 41.92C153.431 42.88 153.431 43.72 153.431 44.44Z" fill="white"/>
<rect x="180.5" y="30.5" width="90" height="120" fill="#F6C500"/>
<rect x="180.5" y="30.5" width="90" height="120" stroke="black"/>
<path d="M229.809 92.86C229.869 94 229.929 95.2 229.989 96.46C229.989 97.78 229.809 99.1 229.449 100.48C229.209 101.32 228.909 102.04 228.549 102.64C228.189 103.3 227.829 103.78 227.589 104.08C227.229 104.5 226.929 104.68 226.689 104.56C226.329 104.56 226.089 104.14 225.969 103.3C225.789 102.46 225.609 101.62 225.429 100.78C225.189 100 225.009 99.4 224.769 98.92C224.469 98.56 224.409 98.2 224.589 97.9C224.709 97.66 224.889 97.36 225.069 96.94C225.249 96.52 225.369 96.22 225.429 95.98C225.429 95.86 225.369 95.56 225.249 95.2C225.069 94.9 224.949 94.6 224.949 94.24C224.829 93.94 224.949 93.7 225.249 93.58C225.489 93.46 225.669 93.28 225.849 93.1C225.969 92.98 226.029 92.68 226.149 92.14C226.149 91.9 226.149 91.66 226.149 91.3C226.149 91 226.089 90.7 226.089 90.34C224.709 90.64 223.209 90.94 221.529 91.24C219.789 91.6 218.169 91.9 216.609 92.14C215.049 92.5 213.669 92.74 212.469 92.92C211.269 93.16 210.489 93.34 210.189 93.4C209.709 93.52 209.169 93.58 208.629 93.58C208.029 93.7 207.489 93.7 206.949 93.7C206.349 93.7 205.749 93.64 205.269 93.52C204.729 93.46 204.249 93.34 203.889 93.1C203.049 92.68 202.449 92.26 201.969 91.9C201.489 91.6 201.009 91.3 200.589 91C200.349 90.88 200.169 90.7 200.109 90.46C199.989 90.28 199.929 90.1 200.049 89.86C200.049 89.74 200.229 89.56 200.469 89.44C200.709 89.32 201.009 89.32 201.489 89.44C202.209 89.68 203.049 89.74 204.009 89.68C204.849 89.68 205.809 89.62 206.889 89.5C207.249 89.5 208.089 89.44 209.409 89.32C210.609 89.2 212.049 89.08 213.729 88.9C215.349 88.78 217.089 88.6 218.949 88.42C220.749 88.3 222.489 88.12 224.109 87.94C225.669 87.82 227.049 87.64 228.189 87.52C229.269 87.4 229.989 87.34 230.289 87.34C230.769 87.34 231.609 87.22 232.869 87.1C234.069 86.98 235.389 86.86 236.769 86.68C238.089 86.56 239.289 86.44 240.369 86.32C241.449 86.26 242.049 86.2 242.289 86.2C242.469 86.2 242.709 86.08 242.949 85.84C243.189 85.6 243.429 85.36 243.789 85.12C244.029 84.94 244.389 84.76 244.749 84.64C245.049 84.58 245.409 84.64 245.889 84.88C246.249 85.12 246.669 85.42 247.149 85.78C247.569 86.14 247.989 86.5 248.469 86.8C248.829 87.16 249.249 87.46 249.609 87.7C249.909 88 250.149 88.18 250.389 88.3C250.569 88.42 250.689 88.66 250.809 88.9C250.869 89.2 250.869 89.5 250.869 89.74C250.749 90.04 250.629 90.28 250.509 90.46C250.269 90.7 250.029 90.76 249.789 90.7C249.309 90.7 248.709 90.64 247.989 90.64C247.209 90.7 246.429 90.76 245.589 90.88C244.689 91 243.849 91.18 243.009 91.36C242.169 91.6 241.449 91.84 240.849 92.2C239.949 92.68 239.289 92.8 238.869 92.62C238.389 92.5 238.569 92.2 239.289 91.6C239.589 91.36 239.949 91.06 240.369 90.64C240.729 90.28 241.089 89.92 241.389 89.56C241.629 89.2 241.749 88.9 241.869 88.66C241.869 88.42 241.749 88.3 241.389 88.3C241.029 88.3 240.309 88.36 239.349 88.42C238.329 88.54 237.249 88.6 236.109 88.72C234.909 88.84 233.709 88.96 232.629 89.08C231.489 89.26 230.589 89.38 229.989 89.5L228.609 89.8C229.209 90.88 229.569 91.9 229.809 92.86ZM217.089 67.66C217.929 67.6 219.009 67.42 220.209 67.18C221.349 67 222.549 66.76 223.869 66.46C225.069 66.22 226.329 65.98 227.589 65.62C228.789 65.38 229.929 65.08 230.889 64.84C231.489 64.66 232.089 64.66 232.629 64.78C233.109 64.96 233.709 65.14 234.429 65.32C235.089 65.56 235.809 65.8 236.529 66.04C237.189 66.34 237.729 66.58 238.209 66.82C238.629 67.06 238.929 67.42 239.049 67.96C239.169 68.56 239.109 69.4 238.989 70.48C238.869 71.08 238.749 71.8 238.569 72.64C238.329 73.6 238.149 74.5 237.969 75.46C237.729 76.48 237.489 77.44 237.309 78.4C237.069 79.36 236.949 80.14 236.889 80.74C236.769 81.34 236.709 81.76 236.709 82C236.649 82.24 236.589 82.42 236.589 82.48C236.469 82.6 236.409 82.66 236.349 82.72C236.229 82.84 236.109 83.02 235.989 83.38C235.749 84.1 235.389 84.52 235.029 84.64C234.549 84.88 234.189 84.76 233.889 84.28C233.649 83.86 233.289 83.44 232.809 83.08C232.269 82.72 231.729 82.36 231.189 81.94C230.529 81.58 230.289 81.28 230.529 80.98C230.649 80.74 231.069 80.62 231.789 80.62C232.449 80.74 232.929 80.62 233.229 80.26C233.469 80.02 233.589 79.66 233.589 79.3C233.589 79.12 233.589 78.64 233.649 77.86C233.649 77.14 233.709 76.36 233.829 75.46C233.829 74.62 233.889 73.84 234.009 73C234.069 72.28 234.129 71.68 234.189 71.32C234.249 70.48 234.129 69.76 233.829 69.28C233.469 68.8 232.989 68.5 232.389 68.38C231.789 68.32 231.189 68.26 230.469 68.2C229.749 68.2 229.149 68.26 228.789 68.26C228.069 68.5 227.409 68.68 226.689 68.8C225.909 69.04 225.309 69.16 224.889 69.28C224.409 69.46 223.869 69.64 223.269 69.88C222.609 70.12 222.009 70.36 221.409 70.54C220.749 70.78 220.149 71.02 219.549 71.14C218.949 71.32 218.409 71.38 217.989 71.32C216.549 71.26 215.349 70.96 214.389 70.36C213.309 69.82 212.529 69.34 211.989 68.98C211.809 68.86 211.689 68.74 211.629 68.5C211.509 68.38 211.509 68.2 211.569 68.02C211.569 67.9 211.629 67.72 211.869 67.6C211.989 67.54 212.229 67.54 212.589 67.54C212.829 67.6 213.129 67.6 213.549 67.6C213.909 67.66 214.269 67.66 214.749 67.66C215.169 67.66 215.589 67.66 216.069 67.66C216.429 67.66 216.789 67.66 217.089 67.66ZM220.569 99.4C220.869 99.4 221.169 99.58 221.409 99.82C221.589 100.12 221.529 100.48 221.289 100.9C221.169 101.14 220.989 101.44 220.809 101.8C220.569 102.22 220.389 102.64 220.209 103C219.969 103.48 219.729 103.84 219.609 104.2C219.369 104.62 219.249 104.92 219.189 105.1C219.129 105.34 219.069 105.76 219.009 106.24C218.889 106.84 218.769 107.44 218.769 108.04C218.709 108.64 218.709 109.24 218.769 109.84C218.769 110.38 218.949 110.8 219.189 111.1C219.669 111.64 220.269 112 220.989 112.18C221.589 112.3 222.189 112.42 222.789 112.48C223.449 112.48 224.349 112.42 225.489 112.42C226.569 112.3 227.769 112.24 228.969 112.12C230.109 111.94 231.189 111.76 232.269 111.64C233.229 111.46 234.009 111.28 234.489 111.1C235.269 110.8 235.929 110.68 236.529 110.74C237.069 110.74 237.609 110.92 238.089 111.4C238.329 111.64 238.569 111.82 238.869 112C239.109 112.12 239.349 112.3 239.589 112.48C239.709 112.6 239.829 112.72 239.889 112.84C239.889 112.96 239.829 113.08 239.589 113.2C239.049 113.44 238.569 113.74 238.149 113.98C237.669 114.16 237.069 114.34 236.289 114.58C235.929 114.7 235.629 114.82 235.509 115C235.269 115.12 235.149 115.24 235.029 115.42C234.849 115.54 234.669 115.72 234.489 115.9C234.249 116.02 233.949 116.08 233.529 116.2C233.049 116.26 232.209 116.32 231.009 116.38C229.809 116.38 228.489 116.38 227.169 116.38C225.729 116.32 224.409 116.26 223.209 116.2C221.889 116.08 220.989 116.02 220.389 115.9C218.949 115.6 217.689 114.94 216.729 113.98C215.649 112.9 215.169 111.46 215.289 109.6C215.349 108.4 215.409 107.38 215.529 106.3C215.529 105.28 215.589 104.5 215.589 103.9C215.589 103.54 215.409 103.24 215.169 102.94C214.869 102.7 214.629 102.46 214.389 102.1C214.149 101.86 213.909 101.5 213.669 101.08C213.309 100.72 213.309 100.3 213.669 99.7C213.969 99.1 214.209 98.74 214.449 98.62C214.629 98.56 214.869 98.62 215.169 98.8C215.289 98.92 215.349 99.04 215.409 99.16C215.409 99.28 215.409 99.4 215.409 99.46C215.409 99.58 215.409 99.7 215.469 99.76C215.469 99.88 215.589 99.88 215.829 99.88C216.189 100 216.549 99.94 216.909 99.76C217.209 99.64 217.629 99.52 218.109 99.46C218.529 99.46 218.949 99.4 219.429 99.34C219.849 99.34 220.209 99.4 220.569 99.4Z" fill="white"/>
</svg>
