<svg width="361" height="181" viewBox="0 0 361 181" fill="none" xmlns="http://www.w3.org/2000/svg">
<rect x="0.5" y="30.5" width="90" height="120" fill="#F6C500"/>
<rect x="0.5" y="30.5" width="90" height="120" stroke="black"/>
<path d="M55.7506 98.56C56.0506 98.08 56.0506 97.84 55.8106 97.78C55.4506 97.78 55.1506 97.72 54.8506 97.72C54.2506 97.72 53.7106 97.78 53.2306 97.84C52.6906 97.96 52.1506 98.08 51.6706 98.32C51.4306 98.44 51.0706 98.56 50.6506 98.68C50.1706 98.86 49.7506 98.98 49.3306 99.1C48.8506 99.28 48.3706 99.4 47.9506 99.46C47.4706 99.58 47.1106 99.7 46.8706 99.7C46.6306 99.76 46.3306 99.88 45.8506 100C45.3706 100.18 44.8306 100.36 44.3506 100.48C43.8106 100.66 43.3306 100.78 42.9106 100.9C42.4306 101.08 42.0706 101.14 41.8906 101.14C41.4106 101.14 41.0506 100.9 40.8706 100.54C40.6306 100.18 40.4506 99.82 40.3906 99.34C40.3906 99.22 40.3306 98.92 40.3306 98.5C40.2706 98.14 40.2106 97.72 40.2106 97.24C40.1506 96.88 40.0906 96.46 40.0906 96.1C40.0306 95.74 40.0306 95.5 40.0906 95.32C40.0906 95.02 40.2706 94.84 40.6306 94.72C40.8706 94.66 41.1106 94.78 41.2306 95.02C41.4106 95.68 41.6506 96.1 42.0106 96.34C42.3106 96.58 43.0306 96.7 44.2306 96.7C44.4706 96.7 44.9506 96.7 45.6106 96.64C46.2106 96.64 46.8106 96.58 47.5306 96.46C48.1306 96.4 48.7906 96.34 49.3906 96.22C49.9306 96.22 50.3506 96.16 50.5906 96.04C51.4306 95.92 52.3306 95.8 53.4106 95.68C53.5906 95.68 53.8906 95.68 54.2506 95.68C54.5506 95.74 54.8506 95.8 55.2106 95.8C55.5706 95.86 55.9306 95.92 56.3506 95.92C56.4106 95.92 56.5306 95.92 56.6506 95.86C56.8906 95.8 57.1306 95.62 57.3706 95.32C57.6106 95.08 57.9706 95.02 58.4506 95.02C58.8706 95.14 59.3506 95.32 59.8306 95.56C59.9506 95.68 60.1306 95.74 60.3706 95.8C60.5506 95.92 60.7306 96.04 60.9706 96.16C61.1506 96.34 61.3306 96.52 61.5106 96.64C61.6306 96.82 61.6306 97 61.6306 97.24C61.5706 97.78 61.4506 98.32 61.2106 98.8C60.9706 99.34 60.3106 99.88 59.2906 100.48C58.2106 101.08 57.0706 101.5 55.8106 101.74C54.4906 101.98 53.3506 102.28 52.4506 102.58C52.1506 102.7 51.7906 102.76 51.4306 102.88C50.9506 103.06 50.4706 103.18 49.9906 103.3C49.0306 103.78 48.4306 104.08 48.2506 104.26C48.0106 104.44 48.0106 104.56 48.3106 104.62C48.5506 104.74 48.9706 104.8 49.5106 104.8C49.9906 104.86 50.4706 104.86 51.0706 104.86C51.5506 104.86 51.9706 104.86 52.2106 104.86C52.6306 104.86 52.9306 104.8 53.1106 104.62C53.2306 104.5 53.4706 104.32 53.7106 104.08C53.8906 103.9 54.1906 103.78 54.5506 103.66C54.8506 103.66 55.3906 103.66 56.1106 103.66C56.8306 103.72 57.3706 103.78 57.8506 103.9C58.2706 104.02 58.6306 104.14 58.9306 104.14C59.0506 104.14 59.1706 104.2 59.4106 104.32C59.5906 104.44 59.7706 104.62 59.8906 104.74C59.9506 104.98 59.9506 105.16 59.8306 105.4C59.7106 105.7 59.3506 106 58.8706 106.3C58.5106 106.54 57.9706 106.78 57.2506 107.08C56.5306 107.44 55.7506 107.74 54.9106 108.16C54.0106 108.52 53.1106 108.88 52.2106 109.3C51.2506 109.66 50.4106 109.96 49.6906 110.32C48.8506 110.62 48.1906 110.92 47.7106 111.16C47.1106 111.34 46.8106 111.46 46.7506 111.58C46.3906 111.76 46.3306 112 46.4506 112.24C46.5706 112.48 46.8106 112.6 47.2906 112.72C47.5306 112.72 47.9506 112.84 48.6106 113.08C49.2106 113.2 49.8706 113.44 50.5906 113.68C51.3106 113.86 51.9706 114.04 52.6306 114.28C53.2306 114.46 53.7106 114.58 54.0106 114.64C54.4306 114.7 54.9706 114.76 55.6906 114.76C56.2906 114.76 57.0106 114.7 57.7306 114.7C58.3906 114.64 59.0506 114.58 59.7106 114.52C60.3106 114.4 60.7306 114.34 61.0906 114.28C61.4506 114.16 61.8706 114.1 62.3506 114.04C62.7706 113.92 63.2506 113.86 63.7306 113.8C64.1506 113.68 64.5706 113.62 64.9306 113.62C65.2906 113.56 65.5306 113.56 65.7106 113.56C65.8306 113.56 66.1306 113.5 66.5506 113.5C66.9106 113.44 67.3306 113.44 67.7506 113.44C68.1106 113.44 68.4706 113.44 68.8306 113.5C69.0706 113.5 69.1906 113.62 69.1906 113.8C69.0706 114.16 69.1906 114.4 69.4906 114.58C69.7306 114.7 69.9706 114.76 70.2106 114.76C70.3306 114.76 70.5106 114.76 70.8106 114.82C71.0506 114.82 71.0506 115.06 70.6906 115.54C70.3306 115.96 69.9106 116.32 69.4306 116.56C68.8906 116.8 68.4106 116.92 67.9306 117.04C67.5706 117.1 67.0306 117.22 66.3106 117.4C65.5306 117.52 64.7506 117.64 63.9706 117.82C63.1306 117.94 62.3506 118.06 61.6306 118.18C60.8506 118.24 60.2506 118.3 59.8906 118.3C58.9906 118.3 57.9106 118.24 56.5906 118.18C55.2106 118.06 54.0106 117.88 53.0506 117.58C52.5106 117.4 51.9106 117.22 51.2506 116.98C50.5306 116.68 49.8106 116.44 49.2106 116.2C48.4906 115.96 47.8906 115.72 47.4106 115.54C46.8106 115.3 46.4506 115.18 46.2706 115.06C45.7906 114.88 45.3106 114.82 44.8306 114.94C44.2906 114.94 43.6906 115 43.0306 115C42.3106 115 41.7106 114.88 41.2906 114.7C40.8106 114.46 40.6306 113.98 40.7506 113.32C40.8106 112.6 40.9306 112 41.0506 111.4C41.1706 110.74 41.4706 110.44 42.0706 110.44C42.6106 110.44 43.1506 110.5 43.6906 110.62C44.1706 110.68 44.6506 110.62 45.1306 110.44C45.5506 110.2 46.0906 110.02 46.6906 109.9C47.2306 109.66 47.7706 109.42 48.3706 109.06C48.8506 108.7 49.0906 108.52 49.0906 108.46C49.0906 108.34 48.7906 108.28 48.2506 108.28C47.8906 108.28 47.4106 108.28 46.8106 108.28C46.0906 108.28 45.4306 108.22 44.8306 108.1C44.1106 107.98 43.5706 107.8 43.0906 107.56C42.6106 107.32 42.3706 106.96 42.4906 106.48C42.4906 106 42.5506 105.64 42.6106 105.4C42.6106 105.16 42.6706 104.98 42.7906 104.8C42.8506 104.68 42.9706 104.5 43.1506 104.38C43.2706 104.32 43.4506 104.14 43.7506 103.9C43.9306 103.78 44.3506 103.54 45.0706 103.24C45.7306 103 46.5106 102.76 47.4706 102.4C48.3106 102.1 49.2706 101.74 50.2906 101.32C51.2506 100.96 52.2106 100.6 53.0506 100.24C53.4106 100.06 53.9506 99.82 54.5506 99.52C55.0906 99.28 55.5106 98.92 55.7506 98.56ZM37.0906 73.72C37.2706 73.06 37.2106 72.4 36.9706 71.68C36.6706 71.08 36.3706 70.54 36.0706 70.06C35.9506 69.88 35.7706 69.64 35.6506 69.34C35.4706 69.1 35.3506 68.86 35.2906 68.62C35.0506 68.26 35.1706 67.96 35.5306 67.66C35.8906 67.42 36.2506 67.54 36.6706 67.9C36.9106 68.26 37.1506 68.56 37.3906 68.86C37.6306 69.22 38.0506 69.58 38.7706 70C39.1306 70.36 39.7306 70.66 40.4506 70.9C41.1706 71.26 41.7106 71.56 42.1906 71.8C42.5506 72.04 42.9106 72.28 43.1506 72.64C43.3306 73 43.0906 73.66 42.4906 74.5C42.0706 75.04 41.6506 75.7 41.2306 76.48C40.7506 77.32 40.3906 78.04 40.0906 78.7C39.6106 79.66 39.1906 80.44 38.7706 81.1C39.4906 81.46 40.2706 81.76 41.0506 82.06C41.7706 82.42 42.5506 82.78 43.2706 83.08C43.9306 83.44 44.5306 83.8 45.1306 84.04C45.6106 84.34 46.0306 84.58 46.3906 84.7L50.2906 86.8C50.4706 86.98 50.6506 87.22 50.8306 87.58C50.9506 88 51.0106 88.54 50.8906 89.2C50.7706 89.92 50.7106 90.34 50.7706 90.52C50.7706 90.76 50.7706 91.12 50.7706 91.6C50.7706 92.14 50.5906 92.5 50.1706 92.68C49.6906 92.92 49.2706 92.74 48.7906 92.2C48.3106 91.84 47.7106 91.3 46.9306 90.58C46.0906 89.86 45.1906 89.08 44.2306 88.18C43.1506 87.34 42.0706 86.44 40.9306 85.48C39.7306 84.64 38.5906 83.8 37.5106 83.02C36.6706 84.22 35.8306 85.3 34.9306 86.26C33.9706 87.28 33.0106 88.24 31.9906 89.2C31.2706 89.86 30.4906 90.4 29.7106 90.76C28.8706 91.24 28.0906 91.54 27.3106 91.78C26.4706 92.02 25.7506 92.2 25.0306 92.2C24.2506 92.32 23.5906 92.32 22.9906 92.2C22.5106 92.2 22.2106 92.08 22.0906 91.96C21.8506 91.84 21.7906 91.72 21.8506 91.54C21.8506 91.42 21.9106 91.3 22.0906 91.18C22.2106 91.12 22.4506 91.06 22.6906 91C23.2906 90.94 23.8306 90.88 24.3706 90.76C24.8506 90.76 25.3306 90.64 25.8106 90.4C26.2906 90.28 26.7706 89.98 27.3106 89.56C27.7906 89.2 28.3906 88.72 28.9906 88C29.7706 87.16 30.6106 86.08 31.5706 84.88C32.4106 83.68 33.2506 82.48 34.0306 81.16C33.1306 80.8 32.2906 80.44 31.5706 80.14C30.7306 79.9 30.1906 79.66 29.8906 79.48C29.1706 79.18 28.8706 78.88 28.9906 78.52C29.1106 78.28 29.5906 78.22 30.4306 78.4C31.1506 78.52 31.9906 78.76 32.9506 79C33.7906 79.36 34.4506 79.54 34.8706 79.6L35.2906 78.7C35.4106 78.46 35.5306 78.04 35.7706 77.56C35.8906 77.08 36.0706 76.6 36.3106 76.06C36.4306 75.58 36.6106 75.16 36.7906 74.68C36.9106 74.26 36.9706 73.96 37.0906 73.72ZM63.1906 73.84C63.1906 74.2 63.1306 74.62 63.1306 75.22C63.0706 75.82 63.0706 76.54 63.0706 77.26C63.0106 78.1 63.0106 78.94 63.0106 79.78C62.9506 80.74 62.9506 81.64 62.9506 82.48V83.5H62.8906C62.8906 84.1 62.8306 84.7 62.8306 85.24C62.7706 85.84 62.7106 86.26 62.7106 86.62C62.6506 87.1 62.5306 87.58 62.4106 88.12C62.1706 88.72 61.9906 89.26 61.7506 89.74C61.5106 90.34 61.2106 90.82 60.9706 91.24C60.6706 91.72 60.4306 92.02 60.1906 92.2C59.9506 92.44 59.6506 92.62 59.4106 92.74C59.0506 92.98 58.8106 93.1 58.5706 93.1C58.2706 93.22 58.0906 93.16 57.9706 93.04C57.8506 92.92 57.8506 92.68 58.0306 92.2C58.1506 91.9 58.2106 91.42 58.2706 90.76C58.2706 90.16 58.3306 89.38 58.3906 88.54C58.3906 87.76 58.4506 86.92 58.4506 86.02C58.3906 85.18 58.3906 84.34 58.3906 83.5H58.3306C58.2706 81.88 58.2706 80.44 58.2706 79.18C58.2106 77.98 58.2106 77.38 58.3306 77.26C58.4506 77.08 58.6306 76.96 58.8106 76.96C58.9306 77.02 58.9906 76.9 59.1106 76.6C59.1106 76.48 59.1106 76.3 59.0506 76.18C58.9306 76.06 58.8706 75.94 58.8106 75.76C58.6906 75.64 58.5706 75.4 58.5106 75.16C58.3906 74.98 58.3906 74.74 58.4506 74.38C58.5106 73.96 58.5706 73.48 58.5706 72.88C58.5706 72.4 58.5706 71.86 58.5706 71.32C58.5106 70.72 58.5106 70.24 58.5106 69.82C58.5106 69.46 58.5106 69.16 58.5706 68.86C58.5706 68.62 58.5706 68.38 58.5706 68.14C58.5706 67.96 58.5706 67.72 58.5706 67.48C58.4506 67.06 58.4506 66.58 58.4506 66.04C58.3906 65.56 58.1506 65.14 57.6706 64.72C57.1906 64.36 56.7706 64.12 56.4106 63.94C55.9306 63.82 55.5106 63.64 55.1506 63.4C54.9106 63.28 54.7906 63.16 54.7906 62.92C54.7306 62.74 54.7906 62.56 54.9106 62.32C54.9706 62.2 55.1506 62.02 55.3906 61.9C55.6306 61.84 55.9306 61.84 56.3506 61.9C56.5906 62.02 56.9506 62.14 57.5506 62.26C58.0306 62.44 58.6306 62.62 59.2906 62.8C59.8906 63.04 60.5506 63.22 61.2106 63.34C61.8106 63.52 62.3506 63.64 62.7106 63.7C63.2506 63.88 63.6706 64.06 64.0306 64.18C64.3306 64.42 64.3906 64.78 64.2106 65.38C63.9706 66.04 63.7906 66.7 63.6106 67.42C63.3706 68.14 63.2506 68.92 63.2506 69.7C63.2506 70.3 63.2506 70.9 63.2506 71.62C63.1906 72.34 63.1906 73.12 63.1906 73.84Z" fill="white"/>
<rect x="90.5" y="60.5" width="90" height="120" fill="#F6C500"/>
<rect x="90.5" y="60.5" width="90" height="120" stroke="black"/>
<path d="M138.369 93.7C139.089 93.82 139.929 94 140.769 94.24C141.609 94.6 142.389 95.02 143.109 95.56C143.769 96.16 144.369 96.88 144.849 97.72C145.329 98.62 145.569 99.64 145.689 100.84C145.689 101.38 145.749 101.74 145.749 101.98C145.689 102.28 145.629 102.46 145.629 102.52C145.509 102.64 145.449 102.76 145.389 102.76C145.269 102.82 145.209 102.88 145.209 103C145.089 103.12 145.089 103.24 145.209 103.24C145.209 103.36 145.269 103.42 145.389 103.54C145.449 103.72 145.509 103.9 145.569 104.14C145.569 104.38 145.509 104.74 145.389 105.16C144.789 107.56 143.469 109.6 141.429 111.22C140.829 111.7 140.169 112 139.509 112.24C138.789 112.48 138.069 112.66 137.469 112.72C136.749 112.84 136.149 112.84 135.609 112.84C135.009 112.84 134.589 112.84 134.229 112.84C133.389 112.78 132.489 112.6 131.589 112.24C130.629 111.94 129.849 111.58 129.249 111.22C128.289 110.62 127.509 109.84 126.969 108.88C126.369 107.98 126.009 106.96 125.829 105.88C125.589 104.86 125.469 103.84 125.589 102.76C125.649 101.74 125.829 100.84 126.189 100C126.489 99.22 126.969 98.38 127.569 97.48C128.169 96.64 128.949 95.86 130.029 95.14C129.849 94.54 129.669 93.88 129.429 93.28C129.189 92.74 128.949 92.32 128.709 92.02C128.229 91.54 128.109 91.06 128.409 90.7C128.649 90.4 129.069 90.4 129.609 90.7C130.089 91.06 130.509 91.3 130.929 91.48C131.289 91.72 131.889 92.08 132.729 92.44C133.449 92.8 133.989 93.58 134.349 94.66C134.769 94.42 135.369 94.18 136.089 93.94C136.809 93.76 137.529 93.7 138.369 93.7ZM111.489 120.82C112.209 121.06 113.049 121.12 114.009 121.06C114.849 121.06 115.809 121 116.889 120.88C117.249 120.88 118.089 120.82 119.409 120.7C120.609 120.58 122.049 120.46 123.729 120.28C125.349 120.16 127.089 119.98 128.949 119.8C130.749 119.68 132.489 119.5 134.109 119.32C135.669 119.2 137.049 119.02 138.189 118.9C139.269 118.84 139.989 118.78 140.289 118.72C140.769 118.72 141.609 118.6 142.869 118.48C144.069 118.36 145.389 118.24 146.769 118.06C148.089 117.94 149.289 117.82 150.369 117.7C151.449 117.64 152.049 117.58 152.289 117.58C152.469 117.58 152.709 117.46 152.949 117.22C153.189 116.98 153.429 116.74 153.789 116.5C154.029 116.32 154.389 116.14 154.749 116.02C155.049 115.96 155.409 116.02 155.889 116.26C156.249 116.5 156.669 116.8 157.149 117.16C157.569 117.52 157.989 117.88 158.469 118.18C158.829 118.54 159.249 118.84 159.609 119.08C159.909 119.38 160.149 119.56 160.389 119.68C160.569 119.8 160.689 120.04 160.809 120.28C160.869 120.58 160.869 120.88 160.869 121.12C160.749 121.42 160.629 121.66 160.509 121.84C160.269 122.08 160.029 122.14 159.789 122.08C159.309 122.08 158.709 122.02 157.989 122.02C157.209 122.08 156.429 122.14 155.589 122.26C154.689 122.38 153.849 122.56 153.009 122.74C152.169 122.98 151.449 123.22 150.849 123.58C149.949 124.06 149.289 124.18 148.869 124C148.389 123.88 148.569 123.58 149.289 122.98C149.589 122.74 149.949 122.44 150.369 122.02C150.729 121.66 151.089 121.3 151.389 120.94C151.629 120.58 151.749 120.28 151.869 120.04C151.869 119.8 151.749 119.68 151.389 119.68C151.029 119.68 150.309 119.74 149.349 119.8C148.329 119.92 147.249 119.98 146.109 120.1C144.909 120.22 143.709 120.34 142.629 120.46C141.489 120.64 140.589 120.76 139.989 120.88C139.509 121 138.789 121.18 137.769 121.36C136.689 121.6 135.489 121.78 134.169 122.02C132.729 122.32 131.289 122.62 129.849 122.86C128.289 123.22 126.909 123.46 125.589 123.7C124.209 124 123.069 124.24 122.109 124.36C121.089 124.6 120.429 124.72 120.189 124.78C119.709 124.9 119.169 124.96 118.629 124.96C118.029 125.08 117.489 125.08 116.949 125.08C116.349 125.08 115.749 125.02 115.269 124.9C114.729 124.84 114.249 124.72 113.889 124.48C113.049 124.06 112.449 123.64 111.969 123.28C111.489 122.98 111.009 122.68 110.589 122.38C110.349 122.26 110.169 122.08 110.109 121.84C109.989 121.66 109.929 121.48 110.049 121.24C110.049 121.12 110.229 120.94 110.469 120.82C110.709 120.7 111.009 120.7 111.489 120.82ZM131.169 129.4C131.469 129.4 131.769 129.58 132.009 129.82C132.189 130.12 132.129 130.48 131.889 130.9C131.769 131.14 131.589 131.44 131.409 131.8C131.169 132.22 130.989 132.64 130.809 133C130.569 133.48 130.329 133.84 130.209 134.2C129.969 134.62 129.849 134.92 129.789 135.1C129.729 135.34 129.669 135.76 129.609 136.24C129.489 136.84 129.369 137.44 129.369 138.04C129.309 138.64 129.309 139.24 129.369 139.84C129.369 140.38 129.549 140.8 129.789 141.1C130.269 141.64 130.869 142 131.589 142.18C132.189 142.3 132.789 142.42 133.389 142.48C134.049 142.48 134.949 142.42 136.089 142.42C137.169 142.3 138.369 142.24 139.569 142.12C140.709 141.94 141.789 141.76 142.869 141.64C143.829 141.46 144.609 141.28 145.089 141.1C145.869 140.8 146.529 140.68 147.129 140.74C147.669 140.74 148.209 140.92 148.689 141.4C148.929 141.64 149.169 141.82 149.469 142C149.709 142.12 149.949 142.3 150.189 142.48C150.309 142.6 150.429 142.72 150.489 142.84C150.489 142.96 150.429 143.08 150.189 143.2C149.649 143.44 149.169 143.74 148.749 143.98C148.269 144.16 147.669 144.34 146.889 144.58C146.529 144.7 146.229 144.82 146.109 145C145.869 145.12 145.749 145.24 145.629 145.42C145.449 145.54 145.269 145.72 145.089 145.9C144.849 146.02 144.549 146.08 144.129 146.2C143.649 146.26 142.809 146.32 141.609 146.38C140.409 146.38 139.089 146.38 137.769 146.38C136.329 146.32 135.009 146.26 133.809 146.2C132.489 146.08 131.589 146.02 130.989 145.9C129.549 145.6 128.289 144.94 127.329 143.98C126.249 142.9 125.769 141.46 125.889 139.6C125.949 138.4 126.009 137.38 126.129 136.3C126.129 135.28 126.189 134.5 126.189 133.9C126.189 133.54 126.009 133.24 125.769 132.94C125.469 132.7 125.229 132.46 124.989 132.1C124.749 131.86 124.509 131.5 124.269 131.08C123.909 130.72 123.909 130.3 124.269 129.7C124.569 129.1 124.809 128.74 125.049 128.62C125.229 128.56 125.469 128.62 125.769 128.8C125.889 128.92 125.949 129.04 126.009 129.16C126.009 129.28 126.009 129.4 126.009 129.46C126.009 129.58 126.009 129.7 126.069 129.76C126.069 129.88 126.189 129.88 126.429 129.88C126.789 130 127.149 129.94 127.509 129.76C127.809 129.64 128.229 129.52 128.709 129.46C129.129 129.46 129.549 129.4 130.029 129.34C130.449 129.34 130.809 129.4 131.169 129.4ZM133.509 98.26C132.789 98.92 132.189 99.22 131.709 99.1V99.16C131.349 99.04 130.989 99.04 130.749 99.16C130.449 99.34 130.209 99.58 130.029 99.82C129.789 100.18 129.669 100.48 129.609 100.84C129.489 101.26 129.369 101.62 129.369 101.98C129.249 102.7 129.249 103.36 129.309 104.02C129.309 104.74 129.489 105.34 129.789 105.94C130.029 106.54 130.389 107.08 130.989 107.5C131.469 107.98 132.189 108.34 133.149 108.58C134.289 108.94 135.309 109 136.209 108.82C137.049 108.7 137.949 108.4 138.789 108.04C139.869 107.14 140.529 106.12 140.889 105.04C141.189 104.02 141.369 102.88 141.489 101.56C141.549 100.24 141.249 99.04 140.529 97.96C139.809 97 138.789 96.34 137.529 96.04C137.049 95.98 136.569 95.92 136.029 95.92C135.429 95.98 134.949 95.98 134.529 95.98C134.529 96.46 134.409 96.82 134.289 97.18C134.109 97.6 133.869 97.96 133.509 98.26Z" fill="white"/>
<rect x="180.5" y="0.5" width="90" height="120" fill="#F6C500"/>
<rect x="180.5" y="0.5" width="90" height="120" stroke="black"/>
<path d="M232.172 68.56C232.472 68.08 232.472 67.84 232.232 67.78C231.872 67.78 231.572 67.72 231.272 67.72C230.672 67.72 230.132 67.78 229.652 67.84C229.112 67.96 228.572 68.08 228.092 68.32C227.852 68.44 227.492 68.56 227.072 68.68C226.592 68.86 226.172 68.98 225.752 69.1C225.272 69.28 224.792 69.4 224.372 69.46C223.892 69.58 223.532 69.7 223.292 69.7C223.052 69.76 222.752 69.88 222.272 70C221.792 70.18 221.252 70.36 220.772 70.48C220.232 70.66 219.752 70.78 219.332 70.9C218.852 71.08 218.492 71.14 218.312 71.14C217.832 71.14 217.472 70.9 217.292 70.54C217.052 70.18 216.872 69.82 216.812 69.34C216.812 69.22 216.752 68.92 216.752 68.5C216.692 68.14 216.632 67.72 216.632 67.24C216.572 66.88 216.512 66.46 216.512 66.1C216.452 65.74 216.452 65.5 216.512 65.32C216.512 65.02 216.692 64.84 217.052 64.72C217.292 64.66 217.532 64.78 217.652 65.02C217.832 65.68 218.072 66.1 218.432 66.34C218.732 66.58 219.452 66.7 220.652 66.7C220.892 66.7 221.372 66.7 222.032 66.64C222.632 66.64 223.232 66.58 223.952 66.46C224.552 66.4 225.212 66.34 225.812 66.22C226.352 66.22 226.772 66.16 227.012 66.04C227.852 65.92 228.752 65.8 229.832 65.68C230.012 65.68 230.312 65.68 230.672 65.68C230.972 65.74 231.272 65.8 231.632 65.8C231.992 65.86 232.352 65.92 232.772 65.92C232.832 65.92 232.952 65.92 233.072 65.86C233.312 65.8 233.552 65.62 233.792 65.32C234.032 65.08 234.392 65.02 234.872 65.02C235.292 65.14 235.772 65.32 236.252 65.56C236.372 65.68 236.552 65.74 236.792 65.8C236.972 65.92 237.152 66.04 237.392 66.16C237.572 66.34 237.752 66.52 237.932 66.64C238.052 66.82 238.052 67 238.052 67.24C237.992 67.78 237.872 68.32 237.632 68.8C237.392 69.34 236.732 69.88 235.712 70.48C234.632 71.08 233.492 71.5 232.232 71.74C230.912 71.98 229.772 72.28 228.872 72.58C228.572 72.7 228.212 72.76 227.852 72.88C227.372 73.06 226.892 73.18 226.412 73.3C225.452 73.78 224.852 74.08 224.672 74.26C224.432 74.44 224.432 74.56 224.732 74.62C224.972 74.74 225.392 74.8 225.932 74.8C226.412 74.86 226.892 74.86 227.492 74.86C227.972 74.86 228.392 74.86 228.632 74.86C229.052 74.86 229.352 74.8 229.532 74.62C229.652 74.5 229.892 74.32 230.132 74.08C230.312 73.9 230.612 73.78 230.972 73.66C231.272 73.66 231.812 73.66 232.532 73.66C233.252 73.72 233.792 73.78 234.272 73.9C234.692 74.02 235.052 74.14 235.352 74.14C235.472 74.14 235.592 74.2 235.832 74.32C236.012 74.44 236.192 74.62 236.312 74.74C236.372 74.98 236.372 75.16 236.252 75.4C236.132 75.7 235.772 76 235.292 76.3C234.932 76.54 234.392 76.78 233.672 77.08C232.952 77.44 232.172 77.74 231.332 78.16C230.432 78.52 229.532 78.88 228.632 79.3C227.672 79.66 226.832 79.96 226.112 80.32C225.272 80.62 224.612 80.92 224.132 81.16C223.592 81.34 223.292 81.46 223.172 81.58C222.812 81.76 222.752 82 222.872 82.24C222.992 82.48 223.232 82.6 223.712 82.72C223.952 82.72 224.372 82.84 225.032 83.08C225.632 83.2 226.292 83.44 227.012 83.68C227.732 83.86 228.392 84.04 229.052 84.28C229.652 84.46 230.132 84.58 230.432 84.64C230.852 84.7 231.392 84.76 232.112 84.76C232.712 84.76 233.432 84.7 234.152 84.7C234.812 84.64 235.472 84.58 236.132 84.52C236.732 84.4 237.152 84.34 237.512 84.28C237.872 84.16 238.292 84.1 238.772 84.04C239.192 83.92 239.672 83.86 240.152 83.8C240.572 83.68 240.992 83.62 241.352 83.62C241.712 83.56 241.952 83.56 242.132 83.56C242.252 83.56 242.552 83.5 242.972 83.5C243.332 83.44 243.752 83.44 244.172 83.44C244.532 83.44 244.892 83.44 245.252 83.5C245.492 83.5 245.612 83.62 245.612 83.8C245.492 84.16 245.612 84.4 245.912 84.58C246.152 84.7 246.392 84.76 246.632 84.76C246.752 84.76 246.932 84.76 247.232 84.82C247.472 84.82 247.472 85.06 247.112 85.54C246.752 85.96 246.332 86.32 245.852 86.56C245.312 86.8 244.832 86.92 244.352 87.04C243.992 87.1 243.452 87.22 242.732 87.4C241.952 87.52 241.172 87.64 240.392 87.82C239.552 87.94 238.772 88.06 238.052 88.18C237.272 88.24 236.672 88.3 236.312 88.3C235.412 88.3 234.332 88.24 233.012 88.18C231.632 88.06 230.432 87.88 229.472 87.58C228.932 87.4 228.332 87.22 227.672 86.98C226.952 86.68 226.232 86.44 225.632 86.2C224.912 85.96 224.312 85.72 223.832 85.54C223.232 85.3 222.872 85.18 222.692 85.06C222.212 84.88 221.732 84.82 221.252 84.94C220.712 84.94 220.112 85 219.452 85C218.732 85 218.132 84.88 217.712 84.7C217.232 84.46 217.052 83.98 217.172 83.32C217.232 82.6 217.352 82 217.472 81.4C217.592 80.74 217.892 80.44 218.492 80.44C219.032 80.44 219.572 80.5 220.112 80.62C220.592 80.68 221.072 80.62 221.552 80.44C221.972 80.2 222.512 80.02 223.112 79.9C223.652 79.66 224.192 79.42 224.792 79.06C225.272 78.7 225.512 78.52 225.512 78.46C225.512 78.34 225.212 78.28 224.672 78.28C224.312 78.28 223.832 78.28 223.232 78.28C222.512 78.28 221.852 78.22 221.252 78.1C220.532 77.98 219.992 77.8 219.512 77.56C219.032 77.32 218.792 76.96 218.912 76.48C218.912 76 218.972 75.64 219.032 75.4C219.032 75.16 219.092 74.98 219.212 74.8C219.272 74.68 219.392 74.5 219.572 74.38C219.692 74.32 219.872 74.14 220.172 73.9C220.352 73.78 220.772 73.54 221.492 73.24C222.152 73 222.932 72.76 223.892 72.4C224.732 72.1 225.692 71.74 226.712 71.32C227.672 70.96 228.632 70.6 229.472 70.24C229.832 70.06 230.372 69.82 230.972 69.52C231.512 69.28 231.932 68.92 232.172 68.56ZM213.212 59.32C212.972 59.32 212.792 59.26 212.612 59.2C212.372 59.2 212.072 59.08 211.712 58.96L211.892 59.86C211.892 60.34 211.832 60.7 211.832 61.06C211.712 61.42 211.472 61.72 211.052 61.9C210.572 62.08 210.152 62.08 209.732 61.96C209.252 61.9 208.832 61.6 208.412 61C208.052 60.58 207.692 59.92 207.272 59.08C206.792 58.24 206.372 57.34 205.952 56.38C205.472 55.42 204.992 54.52 204.632 53.56C204.152 52.66 203.852 51.88 203.612 51.28C203.312 50.68 203.072 50.14 202.892 49.6C202.652 49.12 202.532 48.64 202.412 48.16C202.232 47.68 202.112 47.2 202.052 46.72C201.932 46.24 201.812 45.7 201.812 45.1C201.692 44.5 201.692 44.08 201.812 43.84C201.872 43.66 201.992 43.54 202.172 43.54C202.292 43.6 202.412 43.66 202.592 43.78C202.712 43.96 202.892 44.08 203.012 44.2C203.312 44.56 203.732 44.92 204.212 45.4C204.692 45.94 205.112 46.18 205.472 46.18C205.652 46.18 205.952 46.24 206.312 46.3C206.672 46.42 207.032 46.54 207.392 46.72C207.752 46.96 208.052 47.2 208.412 47.44C208.712 47.8 208.892 48.16 209.012 48.64C209.192 49.6 209.372 50.5 209.492 51.34C209.612 52.3 209.732 52.9 209.912 53.26L210.572 55.36C210.692 55.42 210.812 55.54 211.052 55.72C211.232 55.96 211.412 56.08 211.652 56.2C211.892 56.44 212.192 56.62 212.672 56.68C213.032 56.8 213.452 56.8 213.932 56.8C214.352 56.86 214.832 56.86 215.312 56.8C215.732 56.8 216.152 56.74 216.512 56.68C217.952 56.5 218.972 56.14 219.512 55.66C219.992 55.18 220.292 54.4 220.412 53.2C220.472 52.06 220.472 50.86 220.472 49.66C220.412 48.52 220.412 47.68 220.412 47.2C220.412 46.72 220.232 46.36 219.872 46.12C219.512 45.88 218.852 45.88 218.012 46C217.532 46.12 216.992 46.18 216.332 46.24C215.612 46.36 214.892 46.42 214.232 46.42C213.512 46.54 212.852 46.6 212.252 46.6C211.652 46.72 211.232 46.72 210.992 46.72C210.752 46.72 210.452 46.72 210.212 46.6C209.852 46.6 209.612 46.48 209.492 46.36C209.312 46.24 209.252 46.12 209.312 45.94C209.312 45.82 209.552 45.64 210.032 45.4C210.452 45.22 210.992 44.98 211.592 44.74C212.192 44.56 212.792 44.32 213.452 44.08C214.052 43.9 214.592 43.66 215.192 43.42C215.672 43.18 216.092 42.94 216.392 42.7C216.932 42.16 217.472 41.62 218.012 41.08C218.492 40.6 219.092 40.3 219.932 40.3C220.652 40.3 221.372 40.42 222.092 40.6C222.692 40.84 223.592 40.96 224.732 41.02C225.212 41.08 225.692 41.2 226.172 41.38C226.532 41.62 226.832 41.92 227.072 42.22C227.192 42.58 227.252 42.94 227.192 43.3C227.072 43.78 226.712 44.2 226.232 44.62C225.692 45.1 225.272 45.4 225.032 45.64C224.672 45.94 224.492 46.24 224.372 46.48C224.252 46.84 224.192 47.2 224.192 47.56C224.192 48.04 224.192 48.58 224.312 49.3C224.432 50.74 224.492 51.88 224.492 52.78C224.492 53.74 224.492 54.46 224.492 55C224.492 55.66 224.312 56.14 224.072 56.38C223.772 56.74 223.412 57.1 222.932 57.52C222.692 57.76 222.512 58.06 222.392 58.3C222.212 58.6 222.092 58.84 221.972 59.08C221.852 59.38 221.672 59.62 221.552 59.74C221.372 59.98 221.192 60.1 220.952 60.1C220.712 60.16 220.172 60.16 219.392 60.04C218.552 59.98 217.652 59.86 216.752 59.74C215.672 59.62 214.532 59.5 213.212 59.32ZM251.312 50.5C251.312 50.68 251.372 50.86 251.432 51.04C251.432 51.28 251.492 51.52 251.492 51.7C251.492 51.94 251.432 52.12 251.312 52.24C251.132 52.42 250.892 52.54 250.592 52.6C249.932 52.84 249.092 52.9 248.132 52.9C247.052 52.9 246.212 52.9 245.552 52.78C245.252 52.78 244.832 52.78 244.292 52.78C243.692 52.84 243.152 52.9 242.552 52.9C241.952 52.96 241.352 53.02 240.812 53.02C240.212 53.14 239.792 53.2 239.552 53.2C239.492 53.2 239.492 53.2 239.492 53.2C239.432 53.26 239.372 53.26 239.372 53.26V53.5H239.312C239.312 54.1 239.252 54.7 239.252 55.24C239.192 55.84 239.132 56.26 239.132 56.62C239.072 57.1 238.952 57.58 238.832 58.12C238.592 58.72 238.412 59.26 238.172 59.74C237.932 60.34 237.632 60.82 237.392 61.24C237.092 61.72 236.852 62.02 236.612 62.2C236.372 62.44 236.072 62.62 235.832 62.74C235.472 62.98 235.232 63.1 234.992 63.1C234.692 63.22 234.512 63.16 234.392 63.04C234.272 62.92 234.272 62.68 234.452 62.2C234.572 61.9 234.632 61.42 234.692 60.76C234.692 60.16 234.752 59.38 234.812 58.54C234.812 57.76 234.872 56.92 234.872 56.02C234.812 55.18 234.812 54.34 234.812 53.5H234.752C234.692 51.88 234.692 50.44 234.692 49.18C234.632 47.98 234.632 47.38 234.752 47.26C234.872 47.08 235.052 46.96 235.232 46.96C235.352 47.02 235.412 46.9 235.532 46.6C235.532 46.48 235.532 46.3 235.472 46.18C235.352 46.06 235.292 45.94 235.232 45.76C235.112 45.64 234.992 45.4 234.932 45.16C234.812 44.98 234.812 44.74 234.872 44.38C234.932 43.96 234.992 43.48 234.992 42.88C234.992 42.4 234.992 41.86 234.992 41.32C234.932 40.72 234.932 40.24 234.932 39.82C234.932 39.46 234.932 39.16 234.992 38.86C234.992 38.62 234.992 38.38 234.992 38.14C234.992 37.96 234.992 37.72 234.992 37.48C234.872 37.06 234.872 36.58 234.872 36.04C234.812 35.56 234.572 35.14 234.092 34.72C233.612 34.36 233.192 34.12 232.832 33.94C232.352 33.82 231.932 33.64 231.572 33.4C231.332 33.28 231.212 33.16 231.212 32.92C231.152 32.74 231.212 32.56 231.332 32.32C231.392 32.2 231.572 32.02 231.812 31.9C232.052 31.84 232.352 31.84 232.772 31.9C233.012 32.02 233.372 32.14 233.972 32.26C234.452 32.44 235.052 32.62 235.712 32.8C236.312 33.04 236.972 33.22 237.632 33.34C238.232 33.52 238.772 33.64 239.132 33.7C239.672 33.88 240.092 34.06 240.452 34.18C240.752 34.42 240.812 34.78 240.632 35.38C240.392 36.04 240.212 36.7 240.032 37.42C239.792 38.14 239.672 38.92 239.672 39.7C239.672 40.3 239.672 40.9 239.672 41.62C239.612 42.34 239.612 43.12 239.612 43.84C239.612 44.38 239.552 45.34 239.492 46.66C239.372 48.04 239.372 49.48 239.372 51.04L240.572 50.8C241.052 50.68 241.412 50.62 241.772 50.5C242.012 50.44 242.252 50.38 242.492 50.26C242.612 50.26 242.792 50.14 243.032 50.02C243.152 49.96 243.392 49.84 243.632 49.72C244.112 49.48 244.592 49.3 245.072 49.12C245.492 49 245.972 48.94 246.452 49.06C246.992 49.18 247.532 49.18 248.072 49.06C248.552 49 248.912 48.94 249.212 48.94C249.692 48.94 250.112 49.06 250.592 49.3C250.952 49.66 251.192 50.02 251.312 50.5Z" fill="white"/>
<rect x="270.5" y="30.5" width="90" height="120" fill="#F6C500"/>
<rect x="270.5" y="30.5" width="90" height="120" stroke="black"/>
<path d="M308.711 79C309.491 79.12 310.331 79.24 311.231 79.48C312.071 79.78 312.851 80.2 313.631 80.74C314.351 81.34 315.011 82 315.551 82.84C316.031 83.74 316.271 84.82 316.391 86.02C316.391 86.62 316.391 86.98 316.391 87.22C316.331 87.46 316.271 87.64 316.271 87.76C316.151 87.88 316.091 88 316.031 88C315.911 88.06 315.791 88.12 315.791 88.24C315.731 88.36 315.731 88.48 315.791 88.48C315.791 88.6 315.851 88.66 315.971 88.78C315.971 88.9 316.031 89.08 316.091 89.26C316.091 89.5 316.091 89.86 315.971 90.22C315.611 91.36 315.191 92.56 314.651 93.76C314.051 95.08 313.151 96.1 312.011 96.88C311.411 97.36 310.691 97.72 309.971 97.9C309.191 98.14 308.471 98.32 307.751 98.38C306.971 98.5 306.311 98.5 305.711 98.5C305.051 98.5 304.571 98.5 304.211 98.5C303.251 98.38 302.351 98.14 301.511 97.78C300.551 97.48 299.771 97.18 299.111 96.82C297.911 96.22 297.071 95.38 296.471 94.3C295.871 93.28 295.451 92.2 295.271 91.06C295.031 89.98 295.031 88.84 295.151 87.76C295.271 86.74 295.451 85.9 295.811 85.18C296.111 84.4 296.591 83.56 297.311 82.66C297.911 81.82 298.811 81.1 299.891 80.38C299.651 79.78 299.471 79.12 299.231 78.52C298.991 77.98 298.751 77.56 298.511 77.26C298.271 77.02 298.091 76.78 298.091 76.54C298.031 76.3 298.091 76.12 298.211 75.94C298.331 75.82 298.511 75.7 298.751 75.64C298.931 75.64 299.171 75.76 299.471 75.94C299.711 76.12 299.951 76.24 300.191 76.36C300.371 76.54 300.611 76.66 300.851 76.78C301.091 76.9 301.331 77.02 301.691 77.14C301.931 77.32 302.291 77.5 302.771 77.68C303.131 77.92 303.431 78.22 303.731 78.58C303.971 79 304.211 79.42 304.391 79.9C304.871 79.72 305.471 79.48 306.251 79.24C306.971 79.06 307.751 79 308.711 79ZM317.891 92.98C316.931 92.86 316.511 92.56 316.511 92.2C316.451 91.9 316.691 91.72 317.291 91.6C317.531 91.6 317.771 91.54 318.011 91.48C318.131 91.48 318.371 91.48 318.611 91.42C318.851 91.42 319.151 91.36 319.511 91.3C319.811 91.3 320.291 91.3 320.891 91.3C321.611 91.3 322.631 91.18 324.071 90.94C325.391 90.7 326.771 90.46 328.151 90.1C328.151 89.62 328.151 89.02 328.151 88.42C328.091 87.88 328.091 87.28 328.091 86.56L327.971 83.02C327.491 83.32 327.071 83.5 326.591 83.5C326.231 83.62 325.811 83.68 325.271 83.8C324.671 83.98 324.131 84.1 323.591 84.22C322.991 84.34 322.511 84.46 322.031 84.46C321.491 84.58 321.131 84.52 320.891 84.4C320.651 84.28 320.471 84.16 320.351 83.98C320.111 83.86 319.931 83.68 319.751 83.5C319.511 83.38 319.271 83.2 319.031 83.02C318.671 82.9 318.311 82.84 317.891 82.78C316.931 82.66 316.511 82.36 316.511 82C316.451 81.7 316.691 81.52 317.291 81.4C317.531 81.4 317.771 81.34 318.011 81.28C318.131 81.28 318.371 81.28 318.611 81.22C318.851 81.22 319.151 81.16 319.511 81.1C319.811 81.1 320.291 81.1 320.891 81.1C321.551 81.1 322.571 80.98 323.951 80.74C325.271 80.5 326.591 80.26 327.971 79.9C327.971 79.42 327.971 79 327.971 78.52C327.971 78.16 327.971 77.92 328.031 77.86C328.151 77.74 328.331 77.62 328.511 77.62C328.631 77.62 328.691 77.5 328.811 77.2C328.811 77.08 328.811 76.9 328.751 76.78C328.631 76.66 328.571 76.54 328.511 76.36C328.391 76.24 328.271 76.06 328.211 75.82C328.091 75.64 328.091 75.4 328.151 75.04C328.211 74.62 328.271 74.14 328.271 73.54C328.211 73.06 328.211 72.52 328.211 71.92C328.151 70.72 328.151 69.82 328.271 69.16C328.271 68.56 328.271 68.02 328.211 67.42C328.151 67 328.151 66.52 328.151 65.98C328.091 65.5 327.851 65.08 327.371 64.66C326.891 64.3 326.471 64.06 326.051 63.88C325.571 63.76 325.211 63.58 324.851 63.34C324.611 63.22 324.491 63.1 324.491 62.86C324.431 62.68 324.491 62.5 324.611 62.26C324.671 62.14 324.851 61.96 325.091 61.84C325.331 61.78 325.631 61.78 326.051 61.9C326.231 62.02 326.591 62.08 327.191 62.2C327.671 62.38 328.271 62.56 328.991 62.68C329.591 62.92 330.251 63.1 330.911 63.22C331.511 63.4 331.991 63.52 332.411 63.58C332.951 63.76 333.371 63.94 333.731 64.06C334.031 64.3 334.091 64.66 333.911 65.26C333.671 65.92 333.491 66.58 333.311 67.3C333.071 68.08 332.951 68.86 332.951 69.7C332.951 70.24 332.891 70.96 332.891 71.92C332.831 72.88 332.831 73.72 332.831 74.44C332.831 74.8 332.771 75.22 332.771 75.76C332.711 76.36 332.711 77.02 332.711 77.62C332.651 78.28 332.651 78.88 332.651 79.42C332.591 80.02 332.591 80.5 332.591 80.8C332.591 81.46 332.591 82 332.651 82.48C332.651 83.02 332.651 83.5 332.651 83.98C332.651 84.52 332.651 85.06 332.711 85.6C332.711 86.2 332.711 86.92 332.711 87.7C332.711 88.3 332.711 88.96 332.771 89.68C332.771 90.46 332.771 91.18 332.771 91.9C332.771 92.68 332.771 93.4 332.771 94.06C332.711 94.78 332.711 95.44 332.711 95.92C332.591 98.08 332.591 99.82 332.591 101.26C332.531 102.76 332.531 103.78 332.531 104.32C332.531 105.28 332.411 106.3 332.291 107.44C332.051 108.58 331.871 109.72 331.631 110.8C331.331 111.88 331.031 112.84 330.791 113.74C330.431 114.58 330.191 115.24 329.951 115.6C329.711 115.96 329.411 116.38 329.171 116.8C328.811 117.16 328.571 117.4 328.331 117.58C328.031 117.7 327.851 117.64 327.731 117.4C327.611 117.1 327.611 116.5 327.791 115.6C327.911 114.7 328.031 113.32 328.151 111.46C328.151 109.54 328.211 107.5 328.271 105.28C328.271 103.12 328.271 100.96 328.271 98.8C328.211 96.7 328.211 94.96 328.211 93.64V93.1C327.731 93.4 327.191 93.58 326.591 93.7C326.231 93.82 325.811 93.88 325.271 94C324.671 94.18 324.131 94.3 323.591 94.42C322.991 94.54 322.511 94.66 322.031 94.66C321.491 94.78 321.131 94.72 320.891 94.6C320.651 94.48 320.471 94.36 320.351 94.18C320.111 94.06 319.931 93.88 319.751 93.7C319.511 93.58 319.271 93.4 319.031 93.22C318.671 93.1 318.311 93.04 317.891 92.98ZM303.551 83.56C303.011 84.04 302.591 84.28 302.231 84.34C301.811 84.46 301.451 84.46 301.211 84.34C300.611 84.4 300.131 84.76 299.831 85.42C299.471 86.14 299.231 86.74 299.171 87.34C299.051 88.06 299.051 88.72 299.111 89.38C299.111 90.1 299.291 90.7 299.591 91.3C299.831 91.9 300.191 92.44 300.791 92.92C301.331 93.4 302.111 93.76 303.071 94C304.271 94.36 305.351 94.42 306.431 94.3C307.391 94.18 308.351 93.94 309.251 93.58C310.391 92.68 311.111 91.66 311.471 90.46C311.771 89.38 311.951 88.12 312.071 86.8C312.131 85.42 311.771 84.22 311.051 83.14C310.271 82.12 309.251 81.46 307.931 81.22C307.451 81.16 306.911 81.16 306.311 81.16C305.651 81.22 305.111 81.22 304.631 81.22C304.631 82.18 304.271 82.96 303.551 83.56Z" fill="white"/>
</svg>
