<svg width="181" height="151" viewBox="0 0 181 151" fill="none" xmlns="http://www.w3.org/2000/svg">
<rect x="0.5" y="30.5" width="90" height="120" fill="#F6C500"/>
<rect x="0.5" y="30.5" width="90" height="120" stroke="black"/>
<path d="M71.6117 90.1C71.6117 90.46 71.6717 90.88 71.6717 91.3C71.6717 91.78 71.3117 92.08 70.6517 92.2C69.9917 92.32 69.1517 92.32 68.1917 92.2C67.1717 92.08 66.3317 91.96 65.6117 91.78C65.3117 91.78 64.8917 91.72 64.3517 91.66C63.7517 91.66 63.2117 91.66 62.6117 91.66C62.0117 91.66 61.4117 91.66 60.8717 91.66C60.2717 91.72 59.8517 91.72 59.6117 91.72H59.4917C59.4917 92.56 59.4917 93.28 59.4917 94C59.4317 94.72 59.4317 95.38 59.4317 95.92C59.3117 98.08 59.3117 99.82 59.3117 101.26C59.2517 102.76 59.2517 103.78 59.2517 104.32C59.2517 105.28 59.1317 106.3 59.0117 107.44C58.7717 108.58 58.5917 109.72 58.3517 110.8C58.0517 111.88 57.7517 112.84 57.5117 113.74C57.1517 114.58 56.9117 115.24 56.6717 115.6C56.4317 115.96 56.1317 116.38 55.8917 116.8C55.5317 117.16 55.2917 117.4 55.0517 117.58C54.7517 117.7 54.5717 117.64 54.4517 117.4C54.3317 117.1 54.3317 116.5 54.5117 115.6C54.6317 114.7 54.7517 113.32 54.8717 111.46C54.8717 109.54 54.9317 107.5 54.9917 105.28C54.9917 103.12 54.9917 100.96 54.9917 98.8C54.9317 96.7 54.9317 94.96 54.9317 93.64C54.9917 92.62 54.9917 91.54 54.9317 90.46C54.8117 89.38 54.8117 88.12 54.8117 86.56C54.7517 85.6 54.7517 84.58 54.7517 83.5C54.6917 82.48 54.6917 81.52 54.6917 80.68C54.6917 79.9 54.6917 79.24 54.6917 78.7C54.6917 78.22 54.6917 77.92 54.7517 77.86C54.8717 77.74 55.0517 77.62 55.2317 77.62C55.3517 77.62 55.4117 77.5 55.5317 77.2C55.5317 77.08 55.5317 76.9 55.4717 76.78C55.3517 76.66 55.2917 76.54 55.2317 76.36C55.1117 76.24 54.9917 76.06 54.9317 75.82C54.8117 75.64 54.8117 75.4 54.8717 75.04C54.9317 74.62 54.9917 74.14 54.9917 73.54C54.9317 73.06 54.9317 72.52 54.9317 71.92C54.8717 70.72 54.8717 69.82 54.9917 69.16C54.9917 68.56 54.9917 68.02 54.9317 67.42C54.8717 67 54.8717 66.52 54.8717 65.98C54.8117 65.5 54.5717 65.08 54.0917 64.66C53.6117 64.3 53.1917 64.06 52.7717 63.88C52.2917 63.76 51.9317 63.58 51.5717 63.34C51.3317 63.22 51.2117 63.1 51.2117 62.86C51.1517 62.68 51.2117 62.5 51.3317 62.26C51.3917 62.14 51.5717 61.96 51.8117 61.84C52.0517 61.78 52.3517 61.78 52.7717 61.9C52.9517 62.02 53.3117 62.08 53.9117 62.2C54.3917 62.38 54.9917 62.56 55.7117 62.68C56.3117 62.92 56.9717 63.1 57.6317 63.22C58.2317 63.4 58.7117 63.52 59.1317 63.58C59.6717 63.76 60.0917 63.94 60.4517 64.06C60.7517 64.3 60.8117 64.66 60.6317 65.26C60.3917 65.92 60.2117 66.58 60.0317 67.3C59.7917 68.08 59.6717 68.86 59.6717 69.7C59.6717 70.24 59.6117 70.96 59.6117 71.92C59.5517 72.88 59.5517 73.72 59.5517 74.44C59.5517 74.8 59.4917 75.22 59.4917 75.76C59.4317 76.36 59.4317 77.02 59.4317 77.62C59.3717 78.28 59.3717 78.88 59.3717 79.42C59.3117 80.02 59.3117 80.5 59.3117 80.8C59.3117 81.46 59.3117 82 59.3717 82.48C59.3717 83.02 59.3717 83.5 59.3717 83.98C59.3717 84.52 59.3717 85.06 59.4317 85.6C59.4317 86.2 59.4317 86.92 59.4317 87.7V89.62L60.9317 89.44C61.4117 89.38 61.7717 89.32 62.1317 89.2C62.3717 89.2 62.6117 89.14 62.8517 89.02C63.0317 89.02 63.2117 88.96 63.4517 88.84C63.5717 88.84 63.8117 88.72 64.0517 88.6C64.5917 88.42 65.0717 88.24 65.5517 88.12C65.9117 88 66.3917 88.06 66.9317 88.24C67.4117 88.48 67.8917 88.48 68.4917 88.36C68.9717 88.3 69.3917 88.3 69.6917 88.3C70.1117 88.36 70.5317 88.54 70.9517 88.84C71.3117 89.2 71.5517 89.62 71.6117 90.1ZM30.8117 93.7C30.9317 94.66 31.0517 95.44 31.1717 95.98C31.2317 96.58 31.3517 97 31.5317 97.24C31.6517 97.6 31.8317 97.72 32.1317 97.72C32.3717 97.78 32.7317 97.72 33.2117 97.6C33.6917 97.48 34.2317 97.24 34.9517 96.88C35.6117 96.58 36.2717 96.22 36.9917 95.74C37.6517 95.38 38.3117 94.96 38.9117 94.48C39.5117 94.12 39.9317 93.76 40.1717 93.52C40.6517 93.04 41.1917 92.56 41.7917 92.14C42.2717 91.78 42.8117 91.72 43.3517 91.96L43.5917 92.14C43.7117 91.72 43.8317 91.36 43.9517 91C44.0117 90.76 44.0717 90.52 44.1917 90.4C44.3117 90.22 44.6117 89.98 44.9717 89.74C45.2717 89.56 45.6317 89.38 46.1117 89.14C46.4717 89.02 46.8917 88.9 47.3717 88.78C47.7917 88.78 48.1517 88.78 48.5117 88.9C49.1717 89.2 49.7117 89.68 50.1917 90.4C50.5517 91.12 50.7917 91.84 50.9117 92.5C50.9117 92.86 50.9717 93.1 50.9717 93.28C50.9117 93.52 50.8517 93.64 50.7917 93.76C50.6717 93.88 50.4917 94 50.3717 94.12C50.1317 94.24 49.9517 94.42 49.7117 94.6C49.2317 94.96 48.7517 95.32 48.3317 95.68C47.8517 96.1 47.5517 96.46 47.3117 96.7C46.8917 97.12 46.2917 97.3 45.5117 97.3C45.0317 97.36 44.6717 97.42 44.5517 97.54C44.3117 97.72 44.1317 97.96 43.8917 98.2C43.6517 98.5 43.3517 98.62 42.9917 98.56C42.5117 98.56 42.3917 98.38 42.5117 97.9C42.5117 97.78 42.5117 97.42 42.6317 96.94C42.6917 96.52 42.8117 95.98 42.9317 95.38C42.0917 95.86 41.2517 96.28 40.4117 96.76C39.4517 97.3 38.7917 97.78 38.4317 98.14C38.0717 98.5 37.7117 98.8 37.2917 99.16C36.8117 99.52 36.3317 99.88 35.8517 100.18C35.3117 100.54 34.8317 100.9 34.3517 101.14C33.8717 101.44 33.4517 101.62 33.1517 101.74C32.6117 101.92 32.1317 101.92 31.7117 101.8C30.9917 101.68 30.3917 101.44 29.7917 101.14C29.1317 100.9 28.5917 100.42 28.1117 99.7C27.4517 98.86 27.0317 97.72 26.7917 96.16C26.4917 94.72 26.3117 93.1 26.2517 91.42C26.1317 89.74 26.1317 88.12 26.2517 86.5C26.2517 84.94 26.3117 83.68 26.3117 82.6C26.3117 81.7 26.2517 80.98 26.1917 80.44C26.0717 79.96 25.8917 79.54 25.7717 79.18C25.5317 78.88 25.3517 78.64 25.1117 78.4C24.8117 78.28 24.5117 78.04 24.2117 77.8C23.5517 77.38 23.3117 76.96 23.4917 76.54C23.6117 76.18 23.9117 76.12 24.5117 76.3C24.7517 76.42 25.1717 76.54 25.7717 76.72C26.2517 76.96 26.8517 77.2 27.4517 77.44C27.9917 77.68 28.5317 77.92 29.0717 78.16C29.5517 78.4 29.9717 78.58 30.2117 78.7C30.6317 78.94 30.9317 79.24 31.0517 79.72C31.1117 80.26 31.1117 81.22 30.9917 82.6C30.7517 85 30.5717 87.1 30.5717 88.96C30.5117 90.88 30.5717 92.44 30.8117 93.7Z" fill="white"/>
<rect x="90.5" y="0.5" width="90" height="120" fill="#F6C500"/>
<rect x="90.5" y="0.5" width="90" height="120" stroke="black"/>
<path d="M142.029 59.86L142.329 58.78H142.269C142.029 58.78 141.549 59.02 140.709 59.5C139.809 59.98 138.849 60.46 137.829 61.06C136.749 61.66 135.669 62.32 134.589 62.92C133.989 63.28 133.389 63.58 132.789 63.94C132.129 64.36 131.469 64.72 130.749 65.02C129.969 65.38 129.189 65.68 128.409 65.86C127.569 66.1 126.729 66.16 125.889 66.1C125.169 66.1 124.629 66.1 124.209 66.04C123.729 66.04 123.309 65.92 123.069 65.68C122.769 65.5 122.589 65.08 122.469 64.48C122.349 63.94 122.289 63.1 122.289 61.9C122.289 60.46 122.469 59.2 122.949 58.18C123.369 57.22 124.029 56.2 124.989 55C125.469 54.46 126.009 53.86 126.669 53.26C127.269 52.72 127.929 52.18 128.589 51.64C129.189 51.16 129.729 50.68 130.269 50.26C130.749 49.9 131.049 49.54 131.289 49.3C131.529 49.06 131.709 48.82 131.769 48.64C131.769 48.52 131.709 48.46 131.589 48.46C131.469 48.46 131.289 48.52 131.169 48.52C130.929 48.64 130.809 48.7 130.689 48.7C130.329 48.82 130.089 48.94 129.849 49.06C129.549 49.24 129.249 49.36 129.009 49.48C128.709 49.6 128.409 49.72 128.109 49.78C127.749 49.9 127.269 49.9 126.789 49.9C125.769 49.9 124.869 49.6 124.089 49C123.249 48.46 122.649 47.86 122.289 47.2C122.049 46.9 121.989 46.54 121.989 46.18C121.929 45.82 121.929 45.52 122.049 45.28C122.109 45.04 122.229 44.86 122.409 44.74C122.529 44.62 122.649 44.68 122.889 44.8C123.249 45.1 123.909 45.28 124.929 45.34C125.889 45.46 126.909 45.52 127.989 45.4C128.469 45.4 129.069 45.28 129.909 45.16C130.629 45.1 131.469 44.98 132.309 44.8C133.149 44.68 133.929 44.5 134.769 44.32C135.549 44.2 136.209 44.02 136.689 43.9C137.409 43.78 137.949 43.6 138.249 43.36C138.489 43.24 138.909 42.88 139.389 42.4C139.809 41.98 140.349 41.5 141.069 40.9C141.729 40.36 142.449 40.18 143.289 40.3C144.009 40.42 144.729 40.6 145.329 40.84C145.869 41.14 146.409 41.38 146.889 41.5C147.369 41.62 147.729 41.86 147.969 42.22C148.149 42.58 148.209 42.94 148.089 43.3C147.969 43.78 147.789 44.08 147.429 44.2C147.069 44.38 146.529 44.5 145.929 44.5C145.389 44.62 144.549 44.8 143.349 45.16C142.149 45.58 140.949 45.94 139.809 46.3C139.209 46.54 138.789 46.72 138.489 46.9C138.129 47.14 137.829 47.38 137.589 47.5C137.109 47.74 136.569 48.04 135.969 48.52C135.249 49 134.589 49.54 133.989 50.08C133.269 50.68 132.669 51.28 132.069 51.82C131.469 52.42 130.989 52.84 130.689 53.2C130.209 53.68 129.849 54.1 129.489 54.4C129.069 54.76 128.709 55.12 128.409 55.48C128.049 55.84 127.809 56.26 127.629 56.68C127.389 57.16 127.209 57.7 127.089 58.3C127.029 58.72 127.029 59.14 127.149 59.5C127.209 59.92 127.389 60.28 127.629 60.52C127.869 60.82 128.169 61 128.589 61.06C128.949 61.18 129.489 61.18 130.089 61C131.529 60.64 132.909 60.16 134.169 59.68C135.369 59.26 136.449 58.78 137.289 58.3C138.309 57.7 139.089 57.34 139.629 57.16C140.109 57.04 140.409 56.98 140.589 56.86C141.069 56.5 141.489 56.32 141.969 56.2C142.329 56.2 142.689 56.2 142.929 56.2L143.169 56.32C143.289 55.9 143.349 55.54 143.469 55.24C143.469 55 143.649 54.82 143.949 54.64C144.069 54.58 144.249 54.58 144.609 54.58C144.909 54.64 145.269 54.7 145.689 54.76C146.049 54.88 146.409 55.06 146.829 55.18C147.189 55.36 147.489 55.48 147.789 55.6C148.029 55.72 148.209 55.9 148.389 56.02C148.509 56.26 148.629 56.5 148.689 56.8C148.689 57.16 148.569 57.64 148.449 58.12C148.209 58.66 147.909 59.32 147.489 60.1C146.409 62.02 145.329 63.76 144.189 65.32C142.989 66.88 141.549 68.56 139.869 70.24C139.149 71.02 138.429 71.74 137.769 72.4C137.049 73.12 136.269 73.9 135.369 74.74L145.929 74.2C147.009 74.2 148.089 74.02 149.169 73.66C150.129 73.42 150.909 73.18 151.509 72.94C151.989 72.82 152.529 72.82 153.129 72.82C153.669 72.88 154.269 72.94 154.869 73.06C155.409 73.18 155.949 73.36 156.489 73.48C156.969 73.66 157.329 73.78 157.629 73.9C158.109 74.2 158.529 74.44 158.889 74.62C159.249 74.86 159.609 75.22 160.089 75.64C160.509 76.06 160.689 76.48 160.569 76.9C160.449 77.38 160.089 77.56 159.489 77.62C159.129 77.62 158.649 77.62 157.989 77.62C157.269 77.56 156.609 77.56 155.889 77.56C155.109 77.5 154.389 77.5 153.789 77.56C153.069 77.56 152.649 77.56 152.409 77.62C152.109 77.62 151.749 77.62 151.389 77.62C150.909 77.5 150.489 77.44 150.129 77.32C149.649 77.26 149.289 77.14 148.929 77.02C148.569 76.96 148.269 76.9 148.029 76.84C147.789 76.84 147.189 76.78 146.289 76.72C145.329 76.72 144.189 76.72 142.989 76.72C141.729 76.72 140.469 76.72 139.269 76.72C137.949 76.78 136.929 76.84 136.089 76.9C134.109 77.08 132.189 77.32 130.269 77.56C128.349 77.8 126.489 78.16 124.689 78.64C123.429 78.88 122.589 79.06 122.109 79.24C121.569 79.36 121.149 79.6 120.849 79.96C120.549 80.26 120.249 80.44 120.009 80.56C119.649 80.56 119.169 80.5 118.509 80.32C118.149 80.2 117.669 80.14 116.949 80.02C116.229 79.9 115.449 79.78 114.669 79.66C113.829 79.48 113.109 79.36 112.509 79.24C111.789 79.06 111.369 78.94 111.189 78.88C110.949 78.82 110.769 78.7 110.649 78.52C110.469 78.28 110.409 78.04 110.409 77.86C110.409 77.62 110.469 77.44 110.709 77.26C110.829 77.14 111.129 77.08 111.609 77.08C111.969 77.14 112.509 77.14 113.109 77.02C113.649 76.96 114.189 76.84 114.789 76.72C115.029 76.66 115.389 76.54 115.929 76.42C116.409 76.3 116.949 76.18 117.549 76.06C118.089 75.94 118.689 75.88 119.289 75.76C119.889 75.7 120.369 75.64 120.849 75.64C121.329 75.7 121.869 75.76 122.469 75.82C123.069 75.94 123.609 76 124.209 76C124.449 76 124.869 75.94 125.469 75.82C126.069 75.76 126.729 75.64 127.569 75.52C128.349 75.46 129.189 75.34 130.149 75.22C131.049 75.1 131.949 75.04 132.849 74.92C132.849 74.92 132.849 74.86 132.909 74.8C133.449 74.02 134.229 72.94 135.189 71.5C136.089 70.18 136.989 68.74 137.949 67.24C138.849 65.8 139.689 64.42 140.529 63.04C141.249 61.72 141.789 60.64 142.029 59.86Z" fill="white"/>
</svg>
