<svg width="271" height="151" viewBox="0 0 271 151" fill="none" xmlns="http://www.w3.org/2000/svg">
<rect x="0.5" y="0.5" width="90" height="120" fill="#F6C500"/>
<rect x="0.5" y="0.5" width="90" height="120" stroke="black"/>
<path d="M48.8717 45.4C48.9317 45.64 48.8717 45.82 48.7517 46C48.5117 46.24 48.2117 46.36 47.7917 46.42C47.3117 46.54 46.9517 46.66 46.7717 46.78C46.5317 46.96 46.2317 46.96 45.9917 46.78C45.7517 46.6 45.6317 46.36 45.6917 46.12C45.6917 45.88 45.6317 45.76 45.5117 45.76C45.3317 45.76 45.2117 45.82 45.1517 45.94C45.0317 46.06 44.9717 46.24 44.9717 46.36C44.8517 46.54 44.7917 46.72 44.7317 46.84C44.6117 47.02 44.4917 47.14 44.3717 47.14C44.0117 47.32 43.5317 47.44 42.8117 47.56C42.0317 47.74 41.4317 47.92 41.0117 48.1C40.2917 48.34 39.6917 48.52 39.3317 48.58C38.8517 48.7 38.4317 48.88 38.0117 49.18C37.7117 49.42 37.5917 49.6 37.6517 49.72C37.6517 49.96 37.6517 50.14 37.7717 50.32C38.0717 50.56 38.3717 50.74 38.7317 50.86C38.9717 51.1 39.3317 51.22 39.7517 51.34C39.8717 51.4 40.1117 51.46 40.4717 51.58C40.7717 51.7 41.1317 51.82 41.5517 51.94C41.9117 52.12 42.2717 52.24 42.6917 52.36C43.0517 52.54 43.2917 52.66 43.5317 52.78C44.0717 53.14 44.4317 53.62 44.5517 54.28C44.6717 55 44.6717 55.72 44.6117 56.5C44.4917 57.4 44.2517 58.3 43.8317 59.14C43.3517 60.04 42.7517 60.82 42.1517 61.54C41.4917 62.32 40.7717 62.98 40.0517 63.58C39.2117 64.18 38.4317 64.66 37.7117 64.9C36.4517 65.5 35.1917 65.86 33.9917 65.98C32.6717 66.16 31.6517 66.22 30.9317 66.1C30.5717 66.1 30.2717 65.92 29.9717 65.56C29.6117 65.26 29.2517 64.84 29.0117 64.36C28.6517 63.88 28.4117 63.34 28.2317 62.74C27.9917 62.2 27.8117 61.6 27.8117 61C27.7517 60.34 27.8117 59.56 27.9917 58.72C28.1117 57.88 28.1717 57.28 28.2917 56.8C28.3517 56.44 28.4717 56.08 28.6517 55.84C28.7717 55.66 29.1317 55.48 29.7317 55.36C30.2717 55.3 30.6317 55.18 30.8717 54.94C30.9917 54.82 31.1717 54.46 31.4117 53.86C31.5317 53.26 31.7717 52.72 32.0717 52.24C32.3117 51.82 32.5517 51.4 32.7317 51.04C32.9117 50.5 33.2717 50.08 33.8117 49.72C34.2917 49.48 34.8317 49.3 35.4317 49.3C35.9117 48.94 36.3317 48.58 36.8117 48.22C37.1717 47.98 37.5917 47.62 38.0717 47.2C38.3717 47.02 38.5517 46.84 38.5517 46.6C38.5517 46.42 38.2517 46.36 37.6517 46.36C36.7517 46.36 35.9117 46.48 35.0717 46.72C34.1717 46.96 33.3317 47.2 32.5517 47.44C32.2517 47.56 32.0717 47.62 32.0117 47.62C31.8917 47.74 31.7717 47.8 31.7717 47.8C31.6517 47.86 31.6517 47.86 31.6517 47.86C31.5917 47.86 31.5317 47.86 31.4717 47.74C31.2317 47.68 31.1117 47.56 31.0517 47.32C30.9917 47.26 30.9917 47.2 30.9917 47.08C30.6317 47.5 30.3917 47.86 30.1517 48.1C29.8517 48.4 29.4317 48.58 28.9517 48.58C28.5317 48.7 28.1117 48.7 27.6917 48.7C27.2117 48.76 26.6117 48.52 26.0117 48.04C25.7117 47.8 25.5317 47.62 25.4117 47.38C25.2317 47.26 25.1117 47.08 25.0517 46.9C24.9317 46.78 24.8717 46.66 24.8117 46.54C24.6917 46.48 24.5717 46.36 24.3917 46.24C23.9117 46 23.6117 45.82 23.4917 45.82C23.2517 45.82 23.0117 45.82 22.7117 45.7C22.4117 45.64 22.2317 45.52 22.1717 45.28C22.0517 45.16 22.2317 45.04 22.7117 44.98C22.9517 44.98 23.1317 44.98 23.3117 44.98C23.4317 44.98 23.6117 44.98 23.8517 44.98C23.9717 45.04 24.2117 45.04 24.4517 45.04C24.6917 45.1 24.9917 45.1 25.4117 45.1C25.6517 45.1 26.0717 45.1 26.6717 45.04C27.2717 45.04 27.9317 45.04 28.7117 44.92C29.4317 44.92 30.1517 44.86 30.9317 44.74C31.6517 44.68 32.3117 44.62 32.9117 44.5C34.1117 44.32 35.1917 44.14 36.2117 43.96C37.1717 43.84 37.8917 43.78 38.3117 43.84C38.8517 43.96 39.5117 43.96 40.2917 43.84C41.0117 43.78 41.5517 43.72 41.9117 43.6C42.1517 43.48 42.4517 43.3 42.8717 42.94C43.2317 42.7 43.5317 42.4 43.7717 42.04C43.9517 41.74 44.3117 41.56 44.8517 41.5C45.3317 41.5 45.7517 41.62 45.9917 41.8C46.2317 42.04 46.5917 42.28 47.1317 42.64C47.6117 43 47.9117 43.42 48.0917 43.78C48.1517 43.9 48.2717 44.14 48.4517 44.44C48.5717 44.8 48.7517 45.16 48.8717 45.4ZM59.6117 44.5C59.5517 44.86 59.4917 45.28 59.4917 45.82C59.4317 46.42 59.4317 47.02 59.4317 47.62C59.3717 48.28 59.3717 48.88 59.3717 49.42C59.3117 50.02 59.3117 50.5 59.3117 50.8V52.24C59.8517 52.18 60.2717 52.12 60.5717 52C61.0517 51.88 61.4117 51.82 61.7717 51.7C62.0117 51.64 62.2517 51.58 62.4917 51.46C62.6117 51.46 62.7917 51.34 63.0317 51.22C63.1517 51.16 63.3917 51.04 63.6317 50.92C64.1117 50.68 64.5917 50.5 65.0717 50.32C65.4917 50.2 65.9717 50.14 66.4517 50.26C66.9917 50.38 67.5317 50.38 68.0717 50.26C68.5517 50.2 68.9117 50.14 69.2117 50.14C69.6917 50.14 70.1117 50.26 70.5917 50.5C70.9517 50.86 71.1917 51.22 71.3117 51.7C71.3117 51.88 71.3717 52.06 71.4317 52.24C71.4317 52.48 71.4917 52.72 71.4917 52.9C71.4917 53.14 71.4317 53.32 71.3117 53.44C71.1317 53.62 70.8917 53.74 70.5917 53.8C69.9317 54.04 69.0917 54.1 68.1317 54.1C67.0517 54.1 66.2117 54.1 65.5517 53.98C65.2517 53.98 64.8317 53.98 64.2917 53.98C63.6917 54.04 63.1517 54.1 62.5517 54.1C61.9517 54.16 61.3517 54.22 60.8117 54.22C60.2117 54.34 59.7917 54.4 59.5517 54.4C59.4317 54.4 59.3717 54.64 59.3717 55C59.3117 55.42 59.3117 55.84 59.3117 56.32C59.2517 56.8 59.1917 57.28 59.1917 57.7C59.1317 58.18 59.1317 58.48 59.1317 58.6C59.0717 59.08 58.9517 59.56 58.8317 60.1C58.5917 60.7 58.4117 61.3 58.1717 61.78C57.8717 62.38 57.6317 62.86 57.3917 63.28C57.0917 63.76 56.8517 64.12 56.6117 64.3C56.3717 64.54 56.0717 64.72 55.8317 64.84C55.4717 65.08 55.2317 65.2 54.9917 65.2C54.6917 65.32 54.5117 65.26 54.3917 65.14C54.2717 65.02 54.2717 64.78 54.4517 64.3C54.5717 63.94 54.6317 63.4 54.7517 62.68C54.7517 61.96 54.8117 61.18 54.8117 60.22C54.8117 59.38 54.8117 58.42 54.8117 57.46C54.7517 56.56 54.7517 55.66 54.7517 54.82C54.7517 54.04 54.7517 53.26 54.7517 52.42C54.6917 51.64 54.6917 50.92 54.6917 50.2C54.6917 49.6 54.6917 49.06 54.6917 48.58C54.6917 48.22 54.6917 47.98 54.7517 47.92C54.8717 47.8 55.0517 47.68 55.2317 47.68C55.3517 47.68 55.4117 47.56 55.5317 47.26C55.5317 47.14 55.5317 46.96 55.4717 46.84C55.3517 46.72 55.2917 46.6 55.2317 46.42C55.1117 46.3 54.9917 46.12 54.9317 45.88C54.8117 45.7 54.8117 45.46 54.8717 45.1C54.9317 44.68 54.9917 44.2 54.9917 43.6C54.9917 43.12 54.9917 42.58 54.9917 41.98C54.8717 40.84 54.8717 39.94 54.9917 39.22C54.9917 38.62 54.9917 38.02 54.9917 37.42C54.8717 37 54.8717 36.52 54.8717 35.98C54.8117 35.5 54.5717 35.08 54.0917 34.66C53.6117 34.3 53.1917 34.06 52.8317 33.88C52.3517 33.76 51.9317 33.58 51.5717 33.34C51.3317 33.22 51.2117 33.1 51.2117 32.86C51.1517 32.68 51.2117 32.5 51.3317 32.26C51.3917 32.14 51.5717 31.96 51.8117 31.84C52.0517 31.78 52.3517 31.78 52.7717 31.9C53.0117 32.02 53.3717 32.14 53.9717 32.26C54.4517 32.44 55.0517 32.62 55.7117 32.74C56.3117 32.98 56.9717 33.16 57.6317 33.28C58.2317 33.52 58.7717 33.64 59.1317 33.7C59.6717 33.82 60.0917 34 60.4517 34.12C60.7517 34.36 60.8117 34.72 60.6317 35.32C60.3917 35.98 60.2117 36.64 60.0317 37.36C59.7917 38.08 59.6717 38.86 59.6717 39.7C59.6717 40.3 59.6717 41.02 59.6717 41.98C59.6117 42.94 59.6117 43.78 59.6117 44.5ZM58.6517 69.82C58.8917 70.18 59.0117 70.54 59.0117 70.84C58.9517 71.2 58.8917 71.62 58.8317 72.04C58.7117 72.46 58.5917 72.76 58.4717 72.94C58.2317 73.18 58.0517 73.48 57.9317 73.78C57.8117 73.96 57.7517 74.26 57.7517 74.74C57.6317 75.22 57.5717 75.82 57.5117 76.42C57.3917 77.14 57.3317 77.8 57.3317 78.64C57.2117 79.36 57.2117 80.14 57.2117 80.92C57.2117 81.52 57.2717 82.12 57.2717 82.72C57.2717 83.26 57.2717 83.74 57.2717 84.1C57.2717 84.58 57.2717 85 57.3317 85.42C57.3317 85.78 57.0317 86.14 56.5517 86.5C56.3717 86.62 56.3117 86.68 56.3117 86.74C56.2517 86.74 56.2517 86.8 56.2517 86.86C56.2517 86.86 56.2517 86.92 56.2517 87.04C56.2517 87.04 56.1917 87.16 56.1917 87.28C56.0717 87.52 55.9517 87.7 55.7717 87.7C55.5317 87.7 55.2917 87.76 55.1717 88C55.0517 88.06 54.9317 88.18 54.8117 88.3C54.6317 88.42 54.4517 88.48 54.2717 88.6C54.0917 88.66 53.9117 88.72 53.7917 88.78C53.5517 88.78 53.4317 88.66 53.3717 88.42C53.2517 88.24 53.1917 88.06 53.1917 87.88C53.0717 87.64 53.0717 87.34 53.1317 86.98C53.1317 86.2 53.1317 85.54 53.1917 84.94C53.1917 84.28 53.2517 83.68 53.2517 83.14C53.2517 82.78 53.2517 82.3 53.3117 81.7C53.3117 81.04 53.3117 80.38 53.3717 79.72C53.3717 79 53.3717 78.4 53.4317 77.86C53.4317 77.26 53.4317 76.84 53.4317 76.6C53.4317 76.12 53.4317 75.58 53.4917 75.1C53.4917 74.68 53.4917 74.2 53.5517 73.72C53.5517 73.24 53.5517 72.82 53.5517 72.46C53.5517 72.16 53.4317 71.92 53.2517 71.8C53.0117 71.68 52.7717 71.62 52.5317 71.62C52.2317 71.68 51.9317 71.74 51.6917 71.74C51.3317 71.86 51.0917 71.92 50.9717 71.92C50.0117 72.22 49.2317 72.46 48.5117 72.58C47.7917 72.82 47.0717 73.06 46.3517 73.36C45.5717 73.72 44.7317 74.08 43.8317 74.56C42.8717 75.04 41.9117 75.34 41.0117 75.4C40.5317 75.46 40.0517 75.4 39.5117 75.22C38.9117 75.1 38.3717 74.86 37.8917 74.62C37.3517 74.38 36.8717 74.14 36.5117 73.84C36.0317 73.6 35.7317 73.42 35.5517 73.3C35.0717 73 34.8317 72.82 34.7117 72.7C34.5917 72.64 34.3517 72.46 34.0517 72.1C33.6917 71.8 33.6317 71.56 33.8717 71.38C33.9917 71.26 34.1717 71.2 34.4117 71.2C34.7117 71.2 35.1917 71.32 35.8517 71.56C36.4517 71.86 37.2317 71.92 38.2517 71.8C38.7317 71.8 39.4517 71.68 40.4117 71.44C41.3117 71.32 42.2717 71.08 43.2917 70.84C44.2517 70.66 45.2117 70.48 46.1117 70.24C46.9517 70.06 47.4917 69.94 47.8517 69.82C48.4517 69.7 49.1717 69.52 49.9517 69.34C50.6717 69.22 51.5717 69.04 52.5317 68.8L52.6517 68.68L52.7717 68.56C52.9517 68.44 53.1317 68.32 53.2517 68.14C53.3117 68.02 53.4317 67.96 53.5517 67.84C53.6117 67.78 53.7317 67.72 53.9117 67.72C54.0317 67.72 54.3317 67.78 54.6917 67.9C55.0517 68.02 55.4117 68.14 55.8317 68.26C56.1917 68.44 56.6117 68.62 57.0317 68.74C57.3917 68.92 57.6917 69.1 58.0517 69.22C58.2917 69.4 58.5317 69.58 58.6517 69.82ZM31.5317 59.02C31.5317 59.74 31.7117 60.34 32.0717 60.82C32.3717 61.36 32.7917 61.78 33.3317 62.08C33.8117 62.44 34.4117 62.62 35.1317 62.62C35.7317 62.74 36.3917 62.62 37.0517 62.26C38.0117 61.78 38.7917 60.94 39.4517 59.86C40.0517 58.78 40.3517 57.58 40.2917 56.14C40.2317 55.42 40.0517 54.88 39.8117 54.46C39.5117 54.1 39.1517 53.8 38.7917 53.56C38.3717 53.38 37.9517 53.26 37.4717 53.2C36.9917 53.2 36.5117 53.26 36.1517 53.26C35.4317 53.38 34.8917 53.5 34.4117 53.68C33.9317 53.92 33.5717 54.16 33.3317 54.34C32.5517 54.7 32.0717 55.24 31.8317 55.96C31.5317 56.74 31.4117 57.76 31.5317 59.02ZM31.6517 35.5C31.8917 35.74 32.1317 35.98 32.3117 36.1C32.4317 36.34 32.7317 36.4 33.2117 36.4C33.6317 36.4 34.1117 36.34 34.5917 36.22C35.0717 36.16 35.6117 36.1 36.2117 36.1C36.7517 36.1 37.3517 36.16 38.0117 36.22C38.6117 36.34 39.1517 36.4 39.5117 36.4C39.8117 36.52 39.9917 36.82 40.1117 37.3C40.1717 37.9 40.1717 38.32 40.1117 38.62C39.9917 38.98 39.7517 39.34 39.2717 39.7C38.7317 40.12 38.1917 40.42 37.7117 40.6C37.4717 40.72 37.1717 40.72 36.7517 40.66C36.2717 40.66 35.7917 40.66 35.3117 40.54C34.8317 40.48 34.3517 40.36 33.9917 40.18C33.5717 40.06 33.3317 39.94 33.2117 39.7C32.7917 38.92 32.3717 38.26 32.0117 37.66C31.5317 37.18 31.2317 36.76 31.0517 36.52C30.8117 36.16 30.8117 35.86 31.0517 35.56C31.2317 35.32 31.4117 35.32 31.6517 35.5Z" fill="white"/>
<rect x="90.5" y="30.5" width="90" height="120" fill="#F6C500"/>
<rect x="90.5" y="30.5" width="90" height="120" stroke="black"/>
<path d="M125.649 93.7C125.949 94.3 126.489 94.9 127.209 95.62C127.869 96.34 128.409 97.12 128.769 97.84C129.129 98.62 129.309 99.52 129.369 100.6C129.369 101.68 129.489 102.58 129.609 103.3C129.669 103.78 129.729 104.14 129.849 104.5C129.849 104.92 129.789 105.16 129.609 105.28L132.549 104.92C132.909 103.96 133.209 102.94 133.509 101.8C133.749 100.72 133.929 99.7 134.109 98.62C134.229 97.6 134.349 96.64 134.469 95.68C134.469 94.78 134.529 94 134.529 93.34C134.529 92.92 134.529 92.62 134.529 92.44C134.469 92.32 134.469 92.14 134.469 91.96C134.409 91.48 134.289 91.06 134.109 90.58C133.869 90.16 133.509 89.86 132.969 89.62C132.849 89.62 132.669 89.5 132.549 89.38C132.369 89.32 132.249 89.2 132.189 89.08C132.069 88.96 132.069 88.84 132.189 88.72C132.249 88.6 132.489 88.54 132.849 88.42C133.809 88.36 134.769 88.36 135.729 88.48C136.629 88.6 137.529 88.78 138.489 88.9C138.969 89.02 139.389 89.2 139.689 89.56C139.929 89.92 139.809 90.76 139.389 92.02C139.149 92.68 138.969 93.52 138.849 94.54C138.609 95.62 138.429 96.7 138.249 97.78C138.009 98.98 137.709 100.06 137.409 101.08C137.049 102.16 136.689 103.06 136.269 103.72L135.669 104.74L145.929 104.2C147.009 104.2 148.089 104.02 149.169 103.66C150.129 103.42 150.909 103.18 151.509 102.94C151.989 102.82 152.529 102.82 153.129 102.82C153.669 102.88 154.269 102.94 154.869 103.06C155.409 103.18 155.949 103.36 156.489 103.48C156.969 103.66 157.329 103.78 157.629 103.9C158.109 104.2 158.529 104.44 158.889 104.62C159.249 104.86 159.609 105.22 160.089 105.64C160.509 106.06 160.689 106.48 160.569 106.9C160.449 107.38 160.089 107.56 159.489 107.62C159.129 107.62 158.649 107.62 157.989 107.62C157.269 107.56 156.609 107.56 155.889 107.56C155.109 107.5 154.389 107.5 153.789 107.56C153.069 107.56 152.649 107.56 152.409 107.62C152.109 107.62 151.749 107.62 151.389 107.62C150.909 107.5 150.489 107.44 150.129 107.32C149.649 107.26 149.289 107.14 148.929 107.02C148.569 106.96 148.269 106.9 148.029 106.84C147.789 106.84 147.189 106.78 146.289 106.72C145.329 106.72 144.189 106.72 142.989 106.72C141.729 106.72 140.469 106.72 139.269 106.72C137.949 106.78 136.929 106.84 136.089 106.9C134.109 107.08 132.189 107.32 130.269 107.56C128.349 107.8 126.489 108.16 124.689 108.64C123.429 108.88 122.589 109.06 122.109 109.24C121.569 109.36 121.149 109.6 120.849 109.96C120.549 110.26 120.249 110.44 120.009 110.56C119.649 110.56 119.169 110.5 118.509 110.32C118.149 110.2 117.669 110.14 116.949 110.02C116.229 109.9 115.449 109.78 114.669 109.66C113.829 109.48 113.109 109.36 112.509 109.24C111.789 109.06 111.369 108.94 111.189 108.88C110.949 108.82 110.769 108.7 110.649 108.52C110.469 108.28 110.409 108.04 110.409 107.86C110.409 107.62 110.469 107.44 110.709 107.26C110.829 107.14 111.129 107.08 111.609 107.08C111.969 107.14 112.509 107.14 113.109 107.02C113.649 106.96 114.189 106.84 114.789 106.72C115.029 106.66 115.389 106.54 115.929 106.42C116.409 106.3 116.949 106.18 117.549 106.06C118.089 105.94 118.689 105.88 119.289 105.76C119.889 105.7 120.369 105.64 120.849 105.64C121.329 105.7 121.869 105.76 122.469 105.82C123.069 105.94 123.609 106 124.209 106C124.509 106 125.169 105.94 126.189 105.76C127.149 105.64 128.229 105.52 129.429 105.28C129.189 105.28 128.949 105.28 128.769 105.16C127.989 104.92 127.209 104.5 126.489 103.9C125.649 103.42 125.109 102.76 124.749 101.92C124.509 101.56 124.389 101.02 124.389 100.36C124.269 99.76 124.209 99.16 124.209 98.44C124.149 97.84 124.149 97.18 124.149 96.52C124.089 95.92 124.029 95.38 124.029 94.9C123.909 94.3 123.849 93.7 123.849 93.22C123.849 92.74 123.909 92.44 124.089 92.26C124.209 92.14 124.389 92.14 124.689 92.32C124.929 92.56 125.229 92.98 125.649 93.7ZM126.789 74.68C127.629 74.56 128.709 74.38 129.969 74.14C131.169 73.96 132.429 73.72 133.749 73.42C135.009 73.18 136.269 72.94 137.589 72.58C138.789 72.34 139.929 72.04 140.889 71.8C141.489 71.62 142.089 71.62 142.629 71.74C143.109 71.92 143.709 72.1 144.429 72.28C145.089 72.52 145.809 72.76 146.529 73C147.189 73.3 147.729 73.54 148.209 73.78C148.629 74.02 148.929 74.38 149.109 74.98C149.229 75.58 149.169 76.42 148.989 77.5C148.929 77.86 148.869 78.52 148.809 79.36C148.689 80.32 148.569 81.34 148.449 82.42C148.269 83.62 148.089 84.82 147.969 86.08C147.789 87.4 147.669 88.6 147.549 89.74C147.369 90.94 147.249 92.02 147.129 92.92C147.009 93.88 146.889 94.54 146.889 94.9C146.769 95.56 146.709 95.98 146.709 96.22C146.649 96.52 146.589 96.7 146.589 96.82C146.469 96.94 146.409 97.06 146.349 97.18C146.229 97.3 146.109 97.54 145.989 97.9C145.749 98.62 145.389 99.04 145.029 99.16C144.549 99.4 144.189 99.28 143.889 98.8C143.649 98.38 143.289 97.9 142.809 97.42C142.269 97 141.729 96.58 141.189 96.1C140.529 95.74 140.289 95.44 140.529 95.08C140.649 94.84 141.069 94.72 141.789 94.78C142.449 94.84 142.929 94.72 143.229 94.42C143.469 94.18 143.589 93.82 143.589 93.4C143.589 93.28 143.589 92.86 143.649 92.08C143.649 91.36 143.649 90.52 143.709 89.44C143.709 88.48 143.709 87.34 143.769 86.14C143.769 85 143.829 83.86 143.889 82.78C143.889 81.76 143.949 80.86 144.009 80.02C144.009 79.3 144.069 78.76 144.129 78.52C144.189 77.62 144.069 76.9 143.709 76.42C143.289 75.94 142.809 75.64 142.209 75.52C141.609 75.46 141.009 75.4 140.349 75.34C139.629 75.34 139.029 75.34 138.669 75.34L134.889 76.48C134.409 76.66 133.869 76.84 133.269 77.02C132.609 77.26 131.949 77.5 131.349 77.68C130.689 77.92 130.089 78.04 129.489 78.16C128.889 78.34 128.349 78.4 127.929 78.34C126.489 78.28 125.289 77.98 124.209 77.38C123.069 76.84 122.229 76.36 121.689 76C121.509 75.88 121.389 75.76 121.329 75.52C121.209 75.4 121.209 75.22 121.269 74.98C121.269 74.86 121.329 74.68 121.569 74.56C121.689 74.5 121.929 74.5 122.289 74.5C122.529 74.56 122.829 74.62 123.249 74.62C123.609 74.68 123.969 74.68 124.449 74.68C124.869 74.68 125.289 74.68 125.769 74.68C126.129 74.68 126.489 74.68 126.789 74.68Z" fill="white"/>
<rect x="180.5" y="0.5" width="90" height="120" fill="#F6C500"/>
<rect x="180.5" y="0.5" width="90" height="120" stroke="black"/>
<path d="M234.565 36.88C234.565 36.94 234.625 36.94 234.685 36.94C234.685 36.94 234.745 37 234.865 37H234.985L235.225 37.12C235.705 37.24 235.945 37.48 236.005 37.84C236.005 37.96 236.005 38.14 236.005 38.26C236.005 38.32 236.005 38.38 236.005 38.38C235.945 38.44 235.945 38.5 235.945 38.56C235.885 38.68 235.885 38.74 235.885 38.74C235.885 38.8 235.825 38.86 235.825 38.86L235.705 39.34C235.525 39.82 235.405 40.18 235.405 40.54L235.225 41.44L235.105 42.16V43C235.045 43.24 235.045 43.42 235.045 43.66C235.045 43.9 235.045 44.2 235.045 44.44C234.985 45.04 234.985 45.58 234.985 46.18C234.985 46.78 234.985 47.32 234.985 47.74V48.46L234.865 50.38V50.92C234.865 51.04 234.865 51.1 234.865 51.22C234.805 51.34 234.805 51.46 234.805 51.52C234.805 52.12 234.805 52.6 234.805 53.02C234.745 53.5 234.745 53.86 234.805 54.1V57.1C234.805 57.34 234.805 57.52 234.805 57.7C234.745 57.94 234.745 58.18 234.745 58.42V58.9C234.745 59.74 234.745 60.52 234.805 61.36C234.805 62.26 234.805 63.16 234.805 64V72.7C234.805 72.88 234.745 73.06 234.685 73.3L234.505 73.6C234.505 73.66 234.445 73.72 234.385 73.78L233.965 74.2L233.725 74.38C233.605 74.44 233.545 74.44 233.545 74.44C233.425 74.5 233.365 74.56 233.305 74.62C233.245 74.62 233.185 74.68 233.125 74.74C233.065 74.8 233.005 74.8 233.005 74.8L232.885 74.92L232.465 75.34L232.285 75.46L231.985 75.64C231.865 75.76 231.805 75.76 231.805 75.76C231.565 75.88 231.385 75.88 231.385 75.88C231.325 75.88 231.265 75.82 231.265 75.82C231.145 75.82 231.085 75.76 230.965 75.64C230.845 75.58 230.845 75.52 230.845 75.46C230.725 75.28 230.665 74.92 230.605 74.38C230.605 74.38 230.605 74.32 230.605 74.26C230.545 74.26 230.545 74.2 230.545 74.14V59.02C230.545 58.96 230.545 58.84 230.545 58.72C230.485 58.66 230.485 58.6 230.485 58.48V57.64H230.365L229.705 57.82C229.345 57.94 229.045 58 228.685 58.06C228.325 58.18 227.965 58.24 227.605 58.3C227.485 58.3 227.425 58.3 227.425 58.3C227.365 58.36 227.305 58.36 227.245 58.36C226.765 58.48 226.405 58.42 226.285 58.3C226.165 58.3 226.165 58.3 226.165 58.24L225.985 58.06L225.685 57.7C225.685 57.7 225.685 57.64 225.685 57.58C225.625 57.58 225.625 57.58 225.625 57.52C225.505 57.46 225.505 57.4 225.505 57.34L225.145 56.92C225.025 57.16 224.965 57.28 224.905 57.28C224.785 57.4 224.665 57.46 224.605 57.58C224.545 57.7 224.545 57.82 224.665 57.82C224.665 57.94 224.725 58 224.845 58.12C224.845 58.3 224.905 58.48 224.965 58.72C224.965 58.96 224.965 59.32 224.905 59.74C224.545 61.06 224.065 62.2 223.345 63.22C222.625 64.3 221.665 65.26 220.585 66.1C219.985 66.58 219.325 66.88 218.605 67.12C217.885 67.42 217.165 67.6 216.505 67.72C215.785 67.84 215.185 67.9 214.585 67.9C213.985 67.9 213.505 67.9 213.145 67.9C212.305 67.84 211.405 67.66 210.505 67.36C209.545 67.12 208.765 66.76 208.105 66.4C207.025 65.8 206.245 65.02 205.645 63.94C205.045 62.98 204.625 61.9 204.385 60.7C204.145 59.56 204.025 58.42 204.145 57.22C204.205 56.14 204.445 55.12 204.805 54.28C205.105 53.5 205.585 52.66 206.305 51.76C206.965 50.92 207.865 50.14 208.945 49.42C208.765 48.76 208.585 48.16 208.345 47.56C208.105 47.02 207.865 46.6 207.625 46.3C207.385 46.06 207.205 45.82 207.205 45.52C207.145 45.28 207.205 45.04 207.325 44.8C207.445 44.68 207.625 44.56 207.865 44.5C208.045 44.5 208.285 44.62 208.525 44.8C209.005 45.16 209.485 45.4 209.905 45.58C210.265 45.82 210.865 46.18 211.705 46.54C212.065 46.78 212.425 47.08 212.725 47.44C212.965 47.92 213.205 48.4 213.385 48.88C213.865 48.64 214.465 48.34 215.185 48.1C215.845 47.86 216.625 47.8 217.465 47.8C218.185 47.92 219.025 48.1 219.925 48.34C220.765 48.7 221.545 49.12 222.325 49.66C223.045 50.26 223.645 50.98 224.185 51.82C224.665 52.66 225.025 53.68 225.145 54.88L226.465 54.7H226.585C227.005 54.7 227.605 54.64 228.445 54.52C228.745 54.46 229.045 54.4 229.405 54.34C229.705 54.34 230.065 54.28 230.425 54.16C230.425 53.62 230.425 53.08 230.425 52.6C230.365 52.18 230.365 51.82 230.425 51.58V51.22L230.485 51.16C230.545 51.1 230.605 51.04 230.665 51.04L230.785 50.98C230.845 50.92 230.905 50.92 230.905 50.92C230.905 50.92 230.965 50.92 231.085 50.8L231.145 50.68C231.145 50.68 231.205 50.62 231.205 50.5C231.205 50.32 231.145 50.08 231.025 49.84C230.965 49.84 230.965 49.78 230.965 49.72C230.845 49.66 230.845 49.6 230.845 49.48C230.785 49.42 230.725 49.3 230.665 49.18C230.665 49.12 230.605 49.06 230.605 49C230.605 48.94 230.605 48.82 230.605 48.7C230.545 48.58 230.545 48.46 230.605 48.34V48.22C230.605 48.22 230.605 48.16 230.665 48.16C230.665 48.16 230.665 48.16 230.665 48.1V47.8C230.665 47.5 230.725 47.2 230.725 46.84C230.665 46.6 230.665 46.3 230.665 45.94V45.22C230.665 44.26 230.665 43.48 230.725 42.88C230.725 42.28 230.725 41.8 230.725 41.32C230.725 41.26 230.725 41.2 230.725 41.08C230.665 41.02 230.665 40.96 230.665 40.84V40.66C230.605 40.54 230.605 40.36 230.665 40.12C230.665 40 230.605 39.82 230.605 39.58V39.28L230.485 38.86L230.245 38.38C230.185 38.32 230.125 38.26 230.125 38.14C230.005 38.14 229.945 38.08 229.885 37.96L229.585 37.78C229.345 37.6 229.105 37.42 228.865 37.3C228.625 37.18 228.385 37.12 228.205 37L227.605 36.64C227.365 36.52 227.245 36.34 227.245 36.04C227.245 36.04 227.245 35.98 227.245 35.92C227.185 35.92 227.185 35.86 227.245 35.74C227.245 35.68 227.245 35.62 227.365 35.5C227.365 35.5 227.365 35.44 227.425 35.38L227.485 35.32C227.485 35.32 227.545 35.26 227.605 35.26C227.605 35.26 227.605 35.2 227.665 35.2C227.665 35.2 227.785 35.14 228.025 35.14C228.265 35.14 228.445 35.2 228.625 35.2C228.625 35.2 228.685 35.26 228.745 35.26C228.805 35.26 228.865 35.26 228.925 35.26C228.925 35.32 228.925 35.32 229.045 35.32L229.705 35.56L231.925 36.22L232.465 36.34L232.945 36.52C233.005 36.52 233.065 36.52 233.125 36.52C233.125 36.58 233.185 36.58 233.305 36.58L234.565 36.88ZM244.165 44.44V45.34C244.165 45.58 244.165 45.88 244.165 46.12C244.105 46.48 244.105 46.78 244.105 47.08C244.105 47.2 244.105 47.32 244.105 47.44C244.045 47.56 244.045 47.68 244.045 47.8C244.045 48.04 244.045 48.22 244.045 48.34C243.985 48.58 243.985 48.76 243.985 48.94V53.44C243.985 53.56 243.985 53.62 244.045 53.68C244.045 53.8 244.045 53.92 244.045 54.04V54.64C244.045 55.12 244.105 55.54 244.105 56.02C244.105 56.5 244.105 57.1 244.105 57.7V65.92C244.045 66.22 244.045 66.46 244.045 66.7C244.045 67 244.045 67.24 244.045 67.48V68.32C243.985 68.92 243.985 69.52 243.985 70C243.925 70.6 243.925 71.08 243.925 71.5C243.865 71.92 243.865 72.28 243.865 72.58C243.865 72.94 243.865 73.18 243.865 73.42V74.92C243.865 75.04 243.865 75.1 243.865 75.16C243.805 75.28 243.805 75.4 243.805 75.52C243.805 75.82 243.745 76 243.745 76.12L243.565 77.74L243.445 78.4C243.445 78.52 243.385 78.64 243.385 78.76C243.385 78.88 243.325 79 243.325 79.12L243.085 80.44C242.965 80.68 242.905 80.92 242.905 81.16C242.845 81.34 242.785 81.52 242.785 81.76C242.665 81.94 242.605 82.24 242.545 82.66L242.365 83.2C242.365 83.26 242.365 83.32 242.365 83.38C242.305 83.38 242.305 83.38 242.305 83.5C242.005 84.34 241.765 85 241.585 85.36C241.465 85.42 241.465 85.48 241.465 85.6C241.345 85.72 241.285 85.84 241.225 85.96C240.985 86.2 240.805 86.5 240.685 86.8C240.445 87.04 240.265 87.22 240.085 87.4L239.965 87.52C239.785 87.58 239.665 87.64 239.605 87.64C239.545 87.64 239.485 87.58 239.485 87.58L239.425 87.52C239.305 87.34 239.305 87.16 239.305 87.04V86.5C239.305 86.38 239.305 86.26 239.365 86.14C239.365 85.96 239.365 85.78 239.425 85.6C239.425 85.36 239.485 85.18 239.545 85C239.545 84.76 239.545 84.52 239.545 84.28L239.665 82.96C239.665 82.54 239.665 82.12 239.725 81.7C239.725 81.22 239.725 80.8 239.725 80.32C239.725 80.08 239.725 79.9 239.785 79.72C239.785 79.48 239.785 79.3 239.785 79.12C239.785 78.58 239.785 78.1 239.845 77.62C239.845 77.14 239.845 76.6 239.845 76V63.7C239.845 63.28 239.845 62.86 239.845 62.44C239.845 62.08 239.785 61.66 239.785 61.18C239.785 60.76 239.785 60.28 239.785 59.8C239.725 59.38 239.725 58.9 239.725 58.3V56.56L239.605 54.4V53.5C239.605 53.32 239.605 53.14 239.605 52.9C239.545 52.78 239.545 52.6 239.545 52.36V48.46C239.545 48.4 239.545 48.34 239.605 48.22C239.605 48.16 239.605 48.1 239.605 48.04C239.605 47.92 239.605 47.86 239.665 47.86C239.665 47.74 239.785 47.68 239.905 47.68C239.965 47.68 240.025 47.62 240.145 47.56C240.205 47.56 240.265 47.44 240.385 47.2C240.385 47.08 240.325 46.84 240.145 46.54C240.025 46.48 240.025 46.42 240.025 46.36C239.905 46.3 239.905 46.24 239.905 46.12C239.785 46 239.785 45.88 239.785 45.76C239.725 45.76 239.725 45.7 239.725 45.64V45.16C239.725 45.16 239.725 45.1 239.785 45.1C239.785 45.1 239.785 45.1 239.785 45.04V44.68C239.785 44.26 239.845 43.78 239.845 43.3C239.785 42.88 239.785 42.4 239.845 41.92C239.785 41.56 239.785 41.26 239.785 40.9C239.785 40.66 239.785 40.36 239.785 40.12C239.785 39.76 239.785 39.46 239.845 39.16C239.845 38.92 239.845 38.62 239.845 38.38V37.36C239.845 37.36 239.845 37.3 239.845 37.24C239.785 37.24 239.785 37.18 239.785 37.06C239.785 36.88 239.785 36.7 239.785 36.52C239.785 36.4 239.725 36.22 239.725 35.98C239.725 35.86 239.665 35.8 239.665 35.74C239.665 35.62 239.605 35.5 239.545 35.32C239.425 35.2 239.365 35.08 239.305 34.96C239.185 34.9 239.125 34.78 239.065 34.66L238.645 34.36L238.225 34.12C238.045 34.06 237.925 34 237.805 33.94C237.625 33.94 237.505 33.88 237.385 33.76L237.205 33.64H237.145L236.965 33.52L236.665 33.34H236.605L236.365 33.1L236.245 32.74C236.245 32.5 236.245 32.38 236.365 32.26V32.2L236.545 32.02C236.605 31.96 236.665 31.9 236.785 31.9C236.845 31.9 236.965 31.84 237.145 31.84H237.505C237.505 31.84 237.565 31.84 237.625 31.84C237.625 31.9 237.625 31.9 237.745 31.9L238.405 32.14H238.525C238.525 32.2 238.585 32.2 238.645 32.2C238.645 32.2 238.705 32.26 238.825 32.26L239.605 32.5C239.845 32.62 240.085 32.68 240.325 32.68C240.565 32.8 240.805 32.86 241.045 32.92C241.345 32.98 241.705 33.1 242.185 33.22C242.245 33.22 242.305 33.22 242.365 33.22C242.365 33.28 242.425 33.28 242.545 33.28C242.785 33.4 242.905 33.4 243.025 33.4C243.025 33.46 243.145 33.46 243.265 33.46C243.505 33.58 243.685 33.58 243.805 33.58L243.865 33.64H244.045C244.045 33.7 244.105 33.7 244.225 33.7L244.705 33.88L244.885 34L245.125 34.18C245.185 34.3 245.245 34.36 245.245 34.42C245.245 34.54 245.305 34.66 245.305 34.78C245.305 34.84 245.305 34.84 245.305 34.84C245.245 34.9 245.245 34.96 245.245 34.96C245.245 35.02 245.245 35.08 245.245 35.08C245.185 35.14 245.185 35.2 245.185 35.26C245.125 35.38 245.125 35.44 245.125 35.44C245.125 35.5 245.065 35.56 245.065 35.56C245.065 35.68 245.065 35.68 245.065 35.68C245.005 35.74 245.005 35.8 245.005 35.86C244.945 35.92 244.945 35.98 244.945 36.04L244.645 37.12C244.525 37.36 244.525 37.6 244.525 37.78C244.465 37.9 244.465 38.02 244.465 38.14C244.465 38.2 244.465 38.2 244.465 38.2C244.405 38.26 244.405 38.32 244.405 38.38V38.62C244.405 38.68 244.405 38.68 244.405 38.68C244.345 38.74 244.345 38.8 244.345 38.86V40.78C244.345 41.02 244.345 41.2 244.345 41.32C244.285 41.56 244.285 41.74 244.285 41.92V42.58C244.225 42.94 244.225 43.24 244.225 43.54C244.165 43.9 244.165 44.2 244.165 44.44ZM212.545 52.66C211.645 53.44 210.925 53.74 210.385 53.5C209.665 53.44 209.185 53.74 208.825 54.4C208.405 55.12 208.165 55.84 208.105 56.44C208.045 57.16 208.045 57.88 208.165 58.6C208.165 59.32 208.345 59.98 208.645 60.58C208.885 61.24 209.305 61.78 209.905 62.26C210.385 62.74 211.165 63.16 212.125 63.4C213.265 63.76 214.285 63.82 215.245 63.64C216.145 63.52 217.045 63.22 217.945 62.8C219.025 61.84 219.745 60.82 220.105 59.74C220.405 58.66 220.585 57.46 220.705 56.14C220.765 54.76 220.405 53.5 219.685 52.36C218.845 51.28 217.825 50.62 216.565 50.26C216.085 50.2 215.605 50.2 215.065 50.2C214.465 50.26 213.985 50.26 213.565 50.26C213.565 51.28 213.205 52.06 212.545 52.66Z" fill="white"/>
</svg>
