<svg width="451" height="181" viewBox="0 0 451 181" fill="none" xmlns="http://www.w3.org/2000/svg">
<rect x="0.5" y="60.5" width="90" height="120" fill="#90C85F"/>
<rect x="0.5" y="60.5" width="90" height="120" stroke="black"/>
<path d="M67.8134 117.58C66.6734 117.58 65.7134 116.68 65.7134 115.48V100.96C65.7134 99.82 66.6734 98.86 67.8134 98.86C68.9534 98.86 69.9134 99.82 69.9134 100.96V106.24H73.4534C74.5934 106.24 75.4934 107.14 75.4934 108.28C75.4934 109.42 74.5934 110.32 73.4534 110.32H69.9134V115.48C69.9134 116.68 68.9534 117.58 67.8134 117.58ZM25.9334 138.34C22.2134 138.34 20.1734 136.12 20.1734 132.76C20.1734 129.4 22.2134 127.24 25.9334 127.24H65.1134C66.3134 127.24 66.7934 126.52 66.7934 125.56C66.7934 124.6 66.3134 123.94 65.1134 123.94H22.0334C19.2734 123.94 19.2734 120.1 22.0334 120.1H65.2334C68.9534 120.1 70.9934 122.32 70.9934 125.62C70.9934 128.92 68.9534 131.02 65.2334 131.02H26.0534C24.8534 131.02 24.3734 131.68 24.3734 132.7C24.3734 133.72 24.8534 134.44 26.0534 134.44H70.0334C72.8534 134.44 72.7934 138.34 70.0334 138.34H25.9334ZM19.1534 116.32C17.8934 116.44 17.1134 115.54 16.9934 114.52C16.9334 113.56 17.5334 112.54 18.9734 112.42C24.0734 112.06 36.4334 108.7 36.4334 104.08V103.96H20.6534C19.3334 103.96 18.6134 103 18.6134 101.98C18.6134 101.02 19.3334 100.06 20.6534 100.06H56.2934C57.6734 100.06 58.3334 101.02 58.3334 101.98C58.3334 103 57.6734 103.96 56.2934 103.96H40.5134V104.08C40.5134 108.82 53.5334 112.18 57.9734 112.42C59.4134 112.48 60.0134 113.56 59.9534 114.52C59.8334 115.54 59.0534 116.44 57.6734 116.32C51.9734 115.72 42.6134 113.32 38.4734 108.64C34.3334 113.26 25.0934 115.78 19.1534 116.32Z" fill="white"/>
<rect x="90.5" y="29.5" width="90" height="120" fill="#90C85F"/>
<rect x="90.5" y="29.5" width="90" height="120" stroke="black"/>
<path d="M109.873 105.24C108.613 105.72 107.593 105.12 107.233 104.22C106.873 103.26 107.113 102.12 108.313 101.58C117.973 97.44 126.733 86.1 126.733 73.56V73.5H110.773C109.633 73.5 108.793 72.6 108.793 71.52C108.793 70.44 109.633 69.54 110.773 69.54H146.893C148.033 69.54 148.873 70.44 148.873 71.52C148.873 72.6 148.033 73.5 146.893 73.5H130.933V73.56C130.933 85.86 139.153 96.84 149.353 101.58C150.613 102.12 150.853 103.32 150.433 104.22C150.073 105.12 149.053 105.72 147.793 105.24C139.993 102 131.773 93.3 128.833 84.18C125.893 93.42 117.553 102.18 109.873 105.24ZM158.413 107.34C157.273 107.34 156.313 106.44 156.313 105.24V69.96C156.313 68.82 157.273 67.86 158.413 67.86C159.553 67.86 160.513 68.82 160.513 69.96V105.24C160.513 106.44 159.553 107.34 158.413 107.34Z" fill="white"/>
<rect x="180.5" y="0.5" width="90" height="120" fill="#90C85F"/>
<rect x="180.5" y="0.5" width="90" height="120" stroke="black"/>
<path d="M249.973 78.34C248.833 78.34 247.873 77.44 247.873 76.24V60.34H243.133V74.98C243.133 76.18 242.233 77.08 241.093 77.08C239.953 77.08 238.993 76.18 238.993 74.98V41.8C238.993 40.66 239.953 39.7 241.093 39.7C242.233 39.7 243.133 40.66 243.133 41.8V56.32H247.873V40.96C247.873 39.82 248.833 38.86 249.973 38.86C251.113 38.86 252.073 39.82 252.073 40.96V76.24C252.073 77.44 251.113 78.34 249.973 78.34ZM207.373 76.3C201.853 76.42 199.393 74.74 199.393 69.4V42.52C199.393 41.44 200.353 40.36 201.553 40.36C202.873 40.42 203.713 41.5 203.713 42.52V67.96C203.713 71.92 204.133 72.16 208.093 72.22C216.493 72.22 226.573 70.9 232.753 69.4C235.573 68.68 236.473 72.7 233.773 73.36C227.293 74.92 217.393 76.3 207.373 76.3Z" fill="white"/>
<rect x="270.5" y="0.5" width="90" height="120" fill="#90C85F"/>
<rect x="270.5" y="0.5" width="90" height="120" stroke="black"/>
<path d="M337.813 78.34C336.673 78.34 335.713 77.44 335.713 76.24V40.96C335.713 39.82 336.673 38.86 337.813 38.86C338.953 38.86 339.913 39.82 339.913 40.96V55.48H343.453C344.593 55.48 345.493 56.38 345.493 57.52C345.493 58.66 344.593 59.56 343.453 59.56H339.913V76.24C339.913 77.44 338.953 78.34 337.813 78.34ZM297.553 76.3C292.213 76.3 290.053 74.62 290.053 69.52V63.04C290.053 57.22 292.633 55.54 298.333 55.54H314.953C318.853 55.54 319.273 55.24 319.273 51.04V48.94C319.273 44.74 318.853 44.44 314.953 44.44H291.973C289.393 44.44 289.393 40.54 291.973 40.54H315.013C320.833 40.54 323.473 42.22 323.473 48.04V51.94C323.473 57.76 320.953 59.44 315.253 59.44H298.573C294.673 59.44 294.253 59.74 294.253 63.94V68.8C294.253 72.1 294.613 72.4 298.273 72.4C309.973 72.4 320.293 71.08 326.533 69.52C329.233 68.86 330.073 72.64 327.493 73.3C320.893 74.98 310.093 76.3 297.553 76.3Z" fill="white"/>
<rect x="360.5" y="30.5" width="90" height="120" fill="#90C85F"/>
<rect x="360.5" y="30.5" width="90" height="120" stroke="black"/>
<path d="M428.353 89.14C427.213 89.14 426.253 88.24 426.253 87.04V70.96C426.253 69.82 427.213 68.86 428.353 68.86C429.493 68.86 430.453 69.82 430.453 70.96V87.04C430.453 88.24 429.493 89.14 428.353 89.14ZM405.973 109.06C390.733 109.06 380.533 106.18 380.533 100.06C380.533 93.94 390.733 91.06 405.973 91.06C421.213 91.06 431.173 93.94 431.173 100.06C431.173 106.18 421.213 109.06 405.973 109.06ZM405.973 105.16C418.213 105.16 426.973 102.82 426.973 100.06C426.973 97.3 418.213 94.96 405.973 94.96C393.733 94.96 384.733 97.3 384.733 100.06C384.733 102.82 393.733 105.16 405.973 105.16ZM397.393 88.78C387.193 88.78 378.013 85.42 378.013 78.82C378.013 72.22 387.193 68.86 397.393 68.86C407.593 68.86 416.773 72.22 416.773 78.82C416.773 85.42 407.593 88.78 397.393 88.78ZM397.393 84.94C406.753 84.94 412.573 82.12 412.573 78.82C412.573 75.52 406.753 72.7 397.393 72.7C388.033 72.7 382.213 75.52 382.213 78.82C382.213 82.12 388.033 84.94 397.393 84.94Z" fill="white"/>
</svg>
