<svg width="181" height="121" viewBox="0 0 181 121" fill="none" xmlns="http://www.w3.org/2000/svg">
<rect x="90.5" y="0.5" width="90" height="120" fill="#90C85F"/>
<rect x="90.5" y="0.5" width="90" height="120" stroke="black"/>
<path d="M158.353 67.48C157.213 67.48 156.253 66.58 156.253 65.38V53.44H151.993C150.853 53.44 149.953 52.54 149.953 51.4C149.953 50.26 150.853 49.36 151.993 49.36H156.253V40.96C156.253 39.82 157.213 38.86 158.353 38.86C159.493 38.86 160.453 39.82 160.453 40.96V65.38C160.453 66.58 159.493 67.48 158.353 67.48ZM118.993 77.74C113.653 77.74 111.493 76.36 111.493 72.46V67.36C111.493 65.92 112.573 65.2 113.653 65.2C114.733 65.2 115.813 65.92 115.813 67.36V71.38C115.813 73.36 116.353 73.66 119.773 73.66H159.613C160.693 73.66 161.653 74.56 161.653 75.7C161.653 76.84 160.693 77.74 159.613 77.74H118.993ZM110.953 62.08C109.573 62.14 108.793 61.06 108.793 60.04C108.793 59.08 109.453 58.12 110.833 58.12C120.733 57.76 135.193 54.58 139.333 45.58C139.933 44.26 139.813 44.02 138.793 44.02H111.973C110.893 44.02 109.993 43.12 109.993 42.04C109.993 40.96 110.893 40.06 111.973 40.06H140.833C144.013 40.06 145.573 42.1 143.533 46.54C138.853 57.76 123.073 61.66 110.953 62.08Z" fill="white"/>
<rect x="0.5" y="0.5" width="90" height="120" fill="#90C85F"/>
<rect x="0.5" y="0.5" width="90" height="120" stroke="black"/>
<path d="M66.2534 64.9C65.8334 66.22 64.6334 66.7 63.6734 66.4C62.6534 66.1 61.8734 65.14 62.2934 63.64C63.9134 58.12 64.9334 53.08 65.2934 47.32C65.3534 46.18 65.2934 45.52 64.8734 45.16C64.3934 44.68 63.5534 44.56 61.8734 44.56H22.6334C21.5534 44.56 20.7134 43.66 20.7134 42.58C20.7134 41.5 21.5534 40.54 22.6334 40.54H62.1134C65.2334 40.54 67.2134 40.9 68.2934 42.04C69.3134 43 69.6134 44.56 69.5534 47.02C69.1334 54.64 67.7534 60.1 66.2534 64.9ZM20.5934 77.26C19.4534 77.26 18.5534 76.36 18.5534 75.22C18.5534 74.08 19.4534 73.18 20.5934 73.18H70.3934C71.5334 73.18 72.4334 74.08 72.4334 75.22C72.4334 76.36 71.5334 77.26 70.3934 77.26H20.5934Z" fill="white"/>
</svg>
