<svg width="271" height="151" viewBox="0 0 271 151" fill="none" xmlns="http://www.w3.org/2000/svg">
<rect x="90.5" y="0.5" width="90" height="120" fill="#90C85F"/>
<rect x="90.5" y="0.5" width="90" height="120" stroke="black"/>
<path d="M135.493 67.24C120.193 67.24 109.693 61.48 109.693 52.96C109.693 44.44 120.193 38.68 135.493 38.68C150.793 38.68 161.293 44.44 161.293 52.96C161.293 61.48 150.793 67.24 135.493 67.24ZM135.493 63.28C148.153 63.28 157.093 59.26 157.093 52.96C157.093 46.66 148.153 42.64 135.493 42.64C122.833 42.64 113.893 46.66 113.893 52.96C113.893 59.26 122.833 63.28 135.493 63.28ZM110.593 77.26C109.453 77.26 108.553 76.36 108.553 75.22C108.553 74.14 109.453 73.24 110.593 73.24H160.453C161.533 73.24 162.433 74.14 162.433 75.22C162.433 76.36 161.533 77.26 160.453 77.26H110.593Z" fill="white"/>
<rect x="180.5" y="30.5" width="90" height="120" fill="#90C85F"/>
<rect x="180.5" y="30.5" width="90" height="120" stroke="black"/>
<path d="M200.233 99.34C199.093 99.34 198.253 98.5 198.253 97.36C198.253 96.22 199.093 95.38 200.233 95.38H250.753C251.893 95.38 252.733 96.22 252.733 97.36C252.733 98.5 251.893 99.34 250.753 99.34H227.593V107.5C227.593 108.7 226.633 109.6 225.493 109.6C224.353 109.6 223.393 108.7 223.393 107.5V99.34H200.233ZM207.793 90.46C203.353 90.46 200.893 89.02 200.893 84.58V83.98C200.893 79.6 203.713 78.16 207.553 78.16H243.313C245.173 78.16 245.893 77.8 245.893 76.24V76.06C245.893 74.56 245.113 74.14 243.313 74.14H202.933C200.233 74.14 200.233 70.24 202.933 70.24H243.073C247.153 70.24 250.093 71.5 250.093 75.82V76.3C250.093 81.34 247.153 82.06 243.073 82.06H207.553C205.993 82.06 205.093 82.48 205.093 84.1V84.52C205.093 86.08 205.933 86.56 207.553 86.56H249.133C251.833 86.56 251.833 90.46 249.133 90.46H207.793Z" fill="white"/>
<rect x="0.5" y="0.5" width="90" height="120" fill="#90C85F"/>
<rect x="0.5" y="0.5" width="90" height="120" stroke="black"/>
<path d="M68.9291 58.722C67.7321 58.722 66.7241 57.777 66.7241 56.517V39.633C66.7241 38.436 67.7321 37.428 68.9291 37.428C70.1261 37.428 71.1341 38.436 71.1341 39.633V45.933H74.8511C76.0481 45.933 76.9931 46.878 76.9931 48.075C76.9931 49.272 76.0481 50.217 74.8511 50.217H71.1341V56.517C71.1341 57.777 70.1261 58.722 68.9291 58.722ZM25.9001 57.21C20.4191 57.21 18.7811 55.95 18.7811 51.099V44.736C18.7811 39.948 20.4191 38.688 25.9001 38.688H47.7611C53.2421 38.688 54.8801 39.948 54.8801 44.736V51.099C54.8801 55.95 53.2421 57.21 47.7611 57.21H25.9001ZM23.1911 50.721C23.1911 52.8 23.6321 53.115 26.5301 53.115H47.1311C50.0291 53.115 50.4701 52.8 50.4701 50.721V45.177C50.4701 43.098 50.0291 42.783 47.1311 42.783H26.5301C23.6321 42.783 23.1911 43.098 23.1911 45.177V50.721ZM27.2231 78.693C21.6791 78.693 20.0411 77.622 20.0411 73.023V67.479C20.0411 62.88 21.6791 61.809 27.2231 61.809H63.9521C69.4961 61.809 71.1341 62.88 71.1341 67.479V73.023C71.1341 77.622 69.4961 78.693 63.9521 78.693H27.2231ZM24.3881 72.204C24.3881 74.283 24.7661 74.598 27.4121 74.598H63.7631C66.4091 74.598 66.7871 74.283 66.7871 72.204V68.298C66.7871 66.219 66.4091 65.904 63.7631 65.904H27.4121C24.7661 65.904 24.3881 66.219 24.3881 68.298V72.204Z" fill="white"/>
</svg>
