<svg width="181" height="151" viewBox="0 0 181 151" fill="none" xmlns="http://www.w3.org/2000/svg">
<rect x="0.5" y="0.5" width="90" height="120" fill="#90C85F"/>
<rect x="0.5" y="0.5" width="90" height="120" stroke="black"/>
<path d="M19.8134 77.2C17.1134 77.2 17.1134 73.18 19.8134 73.18H25.7534C29.1734 73.18 32.2934 73.12 35.1734 73.12V69.82C35.1734 68.62 36.1334 67.72 37.2734 67.72C38.4134 67.72 39.3734 68.62 39.3734 69.82V73C49.9334 72.64 56.5934 71.98 60.4334 71.32C63.0734 70.84 63.7934 74.8 61.1534 75.28C55.6334 76.24 44.4734 77.2 25.7534 77.2H19.8134ZM67.8134 78.34C66.6734 78.34 65.7134 77.44 65.7134 76.24V40.96C65.7134 39.82 66.6734 38.86 67.8134 38.86C68.9534 38.86 69.9134 39.82 69.9134 40.96V55.48H73.4534C74.5934 55.48 75.4934 56.38 75.4934 57.52C75.4934 58.66 74.5934 59.56 73.4534 59.56H69.9134V76.24C69.9134 77.44 68.9534 78.34 67.8134 78.34ZM27.4934 65.5C22.2134 65.5 20.6534 64.42 20.6534 59.8V41.86C20.6534 40.72 21.6134 39.76 22.7534 39.76C23.8934 39.76 24.8534 40.72 24.8534 41.86V48.64H50.2334V41.86C50.2334 40.72 51.1934 39.76 52.3334 39.76C53.4734 39.76 54.4334 40.72 54.4334 41.86V59.8C54.4334 64.42 52.8734 65.5 47.5934 65.5H27.4934ZM24.8534 59.26C24.8534 61.24 25.2734 61.54 28.0934 61.54H46.9934C49.8134 61.54 50.2334 61.24 50.2334 59.26V52.54H24.8534V59.26Z" fill="white"/>
<rect x="90.5" y="30.5" width="90" height="120" fill="#90C85F"/>
<rect x="90.5" y="30.5" width="90" height="120" stroke="black"/>
<path d="M157.813 108.34C156.673 108.34 155.713 107.44 155.713 106.24V70.96C155.713 69.82 156.673 68.86 157.813 68.86C158.953 68.86 159.913 69.82 159.913 70.96V77.92H163.513C164.653 77.92 165.493 78.82 165.493 79.9C165.493 80.98 164.653 81.88 163.513 81.88H159.913V94.96H163.513C164.653 94.96 165.493 95.86 165.493 96.94C165.493 98.02 164.653 98.92 163.513 98.92H159.913V106.24C159.913 107.44 158.953 108.34 157.813 108.34ZM127.513 108.22C117.013 108.22 108.193 100.18 108.193 88.6C108.193 77.02 117.013 68.98 127.513 68.98C138.013 68.98 146.833 77.02 146.833 88.6C146.833 100.18 138.013 108.22 127.513 108.22ZM127.513 104.26C135.973 104.26 142.633 97.72 142.633 88.6C142.633 79.48 135.973 72.94 127.513 72.94C119.053 72.94 112.393 79.48 112.393 88.6C112.393 97.72 119.053 104.26 127.513 104.26Z" fill="white"/>
</svg>
