<svg width="541" height="181" viewBox="0 0 541 181" fill="none" xmlns="http://www.w3.org/2000/svg">
<rect x="0.5" y="30.5" width="90" height="120" fill="#90C85F"/>
<rect x="0.5" y="30.5" width="90" height="120" stroke="black"/>
<path d="M57.0734 89.26C55.9334 89.26 55.0334 88.36 55.0334 87.22C55.0334 86.08 55.9334 85.18 57.0734 85.18H59.8934V71.8C59.8934 70.66 60.8534 69.7 61.9934 69.7C63.1334 69.7 64.0334 70.66 64.0334 71.8V104.98C64.0334 106.18 63.1334 107.08 61.9934 107.08C60.8534 107.08 59.8934 106.18 59.8934 104.98V89.26H57.0734ZM69.9734 108.34C68.8334 108.34 67.8734 107.44 67.8734 106.24V70.96C67.8734 69.82 68.8334 68.86 69.9734 68.86C71.1134 68.86 72.0734 69.82 72.0734 70.96V106.24C72.0734 107.44 71.1134 108.34 69.9734 108.34ZM18.4334 106.18C17.2934 106.78 16.2134 106.24 15.7334 105.4C15.3134 104.56 15.4334 103.36 16.6334 102.64C25.9334 97.3 33.7934 86.74 33.7934 74.56V74.5H19.0934C17.9534 74.5 17.1134 73.6 17.1134 72.52C17.1134 71.44 17.9534 70.54 19.0934 70.54H52.6934C53.8334 70.54 54.6734 71.44 54.6734 72.52C54.6734 73.6 53.8334 74.5 52.6934 74.5H37.9934V74.56C37.9934 86.86 45.8534 97.18 55.0934 102.7C56.2934 103.42 56.4134 104.62 55.8734 105.46C55.3934 106.3 54.3134 106.78 53.0534 106.06C46.1534 101.98 38.9534 94.36 35.8934 85.18C32.8934 94 25.8734 102.16 18.4334 106.18Z" fill="white"/>
<rect x="180.5" y="30.5" width="90" height="120" fill="#90C85F"/>
<rect x="180.5" y="30.5" width="90" height="120" stroke="black"/>
<path d="M200.533 107.32C199.393 107.32 198.553 106.48 198.553 105.34C198.553 104.2 199.393 103.36 200.533 103.36H223.393V100.12C223.393 98.92 224.353 98.02 225.493 98.02C226.633 98.02 227.593 98.92 227.593 100.12V103.36H250.453C251.593 103.36 252.433 104.2 252.433 105.34C252.433 106.48 251.593 107.32 250.453 107.32H200.533ZM209.053 95.32C203.413 95.32 200.893 93.94 200.893 88.78V87.16C200.893 82.24 203.533 80.74 208.693 80.74H242.293C244.813 80.74 245.893 80.2 245.893 77.92V77.38C245.893 75.1 244.813 74.44 242.293 74.44H202.933C200.173 74.44 200.293 70.54 202.933 70.54H242.113C247.513 70.54 250.093 72.04 250.093 76.96V78.28C250.093 83.32 247.513 84.64 242.113 84.64H208.693C206.233 84.64 205.093 84.88 205.093 87.34V88.72C205.093 91.18 206.233 91.42 208.693 91.42H249.133C251.893 91.42 251.773 95.32 249.133 95.32H209.053Z" fill="white"/>
<rect x="90.5" y="0.5" width="90" height="120" fill="#90C85F"/>
<rect x="90.5" y="0.5" width="90" height="120" stroke="black"/>
<path d="M159.973 78.34C158.833 78.34 157.873 77.44 157.873 76.24V60.34H153.133V74.98C153.133 76.18 152.233 77.08 151.093 77.08C149.953 77.08 148.993 76.18 148.993 74.98V41.8C148.993 40.66 149.953 39.7 151.093 39.7C152.233 39.7 153.133 40.66 153.133 41.8V56.32H157.873V40.96C157.873 39.82 158.833 38.86 159.973 38.86C161.113 38.86 162.073 39.82 162.073 40.96V76.24C162.073 77.44 161.113 78.34 159.973 78.34ZM117.133 76.3C111.553 76.3 109.093 74.74 109.093 69.22V46.72C109.093 41.74 110.773 40.54 116.473 40.54H137.233C138.313 40.54 139.213 41.44 139.213 42.52C139.213 43.6 138.313 44.5 137.233 44.5H116.773C113.773 44.5 113.293 44.86 113.293 47.14V68.08C113.293 72.04 113.713 72.34 117.613 72.34C127.753 72.34 136.153 71.26 142.453 69.64C145.273 68.92 146.173 72.82 143.473 73.48C136.993 75.1 127.993 76.3 117.133 76.3Z" fill="white"/>
<rect x="270.5" y="0.5" width="90" height="120" fill="#90C85F"/>
<rect x="270.5" y="0.5" width="90" height="120" stroke="black"/>
<path d="M289.813 77.2C287.113 77.2 287.113 73.18 289.813 73.18H295.693C299.353 73.18 302.653 73.12 305.713 73.06V69.76C305.713 68.56 306.673 67.66 307.813 67.66C308.953 67.66 309.913 68.56 309.913 69.76V73C320.533 72.64 327.253 71.98 331.033 71.32C333.673 70.84 334.393 74.8 331.753 75.28C326.173 76.24 314.893 77.2 295.693 77.2H289.813ZM338.413 78.34C337.273 78.34 336.313 77.44 336.313 76.24V40.96C336.313 39.82 337.273 38.86 338.413 38.86C339.553 38.86 340.513 39.82 340.513 40.96V76.24C340.513 77.44 339.553 78.34 338.413 78.34ZM297.493 65.5C292.213 65.5 290.653 64.42 290.653 59.8V41.86C290.653 40.72 291.613 39.76 292.753 39.76C293.893 39.76 294.853 40.72 294.853 41.86V48.64H320.833V41.86C320.833 40.72 321.793 39.76 322.933 39.76C324.073 39.76 325.033 40.72 325.033 41.86V59.8C325.033 64.42 323.473 65.5 318.193 65.5H297.493ZM294.853 59.26C294.853 61.24 295.273 61.54 298.093 61.54H317.593C320.413 61.54 320.833 61.24 320.833 59.26V52.54H294.853V59.26Z" fill="white"/>
<rect x="360.5" y="30.5" width="90" height="120" fill="#90C85F"/>
<rect x="360.5" y="30.5" width="90" height="120" stroke="black"/>
<path d="M388.453 107.74C383.653 107.74 381.613 106.48 381.613 102.76V99.16C381.613 97.72 382.693 97 383.773 97C384.853 97 385.933 97.72 385.933 99.16V101.8C385.933 103.54 386.353 103.78 389.533 103.78H429.493C430.573 103.78 431.473 104.62 431.473 105.76C431.473 106.9 430.573 107.74 429.493 107.74H388.453ZM389.713 83.86C383.893 83.98 381.313 82.48 381.313 77.8V71.38C381.313 69.94 382.393 69.22 383.473 69.22C384.553 69.22 385.633 69.94 385.633 71.38V76.36C385.633 79.54 386.053 79.72 389.953 79.78H428.833C429.913 79.78 430.873 80.68 430.873 81.82C430.873 82.96 429.913 83.86 428.833 83.86H389.713ZM380.293 93.52C379.153 93.52 378.253 92.62 378.253 91.48C378.253 90.34 379.153 89.44 380.293 89.44H430.693C431.833 89.44 432.733 90.34 432.733 91.48C432.733 92.62 431.833 93.52 430.693 93.52H380.293Z" fill="white"/>
<rect x="450.5" y="60.5" width="90" height="120" fill="#90C85F"/>
<rect x="450.5" y="60.5" width="90" height="120" stroke="black"/>
<path d="M518.413 138.34C517.273 138.34 516.313 137.44 516.313 136.24V128.98H512.053C510.913 128.98 510.013 128.08 510.013 126.94C510.013 125.8 510.913 124.9 512.053 124.9H516.313V111.94H512.053C510.913 111.94 510.013 111.04 510.013 109.9C510.013 108.76 510.913 107.86 512.053 107.86H516.313V100.96C516.313 99.82 517.273 98.86 518.413 98.86C519.553 98.86 520.513 99.82 520.513 100.96V136.24C520.513 137.44 519.553 138.34 518.413 138.34ZM471.613 136.78C470.293 137.02 469.453 136.24 469.213 135.28C468.973 134.32 469.513 133.12 470.893 132.88C484.153 130.3 497.473 120.82 500.293 107.02C500.713 104.86 500.533 104.5 498.853 104.5H472.453C471.373 104.5 470.473 103.6 470.473 102.52C470.473 101.44 471.373 100.54 472.453 100.54H499.693C504.253 100.54 505.453 102.94 504.253 108.1C500.653 124.06 485.953 134.14 471.613 136.78Z" fill="white"/>
</svg>
