<svg width="181" height="121" viewBox="0 0 181 121" fill="none" xmlns="http://www.w3.org/2000/svg">
<rect x="90.5" y="0.5" width="90" height="120" fill="#90C85F"/>
<rect x="90.5" y="0.5" width="90" height="120" stroke="black"/>
<path d="M158.929 78.882C157.732 78.882 156.724 77.937 156.724 76.677V39.633C156.724 38.436 157.732 37.428 158.929 37.428C160.126 37.428 161.134 38.436 161.134 39.633V54.879H164.851C166.048 54.879 166.993 55.824 166.993 57.021C166.993 58.218 166.048 59.163 164.851 59.163H161.134V76.677C161.134 77.937 160.126 78.882 158.929 78.882ZM127.807 77.244C127.24 77.244 126.547 77.055 126.106 76.425C121.948 71.007 118.861 64.392 117.097 57.273C115.333 64.329 112.372 70.881 108.214 76.362C106.513 78.63 103.111 76.173 104.938 73.842C111.049 65.841 114.829 55.005 115.018 43.35H107.458C106.261 43.35 105.379 42.405 105.379 41.271C105.379 40.137 106.261 39.192 107.458 39.192H124.153C125.35 39.192 126.232 40.137 126.232 41.271C126.232 42.405 125.35 43.35 124.153 43.35H119.176C119.302 54.186 122.452 64.266 127.807 71.889C133.099 64.266 136.249 54.186 136.375 43.35H131.398C130.201 43.35 129.319 42.405 129.319 41.271C129.319 40.137 130.201 39.192 131.398 39.192H148.156C149.353 39.192 150.235 40.137 150.235 41.271C150.235 42.405 149.353 43.35 148.156 43.35H140.533C140.722 55.005 144.502 65.841 150.676 73.842C152.44 76.173 149.038 78.63 147.337 76.362C143.179 70.881 140.218 64.329 138.454 57.273C136.69 64.392 133.603 71.007 129.508 76.425C129.004 77.055 128.374 77.244 127.807 77.244Z" fill="white"/>
<rect x="0.5" y="0.5" width="90" height="120" fill="#90C85F"/>
<rect x="0.5" y="0.5" width="90" height="120" stroke="black"/>
<path d="M69.4961 67.479C68.2991 67.479 67.2911 66.534 67.2911 65.274V39.633C67.2911 38.436 68.2991 37.428 69.4961 37.428C70.6931 37.428 71.7011 38.436 71.7011 39.633V65.274C71.7011 66.534 70.6931 67.479 69.4961 67.479ZM28.1681 78.252C22.5611 78.252 20.2931 76.803 20.2931 72.708V67.353C20.2931 65.841 21.4271 65.085 22.5611 65.085C23.6951 65.085 24.8291 65.841 24.8291 67.353V71.574C24.8291 73.653 25.3961 73.968 28.9871 73.968H70.8191C71.9531 73.968 72.9611 74.913 72.9611 76.11C72.9611 77.307 71.9531 78.252 70.8191 78.252H28.1681ZM18.0881 61.368C16.7021 61.683 15.7571 60.801 15.5681 59.73C15.3791 58.722 15.8831 57.525 17.3321 57.273C26.4041 55.509 35.9801 49.146 36.2951 42.846H19.4741C18.0251 42.846 17.3321 41.775 17.3321 40.767C17.3321 39.696 18.0251 38.688 19.4741 38.688H57.4001C58.8491 38.688 59.5421 39.696 59.5421 40.767C59.5421 41.775 58.8491 42.846 57.4001 42.846H40.5791C40.8941 49.146 50.5331 55.509 59.5421 57.273C60.9911 57.525 61.4951 58.722 61.3061 59.73C61.1171 60.801 60.1721 61.683 58.7231 61.368C51.4151 59.856 42.4691 55.446 38.4371 48.957C34.4051 55.446 25.4591 59.856 18.0881 61.368Z" fill="white"/>
</svg>
