<svg width="361" height="181" viewBox="0 0 361 181" fill="none" xmlns="http://www.w3.org/2000/svg">
<rect x="270.5" y="60.5" width="90" height="120" fill="#90C85F"/>
<rect x="270.5" y="60.5" width="90" height="120" stroke="black"/>
<path d="M298.453 137.74C293.653 137.74 291.613 136.48 291.613 132.76V129.16C291.613 127.72 292.693 127 293.773 127C294.853 127 295.933 127.72 295.933 129.16V131.8C295.933 133.54 296.353 133.78 299.533 133.78H339.493C340.573 133.78 341.473 134.62 341.473 135.76C341.473 136.9 340.573 137.74 339.493 137.74H298.453ZM299.713 113.86C293.893 113.98 291.313 112.48 291.313 107.8V101.38C291.313 99.94 292.393 99.22 293.473 99.22C294.553 99.22 295.633 99.94 295.633 101.38V106.36C295.633 109.54 296.053 109.72 299.953 109.78H338.833C339.913 109.78 340.873 110.68 340.873 111.82C340.873 112.96 339.913 113.86 338.833 113.86H299.713ZM290.293 123.52C289.153 123.52 288.253 122.62 288.253 121.48C288.253 120.34 289.153 119.44 290.293 119.44H340.693C341.833 119.44 342.733 120.34 342.733 121.48C342.733 122.62 341.833 123.52 340.693 123.52H290.293Z" fill="white"/>
<rect x="180.5" y="29.5" width="90" height="120" fill="#90C85F"/>
<rect x="180.5" y="29.5" width="90" height="120" stroke="black"/>
<path d="M248.413 107.34C247.273 107.34 246.313 106.44 246.313 105.24V88.56H242.053C240.913 88.56 240.013 87.66 240.013 86.52C240.013 85.38 240.913 84.48 242.053 84.48H246.313V69.96C246.313 68.82 247.273 67.86 248.413 67.86C249.553 67.86 250.513 68.82 250.513 69.96V105.24C250.513 106.44 249.553 107.34 248.413 107.34ZM201.613 105.78C200.293 106.02 199.453 105.24 199.213 104.28C198.973 103.32 199.513 102.12 200.893 101.88C214.153 99.3 227.473 89.82 230.293 76.02C230.713 73.86 230.533 73.5 228.853 73.5H202.453C201.373 73.5 200.473 72.6 200.473 71.52C200.473 70.44 201.373 69.54 202.453 69.54H229.693C234.253 69.54 235.453 71.94 234.253 77.1C230.653 93.06 215.953 103.14 201.613 105.78Z" fill="white"/>
<rect x="90.5" y="29.5" width="90" height="120" fill="#90C85F"/>
<rect x="90.5" y="29.5" width="90" height="120" stroke="black"/>
<path d="M117.853 107.252C112.498 107.252 110.293 105.929 110.293 101.897V97.298C110.293 95.786 111.427 95.03 112.561 95.03C113.695 95.03 114.829 95.786 114.829 97.298V100.826C114.829 102.779 115.27 103.031 118.798 103.031H160.882C162.016 103.031 162.961 103.913 162.961 105.11C162.961 106.307 162.016 107.252 160.882 107.252H117.853ZM159.496 96.983C158.299 96.983 157.291 96.038 157.291 94.778V82.745H153.7C152.566 82.745 151.621 81.8 151.621 80.666C151.621 79.532 152.566 78.587 153.7 78.587H157.291V68.633C157.291 67.436 158.299 66.428 159.496 66.428C160.693 66.428 161.701 67.436 161.701 68.633V94.778C161.701 96.038 160.693 96.983 159.496 96.983ZM127.114 92.384C115.018 92.384 106.765 89.99 106.765 84.32C106.765 78.587 115.018 76.13 127.114 76.13C139.21 76.13 147.463 78.587 147.463 84.32C147.463 89.99 139.21 92.384 127.114 92.384ZM127.114 88.415C137.194 88.415 143.179 86.588 143.179 84.32C143.179 82.052 137.194 80.099 127.114 80.099C116.971 80.099 111.049 82.052 111.049 84.32C111.049 86.588 116.971 88.415 127.114 88.415ZM109.033 73.358C106.45 73.421 106.45 69.326 109.033 69.326H124.846V67.877C124.846 66.68 125.917 65.798 127.051 65.798C128.248 65.798 129.256 66.68 129.256 67.877V69.326H145.195C147.778 69.326 147.778 73.421 145.195 73.358C132.028 73.106 122.2 73.106 109.033 73.358Z" fill="white"/>
<rect x="0.5" y="0.5" width="90" height="120" fill="#90C85F"/>
<rect x="0.5" y="0.5" width="90" height="120" stroke="black"/>
<path d="M18.9071 59.982C17.7731 59.982 16.8911 59.1 16.8911 57.966C16.8911 56.832 17.7731 55.95 18.9071 55.95H72.0791C73.2131 55.95 74.0951 56.832 74.0951 57.966C74.0951 59.1 73.2131 59.982 72.0791 59.982H47.6981V62.943C62.5661 63.132 72.2681 65.337 72.2681 71.259C72.2681 77.496 61.6841 79.638 45.6821 79.638C29.7431 79.638 18.7181 77.496 18.7181 71.259C18.7181 65.4 28.6721 63.195 43.2881 62.943V59.982H18.9071ZM45.6821 75.669C58.9751 75.669 67.7951 73.905 67.7951 71.259C67.7951 68.676 58.9751 66.912 45.6821 66.912C32.4521 66.912 23.1911 68.676 23.1911 71.259C23.1911 73.905 32.4521 75.669 45.6821 75.669ZM19.5371 53.115C16.7651 53.178 16.7021 49.083 19.4111 49.083C29.9321 48.957 42.5321 46.059 43.4141 42.657H21.2381C20.1671 42.657 19.2851 41.775 19.2851 40.641C19.2851 39.57 20.1671 38.688 21.2381 38.688H69.7481C70.8191 38.688 71.7011 39.57 71.7011 40.641C71.7011 41.775 70.8191 42.657 69.7481 42.657H47.5721C48.4541 46.059 61.0541 48.957 71.5751 49.083C74.2841 49.083 74.2211 53.178 71.4491 53.115C62.1881 52.863 50.4071 51.099 45.4931 46.626C40.5791 51.099 28.7981 52.863 19.5371 53.115Z" fill="white"/>
</svg>
