<svg width="181" height="152" viewBox="0 0 181 152" fill="none" xmlns="http://www.w3.org/2000/svg">
<rect x="0.5" y="31.5" width="90" height="120" fill="#90C85F"/>
<rect x="0.5" y="31.5" width="90" height="120" stroke="black"/>
<path d="M28.6934 108.74C23.6534 108.74 21.6134 107.42 21.6134 103.64V99.56C21.6134 98.12 22.6934 97.4 23.7734 97.4C24.8534 97.4 25.9334 98.12 25.9334 99.56V102.62C25.9334 104.48 26.4134 104.72 29.6534 104.72H69.4934C70.5734 104.72 71.4734 105.62 71.4734 106.76C71.4734 107.9 70.5734 108.74 69.4934 108.74H28.6934ZM20.2334 93.26C19.0934 93.26 18.2534 92.42 18.2534 91.28C18.2534 90.2 19.0934 89.36 20.2334 89.36H70.8134C71.8934 89.36 72.7334 90.2 72.7334 91.28C72.7334 92.42 71.8934 93.26 70.8134 93.26H48.1934V99.74C48.1934 100.94 47.2334 101.84 46.0934 101.84C44.9534 101.84 43.9934 100.94 43.9934 99.74V93.26H20.2334ZM29.7134 84.86C23.8934 84.98 21.3134 83.48 21.3134 78.8V72.38C21.3134 70.94 22.3934 70.22 23.4734 70.22C24.5534 70.22 25.6334 70.94 25.6334 72.38V77.36C25.6334 80.54 26.0534 80.72 29.9534 80.78H68.8334C69.9134 80.78 70.8734 81.68 70.8734 82.82C70.8734 83.96 69.9134 84.86 68.8334 84.86H29.7134Z" fill="white"/>
<rect x="90.5" y="0.5" width="90" height="120" fill="#90C85F"/>
<rect x="90.5" y="0.5" width="90" height="120" stroke="black"/>
<path d="M159.973 78.34C158.833 78.34 157.873 77.44 157.873 76.24V40.96C157.873 39.82 158.833 38.86 159.973 38.86C161.113 38.86 162.073 39.82 162.073 40.96V76.24C162.073 77.44 161.113 78.34 159.973 78.34ZM151.993 77.08C150.853 77.08 149.893 76.18 149.893 74.98V60.46H148.273C147.133 60.46 146.233 59.56 146.233 58.42C146.233 57.28 147.133 56.38 148.273 56.38H149.893V41.8C149.893 40.66 150.853 39.7 151.993 39.7C153.133 39.7 154.033 40.66 154.033 41.8V74.98C154.033 76.18 153.133 77.08 151.993 77.08ZM125.173 78.22C114.853 78.22 106.633 70.24 106.633 58.6C106.633 46.96 114.853 38.98 125.173 38.98C135.493 38.98 143.713 46.96 143.713 58.6C143.713 70.24 135.493 78.22 125.173 78.22ZM125.173 74.14C133.453 74.14 139.513 67.78 139.513 58.6C139.513 49.42 133.453 43.06 125.173 43.06C116.893 43.06 110.833 49.42 110.833 58.6C110.833 67.78 116.893 74.14 125.173 74.14Z" fill="white"/>
</svg>
