<svg width="631" height="182" viewBox="0 0 631 182" fill="none" xmlns="http://www.w3.org/2000/svg">
<rect x="0.5" y="30.5" width="90" height="120" fill="#90C85F"/>
<rect x="0.5" y="30.5" width="90" height="120" stroke="black"/>
<path d="M67.8134 87.58C66.6734 87.58 65.7134 86.68 65.7134 85.48V70.96C65.7134 69.82 66.6734 68.86 67.8134 68.86C68.9534 68.86 69.9134 69.82 69.9134 70.96V76.24H73.4534C74.5934 76.24 75.4934 77.14 75.4934 78.28C75.4934 79.42 74.5934 80.32 73.4534 80.32H69.9134V85.48C69.9134 86.68 68.9534 87.58 67.8134 87.58ZM25.9334 108.34C22.2134 108.34 20.1734 106.12 20.1734 102.76C20.1734 99.4 22.2134 97.24 25.9334 97.24H65.1134C66.3134 97.24 66.7934 96.52 66.7934 95.56C66.7934 94.6 66.3134 93.94 65.1134 93.94H22.0334C19.2734 93.94 19.2734 90.1 22.0334 90.1H65.2334C68.9534 90.1 70.9934 92.32 70.9934 95.62C70.9934 98.92 68.9534 101.02 65.2334 101.02H26.0534C24.8534 101.02 24.3734 101.68 24.3734 102.7C24.3734 103.72 24.8534 104.44 26.0534 104.44H70.0334C72.8534 104.44 72.7934 108.34 70.0334 108.34H25.9334ZM19.1534 86.32C17.8934 86.44 17.1134 85.54 16.9934 84.52C16.9334 83.56 17.5334 82.54 18.9734 82.42C24.0734 82.06 36.4334 78.7 36.4334 74.08V73.96H20.6534C19.3334 73.96 18.6134 73 18.6134 71.98C18.6134 71.02 19.3334 70.06 20.6534 70.06H56.2934C57.6734 70.06 58.3334 71.02 58.3334 71.98C58.3334 73 57.6734 73.96 56.2934 73.96H40.5134V74.08C40.5134 78.82 53.5334 82.18 57.9734 82.42C59.4134 82.48 60.0134 83.56 59.9534 84.52C59.8334 85.54 59.0534 86.44 57.6734 86.32C51.9734 85.72 42.6134 83.32 38.4734 78.64C34.3334 83.26 25.0934 85.78 19.1534 86.32Z" fill="white"/>
<rect x="90.5" y="30.5" width="90" height="120" fill="#90C85F"/>
<rect x="90.5" y="30.5" width="90" height="120" stroke="black"/>
<path d="M157.813 97.48C156.673 97.48 155.713 96.58 155.713 95.38V70.96C155.713 69.82 156.673 68.86 157.813 68.86C158.953 68.86 159.913 69.82 159.913 70.96V80.92H163.453C164.593 80.92 165.493 81.82 165.493 82.96C165.493 84.1 164.593 85 163.453 85H159.913V95.38C159.913 96.58 158.953 97.48 157.813 97.48ZM119.053 107.74C113.653 107.74 111.553 106.24 111.553 102.34V97.36C111.553 95.92 112.633 95.2 113.713 95.2C114.793 95.2 115.873 95.92 115.873 97.36V101.32C115.873 103.3 116.473 103.66 119.773 103.66H159.073C160.153 103.66 161.113 104.56 161.113 105.7C161.113 106.84 160.153 107.74 159.073 107.74H119.053ZM127.153 92.68C117.013 92.68 108.073 88.24 108.073 80.74C108.073 73.3 117.013 68.86 127.153 68.86C137.353 68.86 146.233 73.3 146.233 80.74C146.233 88.24 137.353 92.68 127.153 92.68ZM127.153 88.72C136.213 88.72 142.033 85.24 142.033 80.74C142.033 76.3 136.213 72.82 127.153 72.82C118.093 72.82 112.273 76.3 112.273 80.74C112.273 85.24 118.093 88.72 127.153 88.72Z" fill="white"/>
<rect x="180.5" y="0.5" width="90" height="120" fill="#90C85F"/>
<rect x="180.5" y="0.5" width="90" height="120" stroke="black"/>
<path d="M199.813 77.2C197.113 77.2 197.113 73.18 199.813 73.18H205.693C209.353 73.18 212.653 73.12 215.713 73.06V69.76C215.713 68.56 216.673 67.66 217.813 67.66C218.953 67.66 219.913 68.56 219.913 69.76V73C230.533 72.64 237.253 71.98 241.033 71.32C243.673 70.84 244.393 74.8 241.753 75.28C236.173 76.24 224.893 77.2 205.693 77.2H199.813ZM248.413 78.34C247.273 78.34 246.313 77.44 246.313 76.24V40.96C246.313 39.82 247.273 38.86 248.413 38.86C249.553 38.86 250.513 39.82 250.513 40.96V76.24C250.513 77.44 249.553 78.34 248.413 78.34ZM207.493 65.5C202.213 65.5 200.653 64.42 200.653 59.8V41.86C200.653 40.72 201.613 39.76 202.753 39.76C203.893 39.76 204.853 40.72 204.853 41.86V48.64H230.833V41.86C230.833 40.72 231.793 39.76 232.933 39.76C234.073 39.76 235.033 40.72 235.033 41.86V59.8C235.033 64.42 233.473 65.5 228.193 65.5H207.493ZM204.853 59.26C204.853 61.24 205.273 61.54 208.093 61.54H227.593C230.413 61.54 230.833 61.24 230.833 59.26V52.54H204.853V59.26Z" fill="white"/>
<rect x="270.5" y="30.5" width="90" height="120" fill="#90C85F"/>
<rect x="270.5" y="30.5" width="90" height="120" stroke="black"/>
<path d="M297.601 108.252C292.561 108.252 290.419 106.929 290.419 103.023V99.243C290.419 97.731 291.553 96.975 292.687 96.975C293.821 96.975 294.955 97.731 294.955 99.243V102.015C294.955 103.842 295.396 104.094 298.735 104.094H340.693C341.827 104.094 342.772 104.976 342.772 106.173C342.772 107.37 341.827 108.252 340.693 108.252H297.601ZM298.924 83.178C292.813 83.304 290.104 81.729 290.104 76.815V70.074C290.104 68.562 291.238 67.806 292.372 67.806C293.506 67.806 294.64 68.562 294.64 70.074V75.303C294.64 78.642 295.081 78.831 299.176 78.894H340C341.134 78.894 342.142 79.839 342.142 81.036C342.142 82.233 341.134 83.178 340 83.178H298.924ZM289.033 93.321C287.836 93.321 286.891 92.376 286.891 91.179C286.891 89.982 287.836 89.037 289.033 89.037H341.953C343.15 89.037 344.095 89.982 344.095 91.179C344.095 92.376 343.15 93.321 341.953 93.321H289.033Z" fill="white"/>
<rect x="360.5" y="30.5" width="90" height="120" fill="#90C85F"/>
<rect x="360.5" y="30.5" width="90" height="120" stroke="black"/>
<path d="M429.496 88.722C428.299 88.722 427.291 87.777 427.291 86.517V80.217H423.448C422.251 80.217 421.306 79.272 421.306 78.075C421.306 76.878 422.251 75.933 423.448 75.933H427.291V69.633C427.291 68.436 428.299 67.428 429.496 67.428C430.693 67.428 431.701 68.436 431.701 69.633V86.517C431.701 87.777 430.693 88.722 429.496 88.722ZM387.223 108.693C381.616 108.693 379.978 107.622 379.978 103.023V93.384C379.978 92.187 380.986 91.179 382.183 91.179C383.38 91.179 384.325 92.187 384.325 93.384V95.841H427.354V93.384C427.354 92.187 428.299 91.179 429.496 91.179C430.693 91.179 431.701 92.187 431.701 93.384V103.023C431.701 107.622 430.063 108.693 424.456 108.693H387.223ZM385.837 87.21C380.356 87.21 378.718 86.076 378.718 81.225V70.83C378.718 69.633 379.726 68.625 380.923 68.625C382.12 68.625 383.128 69.633 383.128 70.83V73.791H410.533V70.83C410.533 69.633 411.541 68.625 412.738 68.625C413.935 68.625 414.943 69.633 414.943 70.83V81.225C414.943 86.076 413.305 87.21 407.824 87.21H385.837ZM383.128 80.721C383.128 82.8 383.569 83.115 386.467 83.115H407.194C410.092 83.115 410.533 82.8 410.533 80.721V77.823H383.128V80.721ZM384.325 102.204C384.325 104.283 384.703 104.598 387.349 104.598H424.33C426.976 104.598 427.354 104.283 427.354 102.204V99.873H384.325V102.204Z" fill="white"/>
<rect x="450.5" y="30.5" width="90" height="120" fill="#90C85F"/>
<rect x="450.5" y="30.5" width="90" height="120" stroke="black"/>
<path d="M519.559 108.882C518.362 108.882 517.354 107.937 517.354 106.677V69.633C517.354 68.436 518.362 67.428 519.559 67.428C520.756 67.428 521.764 68.436 521.764 69.633V106.677C521.764 107.937 520.756 108.882 519.559 108.882ZM487.492 108.756C476.341 108.756 466.828 100.251 466.828 88.155C466.828 76.059 476.341 67.554 487.492 67.554C498.643 67.554 508.156 76.059 508.156 88.155C508.156 100.251 498.643 108.756 487.492 108.756ZM487.492 104.598C496.438 104.598 503.746 97.731 503.746 88.155C503.746 78.579 496.438 71.712 487.492 71.712C478.546 71.712 471.238 78.579 471.238 88.155C471.238 97.731 478.546 104.598 487.492 104.598Z" fill="white"/>
<rect x="540.5" y="61.5" width="90" height="120" fill="#90C85F"/>
<rect x="540.5" y="61.5" width="90" height="120" stroke="black"/>
<path d="M609.559 139.882C608.362 139.882 607.354 138.937 607.354 137.677V130.873H602.881C601.684 130.873 600.739 129.928 600.739 128.731C600.739 127.534 601.684 126.589 602.881 126.589H607.354V111.343H602.881C601.684 111.343 600.739 110.398 600.739 109.201C600.739 108.004 601.684 107.059 602.881 107.059H607.354V100.633C607.354 99.436 608.362 98.428 609.559 98.428C610.756 98.428 611.764 99.436 611.764 100.633V137.677C611.764 138.937 610.756 139.882 609.559 139.882ZM577.114 139.756C566.089 139.756 556.828 131.314 556.828 119.155C556.828 106.996 566.089 98.554 577.114 98.554C588.139 98.554 597.4 106.996 597.4 119.155C597.4 131.314 588.139 139.756 577.114 139.756ZM577.114 135.598C585.997 135.598 592.99 128.731 592.99 119.155C592.99 109.579 585.997 102.712 577.114 102.712C568.231 102.712 561.238 109.579 561.238 119.155C561.238 128.731 568.231 135.598 577.114 135.598Z" fill="white"/>
</svg>
