<svg width="181" height="151" viewBox="0 0 181 151" fill="none" xmlns="http://www.w3.org/2000/svg">
<rect x="0.5" y="30.5" width="90" height="120" fill="#90C85F"/>
<rect x="0.5" y="30.5" width="90" height="120" stroke="black"/>
<path d="M67.8134 108.34C66.6734 108.34 65.7134 107.44 65.7134 106.24V70.96C65.7134 69.82 66.6734 68.86 67.8134 68.86C68.9534 68.86 69.9134 69.82 69.9134 70.96V77.92H73.5134C74.6534 77.92 75.4934 78.82 75.4934 79.9C75.4934 80.98 74.6534 81.88 73.5134 81.88H69.9134V94.96H73.5134C74.6534 94.96 75.4934 95.86 75.4934 96.94C75.4934 98.02 74.6534 98.92 73.5134 98.92H69.9134V106.24C69.9134 107.44 68.9534 108.34 67.8134 108.34ZM21.6134 106.78C20.2934 107.02 19.4534 106.24 19.2134 105.28C18.9734 104.32 19.5134 103.12 20.8934 102.88C34.1534 100.3 47.4734 90.82 50.2934 77.02C50.7134 74.86 50.5334 74.5 48.8534 74.5H22.4534C21.3734 74.5 20.4734 73.6 20.4734 72.52C20.4734 71.44 21.3734 70.54 22.4534 70.54H49.6934C54.2534 70.54 55.4534 72.94 54.2534 78.1C50.6534 94.06 35.9534 104.14 21.6134 106.78Z" fill="white"/>
<rect x="90.5" y="0.5" width="90" height="120" fill="#90C85F"/>
<rect x="90.5" y="0.5" width="90" height="120" stroke="black"/>
<path d="M157.813 78.34C156.673 78.34 155.713 77.44 155.713 76.24V40.96C155.713 39.82 156.673 38.86 157.813 38.86C158.953 38.86 159.913 39.82 159.913 40.96V55.48H163.453C164.593 55.48 165.493 56.38 165.493 57.52C165.493 58.66 164.593 59.56 163.453 59.56H159.913V76.24C159.913 77.44 158.953 78.34 157.813 78.34ZM111.613 76.78C110.293 77.02 109.453 76.24 109.213 75.28C108.973 74.32 109.513 73.12 110.893 72.88C124.153 70.3 137.473 60.82 140.293 47.02C140.713 44.86 140.533 44.5 138.853 44.5H112.453C111.373 44.5 110.473 43.6 110.473 42.52C110.473 41.44 111.373 40.54 112.453 40.54H139.693C144.253 40.54 145.453 42.94 144.253 48.1C140.653 64.06 125.953 74.14 111.613 76.78Z" fill="white"/>
</svg>
