<svg width="271" height="151" viewBox="0 0 271 151" fill="none" xmlns="http://www.w3.org/2000/svg">
<rect x="0.5" y="30.5" width="90" height="120" fill="#90C85F"/>
<rect x="0.5" y="30.5" width="90" height="120" stroke="black"/>
<path d="M67.2911 94.77C66.8501 96.156 65.5901 96.66 64.5821 96.345C63.5111 96.03 62.6921 95.022 63.1331 93.447C64.8341 87.651 65.9051 82.359 66.2831 76.311C66.3461 75.114 66.2831 74.421 65.8421 74.043C65.3381 73.539 64.4561 73.413 62.6921 73.413H21.4901C20.3561 73.413 19.4741 72.468 19.4741 71.334C19.4741 70.2 20.3561 69.192 21.4901 69.192H62.9441C66.2201 69.192 68.2991 69.57 69.4331 70.767C70.5041 71.775 70.8191 73.413 70.7561 75.996C70.3151 83.997 68.8661 89.73 67.2911 94.77ZM19.3481 107.748C18.1511 107.748 17.2061 106.803 17.2061 105.606C17.2061 104.409 18.1511 103.464 19.3481 103.464H71.6381C72.8351 103.464 73.7801 104.409 73.7801 105.606C73.7801 106.803 72.8351 107.748 71.6381 107.748H19.3481Z" fill="white"/>
<rect x="90.5" y="0.5" width="90" height="120" fill="#90C85F"/>
<rect x="90.5" y="0.5" width="90" height="120" stroke="black"/>
<path d="M160.63 60.297C159.433 60.297 158.425 59.352 158.425 58.092V50.028H153.448V55.95C153.448 57.21 152.503 58.155 151.306 58.155C150.109 58.155 149.101 57.21 149.101 55.95V40.389C149.101 39.192 150.109 38.184 151.306 38.184C152.503 38.184 153.448 39.192 153.448 40.389V45.87H158.425V39.633C158.425 38.436 159.433 37.428 160.63 37.428C161.827 37.428 162.835 38.436 162.835 39.633V58.092C162.835 59.352 161.827 60.297 160.63 60.297ZM113.191 58.47C108.844 58.47 106.891 56.958 106.891 53.367V51.729C106.891 47.949 108.907 46.311 113.443 46.311H134.485C136.438 46.311 136.942 45.996 136.942 44.61V44.421C136.942 43.098 136.438 42.72 134.485 42.72H108.907C106.198 42.72 106.198 38.688 108.907 38.688H134.611C139.147 38.688 141.352 40.326 141.352 44.169V44.799C141.352 48.642 139.336 50.343 134.737 50.343H113.758C111.805 50.343 111.301 50.658 111.301 52.107V52.737C111.301 54.123 111.742 54.438 113.758 54.438C127.492 54.438 136.249 54.123 144.943 52.611C147.967 52.044 148.597 56.139 145.762 56.643C136.564 58.155 127.87 58.47 113.191 58.47ZM108.97 74.85C114.01 72.015 118.231 68.235 121.129 63.573C121.696 62.691 122.578 62.124 123.523 62.124C124.468 62.124 125.35 62.691 125.917 63.573C128.689 68.109 132.406 71.637 137.068 74.472C141.73 71.637 145.447 68.109 148.219 63.573C148.786 62.691 149.668 62.124 150.613 62.124C151.558 62.124 152.44 62.691 153.007 63.573C155.905 68.235 160.126 72.015 165.229 74.913C167.812 76.362 165.733 80.016 163.15 78.567C158.173 75.732 153.385 71.574 150.613 67.416C147.778 71.637 143.116 75.795 138.328 78.567C137.509 79.071 136.627 79.071 135.808 78.567C131.02 75.795 126.358 71.574 123.523 67.353C120.751 71.511 115.963 75.669 110.986 78.504C108.403 80.016 106.387 76.299 108.97 74.85Z" fill="white"/>
<rect x="180.5" y="30.5" width="90" height="120" fill="#90C85F"/>
<rect x="180.5" y="30.5" width="90" height="120" stroke="black"/>
<path d="M198.97 99.432C197.773 99.432 196.891 98.55 196.891 97.353C196.891 96.156 197.773 95.274 198.97 95.274H252.016C253.213 95.274 254.095 96.156 254.095 97.353C254.095 98.55 253.213 99.432 252.016 99.432H242.818V108C242.818 109.26 241.81 110.205 240.613 110.205C239.416 110.205 238.408 109.26 238.408 108V99.432H212.578V108C212.578 109.26 211.57 110.205 210.373 110.205C209.176 110.205 208.168 109.26 208.168 108V99.432H198.97ZM199.033 84.501C207.853 82.044 217.429 76.437 223.162 68.814C223.792 67.995 224.422 67.428 225.493 67.428C226.564 67.428 227.194 67.995 227.824 68.814C233.557 76.5 243.133 82.044 251.953 84.501C254.662 85.257 253.654 89.478 250.693 88.659C241.621 86.139 231.541 80.091 225.493 72.594C219.445 80.091 209.365 86.139 200.293 88.659C197.269 89.478 196.324 85.257 199.033 84.501Z" fill="white"/>
</svg>
