<svg width="181" height="151" viewBox="0 0 181 151" fill="none" xmlns="http://www.w3.org/2000/svg">
<rect x="0.5" y="0.5" width="90" height="120" fill="#90C85F"/>
<rect x="0.5" y="0.5" width="90" height="120" stroke="black"/>
<path d="M69.5591 78.882C68.3621 78.882 67.3541 77.937 67.3541 76.677V39.633C67.3541 38.436 68.3621 37.428 69.5591 37.428C70.7561 37.428 71.7641 38.436 71.7641 39.633V76.677C71.7641 77.937 70.7561 78.882 69.5591 78.882ZM20.4821 77.244C19.0331 77.496 18.1511 76.677 17.8991 75.669C17.6471 74.661 18.2141 73.401 19.6631 73.149C34.2161 70.314 48.4541 60.045 51.2891 45.996C51.7301 43.728 51.5411 43.35 49.7771 43.35H21.3011C20.1671 43.35 19.2221 42.405 19.2221 41.271C19.2221 40.137 20.1671 39.192 21.3011 39.192H50.6591C55.4471 39.192 56.7071 41.712 55.4471 47.13C51.7301 63.132 36.6101 74.157 20.4821 77.244Z" fill="white"/>
<rect x="90.5" y="30.5" width="90" height="120" fill="#90C85F"/>
<rect x="90.5" y="30.5" width="90" height="120" stroke="black"/>
<path d="M159.559 108.882C158.362 108.882 157.354 107.937 157.354 106.677V99.873H152.881C151.684 99.873 150.739 98.928 150.739 97.731C150.739 96.534 151.684 95.589 152.881 95.589H157.354V80.343H152.881C151.684 80.343 150.739 79.398 150.739 78.201C150.739 77.004 151.684 76.059 152.881 76.059H157.354V69.633C157.354 68.436 158.362 67.428 159.559 67.428C160.756 67.428 161.764 68.436 161.764 69.633V106.677C161.764 107.937 160.756 108.882 159.559 108.882ZM127.114 108.756C116.089 108.756 106.828 100.314 106.828 88.155C106.828 75.996 116.089 67.554 127.114 67.554C138.139 67.554 147.4 75.996 147.4 88.155C147.4 100.314 138.139 108.756 127.114 108.756ZM127.114 104.598C135.997 104.598 142.99 97.731 142.99 88.155C142.99 78.579 135.997 71.712 127.114 71.712C118.231 71.712 111.238 78.579 111.238 88.155C111.238 97.731 118.231 104.598 127.114 104.598Z" fill="white"/>
</svg>
