<svg width="361" height="151" viewBox="0 0 361 151" fill="none" xmlns="http://www.w3.org/2000/svg">
<rect x="180.5" y="0.5" width="90" height="120" fill="#90C85F"/>
<rect x="180.5" y="0.5" width="90" height="120" stroke="black"/>
<path d="M217.873 78.28C206.653 78.28 198.193 72.22 198.193 64.36C198.193 56.5 206.653 50.44 217.873 50.44C229.093 50.44 237.553 56.5 237.553 64.36C237.553 72.22 229.093 78.28 217.873 78.28ZM217.873 74.44C226.873 74.44 233.533 70.12 233.533 64.36C233.533 58.6 226.873 54.28 217.873 54.28C208.873 54.28 202.213 58.6 202.213 64.36C202.213 70.12 208.873 74.44 217.873 74.44ZM200.593 46.54C199.513 46.54 198.673 45.7 198.673 44.62C198.673 43.54 199.513 42.7 200.593 42.7H215.773V40.66C215.773 39.52 216.733 38.56 217.873 38.56C219.013 38.56 219.973 39.52 219.973 40.66V42.7H235.153C236.233 42.7 237.073 43.54 237.073 44.62C237.073 45.7 236.233 46.54 235.153 46.54H200.593ZM248.413 78.34C247.273 78.34 246.313 77.44 246.313 76.24V40.96C246.313 39.82 247.273 38.86 248.413 38.86C249.553 38.86 250.513 39.82 250.513 40.96V76.24C250.513 77.44 249.553 78.34 248.413 78.34Z" fill="white"/>
<rect x="270.5" y="30.5" width="90" height="120" fill="#90C85F"/>
<rect x="270.5" y="30.5" width="90" height="120" stroke="black"/>
<path d="M337.813 108.34C336.673 108.34 335.713 107.44 335.713 106.24V70.96C335.713 69.82 336.673 68.86 337.813 68.86C338.953 68.86 339.913 69.82 339.913 70.96V85.48H343.453C344.593 85.48 345.493 86.38 345.493 87.52C345.493 88.66 344.593 89.56 343.453 89.56H339.913V106.24C339.913 107.44 338.953 108.34 337.813 108.34ZM291.613 106.78C290.293 107.02 289.453 106.24 289.213 105.28C288.973 104.32 289.513 103.12 290.893 102.88C304.153 100.3 317.473 90.82 320.293 77.02C320.713 74.86 320.533 74.5 318.853 74.5H292.453C291.373 74.5 290.473 73.6 290.473 72.52C290.473 71.44 291.373 70.54 292.453 70.54H319.693C324.253 70.54 325.453 72.94 324.253 78.1C320.653 94.06 305.953 104.14 291.613 106.78Z" fill="white"/>
<rect x="0.5" y="30.5" width="90" height="120" fill="#90C85F"/>
<rect x="0.5" y="30.5" width="90" height="120" stroke="black"/>
<path d="M20.5934 107.32C19.4534 107.32 18.5534 106.42 18.5534 105.28C18.5534 104.2 19.4534 103.3 20.5934 103.3H43.3934V92.02C43.3934 90.82 44.3534 89.92 45.4934 89.92C46.6334 89.92 47.5934 90.82 47.5934 92.02V103.3H70.4534C71.5334 103.3 72.4334 104.2 72.4334 105.28C72.4334 106.42 71.5334 107.32 70.4534 107.32H20.5934ZM21.8534 94.48C19.2134 95.14 18.3134 91.12 20.8934 90.52C29.3534 88.66 43.0934 81.82 43.3934 74.5H22.9334C21.7934 74.5 20.9534 73.6 20.9534 72.52C20.9534 71.44 21.7934 70.54 22.9334 70.54H68.0534C69.1934 70.54 70.0334 71.44 70.0334 72.52C70.0334 73.6 69.1934 74.5 68.0534 74.5H47.5934C47.8934 81.82 61.6334 88.66 70.0934 90.52C72.6734 91.12 71.7734 95.14 69.1334 94.48C60.3734 92.26 49.7534 87.22 45.4934 80.14C41.2334 87.22 30.6134 92.26 21.8534 94.48Z" fill="white"/>
<rect x="90.5" y="30.5" width="90" height="120" fill="#90C85F"/>
<rect x="90.5" y="30.5" width="90" height="120" stroke="black"/>
<path d="M158.353 89.14C157.213 89.14 156.253 88.24 156.253 87.04V70.96C156.253 69.82 157.213 68.86 158.353 68.86C159.493 68.86 160.453 69.82 160.453 70.96V87.04C160.453 88.24 159.493 89.14 158.353 89.14ZM118.093 108.16C112.813 108.16 111.193 107.14 111.193 102.76V97.48C111.193 93.1 112.813 92.08 118.093 92.08H153.613C158.893 92.08 160.453 93.1 160.453 97.48V102.76C160.453 107.14 158.893 108.16 153.613 108.16H118.093ZM115.333 101.98C115.333 103.96 115.753 104.26 118.273 104.26H153.433C155.953 104.26 156.313 103.96 156.313 101.98V98.26C156.313 96.28 155.953 95.98 153.433 95.98H118.273C115.753 95.98 115.333 96.28 115.333 98.26V101.98ZM108.913 88.54C106.273 89.32 105.193 85.6 107.893 84.76C115.513 82.3 122.593 77.02 125.953 70.9C126.493 69.82 127.093 69.28 128.053 69.28C129.013 69.28 129.613 69.82 130.153 70.9C133.513 77.02 140.473 81.7 148.093 84.1C150.793 84.94 149.773 88.66 147.073 87.88C139.513 85.6 132.253 80.74 128.053 74.86C123.793 80.8 116.473 86.2 108.913 88.54Z" fill="white"/>
</svg>
