<svg width="449" height="181" viewBox="0 0 449 181" fill="none" xmlns="http://www.w3.org/2000/svg">
<rect x="0.5" y="30.5" width="90" height="120" fill="#90C85F"/>
<rect x="0.5" y="30.5" width="90" height="120" stroke="black"/>
<path d="M67.8134 108.34C66.6734 108.34 65.7134 107.44 65.7134 106.24V70.96C65.7134 69.82 66.6734 68.86 67.8134 68.86C68.9534 68.86 69.9134 69.82 69.9134 70.96V85.48H73.4534C74.5934 85.48 75.4934 86.38 75.4934 87.52C75.4934 88.66 74.5934 89.56 73.4534 89.56H69.9134V106.24C69.9134 107.44 68.9534 108.34 67.8134 108.34ZM29.1734 106.3C23.5334 106.42 20.9534 104.68 20.9534 99.16V72.52C20.9534 71.44 21.9134 70.36 23.1134 70.36C24.4334 70.42 25.2734 71.5 25.2734 72.52V97.9C25.2734 101.92 25.6934 102.16 29.7134 102.22C38.7734 102.22 49.2734 101.02 55.5734 99.46C58.3934 98.8 59.2334 102.76 56.5334 103.42C49.9934 105.04 39.0734 106.3 29.1734 106.3Z" fill="white"/>
<rect x="180.5" y="30.5" width="90" height="120" fill="#90C85F"/>
<rect x="180.5" y="30.5" width="90" height="120" stroke="black"/>
<path d="M206.833 86.26C201.553 86.26 199.993 85 199.993 80.38V75.88C199.993 71.32 201.553 70.06 206.833 70.06H228.133C233.413 70.06 234.973 71.32 234.973 75.88V80.38C234.973 85 233.413 86.26 228.133 86.26H206.833ZM204.193 80.08C204.193 82.06 204.613 82.36 207.433 82.36H227.533C230.353 82.36 230.773 82.06 230.773 80.08V76.24C230.773 74.26 230.353 73.96 227.533 73.96H207.433C204.613 73.96 204.193 74.26 204.193 76.24V80.08ZM248.353 87.58C247.213 87.58 246.253 86.68 246.253 85.48V70.96C246.253 69.82 247.213 68.86 248.353 68.86C249.493 68.86 250.453 69.82 250.453 70.96V85.48C250.453 86.68 249.493 87.58 248.353 87.58ZM205.873 108.34C202.153 108.34 200.113 106.12 200.113 102.76C200.113 99.4 202.153 97.24 205.873 97.24H245.593C246.793 97.24 247.273 96.52 247.273 95.56C247.273 94.6 246.793 93.94 245.593 93.94H201.973C199.213 93.94 199.213 90.1 201.973 90.1H245.713C249.433 90.1 251.473 92.32 251.473 95.62C251.473 98.92 249.433 101.02 245.713 101.02H205.993C204.793 101.02 204.313 101.68 204.313 102.7C204.313 103.72 204.793 104.44 205.993 104.44H250.573C253.393 104.44 253.333 108.34 250.573 108.34H205.873Z" fill="white"/>
<rect x="269.5" y="30.5" width="90" height="120" fill="#90C85F"/>
<rect x="269.5" y="30.5" width="90" height="120" stroke="black"/>
<path d="M336.813 108.34C335.673 108.34 334.713 107.44 334.713 106.24V70.96C334.713 69.82 335.673 68.86 336.813 68.86C337.953 68.86 338.913 69.82 338.913 70.96V85.48H342.453C343.593 85.48 344.493 86.38 344.493 87.52C344.493 88.66 343.593 89.56 342.453 89.56H338.913V106.24C338.913 107.44 337.953 108.34 336.813 108.34ZM306.513 108.28C295.353 108.28 287.193 102.22 287.193 94.36C287.193 86.5 295.353 80.44 306.513 80.44C317.673 80.44 325.833 86.5 325.833 94.36C325.833 102.22 317.673 108.28 306.513 108.28ZM306.513 104.44C315.393 104.44 321.813 100.12 321.813 94.36C321.813 88.6 315.393 84.28 306.513 84.28C297.633 84.28 291.213 88.6 291.213 94.36C291.213 100.12 297.633 104.44 306.513 104.44ZM289.593 76.54C288.513 76.54 287.673 75.7 287.673 74.62C287.673 73.54 288.513 72.7 289.593 72.7H304.413V70.66C304.413 69.52 305.373 68.56 306.513 68.56C307.653 68.56 308.613 69.52 308.613 70.66V72.7H323.433C324.513 72.7 325.353 73.54 325.353 74.62C325.353 75.7 324.513 76.54 323.433 76.54H289.593Z" fill="white"/>
<rect x="358.5" y="60.5" width="90" height="120" fill="#90C85F"/>
<rect x="358.5" y="60.5" width="90" height="120" stroke="black"/>
<path d="M425.813 138.34C424.673 138.34 423.713 137.44 423.713 136.24V100.96C423.713 99.82 424.673 98.86 425.813 98.86C426.953 98.86 427.913 99.82 427.913 100.96V115.48H431.453C432.593 115.48 433.493 116.38 433.493 117.52C433.493 118.66 432.593 119.56 431.453 119.56H427.913V136.24C427.913 137.44 426.953 138.34 425.813 138.34ZM387.173 136.3C381.533 136.42 378.953 134.68 378.953 129.16V102.52C378.953 101.44 379.913 100.36 381.113 100.36C382.433 100.42 383.273 101.5 383.273 102.52V127.9C383.273 131.92 383.693 132.16 387.713 132.22C396.773 132.22 407.273 131.02 413.573 129.46C416.393 128.8 417.233 132.76 414.533 133.42C407.993 135.04 397.073 136.3 387.173 136.3Z" fill="white"/>
<rect x="90.5" y="0.5" width="90" height="120" fill="#90C85F"/>
<rect x="90.5" y="0.5" width="90" height="120" stroke="black"/>
<path d="M116.782 76.74C110.608 76.74 108.781 75.48 108.781 70.125V40.83C108.781 39.633 109.789 38.625 110.986 38.625C112.183 38.625 113.191 39.633 113.191 40.83V52.926H141.226V40.83C141.226 39.633 142.234 38.625 143.431 38.625C144.628 38.625 145.636 39.633 145.636 40.83V70.125C145.636 75.48 143.809 76.74 137.635 76.74H116.782ZM159.559 78.882C158.362 78.882 157.354 77.937 157.354 76.677V39.633C157.354 38.436 158.362 37.428 159.559 37.428C160.756 37.428 161.764 38.436 161.764 39.633V76.677C161.764 77.937 160.756 78.882 159.559 78.882ZM113.191 69.747C113.191 72.204 113.695 72.582 116.971 72.582H137.446C140.722 72.582 141.226 72.204 141.226 69.747V57.084H113.191V69.747Z" fill="white"/>
</svg>
