<svg width="361" height="181" viewBox="0 0 361 181" fill="none" xmlns="http://www.w3.org/2000/svg">
<rect x="0.5" y="30.5" width="90" height="120" fill="#90C85F"/>
<rect x="0.5" y="30.5" width="90" height="120" stroke="black"/>
<path d="M26.7734 86.26C21.6134 86.26 20.0534 85 20.0534 80.44V75.82C20.0534 71.32 21.6134 70.06 26.7734 70.06H47.7134C52.8734 70.06 54.4334 71.32 54.4334 75.82V80.44C54.4334 85 52.8734 86.26 47.7134 86.26H26.7734ZM24.2534 80.08C24.2534 82.06 24.6734 82.36 27.4334 82.36H47.0534C49.8134 82.36 50.2334 82.06 50.2334 80.08V76.24C50.2334 74.26 49.8134 73.96 47.0534 73.96H27.4334C24.6734 73.96 24.2534 74.26 24.2534 76.24V80.08ZM67.8134 87.58C66.6734 87.58 65.7134 86.68 65.7134 85.48V70.96C65.7134 69.82 66.6734 68.86 67.8134 68.86C68.9534 68.86 69.9134 69.82 69.9134 70.96V76.24H73.4534C74.5934 76.24 75.4934 77.14 75.4934 78.28C75.4934 79.42 74.5934 80.32 73.4534 80.32H69.9134V85.48C69.9134 86.68 68.9534 87.58 67.8134 87.58ZM25.9334 108.34C22.2134 108.34 20.1734 106.12 20.1734 102.76C20.1734 99.4 22.2134 97.24 25.9334 97.24H65.1134C66.3134 97.24 66.7934 96.52 66.7934 95.56C66.7934 94.6 66.3134 93.94 65.1134 93.94H22.0334C19.2734 93.94 19.2734 90.1 22.0334 90.1H65.2334C68.9534 90.1 70.9934 92.32 70.9934 95.62C70.9934 98.92 68.9534 101.02 65.2334 101.02H26.0534C24.8534 101.02 24.3734 101.68 24.3734 102.7C24.3734 103.72 24.8534 104.44 26.0534 104.44H70.0334C72.8534 104.44 72.7934 108.34 70.0334 108.34H25.9334Z" fill="white"/>
<rect x="90.5" y="0.5" width="90" height="120" fill="#90C85F"/>
<rect x="90.5" y="0.5" width="90" height="120" stroke="black"/>
<path d="M159.973 78.34C158.833 78.34 157.873 77.44 157.873 76.24V60.34H153.133V74.98C153.133 76.18 152.233 77.08 151.093 77.08C149.953 77.08 148.993 76.18 148.993 74.98V41.8C148.993 40.66 149.953 39.7 151.093 39.7C152.233 39.7 153.133 40.66 153.133 41.8V56.32H157.873V40.96C157.873 39.82 158.833 38.86 159.973 38.86C161.113 38.86 162.073 39.82 162.073 40.96V76.24C162.073 77.44 161.113 78.34 159.973 78.34ZM125.173 78.28C114.133 78.28 106.633 72.1 106.633 64.36C106.633 56.62 114.133 50.44 125.173 50.44C136.213 50.44 143.713 56.62 143.713 64.36C143.713 72.1 136.213 78.28 125.173 78.28ZM125.173 74.44C133.753 74.44 139.693 70.12 139.693 64.36C139.693 58.6 133.753 54.28 125.173 54.28C116.593 54.28 110.653 58.6 110.653 64.36C110.653 70.12 116.593 74.44 125.173 74.44ZM109.033 46.54C107.953 46.54 107.113 45.7 107.113 44.62C107.113 43.54 107.953 42.7 109.033 42.7H123.073V40.66C123.073 39.52 124.033 38.56 125.173 38.56C126.313 38.56 127.273 39.52 127.273 40.66V42.7H141.313C142.393 42.7 143.233 43.54 143.233 44.62C143.233 45.7 142.393 46.54 141.313 46.54H109.033Z" fill="white"/>
<rect x="180.5" y="30.5" width="90" height="120" fill="#90C85F"/>
<rect x="180.5" y="30.5" width="90" height="120" stroke="black"/>
<path d="M200.653 82.54C198.133 82.54 198.133 78.76 200.653 78.76C210.913 78.76 222.493 76.42 223.633 73.78H202.393C201.373 73.78 200.533 72.94 200.533 71.92C200.533 70.9 201.373 70.06 202.393 70.06H248.593C249.613 70.06 250.453 70.9 250.453 71.92C250.453 72.94 249.613 73.78 248.593 73.78H227.353C228.493 76.42 240.073 78.76 250.333 78.76C252.853 78.76 252.853 82.54 250.333 82.54C241.573 82.48 230.053 81.1 225.493 77.26C220.933 81.1 209.413 82.48 200.653 82.54ZM200.113 88.72C199.033 88.72 198.253 87.94 198.253 86.86C198.253 85.84 199.033 85.06 200.113 85.06H250.933C251.953 85.06 252.733 85.84 252.733 86.86C252.733 87.94 251.953 88.72 250.933 88.72H227.593V92.08H245.533C249.013 92.08 251.053 94.06 251.053 97.06C251.053 100.12 249.013 101.92 245.533 101.92H205.393C204.493 101.92 204.013 102.46 204.013 103.3C204.013 104.14 204.493 104.68 205.393 104.68H250.273C252.853 104.68 252.793 108.34 250.273 108.34H205.393C201.913 108.34 199.873 106.36 199.873 103.3C199.873 100.24 201.913 98.38 205.393 98.38H245.533C246.373 98.38 246.853 97.78 246.853 97C246.853 96.22 246.373 95.68 245.533 95.68H201.553C199.033 95.68 199.033 92.08 201.553 92.08H223.453V88.72H200.113Z" fill="white"/>
<rect x="270.5" y="60.5" width="90" height="120" fill="#90C85F"/>
<rect x="270.5" y="60.5" width="90" height="120" stroke="black"/>
<path d="M326.353 120.46C325.213 120.46 324.313 119.56 324.313 118.42C324.313 117.28 325.213 116.38 326.353 116.38H329.893V101.8C329.893 100.66 330.853 99.7 331.993 99.7C333.133 99.7 334.033 100.66 334.033 101.8V134.98C334.033 136.18 333.133 137.08 331.993 137.08C330.853 137.08 329.893 136.18 329.893 134.98V120.46H326.353ZM339.973 138.34C338.833 138.34 337.873 137.44 337.873 136.24V100.96C337.873 99.82 338.833 98.86 339.973 98.86C341.113 98.86 342.073 99.82 342.073 100.96V136.24C342.073 137.44 341.113 138.34 339.973 138.34ZM289.993 136.78C288.613 136.96 287.773 136.12 287.653 135.16C287.473 134.2 287.953 133.12 289.273 132.88C301.213 130.6 314.113 121.84 317.173 106.96C317.653 104.86 317.473 104.5 315.793 104.5H290.773C289.693 104.5 288.793 103.6 288.793 102.52C288.793 101.44 289.693 100.54 290.773 100.54H316.693C321.253 100.54 322.453 102.94 321.193 108.1C317.413 125.5 301.933 134.74 289.993 136.78Z" fill="white"/>
</svg>
