<svg width="181" height="121" viewBox="0 0 181 121" fill="none" xmlns="http://www.w3.org/2000/svg">
<rect x="0.5" y="0.5" width="90" height="120" fill="#90C85F"/>
<rect x="0.5" y="0.5" width="90" height="120" stroke="black"/>
<path d="M67.2911 64.77C66.8501 66.156 65.5901 66.66 64.5821 66.345C63.5111 66.03 62.6921 65.022 63.1331 63.447C64.8341 57.651 65.9051 52.359 66.2831 46.311C66.3461 45.114 66.2831 44.421 65.8421 44.043C65.3381 43.539 64.4561 43.413 62.6921 43.413H21.4901C20.3561 43.413 19.4741 42.468 19.4741 41.334C19.4741 40.2 20.3561 39.192 21.4901 39.192H62.9441C66.2201 39.192 68.2991 39.57 69.4331 40.767C70.5041 41.775 70.8191 43.413 70.7561 45.996C70.3151 53.997 68.8661 59.73 67.2911 64.77ZM19.3481 77.748C18.1511 77.748 17.2061 76.803 17.2061 75.606C17.2061 74.409 18.1511 73.464 19.3481 73.464H71.6381C72.8351 73.464 73.7801 74.409 73.7801 75.606C73.7801 76.803 72.8351 77.748 71.6381 77.748H19.3481Z" fill="white"/>
<rect x="90.5" y="0.5" width="90" height="120" fill="#90C85F"/>
<rect x="90.5" y="0.5" width="90" height="120" stroke="black"/>
<path d="M135.619 79.638C120.058 79.638 109.348 76.614 109.348 70.188C109.348 63.762 120.058 60.738 135.619 60.738C151.18 60.738 161.89 63.762 161.89 70.188C161.89 76.614 151.18 79.638 135.619 79.638ZM135.619 75.543C148.219 75.543 157.48 73.086 157.48 70.188C157.48 67.29 148.219 64.833 135.619 64.833C123.019 64.833 113.758 67.29 113.758 70.188C113.758 73.086 123.019 75.543 135.619 75.543ZM158.929 58.722C157.732 58.722 156.724 57.777 156.724 56.517V39.633C156.724 38.436 157.732 37.428 158.929 37.428C160.126 37.428 161.134 38.436 161.134 39.633V41.586H164.914C166.111 41.586 166.993 42.531 166.993 43.665C166.993 44.799 166.111 45.744 164.914 45.744H161.134V50.658H164.914C166.111 50.658 166.993 51.603 166.993 52.737C166.993 53.871 166.111 54.816 164.914 54.816H161.134V56.517C161.134 57.777 160.126 58.722 158.929 58.722ZM116.782 56.895C111.238 57.021 108.781 55.383 108.781 50.217V40.956C108.781 39.822 109.789 38.688 111.049 38.688C112.435 38.751 113.317 39.885 113.317 40.956V48.768C113.317 52.359 113.695 52.548 117.286 52.674C126.736 52.737 137.509 51.729 145.384 50.343C148.471 49.776 149.227 53.997 146.329 54.501C138.706 55.887 127.366 56.895 117.538 56.895H116.782Z" fill="white"/>
</svg>
