<svg width="271" height="151" viewBox="0 0 271 151" fill="none" xmlns="http://www.w3.org/2000/svg">
<rect x="0.5" y="0.5" width="90" height="120" fill="#90C85F"/>
<rect x="0.5" y="0.5" width="90" height="120" stroke="black"/>
<path d="M67.8134 67.48C66.6734 67.48 65.7134 66.58 65.7134 65.38V40.96C65.7134 39.82 66.6734 38.86 67.8134 38.86C68.9534 38.86 69.9134 39.82 69.9134 40.96V50.92H73.4534C74.5934 50.92 75.4934 51.82 75.4934 52.96C75.4934 54.1 74.5934 55 73.4534 55H69.9134V65.38C69.9134 66.58 68.9534 67.48 67.8134 67.48ZM29.0534 77.74C23.6534 77.74 21.5534 76.24 21.5534 72.34V67.36C21.5534 65.92 22.6334 65.2 23.7134 65.2C24.7934 65.2 25.8734 65.92 25.8734 67.36V71.32C25.8734 73.3 26.4734 73.66 29.7734 73.66H69.0734C70.1534 73.66 71.1134 74.56 71.1134 75.7C71.1134 76.84 70.1534 77.74 69.0734 77.74H29.0534ZM21.0134 62.08C19.6334 62.14 18.8534 61.06 18.8534 60.04C18.8534 59.08 19.5134 58.12 20.8934 58.12C30.7934 57.76 45.2534 54.58 49.3934 45.58C49.9934 44.26 49.8734 44.02 48.8534 44.02H22.0334C20.9534 44.02 20.0534 43.12 20.0534 42.04C20.0534 40.96 20.9534 40.06 22.0334 40.06H50.8934C54.0734 40.06 55.6334 42.1 53.5934 46.54C48.9134 57.76 33.1334 61.66 21.0134 62.08Z" fill="white"/>
<rect x="90.5" y="0.5" width="90" height="120" fill="#90C85F"/>
<rect x="90.5" y="0.5" width="90" height="120" stroke="black"/>
<path d="M157.813 67.48C156.673 67.48 155.713 66.58 155.713 65.38V40.96C155.713 39.82 156.673 38.86 157.813 38.86C158.953 38.86 159.913 39.82 159.913 40.96V50.92H163.453C164.593 50.92 165.493 51.82 165.493 52.96C165.493 54.1 164.593 55 163.453 55H159.913V65.38C159.913 66.58 158.953 67.48 157.813 67.48ZM119.053 77.74C113.653 77.74 111.553 76.24 111.553 72.34V67.36C111.553 65.92 112.633 65.2 113.713 65.2C114.793 65.2 115.873 65.92 115.873 67.36V71.32C115.873 73.3 116.473 73.66 119.773 73.66H159.073C160.153 73.66 161.113 74.56 161.113 75.7C161.113 76.84 160.153 77.74 159.073 77.74H119.053ZM117.553 61.6C112.393 61.72 110.053 60.16 110.053 55.12V45.64C110.053 41.14 111.613 40.06 116.833 40.06H139.813C140.893 40.06 141.793 40.96 141.793 42.04C141.793 43.12 140.893 44.02 139.813 44.02H117.493C114.673 44.02 114.253 44.32 114.253 46.3V53.92C114.253 57.4 114.613 57.58 118.273 57.64H118.693C128.173 57.64 139.153 56.56 145.333 55.36C148.213 54.76 148.873 58.6 146.173 59.2C139.693 60.58 128.233 61.6 118.333 61.6H117.553Z" fill="white"/>
<rect x="180.5" y="30.5" width="90" height="120" fill="#90C85F"/>
<rect x="180.5" y="30.5" width="90" height="120" stroke="black"/>
<path d="M248.413 108.34C247.273 108.34 246.313 107.44 246.313 106.24V100.9H242.653C241.513 100.9 240.613 100.06 240.613 98.92C240.613 97.78 241.513 96.88 242.653 96.88H246.313V85.78H242.653C241.513 85.78 240.613 84.94 240.613 83.8C240.613 82.66 241.513 81.76 242.653 81.76H246.313V70.96C246.313 69.82 247.273 68.86 248.413 68.86C249.553 68.86 250.513 69.82 250.513 70.96V106.24C250.513 107.44 249.553 108.34 248.413 108.34ZM217.513 108.28C206.353 108.28 198.193 102.22 198.193 94.36C198.193 86.5 206.353 80.44 217.513 80.44C228.673 80.44 236.833 86.5 236.833 94.36C236.833 102.22 228.673 108.28 217.513 108.28ZM217.513 104.44C226.393 104.44 232.813 100.12 232.813 94.36C232.813 88.6 226.393 84.28 217.513 84.28C208.633 84.28 202.213 88.6 202.213 94.36C202.213 100.12 208.633 104.44 217.513 104.44ZM200.593 76.54C199.513 76.54 198.673 75.7 198.673 74.62C198.673 73.54 199.513 72.7 200.593 72.7H215.413V70.66C215.413 69.52 216.373 68.56 217.513 68.56C218.653 68.56 219.613 69.52 219.613 70.66V72.7H234.433C235.513 72.7 236.353 73.54 236.353 74.62C236.353 75.7 235.513 76.54 234.433 76.54H200.593Z" fill="white"/>
</svg>
