<svg width="271" height="121" viewBox="0 0 271 121" fill="none" xmlns="http://www.w3.org/2000/svg">
<rect x="0.5" y="0.5" width="90" height="120" fill="white"/>
<rect x="0.5" y="0.5" width="90" height="120" stroke="black"/>
<path d="M65.3023 46.56V60.06H62.3023V32.1H65.3023V44.04H73.7023V46.56H65.3023ZM66.9823 84.3H30.5023V72.6H62.4823V65.94H30.5023V63.54H65.4823V75H33.5023V81.9H66.9823V84.3ZM39.3823 38.1V39.24C39.3823 49.56 49.6423 54.6 54.0223 56.16L52.0423 58.5C47.3023 56.22 40.2223 51.9 37.8823 45.72C36.0823 52.68 26.4823 58.5 22.4623 59.88L20.5423 57.72C29.0023 54.42 36.3823 48.12 36.3823 39.24V38.1H23.6623V35.7H51.8623V38.1H39.3823Z" fill="black"/>
<rect x="90.5" y="0.5" width="90" height="120" fill="white"/>
<rect x="90.5" y="0.5" width="90" height="120" stroke="black"/>
<path d="M153.382 32.1H156.382V63H153.382V32.1ZM138.922 84.9C134.182 82.32 130.222 76.32 128.782 72.42C127.882 76.38 123.562 82.26 118.822 84.84L116.782 82.98C123.682 79.2 127.282 72.66 127.282 65.64H130.282C130.282 72.66 134.542 78.6 138.862 81.84C143.182 78.6 147.502 72.66 147.502 65.64H150.502C150.502 72.66 154.162 79.14 161.062 82.92L159.022 84.78C154.282 82.2 149.902 76.38 149.002 72.42C147.562 76.32 143.662 82.08 138.922 84.9ZM125.962 36.78C118.882 36.78 114.982 41.22 114.982 46.74C114.982 52.26 118.882 56.7 125.962 56.7C133.102 56.7 136.942 52.26 136.942 46.74C136.942 41.22 133.102 36.78 125.962 36.78ZM125.962 33.96C134.302 33.96 140.242 39.66 140.242 46.74C140.242 53.82 134.302 59.52 125.962 59.52C117.622 59.52 111.682 53.82 111.682 46.74C111.682 39.66 117.622 33.96 125.962 33.96Z" fill="black"/>
<rect x="180.5" y="0.5" width="90" height="120" fill="white"/>
<rect x="180.5" y="0.5" width="90" height="120" stroke="black"/>
<path d="M225.562 55.62C225.562 46.62 222.142 39.18 215.542 39.18C208.942 39.18 205.402 46.56 205.402 55.62C205.402 64.8 208.942 72.18 215.542 72.18C222.142 72.18 225.562 64.74 225.562 55.62ZM228.622 54H243.202V32.1H246.202V84.9H243.202V56.4H228.682C228.442 67.56 223.342 74.94 215.482 74.94C207.502 74.94 202.282 67.26 202.282 55.68C202.282 44.04 207.502 36.42 215.482 36.42C223.102 36.42 228.142 43.32 228.622 54Z" fill="black"/>
</svg>
