<svg width="181" height="121" viewBox="0 0 181 121" fill="none" xmlns="http://www.w3.org/2000/svg">
<rect x="90.5" y="0.5" width="90" height="120" fill="white"/>
<rect x="90.5" y="0.5" width="90" height="120" stroke="black"/>
<path d="M120.502 67.5H123.502V81.3H158.602V83.7H120.502V67.5ZM153.502 49.2V32.1H156.502V70.5H153.502V51.66H140.902V49.2H153.502ZM114.502 38.7V36.3H139.642C138.742 50.16 128.182 59.76 112.942 65.16L110.962 63C124.642 58.98 135.922 49.2 136.102 38.7H114.502Z" fill="black"/>
<rect x="0.5" y="0.5" width="90" height="120" fill="white"/>
<rect x="0.5" y="0.5" width="90" height="120" stroke="black"/>
<path d="M71.9023 75.42H19.1023V73.02H56.3623C57.1423 68.7 60.0823 51.42 60.3823 42.9H26.0023V40.5H63.6223C63.0823 53.7 59.7823 70.8 59.3023 73.02H71.9023V75.42Z" fill="black"/>
</svg>
