<svg width="357" height="121" viewBox="0 0 357 121" fill="none" xmlns="http://www.w3.org/2000/svg">
<rect x="270.5" y="0.5" width="86" height="120" fill="white"/>
<rect x="270.5" y="0.5" width="86" height="120" stroke="black"/>
<path d="M311.642 64.26H294.722V49.44H328.322V39.54H294.482V37.14H331.322V51.84H297.722V61.86H333.962V64.26H314.642V75.18H339.902V77.58H287.102V75.18H311.642V64.26Z" fill="black"/>
<rect x="0.5" y="0.5" width="90" height="120" fill="white"/>
<rect x="0.5" y="0.5" width="90" height="120" stroke="black"/>
<path d="M26.9023 41.7V70.44H45.5023V41.7H26.9023ZM23.9023 39.3H48.5023V72.84H23.9023V39.3ZM64.1023 56.1V84.9H61.1023V32.1H64.1023V53.7H73.7023V56.1H64.1023Z" fill="black"/>
<rect x="180.5" y="0.5" width="90" height="120" fill="white"/>
<rect x="180.5" y="0.5" width="90" height="120" stroke="black"/>
<path d="M253.222 73.976V76.496H197.782V73.976H253.222ZM225.502 34.853C237.535 34.853 245.851 41.027 245.851 48.839C245.851 56.651 237.535 62.825 225.502 62.825C213.721 62.825 205.153 56.651 205.153 48.839C205.153 41.09 213.595 34.853 225.502 34.853ZM225.502 37.814C216.43 37.814 208.618 42.035 208.618 48.839C208.618 55.391 216.367 59.864 225.502 59.864C234.448 59.864 242.386 55.454 242.386 48.839C242.386 42.161 234.448 37.814 225.502 37.814Z" fill="black"/>
<rect x="90.5" y="0.5" width="90" height="120" fill="white"/>
<rect x="90.5" y="0.5" width="90" height="120" stroke="black"/>
<path d="M163.222 58.037V60.557H107.782V58.037H163.222ZM115.657 85.19V67.298H155.347V85.19H115.657ZM118.807 82.67H152.197V69.818H118.807V82.67ZM156.166 40.901C156.166 46.949 148.669 51.611 135.502 51.611C122.398 51.611 114.838 46.949 114.838 40.901C114.838 34.853 122.398 30.191 135.502 30.191C148.669 30.191 156.166 34.853 156.166 40.901ZM153.079 40.901C153.079 35.987 145.519 32.711 135.502 32.711C125.359 32.711 117.862 35.987 117.862 40.901C117.862 45.689 125.359 49.091 135.502 49.091C145.519 49.091 153.079 45.689 153.079 40.901Z" fill="black"/>
</svg>
