<svg width="181" height="121" viewBox="0 0 181 121" fill="none" xmlns="http://www.w3.org/2000/svg">
<rect x="0.5" y="0.5" width="90" height="120" fill="white"/>
<rect x="0.5" y="0.5" width="90" height="120" stroke="black"/>
<path d="M27.2023 47.7V58.86H49.0423V47.7H27.2023ZM61.1023 32.1H64.1023V55.5H72.5023V57.9H64.1023V84.9H61.1023V32.1ZM58.4023 73.14C54.2623 73.68 45.9823 74.52 40.0423 74.52H19.7023V72.12H36.5023V61.26H24.2023V36.3H27.2023V45.3H49.0423V36.3H52.0423V61.26H39.5023V72.06C44.0023 72.06 53.5423 71.52 58.4023 70.68V73.14Z" fill="black"/>
<rect x="90.5" y="0.5" width="90" height="120" fill="white"/>
<rect x="90.5" y="0.5" width="90" height="120" stroke="black"/>
<path d="M153.142 48.84V63.24H162.502V65.64H153.142V84.9H150.142V32.1H153.142V46.44H162.502V48.84H153.142ZM114.082 55.62C114.082 64.8 117.622 72.18 124.222 72.18C130.822 72.18 134.242 64.74 134.242 55.62C134.242 46.62 130.822 39.18 124.222 39.18C117.622 39.18 114.082 46.56 114.082 55.62ZM110.962 55.68C110.962 44.04 116.182 36.42 124.162 36.42C132.202 36.42 137.362 44.04 137.362 55.68C137.362 67.26 132.202 74.94 124.162 74.94C116.182 74.94 110.962 67.26 110.962 55.68Z" fill="black"/>
</svg>
