<svg width="631" height="121" viewBox="0 0 631 121" fill="none" xmlns="http://www.w3.org/2000/svg">
<rect x="0.5" y="0.5" width="90" height="120" fill="white"/>
<rect x="0.5" y="0.5" width="90" height="120" stroke="black"/>
<path d="M65.3023 46.56V60.06H62.3023V32.1H65.3023V44.04H73.7023V46.56H65.3023ZM66.9823 84.3H30.5023V72.6H62.4823V65.94H30.5023V63.54H65.4823V75H33.5023V81.9H66.9823V84.3ZM39.3823 38.1V39.24C39.3823 49.56 49.6423 54.6 54.0223 56.16L52.0423 58.5C47.3023 56.22 40.2223 51.9 37.8823 45.72C36.0823 52.68 26.4823 58.5 22.4623 59.88L20.5423 57.72C29.0023 54.42 36.3823 48.12 36.3823 39.24V38.1H23.6623V35.7H51.8623V38.1H39.3823Z" fill="black"/>
<rect x="90.5" y="0.5" width="90" height="120" fill="white"/>
<rect x="90.5" y="0.5" width="90" height="120" stroke="black"/>
<path d="M119.722 60.24H151.282V48.24H119.722V60.24ZM136.822 62.64V74.82H161.902V77.22H109.102V74.82H133.822V62.64H116.722V35.7H119.722V45.84H151.282V35.7H154.282V62.64H136.822Z" fill="black"/>
<rect x="270.5" y="0.5" width="90" height="120" fill="white"/>
<rect x="270.5" y="0.5" width="90" height="120" stroke="black"/>
<path d="M329.602 32.1H332.602V53.94H341.602V56.34H332.602V84.9H329.602V32.1ZM326.002 70.5C322.402 71.04 310.882 72.18 302.962 72.18H293.602V38.88H319.402V41.28H296.602V69.78H303.142C311.902 69.78 322.402 68.76 326.002 68.1V70.5Z" fill="black"/>
<rect x="180.5" y="0.5" width="90" height="120" fill="white"/>
<rect x="180.5" y="0.5" width="90" height="120" stroke="black"/>
<path d="M244.102 32.1H247.102V70.5H244.102V32.1ZM211.102 67.5H214.102V81.3H248.602V83.7H211.102V67.5ZM216.142 36.84C209.122 36.84 205.162 41.46 205.162 47.34C205.162 53.22 209.122 57.84 216.142 57.84C223.222 57.84 227.122 53.22 227.122 47.34C227.122 41.46 223.222 36.84 216.142 36.84ZM216.142 34.02C224.482 34.02 230.422 39.96 230.422 47.34C230.422 54.72 224.482 60.66 216.142 60.66C207.802 60.66 201.862 54.72 201.862 47.34C201.862 39.96 207.802 34.02 216.142 34.02Z" fill="black"/>
<rect x="360.5" y="0.5" width="90" height="120" fill="white"/>
<rect x="360.5" y="0.5" width="90" height="120" stroke="black"/>
<path d="M386.602 67.74H389.602V81.3H427.102V83.7H386.602V67.74ZM431.902 60.3V62.7H379.102V60.3H431.902ZM389.602 32.7V48.3H425.302V50.7H386.602V32.7H389.602Z" fill="black"/>
<rect x="450.5" y="0.5" width="90" height="120" fill="white"/>
<rect x="450.5" y="0.5" width="90" height="120" stroke="black"/>
<path d="M513.502 57.3H500.902V54.78H513.502V32.1H516.502V84.9H513.502V57.3ZM471.922 73.38C486.202 66.96 494.662 53.64 495.862 41.1H475.162V38.7H499.222C497.722 55.98 487.762 68.58 474.382 75.24L471.922 73.38Z" fill="black"/>
<rect x="540.5" y="0.5" width="90" height="120" fill="white"/>
<rect x="540.5" y="0.5" width="90" height="120" stroke="black"/>
<path d="M603.142 48.84V63.24H612.502V65.64H603.142V84.9H600.142V32.1H603.142V46.44H612.502V48.84H603.142ZM564.082 55.62C564.082 64.8 567.622 72.18 574.222 72.18C580.822 72.18 584.242 64.74 584.242 55.62C584.242 46.62 580.822 39.18 574.222 39.18C567.622 39.18 564.082 46.56 564.082 55.62ZM560.962 55.68C560.962 44.04 566.182 36.42 574.162 36.42C582.202 36.42 587.362 44.04 587.362 55.68C587.362 67.26 582.202 74.94 574.162 74.94C566.182 74.94 560.962 67.26 560.962 55.68Z" fill="black"/>
</svg>
