<svg width="181" height="121" viewBox="0 0 181 121" fill="none" xmlns="http://www.w3.org/2000/svg">
<rect x="90.5" y="0.5" width="90" height="120" fill="white"/>
<rect x="90.5" y="0.5" width="90" height="120" stroke="black"/>
<path d="M138.085 68.306C128.383 68.306 121.264 71.267 121.264 76.433C121.264 81.473 128.383 84.434 138.085 84.434C147.661 84.434 154.78 81.473 154.78 76.433C154.78 71.267 147.661 68.306 138.085 68.306ZM138.022 65.597C151 65.597 158.119 70.133 158.119 76.37C158.119 82.607 151 87.08 138.022 87.08C125.107 87.08 117.925 82.607 117.925 76.37C117.925 70.133 125.107 65.597 138.022 65.597ZM156.166 47.201V64.463H153.016V30.38H156.166V44.555H164.923V47.201H156.166ZM128.887 36.995V38.57C128.887 44.303 131.344 48.713 134.368 51.8C137.959 55.454 143.188 57.407 144.952 57.911L142.999 60.242C141.613 59.738 136.384 57.911 132.982 54.383C130.021 51.296 128.446 49.091 127.312 46.13C126.43 49.154 124.225 51.926 121.201 54.95C117.925 58.226 112.948 60.998 111.247 61.754L109.042 59.612C111.877 58.352 117.043 55.58 120.697 51.485C123.154 48.713 125.737 44.303 125.737 38.57V36.995H112.507V34.475H142.306V36.995H128.887Z" fill="black"/>
<rect x="0.5" y="0.5" width="90" height="120" fill="white"/>
<rect x="0.5" y="0.5" width="90" height="120" stroke="black"/>
<path d="M64.7805 57.47V85.82H61.6305V30.38H64.7805V54.887H74.3565V57.47H64.7805ZM20.0505 73.724C35.0445 66.983 43.9275 52.997 45.1875 39.83H23.4525V37.31H48.7155C47.1405 55.454 36.6825 68.684 22.6335 75.677L20.0505 73.724Z" fill="black"/>
</svg>
