<svg width="361" height="121" viewBox="0 0 361 121" fill="none" xmlns="http://www.w3.org/2000/svg">
<rect x="0.5" y="0.5" width="90" height="120" fill="white"/>
<rect x="0.5" y="0.5" width="90" height="120" stroke="black"/>
<path d="M45.5025 68.747C35.1705 68.747 27.6735 71.834 27.6735 76.685C27.6735 81.41 35.1705 84.56 45.5025 84.56C55.7085 84.56 63.3315 81.41 63.3315 76.685C63.3315 71.834 55.7085 68.747 45.5025 68.747ZM43.9275 58.919H17.7825V56.399H73.2225V58.919H47.0775V66.29C59.4885 66.668 66.6075 70.952 66.6075 76.685C66.6075 82.67 58.9215 87.08 45.5025 87.08C32.1465 87.08 24.3975 82.67 24.3975 76.685C24.3975 70.952 31.5795 66.668 43.9275 66.29V58.919ZM43.6755 35.483H25.1535V33.026H65.4735V35.483H46.8885C46.9515 42.665 62.3235 48.65 68.8755 49.847L66.8595 52.052C56.9685 49.784 48.7785 44.996 45.3765 39.767C40.6515 47.327 27.1065 51.611 24.0195 52.115L22.0035 49.784C29.6265 48.713 43.8015 41.909 43.6755 35.483Z" fill="black"/>
<rect x="270.5" y="0.5" width="90" height="120" fill="white"/>
<rect x="270.5" y="0.5" width="90" height="120" stroke="black"/>
<path d="M299.752 67.55H302.902V82.04H339.757V84.56H299.752V67.55ZM334.402 48.335V30.38H337.552V70.7H334.402V50.918H321.172V48.335H334.402ZM293.452 37.31V34.79H319.849C318.904 49.343 307.816 59.423 291.814 65.093L289.735 62.825C304.099 58.604 315.943 48.335 316.132 37.31H293.452Z" fill="black"/>
<rect x="180.5" y="0.5" width="90" height="120" fill="white"/>
<rect x="180.5" y="0.5" width="90" height="120" stroke="black"/>
<path d="M209.437 68.81H212.587V82.04H247.867V84.56H209.437V68.81ZM245.977 50.54V71.96H242.827V30.38H245.977V48.02H254.734V50.54H245.977ZM218.131 48.209C211.075 48.209 207.169 51.8 207.169 55.391C207.169 58.982 211.075 62.384 218.131 62.384C225.25 62.384 229.093 58.982 229.093 55.391C229.093 51.8 225.25 48.209 218.131 48.209ZM218.131 45.815C227.077 45.815 232.432 50.414 232.432 55.454C232.432 60.494 227.014 64.967 218.068 64.967C209.122 64.967 203.83 60.494 203.83 55.454C203.83 50.414 209.185 45.815 218.131 45.815ZM200.869 39.641H235.393V42.161H200.869V39.641ZM208.681 31.262H226.951V33.782H208.681V31.262Z" fill="black"/>
<rect x="90.5" y="0.5" width="90" height="120" fill="white"/>
<rect x="90.5" y="0.5" width="90" height="120" stroke="black"/>
<path d="M156.355 47.327C156.355 55.076 148.165 60.935 135.502 60.935C122.776 60.935 114.649 55.076 114.649 47.327C114.649 39.704 122.776 33.719 135.502 33.719C148.165 33.719 156.355 39.767 156.355 47.327ZM163.222 78.26H107.782V75.74H123.469V62.069H126.619V75.74H144.322V62.069H147.472V75.74H163.222V78.26ZM152.953 47.327C152.953 40.775 144.952 36.491 135.502 36.491C126.052 36.491 118.051 40.775 118.051 47.327C118.051 54.068 126.052 58.163 135.502 58.163C145.141 58.163 152.953 54.068 152.953 47.327Z" fill="black"/>
</svg>
