<svg width="181" height="121" viewBox="0 0 181 121" fill="none" xmlns="http://www.w3.org/2000/svg">
<rect x="90.5" y="0.5" width="90" height="120" fill="white"/>
<rect x="90.5" y="0.5" width="90" height="120" stroke="black"/>
<path d="M132.082 56.4C132.082 47.4 128.782 40.02 123.382 40.02C117.922 40.02 114.682 47.28 114.682 56.4C114.682 65.64 117.922 72.72 123.382 72.72C128.782 72.72 132.082 65.52 132.082 56.4ZM157.102 84.9H154.102V32.1H157.102V84.9ZM135.142 53.7H143.782V33.3H146.782V82.5H143.782V56.22H135.262V56.4C135.262 68.04 130.342 75.48 123.382 75.48C116.542 75.48 111.502 68.04 111.502 56.4C111.502 44.7 116.542 37.32 123.382 37.32C129.802 37.32 134.482 43.56 135.142 53.7Z" fill="black"/>
<rect x="0.5" y="0.5" width="90" height="120" fill="white"/>
<rect x="0.5" y="0.5" width="90" height="120" stroke="black"/>
<path d="M29.6023 32.7V47.88H65.0023V50.28H26.6023V32.7H29.6023ZM26.6023 68.46H29.6023V81.3H66.2623V83.7H26.6023V68.46ZM47.6023 61.26V73.8H44.6023V61.26H19.1023V58.86H71.9023V61.26H47.6023Z" fill="black"/>
</svg>
