<svg width="451" height="121" viewBox="0 0 451 121" fill="none" xmlns="http://www.w3.org/2000/svg">
<rect x="0.5" y="0.5" width="90" height="120" fill="white"/>
<rect x="0.5" y="0.5" width="90" height="120" stroke="black"/>
<path d="M29.7223 60.24H61.2823V48.24H29.7223V60.24ZM46.8223 62.64V74.82H71.9023V77.22H19.1023V74.82H43.8223V62.64H26.7223V35.7H29.7223V45.84H61.2823V35.7H64.2823V62.64H46.8223Z" fill="black"/>
<rect x="90.5" y="0.5" width="90" height="120" fill="white"/>
<rect x="90.5" y="0.5" width="90" height="120" stroke="black"/>
<path d="M153.502 32.1H156.502V84.9H153.502V32.1ZM116.002 55.62C116.002 64.8 119.542 72.18 126.142 72.18C132.742 72.18 136.162 64.74 136.162 55.62C136.162 46.62 132.742 39.18 126.142 39.18C119.542 39.18 116.002 46.56 116.002 55.62ZM112.882 55.68C112.882 44.04 118.102 36.42 126.082 36.42C134.122 36.42 139.282 44.04 139.282 55.68C139.282 67.26 134.122 74.94 126.082 74.94C118.102 74.94 112.882 67.26 112.882 55.68Z" fill="black"/>
<rect x="180.5" y="0.5" width="90" height="120" fill="white"/>
<rect x="180.5" y="0.5" width="90" height="120" stroke="black"/>
<path d="M244.702 32.1H247.702V84.9H244.702V32.1ZM217.282 40.8H203.782V38.4H234.202V40.8H220.282V46.62C220.282 62.28 232.342 70.2 234.982 71.58L233.122 73.98C231.382 72.96 221.062 65.88 218.782 54.66C216.682 65.7 205.882 73.8 203.182 75.42L200.902 73.38C207.082 70.5 217.282 60.3 217.282 46.62V40.8Z" fill="black"/>
<rect x="270.5" y="0.5" width="90" height="120" fill="white"/>
<rect x="270.5" y="0.5" width="90" height="120" stroke="black"/>
<path d="M334.402 46.68V58.92H331.402V32.1H334.402V44.16H342.802V46.68H334.402ZM319.402 45.9C319.402 52.68 313.762 57.9 305.542 57.9C297.382 57.9 291.682 52.68 291.682 45.9C291.682 39.12 297.322 33.78 305.542 33.78C313.762 33.78 319.402 39.18 319.402 45.9ZM316.102 45.9C316.102 40.68 312.502 36.6 305.542 36.6C298.702 36.6 294.982 40.8 294.982 45.9C294.982 51.06 298.762 55.2 305.542 55.2C312.442 55.2 316.102 51.06 316.102 45.9ZM326.422 75.78C322.342 75.78 318.502 77.22 318.502 79.74C318.502 82.14 322.342 83.46 326.422 83.46C330.382 83.46 334.282 82.02 334.282 79.8C334.282 77.28 330.382 75.78 326.422 75.78ZM326.422 73.62C332.902 73.62 337.342 76.02 337.342 79.74C337.342 83.28 332.842 85.86 326.422 85.86C319.942 85.86 315.502 83.34 315.502 79.74C315.502 76.14 319.942 73.62 326.422 73.62ZM314.002 83.58C313.162 83.82 306.982 84.24 304.582 84.24H298.462V62.76H301.462V81.84H304.582C306.982 81.84 312.982 81.36 314.002 81.12V83.58ZM313.402 68.04H339.682V70.44H313.402V68.04ZM318.922 61.92H333.922V64.32H318.922V61.92Z" fill="black"/>
<rect x="360.5" y="0.5" width="90" height="120" fill="white"/>
<rect x="360.5" y="0.5" width="90" height="120" stroke="black"/>
<path d="M383.767 55.076C383.767 64.715 387.484 72.464 394.414 72.464C401.344 72.464 404.935 64.652 404.935 55.076C404.935 45.626 401.344 37.814 394.414 37.814C387.484 37.814 383.767 45.563 383.767 55.076ZM380.491 55.139C380.491 42.917 385.972 34.916 394.351 34.916C402.793 34.916 408.211 42.917 408.211 55.139C408.211 67.298 402.793 75.362 394.351 75.362C385.972 75.362 380.491 67.298 380.491 55.139ZM424.78 57.029V85.82H421.63V30.38H424.78V54.509H434.482V57.029H424.78Z" fill="black"/>
</svg>
