<svg width="181" height="121" viewBox="0 0 181 121" fill="none" xmlns="http://www.w3.org/2000/svg">
<rect x="0.5" y="0.5" width="90" height="120" fill="white"/>
<rect x="0.5" y="0.5" width="90" height="120" stroke="black"/>
<path d="M71.9023 75.42H19.1023V73.02H56.3623C57.1423 68.7 60.0823 51.42 60.3823 42.9H26.0023V40.5H63.6223C63.0823 53.7 59.7823 70.8 59.3023 73.02H71.9023V75.42Z" fill="black"/>
<rect x="90.5" y="0.5" width="90" height="120" fill="white"/>
<rect x="90.5" y="0.5" width="90" height="120" stroke="black"/>
<path d="M116.602 67.74H119.602V81.3H157.102V83.7H116.602V67.74ZM161.902 60.3V62.7H109.102V60.3H161.902ZM119.602 32.7V48.3H155.302V50.7H116.602V32.7H119.602Z" fill="black"/>
</svg>
