<svg width="271" height="121" viewBox="0 0 271 121" fill="none" xmlns="http://www.w3.org/2000/svg">
<rect x="0.5" y="0.5" width="90" height="120" fill="white"/>
<rect x="0.5" y="0.5" width="90" height="120" stroke="black"/>
<path d="M26.3023 38.1V54.3L44.8423 54.36V38.1H26.3023ZM23.3023 35.7H47.8423V56.76L23.3023 56.7V35.7ZM63.8023 47.16V60.06H60.8023V32.1H63.8023V44.64H72.2023V47.16H63.8023ZM65.6023 84.3H29.6023V72.54H60.8023V65.88H29.6023V63.48H63.8023V74.94H32.6023V81.9H65.6023V84.3Z" fill="black"/>
<rect x="90.5" y="0.5" width="90" height="120" fill="white"/>
<rect x="90.5" y="0.5" width="90" height="120" stroke="black"/>
<path d="M156.292 45.563V30.38H159.442V63.14H156.292V48.083H146.842V63.14H143.692V31.325H146.842V45.563H156.292ZM139.912 85.127C135.439 82.796 131.029 78.323 129.265 73.976C127.249 78.197 123.532 82.292 118.618 85.127L116.35 83.363C121.831 80.465 127.627 74.543 127.627 68.432V67.046H130.777V68.432C130.777 74.543 136.762 80.339 139.912 81.851C142.81 80.15 148.795 74.543 148.795 68.432V67.046H151.945V68.432C151.945 74.543 157.741 80.402 163.222 83.3L160.954 85.064C156.544 82.418 152.134 78.26 150.244 73.85C148.732 78.071 143.818 82.733 139.912 85.127ZM124.729 47.768C119.122 47.768 115.972 50.792 115.972 54.32C115.972 57.848 119.122 60.746 124.729 60.746C130.462 60.746 133.549 57.848 133.549 54.32C133.549 50.792 130.462 47.768 124.729 47.768ZM124.729 45.248C132.289 45.248 136.888 49.343 136.888 54.32C136.888 59.297 132.289 63.203 124.729 63.203C117.232 63.203 112.57 59.297 112.57 54.32C112.57 49.343 117.232 45.248 124.729 45.248ZM110.932 39.389H138.778V41.909H110.932V39.389ZM117.673 32.144H131.659V34.664H117.673V32.144Z" fill="black"/>
<rect x="180.5" y="0.5" width="90" height="120" fill="white"/>
<rect x="180.5" y="0.5" width="90" height="120" stroke="black"/>
<path d="M240.307 30.38H243.457V53.312H252.907V55.832H243.457V85.82H240.307V30.38ZM236.527 70.7C232.747 71.267 220.651 72.464 212.335 72.464H202.507V37.499H229.597V40.019H205.657V69.944H212.524C221.722 69.944 232.747 68.873 236.527 68.18V70.7Z" fill="black"/>
</svg>
