<svg width="181" height="121" viewBox="0 0 181 121" fill="none" xmlns="http://www.w3.org/2000/svg">
<rect x="0.5" y="0.5" width="90" height="120" fill="white"/>
<rect x="0.5" y="0.5" width="90" height="120" stroke="black"/>
<path d="M73.2225 75.866H17.7825V73.346H56.9055C57.7245 68.81 60.8115 50.666 61.1265 41.72H25.0275V39.2H64.5285C63.9615 53.06 60.4965 71.015 59.9925 73.346H73.2225V75.866Z" fill="black"/>
<rect x="90.5" y="0.5" width="90" height="120" fill="white"/>
<rect x="90.5" y="0.5" width="90" height="120" stroke="black"/>
<path d="M142.117 31.64H145.267V54.194H154.717V30.38H157.867V85.82H154.717V56.714H145.267V83.3H142.117V31.64ZM139.597 72.149C134.431 73.031 126.619 73.787 117.862 73.787H112.192V54.068H129.517V39.452H112.066V36.932H132.667V56.588H115.342V71.267H119.122C126.871 71.267 133.927 70.574 139.597 69.755V72.149Z" fill="black"/>
</svg>
