<svg width="181" height="121" viewBox="0 0 181 121" fill="none" xmlns="http://www.w3.org/2000/svg">
<rect x="90.5" y="0.5" width="90" height="120" fill="white"/>
<rect x="90.5" y="0.5" width="90" height="120" stroke="black"/>
<path d="M153.862 57.9V84.9H150.862V32.1H153.862V55.44H162.982V57.9H153.862ZM111.262 73.38C125.542 66.96 134.002 53.64 135.202 41.1H114.502V38.7H138.562C137.062 55.98 127.102 68.58 113.722 75.24L111.262 73.38Z" fill="black"/>
<rect x="0.5" y="0.5" width="90" height="120" fill="white"/>
<rect x="0.5" y="0.5" width="90" height="120" stroke="black"/>
<path d="M66.2925 45.563V59.738H63.1425V30.38H66.2925V42.917H75.1125V45.563H66.2925ZM68.0565 85.19H29.7525V72.905H63.3315V65.912H29.7525V63.392H66.4815V75.425H32.9025V82.67H68.0565V85.19ZM39.0765 36.68V37.877C39.0765 48.713 49.8495 54.005 54.4485 55.643L52.3695 58.1C47.3925 55.706 39.9585 51.17 37.5015 44.681C35.6115 51.989 25.5315 58.1 21.3105 59.549L19.2945 57.281C28.1775 53.816 35.9265 47.201 35.9265 37.877V36.68H22.5705V34.16H52.1805V36.68H39.0765Z" fill="black"/>
</svg>
