<svg width="361" height="121" viewBox="0 0 361 121" fill="none" xmlns="http://www.w3.org/2000/svg">
<rect x="90.5" y="0.5" width="90" height="120" fill="white"/>
<rect x="90.5" y="0.5" width="90" height="120" stroke="black"/>
<path d="M152.902 32.1H155.902V84.9H152.902V32.1ZM117.202 53.64V70.8H136.402V53.64H117.202ZM114.202 37.5H117.202V51.24H136.402V37.5H139.402V73.2H114.202V37.5Z" fill="black"/>
<rect x="180.5" y="0.5" width="90" height="120" fill="white"/>
<rect x="180.5" y="0.5" width="90" height="120" stroke="black"/>
<path d="M248.122 84.3H210.502V72.42H243.322V65.82H210.502V63.42H246.322V74.82H213.502V81.9H248.122V84.3ZM243.502 32.1H246.502V60.06H243.502V32.1ZM206.902 38.1V54.3L225.442 54.36V38.1H206.902ZM203.902 35.7H228.442V56.76L203.902 56.7V35.7Z" fill="black"/>
<rect x="270.5" y="0.5" width="90" height="120" fill="white"/>
<rect x="270.5" y="0.5" width="90" height="120" stroke="black"/>
<path d="M336.022 84.3H296.602V72.78H331.402V66.66H296.602V64.26H334.402V75.18H299.602V81.9H336.022V84.3ZM341.902 56.58V58.98H289.102V56.58H341.902ZM335.182 41.28C335.182 46.5 328.042 50.7 315.502 50.7C303.022 50.7 295.822 46.5 295.822 41.28C295.822 36.06 303.022 31.92 315.502 31.92C328.042 31.92 335.182 36.42 335.182 41.28ZM332.062 41.28C332.062 37.14 324.922 34.32 315.502 34.32C305.962 34.32 298.942 37.14 298.942 41.28C298.942 45.3 305.962 48.24 315.502 48.24C324.922 48.24 332.062 45.3 332.062 41.28Z" fill="black"/>
<rect x="0.5" y="0.5" width="90" height="120" fill="white"/>
<rect x="0.5" y="0.5" width="90" height="120" stroke="black"/>
<path d="M51.5023 33.3H54.5023V52.38H64.1023V32.1H67.1023V84.9H64.1023V54.9H54.5023V82.5H51.5023V33.3ZM48.5023 70.2C46.4023 70.5 39.5023 71.4 32.8423 71.4H24.5023V37.5H27.5023V69H33.0223C39.0823 69 46.0423 68.22 48.5023 67.86V70.2Z" fill="black"/>
</svg>
