<svg width="349" height="121" viewBox="0 0 349 121" fill="none" xmlns="http://www.w3.org/2000/svg">
<rect x="90.5" y="0.5" width="86" height="120" fill="white"/>
<rect x="90.5" y="0.5" width="86" height="120" stroke="black"/>
<path d="M122.342 55.98C117.122 55.98 113.702 59.76 113.702 64.68C113.702 69.6 117.122 73.2 122.342 73.2C127.622 73.2 130.982 69.6 130.982 64.68C130.982 59.76 127.622 55.98 122.342 55.98ZM122.342 53.52C129.002 53.52 134.042 58.32 134.042 64.68C134.042 71.04 129.002 75.84 122.342 75.84C115.682 75.84 110.642 71.04 110.642 64.68C110.642 58.32 115.682 53.52 122.342 53.52ZM108.842 45.96H135.842V48.36H108.842V45.96ZM115.142 37.26H129.542V39.66H115.142V37.26ZM152.702 55.26V32.1H155.702V84.9H152.702V57.66H143.702V82.5H140.702V33.3H143.702V55.26H152.702Z" fill="black"/>
<rect x="176.5" y="0.5" width="86" height="120" fill="white"/>
<rect x="176.5" y="0.5" width="86" height="120" stroke="black"/>
<path d="M221.002 64.38H238.402V75.24H203.602V81.9H239.902V84.3H200.602V72.84H235.402V66.78H200.602V64.38H218.002V57.42H193.102V55.02H245.902V57.42H221.002V64.38ZM217.942 36.48H200.122V34.14H238.522V36.48H220.822C221.002 43.2 235.522 49.02 241.762 50.16L239.842 52.26C230.422 50.16 222.142 45.6 219.382 40.56C214.762 48 201.982 51.84 199.042 52.32L197.122 50.1C203.722 49.08 218.062 42.6 217.942 36.48Z" fill="black"/>
<rect x="262.5" y="0.5" width="86" height="120" fill="white"/>
<rect x="262.5" y="0.5" width="86" height="120" stroke="black"/>
<path d="M313.002 54V33.48H316.002V82.5H313.002V56.76H304.002V54H313.002ZM324.402 32.1H327.402V84.9H324.402V32.1ZM301.722 41.7H284.862V39.3H305.082C304.422 57.24 294.462 69.06 284.082 75.36L281.442 73.5C292.482 67.02 301.002 56.46 301.722 41.7Z" fill="black"/>
<rect x="0.5" y="0.5" width="90" height="120" fill="white"/>
<rect x="0.5" y="0.5" width="90" height="120" stroke="black"/>
<path d="M25.3425 36.68V53.69L44.8095 53.753V36.68H25.3425ZM22.1925 34.16H47.9595V56.273L22.1925 56.21V34.16ZM64.7175 46.193V59.738H61.5675V30.38H64.7175V43.547H73.5375V46.193H64.7175ZM66.6075 85.19H28.8075V72.842H61.5675V65.849H28.8075V63.329H64.7175V75.362H31.9575V82.67H66.6075V85.19Z" fill="black"/>
</svg>
