<svg width="181" height="121" viewBox="0 0 181 121" fill="none" xmlns="http://www.w3.org/2000/svg">
<rect x="0.5" y="0.5" width="90" height="120" fill="white"/>
<rect x="0.5" y="0.5" width="90" height="120" stroke="black"/>
<path d="M23.7675 55.076C23.7675 64.715 27.4845 72.464 34.4145 72.464C41.3445 72.464 44.9355 64.652 44.9355 55.076C44.9355 45.626 41.3445 37.814 34.4145 37.814C27.4845 37.814 23.7675 45.563 23.7675 55.076ZM20.4915 55.139C20.4915 42.917 25.9725 34.916 34.3515 34.916C42.7935 34.916 48.2115 42.917 48.2115 55.139C48.2115 67.298 42.7935 75.362 34.3515 75.362C25.9725 75.362 20.4915 67.298 20.4915 55.139ZM64.7805 57.029V85.82H61.6305V30.38H64.7805V54.509H74.4825V57.029H64.7805Z" fill="black"/>
<rect x="90.5" y="0.5" width="90" height="120" fill="white"/>
<rect x="90.5" y="0.5" width="90" height="120" stroke="black"/>
<path d="M137.077 37.058C138.085 44.177 146.653 51.17 159.127 54.194L157.111 56.336C149.362 54.131 139.723 49.532 135.502 41.216C131.911 48.839 121.831 54.383 113.893 56.336L111.877 54.194C126.493 50.981 133.927 41.531 133.927 37.058V36.113H115.216V33.593H155.788V36.113H137.077V37.058ZM163.222 64.715H137.077V85.82H133.927V64.715H107.782V62.195H163.222V64.715Z" fill="black"/>
</svg>
