<svg width="271" height="121" viewBox="0 0 271 121" fill="none" xmlns="http://www.w3.org/2000/svg">
<rect x="90.5" y="0.5" width="90" height="120" fill="white"/>
<rect x="90.5" y="0.5" width="90" height="120" stroke="black"/>
<path d="M116.602 69.36H119.602V81.3H156.202V83.7H116.602V69.36ZM137.602 62.34V75.72H134.602V62.34H109.102V59.94H161.902V62.34H137.602ZM135.502 39.66C132.382 47.58 121.162 53.1 114.622 54.6L112.702 52.56C122.662 50.4 133.822 43.08 133.822 35.4V33.06H137.182V35.4C137.182 43.08 150.382 51.3 158.302 52.56L156.382 54.6C149.302 52.98 139.522 47.58 135.502 39.66Z" fill="black"/>
<rect x="180.5" y="0.5" width="90" height="120" fill="white"/>
<rect x="180.5" y="0.5" width="90" height="120" stroke="black"/>
<path d="M214.342 55.98C209.122 55.98 205.702 59.76 205.702 64.68C205.702 69.6 209.122 73.2 214.342 73.2C219.622 73.2 222.982 69.6 222.982 64.68C222.982 59.76 219.622 55.98 214.342 55.98ZM214.342 53.52C221.002 53.52 226.042 58.32 226.042 64.68C226.042 71.04 221.002 75.84 214.342 75.84C207.682 75.84 202.642 71.04 202.642 64.68C202.642 58.32 207.682 53.52 214.342 53.52ZM200.842 45.96H227.842V48.36H200.842V45.96ZM207.142 37.26H221.542V39.66H207.142V37.26ZM244.702 55.26V32.1H247.702V84.9H244.702V57.66H235.702V82.5H232.702V33.3H235.702V55.26H244.702Z" fill="black"/>
<rect x="0.5" y="0.5" width="90" height="120" fill="white"/>
<rect x="0.5" y="0.5" width="90" height="120" stroke="black"/>
<path d="M28.4925 66.92H31.6425V82.04H66.9225V84.56H28.4925V66.92ZM61.8825 30.38H65.0325V45.563H73.7895V48.083H65.0325V70.7H61.8825V30.38ZM58.2285 57.659C54.4485 58.226 40.2735 59.423 31.9575 59.423H22.1295V34.853H49.8495V37.373H25.2795V56.903H32.1465C41.3445 56.903 54.4485 55.832 58.2285 55.139V57.659Z" fill="black"/>
</svg>
