<svg width="1087" height="333" viewBox="0 0 1087 333" fill="none" xmlns="http://www.w3.org/2000/svg">
<rect width="636" height="110" transform="translate(225 222)" fill="white"/>
<path d="M295.977 248.6H298.977V301.4H295.977V248.6ZM258.477 272.12C258.477 281.3 262.017 288.68 268.617 288.68C275.217 288.68 278.637 281.24 278.637 272.12C278.637 263.12 275.217 255.68 268.617 255.68C262.017 255.68 258.477 263.06 258.477 272.12ZM255.357 272.18C255.357 260.54 260.577 252.92 268.557 252.92C276.597 252.92 281.757 260.54 281.757 272.18C281.757 283.76 276.597 291.44 268.557 291.44C260.577 291.44 255.357 283.76 255.357 272.18ZM348.172 272C344.872 272.72 337.672 273.68 323.152 273.68H314.392V261.2H336.172V253.7H314.392V251.3H339.172V263.6H317.392V271.28H322.252C337.792 271.28 344.212 270.38 348.172 269.66V272ZM354.172 259.64V248.6H357.172V277.88H354.172V262.04H342.772V259.64H354.172ZM338.332 291.2C329.812 291.2 323.992 293.12 323.992 295.76C323.992 298.28 329.812 300.08 338.332 300.08C346.732 300.08 352.672 298.28 352.672 295.76C352.672 293.12 346.732 291.2 338.332 291.2ZM338.332 289.1C349.792 289.1 356.032 291.86 356.032 295.7C356.032 299.6 349.792 302.3 338.332 302.3C326.932 302.3 320.632 299.6 320.632 295.7C320.632 291.86 326.932 289.1 338.332 289.1ZM317.272 283.58H359.092V285.98H317.272V283.58ZM328.252 277.28H347.812V279.68H328.252V277.28ZM401.868 270.5V249.98H404.868V299H401.868V273.26H392.868V270.5H401.868ZM413.268 248.6H416.268V301.4H413.268V248.6ZM390.588 258.2H373.728V255.8H393.948C393.288 273.74 383.328 285.56 372.948 291.86L370.308 290C381.348 283.52 389.868 272.96 390.588 258.2ZM460.639 298.4H492.439V286.28H460.639V298.4ZM457.639 300.8V283.88H495.439V300.8H457.639ZM478.039 253.4C478.039 259.58 490.519 266.96 498.859 268.4L496.759 270.56C489.559 268.88 479.959 263.18 476.539 257.72C473.659 262.4 466.939 267.74 456.139 270.5L454.039 268.34C462.739 266.84 474.979 260.06 474.979 253.4H457.279V251H495.739V253.4H478.039ZM478.039 275.18H502.939V277.58H450.139V275.18H475.039V266.18H478.039V275.18ZM544.911 284H547.911V297.8H582.411V300.2H544.911V284ZM577.911 262.46V248.6H580.911V287H577.911V264.86H565.311V262.46H577.911ZM552.951 254.78V257.48C552.951 268.22 562.671 274.46 567.771 276.74L565.911 278.96C564.591 278.48 554.631 273.56 551.451 264.68C548.631 273.68 537.771 279.5 536.151 280.22L534.051 278.18C541.911 274.82 549.951 267.2 549.951 257.48V254.78H537.351V252.38H565.731V254.78H552.951ZM605.747 272.48C600.527 272.48 597.107 276.26 597.107 281.18C597.107 286.1 600.527 289.7 605.747 289.7C611.027 289.7 614.387 286.1 614.387 281.18C614.387 276.26 611.027 272.48 605.747 272.48ZM605.747 270.02C612.407 270.02 617.447 274.82 617.447 281.18C617.447 287.54 612.407 292.34 605.747 292.34C599.087 292.34 594.047 287.54 594.047 281.18C594.047 274.82 599.087 270.02 605.747 270.02ZM592.247 262.46H619.247V264.86H592.247V262.46ZM598.547 253.76H612.947V256.16H598.547V253.76ZM636.107 271.76V248.6H639.107V301.4H636.107V274.16H627.107V299H624.107V249.8H627.107V271.76H636.107ZM676.602 254.96C677.562 261.74 685.722 268.4 697.602 271.28L695.682 273.32C688.302 271.22 679.122 266.84 675.102 258.92C671.682 266.18 662.082 271.46 654.522 273.32L652.602 271.28C666.522 268.22 673.602 259.22 673.602 254.96V254.06H655.782V251.66H694.422V254.06H676.602V254.96ZM701.502 281.3H676.602V301.4H673.602V281.3H648.702V278.9H701.502V281.3ZM736.777 288.44L734.617 290.12C729.757 286.76 723.757 279.44 722.257 272C721.057 279.02 715.117 287 709.237 291.56L706.777 290C712.117 286.34 720.757 276.8 720.757 263.78V252.8H723.757V263.78C723.757 276.56 731.797 284.84 736.777 288.44ZM752.797 248.6H755.797V301.4H752.797V248.6ZM741.937 249.8H744.937V299H741.937V270.32H731.197V267.92H741.937V249.8ZM811.353 264.74C811.353 272.12 803.553 277.7 791.493 277.7C779.373 277.7 771.633 272.12 771.633 264.74C771.633 257.48 779.373 251.78 791.493 251.78C803.553 251.78 811.353 257.54 811.353 264.74ZM817.893 294.2H765.093V291.8H780.033V278.78H783.033V291.8H799.893V278.78H802.893V291.8H817.893V294.2ZM808.113 264.74C808.113 258.5 800.493 254.42 791.493 254.42C782.493 254.42 774.873 258.5 774.873 264.74C774.873 271.16 782.493 275.06 791.493 275.06C800.673 275.06 808.113 271.16 808.113 264.74ZM829.768 293.6V298.94H824.368V293.6H829.768Z" fill="black"/>
<rect width="1084" height="110" transform="translate(1 112)" fill="white"/>
<path d="M63.9415 178.02L61.8415 180.18C59.8615 178.98 48.8815 171.9 45.8215 160.38C43.6615 171.9 32.4415 180 29.9215 181.32L27.5215 179.28C32.9215 176.4 44.3215 168.48 44.3215 151.56V141.9H47.3215V151.56C47.3215 168.72 61.0015 176.34 63.9415 178.02ZM81.2215 162.6H72.8215V191.4H69.8215V138.6H72.8215V160.2H81.2215V162.6ZM135.277 190.8H98.6168V178.86H131.077V171.96H98.3768V169.56H134.077V181.26H101.617V188.4H135.277V190.8ZM131.017 138.6H134.017V166.56H131.017V138.6ZM105.997 143.16C105.997 154.92 119.617 161.7 122.017 162.6L120.097 164.82C118.297 164.16 108.577 159.12 104.497 149.82C101.197 159.42 90.7568 165.18 88.9568 166.08L86.6168 164.16C90.7568 162.48 102.997 154.56 102.997 143.16V140.16H105.997V143.16ZM211.689 156V138.6H214.689V191.4H211.689V158.4H193.689V156H211.689ZM206.409 175.26C202.749 175.92 191.589 177.54 181.689 177.54H173.409V143.64H176.409V175.14H183.129C190.629 175.14 202.689 173.7 206.409 172.86V175.26ZM255.461 162.12C255.461 171.3 259.001 178.68 265.601 178.68C272.201 178.68 275.621 171.24 275.621 162.12C275.621 153.12 272.201 145.68 265.601 145.68C259.001 145.68 255.461 153.06 255.461 162.12ZM252.341 162.18C252.341 150.54 257.561 142.92 265.541 142.92C273.581 142.92 278.741 150.54 278.741 162.18C278.741 173.76 273.581 181.44 265.541 181.44C257.561 181.44 252.341 173.76 252.341 162.18ZM294.521 163.98V191.4H291.521V138.6H294.521V161.58H303.761V163.98H294.521ZM351.756 138.6H354.756V191.4H351.756V138.6ZM348.096 175.5C344.436 176.16 333.276 177.54 323.376 177.54H313.776V143.64H316.776V175.14H324.816C332.316 175.14 344.376 173.94 348.096 173.1V175.5ZM383.011 143.28C375.931 143.28 372.031 147.72 372.031 153.24C372.031 158.76 375.931 163.2 383.011 163.2C390.151 163.2 393.991 158.76 393.991 153.24C393.991 147.72 390.151 143.28 383.011 143.28ZM397.231 151.8H410.551V138.6H413.551V169.5H410.551V154.2H397.231C396.751 160.8 390.991 166.02 383.011 166.02C374.671 166.02 368.731 160.32 368.731 153.24C368.731 146.16 374.671 140.46 383.011 140.46C390.751 140.46 396.451 145.38 397.231 151.8ZM395.731 191.4C390.991 188.82 387.031 182.82 385.591 178.92C384.691 182.88 380.371 188.76 375.631 191.34L373.591 189.48C380.491 185.7 384.091 179.16 384.091 172.14H387.091C387.091 179.16 391.351 185.1 395.671 188.34C399.991 185.1 404.311 179.16 404.311 172.14H407.311C407.311 179.16 410.971 185.64 417.871 189.42L415.831 191.28C411.091 188.7 406.711 182.88 405.811 178.92C404.371 182.82 400.471 188.58 395.731 191.4ZM477.146 180.12V182.52H424.346V180.12H477.146ZM450.746 142.86C462.206 142.86 470.126 148.74 470.126 156.18C470.126 163.62 462.206 169.5 450.746 169.5C439.526 169.5 431.366 163.62 431.366 156.18C431.366 148.8 439.406 142.86 450.746 142.86ZM450.746 145.68C442.106 145.68 434.666 149.7 434.666 156.18C434.666 162.42 442.046 166.68 450.746 166.68C459.266 166.68 466.826 162.48 466.826 156.18C466.826 149.82 459.266 145.68 450.746 145.68ZM490.342 144.9V165.3H508.942V144.9H490.342ZM493.942 174.54H496.942V187.8H531.382V190.2H493.942V174.54ZM526.942 148.08V138.6H529.942V177H526.942V160.74H511.942V167.7H487.342V142.5H511.942V148.08H526.942ZM526.942 158.34V150.48H511.942V158.34H526.942ZM597.114 139.8H600.114V158.88H609.714V138.6H612.714V191.4H609.714V161.4H600.114V189H597.114V139.8ZM594.114 176.7C592.014 177 585.114 177.9 578.454 177.9H570.114V144H573.114V175.5H578.634C584.694 175.5 591.654 174.72 594.114 174.36V176.7ZM691.886 138.6H694.886V177H691.886V138.6ZM658.886 174H661.886V187.8H696.386V190.2H658.886V174ZM663.926 143.34C656.906 143.34 652.946 147.96 652.946 153.84C652.946 159.72 656.906 164.34 663.926 164.34C671.006 164.34 674.906 159.72 674.906 153.84C674.906 147.96 671.006 143.34 663.926 143.34ZM663.926 140.52C672.266 140.52 678.206 146.46 678.206 153.84C678.206 161.22 672.266 167.16 663.926 167.16C655.586 167.16 649.646 161.22 649.646 153.84C649.646 146.46 655.586 140.52 663.926 140.52ZM735.801 174.48C726.141 174.48 719.241 177.54 719.241 182.46C719.241 187.26 726.141 190.32 735.801 190.32C745.341 190.32 752.361 187.26 752.361 182.46C752.361 177.54 745.341 174.48 735.801 174.48ZM735.801 172.14C748.521 172.14 755.541 176.46 755.541 182.4C755.541 188.34 748.521 192.6 735.801 192.6C723.141 192.6 716.061 188.34 716.061 182.4C716.061 176.46 723.141 172.14 735.801 172.14ZM751.581 152.76V138.6H754.581V170.88H751.581V155.16H742.581V169.68H739.581V139.5H742.581V152.76H751.581ZM721.581 153.36C718.701 162.72 710.061 168.6 708.141 169.62L706.041 167.76C710.901 165.42 720.081 156.78 720.081 146.16V140.4H723.081V146.16C723.081 157.08 731.481 163.32 736.581 165.72L734.721 168C731.781 166.5 723.921 160.86 721.581 153.36ZM813.653 174.66C803.813 174.66 796.673 177.48 796.673 182.34C796.673 187.08 803.813 189.96 813.653 189.96C823.373 189.96 830.633 187.08 830.633 182.34C830.633 177.48 823.373 174.66 813.653 174.66ZM813.653 172.08C826.433 172.08 833.753 176.4 833.753 182.34C833.753 188.28 826.433 192.6 813.653 192.6C800.933 192.6 793.553 188.28 793.553 182.34C793.553 176.4 800.933 172.08 813.653 172.08ZM811.853 164.04H840.053V166.44H787.253V164.04H808.853V151.8H811.853V164.04ZM827.453 160.02C828.473 155.22 829.793 148.92 830.273 143.64H793.853V141.24H833.693C832.733 149.34 831.473 155.7 830.453 160.02H827.453ZM878.988 162.36H890.448V138.6H893.448V191.4H890.448V164.76H878.988V162.36ZM864.588 162C858.168 162 854.448 166.32 854.448 171.42C854.448 176.52 858.168 180.78 864.588 180.78C871.068 180.78 874.788 176.52 874.788 171.42C874.788 166.32 871.068 162 864.588 162ZM864.588 159.54C872.388 159.54 877.908 164.94 877.908 171.42C877.908 177.9 872.388 183.3 864.588 183.3C856.788 183.3 851.268 177.9 851.268 171.42C851.268 164.94 856.788 159.54 864.588 159.54ZM848.148 151.74H881.088V154.14H848.148V151.74ZM856.128 142.2H873.048V144.6H856.128V142.2ZM949.843 153.06V138.6H952.843V169.8H949.843V155.46H940.843V169.8H937.843V139.5H940.843V153.06H949.843ZM934.243 190.74C929.983 188.52 925.783 184.26 924.103 180.12C922.183 184.14 918.643 188.04 913.963 190.74L911.803 189.06C917.023 186.3 922.543 180.66 922.543 174.84V173.52H925.543V174.84C925.543 180.66 931.243 186.18 934.243 187.62C937.003 186 942.703 180.66 942.703 174.84V173.52H945.703V174.84C945.703 180.66 951.223 186.24 956.443 189L954.283 190.68C950.083 188.16 945.883 184.2 944.083 180C942.643 184.02 937.963 188.46 934.243 190.74ZM919.783 155.16C914.443 155.16 911.443 158.04 911.443 161.4C911.443 164.76 914.443 167.52 919.783 167.52C925.243 167.52 928.183 164.76 928.183 161.4C928.183 158.04 925.243 155.16 919.783 155.16ZM919.783 152.76C926.983 152.76 931.363 156.66 931.363 161.4C931.363 166.14 926.983 169.86 919.783 169.86C912.643 169.86 908.203 166.14 908.203 161.4C908.203 156.66 912.643 152.76 919.783 152.76ZM906.643 147.18H933.163V149.58H906.643V147.18ZM913.063 140.28H926.383V142.68H913.063V140.28ZM1002.34 138.6H1005.34V160.44H1014.34V162.84H1005.34V191.4H1002.34V138.6ZM998.739 177C995.139 177.54 983.619 178.68 975.699 178.68H966.339V145.38H992.139V147.78H969.339V176.28H975.879C984.639 176.28 995.139 175.26 998.739 174.6V177ZM1026.51 183.6V188.94H1021.11V183.6H1026.51ZM1054.33 141.72C1054.33 143.1 1054.15 144.78 1053.43 145.86C1052.71 147 1051.57 147.78 1050.49 148.38L1049.23 147C1049.89 146.76 1051.03 145.98 1051.57 145.2C1052.17 144.3 1052.17 143.28 1052.17 142.44H1049.05V137.34H1054.33V141.72ZM1046.65 141.72C1046.65 143.1 1046.47 144.78 1045.75 145.86C1045.03 147 1043.89 147.78 1042.81 148.38L1041.55 147C1042.21 146.76 1043.35 145.98 1043.89 145.2C1044.49 144.3 1044.49 143.28 1044.49 142.44H1041.37V137.34H1046.65V141.72Z" fill="black"/>
<rect width="869" height="110" transform="translate(108 2)" fill="white"/>
<path d="M139.13 33.58C139.13 32.2 139.31 30.52 140.03 29.44C140.75 28.3 141.89 27.52 142.97 26.92L144.23 28.3C143.57 28.54 142.43 29.32 141.89 30.1C141.29 31 141.29 32.02 141.29 32.86H144.41V37.96H139.13V33.58ZM146.81 33.58C146.81 32.2 146.99 30.52 147.71 29.44C148.43 28.3 149.57 27.52 150.65 26.92L151.91 28.3C151.25 28.54 150.11 29.32 149.57 30.1C148.97 31 148.97 32.02 148.97 32.86H152.09V37.96H146.81V33.58ZM203.28 28.6H206.28V49.3H214.68V51.7H206.28V81.4H203.28V28.6ZM199.68 65.38C196.02 66.04 184.86 67.66 174.96 67.66H166.68V33.76H169.68V65.26H176.4C183.9 65.26 195.96 63.82 199.68 62.98V65.38ZM288.152 46V28.6H291.152V81.4H288.152V48.4H270.152V46H288.152ZM282.872 65.26C279.212 65.92 268.052 67.54 258.152 67.54H249.872V33.64H252.872V65.14H259.592C267.092 65.14 279.152 63.7 282.872 62.86V65.26ZM360.123 29.92H363.123V50.44H370.923V28.6H373.923V81.4H370.923V52.84H363.123V79H360.123V29.92ZM343.923 35.56H355.383V37.96H346.923V66.7H348.363C349.623 66.7 354.423 66.16 357.123 65.74V68.14C355.023 68.56 349.623 69.1 345.783 69.1H343.923V35.56ZM342.123 68.38C340.323 68.68 334.983 69.1 332.703 69.1H330.783V35.56H340.923V37.96H333.783V66.7H335.463C336.663 66.7 340.923 66.22 342.123 66.04V68.38ZM394.919 47.32H426.719V33.4H394.919V47.32ZM391.919 49.72V31H429.719V49.72H391.919ZM391.919 65.86H394.919V77.8H431.819V80.2H391.919V65.86ZM412.919 60.04V72.4H409.919V60.04H384.419V57.64H437.219V60.04H412.919ZM465.594 52.9C465.594 43.9 462.294 36.52 456.894 36.52C451.434 36.52 448.194 43.78 448.194 52.9C448.194 62.14 451.434 69.22 456.894 69.22C462.294 69.22 465.594 62.02 465.594 52.9ZM490.614 81.4H487.614V28.6H490.614V81.4ZM468.654 50.2H477.294V29.8H480.294V79H477.294V52.72H468.774V52.9C468.774 64.54 463.854 71.98 456.894 71.98C450.054 71.98 445.014 64.54 445.014 52.9C445.014 41.2 450.054 33.82 456.894 33.82C463.314 33.82 467.994 40.06 468.654 50.2ZM548.126 70.72H577.586V73.12H524.786V70.72H545.126V51.04H548.126V70.72ZM562.886 64.36C564.986 54.88 566.126 45.76 566.606 37.96H531.686V35.56H569.846C569.126 46.72 568.106 53.38 565.826 64.36H562.886ZM613.701 64.48C604.041 64.48 597.141 67.54 597.141 72.46C597.141 77.26 604.041 80.32 613.701 80.32C623.241 80.32 630.261 77.26 630.261 72.46C630.261 67.54 623.241 64.48 613.701 64.48ZM613.701 62.14C626.421 62.14 633.441 66.46 633.441 72.4C633.441 78.34 626.421 82.6 613.701 82.6C601.041 82.6 593.961 78.34 593.961 72.4C593.961 66.46 601.041 62.14 613.701 62.14ZM629.481 42.76V28.6H632.481V60.88H629.481V45.16H620.481V59.68H617.481V29.5H620.481V42.76H629.481ZM599.481 43.36C596.601 52.72 587.961 58.6 586.041 59.62L583.941 57.76C588.801 55.42 597.981 46.78 597.981 36.16V30.4H600.981V36.16C600.981 47.08 609.381 53.32 614.481 55.72L612.621 58C609.681 56.5 601.821 50.86 599.481 43.36ZM687.977 50.56V28.6H690.977V81.4H687.977V53.2H680.177V79H677.177V29.8H680.177V50.56H687.977ZM671.897 36.22C671.777 47.2 665.897 63.34 656.897 72.82L654.497 71.62C663.137 62.56 668.657 47.92 668.837 38.62H661.037V36.22H671.897ZM659.477 36.16C659.357 47.14 654.317 59.8 645.317 69.28L642.917 68.08C651.557 59.02 656.237 47.86 656.417 38.56H646.337V36.16H659.477ZM740.772 28.6H743.772V49.3H752.172V51.7H743.772V81.4H740.772V28.6ZM737.172 65.38C733.512 66.04 722.352 67.66 712.452 67.66H704.172V33.76H707.172V65.26H713.892C721.392 65.26 733.452 63.82 737.172 62.98V65.38ZM827.744 43.06V28.6H830.744V59.8H827.744V45.46H818.744V59.8H815.744V29.5H818.744V43.06H827.744ZM812.144 80.74C807.884 78.52 803.684 74.26 802.004 70.12C800.084 74.14 796.544 78.04 791.864 80.74L789.704 79.06C794.924 76.3 800.444 70.66 800.444 64.84V63.52H803.444V64.84C803.444 70.66 809.144 76.18 812.144 77.62C814.904 76 820.604 70.66 820.604 64.84V63.52H823.604V64.84C823.604 70.66 829.124 76.24 834.344 79L832.184 80.68C827.984 78.16 823.784 74.2 821.984 70C820.544 74.02 815.864 78.46 812.144 80.74ZM797.684 45.16C792.344 45.16 789.344 48.04 789.344 51.4C789.344 54.76 792.344 57.52 797.684 57.52C803.144 57.52 806.084 54.76 806.084 51.4C806.084 48.04 803.144 45.16 797.684 45.16ZM797.684 42.76C804.884 42.76 809.264 46.66 809.264 51.4C809.264 56.14 804.884 59.86 797.684 59.86C790.544 59.86 786.104 56.14 786.104 51.4C786.104 46.66 790.544 42.76 797.684 42.76ZM784.544 37.18H811.064V39.58H784.544V37.18ZM790.964 30.28H804.284V32.68H790.964V30.28ZM885.339 28.6H888.339V81.4H885.339V28.6ZM857.919 37.3H844.419V34.9H874.839V37.3H860.919V43.12C860.919 58.78 872.979 66.7 875.619 68.08L873.759 70.48C872.019 69.46 861.699 62.38 859.419 51.16C857.319 62.2 846.519 70.3 843.819 71.92L841.539 69.88C847.719 67 857.919 56.8 857.919 43.12V37.3ZM905.134 34.9V54.88H923.674V34.9H905.134ZM902.134 32.5H926.674V57.28H902.134V32.5ZM908.434 64H911.434V77.8H945.034V80.2H908.434V64ZM942.634 47.44V67H939.634V28.6H942.634V44.92H951.034V47.44H942.634Z" fill="black"/>
<mask id="path-4-outside-1_269_112" maskUnits="userSpaceOnUse" x="0" y="0" width="1087" height="333" fill="black">
<rect fill="white" width="1087" height="333"/>
<path d="M979 111H1086V222H862V332H225V222H1V111H109V1H979V111Z"/>
</mask>
<path d="M979 111H978V112H979V111ZM1086 111H1087V110H1086V111ZM1086 222V223H1087V222H1086ZM862 222V221H861V222H862ZM862 332V333H863V332H862ZM225 332H224V333H225V332ZM225 222H226V221H225V222ZM1 222H0V223H1V222ZM1 111V110H0V111H1ZM109 111V112H110V111H109ZM109 1V0H108V1H109ZM979 1H980V0H979V1ZM979 111V112H1086V111V110H979V111ZM1086 111H1085V222H1086H1087V111H1086ZM1086 222V221H862V222V223H1086V222ZM862 222H861V332H862H863V222H862ZM862 332V331H225V332V333H862V332ZM225 332H226V222H225H224V332H225ZM225 222V221H1V222V223H225V222ZM1 222H2V111H1H0V222H1ZM1 111V112H109V111V110H1V111ZM109 111H110V1H109H108V111H109ZM109 1V2H979V1V0H109V1ZM979 1H978V111H979H980V1H979Z" fill="black" mask="url(#path-4-outside-1_269_112)"/>
</svg>
