<svg width="451" height="181" viewBox="0 0 451 181" fill="none" xmlns="http://www.w3.org/2000/svg">
<rect x="0.5" y="30.5" width="90" height="120" fill="#00B7AB"/>
<rect x="0.5" y="30.5" width="90" height="120" stroke="black"/>
<path d="M58.8188 67.38V83.64H53.8988V69.12H31.7588V64.68H56.1188C57.8588 64.68 58.8188 65.64 58.8188 67.38ZM45.7988 76.98V90.36H69.2588V94.8H21.7388V90.36H40.8788V76.98H45.7988ZM45.5588 123.78C38.4188 123.78 33.3788 119.04 33.3788 112.26C33.3788 105.48 38.4188 100.74 45.5588 100.74H56.5988V105.18H45.5588C41.4188 105.18 38.2988 108.12 38.2988 112.26C38.2988 116.4 41.4188 119.34 45.5588 119.34C49.6988 119.34 52.8188 116.4 52.8188 112.26C52.8188 110.64 52.3988 109.56 51.7388 108.42H56.7188C57.3788 109.44 57.7388 110.7 57.7388 112.26C57.7388 119.04 52.6988 123.78 45.5588 123.78Z" fill="white"/>
<rect x="90.5" y="30.5" width="90" height="120" fill="#00B7AB"/>
<rect x="90.5" y="30.5" width="90" height="120" stroke="black"/>
<path d="M164.668 90.36V94.8C159.028 94.44 155.608 90.48 155.608 82.8V76.92H146.188V72.48H155.608V57.24H160.528V81.84C160.528 86.58 161.848 89.64 164.668 90.36ZM127.948 94.8H106.348V90.36H127.948C131.788 90.36 134.488 87.54 134.488 83.64C134.488 79.74 131.788 76.92 127.948 76.92C124.108 76.92 121.408 79.74 121.408 83.64C121.408 84.9 121.708 86.04 122.188 87H117.388C116.848 86.16 116.488 84.96 116.488 83.64C116.488 81 117.388 78.66 118.948 76.92H112.288V72.48H125.608V63.3H130.528V72.48H143.608V76.92H136.948C138.508 78.66 139.408 81 139.408 83.64C139.408 90.12 134.608 94.8 127.948 94.8Z" fill="white"/>
<rect x="180.5" y="0.5" width="90" height="120" fill="#00B7AB"/>
<rect x="180.5" y="0.5" width="90" height="120" stroke="black"/>
<path d="M246.02 52.8V45.72H239.18V64.8H234.38V27.6H239.18V41.28H246.02V27.24H250.82V51.84C250.82 57.24 252.32 59.64 255.56 60.36V64.8C249.56 64.44 246.02 60.48 246.02 52.8ZM215.96 64.8H195.44V60.36H215.96C219.5 60.36 222.02 57.66 222.02 53.88C222.02 50.1 219.5 47.4 215.96 47.4C212.48 47.4 209.96 50.1 209.96 53.88C209.96 55.14 210.26 56.04 210.5 57H205.7C205.4 56.16 205.04 55.2 205.04 53.88C205.04 51.36 205.82 49.14 207.26 47.4H201.38V42.96H213.62V34.02H218.54V42.96H230.6V47.4H224.72C226.16 49.14 226.94 51.36 226.94 53.88C226.94 60.24 222.38 64.8 215.96 64.8ZM214.64 90.72V86.28C219.92 86.04 222.98 83.16 222.98 78.54V71.28H227.96V78.54C227.96 82.98 230 85.74 233.48 85.98C236.96 85.74 239 82.98 239 78.54V71.28H243.98V78.54C243.98 82.98 246.92 85.8 251.9 86.04V90.48C247.1 90.36 243.2 88.38 241.52 85.2C240.08 88.32 237.08 90.24 233.48 90.36C229.88 90.24 226.82 88.32 225.5 85.2C223.7 88.56 219.68 90.6 214.64 90.72Z" fill="white"/>
<rect x="270.5" y="30.5" width="90" height="120" fill="#00B7AB"/>
<rect x="270.5" y="30.5" width="90" height="120" stroke="black"/>
<path d="M344.668 90.36V94.8C338.668 94.44 335.008 90.48 335.008 82.8V75.42H320.968V70.98H335.008V57.24H339.928V81.84C339.928 86.58 341.428 89.64 344.668 90.36ZM304.348 94.8H286.348V90.36H304.348C308.548 90.36 311.608 87.24 311.608 82.92C311.608 78.6 308.548 75.48 304.348 75.48C300.148 75.48 297.088 78.6 297.088 82.92C297.088 84.6 297.448 85.92 298.228 87.12H293.248C292.528 85.98 292.168 84.54 292.168 82.92C292.168 76.02 297.328 71.04 304.348 71.04C311.368 71.04 316.528 76.02 316.528 82.92C316.528 89.82 311.368 94.8 304.348 94.8Z" fill="white"/>
<rect x="360.5" y="60.5" width="90" height="120" fill="#00B7AB"/>
<rect x="360.5" y="60.5" width="90" height="120" stroke="black"/>
<path d="M419.611 112.2V87.24L424.531 87.3V95.4H432.931V99.9H424.531V106.08H432.931V110.52H424.531V112.02C424.531 117.18 425.971 120.36 430.771 120.36H432.271V124.8H430.711C423.511 124.8 419.611 120.6 419.611 112.2ZM396.751 124.8H378.751V120.36H396.751C400.951 120.36 404.011 117.24 404.011 112.92C404.011 108.6 400.951 105.48 396.751 105.48C392.551 105.48 389.491 108.6 389.491 112.92C389.491 114.6 389.851 115.92 390.631 117.12H385.651C384.931 115.98 384.571 114.54 384.571 112.92C384.571 106.02 389.731 101.04 396.751 101.04C403.771 101.04 408.931 106.02 408.931 112.92C408.931 119.82 403.771 124.8 396.751 124.8Z" fill="white"/>
</svg>
