<svg width="181" height="151" viewBox="0 0 181 151" fill="none" xmlns="http://www.w3.org/2000/svg">
<rect x="0.5" y="0.5" width="90" height="120" fill="#00B7AB"/>
<rect x="0.5" y="0.5" width="90" height="120" stroke="black"/>
<path d="M71.3495 60.36V64.8C65.9495 64.44 61.6895 60.36 61.6895 50.64V27.24H66.6095V49.56C66.6095 56.28 68.4695 59.28 71.3495 60.36ZM37.6895 64.8H19.6295V60.36H37.6895C41.9495 60.36 45.0095 57.24 45.0095 52.92C45.0095 48.54 41.9495 45.42 37.6895 45.42C33.4895 45.42 30.4295 48.54 30.4295 52.92C30.4295 54.6 30.7895 55.92 31.5695 57.12H26.5895C25.8695 55.98 25.5095 54.54 25.5095 52.92C25.5095 45.96 30.6695 40.98 37.6895 40.98C44.7695 40.98 49.9295 45.96 49.9295 52.92C49.9295 59.82 44.7695 64.8 37.6895 64.8ZM46.2695 85.08V91.38H67.0295V95.82H44.0495C42.3095 95.82 41.3495 94.86 41.3495 93.12V80.7H60.9695V74.64H41.3495V70.2H63.1895C64.9295 70.2 65.8895 71.16 65.8895 72.9V85.08H46.2695Z" fill="white"/>
<rect x="90.5" y="30.5" width="90" height="120" fill="#00B7AB"/>
<rect x="90.5" y="30.5" width="90" height="120" stroke="black"/>
<path d="M164.668 90.36V94.8C158.668 94.44 155.128 90.48 155.128 82.8V57.24H159.928V81.84C159.928 87.24 161.428 89.64 164.668 90.36ZM144.268 72.24V57.6H149.068V94.8H144.268V76.68H135.748V72.24H144.268ZM114.028 94.8H106.348V90.36H114.028C121.528 90.36 125.908 87.72 127.228 82.5H113.368V78.18H127.648V71.76H112.768V67.32H132.628V78.06C132.628 89.16 126.388 94.8 114.028 94.8Z" fill="white"/>
</svg>
