<svg width="91" height="121" viewBox="0 0 91 121" fill="none" xmlns="http://www.w3.org/2000/svg">
<rect x="0.5" y="0.5" width="90" height="120" fill="#00B7AB"/>
<rect x="0.5" y="0.5" width="90" height="120" stroke="black"/>
<path d="M29.4788 51.66V47.22C38.0588 46.86 42.9788 43.08 42.9788 36.9V35.7H30.3788V31.26H60.4388V35.7H48.0788V36.9C48.0788 42.96 52.9388 46.74 61.3388 47.1V51.42C54.1388 51.18 48.3188 48.48 45.5588 44.16C42.7988 48.66 36.8588 51.42 29.4788 51.66ZM48.0788 51.3V60.36H69.2588V64.8H21.7388V60.36H43.1588V51.3H48.0788ZM54.9188 88.26V79.2H59.8388V92.64H33.8588C32.1188 92.64 31.1588 91.68 31.1588 89.94V71.52H59.8388V75.96H36.0788V88.26H54.9188Z" fill="white"/>
</svg>
