<svg width="451" height="181" viewBox="0 0 451 181" fill="none" xmlns="http://www.w3.org/2000/svg">
<rect x="0.5" y="30.5" width="90" height="120" fill="#00B7AB"/>
<rect x="0.5" y="30.5" width="90" height="120" stroke="black"/>
<path d="M75.253 90.36V94.8C69.253 94.44 65.593 90.48 65.593 82.8V75.18H53.893V70.74H65.593V57.24H70.513V81.84C70.513 86.58 72.013 89.64 75.253 90.36ZM21.013 94.8H15.733V90.36H20.413C29.173 90.36 34.213 86.04 34.213 78.48V75.18H22.513V70.74H50.653V75.18H39.313V78.48C39.313 85.74 44.053 90.06 52.153 90.24V94.56C45.253 94.56 39.673 91.68 36.793 86.7C33.973 91.86 28.213 94.8 21.013 94.8ZM48.673 101.4V115.98H70.033V120.42H46.453C44.713 120.42 43.753 119.46 43.753 117.72V101.4H48.673Z" fill="white"/>
<rect x="90.5" y="60.5" width="90" height="120" fill="#00B7AB"/>
<rect x="90.5" y="60.5" width="90" height="120" stroke="black"/>
<path d="M156.02 112.8V105.72H149.18V124.8H144.38V87.6H149.18V101.28H156.02V87.24H160.82V111.84C160.82 117.24 162.32 119.64 165.56 120.36V124.8C159.56 124.44 156.02 120.48 156.02 112.8ZM125.96 124.8H105.44V120.36H125.96C129.5 120.36 132.02 117.66 132.02 113.88C132.02 110.1 129.5 107.4 125.96 107.4C122.48 107.4 119.96 110.1 119.96 113.88C119.96 115.14 120.26 116.04 120.5 117H115.7C115.4 116.16 115.04 115.2 115.04 113.88C115.04 111.36 115.82 109.14 117.26 107.4H111.38V102.96H123.62V94.02H128.54V102.96H140.6V107.4H134.72C136.16 109.14 136.94 111.36 136.94 113.88C136.94 120.24 132.38 124.8 125.96 124.8Z" fill="white"/>
<rect x="180.5" y="30.5" width="90" height="120" fill="#00B7AB"/>
<rect x="180.5" y="30.5" width="90" height="120" stroke="black"/>
<path d="M209.479 85.02V80.58C218.059 80.1 222.979 75.72 222.979 68.52V67.5H210.379V63.06H240.439V67.5H228.079V68.52C228.079 75.6 232.939 79.98 241.339 80.46V84.78C234.019 84.42 228.259 81.54 225.559 76.86C222.799 81.72 216.979 84.66 209.479 85.02ZM249.259 90.36V94.8H227.959V111.6H223.039V94.8H201.739V90.36H249.259Z" fill="white"/>
<rect x="270.5" y="0.5" width="90" height="120" fill="#00B7AB"/>
<rect x="270.5" y="0.5" width="90" height="120" stroke="black"/>
<path d="M299.299 50.46V46.02C307.999 45.42 313.039 40.56 313.039 32.82V27.9H318.019V32.82C318.019 40.5 322.939 45.3 331.519 45.9V50.22C324.139 49.74 318.319 46.56 315.559 41.46C312.739 46.68 306.799 49.98 299.299 50.46ZM324.979 51.06V60.36H339.259V64.8H291.739V60.36H306.319V51.06H311.239V60.36H320.059V51.06H324.979Z" fill="white"/>
<rect x="360.5" y="0.5" width="90" height="120" fill="#00B7AB"/>
<rect x="360.5" y="0.5" width="90" height="120" stroke="black"/>
<path d="M431.349 60.36V64.8C425.949 64.44 421.689 60.36 421.689 50.64V27.24H426.609V49.56C426.609 56.28 428.469 59.28 431.349 60.36ZM397.689 64.8H379.629V60.36H397.689C401.949 60.36 405.009 57.24 405.009 52.92C405.009 48.54 401.949 45.42 397.689 45.42C393.489 45.42 390.429 48.54 390.429 52.92C390.429 54.6 390.789 55.92 391.569 57.12H386.589C385.869 55.98 385.509 54.54 385.509 52.92C385.509 45.96 390.669 40.98 397.689 40.98C404.769 40.98 409.929 45.96 409.929 52.92C409.929 59.82 404.769 64.8 397.689 64.8ZM414.309 92.88C407.109 92.88 401.949 88.08 401.949 81.36C401.949 74.64 407.109 69.84 414.309 69.84H425.409V74.28H414.309C409.989 74.28 406.869 77.22 406.869 81.36C406.869 85.5 409.989 88.44 414.309 88.44C418.629 88.44 421.749 85.5 421.749 81.36C421.749 79.86 421.329 78.42 420.669 77.52H425.589C426.189 78.48 426.669 79.62 426.669 81.36C426.669 88.08 421.509 92.88 414.309 92.88Z" fill="white"/>
</svg>
