<svg width="181" height="151" viewBox="0 0 181 151" fill="none" xmlns="http://www.w3.org/2000/svg">
<rect x="0.5" y="0.5" width="90" height="120" fill="#00B7AB"/>
<rect x="0.5" y="0.5" width="90" height="120" stroke="black"/>
<path d="M65.713 52.8V45.72H58.393V64.8H53.593V27.6H58.393V41.28H65.713V27.24H70.513V51.84C70.513 57.24 72.013 59.64 75.253 60.36V64.8C69.253 64.44 65.713 60.48 65.713 52.8ZM44.413 60.36H49.513V64.8H15.733V60.36H23.413C22.633 59.52 22.213 58.38 22.213 56.1V41.52H33.373V45.96H27.073V56.34C27.073 59.16 28.273 60.36 30.613 60.36H37.213C36.433 59.52 36.013 58.38 36.013 56.1V41.52H48.133V45.96H40.873V56.34C40.873 59.16 42.073 60.36 44.413 60.36ZM63.913 87.78V77.88H68.833V92.22H47.233C45.493 92.22 44.533 91.26 44.533 89.52V70.2H68.833V74.64H49.453V87.78H63.913Z" fill="white"/>
<rect x="90.5" y="30.5" width="90" height="120" fill="#00B7AB"/>
<rect x="90.5" y="30.5" width="90" height="120" stroke="black"/>
<path d="M159.566 90.36V94.8C154.166 94.44 149.906 90.36 149.906 80.64V57.24H154.826V79.56C154.826 86.28 156.686 89.28 159.566 90.36ZM111.446 94.8V90.36C120.026 90.12 125.186 84.96 125.186 76.8V68.1H130.166V76.8C130.166 84.9 135.266 90 143.546 90.24V94.56C136.406 94.5 130.406 91.14 127.706 85.62C125.066 91.26 118.946 94.74 111.446 94.8Z" fill="white"/>
</svg>
