<svg width="361" height="181" viewBox="0 0 361 181" fill="none" xmlns="http://www.w3.org/2000/svg">
<rect x="0.5" y="30.5" width="90" height="120" fill="#00B7AB"/>
<rect x="0.5" y="30.5" width="90" height="120" stroke="black"/>
<path d="M58.8188 64.02V83.28H53.8988V65.76H31.7588V61.32H56.1188C57.8588 61.32 58.8188 62.28 58.8188 64.02ZM45.7988 74.58V90.36H69.2588V94.8H21.7388V90.36H40.8788V74.58H45.7988Z" fill="white"/>
<rect x="90.5" y="30.5" width="90" height="120" fill="#00B7AB"/>
<rect x="90.5" y="30.5" width="90" height="120" stroke="black"/>
<path d="M153.622 82.8V75.72H145.162V94.8H140.362V57.6H145.162V71.28H153.622V57.24H158.422V81.84C158.422 87.24 159.922 89.64 163.162 90.36V94.8C157.162 94.44 153.622 90.48 153.622 82.8ZM107.842 94.8V90.36C115.702 90.12 120.502 85.14 120.502 77.1V68.4H125.482V77.1C125.482 85.02 130.282 90 138.082 90.24V94.56C131.302 94.5 125.602 91.2 123.022 85.8C120.502 91.32 114.742 94.74 107.842 94.8ZM144.922 123.42C137.662 123.42 132.442 118.5 132.442 111.6C132.442 104.76 137.662 99.84 144.922 99.84H155.962V104.28H144.922C140.542 104.28 137.362 107.34 137.362 111.6C137.362 115.92 140.542 118.98 144.922 118.98C149.242 118.98 152.422 115.92 152.422 111.6C152.422 109.92 151.942 108.6 151.282 107.52H156.262C156.922 108.6 157.342 109.62 157.342 111.6C157.342 118.5 152.122 123.42 144.922 123.42Z" fill="white"/>
<rect x="180.5" y="0.5" width="90" height="120" fill="#00B7AB"/>
<rect x="180.5" y="0.5" width="90" height="120" stroke="black"/>
<path d="M246.328 52.8V45.72H239.248V64.8H234.448V27.6H239.248V41.28H246.328V27.24H251.128V51.84C251.128 57.24 252.628 59.64 255.868 60.36V64.8C249.868 64.44 246.328 60.48 246.328 52.8ZM203.668 64.8H196.348V60.36H203.188C207.628 60.36 209.908 57.36 209.908 51.54V46.2H202.528V41.76H214.888V52.02C214.888 60.24 210.868 64.8 203.668 64.8ZM216.088 64.8H215.488V60.36H215.608C220.828 60.36 223.528 57.36 223.528 51.54V46.2H217.168V41.76H228.508V52.02C228.508 60.24 224.068 64.8 216.088 64.8Z" fill="white"/>
<rect x="270.5" y="60.5" width="90" height="120" fill="#00B7AB"/>
<rect x="270.5" y="60.5" width="90" height="120" stroke="black"/>
<path d="M328.412 112.2V87.24H333.332V100.74H341.732V105.18H333.332V112.02C333.332 117.18 334.772 120.36 339.572 120.36H341.072V124.8H339.512C332.312 124.8 328.412 120.6 328.412 112.2ZM306.932 120.36H323.432V124.8H289.952V120.36H299.672C298.892 119.52 298.472 118.38 298.472 116.1V100.98H303.392V116.34C303.392 119.16 304.592 120.36 306.932 120.36Z" fill="white"/>
</svg>
