<svg width="181" height="121" viewBox="0 0 181 121" fill="none" xmlns="http://www.w3.org/2000/svg">
<rect x="0.5" y="0.5" width="90" height="120" fill="#00B7AB"/>
<rect x="0.5" y="0.5" width="90" height="120" stroke="black"/>
<path d="M66.02 52.8V45.72H59.18V64.8H54.38V27.6H59.18V41.28H66.02V27.24H70.82V51.84C70.82 57.24 72.32 59.64 75.56 60.36V64.8C69.56 64.44 66.02 60.48 66.02 52.8ZM35.96 64.8H15.44V60.36H35.96C39.5 60.36 42.02 57.66 42.02 53.88C42.02 50.1 39.5 47.4 35.96 47.4C32.48 47.4 29.96 50.1 29.96 53.88C29.96 55.14 30.26 56.04 30.5 57H25.7C25.4 56.16 25.04 55.2 25.04 53.88C25.04 51.36 25.82 49.14 27.26 47.4H21.38V42.96H33.62V34.02H38.54V42.96H50.6V47.4H44.72C46.16 49.14 46.94 51.36 46.94 53.88C46.94 60.24 42.38 64.8 35.96 64.8ZM34.64 90.72V86.28C39.92 86.04 42.98 83.16 42.98 78.54V71.28H47.96V78.54C47.96 82.98 50 85.74 53.48 85.98C56.96 85.74 59 82.98 59 78.54V71.28H63.98V78.54C63.98 82.98 66.92 85.8 71.9 86.04V90.48C67.1 90.36 63.2 88.38 61.52 85.2C60.08 88.32 57.08 90.24 53.48 90.36C49.88 90.24 46.82 88.32 45.5 85.2C43.7 88.56 39.68 90.6 34.64 90.72Z" fill="white"/>
<rect x="90.5" y="0.5" width="90" height="120" fill="#00B7AB"/>
<rect x="90.5" y="0.5" width="90" height="120" stroke="black"/>
<path d="M167.651 60.36V64.8C161.651 64.44 158.111 60.48 158.111 52.8V27.24H162.911V51.84C162.911 57.24 164.411 59.64 167.651 60.36ZM147.011 41.04V27.6H151.811V64.8H147.011V45.48H139.571V41.04H147.011ZM108.011 64.8H103.331V60.36H107.411C115.691 60.36 120.491 56.1 120.491 48.66V45.48H109.511V41.04H136.211V45.48H125.591V48.66C125.591 55.8 130.031 60.06 137.711 60.24V64.56C130.811 64.56 125.471 61.74 123.071 56.88C120.491 61.92 115.031 64.8 108.011 64.8Z" fill="white"/>
</svg>
