<svg width="181" height="121" viewBox="0 0 181 121" fill="none" xmlns="http://www.w3.org/2000/svg">
<rect x="0.5" y="0.5" width="90" height="120" fill="#00B7AB"/>
<rect x="0.5" y="0.5" width="90" height="120" stroke="black"/>
<path d="M57.7977 52.2V27.24H62.7177V40.74H71.1177V45.18H62.7177V52.02C62.7177 57.18 64.1577 60.36 68.9577 60.36H70.4577V64.8H68.8977C61.6977 64.8 57.7977 60.6 57.7977 52.2ZM20.5377 64.8V60.36C29.1177 60.12 34.2777 54.96 34.2777 46.8V38.1H39.2577V46.8C39.2577 54.9 44.3577 60 52.6377 60.24V64.56C45.4977 64.5 39.4977 61.14 36.7977 55.62C34.1577 61.26 28.0377 64.74 20.5377 64.8Z" fill="white"/>
<rect x="90.5" y="0.5" width="90" height="120" fill="#00B7AB"/>
<rect x="90.5" y="0.5" width="90" height="120" stroke="black"/>
<path d="M159.566 60.36V64.8C154.166 64.44 149.906 60.36 149.906 50.64V27.24H154.826V49.56C154.826 56.28 156.686 59.28 159.566 60.36ZM111.446 64.8V60.36C120.026 60.12 125.186 54.96 125.186 46.8V38.1H130.166V46.8C130.166 54.9 135.266 60 143.546 60.24V64.56C136.406 64.5 130.406 61.14 127.706 55.62C125.066 61.26 118.946 64.74 111.446 64.8ZM134.906 85.08V91.38H155.246V95.82H132.686C130.946 95.82 129.986 94.86 129.986 93.12V80.7H149.186V74.64H129.986V70.2H151.406C153.146 70.2 154.106 71.16 154.106 72.9V85.08H134.906Z" fill="white"/>
</svg>
