<svg width="361" height="151" viewBox="0 0 361 151" fill="none" xmlns="http://www.w3.org/2000/svg">
<rect x="0.5" y="0.5" width="90" height="120" fill="#00B7AB"/>
<rect x="0.5" y="0.5" width="90" height="120" stroke="black"/>
<path d="M59.6105 52.2V27.24H64.5305V40.74H72.9306V45.18H64.5305V52.02C64.5305 57.18 65.9705 60.36 70.7706 60.36H72.2705V64.8H70.7106C63.5106 64.8 59.6105 60.6 59.6105 52.2ZM36.7505 64.8H18.7505V60.36H36.7505C40.9505 60.36 44.0105 57.24 44.0105 52.92C44.0105 48.6 40.9505 45.48 36.7505 45.48C32.5505 45.48 29.4905 48.6 29.4905 52.92C29.4905 54.6 29.8505 55.92 30.6305 57.12H25.6505C24.9305 55.98 24.5705 54.54 24.5705 52.92C24.5705 46.02 29.7305 41.04 36.7505 41.04C43.7705 41.04 48.9305 46.02 48.9305 52.92C48.9305 59.82 43.7705 64.8 36.7505 64.8Z" fill="white"/>
<rect x="90.5" y="0.5" width="90" height="120" fill="#00B7AB"/>
<rect x="90.5" y="0.5" width="90" height="120" stroke="black"/>
<path d="M160.151 60.36V64.8C154.751 64.44 150.491 60.36 150.491 50.64V27.24H155.411V49.56C155.411 56.28 157.271 59.28 160.151 60.36ZM127.811 60.36H145.091V64.8H110.831V60.36H120.551C119.771 59.52 119.351 58.38 119.351 56.1V40.98H124.271V56.34C124.271 59.16 125.471 60.36 127.811 60.36Z" fill="white"/>
<rect x="180.5" y="0.5" width="90" height="120" fill="#00B7AB"/>
<rect x="180.5" y="0.5" width="90" height="120" stroke="black"/>
<path d="M254.668 60.36V64.8C248.668 64.44 245.008 60.48 245.008 52.8V45.42H231.628V40.98H245.008V27.24H249.928V51.84C249.928 56.58 251.428 59.64 254.668 60.36ZM214.348 64.8H196.348V60.36H214.348C218.548 60.36 221.608 57.24 221.608 52.92C221.608 48.6 218.548 45.48 214.348 45.48C210.148 45.48 207.088 48.6 207.088 52.92C207.088 54.6 207.448 55.92 208.228 57.12H203.248C202.528 55.98 202.168 54.54 202.168 52.92C202.168 46.02 207.328 41.04 214.348 41.04C221.368 41.04 226.528 46.02 226.528 52.92C226.528 59.82 221.368 64.8 214.348 64.8ZM212.848 91.92V87.48C218.488 87.24 221.428 83.76 221.428 78.9V70.68H226.408V78.9C226.408 83.58 228.508 86.94 232.288 87.18C236.008 86.94 238.108 83.58 238.108 78.9V70.68H243.088V78.9C243.088 83.7 245.848 87 251.308 87.24V91.68C246.388 91.56 242.608 89.46 240.628 86.04C238.828 89.4 235.708 91.44 232.288 91.56C228.808 91.44 225.628 89.4 223.948 86.04C221.848 89.58 217.888 91.8 212.848 91.92Z" fill="white"/>
<rect x="270.5" y="30.5" width="90" height="120" fill="#00B7AB"/>
<rect x="270.5" y="30.5" width="90" height="120" stroke="black"/>
<path d="M315.499 84.78C308.119 84.78 302.959 79.92 302.959 73.08C302.959 66.24 308.119 61.38 315.499 61.38H326.599V65.82H315.499C310.999 65.82 307.879 68.82 307.879 73.08C307.879 77.34 310.999 80.34 315.499 80.34C319.999 80.34 323.119 77.34 323.119 73.08C323.119 71.52 322.699 69.96 321.799 68.7H326.839C327.619 69.78 328.039 71.52 328.039 73.08C328.039 79.92 322.879 84.78 315.499 84.78ZM291.739 94.8V90.36H339.259V94.8H291.739ZM324.679 117.84V108.96H329.599V122.22H303.619C301.879 122.22 300.919 121.26 300.919 119.52V101.28H329.599V105.72H305.839V117.84H324.679Z" fill="white"/>
</svg>
