<svg width="451" height="151" viewBox="0 0 451 151" fill="none" xmlns="http://www.w3.org/2000/svg">
<rect x="0.5" y="30.5" width="90" height="120" fill="#00B7AB"/>
<rect x="0.5" y="30.5" width="90" height="120" stroke="black"/>
<path d="M69.5659 90.36V94.8C64.1659 94.44 59.9059 90.36 59.9059 80.64V57.24H64.8259V79.56C64.8259 86.28 66.6859 89.28 69.5659 90.36ZM21.4459 94.8V90.36C30.0259 90.12 35.1859 84.96 35.1859 76.8V68.1H40.1659V76.8C40.1659 84.9 45.2659 90 53.5459 90.24V94.56C46.4059 94.5 40.4059 91.14 37.7059 85.62C35.0659 91.26 28.9459 94.74 21.4459 94.8Z" fill="white"/>
<rect x="90.5" y="30.5" width="90" height="120" fill="#00B7AB"/>
<rect x="90.5" y="30.5" width="90" height="120" stroke="black"/>
<path d="M149.611 82.2V57.24H154.531V70.74H162.931V75.18H154.531V82.02C154.531 87.18 155.971 90.36 160.771 90.36H162.271V94.8H160.711C153.511 94.8 149.611 90.6 149.611 82.2ZM134.671 90.36V68.16H139.591V94.8H108.751V90.36H116.911C116.131 89.52 115.711 88.38 115.711 86.1V68.16H120.631V77.28H131.311V81.72H120.631V86.34C120.631 89.16 121.771 90.36 124.171 90.36H134.671ZM142.351 122.76C135.271 122.76 130.171 117.96 130.171 111.3C130.171 104.64 135.271 99.84 142.351 99.84H153.331V104.28H142.351C138.151 104.28 135.091 107.22 135.091 111.3C135.091 115.38 138.151 118.32 142.351 118.32C146.611 118.32 149.671 115.38 149.671 111.3C149.671 109.8 149.251 108.42 148.651 107.52H153.571C154.171 108.48 154.591 109.68 154.591 111.3C154.591 117.96 149.491 122.76 142.351 122.76Z" fill="white"/>
<rect x="180.5" y="0.5" width="90" height="120" fill="#00B7AB"/>
<rect x="180.5" y="0.5" width="90" height="120" stroke="black"/>
<path d="M244.821 52.8V45.72H235.461V64.8H230.661V27.6H235.461V41.28H244.821V27.24H249.621V51.84C249.621 57.24 251.121 59.64 254.361 60.36V64.8C248.361 64.44 244.821 60.48 244.821 52.8ZM213.021 60.36H225.861V64.8H196.641V60.36H205.761C204.981 59.52 204.561 58.38 204.561 56.1V41.28H209.481V56.34C209.481 59.16 210.681 60.36 213.021 60.36Z" fill="white"/>
<rect x="270.5" y="30.5" width="90" height="120" fill="#00B7AB"/>
<rect x="270.5" y="30.5" width="90" height="120" stroke="black"/>
<path d="M341.349 90.36V94.8C335.949 94.44 331.689 90.36 331.689 80.64V57.24H336.609V79.56C336.609 86.28 338.469 89.28 341.349 90.36ZM307.689 94.8H289.629V90.36H307.689C311.949 90.36 315.009 87.24 315.009 82.92C315.009 78.54 311.949 75.42 307.689 75.42C303.489 75.42 300.429 78.54 300.429 82.92C300.429 84.6 300.789 85.92 301.569 87.12H296.589C295.869 85.98 295.509 84.54 295.509 82.92C295.509 75.96 300.669 70.98 307.689 70.98C314.769 70.98 319.929 75.96 319.929 82.92C319.929 89.82 314.769 94.8 307.689 94.8ZM316.329 101.4V115.98H336.969V120.42H314.109C312.369 120.42 311.409 119.46 311.409 117.72V101.4H316.329Z" fill="white"/>
<rect x="360.5" y="0.5" width="90" height="120" fill="#00B7AB"/>
<rect x="360.5" y="0.5" width="90" height="120" stroke="black"/>
<path d="M423.622 52.8V45.72H415.162V64.8H410.362V27.6H415.162V41.28H423.622V27.24H428.422V51.84C428.422 57.24 429.922 59.64 433.162 60.36V64.8C427.162 64.44 423.622 60.48 423.622 52.8ZM377.842 64.8V60.36C385.702 60.12 390.502 55.14 390.502 47.1V38.4H395.482V47.1C395.482 55.02 400.282 60 408.082 60.24V64.56C401.302 64.5 395.602 61.2 393.022 55.8C390.502 61.32 384.742 64.74 377.842 64.8ZM414.922 93.42C407.662 93.42 402.442 88.5 402.442 81.6C402.442 74.76 407.662 69.84 414.922 69.84H425.962V74.28H414.922C410.542 74.28 407.362 77.34 407.362 81.6C407.362 85.92 410.542 88.98 414.922 88.98C419.242 88.98 422.422 85.92 422.422 81.6C422.422 79.92 421.942 78.6 421.282 77.52H426.262C426.922 78.6 427.342 79.62 427.342 81.6C427.342 88.5 422.122 93.42 414.922 93.42Z" fill="white"/>
</svg>
