<svg width="1282" height="251" viewBox="0 0 1282 251" fill="none" xmlns="http://www.w3.org/2000/svg">
<rect x="0.75" y="59.75" width="160" height="190" fill="white"/>
<rect x="0.75" y="59.75" width="160" height="190" stroke="black" stroke-width="1.5"/>
<path d="M113.829 137.65V104.05H119.079V196.45H113.829V141.85H89.6791V137.65H113.829ZM100.179 172.93L96.5041 176.71C93.0391 174.61 73.8241 162.22 68.4691 142.06C64.6891 162.22 45.0541 176.395 40.6441 178.705L36.4441 175.135C45.8941 170.095 65.8441 156.235 65.8441 126.625V109.72H71.0941V126.625C71.0941 156.655 95.0341 169.99 100.179 172.93Z" fill="black"/>
<rect x="160.75" y="59.75" width="160" height="190" fill="white"/>
<rect x="160.75" y="59.75" width="160" height="190" stroke="black" stroke-width="1.5"/>
<path d="M286.954 149.515H243.799V161.17H273.829V179.86H212.929V191.2H276.559V195.4H207.679V175.66H268.579V165.37H207.679V161.17H238.549V149.515H194.554V145.315H286.954V149.515ZM275.194 120.115C275.194 129.25 262.699 136.6 240.754 136.6C218.914 136.6 206.314 129.25 206.314 120.115C206.314 110.98 218.914 103.735 240.754 103.735C262.699 103.735 275.194 111.61 275.194 120.115ZM269.734 120.115C269.734 112.87 257.239 107.935 240.754 107.935C224.059 107.935 211.774 112.87 211.774 120.115C211.774 127.15 224.059 132.295 240.754 132.295C257.239 132.295 269.734 127.15 269.734 120.115Z" fill="black"/>
<rect x="320.75" y="59.75" width="160" height="190" fill="white"/>
<rect x="320.75" y="59.75" width="160" height="190" stroke="black" stroke-width="1.5"/>
<path d="M375.134 166H380.384V190.15H438.134V194.35H375.134V166ZM433.829 137.02V171.25H428.579V104.05H433.829V132.82H448.319V137.02H433.829ZM388.889 117.805C388.889 137.65 409.889 151.195 417.134 154.765L413.774 158.65C410.624 157.495 392.564 144.895 386.264 129.46C379.754 148.36 362.324 158.545 359.174 160.12L355.079 156.76C363.164 153.82 383.639 137.86 383.639 117.805V107.2H388.889V117.805Z" fill="black"/>
<rect x="480.75" y="0.75" width="160" height="190" fill="white"/>
<rect x="480.75" y="0.75" width="160" height="190" stroke="black" stroke-width="1.5"/>
<path d="M594.354 45.05H599.604V137.45H594.354V45.05ZM546.369 60.275H522.744V56.075H575.979V60.275H551.619V70.46C551.619 97.865 572.724 111.725 577.344 114.14L574.089 118.34C571.044 116.555 552.984 104.165 548.994 84.53C545.319 103.85 526.419 118.025 521.694 120.86L517.704 117.29C528.519 112.25 546.369 94.4 546.369 70.46V60.275Z" fill="black"/>
<rect x="640.75" y="0.75" width="160" height="190" fill="white"/>
<rect x="640.75" y="0.75" width="160" height="190" stroke="black" stroke-width="1.5"/>
<path d="M752.884 90.2V137.45H747.634V45.05H752.884V85.895H768.844V90.2H752.884ZM678.334 117.29C703.324 106.055 718.129 82.745 720.229 60.8H684.004V56.6H726.109C723.484 86.84 706.054 108.89 682.639 120.545L678.334 117.29Z" fill="black"/>
<rect x="800.75" y="0.75" width="160" height="190" fill="white"/>
<rect x="800.75" y="0.75" width="160" height="190" stroke="black" stroke-width="1.5"/>
<path d="M882.329 69.2C882.329 60.065 876.029 52.925 863.849 52.925C851.879 52.925 845.369 60.275 845.369 69.2C845.369 78.23 851.984 85.475 863.849 85.475C875.924 85.475 882.329 78.23 882.329 69.2ZM887.894 66.05H912.254V45.05H917.504V93.98H912.254V70.25H888.104C887.474 81.59 877.814 90.2 863.849 90.2C849.569 90.2 839.594 81.065 839.594 69.2C839.594 57.335 849.464 47.99 863.849 47.99C876.869 47.99 886.214 55.76 887.894 66.05ZM920.444 136.4H854.504V115.82H912.359V104.375H853.979V100.175H917.609V120.02H859.754V132.2H920.444V136.4Z" fill="black"/>
<rect x="960.75" y="0.75" width="160" height="190" fill="white"/>
<rect x="960.75" y="0.75" width="160" height="190" stroke="black" stroke-width="1.5"/>
<path d="M1007.15 56.075V91.04H1039.6V56.075H1007.15ZM1001.9 51.875H1044.85V95.24H1001.9V51.875ZM1012.93 107H1018.18V131.15H1076.98V135.35H1012.93V107ZM1072.78 78.02V112.25H1067.53V45.05H1072.78V73.61H1087.48V78.02H1072.78Z" fill="black"/>
<rect x="1120.75" y="58.75" width="160" height="190" fill="white"/>
<rect x="1120.75" y="58.75" width="160" height="190" stroke="black" stroke-width="1.5"/>
<path d="M1213.35 140.115V105.36H1218.6V191.25H1213.35V144.315H1193.4V140.115H1213.35ZM1233.3 103.05H1238.55V195.45H1233.3V103.05ZM1205.9 171.405C1199.6 172.35 1185.74 173.4 1174.71 173.4H1164V115.65H1196.66V119.85H1169.25V169.2H1175.03C1183.85 169.2 1199.6 168.36 1205.9 167.205V171.405Z" fill="black"/>
</svg>
