<svg width="162" height="192" viewBox="0 0 162 192" fill="none" xmlns="http://www.w3.org/2000/svg">
<rect x="0.75" y="0.75" width="160" height="190" fill="#FF961E"/>
<rect x="0.75" y="0.75" width="160" height="190" stroke="black" stroke-width="1.5"/>
<path d="M106.75 142.95C103.55 142.95 101.35 142.45 100.15 141.25C98.95 140.05 98.35 137.85 98.15 134.55C97.65 125.25 97.45 118.85 97.45 115.35C97.45 110.45 97.75 94.95 98.45 68.95C98.45 68.25 98.55 67.45 98.75 66.65C98.85 65.85 98.95 65.15 99.15 64.55C99.25 63.95 99.45 63.25 99.75 62.25C99.95 61.25 100.15 60.55 100.35 59.95C100.55 59.15 100.95 58.55 101.65 58.35C101.85 58.35 102.55 58.15 103.65 57.85C104.75 57.55 105.55 57.35 105.95 57.25C106.35 57.15 106.95 57.05 107.95 56.85C108.85 56.65 109.55 56.65 110.15 56.65C110.75 56.65 111.45 56.75 112.25 56.95C113.05 57.15 113.75 57.35 114.55 57.65C116.45 58.65 117.55 60.45 117.75 63.05C117.75 64.25 117.85 68.25 117.95 75.15C117.95 82.05 118.15 86.35 118.35 88.05C118.55 89.25 119.25 90.55 120.45 91.85C121.05 92.55 121.65 93.25 122.35 93.95C123.05 94.75 123.85 95.55 124.75 96.35C125.55 97.25 126.25 97.95 126.85 98.35C127.65 99.15 128.15 100.05 128.55 100.95C128.95 101.95 129.05 103.05 128.95 104.25C128.85 105.45 128.75 106.35 128.65 106.95C128.45 107.55 128.25 108.65 127.85 110.05C127.25 112.45 125.15 113.75 121.55 113.75C119.65 113.75 118.45 114.05 118.05 114.55C117.55 115.15 117.35 116.45 117.45 118.65C117.45 120.15 117.45 122.85 117.55 126.65C117.65 130.45 117.75 133.05 117.75 134.35C117.75 137.05 117.05 138.85 115.45 139.75C111.45 141.95 108.55 143.05 106.75 142.95ZM53.85 112.75C58.85 113.25 62.55 113.45 64.95 113.45C65.85 113.55 66.85 113.65 68.05 113.65C69.25 113.75 70.05 113.85 70.65 113.85C71.25 113.85 71.95 113.85 72.95 113.75C73.95 113.65 75.05 113.45 76.25 113.15C78.65 112.65 81.25 113.35 84.05 115.35C84.35 115.65 84.65 116.05 84.85 116.65C85.05 117.25 85.15 117.85 85.05 118.25C84.85 119.75 84.55 120.95 84.35 121.85C84.15 122.85 83.95 123.45 83.85 123.85C83.65 124.25 83.25 125.05 82.65 126.35C82.05 127.65 81.55 128.65 81.15 129.45C79.65 132.65 77.25 134.45 73.95 134.65C71.55 134.85 68.45 135.25 64.75 135.85C60.95 136.45 58.25 136.75 56.45 136.85C54.65 137.05 51.65 137.05 47.25 136.85C44.55 136.65 41.95 136.25 39.35 135.55C37.15 135.05 35.95 133.45 35.85 130.85C35.75 129.35 35.65 127.25 35.55 124.65C35.35 122.05 35.25 119.55 35.15 117.35C35.05 115.15 35.05 113.05 35.05 111.05C34.85 101.25 34.85 91.55 35.05 81.75C35.05 79.65 35.45 77.25 36.45 74.55C37.05 72.85 37.85 71.65 38.85 71.05C39.85 70.45 41.45 70.05 43.65 69.85C44.65 69.75 46.25 69.75 48.65 69.85C48.85 69.85 49.15 70.05 49.55 70.25C49.95 70.45 50.25 70.65 50.35 70.65C51.15 71.05 51.65 71.15 51.95 71.15C53.05 71.15 53.85 71.35 54.35 71.75C54.75 72.15 55.15 73.05 55.45 74.25C55.85 75.75 56.05 77.35 56.05 79.15C56.05 80.95 55.95 82.45 55.85 83.75C55.65 85.05 55.45 86.65 55.15 88.65C54.85 90.65 54.65 92.15 54.65 93.25C54.45 94.85 54.25 98.25 54.15 103.45C53.95 108.65 53.85 111.75 53.85 112.75Z" fill="white"/>
</svg>
