<svg width="162" height="192" viewBox="0 0 162 192" fill="none" xmlns="http://www.w3.org/2000/svg">
<rect x="0.75" y="0.75" width="160" height="190" fill="#FF961E"/>
<rect x="0.75" y="0.75" width="160" height="190" stroke="black" stroke-width="1.5"/>
<path d="M83.25 104.25C75.05 104.65 70.65 104.75 69.85 104.75C53.65 104.75 44.55 104.55 42.35 103.95C40.35 103.45 39.25 102.45 38.95 101.05C38.65 99.65 38.85 97.55 39.65 94.75C39.95 94.35 40.15 93.85 40.25 93.15C40.35 92.45 40.65 91.85 41.15 91.45C41.35 91.25 41.85 91.05 42.55 91.05H59.35H76.15C76.65 91.05 77.95 91.15 80.15 91.35C82.35 91.55 83.55 91.75 83.85 91.75C84.45 91.75 89.95 91.85 100.15 92.05C110.35 92.25 116.25 92.35 117.85 92.55C118.15 92.55 118.55 92.85 118.95 93.25C119.35 93.65 119.65 94.05 119.75 94.45C120.15 97.05 120.15 99.05 119.75 100.35C119.15 102.55 117.25 103.75 114.05 103.95C113.05 104.05 107.85 104.15 98.55 104.25C89.15 104.35 84.05 104.35 83.25 104.35V104.25ZM67.35 58.95C67.35 57.45 66.85 56.35 65.85 55.65C64.75 55.05 62.95 54.75 60.55 54.75C59.75 54.75 58.75 54.85 57.35 55.05C55.95 55.25 55.05 55.45 54.45 55.45C52.45 55.55 51.15 55.85 50.65 56.25C50.05 56.65 49.85 57.65 49.95 59.05C49.95 61.45 50.15 64.05 50.35 66.65C50.55 69.35 50.75 71.45 50.95 73.05C50.95 74.45 51.35 76.25 51.95 78.45C51.95 78.65 52.15 78.85 52.55 79.05C52.85 79.25 53.15 79.45 53.45 79.45C54.15 79.55 55.65 79.75 58.05 79.95C60.45 80.15 62.25 80.45 63.55 80.65C65.85 81.05 68.65 81.35 71.95 81.55C75.25 81.75 78.95 81.95 82.95 82.05C86.95 82.15 89.85 82.25 91.55 82.35C93.35 82.45 95.95 82.35 99.35 82.15C102.75 81.95 104.95 81.75 106.15 81.75C107.15 81.75 107.95 81.55 108.45 81.15C108.95 80.85 109.25 80.25 109.45 79.45C110.05 76.55 110.55 74.15 111.05 72.15C111.65 69.65 110.55 68.35 107.75 68.15C102.65 67.95 95.35 67.65 85.75 67.35H67.35C67.45 67.35 67.45 66.25 67.45 63.85C67.35 61.45 67.35 59.85 67.35 58.95ZM76.15 129.15H86.45H97.45C105.55 129.15 111.05 129.25 113.95 129.25C114.15 129.25 114.45 129.35 114.65 129.35C114.85 129.45 114.95 129.55 115.15 129.55C115.25 129.65 115.35 129.75 115.55 129.95L115.85 130.45C115.85 130.55 115.95 130.75 116.05 130.95C116.05 131.25 116.15 131.45 116.15 131.55C116.15 131.65 116.25 131.85 116.35 132.15C116.35 132.45 116.45 132.65 116.45 132.65C116.55 133.35 116.65 134.05 116.65 134.75C116.65 137.05 115.95 139.35 114.75 141.75C114.35 142.45 113.55 142.95 112.15 143.15C110.75 143.35 106.05 143.65 98.05 144.05C90.05 144.45 85.35 144.75 83.85 144.95C83.45 145.05 83.05 145.05 82.75 145.05C81.05 145.05 77.45 145.15 71.95 145.25C66.45 145.35 62.45 145.45 59.95 145.55C59.35 145.55 58.25 145.65 56.85 145.75C55.45 145.85 54.35 145.85 53.65 145.85C51.35 145.85 49.45 145.45 47.95 144.55C47.55 144.35 47.15 143.85 46.75 143.25C46.35 142.65 46.15 142.15 46.15 141.55C45.95 138.55 45.65 133.75 45.35 127.15C44.95 120.55 44.75 116.65 44.75 115.45H44.85C45.15 115.45 45.75 115.35 46.65 115.15C47.55 114.95 48.25 114.65 48.65 114.35C49.15 113.95 49.95 113.75 50.95 113.75C52.25 113.75 54.35 114.25 57.15 115.15C57.95 115.45 58.35 115.95 58.35 116.65C58.35 116.95 58.25 117.35 58.25 117.85C58.25 118.45 58.25 118.85 58.25 119.15V121.25V123.25V126.25V129.15H76.15Z" fill="white"/>
</svg>
