<svg width="162" height="192" viewBox="0 0 162 192" fill="none" xmlns="http://www.w3.org/2000/svg">
<rect x="0.75" y="0.75" width="160" height="190" fill="#FF961E"/>
<rect x="0.75" y="0.75" width="160" height="190" stroke="black" stroke-width="1.5"/>
<path d="M106.75 142.95C103.55 142.95 101.35 142.45 100.15 141.25C98.95 140.05 98.35 137.85 98.15 134.55C97.65 125.25 97.45 118.85 97.45 115.35C97.45 110.45 97.75 94.95 98.45 68.95C98.45 68.25 98.55 67.45 98.75 66.65C98.85 65.85 98.95 65.15 99.15 64.55C99.25 63.95 99.45 63.25 99.75 62.25C99.95 61.25 100.15 60.55 100.35 59.95C100.55 59.15 100.95 58.55 101.65 58.35C101.85 58.35 102.55 58.15 103.65 57.85C104.75 57.55 105.55 57.35 105.95 57.25C106.35 57.15 106.95 57.05 107.95 56.85C108.85 56.65 109.55 56.65 110.15 56.65C110.75 56.65 111.45 56.75 112.25 56.95C113.05 57.15 113.75 57.35 114.55 57.65C116.45 58.65 117.55 60.45 117.75 63.05C117.75 64.25 117.85 68.25 117.95 75.15C117.95 82.05 118.15 86.35 118.35 88.05C118.55 89.25 119.25 90.55 120.45 91.85C121.05 92.55 121.65 93.25 122.35 93.95C123.05 94.75 123.85 95.55 124.75 96.35C125.55 97.25 126.25 97.95 126.85 98.35C127.65 99.15 128.15 100.05 128.55 100.95C128.95 101.95 129.05 103.05 128.95 104.25C128.85 105.45 128.75 106.35 128.65 106.95C128.45 107.55 128.25 108.65 127.85 110.05C127.25 112.45 125.15 113.75 121.55 113.75C119.65 113.75 118.45 114.05 118.05 114.55C117.55 115.15 117.35 116.45 117.45 118.65C117.45 120.15 117.45 122.85 117.55 126.65C117.65 130.45 117.75 133.05 117.75 134.35C117.75 137.05 117.05 138.85 115.45 139.75C111.45 141.95 108.55 143.05 106.75 142.95ZM50.05 72.85C54.55 71.65 59.45 71.45 64.85 72.35C65.85 72.55 66.75 73.55 67.55 75.25C68.35 76.95 68.65 78.55 68.45 79.95C68.35 80.55 68.05 84.55 67.65 91.75C67.65 92.35 67.75 92.75 68.05 92.95C68.25 93.15 68.75 93.25 69.35 93.25C76.55 94.25 82.15 95.75 86.15 97.75C87.65 98.55 88.55 99.15 88.75 99.55C88.95 99.95 88.95 101.05 88.65 102.65C88.25 104.05 88.05 106.05 87.95 108.45C87.75 110.95 87.45 113.05 87.05 114.65C86.65 115.95 86.15 116.75 85.65 117.05C85.15 117.45 84.65 117.55 84.15 117.35C83.65 117.15 82.85 116.95 81.75 116.55C80.65 116.25 79.55 116.05 78.55 116.05C78.35 116.05 78.05 116.05 77.85 115.85L77.45 115.55C71.45 113.15 67.55 110.85 65.75 108.75C65.45 108.45 65.15 108.15 64.75 107.85C64.35 107.55 63.85 107.15 63.25 106.75C62.65 106.35 62.25 106.05 61.95 105.85C59.15 110.25 57.75 112.55 57.55 112.85C54.15 117.75 51.75 121.15 50.25 123.05C49.95 123.35 49.55 123.75 49.15 124.35C48.75 124.95 48.35 125.55 47.95 126.05C47.55 126.55 47.15 127.15 46.65 127.85C46.05 128.55 45.55 129.05 45.15 129.45C44.75 129.85 44.25 130.25 43.75 130.65C43.15 131.05 42.75 131.25 42.35 131.25C41.95 131.25 41.45 131.15 41.05 130.95C36.65 128.15 33.95 123.55 32.95 117.15C32.75 116.15 33.15 114.95 34.15 113.55C36.25 110.55 39.75 105.85 44.55 99.35C45.35 98.25 46.25 97.25 47.25 96.25C48.65 94.85 49.45 92.85 49.65 90.15C49.75 89.05 49.95 87.15 50.25 84.35C50.45 81.55 50.65 79.45 50.85 77.85C50.85 77.45 50.75 77.05 50.75 76.65C50.65 76.25 50.55 75.85 50.35 75.35C50.15 74.85 50.05 74.45 50.05 74.15V72.85Z" fill="white"/>
</svg>
