<svg width="162" height="192" viewBox="0 0 162 192" fill="none" xmlns="http://www.w3.org/2000/svg">
<rect x="0.75" y="0.75" width="160" height="190" fill="#FF961E"/>
<rect x="0.75" y="0.75" width="160" height="190" stroke="black" stroke-width="1.5"/>
<path d="M90.95 131.05C90.75 132.15 90.45 133.85 90.05 136.05C89.65 138.25 89.45 139.65 89.35 140.15C89.05 141.65 88.15 142.55 86.75 142.75C85.25 143.05 81.85 143.25 76.45 143.35C75.05 143.45 74.25 142.65 74.05 140.95V138.65V136.75C74.05 136.35 74.05 135.85 74.05 135.35C74.05 134.85 74.05 134.45 74.05 134.15C73.95 133.95 73.95 133.65 73.95 133.45C73.95 133.25 73.85 133.05 73.65 132.85C73.45 132.75 73.35 132.65 73.25 132.55C73.15 132.45 72.95 132.35 72.55 132.25C72.15 132.15 71.85 132.05 71.65 132.05C71.45 132.05 71.05 131.95 70.45 131.75C69.25 131.55 64.35 131.35 55.75 131.05C47.15 130.85 41.95 130.65 40.15 130.65C38.95 130.65 38.05 129.95 37.45 128.55C36.15 125.75 36.05 122.25 37.15 118.15C37.25 117.45 38.15 116.95 39.85 116.55C40.05 116.45 42.05 116.45 45.85 116.45C49.65 116.45 51.65 116.45 51.85 116.45C53.95 116.45 60.15 116.25 70.35 116.05C80.55 115.85 86.45 115.65 88.25 115.55C90.25 115.45 95.85 115.35 104.95 115.25C114.05 115.25 119.15 115.15 120.25 115.15C121.65 115.15 122.85 116.05 123.75 118.05C125.15 121.05 125.45 123.95 124.65 126.85C124.35 127.85 123.55 128.65 122.25 129.05C120.75 129.65 115.55 130.15 106.65 130.35C97.65 130.65 93.05 130.75 92.65 130.75L90.95 131.05ZM59.65 73.65C59.65 74.65 59.45 75.65 59.25 76.85C59.05 78.05 58.95 79.05 58.95 80.05C72.75 81.05 80.35 81.65 81.75 81.75C86.85 82.05 91.45 82.15 95.65 81.95C96.65 81.95 97.95 81.85 99.65 81.65C101.35 81.45 102.85 81.35 104.05 81.15L105.85 80.85L109.45 80.75C109.85 81.05 110.25 81.45 110.85 81.95C111.45 82.45 112.15 83.35 113.05 84.55C113.85 85.85 114.25 86.95 114.05 87.85C113.45 89.85 112.75 91.15 111.95 91.65C111.15 92.15 109.55 92.35 107.15 92.15C106.15 92.05 104.55 92.05 102.25 92.15C99.85 92.25 98.25 92.25 97.35 92.15C93.95 92.15 89.15 91.95 82.95 91.65C76.75 91.45 72.85 91.25 71.15 91.15C68.85 91.05 67.35 91.05 66.65 91.25C66.05 91.45 65.55 91.65 65.25 92.05C64.85 92.45 64.65 92.85 64.65 93.15C64.65 93.45 64.65 93.95 64.75 94.65C64.75 95.35 64.85 95.85 64.85 96.15C79.15 96.85 86.85 97.15 88.05 97.15L108.25 97.45L112.75 98.95C112.65 99.55 112.55 100.15 112.35 100.95C112.15 101.75 111.65 102.75 111.05 104.15C110.35 105.55 109.65 106.35 108.95 106.45C106.35 107.15 103.45 107.65 100.25 107.95C97.05 108.35 94.45 108.55 92.65 108.55C90.75 108.65 87.65 108.65 83.45 108.65C79.25 108.65 76.55 108.65 75.45 108.65H74.35C65.25 108.65 56.35 107.65 47.65 105.45C46.75 105.25 46.15 104.75 45.95 103.95C45.55 102.65 45.25 101.25 45.25 99.85C45.15 85.45 45.15 76.15 45.35 71.85C45.35 70.85 45.55 69.25 45.95 66.85C46.35 64.55 46.75 62.45 47.15 60.55L47.65 57.85L53.65 56.85C55.05 57.25 56.75 57.65 58.95 58.05C61.05 58.45 64.45 59.05 69.15 59.65C73.75 60.35 77.25 60.55 79.55 60.35C85.75 60.05 89.75 59.85 91.65 59.65C91.95 59.65 92.45 59.75 93.05 59.85C93.65 59.95 94.15 59.95 94.55 59.95C94.95 59.95 95.35 59.85 95.75 59.75C96.15 59.65 96.55 59.55 97.05 59.35C97.55 59.15 97.95 59.05 98.35 58.95C99.75 58.65 100.55 58.45 100.85 58.45C101.75 58.55 103.65 58.75 106.45 59.05C109.25 59.45 111.45 59.65 113.05 59.75C114.05 59.85 114.85 60.15 115.45 60.65C116.05 61.25 116.35 61.95 116.35 62.75C116.25 66.15 115.85 69.95 115.25 74.05C115.15 74.45 114.85 74.75 114.25 75.15C113.65 75.55 113.05 75.75 112.55 75.75C111.45 75.95 109.75 76.05 107.45 75.95C99.05 75.65 90.75 75.25 82.55 74.75C79.85 74.65 76.05 74.45 71.05 74.15C66.05 73.85 63.05 73.65 62.05 73.55C61.85 73.55 61.05 73.65 59.65 73.65Z" fill="white"/>
</svg>
