<svg width="162" height="192" viewBox="0 0 162 192" fill="none" xmlns="http://www.w3.org/2000/svg">
<rect x="0.75" y="0.75" width="160" height="190" fill="#FF961E"/>
<rect x="0.75" y="0.75" width="160" height="190" stroke="black" stroke-width="1.5"/>
<path d="M100.15 56.95C103.95 56.75 106.05 56.65 106.25 56.65C108.45 56.75 110.55 56.95 112.75 57.25C114.95 57.55 116.85 57.75 118.55 57.85C120.45 58.05 121.45 59.15 121.55 61.05C121.55 63.45 121.75 67.15 122.05 72.05C122.35 77.05 122.55 80.75 122.65 83.25C122.75 85.15 122.75 88.55 122.75 93.35C122.75 98.25 122.75 101.65 122.75 103.45C122.75 106.15 122.75 111.65 122.75 120.05C122.75 128.45 122.75 134.05 122.75 136.75V136.95C122.75 138.35 122.55 139.75 122.15 140.95C121.25 143.45 119.65 144.65 117.35 144.55C116.25 144.55 114.95 144.65 113.55 144.65C112.15 144.65 110.95 144.65 109.95 144.45C109.15 144.45 108.25 144.15 107.45 143.65C106.55 143.25 105.95 142.65 105.75 142.05C103.75 137.25 102.75 133.55 102.65 130.95C102.35 125.15 102.15 115.25 102.05 101.45C101.95 87.65 101.85 78.25 101.65 73.15C101.65 71.55 101.55 69.95 101.35 68.15C101.15 66.35 100.95 64.35 100.75 62.05L100.15 56.95ZM59.65 110.05C59.65 110.25 59.55 111.05 59.55 112.45C59.55 113.85 59.45 114.85 59.45 115.35C65.85 114.65 73.15 114.85 81.25 116.05C82.25 116.25 83.05 116.75 83.55 117.45C83.95 118.25 84.15 119.15 84.05 120.35C83.95 121.55 83.75 122.65 83.55 123.55C83.35 124.55 82.95 125.75 82.55 127.15C82.05 128.55 81.75 129.55 81.75 129.95C81.15 131.85 79.65 133.05 77.45 133.65C76.85 133.85 75.35 134.25 72.85 134.95C70.35 135.65 68.65 136.05 67.85 136.25C67.05 136.45 65.55 136.65 63.45 137.05C61.25 137.45 59.55 137.75 58.35 137.75C57.15 137.75 55.65 137.75 53.95 137.55C52.15 137.35 50.55 137.05 49.05 136.55C48.25 136.35 46.85 135.75 44.65 134.95C42.45 134.15 40.85 133.55 39.65 132.95C37.65 132.15 36.65 130.25 36.85 127.35C36.85 124.55 37.25 120.85 37.95 116.25C38.55 111.65 38.95 107.95 39.05 105.05C38.85 98.65 40.65 95.35 44.55 95.35C46.25 95.35 48.65 95.45 51.65 95.75C54.65 96.05 57.35 96.15 59.85 96.05C62.25 95.95 64.55 95.45 66.75 94.55C66.75 94.55 66.75 93.75 66.55 92.25C66.35 90.85 66.15 89.35 65.95 87.75C65.75 86.15 65.65 85.35 65.65 85.25C65.65 85.15 65.55 84.95 65.35 84.75C65.15 84.55 64.95 84.35 64.85 84.35C59.85 83.35 56.65 82.85 55.45 82.75C54.65 82.75 53.45 82.75 52.05 82.95C50.65 83.15 49.65 83.25 49.05 83.25C46.15 83.25 42.45 83.15 37.95 82.95C37.55 82.95 37.15 82.85 36.95 82.65C36.65 82.45 36.45 82.25 36.25 81.85C36.05 81.45 35.95 81.15 35.95 80.85C35.95 80.65 35.85 80.25 35.85 79.75C35.75 79.25 35.75 78.85 35.75 78.65C35.55 77.95 35.45 77.25 35.45 76.65C35.45 76.05 35.45 75.35 35.65 74.75C35.75 74.15 35.85 73.75 35.95 73.35C35.95 72.95 36.15 72.45 36.45 71.75C36.65 71.15 36.85 70.65 37.05 70.35C37.15 70.15 37.45 69.55 37.95 68.75C38.35 67.95 38.65 67.45 38.85 67.05C39.05 66.75 39.95 66.45 41.65 66.15C48.85 64.95 53.25 64.35 54.85 64.15C55.95 64.15 57.55 64.25 59.65 64.55C61.65 64.85 63.05 64.95 63.85 64.95C64.85 65.05 66.25 65.05 68.25 64.95C70.25 64.85 71.75 64.85 72.75 64.85C74.85 64.95 76.95 65.45 79.15 66.25C81.25 67.05 83.15 68.35 84.75 70.15C86.35 71.95 87.05 73.95 87.05 76.25C86.95 78.25 87.05 81.95 87.35 87.15C87.55 92.35 87.65 96.05 87.65 98.05C87.65 98.95 87.55 99.75 87.35 100.35C87.15 101.05 87.05 101.55 86.95 101.85C86.75 102.15 86.55 102.65 86.15 103.35C85.75 104.15 85.35 104.75 85.15 105.15C84.75 105.95 83.95 106.65 82.85 107.05C76.85 109.45 71.95 110.25 68.15 109.45C66.85 109.35 65.95 109.35 65.35 109.35C64.75 109.35 63.85 109.55 62.55 109.75C61.15 109.95 60.25 110.05 59.65 110.05Z" fill="white"/>
</svg>
