<svg width="162" height="192" viewBox="0 0 162 192" fill="none" xmlns="http://www.w3.org/2000/svg">
<rect x="0.75" y="0.75" width="160" height="190" fill="#FF961E"/>
<rect x="0.75" y="0.75" width="160" height="190" stroke="black" stroke-width="1.5"/>
<path d="M67.05 109.55C59.55 109.75 52.75 108.15 46.55 104.55C42.75 102.45 40.15 98.95 38.95 93.95C37.35 87.95 37.15 83.15 38.35 79.35C38.95 77.35 39.95 75.45 41.25 73.65C43.75 70.25 45.95 67.65 47.85 65.85C50.65 63.25 54.35 62.25 58.75 62.75C64.45 63.55 70.55 65.85 76.95 69.65C80.55 71.85 82.75 75.05 83.55 79.45C84.65 86.45 84.75 92.15 83.75 96.45C82.75 100.75 80.85 104.05 77.95 106.45C75.05 108.85 71.45 109.95 67.05 109.55ZM56.15 88.15C57.35 92.15 58.15 94.45 58.45 94.85C58.65 95.25 58.95 95.75 59.45 96.15C59.95 96.55 60.35 96.75 60.75 96.65C62.95 96.45 64.85 95.95 66.35 94.95C67.75 93.95 68.75 92.65 69.15 90.95C69.55 89.25 69.15 87.25 67.95 84.85C66.15 81.25 63.35 80.05 59.55 81.15C57.35 81.85 56.25 84.15 56.15 88.15ZM116.75 91.75V104.65C116.75 105.75 116.55 107.75 116.35 110.55C116.15 112.15 115.15 113.05 113.55 113.05C109.95 113.15 106.95 113.15 104.35 112.95C102.85 112.95 101.55 112.35 100.55 111.35C99.55 110.35 98.95 109.15 98.95 107.75C98.85 101.95 98.85 94.75 98.95 86.15C98.95 85.65 98.95 81.75 99.15 74.45C99.25 67.25 99.35 62.75 99.45 61.15C99.45 59.15 100.15 57.85 101.55 57.05C101.85 56.85 102.45 56.55 103.35 56.05C104.25 55.65 104.95 55.25 105.45 55.05C105.85 54.85 106.45 54.65 107.25 54.35C108.05 54.05 108.75 53.85 109.45 53.75C110.15 53.65 110.85 53.65 111.65 53.65C112.85 53.75 113.75 53.85 114.35 54.05C115.75 54.65 116.45 55.65 116.45 57.15C116.45 58.45 116.45 61.75 116.65 67.15C116.85 72.55 116.95 75.75 117.15 76.75C117.25 77.55 117.85 78.05 119.05 78.15C123.85 78.55 126.55 78.75 127.15 78.85C128.55 79.25 129.45 80.35 129.65 82.35C129.95 85.35 129.45 88.05 128.05 90.35C127.65 91.05 126.45 91.55 124.65 91.75H116.75ZM75.65 128.55C89.25 127.75 96.95 127.35 98.65 127.15C100.35 127.05 102.35 126.85 104.75 126.65C107.15 126.45 109.15 126.25 110.75 126.05C112.35 125.85 113.75 125.75 114.75 125.75C116.05 125.75 117.05 127.45 117.65 130.65C117.75 131.35 117.85 132.75 117.85 134.75C117.85 137.05 117.25 139.35 116.05 141.75C115.65 142.45 114.75 142.95 113.35 143.15C111.95 143.35 107.25 143.65 99.25 144.05C91.25 144.45 86.55 144.75 85.05 144.95C84.65 145.05 84.35 145.05 83.95 145.05C82.25 145.05 78.65 145.15 73.15 145.25C67.65 145.35 63.65 145.45 61.15 145.55C60.55 145.55 59.45 145.65 58.05 145.75C56.65 145.85 55.55 145.85 54.85 145.85C52.55 145.85 50.65 145.45 49.25 144.55C48.75 144.35 48.35 143.85 47.95 143.25C47.55 142.65 47.45 142.15 47.45 141.55C47.15 138.65 46.95 134.55 46.75 129.15C46.55 123.75 46.35 120.05 46.25 117.95L46.15 116.55C46.15 115.55 46.15 114.65 46.15 113.65L46.05 112.25C46.25 112.25 46.75 112.15 47.65 111.95C48.55 111.75 49.15 111.55 49.45 111.45C50.15 111.35 51.75 111.25 54.25 111.25C57.15 111.25 58.95 111.45 59.75 111.65C60.55 111.95 60.95 112.45 60.95 113.15C60.95 113.45 61.05 114.15 61.25 115.15C61.45 116.15 61.65 116.85 61.65 117.15C61.65 118.25 61.85 120.25 62.45 123.25C62.45 123.65 62.55 124.55 62.75 125.85C62.85 127.15 63.05 128.25 63.35 129.25L75.65 128.55Z" fill="white"/>
</svg>
