<svg width="162" height="192" viewBox="0 0 162 192" fill="none" xmlns="http://www.w3.org/2000/svg">
<rect x="0.75" y="0.75" width="160" height="190" fill="#FF961E"/>
<rect x="0.75" y="0.75" width="160" height="190" stroke="black" stroke-width="1.5"/>
<path d="M121.75 77.95C121.65 83.15 121.45 86.95 121.25 89.35C120.95 92.05 120.35 94.65 119.55 97.15C119.15 98.35 118.75 99.15 118.15 99.35C117.55 99.65 116.55 99.75 115.05 99.55C112.85 99.35 111.45 99.25 110.95 99.25C109.35 99.35 108.45 98.75 108.25 97.45C107.85 95.45 107.55 93.45 107.35 91.45C107.25 90.45 107.15 89.05 107.05 87.15C106.95 85.25 106.85 83.95 106.85 83.25C106.75 82.15 106.15 81.35 105.15 80.95C104.15 80.55 103.05 80.65 101.95 81.25C101.35 81.65 101.15 82.25 101.25 83.05C101.35 84.35 101.65 86.55 102.05 89.65C102.45 92.85 102.65 95.25 102.85 96.85C102.95 97.85 102.85 99.15 102.45 100.85C102.25 101.45 101.85 101.85 101.25 102.05L95.65 103.85C92.95 104.15 91.05 103.95 90.05 103.25C89.05 102.75 88.55 102.05 88.55 101.15C87.85 92.75 87.45 86.05 87.25 81.15L86.75 61.15L87.85 56.85L94.05 56.35C95.15 56.45 96.05 56.55 96.65 56.65C97.65 56.85 98.35 57.45 98.85 58.35C99.25 59.25 99.45 60.05 99.45 60.75L99.35 61.85L98.95 71.05L101.85 73.55H103.95C105.55 73.45 106.55 73.15 107.05 72.75C107.45 72.35 107.75 71.55 107.75 70.25C107.65 69.25 107.55 67.25 107.45 64.35C107.35 61.45 107.35 59.25 107.35 57.65C107.25 56.45 107.45 55.75 108.05 55.35C108.55 54.95 109.55 54.75 111.05 54.65C115.75 54.55 119.05 55.75 121.05 58.15C121.35 58.55 121.55 59.05 121.75 59.55C121.95 60.15 122.05 60.75 122.25 61.35C122.35 62.05 122.45 62.55 122.65 62.85C122.45 62.85 122.25 64.75 122.05 68.45C121.85 72.25 121.75 75.35 121.75 77.95ZM51.05 80.85C44.25 79.65 40.55 78.95 39.85 78.75C37.75 78.35 36.75 77.25 36.85 75.35V68.65C39.95 67.45 43.35 66.75 47.15 66.35C50.95 66.05 54.15 65.95 56.85 66.05C59.45 66.25 63.05 66.55 67.45 67.05C68.65 67.25 69.95 67.25 71.35 67.25C72.75 67.25 74.35 67.25 76.25 67.25C78.15 67.25 79.65 67.15 80.65 67.15V73.25C80.65 74.25 80.35 74.85 79.75 75.25C79.05 75.65 78.25 75.95 77.25 76.15C76.25 76.35 75.65 76.75 75.35 77.25L76.65 78.55C82.25 82.35 83.85 87.55 81.55 94.15C80.55 96.95 78.25 100.45 74.65 104.55C74.05 105.15 73.25 105.75 72.05 106.15C70.85 106.55 69.75 106.85 68.65 106.85C63.15 107.05 58.35 106.95 54.35 106.35C48.55 105.55 44.65 103.35 42.75 99.65C40.75 95.95 41.45 91.95 44.65 87.65C45.15 86.95 45.75 86.25 46.45 85.45C47.15 84.65 47.95 83.85 48.95 82.85C49.85 81.95 50.55 81.25 51.05 80.85ZM69.85 93.15C69.75 91.55 69.25 90.45 68.35 89.85C67.35 89.25 65.75 88.85 63.45 88.65C61.85 88.65 60.55 89.35 59.65 90.75C58.65 92.15 58.05 93.95 57.75 95.95C57.55 97.15 57.95 97.95 58.75 98.45C59.55 99.05 60.95 99.25 62.85 99.25C64.85 99.25 66.45 98.75 67.85 97.55C69.15 96.35 69.85 94.95 69.85 93.15ZM50.75 64.85C51.15 61.25 51.45 58.95 51.65 57.95C51.65 57.85 51.75 57.65 51.95 57.45C52.95 56.35 55.15 55.45 58.55 54.75C61.85 54.05 64.35 53.95 65.95 54.55C68.15 55.35 69.45 56.85 69.85 58.85C70.25 60.95 69.65 62.65 67.85 63.95C66.65 64.75 65.15 65.25 63.35 65.25C62.65 65.25 59.45 65.15 53.75 64.95C53.35 64.95 52.35 64.95 50.75 64.85ZM78.15 135.35C83.25 135.35 86.25 135.25 87.25 134.95C88.05 134.75 88.65 134.55 89.05 134.15C89.45 133.75 89.75 133.25 89.95 132.65C90.05 132.05 90.15 131.55 90.15 130.95C90.15 130.45 90.15 129.65 90.15 128.55C90.05 127.55 90.05 126.65 90.15 125.85V125.35C90.15 124.55 89.95 123.85 89.75 123.45C89.45 123.05 88.95 122.85 88.15 122.85H71.45V133.65C73.85 134.85 76.05 135.35 78.15 135.35ZM67.25 108.75C67.55 108.75 68.05 108.85 68.65 108.85C69.25 108.85 69.75 108.85 70.15 108.85C79.05 108.85 85.75 108.55 90.15 107.95C91.35 107.85 92.55 107.75 93.75 107.75C99.15 107.75 103.85 109.45 107.85 112.85C108.85 113.65 109.65 114.95 110.25 116.75C110.85 118.55 111.25 120.45 111.25 122.25C111.25 123.05 111.15 123.75 111.05 124.35C110.85 125.55 110.45 127.35 110.05 129.85C109.55 132.35 109.15 134.25 108.95 135.65C108.35 138.45 107.85 140.55 107.25 142.15C106.85 142.95 106.15 143.65 105.05 144.05C99.05 146.25 92.75 147.35 85.95 147.35C79.15 147.35 74.75 147.15 72.95 146.75C63.65 144.75 58.25 143.45 56.75 142.95C56.15 142.75 55.55 142.35 54.95 141.55C54.35 140.75 54.05 139.95 53.85 139.15C53.65 138.55 53.55 137.85 53.55 136.85C53.55 136.45 53.55 135.95 53.55 135.15C53.55 134.35 53.65 133.95 53.65 133.75C53.85 127.65 54.15 123.55 54.35 121.55C54.75 116.55 55.95 113.15 57.85 111.35C59.75 109.65 62.85 108.75 67.25 108.75Z" fill="white"/>
</svg>
