<svg width="162" height="192" viewBox="0 0 162 192" fill="none" xmlns="http://www.w3.org/2000/svg">
<rect x="0.75" y="0.75" width="160" height="190" fill="#FF961E"/>
<rect x="0.75" y="0.75" width="160" height="190" stroke="black" stroke-width="1.5"/>
<path d="M108.05 94.45C101.25 94.95 97.55 95.15 96.95 95.15L95.15 95.45C94.35 95.65 93.65 95.75 93.25 95.75C92.75 95.85 92.25 95.75 91.65 95.55C91.05 95.35 90.55 94.95 90.15 94.35C88.35 91.95 88.25 88.95 90.05 85.25C91.65 81.65 94.45 80.05 98.55 80.25C99.15 80.35 99.95 80.35 100.75 80.25C101.55 80.25 102.45 80.15 103.55 79.95C104.55 79.85 105.45 79.75 106.05 79.75V70.45V68.75V66.95C106.05 63.55 106.35 61.35 107.15 60.45C107.95 59.55 110.05 58.85 113.55 58.35C113.95 58.35 115.15 57.95 117.15 57.25C119.75 56.25 121.85 56.35 123.25 57.35C124.65 58.45 125.35 60.35 125.35 63.15C125.25 67.25 124.95 78.35 124.45 96.35C123.95 112.55 123.55 124.25 123.35 131.35C123.15 133.35 122.85 135.25 122.45 137.15C121.45 140.55 119.65 142.25 117.05 142.15C116.45 142.15 115.45 142.05 114.15 142.05C112.75 142.05 111.65 142.05 110.65 142.05C109.65 142.05 108.65 141.95 107.75 141.75C106.85 141.65 106.15 141.25 105.65 140.55C105.05 139.95 104.85 139.05 104.95 137.85C105.05 136.45 105.15 133.75 105.25 129.95C105.35 126.15 105.45 124.05 105.45 123.45C105.45 123.05 105.55 122.35 105.55 121.15C105.45 119.55 104.55 118.95 102.85 119.25C100.45 119.65 97.45 120.15 93.85 120.65C92.85 120.85 92.15 120.65 91.55 120.15C90.95 119.65 90.65 118.95 90.85 118.15C91.25 114.25 91.95 110.65 92.95 107.35C92.95 107.25 93.05 107.15 93.25 106.95C93.45 106.85 93.65 106.75 94.05 106.65C94.35 106.55 94.65 106.45 94.85 106.35C95.05 106.35 95.45 106.25 95.85 106.15C96.25 106.05 96.55 105.95 96.75 105.95C97.35 105.85 98.35 105.65 99.75 105.45C101.15 105.25 102.15 104.95 102.95 104.75C103.35 104.75 103.85 104.65 104.65 104.45C105.35 104.35 105.85 104.25 106.15 104.15C106.45 104.05 106.85 103.85 107.25 103.65C107.65 103.45 107.85 103.15 107.95 102.75C108.05 102.35 108.15 101.85 108.15 101.25C108.05 100.85 108.05 98.65 108.05 94.45ZM54.55 113.95C50.15 122.65 47.75 127.45 47.35 128.25C46.25 130.35 45.05 130.85 43.65 129.75C42.25 128.85 40.65 127.85 38.65 126.85C37.15 126.15 36.75 124.85 37.45 122.95C39.45 117.75 40.85 114.45 41.75 112.95C45.15 107.25 48.35 99.25 51.35 88.95C50.35 89.15 48.45 89.05 45.65 88.65C42.85 88.35 40.95 88.25 40.05 88.45C38.95 88.75 37.45 88.35 35.55 87.35L35.85 80.75C36.25 79.05 36.55 77.15 36.95 75.05C37.05 74.55 37.35 74.05 37.75 73.45C38.15 72.85 38.55 72.55 38.95 72.55C48.75 71.95 55.55 71.65 59.15 71.75C61.15 71.85 63.15 72.05 65.35 72.25C67.45 72.45 69.95 72.75 72.95 73.15C75.95 73.55 77.95 73.85 79.15 73.95C80.15 74.05 80.95 74.65 81.35 75.85C81.75 77.05 81.85 78.55 81.45 80.25C80.25 85.95 79.25 90.45 78.45 93.75C78.25 94.55 78.15 95.35 78.15 95.95C78.15 96.55 78.45 97.25 78.95 97.85C81.15 100.65 83.55 104.25 86.35 108.65C86.55 109.05 86.75 109.65 86.85 110.45C86.95 111.25 86.95 111.85 86.75 112.25C85.15 115.65 83.45 119.05 81.55 122.25C81.25 122.65 80.75 122.95 80.15 123.15C79.55 123.35 79.15 123.35 78.95 123.05C76.55 120.25 75.15 117.85 74.65 116.05C74.25 114.85 73.85 113.85 73.65 113.05C73.35 112.35 73.05 111.65 72.75 110.95C72.35 110.25 72.15 109.75 71.95 109.45C71.75 109.15 71.45 108.95 71.15 108.75C70.75 108.55 70.45 108.55 70.25 108.65C69.95 108.85 69.55 109.05 69.05 109.45C68.55 109.85 68.05 110.25 67.65 110.65C67.15 111.15 66.55 111.85 65.85 112.65C64.05 114.55 63.95 117.55 65.35 121.65C65.35 122.05 63.65 123.95 60.25 127.35C59.55 127.95 58.75 128.15 57.95 127.85C57.05 127.65 56.55 127.05 56.45 126.05L55.65 120.05L54.55 113.95ZM68.85 87.45C68.05 87.35 67.05 87.35 66.05 87.55C65.05 87.75 64.15 88.05 63.55 88.25L62.55 88.55C61.25 97.35 60.55 102.65 60.35 104.35C61.85 103.55 64.05 100.95 66.85 96.65C67.05 96.25 67.25 95.65 67.55 94.85C67.75 94.05 68.05 92.85 68.45 91.25C68.75 89.65 68.85 88.35 68.85 87.45Z" fill="white"/>
</svg>
