<svg width="82" height="26" viewBox="0 0 82 26" fill="none" xmlns="http://www.w3.org/2000/svg">
<path d="M17.22 10.4159V5.03992C17.22 4.64792 17.192 4.11592 17.164 3.38792C17.136 2.65992 17.108 2.12792 17.108 1.76392C17.108 1.17592 17.192 0.755921 17.36 0.475921C17.528 0.223921 17.864 0.0839212 18.312 0.0559216C19.572 -7.93934e-05 20.636 0.27992 21.532 0.839921C22.064 1.20392 22.316 1.76392 22.26 2.49192C22.148 3.49992 22.064 5.26392 22.008 7.78392C21.98 8.34392 21.924 10.0519 21.84 12.9079C21.728 15.7639 21.644 17.9479 21.588 19.4599C21.588 19.8239 21.42 21.1679 21.14 23.4919C21.084 23.8279 21 24.1079 20.86 24.2759C20.692 24.4439 20.496 24.5279 20.216 24.4719C20.076 24.4719 19.88 24.4999 19.656 24.5559C19.404 24.6119 19.236 24.6119 19.152 24.6119C18.2 24.6679 17.5 24.4719 17.108 23.9679C16.716 23.4639 16.492 22.5959 16.492 21.3359C16.492 20.5519 16.52 18.9559 16.632 16.5199C16.632 16.2399 16.576 16.0159 16.492 15.9039C16.408 15.7919 16.268 15.7639 16.044 15.7919H15.988H15.932C15.232 15.7919 14.728 15.5399 14.448 15.0919C14.168 14.6439 14.084 13.9719 14.196 13.0199C14.252 12.3479 14.364 11.8159 14.532 11.4519C14.7 11.0879 14.952 10.8359 15.288 10.7239C15.4 10.6959 16.044 10.5839 17.22 10.4159ZM27.104 5.26392C26.768 10.3319 26.572 13.0759 26.544 13.5239C26.46 14.5039 26.348 16.0159 26.18 18.0599C26.012 20.1319 25.872 21.6999 25.788 22.7639C25.732 23.6319 25.396 24.3319 24.78 24.8639C24.164 25.4239 23.576 25.5359 22.96 25.2279C22.736 25.1439 22.596 24.8639 22.512 24.3879C22.344 23.4359 22.26 22.4279 22.26 21.4199C22.26 20.8879 22.288 20.3279 22.344 19.7679C22.4 19.4319 22.4 18.7879 22.4 17.8359C22.372 16.8839 22.372 16.2399 22.4 15.9039C22.4 15.1759 22.484 13.9159 22.596 12.0959C22.708 10.2759 22.764 8.87592 22.82 7.86792C22.82 7.41992 22.82 6.69192 22.764 5.71192C22.708 4.73192 22.68 4.00392 22.708 3.49992C22.708 3.05192 22.904 2.15592 23.296 0.755921C23.324 0.643921 23.492 0.55992 23.828 0.503921C24.836 0.391921 25.48 0.363921 25.816 0.391921C25.928 0.41992 26.068 0.503921 26.236 0.67192C26.376 0.839921 26.46 1.00792 26.516 1.17592C26.572 1.59592 26.768 2.96792 27.104 5.26392ZM3.27602 3.33192L7.28002 3.63992C8.37202 3.75192 9.24002 3.83592 9.85602 3.89192C10.164 3.94792 10.444 4.17192 10.724 4.56392C11.004 4.95592 11.116 5.37592 11.06 5.79592C11.004 6.27192 10.808 7.16792 10.472 8.51192C10.388 8.79192 10.276 9.18392 10.108 9.74392C9.94002 10.3039 9.80002 10.7519 9.74402 11.0319C9.63202 11.4799 9.60402 11.8159 9.68802 12.0959C9.74402 12.3199 9.96802 12.4879 10.304 12.5719C10.752 12.7119 11.76 12.9639 13.272 13.3279C13.748 13.4399 13.916 13.7759 13.748 14.3359C13.692 14.5039 13.58 14.9799 13.412 15.7079C13.216 16.4359 13.048 16.9959 12.936 17.3599C12.544 18.3679 11.984 18.8159 11.228 18.7599C11.144 18.7599 11.088 18.7879 11.06 18.7879C10.864 18.8999 10.668 18.9559 10.472 18.9559C10.276 18.9559 10.136 18.9559 10.024 18.9279C9.91202 18.8999 9.74402 18.8159 9.57602 18.6479C9.38002 18.4799 9.26802 18.3679 9.21202 18.3119C9.15602 18.2559 9.01602 18.0879 8.84802 17.8359C8.34402 17.2759 8.03602 16.9399 7.98002 16.8279C7.81202 16.6599 7.61602 16.5759 7.39202 16.5759C7.16802 16.5759 6.94402 16.6879 6.77602 16.8839C6.38402 17.3039 6.07602 17.7519 5.79602 18.2279C5.71202 18.3679 5.29202 19.1239 4.53602 20.4959C4.28402 20.9999 3.89202 21.3079 3.33202 21.4759C2.77202 21.6439 2.21202 21.6439 1.68002 21.4479C1.12002 21.2799 0.728018 20.9439 0.504018 20.4679C0.140018 19.7959 1.76132e-05 18.8719 0.112018 17.6959C0.140018 17.3599 0.336018 17.0239 0.700018 16.7439C1.09202 16.4079 1.65202 15.9599 2.43602 15.3719C3.22002 14.7839 3.78002 14.3359 4.14402 14.0279C4.70402 13.5799 5.15202 13.1319 5.51602 12.6839C5.85202 12.2359 6.10402 11.6759 6.24402 11.0319C6.35602 10.5279 6.27202 10.1359 6.04802 9.82792C5.79602 9.54792 5.43202 9.40792 4.98402 9.43592C3.44402 9.57592 2.24002 9.21192 1.40002 8.37192C1.06402 8.09192 0.896018 7.72792 0.896018 7.30792C0.868018 6.91592 0.896018 6.04792 0.980018 4.73192C0.980018 4.64792 1.00802 4.53592 1.09202 4.42392C1.17602 4.31192 1.23202 4.19992 1.26002 4.11592C1.28802 4.03192 1.26002 3.89192 1.20402 3.72392C1.23202 3.69592 1.28802 3.63992 1.37202 3.58392C1.42802 3.52792 1.51202 3.49992 1.56802 3.47192C1.62402 3.44392 1.68002 3.41592 1.73602 3.41592C1.84802 3.41592 2.35202 3.38792 3.27602 3.38792V3.33192ZM44.324 21.2239C44.268 21.5319 44.184 22.0079 44.072 22.6239C43.96 23.2399 43.904 23.6319 43.876 23.7719C43.792 24.1919 43.54 24.4439 43.148 24.4999C42.728 24.5839 41.776 24.6399 40.264 24.6679C39.872 24.6959 39.648 24.4719 39.592 23.9959V23.3519V22.8199C39.592 22.7079 39.592 22.5679 39.592 22.4279C39.592 22.2879 39.592 22.1759 39.592 22.0919C39.564 22.0359 39.564 21.9519 39.564 21.8959C39.564 21.8399 39.536 21.7839 39.48 21.7279C39.424 21.6999 39.396 21.6719 39.368 21.6439C39.34 21.6159 39.284 21.5879 39.172 21.5599C39.06 21.5319 38.976 21.5039 38.92 21.5039C38.864 21.5039 38.752 21.4759 38.584 21.4199C38.248 21.3639 36.876 21.3079 34.468 21.2239C32.06 21.1679 30.604 21.1119 30.1 21.1119C29.764 21.1119 29.512 20.9159 29.344 20.5239C28.98 19.7399 28.952 18.7599 29.26 17.6119C29.288 17.4159 29.54 17.2759 30.016 17.1639C30.072 17.1359 30.632 17.1359 31.696 17.1359C32.76 17.1359 33.32 17.1359 33.376 17.1359C33.964 17.1359 35.7 17.0799 38.556 17.0239C41.412 16.9679 43.064 16.9119 43.568 16.8839C44.128 16.8559 45.696 16.8279 48.244 16.7999C50.792 16.7999 52.22 16.7719 52.528 16.7719C52.92 16.7719 53.256 17.0239 53.508 17.5839C53.9 18.4239 53.984 19.2359 53.76 20.0479C53.676 20.3279 53.452 20.5519 53.088 20.6639C52.668 20.8319 51.212 20.9719 48.72 21.0279C46.2 21.1119 44.912 21.1399 44.8 21.1399L44.324 21.2239ZM43.036 4.89992C39.816 4.89992 38.052 4.89992 37.772 4.87192C37.184 4.87192 36.008 4.75992 34.244 4.56392C34.104 4.56392 33.908 4.50792 33.628 4.42392C33.348 4.36792 33.152 4.31192 33.012 4.31192C32.452 4.25592 32.144 3.94792 32.144 3.38792V0.81192C32.312 0.783921 32.536 0.727921 32.872 0.67192C33.18 0.615921 33.46 0.55992 33.712 0.503921C33.964 0.475921 34.216 0.447922 34.44 0.447922C35.672 0.447922 37.436 0.475921 39.676 0.55992C40.068 0.55992 40.656 0.615921 41.412 0.67192C42.168 0.727921 42.728 0.783921 43.064 0.783921C43.344 0.81192 43.932 0.839921 44.828 0.839921C45.724 0.867921 46.424 0.895921 46.928 0.92392C47.432 0.979921 48.216 1.11992 49.28 1.39992C49.616 1.51192 49.84 1.65192 49.924 1.87592C50.008 2.09992 50.036 2.40792 49.98 2.77192C49.812 3.91992 49.672 4.70392 49.56 5.09592C49.392 5.59992 49.084 6.07592 48.636 6.46792C48.468 6.63592 48.272 6.77592 48.104 6.88792C47.908 7.02792 47.684 7.16792 47.404 7.33592C47.124 7.50392 46.928 7.64392 46.816 7.69992C48.944 9.32392 50.176 10.2199 50.512 10.4159C50.68 10.5559 50.792 10.6679 50.82 10.7799C50.848 10.8919 50.82 11.0599 50.708 11.2279C50.568 11.4519 50.4 11.7599 50.204 12.1519C49.98 12.5439 49.812 12.8519 49.7 13.0199C49.476 13.3839 49.112 13.6359 48.552 13.7759C47.992 13.9159 47.46 13.9159 46.984 13.7759C46.648 13.6919 46.34 13.5799 46.004 13.4119C45.668 13.2439 45.388 13.1039 45.192 12.9639C44.968 12.8239 44.688 12.6279 44.324 12.3759L43.54 11.8439C43.064 11.5639 42.56 11.2839 42.028 11.0599C41.524 10.8919 40.908 11.0039 40.18 11.3959C39.144 11.9559 37.912 12.6839 36.512 13.5799C36.344 13.6919 36.176 13.7479 36.036 13.8039C35.868 13.8599 35.7 13.8599 35.532 13.8599C35.336 13.8599 35.196 13.8319 35.084 13.8319C34.972 13.8319 34.804 13.8039 34.58 13.7479C34.328 13.6919 34.188 13.6639 34.132 13.6359C33.404 13.4959 32.844 13.2439 32.508 12.8519C32.172 12.4599 32.032 12.0399 32.088 11.5639C32.144 11.1159 32.396 10.6399 32.788 10.1359C32.9 10.0239 33.04 9.88392 33.236 9.77192C33.432 9.65992 33.628 9.54792 33.796 9.49192C33.964 9.43592 34.188 9.37992 34.468 9.26792C34.748 9.15592 34.944 9.07192 35.056 9.01592C35.448 8.87592 36.036 8.65192 36.848 8.37192C37.632 8.09192 38.248 7.86792 38.64 7.69992C39.032 7.53192 39.62 7.27992 40.376 6.94392C41.132 6.60792 41.58 6.38392 41.748 6.32792C42.028 6.21592 42.28 6.01992 42.476 5.79592C42.644 5.57192 42.84 5.26392 43.036 4.89992ZM81.844 21.1119C81.816 21.3359 81.816 21.6439 81.872 21.9799C81.928 22.3439 81.928 22.6799 81.928 22.9879C81.928 23.2959 81.844 23.5759 81.732 23.8279C81.508 24.2479 81.284 24.4999 81.004 24.5559C80.668 24.6399 80.276 24.7239 79.772 24.7799C79.268 24.8639 78.82 24.9199 78.456 24.9479C78.092 24.9759 77.924 24.9759 77.924 24.9479H63.14C62.636 24.9759 61.88 25.0039 60.872 25.0319C59.864 25.0599 59.108 25.0599 58.604 25.0599C58.044 25.0879 57.512 24.9759 57.008 24.7239L56.644 22.5679L57.008 21.5039C57.12 21.1679 57.344 20.9999 57.68 20.9719L59.92 20.7479C62.16 20.7479 64.568 20.6919 67.116 20.6359C66.892 20.4119 66.78 20.1599 66.78 19.9359C66.724 19.5999 66.696 19.1239 66.696 18.5079C66.668 17.8919 66.64 17.4439 66.64 17.2199C66.64 16.9959 66.668 16.8279 66.752 16.7159C66.808 16.6039 66.976 16.5479 67.228 16.5479C67.508 16.5759 68.04 16.5759 68.768 16.5759C69.496 16.5759 70 16.5479 70.308 16.5479C70.896 16.5759 71.288 16.7159 71.512 16.9959C71.736 17.2759 71.904 17.8079 72.044 18.5919C72.128 19.1799 71.988 19.8239 71.624 20.5519C74.648 20.4959 76.636 20.4399 77.532 20.3839C78.624 20.3559 79.492 20.3559 80.108 20.4119C80.276 20.4119 80.78 20.5799 81.62 20.8599C81.648 20.8879 81.704 20.9159 81.76 20.9719C81.816 21.0279 81.844 21.0839 81.844 21.1119ZM64.232 9.85592C67.452 9.68792 69.272 9.60392 69.692 9.57592C70.028 9.54792 70.56 9.51992 71.288 9.46392C72.016 9.40792 72.548 9.37992 72.94 9.35192C74.9 9.23992 76.104 9.21192 76.524 9.21192C77.168 9.23992 77.868 9.37992 78.596 9.63192C79.212 9.85592 79.604 10.0799 79.716 10.2479C79.828 10.4439 79.856 10.8359 79.744 11.4519C79.66 11.8999 79.576 12.3199 79.464 12.7679C79.352 13.2159 79.212 13.6919 79.044 14.2519C78.876 14.8119 78.764 15.2039 78.708 15.4279C78.092 15.4279 77.224 15.4559 76.048 15.4559C74.872 15.4559 73.864 15.4559 73.024 15.4559C72.184 15.4559 71.372 15.4279 70.588 15.3999C69.748 15.3719 68.852 15.3159 67.928 15.2599C66.976 15.2039 65.94 15.1199 64.764 15.0079C63.588 14.8959 62.72 14.8399 62.132 14.7839C61.908 14.7839 61.628 14.7559 61.292 14.7559C60.928 14.7559 60.732 14.7559 60.676 14.7279C59.948 14.7279 59.5 14.5879 59.332 14.3079C59.136 14.0279 59.052 13.5519 59.08 12.8239C59.108 12.4039 59.192 11.7599 59.332 10.9199L59.584 9.49192C59.612 9.18392 59.668 8.73592 59.752 8.11992C59.808 7.50392 59.864 7.05592 59.92 6.77592C60.172 4.70392 60.34 3.47192 60.452 3.07992C60.732 1.67992 61.824 1.09192 63.672 1.25992C64.596 1.42792 65.632 1.48392 66.752 1.45592C67.872 1.45592 68.88 1.28792 69.832 1.00792C70 0.951922 70.196 0.895921 70.42 0.867921C70.644 0.867921 70.868 0.867921 71.148 0.867921C71.4 0.895921 71.596 0.92392 71.764 0.92392C71.932 0.951922 72.184 0.979921 72.52 1.03592C72.856 1.09192 73.052 1.11992 73.164 1.11992C73.836 1.23192 74.788 1.39992 76.02 1.62392C77.252 1.84792 78.148 2.01592 78.708 2.09992C79.128 2.18392 79.436 2.32392 79.604 2.49192C79.772 2.65992 79.856 2.96792 79.8 3.35992C79.744 3.58392 79.688 4.00392 79.632 4.59192C79.548 5.20792 79.492 5.65592 79.436 5.96392C79.24 6.88792 78.596 7.33592 77.504 7.30792C76.888 7.30792 76.02 7.30792 74.9 7.25192C73.752 7.19592 72.94 7.16792 72.436 7.16792C70.728 7.13992 69.244 7.13992 67.956 7.19592C67.676 7.19592 67.228 7.25192 66.668 7.33592C66.108 7.44792 65.688 7.47592 65.408 7.47592C65.044 7.47592 64.792 7.55992 64.624 7.67192C64.456 7.78392 64.372 8.00792 64.372 8.31592C64.372 8.37192 64.316 8.90392 64.232 9.85592Z" fill="#FF961E"/>
</svg>
