<svg width="162" height="192" viewBox="0 0 162 192" fill="none" xmlns="http://www.w3.org/2000/svg">
<rect x="0.75" y="0.75" width="160" height="190" fill="white"/>
<rect x="0.75" y="0.75" width="160" height="190" stroke="black" stroke-width="1.5"/>
<path d="M126.954 90.515H83.7991V102.17H113.829V120.86H52.9291V132.2H116.559V136.4H47.6791V116.66H108.579V106.37H47.6791V102.17H78.5491V90.515H34.5541V86.315H126.954V90.515ZM115.194 61.115C115.194 70.25 102.699 77.6 80.7541 77.6C58.9141 77.6 46.3141 70.25 46.3141 61.115C46.3141 51.98 58.9141 44.735 80.7541 44.735C102.699 44.735 115.194 52.61 115.194 61.115ZM109.734 61.115C109.734 53.87 97.2391 48.935 80.7541 48.935C64.0591 48.935 51.7741 53.87 51.7741 61.115C51.7741 68.15 64.0591 73.295 80.7541 73.295C97.2391 73.295 109.734 68.15 109.734 61.115Z" fill="black"/>
</svg>
