<svg width="162" height="192" viewBox="0 0 162 192" fill="none" xmlns="http://www.w3.org/2000/svg">
<rect x="0.75" y="0.75" width="160" height="190" fill="white"/>
<rect x="0.75" y="0.75" width="160" height="190" stroke="black" stroke-width="1.5"/>
<path d="M55.1341 107H60.3841V131.15H118.134V135.35H55.1341V107ZM113.829 78.02V112.25H108.579V45.05H113.829V73.82H128.319V78.02H113.829ZM68.8891 58.805C68.8891 78.65 89.8891 92.195 97.1341 95.765L93.7741 99.65C90.6241 98.495 72.5641 85.895 66.2641 70.46C59.7541 89.36 42.3241 99.545 39.1741 101.12L35.0791 97.76C43.1641 94.82 63.6391 78.86 63.6391 58.805V48.2H68.8891V58.805Z" fill="black"/>
</svg>
