<svg width="162" height="192" viewBox="0 0 162 192" fill="none" xmlns="http://www.w3.org/2000/svg">
<rect x="0.75" y="0.75" width="160" height="190" fill="white"/>
<rect x="0.75" y="0.75" width="160" height="190" stroke="black" stroke-width="1.5"/>
<path d="M82.3291 69.2C82.3291 60.065 76.0291 52.925 63.8491 52.925C51.8791 52.925 45.3691 60.275 45.3691 69.2C45.3691 78.23 51.9841 85.475 63.8491 85.475C75.9241 85.475 82.3291 78.23 82.3291 69.2ZM87.8941 66.05H112.254V45.05H117.504V93.98H112.254V70.25H88.1041C87.4741 81.59 77.8141 90.2 63.8491 90.2C49.5691 90.2 39.5941 81.065 39.5941 69.2C39.5941 57.335 49.4641 47.99 63.8491 47.99C76.8691 47.99 86.2141 55.76 87.8941 66.05ZM120.444 136.4H54.5041V115.82H112.359V104.375H53.9791V100.175H117.609V120.02H59.7541V132.2H120.444V136.4Z" fill="black"/>
</svg>
