<svg width="378" height="45" viewBox="0 0 378 45" fill="none" xmlns="http://www.w3.org/2000/svg">
<rect x="0.5" y="0.5" width="377" height="44" fill="white"/>
<rect x="0.5" y="0.5" width="377" height="44" stroke="black"/>
<path d="M32.425 23.775H30.775V10.075H32.425V15.275H35.825V16.675H32.425V23.775ZM25.15 32.675C20.25 32.675 17.3 30.875 17.3 28.425C17.3 26 20.25 24.2 25.15 24.2C30 24.2 32.95 26 32.95 28.425C32.95 30.875 30 32.675 25.15 32.675ZM25.15 25.55C21.575 25.55 18.975 26.625 18.975 28.425C18.975 30.25 21.575 31.325 25.15 31.325C28.7 31.325 31.3 30.25 31.3 28.425C31.3 26.625 28.7 25.55 25.15 25.55ZM25.75 21.525H15.2V10.85H16.875V14.8H24.075V10.85H25.75V21.525ZM24.075 20.175V16.125H16.875V20.175H24.075ZM52.123 14.525H38.448V13.225H52.123V14.525ZM48.823 11.475H41.698V10.175H48.823V11.475ZM45.323 22.975C41.873 22.975 39.648 21.35 39.648 19.35C39.648 17.35 41.873 15.725 45.323 15.725C48.748 15.725 50.998 17.35 50.998 19.35C50.998 21.35 48.748 22.975 45.323 22.975ZM45.323 17C42.798 17 41.323 18 41.323 19.35C41.323 20.725 42.798 21.725 45.323 21.725C47.848 21.725 49.323 20.7 49.323 19.35C49.323 18 47.848 17 45.323 17ZM49.398 32.675C44.523 32.675 41.548 31 41.548 28.725C41.548 26.475 44.523 24.8 49.398 24.8C54.273 24.8 57.223 26.475 57.223 28.725C57.223 31 54.273 32.675 49.398 32.675ZM49.398 26.05C45.798 26.05 43.248 27.05 43.248 28.725C43.248 30.425 45.798 31.4 49.398 31.4C52.973 31.4 55.548 30.425 55.548 28.725C55.548 27.05 52.973 26.05 49.398 26.05ZM56.698 24.6H55.023V10.075H56.698V14.075H59.973V15.425H56.698V18.7H59.973V20.05H56.698V24.6ZM63.4461 27.75L62.3461 26.625C66.2711 24.825 68.9461 22.1 70.5211 18.9C69.0211 19.075 67.2711 19.1 65.6711 19.1H62.9461V17.775H65.5461C67.3711 17.775 69.4961 17.7 71.1461 17.5C71.7461 16.05 72.0961 14.5 72.2711 12.9H63.7211V11.55H74.1211C73.8211 19.075 69.5961 24.775 63.4461 27.75ZM80.7711 32.3H79.0961V10.075H80.7711V32.3ZM107.444 29.375H85.5941V28.025H95.7941V23.3H88.6691V16.625H102.394V12.65H88.6691V11.3H104.044V17.95H90.3441V21.925H104.769V23.3H97.4941V28.025H107.444V29.375ZM137.248 32.05H119.848V30.75H123.273L123.148 25.55H120.373V24.25H136.748V25.55H133.948L133.823 30.75H137.248V32.05ZM132.148 30.75L132.273 25.55H124.798L124.923 30.75H132.148ZM139.448 21.625H117.648V20.275H127.848V17H120.698V10.15H122.373V15.675H136.923V17H129.548V20.275H139.448V21.625ZM160.746 25.025H153.996C153.996 28.05 158.246 30.4 161.896 31.05C161.646 31.475 161.321 31.875 161.021 32.3C157.571 31.625 154.146 29.625 153.071 27.375C152.071 29.625 148.621 31.625 145.121 32.3C144.871 31.875 144.571 31.475 144.296 31.05C147.921 30.4 152.196 28.05 152.196 25.025H145.446V23.675H160.746V25.025ZM157.696 18.1V19.45C155.121 20.025 151.021 20.325 147.546 20.325H143.371V10.725H145.021V18.95H147.546C150.921 18.95 154.946 18.65 157.696 18.1ZM160.446 22.475H158.796V10.075H160.446V14.175H163.846V15.55H160.446V22.475ZM185.32 32.3H183.645V10.075H185.32V32.3ZM167.02 19.125C167.02 13.8 169.47 10.675 172.72 10.675C175.995 10.675 178.42 13.8 178.42 19.125C178.42 24.475 175.995 27.6 172.72 27.6C169.47 27.6 167.02 24.475 167.02 19.125ZM176.745 19.125C176.745 14.55 175.07 12.025 172.72 12.025C170.395 12.025 168.695 14.55 168.695 19.125C168.695 23.725 170.395 26.25 172.72 26.25C175.07 26.25 176.745 23.725 176.745 19.125ZM208.668 18.675H192.693V13.975H206.468V11.9H192.693V10.625H208.118V15.2H194.368V17.375H208.668V18.675ZM211.443 21.875H189.643V20.6H211.443V21.875ZM208.893 32.05H192.668V27.275H206.668V25.2H192.668V23.925H208.343V28.525H194.343V30.75H208.893V32.05ZM229.797 24.725V26.075C228.622 26.275 226.597 26.4 225.547 26.4H223.147V11.55H229.672V12.9H224.797V25.025H225.597C226.622 25.025 228.597 24.925 229.797 24.725ZM237.997 24.575V25.925C236.522 26.225 234.547 26.4 233.222 26.4H230.672V11.55H236.972V12.9H232.297V25.025H233.147C234.447 25.025 236.422 24.9 237.997 24.575ZM240.772 32.3H239.097V10.075H240.772V18H244.022V19.425H240.772V32.3ZM264.12 32.3H262.47V10.075H264.12V18.5H267.87V19.925H264.12V32.3ZM261.395 24.7V26.075C258.595 26.625 254.22 26.9 250.87 26.9H247.145V18.375H256.145V12.775H247.145V11.425H257.82V19.7H248.845V25.525H250.87C254.22 25.525 258.395 25.275 261.395 24.7ZM281.743 15.8H270.168V14.45H281.743V15.8ZM279.068 12.225H272.793V10.875H279.068V12.225ZM289.868 32.3H288.193V20.55H284.843V31.25H283.218V10.45H284.843V19.075H288.193V10.075H289.868V32.3ZM270.943 22.6C270.943 19.775 273.143 17.65 275.918 17.65C278.718 17.65 280.943 19.775 280.943 22.6C280.943 25.425 278.718 27.55 275.918 27.55C273.143 27.55 270.943 25.425 270.943 22.6ZM279.318 22.6C279.318 20.5 277.993 18.95 275.918 18.95C273.893 18.95 272.568 20.5 272.568 22.6C272.568 24.675 273.893 26.25 275.918 26.25C277.993 26.25 279.318 24.675 279.318 22.6ZM315.491 29.225H293.641V27.875H303.691V22.75H296.716V11.175H298.391V15.25H310.691V11.175H312.366V22.75H305.416V27.875H315.491V29.225ZM310.691 21.4V16.575H298.391V21.4H310.691ZM330.189 25.75L329.114 26.9C326.664 25.175 324.739 22.575 323.964 20.05C323.239 22.85 321.189 25.675 318.289 27.7L317.114 26.675C320.664 24.475 323.089 20.225 323.089 15.4V11.2H324.814V15.4C324.814 20.35 327.364 23.975 330.189 25.75ZM333.439 31.25H331.814V18.625H327.414V17.25H331.814V10.45H333.439V31.25ZM337.964 32.3H336.314V10.075H337.964V32.3ZM352.537 22.55C347.687 22.55 344.362 19.95 344.362 16.55C344.362 13.125 347.687 10.525 352.537 10.525C357.412 10.525 360.762 13.125 360.762 16.55C360.762 19.95 357.412 22.55 352.537 22.55ZM352.537 11.875C348.862 11.875 346.012 13.75 346.012 16.55C346.012 19.35 348.862 21.2 352.537 21.2C356.237 21.2 359.087 19.35 359.087 16.55C359.087 13.75 356.237 11.875 352.537 11.875ZM363.487 29.225H341.637V27.875H346.962V23.05H348.662V27.875H356.412V23.05H358.112V27.875H363.487V29.225Z" fill="black"/>
</svg>
