<svg width="458" height="45" viewBox="0 0 458 45" fill="none" xmlns="http://www.w3.org/2000/svg">
<rect x="0.5" y="0.5" width="457" height="44" fill="white"/>
<rect x="0.5" y="0.5" width="457" height="44" stroke="black"/>
<path d="M35.45 29.05H13.6V27.7H35.45V29.05ZM34.4 22.05L33.45 23.25C29.5 21.95 25.925 19.4 24.5 16.175C23.1 19.4 19.525 21.95 15.575 23.25L14.6 22.05C18.9 20.825 23.625 17.25 23.625 13.1V11H25.4V13.1C25.4 17.25 30.1 20.825 34.4 22.05ZM50.298 24.675V26.025C48.248 26.275 45.198 26.4 42.998 26.4H37.898V25.025H40.573L40.473 13.05H38.273V11.7H49.448V13.05H47.298L47.173 24.925C48.273 24.875 49.373 24.8 50.298 24.675ZM45.548 25L45.648 13.05H42.098L42.223 25.025H42.998C43.748 25.025 44.648 25.025 45.548 25ZM53.273 31.25H51.673V19.4H48.523V18.025H51.673V10.45H53.273V31.25ZM57.423 32.3H55.773V10.075H57.423V32.3ZM81.2961 32.3H79.6211V10.075H81.2961V32.3ZM62.9961 19.125C62.9961 13.8 65.4461 10.675 68.6961 10.675C71.9711 10.675 74.3961 13.8 74.3961 19.125C74.3961 24.475 71.9711 27.6 68.6961 27.6C65.4461 27.6 62.9961 24.475 62.9961 19.125ZM72.7211 19.125C72.7211 14.55 71.0461 12.025 68.6961 12.025C66.3711 12.025 64.6711 14.55 64.6711 19.125C64.6711 23.725 66.3711 26.25 68.6961 26.25C71.0461 26.25 72.7211 23.725 72.7211 19.125ZM107.444 29.05H85.5941V27.7H107.444V29.05ZM106.394 22.05L105.444 23.25C101.494 21.95 97.9191 19.4 96.4941 16.175C95.0941 19.4 91.5191 21.95 87.5691 23.25L86.5941 22.05C90.8941 20.825 95.6191 17.25 95.6191 13.1V11H97.3941V13.1C97.3941 17.25 102.094 20.825 106.394 22.05ZM121.767 26.65H111.092V11.3H112.792V17.2H120.092V11.3H121.767V26.65ZM120.092 25.3V18.525H112.792V25.3H120.092ZM128.067 32.3H126.417V10.075H128.067V18.475H131.817V19.9H128.067V32.3ZM152.64 18.675H136.665V13.975H150.44V11.9H136.665V10.625H152.09V15.2H138.34V17.375H152.64V18.675ZM155.415 21.875H133.615V20.6H155.415V21.875ZM152.865 32.05H136.64V27.275H150.64V25.2H136.64V23.925H152.315V28.525H138.315V30.75H152.865V32.05ZM184.895 32.05H168.67V26.775H182.67V24.25H168.67V22.925H175.67V20.2H165.645V18.875H187.445V20.2H177.395V22.925H184.345V28.025H170.345V30.725H184.895V32.05ZM184.92 16.4H168.695V10.125H170.37V15.1H184.92V16.4ZM208.793 32.3H207.118V19.025H202.818V17.625H207.118V10.075H208.793V32.3ZM205.243 24.7V26.075C202.468 26.625 198.093 26.9 194.743 26.9H191.443V18.375H199.643V12.775H191.443V11.425H201.318V19.7H193.093V25.525H194.743C198.093 25.525 202.293 25.275 205.243 24.7ZM236.497 25.875L235.472 27.075C232.497 25.45 229.722 22.425 228.822 19.575C227.897 22.725 225.522 25.625 222.122 27.725L220.972 26.675C224.872 24.425 227.872 20.55 227.872 15.25V11.05H229.672V15.25C229.672 20.35 232.997 24.15 236.497 25.875ZM240.397 32.3H238.722V10.075H240.397V18.675H244.147V20.1H240.397V32.3ZM264.82 21.05H248.72V10.775H264.345V12.125H250.395V15.2H264.245V16.525H250.395V19.675H264.82V21.05ZM267.495 25H257.42V32.3H255.695V25H245.645V23.65H267.495V25ZM288.818 32.3H287.143V10.075H288.818V32.3ZM285.968 24.7V26.075C283.168 26.625 278.793 26.9 275.418 26.9H271.468V18.375H280.443V12.775H271.468V11.425H282.143V19.7H273.118V25.525H275.418C278.793 25.525 282.968 25.275 285.968 24.7ZM312.691 18.675H296.716V13.975H310.491V11.9H296.716V10.625H312.141V15.2H298.391V17.375H312.691V18.675ZM315.466 21.875H293.666V20.6H315.466V21.875ZM312.916 32.05H296.691V27.275H310.691V25.2H296.691V23.925H312.366V28.525H298.366V30.75H312.916V32.05ZM346.145 31.95H330.445V24.55H332.12V30.6H346.145V31.95ZM345.32 26.55H343.645V16.25H338.07V14.85H343.645V10.075H345.32V26.55ZM340.645 21.125L339.645 22.4C336.945 21.275 334.37 19.125 333.32 16.825C332.42 19.275 329.87 21.7 326.795 23.125L325.745 22C329.37 20.45 332.395 17.225 332.395 13.425V10.65H334.17V13.425C334.17 16.975 337.32 19.9 340.645 21.125ZM369.493 23.675H367.843V17.225H364.268V23.675H362.643V10.45H364.268V15.8H367.843V10.075H369.493V23.675ZM369.443 32.425H367.768V26.275H353.693V24.9H369.443V32.425ZM361.568 20.7V22C359.543 22.35 356.543 22.55 353.943 22.55H351.143V11.025H359.993V12.325H352.818V16.1H359.693V17.375H352.818V21.2H353.943C356.543 21.2 359.468 21.05 361.568 20.7ZM384.666 12.075H377.741V10.725H384.666V12.075ZM392.566 32.3H390.916V10.075H392.566V19.25H396.166V20.675H392.566V32.3ZM386.966 22.95C386.966 25.875 384.666 28.225 381.291 28.225C377.916 28.225 375.616 25.875 375.616 22.95C375.616 20.025 377.916 17.65 381.291 17.65C384.666 17.65 386.966 20 386.966 22.95ZM385.316 22.95C385.316 20.6 383.741 18.975 381.316 18.975C378.866 18.975 377.291 20.575 377.291 22.95C377.291 25.3 378.866 26.9 381.316 26.9C383.741 26.9 385.316 25.3 385.316 22.95ZM388.091 15.775H374.366V14.425H388.091V15.775ZM410.214 25.75L409.139 26.9C406.689 25.175 404.764 22.575 403.989 20.05C403.264 22.85 401.214 25.675 398.314 27.7L397.139 26.675C400.689 24.475 403.114 20.225 403.114 15.4V11.2H404.839V15.4C404.839 20.35 407.389 23.975 410.214 25.75ZM413.464 31.25H411.839V18.625H407.439V17.25H411.839V10.45H413.464V31.25ZM417.989 32.3H416.339V10.075H417.989V32.3ZM432.563 22.55C427.713 22.55 424.388 19.95 424.388 16.55C424.388 13.125 427.713 10.525 432.563 10.525C437.438 10.525 440.788 13.125 440.788 16.55C440.788 19.95 437.438 22.55 432.563 22.55ZM432.563 11.875C428.888 11.875 426.038 13.75 426.038 16.55C426.038 19.35 428.888 21.2 432.563 21.2C436.263 21.2 439.113 19.35 439.113 16.55C439.113 13.75 436.263 11.875 432.563 11.875ZM443.513 29.225H421.663V27.875H426.988V23.05H428.688V27.875H436.438V23.05H438.138V27.875H443.513V29.225Z" fill="black"/>
</svg>
