<svg width="1065" height="125" viewBox="0 0 1065 125" fill="none" xmlns="http://www.w3.org/2000/svg">
<rect x="0.5" y="0.5" width="1064" height="124" fill="white"/>
<rect x="0.5" y="0.5" width="1064" height="124" stroke="black"/>
<path d="M77.7393 29.2H81.2393V90.8H77.7393V29.2ZM36.0893 40.4V73.93H57.7893V40.4H36.0893ZM32.5893 37.6H61.2893V76.73H32.5893V37.6ZM129.184 30.6H132.684V55.66H143.184V29.2H146.684V90.8H143.184V58.46H132.684V88H129.184V30.6ZM126.384 75.61C120.644 76.59 111.964 77.43 102.234 77.43H95.9338V55.52H115.184V39.28H95.7938V36.48H118.684V58.32H99.4338V74.63H103.634C112.244 74.63 120.084 73.86 126.384 72.95V75.61ZM180.068 36.48C171.598 36.48 166.908 41.94 166.908 48.38C166.908 54.82 171.598 60.28 180.068 60.28C188.538 60.28 193.228 54.82 193.228 48.38C193.228 41.94 188.538 36.48 180.068 36.48ZM180.068 33.47C189.938 33.47 196.938 40.19 196.938 48.38C196.938 56.57 189.938 63.29 180.068 63.29C170.198 63.29 163.198 56.57 163.198 48.38C163.198 40.19 170.198 33.47 180.068 33.47ZM208.628 29.2H212.128V90.8H208.628V29.2ZM206.248 74.91C201.628 75.61 188.958 76.45 181.678 76.66C173.138 76.87 163.128 76.8 158.928 76.8V73.93C162.218 73.93 174.398 74.07 181.608 73.86C189.028 73.65 201.418 72.95 206.248 72.04V74.91ZM287.136 75.19L284.686 77.71C282.376 76.31 269.566 68.05 265.996 54.61C263.476 68.05 250.386 77.5 247.446 79.04L244.646 76.66C250.946 73.3 264.246 64.06 264.246 44.32V33.05H267.746V44.32C267.746 64.34 283.706 73.23 287.136 75.19ZM307.296 57.2H297.496V90.8H293.996V29.2H297.496V54.4H307.296V57.2ZM320.94 46.63V56.22H361.89V59.02H317.44V32H361.33V34.8H320.94V43.83H361.19V46.63H320.94ZM370.29 67.28V70.08H341.38V90.8H337.88V70.08H308.69V67.28H370.29ZM424.185 29.2H427.685V90.8H424.185V29.2ZM418.725 75.82C415.015 76.45 405.915 77.78 391.215 77.78H378.615V55.1H405.215V38.79H378.615V35.99H408.715V57.9H382.115V74.98H390.655C405.355 74.98 415.295 73.65 418.725 73.02V75.82ZM446.229 70.78H449.729V86.6H493.479V89.4H446.229V70.78ZM499.079 62.1V64.9H437.479V62.1H499.079ZM449.729 29.9V48.1H491.379V50.9H446.229V29.9H449.729ZM557.216 56.64C557.216 46.14 553.226 37.46 545.526 37.46C537.826 37.46 533.696 46.07 533.696 56.64C533.696 67.35 537.826 75.96 545.526 75.96C553.226 75.96 557.216 67.28 557.216 56.64ZM560.786 54.75H577.796V29.2H581.296V90.8H577.796V57.55H560.856C560.576 70.57 554.626 79.18 545.456 79.18C536.146 79.18 530.056 70.22 530.056 56.71C530.056 43.13 536.146 34.24 545.456 34.24C554.346 34.24 560.226 42.29 560.786 54.75ZM604.041 70.5H607.541V86.6H647.791V89.4H604.041V70.5ZM642.541 46.84V29.2H646.041V74H642.541V49.64H630.641V46.84H642.541ZM615.941 34.03H633.441V36.83H619.441V61.68H621.121C625.041 61.68 633.231 60.91 637.641 60.21V63.01C632.741 63.78 625.951 64.48 618.111 64.48H615.941V34.03ZM613.911 63.22C608.941 63.99 603.551 64.55 597.881 64.55H595.641V34.03H612.371V36.83H599.141V61.75H601.101C604.251 61.75 609.851 61.12 613.911 60.49V63.22ZM692.138 59.93H728.748V38.72H692.138V59.93ZM711.948 62.73V78.83H741.208V81.63H679.608V78.83H708.448V62.73H688.638V35.92H732.248V62.73H711.948ZM752.753 90.1V65.46H756.253V73.65H793.353V65.46H796.853V90.1H752.753ZM756.253 87.3H793.353V76.45H756.253V87.3ZM805.603 57.83V60.63H744.003V57.83H805.603ZM774.733 37.32C772.073 44.88 758.003 51.04 750.373 52.79L748.133 50.41C759.473 47.61 772.773 41.31 772.773 32.35V30.39H776.693V32.35C776.693 41.59 792.093 48.66 801.333 50.34L799.093 52.72C790.833 51.46 778.303 44.81 774.733 37.32ZM866.217 90.1H822.397V76.17H860.967V68.12H822.397V65.32H864.467V78.97H825.897V87.3H866.217V90.1ZM860.897 29.2H864.397V61.82H860.897V29.2ZM844.447 45.3C844.447 53.21 837.867 59.3 828.277 59.3C818.757 59.3 812.107 53.21 812.107 45.3C812.107 37.39 818.687 31.16 828.277 31.16C837.867 31.16 844.447 37.46 844.447 45.3ZM840.597 45.3C840.597 39.21 836.397 34.45 828.277 34.45C820.297 34.45 815.957 39.35 815.957 45.3C815.957 51.32 820.367 56.15 828.277 56.15C836.327 56.15 840.597 51.32 840.597 45.3ZM927.742 59.3V90.8H924.242V29.2H927.742V56.36H937.192V59.3H927.742ZM898.552 37.6H914.512C913.882 56.29 905.202 71.2 894.772 81.28L891.692 79.6C898.902 73.3 911.082 56.5 910.592 40.4H898.552V37.6ZM895.822 37.6C895.332 52.23 888.962 66.79 877.902 77.29L874.892 75.75C888.192 63.57 891.902 48.24 891.972 40.4H878.042V37.6H895.822ZM991.156 48.03C991.156 56.64 982.056 63.15 967.986 63.15C953.846 63.15 944.816 56.64 944.816 48.03C944.816 39.56 953.846 32.91 967.986 32.91C982.056 32.91 991.156 39.63 991.156 48.03ZM998.786 82.4H937.186V79.6H954.616V64.41H958.116V79.6H977.786V64.41H981.286V79.6H998.786V82.4ZM987.376 48.03C987.376 40.75 978.486 35.99 967.986 35.99C957.486 35.99 948.596 40.75 948.596 48.03C948.596 55.52 957.486 60.07 967.986 60.07C978.696 60.07 987.376 55.52 987.376 48.03ZM1003.4 47.4C1002.91 39.07 1008.02 30.53 1020.13 30.53C1030.84 30.53 1038.19 38.86 1035.67 48.1C1032.94 58.39 1021.32 58.95 1021.32 68.4V75.61H1018.1V68.61C1018.1 57.55 1031.61 55.94 1032.94 46.28C1034.2 37.53 1027.13 33.19 1019.85 33.19C1010.26 33.19 1005.92 40.05 1006.41 47.4H1003.4ZM1022.93 84.22V90.31H1016.7V84.22H1022.93Z" fill="black"/>
</svg>
