<svg width="540" height="540" viewBox="0 0 540 540" fill="none" xmlns="http://www.w3.org/2000/svg">
<rect x="0.5" y="0.5" width="539" height="539" fill="white" stroke="black"/>
<path d="M34.8295 28.68C37.4295 29.84 40.0695 32.4 39.9895 36C39.9095 40.76 36.3095 44.32 30.5095 44.32C24.8695 44.32 20.8695 40.36 20.9895 35.56H22.7495C22.7095 38.88 25.2695 42.56 30.6695 42.56C34.9095 42.56 38.1495 39.76 38.1895 35.96C38.1895 32.48 34.8295 30.12 32.7495 29.8C31.3895 29.64 29.7895 29.6 28.7495 29.6V27.96C29.7895 27.96 31.3495 28.08 32.7495 27.68C35.1495 27 36.9895 25.28 37.1495 22.36C37.2695 18.88 34.4295 16.56 30.4695 16.56C26.0695 16.56 23.9095 19.56 23.9095 22.36H22.1095C21.9495 19 24.9495 14.8 30.6295 14.8C35.3895 14.8 39.1095 18.2 39.0295 22.24C38.9895 25.92 36.6695 27.92 34.8295 28.68Z" fill="black"/>
<rect x="0.5" y="0.5" width="59" height="59" stroke="black"/>
<path d="M248.305 263.01V237.6H251.805V295H248.305V265.95H237.105V263.01H248.305ZM260.905 236.2H264.405V297.8H260.905V236.2ZM224.225 255.1H210.645V252.3H240.885V255.1H227.725V258.6C227.725 271.62 238.015 280.02 242.635 282.4L240.395 285.06C239.205 284.36 228.775 277.29 225.975 267C223.525 277.5 211.695 285.69 209.525 286.74L206.795 284.29C208.825 283.38 224.225 274.49 224.225 258.6V255.1ZM216.875 241.1H234.655V244.04H216.875V241.1ZM289.25 280.79V294.3H324.25V280.79H289.25ZM327.75 297.1H285.75V277.99H327.75V297.1ZM311.86 254.05H324.25V236.2H327.75V273.79H324.25V256.85H311.86V254.05ZM294.01 255.17C286.17 255.17 281.83 258.18 281.83 262.17C281.83 266.16 286.17 268.96 294.01 268.96C301.92 268.96 306.19 266.16 306.19 262.17C306.19 258.18 301.92 255.17 294.01 255.17ZM294.01 252.51C303.95 252.51 309.9 256.64 309.9 262.24C309.9 267.84 303.88 271.83 293.94 271.83C284 271.83 278.12 267.84 278.12 262.24C278.12 256.64 284.07 252.51 294.01 252.51ZM274.83 245.37H313.19V248.17H274.83V245.37ZM283.51 237.25H303.74V240.05H283.51V237.25Z" fill="black"/>
</svg>
