<svg width="540" height="540" viewBox="0 0 540 540" fill="none" xmlns="http://www.w3.org/2000/svg">
<rect x="0.5" y="0.5" width="539" height="539" fill="white" stroke="black"/>
<path d="M40.2695 43.24H22.2695C22.4695 40.08 22.3495 36.6 27.9895 32.68L32.7095 29.4C35.1095 27.76 37.2295 26.16 37.3895 23.08C37.6295 19.68 34.7095 16.68 30.2695 16.68C26.1495 16.68 23.4295 19.64 23.4695 23.2H21.8295C21.5895 19.4 24.9495 14.92 30.3895 14.92C35.7495 14.92 39.5095 18.76 39.1895 23.08C38.9095 27.48 36.2695 29.08 33.1095 31.28L28.5095 34.44C25.4295 36.52 24.5095 39.24 24.2695 41.88H40.2695V43.24Z" fill="black"/>
<rect x="0.5" y="0.5" width="59" height="59" stroke="black"/>
<path d="M119.18 236.2H122.68V297.8H119.18V236.2ZM87.1901 246.35H71.4401V243.55H106.93V246.35H90.6901V253.14C90.6901 271.41 104.76 280.65 107.84 282.26L105.67 285.06C103.64 283.87 91.6001 275.61 88.9401 262.52C86.4901 275.4 73.8901 284.85 70.7401 286.74L68.0801 284.36C75.2901 281 87.1901 269.1 87.1901 253.14V246.35ZM163.205 253.28C163.205 246.84 158.725 241.66 150.395 241.66C142.135 241.66 137.585 246.84 137.585 253.28C137.585 259.72 142.135 264.9 150.395 264.9C158.725 264.9 163.205 259.72 163.205 253.28ZM164.605 245.3H182.525V236.2H186.025V273.23H182.525V260.84H164.885C162.085 265.25 156.905 268.19 150.395 268.19C140.665 268.19 133.735 261.54 133.735 253.28C133.735 245.02 140.665 238.37 150.395 238.37C156.695 238.37 161.735 241.1 164.605 245.3ZM166.215 258.04H182.525V248.1H166.075C166.705 249.71 167.055 251.46 167.055 253.28C167.055 254.96 166.775 256.57 166.215 258.04ZM185.815 297.8H182.315V280.3H142.625V277.5H185.815V297.8ZM203.169 251.95V263.22H225.709V251.95H203.169ZM246.219 246.35V236.2H249.719V269.52H246.219V259.93H229.209V266.02H199.669V239H203.169V249.15H225.709V239H229.209V246.35H246.219ZM246.219 257.13V249.15H229.209V257.13H246.219ZM251.609 297.1H207.719V283.52H246.009V275.82H207.719V273.02H249.509V286.32H211.219V294.3H251.609V297.1ZM326.476 282.19L324.026 284.71C321.716 283.31 308.906 275.05 305.336 261.61C302.816 275.05 289.726 284.5 286.786 286.04L283.986 283.66C290.286 280.3 303.586 271.06 303.586 251.32V240.05H307.086V251.32C307.086 271.34 323.046 280.23 326.476 282.19ZM346.636 264.2H336.836V297.8H333.336V236.2H336.836V261.4H346.636V264.2ZM360.281 253.63V263.22H401.231V266.02H356.781V239H400.671V241.8H360.281V250.83H400.531V253.63H360.281ZM409.631 274.28V277.08H380.721V297.8H377.221V277.08H348.031V274.28H409.631ZM463.525 236.2H467.025V297.8H463.525V236.2ZM458.065 282.82C454.355 283.45 445.255 284.78 430.555 284.78H417.955V262.1H444.555V245.79H417.955V242.99H448.055V264.9H421.455V281.98H429.995C444.695 281.98 454.635 280.65 458.065 280.02V282.82Z" fill="black"/>
</svg>
