<svg width="540" height="540" viewBox="0 0 540 540" fill="none" xmlns="http://www.w3.org/2000/svg">
<rect x="0.5" y="0.5" width="539" height="539" fill="white" stroke="black"/>
<path d="M107.277 261.33V281.35H124.077V261.33H107.277ZM103.777 243.2H107.277V258.53H124.077V243.13H127.577V284.15H103.777V243.2ZM150.677 261.68V236.2H154.177V297.8H150.677V264.48H140.177V295H136.677V237.6H140.177V261.68H150.677ZM215.072 247.12V236.2H218.572V274.07H215.072V262.73H200.022V259.93H215.072V249.92H201.072V247.12H215.072ZM196.942 278.13C186.162 278.13 178.252 281.42 178.252 287.16C178.252 292.76 186.162 296.05 196.942 296.05C207.582 296.05 215.492 292.76 215.492 287.16C215.492 281.42 207.582 278.13 196.942 278.13ZM196.872 275.12C211.292 275.12 219.202 280.16 219.202 287.09C219.202 294.02 211.292 298.99 196.872 298.99C182.522 298.99 174.542 294.02 174.542 287.09C174.542 280.16 182.522 275.12 196.872 275.12ZM169.432 243.97V241.17H198.762C197.152 257.34 184.132 267.91 167.612 272.6L165.302 270.08C180.912 266.37 193.652 255.45 194.632 243.97H169.432ZM266.096 244.46C265.116 256.43 263.926 265.04 262.526 272.88H259.096C260.146 266.79 261.966 254.54 262.176 247.26H232.216V244.46H266.096ZM276.666 236.2H280.166V263.57H290.316V266.44H280.166V297.8H276.666V236.2ZM273.516 283.66C264.486 284.85 255.806 285.41 235.226 285.41H228.366V282.61H243.416V261.89H246.916V282.61C253.846 282.61 266.236 281.98 273.516 280.86V283.66ZM368.054 266.3V297.8H364.554V236.2H368.054V263.43H378.694V266.3H368.054ZM318.354 284.36C335.014 276.87 344.884 261.33 346.284 246.7H322.134V243.9H350.204C348.454 264.06 336.834 278.76 321.224 286.53L318.354 284.36ZM433.078 249.29V236.2H436.578V268.82H433.078V252.09H418.028V249.29H433.078ZM438.328 297.1H395.488V283.17H432.868V275.12H395.488V272.32H436.368V285.97H398.988V294.3H438.328V297.1ZM404.238 241.52C404.238 255.24 420.338 263.36 423.138 264.41L420.898 267C418.798 266.23 407.248 260.14 402.488 249.29C398.638 260.49 386.458 267.21 384.358 268.26L381.628 266.02C386.458 264.06 400.738 254.82 400.738 241.52V238.02H404.238V241.52Z" fill="black"/>
<path d="M32.4695 43.52H30.7095V21.92H25.3095V20.48C26.6295 20.48 27.7095 20.16 29.1895 19.16C30.3095 18.32 31.1095 17 31.1095 15.56H32.4695V43.52Z" fill="black"/>
<rect x="0.5" y="0.5" width="59" height="59" stroke="black"/>
</svg>
