<svg width="78" height="78" viewBox="0 0 78 78" fill="none" xmlns="http://www.w3.org/2000/svg">
<rect x="-0.5" y="0.5" width="51" height="51" transform="matrix(-1 0 0 1 77 26)" fill="#00B7AB" stroke="black"/>
<rect x="-0.5" y="0.5" width="51" height="51" transform="matrix(-1 0 0 1 64 13)" fill="#F6C500" stroke="black"/>
<rect x="-0.5" y="0.5" width="51" height="51" transform="matrix(-1 0 0 1 51 0)" fill="#FF0561" stroke="black"/>
<rect x="-0.5" y="0.5" width="38" height="38" transform="matrix(-1 0 0 1 64 26)" fill="#90C85F" stroke="black"/>
<rect x="-0.5" y="0.5" width="38" height="38" transform="matrix(-1 0 0 1 51 13)" fill="#FF6505" stroke="black"/>
<rect x="-0.5" y="0.5" width="25" height="25" transform="matrix(-1 0 0 1 51 26)" fill="#F1F1F1" stroke="black"/>
</svg>
