<svg width="361" height="121" viewBox="0 0 361 121" fill="none" xmlns="http://www.w3.org/2000/svg">
<rect x="0.5" y="0.5" width="90" height="120" fill="white"/>
<rect x="0.5" y="0.5" width="90" height="120" stroke="black"/>
<path d="M45.5023 68.16C35.6623 68.16 28.5223 70.98 28.5223 75.84C28.5223 80.58 35.6623 83.46 45.5023 83.46C55.2223 83.46 62.4823 80.58 62.4823 75.84C62.4823 70.98 55.2223 68.16 45.5023 68.16ZM45.5023 65.58C58.2823 65.58 65.6023 69.9 65.6023 75.84C65.6023 81.78 58.2823 86.1 45.5023 86.1C32.7823 86.1 25.4023 81.78 25.4023 75.84C25.4023 69.9 32.7823 65.58 45.5023 65.58ZM43.7023 57.54H71.9023V59.94H19.1023V57.54H40.7023V45.3H43.7023V57.54ZM59.3023 53.52C60.3223 48.72 61.6423 42.42 62.1223 37.14H25.7023V34.74H65.5423C64.5823 42.84 63.3223 49.2 62.3023 53.52H59.3023Z" fill="black"/>
<rect x="90.5" y="0.5" width="90" height="120" fill="white"/>
<rect x="90.5" y="0.5" width="90" height="120" stroke="black"/>
<path d="M142.642 55.86H154.102V32.1H157.102V84.9H154.102V58.26H142.642V55.86ZM128.242 55.5C121.822 55.5 118.102 59.82 118.102 64.92C118.102 70.02 121.822 74.28 128.242 74.28C134.722 74.28 138.442 70.02 138.442 64.92C138.442 59.82 134.722 55.5 128.242 55.5ZM128.242 53.04C136.042 53.04 141.562 58.44 141.562 64.92C141.562 71.4 136.042 76.8 128.242 76.8C120.442 76.8 114.922 71.4 114.922 64.92C114.922 58.44 120.442 53.04 128.242 53.04ZM111.802 45.24H144.742V47.64H111.802V45.24ZM119.782 35.7H136.702V38.1H119.782V35.7Z" fill="black"/>
<rect x="180.5" y="0.5" width="90" height="120" fill="white"/>
<rect x="180.5" y="0.5" width="90" height="120" stroke="black"/>
<path d="M245.302 46.56V32.1H248.302V63.3H245.302V48.96H236.302V63.3H233.302V33H236.302V46.56H245.302ZM229.702 84.24C225.442 82.02 221.242 77.76 219.562 73.62C217.642 77.64 214.102 81.54 209.422 84.24L207.262 82.56C212.482 79.8 218.002 74.16 218.002 68.34V67.02H221.002V68.34C221.002 74.16 226.702 79.68 229.702 81.12C232.462 79.5 238.162 74.16 238.162 68.34V67.02H241.162V68.34C241.162 74.16 246.682 79.74 251.902 82.5L249.742 84.18C245.542 81.66 241.342 77.7 239.542 73.5C238.102 77.52 233.422 81.96 229.702 84.24ZM215.242 48.66C209.902 48.66 206.902 51.54 206.902 54.9C206.902 58.26 209.902 61.02 215.242 61.02C220.702 61.02 223.642 58.26 223.642 54.9C223.642 51.54 220.702 48.66 215.242 48.66ZM215.242 46.26C222.442 46.26 226.822 50.16 226.822 54.9C226.822 59.64 222.442 63.36 215.242 63.36C208.102 63.36 203.662 59.64 203.662 54.9C203.662 50.16 208.102 46.26 215.242 46.26ZM202.102 40.68H228.622V43.08H202.102V40.68ZM208.522 33.78H221.842V36.18H208.522V33.78Z" fill="black"/>
<rect x="270.5" y="0.5" width="90" height="120" fill="white"/>
<rect x="270.5" y="0.5" width="90" height="120" stroke="black"/>
<path d="M329.602 32.1H332.602V53.94H341.602V56.34H332.602V84.9H329.602V32.1ZM326.002 70.5C322.402 71.04 310.882 72.18 302.962 72.18H293.602V38.88H319.402V41.28H296.602V69.78H303.142C311.902 69.78 322.402 68.76 326.002 68.1V70.5Z" fill="black"/>
</svg>
