<svg width="271" height="121" viewBox="0 0 271 121" fill="none" xmlns="http://www.w3.org/2000/svg">
<rect x="0.5" y="0.5" width="90" height="120" fill="white"/>
<rect x="0.5" y="0.5" width="90" height="120" stroke="black"/>
<path d="M63.5023 32.1H66.5023V84.9H63.5023V32.1ZM26.0023 55.62C26.0023 64.8 29.5423 72.18 36.1423 72.18C42.7423 72.18 46.1623 64.74 46.1623 55.62C46.1623 46.62 42.7423 39.18 36.1423 39.18C29.5423 39.18 26.0023 46.56 26.0023 55.62ZM22.8823 55.68C22.8823 44.04 28.1023 36.42 36.0823 36.42C44.1223 36.42 49.2823 44.04 49.2823 55.68C49.2823 67.26 44.1223 74.94 36.0823 74.94C28.1023 74.94 22.8823 67.26 22.8823 55.68Z" fill="black"/>
<rect x="90.5" y="0.5" width="90" height="120" fill="white"/>
<rect x="90.5" y="0.5" width="90" height="120" stroke="black"/>
<path d="M147.502 55.5C144.202 56.22 137.002 57.18 122.482 57.18H113.722V44.7H135.502V37.2H113.722V34.8H138.502V47.1H116.722V54.78H121.582C137.122 54.78 143.542 53.88 147.502 53.16V55.5ZM153.502 43.14V32.1H156.502V61.38H153.502V45.54H142.102V43.14H153.502ZM137.662 74.7C129.142 74.7 123.322 76.62 123.322 79.26C123.322 81.78 129.142 83.58 137.662 83.58C146.062 83.58 152.002 81.78 152.002 79.26C152.002 76.62 146.062 74.7 137.662 74.7ZM137.662 72.6C149.122 72.6 155.362 75.36 155.362 79.2C155.362 83.1 149.122 85.8 137.662 85.8C126.262 85.8 119.962 83.1 119.962 79.2C119.962 75.36 126.262 72.6 137.662 72.6ZM116.602 67.08H158.422V69.48H116.602V67.08ZM127.582 60.78H147.142V63.18H127.582V60.78Z" fill="black"/>
<rect x="180.5" y="0.5" width="90" height="120" fill="white"/>
<rect x="180.5" y="0.5" width="90" height="120" stroke="black"/>
<path d="M233.002 54V33.48H236.002V82.5H233.002V56.76H224.002V54H233.002ZM244.402 32.1H247.402V84.9H244.402V32.1ZM221.722 41.7H204.862V39.3H225.082C224.422 57.24 214.462 69.06 204.082 75.36L201.442 73.5C212.482 67.02 221.002 56.46 221.722 41.7Z" fill="black"/>
</svg>
