<svg width="91" height="121" viewBox="0 0 91 121" fill="none" xmlns="http://www.w3.org/2000/svg">
<rect x="0.5" y="0.5" width="90" height="120" fill="white"/>
<rect x="0.5" y="0.5" width="90" height="120" stroke="black"/>
<path d="M29.6023 81.9H61.4023V69.78H29.6023V81.9ZM26.6023 84.3V67.38H64.4023V84.3H26.6023ZM47.0023 36.9C47.0023 43.08 59.4823 50.46 67.8223 51.9L65.7223 54.06C58.5223 52.38 48.9223 46.68 45.5023 41.22C42.6223 45.9 35.9023 51.24 25.1023 54L23.0023 51.84C31.7023 50.34 43.9423 43.56 43.9423 36.9H26.2423V34.5H64.7023V36.9H47.0023ZM47.0023 58.68H71.9023V61.08H19.1023V58.68H44.0023V49.68H47.0023V58.68Z" fill="black"/>
</svg>
