<svg width="451" height="121" viewBox="0 0 451 121" fill="none" xmlns="http://www.w3.org/2000/svg">
<rect x="0.5" y="0.5" width="90" height="120" fill="white"/>
<rect x="0.5" y="0.5" width="90" height="120" stroke="black"/>
<path d="M31.7023 67.5H34.7023V81.3H69.2023V83.7H31.7023V67.5ZM64.7023 45.96V32.1H67.7023V70.5H64.7023V48.36H52.1023V45.96H64.7023ZM39.7423 38.28V40.98C39.7423 51.72 49.4623 57.96 54.5623 60.24L52.7023 62.46C51.3823 61.98 41.4223 57.06 38.2423 48.18C35.4223 57.18 24.5623 63 22.9423 63.72L20.8423 61.68C28.7023 58.32 36.7423 50.7 36.7423 40.98V38.28H24.1423V35.88H52.5223V38.28H39.7423Z" fill="black"/>
<rect x="90.5" y="0.5" width="90" height="120" fill="white"/>
<rect x="90.5" y="0.5" width="90" height="120" stroke="black"/>
<path d="M124.342 55.98C119.122 55.98 115.702 59.76 115.702 64.68C115.702 69.6 119.122 73.2 124.342 73.2C129.622 73.2 132.982 69.6 132.982 64.68C132.982 59.76 129.622 55.98 124.342 55.98ZM124.342 53.52C131.002 53.52 136.042 58.32 136.042 64.68C136.042 71.04 131.002 75.84 124.342 75.84C117.682 75.84 112.642 71.04 112.642 64.68C112.642 58.32 117.682 53.52 124.342 53.52ZM110.842 45.96H137.842V48.36H110.842V45.96ZM117.142 37.26H131.542V39.66H117.142V37.26ZM154.702 55.26V32.1H157.702V84.9H154.702V57.66H145.702V82.5H142.702V33.3H145.702V55.26H154.702Z" fill="black"/>
<rect x="180.5" y="0.5" width="90" height="120" fill="white"/>
<rect x="180.5" y="0.5" width="90" height="120" stroke="black"/>
<path d="M227.002 38.46C227.962 45.24 236.122 51.9 248.002 54.78L246.082 56.82C238.702 54.72 229.522 50.34 225.502 42.42C222.082 49.68 212.482 54.96 204.922 56.82L203.002 54.78C216.922 51.72 224.002 42.72 224.002 38.46V37.56H206.182V35.16H244.822V37.56H227.002V38.46ZM251.902 64.8H227.002V84.9H224.002V64.8H199.102V62.4H251.902V64.8Z" fill="black"/>
<rect x="270.5" y="0.5" width="90" height="120" fill="white"/>
<rect x="270.5" y="0.5" width="90" height="120" stroke="black"/>
<path d="M318.982 71.94L316.822 73.62C311.962 70.26 305.962 62.94 304.462 55.5C303.262 62.52 297.322 70.5 291.442 75.06L288.982 73.5C294.322 69.84 302.962 60.3 302.962 47.28V36.3H305.962V47.28C305.962 60.06 314.002 68.34 318.982 71.94ZM335.002 32.1H338.002V84.9H335.002V32.1ZM324.142 33.3H327.142V82.5H324.142V53.82H313.402V51.42H324.142V33.3Z" fill="black"/>
<rect x="360.5" y="0.5" width="90" height="120" fill="white"/>
<rect x="360.5" y="0.5" width="90" height="120" stroke="black"/>
<path d="M425.362 48.24C425.362 55.62 417.562 61.2 405.502 61.2C393.382 61.2 385.642 55.62 385.642 48.24C385.642 40.98 393.382 35.28 405.502 35.28C417.562 35.28 425.362 41.04 425.362 48.24ZM431.902 77.7H379.102V75.3H394.042V62.28H397.042V75.3H413.902V62.28H416.902V75.3H431.902V77.7ZM422.122 48.24C422.122 42 414.502 37.92 405.502 37.92C396.502 37.92 388.882 42 388.882 48.24C388.882 54.66 396.502 58.56 405.502 58.56C414.682 58.56 422.122 54.66 422.122 48.24Z" fill="black"/>
</svg>
