<svg width="271" height="121" viewBox="0 0 271 121" fill="none" xmlns="http://www.w3.org/2000/svg">
<rect x="0.5" y="0.5" width="90" height="120" fill="white"/>
<rect x="0.5" y="0.5" width="90" height="120" stroke="black"/>
<path d="M53.0023 33.42H56.0023V53.94H63.8023V32.1H66.8023V84.9H63.8023V56.34H56.0023V82.5H53.0023V33.42ZM36.8023 39.06H48.2623V41.46H39.8023V70.2H41.2423C42.5023 70.2 47.3023 69.66 50.0023 69.24V71.64C47.9023 72.06 42.5023 72.6 38.6623 72.6H36.8023V39.06ZM35.0023 71.88C33.2023 72.18 27.8623 72.6 25.5823 72.6H23.6623V39.06H33.8023V41.46H26.6623V70.2H28.3423C29.5423 70.2 33.8023 69.72 35.0023 69.54V71.88Z" fill="black"/>
<rect x="90.5" y="0.5" width="90" height="120" fill="white"/>
<rect x="90.5" y="0.5" width="90" height="120" stroke="black"/>
<path d="M119.602 50.82H151.402V36.9H119.602V50.82ZM116.602 53.22V34.5H154.402V53.22H116.602ZM116.602 69.36H119.602V81.3H156.502V83.7H116.602V69.36ZM137.602 63.54V75.9H134.602V63.54H109.102V61.14H161.902V63.54H137.602Z" fill="black"/>
<rect x="180.5" y="0.5" width="90" height="120" fill="white"/>
<rect x="180.5" y="0.5" width="90" height="120" stroke="black"/>
<path d="M222.082 56.4C222.082 47.4 218.782 40.02 213.382 40.02C207.922 40.02 204.682 47.28 204.682 56.4C204.682 65.64 207.922 72.72 213.382 72.72C218.782 72.72 222.082 65.52 222.082 56.4ZM247.102 84.9H244.102V32.1H247.102V84.9ZM225.142 53.7H233.782V33.3H236.782V82.5H233.782V56.22H225.262V56.4C225.262 68.04 220.342 75.48 213.382 75.48C206.542 75.48 201.502 68.04 201.502 56.4C201.502 44.7 206.542 37.32 213.382 37.32C219.802 37.32 224.482 43.56 225.142 53.7Z" fill="black"/>
</svg>
