<svg width="361" height="121" viewBox="0 0 361 121" fill="none" xmlns="http://www.w3.org/2000/svg">
<rect x="0.5" y="0.5" width="90" height="120" fill="white"/>
<rect x="0.5" y="0.5" width="90" height="120" stroke="black"/>
<path d="M42.4423 74.22H71.9023V76.62H19.1023V74.22H39.4423V54.54H42.4423V74.22ZM57.2023 67.86C59.3023 58.38 60.4423 49.26 60.9223 41.46H26.0023V39.06H64.1623C63.4423 50.22 62.4223 56.88 60.1423 67.86H57.2023Z" fill="black"/>
<rect x="90.5" y="0.5" width="90" height="120" fill="white"/>
<rect x="90.5" y="0.5" width="90" height="120" stroke="black"/>
<path d="M139.822 67.98C130.162 67.98 123.262 71.04 123.262 75.96C123.262 80.76 130.162 83.82 139.822 83.82C149.362 83.82 156.382 80.76 156.382 75.96C156.382 71.04 149.362 67.98 139.822 67.98ZM139.822 65.64C152.542 65.64 159.562 69.96 159.562 75.9C159.562 81.84 152.542 86.1 139.822 86.1C127.162 86.1 120.082 81.84 120.082 75.9C120.082 69.96 127.162 65.64 139.822 65.64ZM155.602 46.26V32.1H158.602V64.38H155.602V48.66H146.602V63.18H143.602V33H146.602V46.26H155.602ZM125.602 46.86C122.722 56.22 114.082 62.1 112.162 63.12L110.062 61.26C114.922 58.92 124.102 50.28 124.102 39.66V33.9H127.102V39.66C127.102 50.58 135.502 56.82 140.602 59.22L138.742 61.5C135.802 60 127.942 54.36 125.602 46.86Z" fill="black"/>
<rect x="180.5" y="0.5" width="90" height="120" fill="white"/>
<rect x="180.5" y="0.5" width="90" height="120" stroke="black"/>
<path d="M245.902 54.06V32.1H248.902V84.9H245.902V56.7H238.102V82.5H235.102V33.3H238.102V54.06H245.902ZM229.822 39.72C229.702 50.7 223.822 66.84 214.822 76.32L212.422 75.12C221.062 66.06 226.582 51.42 226.762 42.12H218.962V39.72H229.822ZM217.402 39.66C217.282 50.64 212.242 63.3 203.242 72.78L200.842 71.58C209.482 62.52 214.162 51.36 214.342 42.06H204.262V39.66H217.402Z" fill="black"/>
<rect x="270.5" y="0.5" width="90" height="120" fill="white"/>
<rect x="270.5" y="0.5" width="90" height="120" stroke="black"/>
<path d="M330.502 32.1H333.502V52.8H341.902V55.2H333.502V84.9H330.502V32.1ZM326.902 68.88C323.242 69.54 312.082 71.16 302.182 71.16H293.902V37.26H296.902V68.76H303.622C311.122 68.76 323.182 67.32 326.902 66.48V68.88Z" fill="black"/>
</svg>
