<svg width="271" height="121" viewBox="0 0 271 121" fill="none" xmlns="http://www.w3.org/2000/svg">
<rect x="0.5" y="0.5" width="90" height="120" fill="white"/>
<rect x="0.5" y="0.5" width="90" height="120" stroke="black"/>
<path d="M65.3023 46.56V32.1H68.3023V63.3H65.3023V48.96H56.3023V63.3H53.3023V33H56.3023V46.56H65.3023ZM49.7023 84.24C45.4423 82.02 41.2423 77.76 39.5623 73.62C37.6423 77.64 34.1023 81.54 29.4223 84.24L27.2623 82.56C32.4823 79.8 38.0023 74.16 38.0023 68.34V67.02H41.0023V68.34C41.0023 74.16 46.7023 79.68 49.7023 81.12C52.4623 79.5 58.1623 74.16 58.1623 68.34V67.02H61.1623V68.34C61.1623 74.16 66.6823 79.74 71.9023 82.5L69.7423 84.18C65.5423 81.66 61.3423 77.7 59.5423 73.5C58.1023 77.52 53.4223 81.96 49.7023 84.24ZM35.2423 48.66C29.9023 48.66 26.9023 51.54 26.9023 54.9C26.9023 58.26 29.9023 61.02 35.2423 61.02C40.7023 61.02 43.6423 58.26 43.6423 54.9C43.6423 51.54 40.7023 48.66 35.2423 48.66ZM35.2423 46.26C42.4423 46.26 46.8223 50.16 46.8223 54.9C46.8223 59.64 42.4423 63.36 35.2423 63.36C28.1023 63.36 23.6623 59.64 23.6623 54.9C23.6623 50.16 28.1023 46.26 35.2423 46.26ZM22.1023 40.68H48.6223V43.08H22.1023V40.68ZM28.5223 33.78H41.8423V36.18H28.5223V33.78Z" fill="black"/>
<rect x="90.5" y="0.5" width="90" height="120" fill="white"/>
<rect x="90.5" y="0.5" width="90" height="120" stroke="black"/>
<path d="M154.702 32.1H157.702V84.9H154.702V32.1ZM127.282 40.8H113.782V38.4H144.202V40.8H130.282V46.62C130.282 62.28 142.342 70.2 144.982 71.58L143.122 73.98C141.382 72.96 131.062 65.88 128.782 54.66C126.682 65.7 115.882 73.8 113.182 75.42L110.902 73.38C117.082 70.5 127.282 60.3 127.282 46.62V40.8Z" fill="black"/>
<rect x="180.5" y="0.5" width="90" height="120" fill="white"/>
<rect x="180.5" y="0.5" width="90" height="120" stroke="black"/>
<path d="M206.302 38.4V58.38H224.842V38.4H206.302ZM203.302 36H227.842V60.78H203.302V36ZM209.602 67.5H212.602V81.3H246.202V83.7H209.602V67.5ZM243.802 50.94V70.5H240.802V32.1H243.802V48.42H252.202V50.94H243.802Z" fill="black"/>
</svg>
