<svg width="181" height="121" viewBox="0 0 181 121" fill="none" xmlns="http://www.w3.org/2000/svg">
<rect x="0.5" y="0.5" width="90" height="120" fill="white"/>
<rect x="0.5" y="0.5" width="90" height="120" stroke="black"/>
<path d="M55.8223 71.52L53.7223 73.68C51.7423 72.48 40.7623 65.4 37.7023 53.88C35.5423 65.4 24.3223 73.5 21.8023 74.82L19.4023 72.78C24.8023 69.9 36.2023 61.98 36.2023 45.06V35.4H39.2023V45.06C39.2023 62.22 52.8823 69.84 55.8223 71.52ZM73.1023 56.1H64.7023V84.9H61.7023V32.1H64.7023V53.7H73.1023V56.1Z" fill="black"/>
<rect x="90.5" y="0.5" width="90" height="120" fill="white"/>
<rect x="90.5" y="0.5" width="90" height="120" stroke="black"/>
<path d="M158.962 84.3H122.302V72.36H154.762V65.46H122.062V63.06H157.762V74.76H125.302V81.9H158.962V84.3ZM154.702 32.1H157.702V60.06H154.702V32.1ZM129.682 36.66C129.682 48.42 143.302 55.2 145.702 56.1L143.782 58.32C141.982 57.66 132.262 52.62 128.182 43.32C124.882 52.92 114.442 58.68 112.642 59.58L110.302 57.66C114.442 55.98 126.682 48.06 126.682 36.66V33.66H129.682V36.66Z" fill="black"/>
</svg>
