<svg width="451" height="121" viewBox="0 0 451 121" fill="none" xmlns="http://www.w3.org/2000/svg">
<rect x="0.5" y="0.5" width="90" height="120" fill="white"/>
<rect x="0.5" y="0.5" width="90" height="120" stroke="black"/>
<path d="M24.8023 55.62C24.8023 64.8 28.3423 72.18 34.9423 72.18C41.5423 72.18 44.9623 64.74 44.9623 55.62C44.9623 46.62 41.5423 39.18 34.9423 39.18C28.3423 39.18 24.8023 46.56 24.8023 55.62ZM21.6823 55.68C21.6823 44.04 26.9023 36.42 34.8823 36.42C42.9223 36.42 48.0823 44.04 48.0823 55.68C48.0823 67.26 42.9223 74.94 34.8823 74.94C26.9023 74.94 21.6823 67.26 21.6823 55.68ZM63.8623 57.48V84.9H60.8623V32.1H63.8623V55.08H73.1023V57.48H63.8623Z" fill="black"/>
<rect x="90.5" y="0.5" width="90" height="120" fill="white"/>
<rect x="90.5" y="0.5" width="90" height="120" stroke="black"/>
<path d="M152.902 32.1H155.902V84.9H152.902V32.1ZM149.242 69C145.582 69.66 134.422 71.04 124.522 71.04H114.922V37.14H117.922V68.64H125.962C133.462 68.64 145.522 67.44 149.242 66.6V69Z" fill="black"/>
<rect x="180.5" y="0.5" width="90" height="120" fill="white"/>
<rect x="180.5" y="0.5" width="90" height="120" stroke="black"/>
<path d="M215.962 36.78C208.882 36.78 204.982 41.22 204.982 46.74C204.982 52.26 208.882 56.7 215.962 56.7C223.102 56.7 226.942 52.26 226.942 46.74C226.942 41.22 223.102 36.78 215.962 36.78ZM230.182 45.3H243.502V32.1H246.502V63H243.502V47.7H230.182C229.702 54.3 223.942 59.52 215.962 59.52C207.622 59.52 201.682 53.82 201.682 46.74C201.682 39.66 207.622 33.96 215.962 33.96C223.702 33.96 229.402 38.88 230.182 45.3ZM228.682 84.9C223.942 82.32 219.982 76.32 218.542 72.42C217.642 76.38 213.322 82.26 208.582 84.84L206.542 82.98C213.442 79.2 217.042 72.66 217.042 65.64H220.042C220.042 72.66 224.302 78.6 228.622 81.84C232.942 78.6 237.262 72.66 237.262 65.64H240.262C240.262 72.66 243.922 79.14 250.822 82.92L248.782 84.78C244.042 82.2 239.662 76.38 238.762 72.42C237.322 76.32 233.422 82.08 228.682 84.9Z" fill="black"/>
<rect x="270.5" y="0.5" width="90" height="120" fill="white"/>
<rect x="270.5" y="0.5" width="90" height="120" stroke="black"/>
<path d="M341.902 73.62V76.02H289.102V73.62H341.902ZM315.502 36.36C326.962 36.36 334.882 42.24 334.882 49.68C334.882 57.12 326.962 63 315.502 63C304.282 63 296.122 57.12 296.122 49.68C296.122 42.3 304.162 36.36 315.502 36.36ZM315.502 39.18C306.862 39.18 299.422 43.2 299.422 49.68C299.422 55.92 306.802 60.18 315.502 60.18C324.022 60.18 331.582 55.98 331.582 49.68C331.582 43.32 324.022 39.18 315.502 39.18Z" fill="black"/>
<rect x="360.5" y="0.5" width="90" height="120" fill="white"/>
<rect x="360.5" y="0.5" width="90" height="120" stroke="black"/>
<path d="M386.902 38.4V58.8H405.502V38.4H386.902ZM390.502 68.04H393.502V81.3H427.942V83.7H390.502V68.04ZM423.502 41.58V32.1H426.502V70.5H423.502V54.24H408.502V61.2H383.902V36H408.502V41.58H423.502ZM423.502 51.84V43.98H408.502V51.84H423.502Z" fill="black"/>
</svg>
