<svg width="271" height="121" viewBox="0 0 271 121" fill="none" xmlns="http://www.w3.org/2000/svg">
<rect x="0.5" y="0.5" width="90" height="120" fill="white"/>
<rect x="0.5" y="0.5" width="90" height="120" stroke="black"/>
<path d="M51.5023 33.3H54.5023V52.38H64.1023V32.1H67.1023V84.9H64.1023V54.9H54.5023V82.5H51.5023V33.3ZM48.5023 70.2C46.4023 70.5 39.5023 71.4 32.8423 71.4H24.5023V37.5H27.5023V69H33.0223C39.0823 69 46.0423 68.22 48.5023 67.86V70.2Z" fill="black"/>
<rect x="90.5" y="0.5" width="90" height="120" fill="white"/>
<rect x="90.5" y="0.5" width="90" height="120" stroke="black"/>
<path d="M154.102 32.1H157.102V70.5H154.102V32.1ZM121.102 67.5H124.102V81.3H158.602V83.7H121.102V67.5ZM126.142 36.84C119.122 36.84 115.162 41.46 115.162 47.34C115.162 53.22 119.122 57.84 126.142 57.84C133.222 57.84 137.122 53.22 137.122 47.34C137.122 41.46 133.222 36.84 126.142 36.84ZM126.142 34.02C134.482 34.02 140.422 39.96 140.422 47.34C140.422 54.72 134.482 60.66 126.142 60.66C117.802 60.66 111.862 54.72 111.862 47.34C111.862 39.96 117.802 34.02 126.142 34.02Z" fill="black"/>
<rect x="180.5" y="0.5" width="90" height="120" fill="white"/>
<rect x="180.5" y="0.5" width="90" height="120" stroke="black"/>
<path d="M229.822 67.98C220.162 67.98 213.262 71.04 213.262 75.96C213.262 80.76 220.162 83.82 229.822 83.82C239.362 83.82 246.382 80.76 246.382 75.96C246.382 71.04 239.362 67.98 229.822 67.98ZM229.822 65.64C242.542 65.64 249.562 69.96 249.562 75.9C249.562 81.84 242.542 86.1 229.822 86.1C217.162 86.1 210.082 81.84 210.082 75.9C210.082 69.96 217.162 65.64 229.822 65.64ZM245.602 46.26V32.1H248.602V64.38H245.602V48.66H236.602V63.18H233.602V33H236.602V46.26H245.602ZM215.602 46.86C212.722 56.22 204.082 62.1 202.162 63.12L200.062 61.26C204.922 58.92 214.102 50.28 214.102 39.66V33.9H217.102V39.66C217.102 50.58 225.502 56.82 230.602 59.22L228.742 61.5C225.802 60 217.942 54.36 215.602 46.86Z" fill="black"/>
</svg>
