<svg width="1282" height="312" viewBox="0 0 1282 312" fill="none" xmlns="http://www.w3.org/2000/svg">
<rect x="0.75" y="120.75" width="160" height="190" fill="white"/>
<rect x="0.75" y="120.75" width="160" height="190" stroke="black" stroke-width="1.5"/>
<path d="M113.829 198.65V165.05H119.079V257.45H113.829V202.85H89.6791V198.65H113.829ZM100.179 233.93L96.5041 237.71C93.0391 235.61 73.8241 223.22 68.4691 203.06C64.6891 223.22 45.0541 237.395 40.6441 239.705L36.4441 236.135C45.8941 231.095 65.8441 217.235 65.8441 187.625V170.72H71.0941V187.625C71.0941 217.655 95.0341 230.99 100.179 233.93Z" fill="black"/>
<rect x="160.75" y="120.75" width="160" height="190" fill="white"/>
<rect x="160.75" y="120.75" width="160" height="190" stroke="black" stroke-width="1.5"/>
<path d="M286.954 210.515H243.799V222.17H273.829V240.86H212.929V252.2H276.559V256.4H207.679V236.66H268.579V226.37H207.679V222.17H238.549V210.515H194.554V206.315H286.954V210.515ZM275.194 181.115C275.194 190.25 262.699 197.6 240.754 197.6C218.914 197.6 206.314 190.25 206.314 181.115C206.314 171.98 218.914 164.735 240.754 164.735C262.699 164.735 275.194 172.61 275.194 181.115ZM269.734 181.115C269.734 173.87 257.239 168.935 240.754 168.935C224.059 168.935 211.774 173.87 211.774 181.115C211.774 188.15 224.059 193.295 240.754 193.295C257.239 193.295 269.734 188.15 269.734 181.115Z" fill="black"/>
<rect x="320.75" y="60.75" width="160" height="190" fill="white"/>
<rect x="320.75" y="60.75" width="160" height="190" stroke="black" stroke-width="1.5"/>
<path d="M375.134 167H380.384V191.15H438.134V195.35H375.134V167ZM433.829 138.02V172.25H428.579V105.05H433.829V133.82H448.319V138.02H433.829ZM388.889 118.805C388.889 138.65 409.889 152.195 417.134 155.765L413.774 159.65C410.624 158.495 392.564 145.895 386.264 130.46C379.754 149.36 362.324 159.545 359.174 161.12L355.079 157.76C363.164 154.82 383.639 138.86 383.639 118.805V108.2H388.889V118.805Z" fill="black"/>
<rect x="480.75" y="0.75" width="160" height="190" fill="white"/>
<rect x="480.75" y="0.75" width="160" height="190" stroke="black" stroke-width="1.5"/>
<path d="M594.354 45.05H599.604V137.45H594.354V45.05ZM546.369 60.275H522.744V56.075H575.979V60.275H551.619V70.46C551.619 97.865 572.724 111.725 577.344 114.14L574.089 118.34C571.044 116.555 552.984 104.165 548.994 84.53C545.319 103.85 526.419 118.025 521.694 120.86L517.704 117.29C528.519 112.25 546.369 94.4 546.369 70.46V60.275Z" fill="black"/>
<rect x="640.75" y="60.75" width="160" height="190" fill="white"/>
<rect x="640.75" y="60.75" width="160" height="190" stroke="black" stroke-width="1.5"/>
<path d="M752.884 150.2V197.45H747.634V105.05H752.884V145.895H768.844V150.2H752.884ZM678.334 177.29C703.324 166.055 718.129 142.745 720.229 120.8H684.004V116.6H726.109C723.484 146.84 706.054 168.89 682.639 180.545L678.334 177.29Z" fill="black"/>
<rect x="800.75" y="0.75" width="160" height="190" fill="white"/>
<rect x="800.75" y="0.75" width="160" height="190" stroke="black" stroke-width="1.5"/>
<path d="M882.329 69.2C882.329 60.065 876.029 52.925 863.849 52.925C851.879 52.925 845.369 60.275 845.369 69.2C845.369 78.23 851.984 85.475 863.849 85.475C875.924 85.475 882.329 78.23 882.329 69.2ZM887.894 66.05H912.254V45.05H917.504V93.98H912.254V70.25H888.104C887.474 81.59 877.814 90.2 863.849 90.2C849.569 90.2 839.594 81.065 839.594 69.2C839.594 57.335 849.464 47.99 863.849 47.99C876.869 47.99 886.214 55.76 887.894 66.05ZM920.444 136.4H854.504V115.82H912.359V104.375H853.979V100.175H917.609V120.02H859.754V132.2H920.444V136.4Z" fill="black"/>
<rect x="960.75" y="60.75" width="160" height="190" fill="white"/>
<rect x="960.75" y="60.75" width="160" height="190" stroke="black" stroke-width="1.5"/>
<path d="M1007.15 116.075V151.04H1039.6V116.075H1007.15ZM1001.9 111.875H1044.85V155.24H1001.9V111.875ZM1012.93 167H1018.18V191.15H1076.98V195.35H1012.93V167ZM1072.78 138.02V172.25H1067.53V105.05H1072.78V133.61H1087.48V138.02H1072.78Z" fill="black"/>
<rect x="1120.75" y="60.75" width="160" height="190" fill="white"/>
<rect x="1120.75" y="60.75" width="160" height="190" stroke="black" stroke-width="1.5"/>
<path d="M1213.35 142.115V107.36H1218.6V193.25H1213.35V146.315H1193.4V142.115H1213.35ZM1233.3 105.05H1238.55V197.45H1233.3V105.05ZM1205.9 173.405C1199.6 174.35 1185.74 175.4 1174.71 175.4H1164V117.65H1196.66V121.85H1169.25V171.2H1175.03C1183.85 171.2 1199.6 170.36 1205.9 169.205V173.405Z" fill="black"/>
</svg>
