<svg width="162" height="192" viewBox="0 0 162 192" fill="none" xmlns="http://www.w3.org/2000/svg">
<rect x="0.75" y="0.75" width="160" height="190" fill="#00B7AB"/>
<rect x="0.75" y="0.75" width="160" height="190" stroke="black" stroke-width="1.5"/>
<path d="M102.271 81.725V38.045H110.881V61.67H125.581V69.44H110.881V81.41C110.881 90.44 113.401 96.005 121.801 96.005H124.426V103.775H121.696C109.096 103.775 102.271 96.425 102.271 81.725ZM37.0659 103.775V96.005C52.0809 95.585 61.1109 86.555 61.1109 72.275V57.05H69.8259V72.275C69.8259 86.45 78.7509 95.375 93.2409 95.795V103.355C80.7459 103.25 70.2459 97.37 65.5209 87.71C60.9009 97.58 50.1909 103.67 37.0659 103.775Z" fill="white"/>
</svg>
