<svg width="162" height="192" viewBox="0 0 162 192" fill="none" xmlns="http://www.w3.org/2000/svg">
<rect x="0.75" y="0.75" width="160" height="190" fill="#00B7AB"/>
<rect x="0.75" y="0.75" width="160" height="190" stroke="black" stroke-width="1.5"/>
<path d="M124.426 96.005V103.775C114.976 103.145 107.521 96.005 107.521 78.995V38.045H116.131V77.105C116.131 88.865 119.386 94.115 124.426 96.005ZM63.5259 96.005H93.4509V103.775H37.0659V96.005H51.1359C50.0859 94.64 49.4559 92.855 49.4559 89.39V74.375H79.2759V61.775H49.4559V54.005H83.2659C86.3109 54.005 87.9909 55.685 87.9909 58.73V82.04H58.0659V89.705C58.0659 94.22 59.7459 96.005 63.5259 96.005Z" fill="white"/>
</svg>
