<svg width="162" height="192" viewBox="0 0 162 192" fill="none" xmlns="http://www.w3.org/2000/svg">
<rect x="0.75" y="0.75" width="160" height="190" fill="#00B7AB"/>
<rect x="0.75" y="0.75" width="160" height="190" stroke="black" stroke-width="1.5"/>
<path d="M129.696 96.005V103.775C119.196 103.145 112.791 96.215 112.791 82.775V70.28H92.3164V62.51H112.791V38.045H121.401V81.095C121.401 89.39 124.026 94.745 129.696 96.005ZM31.8364 103.775V96.005C39.9214 95.375 45.4864 89.18 45.4864 80.675V58.625H54.2014V80.675C54.2014 88.865 57.7714 94.745 63.0214 95.27C68.2714 94.745 71.8414 88.865 71.8414 80.675V58.625H80.5564V80.675C80.5564 88.97 86.2264 94.955 94.6264 95.585V103.355C86.9614 102.935 79.5064 98.42 76.2514 92.225C73.9414 98.525 68.6914 102.83 63.0214 102.935C57.1414 102.83 51.8914 98.525 49.8964 92.225C47.5864 98.735 40.3414 103.355 31.8364 103.775Z" fill="white"/>
</svg>
