<svg width="162" height="192" viewBox="0 0 162 192" fill="none" xmlns="http://www.w3.org/2000/svg">
<rect x="0.75" y="0.75" width="160" height="190" fill="#00B7AB"/>
<rect x="0.75" y="0.75" width="160" height="190" stroke="black" stroke-width="1.5"/>
<path d="M105.443 81.725V38.045L114.053 38.15V52.325H128.753V60.2H114.053V71.015H128.753V78.785H114.053V81.41C114.053 90.44 116.573 96.005 124.973 96.005H127.598V103.775H124.868C112.268 103.775 105.443 96.425 105.443 81.725ZM65.4385 103.775H33.9385V96.005H65.4385C72.7885 96.005 78.1435 90.545 78.1435 82.985C78.1435 75.425 72.7885 69.965 65.4385 69.965C58.0885 69.965 52.7335 75.425 52.7335 82.985C52.7335 85.925 53.3635 88.235 54.7285 90.335H46.0135C44.7535 88.34 44.1235 85.82 44.1235 82.985C44.1235 70.91 53.1535 62.195 65.4385 62.195C77.7235 62.195 86.7535 70.91 86.7535 82.985C86.7535 95.06 77.7235 103.775 65.4385 103.775Z" fill="white"/>
</svg>
