<svg width="80" height="32" viewBox="0 0 80 32" fill="none" xmlns="http://www.w3.org/2000/svg">
<path d="M29.76 16.5599V18.7799C26.76 18.5999 24.93 16.6199 24.93 12.7799V8.96988H19.08V6.74988H24.93V-0.00011909H27.39V12.2999C27.39 14.6699 28.14 16.1999 29.76 16.5599ZM2.64003 18.7799H2.92955e-05V16.5599H2.34003C6.72003 16.5599 9.24003 14.3999 9.24003 10.6199V8.96988H3.39003V6.74988H17.46V8.96988H11.79V10.6199C11.79 14.2499 14.16 16.4099 18.21 16.4999V18.6599C14.76 18.6599 11.97 17.2199 10.53 14.7299C9.12003 17.3099 6.24003 18.7799 2.64003 18.7799ZM16.47 22.0799V29.3699H27.15V31.5899H15.36C14.49 31.5899 14.01 31.1099 14.01 30.2399V22.0799H16.47ZM49.2371 12.4799V-0.00011909H51.6971V6.74988H55.8971V8.96988H51.6971V12.3899C51.6971 14.9699 52.4171 16.5599 54.8171 16.5599H55.5671V18.7799H54.7871C51.1871 18.7799 49.2371 16.6799 49.2371 12.4799ZM37.2671 16.5599H45.6071V18.7799H29.7071V16.5599H33.7271C33.4271 16.1699 33.2471 15.6599 33.2471 14.6699V10.3799H41.5871V6.77988H33.2471V4.55988H42.6971C43.5671 4.55988 44.0471 5.03988 44.0471 5.90988V12.5699H35.7071V14.7599C35.7071 16.0499 36.1871 16.5599 37.2671 16.5599ZM68.6876 11.4299V16.5599H79.2776V18.7799H55.5176V16.5599H66.2276V11.4299H62.0876C61.2176 11.4299 60.7376 10.9499 60.7376 10.0799V0.749882H74.2076V2.96988H63.1976V9.20988H74.2076V11.4299H68.6876Z" fill="#00B7AB"/>
</svg>
