<svg width="91" height="121" viewBox="0 0 91 121" fill="none" xmlns="http://www.w3.org/2000/svg">
<rect x="0.5" y="0.5" width="90" height="120" fill="#F6C500"/>
<rect x="0.5" y="0.5" width="90" height="120" stroke="black"/>
<path d="M72.9173 59.73C72.9173 60.108 72.9803 60.549 72.9803 60.99C72.9803 61.494 72.6023 61.809 71.9093 61.935C71.2163 62.061 70.3343 62.061 69.3263 61.935C68.2553 61.809 67.3733 61.683 66.6173 61.494C66.3023 61.494 65.8613 61.431 65.2943 61.368C64.6643 61.368 64.0973 61.368 63.4673 61.368C62.8373 61.368 62.2073 61.368 61.6403 61.368C61.0103 61.431 60.5693 61.431 60.3173 61.431H60.1913C60.1913 62.313 60.1913 63.069 60.1913 63.825C60.1283 64.581 60.1283 65.274 60.1283 65.841C60.0023 68.109 60.0023 69.936 60.0023 71.448C59.9393 73.023 59.9393 74.094 59.9393 74.661C59.9393 75.669 59.8133 76.74 59.6873 77.937C59.4353 79.134 59.2463 80.331 58.9943 81.465C58.6793 82.599 58.3643 83.607 58.1123 84.552C57.7343 85.434 57.4823 86.127 57.2303 86.505C56.9783 86.883 56.6633 87.324 56.4113 87.765C56.0333 88.143 55.7813 88.395 55.5293 88.584C55.2143 88.71 55.0253 88.647 54.8993 88.395C54.7733 88.08 54.7733 87.45 54.9623 86.505C55.0883 85.56 55.2143 84.111 55.3403 82.158C55.3403 80.142 55.4033 78 55.4663 75.669C55.4663 73.401 55.4663 71.133 55.4663 68.865C55.4033 66.66 55.4033 64.833 55.4033 63.447C55.4663 62.376 55.4663 61.242 55.4033 60.108C55.2773 58.974 55.2773 57.651 55.2773 56.013C55.2143 55.005 55.2143 53.934 55.2143 52.8C55.1513 51.729 55.1513 50.721 55.1513 49.839C55.1513 49.02 55.1513 48.327 55.1513 47.76C55.1513 47.256 55.1513 46.941 55.2143 46.878C55.3403 46.752 55.5293 46.626 55.7183 46.626C55.8443 46.626 55.9073 46.5 56.0333 46.185C56.0333 46.059 56.0333 45.87 55.9703 45.744C55.8443 45.618 55.7813 45.492 55.7183 45.303C55.5923 45.177 55.4663 44.988 55.4033 44.736C55.2773 44.547 55.2773 44.295 55.3403 43.917C55.4033 43.476 55.4663 42.972 55.4663 42.342C55.4033 41.838 55.4033 41.271 55.4033 40.641C55.3403 39.381 55.3403 38.436 55.4663 37.743C55.4663 37.113 55.4663 36.546 55.4033 35.916C55.3403 35.475 55.3403 34.971 55.3403 34.404C55.2773 33.9 55.0253 33.459 54.5213 33.018C54.0173 32.64 53.5763 32.388 53.1353 32.199C52.6313 32.073 52.2533 31.884 51.8753 31.632C51.6233 31.506 51.4973 31.38 51.4973 31.128C51.4343 30.939 51.4973 30.75 51.6233 30.498C51.6863 30.372 51.8753 30.183 52.1273 30.057C52.3793 29.994 52.6943 29.994 53.1353 30.12C53.3243 30.246 53.7023 30.309 54.3323 30.435C54.8363 30.624 55.4663 30.813 56.2223 30.939C56.8523 31.191 57.5453 31.38 58.2383 31.506C58.8683 31.695 59.3723 31.821 59.8133 31.884C60.3803 32.073 60.8213 32.262 61.1993 32.388C61.5143 32.64 61.5773 33.018 61.3883 33.648C61.1363 34.341 60.9473 35.034 60.7583 35.79C60.5063 36.609 60.3803 37.428 60.3803 38.31C60.3803 38.877 60.3173 39.633 60.3173 40.641C60.2543 41.649 60.2543 42.531 60.2543 43.287C60.2543 43.665 60.1913 44.106 60.1913 44.673C60.1283 45.303 60.1283 45.996 60.1283 46.626C60.0653 47.319 60.0653 47.949 60.0653 48.516C60.0023 49.146 60.0023 49.65 60.0023 49.965C60.0023 50.658 60.0023 51.225 60.0653 51.729C60.0653 52.296 60.0653 52.8 60.0653 53.304C60.0653 53.871 60.0653 54.438 60.1283 55.005C60.1283 55.635 60.1283 56.391 60.1283 57.21V59.226L61.7033 59.037C62.2073 58.974 62.5853 58.911 62.9633 58.785C63.2153 58.785 63.4673 58.722 63.7193 58.596C63.9083 58.596 64.0973 58.533 64.3493 58.407C64.4753 58.407 64.7273 58.281 64.9793 58.155C65.5463 57.966 66.0503 57.777 66.5543 57.651C66.9323 57.525 67.4363 57.588 68.0033 57.777C68.5073 58.029 69.0113 58.029 69.6413 57.903C70.1453 57.84 70.5863 57.84 70.9013 57.84C71.3423 57.903 71.7833 58.092 72.2243 58.407C72.6023 58.785 72.8543 59.226 72.9173 59.73ZM30.0773 63.51C30.2033 64.518 30.3293 65.337 30.4553 65.904C30.5183 66.534 30.6443 66.975 30.8333 67.227C30.9593 67.605 31.1483 67.731 31.4633 67.731C31.7153 67.794 32.0933 67.731 32.5973 67.605C33.1013 67.479 33.6683 67.227 34.4243 66.849C35.1173 66.534 35.8103 66.156 36.5663 65.652C37.2593 65.274 37.9523 64.833 38.5823 64.329C39.2123 63.951 39.6533 63.573 39.9053 63.321C40.4093 62.817 40.9763 62.313 41.6063 61.872C42.1103 61.494 42.6773 61.431 43.2443 61.683L43.4963 61.872C43.6223 61.431 43.7483 61.053 43.8743 60.675C43.9373 60.423 44.0003 60.171 44.1263 60.045C44.2523 59.856 44.5673 59.604 44.9453 59.352C45.2603 59.163 45.6383 58.974 46.1423 58.722C46.5203 58.596 46.9613 58.47 47.4653 58.344C47.9063 58.344 48.2843 58.344 48.6623 58.47C49.3553 58.785 49.9223 59.289 50.4263 60.045C50.8043 60.801 51.0563 61.557 51.1823 62.25C51.1823 62.628 51.2453 62.88 51.2453 63.069C51.1823 63.321 51.1193 63.447 51.0563 63.573C50.9303 63.699 50.7413 63.825 50.6153 63.951C50.3633 64.077 50.1743 64.266 49.9223 64.455C49.4183 64.833 48.9143 65.211 48.4733 65.589C47.9693 66.03 47.6543 66.408 47.4023 66.66C46.9613 67.101 46.3313 67.29 45.5123 67.29C45.0083 67.353 44.6303 67.416 44.5043 67.542C44.2523 67.731 44.0633 67.983 43.8113 68.235C43.5593 68.55 43.2443 68.676 42.8663 68.613C42.3623 68.613 42.2363 68.424 42.3623 67.92C42.3623 67.794 42.3623 67.416 42.4883 66.912C42.5513 66.471 42.6773 65.904 42.8033 65.274C41.9213 65.778 41.0393 66.219 40.1573 66.723C39.1493 67.29 38.4563 67.794 38.0783 68.172C37.7003 68.55 37.3223 68.865 36.8813 69.243C36.3773 69.621 35.8733 69.999 35.3693 70.314C34.8023 70.692 34.2983 71.07 33.7943 71.322C33.2903 71.637 32.8493 71.826 32.5343 71.952C31.9673 72.141 31.4633 72.141 31.0223 72.015C30.2663 71.889 29.6363 71.637 29.0063 71.322C28.3133 71.07 27.7463 70.566 27.2423 69.81C26.5493 68.928 26.1083 67.731 25.8563 66.093C25.5413 64.581 25.3523 62.88 25.2893 61.116C25.1633 59.352 25.1633 57.651 25.2893 55.95C25.2893 54.312 25.3523 52.989 25.3523 51.855C25.3523 50.91 25.2893 50.154 25.2263 49.587C25.1003 49.083 24.9113 48.642 24.7853 48.264C24.5333 47.949 24.3443 47.697 24.0923 47.445C23.7773 47.319 23.4623 47.067 23.1473 46.815C22.4543 46.374 22.2023 45.933 22.3913 45.492C22.5173 45.114 22.8323 45.051 23.4623 45.24C23.7143 45.366 24.1553 45.492 24.7853 45.681C25.2893 45.933 25.9193 46.185 26.5493 46.437C27.1163 46.689 27.6833 46.941 28.2503 47.193C28.7543 47.445 29.1953 47.634 29.4473 47.76C29.8883 48.012 30.2033 48.327 30.3293 48.831C30.3923 49.398 30.3923 50.406 30.2663 51.855C30.0143 54.375 29.8253 56.58 29.8253 58.533C29.7623 60.549 29.8253 62.187 30.0773 63.51Z" fill="white"/>
</svg>
