<svg width="631" height="181" viewBox="0 0 631 181" fill="none" xmlns="http://www.w3.org/2000/svg">
<rect x="0.5" y="30.5" width="90" height="120" fill="#F6C500"/>
<rect x="0.5" y="30.5" width="90" height="120" stroke="black"/>
<path d="M53.8062 98.235C54.6252 98.361 55.5072 98.55 56.4522 98.802C57.3342 99.117 58.1532 99.558 58.9092 100.062C59.6652 100.692 60.2952 101.385 60.8622 102.267C61.3662 103.149 61.6182 104.22 61.7442 105.48C61.7442 106.047 61.7442 106.425 61.7442 106.677C61.6812 106.929 61.6182 107.118 61.5552 107.181C61.4292 107.307 61.3662 107.433 61.3032 107.433C61.1772 107.496 61.1142 107.559 61.1142 107.685C60.9882 107.811 60.9882 107.937 61.1142 107.937C61.1142 108 61.1772 108.126 61.3032 108.252C61.3032 108.378 61.3662 108.567 61.4292 108.819C61.4292 109.071 61.3662 109.386 61.2402 109.89C60.8622 110.961 60.4212 112.095 59.7912 113.229C59.1612 114.363 58.2792 115.308 57.1452 116.19C56.5152 116.631 55.8222 117.009 55.0662 117.261C54.3102 117.513 53.5542 117.702 52.8612 117.828C52.1052 117.954 51.4122 118.017 50.7822 118.08C50.1522 118.08 49.6482 118.08 49.2702 118.08C48.3252 117.954 47.3802 117.765 46.4982 117.45C45.5532 117.072 44.7342 116.757 44.0412 116.442C42.8442 115.812 41.9622 114.93 41.3952 113.922C40.7652 112.788 40.3872 111.717 40.2612 110.583C40.0092 109.386 40.0092 108.252 40.1352 107.181C40.2612 106.11 40.4502 105.228 40.7652 104.535C41.1432 103.779 41.6472 102.897 42.3402 101.952C42.9702 101.07 43.9152 100.314 45.0492 99.621C44.8602 99.054 44.6712 98.487 44.4822 97.92C44.2302 97.416 43.9782 97.038 43.7262 96.786C43.2222 96.345 43.0962 95.904 43.4742 95.463C43.7262 95.085 44.1672 95.085 44.6712 95.4C45.1752 95.778 45.6792 96.03 46.0572 96.282C46.3722 96.597 46.9392 96.912 47.8212 97.29C48.5142 97.668 49.0182 98.298 49.3962 99.243C49.9002 98.991 50.5302 98.739 51.3492 98.487C52.1052 98.298 52.9242 98.235 53.8062 98.235ZM44.4192 92.25L45.0492 89.856C44.1672 90.234 43.4112 90.549 42.6552 90.801C41.8992 91.179 41.2692 91.431 40.7652 91.62C40.1352 91.872 39.4422 92.124 38.6862 92.376C37.9302 92.691 37.1742 93.006 36.4182 93.258C35.5992 93.636 34.8432 93.888 34.2132 94.14C33.5202 94.392 32.9532 94.644 32.5752 94.77C31.8192 95.085 31.1262 95.274 30.3702 95.274C29.5512 95.337 28.9212 95.4 28.4802 95.4C27.4722 95.526 26.8422 95.085 26.5272 94.077C26.1492 93.195 25.9602 92.061 25.9602 90.675C25.9602 90.171 25.9602 89.667 26.0232 89.289C26.0232 88.911 26.0232 88.596 26.1492 88.218C26.2122 87.966 26.4012 87.588 26.6532 87.21C26.8422 86.895 27.1572 86.454 27.5352 85.95C27.9132 85.446 28.4172 84.942 29.1102 84.312C29.7402 83.745 30.3702 83.178 31.0632 82.611C31.6932 82.107 32.2602 81.666 32.8272 81.225C33.3312 80.847 33.6462 80.532 33.8352 80.28C34.1502 79.902 34.2762 79.587 34.1502 79.335C34.0242 79.146 33.7092 79.146 33.2052 79.335C32.7012 79.65 32.1342 79.965 31.6302 80.217C31.0002 80.532 30.3072 80.658 29.4252 80.595C27.9762 80.595 27.0312 79.965 26.5902 78.705C26.2752 78.138 26.2122 77.571 26.4012 77.004C26.5272 76.5 26.6532 76.311 26.9052 76.5C27.1572 76.752 27.7242 76.941 28.6062 77.004C29.3622 77.13 30.1812 77.193 31.0002 77.13C31.1892 77.13 31.6302 77.067 32.3232 76.878C32.9532 76.752 33.6462 76.626 34.4022 76.374C35.0952 76.248 35.7882 76.059 36.4812 75.87C37.1112 75.744 37.6152 75.618 37.9302 75.555C38.5602 75.492 39.0012 75.366 39.3792 75.114C39.6942 74.925 40.0722 74.61 40.4502 74.169C40.8282 73.791 41.2692 73.413 41.8992 73.035C42.4032 72.783 42.9702 72.657 43.6002 72.72C44.1672 72.846 44.7972 73.035 45.4272 73.161C46.0572 73.413 46.4982 73.539 46.8762 73.665C47.6952 74.043 47.9472 74.61 47.6952 75.366C47.5692 75.744 47.2542 75.996 46.7502 76.122C46.1832 76.311 45.6792 76.437 45.1752 76.5C43.7892 76.752 42.4662 77.13 41.1432 77.697C39.7572 78.327 38.3712 79.335 36.9852 80.595C36.3552 81.162 35.6622 81.729 34.9062 82.359C34.0872 83.052 33.3942 83.745 32.8902 84.375C32.6382 84.753 32.3232 85.005 32.0712 85.194C31.7562 85.446 31.5042 85.698 31.3152 85.887C31.0632 86.139 30.8112 86.454 30.6852 86.769C30.4962 87.147 30.3702 87.588 30.3702 88.155C30.2442 88.848 30.3072 89.415 30.5592 89.856C30.7482 90.36 31.3152 90.486 32.2602 90.36C32.7642 90.234 33.3312 90.045 33.8352 89.919C34.2762 89.856 34.7172 89.73 35.2212 89.541C35.4102 89.478 35.5992 89.415 35.8512 89.352C35.9772 89.352 36.1662 89.478 36.4182 89.793C36.5442 90.108 36.7332 90.297 36.9222 90.297C37.0482 90.36 37.2372 90.297 37.3632 90.171C37.4892 90.108 37.5522 89.982 37.6782 89.793C37.6782 89.667 37.6782 89.478 37.6782 89.352C37.6782 89.226 37.6152 89.163 37.6152 89.037C37.4892 88.974 37.4892 88.848 37.5522 88.722C37.5522 88.659 37.6782 88.596 37.9302 88.47C38.0562 88.407 38.4342 88.344 38.9382 88.218C39.9462 88.029 40.8282 87.84 41.6472 87.714C42.4032 87.588 42.9072 87.525 43.0962 87.462C43.1592 87.462 43.1592 87.525 43.1592 87.651C43.0962 87.84 43.0332 88.029 43.0332 88.155C42.9702 88.344 42.9702 88.47 43.0962 88.533C43.0962 88.659 43.2852 88.596 43.6002 88.344C43.8522 88.218 44.1042 88.029 44.2302 87.903C44.2932 87.777 44.3562 87.651 44.4192 87.525C44.4192 87.462 44.4192 87.399 44.4822 87.273C44.4822 87.21 44.6082 87.147 44.8602 87.021L45.9942 86.769C46.1202 86.454 46.2462 86.139 46.3722 85.824C46.4352 85.572 46.4982 85.446 46.6242 85.32C46.8762 85.005 47.4432 84.627 48.2622 84.249C49.0182 83.934 49.7742 83.871 50.4042 84.123C51.0972 84.375 51.6642 84.816 52.1052 85.446C52.4832 86.076 52.6722 86.706 52.7982 87.336C52.8612 87.966 52.7982 88.344 52.6722 88.533C52.4832 88.785 52.1052 89.037 51.6012 89.352C51.0972 89.73 50.6562 90.045 50.2782 90.36C49.7742 90.738 49.4592 91.053 49.2072 91.242C48.9552 91.494 48.7662 91.683 48.5142 91.683C48.2622 91.746 47.8842 91.809 47.4432 91.809C46.9392 91.872 46.6242 91.935 46.3722 91.998C46.1202 92.124 45.8682 92.25 45.6162 92.502C45.4272 92.88 45.1752 93.006 44.8602 92.943C44.4822 92.943 44.2932 92.691 44.4192 92.25ZM47.0652 80.784C46.0572 80.658 45.5532 80.406 45.4272 80.028C45.3012 79.65 45.4902 79.461 46.1202 79.335C46.3722 79.335 46.6242 79.272 46.8762 79.272C47.0022 79.272 47.2542 79.272 47.5062 79.209C47.7582 79.209 48.0732 79.209 48.4512 79.146C48.7662 79.146 49.2702 79.146 49.9002 79.02C50.1522 79.02 50.6562 78.957 51.2862 78.894C51.9162 78.894 52.6092 78.831 53.4912 78.705C54.2472 78.642 55.1292 78.516 56.0112 78.39C56.8932 78.327 57.7122 78.201 58.5942 77.949C58.5942 77.76 58.5942 77.571 58.5942 77.319C58.5942 77.193 58.5942 77.067 58.6572 77.004C58.7832 76.815 58.9722 76.689 59.1612 76.689C59.2872 76.689 59.3502 76.563 59.4762 76.311C59.4762 76.185 59.4762 75.996 59.4132 75.87C59.2872 75.744 59.2242 75.618 59.1612 75.429C59.0352 75.303 58.9092 75.051 58.8462 74.799C58.7202 74.61 58.7202 74.358 58.7832 73.98C58.8462 73.539 58.9092 73.035 58.9092 72.405C58.9092 71.901 58.9092 71.334 58.9092 70.767C58.7832 69.507 58.7832 68.562 58.9092 67.806C58.9092 67.176 58.9092 66.546 58.9092 65.979C58.7832 65.538 58.7832 65.034 58.7832 64.467C58.7202 63.963 58.4682 63.522 57.9642 63.018C57.4602 62.64 57.0192 62.388 56.6412 62.199C56.1372 62.073 55.6962 61.884 55.3182 61.632C55.0662 61.506 54.9402 61.38 54.9402 61.128C54.8772 61.002 54.9402 60.813 55.0662 60.561C55.1292 60.435 55.3182 60.246 55.5702 60.12C55.8222 60.057 56.1372 60.057 56.5782 60.12C56.8302 60.246 57.2082 60.372 57.8382 60.498C58.3422 60.687 58.9722 60.876 59.6652 61.002C60.2952 61.254 60.9882 61.443 61.6812 61.569C62.3112 61.821 62.8782 61.947 63.2562 62.01C63.8232 62.136 64.2642 62.325 64.6422 62.514C64.9572 62.766 65.0202 63.144 64.8312 63.711C64.5792 64.404 64.3902 65.16 64.2012 65.916C63.9492 66.735 63.8232 67.554 63.8232 68.373C63.8232 69.003 63.8232 69.759 63.8232 70.704C63.7602 71.712 63.7602 72.594 63.7602 73.35C63.6972 73.728 63.6342 74.169 63.6342 74.736C63.5712 75.366 63.5712 76.059 63.5712 76.689C63.5082 77.445 63.5082 78.075 63.5082 78.642C63.4452 79.272 63.4452 79.776 63.4452 80.091V81.666H63.5082C63.5082 82.17 63.5082 82.8 63.5082 83.43C63.5082 84.123 63.5082 84.753 63.5082 85.383C63.4452 86.076 63.3822 86.706 63.3822 87.273C63.3192 87.903 63.2562 88.407 63.2562 88.785C63.1932 89.289 63.0672 89.793 62.9412 90.36C62.6892 90.99 62.5002 91.62 62.2482 92.124C61.9332 92.754 61.6812 93.258 61.4292 93.699C61.1142 94.203 60.8622 94.581 60.6102 94.77C60.3582 95.022 60.0432 95.211 59.7912 95.4C59.4132 95.652 59.1612 95.778 58.9092 95.778C58.5942 95.904 58.4052 95.841 58.2792 95.652C58.1532 95.526 58.1532 95.274 58.3422 94.77C58.4682 94.392 58.5312 93.762 58.6572 92.88C58.6572 91.998 58.7202 91.053 58.7202 89.919C58.7202 88.848 58.7202 87.714 58.7202 86.58C58.6572 85.446 58.6572 84.438 58.6572 83.556C58.5942 83.052 58.5942 82.548 58.5942 82.044C58.5942 81.603 58.5942 81.162 58.5942 80.658C57.3342 81.288 56.2632 81.729 55.2552 81.855C54.8772 81.981 54.4992 82.044 53.9952 82.17C53.4282 82.296 52.9242 82.422 52.4202 82.485C51.8532 82.611 51.3492 82.611 50.9082 82.611C50.4042 82.674 50.0892 82.611 49.9002 82.485C49.6482 82.359 49.4592 82.233 49.3332 82.044C49.1442 81.918 48.9552 81.729 48.8292 81.54C48.6402 81.414 48.4512 81.225 48.1992 81.036C47.8842 80.91 47.5062 80.847 47.0652 80.784ZM48.6402 102.96C47.8212 103.59 47.1912 103.905 46.6872 103.779C46.3092 103.653 45.9312 103.716 45.6792 103.842C45.3012 104.031 45.0492 104.283 44.8602 104.535C44.6082 104.913 44.4822 105.228 44.3562 105.606C44.2302 105.984 44.1042 106.362 44.1042 106.74C44.0412 107.496 44.0412 108.126 44.1042 108.882C44.1042 109.575 44.2302 110.268 44.4822 110.898C44.7342 111.528 45.1122 112.095 45.6792 112.599C46.1832 113.04 47.0022 113.418 48.0102 113.67C49.2072 113.922 50.4042 114.048 51.6012 113.922C52.7352 113.733 53.7432 113.418 54.6252 113.04C55.7592 112.032 56.4522 111.024 56.7672 109.953C57.0192 108.819 57.1452 107.622 57.2712 106.236C57.3342 104.85 57.0192 103.59 56.2632 102.456C55.5072 101.385 54.4362 100.692 53.0502 100.44C52.5462 100.377 51.9792 100.377 51.3492 100.377C50.6562 100.44 50.0892 100.503 49.6482 100.503C49.7112 101.511 49.3962 102.33 48.6402 102.96ZM32.2602 66.672C32.4492 66.672 32.7012 66.672 33.0792 66.609C33.3942 66.609 33.7722 66.609 34.1502 66.546C34.4652 66.546 34.7802 66.483 35.0952 66.42C35.3472 66.42 35.5992 66.357 35.7252 66.231C36.1662 65.979 36.7332 65.727 37.3632 65.475C37.9302 65.286 38.5602 65.16 39.1902 65.16C39.5682 65.16 40.0722 65.286 40.5762 65.412C41.0802 65.601 41.4582 65.79 41.7102 65.916C41.9622 66.168 41.9622 66.357 41.8362 66.546C41.5842 66.798 41.5842 67.05 41.8362 67.302C41.8992 67.365 42.0252 67.428 42.2142 67.491C42.3402 67.617 42.5292 67.68 42.6552 67.806C42.7812 67.932 42.8442 68.058 42.9072 68.184C42.9072 68.373 42.7812 68.499 42.6552 68.625C42.4032 68.814 42.0882 69.003 41.5842 69.192C41.0172 69.444 40.3872 69.696 39.7572 69.822C39.0642 70.074 38.3712 70.2 37.7412 70.263C37.0482 70.389 36.4812 70.326 36.0402 70.2C35.5362 70.074 35.1582 69.948 34.9062 69.696C34.5282 69.507 34.2132 69.318 33.9612 69.066C33.5832 68.877 33.2682 68.688 33.0162 68.499C32.6382 68.373 32.3232 68.247 31.9452 68.184C31.6302 68.184 31.3782 68.058 31.2522 67.869C31.0632 67.743 31.0002 67.617 31.0632 67.365C31.0632 67.239 31.1262 67.05 31.3782 66.861C31.5042 66.735 31.8192 66.672 32.2602 66.672Z" fill="white"/>
<rect x="90.5" y="60.5" width="90" height="120" fill="#F6C500"/>
<rect x="90.5" y="60.5" width="90" height="120" stroke="black"/>
<path d="M135.049 102.594C135.742 104.106 136.183 105.555 136.372 107.067C136.498 108.579 136.624 110.154 136.687 111.729C137.632 110.973 138.514 110.28 139.333 109.65C140.089 109.146 140.593 108.768 140.908 108.516C141.16 108.39 141.475 108.201 141.727 108.075C141.979 108.012 142.168 108.012 142.294 108.012C142.357 108.138 142.357 108.264 142.294 108.453C142.168 108.705 141.916 109.083 141.538 109.524C140.908 110.154 140.215 110.784 139.333 111.54C138.451 112.296 137.569 113.052 136.687 113.745C136.624 115.572 136.372 117.336 135.994 119.037C135.553 120.801 135.049 122.439 134.419 123.951C133.726 125.526 132.97 126.912 132.214 128.172C131.332 129.432 130.513 130.503 129.631 131.322C128.497 132.33 127.489 133.149 126.481 133.779C125.41 134.409 124.402 134.913 123.394 135.228C122.323 135.606 121.315 135.858 120.307 135.921C119.299 136.047 118.228 136.11 117.22 136.11C116.527 136.11 115.897 135.984 115.33 135.732C114.7 135.543 114.259 135.228 113.944 134.787C113.566 134.409 113.377 133.968 113.377 133.338C113.377 132.834 113.629 132.204 114.133 131.511C114.826 130.503 115.771 129.432 116.905 128.361C117.976 127.353 119.047 126.471 120.055 125.652C119.803 125.4 119.551 125.022 119.425 124.581C119.047 123.825 118.732 123.069 118.417 122.187C118.039 121.431 117.661 120.612 117.409 119.856C117.094 119.163 116.842 118.533 116.653 117.903C116.401 117.399 116.212 117.021 116.086 116.769C115.771 116.265 115.645 115.761 115.771 115.32C115.771 114.942 116.086 114.942 116.716 115.32C116.842 115.446 117.157 115.635 117.535 115.887C117.913 116.139 118.291 116.391 118.795 116.643C119.173 116.958 119.614 117.273 120.055 117.525C120.433 117.903 120.685 118.155 120.937 118.407C121.378 118.911 121.882 119.478 122.449 120.234C122.953 120.99 123.457 121.746 123.961 122.502C124.78 121.746 125.725 120.927 126.859 119.919C127.93 118.974 129.127 117.966 130.387 116.832L131.71 115.761V112.17C131.647 110.91 131.584 109.839 131.458 108.957C131.269 108.138 131.08 107.445 130.891 106.941C130.639 106.437 130.45 106.059 130.261 105.744C130.009 105.492 129.757 105.303 129.631 105.177C129.379 105.051 129.127 104.925 128.812 104.799C128.434 104.799 128.182 104.673 127.993 104.547C127.741 104.484 127.615 104.358 127.678 104.169C127.678 104.043 127.93 103.728 128.434 103.287C129.064 102.783 129.631 102.279 130.261 101.838C130.765 101.46 131.332 101.082 131.962 100.578C132.214 100.326 132.529 100.263 132.907 100.326C133.159 100.452 133.474 100.578 133.789 100.767C134.041 101.019 134.293 101.334 134.545 101.649C134.734 102.027 134.923 102.342 135.049 102.594ZM154.327 103.287C154.327 103.665 154.264 104.106 154.264 104.673C154.201 105.303 154.201 105.996 154.201 106.626C154.138 107.319 154.138 107.949 154.138 108.516C154.075 109.146 154.075 109.65 154.075 109.965C154.075 110.658 154.075 111.225 154.138 111.729C154.138 112.296 154.138 112.8 154.138 113.304C154.138 113.871 154.138 114.438 154.201 115.005C154.201 115.635 154.201 116.391 154.201 117.21C154.201 117.84 154.201 118.533 154.264 119.289C154.264 120.108 154.264 120.864 154.264 121.62C154.264 122.439 154.264 123.195 154.264 123.888C154.201 124.644 154.201 125.337 154.201 125.841C154.075 128.109 154.075 129.936 154.075 131.448C154.012 133.023 154.012 134.094 154.012 134.661C154.012 135.669 153.886 136.74 153.76 137.937C153.508 139.134 153.319 140.331 153.067 141.465C152.752 142.599 152.437 143.607 152.185 144.552C151.807 145.434 151.555 146.127 151.303 146.505C151.051 146.883 150.736 147.324 150.484 147.765C150.106 148.143 149.854 148.395 149.602 148.584C149.287 148.71 149.098 148.647 148.972 148.395C148.846 148.08 148.846 147.45 149.035 146.505C149.161 145.56 149.287 144.111 149.413 142.158C149.413 140.142 149.476 138 149.539 135.669C149.539 133.401 149.539 131.133 149.539 128.865C149.476 126.66 149.476 124.833 149.476 123.447C149.539 122.376 149.539 121.242 149.476 120.108C149.35 118.974 149.35 117.651 149.35 116.013C149.287 115.005 149.287 113.934 149.287 112.8C149.224 111.729 149.224 110.721 149.224 109.839C149.224 109.02 149.224 108.327 149.224 107.76C149.224 107.256 149.224 106.941 149.287 106.878C149.413 106.752 149.602 106.626 149.791 106.626C149.917 106.626 149.98 106.5 150.106 106.185C150.106 106.059 150.106 105.87 150.043 105.744C149.917 105.618 149.854 105.492 149.791 105.303C149.665 105.177 149.539 104.988 149.476 104.736C149.35 104.547 149.35 104.295 149.413 103.917C149.476 103.476 149.539 102.972 149.539 102.342C149.476 101.838 149.476 101.271 149.476 100.641C149.413 99.381 149.413 98.436 149.539 97.743C149.539 97.113 149.539 96.546 149.476 95.916C149.413 95.475 149.413 94.971 149.413 94.404C149.35 93.9 149.098 93.459 148.594 93.018C148.09 92.64 147.649 92.388 147.208 92.199C146.704 92.073 146.326 91.884 145.948 91.632C145.696 91.506 145.57 91.38 145.57 91.128C145.507 90.939 145.57 90.75 145.696 90.498C145.759 90.372 145.948 90.183 146.2 90.057C146.452 89.994 146.767 89.994 147.208 90.12C147.397 90.246 147.775 90.309 148.405 90.435C148.909 90.624 149.539 90.813 150.295 90.939C150.925 91.191 151.618 91.38 152.311 91.506C152.941 91.695 153.445 91.821 153.886 91.884C154.453 92.073 154.894 92.262 155.272 92.388C155.587 92.64 155.65 93.018 155.461 93.648C155.209 94.341 155.02 95.034 154.831 95.79C154.579 96.609 154.453 97.428 154.453 98.31C154.453 98.877 154.39 99.633 154.39 100.641C154.327 101.649 154.327 102.531 154.327 103.287ZM125.284 124.644C125.662 125.337 125.914 125.841 126.166 126.219C126.292 126.66 126.481 127.101 126.67 127.542C126.859 127.983 126.859 128.298 126.607 128.487C126.355 128.739 125.914 128.676 125.284 128.361C124.969 128.235 124.591 128.109 124.15 127.983C123.646 127.857 123.142 127.731 122.638 127.479C122.008 128.361 121.441 129.054 121.063 129.684C120.559 130.377 120.307 130.881 120.181 131.196C119.803 132.204 119.866 132.834 120.244 133.212C120.559 133.653 121.315 133.716 122.512 133.338C123.268 133.149 124.087 132.771 124.843 132.204C125.599 131.7 126.292 131.07 126.922 130.377C127.552 129.747 128.119 129.054 128.623 128.298C129.127 127.605 129.505 126.912 129.757 126.282C130.387 124.896 130.828 123.384 131.143 121.746C131.395 120.234 131.521 118.659 131.647 117.021C131.458 117.147 131.332 117.147 131.206 117.147C131.08 117.21 130.891 117.336 130.702 117.462C130.45 117.651 130.387 117.777 130.387 117.84C130.324 117.966 130.324 118.029 130.324 118.155C130.261 118.281 130.198 118.47 130.072 118.596C129.946 118.848 129.694 119.163 129.316 119.541C128.938 119.919 128.434 120.549 127.678 121.431C126.859 122.313 126.04 123.321 125.158 124.392L125.284 124.644Z" fill="white"/>
<rect x="180.5" y="30.5" width="90" height="120" fill="#F6C500"/>
<rect x="180.5" y="30.5" width="90" height="120" stroke="black"/>
<path d="M218.371 78.075C219.19 78.201 220.072 78.327 221.017 78.579C221.899 78.894 222.718 79.335 223.537 79.902C224.293 80.532 224.986 81.225 225.553 82.107C226.057 83.052 226.309 84.186 226.435 85.446C226.435 86.076 226.435 86.454 226.435 86.706C226.372 86.958 226.309 87.147 226.309 87.273C226.183 87.399 226.12 87.525 226.057 87.525C225.931 87.588 225.805 87.651 225.805 87.777C225.742 87.903 225.742 88.029 225.805 88.029C225.805 88.155 225.868 88.218 225.994 88.344C225.994 88.47 226.057 88.659 226.12 88.848C226.12 89.1 226.12 89.478 225.994 89.856C225.616 91.053 225.175 92.313 224.608 93.573C223.978 94.959 223.033 96.03 221.836 96.849C221.206 97.353 220.45 97.731 219.694 97.92C218.875 98.172 218.119 98.361 217.363 98.424C216.544 98.55 215.851 98.55 215.221 98.55C214.528 98.55 214.024 98.55 213.646 98.55C212.638 98.424 211.693 98.172 210.811 97.794C209.803 97.479 208.984 97.164 208.291 96.786C207.031 96.156 206.149 95.274 205.519 94.14C204.889 93.069 204.448 91.935 204.259 90.738C204.007 89.604 204.007 88.407 204.133 87.273C204.259 86.202 204.448 85.32 204.826 84.564C205.141 83.745 205.645 82.863 206.401 81.918C207.031 81.036 207.976 80.28 209.11 79.524C208.858 78.894 208.669 78.201 208.417 77.571C208.165 77.004 207.913 76.563 207.661 76.248C207.409 75.996 207.22 75.744 207.22 75.492C207.157 75.24 207.22 75.051 207.346 74.862C207.472 74.736 207.661 74.61 207.913 74.547C208.102 74.547 208.354 74.673 208.669 74.862C208.921 75.051 209.173 75.177 209.425 75.303C209.614 75.492 209.866 75.618 210.118 75.744C210.37 75.87 210.622 75.996 211 76.122C211.252 76.311 211.63 76.5 212.134 76.689C212.512 76.941 212.827 77.256 213.142 77.634C213.394 78.075 213.646 78.516 213.835 79.02C214.339 78.831 214.969 78.579 215.788 78.327C216.544 78.138 217.363 78.075 218.371 78.075ZM228.01 92.754C227.002 92.628 226.561 92.313 226.561 91.935C226.498 91.62 226.75 91.431 227.38 91.305C227.632 91.305 227.884 91.242 228.136 91.179C228.262 91.179 228.514 91.179 228.766 91.116C229.018 91.116 229.333 91.053 229.711 90.99C230.026 90.99 230.53 90.99 231.16 90.99C231.916 90.99 232.987 90.864 234.499 90.612C235.885 90.36 237.334 90.108 238.783 89.73C238.783 89.226 238.783 88.596 238.783 87.966C238.72 87.399 238.72 86.769 238.72 86.013L238.594 82.296C238.09 82.611 237.649 82.8 237.145 82.8C236.767 82.926 236.326 82.989 235.759 83.115C235.129 83.304 234.562 83.43 233.995 83.556C233.365 83.682 232.861 83.808 232.357 83.808C231.79 83.934 231.412 83.871 231.16 83.745C230.908 83.619 230.719 83.493 230.593 83.304C230.341 83.178 230.152 82.989 229.963 82.8C229.711 82.674 229.459 82.485 229.207 82.296C228.829 82.17 228.451 82.107 228.01 82.044C227.002 81.918 226.561 81.603 226.561 81.225C226.498 80.91 226.75 80.721 227.38 80.595C227.632 80.595 227.884 80.532 228.136 80.469C228.262 80.469 228.514 80.469 228.766 80.406C229.018 80.406 229.333 80.343 229.711 80.28C230.026 80.28 230.53 80.28 231.16 80.28C231.853 80.28 232.924 80.154 234.373 79.902C235.759 79.65 237.145 79.398 238.594 79.02C238.594 78.516 238.594 78.075 238.594 77.571C238.594 77.193 238.594 76.941 238.657 76.878C238.783 76.752 238.972 76.626 239.161 76.626C239.287 76.626 239.35 76.5 239.476 76.185C239.476 76.059 239.476 75.87 239.413 75.744C239.287 75.618 239.224 75.492 239.161 75.303C239.035 75.177 238.909 74.988 238.846 74.736C238.72 74.547 238.72 74.295 238.783 73.917C238.846 73.476 238.909 72.972 238.909 72.342C238.846 71.838 238.846 71.271 238.846 70.641C238.783 69.381 238.783 68.436 238.909 67.743C238.909 67.113 238.909 66.546 238.846 65.916C238.783 65.475 238.783 64.971 238.783 64.404C238.72 63.9 238.468 63.459 237.964 63.018C237.46 62.64 237.019 62.388 236.578 62.199C236.074 62.073 235.696 61.884 235.318 61.632C235.066 61.506 234.94 61.38 234.94 61.128C234.877 60.939 234.94 60.75 235.066 60.498C235.129 60.372 235.318 60.183 235.57 60.057C235.822 59.994 236.137 59.994 236.578 60.12C236.767 60.246 237.145 60.309 237.775 60.435C238.279 60.624 238.909 60.813 239.665 60.939C240.295 61.191 240.988 61.38 241.681 61.506C242.311 61.695 242.815 61.821 243.256 61.884C243.823 62.073 244.264 62.262 244.642 62.388C244.957 62.64 245.02 63.018 244.831 63.648C244.579 64.341 244.39 65.034 244.201 65.79C243.949 66.609 243.823 67.428 243.823 68.31C243.823 68.877 243.76 69.633 243.76 70.641C243.697 71.649 243.697 72.531 243.697 73.287C243.697 73.665 243.634 74.106 243.634 74.673C243.571 75.303 243.571 75.996 243.571 76.626C243.508 77.319 243.508 77.949 243.508 78.516C243.445 79.146 243.445 79.65 243.445 79.965C243.445 80.658 243.445 81.225 243.508 81.729C243.508 82.296 243.508 82.8 243.508 83.304C243.508 83.871 243.508 84.438 243.571 85.005C243.571 85.635 243.571 86.391 243.571 87.21C243.571 87.84 243.571 88.533 243.634 89.289C243.634 90.108 243.634 90.864 243.634 91.62C243.634 92.439 243.634 93.195 243.634 93.888C243.571 94.644 243.571 95.337 243.571 95.841C243.445 98.109 243.445 99.936 243.445 101.448C243.382 103.023 243.382 104.094 243.382 104.661C243.382 105.669 243.256 106.74 243.13 107.937C242.878 109.134 242.689 110.331 242.437 111.465C242.122 112.599 241.807 113.607 241.555 114.552C241.177 115.434 240.925 116.127 240.673 116.505C240.421 116.883 240.106 117.324 239.854 117.765C239.476 118.143 239.224 118.395 238.972 118.584C238.657 118.71 238.468 118.647 238.342 118.395C238.216 118.08 238.216 117.45 238.405 116.505C238.531 115.56 238.657 114.111 238.783 112.158C238.783 110.142 238.846 108 238.909 105.669C238.909 103.401 238.909 101.133 238.909 98.865C238.846 96.66 238.846 94.833 238.846 93.447V92.88C238.342 93.195 237.775 93.384 237.145 93.51C236.767 93.636 236.326 93.699 235.759 93.825C235.129 94.014 234.562 94.14 233.995 94.266C233.365 94.392 232.861 94.518 232.357 94.518C231.79 94.644 231.412 94.581 231.16 94.455C230.908 94.329 230.719 94.203 230.593 94.014C230.341 93.888 230.152 93.699 229.963 93.51C229.711 93.384 229.459 93.195 229.207 93.006C228.829 92.88 228.451 92.817 228.01 92.754ZM212.953 82.863C212.386 83.367 211.945 83.619 211.567 83.682C211.126 83.808 210.748 83.808 210.496 83.682C209.866 83.745 209.362 84.123 209.047 84.816C208.669 85.572 208.417 86.202 208.354 86.832C208.228 87.588 208.228 88.281 208.291 88.974C208.291 89.73 208.48 90.36 208.795 90.99C209.047 91.62 209.425 92.187 210.055 92.691C210.622 93.195 211.441 93.573 212.449 93.825C213.709 94.203 214.843 94.266 215.977 94.14C216.985 94.014 217.993 93.762 218.938 93.384C220.135 92.439 220.891 91.368 221.269 90.108C221.584 88.974 221.773 87.651 221.899 86.265C221.962 84.816 221.584 83.556 220.828 82.422C220.009 81.351 218.938 80.658 217.552 80.406C217.048 80.343 216.481 80.343 215.851 80.343C215.158 80.406 214.591 80.406 214.087 80.406C214.087 81.414 213.709 82.233 212.953 82.863Z" fill="white"/>
<rect x="270.5" y="60.5" width="90" height="120" fill="#F6C500"/>
<rect x="270.5" y="60.5" width="90" height="120" stroke="black"/>
<path d="M314.734 102.594C315.427 104.106 315.868 105.555 316.057 107.067C316.183 108.579 316.309 110.154 316.372 111.729C317.317 110.973 318.199 110.28 319.018 109.65C319.774 109.146 320.278 108.768 320.593 108.516C320.845 108.39 321.16 108.201 321.412 108.075C321.664 108.012 321.853 108.012 321.979 108.012C322.042 108.138 322.042 108.264 321.979 108.453C321.853 108.705 321.601 109.083 321.223 109.524C320.593 110.154 319.9 110.784 319.018 111.54C318.136 112.296 317.254 113.052 316.372 113.745C316.309 115.572 316.057 117.336 315.679 119.037C315.238 120.801 314.734 122.439 314.104 123.951C313.411 125.526 312.655 126.912 311.899 128.172C311.017 129.432 310.198 130.503 309.316 131.322C308.182 132.33 307.174 133.149 306.166 133.779C305.095 134.409 304.087 134.913 303.079 135.228C302.008 135.606 301 135.858 299.992 135.921C298.984 136.047 297.913 136.11 296.905 136.11C296.212 136.11 295.582 135.984 295.015 135.732C294.385 135.543 293.944 135.228 293.629 134.787C293.251 134.409 293.062 133.968 293.062 133.338C293.062 132.834 293.314 132.204 293.818 131.511C294.511 130.503 295.456 129.432 296.59 128.361C297.661 127.353 298.732 126.471 299.74 125.652C299.488 125.4 299.236 125.022 299.11 124.581C298.732 123.825 298.417 123.069 298.102 122.187C297.724 121.431 297.346 120.612 297.094 119.856C296.779 119.163 296.527 118.533 296.338 117.903C296.086 117.399 295.897 117.021 295.771 116.769C295.456 116.265 295.33 115.761 295.456 115.32C295.456 114.942 295.771 114.942 296.401 115.32C296.527 115.446 296.842 115.635 297.22 115.887C297.598 116.139 297.976 116.391 298.48 116.643C298.858 116.958 299.299 117.273 299.74 117.525C300.118 117.903 300.37 118.155 300.622 118.407C301.063 118.911 301.567 119.478 302.134 120.234C302.638 120.99 303.142 121.746 303.646 122.502C304.465 121.746 305.41 120.927 306.544 119.919C307.615 118.974 308.812 117.966 310.072 116.832L311.395 115.761V112.17C311.332 110.91 311.269 109.839 311.143 108.957C310.954 108.138 310.765 107.445 310.576 106.941C310.324 106.437 310.135 106.059 309.946 105.744C309.694 105.492 309.442 105.303 309.316 105.177C309.064 105.051 308.812 104.925 308.497 104.799C308.119 104.799 307.867 104.673 307.678 104.547C307.426 104.484 307.3 104.358 307.363 104.169C307.363 104.043 307.615 103.728 308.119 103.287C308.749 102.783 309.316 102.279 309.946 101.838C310.45 101.46 311.017 101.082 311.647 100.578C311.899 100.326 312.214 100.263 312.592 100.326C312.844 100.452 313.159 100.578 313.474 100.767C313.726 101.019 313.978 101.334 314.23 101.649C314.419 102.027 314.608 102.342 314.734 102.594ZM318.64 117.399C317.632 117.273 317.191 116.958 317.191 116.58C317.128 116.265 317.38 116.076 318.01 115.95C318.262 115.95 318.514 115.887 318.766 115.824C318.892 115.824 319.144 115.824 319.396 115.761C319.648 115.761 319.963 115.698 320.341 115.635C320.656 115.635 321.16 115.635 321.79 115.635C322.483 115.635 323.554 115.509 325.003 115.257C326.389 115.005 327.838 114.753 329.287 114.375C329.224 113.493 329.224 112.548 329.224 111.603C329.161 110.721 329.161 109.965 329.161 109.209C329.161 108.579 329.161 108.012 329.224 107.571C329.224 107.193 329.224 106.941 329.287 106.878C329.413 106.752 329.602 106.626 329.791 106.626C329.917 106.626 329.98 106.5 330.106 106.185C330.106 106.059 330.106 105.87 330.043 105.744C329.917 105.618 329.854 105.492 329.791 105.303C329.665 105.177 329.539 104.988 329.476 104.736C329.35 104.547 329.35 104.295 329.413 103.917C329.476 103.476 329.539 102.972 329.539 102.342C329.476 101.838 329.476 101.271 329.476 100.641C329.413 99.381 329.413 98.436 329.539 97.743C329.539 97.113 329.539 96.546 329.476 95.916C329.413 95.475 329.413 94.971 329.413 94.404C329.35 93.9 329.098 93.459 328.594 93.018C328.09 92.64 327.649 92.388 327.208 92.199C326.704 92.073 326.326 91.884 325.948 91.632C325.696 91.506 325.57 91.38 325.57 91.128C325.507 90.939 325.57 90.75 325.696 90.498C325.759 90.372 325.948 90.183 326.2 90.057C326.452 89.994 326.767 89.994 327.208 90.12C327.397 90.246 327.775 90.309 328.405 90.435C328.909 90.624 329.539 90.813 330.295 90.939C330.925 91.191 331.618 91.38 332.311 91.506C332.941 91.695 333.445 91.821 333.886 91.884C334.453 92.073 334.894 92.262 335.272 92.388C335.587 92.64 335.65 93.018 335.461 93.648C335.209 94.341 335.02 95.034 334.831 95.79C334.579 96.609 334.453 97.428 334.453 98.31C334.453 98.877 334.39 99.633 334.39 100.641C334.327 101.649 334.327 102.531 334.327 103.287C334.327 103.665 334.264 104.106 334.264 104.673C334.201 105.303 334.201 105.996 334.201 106.626C334.138 107.319 334.138 107.949 334.138 108.516C334.075 109.146 334.075 109.65 334.075 109.965C334.075 110.658 334.075 111.225 334.138 111.729C334.138 112.296 334.138 112.8 334.138 113.304C334.138 113.871 334.138 114.438 334.201 115.005C334.201 115.635 334.201 116.391 334.201 117.21C334.201 117.84 334.201 118.533 334.264 119.289C334.264 120.108 334.264 120.864 334.264 121.62C334.264 122.439 334.264 123.195 334.264 123.888C334.201 124.644 334.201 125.337 334.201 125.841C334.075 128.109 334.075 129.936 334.075 131.448C334.012 133.023 334.012 134.094 334.012 134.661C334.012 135.669 333.886 136.74 333.76 137.937C333.508 139.134 333.319 140.331 333.067 141.465C332.752 142.599 332.437 143.607 332.185 144.552C331.807 145.434 331.555 146.127 331.303 146.505C331.051 146.883 330.736 147.324 330.484 147.765C330.106 148.143 329.854 148.395 329.602 148.584C329.287 148.71 329.098 148.647 328.972 148.395C328.846 148.08 328.846 147.45 329.035 146.505C329.161 145.56 329.287 144.111 329.413 142.158C329.413 140.142 329.476 138 329.539 135.669C329.539 133.401 329.539 131.133 329.539 128.865C329.476 126.66 329.476 124.833 329.476 123.447C329.476 122.565 329.476 121.62 329.476 120.675C329.413 119.793 329.35 118.785 329.35 117.588C329.098 117.714 328.846 117.84 328.594 117.903C328.279 118.029 328.027 118.155 327.775 118.155C327.397 118.281 326.956 118.344 326.389 118.47C325.759 118.659 325.192 118.785 324.625 118.911C323.995 119.037 323.491 119.163 322.987 119.163C322.42 119.289 322.042 119.226 321.79 119.1C321.538 118.974 321.349 118.848 321.223 118.659C320.971 118.533 320.782 118.344 320.593 118.155C320.341 118.029 320.089 117.84 319.837 117.651C319.459 117.525 319.081 117.462 318.64 117.399ZM304.969 124.644C305.347 125.337 305.599 125.841 305.851 126.219C305.977 126.66 306.166 127.101 306.355 127.542C306.544 127.983 306.544 128.298 306.292 128.487C306.04 128.739 305.599 128.676 304.969 128.361C304.654 128.235 304.276 128.109 303.835 127.983C303.331 127.857 302.827 127.731 302.323 127.479C301.693 128.361 301.126 129.054 300.748 129.684C300.244 130.377 299.992 130.881 299.866 131.196C299.488 132.204 299.551 132.834 299.929 133.212C300.244 133.653 301 133.716 302.197 133.338C302.953 133.149 303.772 132.771 304.528 132.204C305.284 131.7 305.977 131.07 306.607 130.377C307.237 129.747 307.804 129.054 308.308 128.298C308.812 127.605 309.19 126.912 309.442 126.282C310.072 124.896 310.513 123.384 310.828 121.746C311.08 120.234 311.206 118.659 311.332 117.021C311.143 117.147 311.017 117.147 310.891 117.147C310.765 117.21 310.576 117.336 310.387 117.462C310.135 117.651 310.072 117.777 310.072 117.84C310.009 117.966 310.009 118.029 310.009 118.155C309.946 118.281 309.883 118.47 309.757 118.596C309.631 118.848 309.379 119.163 309.001 119.541C308.623 119.919 308.119 120.549 307.363 121.431C306.544 122.313 305.725 123.321 304.843 124.392L304.969 124.644Z" fill="white"/>
<rect x="360.5" y="30.5" width="90" height="120" fill="#F6C500"/>
<rect x="360.5" y="30.5" width="90" height="120" stroke="black"/>
<path d="M389.173 71.775C389.425 71.775 390.181 71.586 391.315 71.334C392.449 71.145 393.646 70.893 394.969 70.578C396.229 70.326 397.489 70.011 398.623 69.696C399.757 69.444 400.45 69.255 400.765 69.129C401.332 68.94 401.962 68.814 402.592 68.688C403.222 68.688 403.789 68.751 404.293 68.94C404.797 69.192 405.301 69.444 405.868 69.759C406.372 70.137 406.75 70.515 406.939 70.83C407.065 71.145 407.128 71.397 407.254 71.649C407.317 71.964 407.38 72.279 407.38 72.594C407.38 72.972 407.128 73.413 406.75 73.791C406.309 74.232 405.931 74.547 405.679 74.673C405.427 74.925 405.112 75.366 404.734 75.996C404.293 76.752 403.915 77.319 403.6 77.76C403.348 78.138 403.348 78.327 403.474 78.39C403.6 78.516 403.789 78.579 404.104 78.579C404.356 78.579 404.608 78.516 404.986 78.516C405.238 78.579 405.427 78.831 405.553 79.209C405.616 79.65 405.553 79.965 405.364 80.217C405.112 80.469 404.86 80.784 404.545 81.036C404.167 81.288 403.726 81.414 403.222 81.414C402.655 81.477 402.025 81.54 401.395 81.666C400.891 81.792 400.261 81.855 399.505 81.918C398.749 82.044 397.93 82.17 397.174 82.296C396.355 82.485 395.599 82.611 394.969 82.737C394.213 82.926 393.709 83.115 393.331 83.241C393.079 83.367 392.89 83.43 392.701 83.493C392.449 83.619 392.197 83.745 392.008 83.871L391.63 84.879C391.378 85.509 391.189 86.013 391.126 86.454C391 86.958 390.937 87.525 390.811 88.155C390.559 89.289 390.748 89.919 391.378 90.108C392.008 90.36 392.89 90.486 394.15 90.36C394.906 90.297 395.851 90.171 396.985 89.919C398.119 89.793 399.316 89.415 400.639 88.911H400.702C400.702 88.911 400.702 88.848 400.765 88.848C400.891 88.785 401.206 88.659 401.647 88.407C402.025 88.281 402.466 88.092 403.033 87.84C403.537 87.714 404.104 87.525 404.734 87.399C405.301 87.273 405.868 87.21 406.435 87.21C406.813 87.21 407.191 87.336 407.695 87.462C408.136 87.651 408.577 87.84 409.018 88.029C409.396 88.281 409.711 88.47 410.026 88.659C410.278 88.911 410.467 89.037 410.53 89.1C410.53 89.226 410.593 89.415 410.656 89.604C410.656 89.856 410.593 90.045 410.53 90.297C410.404 90.549 410.278 90.801 410.026 90.927C409.774 91.179 409.396 91.305 408.955 91.305C408.577 91.368 408.073 91.431 407.506 91.431C406.876 91.557 406.183 91.62 405.553 91.62C404.797 91.683 404.104 91.746 403.411 91.746C402.655 91.809 402.025 91.872 401.521 91.872C400.135 92.565 398.812 93.069 397.552 93.447C396.292 93.825 395.032 94.077 393.835 94.14C391.504 94.266 389.74 93.951 388.48 93.132C387.22 92.376 386.653 90.864 386.905 88.47C386.968 87.084 387.094 86.013 387.22 85.32C387.283 84.69 387.346 84.06 387.409 83.493C387.157 83.367 386.968 83.241 386.779 83.115C386.527 83.052 386.401 82.926 386.338 82.8C386.212 82.674 386.149 82.548 386.275 82.422C386.275 82.296 386.464 82.17 386.842 81.981C386.716 81.855 386.653 81.729 386.527 81.603C386.338 81.54 386.149 81.414 385.96 81.225C385.33 80.784 384.952 80.406 384.952 80.028C384.826 79.713 385.204 79.587 385.96 79.65C386.716 79.776 387.472 79.902 388.291 80.028C389.047 80.28 389.74 80.532 390.37 80.847C391.63 80.532 392.953 80.217 394.276 79.965C395.536 79.776 396.418 79.587 396.985 79.461C397.678 79.272 398.182 79.083 398.56 78.831C398.875 78.705 399.19 78.201 399.505 77.445C400.072 76.059 400.513 74.799 400.765 73.665C400.765 73.602 400.765 73.476 400.828 73.224C400.828 73.035 400.828 72.846 400.828 72.657C400.702 72.531 400.576 72.405 400.45 72.279C400.198 72.216 399.883 72.279 399.505 72.405C399.127 72.594 398.434 72.783 397.489 72.972C396.481 73.224 395.41 73.476 394.402 73.665C393.268 73.917 392.323 74.169 391.441 74.358C390.559 74.61 389.992 74.799 389.74 74.925C389.236 75.177 388.669 75.429 388.039 75.618C387.283 75.87 386.716 75.87 386.338 75.555C385.834 75.303 385.519 74.988 385.267 74.547C385.015 74.169 384.7 73.791 384.385 73.35C384.007 72.972 383.944 72.72 384.133 72.531C384.259 72.405 384.511 72.342 385.015 72.279C385.456 72.279 386.086 72.279 386.842 72.153C387.535 72.153 388.291 72.027 389.173 71.775ZM403.6 97.416C403.663 97.164 403.852 97.038 404.167 96.912C404.419 96.849 404.797 96.975 405.238 97.29C405.805 97.794 406.372 98.172 406.939 98.55C407.443 98.928 407.758 99.432 407.884 99.999C408.01 100.629 408.01 101.322 407.884 102.141C407.695 103.023 407.254 104.094 406.561 105.354C406.12 106.11 405.616 106.803 405.112 107.433C404.545 108.126 403.978 108.819 403.348 109.575C403.726 109.701 404.23 109.89 404.797 110.142C405.301 110.331 405.868 110.583 406.372 110.898C406.876 111.15 407.317 111.402 407.758 111.78C408.136 112.032 408.388 112.347 408.514 112.725C408.577 112.977 408.64 113.229 408.766 113.481C408.829 113.67 408.892 113.859 408.955 114.111C409.144 114.048 409.459 113.796 409.9 113.418C410.908 112.41 411.727 111.339 412.42 110.205C413.05 109.008 413.554 108.063 413.869 107.37C414.121 106.803 414.373 106.236 414.688 105.732C414.94 105.291 415.129 104.913 415.255 104.535C415.318 104.157 415.318 103.842 415.318 103.527C415.192 103.275 415.003 103.212 414.688 103.275C414.31 103.401 414.058 103.464 413.932 103.527C413.743 103.653 413.554 103.716 413.365 103.716C413.239 103.716 413.113 103.716 412.924 103.59C412.672 103.527 412.483 103.401 412.294 103.275C412.042 103.212 411.853 103.086 411.727 102.96C411.538 102.834 411.475 102.708 411.475 102.519C411.475 102.204 411.538 101.952 411.538 101.7C411.538 101.511 411.853 101.385 412.609 101.259C413.302 101.196 413.743 101.07 413.995 100.881C414.121 100.755 414.436 100.503 414.814 100.062C415.255 99.747 415.57 99.432 415.822 99.117C415.948 98.865 416.2 98.676 416.515 98.424L417.271 98.046C417.46 97.983 417.712 97.92 417.964 97.794C418.153 97.731 418.342 97.668 418.594 97.668L420.736 97.92C420.862 97.92 421.051 98.046 421.24 98.298C421.366 98.55 421.303 99.054 421.114 99.81C420.799 100.944 420.358 102.204 419.854 103.464C419.287 104.85 418.657 106.173 417.964 107.433L417.208 108.504C418.027 108.819 418.972 109.323 419.98 110.016C420.988 110.646 421.807 111.213 422.5 111.78C422.878 112.095 423.256 112.473 423.76 112.914C424.138 113.292 424.579 113.67 424.957 114.111C425.335 114.489 425.65 114.804 425.902 115.182C426.154 115.497 426.28 115.749 426.406 116.001C426.532 116.379 426.595 116.757 426.469 117.135C426.343 117.513 425.965 117.639 425.461 117.513C424.957 117.387 424.516 117.324 424.201 117.324C423.823 117.198 423.508 117.261 423.256 117.513C423.004 117.639 422.689 117.765 422.437 117.891C422.059 117.891 421.681 117.639 421.177 117.135C420.925 116.883 420.673 116.442 420.358 115.812C419.98 115.182 419.539 114.489 419.161 113.733C418.657 112.977 418.216 112.221 417.712 111.528C417.208 110.772 416.704 110.205 416.2 109.827C415.822 110.205 415.507 110.52 415.255 110.898C414.94 111.213 414.688 111.528 414.436 111.906C414.31 112.032 414.121 112.284 413.869 112.662C413.554 112.977 413.239 113.355 412.987 113.733C412.609 114.111 412.294 114.426 411.979 114.804C411.601 115.119 411.349 115.371 411.223 115.497C410.467 116.19 409.837 116.82 409.396 117.387C409.27 117.45 409.207 117.576 409.081 117.765C408.955 117.891 408.766 118.08 408.577 118.269C408.388 118.521 408.199 118.647 408.01 118.584C407.506 118.773 407.191 118.458 407.191 117.702C406.687 116.82 405.994 115.749 405.049 114.552C404.041 113.292 403.033 112.284 401.899 111.528L401.71 111.402L400.009 113.166C398.749 114.363 397.552 115.371 396.418 116.253C395.284 117.009 394.15 117.513 393.079 117.765C392.512 117.891 392.071 117.954 391.756 118.017C391.378 118.017 391 118.08 390.748 118.08C390.433 118.08 390.181 118.017 389.929 117.954C389.614 117.828 389.299 117.765 389.047 117.639C388.417 117.261 388.228 117.009 388.48 116.883C388.606 116.631 389.047 116.568 389.74 116.568C390.37 116.568 391.063 116.505 391.882 116.379C392.638 116.253 393.394 115.938 394.276 115.497C395.347 114.867 396.292 114.048 397.174 112.977C397.993 111.843 398.686 110.772 399.316 109.764C398.434 109.134 397.552 108.567 396.733 108.063C395.851 107.559 395.284 107.181 395.095 107.055C394.717 106.866 394.528 106.614 394.528 106.236C394.465 105.921 394.78 105.858 395.41 106.11C395.914 106.362 396.607 106.614 397.489 106.929C398.308 107.307 399.19 107.748 400.198 108.126C400.954 106.551 401.458 105.228 401.836 104.22C402.151 103.275 402.403 102.456 402.655 101.7C402.907 100.881 403.159 99.999 403.285 99.117C403.411 98.298 403.474 97.731 403.6 97.416ZM408.64 84.249C407.632 84.123 407.128 83.871 407.002 83.493C406.876 83.115 407.065 82.926 407.695 82.8C407.947 82.8 408.199 82.737 408.451 82.737C408.577 82.737 408.829 82.737 409.081 82.674C409.333 82.674 409.648 82.674 410.026 82.611C410.341 82.611 410.845 82.611 411.475 82.485C411.979 82.485 412.924 82.359 414.436 82.233C415.885 82.17 417.397 81.981 418.909 81.666C418.846 80.469 418.846 79.398 418.846 78.453C418.846 77.571 418.846 77.067 418.972 76.941C419.098 76.815 419.287 76.689 419.476 76.689C419.602 76.689 419.665 76.563 419.791 76.248C419.791 76.185 419.791 76.059 419.728 75.807C419.224 76.059 418.72 76.248 418.279 76.374C417.775 76.626 417.271 76.752 416.83 76.815C416.452 76.941 416.074 77.004 415.57 77.13C415.003 77.256 414.499 77.382 413.995 77.445C413.428 77.571 412.924 77.571 412.483 77.571C411.979 77.634 411.664 77.571 411.475 77.445C411.223 77.319 411.034 77.193 410.908 77.004C410.719 76.878 410.53 76.689 410.404 76.5C410.215 76.374 410.026 76.185 409.774 75.996C409.459 75.87 409.081 75.807 408.64 75.744C407.632 75.618 407.128 75.366 407.002 74.988C406.876 74.61 407.065 74.421 407.695 74.295C407.947 74.295 408.199 74.232 408.451 74.232C408.577 74.232 408.829 74.232 409.081 74.169C409.333 74.169 409.648 74.169 410.026 74.106C410.341 74.106 410.845 74.106 411.475 73.98C411.727 73.98 412.105 73.98 412.672 73.917C413.176 73.917 413.806 73.854 414.562 73.728C415.255 73.665 416.011 73.539 416.893 73.413C417.649 73.35 418.468 73.224 419.224 73.098V70.704C419.098 69.507 419.098 68.562 419.224 67.806C419.224 67.176 419.224 66.546 419.224 65.916C419.098 65.475 419.098 64.971 419.098 64.404C419.035 63.9 418.783 63.459 418.279 63.018C417.775 62.64 417.334 62.388 416.956 62.199C416.452 62.073 416.011 61.884 415.633 61.632C415.381 61.506 415.255 61.38 415.255 61.128C415.192 60.939 415.255 60.75 415.381 60.498C415.444 60.372 415.633 60.183 415.885 60.057C416.137 59.994 416.452 59.994 416.893 60.12C417.145 60.246 417.523 60.372 418.153 60.498C418.657 60.687 419.287 60.876 419.98 61.002C420.61 61.254 421.303 61.443 421.996 61.569C422.626 61.821 423.193 61.947 423.571 62.01C424.138 62.136 424.579 62.325 424.957 62.451C425.272 62.703 425.335 63.081 425.146 63.711C424.894 64.404 424.705 65.097 424.516 65.853C424.264 66.609 424.138 67.428 424.138 68.31C424.138 68.94 424.138 69.696 424.138 70.704C424.075 71.712 424.075 72.594 424.075 73.35C424.012 73.728 423.949 74.169 423.949 74.736C423.886 75.366 423.886 75.996 423.886 76.626C423.823 77.319 423.823 77.949 423.823 78.516C423.76 79.146 423.76 79.65 423.76 79.965L423.823 84.186H423.76C423.76 84.942 423.76 85.698 423.76 86.391C423.697 87.147 423.634 87.714 423.571 88.155C423.508 88.659 423.382 89.163 423.256 89.73C423.004 90.36 422.815 90.99 422.563 91.494C422.248 92.124 421.996 92.628 421.744 93.069C421.429 93.573 421.177 93.951 420.925 94.14C420.673 94.392 420.358 94.581 420.106 94.707C419.728 94.959 419.476 95.085 419.224 95.085C418.909 95.211 418.72 95.148 418.594 95.022C418.468 94.896 418.468 94.644 418.657 94.14C418.783 93.762 418.846 93.258 418.909 92.502C418.909 91.872 418.972 91.053 419.035 90.171C419.035 89.289 419.035 88.407 419.035 87.399C418.972 86.454 418.972 85.509 418.972 84.627C418.153 85.005 417.46 85.194 416.83 85.32C416.452 85.446 416.074 85.509 415.57 85.635C415.003 85.761 414.499 85.887 413.995 85.95C413.428 86.076 412.924 86.076 412.483 86.076C411.979 86.139 411.664 86.076 411.475 85.95C411.223 85.824 411.034 85.698 410.908 85.509C410.719 85.383 410.53 85.194 410.404 85.005C410.215 84.879 410.026 84.69 409.774 84.501C409.459 84.375 409.081 84.312 408.64 84.249Z" fill="white"/>
<rect x="450.5" y="60.5" width="90" height="120" fill="#F6C500"/>
<rect x="450.5" y="60.5" width="90" height="120" stroke="black"/>
<path d="M498.576 133.59C498.576 134.85 498.576 135.795 498.576 136.551C498.513 137.37 498.45 138 498.45 138.567C498.387 139.071 498.324 139.449 498.324 139.827C498.261 140.142 498.198 140.457 498.198 140.835C498.135 141.276 498.009 141.843 497.883 142.473C497.631 143.103 497.442 143.733 497.19 144.363C496.938 144.993 496.623 145.56 496.371 146.064C496.056 146.568 495.804 146.883 495.552 147.135C495.3 147.324 494.985 147.513 494.733 147.765C494.355 147.891 494.103 148.017 493.851 148.143C493.536 148.143 493.347 148.143 493.221 148.017C493.095 147.891 493.095 147.576 493.284 147.135C493.41 146.631 493.536 145.938 493.662 144.93C493.662 143.859 493.725 142.725 493.725 141.591C493.725 140.331 493.725 139.134 493.725 138C493.662 136.866 493.662 135.858 493.662 135.039C493.599 133.59 493.599 132.267 493.599 131.007C493.536 129.81 493.536 129.18 493.662 129.054C493.788 128.865 493.914 128.739 494.103 128.739C494.229 128.739 494.355 128.613 494.481 128.361C494.481 128.235 494.481 128.046 494.418 127.92C494.292 127.794 494.229 127.668 494.166 127.479C494.04 127.353 493.914 127.101 493.851 126.849C493.725 126.66 493.725 126.408 493.788 126.03V124.707L491.331 124.959C490.323 125.085 489.252 125.274 487.992 125.463C486.732 125.715 485.535 125.904 484.401 126.093C483.204 126.345 482.133 126.597 481.251 126.786C480.243 127.038 479.613 127.29 479.298 127.416C478.542 127.794 477.975 127.983 477.597 127.983C477.093 128.109 476.463 127.983 475.644 127.605C475.266 127.479 474.825 127.29 474.321 127.101C473.754 126.975 473.187 126.786 472.683 126.597C472.116 126.471 471.612 126.345 471.171 126.156C470.667 126.03 470.226 125.904 469.974 125.715C469.596 125.589 469.407 125.4 469.344 125.148C469.218 124.959 469.155 124.77 469.218 124.518C469.218 124.392 469.281 124.203 469.533 124.077C469.659 123.951 469.911 123.951 470.289 124.014C470.982 124.14 471.486 124.203 471.864 124.14C472.179 124.14 472.683 124.077 473.439 123.825C474.132 123.636 474.699 123.51 475.203 123.384C475.581 123.384 476.148 123.321 476.904 123.195C477.219 123.132 477.66 123.069 478.227 122.943C478.731 122.943 479.298 122.88 479.928 122.754C480.432 122.754 480.999 122.691 481.566 122.565C482.07 122.565 482.511 122.502 482.889 122.502C483.393 122.502 484.338 122.376 485.787 122.25C487.173 122.187 488.748 122.061 490.386 121.935C491.961 121.809 493.473 121.683 494.985 121.557C496.434 121.494 497.505 121.431 498.135 121.431C498.702 121.431 499.395 121.368 500.277 121.305C501.033 121.305 501.852 121.305 502.671 121.242C503.427 121.242 504.12 121.242 504.813 121.179C505.443 121.179 505.884 121.179 506.199 121.116C506.766 121.053 507.333 120.864 507.963 120.612C508.53 120.36 509.16 120.234 509.916 120.234C510.609 120.234 511.365 120.297 512.121 120.423C512.877 120.612 513.57 120.675 514.326 120.612C515.019 120.612 515.712 120.423 516.342 120.108C516.909 119.856 517.539 119.856 518.232 119.982C518.547 120.108 518.925 120.171 519.429 120.171C519.807 120.297 520.248 120.36 520.626 120.486C521.004 120.612 521.256 120.801 521.508 120.927C521.697 121.179 521.76 121.431 521.634 121.683C521.382 122.313 521.193 122.691 521.067 122.754C520.878 122.88 520.626 123.006 520.374 123.195C520.248 123.321 520.185 123.447 520.248 123.699C520.248 124.014 520.185 124.329 520.185 124.581C520.059 124.896 519.933 125.148 519.744 125.274C519.492 125.526 519.114 125.526 518.547 125.4C517.161 125.148 515.901 124.959 514.641 124.77C513.381 124.644 512.247 124.518 511.239 124.392C510.168 124.329 509.286 124.266 508.593 124.14C507.837 124.077 507.333 123.951 507.081 123.825C506.766 123.699 506.577 123.636 506.451 123.573C506.262 123.573 506.136 123.51 506.01 123.447C505.884 123.447 505.695 123.447 505.569 123.447C505.38 123.447 505.128 123.447 504.813 123.447C504.435 123.447 503.679 123.51 502.545 123.573C501.411 123.699 500.151 123.888 498.765 124.077C498.702 125.778 498.639 127.416 498.639 128.928C498.576 130.566 498.576 132.078 498.576 133.59ZM486.669 97.554C487.551 97.428 488.685 97.239 489.945 96.987C491.142 96.798 492.402 96.546 493.788 96.231C495.048 95.979 496.371 95.727 497.694 95.349C498.954 95.097 500.151 94.782 501.159 94.53C501.789 94.341 502.482 94.341 503.175 94.467C503.805 94.656 504.498 94.845 505.254 95.034C505.947 95.286 506.64 95.538 507.396 95.79C508.089 96.105 508.656 96.357 509.16 96.609C509.979 97.05 510.231 98.373 509.979 100.515C509.853 101.145 509.727 102.027 509.538 103.224C509.286 104.484 509.097 105.807 508.908 107.193C508.656 108.579 508.404 109.902 508.215 111.162C507.963 112.422 507.837 113.43 507.774 114.06C507.648 114.753 507.585 115.194 507.585 115.446C507.522 115.761 507.459 115.95 507.459 116.076C507.333 116.202 507.27 116.328 507.207 116.454C507.081 116.58 506.955 116.832 506.829 117.21C506.577 117.966 506.199 118.407 505.821 118.533C505.317 118.785 504.939 118.659 504.624 118.155C504.372 117.714 503.994 117.21 503.49 116.706C502.923 116.265 502.356 115.824 501.789 115.32C501.096 114.942 500.844 114.627 501.096 114.312C501.222 114.06 501.663 113.934 502.419 113.934C503.112 114.06 503.616 113.934 503.931 113.556C504.183 113.304 504.309 112.926 504.309 112.485C504.309 112.296 504.309 111.666 504.372 110.595C504.372 109.587 504.435 108.516 504.561 107.256C504.561 106.059 504.624 104.925 504.75 103.791C504.813 102.72 504.876 101.964 504.939 101.586C505.002 100.641 504.813 99.885 504.372 99.381C503.868 98.877 503.364 98.562 502.734 98.436C502.104 98.373 501.474 98.31 500.718 98.247C499.962 98.247 499.332 98.31 498.954 98.31C498.198 98.562 497.505 98.751 496.812 98.94C496.056 99.192 495.426 99.318 494.985 99.444C494.481 99.633 493.914 99.822 493.284 100.011C492.654 100.263 492.024 100.515 491.394 100.704C490.701 100.956 490.071 101.082 489.504 101.208C488.874 101.397 488.307 101.46 487.866 101.397C486.354 101.334 485.094 101.019 483.96 100.389C482.763 99.822 481.881 99.318 481.314 98.94C481.125 98.814 480.999 98.688 480.936 98.436C480.81 98.31 480.81 98.121 480.873 97.869C480.873 97.743 480.936 97.554 481.188 97.428C481.314 97.365 481.566 97.365 481.944 97.365C482.196 97.428 482.511 97.491 482.952 97.491C483.33 97.554 483.708 97.554 484.212 97.554C484.653 97.554 485.094 97.554 485.598 97.554C485.976 97.554 486.354 97.554 486.669 97.554Z" fill="white"/>
<rect x="540.5" y="0.5" width="90" height="120" fill="#F6C500"/>
<rect x="540.5" y="0.5" width="90" height="120" stroke="black"/>
<path d="M571.526 61.305L571.652 62.061C571.652 62.565 571.589 62.943 571.526 63.321C571.4 63.762 571.148 64.077 570.707 64.266C570.203 64.455 569.762 64.455 569.321 64.329C568.817 64.203 568.313 63.825 567.872 63.195C567.494 62.754 567.116 61.998 566.612 60.864C566.108 59.793 565.541 58.596 565.037 57.336C564.47 56.139 563.966 54.942 563.525 53.745C563.021 52.611 562.643 51.666 562.391 51.036C561.761 49.776 561.383 48.705 561.131 47.823C560.816 47.004 560.627 45.933 560.501 44.61C560.375 43.98 560.375 43.539 560.501 43.287C560.564 43.098 560.69 42.972 560.879 42.972C561.005 43.035 561.131 43.161 561.32 43.287C561.446 43.476 561.635 43.602 561.761 43.728C562.013 44.106 562.517 44.484 563.147 44.988C563.714 45.492 564.218 45.744 564.596 45.744C564.785 45.744 565.1 45.807 565.478 45.87C565.856 45.996 566.234 46.122 566.612 46.248C566.99 46.5 567.305 46.752 567.683 47.067C567.998 47.445 568.187 47.823 568.313 48.264C568.439 48.768 568.565 49.398 568.691 50.028C568.754 50.784 568.88 51.477 569.006 52.107C569.132 52.863 569.195 53.493 569.321 53.997C569.384 54.627 569.447 55.005 569.573 55.131L570.392 57.651C570.581 57.966 570.833 58.155 571.085 58.281C571.589 58.785 572.345 58.974 573.353 58.911C574.235 58.911 575.117 58.911 575.873 58.785C577.385 58.596 578.456 58.218 578.96 57.651C579.401 57.147 579.716 56.265 579.842 55.005C579.842 54.438 579.905 53.745 579.968 52.863C579.968 52.107 579.968 51.288 579.968 50.406C579.968 49.65 579.968 48.894 579.968 48.138C579.905 47.508 579.905 47.004 579.905 46.752C579.905 46.311 579.716 45.933 579.401 45.681C579.023 45.429 578.393 45.366 577.511 45.492C577.007 45.618 576.44 45.681 575.747 45.744C574.991 45.87 574.298 45.933 573.605 45.996C572.849 46.122 572.156 46.185 571.589 46.185C570.959 46.311 570.518 46.311 570.266 46.311C570.014 46.311 569.699 46.311 569.447 46.185C569.069 46.185 568.817 46.059 568.691 45.933C568.502 45.807 568.439 45.681 568.502 45.492C568.502 45.366 568.754 45.177 569.258 44.925C569.699 44.673 570.266 44.484 570.896 44.232C571.526 44.043 572.156 43.791 572.849 43.539C573.479 43.35 574.046 43.098 574.676 42.846C575.18 42.594 575.621 42.342 575.936 42.027C576.503 41.46 577.07 40.893 577.637 40.326C578.141 39.822 578.771 39.507 579.653 39.507C580.409 39.507 581.165 39.633 581.921 39.822C582.551 40.074 583.496 40.2 584.693 40.263C585.197 40.326 585.701 40.452 586.205 40.641C586.583 40.893 586.898 41.208 587.15 41.523C587.276 41.901 587.339 42.279 587.276 42.657C587.15 43.161 586.772 43.602 586.268 43.98C585.701 44.484 585.26 44.862 585.008 45.114C584.63 45.429 584.441 45.744 584.315 45.996C584.189 46.374 584.126 46.752 584.126 47.13C584.126 47.634 584.126 48.201 584.252 48.957C584.252 49.713 584.315 50.532 584.378 51.288C584.378 52.107 584.441 52.863 584.441 53.556C584.441 54.312 584.441 54.942 584.441 55.509C584.441 56.139 584.441 56.643 584.441 56.895C584.441 57.588 584.252 58.092 584 58.407C583.685 58.785 583.307 59.163 582.803 59.604C582.299 60.108 581.984 60.612 581.795 61.179C581.543 61.809 581.228 62.187 580.724 62.25C580.031 62.376 579.338 62.376 578.582 62.313C577.763 62.313 576.944 62.187 576.188 62.061C575.306 61.998 574.487 61.872 573.731 61.683C572.912 61.557 572.156 61.431 571.526 61.305ZM595.277 50.28C595.277 50.154 595.277 49.902 595.277 49.524C595.214 49.272 595.214 48.894 595.214 48.516C595.214 48.201 595.214 47.886 595.277 47.571C595.277 47.319 595.34 47.13 595.466 47.004C595.592 46.815 595.718 46.689 595.907 46.689C596.033 46.752 596.159 46.626 596.285 46.311C596.285 46.185 596.285 45.996 596.222 45.87C596.096 45.744 595.97 45.618 595.907 45.429C595.781 45.303 595.655 45.051 595.592 44.799C595.466 44.61 595.466 44.358 595.592 43.98C595.655 43.539 595.718 43.035 595.718 42.405C595.655 41.901 595.655 41.334 595.655 40.767C595.592 39.507 595.592 38.562 595.655 37.806C595.655 37.176 595.655 36.546 595.655 35.979C595.592 35.538 595.529 35.034 595.529 34.467C595.466 33.963 595.214 33.522 594.773 33.081C594.269 32.703 593.765 32.451 593.387 32.262C592.883 32.136 592.505 31.947 592.127 31.695C591.875 31.569 591.749 31.443 591.749 31.191C591.686 31.002 591.686 30.813 591.812 30.561C591.875 30.435 592.064 30.246 592.316 30.12C592.568 30.057 592.883 30.057 593.387 30.12C593.576 30.246 593.954 30.372 594.584 30.498C595.088 30.687 595.718 30.876 596.411 31.065C597.041 31.317 597.734 31.506 598.427 31.632C599.057 31.821 599.624 31.947 600.002 32.01C600.569 32.199 601.01 32.388 601.388 32.514C601.703 32.766 601.766 33.144 601.577 33.774C601.325 34.467 601.136 35.16 600.947 35.916C600.695 36.735 600.569 37.554 600.569 38.373C600.569 39.003 600.569 39.759 600.569 40.704C600.506 41.712 600.506 42.657 600.506 43.413C600.506 43.791 600.443 44.232 600.443 44.799C600.38 45.429 600.317 46.122 600.317 46.752C600.254 47.445 600.254 48.075 600.254 48.642C600.191 49.272 600.191 49.776 600.191 50.091V51.729L601.325 51.54C601.829 51.414 602.207 51.351 602.585 51.225C602.837 51.162 603.089 51.099 603.341 50.973C603.467 50.973 603.656 50.847 603.908 50.721C604.034 50.658 604.286 50.532 604.538 50.406C605.042 50.154 605.546 49.965 606.05 49.776C606.491 49.65 606.995 49.587 607.499 49.713C608.066 49.839 608.633 49.839 609.2 49.713C609.704 49.65 610.082 49.587 610.397 49.587C610.901 49.587 611.342 49.713 611.846 49.965C612.224 50.343 612.476 50.721 612.602 51.225C612.602 51.414 612.665 51.603 612.728 51.792C612.728 52.044 612.791 52.296 612.791 52.485C612.791 52.737 612.728 52.926 612.602 53.052C612.413 53.241 612.161 53.367 611.846 53.43C611.153 53.682 610.271 53.745 609.263 53.745C608.129 53.745 607.247 53.745 606.554 53.619C606.239 53.619 605.798 53.619 605.231 53.619C604.601 53.682 604.034 53.745 603.404 53.745C602.774 53.808 602.144 53.871 601.577 53.871C600.947 53.997 600.506 54.06 600.254 54.06H600.128V57.147C600.002 58.722 600.002 60.045 600.002 61.053C599.939 62.187 599.939 62.943 599.939 63.321C599.939 64.014 599.813 64.77 599.687 65.589C599.435 66.471 599.246 67.29 598.994 68.046C598.679 68.928 598.364 69.684 598.112 70.314C597.734 71.007 597.482 71.448 597.23 71.7C596.978 72.015 596.663 72.267 596.411 72.519C596.033 72.834 595.781 73.023 595.529 73.086C595.214 73.212 595.025 73.212 594.899 72.96C594.773 72.834 594.773 72.393 594.962 71.7C595.088 71.07 595.214 70.062 595.34 68.613C595.403 67.227 595.466 65.715 595.529 64.077C595.529 62.502 595.529 60.927 595.529 59.289C595.466 57.777 595.466 56.454 595.466 55.446C595.466 54.69 595.466 53.934 595.403 53.115C595.277 52.359 595.277 51.414 595.277 50.28ZM582.803 69.621C583.118 69.621 583.433 69.81 583.685 70.062C583.874 70.377 583.811 70.755 583.559 71.196C583.433 71.448 583.244 71.7 583.055 72.078C582.803 72.519 582.614 72.96 582.425 73.338C582.173 73.842 581.921 74.22 581.795 74.598C581.543 75.039 581.417 75.354 581.354 75.543C581.291 75.795 581.228 76.236 581.165 76.74C581.039 77.37 580.913 77.937 580.913 78.567C580.85 79.197 580.85 79.827 580.913 80.457C580.913 81.024 581.102 81.465 581.354 81.78C581.858 82.347 582.488 82.725 583.181 82.914C583.811 83.04 584.441 83.166 585.071 83.229C585.764 83.229 586.646 83.166 587.78 83.166C588.788 83.04 589.859 82.977 590.993 82.851C592.001 82.662 593.009 82.473 594.017 82.347C594.962 82.158 595.718 81.969 596.222 81.78C597.041 81.465 597.797 81.339 598.49 81.402C599.12 81.402 599.687 81.591 600.191 82.095C600.443 82.347 600.695 82.536 601.01 82.788C601.262 82.914 601.514 83.103 601.766 83.292C601.892 83.418 602.018 83.544 602.081 83.67C602.081 83.796 601.955 83.922 601.703 84.048C601.136 84.3 600.632 84.615 600.128 84.867C599.624 85.056 598.931 85.245 598.112 85.497C597.734 85.623 597.419 85.749 597.293 85.938C597.041 86.064 596.915 86.19 596.789 86.379C596.6 86.505 596.411 86.694 596.222 86.883C595.97 87.009 595.655 87.072 595.214 87.198C594.71 87.261 593.891 87.324 592.82 87.387C591.686 87.387 590.426 87.324 589.166 87.324C587.843 87.261 586.583 87.198 585.449 87.135C584.252 87.009 583.37 86.946 582.74 86.82C581.984 86.631 581.228 86.379 580.598 86.127C579.905 85.749 579.338 85.371 578.834 84.867C578.33 84.3 577.952 83.67 577.7 82.977C577.385 82.221 577.259 81.339 577.322 80.331C577.385 79.071 577.448 77.937 577.511 76.803C577.511 75.732 577.574 74.913 577.574 74.283C577.574 73.905 577.448 73.59 577.196 73.275C576.881 73.023 576.629 72.771 576.377 72.393C576.251 72.267 576.125 72.141 575.999 71.889C575.81 71.763 575.684 71.574 575.558 71.322C575.432 71.133 575.369 70.881 575.369 70.629C575.306 70.377 575.369 70.125 575.558 69.81C575.873 69.18 576.125 68.802 576.377 68.676C576.566 68.613 576.818 68.676 577.133 68.865C577.259 68.991 577.322 69.117 577.385 69.243C577.385 69.369 577.385 69.495 577.385 69.558C577.385 69.684 577.385 69.81 577.448 69.873C577.448 69.999 577.574 69.999 577.826 69.999C578.204 70.125 578.582 70.062 578.96 69.873C579.275 69.747 579.716 69.621 580.22 69.558C580.661 69.558 581.102 69.495 581.606 69.495C582.047 69.558 582.425 69.621 582.803 69.621Z" fill="white"/>
</svg>
