<svg width="271" height="151" viewBox="0 0 271 151" fill="none" xmlns="http://www.w3.org/2000/svg">
<rect x="0.5" y="0.5" width="90" height="120" fill="#F6C500"/>
<rect x="0.5" y="0.5" width="90" height="120" stroke="black"/>
<path d="M38.6862 48.075C39.5052 48.201 40.3872 48.327 41.3322 48.579C42.2142 48.894 43.0332 49.335 43.8522 49.902C44.6082 50.532 45.3012 51.225 45.8682 52.107C46.3722 53.052 46.6242 54.186 46.7502 55.446C46.7502 56.076 46.7502 56.454 46.7502 56.706C46.6872 56.958 46.6242 57.147 46.6242 57.273C46.4982 57.399 46.4352 57.525 46.3722 57.525C46.2462 57.588 46.1202 57.651 46.1202 57.777C46.0572 57.903 46.0572 58.029 46.1202 58.029C46.1202 58.155 46.1832 58.218 46.3092 58.344C46.3092 58.47 46.3722 58.659 46.4352 58.848C46.4352 59.1 46.4352 59.478 46.3092 59.856C45.9312 61.053 45.4902 62.313 44.9232 63.573C44.2932 64.959 43.3482 66.03 42.1512 66.849C41.5212 67.353 40.7652 67.731 40.0092 67.92C39.1902 68.172 38.4342 68.361 37.6782 68.424C36.8592 68.55 36.1662 68.55 35.5362 68.55C34.8432 68.55 34.3392 68.55 33.9612 68.55C32.9532 68.424 32.0082 68.172 31.1262 67.794C30.1182 67.479 29.2992 67.164 28.6062 66.786C27.3462 66.156 26.4642 65.274 25.8342 64.14C25.2042 63.069 24.7632 61.935 24.5742 60.738C24.3222 59.604 24.3222 58.407 24.4482 57.273C24.5742 56.202 24.7632 55.32 25.1412 54.564C25.4562 53.745 25.9602 52.863 26.7162 51.918C27.3462 51.036 28.2912 50.28 29.4252 49.524C29.1732 48.894 28.9842 48.201 28.7322 47.571C28.4802 47.004 28.2282 46.563 27.9762 46.248C27.7242 45.996 27.5352 45.744 27.5352 45.492C27.4722 45.24 27.5352 45.051 27.6612 44.862C27.7872 44.736 27.9762 44.61 28.2282 44.547C28.4172 44.547 28.6692 44.673 28.9842 44.862C29.2362 45.051 29.4882 45.177 29.7402 45.303C29.9292 45.492 30.1812 45.618 30.4332 45.744C30.6852 45.87 30.9372 45.996 31.3152 46.122C31.5672 46.311 31.9452 46.5 32.4492 46.689C32.8272 46.941 33.1422 47.256 33.4572 47.634C33.7092 48.075 33.9612 48.516 34.1502 49.02C34.6542 48.831 35.2842 48.579 36.1032 48.327C36.8592 48.138 37.6782 48.075 38.6862 48.075ZM63.6972 43.287C63.6972 43.665 63.6342 44.106 63.6342 44.673C63.5712 45.303 63.5712 45.996 63.5712 46.626C63.5082 47.319 63.5082 47.949 63.5082 48.516C63.4452 49.146 63.4452 49.65 63.4452 49.965C63.4452 50.658 63.4452 51.225 63.5082 51.729C63.5082 52.296 63.5082 52.8 63.5082 53.304C63.5082 53.871 63.5082 54.438 63.5712 55.005C63.5712 55.635 63.5712 56.391 63.5712 57.21C63.5712 57.84 63.5712 58.533 63.6342 59.289C63.6342 60.108 63.6342 60.864 63.6342 61.62C63.6342 62.439 63.6342 63.195 63.6342 63.888C63.5712 64.644 63.5712 65.337 63.5712 65.841C63.4452 68.109 63.4452 69.936 63.4452 71.448C63.3822 73.023 63.3822 74.094 63.3822 74.661C63.3822 75.669 63.2562 76.74 63.1302 77.937C62.8782 79.134 62.6892 80.331 62.4372 81.465C62.1222 82.599 61.8072 83.607 61.5552 84.552C61.1772 85.434 60.9252 86.127 60.6732 86.505C60.4212 86.883 60.1062 87.324 59.8542 87.765C59.4762 88.143 59.2242 88.395 58.9722 88.584C58.6572 88.71 58.4682 88.647 58.3422 88.395C58.2162 88.08 58.2162 87.45 58.4052 86.505C58.5312 85.56 58.6572 84.111 58.7832 82.158C58.7832 80.142 58.8462 78 58.9092 75.669C58.9092 73.401 58.9092 71.133 58.9092 68.865C58.8462 66.66 58.8462 64.833 58.8462 63.447C58.9092 62.376 58.9092 61.242 58.8462 60.108C58.7202 58.974 58.7202 57.651 58.7202 56.013C58.6572 55.005 58.6572 53.934 58.6572 52.8C58.5942 51.729 58.5942 50.721 58.5942 49.839C58.5942 49.02 58.5942 48.327 58.5942 47.76C58.5942 47.256 58.5942 46.941 58.6572 46.878C58.7832 46.752 58.9722 46.626 59.1612 46.626C59.2872 46.626 59.3502 46.5 59.4762 46.185C59.4762 46.059 59.4762 45.87 59.4132 45.744C59.2872 45.618 59.2242 45.492 59.1612 45.303C59.0352 45.177 58.9092 44.988 58.8462 44.736C58.7202 44.547 58.7202 44.295 58.7832 43.917C58.8462 43.476 58.9092 42.972 58.9092 42.342C58.8462 41.838 58.8462 41.271 58.8462 40.641C58.7832 39.381 58.7832 38.436 58.9092 37.743C58.9092 37.113 58.9092 36.546 58.8462 35.916C58.7832 35.475 58.7832 34.971 58.7832 34.404C58.7202 33.9 58.4682 33.459 57.9642 33.018C57.4602 32.64 57.0192 32.388 56.5782 32.199C56.0742 32.073 55.6962 31.884 55.3182 31.632C55.0662 31.506 54.9402 31.38 54.9402 31.128C54.8772 30.939 54.9402 30.75 55.0662 30.498C55.1292 30.372 55.3182 30.183 55.5702 30.057C55.8222 29.994 56.1372 29.994 56.5782 30.12C56.7672 30.246 57.1452 30.309 57.7752 30.435C58.2792 30.624 58.9092 30.813 59.6652 30.939C60.2952 31.191 60.9882 31.38 61.6812 31.506C62.3112 31.695 62.8152 31.821 63.2562 31.884C63.8232 32.073 64.2642 32.262 64.6422 32.388C64.9572 32.64 65.0202 33.018 64.8312 33.648C64.5792 34.341 64.3902 35.034 64.2012 35.79C63.9492 36.609 63.8232 37.428 63.8232 38.31C63.8232 38.877 63.7602 39.633 63.7602 40.641C63.6972 41.649 63.6972 42.531 63.6972 43.287ZM33.2682 52.863C32.7012 53.367 32.2602 53.619 31.8822 53.682C31.4412 53.808 31.0632 53.808 30.8112 53.682C30.1812 53.745 29.6772 54.123 29.3622 54.816C28.9842 55.572 28.7322 56.202 28.6692 56.832C28.5432 57.588 28.5432 58.281 28.6062 58.974C28.6062 59.73 28.7952 60.36 29.1102 60.99C29.3622 61.62 29.7402 62.187 30.3702 62.691C30.9372 63.195 31.7562 63.573 32.7642 63.825C34.0242 64.203 35.1582 64.266 36.2922 64.14C37.3002 64.014 38.3082 63.762 39.2532 63.384C40.4502 62.439 41.2062 61.368 41.5842 60.108C41.8992 58.974 42.0882 57.651 42.2142 56.265C42.2772 54.816 41.8992 53.556 41.1432 52.422C40.3242 51.351 39.2532 50.658 37.8672 50.406C37.3632 50.343 36.7962 50.343 36.1662 50.343C35.4732 50.406 34.9062 50.406 34.4022 50.406C34.4022 51.414 34.0242 52.233 33.2682 52.863Z" fill="white"/>
<rect x="90.5" y="30.5" width="90" height="120" fill="#F6C500"/>
<rect x="90.5" y="30.5" width="90" height="120" stroke="black"/>
<path d="M145.963 82.17C146.593 80.721 147.286 79.272 148.105 77.823C148.861 76.437 149.68 75.114 150.499 73.854C150.499 73.413 150.562 72.909 150.562 72.342C150.499 71.838 150.499 71.271 150.562 70.641C150.499 69.381 150.499 68.436 150.562 67.743C150.562 67.113 150.562 66.483 150.562 65.853C150.499 65.412 150.499 64.908 150.499 64.404C150.436 63.9 150.184 63.459 149.743 63.018C149.239 62.64 148.798 62.388 148.42 62.199C147.916 62.073 147.538 61.884 147.223 61.632C146.971 61.506 146.845 61.38 146.845 61.128C146.782 60.939 146.782 60.75 146.908 60.498C146.971 60.372 147.16 60.183 147.412 60.057C147.601 59.994 147.916 59.994 148.357 60.12C148.546 60.246 148.924 60.309 149.491 60.435C149.995 60.624 150.625 60.813 151.318 60.939C151.948 61.191 152.578 61.38 153.208 61.506C153.838 61.695 154.342 61.821 154.72 61.884C155.224 62.073 155.665 62.262 156.043 62.388C156.295 62.64 156.358 63.018 156.169 63.648C155.917 64.341 155.728 65.034 155.602 65.79C155.35 66.609 155.287 67.428 155.287 68.31C155.287 68.877 155.287 69.633 155.287 70.641C155.224 71.649 155.161 72.531 155.098 73.287C155.098 73.665 155.098 74.106 155.098 74.673C155.035 75.303 155.035 75.996 155.035 76.626C154.972 77.319 154.972 77.949 154.972 78.516C154.909 79.146 154.909 79.65 154.909 79.965C154.909 80.658 154.909 81.225 154.972 81.729C154.972 82.296 154.972 82.8 154.972 83.304C154.972 83.871 154.972 84.438 155.035 85.005C155.035 85.635 155.035 86.391 155.035 87.21V95.841C154.909 98.109 154.846 99.936 154.846 101.448C154.783 103.023 154.783 104.094 154.783 104.661C154.783 105.669 154.657 106.74 154.531 107.937C154.342 109.134 154.153 110.331 153.901 111.465C153.649 112.599 153.334 113.607 153.082 114.552C152.767 115.434 152.515 116.127 152.263 116.505C152.011 116.883 151.696 117.324 151.444 117.765C151.129 118.143 150.877 118.395 150.625 118.584C150.373 118.71 150.184 118.647 150.058 118.395C149.932 118.08 149.932 117.45 150.121 116.505C150.184 115.875 150.247 114.993 150.373 113.922C150.373 112.788 150.436 111.528 150.499 110.142C150.499 108.693 150.562 107.244 150.562 105.669C150.562 104.157 150.562 102.582 150.562 101.07V93.447C150.562 92.376 150.499 91.242 150.499 90.108C150.436 88.974 150.436 87.651 150.436 86.013C150.31 85.005 150.31 83.934 150.31 82.863C150.247 81.855 150.247 80.91 150.247 80.028C149.869 80.91 149.554 81.729 149.302 82.485C148.924 83.367 148.609 84.186 148.294 85.005C147.916 85.887 147.538 86.832 147.16 87.84C146.656 88.911 146.278 89.982 145.9 91.116C145.459 92.25 145.081 93.384 144.829 94.518C144.451 95.652 144.262 96.723 144.199 97.605C144.073 98.235 144.073 98.739 144.136 99.18C144.136 99.684 144.136 100.125 144.136 100.44C144.01 100.818 143.884 101.133 143.695 101.259C143.443 101.448 143.002 101.511 142.435 101.385C141.805 101.322 141.301 101.259 140.923 101.133C140.482 101.07 140.167 100.881 139.915 100.566C139.663 100.314 139.474 99.936 139.411 99.369C139.285 98.865 139.222 98.046 139.285 96.975C139.285 96.219 139.348 95.274 139.348 94.14C139.285 93.069 139.285 91.935 139.285 90.738C139.222 89.604 139.222 88.47 139.222 87.336C139.222 86.265 139.222 85.257 139.285 84.375C139.222 83.304 139.222 82.359 139.222 81.54C139.222 80.784 139.222 80.406 139.348 80.343C139.474 80.217 139.6 80.091 139.789 80.091C139.915 80.091 139.978 79.965 140.104 79.65C140.104 79.524 140.104 79.335 140.104 79.209C139.978 79.083 139.915 78.957 139.852 78.768C139.726 78.642 139.6 78.453 139.537 78.201C139.411 78.012 139.411 77.76 139.474 77.382C139.537 76.941 139.6 76.437 139.6 75.807C139.537 75.303 139.537 74.736 139.537 74.106C139.537 72.846 139.537 71.901 139.6 71.208C139.6 70.578 139.537 69.948 139.537 69.318C139.474 68.877 139.474 68.373 139.474 67.869C139.411 67.365 139.159 66.924 138.718 66.483C138.214 66.105 137.773 65.853 137.395 65.664C136.954 65.538 136.576 65.349 136.261 65.097C136.072 64.971 135.946 64.845 135.946 64.593C135.82 64.404 135.883 64.215 136.009 63.963C136.072 63.837 136.261 63.648 136.513 63.522C136.702 63.459 137.017 63.459 137.395 63.585C137.584 63.711 137.962 63.774 138.529 63.9C139.033 64.089 139.6 64.278 140.23 64.404C140.86 64.656 141.49 64.845 142.12 64.971C142.75 65.16 143.254 65.286 143.632 65.349C144.136 65.538 144.514 65.727 144.892 65.853C145.144 66.105 145.207 66.483 145.081 67.113C144.829 67.806 144.64 68.499 144.514 69.255C144.262 70.074 144.199 70.893 144.199 71.775C144.136 72.342 144.136 73.098 144.136 74.106C144.136 75.177 144.073 76.059 144.01 76.815C144.01 77.193 143.947 77.571 143.947 78.075C143.884 78.642 143.821 79.209 143.821 79.776C143.758 80.406 143.758 81.036 143.758 81.603C143.695 82.233 143.695 82.674 143.695 83.052C143.569 84.564 143.758 85.257 144.136 85.131C144.514 85.068 145.081 84.06 145.963 82.17ZM122.59 100.125C123.85 100.062 124.984 99.936 126.055 99.684C127.063 99.495 128.071 99.243 129.205 98.865C129.646 98.739 130.213 98.361 130.843 97.794C131.41 97.29 131.788 96.597 132.04 95.715L132.985 91.872C133.048 91.557 133.174 91.305 133.363 91.053C133.489 90.927 133.615 91.116 133.804 91.683C133.993 92.313 134.119 92.754 134.119 93.006C134.056 93.321 134.119 93.573 134.245 93.699C134.434 93.888 134.623 93.951 134.875 93.825C135.001 93.825 135.127 93.951 135.19 94.266C135.253 94.644 135.379 94.896 135.568 95.022C135.694 95.274 135.82 95.337 136.009 95.274C136.324 95.274 136.576 95.589 136.702 96.156C136.702 96.471 136.765 96.66 137.017 96.786C137.143 96.975 137.269 97.227 137.395 97.605C137.395 98.046 137.269 98.55 136.891 99.054C136.45 99.621 136.009 100.062 135.568 100.377C134.938 100.818 134.056 101.196 132.922 101.511C131.725 101.889 130.591 102.141 129.52 102.33C128.26 102.582 127.063 102.708 125.929 102.771C124.669 102.897 123.472 102.96 122.275 102.96C121.393 102.96 120.511 102.897 119.755 102.771C118.936 102.645 118.243 102.393 117.676 102.015C117.046 101.637 116.542 101.133 116.227 100.377C115.849 99.747 115.66 98.802 115.66 97.605C115.66 95.589 115.723 93.825 115.849 92.25C115.912 90.738 115.975 89.793 115.975 89.289V89.1C115.723 88.974 115.534 88.911 115.408 88.785C115.156 88.722 115.03 88.659 114.967 88.533C114.841 88.47 114.841 88.344 114.967 88.218C115.03 88.155 115.282 88.029 115.66 87.84C115.408 87.399 115.093 86.958 114.715 86.58C114.085 86.139 113.77 85.761 113.77 85.383C113.644 85.068 113.959 84.942 114.715 85.005C115.471 85.131 116.227 85.32 117.046 85.572C117.802 85.887 118.432 86.202 118.999 86.58L119.062 86.643C119.944 86.391 120.826 86.076 121.708 85.824C122.527 85.572 123.22 85.383 123.85 85.131C124.48 84.879 124.984 84.564 125.362 84.249C125.74 83.997 126.055 83.493 126.37 82.611C126.496 82.233 126.622 81.729 126.811 81.225C126.937 80.721 127.126 80.217 127.315 79.713C127.441 79.209 127.567 78.768 127.693 78.264C127.819 77.823 127.882 77.445 127.945 77.13C128.008 76.689 128.008 76.311 127.882 75.933C127.693 75.681 127.189 75.681 126.37 75.996C125.992 76.185 125.425 76.374 124.669 76.626C123.85 76.878 123.031 77.13 122.212 77.382C121.33 77.634 120.574 77.886 119.944 78.075C119.188 78.327 118.747 78.579 118.495 78.705C117.991 79.083 117.424 79.335 116.794 79.461C116.038 79.713 115.471 79.65 115.03 79.335C114.589 79.083 114.274 78.768 114.022 78.516C113.77 78.264 113.455 77.949 113.14 77.445C112.51 76.689 112.762 76.311 113.77 76.185C114.211 76.122 114.841 75.996 115.723 75.807C116.479 75.681 117.298 75.492 118.18 75.24C118.432 75.24 119.062 75.051 120.007 74.799C120.889 74.547 121.834 74.295 122.905 73.917C123.913 73.665 124.921 73.35 125.866 73.035C126.748 72.783 127.315 72.531 127.63 72.405C128.89 71.775 130.087 71.649 131.221 72.09C131.725 72.342 132.229 72.594 132.859 72.909C133.426 73.287 133.804 73.665 133.93 73.98C134.119 74.358 134.245 74.673 134.245 74.988C134.182 75.366 134.182 75.807 134.245 76.185C134.245 76.563 134.056 77.004 133.678 77.382C133.3 77.886 132.922 78.201 132.67 78.39C132.544 78.516 132.355 78.705 132.229 79.083C132.04 79.461 131.851 79.902 131.662 80.28C131.41 80.784 131.221 81.225 131.032 81.666C130.78 82.17 130.591 82.548 130.465 82.8C130.213 83.178 130.213 83.367 130.465 83.43C130.591 83.556 130.843 83.556 131.095 83.556C131.347 83.556 131.599 83.493 131.977 83.493C132.292 83.493 132.544 83.745 132.67 84.186C132.733 84.69 132.67 85.068 132.481 85.32C132.229 85.698 131.977 86.013 131.662 86.265C131.284 86.643 130.843 86.832 130.213 86.832C129.583 86.958 128.89 87.084 128.26 87.21C127.252 87.462 126.118 87.651 124.984 87.84C123.787 88.092 122.842 88.407 122.086 88.722L121.015 89.289C120.889 89.73 120.826 90.108 120.763 90.36C120.637 90.675 120.511 90.99 120.385 91.305C120.196 91.809 120.007 92.502 119.881 93.51C119.629 94.518 119.503 95.463 119.44 96.345C119.251 97.605 119.377 98.55 119.818 99.18C120.196 99.936 121.078 100.251 122.59 100.125Z" fill="white"/>
<rect x="180.5" y="0.5" width="90" height="120" fill="#F6C500"/>
<rect x="180.5" y="0.5" width="90" height="120" stroke="black"/>
<path d="M236.663 35.349C237.167 35.538 237.608 35.727 237.923 35.853C238.175 36.105 238.238 36.483 238.049 37.113C237.86 37.806 237.671 38.499 237.545 39.255C237.293 40.074 237.23 40.893 237.23 41.775C237.167 42.342 237.167 43.098 237.167 44.106C237.167 45.114 237.104 45.996 237.104 46.752C237.104 47.13 237.104 47.571 237.104 48.138C237.041 48.768 236.978 49.461 236.978 50.091C236.915 50.784 236.915 51.414 236.915 51.981C236.915 52.611 236.915 53.115 236.915 53.43C236.915 54.375 236.915 55.194 236.915 55.95C236.915 56.769 236.852 57.588 236.852 58.47C236.852 59.856 236.915 61.368 236.978 62.88C236.978 64.518 236.978 65.967 236.978 67.353C236.978 68.802 236.978 69.999 236.978 71.007C236.915 72.078 236.915 72.708 236.915 72.96C236.852 73.716 236.6 74.157 236.159 74.409C235.655 74.724 235.277 75.039 234.962 75.354C234.71 75.543 234.521 75.732 234.332 75.858C234.08 76.11 233.891 76.236 233.702 76.236C233.45 76.299 233.198 76.236 233.072 75.984C232.883 75.795 232.757 75.354 232.757 74.724C232.694 74.346 232.694 73.653 232.694 72.519C232.694 71.511 232.694 70.188 232.694 68.676V58.344C232.442 58.596 232.127 58.722 231.875 58.722C231.623 58.785 231.308 58.848 230.93 58.974C230.489 59.1 230.048 59.226 229.67 59.289C229.229 59.415 228.851 59.478 228.473 59.478C228.095 59.541 227.843 59.478 227.717 59.352C227.402 59.1 227.15 58.785 227.024 58.344C226.772 57.966 226.457 57.714 226.016 57.462L225.512 58.785C225.26 59.352 224.882 60.045 224.441 60.927C223.937 61.809 223.37 62.754 222.74 63.699C222.11 64.707 221.417 65.715 220.787 66.66C220.094 67.668 219.464 68.55 218.897 69.18C218.267 69.873 217.637 70.566 216.881 71.259C216.125 72.015 215.306 72.645 214.487 73.149C213.605 73.779 212.786 74.22 211.967 74.598C211.085 74.976 210.203 75.165 209.447 75.165C208.628 75.165 208.124 75.039 207.872 74.85C207.557 74.724 207.431 74.598 207.557 74.409C207.557 74.283 207.746 74.157 208.124 73.968C208.376 73.842 208.754 73.716 209.132 73.59C209.51 73.59 210.014 73.401 210.644 73.023C211.148 72.708 211.778 72.267 212.408 71.7C213.038 71.196 213.668 70.629 214.361 69.936C214.991 69.306 215.558 68.676 216.062 67.92C216.566 67.29 217.07 66.408 217.7 65.4C218.204 64.455 218.771 63.447 219.275 62.313C219.779 61.305 220.22 60.234 220.724 59.163C221.165 58.155 221.543 57.147 221.921 56.265C222.173 55.509 222.425 54.753 222.677 53.997C222.803 53.304 223.055 52.611 223.307 51.855C223.559 51.288 223.496 50.91 223.181 50.784C222.173 51.162 221.354 51.603 220.598 52.044C219.842 52.548 219.149 52.926 218.582 53.115C218.078 53.304 217.511 53.367 216.755 53.367C216.377 54.123 215.873 54.942 215.369 55.824C214.739 56.832 214.172 57.777 213.605 58.659C212.975 59.667 212.408 60.549 211.904 61.368C211.274 62.25 210.77 63.006 210.392 63.51C209.888 64.266 209.258 64.896 208.628 65.526C207.872 66.156 207.179 66.723 206.423 67.227C205.667 67.731 204.911 68.172 204.155 68.424C203.336 68.739 202.58 68.865 201.887 68.865C201.131 68.865 200.564 68.802 200.312 68.676C199.997 68.613 199.871 68.487 199.934 68.361C199.934 68.235 200.06 68.109 200.312 67.92C200.564 67.794 200.879 67.731 201.257 67.605C201.572 67.479 202.013 67.29 202.58 66.975C203.084 66.723 203.651 66.345 204.281 65.841C204.848 65.4 205.415 64.833 206.045 64.203C206.612 63.636 207.116 63.006 207.557 62.25C207.935 61.62 208.439 60.738 209.006 59.73C209.51 58.785 210.077 57.777 210.644 56.643C211.148 55.635 211.652 54.564 212.156 53.43C212.66 52.422 213.038 51.414 213.416 50.532L214.046 48.957C214.235 48.579 214.298 48.264 214.298 48.012C214.235 47.823 213.983 47.823 213.542 47.949C212.66 48.327 211.904 48.642 211.274 49.02C210.581 49.461 209.951 49.713 209.447 49.839C208.754 50.091 207.935 50.154 206.99 50.028C205.982 50.028 205.226 49.776 204.722 49.335C204.155 48.894 203.777 48.516 203.588 48.138C203.336 47.886 203.084 47.571 202.832 47.256C202.454 47.004 202.328 46.752 202.454 46.5C202.517 46.374 202.895 46.311 203.651 46.374C204.092 46.437 204.722 46.437 205.604 46.374C206.423 46.374 207.305 46.311 208.187 46.185C209.195 46.122 209.951 45.996 210.581 45.744C211.085 45.618 211.778 45.492 212.597 45.366C213.353 45.303 214.109 45.051 214.802 44.61C215.432 44.232 215.81 43.917 215.936 43.665C216.062 43.476 216.314 43.224 216.629 42.909C216.881 42.657 217.322 42.72 218.078 43.098C218.96 43.602 219.779 44.169 220.472 44.736C221.102 45.366 221.291 45.933 221.102 46.5C220.913 47.004 220.724 47.382 220.472 47.697C220.157 48.075 219.842 48.516 219.464 48.957C219.842 48.894 220.22 48.768 220.598 48.642C220.913 48.516 221.291 48.453 221.732 48.327C222.551 48.138 223.244 47.886 223.874 47.508C224.441 47.193 224.819 46.878 225.008 46.563C225.071 46.437 225.134 46.311 225.26 46.122C225.323 45.996 225.449 45.933 225.638 45.807C225.764 45.744 225.953 45.681 226.205 45.681C226.394 45.681 226.709 45.807 227.087 45.996C227.969 46.5 228.725 47.004 229.355 47.571C229.922 48.201 230.111 48.768 229.922 49.335C229.796 49.713 229.67 50.028 229.544 50.217C229.355 50.469 229.166 50.721 229.04 50.973C228.851 51.288 228.662 51.603 228.41 51.981C228.095 52.422 227.78 52.989 227.402 53.745L226.583 55.824C226.772 55.824 226.961 55.761 227.213 55.761C227.402 55.761 227.654 55.761 228.032 55.635C228.347 55.635 228.977 55.572 229.859 55.446C230.678 55.383 231.56 55.194 232.568 54.942C232.505 53.682 232.505 52.611 232.505 51.729C232.505 50.91 232.505 50.469 232.631 50.343C232.757 50.217 232.946 50.091 233.072 50.091C233.135 50.091 233.198 49.965 233.324 49.65C233.324 49.524 233.324 49.335 233.324 49.209C233.198 49.083 233.135 48.957 233.072 48.768C232.946 48.642 232.883 48.453 232.82 48.201C232.694 48.012 232.694 47.76 232.757 47.382C232.82 46.941 232.883 46.437 232.883 45.807C232.82 45.303 232.82 44.736 232.82 44.106C232.82 42.846 232.82 41.901 232.883 41.208C232.883 40.578 232.883 39.948 232.82 39.318C232.757 38.877 232.757 38.373 232.757 37.869C232.694 37.365 232.442 36.924 232.001 36.483C231.56 36.105 231.182 35.853 230.804 35.664C230.426 35.538 230.048 35.349 229.733 35.097C229.544 34.971 229.418 34.845 229.418 34.593C229.355 34.404 229.355 34.215 229.481 33.963C229.481 33.837 229.607 33.648 229.859 33.522C230.048 33.459 230.363 33.459 230.741 33.585C230.93 33.711 231.308 33.774 231.875 33.9C232.379 34.089 232.883 34.278 233.513 34.404C234.08 34.656 234.647 34.845 235.277 34.971C235.844 35.16 236.285 35.286 236.663 35.349ZM245.987 43.35C245.987 43.728 245.987 44.169 245.987 44.736C245.924 45.366 245.861 45.996 245.861 46.626C245.798 47.319 245.798 47.949 245.798 48.516C245.735 49.146 245.735 49.65 245.735 49.965C245.735 50.658 245.735 51.225 245.798 51.729C245.798 52.296 245.798 52.8 245.798 53.304C245.798 53.871 245.798 54.438 245.861 55.005C245.861 55.635 245.861 56.391 245.861 57.21V65.841C245.735 68.109 245.735 69.936 245.735 71.385C245.672 72.897 245.672 73.968 245.672 74.535C245.672 75.543 245.546 76.614 245.42 77.811C245.231 79.008 245.042 80.205 244.79 81.402C244.538 82.536 244.286 83.607 244.034 84.552C243.719 85.434 243.467 86.127 243.215 86.505C242.963 86.883 242.711 87.324 242.459 87.765C242.144 88.143 241.892 88.395 241.703 88.584C241.451 88.71 241.262 88.647 241.199 88.395C241.073 88.08 241.073 87.45 241.199 86.505C241.262 85.875 241.325 84.993 241.451 83.922C241.451 82.788 241.514 81.528 241.577 80.142C241.577 78.756 241.577 77.307 241.64 75.732C241.64 74.22 241.64 72.645 241.64 71.133C241.577 69.621 241.577 68.235 241.577 66.849C241.577 65.589 241.577 64.455 241.577 63.51C241.577 62.439 241.577 61.305 241.577 60.108C241.514 58.974 241.514 57.588 241.514 55.95C241.451 54.942 241.388 53.871 241.388 52.737C241.325 51.729 241.325 50.721 241.325 49.839C241.325 49.02 241.325 48.327 241.388 47.76C241.388 47.256 241.388 46.941 241.451 46.878C241.577 46.752 241.703 46.626 241.829 46.626C241.955 46.626 242.018 46.5 242.144 46.185C242.144 46.059 242.144 45.87 242.081 45.744C241.955 45.618 241.892 45.492 241.829 45.303C241.703 45.177 241.64 44.988 241.577 44.736C241.451 44.547 241.451 44.295 241.577 43.917C241.577 43.476 241.64 42.972 241.64 42.342C241.577 41.838 241.577 41.271 241.64 40.641C241.577 39.381 241.577 38.436 241.64 37.743C241.64 37.113 241.64 36.483 241.64 35.853C241.577 35.412 241.577 34.908 241.577 34.404C241.514 33.9 241.262 33.459 240.821 33.018C240.317 32.64 239.939 32.388 239.561 32.199C239.12 32.073 238.742 31.884 238.427 31.632C238.238 31.506 238.112 31.38 238.112 31.128C237.986 30.939 238.049 30.75 238.175 30.498C238.238 30.372 238.427 30.183 238.679 30.057C238.868 29.994 239.183 29.994 239.561 30.12C239.687 30.246 240.065 30.309 240.632 30.435C241.136 30.624 241.703 30.813 242.333 30.939C242.9 31.191 243.53 31.38 244.16 31.506C244.727 31.695 245.168 31.821 245.546 31.884C246.05 32.073 246.491 32.262 246.806 32.388C247.058 32.64 247.121 33.018 246.932 33.648C246.743 34.341 246.554 35.034 246.428 35.79C246.176 36.609 246.113 37.428 246.113 38.31C246.113 38.877 246.113 39.633 246.113 40.641C246.113 41.712 246.05 42.594 245.987 43.35Z" fill="white"/>
</svg>
