<svg width="91" height="121" viewBox="0 0 91 121" fill="none" xmlns="http://www.w3.org/2000/svg">
<rect x="0.5" y="0.5" width="90" height="120" fill="#F6C500"/>
<rect x="0.5" y="0.5" width="90" height="120" stroke="black"/>
<path d="M57.9095 34C58.1495 34.24 58.2695 34.54 58.3295 34.78C58.3295 35.14 58.0295 35.5 57.4895 35.92C57.1895 36.16 57.0095 36.34 56.9495 36.46C56.8295 36.64 56.7095 36.76 56.7095 36.76C56.5895 36.88 56.5295 36.88 56.4695 36.88C56.3495 36.88 56.2295 36.88 55.9895 36.88C55.5095 36.88 55.0295 37.12 54.4295 37.66C53.8295 38.26 53.1695 38.86 52.4495 39.58C52.2095 39.76 51.9095 40.06 51.5495 40.48C51.1295 40.96 50.5895 41.5 49.9895 42.1C49.7495 42.34 49.5095 42.52 49.2695 42.76C48.9695 43 48.6695 43.3 48.3695 43.54L51.1895 44.5C51.5495 44.62 52.1495 44.86 52.9895 45.1C53.7695 45.4 54.6095 45.7 55.5095 46C56.3495 46.36 57.1295 46.78 57.9095 47.14C58.6295 47.62 59.0495 48.04 59.2895 48.4C59.6495 49.24 60.0095 49.96 60.2495 50.5C60.4295 51.1 60.4895 51.76 60.4895 52.6C60.4895 53.02 60.3695 53.38 60.2495 53.68C60.0695 54.04 59.8895 54.34 59.7095 54.46C59.4695 54.7 59.1695 54.76 58.9295 54.64C58.6295 54.58 58.3295 54.28 58.0895 53.8C57.7895 53.32 57.3695 52.78 56.8295 52.12C56.2295 51.52 55.6295 50.92 54.9095 50.26C54.1895 49.66 53.4095 49 52.6295 48.4C51.7895 47.86 51.0095 47.38 50.2895 46.9L46.3895 45.04C45.3095 45.88 44.2295 46.66 43.0895 47.44C41.8895 48.28 40.7495 49.06 39.7895 49.72C38.7695 50.44 37.9295 51.04 37.2095 51.52C36.4895 52.06 36.0095 52.42 35.8895 52.6C35.1095 53.62 34.3895 54.34 33.6695 54.7C32.9495 55.12 32.3495 55.42 31.9895 55.6C31.7495 55.72 31.5095 55.78 31.2695 55.78C30.9095 55.84 30.6695 55.84 30.4295 55.72C30.1895 55.72 30.0095 55.6 29.8895 55.42C29.7695 55.3 29.7695 55.06 29.8895 54.7C30.0095 54.28 30.3095 53.86 30.8495 53.5C31.3295 53.2 31.9295 52.66 32.6495 51.82C32.8895 51.52 33.1295 51.22 33.3695 50.98C33.4895 50.74 33.6695 50.5 33.7895 50.26C33.9095 50.02 34.0295 49.78 34.1495 49.48C34.2695 49.24 34.3895 48.94 34.5695 48.52C34.8695 47.74 35.1695 47.26 35.4095 47.14C35.5895 47.02 35.6495 47.26 35.5895 47.8C35.4695 48.04 35.4095 48.34 35.4095 48.64C35.3495 49 35.3495 49.24 35.4695 49.36C35.4695 49.6 35.5895 49.66 35.7695 49.6C35.8895 49.6 36.1895 49.42 36.5495 49C36.7895 48.76 37.2095 48.4 37.6895 47.92C38.1695 47.5 38.7095 47.02 39.3095 46.48C39.8495 46 40.4495 45.52 41.1095 44.92C41.7095 44.44 42.3095 43.9 42.9095 43.36L40.0895 42.1C39.8495 41.98 39.6695 41.86 39.5495 41.68C39.4295 41.56 39.3695 41.44 39.4295 41.32C39.4295 41.2 39.5495 41.14 39.7895 41.08C39.9695 41.08 40.2695 41.08 40.6895 41.2L44.1695 42.22C44.4095 42.04 44.5895 41.86 44.8295 41.62C44.9495 41.44 45.1295 41.26 45.3695 41.02C45.6095 40.72 45.9695 40.36 46.3895 40C46.7495 39.64 47.0495 39.34 47.2895 39.1C48.3095 38.08 48.9095 37.3 49.0895 36.7C49.2095 36.22 48.8495 36.1 48.0695 36.4C47.2895 36.76 46.5095 36.94 45.7895 37C44.9495 37.12 44.2895 37.3 43.6895 37.48C43.3295 37.6 42.9095 37.66 42.3695 37.78C41.7695 37.96 41.2295 38.14 40.6895 38.26C40.0895 38.5 39.5495 38.68 39.0695 38.86C38.5295 39.1 38.1695 39.28 37.9295 39.4C37.3295 39.76 36.8495 39.82 36.4895 39.7C36.0095 39.64 35.6495 39.46 35.2895 39.1C34.8095 38.74 34.2695 38.32 33.6695 37.72C33.0095 37.24 32.5895 36.76 32.4095 36.34C32.1695 35.98 32.1695 35.68 32.2895 35.56C32.3495 35.44 32.7695 35.44 33.4895 35.5C33.7295 35.5 34.2695 35.5 34.9895 35.44C35.7095 35.44 36.4295 35.44 37.2695 35.38C38.0495 35.38 38.8295 35.32 39.6095 35.26C40.3295 35.26 40.8095 35.2 41.1695 35.2C41.7695 35.2 42.3695 35.14 42.9695 35.08C43.5695 35.08 43.9895 35.02 44.2895 34.9C44.4095 34.9 44.7095 34.84 45.1895 34.78C45.6095 34.78 46.0895 34.72 46.6895 34.6C47.1695 34.6 47.7095 34.48 48.2495 34.36C48.7295 34.3 49.1495 34.18 49.3895 34.06C49.8095 33.88 50.1695 33.64 50.4695 33.34C50.7095 33.1 50.8895 32.8 51.0095 32.5C51.1895 32.2 51.4895 32.08 51.9095 32.2C52.2695 32.32 52.7495 32.44 53.2895 32.5C53.7095 32.62 54.1895 32.74 54.6695 32.86C55.1495 33.04 55.5695 33.1 56.0495 33.1C56.4695 33.1 56.8295 33.16 57.1295 33.34C57.3695 33.58 57.6695 33.82 57.9095 34ZM42.6095 84.1C42.9695 83.98 43.5095 83.8 44.1695 83.62C44.7695 83.38 45.4895 83.14 46.2095 82.96C46.9295 82.72 47.6495 82.48 48.3695 82.36C49.0895 82.12 49.6895 82 50.2895 82C50.4695 81.94 50.7695 81.94 51.1895 81.94C51.5495 81.94 51.9095 81.88 52.3895 81.88C52.3895 81.28 52.3895 80.56 52.4495 79.78C52.4495 78.94 52.5095 78.16 52.5695 77.38C52.5695 76.66 52.6295 75.94 52.6895 75.28C52.6895 74.68 52.6895 74.2 52.6895 73.9C52.5695 73.24 52.3895 72.82 52.0295 72.64C51.6695 72.52 51.2495 72.34 50.8895 72.1C50.6495 71.98 50.3495 71.98 50.0495 71.98C49.6895 72.04 49.3895 72.16 49.0895 72.28C48.7295 72.46 48.4295 72.64 48.1295 72.76C47.7695 73 47.5295 73.18 47.2895 73.3C47.0495 73.42 46.6895 73.6 46.2695 73.78C45.7895 74.02 45.3095 74.14 44.8295 74.2C44.2295 74.32 43.6895 74.38 43.2095 74.32C42.6695 74.32 42.2495 74.2 41.8895 73.9L38.2895 70.9C37.9295 70.6 37.8695 70.3 38.1695 70.06C38.4095 69.88 38.7695 69.82 39.1895 69.82C39.4895 69.88 39.9695 69.88 40.6295 69.82C41.2295 69.82 42.0095 69.82 43.0895 69.7C43.5695 69.64 44.2295 69.52 44.9495 69.34C45.6695 69.22 46.3895 69.1 47.1095 68.92C47.8295 68.8 48.4895 68.68 49.1495 68.5C49.7495 68.38 50.2895 68.2 50.6495 68.02C51.0695 67.9 51.4895 67.6 51.9695 67.24C52.3295 66.88 52.9295 66.82 53.7695 67C54.4895 67.24 55.3295 67.54 56.2295 67.96C57.0695 68.44 57.7895 68.8 58.3895 69.1C58.9295 69.46 59.2295 69.88 59.3495 70.24C59.3495 70.66 59.2295 71.08 58.9895 71.5C58.6295 71.98 58.3895 72.34 58.2095 72.58C57.9695 72.88 57.6095 73.06 57.1895 73.12C56.7095 73.24 56.4695 73.48 56.3495 73.9C56.2295 74.38 56.1095 74.8 55.9895 75.1C55.8695 75.34 55.8095 75.76 55.6895 76.24C55.5695 76.84 55.4495 77.44 55.3295 78.04C55.2095 78.64 55.0895 79.3 54.9695 80.02C54.8495 80.68 54.7295 81.28 54.6695 81.88C54.9695 81.88 55.2695 81.88 55.5695 81.94C55.8095 81.94 56.0495 81.94 56.2895 82C56.8295 82.12 57.1295 82.36 57.2495 82.72C57.2495 82.96 57.2495 83.32 57.1895 83.8C57.0695 84.28 56.9495 84.82 56.7695 85.36C56.5295 85.84 55.9295 86.02 54.9695 85.9C54.4295 85.84 53.5295 85.78 52.2695 85.78C50.9495 85.66 49.6895 85.6 48.3695 85.6C46.9895 85.48 45.7895 85.42 44.7095 85.42C43.5695 85.3 42.9095 85.3 42.7895 85.3C42.5495 85.3 42.3695 85.24 42.1295 85.18C41.8895 85.06 41.7095 85 41.6495 84.88C41.5295 84.76 41.5295 84.64 41.6495 84.52C41.7695 84.34 42.0695 84.22 42.6095 84.1ZM34.0895 71.2C34.3895 71.32 34.8695 71.62 35.5895 72.04C36.1895 72.52 36.9095 73.06 37.6295 73.72C38.2895 74.44 38.9495 75.28 39.5495 76.12C40.0895 77.02 40.4495 77.92 40.6895 79C40.8095 79.6 40.8695 80.32 40.8695 81.16C40.8095 81.94 40.7495 82.72 40.6895 83.56C40.5695 84.28 40.3895 85 40.2695 85.66C40.0895 86.26 39.9095 86.74 39.7895 87.1C39.6695 87.34 39.4895 87.52 39.3095 87.7C39.0695 87.82 38.8295 87.94 38.5895 88C38.3495 88 38.1095 87.88 37.9295 87.7C37.6895 87.46 37.5095 87.1 37.3895 86.62C37.1495 85.84 36.9095 84.82 36.6695 83.56C36.3695 82.24 36.0695 80.92 35.7095 79.54C35.3495 78.1 34.9295 76.78 34.5695 75.46C34.0895 74.2 33.6695 73.18 33.1895 72.4C32.8895 71.98 32.7695 71.68 32.7695 71.44C32.7695 71.26 32.8295 71.14 33.0095 71.02C33.1295 71.02 33.3095 71.02 33.5495 71.02C33.7295 71.14 33.9095 71.2 34.0895 71.2ZM43.2095 60.1C43.5695 60.1 43.8695 60.04 43.9895 59.86C44.1095 59.74 44.1695 59.5 44.2895 59.2C44.3495 58.78 44.4695 58.24 44.5895 57.64C44.7095 57.1 44.7695 56.5 44.7695 55.84C44.7695 55.3 44.7695 54.88 44.7695 54.52C44.7695 54.22 44.7095 53.98 44.7095 53.74C44.6495 53.62 44.5895 53.44 44.5895 53.32C44.5295 53.2 44.4695 53.08 44.4095 52.96C44.2295 52.78 44.0495 52.48 43.8095 52.12C43.5095 51.82 43.2695 51.58 43.0895 51.4C42.8495 51.28 42.7295 51.1 42.6095 50.86C42.4295 50.74 42.3695 50.56 42.4295 50.38C42.4295 50.26 42.4895 50.14 42.7295 50.02C42.9095 50.02 43.2095 50.02 43.6895 50.14C43.9295 50.2 44.2295 50.26 44.6495 50.38C45.0095 50.5 45.4295 50.68 45.9095 50.8C46.3295 50.98 46.7495 51.16 47.2295 51.34C47.5895 51.58 47.9495 51.76 48.1895 51.94C48.5495 52.3 48.7895 52.54 48.9095 52.78C48.9695 53.02 48.9695 53.5 48.8495 54.1C48.7895 54.34 48.7295 54.58 48.6695 54.7C48.5495 54.88 48.4895 55.12 48.4295 55.36C48.3095 55.72 48.2495 56.08 48.1895 56.56C48.0695 57.04 48.0095 57.76 48.0095 58.6C48.0695 59.2 48.3095 59.56 48.7895 59.56C49.1495 59.56 49.4495 59.5 49.7495 59.5C49.9895 59.5 50.1695 59.5 50.2895 59.44C50.7695 59.44 51.6095 59.32 52.8695 59.2C54.0695 59.08 55.3895 58.96 56.7695 58.78C58.0895 58.66 59.2895 58.54 60.3695 58.42C61.4495 58.36 62.0495 58.3 62.2895 58.3C62.4695 58.3 62.7095 58.18 62.9495 57.94C63.1895 57.7 63.4295 57.46 63.7895 57.22C64.0295 57.04 64.3895 56.86 64.7495 56.74C65.0495 56.68 65.4095 56.74 65.8895 56.98C66.2495 57.22 66.6695 57.52 67.1495 57.88C67.5695 58.24 67.9895 58.6 68.4695 58.9C68.8295 59.26 69.2495 59.56 69.6095 59.8C69.9095 60.1 70.1495 60.28 70.3895 60.4C70.5695 60.52 70.6895 60.76 70.8095 61C70.8695 61.3 70.8695 61.6 70.8695 61.84C70.7495 62.14 70.6295 62.38 70.5095 62.56C70.2695 62.8 70.0295 62.86 69.7895 62.8C69.3095 62.8 68.7095 62.74 67.9895 62.74C67.2095 62.8 66.4295 62.86 65.5895 62.98C64.6895 63.1 63.8495 63.28 63.0095 63.46C62.1695 63.7 61.4495 63.94 60.8495 64.3C59.9495 64.78 59.2895 64.9 58.8695 64.72C58.3895 64.6 58.5695 64.3 59.2895 63.7C59.5895 63.46 59.9495 63.16 60.3695 62.74C60.7295 62.38 61.0895 62.02 61.3895 61.66C61.6295 61.3 61.7495 61 61.8695 60.76C61.8695 60.52 61.7495 60.4 61.3895 60.4C61.0295 60.4 60.3095 60.46 59.3495 60.52C58.3295 60.64 57.2495 60.7 56.1095 60.82C54.9095 60.94 53.7095 61.06 52.6295 61.18C51.4895 61.36 50.5895 61.48 49.9895 61.6C49.5095 61.72 48.7895 61.9 47.7695 62.08C46.6895 62.32 45.4895 62.5 44.1695 62.74C42.7295 63.04 41.2895 63.34 39.8495 63.58C38.2895 63.94 36.9095 64.18 35.5895 64.42C34.2095 64.72 33.0695 64.96 32.1095 65.08C31.0895 65.32 30.4295 65.44 30.1895 65.5C29.7095 65.62 29.1695 65.68 28.6295 65.68C28.0295 65.8 27.4895 65.8 26.9495 65.8C26.3495 65.8 25.7495 65.74 25.2695 65.62C24.7295 65.56 24.2495 65.44 23.8895 65.2C23.0495 64.78 22.4495 64.36 21.9695 64C21.4895 63.7 21.0095 63.4 20.5895 63.1C20.3495 62.98 20.1695 62.8 20.1095 62.56C19.9895 62.38 19.9295 62.2 20.0495 61.96C20.0495 61.84 20.2295 61.66 20.4695 61.54C20.7095 61.42 21.0095 61.42 21.4895 61.54C22.2095 61.78 23.0495 61.84 24.0095 61.78C24.8495 61.78 25.8095 61.72 26.8895 61.6C27.2495 61.6 28.0295 61.54 29.2295 61.42C30.3695 61.36 31.7495 61.24 33.3095 61.06C34.8095 60.94 36.4295 60.82 38.2295 60.64C39.9695 60.52 41.6495 60.34 43.2095 60.16V60.1Z" fill="white"/>
</svg>
