<svg width="451" height="151" viewBox="0 0 451 151" fill="none" xmlns="http://www.w3.org/2000/svg">
<rect x="0.5" y="30.5" width="90" height="120" fill="#F6C500"/>
<rect x="0.5" y="30.5" width="90" height="120" stroke="black"/>
<path d="M33.8352 81.54L35.1582 81.729C35.9772 80.721 36.7962 79.65 37.6152 78.516C38.3712 77.445 39.1902 76.311 40.0092 75.051C40.1982 74.736 40.2612 74.484 40.1982 74.295C40.0722 74.169 39.8202 74.106 39.5052 74.169C39.1272 74.421 38.8122 74.61 38.5602 74.736C38.1822 74.925 37.8672 75.051 37.4892 75.177C37.2372 75.303 36.8592 75.429 36.4182 75.555C35.9142 75.807 35.5992 76.122 35.4102 76.5C35.2842 76.752 35.0322 76.941 34.7172 77.13C34.3392 77.382 33.9612 77.634 33.5832 77.823C33.0792 78.075 32.6382 78.201 32.1342 78.264C31.6302 78.39 31.1262 78.39 30.6852 78.264C30.1812 78.138 29.7402 77.949 29.2992 77.571C28.7952 77.256 28.2912 76.878 27.8502 76.5C27.3462 76.122 26.9682 75.744 26.5902 75.366C26.2122 75.051 25.8972 74.799 25.6452 74.61C25.1412 74.295 25.0152 74.043 25.1412 73.791C25.2672 73.602 25.5192 73.539 25.9602 73.602C26.1492 73.602 26.5272 73.665 27.0942 73.665C27.5982 73.728 28.1022 73.728 28.7322 73.728C29.2992 73.791 29.8662 73.791 30.4962 73.728C31.0632 73.728 31.5672 73.728 31.9452 73.602C32.3862 73.476 32.8902 73.413 33.5202 73.539C34.0872 73.665 34.4652 73.728 34.6542 73.728C34.8432 73.728 35.2212 73.602 35.7252 73.224C36.1662 72.909 36.7332 72.594 37.4892 72.342L40.7652 71.145C41.2692 71.019 41.6472 70.83 41.8992 70.452C41.8992 70.389 41.9622 70.263 42.0252 70.074C42.0252 69.948 42.1512 69.822 42.2772 69.696C42.4032 69.57 42.5922 69.507 42.8442 69.444C43.0332 69.444 43.4112 69.444 43.9152 69.57C44.9232 69.822 45.7422 70.137 46.4352 70.389C47.0652 70.704 47.6322 70.956 48.0102 71.145C48.1362 71.271 48.2622 71.397 48.3882 71.649C48.3882 71.901 48.3882 72.153 48.3882 72.405C48.3252 72.72 48.1992 73.035 48.0732 73.287C47.8842 73.602 47.6322 73.854 47.3802 73.98C46.8132 74.295 46.3722 74.673 45.9942 75.114C45.5532 75.618 45.1752 76.059 44.8602 76.5C44.1042 77.445 43.2852 78.39 42.4032 79.398C41.4582 80.469 40.4502 81.54 39.3792 82.611L41.0802 83.115C42.5292 83.619 43.9152 84.06 45.1752 84.564C46.3722 85.131 47.6322 86.013 48.9552 87.21C49.3332 87.588 49.7112 87.966 50.0892 88.218C50.4042 88.596 50.7192 88.911 50.9712 89.289C51.2232 89.667 51.4122 90.108 51.5382 90.549C51.6012 91.053 51.6012 91.62 51.4752 92.25C51.3492 92.88 51.1602 93.321 50.9712 93.573C50.7192 93.888 50.5302 94.077 50.2782 94.203C50.0262 94.329 49.7742 94.455 49.5852 94.455C49.3332 94.518 49.0812 94.644 48.9552 94.77C48.7662 94.959 48.5142 95.022 48.2622 95.022C47.9472 95.085 47.6952 95.085 47.4432 94.959C47.1282 94.896 46.8762 94.77 46.6872 94.518C46.4352 94.392 46.3722 94.14 46.4352 93.762C46.4352 93.51 46.4352 93.258 46.4352 93.006C46.3722 92.88 46.3092 92.691 46.3092 92.565C46.1832 92.439 46.1202 92.313 46.1202 92.124C46.0572 91.998 46.0572 91.872 46.1202 91.62C46.1832 91.179 46.2462 90.801 46.3092 90.549C46.3092 90.36 46.1202 90.108 45.8052 89.73C44.7342 88.596 43.6632 87.714 42.5292 87.084C41.3322 86.454 40.1352 85.887 38.8752 85.32C38.3082 85.194 37.7412 85.068 37.1112 84.942C35.4732 86.58 33.8352 88.092 32.3232 89.604C30.6852 91.116 29.2992 92.439 28.1652 93.51C27.4722 94.14 26.7162 94.518 25.8972 94.707C25.0152 94.959 24.2592 95.022 23.7552 94.77C22.5582 94.266 21.8022 93.825 21.5502 93.447C21.3612 93.321 21.3612 93.069 21.4872 92.817C21.6132 92.565 21.8022 92.502 22.1802 92.565C22.4952 92.691 22.9992 92.754 23.6292 92.754C24.2592 92.817 24.8892 92.565 25.6452 91.935C26.8422 90.675 28.0392 89.415 29.2992 88.155C30.4332 86.958 31.6302 85.698 32.8272 84.375C32.4492 84.375 32.0712 84.249 31.7562 83.997C31.6302 83.934 31.5672 83.871 31.5672 83.808C31.5672 83.808 31.4412 83.808 31.1892 83.871C30.9372 83.934 30.6852 83.997 30.4332 83.997C30.1182 84.06 29.8662 84.06 29.6772 83.934C29.4252 83.808 29.3622 83.682 29.3622 83.556C29.3622 83.493 29.1732 83.43 28.9212 83.367C28.6062 83.367 28.3542 83.367 28.1652 83.367C27.9132 83.43 27.5982 83.43 27.2202 83.304C26.7792 83.241 26.5272 83.115 26.5272 82.926C26.4012 82.8 26.6532 82.674 27.2202 82.485C27.5982 82.359 28.1652 82.17 28.7952 81.981C29.3622 81.855 29.9922 81.792 30.6222 81.666C31.1892 81.603 31.7562 81.54 32.3862 81.477C32.9532 81.477 33.4572 81.54 33.8352 81.54ZM48.0102 81.414C47.0022 81.288 46.4982 81.036 46.3722 80.658C46.2462 80.28 46.4352 80.091 47.0652 79.965C47.3172 79.965 47.5692 79.902 47.8212 79.902C47.9472 79.902 48.1992 79.902 48.4512 79.839C48.7032 79.839 49.0182 79.839 49.3962 79.776C49.7112 79.776 50.2152 79.776 50.8452 79.65C51.0972 79.65 51.4752 79.65 52.1052 79.587C52.6722 79.587 53.3652 79.524 54.1212 79.398C54.8772 79.335 55.6332 79.209 56.5152 79.083C57.3342 79.02 58.1532 78.894 58.9722 78.705C58.9092 78.39 58.9092 78.075 58.9722 77.697C58.9722 77.382 59.0982 77.13 59.2242 77.004C59.3502 76.815 59.4762 76.689 59.6652 76.689C59.7912 76.752 59.9172 76.626 60.0432 76.311C60.0432 76.185 60.0432 75.996 59.9802 75.87C59.8542 75.744 59.7282 75.618 59.6652 75.429C59.5392 75.303 59.4132 75.051 59.3502 74.799C59.2242 74.61 59.2242 74.358 59.3502 73.98C59.4132 73.539 59.4762 73.035 59.4762 72.405C59.4132 71.901 59.4132 71.334 59.4132 70.767C59.3502 69.507 59.3502 68.562 59.4132 67.806C59.4132 67.176 59.4132 66.546 59.4132 65.979C59.3502 65.538 59.2872 65.034 59.2872 64.467C59.2242 63.963 58.9722 63.522 58.5312 63.081C58.0272 62.703 57.5232 62.451 57.1452 62.262C56.6412 62.136 56.2632 61.947 55.8852 61.695C55.6332 61.569 55.5072 61.443 55.5072 61.191C55.4442 61.002 55.4442 60.813 55.5702 60.561C55.6332 60.435 55.8222 60.246 56.0742 60.12C56.3262 60.057 56.6412 60.057 57.1452 60.12C57.3342 60.246 57.7122 60.372 58.3422 60.498C58.8462 60.687 59.4762 60.876 60.1692 61.065C60.7992 61.317 61.4922 61.506 62.1852 61.632C62.8152 61.821 63.3822 61.947 63.7602 62.01C64.3272 62.199 64.7682 62.388 65.1462 62.514C65.4612 62.766 65.5242 63.144 65.3352 63.774C65.0832 64.467 64.8942 65.16 64.7052 65.916C64.4532 66.735 64.3272 67.554 64.3272 68.373C64.3272 69.003 64.3272 69.759 64.3272 70.704C64.2642 71.712 64.2642 72.657 64.2642 73.413C64.2642 73.791 64.2012 74.232 64.2012 74.799C64.1382 75.429 64.0752 76.122 64.0752 76.752C64.0122 77.445 64.0122 78.075 64.0122 78.642C63.9492 79.272 63.9492 79.776 63.9492 80.091C63.9492 81.414 63.9492 82.611 63.9492 83.745C63.8862 84.879 63.8862 86.013 63.8862 87.147C63.7602 88.722 63.7602 90.045 63.7602 91.053C63.6972 92.187 63.6972 92.943 63.6972 93.321C63.6972 94.014 63.5712 94.77 63.4452 95.589C63.1932 96.471 63.0042 97.29 62.7522 98.046C62.4372 98.928 62.1222 99.684 61.8702 100.314C61.4922 101.007 61.2402 101.448 60.9882 101.7C60.7362 102.015 60.4212 102.267 60.1692 102.519C59.7912 102.834 59.5392 103.023 59.2872 103.086C58.9722 103.212 58.7832 103.212 58.6572 102.96C58.5312 102.834 58.5312 102.393 58.7202 101.7C58.8462 101.07 58.9722 100.062 59.0982 98.613C59.1612 97.227 59.2242 95.715 59.2872 94.077C59.2872 92.502 59.2872 90.927 59.2872 89.289C59.2242 87.777 59.2242 86.454 59.2242 85.446C59.2242 84.879 59.2242 84.249 59.2242 83.619C59.0982 82.989 59.0352 82.296 59.0352 81.477C58.0902 81.981 57.1452 82.296 56.2002 82.485C55.8222 82.611 55.4442 82.674 54.9402 82.8C54.3732 82.926 53.8692 83.052 53.3652 83.115C52.7982 83.241 52.2942 83.241 51.8532 83.241C51.3492 83.304 51.0342 83.241 50.8452 83.115C50.5932 82.989 50.4042 82.863 50.2782 82.674C50.0892 82.548 49.9002 82.359 49.7742 82.17C49.5852 82.044 49.3962 81.855 49.1442 81.666C48.8292 81.54 48.4512 81.477 48.0102 81.414ZM46.5612 99.621C46.8762 99.621 47.1912 99.81 47.4432 100.062C47.6322 100.377 47.5692 100.755 47.3172 101.196C47.1912 101.448 47.0022 101.7 46.8132 102.078C46.5612 102.519 46.3722 102.96 46.1832 103.338C45.9312 103.842 45.6792 104.22 45.5532 104.598C45.3012 105.039 45.1752 105.354 45.1122 105.543C45.0492 105.795 44.9862 106.236 44.9232 106.74C44.7972 107.37 44.6712 107.937 44.6712 108.567C44.6082 109.197 44.6082 109.827 44.6712 110.457C44.6712 111.024 44.8602 111.465 45.1122 111.78C45.6162 112.347 46.2462 112.725 46.9392 112.914C47.5692 113.04 48.1992 113.166 48.8292 113.229C49.5222 113.229 50.4042 113.166 51.5382 113.166C52.5462 113.04 53.6172 112.977 54.7512 112.851C55.7592 112.662 56.7672 112.473 57.7752 112.347C58.7202 112.158 59.4762 111.969 59.9802 111.78C60.7992 111.465 61.5552 111.339 62.2482 111.402C62.8782 111.402 63.4452 111.591 63.9492 112.095C64.2012 112.347 64.4532 112.536 64.7682 112.788C65.0202 112.914 65.2722 113.103 65.5242 113.292C65.6502 113.418 65.7762 113.544 65.8392 113.67C65.8392 113.796 65.7132 113.922 65.4612 114.048C64.8942 114.3 64.3902 114.615 63.8862 114.867C63.3822 115.056 62.6892 115.245 61.8702 115.497C61.4922 115.623 61.1772 115.749 61.0512 115.938C60.7992 116.064 60.6732 116.19 60.5472 116.379C60.3582 116.505 60.1692 116.694 59.9802 116.883C59.7282 117.009 59.4132 117.072 58.9722 117.198C58.4682 117.261 57.6492 117.324 56.5782 117.387C55.4442 117.387 54.1842 117.324 52.9242 117.324C51.6012 117.261 50.3412 117.198 49.2072 117.135C48.0102 117.009 47.1282 116.946 46.4982 116.82C45.7422 116.631 44.9862 116.379 44.3562 116.127C43.6632 115.749 43.0962 115.371 42.5922 114.867C42.0882 114.3 41.7102 113.67 41.4582 112.977C41.1432 112.221 41.0172 111.339 41.0802 110.331C41.1432 109.071 41.2062 107.937 41.2692 106.803C41.2692 105.732 41.3322 104.913 41.3322 104.283C41.3322 103.905 41.2062 103.59 40.9542 103.275C40.6392 103.023 40.3872 102.771 40.1352 102.393C40.0092 102.267 39.8832 102.141 39.7572 101.889C39.5682 101.763 39.4422 101.574 39.3162 101.322C39.1902 101.133 39.1272 100.881 39.1272 100.629C39.0642 100.377 39.1272 100.125 39.3162 99.81C39.6312 99.18 39.8832 98.802 40.1352 98.676C40.3242 98.613 40.5762 98.676 40.8912 98.865C41.0172 98.991 41.0802 99.117 41.1432 99.243C41.1432 99.369 41.1432 99.495 41.1432 99.558C41.1432 99.684 41.1432 99.81 41.2062 99.873C41.2062 99.999 41.3322 99.999 41.5842 99.999C41.9622 100.125 42.3402 100.062 42.7182 99.873C43.0332 99.747 43.4742 99.621 43.9782 99.558C44.4192 99.558 44.8602 99.495 45.3642 99.495C45.8052 99.558 46.1832 99.621 46.5612 99.621Z" fill="white"/>
<rect x="90.5" y="0.5" width="90" height="120" fill="#F6C500"/>
<rect x="90.5" y="0.5" width="90" height="120" stroke="black"/>
<path d="M145.963 52.17C146.593 50.721 147.286 49.272 148.105 47.823C148.861 46.437 149.68 45.114 150.499 43.854C150.499 43.413 150.562 42.909 150.562 42.342C150.499 41.838 150.499 41.271 150.562 40.641C150.499 39.381 150.499 38.436 150.562 37.743C150.562 37.113 150.562 36.483 150.562 35.853C150.499 35.412 150.499 34.908 150.499 34.404C150.436 33.9 150.184 33.459 149.743 33.018C149.239 32.64 148.798 32.388 148.42 32.199C147.916 32.073 147.538 31.884 147.223 31.632C146.971 31.506 146.845 31.38 146.845 31.128C146.782 30.939 146.782 30.75 146.908 30.498C146.971 30.372 147.16 30.183 147.412 30.057C147.601 29.994 147.916 29.994 148.357 30.12C148.546 30.246 148.924 30.309 149.491 30.435C149.995 30.624 150.625 30.813 151.318 30.939C151.948 31.191 152.578 31.38 153.208 31.506C153.838 31.695 154.342 31.821 154.72 31.884C155.224 32.073 155.665 32.262 156.043 32.388C156.295 32.64 156.358 33.018 156.169 33.648C155.917 34.341 155.728 35.034 155.602 35.79C155.35 36.609 155.287 37.428 155.287 38.31C155.287 38.877 155.287 39.633 155.287 40.641C155.224 41.649 155.161 42.531 155.098 43.287C155.098 43.665 155.098 44.106 155.098 44.673C155.035 45.303 155.035 45.996 155.035 46.626C154.972 47.319 154.972 47.949 154.972 48.516C154.909 49.146 154.909 49.65 154.909 49.965C154.909 52.863 154.909 55.572 155.035 58.092C155.098 60.738 155.098 63.321 155.035 65.841C154.909 68.109 154.846 69.936 154.846 71.448C154.783 73.023 154.783 74.094 154.783 74.661C154.783 75.669 154.657 76.74 154.531 77.937C154.342 79.134 154.153 80.331 153.901 81.465C153.649 82.599 153.334 83.607 153.082 84.552C152.767 85.434 152.515 86.127 152.263 86.505C152.011 86.883 151.696 87.324 151.444 87.765C151.129 88.143 150.877 88.395 150.625 88.584C150.373 88.71 150.184 88.647 150.058 88.395C149.932 88.08 149.932 87.45 150.121 86.505C150.184 85.875 150.247 84.993 150.373 83.922C150.373 82.788 150.436 81.528 150.499 80.142C150.499 78.693 150.562 77.244 150.562 75.669C150.562 74.157 150.562 72.582 150.562 71.07C150.562 69.621 150.562 68.235 150.562 66.849C150.562 65.526 150.562 64.392 150.562 63.447C150.562 62.376 150.499 61.242 150.499 60.108C150.436 58.974 150.436 57.651 150.436 56.013C150.31 55.005 150.31 53.934 150.31 52.863C150.247 51.855 150.247 50.91 150.247 50.028C149.869 50.91 149.554 51.729 149.302 52.485C148.924 53.367 148.609 54.186 148.294 55.005C147.916 55.887 147.538 56.832 147.16 57.84C146.656 58.911 146.278 59.982 145.9 61.116C145.459 62.25 145.081 63.384 144.829 64.518C144.451 65.652 144.262 66.723 144.199 67.605C144.073 68.235 144.073 68.739 144.136 69.18C144.136 69.684 144.136 70.125 144.136 70.44C144.01 70.818 143.884 71.133 143.695 71.259C143.443 71.448 143.002 71.511 142.435 71.385C141.805 71.322 141.301 71.259 140.923 71.133C140.482 71.07 140.167 70.881 139.915 70.566C139.663 70.314 139.474 69.936 139.411 69.369C139.285 68.865 139.222 68.046 139.285 66.975C139.285 66.219 139.348 65.274 139.348 64.14C139.285 63.069 139.285 61.935 139.285 60.738C139.222 59.604 139.222 58.47 139.222 57.336C139.222 56.265 139.222 55.257 139.285 54.375C139.222 53.304 139.222 52.359 139.222 51.54C139.222 50.784 139.222 50.406 139.348 50.343C139.474 50.217 139.6 50.091 139.789 50.091C139.915 50.091 139.978 49.965 140.104 49.65C140.104 49.524 140.104 49.335 140.104 49.209C139.978 49.083 139.915 48.957 139.852 48.768C139.726 48.642 139.6 48.453 139.537 48.201C139.411 48.012 139.411 47.76 139.474 47.382C139.537 46.941 139.6 46.437 139.6 45.807C139.537 45.303 139.537 44.736 139.537 44.106C139.537 42.846 139.537 41.901 139.6 41.208C139.6 40.578 139.537 39.948 139.537 39.318C139.474 38.877 139.474 38.373 139.474 37.869C139.411 37.365 139.159 36.924 138.718 36.483C138.214 36.105 137.773 35.853 137.395 35.664C136.954 35.538 136.576 35.349 136.261 35.097C136.072 34.971 135.946 34.845 135.946 34.593C135.82 34.404 135.883 34.215 136.009 33.963C136.072 33.837 136.261 33.648 136.513 33.522C136.702 33.459 137.017 33.459 137.395 33.585C137.584 33.711 137.962 33.774 138.529 33.9C139.033 34.089 139.6 34.278 140.23 34.404C140.86 34.656 141.49 34.845 142.12 34.971C142.75 35.16 143.254 35.286 143.632 35.349C144.136 35.538 144.514 35.727 144.892 35.853C145.144 36.105 145.207 36.483 145.081 37.113C144.829 37.806 144.64 38.499 144.514 39.255C144.262 40.074 144.199 40.893 144.199 41.775C144.136 42.342 144.136 43.098 144.136 44.106C144.136 45.177 144.073 46.059 144.01 46.815C144.01 47.193 143.947 47.571 143.947 48.075C143.884 48.642 143.821 49.209 143.821 49.776C143.758 50.406 143.758 51.036 143.758 51.603C143.695 52.233 143.695 52.674 143.695 53.052C143.569 54.564 143.758 55.257 144.136 55.131C144.514 55.068 145.081 54.06 145.963 52.17ZM136.513 49.209C136.576 49.461 136.513 49.65 136.387 49.839C136.135 50.091 135.82 50.28 135.379 50.343C134.875 50.469 134.56 50.595 134.371 50.721C134.119 50.91 133.867 50.91 133.615 50.721C133.363 50.532 133.237 50.28 133.3 49.965C133.3 49.713 133.237 49.587 133.111 49.587C132.922 49.587 132.796 49.65 132.733 49.776C132.607 49.965 132.544 50.154 132.544 50.28C132.418 50.469 132.355 50.658 132.292 50.784C132.166 50.973 131.977 51.099 131.851 51.099C131.473 51.288 130.969 51.414 130.276 51.54C129.52 51.729 128.953 51.918 128.512 52.107C127.756 52.359 127.126 52.548 126.748 52.611C126.307 52.737 125.866 52.926 125.425 53.241C125.929 53.493 126.496 53.745 127.063 54.123C127.567 54.501 128.134 54.816 128.89 55.005C129.016 55.068 129.268 55.131 129.646 55.194C129.961 55.32 130.339 55.446 130.78 55.572C131.158 55.761 131.599 55.95 132.04 56.076C132.418 56.265 132.733 56.454 132.985 56.58C133.426 56.895 133.741 57.336 133.93 57.903C134.056 58.533 134.056 59.289 133.93 60.045C133.804 60.99 133.552 61.935 133.111 62.817C132.607 63.825 131.977 64.707 131.347 65.463C130.591 66.345 129.835 67.038 129.079 67.668C128.197 68.361 127.441 68.865 126.685 69.18C125.425 69.81 124.165 70.125 122.905 70.125C121.519 70.251 120.511 70.251 119.755 70.125C119.062 70.062 118.369 69.495 117.739 68.424C117.046 67.416 116.668 66.345 116.605 65.085C116.479 64.329 116.542 63.51 116.668 62.565C116.731 61.683 116.794 61.053 116.92 60.675C116.983 60.297 117.109 59.982 117.361 59.667C117.487 59.415 117.865 59.226 118.495 59.1C118.999 59.037 119.377 58.911 119.692 58.659C119.944 58.533 120.133 58.155 120.385 57.525C120.574 56.958 120.763 56.454 121.015 55.95C121.204 55.509 121.393 55.068 121.645 54.69C121.834 54.186 122.212 53.745 122.842 53.493C123.283 52.989 123.724 52.611 124.228 52.233C124.606 51.981 125.047 51.603 125.551 51.162C125.803 50.91 125.992 50.721 125.992 50.469C125.992 50.343 125.677 50.28 125.11 50.28C124.984 50.28 124.795 50.343 124.543 50.343C124.291 50.406 123.976 50.469 123.661 50.532C123.409 50.658 123.22 50.721 123.094 50.721C122.905 50.847 122.716 50.91 122.59 50.91C121.96 51.099 121.708 51.225 121.708 51.288C121.645 51.414 121.519 51.414 121.33 51.225C121.078 51.162 120.952 51.036 120.889 50.784L120.763 50.532C120.637 50.658 120.574 50.784 120.448 50.91C120.259 51.099 120.07 51.288 119.944 51.54C119.818 51.729 119.629 51.855 119.503 51.918C119.314 52.044 118.999 52.17 118.621 52.17C118.18 52.296 117.676 52.296 117.172 52.296C116.605 52.296 115.975 52.044 115.345 51.54C114.967 51.288 114.778 51.099 114.652 50.847C114.526 50.658 114.4 50.469 114.337 50.28C114.211 50.154 114.148 50.028 114.085 49.839C113.959 49.713 113.77 49.587 113.581 49.461C113.077 49.209 112.762 49.02 112.636 49.02C112.384 49.02 112.132 49.02 111.88 48.894C111.502 48.831 111.313 48.705 111.313 48.453C111.187 48.264 111.376 48.138 111.88 48.075C112.384 48.075 112.825 48.012 113.203 48.012C113.518 48.075 114.148 48.075 115.03 48.075C115.219 48.075 115.597 48.075 116.227 48.075C116.794 48.075 117.487 48.075 118.243 48.012C118.999 48.012 119.755 48.012 120.574 47.949C121.33 47.949 121.96 47.886 122.59 47.76C123.22 47.634 123.85 47.571 124.48 47.445C124.984 47.382 125.425 47.382 125.74 47.445C126.244 47.571 126.937 47.571 127.693 47.445C128.449 47.319 128.953 47.256 129.205 47.13C129.457 47.004 129.835 46.815 130.339 46.5C130.717 46.248 131.032 45.933 131.284 45.555C131.473 45.24 131.851 45.051 132.418 44.988C132.922 44.988 133.3 45.051 133.615 45.24C133.804 45.492 134.182 45.744 134.749 46.122C135.253 46.563 135.631 47.004 135.82 47.445C135.82 47.571 135.946 47.823 136.135 48.201C136.261 48.579 136.387 48.957 136.513 49.209ZM120.7 63.195C120.7 63.888 120.889 64.455 121.267 64.896C121.582 65.4 122.023 65.778 122.527 66.03C123.031 66.345 123.598 66.471 124.228 66.471C124.795 66.471 125.425 66.345 126.055 66.03C126.937 65.589 127.756 64.833 128.386 63.699C129.016 62.628 129.268 61.431 129.205 60.045C129.142 59.352 129.016 58.785 128.764 58.344C128.449 57.966 128.134 57.714 127.756 57.462C127.315 57.336 126.874 57.21 126.433 57.147C125.929 57.147 125.488 57.21 125.11 57.21C124.48 57.336 123.913 57.462 123.472 57.588C122.968 57.84 122.527 58.029 122.275 58.155C121.519 58.533 121.078 59.163 120.889 60.045C120.637 60.927 120.574 61.998 120.7 63.195ZM119.755 38.31C120.007 38.562 120.322 38.814 120.7 38.94C121.015 39.192 121.456 39.255 121.96 39.255C122.401 39.255 122.905 39.192 123.472 39.066C123.976 39.003 124.48 38.94 125.11 38.94C125.677 38.94 126.307 39.066 127 39.192C127.63 39.444 128.197 39.57 128.575 39.57C128.953 39.696 129.142 39.948 129.268 40.452C129.268 41.019 129.268 41.46 129.205 41.775C129.079 42.153 128.764 42.468 128.197 42.846C127.567 43.287 127.063 43.602 126.559 43.791C126.307 43.917 125.929 43.917 125.425 43.917C124.921 43.98 124.417 43.98 123.913 43.854C123.346 43.854 122.842 43.728 122.464 43.539C121.96 43.413 121.708 43.287 121.645 43.035C121.141 42.216 120.7 41.46 120.196 40.83C119.692 40.263 119.314 39.822 119.125 39.57C118.873 39.192 118.936 38.877 119.188 38.499C119.377 38.184 119.566 38.121 119.755 38.31Z" fill="white"/>
<rect x="180.5" y="30.5" width="90" height="120" fill="#F6C500"/>
<rect x="180.5" y="30.5" width="90" height="120" stroke="black"/>
<path d="M229.521 103.59C229.521 104.85 229.521 105.795 229.521 106.551C229.458 107.37 229.395 108 229.395 108.567C229.332 109.071 229.269 109.449 229.269 109.827C229.206 110.142 229.143 110.457 229.143 110.835C229.08 111.276 228.954 111.843 228.828 112.473C228.576 113.103 228.387 113.733 228.135 114.363C227.883 114.993 227.568 115.56 227.316 116.064C227.001 116.568 226.749 116.883 226.497 117.135C226.245 117.324 225.93 117.513 225.678 117.765C225.3 117.891 225.048 118.017 224.796 118.143C224.481 118.143 224.292 118.143 224.166 118.017C224.04 117.891 224.04 117.576 224.229 117.135C224.355 116.631 224.481 115.938 224.607 114.93C224.607 113.859 224.67 112.725 224.67 111.591C224.67 110.331 224.67 109.134 224.67 108C224.607 106.866 224.607 105.858 224.607 105.039C224.544 103.59 224.544 102.267 224.544 101.007C224.481 99.81 224.481 99.18 224.607 99.054C224.733 98.865 224.859 98.739 225.048 98.739C225.174 98.739 225.3 98.613 225.426 98.361C225.426 98.235 225.426 98.046 225.363 97.92C225.237 97.794 225.174 97.668 225.111 97.479C224.985 97.353 224.859 97.101 224.796 96.849C224.67 96.66 224.67 96.408 224.733 96.03V95.526C224.103 95.652 223.473 95.715 222.906 95.715C222.276 95.841 221.772 95.904 221.331 95.904C220.323 96.03 219.252 96.219 217.992 96.408C216.732 96.66 215.535 96.849 214.401 97.038C213.204 97.29 212.133 97.542 211.251 97.731C210.243 97.983 209.613 98.235 209.298 98.361C208.542 98.739 207.975 98.928 207.597 98.928C207.093 99.054 206.463 98.928 205.644 98.55C205.266 98.424 204.825 98.235 204.321 98.046C203.754 97.92 203.187 97.731 202.683 97.542C202.116 97.416 201.612 97.29 201.171 97.101C200.667 96.975 200.226 96.849 199.974 96.66C199.596 96.534 199.407 96.345 199.344 96.093C199.218 95.904 199.155 95.715 199.218 95.463C199.218 95.337 199.281 95.148 199.533 95.022C199.659 94.896 199.911 94.896 200.289 94.959C200.982 95.085 201.486 95.148 201.864 95.085C202.179 95.085 202.683 95.022 203.439 94.77C204.132 94.581 204.699 94.455 205.203 94.329C205.581 94.329 206.148 94.266 206.904 94.14C207.219 94.077 207.66 94.014 208.227 93.888C208.731 93.888 209.298 93.825 209.928 93.699C210.432 93.699 210.999 93.636 211.566 93.51C212.07 93.51 212.511 93.447 212.889 93.447C213.393 93.447 214.338 93.321 215.787 93.195C217.173 93.132 218.748 93.006 220.386 92.88C221.961 92.754 223.473 92.628 224.985 92.502C226.434 92.439 227.505 92.376 228.135 92.376C228.702 92.376 229.395 92.313 230.277 92.25C231.033 92.25 231.852 92.25 232.671 92.187C233.427 92.187 234.12 92.187 234.813 92.124C235.443 92.124 235.884 92.124 236.199 92.061C236.766 91.998 237.333 91.809 237.963 91.557C238.53 91.305 239.16 91.179 239.916 91.179C240.609 91.179 241.365 91.242 242.121 91.368C242.877 91.557 243.57 91.62 244.326 91.557C245.019 91.557 245.712 91.368 246.342 91.053C246.909 90.801 247.539 90.801 248.232 90.927C248.547 91.053 248.925 91.116 249.429 91.116C249.807 91.242 250.248 91.305 250.626 91.431C251.004 91.557 251.256 91.746 251.508 91.872C251.697 92.124 251.76 92.376 251.634 92.628C251.382 93.258 251.193 93.636 251.067 93.699C250.878 93.825 250.626 93.951 250.374 94.14C250.248 94.266 250.185 94.392 250.248 94.644C250.248 94.959 250.185 95.274 250.185 95.526C250.059 95.841 249.933 96.093 249.744 96.219C249.492 96.471 249.114 96.471 248.547 96.345C247.161 96.093 245.901 95.904 244.641 95.715C243.381 95.589 242.247 95.463 241.239 95.337C240.168 95.274 239.286 95.211 238.593 95.085C237.837 95.022 237.333 94.896 237.081 94.77C236.766 94.644 236.577 94.581 236.451 94.518C236.262 94.518 236.136 94.455 236.01 94.392C235.884 94.392 235.695 94.392 235.569 94.392C235.38 94.392 235.128 94.392 234.813 94.392C234.435 94.392 233.805 94.455 232.923 94.518C231.978 94.644 230.907 94.77 229.71 94.896C229.647 96.471 229.584 97.983 229.584 99.369C229.521 100.818 229.521 102.204 229.521 103.59ZM228.009 70.83C228.954 69.696 229.584 68.814 229.899 68.247C230.151 67.743 229.836 67.68 228.954 67.995C228.072 68.373 227.253 68.562 226.434 68.688C225.552 68.877 224.859 69.066 224.229 69.255C223.851 69.381 223.347 69.507 222.717 69.633C222.087 69.759 221.457 69.948 220.827 70.074C220.134 70.263 219.504 70.452 218.937 70.578C218.307 70.83 217.866 71.019 217.614 71.145C216.984 71.523 216.48 71.712 216.102 71.586C215.598 71.523 215.157 71.271 214.779 70.893C214.338 70.515 213.771 70.074 213.141 69.57C212.385 69.129 211.944 68.688 211.755 68.184C211.503 67.806 211.503 67.491 211.629 67.302C211.692 67.176 212.133 67.176 212.889 67.239C213.141 67.302 213.708 67.302 214.527 67.239C215.283 67.239 216.102 67.176 216.984 67.05C217.803 67.05 218.622 66.987 219.441 66.861C220.197 66.798 220.701 66.735 221.079 66.735C221.709 66.735 222.465 66.672 223.284 66.609C224.04 66.609 224.607 66.546 224.985 66.42C225.111 66.42 225.426 66.357 225.93 66.294C226.371 66.294 226.875 66.231 227.505 66.105C228.009 66.105 228.576 65.979 229.143 65.853C229.647 65.79 230.025 65.664 230.34 65.538C230.781 65.286 231.159 65.034 231.474 64.656C231.726 64.404 231.915 64.089 232.041 63.837C232.23 63.522 232.545 63.396 233.049 63.459C233.427 63.585 233.931 63.648 234.561 63.711C235.002 63.837 235.506 64.026 236.073 64.215C236.577 64.467 237.018 64.53 237.522 64.53C237.963 64.467 238.341 64.53 238.656 64.782C238.908 65.034 239.223 65.286 239.475 65.538C239.727 65.79 239.916 66.042 239.916 66.294C239.916 66.609 239.601 66.987 239.034 67.491C238.719 67.743 238.53 67.932 238.404 68.058C238.278 68.247 238.152 68.373 238.089 68.373C237.963 68.436 237.9 68.436 237.837 68.436C237.711 68.436 237.522 68.436 237.27 68.436C236.766 68.436 236.199 68.688 235.695 69.318C235.128 69.948 234.435 70.641 233.679 71.334L230.529 73.665L228.261 75.555L232.104 76.815C232.482 77.004 233.112 77.193 233.994 77.445C234.813 77.697 235.695 78.012 236.64 78.327C237.522 78.705 238.341 79.146 239.097 79.524C239.853 79.965 240.357 80.406 240.609 80.91C241.05 81.792 241.365 82.548 241.617 83.115C241.806 83.745 241.869 84.438 241.869 85.32C241.869 85.824 241.806 86.202 241.68 86.58C241.491 86.958 241.302 87.273 241.113 87.399C240.861 87.588 240.546 87.588 240.294 87.462C239.916 87.399 239.601 87.084 239.349 86.58C239.034 86.076 238.593 85.509 238.026 84.816C237.396 84.186 236.766 83.493 236.073 82.8C235.317 82.17 234.498 81.54 233.679 80.91C232.797 80.343 231.915 79.839 231.159 79.335C230.718 79.146 230.088 78.831 229.206 78.39C228.261 78.012 227.253 77.634 226.182 77.13C225.048 78.012 223.914 78.831 222.78 79.713C221.52 80.595 220.449 81.477 219.441 82.233C218.37 83.052 217.488 83.745 216.795 84.249C216.039 84.879 215.535 85.257 215.409 85.446C214.527 86.58 213.771 87.336 213.078 87.777C212.322 88.281 211.692 88.596 211.314 88.785C211.062 88.911 210.81 88.911 210.558 88.911C210.18 88.974 209.928 88.974 209.676 88.848C209.424 88.848 209.235 88.722 209.109 88.533C208.983 88.407 208.983 88.218 209.109 87.84C209.235 87.336 209.55 86.895 210.18 86.517C210.684 86.202 211.314 85.635 212.07 84.753C212.637 84.06 213.015 83.493 213.267 83.052C213.456 82.674 213.771 82.107 214.149 81.225C214.464 80.406 214.779 79.902 215.031 79.776C215.22 79.65 215.283 79.902 215.157 80.406C215.031 80.721 215.031 81.036 215.031 81.288C214.968 81.666 214.968 81.918 215.094 82.044C215.094 82.296 215.22 82.359 215.409 82.296C215.535 82.296 215.85 82.107 216.228 81.666C216.858 80.973 217.803 80.091 219.189 79.02C220.449 78.012 221.772 76.941 223.032 75.807C222.276 75.555 221.709 75.303 221.205 75.051C220.638 74.862 220.26 74.736 220.134 74.61C219.882 74.484 219.693 74.358 219.567 74.106C219.378 73.98 219.315 73.791 219.315 73.602C219.315 73.476 219.378 73.413 219.63 73.287C219.756 73.224 220.071 73.224 220.575 73.35L224.481 74.421C224.733 74.232 224.922 73.98 225.174 73.728C225.363 73.476 225.552 73.287 225.804 73.035L228.009 70.83Z" fill="white"/>
<rect x="270.5" y="0.5" width="90" height="120" fill="#F6C500"/>
<rect x="270.5" y="0.5" width="90" height="120" stroke="black"/>
<path d="M342.917 59.73C342.917 60.108 342.98 60.549 342.98 60.99C342.98 61.494 342.602 61.809 341.909 61.935C341.216 62.061 340.334 62.061 339.326 61.935C338.255 61.809 337.373 61.683 336.617 61.494C336.302 61.494 335.861 61.431 335.294 61.368C334.664 61.368 334.097 61.368 333.467 61.368C332.837 61.368 332.207 61.368 331.64 61.368C331.01 61.431 330.569 61.431 330.317 61.431H330.191C330.191 62.313 330.191 63.069 330.191 63.825C330.128 64.581 330.128 65.274 330.128 65.841C330.002 68.109 330.002 69.936 330.002 71.448C329.939 73.023 329.939 74.094 329.939 74.661C329.939 75.669 329.813 76.74 329.687 77.937C329.435 79.134 329.246 80.331 328.994 81.465C328.679 82.599 328.364 83.607 328.112 84.552C327.734 85.434 327.482 86.127 327.23 86.505C326.978 86.883 326.663 87.324 326.411 87.765C326.033 88.143 325.781 88.395 325.529 88.584C325.214 88.71 325.025 88.647 324.899 88.395C324.773 88.08 324.773 87.45 324.962 86.505C325.088 85.56 325.214 84.111 325.34 82.158C325.34 80.142 325.403 78 325.466 75.669C325.466 73.401 325.466 71.133 325.466 68.865C325.403 66.66 325.403 64.833 325.403 63.447C325.466 62.376 325.466 61.242 325.403 60.108C325.277 58.974 325.277 57.651 325.277 56.013C325.214 55.005 325.214 53.934 325.214 52.8C325.151 51.729 325.151 50.721 325.151 49.839C325.151 49.02 325.151 48.327 325.151 47.76C325.151 47.256 325.151 46.941 325.214 46.878C325.34 46.752 325.529 46.626 325.718 46.626C325.844 46.626 325.907 46.5 326.033 46.185C326.033 46.059 326.033 45.87 325.97 45.744C325.844 45.618 325.781 45.492 325.718 45.303C325.592 45.177 325.466 44.988 325.403 44.736C325.277 44.547 325.277 44.295 325.34 43.917C325.403 43.476 325.466 42.972 325.466 42.342C325.403 41.838 325.403 41.271 325.403 40.641C325.34 39.381 325.34 38.436 325.466 37.743C325.466 37.113 325.466 36.546 325.403 35.916C325.34 35.475 325.34 34.971 325.34 34.404C325.277 33.9 325.025 33.459 324.521 33.018C324.017 32.64 323.576 32.388 323.135 32.199C322.631 32.073 322.253 31.884 321.875 31.632C321.623 31.506 321.497 31.38 321.497 31.128C321.434 30.939 321.497 30.75 321.623 30.498C321.686 30.372 321.875 30.183 322.127 30.057C322.379 29.994 322.694 29.994 323.135 30.12C323.324 30.246 323.702 30.309 324.332 30.435C324.836 30.624 325.466 30.813 326.222 30.939C326.852 31.191 327.545 31.38 328.238 31.506C328.868 31.695 329.372 31.821 329.813 31.884C330.38 32.073 330.821 32.262 331.199 32.388C331.514 32.64 331.577 33.018 331.388 33.648C331.136 34.341 330.947 35.034 330.758 35.79C330.506 36.609 330.38 37.428 330.38 38.31C330.38 38.877 330.317 39.633 330.317 40.641C330.254 41.649 330.254 42.531 330.254 43.287C330.254 43.665 330.191 44.106 330.191 44.673C330.128 45.303 330.128 45.996 330.128 46.626C330.065 47.319 330.065 47.949 330.065 48.516C330.002 49.146 330.002 49.65 330.002 49.965C330.002 50.658 330.002 51.225 330.065 51.729C330.065 52.296 330.065 52.8 330.065 53.304C330.065 53.871 330.065 54.438 330.128 55.005C330.128 55.635 330.128 56.391 330.128 57.21V59.226L331.703 59.037C332.207 58.974 332.585 58.911 332.963 58.785C333.215 58.785 333.467 58.722 333.719 58.596C333.908 58.596 334.097 58.533 334.349 58.407C334.475 58.407 334.727 58.281 334.979 58.155C335.546 57.966 336.05 57.777 336.554 57.651C336.932 57.525 337.436 57.588 338.003 57.777C338.507 58.029 339.011 58.029 339.641 57.903C340.145 57.84 340.586 57.84 340.901 57.84C341.342 57.903 341.783 58.092 342.224 58.407C342.602 58.785 342.854 59.226 342.917 59.73ZM302.219 70.188C303.731 70.062 305.243 69.936 306.881 69.747C308.393 69.621 309.968 69.243 311.543 68.613C312.047 68.487 312.677 68.109 313.37 67.605C314 67.101 314.441 66.471 314.693 65.589L315.638 61.683C315.701 61.431 315.827 61.179 316.016 60.927C316.142 60.738 316.331 60.927 316.52 61.557C316.709 62.187 316.772 62.628 316.772 62.88C316.646 63.195 316.709 63.447 316.961 63.573C317.087 63.762 317.276 63.825 317.528 63.699C317.717 63.699 317.843 63.825 317.969 64.14C317.969 64.518 318.095 64.77 318.284 64.896C318.41 65.085 318.599 65.148 318.725 65.085C319.103 65.085 319.418 65.4 319.544 66.03C319.544 66.282 319.607 66.471 319.859 66.597C319.985 66.849 320.111 67.101 320.237 67.479C320.237 67.92 320.111 68.424 319.733 68.928C319.292 69.495 318.851 69.936 318.347 70.251C317.717 70.692 316.835 71.07 315.575 71.385C314.315 71.763 313.118 72.015 311.984 72.204C310.346 72.456 308.708 72.645 307.007 72.771C305.243 72.96 303.542 73.023 301.904 73.023C300.959 73.023 300.077 72.96 299.321 72.771C298.439 72.645 297.746 72.393 297.179 71.952C296.549 71.574 296.108 71.07 295.793 70.314C295.415 69.621 295.226 68.676 295.289 67.479C295.289 65.463 295.415 63.699 295.541 62.187C295.604 60.738 295.667 59.793 295.667 59.289V59.1C295.415 58.974 295.226 58.911 295.037 58.785C294.785 58.785 294.659 58.659 294.596 58.533C294.47 58.47 294.407 58.344 294.533 58.218C294.596 58.155 294.848 58.029 295.289 57.84C295.163 57.651 294.974 57.399 294.848 57.147C294.659 56.958 294.47 56.769 294.281 56.517C293.651 56.076 293.336 55.698 293.336 55.32C293.273 55.068 293.651 54.942 294.407 55.005C295.163 55.131 295.919 55.32 296.738 55.572C297.494 55.887 298.187 56.202 298.817 56.58C298.817 56.643 298.817 56.643 298.943 56.643C299.888 56.391 300.833 56.076 301.715 55.824C302.534 55.572 303.227 55.383 303.857 55.131C304.55 54.879 305.054 54.564 305.432 54.249C305.747 53.997 306.062 53.493 306.377 52.611C306.629 51.855 307.007 50.91 307.385 49.776C307.763 48.768 307.952 47.949 308.078 47.319C308.078 47.13 308.141 46.878 308.141 46.626C308.141 46.437 308.078 46.248 308.078 46.059C307.952 45.933 307.826 45.807 307.637 45.744C307.385 45.744 307.07 45.87 306.692 45.996C306.314 46.185 305.684 46.374 304.865 46.626C303.983 46.941 303.164 47.256 302.282 47.508C301.4 47.823 300.581 48.075 299.825 48.327C299.069 48.642 298.565 48.894 298.313 49.02C297.809 49.398 297.242 49.713 296.549 49.965C295.793 50.28 295.163 50.28 294.722 49.965C294.218 49.713 293.84 49.335 293.588 48.957C293.336 48.642 293.021 48.264 292.706 47.76C292.328 47.319 292.265 47.004 292.454 46.815C292.58 46.689 292.958 46.563 293.462 46.5C293.903 46.5 294.47 46.437 295.226 46.311C295.919 46.248 296.675 46.122 297.557 45.87C297.809 45.807 298.502 45.618 299.51 45.303C300.518 45.051 301.589 44.736 302.723 44.358C303.857 44.043 304.928 43.728 305.936 43.35C306.944 43.098 307.574 42.846 307.952 42.72C309.212 42.09 310.346 41.964 311.417 42.405C311.984 42.657 312.614 42.909 313.307 43.224C313.937 43.602 314.378 43.98 314.567 44.295C314.756 44.673 314.882 44.988 314.882 45.24C314.819 45.555 314.819 45.933 314.882 46.311C314.882 46.689 314.693 47.13 314.315 47.634C313.874 48.138 313.559 48.516 313.307 48.705C313.181 48.831 312.992 49.02 312.803 49.335C312.551 49.713 312.299 50.091 312.047 50.469C311.795 50.91 311.543 51.351 311.291 51.729C311.039 52.17 310.787 52.548 310.661 52.8C310.409 53.178 310.346 53.367 310.535 53.43C310.661 53.556 310.913 53.556 311.228 53.556C311.417 53.556 311.669 53.493 312.047 53.493C312.362 53.493 312.614 53.745 312.74 54.186C312.803 54.69 312.74 55.005 312.551 55.257C312.299 55.572 311.984 55.887 311.669 56.139C311.291 56.517 310.85 56.706 310.346 56.706C309.779 56.769 309.149 56.895 308.456 57.021C307.385 57.273 306.188 57.525 304.865 57.777C303.479 58.092 302.408 58.407 301.652 58.722C301.4 58.848 301.211 58.911 301.085 59.037C300.833 59.163 300.644 59.289 300.518 59.352C300.392 59.73 300.329 60.108 300.329 60.36C300.203 60.675 300.077 60.99 299.951 61.305C299.699 61.809 299.51 62.502 299.384 63.51C299.195 64.581 299.069 65.526 298.943 66.408C298.817 67.038 298.817 67.605 298.88 68.046C298.88 68.55 299.069 68.991 299.321 69.243C299.51 69.621 299.825 69.873 300.329 69.999C300.77 70.188 301.4 70.251 302.219 70.188Z" fill="white"/>
<rect x="360.5" y="30.5" width="90" height="120" fill="#F6C500"/>
<rect x="360.5" y="30.5" width="90" height="120" stroke="black"/>
<path d="M409.395 66.357C410.277 66.483 411.159 66.672 412.167 66.924C413.049 67.239 413.931 67.68 414.813 68.247C415.569 68.877 416.262 69.696 416.892 70.641C417.396 71.649 417.711 72.783 417.837 74.106C417.837 74.736 417.837 75.114 417.837 75.366C417.774 75.681 417.711 75.87 417.648 75.996C417.522 76.122 417.459 76.248 417.396 76.248C417.27 76.311 417.207 76.374 417.207 76.5C417.144 76.626 417.144 76.752 417.27 76.752C417.27 76.878 417.333 76.941 417.459 77.067C417.459 77.193 417.522 77.382 417.522 77.634C417.522 77.886 417.459 78.264 417.333 78.768C416.955 79.965 416.514 81.162 415.884 82.422C415.191 83.745 414.246 84.879 413.049 85.761C412.293 86.265 411.537 86.643 410.781 86.895C409.899 87.21 409.08 87.399 408.324 87.462C407.442 87.588 406.686 87.651 406.056 87.651C405.3 87.651 404.733 87.651 404.355 87.651C403.347 87.588 402.402 87.336 401.457 86.958C400.449 86.58 399.63 86.202 398.874 85.824C397.614 85.194 396.669 84.249 396.039 83.115C395.346 81.981 394.905 80.784 394.716 79.524C394.464 78.327 394.401 77.13 394.527 75.933C394.653 74.799 394.842 73.854 395.22 73.098C395.535 72.279 396.039 71.397 396.795 70.389C397.488 69.507 398.433 68.688 399.693 67.932C399.441 67.239 399.252 66.546 399 65.853C398.748 65.223 398.433 64.782 398.118 64.404C397.866 64.152 397.677 63.9 397.677 63.585C397.614 63.333 397.677 63.144 397.803 62.955C397.929 62.829 398.118 62.766 398.37 62.703C398.622 62.703 398.874 62.829 399.189 62.955C399.756 63.333 400.26 63.648 400.701 63.9C401.079 64.152 401.772 64.53 402.78 64.971C403.158 65.223 403.536 65.538 403.914 65.916C404.166 66.357 404.418 66.861 404.67 67.365C405.174 67.113 405.867 66.798 406.749 66.546C407.505 66.357 408.387 66.294 409.395 66.357ZM409.521 103.59C409.521 104.85 409.521 105.795 409.521 106.551C409.458 107.37 409.395 108 409.395 108.567C409.332 109.071 409.269 109.449 409.269 109.827C409.206 110.142 409.143 110.457 409.143 110.835C409.08 111.276 408.954 111.843 408.828 112.473C408.576 113.103 408.387 113.733 408.135 114.363C407.883 114.993 407.568 115.56 407.316 116.064C407.001 116.568 406.749 116.883 406.497 117.135C406.245 117.324 405.93 117.513 405.678 117.765C405.3 117.891 405.048 118.017 404.796 118.143C404.481 118.143 404.292 118.143 404.166 118.017C404.04 117.891 404.04 117.576 404.229 117.135C404.355 116.631 404.481 115.938 404.607 114.93C404.607 113.859 404.67 112.725 404.67 111.591C404.67 110.331 404.67 109.134 404.67 108C404.607 106.866 404.607 105.858 404.607 105.039C404.544 103.59 404.544 102.267 404.544 101.007C404.481 99.81 404.481 99.18 404.607 99.054C404.733 98.865 404.859 98.739 405.048 98.739C405.174 98.739 405.3 98.613 405.426 98.361C405.426 98.235 405.426 98.046 405.363 97.92C405.237 97.794 405.174 97.668 405.111 97.479C404.985 97.353 404.859 97.101 404.796 96.849C404.67 96.66 404.67 96.408 404.733 96.03V95.526C404.103 95.652 403.473 95.715 402.906 95.715C402.276 95.841 401.772 95.904 401.331 95.904C400.323 96.03 399.252 96.219 397.992 96.408C396.732 96.66 395.535 96.849 394.401 97.038C393.204 97.29 392.133 97.542 391.251 97.731C390.243 97.983 389.613 98.235 389.298 98.361C388.542 98.739 387.975 98.928 387.597 98.928C387.093 99.054 386.463 98.928 385.644 98.55C385.266 98.424 384.825 98.235 384.321 98.046C383.754 97.92 383.187 97.731 382.683 97.542C382.116 97.416 381.612 97.29 381.171 97.101C380.667 96.975 380.226 96.849 379.974 96.66C379.596 96.534 379.407 96.345 379.344 96.093C379.218 95.904 379.155 95.715 379.218 95.463C379.218 95.337 379.281 95.148 379.533 95.022C379.659 94.896 379.911 94.896 380.289 94.959C380.982 95.085 381.486 95.148 381.864 95.085C382.179 95.085 382.683 95.022 383.439 94.77C384.132 94.581 384.699 94.455 385.203 94.329C385.581 94.329 386.148 94.266 386.904 94.14C387.219 94.077 387.66 94.014 388.227 93.888C388.731 93.888 389.298 93.825 389.928 93.699C390.432 93.699 390.999 93.636 391.566 93.51C392.07 93.51 392.511 93.447 392.889 93.447C393.393 93.447 394.338 93.321 395.787 93.195C397.173 93.132 398.748 93.006 400.386 92.88C401.961 92.754 403.473 92.628 404.985 92.502C406.434 92.439 407.505 92.376 408.135 92.376C408.702 92.376 409.395 92.313 410.277 92.25C411.033 92.25 411.852 92.25 412.671 92.187C413.427 92.187 414.12 92.187 414.813 92.124C415.443 92.124 415.884 92.124 416.199 92.061C416.766 91.998 417.333 91.809 417.963 91.557C418.53 91.305 419.16 91.179 419.916 91.179C420.609 91.179 421.365 91.242 422.121 91.368C422.877 91.557 423.57 91.62 424.326 91.557C425.019 91.557 425.712 91.368 426.342 91.053C426.909 90.801 427.539 90.801 428.232 90.927C428.547 91.053 428.925 91.116 429.429 91.116C429.807 91.242 430.248 91.305 430.626 91.431C431.004 91.557 431.256 91.746 431.508 91.872C431.697 92.124 431.76 92.376 431.634 92.628C431.382 93.258 431.193 93.636 431.067 93.699C430.878 93.825 430.626 93.951 430.374 94.14C430.248 94.266 430.185 94.392 430.248 94.644C430.248 94.959 430.185 95.274 430.185 95.526C430.059 95.841 429.933 96.093 429.744 96.219C429.492 96.471 429.114 96.471 428.547 96.345C427.161 96.093 425.901 95.904 424.641 95.715C423.381 95.589 422.247 95.463 421.239 95.337C420.168 95.274 419.286 95.211 418.593 95.085C417.837 95.022 417.333 94.896 417.081 94.77C416.766 94.644 416.577 94.581 416.451 94.518C416.262 94.518 416.136 94.455 416.01 94.392C415.884 94.392 415.695 94.392 415.569 94.392C415.38 94.392 415.128 94.392 414.813 94.392C414.435 94.392 413.805 94.455 412.923 94.518C411.978 94.644 410.907 94.77 409.71 94.896C409.647 96.471 409.584 97.983 409.584 99.369C409.521 100.818 409.521 102.204 409.521 103.59ZM403.662 71.397C403.095 71.901 402.654 72.153 402.276 72.279C401.835 72.405 401.457 72.405 401.142 72.279C400.764 72.279 400.449 72.405 400.197 72.594C399.882 72.846 399.63 73.098 399.504 73.413C399.252 73.791 399.126 74.106 399 74.484C398.874 74.925 398.748 75.303 398.748 75.618C398.622 76.374 398.622 77.13 398.685 77.886C398.685 78.705 398.874 79.461 399.252 80.091C399.504 80.784 400.008 81.414 400.638 81.918C401.268 82.485 402.087 82.863 403.221 83.115C404.481 83.493 405.741 83.556 406.938 83.304C408.072 83.178 409.143 82.863 410.151 82.422C411.348 81.414 412.167 80.217 412.608 78.957C412.986 77.76 413.175 76.437 413.301 74.925C413.427 73.413 413.049 72.09 412.23 70.956C411.348 69.822 410.151 69.129 408.702 68.751C408.135 68.688 407.505 68.688 406.812 68.688C406.056 68.751 405.363 68.751 404.859 68.751C404.859 69.885 404.418 70.767 403.662 71.397Z" fill="white"/>
</svg>
