<svg width="91" height="121" viewBox="0 0 91 121" fill="none" xmlns="http://www.w3.org/2000/svg">
<rect x="0.5" y="0.5" width="90" height="120" fill="#F6C500"/>
<rect x="0.5" y="0.5" width="90" height="120" stroke="black"/>
<path d="M45.6792 53.934C44.6712 53.808 44.1672 53.493 44.1672 53.115C44.1042 52.8 44.3562 52.611 44.9862 52.485C45.2382 52.485 45.4902 52.422 45.7422 52.359C45.9312 52.359 46.1832 52.359 46.4352 52.296C46.6872 52.296 47.0022 52.233 47.3802 52.17C47.7582 52.17 48.2622 52.17 48.9552 52.17C49.3962 52.17 50.0262 52.17 50.7822 52.044C51.5382 51.981 52.3572 51.855 53.2392 51.666C54.1212 51.54 55.0032 51.351 55.9482 51.099C56.8302 50.91 57.7122 50.721 58.5942 50.469C58.5312 49.524 58.5312 48.705 58.5942 47.949C58.5942 47.319 58.5942 46.941 58.6572 46.878C58.7832 46.752 58.9722 46.626 59.1612 46.626C59.2872 46.626 59.3502 46.5 59.4762 46.185C59.4762 46.059 59.4762 45.87 59.4132 45.744C59.2872 45.618 59.2242 45.492 59.1612 45.303C59.0352 45.177 58.9092 44.988 58.8462 44.736C58.7202 44.547 58.7202 44.295 58.7832 43.917C58.8462 43.476 58.9092 42.972 58.9092 42.342C58.8462 41.838 58.8462 41.271 58.8462 40.641C58.7832 39.381 58.7832 38.436 58.9092 37.743C58.9092 37.113 58.9092 36.546 58.8462 35.916C58.7832 35.475 58.7832 34.971 58.7832 34.404C58.7202 33.9 58.4682 33.459 57.9642 33.018C57.4602 32.64 57.0192 32.388 56.5782 32.199C56.0742 32.073 55.6962 31.884 55.3182 31.632C55.0662 31.506 54.9402 31.38 54.9402 31.128C54.8772 30.939 54.9402 30.75 55.0662 30.498C55.1292 30.372 55.3182 30.183 55.5702 30.057C55.8222 29.994 56.1372 29.994 56.5782 30.12C56.7672 30.246 57.1452 30.309 57.7752 30.435C58.2792 30.624 58.9092 30.813 59.6652 30.939C60.2952 31.191 60.9882 31.38 61.6812 31.506C62.3112 31.695 62.8152 31.821 63.2562 31.884C63.8232 32.073 64.2642 32.262 64.6422 32.388C64.9572 32.64 65.0202 33.018 64.8312 33.648C64.5792 34.341 64.3902 35.034 64.2012 35.79C63.9492 36.609 63.8232 37.428 63.8232 38.31C63.8232 38.877 63.7602 39.633 63.7602 40.641C63.6972 41.649 63.6972 42.531 63.6972 43.287C63.6972 43.665 63.6342 44.106 63.6342 44.673C63.5712 45.303 63.5712 45.996 63.5712 46.626C63.5082 47.319 63.5082 47.949 63.5082 48.516C63.4452 49.146 63.4452 49.65 63.4452 49.965C63.4452 50.658 63.4452 51.225 63.5082 51.729C63.5082 52.296 63.5082 52.8 63.5082 53.304C63.5082 53.871 63.5082 54.438 63.5712 55.005C63.5712 55.635 63.5712 56.391 63.5712 57.21C63.5712 57.84 63.5712 58.533 63.6342 59.289C63.6342 60.108 63.6342 60.864 63.6342 61.62C63.6342 62.439 63.6342 63.195 63.6342 63.888C63.5712 64.644 63.5712 65.337 63.5712 65.841C63.4452 68.109 63.4452 69.936 63.4452 71.448C63.3822 73.023 63.3822 74.094 63.3822 74.661C63.3822 75.669 63.2562 76.74 63.1302 77.937C62.8782 79.134 62.6892 80.331 62.4372 81.465C62.1222 82.599 61.8072 83.607 61.5552 84.552C61.1772 85.434 60.9252 86.127 60.6732 86.505C60.4212 86.883 60.1062 87.324 59.8542 87.765C59.4762 88.143 59.2242 88.395 58.9722 88.584C58.6572 88.71 58.4682 88.647 58.3422 88.395C58.2162 88.08 58.2162 87.45 58.4052 86.505C58.5312 85.56 58.6572 84.111 58.7832 82.158C58.7832 80.142 58.8462 78 58.9092 75.669C58.9092 73.401 58.9092 71.133 58.9092 68.865C58.8462 66.66 58.8462 64.833 58.8462 63.447C58.9092 62.376 58.9092 61.242 58.8462 60.108C58.7202 58.974 58.7202 57.651 58.7202 56.013L58.5942 53.115C57.9642 53.493 57.4602 53.808 56.9562 54.06C56.3892 54.438 55.8222 54.627 55.2552 54.69C54.8772 54.816 54.3732 54.879 53.8062 55.005C53.1762 55.194 52.5462 55.32 51.9162 55.446C51.2862 55.572 50.6562 55.698 50.1522 55.698C49.5852 55.824 49.2072 55.761 48.9552 55.635C48.7032 55.509 48.5142 55.383 48.3882 55.194C48.1362 55.068 47.9472 54.879 47.7582 54.69C47.5062 54.564 47.1912 54.375 46.9392 54.186C46.5612 54.06 46.1832 53.997 45.6792 53.934ZM31.6302 63.51C31.7562 64.518 31.8822 65.337 32.0082 65.904C32.0712 66.534 32.1972 66.975 32.3862 67.227C32.5122 67.605 32.7012 67.731 33.0162 67.731C33.2682 67.794 33.6462 67.731 34.1502 67.605C34.6542 67.479 35.2842 67.29 36.1032 66.975C36.8592 66.723 37.6152 66.345 38.4342 65.967C39.1902 65.652 39.9462 65.274 40.6392 64.896C41.2692 64.518 41.7732 64.203 42.0252 63.951C42.5292 63.447 43.0962 62.943 43.7262 62.502C44.2932 62.124 44.8602 62.061 45.4272 62.313L45.6792 62.502C45.8052 62.061 45.9312 61.683 46.0572 61.305C46.1202 61.053 46.1832 60.801 46.3092 60.675C46.4352 60.486 46.7502 60.234 47.1282 59.982C47.4432 59.793 47.8212 59.604 48.3252 59.352C48.7032 59.226 49.1442 59.1 49.6482 58.974C50.0892 58.974 50.4672 58.974 50.8452 59.1C51.5382 59.415 52.1052 59.856 52.6092 60.486C52.9872 61.179 53.2392 61.872 53.3652 62.565C53.3652 62.943 53.4282 63.195 53.4282 63.384C53.3652 63.636 53.3022 63.762 53.2392 63.888C53.1132 64.014 52.9242 64.14 52.7982 64.266C52.5462 64.392 52.3572 64.581 52.1052 64.77C51.6012 65.148 51.0972 65.526 50.6562 65.904C50.1522 66.345 49.8372 66.723 49.5852 66.975C49.3332 67.227 49.0182 67.479 48.6402 67.605C48.2622 67.857 47.8212 67.92 47.3802 67.92C46.8762 67.983 46.5612 68.046 46.4982 68.172C46.3722 68.361 46.2462 68.613 45.9942 68.865C45.7422 69.18 45.4272 69.306 45.0492 69.243C44.5452 69.243 44.4192 69.054 44.5452 68.55C44.5452 68.424 44.6082 68.046 44.7342 67.542C44.7342 67.038 44.8602 66.471 44.9862 65.841C43.9782 66.345 42.9702 66.849 41.8992 67.353C40.7652 67.983 40.0092 68.487 39.6312 68.865C39.2532 69.243 38.8752 69.558 38.4342 69.81C37.9302 70.125 37.4262 70.377 36.9222 70.629C36.3552 70.944 35.8512 71.196 35.3472 71.385C34.8432 71.637 34.4022 71.826 34.0872 71.952C33.5202 72.141 33.0162 72.141 32.5752 72.015C31.8192 71.889 31.1892 71.637 30.5592 71.322C29.8662 71.07 29.2992 70.566 28.7952 69.81C28.1022 68.928 27.6612 67.731 27.4092 66.093C27.0942 64.581 26.9052 62.88 26.8422 61.116C26.7162 59.352 26.7162 57.651 26.8422 55.95C26.8422 54.312 26.9052 52.989 26.9052 51.855C26.9052 50.91 26.8422 50.154 26.7792 49.587C26.6532 49.083 26.4642 48.642 26.3382 48.264C26.0862 47.949 25.8972 47.697 25.6452 47.445C25.3302 47.319 25.0152 47.067 24.7002 46.815C24.0072 46.374 23.7552 45.933 23.9442 45.492C24.0702 45.114 24.3852 45.051 25.0152 45.24C25.2672 45.366 25.7082 45.492 26.3382 45.681C26.8422 45.933 27.4722 46.185 28.1022 46.437C28.6692 46.689 29.2362 46.941 29.8032 47.193C30.3072 47.445 30.7482 47.634 31.0002 47.76C31.4412 48.012 31.7562 48.327 31.8822 48.831C31.9452 49.398 31.9452 50.406 31.8192 51.855C31.5672 54.375 31.3782 56.58 31.3782 58.533C31.3152 60.549 31.3782 62.187 31.6302 63.51Z" fill="white"/>
</svg>
