<svg width="181" height="151" viewBox="0 0 181 151" fill="none" xmlns="http://www.w3.org/2000/svg">
<rect x="0.5" y="0.5" width="90" height="120" fill="#F6C500"/>
<rect x="0.5" y="0.5" width="90" height="120" stroke="black"/>
<path d="M38.7713 45.681C38.9603 45.429 39.0863 45.177 39.0863 44.925C39.0863 44.799 38.9603 44.736 38.7713 44.799C38.3303 44.988 38.0153 45.114 37.8893 45.24C37.6373 45.366 37.2593 45.366 36.6923 45.24C36.0623 45.177 35.6213 44.925 35.3063 44.484C34.9283 44.106 34.6763 43.665 34.5503 43.035C34.4243 42.783 34.4243 42.405 34.4873 42.027C34.4873 41.712 34.5503 41.397 34.6763 41.082C34.6763 40.83 34.7393 40.641 34.8653 40.515C34.9283 40.389 34.9913 40.389 35.1173 40.515C35.3063 40.83 35.7473 41.082 36.5033 41.334C37.1963 41.649 37.8263 41.775 38.4563 41.775C38.8343 41.838 39.2753 41.838 39.8423 41.712C40.3463 41.649 40.9133 41.586 41.4173 41.46C41.8583 41.397 42.1733 41.271 42.3623 41.082C42.4883 40.956 42.7403 40.641 43.1183 40.2C43.4333 39.885 43.8113 39.57 44.2523 39.318C44.6303 39.066 45.0083 39.066 45.5123 39.255C45.9533 39.507 46.4573 39.696 46.9613 39.885C47.4023 40.137 47.7803 40.326 48.0323 40.515C48.2843 40.704 48.5363 40.956 48.6623 41.271C48.7253 41.649 48.7253 41.964 48.5993 42.279C48.4103 42.657 48.0953 42.846 47.6543 42.972C47.1503 43.161 46.4573 43.287 45.5123 43.35C44.6303 43.476 43.9373 43.791 43.4333 44.421C42.8033 45.051 42.1103 45.87 41.2283 46.815C40.7243 47.445 40.2833 48.201 39.9053 48.957C39.4013 49.839 38.9603 50.784 38.5823 51.855C38.2043 52.674 38.0153 53.493 37.9523 54.249C37.8263 55.131 37.7633 55.887 37.7633 56.58C37.7633 56.895 37.7633 57.21 37.8263 57.525C37.8263 57.903 37.8263 58.155 37.9523 58.407C38.0153 58.722 38.1413 58.911 38.3933 59.037C38.5193 59.163 38.8343 59.226 39.2123 59.1C39.3383 59.1 39.4643 58.974 39.6533 58.848C39.7793 58.722 39.9053 58.596 40.0313 58.47C40.1573 58.407 40.2833 58.407 40.4093 58.407C40.5353 58.47 40.5983 58.596 40.7243 58.848C40.8503 59.1 40.9763 59.289 41.1023 59.289C41.2283 59.352 41.3543 59.352 41.4803 59.226C41.5433 59.163 41.6063 59.037 41.6693 58.848C41.6693 58.722 41.7323 58.533 41.7323 58.407C41.7323 58.218 41.6693 58.029 41.6693 57.84C41.6063 57.714 41.9213 57.588 42.6773 57.399C43.3703 57.21 43.8113 57.084 43.9373 57.021C44.0003 57.021 44.0633 56.958 44.1893 56.895C44.1893 56.895 44.1893 56.958 44.1893 57.084C44.1263 57.273 44.1263 57.399 44.1263 57.525C44.0633 57.714 44.0633 57.84 44.1263 57.84C44.1263 57.966 44.2523 57.903 44.5043 57.714C44.7563 57.588 44.8823 57.399 45.0083 57.273C45.0083 57.147 45.0713 57.084 45.1343 56.958C45.1343 56.895 45.1343 56.832 45.1973 56.706C45.1973 56.706 45.3233 56.643 45.5123 56.517L46.0163 56.328C46.0793 56.076 46.1423 55.824 46.2683 55.572C46.2683 55.383 46.3313 55.257 46.4573 55.131C46.5833 55.005 46.7723 54.753 47.0873 54.501C47.3393 54.312 47.6543 54.123 48.0323 53.934C48.3473 53.808 48.7253 53.745 49.1033 53.619C49.4183 53.619 49.7333 53.619 49.9853 53.745C50.6153 54.123 51.1823 54.816 51.6233 55.698C51.6233 55.068 51.6233 54.375 51.6233 53.682C51.6233 53.052 51.6233 52.485 51.6863 51.855C51.6863 51.351 51.6863 50.973 51.6863 50.595C51.6863 50.343 51.6863 50.154 51.7493 50.091C51.8753 49.965 52.0643 49.839 52.1903 49.839C52.2533 49.839 52.3163 49.713 52.4423 49.398C52.4423 49.272 52.4423 49.083 52.4423 48.957C52.3163 48.831 52.2533 48.705 52.1903 48.516C52.0643 48.39 52.0013 48.201 51.9383 47.949C51.8123 47.76 51.8123 47.508 51.8753 47.13C51.9383 46.689 52.0013 46.248 52.0013 45.744C52.0013 45.303 52.0013 44.799 52.0013 44.169C52.0013 42.972 52.0013 42.027 52.0643 41.271C52.0643 40.641 52.0013 40.011 52.0013 39.381C51.8753 38.94 51.8753 38.436 51.8753 37.869C51.8123 37.365 51.5603 36.924 51.1193 36.483C50.6783 36.105 50.3003 35.853 49.9223 35.664C49.5443 35.538 49.1663 35.349 48.8513 35.097C48.6623 34.971 48.5363 34.845 48.5363 34.593C48.4733 34.404 48.4733 34.215 48.5993 33.963C48.5993 33.837 48.7253 33.648 48.9773 33.522C49.1663 33.459 49.4813 33.459 49.8593 33.585C50.0483 33.711 50.4263 33.837 50.9933 33.963C51.4973 34.152 52.0013 34.341 52.6313 34.467C53.1983 34.719 53.7653 34.908 54.3953 35.034C54.9623 35.286 55.4663 35.412 55.8443 35.475C56.3483 35.601 56.7263 35.79 57.0413 35.916C57.2933 36.168 57.3563 36.546 57.2303 37.176C56.9783 37.869 56.7893 38.562 56.6633 39.318C56.4113 40.137 56.3483 40.956 56.3483 41.838C56.2853 42.468 56.2853 43.161 56.2853 44.043C56.2853 44.925 56.2223 45.744 56.2223 46.5C56.2223 47.004 56.1593 47.508 56.1593 48.075C56.0963 48.705 56.0333 49.461 56.0333 50.28C56.1593 51.414 56.8523 50.973 58.1123 49.02C58.6793 48.201 59.2463 47.382 59.8133 46.626C60.3173 45.933 60.8213 45.303 61.3883 44.673C61.3883 44.61 61.3883 44.547 61.4513 44.421C61.4513 44.421 61.4513 44.358 61.4513 44.295C61.5773 44.169 61.7663 44.043 61.8923 44.043C62.0183 44.043 62.0813 43.917 62.2073 43.602C62.2073 43.476 62.1443 43.287 62.0813 43.161C61.9553 43.035 61.8923 42.909 61.8293 42.72C61.7033 42.594 61.6403 42.405 61.5773 42.153C61.4513 41.964 61.4513 41.712 61.5143 41.334C61.5143 41.145 61.5773 40.956 61.5773 40.83C61.5773 40.704 61.5773 40.578 61.5773 40.452V35.916C61.5143 35.475 61.5143 34.971 61.5143 34.404C61.4513 33.9 61.1993 33.459 60.8213 33.018C60.3173 32.64 59.9393 32.388 59.5613 32.199C59.1833 32.073 58.8053 31.884 58.4903 31.632C58.3013 31.506 58.1753 31.38 58.1753 31.128C58.0493 30.939 58.0493 30.75 58.1753 30.498C58.2383 30.372 58.4273 30.183 58.6793 30.057C58.8683 29.994 59.1833 29.994 59.5613 30.12C59.6873 30.246 60.0653 30.372 60.6323 30.498C61.1363 30.687 61.7033 30.876 62.3333 31.002C62.9003 31.254 63.5303 31.443 64.1603 31.569C64.7273 31.821 65.2313 31.947 65.6093 32.01C66.1133 32.136 66.4913 32.325 66.8063 32.451C67.0583 32.703 67.1843 33.081 67.0583 33.711C66.8063 34.404 66.6173 35.097 66.4283 35.853C66.1763 36.672 66.0503 37.491 66.0503 38.373C66.0503 39.003 66.0503 39.759 66.0503 40.704C65.9873 41.712 65.9873 42.594 65.9873 43.35C65.9873 43.854 65.9873 44.421 65.9873 45.114C65.9243 45.87 65.9243 46.626 65.9243 47.319C65.8613 48.075 65.8613 48.705 65.8613 49.272C65.8613 49.902 65.8613 50.28 65.8613 50.406C65.8613 52.17 65.8613 53.619 65.8613 54.69C65.7983 55.824 65.6723 56.832 65.5463 57.84C65.4833 58.344 65.3573 58.848 65.2313 59.415C65.0423 60.045 64.8533 60.675 64.6643 61.179C64.4123 61.809 64.1603 62.313 63.9083 62.754C63.6563 63.258 63.4043 63.636 63.2153 63.825C62.9633 64.077 62.6483 64.266 62.3963 64.392C62.0813 64.644 61.8293 64.77 61.6403 64.77C61.3883 64.896 61.1993 64.833 61.1363 64.707C61.0103 64.581 61.0103 64.329 61.1363 63.825C61.2623 63.447 61.3253 62.88 61.3883 62.124C61.3883 61.368 61.4513 60.549 61.5143 59.541C61.5143 58.659 61.5143 57.651 61.5143 56.643C61.4513 55.635 61.4513 54.69 61.4513 53.808C61.3883 53.115 61.3883 52.359 61.3883 51.603C61.3883 50.847 61.3883 50.091 61.3883 49.209L60.0023 51.54C59.6243 52.044 59.3093 52.674 58.9943 53.367C58.6163 54.123 58.2383 54.879 57.9233 55.635C57.5453 56.454 57.2303 57.21 56.9783 57.966C56.7263 58.785 56.5373 59.478 56.4113 60.045C56.2853 60.423 56.2853 60.801 56.4113 61.053C56.4113 61.368 56.4113 61.62 56.4113 61.746C56.3483 61.998 56.2223 62.124 56.0963 62.187C55.8443 62.313 55.4663 62.313 54.9623 62.25C54.3323 62.25 53.8283 62.187 53.4503 62.124C53.0093 62.124 52.6943 61.998 52.4423 61.746C52.1273 61.62 51.9383 61.305 51.8123 60.927C51.6863 60.612 51.6233 60.108 51.6863 59.415V58.722C51.5603 58.848 51.4973 58.911 51.3713 58.974C51.1823 59.1 50.9933 59.289 50.8673 59.415C50.4893 59.793 50.1113 60.108 49.7963 60.423C49.4183 60.801 49.1663 61.053 48.9773 61.305C48.7253 61.62 48.5363 61.809 48.4103 61.809C48.2213 61.872 47.9693 61.935 47.5913 61.935C47.1503 61.998 46.8353 62.061 46.7093 62.061C46.4573 62.124 46.2683 62.313 46.1423 62.565C45.8903 62.943 45.6383 63.069 45.3233 63.069C44.9453 63.132 44.7563 62.943 44.7563 62.439L45.2603 59.667C44.7563 60.045 44.1893 60.423 43.6223 60.675C42.4883 61.242 41.6063 61.809 40.8503 62.376C40.0943 63.006 39.0863 63.447 37.9523 63.825C37.3853 64.014 36.9443 64.077 36.6293 64.077C36.2513 64.077 35.9363 64.14 35.7473 64.14C35.0543 64.266 34.5503 63.951 34.2353 63.258C33.8573 62.628 33.6053 61.746 33.4793 60.612C32.8493 60.99 32.1563 61.305 31.4633 61.557C30.7073 61.872 29.9513 62.124 29.2583 62.313C28.5023 62.565 27.8093 62.754 27.1793 62.817C26.4863 62.943 25.8563 63.006 25.3523 62.88C24.4703 62.817 23.9663 62.25 23.7143 61.242C23.4623 60.297 23.3363 59.163 23.4623 57.84C23.4623 57.021 23.6513 56.202 23.9033 55.32C24.1553 54.564 24.5333 53.619 25.0373 52.485C25.1633 52.107 25.4783 51.603 25.8563 51.036C26.2343 50.532 26.6123 49.965 27.0533 49.335C27.4313 48.831 27.8093 48.327 28.2503 47.823C28.6283 47.382 29.0063 47.067 29.3843 46.815C30.1403 46.185 30.0773 45.87 29.1953 45.87C28.6913 45.87 28.1243 45.933 27.4313 45.996C26.6753 46.122 26.1083 46.059 25.6673 45.87C25.0373 45.681 24.6593 45.303 24.4073 44.736C24.0923 44.232 23.9663 43.665 24.0923 43.035C24.0923 42.783 24.1553 42.405 24.2813 42.027C24.3443 41.649 24.4703 41.334 24.6593 41.019C24.7853 40.767 24.9113 40.578 25.1003 40.452C25.2263 40.326 25.2893 40.389 25.3523 40.515C25.4783 40.893 25.7933 41.208 26.2973 41.586C26.7383 42.027 27.1793 42.279 27.6833 42.405C27.9353 42.531 28.5023 42.594 29.3843 42.657C30.2663 42.783 31.0223 42.846 31.7783 42.783C32.0303 42.783 32.3453 42.783 32.6603 42.783C32.9123 42.846 33.1013 42.972 33.2273 43.224L34.1093 45.555C34.1723 45.807 34.1093 45.996 33.9203 46.122C33.6683 46.374 33.4163 46.563 33.1013 46.689C32.5343 47.004 31.9673 47.445 31.3373 48.075C30.6443 48.768 30.0143 49.713 29.4473 50.91C29.0693 51.666 28.8173 52.422 28.5653 53.052C28.2503 53.808 28.0613 54.564 27.9983 55.32C27.8723 56.013 27.9353 56.643 28.0613 57.21C28.1873 57.84 28.6283 58.218 29.4473 58.281C30.0143 58.281 30.6443 58.218 31.3373 57.966C31.9673 57.84 32.7233 57.588 33.4793 57.273C33.5423 56.706 33.6683 56.076 33.7943 55.446C33.9203 54.816 34.0463 54.186 34.2983 53.43C34.4243 52.737 34.7393 51.981 35.1173 51.162C35.4953 50.406 35.8733 49.713 36.3773 48.957C36.7553 48.327 37.1963 47.697 37.7003 47.067C38.0783 46.563 38.4563 46.059 38.7713 45.681ZM48.6623 84.552C49.0403 84.426 49.6073 84.3 50.3003 84.111C50.9303 83.859 51.6863 83.67 52.4423 83.544C53.1983 83.292 53.9543 83.103 54.7103 82.977C55.4033 82.788 56.0333 82.662 56.6633 82.662C56.8523 82.599 57.1673 82.599 57.5453 82.599C57.9233 82.599 58.3013 82.599 58.8053 82.599C58.8053 82.095 58.8053 81.402 58.9313 80.646C58.9313 79.827 58.9943 79.008 59.0573 78.252C59.0573 77.496 59.1203 76.74 59.1833 76.047C59.1833 75.417 59.1203 74.913 59.1203 74.535C58.9943 73.905 58.9313 73.464 58.8053 73.275C58.6793 73.149 58.3643 72.96 57.8603 72.645C57.6083 72.519 57.3563 72.519 57.1043 72.519C56.7893 72.582 56.4743 72.645 56.2223 72.771C55.8443 72.897 55.5293 73.086 55.2773 73.212C54.9623 73.401 54.7103 73.527 54.4583 73.653C54.2063 73.779 53.8913 73.968 53.5133 74.094C53.0723 74.283 52.6313 74.409 52.1903 74.472C51.6863 74.598 51.2453 74.661 50.8043 74.598C50.3003 74.598 49.9223 74.472 49.5443 74.157C49.1663 73.905 48.7253 73.59 48.2843 73.212C47.7803 72.96 47.3393 72.645 46.9613 72.33C46.4573 72.078 46.0793 71.826 45.7643 71.574C45.3863 71.322 45.0713 71.133 44.9453 71.007C44.5673 70.692 44.4413 70.44 44.5673 70.188C44.6303 69.999 44.8823 69.936 45.3233 69.936C45.7013 69.999 46.1423 69.999 46.7093 69.936C47.2133 69.936 48.0323 69.936 49.1663 69.81C49.7963 69.81 50.4893 69.684 51.2453 69.558C52.0013 69.495 52.7573 69.369 53.5133 69.243C54.2693 69.117 54.9623 68.991 55.6553 68.802C56.2853 68.676 56.7893 68.487 57.1673 68.361C57.3563 68.298 57.6083 68.172 57.8603 67.983C58.0493 67.857 58.3013 67.668 58.5533 67.542C58.8053 67.416 59.0573 67.353 59.4353 67.227C59.6873 67.227 60.0653 67.227 60.5063 67.29C61.2623 67.542 62.1443 67.92 63.0893 68.361C63.9713 68.865 64.6643 69.243 65.2943 69.558C65.8613 69.936 66.1763 70.314 66.1763 70.692C66.1763 71.196 65.9873 71.637 65.6723 72.015C65.2943 72.519 65.1053 72.834 64.9793 73.086C64.7903 73.401 64.4753 73.59 64.0973 73.653C63.6563 73.779 63.3413 74.031 63.1523 74.472C62.9003 74.976 62.7743 75.417 62.7113 75.732C62.5853 75.984 62.4593 76.425 62.3333 76.929C62.2073 77.559 62.0183 78.126 61.8923 78.819C61.7033 79.449 61.5773 80.142 61.4513 80.835C61.3253 81.465 61.1993 82.095 61.0733 82.599C61.4513 82.599 61.8293 82.662 62.2073 82.725C62.5223 82.725 62.7743 82.725 63.0263 82.851C63.5933 82.914 63.9083 83.166 64.0343 83.544C64.0343 83.859 64.0343 84.237 63.9713 84.678C63.8453 85.245 63.6563 85.749 63.4673 86.253C63.2153 86.694 62.5853 86.883 61.5773 86.82C61.0103 86.757 60.0653 86.694 58.7423 86.631C57.3563 86.505 55.9703 86.379 54.5843 86.316C53.1353 86.19 51.8753 86.127 50.7413 86.064C49.5443 85.938 48.8513 85.938 48.7253 85.938C48.5363 85.938 48.3473 85.875 48.0953 85.812C47.8433 85.686 47.6543 85.623 47.5913 85.497C47.4653 85.308 47.4653 85.119 47.5913 84.993C47.7173 84.804 48.0323 84.678 48.6623 84.552ZM46.4573 79.449C46.5833 80.079 46.5833 80.772 46.5833 81.654C46.5203 82.41 46.4573 83.229 46.3313 84.048C46.2053 84.804 46.0163 85.497 45.8903 86.19C45.7013 86.82 45.5123 87.324 45.3863 87.702C45.2603 87.891 45.0713 88.08 44.8823 88.332C44.6303 88.458 44.3783 88.584 44.1263 88.647C43.8743 88.647 43.6223 88.521 43.4333 88.332C43.1813 88.08 43.0553 87.765 42.9923 87.261C42.8663 86.82 42.8033 86.316 42.6773 85.749C42.5513 85.119 42.4253 84.489 42.2993 83.859C42.1733 83.166 42.0473 82.536 41.9843 81.906C41.8583 81.276 41.7323 80.709 41.7323 80.268C41.5433 79.26 41.4173 78.315 41.2913 77.433C41.1653 76.551 41.1023 75.543 41.1023 74.535C41.0393 73.275 41.1653 72.078 41.4803 70.944C41.7323 69.873 42.4883 68.865 43.7483 67.857C44.4413 67.353 45.0083 66.975 45.4493 66.723C45.8273 66.534 46.1423 66.471 46.3943 66.471C46.5203 66.534 46.5833 66.66 46.5833 66.849C46.4573 67.101 46.2683 67.353 46.0163 67.605C45.5123 68.109 45.1343 68.487 44.8823 68.802C44.5043 69.18 44.2523 69.621 44.1263 70.188C44.0003 70.818 44.0633 71.385 44.3153 72.015C44.5043 72.708 44.6933 73.275 44.8823 73.779C45.0083 74.031 45.1343 74.409 45.3233 74.913C45.4493 75.48 45.5753 76.047 45.7643 76.614C45.8903 77.244 46.0793 77.874 46.2053 78.378C46.3313 78.882 46.3943 79.197 46.4573 79.449Z" fill="white"/>
<rect x="90.5" y="30.5" width="90" height="120" fill="#F6C500"/>
<rect x="90.5" y="30.5" width="90" height="120" stroke="black"/>
<path d="M154.012 73.287C154.012 73.665 153.949 74.106 153.949 74.673C153.886 75.303 153.886 75.996 153.886 76.626C153.823 77.319 153.823 77.949 153.823 78.516C153.76 79.146 153.76 79.65 153.76 79.965C153.76 80.658 153.76 81.225 153.823 81.729C153.823 82.296 153.823 82.8 153.823 83.304C153.823 83.871 153.823 84.438 153.886 85.005C153.886 85.635 153.886 86.391 153.886 87.21C153.886 87.84 153.886 88.533 153.949 89.289C153.949 90.108 153.949 90.864 153.949 91.62C153.949 92.439 153.949 93.195 153.949 93.888C153.886 94.644 153.886 95.337 153.886 95.841C153.76 98.109 153.76 99.936 153.76 101.448C153.697 103.023 153.697 104.094 153.697 104.661C153.697 105.669 153.571 106.74 153.445 107.937C153.193 109.134 153.004 110.331 152.752 111.465C152.437 112.599 152.122 113.607 151.87 114.552C151.492 115.434 151.24 116.127 150.988 116.505C150.736 116.883 150.421 117.324 150.169 117.765C149.791 118.143 149.539 118.395 149.287 118.584C148.972 118.71 148.783 118.647 148.657 118.395C148.531 118.08 148.531 117.45 148.72 116.505C148.846 115.56 148.972 114.111 149.098 112.158C149.098 110.142 149.161 108 149.224 105.669C149.224 103.401 149.224 101.133 149.224 98.865C149.161 96.66 149.161 94.833 149.161 93.447C149.224 92.376 149.224 91.242 149.161 90.108C149.035 88.974 149.035 87.651 149.035 86.013C148.972 85.005 148.972 83.934 148.972 82.8C148.909 81.729 148.909 80.721 148.909 79.839C148.909 79.02 148.909 78.327 148.909 77.76C148.909 77.256 148.909 76.941 148.972 76.878C149.098 76.752 149.287 76.626 149.476 76.626C149.602 76.626 149.665 76.5 149.791 76.185C149.791 76.059 149.791 75.87 149.728 75.744C149.602 75.618 149.539 75.492 149.476 75.303C149.35 75.177 149.224 74.988 149.161 74.736C149.035 74.547 149.035 74.295 149.098 73.917C149.161 73.476 149.224 72.972 149.224 72.342C149.161 71.838 149.161 71.271 149.161 70.641C149.098 69.381 149.098 68.436 149.224 67.743C149.224 67.113 149.224 66.546 149.161 65.916C149.098 65.475 149.098 64.971 149.098 64.404C149.035 63.9 148.783 63.459 148.279 63.018C147.775 62.64 147.334 62.388 146.893 62.199C146.389 62.073 146.011 61.884 145.633 61.632C145.381 61.506 145.255 61.38 145.255 61.128C145.192 60.939 145.255 60.75 145.381 60.498C145.444 60.372 145.633 60.183 145.885 60.057C146.137 59.994 146.452 59.994 146.893 60.12C147.082 60.246 147.46 60.309 148.09 60.435C148.594 60.624 149.224 60.813 149.98 60.939C150.61 61.191 151.303 61.38 151.996 61.506C152.626 61.695 153.13 61.821 153.571 61.884C154.138 62.073 154.579 62.262 154.957 62.388C155.272 62.64 155.335 63.018 155.146 63.648C154.894 64.341 154.705 65.034 154.516 65.79C154.264 66.609 154.138 67.428 154.138 68.31C154.138 68.877 154.075 69.633 154.075 70.641C154.012 71.649 154.012 72.531 154.012 73.287ZM128.686 84.375L127.363 86.958C128.245 87.462 129.127 87.966 130.135 88.47C131.08 89.1 132.025 89.667 132.907 90.171C133.789 90.801 134.545 91.305 135.238 91.746C135.868 92.25 136.372 92.628 136.75 92.88L140.53 96.345C140.719 96.597 140.908 96.849 141.034 97.164C141.16 97.542 141.16 98.109 141.034 98.865C140.908 99.243 140.845 99.558 140.845 99.747C140.782 99.999 140.782 100.125 140.782 100.251C140.782 100.44 140.782 100.629 140.845 100.755C140.845 100.944 140.845 101.133 140.845 101.385C140.845 102.015 140.593 102.33 140.215 102.456C139.711 102.645 139.207 102.519 138.64 102.015C138.262 101.763 137.695 101.07 136.939 99.999C136.057 98.991 135.112 97.794 134.041 96.471C132.907 95.211 131.773 93.951 130.576 92.628C129.316 91.368 128.119 90.297 126.985 89.415C126.796 89.352 126.544 89.163 126.229 88.911C125.347 90.297 124.465 91.494 123.583 92.628C122.575 93.825 121.63 94.833 120.685 95.715C119.929 96.408 119.11 96.975 118.354 97.353C117.472 97.857 116.653 98.172 115.834 98.424C114.952 98.676 114.133 98.865 113.377 98.865C112.558 98.991 111.865 98.991 111.235 98.865C110.227 98.739 109.786 98.55 109.849 98.235C109.849 97.983 110.101 97.857 110.605 97.731C111.235 97.668 111.802 97.605 112.432 97.479C112.936 97.416 113.503 97.29 114.07 97.038C114.574 96.849 115.141 96.534 115.771 96.093C116.275 95.715 116.905 95.211 117.535 94.455C118.354 93.573 119.236 92.376 120.181 90.99C121.063 89.604 121.882 88.218 122.701 86.706C121.882 86.265 121.189 85.824 120.559 85.446C119.929 85.131 119.425 84.879 119.11 84.69C118.354 84.375 118.039 84.06 118.228 83.808C118.354 83.619 118.858 83.619 119.74 83.745C120.307 83.934 120.937 84.123 121.63 84.375C122.26 84.69 122.89 84.942 123.457 85.194C123.646 84.753 123.835 84.312 124.087 83.808C124.213 83.367 124.402 82.926 124.591 82.485C124.717 82.233 124.843 81.792 125.095 81.288C125.221 80.847 125.41 80.343 125.662 79.776C125.788 79.272 125.977 78.831 126.166 78.327C126.292 77.949 126.418 77.634 126.481 77.382C126.67 76.689 126.607 75.996 126.355 75.24C125.977 74.61 125.662 73.98 125.347 73.476C125.221 73.35 125.095 73.098 124.969 72.783C124.78 72.531 124.654 72.216 124.591 71.964C124.339 71.586 124.465 71.271 124.843 71.019C125.158 70.767 125.536 70.893 125.977 71.271C126.229 71.649 126.481 71.964 126.859 72.279C127.111 72.657 127.615 73.035 128.371 73.476C128.749 73.854 129.316 74.169 130.072 74.421C130.765 74.799 131.332 75.114 131.836 75.366C132.214 75.618 132.529 75.933 132.781 76.248C132.907 76.626 132.655 77.319 132.025 78.201C131.647 78.642 131.332 79.146 130.954 79.776C130.576 80.469 130.198 81.099 129.946 81.729C129.568 82.422 129.316 82.989 129.127 83.43C128.875 83.934 128.686 84.249 128.686 84.375Z" fill="white"/>
</svg>
