<svg width="361" height="181" viewBox="0 0 361 181" fill="none" xmlns="http://www.w3.org/2000/svg">
<rect x="0.5" y="30.5" width="90" height="120" fill="#F6C500"/>
<rect x="0.5" y="30.5" width="90" height="120" stroke="black"/>
<path d="M20.4149 107.559C20.7929 107.622 21.3599 107.622 21.9899 107.496C22.5569 107.433 23.1239 107.307 23.7539 107.181C24.0059 107.118 24.3839 106.992 24.9509 106.866C25.4549 106.74 26.0219 106.614 26.6519 106.488C27.2189 106.362 27.8489 106.299 28.4789 106.173C29.1089 106.11 29.6129 106.047 30.1169 106.047C30.6209 106.11 31.1879 106.173 31.8179 106.236C32.4479 106.362 33.0149 106.425 33.6449 106.425C34.0229 106.425 34.9049 106.362 36.2909 106.11C37.6139 105.921 39.0629 105.732 40.6379 105.48C40.8899 105.354 41.0159 105.102 41.1419 104.724C41.2049 103.275 41.2679 101.889 41.3309 100.629C41.3309 99.369 41.3939 98.424 41.3939 97.668C41.3939 96.471 41.3939 95.4 41.3939 94.518C41.3309 93.699 41.2049 93.006 40.9529 92.376C40.7009 91.998 40.5119 91.62 40.2599 91.242C40.0079 90.927 39.6299 90.612 39.1889 90.234C38.9369 90.108 38.7479 89.919 38.6219 89.667C38.4329 89.478 38.3699 89.289 38.4329 89.1C38.4329 88.974 38.4959 88.848 38.7479 88.722C38.9369 88.659 39.3149 88.659 39.8189 88.785C40.0079 88.848 40.3859 88.911 40.8899 89.037C41.3309 89.163 41.8349 89.352 42.4019 89.478C42.9059 89.73 43.4729 89.919 44.0399 90.171C44.5439 90.423 44.9219 90.738 45.1739 90.99C45.6779 91.494 45.9299 92.061 45.9929 92.628C45.9929 93.258 45.9299 94.077 45.8669 95.022C45.8039 95.274 45.7409 95.715 45.7409 96.345C45.6149 96.975 45.5519 97.731 45.5519 98.55C45.4259 99.432 45.3629 100.314 45.3629 101.322C45.2369 102.33 45.1739 103.338 45.1739 104.346C45.1739 104.724 45.2369 104.976 45.4259 105.102L56.4509 104.535C57.5849 104.535 58.7189 104.346 59.8529 103.968C60.8609 103.716 61.6799 103.464 62.3099 103.212C62.8139 103.086 63.3809 103.086 64.0109 103.086C64.5779 103.149 65.2079 103.212 65.8379 103.338C66.4049 103.464 66.9719 103.653 67.5389 103.779C68.0429 103.968 68.4209 104.094 68.7359 104.22C69.2399 104.535 69.6809 104.787 70.0589 104.976C70.4369 105.228 70.8149 105.606 71.3189 106.047C71.7599 106.488 71.9489 106.929 71.8229 107.37C71.6969 107.874 71.3189 108.063 70.6889 108.126C70.3109 108.126 69.8069 108.126 69.1139 108.126C68.3579 108.063 67.6649 108.063 66.9089 108.063C66.0899 108 65.3339 108 64.7039 108.063C63.9479 108.063 63.5069 108.063 63.2549 108.126C62.9399 108.126 62.5619 108.126 62.1839 108.126C61.6799 108 61.2389 107.937 60.8609 107.811C60.3569 107.748 59.9789 107.622 59.6009 107.496C59.2229 107.433 58.9079 107.37 58.6559 107.307C58.4039 107.307 57.7739 107.244 56.8289 107.181C55.8209 107.181 54.6239 107.181 53.3639 107.181C52.0409 107.181 50.7179 107.181 49.4579 107.181C48.0719 107.244 47.0009 107.307 46.1189 107.37C44.0399 107.559 42.0239 107.811 40.0079 108.063C37.9919 108.315 36.0389 108.693 34.1489 109.197C32.8259 109.449 31.9439 109.638 31.4399 109.827C30.8729 109.953 30.4319 110.205 30.1169 110.583C29.8019 110.898 29.4869 111.087 29.2349 111.213C28.8569 111.213 28.3529 111.15 27.6599 110.961C27.2819 110.835 26.7779 110.772 26.0219 110.646C25.2659 110.52 24.4469 110.394 23.6279 110.268C22.7459 110.079 21.9899 109.953 21.3599 109.827C20.6039 109.638 20.1629 109.512 19.9739 109.449C19.7219 109.386 19.5329 109.26 19.4069 109.071C19.2179 108.819 19.1549 108.567 19.1549 108.378C19.1549 108.126 19.2179 107.937 19.4699 107.748C19.5959 107.622 19.9109 107.559 20.4149 107.559ZM36.3539 73.539C37.2359 73.413 38.3699 73.224 39.6929 72.972C40.9529 72.783 42.2759 72.531 43.6619 72.216C44.9849 71.964 46.3079 71.712 47.6939 71.334C48.9539 71.082 50.1509 70.767 51.1589 70.515C51.7889 70.326 52.4189 70.326 52.9859 70.452C53.4899 70.641 54.1199 70.83 54.8759 71.019C55.5689 71.271 56.3249 71.523 57.0809 71.775C57.7739 72.09 58.3409 72.342 58.8449 72.594C59.2859 72.846 59.6009 73.224 59.7899 73.854C59.9159 74.484 59.8529 75.366 59.6639 76.5C59.6009 76.878 59.5379 77.571 59.4749 78.453C59.3489 79.461 59.2229 80.532 59.0969 81.666C58.9079 82.926 58.7189 84.186 58.5929 85.509C58.4039 86.895 58.2779 88.155 58.1519 89.352C57.9629 90.612 57.8369 91.746 57.7109 92.691C57.5849 93.699 57.4589 94.392 57.4589 94.77C57.3329 95.463 57.2699 95.904 57.2699 96.156C57.2069 96.471 57.1439 96.66 57.1439 96.786C57.0179 96.912 56.9549 97.038 56.8919 97.164C56.7659 97.29 56.6399 97.542 56.5139 97.92C56.2619 98.676 55.8839 99.117 55.5059 99.243C55.0019 99.495 54.6239 99.369 54.3089 98.865C54.0569 98.424 53.6789 97.92 53.1749 97.416C52.6079 96.975 52.0409 96.534 51.4739 96.03C50.7809 95.652 50.5289 95.337 50.7809 94.959C50.9069 94.707 51.3479 94.581 52.1039 94.644C52.7969 94.707 53.3009 94.581 53.6159 94.266C53.8679 94.014 53.9939 93.636 53.9939 93.195C53.9939 93.069 53.9939 92.628 54.0569 91.809C54.0569 91.053 54.0569 90.171 54.1199 89.037C54.1199 88.029 54.1199 86.832 54.1829 85.572C54.1829 84.375 54.2459 83.178 54.3089 82.044C54.3089 80.973 54.3719 80.028 54.4349 79.146C54.4349 78.39 54.4979 77.823 54.5609 77.571C54.6239 76.626 54.4979 75.87 54.1199 75.366C53.6789 74.862 53.1749 74.547 52.5449 74.421C51.9149 74.358 51.2849 74.295 50.5919 74.232C49.8359 74.232 49.2059 74.232 48.8279 74.232L44.8589 75.429C44.3549 75.618 43.7879 75.807 43.1579 75.996C42.4649 76.248 41.7719 76.5 41.1419 76.689C40.4489 76.941 39.8189 77.067 39.1889 77.193C38.5589 77.382 37.9919 77.445 37.5509 77.382C36.0389 77.319 34.7789 77.004 33.6449 76.374C32.4479 75.807 31.5659 75.303 30.9989 74.925C30.8099 74.799 30.6839 74.673 30.6209 74.421C30.4949 74.295 30.4949 74.106 30.5579 73.854C30.5579 73.728 30.6209 73.539 30.8729 73.413C30.9989 73.35 31.2509 73.35 31.6289 73.35C31.8809 73.413 32.1959 73.476 32.6369 73.476C33.0149 73.539 33.3929 73.539 33.8969 73.539C34.3379 73.539 34.7789 73.539 35.2829 73.539C35.6609 73.539 36.0389 73.539 36.3539 73.539Z" fill="white"/>
<rect x="90.5" y="0.5" width="90" height="120" fill="#F6C500"/>
<rect x="90.5" y="0.5" width="90" height="120" stroke="black"/>
<path d="M145.081 68.235C145.9 68.361 146.782 68.55 147.727 68.802C148.609 69.117 149.428 69.558 150.184 70.062C150.94 70.692 151.57 71.385 152.137 72.267C152.641 73.149 152.893 74.22 153.019 75.48C153.019 76.047 153.019 76.425 153.019 76.677C152.956 76.929 152.893 77.118 152.83 77.181C152.704 77.307 152.641 77.433 152.578 77.433C152.452 77.496 152.389 77.559 152.389 77.685C152.263 77.811 152.263 77.937 152.389 77.937C152.389 78 152.452 78.126 152.578 78.252C152.578 78.378 152.641 78.567 152.704 78.819C152.704 79.071 152.641 79.386 152.515 79.89C152.137 80.961 151.696 82.095 151.066 83.229C150.436 84.363 149.554 85.308 148.42 86.19C147.79 86.631 147.097 87.009 146.341 87.261C145.585 87.513 144.829 87.702 144.136 87.828C143.38 87.954 142.687 88.017 142.057 88.08C141.427 88.08 140.923 88.08 140.545 88.08C139.6 87.954 138.655 87.765 137.773 87.45C136.828 87.072 136.009 86.757 135.316 86.442C134.119 85.812 133.237 84.93 132.67 83.922C132.04 82.788 131.662 81.717 131.536 80.583C131.284 79.386 131.284 78.252 131.41 77.181C131.536 76.11 131.725 75.228 132.04 74.535C132.418 73.779 132.922 72.897 133.615 71.952C134.245 71.07 135.19 70.314 136.324 69.621C136.135 69.054 135.946 68.487 135.757 67.92C135.505 67.416 135.253 67.038 135.001 66.786C134.497 66.345 134.371 65.904 134.749 65.463C135.001 65.085 135.442 65.085 135.946 65.4C136.45 65.778 136.954 66.03 137.332 66.282C137.647 66.597 138.214 66.912 139.096 67.29C139.789 67.668 140.293 68.298 140.671 69.243C141.175 68.991 141.805 68.739 142.624 68.487C143.38 68.298 144.199 68.235 145.081 68.235ZM155.161 44.61C155.161 45.114 155.161 45.681 155.161 46.437C155.098 47.193 155.098 47.949 155.098 48.705C155.035 49.461 155.035 50.154 155.035 50.784C154.972 51.414 154.972 51.855 154.972 51.981C154.972 53.745 154.972 55.194 154.972 56.265C154.909 57.399 154.783 58.407 154.657 59.415C154.594 59.919 154.468 60.423 154.342 60.99C154.153 61.62 153.964 62.25 153.712 62.754C153.46 63.384 153.208 63.888 152.956 64.329C152.704 64.833 152.452 65.211 152.2 65.4C151.948 65.652 151.633 65.841 151.381 65.967C151.003 66.219 150.751 66.345 150.499 66.345C150.247 66.471 150.058 66.408 149.995 66.282C149.869 66.156 149.869 65.904 150.058 65.4C150.184 65.022 150.247 64.455 150.31 63.699C150.31 62.943 150.373 62.124 150.436 61.116C150.436 60.234 150.436 59.226 150.436 58.218C150.373 57.21 150.373 56.265 150.373 55.383C150.31 54.375 150.31 53.367 150.31 52.359C150.31 51.351 150.31 50.406 150.31 49.461C149.932 50.028 149.617 50.595 149.302 51.099C148.924 51.729 148.609 52.233 148.294 52.737C147.916 53.241 147.538 53.871 147.16 54.564C146.719 55.32 146.341 56.013 145.963 56.769C145.585 57.525 145.207 58.281 144.955 58.974C144.64 59.73 144.451 60.423 144.325 60.99C144.199 61.368 144.199 61.683 144.325 61.935C144.325 62.187 144.325 62.439 144.325 62.565C144.262 62.754 144.136 62.88 143.947 62.88C143.695 63.006 143.317 63.006 142.75 62.88C142.12 62.88 141.616 62.817 141.175 62.754C140.671 62.754 140.356 62.628 140.104 62.439C139.789 62.313 139.6 61.998 139.474 61.62C139.285 61.242 139.222 60.738 139.285 60.045V56.265C139.222 55.572 139.222 54.879 139.222 54.123C139.222 53.43 139.222 52.8 139.285 52.17C139.285 51.666 139.285 51.288 139.285 50.91C139.285 50.658 139.285 50.469 139.348 50.406C139.474 50.28 139.663 50.154 139.789 50.154C139.915 50.154 139.978 50.028 140.104 49.713C140.104 49.587 140.104 49.398 140.104 49.272C139.978 49.146 139.915 49.02 139.852 48.831C139.726 48.705 139.6 48.516 139.537 48.264C139.411 48.075 139.411 47.823 139.474 47.445C139.537 47.004 139.6 46.374 139.6 45.555C139.6 44.799 139.6 44.169 139.6 43.539V39.381C139.474 38.94 139.474 38.436 139.474 37.869C139.411 37.365 139.159 36.924 138.718 36.483C138.214 36.105 137.836 35.853 137.458 35.664C137.017 35.538 136.639 35.349 136.324 35.097C136.135 34.971 136.009 34.845 136.009 34.593C135.883 34.404 135.883 34.215 136.009 33.963C136.072 33.837 136.261 33.648 136.513 33.522C136.702 33.459 137.017 33.459 137.395 33.585C137.584 33.711 137.962 33.837 138.529 33.963C139.033 34.152 139.663 34.341 140.293 34.467C140.923 34.719 141.553 34.908 142.183 35.034C142.75 35.286 143.254 35.412 143.632 35.475C144.136 35.601 144.577 35.79 144.955 35.916C145.207 36.168 145.27 36.546 145.144 37.176C144.892 37.869 144.703 38.562 144.514 39.318C144.262 40.137 144.199 40.956 144.199 41.838C144.136 42.468 144.136 43.224 144.136 44.169C144.136 45.177 144.073 46.059 144.073 46.815C144.073 47.319 144.01 47.949 144.01 48.831C143.947 49.776 143.884 50.658 143.884 51.477C143.947 52.044 144.136 52.359 144.451 52.359C144.703 52.485 145.144 51.981 145.9 50.91C146.593 49.965 147.349 48.957 148.231 47.949C149.05 46.941 149.869 46.059 150.751 45.24C150.625 45.114 150.562 44.925 150.499 44.673C150.373 44.484 150.373 44.232 150.436 43.854C150.499 43.413 150.562 42.909 150.562 42.342C150.499 41.838 150.499 41.334 150.499 40.704C150.499 39.507 150.499 38.562 150.562 37.806C150.562 37.176 150.499 36.546 150.499 35.916C150.436 35.475 150.436 34.971 150.436 34.404C150.373 33.9 150.121 33.459 149.68 33.018C149.176 32.64 148.735 32.388 148.357 32.199C147.916 32.073 147.538 31.884 147.223 31.632C147.034 31.506 146.908 31.38 146.908 31.128C146.782 30.939 146.782 30.75 146.908 30.498C146.971 30.372 147.16 30.183 147.412 30.057C147.601 29.994 147.916 29.994 148.357 30.12C148.546 30.246 148.924 30.372 149.491 30.498C149.995 30.687 150.625 30.876 151.255 31.002C151.885 31.254 152.515 31.443 153.208 31.569C153.838 31.821 154.342 31.947 154.72 32.01C155.224 32.136 155.665 32.325 156.043 32.451C156.295 32.703 156.358 33.081 156.232 33.711C155.98 34.404 155.791 35.097 155.602 35.853C155.35 36.672 155.224 37.491 155.224 38.373V41.334C155.161 41.964 155.161 42.594 155.161 43.161C155.161 43.791 155.161 44.232 155.161 44.61ZM126.559 50.28C126.433 50.532 126.37 50.721 126.244 50.847C126.118 51.099 125.992 51.288 125.929 51.477C127.189 52.107 128.512 52.737 129.835 53.367C131.095 54.06 132.04 54.627 132.67 55.005C133.489 55.635 134.245 56.076 134.875 56.391C135.505 56.769 135.883 57.084 136.135 57.21C136.324 57.399 136.45 57.651 136.576 58.029C136.639 58.47 136.576 59.037 136.45 59.73C136.324 60.108 136.324 60.36 136.324 60.486C136.261 60.738 136.261 60.864 136.324 60.99C136.324 61.116 136.324 61.242 136.387 61.368C136.387 61.494 136.387 61.683 136.387 61.935C136.387 62.502 136.135 62.88 135.757 63.006C135.253 63.195 134.812 63.069 134.371 62.565C133.237 61.494 131.851 60.171 130.213 58.596C128.575 57.084 126.622 55.509 124.354 53.871C123.409 55.131 122.464 56.202 121.519 57.147C120.511 58.155 119.566 59.037 118.81 59.73C117.424 60.99 115.975 61.872 114.463 62.313C112.888 62.817 111.502 63.006 110.305 62.88C109.36 62.754 108.919 62.565 108.919 62.187C108.982 61.935 109.171 61.746 109.675 61.62C110.242 61.557 110.746 61.494 111.25 61.368C111.691 61.305 112.132 61.179 112.636 60.927C113.077 60.738 113.581 60.423 114.085 60.045C114.526 59.667 115.03 59.163 115.66 58.47C116.353 57.651 117.172 56.58 118.117 55.32C118.999 54.123 119.881 52.863 120.763 51.477C120.007 51.099 119.377 50.721 118.747 50.343C118.054 50.028 117.55 49.776 117.235 49.65C116.479 49.335 116.164 49.02 116.29 48.642C116.29 48.327 116.731 48.264 117.55 48.39C118.18 48.579 118.936 48.768 119.755 49.02C120.511 49.335 121.204 49.587 121.708 49.776L122.401 48.39C122.527 48.138 122.653 47.823 122.842 47.319C122.968 46.878 123.157 46.374 123.409 45.87C123.535 45.429 123.724 44.988 123.913 44.547C124.039 44.169 124.102 43.917 124.165 43.665C124.354 43.035 124.291 42.342 124.039 41.649C123.724 41.019 123.409 40.389 123.094 39.885C122.968 39.759 122.842 39.57 122.716 39.255C122.527 39.003 122.401 38.751 122.338 38.499C122.212 38.373 122.212 38.184 122.275 37.995C122.275 37.869 122.401 37.743 122.59 37.617C122.716 37.554 122.842 37.491 123.094 37.491C123.283 37.554 123.472 37.68 123.724 37.806C123.913 38.184 124.165 38.499 124.48 38.751C124.732 39.066 125.236 39.444 125.929 39.885C126.307 40.2 126.874 40.515 127.693 40.83C128.449 41.208 129.079 41.523 129.52 41.775C129.898 42.09 130.213 42.405 130.465 42.72C130.591 43.098 130.402 43.665 129.835 44.484C129.394 45.051 128.953 45.744 128.512 46.5C128.008 47.319 127.63 48.075 127.315 48.705L126.559 50.28ZM139.915 72.96C139.096 73.59 138.466 73.905 137.962 73.779C137.584 73.653 137.206 73.716 136.954 73.842C136.576 74.031 136.324 74.283 136.135 74.535C135.883 74.913 135.757 75.228 135.631 75.606C135.505 75.984 135.379 76.362 135.379 76.74C135.316 77.496 135.316 78.126 135.379 78.882C135.379 79.575 135.505 80.268 135.757 80.898C136.009 81.528 136.387 82.095 136.954 82.599C137.458 83.04 138.277 83.418 139.285 83.67C140.482 83.922 141.679 84.048 142.876 83.922C144.01 83.733 145.018 83.418 145.9 83.04C147.034 82.032 147.727 81.024 148.042 79.953C148.294 78.819 148.42 77.622 148.546 76.236C148.609 74.85 148.294 73.59 147.538 72.456C146.782 71.385 145.711 70.692 144.325 70.44C143.821 70.377 143.254 70.377 142.624 70.377C141.931 70.44 141.364 70.503 140.923 70.503C140.986 71.511 140.671 72.33 139.915 72.96Z" fill="white"/>
<rect x="180.5" y="30.5" width="90" height="120" fill="#F6C500"/>
<rect x="180.5" y="30.5" width="90" height="120" stroke="black"/>
<path d="M238.112 83.115C239.246 81.099 240.317 79.209 241.325 77.445L241.451 76.878C241.514 76.815 241.577 76.752 241.703 76.689C241.703 76.689 241.766 76.689 241.892 76.626C241.892 76.563 241.955 76.5 242.018 76.374C242.018 76.374 242.018 76.311 242.144 76.185C242.144 76.059 242.144 75.87 242.081 75.744C241.955 75.618 241.892 75.492 241.829 75.303C241.703 75.177 241.64 74.988 241.577 74.736C241.451 74.547 241.451 74.295 241.577 73.917C241.577 73.476 241.64 72.972 241.64 72.342C241.577 71.838 241.577 71.271 241.64 70.641C241.577 69.381 241.577 68.436 241.64 67.743C241.64 67.113 241.64 66.483 241.64 65.853C241.577 65.412 241.577 64.908 241.577 64.404C241.514 63.9 241.262 63.459 240.821 63.018C240.317 62.64 239.939 62.388 239.561 62.199C239.12 62.073 238.742 61.884 238.427 61.632C238.238 61.506 238.112 61.38 238.112 61.128C237.986 60.939 238.049 60.75 238.175 60.498C238.238 60.372 238.427 60.183 238.679 60.057C238.868 59.994 239.183 59.994 239.561 60.12C239.687 60.246 240.065 60.309 240.632 60.435C241.136 60.624 241.703 60.813 242.333 60.939C242.9 61.191 243.53 61.38 244.16 61.506C244.727 61.695 245.168 61.821 245.546 61.884C246.05 62.073 246.491 62.262 246.806 62.388C247.058 62.64 247.121 63.018 246.932 63.648C246.743 64.341 246.554 65.034 246.428 65.79C246.176 66.609 246.113 67.428 246.113 68.31C246.113 68.877 246.113 69.633 246.113 70.641C246.113 71.712 246.05 72.594 245.987 73.35C245.987 73.728 245.987 74.169 245.987 74.736C245.924 75.366 245.861 75.996 245.861 76.626C245.798 77.319 245.798 77.949 245.798 78.516C245.735 79.146 245.735 79.65 245.735 79.965C245.735 80.658 245.735 81.225 245.798 81.729C245.798 82.296 245.798 82.8 245.798 83.304C245.798 83.871 245.798 84.438 245.861 85.005C245.861 85.635 245.861 86.391 245.861 87.21V95.841C245.735 98.109 245.735 99.936 245.735 101.385C245.672 102.897 245.672 103.968 245.672 104.535C245.672 105.543 245.546 106.614 245.42 107.811C245.231 109.008 245.042 110.205 244.79 111.402C244.538 112.536 244.286 113.607 244.034 114.552C243.719 115.434 243.467 116.127 243.215 116.505C242.963 116.883 242.711 117.324 242.459 117.765C242.144 118.143 241.892 118.395 241.703 118.584C241.451 118.71 241.262 118.647 241.199 118.395C241.073 118.08 241.073 117.45 241.199 116.505C241.262 115.875 241.325 114.993 241.451 113.922C241.451 112.788 241.514 111.528 241.577 110.142C241.577 108.756 241.577 107.307 241.64 105.732C241.64 104.22 241.64 102.645 241.64 101.133C241.577 99.621 241.577 98.235 241.577 96.849C241.577 95.589 241.577 94.455 241.577 93.51C241.577 92.439 241.577 91.305 241.577 90.108C241.514 88.974 241.514 87.588 241.514 85.95C241.451 85.446 241.451 84.942 241.451 84.375C241.388 83.871 241.388 83.367 241.388 82.863L240.317 85.32C239.939 86.202 239.561 87.147 239.183 88.155C238.679 89.226 238.238 90.297 237.86 91.431C237.419 92.565 237.041 93.699 236.789 94.833C236.474 95.967 236.285 97.038 236.222 97.92C236.096 98.55 236.096 99.054 236.159 99.495C236.159 99.999 236.159 100.44 236.159 100.755C236.096 101.133 235.97 101.448 235.781 101.574C235.529 101.763 235.151 101.826 234.647 101.7C234.017 101.637 233.576 101.574 233.198 101.448C232.757 101.385 232.442 101.196 232.253 100.881C232.001 100.629 231.875 100.251 231.812 99.684C231.686 99.18 231.686 98.361 231.749 97.29C231.749 96.534 231.812 95.526 231.812 94.392C231.749 93.321 231.749 92.187 231.749 90.927C231.686 89.793 231.686 88.596 231.686 87.399C231.686 86.265 231.686 85.257 231.749 84.375C231.686 83.304 231.686 82.359 231.686 81.54C231.686 80.784 231.686 80.406 231.812 80.343C231.938 80.217 232.064 80.091 232.253 80.091C232.379 80.091 232.442 79.965 232.505 79.65C232.505 79.524 232.505 79.335 232.505 79.209C232.379 79.083 232.316 78.957 232.253 78.768C232.127 78.642 232.064 78.453 232.001 78.201C231.875 78.012 231.875 77.76 231.938 77.382C232.001 76.941 232.064 76.437 232.064 75.807C232.001 75.303 232.001 74.736 232.001 74.106C232.001 72.846 232.001 71.901 232.064 71.208C232.064 70.578 232.001 69.948 232.001 69.318C231.938 68.877 231.938 68.373 231.938 67.869C231.875 67.365 231.623 66.924 231.245 66.483C230.741 66.105 230.363 65.853 229.985 65.664C229.544 65.538 229.166 65.349 228.851 65.097C228.662 64.971 228.536 64.845 228.536 64.593C228.473 64.404 228.473 64.215 228.599 63.963C228.662 63.837 228.788 63.648 229.04 63.522C229.229 63.459 229.544 63.459 229.922 63.585C230.048 63.711 230.426 63.774 230.993 63.9C231.497 64.089 232.064 64.278 232.694 64.404C233.261 64.656 233.828 64.845 234.458 64.971C235.025 65.16 235.529 65.286 235.907 65.349C236.348 65.538 236.726 65.727 237.041 65.853C237.293 66.105 237.356 66.483 237.23 67.113C236.978 67.806 236.789 68.499 236.663 69.255C236.474 70.074 236.411 70.893 236.411 71.775C236.348 72.342 236.348 73.098 236.348 74.106C236.348 75.177 236.285 76.059 236.222 76.815C236.222 77.193 236.159 77.697 236.159 78.327C236.096 79.02 236.096 79.713 236.096 80.469C236.033 81.225 236.033 81.981 236.033 82.674C235.97 83.43 235.97 83.934 235.97 84.312C235.844 85.824 235.97 86.454 236.222 86.202C236.474 86.076 237.104 85.005 238.112 83.115ZM221.921 86.265C222.173 85.509 222.425 84.753 222.677 83.997C222.803 83.304 223.055 82.611 223.307 81.855C223.559 81.288 223.496 80.91 223.181 80.784C222.173 81.162 221.354 81.603 220.598 82.044C219.842 82.548 219.149 82.926 218.582 83.115C218.078 83.304 217.511 83.367 216.755 83.367C216.377 84.123 215.873 84.942 215.369 85.824C214.739 86.832 214.172 87.777 213.605 88.659C212.975 89.667 212.408 90.549 211.904 91.368C211.274 92.25 210.77 93.006 210.392 93.51C209.888 94.266 209.258 94.896 208.628 95.526C207.872 96.156 207.179 96.723 206.423 97.227C205.667 97.731 204.911 98.172 204.155 98.424C203.336 98.739 202.58 98.865 201.887 98.865C201.131 98.865 200.564 98.802 200.312 98.676C199.997 98.613 199.871 98.487 199.934 98.361C199.934 98.235 200.06 98.109 200.312 97.92C200.564 97.794 200.879 97.731 201.257 97.605C201.572 97.479 202.013 97.29 202.58 96.975C203.084 96.723 203.651 96.345 204.281 95.841C204.848 95.4 205.415 94.833 206.045 94.203C206.612 93.636 207.116 93.006 207.557 92.25C207.935 91.62 208.439 90.738 209.006 89.73C209.51 88.785 210.077 87.777 210.644 86.643C211.148 85.635 211.652 84.564 212.156 83.43C212.66 82.422 213.038 81.414 213.416 80.532L214.046 78.957C214.235 78.579 214.298 78.264 214.298 78.012C214.235 77.823 213.983 77.823 213.542 77.949C212.66 78.327 211.904 78.642 211.274 79.02C210.581 79.461 209.951 79.713 209.447 79.839C208.754 80.091 207.935 80.154 206.99 80.028C205.982 80.028 205.226 79.776 204.722 79.335C204.155 78.894 203.777 78.516 203.588 78.138C203.336 77.886 203.084 77.571 202.832 77.256C202.454 77.004 202.328 76.752 202.454 76.5C202.517 76.374 202.895 76.311 203.651 76.374C204.092 76.437 204.722 76.437 205.604 76.374C206.423 76.374 207.305 76.311 208.187 76.185C209.195 76.122 209.951 75.996 210.581 75.744C211.085 75.618 211.778 75.492 212.597 75.366C213.353 75.303 214.109 75.051 214.802 74.61C215.432 74.232 215.81 73.917 215.936 73.665C216.062 73.476 216.314 73.224 216.629 72.909C216.881 72.657 217.322 72.72 218.078 73.098C218.96 73.602 219.779 74.169 220.472 74.736C221.102 75.366 221.291 75.933 221.102 76.5C220.913 77.004 220.724 77.382 220.472 77.697C220.157 78.075 219.842 78.516 219.464 78.957C219.842 78.894 220.22 78.768 220.598 78.642C220.913 78.516 221.291 78.453 221.732 78.327C222.551 78.138 223.244 77.886 223.874 77.508C224.441 77.193 224.819 76.878 225.008 76.563C225.071 76.437 225.134 76.311 225.26 76.122C225.323 75.996 225.449 75.933 225.638 75.807C225.764 75.744 225.953 75.681 226.205 75.681C226.394 75.681 226.709 75.807 227.087 75.996C227.969 76.5 228.725 77.004 229.355 77.571C229.922 78.201 230.111 78.768 229.922 79.335C229.796 79.713 229.67 80.028 229.544 80.217C229.355 80.469 229.166 80.721 229.04 80.973C228.851 81.288 228.662 81.603 228.41 81.981C228.095 82.422 227.78 82.989 227.402 83.745L225.512 88.785C225.26 89.352 224.882 90.045 224.441 90.927C223.937 91.809 223.37 92.754 222.74 93.699C222.11 94.707 221.417 95.715 220.787 96.66C220.094 97.668 219.464 98.55 218.897 99.18C218.267 99.873 217.637 100.566 216.881 101.259C216.125 102.015 215.306 102.645 214.487 103.149C213.605 103.779 212.786 104.22 211.967 104.598C211.085 104.976 210.203 105.165 209.447 105.165C208.628 105.165 208.124 105.039 207.872 104.85C207.557 104.724 207.431 104.598 207.557 104.409C207.557 104.283 207.746 104.157 208.124 103.968C208.376 103.842 208.754 103.716 209.132 103.59C209.51 103.59 210.014 103.401 210.644 103.023C211.148 102.708 211.778 102.267 212.408 101.7C213.038 101.196 213.668 100.629 214.361 99.936C214.991 99.306 215.558 98.676 216.062 97.92C216.566 97.29 217.07 96.408 217.7 95.4C218.204 94.455 218.771 93.447 219.275 92.313C219.779 91.305 220.22 90.234 220.724 89.163C221.165 88.155 221.543 87.147 221.921 86.265Z" fill="white"/>
<rect x="270.5" y="60.5" width="90" height="120" fill="#F6C500"/>
<rect x="270.5" y="60.5" width="90" height="120" stroke="black"/>
<path d="M342.917 119.73C342.917 120.108 342.98 120.549 342.98 120.99C342.98 121.494 342.602 121.809 341.909 121.935C341.216 122.061 340.334 122.061 339.326 121.935C338.255 121.809 337.373 121.683 336.617 121.494C336.302 121.494 335.861 121.431 335.294 121.368C334.664 121.368 334.097 121.368 333.467 121.368C332.837 121.368 332.207 121.368 331.64 121.368C331.01 121.431 330.569 121.431 330.317 121.431H330.191C330.191 122.313 330.191 123.069 330.191 123.825C330.128 124.581 330.128 125.274 330.128 125.841C330.002 128.109 330.002 129.936 330.002 131.448C329.939 133.023 329.939 134.094 329.939 134.661C329.939 135.669 329.813 136.74 329.687 137.937C329.435 139.134 329.246 140.331 328.994 141.465C328.679 142.599 328.364 143.607 328.112 144.552C327.734 145.434 327.482 146.127 327.23 146.505C326.978 146.883 326.663 147.324 326.411 147.765C326.033 148.143 325.781 148.395 325.529 148.584C325.214 148.71 325.025 148.647 324.899 148.395C324.773 148.08 324.773 147.45 324.962 146.505C325.088 145.56 325.214 144.111 325.34 142.158C325.34 140.142 325.403 138 325.466 135.669C325.466 133.401 325.466 131.133 325.466 128.865C325.403 126.66 325.403 124.833 325.403 123.447C325.466 122.376 325.466 121.242 325.403 120.108C325.277 118.974 325.277 117.651 325.277 116.013C325.214 115.005 325.214 113.934 325.214 112.8C325.151 111.729 325.151 110.721 325.151 109.839C325.151 109.02 325.151 108.327 325.151 107.76C325.151 107.256 325.151 106.941 325.214 106.878C325.34 106.752 325.529 106.626 325.718 106.626C325.844 106.626 325.907 106.5 326.033 106.185C326.033 106.059 326.033 105.87 325.97 105.744C325.844 105.618 325.781 105.492 325.718 105.303C325.592 105.177 325.466 104.988 325.403 104.736C325.277 104.547 325.277 104.295 325.34 103.917C325.403 103.476 325.466 102.972 325.466 102.342C325.403 101.838 325.403 101.271 325.403 100.641C325.34 99.381 325.34 98.436 325.466 97.743C325.466 97.113 325.466 96.546 325.403 95.916C325.34 95.475 325.34 94.971 325.34 94.404C325.277 93.9 325.025 93.459 324.521 93.018C324.017 92.64 323.576 92.388 323.135 92.199C322.631 92.073 322.253 91.884 321.875 91.632C321.623 91.506 321.497 91.38 321.497 91.128C321.434 90.939 321.497 90.75 321.623 90.498C321.686 90.372 321.875 90.183 322.127 90.057C322.379 89.994 322.694 89.994 323.135 90.12C323.324 90.246 323.702 90.309 324.332 90.435C324.836 90.624 325.466 90.813 326.222 90.939C326.852 91.191 327.545 91.38 328.238 91.506C328.868 91.695 329.372 91.821 329.813 91.884C330.38 92.073 330.821 92.262 331.199 92.388C331.514 92.64 331.577 93.018 331.388 93.648C331.136 94.341 330.947 95.034 330.758 95.79C330.506 96.609 330.38 97.428 330.38 98.31C330.38 98.877 330.317 99.633 330.317 100.641C330.254 101.649 330.254 102.531 330.254 103.287C330.254 103.665 330.191 104.106 330.191 104.673C330.128 105.303 330.128 105.996 330.128 106.626C330.065 107.319 330.065 107.949 330.065 108.516C330.002 109.146 330.002 109.65 330.002 109.965C330.002 110.658 330.002 111.225 330.065 111.729C330.065 112.296 330.065 112.8 330.065 113.304C330.065 113.871 330.065 114.438 330.128 115.005C330.128 115.635 330.128 116.391 330.128 117.21V119.226L331.703 119.037C332.207 118.974 332.585 118.911 332.963 118.785C333.215 118.785 333.467 118.722 333.719 118.596C333.908 118.596 334.097 118.533 334.349 118.407C334.475 118.407 334.727 118.281 334.979 118.155C335.546 117.966 336.05 117.777 336.554 117.651C336.932 117.525 337.436 117.588 338.003 117.777C338.507 118.029 339.011 118.029 339.641 117.903C340.145 117.84 340.586 117.84 340.901 117.84C341.342 117.903 341.783 118.092 342.224 118.407C342.602 118.785 342.854 119.226 342.917 119.73ZM300.077 123.51C300.203 124.518 300.329 125.337 300.455 125.904C300.518 126.534 300.644 126.975 300.833 127.227C300.959 127.605 301.148 127.731 301.463 127.731C301.715 127.794 302.093 127.731 302.597 127.605C303.101 127.479 303.668 127.227 304.424 126.849C305.117 126.534 305.81 126.156 306.566 125.652C307.259 125.274 307.952 124.833 308.582 124.329C309.212 123.951 309.653 123.573 309.905 123.321C310.409 122.817 310.976 122.313 311.606 121.872C312.11 121.494 312.677 121.431 313.244 121.683L313.496 121.872C313.622 121.431 313.748 121.053 313.874 120.675C313.937 120.423 314 120.171 314.126 120.045C314.252 119.856 314.567 119.604 314.945 119.352C315.26 119.163 315.638 118.974 316.142 118.722C316.52 118.596 316.961 118.47 317.465 118.344C317.906 118.344 318.284 118.344 318.662 118.47C319.355 118.785 319.922 119.289 320.426 120.045C320.804 120.801 321.056 121.557 321.182 122.25C321.182 122.628 321.245 122.88 321.245 123.069C321.182 123.321 321.119 123.447 321.056 123.573C320.93 123.699 320.741 123.825 320.615 123.951C320.363 124.077 320.174 124.266 319.922 124.455C319.418 124.833 318.914 125.211 318.473 125.589C317.969 126.03 317.654 126.408 317.402 126.66C316.961 127.101 316.331 127.29 315.512 127.29C315.008 127.353 314.63 127.416 314.504 127.542C314.252 127.731 314.063 127.983 313.811 128.235C313.559 128.55 313.244 128.676 312.866 128.613C312.362 128.613 312.236 128.424 312.362 127.92C312.362 127.794 312.362 127.416 312.488 126.912C312.551 126.471 312.677 125.904 312.803 125.274C311.921 125.778 311.039 126.219 310.157 126.723C309.149 127.29 308.456 127.794 308.078 128.172C307.7 128.55 307.322 128.865 306.881 129.243C306.377 129.621 305.873 129.999 305.369 130.314C304.802 130.692 304.298 131.07 303.794 131.322C303.29 131.637 302.849 131.826 302.534 131.952C301.967 132.141 301.463 132.141 301.022 132.015C300.266 131.889 299.636 131.637 299.006 131.322C298.313 131.07 297.746 130.566 297.242 129.81C296.549 128.928 296.108 127.731 295.856 126.093C295.541 124.581 295.352 122.88 295.289 121.116C295.163 119.352 295.163 117.651 295.289 115.95C295.289 114.312 295.352 112.989 295.352 111.855C295.352 110.91 295.289 110.154 295.226 109.587C295.1 109.083 294.911 108.642 294.785 108.264C294.533 107.949 294.344 107.697 294.092 107.445C293.777 107.319 293.462 107.067 293.147 106.815C292.454 106.374 292.202 105.933 292.391 105.492C292.517 105.114 292.832 105.051 293.462 105.24C293.714 105.366 294.155 105.492 294.785 105.681C295.289 105.933 295.919 106.185 296.549 106.437C297.116 106.689 297.683 106.941 298.25 107.193C298.754 107.445 299.195 107.634 299.447 107.76C299.888 108.012 300.203 108.327 300.329 108.831C300.392 109.398 300.392 110.406 300.266 111.855C300.014 114.375 299.825 116.58 299.825 118.533C299.762 120.549 299.825 122.187 300.077 123.51Z" fill="white"/>
</svg>
