<svg width="271" height="151" viewBox="0 0 271 151" fill="none" xmlns="http://www.w3.org/2000/svg">
<rect x="0.5" y="0.5" width="90" height="120" fill="#F6C500"/>
<rect x="0.5" y="0.5" width="90" height="120" stroke="black"/>
<path d="M50.5932 44.295C50.6562 44.547 50.5932 44.736 50.4672 44.925C50.2152 45.177 49.9002 45.303 49.4592 45.366C48.9552 45.492 48.5772 45.618 48.3882 45.744C48.1362 45.933 47.8212 45.933 47.5692 45.744C47.3172 45.555 47.1912 45.303 47.2542 45.051C47.2542 44.799 47.1912 44.673 47.0652 44.673C46.8762 44.673 46.7502 44.736 46.6872 44.862C46.5612 44.988 46.4982 45.177 46.4982 45.303C46.3722 45.492 46.3092 45.681 46.2462 45.807C46.1202 45.996 45.9942 46.122 45.8682 46.122C45.4902 46.311 44.9862 46.437 44.2302 46.563C43.4112 46.752 42.7812 46.941 42.3402 47.13C41.5842 47.382 40.9542 47.571 40.5762 47.634C40.0722 47.76 39.6312 47.949 39.1902 48.264C38.8752 48.453 38.7492 48.642 38.8122 48.768C38.8122 49.02 38.8122 49.209 38.9382 49.398C39.1902 49.65 39.5052 49.839 39.8202 49.965C40.0722 50.154 40.4502 50.28 40.8912 50.406C41.0172 50.469 41.2692 50.532 41.6472 50.658C41.9622 50.784 42.3402 50.91 42.7812 51.036C43.1592 51.162 43.6002 51.288 43.9782 51.414C44.3562 51.603 44.6082 51.729 44.8602 51.855C45.4272 52.233 45.8052 52.737 45.9312 53.367C46.0572 54.123 46.0572 54.879 45.9942 55.698C45.8682 56.58 45.6162 57.462 45.1752 58.344C44.6712 59.226 44.1042 60.045 43.4742 60.801C42.7812 61.557 42.0252 62.25 41.2692 62.817C40.3872 63.447 39.6312 63.888 38.8752 64.14C37.6152 64.77 36.3552 65.148 35.0952 65.274C33.7092 65.463 32.7012 65.526 31.9452 65.4C31.5672 65.4 31.2522 65.211 30.8742 64.833C30.4962 64.518 30.1182 64.077 29.8662 63.573C29.4882 63.132 29.2362 62.628 29.0472 61.998C28.7952 61.431 28.6062 60.864 28.6062 60.234C28.5432 59.541 28.6062 58.785 28.7952 57.903C28.9212 57.084 28.9842 56.454 29.1102 55.95C29.1732 55.572 29.2992 55.257 29.4882 55.005C29.6142 54.816 29.9922 54.627 30.5592 54.501C31.1262 54.438 31.5042 54.312 31.6932 54.123C31.8192 53.997 32.0082 53.619 32.2602 52.989C32.3862 52.422 32.6382 51.855 32.9532 51.351C33.2052 50.91 33.4572 50.469 33.6462 50.091C33.8352 49.587 34.2132 49.146 34.8432 48.768C35.3472 48.516 35.9142 48.327 36.5442 48.327C37.0482 47.949 37.4892 47.571 37.9302 47.256C38.3082 47.004 38.7492 46.626 39.2532 46.185C39.5682 45.996 39.7572 45.807 39.7572 45.555C39.7572 45.366 39.4422 45.303 38.8122 45.303C37.8672 45.303 36.9852 45.429 36.1032 45.681C35.1582 45.933 34.2762 46.185 33.4572 46.437C33.1422 46.563 32.9532 46.626 32.8902 46.626C32.7642 46.752 32.6382 46.815 32.6382 46.815C32.5122 46.878 32.5122 46.878 32.5122 46.878C32.4492 46.878 32.3862 46.878 32.3232 46.752C32.0712 46.689 31.9452 46.563 31.8822 46.311C31.8192 46.248 31.8192 46.185 31.8192 46.059C31.4412 46.5 31.1892 46.878 30.9372 47.13C30.6222 47.445 30.1812 47.634 29.6772 47.634C29.2362 47.76 28.7952 47.76 28.3542 47.76C27.8502 47.823 27.2202 47.571 26.5902 47.067C26.2752 46.815 26.0862 46.626 25.9602 46.374C25.7712 46.248 25.6452 46.059 25.5822 45.87C25.4562 45.744 25.3932 45.618 25.3302 45.492C25.2042 45.429 25.0782 45.303 24.8892 45.177C24.3852 44.925 24.0702 44.736 23.9442 44.736C23.6922 44.736 23.4402 44.736 23.1252 44.61C22.8102 44.547 22.6212 44.421 22.5582 44.169C22.4322 44.043 22.6212 43.917 23.1252 43.854H24.3222C24.4482 43.917 24.7002 43.917 24.9522 43.917C25.2042 43.98 25.5192 43.98 25.9602 43.98C26.2122 43.98 26.6532 43.98 27.2832 43.917C27.9132 43.917 28.6062 43.917 29.4252 43.791C30.1812 43.791 30.9372 43.728 31.7562 43.602C32.5122 43.539 33.2052 43.476 33.8352 43.35C35.0952 43.161 36.2292 42.972 37.3002 42.783C38.3082 42.657 39.0642 42.594 39.5052 42.657C40.0722 42.783 40.7652 42.783 41.5842 42.657C42.3402 42.594 42.9072 42.531 43.2852 42.405C43.5372 42.279 43.8522 42.09 44.2932 41.712C44.6712 41.46 44.9862 41.145 45.2382 40.767C45.4272 40.452 45.8052 40.263 46.3722 40.2C46.8762 40.2 47.3172 40.326 47.5692 40.515C47.8212 40.767 48.1992 41.019 48.7662 41.397C49.2702 41.775 49.5852 42.216 49.7742 42.594C49.8372 42.72 49.9632 42.972 50.1522 43.287C50.2782 43.665 50.4672 44.043 50.5932 44.295ZM44.2302 67.416C44.2932 67.164 44.4822 67.038 44.7972 66.912C45.0492 66.849 45.4272 66.975 45.8682 67.29C46.4352 67.794 47.0022 68.172 47.5692 68.55C48.0732 68.928 48.3882 69.432 48.5142 69.999C48.6402 70.629 48.6402 71.322 48.5142 72.141C48.3252 73.023 47.8842 74.094 47.1912 75.354C46.7502 76.11 46.2462 76.803 45.7422 77.433C45.1752 78.126 44.6082 78.819 43.9782 79.575C44.3562 79.701 44.8602 79.89 45.4272 80.142C45.9312 80.331 46.4982 80.583 47.0022 80.898C47.5062 81.15 47.9472 81.402 48.3882 81.78C48.7662 82.032 49.0182 82.347 49.1442 82.725C49.2072 82.977 49.2702 83.229 49.3962 83.481C49.4592 83.67 49.5222 83.859 49.5852 84.111C49.7742 84.048 50.0892 83.796 50.5302 83.418C51.5382 82.41 52.3572 81.339 53.0502 80.205C53.6802 79.008 54.1842 78.063 54.4992 77.37C54.7512 76.803 55.0032 76.236 55.3182 75.732C55.5702 75.291 55.7592 74.913 55.8852 74.535C55.9482 74.157 55.9482 73.842 55.9482 73.527C55.8222 73.275 55.6332 73.212 55.3182 73.275C54.9402 73.401 54.6882 73.464 54.5622 73.527C54.3732 73.653 54.1842 73.716 53.9952 73.716C53.8692 73.716 53.7432 73.716 53.5542 73.59C53.3022 73.527 53.1132 73.401 52.9242 73.275C52.6722 73.212 52.4832 73.086 52.3572 72.96C52.1682 72.834 52.1052 72.708 52.1052 72.519C52.1052 72.204 52.1682 71.952 52.1682 71.7C52.1682 71.511 52.4832 71.385 53.2392 71.259C53.9322 71.196 54.3732 71.07 54.6252 70.881C54.7512 70.755 55.0662 70.503 55.4442 70.062C55.8852 69.747 56.2002 69.432 56.4522 69.117C56.5782 68.865 56.8302 68.676 57.1452 68.424L57.9012 68.046C58.0902 67.983 58.3422 67.92 58.5942 67.794C58.7832 67.731 58.9722 67.668 59.2242 67.668L61.3662 67.92C61.4922 67.92 61.6812 68.046 61.8702 68.298C61.9962 68.55 61.9332 69.054 61.7442 69.81C61.4292 70.944 60.9882 72.204 60.4842 73.464C59.9172 74.85 59.2872 76.173 58.5942 77.433L57.8382 78.504C58.6572 78.819 59.6022 79.323 60.6102 80.016C61.6182 80.646 62.4372 81.213 63.1302 81.78C63.5082 82.095 63.8862 82.473 64.3902 82.914C64.7682 83.292 65.2092 83.67 65.5872 84.111C65.9652 84.489 66.2802 84.804 66.5322 85.182C66.7842 85.497 66.9102 85.749 67.0362 86.001C67.1622 86.379 67.2252 86.757 67.0992 87.135C66.9732 87.513 66.5952 87.639 66.0912 87.513C65.5872 87.387 65.1462 87.324 64.8312 87.324C64.4532 87.198 64.1382 87.261 63.8862 87.513C63.6342 87.639 63.3192 87.765 63.0672 87.891C62.6892 87.891 62.3112 87.639 61.8072 87.135C61.5552 86.883 61.3032 86.442 60.9882 85.812C60.6102 85.182 60.1692 84.489 59.7912 83.733C59.2872 82.977 58.8462 82.221 58.3422 81.528C57.8382 80.772 57.3342 80.205 56.8302 79.827C56.4522 80.205 56.1372 80.52 55.8852 80.898C55.5702 81.213 55.3182 81.528 55.0662 81.906C54.9402 82.032 54.7512 82.284 54.4992 82.662C54.1842 82.977 53.8692 83.355 53.6172 83.733C53.2392 84.111 52.9242 84.426 52.6092 84.804C52.2312 85.119 51.9792 85.371 51.8532 85.497C51.0972 86.19 50.4672 86.82 50.0262 87.387C49.9002 87.45 49.8372 87.576 49.7112 87.765C49.5852 87.891 49.3962 88.08 49.2072 88.269C49.0182 88.521 48.8292 88.647 48.6402 88.584C48.1362 88.773 47.8212 88.458 47.8212 87.702C47.3172 86.82 46.6242 85.749 45.6792 84.552C44.6712 83.292 43.6632 82.284 42.5292 81.528L42.3402 81.402L40.6392 83.166C39.3792 84.363 38.1822 85.371 37.0482 86.253C35.9142 87.009 34.7802 87.513 33.7092 87.765C33.1422 87.891 32.7012 87.954 32.3862 88.017C32.0082 88.017 31.6302 88.08 31.3782 88.08C31.0632 88.08 30.8112 88.017 30.5592 87.954C30.2442 87.828 29.9292 87.765 29.6772 87.639C29.0472 87.261 28.8582 87.009 29.1102 86.883C29.2362 86.631 29.6772 86.568 30.3702 86.568C31.0002 86.568 31.6932 86.505 32.5122 86.379C33.2682 86.253 34.0242 85.938 34.9062 85.497C35.9772 84.867 36.9222 84.048 37.8042 82.977C38.6232 81.843 39.3162 80.772 39.9462 79.764C39.0642 79.134 38.1822 78.567 37.3632 78.063C36.4812 77.559 35.9142 77.181 35.7252 77.055C35.3472 76.866 35.1582 76.614 35.1582 76.236C35.0952 75.921 35.4102 75.858 36.0402 76.11C36.5442 76.362 37.2372 76.614 38.1192 76.929C38.9382 77.307 39.8202 77.748 40.8282 78.126C41.5842 76.551 42.0882 75.228 42.4662 74.22C42.7812 73.275 43.0332 72.456 43.2852 71.7C43.5372 70.881 43.7892 69.999 43.9152 69.117C44.0412 68.298 44.1042 67.731 44.2302 67.416ZM63.7602 43.35C63.6972 43.728 63.6342 44.169 63.6342 44.736C63.5712 45.366 63.5712 45.996 63.5712 46.626C63.5082 47.319 63.5082 47.949 63.5082 48.516C63.4452 49.146 63.4452 49.65 63.4452 49.965L63.5082 54.186C63.4452 54.942 63.4452 55.698 63.4452 56.391C63.3822 57.147 63.3192 57.714 63.2562 58.155C63.1932 58.659 63.0672 59.163 62.9412 59.73C62.6892 60.36 62.5002 60.99 62.2482 61.494C61.9332 62.124 61.6812 62.628 61.4292 63.069C61.1142 63.573 60.8622 63.951 60.6102 64.14C60.3582 64.392 60.0432 64.581 59.7912 64.707C59.4132 64.959 59.1612 65.085 58.9092 65.085C58.5942 65.211 58.4052 65.148 58.2792 65.022C58.1532 64.896 58.1532 64.644 58.3422 64.14C58.4682 63.699 58.5312 63.006 58.6572 62.061C58.6572 61.179 58.7202 60.108 58.7202 58.974C58.4052 59.1 58.1532 59.163 57.9012 59.226C57.6492 59.352 57.3972 59.415 57.1452 59.415C56.7672 59.541 56.3892 59.604 55.8852 59.73C55.3182 59.856 54.8142 59.982 54.3102 60.045C53.7432 60.171 53.2392 60.171 52.7982 60.171C52.2942 60.234 51.9792 60.171 51.7902 60.045C51.5382 59.919 51.3492 59.793 51.2232 59.604C51.0342 59.478 50.8452 59.289 50.7192 59.1C50.5302 58.974 50.3412 58.785 50.0892 58.596C49.7742 58.47 49.3962 58.407 48.9552 58.344C47.9472 58.218 47.4432 57.966 47.3172 57.588C47.1912 57.21 47.3802 57.021 48.0102 56.895C48.2622 56.895 48.5142 56.832 48.7662 56.832C48.8922 56.832 49.1442 56.832 49.3962 56.769C49.6482 56.769 49.9632 56.769 50.3412 56.706C50.6562 56.706 51.1602 56.706 51.7902 56.58C52.0422 56.58 52.3572 56.58 52.8612 56.517C53.3022 56.517 53.8692 56.454 54.4992 56.328C55.1292 56.328 55.7592 56.265 56.5152 56.139C57.2082 56.139 57.9012 56.013 58.6572 55.887V54.186C58.5942 53.556 58.5942 52.926 58.5942 52.296C58.5942 51.792 58.5942 51.225 58.5942 50.595C58.0902 50.847 57.6492 51.036 57.2082 51.162C56.7042 51.351 56.2632 51.477 55.8852 51.54C55.5072 51.666 55.1292 51.729 54.6252 51.855C54.0582 51.981 53.5542 52.107 53.0502 52.17C52.4832 52.296 51.9792 52.296 51.5382 52.296C51.0342 52.359 50.7192 52.296 50.5302 52.17C50.2782 52.044 50.0892 51.918 49.9632 51.729C49.7742 51.603 49.5852 51.414 49.4592 51.225C49.2702 51.099 49.0812 50.91 48.8292 50.721C48.5142 50.595 48.1362 50.532 47.6952 50.469C46.6872 50.343 46.1832 50.091 46.0572 49.713C45.9312 49.335 46.1202 49.146 46.7502 49.02C47.0022 49.02 47.2542 48.957 47.5062 48.957C47.6322 48.957 47.8842 48.957 48.1362 48.894C48.3882 48.894 48.7032 48.894 49.0812 48.831C49.3962 48.831 49.9002 48.831 50.5302 48.705C50.7822 48.705 51.1602 48.705 51.7902 48.642C52.3572 48.642 53.0502 48.579 53.8062 48.453C54.4992 48.453 55.2552 48.327 56.1372 48.201C56.9562 48.138 57.7752 48.012 58.5942 47.823C58.5942 47.634 58.5942 47.445 58.5942 47.256C58.5942 47.13 58.5942 47.004 58.6572 46.941C58.7832 46.815 58.9722 46.689 59.1612 46.689C59.2872 46.689 59.3502 46.563 59.4762 46.248C59.4762 46.122 59.4762 45.933 59.4132 45.807C59.2872 45.681 59.2242 45.555 59.1612 45.366C59.0352 45.24 58.9092 45.051 58.8462 44.799C58.7202 44.61 58.7202 44.358 58.7832 43.98C58.8462 43.539 58.9092 43.035 58.9092 42.405C58.9092 41.901 58.9092 41.334 58.9092 40.704C58.7832 39.507 58.7832 38.562 58.9092 37.806C58.9092 37.176 58.9092 36.546 58.9092 35.916C58.7832 35.475 58.7832 34.971 58.7832 34.404C58.7202 33.9 58.4682 33.459 57.9642 33.018C57.4602 32.64 57.0192 32.388 56.6412 32.199C56.1372 32.073 55.6962 31.884 55.3182 31.632C55.0662 31.506 54.9402 31.38 54.9402 31.128C54.8772 30.939 54.9402 30.75 55.0662 30.498C55.1292 30.372 55.3182 30.183 55.5702 30.057C55.8222 29.994 56.1372 29.994 56.5782 30.12C56.8302 30.246 57.2082 30.372 57.8382 30.498C58.3422 30.687 58.9722 30.876 59.6652 31.002C60.2952 31.254 60.9882 31.443 61.6812 31.569C62.3112 31.821 62.8782 31.947 63.2562 32.01C63.8232 32.136 64.2642 32.325 64.6422 32.451C64.9572 32.703 65.0202 33.081 64.8312 33.711C64.5792 34.404 64.3902 35.097 64.2012 35.853C63.9492 36.609 63.8232 37.428 63.8232 38.31C63.8232 38.94 63.8232 39.696 63.8232 40.704C63.7602 41.712 63.7602 42.594 63.7602 43.35ZM32.5752 58.218C32.5752 58.911 32.7642 59.478 33.1422 59.982C33.4572 60.549 33.8982 60.99 34.4652 61.242C34.9692 61.557 35.5362 61.683 36.2292 61.683C36.8592 61.746 37.5522 61.62 38.2452 61.305C39.1902 60.801 40.0092 59.982 40.6392 58.911C41.2062 57.903 41.4582 56.706 41.3952 55.32C41.3322 54.627 41.2062 54.06 40.9542 53.619C40.6392 53.241 40.2612 52.926 39.8832 52.674C39.4422 52.485 39.0012 52.359 38.5602 52.296C38.0562 52.296 37.6152 52.359 37.2372 52.359C36.5442 52.485 35.9772 52.611 35.5362 52.8C35.0322 53.052 34.6542 53.304 34.4022 53.493C33.6462 53.871 33.1422 54.375 32.8902 55.131C32.5752 55.95 32.4492 56.958 32.5752 58.218ZM32.5122 33.9C32.7642 34.152 33.0162 34.404 33.2052 34.53C33.3312 34.782 33.6462 34.845 34.1502 34.845C34.5912 34.845 35.0952 34.782 35.5992 34.656C36.1032 34.593 36.6702 34.53 37.3002 34.53C37.8672 34.53 38.4972 34.593 39.1902 34.656C39.8202 34.782 40.3872 34.845 40.7652 34.845C41.0802 34.971 41.2692 35.286 41.3952 35.79C41.4582 36.42 41.4582 36.861 41.3952 37.176C41.2692 37.554 41.0172 37.932 40.5132 38.31C39.9462 38.751 39.3792 39.066 38.8752 39.255C38.6232 39.381 38.3082 39.381 37.8672 39.318C37.3632 39.318 36.8592 39.318 36.3552 39.192C35.8512 39.129 35.3472 39.003 34.9692 38.814C34.5282 38.688 34.2762 38.562 34.1502 38.31C33.7092 37.491 33.2682 36.798 32.8902 36.168C32.3862 35.664 32.0712 35.223 31.8822 34.971C31.6302 34.593 31.6302 34.278 31.8822 33.963C32.0712 33.711 32.2602 33.711 32.5122 33.9Z" fill="white"/>
<rect x="90.5" y="30.5" width="90" height="120" fill="#F6C500"/>
<rect x="90.5" y="30.5" width="90" height="120" stroke="black"/>
<path d="M122.638 88.092C122.89 88.155 123.142 88.155 123.394 88.155C123.646 88.218 123.898 88.281 124.15 88.344L130.639 78.201C130.828 77.886 130.891 77.634 130.828 77.445C130.702 77.319 130.45 77.256 130.135 77.319C129.757 77.571 129.442 77.76 129.19 77.886C128.812 78.075 128.497 78.201 128.119 78.327C127.867 78.453 127.489 78.579 127.048 78.705C126.544 78.957 126.229 79.272 126.04 79.65C125.914 79.902 125.662 80.091 125.347 80.28C124.969 80.532 124.591 80.784 124.213 80.973C123.709 81.225 123.268 81.351 122.764 81.414C122.26 81.54 121.756 81.54 121.315 81.414C120.811 81.288 120.37 81.099 119.929 80.721C119.425 80.406 118.921 80.028 118.48 79.65C117.976 79.272 117.598 78.894 117.22 78.516C116.842 78.201 116.527 77.949 116.275 77.76C115.771 77.445 115.645 77.193 115.771 76.941C115.897 76.752 116.149 76.689 116.59 76.752C116.779 76.752 117.157 76.815 117.724 76.815C118.228 76.878 118.732 76.878 119.362 76.878C119.929 76.941 120.496 76.941 121.126 76.878C121.693 76.878 122.197 76.878 122.575 76.752C123.016 76.626 123.52 76.563 124.15 76.689C124.717 76.815 125.095 76.878 125.284 76.878C125.473 76.878 125.851 76.752 126.355 76.374C126.796 76.059 127.363 75.744 128.119 75.492L131.395 74.295C131.899 74.169 132.277 73.98 132.529 73.602C132.529 73.539 132.592 73.413 132.655 73.224C132.655 73.098 132.781 72.972 132.907 72.846C133.033 72.72 133.222 72.657 133.474 72.594C133.663 72.594 134.041 72.594 134.545 72.72C135.553 72.972 136.372 73.287 137.065 73.539C137.695 73.854 138.262 74.106 138.64 74.295C138.766 74.421 138.892 74.547 139.018 74.799C139.018 75.051 139.018 75.303 139.018 75.555C138.955 75.87 138.829 76.185 138.703 76.437C138.514 76.752 138.262 77.004 138.01 77.13C137.443 77.445 137.002 77.823 136.624 78.264C136.183 78.768 135.805 79.209 135.49 79.65L128.056 89.289C128.686 89.478 129.379 89.667 130.009 89.793C130.576 89.982 131.143 90.171 131.773 90.36C133.222 90.864 134.671 91.431 136.12 92.124C137.506 92.88 138.892 93.888 140.215 95.085C140.971 95.841 141.664 96.534 142.357 97.29C142.987 98.109 143.239 99.18 143.05 100.44C142.924 101.07 142.735 101.511 142.546 101.763C142.294 102.078 142.105 102.267 141.853 102.393C141.601 102.519 141.349 102.645 141.16 102.645C140.908 102.708 140.656 102.834 140.53 102.96C140.341 103.149 140.089 103.212 139.837 103.212C139.522 103.275 139.27 103.275 139.018 103.149C138.703 103.086 138.451 102.96 138.262 102.708C138.01 102.582 137.947 102.33 138.01 101.952C138.01 101.7 138.01 101.385 138.01 101.133C137.947 100.944 137.884 100.755 137.884 100.566C137.758 100.44 137.695 100.251 137.695 100.062C137.632 99.936 137.632 99.747 137.695 99.495C137.758 99.054 137.821 98.676 137.884 98.424C137.884 98.235 137.695 97.983 137.38 97.605C136.309 96.471 135.049 95.526 133.6 94.644C132.088 93.825 130.765 93.132 129.505 92.565C129.001 92.439 128.497 92.25 127.93 92.124C127.3 92.061 126.733 91.935 126.103 91.809L126.04 91.935C125.41 92.754 124.717 93.699 123.898 94.707C123.016 95.841 122.197 96.849 121.441 97.794C120.559 98.802 119.866 99.684 119.236 100.44C118.543 101.259 118.102 101.763 117.85 102.015C117.157 102.645 116.401 103.023 115.582 103.212C114.7 103.464 113.944 103.527 113.44 103.275C112.81 103.023 112.306 102.834 111.865 102.582C111.361 102.393 111.046 102.204 110.92 101.952C110.731 101.826 110.731 101.574 110.857 101.322C110.983 101.07 111.172 101.007 111.55 101.07C111.865 101.196 112.369 101.259 112.999 101.259C113.629 101.322 114.259 101.07 115.015 100.44C115.393 100.188 115.834 99.747 116.464 98.991C117.031 98.361 117.661 97.542 118.417 96.66C119.047 95.778 119.74 94.896 120.433 93.888C121.063 92.943 121.693 92.061 122.323 91.179C121.882 91.116 121.504 90.99 121.252 90.864C120.874 90.801 120.622 90.675 120.433 90.549C120.307 90.486 120.244 90.423 120.244 90.36C120.244 90.36 120.118 90.36 119.866 90.423C119.614 90.486 119.362 90.549 119.11 90.549C118.795 90.612 118.543 90.612 118.354 90.486C118.102 90.36 118.039 90.234 118.039 90.108C118.039 90.045 117.85 89.982 117.598 89.919C117.283 89.919 117.031 89.919 116.779 89.919C116.527 89.982 116.212 89.982 115.834 89.856C115.393 89.793 115.141 89.667 115.141 89.478C115.078 89.352 115.33 89.226 115.897 89.037C116.275 88.911 116.842 88.722 117.472 88.533C118.102 88.407 118.732 88.344 119.362 88.218C119.992 88.155 120.559 88.092 121.189 88.029C121.756 88.029 122.26 88.092 122.638 88.092ZM154.327 73.287C154.327 73.665 154.264 74.106 154.264 74.673C154.201 75.303 154.201 75.996 154.201 76.626C154.138 77.319 154.138 77.949 154.138 78.516C154.075 79.146 154.075 79.65 154.075 79.965C154.075 80.658 154.075 81.225 154.138 81.729C154.138 82.296 154.138 82.8 154.138 83.304C154.138 83.871 154.138 84.438 154.201 85.005C154.201 85.635 154.201 86.391 154.201 87.21C154.201 87.84 154.201 88.533 154.264 89.289C154.264 90.108 154.264 90.864 154.264 91.62C154.264 92.439 154.264 93.195 154.264 93.888C154.201 94.644 154.201 95.337 154.201 95.841C154.075 98.109 154.075 99.936 154.075 101.448C154.012 103.023 154.012 104.094 154.012 104.661C154.012 105.669 153.886 106.74 153.76 107.937C153.508 109.134 153.319 110.331 153.067 111.465C152.752 112.599 152.437 113.607 152.185 114.552C151.807 115.434 151.555 116.127 151.303 116.505C151.051 116.883 150.736 117.324 150.484 117.765C150.106 118.143 149.854 118.395 149.602 118.584C149.287 118.71 149.098 118.647 148.972 118.395C148.846 118.08 148.846 117.45 149.035 116.505C149.161 115.56 149.287 114.111 149.413 112.158C149.413 110.142 149.476 108 149.539 105.669C149.539 103.401 149.539 101.133 149.539 98.865C149.476 96.66 149.476 94.833 149.476 93.447C149.539 92.376 149.539 91.242 149.476 90.108C149.35 88.974 149.35 87.651 149.35 86.013C149.287 85.005 149.287 83.934 149.287 82.8C149.224 81.729 149.224 80.721 149.224 79.839C149.224 79.02 149.224 78.327 149.224 77.76C149.224 77.256 149.224 76.941 149.287 76.878C149.413 76.752 149.602 76.626 149.791 76.626C149.917 76.626 149.98 76.5 150.106 76.185C150.106 76.059 150.106 75.87 150.043 75.744C149.917 75.618 149.854 75.492 149.791 75.303C149.665 75.177 149.539 74.988 149.476 74.736C149.35 74.547 149.35 74.295 149.413 73.917C149.476 73.476 149.539 72.972 149.539 72.342C149.476 71.838 149.476 71.271 149.476 70.641C149.413 69.381 149.413 68.436 149.539 67.743C149.539 67.113 149.539 66.546 149.476 65.916C149.413 65.475 149.413 64.971 149.413 64.404C149.35 63.9 149.098 63.459 148.594 63.018C148.09 62.64 147.649 62.388 147.208 62.199C146.704 62.073 146.326 61.884 145.948 61.632C145.696 61.506 145.57 61.38 145.57 61.128C145.507 60.939 145.57 60.75 145.696 60.498C145.759 60.372 145.948 60.183 146.2 60.057C146.452 59.994 146.767 59.994 147.208 60.12C147.397 60.246 147.775 60.309 148.405 60.435C148.909 60.624 149.539 60.813 150.295 60.939C150.925 61.191 151.618 61.38 152.311 61.506C152.941 61.695 153.445 61.821 153.886 61.884C154.453 62.073 154.894 62.262 155.272 62.388C155.587 62.64 155.65 63.018 155.461 63.648C155.209 64.341 155.02 65.034 154.831 65.79C154.579 66.609 154.453 67.428 154.453 68.31C154.453 68.877 154.39 69.633 154.39 70.641C154.327 71.649 154.327 72.531 154.327 73.287Z" fill="white"/>
<rect x="180.5" y="0.5" width="90" height="120" fill="#F6C500"/>
<rect x="180.5" y="0.5" width="90" height="120" stroke="black"/>
<path d="M211.526 61.305L211.652 62.061C211.652 62.565 211.589 62.943 211.526 63.321C211.4 63.762 211.148 64.077 210.707 64.266C210.203 64.455 209.762 64.455 209.321 64.329C208.817 64.203 208.313 63.825 207.872 63.195C207.494 62.754 207.116 61.998 206.612 60.864C206.108 59.793 205.541 58.596 205.037 57.336C204.47 56.139 203.966 54.942 203.525 53.745C203.021 52.611 202.643 51.666 202.391 51.036C201.761 49.776 201.383 48.705 201.131 47.823C200.816 47.004 200.627 45.933 200.501 44.61C200.375 43.98 200.375 43.539 200.501 43.287C200.564 43.098 200.69 42.972 200.879 42.972C201.005 43.035 201.131 43.161 201.32 43.287C201.446 43.476 201.635 43.602 201.761 43.728C202.013 44.106 202.517 44.484 203.147 44.988C203.714 45.492 204.218 45.744 204.596 45.744C204.785 45.744 205.1 45.807 205.478 45.87C205.856 45.996 206.234 46.122 206.612 46.248C206.99 46.5 207.305 46.752 207.683 47.067C207.998 47.445 208.187 47.823 208.313 48.264C208.439 48.768 208.565 49.398 208.691 50.028C208.754 50.784 208.88 51.477 209.006 52.107C209.132 52.863 209.195 53.493 209.321 53.997C209.384 54.627 209.447 55.005 209.573 55.131L210.392 57.651C210.581 57.966 210.833 58.155 211.085 58.281C211.589 58.785 212.345 58.974 213.353 58.911C214.235 58.911 215.117 58.911 215.873 58.785C217.385 58.596 218.456 58.218 218.96 57.651C219.401 57.147 219.716 56.265 219.842 55.005C219.842 54.438 219.905 53.745 219.968 52.863C219.968 52.107 219.968 51.288 219.968 50.406C219.968 49.65 219.968 48.894 219.968 48.138C219.905 47.508 219.905 47.004 219.905 46.752C219.905 46.311 219.716 45.933 219.401 45.681C219.023 45.429 218.393 45.366 217.511 45.492C217.007 45.618 216.44 45.681 215.747 45.744C214.991 45.87 214.298 45.933 213.605 45.996C212.849 46.122 212.156 46.185 211.589 46.185C210.959 46.311 210.518 46.311 210.266 46.311C210.014 46.311 209.699 46.311 209.447 46.185C209.069 46.185 208.817 46.059 208.691 45.933C208.502 45.807 208.439 45.681 208.502 45.492C208.502 45.366 208.754 45.177 209.258 44.925C209.699 44.673 210.266 44.484 210.896 44.232C211.526 44.043 212.156 43.791 212.849 43.539C213.479 43.35 214.046 43.098 214.676 42.846C215.18 42.594 215.621 42.342 215.936 42.027C216.503 41.46 217.07 40.893 217.637 40.326C218.141 39.822 218.771 39.507 219.653 39.507C220.409 39.507 221.165 39.633 221.921 39.822C222.551 40.074 223.496 40.2 224.693 40.263C225.197 40.326 225.701 40.452 226.205 40.641C226.583 40.893 226.898 41.208 227.15 41.523C227.276 41.901 227.339 42.279 227.276 42.657C227.15 43.161 226.772 43.602 226.268 43.98C225.701 44.484 225.26 44.862 225.008 45.114C224.63 45.429 224.441 45.744 224.315 45.996C224.189 46.374 224.126 46.752 224.126 47.13C224.126 47.634 224.126 48.201 224.252 48.957C224.252 49.713 224.315 50.532 224.378 51.288C224.378 52.107 224.441 52.863 224.441 53.556C224.441 54.312 224.441 54.942 224.441 55.509C224.441 56.139 224.441 56.643 224.441 56.895C224.441 57.588 224.252 58.092 224 58.407C223.685 58.785 223.307 59.163 222.803 59.604C222.299 60.108 221.984 60.612 221.795 61.179C221.543 61.809 221.228 62.187 220.724 62.25C220.031 62.376 219.338 62.376 218.582 62.313C217.763 62.313 216.944 62.187 216.188 62.061C215.306 61.998 214.487 61.872 213.731 61.683C212.912 61.557 212.156 61.431 211.526 61.305ZM235.277 50.28C235.277 50.154 235.277 49.902 235.277 49.524C235.214 49.272 235.214 48.894 235.214 48.516C235.214 48.201 235.214 47.886 235.277 47.571C235.277 47.319 235.34 47.13 235.466 47.004C235.592 46.815 235.718 46.689 235.907 46.689C236.033 46.752 236.159 46.626 236.285 46.311C236.285 46.185 236.285 45.996 236.222 45.87C236.096 45.744 235.97 45.618 235.907 45.429C235.781 45.303 235.655 45.051 235.592 44.799C235.466 44.61 235.466 44.358 235.592 43.98C235.655 43.539 235.718 43.035 235.718 42.405C235.655 41.901 235.655 41.334 235.655 40.767C235.592 39.507 235.592 38.562 235.655 37.806C235.655 37.176 235.655 36.546 235.655 35.979C235.592 35.538 235.529 35.034 235.529 34.467C235.466 33.963 235.214 33.522 234.773 33.081C234.269 32.703 233.765 32.451 233.387 32.262C232.883 32.136 232.505 31.947 232.127 31.695C231.875 31.569 231.749 31.443 231.749 31.191C231.686 31.002 231.686 30.813 231.812 30.561C231.875 30.435 232.064 30.246 232.316 30.12C232.568 30.057 232.883 30.057 233.387 30.12C233.576 30.246 233.954 30.372 234.584 30.498C235.088 30.687 235.718 30.876 236.411 31.065C237.041 31.317 237.734 31.506 238.427 31.632C239.057 31.821 239.624 31.947 240.002 32.01C240.569 32.199 241.01 32.388 241.388 32.514C241.703 32.766 241.766 33.144 241.577 33.774C241.325 34.467 241.136 35.16 240.947 35.916C240.695 36.735 240.569 37.554 240.569 38.373C240.569 39.003 240.569 39.759 240.569 40.704C240.506 41.712 240.506 42.657 240.506 43.413C240.506 43.791 240.443 44.232 240.443 44.799C240.38 45.429 240.317 46.122 240.317 46.752C240.254 47.445 240.254 48.075 240.254 48.642C240.191 49.272 240.191 49.776 240.191 50.091V51.729L241.325 51.54C241.829 51.414 242.207 51.351 242.585 51.225C242.837 51.162 243.089 51.099 243.341 50.973C243.467 50.973 243.656 50.847 243.908 50.721C244.034 50.658 244.286 50.532 244.538 50.406C245.042 50.154 245.546 49.965 246.05 49.776C246.491 49.65 246.995 49.587 247.499 49.713C248.066 49.839 248.633 49.839 249.2 49.713C249.704 49.65 250.082 49.587 250.397 49.587C250.901 49.587 251.342 49.713 251.846 49.965C252.224 50.343 252.476 50.721 252.602 51.225C252.602 51.414 252.665 51.603 252.728 51.792C252.728 52.044 252.791 52.296 252.791 52.485C252.791 52.737 252.728 52.926 252.602 53.052C252.413 53.241 252.161 53.367 251.846 53.43C251.153 53.682 250.271 53.745 249.263 53.745C248.129 53.745 247.247 53.745 246.554 53.619C246.239 53.619 245.798 53.619 245.231 53.619C244.601 53.682 244.034 53.745 243.404 53.745C242.774 53.808 242.144 53.871 241.577 53.871C240.947 53.997 240.506 54.06 240.254 54.06H240.128V57.147C240.002 58.722 240.002 60.045 240.002 61.053C239.939 62.187 239.939 62.943 239.939 63.321C239.939 64.014 239.813 64.77 239.687 65.589C239.435 66.471 239.246 67.29 238.994 68.046C238.679 68.928 238.364 69.684 238.112 70.314C237.734 71.007 237.482 71.448 237.23 71.7C236.978 72.015 236.663 72.267 236.411 72.519C236.033 72.834 235.781 73.023 235.529 73.086C235.214 73.212 235.025 73.212 234.899 72.96C234.773 72.834 234.773 72.393 234.962 71.7C235.088 71.07 235.214 70.062 235.34 68.613C235.403 67.227 235.466 65.715 235.529 64.077C235.529 62.502 235.529 60.927 235.529 59.289C235.466 57.777 235.466 56.454 235.466 55.446C235.466 54.69 235.466 53.934 235.403 53.115C235.277 52.359 235.277 51.414 235.277 50.28ZM222.803 69.621C223.118 69.621 223.433 69.81 223.685 70.062C223.874 70.377 223.811 70.755 223.559 71.196C223.433 71.448 223.244 71.7 223.055 72.078C222.803 72.519 222.614 72.96 222.425 73.338C222.173 73.842 221.921 74.22 221.795 74.598C221.543 75.039 221.417 75.354 221.354 75.543C221.291 75.795 221.228 76.236 221.165 76.74C221.039 77.37 220.913 77.937 220.913 78.567C220.85 79.197 220.85 79.827 220.913 80.457C220.913 81.024 221.102 81.465 221.354 81.78C221.858 82.347 222.488 82.725 223.181 82.914C223.811 83.04 224.441 83.166 225.071 83.229C225.764 83.229 226.646 83.166 227.78 83.166C228.788 83.04 229.859 82.977 230.993 82.851C232.001 82.662 233.009 82.473 234.017 82.347C234.962 82.158 235.718 81.969 236.222 81.78C237.041 81.465 237.797 81.339 238.49 81.402C239.12 81.402 239.687 81.591 240.191 82.095C240.443 82.347 240.695 82.536 241.01 82.788C241.262 82.914 241.514 83.103 241.766 83.292C241.892 83.418 242.018 83.544 242.081 83.67C242.081 83.796 241.955 83.922 241.703 84.048C241.136 84.3 240.632 84.615 240.128 84.867C239.624 85.056 238.931 85.245 238.112 85.497C237.734 85.623 237.419 85.749 237.293 85.938C237.041 86.064 236.915 86.19 236.789 86.379C236.6 86.505 236.411 86.694 236.222 86.883C235.97 87.009 235.655 87.072 235.214 87.198C234.71 87.261 233.891 87.324 232.82 87.387C231.686 87.387 230.426 87.324 229.166 87.324C227.843 87.261 226.583 87.198 225.449 87.135C224.252 87.009 223.37 86.946 222.74 86.82C221.984 86.631 221.228 86.379 220.598 86.127C219.905 85.749 219.338 85.371 218.834 84.867C218.33 84.3 217.952 83.67 217.7 82.977C217.385 82.221 217.259 81.339 217.322 80.331C217.385 79.071 217.448 77.937 217.511 76.803C217.511 75.732 217.574 74.913 217.574 74.283C217.574 73.905 217.448 73.59 217.196 73.275C216.881 73.023 216.629 72.771 216.377 72.393C216.251 72.267 216.125 72.141 215.999 71.889C215.81 71.763 215.684 71.574 215.558 71.322C215.432 71.133 215.369 70.881 215.369 70.629C215.306 70.377 215.369 70.125 215.558 69.81C215.873 69.18 216.125 68.802 216.377 68.676C216.566 68.613 216.818 68.676 217.133 68.865C217.259 68.991 217.322 69.117 217.385 69.243C217.385 69.369 217.385 69.495 217.385 69.558C217.385 69.684 217.385 69.81 217.448 69.873C217.448 69.999 217.574 69.999 217.826 69.999C218.204 70.125 218.582 70.062 218.96 69.873C219.275 69.747 219.716 69.621 220.22 69.558C220.661 69.558 221.102 69.495 221.606 69.495C222.047 69.558 222.425 69.621 222.803 69.621Z" fill="white"/>
</svg>
