<svg width="271" height="121" viewBox="0 0 271 121" fill="none" xmlns="http://www.w3.org/2000/svg">
<rect x="0.5" y="0.5" width="90" height="120" fill="#F6C500"/>
<rect x="0.5" y="0.5" width="90" height="120" stroke="black"/>
<path d="M30.0773 52.17C30.7073 52.422 31.5893 52.611 32.7233 52.737C33.6053 51.729 34.3613 50.847 35.0543 50.028C35.6843 49.272 36.1253 48.831 36.3773 48.579C36.8183 48.075 37.0703 47.697 37.1333 47.319C37.1333 47.004 36.7553 46.941 36.0623 47.13C35.6843 47.256 35.3063 47.445 34.8023 47.571C34.2983 47.76 33.7943 47.949 33.2903 48.075C32.7863 48.264 32.2823 48.453 31.9043 48.579C31.4633 48.768 31.1483 48.894 31.0223 49.02C30.7703 49.146 30.6443 49.335 30.5183 49.461C30.3923 49.713 30.2663 49.902 30.1403 50.028C30.0143 50.217 29.8883 50.343 29.7623 50.469C29.5733 50.595 29.3843 50.658 29.1323 50.595C28.8803 50.595 28.5023 50.532 28.1243 50.28C27.6203 50.154 27.1793 49.902 26.6753 49.65C26.1713 49.398 25.6673 49.146 25.2263 48.831C24.7223 48.579 24.3443 48.264 24.0923 47.949C23.5883 47.382 23.3993 46.941 23.3993 46.563C23.3993 46.248 23.7143 46.185 24.4073 46.437C25.0373 46.689 25.6673 47.004 26.2973 47.256C26.8643 47.571 27.3053 47.697 27.5573 47.571C27.6833 47.571 27.8093 47.445 27.9983 47.193C28.1243 47.004 28.3133 46.752 28.5653 46.5C28.7543 46.248 29.0063 45.996 29.2583 45.744C29.5103 45.555 29.7623 45.366 30.0773 45.24C30.3923 45.114 31.1483 44.925 32.2823 44.673C33.4163 44.484 34.6133 44.232 35.9363 43.98C37.1963 43.728 38.3303 43.476 39.4643 43.224C40.4723 43.035 41.1653 42.846 41.4173 42.72C41.9213 42.468 42.4253 42.216 42.9293 41.838C43.4333 41.523 43.9373 41.523 44.5673 41.775C45.0713 42.09 45.5753 42.468 46.0163 42.846C46.3943 43.287 46.7723 43.539 47.0873 43.665C47.2133 43.791 47.3393 43.917 47.4653 44.106C47.4653 44.358 47.5283 44.61 47.5283 44.862C47.4653 45.114 47.4023 45.366 47.2763 45.555C47.1503 45.807 46.9613 45.87 46.7723 45.87C46.2683 45.87 45.8273 45.996 45.3863 46.248C44.8823 46.563 44.1893 47.067 43.3073 47.76C43.0553 48.012 42.7403 48.264 42.3623 48.642C41.8583 49.02 41.3543 49.461 40.7873 49.965C40.1573 50.532 39.4643 51.099 38.7713 51.729C38.0153 52.359 37.3223 52.989 36.5663 53.619C37.3223 53.808 38.2673 54.06 39.4013 54.312C40.5353 54.627 41.6693 54.942 42.8033 55.32C43.9373 55.761 44.9453 56.202 45.8903 56.706C46.7723 57.273 47.3393 57.84 47.7173 58.47C48.1583 59.352 48.4733 60.045 48.7253 60.423C48.8513 60.864 48.9773 61.494 48.9773 62.25C48.9773 62.754 48.9143 63.132 48.7883 63.51C48.5993 63.888 48.4103 64.203 48.2213 64.329C47.9693 64.518 47.6543 64.518 47.4023 64.392C47.0243 64.329 46.7093 64.014 46.4573 63.51C45.8273 62.502 44.9453 61.368 43.8113 60.234C42.5513 59.1 41.1653 58.092 39.5273 57.21C39.0233 57.021 38.3933 56.706 37.5113 56.328C36.6293 56.013 35.6843 55.635 34.6763 55.257C33.4163 56.391 32.4083 57.273 31.5263 58.029C30.6443 58.848 30.1403 59.289 30.0773 59.415C29.8253 59.793 29.7623 60.171 29.8883 60.549C29.9513 60.99 29.8883 61.242 29.7623 61.305C29.6363 61.305 29.4473 61.494 29.0693 61.872C28.6283 62.25 28.1873 62.691 27.6833 63.132C27.1793 63.636 26.6753 64.077 26.2343 64.455C25.7303 64.959 25.4783 65.274 25.3523 65.4C24.9743 65.778 24.6593 66.03 24.2813 66.156C23.8403 66.408 23.5883 66.219 23.4623 65.715C23.3363 65.463 23.3363 65.085 23.4623 64.644C23.4623 64.266 23.5883 63.888 23.8403 63.447C23.9663 63.069 24.2183 62.628 24.4703 62.187C24.7223 61.809 24.9743 61.494 25.3523 61.242C25.4783 61.116 25.7933 60.864 26.2343 60.36C26.6123 59.919 27.0533 59.352 27.6833 58.659C28.1873 58.029 28.8173 57.273 29.5103 56.454C30.1403 55.698 30.8333 54.942 31.5263 54.123L29.7623 53.43C29.5103 53.304 29.2583 53.178 29.1323 52.926C28.9433 52.8 28.8803 52.611 28.8803 52.422C28.8173 52.296 28.8803 52.233 29.1323 52.107C29.2583 52.044 29.5733 52.044 30.0773 52.17ZM60.3173 43.35C60.2543 43.728 60.1913 44.169 60.1913 44.736C60.1283 45.366 60.1283 46.059 60.1283 46.752C60.0653 47.508 60.0653 48.264 60.0653 49.02C60.0023 49.839 60.0023 50.532 60.0023 51.162C60.5693 51.099 61.0103 51.036 61.3253 50.91C61.8293 50.784 62.2073 50.721 62.5853 50.595C62.8373 50.532 63.0893 50.469 63.3413 50.343C63.4673 50.343 63.6563 50.217 63.9083 50.091C64.0343 50.028 64.2863 49.902 64.5383 49.776C65.0423 49.524 65.5463 49.335 66.0503 49.146C66.4913 49.02 66.9953 48.957 67.4993 49.083C68.0663 49.209 68.6333 49.209 69.2003 49.083C69.7043 49.02 70.0823 48.957 70.3973 48.957C70.9013 48.957 71.3423 49.083 71.8463 49.335C72.2243 49.713 72.4763 50.091 72.6023 50.595C72.6023 50.784 72.6653 50.973 72.7283 51.162C72.7283 51.414 72.7913 51.666 72.7913 51.855C72.7913 52.107 72.7283 52.296 72.6023 52.422C72.4133 52.611 72.1613 52.737 71.8463 52.8C71.1533 53.052 70.2713 53.115 69.2633 53.115C68.1293 53.115 67.2473 53.115 66.5543 52.989C66.2393 52.989 65.7983 52.989 65.2313 52.989C64.6013 53.052 64.0343 53.115 63.4043 53.115C62.7743 53.178 62.1443 53.241 61.5773 53.241C60.9473 53.367 60.5063 53.43 60.2543 53.43C60.1283 53.43 60.0653 53.682 60.0653 54.06C60.0023 54.564 60.0023 55.005 60.0023 55.509C59.9393 56.076 59.9393 56.58 59.9393 57.084C59.8763 57.651 59.8133 58.029 59.8133 58.155C59.7503 58.659 59.6243 59.163 59.4983 59.73C59.2463 60.36 59.0573 60.99 58.8053 61.494C58.4903 62.124 58.2383 62.628 57.9863 63.069C57.6713 63.573 57.4193 63.951 57.1673 64.14C56.9153 64.392 56.6003 64.581 56.3483 64.707C55.9703 64.959 55.7183 65.085 55.4663 65.085C55.1513 65.211 54.9623 65.148 54.8363 65.022C54.7103 64.896 54.7103 64.644 54.8993 64.14C55.0253 63.762 55.0883 63.195 55.2143 62.439C55.2143 61.683 55.2773 60.864 55.2773 59.856C55.2773 58.974 55.2773 57.966 55.2773 56.958C55.2143 56.013 55.2143 55.068 55.2143 54.186C55.2143 53.367 55.2143 52.548 55.2143 51.666C55.1513 50.847 55.1513 50.091 55.1513 49.335C55.1513 48.705 55.1513 48.138 55.1513 47.634C55.1513 47.256 55.1513 47.004 55.2143 46.941C55.3403 46.815 55.5293 46.689 55.7183 46.689C55.8443 46.689 55.9073 46.563 56.0333 46.248C56.0333 46.122 56.0333 45.933 55.9703 45.807C55.8443 45.681 55.7813 45.555 55.7183 45.366C55.5923 45.24 55.4663 45.051 55.4033 44.799C55.2773 44.61 55.2773 44.358 55.3403 43.98C55.4033 43.539 55.4663 43.035 55.4663 42.405C55.4663 41.901 55.4663 41.334 55.4663 40.704C55.3403 39.507 55.3403 38.562 55.4663 37.806C55.4663 37.176 55.4663 36.546 55.4663 35.916C55.3403 35.475 55.3403 34.971 55.3403 34.404C55.2773 33.9 55.0253 33.459 54.5213 33.018C54.0173 32.64 53.5763 32.388 53.1983 32.199C52.6943 32.073 52.2533 31.884 51.8753 31.632C51.6233 31.506 51.4973 31.38 51.4973 31.128C51.4343 30.939 51.4973 30.75 51.6233 30.498C51.6863 30.372 51.8753 30.183 52.1273 30.057C52.3793 29.994 52.6943 29.994 53.1353 30.12C53.3873 30.246 53.7653 30.372 54.3953 30.498C54.8993 30.687 55.5293 30.876 56.2223 31.002C56.8523 31.254 57.5453 31.443 58.2383 31.569C58.8683 31.821 59.4353 31.947 59.8133 32.01C60.3803 32.136 60.8213 32.325 61.1993 32.451C61.5143 32.703 61.5773 33.081 61.3883 33.711C61.1363 34.404 60.9473 35.097 60.7583 35.853C60.5063 36.609 60.3803 37.428 60.3803 38.31C60.3803 38.94 60.3803 39.696 60.3803 40.704C60.3173 41.712 60.3173 42.594 60.3173 43.35ZM42.9923 84.552C43.3703 84.426 43.9373 84.3 44.6303 84.111C45.2603 83.859 46.0163 83.67 46.7723 83.544C47.5283 83.292 48.2843 83.103 49.0403 82.977C49.7333 82.788 50.3633 82.662 50.9933 82.662C51.1823 82.599 51.4973 82.599 51.8753 82.599C52.2533 82.599 52.6313 82.599 53.1353 82.599C53.1353 82.095 53.1353 81.465 53.1983 80.772C53.1983 80.016 53.2613 79.323 53.3243 78.567C53.3243 77.811 53.3873 77.118 53.4503 76.488C53.4503 75.858 53.4503 75.417 53.4503 75.102C53.3243 74.472 53.2613 74.031 53.1353 73.842C53.0093 73.716 52.6943 73.527 52.1903 73.212C51.9383 73.086 51.6863 73.086 51.4343 73.086C51.1193 73.149 50.8043 73.212 50.5523 73.338C50.1743 73.464 49.8593 73.653 49.6073 73.779C49.2923 73.968 49.0403 74.094 48.7883 74.22C48.5363 74.346 48.2213 74.535 47.8433 74.661C47.4023 74.85 46.9613 74.976 46.5203 75.039C46.0163 75.165 45.5753 75.228 45.1343 75.165C44.6303 75.165 44.2523 75.039 43.8743 74.724C43.4963 74.472 43.0553 74.157 42.6143 73.842C42.1103 73.59 41.6693 73.275 41.2913 72.96C40.7873 72.708 40.4093 72.393 40.0943 72.141C39.7163 71.952 39.4013 71.763 39.2753 71.637C38.8973 71.322 38.7713 71.07 38.8973 70.818C38.9603 70.629 39.2123 70.566 39.6533 70.566C40.0313 70.629 40.4723 70.629 41.0393 70.566C41.5433 70.566 42.3623 70.566 43.4963 70.44C44.1263 70.44 44.8193 70.314 45.5753 70.188C46.3313 70.125 47.0873 69.999 47.8433 69.873C48.5993 69.747 49.2923 69.621 49.9853 69.432C50.6153 69.306 51.1193 69.117 51.4973 68.991C51.6863 68.928 51.9383 68.802 52.1903 68.613C52.3793 68.487 52.6313 68.298 52.8833 68.172C53.1353 68.046 53.3873 67.983 53.7653 67.857C54.0173 67.857 54.3953 67.857 54.8363 67.92C55.5923 68.172 56.4743 68.55 57.4193 68.991C58.3013 69.495 58.9943 69.873 59.6243 70.188C60.1913 70.566 60.5063 70.944 60.5063 71.322C60.5063 71.826 60.3173 72.267 60.0023 72.645C59.6243 73.149 59.4353 73.464 59.3093 73.716C59.1203 73.968 58.8053 74.157 58.4273 74.22C57.9863 74.346 57.6713 74.598 57.4823 75.102C57.2303 75.606 57.1043 76.047 57.0413 76.362C56.9153 76.614 56.7893 76.992 56.6633 77.496C56.5373 78 56.3483 78.567 56.2223 79.197C56.0333 79.764 55.9073 80.394 55.7813 81.024C55.6553 81.591 55.5293 82.095 55.4033 82.599C55.7813 82.599 56.1593 82.662 56.5373 82.725C56.8523 82.725 57.1043 82.725 57.3563 82.851C57.9233 82.914 58.2383 83.166 58.3643 83.544C58.3643 83.859 58.3643 84.237 58.3013 84.678C58.1753 85.245 57.9863 85.749 57.7973 86.253C57.5453 86.694 56.9153 86.883 55.9073 86.82C55.3403 86.757 54.3953 86.694 53.0723 86.631C51.6863 86.505 50.3003 86.379 48.9143 86.316C47.4653 86.19 46.2053 86.127 45.0713 86.064C43.8743 85.938 43.1813 85.938 43.0553 85.938C42.8663 85.938 42.6773 85.875 42.4253 85.812C42.1733 85.686 41.9843 85.623 41.9213 85.497C41.7953 85.308 41.7953 85.119 41.9213 84.993C42.0473 84.804 42.3623 84.678 42.9923 84.552ZM40.7873 79.449C40.9133 80.079 40.9133 80.772 40.9133 81.654C40.8503 82.41 40.7873 83.229 40.6613 84.048C40.5353 84.804 40.3463 85.497 40.2203 86.19C40.0313 86.82 39.8423 87.324 39.7163 87.702C39.5903 87.891 39.4013 88.08 39.2123 88.332C38.9603 88.458 38.7083 88.584 38.4563 88.647C38.2043 88.647 37.9523 88.521 37.7633 88.332C37.5113 88.08 37.3853 87.765 37.3223 87.261C37.1963 86.82 37.1333 86.316 37.0073 85.749C36.8813 85.119 36.7553 84.489 36.6293 83.859C36.5033 83.166 36.3773 82.536 36.3143 81.906C36.1883 81.276 36.0623 80.709 36.0623 80.268C35.8733 79.26 35.7473 78.441 35.6213 77.748C35.4953 77.055 35.4323 76.173 35.4323 75.165C35.3693 73.905 35.4953 72.708 35.8103 71.574C36.0623 70.503 36.8183 69.495 38.0783 68.487C38.7713 67.983 39.3383 67.605 39.7793 67.353C40.1573 67.164 40.4723 67.101 40.7243 67.101C40.8503 67.164 40.9133 67.29 40.9133 67.479C40.7873 67.731 40.5983 67.983 40.3463 68.235C39.8423 68.739 39.4643 69.117 39.2123 69.432C38.8343 69.81 38.5823 70.251 38.4563 70.818C38.3303 71.448 38.3933 72.015 38.6453 72.645C38.8343 73.338 39.0233 73.905 39.2123 74.409C39.3383 74.661 39.4643 74.976 39.6533 75.417C39.7793 75.921 39.9053 76.425 40.0943 76.929C40.2203 77.496 40.4093 78 40.5353 78.441C40.6613 78.882 40.7243 79.197 40.7873 79.449ZM31.9673 34.53C32.4713 34.467 33.1643 34.467 34.1093 34.53C34.9913 34.656 35.9993 34.782 37.0073 34.845C38.0153 34.971 38.8973 35.223 39.6533 35.601C40.3463 36.042 40.5983 36.798 40.4723 37.806C40.2833 38.94 39.9683 39.633 39.5903 39.885C39.1493 40.2 38.5823 40.326 37.9523 40.2C37.5743 40.2 37.2593 40.137 36.8813 40.074C36.5033 40.074 36.1253 40.074 35.8103 39.948C35.4323 39.948 35.1173 39.822 34.9283 39.57C34.6763 39.444 34.4873 39.129 34.4873 38.751C34.4243 37.932 34.1093 37.239 33.4793 36.735C32.8493 36.294 32.2193 36.042 31.6523 36.042C31.4003 36.042 31.1483 35.979 30.8963 35.853C30.6443 35.727 30.4553 35.601 30.3923 35.349C30.2663 35.223 30.3293 35.034 30.5813 34.845C30.7703 34.719 31.2113 34.656 31.9673 34.53Z" fill="white"/>
<rect x="90.5" y="0.5" width="90" height="120" fill="#F6C500"/>
<rect x="90.5" y="0.5" width="90" height="120" stroke="black"/>
<path d="M142.505 68.613C142.82 68.109 142.82 67.857 142.568 67.794C142.19 67.794 141.875 67.731 141.56 67.731C140.93 67.731 140.363 67.794 139.859 67.857C139.292 67.983 138.725 68.109 138.221 68.361C137.969 68.487 137.591 68.613 137.15 68.739C136.646 68.928 136.205 69.054 135.764 69.18C135.26 69.369 134.756 69.495 134.315 69.558C133.811 69.684 133.433 69.81 133.181 69.81C132.929 69.873 132.614 69.999 132.11 70.125C131.606 70.314 131.039 70.503 130.535 70.629C129.968 70.818 129.464 70.944 129.023 71.07C128.519 71.259 128.141 71.322 127.952 71.322C127.448 71.322 127.07 71.07 126.881 70.692C126.629 70.314 126.44 69.936 126.377 69.432C126.377 69.306 126.314 68.991 126.314 68.55C126.251 68.172 126.188 67.731 126.188 67.227C126.125 66.849 126.062 66.408 126.062 66.03C125.999 65.652 125.999 65.4 126.062 65.211C126.062 64.896 126.251 64.707 126.629 64.581C126.881 64.518 127.133 64.644 127.259 64.896C127.448 65.589 127.7 66.03 128.078 66.282C128.393 66.534 129.149 66.66 130.409 66.66C130.661 66.66 131.165 66.66 131.858 66.597C132.488 66.597 133.118 66.534 133.874 66.408C134.504 66.345 135.197 66.282 135.827 66.156C136.394 66.156 136.835 66.093 137.087 65.967C137.969 65.841 138.914 65.715 140.048 65.589C140.237 65.589 140.552 65.589 140.93 65.589C141.245 65.652 141.56 65.715 141.938 65.715C142.316 65.778 142.694 65.841 143.135 65.841C143.198 65.841 143.324 65.841 143.45 65.778C143.702 65.715 143.954 65.526 144.206 65.211C144.458 64.959 144.836 64.896 145.34 64.896C145.781 65.022 146.285 65.211 146.789 65.463C146.915 65.589 147.104 65.652 147.356 65.715C147.545 65.841 147.734 65.967 147.986 66.093C148.175 66.282 148.364 66.471 148.553 66.597C148.679 66.786 148.679 66.975 148.679 67.227C148.616 67.794 148.49 68.361 148.238 68.865C147.986 69.432 147.293 69.999 146.222 70.629C145.088 71.259 143.891 71.7 142.568 71.952C141.182 72.204 139.985 72.519 139.04 72.834C138.725 72.96 138.347 73.023 137.969 73.149C137.465 73.338 136.961 73.464 136.457 73.59C135.449 74.094 134.819 74.409 134.63 74.598C134.378 74.787 134.378 74.913 134.693 74.976C134.945 75.102 135.386 75.165 135.953 75.165C136.457 75.228 136.961 75.228 137.591 75.228C138.095 75.228 138.536 75.228 138.788 75.228C139.229 75.228 139.544 75.165 139.733 74.976C139.859 74.85 140.111 74.661 140.363 74.409C140.552 74.22 140.867 74.094 141.245 73.968C141.56 73.968 142.127 73.968 142.883 73.968C143.639 74.031 144.206 74.094 144.71 74.22C145.151 74.346 145.529 74.472 145.844 74.472C145.97 74.472 146.096 74.535 146.348 74.661C146.537 74.787 146.726 74.976 146.852 75.102C146.915 75.354 146.915 75.543 146.789 75.795C146.663 76.11 146.285 76.425 145.781 76.74C145.403 76.992 144.836 77.244 144.08 77.559C143.324 77.937 142.505 78.252 141.623 78.693C140.678 79.071 139.733 79.449 138.788 79.89C137.78 80.268 136.898 80.583 136.142 80.961C135.26 81.276 134.567 81.591 134.063 81.843C133.496 82.032 133.181 82.158 133.055 82.284C132.677 82.473 132.614 82.725 132.74 82.977C132.866 83.229 133.118 83.355 133.622 83.481C133.874 83.481 134.315 83.607 135.008 83.859C135.638 83.985 136.331 84.237 137.087 84.489C137.843 84.678 138.536 84.867 139.229 85.119C139.859 85.308 140.363 85.434 140.678 85.497C141.119 85.56 141.686 85.623 142.442 85.623C143.072 85.623 143.828 85.56 144.584 85.56C145.277 85.497 145.97 85.434 146.663 85.371C147.293 85.245 147.734 85.182 148.112 85.119C148.49 84.993 148.931 84.93 149.435 84.867C149.876 84.741 150.38 84.678 150.884 84.615C151.325 84.489 151.766 84.426 152.144 84.426C152.522 84.363 152.774 84.363 152.963 84.363C153.089 84.363 153.404 84.3 153.845 84.3C154.223 84.237 154.664 84.237 155.105 84.237C155.483 84.237 155.861 84.237 156.239 84.3C156.491 84.3 156.617 84.426 156.617 84.615C156.491 84.993 156.617 85.245 156.932 85.434C157.184 85.56 157.436 85.623 157.688 85.623C157.814 85.623 158.003 85.623 158.318 85.686C158.57 85.686 158.57 85.938 158.192 86.442C157.814 86.883 157.373 87.261 156.869 87.513C156.302 87.765 155.798 87.891 155.294 88.017C154.916 88.08 154.349 88.206 153.593 88.395C152.774 88.521 151.955 88.647 151.136 88.836C150.254 88.962 149.435 89.088 148.679 89.214C147.86 89.277 147.23 89.34 146.852 89.34C145.907 89.34 144.773 89.277 143.387 89.214C141.938 89.088 140.678 88.899 139.67 88.584C139.103 88.395 138.473 88.206 137.78 87.954C137.024 87.639 136.268 87.387 135.638 87.135C134.882 86.883 134.252 86.631 133.748 86.442C133.118 86.19 132.74 86.064 132.551 85.938C132.047 85.749 131.543 85.686 131.039 85.812C130.472 85.812 129.842 85.875 129.149 85.875C128.393 85.875 127.763 85.749 127.322 85.56C126.818 85.308 126.629 84.804 126.755 84.111C126.818 83.355 126.944 82.725 127.07 82.095C127.196 81.402 127.511 81.087 128.141 81.087C128.708 81.087 129.275 81.15 129.842 81.276C130.346 81.339 130.85 81.276 131.354 81.087C131.795 80.835 132.362 80.646 132.992 80.52C133.559 80.268 134.126 80.016 134.756 79.638C135.26 79.26 135.512 79.071 135.512 79.008C135.512 78.882 135.197 78.819 134.63 78.819C134.252 78.819 133.748 78.819 133.118 78.819C132.362 78.819 131.669 78.756 131.039 78.63C130.283 78.504 129.716 78.315 129.212 78.063C128.708 77.811 128.456 77.433 128.582 76.929C128.582 76.425 128.645 76.047 128.708 75.795C128.708 75.543 128.771 75.354 128.897 75.165C128.96 75.039 129.086 74.85 129.275 74.724C129.401 74.661 129.59 74.472 129.905 74.22C130.094 74.094 130.535 73.842 131.291 73.527C131.984 73.275 132.803 73.023 133.811 72.645C134.693 72.33 135.701 71.952 136.772 71.511C137.78 71.133 138.788 70.755 139.67 70.377C140.048 70.188 140.615 69.936 141.245 69.621C141.812 69.369 142.253 68.991 142.505 68.613ZM122.597 58.911C122.345 58.911 122.156 58.848 121.967 58.785C121.715 58.785 121.4 58.659 121.022 58.533L121.211 59.478C121.211 59.982 121.148 60.36 121.148 60.738C121.022 61.116 120.77 61.431 120.329 61.62C119.825 61.809 119.384 61.809 118.943 61.683C118.439 61.62 117.998 61.305 117.557 60.675C117.179 60.234 116.801 59.541 116.36 58.659C115.856 57.777 115.415 56.832 114.974 55.824C114.47 54.816 113.966 53.871 113.588 52.863C113.084 51.918 112.769 51.099 112.517 50.469C112.202 49.839 111.95 49.272 111.761 48.705C111.509 48.201 111.383 47.697 111.257 47.193C111.068 46.689 110.942 46.185 110.879 45.681C110.753 45.177 110.627 44.61 110.627 43.98C110.501 43.35 110.501 42.909 110.627 42.657C110.69 42.468 110.816 42.342 111.005 42.342C111.131 42.405 111.257 42.468 111.446 42.594C111.572 42.783 111.761 42.909 111.887 43.035C112.202 43.413 112.643 43.791 113.147 44.295C113.651 44.862 114.092 45.114 114.47 45.114C114.659 45.114 114.974 45.177 115.352 45.24C115.73 45.366 116.108 45.492 116.486 45.681C116.864 45.933 117.179 46.185 117.557 46.437C117.872 46.815 118.061 47.193 118.187 47.697C118.376 48.705 118.565 49.65 118.691 50.532C118.817 51.54 118.943 52.17 119.132 52.548L119.825 54.753C119.951 54.816 120.077 54.942 120.329 55.131C120.518 55.383 120.707 55.509 120.959 55.635C121.211 55.887 121.526 56.076 122.03 56.139C122.408 56.265 122.849 56.265 123.353 56.265C123.794 56.328 124.298 56.328 124.802 56.265C125.243 56.265 125.684 56.202 126.062 56.139C127.574 55.95 128.645 55.572 129.212 55.068C129.716 54.564 130.031 53.745 130.157 52.485C130.22 51.288 130.22 50.028 130.22 48.768C130.157 47.571 130.157 46.689 130.157 46.185C130.157 45.681 129.968 45.303 129.59 45.051C129.212 44.799 128.519 44.799 127.637 44.925C127.133 45.051 126.566 45.114 125.873 45.177C125.117 45.303 124.361 45.366 123.668 45.366C122.912 45.492 122.219 45.555 121.589 45.555C120.959 45.681 120.518 45.681 120.266 45.681C120.014 45.681 119.699 45.681 119.447 45.555C119.069 45.555 118.817 45.429 118.691 45.303C118.502 45.177 118.439 45.051 118.502 44.862C118.502 44.736 118.754 44.547 119.258 44.295C119.699 44.106 120.266 43.854 120.896 43.602C121.526 43.413 122.156 43.161 122.849 42.909C123.479 42.72 124.046 42.468 124.676 42.216C125.18 41.964 125.621 41.712 125.936 41.46C126.503 40.893 127.07 40.326 127.637 39.759C128.141 39.255 128.771 38.94 129.653 38.94C130.409 38.94 131.165 39.066 131.921 39.255C132.551 39.507 133.496 39.633 134.693 39.696C135.197 39.759 135.701 39.885 136.205 40.074C136.583 40.326 136.898 40.641 137.15 40.956C137.276 41.334 137.339 41.712 137.276 42.09C137.15 42.594 136.772 43.035 136.268 43.476C135.701 43.98 135.26 44.295 135.008 44.547C134.63 44.862 134.441 45.177 134.315 45.429C134.189 45.807 134.126 46.185 134.126 46.563C134.126 47.067 134.126 47.634 134.252 48.39C134.378 49.902 134.441 51.099 134.441 52.044C134.441 53.052 134.441 53.808 134.441 54.375C134.441 55.068 134.252 55.572 134 55.824C133.685 56.202 133.307 56.58 132.803 57.021C132.551 57.273 132.362 57.588 132.236 57.84C132.047 58.155 131.921 58.407 131.795 58.659C131.669 58.974 131.48 59.226 131.354 59.352C131.165 59.604 130.976 59.73 130.724 59.73C130.472 59.793 129.905 59.793 129.086 59.667C128.204 59.604 127.259 59.478 126.314 59.352C125.18 59.226 123.983 59.1 122.597 58.911ZM162.602 49.65C162.602 49.839 162.665 50.028 162.728 50.217C162.728 50.469 162.791 50.721 162.791 50.91C162.791 51.162 162.728 51.351 162.602 51.477C162.413 51.666 162.161 51.792 161.846 51.855C161.153 52.107 160.271 52.17 159.263 52.17C158.129 52.17 157.247 52.17 156.554 52.044C156.239 52.044 155.798 52.044 155.231 52.044C154.601 52.107 154.034 52.17 153.404 52.17C152.774 52.233 152.144 52.296 151.577 52.296C150.947 52.422 150.506 52.485 150.254 52.485C150.191 52.485 150.191 52.485 150.191 52.485C150.128 52.548 150.065 52.548 150.065 52.548V52.8H150.002C150.002 53.43 149.939 54.06 149.939 54.627C149.876 55.257 149.813 55.698 149.813 56.076C149.75 56.58 149.624 57.084 149.498 57.651C149.246 58.281 149.057 58.848 148.805 59.352C148.553 59.982 148.238 60.486 147.986 60.927C147.671 61.431 147.419 61.746 147.167 61.935C146.915 62.187 146.6 62.376 146.348 62.502C145.97 62.754 145.718 62.88 145.466 62.88C145.151 63.006 144.962 62.943 144.836 62.817C144.71 62.691 144.71 62.439 144.899 61.935C145.025 61.62 145.088 61.116 145.151 60.423C145.151 59.793 145.214 58.974 145.277 58.092C145.277 57.273 145.34 56.391 145.34 55.446C145.277 54.564 145.277 53.682 145.277 52.8H145.214C145.151 51.099 145.151 49.587 145.151 48.264C145.088 47.004 145.088 46.374 145.214 46.248C145.34 46.059 145.529 45.933 145.718 45.933C145.844 45.996 145.907 45.87 146.033 45.555C146.033 45.429 146.033 45.24 145.97 45.114C145.844 44.988 145.781 44.862 145.718 44.673C145.592 44.547 145.466 44.295 145.403 44.043C145.277 43.854 145.277 43.602 145.34 43.224C145.403 42.783 145.466 42.279 145.466 41.649C145.466 41.145 145.466 40.578 145.466 40.011C145.403 39.381 145.403 38.877 145.403 38.436C145.403 38.058 145.403 37.743 145.466 37.428C145.466 37.176 145.466 36.924 145.466 36.672C145.466 36.483 145.466 36.231 145.466 35.979C145.34 35.538 145.34 35.034 145.34 34.467C145.277 33.963 145.025 33.522 144.521 33.081C144.017 32.703 143.576 32.451 143.198 32.262C142.694 32.136 142.253 31.947 141.875 31.695C141.623 31.569 141.497 31.443 141.497 31.191C141.434 31.002 141.497 30.813 141.623 30.561C141.686 30.435 141.875 30.246 142.127 30.12C142.379 30.057 142.694 30.057 143.135 30.12C143.387 30.246 143.765 30.372 144.395 30.498C144.899 30.687 145.529 30.876 146.222 31.065C146.852 31.317 147.545 31.506 148.238 31.632C148.868 31.821 149.435 31.947 149.813 32.01C150.38 32.199 150.821 32.388 151.199 32.514C151.514 32.766 151.577 33.144 151.388 33.774C151.136 34.467 150.947 35.16 150.758 35.916C150.506 36.672 150.38 37.491 150.38 38.31C150.38 38.94 150.38 39.57 150.38 40.326C150.317 41.082 150.317 41.901 150.317 42.657C150.317 43.224 150.254 44.232 150.191 45.618C150.065 47.067 150.065 48.579 150.065 50.217L151.325 49.965C151.829 49.839 152.207 49.776 152.585 49.65C152.837 49.587 153.089 49.524 153.341 49.398C153.467 49.398 153.656 49.272 153.908 49.146C154.034 49.083 154.286 48.957 154.538 48.831C155.042 48.579 155.546 48.39 156.05 48.201C156.491 48.075 156.995 48.012 157.499 48.138C158.066 48.264 158.633 48.264 159.2 48.138C159.704 48.075 160.082 48.012 160.397 48.012C160.901 48.012 161.342 48.138 161.846 48.39C162.224 48.768 162.476 49.146 162.602 49.65Z" fill="white"/>
<rect x="180.5" y="0.5" width="90" height="120" fill="#F6C500"/>
<rect x="180.5" y="0.5" width="90" height="120" stroke="black"/>
<path d="M219.252 75.669C220.134 75.417 221.016 74.976 221.835 74.472C222.591 74.031 223.284 73.527 223.977 72.897C224.607 72.393 225.237 71.763 225.804 71.133C226.308 70.566 226.875 69.999 227.379 69.495C228.198 68.613 228.891 67.794 229.458 67.038C229.962 66.345 230.277 65.778 230.529 65.274C230.781 64.77 230.907 64.266 231.033 63.825C231.033 63.447 230.718 63.321 230.025 63.447V63.384C229.836 63.51 229.71 63.51 229.584 63.51C228.702 63.762 228.009 64.014 227.442 64.266C226.812 64.581 226.308 64.833 225.804 65.085C225.237 65.337 224.67 65.589 224.166 65.715C223.599 65.904 222.969 66.03 222.339 66.03C220.89 66.156 219.693 66.156 218.748 66.03C217.74 65.967 216.921 65.715 216.291 65.274C215.661 64.896 215.22 64.266 215.031 63.447C214.779 62.691 214.653 61.683 214.779 60.36C214.905 59.1 215.157 57.84 215.598 56.58C215.976 55.32 216.165 54.312 216.291 53.556C216.039 53.43 215.85 53.304 215.661 53.178C215.409 53.052 215.22 52.926 215.157 52.8C215.031 52.674 214.968 52.548 215.094 52.359C215.157 52.233 215.409 52.107 215.913 51.855C215.787 51.666 215.598 51.477 215.409 51.288C215.157 51.162 214.968 50.973 214.779 50.721C214.023 50.217 213.645 49.776 213.645 49.398C213.582 49.083 213.96 48.957 214.842 49.02C215.661 49.146 216.543 49.335 217.425 49.65C218.307 50.028 219.063 50.343 219.693 50.721V50.784C220.449 50.658 221.331 50.469 222.213 50.28C223.032 50.154 223.851 49.965 224.607 49.839C225.363 49.713 226.056 49.587 226.686 49.461C227.253 49.398 227.694 49.335 228.009 49.209C228.387 49.083 228.702 49.02 229.017 48.894C229.269 48.894 229.458 48.768 229.71 48.642C229.899 48.516 230.088 48.39 230.277 48.138C230.403 47.949 230.529 47.634 230.718 47.193C231.033 46.374 231.348 45.492 231.663 44.547C231.915 43.665 232.104 42.909 232.293 42.279C232.293 42.153 232.293 42.027 232.356 41.775C232.356 41.586 232.293 41.397 232.293 41.145C232.167 41.019 232.041 40.893 231.852 40.767C231.6 40.704 231.285 40.767 230.907 40.893C230.403 41.082 229.584 41.271 228.45 41.523C227.19 41.775 225.93 42.027 224.607 42.279C223.221 42.594 222.024 42.846 220.953 43.035C219.819 43.287 219.126 43.539 218.874 43.665C218.307 43.917 217.677 44.169 216.921 44.421C216.165 44.736 215.535 44.736 215.094 44.358C214.59 44.106 214.212 43.728 213.897 43.35C213.519 42.972 213.204 42.594 212.889 42.09C212.511 41.712 212.511 41.397 212.763 41.145C212.952 41.019 213.33 40.893 213.834 40.83C214.338 40.83 214.968 40.83 215.661 40.767C216.291 40.767 217.047 40.641 217.929 40.389C218.244 40.389 219.126 40.2 220.575 39.948C221.961 39.696 223.473 39.444 225.111 39.066C226.749 38.814 228.261 38.499 229.71 38.121C231.096 37.869 231.915 37.617 232.293 37.491C232.923 37.239 233.616 37.113 234.372 37.05C235.002 37.05 235.632 37.113 236.199 37.365C236.766 37.617 237.333 37.869 237.9 38.184C238.404 38.562 238.782 38.94 239.034 39.255C239.286 39.885 239.412 40.578 239.412 41.271C239.412 41.712 239.223 42.153 238.845 42.594C238.404 43.098 238.026 43.413 237.711 43.602C237.585 43.728 237.396 43.917 237.207 44.169C236.955 44.547 236.703 44.862 236.514 45.24C236.262 45.681 236.01 46.059 235.821 46.437C235.569 46.878 235.317 47.193 235.191 47.445C234.939 47.823 234.876 48.012 235.065 48.075C235.191 48.201 235.38 48.201 235.758 48.201C236.01 48.201 236.325 48.138 236.703 48.138C237.018 48.201 237.207 48.453 237.333 48.894C237.396 49.398 237.333 49.713 237.144 49.965C236.892 50.28 236.577 50.595 236.262 50.91C235.821 51.225 235.317 51.351 234.75 51.351C234.12 51.414 233.427 51.477 232.734 51.603C232.104 51.729 231.348 51.792 230.466 51.918C229.521 52.044 228.576 52.233 227.631 52.359C226.623 52.548 225.678 52.737 224.796 52.863C223.914 53.052 223.221 53.241 222.843 53.367C222.339 53.556 221.898 53.808 221.394 54.06L221.016 55.131C220.701 55.824 220.449 56.58 220.197 57.336C219.945 58.155 219.693 58.911 219.504 59.604C219.126 60.801 219.315 61.494 220.008 61.683C220.638 61.935 221.583 62.061 222.969 61.935C223.725 61.935 224.544 61.809 225.363 61.557C226.119 61.368 226.812 61.179 227.442 60.927C228.009 60.801 228.513 60.612 228.891 60.486C229.206 60.36 229.332 60.36 229.332 60.36C229.521 60.234 229.899 60.045 230.466 59.793C230.97 59.541 231.6 59.289 232.356 59.037C233.049 58.848 233.805 58.659 234.561 58.407C235.254 58.281 235.884 58.155 236.514 58.155C236.892 58.155 237.333 58.281 237.837 58.407C238.215 58.659 238.593 58.848 238.971 59.1C239.286 59.352 239.601 59.604 239.853 59.856C240.105 60.108 240.231 60.297 240.294 60.36C240.357 60.486 240.42 60.675 240.42 60.864C240.42 61.116 240.357 61.368 240.231 61.62C240.105 61.872 239.853 62.124 239.601 62.313C239.286 62.565 238.908 62.691 238.404 62.691H238.341C237.963 62.88 237.711 63.069 237.459 63.258C237.144 63.51 236.829 63.825 236.514 64.14C236.073 64.644 235.569 65.148 235.065 65.652C234.498 66.219 233.994 66.723 233.553 67.164C233.049 67.668 232.608 68.109 232.23 68.424C231.852 68.802 231.6 69.054 231.474 69.18C231.222 69.495 230.844 69.873 230.403 70.251C229.899 70.755 229.458 71.196 229.08 71.574C228.576 72.078 228.198 72.456 227.82 72.834C227.379 73.275 227.127 73.59 227.001 73.716C226.749 74.031 226.56 74.283 226.497 74.535C226.371 74.787 226.56 74.976 227.127 75.039L236.451 74.535C237.585 74.535 238.719 74.346 239.853 73.968C240.861 73.716 241.68 73.464 242.31 73.212C242.814 73.086 243.381 73.086 244.011 73.086C244.578 73.149 245.208 73.212 245.838 73.338C246.405 73.464 246.972 73.653 247.539 73.779C248.043 73.968 248.421 74.094 248.736 74.22C249.24 74.535 249.681 74.787 250.059 74.976C250.437 75.228 250.815 75.606 251.319 76.047C251.76 76.488 251.949 76.929 251.823 77.37C251.697 77.874 251.319 78.063 250.689 78.126C250.311 78.126 249.807 78.126 249.114 78.126C248.358 78.063 247.665 78.063 246.909 78.063C246.09 78 245.334 78 244.704 78.063C243.948 78.063 243.507 78.063 243.255 78.126C242.94 78.126 242.562 78.126 242.184 78.126C241.68 78 241.239 77.937 240.861 77.811C240.357 77.748 239.979 77.622 239.601 77.496C239.223 77.433 238.908 77.37 238.656 77.307C238.404 77.307 237.774 77.244 236.829 77.181C235.821 77.181 234.624 77.181 233.364 77.181C232.041 77.181 230.718 77.181 229.458 77.181C228.072 77.244 227.001 77.307 226.119 77.37C224.04 77.559 222.024 77.811 220.008 78.063C217.992 78.315 216.039 78.693 214.149 79.197C212.826 79.449 211.944 79.638 211.44 79.827C210.873 79.953 210.432 80.205 210.117 80.583C209.802 80.898 209.487 81.087 209.235 81.213C208.857 81.213 208.353 81.15 207.66 80.961C207.282 80.835 206.778 80.772 206.022 80.646C205.266 80.52 204.447 80.394 203.628 80.268C202.746 80.079 201.99 79.953 201.36 79.827C200.604 79.638 200.163 79.512 199.974 79.449C199.722 79.386 199.533 79.26 199.407 79.071C199.218 78.819 199.155 78.567 199.155 78.378C199.155 78.126 199.218 77.937 199.47 77.748C199.596 77.622 199.911 77.559 200.415 77.559C200.793 77.622 201.36 77.622 201.99 77.496C202.557 77.433 203.124 77.307 203.754 77.181C204.006 77.118 204.384 76.992 204.951 76.866C205.455 76.74 206.022 76.614 206.652 76.488C207.219 76.362 207.849 76.299 208.479 76.173C209.109 76.11 209.613 76.047 210.117 76.047C210.621 76.11 211.188 76.173 211.818 76.236C212.448 76.362 213.015 76.425 213.645 76.425C213.96 76.425 214.653 76.362 215.724 76.173C216.732 76.047 217.929 75.921 219.252 75.669Z" fill="white"/>
</svg>
