<svg width="91" height="121" viewBox="0 0 91 121" fill="none" xmlns="http://www.w3.org/2000/svg">
<rect x="0.5" y="0.5" width="90" height="120" fill="#F6C500"/>
<rect x="0.5" y="0.5" width="90" height="120" stroke="black"/>
<path d="M63.6972 43.287C63.6972 43.665 63.6342 44.106 63.6342 44.673C63.5712 45.303 63.5712 45.996 63.5712 46.626C63.5082 47.319 63.5082 47.949 63.5082 48.516C63.4452 49.146 63.4452 49.65 63.4452 49.965C63.4452 50.658 63.4452 51.225 63.5082 51.729C63.5082 52.296 63.5082 52.8 63.5082 53.304C63.5082 53.871 63.5082 54.438 63.5712 55.005C63.5712 55.635 63.5712 56.391 63.5712 57.21C63.5712 57.84 63.5712 58.533 63.6342 59.289C63.6342 60.108 63.6342 60.864 63.6342 61.62C63.6342 62.439 63.6342 63.195 63.6342 63.888C63.5712 64.644 63.5712 65.337 63.5712 65.841C63.4452 68.109 63.4452 69.936 63.4452 71.448C63.3822 73.023 63.3822 74.094 63.3822 74.661C63.3822 75.669 63.2562 76.74 63.1302 77.937C62.8782 79.134 62.6892 80.331 62.4372 81.465C62.1222 82.599 61.8072 83.607 61.5552 84.552C61.1772 85.434 60.9252 86.127 60.6732 86.505C60.4212 86.883 60.1062 87.324 59.8542 87.765C59.4762 88.143 59.2242 88.395 58.9722 88.584C58.6572 88.71 58.4682 88.647 58.3422 88.395C58.2162 88.08 58.2162 87.45 58.4052 86.505C58.5312 85.56 58.6572 84.111 58.7832 82.158C58.7832 80.142 58.8462 78 58.9092 75.669C58.9092 73.401 58.9092 71.133 58.9092 68.865C58.8462 66.66 58.8462 64.833 58.8462 63.447C58.9092 62.376 58.9092 61.242 58.8462 60.108C58.7202 58.974 58.7202 57.651 58.7202 56.013C58.6572 55.005 58.6572 53.934 58.6572 52.8C58.5942 51.729 58.5942 50.721 58.5942 49.839C58.5942 49.02 58.5942 48.327 58.5942 47.76C58.5942 47.256 58.5942 46.941 58.6572 46.878C58.7832 46.752 58.9722 46.626 59.1612 46.626C59.2872 46.626 59.3502 46.5 59.4762 46.185C59.4762 46.059 59.4762 45.87 59.4132 45.744C59.2872 45.618 59.2242 45.492 59.1612 45.303C59.0352 45.177 58.9092 44.988 58.8462 44.736C58.7202 44.547 58.7202 44.295 58.7832 43.917C58.8462 43.476 58.9092 42.972 58.9092 42.342C58.8462 41.838 58.8462 41.271 58.8462 40.641C58.7832 39.381 58.7832 38.436 58.9092 37.743C58.9092 37.113 58.9092 36.546 58.8462 35.916C58.7832 35.475 58.7832 34.971 58.7832 34.404C58.7202 33.9 58.4682 33.459 57.9642 33.018C57.4602 32.64 57.0192 32.388 56.5782 32.199C56.0742 32.073 55.6962 31.884 55.3182 31.632C55.0662 31.506 54.9402 31.38 54.9402 31.128C54.8772 30.939 54.9402 30.75 55.0662 30.498C55.1292 30.372 55.3182 30.183 55.5702 30.057C55.8222 29.994 56.1372 29.994 56.5782 30.12C56.7672 30.246 57.1452 30.309 57.7752 30.435C58.2792 30.624 58.9092 30.813 59.6652 30.939C60.2952 31.191 60.9882 31.38 61.6812 31.506C62.3112 31.695 62.8152 31.821 63.2562 31.884C63.8232 32.073 64.2642 32.262 64.6422 32.388C64.9572 32.64 65.0202 33.018 64.8312 33.648C64.5792 34.341 64.3902 35.034 64.2012 35.79C63.9492 36.609 63.8232 37.428 63.8232 38.31C63.8232 38.877 63.7602 39.633 63.7602 40.641C63.6972 41.649 63.6972 42.531 63.6972 43.287ZM31.9452 63.51C32.0712 64.518 32.1972 65.337 32.3232 65.904C32.3862 66.534 32.5122 66.975 32.7012 67.227C32.8272 67.605 33.0162 67.731 33.3312 67.731C33.5832 67.794 33.9612 67.731 34.4652 67.605C34.9692 67.479 35.5992 67.29 36.4182 66.975C37.1742 66.723 37.9302 66.345 38.7492 65.967C39.5052 65.652 40.2612 65.274 40.9542 64.896C41.5842 64.518 42.0882 64.203 42.3402 63.951C42.8442 63.447 43.4112 62.943 44.0412 62.502C44.6082 62.124 45.1752 62.061 45.7422 62.313L45.9942 62.502C46.1202 62.061 46.2462 61.683 46.3722 61.305C46.4352 61.053 46.4982 60.801 46.6242 60.675C46.7502 60.486 47.0652 60.234 47.4432 59.982C47.7582 59.793 48.1362 59.604 48.6402 59.352C49.0182 59.226 49.4592 59.1 49.9632 58.974C50.4042 58.974 50.7822 58.974 51.1602 59.1C51.8532 59.415 52.4202 59.856 52.9242 60.486C53.3022 61.179 53.5542 61.872 53.6802 62.565C53.6802 62.943 53.7432 63.195 53.7432 63.384C53.6802 63.636 53.6172 63.762 53.5542 63.888C53.4282 64.014 53.2392 64.14 53.1132 64.266C52.8612 64.392 52.6722 64.581 52.4202 64.77C51.9162 65.148 51.4122 65.526 50.9712 65.904C50.4672 66.345 50.1522 66.723 49.9002 66.975C49.6482 67.227 49.3332 67.479 48.9552 67.605C48.5772 67.857 48.1362 67.92 47.6952 67.92C47.1912 67.983 46.8762 68.046 46.8132 68.172C46.6872 68.361 46.5612 68.613 46.3092 68.865C46.0572 69.18 45.7422 69.306 45.3642 69.243C44.8602 69.243 44.7342 69.054 44.8602 68.55C44.8602 68.424 44.9232 68.046 45.0492 67.542C45.0492 67.038 45.1752 66.471 45.3012 65.841C44.2932 66.345 43.2852 66.849 42.2142 67.353C41.0802 67.983 40.3242 68.487 39.9462 68.865C39.5682 69.243 39.1902 69.558 38.7492 69.81C38.2452 70.125 37.7412 70.377 37.2372 70.629C36.6702 70.944 36.1662 71.196 35.6622 71.385C35.1582 71.637 34.7172 71.826 34.4022 71.952C33.8352 72.141 33.3312 72.141 32.8902 72.015C32.1342 71.889 31.5042 71.637 30.8742 71.322C30.1812 71.07 29.6142 70.566 29.1102 69.81C28.4172 68.928 27.9762 67.731 27.7242 66.093C27.4092 64.581 27.2202 62.88 27.1572 61.116C27.0312 59.352 27.0312 57.651 27.1572 55.95C27.1572 54.312 27.2202 52.989 27.2202 51.855C27.2202 50.91 27.1572 50.154 27.0942 49.587C26.9682 49.083 26.7792 48.642 26.6532 48.264C26.4012 47.949 26.2122 47.697 25.9602 47.445C25.6452 47.319 25.3302 47.067 25.0152 46.815C24.3222 46.374 24.0702 45.933 24.2592 45.492C24.3852 45.114 24.7002 45.051 25.3302 45.24C25.5822 45.366 26.0232 45.492 26.6532 45.681C27.1572 45.933 27.7872 46.185 28.4172 46.437C28.9842 46.689 29.5512 46.941 30.1182 47.193C30.6222 47.445 31.0632 47.634 31.3152 47.76C31.7562 48.012 32.0712 48.327 32.1972 48.831C32.2602 49.398 32.2602 50.406 32.1342 51.855C31.8822 54.375 31.6932 56.58 31.6932 58.533C31.6302 60.549 31.6932 62.187 31.9452 63.51Z" fill="white"/>
</svg>
