<svg width="451" height="151" viewBox="0 0 451 151" fill="none" xmlns="http://www.w3.org/2000/svg">
<rect x="0.5" y="0.5" width="90" height="120" fill="#F6C500"/>
<rect x="0.5" y="0.5" width="90" height="120" stroke="black"/>
<path d="M37.1333 48.075C37.9523 48.201 38.8343 48.327 39.7793 48.579C40.6613 48.894 41.4803 49.335 42.2993 49.902C43.0553 50.532 43.7483 51.225 44.3153 52.107C44.8193 53.052 45.0713 54.186 45.1973 55.446C45.1973 56.076 45.1973 56.454 45.1973 56.706C45.1343 56.958 45.0713 57.147 45.0713 57.273C44.9453 57.399 44.8823 57.525 44.8193 57.525C44.6933 57.588 44.5673 57.651 44.5673 57.777C44.5043 57.903 44.5043 58.029 44.5673 58.029C44.5673 58.155 44.6303 58.218 44.7563 58.344C44.7563 58.47 44.8193 58.659 44.8823 58.848C44.8823 59.1 44.8823 59.478 44.7563 59.856C44.3783 61.053 43.9373 62.313 43.3703 63.573C42.7403 64.959 41.7953 66.03 40.5983 66.849C39.9683 67.353 39.2123 67.731 38.4563 67.92C37.6373 68.172 36.8813 68.361 36.1253 68.424C35.3063 68.55 34.6133 68.55 33.9833 68.55C33.2903 68.55 32.7863 68.55 32.4083 68.55C31.4003 68.424 30.4553 68.172 29.5733 67.794C28.5653 67.479 27.7463 67.164 27.0533 66.786C25.7933 66.156 24.9113 65.274 24.2813 64.14C23.6513 63.069 23.2103 61.935 23.0213 60.738C22.7693 59.604 22.7693 58.407 22.8953 57.273C23.0213 56.202 23.2103 55.32 23.5883 54.564C23.9033 53.745 24.4073 52.863 25.1633 51.918C25.7933 51.036 26.7383 50.28 27.8723 49.524C27.6203 48.894 27.4313 48.201 27.1793 47.571C26.9273 47.004 26.6753 46.563 26.4233 46.248C26.1713 45.996 25.9823 45.744 25.9823 45.492C25.9193 45.24 25.9823 45.051 26.1083 44.862C26.2343 44.736 26.4233 44.61 26.6753 44.547C26.8643 44.547 27.1163 44.673 27.4313 44.862C27.6833 45.051 27.9353 45.177 28.1873 45.303C28.3763 45.492 28.6283 45.618 28.8803 45.744C29.1323 45.87 29.3843 45.996 29.7623 46.122C30.0143 46.311 30.3923 46.5 30.8963 46.689C31.2743 46.941 31.5893 47.256 31.9043 47.634C32.1563 48.075 32.4083 48.516 32.5973 49.02C33.1013 48.831 33.7313 48.579 34.5503 48.327C35.3063 48.138 36.1253 48.075 37.1333 48.075ZM72.9173 59.73C72.9173 60.108 72.9803 60.549 72.9803 60.99C72.9803 61.494 72.6023 61.809 71.9093 61.935C71.2163 62.061 70.3343 62.061 69.3263 61.935C68.2553 61.809 67.3733 61.683 66.6173 61.494C66.3023 61.494 65.8613 61.431 65.2943 61.368C64.6643 61.368 64.0973 61.368 63.4673 61.368C62.8373 61.368 62.2073 61.368 61.6403 61.368C61.0103 61.431 60.5693 61.431 60.3173 61.431H60.1913C60.1913 62.313 60.1913 63.069 60.1913 63.825C60.1283 64.581 60.1283 65.274 60.1283 65.841C60.0023 68.109 60.0023 69.936 60.0023 71.448C59.9393 73.023 59.9393 74.094 59.9393 74.661C59.9393 75.669 59.8133 76.74 59.6873 77.937C59.4353 79.134 59.2463 80.331 58.9943 81.465C58.6793 82.599 58.3643 83.607 58.1123 84.552C57.7343 85.434 57.4823 86.127 57.2303 86.505C56.9783 86.883 56.6633 87.324 56.4113 87.765C56.0333 88.143 55.7813 88.395 55.5293 88.584C55.2143 88.71 55.0253 88.647 54.8993 88.395C54.7733 88.08 54.7733 87.45 54.9623 86.505C55.0883 85.56 55.2143 84.111 55.3403 82.158C55.3403 80.142 55.4033 78 55.4663 75.669C55.4663 73.401 55.4663 71.133 55.4663 68.865C55.4033 66.66 55.4033 64.833 55.4033 63.447C55.4663 62.376 55.4663 61.242 55.4033 60.108C55.2773 58.974 55.2773 57.651 55.2773 56.013C55.2143 55.005 55.2143 53.934 55.2143 52.8C55.1513 51.729 55.1513 50.721 55.1513 49.839C55.1513 49.02 55.1513 48.327 55.1513 47.76C55.1513 47.256 55.1513 46.941 55.2143 46.878C55.3403 46.752 55.5293 46.626 55.7183 46.626C55.8443 46.626 55.9073 46.5 56.0333 46.185C56.0333 46.059 56.0333 45.87 55.9703 45.744C55.8443 45.618 55.7813 45.492 55.7183 45.303C55.5923 45.177 55.4663 44.988 55.4033 44.736C55.2773 44.547 55.2773 44.295 55.3403 43.917C55.4033 43.476 55.4663 42.972 55.4663 42.342C55.4033 41.838 55.4033 41.271 55.4033 40.641C55.3403 39.381 55.3403 38.436 55.4663 37.743C55.4663 37.113 55.4663 36.546 55.4033 35.916C55.3403 35.475 55.3403 34.971 55.3403 34.404C55.2773 33.9 55.0253 33.459 54.5213 33.018C54.0173 32.64 53.5763 32.388 53.1353 32.199C52.6313 32.073 52.2533 31.884 51.8753 31.632C51.6233 31.506 51.4973 31.38 51.4973 31.128C51.4343 30.939 51.4973 30.75 51.6233 30.498C51.6863 30.372 51.8753 30.183 52.1273 30.057C52.3793 29.994 52.6943 29.994 53.1353 30.12C53.3243 30.246 53.7023 30.309 54.3323 30.435C54.8363 30.624 55.4663 30.813 56.2223 30.939C56.8523 31.191 57.5453 31.38 58.2383 31.506C58.8683 31.695 59.3723 31.821 59.8133 31.884C60.3803 32.073 60.8213 32.262 61.1993 32.388C61.5143 32.64 61.5773 33.018 61.3883 33.648C61.1363 34.341 60.9473 35.034 60.7583 35.79C60.5063 36.609 60.3803 37.428 60.3803 38.31C60.3803 38.877 60.3173 39.633 60.3173 40.641C60.2543 41.649 60.2543 42.531 60.2543 43.287C60.2543 43.665 60.1913 44.106 60.1913 44.673C60.1283 45.303 60.1283 45.996 60.1283 46.626C60.0653 47.319 60.0653 47.949 60.0653 48.516C60.0023 49.146 60.0023 49.65 60.0023 49.965C60.0023 50.658 60.0023 51.225 60.0653 51.729C60.0653 52.296 60.0653 52.8 60.0653 53.304C60.0653 53.871 60.0653 54.438 60.1283 55.005C60.1283 55.635 60.1283 56.391 60.1283 57.21V59.226L61.7033 59.037C62.2073 58.974 62.5853 58.911 62.9633 58.785C63.2153 58.785 63.4673 58.722 63.7193 58.596C63.9083 58.596 64.0973 58.533 64.3493 58.407C64.4753 58.407 64.7273 58.281 64.9793 58.155C65.5463 57.966 66.0503 57.777 66.5543 57.651C66.9323 57.525 67.4363 57.588 68.0033 57.777C68.5073 58.029 69.0113 58.029 69.6413 57.903C70.1453 57.84 70.5863 57.84 70.9013 57.84C71.3423 57.903 71.7833 58.092 72.2243 58.407C72.6023 58.785 72.8543 59.226 72.9173 59.73ZM31.7153 52.863C31.1483 53.367 30.7073 53.619 30.3293 53.682C29.8883 53.808 29.5103 53.808 29.2583 53.682C28.6283 53.745 28.1243 54.123 27.8093 54.816C27.4313 55.572 27.1793 56.202 27.1163 56.832C26.9903 57.588 26.9903 58.281 27.0533 58.974C27.0533 59.73 27.2423 60.36 27.5573 60.99C27.8093 61.62 28.1873 62.187 28.8173 62.691C29.3843 63.195 30.2033 63.573 31.2113 63.825C32.4713 64.203 33.6053 64.266 34.7393 64.14C35.7473 64.014 36.7553 63.762 37.7003 63.384C38.8973 62.439 39.6533 61.368 40.0313 60.108C40.3463 58.974 40.5353 57.651 40.6613 56.265C40.7243 54.816 40.3463 53.556 39.5903 52.422C38.7713 51.351 37.7003 50.658 36.3143 50.406C35.8103 50.343 35.2433 50.343 34.6133 50.343C33.9203 50.406 33.3533 50.406 32.8493 50.406C32.8493 51.414 32.4713 52.233 31.7153 52.863Z" fill="white"/>
<rect x="90.5" y="30.5" width="90" height="120" fill="#F6C500"/>
<rect x="90.5" y="30.5" width="90" height="120" stroke="black"/>
<path d="M153.697 73.287C153.697 73.665 153.634 74.106 153.634 74.673C153.571 75.303 153.571 75.996 153.571 76.626C153.508 77.319 153.508 77.949 153.508 78.516C153.445 79.146 153.445 79.65 153.445 79.965C153.445 80.658 153.445 81.225 153.508 81.729C153.508 82.296 153.508 82.8 153.508 83.304C153.508 83.871 153.508 84.438 153.571 85.005C153.571 85.635 153.571 86.391 153.571 87.21C153.571 87.84 153.571 88.533 153.634 89.289C153.634 90.108 153.634 90.864 153.634 91.62C153.634 92.439 153.634 93.195 153.634 93.888C153.571 94.644 153.571 95.337 153.571 95.841C153.445 98.109 153.445 99.936 153.445 101.448C153.382 103.023 153.382 104.094 153.382 104.661C153.382 105.669 153.256 106.74 153.13 107.937C152.878 109.134 152.689 110.331 152.437 111.465C152.122 112.599 151.807 113.607 151.555 114.552C151.177 115.434 150.925 116.127 150.673 116.505C150.421 116.883 150.106 117.324 149.854 117.765C149.476 118.143 149.224 118.395 148.972 118.584C148.657 118.71 148.468 118.647 148.342 118.395C148.216 118.08 148.216 117.45 148.405 116.505C148.531 115.56 148.657 114.111 148.783 112.158C148.783 110.142 148.846 108 148.909 105.669C148.909 103.401 148.909 101.133 148.909 98.865C148.846 96.66 148.846 94.833 148.846 93.447C148.909 92.376 148.909 91.242 148.846 90.108C148.72 88.974 148.72 87.651 148.72 86.013C148.657 85.005 148.657 83.934 148.657 82.8C148.594 81.729 148.594 80.721 148.594 79.839C148.594 79.02 148.594 78.327 148.594 77.76C148.594 77.256 148.594 76.941 148.657 76.878C148.783 76.752 148.972 76.626 149.161 76.626C149.287 76.626 149.35 76.5 149.476 76.185C149.476 76.059 149.476 75.87 149.413 75.744C149.287 75.618 149.224 75.492 149.161 75.303C149.035 75.177 148.909 74.988 148.846 74.736C148.72 74.547 148.72 74.295 148.783 73.917C148.846 73.476 148.909 72.972 148.909 72.342C148.846 71.838 148.846 71.271 148.846 70.641C148.783 69.381 148.783 68.436 148.909 67.743C148.909 67.113 148.909 66.546 148.846 65.916C148.783 65.475 148.783 64.971 148.783 64.404C148.72 63.9 148.468 63.459 147.964 63.018C147.46 62.64 147.019 62.388 146.578 62.199C146.074 62.073 145.696 61.884 145.318 61.632C145.066 61.506 144.94 61.38 144.94 61.128C144.877 60.939 144.94 60.75 145.066 60.498C145.129 60.372 145.318 60.183 145.57 60.057C145.822 59.994 146.137 59.994 146.578 60.12C146.767 60.246 147.145 60.309 147.775 60.435C148.279 60.624 148.909 60.813 149.665 60.939C150.295 61.191 150.988 61.38 151.681 61.506C152.311 61.695 152.815 61.821 153.256 61.884C153.823 62.073 154.264 62.262 154.642 62.388C154.957 62.64 155.02 63.018 154.831 63.648C154.579 64.341 154.39 65.034 154.201 65.79C153.949 66.609 153.823 67.428 153.823 68.31C153.823 68.877 153.76 69.633 153.76 70.641C153.697 71.649 153.697 72.531 153.697 73.287ZM121.945 93.51C122.071 94.518 122.197 95.337 122.323 95.904C122.386 96.534 122.512 96.975 122.701 97.227C122.827 97.605 123.016 97.731 123.331 97.731C123.583 97.794 123.961 97.731 124.465 97.605C124.969 97.479 125.599 97.29 126.418 96.975C127.174 96.723 127.93 96.345 128.749 95.967C129.505 95.652 130.261 95.274 130.954 94.896C131.584 94.518 132.088 94.203 132.34 93.951C132.844 93.447 133.411 92.943 134.041 92.502C134.608 92.124 135.175 92.061 135.742 92.313L135.994 92.502C136.12 92.061 136.246 91.683 136.372 91.305C136.435 91.053 136.498 90.801 136.624 90.675C136.75 90.486 137.065 90.234 137.443 89.982C137.758 89.793 138.136 89.604 138.64 89.352C139.018 89.226 139.459 89.1 139.963 88.974C140.404 88.974 140.782 88.974 141.16 89.1C141.853 89.415 142.42 89.856 142.924 90.486C143.302 91.179 143.554 91.872 143.68 92.565C143.68 92.943 143.743 93.195 143.743 93.384C143.68 93.636 143.617 93.762 143.554 93.888C143.428 94.014 143.239 94.14 143.113 94.266C142.861 94.392 142.672 94.581 142.42 94.77C141.916 95.148 141.412 95.526 140.971 95.904C140.467 96.345 140.152 96.723 139.9 96.975C139.648 97.227 139.333 97.479 138.955 97.605C138.577 97.857 138.136 97.92 137.695 97.92C137.191 97.983 136.876 98.046 136.813 98.172C136.687 98.361 136.561 98.613 136.309 98.865C136.057 99.18 135.742 99.306 135.364 99.243C134.86 99.243 134.734 99.054 134.86 98.55C134.86 98.424 134.923 98.046 135.049 97.542C135.049 97.038 135.175 96.471 135.301 95.841C134.293 96.345 133.285 96.849 132.214 97.353C131.08 97.983 130.324 98.487 129.946 98.865C129.568 99.243 129.19 99.558 128.749 99.81C128.245 100.125 127.741 100.377 127.237 100.629C126.67 100.944 126.166 101.196 125.662 101.385C125.158 101.637 124.717 101.826 124.402 101.952C123.835 102.141 123.331 102.141 122.89 102.015C122.134 101.889 121.504 101.637 120.874 101.322C120.181 101.07 119.614 100.566 119.11 99.81C118.417 98.928 117.976 97.731 117.724 96.093C117.409 94.581 117.22 92.88 117.157 91.116C117.031 89.352 117.031 87.651 117.157 85.95C117.157 84.312 117.22 82.989 117.22 81.855C117.22 80.91 117.157 80.154 117.094 79.587C116.968 79.083 116.779 78.642 116.653 78.264C116.401 77.949 116.212 77.697 115.96 77.445C115.645 77.319 115.33 77.067 115.015 76.815C114.322 76.374 114.07 75.933 114.259 75.492C114.385 75.114 114.7 75.051 115.33 75.24C115.582 75.366 116.023 75.492 116.653 75.681C117.157 75.933 117.787 76.185 118.417 76.437C118.984 76.689 119.551 76.941 120.118 77.193C120.622 77.445 121.063 77.634 121.315 77.76C121.756 78.012 122.071 78.327 122.197 78.831C122.26 79.398 122.26 80.406 122.134 81.855C121.882 84.375 121.693 86.58 121.693 88.533C121.63 90.549 121.693 92.187 121.945 93.51Z" fill="white"/>
<rect x="180.5" y="0.5" width="90" height="120" fill="#F6C500"/>
<rect x="180.5" y="0.5" width="90" height="120" stroke="black"/>
<path d="M218.245 41.775C219.001 41.901 219.883 42.09 220.765 42.342C221.647 42.72 222.466 43.161 223.222 43.728C223.978 44.358 224.608 45.177 225.175 46.059C225.679 47.004 225.994 48.075 226.12 49.335C226.12 49.902 226.12 50.28 226.12 50.532C226.057 50.847 225.994 51.036 225.931 51.099C225.805 51.225 225.742 51.351 225.679 51.351C225.553 51.414 225.49 51.477 225.49 51.603C225.427 51.729 225.427 51.855 225.553 51.918C225.553 52.044 225.616 52.17 225.742 52.296C225.805 52.485 225.868 52.674 225.931 52.926C225.931 53.241 225.931 53.619 225.805 54.06C225.427 55.383 224.923 56.517 224.23 57.525C223.474 58.533 222.529 59.478 221.458 60.36C220.828 60.864 220.135 61.179 219.442 61.368C218.686 61.62 217.93 61.809 217.3 61.872C216.544 61.998 215.914 61.998 215.347 61.935C214.717 61.935 214.213 61.935 213.835 61.935C212.953 61.872 212.071 61.683 211.189 61.305C210.244 60.99 209.425 60.612 208.795 60.234C207.787 59.604 206.968 58.785 206.338 57.777C205.708 56.832 205.267 55.761 205.015 54.627C204.763 53.556 204.637 52.422 204.763 51.288C204.763 50.217 204.952 49.272 205.33 48.39C205.645 47.571 206.149 46.689 206.842 45.744C207.472 44.862 208.354 44.106 209.488 43.35C209.299 42.72 209.11 42.027 208.858 41.397C208.606 40.83 208.354 40.389 208.102 40.074C207.598 39.57 207.472 39.066 207.85 38.688C208.102 38.373 208.543 38.373 209.047 38.688C209.551 39.066 210.055 39.318 210.433 39.507C210.811 39.759 211.441 40.137 212.323 40.515C213.079 40.956 213.646 41.712 214.024 42.783C214.465 42.531 215.095 42.279 215.851 42.027C216.544 41.838 217.363 41.775 218.245 41.775ZM222.97 66.471C223.033 66.219 223.222 66.093 223.474 65.967C223.726 65.904 224.041 66.03 224.482 66.345C225.049 66.849 225.616 67.227 226.246 67.605C226.813 67.983 227.128 68.487 227.254 69.054C227.38 69.684 227.38 70.377 227.254 71.196C227.065 72.078 226.624 73.149 225.931 74.409C225.49 75.165 224.986 75.984 224.419 76.866C223.789 77.748 223.159 78.567 222.529 79.449C222.907 79.575 223.348 79.827 223.978 80.079C224.482 80.268 225.049 80.52 225.616 80.835C226.12 81.087 226.561 81.402 227.065 81.78C227.443 82.032 227.758 82.347 227.884 82.725C227.947 82.977 228.01 83.229 228.136 83.481C228.199 83.67 228.262 83.859 228.325 84.111C228.514 84.048 228.829 83.796 229.27 83.418C229.774 82.914 230.215 82.347 230.656 81.717C231.034 81.087 231.475 80.457 231.853 79.827C232.168 79.197 232.483 78.567 232.735 78.063C232.987 77.559 233.176 77.118 233.302 76.74C233.554 76.173 233.806 75.606 234.121 74.976C234.373 74.409 234.562 73.968 234.688 73.59C234.751 73.212 234.751 72.897 234.751 72.582C234.625 72.33 234.436 72.267 234.121 72.33C233.743 72.456 233.554 72.519 233.428 72.582C233.302 72.708 233.113 72.771 232.924 72.771C232.798 72.771 232.672 72.771 232.483 72.645C232.231 72.582 231.979 72.456 231.79 72.33C231.538 72.267 231.349 72.141 231.223 72.015C231.034 71.889 230.971 71.763 230.971 71.574C230.971 71.448 230.971 71.259 230.971 71.133C230.908 71.007 230.908 70.881 230.971 70.755C230.971 70.629 231.097 70.566 231.286 70.44C231.412 70.44 231.664 70.377 232.042 70.314C232.735 70.251 233.176 70.125 233.428 69.936C233.554 69.81 233.869 69.558 234.247 69.117C234.688 68.802 235.003 68.487 235.192 68.172C235.318 67.92 235.57 67.731 235.885 67.479L236.641 67.101C236.83 67.038 237.082 66.975 237.334 66.849C237.523 66.786 237.712 66.723 237.964 66.723L240.232 66.975C240.358 66.975 240.547 67.101 240.736 67.353C240.862 67.605 240.799 68.109 240.61 68.865C240.295 69.999 239.854 71.322 239.287 72.834C238.657 74.409 238.027 75.858 237.334 77.118L236.452 78.441C237.271 78.693 238.216 79.197 239.287 79.89C240.295 80.52 241.177 81.15 241.87 81.78C242.248 82.095 242.626 82.473 243.13 82.914C243.508 83.292 243.949 83.67 244.327 84.111C244.705 84.489 245.02 84.804 245.272 85.182C245.524 85.497 245.65 85.749 245.776 86.001C245.902 86.379 245.965 86.757 245.839 87.135C245.713 87.513 245.335 87.639 244.831 87.513C244.327 87.387 243.886 87.324 243.571 87.324C243.193 87.198 242.878 87.261 242.626 87.513C242.374 87.639 242.059 87.765 241.807 87.891C241.429 87.891 241.051 87.639 240.547 87.135C240.295 86.883 240.043 86.379 239.728 85.749C239.35 85.056 238.909 84.363 238.531 83.607C238.027 82.851 237.586 82.095 237.082 81.402C236.515 80.646 236.011 80.079 235.507 79.701L233.806 81.906C233.68 82.032 233.491 82.284 233.239 82.662C232.924 82.977 232.609 83.355 232.357 83.733C231.979 84.111 231.664 84.426 231.349 84.804C230.971 85.119 230.719 85.371 230.593 85.497C229.837 86.19 229.207 86.82 228.766 87.387C228.64 87.45 228.577 87.576 228.451 87.765C228.325 87.891 228.136 88.08 227.947 88.269C227.758 88.521 227.569 88.647 227.38 88.584C226.876 88.773 226.561 88.458 226.561 87.702C226.057 86.82 225.364 85.749 224.419 84.552C223.411 83.292 222.403 82.284 221.269 81.528L221.017 81.339L219.379 83.166C218.119 84.363 216.922 85.371 215.788 86.253C214.654 87.009 213.52 87.513 212.449 87.765C211.882 87.891 211.441 87.954 211.126 88.017C210.748 88.017 210.37 88.08 210.118 88.08C209.803 88.08 209.551 88.017 209.299 87.954C208.984 87.828 208.669 87.765 208.417 87.639C207.787 87.261 207.598 87.009 207.85 86.883C207.976 86.631 208.417 86.568 209.11 86.568C209.74 86.568 210.433 86.505 211.252 86.379C212.008 86.253 212.764 85.938 213.646 85.497C214.717 84.867 215.662 84.048 216.544 82.977C217.3 81.843 217.993 80.772 218.623 79.701L214.465 77.055C214.087 76.866 213.898 76.614 213.898 76.236C213.835 75.921 214.15 75.858 214.78 76.11C215.284 76.362 215.914 76.614 216.796 76.929C217.552 77.307 218.434 77.748 219.442 78.126C220.198 76.551 220.765 75.102 221.143 73.779C221.458 72.519 221.773 71.511 222.025 70.755C222.277 69.936 222.466 69.054 222.655 68.172C222.781 67.353 222.844 66.786 222.97 66.471ZM243.76 43.35C243.697 43.728 243.634 44.169 243.634 44.736C243.571 45.366 243.571 45.996 243.571 46.626C243.508 47.319 243.508 47.949 243.508 48.516C243.445 49.146 243.445 49.65 243.445 49.965L243.508 53.556H243.445C243.445 54.312 243.445 55.068 243.445 55.761C243.382 56.517 243.319 57.084 243.256 57.525C243.193 58.029 243.067 58.533 242.941 59.1C242.689 59.73 242.5 60.36 242.248 60.864C241.933 61.494 241.681 61.998 241.429 62.439C241.114 62.943 240.862 63.321 240.61 63.51C240.358 63.762 240.043 63.951 239.791 64.077C239.413 64.329 239.161 64.455 238.909 64.455C238.594 64.581 238.405 64.518 238.279 64.392C238.153 64.266 238.153 64.014 238.342 63.51C238.468 63.132 238.531 62.565 238.657 61.809C238.657 61.053 238.72 60.234 238.72 59.226C238.72 58.344 238.72 57.336 238.72 56.328C238.657 55.383 238.657 54.438 238.657 53.556C238.594 53.115 238.594 52.674 238.594 52.17C238.594 51.792 238.594 51.351 238.594 50.91C238.216 51.036 237.838 51.162 237.523 51.225C237.145 51.351 236.83 51.477 236.515 51.54C236.137 51.666 235.759 51.729 235.255 51.855C234.688 51.981 234.184 52.107 233.68 52.17C233.113 52.296 232.609 52.296 232.168 52.296C231.664 52.359 231.349 52.296 231.16 52.17C230.908 52.044 230.719 51.918 230.593 51.729C230.404 51.603 230.215 51.414 230.089 51.225C229.9 51.099 229.711 50.91 229.459 50.721C229.144 50.595 228.766 50.532 228.325 50.469C227.317 50.343 226.813 50.091 226.687 49.713C226.561 49.335 226.75 49.146 227.38 49.02C227.632 49.02 227.884 48.957 228.136 48.957C228.262 48.957 228.514 48.957 228.766 48.894C229.018 48.894 229.333 48.894 229.711 48.831C230.026 48.831 230.53 48.831 231.16 48.705C231.664 48.705 232.609 48.579 234.121 48.453C235.57 48.39 237.082 48.201 238.594 47.886C238.594 47.697 238.594 47.508 238.594 47.256C238.594 47.13 238.594 47.004 238.657 46.941C238.783 46.815 238.972 46.689 239.161 46.689C239.287 46.689 239.35 46.563 239.476 46.248C239.476 46.122 239.476 45.933 239.413 45.807C239.287 45.681 239.224 45.555 239.161 45.366C239.035 45.24 238.909 45.051 238.846 44.799C238.72 44.61 238.72 44.358 238.783 43.98C238.846 43.539 238.909 43.035 238.909 42.405C238.909 41.901 238.909 41.334 238.909 40.704C238.783 39.507 238.783 38.562 238.909 37.806C238.909 37.176 238.909 36.546 238.909 35.916C238.783 35.475 238.783 34.971 238.783 34.404C238.72 33.9 238.468 33.459 237.964 33.018C237.46 32.64 237.019 32.388 236.641 32.199C236.137 32.073 235.696 31.884 235.318 31.632C235.066 31.506 234.94 31.38 234.94 31.128C234.877 30.939 234.94 30.75 235.066 30.498C235.129 30.372 235.318 30.183 235.57 30.057C235.822 29.994 236.137 29.994 236.578 30.12C236.83 30.246 237.208 30.372 237.838 30.498C238.342 30.687 238.972 30.876 239.665 31.002C240.295 31.254 240.988 31.443 241.681 31.569C242.311 31.821 242.878 31.947 243.256 32.01C243.823 32.136 244.264 32.325 244.642 32.451C244.957 32.703 245.02 33.081 244.831 33.711C244.579 34.404 244.39 35.097 244.201 35.853C243.949 36.609 243.823 37.428 243.823 38.31C243.823 38.94 243.823 39.696 243.823 40.704C243.76 41.712 243.76 42.594 243.76 43.35ZM213.142 46.626C212.26 47.508 211.504 47.76 210.874 47.445C210.496 47.445 210.244 47.571 210.055 47.697C209.803 47.949 209.551 48.201 209.425 48.453C209.236 48.831 209.11 49.146 209.047 49.461C208.921 49.839 208.795 50.217 208.795 50.532C208.669 51.288 208.669 51.981 208.795 52.674C208.795 53.43 208.984 54.06 209.299 54.69C209.551 55.32 209.929 55.887 210.559 56.391C211.126 56.895 211.882 57.273 212.89 57.525C214.087 57.903 215.158 57.966 216.04 57.714C216.859 57.588 217.678 57.273 218.56 56.895C219.694 55.95 220.45 54.879 220.828 53.745C221.206 52.674 221.395 51.477 221.521 50.091C221.584 48.705 221.269 47.445 220.513 46.311C219.757 45.303 218.686 44.61 217.363 44.295C216.859 44.232 216.355 44.169 215.788 44.169C215.158 44.232 214.654 44.232 214.213 44.232C214.213 44.736 214.087 45.114 213.961 45.492C213.772 45.933 213.52 46.311 213.142 46.626Z" fill="white"/>
<rect x="270.5" y="30.5" width="90" height="120" fill="#F6C500"/>
<rect x="270.5" y="30.5" width="90" height="120" stroke="black"/>
<path d="M318.954 71.46C319.836 71.586 320.781 71.775 321.789 72.027C322.734 72.405 323.679 72.909 324.561 73.539C325.38 74.232 326.073 75.051 326.703 76.059C327.27 77.067 327.648 78.264 327.774 79.65C327.774 80.28 327.774 80.721 327.774 80.973C327.711 81.288 327.648 81.477 327.585 81.603C327.459 81.792 327.396 81.918 327.333 81.918C327.207 81.981 327.144 82.044 327.144 82.17C327.081 82.296 327.081 82.422 327.144 82.485C327.144 82.611 327.207 82.737 327.333 82.863C327.333 83.052 327.396 83.241 327.396 83.493C327.396 83.808 327.27 84.186 327.144 84.69C326.766 85.95 326.262 87.147 325.506 88.344C324.687 89.604 323.679 90.675 322.419 91.62C321.663 92.124 320.907 92.565 320.151 92.88C319.332 93.258 318.576 93.51 317.82 93.636C317.001 93.888 316.245 94.014 315.615 94.014C314.859 94.14 314.292 94.14 313.914 94.14C312.906 94.077 311.898 93.825 310.89 93.447C309.819 93.069 308.937 92.691 308.244 92.25C306.921 91.557 305.913 90.612 305.283 89.352C304.527 88.218 304.086 86.958 303.897 85.572C303.645 84.312 303.582 82.989 303.771 81.729C303.897 80.532 304.086 79.524 304.464 78.705C304.842 77.823 305.346 76.878 306.102 75.807C306.795 74.799 307.74 73.854 309 73.098C308.748 72.405 308.496 71.712 308.244 71.019C307.929 70.389 307.614 69.885 307.299 69.57C307.047 69.318 306.921 69.003 306.921 68.688C306.858 68.436 306.921 68.247 307.11 68.058C307.236 67.932 307.425 67.806 307.74 67.743C307.992 67.743 308.244 67.869 308.559 67.995C309.126 68.436 309.63 68.751 310.071 68.94C310.449 69.192 311.142 69.57 312.15 70.011C313.095 70.452 313.725 71.271 314.103 72.468C314.607 72.216 315.363 71.901 316.245 71.649C317.064 71.46 317.946 71.397 318.954 71.46ZM313.095 76.626C312.213 77.382 311.52 77.76 310.953 77.634V77.949C310.512 77.823 310.134 77.886 309.819 78.012C309.441 78.264 309.126 78.516 308.874 78.831C308.622 79.209 308.37 79.587 308.244 79.965C308.055 80.469 307.929 80.847 307.929 81.225C307.803 82.044 307.803 82.863 307.866 83.619C307.866 84.501 307.992 85.257 308.37 86.013C308.622 86.769 309.126 87.462 309.756 88.029C310.386 88.659 311.205 89.163 312.339 89.415C313.725 89.856 315.111 89.919 316.371 89.604C317.631 89.352 318.765 88.974 319.899 88.47C321.159 87.399 321.978 86.202 322.419 84.816C322.797 83.493 323.049 82.107 323.175 80.595C323.301 79.083 322.923 77.634 322.041 76.374C321.033 75.114 319.836 74.358 318.324 73.98C317.757 73.917 317.127 73.854 316.371 73.854C315.552 73.917 314.859 73.917 314.355 73.917C314.292 74.421 314.166 74.925 314.04 75.366C313.851 75.87 313.536 76.311 313.095 76.626ZM290.415 106.929C290.793 106.992 291.36 106.992 291.99 106.866C292.557 106.803 293.124 106.677 293.754 106.551C294.006 106.488 294.384 106.362 294.951 106.236C295.455 106.11 296.022 105.984 296.652 105.858C297.219 105.732 297.849 105.669 298.479 105.543C299.109 105.48 299.613 105.417 300.117 105.417C300.621 105.48 301.188 105.543 301.818 105.606C302.448 105.732 303.015 105.795 303.645 105.795C303.897 105.795 304.464 105.732 305.283 105.606C306.039 105.48 306.921 105.354 307.992 105.165C309 105.039 310.071 104.913 311.205 104.787C312.276 104.661 313.284 104.598 314.292 104.535L326.451 103.905C327.585 103.905 328.719 103.716 329.853 103.338C330.861 103.086 331.68 102.834 332.31 102.582C332.814 102.456 333.381 102.456 334.011 102.456C334.578 102.519 335.208 102.582 335.838 102.708C336.405 102.834 336.972 103.023 337.539 103.149C338.043 103.338 338.421 103.464 338.736 103.59C339.24 103.905 339.681 104.157 340.059 104.346C340.437 104.598 340.815 104.976 341.319 105.417C341.76 105.858 341.949 106.299 341.823 106.74C341.697 107.244 341.319 107.496 340.689 107.496C340.311 107.496 339.807 107.496 339.114 107.433C338.358 107.433 337.665 107.433 336.909 107.37C336.09 107.37 335.334 107.37 334.704 107.37C333.948 107.433 333.507 107.496 333.255 107.496C332.94 107.559 332.562 107.559 332.184 107.433C331.68 107.433 331.239 107.307 330.861 107.181C330.357 107.118 329.979 106.992 329.601 106.866C329.223 106.803 328.908 106.74 328.656 106.677C328.404 106.677 327.774 106.614 326.829 106.551C325.821 106.551 324.624 106.551 323.364 106.551C322.041 106.551 320.718 106.551 319.458 106.551C318.072 106.614 317.001 106.677 316.119 106.74C314.04 106.929 312.024 107.181 310.008 107.433C307.992 107.748 306.039 108.063 304.149 108.567C302.826 108.819 301.944 109.008 301.44 109.197C300.873 109.323 300.432 109.575 300.117 109.953C299.802 110.268 299.487 110.457 299.235 110.583C298.857 110.583 298.353 110.52 297.66 110.331C297.282 110.205 296.778 110.142 296.022 110.016C295.266 109.89 294.447 109.764 293.628 109.638C292.746 109.449 291.99 109.323 291.36 109.197C290.604 109.008 290.163 108.882 289.974 108.819C289.722 108.756 289.533 108.63 289.407 108.441C289.218 108.189 289.155 107.937 289.155 107.685C289.155 107.496 289.218 107.307 289.47 107.118C289.596 106.992 289.911 106.929 290.415 106.929Z" fill="white"/>
<rect x="360.5" y="30.5" width="90" height="120" fill="#F6C500"/>
<rect x="360.5" y="30.5" width="90" height="120" stroke="black"/>
<path d="M393.394 91.305L393.52 92.061C393.52 92.565 393.457 92.943 393.394 93.321C393.268 93.762 393.016 94.077 392.575 94.266C392.071 94.455 391.63 94.455 391.189 94.329C390.685 94.203 390.181 93.825 389.74 93.195C389.362 92.754 388.984 91.998 388.48 90.864C387.976 89.793 387.409 88.596 386.905 87.336C386.338 86.139 385.834 84.942 385.393 83.745C384.889 82.611 384.511 81.666 384.259 81.036C383.629 79.776 383.251 78.705 382.999 77.823C382.684 77.004 382.495 75.933 382.369 74.61C382.243 73.98 382.243 73.539 382.369 73.287C382.432 73.098 382.558 72.972 382.747 72.972C382.873 73.035 382.999 73.161 383.188 73.287C383.314 73.476 383.503 73.602 383.629 73.728C383.881 74.106 384.385 74.484 385.015 74.988C385.582 75.492 386.086 75.744 386.464 75.744C386.653 75.744 386.968 75.807 387.346 75.87C387.724 75.996 388.102 76.122 388.48 76.248C388.858 76.5 389.173 76.752 389.551 77.067C389.866 77.445 390.055 77.823 390.181 78.264C390.307 78.768 390.433 79.398 390.559 80.028C390.622 80.784 390.748 81.477 390.874 82.107C391 82.863 391.063 83.493 391.189 83.997C391.252 84.627 391.315 85.005 391.441 85.131L392.26 87.651C392.449 87.966 392.701 88.155 392.953 88.281C393.457 88.785 394.213 88.974 395.221 88.911C396.103 88.911 396.985 88.911 397.741 88.785C399.253 88.596 400.324 88.218 400.828 87.651C401.269 87.147 401.584 86.265 401.71 85.005C401.71 84.438 401.773 83.745 401.836 82.863C401.836 82.107 401.836 81.288 401.836 80.406C401.836 79.65 401.836 78.894 401.836 78.138C401.773 77.508 401.773 77.004 401.773 76.752C401.773 76.311 401.584 75.933 401.269 75.681C400.891 75.429 400.261 75.366 399.379 75.492C398.875 75.618 398.308 75.681 397.615 75.744C396.859 75.87 396.166 75.933 395.473 75.996C394.717 76.122 394.024 76.185 393.457 76.185C392.827 76.311 392.386 76.311 392.134 76.311C391.882 76.311 391.567 76.311 391.315 76.185C390.937 76.185 390.685 76.059 390.559 75.933C390.37 75.807 390.307 75.681 390.37 75.492C390.37 75.366 390.622 75.177 391.126 74.925C391.567 74.673 392.134 74.484 392.764 74.232C393.394 74.043 394.024 73.791 394.717 73.539C395.347 73.35 395.914 73.098 396.544 72.846C397.048 72.594 397.489 72.342 397.804 72.027C398.371 71.46 398.938 70.893 399.505 70.326C400.009 69.822 400.639 69.507 401.521 69.507C402.277 69.507 403.033 69.633 403.789 69.822C404.419 70.074 405.364 70.2 406.561 70.263C407.065 70.326 407.569 70.452 408.073 70.641C408.451 70.893 408.766 71.208 409.018 71.523C409.144 71.901 409.207 72.279 409.144 72.657C409.018 73.161 408.64 73.602 408.136 73.98C407.569 74.484 407.128 74.862 406.876 75.114C406.498 75.429 406.309 75.744 406.183 75.996C406.057 76.374 405.994 76.752 405.994 77.13C405.994 77.634 405.994 78.201 406.12 78.957C406.12 79.713 406.183 80.532 406.246 81.288C406.246 82.107 406.309 82.863 406.309 83.556C406.309 84.312 406.309 84.942 406.309 85.509C406.309 86.139 406.309 86.643 406.309 86.895C406.309 87.588 406.12 88.092 405.868 88.407C405.553 88.785 405.175 89.163 404.671 89.604C404.167 90.108 403.852 90.612 403.663 91.179C403.411 91.809 403.096 92.187 402.592 92.25C401.899 92.376 401.206 92.376 400.45 92.313C399.631 92.313 398.812 92.187 398.056 92.061C397.174 91.998 396.355 91.872 395.599 91.683C394.78 91.557 394.024 91.431 393.394 91.305ZM408.955 81.414C407.947 81.288 407.443 81.036 407.317 80.658C407.191 80.28 407.38 80.091 408.01 79.965C408.262 79.965 408.514 79.902 408.766 79.902C408.892 79.902 409.144 79.902 409.396 79.839C409.648 79.839 409.963 79.839 410.341 79.776C410.656 79.776 411.16 79.776 411.79 79.65C412.042 79.65 412.42 79.65 412.987 79.587C413.491 79.587 414.058 79.524 414.814 79.398C415.444 79.398 416.2 79.272 417.019 79.146C417.775 79.083 418.531 78.957 419.287 78.831C419.224 78.453 419.224 78.075 419.287 77.697C419.287 77.382 419.413 77.13 419.539 77.004C419.665 76.815 419.791 76.689 419.98 76.689C420.106 76.752 420.232 76.626 420.358 76.311C420.358 76.185 420.358 75.996 420.295 75.87C420.169 75.744 420.043 75.618 419.98 75.429C419.854 75.303 419.728 75.051 419.665 74.799C419.539 74.61 419.539 74.358 419.665 73.98C419.728 73.539 419.791 73.035 419.791 72.405C419.728 71.901 419.728 71.334 419.728 70.767C419.665 69.507 419.665 68.562 419.728 67.806C419.728 67.176 419.728 66.546 419.728 65.979C419.665 65.538 419.602 65.034 419.602 64.467C419.539 63.963 419.287 63.522 418.846 63.081C418.342 62.703 417.838 62.451 417.46 62.262C416.956 62.136 416.578 61.947 416.2 61.695C415.948 61.569 415.822 61.443 415.822 61.191C415.759 61.002 415.759 60.813 415.885 60.561C415.948 60.435 416.137 60.246 416.389 60.12C416.641 60.057 416.956 60.057 417.46 60.12C417.649 60.246 418.027 60.372 418.657 60.498C419.161 60.687 419.791 60.876 420.484 61.065C421.114 61.317 421.807 61.506 422.5 61.632C423.13 61.821 423.697 61.947 424.075 62.01C424.642 62.199 425.083 62.388 425.461 62.514C425.776 62.766 425.839 63.144 425.65 63.774C425.398 64.467 425.209 65.16 425.02 65.916C424.768 66.735 424.642 67.554 424.642 68.373C424.642 69.003 424.642 69.759 424.642 70.704C424.579 71.712 424.579 72.657 424.579 73.413C424.579 73.791 424.516 74.232 424.516 74.799C424.453 75.429 424.39 76.122 424.39 76.752C424.327 77.445 424.327 78.075 424.327 78.642C424.264 79.272 424.264 79.776 424.264 80.091C424.264 81.414 424.264 82.611 424.264 83.745C424.201 84.879 424.201 86.013 424.201 87.147C424.075 88.722 424.075 90.045 424.075 91.053C424.012 92.187 424.012 92.943 424.012 93.321C424.012 94.014 423.886 94.77 423.76 95.589C423.508 96.471 423.319 97.29 423.067 98.046C422.752 98.928 422.437 99.684 422.185 100.314C421.807 101.007 421.555 101.448 421.303 101.7C421.051 102.015 420.736 102.267 420.484 102.519C420.106 102.834 419.854 103.023 419.602 103.086C419.287 103.212 419.098 103.212 418.972 102.96C418.846 102.834 418.846 102.393 419.035 101.7C419.161 101.07 419.287 100.062 419.413 98.613C419.476 97.227 419.539 95.715 419.602 94.077C419.602 92.502 419.602 90.927 419.602 89.289C419.539 87.777 419.539 86.454 419.539 85.446C419.539 84.879 419.539 84.312 419.539 83.682C419.413 83.178 419.35 82.548 419.35 81.792C418.468 82.17 417.775 82.359 417.145 82.485C416.767 82.611 416.389 82.674 415.885 82.8C415.318 82.926 414.814 83.052 414.31 83.115C413.743 83.241 413.239 83.241 412.798 83.241C412.294 83.304 411.979 83.241 411.79 83.115C411.538 82.989 411.349 82.863 411.223 82.674C411.034 82.548 410.845 82.359 410.719 82.17C410.53 82.044 410.341 81.855 410.089 81.666C409.774 81.54 409.396 81.477 408.955 81.414ZM406.876 99.621C407.191 99.621 407.506 99.81 407.758 100.062C407.947 100.377 407.884 100.755 407.632 101.196C407.506 101.448 407.317 101.7 407.128 102.078C406.876 102.519 406.687 102.96 406.498 103.338C406.246 103.842 405.994 104.22 405.868 104.598C405.616 105.039 405.49 105.354 405.427 105.543C405.364 105.795 405.301 106.236 405.238 106.74C405.112 107.37 404.986 107.937 404.986 108.567C404.923 109.197 404.923 109.827 404.986 110.457C404.986 111.024 405.175 111.465 405.427 111.78C405.931 112.347 406.561 112.725 407.254 112.914C407.884 113.04 408.514 113.166 409.144 113.229C409.837 113.229 410.719 113.166 411.853 113.166C412.861 113.04 413.932 112.977 415.066 112.851C416.074 112.662 417.082 112.473 418.09 112.347C419.035 112.158 419.791 111.969 420.295 111.78C421.114 111.465 421.87 111.339 422.563 111.402C423.193 111.402 423.76 111.591 424.264 112.095C424.516 112.347 424.768 112.536 425.083 112.788C425.335 112.914 425.587 113.103 425.839 113.292C425.965 113.418 426.091 113.544 426.154 113.67C426.154 113.796 426.028 113.922 425.776 114.048C425.209 114.3 424.705 114.615 424.201 114.867C423.697 115.056 423.004 115.245 422.185 115.497C421.807 115.623 421.492 115.749 421.366 115.938C421.114 116.064 420.988 116.19 420.862 116.379C420.673 116.505 420.484 116.694 420.295 116.883C420.043 117.009 419.728 117.072 419.287 117.198C418.783 117.261 417.964 117.324 416.893 117.387C415.759 117.387 414.499 117.324 413.239 117.324C411.916 117.261 410.656 117.198 409.522 117.135C408.325 117.009 407.443 116.946 406.813 116.82C406.057 116.631 405.301 116.379 404.671 116.127C403.978 115.749 403.411 115.371 402.907 114.867C402.403 114.3 402.025 113.67 401.773 112.977C401.458 112.221 401.332 111.339 401.395 110.331C401.458 109.071 401.521 107.937 401.584 106.803C401.584 105.732 401.647 104.913 401.647 104.283C401.647 103.905 401.521 103.59 401.269 103.275C400.954 103.023 400.702 102.771 400.45 102.393C400.324 102.267 400.198 102.141 400.072 101.889C399.883 101.763 399.757 101.574 399.631 101.322C399.505 101.133 399.442 100.881 399.442 100.629C399.379 100.377 399.442 100.125 399.631 99.81C399.946 99.18 400.198 98.802 400.45 98.676C400.639 98.613 400.891 98.676 401.206 98.865C401.332 98.991 401.395 99.117 401.458 99.243C401.458 99.369 401.458 99.495 401.458 99.558C401.458 99.684 401.458 99.81 401.521 99.873C401.521 99.999 401.647 99.999 401.899 99.999C402.277 100.125 402.655 100.062 403.033 99.873C403.348 99.747 403.789 99.621 404.293 99.558C404.734 99.558 405.175 99.495 405.679 99.495C406.12 99.558 406.498 99.621 406.876 99.621Z" fill="white"/>
</svg>
