<svg width="271" height="151" viewBox="0 0 271 151" fill="none" xmlns="http://www.w3.org/2000/svg">
<rect x="0.5" y="30.5" width="90" height="120" fill="#F6C500"/>
<rect x="0.5" y="30.5" width="90" height="120" stroke="black"/>
<path d="M55.6479 82.17C56.2779 80.721 56.9709 79.272 57.7899 77.823C58.5459 76.437 59.3649 75.114 60.1839 73.854C60.1839 73.413 60.2469 72.909 60.2469 72.342C60.1839 71.838 60.1839 71.271 60.2469 70.641C60.1839 69.381 60.1839 68.436 60.2469 67.743C60.2469 67.113 60.2469 66.483 60.2469 65.853C60.1839 65.412 60.1839 64.908 60.1839 64.404C60.1209 63.9 59.8689 63.459 59.4279 63.018C58.9239 62.64 58.4829 62.388 58.1049 62.199C57.6009 62.073 57.2229 61.884 56.9079 61.632C56.6559 61.506 56.5299 61.38 56.5299 61.128C56.4669 60.939 56.4669 60.75 56.5929 60.498C56.6559 60.372 56.8449 60.183 57.0969 60.057C57.2859 59.994 57.6009 59.994 58.0419 60.12C58.2309 60.246 58.6089 60.309 59.1759 60.435C59.6799 60.624 60.3099 60.813 61.0029 60.939C61.6329 61.191 62.2629 61.38 62.8929 61.506C63.5229 61.695 64.0269 61.821 64.4049 61.884C64.9089 62.073 65.3499 62.262 65.7279 62.388C65.9799 62.64 66.0429 63.018 65.8539 63.648C65.6019 64.341 65.4129 65.034 65.2869 65.79C65.0349 66.609 64.9719 67.428 64.9719 68.31C64.9719 68.877 64.9719 69.633 64.9719 70.641C64.9089 71.649 64.8459 72.531 64.7829 73.287C64.7829 73.665 64.7829 74.106 64.7829 74.673C64.7199 75.303 64.7199 75.996 64.7199 76.626C64.6569 77.319 64.6569 77.949 64.6569 78.516C64.5939 79.146 64.5939 79.65 64.5939 79.965C64.5939 80.658 64.5939 81.225 64.6569 81.729C64.6569 82.296 64.6569 82.8 64.6569 83.304C64.6569 83.871 64.6569 84.438 64.7199 85.005C64.7199 85.635 64.7199 86.391 64.7199 87.21V95.841C64.5939 98.109 64.5309 99.936 64.5309 101.448C64.4679 103.023 64.4679 104.094 64.4679 104.661C64.4679 105.669 64.3419 106.74 64.2159 107.937C64.0269 109.134 63.8379 110.331 63.5859 111.465C63.3339 112.599 63.0189 113.607 62.7669 114.552C62.4519 115.434 62.1999 116.127 61.9479 116.505C61.6959 116.883 61.3809 117.324 61.1289 117.765C60.8139 118.143 60.5619 118.395 60.3099 118.584C60.0579 118.71 59.8689 118.647 59.7429 118.395C59.6169 118.08 59.6169 117.45 59.8059 116.505C59.8689 115.875 59.9319 114.993 60.0579 113.922C60.0579 112.788 60.1209 111.528 60.1839 110.142C60.1839 108.693 60.2469 107.244 60.2469 105.669C60.2469 104.157 60.2469 102.582 60.2469 101.07V93.447C60.2469 92.376 60.1839 91.242 60.1839 90.108C60.1209 88.974 60.1209 87.651 60.1209 86.013C59.9949 85.005 59.9949 83.934 59.9949 82.863C59.9319 81.855 59.9319 80.91 59.9319 80.028C59.5539 80.91 59.2389 81.729 58.9869 82.485C58.6089 83.367 58.2939 84.186 57.9789 85.005C57.6009 85.887 57.2229 86.832 56.8449 87.84C56.3409 88.911 55.9629 89.982 55.5849 91.116C55.1439 92.25 54.7659 93.384 54.5139 94.518C54.1359 95.652 53.9469 96.723 53.8839 97.605C53.7579 98.235 53.7579 98.739 53.8209 99.18C53.8209 99.684 53.8209 100.125 53.8209 100.44C53.6949 100.818 53.5689 101.133 53.3799 101.259C53.1279 101.448 52.6869 101.511 52.1199 101.385C51.4899 101.322 50.9859 101.259 50.6079 101.133C50.1669 101.07 49.8519 100.881 49.5999 100.566C49.3479 100.314 49.1589 99.936 49.0959 99.369C48.9699 98.865 48.9069 98.046 48.9699 96.975C48.9699 96.219 49.0329 95.274 49.0329 94.14C48.9699 93.069 48.9699 91.935 48.9699 90.738C48.9069 89.604 48.9069 88.47 48.9069 87.336C48.9069 86.265 48.9069 85.257 48.9699 84.375C48.9069 83.304 48.9069 82.359 48.9069 81.54C48.9069 80.784 48.9069 80.406 49.0329 80.343C49.1589 80.217 49.2849 80.091 49.4739 80.091C49.5999 80.091 49.6629 79.965 49.7889 79.65C49.7889 79.524 49.7889 79.335 49.7889 79.209C49.6629 79.083 49.5999 78.957 49.5369 78.768C49.4109 78.642 49.2849 78.453 49.2219 78.201C49.0959 78.012 49.0959 77.76 49.1589 77.382C49.2219 76.941 49.2849 76.437 49.2849 75.807C49.2219 75.303 49.2219 74.736 49.2219 74.106C49.2219 72.846 49.2219 71.901 49.2849 71.208C49.2849 70.578 49.2219 69.948 49.2219 69.318C49.1589 68.877 49.1589 68.373 49.1589 67.869C49.0959 67.365 48.8439 66.924 48.4029 66.483C47.8989 66.105 47.4579 65.853 47.0799 65.664C46.6389 65.538 46.2609 65.349 45.9459 65.097C45.7569 64.971 45.6309 64.845 45.6309 64.593C45.5049 64.404 45.5679 64.215 45.6939 63.963C45.7569 63.837 45.9459 63.648 46.1979 63.522C46.3869 63.459 46.7019 63.459 47.0799 63.585C47.2689 63.711 47.6469 63.774 48.2139 63.9C48.7179 64.089 49.2849 64.278 49.9149 64.404C50.5449 64.656 51.1749 64.845 51.8049 64.971C52.4349 65.16 52.9389 65.286 53.3169 65.349C53.8209 65.538 54.1989 65.727 54.5769 65.853C54.8289 66.105 54.8919 66.483 54.7659 67.113C54.5139 67.806 54.3249 68.499 54.1989 69.255C53.9469 70.074 53.8839 70.893 53.8839 71.775C53.8209 72.342 53.8209 73.098 53.8209 74.106C53.8209 75.177 53.7579 76.059 53.6949 76.815C53.6949 77.193 53.6319 77.571 53.6319 78.075C53.5689 78.642 53.5059 79.209 53.5059 79.776C53.4429 80.406 53.4429 81.036 53.4429 81.603C53.3799 82.233 53.3799 82.674 53.3799 83.052C53.2539 84.564 53.4429 85.257 53.8209 85.131C54.1989 85.068 54.7659 84.06 55.6479 82.17ZM30.5109 93.195C30.6369 94.203 30.6999 95.022 30.8259 95.589C30.8889 96.219 31.0149 96.723 31.1409 96.975C31.2669 97.29 31.4559 97.479 31.7079 97.479C31.9599 97.542 32.3379 97.479 32.8419 97.353C33.7239 97.101 34.6689 96.786 35.6139 96.345C36.4959 95.967 37.1889 95.463 37.8189 94.959C38.3229 94.581 38.8269 94.14 39.3939 93.636C39.8979 93.195 40.4019 93.132 40.9059 93.384L40.9689 93.447C41.1579 92.691 41.3469 92.187 41.4729 92.061C41.5989 91.872 41.7879 91.683 42.1029 91.431C42.3549 91.242 42.7329 91.053 43.1109 90.864C43.4259 90.738 43.8039 90.612 44.1819 90.549C44.5599 90.549 44.8749 90.549 45.1899 90.675C45.7569 90.927 46.2609 91.431 46.7019 92.061C47.0799 92.817 47.2689 93.51 47.3949 94.14C47.3949 94.833 47.3319 95.274 47.1429 95.463C46.8909 95.715 46.5759 95.967 46.1349 96.345C45.6939 96.723 45.3159 97.038 45.0009 97.353C44.6229 97.731 44.3079 97.983 44.1189 98.235C43.8669 98.55 43.6779 98.739 43.5519 98.739C43.3629 98.802 43.0479 98.865 42.6699 98.865C42.2289 98.928 41.9139 98.991 41.7249 98.991C41.4729 99.054 41.2209 99.243 41.0949 99.495C40.8429 99.873 40.5909 99.999 40.2759 99.999C39.8979 100.062 39.7089 99.873 39.8349 99.369L40.2129 97.101C39.6459 97.479 39.1419 97.794 38.6379 98.109C38.0709 98.487 37.6299 98.865 37.3149 99.18C36.6849 99.81 35.8659 100.314 34.9209 100.692C33.9129 101.07 33.0309 101.448 32.4009 101.7C32.1489 101.826 31.8969 101.826 31.7079 101.826C31.4559 101.889 31.2669 101.889 31.0149 101.763C30.2589 101.763 29.6289 101.574 29.1249 101.196C28.5579 100.881 28.0539 100.314 27.5499 99.495C26.9199 98.613 26.5419 97.353 26.2899 95.841C25.9749 94.392 25.7859 92.817 25.7229 91.116C25.5969 89.478 25.5339 87.903 25.5969 86.265C25.5969 84.753 25.6599 83.43 25.6599 82.296C25.6599 81.351 25.5969 80.595 25.5339 79.965C25.4079 79.398 25.2819 78.894 25.1559 78.516C24.9669 78.201 24.7779 77.886 24.5259 77.634C24.2109 77.445 23.8959 77.193 23.6439 76.941C23.0139 76.5 22.7619 76.059 22.9509 75.681C23.0769 75.303 23.3919 75.24 24.0219 75.429C24.2739 75.555 24.6519 75.681 25.2819 75.87C25.7859 76.122 26.4159 76.437 27.0459 76.689C27.6129 77.004 28.1799 77.256 28.7469 77.508C29.2509 77.76 29.6919 77.949 29.9439 78.075C30.3849 78.327 30.6369 78.705 30.6999 79.272C30.6999 79.902 30.6999 80.91 30.5739 82.359C30.3219 84.879 30.2589 86.958 30.2589 88.596C30.1959 90.36 30.2589 91.872 30.5109 93.195Z" fill="white"/>
<rect x="90.5" y="0.5" width="90" height="120" fill="#F6C500"/>
<rect x="90.5" y="0.5" width="90" height="120" stroke="black"/>
<path d="M128.56 42.405C129.316 42.531 130.198 42.72 131.08 42.972C131.962 43.35 132.781 43.791 133.537 44.358C134.293 44.988 134.923 45.807 135.49 46.689C135.994 47.634 136.309 48.705 136.435 49.965C136.435 50.532 136.435 50.91 136.435 51.162C136.372 51.477 136.309 51.666 136.246 51.729C136.12 51.855 136.057 51.981 135.994 51.981C135.868 52.044 135.805 52.107 135.805 52.233C135.742 52.359 135.742 52.485 135.868 52.548C135.868 52.674 135.931 52.8 136.057 52.926C136.12 53.115 136.183 53.304 136.246 53.556C136.246 53.871 136.246 54.249 136.12 54.69C135.742 56.013 135.238 57.21 134.482 58.344C133.726 59.478 132.781 60.486 131.71 61.305C131.08 61.809 130.45 62.124 129.694 62.313C128.938 62.565 128.182 62.754 127.426 62.817C126.67 62.943 125.977 62.943 125.347 62.88C124.717 62.88 124.213 62.88 123.835 62.88C122.953 62.817 122.071 62.565 121.189 62.187C120.244 61.872 119.425 61.494 118.795 61.116C117.787 60.486 116.968 59.667 116.338 58.659C115.708 57.651 115.267 56.58 115.015 55.383C114.763 54.249 114.637 53.115 114.763 51.981C114.763 50.847 114.952 49.902 115.33 49.02C115.645 48.201 116.149 47.319 116.842 46.374C117.472 45.492 118.354 44.736 119.488 43.98C119.299 43.35 119.11 42.657 118.858 42.027C118.606 41.46 118.354 41.019 118.102 40.704C117.598 40.2 117.472 39.696 117.85 39.318C118.102 39.003 118.543 39.003 119.047 39.318C119.551 39.696 120.055 39.948 120.433 40.137C120.811 40.389 121.441 40.767 122.323 41.145C123.079 41.523 123.646 42.342 124.024 43.476C124.528 43.224 125.158 42.972 126.04 42.72C126.796 42.468 127.678 42.405 128.56 42.405ZM148.72 50.28C148.72 50.154 148.72 49.902 148.72 49.524C148.657 49.272 148.657 48.894 148.657 48.516C148.657 48.201 148.657 47.886 148.72 47.571C148.72 47.319 148.783 47.13 148.909 47.004C149.035 46.815 149.161 46.689 149.35 46.689C149.476 46.752 149.602 46.626 149.728 46.311C149.728 46.185 149.728 45.996 149.665 45.87C149.539 45.744 149.413 45.618 149.35 45.429C149.224 45.303 149.098 45.051 149.035 44.799C148.909 44.61 148.909 44.358 149.035 43.98C149.098 43.539 149.161 43.035 149.161 42.405C149.098 41.901 149.098 41.334 149.098 40.767C149.035 39.507 149.035 38.562 149.098 37.806C149.098 37.176 149.098 36.546 149.098 35.979C149.035 35.538 148.972 35.034 148.972 34.467C148.909 33.963 148.657 33.522 148.216 33.081C147.712 32.703 147.208 32.451 146.83 32.262C146.326 32.136 145.948 31.947 145.57 31.695C145.318 31.569 145.192 31.443 145.192 31.191C145.129 31.002 145.129 30.813 145.255 30.561C145.318 30.435 145.507 30.246 145.759 30.12C146.011 30.057 146.326 30.057 146.83 30.12C147.019 30.246 147.397 30.372 148.027 30.498C148.531 30.687 149.161 30.876 149.854 31.065C150.484 31.317 151.177 31.506 151.87 31.632C152.5 31.821 153.067 31.947 153.445 32.01C154.012 32.199 154.453 32.388 154.831 32.514C155.146 32.766 155.209 33.144 155.02 33.774C154.768 34.467 154.579 35.16 154.39 35.916C154.138 36.735 154.012 37.554 154.012 38.373C154.012 39.003 154.012 39.759 154.012 40.704C153.949 41.712 153.949 42.657 153.949 43.413C153.949 43.791 153.886 44.232 153.886 44.799C153.823 45.429 153.76 46.122 153.76 46.752C153.697 47.445 153.697 48.075 153.697 48.642C153.634 49.272 153.634 49.776 153.634 50.091C153.634 51.414 153.634 52.611 153.634 53.745C153.571 54.879 153.571 56.013 153.571 57.147C153.445 58.722 153.445 60.045 153.445 61.053C153.382 62.187 153.382 62.943 153.382 63.321C153.382 64.014 153.256 64.77 153.13 65.589C152.878 66.471 152.689 67.29 152.437 68.046C152.122 68.928 151.807 69.684 151.555 70.314C151.177 71.007 150.925 71.448 150.673 71.7C150.421 72.015 150.106 72.267 149.854 72.519C149.476 72.834 149.224 73.023 148.972 73.086C148.657 73.212 148.468 73.212 148.342 72.96C148.216 72.834 148.216 72.393 148.405 71.7C148.531 71.07 148.657 70.062 148.783 68.613C148.846 67.227 148.909 65.715 148.972 64.077C148.972 62.502 148.972 60.927 148.972 59.289C148.909 57.777 148.909 56.454 148.909 55.446C148.909 54.69 148.909 53.934 148.846 53.115C148.72 52.359 148.72 51.414 148.72 50.28ZM136.246 69.621C136.561 69.621 136.876 69.81 137.128 70.062C137.317 70.377 137.254 70.755 137.002 71.196C136.876 71.448 136.687 71.7 136.498 72.078C136.246 72.519 136.057 72.96 135.868 73.338C135.616 73.842 135.364 74.22 135.238 74.598C134.986 75.039 134.86 75.354 134.797 75.543C134.734 75.795 134.671 76.236 134.608 76.74C134.482 77.37 134.356 77.937 134.356 78.567C134.293 79.197 134.293 79.827 134.356 80.457C134.356 81.024 134.545 81.465 134.797 81.78C135.301 82.347 135.931 82.725 136.624 82.914C137.254 83.04 137.884 83.166 138.514 83.229C139.207 83.229 140.089 83.166 141.223 83.166C142.231 83.04 143.302 82.977 144.436 82.851C145.444 82.662 146.452 82.473 147.46 82.347C148.405 82.158 149.161 81.969 149.665 81.78C150.484 81.465 151.24 81.339 151.933 81.402C152.563 81.402 153.13 81.591 153.634 82.095C153.886 82.347 154.138 82.536 154.453 82.788C154.705 82.914 154.957 83.103 155.209 83.292C155.335 83.418 155.461 83.544 155.524 83.67C155.524 83.796 155.398 83.922 155.146 84.048C154.579 84.3 154.075 84.615 153.571 84.867C153.067 85.056 152.374 85.245 151.555 85.497C151.177 85.623 150.862 85.749 150.736 85.938C150.484 86.064 150.358 86.19 150.232 86.379C150.043 86.505 149.854 86.694 149.665 86.883C149.413 87.009 149.098 87.072 148.657 87.198C148.153 87.261 147.334 87.324 146.263 87.387C145.129 87.387 143.869 87.324 142.609 87.324C141.286 87.261 140.026 87.198 138.892 87.135C137.695 87.009 136.813 86.946 136.183 86.82C135.427 86.631 134.671 86.379 134.041 86.127C133.348 85.749 132.781 85.371 132.277 84.867C131.773 84.3 131.395 83.67 131.143 82.977C130.828 82.221 130.702 81.339 130.765 80.331C130.828 79.071 130.891 77.937 130.954 76.803C130.954 75.732 131.017 74.913 131.017 74.283C131.017 73.905 130.891 73.59 130.639 73.275C130.324 73.023 130.072 72.771 129.82 72.393C129.694 72.267 129.568 72.141 129.442 71.889C129.253 71.763 129.127 71.574 129.001 71.322C128.875 71.133 128.812 70.881 128.812 70.629C128.749 70.377 128.812 70.125 129.001 69.81C129.316 69.18 129.568 68.802 129.82 68.676C130.009 68.613 130.261 68.676 130.576 68.865C130.702 68.991 130.765 69.117 130.828 69.243C130.828 69.369 130.828 69.495 130.828 69.558C130.828 69.684 130.828 69.81 130.891 69.873C130.891 69.999 131.017 69.999 131.269 69.999C131.647 70.125 132.025 70.062 132.403 69.873C132.718 69.747 133.159 69.621 133.663 69.558C134.104 69.558 134.545 69.495 135.049 69.495C135.49 69.558 135.868 69.621 136.246 69.621ZM123.142 47.256C122.26 48.138 121.504 48.39 120.874 48.075C120.496 48.075 120.244 48.201 120.055 48.327C119.803 48.579 119.551 48.831 119.425 49.083C119.236 49.461 119.11 49.776 119.047 50.091C118.921 50.469 118.795 50.847 118.795 51.162C118.669 51.918 118.669 52.611 118.795 53.367C118.795 54.123 118.984 54.879 119.299 55.509C119.551 56.202 119.929 56.769 120.559 57.273C121.126 57.84 121.882 58.218 122.89 58.47C124.087 58.848 125.158 58.911 126.166 58.659C127.111 58.533 127.993 58.218 128.875 57.84C130.009 56.895 130.765 55.824 131.143 54.564C131.521 53.367 131.71 52.107 131.836 50.721C131.899 49.335 131.584 48.075 130.828 46.941C130.072 45.933 129.001 45.24 127.678 44.925C127.174 44.862 126.607 44.799 125.977 44.799C125.221 44.862 124.654 44.862 124.213 44.862C124.213 45.366 124.087 45.744 123.961 46.122C123.772 46.563 123.52 46.941 123.142 47.256Z" fill="white"/>
<rect x="180.5" y="30.5" width="90" height="120" fill="#F6C500"/>
<rect x="180.5" y="30.5" width="90" height="120" stroke="black"/>
<path d="M235.081 98.235C235.9 98.361 236.782 98.55 237.727 98.802C238.609 99.117 239.428 99.558 240.184 100.062C240.94 100.692 241.57 101.385 242.137 102.267C242.641 103.149 242.893 104.22 243.019 105.48C243.019 106.047 243.019 106.425 243.019 106.677C242.956 106.929 242.893 107.118 242.83 107.181C242.704 107.307 242.641 107.433 242.578 107.433C242.452 107.496 242.389 107.559 242.389 107.685C242.263 107.811 242.263 107.937 242.389 107.937C242.389 108 242.452 108.126 242.578 108.252C242.578 108.378 242.641 108.567 242.704 108.819C242.704 109.071 242.641 109.386 242.515 109.89C242.137 110.961 241.696 112.095 241.066 113.229C240.436 114.363 239.554 115.308 238.42 116.19C237.79 116.631 237.097 117.009 236.341 117.261C235.585 117.513 234.829 117.702 234.136 117.828C233.38 117.954 232.687 118.017 232.057 118.08C231.427 118.08 230.923 118.08 230.545 118.08C229.6 117.954 228.655 117.765 227.773 117.45C226.828 117.072 226.009 116.757 225.316 116.442C224.119 115.812 223.237 114.93 222.67 113.922C222.04 112.788 221.662 111.717 221.536 110.583C221.284 109.386 221.284 108.252 221.41 107.181C221.536 106.11 221.725 105.228 222.04 104.535C222.418 103.779 222.922 102.897 223.615 101.952C224.245 101.07 225.19 100.314 226.324 99.621C226.135 99.054 225.946 98.487 225.757 97.92C225.505 97.416 225.253 97.038 225.001 96.786C224.497 96.345 224.371 95.904 224.749 95.463C225.001 95.085 225.442 95.085 225.946 95.4C226.45 95.778 226.954 96.03 227.332 96.282C227.647 96.597 228.214 96.912 229.096 97.29C229.789 97.668 230.293 98.298 230.671 99.243C231.175 98.991 231.805 98.739 232.624 98.487C233.38 98.298 234.199 98.235 235.081 98.235ZM245.161 74.61C245.161 75.114 245.161 75.681 245.161 76.437C245.098 77.193 245.098 77.949 245.098 78.705C245.035 79.461 245.035 80.154 245.035 80.784C244.972 81.414 244.972 81.855 244.972 81.981C244.972 83.745 244.972 85.194 244.972 86.265C244.909 87.399 244.783 88.407 244.657 89.415C244.594 89.919 244.468 90.423 244.342 90.99C244.153 91.62 243.964 92.25 243.712 92.754C243.46 93.384 243.208 93.888 242.956 94.329C242.704 94.833 242.452 95.211 242.2 95.4C241.948 95.652 241.633 95.841 241.381 95.967C241.003 96.219 240.751 96.345 240.499 96.345C240.247 96.471 240.058 96.408 239.995 96.282C239.869 96.156 239.869 95.904 240.058 95.4C240.184 95.022 240.247 94.455 240.31 93.699C240.31 92.943 240.373 92.124 240.436 91.116C240.436 90.234 240.436 89.226 240.436 88.218C240.373 87.21 240.373 86.265 240.373 85.383C240.31 84.375 240.31 83.367 240.31 82.359C240.31 81.351 240.31 80.406 240.31 79.461C239.932 80.028 239.617 80.595 239.302 81.099C238.924 81.729 238.609 82.233 238.294 82.737C237.916 83.241 237.538 83.871 237.16 84.564C236.719 85.32 236.341 86.013 235.963 86.769C235.585 87.525 235.207 88.281 234.955 88.974C234.64 89.73 234.451 90.423 234.325 90.99C234.199 91.368 234.199 91.683 234.325 91.935C234.325 92.187 234.325 92.439 234.325 92.565C234.262 92.754 234.136 92.88 233.947 92.88C233.695 93.006 233.317 93.006 232.75 92.88C232.12 92.88 231.616 92.817 231.175 92.754C230.671 92.754 230.356 92.628 230.104 92.439C229.789 92.313 229.6 91.998 229.474 91.62C229.285 91.242 229.222 90.738 229.285 90.045V86.265C229.222 85.572 229.222 84.879 229.222 84.123C229.222 83.43 229.222 82.8 229.285 82.17C229.285 81.666 229.285 81.288 229.285 80.91C229.285 80.658 229.285 80.469 229.348 80.406C229.474 80.28 229.663 80.154 229.789 80.154C229.915 80.154 229.978 80.028 230.104 79.713C230.104 79.587 230.104 79.398 230.104 79.272C229.978 79.146 229.915 79.02 229.852 78.831C229.726 78.705 229.6 78.516 229.537 78.264C229.411 78.075 229.411 77.823 229.474 77.445C229.537 77.004 229.6 76.374 229.6 75.555C229.6 74.799 229.6 74.169 229.6 73.539V69.381C229.474 68.94 229.474 68.436 229.474 67.869C229.411 67.365 229.159 66.924 228.718 66.483C228.214 66.105 227.836 65.853 227.458 65.664C227.017 65.538 226.639 65.349 226.324 65.097C226.135 64.971 226.009 64.845 226.009 64.593C225.883 64.404 225.883 64.215 226.009 63.963C226.072 63.837 226.261 63.648 226.513 63.522C226.702 63.459 227.017 63.459 227.395 63.585C227.584 63.711 227.962 63.837 228.529 63.963C229.033 64.152 229.663 64.341 230.293 64.467C230.923 64.719 231.553 64.908 232.183 65.034C232.75 65.286 233.254 65.412 233.632 65.475C234.136 65.601 234.577 65.79 234.955 65.916C235.207 66.168 235.27 66.546 235.144 67.176C234.892 67.869 234.703 68.562 234.514 69.318C234.262 70.137 234.199 70.956 234.199 71.838C234.136 72.468 234.136 73.224 234.136 74.169C234.136 75.177 234.073 76.059 234.073 76.815C234.073 77.319 234.01 77.949 234.01 78.831C233.947 79.776 233.884 80.658 233.884 81.477C233.947 82.044 234.136 82.359 234.451 82.359C234.703 82.485 235.144 81.981 235.9 80.91C236.593 79.965 237.349 78.957 238.231 77.949C239.05 76.941 239.869 76.059 240.751 75.24C240.625 75.114 240.562 74.925 240.499 74.673C240.373 74.484 240.373 74.232 240.436 73.854C240.499 73.413 240.562 72.909 240.562 72.342C240.499 71.838 240.499 71.334 240.499 70.704C240.499 69.507 240.499 68.562 240.562 67.806C240.562 67.176 240.499 66.546 240.499 65.916C240.436 65.475 240.436 64.971 240.436 64.404C240.373 63.9 240.121 63.459 239.68 63.018C239.176 62.64 238.735 62.388 238.357 62.199C237.916 62.073 237.538 61.884 237.223 61.632C237.034 61.506 236.908 61.38 236.908 61.128C236.782 60.939 236.782 60.75 236.908 60.498C236.971 60.372 237.16 60.183 237.412 60.057C237.601 59.994 237.916 59.994 238.357 60.12C238.546 60.246 238.924 60.372 239.491 60.498C239.995 60.687 240.625 60.876 241.255 61.002C241.885 61.254 242.515 61.443 243.208 61.569C243.838 61.821 244.342 61.947 244.72 62.01C245.224 62.136 245.665 62.325 246.043 62.451C246.295 62.703 246.358 63.081 246.232 63.711C245.98 64.404 245.791 65.097 245.602 65.853C245.35 66.672 245.224 67.491 245.224 68.373V71.334C245.161 71.964 245.161 72.594 245.161 73.161C245.161 73.791 245.161 74.232 245.161 74.61ZM216.559 80.28C216.433 80.532 216.37 80.721 216.244 80.847C216.118 81.099 215.992 81.288 215.929 81.477C217.189 82.107 218.512 82.737 219.835 83.367C221.095 84.06 222.04 84.627 222.67 85.005C223.489 85.635 224.245 86.076 224.875 86.391C225.505 86.769 225.883 87.084 226.135 87.21C226.324 87.399 226.45 87.651 226.576 88.029C226.639 88.47 226.576 89.037 226.45 89.73C226.324 90.108 226.324 90.36 226.324 90.486C226.261 90.738 226.261 90.864 226.324 90.99C226.324 91.116 226.324 91.242 226.387 91.368C226.387 91.494 226.387 91.683 226.387 91.935C226.387 92.502 226.135 92.88 225.757 93.006C225.253 93.195 224.812 93.069 224.371 92.565C223.237 91.494 221.851 90.171 220.213 88.596C218.575 87.084 216.622 85.509 214.354 83.871C213.409 85.131 212.464 86.202 211.519 87.147C210.511 88.155 209.566 89.037 208.81 89.73C207.424 90.99 205.975 91.872 204.463 92.313C202.888 92.817 201.502 93.006 200.305 92.88C199.36 92.754 198.919 92.565 198.919 92.187C198.982 91.935 199.171 91.746 199.675 91.62C200.242 91.557 200.746 91.494 201.25 91.368C201.691 91.305 202.132 91.179 202.636 90.927C203.077 90.738 203.581 90.423 204.085 90.045C204.526 89.667 205.03 89.163 205.66 88.47C206.353 87.651 207.172 86.58 208.117 85.32C208.999 84.123 209.881 82.863 210.763 81.477C210.007 81.099 209.377 80.721 208.747 80.343C208.054 80.028 207.55 79.776 207.235 79.65C206.479 79.335 206.164 79.02 206.29 78.642C206.29 78.327 206.731 78.264 207.55 78.39C208.18 78.579 208.936 78.768 209.755 79.02C210.511 79.335 211.204 79.587 211.708 79.776L212.401 78.39C212.527 78.138 212.653 77.823 212.842 77.319C212.968 76.878 213.157 76.374 213.409 75.87C213.535 75.429 213.724 74.988 213.913 74.547C214.039 74.169 214.102 73.917 214.165 73.665C214.354 73.035 214.291 72.342 214.039 71.649C213.724 71.019 213.409 70.389 213.094 69.885C212.968 69.759 212.842 69.57 212.716 69.255C212.527 69.003 212.401 68.751 212.338 68.499C212.212 68.373 212.212 68.184 212.275 67.995C212.275 67.869 212.401 67.743 212.59 67.617C212.716 67.554 212.842 67.491 213.094 67.491C213.283 67.554 213.472 67.68 213.724 67.806C213.913 68.184 214.165 68.499 214.48 68.751C214.732 69.066 215.236 69.444 215.929 69.885C216.307 70.2 216.874 70.515 217.693 70.83C218.449 71.208 219.079 71.523 219.52 71.775C219.898 72.09 220.213 72.405 220.465 72.72C220.591 73.098 220.402 73.665 219.835 74.484C219.394 75.051 218.953 75.744 218.512 76.5C218.008 77.319 217.63 78.075 217.315 78.705L216.559 80.28ZM229.915 102.96C229.096 103.59 228.466 103.905 227.962 103.779C227.584 103.653 227.206 103.716 226.954 103.842C226.576 104.031 226.324 104.283 226.135 104.535C225.883 104.913 225.757 105.228 225.631 105.606C225.505 105.984 225.379 106.362 225.379 106.74C225.316 107.496 225.316 108.126 225.379 108.882C225.379 109.575 225.505 110.268 225.757 110.898C226.009 111.528 226.387 112.095 226.954 112.599C227.458 113.04 228.277 113.418 229.285 113.67C230.482 113.922 231.679 114.048 232.876 113.922C234.01 113.733 235.018 113.418 235.9 113.04C237.034 112.032 237.727 111.024 238.042 109.953C238.294 108.819 238.42 107.622 238.546 106.236C238.609 104.85 238.294 103.59 237.538 102.456C236.782 101.385 235.711 100.692 234.325 100.44C233.821 100.377 233.254 100.377 232.624 100.377C231.931 100.44 231.364 100.503 230.923 100.503C230.986 101.511 230.671 102.33 229.915 102.96Z" fill="white"/>
</svg>
